<?xml version="1.0" encoding="UTF-8"?>
<!-- Generator: Adobe Illustrator 25.2.1, SVG Export Plug-In . SVG Version: 6.00 Build 0)  -->
<svg xmlns="http://www.w3.org/2000/svg" xmlns:xlink="http://www.w3.org/1999/xlink" version="1.1" id="Capa_1" x="0px" y="0px" viewBox="0 0 512 512" style="enable-background:new 0 0 512 512;" xml:space="preserve" width="512" height="512">
<g>
	<path style="fill:#FFFFFF;" d="M443.461,259.709c-0.884-9.951-3.27-18.883-7.093-26.559   c-14.245-28.592-21.468-51.161-24.931-77.904c-1.07-8.275-1.551-16.811-2.063-25.849c-0.509-9.045-1.036-18.402-2.194-27.813   c-0.276-2.315-0.58-4.626-0.947-6.941c-0.425-2.693-0.968-5.399-1.669-8.315c-0.195-0.798-0.413-1.579-0.642-2.361l-0.106-0.369   c-0.478-1.759-0.968-3.509-1.545-5.275c-0.295-0.897-0.618-1.775-0.943-2.65l-0.208-0.565c-0.549-1.499-1.104-2.988-1.697-4.394   c-0.45-1.077-0.931-2.135-1.511-3.385c-0.608-1.325-1.232-2.64-1.905-3.953c-0.589-1.148-1.207-2.284-1.852-3.435   c-0.658-1.17-1.334-2.333-2.001-3.419c-0.72-1.176-1.458-2.339-2.222-3.488c-0.676-1.011-1.371-2.004-2.035-2.926   c-0.863-1.207-1.735-2.404-2.606-3.525c-0.584-0.748-1.185-1.48-1.79-2.209l-0.211-0.255c-1.021-1.232-2.042-2.457-3.131-3.667   c-0.404-0.447-0.816-0.881-1.232-1.312l-0.223-0.236c-9.423-10.056-20.686-18.44-33.584-24.971   c-0.053-0.028-0.109-0.053-0.161-0.081c-2.051-1.033-4.133-2.007-6.345-2.976c-0.025-0.012-0.053-0.025-0.084-0.037   C322.256,3.751,304.381,0,286.835,0c-12.389,0-24.437,1.831-35.849,5.455c-2.159,0.689-4.378,1.474-6.54,2.318l-0.807,0.31   c-2.004,0.8-3.984,1.66-5.957,2.584l-1.362,0.649c-1.793,0.872-3.562,1.79-5.318,2.771c-0.534,0.298-1.061,0.605-1.592,0.912   c-0.019,0.012-0.301,0.177-0.32,0.186c-1.558,0.915-3.106,1.858-4.66,2.879c-0.72,0.474-1.427,0.968-2.135,1.464l-0.273,0.192   c-1.353,0.943-2.696,1.899-3.984,2.892c-0.841,0.649-1.666,1.331-2.488,2.02l-0.946,0.788c-0.962,0.791-1.918,1.592-2.796,2.392   c-1.077,0.971-2.122,2.001-3.162,3.038l-0.819,0.804c-0.667,0.645-1.328,1.297-1.954,1.964c-2.045,2.169-3.885,4.279-5.604,6.432   c-7.518,9.395-13.844,19.178-19.963,28.641c-4.911,7.599-9.55,14.775-14.586,21.437c-0.438,0.583-0.887,1.136-1.331,1.688   l-1.312,1.644c-8.018,10.224-16.538,19.336-26.02,27.826c-0.143,0.124-0.304,0.267-0.406,0.357   c-2.259,2.014-4.561,3.984-7.025,6.01l-0.841,0.67c-2.153,1.756-4.331,3.494-6.569,5.2c-0.419,0.32-0.85,0.633-1.281,0.946   l-1.865,1.381c-1.623,1.21-3.239,2.42-4.893,3.596c-2.829,2.014-5.718,4.012-8.678,5.994c-1.883,1.26-3.739,2.672-5.656,4.297   c-0.887,0.751-1.756,1.561-2.615,2.383l-0.335,0.317c-0.019,0.022-0.261,0.248-0.279,0.267c-0.54,0.506-1.077,1.018-1.56,1.514   c-1.238,1.257-2.439,2.594-3.618,3.975l-0.537,0.627c-1.272,1.514-2.498,3.093-3.711,4.766   c-16.922,23.389-26.414,61.884-11.809,90.209c18.163,35.225,62.083,49.2,91.143,58.447l1.56,0.496   c-3.956,10.605-10.77,20.72-19.231,32.781c-20.639,29.405-31.527,57.543-32.356,83.644c-0.751,23.723,8.654,45.067,26.485,60.1   c2.69,2.268,5.848,3.913,9.252,4.815l64.621,17.127c1.998,0.528,4.052,0.795,6.106,0.795c1.446,0,2.892-0.13,4.319-0.394   c22.936-4.229,41.679-18.111,52.775-39.095c12.203-23.078,16.686-52.917,13.32-88.683c-1.365-14.555-2.271-26.643-0.512-37.739   c1.945,0.447,3.863,0.872,5.756,1.272l1.998,0.425c2.396,0.512,4.881,1.04,7.121,1.502l0.85,0.18   c1.511,0.314,3.047,0.624,4.629,0.937l0.853,0.171c1.632,0.322,3.276,0.63,4.846,0.921l0.484,0.09c0.003,0,0.341,0.062,0.344,0.062   c1.762,0.323,3.54,0.63,5.541,0.959c0.115,0.022,0.23,0.04,0.348,0.062c1.893,0.307,3.792,0.596,5.908,0.897   c9.544,1.353,18.067,2.011,26.057,2.011c0.003,0,0.003,0,0.003,0c20.633,0,37.401-4.381,51.285-13.407   c1.952-1.272,3.894-2.727,6.041-4.536c0.462-0.394,0.915-0.8,1.365-1.213l0.239-0.22c1.25-1.132,2.466-2.321,3.782-3.711   c0.503-0.531,0.999-1.067,1.495-1.629c1.182-1.344,2.327-2.749,3.317-4.062c0.397-0.497,0.785-0.996,1.101-1.44   c1.269-1.756,2.513-3.639,3.708-5.622c0.357-0.593,0.698-1.198,1.033-1.809l0.192-0.344c0.689-1.222,1.359-2.466,1.973-3.686   c0.465-0.928,0.912-1.859,1.306-2.721c0.518-1.114,1.005-2.25,1.567-3.599c0.385-0.915,0.764-1.827,1.123-2.783   c0.326-0.859,0.624-1.734,0.918-2.609l0.155-0.459c0.729-2.138,1.402-4.341,2.026-6.662l0.096-0.357   c0.146-0.536,0.289-1.073,0.394-1.502c0.363-1.464,0.683-2.926,0.983-4.4l0.317-1.629c1.349-7.192,1.945-14.428,1.772-21.431   c-0.003-0.143-0.006-0.357-0.012-0.565C443.722,263.349,443.623,261.537,443.461,259.709z M313.4,326.132L313.4,326.132   L313.4,326.132L313.4,326.132z M323.702,328.15L323.702,328.15L323.702,328.15L323.702,328.15z"/>
	<g>
		<g>
			<path style="fill:#C851A0;" d="M415.039,243.777c-14.065-28.235-23.146-53.898-27.233-85.476     c-2.571-19.867-1.982-40.151-5.108-59.939C371.137,25.193,265.479-3.303,218.871,54.94     c-12.517,15.641-22.052,33.554-34.126,49.54c-19.191,25.408-39.791,43.205-65.995,60.766     c-21.031,14.094-34.243,54.264-22.195,77.629c13.991,27.132,52.464,38.776,79.272,47.323c21.016,6.7,42.568,11.667,64.364,15.063     c20.617,7.846,41.8,14.206,63.375,18.794c27.521,5.853,66.711,14.794,92.304-1.846     C417.909,307.878,426.328,266.438,415.039,243.777z"/>
		</g>
		<g>
			<g>
				<path style="fill:#9B377E;" d="M384.046,109.195c-0.364-3.622-0.781-7.238-1.349-10.833      c-5.215-33.008-29.598-56.879-59.053-67.842c-4.768,15.156-3.78,32.198,3.556,46.334      C337.819,97.317,361.057,110.425,384.046,109.195z"/>
			</g>
			<g>
				<path style="fill:#9B377E;" d="M289.709,72.027c-0.638-17.66-23.538-31.553-38.437-19.23      c-8.981,7.429-18.875,17.777-15.7,30.551c1.242,4.995,4.539,9.333,8.654,12.426c8.526,6.409,20.778,7.412,30.233,2.476      C283.914,93.313,290.094,82.686,289.709,72.027z"/>
			</g>
			<g>
				<path style="fill:#9B377E;" d="M363.552,161.83c-6.261-9.309-14.919-16.857-25.082-20.8      c-22.323-8.661-49.147,1.137-60.994,21.822c-9.83,17.162-9.952,39.599,0.114,56.623c10.066,17.025,30.082,27.784,49.805,26.307      c19.723-1.476,38.089-15.362,44.442-34.092C377.326,195.501,373.407,176.484,363.552,161.83z"/>
			</g>
			<g>
				<path style="fill:#9B377E;" d="M106.491,177.555c12.459,7.106,27.529,9.686,41.475,6.319      c19.068-4.603,35.152-20.386,39.498-39.515c2.771-12.198,0.521-25.352-5.638-36.192c-18.372,23.424-38.187,40.398-63.076,57.078      C114.235,168.272,110.113,172.549,106.491,177.555z"/>
			</g>
			<g>
				<path style="fill:#9B377E;" d="M403.022,248.75c-7.753-13.815-25.593-11.282-35.451-0.659      c-8.928,9.621-9.273,24.07-3.857,35.178c4.114,8.438,13.627,14.468,22.88,12.88c10.391-1.783,17.396-12.112,19.565-22.43      C407.924,265.331,407.217,256.226,403.022,248.75z"/>
			</g>
			<g>
				<path style="fill:#9B377E;" d="M255.253,278.18l-116.068-20.258c-1.233-50.787,62.743-71.336,98.955-41.74      C255.905,230.702,263.793,256.885,255.253,278.18z"/>
			</g>
		</g>
		<g>
			<path style="fill:#D86FAC;" d="M96.274,242.221c0.104,0.212,0.174,0.445,0.282,0.654c13.991,27.132,52.464,38.776,79.272,47.323     c21.016,6.7,42.568,11.667,64.364,15.063c20.617,7.846,41.8,14.206,63.375,18.794c25.033,5.324,59.687,13.136,85.015,1.995     C303.787,267.322,199.323,236.837,96.274,242.221z"/>
		</g>
		<g>
			<g>
				<path style="fill:#FEC400;" d="M267.635,139.479c-2.316,8.738-7.83,14.859-12.315,13.67c-4.485-1.189-6.244-9.236-3.928-17.975      c2.316-8.738,7.83-14.858,12.315-13.67C268.193,122.693,269.951,130.741,267.635,139.479z"/>
				<path style="fill:#FEC400;" d="M320.723,153.55c-2.316,8.738-7.83,14.859-12.315,13.67c-4.485-1.189-6.244-9.236-3.928-17.975      c2.316-8.738,7.83-14.859,12.315-13.67C321.28,136.764,323.039,144.812,320.723,153.55z"/>
			</g>
			<g>
				<path style="fill:#FEC400;" d="M349.134,161.928c-1.117-0.77-6.199,7.847-18.83,16.376c-6.244,4.263-14.443,8.241-24.081,10.554      c-9.603,2.332-20.697,2.724-31.646,0.005c-10.899-2.91-20.422-8.613-27.703-15.294c-7.321-6.681-12.578-14.126-15.985-20.875      c-6.938-13.569-7.224-23.569-8.574-23.435c-0.479,0.014-0.951,2.493-0.775,7.023c0.155,4.525,1.329,11.091,4.386,18.691      c3.027,7.596,8.258,16.092,16.057,23.765c7.745,7.663,18.292,14.313,30.667,17.604c12.425,3.098,24.872,2.372,35.356-0.596      c10.535-2.95,19.22-7.861,25.541-13.049c6.349-5.177,10.549-10.36,12.871-14.246      C348.763,164.57,349.546,162.171,349.134,161.928z"/>
			</g>
		</g>
		<g>
			<path style="fill:#FEC400;" d="M269.65,386.057c-1.402-14.911-2.686-30.19-0.1-45.049c1.159-6.659,3.272-13.09,5.754-19.362     c1.987-5.021,7.165-12.088,7.266-17.395c0.291-15.386-19.404-24.201-31.765-28.687l0.109-0.41     c-1.887-0.524-3.786-1.002-5.694-1.441c-1.875-0.564-3.761-1.089-5.66-1.569l-0.109,0.41c-12.96-2.225-34.436-4.322-41.804,9.188     c-2.542,4.66-1.544,13.365-2.304,18.71c-0.95,6.678-2.3,13.312-4.591,19.67c-5.114,14.189-13.797,26.826-22.4,39.086     c-14.347,20.444-27.232,45.24-28.041,70.709c-0.547,17.228,6.442,31.358,18.026,41.126l26.633,7.059l11.354,3.009l26.633,7.059     c14.901-2.748,27.971-11.562,36.029-26.799C270.9,438.846,271.988,410.924,269.65,386.057z"/>
		</g>
		<g>
			<path style="fill:#D18E22;" d="M169.755,416.546c2.77-14.749,8.429-30.343,15.781-46.105     c7.304-15.788,14.936-30.663,20.272-44.952c5.397-14.263,8.272-27.902,8.754-39.469c0.253-5.318-0.003-10.137-0.529-14.419     c-0.599,0.102-1.184,0.229-1.77,0.358c0.353,4.159,0.455,8.813,0.085,13.933c-0.753,11.297-3.782,24.581-9.24,38.566     c-5.406,14.035-13.064,28.776-20.422,44.674c-7.403,15.868-13.108,31.814-15.772,46.884c-2.762,15.046-2.565,29.052-0.508,40.434     c1.261,7.099,3.158,13.158,5.138,18.094l1.927,0.511c-1.888-5.12-3.735-11.459-4.878-18.965     C166.861,444.91,166.896,431.262,169.755,416.546z"/>
			<path style="fill:#D18E22;" d="M193.597,419.356c2.99-14.395,8.126-29.807,14.033-45.801c5.921-15.998,11.862-31.2,16.229-45.427     c4.411-14.204,7.235-27.384,8.474-38.595c0.739-6.786,0.936-12.808,0.828-17.905c-0.545-0.067-1.084-0.137-1.641-0.196     c-0.093,5.072-0.478,11.073-1.388,17.829c-1.503,11.022-4.508,23.971-9.029,38.001c-4.476,14.048-10.475,29.161-16.415,45.21     c-5.927,16.049-11.039,31.648-13.921,46.307c-2.931,14.634-3.682,28.186-2.849,39.457c0.67,8.746,2.199,16.062,3.863,21.674     l1.631,0.432c-1.448-5.693-2.842-13.147-3.281-22.241C189.595,447.017,190.557,433.736,193.597,419.356z"/>
			<path style="fill:#D18E22;" d="M215.921,425.33c3.241-14.597,7.901-30.398,13.126-46.9c5.24-16.508,10.251-32.28,14.003-46.877     c3.766-14.588,6.311-27.976,7.446-39.342c0.628-6.123,0.921-11.613,0.993-16.393c-0.225-0.083-0.463-0.175-0.683-0.255     l0.109-0.41c-0.363-0.101-0.731-0.18-1.094-0.277c-0.239,4.931-0.705,10.654-1.527,17.076     c-1.403,11.212-4.146,24.415-8.038,38.865c-3.879,14.457-8.953,30.143-14.199,46.667c-5.236,16.536-9.844,32.466-12.959,47.232     c-3.119,14.759-4.812,28.315-5.044,39.748c-0.181,7.742,0.156,14.455,0.738,19.952l1.601,0.424     c-0.369-5.56-0.505-12.392-0.123-20.291C210.779,453.273,212.677,439.92,215.921,425.33z"/>
			<path style="fill:#D18E22;" d="M245.886,439.809c2.697-14.392,4.232-30.394,5.636-47.126c1.403-16.732,2.746-32.642,5.098-46.928     c2.303-14.291,5.581-26.937,9.288-37.218c2.983-8.218,6.152-14.896,8.886-19.955c-0.362-0.328-0.709-0.666-1.087-0.983     c-3.057,5.003-6.576,11.753-9.876,20.16c-4.028,10.328-7.577,23.101-10.061,37.517c-2.534,14.416-3.97,30.416-5.373,47.143     c-1.404,16.725-2.844,32.625-5.356,46.88c-2.463,14.26-5.955,26.85-9.865,37.052c-1.47,3.808-2.98,7.282-4.464,10.413     c0.868-0.263,1.705-0.605,2.555-0.913c1.328-2.666,2.664-5.542,3.969-8.681C239.472,466.922,243.239,454.201,245.886,439.809z"/>
		</g>
	</g>
</g>















</svg>
