<?xml version="1.0" encoding="UTF-8"?>
<!-- Generator: Adobe Illustrator 25.2.1, SVG Export Plug-In . SVG Version: 6.00 Build 0)  -->
<svg xmlns="http://www.w3.org/2000/svg" xmlns:xlink="http://www.w3.org/1999/xlink" version="1.1" id="Capa_1" x="0px" y="0px" viewBox="0 0 512 512" style="enable-background:new 0 0 512 512;" xml:space="preserve" width="512" height="512">
<g>
	<path style="fill:#FFFFFF;" d="M100.268,485.254c12.101,6.057,27.749,5.499,41.066,4.162c15.099-0.878,30.368-1.708,45.349-2.793   c38.857-2.742,78.833-6.47,117.813-11.199c10.218,5.923,23.779,3.837,32.285-4.268c38.877-5.467,78.841-12.578,115.584-20.973   c12.304-3.068,22.062-5.059,35.36-14.934l-0.002-0.002c17.424-13.12,19.301-38.358,20.433-57.649   c6.486-77.399,9.131-72.292-28.821-139.837c0.236-5.314-1.518-12.573-10.558-18.457c-5.313-9.104-10.784-18.155-16.291-26.999   c-20.962-29.74-34.498-64.751-69.65-80.487c-3.654-34.168-37.422-63.737-71.676-53.328C278.856-3.552,211.84,18.929,198.645,81.138   c-43.242-25.528-94.78-3.661-100.187,48.303c-28.408,3.685-64.507,5.62-77.162,40.019C7.459,192.832,4.91,222.064,2.652,247.952   c-3.921,30.378-4.7,54.304,6.19,85.7c7.126,16.759,5.613,35.266,16.015,50.617c2.948,4.51,8.596,9.399,10.687,15.291   C53.391,429.875,66.485,470.235,100.268,485.254z M29.529,333.34L29.529,333.34L29.529,333.34z"/>
	<g>
		<g>
			<path style="fill:#651C56;" d="M51.005,164.498c-28.351,22.973-26.369,72.567-30.788,105.931     c-4.275,32.276,9.732,64.455,20.952,94.25c8.464,22.478,22.421,43.615,33.214,65.413c7.557,15.264,18.465,29.891,34.259,37.283     c10.866,5.086,22.896,2.75,34.539,2.138c14.048-0.738,28.089-1.599,42.121-2.583c28.733-2.016,57.43-4.548,86.072-7.594     c59.308-6.308,118.417-15.097,176.586-28.398c9.818-2.245,19.529-4.915,27.583-11.227c12.18-9.547,11.622-30.056,12.961-44.003     c2.066-21.506,3.293-43.093,3.678-64.695"/>
		</g>
		<g>
			<g>
				<path style="fill:#56134A;" d="M447.961,430.939c9.818-2.245,19.529-4.915,27.582-11.227c5.52-4.327,8.411-10.912,10.06-18.111      c-53.309-4.075-107.593,9.813-160.433,21.374c-62.665,13.711-130.456,23.737-189.08-2.302      c-38.625-17.156-69.603-48.9-90.939-85.383c-10.545-18.033-18.874-37.202-25.586-56.985      c-1.322,29.62,11.297,59.004,21.603,86.374c8.464,22.478,22.421,43.615,33.214,65.413c7.557,15.264,18.465,29.891,34.26,37.283      c1.837,0.86,3.707,1.508,5.603,1.987c9.319,2.358,19.262,0.659,28.936,0.151c14.048-0.738,28.089-1.599,42.121-2.584      c28.733-2.015,57.43-4.547,86.072-7.594C330.684,453.029,389.792,444.239,447.961,430.939z"/>
			</g>
		</g>
		<g>
			<path style="fill:#CE3280;" d="M136.358,447.851c-12.011,0-21.765,9.57-22.109,21.497c9.319,2.358,19.258,0.673,28.932,0.166     c5.084-0.267,10.167-0.569,15.25-0.868C157.731,457.048,148.132,447.851,136.358,447.851z"/>
		</g>
		<g>
			<path style="fill:#CE3280;" d="M256.386,443.802c-11.212,0-20.454,8.342-21.916,19.153c12.311-1.118,24.614-2.31,36.906-3.618     c1.97-0.209,3.937-0.445,5.907-0.66C274.272,450.023,266.065,443.802,256.386,443.802z"/>
		</g>
		<g>
			<path style="fill:#28AF8A;" d="M391.507,406.524c-12.229,0-22.141,9.913-22.141,22.141c0,6.489,2.809,12.308,7.257,16.358     c11.564-1.96,23.1-4.073,34.609-6.334c1.534-3.012,2.417-6.412,2.417-10.024C413.648,416.437,403.736,406.524,391.507,406.524z"/>
		</g>
		<g>
			
				<ellipse transform="matrix(0.9872 -0.1598 0.1598 0.9872 -55.7343 77.3799)" style="fill:#FE5897;" cx="453.379" cy="385.316" rx="22.141" ry="22.141"/>
		</g>
		<g>
			<path style="fill:#CE3280;" d="M41.575,362.454c-0.414,0-0.818,0.039-1.227,0.062c0.273,0.72,0.551,1.446,0.822,2.164     c4.474,11.881,10.488,23.385,16.753,34.812c3.588-3.935,5.794-9.151,5.794-14.896C63.716,372.367,53.803,362.454,41.575,362.454z     "/>
		</g>
		<g>
			<path style="fill:#FE5897;" d="M46.586,267.224c0-12.229-9.913-22.142-22.141-22.142c-0.584,0-1.157,0.043-1.73,0.087     c-0.793,8.934-1.474,17.534-2.498,25.259c-0.813,6.14-0.958,12.277-0.593,18.395c1.553,0.345,3.163,0.542,4.82,0.542     C36.673,289.365,46.586,279.452,46.586,267.224z"/>
		</g>
		<path style="fill:#CE3280;" d="M438.97,402.106c3.874,3.328,8.901,5.351,14.409,5.351c6.149,0,11.709-2.51,15.721-6.557    C459.077,400.79,449.028,401.235,438.97,402.106z"/>
		<path style="fill:#208968;" d="M369.366,428.666c0,6.489,2.809,12.308,7.257,16.358c11.564-1.96,23.1-4.073,34.609-6.334    c1.534-3.012,2.417-6.412,2.417-10.024c0-9.85-6.437-18.188-15.33-21.063c-6.978,1.229-13.951,2.574-20.912,3.993    C372.496,415.657,369.366,421.795,369.366,428.666z"/>
		<path style="fill:#CE3280;" d="M23.529,289.339c-1.374-3.657-2.707-7.33-3.963-11.033c-0.157,3.513-0.112,7.022,0.097,10.525    C20.916,289.107,22.207,289.281,23.529,289.339z"/>
		<g>
			<circle style="fill:#28AF8A;" cx="204.119" cy="404.836" r="22.141"/>
		</g>
		<g>
			<path style="fill:#76206A;" d="M153.795,386.878c55.412-7.615,110.824-15.23,166.236-22.845     c28.21-3.877,56.419-7.754,84.629-11.63c20.317-2.791,47.305-4.333,66.258-11.86c11.215-4.454,21.07-14.549,21.475-26.61     c0.253-7.562-3.123-14.719-6.493-21.493c-15.261-30.675-31.995-60.616-50.122-89.689c-5.756-5.131-12.805-11.498-16.509-17.195     c-3.904-6.004-4.016-10.415-6.333-17.894c-1.761-2.593-3.533-5.178-5.317-7.755c-14.402-20.809-28.857-34.957-54.499-32.671     c-9.025,0.805-18.08,1.395-27.149,1.887c-6.01,0.326-12.027,5.992-18.045,6.265c-7.685,0.349-15.372-4.702-23.051-4.315     c-7.63,0.384-15.252,0.822-22.857,1.382c-15.977,1.176-31.944,2.49-47.898,3.94c-8.473,0.77-16.942,5.679-25.407,6.526     c-5.919,0.593-11.837-2.895-17.752-2.265c-18.43,1.964-36.841,4.112-55.228,6.442c-10.785,1.367-17.35,7.409-28.119,8.902     c-3.77,0.523-11.856-3.498-15.681-2.703c-11.051,2.298-21.681,6.291-28.123,15.201c-9.395,12.995-5.988,30.919-1.911,46.428     c12.144,46.19,26.667,91.754,43.493,136.451c3.96,10.519,8.396,21.482,17.126,28.561     C116.32,391.132,136.189,389.298,153.795,386.878z"/>
		</g>
		<g>
			<g>
				<path style="fill:#44102B;" d="M102.938,462.955c1.222,0.05,2.743-17.656,4.454-39.434c1.732-21.773,3.187-39.467,1.98-39.626      c-1.133-0.155-4.498,17.369-6.242,39.286C101.409,445.096,101.802,462.912,102.938,462.955z"/>
			</g>
		</g>
		<path style="fill:#350B23;" d="M105.314,402.921c-0.814,5.904-1.592,12.828-2.183,20.26c-1.721,21.914-1.328,39.731-0.192,39.774    c1.223,0.05,2.743-17.656,4.454-39.434c0.52-6.54,1.015-12.706,1.42-18.145C107.637,404.571,106.47,403.754,105.314,402.921z"/>
		<g>
			<g>
				<path style="fill:#961778;" d="M431.529,224.393c-8.467-17.627-25.136-48.424-44.085-56.832      c-22.407-9.942-25.646,25.388-31.506,39.255c-6.122,14.482-14.352,28.293-26.85,38.164      c-23.928,18.897-57.365,19.392-85.069,32.124c-8.167,3.754-16.007,8.74-21.44,15.9c-5.434,7.161-8.16,16.778-5.526,25.373      c4.309,14.061,20.32,20.484,34.625,23.895c40.062,9.552,82.241,10.115,122.544,1.636c23.876-5.023,48.919-14.587,61.772-35.325      C451.452,283.638,444.236,250.846,431.529,224.393z"/>
			</g>
		</g>
		<g>
			<path style="fill:#FE5897;" d="M93.873,172.611c12.229,0,22.141-9.913,22.141-22.141c0-1.141-0.113-2.253-0.28-3.348     c-10.785,1.367-21.565,2.774-32.333,4.267c-3.77,0.523-7.644,1.118-11.469,1.914C73.326,164.19,82.606,172.611,93.873,172.611z"/>
		</g>
		<g>
			<path style="fill:#28AF8A;" d="M192.976,165.139c12.228,0,22.141-9.913,22.141-22.141c0-2.296-0.35-4.51-0.998-6.592     c-14.397,1.309-28.784,2.725-43.159,4.257c-0.08,0.768-0.125,1.546-0.125,2.335C170.835,155.226,180.748,165.139,192.976,165.139     z"/>
		</g>
		<g>
			
				<ellipse transform="matrix(0.973 -0.2306 0.2306 0.973 -48.863 27.6766)" style="fill:#28AF8A;" cx="93.973" cy="222.882" rx="22.141" ry="22.141"/>
		</g>
		<g>
			<path style="fill:#FE5897;" d="M83.659,286.953c-12.229,0-22.142,9.913-22.142,22.141c0,12.229,9.913,22.141,22.142,22.141     c12.228,0,22.141-9.913,22.141-22.141C105.8,296.866,95.887,286.953,83.659,286.953z"/>
		</g>
		<g>
			
				<ellipse transform="matrix(0.987 -0.1606 0.1606 0.987 -39.6986 31.6653)" style="fill:#28AF8A;" cx="176.03" cy="261.405" rx="22.142" ry="22.141"/>
		</g>
		<g>
			
				<ellipse transform="matrix(0.9993 -0.0375 0.0375 0.9993 -13.9157 4.5459)" style="fill:#28AF8A;" cx="114.249" cy="373.309" rx="22.141" ry="22.141"/>
		</g>
		<g>
			<circle style="fill:#FE5897;" cx="218.436" cy="310.721" r="22.141"/>
		</g>
		<g>
			<path style="fill:#28AF8A;" d="M319.508,266.438c-12.229,0-22.141,9.913-22.141,22.142c0,12.228,9.913,22.141,22.141,22.141     c12.228,0,22.141-9.913,22.141-22.141C341.649,276.351,331.736,266.438,319.508,266.438z"/>
		</g>
		<g>
			
				<ellipse transform="matrix(0.2151 -0.9766 0.9766 0.2151 -18.728 671.1843)" style="fill:#28AF8A;" cx="408.172" cy="347.243" rx="22.141" ry="22.141"/>
		</g>
		<g>
			<circle style="fill:#FE5897;" cx="439.24" cy="280.283" r="22.141"/>
		</g>
		<g>
			<path style="fill:#FE5897;" d="M304.349,341.033c-12.229,0-22.141,9.913-22.141,22.141c0,12.229,9.913,22.142,22.141,22.142     c12.228,0,22.141-9.913,22.141-22.142C326.49,350.946,316.577,341.033,304.349,341.033z"/>
		</g>
		<g>
			
				<ellipse transform="matrix(0.7071 -0.7071 0.7071 0.7071 -66.8513 240.0877)" style="fill:#FE5897;" cx="256.386" cy="200.741" rx="22.141" ry="22.141"/>
		</g>
		<g>
			
				<ellipse transform="matrix(0.7071 -0.7071 0.7071 0.7071 -39.0737 312.6084)" style="fill:#FE5897;" cx="357.815" cy="203.47" rx="22.141" ry="22.141"/>
		</g>
		<path style="fill:#F978B3;" d="M240.577,310.721c0-9.788-6.359-18.078-15.165-21.002c-0.995,1.048-1.956,2.128-2.834,3.285    c-5.434,7.161-8.16,16.778-5.526,25.373c1.643,5.361,4.99,9.609,9.292,13.006C234.661,328.196,240.577,320.159,240.577,310.721z"/>
		<path style="fill:#F978B3;" d="M321.972,349.81c-4.044-5.324-10.422-8.777-17.623-8.777c-6.538,0-12.396,2.851-16.449,7.357    C299.215,349.55,310.599,350.026,321.972,349.81z"/>
		<path style="fill:#F978B3;" d="M363.835,182.179c-3.317,8.628-5.362,18.639-7.897,24.636c-2.374,5.616-5.071,11.127-8.205,16.351    c3.026,1.552,6.447,2.445,10.082,2.445c12.228,0,22.141-9.913,22.141-22.141C379.956,193.331,373.133,184.804,363.835,182.179z"/>
		<path style="fill:#F978B3;" d="M417.099,280.283c0,12.228,9.913,22.141,22.141,22.141c0.011,0,0.021-0.002,0.032-0.002    c6.168-13.504,6.654-28.796,3.809-43.926c-1.25-0.219-2.528-0.355-3.84-0.355C427.012,258.142,417.099,268.055,417.099,280.283z"/>
		<g>
			<path style="fill:#28AF8A;" d="M430.314,203.47c1.877,0,3.689-0.259,5.43-0.699c-7.385-11.844-15.004-23.539-22.845-35.086     c-2.951,3.762-4.726,8.491-4.726,13.643C408.172,193.557,418.085,203.47,430.314,203.47z"/>
		</g>
		<g>
			<path style="fill:#28AF8A;" d="M303.935,149.136c11.514,0,20.968-8.79,22.034-20.024c-14.575,0.791-29.183,1.347-43.762,2.107     C284.181,141.425,293.153,149.136,303.935,149.136z"/>
		</g>
		<g>
			<g>
				<g>
					<g>
						<path style="fill:#FFDC00;" d="M295.444,237.808c0.209,0.333,1.523-0.084,3.862-1.204c1.156-0.579,2.626-1.252,4.233-2.244        c1.605-0.994,3.445-2.171,5.507-3.524c8.081-5.573,19.061-15.08,29.513-29.501c10.401-14.334,20.131-33.92,23.926-57.466        c0.921-5.866,1.656-11.931,1.606-18.318c-0.026-6.36-0.731-13.037-2.801-19.661c-2.009-6.578-5.647-13.222-10.856-18.448        c-5.164-5.226-11.98-9.492-19.98-10.793c-8.019-1.347-16.172,0.763-22.515,4.553c-6.415,3.783-11.373,8.873-15.476,14.211        c-2.037,2.67-3.897,5.5-5.448,8.301c-0.812,1.392-1.595,2.79-2.299,4.218c-0.738,1.412-1.447,2.827-2.079,4.267        c-2.628,5.716-4.687,11.51-6.288,17.245c-3.21,11.483-4.587,22.698-4.965,33.129c-0.4,10.449,0.261,20.121,1.254,28.837        c2.077,17.443,5.377,31.141,7.811,40.53c2.491,9.381,4.299,14.459,5.062,14.31c0.782-0.153,0.441-5.542-0.702-15.139        c-1.089-9.594-3.142-23.402-4.138-40.389c-0.457-8.488-0.626-17.776,0.152-27.615c0.752-9.835,2.396-20.264,5.61-30.72        c1.602-5.224,3.592-10.448,6.056-15.551c2.503-5.071,5.339-10.181,8.826-14.613c3.494-4.451,7.626-8.504,12.327-11.218        c4.675-2.725,9.905-3.928,14.961-3.106c5.088,0.797,9.94,3.685,13.768,7.521c3.882,3.88,6.573,8.591,8.275,13.859        c3.396,10.526,2.952,22.195,1.45,33.025c-2.937,21.782-11.217,40.419-20.214,54.51c-9.03,14.17-18.632,24.124-25.614,30.559        c-1.785,1.568-3.363,2.985-4.72,4.24c-1.358,1.253-2.593,2.205-3.523,3.08C296.14,236.406,295.235,237.475,295.444,237.808z"/>
					</g>
				</g>
				<g>
					<g>
						<path style="fill:#FFDC00;" d="M297.436,239.453c-0.086-0.862-6.959-0.659-19.219-1.167        c-12.227-0.593-29.985-2.032-50.986-7.741c-10.487-2.825-21.76-6.693-33.318-12.021        c-11.564-5.265-23.432-11.965-34.187-20.931c-10.74-8.919-20.192-20.387-25.737-34.203        c-2.803-6.853-4.535-14.229-4.882-21.722c-0.406-7.521,0.834-14.999,3.815-21.85c3.018-6.753,7.757-12.462,13.813-15.428        c6.026-3.178,13.152-3.602,20.113-2.417c6.99,1.301,13.79,4.122,20.041,7.674c3.139,1.775,6.113,3.757,8.996,5.863        c2.833,2.259,5.76,4.338,8.437,6.661c21.714,18.381,36.491,40.148,47.48,58.956c10.866,18.995,18.276,35.262,23.502,46.455        c5.193,11.219,8.199,17.415,8.971,17.126c0.702-0.262-0.894-6.973-4.85-18.773c-3.994-11.778-10.331-28.705-20.553-48.683        c-5.171-9.95-11.43-20.608-19.206-31.402c-7.778-10.775-17.144-21.677-28.501-31.65        c-11.174-9.801-24.906-19.735-42.295-23.213c-8.612-1.6-18.57-1.225-27.264,3.285c-8.828,4.317-15.302,12.333-19.108,20.925        c-3.802,8.646-5.242,18.105-4.722,27.002c0.456,8.949,2.581,17.569,5.876,25.425c3.246,7.894,7.657,15.039,12.678,21.426        c5.086,6.356,10.769,11.872,16.734,16.666c11.963,9.572,24.776,16.328,37.041,21.461c12.274,5.195,24.185,8.772,35.206,11.197        c22.076,4.906,40.47,5.118,52.943,4.348C290.775,241.861,297.516,240.154,297.436,239.453z"/>
					</g>
				</g>
				<g>
					<g>
						<path style="fill:#FFDC00;" d="M282.026,249.297c0.341,0.196,1.42-1.011,3.174-3.512c0.877-1.251,1.922-2.825,3.128-4.708        c1.191-1.891,2.343-4.189,3.729-6.742c5.384-10.252,11.941-25.953,16.172-46.455c1.929-10.264,3.435-21.662,3.738-33.996        c0.202-12.323-0.665-25.544-3.138-39.232c-2.464-13.714-6.553-27.743-12.617-41.828c-3.248-7.087-7.31-14.147-13.267-20.355        c-2.987-3.074-6.515-5.915-10.708-7.984c-4.172-2.08-9.025-3.25-13.859-3.15c-4.857,0.071-9.638,1.456-13.706,3.642        c-4.094,2.183-7.542,5.073-10.469,8.207c-5.825,6.311-9.823,13.573-12.631,20.965c-5.57,14.516-7.721,29.498-7.627,43.548        c0.079,14.081,2.246,27.316,5.604,39.243c1.643,5.982,3.611,11.634,5.743,16.941c2.096,5.327,4.391,10.31,6.734,14.973        c9.418,18.662,19.519,32.148,26.721,41.137c7.298,8.946,11.906,13.382,12.495,12.919c0.65-0.508-2.78-5.877-8.889-15.506        c-6.015-9.662-14.894-23.592-23.034-41.987c-2.027-4.596-4.004-9.465-5.788-14.622c-1.823-5.147-3.482-10.563-4.834-16.244        c-2.783-11.341-4.452-23.779-4.246-36.788c0.188-12.989,2.395-26.591,7.536-39.575c2.46-6.332,5.949-12.389,10.491-17.246        c4.527-4.85,10.188-8.151,16.105-8.208c5.964-0.167,11.624,2.879,16.251,7.662c4.641,4.762,8.298,10.823,11.221,17.073        c5.719,12.934,9.874,26.28,12.457,39.161c2.618,12.911,3.79,25.445,4.001,37.201c0.109,11.767-0.877,22.715-2.226,32.659        c-3.067,19.855-8.242,35.449-12.276,46.019c-1.046,2.631-1.861,5.033-2.714,7.047c-0.868,2.007-1.577,3.726-2.119,5.136        C282.096,247.514,281.685,249.102,282.026,249.297z"/>
					</g>
				</g>
			</g>
			<g>
				<g>
					<g>
						<path style="fill:#FFDC00;" d="M459.559,237.201c0.16-0.45-1.384-1.561-4.646-2.981c-3.237-1.395-8.322-3.118-14.985-4.144        c-13.152-2.332-32.527-3.659-56.209-3.234c-11.848,0.156-24.741,0.649-38.535,1.021c-13.898,0.382-28.739,1.059-44.338,2.046        c-31.198,1.97-65.412,5.255-101.163,9.818c-17.876,2.278-35.29,4.76-52.074,7.349c-16.769,2.669-32.907,5.45-48.286,8.06        c-3.775,0.641-7.506,1.275-11.19,1.901c-3.386,0.51-7.071,0.778-10.816,1.143c-3.754,0.365-7.605,0.805-11.516,1.666        c-3.895,0.866-7.918,2.163-11.666,4.447c-1.862,1.131-3.639,2.517-5.175,4.135c-1.526,1.57-2.893,3.488-3.847,5.149        c-2,3.468-3.258,7.039-4.172,10.436c-0.911,3.406-1.489,6.677-1.991,9.769c-0.499,3.021-0.989,5.982-1.469,8.882        c-1.966,11.622-3.54,22.407-3.888,32.031c-0.426,9.609,0.339,18.045,2.014,24.724c1.605,6.716,4.219,11.495,6.081,14.531        c2.163,2.913,3.494,4.223,3.899,3.958c0.416-0.271-0.095-2.104-1.326-5.234c-0.943-3.275-2.53-7.938-3.196-14.245        c-0.731-6.278-0.665-14.071,0.471-23.102c1.064-9.042,3.243-19.265,5.837-30.734c0.635-2.896,1.284-5.852,1.946-8.867        c0.631-2.963,1.302-5.873,2.182-8.641c0.878-2.764,1.967-5.377,3.412-7.644c1.473-2.219,2.955-3.698,5.24-4.977        c4.476-2.523,11.05-3.344,18.187-3.794c3.602-0.248,7.395-0.401,11.528-0.904c3.815-0.55,7.677-1.108,11.585-1.672        c15.402-2.303,31.518-4.712,48.208-7.208c16.728-2.388,34.058-4.758,51.824-7.022c35.532-4.534,69.447-8.189,100.344-10.86        c15.448-1.337,30.142-2.448,43.903-3.336c13.708-0.984,26.553-1.907,38.4-2.757c23.365-1.697,42.184-1.916,55.211-1.318        c6.466,0.151,11.362,0.912,14.786,1.39C457.531,237.477,459.391,237.678,459.559,237.201z"/>
					</g>
				</g>
				<g>
					<g>
						<path style="fill:#FFDC00;" d="M312.5,456.583c-0.076,0.232,0.14,0.564,0.666,0.979c0.522,0.4,1.347,0.945,2.797,1.331        c1.399,0.384,3.382,0.361,5.361-0.777c1.019-0.593,1.94-1.249,2.76-2.156c0.939-0.865,1.599-1.911,2.359-3.032        c5.32-9.169,5.324-23.338,6.185-39.079c1.04-16.508,0.365-36.349-3.158-57.953c-3.461-21.609-9.737-44.906-18.516-68.427        c-4.414-11.748-9.141-23.041-14.053-33.774c-4.945-10.717-10.062-20.873-15.131-30.429        c-10.223-19.067-20.296-35.697-29.165-49.363c-17.779-27.31-30.251-43.136-31.851-42.127        c-1.73,1.087,7.752,18.857,23.182,47.265c15.266,28.452,36.6,67.656,53.66,113.394c8.523,22.84,14.926,45.145,18.947,65.767        c4.077,20.615,5.744,39.515,6.011,55.415c0.087,8.359,0.782,15.529,0.708,21.745c0.012,6.205-0.517,11.444-1.798,15.119        c-0.379,0.839-0.684,1.718-1.134,2.329c-0.374,0.717-0.898,1.302-1.29,1.725c-0.872,0.931-2,1.365-2.952,1.48        c-0.927,0.139-1.848,0.102-2.494,0.155C312.954,456.221,312.578,456.348,312.5,456.583z"/>
					</g>
				</g>
			</g>
		</g>
		<g>
			<g>
				<g>
					<path style="fill:#FFFFFF;" d="M174.262,159.1c-0.477-3.906-24.784-4.152-54.292-0.549       c-29.507,3.603-53.041,9.69-52.564,13.597c0.477,3.906,24.784,4.152,54.291,0.549       C151.205,169.094,174.739,163.006,174.262,159.1z"/>
				</g>
			</g>
			<g>
				<g>
					<path style="fill:#FFFFFF;" d="M208.04,156.14c-0.29-3.925-5.382-6.748-11.373-6.306c-5.992,0.442-10.614,3.982-10.325,7.907       c0.29,3.925,5.382,6.748,11.373,6.306C203.707,163.605,208.329,160.065,208.04,156.14z"/>
				</g>
			</g>
		</g>
		<g>
			<g>
				<g>
					<path style="fill:#FFFFFF;" d="M422.602,293.236c-1.621-1.282-6.357,2.169-13.661,7.199c-1.837,1.253-3.803,2.643-6.007,3.998       c-2.119,1.46-4.524,2.803-6.966,4.312c-4.998,2.851-10.565,5.77-16.614,8.412c-6.079,2.571-12.028,4.601-17.536,6.266       c-2.774,0.733-5.404,1.554-7.921,2.087c-2.5,0.667-4.861,1.137-7.034,1.608c-8.676,1.839-14.438,2.9-14.623,4.959       c-0.189,1.847,5.486,4.407,15.294,5.096c2.443,0.158,5.135,0.242,8.009,0.04c2.895-0.069,5.943-0.516,9.166-0.98       c6.398-1.125,13.344-3.045,20.274-5.983c6.9-3.007,13.073-6.726,18.292-10.594c2.555-2.02,4.976-3.924,7.018-5.977       c2.125-1.946,3.916-3.957,5.483-5.839C422.024,300.25,424.072,294.37,422.602,293.236z"/>
				</g>
			</g>
			<g>
				<g>
					<path style="fill:#FFFFFF;" d="M429.221,259.087c-1.975-0.073-3.786,1.096-5.256,2.83c-1.47,1.751-2.626,4.069-3.29,6.741       c-0.671,2.67-0.742,5.259-0.269,7.496c0.481,2.222,1.529,4.105,3.306,4.97c1.759,0.857,3.964,0.453,6.02-1.153       c2.051-1.588,3.903-4.398,4.769-7.856c0.863-3.46,0.552-6.811-0.511-9.177C432.931,260.552,431.177,259.159,429.221,259.087z"/>
				</g>
			</g>
		</g>
	</g>
</g>















</svg>
