<?xml version="1.0" encoding="UTF-8"?>
<!-- Generator: Adobe Illustrator 25.2.1, SVG Export Plug-In . SVG Version: 6.00 Build 0)  -->
<svg xmlns="http://www.w3.org/2000/svg" xmlns:xlink="http://www.w3.org/1999/xlink" version="1.1" id="Capa_1" x="0px" y="0px" viewBox="0 0 512 512" style="enable-background:new 0 0 512 512;" xml:space="preserve" width="512" height="512">
<g>
	<path style="fill:#FFFFFF;" d="M407.297,289.666c-1.411-6.864-3.405-13.624-5.965-20.23c2.355-4.828,4.11-10.011,5.17-15.313   c0.027-0.125,0.091-0.436,0.115-0.561c3.507-18.319-1.115-36.026-12.67-48.569c-1.919-2.088-4.057-3.995-6.542-5.833   c-1.125-0.83-2.319-1.63-3.551-2.376c-0.047-0.029-0.094-0.058-0.141-0.087c-10.043-6.034-20.946-7.616-30.982-8.534   c-0.099-4.135-0.727-8.285-1.883-12.349c-0.454-1.585-0.982-3.153-1.575-4.675c-1.615-4.132-3.753-8.096-6.365-11.814   l12.362-75.551c0.729-4.447-0.411-8.995-3.148-12.572c-0.583-0.762-1.226-1.464-1.923-2.104c3.616-6.51,5.789-13.862,6.232-21.59   c0.971-16.919-6.784-33.834-20.241-44.138c-4.378-3.356-10.164-4.278-15.365-2.439c-5.206,1.834-9.134,6.171-10.446,11.533   c-0.854,3.497-3.483,7.609-6.268,11.965l-1.29,2.025c-5.014,7.928-9.726,16.751-10.228,27.541   c-0.184,4.007,0.284,7.779,1.394,11.287c-2.95,2.568-4.993,6.196-5.493,10.376l-2.382,19.906c-1.22-0.528-2.521-0.915-3.881-1.135   c-7.368-1.199-14.611,2.744-17.597,9.585c-2.913,6.667-5.142,11.51-7.974,14.899l-1.258-30.131c-0.176-4.211-1.93-7.99-4.677-10.78   c1.38-3.415,2.136-7.139,2.262-11.151c0.334-10.792-3.682-19.952-8.068-28.237l-1.141-2.141c-2.437-4.551-4.738-8.85-5.317-12.395   c-0.892-5.447-4.473-10.077-9.522-12.308c-5.045-2.229-10.88-1.762-15.509,1.245c-14.211,9.235-23.25,25.499-23.589,42.445   c-0.155,7.739,1.445,15.235,4.548,22.004c-0.744,0.584-1.441,1.235-2.081,1.95c-3.005,3.356-4.493,7.803-4.11,12.291l4.352,51.106   c-8.62,4.564-15.399,10.232-20.548,17.147c-5.965,8.011-9.054,17.539-9.234,26.866c-14.397,2.769-26.917,10.982-34.506,22.624   c-0.183,0.261-0.379,0.555-0.52,0.777c-0.781,1.244-1.413,2.414-1.934,3.411c-6.151,11.76-7.482,25.701-3.942,38.71   c-6.888,12.068-11.7,24.847-14.378,38.17c-4.997,2.402-9.172,5.948-12.328,10.519c-6.04,8.75-7.647,20.161-4.773,33.915   c1.448,6.929,3.115,14.439,5.094,22.956c1.13,4.859,2.279,9.712,3.469,14.547c7.826,31.626,16.916,62.954,26.805,93.994   c0.387,1.238,0.776,2.473,1.168,3.691c1.886,5.892,3.794,11.777,5.733,17.659c1.76,5.337,6.139,9.396,11.594,10.745   c11.201,2.773,23.047,5.203,35.225,7.224c50.957,8.697,103.115,8.209,153.822-0.949c12.853-2.3,25.549-5.118,37.736-8.376   c5.43-1.452,9.733-5.592,11.392-10.961c1.934-6.254,3.841-12.515,5.715-18.776c15.154-50.612,25.866-93.455,33.713-134.826   C426.058,309.73,418.084,296.295,407.297,289.666z"/>
	<g>
		<g>
			
				<ellipse transform="matrix(1 -0.0093 0.0093 1 -2.911 2.4002)" style="fill:#FF912E;" cx="257.43" cy="315.174" rx="136.093" ry="121.437"/>
		</g>
		<g>
			<g>
				<path style="fill:#FF6700;" d="M142.458,254.255c-3.569,8.867,0.718,19.508,8.196,25.462c7.478,5.954,17.407,7.949,26.965,8.11      c9.557,0.161,19.073-1.316,28.631-1.445c38.128-0.513,73.523,20.205,111.475,23.903c14.31,1.394,29.35,0.18,41.932-6.778      c12.582-6.958,22.144-20.549,21.304-34.902c-0.913-15.6-13.738-28.531-28.346-34.08c-14.608-5.55-30.74-5.102-46.324-3.947"/>
			</g>
		</g>
		<g>
			<path style="fill:#76206A;" d="M382.591,269.049c11.18-15.191,12.597-38.591-0.674-52.999     c-12.341-13.399-31.879-10.579-48.418-13.498c5.541-12.015,2.901-25.048-5.148-35.436c-7.812-10.082-18.909-16.978-28.711-25.139     c-9.802-8.161-18.889-18.713-20.029-31.416c-6.143,14.054-10.619,23.242-25.726,29.809c-11.641,5.06-24.382,6.903-36.609,10.312     c-12.227,3.41-24.586,8.859-32.167,19.04c-7.582,10.181-8.587,26.084,0.654,34.786c-15.622-6.195-35.224,0.201-44.185,14.419     c-8.961,14.217-6.276,34.661,6.053,46.082c9.142,8.469,22.036,11.695,34.481,12.366s24.913-0.896,37.37-0.534     c19.156,0.557,37.846,5.646,56.464,10.186c18.619,4.54,37.705,8.585,56.803,7.004     C351.848,292.448,371.232,284.484,382.591,269.049z"/>
		</g>
		<g>
			<g>
				<path style="fill:#963498;" d="M210.681,216.811c14.049,4.823,30.115,9.059,47.478,9.917      c17.304,0.896,34.101-1.874,47.958-8.007c6.932-3.061,13.027-6.79,18.563-10.376c3.101-2.017,6.028-3.978,8.839-5.843      c0.788-1.717,1.392-3.454,1.855-5.201c-4.018,2.419-8.226,5.1-12.707,7.858c-5.566,3.415-11.567,6.909-18.203,9.715      c-13.284,5.632-29.354,8.178-46.081,7.316c-16.756-0.824-32.465-4.813-46.371-9.348c-6.967-2.272-13.51-4.715-19.609-7.08      c-2.978-1.148-5.83-2.312-8.596-3.426c0.598,0.76,1.235,1.496,1.955,2.175c-3.593-1.425-7.398-2.154-11.234-2.305      c5.023,2.019,10.486,4.572,16.463,7.051C197.078,211.79,203.641,214.393,210.681,216.811z"/>
			</g>
			<g>
				<path style="fill:#963498;" d="M199.946,165.057c1.088,1.677,2.1,3.337,3.252,5.022c1.671,2.175,3.337,4.508,5.394,6.646      c3.989,4.362,8.739,8.667,14.451,12.176c5.671,3.542,12.185,6.455,19.318,8.141c7.277,1.692,14.918,2.159,22.378,1.578      c15.374-1.068,29.197-5.654,41.551-9.554c10.645-3.465,20.3-6.638,28.845-8.753c-0.309-1.085-0.669-2.16-1.084-3.222      c-8.718,1.835-18.471,4.754-29.011,7.978c-12.387,3.681-26.003,8.019-40.613,9.017c-7.008,0.552-14.209,0.152-21.06-1.381      c-6.627-1.506-12.74-4.137-18.125-7.367c-5.424-3.196-9.998-7.159-13.896-11.184c-2.012-1.97-3.654-4.136-5.322-6.149      c-1.467-2.079-2.95-4.045-4.196-6.233c-0.85-1.41-1.597-2.79-2.298-4.152c-0.883,0.484-1.746,0.994-2.597,1.522      c0.639,1.389,1.323,2.796,2.11,4.235C199.344,163.932,199.644,164.493,199.946,165.057z"/>
			</g>
			<g>
				<path style="fill:#963498;" d="M246.547,131.329"/>
			</g>
			<g>
				<path style="fill:#963498;" d="M231.523,163.452c0.96,2.323,2.505,4.507,4.483,6.262c1.965,1.787,4.331,3.091,6.803,4.088      c4.971,2.015,10.434,2.814,16.006,3.083c5.587,0.255,11.336-0.086,17.154-0.854c5.82-0.788,11.431-1.921,16.789-3.597      c5.243-1.683,10.17-3.516,14.846-5.259c5.643-2.127,10.883-4.026,15.779-5.632c-0.998-1.007-2.019-1.99-3.07-2.945      c-4.471,1.329-9.196,2.907-14.127,4.637c-4.712,1.635-9.637,3.369-14.752,4.948c-5.025,1.513-10.477,2.589-16.065,3.343      c-5.595,0.739-11.11,1.093-16.375,0.91c-5.249-0.188-10.315-0.878-14.647-2.529c-4.389-1.557-7.758-4.389-9.346-7.908      c-1.486-3.583-1.421-7.56-0.713-11.067c0.304-1.704,0.743-3.273,1.263-4.729c-1.133,0.278-2.268,0.547-3.404,0.815      c-0.349,1.037-0.673,2.103-0.996,3.218C230.185,154.028,229.757,158.7,231.523,163.452z"/>
			</g>
			<g>
				<path style="fill:#963498;" d="M265.561,144.56c1.376,3.03,3.755,6.21,7.36,7.866c3.586,1.746,7.511,1.47,10.726,0.694      c3.074-0.792,5.815-1.612,8.541-2.385c5.016-1.448,9.524-2.809,13.392-4.033c-1.125-0.869-2.24-1.748-3.349-2.633      c-3.356,0.754-7.093,1.633-11.122,2.62c-2.819,0.697-5.64,1.395-8.491,2.1c-2.654,0.58-5.459,0.68-7.765-0.476      c-2.342-1.06-4.097-3.218-5.271-5.664c-1.207-2.443-1.876-5.151-2.275-7.766c-0.155-1.042-0.24-2.06-0.318-3.073      c-1.169,1.162-2.452,2.262-3.859,3.31c0.01,0.103,0.014,0.203,0.025,0.307C263.486,138.363,264.127,141.48,265.561,144.56z"/>
			</g>
			<g>
				<path style="fill:#963498;" d="M159.899,223.395c13.655,3.069,29.19,9.922,47.135,15.741      c17.878,5.877,38.044,11.532,59.898,13.667c21.813,2.141,43.113,0.167,61.262-5.882c9.09-2.94,17.315-6.979,24.508-11.518      c7.148-4.617,13.208-9.793,18.18-15.023c2.564-2.703,4.82-5.411,6.817-8.074c-0.782-0.578-1.583-1.109-2.403-1.602      c-1.99,2.455-4.218,4.947-6.713,7.43c-4.951,4.914-10.917,9.765-17.885,14.076c-7.004,4.227-14.977,7.994-23.793,10.725      c-17.587,5.622-38.241,7.43-59.532,5.342c-21.343-2.082-41.24-7.513-59.048-13.128c-17.829-5.53-33.529-12.112-47.749-14.899      c-6.843-1.439-13.182-1.858-18.785-1.628c-0.067,0.103-0.146,0.198-0.212,0.302c-0.467,0.742-0.885,1.509-1.289,2.283      C146.056,221.087,152.67,221.659,159.899,223.395z"/>
			</g>
			<g>
				<path style="fill:#963498;" d="M346.654,272.68c-9.582,2.24-19.98,3.092-30.742,2.808c-10.77-0.306-21.903-1.75-33.178-3.96      c-22.564-4.51-43.73-11.053-63.574-14.964c-9.91-1.974-19.45-3.432-28.491-3.954c-9.031-0.532-17.541-0.146-25.16,1.229      c-8.451,1.455-15.63,4.15-21.452,7.226c0.527,0.676,1.067,1.34,1.645,1.975c5.63-2.624,12.407-4.884,20.326-6.029      c7.372-1.125,15.6-1.318,24.386-0.64c8.79,0.668,18.139,2.234,27.899,4.295c19.54,4.076,40.632,10.736,63.544,15.322      c11.466,2.247,22.857,3.697,33.945,3.951c11.08,0.232,21.858-0.736,31.82-3.185c9.973-2.378,19.054-6.325,26.788-11.149      c5.941-3.663,11.085-7.838,15.501-12.154c0.491-1.899,0.848-3.827,1.099-5.771C380.785,258.319,365.668,268.422,346.654,272.68z      "/>
			</g>
		</g>
		<g>
			<g>
				<path style="fill:#FFC200;" d="M236.654,66.346c-0.128,4.127-1.384,7.371-4.251,10.189c-0.874,0.859-9.559,9.076-10.066,8.777      c-10.362-6.263-16.399-17.354-16.156-29.524c0.23-11.534,6.482-22.782,16.155-29.068c1.145,6.996,4.824,13.27,8.139,19.535      C233.791,52.521,236.874,59.261,236.654,66.346z"/>
			</g>
			<g>
				<g>
					<path style="fill:#FF9D00;" d="M221.258,80.24c-4.722-4.62-7.837-10.853-8.698-17.403c-1.012-7.7,0.782-15.523,6.451-21.086       c0.857,4.324,4,7.759,6.611,11.31c6.746,9.174,6.473,20.859-2.362,28.63"/>
				</g>
			</g>
			<g>
				<g>
					<path style="fill:#76206A;" d="M222.674,101.276c0.254,0.087,1.291-2.156,1.474-6.056c0.251-3.892-0.674-9.196-2.017-14.771       c-1.335-5.565-2.167-10.595-2.047-14.262c0.056-3.665,0.779-5.891,0.438-6.014c-0.234-0.116-1.549,2.003-2.041,5.898       c-0.556,3.879,0.085,9.277,1.435,14.89c1.348,5.602,2.46,10.587,2.624,14.268C222.773,98.901,222.328,101.191,222.674,101.276z       "/>
				</g>
			</g>
			<g>
				<polygon style="fill:#FE5897;" points="239.075,89.461 204.483,90.321 218.483,254.809 245.937,253.576     "/>
			</g>
			<g>
				<g>
					<path style="fill:#DDD22D;" d="M205.59,103.33c5.363-2.691,10.921-5.462,16.621-8.287c3.735-1.851,7.409-3.663,11.019-5.437"/>
				</g>
				<g>
					<path style="fill:#DDD22D;" d="M239.167,91.672l-0.092-2.21l-5.845,0.145c-3.61,1.774-7.284,3.586-11.019,5.437       c-5.7,2.824-11.258,5.596-16.621,8.287l0.405,4.758c5.878-2.872,11.975-5.871,18.233-8.972       C229.338,96.584,234.325,94.099,239.167,91.672z"/>
				</g>
				<g>
					<path style="fill:#DDD22D;" d="M240.157,115.33l-0.205-4.911c-4.403,2.16-8.913,4.382-13.512,6.661       c-6.507,3.224-12.82,6.376-18.877,9.42l0.402,4.728c6.565-3.202,13.43-6.577,20.492-10.076       C232.434,119.183,236.336,117.24,240.157,115.33z"/>
				</g>
				<g>
					<path style="fill:#DDD22D;" d="M241.146,138.985l-0.206-4.937c-3.37,1.657-6.793,3.346-10.271,5.069       c-7.317,3.626-14.397,7.163-21.133,10.555l0.4,4.693c7.246-3.527,14.872-7.272,22.752-11.176       C235.543,141.774,238.366,140.371,241.146,138.985z"/>
				</g>
				<g>
					<path style="fill:#DDD22D;" d="M242.134,162.635l-0.207-4.955c-2.321,1.144-4.662,2.3-7.031,3.474       c-8.141,4.034-15.984,7.956-23.389,11.693l0.396,4.655c7.909-3.843,16.31-7.964,25.011-12.275       C238.67,164.357,240.407,163.494,242.134,162.635z"/>
				</g>
				<g>
					<path style="fill:#DDD22D;" d="M243.123,186.281l-0.208-4.965c-1.257,0.621-2.519,1.245-3.79,1.875       c-8.972,4.446-17.585,8.758-25.645,12.832l0.393,4.612c8.563-4.152,17.734-8.646,27.27-13.372       C241.807,186.935,242.463,186.609,243.123,186.281z"/>
				</g>
				<g>
					<path style="fill:#DDD22D;" d="M243.904,204.956c-0.184,0.091-0.366,0.181-0.55,0.272c-9.814,4.863-19.203,9.568-27.901,13.973       l0.389,4.566c8.825-4.27,18.345-8.93,28.27-13.843L243.904,204.956z"/>
				</g>
				<g>
					<path style="fill:#DDD22D;" d="M217.426,242.383l0.384,4.514c8.5-4.104,17.686-8.59,27.29-13.333l-0.207-4.964       C235.204,233.41,225.96,238.051,217.426,242.383z"/>
				</g>
			</g>
		</g>
		<g>
			<g>
				<path style="fill:#FFC200;" d="M308.92,54.746c-0.191,4.124,0.811,7.456,3.451,10.487c0.805,0.924,8.829,9.787,9.358,9.528      c10.815-5.444,17.69-16.035,18.387-28.188c0.661-11.517-4.703-23.214-13.862-30.228c-1.682,6.886-5.834,12.857-9.624,18.848      C312.841,41.183,309.247,47.665,308.92,54.746z"/>
			</g>
			<g>
				<g>
					<path style="fill:#FF9D00;" d="M322.959,70.431c-5.27-5.111-6.812-13.217-5.403-20.422c1.408-7.205,5.379-13.652,9.843-19.481       c4.929,5.8,7.232,13.749,6.168,21.286c-1.064,7.536-5.479,14.537-11.821,18.745"/>
				</g>
			</g>
			<g>
				<g>
					<path style="fill:#76206A;" d="M320.161,90.651c0.352-0.058,0.085-2.376,0.599-6.018c0.448-3.658,1.942-8.542,3.718-14.023       c1.78-5.492,2.835-10.824,2.58-14.735c-0.19-3.921-1.336-6.136-1.579-6.038c-0.35,0.096,0.199,2.372-0.028,6.03       c-0.163,3.666-1.381,8.616-3.142,14.062c-1.769,5.454-3.1,10.671-3.151,14.571C319.04,88.401,319.901,90.718,320.161,90.651z"/>
				</g>
			</g>
			<g>
				<polygon style="fill:#DDD22D;" points="304.721,77.605 339.143,81.133 312.484,244.049 285.208,240.7     "/>
			</g>
			<g>
				<g>
					<path style="fill:#FE5897;" d="M337.035,94.018c-5.139-3.097-10.466-6.289-15.931-9.545c-3.581-2.134-7.104-4.224-10.566-6.271       "/>
				</g>
				<g>
					<path style="fill:#FE5897;" d="M304.458,79.802l0.263-2.197l5.817,0.596c3.462,2.048,6.985,4.138,10.566,6.271       c5.465,3.256,10.792,6.448,15.931,9.545l-0.771,4.713c-5.638-3.318-11.486-6.778-17.486-10.353       C313.879,85.459,309.099,82.595,304.458,79.802z"/>
				</g>
				<g>
					<path style="fill:#FE5897;" d="M301.645,103.313l0.584-4.88c4.224,2.493,8.548,5.058,12.957,7.684       c6.238,3.717,12.289,7.346,18.093,10.85l-0.766,4.683c-6.298-3.7-12.882-7.594-19.653-11.628       C309.047,107.75,305.307,105.513,301.645,103.313z"/>
				</g>
				<g>
					<path style="fill:#FE5897;" d="M298.833,126.821l0.587-4.906c3.232,1.913,6.515,3.861,9.849,5.847       c7.015,4.18,13.801,8.253,20.255,12.155l-0.761,4.649c-6.952-4.076-14.266-8.398-21.821-12.899       C304.203,130.034,301.497,128.418,298.833,126.821z"/>
				</g>
				<g>
					<path style="fill:#FE5897;" d="M296.021,150.324l0.589-4.924c2.226,1.32,4.47,2.653,6.742,4.006       c7.805,4.65,15.322,9.167,22.417,13.464l-0.754,4.611c-7.589-4.442-15.647-9.2-23.988-14.17       C299.342,152.309,297.677,151.314,296.021,150.324z"/>
				</g>
				<g>
					<path style="fill:#FE5897;" d="M293.209,173.824l0.59-4.934c1.206,0.717,2.416,1.436,3.634,2.162       c8.602,5.125,16.857,10.09,24.578,14.774l-0.748,4.568c-8.217-4.801-17.013-9.99-26.156-15.437       C294.471,174.577,293.842,174.201,293.209,173.824z"/>
				</g>
				<g>
					<path style="fill:#FE5897;" d="M290.989,192.382c0.177,0.105,0.351,0.208,0.527,0.314c9.409,5.606,18.407,11.022,26.739,16.086       l-0.74,4.522c-8.469-4.939-17.601-10.32-27.117-15.985L290.989,192.382z"/>
				</g>
				<g>
					<path style="fill:#FE5897;" d="M314.498,231.742l-0.732,4.471c-8.157-4.748-16.97-9.93-26.179-15.4l0.59-4.933       C297.466,221.424,306.324,226.764,314.498,231.742z"/>
				</g>
			</g>
		</g>
		<g>
			<g>
				<path style="fill:#DDD22D;" d="M345.873,326.392c3.224-15.558-11.3-31.401-26.972-31.422      c-15.672-0.021-29.528,13.472-32.572,29.067c-0.729-13.525-11.6-25.492-24.501-28.344l0-0.006      c-3.989-0.875-8.139-0.837-12.111,0.112l0,0.006c-12.846,3.091-23.493,15.257-23.972,28.793      c-3.333-15.536-17.437-28.77-33.105-28.459c-15.669,0.312-29.896,16.421-26.385,31.917      c-14.212-26.588-69.073-40.488-59.872,3.553c10.732,51.366,25.414,101.358,41.794,151.073      c33.817,8.37,68.588,12.719,103.393,13.035l0.001,0.072c4.037-0.028,8.074-0.066,12.111-0.112l-0.001-0.072      c34.793-0.962,69.477-5.954,103.133-14.95c15.455-50.01,29.208-100.265,38.986-151.821      C414.184,284.631,359.59,299.545,345.873,326.392z"/>
			</g>
			<g>
				<g>
					<path style="fill:#D1C12A;" d="M263.681,495.605c34.793-0.962,69.478-5.954,103.133-14.95       c7.674-24.83,14.924-49.722,21.48-74.803c-54.765-1-110.118,21.7-164.777,13.607c-35.716-5.289-68.765-23.759-94.708-48.87       c-6.512-6.303-12.595-13.009-18.278-20.044c10.233,44.751,23.286,88.551,37.646,132.137       c33.817,8.37,68.588,12.719,103.393,13.035l0.001,0.072c4.037-0.028,8.074-0.066,12.11-0.112L263.681,495.605z"/>
				</g>
			</g>
			<g>
				<g>
					<path style="fill:#FFF540;" d="M227.658,315.457c-1.116,2.91-1.8,5.984-1.911,9.141c-0.225-1.05-0.509-2.087-0.829-3.112       c0.722,23.32,2.071,56.038,3.862,92.286c1.528,30.911,3.122,59.253,4.539,81.364c1.173,0.058,2.344,0.136,3.517,0.185       c-0.77-22.196-1.981-50.694-3.517-81.773C231.371,374.143,229.315,338.926,227.658,315.457z"/>
				</g>
				<g>
					<path style="fill:#FFF540;" d="M167.066,324.503c-0.247-2.242-0.483-4.373-0.715-6.446c-0.742,3.253-0.857,6.637-0.095,10       c-0.707-1.322-1.539-2.603-2.434-3.857c0.015,0.203,0.029,0.395,0.044,0.6c1.748,23.458,4.715,55.825,8.797,91.489       c3.133,27.31,6.463,52.573,9.471,73.355c1.29,0.214,2.575,0.457,3.867,0.66c-2.557-21.602-5.566-47.023-8.822-74.532       C173.303,380.796,169.799,349.168,167.066,324.503z"/>
				</g>
				<g>
					<path style="fill:#FFF540;" d="M287.749,318.948c-0.591,1.662-1.082,3.359-1.42,5.089c-0.142-2.634-0.679-5.206-1.531-7.666       c-1.204,23.483-2.576,58.094-3.768,96.735c-0.959,31.084-1.642,59.585-2,81.786c1.172-0.072,2.343-0.169,3.514-0.25       c1.006-22.128,2.075-50.479,3.028-81.395C286.724,375.952,287.477,342.383,287.749,318.948z"/>
				</g>
				<g>
					<path style="fill:#FFF540;" d="M348.827,323.085c0.031-0.545,0.058-1.06,0.088-1.596c-1.158,1.579-2.181,3.217-3.042,4.903       c0.55-2.653,0.549-5.308,0.149-7.898c-0.131,1.415-0.264,2.865-0.4,4.354c-2.275,24.711-5.193,56.4-8.419,91.44       c-2.741,27.516-5.274,52.946-7.427,74.568c1.288-0.229,2.571-0.492,3.857-0.732c2.617-20.813,5.474-46.09,8.095-73.402       C345.147,378.988,347.514,346.571,348.827,323.085z"/>
				</g>
			</g>
			<path style="fill:#EFDC33;" d="M172.663,416.288c3.133,27.31,6.463,52.572,9.471,73.355c1.29,0.214,2.575,0.457,3.867,0.66     c-2.557-21.602-5.566-47.023-8.822-74.532c-0.432-3.904-0.86-7.759-1.282-11.574c-1.634-0.817-3.255-1.663-4.864-2.531     C171.554,406.469,172.097,411.343,172.663,416.288z"/>
			<path style="fill:#EFDC33;" d="M233.318,495.136c1.173,0.058,2.344,0.136,3.517,0.185c-0.711-20.5-1.799-46.382-3.171-74.703     c-1.523-0.125-3.044-0.276-4.566-0.445C230.527,448.587,232,474.561,233.318,495.136z"/>
			<path style="fill:#EFDC33;" d="M280.851,419.004c-0.865,28.785-1.485,55.098-1.82,75.886c1.172-0.072,2.343-0.169,3.515-0.25     c0.949-20.887,1.955-47.32,2.866-76.219C283.892,418.626,282.371,418.818,280.851,419.004z"/>
			<path style="fill:#EFDC33;" d="M337.59,410.079c-0.129,1.4-0.258,2.797-0.387,4.208c-2.741,27.516-5.274,52.947-7.427,74.568     c1.288-0.229,2.571-0.492,3.857-0.732c2.618-20.813,5.474-46.09,8.095-73.402c0.171-1.79,0.338-3.564,0.504-5.337     C340.684,409.609,339.137,409.842,337.59,410.079z"/>
		</g>
		<g>
			<path style="fill:#76206A;" d="M269.17,236.509c3.531-4.013,9.663-3.871,14.999-4.185c7.909-0.465,15.712-2.651,22.713-6.36     c4.306-2.282,9.497-5.17,13.663-2.642c2.552,1.549,3.694,4.835,3.297,7.795c-0.397,2.959-2.096,5.604-4.143,7.778     c-6.381,6.775-16.126,9.548-25.432,9.441c-9.307-0.107-18.373-2.765-27.299-5.4"/>
		</g>
		<g>
			<path style="fill:#76206A;" d="M210.025,243.291c-2.657,2.473-1.046,7.915,1.687,9.752c4.238,2.847,9.94,1.421,14.661,2.008     c6.308,0.785,12.734,1.926,19.111,2.689c1.927,0.231,8.446,0.503,8.123-2.963c-0.251-2.694-7.017-3.856-8.996-4.145     c-6.52-0.949-13.417,0.504-19.616-2.286c-3.258-1.466-6.157-3.661-9.457-5.03c-3.301-1.369-7.332-1.787-10.27,0.248"/>
		</g>
		<g>
			<g>
				<g>
					<path style="fill:#FFFFFF;" d="M361.972,274.683c0.746,0.916,4.442-0.4,8.796-4.779c4.32-4.292,8.994-11.976,10.308-21.541       c1.315-9.564-1.115-18.224-4.117-23.522c-3.011-5.391-6.216-7.655-7.181-6.974c-1.091,0.731,0.049,4.118,1.189,9.299       c1.168,5.161,2.151,12.305,1.103,19.959c-1.055,7.653-3.928,14.267-6.445,18.923       C363.13,270.73,361.119,273.684,361.972,274.683z"/>
				</g>
			</g>
			<g>
				<g>
					<path style="fill:#FFFFFF;" d="M349.228,277.705c-1.236-2.21-5.381-2.238-9.652-1.115c-4.257,1.174-7.826,3.28-7.785,5.812       c0.057,1.245,1.16,2.35,3.019,2.971c1.846,0.623,4.443,0.717,7.131-0.006c2.687-0.726,4.885-2.112,6.169-3.578       C349.405,280.32,349.804,278.811,349.228,277.705z"/>
				</g>
			</g>
			<g>
				<g>
					<path style="fill:#FFFFFF;" d="M375.786,412.483c2.458,0.512,7.692-14.633,11.693-33.829c4-19.195,5.25-35.17,2.793-35.682       c-2.457-0.512-7.692,14.633-11.692,33.828C374.58,395.995,373.329,411.971,375.786,412.483z"/>
				</g>
			</g>
			<g>
				<g>
					<path style="fill:#FFFFFF;" d="M390.331,338.62c2.474,0.427,5.011-2.31,5.669-6.115c0.657-3.804-0.815-7.235-3.289-7.662       c-2.473-0.427-5.011,2.31-5.668,6.115C386.385,334.763,387.858,338.193,390.331,338.62z"/>
				</g>
			</g>
		</g>
	</g>
</g>















</svg>
