<?xml version="1.0" encoding="UTF-8"?>
<!-- Generator: Adobe Illustrator 25.2.1, SVG Export Plug-In . SVG Version: 6.00 Build 0)  -->
<svg xmlns="http://www.w3.org/2000/svg" xmlns:xlink="http://www.w3.org/1999/xlink" version="1.1" id="Capa_1" x="0px" y="0px" viewBox="0 0 512 512" style="enable-background:new 0 0 512 512;" xml:space="preserve" width="512" height="512">
<g>
	<path style="fill:#FFFFFF;" d="M70.155,393.097c7.702,6.215,18.801,7.724,28.393,4.874c7.207,21.88,33.842,28.278,53.114,17.558   c11.991,16.611,37.829,21.966,54.742,9.943c6.194,5.144,13.747,8.42,21.643,9.309l0.11,18.578   c-24.863-1.831-48.376,14.627-53.515,39.334c-2.197,9.199,5.133,18.894,14.566,19.287c1.292,0.184,135.516-0.85,136.838-0.766   c38.968-7.013-0.962-64.883-38.487-58.205l-0.127-21.463c9.015-0.65,17.728-5.091,24.001-12.055   c14.241,9.549,38.009,6.111,47.49-7.327c17.141,10.88,39.673,2.36,51.267-14.115c40.988,7.206,47.379-37.961,43.301-73.093   c-0.442-17.777-11.576-31.49-28.811-35.617c3.053-12.303-1.68-30.737-4.351-45.802c-3.368-33.647-18.233-44.875-48.58-51.078   c6.893-18.435,2.933-47.35-10.854-61.737c-9.097-8.847-21.784-13.069-34.863-15.437c1.122-5.675,3.384-11.79,4.174-17.592   c2.608-11.344,7.954-24.67-3.144-33.253c7.915-11.823,5.79-27.654,2.684-40.246c2.238-7.055-0.663-14.721-7.011-18.528   c-9.599-5.996-18.271,0.576-25.236,7.411c-10.107,7.196-21.636,21.414-20.351,36.521c-5,2.216-8.666,7.031-9.35,12.702   c-2.583,16.232-4.499,33.127-6.059,47.545c-0.788-0.012-1.58-0.023-2.379-0.031c0.348-14.46,0.568-30.958,0.194-44.933   c0.065-5.726-2.926-10.964-7.594-13.827c3.259-14.831-6.298-30.417-15.367-38.895c-5.998-7.668-13.741-15.409-24.037-10.737   c-12.072,5.654-7.524,13.456-11.257,23.237c-4.689,10.385-5.59,23.85-0.775,34.527c-5.684,3.937-10.014,10.174-8.873,17.34   c1.02,12.154,2.251,24.374,3.534,36.502c-20.563,4.711-42.857,8.405-52.659,28.221c-7.012,14.755-13.349,33.749-6.602,49.074   c-32.153,8.751-52.001,19.261-49.46,54.523c-0.299,14.519-9.305,25.119-0.955,47.833c-15.508,4.485-23.996,24.881-25.223,38.796   C59.172,351.782,50.57,374.548,70.155,393.097z"/>
	<g>
		<g>
			<path style="fill:#793D91;" d="M292.887,468.953l-21.21,0.125l-0.604-102.28l-27.447,0.162l0.604,102.28l-21.21,0.125     c-16.137,0.095-29.507,11.515-32.753,26.669l135.685-0.801C322.528,480.119,309.024,468.858,292.887,468.953z"/>
		</g>
		<g>
			<path style="fill:#00C2B0;" d="M119.372,307.088c-11.294-0.171-27.429-4.273-35.568,5.578c-4.85,5.872-6.576,13.669-7.72,21.199     c-1.357,8.935-2.109,17.961-2.25,26.997c-0.111,7.146,0.619,15.267,6.226,19.697c4.979,3.933,12.367,3.441,17.988,0.497     c5.621-2.945,9.874-7.897,13.984-12.732c-0.587,7.891-1.148,16.022,1.313,23.543c4.342,13.269,18.155,15.555,29.998,9.957     c7.343-3.471,13.061-10.219,15.279-18.032c-1.207,9.559,2.216,19.773,9.504,26.075c7.288,6.302,18.383,8.138,26.991,3.81     c7.108-3.574,9.635-12.21,13.169-18.897c-1.432,13.767,13.16,25.938,26.876,24.077c13.716-1.86,24.184-15.153,25.181-28.958     c-0.565,18.837,22.698,34.579,37.961,20.171c5.553-5.242,8.346-12.782,9.93-20.253c1.912,12.429,15.646,21.648,27.873,18.71     c14.156-3.402,15.262-17.059,18.805-28.859c1.476,4.034,2.972,8.108,5.309,11.712c14.979,23.098,44.178,0.436,43.231-21.614     c0.455,6.952,6.732,13.03,13.695,13.259c25.86,0.852,21.347-43.947,20.265-58.88c-0.695-9.589-5.773-16.03-14.988-18.819     c-12.926-3.912-27.007-6.015-40.517-6.44"/>
		</g>
		<g>
			<path style="fill:#EF5EB4;" d="M116.533,214.001c34.45-14.042,131.404-43.313,268.862-1.008     c9.398,2.892,15.917,11.444,16.081,21.275l1.452,87.357c0,0-125.091,78.563-301.399,4.016l1.031-91.002     C102.663,225.581,108.144,217.421,116.533,214.001z"/>
		</g>
		<g>
			<g>
				<path style="fill:#D855B0;" d="M103.503,292.36c2.878,4.296,8.731,5.812,13.815,4.869c5.085-0.942,9.552-3.892,13.681-7.006      c1.912-1.443,4.105-3.021,6.466-2.613c3.49,0.604,4.74,4.868,5.413,8.346c1.634,8.435,4.138,16.845,8.828,24.043      c4.691,7.198,11.795,13.118,20.184,14.974c10.212,2.259,21.168-1.867,28.718-9.105c7.55-7.237,12.007-17.215,14.318-27.415      c0.944-4.164,1.568-8.429,3.111-12.409c1.544-3.981,4.168-7.752,8.02-9.592c2.968-1.418,6.783-1.843,8.479-4.661      c1.442-2.397,0.555-5.68-1.431-7.65c-1.986-1.97-4.805-2.853-7.566-3.299c-14.137-2.285-28.987,5.089-42.647,0.791      c-7.955-2.503-14.261-8.647-21.946-11.883c-9.14-3.849-20.06-3.179-28.661,1.759"/>
			</g>
		</g>
		<g>
			<g>
				<path style="fill:#D855B0;" d="M246.866,306.062c2.816,8.284,10.258,14.82,18.836,16.545c8.577,1.724,17.968-1.429,23.766-7.981      c3.47-3.92,5.885-9.066,10.535-11.47c7.093-3.667,15.604,0.746,21.928,5.619c6.324,4.874,13.193,10.677,21.137,9.869      c7.356-0.748,13.147-7.492,14.456-14.769c1.309-7.277-1.135-14.794-4.947-21.129c-6.54-10.868-17.267-19.142-29.44-22.708      c-12.172-3.566-25.668-2.388-37.039,3.233"/>
			</g>
		</g>
		<g>
			<g>
				<path style="fill:#D855B0;" d="M359.147,304.673c3.828,1.716,8.239-1.333,10.332-4.969c2.093-3.636,2.903-7.945,5.301-11.387      c2.398-3.442,7.512-5.701,10.773-3.062c1.854,1.5,2.525,4.129,4.421,5.577c2.138,1.633,5.372,1.227,7.482-0.442      c2.111-1.668,3.233-4.324,3.688-6.976c1.67-9.732-4.909-19.413-13.474-24.326c-8.565-4.913-18.73-6.034-28.579-6.728      c-9.85-0.694-19.946-1.113-29.081-4.863"/>
			</g>
		</g>
		<g>
			<path style="fill:#FFB42E;" d="M402.287,283.071c-10.907,4.141-22.727,8.002-35.376,11.326     c-25.893,6.83-55.183,11.183-86.14,12.431c-30.962,1.286-60.576-0.458-87.363-3.373c-26.801-2.958-50.836-6.832-70.769-11.043     c-7.483-1.569-14.391-3.186-20.679-4.768l-0.073,6.405c5.853,1.823,12.206,3.655,19.097,5.431     c20.035,5.187,44.213,9.851,71.311,13.368c27.098,3.475,57.245,5.552,88.907,4.237c31.646-1.274,61.72-6.032,88.193-13.561     c11.783-3.338,22.799-7.19,33.044-11.317L402.287,283.071z"/>
		</g>
		<g>
			<path style="fill:#FFB42E;" d="M122.639,292.412c-5.878-1.233-11.387-2.494-16.534-3.745l-2.602,3.693     c0.905,1.35,2.104,2.425,3.479,3.236c2.116,0.628,4.306,1.254,6.545,1.878c1.273,0.066,2.555-0.015,3.791-0.244     c3.365-0.623,6.455-2.134,9.36-3.981C125.315,292.971,123.966,292.692,122.639,292.412z"/>
			<path style="fill:#FFB42E;" d="M145.058,305.031c14.396,2.954,30.241,5.611,47.237,7.817c5.433,0.697,10.995,1.334,16.661,1.902     c1.627-3.003,2.966-6.179,4.055-9.44c-6.68-0.536-13.224-1.161-19.603-1.856c-18.241-2.013-35.196-4.451-50.453-7.13     C143.53,299.248,144.214,302.166,145.058,305.031z"/>
		</g>
		<g>
			<path style="fill:#FF902C;" d="M289.468,314.626c2.44-2.757,4.362-6.117,6.903-8.706c-5.148,0.387-10.347,0.696-15.599,0.908     c-11.377,0.473-22.57,0.533-33.509,0.28c1.587,4.025,4.267,7.585,7.626,10.318c8.631,0.122,17.41,0.029,26.314-0.34     c2.03-0.082,4.052-0.179,6.068-0.289C288.047,316.12,288.784,315.399,289.468,314.626z"/>
			<path style="fill:#FF902C;" d="M357.524,303.876c0.429-2.387,0.448-4.799,0.154-7.187c-13.593,3.182-28.012,5.703-43.036,7.476     c2.594,1.266,5.076,2.906,7.289,4.611c1.665,1.283,3.369,2.628,5.118,3.902c10.232-1.58,20.147-3.541,29.677-5.84     C357.07,305.869,357.343,304.879,357.524,303.876z"/>
		</g>
		<g>
			<path style="fill:#FF902C;" d="M372.433,292.892c-1.824,0.511-3.661,1.016-5.522,1.504c-3.78,0.997-7.642,1.935-11.561,2.824     l3.798,7.452c3.828,1.716,8.239-1.333,10.332-4.968C370.712,297.562,371.503,295.187,372.433,292.892z"/>
			<path style="fill:#FF902C;" d="M397.457,290.391c2.087-1.65,3.206-4.266,3.67-6.888c-4.294,1.613-8.729,3.18-13.297,4.689     c0.611,0.982,1.237,1.947,2.145,2.641C392.113,292.466,395.346,292.059,397.457,290.391z"/>
		</g>
		<g>
			<path style="fill:#FF902C;" d="M122.639,292.412c-5.878-1.233-11.387-2.494-16.534-3.745l-2.602,3.693     c0.905,1.35,2.104,2.425,3.479,3.236c2.116,0.628,4.306,1.254,6.545,1.878c1.273,0.066,2.555-0.015,3.791-0.244     c3.365-0.623,6.455-2.134,9.36-3.981C125.315,292.971,123.966,292.692,122.639,292.412z"/>
			<path style="fill:#FF902C;" d="M145.058,305.031c14.396,2.954,30.241,5.611,47.237,7.817c5.433,0.697,10.995,1.334,16.661,1.902     c1.627-3.003,2.966-6.179,4.055-9.44c-6.68-0.536-13.224-1.161-19.603-1.856c-18.241-2.013-35.196-4.451-50.453-7.13     C143.53,299.248,144.214,302.166,145.058,305.031z"/>
		</g>
		<g>
			<g>
				<path style="fill:#FFFFFF;" d="M427.028,328.284c-0.123-0.259-4.703,1.679-12.964,5.185c-8.258,3.51-20.249,8.494-35.302,13.972      c-7.52,2.758-15.848,5.509-24.834,8.293c-9.032,2.625-18.701,5.387-29.034,7.601c-20.609,4.608-43.745,7.718-68.087,7.579      c-24.387-0.298-47.568-2.796-68.346-6.674c-20.788-3.866-39.197-8.929-54.366-14.026c-15.178-5.08-27.212-9.947-35.436-13.513      c-8.232-3.553-12.763-5.6-12.899-5.33c-0.06,0.118,0.999,0.776,3.074,1.921c2.09,1.112,5.13,2.852,9.2,4.77      c8.064,3.999,20.003,9.278,35.174,14.725c15.161,5.462,33.649,10.843,54.591,14.936c20.93,4.105,44.336,6.738,68.971,7.039      c24.709,0.143,48.137-3.125,68.907-7.969c10.417-2.333,20.137-5.233,29.197-8.012c9.012-2.937,17.343-5.856,24.843-8.792      c15.013-5.835,26.88-11.218,34.966-15.156c4.065-1.924,7.146-3.575,9.245-4.671      C426.017,329.047,427.086,328.404,427.028,328.284z"/>
			</g>
		</g>
		<g>
			<path style="fill:#793D91;" d="M402.442,234.031c-2.233-9.393-6.413-17.765-17.048-21.038     c-137.457-42.305-234.411-13.035-268.861,1.008c-8.388,3.419-13.869,11.578-13.972,20.635c-0.095,8.322,0.296,16.324-2.05,24.215     c-2.372,7.976-5.34,27.019,3.871,32.241c9.32,5.283,22.303-6.632,27.096-13.211c2.27-3.116,4.981-6.8,8.834-6.681     c4.787,0.149,7.071,5.861,8.046,10.55c2.055,9.884,3.66,20.091,8.563,28.915c4.903,8.824,14.038,16.145,24.118,15.59     c14.178-0.78,23.051-15.83,26.368-29.636c1.405-5.845,2.352-11.954,5.445-17.109c3.093-5.155,9.089-9.181,14.938-7.795     c5.359,1.27,8.823,6.547,10.502,11.792c1.679,5.246,2.148,10.873,4.376,15.91c3.48,7.866,11.377,13.595,19.935,14.462     c8.558,0.866,17.443-3.164,22.429-10.174c6.419-9.024,14.25-30.025,29.543-20.188c5.093,3.276,8.153,8.824,11.797,13.661     c4.45,5.907,10.26,11.113,17.349,13.22s15.567,0.539,20.32-5.128c6.242-7.445,3.676-20.684,10.774-27.964     c9.704-9.954,15.086,10.426,22.376,13.757c21.421,9.787,9.008-34.165,7.797-42.082     C404.242,244.107,403.607,238.93,402.442,234.031z"/>
		</g>
		<g>
			<g>
				<path style="fill:#6B3A82;" d="M154.995,209.33c-4.176-1.1-8.466,2.962-8.63,7.277c-0.164,4.315,2.841,8.252,6.562,10.443      c3.721,2.191,8.08,2.97,12.337,3.698c15.99,2.737,32.017,5.283,48.117,7.291c29.85,3.725,59.69,4.091,89.56,0.575      c15.419-1.815,30.695-4.837,45.641-9.041c0.299-0.085,0.598-0.169,0.896-0.254c3.592-1.023,7.284-2.178,10.096-4.636      c2.812-2.458,4.514-6.578,3.079-10.026c-2.65-6.362-10.8-5.55-16.195-7.377c-8.367-2.833-16.562-4.596-25.182-6.559"/>
			</g>
		</g>
		<g>
			<g>
				<path style="fill:#9D4FC1;" d="M384.911,234.559c-0.07-0.256-3.617,0.393-9.959,1.782c-1.69,0.378-3.443,0.77-5.27,1.179      c-2.021,0.403-4.118,0.822-6.299,1.257c-4.524,0.875-9.639,2.031-15.365,2.944c-2.897,0.506-5.884,1.028-8.959,1.566      c-3.116,0.538-6.383,0.943-9.749,1.454c-6.726,1.077-13.966,1.83-21.568,2.726c-15.234,1.525-32.036,2.658-49.702,2.922      c-17.667,0.161-34.49-0.568-49.757-1.726c-7.621-0.713-14.877-1.291-21.627-2.207c-3.378-0.429-6.653-0.756-9.781-1.219      c-3.087-0.463-6.085-0.913-8.994-1.35c-5.746-0.776-10.888-1.807-15.431-2.574c-2.191-0.382-4.297-0.75-6.327-1.105      c-1.836-0.365-3.598-0.714-5.297-1.051c-6.373-1.237-9.934-1.8-9.999-1.542c-0.064,0.258,3.377,1.313,9.667,3.003      c1.681,0.444,3.424,0.904,5.242,1.384c1.924,0.472,4.03,0.915,6.288,1.421c4.522,0.971,9.654,2.195,15.403,3.148      c2.912,0.519,5.914,1.053,9.006,1.603c3.134,0.543,6.42,0.946,9.81,1.447c6.775,1.058,14.067,1.761,21.734,2.575      c15.356,1.362,32.308,2.204,50.11,2.041c17.801-0.266,34.728-1.515,50.047-3.246c7.645-0.999,14.918-1.877,21.666-3.097      c3.377-0.582,6.652-1.064,9.773-1.682c3.077-0.625,6.066-1.231,8.965-1.819c5.724-1.091,10.825-2.438,15.323-3.518      c2.245-0.56,4.339-1.053,6.252-1.571c1.805-0.523,3.537-1.025,5.207-1.51C381.567,235.953,384.981,234.815,384.911,234.559z"/>
			</g>
		</g>
		<g>
			<path style="fill:#FFB42E;" d="M339.922,136.881c-1.362-0.478-2.699-0.903-4.049-1.356     c-54.526-2.346-109.902-13.051-163.54,0.852c-0.295,0.076-0.577,0.117-0.867,0.18c-2.569,1.094-4.858,2.144-6.82,3.098     c-5.494,2.675-9.128,8.951-9.262,15.873l-1.206,62.086c13.31,4.746,27.914,7.134,40.931,9.914     c23.785,5.08,48.548,6.963,72.822,5.922c27.012-1.158,55.951-5.333,82.605-15.107l-0.289-65.329     C350.213,145.505,346.027,139.02,339.922,136.881z"/>
		</g>
		<g>
			<path style="fill:#EF5EB4;" d="M256.585,202.235c23.48-0.252,45.788-2.309,65.892-5.271c9.87-1.694,19.264-3.194,27.94-5.282     l-0.033-7.581c-0.353,0.066-0.693,0.123-1.048,0.192c-8.713,1.794-18.142,3.006-28.022,4.476     c-19.829,2.463-41.738,4.233-64.79,4.483c-23.053,0.065-44.983-1.407-64.844-3.599c-9.899-1.335-19.344-2.419-28.08-4.094     c-2.999-0.539-5.912-1.013-8.77-1.515l-0.141,7.245c2.461,0.522,4.964,1.032,7.528,1.588c8.814,2.018,18.37,3.402,28.411,4.984     C210.771,200.55,233.104,202.303,256.585,202.235z"/>
		</g>
		<g>
			<g>
				<path style="fill:#FF902C;" d="M149.817,180.763c0.22,5.807,6.55,10.547,12.184,9.122c4.215-1.066,7.637-4.888,11.984-4.809      c3.058,0.055,5.778,2.13,7.495,4.661c1.717,2.531,2.629,5.504,3.674,8.378c1.553,4.272,3.529,8.538,6.855,11.637      c3.325,3.098,8.268,4.809,12.54,3.258c6.362-2.309,8.464-10.282,8.399-17.05c-0.128-13.288-5.177-26.473-13.958-36.448      c-4.213-4.786-10.445-9.118-16.545-7.264"/>
			</g>
		</g>
		<g>
			<g>
				<path style="fill:#FF902C;" d="M235.883,158.04c13.669,2.303,27.338,4.606,41.006,6.908c4.604,0.776,9.322,1.591,13.358,3.938      c2.904,1.688,7.139,5.555,6.954,9.318c-0.154,3.13-2.951,6.79-3.58,10.134c-1.141,6.063-1.25,12.328-2.992,18.246      c-1.742,5.918-5.592,11.719-11.483,13.55c-6.443,2.003-13.562-1.376-18.014-6.445c-5.208-5.929-7.597-13.813-10.66-20.986      c-0.868-2.033-2.502-3.699-4.605-4.382c-3.841-1.246-6.023,1.469-7.848,3.942c-3.813,5.167-7.626,10.334-11.439,15.5      c-1.66,2.249-4.913,2.537-6.943,0.616l-4.122-3.903"/>
			</g>
		</g>
		<g>
			<g>
				<path style="fill:#FF902C;" d="M271.551,158.518c14.716,6.615,31.666,5.114,47.66,2.991c5.706-0.758,11.807-1.519,16.971,1.025      c5.692,2.805,8.88,8.995,10.76,15.056c2.31,7.446,2.949,16.558-4.452,21.395c-1.022,0.668-2.149,1.176-3.321,1.517      c-6.648,1.933-13.17-0.685-18.123-4.846c-4.602-3.866-8.827-9.443-15.304-8.256c-2.081,0.382-3.965,1.479-5.485,2.95      c-3.159,3.055-4.611,7.086-5.796,11.168c-0.282,0.972-1.397,1.425-2.276,0.922l-4.763-2.727"/>
			</g>
		</g>
		<g>
			<path style="fill:#D855B0;" d="M293.1,191.606c-11.755,0.909-23.986,1.51-36.577,1.646c-1.957,0.005-3.893-0.015-5.833-0.031     c1.243,2.953,2.389,6.012,3.674,8.999c0.742,0.002,1.476,0.017,2.22,0.015c12.145-0.13,23.967-0.751,35.343-1.723     C292.386,197.56,292.685,194.572,293.1,191.606z"/>
			<path style="fill:#D855B0;" d="M217.182,200.68c4.578,0.366,9.218,0.686,13.942,0.928c2.129-2.885,4.257-5.769,6.386-8.654     c-5.625-0.183-11.161-0.449-16.595-0.785L217.182,200.68z"/>
		</g>
		<g>
			<path style="fill:#D855B0;" d="M288.208,191.966l4.233,8.499c0.806-0.07,1.602-0.147,2.403-0.22     c0.817-2.643,1.808-5.224,3.375-7.487c0.408-0.589,0.863-1.154,1.359-1.683C295.841,191.405,292.049,191.701,288.208,191.966z"/>
			<path style="fill:#D855B0;" d="M347.662,192.317c0.823-2.445,0.982-5.134,0.721-7.837c-8.448,1.69-17.545,2.872-27.069,4.29     c-2.379,0.295-4.792,0.58-7.229,0.854c2.446,1.73,4.656,4.095,6.961,6.031c0.53,0.446,1.084,0.866,1.649,1.272     C331.451,195.426,339.828,194.069,347.662,192.317z"/>
		</g>
		<g>
			<path style="fill:#D855B0;" d="M163.6,185.56c-2.999-0.539-5.912-1.013-8.77-1.515l-0.089,4.572     c2.169,1.325,4.781,1.894,7.26,1.267c2.479-0.627,4.684-2.204,6.964-3.383C167.152,186.205,165.357,185.897,163.6,185.56z"/>
			<path style="fill:#D855B0;" d="M212.678,200.306c0.196-1.46,0.284-2.93,0.271-4.348c-0.014-1.454-0.097-2.906-0.228-4.353     c-7.224-0.548-14.262-1.203-21.042-1.952c-3.909-0.527-7.744-1.016-11.495-1.517c0.474,0.501,0.913,1.036,1.296,1.599     c1.484,2.188,2.367,4.706,3.254,7.206c1.946,0.304,3.907,0.609,5.894,0.922C197.718,198.809,205.092,199.631,212.678,200.306z"/>
		</g>
		<g>
			<path style="fill:#793D91;" d="M354.351,151.793c-1.486-4.053-3.384-7.466-5.618-9.62c-12.043-11.711-36.764-12.542-52.704-14.28     c-19.234-2.098-38.623-2.399-57.952-1.991c-25.282,0.534-49.053,1.138-72.013,12.594c-7.124,3.555-11.218,10.202-13.639,17.549     c-2.033,6.166-5.682,17.503-4.141,23.935c4.404,18.379,26.267-12.514,32.109-11.957c4.72,0.45,6.466,6.345,6.999,11.056     c0.874,7.722,1.63,15.667,5.114,22.613c3.484,6.947,10.432,12.771,18.197,12.449c7.558-0.314,13.783-6.218,17.663-12.711     c3.88-6.494,6.178-13.857,10.287-20.209c1.754-2.712,4.419-5.48,7.628-5.107c4.074,0.474,5.739,5.354,6.788,9.32     c2.153,8.141,5.68,16.323,12.232,21.614c6.551,5.291,16.726,6.782,23.333,1.561c5.807-4.589,7.313-12.571,9.745-19.562     c2.699-7.758,9.586-16.925,18.86-13.116c7.455,3.062,10.06,12.468,16.308,17.084c7.58,5.599,17.53,2.885,21.928-5.611     C359.465,179.694,358.536,163.206,354.351,151.793z"/>
		</g>
		<g>
			<g>
				<path style="fill:#9D4FC1;" d="M346.266,146.819c-0.21-0.622-9.661,2.471-25.28,5.815c-2.008,0.413-4.053,0.834-6.137,1.263      c-2.134,0.433-4.382,0.742-6.692,1.146c-4.613,0.86-9.596,1.413-14.822,2.092c-10.482,1.112-22.056,1.84-34.22,1.764      c-12.162-0.172-23.719-1.136-34.176-2.462c-5.211-0.786-10.182-1.44-14.776-2.394c-2.301-0.451-4.542-0.806-6.667-1.283      c-2.075-0.471-4.11-0.934-6.11-1.388c-15.548-3.662-24.933-6.948-25.156-6.33c-0.092,0.249,2.17,1.293,6.355,2.972      c2.086,0.862,4.664,1.845,7.72,2.804c3.048,0.981,6.494,2.205,10.408,3.191c2.002,0.539,4.041,1.087,6.119,1.646      c2.132,0.559,4.384,0.992,6.7,1.517c4.624,1.101,9.64,1.885,14.908,2.777c10.572,1.539,22.295,2.627,34.636,2.8      c12.342,0.079,24.086-0.769,34.686-2.092c5.286-0.784,10.316-1.465,14.962-2.472c2.326-0.477,4.587-0.864,6.729-1.379      c2.089-0.516,4.138-1.023,6.152-1.521c3.933-0.906,7.403-2.059,10.471-2.978c3.075-0.897,5.673-1.827,7.775-2.646      C344.07,148.068,346.353,147.071,346.266,146.819z"/>
			</g>
		</g>
		<g>
			<g>
				<path style="fill:#FFB42E;" d="M223.73,63.546c-7.726-4.871-12.036-15.79-10.021-25.39c1.571-7.487,6.534-14.413,5.196-22.001      c2.963,3.967,6.543,7.287,9.76,10.996c3.217,3.709,6.143,7.969,7.327,12.954c2.057,8.662-2.175,18.559-9.443,22.081"/>
			</g>
			<g>
				<path style="fill:#00C2B0;" d="M227.78,64.793c-6.777,1.284-14.889,3.996-20.29,9.471c0.517,6.098,1.069,12.193,1.656,18.283      c0.087,0.897,2.221,1.795,2.309,2.692c0.066,0.669-1.916,1.338-1.849,2.007c0.452,4.547,0.924,9.092,1.415,13.635      c0.078,0.718,4.251,1.435,4.329,2.153c0.094,0.86-3.906,1.72-3.811,2.579c0.987,8.882,2.049,17.754,3.186,26.614      c8.582,5.007,19.578,3.178,27.945-2.86c0.099-5.072,0.223-10.151,0.352-15.236c0.022-0.873-2.003-1.746-1.981-2.62      c0.025-0.985,2.098-1.97,2.123-2.955c0.117-4.587,0.232-9.176,0.33-13.765c0.019-0.907-2.009-1.814-1.991-2.721      c0.019-0.942,2.084-1.885,2.101-2.827c0.083-4.595,0.143-9.19,0.166-13.78c0.004-0.76-3.065-1.52-3.063-2.28      c0.002-1.046,3.074-2.092,3.072-3.138c-0.009-5.14-0.073-10.274-0.21-15.398C238.389,63.75,233.075,63.79,227.78,64.793z"/>
			</g>
			<g>
				<path style="fill:#199182;" d="M227.78,64.793c-6.777,1.284-14.889,3.996-20.29,9.471c0.025,0.3,0.053,0.6,0.079,0.9      c4.695,2.168,10.115,2.339,15.067,1.581c7.943-1.216,14.378-4.485,20.214-10.612c0.253-0.266,0.497-0.553,0.731-0.851      c-0.005-0.211-0.006-0.423-0.012-0.634C238.389,63.75,233.075,63.79,227.78,64.793z"/>
			</g>
			<g>
				<g>
					<path style="fill:#793D91;" d="M224.777,71.886c0.213-0.016,0.217-2.03,0.492-5.264c0.226-3.237,0.879-7.703,0.933-12.762       c0.055-5.071-1.037-9.694-2.638-12.66c-1.584-3.003-3.393-4.22-3.472-4.095c-0.184,0.173,1.293,1.601,2.546,4.537       c1.279,2.912,2.163,7.306,2.113,12.214c-0.049,4.916-0.54,9.428-0.507,12.724C224.229,69.876,224.591,71.903,224.777,71.886z"/>
				</g>
			</g>
			<g>
				<path style="fill:#EF5EB4;" d="M243.761,85.512c0.009-1.823,0.022-3.644,0.018-5.465c-4.909,2.867-10.456,5.596-16.491,7.795      c-6.288,2.299-12.454,3.783-18.139,4.706c0.151,1.567,0.306,3.132,0.462,4.698c0.046-0.005,0.091-0.009,0.137-0.014      c5.95-0.685,12.434-2.139,19.004-4.515C234.204,90.708,239.254,88.224,243.761,85.512z"/>
			</g>
			<g>
				<path style="fill:#EF5EB4;" d="M211.022,110.881c0.17,1.576,0.346,3.156,0.522,4.732c5.754-0.716,11.98-2.14,18.291-4.422      c4.909-1.809,9.5-4,13.656-6.399c0.04-1.849,0.074-3.698,0.107-5.548c-4.592,2.601-9.701,5.058-15.227,7.072      C222.373,108.508,216.486,109.951,211.022,110.881z"/>
			</g>
			<g>
				<path style="fill:#EF5EB4;" d="M213.114,129.184c0.19,1.588,0.378,3.177,0.573,4.765c5.455-0.755,11.305-2.142,17.229-4.284      c4.31-1.588,8.368-3.474,12.109-5.534c0.047-1.858,0.092-3.716,0.14-5.575c-4.194,2.288-8.784,4.438-13.712,6.234      C223.821,126.848,218.291,128.25,213.114,129.184z"/>
			</g>
		</g>
		<g>
			<g>
				<path style="fill:#FFB42E;" d="M303.486,65.704c8.301-3.81,14.013-14.065,13.282-23.847c-0.57-7.628-4.577-15.148-2.25-22.494      c-3.46,3.541-7.447,6.361-11.124,9.613c-3.678,3.252-7.14,7.089-8.971,11.875c-3.182,8.315-0.291,18.683,6.449,23.133"/>
			</g>
			<g>
				<path style="fill:#EF5EB4;" d="M299.307,66.406c6.548,2.166,14.233,5.924,18.864,12.064c-1.34,6.081-2.715,12.154-4.125,18.218      c-0.188,0.809-3.448,1.618-3.638,2.426c-0.168,0.719,2.734,1.438,2.565,2.157c-1.042,4.418-2.102,8.832-3.181,13.24      c-0.209,0.852-3.489,1.704-3.699,2.555c-0.169,0.687,2.732,1.374,2.562,2.061c-2.134,8.606-4.34,17.192-6.617,25.758      c-9.167,3.831-19.827,0.569-27.324-6.52c0.576-5.09,1.128-10.193,1.676-15.3c0.095-0.887,2.238-1.774,2.333-2.661      c0.102-0.955-1.843-1.91-1.741-2.865c0.493-4.596,0.988-9.193,1.5-13.789c0.092-0.827,2.232-1.654,2.326-2.481      c0.116-1.028-1.814-2.056-1.696-3.084c0.519-4.516,1.06-9.027,1.637-13.53c0.1-0.781,3.273-1.562,3.375-2.343      c0.137-1.044-2.796-2.087-2.655-3.129c0.678-5.016,1.408-10.019,2.207-15.003C288.929,63.973,294.191,64.714,299.307,66.406z"/>
			</g>
			<g>
				<path style="fill:#CC469C;" d="M299.307,66.406c6.548,2.166,14.233,5.924,18.864,12.064c-0.065,0.294-0.132,0.588-0.197,0.881      c-4.94,1.53-10.335,0.985-15.144-0.419c-7.713-2.253-13.661-6.342-18.638-13.185c-0.216-0.297-0.419-0.614-0.613-0.94      c0.033-0.209,0.062-0.418,0.095-0.627C288.929,63.973,294.191,64.714,299.307,66.406z"/>
			</g>
			<g>
				<g>
					<path style="fill:#793D91;" d="M301.349,73.833c0.182,0.042,0.808-1.92,1.228-5.19c0.467-3.263,0.576-7.8,1.175-12.68       c0.598-4.871,2.053-9.11,3.705-11.828c1.63-2.745,3.282-3.966,3.122-4.162c-0.062-0.134-2.015,0.834-3.982,3.602       c-1.978,2.73-3.67,7.168-4.284,12.202c-0.614,5.023-0.555,9.536-0.758,12.774C301.402,71.792,301.14,73.789,301.349,73.833z"/>
				</g>
			</g>
			<g>
				<g>
					<path style="fill:#FFB42E;" d="M280.748,84.656c0.254-1.805,0.46-3.67,0.726-5.472c4.443,3.547,9.653,7.176,15.307,10.225       c5.89,3.184,11.777,5.544,17.268,7.279c-0.376,1.528-0.696,3.055-1.077,4.582c-0.045-0.012-0.148-0.022-0.193-0.034       c-5.788-1.537-11.994-3.914-18.152-7.214C289.524,91.246,284.815,87.991,280.748,84.656z"/>
				</g>
				<g>
					<path style="fill:#FFB42E;" d="M309.791,114.51c-0.396,1.535-0.736,3.082-1.137,4.616c-5.59-1.541-11.639-3.88-17.553-7.051       c-4.596-2.499-8.853-5.351-12.619-8.326c0.228-1.836,0.395-3.73,0.629-5.565c4.167,3.238,8.966,6.487,14.143,9.278       C298.871,110.5,304.519,112.8,309.791,114.51z"/>
				</g>
				<g>
					<path style="fill:#FFB42E;" d="M305.309,132.37c-0.418,1.544-0.786,3.129-1.209,4.672c-5.289-1.536-11.189-3.866-16.741-6.842       c-4.035-2.195-7.574-4.557-10.978-7.136c0.222-1.845,0.378-3.679,0.6-5.525c3.819,2.87,7.915,5.559,12.531,8.048       C294.786,128.438,300.321,130.697,305.309,132.37z"/>
				</g>
			</g>
		</g>
		<g>
			<g>
				<g>
					<path style="fill:#FFFFFF;" d="M349.385,185.237c1.014,0.271,2.368-0.958,3.53-3.34c1.162-2.369,2.065-5.906,2.139-9.873       c0.068-3.968-0.707-7.534-1.783-9.944c-1.075-2.423-2.385-3.699-3.408-3.465c-2.093,0.543-2.347,6.411-2.508,13.27       C347.271,178.746,347.313,184.619,349.385,185.237z"/>
				</g>
			</g>
			<g>
				<g>
					<path style="fill:#FFFFFF;" d="M207.146,204.911c0.734-0.799,0.431-2.335-0.172-4.237c-1.276-3.715-1.968-5.734-2.355-6.861       c-0.338-1.142-0.944-3.189-2.06-6.955c-0.612-1.899-1.256-3.327-2.317-3.552c-1.01-0.22-2.308,0.941-3.122,3.32       c-0.819,2.349-0.989,5.909,0.165,9.53c1.16,3.619,3.363,6.421,5.392,7.86C204.72,205.483,206.45,205.676,207.146,204.911z"/>
				</g>
			</g>
			<g>
				<g>
					<path style="fill:#FFFFFF;" d="M260.609,306.95c0.335-1.053-1.167-2.425-2.797-4.628c-1.663-2.173-3.549-5.371-4.818-9.309       c-1.281-4.007-1.937-8.113-2.733-11.201c-0.777-3.09-1.712-5.096-2.784-5.084c-1.054,0.011-2.045,1.955-2.658,5.247       c-0.577,3.262-0.827,8.088,0.847,13.401c1.704,5.378,5.373,9.485,8.755,11.205C257.832,308.365,260.347,307.911,260.609,306.95       z"/>
				</g>
			</g>
			<g>
				<g>
					<path style="fill:#FFFFFF;" d="M176.356,315.943c0.43-1.017-1.161-2.608-3.093-5.125c-1.966-2.495-4.283-6.096-6.15-10.54       c-1.876-4.478-3.17-8.975-4.451-12.275c-1.262-3.305-2.511-5.358-3.57-5.194c-1.042,0.162-1.706,2.444-1.796,6.114       c-0.062,3.644,0.434,8.843,2.723,14.347c2.303,5.537,6.235,9.786,9.764,11.734       C173.328,317.013,175.993,316.879,176.356,315.943z"/>
				</g>
			</g>
			<g>
				<g>
					<path style="fill:#FFFFFF;" d="M158.957,278.448c2.023-0.692,2.884-3.528,2.511-6.457c-0.401-2.926-1.968-5.44-4.101-5.584       c-2.107-0.152-4.032,2.824-3.532,6.592C154.331,276.767,156.962,279.142,158.957,278.448z"/>
				</g>
			</g>
			<g>
				<g>
					<path style="fill:#FFFFFF;" d="M402.074,277.839c2.098-0.102,3.418-7.575,1.605-16.486c-1.787-8.916-5.903-15.292-7.876-14.572       c-2.025,0.724-1.328,7.79,0.329,16.095C397.828,271.175,399.926,277.958,402.074,277.839z"/>
				</g>
			</g>
		</g>
	</g>
</g>















</svg>
