<?xml version="1.0" encoding="UTF-8"?>
<!-- Generator: Adobe Illustrator 25.2.1, SVG Export Plug-In . SVG Version: 6.00 Build 0)  -->
<svg xmlns="http://www.w3.org/2000/svg" xmlns:xlink="http://www.w3.org/1999/xlink" version="1.1" id="Capa_1" x="0px" y="0px" viewBox="0 0 512 512" style="enable-background:new 0 0 512 512;" xml:space="preserve" width="512" height="512">
<g>
	<g>
		<path style="fill:#FFFFFF;" d="M447.674,269.197l-35.915-4.996c11.858-6.253,34.643-34.32,24.574-54.936    c13.58-7.129,14.721-19.713,10.778-33.419c4.562-7.792,2.585-19.389-1.745-27.056c5.434-6.378,0.568-48.051,1.397-56.019    c-0.833-10.111-11.318-21.826-21.862-21.363c-6.662,1.783-14.696,2.433-20.698,5.969c-5.989-0.289-12.055,1.72-15.961,6.364    c-7.825-7.593-22.789-7.677-31.414-1.465c-7.601-2.457-17.261-1.902-24.579-0.391c-0.117-0.027-0.235-0.045-0.352-0.07    c-0.109-0.988-0.287-1.966-0.577-2.912c4.772-6.861,7.914-37.165,9.45-45.28c-2.439-16.993-12.463-22.486-27.977-20.347    c-6.041,1.25-12.314-0.732-17.856,2.451c-6.053-6.136-16.064-7.839-24.079-5.378c-6.774-3.215-14.842-3.04-21.61-4.607    c-5.256-0.807-12.077-2.413-16.861,0.769c-6.714-6.653-18.314-8.505-26.688-4.168c-19.539,10.971,2.096,34.507-7.5,53.578    c-0.069,0.266-1.314,5.658-1.384,5.946c-32.938-33.693-66.624-9.04-70.081,29.154c-15.906-5.229-34.808-2.625-47.146,9.246    c-23.814,20.507-10.149,57.034,10.04,74.154c-24.823,2.908-35.369-2.853-38.074,17.275c0.001,0.001,2.991,54.539,2.991,54.539    c0.306,5.56,3.648,10.264,8.364,12.539l2.286,37.105c-9.491,7.39-8.491,24.746,1.898,30.822    c15.426,140.681-26.683,124.59,101.337,119.183c-0.424,7.585-6.115,23.237-0.06,29.751c0.47,8.919,98.375,16.292,104.58,18.816    c6.044,9.138,20.43,11.353,28.475,3.911c125.972,11.066,104.004,46.139,126.96-70.383c9.625-5.099,12.919-20.318,5.627-28.71    l8.378-42.722c5.982-1.316,10.751-6.652,11.368-12.763c0,0,6.594-58.249,6.594-58.249    C461.255,277.552,455.63,270.303,447.674,269.197z M411.958,74.533c-0.383,0.024-0.762,0.062-1.136,0.115    C411.426,74.555,411.807,74.543,411.958,74.533z"/>
	</g>
	<g>
		<g>
			<path style="fill:#622598;" d="M295.073,154.674l0.723-14.625l-0.045-0.809c-0.012-0.23,0.015-0.463,0.079-0.695     c0.064-0.235,0.069-0.891,0.01-1.97c-0.052-1-0.092-1.732-0.116-2.193c-0.025-0.463-0.069-0.921-0.134-1.383     c-0.064-0.46-0.228-1.01-0.492-1.651c-0.267-0.641-0.648-1.646-1.146-3.007c-0.497-1.364-1.198-3.237-2.094-5.618     c-0.901-2.383-2.034-5.543-3.403-9.485c-0.25-0.371-0.559-1.069-0.923-2.091c-0.364-1.022-0.789-2.136-1.277-3.346     c-0.492-1.208-1.017-2.378-1.579-3.504c-0.562-1.128-1.131-2.024-1.705-2.69c-0.111-0.609-0.072-0.958,0.116-1.044     c0.188-0.087,0.203-0.205,0.04-0.351c0.121-0.624,0.401-1.121,0.846-1.492c0.443-0.371,0.814-0.641,1.114-0.814     c0.228-0.087,0.453-0.178,0.681-0.265c0.228-0.089,0.455-0.141,0.685-0.153c0.077-0.002,0.366-0.017,0.866-0.045     c0.5-0.027,1.077-0.059,1.732-0.094c0.653-0.035,1.287-0.069,1.906-0.101c0.614-0.032,1.076-0.057,1.383-0.074     c1.156-0.062,2.252,0.265,3.294,0.98c1.039,0.718,2.019,1.67,2.932,2.853c0.911,1.185,1.732,2.475,2.462,3.863     c0.73,1.388,1.381,2.722,1.953,4.002c0.569,1.284,1.054,2.396,1.45,3.341c0.401,0.943,0.681,1.566,0.854,1.861     c0.173,0.379,0.302,0.624,0.386,0.735c0.082,0.109,0.252,0.354,0.5,0.725c0.782-1.274,1.737-2.89,2.868-4.843     c1.128-1.95,2.522-4.051,4.177-6.301c0.297-0.171,0.572-0.495,0.817-0.97c0.242-0.475,0.562-1.052,0.948-1.73     c0.389-0.673,0.908-1.435,1.557-2.279c0.651-0.846,1.566-1.727,2.754-2.64l1.27-0.067c0.153-0.01,0.557-0.03,1.21-0.067     c0.653-0.035,1.406-0.074,2.252-0.119c0.846-0.047,1.693-0.092,2.539-0.136c0.846-0.045,1.576-0.084,2.193-0.119     c0.156-0.007,0.391,0.097,0.713,0.312c0.319,0.215,0.624,0.485,0.911,0.819c0.287,0.332,0.537,0.666,0.747,1.002     c0.21,0.334,0.324,0.616,0.337,0.849c0.017,0.307-0.431,1.354-1.336,3.138c-0.908,1.787-1.977,3.811-3.205,6.078     c-1.23,2.264-2.477,4.551-3.744,6.857c-1.265,2.306-2.205,4.167-2.826,5.59c-0.695,1.428-1.522,2.935-2.477,4.531     s-1.913,3.192-2.868,4.784c-0.958,1.599-1.779,3.202-2.462,4.821c-0.685,1.621-1.101,3.202-1.252,4.754l0.515,31.228     c-0.064,0.235-0.252,0.634-0.572,1.19s-0.713,1.099-1.188,1.628c-0.473,0.522-0.948,1.012-1.425,1.463     c-0.478,0.453-0.948,0.688-1.408,0.713c-0.077,0.005-0.579,0.015-1.505,0.025c-0.923,0.01-1.93,0.005-3.009-0.012     c-1.084-0.02-2.106-0.042-3.071-0.069c-0.968-0.022-1.49-0.037-1.566-0.032c-0.802-0.574-1.5-1.346-2.091-2.319     c-0.418-0.594-0.767-0.98-1.047-1.161c-0.28-0.176-0.391-0.46-0.334-0.846L295.073,154.674z"/>
			<path style="fill:#622598;" d="M323.225,170.18c-0.025-0.458,0.064-1.641,0.275-3.541c0.203-1.903,0.488-4.175,0.849-6.82     c0.359-2.64,0.765-5.519,1.215-8.629c0.45-3.113,0.888-6.145,1.307-9.099c0.421-2.955,0.814-5.677,1.183-8.169     c0.369-2.487,0.671-4.435,0.906-5.833c0.181-0.938,0.334-2.373,0.463-4.308c0.129-1.935,0.319-4.091,0.582-6.456     c0.257-2.366,0.569-4.813,0.935-7.345c0.369-2.527,0.859-4.828,1.482-6.909c0.621-2.076,1.359-3.796,2.215-5.152     c0.851-1.359,1.893-2.071,3.126-2.136c1.077-0.059,2.848-0.111,5.318-0.168c2.465-0.054,5.014,0.002,7.649,0.171l0.134,0.337     c0.495,0.591,0.866,1.057,1.114,1.391c0.25,0.332,0.423,0.651,0.515,0.955c0.094,0.304,0.166,0.569,0.218,0.799     c0.049,0.225,0.161,0.492,0.332,0.792c1.683,2.611,2.782,4.769,3.299,6.479c0.515,1.708,0.95,2.977,1.304,3.806     c1.371,4.019,2.423,7.09,3.155,9.211c0.728,2.121,1.277,3.675,1.638,4.657c0.369,1.136,0.631,1.742,0.792,1.809     c0.186,0.609,0.354,1.218,0.502,1.826c0.148,0.609,0.351,1.178,0.611,1.703c-0.007-0.153,0.012-0.134,0.062,0.057     c0.047,0.191,0.072,0.245,0.067,0.171l10.015,31.411c-0.067,0.158,0.03,0.559,0.299,1.2c0.265,0.641,0.552,1.321,0.859,2.034     c0.309,0.723,0.599,1.435,0.869,2.155c0.27,0.72,0.413,1.232,0.431,1.539c0.057,1.079-0.171,1.903-0.678,2.467     c-0.512,0.569-1.126,0.97-1.849,1.198c-0.72,0.233-1.448,0.351-2.178,0.351c-0.737,0-1.294,0.01-1.678,0.03     c-1.232,0.067-2.527,0.079-3.875,0.035c-1.356-0.045-2.532-0.809-3.539-2.301c-0.75-1.039-1.334-2.183-1.747-3.437     c-0.413-1.25-0.869-2.477-1.356-3.687c-0.487-1.21-1.052-2.336-1.685-3.38c-0.636-1.049-1.549-1.925-2.747-2.633     c-0.153,0.007-0.309-0.025-0.468-0.092c-0.158-0.069-0.621-0.101-1.393-0.099s-1.985,0.049-3.638,0.136     c-1.658,0.089-4.016,0.329-7.083,0.728c-0.23,0.012-0.502-0.032-0.817-0.129c-0.314-0.101-0.515-0.225-0.599-0.374     c-0.535,1.571-0.883,3.309-1.052,5.209c-0.171,1.901-0.361,3.702-0.579,5.41l-0.101,0.238l0.03,0.579     c0.121,2.232-0.396,3.804-1.542,4.712c-1.148,0.913-2.799,1.425-4.952,1.539l-3.811,0.205c-0.307,0.015-0.794-0.074-1.46-0.27     c-0.668-0.198-1.359-0.468-2.069-0.817c-0.715-0.344-1.359-0.812-1.928-1.401C323.576,171.747,323.269,171.029,323.225,170.18z      M343.418,143.058c-0.151,0.082,0.062,0.072,0.636-0.035s1.24-0.22,2.007-0.339c0.765-0.119,1.51-0.235,2.237-0.351     c0.728-0.116,1.208-0.181,1.438-0.193l3.348-0.181c0.46-0.025,0.76-0.193,0.898-0.512l-0.057-1.037     c-0.037-0.695-0.423-2.138-1.158-4.338c-0.735-2.195-1.557-4.563-2.462-7.105c-0.911-2.534-1.769-4.92-2.584-7.149     c-0.814-2.235-1.282-3.771-1.406-4.615c-0.364,1.794-0.621,3.16-0.765,4.093c-0.144,0.93-0.257,1.633-0.349,2.101     c-0.092,0.468-0.134,0.76-0.129,0.876c0.007,0.114,0.015,0.25,0.022,0.403c-0.161,1.321-0.512,3.036-1.054,5.15     c-0.544,2.113-0.992,4.165-1.351,6.152c-0.354,1.985-0.537,3.672-0.539,5.063C342.149,142.429,342.572,143.102,343.418,143.058z"/>
			<path style="fill:#622598;" d="M376.567,150.309l0.72-14.623l-0.042-0.809c-0.012-0.23,0.012-0.463,0.077-0.698     c0.064-0.233,0.069-0.888,0.012-1.967c-0.054-1-0.094-1.732-0.119-2.193c-0.025-0.463-0.069-0.923-0.129-1.383     c-0.069-0.46-0.23-1.01-0.495-1.651c-0.265-0.641-0.648-1.646-1.146-3.007c-0.5-1.366-1.198-3.237-2.096-5.618     c-0.898-2.386-2.032-5.546-3.403-9.488c-0.247-0.369-0.559-1.067-0.921-2.089c-0.364-1.025-0.792-2.138-1.279-3.348     c-0.49-1.205-1.015-2.376-1.576-3.504c-0.562-1.128-1.131-2.024-1.708-2.688c-0.109-0.609-0.072-0.958,0.119-1.047     c0.188-0.087,0.2-0.203,0.04-0.349c0.119-0.624,0.403-1.121,0.844-1.492c0.445-0.371,0.817-0.641,1.116-0.814     c0.228-0.087,0.453-0.178,0.681-0.265c0.225-0.089,0.455-0.141,0.685-0.153c0.077-0.005,0.366-0.02,0.866-0.047     c0.5-0.025,1.076-0.057,1.732-0.092c0.651-0.035,1.287-0.069,1.903-0.101c0.616-0.035,1.079-0.059,1.386-0.074     c1.153-0.062,2.252,0.265,3.294,0.98s2.017,1.668,2.93,2.853c0.913,1.185,1.735,2.472,2.465,3.861     c0.73,1.391,1.381,2.725,1.95,4.004c0.572,1.284,1.057,2.396,1.455,3.338c0.396,0.945,0.678,1.566,0.849,1.863     c0.176,0.379,0.304,0.621,0.389,0.735c0.082,0.109,0.25,0.354,0.5,0.725c0.782-1.277,1.737-2.89,2.868-4.843     c1.128-1.953,2.519-4.051,4.177-6.301c0.297-0.171,0.572-0.495,0.817-0.97c0.243-0.475,0.559-1.052,0.948-1.732     c0.389-0.673,0.906-1.435,1.557-2.279c0.648-0.846,1.566-1.727,2.752-2.638l1.272-0.069c0.153-0.007,0.554-0.03,1.21-0.064     c0.653-0.035,1.403-0.074,2.252-0.121c0.844-0.045,1.693-0.089,2.539-0.136c0.846-0.045,1.576-0.084,2.193-0.116     c0.153-0.007,0.393,0.097,0.71,0.312c0.322,0.213,0.624,0.485,0.913,0.817c0.29,0.332,0.537,0.666,0.75,1.002     c0.205,0.334,0.322,0.619,0.334,0.851c0.015,0.307-0.431,1.354-1.336,3.138c-0.908,1.784-1.977,3.811-3.207,6.078     c-1.227,2.264-2.475,4.548-3.739,6.855c-1.27,2.306-2.21,4.17-2.829,5.593c-0.695,1.425-1.522,2.935-2.477,4.529     c-0.958,1.599-1.913,3.192-2.868,4.786c-0.96,1.596-1.779,3.202-2.465,4.821c-0.685,1.618-1.101,3.202-1.25,4.754l0.517,31.228     c-0.067,0.235-0.257,0.631-0.574,1.19c-0.317,0.554-0.713,1.096-1.188,1.626c-0.473,0.525-0.948,1.015-1.425,1.465     c-0.478,0.453-0.945,0.688-1.408,0.713c-0.079,0.005-0.579,0.012-1.507,0.022c-0.923,0.01-1.925,0.007-3.007-0.012     c-1.084-0.017-2.108-0.04-3.074-0.067c-0.968-0.025-1.487-0.037-1.562-0.035c-0.804-0.572-1.502-1.344-2.094-2.316     c-0.421-0.594-0.767-0.982-1.047-1.161c-0.28-0.176-0.391-0.46-0.334-0.849L376.567,150.309z"/>
			<path style="fill:#622598;" d="M423.435,145.718c-0.926,0.049-1.641-0.01-2.153-0.176c-0.512-0.163-0.987-0.408-1.428-0.735     c-0.443-0.324-0.963-0.737-1.571-1.247c-0.604-0.505-1.544-1.074-2.811-1.7l-1.21-22.624c-0.191-3.539-0.243-6.276-0.153-8.211     c0.092-1.933,0.181-3.499,0.272-4.702c0.089-1.203,0.089-2.264,0.005-3.185c-0.089-0.921-0.332-2.143-0.72-3.667     c-0.319-0.21-0.492-0.549-0.517-1.012c-0.005-0.077-0.015-0.596-0.027-1.562c-0.012-0.963-0.047-1.982-0.106-3.061     c-0.057-1.076-0.092-2.081-0.101-3.004c-0.012-0.926-0.02-1.428-0.022-1.505c0.077-0.005,0.535-0.089,1.373-0.25     c0.844-0.156,1.737-0.302,2.7-0.431c0.955-0.126,1.856-0.252,2.7-0.376c0.841-0.121,1.302-0.186,1.378-0.188     c0.072-0.082,0.337-0.233,0.787-0.45c0.45-0.215,0.921-0.433,1.411-0.653c0.49-0.218,0.965-0.398,1.418-0.537     c0.458-0.141,0.799-0.218,1.032-0.23c0.307-0.015,0.782,0.247,1.43,0.789c0.648,0.544,1.299,1.208,1.957,1.98     c0.661,0.777,1.279,1.554,1.863,2.334c0.582,0.777,0.921,1.398,1.025,1.854l1.203,46.24c0.097,0.384-0.01,0.888-0.327,1.522     c-0.309,0.636-0.723,1.252-1.23,1.861c-0.51,0.606-1.054,1.175-1.643,1.708c-0.591,0.537-1.074,0.854-1.455,0.948     c-0.609,0.186-1.218,0.314-1.831,0.386c-0.616,0.072-1.153,0.082-1.618,0.03C424.44,145.817,423.9,145.77,423.435,145.718z      M416.815,164.825c-0.012-0.23-0.151-0.688-0.418-1.369c-0.267-0.678-0.411-1.173-0.426-1.48     c-0.032-0.614,0.054-1.143,0.262-1.579c0.208-0.433,0.453-0.871,0.74-1.312c0.282-0.44,0.589-0.901,0.911-1.381     c0.319-0.48,0.577-1.111,0.765-1.891l0.923-0.049c0.161,0.144,0.304,0.252,0.423,0.324c0.119,0.069,0.22,0.141,0.299,0.215     c0.512-0.567,0.935-0.938,1.274-1.111c0.339-0.173,0.797-0.257,1.376-0.247c0.579,0.007,1.411,0.04,2.492,0.097     c1.084,0.059,2.589,0.037,4.511-0.067c0.846-0.045,1.557,0.208,2.126,0.752c0.567,0.549,1.032,1.24,1.386,2.069     c0.349,0.834,0.609,1.685,0.772,2.566c0.161,0.876,0.26,1.586,0.287,2.123l0.28,5.194c-1.26,0.992-2.126,1.794-2.593,2.398     c-0.47,0.604-1.208,0.933-2.205,0.985c-0.156,0.01-0.332-0.022-0.525-0.087c-0.198-0.067-0.376-0.136-0.53-0.203     c-0.079,0.005-0.346,0.035-0.807,0.099c-0.46,0.062-0.96,0.129-1.495,0.198c-0.539,0.064-1.037,0.131-1.495,0.195     c-0.46,0.062-0.73,0.097-0.807,0.101c-0.307,0.015-0.663-0.158-1.067-0.525c-0.148,0.163-0.26,0.265-0.332,0.309     c-0.077,0.04-0.148,0.141-0.218,0.302c-0.161-0.148-0.243-0.24-0.245-0.277c-0.002-0.04-0.084-0.134-0.245-0.277l-0.46,0.025     c-0.148,0.161-0.22,0.282-0.215,0.361c0.005,0.074-0.106,0.119-0.339,0.131c-0.883-0.646-1.586-1.171-2.111-1.564     c-0.525-0.396-1.005-0.775-1.45-1.141c-0.443-0.359-0.668-0.577-0.673-0.656L416.815,164.825z"/>
		</g>
		<g>
			<path style="fill:#FCB517;" d="M212.621,59.631l2.799-10.993l0.092-0.621c0.025-0.176,0.079-0.349,0.163-0.517     c0.084-0.171,0.191-0.666,0.312-1.492c0.114-0.77,0.196-1.331,0.247-1.685c0.052-0.354,0.089-0.71,0.114-1.069     c0.02-0.359-0.017-0.802-0.124-1.331c-0.101-0.527-0.238-1.349-0.403-2.457c-0.171-1.111-0.413-2.643-0.728-4.588     c-0.319-1.948-0.69-4.524-1.128-7.726c-0.131-0.319-0.257-0.898-0.376-1.73c-0.119-0.834-0.275-1.745-0.455-2.739     c-0.188-0.992-0.406-1.96-0.661-2.9c-0.255-0.943-0.547-1.712-0.881-2.304c0.01-0.48,0.094-0.74,0.247-0.777     c0.156-0.037,0.183-0.124,0.084-0.26c0.186-0.455,0.478-0.789,0.874-1.002c0.393-0.215,0.715-0.361,0.97-0.445     c0.186-0.032,0.371-0.064,0.559-0.099c0.183-0.032,0.366-0.037,0.542-0.01c0.059,0.007,0.28,0.04,0.663,0.097     c0.386,0.057,0.829,0.121,1.331,0.196c0.5,0.074,0.987,0.146,1.46,0.215c0.473,0.069,0.829,0.124,1.067,0.158     c0.886,0.131,1.668,0.547,2.348,1.25c0.678,0.705,1.277,1.576,1.784,2.618c0.515,1.042,0.938,2.143,1.279,3.311     c0.342,1.168,0.631,2.282,0.866,3.341c0.235,1.062,0.431,1.98,0.589,2.757c0.158,0.78,0.277,1.294,0.359,1.547     c0.077,0.314,0.134,0.517,0.183,0.616c0.047,0.097,0.134,0.307,0.272,0.629c0.787-0.849,1.757-1.928,2.918-3.237     c1.158-1.309,2.539-2.688,4.14-4.143c0.252-0.084,0.51-0.287,0.77-0.611c0.26-0.322,0.587-0.713,0.987-1.166     c0.396-0.455,0.908-0.953,1.532-1.495c0.624-0.542,1.455-1.067,2.497-1.579l0.975,0.144c0.119,0.017,0.426,0.062,0.93,0.136     c0.5,0.074,1.074,0.158,1.727,0.255c0.648,0.097,1.299,0.193,1.948,0.287c0.651,0.097,1.213,0.178,1.685,0.247     c0.116,0.017,0.28,0.134,0.49,0.346c0.208,0.21,0.398,0.465,0.567,0.762c0.171,0.297,0.307,0.589,0.416,0.876     c0.109,0.287,0.148,0.52,0.121,0.698c-0.035,0.235-0.532,0.96-1.495,2.178c-0.965,1.215-2.086,2.589-3.371,4.12     c-1.279,1.532-2.581,3.074-3.895,4.63c-1.317,1.557-2.319,2.826-3.007,3.811c-0.745,0.978-1.606,1.997-2.576,3.059     c-0.973,1.067-1.945,2.131-2.913,3.192c-0.975,1.064-1.846,2.16-2.613,3.281c-0.77,1.124-1.329,2.264-1.68,3.42l-4.41,23.792     c-0.087,0.166-0.292,0.438-0.619,0.812c-0.327,0.376-0.713,0.725-1.151,1.054c-0.441,0.327-0.879,0.624-1.309,0.891     c-0.433,0.272-0.824,0.379-1.178,0.327c-0.059-0.01-0.441-0.079-1.146-0.213c-0.705-0.136-1.467-0.294-2.284-0.475     c-0.819-0.181-1.594-0.354-2.321-0.522c-0.73-0.166-1.126-0.257-1.183-0.265c-0.522-0.559-0.935-1.252-1.232-2.084     c-0.228-0.515-0.433-0.861-0.619-1.042c-0.186-0.176-0.223-0.408-0.121-0.695L212.621,59.631z"/>
			<path style="fill:#FCB517;" d="M231.609,75.736c0.054-0.354,0.304-1.237,0.755-2.65c0.45-1.411,1.015-3.093,1.695-5.046     c0.681-1.95,1.428-4.073,2.252-6.367c0.817-2.292,1.616-4.529,2.391-6.706c0.775-2.18,1.492-4.187,2.153-6.018     c0.663-1.836,1.193-3.267,1.584-4.294c0.282-0.683,0.619-1.75,1.015-3.2s0.874-3.056,1.433-4.813s1.175-3.569,1.841-5.432     c0.668-1.863,1.393-3.536,2.19-5.019c0.789-1.482,1.616-2.673,2.47-3.573c0.859-0.898,1.76-1.279,2.705-1.141     c0.827,0.121,2.18,0.354,4.061,0.69c1.883,0.337,3.809,0.772,5.781,1.304l0.052,0.28c0.282,0.525,0.495,0.933,0.631,1.222     c0.144,0.294,0.223,0.562,0.247,0.807c0.022,0.245,0.035,0.458,0.04,0.638c0.003,0.183,0.047,0.401,0.131,0.653     c0.874,2.242,1.378,4.051,1.51,5.429c0.126,1.376,0.262,2.405,0.403,3.091c0.423,3.262,0.75,5.754,0.98,7.476     c0.23,1.725,0.403,2.989,0.527,3.789c0.104,0.923,0.213,1.423,0.324,1.497c0.047,0.49,0.082,0.98,0.101,1.463     c0.017,0.488,0.087,0.95,0.203,1.388c0.017-0.116,0.027-0.101,0.037,0.052c0.01,0.151,0.017,0.198,0.025,0.139l2.774,25.393     c-0.077,0.111-0.062,0.428,0.042,0.955c0.101,0.53,0.213,1.089,0.339,1.68c0.126,0.591,0.235,1.18,0.329,1.769     c0.094,0.589,0.126,1,0.092,1.235c-0.124,0.829-0.423,1.416-0.898,1.769c-0.475,0.351-1.005,0.562-1.584,0.626     c-0.584,0.064-1.153,0.042-1.71-0.072c-0.557-0.111-0.982-0.191-1.277-0.235c-0.945-0.139-1.93-0.327-2.947-0.569     c-1.025-0.24-1.799-1.002-2.336-2.289c-0.411-0.906-0.676-1.866-0.797-2.878c-0.121-1.015-0.277-2.017-0.46-3.009     c-0.186-0.992-0.443-1.935-0.762-2.829c-0.322-0.891-0.881-1.698-1.68-2.42c-0.121-0.017-0.233-0.064-0.342-0.141     c-0.109-0.074-0.455-0.171-1.042-0.29c-0.587-0.116-1.515-0.267-2.786-0.455c-1.27-0.186-3.098-0.366-5.486-0.537     c-0.178-0.025-0.379-0.101-0.601-0.225c-0.22-0.124-0.356-0.247-0.396-0.376c-0.648,1.114-1.183,2.378-1.601,3.794     c-0.421,1.418-0.844,2.757-1.27,4.021l-0.116,0.166l-0.064,0.443c-0.252,1.715-0.888,2.826-1.896,3.341     c-1.015,0.515-2.344,0.651-3.999,0.406l-2.923-0.431c-0.235-0.035-0.591-0.176-1.069-0.428c-0.475-0.252-0.958-0.562-1.443-0.938     c-0.492-0.374-0.908-0.827-1.25-1.361C231.639,76.979,231.515,76.387,231.609,75.736z M251.115,58.243     c-0.124,0.042,0.04,0.067,0.49,0.072c0.45,0.007,0.975,0.025,1.576,0.052c0.601,0.03,1.183,0.054,1.755,0.077     c0.567,0.025,0.943,0.049,1.121,0.074l2.569,0.379c0.354,0.052,0.606-0.03,0.762-0.25l0.116-0.797     c0.079-0.532,0.007-1.688-0.213-3.47c-0.22-1.784-0.48-3.707-0.777-5.773c-0.302-2.066-0.589-4.009-0.864-5.83     c-0.275-1.819-0.393-3.059-0.356-3.717c-0.554,1.307-0.958,2.301-1.21,2.989c-0.252,0.688-0.45,1.2-0.589,1.542     c-0.141,0.342-0.218,0.557-0.23,0.643c-0.015,0.089-0.03,0.193-0.047,0.312c-0.327,0.98-0.856,2.225-1.591,3.749     c-0.74,1.519-1.393,3.007-1.972,4.462c-0.577,1.453-0.973,2.707-1.188,3.762C250.249,57.572,250.467,58.146,251.115,58.243z"/>
			<path style="fill:#FCB517;" d="M275.171,68.847l2.799-10.99l0.092-0.621c0.025-0.178,0.079-0.351,0.163-0.52     c0.084-0.168,0.191-0.666,0.312-1.492c0.114-0.767,0.195-1.329,0.247-1.683c0.052-0.356,0.089-0.71,0.114-1.072     c0.02-0.356-0.017-0.802-0.121-1.329c-0.104-0.53-0.24-1.349-0.406-2.46c-0.171-1.111-0.413-2.64-0.728-4.588     c-0.319-1.948-0.69-4.521-1.126-7.724c-0.134-0.322-0.26-0.898-0.379-1.73c-0.119-0.834-0.275-1.745-0.455-2.739     c-0.188-0.992-0.406-1.96-0.658-2.903c-0.257-0.943-0.549-1.71-0.883-2.301c0.01-0.483,0.094-0.742,0.247-0.78     c0.158-0.037,0.183-0.124,0.084-0.26c0.186-0.453,0.478-0.789,0.874-1c0.393-0.215,0.715-0.364,0.97-0.448     c0.186-0.032,0.371-0.064,0.559-0.099c0.183-0.03,0.366-0.035,0.542-0.01c0.059,0.01,0.28,0.042,0.663,0.099     c0.386,0.057,0.829,0.121,1.331,0.196c0.502,0.074,0.987,0.146,1.46,0.215c0.473,0.069,0.829,0.121,1.067,0.156     c0.886,0.131,1.668,0.549,2.348,1.252c0.681,0.705,1.277,1.576,1.787,2.616c0.512,1.042,0.935,2.146,1.277,3.311     c0.341,1.168,0.631,2.282,0.866,3.343c0.238,1.059,0.431,1.98,0.589,2.757c0.158,0.777,0.277,1.294,0.359,1.547     c0.077,0.312,0.136,0.517,0.183,0.616c0.047,0.097,0.136,0.304,0.272,0.626c0.787-0.846,1.757-1.928,2.918-3.234     c1.158-1.309,2.539-2.69,4.14-4.143c0.252-0.084,0.51-0.287,0.77-0.611c0.26-0.324,0.587-0.713,0.987-1.166     c0.396-0.455,0.911-0.955,1.532-1.497c0.624-0.539,1.455-1.067,2.499-1.579l0.973,0.146c0.119,0.017,0.428,0.062,0.93,0.136     c0.5,0.074,1.076,0.158,1.727,0.255c0.648,0.094,1.299,0.191,1.948,0.287c0.651,0.097,1.213,0.178,1.685,0.247     c0.116,0.017,0.28,0.134,0.492,0.344c0.208,0.213,0.398,0.465,0.564,0.762c0.171,0.297,0.307,0.589,0.416,0.876     c0.109,0.29,0.148,0.522,0.121,0.698c-0.035,0.238-0.532,0.963-1.495,2.178c-0.965,1.215-2.086,2.591-3.371,4.12     c-1.279,1.532-2.581,3.076-3.895,4.63c-1.314,1.559-2.319,2.829-3.007,3.813c-0.745,0.975-1.606,1.995-2.576,3.059     c-0.973,1.064-1.945,2.128-2.913,3.192c-0.975,1.064-1.846,2.158-2.613,3.281s-1.329,2.262-1.68,3.418l-4.41,23.792     c-0.087,0.168-0.292,0.44-0.619,0.814c-0.327,0.374-0.71,0.725-1.151,1.052c-0.44,0.329-0.876,0.626-1.309,0.893     c-0.433,0.27-0.822,0.376-1.178,0.324c-0.059-0.007-0.44-0.079-1.146-0.213s-1.465-0.292-2.284-0.473     c-0.819-0.181-1.594-0.356-2.321-0.525c-0.73-0.166-1.126-0.255-1.183-0.265c-0.522-0.559-0.935-1.252-1.232-2.081     c-0.225-0.515-0.431-0.864-0.616-1.042c-0.188-0.178-0.225-0.408-0.124-0.698L275.171,68.847z"/>
			<path style="fill:#FCB517;" d="M303.504,86.058c0.027-0.178-0.012-0.544-0.109-1.101c-0.099-0.557-0.134-0.955-0.099-1.193     c0.069-0.47,0.22-0.856,0.445-1.156c0.223-0.297,0.48-0.594,0.762-0.883c0.282-0.29,0.584-0.594,0.903-0.908     c0.319-0.314,0.609-0.755,0.874-1.319l0.71,0.104c0.101,0.136,0.188,0.24,0.272,0.312c0.077,0.072,0.144,0.144,0.193,0.21     c0.475-0.351,0.856-0.569,1.136-0.648c0.285-0.079,0.643-0.069,1.084,0.025c0.438,0.094,1.062,0.247,1.878,0.458     c0.814,0.21,1.957,0.423,3.435,0.641c0.651,0.097,1.148,0.396,1.497,0.901c0.349,0.502,0.594,1.096,0.733,1.782     s0.205,1.373,0.193,2.064c-0.01,0.693-0.045,1.247-0.104,1.661l-0.589,3.987c-1.111,0.559-1.888,1.034-2.339,1.42     c-0.45,0.386-1.057,0.522-1.826,0.408c-0.116-0.017-0.245-0.064-0.384-0.146s-0.265-0.158-0.371-0.235     c-0.062-0.01-0.27-0.025-0.631-0.047c-0.356-0.022-0.742-0.049-1.163-0.082c-0.418-0.032-0.807-0.059-1.166-0.082     c-0.356-0.022-0.567-0.04-0.626-0.047c-0.235-0.035-0.48-0.22-0.73-0.559c-0.139,0.099-0.238,0.161-0.299,0.181     c-0.064,0.022-0.136,0.087-0.21,0.196c-0.101-0.136-0.151-0.218-0.146-0.247c0.005-0.03-0.042-0.111-0.144-0.247l-0.354-0.052     c-0.136,0.101-0.208,0.181-0.218,0.24c-0.007,0.057-0.099,0.077-0.277,0.049c-0.574-0.626-1.025-1.131-1.361-1.515     c-0.337-0.379-0.646-0.742-0.926-1.086c-0.282-0.342-0.418-0.542-0.408-0.604L303.504,86.058z M311.468,72.569     c-0.708-0.106-1.247-0.26-1.606-0.463c-0.366-0.205-0.688-0.465-0.975-0.78c-0.285-0.312-0.619-0.708-1-1.188     c-0.384-0.478-1.007-1.054-1.876-1.722l2.559-17.367c0.401-2.715,0.784-4.803,1.151-6.258c0.366-1.453,0.673-2.631,0.928-3.529     c0.252-0.898,0.416-1.703,0.49-2.415c0.077-0.713,0.082-1.678,0.02-2.895c-0.21-0.21-0.29-0.495-0.238-0.849     c0.007-0.057,0.082-0.455,0.223-1.19c0.136-0.735,0.27-1.515,0.391-2.341c0.121-0.827,0.247-1.594,0.384-2.297     c0.134-0.705,0.205-1.086,0.215-1.146c0.057,0.007,0.416,0.017,1.079,0.022c0.663,0.007,1.368,0.04,2.116,0.087     c0.747,0.049,1.45,0.094,2.108,0.129c0.658,0.04,1.015,0.062,1.074,0.069c0.069-0.049,0.292-0.124,0.668-0.22     c0.376-0.092,0.767-0.186,1.173-0.277c0.403-0.092,0.789-0.156,1.158-0.193c0.369-0.035,0.638-0.04,0.817-0.012     c0.235,0.035,0.559,0.307,0.968,0.819c0.406,0.512,0.802,1.114,1.183,1.804c0.379,0.688,0.733,1.373,1.054,2.056     c0.319,0.681,0.485,1.203,0.492,1.566l-6.197,35.296c0.015,0.304-0.146,0.671-0.48,1.106c-0.337,0.433-0.742,0.839-1.22,1.222     c-0.478,0.381-0.985,0.73-1.51,1.044c-0.532,0.314-0.95,0.48-1.252,0.495c-0.49,0.049-0.973,0.052-1.45,0.012     c-0.478-0.04-0.888-0.116-1.235-0.23C312.215,72.799,311.814,72.68,311.468,72.569z"/>
		</g>
		<g>
			<g>
				<g>
					<path style="fill:#14B4B8;" d="M74.688,209.039l13.895,225.65c0,0,194.353-8.898,195.229-8.702       c0.875,0.195-9.947-232.357-9.947-232.357L74.688,209.039z"/>
				</g>
			</g>
			<g>
				<g>
					<g>
						<g>
							<path style="fill:#622598;" d="M185.786,185.604c-24.849-26.922-44.051-66.769-32.091-103.626         c5.903-18.19,19.273-10.377,28.379-0.224c8.216,9.161,11.828,22.139,13.246,34.065c2.72,22.872-5.539,45.927-12.665,67.273         c-1.892,5.667,7.032,8.078,8.909,2.456c9.296-27.847,17.804-56.295,10.057-85.559c-4.534-17.124-23.271-46.273-44.697-37.286         c-8.769,3.679-11.907,15.236-14.115,23.512c-3.264,12.233-2.345,25.217-0.132,37.522         c4.598,25.571,19.168,49.539,36.576,68.399C183.302,196.523,189.819,189.974,185.786,185.604L185.786,185.604z"/>
						</g>
					</g>
				</g>
				<g>
					<g>
						<g>
							<path style="fill:#622598;" d="M187.797,185.015c-5.103-26.005-19.013-48.806-39.564-65.497         c-15.931-12.939-40.998-24.564-58.613-8.351c-18.271,16.817-1.612,43.566,13.248,55.051         c23.185,17.918,54.027,25.545,82.914,24.817c5.697-0.143,5.711-8.994,0-8.85c-21.18,0.534-41.454-3.685-60.603-12.773         c-17.423-8.269-46.792-30.189-29.301-51.987c14.755-18.389,46.066,7.253,56.816,18.032         c14.025,14.063,22.778,32.588,26.57,51.911C180.361,192.965,188.89,190.589,187.797,185.015L187.797,185.015z"/>
						</g>
					</g>
				</g>
				<g>
					<g>
						<g>
							<path style="fill:#622598;" d="M187.033,187.545c-2.034-17.797-0.017-34.95,5.913-51.853         c5.897-16.807,23.871-50.097,46.323-40.519c23.607,10.07,5.801,45.669-4.924,58.577         c-11.585,13.944-28.396,22.331-46.105,25.013c-5.628,0.852-3.228,9.379,2.353,8.534         c23.661-3.583,43.545-16.939,57.023-36.533c12.194-17.727,18.089-45.41-0.375-60.918         c-18.291-15.363-39.688,3.955-50.063,18.547c-16.092,22.634-22.115,51.861-18.995,79.152         C178.824,193.147,187.681,193.209,187.033,187.545L187.033,187.545z"/>
						</g>
					</g>
				</g>
			</g>
			<g>
				<g>
					<g>
						<path style="fill:#13A8A8;" d="M273.865,193.63L74.688,209.039l4.768,77.431c65.889-8.88,131.678-18.509,197.35-28.874        C275.154,221.329,273.865,193.63,273.865,193.63z"/>
					</g>
				</g>
			</g>
			<g>
				<g>
					<g>
						<path style="fill:#138990;" d="M150.886,203.144c-24.386,22.424-48.5,45.142-72.366,68.121l1.252,20.324        c31.597-30.613,63.652-60.749,96.168-90.383L150.886,203.144z"/>
					</g>
				</g>
				<g>
					<g>
						<path style="fill:#138990;" d="M237.038,196.479c-52.579,46.878-104.002,95.034-154.23,144.422l1.263,20.513        c57.911-57.303,117.423-112.965,178.476-166.908L237.038,196.479z"/>
					</g>
				</g>
				<g>
					<g>
						<path style="fill:#138990;" d="M276.583,252.709c-0.322-7.05-0.627-13.714-0.909-19.867        c-64.613,57.546-127.487,117.016-188.539,178.336l1.275,20.704C149.341,370.294,212.074,310.523,276.583,252.709z"/>
					</g>
				</g>
				<g>
					<g>
						<path style="fill:#138990;" d="M140.806,432.308c7.341-0.334,15.119-0.687,23.112-1.049        c37.917-37.373,76.487-74.074,115.755-110.02c-0.296-6.67-0.596-13.388-0.896-20.07        C231.836,343.868,185.826,387.582,140.806,432.308z"/>
					</g>
				</g>
			</g>
			<g>
				<g>
					<path style="fill:#FC30C3;" d="M66.347,190.885c0,0,208.692-14.679,211.792-12.475c3.1,2.204,6.956,66.834,6.956,66.834       l-215.76,0.179L66.347,190.885z"/>
				</g>
			</g>
			<g>
				<g>
					<g>
						<g>
							<path style="fill:#FCB517;" d="M77.622,314.959c67.918-1.197,135.769-4.526,203.478-9.984c5.648-0.456,5.692-9.309,0-8.85         c-67.709,5.458-135.559,8.788-203.478,9.985C71.921,306.209,71.911,315.059,77.622,314.959L77.622,314.959z"/>
						</g>
					</g>
				</g>
				<g>
					<g>
						<g>
							<path style="fill:#FCB517;" d="M173.82,185.389c1.493,81.717,4.409,163.399,8.747,245.015c0.302,5.676,9.153,5.706,8.85,0         c-4.338-81.616-7.254-163.298-8.747-245.015C182.566,179.69,173.716,179.679,173.82,185.389L173.82,185.389z"/>
						</g>
					</g>
				</g>
			</g>
			<g>
				<g>
					<g>
						<polygon style="fill:#622598;" points="207.357,288.403 200.69,332.253 203.193,349.347 196.015,362.994 189.915,403.111         191.86,419.243 185.318,433.343 180.236,466.768 188.506,467.903 206.102,467.096 219.158,472.112 380.082,494.211         401.353,488.851 427.962,353.126 422.615,338.31 433.163,326.597 436.012,312.066       "/>
					</g>
				</g>
				<g>
					<g>
						<g>
							<path style="fill:#582193;" d="M415.976,309.993l-208.619-21.59l-6.46,42.488c75.43,8.331,150.747,17.687,225.923,28.067         l1.143-5.832L415.976,309.993z"/>
						</g>
					</g>
				</g>
				<g>
					<g>
						<path style="fill:#6A34A3;" d="M241.155,306.065c-6.339,5.191-7.108,15.399-2.277,21.751        c4.651,6.115,13.878,8.232,20.684,4.667c6.806-3.565,10.314-12.447,7.687-19.668        C263.708,303.079,249.149,299.518,241.155,306.065z"/>
					</g>
				</g>
				<g>
					<g>
						<path style="fill:#8C3DD3;" d="M240.164,367.919c-6.339,5.191-7.108,15.398-2.276,21.751        c4.651,6.115,13.878,8.232,20.683,4.667c6.806-3.565,10.314-12.447,7.687-19.669        C262.716,364.933,248.157,361.372,240.164,367.919z"/>
					</g>
				</g>
				<g>
					<g>
						<path style="fill:#8C3DD3;" d="M323.444,408.548c6.806-3.566,10.314-12.448,7.687-19.669        c-3.541-9.735-18.1-13.296-26.094-6.749c-6.339,5.191-7.108,15.399-2.276,21.751        C307.411,409.996,316.638,412.113,323.444,408.548z"/>
					</g>
				</g>
				<g>
					<g>
						<path style="fill:#8C3DD3;" d="M365.424,422.427c-6.339,5.191-7.108,15.399-2.276,21.751        c4.651,6.115,13.878,8.232,20.683,4.667c6.806-3.566,10.314-12.448,7.687-19.669        C387.977,419.442,373.418,415.881,365.424,422.427z"/>
					</g>
				</g>
				<g>
					<g>
						<path style="fill:#8C3DD3;" d="M383.256,490.366c-1.318,1.08-2.337,2.411-3.173,3.845l19.69,2.704l1.581-8.063        C395.561,486.149,388.17,486.341,383.256,490.366z"/>
					</g>
				</g>
				<g>
					<g>
						<path style="fill:#8C3DD3;" d="M319.075,346.855c0.939-0.492,1.815-1.085,2.62-1.76c5.036-4.224-5.577-22.341-13.571-15.795        c-6.339,5.191-9.733,12.888-9.733,12.888C303.042,348.303,312.269,350.42,319.075,346.855z"/>
					</g>
				</g>
				<g>
					<g>
						<path style="fill:#8C3DD3;" d="M376.094,377.04c6.806-3.565,10.314-12.447,7.687-19.669c-0.636-1.747-1.626-3.296-2.87-4.622        c0,0-7.654-3.499-12.073-3.863c-3.698-0.305-10.093,0.953-10.093,0.953c-0.364,0.243-0.718,0.504-1.059,0.784        c-6.339,5.191-7.108,15.399-2.277,21.751C360.062,378.488,369.289,380.605,376.094,377.04z"/>
					</g>
				</g>
				<path style="fill:#6A34A3;" d="M380.915,352.761c-5.392-5.76-15.547-7.347-22.179-2.907      C366.13,350.813,373.523,351.782,380.915,352.761z"/>
				<path style="fill:#6A34A3;" d="M300.668,320.437c-6.339,5.191-7.108,15.398-2.277,21.751c0.018,0.024,0.04,0.045,0.058,0.069      c7.733,0.946,15.465,1.9,23.195,2.868c5.068-4.217,7.389-11.695,5.118-17.939C323.22,317.451,308.661,313.89,300.668,320.437z"/>
				<g>
					<g>
						<path style="fill:#6A34A3;" d="M411.504,325.919c-6.339,5.192-7.108,15.399-2.276,21.752        c4.224,5.553,12.204,7.759,18.735,5.456l5.201-26.529C427.201,321.786,417.504,321.005,411.504,325.919z"/>
					</g>
				</g>
				<g>
					<g>
						<path style="fill:#8C3DD3;" d="M211.736,341.632c-1.732-4.76-6.102-8.03-11.046-9.378l-4.674,30.743        c2.774,0.123,5.563-0.402,8.033-1.696C210.854,357.735,214.363,348.853,211.736,341.632z"/>
					</g>
				</g>
				<g>
					<g>
						<path style="fill:#8C3DD3;" d="M199.426,412.016c-1.55-4.262-5.212-7.34-9.51-8.905l-4.597,30.232        c2.23-0.113,4.43-0.615,6.42-1.658C198.545,428.12,202.053,419.238,199.426,412.016z"/>
					</g>
				</g>
				<g>
					<g>
						<path style="fill:#8C3DD3;" d="M240.164,434.746c-6.339,5.191-7.108,15.398-2.276,21.751        c4.651,6.115,13.878,8.232,20.683,4.667c6.806-3.565,10.314-12.447,7.687-19.669        C262.716,431.76,248.157,428.199,240.164,434.746z"/>
					</g>
				</g>
				<g>
					<g>
						<path style="fill:#8C3DD3;" d="M308.921,450.486c-6.339,5.191-7.108,15.399-2.276,21.751        c4.651,6.115,13.878,8.232,20.684,4.667c6.806-3.565,10.314-12.448,7.687-19.669        C331.474,447.5,316.915,443.939,308.921,450.486z"/>
					</g>
				</g>
				<g>
					<g>
						<path style="fill:#8C3DD3;" d="M192.393,462.744c-1.716,1.406-2.988,3.194-3.887,5.159l30.654,4.209        c-0.143-0.888-0.361-1.766-0.672-2.619C214.946,459.759,200.387,456.197,192.393,462.744z"/>
					</g>
				</g>
				<g>
					<g>
						<polygon style="fill:#FC30C3;" points="193.773,304.075 207.357,250.727 445.633,283.869 439.038,342.118       "/>
					</g>
				</g>
				<g>
					<g>
						<g>
							<g>
								<path style="fill:#FCB517;" d="M334.663,269.073c3.103-22.346-1.567-43.884-13.838-62.861          c-9.922-15.344-27.342-30.587-46.235-21.638c-18.195,8.618-7.411,36.739-0.599,48.796          c10.66,18.868,32.699,34.481,53.684,39.129c5.561,1.232,7.924-7.3,2.353-8.534c-15.532-3.44-29.259-12.965-40.251-24.219          c-9.165-9.383-25.411-36.37-10.719-47.53c15.286-11.611,34.2,17.555,39.681,27.956c7.429,14.098,9.563,30.907,7.391,46.548          C325.354,272.299,333.881,274.705,334.663,269.073L334.663,269.073z"/>
							</g>
						</g>
					</g>
					<g>
						<g>
							<g>
								<path style="fill:#FCB517;" d="M336.385,267.403c9.213-26.795,34.049-54.917,63.99-57.522          c4.645-0.222,8.708,1.267,12.187,4.468c8.016,6.832-1.127,17.818-5.296,22.536c-5.489,6.212-12.709,10.59-19.987,14.364          c-16.796,8.709-36.778,10.676-55.243,12.852c-5.597,0.66-5.661,9.517,0,8.85c24.214-2.854,48.416-6.221,69.341-19.619          c14.803-9.478,30.65-28.457,17.444-45.241c-13.172-16.741-41.284-1.529-54.108,7.2          c-17.508,11.918-30.033,29.904-36.86,49.759C325.99,270.463,334.54,272.767,336.385,267.403L336.385,267.403z"/>
							</g>
						</g>
					</g>
					<g>
						<g>
							<g>
								<path style="fill:#FCB517;" d="M325.543,265.629c-8.134,5.983-17.515,5.384-27.101,5.065          c-10.128-0.337-19.913,0.497-29.605,3.516c-13.352,4.159-24.009,15.652-25.951,29.53c-0.781,5.579,7.746,7.985,8.534,2.353          c5.689-40.646,55.739-16.013,78.59-32.821C334.554,269.928,330.148,262.242,325.543,265.629L325.543,265.629z"/>
							</g>
						</g>
					</g>
					<g>
						<g>
							<g>
								<path style="fill:#FCB517;" d="M329.164,277.26c16.498-2.55,22.064,19.156,27.625,30.303          c4.3,8.618,11.502,15.562,20.964,17.823c5.548,1.326,7.902-7.208,2.353-8.534c-15.142-3.618-18.483-21.749-25.185-33.546          c-5.869-10.332-16.35-16.397-28.11-14.579C321.185,269.595,323.582,278.122,329.164,277.26L329.164,277.26z"/>
							</g>
						</g>
					</g>
					<g>
						<g>
							<g>
								<path style="fill:#FCB517;" d="M191.263,375.887c75.464,13.29,150.928,26.581,226.392,39.871          c5.58,0.982,7.966-7.545,2.353-8.534c-75.464-13.29-150.928-26.581-226.393-39.871          C188.036,366.371,185.649,374.898,191.263,375.887L191.263,375.887z"/>
							</g>
						</g>
					</g>
					<g>
						<g>
							<g>
								<path style="fill:#FCB517;" d="M323.297,268.06c-12.974,71.487-25.948,142.975-38.923,214.462          c-1.013,5.579,7.516,7.962,8.534,2.353c12.974-71.488,25.949-142.975,38.923-214.462          C332.843,264.834,324.315,262.45,323.297,268.06L323.297,268.06z"/>
							</g>
						</g>
					</g>
				</g>
			</g>
		</g>
	</g>
</g>















</svg>
