<?xml version="1.0" encoding="UTF-8"?>
<!-- Generator: Adobe Illustrator 25.2.1, SVG Export Plug-In . SVG Version: 6.00 Build 0)  -->
<svg xmlns="http://www.w3.org/2000/svg" xmlns:xlink="http://www.w3.org/1999/xlink" version="1.1" id="Capa_1" x="0px" y="0px" viewBox="0 0 512 512" style="enable-background:new 0 0 512 512;" xml:space="preserve" width="512" height="512">
<g>
	<path style="fill:#FFFFFF;" d="M415.9,272.956c-21.081-34.784-62.016-59.564-112.314-67.989c-0.663-0.111-1.335-0.22-2.022-0.328   L204.953,80.588c1.507-0.985,3.075-1.983,4.71-2.98c5.075-3.174,10.002-5.841,14.349-8.194   c10.949-5.925,23.355-12.641,19.694-27.301c-0.027-0.107-0.054-0.213-0.084-0.32c-1.811-6.713-8.055-13.885-20.146-13.885   c-3.028,0-6.482,0.414-10.234,1.227c-1.319,0.283-2.655,0.614-4.006,0.992c0.025-1.168,0.023-2.314-0.007-3.437   c-0.565-22.54-12.222-26.388-19.122-26.675c-0.098-0.003-0.197-0.007-0.298-0.009C189.667,0.002,189.508,0,189.365,0   c-9.782,0-14.751,5.659-18.023,13.587c-4.682-6.186-11.133-12.702-20.277-12.702c-3.398,0-6.709,0.941-9.578,2.721   c-0.082,0.052-0.166,0.103-0.247,0.157c-5.529,3.562-11.201,10.835-6.807,25.255c0.052,0.167,0.104,0.336,0.157,0.507   c-2.726-0.487-5.388-0.779-7.939-0.861c-0.785-0.032-1.546-0.048-2.279-0.048c-9.632,0-16.852,2.473-21.457,7.349   c-3.448,3.652-5.218,8.365-5.002,13.294c0.49,11.775,9.993,16.055,16.296,18.126c-1.625,0.928-3.182,1.905-4.657,2.925   c-20.754,14.267-14.022,27.848-11.339,31.854c3.486,5.073,9.16,7.981,15.565,7.981c4.514,0,8.579-1.353,14.73-3.4   c5.095-1.697,11.439-3.808,18.412-5.191c0.086-0.017,0.17-0.034,0.256-0.053c1.089-0.233,2.172-0.444,3.243-0.636l-20.826,140.437   c-19.399,14.359-33.739,31.612-42.683,51.369c-17.74,39.176-18.743,87.481-2.687,129.213   c25.561,66.436,99.407,90.111,159.993,90.115c0.004,0,0.007,0,0.011,0c10.592,0,21.146-0.691,31.367-2.055   c31.775-4.24,65.475-10.035,97.478-29.837c31.276-19.351,52.913-47.472,60.929-79.184   C444.957,357.571,438.191,309.732,415.9,272.956z"/>
	<g>
		<g>
			<polygon style="fill:#24BED0;" points="172.937,67.846 167.353,105.5 175.47,112.908 165.117,120.574 159.722,156.952      165.709,164.911 157.46,172.2 151.785,210.463 155.812,217.838 149.541,225.593 144.145,261.977 297.541,227.845      286.827,214.087 272.983,208.145 278.528,203.431 258.601,177.843 247.038,172.2 250.262,167.136 230.458,141.706      220.921,136.035 222.101,130.975 202.4,105.678 191.102,100.375 194.043,94.947    "/>
		</g>
		<g>
			<g>
				<path style="fill:#FEE600;" d="M165.117,120.574c6.205-2.71,12.543-5.364,18.999-7.948c6.136-2.437,12.234-4.745,18.284-6.948      l-8.357-10.731c-4.889,1.787-9.798,3.63-14.737,5.592c-4.039,1.616-8.013,3.278-11.953,4.961L165.117,120.574z"/>
			</g>
			<g>
				<path style="fill:#FEE600;" d="M157.46,172.2c14.313-7.057,29.577-13.888,45.571-20.289c9.243-3.672,18.402-7.057,27.427-10.205      l-8.358-10.732c-7.884,2.734-15.849,5.66-23.88,8.849c-13.409,5.365-26.286,11.119-38.499,17.128L157.46,172.2z"/>
			</g>
			<g>
				<path style="fill:#FEE600;" d="M250.262,167.136c-10.87,3.571-21.94,7.53-33.127,11.973      c-23.698,9.482-45.733,20.175-65.35,31.354l-2.244,15.13c0.463-0.257,0.906-0.517,1.373-0.774      c21.116-11.761,45.125-23.254,71.032-33.622c12.411-4.93,24.674-9.353,36.654-13.353L250.262,167.136z"/>
			</g>
			<g>
				<path style="fill:#FEE600;" d="M278.528,203.431c-13.836,4.299-28.064,9.238-42.478,14.963      c-26.483,10.597-50.914,22.701-72.184,35.311c-3.447,2.02-6.774,4.066-10.045,6.118l42.135-9.375      c14.123-6.942,29.156-13.663,44.906-19.966c15.648-6.216,31.064-11.635,45.965-16.395L278.528,203.431z"/>
			</g>
		</g>
		<g>
			<path style="fill:#F6A3BF;" d="M400.993,281.99c-20.817-34.348-60.67-53.196-100.282-59.831     c-17.619-2.951-35.432-3.731-53.094-2.52c-17.68,0.908-35.272,3.808-52.413,8.843c-38.536,11.318-75.852,34.791-92.419,71.38     c-16.306,36.012-16.424,79.042-2.296,115.765c25.635,66.632,109.212,85.524,172.795,77.041     c32.137-4.288,62.524-10.002,90.613-27.382c25.461-15.754,45.76-39.198,53.2-68.632     C426.739,358.505,421.483,315.797,400.993,281.99z"/>
		</g>
		<g>
			<path style="fill:#FFE1E1;" d="M392.029,324.856c-8.737-26.573-31.349-48.223-58.537-56.798     c-3.965-1.251-8.017-2.224-12.116-2.925c-6.034-1.032-12.166-1.474-18.285-1.352c-6.131,0.123-12.25,0.812-18.257,2.045     c-6.002,1.233-11.894,3.009-17.571,5.314c-2.833,1.15-5.612,2.432-8.324,3.843c-2.66,1.385-5.568,2.795-7.889,4.712     c-3.845-1.92-7.81-3.56-11.893-4.919c-5.786-1.926-11.752-3.306-17.792-4.141c-6.05-0.835-12.176-1.123-18.277-0.854     c-6.094,0.268-12.165,1.09-18.105,2.479c-5.93,1.386-11.729,3.338-17.273,5.859c-25.952,11.8-45.78,36.026-51.239,63.46     c-3.762,18.91-1.138,38.497,7.013,55.967c23.407,50.167,83.292,67.638,138.673,65.933c55.181-5.006,112.513-29.592,129.68-82.221     C397.815,362.933,398.051,343.172,392.029,324.856z"/>
		</g>
		<g>
			<g>
				<g>
					<path style="fill:#EA62AE;" d="M189.384,17.431c-2.599-0.063-4.834,13.847-9.533,30.232       c-4.561,16.423-9.928,29.449-7.679,30.754c1.072,0.597,3.877-1.981,7.131-7.001c3.252-5.002,6.829-12.508,9.313-21.28       c2.469-8.777,3.344-17.045,3.187-23.01C191.653,21.147,190.61,17.483,189.384,17.431z"/>
				</g>
			</g>
			<g>
				<g>
					<path style="fill:#EA62AE;" d="M150.678,18.417c-2.181,1.405,3.932,14.434,9.784,30.872       c5.973,16.393,9.572,30.327,12.148,30.019c1.218-0.167,1.898-3.978,1.509-10.045c-0.382-6.055-1.957-14.345-5.089-23.06       c-3.145-8.711-7.218-16.102-10.785-21.009C154.676,20.271,151.722,17.769,150.678,18.417z"/>
				</g>
			</g>
			<g>
				<g>
					<path style="fill:#EA62AE;" d="M115.327,48.507c0.048,1.314,3.871,2.133,9.534,3.922c5.683,1.742,13.224,4.729,21.094,9.199       c7.882,4.473,14.765,9.34,20.034,12.656c5.255,3.336,8.885,5.091,9.723,4.135c0.82-0.934-1.278-4.376-5.595-9.077       c-4.322-4.664-10.961-10.684-19.684-15.644c-8.728-4.974-17.844-7.403-24.498-7.618       C119.242,45.805,115.257,47.321,115.327,48.507z"/>
				</g>
			</g>
			<g>
				<g>
					<path style="fill:#EA62AE;" d="M226.795,46.338c-0.317-1.178-4.09-1.415-9.894-0.159c-5.788,1.242-13.551,4.144-21.27,8.905       c-7.71,4.776-13.777,10.422-17.476,15.043c-3.719,4.63-5.194,8.111-4.282,8.921c1.984,1.7,12.311-7.526,26.546-16.217       C214.558,53.984,227.428,48.872,226.795,46.338z"/>
				</g>
			</g>
			<g>
				<g>
					<path style="fill:#EA62AE;" d="M112.573,92.289c1.493,2.169,14.162-4.5,30.952-7.831c16.737-3.586,31.011-2.476,31.523-5.059       c0.22-1.184-3.225-3.077-9.306-4.281c-6.05-1.213-14.756-1.486-24.057,0.421c-9.297,1.93-17.184,5.626-22.26,9.135       C114.316,88.186,111.903,91.288,112.573,92.289z"/>
				</g>
			</g>
		</g>
		<g>
			<g>
				<path style="fill:#723850;" d="M292.303,318.867c-8.903,7.371-12.965,19.888-12.626,31.172      c0.928,30.881,35.207,45.572,61.174,51.024c12.19,2.559,24.763,4.281,36.614,7.891c6.108-8.207,11.016-17.408,14.371-27.695      c5.664-17.364,6.164-36.011,1.081-53.501c-18.196-11.148-39.312-17.569-60.657-18.028      C319.295,309.453,302.688,310.268,292.303,318.867z"/>
			</g>
			<g>
				<path style="fill:#723850;" d="M176.433,411.043c25.116-8.552,57.367-27.282,54.554-58.048      c-1.028-11.242-6.574-23.177-16.303-29.417c-11.35-7.28-27.933-6.08-40.769-4.236c-21.105,3.034-41.264,11.943-57.966,25.181      c-2.943,17.99-0.194,36.458,7.535,53.024c4.572,9.799,10.551,18.334,17.601,25.739      C152.401,418.28,164.657,415.053,176.433,411.043z"/>
			</g>
		</g>
		<g>
			<g>
				<path style="fill:#FFE1E1;" d="M206.374,354.19c0.468,7.719-2.156,14.159-5.863,14.384c-3.706,0.225-7.091-5.85-7.559-13.569      c-0.468-7.719,2.156-14.159,5.863-14.384C202.521,340.396,205.905,346.471,206.374,354.19z"/>
			</g>
			<g>
				<path style="fill:#FFE1E1;" d="M316.66,347.496c0.468,7.719-2.156,14.159-5.863,14.384c-3.706,0.225-7.091-5.85-7.559-13.569      s2.156-14.159,5.863-14.384C312.807,333.702,316.192,339.777,316.66,347.496z"/>
			</g>
		</g>
		<g>
			<path style="fill:#EA62AE;" d="M274.874,351.542c-1.012-0.883-2.305-1.369-3.586-1.772c-5.203-1.636-10.73-2.078-16.154-1.517     c-5.452,0.099-10.886,1.206-15.852,3.46c-1.223,0.555-2.448,1.193-3.346,2.193c-2.519,2.804-1.577,7.278,0.233,10.585     c3.169,5.788,8.592,10.304,14.859,12.371c3.783,1.248,7.993,1.011,11.643-0.707c5.971-2.81,10.808-7.948,13.253-14.077     C277.32,358.576,277.714,354.021,274.874,351.542z"/>
		</g>
		<g>
			<g>
				<path style="fill:#221002;" d="M270.648,377.712c-0.385-0.119-1.107,1.888-2.961,4.563c-1.813,2.63-5.13,5.958-9.864,6.675      c-2.317,0.393-4.566,0.047-6.376-0.789c-1.832-0.841-3.269-2.126-4.384-3.298c-2.213-2.395-3.358-4.217-3.706-4.019      c-0.276,0.144,0.254,2.254,2.284,5.187c1.032,1.435,2.528,3.091,4.732,4.273c2.198,1.188,5.057,1.696,7.862,1.215      c2.814-0.44,5.306-1.739,7.134-3.328c1.844-1.584,3.077-3.391,3.895-4.968C270.873,380.016,270.948,377.78,270.648,377.712z"/>
			</g>
		</g>
		<g>
			<g>
				<g>
					<path style="fill:#C6668B;" d="M248.322,263.075c0.71-0.11,0.859-2.951,0.333-6.346c-0.526-3.395-1.528-6.058-2.238-5.948       c-0.71,0.11-0.859,2.951-0.333,6.346C246.61,260.522,247.612,263.185,248.322,263.075z"/>
				</g>
			</g>
			<g>
				<g>
					<path style="fill:#C6668B;" d="M275.962,253.842c0.711,0.102,1.641-2.279,2.076-5.318c0.436-3.039,0.212-5.586-0.499-5.687       c-0.711-0.102-1.641,2.279-2.077,5.318C275.027,251.194,275.25,253.741,275.962,253.842z"/>
				</g>
			</g>
			<g>
				<g>
					<path style="fill:#C6668B;" d="M215.469,259.799c0.544-0.469-0.737-2.849-2.861-5.316c-2.124-2.466-4.288-4.086-4.833-3.617       c-0.544,0.469,0.736,2.849,2.861,5.315C212.761,258.648,214.924,260.268,215.469,259.799z"/>
				</g>
			</g>
			<g>
				<g>
					<path style="fill:#C6668B;" d="M230.517,241.202c0.686-0.215,0.514-2.704-0.382-5.559c-0.897-2.855-2.18-4.994-2.865-4.779       c-0.685,0.215-0.514,2.704,0.383,5.559C228.549,239.277,229.832,241.417,230.517,241.202z"/>
				</g>
			</g>
			<g>
				<g>
					<path style="fill:#C6668B;" d="M262.848,241.505c0.717-0.044,1.146-2.596,0.957-5.7c-0.188-3.104-0.922-5.586-1.64-5.542       c-0.717,0.044-1.146,2.596-0.958,5.7C261.396,239.067,262.131,241.549,262.848,241.505z"/>
				</g>
			</g>
			<g>
				<g>
					<path style="fill:#C6668B;" d="M192.051,244.632c0.648-0.31,0.082-2.842-1.264-5.655c-1.346-2.813-2.963-4.842-3.611-4.532       c-0.648,0.31-0.082,2.842,1.264,5.655C189.786,242.913,191.403,244.942,192.051,244.632z"/>
				</g>
			</g>
			<g>
				<g>
					<path style="fill:#C6668B;" d="M183.314,262.854c0.561-0.436-0.434-2.648-2.518-4.662c-2.078-2.02-4.319-2.946-4.738-2.371       c-0.43,0.584,0.992,2.356,2.927,4.239C180.929,261.936,182.743,263.303,183.314,262.854z"/>
				</g>
			</g>
			<g>
				<g>
					<path style="fill:#C6668B;" d="M152.3,265.443c0.523-0.493-0.82-2.541-3.002-4.574c-2.182-2.032-4.321-3.226-4.775-2.669       c-0.454,0.557,0.889,2.605,3.002,4.573C149.638,264.741,151.777,265.935,152.3,265.443z"/>
				</g>
			</g>
			<g>
				<g>
					<path style="fill:#C6668B;" d="M125.189,285.231c0.497-0.519-0.175-1.968-1.5-3.236c-1.325-1.268-2.802-1.875-3.299-1.356       c-0.497,0.519,0.175,1.968,1.5,3.236C123.215,285.142,124.692,285.75,125.189,285.231z"/>
				</g>
			</g>
			<g>
				<g>
					<path style="fill:#C6668B;" d="M117.743,305.271c0.335-0.636-0.963-1.977-2.899-2.995c-1.935-1.018-3.776-1.328-4.11-0.693       c-0.335,0.636,0.963,1.977,2.899,2.995C115.568,305.597,117.408,305.907,117.743,305.271z"/>
				</g>
			</g>
			<g>
				<g>
					<path style="fill:#C6668B;" d="M295.263,248.575c-0.626-0.353-1.671,0.316-2.335,1.493c-0.664,1.177-0.694,2.418-0.068,2.771       c0.626,0.353,1.671-0.316,2.335-1.493C295.858,250.168,295.889,248.928,295.263,248.575z"/>
				</g>
			</g>
			<g>
				<g>
					<path style="fill:#C6668B;" d="M293.495,224.999c-0.676-0.243-1.973,2.062-2.894,5.147c-0.921,3.086-1.099,5.723-0.401,5.891       c0.699,0.168,1.995-2.137,2.894-5.147C293.993,227.879,294.172,225.241,293.495,224.999z"/>
				</g>
			</g>
			<g>
				<g>
					<path style="fill:#C6668B;" d="M321.454,246.237c-0.596-0.401-2.018,0.668-3.176,2.387c-1.158,1.72-1.613,3.439-1.018,3.841       c0.596,0.401,2.018-0.668,3.176-2.388C321.595,248.358,322.05,246.639,321.454,246.237z"/>
				</g>
			</g>
			<g>
				<g>
					<path style="fill:#C6668B;" d="M318.211,230.602c-0.536-0.486-2.054,0.318-3.565,1.609c-1.506,1.298-2.531,2.676-2.132,3.279       c0.392,0.596,2.182,0.11,3.827-1.305C317.988,232.775,318.741,231.079,318.211,230.602z"/>
				</g>
			</g>
			<g>
				<g>
					<path style="fill:#C6668B;" d="M348.61,253.629c-0.464-0.549-2.355,0.286-4.224,1.864c-1.869,1.579-3.009,3.303-2.545,3.852       c0.463,0.549,2.355-0.286,4.224-1.864C347.934,255.902,349.073,254.178,348.61,253.629z"/>
				</g>
			</g>
			<g>
				<g>
					<path style="fill:#C6668B;" d="M368.339,262.938c-0.529-0.498-2.271,0.503-4.166,1.912c-1.887,1.42-3.339,2.809-3.011,3.457       c0.316,0.636,2.478,0.196,4.569-1.373C367.828,265.37,368.86,263.42,368.339,262.938z"/>
				</g>
			</g>
			<g>
				<g>
					<path style="fill:#C6668B;" d="M145.452,281.702c0.617-0.355-0.294-3.091-2.305-5.932c-2.005-2.845-4.279-4.618-4.82-4.155       c-0.552,0.47,0.766,2.918,2.695,5.656C142.958,280.004,144.825,282.065,145.452,281.702z"/>
				</g>
			</g>
			<g>
				<g>
					<path style="fill:#C6668B;" d="M387.438,279.061c-0.415-0.579-2.457,0.175-4.374,1.906c-1.922,1.726-2.885,3.677-2.352,4.151       c0.54,0.482,2.287-0.598,4.093-2.218C386.605,281.274,387.861,279.648,387.438,279.061z"/>
				</g>
			</g>
			<g>
				<g>
					<path style="fill:#C6668B;" d="M400.388,305.565c-0.305-0.636-2.662-0.107-4.792,1.809c-2.137,1.907-2.921,4.193-2.322,4.566       c0.613,0.399,2.205-0.984,4.059-2.627C399.169,307.649,400.717,306.218,400.388,305.565z"/>
				</g>
			</g>
			<g>
				<g>
					<path style="fill:#C6668B;" d="M283.471,480.806c0.693-0.233,0.09-3.839-0.706-8.208c-0.815-4.365-1.539-7.949-2.269-7.919       c-0.705,0.022-1.14,3.82-0.289,8.391C281.042,477.645,282.805,481.037,283.471,480.806z"/>
				</g>
			</g>
			<g>
				<g>
					<path style="fill:#C6668B;" d="M304.026,478.089c0.667-0.245,0.066-3.538-1.702-7.193c-1.761-3.66-3.964-6.179-4.571-5.809       c-0.621,0.375,0.527,3.403,2.227,6.94C301.69,475.559,303.346,478.342,304.026,478.089z"/>
				</g>
			</g>
			<g>
				<g>
					<path style="fill:#C6668B;" d="M328.385,461.065c0.543-0.47-0.125-2.131-1.491-3.711c-1.367-1.579-2.915-2.478-3.458-2.007       c-0.543,0.47,0.124,2.131,1.491,3.71C326.293,460.637,327.841,461.535,328.385,461.065z"/>
				</g>
			</g>
			<g>
				<g>
					<path style="fill:#C6668B;" d="M355.087,451.64c0.47-0.543-1.264-2.814-3.872-5.071c-2.609-2.257-5.104-3.647-5.575-3.103       c-0.47,0.543,1.263,2.814,3.872,5.071C352.121,450.794,354.617,452.184,355.087,451.64z"/>
				</g>
			</g>
			<g>
				<g>
					<path style="fill:#C6668B;" d="M348.96,466.076c0.413-0.616-1.646-2.664-3.627-5.49c-2.021-2.798-3.282-5.414-3.999-5.226       c-0.682,0.139-0.447,3.485,1.879,6.734C345.521,465.356,348.605,466.674,348.96,466.076z"/>
				</g>
			</g>
			<g>
				<g>
					<path style="fill:#C6668B;" d="M380.159,433.508c0.409-0.591-1.34-2.512-3.908-4.291c-2.568-1.78-4.981-2.743-5.39-2.153       c-0.409,0.591,1.34,2.512,3.908,4.291C377.336,433.135,379.749,434.099,380.159,433.508z"/>
				</g>
			</g>
			<g>
				<g>
					<path style="fill:#C6668B;" d="M397.463,413.928c0.369-0.617-1.329-2.31-3.792-3.783c-2.463-1.473-4.758-2.167-5.127-1.55       c-0.369,0.617,1.329,2.31,3.792,3.783C394.799,413.851,397.095,414.545,397.463,413.928z"/>
				</g>
			</g>
			<g>
				<g>
					<path style="fill:#C6668B;" d="M377.192,448.924c0.381-0.609-1.042-2.185-3.177-3.52c-2.135-1.335-4.175-1.923-4.556-1.313       c-0.381,0.609,1.041,2.185,3.177,3.52C374.771,448.945,376.811,449.533,377.192,448.924z"/>
				</g>
			</g>
			<g>
				<g>
					<path style="fill:#C6668B;" d="M415.193,380.423c-0.308-0.656-2.755-0.151-5.572,0.861c-2.815,1.02-5.02,2.194-4.839,2.895       c0.177,0.69,2.78,0.617,5.722-0.447C413.448,382.673,415.498,381.067,415.193,380.423z"/>
				</g>
			</g>
			<g>
				<g>
					<path style="fill:#C6668B;" d="M410.228,351.308c-0.36-0.627-2.616-0.004-5.136,1.203c-2.518,1.212-4.415,2.582-4.151,3.255       c0.26,0.665,2.663,0.348,5.277-0.91C408.833,353.603,410.584,351.927,410.228,351.308z"/>
				</g>
			</g>
			<g>
				<g>
					<path style="fill:#C6668B;" d="M409.217,328.726c-0.314-0.646-1.877-0.535-3.49,0.249c-1.614,0.784-2.668,1.943-2.354,2.589       c0.314,0.646,1.876,0.535,3.49-0.249C408.477,330.531,409.531,329.372,409.217,328.726z"/>
				</g>
			</g>
			<g>
				<g>
					<path style="fill:#C6668B;" d="M108.627,332.698c0.462-0.55-0.706-2.29-2.608-3.887c-1.902-1.596-3.819-2.444-4.281-1.893       c-0.462,0.55,0.706,2.29,2.608,3.886C106.249,332.401,108.165,333.249,108.627,332.698z"/>
				</g>
			</g>
			<g>
				<g>
					<path style="fill:#C6668B;" d="M103.408,353.3c0.357-0.63-0.754-1.931-2.312-3.147c-1.564-1.209-3.098-1.964-3.621-1.462       c-0.516,0.491,0.295,2.177,2.024,3.517C101.225,353.552,103.059,353.921,103.408,353.3z"/>
				</g>
			</g>
			<g>
				<g>
					<path style="fill:#C6668B;" d="M105.759,380.014c0.225-0.69-2.105-2.062-5.078-3.379c-2.976-1.309-5.56-2.106-5.918-1.475       c-0.353,0.618,1.757,2.486,4.868,3.855C102.738,380.391,105.541,380.692,105.759,380.014z"/>
				</g>
			</g>
			<g>
				<g>
					<path style="fill:#C6668B;" d="M112.214,410.816c-0.56-0.45-1.751,0.101-2.66,1.232c-0.909,1.131-1.192,2.412-0.632,2.862       c0.56,0.45,1.751-0.101,2.66-1.232C112.492,412.548,112.775,411.266,112.214,410.816z"/>
				</g>
			</g>
			<g>
				<g>
					<path style="fill:#C6668B;" d="M129.657,425.955c-0.619-0.395-3.11,2.451-6.21,5.837c-3.082,3.402-5.683,6.147-5.232,6.727       c0.423,0.561,3.9-1.386,7.156-4.975C128.64,429.967,130.255,426.323,129.657,425.955z"/>
				</g>
			</g>
			<g>
				<g>
					<path style="fill:#C6668B;" d="M114.747,394.047c-0.323-0.642-2.041-0.43-3.839,0.473c-1.797,0.903-2.993,2.156-2.671,2.798       c0.322,0.642,2.041,0.431,3.839-0.473C113.874,395.942,115.07,394.689,114.747,394.047z"/>
				</g>
			</g>
			<g>
				<g>
					<path style="fill:#C6668B;" d="M141.962,440.163c-0.467-0.535-2.532,0.511-4.29,2.633c-1.764,2.117-2.414,4.339-1.802,4.7       c0.623,0.373,2.181-1.094,3.803-3.037C141.286,442.507,142.443,440.707,141.962,440.163z"/>
				</g>
			</g>
			<g>
				<g>
					<path style="fill:#C6668B;" d="M149.902,466.576c0.696,0.18,2.487-4.422,4-10.278c1.514-5.856,2.177-10.749,1.481-10.928       c-0.696-0.18-2.487,4.421-4,10.278C149.869,461.503,149.206,466.396,149.902,466.576z"/>
				</g>
			</g>
			<g>
				<g>
					<path style="fill:#C6668B;" d="M171.419,464.575c0.716,0.065,1.477-1.877,1.7-4.337c0.223-2.46-0.176-4.508-0.891-4.573       c-0.716-0.065-1.477,1.877-1.7,4.337C170.304,462.463,170.704,464.51,171.419,464.575z"/>
				</g>
			</g>
			<g>
				<g>
					<path style="fill:#C6668B;" d="M189.531,476.578c0.707,0.044,1.493-3.564,1.201-8.046c-0.28-4.482-1.518-7.961-2.213-7.827       c-0.717,0.132-0.65,3.685-0.383,7.993C188.417,473.004,188.803,476.538,189.531,476.578z"/>
				</g>
			</g>
			<g>
				<g>
					<path style="fill:#C6668B;" d="M180.784,479.587c0.712-0.16,0.773-2.524,0.697-5.336c-0.095-2.811-0.301-5.167-1.021-5.284       c-0.697-0.121-1.679,2.271-1.58,5.363C178.969,477.423,180.096,479.751,180.784,479.587z"/>
				</g>
			</g>
			<g>
				<g>
					<path style="fill:#C6668B;" d="M212.694,477.988c0.708-0.121,0.76-3.276,0.116-7.047c-0.644-3.771-1.74-6.73-2.449-6.609       c-0.708,0.121-0.76,3.276-0.116,7.047C210.889,475.15,211.986,478.109,212.694,477.988z"/>
				</g>
			</g>
			<g>
				<g>
					<path style="fill:#C6668B;" d="M228.883,484.453c0.713-0.09,0.841-3.703,0.287-8.069c-0.554-4.366-1.581-7.832-2.294-7.741       c-0.713,0.091-0.841,3.703-0.287,8.069C227.143,481.077,228.17,484.543,228.883,484.453z"/>
				</g>
			</g>
			<g>
				<g>
					<path style="fill:#C6668B;" d="M248.393,484.683c0.717-0.043,1.169-2.211,1.009-4.841c-0.16-2.63-0.87-4.727-1.587-4.683       c-0.717,0.044-1.169,2.211-1.01,4.841C246.966,482.63,247.676,484.727,248.393,484.683z"/>
				</g>
			</g>
			<g>
				<g>
					<path style="fill:#C6668B;" d="M264.241,482.653c0.703-0.148,0.681-3.081-0.049-6.552c-0.73-3.47-1.892-6.164-2.595-6.016       c-0.703,0.148-0.681,3.081,0.049,6.551C262.376,480.108,263.538,482.801,264.241,482.653z"/>
				</g>
			</g>
		</g>
		<g>
			<g>
				<path style="fill:#FFFFFF;" d="M261.969,355.929c-0.413-2.116-4.313-3.135-8.713-2.277c-4.399,0.858-7.631,3.269-7.218,5.384      c0.413,2.116,4.313,3.135,8.712,2.277C259.15,360.455,262.382,358.045,261.969,355.929z"/>
			</g>
		</g>
	</g>
</g>















</svg>
