<svg id="Layer_3" height="512" viewBox="0 0 64 64" width="512" xmlns="http://www.w3.org/2000/svg" data-name="Layer 3"><path d="m40.986 36 .014-17.024h.008a1.019 1.019 0 0 1 -.259.765c-.781.781-3.091-.263-5.159-2.332-1.609-1.611-2.6-3.367-2.59-4.436h-.014v23.027" fill="#b52f28"/><path d="m32 40v-3a1 1 0 0 1 1-1h8a1 1 0 0 1 1 1v3" fill="#ccc"/><path d="m30 40h14a0 0 0 0 1 0 0v20a2 2 0 0 1 -2 2h-10a2 2 0 0 1 -2-2v-20a0 0 0 0 1 0 0z" fill="#474747"/><path d="m30 40h14v4h-14z" fill="#f0ae42"/><path d="m3 54h32a1 1 0 0 1 1 1v3a4 4 0 0 1 -4 4h-26a4 4 0 0 1 -4-4v-3a1 1 0 0 1 1-1z" fill="#686868"/><path d="m12 54 3 4h8l3-4" fill="#474747"/><path d="m4 54v-4a2 2 0 0 1 2-2h26a2 2 0 0 1 2 2v4" fill="#fbe1ca"/><path d="m11.512 48a15 15 0 1 1 14.976 0" fill="#686868"/><circle cx="19" cy="35" fill="#ccc" r="10"/><ellipse cx="37.004" cy="15.994" fill="#d23f34" rx="2.001" ry="5.298" transform="matrix(.707 -.707 .707 .707 -.477 30.835)"/><path d="m48 14-3.787-8.52a2.487 2.487 0 0 1 -.213-1.005 2.475 2.475 0 0 1 2.475-2.475h13.05a2.475 2.475 0 0 1 2.475 2.475 2.487 2.487 0 0 1 -.213 1.005l-3.787 8.52z" fill="#c18e59"/><path d="m56 20v39a3 3 0 0 1 -3 3 3 3 0 0 1 -3-3v-39" fill="#474747"/><path d="m48 14 2 6h6l2-6" fill="#ccc"/><path d="m11.964 33.5h7.071v2h-7.071z" fill="#f2f2f2" transform="matrix(.707 -.707 .707 .707 -19.855 21.065)"/><path d="m18.964 34.5h7.071v2h-7.071z" fill="#f2f2f2" transform="matrix(.707 -.707 .707 .707 -18.512 26.308)"/><path d="m56.065 14h-8.065l2 6h2.933a22.577 22.577 0 0 0 3.132-6z" fill="#e0e0e0"/><path d="m44 4.475a2.484 2.484 0 0 0 .213 1.005l3.787 8.52h8.065a22.686 22.686 0 0 0 .749-12h-10.339a2.475 2.475 0 0 0 -2.475 2.475z" fill="#d69f6e"/><path d="m30 35a11 11 0 1 0 -11 11 11.013 11.013 0 0 0 11-11zm-20 0a9 9 0 1 1 9 9 9.01 9.01 0 0 1 -9-9z"/><path d="m44 39h-1v-2a1.993 1.993 0 0 0 -1.013-1.729l.013-16.086c.1-1.56-1.238-3.676-2.874-5.314a12.009 12.009 0 0 0 -3.357-2.439c-1.865-.841-2.815-.294-3.217.107a1.949 1.949 0 0 0 -.552 1.434h-.018v12.717a15.989 15.989 0 1 0 -23.561 21.31h-2.421a3 3 0 0 0 -3 3v3a2 2 0 0 0 -2 2v3a5.006 5.006 0 0 0 5 5h36a3 3 0 0 0 3-3v-20a1 1 0 0 0 -1-1zm-10.179 2h9.179v2h-10.152a16.051 16.051 0 0 0 .973-2zm.662-2a15.8 15.8 0 0 0 .387-2h6.13v2zm-.464-26.019c.5 0 1.958.568 3.692 2.3s2.3 3.2 2.3 3.691h-.011v.028c-.48.05-1.953-.551-3.7-2.3s-2.321-3.248-2.3-3.72zm-.033 4.148c.284.341.584.673.9.986 1.77 1.775 3.729 2.879 5.114 2.885l-.011 14h-4.989a15.9 15.9 0 0 0 -1.014-5.552zm-28.986 17.871a14 14 0 1 1 21.2 12h-14.4a14.046 14.046 0 0 1 -6.8-12zm0 15a1 1 0 0 1 1-1h26a1 1 0 0 1 1 1v3h-28zm19 5-1.5 2h-7l-1.5-2zm-18 6a3 3 0 0 1 -3-3v-3h8.5l2.7 3.6a1 1 0 0 0 .8.4h8a1 1 0 0 0 .8-.4l2.7-3.6h8.5v3a3 3 0 0 1 -3 3zm36 0h-6.026a4.948 4.948 0 0 0 1.026-3v-3a2 2 0 0 0 -2-2v-3a3 3 0 0 0 -3-3h-2.421a16.115 16.115 0 0 0 1.894-2h11.527v15a1 1 0 0 1 -1 1z"/><path d="m62.7 5.886a3.474 3.474 0 0 0 -3.175-4.886h-13.05a3.476 3.476 0 0 0 -3.175 4.886l3.768 8.478 1.932 5.799v38.837a4 4 0 0 0 8 0v-38.837l1.933-5.8zm-11.979 13.114-1.333-4h7.224l-1.333 4zm-5.721-14.525a1.476 1.476 0 0 1 1.475-1.475h13.05a1.474 1.474 0 0 1 1.348 2.073l-3.523 7.927h-8.7l-3.523-7.927a1.466 1.466 0 0 1 -.127-.598zm8 56.525a2 2 0 0 1 -2-2v-38h4v38a2 2 0 0 1 -2 2z"/><path d="m11.964 33.5h7.071v2h-7.071z" transform="matrix(.707 -.707 .707 .707 -19.855 21.065)"/><path d="m18.964 34.5h7.071v2h-7.071z" transform="matrix(.707 -.707 .707 .707 -18.512 26.308)"/></svg>