<svg id="Layer_3" height="512" viewBox="0 0 64 64" width="512" xmlns="http://www.w3.org/2000/svg" data-name="Layer 3"><path d="m34 58v-2a14 14 0 0 1 14-14 14 14 0 0 1 14 14v2z" fill="#e1656e"/><path d="m62 58v2a2 2 0 0 1 -2 2h-24a2 2 0 0 1 -2-2v-2z" fill="#ba4753"/><path d="m30 60v-6.172a6.826 6.826 0 0 0 -2-4.828 6.826 6.826 0 0 1 -2-4.828v-6.344a6.826 6.826 0 0 1 2-4.828 6.826 6.826 0 0 0 2-4.828v-6.172a2 2 0 0 0 -2-2h-24a2 2 0 0 0 -2 2v6.172a6.826 6.826 0 0 0 2 4.828 6.826 6.826 0 0 1 2 4.828v6.344a6.826 6.826 0 0 1 -2 4.828 6.826 6.826 0 0 0 -2 4.828v6.172a2 2 0 0 0 2 2h24a2 2 0 0 0 2-2z" fill="#ba4753"/><path d="m2 57h14a6 6 0 0 0 6-6v-18a6 6 0 0 0 -6-6h-14v1.172a6.826 6.826 0 0 0 2 4.828 6.826 6.826 0 0 1 2 4.828v6.344a6.826 6.826 0 0 1 -2 4.828 6.826 6.826 0 0 0 -2 4.828z" fill="#ddd"/><path d="m4 20v-3a1 1 0 0 1 1-1h22a1 1 0 0 1 1 1v3" fill="#f29b99"/><path d="m5 16v-2a2 2 0 0 1 2-2h18a2 2 0 0 1 2 2v2" fill="#e1656e"/><path d="m7 12v-1a9 9 0 0 1 9-9 9 9 0 0 1 9 9v1" fill="#ccc"/><g fill="#f29b99"><path d="m8.999 30h8.001v2h-8.001z"/><path d="m8.999 34h8.001v2h-8.001z"/><path d="m8.999 38h8.001v2h-8.001z"/><path d="m8.999 42h8.001v2h-8.001z"/></g><path d="m15 47h-9.622a6.811 6.811 0 0 1 -1.378 2 6.831 6.831 0 0 0 -1.944 4h12.944a3 3 0 0 0 0-6z" fill="#e1656e"/><path d="m59 56h-2a9.01 9.01 0 0 0 -9-9v-2a11.013 11.013 0 0 1 11 11z" fill="#f29b99"/><path d="m23.19 5.6a8.992 8.992 0 0 0 -16.19 5.4v1h12.973a19.913 19.913 0 0 0 3.217-6.4z" fill="#ddd"/><path d="m29 19.184v-2.184a1.993 1.993 0 0 0 -1-1.722v-1.278a3 3 0 0 0 -2-2.816v-.184a10 10 0 0 0 -20 0v.184a3 3 0 0 0 -2 2.816v1.278a1.993 1.993 0 0 0 -1 1.722v2.184a3 3 0 0 0 -2 2.816v6.171a7.774 7.774 0 0 0 2.293 5.536 5.789 5.789 0 0 1 1.707 4.121v6.344a5.789 5.789 0 0 1 -1.707 4.121 7.772 7.772 0 0 0 -2.293 5.535v6.172a3 3 0 0 0 3 3h24a3 3 0 0 0 3-3v-6.172a7.772 7.772 0 0 0 -2.293-5.535 5.789 5.789 0 0 1 -1.707-4.121v-6.344a5.789 5.789 0 0 1 1.707-4.121 7.774 7.774 0 0 0 2.293-5.536v-6.171a3 3 0 0 0 -2-2.816zm-2-2.184v2h-22v-2zm-11-14a8.009 8.009 0 0 1 8 8h-16a8.009 8.009 0 0 1 8-8zm-9 10h18a1 1 0 0 1 1 1v1h-20v-1a1 1 0 0 1 1-1zm-2.293 19.293a5.789 5.789 0 0 1 -1.707-4.122v-.171h13a5.006 5.006 0 0 1 5 5v18a5.006 5.006 0 0 1 -5 5h-13v-2h12a4 4 0 0 0 0-8h-8.222a7.885 7.885 0 0 0 .222-1.828v-6.344a7.772 7.772 0 0 0 -2.293-5.535zm1.293 15.707h9a2 2 0 0 1 0 4h-11.7a5.8 5.8 0 0 1 1.41-2.293 7.848 7.848 0 0 0 1.29-1.707zm23-19.829a5.789 5.789 0 0 1 -1.707 4.122 7.772 7.772 0 0 0 -2.293 5.535v6.344a7.772 7.772 0 0 0 2.293 5.535 5.789 5.789 0 0 1 1.707 4.121v6.172a1 1 0 0 1 -1 1h-24a1 1 0 0 1 -1-1v-2h13a7.008 7.008 0 0 0 7-7v-18a7.008 7.008 0 0 0 -7-7h-13v-4a1 1 0 0 1 1-1h24a1 1 0 0 1 1 1z"/><path d="m8.999 30h8.001v2h-8.001z"/><path d="m8.999 34h8.001v2h-8.001z"/><path d="m8.999 38h8.001v2h-8.001z"/><path d="m8.999 42h8.001v2h-8.001z"/><path d="m48 41a15.017 15.017 0 0 0 -15 15v4a3 3 0 0 0 3 3h24a3 3 0 0 0 3-3v-4a15.017 15.017 0 0 0 -15-15zm0 2a13.015 13.015 0 0 1 13 13v1h-26v-1a13.015 13.015 0 0 1 13-13zm12 18h-24a1 1 0 0 1 -1-1v-1h26v1a1 1 0 0 1 -1 1z"/><path d="m57 56h2a11.013 11.013 0 0 0 -11-11v2a9.01 9.01 0 0 1 9 9z"/></svg>