<svg id="Layer_3" height="512" viewBox="0 0 64 64" width="512" xmlns="http://www.w3.org/2000/svg" data-name="Layer 3"><circle cx="32" cy="27" fill="#ccc" r="11"/><path d="m21 27a10.99 10.99 0 0 0 6.25 9.91 23.13 23.13 0 0 0 8.25-17.728 23.386 23.386 0 0 0 -.157-2.661 11 11 0 0 0 -14.343 10.479z" fill="#dddcdb"/><path d="m52 30h4v6h-4z" fill="#ccc"/><path d="m8 30h4v6h-4z" fill="#ccc"/><path d="m50 40v-2a2 2 0 0 1 2-2h4a2 2 0 0 1 2 2v4h-4a2 2 0 0 0 -2-2z" fill="#213d68"/><rect fill="#b5b5b5" height="22" rx="2" transform="matrix(-1 0 0 -1 98 102)" width="10" x="44" y="40"/><path d="m54 42h4a4 4 0 0 1 4 4v10a4 4 0 0 1 -4 4h-4" fill="#3b5892"/><path d="m44 42-1.789.894a4 4 0 0 0 -2.211 3.578v9.056a4 4 0 0 0 2.211 3.578l1.789.894" fill="#ccc"/><path d="m54 48h1a3 3 0 0 1 3 3 3 3 0 0 1 -3 3h-1" fill="#4c6cb5"/><path d="m14 40v-2a2 2 0 0 0 -2-2h-4a2 2 0 0 0 -2 2v4h4a2 2 0 0 1 2-2z" fill="#213d68"/><rect fill="#b5b5b5" height="22" rx="2" width="10" x="10" y="40"/><g fill="#3b5892"><path d="m10 42h-4a4 4 0 0 0 -4 4v10a4 4 0 0 0 4 4h4"/><path d="m51 30v-3a19 19 0 0 0 -19-19 19 19 0 0 0 -19 19v3h-6v-3a25 25 0 0 1 25-25 25 25 0 0 1 25 25v3z"/><path d="m27 21v12l12-6z"/></g><path d="m20 42 1.789.894a4 4 0 0 1 2.211 3.578v9.056a4 4 0 0 1 -2.211 3.578l-1.789.894" fill="#ccc"/><path d="m10 48h-1a3 3 0 0 0 -3 3 3 3 0 0 0 3 3h1" fill="#4c6cb5"/><path d="m34.789 24.894-7.789-3.894v12l5.759-2.88a22.976 22.976 0 0 0 2.03-5.226z" fill="#5e87ca"/><path d="m59 41.1v-3.1a3 3 0 0 0 -2-2.816v-4.184a1 1 0 0 0 1-1v-3a26 26 0 0 0 -52 0v3a1 1 0 0 0 1 1v4.184a3 3 0 0 0 -2 2.816v3.1a5.009 5.009 0 0 0 -4 4.9v10a5.006 5.006 0 0 0 5 5h3.184a3 3 0 0 0 2.816 2h6a3 3 0 0 0 2.922-2.343l1.314-.657a4.973 4.973 0 0 0 2.764-4.472v-9.056a4.973 4.973 0 0 0 -2.764-4.472l-1.314-.657a3 3 0 0 0 -2.922-2.343h-3v-1a3 3 0 0 0 -2-2.816v-4.184a1 1 0 0 0 1-1v-3a18 18 0 0 1 36 0v3a1 1 0 0 0 1 1v4.184a3 3 0 0 0 -2 2.816v1h-3a3 3 0 0 0 -2.922 2.343l-1.314.657a4.973 4.973 0 0 0 -2.764 4.472v9.056a4.973 4.973 0 0 0 2.764 4.472l1.314.657a3 3 0 0 0 2.922 2.343h6a3 3 0 0 0 2.816-2h3.184a5.006 5.006 0 0 0 5-5v-10a5.009 5.009 0 0 0 -4-4.9zm-56 14.9v-10a3 3 0 0 1 3-3h3v4a4 4 0 0 0 0 8v4h-3a3 3 0 0 1 -3-3zm6-3a2 2 0 0 1 0-4zm14-6.528v9.056a2.983 2.983 0 0 1 -1.658 2.683l-.342.171v-14.764l.342.171a2.983 2.983 0 0 1 1.658 2.683zm-4-4.472v18a1 1 0 0 1 -1 1h-6a1 1 0 0 1 -1-1v-18a1 1 0 0 1 1-1h6a1 1 0 0 1 1 1zm-7-3a3 3 0 0 0 -2.816 2h-2.184v-3a1 1 0 0 1 1-1h4a1 1 0 0 1 1 1v1zm-1-4h-2v-4h2zm21-28a20.023 20.023 0 0 0 -20 20v2h-4v-2a24 24 0 0 1 48 0v2h-4v-2a20.023 20.023 0 0 0 -20-20zm23 24v4h-2v-4zm-4 7a1 1 0 0 1 1-1h4a1 1 0 0 1 1 1v3h-2.184a3 3 0 0 0 -2.816-2h-1zm4 11a2 2 0 0 1 0 4zm-14 6.528v-9.056a2.983 2.983 0 0 1 1.658-2.683l.342-.171v14.764l-.342-.171a2.983 2.983 0 0 1 -1.658-2.683zm12 4.472a1 1 0 0 1 -1 1h-6a1 1 0 0 1 -1-1v-18a1 1 0 0 1 1-1h6a1 1 0 0 1 1 1zm8-4a3 3 0 0 1 -3 3h-3v-4a4 4 0 0 0 0-8v-4h3a3 3 0 0 1 3 3z"/><path d="m44 27a12 12 0 1 0 -12 12 12.013 12.013 0 0 0 12-12zm-12 10a10 10 0 1 1 10-10 10.011 10.011 0 0 1 -10 10z"/><path d="m39.447 26.105-12-6a1 1 0 0 0 -1.447.895v12a1 1 0 0 0 1.447.9l12-6a1 1 0 0 0 0-1.79zm-11.447 5.277v-8.764l8.764 4.382z"/></svg>