<svg id="Layer_3" height="512" viewBox="0 0 64 64" width="512" xmlns="http://www.w3.org/2000/svg" data-name="Layer 3"><path d="m38.717 35.135 23.283-11.135v38h-60v-38l23.283 11.135" fill="#f9d266"/><path d="m2 62 23.38-26.977a8.76 8.76 0 0 1 6.62-3.023 8.761 8.761 0 0 1 6.619 3.022l23.381 26.978" fill="#fce797"/><circle cx="32" cy="49" fill="#d23f34" r="9"/><path d="m23 49a8.952 8.952 0 0 0 2.259 5.949 16.785 16.785 0 0 0 7.732-14.136c0-.257-.027-.507-.038-.762a9.1 9.1 0 0 0 -.953-.051 9 9 0 0 0 -9 9z" fill="#e8514d"/><path d="m55 27.348v-23.348a2 2 0 0 0 -2-2h-42a2 2 0 0 0 -2 2v23.348l16.283 7.787.1-.112a8.76 8.76 0 0 1 6.617-3.023 8.761 8.761 0 0 1 6.619 3.022l.1.113z" fill="#f2f2f2"/><path d="m62 24-7-6v9.348z" fill="#f0ae42"/><path d="m2 24 7-6v9.348z" fill="#f0ae42"/><path d="m39 29.999v-16.999l12 12h-7z" fill="#213d68"/><g fill="#ccc"><path d="m16 5h16v2h-16z"/><path d="m14 9h36v2h-36z"/><path d="m14 13h22v2h-22z"/><path d="m14 17h22v2h-22z"/><path d="m14 21h22v2h-22z"/><path d="m14 25h22v2h-22z"/></g><path d="m32 50a1.22 1.22 0 0 1 -1.2-.981l-.769-3.842a1.862 1.862 0 0 1 -.031-.357 1.82 1.82 0 0 1 1.82-1.82h.36a1.82 1.82 0 0 1 1.82 1.82 1.862 1.862 0 0 1 -.035.357l-.765 3.842a1.22 1.22 0 0 1 -1.2.981z" fill="#e2e7f6"/><path d="m32 56a2 2 0 1 1 2-2 2 2 0 0 1 -2 2z" fill="#e2e7f6"/><path d="m32.18 43h-.36a1.82 1.82 0 0 0 -1.82 1.82 1.862 1.862 0 0 0 .035.357l.769 3.842c0 .015.013.027.016.042a16.7 16.7 0 0 0 1.995-5.941 1.814 1.814 0 0 0 -.635-.12z" fill="#f2f2f2"/><path d="m44.161 18.161-5.161-5.161v17l5-5h.119a13.112 13.112 0 0 0 .042-6.839z" fill="#3b5892"/><path d="m62.646 23.247.005-.006-6.651-5.701v-13.54a3 3 0 0 0 -3-3h-42a3 3 0 0 0 -3 3v13.54l-6.651 5.7.005.006a.994.994 0 0 0 -.354.754v38a1 1 0 0 0 1 1h60a1 1 0 0 0 1-1v-38a.994.994 0 0 0 -.354-.753zm-38.978 12.225-20.668 23.847v-33.732zm2.468.206a7.759 7.759 0 0 1 11.727 0l21.947 25.322h-55.62zm14.2-.206 20.664-9.885v33.732zm19.847-11.712-4.183 2v-5.586zm-49.183-20.76h42a1 1 0 0 1 1 1v22.717l-15.059 7.2a9.713 9.713 0 0 0 -13.883 0l-15.058-7.2v-22.717a1 1 0 0 1 1-1zm-3 22.761-4.183-2 4.183-3.587z"/><path d="m38.617 12.076a1 1 0 0 0 -.617.924v17a1 1 0 0 0 .617.923.989.989 0 0 0 .383.077 1 1 0 0 0 .707-.293l4.707-4.707h6.586a1 1 0 0 0 .707-1.707l-12-12a1 1 0 0 0 -1.09-.217zm1.383 3.338 8.586 8.586h-4.586a1 1 0 0 0 -.707.293l-3.293 3.292z"/><path d="m16 5h16v2h-16z"/><path d="m14 9h36v2h-36z"/><path d="m14 13h22v2h-22z"/><path d="m14 17h22v2h-22z"/><path d="m14 21h22v2h-22z"/><path d="m14 25h22v2h-22z"/><path d="m32 39a10 10 0 1 0 10 10 10.011 10.011 0 0 0 -10-10zm0 18a8 8 0 1 1 8-8 8.009 8.009 0 0 1 -8 8z"/><path d="m32.18 42h-.36a2.823 2.823 0 0 0 -2.82 2.82 2.788 2.788 0 0 0 .055.553l.768 3.843a2.22 2.22 0 0 0 4.354 0l.769-3.844a2.823 2.823 0 0 0 -2.766-3.372zm.8 2.98-.768 3.843a.229.229 0 0 1 -.432 0l-.768-3.842a.792.792 0 0 1 -.012-.161.821.821 0 0 1 .82-.82h.36a.821.821 0 0 1 .82.82.775.775 0 0 1 -.016.16z"/><circle cx="32" cy="54" r="2"/></svg>