<svg id="Layer_3" height="512" viewBox="0 0 64 64" width="512" xmlns="http://www.w3.org/2000/svg" data-name="Layer 3"><path d="m46 23.736v36.264a2 2 0 0 1 -2 2h-32a2 2 0 0 1 -2-2v-56a2 2 0 0 1 2-2h32a2 2 0 0 1 2 2v6.264" fill="#939393"/><path d="m29.975 2h-17.975a2 2 0 0 0 -2 2v31.057a38.979 38.979 0 0 0 19.975-33.057z" fill="#b5b5b5"/><path d="m42 25.5v32.5h-28v-52h10l2 2h4l2-2h10v4.029" fill="#ccc"/><path d="m29.1 46-2.029-.495a7.612 7.612 0 0 1 -3.58-2.013 7.62 7.62 0 0 1 -2-3.538l-.491-1.954-3-3v5.464a8.536 8.536 0 0 0 2.5 6.036 8.536 8.536 0 0 0 6.036 2.5h5.564z" fill="#213d68"/><path d="m26.121 35.879a7.242 7.242 0 0 1 -5.121 2.121l-3-3a7.242 7.242 0 0 1 2.121-5.121 2.657 2.657 0 0 1 3.758 0l2.242 2.242a2.657 2.657 0 0 1 0 3.758z" fill="#4c6cb5"/><path d="m24.876 36.876a7.251 7.251 0 0 1 -3.876 1.124l-3-3a7.251 7.251 0 0 1 1.124-3.876z" fill="#3b5892"/><path d="m37.121 46.879a7.242 7.242 0 0 1 -5.121 2.121l-3-3a7.242 7.242 0 0 1 2.121-5.121 2.657 2.657 0 0 1 3.758 0l2.242 2.242a2.657 2.657 0 0 1 0 3.758z" fill="#4c6cb5"/><path d="m35.876 47.876a7.251 7.251 0 0 1 -3.876 1.124l-3-3a7.251 7.251 0 0 1 1.124-3.876z" fill="#3b5892"/><path d="m39 35h-2a6.006 6.006 0 0 0 -6-6v-2a8.009 8.009 0 0 1 8 8z" fill="#b5b5b5"/><path d="m35 35h-2a2 2 0 0 0 -2-2v-2a4 4 0 0 1 4 4z" fill="#b5b5b5"/><path d="m24 53h8v2h-8z" fill="#939393"/><path d="m45.31 23.845-6.31 3.155v-3.478c-4.1-1.022-7-3.554-7-6.522 0-3.866 4.925-7 11-7s11 3.134 11 7c0 3.362-3.724 6.17-8.69 6.845z" fill="#3b5892"/><g fill="#ccc"><path d="m38.5 19a1.5 1.5 0 1 1 1.5-1.5 1.5 1.5 0 0 1 -1.5 1.5z"/><path d="m43.5 19a1.5 1.5 0 1 1 1.5-1.5 1.5 1.5 0 0 1 -1.5 1.5z"/><path d="m48.5 19a1.5 1.5 0 1 1 1.5-1.5 1.5 1.5 0 0 1 -1.5 1.5z"/></g><path d="m14 32.49a38.987 38.987 0 0 0 15.361-24.49h-3.361l-2-2h-10z" fill="#e8e8e8"/><path d="m35.687 40.172a3.661 3.661 0 0 0 -5.172 0 8.171 8.171 0 0 0 -2.311 4.58l-.894-.218a6.617 6.617 0 0 1 -4.852-4.823l-.2-.815a8.172 8.172 0 0 0 4.574-2.31 3.661 3.661 0 0 0 0-5.172l-2.242-2.242a3.661 3.661 0 0 0 -5.172 0 8.187 8.187 0 0 0 -2.418 5.828v5.465a9.536 9.536 0 0 0 9.535 9.535h5.565a8.187 8.187 0 0 0 5.828-2.414 3.663 3.663 0 0 0 0-5.172zm-16.275-7.346 3.762 3.762a6.233 6.233 0 0 1 -1.773.4l-2.388-2.388a6.233 6.233 0 0 1 .399-1.774zm3.76-2.24 2.242 2.242a1.658 1.658 0 0 1 0 2.344c-.14.14-.3.252-.451.377l-4.512-4.512c.125-.151.237-.311.377-.451a1.658 1.658 0 0 1 2.344 0zm-1.965 15.207a7.487 7.487 0 0 1 -2.207-5.328v-3.051l1.1 1.1.421 1.683a8.616 8.616 0 0 0 6.317 6.283l1.756.427 1.093 1.093h-3.152a7.487 7.487 0 0 1 -5.328-2.207zm8.906-.194a6.176 6.176 0 0 1 .374-1.7l3.713 3.715a6.2 6.2 0 0 1 -1.7.373zm6.4.573c-.158.157-.336.284-.506.423l-4.5-4.5a5.965 5.965 0 0 1 .423-.506 1.657 1.657 0 0 1 2.343 0l2.243 2.242a1.66 1.66 0 0 1 -.001 2.341z"/><path d="m31 29a6.006 6.006 0 0 1 6 6h2a8.009 8.009 0 0 0 -8-8z"/><path d="m33 35h2a4 4 0 0 0 -4-4v2a2 2 0 0 1 2 2z"/><path d="m24 53h8v2h-8z"/><path d="m55 17c0-3.545-3.3-6.475-8-7.552v-5.448a3 3 0 0 0 -3-3h-32a3 3 0 0 0 -3 3v56a3 3 0 0 0 3 3h32a3 3 0 0 0 3-3v-35.454c4.779-1.101 8-4.064 8-7.546zm-11 44h-32a1 1 0 0 1 -1-1v-56a1 1 0 0 1 1-1h32a1 1 0 0 1 1 1v5.115a18.633 18.633 0 0 0 -2-.115v-3a1 1 0 0 0 -1-1h-10a1 1 0 0 0 -.707.293l-1.707 1.707h-3.172l-1.707-1.707a1 1 0 0 0 -.707-.293h-10a1 1 0 0 0 -1 1v52a1 1 0 0 0 1 1h28a1 1 0 0 0 1-1v-31.882l2-1v34.882a1 1 0 0 1 -1 1zm-6-36.715v2.715a1 1 0 0 0 1.447.895l1.553-.777v29.882h-26v-50h8.586l1.707 1.707a1 1 0 0 0 .707.293h4a1 1 0 0 0 .707-.293l1.707-1.707h8.586v2.115c-5.742.619-10 3.855-10 7.885 0 3.2 2.721 6 7 7.285zm7.175-1.431a.989.989 0 0 0 -.313.1l-4.862 2.428v-1.86a1 1 0 0 0 -.759-.97c-3.733-.927-6.241-3.158-6.241-5.552 0-3.252 4.579-6 10-6s10 2.748 10 6c0 2.776-3.291 5.238-7.825 5.854z"/><path d="m38.5 16a1.5 1.5 0 1 0 1.5 1.5 1.5 1.5 0 0 0 -1.5-1.5z"/><path d="m43.5 16a1.5 1.5 0 1 0 1.5 1.5 1.5 1.5 0 0 0 -1.5-1.5z"/><path d="m48.5 16a1.5 1.5 0 1 0 1.5 1.5 1.5 1.5 0 0 0 -1.5-1.5z"/></svg>