<svg id="Layer_3" height="512" viewBox="0 0 64 64" width="512" xmlns="http://www.w3.org/2000/svg" data-name="Layer 3"><path d="m53 14v-6a6 6 0 0 0 -6-6h-30a6 6 0 0 0 -6 6v6h4v-6a2 2 0 0 1 2-2h8.586a3.415 3.415 0 0 1 2.414 1 3.415 3.415 0 0 0 2.414 1h3.172a3.415 3.415 0 0 0 2.414-1 3.415 3.415 0 0 1 2.414-1h8.586a2 2 0 0 1 2 2v6z" fill="#ccc"/><path d="m26 34h-22a2 2 0 0 1 -2-2v-10a4 4 0 0 1 4-4h52a4 4 0 0 1 4 4v10a2 2 0 0 1 -2 2h-22" fill="#213d68"/><path d="m29 18h6v12h-6z" fill="#4c6cb5"/><path d="m4 34v24a4 4 0 0 0 4 4h48a4 4 0 0 0 4-4v-24" fill="#6b94c1"/><g fill="#3b5892"><rect height="12" rx="2" width="12" x="26" y="30"/><path d="m9 18v-2a2 2 0 0 1 2-2h4a2 2 0 0 1 2 2v2"/><path d="m47 18v-2a2 2 0 0 1 2-2h4a2 2 0 0 1 2 2v2"/></g><path d="m30 42v-4a2 2 0 0 1 2-2 2 2 0 0 1 2 2v4" fill="#213d68"/><path d="m10 34v5a3 3 0 0 0 3 3 3 3 0 0 0 3-3v-5" fill="#4c6cb5"/><path d="m48 34v5a3 3 0 0 0 3 3 3 3 0 0 0 3-3v-5" fill="#4c6cb5"/><path d="m8 34v-2a2 2 0 0 1 2-2h6a2 2 0 0 1 2 2v2" fill="#3b5892"/><path d="m46 34v-2a2 2 0 0 1 2-2h6a2 2 0 0 1 2 2v2" fill="#3b5892"/><path d="m25 18v-2a2 2 0 0 1 2-2h10a2 2 0 0 1 2 2v2" fill="#3b5892"/><path d="m53.157 14.016c-.053 0-.1-.016-.157-.016h-4a2 2 0 0 0 -2 2v2h4.014a14.948 14.948 0 0 0 2.143-3.984z" fill="#4c6cb5"/><path d="m15.157 14.016c-.053 0-.1-.016-.157-.016h-4a2 2 0 0 0 -2 2v2h4.014a14.948 14.948 0 0 0 2.143-3.984z" fill="#4c6cb5"/><path d="m58 17h-2v-1a3 3 0 0 0 -2-2.816v-5.184a7.008 7.008 0 0 0 -7-7h-30a7.008 7.008 0 0 0 -7 7v5.184a3 3 0 0 0 -2 2.816v1h-2a5.006 5.006 0 0 0 -5 5v10a3 3 0 0 0 2 2.816v23.184a5.006 5.006 0 0 0 5 5h48a5.006 5.006 0 0 0 5-5v-23.184a3 3 0 0 0 2-2.816v-10a5.006 5.006 0 0 0 -5-5zm-10 0v-1a1 1 0 0 1 1-1h4a1 1 0 0 1 1 1v1zm-15 24h-2v-3a1 1 0 0 1 2 0zm-1-6a3 3 0 0 0 -3 3v3h-1a1 1 0 0 1 -1-1v-8a1 1 0 0 1 1-1h8a1 1 0 0 1 1 1v8a1 1 0 0 1 -1 1h-1v-3a3 3 0 0 0 -3-3zm-2-6v-10h4v10zm-4-12v-1a1 1 0 0 1 1-1h10a1 1 0 0 1 1 1v1zm11-4h-10a3 3 0 0 0 -3 3v1h-6v-1a3 3 0 0 0 -2-2.816v-5.184a1 1 0 0 1 1-1h8.586a2.394 2.394 0 0 1 1.706.707 4.385 4.385 0 0 0 3.122 1.293h3.172a4.385 4.385 0 0 0 3.122-1.293 2.394 2.394 0 0 1 1.706-.707h8.586a1 1 0 0 1 1 1v5.184a3 3 0 0 0 -2 2.816v1h-6v-1a3 3 0 0 0 -3-3zm-20-10h30a5.006 5.006 0 0 1 5 5v5h-2v-5a3 3 0 0 0 -3-3h-8.586a4.385 4.385 0 0 0 -3.122 1.293 2.394 2.394 0 0 1 -1.706.707h-3.172a2.394 2.394 0 0 1 -1.706-.707 4.385 4.385 0 0 0 -3.122-1.293h-8.586a3 3 0 0 0 -3 3v5h-2v-5a5.006 5.006 0 0 1 5-5zm-7 13a1 1 0 0 1 1-1h4a1 1 0 0 1 1 1v1h-6zm-7 6a3 3 0 0 1 3-3h22v10a3 3 0 0 0 -3 3v1h-6v-1a3 3 0 0 0 -3-3h-6a3 3 0 0 0 -3 3v1h-3a1 1 0 0 1 -1-1zm14 11h-8v-1a1 1 0 0 1 1-1h6a1 1 0 0 1 1 1zm-6 2h4v4a2 2 0 0 1 -4 0zm45 26h-48a3 3 0 0 1 -3-3v-23h4v4a4 4 0 0 0 8 0v-4h8v5a3 3 0 0 0 3 3h8a3 3 0 0 0 3-3v-5h8v4a4 4 0 0 0 8 0v-4h4v23a3 3 0 0 1 -3 3zm-7-26h4v4a2 2 0 0 1 -4 0zm6-2h-8v-1a1 1 0 0 1 1-1h6a1 1 0 0 1 1 1zm6-1a1 1 0 0 1 -1 1h-3v-1a3 3 0 0 0 -3-3h-6a3 3 0 0 0 -3 3v1h-6v-1a3 3 0 0 0 -3-3v-10h22a3 3 0 0 1 3 3z"/></svg>