<svg id="Layer_3" height="512" viewBox="0 0 64 64" width="512" xmlns="http://www.w3.org/2000/svg" data-name="Layer 3"><path d="m44.1 39a12.239 12.239 0 0 1 -1.1-5.071v-3.858a12.239 12.239 0 0 1 1.1-5.071h3.9a7 7 0 0 1 7 7 7 7 0 0 1 -7 7z" fill="#efb4c4"/><path d="m43.047 35q-.047-.532-.047-1.071v-3.858c0-.358.016-.713.047-1.067l4.953-.004a3 3 0 0 1 3 3 3 3 0 0 1 -3 3z" fill="#f2f2f2"/><path d="m19.9 39a12.239 12.239 0 0 0 1.1-5.071v-3.858a12.239 12.239 0 0 0 -1.1-5.071h-3.9a7 7 0 0 0 -7 7 7 7 0 0 0 7 7z" fill="#efb4c4"/><path d="m20.953 35q.047-.532.047-1.071v-3.858c0-.358-.016-.713-.047-1.067l-4.953-.004a3 3 0 0 0 -3 3 3 3 0 0 0 3 3z" fill="#f2f2f2"/><path d="m46.586 42.586a12.243 12.243 0 0 1 -3.586-8.657v-3.858a12.243 12.243 0 0 1 3.586-8.657 4.828 4.828 0 0 0 1.414-3.414 16 16 0 0 0 -16-16 16 16 0 0 0 -16 16 4.828 4.828 0 0 0 1.414 3.414 12.243 12.243 0 0 1 3.586 8.657v3.858a12.243 12.243 0 0 1 -3.586 8.657 4.828 4.828 0 0 0 -1.414 3.414 16 16 0 0 0 16 16 16 16 0 0 0 16-16 4.828 4.828 0 0 0 -1.414-3.414z" fill="#f8ced7"/><path d="m39 34.757a15.072 15.072 0 0 0 4.414 10.657 2 2 0 0 1 .586 1.414 11.172 11.172 0 0 1 -11.172 11.172h-1.656a11.172 11.172 0 0 1 -11.172-11.172 2 2 0 0 1 .586-1.414 15.072 15.072 0 0 0 4.414-10.657v-5.514a15.072 15.072 0 0 0 -4.414-10.657 2 2 0 0 1 -.586-1.414 11.172 11.172 0 0 1 11.172-11.172h1.656a11.172 11.172 0 0 1 11.172 11.172 2 2 0 0 1 -.586 1.414 15.072 15.072 0 0 0 -4.414 10.657z" fill="#f2f2f2"/><g fill="#c8cded"><path d="m31 11h2v2h-2z"/><path d="m31 15h2v2h-2z"/><path d="m27 15h2v2h-2z"/><path d="m35 15h2v2h-2z"/><path d="m29 19h2v2h-2z"/><path d="m33 19h2v2h-2z"/><path d="m31 51h2v2h-2z"/><path d="m31 47h2v2h-2z"/><path d="m27 47h2v2h-2z"/><path d="m35 47h2v2h-2z"/><path d="m29 43h2v2h-2z"/><path d="m33 43h2v2h-2z"/></g><rect fill="#e2e7f6" height="16" rx="3" width="6" x="29" y="24"/><path d="m40 29.243a13.978 13.978 0 0 1 4.121-9.95 2.978 2.978 0 0 0 .879-2.122 12.185 12.185 0 0 0 -12.171-12.171h-1.658a12.185 12.185 0 0 0 -12.171 12.171 2.978 2.978 0 0 0 .879 2.122 13.978 13.978 0 0 1 4.121 9.95v5.514a13.978 13.978 0 0 1 -4.121 9.95 2.978 2.978 0 0 0 -.879 2.122 12.185 12.185 0 0 0 12.171 12.171h1.658a12.185 12.185 0 0 0 12.171-12.171 2.978 2.978 0 0 0 -.879-2.122 13.978 13.978 0 0 1 -4.121-9.95zm2.707 16.878a1 1 0 0 1 .293.708 10.183 10.183 0 0 1 -10.171 10.171h-1.658a10.183 10.183 0 0 1 -10.171-10.171 1 1 0 0 1 .293-.708 15.962 15.962 0 0 0 4.707-11.364v-5.514a15.962 15.962 0 0 0 -4.707-11.364 1 1 0 0 1 -.293-.708 10.183 10.183 0 0 1 10.171-10.171h1.658a10.183 10.183 0 0 1 10.171 10.171 1 1 0 0 1 -.293.708 15.962 15.962 0 0 0 -4.707 11.364v5.514a15.962 15.962 0 0 0 4.707 11.364z"/><path d="m56 32a8.009 8.009 0 0 0 -8-8h-2.215a11.276 11.276 0 0 1 1.508-1.879 5.787 5.787 0 0 0 1.707-4.121 17 17 0 0 0 -34 0 5.787 5.787 0 0 0 1.707 4.121 11.276 11.276 0 0 1 1.508 1.879h-2.215a8 8 0 0 0 0 16h2.215a11.276 11.276 0 0 1 -1.508 1.879 5.787 5.787 0 0 0 -1.707 4.121 17 17 0 0 0 34 0 5.787 5.787 0 0 0 -1.707-4.121 11.276 11.276 0 0 1 -1.508-1.879h2.215a8.009 8.009 0 0 0 8-8zm-12 1.929v-3.858c0-.024 0-.047 0-.071h4a2 2 0 0 1 0 4h-4c0-.024 0-.047 0-.071zm-24-3.858v3.858.071h-4a2 2 0 0 1 0-4h4zm-4 7.929a6 6 0 0 1 0-12h3.233a11.16 11.16 0 0 1 .572 2h-3.805a4 4 0 0 0 0 8h3.805a11.16 11.16 0 0 1 -.572 2zm31 8a15 15 0 0 1 -30 0 3.8 3.8 0 0 1 1.121-2.707 13.153 13.153 0 0 0 3.879-9.364v-3.858a13.153 13.153 0 0 0 -3.879-9.364 3.8 3.8 0 0 1 -1.121-2.707 15 15 0 0 1 30 0 3.8 3.8 0 0 1 -1.121 2.707 13.153 13.153 0 0 0 -3.879 9.364v3.858a13.153 13.153 0 0 0 3.879 9.364 3.8 3.8 0 0 1 1.121 2.707zm-2.8-10h3.8a4 4 0 0 0 0-8h-3.8a11.16 11.16 0 0 1 .572-2h3.228a6 6 0 0 1 0 12h-3.233a11.16 11.16 0 0 1 -.567-2z"/><path d="m31 11h2v2h-2z"/><path d="m31 15h2v2h-2z"/><path d="m27 15h2v2h-2z"/><path d="m35 15h2v2h-2z"/><path d="m29 19h2v2h-2z"/><path d="m33 19h2v2h-2z"/><path d="m31 51h2v2h-2z"/><path d="m31 47h2v2h-2z"/><path d="m27 47h2v2h-2z"/><path d="m35 47h2v2h-2z"/><path d="m29 43h2v2h-2z"/><path d="m33 43h2v2h-2z"/><path d="m32 23a4 4 0 0 0 -4 4v10a4 4 0 0 0 8 0v-10a4 4 0 0 0 -4-4zm2 14a2 2 0 0 1 -4 0v-10a2 2 0 0 1 4 0z"/></svg>