<svg id="Layer_3" height="512" viewBox="0 0 64 64" width="512" xmlns="http://www.w3.org/2000/svg" data-name="Layer 3"><path d="m42 62h12a2 2 0 0 0 2-2v-36a2 2 0 0 0 -2-2h-24a2 2 0 0 0 -2 2v7.1a5.006 5.006 0 0 1 3.9 3.91c.034 0 .066-.01.1-.01a5 5 0 0 1 5 5h1a4 4 0 0 1 4 4z" fill="#e1656e"/><path d="m28 24v7.1a5.006 5.006 0 0 1 3.9 3.91c.034 0 .066-.01.1-.01a5 5 0 0 1 5 5h1a4 4 0 0 1 4 4v8.206a40.019 40.019 0 0 0 .081-30.206h-12.081a2 2 0 0 0 -2 2z" fill="#ed7785"/><path d="m39 10h6v6h-6z" fill="#f29b99"/><path d="m32 22v-4a2 2 0 0 1 2-2h16a2 2 0 0 1 2 2v4" fill="#ccc"/><path d="m42 54c5.523 0 10-5.373 10-12s-4.477-12-10-12a9.675 9.675 0 0 0 -8.3 5.3l.243.094a5 5 0 0 1 3.057 4.606h1a4 4 0 0 1 4 4z" fill="#f29b99"/><path d="m35 4a2 2 0 0 1 2-2h18.172a5 5 0 0 1 3.535 1.464l3.293 3.536-3 3-2.879-3.121a3 3 0 0 0 -2.121-.879h-17a2 2 0 0 1 -2-2z" fill="#ccc"/><path d="m37 6v2a2 2 0 0 0 2 2h6a2 2 0 0 0 2-2v-2" fill="#e1656e"/><path d="m37 40h1a4 4 0 0 1 4 4v18h-36a4 4 0 0 1 -4-4v-14a4 4 0 0 1 4-4h1" fill="#f8ced7"/><path d="m32 35c-.034 0-.066.009-.1.01a4.97 4.97 0 0 0 -5.844-3.91 4.974 4.974 0 0 0 -8.112 0 4.97 4.97 0 0 0 -5.844 3.91c-.034 0-.066-.01-.1-.01a5 5 0 1 0 .944 9.905 4.986 4.986 0 0 0 5.066 1.995c0 .034-.01.067-.01.1a4 4 0 0 0 8 0c0-.035-.009-.068-.01-.1a4.986 4.986 0 0 0 5.066-1.993 5 5 0 1 0 .944-9.907z" fill="#ffe6ed"/><g fill="#e2acba"><circle cx="8" cy="50" r="2"/><circle cx="36" cy="56" r="2"/><circle cx="17" cy="56" r="2"/></g><circle cx="6" cy="23" fill="#ffe6ed" r="4"/><circle cx="17" cy="12" fill="#ffe6ed" r="3"/><path d="m33.7 35.3.243.094a5 5 0 0 1 3.057 4.606h1a4 4 0 0 1 4 4v8.206a39.871 39.871 0 0 0 3-15.206 40.279 40.279 0 0 0 -.556-6.624 8.415 8.415 0 0 0 -2.444-.376 9.675 9.675 0 0 0 -8.3 5.3z" fill="#f9b2b2"/><path d="m39.043 16h-5.043a2 2 0 0 0 -2 2v4h10.081a39.719 39.719 0 0 0 -3.038-6z" fill="#e0e0e0"/><path d="m62.731 6.318-3.317-3.56a5.954 5.954 0 0 0 -4.242-1.758h-18.172a2.993 2.993 0 0 0 -1 5.816v1.184a3 3 0 0 0 2 2.816v4.184h-4a3 3 0 0 0 -3 3v3h-1a3 3 0 0 0 -3 3v6.02c-.174 0-.345-.012-.521 0a5.968 5.968 0 0 0 -8.958 0 5.951 5.951 0 0 0 -6.191 4.013 6.006 6.006 0 0 0 -5.236 4.967h-.094a5.006 5.006 0 0 0 -5 5v14a5.006 5.006 0 0 0 5 5h48a3 3 0 0 0 3-3v-36a3 3 0 0 0 -3-3h-1v-3a3 3 0 0 0 -3-3h-4v-4.184a3 3 0 0 0 2-2.816v-1h6a1.968 1.968 0 0 1 1.386.557l2.879 3.121a1 1 0 0 0 .714.322h.021a1 1 0 0 0 .707-.293l3-3a1 1 0 0 0 .024-1.389zm-50.777 29.682a1.413 1.413 0 0 0 .146.01 1 1 0 0 0 .98-.8 3.973 3.973 0 0 1 4.677-3.13 1.007 1.007 0 0 0 1-.4 3.973 3.973 0 0 1 6.486 0 1.006 1.006 0 0 0 1 .4 3.973 3.973 0 0 1 4.677 3.13 1 1 0 0 0 .98.8c.034 0 .093 0 .143-.01a4 4 0 1 1 -.8 7.923 1 1 0 0 0 -1 .4 4.059 4.059 0 0 1 -4.052 1.6 1 1 0 0 0 -1.2 1.007c0 .042 0 .083.011.126a3 3 0 0 1 -6 0c0-.043.01-.094.011-.122a1 1 0 0 0 -1.2-1.007 4.059 4.059 0 0 1 -4.052-1.6 1.006 1.006 0 0 0 -1-.4 4 4 0 1 1 -.8-7.923zm29.046 25h-35a3 3 0 0 1 -3-3v-14a3 3 0 0 1 3-3h.09a5.95 5.95 0 0 0 6.431 4.976 6.008 6.008 0 0 0 4.479 2.024h.1a5 5 0 0 0 9.8 0h.1a6.008 6.008 0 0 0 4.479-2.024 5.953 5.953 0 0 0 6.43-4.976h.091a3 3 0 0 1 3 3zm-3-22h-.094a5.988 5.988 0 0 0 -2.771-4.087 8.446 8.446 0 0 1 6.865-3.913c4.963 0 9 4.935 9 11 0 5.652-3.507 10.318-8 10.928v-8.928a5.006 5.006 0 0 0 -5-5zm17-15v36a1 1 0 0 1 -1 1h-11v-6.06c5.6-.6 10-6.171 10-12.94 0-7.168-4.935-13-11-13a10.5 10.5 0 0 0 -8.751 5.157 5.883 5.883 0 0 0 -.579-.12 6 6 0 0 0 -3.67-3.685v-6.352a1 1 0 0 1 1-1h24a1 1 0 0 1 1 1zm-4-6v3h-18v-3a1 1 0 0 1 1-1h16a1 1 0 0 1 1 1zm-11-3v-4h4v4zm6-7a1 1 0 0 1 -1 1h-6a1 1 0 0 1 -1-1v-1h8zm13.029.557-2.2-2.385a3.973 3.973 0 0 0 -2.829-1.172h-17a1 1 0 0 1 0-2h18.172a3.958 3.958 0 0 1 2.8 1.146l2.634 2.83z"/><path d="m8 47a3 3 0 1 0 3 3 3 3 0 0 0 -3-3zm0 4a1 1 0 1 1 1-1 1 1 0 0 1 -1 1z"/><path d="m36 53a3 3 0 1 0 3 3 3 3 0 0 0 -3-3zm0 4a1 1 0 1 1 1-1 1 1 0 0 1 -1 1z"/><path d="m17 53a3 3 0 1 0 3 3 3 3 0 0 0 -3-3zm0 4a1 1 0 1 1 1-1 1 1 0 0 1 -1 1z"/><path d="m6 28a5 5 0 1 0 -5-5 5.006 5.006 0 0 0 5 5zm0-8a3 3 0 1 1 -3 3 3 3 0 0 1 3-3z"/><path d="m17 16a4 4 0 1 0 -4-4 4 4 0 0 0 4 4zm0-6a2 2 0 1 1 -2 2 2 2 0 0 1 2-2z"/></svg>