<svg id="Layer_3" height="512" viewBox="0 0 64 64" width="512" xmlns="http://www.w3.org/2000/svg" data-name="Layer 3"><path d="m37 7.507v1.493a15 15 0 0 0 3 9h-1.586a3.415 3.415 0 0 1 -2.414-1 3.415 3.415 0 0 0 -2.414-1h-.172a3.415 3.415 0 0 0 -2.414 1 3.415 3.415 0 0 1 -2.414 1h-.172a3.415 3.415 0 0 1 -2.414-1l-.827-.827a15 15 0 0 0 1.827-7.173v-1.493-.007l2-.5 3 1 3-1 2 .5z" fill="#dce9f9"/><path d="m40 18a15 15 0 0 1 3 9v4.586a3.415 3.415 0 0 1 -1 2.414 3.415 3.415 0 0 0 -1 2.414v8.465a5.122 5.122 0 0 0 1.5 3.621 5.122 5.122 0 0 1 1.5 3.621v5.879a4 4 0 0 1 -4 4h-16a4 4 0 0 1 -4-4v-5.879a5.122 5.122 0 0 1 1.5-3.621 5.122 5.122 0 0 0 1.5-3.621v-8.465a3.415 3.415 0 0 0 -1-2.414 3.415 3.415 0 0 1 -1-2.414v-4.586a15 15 0 0 1 3-9 14.92 14.92 0 0 0 1.174-1.827l.826.827a3.415 3.415 0 0 0 2.414 1h.172a3.415 3.415 0 0 0 2.414-1 3.415 3.415 0 0 1 2.414-1h.172a3.415 3.415 0 0 1 2.414 1 3.415 3.415 0 0 0 2.414 1z" fill="#c0dafc"/><path d="m23 36h18v10h-18z" fill="#5e87ca"/><path d="m39 8v-4a2 2 0 0 0 -2-2h-10a2 2 0 0 0 -2 2v4l4-1 3 1 3-1z" fill="#4c6cb5"/><g fill="#a3cbef"><circle cx="28" cy="24" r="2"/><circle cx="37" cy="30" r="2"/><path d="m36.5 24a1.5 1.5 0 1 1 1.5-1.5 1.5 1.5 0 0 1 -1.5 1.5z"/><path d="m25.5 33a1.5 1.5 0 1 1 1.5-1.5 1.5 1.5 0 0 1 -1.5 1.5z"/><path d="m25.5 52a1.5 1.5 0 1 1 1.5-1.5 1.5 1.5 0 0 1 -1.5 1.5z"/><path d="m37.5 59a1.5 1.5 0 1 1 1.5-1.5 1.5 1.5 0 0 1 -1.5 1.5z"/></g><path d="m23 36v10h8.766a15.009 15.009 0 0 0 7.234-10z" fill="#78a0d4"/><path d="m43.207 47.793a4.151 4.151 0 0 1 -1.207-2.914v-8.465a2.4 2.4 0 0 1 .707-1.707 4.384 4.384 0 0 0 1.293-3.121v-4.586a16.106 16.106 0 0 0 -3.2-9.6 14.087 14.087 0 0 1 -2.8-8.4v-.22l.758.19a1 1 0 0 0 1.242-.97v-4a3 3 0 0 0 -3-3h-10a3 3 0 0 0 -3 3v4a1 1 0 0 0 1.242.97l.758-.19v.22a14.087 14.087 0 0 1 -2.8 8.4 16.106 16.106 0 0 0 -3.2 9.6v4.586a4.384 4.384 0 0 0 1.293 3.121 2.4 2.4 0 0 1 .707 1.707v8.465a4.151 4.151 0 0 1 -1.207 2.914 6.081 6.081 0 0 0 -1.793 4.328v5.879a5.006 5.006 0 0 0 5 5h16a5.006 5.006 0 0 0 5-5v-5.879a6.081 6.081 0 0 0 -1.793-4.328zm-17.207-43.793a1 1 0 0 1 1-1h10a1 1 0 0 1 1 1v2.719l-2.758-.689a.982.982 0 0 0 -.558.022l-2.684.894-2.684-.894a1 1 0 0 0 -.316-.052.99.99 0 0 0 -.242.03l-2.758.689zm2.96 4.041 2.724.907a.991.991 0 0 0 .632 0l2.724-.907.96.24v.719a16.1 16.1 0 0 0 2.146 7.974 2.388 2.388 0 0 1 -1.439-.681 4.384 4.384 0 0 0 -3.121-1.293h-.172a4.384 4.384 0 0 0 -3.121 1.293 2.4 2.4 0 0 1 -1.707.707h-.172a2.4 2.4 0 0 1 -1.707-.707l-.323-.323a16.085 16.085 0 0 0 1.616-6.97v-.719zm-6.96 18.959a14.087 14.087 0 0 1 2.8-8.4c.2-.269.386-.549.57-.83a4.375 4.375 0 0 0 3.044 1.23h.172a4.384 4.384 0 0 0 3.121-1.293 2.4 2.4 0 0 1 1.707-.707h.172a2.4 2.4 0 0 1 1.707.707 4.384 4.384 0 0 0 3.121 1.293h1.062a14.09 14.09 0 0 1 2.524 8v4.586a2.4 2.4 0 0 1 -.707 1.707 4.385 4.385 0 0 0 -1.043 1.707h-16.5a4.385 4.385 0 0 0 -1.043-1.707 2.4 2.4 0 0 1 -.707-1.707zm18.006 18h-16.012c0-.041.006-.08.006-.121v-7.879h16v7.879c0 .041.005.08.006.121zm2.994 13a3 3 0 0 1 -3 3h-16a3 3 0 0 1 -3-3v-5.879a4.151 4.151 0 0 1 1.207-2.914 6.093 6.093 0 0 0 1.41-2.207h16.766a6.093 6.093 0 0 0 1.41 2.207 4.151 4.151 0 0 1 1.207 2.914z"/><path d="m28 27a3 3 0 1 0 -3-3 3 3 0 0 0 3 3zm0-4a1 1 0 1 1 -1 1 1 1 0 0 1 1-1z"/><path d="m37 33a3 3 0 1 0 -3-3 3 3 0 0 0 3 3zm0-4a1 1 0 1 1 -1 1 1 1 0 0 1 1-1z"/><path d="m36.5 24a1.5 1.5 0 1 0 -1.5-1.5 1.5 1.5 0 0 0 1.5 1.5z"/><path d="m25.5 33a1.5 1.5 0 1 0 -1.5-1.5 1.5 1.5 0 0 0 1.5 1.5z"/><path d="m25.5 49a1.5 1.5 0 1 0 1.5 1.5 1.5 1.5 0 0 0 -1.5-1.5z"/><path d="m37.5 56a1.5 1.5 0 1 0 1.5 1.5 1.5 1.5 0 0 0 -1.5-1.5z"/></svg>