<svg id="Layer_3" height="512" viewBox="0 0 64 64" width="512" xmlns="http://www.w3.org/2000/svg" data-name="Layer 3"><path d="m23 42h8v20h-8z" fill="#3b5892"/><path d="m23 42v-6a2 2 0 0 1 2-2h4a2 2 0 0 1 2 2v6z" fill="#213d68"/><path d="m29 34v-4.343a13.658 13.658 0 0 0 -4-9.657v-16a2 2 0 0 0 -2-2 2 2 0 0 0 -2 2v15.172a6.826 6.826 0 0 0 2 4.828 6.826 6.826 0 0 1 2 4.828v5.172" fill="#b5b5b5"/><path d="m25 4 8-1v18l-8-1" fill="#e8e8e8"/><g fill="#ccc"><path d="m25 6h5v2h-5z"/><path d="m25 9h5v2h-5z"/><path d="m25 12h5v2h-5z"/><path d="m25 15h5v2h-5z"/></g><path d="m36 4a3 3 0 0 0 -3 3v10a3 3 0 0 0 3 3 3 3 0 0 0 3-3 1 1 0 0 1 1-1 2.414 2.414 0 0 1 1.707.707l1.293 1.293v-3.764a3.618 3.618 0 0 0 -2-3.236 3.618 3.618 0 0 1 -2-3.236v-.764a3 3 0 0 0 -3-3z" fill="#c0dafc"/><path d="m29.428 34.048a2.012 2.012 0 0 0 -.428-.048h-4a2 2 0 0 0 -2 2v6h4.247a17.389 17.389 0 0 0 2.181-7.952z" fill="#3b5892"/><path d="m23 47.069a17.557 17.557 0 0 0 4.247-5.069h-4.247z" fill="#4c6cb5"/><path d="m41.447 10.105a2.6 2.6 0 0 1 -1.447-2.341v-.764a4 4 0 0 0 -4-4 3.959 3.959 0 0 0 -2 .556v-.556a1 1 0 0 0 -.338-.75 1.013 1.013 0 0 0 -.786-.242l-7.093.886a3 3 0 0 0 -5.783 1.106v15.172a7.883 7.883 0 0 0 2.293 5.535 5.868 5.868 0 0 1 1.707 4.121v4.356a3 3 0 0 0 -2 2.816v26a1 1 0 0 0 1 1h8a1 1 0 0 0 1-1v-26a3 3 0 0 0 -2-2.816v-3.527a14.537 14.537 0 0 0 -2.627-8.357l5.5.688a1.032 1.032 0 0 0 .127.012 1 1 0 0 0 1-1v-.556a3.959 3.959 0 0 0 2 .556 4 4 0 0 0 4-4 1.406 1.406 0 0 1 1 .414l1.293 1.293a1 1 0 0 0 1.707-.707v-3.764a4.6 4.6 0 0 0 -2.553-4.131zm-16.447 24.895h4a1 1 0 0 1 1 1v5h-6v-5a1 1 0 0 1 1-1zm-1 26v-18h6v18zm4-28h-2v-4.172a7.883 7.883 0 0 0 -2.293-5.535 5.868 5.868 0 0 1 -1.707-4.121v-15.172a1 1 0 0 1 2 0v16a1 1 0 0 0 .293.707 12.573 12.573 0 0 1 3.707 8.95zm4-13.133-6-.75v-2.117h4v-2h-4v-1h4v-2h-4v-1h4v-2h-4v-1h4v-2h-4v-1.117l6-.75zm10-4.221a3.391 3.391 0 0 0 -2-.646 2 2 0 0 0 -2 2 2 2 0 0 1 -4 0v-10a2 2 0 0 1 4 0v.764a4.6 4.6 0 0 0 2.553 4.136 2.6 2.6 0 0 1 1.447 2.336z"/></svg>