<?xml version="1.0"?>
<svg xmlns="http://www.w3.org/2000/svg" id="Layer_3" data-name="Layer 3" viewBox="0 0 64 64" width="512" height="512"><path d="M34,32.24V56a6,6,0,0,1-6,6h0a6,6,0,0,1-6-6V54h4v2a2,2,0,0,0,2,2h0a2,2,0,0,0,2-2V32.24h0A8.5,8.5,0,0,1,32,32h0a8.465,8.465,0,0,1,1.946.227Z" style="fill:#ccc"/><path d="M30,13V10a2,2,0,0,1,2-2h0a2,2,0,0,1,2,2v3" style="fill:#b5b5b5"/><path d="M54.611,30.766l-2.759-1.655A7.8,7.8,0,0,0,47.841,28h0a7.8,7.8,0,0,0-3.486.823L40,31l-4.211-2.106A8.478,8.478,0,0,0,32,28h0a8.478,8.478,0,0,0-3.789.894L24,31l-4.354-2.177A7.8,7.8,0,0,0,16.16,28h0a7.8,7.8,0,0,0-4.011,1.111L9.39,30.766h0A23.162,23.162,0,0,0,9,35l3.148-1.889A7.8,7.8,0,0,1,16.159,32h0a7.8,7.8,0,0,1,3.486.823L24,35l4.211-2.106A8.478,8.478,0,0,1,32,32h0a8.478,8.478,0,0,1,3.789.894L40,35l4.354-2.177A7.8,7.8,0,0,1,47.84,32h0a7.8,7.8,0,0,1,4.011,1.111L55,35a23.17,23.17,0,0,0-.389-4.234Z" style="fill:#213d68"/><path d="M54.611,30.766a23,23,0,0,0-45.222,0h0l2.758-1.655A7.8,7.8,0,0,1,16.159,28h0a7.8,7.8,0,0,1,3.486.823L24,31l4.211-2.106A8.478,8.478,0,0,1,32,28h0a8.478,8.478,0,0,1,3.789.894L40,31l4.354-2.177A7.8,7.8,0,0,1,47.84,28h0a7.8,7.8,0,0,1,4.011,1.111l2.759,1.655Z" style="fill:#ccc"/><path d="M24,31l4.211-2.106A8.478,8.478,0,0,1,32,28h0a8.478,8.478,0,0,1,3.789.894L40,31h0a32.5,32.5,0,0,0-4.63-16.717l-1.316-2.192h0C33.378,12.031,32.692,12,32,12s-1.378.031-2.054.09h0L28.63,14.283A32.5,32.5,0,0,0,24,31Z" style="fill:#3b5892"/><path d="M15,2,12.6,5.2A3,3,0,0,0,12,7h0a3,3,0,0,0,3,3h0a3,3,0,0,0,3-3h0a3,3,0,0,0-.6-1.8Z" style="fill:#c0dafc"/><path d="M49,2,46.6,5.2A3,3,0,0,0,46,7h0a3,3,0,0,0,3,3h0a3,3,0,0,0,3-3h0a3,3,0,0,0-.6-1.8Z" style="fill:#c0dafc"/><path d="M59,17l-2.4,3.2A3,3,0,0,0,56,22h0a3,3,0,0,0,3,3h0a3,3,0,0,0,3-3h0a3,3,0,0,0-.6-1.8Z" style="fill:#c0dafc"/><path d="M5,17,2.6,20.2A3,3,0,0,0,2,22H2a3,3,0,0,0,3,3H5a3,3,0,0,0,3-3H8a3,3,0,0,0-.6-1.8Z" style="fill:#c0dafc"/><path d="M55.515,30.143l-.011-.007A24.055,24.055,0,0,0,35,11.194V10a3,3,0,0,0-6,0v1.194A24.055,24.055,0,0,0,8.5,30.136l-.011.007.007.011A24.029,24.029,0,0,0,8,35a1,1,0,0,0,1.515.857l3.148-1.888a6.9,6.9,0,0,1,6.536-.251L23.553,35.9a1,1,0,0,0,.894,0l4.211-2.106c.111-.055.228-.1.342-.146V56a1,1,0,0,1-2,0V54a1,1,0,0,0-1-1H22a1,1,0,0,0-1,1v2a7,7,0,0,0,14,0V33.643c.114.05.231.091.342.146L39.553,35.9a1,1,0,0,0,.894,0L44.8,33.718a6.907,6.907,0,0,1,6.536.25l3.148,1.889A1,1,0,0,0,56,35a24.029,24.029,0,0,0-.492-4.846Zm-2.461-1.477-.688-.413a8.943,8.943,0,0,0-8.46-.324l-2.96,1.48a33.483,33.483,0,0,0-4.719-15.64l-.238-.4A22.055,22.055,0,0,1,53.054,28.666ZM30.523,13.071C31.013,13.038,31.5,13,32,13s.987.038,1.477.071L34.512,14.8a31.492,31.492,0,0,1,4.432,14.557L36.236,28a9.63,9.63,0,0,0-8.472,0l-2.708,1.354A31.492,31.492,0,0,1,29.488,14.8ZM31,10a1,1,0,0,1,2,0v1.025c-.332-.013-.665-.025-1-.025s-.668.012-1,.025Zm-2.989,3.372-.238.4a33.49,33.49,0,0,0-4.719,15.641l-2.96-1.48a8.946,8.946,0,0,0-8.46.324l-.688.413A22.055,22.055,0,0,1,28.011,13.372ZM33,56a5,5,0,0,1-10,0V55h2v1a3,3,0,0,0,6,0V33.086a7.784,7.784,0,0,1,2,0ZM52.366,32.253a8.943,8.943,0,0,0-8.46-.324L40,33.882,36.236,32a9.472,9.472,0,0,0-8.472,0L24,33.882l-3.906-1.953a8.943,8.943,0,0,0-8.46.324l-1.56.936c.05-.611.137-1.212.236-1.809l2.353-1.411a6.9,6.9,0,0,1,6.536-.251L23.553,31.9a1,1,0,0,0,.894,0l4.211-2.106a7.6,7.6,0,0,1,6.684,0L39.553,31.9a1,1,0,0,0,.894,0L44.8,29.718a6.91,6.91,0,0,1,6.536.25L53.69,31.38c.1.6.186,1.2.236,1.809Z"/><path d="M15,11a4,4,0,0,0,3.2-6.4L15.8,1.4a1.036,1.036,0,0,0-1.6,0L11.8,4.6A4,4,0,0,0,15,11ZM13.4,5.8,15,3.667,16.6,5.8a2,2,0,1,1-3.2,0Z"/><path d="M49,11a4,4,0,0,0,3.2-6.4L49.8,1.4a1.036,1.036,0,0,0-1.6,0L45.8,4.6A4,4,0,0,0,49,11ZM47.4,5.8,49,3.667,50.6,5.8a2,2,0,1,1-3.2,0Z"/><path d="M62.2,19.6l-2.4-3.2a1.036,1.036,0,0,0-1.6,0l-2.4,3.2a4,4,0,1,0,6.4,0ZM59,24a2,2,0,0,1-1.6-3.2L59,18.667,60.6,20.8A2,2,0,0,1,59,24Z"/><path d="M8.2,19.6,5.8,16.4a1.036,1.036,0,0,0-1.6,0L1.8,19.6A4,4,0,1,0,9,22,4.029,4.029,0,0,0,8.2,19.6ZM5,24a2,2,0,0,1-1.6-3.2L5,18.667,6.6,20.8A2,2,0,0,1,5,24Z"/></svg>
