<svg xmlns="http://www.w3.org/2000/svg" xmlns:xlink="http://www.w3.org/1999/xlink" width="100" height="100" viewBox="0 0 100 100"><circle stroke="none" fill="#f1f2f2" r="48%" cx="50%" cy="50%"></circle><g transform="translate(50 50) scale(0.69 0.69) rotate(0) translate(-50 -50)" style="fill:#05224c"><svg fill="#05224c" xmlns="http://www.w3.org/2000/svg" xmlns:xlink="http://www.w3.org/1999/xlink" version="1.1" x="0px" y="0px" viewBox="0 0 32 32" enable-background="new 0 0 32 32" xml:space="preserve"><g><path d="M19.041,15.295C21.379,14.16,23,11.769,23,9c0-3.859-3.141-7-7-7S9,5.141,9,9c0,2.769,1.621,5.16,3.959,6.295   C6.459,16.573,2,21.942,2,29c0,0.553,0.447,1,1,1h26c0.553,0,1-0.447,1-1C30,21.942,25.541,16.573,19.041,15.295z M11,9   c0-2.757,2.243-5,5-5s5,2.243,5,5s-2.243,5-5,5S11,11.757,11,9z M4.033,28C4.478,21.474,9.273,17,16,17s11.522,4.474,11.967,11   H4.033z"></path></g></svg></g></svg>