<?xml version="1.0" encoding="UTF-8"?>
<!-- Generator: Adobe Illustrator 25.2.1, SVG Export Plug-In . SVG Version: 6.00 Build 0)  -->
<svg xmlns="http://www.w3.org/2000/svg" xmlns:xlink="http://www.w3.org/1999/xlink" version="1.1" id="Capa_1" x="0px" y="0px" viewBox="0 0 512 512" style="enable-background:new 0 0 512 512;" xml:space="preserve" width="512" height="512">
<g>
	<g>
		<g>
			<g>
				<g>
					<path style="fill:#915EFD;" d="M157.447,464.657c-4.497,0.217-9.086,0.034-13.683-0.567       c-33.306-4.367-62.822-29.624-82.594-56.463c-20.595-27.978-27.883-55.349-25.148-78.768c0.348-2.992,0.865-5.902,1.535-8.752       c5.242-22.381,20.131-40.378,41.367-50.6c20.349-9.795,45.242-4.538,64.807-17.272c12.256-7.963,16.95-21.386,23.755-33.614       c10.192-18.33,34.505-43.971,58.08-34.53c7.442,2.993,12.458,11.852,12.017,19.377c-1.605,27.908,14.343,42.231,33.27,41.182       c5.098-0.272,5.133,0.634,4.2,4.892c-4.181,19.224,6.054,36.282,34.365,40.615c9.533,1.45,17.893,10.384,17.154,21.249       c-0.007,0.176-0.025,0.361-0.041,0.545c-3.284,34.143-43.148,41.274-68.47,51.492c-27.885,11.25-31.09,49.189-39.052,63.123       C205.982,449.402,182.871,463.403,157.447,464.657z"/>
					<path style="fill:#915EFD;" d="M476.737,120.259c-9.026,6.071-15.665,13.257-25.885,18.693       c-5.013,2.669-15.569,4.811-24.645,3.803c-0.254-0.018-0.508-0.055-0.762-0.092c-2.675-0.351-5.605-1.033-8.343-2.086       c-1.271-0.479-2.504-1.036-3.659-1.691c-1.39-0.751-2.664-1.639-3.724-2.645c-0.942-0.891-1.71-1.861-2.284-2.929       c-0.019,0-0.019-0.019-0.019-0.019c-0.673-1.263-1.228-2.527-1.666-3.792c-0.477-1.284-0.817-2.569-1.061-3.854       c-0.627-3.136-0.708-6.314-0.36-9.535c0.416-4.567,1.651-9.198,3.256-13.871c2.695-7.84,7.786-13.162,13.214-17.901       c2.908-2.556,5.894-4.937,8.646-7.453c18.699-17.16,18.39-22.307,26.892-28.082c8.094-5.479,9.26,5.044,20.939,7.126       c7.499,1.351,16.26,1.874,20.931,14.246c1.154,3.112,1.067,10.174,0.943,11.91c-0.442,6.4,3.457,11.6,4.547,14.049       c0.119,0.292,0.218,0.564,0.298,0.856C506.807,105.789,490.81,110.798,476.737,120.259z"/>
				</g>
				<g>
					<g>
						<path style="fill:#4217A6;" d="M195.798,418.689c2.06-1.181,2.78-0.529,3.356,0.668c1.839,3.812,2.387,7.342,2.18,9.085        c-0.295,3.003-2.302,4.963-5.236,3.95c-3.128-1.047-5.484-3.9-7.567-6.544c-0.8-1.023-0.718-1.886,0.157-2.631        c0.564-0.486,2.061-1.365,3.538-2.278C193.669,419.97,195.143,419.044,195.798,418.689z"/>
					</g>
					<g>
						<path style="fill:#4217A6;" d="M176.768,428.4c2.291-0.62,2.824,0.182,3.085,1.489c0.406,2.067,0.535,3.993,0.477,5.622        c-0.07,1.593-0.326,2.885-0.634,3.717c-1.031,2.852-3.478,4.223-6.067,2.516c-2.768-1.797-4.321-5.133-5.672-8.239        c-0.515-1.2-0.212-1.981,0.814-2.5c0.667-0.324,2.323-0.823,3.984-1.312C174.392,429.113,176.046,428.582,176.768,428.4z"/>
					</g>
					<g>
						<path style="fill:#4217A6;" d="M156,432.913c2.355,0.065,2.658,0.929,2.57,2.273c-0.276,4.247-1.562,7.49-2.615,8.95        c-0.884,1.242-2.009,2.035-3.174,2.238c-1.17,0.134-2.375-0.311-3.391-1.446c-2.187-2.432-2.746-6.123-3.164-9.511        c-0.155-1.309,0.348-1.955,1.461-2.124c0.723-0.133,2.433-0.198,4.145-0.208C153.544,433.035,155.263,432.882,156,432.913z"/>
					</g>
					<g>
						<path style="fill:#4217A6;" d="M135.112,431.394c2.201,0.699,2.198,1.755,1.725,2.96c-1.509,3.89-3.746,6.651-5.211,7.725        c-2.485,1.945-5.313,1.405-6.557-1.318c-1.29-3.037-0.595-6.753,0.08-10.043c0.27-1.275,0.974-1.761,2.08-1.557        c0.708,0.185,2.335,0.624,3.947,1.103C132.767,430.808,134.42,431.181,135.112,431.394z"/>
					</g>
					<g>
						<path style="fill:#4217A6;" d="M115.688,423.341c1.951,1.376,1.641,2.345,0.815,3.358c-2.651,3.259-5.585,5.222-7.276,5.833        c-2.889,1.095-5.382-0.035-5.806-2.996c-0.383-3.284,1.16-6.659,2.63-9.701c0.571-1.172,1.381-1.465,2.432-0.981        C109.8,419.553,114.432,422.551,115.688,423.341z"/>
					</g>
					<g>
						<path style="fill:#4217A6;" d="M98.38,410.379c1.625,1.793,1.137,2.644,0.098,3.464c-3.327,2.625-6.586,3.892-8.362,4.14        c-3.034,0.461-5.243-1.109-5.024-4.11c0.253-3.242,2.49-6.286,4.531-8.966c0.796-1.037,1.644-1.157,2.571-0.457        C93.362,405.388,97.316,409.308,98.38,410.379z"/>
					</g>
					<g>
						<path style="fill:#4217A6;" d="M83.932,394.128c1.309,2.025,0.612,2.805-0.553,3.391c-3.735,1.888-7.292,2.573-9.033,2.43        c-2.999-0.193-4.977-2.097-4.101-5.044c0.923-3.154,3.636-5.63,6.208-7.863c0.997-0.859,1.821-0.791,2.624,0.054        c0.515,0.55,1.478,2.019,2.468,3.475C82.568,392.008,83.55,393.475,83.932,394.128z"/>
					</g>
					<g>
						<path style="fill:#4217A6;" d="M73.201,375.368c0.788,2.254-0.063,2.872-1.319,3.199c-4.047,1.061-7.592,0.928-9.317,0.428        c-2.989-0.801-4.321-3.219-2.933-5.856c1.623-2.889,4.892-4.69,7.884-6.252c1.158-0.599,1.98-0.355,2.527,0.648        c0.175,0.326,0.402,0.898,0.667,1.591c0.299,0.684,0.63,1.489,0.948,2.299C72.292,373.047,72.927,374.668,73.201,375.368z"/>
					</g>
					<g>
						<path style="fill:#4217A6;" d="M67.197,354.916c0.191,2.343-0.727,2.719-2.049,2.725c-4.216,0.024-7.658-1.003-9.139-1.955        c-1.296-0.793-2.154-1.859-2.438-3.008c-0.277-1.148,0.13-2.389,1.179-3.483c2.288-2.359,5.905-3.184,9.255-3.851        c1.299-0.251,1.966,0.206,2.235,1.304c0.18,0.712,0.362,2.413,0.488,4.121C66.96,352.471,67.164,354.179,67.197,354.916z"/>
					</g>
					<g>
						<path style="fill:#4217A6;" d="M67.178,333.916c-0.51,2.271-1.56,2.349-2.8,1.97c-4.001-1.208-6.94-3.216-8.136-4.584        c-2.076-2.304-1.864-5.135,0.738-6.604c2.98-1.532,6.692-1.202,10.045-0.821c1.294,0.154,1.842,0.809,1.741,1.927        c-0.037,0.362-0.159,0.955-0.331,1.662c-0.133,0.718-0.288,1.555-0.444,2.392c-0.182,0.832-0.363,1.666-0.519,2.379        C67.362,332.96,67.257,333.56,67.178,333.916z"/>
					</g>
					<g>
						<path style="fill:#4217A6;" d="M73.518,313.918c-1.136,2.046-2.156,1.803-3.226,1.062c-3.451-2.373-5.695-5.196-6.413-6.846        c-1.182-2.749-0.312-5.446,2.655-6.033c3.223-0.604,6.708,0.76,9.825,2.053c1.203,0.505,1.541,1.293,1.114,2.363        C76.851,307.892,74.265,312.65,73.518,313.918z"/>
					</g>
					<g>
						<path style="fill:#4217A6;" d="M85.357,296.058c-1.664,1.714-2.58,1.237-3.435,0.25c-2.752-3.167-4.225-6.419-4.523-8.172        c-0.563-2.999,0.919-5.336,3.959-5.211c3.282,0.148,6.355,2.281,9.086,4.267c1.052,0.772,1.199,1.615,0.54,2.549        C90.1,290.921,86.359,294.942,85.357,296.058z"/>
					</g>
				</g>
				<path style="fill:#FFFFFF;" d="M167.626,347.842c-6.977-11.009-16.5-20.897-29.088-27.007      c-14.381-6.98-26.775-12.494-31.978-28.852c-2.28-7.168,2.081-14.18,7.966-16.952c11.609-5.467,20.124-2.549,31.89-7.766      c25.424-11.274,28.504-32.272,44.098-52.873c13.927-18.399,30.502-12.82,30.774,11.25c0.119,10.532,4.042,19.135,13.429,25.973      c8.671,6.316,17.793,6.154,21.907,6.752c3.006,0.437,2.373,2.79,2.106,4.94c-2.426,19.502,7.906,34.482,23.84,38.213      c10.152,2.377,25.582,7.736,22.434,17.71c-3.98,12.607-20.267,16.456-31.298,19.896c-18.361,5.727-37.29,14.718-46.557,32.485      c-5.397,10.348-2.581,11.285-10.643,25.079c-3.834,6.561-12.658,9.309-20.023,4.941      C175.153,388.981,180.85,368.707,167.626,347.842z"/>
				<path style="fill:#FFCF00;" d="M426.206,142.755c-2.966,2.654-6.454,5.76-10.369,9.26      c-31.165,27.878-89.696,80.213-136.695,122.187c-27.056,24.182-50.293,44.923-62.252,55.579      c-1.608,1.455-2.945,2.83-4.127,3.989c-0.897-2.705-2.145-5.446-3.627-8.167c-0.593-1.088-1.225-2.175-1.895-3.263      c-2.408-3.942-5.264-7.823-8.255-11.468c-0.806-0.969-1.592-1.9-2.38-2.831c-2.694-3.082-5.406-5.93-7.959-8.467      c-0.609-0.6-1.237-1.201-1.866-1.781c-0.922-0.852-1.845-1.703-2.806-2.515c-2.277-1.934-4.688-3.712-7.272-5.156      c5.373-4.115,20.406-15.631,40.33-30.908c9.233-7.087,19.534-14.981,30.416-23.308      c65.218-49.964,151.057-115.677,154.124-117.805c0.95-0.67,1.863-1.34,2.755-1.99c-0.347,3.221-0.267,6.399,0.36,9.535      c0.243,1.286,0.584,2.57,1.061,3.854c0.438,1.265,0.993,2.528,1.666,3.792c0,0,0,0.019,0.019,0.019      c0.573,1.068,1.341,2.038,2.284,2.929c1.061,1.007,2.334,1.895,3.724,2.645c1.155,0.655,2.389,1.212,3.659,1.691      c2.738,1.053,5.669,1.734,8.343,2.086C425.698,142.7,425.951,142.737,426.206,142.755z"/>
				<path style="opacity:0.5;fill:#FD8A02;" d="M415.837,152.015c-49.112,43.921-166.174,148.59-198.947,177.767      c-1.608,1.455-2.945,2.83-4.127,3.989c-0.897-2.705-2.145-5.446-3.627-8.167c-0.593-1.088-1.225-2.175-1.895-3.263      c-2.408-3.942-5.264-7.823-8.255-11.468c-0.806-0.969-1.592-1.9-2.38-2.831c-2.694-3.082-5.406-5.93-7.959-8.467      c-0.609-0.6-1.237-1.201-1.866-1.781c-0.922-0.852-1.845-1.703-2.806-2.515c-2.277-1.934-4.688-3.712-7.272-5.156      c5.373-4.115,20.406-15.631,40.33-30.908c49.627,1.345,86.703-56.533,145.189-90.397      C376.732,160.425,397.373,147.543,415.837,152.015z"/>
				<g>
					<g>
						<path style="fill:#FF8EDE;" d="M210.083,354.619c-3.773,4.279-6.177,3.613-9.856-0.828        c-12.354-14.931-45.638-54.892-47.888-58.562c-2.487-4.058,6.068-10.731,16.676-8.193c2.716,0.644,5.278,1.718,7.687,3.086        c2.585,1.444,4.996,3.222,7.272,5.156c0.961,0.812,1.884,1.664,2.806,2.515c0.629,0.58,1.257,1.181,1.866,1.781        c2.553,2.537,5.265,5.385,7.959,8.467c0.788,0.93,1.574,1.861,2.38,2.831c2.99,3.646,5.847,7.526,8.255,11.468        c0.671,1.088,1.302,2.175,1.895,3.263c1.482,2.72,2.73,5.462,3.627,8.167C215.354,341.455,215.191,348.829,210.083,354.619z"/>
					</g>
					<path style="fill:#FF8EDE;" d="M427.92,104.267c-2.677,2.143-7.162,1.66-9.3-1c-2.134-2.655-1.634-7.237,1.015-9.3       c2.644-2.059,7.305-1.445,9.293,1.223C430.896,97.829,430.401,102.281,427.92,104.267z"/>
					<path style="fill:#FF8EDE;" d="M438.11,87.249c-2.272-2.75-2.119-6.816,0.514-8.955c2.993-2.432,7.419-1.835,9.538,0.878       c1.983,2.539,1.767,6.826-1.164,9.274C444.38,90.631,440.393,90.013,438.11,87.249z"/>
					<path style="fill:#FF8EDE;" d="M489.604,101.808c-2.505,2.004-6.956,1.369-9.036-1.2c-2.163-2.671-1.655-7.332,1.209-9.254       C489.186,86.38,495.997,96.693,489.604,101.808z"/>
					<path style="fill:#FF8EDE;" d="M461.074,115.048c-2.583-2.846-1.679-7.338,0.416-8.989c3.114-2.452,6.871-2.227,9.506,0.757       C476.089,112.584,466.945,121.519,461.074,115.048z"/>
					<path style="fill:#FF8EDE;" d="M441.436,130.818c-1.982-2.499-1.46-6.928,1.066-9.037c2.584-2.158,6.761-1.773,8.996,0.829       C457.157,129.197,446.773,137.546,441.436,130.818z"/>
					<path style="fill:#FF8EDE;" d="M465.706,62.49c2.343,2.09,1.565,7.224-0.783,8.912c-7.273,5.227-14.739-4.515-8.074-10.123       C459.456,59.086,463.459,59.727,465.706,62.49z"/>
				</g>
				<g style="opacity:0.25;">
					<path style="fill:#4217A6;" d="M157.447,464.657c-4.497,0.217-9.086,0.034-13.683-0.567       c-33.306-4.367-62.822-29.624-82.594-56.463c-20.595-27.978-27.883-55.349-25.148-78.768c18.928,8.1,36.333-2.457,53.675-7.705       c0.124-0.035,0.259-0.078,0.383-0.112c20.16-6.015,41.205,0.656,56.905,14.453c23.338,20.521,34.666,49.838,50.002,43.563       c25.712-10.507,31.078-52.308,100.486-65.972c14.32-2.816,23.11-1.976,29.103-1.679c-0.007,0.176-0.025,0.361-0.041,0.545       c-3.284,34.143-43.148,41.274-68.47,51.492c-27.885,11.25-31.09,49.189-39.052,63.123       C205.982,449.402,182.871,463.403,157.447,464.657z"/>
					<path style="fill:#4217A6;" d="M162.951,275.72c-1.687-1.156-2.69-3.242-2.538-5.281c0.348-4.708,4.587-4.665,11.829-10.105       c13.857-10.408,18.204-23.882,25.321-35.198c7.933-12.615,12.097-10.457,10.372-5.511       c-7.092,20.338-10.925,38.208-30.99,51.839C172.779,274.294,167.259,278.673,162.951,275.72z"/>
					<path style="fill:#4217A6;" d="M476.743,120.258c-9.033,6.064-15.672,13.254-25.891,18.692       c-5.151,2.745-16.17,4.925-25.413,3.706c-6.717-0.872-15.099-3.888-18.021-9.363c-5.299-9.919-3.471-20.371,0.176-31.046       c2.679-7.851,7.787-13.16,13.207-17.915c0.643,2.61,1.756,6.62,5.543,10.782c2.532,2.799,9.183,13.262,23.3,11.226       c6.121-0.875,11.918-3.647,23.18-7.475c10.295-3.514,22.673-3.461,31.18-1.866C506.811,105.784,490.81,110.805,476.743,120.258       z"/>
				</g>
				<g>
					<g>
						<path style="fill:#FC09B2;" d="M79.953,350.558c-1.651-5.985,1.222-9.895,5.435-10.055        c12.382-0.472,23.949,20.561,12.876,24.215C92.88,366.495,82.585,360.1,79.953,350.558z"/>
					</g>
					<g>
						<path style="fill:#FC09B2;" d="M134.928,417.355c5.555,2.772,9.945,0.704,10.913-3.399        c2.844-12.06-15.571-27.457-21.287-17.294C121.776,401.603,126.071,412.936,134.928,417.355z"/>
					</g>
				</g>
			</g>
			<g>
				<path style="fill:#000E3F;" d="M135.093,376.258c-4.914,4.112-12.858,5.771-17.904,0.749c-2.613-2.601-3.008-5.659-2.878-7.766      c0.246-3.991,2.595-8.27,5.983-10.903c0.809-0.628,0.955-1.791,0.328-2.599c-0.629-0.809-1.791-0.956-2.6-0.327      c-4.258,3.306-7.097,8.518-7.41,13.602c-0.253,4.115,1.118,7.787,3.963,10.619c2.994,2.981,6.71,4.211,10.452,4.184      c4.516-0.033,9.072-1.893,12.444-4.717c0.786-0.657,0.888-1.826,0.231-2.61C137.045,375.703,135.875,375.599,135.093,376.258z"/>
				<path style="fill:#000E3F;" d="M115.316,334.289c-2.908-3.767-9.54-4.386-12.596-1.18c-3.976,2.81-4.244,8.788-1.491,12.353      c3.377,4.372,9.432,4.379,12.795,1.572C118.15,343.589,118.273,338.119,115.316,334.289z"/>
				<path style="fill:#000E3F;" d="M144.781,384.713c-3.406,2.834-4.28,8.963-0.842,12.553c2.362,3.499,8.85,4.36,12.642,1.085      c3.676-3.174,4.133-8.879,1.065-12.584C154.489,381.955,148.808,381.363,144.781,384.713z"/>
				<path style="fill:#000E3F;" d="M507.536,95.875c-0.12-0.409-0.278-0.837-0.477-1.284c-0.297-0.642-0.672-1.322-1.107-2.099      c-1.423-2.604-3.379-6.178-3.115-10.159c0.019-0.078,0.502-8.976-1.168-13.43c-5.069-13.461-14.892-15.127-22.058-16.324      c-0.566-0.093-1.133-0.187-1.68-0.3c-4.199-0.75-6.69-2.8-9.103-4.772c-2.374-1.973-4.826-3.984-8.336-3.959      c-2.028,0.014-4.072,0.731-6.245,2.209c-4.445,3.016-6.823,5.997-9.839,9.764c-3.267,4.099-7.753,9.709-17.481,18.614      c-1.588,1.474-3.275,2.89-5.04,4.405c-1.183,0.984-2.365,1.987-3.528,3.009c-5.64,4.936-11.275,10.71-14.276,19.488      c-1.7,5.005-2.743,9.206-3.281,13.032c-0.466,0.354-0.912,0.67-1.34,0.965c-2.93,2.049-74.181,56.581-151.485,115.797      c-5.04-6.615-7.33-15.922-6.688-27.16c0.558-9.444-5.756-19.561-14.343-23.011c-3.873-1.552-7.935-2.323-12.07-2.294      c-9.81,0.07-20.29,4.708-30.331,13.381c-7.812,6.764-15.198,15.906-20.301,25.07c-1.444,2.604-2.81,5.266-4.118,7.85      c-4.905,9.611-9.541,18.694-18.413,24.452c-9.94,6.468-21.418,7.973-33.557,9.561c-10.347,1.361-21.025,2.763-30.841,7.474      c-22.47,10.848-37.881,29.701-43.371,53.105c-0.719,3.048-1.263,6.133-1.612,9.159c-2.113,18.251,0.627,47.175,25.855,81.402      c24.223,32.907,55.248,54.024,85.097,57.928c3.651,0.5,7.378,0.728,11.064,0.702c1.092-0.008,2.184-0.035,3.276-0.082      c26.945-1.342,51.102-16.258,64.606-39.954c2.37-4.132,4.221-9.86,6.358-16.467c5.44-16.734,12.197-37.554,30.867-45.078      c4.22-1.688,8.85-3.32,13.753-5.013c24.086-8.401,54.049-18.854,57.01-49.535l0.054-0.566l-0.001-0.098      c0.831-12.04-8.279-23.327-20.288-25.172c-11.5-1.752-20.325-5.824-25.751-11.851c44.867-40.068,102.196-91.321,134.078-119.848      l3.373-3.027c2.093-1.868,4.031-3.618,5.814-5.191c1.287,0.088,2.634,0.137,3.999,0.128c7.743-0.055,16.214-1.87,21.111-4.499      c6.451-3.439,11.551-7.533,16.457-11.488c3.239-2.597,6.303-5.057,9.759-7.364c3.785-2.562,7.69-4.755,11.478-6.888      C500.678,110.61,510.469,105.099,507.536,95.875z M415.837,152.015c-31.165,27.878-89.676,80.193-136.656,122.187      c5.38,7.822,15.291,13.681,30.247,15.954c9.528,1.453,17.901,10.386,17.158,21.255l-0.054,0.546      c-3.288,34.136-43.143,41.265-68.464,51.489c-27.889,11.237-31.092,49.195-39.048,63.138      c-13.022,22.814-36.153,36.827-61.577,38.08c-1.033,0.046-2.086,0.073-3.12,0.081c-3.491,0.025-7.022-0.184-10.557-0.666      c-33.324-4.366-62.817-29.61-82.59-56.463c-20.6-27.959-27.894-55.349-25.154-78.774c0.35-2.967,0.856-5.877,1.538-8.749      c5.244-22.369,20.134-40.36,41.361-50.594c20.35-9.799,45.236-4.534,64.825-17.272c12.251-7.947,16.934-21.38,23.732-33.599      c8.666-15.587,27.515-36.414,47.428-36.555c3.531-0.025,7.104,0.593,10.664,2.031c7.432,2.99,12.469,11.848,12.015,19.36      c-0.832,14.634,3.165,25.547,9.865,32.424c61.881-47.385,142.25-108.925,152.998-116.979c-0.095,3.236,0.25,6.293,1.006,9.219      c-49.996,38.345-161.842,124.252-217.478,167.151c0.961,0.812,1.884,1.664,2.806,2.515      c55.423-42.723,165.575-127.314,215.892-165.934c0.429,1.072,0.905,2.131,1.457,3.172c0.124,0.229,0.266,0.446,0.401,0.667      c-28.66,23.587-71.457,59.143-113.283,93.889c-36.491,30.314-73.836,61.357-94.642,78.453c0.788,0.93,1.574,1.861,2.38,2.831      c14.97-12.276,42.718-35.293,94.643-78.434c40.09-33.301,83.933-69.753,113.223-93.842c1.085,1.072,2.326,2.03,3.679,2.872      c-50.964,45.238-162.044,144.143-203.29,180.872c0.671,1.088,1.302,2.175,1.895,3.263      c40.94-36.444,154.166-137.272,204.89-182.298c2.775,1.234,5.761,2.104,8.613,2.634      C420.547,147.788,418.278,149.833,415.837,152.015z M476.757,120.259c-9.046,6.071-15.685,13.237-25.906,18.693      c-4.062,2.174-11.772,3.984-19.378,4.038c-0.507,0.004-1.033,0.007-1.541-0.009c-1.249-0.03-2.478-0.119-3.688-0.266      c-0.292,0.002-0.546-0.035-0.799-0.072c-2.702-0.349-5.666-1.047-8.437-2.106c-0.586-0.223-1.166-0.461-1.732-0.72      c-0.021-0.009-0.042-0.018-0.063-0.028c-0.607-0.279-1.198-0.579-1.771-0.904c-0.002,0.001-0.004,0.003-0.004,0.004      c-1.41-0.782-2.694-1.679-3.769-2.703c-0.414-0.396-0.789-0.809-1.134-1.238c-0.061-0.077-0.121-0.156-0.181-0.234      c-0.342-0.45-0.657-0.913-0.919-1.403c-0.002,0.002-0.003,0.003-0.005,0.004c-0.005-0.008-0.01-0.015-0.014-0.023      c-0.672-1.255-1.213-2.519-1.667-3.791c0,0,0.001,0,0.001-0.001c-0.18-0.485-0.323-0.969-0.467-1.454      c-0.066-0.225-0.137-0.45-0.198-0.676c-0.146-0.555-0.277-1.111-0.383-1.666c-0.636-3.161-0.734-6.367-0.412-9.612      c0.128-1.21,0.314-2.421,0.54-3.651c0.62-3.379,1.61-6.76,2.755-10.2c2.695-7.84,7.786-13.162,13.214-17.901      c2.908-2.537,5.894-4.957,8.646-7.473c18.699-17.14,18.39-22.287,26.892-28.043c1.63-1.104,2.973-1.562,4.182-1.57      c4.817-0.034,7.421,7.008,16.757,8.677c7.499,1.351,16.26,1.874,20.931,14.265c1.153,3.112,1.067,10.154,0.942,11.891      c-0.442,6.4,3.457,11.6,4.547,14.049c0.138,0.292,0.218,0.564,0.317,0.856C506.807,105.789,490.81,110.798,476.757,120.259z"/>
				<path style="fill:#000E3F;" d="M163.903,292.632c-0.648-0.789-1.816-0.903-2.608-0.253c-0.789,0.65-0.903,1.818-0.252,2.608      l43.866,53.298c0.369,0.449,0.904,0.68,1.445,0.676c0.409-0.003,0.822-0.142,1.163-0.422c0.789-0.651,0.903-1.818,0.252-2.609      L163.903,292.632z"/>
			</g>
		</g>
		<g>
			<path style="fill:#FD8A02;" d="M289.192,425.148c-0.551,3.342-0.893,6.226-2.05,8.193c-1.148,1.951-4.136,1.096-4.12-0.981     c0.025-3.398,1.972-8.574,1.23-9.041c-0.732-0.46-1.396,0.494-2.016,0.95c-3.449,2.538-5.342,4.369-7.901,5.622     c-1.942,0.951-3.798-1.995-2.59-3.444c1.166-1.399,2.889-2.421,10.126-8.059c2.398-1.868-0.904-2.431-4.646-3.759     c-2.124-0.754-4.559-2.555-3.489-4.527c0.882-1.627,2.597-1.06,4.369-0.487c9.331,3.013,8.171,4.106,3.775-7.001     c-0.807-2.04-1.623-4.619,0.529-5.315c2.195-0.711,2.954,1.806,5.063,6.458c0.277,0.611,0.358,1.321,0.679,1.902     c0.71,1.286,0.928,2.825,2.011,3.915c1.58-0.882,1.394-2.711,2.135-4.046c1.187-2.139,0.891-4.266,3.238-5.389     c0.913-0.437,2.024-0.007,2.278,0.954c1.243,4.692-4.083,10.002,0.372,9.032c5.757-1.254,7.043-1.756,9.527-1.789     c2.344-0.03,2.963,2.839,0.878,3.866c-3.458,1.703-10.834,2.578-10.959,3.591c-0.131,1.057,8.742,2.802,10.394,4.839     c1.194,1.472,0.396,3.142-1.259,3.275c-2.515,0.202-3.561-0.5-9.74-2.507c-0.48-0.156-1.072-0.465-1.445,0.102     c-0.333,0.507,0.017,1.041,0.268,1.5c1.274,2.321,4.221,7.51,4.324,7.773c0.967,2.48-2.536,4.683-4.057,2.169     c-5.284-8.736-5.862-11.673-6.842-7.783C289.246,425.158,289.219,425.153,289.192,425.148z"/>
			<path style="fill:#FD8A02;" d="M23.791,416.801c3.662,0.608,8.521,1.075,7.841,3.828c-0.473,1.919-2.27,1.51-4.428,1.116     c-1.237-0.226-4.662-1.236-4.974-0.74c-0.428,0.679,0.187,0.696,4.154,6.103c1.161,1.583,2.436,3.447,0.746,4.44     c-2.307,1.356-2.343,0.171-9.1-8.522c-1.589-2.044-2.07,0.767-3.205,3.951c-0.644,1.808-2.18,3.879-3.858,2.966     c-1.388-0.755-0.897-2.22-0.411-3.72c2.573-7.941,3.504-6.952-5.957-3.22c-1.738,0.685-3.934,1.378-4.524-0.455     c-1.02-3.165,8.471-4.621,10.457-6.588c-0.749-1.346-2.306-1.19-3.442-1.822c-1.821-1.013-3.629-0.759-4.585-2.761     c-0.996-2.086,1.965-2.5,4.212-1.808c5.792,1.784,4.748,2.318,3.022-6.158c-0.345-1.697-0.613-3.827,1.07-4.171     c1.812-0.371,2.365,1.669,2.903,3.621c2.387,8.661,1.482,9.414,4.985-0.077c1.547-4.191,5.502-3.069,3.561,2.441     c-2.884,8.186-2.865,7.353,4.827,3.057c0.723-0.404,2.918-2.114,4.087,0.263c0.431,0.875,0.215,1.792-0.74,2.368     c-7.434,4.486-9.947,4.974-6.632,5.817C23.799,416.755,23.795,416.778,23.791,416.801z"/>
			<path style="fill:#FD8A02;" d="M504.094,176.029c3.663,0.609,8.521,1.075,7.841,3.828c-0.474,1.919-2.27,1.51-4.428,1.116     c-1.237-0.226-4.661-1.236-4.974-0.74c-0.428,0.679,0.187,0.696,4.154,6.103c1.161,1.583,2.436,3.447,0.746,4.44     c-2.307,1.356-2.343,0.171-9.1-8.522c-1.589-2.044-2.07,0.767-3.205,3.951c-0.644,1.808-2.18,3.878-3.857,2.966     c-1.388-0.755-0.897-2.22-0.411-3.72c2.573-7.941,3.504-6.952-5.957-3.22c-1.737,0.685-3.934,1.378-4.524-0.455     c-1.02-3.165,8.471-4.621,10.457-6.588c-0.749-1.346-2.307-1.19-3.443-1.822c-1.821-1.013-3.629-0.759-4.585-2.761     c-0.996-2.086,1.965-2.501,4.212-1.808c5.792,1.784,4.748,2.318,3.022-6.158c-0.345-1.697-0.612-3.827,1.07-4.172     c1.812-0.371,2.365,1.669,2.904,3.621c2.387,8.661,1.481,9.413,4.986-0.077c1.547-4.191,5.502-3.069,3.56,2.441     c-2.884,8.186-2.866,7.353,4.827,3.057c0.723-0.404,2.918-2.114,4.087,0.263c0.43,0.875,0.215,1.792-0.74,2.368     c-7.434,4.486-9.947,4.974-6.632,5.817C504.102,175.982,504.098,176.006,504.094,176.029z"/>
			<path style="fill:#FD8A02;" d="M45.233,217.727c3.326,0.639,6.2,1.057,8.136,2.266c1.92,1.199,0.986,4.163-1.089,4.093     c-3.394-0.114-8.519-2.197-9.005-1.468c-0.479,0.719,0.457,1.408,0.897,2.04c2.446,3.514,4.227,5.455,5.412,8.046     c0.9,1.966-2.094,3.744-3.511,2.498c-1.366-1.201-2.332-2.936-7.789-10.334c-1.805-2.447-2.454,0.839-3.88,4.545     c-0.81,2.104-2.674,4.489-4.618,3.369c-1.608-0.927-0.987-2.634-0.372-4.381c3.258-9.248,4.32-8.059-6.899-3.958     c-2.061,0.753-4.66,1.501-5.299-0.669c-0.67-2.272,2.09-2.992,6.589-4.891c0.619-0.261,1.33-0.323,1.92-0.629     c1.304-0.676,2.848-0.853,3.967-1.907c-0.84-1.603-2.673-1.465-3.988-2.241c-2.108-1.243-4.241-1.003-5.302-3.379     c-0.413-0.925,0.047-2.023,1.014-2.252c4.719-1.118,9.891,4.347,9.039-0.134c-1.312-6.891-2.745-11.12,0.059-11.62     c2.139-0.382,2.728,2.031,3.302,4.338c2.552,10.266,1.439,11.151,5.857,0.057c1.883-4.728,6.601-3.568,4.109,2.972     c-3.632,9.537-3.572,8.543,5.578,3.734c0.595-0.313,1.164-0.699,1.79-0.924c2.503-0.901,4.617,2.658,2.062,4.113     c-8.836,5.033-11.847,5.54-7.961,6.635C45.243,217.672,45.238,217.7,45.233,217.727z"/>
			<path style="fill:#FD8A02;" d="M483.451,384.207c3.326,0.639,6.2,1.057,8.136,2.265c1.92,1.199,0.986,4.163-1.089,4.093     c-3.394-0.114-8.519-2.197-9.005-1.468c-0.479,0.72,0.457,1.408,0.897,2.04c2.446,3.514,4.227,5.455,5.412,8.046     c0.9,1.967-2.094,3.744-3.511,2.498c-1.366-1.201-2.332-2.936-7.789-10.335c-1.805-2.447-2.454,0.839-3.88,4.545     c-0.81,2.104-2.674,4.49-4.618,3.369c-1.607-0.927-0.987-2.634-0.372-4.38c3.258-9.248,4.32-8.059-6.899-3.958     c-2.061,0.753-4.66,1.501-5.299-0.669c-0.669-2.272,2.089-2.992,6.589-4.891c0.619-0.261,1.33-0.323,1.919-0.629     c1.304-0.676,2.848-0.853,3.967-1.907c-0.84-1.602-2.673-1.466-3.988-2.241c-2.108-1.243-4.241-1.003-5.302-3.379     c-0.413-0.925,0.047-2.023,1.014-2.252c4.719-1.118,9.891,4.347,9.039-0.134c-1.312-6.891-2.745-11.12,0.06-11.62     c2.139-0.382,2.728,2.031,3.302,4.338c2.552,10.266,1.439,11.151,5.857,0.057c1.883-4.728,6.601-3.567,4.109,2.972     c-3.632,9.537-3.572,8.543,5.578,3.733c0.595-0.313,1.164-0.698,1.79-0.924c2.503-0.901,4.617,2.658,2.062,4.112     c-8.837,5.033-11.848,5.54-7.961,6.635C483.461,384.153,483.456,384.18,483.451,384.207z"/>
			<path style="fill:#FD8A02;" d="M331.601,103.237c2.676-1.11,4.925-2.165,6.876-2.213c1.936-0.048,2.664,2.508,1.149,3.435     c-2.477,1.516-7.117,2.443-7.12,3.192c-0.003,0.739,0.989,0.79,1.6,1.034c3.402,1.358,5.587,1.905,7.653,3.197     c1.569,0.98,0.268,3.659-1.331,3.437c-1.54-0.214-3.047-0.998-10.427-3.711c-2.44-0.897-1.356,1.755-0.63,5.072     c0.412,1.883,0.205,4.465-1.711,4.58c-1.584,0.095-1.945-1.416-2.328-2.953c-2.029-8.137-0.71-7.788-6.79,0.423     c-1.116,1.508-2.62,3.266-4.098,2.018c-1.548-1.307,0.083-3.12,2.401-6.595c0.319-0.478,0.797-0.856,1.075-1.353     c0.613-1.097,1.632-1.95,1.934-3.229c-1.354-0.749-2.599,0.213-3.903,0.278c-2.09,0.105-3.501,1.28-5.376,0.084     c-0.73-0.466-0.92-1.467-0.337-2.086c2.843-3.02,9.109-1.554,6.391-4.352c-4.181-4.302-7.196-6.647-5.429-8.324     c1.347-1.28,2.904,0.165,4.4,1.542c6.656,6.128,6.278,7.284,4.208-2.717c-0.882-4.262,3.033-5.655,4.333,0.187     c1.897,8.52,1.472,7.782,5.741,0.039c0.277-0.503,0.502-1.047,0.843-1.503c1.363-1.822,4.548-0.276,3.409,1.965     c-3.939,7.754-5.85,9.534-2.56,8.486C331.583,103.193,331.592,103.215,331.601,103.237z"/>
		</g>
		<g>
			<g>
				<g>
					<path style="fill:#000E3F;" d="M138.057,118.538c-1.732,1.545-4.313,2.664-6.308,3.753c-4.248-1.451-9.318-6.027-13.19-8.305       c1.891,3.603,4.958,8.293,6.933,11.724c-1.382,1.407-4.867,3.293-6.678,3.849c-6.538-10.19-12.009-21.173-18.195-31.807       c1.987-1.207,4.215-2.308,6.184-3.442c2.141,3.401,4.279,7.533,6.414,10.931c0.027,0.047,0.014-0.189,0.071-0.407       c0.641-4.818-0.267-9.351,0.214-14.44c2.048-0.999,4.152-2.636,6.304-3.448c1.488,5.968,0.32,13.465,1.073,19.854       L138.057,118.538z"/>
					<path style="fill:#000E3F;" d="M157.913,102.512c1.038,2.025,2.027,4.358,2.322,6.526c-6.627,2.766-13.463,6.251-19.956,8.384       c-4.802-11.264-9.994-21.851-14.1-33.24c7.362-3.597,19.858-9.147,19.982-8.856c1.311,2.137,1.966,4.612,2.935,6.896       l0.022,0.049c-3.735,2.683-8.368,3.794-12.478,6.003l-0.145,0.061l-0.029,0.071c0.855,1.873,1.288,4.1,2.467,5.661l0.071,0.029       c2.005-0.682,4.026-1.598,6.035-2.398l0.022,0.047c1.27,2.042,1.911,4.352,2.97,6.709c-1.763,1.384-5.195,2.215-5.646,3.039       c0.466,2.04,1.779,4.58,2.585,6.072l0.069,0.029c4.276-1.824,8.472-3.151,12.828-5.178L157.913,102.512z"/>
					<path style="fill:#000E3F;" d="M182.447,95.191c0.784,2.135,1.492,4.572,1.522,6.76c-6.906,1.954-14.11,4.598-20.815,5.942       c-3.417-11.761-7.311-22.887-10.029-34.691c7.741-2.691,20.813-6.711,20.9-6.406c1.046,2.28,1.398,4.816,2.092,7.2l0.014,0.051       c-4.028,2.215-8.765,2.766-13.104,4.47l-0.153,0.043l-0.037,0.065c0.627,1.964,0.79,4.224,1.775,5.919l0.067,0.035       c2.072-0.438,4.187-1.107,6.28-1.661l0.014,0.049c1.018,2.178,1.378,4.551,2.149,7.017c-1.915,1.164-5.423,1.579-5.972,2.343       c0.22,2.08,1.217,4.761,1.842,6.339l0.065,0.037c4.464-1.301,8.787-2.115,13.357-3.609L182.447,95.191z"/>
					<path style="fill:#000E3F;" d="M205.574,72.163c0.077,0.47,0.152,0.94,0.171,1.364c0.259,6.75-5.693,12.813-12.488,12.812       c0.472,1.899,0.436,2.976,2.365,13.035l0.008,0.053c-0.051,0.008-0.094,0.067-0.146,0.075       c-1.842,0.839-6.278,1.519-8.661,1.645c-2.084-10.033-3.963-24.324-6.286-35.814c8.211-3.711,22.454-4.936,25.027,6.778       L205.574,72.163z M189.49,71.288c-0.053,0.008-0.106,0.016-0.149,0.077c0.568,2.475,0.737,5.764,1.759,7.733l0.155-0.024       c2.161-0.519,5.235-0.704,6.626-2.646c0.885-1.748,0.216-4.205-1.789-4.997C194.141,70.307,191.635,70.345,189.49,71.288z"/>
				</g>
			</g>
			<g>
				<g>
					<path style="fill:#000E3F;" d="M128.689,188.441c-1.918,1.576-4.12,3.798-6.701,5.645l-0.043,0.035       c-3.104-1.618-9.41-4.635-14.082-5.577l-0.179-0.055c1.683,2.716,6.55,7.802,8.38,9.783c-1.197,2.284-6.298,5.72-6.727,6.279       c0.326-0.269-21.061-25.873-23.714-28.271c2.691-2.964,5.929-6.585,10.257-9.388c6.709-4.969,16.669-1.331,17.943,7.118       c0.59,2.795,0.092,5.6-2.385,7.908l-0.163,0.132l-0.043,0.033l0.035,0.041c5.603,2.162,12.064,3.206,17.381,6.351       L128.689,188.441z M100.597,181.941l0.039-0.033c1.368-0.916,2.982-2.111,4.12-3.385c1.714-2.158-0.808-5.555-3.287-5.496       c-2.086-0.132-3.918,1.714-5.199,4.065C97.532,178.379,99.386,180.885,100.597,181.941z"/>
					<path style="fill:#000E3F;" d="M134.271,151.879c1.069,1.389,1.999,2.858,2.888,4.358c1.83,3.277,3.847,6.062,5.577,9.278       l0.798,1.557c1.195,2.18,2.09,4.674,2.123,7.09c-0.122,2.08-1.35,3.984-2.864,5.632c-1.339,1.539-2.978,2.701-4.8,3.67       c-2.595,1.335-5.294,2.296-7.865,0.613c-1.781-0.934-3.062-2.559-4.207-4.268c-3.118-4.523-6.446-8.975-9.105-13.856       c-1.651-2.701-2.97-5.864-2.473-9.119c0.114-0.511,0.259-0.977,0.517-1.453c2.707-4.405,8.289-7.824,13.389-7.37       c1.329,0.22,2.548,0.759,3.554,1.559C132.771,150.204,133.544,151.028,134.271,151.879z M131.922,160.497       c-0.028-0.047-1.095-1.433-1.791-2.428c-1.179-1.563-2.915-2.526-4.72-2.318c-1.514,0.273-2.595,1.522-3.082,2.831       c-0.515,1.451-0.578,2.927-0.143,4.403c0.955,2.585,2.52,5.156,4.236,7.566c1.643,1.897,3.012,4.152,4.834,5.746       c2.66,1.627,6.575-0.48,7.1-3.692c0.181-2.176-0.267-1.893-1.684-4.618c-0.716-1.233-1.295-2.241-1.382-2.376l-1.356-2.141       L131.922,160.497z"/>
					<path style="fill:#000E3F;" d="M146.239,145.842c-0.035,0.423,3.802,9.528,6.233,13.693c1.071,1.769,2.689,3.46,4.796,3.104       c1.453-0.511,2.589-1.692,2.601-3.271c0.014-1.818-1.205-3.285-1.612-5.02c1.924-0.619,4.468-2.402,6.528-2.736       c5.262,5.573,4.159,14.851-2.742,18.287c-4.242,2.762-10.784,3.867-13.833-1.23c-2.402-4.47-4.773-9.361-9.502-19.738       c-0.661-1.03-0.916-2.31-0.985-3.446c-0.218-1.94-0.01-3.731,0.664-5.39c0.468-0.863,1.122-1.583,1.915-2.249       c7.379-6.99,20.237-3.257,21.353,7.014c-2.092,1.63-4.419,2.383-7.057,3.104c-1.577-2.349-2.687-6.672-6.339-4.769       c-0.745,0.525-1.75,1.118-2.027,1.889C146.156,145.296,146.219,145.675,146.239,145.842z"/>
					<path style="fill:#000E3F;" d="M196.687,155.979c-2.007,1.16-4.763,1.732-6.937,2.392c-3.859-2.288-7.892-7.798-11.214-10.817       c1.116,3.91,3.163,9.125,4.397,12.885c-1.641,1.097-5.435,2.231-7.32,2.406c-4.324-11.301-7.442-23.162-11.328-34.83       c2.19-0.773,4.596-1.396,6.754-2.107c1.4,3.762,2.648,8.24,4.049,12.001c0.018,0.051,0.051-0.185,0.155-0.383       c1.604-4.582,1.643-9.207,3.151-14.09c2.205-0.556,4.594-1.73,6.866-2.086c0.24,6.141-2.428,13.239-2.992,19.644       L196.687,155.979z"/>
					<path style="fill:#000E3F;" d="M200.304,117.477l0.049,0.203c2.723,11.775,4.834,24.178,8.201,35.692       c-0.869,1.395-7.908,1.885-9.249,2.63c-1.891-12.616-6.603-24.799-8.032-36.598l-0.025-0.104       c0.348-0.136,1.669-0.279,2.131-0.385c1.248-0.234,2.62-0.389,5.691-1.156L200.304,117.477z"/>
					<path style="fill:#000E3F;" d="M226.184,150.804c-3.021-4.855-6.104-9.382-8.344-13.597l-0.743-1.496       c-0.372-0.747-0.741-1.496-0.898-1.474c-0.21,0.029,0.668,7.474,1.486,13.328c0.226,1.62,0.438,3.135,0.66,4.331       c-0.757,0.318-1.482,0.47-2.266,0.582c-1.671,0.234-3.44,0.159-5.062,0.387l-0.511-3.66       c-0.926-6.638-1.874-12.313-2.791-18.848c-0.67-4.808-1.229-9.579-1.482-14.071c0.657-0.253,1.486-0.422,2.324-0.537       c0.888-0.126,4.366-0.399,4.409-0.084c1.351,2.422,1.872,2.722,3.535,5.476c0.556,0.934,5.451,8.136,5.61,8.115       c0.185-0.185,0.13-1.724-0.036-2.927c-0.385-2.768-0.863-5.046-1.215-7.556c-0.204-1.464-0.354-2.935-0.544-4.667       c1.172-0.376,2.414-0.655,3.721-0.839c1.307-0.183,2.469-0.236,3.493-0.167l2.349,16.832c0.46,2.921,0.883,5.952,1.301,8.93       c0.283,2.04,0.484,3.876,0.755,5.809c0.198,1.413,0.44,2.766,0.637,4.175l0.145,1.046c-0.151,0.073-0.486,0.332-1.687,0.501       C229.617,150.591,227.596,150.607,226.184,150.804z"/>
					<path style="fill:#000E3F;" d="M256.478,130.708l0.106-0.002l0.053,0.051c0.495,3.741,0.847,8.115,0.232,11.928       c-0.299,3.595-2.219,5.323-4.889,6.377c-3.465,1.071-7.778,1.946-11.183,0.588c-2.819-1.162-4.177-3.141-5.078-6.131       c-0.23-0.79-0.519-2.262-0.706-3.682c-0.511-4.48-0.818-6.849-0.763-12.076c0.01-2.27,0.069-4.645,0.393-6.925       c0.326-2.326,0.967-4.661,2.996-6.127c1.402-1.242,3.188-1.75,5.083-2.054c7.843-1.152,14.568,2.622,13.732,11.242l-0.045,0.32       c-0.155,0.214-0.578,0.171-1.688,0.242c-2.056,0.043-2.846,0.163-4.963-0.061c-0.448-1.417-1.616-4.35-3.672-4.309       c-1.213-0.031-2.382-0.218-3.21,0.643c-0.153,0.161-0.405,0.851-0.552,1.433c-0.936,3.397-1.02,9.947-0.497,15.217       c0.189,1.525,0.493,3.631,1.832,4.659c0.322,0.208,0.747,0.358,1.223,0.454c1.059,0.138,2.266-0.151,3.263-0.54       c0.786-0.387,1.354-0.924,1.6-1.93c0.147-0.586,0.415-3.021-0.01-3.169c-0.847-0.142-3.214,0.222-3.906-0.03       c-0.307-2.264-0.006-3.112-0.318-5.536l-0.004-0.051c0-0.051,0-0.051,0.053-0.055c0,0,0.053-0.002,0.106-0.053       C247.438,129.987,255.053,130.736,256.478,130.708z"/>
					<path style="fill:#000E3F;" d="M260.288,149.636c-0.476-0.032,0.432-4.201,0.558-6.149l0.004-0.053       c1.73-0.576,4.378,0.177,6.43,0.312c-0.181,1.946-0.436,4.254-0.568,6.31l-0.37-0.024c-0.841-0.055-1.207-0.132-1.997-0.185       l-0.104-0.004L260.288,149.636z M262.688,112.726c1.854-0.038,4.574-0.393,6.483,0.315c-0.741,8.995-1.596,18.826-1.757,27.858       c-1.858,0.089-4.753-0.1-6.811-0.179l-0.055-0.002c0.763-9.26,0.778-18.458,1.983-28.002L262.688,112.726z"/>
				</g>
			</g>
		</g>
		<g>
			<g>
				<path style="fill:#FC09B2;" d="M442.812,305.543l-53.844,117.898l-25.056-10.147l-13.215-5.363l35.267-99.085l8.194-23.018      v-0.021c1.095,1.287,2.51,2.338,4.182,3.025l39.386,15.96c1.33,0.536,2.702,0.794,4.054,0.794      C442.125,305.586,442.468,305.564,442.812,305.543z"/>
				<g>
					<path style="fill:#4217A6;" d="M477.006,255.711c-0.451,1.737-1.009,3.453-1.695,5.148c-0.686,1.716-1.523,3.368-2.403,4.934       c-4.849,8.431-12.464,14.501-21.194,17.569c-1.803,0.644-3.668,1.158-5.557,1.501c-0.107-0.043-0.193-0.086-0.3-0.129       l-39.386-15.982c-0.107-0.043-0.214-0.086-0.322-0.107c-6.413-9.224-8.795-20.979-5.92-32.349       c0.471-1.738,1.03-3.454,1.716-5.17c0.686-1.695,1.502-3.346,2.403-4.912c6.071-10.576,16.539-17.462,28.08-19.307       c6.886-1.115,14.158-0.408,21.066,2.403C472.028,216.862,481.789,236.855,477.006,255.711z"/>
					<polygon style="fill:#4217A6;" points="388.968,423.441 383.927,434.36 363.719,426.187 346.707,419.28 350.697,407.932        363.912,413.295      "/>
				</g>
				<g>
					<g>
						<path style="fill:#FFFFFF;" d="M423.61,224.909c-0.645,1.592-2.459,2.359-4.051,1.714c-1.592-0.645-2.359-2.459-1.714-4.051        c0.645-1.592,2.459-2.359,4.051-1.714C423.488,221.504,424.255,223.317,423.61,224.909z"/>
						<path style="fill:#FFFFFF;" d="M439.025,231.159c-0.645,1.592-2.459,2.36-4.051,1.714c-1.592-0.645-2.359-2.459-1.714-4.051        c0.646-1.592,2.459-2.359,4.051-1.714C438.903,227.753,439.671,229.567,439.025,231.159z"/>
						<path style="fill:#FFFFFF;" d="M454.441,237.408c-0.645,1.592-2.459,2.36-4.051,1.714c-1.592-0.645-2.359-2.459-1.714-4.051        c0.646-1.592,2.459-2.359,4.051-1.714C454.319,234.002,455.086,235.816,454.441,237.408z"/>
						<path style="fill:#FFFFFF;" d="M469.856,243.658c-0.646,1.592-2.459,2.359-4.051,1.714c-1.592-0.645-2.359-2.459-1.714-4.051        c0.645-1.592,2.459-2.359,4.051-1.714C469.734,240.252,470.502,242.066,469.856,243.658z"/>
						<path style="fill:#FFFFFF;" d="M466.492,229.819c-0.646,1.592-2.459,2.359-4.052,1.714c-1.592-0.645-2.359-2.459-1.714-4.051        c0.645-1.592,2.459-2.359,4.051-1.714C466.37,226.413,467.138,228.227,466.492,229.819z"/>
						<path style="fill:#FFFFFF;" d="M451.076,223.57c-0.646,1.592-2.459,2.359-4.051,1.714c-1.592-0.646-2.359-2.459-1.714-4.051        c0.646-1.592,2.459-2.36,4.051-1.714C450.954,220.164,451.722,221.978,451.076,223.57z"/>
						<path style="fill:#FFFFFF;" d="M435.661,217.32c-0.645,1.592-2.459,2.359-4.051,1.714c-1.592-0.646-2.359-2.46-1.714-4.051        c0.645-1.592,2.459-2.36,4.051-1.714C435.539,213.915,436.306,215.728,435.661,217.32z"/>
					</g>
					<g>
						<path style="fill:#FFFFFF;" d="M453.639,267.102c0.645-1.592,2.459-2.359,4.051-1.714c1.592,0.646,2.36,2.459,1.714,4.051        c-0.645,1.592-2.459,2.36-4.051,1.714C453.761,270.508,452.994,268.694,453.639,267.102z"/>
						<path style="fill:#FFFFFF;" d="M438.224,260.852c0.646-1.592,2.459-2.359,4.051-1.714c1.592,0.646,2.359,2.459,1.714,4.051        c-0.646,1.592-2.459,2.36-4.051,1.714C438.346,264.258,437.579,262.444,438.224,260.852z"/>
						<path style="fill:#FFFFFF;" d="M422.808,254.603c0.646-1.592,2.459-2.359,4.052-1.714c1.592,0.646,2.359,2.459,1.714,4.051        c-0.645,1.592-2.459,2.36-4.051,1.714C422.93,258.009,422.163,256.195,422.808,254.603z"/>
						<path style="fill:#FFFFFF;" d="M407.393,248.353c0.645-1.592,2.459-2.359,4.051-1.714c1.592,0.645,2.359,2.459,1.714,4.051        c-0.646,1.592-2.459,2.359-4.051,1.714C407.515,251.759,406.747,249.945,407.393,248.353z"/>
						<path style="fill:#FFFFFF;" d="M410.757,262.192c0.645-1.592,2.459-2.359,4.051-1.714c1.592,0.646,2.36,2.459,1.714,4.051        c-0.645,1.592-2.459,2.359-4.051,1.714C410.879,265.598,410.112,263.784,410.757,262.192z"/>
						<path style="fill:#FFFFFF;" d="M426.173,268.442c0.645-1.592,2.459-2.359,4.051-1.714c1.592,0.645,2.36,2.459,1.714,4.051        c-0.645,1.592-2.459,2.359-4.052,1.714C426.294,271.848,425.527,270.034,426.173,268.442z"/>
						<path style="fill:#FFFFFF;" d="M441.588,274.691c0.646-1.592,2.459-2.36,4.051-1.714c1.592,0.645,2.36,2.459,1.714,4.051        c-0.645,1.592-2.459,2.359-4.051,1.714C441.71,278.097,440.943,276.283,441.588,274.691z"/>
					</g>
					<path style="fill:#FFFFFF;" d="M417.082,336.211c-2.89,7.128-11.01,10.563-18.138,7.674c-7.128-2.89-10.563-11.01-7.674-18.138       c2.89-7.128,11.01-10.563,18.138-7.673C416.536,320.963,419.971,329.083,417.082,336.211z"/>
				</g>
				<g>
					<path style="fill:#915EFD;" d="M479.715,262.651c-0.868,2.126-2.925,3.405-5.073,3.405c-0.595,0-1.166-0.091-1.737-0.274       c-0.091-0.046-0.205-0.069-0.297-0.115l-41.889-16.98l-30.165-12.226c-0.115-0.046-0.229-0.092-0.32-0.16       c-2.583-1.234-3.77-4.273-2.697-6.947c0.868-2.125,2.926-3.405,5.074-3.405c0.594,0,1.165,0.091,1.736,0.275       c0.091,0.046,0.207,0.069,0.298,0.114l28.199,11.449l43.854,17.779c0.114,0.046,0.205,0.091,0.297,0.137       C479.578,256.915,480.79,259.978,479.715,262.651z"/>
					<path style="fill:#915EFD;" d="M383.927,434.36l-4.698,10.147l-5.749,12.485c-3.003,6.478-10.597,9.482-17.204,6.8       l-10.167-4.119c-6.65-2.703-10.018-10.125-7.637-16.882l8.237-23.511l17.012,6.907L383.927,434.36z"/>
					<path style="fill:#915EFD;" d="M451.821,298.828c-0.45,1.116-1.094,2.124-1.845,2.982c-1.824,2.124-4.397,3.454-7.165,3.711       v0.021c-0.344,0.022-0.687,0.043-1.031,0.043c-1.351,0-2.723-0.258-4.054-0.794l-39.386-15.96       c-1.673-0.687-3.088-1.738-4.182-3.025c-2.51-2.96-3.346-7.208-1.781-11.09c1.717-4.204,5.771-6.757,10.04-6.757       c1.244,0,2.51,0.215,3.732,0.686c0.022,0,0.065,0.021,0.086,0.021c0.086,0.022,0.15,0.065,0.236,0.086l2.939,1.201       l36.447,14.78c0.107,0.043,0.192,0.086,0.3,0.129l0.022,0.022C451.499,287.223,454.009,293.38,451.821,298.828z"/>
				</g>
				<g style="opacity:0.25;">
					<path style="fill:#000E3F;" d="M379.233,444.512l-5.759,12.477c-2.994,6.49-10.582,9.483-17.209,6.81l-10.169-4.136       c-6.65-2.697-10.009-10.124-7.633-16.865c23.611-67.344,24.917-70.277,47.511-133.962       c6.013,53.548-26.521,85.267-22.258,117.348C365.225,437.405,371.6,442.547,379.233,444.512z"/>
					<path style="fill:#000E3F;" d="M451.714,283.362c-1.845,0.644-3.69,1.158-5.535,1.523l-0.022-0.022       c-0.107-0.043-0.193-0.086-0.3-0.129l-36.447-14.78l-2.939-1.201c-0.086-0.022-0.15-0.064-0.236-0.086       c-6.307-8.859-9.052-20.357-6.006-32.37c-6.071-2.896-2.425-12.163,4.119-10.082c6.071-10.576,16.539-17.462,28.08-19.307       C445.643,229.346,409.282,266.115,451.714,283.362z"/>
					<path style="fill:#000E3F;" d="M449.976,301.81c-1.824,2.124-4.397,3.454-7.165,3.711v0.021       c-0.344,0.022-0.687,0.043-1.031,0.043c-1.351,0-2.723-0.258-4.054-0.794l-39.386-15.96c-1.673-0.687-3.088-1.738-4.182-3.025       c-2.51-2.96-3.346-7.208-1.781-11.09c1.717-4.204,5.771-6.757,10.04-6.757c1.244,0,2.51,0.215,3.732,0.686       c0.108,0.021,0.215,0.064,0.322,0.107l2.939,1.201C412.071,277.162,421.08,288.982,449.976,301.81z"/>
				</g>
			</g>
			<g>
				<path style="fill:#000E3F;" d="M413.385,332.713l-17.273-7.003c-0.951-0.384-2.03,0.072-2.415,1.021      c-0.383,0.949,0.074,2.029,1.021,2.413l17.273,7.003c0.229,0.093,0.465,0.136,0.697,0.136c0.731,0,1.425-0.437,1.718-1.157      C414.789,334.178,414.332,333.098,413.385,332.713z"/>
				<path style="fill:#000E3F;" d="M479.08,254.808c4.247-19.5-6.239-39.615-24.886-47.214c-7.004-2.85-14.626-3.72-22.06-2.515      c-12.003,1.918-22.382,8.849-28.698,19.076c-3.82-0.466-6.598,1.929-7.638,4.65c-1.053,2.749-0.509,6.288,2.334,8.385      c-2.145,9.852-0.613,20.122,4.264,28.919c-5.172,0.009-9.775,3.11-11.735,7.915c-1.635,4.052-1.06,8.579,1.43,12.092      l-43.141,121.202l-12.228,34.857c-2.71,7.694,1.107,16.134,8.691,19.216l10.165,4.119c1.878,0.762,3.821,1.125,5.735,1.125      c5.773-0.001,11.27-3.304,13.85-8.867l15.491-33.556l53.457-117.052c2.817-0.522,5.375-1.934,7.257-4.127      c0.926-1.055,1.657-2.236,2.172-3.509c0-0.001,0-0.002,0.002-0.004c1.994-4.966,0.677-10.392-2.946-13.866      c0.578-0.177,1.156-0.337,1.732-0.543c8.953-3.145,16.506-9.26,21.459-17.253c0.34,0.044,0.675,0.076,0.997,0.076      c3.333,0,5.72-2.224,6.659-4.703C482.491,260.463,481.957,256.923,479.08,254.808z M432.725,208.738      c6.75-1.099,13.696-0.306,20.071,2.288c16.706,6.806,26.255,24.64,22.884,42.12l-68.62-27.817      C412.848,216.44,422.089,210.438,432.725,208.738z M387.286,422.664l-15.488,33.548c-2.598,5.605-9.108,8.181-14.828,5.862      l-10.165-4.118c-5.746-2.335-8.639-8.727-6.586-14.554l8.238-23.509l46.519-130.831c0.244,0.177,0.507,0.327,0.763,0.486      c0.608,0.378,1.239,0.726,1.907,1l39.39,15.962c0.438,0.176,0.883,0.321,1.33,0.447c0.134,0.038,0.27,0.066,0.405,0.1      c0.324,0.08,0.648,0.149,0.977,0.203c0.074,0.012,0.148,0.035,0.223,0.047L387.286,422.664z M450.103,298.134      c-0.358,0.887-0.87,1.712-1.533,2.469c-1.518,1.767-3.622,2.859-5.929,3.073c-0.05,0.004-0.098,0.014-0.147,0.023      c-1.024,0.052-2.044-0.024-3.036-0.283c-0.002,0-0.004-0.001-0.005-0.001c-0.348-0.091-0.693-0.204-1.031-0.341l-39.378-15.957      c-0.337-0.138-0.664-0.296-0.981-0.472c-0.949-0.529-1.796-1.221-2.489-2.037c-0.001-0.001-0.001-0.001-0.002-0.002      c-2.167-2.557-2.733-6.08-1.476-9.19c1.388-3.405,4.657-5.603,8.323-5.603c1.067,0,2.099,0.189,3.065,0.561      c0.07,0.028,0.141,0.05,0.213,0.068c0.025,0.01,0.053,0.02,0.082,0.031l39.475,16.02c0.002,0.001,0.01,0.004,0.019,0.009      c0.052,0.029,0.107,0.056,0.16,0.08C449.871,288.531,451.92,293.606,450.103,298.134z M451.091,281.617      c-1.588,0.566-3.178,1.01-4.732,1.321l-3.72-1.509l-35.298-14.323c-5.6-8.324-7.664-18.471-5.788-28.232l0.271,0.109      c0.977,0.399,2.307,0.938,4.186,1.699c4.352,1.762,11.67,4.724,24.014,9.734c0.261,0.104,1.493,0.6,3.367,1.354l36.799,14.907      C465.679,273.584,458.971,278.849,451.091,281.617z M477.977,261.916c-0.562,1.476-2.023,2.787-4.446,2.12      c-0.085-0.035-0.172-0.07-0.228-0.09l-1.274-0.516c-8.369-3.521-40.264-16.309-40.62-16.451      c-12.336-5.006-19.656-7.97-24.008-9.732c-4.12-1.668-5.752-2.328-6.167-2.508c-0.069-0.043-0.137-0.082-0.21-0.115      c-2.038-0.969-2.354-2.955-1.766-4.494c0.545-1.426,2.051-2.822,4.469-2.158c0.085,0.035,0.171,0.069,0.224,0.087l4.201,1.704      c16.253,6.686,67.551,27.423,68.071,27.627C478.259,258.341,478.572,260.349,477.977,261.916z"/>
			</g>
		</g>
	</g>
</g>















</svg>
