<?xml version="1.0" encoding="UTF-8"?>
<!-- Generator: Adobe Illustrator 25.2.1, SVG Export Plug-In . SVG Version: 6.00 Build 0)  -->
<svg xmlns="http://www.w3.org/2000/svg" xmlns:xlink="http://www.w3.org/1999/xlink" version="1.1" id="Capa_1" x="0px" y="0px" viewBox="0 0 512 512" style="enable-background:new 0 0 512 512;" xml:space="preserve" width="512" height="512">
<g>
	<g>
		<g>
			<g>
				<g>
					<path style="fill:#FFCF00;" d="M493.419,342.71c-22.643,50.187-61.552,93.447-114.012,121.055       C256.389,528.502,102.55,482.296,35.737,360.384C2.6,299.922-3.595,232.225,12.944,170.807       c16.389-61.04,55.261-115.878,112.357-151.182c3.802-2.35,8.482,1.276,7.089,5.507C107.056,101,117.158,188.59,171.108,260.851       c63.997,85.749,175.37,121.522,276.55,91.035c6.36-1.907,12.672-4.089,18.942-6.525c6.962-2.705,13.762-5.671,20.431-8.938       C491.041,334.472,495.262,338.637,493.419,342.71z"/>
					<path style="opacity:0.5;fill:#FD8A02;" d="M493.419,342.71c-22.643,50.187-61.552,93.447-114.012,121.055       C256.389,528.502,102.55,482.296,35.737,360.384C2.6,299.922-3.595,232.225,12.944,170.807       c-0.23,0.853,4.163,7.334,4.683,8.581c12.497,29.982,14.324,100.457,38.384,146.404       c48.918,93.418,167.251,143.854,313.236,87.38c32.202-12.457,68.663-34.969,76.473-41.307       c8.925-7.244,11.581-16.798,18.65-24.924c4.421-5.081,16.488-7.494,22.66-10.517       C491.041,334.472,495.262,338.637,493.419,342.71z"/>
					<g>
						<path style="fill:#FD8A02;" d="M55.664,290.163c5.268,12.486,16.286,19.762,24.611,16.25        c8.324-3.512,10.802-16.481,5.534-28.967c-5.268-12.486-16.287-19.761-24.611-16.25        C52.874,264.708,50.396,277.677,55.664,290.163z"/>
						<path style="fill:#FD8A02;" d="M182.214,451.441c12.45,5.353,25.436,2.964,29.005-5.336c3.569-8.3-3.631-19.368-16.081-24.721        c-12.45-5.353-25.436-2.964-29.005,5.336C162.564,435.02,169.763,446.088,182.214,451.441z"/>
						<path style="fill:#FD8A02;" d="M351.334,433.274c12.284-5.723,19.15-17.001,15.335-25.191        c-3.815-8.19-16.867-10.189-29.151-4.466c-12.285,5.723-19.15,17.001-15.334,25.191        C325.998,436.998,339.05,438.998,351.334,433.274z"/>
						<path style="fill:#FD8A02;" d="M16.221,224.665c0.92,11.125,7.678,19.646,15.094,19.033        c7.417-0.613,12.683-10.129,11.763-21.254c-0.92-11.125-7.678-19.646-15.094-19.033        C20.568,204.025,15.301,213.54,16.221,224.665z"/>
						<path style="fill:#FD8A02;" d="M160.893,385.702c9.053,6.531,19.921,6.933,24.275,0.898        c4.354-6.035,0.545-16.222-8.507-22.753c-9.053-6.531-19.921-6.933-24.275-0.898        C148.032,368.983,151.841,379.171,160.893,385.702z"/>
						<path style="fill:#FD8A02;" d="M272.942,472.822c11.148-0.574,19.875-7.065,19.492-14.497        c-0.383-7.432-9.73-12.991-20.878-12.417c-11.148,0.574-19.875,7.064-19.492,14.496        C252.447,467.837,261.794,473.396,272.942,472.822z"/>
						<path style="fill:#FD8A02;" d="M75.268,90.249c-3.179,9.09-0.843,18.177,5.217,20.297c6.06,2.119,13.55-3.532,16.729-12.622        c3.179-9.09,0.843-18.178-5.217-20.297C85.937,75.507,78.447,81.158,75.268,90.249z"/>
						
							<ellipse transform="matrix(0.6917 -0.7221 0.7221 0.6917 -257.7069 184.3092)" style="fill:#FD8A02;" cx="87.034" cy="394.016" rx="11.625" ry="17.437"/>
						<path style="fill:#FD8A02;" d="M419.996,420.104c8.176-5.088,12.054-13.632,8.662-19.083        c-3.392-5.451-12.77-5.745-20.946-0.656c-8.176,5.088-12.054,13.632-8.662,19.083        C402.442,424.898,411.82,425.192,419.996,420.104z"/>
					</g>
				</g>
				<path style="fill:#000E3F;" d="M125.637,19.434c3.736-1.947,8.105,1.591,6.752,5.698      C107.056,101,117.158,188.59,171.108,260.851c63.997,85.749,175.37,121.522,276.55,91.035c6.36-1.907,12.672-4.089,18.942-6.525      c6.962-2.705,13.762-5.671,20.431-8.938c4.01-1.951,8.232,2.214,6.388,6.286c-22.643,50.187-61.552,93.447-114.012,121.055      c-0.308,0.162-0.631,0.331-0.939,0.492C255.6,528.27,102.383,481.991,35.737,360.384C2.6,299.922-3.595,232.225,12.944,170.807      c16.389-61.04,55.261-115.878,112.357-151.182C125.412,19.556,125.524,19.493,125.637,19.434 M123.748,15.807      c-0.201,0.105-0.4,0.218-0.597,0.34c-56.381,34.861-96.923,89.411-114.157,153.6C-8.513,234.759-0.288,303.161,32.151,362.35      c32.739,59.738,86.963,103.595,152.683,123.493c65.686,19.887,135.123,13.509,195.522-17.958l0.955-0.5      c51.771-27.245,91.826-69.775,115.836-122.992c1.563-3.454,0.819-7.396-1.898-10.038c-2.696-2.623-6.624-3.254-10.007-1.608      c-6.456,3.163-13.223,6.123-20.123,8.804c-6.221,2.417-12.491,4.577-18.635,6.42c-100.232,30.201-209.577-5.793-272.098-89.564      c-25.793-34.547-42.051-73.128-48.324-114.672c-5.9-39.074-2.371-79.638,10.207-117.306c1.134-3.442,0.088-7.163-2.657-9.495      C130.836,14.573,126.963,14.132,123.748,15.807L123.748,15.807z"/>
			</g>
			<g>
				<g>
					<path style="fill:#915EFD;" d="M331.179,388.867c-1.164-0.201-9.327,13.646-29.591,11.721       c-33.504-3.183-36.084,9.827-56.857,10.923c-6.156,0.313-12.647-2.999-10.968-9.021c1.992-7.185,5.059-8.036,6.782-9.67       c4.186-3.94,9.29-4.186,11.305-4.723c0.739-0.201,0.671-1.186-0.314-1.119c-11.976,0.783-13.408,9.424-26.526,12.602       c-5.506,1.321-11.169-3.85-9.356-10.565c1.701-6.2,5.774-10.386,11.304-13.341c6.066-3.268,11.147-2.485,12.67-2.641       c0.917-0.112,1.141-1.097-0.09-1.209c-8.618-0.806-16.788,3.671-21.175,9.021c-3.358,4.074-10.767,3.022-11.371-1.992       c-0.246-2.216-0.045-4.32,1.231-6.29c10.79-16.542,37.996-17.963,34.696-20.414c-10.543-7.678-24.51-20.996-32.524-31.226       c-3.336-4.253-2.91,0.269-30.24,8.663c-17.706,5.44-41.165,9.804-62.52,29.883c-3.604,3.38-7.409,6.402-12.289,7.029       c-9.088,1.164-5.752-12.58,3.895-21.444c0.94-0.851,2.642-1.231,2.328-3.067c-1.522-0.067-2.193,1.231-3.156,2.037       c-4.5,3.761-14.371,10.409-19.945,9.536c-3.358-0.515-2.373-4.432-0.581-7.297c5.91-9.424,11.908-12.043,13.318-14.281       c0.381-0.627-0.268-1.186-0.738-0.94c-3.515,1.88-13.61,8.058-18.982,7.342c-8.596-1.142,7.408-22.586,34.091-38.859       c2.658-1.616,26.872-13.605,46.707-32.971c5.718-5.582-7.088,0.715-21.682,2.237c-20.457,2.109-40.134-8.6-50.722-24.645       c-39.151-59.34,21.107-141.714,80.65-106.952c3.716,2.172,2.507-1.186,7.7-6.111c18.221-17.303,42.015-7.185,40.291,12.67       c-0.246,2.664-1.209,5.058-2.081,7.543c-0.382,1.074-1.523,2.238-0.762,3.313c0.628,0.873,2.037,0.448,3.112,0.582       c17.529,2.504,23.095,9.375,25.013,15.775c1.151,3.84,1.759,6.52,5.296,6.229c101.698-8.111,214.04,115.895,155.98,186.555       C388.609,383.791,356.508,393.249,331.179,388.867z"/>
					<g>
						<path style="fill:#FFFFFF;" d="M322.157,391.024c1.27,3.4,1.107,3.716-1.945,5.47c-5.743,3.301-11.897,4.803-18.537,4.09        c-14.723-1.582-27.798,0.872-38.896,6.266c-6.875,3.341-18.159,6.427-25.258,3.247c-4.161-1.864-4.66-5.766-3.16-9.599        c1.015-2.594,1.213-5.595-0.321-4.68c-2.007,1.198-4.145,2.171-6.345,3.031c-9.897,3.871-15.128-4.988-10.592-13.787        c1.758-3.411-1.201-2.182-2.684-1.878c-3.251,0.668-6.888-0.783-7.383-4.126c-0.325-2.198-0.163-4.346,1.074-6.31        c8.334-13.23,25.902-14.536,39.39-18.542c6.875-2.042,13.159-8.379,20.537-7.121        C291.766,351.132,312.378,364.856,322.157,391.024z"/>
						<path style="fill:#FFFFFF;" d="M460.783,340.755c3.738,6.939,4.5,14.349,2.597,20.594        c-3.693,12.423-17.841,20.37-39.799,11.304c-21.803-8.998-25.026-44.141-14.461-66.19c1.008-2.104,2.104-4.051,3.269-5.887        c15.96-25.25,45.461-25.585,53.319-8.73c5.731,12.334-3.872,26.234-17.326,30.487c-9.043,2.865,1.544,2.283,10.342,15.087        c0.045,0.067,0.112,0.134,0.156,0.224c0.224,0.291,0.426,0.627,0.627,0.94c0.335,0.515,0.649,1.052,0.94,1.567        C460.582,340.353,460.672,340.554,460.783,340.755z"/>
						<path style="fill:#FFFFFF;" d="M242.918,182.611c-0.067,0.269-0.135,0.537-0.224,0.806        c-8.662,27.712-56.542,29.122-68.696-14.594c-0.314-1.052-0.583-2.126-0.829-3.223c-1.657-7.297-2.015-14.93-0.739-22.295        c1.432-8.215,5.976-13.946,13.452-17.885c7.142-3.783,16.497-4.544,23.571-0.224c0.045,0,0.067,0.022,0.134,0.067        c0.425,0.269,0.85,0.559,1.254,0.85c0.402,0.291,0.761,0.582,1.119,0.895c0.313,0.269,0.603,0.537,0.895,0.828        c2.664,2.619,4.275,5.753,5.103,8.909c0.157,0.537,0.247,1.097,0.336,1.678c0.068,0.381,0.113,0.761,0.157,1.142        c0.162,1.262,0.149,2.497,0.072,3.702c-0.004,0.103,0,0.201-0.006,0.305c-0.022,0.358-0.045,0.716-0.09,1.074        c-0.045,0.358-0.111,0.716-0.179,1.052c-0.201,1.097-0.492,2.126-0.872,3.044c-0.023,0.09-0.068,0.202-0.113,0.313        c-0.381,0.873-0.716,1.769-1.03,2.664c-0.268,0.694-0.47,1.209-0.604,1.634c-0.425,1.208,1.926,0.604,3.246,0.694        C234.658,155.101,247.082,167.479,242.918,182.611z"/>
						<path style="fill:#FFFFFF;" d="M111.172,343.348c0.377-0.354,0.97-0.806,0.42-1.31c-0.477-0.436-1.041,0.044-1.427,0.409        c-9.269,8.773-24.167,15.008-23.915,8.451c0.193-5.048,7.847-12.822,12.043-16.232c2.377-1.932,3.505-2.723,2.838-3.536        c-0.248-0.302-0.628-0.159-0.908-0.007c-3.235,1.755-13.499,8.118-18.992,7.223c-8.16-1.33,8.65-23.519,34.286-38.764        c2.243-1.334,4.727-2.256,7.051-3.463c1.501-0.779,2.893-0.713,4.375,0c14.302,6.876,28.025,22.605,28.911,38.331        c0.193,3.43-0.172,2.106-6.862,5.025c-29.95,13.068-32.079,24.957-42.954,26.914        C91.934,368.927,108.395,345.959,111.172,343.348z"/>
						<path style="fill:#FFFFFF;" d="M88.857,138.759c3.357,0.833,8.878,3.436,10.597,4.85c2.389,1.965-6.821,9.968-7.938,11.437        c-8.828,11.617-14.579,28.102-15.172,42.653c-0.041,1.002-0.405,1.985-1.389,1.774c-0.844-0.181-1.717-0.389-2.477-0.781        C35.667,179.687,49.835,129.072,88.857,138.759z"/>
						<path style="fill:#FFFFFF;" d="M174.748,250.186c-13.331,21.439-53.631,27.582-78.262,2.127        c-1.869-1.931-2.116-2.84-0.937-5.244c2.746-5.597,5.916-10.925,10.271-15.459c0.821-0.855,3.486-4.572,5.02-4.209        c1.062,0.252,1.887,3.315,2.381,4.134c8.714,14.464,28.811,10.949,27.434-10.727c-0.283-4.453-1.94-7.033,0.139-7.183        c15.994-1.158,30.173,6.31,35.492,21.242C179.008,242.508,178.867,243.561,174.748,250.186z"/>
					</g>
					<g>
						<path style="fill:#4217A6;" d="M137.55,174.146c1.751-8.979,18.143-7.243,20.267,0.657        C160.967,186.52,135.24,185.995,137.55,174.146z"/>
						<path style="fill:#4217A6;" d="M98.305,183.138c-4.485-7.973-19.5-1.172-19.032,6.996        C79.966,202.246,104.223,193.659,98.305,183.138z"/>
					</g>
					<g style="opacity:0.25;">
						<path style="fill:#000E3F;" d="M250.528,248.653c7.126,11.925,6.334,27.277,2.609,40.18        c-3.773,13.067-2.37,27.434,1.784,40.311c1.129,3.499,2.088,7.07,3.846,10.347c5.872,10.944-8.762,18.052-18.465,10.782        c-11.066-8.291-21.224-18.618-29.898-29.351c-3.402-4.209-2.978-3.478,0.636-6.421c24.736-20.139,33.122-48.189,29.703-68.442        c-0.23-1.364-2.339-5.843-1.746-6.432C242.165,236.479,248.26,244.858,250.528,248.653z"/>
						<path style="fill:#000E3F;" d="M373.279,360.032c10.379,17.657,23.735,13.836,12.986,19.245        c-15.495,7.796-32.597,10.38-49.911,9.388c-4.779-0.274-3.669-0.813-0.386-6.82c12.704-23.246,3.641-40.371-4.92-56.955        c-3.398-6.583,7.114-4.26,10.182-3.47C358.993,325.993,364.961,345.882,373.279,360.032z"/>
						<path style="fill:#000E3F;" d="M253.535,300.614c-0.333,0.266-0.479,0.383-0.626,0.5c-0.103-0.178-0.293-0.355-0.295-0.534        c-0.02-1.655,0.407-9.427,1.426-9.842c0.086-0.035,0.417,0.212,0.408,0.311C254.156,294.294,253.835,297.537,253.535,300.614z        "/>
						<path style="fill:#000E3F;" d="M239.443,246.938c0.098,1.702,0.167,1.829-0.094,1.929c-0.642,0.247-0.886-2.37-0.247-2.241        C239.189,246.644,239.255,246.759,239.443,246.938z"/>
					</g>
					<g style="opacity:0.25;">
						<path style="fill:#915EFD;" d="M463.38,361.349c-3.693,12.423-17.841,20.37-39.799,11.304        c-21.803-8.998-25.026-44.141-14.461-66.19c1.008-2.104,2.104-4.051,3.269-5.887c1.543,0.269,3.044,0.716,4.387,1.5        c4.14,2.418,6.536,8.394,7.073,12.916c1.03,8.998-1.745,18.4,6.536,24.734c7.074,5.395,19.071,4.812,25.496-1.343        c1.544-1.477,2.104-1.791,2.843-0.962c0.045,0.067,0.112,0.134,0.156,0.224c0.247,0.291,0.516,0.694,0.828,1.209        c0.269,0.425,0.515,0.851,0.739,1.298c0.134,0.202,0.224,0.403,0.336,0.604C464.119,347.157,464.79,354.432,463.38,361.349z"/>
						<path style="fill:#915EFD;" d="M242.918,182.611c-0.067,0.269-0.135,0.537-0.224,0.806        c-8.662,27.712-56.542,29.122-68.696-14.594c1.722-0.582,8.55,6.357,10.05,7.387c8.417,5.887,22.496,5.215,23.078-7.253        c0.425-9.177-4.992-17.325-6.044-26.257c-0.694-6.2,2.44-12.871,6.134-16.699c0.918-0.94,1.41-1.209,2.239-0.806        c0.045,0,0.067,0.022,0.134,0.067c0.201,0.089,0.447,0.246,0.716,0.448c0.179,0.134,0.359,0.269,0.538,0.403        c0.402,0.291,0.761,0.582,1.119,0.895c0.313,0.269,0.603,0.537,0.895,0.828c2.641,2.507,4.319,5.506,5.103,8.909        c0.157,0.537,0.247,1.097,0.336,1.678c0.068,0.381,0.113,0.761,0.157,1.142c0.111,1.276,0.135,2.619,0.066,4.007        c-0.022,0.358-0.045,0.716-0.09,1.074c-0.045,0.358-0.111,0.716-0.179,1.052c-0.201,1.052-0.515,2.037-0.872,3.044        c-0.023,0.09-0.068,0.202-0.113,0.313c-0.314,0.895-0.671,1.769-1.03,2.664c-0.268,0.694-0.47,1.209-0.604,1.634        c-0.537,1.701,0.09,1.544,2.642,1.835c11.259,1.253,23.1,7.409,24.914,19.653        C243.545,177.306,243.433,179.925,242.918,182.611z"/>
						<path style="fill:#915EFD;" d="M73.094,198.984c-2.624-1.385-5.626-2.947-8.229-5.131c-5.283-4.431-9.26-9.81-11.65-16.316        c-0.452-1.231-0.356-1.662,0.812-2.007c15.942-4.71,17.427-22.651,39.894-26.229c0.315-0.05,1.036,0.012,1.237,0.244        c0.605,0.701-0.614,1.349-2.847,4.51c-7.786,11.019-7.535,12.681-10.244,18.169c-0.385,0.78-0.905,1.532-1.097,2.359        c-2.364,10.202-2.857,6.175-4.594,22.672C76.128,199.616,75.676,199.923,73.094,198.984z"/>
					</g>
					<g style="opacity:0.5;">
						<path style="fill:#915EFD;" d="M210.542,176.515c4.692,0.514,9.332,0.673,13.923-0.666c7.959-2.32,10.024,11.186-6.258,12.569        c-11.275,0.957-27.127-5.369-31.346-15.842c-0.758-1.882,0.322-3.389,1.962-2.964        C193.799,170.902,201.852,175.563,210.542,176.515z"/>
						<path style="fill:#915EFD;" d="M453.425,297.207c-1.148,0.977-6.502,3.651-7.73,4.224        c-9.583,4.473-15.458,10.869-21.839,17.891c-2.941,3.238-8.377,3.288-8.369-1.841c0.01-6.475,5.933-11.274,10.447-15.074        C443.831,287.339,458.709,292.711,453.425,297.207z"/>
						<path style="fill:#915EFD;" d="M417.465,337.027c5.694-2.987,7.532,3.974,16.715,10.914        c6.604,4.991,12.592,6.533,16.185,9.161c3.623,2.649,1.199,8.984-12.386,5.24C420.67,357.57,411.118,340.358,417.465,337.027z        "/>
						<path style="fill:#915EFD;" d="M195.461,136.283c12.157-7.122,16.157,4.151,8.552,6.551        c-9.434,2.977-14.221,14.779-16.696,17.269c-1.044,1.05-2.536,1.828-3.634,0.445        C181.052,157.23,184.494,142.708,195.461,136.283z"/>
						<path style="fill:#915EFD;" d="M83.74,143.528c0.939,0.077,2.251,0.45,2.414,1.549c0.192,1.292-1.258,1.893-2.193,2.354        c-2.132,1.05-4.509,1.545-6.57,2.748c-10.371,6.053-10.464,11.326-12.492,14.559c-1.443,2.301-5.185,2.248-5.959-1.086        C57.039,155.466,68.447,142.269,83.74,143.528z"/>
					</g>
				</g>
				<g>
					<path style="fill:#000E3F;" d="M410.607,364.536c-0.94-0.937-1.184-0.954-2.092,0.086       c-18.798,21.522-47.433,28.777-74.603,26.339c-1.928-0.173-3.259,0.293-4.617,1.649c-7.096,7.082-17.819,11.734-28.218,10.481       c-13.791-1.661-27.51,1.076-37.633,6.086c-6.619,3.275-14.396,5.12-22.169,4.698c-2.229-0.121-4.272-0.979-6.161-2.064       c-3.189-1.831-4.163-5.72-3.957-9.466c0.15-2.702,0.125-1.955-4.12-0.689c-7.626,2.275-15.25-2.679-13.971-12.196       c0.123-0.918,1.029-2.537,0.233-3.281c-0.602-0.562-1.855-0.419-2.813-0.61c-7.816-1.565-11.101-15.303,8.937-25.309       c10.895-5.441,18.347-5.948,20.27-7.104c-3.344-3.894-10.843-6.768-30.767-30.104c-5.178-6.065,1.179-2.486-25.491,8.073       c-13.661,5.409-38.346,6.646-65.873,31.704c-3.606,3.283-8.499,6.075-13.377,6.199c-4.601,0.117-7.952-4.205-6.167-11.211       c0.678-2.659,1.612-3.475,1.106-3.994c-1.102-1.132-3.124,2.462-10.641,2.29c-4.882-0.112-6.295-5.822-3.094-10.705       c3.247-4.953,3.753-5.076,3.326-5.444c-0.193-0.166-0.641-0.156-0.93-0.071c-1.995,0.589-3.986,1.145-6.102,1.033       c-4.224-0.223-6.532-3.998-4.035-9.325c3.799-8.103,13.838-17.556,20.862-23.218c21.071-16.984,37.087-18.082,60.324-41.273       c0.201-0.201,0.567-0.422,0.203-0.739c-0.479-0.416-6.449,3.9-18.559,4.889c-34.755,2.839-61.629-24.548-65.148-61.121       c-0.532-5.531,0.507-7.211-2.724-8.612c-5.369-2.328-9.971-5.793-13.889-10.169c-27.826-31.077,4.864-71.5,40.847-50.758       c2.251,1.298,2.893,1.127,4.637-0.303c13.252-10.869,31.992-16.691,50.352-12.454c16.901,3.901,15.79,9.376,18.815,5.095       c6.886-9.745,20.315-15.746,32.222-12.236c12.288,3.622,18.754,17.64,14.033,29.492c-0.946,2.375-0.543,2.3,0.465,2.566       c4.534,1.195,13.634,2.018,21.704,12.229c1.912,2.419,2.975,5.323,3.934,8.238c0.542,1.649,0.539,1.681,2.269,1.524       c68.322-6.188,148.013,49.589,169.384,111.792c1.274,3.707,1.279,2.852,2.964,1.222c13.733-13.289,33.643-13.025,43.971-2.287       c10.098,10.5,6.744,29.424-12.214,38.13c-3.094,1.42-3.095,0.508,2.386,5.148c9.234,7.818,15.336,22.258,11.118,34.499       c-3.95,11.464-16.417,17.135-28.002,15.86C424.023,377.624,416.83,370.744,410.607,364.536z M361.082,285.37       c2.846,6.095,4.993,12.518,6.385,19.098c0.341,1.609,0.521,3.305-0.972,3.674c-0.698,0.173-1.281-0.1-1.74-0.641       c-0.599-0.706-0.645-1.6-0.829-2.449c-13.132-60.652-81.704-81.681-105.604-26.805c-6.682,15.342-6.827,40.782,3.039,60.457       c2.243,4.473,2.217,10.824-3.185,14.187c-3.868,2.408-8.488,2.348-13.587,3.287c-11.183,2.059-28.098,6.632-34.614,15.972       c-6.175,8.85,3.801,12.766,7.622,7.925c6.085-7.707,17.624-11.083,23.557-8.909c0.859,0.315,1.23,1.913,0.038,2.693       c-1.497,0.979-3.673-0.145-7.105,0.547c-7.024,1.415-12.432,5.178-16.074,11.35c-4.396,7.448,0.968,15.863,9.467,11.989       c10.619-4.84,10.729-9.176,21.399-11.642c2.177-0.503,4.806-0.942,4.936,1.289c0.095,1.62-1.616,1.886-3.501,2.172       c-12.192,1.855-21.499,16.627-11.246,20.088c5.932,2.002,16.362-0.615,22.559-3.482c32.009-14.81,40.394-0.407,58.043-10.652       c10.098-5.862,16.833-17.189,18.863-28.272c4.72-25.768-8.451-39.372-8.789-41.788c-0.232-1.659,1.68-2.479,2.579-1.613       c10.1,9.723,15.963,39.433,4.648,58.368c-0.782,1.309-1.53,2.639-2.265,3.976c-0.322,0.587-0.06,1.159,0.54,1.24       c5.144,0.69,18.306,0.431,29.638-1.871c16.604-3.372,32.341-11.805,42.346-25.312c1.587-2.143,3.674-1.202,5.345,0.876       c4.763,5.924,10.638,10.255,17.894,12.703c31.928,10.776,46.85-26.598,15.432-46.994c-0.456-0.296-0.97-0.507-1.424-0.806       c-1.767-1.168-1.106-3.276,0.522-3.817c3.3-1.097,4.652-0.761,10.406-4.609c18.037-12.061,12.052-34.511-7.758-36.072       c-10.602-0.835-19.508,2.623-26.446,10.811c-9.449,11.15,1.193-7.938-35.429-51.375       c-35.736-42.386-97.515-67.591-137.308-62.585c-1.718,0.216-1.797,0.321-2.068,1.946c-0.826,4.951-1.125,8.275-6.355,14.039       c-17.273,19.039-52.67,12.454-58.067-8.137c-0.476-1.815,2.243-2.335,3.135-0.886c1.139,1.849,1.905,5.726,7.541,10.117       c20.702,16.132,54.554,0.633,49.668-20.996c-1.902-8.415-10.372-15.203-18.924-17.12c-2.46-0.552-4.926-0.904-7.408-1.268       c-5.799-0.849,3.938-6.27,0.956-18.735c-3.999-16.711-28.441-19.566-40.922-1.756c-0.563,0.804-1.053,1.659-1.638,2.446       c-1.793,2.412-3.129,0.725-5.62-0.573c-10.252-5.341-20.827-8.595-32.455-7.154c-13.028,1.613-26.308,8.144-36.883,19.247       c-41.761,43.842-16.407,120.813,38.233,118.251c15.816-0.741,28.95-8.771,31.271-11.778       c15.305-19.835,16.183-31.841,18.649-37.86c0.545-1.329,2.647-0.904,2.95,0.546c0.257,1.232-0.832,5.251-1.133,6.061       c-3.365,9.046-6.48,21.162-21.292,37.955c-10.729,12.164-24.399,22.673-38.569,30.572c-3.997,2.228-7.881,4.661-12.083,6.509       c-4.813,2.116-19.545,12.731-27.771,21.607c-2.183,2.356-9.934,11.368-9.272,14.533c0.316,1.51,1.979,1.458,3.158,1.234       c9.279-1.762,14.068-6.497,16.955-7.481c0.998-0.34,1.98,0.34,2.14,1.413c0.223,1.493-0.651,2.014-2.242,3.317       c-5.296,4.337-10.994,9.772-12.798,15.791c-0.914,3.05,3.252,2.475,5.978,1.423c13.943-5.376,17.12-13.973,19.306-10.422       c0.438,0.711,0.549,1.46-0.032,2.122c-0.574,0.653-1.173,1.319-1.874,1.819c-7.86,5.603-15.295,22.473-3.998,19.779       c6.831-1.629,9.247-7.522,22.417-16.176c18.994-12.482,33.726-15.144,47.033-19.211c46.181-14.114,68.097-53.936,61.271-85.882       c-0.902-4.22,2.5-4.242,3.113-2.581c0.263,0.713,0.443,1.464,0.58,2.213c2.894,15.838-0.058,33.361-9.487,49.044       c-7.175,11.934-13.925,17.789-21.94,24.482c-0.963,0.804-0.278,1.327,0.795,2.699c12.566,16.062,33.155,32.996,34.888,32.718       c6.691-1.073,13.911-0.976,13.632-8.125c-0.064-1.636-1.037-3.193-1.68-4.675c0-0.224-7.811-15.554-7.71-36.29       c0.097-19.971,7.948-39.257,23.671-50.847C304.763,229.327,345.336,251.643,361.082,285.37z M91.962,140.953       c-27.589-10.014-48.977,15.035-35.671,40.626c3.415,6.569,8.483,11.618,14.979,15.098c3.983,2.133,3.827,1.857,4.206-2.135       c0.969-10.203,3.653-20.027,8.554-29.308C96.624,141.388,104.706,146.645,91.962,140.953z"/>
					<path style="fill:#000E3F;" d="M137.585,236.107c-0.463,0.539-1.934,1.544-1.946,2.337c-0.015,1.056,2.248,1.666,3.243,2.063       c5.497,2.192,11.335-1.744,12.621-7.725c0.167-0.777,0.107-1.889,0.79-2.397c1.297-0.964,2.387,0.538,2.545,1.689       c0.622,4.538-3.347,10.853-10.021,12.447c-8.056,1.923-10.766-3.706-11.117-0.943c-0.899,7.078-8.369,12.774-18.637,8.578       c-5.445-2.225-4.594-5.74-1.953-5.137c0.939,0.214,11.307,7.392,15.675-1.288c4.408-8.759-3.29,0.054-12.665-8.807       c-3.122-2.951-5.321-6.859-6.605-10.935c-0.371-1.176-0.665-2.378-0.869-3.595c-0.559-3.331-0.527-6.762,0.093-10.081       c2.198-11.77,13.484-17.391,22.426-11.447C142.874,208.65,145.089,227.37,137.585,236.107z"/>
					<g>
						<path style="fill:#000E3F;" d="M150.186,202c-1.543,0-3.069-0.356-4.422-1.076c-1.86-0.99-4.993-3.535-5.056-9.45        c-0.011-0.99,0.783-1.799,1.771-1.81c0.007,0,0.013,0,0.02,0c0.982,0,1.779,0.789,1.79,1.771        c0.033,3.014,1.154,5.261,3.159,6.326c1.93,1.03,4.444,0.853,6.414-0.444c1.261-0.831,3.327-2.831,2.99-6.895        c-0.083-0.986,0.649-1.852,1.635-1.932c0.986-0.074,1.854,0.649,1.932,1.635c0.358,4.315-1.314,8.027-4.588,10.182        C154.127,201.429,152.143,202,150.186,202z"/>
					</g>
					<g>
						<path style="fill:#000E3F;" d="M93.86,215.822c-1.183,0-2.378-0.199-3.521-0.61c-3.627-1.307-6.075-4.437-6.72-8.593        c-0.151-0.977,0.52-1.891,1.497-2.044c0.953-0.142,1.891,0.518,2.044,1.497c0.597,3.858,3.008,5.27,4.392,5.769        c2.262,0.815,4.802,0.382,6.475-1.102c1.689-1.502,2.232-3.81,1.569-6.676c-0.223-0.964,0.378-1.926,1.34-2.149        c0.977-0.221,1.928,0.378,2.149,1.34c1.298,5.618-1.122,8.779-2.68,10.163C98.635,214.989,96.274,215.822,93.86,215.822z"/>
					</g>
				</g>
				<g>
					<path style="fill:#915EFD;" d="M124.113,228.979c2.507,2.808,3.903,6.913,3.906,8.456c0.003,1.625-2.14,2.061-2.798,0.918       c-1.524-2.644-0.341-2.85-3.115-6.395c-3.779-4.829-7.234-3.519-9.179-3.662c-1.736-0.128-2.417-2.732-0.218-3.338       C115.469,224.198,120.185,224.579,124.113,228.979z"/>
					<path style="fill:#915EFD;" d="M136.651,216.317c0.852,0.233,1.447,1.607,0.996,2.213c-0.383,0.515-0.903,0.932-1.373,1.38       c-6.035,5.755-1.865,12.656-1.282,14.445c0.488,1.499-1.696,2.729-2.726,1.316       C126.494,227.755,130.985,216.832,136.651,216.317z"/>
				</g>
			</g>
		</g>
		<g>
			<g>
				<g>
					<path style="fill:#000E3F;" d="M282.305,144.829c-1.573-6.039-3.315-11.756-4.279-16.88l-0.289-1.8       c-0.142-0.902-0.284-1.8-0.453-1.826c-0.231-0.04-1.733,8.005-2.786,14.372c-0.289,1.762-0.56,3.411-0.72,4.731       c-0.889,0.087-1.693,0.011-2.551-0.131c-1.818-0.3-3.635-0.951-5.399-1.24l0.658-3.979c1.191-7.221,2.044-13.447,3.217-20.553       c0.862-5.228,1.831-10.385,3.026-15.151c0.764-0.049,1.684,0.042,2.595,0.193c0.964,0.16,4.679,1.009,4.626,1.349       c0.618,2.962,1.066,3.446,1.906,6.857c0.271,1.153,3.035,10.252,3.204,10.281c0.258-0.133,0.702-1.755,0.915-3.062       c0.498-3.013,0.742-5.542,1.191-8.27c0.262-1.593,0.582-3.175,0.947-5.044c1.346-0.011,2.729,0.102,4.151,0.338       c1.422,0.233,2.653,0.551,3.697,0.958l-3.022,18.306c-0.466,3.195-1.013,6.493-1.546,9.735       c-0.369,2.215-0.751,4.193-1.098,6.299c-0.258,1.535-0.44,3.024-0.693,4.557l-0.191,1.138c-0.178,0.029-0.613,0.191-1.92-0.027       C285.954,145.727,283.843,145.085,282.305,144.829z"/>
					<path style="fill:#000E3F;" d="M312.128,109.9l-0.053,0.222c-3.044,12.841-6.995,25.999-9.283,38.899       c-1.529,0.94-8.648-1.991-10.323-1.915c4.266-13.258,5.564-27.461,9.888-39.702l0.027-0.113       c0.404,0.04,1.764,0.538,2.271,0.658c1.333,0.375,2.751,0.889,6.128,1.633L312.128,109.9z"/>
					<path style="fill:#000E3F;" d="M334.388,137.634l0.111,0.035l0.036,0.071c-0.786,4.042-1.946,8.692-3.902,12.425       c-1.564,3.617-4.146,4.737-7.279,4.902c-3.96-0.098-8.728-0.691-11.777-3.28c-2.515-2.18-3.235-4.702-3.128-8.11       c0.04-0.893,0.249-2.522,0.551-4.057c1.027-4.808,1.529-7.37,3.404-12.761c0.8-2.344,1.689-4.784,2.813-7.028       c1.147-2.295,2.622-4.493,5.235-5.302c1.88-0.798,3.902-0.707,5.968-0.358c8.519,1.529,14.167,7.775,10.305,16.407       l-0.156,0.313c-0.236,0.169-0.658-0.027-1.831-0.333c-2.142-0.673-3-0.824-5.115-1.791c0.027-1.622-0.16-5.062-2.302-5.737       c-1.249-0.451-2.391-1.053-3.546-0.449c-0.218,0.113-0.715,0.742-1.071,1.293c-2.151,3.191-4.515,9.939-5.799,15.574       c-0.338,1.646-0.751,3.931,0.276,5.462c0.258,0.324,0.649,0.626,1.106,0.891c1.049,0.513,2.4,0.636,3.564,0.578       c0.946-0.126,1.724-0.484,2.329-1.444c0.351-0.553,1.48-2.977,1.089-3.279c-0.827-0.442-3.404-0.889-4.031-1.389       c0.467-2.451,1.075-3.226,1.596-5.841l0.018-0.053c0.013-0.056,0.013-0.056,0.071-0.038c0,0,0.053,0.016,0.124-0.02       C325.278,133.746,332.903,137.17,334.388,137.634z"/>
					<path style="fill:#000E3F;" d="M354.385,167.458c-2.622-0.609-5.746-2.249-7.559-2.831l-0.053-0.024       c1.311-5.012,4.061-10.168,5.413-14.976l-0.031-0.073c-1.906-1.249-3.924-2.104-6.195-2.504       c-2.498,4.699-3.768,9.915-6.35,14.078c-2.177,0.264-5.781-2.893-7.346-2.744c2.115-6.173,10.141-26.552,14.94-37.282       l0.022-0.053l0.053,0.024l0.106,0.045c1.942,1.326,4.902,1.578,6.666,3.017c-1.431,5.148-3.737,9.554-4.804,14.42l0.053,0.025       c1.573,1.166,3.933,1.793,5.75,2.375l0.053,0.022c2.493-4.699,4.137-8.57,6.088-13.752c2.049,0.18,5.457,1.44,7.51,2.498       L354.385,167.458z"/>
					<path style="fill:#000E3F;" d="M391.776,152.673c-1.129-0.94-2.906-1.773-6.177-3.355l-0.107-0.053l-0.049-0.026       c-0.026,0.047-0.102,0.071-0.133,0.124c-0.724,0.849-2.68,4.573-14.296,26.916l-0.022,0.049l-0.031,0.051       c-2.697-0.942-5.844-3.242-8.492-4.155c0.178-0.691,4.853-7.852,14.305-27.174l-0.027-0.08       c-1.129-1.662-5.071-3.213-5.746-3.909c0.022-0.642,2.133-5.004,4.115-8.057c0.031-0.051-0.022-0.08,0.009-0.129       c6.91,3.689,14.589,7.535,21.113,12.061C395.18,147.247,393.447,150.435,391.776,152.673z"/>
				</g>
			</g>
			<g>
				<g>
					<path style="fill:#000E3F;" d="M320.976,72.072l0.115,0.018l0.044,0.069c-0.298,4.106-0.902,8.857-2.4,12.796       c-1.12,3.775-3.555,5.193-6.648,5.728c-3.937,0.371-8.741,0.349-12.074-1.857c-2.755-1.867-3.769-4.284-4.066-7.682       c-0.066-0.891-0.053-2.531,0.062-4.09c0.453-4.897,0.649-7.499,1.867-13.074c0.515-2.422,1.106-4.948,1.964-7.308       c0.862-2.417,2.066-4.771,4.559-5.884c1.773-1.015,3.795-1.162,5.888-1.062c8.635,0.507,14.985,6.035,12.172,15.063       l-0.12,0.329c-0.213,0.194-0.653,0.051-1.853-0.116c-2.209-0.411-3.08-0.458-5.288-1.169c-0.164-1.611-0.76-5.006-2.969-5.422       c-1.293-0.3-2.493-0.762-3.568-0.024c-0.204,0.138-0.626,0.82-0.915,1.411c-1.751,3.422-3.297,10.399-3.906,16.147       c-0.138,1.673-0.28,3.991,0.92,5.391c0.298,0.289,0.716,0.542,1.204,0.753c1.102,0.382,2.457,0.342,3.608,0.149       c0.924-0.235,1.653-0.686,2.138-1.709c0.289-0.589,1.115-3.131,0.693-3.386c-0.871-0.34-3.484-0.478-4.168-0.902       c0.178-2.487,0.684-3.329,0.893-5.986l0.009-0.053c0.009-0.06,0.009-0.06,0.071-0.047c0,0,0.053,0.009,0.12-0.036       C311.479,69.29,319.447,71.785,320.976,72.072z"/>
					<path style="fill:#000E3F;" d="M352.301,70.089c-0.356,1.875-0.88,3.706-1.462,5.517c-1.346,3.868-2.155,7.535-3.528,11.279       l-0.693,1.782c-0.911,2.555-2.298,5.095-4.249,6.875c-1.777,1.411-4.226,1.786-6.675,1.744       c-2.222,0.024-4.36-0.471-6.475-1.253c-2.964-1.151-5.715-2.66-6.204-5.975c-0.524-2.129-0.129-4.353,0.435-6.53       c1.431-5.828,2.653-11.772,4.706-17.478c1.009-3.308,2.635-6.682,5.652-8.632c0.498-0.278,0.982-0.498,1.56-0.633       c5.555-0.984,12.398,1.093,15.727,5.584c0.782,1.244,1.222,2.631,1.302,4.03C352.581,67.65,352.47,68.879,352.301,70.089z        M343.564,74.422c0.018-0.058,0.373-1.933,0.684-3.222c0.422-2.097-0.053-4.21-1.529-5.537       c-1.324-1.035-3.128-1.013-4.546-0.46c-1.56,0.631-2.813,1.651-3.698,3.075c-1.422,2.651-2.382,5.793-3.106,8.943       c-0.356,2.715-1.204,5.47-1.187,8.114c0.604,3.351,5.164,5.015,8.163,3.118c1.907-1.433,1.351-1.591,2.551-4.724       c0.484-1.482,0.889-2.684,0.938-2.849l0.764-2.66L343.564,74.422z"/>
					<path style="fill:#000E3F;" d="M380.306,80.826c-0.533,1.833-1.231,3.602-1.982,5.351c-1.707,3.724-2.866,7.295-4.586,10.89       l-0.858,1.704c-1.151,2.457-2.773,4.853-4.884,6.437c-1.906,1.231-4.377,1.375-6.803,1.102       c-2.222-0.191-4.302-0.885-6.328-1.869c-2.844-1.429-5.43-3.186-5.599-6.535c-0.324-2.171,0.28-4.346,1.053-6.457       c1.973-5.661,3.76-11.461,6.346-16.944c1.32-3.195,3.257-6.395,6.448-8.05c0.525-0.227,1.027-0.402,1.613-0.48       c5.626-0.453,12.234,2.271,15.114,7.055c0.662,1.313,0.973,2.735,0.915,4.137C380.817,78.429,380.586,79.637,380.306,80.826z        M371.201,84.305c0.022-0.055,0.556-1.886,0.987-3.139c0.618-2.049,0.351-4.198-0.996-5.655       c-1.218-1.16-3.013-1.309-4.475-0.893c-1.617,0.482-2.955,1.378-3.977,2.709c-1.666,2.504-2.92,5.537-3.937,8.604       c-0.617,2.669-1.724,5.328-1.955,7.961c0.275,3.391,4.653,5.481,7.821,3.88c2.04-1.242,1.502-1.453,2.991-4.457       c0.627-1.426,1.142-2.584,1.205-2.746l1.013-2.575L371.201,84.305z"/>
					<path style="fill:#000E3F;" d="M405.312,97.182c-0.191,1.26-0.689,2.364-1.187,3.47c-1.804,3.153-3.435,6.464-5.648,9.279       c-0.027,0.053-0.08,0.027-0.102,0.078c-3.457,3.346-7.808,5.655-12.074,7.552c-4.595-2.153-9.265-4.537-13.576-6.737       l-0.08,0.025c4.039-11.59,11.332-23.592,17.158-35.629c0.076-0.025,0.182-0.102,0.258-0.129       c4.399,1.018,8.599,3.942,12.634,5.804c1.92,1.693,3.182,4.537,3.391,7.168C406.396,91.134,406.085,94.146,405.312,97.182z        M396.358,98.497c0.667-2.313,1.355-5.197-0.533-7.197c-1.102-0.755-2.511-1.54-3.875-1.913l-0.102-0.053l-0.049-0.025       l-0.107,0.205c-1.631,3.826-4.582,8.594-6.684,13.345c0.427,1.062,2.022,1.615,3.333,2.091c0.329,0.233,0.64,0.133,1.08,0.164       c0.876-0.071,1.706-0.422,2.431-0.831C393.949,103.09,395.642,101.301,396.358,98.497z"/>
				</g>
			</g>
		</g>
		<g>
			<path style="fill:#FD8A02;" d="M183.096,94.523l-9.597-6.794c-0.613-0.434-1.399-0.538-2.104-0.279l-11.038,4.054     c-1.774,0.652-3.525-1.014-2.963-2.819l3.496-11.226c0.223-0.717,0.079-1.497-0.384-2.088l-7.266-9.245     c-1.168-1.486-0.125-3.666,1.765-3.689l11.757-0.144c0.751-0.009,1.449-0.387,1.867-1.01l6.547-9.768     c1.052-1.57,3.448-1.252,4.054,0.539L183,63.191c0.241,0.711,0.816,1.258,1.538,1.463l11.312,3.208     c1.818,0.516,2.256,2.892,0.741,4.022l-9.427,7.028c-0.602,0.449-0.945,1.164-0.916,1.914l0.445,11.75     C186.764,94.465,184.639,95.615,183.096,94.523z"/>
			<path style="fill:#FD8A02;" d="M486.404,166.143l-8.519-8.105c-0.544-0.517-1.307-0.734-2.042-0.579l-11.506,2.422     c-1.85,0.39-3.343-1.511-2.527-3.216l5.076-10.606c0.324-0.677,0.294-1.47-0.08-2.121l-5.859-10.194     c-0.942-1.639,0.404-3.646,2.278-3.397l11.656,1.55c0.744,0.099,1.489-0.174,1.992-0.731l7.885-8.723     c1.267-1.402,3.592-0.742,3.935,1.117l2.127,11.564c0.136,0.738,0.626,1.362,1.311,1.669l10.733,4.803     c1.725,0.772,1.816,3.187,0.154,4.087l-10.341,5.597c-0.66,0.357-1.102,1.017-1.182,1.763l-1.252,11.691     C490.042,166.613,487.773,167.446,486.404,166.143z"/>
			<path style="fill:#FD8A02;" d="M494.074,266.027l-6.652-7.979c-0.425-0.509-1.073-0.777-1.733-0.716l-10.344,0.956     c-1.663,0.154-2.78-1.666-1.891-3.079l5.533-8.792c0.353-0.561,0.408-1.26,0.145-1.869l-4.106-9.542     c-0.66-1.534,0.725-3.159,2.344-2.749l10.071,2.545c0.643,0.162,1.325-0.002,1.823-0.439l7.806-6.854     c1.255-1.102,3.228-0.286,3.34,1.38l0.692,10.365c0.044,0.662,0.411,1.259,0.981,1.598l8.931,5.306     c1.435,0.853,1.27,2.982-0.28,3.602l-9.644,3.861c-0.615,0.246-1.07,0.78-1.216,1.427l-2.287,10.133     C497.219,266.81,495.143,267.31,494.074,266.027z"/>
			<path style="fill:#FD8A02;" d="M247.726,60.5l-6.588-6.14c-0.42-0.392-1.007-0.552-1.568-0.427l-8.793,1.946     c-1.413,0.313-2.572-1.131-1.96-2.443l3.803-8.163c0.243-0.521,0.214-1.128-0.078-1.623l-4.568-7.761     c-0.734-1.248,0.281-2.796,1.718-2.62l8.939,1.095c0.571,0.07,1.139-0.145,1.52-0.576l5.97-6.743     c0.96-1.084,2.746-0.597,3.022,0.824l1.721,8.84c0.11,0.565,0.49,1.038,1.018,1.268l8.258,3.594     c1.327,0.578,1.416,2.427,0.15,3.129l-7.875,4.368c-0.503,0.279-0.836,0.787-0.891,1.36l-0.866,8.964     C250.516,60.831,248.785,61.487,247.726,60.5z"/>
			<path style="fill:#FD8A02;" d="M425.493,219.034l-6.884-5.806c-0.44-0.37-1.033-0.501-1.588-0.349l-8.685,2.38     c-1.396,0.382-2.625-1.002-2.079-2.343l3.394-8.341c0.217-0.533,0.157-1.137-0.158-1.618l-4.947-7.525     c-0.795-1.21,0.142-2.806,1.586-2.701l8.982,0.651c0.573,0.042,1.13-0.202,1.49-0.65l5.628-7.031     c0.905-1.13,2.713-0.732,3.059,0.673l2.157,8.744c0.137,0.558,0.541,1.013,1.079,1.216l8.426,3.18     c1.354,0.511,1.535,2.353,0.305,3.118l-7.649,4.753c-0.488,0.303-0.796,0.828-0.823,1.402l-0.421,8.996     C428.296,219.226,426.6,219.967,425.493,219.034z"/>
		</g>
	</g>
</g>















</svg>
