<?xml version="1.0" encoding="UTF-8"?>
<!-- Generator: Adobe Illustrator 25.2.1, SVG Export Plug-In . SVG Version: 6.00 Build 0)  -->
<svg xmlns="http://www.w3.org/2000/svg" xmlns:xlink="http://www.w3.org/1999/xlink" version="1.1" id="Capa_1" x="0px" y="0px" viewBox="0 0 512 512" style="enable-background:new 0 0 512 512;" xml:space="preserve" width="512" height="512">
<g>
	<g>
		<g>
			<g>
				<path style="fill:#FD8A02;" d="M195.735,66.889c-2.191,4.937,6.49,3.5,6.432,20.07c0,0.111-0.006,0.223-0.023,0.332      c-0.969,6.309-1.767,2.91-13.901,2.036c-11.219-0.808-20.019,5.892-21.475,2.594c-0.858-1.943-1.548-3.996-1.462-6.105      c0.201-4.925,0.887-9.768,4.145-13.789c1.728-2.132,0.01-3.322-0.779-5.811c-1.6-5.041-0.692-9.794,2.479-13.845      c1.89-2.413,2.557-4.792,2.224-7.695c-0.671-5.835,1.573-11.129,3.657-13.101c5.347-5.063,11.684,3.157,11.838,10.337      c0.076,3.553,0.171,5.899,3.13,8.704C194.889,53.356,197.653,62.568,195.735,66.889z"/>
				<path style="fill:#FFFFFF;" d="M348.143,193.087c-10.313,22.139-35.366,41.755-63.771,47.625      c-4.851,0.995-9.717,1.084-14.589,1.391c-1.748,0.122-2.832-0.544-3.545-2.276c-8.357-19.72-22.619-37.24-23.827-36.321      c-1.812,1.369,16.486,14.096,29.47,54.15c1.471,4.567,4.042,14.413,4.26,18.463c0.252,4.284-1.559,0.309-17.663,2.104      c-4.447,0.498-9.54,1.725-14.747,3.411c-7.973,2.579-16.255,6.241-23.01,10.089c-24.976,14.207-20.168,17.513-25.593,14.125      c-13.918-8.666-30.279-15.611-46.846-18.344c-8.004-1.323-16.089-1.656-23.94-0.702c-4.816,0.599-8.312,2.855-8.072-0.768      c3.254-49.962,25.181-74.441,24.613-75.709c-1.071-2.441-13.499,18.58-19,38.031c-0.671,2.346-1.883,3.187-4.157,3.419      c-31.96,3.438-65.545-13.399-81.274-35.742c-14.975-21.244-1.607-41.059,17.407-31.253      c28.328,14.602,66.017,16.724,83.605,4.292c2.632-1.85-4.959-4.52-10.598-20.259c-5.363-15.085-3.691-31.254,5.384-44.921      c1.993-2.996-0.627-1.284-6.714-15.577c-3.342-7.869-7.962-23.747,0.42-25.068c5.078-0.811,13.133,2.363,17.845,4.689      c17.873,8.828,16.28,10.913,19.621,9.061c10.868-5.983,27.213-8.364,42.282-2.605c3.387,1.28,2.167-1.034,17.189-10.831      c4.558-2.97,12.101-7.475,17.555-7.619c12.388-0.255,3.792,30.618-1.279,38.606c-1.245,1.966,1.569,1.86,6.49,10.76      c8.735,15.755,8.906,35.424-2.17,53.625c-0.953,1.575-2.23,2.655-0.501,3.559c5.331,2.802,15.854,4.352,19.398,4.262      c47.828-1.176,59.262-20.345,70.647-22.573c10.488-2.056,16.794,5.244,17.581,13.933      C351.077,183.312,350.328,188.344,348.143,193.087z"/>
				<g>
					<path style="fill:#915EFD;" d="M116.19,196.138c1.404-0.157,1.827,0.534,1.37,2.081c-2.832,9.591-8.827,28.581-17.385,30.649       c-4.251,1.027-6.855-3.603-7.693-7.445c-1.675-7.681-1.085-10.398-0.65-21.137c0.082-2.029,0.031-4.085,1.885-3.707       C101.005,198.056,108.874,196.956,116.19,196.138z"/>
					<path style="fill:#915EFD;" d="M63.316,189.372c0.274-1.344,1.774-0.491,2.999,0.028c14.945,6.342,20.564,4.689,19.396,7.453       c-2.781,6.584-8.835,21.793-17.565,22.829C57.29,220.97,62.212,194.79,63.316,189.372z"/>
					<path style="fill:#915EFD;" d="M264.847,187.395c-1.412,0.009-1.752,0.744-1.117,2.227c3.937,9.193,12.116,27.349,20.858,28.4       c4.342,0.522,6.385-4.382,6.767-8.295c0.763-7.825-0.141-10.454-1.832-21.068c-0.319-2.005-0.51-4.053-2.306-3.46       C280.152,187.519,272.208,187.349,264.847,187.395z"/>
					<path style="fill:#915EFD;" d="M316.564,174.477c-0.43-1.303-1.819-0.28-2.975,0.38c-14.098,8.051-19.872,7.067-18.389,9.675       c3.534,6.213,11.329,20.607,20.12,20.612C326.252,205.151,318.296,179.729,316.564,174.477z"/>
					<path style="fill:#915EFD;" d="M162.488,117.588c4.973,0.305,7.472,4.76,4.93,8.72c-4.416,6.879-16.715,3.26-13.991-3.424       C154.778,119.57,158.845,117.073,162.488,117.588z"/>
					<path style="fill:#915EFD;" d="M209.661,114.813c-4.902,0.886-6.863,5.603-3.874,9.238c5.192,6.314,16.982,1.278,13.493-5.041       C217.55,115.878,213.219,113.875,209.661,114.813z"/>
					<path style="fill:#915EFD;" d="M387.162,390.239c-1.161,17.234-12.793,36.015-23.935,48.482       c-71.277,79.711-221.939,43.756-243.919-66.205c-2.485-12.487-2.261-28.356-0.448-37.462c0.489-2.404,0.611-3.952,3.056-2.607       c25.056,13.852,58.464,10.552,75.433-3.667c1.345-1.12,2.424-1.1,3.83-0.183c17.295,11.02,44.693,10.022,63.475,0.978       c12.732-6.152,15.747-10.491,17.071-11.489c3.32-2.567,2.057,7.456,11.754,20.697c11.163,15.237,28.05,25.3,46.119,24.18       c10.002-0.611,16.826-3.076,27.174-1.345c0.428,0.041,0.855,0.122,1.304,0.204c9.269,1.813,16.887,9.819,18.619,19.148       C387.243,383.965,387.386,387.082,387.162,390.239z"/>
				</g>
				<g>
					<path style="fill:#FC09B2;" d="M208.935,331.05c-9.328-3.474-8.706-6.533-11.142-4.377       c-24.852,21.984-79.375,15.785-92.553-13.174c-1.766-3.882-1.908-7.958-0.685-12.044c5.666-18.94,47.669-19.942,90.133,5.711       c5.832,3.524,3.589-0.812,23.489-12.422c16.512-9.634,45.211-21.076,62.592-13.171c9.195,4.183,12.024,12.614,9.906,19.815       c-4.232,14.39-18.651,24.38-33.075,29.526C242.991,336.126,224.883,336.989,208.935,331.05z"/>
					<path style="fill:#FC09B2;" d="M500.728,393.519c-4.38,25.647-68.629,23.976-113.567-3.28c0.224-3.157,0.082-6.274-0.468-9.269       c-1.731-9.33-9.35-17.335-18.619-19.148c-0.448-0.081-0.876-0.163-1.304-0.204c-10.145-53.392,13.913-120.411,42.758-106.783       c20.269,9.574,26.095,57.303,11.856,87.044c-3.504,7.333,2.119,1.65,20.534,5.052c18.049,3.341,35.221,9.839,48.177,22.53       C496.512,375.735,502.236,384.658,500.728,393.519z"/>
				</g>
				<g>
					<path style="fill:#FF8EDE;" d="M272.232,288.569c5.983-0.156,7.121,3.253,2.551,4.824c-8.962,3.082-18.782,4.126-38.731,14.107       c-17.412,8.712-20.412,12.499-24.212,13.252c-2.342,0.464-4.742-1.804-3.731-4.358c1.38-3.489,9.225-8.276,12.455-10.211       c18.377-11.005,26.613-13.648,37.109-16.12C260.714,289.346,265.819,288.736,272.232,288.569z"/>
					<path style="fill:#FF8EDE;" d="M149.767,299.922c8.39,1.99,21.792,6.887,32.851,12.668c11.148,5.826,5.744,10.231,2.665,9.776       c-1.724-0.254-8.48-3.523-17.859-7.314c-21.558-8.713-29.329-8.723-46.016-11.572c-6.75-1.152-5.858-4.967,1.275-5.484       C132.592,297.278,137.838,297.093,149.767,299.922z"/>
					<path style="fill:#FF8EDE;" d="M238.648,115.367c-0.517,0.85-1.287,0.729-1.927,0.105c-9.354-9.124-13.253-19.065-7.023-30.962       c5.936-11.336,14.38-9.804,16.055-5.16C249.025,88.42,243.758,106.957,238.648,115.367z"/>
					<path style="fill:#FF8EDE;" d="M134.632,122.071c-0.66,0.642-1.07,0.61-1.613-0.137c-7.583-10.404-18.903-37.98-5.995-38.8       c2.421-0.153,4.484,0.453,6.418,2.126c4.338,3.749,7.461,8.175,8.869,13.777C144.013,105.811,141.341,115.545,134.632,122.071z       "/>
					<path style="fill:#FF8EDE;" d="M139.567,315.596c10.047,2.372,18.027,4.774,25.558,9.313c5.746,3.462,3.311,9.626-3.998,6.486       c-15.466-6.643-27.409-8.82-37.098-12.919c-2.783-1.177-2.513-3.233-1.224-3.949       C123.811,313.969,136.586,314.892,139.567,315.596z"/>
					<path style="fill:#FF8EDE;" d="M274.481,306.232c0.4,1.496-0.9,2.259-2.382,3.21c-2.346,1.506-4.912,2.588-7.441,3.725       c-31,13.937-26.664,14.097-30.257,14.608c-4.197,0.596-5.599-2.929-3.296-5.533       C238.735,313.614,272.981,300.625,274.481,306.232z"/>
					<g>
						<path style="fill:#FF8EDE;" d="M393.593,379.951c-2.911-7.366,22.879,6.873,46.234,10.296        c24.448,3.583,37.643-1.951,41.665-1.782c3.102,0.13,4.837,3.97,2.226,6.345c-0.481,0.438-1.099,0.735-1.675,1.059        c-19.652,11.045-65.962,1.603-85.012-12.383C395.867,382.633,394.159,381.383,393.593,379.951z"/>
						<path style="fill:#FF8EDE;" d="M396.36,268.967c3.81-2.519,7.911,0.861,5.766,4.668c-1.362,2.416-2.774,4.811-4.297,7.127        c-21.544,32.765-12.193,75.604-17.941,77.218c-7.183,2.016-10.465-52.942,10.706-82.651        C392.341,272.878,394.426,270.738,396.36,268.967z"/>
						<path style="fill:#FF8EDE;" d="M394.884,346.506c-0.636-5.474,5.953-20.264,8.577-37.194        c3.119-20.128-1.046-30.599,5.186-30.233c3.647,0.215,3.912,2.153,4.762,7.206c3.297,19.595-3.811,42.49-13.898,59.096        C397.831,348.146,395.126,348.595,394.884,346.506z"/>
						<path style="fill:#FF8EDE;" d="M476.024,375.427c2.171,1.494,2.414,2.941,1.772,5.149c-0.83,2.854-4.18,2.36-6.879,1.206        c-30.268-12.934-48.401-8.812-60.672-12.928c-1.298-0.435-1.47-1.695-0.437-2.595        C414.506,362.162,452.435,359.195,476.024,375.427z"/>
					</g>
					<path style="fill:#FF8EDE;" d="M244.706,266.669c0.303,5.149-0.033,10.177-0.974,14.965       c-7.973,2.579-16.255,6.241-23.01,10.089c-24.976,14.207-20.168,17.513-25.593,14.125       c-13.918-8.666-30.279-15.611-46.846-18.344c-1.539-4.721-2.505-9.752-2.814-14.998c-1.787-30.38,18.988-56.33,46.382-57.941       C219.264,212.952,242.919,236.289,244.706,266.669z"/>
				</g>
				<g style="opacity:0.25;">
					<path style="fill:#4217A6;" d="M119.287,372.432c-1.098-5.421-2.263-17.784-1.513-23.197c0.115-0.83,0.586-1.117,1.447-0.87       c14.782,4.241,25.527,17.04,34.618,28.699c11.261,14.441,21.31,29.904,34.186,43.018c14.53,14.798,33.746,25.112,53.912,29.749       c21.831,5.02,44.927,1.426,64.592-9.146c16.166-8.691,28.775-22.235,40.497-36.084c20.098-23.743,31.643-39.816,35.889-32.815       c7.884,12.994,3.852,28.584-2.866,42.215C327.866,519.889,144.668,497.811,119.287,372.432z"/>
					<path style="fill:#4217A6;" d="M213.115,318.234c33.29,2.612,51.089-15.892,49.856-34.107       c-0.184-2.716-1.705-4.619,0.969-4.966c0.88-0.114,1.781-0.219,2.66-0.152c7.155,0.543,13.506,0.676,19.096,5.641       c18.233,16.194-11.003,51.297-55.142,50.544c-7.605-0.13-15.031-1.537-22.124-4.35c-9.683-3.839-8.11-6.326-10.805-4.035       c-17.668,15.02-48.24,16.733-69.15,7.154c-0.692-0.317-0.792-1.143-0.189-1.654       C152.227,312.005,181.576,315.76,213.115,318.234z"/>
					<path style="fill:#4217A6;" d="M485.183,408.428c-9.174,3.214-20.781,3.818-23.618,3.25c-2.293-0.459,5.693-7.652-1.471-20.25       c-13.521-23.778-41.991-17.149-51.154-44.455c-7.87-23.453,0.125-54.045,12.456-76.313c0.385-0.696,1.237-0.624,1.561,0.134       c8.383,19.587,9.12,47.062-1.992,71.953c-2.518,5.639,2.408,1.442,18.292,3.727c52.125,7.5,74.932,44.56,53.946,57.936       C491.242,405.659,489.887,406.78,485.183,408.428z"/>
					<path style="fill:#4217A6;" d="M195.107,55.024c2.016,4.102,1.971,8.699,0.823,11.31c-0.576,1.276-0.69,2.348-0.199,3.325       c-0.167-0.167-0.335-0.335-0.502-0.503c-1.777-1.71-4.3-1.364-7.953-1.78c-0.913-0.104-1.805-0.17-2.691-0.157       c0.135-2.059-0.202-4.425-1.153-7.189c-1.592-4.599-1.971-9.034-1.662-12.838c1.178-0.069,2.56-0.052,4.125,0.073       c2.614,0.201,3.211,0.284,3.162-1.902c0.153,1.608,0.589,2.982,2.108,4.333C192.83,51.175,194.12,52.992,195.107,55.024z"/>
				</g>
				<g>
					<path style="fill:#FFCF00;" d="M202.024,88.139c-0.03,0.16-0.062,0.3-0.093,0.439c-0.031,0.14-0.064,0.26-0.096,0.381       c-0.031,0.14-0.064,0.26-0.116,0.362c-0.046,0.219-0.114,0.401-0.184,0.563c-0.069,0.162-0.122,0.283-0.194,0.406       c-0.072,0.123-0.145,0.225-0.238,0.31c-1.097,1.129-3.589-0.341-12.595-1.251c-1.488-0.149-2.946-0.142-4.358,0       c-0.354,0.001-0.707,0.042-1.06,0.082c-0.372,0.041-0.744,0.083-1.115,0.144c-0.254,0.035-0.508,0.069-0.762,0.124       c-0.546,0.091-1.092,0.202-1.637,0.333c-0.292,0.057-0.564,0.132-0.855,0.208c-2.043,0.455-3.962,1.041-5.744,1.58       c-0.408,0.103-0.776,0.224-1.164,0.325c-0.775,0.223-1.513,0.424-2.233,0.585c-0.37,0.081-0.704,0.12-0.998,0.138       c-0.098,0.006-0.197,0.012-0.296-0.002c-0.636-0.081-1.167-0.385-1.528-0.837c-0.043-0.056-0.106-0.132-0.132-0.229       c-0.113-0.25-0.208-0.52-0.286-0.851c-0.001-0.02-0.001-0.02-0.002-0.039c-0.021-0.018-0.025-0.077-0.047-0.116       c-2.015-7.454-0.72-14.254,4.353-20.212c0.609-0.706,1.331-1.182,2.204-1.411c3.861-1.055,7.731-1.993,11.737-1.952       c0.886-0.012,1.778,0.053,2.691,0.157c3.652,0.416,6.176,0.07,7.953,1.78c0.168,0.168,0.336,0.336,0.502,0.503       c0,0,0.001,0.02,0.021,0.019c0.224,0.46,0.605,0.911,1.124,1.354c0.167,0.148,0.354,0.314,0.521,0.482       c0.001,0.02,0.021,0.018,0.042,0.037c0.789,0.999,1.501,2.041,2.096,3.111c0.109,0.191,0.2,0.383,0.29,0.575       c0.133,0.248,0.266,0.497,0.361,0.767c0.022,0.038,0.024,0.077,0.046,0.116c0.738,1.83,1.309,3.827,1.66,5.759       c0.025,0.097,0.052,0.214,0.039,0.333c0.055,0.589,0.089,1.178,0.105,1.789C202.115,85.334,202.257,86.726,202.024,88.139z"/>
					<path style="fill:#FFCF00;" d="M166.759,92.028c0.362,0.452,0.893,0.756,1.528,0.837       C167.538,92.869,167.088,92.6,166.759,92.028z"/>
					<path style="fill:#FFCF00;" d="M172.978,91.82c1.478-0.447,3.07-0.91,4.728-1.32C175.833,91.014,174.271,91.453,172.978,91.82z       "/>
					<path style="fill:#FFCF00;" d="M178.722,90.24c-0.35,0.078-0.673,0.175-1.016,0.26c0.036-0.01,0.067-0.019,0.102-0.029       C178.119,90.393,178.429,90.296,178.722,90.24z"/>
					<path style="fill:#FFCF00;" d="M196.877,71.03c-0.519-0.443-0.9-0.894-1.124-1.354c0.607,0.595,1.135,1.195,1.646,1.836       C197.231,71.345,197.043,71.178,196.877,71.03z"/>
					<path style="fill:#FFCF00;" d="M201.104,90.599l0.001,0.02c-0.409,0.418-0.937,0.489-1.911,0.369       c-6.94-0.992-10.68-1.896-15.043-1.639c1.412-0.142,2.87-0.149,4.358,0C197.514,90.258,200.007,91.729,201.104,90.599z"/>
					<path style="fill:#FFCF00;" d="M201.893,81.877c-0.35-1.932-0.921-3.929-1.66-5.759       C201.087,77.901,201.632,79.802,201.893,81.877z"/>
					<path style="fill:#FFCF00;" d="M201.719,89.321c0.053-0.102,0.085-0.222,0.116-0.362c-0.016,0.06-0.032,0.12-0.047,0.2       C201.772,89.219,201.755,89.26,201.719,89.321z"/>
					<path style="fill:#FFCF00;" d="M189.054,45.304l0.003,0.059c0.05,2.186-0.547,2.103-3.162,1.902       c-1.565-0.125-2.947-0.142-4.125-0.073c-6.75,0.239-7.939,2.478-8.284-0.696c-1.235-10.95,4.112-19.606,10.073-15.48       c1.582,1.09,2.717,2.601,3.529,4.347c0.497,1.075,0.848,2.001,1.093,2.815C189.08,41.062,188.86,43.343,189.054,45.304z"/>
					<path style="fill:#FFCF00;" d="M189,44.064c0.028,0.472,0.052,0.884,0.054,1.239c-0.194-1.96,0.026-4.241-0.872-7.127       C189.025,40.79,188.855,42.259,189,44.064z"/>
				</g>
				<g style="opacity:0.5;">
					<path style="fill:#FD8A02;" d="M185.896,47.264c-1.565-0.125-2.947-0.142-4.125-0.073c0.612-8.357,4.504-13.615,5.782-10.653       c0.249,0.557,0.459,1.116,0.629,1.639c0.898,2.885,0.678,5.166,0.872,7.127l0.003,0.059       C189.107,47.548,188.51,47.465,185.896,47.264z"/>
					<path style="fill:#FD8A02;" d="M202.056,88.02c-0.018,0.04-0.016,0.079-0.032,0.12c-0.046,0.22-0.093,0.439-0.141,0.62       c-0.113,0.44-0.209,0.801-0.331,1.084c-0.068,0.182-0.156,0.364-0.228,0.487c-1.031,1.599-3.215-0.028-12.816-0.981       c-2.241-0.223-4.422-0.095-6.533,0.227c-0.254,0.035-0.508,0.069-0.762,0.124c-0.546,0.091-1.092,0.202-1.637,0.333       c-3.174,0.68-6.093,1.68-8.656,2.362c-0.466,0.126-0.912,0.251-1.341,0.336c-0.098,0.025-0.194,0.051-0.292,0.076       c-0.253,0.054-0.488,0.088-0.706,0.061c-0.098,0.006-0.197,0.012-0.296-0.002c-0.636-0.081-1.167-0.385-1.528-0.837       c-0.063-0.075-0.107-0.151-0.132-0.229c-0.173-0.246-0.268-0.536-0.286-0.851c-0.063-0.391-0.029-0.827,0.141-1.29       c2.986-8.576,17.407-11.14,18.104-22.44c0.886-0.012,1.778,0.053,2.691,0.157c3.652,0.416,6.176,0.07,7.953,1.78       c0.168,0.168,0.336,0.336,0.502,0.503c0.246,0.479,0.627,0.929,1.146,1.372c0.167,0.148,0.354,0.314,0.521,0.482       c0.001,0.02,0.021,0.018,0.042,0.037c0.778,0.822,1.492,1.884,2.096,3.111c0.109,0.191,0.2,0.383,0.29,0.575       c0.948,2.035,1.659,4.398,2.067,6.642c0.025,0.097,0.052,0.214,0.039,0.333C202.319,84.454,202.383,86.541,202.056,88.02z"/>
				</g>
				<g style="opacity:0.25;">
					<path style="fill:#915EFD;" d="M235.555,222.152c-1.203-7.066,1.334-22.873,11.681-20.293c14.595,3.64,23.616,16.667,33.536,20       c17.901,6.013,32.728-13.128,51.889-9.613c0.974,0.179,1.268,0.944,0.633,1.697c-1.942,2.305-4.251,4.231-6.558,6.141       c-16.422,13.594-36.956,22.162-57.681,21.988c-1.233-0.01,6.796,28.654,7.1,34.05c0.105,1.878-0.326,2.312-2.368,2.031       c-6.644-0.915-15.948-0.553-26.041,2.294c-28.37,8-47.003,24.985-48.973,26.308c-1.119,0.752-1.959,0.153-3.625-0.883       c-32.764-20.369-55.38-17.658-51.718-20.523c22.14-17.326,51.923,4.004,77.7-14.424       C237.134,259.485,238.851,241.5,235.555,222.152z"/>
					<path style="fill:#915EFD;" d="M82.237,247.89c-9.158-2.925-17.736-7.1-25.686-12.528c-5.463-3.73-5.591-3.966-5.409-4.607       c0.136-0.478,0.565-0.636,0.994-0.776c20.502-6.671,39.89,15.403,58.221-0.687c7.824-6.868,13.641-15.327,25.069-20.041       c1.84-0.759,2.753-1.116,4.134-0.608c3.465,1.276-7.682,6.418-17.993,40.652c-0.46,1.529-1.345,2.229-2.833,2.326       C106.698,252.411,98.257,253.006,82.237,247.89z"/>
				</g>
				<g>
					<g>
						<g>
							<path style="fill:#4217A6;" d="M134.565,360.755c1.95,3.325,4.682,6.119,7.9,7.857c3.201,1.737,6.869,2.445,10.235,1.781         c3.36-0.702,6.3-2.65,8.375-5.4c0.142-0.186,0.263-0.28,0.425-0.539l0.507-0.854l1.018-1.716l0.556-0.923l0.737-1.151         c0.266-0.323,0.528-0.672,0.799-0.977c0.279-0.242,0.555-0.556,0.84-0.741c0.572-0.435,1.133-0.691,1.803-0.844         c0.729-0.166,1.535-0.003,2.055,0.222c1.107,0.414,2.284,1.556,3.259,3.292l0.744,1.25c0.228,0.359,0.579,0.948,0.683,1.079         c0.329,0.484,0.568,0.799,0.842,1.147c0.542,0.683,1.117,1.322,1.743,1.909c1.242,1.169,2.656,2.21,4.2,2.997         c1.509,0.794,3.067,1.354,4.626,1.62c1.56,0.21,3.113,0.199,4.616-0.153c2.982-0.749,5.772-2.668,7.683-5.342l0.36-0.497         c0.065-0.095,0.112-0.137,0.191-0.275l0.304-0.61l1.22-2.45l1.398-2.688c0.116-0.184,0.234-0.538,0.349-0.581l0.346-0.212         l0.691-0.424c0.498-0.325,0.779-0.502,1.612-0.608c0.808-0.095,1.57-0.016,1.931,0.169l1.472,0.681         c0.112,0.002,0.265,0.215,0.415,0.414l0.447,0.574l0.893,1.148c0.448,1.047,0.908,1.653,1.364,2.359l0.686,1.046         c0.103,0.152,0.252,0.399,0.319,0.472l0.192,0.206c0.494,0.568,1.014,1.107,1.59,1.585c1.139,0.953,2.377,1.812,3.728,2.333         c1.335,0.543,2.73,0.934,4.142,0.951c0.705,0.102,1.408-0.056,2.117-0.072c0.694-0.178,1.414-0.217,2.096-0.51         c2.734-0.884,5.511-2.819,7.564-5.193c0.509-0.599,0.992-1.221,1.429-1.885c0.214-0.335,0.429-0.671,0.628-1.023l0.332-0.605         l0.184-0.354l0.283-0.603c0.74-1.581,1.417-3.408,2.379-4.328c0.463-0.501,0.924-0.807,1.436-1.064         c0.46-0.253,1.279-0.432,1.898-0.332c1.195,0.16,2.284,0.763,3.408,1.935c0.282,0.246,0.538,0.615,0.804,0.93l0.687,0.867         l1.114,1.456c0.36,0.46,0.759,1.021,1.086,1.393l0.856,0.812c0.287,0.268,0.557,0.565,0.856,0.817l0.958,0.665         c2.548,1.779,5.672,2.653,8.853,2.4c3.176-0.288,6.306-1.692,8.883-3.869c2.591-2.176,4.62-5.105,6.016-8.367         c1.445-3.862,4.158-3.581,3.099,1.105c-1.195,3.814-3.209,7.49-6.16,10.453c-2.929,2.955-6.814,5.175-11.148,5.906         c-4.324,0.714-8.986-0.197-12.785-2.505l-1.421-0.876c-0.445-0.325-0.85-0.696-1.276-1.046l-1.257-1.077         c-0.325-0.309-0.485-0.523-0.734-0.789l-0.679-0.754l-0.201-0.217l-0.086-0.083c-0.115-0.104-0.215-0.203-0.344-0.243         c-0.168-0.042-0.219,0.227-0.256,0.352l-0.107,0.411l-0.012,0.044l-0.133,0.28l-0.325,0.653         c-0.245,0.482-0.518,0.957-0.794,1.429c-0.561,0.943-1.199,1.848-1.881,2.716c-1.387,1.725-2.959,3.275-4.725,4.571         c-1.8,1.291-3.736,2.511-5.961,3.239c-4.351,1.654-9.511,1.479-13.807-0.292c-2.191-0.833-4.141-2.114-5.902-3.569         c-0.885-0.729-1.69-1.538-2.446-2.394l-0.289-0.315c-0.092-0.102-0.062-0.074-0.098-0.118l-0.124-0.161         c-0.08-0.103-0.193-0.251-0.159-0.204l-0.003,0.004l-0.004-0.004l-0.22,0.367l-0.057,0.095l-0.256,0.357l-0.549,0.754         c-2.928,3.998-7.323,7.069-12.39,8.202c-2.535,0.542-5.165,0.511-7.669,0.071c-2.501-0.491-4.826-1.439-6.921-2.641         c-2.084-1.169-3.978-2.664-5.663-4.39c-0.842-0.861-1.61-1.792-2.306-2.755c-0.345-0.476-0.699-1.003-0.934-1.383         c-0.189-0.292-0.09-0.159-0.135-0.238l-0.04-0.1c-0.055-0.137-0.106-0.298-0.191-0.464c-0.092-0.23-0.297-0.115-0.379-0.007         l-0.163,0.18l-0.083,0.104l-0.269,0.379l-0.64,0.906l-0.324,0.456c-0.127,0.167-0.385,0.43-0.572,0.639         c-3.093,3.653-7.632,6.245-12.429,6.832c-4.809,0.578-9.597-0.836-13.393-3.356c-3.831-2.53-6.702-6.172-8.529-10.131         c-1.079-2.622-0.813-4.182-0.133-4.41C132.197,357.652,133.327,358.618,134.565,360.755z"/>
						</g>
					</g>
					<g>
						<g>
							<path style="fill:#4217A6;" d="M158.345,414.592c2.596,2.849,5.848,5.016,9.357,6.049c3.492,1.036,7.225,0.968,10.381-0.379         c3.14-1.383,5.613-3.899,7.073-7.019c0.1-0.212,0.199-0.329,0.304-0.616l0.318-0.941l0.641-1.89l0.353-1.018l0.482-1.279         c0.193-0.371,0.378-0.767,0.579-1.121c0.223-0.295,0.427-0.658,0.668-0.899c0.47-0.544,0.965-0.91,1.589-1.199         c0.678-0.313,1.502-0.321,2.057-0.209c1.17,0.175,2.556,1.048,3.871,2.545l0.987,1.069c0.296,0.304,0.762,0.807,0.891,0.914         c0.421,0.405,0.721,0.664,1.062,0.947c0.672,0.556,1.367,1.062,2.101,1.506c1.458,0.886,3.057,1.612,4.73,2.061         c1.642,0.464,3.282,0.689,4.862,0.625c1.57-0.118,3.086-0.45,4.484-1.106c2.762-1.351,5.094-3.806,6.409-6.819l0.249-0.561         c0.043-0.106,0.08-0.157,0.13-0.309l0.17-0.66l0.686-2.65l0.81-2.919c0.076-0.204,0.118-0.575,0.221-0.641l0.294-0.279         l0.588-0.558c0.419-0.421,0.658-0.652,1.45-0.928c0.771-0.26,1.533-0.341,1.924-0.234l1.58,0.361         c0.11-0.021,0.305,0.156,0.492,0.319l0.556,0.469l1.111,0.938c0.656,0.932,1.231,1.43,1.823,2.025l0.888,0.881         c0.133,0.127,0.329,0.338,0.409,0.396l0.23,0.162c0.602,0.453,1.222,0.872,1.885,1.221c1.311,0.696,2.701,1.28,4.13,1.51         c1.418,0.255,2.864,0.348,4.249,0.072c0.711-0.047,1.366-0.346,2.057-0.509c0.642-0.318,1.338-0.505,1.944-0.934         c2.49-1.431,4.807-3.9,6.323-6.648c0.374-0.692,0.719-1.4,1.007-2.14c0.141-0.372,0.281-0.745,0.403-1.132l0.198-0.66         l0.107-0.385l0.152-0.649c0.396-1.7,0.679-3.628,1.429-4.728c0.35-0.585,0.737-0.981,1.184-1.338         c0.398-0.343,1.162-0.688,1.787-0.718c1.204-0.091,2.393,0.273,3.734,1.186c0.328,0.182,0.655,0.49,0.981,0.743l0.851,0.706         l1.391,1.193c0.449,0.375,0.956,0.841,1.352,1.138l1.005,0.617c0.336,0.202,0.662,0.437,1.007,0.621l1.074,0.452         c2.861,1.212,6.099,1.42,9.158,0.513c3.047-0.94,5.818-2.962,7.888-5.626c2.084-2.665,3.462-5.952,4.15-9.432         c0.613-4.078,3.326-4.365,3.262,0.439c-0.379,3.979-1.587,7.993-3.861,11.503c-2.251,3.498-5.593,6.475-9.681,8.088         c-4.082,1.595-8.832,1.67-13.027,0.2l-1.572-0.563c-0.503-0.226-0.976-0.504-1.465-0.759l-1.453-0.793         c-0.383-0.235-0.583-0.412-0.882-0.619l-0.82-0.597l-0.241-0.171l-0.101-0.064c-0.134-0.077-0.253-0.154-0.387-0.166         c-0.173-0.006-0.166,0.267-0.178,0.397l-0.019,0.423l-0.003,0.046l-0.072,0.301l-0.183,0.705         c-0.14,0.522-0.307,1.044-0.48,1.563c-0.354,1.038-0.79,2.056-1.278,3.047c-0.999,1.975-2.215,3.817-3.675,5.451         c-1.492,1.636-3.134,3.23-5.16,4.404c-3.913,2.52-8.998,3.419-13.568,2.576c-2.316-0.361-4.49-1.21-6.513-2.268         c-1.018-0.53-1.973-1.154-2.89-1.836l-0.348-0.248c-0.113-0.08-0.076-0.06-0.121-0.095l-0.155-0.131         c-0.099-0.085-0.24-0.205-0.197-0.167l-0.002,0.004l-0.005-0.003l-0.139,0.405l-0.036,0.105l-0.177,0.402l-0.381,0.851         c-2.035,4.518-5.698,8.434-10.42,10.593c-2.368,1.055-4.947,1.571-7.488,1.659c-2.548,0.038-5.019-0.407-7.319-1.148         c-2.28-0.712-4.444-1.782-6.45-3.121c-1.002-0.668-1.946-1.419-2.828-2.217c-0.435-0.394-0.892-0.836-1.199-1.159         c-0.245-0.247-0.121-0.136-0.181-0.205l-0.059-0.09c-0.082-0.122-0.166-0.27-0.283-0.415         c-0.138-0.206-0.314-0.05-0.371,0.072l-0.122,0.21l-0.059,0.119l-0.186,0.426l-0.439,1.018l-0.221,0.513         c-0.09,0.19-0.287,0.5-0.427,0.743c-2.269,4.215-6.172,7.692-10.744,9.26c-4.584,1.562-9.561,1.171-13.797-0.507         c-4.273-1.681-7.837-4.648-10.443-8.144c-1.599-2.341-1.662-3.922-1.044-4.286         C155.385,412.047,156.691,412.758,158.345,414.592z"/>
						</g>
					</g>
					<g>
						<g>
							<path style="fill:#4217A6;" d="M214.133,450.503c3.128,2.253,6.757,3.702,10.403,3.99c3.63,0.293,7.27-0.543,10.08-2.512         c2.788-2.001,4.689-4.972,5.474-8.327c0.055-0.228,0.127-0.363,0.171-0.665l0.117-0.986l0.237-1.981l0.136-1.069l0.208-1.351         c0.112-0.403,0.211-0.828,0.336-1.217c0.158-0.335,0.283-0.733,0.469-1.017c0.347-0.629,0.756-1.09,1.307-1.501         c0.6-0.446,1.403-0.623,1.97-0.628c1.18-0.07,2.718,0.498,4.312,1.692l1.187,0.842c0.353,0.236,0.912,0.632,1.061,0.71         c0.496,0.31,0.842,0.501,1.234,0.708c0.772,0.405,1.557,0.757,2.367,1.041c1.61,0.565,3.323,0.947,5.053,1.041         c1.701,0.116,3.353-0.003,4.887-0.391c1.512-0.44,2.927-1.077,4.16-2.007c2.424-1.892,4.2-4.775,4.866-7.994l0.127-0.6         c0.02-0.113,0.047-0.171,0.064-0.329l0.03-0.681l0.125-2.735l0.191-3.023c0.032-0.215-0.004-0.587,0.084-0.673l0.231-0.334         l0.46-0.668c0.324-0.499,0.51-0.774,1.228-1.207c0.701-0.414,1.43-0.65,1.835-0.626l1.621,0.027         c0.103-0.043,0.33,0.09,0.548,0.211l0.64,0.344l1.281,0.689c0.833,0.777,1.499,1.145,2.202,1.605l1.05,0.679         c0.156,0.097,0.392,0.263,0.482,0.303l0.259,0.111c0.682,0.319,1.376,0.602,2.096,0.806c1.426,0.411,2.906,0.696,4.352,0.626         c1.44-0.043,2.874-0.25,4.173-0.806c0.686-0.192,1.265-0.621,1.907-0.922c0.562-0.444,1.205-0.771,1.71-1.315         c2.142-1.914,3.9-4.808,4.816-7.809c0.224-0.754,0.414-1.518,0.545-2.302c0.06-0.393,0.122-0.787,0.161-1.19l0.059-0.687         l0.025-0.399l0.016-0.667c0.037-1.745-0.083-3.69,0.424-4.92c0.221-0.645,0.519-1.112,0.882-1.553         c0.319-0.418,0.996-0.913,1.602-1.071c1.159-0.338,2.398-0.227,3.898,0.391c0.358,0.111,0.741,0.345,1.112,0.525l0.98,0.514         l1.607,0.881c0.517,0.274,1.109,0.626,1.558,0.835l1.111,0.397c0.372,0.128,0.738,0.291,1.113,0.4l1.146,0.22         c3.05,0.596,6.26,0.132,9.066-1.386c2.788-1.548,5.083-4.098,6.558-7.132c1.49-3.038,2.16-6.538,2.116-10.086         c-0.24-4.116,2.354-4.957,3.283-0.243c0.449,3.971,0.095,8.148-1.406,12.052c-1.482,3.887-4.138,7.489-7.805,9.91         c-3.666,2.402-8.298,3.455-12.706,2.882l-1.654-0.227c-0.538-0.117-1.059-0.292-1.591-0.441l-1.586-0.476         c-0.422-0.152-0.655-0.283-0.99-0.424l-0.927-0.415l-0.27-0.117l-0.112-0.042c-0.147-0.048-0.28-0.098-0.413-0.083         c-0.171,0.029-0.108,0.296-0.093,0.426l0.069,0.418l0.007,0.046l-0.008,0.31l-0.033,0.728         c-0.03,0.54-0.086,1.084-0.148,1.628c-0.132,1.089-0.349,2.175-0.622,3.245c-0.569,2.139-1.381,4.192-2.472,6.092         c-1.124,1.909-2.401,3.808-4.141,5.373c-3.31,3.273-8.1,5.201-12.745,5.319c-2.341,0.125-4.643-0.258-6.841-0.876         c-1.105-0.309-2.169-0.723-3.206-1.201l-0.392-0.171c-0.125-0.055-0.086-0.043-0.137-0.068l-0.178-0.097         c-0.115-0.062-0.278-0.151-0.228-0.122l-0.002,0.005l-0.005-0.002l-0.053,0.425l-0.014,0.11l-0.089,0.43l-0.198,0.912         c-1.06,4.841-3.836,9.427-8.012,12.514c-2.099,1.521-4.516,2.557-6.984,3.168c-2.485,0.562-4.995,0.636-7.398,0.385         c-2.378-0.226-4.716-0.827-6.955-1.724c-1.118-0.446-2.197-0.987-3.225-1.587c-0.507-0.295-1.045-0.635-1.412-0.887         c-0.29-0.191-0.147-0.108-0.22-0.163l-0.076-0.075c-0.106-0.103-0.219-0.23-0.363-0.347         c-0.178-0.173-0.318,0.015-0.349,0.147l-0.076,0.231l-0.034,0.128l-0.094,0.455l-0.219,1.087l-0.11,0.548         c-0.049,0.204-0.178,0.549-0.265,0.815c-1.35,4.592-4.454,8.799-8.603,11.276c-4.163,2.474-9.114,3.118-13.606,2.349         c-4.527-0.764-8.626-2.932-11.898-5.815c-2.048-1.961-2.436-3.495-1.906-3.979         C210.712,448.623,212.136,449.05,214.133,450.503z"/>
						</g>
					</g>
				</g>
				<g>
					<path style="fill:#FC09B2;" d="M246.534,90.611c-0.627,8.13-5.099,20.801-8.056,25.015c-0.555,0.792-1.61,0.077-2.242-0.576       c-2.704-2.789-5.329-5.643-7.072-9.174c-4.25-8.607-2.812-17.08,2.508-24.422c0.129-0.179,0.287-0.338,0.443-0.494       c0.68-0.683,1.35-0.693,1.993,0.033c1.565,1.766,2.712,3.771,3.393,6.039c1.763,5.874,1.208,2.411,6.941,1.088       C246.261,87.701,246.563,87.915,246.534,90.611z"/>
					<path style="fill:#FC09B2;" d="M142.883,103.843c0.008,2.725-0.831,6.706-2.701,10.448c-1.399,2.799-3.119,5.382-5.358,7.593       c-0.882,0.871-1.219,0.891-1.84-0.003c-5.128-7.374-8.856-15.379-10.834-24.168c-0.024-0.108-0.075-0.211-0.095-0.319       c-0.256-1.385,0.201-1.972,1.51-1.789c1.647,0.231,3.273,0.532,4.831,1.207c1.749,0.758,2.002,0.593,2.333-1.378       c0.276-1.648,0.562-3.286,1.146-4.855c0.232-0.624,0.487-1.246,0.8-1.832c1.241-2.321,2.206-2.453,3.959-0.45       C140.06,92.211,142.568,97.405,142.883,103.843z"/>
					<path style="fill:#FC09B2;" d="M196.922,153.236c-2.921,4.354-7.102,7.725-11.789,5.426c-11.45-5.577-8.21-17.225,1.27-13.622       c1.936,0.734,2.467-0.618,5.586-1.236C196.939,142.804,200.13,148.433,196.922,153.236z"/>
				</g>
				<g style="opacity:0.25;">
					<path style="fill:#915EFD;" d="M235.555,222.152c-1.203-7.066,1.334-22.873,11.681-20.293c14.595,3.64,23.616,16.667,33.536,20       c17.901,6.013,32.728-13.128,51.889-9.613c0.974,0.179,1.268,0.944,0.633,1.697c-1.942,2.305-4.251,4.231-6.558,6.141       c-16.422,13.594-36.956,22.162-57.681,21.988c-1.233-0.01,6.796,28.654,7.1,34.05c0.105,1.878-0.326,2.312-2.368,2.031       c-6.644-0.915-15.948-0.553-26.041,2.294c-28.37,8-47.003,24.985-48.973,26.308c-1.119,0.752-1.959,0.153-3.625-0.883       c-32.764-20.369-55.38-17.658-51.718-20.523c22.14-17.326,51.923,4.004,77.7-14.424       C237.134,259.485,238.851,241.5,235.555,222.152z"/>
					<path style="fill:#915EFD;" d="M82.237,247.89c-9.158-2.925-17.736-7.1-25.686-12.528c-5.463-3.73-5.591-3.966-5.409-4.607       c0.136-0.478,0.565-0.636,0.994-0.776c20.502-6.671,39.89,15.403,58.221-0.687c7.824-6.868,13.641-15.327,25.069-20.041       c1.84-0.759,2.753-1.116,4.134-0.608c3.465,1.276-7.682,6.418-17.993,40.652c-0.46,1.529-1.345,2.229-2.833,2.326       C106.698,252.411,98.257,253.006,82.237,247.89z"/>
				</g>
			</g>
			<g>
				<path style="fill:#000E3F;" d="M217.179,139.027c-0.485-8.295-12.97-7.119-11.967,0.959      C206.197,147.94,217.618,146.543,217.179,139.027z"/>
				<path style="fill:#000E3F;" d="M169.548,142.083c0.047-8.14-12.489-7.844-11.998,0.45      C157.994,150.05,169.501,150.098,169.548,142.083z"/>
				<path style="fill:#000E3F;" d="M168.195,160.703c-0.007,0.237,0.098,5.693,3.605,8.997c1.877,1.743,4.289,2.528,7.178,2.358      c5.168-0.304,8.082-3.059,9.637-6.128c1.884,2.867,5.101,5.261,10.269,4.957c2.889-0.17,5.192-1.232,6.852-3.183      c3.116-3.693,2.559-9.123,2.527-9.357c-0.101-1.02-0.975-1.796-2.05-1.654c-1.02,0.099-1.773,1.031-1.654,2.049      c0.003,0.039,0.38,4.118-1.686,6.547c-0.977,1.161-2.362,1.756-4.209,1.864c-7.506,0.441-8.499-7.052-8.588-7.915      c-0.003-0.039-0.006-0.098-0.029-0.136c-1.162,0.364-2.38,0.436-3.663,0.077c-0.013,0.1-0.029,0.179-0.023,0.278      c0.011,0.867-0.096,8.425-7.603,8.867c-1.846,0.109-3.292-0.319-4.398-1.358c-2.336-2.17-2.438-6.265-2.44-6.304      c-0.002-1.025-0.839-1.864-1.884-1.841C168.97,158.804,168.173,159.66,168.195,160.703z"/>
				<path style="fill:#000E3F;" d="M496.235,372.259c-11.437-13.878-30.04-22.618-47.736-26.752      c-14.902-3.464-22.402-1.752-24.134-2.402c0.04-1.85,4.429-8.149,6.772-23.287c2.755-17.953,1.575-38.484-7.027-54.252      c-5.394-9.882-16.043-17.657-26.634-14.252c-23.13,7.421-40.413,58.996-33.365,107.047c-10.315-0.984-20.984,3.11-31.811,1.851      c-18.661-2.185-37.794-16.22-45.452-40.886c-1.162-3.701-1.063-3.74,1.298-6.968c8.268-11.28,8.17-24.823-4.172-31.988      c-3.661-2.107-4.961-1.831-5.256-4.055c-1.063-7.776-3.563-16.831-6.103-23.839c-5.394-14.842-3.839-1.437,27.913-13.937      c22.737-8.957,47.756-30.413,52.146-51.358c3.976-18.996-10.256-34.133-30-20.905c-21.338,14.291-51.535,22.401-75.747,15.059      c-2.875-0.866,0.905-3.582,3.661-10.689c7.362-19.153,3.858-37.579-4.468-49.468c-6.615-9.429-4.292-1.457,1.437-21.712      c1.22-4.291,3.11-14.37,0.728-20.709c-6.378-16.968-37.932,11.496-40.768,12.795c-1.614,0.748-3.228-0.394-3.09-2.126      c0.04-0.335,0.137-0.669,0.178-0.984c0.709-6.457-0.552-12.441-4.568-17.618c-1.279-1.634-1.693-3.091-1.181-5.158      c1.497-6.26-0.511-11.713-4.645-16.319c-5.04-5.59-0.118-7.008-5.689-16.575c-2.342-4.016-7.046-6.771-11.122-4.488      c-5.039,2.835-7.243,10.177-6.713,15.413c0.315,3.051-0.413,5.473-2.185,8.032c-3.386,4.921-4.251,10.394-1.948,16.142      c0.65,1.614,1.279,2.008-0.138,4.272c-6.161,9.941-2.598,18.582-2.322,20.492c0.196,1.319-1.949,2.972-4.331,1.339      c-6.693-4.606-24.901-14.409-33.622-13.366c-14.448,1.732-5.019,27.224,3.15,40.256c1.004,1.614,0.177,2.618-0.787,4.272      c-11.693,20.02-7.795,42.323,1.929,56.496c3.307,4.823,4.901,5.867,2.992,6.791c-22.342,10.847-53.248,6.437-74.862-4.252      c-3.681-1.811-7.401-3.484-11.535-4.232c-8.09-1.477-16.417,3.189-18.779,12.126c-7.519,28.406,42.638,66.181,86.653,62.559      c6.752-0.551,2.382-1.201-0.236,21.26c-0.393,3.524-0.846,7.047-0.61,10.61c0.078,1.28-0.355,2.106-1.496,2.677      c-12.067,5.945-15.847,19.665-4.843,33.11c6.496,7.933,9.606,6.713,8.878,10.827c-15.433,88.031,76.574,168.011,174.606,148.464      c55.768-11.121,93.543-54.822,98.07-87.342c41.752,23.642,94.941,26.516,110.275,8.051      C506.629,393.716,503.381,380.94,496.235,372.259z M169.779,73.639c2.008-3.11,2.481-2.5,1.083-5.275      c-2.874-5.788-2.166-11.24,1.85-16.161c1.378-1.693,2.066-3.327,1.732-5.453c-0.354-2.441,0-4.882,0.276-7.303      c1.22-11.456,12.362-10.138,13.248,3.504c0.216,3.563-0.06,5.335,1.929,7.146c4.685,4.252,6.929,10.059,4.862,16.181      c-0.571,1.693-1.536,2.894,0.767,5.039c2.52,2.362,4.035,5.453,4.823,8.779c0.531,2.244,1.771,6.929,0.039,8.937      c-2.106,2.421-9.173-4.036-29.016,1.968c-3.721,1.122-3.956,1.024-4.547-3.012C166.098,82.871,166.945,78.048,169.779,73.639z       M118.067,277.712c2.126-21.516,10.394-46.338,23.445-65.59c1.221-1.811,0.945-2.52,0.099-3.209      c-0.611-0.492-1.3-0.453-1.812,0.099c-4.016,4.39-6.811,9.626-10.059,16.023c-10.394,20.492-6.713,25.512-13.661,25.846      c-34.646,1.713-64.527-15.02-79.685-36.949c-3.898-5.65-5.532-11.91-4.921-18.622c0.984-10.866,11.063-14.232,19.547-10.453      c11.516,5.158,21.319,10.374,41.182,12.717c14.37,1.693,31.476,0.571,44.192-6.398c2.145-1.181,3.779-2.244,2.323-4.508      c-1.397-2.146-10.413-11.102-13.031-26.988c-2.048-12.559,0.434-24.311,7.421-35.039c1.929-2.953,1.929-1.299-2.736-9.213      c-4.626-7.854-13.169-29.527-4.172-31.043c3.975-0.669,8.524,1.024,12.145,2.5c8.208,3.346,13.838,6.654,20.039,10.551      c6.26,3.917,2.973-1.673,22.461-4.665c7.048-1.083,16.338-0.374,25.138,2.972c2.776,1.043,2.598-0.708,13.13-8.209      c4.508-3.209,9.252-6.28,14.35-8.504c3.228-1.397,9.292-3.642,11.24,0.788c0.571,1.319,1.181,8.287,0.394,12.913      c-1.122,6.595-3.484,14.882-6.792,20.827c-2.283,4.114,2.539,3.563,8.169,15.788c2.874,6.24,4.528,14.842,4.508,18.681      c-0.177,27.381-14.468,32.323-8.562,35.413c14.999,7.835,50.669,6.988,83.385-14.744c12.244-8.15,23.977-2.264,23.72,12.48      c-0.374,22.5-31.575,51.259-65.118,58.346c-3.877,0.807-7.835,1.535-11.87,1.496c-2.185,0-4.448,0.295-5.729-2.736      c-4.448-10.512-13.425-25.63-22.382-34.941c-0.688-0.708-1.653-1.791-2.795-0.807c-3.09,2.697,5.374,4.567,18.603,30.197      c6.535,12.638,12.893,29.075,14.764,43.327c0.079,0.689-0.434,0.984-1.082,0.945c-1.989-0.118-3.996-0.118-5.965-0.433      c-6.043-0.925-19.724,2.303-25.472,4.213c-17.224,5.748-31.043,14.232-43.13,24.094c-2.814,2.283-0.63,0.512-16.85-7.382      c-13.011-6.339-28.365-11.102-42.007-12.244c-13.032-1.083-16.201,0.394-21.477,1.437      C116.768,287.142,117.535,283.087,118.067,277.712z M112.005,293.815c11.633-7.342,30.905-5.492,44.212-2.047      c13.681,3.524,26.476,9.074,38.346,16.732c6.122,3.937,5.846-2.855,27.795-14.862c33.15-18.13,67.225-18.287,67.578,2.854      c0.335,2.107-0.216,4.35-1.043,6.575c-9.744,26.575-58.405,41.456-88.385,22.146c-4.075-2.618-3.583,5.453-23.779,11.023      c-6.694,1.851-13.543,2.697-20.453,2.5C111.472,337.417,93.992,305.173,112.005,293.815z M385.468,394.759      c-3.563,19.527-19.548,45.433-46.023,63.07c-78.248,52.106-196.693,10.532-217.815-80.295      c-2.697-11.555-4.174-31.712-1.3-43.307c0.729-2.972,7.165,5.551,29.527,7.894c2.757,0.295,5.533,0.433,8.307,0.216      c1.122-0.079,3.563,0.354,4.646,0.197c11.673-1.732,24.41-3.74,35.237-12.716c1.634-1.378,2.401,0.039,5.629,1.614      c22.717,11.26,54.645,7.283,75.748-9.626c1.063-0.866,1.732-2.362,3.366-2.441c7.363,21.397,19.645,34.153,34.212,40.511      c21.732,9.488,33.386,0.65,47.736,2.539c0.886,0.099,1.792,0.256,2.697,0.472c0.335,0.079,0.669,0.158,0.984,0.256      c12.284,3.189,17.953,13.169,17.697,25.177c-0.02,1.279-0.099,2.579-0.276,3.898      C385.763,393.047,385.626,393.913,385.468,394.759z M498.676,396.373c-8.563,21.457-68.051,18.091-109.034-5.905      c0.827-13.779-4.784-25.118-18.091-30.374c-1.298-0.512-2.578-0.905-3.877-1.181c-7.52-47.204,11.653-104.665,34.96-104.606      c5.513,0.02,9.902,2.579,13.327,6.575c3.445,4.055,6.319,8.563,8.15,13.681c12.657,35.413-4.429,69.547-4.489,69.763      c-0.452,1.319,0.533,2.559,1.851,2.736c0.196,0.019,38.247-3.13,66.416,21.83c4.055,3.603,7.166,7.972,9.646,12.677      C499.975,386.216,500.704,391.255,498.676,396.373z"/>
			</g>
		</g>
		<g>
			<path style="fill:#000E3F;" d="M316.362,122.742c-1.993-0.263-4.989-0.084-6.585-0.095c-0.211-5.692,0.044-13.824-0.565-19.418     c-0.859,1.341-2.646,7.267-3.195,7.263c-0.999-0.056-2.996-7.056-3.048-6.957c-0.593,6.235-0.338,12.724,0.02,18.917     c-2.148,0.332-4.842,0.115-6.987,0.099c-0.052,0-0.099-0.05-0.151-0.151c-0.243-0.897-0.199-6.987,0.187-34.085     c1.802-0.535,4.591-0.068,6.792-0.201l0.048-0.002c1.237,1.406,2.204,6.006,3.243,7.56c0.099,0.099,0.199,0.149,0.298,0.151     c0.398,0.153,1.79-6.225,2.996-7.766c0.947,0.159,5.291-0.161,7.388-0.147c-0.294,6.386,0.211,12.529-0.179,18.917     L316.362,122.742z"/>
			<path style="fill:#000E3F;" d="M339.359,125.849l-0.008,0.05c-2.037,0.109-4.532-0.404-6.593-1.156l-0.048-0.006     c-0.481-2.24-0.545-6.332-1.154-8.389c-1.643-0.487-1.576-0.277-3.056-0.491c-1.19,1.945-1.918,5.924-3.37,7.933     c-0.047-0.008-0.103,0.036-0.151,0.028c-0.565,0.07-2.407-0.45-6.907-1.051c-0.052-0.008-0.052-0.008-0.096-0.063     c0.589-1.277,5.522-18.26,12.549-33.377c0.959-0.012,1.707,0.396,6.111,0.633c0.219,2.652,1.205,14.645,1.516,18.067     L339.359,125.849z M328.998,109.981c1.126,0.211,2.419,0.35,3.656,0.529C333.144,93.185,331.847,100.056,328.998,109.981z"/>
			<path style="fill:#000E3F;" d="M363.163,114.055l0.095,0.026l0.036,0.062c-0.513,3.529-1.317,7.597-2.857,10.909     c-1.198,3.195-3.39,4.273-6.091,4.544c-3.425,0.083-7.575-0.227-10.324-2.339c-2.268-1.782-2.992-3.933-3.044-6.887     c-0.004-0.776,0.111-2.19,0.303-3.533c0.688-4.203,1.018-6.439,2.415-11.18c0.593-2.065,1.257-4.211,2.141-6.199     c0.891-2.035,2.077-3.997,4.301-4.806c1.595-0.77,3.35-0.774,5.152-0.559c7.432,0.967,12.581,6.131,9.601,13.762l-0.123,0.276     c-0.195,0.155-0.569,0.006-1.595-0.213c-1.882-0.491-2.634-0.587-4.5-1.331c-0.044-1.407-0.35-4.377-2.232-4.868     c-1.098-0.34-2.109-0.812-3.084-0.241c-0.187,0.105-0.593,0.671-0.875,1.162c-1.727,2.851-3.489,8.789-4.365,13.716     c-0.223,1.438-0.485,3.433,0.466,4.715c0.243,0.269,0.589,0.513,0.999,0.726c0.927,0.398,2.101,0.446,3.107,0.348     c0.812-0.149,1.468-0.491,1.949-1.345c0.286-0.493,1.158-2.64,0.808-2.884c-0.732-0.348-2.984-0.627-3.545-1.032     c0.302-2.141,0.792-2.837,1.134-5.121l0.012-0.048c0.016-0.048,0.016-0.048,0.059-0.036c0,0,0.048,0.012,0.112-0.022     C355.122,111.073,361.862,113.715,363.163,114.055z"/>
			<path style="fill:#000E3F;" d="M382.03,102.234l-0.068,0.187c-3.84,10.77-8.482,21.725-11.677,32.615     c-1.404,0.667-7.257-2.532-8.709-2.626c4.933-11.013,7.396-23.12,12.278-33.25l0.032-0.095c0.346,0.072,1.472,0.631,1.894,0.784     c1.114,0.448,2.284,1.024,5.12,1.981L382.03,102.234z"/>
			<path style="fill:#000E3F;" d="M390.214,114.956c-0.326,0.235-4.559,8.562-6.083,12.861c-0.625,1.854-0.859,4.052,0.684,5.359     c1.253,0.736,2.801,0.838,3.951-0.119c1.321-1.096,1.639-2.872,2.638-4.227c1.624,1.017,4.464,1.763,5.964,3.048     c-0.815,7.201-8.192,12.065-14.884,9.179c-4.583-1.377-9.378-5.425-7.555-10.74c1.759-4.464,3.847-9.163,8.459-18.914     c0.338-1.106,1.11-2.071,1.886-2.815c1.269-1.339,2.69-2.284,4.301-2.811c0.907-0.189,1.826-0.155,2.793,0.012     c9.553,1.062,14.705,12.628,7.965,19.708c-2.451-0.517-4.416-1.743-6.545-3.207c0.732-2.574,3.179-6.01-0.43-7.492     c-0.831-0.215-1.874-0.579-2.602-0.308C390.56,114.564,390.321,114.839,390.214,114.956z"/>
			<path style="fill:#000E3F;" d="M412.216,156.326l-0.024,0.042c-1.926-0.656-4.054-2.061-5.685-3.525l-0.04-0.026     c0.386-2.256,1.85-6.08,2.049-8.212c-1.345-1.068-1.357-0.846-2.654-1.595c-1.826,1.363-3.982,4.784-6.075,6.107     c-0.044-0.026-0.111-0.006-0.155-0.032c-0.549-0.145-2.065-1.311-6.02-3.547c-0.044-0.024-0.044-0.024-0.064-0.093     c1.022-0.965,11.924-14.892,24.079-26.303c0.895,0.346,1.436,1.007,5.435,2.863c-0.788,2.545-4.333,14.043-5.319,17.335     L412.216,156.326z M408.515,137.738c0.967,0.621,2.117,1.229,3.195,1.854C418.617,123.695,414.853,129.589,408.515,137.738z"/>
			<path style="fill:#000E3F;" d="M429.403,168.668c-1.046-0.937-3.135-1.88-16.042-11.447l0.522-0.728     c9.21-11.815,12.063-16.215,20.068-27.723c1.417,0.339,5.323,3.018,6.398,4.774c-5.232,6.867-10.564,15.075-15.688,21.96     l-0.028,0.04c1.285,0.434,8.912,7.006,10.325,7.776c-0.203,0.282-0.438,0.607-0.68,0.861c-0.418,0.497-0.895,1.078-1.178,1.551     C430.513,169.772,430.537,169.481,429.403,168.668z"/>
			<path style="fill:#000E3F;" d="M431.795,170.755c-0.342-0.286,2.67-2.974,3.851-4.394l0.032-0.038     c1.643,0.523,3.247,2.572,4.742,3.817c-1.217,1.387-2.697,3.012-3.943,4.508l-0.271-0.223c-0.613-0.511-0.852-0.772-1.424-1.251     l-0.076-0.064L431.795,170.755z M454.166,143.859c1.44,1.003,3.712,2.246,4.782,3.849c-5.57,6.465-11.693,13.511-16.841,20.329     c-1.472-0.965-3.585-2.721-5.109-3.925l-0.04-0.032c5.733-6.658,10.862-13.685,17.092-20.317L454.166,143.859z"/>
		</g>
		<g>
			<g>
				<path style="fill:#FD8A02;" d="M511.645,240.545c-2.059,2.408-6.311,5.396-10.024,15.26c-0.333,0.884-0.682,1.776-1.148,2.592      c-0.649,1.137-2.031,1.209-2.797,0.116c-1.732-2.47-1.83-6.398-7.605-13.186c-3.389-3.983-6.689-5.237-3.853-7.646      c7.07-6.007,9.5-15.014,10.787-17.397c0.556-1.029,1.875-1.109,2.598-0.204c0.774,0.971,1.174,2.149,1.64,3.286      c3.444,8.421,8.192,12.27,10.131,14.141C511.86,237.977,512.355,239.716,511.645,240.545z"/>
				<path style="fill:#FD8A02;" d="M459.318,227.136c-2.371,2.772-7.263,6.201-11.545,17.576c-0.383,1.018-0.785,2.045-1.322,2.985      c-0.747,1.309-2.34,1.392-3.222,0.133c-1.997-2.848-2.108-7.369-8.759-15.186c-3.903-4.588-7.704-6.032-4.438-8.807      c8.143-6.919,10.942-17.293,12.424-20.037c0.64-1.185,2.16-1.278,2.992-0.234c0.892,1.119,1.352,2.475,1.888,3.785      c3.974,9.717,9.461,14.158,11.668,16.288C459.565,224.178,460.136,226.181,459.318,227.136z"/>
				<path style="fill:#FD8A02;" d="M487.185,295.188c-0.494,0.578-0.996,1.157-1.548,1.679c-7.776,7.357-9.605,15.879-11.319,18.882      c-0.747,1.309-2.34,1.392-3.222,0.134c-0.615-0.877-1.081-1.892-1.452-2.905c-5.782-15.809-16.63-16.937-11.745-21.088      c8.143-6.919,10.941-17.293,12.424-20.037c0.641-1.185,2.16-1.278,2.992-0.234c0.892,1.119,1.353,2.475,1.888,3.785      c3.974,9.717,9.462,14.157,11.668,16.287C487.432,292.231,488.004,294.231,487.185,295.188z"/>
			</g>
			<g>
				<path style="fill:#FD8A02;" d="M26.501,341.787c-2.059,2.408-6.311,5.396-10.024,15.26c-0.333,0.884-0.682,1.776-1.148,2.592      c-0.649,1.137-2.031,1.209-2.797,0.116c-1.732-2.47-1.83-6.398-7.605-13.186c-3.389-3.983-6.689-5.237-3.852-7.647      c7.07-6.007,9.499-15.014,10.787-17.397c0.556-1.029,1.875-1.109,2.598-0.204c0.774,0.971,1.174,2.149,1.64,3.286      c3.444,8.421,8.192,12.27,10.131,14.141C26.716,339.219,27.211,340.958,26.501,341.787z"/>
				<path style="fill:#FD8A02;" d="M70.124,378.102c-2.371,2.772-7.263,6.201-11.545,17.575c-0.383,1.018-0.785,2.045-1.322,2.985      c-0.747,1.309-2.34,1.392-3.222,0.134c-1.997-2.848-2.108-7.369-8.759-15.186c-3.903-4.588-7.704-6.032-4.438-8.808      c8.143-6.919,10.942-17.293,12.424-20.037c0.64-1.185,2.16-1.278,2.992-0.234c0.892,1.119,1.353,2.475,1.889,3.785      c3.974,9.717,9.461,14.158,11.668,16.288C70.371,375.144,70.941,377.147,70.124,378.102z"/>
				<path style="fill:#FD8A02;" d="M80.266,309.124c-0.495,0.578-0.996,1.157-1.548,1.678c-7.776,7.357-9.605,15.879-11.319,18.882      c-0.747,1.309-2.339,1.393-3.222,0.134c-0.615-0.877-1.081-1.892-1.452-2.905c-5.782-15.809-16.63-16.937-11.744-21.089      c8.143-6.919,10.942-17.293,12.424-20.037c0.64-1.185,2.16-1.278,2.992-0.234c0.892,1.119,1.353,2.474,1.888,3.785      c3.974,9.717,9.462,14.158,11.668,16.287C80.513,306.166,81.085,308.167,80.266,309.124z"/>
			</g>
		</g>
	</g>
</g>















</svg>
