<?xml version="1.0" encoding="UTF-8"?>
<!-- Generator: Adobe Illustrator 25.2.1, SVG Export Plug-In . SVG Version: 6.00 Build 0)  -->
<svg xmlns="http://www.w3.org/2000/svg" xmlns:xlink="http://www.w3.org/1999/xlink" version="1.1" id="Capa_1" x="0px" y="0px" viewBox="0 0 512 512" style="enable-background:new 0 0 512 512;" xml:space="preserve" width="512" height="512">
<g>
	<g>
		<g>
			<g>
				<g>
					<path style="fill:#FFCF00;" d="M302.749,452.956c-2.033-3.457-3.487-7.165-4.087-14.486       c-2.141-26.132-1.907-51.003-1.566-54.155c0.344-3.181,2.78-0.83,7,1.226c13.441,6.547,15.41,6.655,21.339,9.071       c4.468,1.821,9.05,3.54,13.893,4.266c1.424,0.214,10.224,3.566,26.279,5.742c2.89,0.392,3.152,0.998,1.362,3.48       c-22.187,30.768-33.736,46.463-43.504,51.085C315.642,462.887,307.05,460.269,302.749,452.956z"/>
					<path style="fill:#FFCF00;" d="M362.185,343.621c-3.485-1.388-39.954-11.406-60.72-25.879       c-1.008-0.702-1.502-1.681-1.405-2.926c1.42-18.137,0.962-18.799,3.041-18.826c9.46-0.116,11.763-4.517,13.077-1.322       c0.51,1.24,0.911,2.526,1.416,3.768c4.816,11.854,17.091,19.41,31.905,14.974c8.684-2.6,11.648-10.007,12.456-5.051       c0.578,3.546,2.219,6.68,4.034,9.679c6.487,10.721,22.84,16.512,37.228,6.055c2.657-1.931,2.635-1.983,4.476,0.703       c8.609,12.566,11.549,1.14-1.716,23.99c-0.727,1.252-1.667,1.683-3.017,1.717c-8.067,0.201-21.654-2.632-29.668-4.315       C369.347,345.361,365.591,343.798,362.185,343.621z"/>
				</g>
				<path style="fill:#FFFFFF;" d="M357.043,140.315c8.698-9.588,21.675-14.46,34.455-16.825c17.24-3.191,21.424-6.086,28.93-9.736      c3.441-1.673,3.401-2.165,4.591,0.427c11.759,25.589,29.449,30.023,35.687,54.784c5.285,20.977-9.268,31.665-16.302,31.719      c-7.572,0.058-13.381-3.104-17.085-9.72c-4.202-7.506-1.44,2.304-17.452,5.728c-16.168,3.458-29.165-8.684-30.799-21.863      c-0.141-1.139-0.251-2.104-1.515-1.691c-2.757,0.9-10.108,5.785-20.4-0.014C349.503,168.812,345.357,153.198,357.043,140.315z"/>
				<g>
					<path style="fill:#915EFD;" d="M331.425,394.904c-23.849-7.813-30.27-12.661-31.667-13.205       c-2.309-0.897-2.793-2.645-2.727-4.956c0.349-12.297,1.404-42.65,2.519-54.807c0.518-5.649,0.614-1.793,17.937,6.307       c62.882,29.403,88.092,19.769,85.451,25.285c-2.841,5.933-31.409,48.171-31.481,48.284c-0.97,1.53-2.256,1.931-3.953,1.7       c-17.798-2.421-26.299-5.267-36.119-8.484C331.397,394.987,331.411,394.946,331.425,394.904z"/>
					<path style="fill:#915EFD;" d="M399.351,141.817c7.439-6.78,16.029-17.016,20.767-26.762c0.784-1.611,3.31-3.635,4.258-2.131       c1.953,3.1,0.156,3.426-0.081,13.673c-0.601,25.92,7.247,33.192,5.172,49.359c-0.712,5.548-3.004,10.557-3.573,11.083       c-2.798,2.585-5.346,5.498-8.855,7.186c-24.249,11.665-42.462-12.521-37.437-27.599       C383.671,154.418,390.621,149.774,399.351,141.817z"/>
				</g>
				<path style="fill:#FF8EDE;" d="M501.898,262.896c-10.635,13.048-28.426,13.159-36.708,3.727      c-4.094-4.669-4.93-10.987-4.468-12.205c0.824-2.13,1.027-4.423,1.599-6.616c3.123-11.845,4.087-23.786,1.651-35.894      c-0.286-1.378-1.26-6.31-2.421-5.532c-0.41,0.287-0.107,1.229,0.066,1.728c6.217,20.106-0.531,46.748-10.285,64.887      c-10.224,18.996-13.464,16.923-10.51,20.123c9.209,10.009,11.28,26.125,2.681,36.302c-6.222,7.354-16.692,8.2-25.165,3.402      c-13.311-7.52-9.226-15.427-15.42-10.148c-13.951,11.857-36.829,4.741-39.968-16.148c-0.144-0.911-0.086-2.05-1.057-2.432      c-1.059-0.431-1.61,0.673-2.202,1.322c-11.354,12.223-31.584,10.334-39.566-4.517c-3.898-7.258-2.231-10.419-5.047-9.088      c-6.882,3.263-14.41,3.935-21.672,1.156c-22.201-8.537-12.607-39.428,10.844-43.96c2.762-0.527,2.344-0.791,2.263-2.797      c-1.27-26.531,9.777-61.79,29.764-77.607c1.853-1.478,2.181-1.708,1.938-2.124c-0.485-0.833-2.344,0.791-3.088,1.389      c-11.509,9.287-19.263,23.763-24.04,37.636c-0.716,2.061-2.426,3.354-4.09,4.515c-6.502,4.546-13.428,5.246-20.423,1.333      c-9.731-5.462-14.338-13.901-14.116-25.053c0.543-27.053,38.981-56.181,74.471-50.662c9.824,1.513,10.297,2.447,7.567,5.702      c-7.076,8.485-7.79,18.761-3.194,27.49c3.342,6.318,12.956,11.047,24.003,6.642c0.701-0.275,1.937-1.029,2.424,0.184      c0.77,1.895,1.357,10.322,11.334,17.929c10.407,7.959,25.028,5.82,34.051-2.113c0.825-0.72,1.67-1.433,2.357-0.576      c1.854,2.377,6.308,10.575,17.247,11.063c8.185,0.343,15.757-6.632,18.818-14.306c3.955-9.951-1.601-17.036,4.875-14.303      C507.425,190.679,519.143,241.756,501.898,262.896z"/>
				<path style="opacity:0.5;fill:#FC09B2;" d="M362.941,282.687c9.361,3.644,41.593,17.772,65.112-4.643      c22.839-21.766,10.763-59.781,30.626-71.129c1.831-1.046,2.264-0.875,2.885,1.062c5.411,16.87,1.359,36.852-4.918,53.343      c-6.674,17.533-15.818,27.723-16.637,29.224c-0.716,1.311,0.365,1.941,1.37,3.125c13.797,16.247,7.709,40.069-9.8,42.02      c-9.465,1.054-18.625-4.883-23.254-12.169c-2.809-4.422-2.711-2.752-7.016,0.359c-13.757,9.943-34.522,3.065-38.255-16.587      c-0.172-0.908-0.127-1.858-0.592-2.708c-0.877-1.601-1.982,0.142-3.306,1.383c-13.163,12.351-31.264,8.618-38.949-4.933      c-4.154-7.326-2.099-10.618-5.261-9.179c-10.013,4.557-19.749,3.189-26.02-1.287c-9.746-6.96,16.938-16.491,21.473-17.338      C328.162,269.913,346.596,276.325,362.941,282.687z"/>
				<g>
					<path style="fill:#FC09B2;" d="M414.106,258.74c0.028-8.198,10.323-14.515,21.397-9.605c5.581,2.475,10.726,9.051,8.92,15.525       c-1.829,6.554-9.932,9.731-16.841,8.072C420.97,271.145,414.083,265.59,414.106,258.74z"/>
					<path style="fill:#FC09B2;" d="M346.035,236.44c4.828-6.625,0.267-17.81-11.566-20.403c-5.964-1.308-14.003,0.949-16.377,7.238       c-2.403,6.365,2.248,13.721,8.8,16.472C333.162,242.378,342.001,241.975,346.035,236.44z"/>
					<path style="fill:#FC09B2;" d="M389.901,236.082c-1.504,0.413-2.94,0.49-4.283,0.282c-1.229-0.172-2.383-0.57-3.43-1.166       c-5.281-2.846-8.35-10.065-6.389-16.625c2.478-8.301,18.509-2.623,23.704,2.732       C404.115,226.059,397.069,234.133,389.901,236.082z"/>
					<path style="fill:#FC09B2;" d="M331.396,390.601c3.665,1.201,7.609-0.797,8.809-4.461c1.201-3.664-0.797-7.608-4.462-8.809       c-3.665-1.201-7.608,0.797-8.809,4.461C325.734,385.457,327.732,389.401,331.396,390.601z"/>
					<path style="fill:#FC09B2;" d="M371.994,376.175c-1.2,3.664,0.797,7.609,4.461,8.809c3.665,1.201,7.609-0.797,8.809-4.461       c1.2-3.664-0.797-7.608-4.462-8.809C377.138,370.514,373.194,372.511,371.994,376.175z"/>
					<path style="fill:#FC09B2;" d="M348.853,340.99c-0.586-0.199-1.202-0.422-1.799-0.63c-3.439-0.723-6.942,1.209-8.062,4.625       c-1.2,3.664,0.797,7.608,4.462,8.809c3.664,1.201,7.608-0.796,8.809-4.461C353.342,346.041,351.827,342.542,348.853,340.99z"/>
					<path style="fill:#FC09B2;" d="M302.744,346.141c-1.569-0.514-3.177-0.412-4.611,0.126c-0.188,4.3-0.361,8.655-0.515,12.799       c0.256,0.12,0.503,0.255,0.779,0.345c3.664,1.201,7.608-0.797,8.808-4.461C308.405,351.286,306.408,347.342,302.744,346.141z"/>
				</g>
				<g>
					<path style="fill:#FFFFFF;" d="M486.849,270.454c-0.776,1.599-1.904,2.535-3.783,2.678c-5.119,0.387-9.471-0.597-12.943-2.534       c-5.636-3.11-8.95-8.682-9.514-14.995c-0.034-0.411-0.016-0.848,0.127-1.222c0.825-2.131,0.971-4.442,1.618-6.609       c4.987-17.152,2.648-36.115-0.042-41.208c-0.249-0.46-1.357-0.613-0.703-1.389c1.163-1.43,6.007,1.336,9.976,4.195       c2.135,1.521,4.01,3.062,4.97,3.987C491.624,228.044,496.123,251.4,486.849,270.454z"/>
					<path style="fill:#FFFFFF;" d="M338.225,165.996c-10.683,5.093-22.854,25.662-26.382,37.521       c-1.624,5.471-7.27,9.012-12.638,9.97c-1.498,0.267-3.51,0.303-5.683,0.055c-5.762-0.666-12.604-3.245-13.491-8.19       c-0.261-1.391,0.004-2.842,0.351-4.223c5.516-22.559,28.469-40.228,51.576-37.86c0,0,0,0,0.025-0.013       c1.146,0.102,2.293,0.267,3.42,0.489c0.995,0.179,2.033,0.35,2.897,0.991C338.72,165.063,338.704,165.753,338.225,165.996z"/>
					<path style="fill:#FFFFFF;" d="M365.295,248.718c0.361-10.482,3.875,1.623,15.04-7.183c0.912-0.719,2.351-2.823,2.836-0.92       c0.921,3.614,1.583,8.785,7.82,11.109c2.773,1.033,2.735,1.929,1.374,4.203C383.905,270.06,364.783,263.584,365.295,248.718z"/>
					<path style="fill:#FFFFFF;" d="M390.633,364.132c-0.839,2.562-0.332,5.223,1.095,7.279c3.201-4.882,6.139-9.427,8.236-12.801       C395.962,357.879,391.935,360.158,390.633,364.132z"/>
					<path style="fill:#FFFFFF;" d="M350.856,380.178c4.338,1.421,9.007-0.943,10.428-5.281c1.421-4.339-0.944-9.007-5.281-10.428       c-4.338-1.421-9.007,0.943-10.428,5.281C344.153,374.088,346.518,378.757,350.856,380.178z"/>
					<path style="fill:#FFFFFF;" d="M316.226,380.514c1.421-4.338-0.944-9.007-5.282-10.428c-4.338-1.421-9.007,0.943-10.428,5.282       c-0.852,2.6-0.322,5.306,1.156,7.374c1.361,0.765,3.501,1.921,6.786,3.43C311.901,386.133,315.094,383.968,316.226,380.514z"/>
					<path style="fill:#FFFFFF;" d="M317.855,348.988c4.339,1.421,9.008-0.943,10.429-5.282c1.421-4.338-0.943-9.007-5.282-10.428       c-4.338-1.421-9.007,0.943-10.428,5.281C311.153,342.898,313.517,347.567,317.855,348.988z"/>
				</g>
				<g style="opacity:0.5;">
					<path style="fill:#FF8EDE;" d="M486.849,270.454c-0.776,1.599-1.904,2.535-3.783,2.678c-5.119,0.387-9.471-0.597-12.943-2.534       c0.861-1.213,2.361-2.449,3.366-3.846c10.178-14.483,9.001-30.495,2.532-46.619c-0.948-2.375-2.456-7.354-4.436-10.762       c2.135,1.521,4.01,3.062,4.97,3.987C491.624,228.044,496.123,251.4,486.849,270.454z"/>
					<path style="fill:#FF8EDE;" d="M331.958,163.268c-0.298,0.071-0.619,0.155-0.986,0.245       c-23.909,6.509-37.294,26.154-37.687,45.738c-0.042,1.734,0.137,3.183,0.237,4.29c-5.762-0.666-12.604-3.245-13.491-8.19       c-0.261-1.391,0.004-2.842,0.351-4.223C285.898,178.569,308.85,160.9,331.958,163.268z"/>
				</g>
				<g style="opacity:0.5;">
					<path style="fill:#FD8A02;" d="M302.774,452.993c-3.984-6.758-3.805-12.426-4.472-19.731       c-0.388-4.249,13.625,7.437,36.446-18.115c11.3-12.653,8.129-15.534,14.695-13.645c15.563,4.476,21.276,1.439,17.571,6.547       c-30.018,41.387-37.098,49.75-47.007,52.344C317.13,461.146,306.184,458.777,302.774,452.993z"/>
					<path style="fill:#FD8A02;" d="M377.66,347.195c-1.527-0.343-2.005-1.145-1.362-2.287c2.736-4.867,5.638-9.63,9.066-14.055       c2.032-2.623,7.15,0.209,15.843-5.338c1.129-0.721,2.161-1.593,3.261-2.362c2.793-1.955,2.191,2.731,9.116,7.996       c3.077,2.34,1.667,1.654-7.624,17.668c-0.733,1.263-1.698,1.648-3.036,1.688c-4.26,0.128-8.461-0.476-12.647-1.092       C385.99,348.781,381.736,347.921,377.66,347.195z"/>
				</g>
				<g style="opacity:0.25;">
					<path style="fill:#000E3F;" d="M422.443,167.125c7.443-2.405,14.028-6.982,17.177-14.143c2.643-6.01-0.804-17.243,1.774-14.689       c6.209,6.148,11.859,12.464,16.034,21.496c16.262,35.183-17.073,53.125-30.092,31.29c-1.122-1.881-1.78-3.817-3.309-2.325       c-17.71,17.283-42.41,5.913-44.952-13.861c-0.144-1.121-0.184-1.879-1.154-1.814c-2.031,0.135-9.827,6.384-20.99-0.091       c-3.207-1.86-5.407-5.601-6.219-8.917c-0.861-3.516-1.465-3.276,2.583-4.85C376.19,150.323,395.429,175.853,422.443,167.125z"/>
					<path style="fill:#000E3F;" d="M349.693,400.321c-4.01-1.148-4.082-1.326-2.422-4.272       c21.922-38.919,25.564-45.353,26.27-46.739c0.984-1.931,2.249-1.211,7.743-0.139c17.434,3.402,19.631,2.248,21.165,2.725       c1.504,0.468,2.876-0.217-29.881,48.279c-2.84,4.204-2.819,3.532-7.098,3.064C359.915,402.632,354.494,401.322,349.693,400.321       z"/>
				</g>
				<g>
					<g>
						<path style="fill:#00D5FE;" d="M365.961,386.858c-5.175-1.696-10.745,1.125-12.44,6.3c-0.94,2.871-0.454,5.839,1.016,8.224        c3.755,0.742,7.988,1.454,12.965,2.131c0.808,0.11,1.517,0.063,2.148-0.167c1.15-1.089,2.083-2.437,2.611-4.048        C373.957,394.123,371.136,388.553,365.961,386.858z"/>
						<path style="fill:#00D5FE;" d="M332.961,355.667c-1.42-0.465-2.863-0.562-4.253-0.392c-3.68,0.45-6.956,2.937-8.187,6.693        c-1.23,3.755-0.06,7.699,2.64,10.239c1.02,0.96,2.241,1.736,3.661,2.201c5.176,1.696,10.746-1.125,12.441-6.3        C340.957,362.933,338.136,357.363,332.961,355.667z"/>
						<path style="fill:#00D5FE;" d="M371.88,368.791c5.174,1.695,10.745-1.125,12.44-6.3c1.427-4.355-0.37-8.96-4.05-11.33        c-0.694-0.447-1.43-0.842-2.25-1.11c-0.821-0.269-1.648-0.386-2.472-0.437c-4.37-0.267-8.542,2.383-9.968,6.737        C363.884,361.526,366.705,367.095,371.88,368.791z"/>
						<path style="fill:#00D5FE;" d="M302.211,325.588c-0.693-0.447-1.429-0.842-2.25-1.111c-0.203-0.067-0.409-0.082-0.614-0.135        c-0.007,0.097-0.015,0.202-0.022,0.3c-0.378,4.949-0.743,11.745-1.072,18.935c3.605-0.509,6.798-2.966,8.008-6.66        C307.688,332.563,305.891,327.958,302.211,325.588z"/>
					</g>
				</g>
			</g>
			<g>
				<path style="fill:#000E3F;" d="M347.093,133.215c2.956,0.429,5.937,0.884,8.749,1.949c4.009,1.519,2.473-1.577,15.232-7.745      c12.244-5.919,19.741-5.636,31.541-8.867c20.067-5.495,21.236-13.324,23.939-6.831c8.187,19.665,18.707,24.321,28.161,38.609      c7.519,11.364,7.582,17.198,8.74,19.29c0.393,0.71,1.694,0.801,2.372,0.998c5.553,1.616,15.108,7.049,21.356,12.967      c22.443,21.254,29.137,51.167,22.207,70.525c-9.376,26.191-41.241,28.06-49.464,8.348c-1.204-2.887-1.552,5.508-13.018,22.641      c-3.699,5.529-4.834,5.612-3.54,7.236c5.643,7.086,8.664,14.975,7.85,24.143c-1.348,15.17-13.45,22.968-24.462,21.576      c-8.863-1.12-8.934-4.119-10.123-2.177c-3.323,5.425-13.222,21.53-17.097,27.699c-15.475,24.636-44.907,68.265-64.333,89.56      c-16.941,18.57-36.259,10.196-38.726-12.425c-1.793-16.449-2.109-38.027-1.896-54.821c1.505-118.277,12.745-78.517-7.939-94.055      c-3.987-2.995-6.283-7.079-7.532-11.782c-3.784-14.243,8.052-28.5,22.414-32.795c1.671-0.5,2.493-0.544,2.493-1.815      c-0.002-22.135,4.161-32.002,3.541-32.496c-0.648-0.516-1.034,0.335-1.54,0.589c-12.633,6.345-25.078,0.324-31.721-10.788      C255.335,171.03,302.766,126.783,347.093,133.215z M273.547,185.766c-1.33,13.692,10.319,27.719,23.382,26.917      c6.562-0.403,12.712-5.03,13.842-8.955c3.692-12.825,14.709-31.357,26.276-38.469c1.635-1.005,3.174,1.084,1.861,2.526      c-1.298,1.425-22.931,14.574-30.052,57.67c-3.82,23.122,2.08,23.26-4.693,24.706c-6.961,1.487-12.642,5.076-16.959,10.661      c-14.954,19.344,4.007,39.528,26.053,30.632c0.575-0.232,1.12-0.548,1.708-0.733c3.192-1.004,3.22,2.264,4.249,5.473      c5.253,16.386,26.128,22.342,39.571,8.55c0.432-0.443,0.809-0.954,1.292-1.33c1.354-1.054,3.271-0.417,3.715,1.217      c0.158,0.582,0.745,16.365,16.582,21.433c7.456,2.386,15.155,1.104,22.351-4.583c1.729-1.367,3.115-2.933,4.435-1.387      c3.485,4.08,4.962,9.965,17.443,13.902c6.72,2.12,14.27-0.219,18.555-5.983c5.784-7.781,5.97-16.282,2.569-25.003      c-1.427-3.658-3.406-7.063-6.262-9.894c-1.287-1.276-1.283-2.196-0.158-3.546c1.792-2.149,3.345-4.464,4.922-6.763      c16.834-24.545,21.544-55.059,17.11-71.643c-0.891-3.331-1.85-5.329-0.088-5.91c1.842-0.608,2.531,1.803,3.105,3.855      c3.904,13.948,1.765,31.731-2.403,44.282c-1.565,4.711,2.91,17.345,16.244,18.596c10.248,0.962,18.366-3.181,24.124-11.615      c17.651-25.856-4.652-75.414-36.046-85.739c-3.109-1.023-1.642,0.851-2.31,6.971c-0.96,8.785-5.51,15.223-13.069,19.558      c-8.072,4.63-19.075,0.689-24.169-6.641c-2.148-3.091-2.051-2.837-4.074-1.259c-16.603,12.955-39.073,5.49-45.106-14.27      c-0.966-3.165-0.516-2.952-3.03-2.028c-9.839,3.617-19.767-0.503-23.367-6.383c-6.243-10.196-4.156-21.232,1.829-29.001      c0.503-0.653,0.985-1.331,1.391-2.046c2.041-3.59-38.94-10.95-67.702,19.183C279.103,166.644,274.606,174.861,273.547,185.766z       M436.306,198.042c6.317,2.137,9.847,1.935,14.042-0.582c5.363-3.218,8.901-9.048,9.695-13.124      c2.619-13.439-3.069-25.777-11.447-36.676c-7.949-10.342-13.794-11.892-24.612-33.188c-0.336-0.66-0.85-0.865-1.529-0.527      c-11.852,5.912-13.388,7.205-32.419,10.977c-56.244,11.147-43.084,59.442-15.714,48.439c0.861-0.346,1.655-0.868,2.526-1.181      c5.253-1.883,0.971,4.571,7.979,13.888c9.006,11.973,23.883,12.799,34.19,5.619c3.603-2.509,3.86-3.508,4.852-4.303      c1.879-1.506,3.152,0.752,4.157,2.731C430.202,194.399,433.686,197.13,436.306,198.042z M367.28,402.386      c1.632,0.263,2.687-0.314,3.622-1.68c10.572-15.446,20.716-30.838,30.506-46.712c0.515-0.835,0.36-1.115-0.542-1.133      c-6.015-0.12-11.911-1.155-17.803-2.254c-24.228-4.522-47.574-11.358-74.639-25.748c-6.23-3.313-7.564-5.38-7.816-3.011      c-1.222,11.502-2.473,54.963-2.479,55.119c-0.069,1.87,0.602,2.955,2.302,3.902C315.557,389.294,337.684,397.617,367.28,402.386      z M322.738,458.344c6.092-2.633,10.145-7.384,17.858-16.867c8.379-10.302,18.083-23.306,25.809-34.5      c0.481-0.698,0.267-1.175-0.58-1.262c-6.979-0.717-21.397-4.059-24.541-5.011c-44.715-13.535-43.26-20.899-43.277-13.692      c-0.042,17.465,0.126,34.923,1.81,52.329C301.587,457.63,312.944,462.577,322.738,458.344z M402.997,349.355      c0.992,0.005,1.69-0.477,2.23-1.388c2.579-4.354,5.236-8.661,7.846-12.997c1.947-3.233-0.542-1.544-6.118-9.295      c-1.744-2.425-1.522-1.685-4.078,0.024c-13.819,9.237-29.897,5.14-37.638-6.859c-1.903-2.95-3.522-6.073-4.179-9.599      c-0.624-3.347-2.224,2.857-13.058,5.767c-11.814,3.173-25.775-2.04-31.542-16.444c-0.498-1.242-0.973-2.493-1.458-3.74      c-2.205-0.509-0.688,1.033-11.089,2.217c-1.959,0.223-1.168-0.947-2.765,16.972c-0.134,1.505,0.416,2.536,1.643,3.382      c2.385,1.646,4.853,3.149,7.43,4.468C334.089,334.083,375.307,349.21,402.997,349.355z"/>
				<path style="fill:#000E3F;" d="M417.369,235.394c-4.353-1.644-5.888-6.391-4.789-9.523c1.477-4.211,5.714-6.487,9.853-5.048      C432.22,224.229,426.523,238.851,417.369,235.394z"/>
				<path style="fill:#000E3F;" d="M357.153,215.667c4.482,1.251,8.528-1.668,9.496-4.843c1.301-4.269-0.768-8.61-4.956-9.899      C351.787,197.878,347.728,213.037,357.153,215.667z"/>
				<g>
					<path style="fill:#000E3F;" d="M411.415,249.869c-5.551,4.858-12.864,6.611-18.874,4.642c-0.704-0.231-1.389-0.518-2.055-0.863       c-4.702-2.362-7.788-6.763-8.642-11.613c-3.558,3.404-8.651,5.127-13.839,4.248c-6.968-1.167-12.854-7.37-14.617-15.424       c-0.208-0.974,0.402-1.932,1.356-2.146c0.999-0.221,1.938,0.382,2.165,1.362c1.446,6.644,6.143,11.721,11.711,12.661       c5.707,0.964,11.261-2.102,13.469-7.234c0.031-0.095,0.049-0.215,0.099-0.304c1.047,0.596,2.201,0.994,3.43,1.166l-0.087,0.266       c-1.257,5.443,1.405,11.201,6.576,13.801c5.026,2.531,11.817,1.218,16.933-3.277c0.743-0.662,1.876-0.586,2.533,0.177       C412.235,248.074,412.158,249.207,411.415,249.869z"/>
				</g>
			</g>
		</g>
		<g>
			<g>
				<path style="fill:#915EFD;" d="M201.668,154.165c-8.025,10.647-19.473,10.047-26.759,0.4      c-6.704-8.906-17.992-14.751-21.995-6.525c-3.882,7.965-4.603,9.907-7.025,13.449c-5.183,7.645-17.572,9.987-25.096-1.201      c-4.163-6.184-10.728-15.39-19.434-14.73c-12.068,0.901-12.868,15.33-17.251,23.636c-4.184,7.866-13.929,10.247-21.275,5.164      c-10.026-6.925-13.149-21.755-24.976-8.966c-3.023,3.282-3.863,6.184-6.925,12.389c-5.704,11.508-17.933,10.968-25.658,3.643      c-0.752-0.702-0.753-1.347-0.6-2.242c2.024-8.714,4.242-15.656,8.525-23.216c0-0.02,0.02-0.02,0.02-0.04      c1.261-2.062,2.281-3.382,2.962-4.523c0,0,0,0,0-0.02c2.657-3.981-2.498-9.034-6.464-33.463      c-0.411-2.81-0.761-2.653-1.101-4.523c-0.067-0.2-2.542-18.967,0.68-27.739c2.137-5.472,6.081-7.857,12.209-6.885      c1.572,0.786,3.199-0.567,15.111,6.685c17.466,11.305,28.104,25.665,29.92,24.757c0.141,0,0.28-0.04,0.421-0.1      c0.02-0.02,0.06-0.02,0.079-0.04c1.476-0.531,10.264-5.627,24.677-7.986c7.616-1.343,16.979-1.887,25.217-1.021      c5.438,0.553,6.452,1.84,7.906-0.34c9.233-17.619,31.932-54.29,45.591-39.667c0.021,0.02,0.021,0.02,0.021,0.04      c6.27,7.428,7.855,18.77,9.186,28.52c-0.04,0-0.08,0-0.12,0.02c2.449,9.535,1.881,32.128,2.221,34.504      c-0.173,0.178,0.247,1.72,1.041,2.382c0.04,0.06,0.12,0.12,0.181,0.16c0.817,0.983,10.037,6.583,19.292,23.636      C202.77,151.663,202.609,152.904,201.668,154.165z"/>
				<g>
					<path style="fill:#FFCF00;" d="M67.744,353.541c-15.491-4.467-26.684-26.379-31.349-43.331       c-0.866-3.148-1.032-7.441-1.896-9.405c-0.202-0.46-0.344-1.018-0.29-1.507c0.391-3.525-1.363-5.966-0.401-18.852       c0.106-1.42,0.817-2.302,1.957-2.936c23.875-13.287,51.371-17.581,77.899-22.388c27.838-5.045,57.338-7.926,85.354-1.993       c2.501,0.53,3.931,1.711,4.8,4.15c9.847,27.657,6.601,68.497-15.585,80.255C162.488,351.179,95.723,361.611,67.744,353.541z"/>
					<path style="fill:#FFCF00;" d="M185.766,352.635c5.213,37.073,3.749,97.086-31.759,108.713       c-37.277,12.206-60.335-28.402-70.254-66.158c-2.525-9.614-5.044-20.69-7.072-33.907c-0.685-4.462-0.157-4.491,2.448-4.223       c25.38,2.603,71.436-2.655,101.331-14.454c4.677-1.846,3.662-2.689,5.448,10.011       C185.861,352.622,185.813,352.628,185.766,352.635z"/>
					<path style="fill:#FFCF00;" d="M122.874,139.152c0.433-1.947,2.682-2.953,4.451-3.346c3.495-0.775,13.985-1.857,15.379,3.302       C144.808,146.901,121.255,146.436,122.874,139.152z"/>
					<path style="fill:#FFCF00;" d="M41.264,127.523c-1.375-1.445-0.957-3.873-0.297-5.56c1.304-3.333,6.253-12.646,11.313-10.928       C59.923,113.631,46.41,132.928,41.264,127.523z"/>
				</g>
				<g>
					<path style="fill:#FD8A02;" d="M129.463,353.214c-18.903,2.658-41.39,5.284-60.026,0.776       c-11.304-2.734-20.777-14.408-25.772-24.821c-2.049-4.272-3.075-5.031-1.739-7.409c4.904-8.731,11.591-16.642,21.376-18.307       c11.785-2.006,17.446,6.993,29.221,8.68c6.221,0.891,7.107-2.771,13.77-10.4c9.839-11.266,21.734-12.428,33.173-5.004       c2.337,1.517,4.85,2.795,6.929,4.674c8.594,7.767,19.575-6.378,23.72-9.85c12.385-10.372,26.039-4.838,37.458,6.668       c0.683,0.688,1.019,1.528,0.872,2.537c-2.085,14.288-7.253,29.862-20.052,36.695       C172.389,345.998,148.436,351.18,129.463,353.214z"/>
					<path style="fill:#FD8A02;" d="M173.63,407.541c-9.066-3.855-9.531-4.642-11.018-2.972       c-0.668,0.749-12.864,13.685-13.956,14.955c-1.523,1.774-1.185,1.304,9.396,7.481c11.114,6.489,11.708,6.813,12.248,7.28       c3.591,3.106,0.402,8.094-3.754,6.826c-1.813-0.553-20.243-11.191-20.875-11.55c-3.957-2.247-3.719-2.798-6.043-0.374       c-17.771,18.532-16.919,17.592-18.251,18.555c-1.481,1.071-2.976,0.919-4.549-0.31c-1.436-1.122-1.821-2.372-1.277-4.108       c0.578-1.843,0.44-1.139,16.531-18.377c2.871-3.075,4.191-0.624-16.731-13.266c-1.407-0.85-2.44-0.661-3.595,0.339       c-1.276,1.104-6.651,5.697-8.24,6.547c-2.769,1.483-6.73-0.939-4.987-4.793c0.646-1.428,1.387-1.776,6.259-6.395       c1.83-1.734,1.287-0.783-8.74-7.53c-1.273-0.856-5.129-3.652-6.283-5.447c-0.755-1.174,0.069-2.711,1.459-2.62       c1.22,0.081,2.483,0.319,3.615,0.77c14.881,5.936,15.852,9.799,18.946,7.121c12.951-11.211,15.251-11.843,12.989-12.859       c-14.409-6.472-36.744-15.943-42.308-21.193c-1.979-1.867-0.27-3.854,1.651-3.692c8.216,0.695,44.889,17.757,46.505,18.631       c3.195,1.729,3.459-0.19,16.844-11.569c4.609-3.918,21.255-18.254,26.947-20.213c1.512-0.52,3.339,0.667,2.527,2.865       c-2.007,5.43-26.993,25.997-33.941,32.028c-2.669,2.316-2.911,0.939,15.602,9.336c3.077,1.395,2.113-0.486,13.831-10.605       c1.335-1.153,2.744-2.192,4.24-3.122c1.722-1.07,3.453-0.058,3.304,1.185c-0.412,3.449-6.907,10.273-10.618,14.664       c-0.84,0.993-1.6,1.852-0.412,2.533c5.269,3.019,7.35,2.764,8.61,5.22C181.132,405.957,178.265,409.512,173.63,407.541z        M155.69,399.931c-1.043-0.859,2.091,0.75-18.171-8.412c-0.873-0.395-1.561-0.233-2.264,0.369       c-7.717,6.611-10.768,9.053-14.533,12.552c-1.414,1.314,0.201,1.587,4.055,3.758c17.259,9.719,14.652,9.058,17.1,6.635       c2.124-2.101,13.278-13.622,13.402-13.751C155.565,400.788,155.829,400.468,155.69,399.931z"/>
				</g>
				<g>
					<path style="fill:#FFFFFF;" d="M206.692,241.165c-1.682,3.342-4.163,6.164-6.445,9.086c-2.682,3.423-2.261-2.302-44.691-0.42       c-27.779,1.241-90.842,10.447-116.199,24.096c-2.001,1.081-3.523,0.841-5.404-0.38c-25.097-16.511-36.625-59.04-29.36-94.004       c-0.08,0.68,0.08,1.321,0.68,1.881c7.725,7.325,19.954,7.865,25.658-3.643c3.062-6.204,3.902-9.106,6.925-12.389       c11.827-12.789,14.95,2.041,24.976,8.966c7.346,5.083,17.092,2.702,21.275-5.164c4.383-8.306,5.183-22.735,17.251-23.636       c8.706-0.661,15.271,8.546,19.434,14.73c7.525,11.188,19.913,8.846,25.096,1.201c2.423-3.543,3.143-5.484,7.025-13.449       c4.003-8.226,15.291-2.382,21.995,6.525c7.285,9.646,18.733,10.247,26.759-0.4c0.941-1.261,1.101-2.502,0.58-3.843       C216.379,176.4,220.882,213.245,206.692,241.165z"/>
					<path style="fill:#FFFFFF;" d="M91.06,123.613c-0.288-1.974,1.455-3.715,2.969-4.711c2.99-1.968,12.409-6.712,15.547-2.387       C114.316,123.049,92.139,130.997,91.06,123.613z"/>
				</g>
				<g>
					<path style="fill:#00D5FE;" d="M169.573,132.806c1.498-1.317,3.908-0.803,5.568-0.077c3.279,1.435,12.389,6.749,10.472,11.737       C182.715,151.999,163.968,137.733,169.573,132.806z"/>
					<path style="fill:#00D5FE;" d="M74.56,155.764c-1.758,0.943-3.988-0.104-5.44-1.188c-2.868-2.142-10.535-9.383-7.536-13.807       C66.115,134.09,81.136,152.237,74.56,155.764z"/>
				</g>
				<g>
					<path style="fill:#FF8EDE;" d="M18.294,149.564c-0.403,0.441-0.841,0.482-1.052-0.297c-1.347-4.984-3.445-12.289-5.35-20.368       c-4.857-20.599-8.56-46.069,3.937-49.908c2.033-0.63,2.732-0.405,3.914,1.39c1.21,1.851,2.329,3.775,3.372,5.73       C33.817,106.596,34.001,132.339,18.294,149.564z"/>
					<path style="fill:#FF8EDE;" d="M179.542,89.823c1.023,7.273,1.304,7.557,1.585,14.147c0.084,1.605,0.145,3.618,0.241,6.171       c0.027,0.623,0.071,2.233,0.143,4.183c0.103,3.886,0.218,9.165,0.127,10.815c-0.011,0.062-0.023,0.124-0.017,0.164       c-0.119,1.31-2.24-0.13-3.321-0.908c-7.975-5.69-13.559-13.211-17.1-22.293c-2.772-7.068-2.216-7.57-3.351-11.897       c-1.154-4.466-1.357-15.978,0.798-25.659c0.129-0.664,0.28-1.313,0.454-1.943c0.262-1.007,0.632-1.968,0.898-2.956       c0.385-1.428,1.4-1.975,2.767-2.026c12.154-0.517,15.314,20.947,16.894,32.185L179.542,89.823z"/>
				</g>
				<g style="opacity:0.5;">
					<path style="fill:#FD8A02;" d="M185.799,352.781c3.941,28.025,4.357,68.979-12.199,93.292       c-14.324,21.035-44.514,25.192-65.099,0.892c-6.914-8.161-12.563-18.335-14.089-22.511c-0.139-0.379,0.285-0.858,0.703-0.77       c15.621,3.294,13.613,3.265,21.997,2.206c32.404-4.094,47.643-36.714,47.123-70.242c-0.089-5.714-0.602-7.501,1.717-8.127       c18.623-5.028,17.982-8.791,18.807-3.048c0.397,2.762,0.781,5.526,1.169,8.289       C185.885,352.769,185.842,352.775,185.799,352.781z"/>
					<path style="fill:#FD8A02;" d="M207.184,307.8c-2.6,11.854-8.032,23.832-18.798,29.663c-8.963,4.855-21.595,8.718-23.09,8.796       c-1.683,0.088-1.262-1.608-1.767-8.489c-1.908-25.958-2.088-48.373,12.136-70.599c3.245-5.071,6.879-9.785,11.179-14.004       c1.209-1.186,2.429-1.81,4.139-1.469c13.865,2.766,10.907-0.128,15.215,13.47C208.768,273.282,210.796,291.333,207.184,307.8z"/>
				</g>
				<path style="opacity:0.25;fill:#000E3F;" d="M214.094,187.607c3.106,22.09,0.817,45.531-13.504,62.29      c-1.031,1.206-2.086,1.716-3.769,1.393c-26.584-5.093-64.46,0.584-88.752,4.042c-24.629,3.507-46.178,9.363-60.609,14.927      c-2.979,1.148-8.597,3.883-9.33,4.181c-3.783,1.535,0.105-14.253,20.05-22.87c33.044-14.275,82.167-8.33,111.97-25.762      c8.017-4.689,15.153-9.383,19.667-17.456c18.098-32.37-5.275-57.531-7.516-70.916c-0.45-2.687-1.84-2.624-0.495-9.729      c0.49-2.59,4.186,1.422,6.729,3.961c11.844,11.83,21.864,30.089,25.5,55.947C214.054,187.613,214.074,187.61,214.094,187.607z"/>
				<path style="opacity:0.5;fill:#FFFFFF;" d="M70.404,346.412c-6.658-0.383-12.258-10.086-15.376-15.134      c-9.573-15.499-12.129-47.764-9.478-52.439c1.096-1.932,3.502-1.723,4.837,2.228c7.579,22.431,12.522,26.721,24.801,48.734      C79.841,338.147,80.245,346.979,70.404,346.412z"/>
				<g style="opacity:0.5;">
					<path style="fill:#FC09B2;" d="M181.127,103.969c0.084,1.605,0.145,3.618,0.241,6.171c0.027,0.623,0.071,2.233,0.143,4.183       c0.103,3.886,0.218,9.165,0.127,10.815c-0.011,0.062-0.023,0.124-0.017,0.164c-0.119,1.31-2.24-0.13-3.321-0.908       c-7.975-5.69-13.559-13.211-17.1-22.293c-2.772-7.068-2.216-7.57-3.351-11.897c-1.154-4.466-1.357-15.978,0.798-25.659       C159.98,76.769,166.924,89.637,181.127,103.969z"/>
					<path style="fill:#FC09B2;" d="M18.294,149.564c-0.403,0.441-0.841,0.482-1.052-0.297c-1.347-4.984-3.445-12.289-5.35-20.368       c9.217-16.959,12.596-30.874,11.223-42.788C33.817,106.596,34.001,132.339,18.294,149.564z"/>
				</g>
				<g>
					<path style="fill:#FC09B2;" d="M124.271,195.637c-0.716,7.275-5.65,14.295-11.551,16.742c-0.722,0.324-1.458,0.549-2.204,0.714       l0.003,0.02l-0.118,0.016l-0.003-0.02c-0.501,0.03-1.025,0.043-1.535,0.013c-6.599-0.365-13.709-5.934-16.5-12.999       c-2.151-5.518,1.304-12.714,9.883-9.333c3.702,1.46,4.665,2.557,5.429,2.531c0.742-0.186,1.364-1.506,4.521-3.93       C119.51,183.775,124.815,189.739,124.271,195.637z"/>
					<path style="fill:#FC09B2;" d="M153.109,114.814c-1.909,0.578-3.889-0.887-5.099-2.236c-2.39-2.665-8.48-11.275-4.669-15.021       C149.098,91.9,160.25,112.651,153.109,114.814z"/>
					<path style="fill:#FC09B2;" d="M32.363,154.83c1.179,1.609,0.453,3.963-0.418,5.552c-1.721,3.139-7.823,11.741-12.621,9.388       C12.078,166.215,27.953,148.81,32.363,154.83z"/>
				</g>
			</g>
			<g>
				<path style="fill:#000E3F;" d="M202.473,251.597c0.352-0.514,0.729-0.991,1.124-1.492      c25.493-32.425,15.149-96.352-17.586-123.904c-2.427-2.023-1.595-2.14-2.236-17.329c-0.386-9.506-0.489-21.88-4.492-34.96      c-1.784-5.792-4.012-12.007-8.363-15.639c-14.488-12.049-32.457,14.811-42.183,31.014c-6.514,10.88-4.971,10.36-7.862,9.917      c-16.493-2.45-34.233,0.024-46.597,5.097c-6.842,2.801-7.548,3.81-9.09,2.329C51.234,93.051,21.446,65.044,9.529,80.625      c-2.287,2.99-3.47,6.652-4.044,10.331c-2.084,13.632,3.732,41.776,8.231,54.361c2.123,5.906-2.116,5.936-7.311,19.581      c-12.056,31.688-6.329,71.546,10.798,95.331c11.657,16.206,18.088,14.514,16.355,17.567c-0.807,1.447-1.501,2.98-1.986,4.564      c-1.078,3.689-0.86,7.538-0.39,11.312c2.196,17.335,6.678,34.41,17.568,48.178c5.902,7.477,13.842,13.211,23.246,15.264      c2.999,0.629,1.299,3.637,4.253,15.873c2.373,9.833,5.822,33.499,18.303,57.29c14.13,26.894,37.071,44.303,64.729,31.44      c8.177-3.798,13.917-10.264,18.493-17.819c16.198-26.813,13.591-68.485,9.502-99.439c-0.315-2.239-0.856-3.356,1.068-4.333      c3.992-2.077,6.742-3.798,9.599-7.191c15.031-17.858,16.048-46.558,10.409-69.553      C205.939,253.535,201.056,253.595,202.473,251.597z M14.471,156.003c0.665-1.165,1.302-2.386,2.173-3.378      c1.643-1.827,1.839-3.735,1.115-6.018c-4.678-14.722-10.565-39.34-8.824-54.702c3.973-34.836,51.278,15.263,55.634,18.794      c0.984,0.811,1.988,0.913,3.155,0.304c15.799-8.083,35.556-11.023,53.306-8.264c6.035,0.95,1.392,1.845,16.746-21.333      c31.143-47.004,42.794-15.032,42.735,41.607c-0.001,6.75,6.223,4.157,17.962,22.96c19.504,31.191,22.615,79.481,0.666,103.91      c-1.588,1.779-2.566-1.579-26.927-1.63c-29.861-0.065-77.232,6.556-106.907,14.851c-6.302,1.756-12.55,3.746-18.578,6.291      c-2.712,1.129-5.299,2.564-8.013,3.673c-1.244,0.498-2.382,0.739-3.58-0.022C3.178,252.763-5.916,190.54,14.471,156.003z       M186.805,377.611c0.316,8.141,0.154,16.329-0.626,24.442c-0.862,9.095-2.473,18.194-5.397,26.871      c-3.977,11.817-10.588,23.013-21.611,28.99c-7.489,4.085-18.252,4.87-23.45,4.126c-36.628-5.217-52.906-64.348-57.83-101.227      c-0.337-2.54-0.141-2.87,1.897-2.611c20.568,2.544,57.205-2.527,76.226-6.96c26.715-6.202,27.128-10.303,27.764-7.219      C185.288,351.449,186.507,370.034,186.805,377.611z M207.917,290.89c-0.187,11.748-2.418,23.622-8.308,33.909      c-2.952,5.164-6.951,9.203-12.225,11.946c-24.947,13.027-83.709,22.159-114.121,17.018      c-25.693-4.35-38.226-40.725-38.899-67.208c-0.091-3.383,1.347-7.667,4.59-9.619c24.052-14.498,113.159-30.04,157.349-23.218      c3.718,0.568,6.188,3.333,7.624,6.648C206.699,266.848,208.054,282.948,207.917,290.89z"/>
				<path style="fill:#000E3F;" d="M143.164,214.161c0.112,1.945-2.708,8.91-8.319,12.993c-4.014,2.929-10.312,3.269-15.413-0.238      c-6.376-4.378-6.789-8.18-7.707-7.809c-0.838,0.361-0.279,3.334-4.932,9.485c-5.983,7.895-18.193,7.591-26.096-4.192      c-0.231-0.352-0.443-0.706-0.577-1.091c-0.284-0.728,0.165-1.701,0.939-2.092c2.263-1.147,3.803,5.488,10.199,8.287      c4.674,2.051,9.608,0.912,12.879-2.984c4.2-5.057,4.281-11.091,4.725-13.397c0.51,0.03,1.034,0.017,1.535-0.013l0.003,0.02      l0.118-0.016l-0.003-0.02c0.745-0.165,1.481-0.39,2.204-0.714c1.439,2.324,1.783,5.489,6.192,9.821      c4.832,4.757,11.196,5.459,16.444,0.093c3.129-3.189,4.055-7.382,4.806-8.942C140.871,211.937,143.056,212.236,143.164,214.161z      "/>
				<path style="fill:#000E3F;" d="M144.096,191.998c-4.737,0.893-9.569-3.499-10.007-7.452c-0.663-5.99,3.672-9.825,7.765-10.313      c4.799-0.572,9.437,3.027,10.047,7.764C152.408,185.925,149.512,191.452,144.096,191.998z"/>
				<path style="fill:#000E3F;" d="M70.615,184.708c3.803-0.943,9.267,2.45,9.862,7.714c0.449,3.965-2.437,9.524-7.726,9.993      c-5.694,0.505-9.349-3.111-10.089-7.976C62.019,190.216,65.594,184.936,70.615,184.708z"/>
				<g>
					<path style="fill:#000E3F;" d="M157.411,203.637c-0.691,0.097-1.404-0.227-1.769-0.871c-0.476-0.842-0.18-1.911,0.663-2.387       c0.998-0.564,24.686-13.794,48.468-12.349c0.965,0.059,1.702,0.889,1.642,1.854c-0.058,0.964-0.887,1.708-1.854,1.641       c-22.777-1.379-46.298,11.768-46.534,11.901C157.834,203.539,157.622,203.608,157.411,203.637z"/>
				</g>
				<g>
					<path style="fill:#000E3F;" d="M206.572,215.399c-0.294,0.041-0.605,0.008-0.9-0.111c-23.806-9.654-46.274-1.774-46.499-1.693       c-0.903,0.328-1.915-0.143-2.24-1.054c-0.327-0.91,0.143-1.914,1.055-2.241c0.963-0.349,23.968-8.411,49.001,1.741       c0.896,0.364,1.328,1.385,0.964,2.281C207.709,214.923,207.17,215.314,206.572,215.399z"/>
				</g>
				<g>
					<path style="fill:#000E3F;" d="M63.464,216.848c0.691-0.097,1.287-0.605,1.46-1.325c0.225-0.94-0.354-1.886-1.295-2.111       c-1.115-0.267-27.532-6.45-49.994,1.497c-0.912,0.323-1.391,1.323-1.067,2.235c0.321,0.911,1.323,1.397,2.234,1.066       c21.513-7.607,47.748-1.457,48.012-1.394C63.03,216.87,63.253,216.878,63.464,216.848z"/>
				</g>
				<g>
					<path style="fill:#000E3F;" d="M19.453,241.711c0.294-0.041,0.583-0.159,0.834-0.355c20.221-15.845,43.99-14.467,44.229-14.451       c0.959,0.066,1.801-0.666,1.863-1.63c0.064-0.965-0.666-1.8-1.632-1.864c-1.022-0.069-25.358-1.475-46.62,15.188       c-0.761,0.596-0.894,1.698-0.298,2.459C18.229,241.568,18.855,241.796,19.453,241.711z"/>
				</g>
			</g>
		</g>
		<g>
			<g>
				<path style="fill:#000E3F;" d="M252.238,89.657c4.202,11.963,5.086,25.064,8.922,37.045c-0.354,0.201-0.682,0.442-1.047,0.713      c-1.139,0.846-2.473,2.025-3.735,2.961c-0.327,0.24-0.651,0.483-1.009,0.684l-0.078,0.061      c-1.839-5.453-3.497-11.86-5.115-18.042l-0.059-0.08c-4.714-3.887-11.035-6.455-15.548-10.241      c1.102-0.813,2.142-1.964,3.323-2.838c0.651-0.485,1.333-0.926,2.154-1.095c2.31,2.009,7.259,5.279,9.745,6.591      c-0.35-2.769-2.601-8.355-3.252-11.279c0.825-0.929,2.638-2.398,4.061-3.453c0.651-0.485,1.251-0.866,1.608-1.067      L252.238,89.657z"/>
				<path style="fill:#000E3F;" d="M275.913,84.873c0.999,1.352,1.867,2.781,2.69,4.237c1.697,3.182,3.579,5.893,5.177,9.014      l0.737,1.507c1.108,2.119,1.919,4.53,1.906,6.851c-0.156,1.991-1.37,3.797-2.857,5.353c-1.316,1.448-2.908,2.535-4.677,3.43      c-2.514,1.229-5.127,2.105-7.56,0.44c-1.693-0.93-2.891-2.515-3.962-4.179c-2.906-4.399-6.016-8.738-8.475-13.474      c-1.534-2.625-2.74-5.688-2.201-8.801c0.117-0.487,0.266-0.933,0.524-1.386c2.681-4.177,8.105-7.353,12.993-6.821      c1.27,0.236,2.429,0.778,3.381,1.565C274.504,83.239,275.233,84.042,275.913,84.873z M273.497,93.101      c-0.027-0.043-1.026-1.394-1.675-2.365c-1.102-1.522-2.748-2.48-4.487-2.314c-1.46,0.233-2.522,1.411-3.012,2.658      c-0.522,1.386-0.61,2.803-0.221,4.224c0.864,2.5,2.32,4.996,3.922,7.345c1.54,1.851,2.812,4.044,4.532,5.609      c2.521,1.613,6.317-0.338,6.884-3.41c0.215-2.085-0.217-1.823-1.529-4.468c-0.664-1.196-1.2-2.175-1.278-2.304l-1.263-2.081      L273.497,93.101z"/>
				<path style="fill:#000E3F;" d="M307.654,90.972c1.378,4.276,0.213,8.619-4.005,11.086c-4.954,2.924-12.342,3.624-15.202-1.919      c-3.766-8.084-7.296-16.502-11.199-24.523l-0.066-0.025l0.045-0.022c1.884-0.878,4.511-2.435,6.585-2.785l0.02,0.045      c3.125,7.546,6.77,15.014,10.919,22.361c2.263,2.58,6.251,0.221,5.543-2.859c-3.102-7.499-6.807-15.219-9.941-22.427      c1.636-0.928,4.894-3.172,6.772-2.983C301.149,74.604,304.847,82.664,307.654,90.972z"/>
				<path style="fill:#000E3F;" d="M310.2,73.222c-0.524,0.195-4.789,2.537-5.097,2.001c-0.205-2.303-1.157-11.84-1.302-12.814      c-0.027,0.066,4.05-1.611,5.351-2.04l0.018,0.047c0.596,6.266,0.985,7.744,1.087,12.677c0,0,0.02,0.047-0.012,0.114      L310.2,73.222z"/>
				<path style="fill:#000E3F;" d="M346.534,86.665c-2.298,0.626-5.105,1.704-8.094,2.306l-0.049,0.014      c-2.083-2.636-6.418-7.761-10.138-10.427l-0.135-0.119c0.407,3.041,2.664,9.413,3.489,11.865      c-1.949,1.529-7.767,2.535-8.363,2.854c0.391-0.105-8.264-30.949-9.643-34.092c3.524-1.536,7.787-3.432,12.675-4.184      c7.837-1.712,15.128,5.392,12.917,13.294c-0.584,2.681-2.124,4.939-5.201,5.984l-0.197,0.053l-0.047,0.014l0.014,0.051      c4.055,4.095,9.303,7.552,12.722,12.401L346.534,86.665z M324.485,69.919l0.049-0.014c1.556-0.266,3.442-0.674,4.941-1.343      c2.347-1.218,1.478-5.183-0.717-6.11c-1.779-0.934-4.106-0.039-6.153,1.517C323.205,65.592,323.842,68.518,324.485,69.919z"/>
				<path style="fill:#000E3F;" d="M367.62,76.683c0.483,2.13,0.852,4.534,0.612,6.624c-6.817,1.001-14.006,2.623-20.549,3.07      c-1.794-11.619-4.12-22.697-5.242-34.268c7.703-1.599,20.643-3.804,20.69-3.502c0.714,2.3,0.735,4.759,1.099,7.112l0.008,0.049      c-4.112,1.61-8.684,1.548-13.03,2.628l-0.151,0.024l-0.041,0.057c0.35,1.947,0.225,4.12,0.956,5.854l0.057,0.043      c2.027-0.158,4.12-0.534,6.184-0.801l0.008,0.049c0.7,2.201,0.747,4.499,1.174,6.948c-1.97,0.866-5.359,0.827-5.975,1.485      c-0.051,2.009,0.571,4.681,0.968,6.26l0.055,0.043c4.41-0.68,8.629-0.921,13.163-1.775L367.62,76.683z"/>
				<path style="fill:#000E3F;" d="M390.736,55.9c-0.215,0.348-0.913,9.808-0.651,14.43c0.141,1.98,0.784,4.13,2.74,4.749      c1.464,0.197,2.951-0.315,3.653-1.661c0.807-1.548,0.409-3.334,0.813-4.994c1.919,0.313,4.871-0.104,6.778,0.514      c2.062,7.06-2.936,14.51-10.335,14.432c-4.831,0.508-10.906-1.403-11.287-7.093c-0.104-4.87,0.01-10.089,0.5-21.024      c-0.115-1.171,0.227-2.377,0.664-3.377c0.663-1.753,1.618-3.194,2.92-4.319c0.778-0.534,1.65-0.862,2.621-1.087      c9.364-2.75,18.722,6.059,15.188,15.329c-2.498,0.479-4.818,0.104-7.388-0.434c-0.322-2.695,0.62-6.874-3.336-6.847      c-0.866,0.125-1.982,0.191-2.556,0.733C390.902,55.399,390.79,55.749,390.736,55.9z"/>
				<path style="fill:#000E3F;" d="M431.103,59.904c-0.099,1.675-0.35,3.328-0.649,4.976c-0.737,3.526-1.028,6.813-1.802,10.232      l-0.399,1.632c-0.504,2.332-1.429,4.702-2.926,6.475c-1.396,1.428-3.485,2.036-5.623,2.277c-1.937,0.272-3.854,0.084-5.785-0.36      c-2.719-0.666-5.281-1.669-6.086-4.507c-0.7-1.796-0.606-3.78-0.362-5.742c0.586-5.242,0.979-10.562,2.124-15.769      c0.504-3,1.538-6.123,3.948-8.168c0.404-0.297,0.801-0.545,1.29-0.729c4.734-1.487,10.931-0.449,14.344,3.088      c0.823,0.997,1.364,2.154,1.591,3.368C431.07,57.746,431.109,58.829,431.103,59.904z M423.979,64.671      c0.008-0.051,0.106-1.726,0.229-2.887c0.129-1.876-0.524-3.666-1.962-4.652c-1.269-0.756-2.838-0.532-4.014,0.112      c-1.288,0.727-2.263,1.759-2.875,3.102c-0.938,2.47-1.417,5.32-1.693,8.148c-0.006,2.408-0.432,4.906-0.113,7.208      c0.901,2.852,5.066,3.788,7.466,1.792c1.503-1.464,1.003-1.538,1.691-4.405c0.254-1.347,0.473-2.441,0.494-2.592l0.362-2.404      L423.979,64.671z"/>
				<path style="fill:#000E3F;" d="M457.129,66.921c-0.309,1.649-0.768,3.258-1.27,4.853c-1.179,3.407-1.884,6.632-3.08,9.925      l-0.604,1.569c-0.797,2.248-2.011,4.488-3.719,6.055c-1.563,1.243-3.713,1.581-5.867,1.55c-1.956,0.024-3.835-0.404-5.695-1.09      c-2.613-1.005-5.029-2.322-5.468-5.238c-0.467-1.87-0.123-3.829,0.367-5.744c1.243-5.125,2.306-10.355,4.098-15.378      c0.88-2.912,2.301-5.881,4.949-7.603c0.44-0.246,0.866-0.442,1.372-0.561c4.886-0.878,10.902,0.934,13.843,4.876      c0.688,1.093,1.081,2.308,1.153,3.542C457.367,64.775,457.274,65.854,457.129,66.921z M449.458,70.748      c0.014-0.047,0.324-1.699,0.594-2.832c0.365-1.847-0.057-3.706-1.358-4.865c-1.165-0.909-2.752-0.885-3.999-0.396      c-1.368,0.559-2.466,1.46-3.244,2.715c-1.243,2.334-2.08,5.099-2.709,7.871c-0.309,2.388-1.048,4.812-1.024,7.136      c0.534,2.944,4.546,4.399,7.185,2.725c1.673-1.263,1.187-1.401,2.232-4.159c0.422-1.304,0.774-2.361,0.817-2.51l0.663-2.34      L449.458,70.748z"/>
				<path style="fill:#000E3F;" d="M470.02,101.259c-1.247-0.694-3.524-1.167-18.448-7.777l0.359-0.84      c6.501-13.759,8.348-18.757,13.726-31.946c1.478,0.021,5.948,1.81,7.406,3.309c-3.661,7.972-7.122,17.295-10.669,25.259      l-0.02,0.047c1.372,0.143,10.394,4.962,11.965,5.41c-0.139,0.328-0.297,0.7-0.482,1.007c-0.305,0.588-0.647,1.268-0.819,1.8      C471.369,102.105,471.33,101.814,470.02,101.259z"/>
				<path style="fill:#000E3F;" d="M472.667,102.783c-0.403-0.213,2.032-3.512,2.912-5.169l0.023-0.043      c1.743,0.176,3.766,1.88,5.514,2.806c-0.924,1.634-2.058,3.557-2.984,5.302l-0.315-0.166c-0.715-0.379-1.004-0.59-1.677-0.946      l-0.088-0.049L472.667,102.783z M489.311,71.385c1.638,0.698,4.161,1.462,5.556,2.832c-4.196,7.589-8.814,15.868-12.516,23.717      c-1.661-0.651-4.124-1.958-5.895-2.838l-0.045-0.023c4.312-7.814,7.953-15.866,12.765-23.758L489.311,71.385z"/>
			</g>
		</g>
	</g>
</g>















</svg>
