<svg width="9" height="9" viewBox="0 0 9 9" fill="none" xmlns="http://www.w3.org/2000/svg">
<g clip-path="url(#clip0_11986_3727)">
<path d="M5.32454 4.50737L8.82896 1.00284C9.05702 0.774886 9.05702 0.406314 8.82896 0.178359C8.601 -0.0495959 8.23243 -0.0495959 8.00448 0.178359L4.49995 3.68289L0.995528 0.178359C0.767466 -0.0495959 0.399001 -0.0495959 0.171046 0.178359C-0.0570154 0.406314 -0.0570154 0.774886 0.171046 1.00284L3.67547 4.50737L0.171046 8.0119C-0.0570154 8.23985 -0.0570154 8.60842 0.171046 8.83638C0.28465 8.95009 0.434022 9.00721 0.583287 9.00721C0.732552 9.00721 0.881818 8.95009 0.995528 8.83638L4.49995 5.33185L8.00448 8.83638C8.11819 8.95009 8.26745 9.00721 8.41672 9.00721C8.56598 9.00721 8.71525 8.95009 8.82896 8.83638C9.05702 8.60842 9.05702 8.23985 8.82896 8.0119L5.32454 4.50737Z" fill="#2A41E8"/>
</g>
<defs>
<clipPath id="clip0_11986_3727">
<rect width="9" height="9" fill="white"/>
</clipPath>
</defs>
</svg>
