<svg width="17" height="17" viewBox="0 0 17 17" fill="none" xmlns="http://www.w3.org/2000/svg">
<path d="M8.5 0C3.80206 0 0 3.80163 0 8.5C0 13.1979 3.80163 17 8.5 17C13.1979 17 17 13.1984 17 8.5C17 3.80212 13.1984 0 8.5 0ZM8.5 15.814C4.46708 15.814 1.18605 12.533 1.18605 8.5C1.18605 4.46705 4.46708 1.18605 8.5 1.18605C12.5329 1.18605 15.814 4.46705 15.814 8.5C15.814 12.533 12.5329 15.814 8.5 15.814Z" fill="black"/>
<path d="M8.50019 7.08545C7.9967 7.08545 7.63867 7.29808 7.63867 7.61135V11.8742C7.63867 12.1427 7.9967 12.4112 8.50019 12.4112C8.98131 12.4112 9.37287 12.1427 9.37287 11.8742V7.61129C9.37287 7.29805 8.98131 7.08545 8.50019 7.08545Z" fill="black"/>
<path d="M8.50044 4.45618C7.98576 4.45618 7.58301 4.8254 7.58301 5.25056C7.58301 5.67576 7.9858 6.05617 8.50044 6.05617C9.00394 6.05617 9.40676 5.67576 9.40676 5.25056C9.40676 4.8254 9.0039 4.45618 8.50044 4.45618Z" fill="black"/>
</svg>
