<svg width="16" height="16" viewBox="0 0 16 16" fill="none" xmlns="http://www.w3.org/2000/svg">
<path d="M9.88084 2.67133L1.07744 11.4754C1.03311 11.5199 1.00152 11.5754 0.985957 11.6362L0.0101511 15.5528C-0.00420055 15.6109 -0.00332104 15.6717 0.0127047 15.7294C0.0287304 15.7871 0.0593607 15.8397 0.101637 15.8821C0.166573 15.9468 0.254493 15.9832 0.346173 15.9832C0.374455 15.9832 0.402629 15.9797 0.430057 15.9728L4.34663 14.9969C4.40753 14.9816 4.46312 14.95 4.50745 14.9056L13.3117 6.10208L9.88084 2.67133ZM15.4926 1.4709L14.5127 0.490973C13.8577 -0.163983 12.7162 -0.163333 12.062 0.490973L10.8616 1.6914L14.2922 5.12202L15.4926 3.92163C15.8198 3.5946 16 3.1593 16 2.69635C16 2.2334 15.8198 1.79809 15.4926 1.4709Z" fill="#050505"/>
</svg>
