<svg width="16" height="19" viewBox="0 0 16 19" fill="none" xmlns="http://www.w3.org/2000/svg">
<path d="M0.230469 5.12109V4.21875C0.230469 3.57031 0.371094 2.98047 0.652344 2.44922C0.933594 1.91797 1.33594 1.49219 1.85938 1.17188C2.38281 0.851563 3.00391 0.691406 3.72266 0.691406C4.45703 0.691406 5.08203 0.851563 5.59766 1.17188C6.12109 1.49219 6.52344 1.91797 6.80469 2.44922C7.08594 2.98047 7.22656 3.57031 7.22656 4.21875V5.12109C7.22656 5.75391 7.08594 6.33594 6.80469 6.86719C6.53125 7.39844 6.13281 7.82422 5.60938 8.14453C5.09375 8.46484 4.47266 8.625 3.74609 8.625C3.01953 8.625 2.39062 8.46484 1.85938 8.14453C1.33594 7.82422 0.933594 7.39844 0.652344 6.86719C0.371094 6.33594 0.230469 5.75391 0.230469 5.12109ZM1.85938 4.21875V5.12109C1.85938 5.48047 1.92578 5.82031 2.05859 6.14062C2.19922 6.46094 2.41016 6.72266 2.69141 6.92578C2.97266 7.12109 3.32422 7.21875 3.74609 7.21875C4.16797 7.21875 4.51562 7.12109 4.78906 6.92578C5.0625 6.72266 5.26562 6.46094 5.39844 6.14062C5.53125 5.82031 5.59766 5.48047 5.59766 5.12109V4.21875C5.59766 3.85156 5.52734 3.50781 5.38672 3.1875C5.25391 2.85938 5.04688 2.59766 4.76562 2.40234C4.49219 2.19922 4.14453 2.09766 3.72266 2.09766C3.30859 2.09766 2.96094 2.19922 2.67969 2.40234C2.40625 2.59766 2.19922 2.85938 2.05859 3.1875C1.92578 3.50781 1.85938 3.85156 1.85938 4.21875ZM8.53906 14.7305V13.8164C8.53906 13.1758 8.67969 12.5898 8.96094 12.0586C9.24219 11.5273 9.64453 11.1016 10.168 10.7812C10.6914 10.4609 11.3125 10.3008 12.0312 10.3008C12.7656 10.3008 13.3906 10.4609 13.9062 10.7812C14.4297 11.1016 14.832 11.5273 15.1133 12.0586C15.3945 12.5898 15.5352 13.1758 15.5352 13.8164V14.7305C15.5352 15.3711 15.3945 15.957 15.1133 16.4883C14.8398 17.0195 14.4414 17.4453 13.918 17.7656C13.4023 18.0859 12.7812 18.2461 12.0547 18.2461C11.3281 18.2461 10.7031 18.0859 10.1797 17.7656C9.65625 17.4453 9.25 17.0195 8.96094 16.4883C8.67969 15.957 8.53906 15.3711 8.53906 14.7305ZM10.168 13.8164V14.7305C10.168 15.0898 10.2344 15.4336 10.3672 15.7617C10.5078 16.082 10.7188 16.3438 11 16.5469C11.2812 16.7422 11.6328 16.8398 12.0547 16.8398C12.4766 16.8398 12.8242 16.7422 13.0977 16.5469C13.3789 16.3438 13.5859 16.082 13.7188 15.7617C13.8516 15.4414 13.918 15.0977 13.918 14.7305V13.8164C13.918 13.4492 13.8477 13.1055 13.707 12.7852C13.5742 12.4648 13.3672 12.207 13.0859 12.0117C12.8125 11.8086 12.4609 11.707 12.0312 11.707C11.6172 11.707 11.2695 11.8086 10.9883 12.0117C10.7148 12.207 10.5078 12.4648 10.3672 12.7852C10.2344 13.1055 10.168 13.4492 10.168 13.8164ZM12.5703 3.36328L4.23828 16.6992L3.01953 15.9258L11.3516 2.58984L12.5703 3.36328Z" fill="#050505"/>
</svg>
