<svg width="20" height="20" viewBox="0 0 20 20" fill="none" xmlns="http://www.w3.org/2000/svg">
<mask id="mask0_12321_23916" style="mask-type:luminance" maskUnits="userSpaceOnUse" x="0" y="0" width="20" height="20">
<path d="M20 0H0V20H20V0Z" fill="white"/>
</mask>
<g mask="url(#mask0_12321_23916)">
<path d="M10 20C15.5229 20 20 15.5229 20 10C20 4.47715 15.5229 0 10 0C4.47715 0 0 4.47715 0 10C0 15.5229 4.47715 20 10 20Z" fill="#FF2147"/>
<path d="M9.99972 12C9.63758 12 9.28949 11.8598 9.02838 11.6089C8.76726 11.358 8.61337 11.0158 8.59894 10.6539L8.41417 5.98829C8.40675 5.79969 8.4375 5.61155 8.50455 5.43513C8.5716 5.2587 8.67359 5.09762 8.80439 4.96157C8.93521 4.82551 9.09213 4.71727 9.26578 4.64332C9.43943 4.56939 9.62622 4.53126 9.81496 4.53125H10.1845C10.3732 4.53126 10.56 4.56939 10.7337 4.64332C10.9073 4.71727 11.0642 4.82551 11.195 4.96157C11.3258 5.09762 11.4278 5.2587 11.4949 5.43513C11.5619 5.61155 11.5927 5.79969 11.5853 5.98829L11.4005 10.6539C11.3861 11.0158 11.2322 11.358 10.9711 11.6089C10.7099 11.8598 10.3619 12 9.99972 12Z" fill="white"/>
<path d="M11.3988 14.0693C11.3988 13.2963 10.7722 12.6697 9.99922 12.6697C9.22623 12.6697 8.59961 13.2963 8.59961 14.0693C8.59961 14.8423 9.22623 15.4689 9.99922 15.4689C10.7722 15.4689 11.3988 14.8423 11.3988 14.0693Z" fill="white"/>
</g>
</svg>
