<svg width="18" height="18" viewBox="0 0 18 18" fill="none" xmlns="http://www.w3.org/2000/svg">
<path d="M14.2724 6.40071C14.2758 6.24486 14.2306 6.09181 14.1431 5.96285C14.0555 5.83388 13.9299 5.7354 13.7837 5.68111C13.6376 5.62681 13.4782 5.6194 13.3277 5.65989C13.1771 5.70039 13.043 5.78678 12.9438 5.90706L9.0122 10.4964L5.08195 5.90706C5.0208 5.82386 4.94316 5.75418 4.85383 5.70238C4.7645 5.65059 4.66541 5.61779 4.56282 5.60606C4.46023 5.59432 4.35635 5.60389 4.25763 5.63417C4.15891 5.66445 4.06748 5.71479 3.98911 5.78203C3.91075 5.84927 3.84718 5.93197 3.80226 6.02495C3.75734 6.11792 3.7321 6.21917 3.72812 6.32235C3.72414 6.42554 3.74145 6.52843 3.77908 6.62459C3.8167 6.72075 3.87377 6.8081 3.94672 6.88118L8.44238 12.1356C8.5128 12.2181 8.6002 12.2844 8.6987 12.3298C8.7972 12.3752 8.90442 12.3987 9.01289 12.3987C9.12137 12.3987 9.22858 12.3752 9.32708 12.3298C9.42559 12.2844 9.51307 12.2181 9.58349 12.1356L14.0835 6.88118C14.2014 6.74845 14.2684 6.5782 14.2726 6.40071H14.2724Z" fill="#050505"/>
</svg>
