<?xml version="1.0" encoding="UTF-8"?>
<!-- Generator: Adobe Illustrator 25.2.1, SVG Export Plug-In . SVG Version: 6.00 Build 0)  -->
<svg xmlns="http://www.w3.org/2000/svg" xmlns:xlink="http://www.w3.org/1999/xlink" version="1.1" id="Capa_1" x="0px" y="0px" viewBox="0 0 512 512" style="enable-background:new 0 0 512 512;" xml:space="preserve" width="512" height="512">
<g>
	<path style="fill:#FFFFFF;" d="M478.437,258.317c-3.046-4.592-6.39-8.953-10.006-13.053l5.472-1.949   c3.283-1.17,5.956-3.616,7.411-6.783c1.456-3.17,1.57-6.79,0.318-10.044l-9.111-23.671c-1.387-3.603-4.311-6.396-7.971-7.619   c-1.337-0.446-2.719-0.667-4.098-0.667c-2.395,0-4.773,0.665-6.853,1.966l-28.491,17.801c-6.913-2.873-14.111-5.074-21.447-6.614   c0.073-0.117,0.158-0.224,0.229-0.342c3.205-5.329,4.144-11.586,2.642-17.622c-2.587-10.399-11.875-17.663-22.585-17.663   c-0.532,0-1.062,0.061-1.594,0.098c1.416-1.186,2.835-2.369,4.227-3.571c5.853-5.037,6.52-13.897,1.461-19.782   c-0.069-0.08-0.148-0.149-0.219-0.227l0.469-0.461c2.679-2.629,4.171-6.142,4.201-9.896c0.027-3.73-1.396-7.251-3.984-9.892   c-2.618-2.683-6.27-4.224-10.02-4.224c-3.081,0-6.013,1.004-8.457,2.858c-2.466-1.968-5.541-3.081-8.732-3.081   c-3.494,0-6.838,1.294-9.41,3.631c-2.629,2.384-4.934,4.717-7.056,6.946c0.781-1.878,1.135-3.937,0.963-6.028   c-0.364-4.405-2.955-8.32-6.868-10.378l-18.553-9.759c-1.653-0.869-3.451-1.335-5.267-1.441l-1.853-14.66l27.763-22.368   c4.218-3.397,5.87-9.065,4.14-14.198c-1.728-5.133-6.474-8.644-11.889-8.798l-32.202-0.909l-4.365-34.601   c-0.768-6.079-5.697-10.787-11.805-11.272C284.548,0.013,284.205,0,283.862,0c-5.697,0-10.784,3.757-12.405,9.306l-10.755,36.833   l-34.016,7.192c-3.338,0.705-6.169,2.673-8.004,5.359c-13.874-5.548-28.815-8.452-44.201-8.452c-10.66,0-21.213,1.408-31.375,4.188   c-3.723,1.023-7.39,2.216-10.894,3.551c-39.061,14.855-66.656,48.176-74.445,88.016l-15.164-9.475   c-2.079-1.301-4.458-1.966-6.853-1.966c-1.379,0-2.761,0.221-4.098,0.667c-3.66,1.223-6.583,4.016-7.97,7.619l-9.111,23.671   c-1.252,3.254-1.139,6.874,0.318,10.041c1.454,3.17,4.127,5.615,7.411,6.785l20.205,7.198l-6.994,4.289   c-4.601,2.822-6.964,8.206-5.929,13.504c1.036,5.298,5.253,9.393,10.578,10.275l28.375,4.7   c10.269,20.133,25.804,36.549,44.63,47.847l-9.503,6.772l-24.351-24.966c-2.507-2.57-5.868-3.902-9.261-3.902   c-2.399,0-4.814,0.665-6.954,2.031c-5.165,3.298-7.307,9.768-5.129,15.495l13.636,35.866L48.81,328.698   c-3.7,4.26-4.209,10.425-1.261,15.236c2.387,3.896,6.598,6.175,11.022,6.173c1.038,0,2.086-0.124,3.125-0.383l16.282-4.052   l4.856,26.172c1.05,5.666,5.723,9.953,11.458,10.513c0.423,0.042,0.844,0.061,1.263,0.061c5.251,0,10.041-3.199,12.011-8.158   l10.974-27.626l32.934,4.352c0.568,0.076,1.136,0.112,1.699,0.112c0.231,0,0.456-0.036,0.686-0.048   c-0.126,4.858,0.525,9.629,1.878,14.158c-7.004,6.985-13.815,14.317-20.249,21.834c-2.433,2.844-3.614,6.461-3.323,10.191   c0.288,3.732,2.014,7.129,4.858,9.562c0.084,0.072,0.183,0.121,0.269,0.192l-0.421,0.562c-4.613,6.169-3.359,14.956,2.814,19.597   c2.408,1.806,5.392,2.801,8.404,2.801c3.774,0,7.401-1.56,10.034-4.251c2.118,1.219,4.531,1.888,6.991,1.888   c4.251,0,8.223-1.896,10.864-5.165c3.574-4.39,6.411-8.577,8.932-12.298c2.056-3.035,3.997-5.902,6.055-8.425   c1.065-1.317,1.836-2.776,2.351-4.297c2.03,0.276,4.074,0.426,6.116,0.426c12.594,0,24.703-5.386,33.239-14.447   c0.324-0.027,0.646-0.061,0.96-0.101c3.066-0.313,5.936-0.738,8.634-1.266c0.02,0.127,0.018,0.253,0.041,0.38l5.582,29.764   c0.814,4.344,3.791,7.971,7.893,9.618c1.555,0.623,3.189,0.93,4.816,0.93c0.208,0,0.413-0.038,0.62-0.048   c-2.207,2.574-4.445,5.232-6.66,7.943c-21.173,25.907-33.048,45.956-22.106,59.704l0.328,0.4c0.259,0.33,0.522,0.657,0.783,0.962   C244.793,505.347,255.561,512,266.475,512c5.729,0,14.177-1.922,21.882-11.06c9.947-11.767,32.248-45.672,40.958-59.053   l24.484-1.665c8.416,1.848,17.029,2.782,25.633,2.782c23.379,0,46.07-6.853,65.622-19.82   c26.479-17.562,44.533-44.384,50.837-75.529C502.193,316.516,495.994,284.788,478.437,258.317z M362.396,204.131   c0.284,0.7,0.594,1.384,0.94,2.044c-0.503,0.068-1.009,0.121-1.511,0.195C362.048,205.627,362.214,204.878,362.396,204.131z"/>
	<g>
		<g>
			<path style="fill:#CB6BE5;" d="M282.33,168.448c0,42.91-25.496,79.85-62.156,96.553c-0.022,0-0.022,0.022-0.043,0.022     c-3.19,1.444-6.466,2.737-9.828,3.879c-0.086,0.022-0.151,0.043-0.215,0.065c-10.604,3.556-21.962,5.496-33.772,5.496     c-58.557,0-106.036-47.458-106.036-106.014c0-45.281,28.406-83.924,68.363-99.118c3.168-1.207,6.423-2.263,9.72-3.168     c8.901-2.435,18.276-3.728,27.953-3.728C234.851,62.434,282.33,109.891,282.33,168.448z"/>
			<path style="fill:#FFECDF;" d="M181.445,272.351c-58.32,0-105.756-47.436-105.756-105.734c0-46.768,30.518-86.532,72.673-100.454     c-3.297,0.905-6.552,1.961-9.72,3.168c-37.35,16.487-63.492,53.902-63.492,97.286c0,58.6,47.695,106.273,106.295,106.273     c9.914,0,19.526-1.358,28.643-3.923c0.065-0.022,0.129-0.043,0.215-0.065c3.362-1.142,6.638-2.435,9.828-3.879     C208.148,269.743,195.087,272.351,181.445,272.351z"/>
			<path style="fill:#FFC279;" d="M233.946,369.701c-0.28,0.043-0.582,0.065-0.884,0.086c-0.215,0.022-0.409,0.043-0.625,0.065     c-16.875,1.466-35.216-85.842-35.216-85.842l-38.147-11.013l4.957-1.508l0.905-0.28l84.01-25.733l-16.509,28.987     c0,0,23.47,53.557,28.6,71.165C266.037,362.719,250.304,368.064,233.946,369.701z"/>
			<path style="fill:#FFECDF;" d="M233.946,369.701c-0.28,0.043-0.582,0.065-0.884,0.086     c-18.018-11.379-34.203-82.954-35.324-87.975l-33.707-10.323l-0.258-0.086c-0.151-0.043-0.237-0.194-0.173-0.345     c0.043-0.129,0.173-0.216,0.323-0.173l1.013,0.323l33.104,10.129c0.086,0.043,0.172,0.108,0.194,0.194     C198.407,282.394,215.67,359.615,233.946,369.701z"/>
			<g>
				<path style="fill:#FFECDF;" d="M219.718,87.301c-0.136,1.075-0.056,2.194,0.135,3.264c1.358,7.634,7.955,14.177,14.793,17.358      c2.086,0.97,4.354,1.687,6.651,1.559c3.186-0.178,5.914-1.942,6.014-5.267c0.052-1.722-0.701-3.362-1.541-4.866      c-4.026-7.218-10.731-13.63-18.678-16.262c-2.546-0.843-5.291-0.685-6.693,1.974C220.031,85.761,219.817,86.519,219.718,87.301z      "/>
				<circle style="fill:#FFECDF;" cx="252.792" cy="117.09" r="5.503"/>
			</g>
		</g>
		<g>
			<path style="fill:#FD5D80;" d="M439.742,411.674c-35.76,23.717-80.637,22.888-114.819,1.568c-0.012-0.018-0.03-0.006-0.042-0.024     c-2.966-1.86-5.855-3.875-8.665-6.046c-0.066-0.06-0.119-0.102-0.173-0.144c-8.824-6.871-16.719-15.264-23.246-25.107     c-32.366-48.799-19.059-114.598,29.74-146.964c37.735-25.028,85.639-22.714,120.387,2.187c2.757,1.973,5.436,4.102,8.013,6.349     c6.949,6.072,13.209,13.17,18.557,21.234C501.848,313.51,488.541,379.308,439.742,411.674z"/>
			<path style="fill:#FFECDF;" d="M297.391,385.029c-32.235-48.602-18.922-114.352,29.662-146.575     c38.975-25.85,88.98-22.396,123.883,5.041c-2.577-2.248-5.256-4.376-8.013-6.349c-34.384-22.013-80.013-23.12-116.169,0.86     c-48.835,32.39-62.202,98.487-29.813,147.322c5.48,8.262,11.924,15.522,19.1,21.702c0.054,0.042,0.107,0.084,0.173,0.144     c2.81,2.17,5.699,4.186,8.665,6.046C314.324,405.841,304.932,396.398,297.391,385.029z"/>
			<path style="fill:#FFC279;" d="M245.281,482.589c-0.191-0.21-0.376-0.449-0.56-0.689c-0.137-0.168-0.262-0.318-0.399-0.485     c-10.549-13.253,52.073-76.794,52.073-76.794l-11.907-37.878l3.997,3.297l0.734,0.599l67.879,55.788l-33.282,2.264     c0,0-31.66,49.161-43.499,63.168C268.838,505.473,255.688,495.316,245.281,482.589z"/>
			<path style="fill:#FFECDF;" d="M245.281,482.589c-0.191-0.21-0.376-0.449-0.56-0.689c-0.475-21.305,50.226-74.354,53.792-78.064     l-10.028-33.797l-0.071-0.263c-0.047-0.15,0.031-0.305,0.192-0.334c0.132-0.036,0.275,0.024,0.322,0.174l0.29,1.023l9.856,33.187     c0.012,0.095,0.006,0.203-0.054,0.269C298.397,404.715,243.585,461.784,245.281,482.589z"/>
			<g>
				<path style="fill:#FFECDF;" d="M472.76,314.644c-0.971,0.481-1.859,1.166-2.646,1.917c-5.612,5.351-7.418,14.465-6.289,21.922      c0.344,2.275,1.001,4.561,2.377,6.404c1.909,2.556,4.887,3.855,7.713,2.101c1.464-0.909,2.414-2.443,3.204-3.974      c3.79-7.345,5.428-16.476,3.229-24.554c-0.705-2.588-2.354-4.788-5.344-4.487C474.216,314.053,473.466,314.294,472.76,314.644z"/>
				<path style="fill:#FFECDF;" d="M469.257,363.257c-2.533,1.68-5.948,0.988-7.627-1.544c-1.68-2.532-0.988-5.947,1.544-7.627      c2.533-1.68,5.948-0.988,7.627,1.544C472.481,358.163,471.79,361.577,469.257,363.257z"/>
			</g>
		</g>
		<g>
			<polygon style="fill:#FFC279;" points="88.274,304.347 71.888,261.25 103.977,294.149 139.238,269.021 128.83,310.609      155.004,337.432 112.079,331.76 97.382,368.754 90.023,329.071 60.407,336.441    "/>
			<polygon style="fill:#FFC279;" points="272.781,56.456 285.704,12.197 291.457,57.793 334.738,59.016 301.354,85.912      306.053,123.094 275.235,92.68 241.2,113.324 259.264,77.233 231.196,65.249    "/>
		</g>
		<g>
			<g>
				
					<ellipse transform="matrix(0.8557 -0.5174 0.5174 0.8557 -152.8391 154.8395)" style="fill:#FFECDF;" cx="201.251" cy="351.503" rx="32.649" ry="32.649"/>
				<g>
					<path style="fill:#EEA6FF;" d="M204.777,327.329c-0.156,0.609-1.361,0.828-2.69,0.488c-1.33-0.34-2.282-1.11-2.126-1.719       c0.156-0.61,1.36-0.828,2.69-0.488C203.981,325.949,204.933,326.719,204.777,327.329z"/>
					<path style="fill:#EEA6FF;" d="M210.236,325.252c-0.156,0.61-1.361,0.828-2.69,0.488c-1.33-0.34-2.282-1.11-2.126-1.72       c0.156-0.61,1.36-0.828,2.69-0.488C209.44,323.873,210.392,324.643,210.236,325.252z"/>
					<path style="fill:#EEA6FF;" d="M212.752,329.647c-0.156,0.61-1.36,0.828-2.69,0.488c-1.33-0.34-2.282-1.11-2.126-1.719       c0.156-0.61,1.361-0.828,2.69-0.488C211.956,328.268,212.908,329.038,212.752,329.647z"/>
					<path style="fill:#EEA6FF;" d="M207.262,332.723c-0.156,0.61-1.361,0.828-2.69,0.488c-1.33-0.34-2.282-1.11-2.126-1.719       c0.156-0.61,1.361-0.828,2.691-0.488C206.466,331.344,207.418,332.114,207.262,332.723z"/>
					<path style="fill:#EEA6FF;" d="M202.789,336.9c-0.156,0.61-1.36,0.828-2.69,0.488c-1.33-0.34-2.282-1.11-2.126-1.719       c0.156-0.61,1.36-0.828,2.69-0.488C201.993,335.52,202.944,336.29,202.789,336.9z"/>
					<path style="fill:#EEA6FF;" d="M210.995,337.654c-0.156,0.61-1.36,0.828-2.69,0.488c-1.33-0.34-2.282-1.11-2.126-1.719       c0.156-0.61,1.36-0.828,2.69-0.488C210.199,336.274,211.151,337.044,210.995,337.654z"/>
					<path style="fill:#EEA6FF;" d="M215.999,335.125c-0.156,0.61-1.361,0.828-2.691,0.488c-1.33-0.34-2.282-1.11-2.126-1.72       c0.156-0.61,1.361-0.828,2.691-0.488C215.203,333.746,216.155,334.516,215.999,335.125z"/>
					<path style="fill:#EEA6FF;" d="M199.18,330.825c-0.156,0.61-1.36,0.828-2.69,0.488c-1.33-0.34-2.282-1.11-2.126-1.719       c0.156-0.61,1.36-0.828,2.69-0.488C198.384,329.446,199.336,330.216,199.18,330.825z"/>
				</g>
			</g>
			<g>
				<path style="fill:#FFECDF;" d="M147.964,396.496c-0.249,0-0.497-0.085-0.701-0.26c-0.453-0.386-0.505-1.067-0.117-1.518      c6.509-7.606,13.412-15.028,20.517-22.061c0.425-0.421,1.106-0.414,1.525,0.007c0.419,0.423,0.416,1.106-0.007,1.525      c-7.064,6.992-13.926,14.371-20.4,21.931C148.569,396.368,148.268,396.496,147.964,396.496z"/>
				<path style="fill:#FFECDF;" d="M149.922,416.28c-0.226,0-0.451-0.069-0.646-0.215c-0.475-0.358-0.573-1.032-0.217-1.509      l24.256-32.389c0.356-0.477,1.03-0.575,1.51-0.217c0.475,0.358,0.573,1.032,0.217,1.51l-24.256,32.389      C150.573,416.131,150.25,416.28,149.922,416.28z"/>
				<path style="fill:#FFECDF;" d="M166.948,413.918c-0.241,0-0.481-0.08-0.681-0.243c-0.46-0.375-0.531-1.054-0.154-1.516      c3.164-3.887,5.695-7.623,8.142-11.235c2.253-3.327,4.383-6.47,6.823-9.46c0.375-0.46,1.056-0.529,1.516-0.154      c0.462,0.377,0.529,1.054,0.154,1.516c-2.379,2.917-4.483,6.021-6.708,9.306c-2.475,3.652-5.032,7.426-8.257,11.389      C167.57,413.782,167.26,413.918,166.948,413.918z"/>
			</g>
		</g>
		<g>
			<g>
				<path style="fill:#FFECDF;" d="M283.298,184.352c6.408-18.1,26.275-27.579,44.376-21.171      c18.1,6.408,27.579,26.276,21.171,44.376c-6.408,18.1-26.275,27.579-44.376,21.171      C286.369,222.32,276.891,202.453,283.298,184.352z"/>
				<g>
					<path style="fill:#EEA6FF;" d="M310.019,221.255c0.224-0.632,1.522-0.748,2.9-0.26c1.378,0.488,2.314,1.395,2.09,2.027       c-0.224,0.632-1.522,0.748-2.9,0.26S309.796,221.887,310.019,221.255z"/>
					<path style="fill:#EEA6FF;" d="M304.032,222.935c0.224-0.632,1.522-0.748,2.9-0.26c1.378,0.488,2.314,1.395,2.09,2.027       c-0.224,0.632-1.522,0.748-2.9,0.26C304.744,224.474,303.808,223.567,304.032,222.935z"/>
					<path style="fill:#EEA6FF;" d="M301.784,218.033c0.224-0.632,1.522-0.748,2.9-0.26c1.378,0.488,2.314,1.395,2.091,2.027       c-0.224,0.632-1.522,0.748-2.9,0.26C302.496,219.572,301.56,218.665,301.784,218.033z"/>
					<path style="fill:#EEA6FF;" d="M307.901,215.296c0.223-0.632,1.522-0.748,2.9-0.26c1.378,0.488,2.314,1.395,2.09,2.027       c-0.224,0.632-1.522,0.748-2.9,0.26C308.613,216.835,307.677,215.928,307.901,215.296z"/>
					<path style="fill:#EEA6FF;" d="M313.044,211.295c0.223-0.632,1.522-0.748,2.9-0.26c1.378,0.488,2.314,1.395,2.09,2.027       c-0.224,0.632-1.522,0.748-2.9,0.26C313.757,212.834,312.821,211.927,313.044,211.295z"/>
					<path style="fill:#EEA6FF;" d="M304.413,209.71c0.223-0.632,1.522-0.748,2.9-0.26s2.314,1.395,2.09,2.027       c-0.224,0.632-1.522,0.748-2.9,0.26C305.125,211.249,304.189,210.342,304.413,209.71z"/>
					<path style="fill:#EEA6FF;" d="M298.864,211.913c0.224-0.632,1.522-0.748,2.9-0.26s2.314,1.395,2.09,2.027       c-0.224,0.632-1.522,0.748-2.9,0.26C299.576,213.452,298.64,212.545,298.864,211.913z"/>
					<path style="fill:#EEA6FF;" d="M316.291,218.082c0.224-0.632,1.522-0.748,2.9-0.26c1.378,0.488,2.314,1.395,2.09,2.027       c-0.223,0.632-1.522,0.748-2.9,0.26C317.003,219.622,316.067,218.714,316.291,218.082z"/>
				</g>
			</g>
			<g>
				<path style="fill:#FFECDF;" d="M352.984,176.995c-0.33,0-0.657-0.142-0.885-0.416c-0.403-0.489-0.334-1.212,0.154-1.616      c8.163-6.742,16.147-13.911,23.731-21.308c0.453-0.442,1.18-0.431,1.622,0.02c0.442,0.453,0.434,1.18-0.022,1.622      c-7.628,7.442-15.659,14.654-23.87,21.436C353.5,176.91,353.242,176.995,352.984,176.995z"/>
				<path style="fill:#FFECDF;" d="M347.778,166.484c-0.273,0-0.549-0.097-0.768-0.294c-0.471-0.424-0.51-1.149-0.085-1.621      l28.824-32.03c0.423-0.468,1.149-0.51,1.62-0.086s0.51,1.149,0.085,1.621l-28.824,32.03      C348.405,166.356,348.093,166.484,347.778,166.484z"/>
				<path style="fill:#FFECDF;" d="M340.469,155.848c-0.288,0-0.579-0.108-0.802-0.326c-0.453-0.444-0.462-1.17-0.017-1.623      c2.8-2.864,5.327-5.953,8.001-9.224c2.973-3.637,6.049-7.397,9.849-11.291c0.442-0.453,1.169-0.464,1.624-0.02      c0.453,0.442,0.462,1.169,0.02,1.622c-3.73,3.823-6.773,7.543-9.716,11.141c-2.707,3.311-5.266,6.439-8.137,9.376      C341.066,155.733,340.767,155.848,340.469,155.848z"/>
			</g>
		</g>
		<g>
			<path style="fill:#FFC279;" d="M283.825,259.156c1.823,7.326-2.638,14.744-9.965,16.567c-7.326,1.823-14.744-2.638-16.567-9.965     c-1.823-7.326,2.638-14.744,9.965-16.567C274.585,247.368,282.002,251.829,283.825,259.156z"/>
			<path style="fill:#EEA6FF;" d="M395.818,192.109c1.38,5.548-1.998,11.164-7.545,12.544c-5.548,1.38-11.164-1.998-12.544-7.545     c-1.381-5.547,1.997-11.164,7.545-12.544C388.821,183.183,394.437,186.562,395.818,192.109z"/>
			<polygon style="fill:#EEA6FF;" points="144.28,307.575 168.965,287.012 178.219,308.743    "/>
			<polygon style="fill:#EEA6FF;" points="256.851,379.275 279.477,396.826 262.433,409.04    "/>
			<polygon style="fill:#EEA6FF;" points="301.911,149.54 314.175,115.724 335.387,131.515    "/>
		</g>
		<g>
			<g>
				<polygon style="fill:#FFECDF;" points="108.774,215.821 44.108,205.112 74.139,186.688 28.474,170.42 37.586,146.749       98.64,184.898 74.662,199.824     "/>
			</g>
			<g>
				<polygon style="fill:#FFECDF;" points="391.099,275.8 455.765,265.091 425.734,246.667 471.398,230.399 462.287,206.728       401.232,244.877 425.211,259.803     "/>
			</g>
		</g>
	</g>
</g>















</svg>
