<?xml version="1.0" encoding="UTF-8"?>
<!-- Generator: Adobe Illustrator 25.2.1, SVG Export Plug-In . SVG Version: 6.00 Build 0)  -->
<svg xmlns="http://www.w3.org/2000/svg" xmlns:xlink="http://www.w3.org/1999/xlink" version="1.1" id="Capa_1" x="0px" y="0px" viewBox="0 0 512 512" style="enable-background:new 0 0 512 512;" xml:space="preserve" width="512" height="512">
<g>
	<path style="fill:#FFFFFF;" d="M258.273,503.113c-46.142,0-90.847-13.219-129.328-38.234c-0.377-0.218-0.745-0.453-1.106-0.704   c-0.392-0.249-0.853-0.555-1.347-0.915c-3.608-2.388-7.2-4.92-10.741-7.571c-13.948,7.423-25.631,11.046-35.538,11.046   c-5.888,0-11.174-1.303-15.71-3.874c-7.089-4.019-23.681-13.432-39.832-152.83c-0.281-1.454-0.541-2.869-0.782-4.258   c-0.239-0.39-0.459-0.794-0.66-1.213c-0.084-0.175-2.096-4.359-4.773-10.748c-3.315-7.906-7.921-19.782-11.012-31.429   c-11.898-45.156-7.211-55.077-1.881-60.831c2.21-2.39,4.725-4.276,7.429-5.604c0.689-1.69,1.682-3.193,2.903-4.459   c3.315-4.482,8.133-7.236,13.7-7.763c-2.515-3.896-3.446-8.335-2.573-12.737c1.343-6.758,6.945-11.973,13.833-13.246   c-0.128-5.443,1.95-10.392,5.906-13.741c2.571-2.179,5.8-3.507,9.217-3.817c4.299-6.921,8.993-13.675,14.037-20.194   c3.116-26.504,22.578-48.905,48.712-55.411c0.88-0.237,1.762-0.433,2.673-0.604c2.331-0.493,4.74-0.856,7.162-1.078   c1.726-0.159,3.479-0.248,5.219-0.268c35.143-21.633,75.252-33.674,116.627-35.029c0.922-0.803,1.903-1.531,2.947-2.181   c2.378-1.468,5.059-2.229,7.796-2.229c4.16,0,8.025,1.71,10.784,4.677c31.026,1.794,61.592,9.684,89.498,23.118   c1.664-0.772,3.526-1.301,5.602-1.443c0.784-0.053,1.542-0.079,2.276-0.079c4.179,0,7.872,0.821,11.065,2.229   c4.84-4.073,10.976-6.808,18.38-6.808c0.836,0,1.691,0.036,2.566,0.111c6.405,0.552,12.233,2.761,17.015,6.3   c2.972-1.357,6.376-2.204,10.216-2.204c1.168,0,2.358,0.082,3.539,0.244c1.52,0.213,3.009,0.537,4.456,0.966   c1.478-3.585,3.134-7.419,4.898-11.203c8.454-18.134,16.623-30.212,29.002-30.212c0.969,0,1.941,0.084,2.892,0.249   c6.416,1.116,11.759,4.694,15.041,10.072c7.971,13.065,1.943,32.364-4.441,52.797c-0.833,2.667-1.647,5.27-2.385,7.746   c-2.438,8.21-10.733,33.612-20.162,61.776c5.237,8.575,9.924,17.477,14.024,26.619c5.897,0.139,11.255,3.006,14.4,7.73   c3.446,5.181,3.838,11.629,1.148,17.9c7.881,2.618,13.082,9.96,12.656,17.887c-0.281,5.239-2.85,9.907-7.196,13.294   c1.212,1.294,2.265,2.777,3.129,4.424c1.019,1.439,1.775,3.076,2.198,4.841c2.54,1.723,4.822,4.002,6.719,6.769   c4.423,6.433,7.701,17.041-9.591,61.621c-2.684,6.887-6.172,14.479-10.378,22.608c-5.077,19.535-12.694,38.448-22.651,56.232   c-26.923,92.687-40.885,98.416-48.406,101.503c-3.506,1.438-7.346,2.169-11.417,2.169c-0.002,0-0.002,0-0.002,0   c-9.409-0.001-20.109-3.851-32.537-11.733c-4.928,2.732-9.906,5.268-14.87,7.574c-0.268,0.131-0.539,0.256-0.807,0.372   c-0.319,0.152-0.629,0.293-0.951,0.43C325.84,495.931,292.672,503.113,258.273,503.113z"/>
	<g>
		<path style="fill:#EEA6FF;" d="M484.869,265.268c0,19.448-2.474,38.328-7.126,56.324c-4.992,19.289-12.504,37.557-22.126,54.486    c0,0-0.023,0-0.023,0.023c-18.994,33.381-46.339,61.407-79.176,81.241c-6.899,4.153-14.024,7.965-21.377,11.369    c-0.159,0.091-0.34,0.159-0.499,0.227c-0.272,0.136-0.522,0.25-0.794,0.363c-28.366,12.98-59.887,20.197-93.109,20.197    c-45.159,0-87.186-13.343-122.36-36.331c-0.159-0.068-0.295-0.159-0.431-0.272c-0.408-0.25-0.794-0.499-1.18-0.794    c-5.991-3.949-11.778-8.215-17.337-12.731c-40.076-32.587-68.669-78.699-78.835-131.415c0-0.023,0-0.023,0-0.045    c-0.613-3.132-1.157-6.263-1.611-9.44c-0.522-3.472-0.953-6.967-1.316-10.484c-0.749-7.466-1.135-15.045-1.135-22.716    c0-14.66,1.407-29.002,4.107-42.89c0.204-1.112,0.431-2.201,0.681-3.313c-0.023-0.023,0-0.023,0-0.023    c1.543-7.421,3.449-14.705,5.719-21.831c28.82-90.545,113.578-156.15,213.7-156.15c114.009,0,208.162,85.099,222.368,195.227    C484.233,245.775,484.869,255.442,484.869,265.268z"/>
		<g>
			<g>
				<path style="fill:#7843D4;" d="M89.639,261.757c0,0,10.745-53.102,1.321-54.447c-11.6-1.656-20.032,17.293-20.032,17.293      l-0.404,27.555L89.639,261.757z"/>
			</g>
			<g>
				<g>
					<path style="fill:#FFAFB9;" d="M97.22,343.711l-14.831-56.356l-43.305,7.712c0,0,14.637,144.691,34.499,155.947       s67.195-26.307,67.195-26.307L97.22,343.711z"/>
				</g>
			</g>
			<g>
				<path style="fill:#FFAFB9;" d="M406.492,375.645l21.729-54.358l38.679,12.801c0,0-31.139,127.604-52.258,136.272      c-21.12,8.668-63.353-34.549-63.353-34.549L406.492,375.645z"/>
			</g>
			<g>
				<circle style="fill:#FFAFB9;" cx="256.796" cy="177.61" r="49.83"/>
			</g>
			<g>
				<path style="fill:#FFAFB9;" d="M232.474,205.492v45.085h53.983v-46.864C286.456,203.712,232.474,204.305,232.474,205.492z"/>
			</g>
			<g>
				<g>
					<path style="fill:#CB6BE5;" d="M205.779,222.102c0,0-31.045-122.796,50.424-122.796s69.011,87.599,65.847,116.864       C322.049,216.17,283.293,248.203,205.779,222.102z"/>
				</g>
				<g>
					<g>
						<path style="fill:#FFECDF;" d="M295.614,130.67c1.483,3.8,3.385,7.437,5.662,10.822c1.749,2.6,4.464,5.337,7.509,4.596        c1.734-0.422,3.042-1.96,3.575-3.663c0.532-1.703,0.391-3.547,0.028-5.293c-1.104-5.312-4.141-9.992-7.168-14.495        C298.294,112.337,292.199,121.914,295.614,130.67z"/>
					</g>
					<g>
						<path style="fill:#FFECDF;" d="M312.775,148.085c-2.406,0.922-4.036,3.552-3.792,6.117c0.066,0.696,0.262,1.391,0.656,1.969        c1.296,1.899,4.339,1.803,6.126,0.356c1.456-1.18,2.309-3.13,2.002-4.979c-0.307-1.849-1.856-3.474-3.717-3.698        L312.775,148.085z"/>
					</g>
				</g>
			</g>
			<g>
				<path style="fill:#FFFFFF;" d="M222.982,249.39c0,0,19.576-4.746,37.373-4.746c17.796,0,33.22,5.932,33.22,5.932      S224.169,248.203,222.982,249.39z"/>
			</g>
			<g>
				<g>
					<path style="fill:#7843D4;" d="M424.074,388.196l-59.955,59.433l-7.67,7.602l-0.59,0.59c0,0,0,5.673-1.316,13.117       c-0.272,0.136-0.522,0.25-0.794,0.363c-28.366,12.98-59.887,20.197-93.109,20.197c-45.159,0-87.186-13.343-122.36-36.331       c-0.204-3.381-0.295-6.717-0.295-9.667c-0.068-6.241,0.159-10.802,0.159-10.802l-0.25-0.25l-3.086-3.268l-54.191-57.005       c0,0,6.082-14.228,15.454-32.837c16.316-32.383,42.572-78.041,64.039-85.212c2.451-0.817,5.038-1.543,7.761-2.201       c0.023,0,0.023,0,0.023,0c20.083-4.879,46.203-5.537,64.584-5.242c1.384,0.023,2.723,0.045,3.994,0.068       c0.023,0,0.023,0,0.045,0c11.097,0.272,18.495,0.862,18.495,0.862s14.092,0.318,31.452,1.293       c0.84,0.045,1.679,0.091,2.519,0.159c11.415,0.681,23.964,1.634,34.72,2.95c4.629,0.567,8.918,1.203,12.663,1.929       c0.477,0.091,0.93,0.182,1.384,0.272h0.023c4.198,0.862,7.557,1.815,9.781,2.882c0.794,0.386,1.702,1.067,2.723,1.997       c0,0,0,0,0.023,0.023c13.366,12.368,43.888,70.099,61.18,104.024C419.036,377.939,424.074,388.196,424.074,388.196z"/>
				</g>
				<g>
					<g>
						<g>
							<path style="fill:#010A4E;" d="M140.14,425.208c-0.567,3.767-1.067,7.148-1.407,9.94c-0.363,2.973-0.613,5.764-0.749,8.351         c-0.227,3.427-0.272,6.536-0.136,9.395c-0.408-0.25-0.794-0.499-1.18-0.794c-0.159-4.902,0.113-10.53,0.908-17.11         c0.091-0.794,0.204-1.634,0.318-2.542c0.272-1.884,0.567-3.994,0.93-6.241c0.182-1.271,0.386-2.61,0.613-3.994         c4.72-29.047,14.637-77.451,14.75-78.018c0.068-0.318,0.363-0.522,0.703-0.454c0.295,0.068,0.499,0.363,0.431,0.681         c-0.113,0.567-10.371,50.651-14.977,79.493c-0.045,0.431-0.113,0.862-0.182,1.293H140.14z"/>
						</g>
						<g>
							<path style="fill:#010A4E;" d="M356.449,455.231c0.023,0.204,0,0.408,0,0.613c-0.136,4.652-0.658,8.964-1.407,12.867         c-0.159,0.091-0.34,0.159-0.499,0.227c-0.272,0.136-0.522,0.25-0.794,0.363c0.817-4.062,1.407-8.578,1.543-13.48         c0.091-3.812-0.272-9.781-0.953-17.02c-0.159-1.815-0.363-3.722-0.567-5.696c-3.654-34.72-12.595-90.363-12.708-91.09         c-0.068-0.318,0.159-0.613,0.477-0.658c0.318-0.045,0.613,0.159,0.658,0.477c0.136,0.703,8.896,55.28,12.617,90.136         c0.318,2.814,0.59,5.514,0.817,8.033C356.2,446.358,356.517,451.623,356.449,455.231z"/>
						</g>
					</g>
					<g>
						<path style="fill:#FFECDF;" d="M221.721,319.368c-16.566,0-28.162,14.682-28.162,35.832c0,24.554,11.982,36.445,28.661,36.445        c18.064,0,28.139-13.57,28.139-35.741C250.36,333.847,241.282,319.368,221.721,319.368z M222.22,376.169        c-3.994,0-8.896-8.079-8.896-20.968c0-12.163,4.607-19.856,8.306-19.766c4.879,0,8.669,8.601,8.669,20.469        C230.299,368.09,226.804,376.169,222.22,376.169z"/>
						<path style="fill:#FFECDF;" d="M291.502,369.18v7.988h-17.564c2.292-3.994,10.189-10.28,14.977-13.366        c10.575-6.899,15.976-10.893,15.976-22.375c0-13.48-10.484-21.853-23.76-21.853c-9.985,0-18.971,4.289-25.961,12.368        l10.779,11.392c2.995-3.2,6.899-7.602,12.277-7.602c4.607,0,8.396,1.498,8.396,6.604c0,6.195-10.598,10.371-17.678,16.657        c-6.399,5.106-9.077,7.988-14.569,16.974v14.478h53.896V369.18H291.502z"/>
					</g>
				</g>
			</g>
			<g>
				<path style="fill:#7843D4;" d="M421.315,280.633c0,0-0.539-50.451,5.537-54.181c9.986-6.13,17.698,19.675,17.698,19.675      l-3.065,27.387L421.315,280.633z"/>
			</g>
			<g>
				<g>
					<g>
						<path style="fill:#FD5D80;" d="M472.478,236.358c1.663,1.599,2.508,3.544,3.218,5.459c3.2,8.713,5.304,19.021,1.566,27.197        c-2.008,4.395-8.037,7.932-14.181,3.468l-13.68-9.96c0,0-0.465-5.282-2.61-5.36c-13.193-0.437-65.271,3.088-123.681,0.969        c-88.361-3.219-192.715-7.332-204.893-9.254c-21.527-3.381-83.477-5.952-72.558-37.855        c8.759-25.593,154.813-1.06,272.671,15.575c63.701,8.995,116.434,23.318,127.631,25.17c1.455,0.241,2.211-5.365,2.211-5.365        c4.136-3.982,8.023-9.268,14.169-11.678C465.743,233.39,469.6,233.577,472.478,236.358z"/>
					</g>
				</g>
				<g>
					<g>
						<g>
							<path style="fill:#FFECDF;" d="M445.977,246.037c0.928,5.518,0.975,11.029,0.15,16.365c-1.893-0.064-4.575-0.157-7.936-0.275         c-0.456,0.004-0.935-0.019-1.414-0.042c-2.43-0.079-5.145-0.158-8.162-0.283c-0.483-0.002-0.962-0.025-1.445-0.027         c-5.307-0.194-11.436-0.403-18.243-0.636c-0.452-0.017-0.908-0.013-1.387-0.035c-4.855-0.177-10.054-0.347-15.506-0.531         c-0.452-0.017-0.93-0.039-1.382-0.056c-3.672-0.124-7.457-0.252-11.355-0.385c-0.479-0.022-0.93-0.039-1.409-0.061         c-6.467-0.221-13.247-0.449-20.221-0.698c-0.479-0.023-0.957-0.045-1.463-0.074c-5.849-0.189-11.861-0.413-17.99-0.622         c-0.452-0.017-0.904-0.033-1.382-0.056c-4.517-0.165-9.092-0.322-13.721-0.491c1.677-10.287-0.011-21.179-4.78-31.534         c3.144,0.45,6.26,0.894,9.35,1.332c0.497,0.069,0.994,0.138,1.486,0.227c10.371,1.476,20.376,2.933,29.906,4.348         c0.443,0.057,0.908,0.14,1.351,0.197c2.01,0.302,4.02,0.604,5.976,0.894c0.524,0.075,1.048,0.15,1.572,0.225         c7.322,1.11,14.314,2.168,20.891,3.175c0.47,0.063,0.962,0.152,1.432,0.215c4.869,0.752,9.517,1.475,13.894,2.138         c0.492,0.089,0.989,0.158,1.482,0.247c1.183,0.18,2.34,0.355,3.465,0.543c0.659,0.105,1.292,0.204,1.897,0.298         c11.685,1.833,21.053,3.339,27.481,4.376c0.465,0.083,0.93,0.166,1.373,0.223         C442.517,245.474,444.577,245.808,445.977,246.037z"/>
						</g>
					</g>
					<g>
						<g>
							<path style="fill:#FFC279;" d="M329.166,228.156c0.547,1.371,1.094,2.742,1.641,4.112c1.153,2.86,2.337,5.833,3.413,8.782         c1.822,5.083,3.739,11.267,3.994,17.628c-0.452-0.017-0.904-0.033-1.382-0.056c-0.246-6.275-2.122-12.386-3.926-17.423         c-1.053-2.923-2.269-5.881-3.418-8.762c-0.606-1.49-1.207-2.999-1.808-4.509         C328.177,227.998,328.674,228.067,329.166,228.156z"/>
						</g>
					</g>
					<g>
						<g>
							<path style="fill:#FFC279;" d="M357.667,259.374c-0.479-0.023-0.957-0.045-1.463-0.074         c3.015-8.507,3.978-17.641,2.869-26.796c0.443,0.057,0.908,0.14,1.351,0.197         C361.541,241.815,360.591,250.889,357.667,259.374z"/>
						</g>
					</g>
					<g>
						<g>
							<path style="fill:#FFC279;" d="M367.971,233.819c4.894,8.775,8.795,17.793,11.327,26.315         c-0.479-0.022-0.93-0.039-1.409-0.061c-2.55-8.568-6.496-17.638-11.489-26.478         C366.923,233.669,367.447,233.744,367.971,233.819z"/>
						</g>
					</g>
					<g>
						<g>
							<path style="fill:#FFC279;" d="M390.293,237.209c1.664,7.82,2.268,15.676,1.741,23.365c-0.452-0.017-0.93-0.039-1.382-0.056         c0.535-7.729-0.054-15.646-1.791-23.524C389.331,237.057,389.823,237.146,390.293,237.209z"/>
						</g>
					</g>
					<g>
						<g>
							<path style="fill:#FFC279;" d="M404.187,239.346c0.492,0.089,0.989,0.158,1.482,0.247c2.066,7.169,3.18,14.399,3.258,21.547         c-0.452-0.017-0.908-0.013-1.387-0.035C407.475,253.897,406.353,246.58,404.187,239.346z"/>
						</g>
					</g>
					<g>
						<g>
							<path style="fill:#FFC279;" d="M409.133,240.136c0.659,0.105,1.292,0.204,1.897,0.298c4.355,4.445,8.444,9.062,12.222,13.801         c1.911,2.395,3.791,4.932,5.363,7.569c-0.483-0.002-0.962-0.025-1.445-0.027c-1.496-2.472-3.299-4.843-5.074-7.081         C418.093,249.695,413.773,244.835,409.133,240.136z"/>
						</g>
					</g>
					<g>
						<g>
							<path style="fill:#FFC279;" d="M439.884,245.033c0.1,1.334,0.105,2.583,0.087,3.679c-0.035,3.969-0.513,7.882-1.374,11.73         c-0.126,0.564-0.253,1.128-0.406,1.686c-0.456,0.004-0.935-0.019-1.414-0.042c1.155-4.396,1.772-8.933,1.829-13.51         c0.022-1.116-0.005-2.392-0.096-3.766C438.976,244.893,439.441,244.976,439.884,245.033z"/>
						</g>
					</g>
				</g>
				<g>
					<g>
						<g>
							<path style="fill:#FFECDF;" d="M102.836,215.157c1.251-0.219,2.548-0.494,3.383-1.199c1.13-0.954,1.126-2.545,0.297-3.84         c-0.829-1.293-2.356-2.31-3.999-3.028c-3.286-1.437-7.019-1.8-10.616-2.053c-4.74-0.332-27.532-0.693-22.715,7.586         C72.873,218.963,97.012,216.175,102.836,215.157z"/>
						</g>
					</g>
					<g>
						<g>
							<path style="fill:#FFECDF;" d="M112.38,211.433c1.103,1.808,3.454,3.28,5.95,3.541c2.496,0.261,4.97-0.809,5.601-2.582         c0.624-1.754-0.648-3.917-2.789-5.059c-2.141-1.143-4.951-1.277-7.05-0.495c-1.538,0.573-2.779,1.755-2.531,3.14         L112.38,211.433z"/>
						</g>
					</g>
				</g>
			</g>
			<g>
				<g>
					<path style="fill:#7843D4;" d="M488.552,297.69c-4.205,10.786-9.875,21.716-14.057,29.261       c-3.322,5.997-7.782,4.714-7.782,4.714l-35.902-11.621l-7.966-7.722l-1.534-33.977c0,0,11.083-4.933,15.033-10.713       c3.95-5.756,8.295-27.979,10.665-34.146c2.393-6.191,32.04-2.08,38.778-0.822c6.715,1.233,5.135,11.511,5.135,11.511       s4.74-1.233,8.69,4.522C503.585,254.475,496.057,278.344,488.552,297.69z"/>
				</g>
				<g>
					<path style="fill:#FFECDF;" d="M474.496,326.951c-3.322,5.997-5.716,9.842-5.716,9.842l-45.493-14.824l-0.442-9.649       c2.091-0.363,4.484,0.193,7.156,1.064C444.779,318.173,459.509,322.912,474.496,326.951z"/>
				</g>
				<g>
					<path style="fill:#010A4E;" d="M460.277,256.72c-0.042,0-0.086-0.005-0.131-0.015c-0.312-0.075-0.507-0.399-0.434-0.724       c1.893-8.583,2.431-17.382,1.598-26.154c-0.031-0.333,0.202-0.628,0.521-0.662c0.361-0.009,0.603,0.212,0.636,0.542       c0.844,8.903,0.299,17.833-1.624,26.544C460.782,256.53,460.543,256.72,460.277,256.72z"/>
				</g>
				<g>
					<path style="fill:#010A4E;" d="M475.557,257.719c-0.036,0-0.071-0.003-0.109-0.01c-0.315-0.062-0.523-0.379-0.461-0.707       c1.54-8.422,1.866-17.011,0.964-25.525c-0.033-0.331,0.195-0.63,0.514-0.666c0.337-0.031,0.607,0.204,0.643,0.535       c0.911,8.633,0.583,17.342-0.982,25.883C476.076,257.518,475.832,257.719,475.557,257.719z"/>
				</g>
				<g>
					<path style="fill:#010A4E;" d="M489.177,259.798c-0.035,0-0.073-0.003-0.108-0.01c-0.317-0.063-0.523-0.379-0.461-0.708       c1.348-7.316,2.449-14.461,1.137-21.423c-0.062-0.328,0.144-0.646,0.459-0.709c0.323-0.077,0.62,0.15,0.68,0.476       c1.352,7.175,0.235,14.446-1.137,21.885C489.694,259.597,489.452,259.798,489.177,259.798z"/>
				</g>
			</g>
			<g>
				<g>
					<path style="fill:#7843D4;" d="M22.97,258.89c2.869,10.809,7.172,21.941,10.409,29.658c2.571,6.134,9.983,6.568,9.983,6.568       l36.404-6.191l6.621-7.826l5.627-32.192c0,0-10.399-6.096-13.619-12.102c-3.223-5.983-4.848-27.712-6.454-33.888       c-1.626-6.202-31.535-6.012-38.371-5.661c-6.811,0.331-6.485,10.326-6.485,10.326s-4.553-1.772-9.167,3.217       C13.278,215.809,17.862,239.506,22.97,258.89z"/>
				</g>
				<g>
					<path style="fill:#FFECDF;" d="M33.379,288.548c2.571,6.134,4.481,10.1,4.481,10.1l46.923-8.408l1.604-9.141       c-2.031-0.609-4.472-0.379-7.228,0.114C63.921,283.919,48.734,286.584,33.379,288.548z"/>
				</g>
				<g>
					<path style="fill:#010A4E;" d="M56.045,223.4c-0.295,0-0.547-0.224-0.578-0.523c-0.853-8.548-0.315-17.129,1.598-25.505       c0.073-0.311,0.392-0.502,0.696-0.436c0.315,0.071,0.51,0.383,0.439,0.696c-1.888,8.253-2.418,16.708-1.576,25.131       c0.031,0.319-0.202,0.604-0.521,0.636C56.083,223.399,56.063,223.4,56.045,223.4z"/>
				</g>
				<g>
					<path style="fill:#010A4E;" d="M40.765,222.431c-0.306,0-0.561-0.237-0.581-0.544c-0.519-8.331,0.206-16.674,2.156-24.795       c0.075-0.312,0.392-0.505,0.7-0.43c0.312,0.076,0.505,0.389,0.43,0.7c-1.924,8.009-2.637,16.236-2.125,24.451       c0.02,0.32-0.224,0.596-0.545,0.616C40.79,222.431,40.776,222.431,40.765,222.431z"/>
				</g>
				<g>
					<path style="fill:#010A4E;" d="M27.001,222.699c-0.304,0-0.561-0.236-0.581-0.544c-0.461-7.258-0.691-14.325,1.518-21.002       c0.102-0.305,0.428-0.47,0.733-0.369c0.306,0.101,0.47,0.43,0.37,0.735c-2.145,6.479-1.915,13.424-1.461,20.563       c0.02,0.32-0.224,0.596-0.543,0.616C27.025,222.699,27.012,222.699,27.001,222.699z"/>
				</g>
			</g>
		</g>
		<g>
			<g>
				<path style="fill:#FFECDF;" d="M132.17,76.455c28.223-2.589,53.2,18.19,55.808,46.412l0.002,0.019      c0.06,0.651,0.098,1.285,0.137,1.919c1.146,20.917-10.477,39.759-28.268,48.657c-0.571,0.304-1.144,0.588-1.74,0.836      c-5.098,2.342-10.66,3.857-16.561,4.398c-28.07,2.575-52.946-17.943-55.765-45.933c-0.035-0.171-0.049-0.324-0.065-0.497      c-0.044-0.479-0.088-0.958-0.092-1.421c-1.62-25.028,15.086-47.235,38.894-53.09c0.622-0.173,1.247-0.307,1.893-0.425      C128.291,76.927,130.216,76.635,132.17,76.455z"/>
			</g>
			<g>
				<g>
					<path style="fill:#EEA6FF;" d="M85.628,130.846c1.841-0.15,3.709-0.224,5.564-0.221c0.657-0.002,1.313-0.005,1.953,0.014       c2.653,0.066,5.278,0.25,7.92,0.607c0.643,0.057,1.27,0.154,1.918,0.268c2.193,0.32,4.376,0.738,6.532,1.275       c0.631,0.135,1.244,0.292,1.861,0.486c1.958,0.497,3.887,1.092,5.806,1.786c0.617,0.195,1.218,0.429,1.817,0.645       c2.084,0.814,4.135,1.688,6.12,2.685c0.586,0.275,1.154,0.57,1.72,0.847c0.812,0.428,1.605,0.858,2.381,1.308       c1.06,0.598,2.083,1.22,3.109,1.879c0.533,0.338,1.068,0.694,1.605,1.07c2.409,1.615,4.717,3.393,6.901,5.299       c0.502,0.418,0.985,0.837,1.45,1.277c2.083,1.857,4.043,3.841,5.877,5.934c0.43,0.482,0.842,0.966,1.254,1.45       c1.906,2.24,3.688,4.608,5.305,7.068c0.357,0.527,0.715,1.055,1.055,1.603c1.493,2.375,2.857,4.819,4.073,7.336       c-0.571,0.304-1.144,0.588-1.74,0.836c-1.146-2.387-2.442-4.722-3.847-6.97c-0.34-0.548-0.698-1.076-1.075-1.602l-0.002-0.019       c-1.552-2.389-3.27-4.685-5.132-6.871c-0.394-0.505-0.806-0.989-1.254-1.45c-1.771-2.04-3.689-3.989-5.731-5.812       c-0.446-0.442-0.929-0.861-1.45-1.277c-2.061-1.82-4.285-3.529-6.591-5.076c-0.518-0.378-1.053-0.734-1.605-1.07       c-1.028-0.679-2.091-1.315-3.172-1.931c-0.715-0.418-1.446-0.814-2.196-1.19c-0.57-0.315-1.138-0.61-1.722-0.866       c-1.945-0.981-3.917-1.843-5.941-2.624l-0.019,0.002c-0.601-0.235-1.201-0.45-1.798-0.647       c-1.838-0.662-3.708-1.244-5.592-1.767c-0.613-0.156-1.246-0.311-1.859-0.467c-2.134-0.519-4.279-0.941-6.452-1.244       c-0.629-0.116-1.275-0.212-1.899-0.27c-2.503-0.331-5.014-0.526-7.531-0.584c-0.639-0.019-1.277-0.018-1.914-0.018       c-1.855-0.004-3.703,0.069-5.545,0.219c-0.035-0.171-0.049-0.324-0.065-0.497C85.676,131.788,85.632,131.309,85.628,130.846z"/>
				</g>
				<g>
					<path style="fill:#EEA6FF;" d="M159.324,162.798c0.029,0.314-0.097,0.636-0.365,0.845l-7.667,6.008       c-0.418,0.329-1.023,0.254-1.35-0.163c-0.326-0.417-0.256-1.024,0.164-1.351l7.667-6.008c0.418-0.329,1.023-0.254,1.35,0.163       C159.241,162.443,159.307,162.618,159.324,162.798z"/>
				</g>
				<g>
					<path style="fill:#EEA6FF;" d="M153.743,153.179c0.029,0.316-0.1,0.641-0.371,0.849c-2.802,2.159-5.361,4.647-7.605,7.392       c-0.336,0.412-0.942,0.471-1.354,0.136c-0.411-0.336-0.472-0.942-0.135-1.354c2.337-2.86,5.001-5.45,7.921-7.697       c0.421-0.325,1.025-0.247,1.349,0.174C153.663,152.83,153.727,153.003,153.743,153.179z"/>
				</g>
				<g>
					<path style="fill:#EEA6FF;" d="M145.106,145.969c0.021,0.226-0.038,0.462-0.184,0.659c-2.035,2.759-4.216,5.468-6.483,8.056       c-0.35,0.4-0.958,0.441-1.357,0.091c-0.399-0.348-0.442-0.959-0.089-1.358c2.232-2.546,4.378-5.215,6.381-7.929       c0.315-0.429,0.917-0.518,1.345-0.205C144.949,145.453,145.082,145.705,145.106,145.969z"/>
				</g>
				<g>
					<path style="fill:#EEA6FF;" d="M136.415,139.209c0.02,0.223-0.036,0.452-0.176,0.648c-1.953,2.73-3.538,5.71-4.708,8.859       c-0.186,0.496-0.739,0.751-1.237,0.566c-0.501-0.186-0.75-0.743-0.566-1.239c1.23-3.306,2.894-6.438,4.946-9.307       c0.31-0.432,0.91-0.531,1.342-0.221C136.254,138.684,136.391,138.942,136.415,139.209z"/>
				</g>
				<g>
					<path style="fill:#EEA6FF;" d="M129.302,133.962c0.017,0.183-0.017,0.373-0.112,0.546c-1.756,3.246-3.292,6.644-4.566,10.097       c-0.184,0.498-0.737,0.755-1.235,0.57c-0.5-0.184-0.754-0.738-0.57-1.235c1.304-3.541,2.878-7.021,4.678-10.348       c0.253-0.467,0.837-0.641,1.304-0.388C129.096,133.362,129.274,133.653,129.302,133.962z"/>
				</g>
				<g>
					<path style="fill:#EEA6FF;" d="M119.924,131.595c0.007,0.082,0.005,0.167-0.01,0.252c-0.519,2.991-1.441,5.899-2.739,8.64       c-0.228,0.481-0.801,0.687-1.281,0.459c-0.482-0.229-0.684-0.807-0.458-1.281c1.225-2.588,2.093-5.328,2.583-8.147       c0.091-0.523,0.59-0.875,1.113-0.783C119.567,130.811,119.885,131.173,119.924,131.595z"/>
				</g>
				<g>
					<path style="fill:#EEA6FF;" d="M112.878,128.253c0.013,0.146-0.006,0.295-0.062,0.44c-1.122,2.85-1.857,5.84-2.186,8.888       c-0.057,0.528-0.532,0.911-1.06,0.854c-0.53-0.057-0.909-0.539-0.854-1.06c0.347-3.219,1.125-6.377,2.308-9.386       c0.195-0.495,0.753-0.737,1.247-0.543C112.622,127.584,112.846,127.903,112.878,128.253z"/>
				</g>
				<g>
					<path style="fill:#EEA6FF;" d="M103.827,125.909c0.007,0.077,0.005,0.156-0.007,0.236l-1.574,10.005       c-0.083,0.526-0.575,0.885-1.1,0.801c-0.524-0.08-0.881-0.568-0.801-1.098l1.574-10.005c0.083-0.527,0.574-0.885,1.1-0.801       C103.462,125.116,103.787,125.481,103.827,125.909z"/>
				</g>
				<g>
					<path style="fill:#EEA6FF;" d="M93.152,130.779c0.143,1.557,0.137,3.127-0.019,4.691c-0.052,0.529-0.524,0.914-1.052,0.863       c-0.531-0.052-0.92-0.533-0.862-1.053c0.227-2.285,0.109-4.586-0.356-6.832c-0.108-0.515,0.229-1.027,0.749-1.137       c0.52-0.106,1.029,0.228,1.136,0.749C92.934,128.96,93.068,129.868,93.152,130.779z"/>
				</g>
			</g>
			<g>
				<g>
					<path style="fill:#EEA6FF;" d="M126.416,77.331c0.225,0.559,0.47,1.116,0.693,1.656c0.267,0.594,0.532,1.168,0.816,1.741       c1.204,2.594,2.576,5.116,4.093,7.547c0.321,0.55,0.68,1.097,1.038,1.624c1.484,2.279,3.097,4.488,4.834,6.571       c0.394,0.505,0.806,0.989,1.236,1.471c1.815,2.094,3.738,4.101,5.802,5.96c0.446,0.442,0.931,0.881,1.433,1.298       c0.926,0.823,1.886,1.605,2.864,2.365c0.666,0.519,1.33,1.018,2.011,1.497c0.52,0.397,1.056,0.772,1.588,1.091       c1.797,1.265,3.641,2.41,5.534,3.453c0.553,0.336,1.102,0.633,1.67,0.929c1.725,0.904,3.484,1.748,5.274,2.511       c0.584,0.256,1.187,0.509,1.788,0.744c2.027,0.819,4.104,1.556,6.189,2.176c0.617,0.195,1.232,0.37,1.847,0.546l0.019-0.002       c2.418,0.667,4.884,1.214,7.358,1.644c0.627,0.097,1.275,0.211,1.901,0.29c1.195,0.18,2.387,0.322,3.575,0.425l0.002,0.019       c0.06,0.651,0.098,1.285,0.137,1.919c-1.286-0.114-2.573-0.247-3.866-0.438c-0.627-0.097-1.274-0.192-1.903-0.309       c-2.629-0.435-5.232-1.008-7.79-1.72c-0.632-0.155-1.249-0.349-1.864-0.525c-2.127-0.655-4.224-1.39-6.271-2.226       c-0.599-0.216-1.183-0.471-1.769-0.746c-1.868-0.775-3.687-1.652-5.474-2.589c-0.568-0.296-1.136-0.591-1.689-0.927       c-1.953-1.077-3.858-2.255-5.696-3.535c-0.533-0.337-1.049-0.696-1.569-1.093c-0.743-0.511-1.47-1.063-2.177-1.617       c-0.959-0.762-1.898-1.526-2.822-2.33c-0.502-0.418-0.987-0.856-1.433-1.298c-2.169-1.946-4.175-4.023-6.057-6.207       c-0.431-0.482-0.861-0.964-1.256-1.469c-1.78-2.136-3.435-4.38-4.963-6.713c-0.358-0.527-0.698-1.076-1.038-1.624       c-1.561-2.485-2.978-5.079-4.227-7.747c-0.286-0.592-0.551-1.167-0.818-1.761c-0.318-0.724-0.635-1.449-0.915-2.177       C125.144,77.583,125.769,77.448,126.416,77.331z"/>
				</g>
				<g>
					<path style="fill:#EEA6FF;" d="M131.821,77.852c0.033,0.363-0.143,0.73-0.479,0.923l-8.451,4.845       c-0.461,0.263-1.049,0.104-1.313-0.357c-0.261-0.455-0.106-1.049,0.356-1.314l8.451-4.845c0.461-0.263,1.049-0.104,1.313,0.357       C131.768,77.585,131.808,77.717,131.821,77.852z"/>
				</g>
				<g>
					<path style="fill:#EEA6FF;" d="M136.276,86.668c0.027,0.288-0.077,0.586-0.309,0.798c-2.719,2.489-5.729,4.667-8.945,6.475       c-0.463,0.261-1.05,0.096-1.31-0.366c-0.258-0.461-0.097-1.048,0.368-1.309c3.088-1.736,5.978-3.83,8.589-6.22       c0.393-0.359,1.001-0.332,1.359,0.06C136.175,86.268,136.257,86.466,136.276,86.668z"/>
				</g>
				<g>
					<path style="fill:#EEA6FF;" d="M142.534,94.408c0.027,0.299-0.087,0.608-0.333,0.819c-2.567,2.192-5.075,4.524-7.455,6.931       c-0.374,0.378-0.982,0.381-1.36,0.008c-0.374-0.373-0.382-0.986-0.007-1.362c2.417-2.444,4.965-4.812,7.573-7.04       c0.404-0.344,1.012-0.297,1.356,0.106C142.442,94.027,142.517,94.215,142.534,94.408z"/>
				</g>
				<g>
					<path style="fill:#EEA6FF;" d="M148.732,101.038c0.017,0.185-0.018,0.375-0.114,0.55c-1.694,3.095-3.791,5.956-6.235,8.499       c-0.368,0.383-0.977,0.395-1.36,0.027c-0.383-0.367-0.397-0.977-0.027-1.36c2.325-2.421,4.322-5.142,5.933-8.09       c0.256-0.465,0.84-0.637,1.306-0.382C148.527,100.441,148.703,100.731,148.732,101.038z"/>
				</g>
				<g>
					<path style="fill:#EEA6FF;" d="M154.976,106.097c0.017,0.183-0.018,0.373-0.112,0.546c-1.803,3.322-3.862,6.54-6.118,9.568       c-0.317,0.427-0.921,0.515-1.346,0.197c-0.425-0.317-0.512-0.921-0.197-1.346c2.203-2.955,4.211-6.096,5.97-9.335       c0.253-0.467,0.837-0.641,1.305-0.388C154.771,105.499,154.948,105.789,154.976,106.097z"/>
				</g>
				<g>
					<path style="fill:#EEA6FF;" d="M161.714,111.315c0.02,0.212-0.03,0.431-0.156,0.62c-1.583,2.383-2.838,4.97-3.727,7.691       c-0.165,0.504-0.708,0.78-1.213,0.615c-0.506-0.163-0.783-0.709-0.615-1.213c0.943-2.885,2.273-5.63,3.952-8.157       c0.294-0.442,0.892-0.563,1.334-0.269C161.54,110.769,161.688,111.037,161.714,111.315z"/>
				</g>
				<g>
					<path style="fill:#EEA6FF;" d="M167.904,114.84c0.01,0.107,0.002,0.217-0.027,0.327c-0.804,3.13-2.027,6.145-3.633,8.956       c-0.263,0.462-0.85,0.623-1.312,0.36c-0.463-0.267-0.622-0.854-0.358-1.313c1.521-2.664,2.678-5.518,3.441-8.482       c0.132-0.516,0.657-0.824,1.171-0.692C167.589,114.101,167.868,114.448,167.904,114.84z"/>
				</g>
				<g>
					<path style="fill:#EEA6FF;" d="M175.982,117.505c0.011,0.122-0.001,0.249-0.04,0.371l-2.997,9.676       c-0.156,0.509-0.695,0.792-1.203,0.635c-0.507-0.155-0.791-0.701-0.634-1.202l2.997-9.675c0.156-0.509,0.695-0.792,1.203-0.635       C175.692,116.792,175.948,117.129,175.982,117.505z"/>
				</g>
				<g>
					<path style="fill:#EEA6FF;" d="M184.916,119.437c0.01,0.105,0.002,0.213-0.025,0.319c-0.553,2.228-0.765,4.521-0.631,6.815       c0.032,0.529-0.373,0.985-0.903,1.017c-0.52,0.031-0.968-0.359-1.015-0.873c-0.001-0.009-0.002-0.02-0.002-0.032       c-0.147-2.487,0.083-4.972,0.684-7.39c0.128-0.516,0.649-0.83,1.165-0.703C184.598,118.692,184.879,119.04,184.916,119.437z"/>
				</g>
			</g>
		</g>
		<g>
			<path style="fill:#FD5D80;" d="M470.872,75.865c-4.071,13.717-25.486,78.424-40.933,122.664     c-14.285-0.873-28.444-4.043-42.064-8.491c-18.096-5.899-35.367-13.999-52.534-22.2c-1.716-0.818-3.442-1.648-5.147-2.52     c-3.093-1.582-4.544-5.195-3.342-8.454c15.15-41.07,35.844-93.211,43.474-93.738c12.619-0.862,13.731,10.416,13.731,10.416     s4.858-16.152,18.462-14.981c13.626,1.174,16.503,12.782,16.503,12.782s4.163-9.812,13.583-8.518     c9.439,1.319,12.557,9.273,12.557,9.273s17.715-51.376,28.208-49.548C488.605,25.201,477.108,54.93,470.872,75.865z"/>
			<g>
				<path style="fill:#FFECDF;" d="M460.458,54.441l2.197-6.189l-1.532-0.043l0.735-2.156l1.532,0.043l1.971-5.767l-1.562-0.043      l0.735-2.156l1.562,0.044l1.733-4.977l2.45,0.069l-1.703,4.978l2.235,0.063l1.703-4.978l2.45,0.069l-1.703,4.978l1.562,0.044      l-0.766,2.154l-1.531-0.044l-1.971,5.767l1.562,0.044l-0.766,2.154l-1.531-0.042l-2.167,6.19l-2.45-0.069l2.135-6.191      l-2.235-0.063l-2.166,6.191L460.458,54.441z M465.838,46.165l2.266,0.063l1.94-5.767l-2.235-0.063L465.838,46.165z"/>
				<path style="fill:#FFECDF;" d="M456.927,79.068l4.043-16.25l-3.521-0.099l0.343-2.38c1.408,0.039,2.485-0.114,3.262-0.49      c0.776-0.376,1.47-1.062,2.111-2.055l2.48,0.069l-5.258,21.304L456.927,79.068z"/>
			</g>
			<path style="fill:#330214;" d="M362.498,112.554c-1.679,0-3.247-0.43-4.636-1.288c-3.16-1.955-5.043-6.017-4.914-10.602     c0.172-6.043,2.97-15.214,5.285-21.842c0.083-0.235,0.341-0.359,0.576-0.277c0.235,0.082,0.359,0.339,0.277,0.574     c-3.291,9.421-5.102,16.88-5.234,21.572c-0.121,4.264,1.599,8.02,4.485,9.806c2.703,1.671,6.2,1.516,9.855-0.439     c4.267-2.283,6.629-7.754,8.036-11.67c0.084-0.235,0.34-0.355,0.578-0.273c0.235,0.084,0.357,0.343,0.273,0.578     c-1.456,4.055-3.918,9.731-8.461,12.162C366.506,111.986,364.429,112.554,362.498,112.554z"/>
			<path style="fill:#330214;" d="M388.802,117.673c-0.772,0-1.538-0.058-2.291-0.173c-5.045-0.78-9.467-4.344-11.004-8.871     c-1.084-3.185-0.234-6.54,0.588-9.784c0.173-0.68,0.345-1.358,0.497-2.028c2.12-9.328,4.785-17.002,7.349-23.907     c0.084-0.228,0.339-0.341,0.57-0.262c0.23,0.086,0.347,0.341,0.262,0.572c-2.553,6.877-5.207,14.518-7.315,23.792     c-0.154,0.678-0.327,1.363-0.501,2.052c-0.791,3.118-1.609,6.342-0.609,9.281c1.434,4.222,5.572,7.548,10.299,8.277     c4.4,0.685,9.26-0.782,13.007-3.909c3.415-2.848,5.93-6.939,7.274-11.83c0.064-0.237,0.309-0.377,0.545-0.31     c0.236,0.064,0.376,0.308,0.31,0.545c-1.393,5.066-4.007,9.312-7.562,12.277C396.92,116.15,392.787,117.673,388.802,117.673z"/>
			<path style="fill:#330214;" d="M418.752,120.018c-0.976,0.002-1.973-0.124-2.986-0.377c-3.604-0.9-6.76-3.577-8.236-6.983     c-1.98-4.572-0.983-9.846,0.389-14.866c2.646-9.68,6.159-19.198,10.44-28.289c0.104-0.224,0.365-0.319,0.591-0.213     c0.222,0.104,0.316,0.368,0.212,0.589c-4.259,9.044-7.754,18.513-10.387,28.147c-1.33,4.862-2.301,9.957-0.431,14.276     c1.368,3.16,4.296,5.642,7.638,6.478c3.376,0.838,6.589,0.153,9.278-1.992c0.191-0.155,0.472-0.122,0.624,0.069     c0.153,0.193,0.121,0.472-0.07,0.623C423.704,119.162,421.303,120.018,418.752,120.018z"/>
			<path style="fill:#330214;" d="M384.151,148.315c-0.134,0-0.266-0.06-0.353-0.175c-0.148-0.195-0.11-0.474,0.085-0.621     c5.632-4.273,12.755-7.244,20.599-8.592c6.647-1.144,13.784-1.192,21.805-0.151c-1.651-14.857-1.529-30.225,0.363-45.694     c0.308-2.531,0.66-4.997,1.567-7.364c0.696-1.817,2.357-5.037,5.669-6.192c2.462-0.858,5.484-0.324,8.078,1.425     c2.383,1.607,4.14,3.938,5.6,5.999c4.626,6.526,8.494,13.589,11.496,20.995c0.092,0.226-0.018,0.485-0.245,0.578     c-0.225,0.089-0.484-0.018-0.577-0.246c-2.976-7.342-6.811-14.345-11.399-20.814c-1.414-1.997-3.113-4.255-5.372-5.777     c-2.363-1.593-5.089-2.09-7.289-1.323c-2.172,0.756-4.042,2.823-5.133,5.673c-0.871,2.272-1.213,4.678-1.516,7.151     c-1.907,15.595-2.008,31.09-0.298,46.051c0.016,0.137-0.033,0.273-0.131,0.368c-0.098,0.095-0.233,0.148-0.37,0.122     c-8.159-1.104-15.388-1.079-22.099,0.071c-7.704,1.325-14.694,4.239-20.213,8.423     C384.339,148.286,384.245,148.315,384.151,148.315z"/>
			<path style="fill:#330214;" d="M442.31,82.242c-0.037,0-0.074-0.004-0.111-0.013c-0.237-0.062-0.38-0.304-0.319-0.541     c0.863-3.34,1.819-6.706,2.844-10.004c0.072-0.235,0.318-0.363,0.555-0.293c0.234,0.073,0.365,0.321,0.291,0.554     c-1.019,3.286-1.972,6.637-2.831,9.964C442.688,82.109,442.507,82.242,442.31,82.242z"/>
		</g>
		<g>
			<path style="fill:#FFC279;" d="M288.831,75.183c-2.201,0-4.359-0.399-6.338-1.217c-2.717-1.124-5.11-3.054-6.868-5.441     c-0.801,0.191-1.612,0.317-2.423,0.381c-4.668,0.386-9.392-1.458-12.333-4.773c-4.614-5.206-4.238-12.72-3.603-16.738     c0.803-5.077,2.705-8.583,5.65-10.42c0.534-0.328,1.232-0.168,1.563,0.363c0.331,0.532,0.17,1.232-0.362,1.565     c-2.362,1.471-3.914,4.448-4.611,8.847c-0.572,3.621-0.935,10.369,3.06,14.877c2.478,2.795,6.473,4.326,10.456,4.02     c0.439-0.035,0.876-0.091,1.313-0.168c-0.521-0.98-0.94-2.012-1.239-3.074c-1.319-4.663-0.368-9.995,2.48-13.917     c1.04-1.436,2.141-2.398,3.362-2.941c1.674-0.74,3.592-0.647,5.402,0.264c2.125,1.07,3.756,3.118,4.256,5.343     c0.777,3.457-0.574,7.499-3.616,10.81c-1.989,2.165-4.429,3.827-7.046,4.844c1.455,1.768,3.327,3.193,5.425,4.062     c4.908,2.026,11.12,1.068,15.833-2.438c4.276-3.18,7.366-8.264,8.703-14.312c0.136-0.612,0.731-0.995,1.353-0.864     c0.612,0.135,0.998,0.74,0.863,1.352c-1.454,6.582-4.851,12.138-9.565,15.646C297.085,73.829,292.888,75.183,288.831,75.183z      M281.29,48.324c-0.5,0-0.983,0.1-1.431,0.297c-0.844,0.377-1.645,1.095-2.445,2.198c-2.449,3.375-3.267,7.96-2.134,11.969     c0.305,1.079,0.752,2.121,1.319,3.096c2.488-0.867,4.826-2.402,6.711-4.454c2.537-2.766,3.687-6.046,3.073-8.78     c-0.349-1.556-1.551-3.052-3.063-3.812C282.641,48.497,281.95,48.324,281.29,48.324z"/>
			<path style="fill:#FFC279;" d="M356.887,227.645c-0.114,0-0.229-0.018-0.344-0.053c-2.163-0.687-3.937-2.429-4.865-4.773     c-1.034-2.613-0.89-5.534,0.386-7.818c1.846-3.302,5.755-5.323,9.812-5.323c0.051,0,0.101,0,0.152,0     c1.907-3.464,5.752-5.975,10.089-6.334c4.041-0.339,8.339,1.084,12.026,3.934c1.589-0.654,3.518-1.017,5.519-0.98     c6.72,0.033,13.222,3.519,16.97,9.102c0.349,0.519,0.211,1.223-0.309,1.573c-0.521,0.35-1.224,0.213-1.575-0.31     c-3.334-4.964-9.119-8.067-15.097-8.095c-1.025,0.018-2.289,0.089-3.537,0.43c1.019,1.002,2.257,2.444,2.814,4.288     c0.661,2.187,0.102,4.556-1.392,5.895c-1.097,0.984-2.641,1.352-4.234,1.008c-1.78-0.386-3.31-1.589-3.993-3.145     c-1.185-2.695-0.202-6.176,2.336-8.282c0.109-0.089,0.218-0.177,0.331-0.262c-3.05-2.123-6.459-3.147-9.672-2.896     c-3.173,0.264-6.091,1.986-7.775,4.368c0.113,0.027,0.227,0.053,0.34,0.082c3.085,0.8,5.544,2.673,6.746,5.141     c1.417,2.914,0.771,6.557-1.504,8.477c-0.213,0.182-0.459,0.279-0.762,0.268c-2.379-0.064-4.689-1.288-6.337-3.357     c-1.835-2.305-2.606-5.29-2.063-7.985c0.043-0.213,0.093-0.423,0.15-0.632c-2.968,0.219-5.716,1.751-7.053,4.142     c-0.932,1.669-1.03,3.92-0.257,5.875c0.677,1.709,1.932,2.965,3.443,3.446c0.597,0.191,0.927,0.829,0.738,1.425     C357.814,227.337,357.368,227.645,356.887,227.645z M363.44,212.07c-0.111,0.319-0.201,0.645-0.267,0.975     c-0.413,2.048,0.191,4.337,1.613,6.123c1.121,1.409,2.622,2.291,4.173,2.471c1.222-1.323,1.504-3.623,0.614-5.452     c-0.898-1.842-2.869-3.313-5.274-3.936C364.014,212.177,363.727,212.117,363.44,212.07z M383.836,209.974     c-0.257,0.16-0.505,0.337-0.743,0.534c-1.745,1.447-2.479,3.865-1.706,5.622c0.389,0.886,1.33,1.609,2.395,1.839     c0.879,0.186,1.693,0.013,2.24-0.479c0.838-0.751,1.139-2.209,0.735-3.55c-0.359-1.186-1.176-2.345-2.572-3.65     C384.069,210.182,383.952,210.078,383.836,209.974z"/>
			<path style="fill:#FFC279;" d="M131.248,380.295c-4.528,0-9.23-2.571-11.588-6.781c-1.71-3.052-2.239-6.71-1.63-10.316     c-0.776-0.41-1.497-0.911-2.141-1.494c-3.765-3.411-5.383-9.283-4.221-15.324c0.721-3.745,2.316-7.001,4.611-9.412     c0.435-0.454,1.152-0.468,1.604-0.04c0.454,0.432,0.472,1.15,0.04,1.604c-1.996,2.096-3.387,4.957-4.026,8.277     c-0.796,4.129-0.289,9.766,3.516,13.215c0.355,0.321,0.746,0.612,1.163,0.869c0.499-1.622,1.233-3.202,2.198-4.68     c1.263-1.932,2.628-3.204,4.174-3.889c2.127-0.946,4.557-0.627,6.049,0.793c2.151,2.054,1.717,5.467,0.218,7.634     c-1.424,2.061-3.731,3.371-6.495,3.69c-1.53,0.168-3.065,0.04-4.504-0.37c-0.394,2.954,0.066,5.915,1.422,8.335     c2.598,4.638,8.584,6.899,13.073,4.92c0.574-0.248,1.243,0.009,1.495,0.583c0.253,0.574-0.008,1.243-0.582,1.496     C134.248,380.009,132.757,380.295,131.248,380.295z M120.684,361.835c1.211,0.37,2.515,0.503,3.777,0.35     c2.106-0.242,3.843-1.21,4.89-2.724c0.956-1.385,1.26-3.577,0.081-4.703c-0.821-0.78-2.284-0.926-3.561-0.361     c-1.135,0.503-2.18,1.503-3.196,3.056C121.782,358.821,121.117,360.308,120.684,361.835z"/>
		</g>
		<g>
			<path style="fill:#FFECDF;" d="M470.928,185.449c1.361-1.391,2.826-2.788,4.67-3.409c1.844-0.621,4.171-0.238,5.25,1.382     c1.094,1.644,0.559,3.874-0.334,5.635c-2.321,4.582-6.604,7.795-10.742,10.839c-5.899,4.34-11.77,9.421-18.092,12.98     C454.751,202.825,463.674,192.884,470.928,185.449z"/>
			<path style="fill:#FFECDF;" d="M483.226,206.629c1.923-0.301,3.932-0.546,5.782,0.059c1.85,0.605,3.486,2.303,3.382,4.247     c-0.106,1.972-1.868,3.439-3.637,4.318c-4.6,2.286-9.954,2.3-15.091,2.266c-7.323-0.048-15.067,0.515-22.263-0.411     C459.87,210.885,472.966,208.251,483.226,206.629z"/>
		</g>
		<g>
			<path style="fill:#FFECDF;" d="M65.68,158.457c-0.835-1.451-1.754-2.931-3.146-3.883c-1.392-0.952-3.389-1.215-4.611-0.18     c-1.24,1.051-1.258,2.971-0.886,4.604c0.969,4.247,3.837,7.877,6.619,11.336c3.967,4.931,7.758,10.451,12.235,14.86     C75.432,176.373,70.127,166.205,65.68,158.457z"/>
			<path style="fill:#FFECDF;" d="M51.182,172.433c-1.523-0.714-3.128-1.403-4.777-1.373c-1.649,0.031-3.347,0.992-3.662,2.577     c-0.319,1.608,0.831,3.219,2.107,4.358c3.32,2.964,7.73,4.29,11.97,5.525c6.045,1.76,12.311,4.114,18.432,5.137     C69.552,181.584,59.303,176.255,51.182,172.433z"/>
		</g>
		<path style="fill:#FFECDF;" d="M228.781,78.521c0,5.76-4.669,10.429-10.429,10.429c-5.76,0-10.429-4.669-10.429-10.429    c0-5.76,4.669-10.429,10.429-10.429C224.112,68.092,228.781,72.762,228.781,78.521z"/>
		<path style="fill:#FFECDF;" d="M331.913,106.333c0,2.88-2.335,5.214-5.215,5.214c-2.88,0-5.215-2.335-5.215-5.214    c0-2.88,2.335-5.215,5.215-5.215C329.579,101.118,331.913,103.453,331.913,106.333z"/>
		<path style="fill:#FFECDF;" d="M403.758,288.842c0,2.88-2.335,5.215-5.214,5.215c-2.88,0-5.215-2.335-5.215-5.215    c0-2.88,2.335-5.215,5.215-5.215C401.423,283.627,403.758,285.962,403.758,288.842z"/>
		<circle style="fill:#FFECDF;" cx="105.949" cy="288.842" r="5.215"/>
	</g>
</g>















</svg>
