<?xml version="1.0" encoding="UTF-8"?>
<!-- Generator: Adobe Illustrator 25.2.1, SVG Export Plug-In . SVG Version: 6.00 Build 0)  -->
<svg xmlns="http://www.w3.org/2000/svg" xmlns:xlink="http://www.w3.org/1999/xlink" version="1.1" id="Capa_1" x="0px" y="0px" viewBox="0 0 512 512" style="enable-background:new 0 0 512 512;" xml:space="preserve" width="512" height="512">
<g>
	<path style="fill:#FFFFFF;" d="M144.038,488.436c-11.099,0-20.215-1.812-27.865-5.542c-0.927-0.427-1.833-0.904-2.703-1.426   c-0.025-0.013-0.05-0.027-0.075-0.041c-5.049-2.871-9.346-6.702-12.768-11.388c-5.589-7.679-9.166-16.875-10.661-27.388   c-1.108,0.867-2.332,1.599-3.657,2.174c-2.076,0.906-4.308,1.374-6.604,1.374c-6.623,0-12.602-3.927-15.233-10.004l-21.067-48.539   c-18-25.616-30.356-54.085-36.748-84.661l-5.287-12.18c-2.273-5.239-1.621-11.026,1.234-15.521   c-0.58-6.67-0.873-13.245-0.873-19.632c0-6.904,0.317-13.915,0.941-20.835c0.44-5.051,1.067-10.166,1.86-15.164   c7.406-47.081,29.768-91.216,63.322-125.347c-3.293-0.956-6.209-3.018-8.21-5.905c-4.747-6.884-3.018-16.314,3.834-21.049   c7.274-5.01,15.417-7.652,23.565-7.652c1.338,0,2.682,0.073,3.997,0.218c4.647,0.516,9.141,2.008,13.148,4.286   c13.409-8.955,27.717-16.482,42.668-22.429c11.413-4.537,23.49-8.201,35.918-10.899c0.547-0.201,1.095-0.399,1.653-0.58   c0,0,3.066-0.984,3.143-1.006c5.635-1.682,11.451-3.017,17.288-3.968c7.202-1.173,14.531-1.768,21.782-1.768   c10.002,0,20.018,1.124,29.784,3.342c2.396,0.258,4.779,0.552,7.147,0.887c46.568,6.421,90.671,27.518,125.226,59.732   c3.361-1.036,6.879-1.565,10.479-1.565c19.7,0,35.727,16.025,35.727,35.725c0,6.275-1.64,12.341-4.672,17.66   c6.777,11.528,12.525,23.597,17.172,36.055c0.552,0.086,1.101,0.182,1.649,0.279c16.482,2.987,31.75,10.513,44.158,21.771   c0.695,0.631,1.315,1.32,1.856,2.053c7.67,8.383,12.616,19.816,15.103,34.869c4.029,24.378,0.963,49.277-8.635,70.103   c-10.604,23.009-29.389,41.403-51.535,50.469c-4.288,1.753-8.607,3.134-12.814,4.318c-3.904,7.726-8.231,15.221-12.912,22.366   c0.093,1.292,0.139,2.553,0.139,3.795c0,32.741-26.638,59.379-59.379,59.379c-0.717,0-1.438-0.016-2.173-0.048   c-11.794,8.194-24.353,15.276-37.472,21.126c-5.821,12.7-20.009,20.847-36.488,20.847c-0.749,0-1.492-0.018-2.228-0.052   c-7.066-0.341-13.604-1.964-19.511-3.62c-11.508,1.797-23.427,2.707-35.455,2.707c-5.948,0-11.401-0.195-16.67-0.6   c-7.452-0.527-15.01-1.44-22.443-2.709c-1.797,0.275-3.593,0.547-5.383,0.811c-3.061,0.436-6.189,0.956-9.427,1.494   C167.288,486.501,155.509,488.436,144.038,488.436z"/>
	<g>
		<path style="opacity:0.67;fill:#7843D4;" d="M450.353,255.663c0,44.397-13.419,85.7-36.42,120.05    c-32.466,48.56-84.072,83.212-144.051,93.166c-11.605,1.954-23.536,2.93-35.699,2.93c-5.233,0-10.442-0.163-15.605-0.558    c-21.349-1.512-41.815-6.116-61.002-13.419c-4.512-1.698-8.954-3.558-13.326-5.559c-27.745-12.721-52.327-31.14-72.235-53.769    c-33.606-38.071-53.955-88.096-53.955-142.841c0-6.605,0.302-13.14,0.884-19.582c0.419-4.791,1-9.535,1.744-14.233    c12-76.282,63.909-139.33,133.702-167.098c24.698-9.814,51.606-15.21,79.793-15.21c10.117,0,20.094,0.698,29.815,2.07    C369.257,56.122,450.353,146.427,450.353,255.663z"/>
		<g>
			<path style="fill:#FFECDF;" d="M72.69,221.848v14.233H18.945c0.419-4.791,1-9.535,1.744-14.233H72.69z"/>
			<path style="fill:#330214;" d="M72.69,221.848v14.233H61.899c-0.233-0.651-0.442-1.326-0.605-2.023     c-0.814-3.465-0.721-8.163,0.628-12.21H72.69z"/>
		</g>
		<g>
			<g>
				<g>
					<path style="fill:#FD5D80;" d="M348.373,139.089c4.088,25.098,0.158,49.639-9.937,71.013c-0.421,0.867-0.837,1.763-1.287,2.635       c-12.798,25.483-34.449,46.195-61.595,57.509c-0.885,0.381-1.803,0.737-2.721,1.094c-7.734,3.005-15.916,5.254-24.445,6.644       c-19.566,3.187-38.773,1.494-56.41-4.182c-0.935-0.291-1.846-0.616-2.785-0.937c-15.46-5.38-29.621-13.87-41.666-24.805       c-11.113-10.111-20.441-22.346-27.216-36.151c-0.486-0.986-0.943-1.976-1.405-2.995c-4.404-9.606-7.601-19.971-9.385-30.921       c-3.849-23.628-0.572-46.732,8.224-67.185c0.387-0.891,0.774-1.783,1.191-2.679c13.727-29.952,39.503-53.851,72.19-64.559       c0.927-0.299,1.855-0.598,2.811-0.901c5.021-1.498,10.209-2.698,15.54-3.567c27.576-4.492,54.512,0.705,77.27,13.119       c0.848,0.483,1.691,0.937,2.538,1.42c21.582,12.458,39.232,31.472,49.835,54.799c0.462,1.02,0.895,2.044,1.327,3.068       c0.233,0.524,0.433,1.024,0.638,1.552C344.435,121.272,346.89,129.983,348.373,139.089z"/>
				</g>
				<g>
					<path style="fill:#330214;" d="M275.554,270.246c-0.885,0.381-1.803,0.737-2.721,1.094c-3.305-12.299-6.754-24.575-10.4-36.79       c-6.059-20.488-12.602-40.868-19.593-61.086c-0.317-1.043-0.659-2.052-1.059-3.052c-14.884-43.07-31.815-85.451-50.655-126.841       c0.927-0.299,1.855-0.598,2.811-0.901c18.764,41.284,35.647,83.555,50.541,126.504c0.371,1.004,0.717,2.043,1.059,3.052       c6.986,20.189,13.496,40.545,19.579,60.999C268.748,245.532,272.235,257.861,275.554,270.246z"/>
				</g>
				<g>
					<path style="fill:#330214;" d="M205.983,187.81c2.064,10.313,2.633,21.253,1.58,32.399c-0.919,9.615-2.913,19.346-6.118,29.452       c-2.428,7.791-5.559,15.814-9.467,24.141c-0.935-0.291-1.846-0.616-2.785-0.937c3.686-7.877,6.705-15.498,9.084-22.866       c3.341-10.364,5.45-20.292,6.369-30.085c1.033-10.728,0.501-21.261-1.44-31.179c-0.203-1.061-0.438-2.147-0.694-3.17       c-3.741-16.429-11.434-30.971-22.434-41.662c-5.729-5.574-12.929-10.732-22.069-15.81       c-12.784-7.117-26.424-12.586-40.263-17.283c0.387-0.891,0.774-1.783,1.191-2.679c13.902,4.716,27.604,10.205,40.517,17.39       c9.34,5.223,16.741,10.525,22.647,16.278c11.349,11.019,19.262,25.999,23.188,42.841       C205.521,185.696,205.752,186.753,205.983,187.81z"/>
				</g>
				<g>
					<path style="fill:#330214;" d="M338.435,210.102c-0.421,0.867-0.837,1.763-1.287,2.635c-9.3-4.431-18.353-9.345-26.981-15.098       c-0.067-0.048-0.163-0.092-0.235-0.169c-8.824-5.869-15.69-11.702-21.072-17.865c-5.774-6.573-10.396-14.25-13.812-22.686       c-0.4-1-0.799-2-1.174-3.033c-5.978-16.36-7.555-35.301-4.163-54.43c2.686-15.286,8.215-30.74,17.035-47.233       c0.848,0.483,1.691,0.937,2.538,1.42c-8.632,16.196-14.063,31.338-16.71,46.323c-3.245,18.395-1.781,36.644,3.892,52.403       c0.347,1.038,0.722,2.071,1.121,3.071c3.33,8.273,7.842,15.82,13.472,22.239c5.239,6.009,12.028,11.736,20.719,17.509       l0.029-0.005C320.307,200.868,329.231,205.715,338.435,210.102z"/>
				</g>
				<g>
					<path style="fill:#330214;" d="M340.449,111.51c-21.73,17.501-42.47,32.002-62.86,43.93c-0.837,0.491-1.703,0.987-2.54,1.479       c-9.899,5.694-19.69,10.78-29.512,15.308c-0.904,0.443-1.812,0.857-2.697,1.238c-2.178,0.976-4.327,1.947-6.485,2.861       c-9.927,4.25-20.107,8.037-30.371,11.484c-0.927,0.299-1.85,0.627-2.778,0.926c-18.328,6.062-36.97,11.11-55.208,16.092       c-9.09,2.487-18.353,5.001-27.687,7.083c-0.486-0.986-0.943-1.976-1.405-2.995c9.511-2.082,18.943-4.654,28.263-7.177       c18.296-4.992,36.99-10.078,55.343-16.173c0.927-0.299,1.85-0.627,2.778-0.926c10.097-3.39,20.051-7.111,29.814-11.275       c2.24-0.957,4.447-1.937,6.678-2.951c0.909-0.414,1.788-0.824,2.697-1.238c9.765-4.519,19.556-9.604,29.397-15.289       c0.866-0.496,1.731-0.992,2.592-1.517c20.303-11.915,40.986-26.406,62.654-43.927       C339.583,109.462,340.016,110.486,340.449,111.51z"/>
				</g>
			</g>
		</g>
		<g>
			<g>
				<path style="fill:#FFECDF;" d="M335.07,216.638c-1.047,1.954-2.163,3.861-3.349,5.745c10.512,2.326,16.326,4.675,17.256,6.582      c-1.209,2.511-10.907,5.814-28.559,8.767c-8.605,1.442-19.117,2.791-31.489,3.93c-0.651,0.047-1.326,0.116-1.977,0.186      c0,0,0,0-0.023,0c-20.442,1.791-45.722,2.977-75.677,2.977c-4.814,0-9.512-0.023-14.093-0.093c-0.721,0-1.442-0.023-2.14-0.023      c-20.233-0.302-38.048-1.163-53.374-2.372c-42.862-3.372-66.211-9.396-68.142-13.372c1.651-3.372,18.559-8.186,49.653-11.652      c-1-1.767-1.954-3.558-2.837-5.396c-0.093-0.21-0.186-0.395-0.302-0.605c-3.047,0.349-6,0.697-8.837,1.093      c-44.001,5.93-44.001,13.372-44.001,16.559c0,1.814,0,5,8.117,8.535c0.349,0.14,0.721,0.302,1.116,0.442      c4.07,1.628,9.954,3.302,18.442,4.954c0.372,0.07,0.767,0.14,1.163,0.232c4.349,0.814,9.372,1.605,15.163,2.396      c8.744,1.186,18.442,2.186,28.838,3.023c0.395,0.023,0.814,0.047,1.209,0.093c2.488,0.186,5,0.372,7.558,0.535      c11.489,0.744,23.675,1.302,36.35,1.605c0.721,0.023,1.442,0.046,2.163,0.046c4.023,0.093,8.117,0.163,12.233,0.21      c0.488,0.023,1,0.023,1.488,0.023c3.395,0.023,6.791,0.046,10.233,0.046c16.675,0,32.908-0.372,48.141-1.139      c0.419,0,0.814-0.023,1.233-0.07h0.023c6.279-0.302,12.372-0.675,18.256-1.093c0.651-0.047,1.302-0.093,1.954-0.14h0.023      c7.744-0.605,15.117-1.279,22.001-2.093c0.465-0.047,0.907-0.093,1.349-0.163h0.023c2.419-0.279,4.768-0.581,7.07-0.884      c0.674-0.093,1.349-0.186,2.023-0.279c7.233-1,13.21-2.07,18.14-3.14c0.395-0.07,0.767-0.163,1.14-0.232      c9.861-2.209,15.419-4.442,18.582-6.489c0.372-0.209,0.698-0.442,1-0.698c3.116-2.349,3.116-4.419,3.116-5.721      C355.327,226.499,355.327,221.499,335.07,216.638z"/>
			</g>
			<g>
				<path style="fill:#FFECDF;" d="M348.35,307.059c-0.163,0.442-0.326,0.884-0.512,1.326c-2.302,5.861-5.07,11.512-8.303,16.884      c-3.023,5-6.465,9.884-9.814,14.605c-2.349,3.302-4.698,6.651-6.93,10.07v0.023c-0.395,0.558-0.767,1.139-1.116,1.697v0.023      c-4.116,6.419-7.651,13.14-9.698,20.443c-1.814,6.465-2.372,13.163-2.465,19.559c-0.023,0.395-0.023,0.791-0.023,1.163      c-0.023,2.768,0.047,5.465,0.116,8.047c0.465,14.489,1.605,28.768,3.465,42.629c0.023,0.396,0.07,0.767,0.14,1.163      c0.651,4.884,1.395,9.721,2.233,14.512l0.023,0.163l-0.047,0.163c-4.07,9.768-15.814,13.675-25.605,13.21      c-6.698-0.326-13.256-2.209-19.582-4.024c-3.186-0.93-6.465-1.86-9.744-2.604c-20.698-4.651-42.373-1.326-63.327,1.907      c-3.163,0.488-6.349,0.977-9.512,1.442c-3.093,0.442-6.326,0.977-9.675,1.535c-10.047,1.651-21.163,3.488-31.559,3.488      c-8.023,0-15.605-1.093-21.908-4.21c-0.628-0.279-1.233-0.604-1.814-0.977h-0.023c-3.233-1.837-6.07-4.302-8.396-7.488      c-4.675-6.419-7.512-14.396-8.442-23.838c-0.047-0.372-0.07-0.767-0.093-1.186c-0.326-3.884-0.349-8.023-0.023-12.396      c0.326-4.488,0.93-8.977,1.628-13.419c0.07-0.395,0.14-0.767,0.186-1.163c0.395-2.349,0.814-4.674,1.209-6.977      c0.977-5.512,1.977-11.186,2.605-16.838c0.372-3.302,0.605-6.535,0.674-9.674c0.023-0.395,0.023-0.791,0.023-1.186      c0.186-11.233-1.395-21.466-4.768-30.513c-0.674-1.791-1.419-3.558-2.209-5.303c-0.163-0.372-0.349-0.767-0.535-1.14      c-2.349-4.977-5.14-9.744-7.861-14.419c-1.93-3.326-3.93-6.767-5.744-10.209c-2.791-5.279-5.209-10.745-7.279-16.35      c-0.14-0.349-0.279-0.721-0.395-1.07c-3.023-8.396-5.256-17.117-6.628-25.954c-0.07-0.372-0.14-0.744-0.186-1.116      c-1.581-10.442-1.977-21.07-1.14-31.559c0.093-1.279,0.209-2.535,0.349-3.814l1.14,0.116c-0.14,1.372-0.279,2.744-0.372,4.14      c-0.791,10.279-0.395,20.698,1.14,30.954c0.07,0.372,0.116,0.744,0.186,1.116c1.372,8.791,3.605,17.442,6.628,25.768      c0.116,0.372,0.233,0.721,0.395,1.047c2.023,5.558,4.442,10.977,7.186,16.186c1.814,3.419,3.814,6.837,5.721,10.14      c2.814,4.837,5.698,9.791,8.117,14.954c0.186,0.372,0.372,0.767,0.535,1.14c0.744,1.628,1.419,3.279,2.047,4.954      c3.395,9.117,5,19.419,4.814,30.722c0,0.372,0,0.767-0.023,1.186c-0.07,3.256-0.302,6.605-0.674,10.024      c-0.628,5.675-1.628,11.373-2.605,16.908c-0.395,2.209-0.791,4.442-1.163,6.675c-0.047,0.395-0.116,0.791-0.186,1.186      c-0.721,4.488-1.349,9.047-1.651,13.559c-0.326,4.395-0.302,8.535,0.023,12.419c0.023,0.396,0.07,0.791,0.116,1.163v0.023      c0.93,9.163,3.675,16.861,8.21,23.047c2.581,3.512,5.768,6.116,9.465,7.977h0.023c0.651,0.325,1.326,0.628,2,0.93      c9.651,4.047,22.07,3.791,34.373,2.326c0.442-0.046,0.884-0.093,1.326-0.163c5.256-0.651,10.442-1.511,15.373-2.326      c3.349-0.558,6.605-1.093,9.698-1.558c3.163-0.442,6.326-0.93,9.512-1.419c17.163-2.651,34.815-5.372,52.071-3.744      c0.395,0.046,0.767,0.07,1.163,0.14c3.512,0.349,7.023,0.907,10.512,1.698c3.302,0.744,6.628,1.698,9.814,2.628      c4,1.14,8.117,2.326,12.256,3.093c0.372,0.093,0.744,0.14,1.116,0.186h0.023c1.977,0.349,3.93,0.605,5.907,0.698      c4.489,0.209,9.279-0.512,13.582-2.349h0.093c0.326-0.117,0.628-0.256,0.954-0.419c4.279-2,7.884-5.14,9.791-9.582      c-0.814-4.698-1.558-9.442-2.186-14.233c-0.07-0.395-0.116-0.767-0.163-1.14c-1.861-13.954-3.023-28.326-3.488-42.908      c-0.07-2.605-0.14-5.326-0.116-8.117c0-0.395,0.023-0.767,0.023-1.163c0.093-6.488,0.674-13.279,2.512-19.838      c1.93-6.954,5.209-13.349,9.023-19.466c0.326-0.558,0.674-1.093,1-1.651v-0.023c1.07-1.628,2.14-3.233,3.233-4.814      c0.209-0.325,0.442-0.651,0.674-0.977c1.302-1.931,2.651-3.814,3.977-5.698c3.326-4.698,6.768-9.558,9.768-14.535      c3.07-5.093,5.721-10.442,7.93-15.977c0.186-0.442,0.372-0.884,0.535-1.326c5.558-14.372,8.256-29.908,7.907-45.35      c0-0.535,0-1.07-0.023-1.581c-0.302-8.466-1.512-16.884-3.675-25.047c-0.163-0.698-0.349-1.395-0.558-2.093l1.116-0.302      c0.163,0.558,0.326,1.116,0.442,1.697c2.186,8.024,3.442,16.303,3.768,24.652c0.047,0.535,0.07,1.046,0.07,1.581      C356.559,276.594,353.931,292.408,348.35,307.059z"/>
			</g>
			<g>
				<path style="fill:#FFECDF;" d="M161.673,473.14c-8.209-10.806-12.684-24.229-12.6-37.796c0.065-10.436,2.793-20.742,5.431-30.71      c2.844-10.747,5.786-21.857,5.326-33.029c-0.745-18.076-10.82-36.361-26.949-48.916c-3.305-2.573-6.893-4.958-10.363-7.263      c-7.306-4.855-14.862-9.877-20.256-16.968c-12.615-16.586-10.381-39.543-7.025-57.691l1.142,0.214      c-3.311,17.91-5.531,40.549,6.809,56.774c5.275,6.934,12.747,11.901,19.973,16.704c3.488,2.317,7.094,4.713,10.433,7.313      c16.398,12.762,26.639,31.373,27.399,49.783c0.467,11.349-2.497,22.548-5.364,33.377c-2.62,9.898-5.328,20.134-5.393,30.422      c-0.083,13.311,4.308,26.481,12.364,37.083L161.673,473.14z"/>
			</g>
			<g>
				<path style="fill:#FFECDF;" d="M212.26,464.21l-0.109-0.565c-2.823-14.665-6.023-31.283-16.272-42.386      c-1.943-2.105-4.144-4.043-6.272-5.916c-2.478-2.18-5.039-4.435-7.241-6.99c-10.807-12.541-13.156-31.469-7.179-57.862      l0.496-2.178c2.828-12.36,5.752-25.142,0.418-36.148c-3.374-6.963-9.346-11.762-15.667-16.841      c-4.077-3.275-8.292-6.661-11.701-10.663c-8.784-10.315-11.966-25.371-8.108-38.357l1.115,0.331      c-3.75,12.619-0.656,27.249,7.879,37.272c3.338,3.92,7.508,7.27,11.543,10.511c6.145,4.935,12.498,10.041,15.987,17.238      c5.512,11.376,2.541,24.36-0.332,36.917l-0.496,2.176c-5.889,26.007-3.622,44.601,6.927,56.844      c2.15,2.494,4.681,4.722,7.129,6.877c2.151,1.892,4.374,3.85,6.357,5.998c10.473,11.349,13.708,28.139,16.56,42.956l0.109,0.568      L212.26,464.21z"/>
			</g>
			<g>
				<path style="fill:#FFECDF;" d="M250.225,463.342l-1.161-0.068l0.045-0.772c1.376-23.484,2.938-50.101-8.499-70.851      c-4.102-7.44-9.735-14.099-15.184-20.538c-6.263-7.402-12.74-15.056-16.952-23.963c-4.567-9.657-6.581-21.151-5.822-33.243      c0.352-5.612,1.282-11.245,2.18-16.691c0.908-5.501,1.847-11.19,2.184-16.829c0.555-9.321-0.56-22.284-9.023-31.112l0.84-0.804      c8.753,9.13,9.912,22.432,9.344,31.984c-0.34,5.701-1.283,11.422-2.196,16.952c-0.895,5.417-1.819,11.02-2.168,16.573      c-0.746,11.896,1.23,23.195,5.713,32.675c4.147,8.769,10.573,16.363,16.788,23.706c5.485,6.484,11.157,13.186,15.313,20.726      c11.599,21.047,10.028,47.842,8.642,71.482L250.225,463.342z"/>
			</g>
			<g>
				<path style="fill:#FFECDF;" d="M283.035,471.255c-5.561-13.332-4.311-28.146-3.102-42.473      c1.094-12.964,2.225-26.368-1.68-38.662c-2.837-8.932-8.27-17.018-13.526-24.835c-6.548-9.743-13.318-19.818-15.037-31.557      c-1.859-12.698,2.451-25.23,6.619-37.349c0.577-1.678,1.151-3.35,1.708-5.015c4.173-12.487,8.085-28.509,1.238-41.682      l1.031-0.536c7.049,13.559,3.081,29.882-1.165,42.586c-0.558,1.669-1.134,3.343-1.712,5.024      c-4.122,11.989-8.386,24.385-6.567,36.804c1.68,11.478,8.376,21.442,14.851,31.076c5.301,7.888,10.781,16.041,13.669,25.135      c3.973,12.512,2.833,26.032,1.73,39.109c-1.197,14.188-2.435,28.857,3.018,41.925L283.035,471.255z"/>
			</g>
			<g>
				<path style="fill:#FFECDF;" d="M304.459,469.265l-1.163-0.036c0.171-5.637,0.244-11.698,0.315-17.56      c0.07-5.885,0.143-11.969,0.316-17.633c0.45-14.774,0.915-30.052-2.866-44.605c-1.723-6.636-4.356-13.148-6.903-19.443      c-3.412-8.44-6.942-17.168-8.337-26.325c-2.163-14.192,0.769-30.063,8.481-45.895c1.236-2.539,2.589-5.076,3.897-7.531      c3.215-6.028,6.539-12.26,8.332-18.914c2.254-8.369,2.001-19.782-5.47-26.715l0.79-0.854c7.85,7.286,8.144,19.175,5.802,27.874      c-1.826,6.78-5.183,13.073-8.427,19.157c-1.304,2.446-2.653,4.974-3.879,7.493c-7.608,15.619-10.505,31.253-8.377,45.209      c1.375,9.025,4.879,17.688,8.267,26.066c2.56,6.332,5.208,12.877,6.951,19.588c3.822,14.713,3.354,30.075,2.902,44.932      c-0.173,5.653-0.245,11.731-0.316,17.611C304.703,457.549,304.63,463.617,304.459,469.265z"/>
			</g>
			<g>
				<path style="fill:#FFECDF;" d="M323.916,345.938c-4.891-13.47-5.018-28.885-0.343-41.235c1.456-3.845,3.344-7.581,5.171-11.195      c2.75-5.439,5.594-11.065,6.932-17.061c2.682-12.012-0.783-24.649-4.926-36.515l1.097-0.382      c4.202,12.028,7.709,24.853,4.965,37.152c-1.369,6.136-4.247,11.828-7.029,17.331c-1.814,3.586-3.688,7.295-5.122,11.083      c-4.581,12.096-4.45,27.208,0.348,40.426L323.916,345.938z"/>
			</g>
			<g>
				<path style="fill:#FFECDF;" d="M288.929,241.662c-1.395,1.186-2.768,2.396-4.14,3.582c-1.279,1.163-2.605,2.302-3.907,3.419      h-0.023c-0.07,0.07-0.163,0.14-0.233,0.209c-5.628,4.837-11.186,9.256-16.675,13.233c-0.372,0.279-0.744,0.558-1.116,0.79      c-9.21,6.651-18.233,12.117-27.21,16.489c-6.07,2.977-12.117,5.419-18.163,7.396c-3.395,1.116-6.814,2.07-10.256,2.907      c-0.419,0.116-0.837,0.209-1.233,0.302c-15.163,3.558-30.466,4.628-44.466,4.698h-1.861c-6.512-0.023-12.698-0.232-18.442-0.535      c-2.279-0.14-4.582-0.256-6.861-0.395c-11.14-0.651-22.675-1.326-33.908-0.116c-0.07,0-0.116,0.023-0.186,0.023      c-0.326,0.046-0.674,0.07-1.023,0.14c-4.349,0.512-9.326,1.442-14.466,3.023c-0.372,0.116-0.744,0.256-1.116,0.372      c-0.14-0.349-0.279-0.721-0.395-1.07c0.372-0.14,0.744-0.256,1.116-0.349c5.023-1.605,9.931-2.535,14.233-3.07      c0.419-0.07,0.837-0.116,1.233-0.163c0.093,0,0.186-0.023,0.279-0.023c11.396-1.256,23.047-0.581,34.303,0.07      c2.279,0.14,4.558,0.279,6.837,0.395c5.302,0.279,10.977,0.488,16.931,0.512c0.605,0.023,1.233,0.023,1.861,0.023      c14.442,0,30.396-1.023,46.094-4.744c0.419-0.116,0.814-0.209,1.233-0.326c3.256-0.79,6.512-1.721,9.744-2.768      c5.186-1.698,10.372-3.744,15.582-6.186c9.884-4.605,19.861-10.558,30.024-17.931c0.372-0.232,0.721-0.511,1.07-0.767      c5-3.651,10.024-7.652,15.117-12c0.326-0.279,0.628-0.535,0.954-0.814c1.395-1.186,2.791-2.396,4.186-3.605      c0.954-0.837,1.93-1.698,2.884-2.535c0.023,0,0.023,0,0.023,0C287.604,241.778,288.278,241.709,288.929,241.662z"/>
			</g>
			<g>
				<path style="fill:#FFECDF;" d="M197.159,244.732c-0.86,0.535-1.721,1.07-2.581,1.605c-2.395,1.488-4.814,3-7.279,4.488      c-4.07,2.465-8.186,4.861-12.396,7c-2.907,1.488-5.861,2.86-8.861,4.093c-7.884,3.302-16.024,5.744-24.187,7.326      c-0.395,0.093-0.767,0.163-1.163,0.233c-7.744,1.442-15.512,2.07-23.187,1.907c-4.698-0.116-9.489-0.558-14.093-0.954      c-3.116-0.279-6.303-0.558-9.512-0.744c-0.395-0.023-0.767-0.046-1.163-0.046c-2.047-0.116-4.116-0.186-6.163-0.186      c-3.116,0.023-6.07,0.209-8.837,0.558c-0.372,0.047-0.744,0.116-1.116,0.163c-0.07-0.372-0.14-0.744-0.186-1.116      c0.372-0.07,0.744-0.116,1.116-0.163c2.837-0.395,5.837-0.581,9.024-0.605c2.023,0,4.07,0.07,6.116,0.163      c0.395,0.023,0.767,0.047,1.163,0.07c3.256,0.186,6.489,0.442,9.651,0.744c4.605,0.396,9.349,0.837,14.047,0.954      c7.558,0.186,15.21-0.442,22.815-1.861c0.395-0.047,0.767-0.117,1.163-0.209c7.861-1.512,15.675-3.838,23.303-7      c3.233-1.302,6.419-2.768,9.558-4.372c3.628-1.86,7.21-3.884,10.745-6c2.977-1.791,5.93-3.628,8.837-5.419      c0.349-0.21,0.698-0.442,1.047-0.651C195.717,244.709,196.438,244.732,197.159,244.732z"/>
			</g>
			<g>
				<path style="fill:#FFECDF;" d="M356.048,260.919c-0.372,0.372-0.744,0.744-1.14,1.093c-5.465,5.117-11.465,9.675-17.861,13.512      c-0.442,0.302-0.884,0.558-1.349,0.814c-10.024,5.86-20.977,10.093-32.373,12.442c-1.116,0.233-2.233,0.442-3.372,0.628      c-0.465,0.093-0.93,0.163-1.419,0.256h-0.023c-5.256,0.86-10.582,1.418-15.791,1.977c-8.233,0.861-16.745,1.767-24.884,3.861      c-0.442,0.116-0.907,0.232-1.349,0.349c-1,0.279-2,0.558-3,0.884c-9.024,2.884-17.512,7.558-25.698,12.07      c-2.233,1.21-4.465,2.442-6.698,3.628c-5.837,3.093-11.652,5.907-17.419,8.419c-0.372,0.186-0.767,0.349-1.14,0.512      c-7.512,3.256-15,6-22.396,8.256c-0.419,0.116-0.837,0.256-1.233,0.372c-6.535,1.93-12.977,3.488-19.373,4.628      c-3.861,0.698-7.768,1.256-11.675,1.721c-0.442,0.047-0.884,0.116-1.326,0.163c-9.884,1.116-19.861,1.651-29.629,2.163      c-3.512,0.186-7.047,0.349-10.582,0.581c-0.419,0.023-0.837,0.047-1.256,0.07c-0.163-0.372-0.349-0.767-0.535-1.14      c0.419-0.023,0.837-0.046,1.256-0.07c3.698-0.233,7.396-0.419,11.047-0.605c9.489-0.512,19.21-1.023,28.838-2.093      c0.465-0.046,0.93-0.093,1.372-0.163c4.116-0.465,8.233-1.046,12.279-1.767c6.489-1.163,13.047-2.745,19.675-4.745      c0.395-0.093,0.791-0.232,1.209-0.372c7.372-2.233,14.814-5,22.303-8.256c0.372-0.14,0.767-0.326,1.14-0.488      c5.605-2.465,11.256-5.209,16.907-8.21c2.233-1.186,4.442-2.418,6.675-3.628c8.233-4.535,16.768-9.233,25.908-12.14      c1.256-0.395,2.512-0.768,3.791-1.093c0.442-0.14,0.884-0.232,1.349-0.325c7.977-2,16.28-2.884,24.326-3.745      c5.465-0.558,11.093-1.163,16.605-2.116c0.488-0.07,0.954-0.163,1.442-0.256c0.814-0.14,1.628-0.302,2.442-0.465      c11.605-2.372,22.745-6.745,32.885-12.814c0.442-0.233,0.884-0.512,1.326-0.814c6.326-3.884,12.233-8.442,17.582-13.582      c0.372-0.349,0.744-0.698,1.093-1.093C356.024,259.872,356.048,260.384,356.048,260.919z"/>
			</g>
			<g>
				<path style="fill:#FFECDF;" d="M348.35,307.059c-0.163,0.442-0.326,0.884-0.512,1.326c-0.465,0.116-0.907,0.21-1.372,0.303      c-7.814,1.721-15.884,2.581-23.861,3.372c-0.395,0.023-0.791,0.07-1.186,0.116c-0.349,0.023-0.698,0.07-1.047,0.093      c-6.861,0.651-13.954,1.349-20.768,2.511c-3.744,0.651-7.465,1.442-11.163,2.396c-0.419,0.093-0.837,0.209-1.279,0.326      c-12.512,3.279-24.722,8.023-36.652,13.116c-0.372,0.14-0.744,0.302-1.093,0.465c-4.116,1.744-8.21,3.535-12.256,5.326      c-4.907,2.163-10,4.395-15.024,6.512c-3.977,1.698-8,3.326-12.024,4.907c-0.372,0.163-0.721,0.302-1.093,0.419      c-11.372,4.489-22.908,8.582-34.559,12.256c-0.419,0.14-0.837,0.279-1.256,0.395c-4.279,1.372-8.582,2.651-12.907,3.884      c-0.372,0.116-0.744,0.233-1.116,0.326c-15.163,4.349-30.513,8.023-46.025,11c-0.372,0.093-0.744,0.163-1.14,0.21      c0.023-0.395,0.023-0.791,0.023-1.186c0.372-0.047,0.767-0.116,1.14-0.21c15.419-2.977,30.699-6.651,45.792-10.954      c0.372-0.116,0.744-0.21,1.116-0.326c4.465-1.279,8.907-2.628,13.326-4.023c0.419-0.116,0.837-0.256,1.256-0.396      c11.396-3.628,22.698-7.628,33.838-12.024c0.372-0.116,0.721-0.256,1.07-0.442c4.07-1.558,8.093-3.209,12.117-4.907      c5-2.116,10.093-4.349,15-6.512c4.186-1.837,8.396-3.698,12.628-5.489c0.372-0.163,0.767-0.326,1.14-0.488      c12.024-5.116,24.326-9.884,37.001-13.14c0.442-0.116,0.861-0.232,1.302-0.325c3.512-0.884,7.07-1.651,10.651-2.256      c6.837-1.186,13.954-1.884,20.838-2.535c0.488-0.047,0.954-0.093,1.442-0.14c0.395-0.046,0.791-0.07,1.186-0.116      c8.093-0.79,16.256-1.697,24.117-3.488C347.443,307.269,347.908,307.176,348.35,307.059z"/>
			</g>
			<g>
				<path style="fill:#FFECDF;" d="M322.791,349.968c-0.395,0.558-0.767,1.139-1.116,1.697v0.023      c-0.581,0.21-1.186,0.442-1.791,0.675c-5.047,1.814-10.279,3.279-15.675,4c-4.558,0.628-9.186,0.744-13.745,0.744      c-0.419,0.023-0.814,0.023-1.233,0.023h-1.349c-3.814,0.023-7.744,0.023-11.605,0.302c-4.721,0.349-9.396,1.07-14,2.093      c-0.395,0.093-0.814,0.186-1.209,0.279c-11.442,2.698-22.512,7.233-33.327,12.233c-0.372,0.163-0.721,0.326-1.093,0.489      c-3.768,1.744-7.535,3.558-11.256,5.349c-6.093,2.907-12.396,5.93-18.652,8.651c-6.582,2.884-13.512,5.581-20.815,8.117      c-0.372,0.14-0.721,0.256-1.093,0.395c-5.791,1.977-11.814,3.884-18.117,5.698c-0.419,0.116-0.86,0.256-1.302,0.372      c-7.233,2.047-14.814,4-22.791,5.861c-7.605,1.768-15.814,3.465-24.094,3.93c-0.395,0.047-0.791,0.07-1.186,0.07      c0.07-0.395,0.14-0.767,0.186-1.163c0.395-0.023,0.791-0.046,1.186-0.093c8.117-0.465,16.163-2.14,23.652-3.884      c8.21-1.907,16-3.907,23.396-6.024c0.442-0.14,0.884-0.256,1.302-0.372c6.047-1.767,11.838-3.582,17.396-5.489      c0.372-0.14,0.721-0.256,1.093-0.396c7.279-2.535,14.163-5.209,20.722-8.07c6.233-2.721,12.512-5.745,18.605-8.675      c3.628-1.744,7.303-3.512,10.977-5.21c0.372-0.163,0.721-0.349,1.093-0.488c10.861-5,21.954-9.582,33.466-12.326      c0.395-0.093,0.791-0.186,1.186-0.279c4.791-1.093,9.628-1.884,14.582-2.232c3.907-0.279,7.861-0.279,11.698-0.302h0.977      c0.395,0,0.814,0,1.233-0.023c4.628,0,9.349-0.093,13.954-0.744c5.814-0.791,11.442-2.419,16.838-4.488v-0.023      C321.535,350.479,322.163,350.223,322.791,349.968z"/>
			</g>
			<g>
				<path style="fill:#FFECDF;" d="M309.511,391.69c-0.023,0.395-0.023,0.791-0.023,1.163c-0.395,0-0.767,0-1.163-0.023      c-1.651-0.046-3.279-0.116-4.884-0.186c-0.14,0-0.302-0.023-0.442-0.023c-0.395,0-0.791-0.023-1.186-0.047      c-4.558-0.186-9.21-0.302-13.791,0.093c-2.558,0.233-5.07,0.605-7.558,1.14c-0.395,0.046-0.767,0.14-1.14,0.233      c-11,2.442-21.442,7.396-31.606,12.489c-0.349,0.186-0.698,0.372-1.07,0.535c-0.791,0.419-1.581,0.814-2.372,1.21      c-4.791,2.395-9.721,4.907-14.652,7.116c-8.814,4-18.187,7.372-28.745,10.396c-0.372,0.116-0.767,0.233-1.186,0.325      c-10.768,3.024-22.768,5.628-36.536,8c-4.186,0.721-8.512,1.419-12.931,2.023c-0.372,0.047-0.744,0.117-1.14,0.163      c-9.675,1.302-19.791,2.233-30.001,2.233c-4.023,0-8.047-0.14-12.07-0.465v-0.023c-0.395,0-0.791-0.046-1.186-0.07      c-0.047-0.372-0.07-0.767-0.093-1.186c0.372,0.047,0.767,0.07,1.163,0.093c14.303,1.163,28.652,0.07,42.164-1.767      c0.395-0.046,0.767-0.093,1.163-0.163c4.349-0.605,8.582-1.279,12.721-1.977c13.582-2.349,25.396-4.907,36.024-7.861      c0.419-0.116,0.837-0.232,1.233-0.349c10.651-3,20.094-6.442,28.954-10.419c4.884-2.209,9.814-4.721,14.582-7.116      c0.86-0.442,1.721-0.884,2.605-1.302c0.349-0.186,0.698-0.372,1.047-0.535c10.163-5.116,20.605-10.047,31.652-12.489      c0.372-0.093,0.767-0.186,1.14-0.256c2.558-0.535,5.14-0.907,7.744-1.14c4.535-0.395,9.14-0.279,13.605-0.093      c0.419,0,0.814,0.023,1.209,0.047c0.256,0,0.488,0.023,0.744,0.023c1.605,0.07,3.233,0.14,4.861,0.186      C308.721,391.69,309.116,391.69,309.511,391.69z"/>
			</g>
			<g>
				<path style="fill:#FFECDF;" d="M313.209,444.691c-0.372,0.116-0.744,0.21-1.116,0.302c-2.465,0.675-4.907,1.14-7.256,1.489      c-0.395,0.047-0.791,0.093-1.186,0.163c-3.465,0.419-6.675,0.558-9.326,0.558h-0.14c-4.721,0-9.442-0.372-14.117-0.86      c-0.395-0.047-0.791-0.093-1.186-0.14c-2.837-0.302-5.651-0.674-8.442-1.023c-6.303-0.814-12.838-1.651-19.28-1.931      c-0.349-0.023-0.721-0.023-1.07-0.046h-0.093c-13.512-0.465-26.861,1.605-40.001,4.791c-0.372,0.07-0.767,0.163-1.14,0.279      c-10.233,2.512-20.349,5.675-30.303,8.791c-7.093,2.21-14.279,4.442-21.536,6.466c-0.372,0.116-0.744,0.209-1.14,0.326      c-9.605,2.628-19.326,4.884-29.164,6.163c-0.744,0.093-1.465,0.186-2.209,0.256c-0.628-0.279-1.233-0.604-1.814-0.977      c0.674-0.046,1.326-0.139,2-0.209h0.023c10.303-1.209,20.512-3.535,30.606-6.302c0.372-0.093,0.767-0.21,1.163-0.302      c7.303-2.047,14.559-4.302,21.722-6.535c9.977-3.117,20.117-6.279,30.373-8.791c0.372-0.117,0.767-0.209,1.14-0.302      c13.21-3.186,26.652-5.279,40.28-4.814h0.14c0.349,0,0.674,0.023,1.023,0.046c6.512,0.279,13.07,1.117,19.442,1.931      c2.744,0.349,5.512,0.721,8.303,1.023c0.395,0.047,0.791,0.093,1.186,0.116c4.675,0.512,9.396,0.884,14.093,0.884h0.14      c2.651,0,5.861-0.139,9.349-0.581c0.372-0.046,0.767-0.093,1.163-0.163c2.279-0.325,4.675-0.79,7.093-1.442      c0.372-0.093,0.767-0.209,1.14-0.326C313.093,443.924,313.139,444.296,313.209,444.691z"/>
			</g>
		</g>
		<g>
			<polygon style="fill:#FFC279;" points="21.786,287.151 125.177,270.725 54.223,365.682    "/>
			<path style="fill:#7843D4;" d="M82.082,432.245c-1.022,0-1.994-0.595-2.426-1.592L16.548,285.261     c-0.581-1.338,0.032-2.893,1.372-3.475c1.34-0.588,2.896,0.034,3.475,1.372L84.503,428.55c0.581,1.338-0.032,2.893-1.372,3.475     C82.788,432.175,82.432,432.245,82.082,432.245z"/>
		</g>
		<g>
			<g>
				<path style="fill:#7843D4;" d="M457.012,205.722c16.293,14.087,25.802,35.695,25.182,57.225      c-0.62,21.53-11.355,42.555-28.432,55.682c-10.98,8.44-24.077,13.557-36.37,19.933c-12.293,6.376-24.384,14.612-30.814,26.877      c7.427-8.539,17.138-10.884,28.004-14.048c10.865-3.164,22.134-5.074,32.607-9.361c19.553-8.003,35.307-24.205,44.149-43.393      c8.843-19.188,10.986-41.147,7.541-61.991c-1.736-10.506-5.113-21.236-12.636-28.773      C478.72,200.336,466.073,200.128,457.012,205.722z"/>
				<path style="fill:#CB6BE5;" d="M375.81,359.654c6.936-38.553-1.1-78.812,7.334-117.065c2.422-10.985,6.249-21.792,12.559-31.104      c6.31-9.312,15.26-17.074,25.914-20.685c8.763-2.97,18.321-3.039,27.426-1.39c13.806,2.501,26.875,8.945,37.266,18.373      c-31.237-5.986-65.819,11.54-79.473,40.266c-8.656,18.21-9.34,39.006-11.557,59.046      C393.062,327.135,389.972,345.302,375.81,359.654z"/>
			</g>
			<circle style="fill:#FFC279;" cx="367.511" cy="385.424" r="45.424"/>
			<path style="fill:#FFECDF;" d="M367.51,428.461c-23.731,0-43.036-19.307-43.036-43.038s19.305-43.036,43.036-43.036     s43.038,19.305,43.038,43.036S391.241,428.461,367.51,428.461z M367.51,343.55c-23.088,0-41.873,18.785-41.873,41.873     c0,23.091,18.785,41.875,41.873,41.875c23.091,0,41.875-18.785,41.875-41.875C409.385,362.335,390.601,343.55,367.51,343.55z"/>
			<g>
				<path style="fill:#FFECDF;" d="M360.546,368.707c3.795,0.584,6.576,1.35,13.209-0.436l8.822,6.16l-19.59,28.056l4.609,3.218      l-4.602,6.59l-19.825-13.843l4.602-6.59l4.956,3.46l12.841-18.391l-6.582-1.132L360.546,368.707z"/>
			</g>
		</g>
		<g>
			<circle style="fill:#CB6BE5;" cx="67.552" cy="166.813" r="21.772"/>
			<circle style="fill:#FFC279;" cx="401.654" cy="121.685" r="21.772"/>
			<path style="fill:#EEA6FF;" d="M418.675,295.466c0,9.182-7.443,16.626-16.626,16.626c-9.182,0-16.626-7.444-16.626-16.626     c0-9.182,7.444-16.626,16.626-16.626C411.232,278.84,418.675,286.284,418.675,295.466z"/>
			<circle style="fill:#EEA6FF;" cx="90.115" cy="370.678" r="16.626"/>
			<g>
				<path style="fill:#FFC279;" d="M97.989,125.963c-0.625,0-1.238-0.059-1.84-0.177c-0.631-0.123-1.042-0.734-0.918-1.363      c0.12-0.634,0.74-1.049,1.363-0.918c2.803,0.538,6.041-0.6,9.639-3.411c2.959-2.317,7.947-7.122,8.101-13.295      c0.095-3.822-1.833-7.776-5.031-10.316c-0.354-0.279-0.722-0.545-1.102-0.79c-0.295,1.097-0.702,2.162-1.22,3.168      c-2.269,4.417-6.707,7.751-11.583,8.701c-1.787,0.345-3.289,0.3-4.576-0.145c-1.771-0.613-3.143-2.024-3.863-3.972      c-0.847-2.287-0.638-4.96,0.541-6.977c1.835-3.136,5.671-5.224,10.263-5.58c3.007-0.238,5.996,0.229,8.669,1.292      c0.143-2.342-0.263-4.719-1.231-6.836c-2.26-4.944-7.588-8.569-13.572-9.234c-5.433-0.613-11.299,1.047-16.525,4.649      c-0.52,0.361-1.249,0.234-1.617-0.3c-0.363-0.527-0.229-1.251,0.3-1.617c5.685-3.915,12.11-5.712,18.099-5.044      c6.782,0.754,12.836,4.908,15.432,10.579c1.251,2.741,1.697,5.862,1.347,8.878c0.734,0.42,1.431,0.89,2.083,1.408      c3.759,2.984,6.023,7.656,5.912,12.196c-0.179,7.129-5.712,12.5-8.996,15.067C104.232,124.612,100.987,125.963,97.989,125.963z       M99.297,93.152c-0.45,0-0.902,0.018-1.351,0.052c-3.834,0.3-6.988,1.958-8.437,4.438c-0.824,1.408-0.968,3.37-0.368,4.997      c0.475,1.283,1.342,2.198,2.444,2.58c0.893,0.311,1.994,0.329,3.37,0.059c4.193-0.815,8.01-3.682,9.961-7.479      c0.525-1.022,0.918-2.114,1.174-3.243C104.012,93.641,101.68,93.152,99.297,93.152z"/>
				<path style="fill:#FFC279;" d="M370.115,224.638c-0.116,0-0.234-0.018-0.352-0.055c-2.217-0.704-4.036-2.489-4.987-4.894      c-1.058-2.675-0.911-5.669,0.395-8.01c1.892-3.384,5.898-5.455,10.057-5.455c0.052,0,0.102,0,0.154,0      c1.953-3.55,5.896-6.123,10.341-6.491c4.115-0.35,8.542,1.108,12.323,4.031c1.603-0.661,3.479-1.004,5.56-1.004      c0.032,0,0.064,0,0.098,0c6.886,0.034,13.552,3.607,17.39,9.328c0.359,0.531,0.216,1.254-0.318,1.613      c-0.525,0.354-1.251,0.22-1.613-0.318c-3.416-5.087-9.343-8.267-15.473-8.296c-1.056,0.036-2.344,0.091-3.622,0.441      c1.045,1.027,2.314,2.507,2.882,4.395c0.679,2.239,0.107,4.669-1.424,6.041c-1.122,1.011-2.7,1.394-4.34,1.031      c-1.824-0.393-3.393-1.628-4.093-3.22c-1.213-2.759-0.207-6.33,2.394-8.487c0.111-0.091,0.225-0.182,0.338-0.268      c-3.125-2.176-6.627-3.232-9.909-2.968c-3.255,0.27-6.246,2.033-7.972,4.476c0.118,0.027,0.234,0.055,0.35,0.084      c3.164,0.82,5.682,2.741,6.911,5.269c1.456,2.984,0.795,6.72-1.538,8.687c-0.216,0.186-0.475,0.261-0.781,0.275      c-2.439-0.066-4.808-1.32-6.495-3.441c-1.88-2.362-2.671-5.421-2.114-8.183c0.043-0.218,0.095-0.434,0.152-0.647      c-3.041,0.227-5.857,1.794-7.227,4.245c-0.956,1.71-1.056,4.015-0.263,6.021c0.695,1.751,1.98,3.039,3.529,3.532      c0.613,0.195,0.952,0.849,0.756,1.46C371.067,224.322,370.608,224.638,370.115,224.638z M376.829,208.676      c-0.114,0.327-0.204,0.661-0.273,0.999c-0.422,2.099,0.195,4.445,1.653,6.275c1.149,1.444,2.687,2.348,4.279,2.532      c1.249-1.356,1.538-3.713,0.627-5.587c-0.918-1.887-2.939-3.395-5.403-4.034C377.419,208.785,377.124,208.724,376.829,208.676z       M397.732,206.525c-0.263,0.166-0.518,0.347-0.761,0.55c-1.79,1.485-2.541,3.961-1.749,5.762      c0.397,0.908,1.363,1.649,2.453,1.885c0.902,0.191,1.735,0.014,2.296-0.491c0.858-0.77,1.167-2.267,0.752-3.638      c-0.366-1.213-1.201-2.401-2.635-3.741C397.971,206.741,397.853,206.632,397.732,206.525z"/>
				<path style="fill:#FFC279;" d="M138.874,381.076c-4.642,0.002-9.462-2.632-11.878-6.947c-1.751-3.127-2.294-6.877-1.669-10.572      c-0.797-0.42-1.535-0.933-2.196-1.531c-3.859-3.498-5.517-9.516-4.324-15.705c0.74-3.84,2.376-7.175,4.726-9.646      c0.445-0.466,1.181-0.481,1.644-0.041c0.466,0.443,0.484,1.179,0.041,1.644c-2.044,2.146-3.473,5.081-4.127,8.483      c-0.815,4.229-0.298,10.007,3.602,13.543c0.363,0.329,0.765,0.627,1.192,0.89c0.513-1.66,1.265-3.282,2.253-4.797      c1.295-1.978,2.694-3.28,4.277-3.986c2.185-0.972,4.676-0.64,6.2,0.813c2.205,2.108,1.762,5.603,0.225,7.824      c-1.458,2.11-3.822,3.452-6.654,3.779c-1.558,0.182-3.139,0.045-4.617-0.377c-0.404,3.027,0.068,6.059,1.458,8.542      c2.664,4.756,8.805,7.07,13.395,5.042c0.59-0.254,1.272,0.009,1.533,0.597c0.257,0.588-0.009,1.274-0.597,1.533      C141.947,380.786,140.419,381.076,138.874,381.076z M128.045,362.16c1.238,0.377,2.573,0.509,3.872,0.359      c2.16-0.25,3.938-1.24,5.01-2.791c0.981-1.419,1.292-3.663,0.082-4.819c-0.838-0.799-2.342-0.949-3.65-0.37      c-1.161,0.518-2.233,1.542-3.275,3.132C129.172,359.071,128.488,360.595,128.045,362.16z"/>
			</g>
		</g>
	</g>
</g>















</svg>
