<?xml version="1.0" encoding="UTF-8"?>
<!-- Generator: Adobe Illustrator 25.2.1, SVG Export Plug-In . SVG Version: 6.00 Build 0)  -->
<svg xmlns="http://www.w3.org/2000/svg" xmlns:xlink="http://www.w3.org/1999/xlink" version="1.1" id="Capa_1" x="0px" y="0px" viewBox="0 0 512 512" style="enable-background:new 0 0 512 512;" xml:space="preserve" width="512" height="512">
<g>
	<path style="fill:#FFFFFF;" d="M511.999,197.588c-0.048-6.313-1.4-11.164-3.198-14.838c1.233-11.225-3.157-21.543-11.701-26.941   c-3.923-2.471-8.559-3.778-13.412-3.778c-3.47,0-6.917,0.656-10.234,1.945c-5.483,2.128-9.61,5.54-12.53,8.41   c-1.818-1.353-3.591-2.59-5.363-3.723c2.337-3.378,2.999-7.685,1.712-11.66l-12.525-38.638c-1.458-4.492-5.188-7.876-9.801-8.886   c-0.946-0.206-1.9-0.307-2.845-0.307c-3.669,0-7.229,1.523-9.773,4.284l-3.477,3.769c1.201-7.395,1.16-14.955-0.141-22.251   c-0.106-0.647-0.219-1.251-0.357-1.843c-2.983-14.667-10.933-28.056-22.413-37.728c-1.084-0.911-2.196-1.785-3.312-2.602   c-0.329-0.256-0.675-0.51-1.056-0.78c-0.078-0.058-0.158-0.116-0.238-0.172c-11.296-7.962-24.587-12.17-38.432-12.17   c-17.471,0-34.058,6.766-46.468,18.765c-4.721-0.976-9.382-1.783-13.914-2.407c-9.881-1.396-20.063-2.103-30.262-2.103   c-27.935,0-55.159,5.19-80.928,15.43c-36.226,14.414-68.078,38.374-92.146,69.314l-20.34,22.067   c-3.198,3.466-4.316,8.367-2.945,12.88c0.123,0.403,0.264,0.798,0.424,1.186c-10.152,20.163-17.062,41.647-20.58,64.013   c-0.755,4.76-1.352,9.632-1.772,14.446c-0.595,6.582-0.896,13.261-0.896,19.849c0,0.71,0.004,1.419,0.011,2.131   c-3.587-1.303-7.181-1.963-10.684-1.963c-2.527,0-4.991,0.348-7.311,1.03c-8.7,2.547-15.115,9.719-16.344,18.28   c-0.543,3.802,0.424,7.588,2.722,10.662c2.308,3.088,5.682,5.087,9.496,5.632c0.158,0.024,0.316,0.043,0.476,0.061   c0.465,0.05,1.058,0.08,1.528,0.08c0.839,0,1.666-0.074,2.473-0.216c-1.192,5.816-0.076,11.599,3.287,16.247   c3.098,4.282,7.778,7.049,13.209,7.798c0.933,0.128,1.887,0.19,2.832,0.19c2.17,0,4.317-0.331,6.359-0.967   c0.496,1.772,1.013,3.54,1.551,5.301c-7.739,2.806-20.602,7.484-20.602,7.484c-9.964,3.62-26.641,9.676-31.054,25.269   c-2.125,7.493-0.878,17.093,3.237,25.029c3.345,6.484,8.174,11.162,13.94,13.514c3.438,1.413,7.196,2.099,11.491,2.099   c0.725,0,1.45-0.02,2.12-0.052c10.985-0.504,21.894-3.827,31.52-6.759c1.729-0.526,3.44-1.049,5.143-1.549   c4.505-1.333,9.133-2.741,13.832-4.208c4.836,6.96,10.022,13.583,15.483,19.767c16.48,18.737,35.868,34.399,57.645,46.581   c12.586,13.475,30.245,21.164,48.775,21.164c1.272,0,2.583-0.043,3.964-0.132c12.529,3.183,25.392,5.256,38.205,6.164   c5,0.383,10.195,0.569,15.881,0.569c12.3,0,24.486-1.002,36.184-2.971c59.288-9.84,112.541-44.276,146.103-94.472   c3.682-5.502,7.17-11.277,10.401-17.218c4.717-2.787,8.687-6.976,11.303-12.045c3.174-6.149,4.141-13.146,2.778-19.609   c2.676-7.594,4.946-15.388,6.775-23.263c0.686-0.904,1.38-1.844,2.064-2.819c0.325-0.439,0.634-0.872,0.837-1.179   c1.627-2.345,3.239-4.87,4.773-7.48c0.342-0.578,0.662-1.153,0.978-1.733c1.045-1.822,2.01-3.622,2.871-5.359   c0.279-0.532,0.547-1.069,0.785-1.601c1.997-4.094,3.741-8.287,5.186-12.471c0.206-0.556,0.394-1.095,0.593-1.69   c0.225-0.68,0.431-1.335,0.636-2.006c0.18-0.517,0.344-1.047,0.489-1.566c0.013-0.041,0.039-0.119,0.039-0.119   c1.424-4.79,2.529-9.693,3.287-14.579c0.113-0.608,0.203-1.214,0.273-1.8c0.136-0.898,0.253-1.811,0.337-2.713   c0.091-0.625,0.154-1.231,0.197-1.722c0.428-4.169,0.61-8.559,0.534-13.044c-0.004-0.534-0.024-1.051-0.052-1.629   c-0.082-2.819-0.286-5.666-0.601-8.378c-0.082-0.77-0.167-1.512-0.255-2.135c-0.246-1.868-0.519-3.566-0.814-5.206   C506.756,219.369,512.086,209.656,511.999,197.588z"/>
	<g>
		<path style="opacity:0.67;fill:#EEA6FF;" d="M468.993,263.117c0,42.295-12.784,81.643-34.695,114.367    c-30.929,46.261-80.092,79.273-137.231,88.755c-11.056,1.861-22.421,2.792-34.009,2.792c-4.985,0-9.948-0.155-14.866-0.532    c-20.339-1.44-39.836-5.827-58.114-12.784c-4.298-1.617-8.53-3.39-12.695-5.295c-26.431-12.119-49.85-29.666-68.815-51.223    c-32.015-36.269-51.401-83.925-51.401-136.079c0-6.292,0.288-12.518,0.842-18.655c0.399-4.564,0.953-9.084,1.662-13.559    c11.432-72.67,60.883-132.734,127.372-159.187c23.529-9.349,49.163-14.49,76.015-14.49c9.638,0,19.142,0.665,28.403,1.972    C391.737,73.023,468.993,159.052,468.993,263.117z"/>
		<g>
			<g>
				<g>
					<g>
						<path style="fill:#FFECDF;" d="M422.605,158.823l-10.591,2.814l-1.396,0.377l-10.657,2.814l-6.248,1.684l-1.396,0.354        l-16.927,4.498l-1.352,0.377l-16.949,4.498l-1.374,0.377l-16.927,4.498l-1.396,0.377l-13.559,3.589l-3.345,0.908l-1.396,0.354        l-16.904,4.498l-1.374,0.377l-4.121,1.086c0.864-0.665,1.728-1.307,2.592-1.95l0.465-0.111l1.374-0.377l16.927-4.498        l1.374-0.354l9.173-2.459l7.754-2.06l1.374-0.354l16.949-4.498l1.374-0.377l16.927-4.498l1.374-0.377l16.927-4.498        l1.374-0.354l2.659-0.709l14.268-3.811l1.374-0.354l9.106-2.415C420.921,158.424,421.763,158.601,422.605,158.823z"/>
					</g>
					<g>
						<path style="fill:#FFECDF;" d="M447.419,168.771l-12.673,3.39h-0.022l-8.818,2.348l-1.374,0.354l-16.905,4.498l-1.396,0.377        l-16.927,4.498l-1.374,0.377l-16.927,4.498l-1.374,0.354l-16.949,4.52l-1.374,0.354l-16.927,4.498l-1.374,0.377l-16.905,4.498        l-1.396,0.377l-16.905,4.498l-1.396,0.354l-8.707,2.326l-8.219,2.193l-1.374,0.354l-8.219,2.193        c0.554-0.576,1.13-1.152,1.706-1.706l0.022-0.022l5.428-1.44l1.374-0.354l11.299-3.013l5.65-1.507l1.374-0.354l16.927-4.52        l1.374-0.354l16.905-4.498l1.396-0.377l16.927-4.498l1.374-0.354l16.949-4.52l1.352-0.354l16.949-4.52l1.374-0.354        l16.927-4.498l1.374-0.377l16.905-4.498l1.396-0.354l8.064-2.149l12.983-3.456h0.022        C446.444,168.173,446.931,168.483,447.419,168.771z"/>
					</g>
					<g>
						<path style="fill:#FFECDF;" d="M447.419,168.771l-12.673,3.39h-0.022l-8.818,2.348l-1.374,0.354l-16.905,4.498l-1.396,0.377        l-16.927,4.498l-1.374,0.377l-16.927,4.498l-1.374,0.354l-16.949,4.52l-1.374,0.354l-16.927,4.498l-1.374,0.377l-16.905,4.498        l-1.396,0.377l-16.905,4.498l-1.396,0.354l-8.707,2.326l-8.219,2.193l-1.374,0.354l-8.219,2.193        c0.554-0.576,1.13-1.152,1.706-1.706l0.022-0.022l5.428-1.44l1.374-0.354l11.299-3.013l5.65-1.507l1.374-0.354l16.927-4.52        l1.374-0.354l16.905-4.498l1.396-0.377l16.927-4.498l1.374-0.354l16.949-4.52l1.352-0.354l16.949-4.52l1.374-0.354        l16.927-4.498l1.374-0.377l16.905-4.498l1.396-0.354l8.064-2.149l12.983-3.456h0.022        C446.444,168.173,446.931,168.483,447.419,168.771z"/>
					</g>
					<g>
						<path style="fill:#FFECDF;" d="M463.083,181.178l-10.037,2.659l-13.227,3.523l-1.374,0.377l-16.927,4.498l-1.374,0.377        l-16.927,4.498l-1.374,0.354l-16.927,4.52l-1.374,0.354l-16.949,4.498l-1.374,0.377l-16.927,4.498l-1.374,0.377l-16.904,4.498        l-1.396,0.354l-16.927,4.498l-1.374,0.377l-16.949,4.498l-1.352,0.377l-16.949,4.498l-1.352,0.354h-0.022l-6.669,1.795        l-10.79,2.858l-1.396,0.377l-4.985,1.329c0.465-0.554,0.931-1.108,1.418-1.64l2.526-0.665l1.374-0.377l12.872-3.412        l4.609-1.241l1.351-0.354l16.949-4.498h0.022l1.352-0.377l16.927-4.498l1.396-0.377l16.927-4.498l1.374-0.354l16.905-4.498        l1.396-0.377l16.905-4.498l1.396-0.377l16.927-4.498l1.374-0.377l16.949-4.498l1.352-0.354l16.927-4.52l1.396-0.354        l16.905-4.498l1.374-0.377l13.183-3.501l10.147-2.703L463.083,181.178z"/>
					</g>
					<g>
						<path style="fill:#FFECDF;" d="M463.083,181.178l-10.037,2.659l-13.227,3.523l-1.374,0.377l-16.927,4.498l-1.374,0.377        l-16.927,4.498l-1.374,0.354l-16.927,4.52l-1.374,0.354l-16.949,4.498l-1.374,0.377l-16.927,4.498l-1.374,0.377l-16.904,4.498        l-1.396,0.354l-16.927,4.498l-1.374,0.377l-16.949,4.498l-1.352,0.377l-16.949,4.498l-1.352,0.354h-0.022l-6.669,1.795        l-10.79,2.858l-1.396,0.377l-4.985,1.329c0.465-0.554,0.931-1.108,1.418-1.64l2.526-0.665l1.374-0.377l12.872-3.412        l4.609-1.241l1.351-0.354l16.949-4.498h0.022l1.352-0.377l16.927-4.498l1.396-0.377l16.927-4.498l1.374-0.354l16.905-4.498        l1.396-0.377l16.905-4.498l1.396-0.377l16.927-4.498l1.374-0.377l16.949-4.498l1.352-0.354l16.927-4.52l1.396-0.354        l16.905-4.498l1.374-0.377l13.183-3.501l10.147-2.703L463.083,181.178z"/>
					</g>
					<g>
						<path style="fill:#FFECDF;" d="M233.441,257.57l14.822-3.944c-0.421,0.532-0.864,1.041-1.285,1.573l-15.021,3.988        C232.466,258.656,232.954,258.124,233.441,257.57z"/>
						<path style="fill:#FFECDF;" d="M473.806,194.87l-9.017,2.393l-11.078,2.947l-1.374,0.377l-16.927,4.498l-1.374,0.354        l-16.927,4.52l-1.374,0.354l-16.927,4.498l-1.374,0.377l-16.949,4.498l-1.374,0.377l-16.927,4.498l-1.374,0.377l-16.927,4.498        l-1.374,0.354l-16.927,4.498l-1.374,0.377l-16.949,4.498l-1.351,0.377l-16.949,4.498l-1.351,0.354h-0.022l-17.459,4.653        l-1.396,0.377l-10.346,2.747l-6.558,1.75l-1.396,0.354l-1.928,0.532c0.089-0.443,0.2-0.886,0.333-1.329l0.576-0.155        l1.374-0.354l8.042-2.149l8.862-2.371h0.022l1.374-0.354l17.48-4.653l1.352-0.354l16.949-4.52l1.374-0.354l16.927-4.498        l1.374-0.377l16.927-4.498l1.396-0.377l16.905-4.498l1.374-0.354l16.927-4.498l1.374-0.377l16.949-4.498l1.374-0.377        l16.927-4.498l1.374-0.377l16.927-4.498l1.373-0.354l16.927-4.498l1.374-0.377l11.41-3.035l9.039-2.415        C473.363,194.161,473.585,194.516,473.806,194.87z"/>
					</g>
					<g>
						<path style="fill:#FFECDF;" d="M481.073,209.493l-8.596,2.282v0.022l-4.852,1.285l-1.396,0.377l-16.905,4.498l-1.373,0.354        l-16.927,4.498l-1.374,0.377l-16.949,4.498l-1.352,0.377l-16.949,4.498l-1.374,0.377h-0.022l-16.905,4.498l-1.374,0.354        l-16.927,4.498l-1.374,0.377l-16.927,4.498l-1.374,0.377l-16.949,4.498l-1.351,0.354h-0.022l-16.927,4.52l-1.374,0.354        l-17.48,4.653l-1.374,0.354l-16.905,4.52l-1.396,0.354l-9.372,2.504l-9.061,2.393c0.022-0.421,0.044-0.82,0.088-1.241        l9.084-2.415l8.219-2.193l1.396-0.377l16.905-4.498l1.396-0.354l17.481-4.653l1.351-0.377l16.949-4.498l1.351-0.354h0.022        l16.927-4.52l1.374-0.354l16.927-4.498l1.374-0.377l16.927-4.498l1.374-0.377l16.927-4.498l1.374-0.354l16.949-4.52        l1.374-0.354l16.927-4.498l1.374-0.377l16.927-4.498l1.374-0.377l16.927-4.498l1.374-0.354l5.45-1.462l8.619-2.282        C480.807,208.739,480.94,209.116,481.073,209.493z"/>
					</g>
					<g>
						<path style="fill:#FFECDF;" d="M481.073,209.493l-8.596,2.282v0.022l-4.852,1.285l-1.396,0.377l-16.905,4.498l-1.373,0.354        l-16.927,4.498l-1.374,0.377l-16.949,4.498l-1.352,0.377l-16.949,4.498l-1.374,0.377h-0.022l-16.905,4.498l-1.374,0.354        l-16.927,4.498l-1.374,0.377l-16.927,4.498l-1.374,0.377l-16.949,4.498l-1.351,0.354h-0.022l-16.927,4.52l-1.374,0.354        l-17.48,4.653l-1.374,0.354l-16.905,4.52l-1.396,0.354l-9.372,2.504l-9.061,2.393c0.022-0.421,0.044-0.82,0.088-1.241        l9.084-2.415l8.219-2.193l1.396-0.377l16.905-4.498l1.396-0.354l17.481-4.653l1.351-0.377l16.949-4.498l1.351-0.354h0.022        l16.927-4.52l1.374-0.354l16.927-4.498l1.374-0.377l16.927-4.498l1.374-0.377l16.927-4.498l1.374-0.354l16.949-4.52        l1.374-0.354l16.927-4.498l1.374-0.377l16.927-4.498l1.374-0.377l16.927-4.498l1.374-0.354l5.45-1.462l8.619-2.282        C480.807,208.739,480.94,209.116,481.073,209.493z"/>
					</g>
					<g>
						<path style="fill:#FFECDF;" d="M485.504,224.891l-3.988,1.063l-1.374,0.354l-3.234,0.864l-13.67,3.633l-1.396,0.377        l-16.905,4.498l-1.374,0.354l-16.949,4.52l-1.373,0.354l-16.927,4.52l-1.396,0.354l-16.905,4.498l-1.396,0.377l-16.905,4.498        l-1.374,0.354l-16.927,4.52l-1.396,0.354l-16.927,4.52l-1.374,0.354l-16.927,4.498h-0.022l-1.351,0.377l-17.481,4.653        l-1.374,0.354l-16.927,4.498l-1.374,0.377l-18.721,4.985l-1.374,0.354l-3.124,0.82l-8.663,2.326        c-0.044-0.421-0.089-0.82-0.133-1.241l8.685-2.304l2.193-0.576l1.352-0.354l18.721-4.985l1.396-0.377l16.905-4.498        l1.396-0.354l17.481-4.653l1.352-0.354h0.022l16.927-4.52l1.374-0.354l16.927-4.498l1.374-0.377l16.927-4.498l1.396-0.377        l16.905-4.498l1.396-0.354l16.905-4.498l1.374-0.377l16.949-4.498l1.374-0.377l16.927-4.498l1.396-0.377l16.927-4.498        l1.373-0.354l14.49-3.855l2.415-0.643l1.396-0.377l4.763-1.263C485.349,224.115,485.415,224.514,485.504,224.891z"/>
					</g>
					<g>
						<path style="fill:#FFECDF;" d="M485.504,224.891l-3.988,1.063l-1.374,0.354l-3.234,0.864l-13.67,3.633l-1.396,0.377        l-16.905,4.498l-1.374,0.354l-16.949,4.52l-1.373,0.354l-16.927,4.52l-1.396,0.354l-16.905,4.498l-1.396,0.377l-16.905,4.498        l-1.374,0.354l-16.927,4.52l-1.396,0.354l-16.927,4.52l-1.374,0.354l-16.927,4.498h-0.022l-1.351,0.377l-17.481,4.653        l-1.374,0.354l-16.927,4.498l-1.374,0.377l-18.721,4.985l-1.374,0.354l-3.124,0.82l-8.663,2.326        c-0.044-0.421-0.089-0.82-0.133-1.241l8.685-2.304l2.193-0.576l1.352-0.354l18.721-4.985l1.396-0.377l16.905-4.498        l1.396-0.354l17.481-4.653l1.352-0.354h0.022l16.927-4.52l1.374-0.354l16.927-4.498l1.374-0.377l16.927-4.498l1.396-0.377        l16.905-4.498l1.396-0.354l16.905-4.498l1.374-0.377l16.949-4.498l1.374-0.377l16.927-4.498l1.396-0.377l16.927-4.498        l1.373-0.354l14.49-3.855l2.415-0.643l1.396-0.377l4.763-1.263C485.349,224.115,485.415,224.514,485.504,224.891z"/>
					</g>
					<g>
						<path style="fill:#FFECDF;" d="M487.188,240.998l-8.84,2.348v0.022l-1.196,0.31l-1.396,0.354l-16.927,4.52l-1.374,0.354        l-16.927,4.498l-1.374,0.377l-16.949,4.498l-1.374,0.377l-16.905,4.498l-1.396,0.377l-16.905,4.498l-1.396,0.354        l-16.927,4.498l-1.374,0.377l-16.927,4.498l-1.374,0.377l-16.949,4.498l-1.352,0.354l-17.481,4.653l-1.374,0.377        l-16.927,4.498l-1.374,0.354h-0.022l-18.721,4.985l-1.352,0.377l-13.249,3.523l-8.663,2.304        c-0.155-0.377-0.288-0.775-0.421-1.152l8.618-2.282l12.651-3.368l1.374-0.377l18.721-4.985l1.374-0.354l16.927-4.498        l1.374-0.377l17.481-4.653l1.374-0.354l16.949-4.498l1.351-0.377l16.927-4.498l1.396-0.377l16.927-4.498l1.374-0.354        l16.927-4.52l1.374-0.354l16.905-4.498l1.396-0.377l16.927-4.498l1.374-0.377l16.949-4.498l1.374-0.354l16.927-4.52        l1.374-0.354l2.26-0.598l8.796-2.348C487.166,240.178,487.188,240.577,487.188,240.998z"/>
					</g>
					<g>
						<path style="fill:#FFECDF;" d="M487.188,240.998l-8.84,2.348v0.022l-1.196,0.31l-1.396,0.354l-16.927,4.52l-1.374,0.354        l-16.927,4.498l-1.374,0.377l-16.949,4.498l-1.374,0.377l-16.905,4.498l-1.396,0.377l-16.905,4.498l-1.396,0.354        l-16.927,4.498l-1.374,0.377l-16.927,4.498l-1.374,0.377l-16.949,4.498l-1.352,0.354l-17.481,4.653l-1.374,0.377        l-16.927,4.498l-1.374,0.354h-0.022l-18.721,4.985l-1.352,0.377l-13.249,3.523l-8.663,2.304        c-0.155-0.377-0.288-0.775-0.421-1.152l8.618-2.282l12.651-3.368l1.374-0.377l18.721-4.985l1.374-0.354l16.927-4.498        l1.374-0.377l17.481-4.653l1.374-0.354l16.949-4.498l1.351-0.377l16.927-4.498l1.396-0.377l16.927-4.498l1.374-0.354        l16.927-4.52l1.374-0.354l16.905-4.498l1.396-0.377l16.927-4.498l1.374-0.377l16.949-4.498l1.374-0.354l16.927-4.52        l1.374-0.354l2.26-0.598l8.796-2.348C487.166,240.178,487.188,240.577,487.188,240.998z"/>
					</g>
					<g>
						<path style="fill:#FFECDF;" d="M486.235,256.573c-0.044,0.421-0.111,0.864-0.199,1.307l-9.461,2.504l-3.833,1.019        l-1.374,0.377l-16.927,4.498l-1.373,0.377l-16.949,4.498l-1.374,0.377l-16.927,4.498l-1.374,0.354l-16.927,4.498l-1.374,0.377        l-16.927,4.498l-1.374,0.377l-16.949,4.498l-1.351,0.354l-16.949,4.52l-1.352,0.354l-17.481,4.653l-1.396,0.354l-16.905,4.52        l-1.374,0.354l-18.743,4.985l-1.352,0.354l-18.721,4.985l-9.239,2.459c-0.222-0.354-0.465-0.709-0.709-1.063l9.15-2.437        l18.456-4.919l1.351-0.354l18.744-4.985l1.374-0.377l16.927-4.498l1.373-0.354l17.481-4.653l1.374-0.354l16.927-4.52        l1.374-0.354l16.927-4.498l1.396-0.377l16.905-4.498l1.396-0.377l16.905-4.498l1.396-0.354l16.905-4.498l1.373-0.377        l16.949-4.498l1.374-0.377l16.927-4.498l1.374-0.377l5.184-1.374L486.235,256.573z"/>
					</g>
					<g>
						<path style="fill:#FFECDF;" d="M486.235,256.573c-0.044,0.421-0.111,0.864-0.199,1.307l-9.461,2.504l-3.833,1.019        l-1.374,0.377l-16.927,4.498l-1.373,0.377l-16.949,4.498l-1.374,0.377l-16.927,4.498l-1.374,0.354l-16.927,4.498l-1.374,0.377        l-16.927,4.498l-1.374,0.377l-16.949,4.498l-1.351,0.354l-16.949,4.52l-1.352,0.354l-17.481,4.653l-1.396,0.354l-16.905,4.52        l-1.374,0.354l-18.743,4.985l-1.352,0.354l-18.721,4.985l-9.239,2.459c-0.222-0.354-0.465-0.709-0.709-1.063l9.15-2.437        l18.456-4.919l1.351-0.354l18.744-4.985l1.374-0.377l16.927-4.498l1.373-0.354l17.481-4.653l1.374-0.354l16.927-4.52        l1.374-0.354l16.927-4.498l1.396-0.377l16.905-4.498l1.396-0.377l16.905-4.498l1.396-0.354l16.905-4.498l1.373-0.377        l16.949-4.498l1.374-0.377l16.927-4.498l1.374-0.377l5.184-1.374L486.235,256.573z"/>
					</g>
					<g>
						<path style="fill:#FFECDF;" d="M482.07,274.231c-0.155,0.465-0.31,0.908-0.487,1.374l-1.462,0.399h-0.022l-6.004,1.595        l-3.08,0.82l-2.681,0.709l-1.374,0.377l-16.949,4.498l-1.373,0.354l-16.927,4.52l-1.374,0.354l-16.927,4.498l-1.374,0.377        l-16.927,4.498l-1.374,0.377l-16.949,4.498l-1.351,0.354l-16.949,4.52l-1.351,0.354l-17.503,4.653l-1.374,0.354l-16.905,4.498        l-1.396,0.377l-18.721,4.985l-1.374,0.354l-19.585,5.229l-15.952,4.232l-0.31-1.152l15.088-4.01l19.741-5.251l1.351-0.354        l18.744-4.985l1.374-0.377l16.927-4.498l1.374-0.354l17.481-4.653l1.352-0.377l16.949-4.498l1.374-0.354l16.927-4.52        l1.373-0.354l16.927-4.52l1.396-0.354l16.905-4.498l1.374-0.377l16.927-4.498l1.374-0.354l16.949-4.52l1.374-0.354        l4.298-1.152l2.814-0.753l5.982-1.573L482.07,274.231z"/>
					</g>
					<g>
						<path style="fill:#FFECDF;" d="M482.07,274.231c-0.155,0.465-0.31,0.908-0.487,1.374l-1.462,0.399h-0.022l-6.004,1.595        l-3.08,0.82l-2.681,0.709l-1.374,0.377l-16.949,4.498l-1.373,0.354l-16.927,4.52l-1.374,0.354l-16.927,4.498l-1.374,0.377        l-16.927,4.498l-1.374,0.377l-16.949,4.498l-1.351,0.354l-16.949,4.52l-1.351,0.354l-17.503,4.653l-1.374,0.354l-16.905,4.498        l-1.396,0.377l-18.721,4.985l-1.374,0.354l-19.585,5.229l-15.952,4.232l-0.31-1.152l15.088-4.01l19.741-5.251l1.351-0.354        l18.744-4.985l1.374-0.377l16.927-4.498l1.374-0.354l17.481-4.653l1.352-0.377l16.949-4.498l1.374-0.354l16.927-4.52        l1.373-0.354l16.927-4.52l1.396-0.354l16.905-4.498l1.374-0.377l16.927-4.498l1.374-0.354l16.949-4.52l1.374-0.354        l4.298-1.152l2.814-0.753l5.982-1.573L482.07,274.231z"/>
					</g>
					<g>
						<path style="fill:#FFECDF;" d="M473.651,293.041c-0.266,0.487-0.532,0.975-0.82,1.462l-8.906,2.371l-1.396,0.354l-2.481,0.665        l-14.423,3.833l-1.374,0.377l-16.927,4.498l-1.374,0.354l-16.927,4.52l-1.396,0.354l-16.927,4.498l-1.351,0.377l-16.949,4.498        l-1.352,0.377h-0.022l-17.459,4.653h-0.022l-1.374,0.354l-16.905,4.498l-1.396,0.377l-18.721,4.985l-1.374,0.354l-9.261,2.459        l-17.281,4.608h-0.022c-0.465-0.066-0.886-0.244-1.33-0.465c-0.155-0.089-0.332-0.199-0.487-0.288l16.882-4.498h0.022        l10.435-2.769l1.374-0.377l18.721-4.985l1.396-0.354l16.905-4.498h0.022l1.351-0.377l17.481-4.653h0.022l1.351-0.354        l16.949-4.498l1.351-0.377l16.949-4.498l1.374-0.377l16.927-4.498l1.374-0.354l16.927-4.52l1.374-0.354l16.55-4.409        l0.376-0.089l1.374-0.377L473.651,293.041z"/>
					</g>
					<g>
						<path style="fill:#FFECDF;" d="M473.651,293.041c-0.266,0.487-0.532,0.975-0.82,1.462l-8.906,2.371l-1.396,0.354l-2.481,0.665        l-14.423,3.833l-1.374,0.377l-16.927,4.498l-1.374,0.354l-16.927,4.52l-1.396,0.354l-16.927,4.498l-1.351,0.377l-16.949,4.498        l-1.352,0.377h-0.022l-17.459,4.653h-0.022l-1.374,0.354l-16.905,4.498l-1.396,0.377l-18.721,4.985l-1.374,0.354l-9.261,2.459        l-17.281,4.608h-0.022c-0.465-0.066-0.886-0.244-1.33-0.465c-0.155-0.089-0.332-0.199-0.487-0.288l16.882-4.498h0.022        l10.435-2.769l1.374-0.377l18.721-4.985l1.396-0.354l16.905-4.498h0.022l1.351-0.377l17.481-4.653h0.022l1.351-0.354        l16.949-4.498l1.351-0.377l16.949-4.498l1.374-0.377l16.927-4.498l1.374-0.354l16.927-4.52l1.374-0.354l16.55-4.409        l0.376-0.089l1.374-0.377L473.651,293.041z"/>
					</g>
					<g>
						<path style="fill:#FFECDF;" d="M458.674,313.601c-0.044,0.044-0.066,0.089-0.111,0.111c-0.266,0.31-0.532,0.598-0.82,0.886        c-0.177,0.199-0.376,0.399-0.576,0.62l-15.93,4.254l-1.396,0.354l-1.219,0.332l-15.686,4.165l-1.396,0.377l-16.927,4.498        l-1.351,0.377h-0.022l-16.927,4.498l-1.373,0.354l-17.481,4.653l-1.374,0.377l-16.927,4.498l-1.374,0.354l-9.349,2.504h-0.022        l-9.372,2.481l-1.352,0.377l-9.327,2.481h-0.022c-0.798-0.199-1.595-0.399-2.415-0.598l10.723-2.858l1.373-0.354l7.333-1.95        h0.022l11.366-3.035l1.396-0.354l16.905-4.52l1.374-0.354l17.48-4.653l1.374-0.354l16.949-4.52l1.351-0.354l16.927-4.498        l1.396-0.377l16.927-4.498l1.374-0.377l0.664-0.177l16.262-4.32l1.374-0.354L458.674,313.601z"/>
					</g>
				</g>
				<g>
					<g>
						<path style="fill:#FFECDF;" d="M486.39,230.452c0.089,0.62,0.155,1.219,0.222,1.839l-6.47-5.982l-1.041-0.953l-3.235-2.991        v-0.022l-9.637-8.884l-1.019-0.975l-12.872-11.898l-1.041-0.953l-12.85-11.897l-1.064-0.975l-12.85-11.898l-1.063-0.975        l-8.198-7.599l-4.653-4.276l-1.041-0.997l-5.184-4.786c0.643,0.022,1.285,0.066,1.906,0.133l4.652,4.298l1.063,0.975        l5.495,5.096l7.356,6.802l1.041,0.975l12.85,11.875l1.064,0.975l12.85,11.898l1.041,0.953l12.872,11.92l1.042,0.953        l7.666,7.09l5.207,4.808l1.019,0.975L486.39,230.452z"/>
					</g>
					<g>
						<path style="fill:#FFECDF;" d="M486.723,252.541c-0.045,0.487-0.089,0.997-0.177,1.484l-8.286-7.666l-2.504-2.326        l-1.041-0.975l-12.872-11.875l-1.019-0.975l-12.872-11.898l-1.042-0.953l-12.872-11.92l-1.041-0.953l-12.85-11.875        l-1.064-0.997l-12.85-11.875l-1.041-0.975l-12.872-11.897l-1.042-0.975l-0.953-0.864l-8.663-8.02        c0.51-0.089,1.041-0.133,1.573-0.177l8.774,8.087l0.642,0.62l1.064,0.975l12.85,11.875l1.063,0.975l12.85,11.897l1.042,0.975        l12.85,11.898l1.041,0.953l12.872,11.897l1.041,0.975l12.872,11.897l1.041,0.953l12.85,11.898l1.063,0.975l1.152,1.086        L486.723,252.541z"/>
					</g>
					<g>
						<path style="fill:#FFECDF;" d="M486.723,252.541c-0.045,0.487-0.089,0.997-0.177,1.484l-8.286-7.666l-2.504-2.326        l-1.041-0.975l-12.872-11.875l-1.019-0.975l-12.872-11.898l-1.042-0.953l-12.872-11.92l-1.041-0.953l-12.85-11.875        l-1.064-0.997l-12.85-11.875l-1.041-0.975l-12.872-11.897l-1.042-0.975l-0.953-0.864l-8.663-8.02        c0.51-0.089,1.041-0.133,1.573-0.177l8.774,8.087l0.642,0.62l1.064,0.975l12.85,11.875l1.063,0.975l12.85,11.897l1.042,0.975        l12.85,11.898l1.041,0.953l12.872,11.897l1.041,0.975l12.872,11.897l1.041,0.953l12.85,11.898l1.063,0.975l1.152,1.086        L486.723,252.541z"/>
					</g>
					<g>
						<path style="fill:#FFECDF;" d="M483.089,270.974c-0.111,0.421-0.243,0.864-0.399,1.285l-7.289-6.735l-4.032-3.744        l-1.064-0.975l-12.85-11.897l-1.041-0.975l-12.85-11.897l-1.064-0.953l-12.85-11.898l-1.041-0.953l-12.872-11.92l-1.042-0.953        l-12.85-11.897l-1.042-0.975l-12.872-11.875l-1.041-0.997l-12.85-11.875l-1.064-0.975l-3.146-2.925l-7.821-7.223        c0.465-0.111,0.931-0.222,1.396-0.332l7.865,7.267l3.079,2.836l1.042,0.975l12.872,11.897l1.041,0.975l12.85,11.897        l1.063,0.975l12.85,11.875l1.042,0.975l12.872,11.897l1.041,0.953l12.872,11.897l1.042,0.975l12.85,11.898l1.041,0.975        l12.85,11.875l1.063,0.975l2.991,2.769L483.089,270.974z"/>
					</g>
					<g>
						<path style="fill:#FFECDF;" d="M483.089,270.974c-0.111,0.421-0.243,0.864-0.399,1.285l-7.289-6.735l-4.032-3.744        l-1.064-0.975l-12.85-11.897l-1.041-0.975l-12.85-11.897l-1.064-0.953l-12.85-11.898l-1.041-0.953l-12.872-11.92l-1.042-0.953        l-12.85-11.897l-1.042-0.975l-12.872-11.875l-1.041-0.997l-12.85-11.875l-1.064-0.975l-3.146-2.925l-7.821-7.223        c0.465-0.111,0.931-0.222,1.396-0.332l7.865,7.267l3.079,2.836l1.042,0.975l12.872,11.897l1.041,0.975l12.85,11.897        l1.063,0.975l12.85,11.875l1.042,0.975l12.872,11.897l1.041,0.953l12.872,11.897l1.042,0.975l12.85,11.898l1.041,0.975        l12.85,11.875l1.063,0.975l2.991,2.769L483.089,270.974z"/>
					</g>
					<g>
						<path style="fill:#FFECDF;" d="M476.841,286.993c-0.155,0.377-0.354,0.753-0.554,1.13l-6.802-6.27l-2.526-2.348l-1.042-0.975        l-12.85-11.875l-1.063-0.975l-12.85-11.897l-1.063-0.975l-12.85-11.898l-1.042-0.953l-12.85-11.898l-1.041-0.975        l-12.872-11.897l-1.042-0.953l-12.85-11.898l-1.063-0.975l-12.85-11.898l-1.041-0.975l-12.872-11.875l-1.041-0.975        l-3.013-2.814l-7.333-6.757l1.263-0.465l7.356,6.802l3.102,2.858l1.041,0.975l12.85,11.897l1.064,0.975l12.85,11.875        l1.063,0.997l12.85,11.875l1.042,0.953l12.872,11.92l1.019,0.953l12.872,11.897l1.041,0.975l12.85,11.875l1.063,0.975        l12.85,11.897l1.063,0.975l12.85,11.897l1.042,0.953l1.684,1.573L476.841,286.993z"/>
					</g>
					<g>
						<path style="fill:#FFECDF;" d="M476.841,286.993c-0.155,0.377-0.354,0.753-0.554,1.13l-6.802-6.27l-2.526-2.348l-1.042-0.975        l-12.85-11.875l-1.063-0.975l-12.85-11.897l-1.063-0.975l-12.85-11.898l-1.042-0.953l-12.85-11.898l-1.041-0.975        l-12.872-11.897l-1.042-0.953l-12.85-11.898l-1.063-0.975l-12.85-11.898l-1.041-0.975l-12.872-11.875l-1.041-0.975        l-3.013-2.814l-7.333-6.757l1.263-0.465l7.356,6.802l3.102,2.858l1.041,0.975l12.85,11.897l1.064,0.975l12.85,11.875        l1.063,0.997l12.85,11.875l1.042,0.953l12.872,11.92l1.019,0.953l12.872,11.897l1.041,0.975l12.85,11.875l1.063,0.975        l12.85,11.897l1.063,0.975l12.85,11.897l1.042,0.953l1.684,1.573L476.841,286.993z"/>
					</g>
					<g>
						<path style="fill:#FFECDF;" d="M463.925,296.874l4.653,4.298c-0.222,0.332-0.465,0.665-0.709,0.997l-5.339-4.941l-1.019-0.953        l-0.199-0.177l-12.673-11.742l-1.042-0.953l-12.85-11.875l-1.063-0.975l-12.85-11.897l-1.064-0.975l-12.85-11.897        l-1.041-0.953l-12.85-11.897h-0.022l-1.019-0.975l-12.872-11.897l-1.041-0.953l-12.85-11.898l-1.063-0.975l-12.85-11.898        l-1.042-0.975l-12.872-11.875l-1.041-0.997l-1.219-1.108l-7.001-6.492c0.399-0.199,0.776-0.377,1.174-0.554l7.045,6.514        l1.374,1.285l1.063,0.975l12.85,11.898l1.042,0.975l12.872,11.875l1.041,0.975l12.85,11.898l1.041,0.953l12.872,11.92        l1.042,0.953l12.85,11.897l1.063,0.975l12.85,11.875l1.042,0.975l12.85,11.897l1.063,0.975l12.85,11.897l1.041,0.953        l11.986,11.078l0.886,0.82L463.925,296.874z"/>
					</g>
					<g>
						<path style="fill:#FFECDF;" d="M463.925,296.874l4.653,4.298c-0.222,0.332-0.465,0.665-0.709,0.997l-5.339-4.941l-1.019-0.953        l-0.199-0.177l-12.673-11.742l-1.042-0.953l-12.85-11.875l-1.063-0.975l-12.85-11.897l-1.064-0.975l-12.85-11.897        l-1.041-0.953l-12.85-11.897h-0.022l-1.019-0.975l-12.872-11.897l-1.041-0.953l-12.85-11.898l-1.063-0.975l-12.85-11.898        l-1.042-0.975l-12.872-11.875l-1.041-0.997l-1.219-1.108l-7.001-6.492c0.399-0.199,0.776-0.377,1.174-0.554l7.045,6.514        l1.374,1.285l1.063,0.975l12.85,11.898l1.042,0.975l12.872,11.875l1.041,0.975l12.85,11.898l1.041,0.953l12.872,11.92        l1.042,0.953l12.85,11.897l1.063,0.975l12.85,11.875l1.042,0.975l12.85,11.897l1.063,0.975l12.85,11.897l1.041,0.953        l11.986,11.078l0.886,0.82L463.925,296.874z"/>
					</g>
					<g>
						<path style="fill:#FFECDF;" d="M458.563,313.712c-0.266,0.31-0.532,0.598-0.82,0.886l-0.62-0.598l-5.871-5.428l-7.001-6.469        l-1.042-0.975l-12.872-11.897l-1.041-0.953l-12.85-11.897l-1.063-0.975l-12.85-11.875l-1.042-0.997l-12.872-11.875        l-1.041-0.975l-12.85-11.897l-1.042-0.953l-12.872-11.897l-1.041-0.975l-12.85-11.875l-1.063-0.975l-12.85-11.897        l-1.063-0.975l-11.876-11.011l-0.975-0.886l-1.041-0.975l-4.785-4.409c0.354-0.222,0.709-0.443,1.086-0.665l5.073,4.719        l1.063,0.975l0.665,0.62l12.186,11.255l1.041,0.975l12.872,11.897l1.042,0.975l12.85,11.897l1.041,0.953l12.872,11.898        l1.042,0.975l12.872,11.897l1.041,0.953l12.85,11.898l1.064,0.975l12.85,11.897l1.041,0.975l12.85,11.875l1.041,0.975        l12.872,11.897l1.042,0.953l6.447,5.96l6.425,5.96L458.563,313.712z"/>
					</g>
					<g>
						<path style="fill:#FFECDF;" d="M458.563,313.712c-0.266,0.31-0.532,0.598-0.82,0.886l-0.62-0.598l-5.871-5.428l-7.001-6.469        l-1.042-0.975l-12.872-11.897l-1.041-0.953l-12.85-11.897l-1.063-0.975l-12.85-11.875l-1.042-0.997l-12.872-11.875        l-1.041-0.975l-12.85-11.897l-1.042-0.953l-12.872-11.897l-1.041-0.975l-12.85-11.875l-1.063-0.975l-12.85-11.897        l-1.063-0.975l-11.876-11.011l-0.975-0.886l-1.041-0.975l-4.785-4.409c0.354-0.222,0.709-0.443,1.086-0.665l5.073,4.719        l1.063,0.975l0.665,0.62l12.186,11.255l1.041,0.975l12.872,11.897l1.042,0.975l12.85,11.897l1.041,0.953l12.872,11.898        l1.042,0.975l12.872,11.897l1.041,0.953l12.85,11.898l1.064,0.975l12.85,11.897l1.041,0.975l12.85,11.875l1.041,0.975        l12.872,11.897l1.042,0.953l6.447,5.96l6.425,5.96L458.563,313.712z"/>
					</g>
					<g>
						<path style="fill:#FFECDF;" d="M446.976,324.768c-0.31,0.266-0.621,0.532-0.931,0.798l-6.204-5.738l-0.377-0.354l-0.642-0.598        l-12.872-11.92l-1.042-0.953l-12.872-11.897l-1.041-0.975l-12.85-11.875l-1.064-0.975l-12.85-11.897l-1.041-0.975        l-12.85-11.897l-1.063-0.953l-12.85-11.897l-1.042-0.953l-12.872-11.92l-1.041-0.953l-12.85-11.898l-1.042-0.975        l-12.872-11.875l-1.041-0.997l-7.4-6.824l-5.45-5.051l-1.063-0.975l-0.133-0.133c0.333-0.244,0.665-0.487,0.997-0.731        l0.509,0.487l1.064,0.975l5.074,4.697l7.777,7.201l1.063,0.975l12.85,11.897l1.064,0.975l12.85,11.875l1.019,0.975        l12.872,11.898l1.042,0.953l12.872,11.897l1.041,0.975l12.85,11.898l1.063,0.975l12.85,11.875l1.042,0.975l12.872,11.897        l1.019,0.953l12.872,11.92l1.042,0.953l12.872,11.897l0.221,0.199l0.82,0.775L446.976,324.768z"/>
					</g>
					<g>
						<path style="fill:#FFECDF;" d="M446.976,324.768c-0.31,0.266-0.621,0.532-0.931,0.798l-6.204-5.738l-0.377-0.354l-0.642-0.598        l-12.872-11.92l-1.042-0.953l-12.872-11.897l-1.041-0.975l-12.85-11.875l-1.064-0.975l-12.85-11.897l-1.041-0.975        l-12.85-11.897l-1.063-0.953l-12.85-11.897l-1.042-0.953l-12.872-11.92l-1.041-0.953l-12.85-11.898l-1.042-0.975        l-12.872-11.875l-1.041-0.997l-7.4-6.824l-5.45-5.051l-1.063-0.975l-0.133-0.133c0.333-0.244,0.665-0.487,0.997-0.731        l0.509,0.487l1.064,0.975l5.074,4.697l7.777,7.201l1.063,0.975l12.85,11.897l1.064,0.975l12.85,11.875l1.019,0.975        l12.872,11.898l1.042,0.953l12.872,11.897l1.041,0.975l12.85,11.898l1.063,0.975l12.85,11.875l1.042,0.975l12.872,11.897        l1.019,0.953l12.872,11.92l1.042,0.953l12.872,11.897l0.221,0.199l0.82,0.775L446.976,324.768z"/>
					</g>
					<g>
						<path style="fill:#FFECDF;" d="M433.838,334.427c-0.355,0.244-0.709,0.465-1.064,0.665l-6.735-6.226l-4.497-4.165        l-1.042-0.953l-12.872-11.92l-1.019-0.953l-12.872-11.897l-1.041-0.975l-12.85-11.875l-1.064-0.975l-12.85-11.897        l-1.063-0.975l-12.85-11.897l-1.042-0.953l-12.85-11.898l-1.041-0.975l-12.873-11.898l-1.041-0.953l-12.85-11.898        l-1.064-0.975l-12.85-11.897l-1.041-0.975l-1.883-1.728l-6.558-6.071c0.288-0.266,0.598-0.532,0.908-0.798l6.58,6.093        l2.326,2.149l1.063,0.975l12.85,11.875l1.042,0.975l12.85,11.897l1.042,0.953l12.872,11.92l1.041,0.953l12.85,11.898        l1.064,0.975l12.85,11.875l1.041,0.975l12.872,11.897l1.042,0.975l12.85,11.897l1.041,0.953l12.873,11.897l1.041,0.975        l12.872,11.897l1.042,0.953l4.165,3.877L433.838,334.427z"/>
					</g>
					<g>
						<path style="fill:#FFECDF;" d="M433.838,334.427c-0.355,0.244-0.709,0.465-1.064,0.665l-6.735-6.226l-4.497-4.165        l-1.042-0.953l-12.872-11.92l-1.019-0.953l-12.872-11.897l-1.041-0.975l-12.85-11.875l-1.064-0.975l-12.85-11.897        l-1.063-0.975l-12.85-11.897l-1.042-0.953l-12.85-11.898l-1.041-0.975l-12.873-11.898l-1.041-0.953l-12.85-11.898        l-1.064-0.975l-12.85-11.897l-1.041-0.975l-1.883-1.728l-6.558-6.071c0.288-0.266,0.598-0.532,0.908-0.798l6.58,6.093        l2.326,2.149l1.063,0.975l12.85,11.875l1.042,0.975l12.85,11.897l1.042,0.953l12.872,11.92l1.041,0.953l12.85,11.898        l1.064,0.975l12.85,11.875l1.041,0.975l12.872,11.897l1.042,0.975l12.85,11.897l1.041,0.953l12.873,11.897l1.041,0.975        l12.872,11.897l1.042,0.953l4.165,3.877L433.838,334.427z"/>
					</g>
					<g>
						<path style="fill:#FFECDF;" d="M419.149,342.647c-0.399,0.199-0.754,0.377-1.152,0.554h-0.022l-7.045-6.536l-7.666-7.09        h-0.022l-1.019-0.975l-12.872-11.897l-1.041-0.953l-12.872-11.92l-1.042-0.953l-12.85-11.897l-1.063-0.975l-12.85-11.875        l-1.041-0.975l-12.872-11.897l-1.042-0.975l-12.85-11.898h-0.022l-1.019-0.953l-12.872-11.898l-1.042-0.975l-12.85-11.875        l-1.041-0.975h-0.022l-9.416-8.729l-3.434-3.168l-1.063-0.975l-2.038-1.883c0.288-0.288,0.576-0.554,0.864-0.842l2.548,2.371        l1.064,0.975l2.924,2.703l9.926,9.172l1.041,0.975l12.872,11.897l1.019,0.953l12.872,11.92h0.022l1.019,0.953l12.872,11.898        l1.042,0.975l12.85,11.875l1.063,0.975l12.85,11.897l1.041,0.975l12.872,11.897l1.019,0.953l12.872,11.897l1.041,0.953        l12.872,11.92l1.042,0.953l7.511,6.957L419.149,342.647z"/>
					</g>
					<g>
						<path style="fill:#FFECDF;" d="M419.149,342.647c-0.399,0.199-0.754,0.377-1.152,0.554h-0.022l-7.045-6.536l-7.666-7.09        h-0.022l-1.019-0.975l-12.872-11.897l-1.041-0.953l-12.872-11.92l-1.042-0.953l-12.85-11.897l-1.063-0.975l-12.85-11.875        l-1.041-0.975l-12.872-11.897l-1.042-0.975l-12.85-11.898h-0.022l-1.019-0.953l-12.872-11.898l-1.042-0.975l-12.85-11.875        l-1.041-0.975h-0.022l-9.416-8.729l-3.434-3.168l-1.063-0.975l-2.038-1.883c0.288-0.288,0.576-0.554,0.864-0.842l2.548,2.371        l1.064,0.975l2.924,2.703l9.926,9.172l1.041,0.975l12.872,11.897l1.019,0.953l12.872,11.92h0.022l1.019,0.953l12.872,11.898        l1.042,0.975l12.85,11.875l1.063,0.975l12.85,11.897l1.041,0.975l12.872,11.897l1.019,0.953l12.872,11.897l1.041,0.953        l12.872,11.92l1.042,0.953l7.511,6.957L419.149,342.647z"/>
					</g>
					<g>
						<path style="fill:#FFECDF;" d="M402.798,349.316c-0.421,0.177-0.842,0.31-1.285,0.443l-7.511-6.935l-9.061-8.397l-1.042-0.953        l-12.85-11.897h-0.022l-1.019-0.975h-0.022l-12.85-11.897l-1.042-0.953l-12.85-11.897l-1.063-0.975l-12.85-11.897        l-1.064-0.975l-12.85-11.875l-1.041-0.975l-12.873-11.898l-1.019-0.953l-12.872-11.92h-0.022l-1.019-0.953l-12.85-11.897        h-0.022l-1.041-0.975l-2.371-2.193l-6.514-6.026l-0.133-0.111l0.797-0.886l0.155,0.133l6.514,6.026l2.902,2.703l1.063,0.975        l12.85,11.897l1.041,0.953l12.872,11.897l1.042,0.975l12.85,11.897h0.022l1.019,0.953h0.022l12.85,11.898l1.042,0.975        l12.872,11.898l1.041,0.975l12.85,11.875l1.041,0.975l12.872,11.897l1.041,0.953l12.873,11.92l1.041,0.953l9.018,8.353        L402.798,349.316z"/>
					</g>
					<g>
						<path style="fill:#FFECDF;" d="M402.798,349.316c-0.421,0.177-0.842,0.31-1.285,0.443l-7.511-6.935l-9.061-8.397l-1.042-0.953        l-12.85-11.897h-0.022l-1.019-0.975h-0.022l-12.85-11.897l-1.042-0.953l-12.85-11.897l-1.063-0.975l-12.85-11.897        l-1.064-0.975l-12.85-11.875l-1.041-0.975l-12.873-11.898l-1.019-0.953l-12.872-11.92h-0.022l-1.019-0.953l-12.85-11.897        h-0.022l-1.041-0.975l-2.371-2.193l-6.514-6.026l-0.133-0.111l0.797-0.886l0.155,0.133l6.514,6.026l2.902,2.703l1.063,0.975        l12.85,11.897l1.041,0.953l12.872,11.897l1.042,0.975l12.85,11.897h0.022l1.019,0.953h0.022l12.85,11.898l1.042,0.975        l12.872,11.898l1.041,0.975l12.85,11.875l1.041,0.975l12.872,11.897l1.041,0.953l12.873,11.92l1.041,0.953l9.018,8.353        L402.798,349.316z"/>
					</g>
					<g>
						<path style="fill:#FFECDF;" d="M383.943,354.345c-0.487,0.089-0.975,0.177-1.462,0.266l-8.264-7.644h-0.022l-8.109-7.511        l-1.041-0.975l-12.872-11.897l-1.019-0.953h-0.022l-12.872-11.92l-1.019-0.953l-12.872-11.897l-1.041-0.975l-12.85-11.875        l-1.064-0.975l-12.85-11.898l-1.063-0.975l-12.85-11.898l-1.042-0.953l-12.872-11.898l-1.019-0.975h-0.022l-5.849-5.406        l-7.001-6.469l-1.041-0.975l-1.085-0.997c0.243-0.31,0.509-0.62,0.797-0.908l1.662,1.529l1.063,0.975l6.137,5.672v0.022        l6.713,6.204l1.041,0.953l12.872,11.92l1.019,0.953l12.872,11.897l1.041,0.975l12.85,11.875l1.064,0.975l12.85,11.898        l1.063,0.975l12.85,11.897l1.019,0.953l12.872,11.897l1.042,0.975h0.022l12.85,11.897l1.041,0.953l8.308,7.688        L383.943,354.345z"/>
					</g>
					<g>
						<path style="fill:#FFECDF;" d="M362.962,356.716c-0.576,0.022-1.13,0.044-1.706,0.066l-9.549-8.84l-3.922-3.633l-1.041-0.953        l-12.872-11.897l-1.042-0.975l-12.872-11.897l-1.019-0.953l-12.85-11.897l-1.063-0.975l-12.85-11.897h-0.022l-1.041-0.975        l-12.85-11.875l-1.063-0.975l-12.85-11.897l-1.042-0.953l-6.868-6.359v-0.022l-6.004-5.539l-1.019-0.953l-0.443-0.399        l-0.067-0.066l-6.536-6.026c0.244-0.31,0.51-0.62,0.775-0.931l7.644,7.068l1.041,0.953l4.897,4.52l7.976,7.378l1.042,0.975        l12.85,11.875l1.041,0.975l12.85,11.898l1.063,0.975l12.85,11.875l1.063,0.997l12.85,11.875l1.041,0.953l12.872,11.92        l1.042,0.953l12.872,11.92l1.019,0.953l4.365,4.032h0.022L362.962,356.716z"/>
					</g>
					<g>
						<path style="fill:#FFECDF;" d="M238.316,265.369c-0.266,0.288-0.532,0.576-0.82,0.864l-6.492-6.026l-0.643-0.576l1.351-0.377        l0.089,0.089L238.316,265.369z"/>
						<path style="fill:#FFECDF;" d="M335.512,355.276c-0.687-0.089-1.374-0.177-2.06-0.288l-5.761-5.317l-1.041-0.975l-5.384-4.985        h-0.022l-7.466-6.913l-1.042-0.953l-12.872-11.92l-1.019-0.953l-12.85-11.897l-1.063-0.975l-12.85-11.875l-1.063-0.975        l-12.85-11.897l-1.041-0.975l-2.393-2.193v-0.022l-8.906-8.22c0.022-0.51,0.044-1.041,0.089-1.551l8.751,8.087v0.022        l3.811,3.523l1.064,0.975l12.85,11.875l1.041,0.975l12.85,11.897l1.064,0.975l12.85,11.897l1.041,0.953l12.872,11.897        l1.042,0.975l8.397,7.777h0.022l4.453,4.121l1.019,0.953L335.512,355.276z"/>
					</g>
				</g>
			</g>
			<g>
				<g>
					<path style="fill:#CB6BE5;" d="M487.144,239.757c-0.067-2.504-0.244-4.985-0.532-7.466c-0.067-0.62-0.133-1.219-0.222-1.839       c-0.244-1.861-0.532-3.722-0.886-5.561c-0.089-0.377-0.155-0.775-0.244-1.174c-1.019-4.874-2.415-9.638-4.187-14.224       c-0.133-0.377-0.266-0.753-0.421-1.108c-1.883-4.719-4.188-9.239-6.846-13.515c-0.221-0.354-0.443-0.709-0.687-1.063       c-2.925-4.542-6.27-8.751-10.036-12.629l-0.997-0.997c-2.526-2.504-5.229-4.83-8.087-6.979       c-2.127-1.595-4.298-3.08-6.558-4.431h-0.022c-0.488-0.288-0.975-0.598-1.485-0.842h-0.022       c-7.289-4.232-15.11-7.201-23.308-9.106c-0.842-0.222-1.684-0.399-2.548-0.576c-4.497-0.931-9.106-1.551-13.758-1.883       c-0.621-0.066-1.263-0.111-1.906-0.133c-6.979-0.399-14.069-0.177-21.159,0.598c-0.532,0.044-1.063,0.089-1.573,0.177       c-6.115,0.709-12.23,1.817-18.256,3.279c-0.465,0.111-0.931,0.222-1.396,0.332c-5.561,1.396-11.056,3.08-16.417,4.985       l-1.263,0.465c-5.14,1.883-10.169,3.988-15.021,6.27c-0.399,0.177-0.776,0.354-1.174,0.554       c-4.785,2.304-9.394,4.786-13.781,7.4c-0.377,0.222-0.731,0.443-1.086,0.665c-0.51,0.31-1.019,0.62-1.529,0.931       c-3.811,2.371-7.511,4.874-11.122,7.489c-0.333,0.244-0.665,0.487-0.997,0.731c-0.111,0.089-0.221,0.155-0.332,0.244       c-0.864,0.643-1.728,1.285-2.592,1.95c-3.013,2.282-5.982,4.653-8.862,7.068c-0.31,0.266-0.62,0.532-0.908,0.798       c-3.789,3.213-7.489,6.536-11.056,9.948c-0.288,0.288-0.576,0.554-0.864,0.842c-1.152,1.108-2.26,2.193-3.39,3.323       l-0.022,0.022c-0.576,0.554-1.152,1.13-1.706,1.706c-1.795,1.795-3.567,3.633-5.295,5.472c-0.288,0.288-0.576,0.576-0.82,0.864       c-3.523,3.722-6.935,7.511-10.258,11.344c-0.288,0.288-0.554,0.598-0.797,0.908c-0.51,0.554-0.975,1.108-1.44,1.662       c-0.487,0.532-0.953,1.086-1.418,1.64c-2.282,2.659-4.52,5.317-6.713,7.998c-0.266,0.31-0.532,0.62-0.775,0.931       c-1.751,2.127-3.501,4.254-5.207,6.381c-1.196,1.484-2.437,2.925-3.722,4.365c-0.487,0.554-0.975,1.086-1.484,1.617       c-0.045,0.044-0.089,0.111-0.155,0.155l-0.798,0.864c-16.218,17.015-38.528,30.885-58.491,43.292l-1.684,1.041l-2.858,1.772       c-2.083,1.307-2.725,4.032-1.418,6.115c1.285,2.083,4.033,2.703,6.093,1.418l1.108-0.687l3.434-2.149       c15.996-9.926,33.41-20.782,48.365-33.543l0.045-0.022c0.709-0.598,1.396-1.196,2.083-1.772l0.022-0.022       c3.434-3.035,6.713-6.159,9.793-9.416c0.288-0.288,0.554-0.576,0.82-0.864c2.016-2.149,3.921-4.342,5.738-6.58       c0.953-1.196,1.95-2.393,2.925-3.589c0.421-0.532,0.864-1.041,1.285-1.573c0.2-0.266,0.421-0.51,0.643-0.775       c0.044-0.066,0.089-0.111,0.133-0.177c-0.022,0.089-0.044,0.155-0.066,0.244c-0.045,0.177-0.089,0.354-0.133,0.554       c-0.133,0.443-0.244,0.886-0.333,1.329c-1.285,5.207-2.127,10.568-2.504,15.996c-0.044,0.421-0.066,0.82-0.088,1.241v0.354       c-0.045,0.51-0.067,1.041-0.089,1.551c-0.177,4.409-0.044,8.862,0.421,13.315c0.044,0.421,0.089,0.82,0.133,1.241       c0.111,0.997,0.244,2.016,0.377,3.013c0.554,3.789,1.573,7.599,2.991,11.388c0.133,0.377,0.266,0.775,0.421,1.152       c1.817,4.586,4.232,9.106,7.156,13.404c0.244,0.354,0.487,0.709,0.709,1.063c2.681,3.811,5.716,7.444,9.062,10.812       c-11.521-2.481-23.241-4.143-35.692-4.254c-20.472-0.199-37.598,0.266-53.55,1.44c-1.13,0.089-2.26,0.177-3.39,0.266       c-2.371,0.199-4.143,2.216-4.055,4.586v0.199c0.2,2.437,2.348,4.254,4.786,4.054c1.617-0.133,3.257-0.266,4.896-0.377       c15.243-1.086,31.66-1.507,51.223-1.307c18.766,0.177,36.092,4.121,53.771,8.995c0.111,0.066,0.2,0.111,0.31,0.177       c0.155,0.089,0.332,0.199,0.487,0.288c0.443,0.222,0.864,0.399,1.33,0.465h0.022c0.244,0.044,0.487,0.066,0.731,0.066       c0.155,0,0.288-0.044,0.421-0.066c3.323,0.931,6.669,1.883,10.037,2.858c3.19,0.931,6.403,1.839,9.637,2.769       c2.637,0.753,5.273,1.44,7.865,2.06c0.82,0.199,1.618,0.399,2.415,0.598h0.022c5.118,1.152,10.147,2.127,15.088,2.836       c0.687,0.111,1.374,0.199,2.06,0.288c7.466,1.041,14.755,1.551,21.912,1.551c1.285,0,2.57-0.022,3.833-0.044       c0.576-0.022,1.13-0.044,1.706-0.066h0.022c6.625-0.244,13.116-0.953,19.497-2.105c0.487-0.089,0.975-0.177,1.462-0.266       c4.498-0.864,8.907-1.928,13.293-3.235c1.44-0.421,2.858-0.864,4.276-1.352c0.443-0.133,0.864-0.266,1.285-0.443       c5.251-1.75,10.303-3.811,15.177-6.115h0.022c0.399-0.177,0.754-0.354,1.152-0.554c4.741-2.282,9.283-4.786,13.625-7.555       c0.355-0.199,0.709-0.421,1.064-0.665c4.276-2.747,8.352-5.716,12.208-8.862c0.31-0.266,0.62-0.532,0.931-0.798       c3.611-3.013,7.001-6.204,10.191-9.549c0.2-0.222,0.399-0.421,0.576-0.62c0.288-0.288,0.554-0.576,0.82-0.886       c0.045-0.022,0.067-0.066,0.111-0.111l0.022-0.022c3.323-3.634,6.381-7.422,9.172-11.41c0.244-0.332,0.488-0.665,0.709-0.997       c1.506-2.171,2.925-4.409,4.254-6.669c0.288-0.487,0.554-0.975,0.82-1.462c0.931-1.617,1.817-3.257,2.637-4.919       c0.2-0.377,0.399-0.753,0.554-1.13c1.817-3.7,3.412-7.511,4.741-11.388c0.177-0.465,0.333-0.908,0.487-1.374       c0.222-0.665,0.421-1.307,0.62-1.972c0.155-0.421,0.288-0.864,0.399-1.285c0.022-0.022,0.022-0.022,0.022-0.044       c1.285-4.32,2.26-8.685,2.925-13.05c0.088-0.443,0.155-0.886,0.199-1.307c0.133-0.842,0.244-1.706,0.31-2.548       c0.089-0.487,0.133-0.997,0.177-1.484c0.399-3.877,0.532-7.732,0.465-11.543C487.188,240.577,487.166,240.178,487.144,239.757z        M478.259,246.359c-0.155,4.21-0.62,8.441-1.396,12.695c-0.088,0.443-0.177,0.886-0.288,1.329       c-0.221,1.263-0.509,2.526-0.842,3.789c-0.088,0.443-0.199,0.908-0.332,1.351c-0.244,0.975-0.51,1.928-0.798,2.902       c-0.864,2.925-1.861,5.783-3.013,8.596c-0.177,0.465-0.376,0.931-0.576,1.396c-0.31,0.775-0.643,1.529-0.997,2.282       c-0.177,0.399-0.355,0.775-0.532,1.152c-2.127,4.586-4.63,8.995-7.489,13.227c-0.222,0.332-0.443,0.665-0.687,1.019       c-0.044,0.089-0.111,0.177-0.177,0.266c-0.355,0.51-0.709,1.019-1.086,1.529c-2.437,3.412-5.096,6.669-7.976,9.793       c-0.266,0.288-0.532,0.598-0.82,0.886c-3.213,3.434-6.669,6.713-10.391,9.748c-0.133,0.155-0.288,0.266-0.443,0.377       c-0.31,0.266-0.62,0.532-0.953,0.775c-0.266,0.244-0.554,0.465-0.842,0.687c-3.633,2.88-7.466,5.561-11.521,8.042       c-0.354,0.244-0.709,0.443-1.063,0.665c-4.431,2.681-9.061,5.118-13.913,7.289c-0.399,0.177-0.798,0.354-1.197,0.51       c-5.007,2.216-10.191,4.143-15.597,5.76c-0.2,0.066-0.421,0.133-0.621,0.199c-0.244,0.066-0.465,0.133-0.709,0.199       c-6.026,1.75-12.075,3.08-18.234,3.944c-0.532,0.066-1.019,0.155-1.551,0.199h-0.022c-6.735,0.886-13.603,1.219-20.649,1.019       h-0.022c-0.621,0-1.197-0.022-1.817-0.044c-4.343-0.177-8.774-0.554-13.271-1.13h-0.022c-1.019-0.133-2.016-0.288-3.035-0.421       h-0.022c-3.877-0.576-7.777-1.307-11.787-2.171h-0.022c-0.753-0.155-1.507-0.332-2.282-0.51h-0.022       c-3.523-0.798-7.112-1.706-10.768-2.747c-1.994-0.554-3.988-1.13-5.96-1.706c-0.754-0.199-1.462-0.421-2.216-0.643h-0.022       c-0.465-0.133-0.953-0.266-1.418-0.399c-4.143-1.196-8.264-2.393-12.363-3.523c-2.858-1.639-5.605-3.501-8.219-5.539       c-0.399-0.31-0.776-0.62-1.174-0.931c-4.409-3.611-8.419-7.754-11.831-12.163c-0.266-0.354-0.532-0.687-0.798-1.041       c-3.124-4.232-5.738-8.729-7.643-13.271c-0.177-0.377-0.333-0.753-0.465-1.13c-1.373-3.456-2.348-6.957-2.836-10.369       c-0.199-1.351-0.377-2.725-0.487-4.077c-0.044-0.421-0.088-0.82-0.111-1.219c-0.089-0.931-0.155-1.839-0.2-2.769v-0.022       c-0.044-0.532-0.066-1.108-0.066-1.662v-0.022c-0.133-3.633-0.022-7.245,0.31-10.834c0.022-0.421,0.066-0.842,0.111-1.263       c0.288-2.902,0.753-5.738,1.352-8.552v-0.022c0.066-0.465,0.177-0.931,0.288-1.374c0.465-2.127,1.019-4.21,1.662-6.27       c0.133-0.465,0.288-0.908,0.443-1.351c0.864-2.659,1.861-5.251,3.013-7.777c0.155-0.399,0.332-0.775,0.532-1.152v-0.022       c1.374-2.947,2.925-5.805,4.653-8.53c0.31-0.51,0.665-1.019,1.019-1.529c0.288-0.465,0.598-0.931,0.931-1.396       c0.266-0.399,0.465-0.842,0.598-1.285c0.244-0.244,0.465-0.51,0.709-0.753c0.266-0.288,0.554-0.576,0.82-0.864       c3.39-3.589,6.868-7.112,10.435-10.524c0.288-0.266,0.576-0.554,0.864-0.82c1.728-1.662,3.501-3.301,5.295-4.896       c0.665-0.598,1.33-1.196,2.016-1.795c1.241-1.086,2.504-2.171,3.766-3.235c0.31-0.266,0.621-0.532,0.931-0.775       c3.833-3.213,7.777-6.27,11.853-9.195c0.333-0.244,0.665-0.487,0.997-0.731c2.991-2.105,6.048-4.165,9.172-6.115       c1.196-0.731,2.393-1.484,3.633-2.193c0.355-0.222,0.709-0.421,1.086-0.62c0.886-0.532,1.772-1.019,2.681-1.529       c1.551-0.864,3.146-1.706,4.764-2.526c2.149-1.086,4.32-2.149,6.536-3.168c0.399-0.177,0.82-0.354,1.219-0.532       c4.963-2.238,10.081-4.254,15.309-6.026c0.443-0.133,0.864-0.288,1.285-0.421c5.539-1.817,11.189-3.368,16.882-4.564       c0.488-0.111,0.953-0.199,1.44-0.288c6.336-1.285,12.717-2.149,19.054-2.526c0.576-0.044,1.13-0.066,1.684-0.111       c1.108-0.044,2.216-0.066,3.301-0.089c1.551-0.044,3.102-0.044,4.653,0c5.184,0.111,10.302,0.598,15.31,1.462       c0.753,0.133,1.506,0.266,2.238,0.443c5.317,1.041,10.479,2.57,15.42,4.653c0.621,0.222,1.197,0.487,1.795,0.775h0.022       c4.897,2.149,9.571,4.852,13.936,8.131c1.108,0.842,2.193,1.706,3.257,2.592c0.377,0.31,0.731,0.643,1.108,0.953       c4.165,3.7,7.865,7.843,11.033,12.385c0.244,0.354,0.488,0.687,0.709,1.041c2.858,4.187,5.273,8.685,7.245,13.404       c0.155,0.377,0.31,0.753,0.443,1.108v0.022c1.086,2.725,2.038,5.517,2.814,8.375c0.222,0.709,0.399,1.44,0.576,2.171v0.022       c0.31,1.196,0.576,2.415,0.82,3.633c0.089,0.377,0.155,0.775,0.222,1.174c0.908,4.874,1.396,9.859,1.44,14.933v1.263       c0,0.465,0,0.931-0.044,1.396C478.326,245.296,478.304,245.828,478.259,246.359z"/>
				</g>
				<g>
					<path style="fill:#CB6BE5;" d="M487.144,239.757c-0.067-2.504-0.244-4.985-0.532-7.466c-0.067-0.62-0.133-1.219-0.222-1.839       c-0.244-1.861-0.532-3.722-0.886-5.561c-0.089-0.377-0.155-0.775-0.244-1.174c-1.019-4.874-2.415-9.638-4.187-14.224       c-0.133-0.377-0.266-0.753-0.421-1.108c-1.883-4.719-4.188-9.239-6.846-13.515c-0.221-0.354-0.443-0.709-0.687-1.063       c-2.925-4.542-6.27-8.751-10.036-12.629l-0.997-0.997c-2.526-2.504-5.229-4.83-8.087-6.979       c-2.127-1.595-4.298-3.08-6.558-4.431h-0.022c-0.488-0.288-0.975-0.598-1.485-0.842h-0.022       c-7.289-4.232-15.11-7.201-23.308-9.106c-0.842-0.222-1.684-0.399-2.548-0.576c-4.497-0.931-9.106-1.551-13.758-1.883       c-0.621-0.066-1.263-0.111-1.906-0.133c-6.979-0.399-14.069-0.177-21.159,0.598c-0.532,0.044-1.063,0.089-1.573,0.177       c-6.115,0.709-12.23,1.817-18.256,3.279c-0.465,0.111-0.931,0.222-1.396,0.332c-5.561,1.396-11.056,3.08-16.417,4.985       l-1.263,0.465c-5.14,1.883-10.169,3.988-15.021,6.27c-0.399,0.177-0.776,0.354-1.174,0.554       c-4.785,2.304-9.394,4.786-13.781,7.4c-0.377,0.222-0.731,0.443-1.086,0.665c-0.51,0.31-1.019,0.62-1.529,0.931       c-3.811,2.371-7.511,4.874-11.122,7.489c-0.333,0.244-0.665,0.487-0.997,0.731c-0.111,0.089-0.221,0.155-0.332,0.244       c-0.864,0.643-1.728,1.285-2.592,1.95c-3.013,2.282-5.982,4.653-8.862,7.068c-0.31,0.266-0.62,0.532-0.908,0.798       c-3.789,3.213-7.489,6.536-11.056,9.948c-0.288,0.288-0.576,0.554-0.864,0.842c-1.152,1.108-2.26,2.193-3.39,3.323       l-0.022,0.022c-0.576,0.554-1.152,1.13-1.706,1.706c-1.795,1.795-3.567,3.633-5.295,5.472c-0.288,0.288-0.576,0.576-0.82,0.864       c-3.523,3.722-6.935,7.511-10.258,11.344c-0.288,0.288-0.554,0.598-0.797,0.908c-0.51,0.554-0.975,1.108-1.44,1.662       c-0.487,0.532-0.953,1.086-1.418,1.64c-2.282,2.659-4.52,5.317-6.713,7.998c-0.266,0.31-0.532,0.62-0.775,0.931       c-1.751,2.127-3.501,4.254-5.207,6.381c-1.196,1.484-2.437,2.925-3.722,4.365c-0.487,0.554-0.975,1.086-1.484,1.617       c-0.045,0.044-0.089,0.111-0.155,0.155l-0.798,0.864c-16.218,17.015-38.528,30.885-58.491,43.292l-1.684,1.041l-2.858,1.772       c-2.083,1.307-2.725,4.032-1.418,6.115c1.285,2.083,4.033,2.703,6.093,1.418l1.108-0.687l3.434-2.149       c15.996-9.926,33.41-20.782,48.365-33.543l0.045-0.022c0.709-0.598,1.396-1.196,2.083-1.772l0.022-0.022       c3.434-3.035,6.713-6.159,9.793-9.416c0.288-0.288,0.554-0.576,0.82-0.864c2.016-2.149,3.921-4.342,5.738-6.58       c0.953-1.196,1.95-2.393,2.925-3.589c0.421-0.532,0.864-1.041,1.285-1.573c0.2-0.266,0.421-0.51,0.643-0.775       c0.044-0.066,0.089-0.111,0.133-0.177c-0.022,0.089-0.044,0.155-0.066,0.244c-0.045,0.177-0.089,0.354-0.133,0.554       c-0.133,0.443-0.244,0.886-0.333,1.329c-1.285,5.207-2.127,10.568-2.504,15.996c-0.044,0.421-0.066,0.82-0.088,1.241v0.354       c-0.045,0.51-0.067,1.041-0.089,1.551c-0.177,4.409-0.044,8.862,0.421,13.315c0.044,0.421,0.089,0.82,0.133,1.241       c0.111,0.997,0.244,2.016,0.377,3.013c0.554,3.789,1.573,7.599,2.991,11.388c0.133,0.377,0.266,0.775,0.421,1.152       c1.817,4.586,4.232,9.106,7.156,13.404c0.244,0.354,0.487,0.709,0.709,1.063c2.681,3.811,5.716,7.444,9.062,10.812       c-11.521-2.481-23.241-4.143-35.692-4.254c-20.472-0.199-37.598,0.266-53.55,1.44c-1.13,0.089-2.26,0.177-3.39,0.266       c-2.371,0.199-4.143,2.216-4.055,4.586v0.199c0.2,2.437,2.348,4.254,4.786,4.054c1.617-0.133,3.257-0.266,4.896-0.377       c15.243-1.086,31.66-1.507,51.223-1.307c18.766,0.177,36.092,4.121,53.771,8.995c0.111,0.066,0.2,0.111,0.31,0.177       c0.155,0.089,0.332,0.199,0.487,0.288c0.443,0.222,0.864,0.399,1.33,0.465h0.022c0.244,0.044,0.487,0.066,0.731,0.066       c0.155,0,0.288-0.044,0.421-0.066c3.323,0.931,6.669,1.883,10.037,2.858c3.19,0.931,6.403,1.839,9.637,2.769       c2.637,0.753,5.273,1.44,7.865,2.06c0.82,0.199,1.618,0.399,2.415,0.598h0.022c5.118,1.152,10.147,2.127,15.088,2.836       c0.687,0.111,1.374,0.199,2.06,0.288c7.466,1.041,14.755,1.551,21.912,1.551c1.285,0,2.57-0.022,3.833-0.044       c0.576-0.022,1.13-0.044,1.706-0.066h0.022c6.625-0.244,13.116-0.953,19.497-2.105c0.487-0.089,0.975-0.177,1.462-0.266       c4.498-0.864,8.907-1.928,13.293-3.235c1.44-0.421,2.858-0.864,4.276-1.352c0.443-0.133,0.864-0.266,1.285-0.443       c5.251-1.75,10.303-3.811,15.177-6.115h0.022c0.399-0.177,0.754-0.354,1.152-0.554c4.741-2.282,9.283-4.786,13.625-7.555       c0.355-0.199,0.709-0.421,1.064-0.665c4.276-2.747,8.352-5.716,12.208-8.862c0.31-0.266,0.62-0.532,0.931-0.798       c3.611-3.013,7.001-6.204,10.191-9.549c0.2-0.222,0.399-0.421,0.576-0.62c0.288-0.288,0.554-0.576,0.82-0.886       c0.045-0.022,0.067-0.066,0.111-0.111l0.022-0.022c3.323-3.634,6.381-7.422,9.172-11.41c0.244-0.332,0.488-0.665,0.709-0.997       c1.506-2.171,2.925-4.409,4.254-6.669c0.288-0.487,0.554-0.975,0.82-1.462c0.931-1.617,1.817-3.257,2.637-4.919       c0.2-0.377,0.399-0.753,0.554-1.13c1.817-3.7,3.412-7.511,4.741-11.388c0.177-0.465,0.333-0.908,0.487-1.374       c0.222-0.665,0.421-1.307,0.62-1.972c0.155-0.421,0.288-0.864,0.399-1.285c0.022-0.022,0.022-0.022,0.022-0.044       c1.285-4.32,2.26-8.685,2.925-13.05c0.088-0.443,0.155-0.886,0.199-1.307c0.133-0.842,0.244-1.706,0.31-2.548       c0.089-0.487,0.133-0.997,0.177-1.484c0.399-3.877,0.532-7.732,0.465-11.543C487.188,240.577,487.166,240.178,487.144,239.757z        M478.259,246.359c-0.155,4.21-0.62,8.441-1.396,12.695c-0.088,0.443-0.177,0.886-0.288,1.329       c-0.221,1.263-0.509,2.526-0.842,3.789c-0.088,0.443-0.199,0.908-0.332,1.351c-0.244,0.975-0.51,1.928-0.798,2.902       c-0.864,2.925-1.861,5.783-3.013,8.596c-0.177,0.465-0.376,0.931-0.576,1.396c-0.31,0.775-0.643,1.529-0.997,2.282       c-0.177,0.399-0.355,0.775-0.532,1.152c-2.127,4.586-4.63,8.995-7.489,13.227c-0.222,0.332-0.443,0.665-0.687,1.019       c-0.044,0.089-0.111,0.177-0.177,0.266c-0.355,0.51-0.709,1.019-1.086,1.529c-2.437,3.412-5.096,6.669-7.976,9.793       c-0.266,0.288-0.532,0.598-0.82,0.886c-3.213,3.434-6.669,6.713-10.391,9.748c-0.133,0.155-0.288,0.266-0.443,0.377       c-0.31,0.266-0.62,0.532-0.953,0.775c-0.266,0.244-0.554,0.465-0.842,0.687c-3.633,2.88-7.466,5.561-11.521,8.042       c-0.354,0.244-0.709,0.443-1.063,0.665c-4.431,2.681-9.061,5.118-13.913,7.289c-0.399,0.177-0.798,0.354-1.197,0.51       c-5.007,2.216-10.191,4.143-15.597,5.76c-0.2,0.066-0.421,0.133-0.621,0.199c-0.244,0.066-0.465,0.133-0.709,0.199       c-6.026,1.75-12.075,3.08-18.234,3.944c-0.532,0.066-1.019,0.155-1.551,0.199h-0.022c-6.735,0.886-13.603,1.219-20.649,1.019       h-0.022c-0.621,0-1.197-0.022-1.817-0.044c-4.343-0.177-8.774-0.554-13.271-1.13h-0.022c-1.019-0.133-2.016-0.288-3.035-0.421       h-0.022c-3.877-0.576-7.777-1.307-11.787-2.171h-0.022c-0.753-0.155-1.507-0.332-2.282-0.51h-0.022       c-3.523-0.798-7.112-1.706-10.768-2.747c-1.994-0.554-3.988-1.13-5.96-1.706c-0.754-0.199-1.462-0.421-2.216-0.643h-0.022       c-0.465-0.133-0.953-0.266-1.418-0.399c-4.143-1.196-8.264-2.393-12.363-3.523c-2.858-1.639-5.605-3.501-8.219-5.539       c-0.399-0.31-0.776-0.62-1.174-0.931c-4.409-3.611-8.419-7.754-11.831-12.163c-0.266-0.354-0.532-0.687-0.798-1.041       c-3.124-4.232-5.738-8.729-7.643-13.271c-0.177-0.377-0.333-0.753-0.465-1.13c-1.373-3.456-2.348-6.957-2.836-10.369       c-0.199-1.351-0.377-2.725-0.487-4.077c-0.044-0.421-0.088-0.82-0.111-1.219c-0.089-0.931-0.155-1.839-0.2-2.769v-0.022       c-0.044-0.532-0.066-1.108-0.066-1.662v-0.022c-0.133-3.633-0.022-7.245,0.31-10.834c0.022-0.421,0.066-0.842,0.111-1.263       c0.288-2.902,0.753-5.738,1.352-8.552v-0.022c0.066-0.465,0.177-0.931,0.288-1.374c0.465-2.127,1.019-4.21,1.662-6.27       c0.133-0.465,0.288-0.908,0.443-1.351c0.864-2.659,1.861-5.251,3.013-7.777c0.155-0.399,0.332-0.775,0.532-1.152v-0.022       c1.374-2.947,2.925-5.805,4.653-8.53c0.31-0.51,0.665-1.019,1.019-1.529c0.288-0.465,0.598-0.931,0.931-1.396       c0.266-0.399,0.465-0.842,0.598-1.285c0.244-0.244,0.465-0.51,0.709-0.753c0.266-0.288,0.554-0.576,0.82-0.864       c3.39-3.589,6.868-7.112,10.435-10.524c0.288-0.266,0.576-0.554,0.864-0.82c1.728-1.662,3.501-3.301,5.295-4.896       c0.665-0.598,1.33-1.196,2.016-1.795c1.241-1.086,2.504-2.171,3.766-3.235c0.31-0.266,0.621-0.532,0.931-0.775       c3.833-3.213,7.777-6.27,11.853-9.195c0.333-0.244,0.665-0.487,0.997-0.731c2.991-2.105,6.048-4.165,9.172-6.115       c1.196-0.731,2.393-1.484,3.633-2.193c0.355-0.222,0.709-0.421,1.086-0.62c0.886-0.532,1.772-1.019,2.681-1.529       c1.551-0.864,3.146-1.706,4.764-2.526c2.149-1.086,4.32-2.149,6.536-3.168c0.399-0.177,0.82-0.354,1.219-0.532       c4.963-2.238,10.081-4.254,15.309-6.026c0.443-0.133,0.864-0.288,1.285-0.421c5.539-1.817,11.189-3.368,16.882-4.564       c0.488-0.111,0.953-0.199,1.44-0.288c6.336-1.285,12.717-2.149,19.054-2.526c0.576-0.044,1.13-0.066,1.684-0.111       c1.108-0.044,2.216-0.066,3.301-0.089c1.551-0.044,3.102-0.044,4.653,0c5.184,0.111,10.302,0.598,15.31,1.462       c0.753,0.133,1.506,0.266,2.238,0.443c5.317,1.041,10.479,2.57,15.42,4.653c0.621,0.222,1.197,0.487,1.795,0.775h0.022       c4.897,2.149,9.571,4.852,13.936,8.131c1.108,0.842,2.193,1.706,3.257,2.592c0.377,0.31,0.731,0.643,1.108,0.953       c4.165,3.7,7.865,7.843,11.033,12.385c0.244,0.354,0.488,0.687,0.709,1.041c2.858,4.187,5.273,8.685,7.245,13.404       c0.155,0.377,0.31,0.753,0.443,1.108v0.022c1.086,2.725,2.038,5.517,2.814,8.375c0.222,0.709,0.399,1.44,0.576,2.171v0.022       c0.31,1.196,0.576,2.415,0.82,3.633c0.089,0.377,0.155,0.775,0.222,1.174c0.908,4.874,1.396,9.859,1.44,14.933v1.263       c0,0.465,0,0.931-0.044,1.396C478.326,245.296,478.304,245.828,478.259,246.359z"/>
				</g>
				<g>
					<g>
						<g>
							<path style="fill:#7843D4;" d="M180.091,335.181c0.022,0.022,0.022,0.044,0,0.066c0,0.066,0,0.133-0.022,0.222         c-0.022,0.244-0.044,0.51-0.111,0.731c-0.066,0.399-0.199,0.82-0.377,1.219c-0.066,0.177-0.155,0.354-0.243,0.51         c-0.089,0.155-0.177,0.332-0.288,0.487c-0.067,0.089-0.111,0.177-0.155,0.266c-0.51,0.709-1.152,1.307-1.905,1.772         c-0.133,0.089-0.266,0.155-0.399,0.222c-0.222,0.133-0.443,0.244-0.687,0.332c-10.147,3.988-20.339,7.887-30.553,11.676         c-0.709,0.266-1.396,0.532-2.105,0.775c-2.149,0.798-4.32,1.595-6.469,2.371c-0.443,0.177-0.908,0.354-1.351,0.487         c-0.266,0.111-0.532,0.222-0.798,0.288c-0.421,0.177-0.864,0.332-1.285,0.487c-0.776,0.288-1.573,0.576-2.348,0.842         c-0.709,0.266-1.396,0.51-2.083,0.753c-3.124,1.13-6.248,2.238-9.372,3.323c-0.687,0.266-1.396,0.51-2.083,0.753         c-1.485,0.532-2.969,1.063-4.453,1.573c-15.708,5.472-31.549,10.612-47.501,15.332c-10.746,3.168-22.399,7.267-33.499,7.777         c-2.703,0.133-5.473-0.044-7.954-1.063c-2.991-1.219-5.45-3.966-7.178-7.311c-2.526-4.874-3.478-11.011-2.26-15.309         c2.659-9.394,15.686-13.803,23.706-16.727c16.24-5.915,48.011-17.414,76.215-27.628c0.288-0.089,0.554-0.199,0.842-0.31         c0.487-0.155,0.997-0.354,1.484-0.532c0.199-0.066,0.421-0.133,0.62-0.222c2.57-0.931,5.096-1.839,7.555-2.725         c0.731-0.266,1.44-0.532,2.149-0.775c2.149-0.775,4.232-1.529,6.27-2.26c0.775-0.288,1.529-0.554,2.282-0.842         c0.244-0.089,0.487-0.177,0.731-0.266c0.731-0.266,1.462-0.51,2.171-0.775c10.258-3.722,18.854-6.824,24.371-8.818         c2.969-1.063,6.204,0.133,7.821,2.659c0.333,0.487,0.598,1.041,0.776,1.639l2.149,6.979l4.099,13.36l0.133,0.443l1.817,5.893         c0.089,0.332,0.177,0.665,0.222,0.997C180.091,334.295,180.113,334.738,180.091,335.181z"/>
						</g>
						<g>
							<g>
								<path style="fill:#FFECDF;" d="M119.54,362.011c-0.687,0.266-1.396,0.51-2.083,0.753c-0.665-2.393-1.241-4.852-1.706-7.333          c-2.304-11.676-2.747-24.127-1.219-36.025c0.088-0.82,0.199-1.64,0.354-2.437c0.155,0.709,0.31,1.418,0.488,2.127          c0.487-0.155,0.997-0.354,1.484-0.532c-0.222,1.462-0.377,2.925-0.532,4.387c-1.019,10.568-0.488,21.469,1.529,31.749          C118.321,357.181,118.897,359.618,119.54,362.011z"/>
							</g>
						</g>
						<g>
							<g>
								<path style="fill:#FFECDF;" d="M130.994,357.934c-0.709,0.266-1.396,0.51-2.083,0.753c-1.042-2.26-2.038-4.564-2.991-6.913          c-3.788-9.172-7.001-18.854-9.593-28.824c-0.333-1.285-0.643-2.57-0.953-3.855c0.487-0.155,0.997-0.354,1.484-0.532          c0.066-0.598,0.155-1.174,0.243-1.772c0.111,0.51,0.244,1.019,0.377,1.551c2.681,11.321,6.226,22.333,10.502,32.657          C128.956,353.348,129.953,355.652,130.994,357.934z"/>
							</g>
						</g>
						<g>
							<g>
								<path style="fill:#FFECDF;" d="M135.425,356.317c-0.266,0.111-0.532,0.222-0.798,0.288          c-0.421,0.177-0.864,0.332-1.285,0.487c-0.665-2.459-1.307-4.941-1.883-7.444c-2.725-11.1-4.852-22.466-6.425-34.031          c0.731-0.266,1.44-0.532,2.149-0.775c1.529,11.543,3.656,22.909,6.337,34.009c0.244,0.953,0.465,1.905,0.709,2.858          C134.606,353.237,135.027,354.788,135.425,356.317z"/>
							</g>
						</g>
						<g>
							<g>
								<path style="fill:#FFECDF;" d="M136.777,355.83c-0.443,0.177-0.908,0.354-1.351,0.487c-0.266,0.111-0.532,0.222-0.798,0.288          c-0.155-1.64-0.288-3.279-0.399-4.896c-0.066-1.019-0.155-2.038-0.199-3.057c-0.842-12.008-1.019-24.039-0.576-36.069          c0.775-0.288,1.529-0.554,2.282-0.842c-0.488,12.008-0.333,24.061,0.443,36.025          C136.334,350.468,136.533,353.149,136.777,355.83z"/>
							</g>
						</g>
						<g>
							<g>
								<path style="fill:#FFECDF;" d="M145.351,352.684c-0.709,0.266-1.396,0.532-2.105,0.775c-0.687-2.57-1.351-5.184-1.928-7.821          c-2.525-11.056-4.165-22.532-4.852-34.164c0.731-0.266,1.462-0.51,2.171-0.775c0.642,11.609,2.237,23.02,4.741,34.053          C143.977,347.433,144.642,350.069,145.351,352.684z"/>
							</g>
						</g>
					</g>
					<g style="opacity:0.31;">
						<path style="fill:#010A4E;" d="M175.904,341.008c-10.147,3.988-20.339,7.887-30.553,11.676        c-0.709,0.266-1.396,0.532-2.105,0.775c-2.149,0.798-4.32,1.595-6.469,2.371c-0.443,0.177-0.908,0.354-1.351,0.487        c-0.266,0.111-0.532,0.222-0.798,0.288c-0.421,0.177-0.864,0.332-1.285,0.487c-0.776,0.288-1.573,0.576-2.348,0.842        c-0.709,0.266-1.396,0.51-2.083,0.753c-3.124,1.13-6.248,2.238-9.372,3.323c-0.687,0.266-1.396,0.51-2.083,0.753        c-1.485,0.532-2.969,1.063-4.453,1.573c-15.708,5.472-31.549,10.612-47.501,15.332c-10.746,3.168-22.399,7.267-33.499,7.777        c-2.703,0.133-5.473-0.044-7.954-1.063c-2.991-1.219-5.45-3.966-7.178-7.311c2.238-0.177,4.719-0.089,6.336-0.332        c3.589-0.554,7.156-1.285,10.723-2.016c27.539-5.694,55.234-12.186,81.82-21.291c0.709-0.244,1.396-0.487,2.105-0.731        c2.703-0.953,5.384-1.905,8.064-2.924c0.687-0.244,1.374-0.51,2.061-0.775c1.152-0.421,2.326-0.886,3.478-1.352        c0.687-0.244,1.374-0.532,2.061-0.798c0.177-0.066,0.354-0.133,0.51-0.199c0.731-0.288,1.44-0.576,2.149-0.886        c1.728-0.687,3.434-1.396,5.14-2.127c0.687-0.288,1.374-0.598,2.06-0.886c11.897-5.184,23.485-11.056,34.607-17.791        l1.817,5.893C180.844,336.178,179.138,339.745,175.904,341.008z"/>
					</g>
				</g>
				<g>
					<g>
						<path style="fill:#FFECDF;" d="M473.709,280.756c-0.038,0.816,0.052,1.779,0.748,2.205c0.855,0.524,1.947-0.154,2.605-0.911        c1.457-1.674,5.385-9.126,2.089-10.229C474.834,270.375,473.827,278.252,473.709,280.756z"/>
					</g>
					<g>
						<path style="fill:#FFECDF;" d="M474.713,289.43c0.149,1.346-0.821,2.557-2.167,2.706c-1.346,0.149-2.557-0.821-2.706-2.167        c-0.149-1.345,0.821-2.557,2.167-2.706C473.352,287.115,474.564,288.085,474.713,289.43z"/>
					</g>
				</g>
				<g>
					<g>
						<path style="fill:#FFECDF;" d="M211.918,280.796c-0.405,0.709-0.764,1.608-0.338,2.304c0.523,0.856,1.803,0.749,2.734,0.375        c2.059-0.827,8.949-5.674,6.517-8.157C217.646,272.066,213.163,278.62,211.918,280.796z"/>
					</g>
					<g>
						<path style="fill:#FFECDF;" d="M208.862,288.975c-0.48,1.266-1.895,1.903-3.161,1.423c-1.266-0.48-1.903-1.895-1.423-3.161        c0.48-1.266,1.895-1.903,3.161-1.423C208.705,286.294,209.342,287.71,208.862,288.975z"/>
					</g>
				</g>
			</g>
		</g>
		<g>
			<g>
				<path style="fill:#FFC279;" d="M258.557,408.877c0,24.858-16.927,45.751-39.902,51.8c-0.377,0.089-0.753,0.199-1.152,0.266      c-4.01,0.975-8.198,1.484-12.496,1.484c-15.996,0-30.375-7.023-40.146-18.145c-0.332-0.332-0.598-0.665-0.864-0.997      c-7.843-9.305-12.54-21.314-12.54-34.408c0-28.005,21.491-50.98,48.875-53.35c0.354-0.022,0.731-0.066,1.108-0.066      c1.174-0.089,2.371-0.133,3.567-0.133c12.606,0,24.216,4.364,33.366,11.676c0.31,0.222,0.598,0.465,0.909,0.731      C251.069,377.55,258.557,392.349,258.557,408.877z"/>
			</g>
			<g>
				<path style="fill:#FFECDF;" d="M196.478,386.013c-0.886,1.241-1.839,2.437-2.769,3.611c-2.304,2.88-4.653,5.871-5.805,9.328      c-1.285,3.811-1.042,7.776-0.776,11.986c0.155,2.371,0.31,4.83,0.155,7.223c-0.554,8.574-5.074,16.661-12.097,21.602      c-3.124,2.193-6.647,3.722-10.324,4.52c-0.332-0.332-0.598-0.665-0.864-0.997c3.789-0.731,7.422-2.216,10.546-4.431      c6.669-4.675,11.122-12.628,11.632-20.76c0.155-2.326,0-4.763-0.155-7.09c-0.244-4.121-0.51-8.397,0.82-12.407      c1.219-3.656,3.656-6.691,5.982-9.66c0.931-1.152,1.883-2.348,2.747-3.567c6.336-8.951,7.932-20.516,4.763-29.843      c0.354-0.022,0.731-0.066,1.108-0.066C204.609,365.054,202.947,376.863,196.478,386.013z"/>
			</g>
			<g>
				<path style="fill:#FFECDF;" d="M224.97,394.233c0.111,2.637,0.576,5.362,1.041,7.976c0.842,4.963,1.728,10.103,0.244,14.999      c-1.086,3.611-3.323,6.669-5.495,9.615c-1.285,1.75-2.614,3.545-3.656,5.428c-4.963,8.751-4.21,20.25,1.551,28.426      c-0.377,0.089-0.753,0.199-1.152,0.266c-5.76-8.463-6.447-20.25-1.374-29.245c1.086-1.928,2.437-3.766,3.722-5.517      c2.238-3.013,4.321-5.871,5.362-9.283c1.396-4.652,0.576-9.438-0.31-14.489c-0.443-2.659-0.908-5.406-1.041-8.131      c-0.443-10.701,5.539-21.38,14.512-27.273c0.31,0.222,0.598,0.465,0.909,0.731C230.464,373.362,224.549,383.775,224.97,394.233z      "/>
			</g>
		</g>
		<g>
			<g>
				<path style="fill:#FFC279;" d="M394.624,131.029c-16.019,19.009-42.425,24.078-63.892,13.898      c-0.345-0.175-0.704-0.333-1.052-0.539c-3.695-1.839-7.225-4.148-10.512-6.917c-12.232-10.308-18.702-24.944-19.007-39.745      c-0.04-0.468-0.029-0.894-0.018-1.319c-0.001-12.17,4.145-24.379,12.583-34.392c18.046-21.415,49.285-25.136,71.753-9.302      c0.285,0.211,0.602,0.42,0.89,0.663c0.955,0.689,1.898,1.426,2.813,2.197c9.64,8.124,15.705,18.942,17.991,30.429      c0.094,0.369,0.158,0.741,0.224,1.144C409.085,102.248,405.275,118.391,394.624,131.029z"/>
			</g>
			<g>
				<path style="fill:#FFECDF;" d="M361.886,73.542c-1.477,0.378-2.977,0.678-4.445,0.977c-3.618,0.718-7.341,1.492-10.449,3.392      c-3.438,2.086-5.807,5.276-8.317,8.666c-1.409,1.913-2.875,3.893-4.536,5.623c-5.949,6.2-14.616,9.471-23.17,8.724      c-3.802-0.336-7.481-1.437-10.807-3.197c-0.04-0.468-0.029-0.894-0.018-1.319c3.368,1.882,7.103,3.089,10.92,3.408      c8.112,0.722,16.643-2.49,22.272-8.38c1.618-1.679,3.069-3.643,4.45-5.521c2.469-3.308,5.021-6.749,8.622-8.959      c3.287-2.01,7.107-2.761,10.799-3.532c1.454-0.281,2.953-0.582,4.399-0.957c10.613-2.762,19.285-10.577,22.873-19.752      c0.285,0.211,0.602,0.42,0.89,0.663C381.61,62.754,372.73,70.713,361.886,73.542z"/>
			</g>
			<g>
				<path style="fill:#FFECDF;" d="M378.377,98.187c-1.614,2.087-3.014,4.471-4.343,6.77c-2.554,4.338-5.189,8.839-9.479,11.627      c-3.157,2.062-6.839,2.958-10.398,3.812c-2.111,0.511-4.284,1.026-6.293,1.795c-9.434,3.494-16.268,12.773-17.131,22.736      c-0.345-0.175-0.704-0.333-1.052-0.539c1.049-10.184,8.119-19.64,17.795-23.249c2.072-0.774,4.291-1.31,6.401-1.82      c3.653-0.862,7.087-1.706,10.082-3.644c4.066-2.658,6.523-6.846,9.1-11.28c1.374-2.319,2.789-4.719,4.443-6.889      c6.557-8.468,18.013-12.78,28.672-11.504c0.094,0.369,0.158,0.741,0.224,1.144C396.027,85.768,384.794,89.919,378.377,98.187z"/>
			</g>
		</g>
		<g>
			<g>
				<g>
					<g>
						<g>
							<path style="fill:#FFC279;" d="M150.788,273.015c-10.859,12.886-28.76,16.323-43.313,9.422         c-0.234-0.119-0.477-0.226-0.713-0.365c-2.505-1.246-4.898-2.812-7.126-4.689c-8.292-6.988-12.678-16.91-12.885-26.944         c-0.027-0.317-0.02-0.606-0.012-0.894c-0.001-8.25,2.81-16.527,8.53-23.314c12.233-14.517,33.41-17.039,48.641-6.306         c0.193,0.143,0.408,0.285,0.603,0.45c0.648,0.467,1.287,0.967,1.907,1.489c6.535,5.507,10.647,12.841,12.196,20.628         c0.064,0.251,0.107,0.503,0.152,0.776C160.591,253.504,158.008,264.447,150.788,273.015z"/>
						</g>
						<g>
							<path style="fill:#FFECDF;" d="M128.594,234.044c-1.001,0.256-2.018,0.46-3.013,0.662c-2.453,0.487-4.977,1.011-7.084,2.3         c-2.331,1.414-3.937,3.576-5.638,5.875c-0.955,1.297-1.949,2.639-3.075,3.812c-4.033,4.203-9.908,6.42-15.707,5.914         c-2.577-0.228-5.071-0.974-7.326-2.167c-0.027-0.317-0.02-0.606-0.012-0.894c2.283,1.276,4.815,2.094,7.403,2.31         c5.499,0.49,11.282-1.688,15.098-5.68c1.097-1.138,2.081-2.469,3.017-3.743c1.674-2.243,3.404-4.576,5.845-6.074         c2.229-1.363,4.818-1.871,7.321-2.394c0.986-0.191,2.002-0.395,2.982-0.649c7.195-1.872,13.074-7.17,15.506-13.39         c0.193,0.143,0.408,0.285,0.603,0.45C141.965,226.731,135.945,232.127,128.594,234.044z"/>
						</g>
						<g>
							<path style="fill:#FFECDF;" d="M139.773,250.751c-1.094,1.415-2.043,3.031-2.944,4.59c-1.732,2.94-3.517,5.992-6.426,7.882         c-2.14,1.398-4.636,2.005-7.049,2.584c-1.431,0.346-2.904,0.696-4.266,1.217c-6.396,2.369-11.028,8.659-11.613,15.413         c-0.234-0.119-0.477-0.226-0.713-0.365c0.711-6.904,5.504-13.314,12.063-15.761c1.405-0.525,2.909-0.888,4.339-1.234         c2.476-0.584,4.804-1.156,6.835-2.47c2.756-1.802,4.422-4.641,6.169-7.647c0.932-1.572,1.891-3.199,3.012-4.67         c4.445-5.741,12.211-8.664,19.437-7.799c0.064,0.251,0.107,0.503,0.152,0.776         C151.739,242.332,144.123,245.146,139.773,250.751z"/>
						</g>
					</g>
					<g>
						<g>
							<path style="fill:#FFC279;" d="M202.554,223.685c-10.859,12.886-28.76,16.323-43.313,9.422         c-0.234-0.119-0.477-0.226-0.713-0.365c-2.505-1.246-4.898-2.812-7.126-4.689c-8.292-6.988-12.678-16.91-12.885-26.943         c-0.027-0.317-0.02-0.606-0.012-0.894c-0.001-8.25,2.81-16.527,8.53-23.314c12.233-14.517,33.41-17.04,48.641-6.306         c0.193,0.143,0.408,0.285,0.603,0.45c0.648,0.467,1.287,0.967,1.907,1.489c6.535,5.507,10.647,12.841,12.196,20.628         c0.064,0.25,0.107,0.502,0.152,0.776C212.357,204.174,209.774,215.117,202.554,223.685z"/>
						</g>
						<g>
							<path style="fill:#FFECDF;" d="M180.361,184.713c-1.001,0.256-2.018,0.46-3.013,0.662c-2.453,0.487-4.977,1.011-7.084,2.3         c-2.331,1.414-3.937,3.576-5.638,5.875c-0.955,1.297-1.949,2.639-3.075,3.812c-4.033,4.203-9.908,6.42-15.707,5.914         c-2.577-0.228-5.071-0.974-7.326-2.167c-0.027-0.317-0.02-0.606-0.012-0.894c2.283,1.276,4.815,2.094,7.403,2.31         c5.499,0.49,11.282-1.688,15.098-5.681c1.097-1.138,2.081-2.469,3.017-3.743c1.674-2.243,3.404-4.576,5.845-6.074         c2.229-1.363,4.818-1.871,7.321-2.394c0.986-0.191,2.002-0.395,2.982-0.649c7.195-1.872,13.074-7.17,15.506-13.39         c0.193,0.143,0.408,0.285,0.603,0.45C193.732,177.4,187.711,182.796,180.361,184.713z"/>
						</g>
						<g>
							<path style="fill:#FFECDF;" d="M191.54,201.421c-1.094,1.415-2.043,3.031-2.944,4.59c-1.732,2.94-3.517,5.992-6.426,7.882         c-2.14,1.398-4.636,2.005-7.049,2.584c-1.431,0.346-2.904,0.695-4.266,1.217c-6.396,2.369-11.028,8.659-11.613,15.413         c-0.234-0.119-0.477-0.226-0.713-0.365c0.711-6.904,5.504-13.314,12.063-15.761c1.405-0.525,2.909-0.888,4.339-1.234         c2.476-0.584,4.804-1.157,6.835-2.47c2.756-1.802,4.422-4.641,6.169-7.647c0.932-1.572,1.891-3.199,3.012-4.67         c4.445-5.741,12.211-8.664,19.437-7.799c0.064,0.25,0.107,0.502,0.152,0.776C203.505,193.002,195.89,195.816,191.54,201.421z         "/>
						</g>
					</g>
					<g>
						<g>
							<path style="fill:#FFC279;" d="M252.088,168.873c-10.859,12.886-28.76,16.323-43.313,9.422         c-0.234-0.119-0.477-0.226-0.713-0.366c-2.505-1.246-4.898-2.811-7.126-4.689c-8.292-6.988-12.678-16.91-12.885-26.944         c-0.027-0.317-0.02-0.606-0.012-0.894c-0.001-8.25,2.81-16.527,8.53-23.314c12.233-14.517,33.41-17.039,48.641-6.306         c0.193,0.143,0.408,0.285,0.603,0.449c0.647,0.467,1.287,0.967,1.907,1.489c6.535,5.507,10.647,12.841,12.196,20.628         c0.064,0.25,0.107,0.502,0.152,0.776C261.891,149.362,259.308,160.305,252.088,168.873z"/>
						</g>
						<g>
							<path style="fill:#FFECDF;" d="M229.894,129.902c-1.001,0.256-2.018,0.46-3.013,0.662c-2.453,0.486-4.977,1.011-7.084,2.3         c-2.331,1.414-3.937,3.576-5.638,5.875c-0.955,1.297-1.949,2.639-3.075,3.812c-4.033,4.203-9.908,6.42-15.707,5.914         c-2.577-0.228-5.071-0.974-7.326-2.167c-0.027-0.317-0.02-0.606-0.012-0.894c2.283,1.276,4.815,2.094,7.403,2.31         c5.499,0.49,11.282-1.688,15.098-5.68c1.097-1.138,2.081-2.469,3.017-3.743c1.674-2.243,3.404-4.576,5.845-6.074         c2.229-1.363,4.818-1.871,7.321-2.394c0.986-0.191,2.002-0.395,2.982-0.649c7.195-1.872,13.074-7.17,15.506-13.39         c0.193,0.143,0.408,0.285,0.603,0.449C243.265,122.589,237.245,127.985,229.894,129.902z"/>
						</g>
						<g>
							<path style="fill:#FFECDF;" d="M241.073,146.609c-1.094,1.415-2.043,3.031-2.944,4.589c-1.732,2.94-3.518,5.992-6.426,7.882         c-2.14,1.398-4.636,2.005-7.049,2.584c-1.431,0.346-2.904,0.695-4.266,1.217c-6.396,2.369-11.028,8.658-11.613,15.413         c-0.234-0.119-0.477-0.226-0.713-0.366c0.711-6.904,5.504-13.314,12.063-15.761c1.405-0.525,2.909-0.888,4.339-1.234         c2.476-0.584,4.804-1.156,6.835-2.47c2.756-1.802,4.422-4.641,6.169-7.647c0.932-1.572,1.891-3.199,3.012-4.67         c4.445-5.741,12.211-8.664,19.437-7.799c0.064,0.25,0.107,0.502,0.152,0.776C253.039,138.19,245.423,141.004,241.073,146.609         z"/>
						</g>
					</g>
				</g>
				<path style="fill:#FFECDF;" d="M115.788,299.851c-10.556,0.002-20.991-4.022-28.623-12.006      c-0.586-0.614-1.168-1.253-1.742-1.921c-3.1-3.605-5.705-7.503-7.739-11.591c-7.35-14.773-4.531-33.047,7.014-45.473      L214.836,88.77l1.791,1.662L86.49,230.522c-10.859,11.686-13.518,28.854-6.616,42.721c1.943,3.905,4.433,7.635,7.402,11.089      c0.547,0.634,1.099,1.242,1.657,1.826c13.867,14.505,37.617,15.07,52.942,1.264L283.557,159.83l1.636,1.817L143.51,289.238      C135.632,296.331,125.658,299.851,115.788,299.851z"/>
				<path style="fill:#7843D4;" d="M203.922,89.24l83.69,75.458l1.488-1.305c9.946-8.727,9.991-24.197,0.097-32.983l-51.331-45.577      c-8.486-7.535-21.312-7.377-29.61,0.364L203.922,89.24z"/>
				<path style="fill:#FFECDF;" d="M291.863,162.292c-0.074,0-0.147-0.026-0.206-0.078L207.62,86.083      c-0.125-0.115-0.134-0.307-0.022-0.433c0.115-0.128,0.307-0.132,0.433-0.022l84.037,76.131c0.125,0.115,0.134,0.307,0.022,0.433      C292.03,162.26,291.945,162.292,291.863,162.292z"/>
			</g>
			<g>
				<path style="fill:#FFECDF;" d="M241.984,170.835c-1.114,1.779-2.121,3.703-2.315,5.793c-0.195,2.09,0.586,4.385,2.375,5.484      c2.741,1.683,6.26-0.025,8.899-1.865c5.02-3.501,20.431-17.162,12.636-24.269C257.219,150.18,244.69,166.514,241.984,170.835z"/>
				<path style="fill:#FFECDF;" d="M237.131,190.449c0.369,3.773-2.391,7.131-6.164,7.499c-3.773,0.369-7.131-2.391-7.499-6.164      c-0.369-3.773,2.391-7.131,6.164-7.499S236.763,186.676,237.131,190.449z"/>
			</g>
			<path style="fill:#FFECDF;" d="M82.004,260.769c0.295,1.023,0.683,2.073,1.474,2.787c0.791,0.714,2.091,0.967,2.919,0.298     c0.878-0.709,1.955-6.142,2.611-7.445c1.302-2.589,2.926-5.003,4.248-7.581c1.498-2.922,4.948-9.889-0.293-10.908     c-3.352-0.652-7.536,3.136-9.246,5.576C80.387,248.245,80.458,255.402,82.004,260.769z"/>
		</g>
		<polygon style="fill:#CB6BE5;" points="304.563,421.705 311.351,381.731 342.274,406.62   "/>
		<polygon style="fill:#7843D4;" points="445.426,151.102 405.997,141.65 432.903,112.464   "/>
		<polygon style="fill:#CB6BE5;" points="118.845,169.203 79.416,159.752 106.322,130.566   "/>
		<g>
			<path style="fill:#FFECDF;" d="M71.221,316.602c-0.117,0-0.236-0.017-0.353-0.058c-0.58-0.195-0.891-0.822-0.697-1.402     c2.661-7.919-0.573-17.216-7.363-21.162c-2.689-1.564-6.054-2.172-9.353-1.768c0.697,2.118,1.049,4.323,0.997,6.525     c-0.095,4.005-1.564,7.421-4.031,9.373c-1.612,1.274-3.821,1.859-5.902,1.577c-1.772-0.245-3.274-1.103-4.228-2.421     c-1.588-2.194-1.61-5.405-0.054-8.59c1.83-3.745,5.413-6.664,9.829-8.003c0.117-0.037,0.236-0.071,0.353-0.104     c-2.259-4.723-6.45-8.726-11.616-10.667c-2.194-0.82-5.454-1.61-8.553-0.705c-2.841,0.833-4.991,3.081-5.353,5.595     c-0.089,0.606-0.666,1.01-1.255,0.939c-0.606-0.087-1.026-0.649-0.939-1.255c0.482-3.358,3.265-6.333,6.924-7.404     c2.914-0.857,6.355-0.593,9.955,0.757c5.863,2.2,10.591,6.822,13.042,12.255c3.99-0.627,7.99,0.056,11.296,1.978     c7.668,4.457,11.335,14.905,8.349,23.785C72.115,316.31,71.684,316.602,71.221,316.602z M51.268,292.633     c-0.186,0.05-0.372,0.104-0.558,0.16c-3.83,1.162-6.919,3.661-8.481,6.857c-0.92,1.88-1.439,4.528-0.141,6.318     c0.595,0.822,1.566,1.363,2.735,1.525c1.46,0.193,3.092-0.225,4.223-1.119c1.949-1.543,3.111-4.347,3.191-7.689     C52.287,296.64,51.943,294.593,51.268,292.633z"/>
			<path style="fill:#FFECDF;" d="M399.027,384.457c-9.656,0-19.027-7.744-20.885-17.558c-0.115-0.601,0.281-1.179,0.883-1.294     c0.591-0.117,1.181,0.279,1.294,0.883c1.748,9.232,10.905,16.433,19.944,15.706c4.513-0.359,8.888-2.774,12.006-6.623     c-1.523-0.589-2.947-1.38-4.215-2.367c-2.7-2.103-4.66-4.955-6.389-7.471c-1.116-1.627-2.508-3.652-2.689-6.052     c-0.167-2.224,0.846-4.409,2.782-5.993c2.283-1.867,5.346-2.564,7.995-1.815c5.035,1.424,7.893,6.58,8.492,11.058     c0.511,3.801-0.363,7.813-2.425,11.376c3.598,0.71,7.542,0.288,11.056-1.335c5.344-2.469,9.721-7.495,12.01-13.791     c0.134-0.368,0.266-0.757,0.392-1.164c-1.874-0.288-3.739-0.907-5.491-1.848c-3.882-2.084-6.759-5.506-7.893-9.392     c-0.537-1.83-0.534-3.328,0.007-4.578c1.062-2.458,3.91-3.364,6.262-3.168c4.206,0.34,8.153,3.75,9.594,8.291     c0.822,2.583,0.924,5.526,0.32,8.657c1.112-0.032,2.205-0.21,3.243-0.532c3.304-1.026,6.203-3.557,7.951-6.947     c1.75-3.39,2.135-7.218,1.058-10.502c-0.193-0.582,0.125-1.207,0.705-1.398c0.576-0.199,1.209,0.123,1.398,0.705     c1.264,3.845,0.829,8.295-1.192,12.209c-2.021,3.916-5.396,6.85-9.262,8.049c-1.417,0.439-2.845,0.708-4.44,0.636     c-0.167,0.576-0.357,1.155-0.569,1.74c-2.488,6.846-7.287,12.33-13.161,15.046c-4.215,1.949-9.005,2.35-13.285,1.294     c-0.164,0.223-0.335,0.444-0.511,0.662c-3.499,4.334-8.447,7.053-13.572,7.46C399.966,384.44,399.497,384.457,399.027,384.457z      M407.598,353.797c-1.545,0-3.168,0.571-4.438,1.608c-0.803,0.658-2.129,2.066-1.973,4.109c0.125,1.672,1.075,3.176,2.304,4.966     c1.638,2.384,3.494,5.085,5.924,6.978c1.244,0.967,2.661,1.72,4.182,2.25c2.036-3.265,2.921-6.984,2.454-10.481     c-0.506-3.76-2.834-8.07-6.9-9.219C408.653,353.866,408.13,353.797,407.598,353.797z M431.544,341.222     c-1.426,0-3.046,0.552-3.611,1.856c-0.327,0.757-0.299,1.763,0.084,3.077c0.971,3.321,3.455,6.259,6.818,8.064     c1.599,0.859,3.302,1.411,5.002,1.642c0.504-2.415,0.653-5.199-0.195-7.867c-1.177-3.706-4.327-6.484-7.661-6.755     C431.839,341.228,431.692,341.222,431.544,341.222z"/>
			<path style="fill:#FFECDF;" d="M491.942,211.883c-0.457,0-0.883-0.283-1.043-0.736c-0.206-0.578,0.095-1.212,0.671-1.415     c4.275-1.521,5.76-7.209,5.723-12.025c-0.024-3.12-0.541-7.064-2.624-9.803c-1.759,4.21-4.609,7.56-8.168,9.496     c-0.954,0.519-2.402,1.173-3.966,0.861c-2.534-0.513-3.778-3.213-3.864-5.504c-0.136-3.635,1.919-7.248,5.113-8.99     c3.025-1.655,6.911-1.538,9.853,0.249c0.082-0.322,0.16-0.649,0.229-0.98c1.067-5.02,0.169-11.327-4.234-14.107     c-2.637-1.662-6.288-1.846-9.762-0.495c-2.795,1.086-5.506,3.083-8.531,6.285c-0.415,0.448-1.123,0.469-1.564,0.045     c-0.446-0.42-0.465-1.121-0.045-1.564c3.258-3.453,6.225-5.623,9.338-6.831c4.133-1.605,8.52-1.348,11.746,0.686     c5.307,3.349,6.445,10.671,5.221,16.439c-0.147,0.688-0.318,1.361-0.515,2.019c2.577,2.609,3.949,6.772,3.99,12.177     c0.019,2.707-0.439,11.725-7.194,14.128C492.191,211.863,492.065,211.883,491.942,211.883z M488.474,184.805     c-1.261,0-2.521,0.299-3.628,0.904c-2.475,1.35-4.065,4.148-3.959,6.965c0.054,1.46,0.805,3.155,2.09,3.414     c0.651,0.134,1.432-0.071,2.464-0.634c3.343-1.82,5.982-5.097,7.51-9.236c-0.035-0.026-0.071-0.05-0.106-0.076     C491.57,185.255,490.021,184.805,488.474,184.805z"/>
		</g>
	</g>
	<path style="fill:#FFECDF;" d="M160.505,116.619c0,4.374-3.546,7.919-7.919,7.919c-4.374,0-7.92-3.546-7.92-7.919   c0-4.374,3.546-7.919,7.92-7.919C156.959,108.699,160.505,112.245,160.505,116.619z"/>
	<path style="fill:#FFECDF;" d="M224.237,253.511c0,4.374-3.546,7.919-7.919,7.919c-4.374,0-7.919-3.546-7.919-7.919   s3.546-7.919,7.919-7.919C220.692,245.592,224.237,249.138,224.237,253.511z"/>
	<path style="fill:#FFECDF;" d="M135.992,383.993c0,4.374-3.546,7.919-7.919,7.919c-4.374,0-7.919-3.546-7.919-7.919   c0-4.374,3.546-7.919,7.919-7.919C132.447,376.074,135.992,379.619,135.992,383.993z"/>
	<path style="fill:#FFECDF;" d="M295.135,434.526c0,4.374-3.546,7.919-7.919,7.919c-4.374,0-7.919-3.546-7.919-7.919   c0-4.374,3.546-7.919,7.919-7.919C291.589,426.607,295.135,430.153,295.135,434.526z"/>
	<path style="fill:#FFECDF;" d="M90.362,200.338c0,4.374-3.546,7.919-7.919,7.919c-4.374,0-7.919-3.546-7.919-7.919   s3.546-7.919,7.919-7.919C86.816,192.419,90.362,195.964,90.362,200.338z"/>
</g>















</svg>
