<?xml version="1.0" encoding="UTF-8"?>
<!-- Generator: Adobe Illustrator 25.2.1, SVG Export Plug-In . SVG Version: 6.00 Build 0)  -->
<svg xmlns="http://www.w3.org/2000/svg" xmlns:xlink="http://www.w3.org/1999/xlink" version="1.1" id="Capa_1" x="0px" y="0px" viewBox="0 0 511.815 511.815" style="enable-background:new 0 0 511.815 511.815;" xml:space="preserve" width="512" height="512">
<g>
	<path style="fill:#FFFFFF;" d="M246.02,502.124c-3.422,0.007-6.844-0.061-10.263-0.204   c-71.794-3.002-140.557-38.998-184.655-95.567c-9.955-12.937-18.519-26.607-25.498-40.688c-0.258-0.469-0.46-0.891-0.616-1.239   C-8.419,296.547-8.33,214.549,25.261,146.772c-3.67-2.329-6.193-6.243-6.673-10.748c-0.67-6.304,2.819-12.319,8.626-14.868   l10.947-4.804l-0.592-20.791c-0.182-6.458,3.911-12.265,10.054-14.259c1.483-0.481,2.997-0.711,4.494-0.711   c4.714,0,9.253,2.296,12.02,6.342l1.208,1.77c5.956-6.449,12.22-12.544,18.734-18.225c0.388-0.377,0.711-0.654,0.907-0.824   c31.35-27.102,69.041-45.881,109.161-54.45c16.811-3.655,34.282-5.513,51.872-5.513c3.454,0,6.775,0.071,10.142,0.22   c0.438,0.005,0.884,0.017,1.305,0.043c9.137,0.412,18.303,1.338,27.239,2.755c10.983,1.737,22.049,4.276,32.887,7.548   c0,0,0.699,0.22,1.033,0.334c14.581,4.513,28.86,10.428,42.444,17.583c0.081,0.043,0.576,0.296,0.741,0.384   c19.649,10.519,37.746,23.581,53.791,38.829c0.415,0.379,0.803,0.765,1.168,1.166c17.803,17.131,32.892,36.749,44.855,58.321   c0.166,0.263,0.325,0.533,0.474,0.806c4.072,7.439,7.768,15.119,11.061,22.982c0.957-0.197,1.938-0.296,2.924-0.296   c1.62,0,3.257,0.27,4.849,0.831c6.091,2.153,10.033,8.064,9.682,14.513l-1.355,24.927l14.591,7.415   c5.425,2.755,8.562,8.595,7.868,14.638c-0.697,6.043-5.077,11.018-10.985,12.47l-9.163,2.253c0.123,1.639,0.227,3.269,0.316,4.919   c4.058,76.161-28.228,152.086-86.7,201.183c-43.691,36.686-100.017,57.995-157.126,58.597   C247.38,502.119,246.7,502.123,246.02,502.124z"/>
	<g>
		<path style="fill:#CB6BE5;" d="M476.426,255.918c0,11.523-0.873,22.852-2.523,33.963v0.024c-0.024,0.34-0.073,0.655-0.121,0.995    v0.024c-1.043,6.817-2.377,13.537-4.003,20.159c-0.534,2.304-1.164,4.609-1.795,6.889c-1.431,5.264-3.105,10.456-4.924,15.55    c-0.073,0.242-0.146,0.509-0.243,0.728c-2.838,7.884-6.089,15.55-9.704,22.997c-0.194,0.364-0.364,0.728-0.534,1.092    c-5.701,11.523-12.299,22.464-19.747,32.798c-0.315,0.437-0.631,0.898-0.946,1.334c-0.679,0.922-1.383,1.844-2.062,2.765    c-16.132,21.445-35.976,39.979-58.537,54.704c-0.024,0.024-0.073,0.048-0.097,0.073c-0.048,0.073-0.121,0.097-0.17,0.121    c-2.669,1.771-5.385,3.421-8.151,5.07c-0.898,0.534-1.795,1.043-2.717,1.601c-3.299,1.892-6.671,3.736-10.092,5.434    c-0.17,0.073-0.34,0.17-0.509,0.267c-0.655,0.34-1.31,0.679-1.965,0.995c-10.892,5.434-22.318,10.043-34.132,13.658    c-0.946,0.34-1.965,0.606-2.984,0.922c-3.396,1.019-6.841,1.941-10.31,2.79h-0.024c-0.34,0.097-0.655,0.17-0.995,0.218    c-1.237,0.291-2.475,0.607-3.736,0.849c-0.194,0.073-0.388,0.121-0.582,0.146c-0.146,0.049-0.291,0.073-0.437,0.097    c-5.337,1.189-10.722,2.183-16.181,2.96c-2.79,0.412-5.604,0.776-8.418,1.067c-0.485,0.073-0.97,0.122-1.455,0.17    c-0.995,0.073-1.989,0.17-2.984,0.267c-6.768,0.582-13.658,0.897-20.62,0.897c-8.369,0-16.666-0.436-24.817-1.286    c-0.946-0.121-1.916-0.243-2.862-0.364c-13.245-1.577-26.103-4.245-38.596-7.957c-0.218-0.073-0.461-0.17-0.679-0.242    c-6.235-1.892-12.323-4.003-18.316-6.404c-1.116-0.412-2.183-0.849-3.275-1.31c-1.553-0.631-3.081-1.286-4.585-1.941    c-0.606-0.267-1.189-0.509-1.771-0.776c-3.493-1.577-6.938-3.226-10.334-4.949c-0.17-0.073-0.315-0.17-0.485-0.243    c-0.218-0.146-0.436-0.267-0.631-0.364c-1.455-0.752-2.911-1.504-4.342-2.28c-0.243-0.146-0.461-0.267-0.704-0.388    c-1.116-0.607-2.208-1.213-3.299-1.844c-1.698-0.995-3.396-1.965-5.046-2.984c-12.202-7.375-23.652-15.841-34.229-25.278    c-9.607-8.515-18.534-17.879-26.588-27.898c-0.364-0.461-0.728-0.898-1.067-1.359c-0.631-0.752-1.213-1.504-1.795-2.256    c-9.243-12.008-17.394-24.914-24.162-38.645c-0.121-0.17-0.194-0.388-0.291-0.582c-5.701-11.547-10.48-23.628-14.192-36.146    c-0.679-2.256-1.31-4.536-1.916-6.841c-1.116-4.221-2.111-8.466-2.984-12.784c-0.097-0.412-0.17-0.849-0.242-1.261    c-1.237-6.162-2.208-12.421-2.935-18.728v-0.024c-0.073-0.582-0.146-1.165-0.194-1.747c-0.873-8.151-1.31-16.399-1.31-24.744    v-0.679c0-2.984,0.073-5.943,0.194-8.855c0.243-6.113,0.752-12.178,1.48-18.17c0.049-0.461,0.097-0.946,0.17-1.431    c0.34-2.814,0.752-5.604,1.213-8.369c0.024-0.243,0.049-0.485,0.121-0.704c4.245-25.933,12.857-50.386,24.987-72.607    c0.121-0.194,0.218-0.412,0.339-0.582c13.221-24.065,30.566-45.534,51.162-63.413c0.194-0.218,0.412-0.388,0.631-0.582    c28.844-24.938,63.898-42.841,102.518-51.089c15.744-3.42,32.07-5.192,48.833-5.192c3.299,0,6.526,0.073,9.776,0.218    c0.291,0,0.606,0,0.873,0.024c8.709,0.388,17.321,1.261,25.763,2.596c10.577,1.674,20.911,4.076,30.954,7.108    c0.194,0.049,0.461,0.146,0.655,0.218c14.022,4.318,27.486,9.922,40.246,16.642c0.194,0.121,0.437,0.243,0.655,0.34    c18.582,9.946,35.661,22.294,50.774,36.68c0.194,0.17,0.34,0.315,0.485,0.51c16.909,16.181,31.367,34.884,42.793,55.529    c0.097,0.17,0.194,0.388,0.34,0.558c16.132,29.475,26.103,62.904,28.019,98.419c0.121,2.329,0.218,4.682,0.291,7.059v0.194    c0.024,0.121,0.024,0.243,0.024,0.34v1.237C476.402,253.249,476.426,254.559,476.426,255.918z"/>
		<g>
			<path style="fill:#EEA6FF;" d="M476.378,250.678v1.237c-9.558,8.806-21.591,13.172-32.459,11.402     c-8.806-1.407-16.375-6.453-23.701-11.305c-3.008-2.014-6.113-4.075-9.243-5.846c-25.52-14.459-59.337-11.766-82.262,6.526     c-8.248,6.574-15.041,14.944-21.639,23.022c-3.251,4.003-6.598,8.127-10.116,12.008c-17.491,19.383-38.62,32.604-61.084,38.232     c-7.981,1.989-16.06,2.984-23.992,2.984c-16.811,0-33.016-4.415-46.553-12.979c-16.448-10.383-28.432-26.37-40.003-41.823     c-11.474-15.307-23.313-31.124-39.469-41.386c-18.049-11.523-40.537-14.895-60.09-9.024c-3.809,1.14-7.496,2.644-11.014,4.488     c0.049-0.461,0.097-0.946,0.17-1.431c3.372-1.722,6.89-3.129,10.504-4.221c19.892-5.968,42.72-2.547,61.084,9.146     c16.326,10.407,28.262,26.321,39.785,41.701c11.523,15.356,23.434,31.246,39.663,41.531c19.65,12.396,45.025,15.987,69.623,9.825     c22.221-5.555,43.132-18.655,60.478-37.844c3.493-3.857,6.841-7.981,10.092-11.984c6.623-8.127,13.464-16.545,21.809-23.191     c23.289-18.607,57.688-21.324,83.621-6.623c3.178,1.795,6.283,3.857,9.315,5.871c7.205,4.803,14.677,9.752,23.216,11.135     c10.795,1.747,22.852-2.79,32.24-11.79C476.378,250.459,476.378,250.581,476.378,250.678z"/>
			<path style="fill:#EEA6FF;" d="M453.113,357.247c-0.194,0.364-0.364,0.728-0.534,1.092c-7.714-5.919-13.901-14.458-18.413-22.221     c-1.164-2.038-2.329-4.1-3.518-6.186c-7.375-13.124-14.992-26.685-28.213-33.162c-20.499-10.068-45.849,2.086-60.259,19.286     c-9.485,11.305-16.132,24.841-22.585,37.917c-3.566,7.278-7.278,14.798-11.426,21.882c-16.06,27.413-38.814,47.329-64.068,56.087     c-10.116,3.493-20.935,5.191-31.901,5.191c-24.526,0-49.901-8.466-70.181-24.283c-27-21.081-45.752-54.655-51.477-92.136     c-0.364-2.474-0.703-4.997-1.067-7.52c-2.208-16.424-4.512-33.381-16.787-43.448c-14.022-11.499-34.884-7.642-47.402,1.844     c-3.93,2.984-7.496,6.598-10.698,10.819c-0.073-0.582-0.146-1.165-0.194-1.747c3.081-3.881,6.477-7.229,10.164-10.019     c12.882-9.776,34.399-13.73,48.882-1.844c12.663,10.383,14.992,27.582,17.248,44.224c0.34,2.523,0.679,5.046,1.067,7.496     c5.652,37.189,24.259,70.472,51.017,91.384c29.038,22.658,68.653,30.081,100.917,18.898     c24.987-8.661,47.523-28.383,63.437-55.553c4.124-7.035,7.811-14.556,11.402-21.809c6.453-13.148,13.148-26.758,22.731-38.159     c14.701-17.563,40.634-29.936,61.715-19.601c13.561,6.647,21.275,20.378,28.747,33.647c1.164,2.086,2.329,4.148,3.493,6.162     C439.625,343.104,445.641,351.474,453.113,357.247z"/>
			<path style="fill:#EEA6FF;" d="M65.358,302.738c9.582,9.679,10.771,24.429,10.067,35.103c-0.703,11.062-3.275,22.27-5.774,33.089     c-2.353,10.286-4.633,20.28-5.483,30.105c-0.364-0.461-0.728-0.898-1.067-1.359c0.946-9.703,3.202-19.431,5.385-29.013     c2.474-10.795,5.022-21.955,5.749-32.895c0.655-10.432-0.485-24.817-9.752-34.181c-12.032-12.154-32.992-10.14-46.723-1.165     c-0.097-0.412-0.17-0.849-0.242-1.261C31.662,292.136,53.01,290.269,65.358,302.738z"/>
			<path style="fill:#EEA6FF;" d="M432.833,391.137c-0.315,0.437-0.631,0.898-0.946,1.334c-0.461-2.159-0.873-4.439-1.213-6.817     c-0.485-3.275-0.897-6.647-1.286-9.922c-1.261-10.456-2.571-21.275-6.72-31.051c-4.973-11.693-13.658-19.48-23.24-20.79     c-8.199-1.164-17.175,2.474-24.016,9.679c-6.55,6.938-10.286,15.841-13.076,23.628c-3.712,10.383-6.647,21.469-9.485,32.216     c-7.205,27.097-14.628,55.116-35.078,74.257c-10.068,9.388-22.852,16.375-39.566,21.469c-2.79,0.412-5.604,0.776-8.418,1.067     c20.547-5.143,35.685-12.687,47.16-23.434c20.183-18.898,27.582-46.747,34.715-73.674c2.862-10.747,5.798-21.882,9.534-32.289     c2.814-7.933,6.623-16.981,13.342-24.065c7.108-7.496,16.472-11.232,25.059-10.068c10.019,1.383,19.043,9.437,24.186,21.518     c4.221,9.922,5.531,20.839,6.817,31.391c0.388,3.251,0.776,6.623,1.261,9.898C432.153,387.45,432.469,389.318,432.833,391.137z"/>
		</g>
		<g>
			<path style="fill:#FF9DAA;" d="M349.551,462.507c-0.655,0.34-1.31,0.679-1.965,0.995c-10.892,5.434-22.318,10.043-34.132,13.658     c-0.946,0.34-1.965,0.606-2.984,0.922c-3.396,1.019-6.841,1.941-10.31,2.79h-0.024c-0.34,0.097-0.655,0.17-0.995,0.218     c-1.237,0.291-2.475,0.607-3.736,0.849c-0.194,0.073-0.388,0.121-0.582,0.146c-0.146,0.049-0.291,0.073-0.437,0.097     c-5.337,1.189-10.722,2.183-16.181,2.96c-2.79,0.412-5.604,0.776-8.418,1.067c-0.485,0.073-0.97,0.122-1.455,0.17     c-0.995,0.073-1.989,0.17-2.984,0.267c-6.768,0.582-13.658,0.897-20.62,0.897c-8.369,0-16.666-0.436-24.817-1.286     c-0.946-0.121-1.916-0.243-2.862-0.364c-13.245-1.577-26.103-4.245-38.596-7.957c-0.218-0.073-0.461-0.17-0.679-0.242     c-6.235-1.892-12.323-4.003-18.316-6.404c-1.116-0.412-2.183-0.849-3.275-1.31c-1.553-0.631-3.081-1.286-4.585-1.941     c8.952-16.351,16.642-28.213,18.194-30.566c0.194-0.291,0.291-0.437,0.291-0.437l-16.253-40.609l-1.14-2.838l-0.049-0.146     l-34.715-125.904c0.267-0.752,0.655-1.553,1.164-2.426c4.585-7.666,18.752-19.213,33.938-30.227     c0.728-0.51,1.431-1.019,2.159-1.553c21.542-15.429,44.321-29.305,44.321-29.305c2.96-12.275,5.264-24.72,6.841-37.238     c1.334-10.383,2.183-20.814,2.547-31.246c0.024-0.534,0.024-1.092,0.049-1.625c0.024-0.485,0.024-0.946,0.024-1.407     c0.049-0.873,0.049-1.771,0.073-2.644l4.003,3.275l1.577,1.31l23.701,19.431l12.736,10.456l21.129,17.394     c0,0-0.194,2.862-0.485,7.156c-0.146,2.305-0.315,5.046-0.51,7.957c-0.728,11.475-1.48,25.909-1.165,29.984     c0.097,1.528,2.475,3.76,6.283,6.453c0.582,0.412,1.189,0.825,1.795,1.237c14.531,9.703,44.733,24.38,58.197,34.132     C347.441,276.756,349.551,383.18,349.551,462.507z"/>
			<path style="fill:#330214;" d="M272.197,181.725c0,0-0.489,6.765-1,15.126c-16.552-7.468-29.594-22.488-34.402-40.019     c4.83,2.383,9.595,4.872,14.254,7.51L272.197,181.725z"/>
			<path style="fill:#FF9DAA;" d="M334.278,141.962c-0.149,1.745-8.276,2.979-12.489,4.191c-1.553,11.403-4.404,24.36-9.127,38.848     c-7.191,21.998-67.634-0.553-75.782-23.36c-0.404-1.17-0.808-2.362-1.17-3.553c-19.871-9.468-33.594-29.743-33.594-53.209     c0-32.551,26.381-58.953,58.932-58.953c25.253,0,46.784,15.893,55.188,38.189l0.085-0.021c0,0,5.361,10.212,6.723,30.232     c0.064,0.17,0.106,0.34,0.191,0.532c0.192,0.638,0.447,1.319,0.702,2.042C327.236,126.006,334.192,141.962,334.278,141.962z"/>
			<path style="fill:#7843D4;" d="M314.024,75.562c-10.148,15.19-21.68,29.466-34.381,42.593c-0.489,0.532-1,1.042-1.51,1.553     c-0.681,0.723-1.383,1.425-2.106,2.127c-10.68,10.702-22.211,20.637-34.359,29.637c-11.425,8.446-24.615,16.403-38.763,15.233     c-2.702-5.127-8.106-9.85-12.637-13.425c-2.51-2-5.553-4.255-5.468-7.468c0.021-1.191,0.532-2.361,0.596-3.574     c0.043-1-0.213-1.936-0.638-2.83c-0.255-0.511-0.574-1-0.936-1.489c-0.808-1.149-1.872-2.213-2.851-3.213     c-8.978-9.425-13.127-23.062-11.659-36.019c0.255-2.255,0.681-4.489,1.234-6.68c0.149-0.532,0.276-1.043,0.447-1.553     c2.872-9.786,8.723-18.679,16.403-25.424c9.425-8.255,21.254-13.276,33.211-17.063c17.105-5.404,35.487-8.574,53.018-4.766     C291.174,46.989,308.364,58.542,314.024,75.562z"/>
			<g>
				<path style="fill:#330214;" d="M315.708,154.903c-0.865,0-1.758-0.194-2.597-0.588c-1.571-0.737-2.973-2.125-4.174-4.127      c-0.149-0.251-0.069-0.578,0.185-0.73c0.249-0.147,0.578-0.071,0.73,0.185c1.087,1.817,2.336,3.063,3.71,3.71      c1.637,0.761,3.58,0.597,4.731-0.41c0.22-0.189,0.554-0.173,0.751,0.05c0.194,0.22,0.171,0.557-0.05,0.751      C318.124,154.507,316.947,154.903,315.708,154.903z"/>
				<path style="fill:#330214;" d="M321.365,145.069c-0.012,0-0.026-0.002-0.038-0.002c-0.294-0.021-0.514-0.277-0.493-0.569      c0.021-0.294-0.097-0.595-0.332-0.851c-0.277-0.301-0.668-0.481-1.042-0.481c-0.005-0.002-0.007-0.002-0.009-0.002      c-0.737,0-1.478,0.547-1.805,1.334c-0.114,0.275-0.426,0.4-0.694,0.287c-0.272-0.112-0.4-0.424-0.287-0.694      c0.488-1.173,1.63-1.99,2.784-1.99c0.007,0,0.012,0,0.019,0c0.661,0.005,1.341,0.313,1.815,0.824      c0.438,0.474,0.656,1.059,0.614,1.649C321.875,144.853,321.642,145.069,321.365,145.069z"/>
				<g>
					<path style="fill:#EEA6FF;" d="M284.408,119.006c-0.021,0.426-0.362,0.787-0.808,0.787h-0.787       c-1.553-0.021-3.106-0.043-4.659-0.085h-0.021c-37.338-1-74.421-10.51-107.589-27.7c0.149-0.532,0.276-1.043,0.447-1.553       c33.466,17.382,70.931,26.913,108.652,27.7c1.234,0.021,2.489,0.042,3.745,0.042h0.213c0.085,0,0.149,0,0.213,0.043       c0.021,0,0.064,0,0.106,0.021C284.196,118.389,284.408,118.666,284.408,119.006z"/>
					<path style="fill:#EEA6FF;" d="M284.047,119.793c-0.426,0.128-0.872,0.234-1.298,0.34c-2.212,0.617-4.468,1.191-6.723,1.702       c-5.638,1.362-11.34,2.511-16.914,3.638l-29.083,5.915c-14.808,3-30.041,6.085-45.274,8.021c-0.255-0.511-0.574-1-0.936-1.489       c15.425-1.915,30.892-5.042,45.869-8.085l29.019-5.893c6.425-1.298,12.978-2.638,19.403-4.234h0.042       c1.723-0.447,3.468-0.893,5.17-1.361c0.106-0.021,0.191-0.064,0.298-0.085c0.064-0.021,0.106-0.021,0.192-0.021       c0.021,0,0.064,0,0.106,0.021c0.298,0.021,0.575,0.213,0.681,0.553C284.728,119.24,284.472,119.687,284.047,119.793z"/>
					<g>
						<path style="fill:#7843D4;" d="M297.912,110.314c0.247-0.02,0.493-0.035,0.737-0.047c5.788-0.271,13.043,1.987,16.336,7.034        c3.788,5.806-2.848,11.006-7.652,13.034c-7.075,2.985-17.164,2.783-22.433-3.533c-1.547-1.855-2.564-4.302-2.152-6.681        c0.274-1.581,1.153-3.007,2.241-4.187C288.145,112.508,293.28,110.683,297.912,110.314z"/>
						<path style="opacity:0.41;fill:#CB6BE5;" d="M298.225,112.071c0.21-0.017,0.42-0.03,0.628-0.04        c4.93-0.23,11.111,1.688,13.916,5.973c3.227,4.929-2.425,9.343-6.517,11.063c-6.026,2.534-14.621,2.361-19.11-3.001        c-1.318-1.574-2.185-3.652-1.834-5.672c0.233-1.343,0.982-2.552,1.909-3.554C289.907,113.932,294.28,112.384,298.225,112.071z        "/>
						<path style="fill:#7843D4;" d="M323.931,117.455c-2.759,0.154-5.473,1.082-7.747,2.649l-0.154-0.199l-1.103-1.611        c0.154-0.111,0.309-0.199,0.464-0.309c2.339-1.479,5.054-2.362,7.813-2.649C323.402,115.998,323.667,116.705,323.931,117.455z        "/>
					</g>
					<path style="fill:#330214;" d="M291.777,106.623c-0.448,0.557-0.783,1.292-0.308,1.836c0.495,0.568,1.563,0.598,2.459,0.549       c2.578-0.142,5.142-0.437,7.659-0.882c1.416-0.251,3.006-0.67,3.536-1.696c1.23-2.382-3.392-3.767-5.78-3.631       C296.454,102.963,293.237,104.807,291.777,106.623z"/>
				</g>
			</g>
			<path style="fill:#FF9DAA;" d="M153.83,396.426l-0.388,1.746l-13.949,64.141c-0.17-0.073-0.315-0.17-0.485-0.243     c-0.218-0.146-0.436-0.267-0.631-0.364c-1.455-0.752-2.911-1.504-4.342-2.28c-0.243-0.146-0.461-0.267-0.704-0.388     c-1.116-0.607-2.208-1.213-3.299-1.844c-1.698-0.995-3.396-1.965-5.046-2.984c-12.202-7.375-23.652-15.841-34.229-25.278     c5.191-39.203,10.043-77.338,11.96-96.745c4.876-49.415,16.302-67.343,16.302-67.343l0.073,0.267l34.642,130.95L153.83,396.426z"/>
			<g>
				<path style="fill:#7843D4;" d="M294.823,482.084c-0.146,0.049-0.291,0.073-0.437,0.097c-5.337,1.189-10.722,2.183-16.181,2.96      c-2.79,0.412-5.604,0.776-8.418,1.067c-0.485,0.073-0.97,0.122-1.455,0.17c-0.995,0.073-1.989,0.17-2.984,0.267      c-6.768,0.582-13.658,0.897-20.62,0.897c-8.369,0-16.666-0.436-24.817-1.286c-0.946-0.121-1.916-0.243-2.862-0.364      c-13.245-1.577-26.103-4.245-38.596-7.957c-0.218-0.073-0.461-0.17-0.679-0.242c-6.235-1.892-12.323-4.003-18.316-6.404      c-1.116-0.412-2.183-0.849-3.275-1.31c-1.553-0.631-3.081-1.286-4.585-1.941c8.952-16.351,16.642-28.213,18.194-30.566      c0.194-0.291,0.291-0.437,0.291-0.437l-16.253-40.609l0.024-0.049l22.634-47.572l0.655-1.383l1.116-0.073l44.176-3.129      l0.873-0.073c0,0,0.388,0.291,1.116,0.849c6.041,4.682,35.515,27.704,55.407,46.99c0.17,0.194,0.34,0.34,0.509,0.509      L294.823,482.084z"/>
				<path style="fill:#7843D4;" d="M178.586,348.395l-2.021,0.638c-9.191-29.19-16.339-59.294-21.19-89.483      c-1.298-8.021-2.468-16.361-2.34-24.658c0.723-0.51,1.426-1.021,2.149-1.553c-0.298,8.659,0.915,17.424,2.277,25.871      C162.31,289.314,169.416,319.312,178.586,348.395z"/>
				<path style="fill:#7843D4;" d="M278.111,234.53c-12.233,11.999-22.786,27.105-31.487,45.061      c-10.786,22.254-17.339,45.827-22.339,65.953l-2.064-0.511c5.021-20.233,11.616-43.933,22.488-66.357      c8.744-18.041,19.36-33.253,31.615-45.38C276.898,233.7,277.494,234.105,278.111,234.53z"/>
				<path style="fill:#330214;" d="M170.076,437.56c-0.208,0-0.407-0.125-0.493-0.329l-45.09-109.173      c-0.112-0.272,0.019-0.583,0.289-0.696c0.268-0.107,0.583,0.019,0.696,0.289l45.09,109.172c0.111,0.272-0.019,0.583-0.289,0.697      C170.213,437.546,170.145,437.56,170.076,437.56z"/>
				<path style="fill:#330214;" d="M281.942,400.55c2.96,19.092,11.086,67.318,13.464,81.389c-0.194,0.073-0.388,0.121-0.582,0.146      c-0.146,0.049-0.291,0.073-0.437,0.097c-2.377-13.973-10.529-62.346-13.488-81.462c-0.412-2.596-0.752-5.555-1.067-8.733      c-2.572-25.181-2.741-65.305-2.741-65.766c0-0.291,0.243-0.534,0.534-0.534c0.291,0,0.534,0.243,0.534,0.534      C278.157,326.73,278.376,377.504,281.942,400.55z"/>
			</g>
		</g>
		<g>
			<g>
				<path style="fill:#EEA6FF;" d="M102.422,199.949c-5.916-6.904-11.558-14.204-15.132-22.564      c-1.767-4.133-2.576-9.842,1.168-12.329c2.308-1.534,5.517-1.021,7.828,0.509c2.311,1.53,3.921,3.889,5.453,6.199      c6.225,9.385,12.162,18.961,17.801,28.71c5.523,9.549,12.457,19.784,16.082,30.21      C132.845,229.063,106.273,204.443,102.422,199.949z"/>
				<path style="fill:#EEA6FF;" d="M134.018,188.023c-1-9.037-1.549-18.246,0.207-27.168c0.868-4.41,3.415-9.583,7.91-9.529      c2.771,0.033,5.134,2.264,6.182,4.83c1.048,2.566,1.049,5.422,1.014,8.193c-0.143,11.261-0.631,22.518-1.463,33.749      c-0.815,11.001-0.85,23.364-3.728,34.02C142.758,229.216,134.669,193.907,134.018,188.023z"/>
			</g>
			<g>
				<path style="fill:#EEA6FF;" d="M360.856,169.592c2.728-8.673,5.938-17.323,11.141-24.779c2.572-3.686,6.989-7.393,11.08-5.532      c2.523,1.147,3.786,4.141,3.71,6.912c-0.075,2.771-1.225,5.385-2.375,7.907c-4.67,10.248-9.654,20.353-14.943,30.296      c-5.18,9.739-10.197,21.038-17.126,29.631C352.249,210.813,359.08,175.239,360.856,169.592z"/>
				<path style="fill:#EEA6FF;" d="M387.693,190.094c7.14-5.63,14.663-10.969,23.163-14.199c4.201-1.597,9.939-2.172,12.271,1.67      c1.438,2.369,0.796,5.554-0.827,7.801c-1.623,2.247-4.046,3.759-6.416,5.196c-9.631,5.837-19.441,11.379-29.412,16.616      c-9.766,5.129-20.275,11.64-30.841,14.837C357.363,219.305,383.045,193.759,387.693,190.094z"/>
			</g>
		</g>
		<g>
			<path style="fill:#EEA6FF;" d="M114.058,128.504c-8.418,0-15.264-6.847-15.264-15.265c0-8.417,6.846-15.264,15.264-15.264     s15.264,6.847,15.264,15.264C129.322,121.657,122.476,128.504,114.058,128.504z M114.058,99.187     c-7.748,0-14.052,6.304-14.052,14.052s6.304,14.053,14.052,14.053s14.052-6.305,14.052-14.053S121.806,99.187,114.058,99.187z"/>
			<path style="fill:#EEA6FF;" d="M67.398,153.107c-6.046,0-10.965-4.919-10.965-10.964c0-6.046,4.919-10.965,10.965-10.965     c6.046,0,10.965,4.919,10.965,10.965C78.363,148.189,73.444,153.107,67.398,153.107z M67.398,132.049     c-5.566,0-10.095,4.529-10.095,10.095c0,5.566,4.529,10.094,10.095,10.094s10.095-4.528,10.095-10.094     C77.492,136.578,72.963,132.049,67.398,132.049z"/>
			<path style="fill:#EEA6FF;" d="M139.555,78.908c-4.921,0-8.924-4.003-8.924-8.923c0-4.92,4.003-8.923,8.924-8.923     c4.921,0,8.924,4.003,8.924,8.923C148.479,74.906,144.476,78.908,139.555,78.908z M139.555,61.772     c-4.529,0-8.213,3.685-8.213,8.214s3.684,8.214,8.213,8.214s8.213-3.685,8.213-8.214S144.084,61.772,139.555,61.772z"/>
			<path style="fill:#EEA6FF;" d="M340.646,78.908c-4.921,0-8.924-4.003-8.924-8.923c0-4.92,4.003-8.923,8.924-8.923     s8.924,4.003,8.924,8.923C349.57,74.906,345.567,78.908,340.646,78.908z M340.646,61.772c-4.529,0-8.213,3.685-8.213,8.214     s3.684,8.214,8.213,8.214s8.213-3.685,8.213-8.214S345.175,61.772,340.646,61.772z"/>
			<path style="fill:#EEA6FF;" d="M350.144,121.438c-4.921,0-8.924-4.002-8.924-8.921s4.003-8.923,8.924-8.923     s8.924,4.003,8.924,8.923S355.065,121.438,350.144,121.438z M350.144,104.302c-4.529,0-8.213,3.685-8.213,8.214     c0,4.528,3.684,8.213,8.213,8.213s8.213-3.685,8.213-8.213C358.357,107.987,354.673,104.302,350.144,104.302z"/>
			<path style="fill:#EEA6FF;" d="M375.307,98.884c-6.358,0-11.53-5.173-11.53-11.53s5.172-11.529,11.53-11.529     c6.356,0,11.528,5.172,11.528,11.529S381.663,98.884,375.307,98.884z M375.307,76.741c-5.853,0-10.614,4.761-10.614,10.613     c0,5.853,4.761,10.614,10.614,10.614c5.85,0,10.612-4.761,10.612-10.614C385.919,81.502,381.157,76.741,375.307,76.741z"/>
		</g>
		<g>
			<polygon style="fill:#FFC279;" points="452.703,205.502 474.793,174.919 472.922,209.316 495.967,221.026 470.297,227.336      465.754,252.729 455.214,226.175 425.669,239.779 442.061,216.862 426.648,199.12    "/>
			<polygon style="fill:#FFC279;" points="390.499,307.216 389.631,276.625 405.398,299.694 426.015,295.863 412.601,312.592      422.205,331.183 402.316,319.286 390.006,342.624 389.253,319.781 370.574,315.962    "/>
			<polygon style="fill:#FFC279;" points="50.457,266.337 49.59,235.746 65.357,258.815 85.974,254.984 72.559,271.713      82.164,290.304 62.275,278.407 49.965,301.745 49.211,278.902 30.532,275.084    "/>
			<polygon style="fill:#FFC279;" points="51.696,125.738 50.828,95.147 66.596,118.217 87.212,114.385 73.798,131.114      83.402,149.706 63.514,137.809 51.204,161.146 50.45,138.303 31.771,134.485    "/>
		</g>
	</g>
</g>















</svg>
