<?xml version="1.0" encoding="UTF-8"?>
<!-- Generator: Adobe Illustrator 25.2.1, SVG Export Plug-In . SVG Version: 6.00 Build 0)  -->
<svg xmlns="http://www.w3.org/2000/svg" xmlns:xlink="http://www.w3.org/1999/xlink" version="1.1" id="Capa_1" x="0px" y="0px" viewBox="0 0 512 512" style="enable-background:new 0 0 512 512;" xml:space="preserve" width="512" height="512">
<g>
	<path style="fill:#FFFFFF;" d="M344.61,465.178c-4.831,1.963-9.93,3.486-15.154,4.526c-28.514,5.661-46.917-3.701-59.954-14.58   c-16.353,4.565-32.876,7.71-49.329,9.39l-2.433,12.934c-0.896,4.771-4.164,8.64-8.505,10.403c-1.152,0.47-2.378,0.789-3.659,0.937   c-6.099,0.711-11.951-2.629-14.444-8.243l-5.658-12.747l-9.182,2.06c-5.644,1.266-11.476-1.064-14.699-5.842   c-15.046-2.069-29.866-5.873-43.67-11.23c-3.734,0.546-8.876-0.161-13.535-5.884c-20.567-10.004-37.937-23.356-51.672-39.73   c-30.189-35.988-48.657-90.73-49.142-144.647c-1.991-2.225-3.267-5.078-3.527-8.194c-0.351-4.234,1.233-8.301,4.149-11.169   c0.275-3.762,0.642-7.445,1.091-11.009c0.426-3.355,0.941-6.704,1.53-9.967c6.346-35.137,23.747-69.875,50.368-100.608   c11.828-29.571,35.701-53.116,65.13-65.074c5.546-2.254,11.225-4.078,16.884-5.424c0.24-0.063,1.242-0.31,1.393-0.344   c5.612-1.285,11.401-2.158,17.248-2.604c1.87-0.809,3.744-1.595,5.622-2.358c23.902-9.713,47.861-15.534,71.209-17.305   c0.658-0.048,1.316-0.091,1.973-0.129c1.414-1.099,2.94-2.195,4.604-3.201c0.645-0.39,1.309-0.722,1.988-0.998   c5.572-2.264,12.027-0.703,15.945,3.904c5.785,0.215,11.573,0.655,17.311,1.318c1.215-0.353,2.483-0.543,3.771-0.557l127.029-1.358   c3.872-0.043,7.59,1.52,10.271,4.315c2.683,2.794,4.09,6.572,3.887,10.44l-1.359,26.168l81.234,19.998   c3.719,0.916,6.901,3.313,8.81,6.633c1.907,3.321,2.374,7.279,1.293,10.952L465.942,260.39c-1.248,4.236-4.341,7.475-8.185,9.036   c-1.022,0.415-2.099,0.712-3.207,0.879c-1.224,7.021-2.814,13.878-4.757,20.5l-0.467,1.587c-1.769,5.958-3.867,11.947-6.27,17.904   c4.119,3.531,5.864,9.173,4.362,14.471c-1.203,4.24-4.288,7.576-8.218,9.173c-1.392,0.566-2.887,0.914-4.443,1.007l-3.689,0.22   c-0.782,1.382-1.578,2.758-2.389,4.128c7.125,11.919,9.255,24.524,5.989,36.023c-2.611,9.186-10.034,21.893-30.571,30.238   c-2.483,1.009-5.133,1.943-7.92,2.792c-4.72,12.895-16.511,37.377-41.479,51.88c-0.078,0.044-0.156,0.088-0.234,0.132   c-1.531,0.891-3.175,1.763-5.012,2.665c-0.093,0.045-0.187,0.091-0.281,0.134C347.679,463.875,346.144,464.555,344.61,465.178z"/>
	<g>
		<g style="opacity:0.83;">
			<path style="fill:#FFB9C2;" d="M13.668,235.671c-7.07,55.785,8.655,124,45.129,167.48     c28.576,34.065,72.947,51.943,116.682,54.431c108.308,6.161,230.852-57.882,263.073-166.345c0.154-0.527,0.309-1.053,0.463-1.58     c28.897-98.549-30.059-212.095-129.31-241.213c-24.332-7.139-49.953-9.918-75.244-8.002     c-96.546,7.315-201.659,87.833-219.348,185.81C14.549,229.379,14.068,232.52,13.668,235.671z"/>
		</g>
		<g>
			<g>
				<g>
					<g>
						<path style="fill:#FFECDF;" d="M262.979,126.604c1.49,3.667,2.772,7.392,3.819,11.109c0.135,0.46,0.262,0.897,0.366,1.344        c0.289,1.092,0.579,2.184,0.837,3.263c4.047,17.116,3.677,34.508-0.511,50.801c-0.095,0.399-0.2,0.776-0.317,1.184        c-6.952,25.831-23.508,48.797-47.354,63.324c-4.85,2.949-9.993,5.553-15.427,7.761c-21.756,8.84-44.718,9.961-65.878,4.689        c-8.685-2.184-17.061-5.446-24.921-9.715c-5.399-2.902-10.558-6.287-15.413-10.13c-4.01-3.157-7.806-6.607-11.31-10.356        c-4.755-4.99-9.031-10.51-12.77-16.48c-3.264-5.184-6.106-10.72-8.493-16.596c-0.826-2.032-1.576-4.069-2.251-6.111        c-4.783-14.114-6.425-28.605-5.244-42.672l-0.009-0.022c0.112-1.435,0.255-2.857,0.45-4.275        c0.14-1.112,0.289-2.202,0.46-3.301c0.103-0.633,0.206-1.267,0.308-1.901s0.214-1.245,0.348-1.866        c0.236-1.254,0.504-2.495,0.772-3.737c0.177-0.767,0.355-1.534,0.563-2.287c1.066-4.216,2.385-8.381,3.961-12.418        c0.389-1.007,0.786-1.992,1.193-2.955c2.727-6.461,6.076-12.66,10.046-18.468c0.518-0.751,1.037-1.502,1.555-2.253        c0.707-0.982,1.446-1.951,2.184-2.92c0.523-0.676,1.046-1.352,1.601-2.014c1.61-1.992,3.312-3.945,5.073-5.818        c1.026-1.086,2.06-2.15,3.126-3.2c1.4-1.367,2.841-2.698,4.321-3.995l0.022-0.009c0.344-0.294,0.687-0.588,1.04-0.86        l0.022-0.009c8.416-7.28,18.155-13.27,29.044-17.695c5.058-2.055,10.158-3.69,15.3-4.905c0.371-0.099,0.774-0.186,1.145-0.285        c12.456-2.848,25.04-3.355,37.259-1.784c13.743,1.776,27,6.219,38.982,13.034C237.029,85.474,253.592,103.5,262.979,126.604z"/>
					</g>
				</g>
				<g>
					<g>
						<path style="fill:#7843D4;" d="M94.066,86.59l-8.402,50.507l-27.561,20.901C60.349,130.656,73.181,104.856,94.066,86.59z"/>
					</g>
				</g>
				<g>
					<g>
						<path style="fill:#7843D4;" d="M109.59,197.028c-0.082-1.281-5.125-41.72-5.125-41.72l42.941-16.134l23.43,40.414        l-29.135,32.864L109.59,197.028z"/>
					</g>
				</g>
				<g>
					<g>
						<path style="fill:#7843D4;" d="M216.88,74.078l-10.449,31.473l-45.477,0.748l-18.959-31.078l35.903-14.177        C191.641,62.82,204.898,67.263,216.88,74.078z"/>
					</g>
				</g>
				<g>
					<g>
						<polygon style="fill:#7843D4;" points="209.853,176.436 227.803,137.605 258.75,146.931 261.174,190.625 227.89,208.967               "/>
					</g>
				</g>
				<g>
					<g>
						<path style="fill:#7843D4;" d="M219.82,257.628c-4.85,2.949-9.993,5.553-15.427,7.761c-21.756,8.84-44.718,9.961-65.878,4.689        l13.196-11.667l10.773-9.524l0.436-0.383l0.571-0.052l26.082-2.311l19.674-1.741l0.593-0.061l0.348,0.476L219.82,257.628z"/>
					</g>
				</g>
				<g>
					<g>
						<path style="fill:#7843D4;" d="M94.964,207.356l3.217,42.878c-4.01-3.157-7.806-6.607-11.31-10.356l-12.77-16.48        c-3.264-5.184-6.106-10.72-8.493-16.596c-0.826-2.032-1.576-4.069-2.251-6.111L94.964,207.356z"/>
					</g>
				</g>
				<g>
					<g>
						<path style="fill:#7843D4;" d="M107.72,159.009c-0.21,0.086-0.461,0.047-0.636-0.121L82.01,134.911        c-0.238-0.227-0.247-0.606-0.02-0.844c0.224-0.237,0.603-0.248,0.843-0.018l25.074,23.977c0.238,0.227,0.247,0.606,0.02,0.844        C107.867,158.932,107.796,158.978,107.72,159.009z"/>
					</g>
				</g>
				<g>
					<g>
						<path style="fill:#7843D4;" d="M95.187,207.907c-0.247,0.1-0.539,0.026-0.704-0.199c-0.195-0.265-0.139-0.637,0.126-0.833        l17.176-12.677c0.271-0.188,0.638-0.139,0.834,0.126c0.195,0.265,0.139,0.637-0.125,0.833l-17.177,12.677        C95.275,207.864,95.232,207.889,95.187,207.907z"/>
					</g>
				</g>
				<g>
					<g>
						<path style="fill:#7843D4;" d="M163.143,249.057c-0.273,0.111-0.592,0.004-0.742-0.259l-21.607-38.085        c-0.161-0.286-0.061-0.649,0.225-0.813c0.283-0.153,0.65-0.061,0.813,0.225l21.607,38.084        c0.161,0.286,0.061,0.649-0.225,0.813C163.191,249.035,163.167,249.048,163.143,249.057z"/>
					</g>
				</g>
				<g>
					<g>
						<path style="fill:#7843D4;" d="M210.064,244.892c-0.152,0.062-0.33,0.061-0.489-0.017c-0.295-0.147-0.415-0.505-0.269-0.8        l18.791-37.863c0.144-0.292,0.501-0.415,0.799-0.269c0.295,0.147,0.415,0.505,0.269,0.8l-18.791,37.863        C210.307,244.741,210.195,244.839,210.064,244.892z"/>
					</g>
				</g>
				<g>
					<g>
						<path style="fill:#7843D4;" d="M211.735,176.754c-0.054,0.022-0.114,0.036-0.176,0.041l-40.675,3.387        c-0.328,0.028-0.615-0.215-0.643-0.543c-0.028-0.328,0.211-0.619,0.545-0.644l40.675-3.387        c0.328-0.028,0.615,0.215,0.643,0.543C212.127,176.419,211.97,176.658,211.735,176.754z"/>
					</g>
				</g>
				<g>
					<g>
						<path style="fill:#7843D4;" d="M228.026,138.158c-0.26,0.106-0.567,0.014-0.724-0.229l-21.28-32.965        c-0.179-0.277-0.099-0.646,0.177-0.826c0.273-0.171,0.646-0.099,0.824,0.178l21.28,32.965        c0.179,0.277,0.099,0.646-0.177,0.826C228.094,138.127,228.061,138.144,228.026,138.158z"/>
					</g>
				</g>
				<g>
					<g>
						<path style="fill:#7843D4;" d="M147.63,139.726c-0.137,0.056-0.296,0.06-0.444,0.002c-0.306-0.122-0.456-0.468-0.335-0.774        l14.272-36.024c0.124-0.307,0.471-0.453,0.774-0.334c0.306,0.122,0.456,0.468,0.335,0.774l-14.272,36.024        C147.897,139.552,147.776,139.667,147.63,139.726z"/>
					</g>
				</g>
				<g>
					<g>
						<path style="fill:#7843D4;" d="M267.49,193.12c-0.095,0.399-0.2,0.776-0.317,1.184l-6.268-3.14        c-0.102-0.061-0.191-0.154-0.236-0.264c-0.116-0.159-0.121-0.362-0.043-0.549c0.11-0.173,0.313-0.307,0.525-0.291        c0.088-0.036,0.195-0.028,0.297,0.034L267.49,193.12z"/>
					</g>
				</g>
				<g>
					<g>
						<path style="fill:#7843D4;" d="M266.799,137.713c0.135,0.46,0.262,0.897,0.366,1.344l-7.981,8.287        c-0.057,0.049-0.137,0.107-0.203,0.134c-0.066,0.027-0.133,0.054-0.195,0.028c-0.163,0.041-0.319-0.025-0.448-0.152        c-0.169-0.163-0.215-0.402-0.145-0.61c0.017-0.084,0.057-0.177,0.136-0.235L266.799,137.713z"/>
					</g>
				</g>
				<g>
					<path style="fill:#7843D4;" d="M143.889,75.541c-0.029,0.012-0.059,0.022-0.09,0.029L94.202,87.171       c-0.32,0.075-0.641-0.124-0.716-0.445c-0.075-0.321,0.124-0.638,0.445-0.716l49.598-11.601c0.32-0.075,0.641,0.124,0.716,0.445       C144.312,75.143,144.156,75.433,143.889,75.541z"/>
				</g>
			</g>
			<g style="opacity:0.2;">
				<path style="fill:#010A4E;" d="M268.002,142.319c4.047,17.116,3.677,34.508-0.511,50.801c-0.095,0.399-0.2,0.776-0.317,1.184      c-6.952,25.831-23.508,48.797-47.354,63.324c-4.85,2.949-9.993,5.553-15.427,7.761c-21.756,8.84-44.718,9.961-65.878,4.689      c-8.685-2.184-17.061-5.446-24.921-9.715c12.358,1.026,24.83,0.436,37.02-1.738c0.358-0.068,0.739-0.146,1.097-0.214      c13.096-2.413,25.806-6.6,37.861-12.271c9.247-4.349,18.078-9.533,26.39-15.484c0.701-0.491,1.394-1.004,2.099-1.548      c3.448-2.533,6.812-5.213,10.077-8.006c8.549-7.334,16.486-15.603,22.855-24.882c3.026-4.395,5.719-9.041,7.982-13.923      c0.542-1.198,1.063-2.388,1.552-3.59C265.237,167.118,267.388,154.87,268.002,142.319z"/>
			</g>
		</g>
		<g>
			<g>
				<g>
					<polygon style="fill:#FFC279;" points="501.87,101.15 455.486,258.627 350.936,240.66 354.808,221.562 384.823,73.515        385.06,72.39 388.43,73.208 413.57,79.411      "/>
				</g>
				<g style="opacity:0.32;">
					<polygon style="fill:#7843D4;" points="413.57,79.411 404.192,222.957 354.808,221.562 384.823,73.515 388.43,73.208      "/>
				</g>
			</g>
			<g>
				<g>
					<path style="fill:#FFFFFF;" d="M415.152,188.941l3.39-71.38c0.062-1.31,1.171-2.323,2.481-2.269l23.838,0.995       c1.501,0.063,2.57,1.481,2.218,2.941l-17.343,71.918c-0.291,1.206-1.457,1.987-2.683,1.797l-9.886-1.533       C415.964,191.224,415.094,190.159,415.152,188.941z"/>
				</g>
				<g>
					<path style="fill:#FFFFFF;" d="M425.037,210.782c1.163,3.98-1.12,8.149-5.099,9.312c-3.98,1.163-8.149-1.12-9.312-5.099       c-1.164-3.98,1.119-8.149,5.099-9.312C419.705,204.519,423.874,206.802,425.037,210.782z"/>
				</g>
			</g>
			<g>
				<g>
					<polygon style="fill:#FD5D80;" points="289.696,218.239 280.025,40.825 409.557,39.441 400.247,218.653      "/>
				</g>
				<g>
					<g>
						<path style="fill:#FFFFFF;" d="M337.083,158.908l-3.862-71.355c-0.071-1.309,0.929-2.43,2.238-2.509l23.816-1.426        c1.499-0.09,2.707,1.213,2.505,2.701l-9.964,73.305c-0.167,1.229-1.248,2.125-2.487,2.06l-9.99-0.524        C338.122,161.096,337.148,160.125,337.083,158.908z"/>
					</g>
					<g>
						<path style="fill:#FFFFFF;" d="M349.131,179.633c1.561,3.841-0.288,8.22-4.129,9.781c-3.841,1.561-8.22-0.288-9.781-4.129        c-1.561-3.841,0.288-8.22,4.129-9.781C343.191,173.943,347.57,175.792,349.131,179.633z"/>
					</g>
				</g>
			</g>
		</g>
		<g>
			<g>
				<path style="fill:#CB6BE5;" d="M387.407,401.603c-0.185,0.05-0.402,0.086-0.588,0.136c0,0-0.048,0.199-0.152,0.576      c-1.237,4.62-10.493,35.736-38.08,51.758c-0.022,0.009-0.022,0.009-0.022,0.009c-1.412,0.831-2.918,1.623-4.441,2.371      c0,0,0,0-0.022,0.009c-5.056,2.44-10.65,4.379-16.864,5.617c-47.435,9.418-59.39-29.755-79.687-39.238      c-17.736-8.311-54.033-7.767-109.871,12.065c-0.375,0.153-0.738,0.274-1.122,0.405c-7.635,2.742-15.663,5.85-24.029,9.326      c-2.155,0.902-16.638-35.881-18.591-40.877c-0.144-0.353-0.224-0.552-0.224-0.552l0.452-0.724l34.289-56.085      c0,0,9.621-2.417,24.759-6.072c0.535-0.14,1.079-0.258,1.645-0.385c28.598-6.885,75.441-17.761,115.2-25.296      c0.447-0.104,0.902-0.187,1.358-0.269c0.044-0.018,0.075-0.005,0.119-0.023c1.031-0.187,2.061-0.374,3.092-0.561      c1.835-0.36,3.657-0.688,5.458-1.008c0.955-0.182,1.866-0.347,2.809-0.498c1.844-0.338,3.653-0.635,5.453-0.955      c4.52-0.782,8.895-1.478,13.018-2.099c3.269-0.505,6.405-0.956,9.374-1.313c0.756-0.101,1.491-0.194,2.225-0.287l0.022-0.009      c0.053,0.004,0.075-0.005,0.128-0.001c0.442-0.051,0.885-0.102,1.305-0.144c11.344-1.342,20.024-1.703,24.638-0.67      c25.364,5.675,42.301,23.291,45.401,26.741c0.334,0.379,0.521,0.586,0.521,0.586s0.208-0.059,0.579-0.158      c3.134-0.836,18.75-3.887,30.687,12.442C429.516,364.575,431.264,391.297,387.407,401.603z"/>
			</g>
			<g>
				<g>
					<g>
						<path style="fill:#7843D4;" d="M313.115,307.624l-11.666,22.78l-0.679,1.305l-14.596,28.551l-0.276,0.524l-0.151,0.01        l-13.878,1.059l-0.774,0.057l-0.323,0.028l0.136-0.235l-0.009-0.022l0.32-0.542c0,0-0.009-0.022,0.022-0.009l14.897-26.924        l0.298-0.533l-0.414-0.449l-15.595-16.721l-0.276-0.3l0.325-0.467l0.022-0.009l0.918-1.351        c0.044-0.018,0.075-0.005,0.119-0.023c1.031-0.187,2.061-0.374,3.092-0.561c1.835-0.36,3.657-0.688,5.458-1.008        c0.955-0.182,1.866-0.347,2.809-0.498c1.844-0.338,3.653-0.635,5.453-0.955c4.52-0.782,8.895-1.478,13.018-2.099        c3.278-0.483,6.392-0.925,9.374-1.313c0.756-0.101,1.491-0.194,2.225-0.287l0.022-0.009        C313.039,307.629,313.061,307.62,313.115,307.624z"/>
					</g>
				</g>
				<g>
					<g>
						<path style="fill:#010A4E;" d="M367.055,420.424c-1.425,12.262-7.619,23.555-18.469,33.65        c0.009,0.022-0.022,0.009-0.022,0.009c-1.412,0.831-2.918,1.623-4.441,2.371c12.9-10.749,20.187-22.897,21.744-36.165        c1.929-16.404-5.458-31.545-13.014-40.261c-8.068-9.28-30.474-23.825-90.071-16.85c-35.409,4.12-102.906,22.051-140.98,32.658        c-0.393,0.108-0.765,0.208-1.158,0.316c-15.49,4.312-25.855,7.366-26.708,7.61c-0.022,0.009-0.044,0.018-0.044,0.018        c-0.318,0.104-0.647-0.072-0.75-0.39c-0.081-0.327,0.103-0.633,0.421-0.737c0.044-0.018,0.252-0.077,0.601-0.167        c2.462-0.717,12.266-3.569,26.226-7.465c0.526-0.162,1.061-0.302,1.618-0.452c32.314-9.013,85.368-23.159,122.317-29.758        c0.469-0.113,0.955-0.182,1.442-0.251c6.139-1.105,11.832-1.977,16.871-2.558c2.827-0.325,5.588-0.624,8.279-0.842        c0.097-0.014,0.195-0.027,0.301-0.019c0,0-0.009-0.022,0.022-0.009c0.367-0.046,0.743-0.07,1.12-0.095        c4.62-0.41,9.002-0.647,13.149-0.762c0.226-0.014,0.429-0.02,0.664-0.012c0.226-0.015,0.43-0.02,0.655-0.035        c42.332-1.014,59.934,10.954,66.92,19.027C361.483,388.153,369.036,403.638,367.055,420.424z"/>
					</g>
				</g>
				<g>
					<g>
						<path style="fill:#010A4E;" d="M154.858,339.942l-32.849,54.625l-0.43,0.715l16.101,39.624        c-0.375,0.153-0.738,0.274-1.122,0.405l-16.19-39.845c-0.054-0.133-0.073-0.305,0.024-0.447        c-0.009-0.022,0.004-0.053,0.017-0.084l32.805-54.607C153.748,340.187,154.292,340.069,154.858,339.942z"/>
					</g>
				</g>
				<g>
					<g>
						<path style="fill:#010A4E;" d="M271.535,314.355l-0.819,1.594l-0.289,0.555l-0.28,0.577l-24.379,47.478l-0.377,0.719        c-0.066,0.155-0.167,0.222-0.3,0.276c-0.155,0.063-0.327,0.081-0.491-0.006c-0.266-0.149-0.392-0.458-0.274-0.738        c-0.009-0.022-0.009-0.022,0.004-0.053l25.728-50.11c0.447-0.104,0.902-0.187,1.358-0.269        C271.46,314.359,271.491,314.372,271.535,314.355z"/>
					</g>
				</g>
				<g>
					<g>
						<path style="fill:#010A4E;" d="M314.42,307.48l-12.146,23.181l-0.42,0.866l-0.022,0.009l-15.002,28.691l-0.188,0.36        c-0.075,0.133-0.189,0.231-0.322,0.285c-0.155,0.063-0.336,0.059-0.5-0.028c-0.031-0.013-0.04-0.035-0.071-0.048        c-0.182-0.132-0.263-0.331-0.237-0.521c-0.005-0.075,0.012-0.159,0.061-0.23l14.775-28.238l0.692-1.336l11.927-22.834        l0.022-0.009c0.053,0.004,0.075-0.005,0.128-0.001C313.557,307.573,314,307.522,314.42,307.48z"/>
					</g>
				</g>
				<g>
					<g>
						<path style="fill:#010A4E;" d="M271.673,361.993c-0.159,0.064-0.345,0.06-0.508-0.027c-0.289-0.156-0.397-0.517-0.241-0.807        l14.987-27.768c0.086-0.163,0.238-0.275,0.42-0.304l15.329-2.728c0.323-0.058,0.633,0.157,0.69,0.481        c0.058,0.326-0.163,0.639-0.483,0.691l-15.045,2.678l-14.851,27.514C271.904,361.851,271.797,361.943,271.673,361.993z"/>
					</g>
				</g>
				<g>
					<g>
						<path style="fill:#010A4E;" d="M286.66,334.225c-0.222,0.09-0.488,0.04-0.66-0.147l-16.285-17.468        c-0.224-0.24-0.212-0.617,0.03-0.841c0.235-0.229,0.618-0.211,0.841,0.03l16.285,17.469c0.225,0.24,0.212,0.617-0.03,0.841        C286.787,334.161,286.726,334.198,286.66,334.225z"/>
					</g>
				</g>
				<g>
					<g>
						<path style="fill:#010A4E;" d="M331.412,388.919c-13.948-14.612-37.28-15.019-52.011-0.95        c-7.148,6.801-11.24,15.97-11.526,25.805c-0.274,9.806,3.291,19.111,10.038,26.184c6.747,7.074,15.883,11.084,25.696,11.258        c5.083,0.076,10.023-0.849,14.607-2.712c4.274-1.737,8.262-4.295,11.708-7.596c7.139-6.822,11.24-15.97,11.506-25.797        c0.162-5.166-0.768-10.177-2.647-14.802C337.088,396.139,334.6,392.266,331.412,388.919z M340.332,415.076        c-0.292,9.525-4.253,18.424-11.166,25.034c-6.942,6.598-16.007,10.161-25.531,9.989c-9.524-0.172-18.381-4.03-24.924-10.898        c-6.535-6.847-9.99-15.883-9.719-25.4c0.271-9.516,4.233-18.415,11.166-25.034c3.38-3.226,7.249-5.664,11.337-7.325        c6.587-2.676,13.784-3.316,20.625-1.934c6.84,1.382,13.315,4.766,18.473,10.176        C337.148,396.523,340.603,405.56,340.332,415.076z"/>
					</g>
				</g>
				<g>
					<g>
						<path style="fill:#010A4E;" d="M387.044,402.293c-0.07,0.029-0.147,0.044-0.226,0.044c-0.33-0.002-0.595-0.271-0.595-0.598        c0-0.096-0.104-9.565-10.978-23.716c-1.02-1.33-2.022-2.616-2.995-3.867c-9.69-12.458-16.691-21.458-11.312-31.074        c3.535-6.322,11.313-9.53,23.124-9.529c0.404-0.001,0.706,0,0.882-0.012c0.329-0.018,0.612,0.231,0.631,0.56        c0.021,0.331-0.224,0.614-0.559,0.632c-0.192,0.01-0.517,0.012-0.954,0.011c-11.341,0.002-18.77,3.003-22.083,8.92        c-4.993,8.925,1.804,17.665,11.213,29.76c0.974,1.253,1.976,2.542,3,3.873c11.152,14.515,11.225,24.048,11.223,24.448        C387.414,401.991,387.261,402.204,387.044,402.293z"/>
					</g>
				</g>
				<g>
					<g>
						
							<ellipse transform="matrix(0.9102 -0.4142 0.4142 0.9102 -116.9036 195.3803)" style="fill:#7843D4;" cx="392.052" cy="367.244" rx="14.457" ry="14.457"/>
					</g>
				</g>
			</g>
			<g>
				<g>
					<path style="fill:#FFECDF;" d="M333.749,319.24c0.762,1.908,2.344,3.368,4.018,4.559c1.81,1.288,3.787,2.342,5.865,3.127       c1.843,0.697,3.818,1.186,5.774,0.952s3.893-1.299,4.775-3.06c1.061-2.116,0.375-4.785-1.113-6.626       c-1.488-1.841-3.639-3.01-5.783-4.013C343.045,312.195,330.163,310.264,333.749,319.24z"/>
				</g>
				<g>
					<path style="fill:#FFECDF;" d="M365.674,328.684c1.044,2.57-0.193,5.499-2.762,6.543c-2.57,1.044-5.499-0.193-6.543-2.762       c-1.044-2.57,0.193-5.499,2.762-6.543C361.701,324.878,364.63,326.115,365.674,328.684z"/>
				</g>
			</g>
		</g>
		<g>
			<path style="fill:#FFECDF;" d="M88.288,299.807c1.218-0.299,2.441,0.448,2.766,1.779l7.285,29.871l10.765-2.625     c1.217-0.296,2.397,0.519,2.709,1.794l0.974,3.992c0.323,1.334-0.361,2.544-1.578,2.84l-15.922,3.881     c-1.909,0.466-3.693-0.814-4.147-2.668l-8.54-35.025c-0.325-1.331,0.419-2.555,1.638-2.852L88.288,299.807z"/>
			<path style="fill:#FFECDF;" d="M121.025,300.963l1.666,6.832l8.855-2.161c1.217-0.296,2.441,0.448,2.75,1.722l0.946,3.88     c0.311,1.273-0.434,2.496-1.649,2.794l-8.854,2.158l2.031,8.337l12.269-2.993c1.221-0.297,2.457,0.505,2.768,1.778l0.975,3.994     c0.323,1.334-0.419,2.555-1.637,2.854l-17.424,4.248c-1.912,0.465-3.696-0.815-4.147-2.668l-8.258-33.868     c-0.225-0.926-0.093-1.88,0.391-2.669c0.409-0.837,1.194-1.397,2.063-1.61l17.424-4.248c1.219-0.297,2.441,0.448,2.766,1.779     l0.975,3.994c0.309,1.274-0.419,2.555-1.637,2.854L121.025,300.963z"/>
			<path style="fill:#FFECDF;" d="M169.56,286.675c0.309,1.274-0.419,2.555-1.635,2.853l-7.468,1.821l7.285,29.871     c0.323,1.334-0.421,2.556-1.635,2.853l-4.054,0.989c-1.274,0.309-2.441-0.448-2.767-1.781l-7.283-29.872l-7.468,1.821     c-1.214,0.297-2.455-0.505-2.764-1.78l-0.975-3.994c-0.324-1.331,0.421-2.556,1.636-2.851l23.389-5.704     c1.217-0.296,2.439,0.449,2.764,1.78L169.56,286.675z"/>
			<path style="fill:#FFECDF;" d="M182.353,292.818l-3.709,0.904c-0.402,0.098-0.792,0.01-1.096-0.223     c-0.301-0.234-0.444-0.566-0.427-1l0.123-13.829c-0.011-0.305,0.091-0.635,0.325-0.939c0.246-0.243,0.507-0.429,0.854-0.515     l5.733-1.397c0.75-0.182,1.387,0.153,1.571,0.905c0.056,0.231,0.054,0.478-0.004,0.738L182.353,292.818z"/>
			<path style="fill:#FFECDF;" d="M215.423,299.902c-0.724-2.214-1.792-2.567-7.033-3.435l-1.66-0.27     c-6.107-1.15-10.328-3.617-11.88-9.985c-1.764-7.237,2.087-13.572,9.209-15.31c3.822-0.93,8.095-0.5,11.745,1.123     c0.95,0.383,1.606,1.571,1.37,2.61l-0.847,3.827c-0.206,0.908-0.786,1.541-1.656,1.751c-0.461,0.114-0.955,0.112-1.417-0.022     l-0.072-0.041c-3.504-1.295-5.906-1.076-7.005-0.807c-2.374,0.578-3.539,2.335-3.018,4.478c0.451,1.852,1.644,2.971,6.712,3.882     c0.244,0.001,1.014,0.121,3.886,0.585c5.127,0.897,8.761,4.243,9.961,9.164c1.864,7.642-2.71,14.031-10.006,15.81     c-3.763,0.918-8.023,0.546-11.919-1.08c-0.935-0.321-1.607-1.568-1.37-2.61l0.961-3.851c0.209-0.909,0.791-1.543,1.6-1.741     c0.464-0.113,0.958-0.11,1.432,0.079l0.057-0.013c2.755,0.984,5.153,1.259,7.119,0.779     C214.49,304.119,215.988,302.219,215.423,299.902z"/>
			<path style="fill:#FFECDF;" d="M258.087,287.171l-3.995,0.972l2.766,11.346c0.326,1.333-0.359,2.543-1.576,2.839l-4.111,1.002     c-1.214,0.297-2.383-0.459-2.709-1.792l-8.54-35.025c-0.451-1.852,0.546-3.813,2.456-4.278l9.088-2.218     c7.294-1.778,14.593,3.251,16.331,10.373C269.547,277.568,265.44,285.376,258.087,287.171z M257.033,269.27     c-1.105-0.772-2.448-0.996-3.781-0.67l-3.705,0.902l2.468,10.13l3.705-0.902c2.663-0.65,4.3-3.501,3.623-6.28     C259.018,271.118,258.185,269.971,257.033,269.27z"/>
			<path style="fill:#FFECDF;" d="M278.8,253.354c1.216-0.298,2.439,0.449,2.764,1.78l7.285,29.871l10.765-2.625     c1.217-0.296,2.397,0.519,2.709,1.794l0.974,3.992c0.323,1.334-0.362,2.542-1.578,2.84l-15.92,3.88     c-1.909,0.466-3.696-0.815-4.15-2.667l-8.54-35.026c-0.325-1.331,0.422-2.556,1.638-2.852L278.8,253.354z"/>
			<path style="fill:#FFECDF;" d="M341.184,278.01c0.113,0.216,0.17,0.449,0.253,0.797c0.325,1.331-0.404,2.612-1.737,2.937     l-3.645,0.888c-1.273,0.311-2.515-0.245-3.176-1.434l-3.702-6.395l-10.365,2.528l-0.403,7.394     c-0.038,1.36-0.88,2.423-2.097,2.719l-3.59,0.876c-1.331,0.325-2.568-0.477-2.893-1.808c-0.084-0.348-0.141-0.581-0.142-0.825     l2.363-38.604c0.052-1.3,0.898-2.366,2.17-2.676l3.938-0.959c1.271-0.31,2.512,0.246,3.155,1.377L341.184,278.01z      M319.646,258.359l-0.447,9.983l5.442-1.327L319.646,258.359z"/>
			<path style="fill:#FFECDF;" d="M365.423,232.232c1.273-0.311,2.567,0.48,2.892,1.81c0.112,0.462,0.108,0.954-0.08,1.43     l-6.047,21.225l3.938,16.15c0.323,1.334-0.419,2.555-1.637,2.854l-4.05,0.987c-1.217,0.296-2.444-0.447-2.769-1.78l-3.936-16.15     l-15.14-16.059c-0.39-0.334-0.619-0.769-0.731-1.231c-0.324-1.331,0.467-2.63,1.738-2.94l4.285-1.045     c0.87-0.21,1.664,0.025,2.251,0.679l9.635,10.593l3.68-13.84c0.224-0.853,0.818-1.426,1.687-1.638L365.423,232.232z"/>
			<path style="fill:#FFECDF;" d="M384.957,266.785c-0.664-2.723,1.028-5.343,3.692-5.993c2.661-0.649,5.268,0.986,5.918,3.649     c0.636,2.604-0.969,5.327-3.573,5.963C388.33,271.052,385.621,269.506,384.957,266.785z M385.488,257.638     c-0.693,0.168-1.345-0.225-1.515-0.92l-6.52-26.746c-0.169-0.693,0.227-1.341,0.92-1.509l4.401-1.075     c0.693-0.169,1.343,0.226,1.512,0.919l6.52,26.746c0.169,0.695-0.224,1.342-0.916,1.513L385.488,257.638z"/>
		</g>
		<g>
			<g>
				<polygon style="fill:#FFECDF;" points="32.644,244.093 32.302,218.167 46.825,240.332 66.925,237.445 53.166,254.365       64.417,276.459 43.167,266.756 27.138,286.828 28.958,260.939 8.388,255.307     "/>
			</g>
		</g>
		<g>
			<g>
				<polygon style="fill:#FFECDF;" points="393.319,310.72 380.863,287.979 404.082,300.75 420.483,288.778 416.261,310.173       436.557,324.415 413.238,325.805 408.488,351.049 397.96,327.328 377.15,331.996     "/>
			</g>
		</g>
		<g>
			<g>
				<polygon style="fill:#FFECDF;" points="187.011,442.952 174.555,420.212 197.773,432.983 214.175,421.01 209.953,442.406       230.249,456.648 206.929,458.038 202.18,483.282 191.651,459.56 170.842,464.229     "/>
			</g>
		</g>
		<g>
			<path style="fill:#CB6BE5;" d="M263.537,71.459c-5.193,3.214-10.42,4.247-16.185,6.261c2.053-12.204-2.936-25.344-12.571-33.11     c4.397-2.657,8.308-6.928,12.704-9.585c4.292,6.54,9.227,12.802,12.204,20.036C261.69,59.925,265.103,66.438,263.537,71.459z"/>
		</g>
		<g>
			<path style="fill:#CB6BE5;" d="M423.481,262.429c-4.578,1.173-9.649,0.253-13.524-2.452c-3.875-2.706-6.485-7.149-6.961-11.851     c2.839-2.087,5.483-5.952,7.624-8.751c1.961,6.003,9.165,9.849,15.39,8.785C424.658,253.275,424.269,257.197,423.481,262.429z"/>
		</g>
		<g>
			<path style="fill:#CB6BE5;" d="M84.511,386.48c-1.497-4.769-5.577-9.007-10.475-10.007c-4.897-1.001-10.919,0.11-15.124,2.812     c-0.404-5.816,0.133-11.696,1.585-17.342c9.892-1.58,21.262,2.316,27.238,10.356C86.075,376.558,84.638,386.885,84.511,386.48z"/>
		</g>
		<g>
			<path style="fill:#FD5D80;" d="M276.111,96.95c1.603,3.945-0.295,8.443-4.241,10.046c-3.945,1.603-8.443-0.295-10.046-4.241     c-1.603-3.945,0.296-8.442,4.241-10.046C270.011,91.106,274.508,93.005,276.111,96.95z"/>
		</g>
		<g>
			<path style="fill:#FD5D80;" d="M286.249,228.619c1.603,3.945-0.296,8.443-4.241,10.046c-3.945,1.603-8.443-0.295-10.046-4.241     c-1.603-3.945,0.295-8.442,4.241-10.046C280.148,222.775,284.645,224.674,286.249,228.619z"/>
		</g>
		<g>
			<path style="fill:#FD5D80;" d="M66.198,310.149c1.603,3.945-0.295,8.443-4.241,10.045c-3.945,1.603-8.442-0.295-10.046-4.241     c-1.603-3.945,0.296-8.443,4.241-10.045C60.097,304.306,64.595,306.204,66.198,310.149z"/>
		</g>
		<g>
			<path style="fill:#FD5D80;" d="M48.435,175.884c1.603,3.945-0.296,8.443-4.241,10.046c-3.945,1.603-8.443-0.295-10.046-4.241     c-1.603-3.945,0.295-8.442,4.241-10.046C42.335,170.041,46.832,171.939,48.435,175.884z"/>
		</g>
		<g>
			<path style="fill:#FD5D80;" d="M371.468,296.051c1.603,3.945-0.295,8.443-4.241,10.046c-3.945,1.603-8.443-0.296-10.045-4.241     c-1.603-3.945,0.295-8.443,4.24-10.046C365.368,290.208,369.865,292.106,371.468,296.051z"/>
		</g>
	</g>
</g>















</svg>
