<?xml version="1.0" encoding="UTF-8"?>
<!-- Generator: Adobe Illustrator 25.2.1, SVG Export Plug-In . SVG Version: 6.00 Build 0)  -->
<svg xmlns="http://www.w3.org/2000/svg" xmlns:xlink="http://www.w3.org/1999/xlink" version="1.1" id="Capa_1" x="0px" y="0px" viewBox="0 0 512 512" style="enable-background:new 0 0 512 512;" xml:space="preserve" width="512" height="512">
<g>
	<path style="fill:#FFFFFF;" d="M92.326,439.513c-2.243-0.752-4.503-1.575-6.71-2.448c-11.725-4.634-22.639-10.794-32.449-18.312   c-1.115-0.822-2.212-1.688-3.303-2.582c-14.658-11.914-26.495-26.578-35.121-43.545l-1.094-2.194   c-6.025-12.422-10.085-25.516-12.116-39.02c-1.171-7.582-1.678-15.439-1.497-23.297c0.023-1.002,0.042-1.82,0.082-2.629   c0.206-5.088,0.737-10.354,1.578-15.593c-0.777-13.359-0.203-27.674,1.707-42.578c1.232-9.615,3.034-19.366,5.366-29.034   c-0.251-2.75,0.061-5.536,0.939-8.155c0.617-1.842,1.504-3.58,2.626-5.164c1.024-3.453,2.115-6.875,3.275-10.26   c-0.33-0.235-0.65-0.487-0.965-0.753c-4.875-4.172-6.175-11.182-3.118-16.823l6.625-12.237l-7.266-6.036   c-4.349-3.614-6.01-9.54-4.175-14.888c1.837-5.349,6.788-9.005,12.439-9.186l16.072-0.514l8.238-15.423   c2.862-5.359,8.929-8.173,14.867-6.895c0.501,0.107,0.993,0.244,1.47,0.404c1.159,0.389,2.244,0.925,3.234,1.589   c0.533-0.573,1.069-1.139,1.606-1.702c36.947-38.756,88.452-60.04,137.801-56.946l9.558,0.428   c18.424-4.812,31.636-5.933,41.176-3.473c4.774-4.524,9.846-7.617,15.339-9.375c6.283-2.014,13.474-1.97,19.72,0.124   c6.394,2.143,11.506,6.208,14.783,11.751c2.968,5.023,4.131,10.825,3.547,16.59c1.173,0.377,2.337,0.758,3.497,1.146   c18.026,6.043,35.05,13.731,50.596,22.849c45.389,26.624,79.321,66.118,95.55,111.211c4.757,13.216,7.924,27.007,9.444,41.096   l9.595,4.903c6.038,3.085,8.862,10.127,6.694,16.499c0.413,0.127,0.823,0.257,1.232,0.394c2.319,0.777,4.61,1.728,6.816,2.822   c0.074,0.037,0.15,0.076,0.223,0.115c8.132,4.228,14.306,10.071,17.854,16.901c6.196,11.864,5.032,26.984-3.125,40.423   c-4.295,7.056-9.604,12.304-15.787,15.612c-9.704,5.222-21.589,5.73-34.343,1.455c-1.731-0.58-3.487-1.253-5.223-1.999   c-0.564-0.24-1.118-0.485-1.666-0.731c-1.689,3.156-3.479,6.231-5.364,9.205c-12.988,20.513-29.731,35.427-48.42,43.134   c-10.623,4.381-21.419,6.33-31.859,8.215c-4.134,0.747-8.116,1.467-11.974,2.313l-3.212,6.286c0.271,2.537-0.167,5.182-1.415,7.624   l-2.766,5.414c-1.643,3.215-4.495,5.645-7.929,6.758c-2.788,0.902-5.773,0.876-8.518-0.045c-0.636-0.213-1.262-0.474-1.868-0.785   l-15.859-8.104c-3.954,2.203-7.909,4.482-11.78,6.71c-1.938,1.117-3.901,2.249-5.883,3.381l4.491,11.543   c2.228,5.726,0.343,12.234-4.6,15.883c-3.646,2.694-8.294,3.337-12.413,1.958c-1.464-0.491-2.859-1.237-4.12-2.236l-9.699-7.679   l-7.409,10.991c-3.436,5.098-9.839,7.235-15.607,5.301c-0.25-0.084-0.5-0.174-0.749-0.274c-4.768-1.914-7.949-6.286-8.468-11.199   c-28.727,5.756-60.29,3.218-92.465-7.567c-4.13-1.384-8.293-2.918-12.407-4.566C115.6,445.617,103.738,443.339,92.326,439.513z"/>
	<g>
		<path style="fill:#EEA6FF;" d="M200.606,68.515c-47.304-3.004-94.513,18.442-127.22,52.749    c-32.707,34.306-51.559,80.399-57.581,127.413c-3.439,26.851-2.82,54.675,5.997,80.269c13.884,40.303,47.044,71.636,84.347,92.264    c42.539,23.524,94.429,34.818,140.272,18.65c32.6-11.497,59.829-35.848,93.166-44.991c15.969-4.38,32.95-5.136,48.258-11.449    c17.724-7.309,31.853-21.632,42.109-37.83c24.992-39.474,28.165-90.847,12.344-134.807c-15.821-43.96-49.332-80.44-89.631-104.077    c-40.3-23.637-87.031-35.004-133.691-37.367"/>
		<g>
			<g>
				<g>
					<path style="fill:#FFECDF;" d="M247.301,355.533c-1.261,3.19-2.629,6.272-4.141,9.283l-0.007,0.021       c-0.67,1.426-1.404,2.831-2.152,4.207c-1.245,2.286-2.547,4.529-3.921,6.701c-1.187,1.899-2.424,3.733-3.704,5.553       c-4.645,6.577-9.914,12.587-15.655,18.008c-7.702,7.276-16.278,13.444-25.512,18.436c0,0-0.036,0.036-0.057,0.029       c-2.994,1.652-6.031,3.146-9.168,4.511c-0.007,0.022-0.007,0.022-0.029,0.014c-28.637,12.556-62.061,14.128-93.439,1.743       c-10.732-4.243-20.536-9.827-29.269-16.534c-0.96-0.705-1.906-1.452-2.844-2.221c-13.332-10.833-24.027-24.252-31.627-39.193       c-0.343-0.689-0.686-1.379-1.029-2.068c-5.347-11.028-9.022-22.834-10.852-35.004c-1.064-6.889-1.512-13.905-1.349-20.957       c0.016-0.76,0.031-1.521,0.069-2.274c0.532-13.22,3.28-26.558,8.395-39.534c0.058-0.172,0.144-0.359,0.223-0.523       c0.36-0.932,0.735-1.835,1.138-2.753c25.776-60.265,95.037-89.445,156.424-65.231c7.964,3.148,15.44,7.042,22.312,11.594       c2.222,1.438,4.371,2.949,6.449,4.53C250.033,245.96,267.783,303.566,247.301,355.533z"/>
				</g>
				<g>
					<path style="fill:#CB6BE5;" d="M207.554,213.872c-3.262-1.189-6.46-2.213-9.636-3.087l-0.021-0.007       c-1.678-0.491-3.334-0.902-4.969-1.307c-12.714-2.97-24.549-3.564-35.462-2.485c0.007-0.022,0.007-0.022-0.021-0.007       c-1.055,0.077-2.095,0.183-3.128,0.339c-13.245,1.685-25.031,5.797-35.241,10.988c-0.689,0.343-1.364,0.715-2.039,1.087       c-26.236,13.959-41.522,34.65-43.528,37.495c-0.137,0.194-0.223,0.308-0.23,0.33l-0.18,0.251l-0.201,0.315l-0.688-0.087       c-17.709-1.845-39.089,4.052-50.975,8.034c0.36-0.932,0.735-1.835,1.138-2.753c12.195-3.975,32.347-9.206,49.418-7.599       c4.616-6.42,49.077-64.896,121.323-48.166c0.316,0.058,0.602,0.13,0.889,0.203c0.022,0.007,0.022,0.007,0.022,0.007       c2.345,0.571,4.697,1.192,7.084,1.92C203.327,210.781,205.477,212.291,207.554,213.872z"/>
				</g>
				<g>
					<path style="fill:#CB6BE5;" d="M113.275,398.869c3.968-49.769-10.721-101.376-40.303-141.589l1.829-1.345       c29.899,40.647,44.748,92.81,40.736,143.113L113.275,398.869z"/>
				</g>
				<g>
					<path style="fill:#CB6BE5;" d="M166.1,406.186c3.456-41.09-5.116-79.377-13.957-111.414       c-7.032-25.493-16.792-54.487-35.871-76.25l1.706-1.493c19.38,22.106,29.252,51.4,36.353,77.14       c8.893,32.229,17.514,70.762,14.027,112.208L166.1,406.186z"/>
				</g>
				<g>
					<path style="fill:#CB6BE5;" d="M213.653,390.977c3.261-38.863,0.67-73.171-7.697-101.972       c-10.09-34.729-27.548-62.282-51.891-81.898l1.424-1.766c24.711,19.912,42.424,47.848,52.647,83.03       c8.445,29.07,11.061,63.652,7.777,102.793L213.653,390.977z"/>
				</g>
				<g>
					<path style="fill:#CB6BE5;" d="M243.16,364.816l-0.007,0.021c-0.67,1.426-1.404,2.831-2.152,4.207       c-0.729-31.228-2.423-69.143-8.602-92.891c-5.196-19.901-16.232-47.503-39.471-66.681c-0.315-0.273-0.659-0.532-0.996-0.812       l1.179-1.447l0.252-0.322c0.208,0.165,0.43,0.36,0.637,0.525c0.022,0.007,0.022,0.007,0.022,0.007       c1.333,1.093,2.629,2.221,3.875,3.357l0.021,0.007c21.316,19.348,31.688,45.577,36.663,64.782       C240.554,298.505,242.379,334.312,243.16,364.816z"/>
				</g>
				<g>
					<path style="fill:#CB6BE5;" d="M100.599,305.04c-0.473-0.015-0.976-0.016-1.449-0.031c-28.78-0.508-57.856,0.512-86.605,3.053       c0.016-0.76,0.031-1.521,0.069-2.274c28.426-2.506,57.172-3.54,85.637-3.018c0.818-0.013,1.6,0.01,2.41,0.018L100.599,305.04z"/>
				</g>
				<g>
					<path style="fill:#CB6BE5;" d="M112.177,343.446c-0.632,0.171-1.263,0.342-1.895,0.513       c-21.445,5.875-43.097,11.584-64.692,17.122c-6.617,1.682-13.212,3.371-19.815,5.01c-0.343-0.689-0.686-1.379-1.029-2.068       c6.215-1.553,12.437-3.128,18.667-4.724c22.19-5.673,44.424-11.546,66.443-17.564c0.581-0.164,1.141-0.335,1.715-0.478       L112.177,343.446z"/>
				</g>
				<g>
					<path style="fill:#CB6BE5;" d="M115.362,399.04l-0.3-1.105l-0.207-0.739l-0.078-0.266c-0.158,0.043-0.294,0.093-0.445,0.114       c-0.323,0.107-0.639,0.193-0.947,0.257c-18.28,4.926-37.072,7.599-55.982,7.983c0.938,0.769,1.884,1.517,2.844,2.221       c8.279-0.287,16.53-0.991,24.731-2.117l0.022,0.007c1.155-0.163,2.239-0.326,3.38-0.518c8.754-1.348,17.452-3.17,26.006-5.494       c0.337-0.078,0.66-0.186,0.998-0.264L115.362,399.04z"/>
				</g>
				<g>
					<path style="fill:#CB6BE5;" d="M216.024,389.526c7.173-3.912,14.175-8.527,21.056-13.781c-1.187,1.899-2.424,3.733-3.704,5.553       c-12.914,9.189-26.34,16.125-40.114,20.743c-23.119,7.73-47.532,8.542-68.713,2.28c-0.696-0.209-1.412-0.426-2.122-0.664       c-2.882-0.966-5.692-2.219-8.042-4.275c-0.136-0.094-0.265-0.208-0.394-0.323l0.115-0.129l0.956-0.995l0.489-0.53       c0.014,0.029,0.057,0.043,0.071,0.072c2.621,2.386,6.142,3.662,9.583,4.672c12.777,3.781,26.771,4.931,40.948,3.463       c0.768-0.078,1.535-0.155,2.289-0.262c8.058-0.984,16.16-2.813,24.105-5.461c7.142-2.391,14.184-5.414,21.106-9.075       C214.458,390.413,215.248,389.984,216.024,389.526z"/>
				</g>
				<g>
					<path style="fill:#CB6BE5;" d="M192.152,417.771c-2.994,1.652-6.031,3.146-9.168,4.511c-0.007,0.022-0.007,0.022-0.029,0.014       c-21.973,4.238-46.152,2.641-76.187-6.685c-0.825-0.252-1.599-0.512-2.373-0.772c-7.399-2.48-13.341-5.381-19.396-9.444       l-0.022-0.007c-0.158-0.101-0.33-0.23-0.487-0.331l1.273-1.87c0.874,0.604,1.741,1.158,2.616,1.69       c5.79,3.64,11.654,6.275,19.067,8.569C141.467,424.012,167.887,424.495,192.152,417.771z"/>
				</g>
			</g>
			<path style="opacity:0.15;fill:#010A4E;" d="M217.721,399.306c-7.702,7.276-16.278,13.444-25.512,18.436     c0,0-0.036,0.036-0.057,0.029c-2.994,1.652-6.031,3.146-9.168,4.511c-0.007,0.022-0.007,0.022-0.029,0.014     c-28.637,12.556-62.061,14.128-93.439,1.743c-10.732-4.243-20.536-9.827-29.269-16.534c-0.96-0.705-1.906-1.452-2.844-2.221     c-13.332-10.833-24.027-24.252-31.627-39.193c-0.343-0.689-0.686-1.379-1.029-2.068c-5.347-11.028-9.022-22.834-10.852-35.004     c8.74,11.112,18.637,21.273,29.518,30.28c0.731,0.604,1.44,1.2,2.178,1.783c11.978,9.662,25.077,17.976,38.976,24.621     c9.297,4.456,18.968,8.153,28.848,11.082c0.301,0.101,0.602,0.202,0.918,0.26c0.165,0.079,0.337,0.137,0.523,0.152     c0.229,0.101,0.452,0.151,0.696,0.209c0.014,0.029,0.057,0.043,0.086,0.029c16.441,4.698,33.467,7.295,50.547,7.661     c0.753,0.037,1.514,0.053,2.281,0.047c0.473,0.015,0.954,0.009,1.427,0.024c4.778,0.022,9.57-0.142,14.348-0.478     c4.671-0.301,9.334-0.795,13.977-1.44C204.747,402.326,211.298,401.053,217.721,399.306z"/>
		</g>
		<g>
			<path style="fill:#CB6BE5;" d="M234.189,177.057c-30.023,0.918-44.77-25.607-44.77-25.607l-84.771,17.209l-5.786-14.429     l-0.436-1.055L85.56,121.109c0,0,36.308-18.31,75.503-34.169c13.89-5.608,28.161-10.921,41.295-14.987     c21.094-6.543,39.249-9.883,48.382-6.224c1.792,0.72,3.491,1.505,5.132,2.39c0.323,0.18,0.674,0.346,0.989,0.547     c7.611,4.274,13.577,10.174,18.063,16.917c0.229,0.316,0.429,0.646,0.629,0.977c7.842,12.223,10.952,26.998,10.342,39.523     c-0.067,1.198-0.147,2.367-0.293,3.515c-0.262,2.568-0.69,4.985-1.282,7.251C278.668,158.566,269.944,175.955,234.189,177.057z"/>
			<path style="fill:#FFECDF;" d="M247.783,92.036c-16.282-5.458-33.944,3.336-39.402,19.618     c-5.451,16.261,3.343,33.922,19.625,39.38c16.261,5.451,33.944-3.336,39.395-19.596     C272.859,115.156,264.044,97.487,247.783,92.036z M228.367,149.959c-15.68-5.256-24.159-22.286-18.91-37.945     c5.256-15.68,22.286-24.159,37.966-18.903c15.68,5.256,24.159,22.286,18.903,37.966     C261.077,146.736,244.047,155.215,228.367,149.959z"/>
			<path style="fill:#7843D4;" d="M202.784,82.742l-39.572,10.062c-0.707-1.96-1.421-3.898-2.149-5.865     c13.89-5.608,28.161-10.921,41.295-14.987L202.784,82.742z"/>
			<path style="fill:#7843D4;" d="M285.604,129.597c-5.516,12.172-20.285,37.104-49.379,40.031     c-36.348,3.655-53.798-36.361-55.834-41.35l-81.529,25.952l-0.436-1.055l82.146-26.153c0.265-0.078,0.595,0.08,0.695,0.353     c0.164,0.438,17.155,44.893,54.837,41.111c31.297-3.146,45.7-32.269,49.792-42.405     C285.83,127.28,285.749,128.449,285.604,129.597z"/>
			<path style="fill:#CB6BE5;" d="M274.167,86.907c-0.17-0.057-0.309-0.193-0.364-0.379c-0.088-0.301,0.084-0.614,0.385-0.703     c4.212-1.233,9.997-3.747,13.618-8.723c3.383-4.647,3.964-10.905,1.415-15.219c-3.51-5.943-11.544-7.187-17.315-5.335     c-5.331,1.705-10.318,5.76-15.256,12.397c-0.185,0.251-0.534,0.312-0.793,0.115c-0.251-0.187-0.303-0.541-0.115-0.793     c5.08-6.832,10.255-11.019,15.819-12.799c6.186-1.983,14.825-0.612,18.639,5.839c2.816,4.765,2.222,11.382-1.476,16.462     c-3.808,5.233-9.834,7.86-14.217,9.143C274.391,86.947,274.274,86.942,274.167,86.907z"/>
			<g>
				<path style="fill:#FFECDF;" d="M118.215,154.292c-1.464,1.059-3.009,2.543-2.787,4.336c0.182,1.468,1.572,2.553,3.02,2.858      c1.448,0.304,2.947-0.004,4.391-0.325c3.712-0.825,7.729-1.951,9.919-5.06c0.402-0.57,0.733-1.209,0.826-1.9      c0.261-1.949-1.51-3.699-3.427-4.138C125.797,149.063,121.538,151.887,118.215,154.292z"/>
				<path style="fill:#FFECDF;" d="M147.771,152.105c-0.737,2.199-3.117,3.384-5.316,2.647c-2.199-0.737-3.384-3.117-2.647-5.316      c0.737-2.199,3.117-3.384,5.316-2.647C147.323,147.526,148.508,149.906,147.771,152.105z"/>
			</g>
		</g>
		<g>
			<path style="fill:#FFC279;" d="M343.752,387.284l-14.586,28.543l-52.965-27.067l14.586-28.543l29.063-4.229l22.493-44.016     c-0.079-0.244,1.642,0.177,3.545,0.691l0.423-0.828c0,0,0.806,0.616,1.854,1.457c1.275,0.346,2.267,0.649,2.267,0.649     l-0.423,0.828c1.511,1.231,2.881,2.389,2.636,2.468l-22.493,44.016L343.752,387.284z"/>
			<path style="fill:#FFC279;" d="M344.132,337.938l-13.152-6.721c-2.695-1.377-3.773-4.708-2.396-7.403l0,0     c1.377-2.695,4.709-3.773,7.403-2.396l13.152,6.721c2.695,1.377,3.773,4.709,2.396,7.403l0,0     C350.159,338.237,346.827,339.316,344.132,337.938z"/>
			<polygon style="fill:#330214;" points="352.026,318.449 350.912,320.63 339.34,317.851 341.786,313.063    "/>
			<g>
				<g>
					<g>
						<path style="fill:#FFC279;" d="M300.377,268.719c-1.856,1.039-3.93,1.609-5.738,1.806c-2.701,0.301-5.975-0.022-8.763-1.447        c-1.616-0.826-3.087-2.036-4.188-3.669c-0.711-1.051-0.425-2.459,0.616-3.15c1.051-0.711,2.439-0.435,3.15,0.616        c1.893,2.827,5.874,3.461,8.687,3.14c1.848-0.176,3.822-0.9,5.172-2.095c0.726-0.623,1.29-1.379,1.542-2.269        c0.795-2.753-1.311-5.561-3-7.29c-0.623-0.624-1.187-1.116-1.55-1.404c-4.221-3.456-9.048-5.923-14.159-8.535        c-2.858-1.486-5.807-2.993-8.633-4.692c-7.045-4.211-15.726-11.45-17.116-21.892c-0.61-4.49,0.215-9.494,2.454-14.821        c4.238-10.037,11.845-16.798,20.378-18.042c4.988-0.737,10.547,0.498,16.062,3.266c3.474,1.826,6.649,4.137,9.405,6.87        c3.672,3.583,6.647,7.881,8.685,12.667c0.507,1.151-0.042,2.475-1.193,2.982c-1.14,0.487-2.475-0.042-2.982-1.193        c-1.531-3.585-3.754-6.962-6.416-9.877c-2.763-3.017-6.028-5.552-9.583-7.419c-3.322-1.723-8.217-3.562-13.316-2.805        c-8.177,1.196-14.077,8.703-16.844,15.314c-1.927,4.569-2.644,8.763-2.159,12.45c1.172,8.674,8.767,14.899,14.943,18.616        c2.715,1.617,5.604,3.093,8.381,4.538c4.424,2.261,8.949,4.573,13.061,7.592c0.655,0.463,1.27,0.955,1.905,1.458        c5.117,4.194,7.316,9.114,6.039,13.506C304.442,265.6,302.569,267.47,300.377,268.719z"/>
					</g>
					<path style="fill:#330214;" d="M313.381,207.778c0.507,1.151-0.042,2.475-1.193,2.982c-1.14,0.487-2.475-0.042-2.982-1.193       c-1.531-3.585-3.754-6.962-6.416-9.877c0.512-1.7,1.134-3.267,1.907-4.579C308.368,198.695,311.343,202.992,313.381,207.778z"/>
					<path style="fill:#330214;" d="M300.377,268.719c-0.402-1.606-0.743-3.182-1.064-4.798c0.726-0.623,1.29-1.379,1.542-2.269       c0.795-2.753-1.311-5.561-3-7.29c-0.105-0.742-0.18-1.493-0.254-2.244c-0.14-1.371-0.25-2.751-0.329-4.142       c0.655,0.463,1.27,0.955,1.905,1.458c5.117,4.194,7.316,9.114,6.039,13.506C304.442,265.6,302.569,267.47,300.377,268.719z"/>
				</g>
				<g>
					<g>
						<path style="fill:#FFC279;" d="M414.628,327.105c0.245,2.112,0.999,4.128,1.898,5.708c1.339,2.366,3.519,4.83,6.306,6.254        c1.616,0.826,3.458,1.309,5.427,1.245c1.268-0.039,2.241-1.096,2.192-2.344c-0.039-1.269-1.076-2.231-2.345-2.192        c-3.4,0.122-6.246-2.733-7.634-5.201c-0.939-1.601-1.51-3.625-1.332-5.419c0.079-0.953,0.361-1.853,0.936-2.579        c1.765-2.257,5.274-2.196,7.666-1.84c0.871,0.14,1.6,0.308,2.046,0.434c5.273,1.396,10.101,3.863,15.212,6.474        c2.879,1.446,5.828,2.953,8.86,4.248c7.54,3.242,18.493,6.036,27.769,1.045c3.996-2.136,7.568-5.737,10.574-10.671        c5.652-9.314,6.674-19.441,2.683-27.085c-2.325-4.474-6.583-8.255-12.057-11.103c-3.515-1.746-7.248-2.965-11.078-3.598        c-5.055-0.876-10.281-0.77-15.353,0.383c-1.23,0.263-1.981,1.484-1.718,2.714c0.273,1.21,1.484,1.981,2.714,1.718        c3.802-0.86,7.841-1.037,11.764-0.586c4.064,0.472,8.031,1.633,11.627,3.42c3.343,1.683,7.701,4.572,10.075,9.148        c3.821,7.328,1.194,16.507-2.542,22.622c-2.574,4.238-5.553,7.276-8.825,9.043c-7.716,4.133-17.211,1.624-23.841-1.204        c-2.901-1.253-5.789-2.729-8.587-4.134c-4.424-2.261-8.949-4.573-13.805-6.137c-0.759-0.26-1.518-0.47-2.297-0.69        c-6.397-1.69-11.672-0.589-14.484,3.018C414.775,321.983,414.356,324.597,414.628,327.105z"/>
					</g>
					<path style="fill:#330214;" d="M456.397,280.864c-1.23,0.263-1.981,1.484-1.718,2.714c0.273,1.21,1.484,1.981,2.714,1.718       c3.802-0.86,7.841-1.037,11.764-0.586c1.078-1.411,1.983-2.834,2.594-4.228C466.696,279.605,461.47,279.711,456.397,280.864z"/>
					<path style="fill:#330214;" d="M414.628,327.105c1.537-0.616,3.014-1.262,4.512-1.949c0.079-0.953,0.361-1.853,0.936-2.579       c1.765-2.257,5.274-2.196,7.666-1.84c0.663-0.349,1.315-0.729,1.968-1.109c1.193-0.689,2.376-1.409,3.549-2.16       c-0.759-0.26-1.518-0.47-2.297-0.69c-6.397-1.69-11.672-0.589-14.484,3.018C414.775,321.983,414.356,324.597,414.628,327.105z"/>
				</g>
				<path style="fill:#FFC279;" d="M316.319,186.808l151.63,77.487c0,0-37.115,96.811-122.213,53.323      C284.362,286.255,299.187,220.332,316.319,186.808z"/>
			</g>
			<path style="fill:#330214;" d="M347.604,326.337c-0.044,0-0.089-0.01-0.128-0.031l-10.315-5.271     c-0.14-0.071-0.195-0.243-0.124-0.382c0.073-0.14,0.253-0.189,0.381-0.123l10.315,5.271c0.14,0.071,0.195,0.243,0.124,0.381     C347.806,326.281,347.706,326.337,347.604,326.337z"/>
			<path style="fill:#330214;" d="M341.543,338.199c-0.044,0-0.089-0.01-0.129-0.031l-10.317-5.271     c-0.14-0.071-0.195-0.243-0.124-0.381c0.073-0.142,0.25-0.192,0.381-0.124l10.317,5.271c0.14,0.071,0.195,0.243,0.124,0.381     C341.745,338.143,341.645,338.199,341.543,338.199z"/>
			<path style="fill:#330214;" d="M320.05,411.014c-0.044,0-0.089-0.01-0.129-0.031l-36.274-18.537     c-0.066-0.034-0.117-0.094-0.142-0.165c-0.022-0.072-0.016-0.15,0.018-0.216l14.497-28.367c0.075-0.14,0.253-0.191,0.381-0.123     l36.274,18.537c0.066,0.034,0.117,0.094,0.142,0.165c0.022,0.072,0.016,0.15-0.018,0.216l-14.497,28.367     C320.252,410.957,320.152,411.014,320.05,411.014z M284.157,392.071l35.769,18.279l14.24-27.862l-35.769-18.279L284.157,392.071z     "/>
			
				<rect x="268.658" y="398.894" transform="matrix(0.8905 0.4551 -0.4551 0.8905 215.9463 -93.2506)" style="fill:#CB6BE5;" width="66.028" height="6.082"/>
			<g>
				<path style="fill:#FFECDF;" d="M447.151,276.199c-0.016,1.328,0.461,2.714,1.494,3.55c1.392,1.126,3.5,0.997,5.047,0.098      c3.952-2.296,7.717-10.018,2.414-12.916C451.137,264.216,447.199,272.177,447.151,276.199z"/>
				<path style="fill:#FFECDF;" d="M445.901,283.032c-1.049,0.05-2.123,0.257-2.995,0.843c-1.776,1.192-2.204,3.972-0.869,5.643      c1.335,1.671,4.141,1.867,5.695,0.399c1.555-1.469,1.518-4.282-0.075-5.709"/>
			</g>
		</g>
		<g>
			<polygon style="fill:#FFECDF;" points="42.422,147.251 54.365,124.887 55.998,149.32 77.131,155.681 58.265,165.073      59.341,189.009 44.622,166.29 22.396,183.242 34.338,161.188 18.487,148.017    "/>
			<polygon style="fill:#FFECDF;" points="249.922,417.79 256.514,391.105 268.342,413.817 287.948,412.978 273.087,427.921      281.777,450.25 260.554,433.447 244.932,456.627 249.177,431.909 229.941,424.512    "/>
			<polygon style="fill:#FFECDF;" points="364.802,157.452 380.871,138.227 377.567,163.62 394.122,174.156 373.383,177.902      367.726,201.184 358.252,180.693 333.865,185.32 351.495,167.484 339.958,150.406    "/>
			<path style="fill:#FFECDF;" d="M33.785,218.2c-1.136,3.388-4.803,5.214-8.192,4.079c-3.388-1.136-5.214-4.803-4.078-8.192     c1.136-3.388,4.803-5.214,8.192-4.079C33.094,211.145,34.92,214.812,33.785,218.2z"/>
			<path style="fill:#FFECDF;" d="M379.127,361.558c-1.136,3.388-4.803,5.214-8.192,4.079c-3.388-1.136-5.214-4.803-4.079-8.192     c1.136-3.388,4.803-5.214,8.192-4.079C378.437,354.502,380.262,358.17,379.127,361.558z"/>
			<path style="fill:#FFECDF;" d="M298.472,310.593c-1.136,3.388-4.803,5.214-8.192,4.079c-3.388-1.136-5.214-4.803-4.079-8.192     c1.136-3.388,4.803-5.214,8.192-4.079C297.782,303.537,299.608,307.204,298.472,310.593z"/>
			<path style="fill:#FFECDF;" d="M305.066,146.648c-1.136,3.388-4.803,5.214-8.192,4.078c-3.388-1.136-5.214-4.803-4.079-8.192     c1.136-3.388,4.803-5.214,8.192-4.079C304.376,139.592,306.202,143.259,305.066,146.648z"/>
			<path style="fill:#FFECDF;" d="M429.436,220.301c-1.136,3.388-4.803,5.214-8.192,4.079c-3.388-1.136-5.214-4.803-4.079-8.192     c1.136-3.388,4.803-5.214,8.192-4.079C428.746,213.246,430.572,216.913,429.436,220.301z"/>
		</g>
	</g>
</g>















</svg>
