<?xml version="1.0" encoding="UTF-8"?>
<!-- Generator: Adobe Illustrator 25.2.1, SVG Export Plug-In . SVG Version: 6.00 Build 0)  -->
<svg xmlns="http://www.w3.org/2000/svg" xmlns:xlink="http://www.w3.org/1999/xlink" version="1.1" id="Capa_1" x="0px" y="0px" viewBox="0 0 512 512" style="enable-background:new 0 0 512 512;" xml:space="preserve" width="512" height="512">
<g>
	<path style="fill:#FAF9EF;" d="M510.826,181.809c-2.6-6.317-9.009-10.214-15.807-9.609l-87.723,7.734   c-4.035,0.356-7.663,2.246-10.247,5.127c-0.414-0.583-0.85-1.141-1.276-1.709c9.002-3.85,16.462-11.327,20.756-18.767   c8.464-14.66,10.334-30.365,11.528-45.201c0.46-5.74-1.415-11.207-5.28-15.394c-3.919-4.244-9.494-6.678-15.292-6.678   c-5.335,0-10.154,2.094-13.664,5.547c-0.222-0.4-0.457-0.791-0.706-1.178c-3.743-5.783-10.356-9.376-17.259-9.376   c-0.946,0-1.876,0.072-2.789,0.2c-3.794-5.33-10.057-8.614-16.739-8.614c-2.291,0-4.521,0.39-6.611,1.125   c-5.063-1.998-10.482-3.05-15.957-3.05c-7.606,0-14.752,2.107-20.827,5.978c-3.664-3.402-8.585-5.425-14.037-5.425   c-6.062,0-11.689,2.583-15.436,7.085c-0.825,0.991-1.537,2.056-2.136,3.177c-0.377-0.456-0.775-0.896-1.195-1.32   c-3.669-3.696-8.647-5.732-14.014-5.732c-11.471,0-20.519,8.898-20.597,20.251c-0.031,4.243-0.072,10.138,0.788,16.675   c-0.834,0.285-1.634,0.639-2.41,1.03c-6.667-16.024-20.748-25.963-37.73-25.963c-2.998,0-6.075,0.319-9.143,0.951   c-3.456,0.711-6.656,1.815-9.614,3.233c-0.34-0.424-0.683-0.847-1.06-1.248c-3.928-4.176-9.472-6.572-15.212-6.572   c-10.391,0-18.707,7.845-19.345,18.244l-0.586,9.487c-1.289-1.456-2.572-2.913-3.841-4.365c-3.872-4.425-9.435-6.963-15.262-6.963   c-0.899,0-1.783,0.079-2.659,0.191c-3.666-3.989-8.821-6.385-14.506-6.385c-6.755,0-13.065,3.275-16.878,8.761   c-2.167,3.115-3.349,6.666-3.504,10.318c-6.073,3.398-11.188,8.598-14.742,15.231c-1.297,2.421-2.269,4.908-2.96,7.433   c-3.052-2.016-6.626-3.153-10.436-3.153c-7.11,0-13.832,3.921-17.544,10.231c-3.699,6.286-3.791,13.851-0.242,20.238l27.062,48.689   c3.506,6.307,9.799,10.073,16.834,10.074h0.002c0.407,0,0.814-0.013,1.224-0.039c1.934-0.021,3.847-0.339,5.692-0.913   c-1.839,8.971-2.559,18.665-2.045,28.958c0.581,11.566,2.658,23.094,6.099,34.152c2.062,6.6,4.582,13.066,7.541,19.349   l-12.103-5.805c-3.43-1.644-7.345-1.98-11.005-0.944l-62.925,17.824c-5.873,1.664-10.239,6.6-11.17,12.634   c-0.656,4.245,0.472,8.485,2.974,11.796c-1.468,0.536-2.935,1.071-4.403,1.606c-8.747,3.186-13.725,11.814-12.107,20.984   c1.622,9.184,9.439,15.849,18.589,15.85c2.223,0,4.431-0.393,6.561-1.168c1.818-0.663,3.638-1.326,5.457-1.991   c0.033,4.522,2.034,8.878,5.592,11.854c4.488,3.757,10.711,4.685,16.1,2.404l58.514-24.77c3.935-1.666,7.014-4.87,8.521-8.867   l5.96-15.808c2.175-0.818,4.351-1.636,6.524-2.456c32.987,40.038,83.026,63.136,132.677,82.067   c0.248,0.101,0.496,0.195,0.749,0.283c0.917,0.329,1.853,0.567,2.796,0.717c0.823,0.134,1.668,0.204,2.526,0.204   c3.591,0,6.896-1.212,9.533-3.248c21.534-12.966,42.772-26.73,62.176-42.738c6.881-5.675,13.353-11.511,19.369-17.481l0.174-0.171   c6.304-6.277,12.135-12.774,17.35-19.346l0.296-0.375c19.319-24.479,30.957-51.33,34.592-79.808   c0.729-5.717,1.097-11.521,1.102-17.307c1.409,3.109,3.83,5.742,6.986,7.393c5.581,2.916,12.359,2.2,17.202-1.821l66.712-55.374   C511.614,195.397,513.423,188.125,510.826,181.809z"/>
	<g>
		<g>
			<path style="fill:#B22D51;" d="M344.362,169.889c-40.776-5.533-73.618,24.608-89.968,59.232     c-22.156-31.229-59.766-55.158-98.945-42.576c-43.757,14.052-49.011,64.8-37.05,103.076     c21.474,68.721,89.62,100.877,152.233,124.731c0,0,0.067,0.055,0.096,0.037c0.032,0.012,0.064,0.025,0.097,0.037l-0.008-0.091     c57.474-34.442,118.942-78.025,128.06-149.443C403.955,225.114,389.902,176.068,344.362,169.889z"/>
		</g>
		<polygon style="fill:#F49B58;" points="115.079,332.872 92.19,321.891 29.263,339.715 53.075,355.405 46.518,384.291     105.032,359.522   "/>
		<g>
			<g>
				<g>
					<path style="fill:#662434;" d="M234.614,282.843c1.431-0.126,2.003-6.902,1.277-15.135c-0.726-8.232-2.474-14.804-3.906-14.677       c-1.431,0.126-2.003,6.902-1.277,15.135C231.434,276.397,233.183,282.969,234.614,282.843z"/>
				</g>
				<g>
					<path style="fill:#662434;" d="M287.137,278.212c1.431-0.126,2.003-6.902,1.277-15.135c-0.726-8.232-2.475-14.804-3.906-14.678       c-1.431,0.126-2.003,6.902-1.277,15.135C283.958,271.766,285.706,278.338,287.137,278.212z"/>
				</g>
			</g>
			<g>
				<path style="fill:#662434;" d="M303.654,263.052c-0.935-0.103-0.995,6.89-6.233,16.052c-2.551,4.561-6.565,9.441-11.915,13.726      c-2.731,2.064-5.741,4.05-9.113,5.602c-3.374,1.53-7.028,2.726-10.875,3.42c-7.729,1.263-15.377,0.31-21.874-1.862      c-6.502-2.208-11.932-5.442-15.915-8.833c-8.099-6.776-10.648-13.272-11.483-12.85c-0.291,0.116-0.005,1.847,1.263,4.728      c1.228,2.897,3.728,6.815,7.742,10.842c3.994,4.038,9.715,7.94,16.792,10.632c7.062,2.654,15.598,3.908,24.346,2.473      c4.352-0.78,8.457-2.167,12.196-3.948c3.737-1.803,7.025-4.096,9.951-6.489c5.742-4.945,9.809-10.566,12.152-15.748      c2.368-5.176,3.336-9.728,3.457-12.874C304.316,264.778,303.966,263.057,303.654,263.052z"/>
			</g>
		</g>
		<g>
			<path style="fill:#172B5C;" d="M173.93,306.948c-51.923,19.849-103.946,39.431-156.18,58.451     c-4.091,1.49-1.738,7.826,2.362,6.333c52.496-19.115,104.78-38.797,156.962-58.748     C176.116,310.918,175.095,308.892,173.93,306.948z"/>
			<path style="fill:#172B5C;" d="M446.935,201.361c-26.147,10.069-52.271,20.202-78.395,30.335     c0.688,0.944,1.233,1.959,1.657,3.029c0.79,0.837,1.4,1.799,1.763,2.896c25.771-9.998,51.542-19.995,77.336-29.928     C453.355,206.131,451.01,199.792,446.935,201.361z"/>
		</g>
		<g>
			<path style="fill:#662434;" d="M177.178,327.666c0.48,0.109,1.449-1.659,1.819-4.839c0.383-3.154-0.075-7.706-2.105-12.191     c-2.045-4.478-5.175-7.815-7.803-9.6c-2.64-1.812-4.609-2.243-4.842-1.81c-0.288,0.504,1.112,1.76,3.026,3.887     c1.926,2.119,4.281,5.242,6.068,9.138c1.762,3.907,2.567,7.735,2.898,10.579C176.582,325.672,176.609,327.552,177.178,327.666z"/>
		</g>
		<g>
			<path style="fill:#662434;" d="M372.634,249.091c0.438,0.206,1.683-1.126,2.445-3.895c0.775-2.734,0.749-6.895-0.964-10.952     c-1.723-4.053-4.693-6.966-7.197-8.311c-2.519-1.379-4.342-1.411-4.499-0.953c-0.21,0.546,1.134,1.483,2.866,3.178     c1.747,1.682,3.808,4.278,5.237,7.609c1.4,3.343,1.83,6.63,1.823,9.055C372.358,247.244,372.095,248.862,372.634,249.091z"/>
		</g>
		<polygon style="fill:#F49B58;" points="432.455,210.816 408.669,195.483 496.392,187.748 429.678,243.122   "/>
		<g>
			<g>
				<path style="fill:#662434;" d="M115.142,192.92c-6.784,4.304-13.569,8.607-20.353,12.911      c-8.388-15.091-16.775-30.183-25.163-45.274c-2.818-5.07-10.147,0.181-7.35,5.213c9.021,16.23,18.042,32.461,27.062,48.691      c0.952,1.712,2.417,2.228,3.834,1.992c0.901,0.079,1.864-0.121,2.817-0.726c8.122-5.152,16.245-10.305,24.367-15.457      C125.262,197.157,120.039,189.813,115.142,192.92z"/>
				<path style="fill:#662434;" d="M125.745,139.32c-1.284-0.997-2.617-1.819-3.975-2.506c-0.096-4.794-1.208-9.64-2.857-14.078      c-2.021-5.439-10.47-2.307-8.444,3.149c1.052,2.831,1.829,5.693,2.143,8.57c-7.63-0.195-14.945,3.876-19.042,11.52      c-6.855,12.792,2.113,29.593,11.173,38.854c0.218,0.28,0.471,0.552,0.784,0.806c0.314,0.306,0.639,0.531,0.966,0.718      c11.533,8.67,26.096,7.648,33.828-5.546C148.547,166.774,136.699,147.829,125.745,139.32z M111.636,143.822      c-0.075,0.217-0.123,0.435-0.206,0.652c-1.844,4.798-5.928,7.688-10.589,7.949C102.034,147.042,106.386,143.911,111.636,143.822      z M111.315,178.731c-4.974-4.844-8.336-10.596-9.928-17.18c6.304-0.356,12.079-3.829,15.931-9.194      c1.351-1.882,2.34-3.894,3.053-5.979c7.164,4.473,12.002,14.335,13.242,22.087C135.901,182.775,120.49,186.173,111.315,178.731z      "/>
				<path style="fill:#662434;" d="M167.369,113.288c-0.958,15.567-1.916,31.133-2.874,46.7      c-9.613-10.764-19.374-21.397-28.878-32.259c-3.784-4.325-11.183,0.832-7.35,5.213c11.978,13.69,24.377,27.005,36.355,40.695      c0.831,0.95,1.837,1.421,2.859,1.565c2.139,0.636,4.525-0.071,5.112-2.523c0.442-0.827,0.579-1.776,0.254-2.75      c1.129-18.339,2.257-36.678,3.386-55.018C176.586,109.176,167.725,107.505,167.369,113.288z"/>
				<path style="fill:#662434;" d="M225.717,152.241c-0.338,10.985-6.781,20.363-18.008,22.254      c-11.604,1.954-18.411-9.164-21.256-18.505c-0.787-2.584-1.167-5.259-1.18-7.929c14.213-1.888,28.425-3.777,42.638-5.665      c3.63-0.482,4.652-4.245,3.46-6.756c-3.402-15.018-15.183-24.974-31.202-21.68c-17.243,3.545-24.883,22.66-23.495,38.478      c1.28,14.585,12.386,31.689,28.687,31.139c17.959-0.606,28.806-14.97,29.333-32.126      C234.87,145.65,225.893,146.508,225.717,152.241z M195.051,126.157c10.221-8.784,22.463-2.646,26.58,7.993      c-11.627,1.545-23.255,3.09-34.882,4.635C188.337,133.937,191.158,129.503,195.051,126.157z"/>
			</g>
			<g>
				<path style="fill:#F49B58;" d="M360.56,105.776c2.701-5.165-5.466-8.976-8.149-3.846c-0.339,0.648-0.689,1.28-1.051,1.898      c-9.621-7.772-24.818-9.044-33.977,0.452c-10.995,11.4-11.327,34.111-2.781,47.167c9.316,14.232,26.224,14.114,37.952,2.88      c11.052-10.586,11.797-29.95,4.679-43.116C358.498,109.42,359.617,107.579,360.56,105.776z M345.606,110.832      c-1.328,1.11-2.798,2.088-4.488,2.874c-6.001,2.789-12.35,0.35-14.721-5.314C332.264,104.88,340.219,106.73,345.606,110.832z       M349.517,142.959c-6.244,13.998-23.371,13.666-29.109-0.181c-3.247-7.835-3.77-18.609-0.189-26.735      c3.634,4.997,9.716,7.499,16.338,7.762c5.371,0.213,10.149-2.03,14.166-5.396C353.873,126.184,353.091,134.945,349.517,142.959z      "/>
				<path style="fill:#F49B58;" d="M403.633,116.517c-1.125,14.009-2.256,28.809-11.638,40.038      c-5.908,7.071-15.286,6.055-17.613-4.662c-0.7-3.225-0.602-6.705-0.649-9.981c-0.135-9.533,2.647-19.016,6.512-27.617      c2.384-5.305-5.768-9.145-8.149-3.846c-7.359,16.378-16.003,51.94,7.304,59.358c9.37,2.982,19.361-5.664,23.611-13.026      c6.876-11.911,8.403-25.153,9.486-38.641C412.959,112.396,404.098,110.735,403.633,116.517z"/>
				<path style="fill:#F49B58;" d="M303.719,102.016c-1.047-5.661-10.031-4.922-8.975,0.791c2.192,11.856,2.423,23.753,0.252,35.425      c-6.255,5.952-15.332,1.714-20.079-5.04c-5.478-7.794-4.883-18.844-4.818-27.891c0.041-5.81-8.934-4.965-8.975,0.791      c-0.104,14.61,1.041,29.74,13.18,39.594c5.005,4.064,11.71,5.324,17.757,3.947c-0.033,0.098-0.055,0.198-0.088,0.297      c-2.381,7.122-6.617,13.822-14.512,15.47c-13.258,2.766-20.256-12.267-19.627-22.974c0.337-5.732-8.525-7.405-8.864-1.623      c-0.67,11.412,2.326,21.386,11.401,28.795c6.71,5.478,18.432,6.805,25.908,2.21c10.437-6.415,15.766-18.14,18.042-30.95      c0.31-0.726,0.404-1.457,0.346-2.162C306.578,125.955,305.637,112.388,303.719,102.016z"/>
			</g>
		</g>
	</g>
</g>















</svg>
