<?xml version="1.0" encoding="UTF-8"?>
<!-- Generator: Adobe Illustrator 25.2.1, SVG Export Plug-In . SVG Version: 6.00 Build 0)  -->
<svg xmlns="http://www.w3.org/2000/svg" xmlns:xlink="http://www.w3.org/1999/xlink" version="1.1" id="Capa_1" x="0px" y="0px" viewBox="0 0 512 512" style="enable-background:new 0 0 512 512;" xml:space="preserve" width="512" height="512">
<g>
	<path style="fill:#FAF9EF;" d="M478.65,104.823c-2.987-5.868-8.909-9.582-15.559-9.806c-3.272-5.308-8.923-8.685-15.391-8.685   c-5.403,0-10.443,2.454-13.949,6.555c-0.989-0.16-1.992-0.241-3.004-0.241c-5.968,0-11.522,2.927-14.861,7.829   c-0.776,1.139-1.412,2.356-1.904,3.626l-13.084,0.155c1.683-1.198,3.136-2.726,4.222-4.546c2.374-3.976,2.795-8.821,1.141-13.145   l-8.382-21.91c-1.6-4.18-4.969-7.437-9.201-8.891c-4.235-1.454-8.894-0.956-12.724,1.356l-46.368,28.01l29.139-48.455   c2.407-4.002,2.827-8.894,1.138-13.248c-1.686-4.355-5.295-7.685-9.771-9.019l-24.002-7.157c-4.303-1.284-8.961-0.584-12.703,1.91   c-3.739,2.495-6.174,6.525-6.642,10.995l-5.843,55.767l-6.31-2.841l1.518-48.588c0.15-4.733-1.931-9.262-5.616-12.234   c-3.687-2.974-8.55-4.048-13.145-2.899l-23.485,5.861c-4.425,1.105-8.116,4.15-10.04,8.286s-1.878,8.921,0.129,13.018l8.636,17.642   l-51.616-23.241c-2.871-1.292-6.056-1.646-9.107-1.051c-1.387-3.374-3.763-6.216-6.822-8.23c-0.008-3.487-0.966-6.893-2.854-9.849   c-3.309-5.176-8.984-8.266-15.18-8.266c-1.984,0-3.944,0.314-5.831,0.927C157.917,1.625,153.771,0,149.306,0   c-8.995,0-16.432,6.463-18.084,15.72c-1.012,5.672,0.164,10.809,0.942,14.208l0.099,0.437c0.487,2.143,1.039,4.466,1.762,6.895   c-14.36,28.579-11.214,62.681,7.895,88.013l-27.505,61.088c-13.652,30.317-5.496,65.39,18.652,86.672L86.209,377.103   c-7.169-2.673-16.118-5.044-25.283-5.044c-8.255,0-15.679,1.901-22.066,5.65c-4.874,2.862-7.743,8.202-7.439,13.845   c0.306,5.643,3.733,10.645,8.885,12.964l96.146,43.292c2.011,0.904,4.058,1.37,6.286,1.332c8.327-0.021,15.07-6.779,15.07-15.11   c0-1.52-0.223-2.987-0.641-4.372c-4.032-17.068-18.772-28.104-30.608-34.409l46.855-104.059c3.017,0.371,6.056,0.559,9.107,0.559   c29.352,0,56.102-17.286,68.148-44.038l8.607-19.115c7.833,0.675,15.69,0.407,23.376-0.782l0.653,55.114   c0.394,33.247,22.568,61.621,53.434,70.747l1.351,114.13c-19.505,1.503-34.495,8.645-42.687,20.492   c-3.213,4.648-3.565,10.7-0.911,15.69c2.624,4.937,7.757,8.015,13.339,8.015c0.059,0,0.118,0,0.179-0.002l105.434-1.248   c5.649-0.065,10.791-3.28,13.327-8.331c2.534-5.051,2.038-11.092-1.286-15.665c-10.468-14.396-28.319-18.692-43.157-19.474   l-1.351-114.132c30.642-9.853,52.139-38.743,51.743-71.99l-1.041-88.062c18.026-13.373,29.47-33.06,32.398-55.772   c4.85-3.573,9.149-7.873,12.661-12.699C481.089,118.644,481.822,111.055,478.65,104.823z"/>
	<g>
		<g>
			<path style="fill:#172B5C;" d="M169.516,123.464c-24.502-20.162-30.038-53.29-14.474-80.311     c6.904,0.598,13.95-0.459,20.362-3.092c4.044-1.661,3.352-5.994-0.719-6.509c-2.823-0.357-5.895,0.58-8.587,1.337     c-1.988,0.558-3.919,1.155-5.817,1.82c3.791-3.703,6.928-8.076,9.153-12.886c1.835-3.968-1.618-6.673-4.953-4.283     c-2.313,1.658-3.927,4.434-5.387,6.819c-1.467,2.397-2.848,4.76-4.022,7.229c0.129-5.293-0.675-10.609-2.437-15.602     c-1.454-4.122-5.816-3.65-6.537,0.389c-0.5,2.802,0.281,5.917,0.9,8.644c0.914,4.025,1.902,7.873,3.581,11.575     c-18.336,29.583-12.125,67.328,14.872,89.542C168.535,130.672,172.599,126.001,169.516,123.464z"/>
			<path style="fill:#172B5C;" d="M304.608,190.148c3.941,0.41,5.125-5.669,1.152-6.083c-23.742-2.472-41.803-19.422-45.018-43.172     c-0.533-3.935-6.709-3.462-6.171,0.506C258.135,167.731,278.073,187.386,304.608,190.148z"/>
			<path style="fill:#172B5C;" d="M308.217,196.141c-21.359,13.193-47.325,15.243-70.478,5.521c-3.67-1.541-6.408,4.014-2.728,5.559     c25.271,10.612,53.368,8.443,76.692-5.964C315.107,199.154,311.606,194.048,308.217,196.141z"/>
			<path style="fill:#172B5C;" d="M460.491,110.571c-2.591,1.176-4.715,3.585-6.61,5.641c-1.4,1.518-2.731,3.038-3.999,4.6     c1.286-5.141,1.664-10.51,1.036-15.772c-0.518-4.341-4.877-4.834-6.464-1.049c-1.1,2.624-1.019,5.835-1.011,8.631     c0.008,2.81,0.071,5.547,0.366,8.264c-2.666-4.574-6.138-8.679-10.257-12.007c-3.4-2.747-6.866-0.059-5.362,3.759     c1.044,2.647,3.342,4.89,5.299,6.888c3.142,3.206,6.279,6.161,10.048,8.535c-0.637,25.519-15.783,46.986-39.536,56.255     c-3.709,1.447-1.656,7.289,2.075,5.834c26.197-10.222,42.508-33.63,43.576-61.553c5.838-3.098,10.976-7.515,14.865-12.86     C467.089,112.201,464.228,108.875,460.491,110.571z"/>
		</g>
		<path style="fill:#CBEBEF;" d="M194.77,44.704l-66.577,147.861c-12.541,27.852-1.917,60.231,23.658,75.554l-56.38,125.215    c-0.943,2.095-3.439,2.964-5.487,1.923c-6.44-3.274-20.21-9.242-32.811-7.897c-4.042,0.431-4.873,5.985-1.167,7.654l35.921,16.174    l5.309,2.391l35.921,16.174c3.706,1.669,7.313-2.635,4.957-5.947c-7.345-10.326-20.941-16.68-27.662-19.332    c-2.137-0.843-3.14-3.289-2.197-5.383l56.381-125.215c28.427,8.992,59.712-4.517,72.253-32.369l66.577-147.861L194.77,44.704z"/>
		<path style="fill:#CBEBEF;" d="M367.398,482.776l-1.676-141.64c29.569-3.822,52.25-29.255,51.889-59.797l-1.919-162.147    l-119.198,1.411l1.919,162.147c0.362,30.542,23.638,55.431,53.289,58.553l1.676,141.64c0,0-33.334-3.714-45.548,13.948    l49.806-0.589l5.822-0.069l49.806-0.589C400.635,478.274,367.398,482.776,367.398,482.776z"/>
		<g>
			<path style="fill:#D8874B;" d="M169.84,138.111c5.969-5.745,14.395-8.135,22.588-9.362c24.642-3.691,50.528,1.591,71.755,14.639     c-18.647,11.812-41.59,16.67-63.424,13.43c-6.003-0.891-11.983-2.396-17.343-5.243c-5.36-2.847-10.088-7.125-12.735-12.586"/>
		</g>
		<path style="fill:#F49B58;" d="M224.711,150.495c-18.367-0.115-38.621-3.03-54.851-12.403l-21.897,48.63    c-9.971,22.146-0.102,48.182,22.043,58.153h0c22.146,9.971,48.182,0.102,58.153-22.043l35.732-79.357    C251.443,148.292,237.879,150.577,224.711,150.495z"/>
		<g>
			<path style="fill:#D8874B;" d="M313.239,215.817c2.993-7.725,9.627-13.442,16.541-18.008     c20.793-13.729,46.495-19.846,71.243-16.956c-11.934,18.569-30.695,32.641-51.861,38.902c-5.82,1.721-11.877,2.876-17.937,2.553     c-6.06-0.324-12.151-2.211-16.853-6.049"/>
		</g>
		<path style="fill:#F49B58;" d="M368.219,203.929c-16.705,7.634-36.302,13.525-54.971,11.862l0.631,53.329    c0.287,24.285,20.207,43.74,44.493,43.452l0,0c24.285-0.287,43.74-20.208,43.452-44.493l-1.03-87.025    C391.535,190.668,380.196,198.456,368.219,203.929z"/>
		<g>
			<g>
				<g>
					<path style="fill:#172B5C;" d="M222.667,100.798c0.9,0.405,3.341-3.065,5.451-7.751c2.11-4.686,3.091-8.814,2.191-9.219       c-0.9-0.405-3.341,3.065-5.451,7.751C222.747,96.265,221.767,100.393,222.667,100.798z"/>
				</g>
				<g>
					<path style="fill:#172B5C;" d="M242.975,109.942c0.9,0.406,3.341-3.065,5.451-7.751c2.11-4.686,3.091-8.814,2.191-9.219       c-0.9-0.405-3.341,3.065-5.451,7.751C243.056,105.41,242.075,109.537,242.975,109.942z"/>
				</g>
			</g>
			<g>
				<path style="fill:#172B5C;" d="M261.74,107.248c-0.513-0.363-2.772,3.425-8.454,6.901c-2.803,1.739-6.482,3.275-10.745,3.981      c-4.246,0.717-9.093,0.467-13.683-1.248c-4.556-1.804-8.321-4.868-10.99-8.247c-2.689-3.382-4.39-6.988-5.304-10.158      c-1.885-6.388-1.022-10.713-1.646-10.788c-0.216-0.043-0.676,0.97-1.036,2.936c-0.369,1.961-0.46,4.909,0.228,8.458      c0.674,3.544,2.286,7.655,5.141,11.553c2.829,3.888,7.04,7.498,12.322,9.582c5.317,1.995,10.861,2.139,15.567,1.151      c4.733-0.978,8.685-2.947,11.561-5.125c2.889-2.172,4.798-4.421,5.839-6.123C261.591,108.421,261.929,107.36,261.74,107.248z"/>
			</g>
			<g>
				<g>
					<path style="fill:#172B5C;" d="M345.427,159.72c0.987-0.012,1.738-4.187,1.678-9.327c-0.061-5.139-0.911-9.296-1.898-9.284       c-0.987,0.012-1.738,4.187-1.677,9.326C343.59,155.575,344.44,159.732,345.427,159.72z"/>
				</g>
				<g>
					<path style="fill:#172B5C;" d="M367.697,159.456c0.987-0.012,1.738-4.187,1.677-9.327c-0.061-5.139-0.91-9.296-1.898-9.284       c-0.987,0.012-1.738,4.187-1.677,9.326C365.861,155.311,366.71,159.468,367.697,159.456z"/>
				</g>
			</g>
			<g>
				<path style="fill:#172B5C;" d="M383.58,149.106c-0.619-0.113-1.071,4.275-4.759,9.82c-1.81,2.758-4.499,5.701-8.068,8.138      c-3.549,2.44-8.05,4.255-12.936,4.633c-4.892,0.283-9.597-0.909-13.441-2.849c-3.864-1.934-6.925-4.488-9.09-6.977      c-4.401-4.999-5.44-9.285-6.038-9.09c-0.214,0.052-0.204,1.165,0.297,3.099c0.491,1.934,1.651,4.646,3.77,7.575      c2.104,2.93,5.298,5.979,9.531,8.311c4.204,2.334,9.544,3.834,15.213,3.499c5.662-0.431,10.751-2.636,14.603-5.515      c3.88-2.881,6.634-6.332,8.325-9.519c1.705-3.188,2.489-6.031,2.716-8.013C383.939,150.233,383.799,149.129,383.58,149.106z"/>
			</g>
		</g>
		<polygon style="fill:#172B5C;" points="345.777,28.886 321.775,21.729 315.802,78.73   "/>
		<polygon style="fill:#FA4677;" points="335.312,99.323 383.766,70.052 392.149,91.961   "/>
		<polygon style="fill:#FA4677;" points="281.01,24.02 257.525,29.882 279.429,74.628   "/>
	</g>
</g>















</svg>
