<?xml version="1.0" encoding="UTF-8"?>
<!-- Generator: Adobe Illustrator 25.2.1, SVG Export Plug-In . SVG Version: 6.00 Build 0)  -->
<svg xmlns="http://www.w3.org/2000/svg" xmlns:xlink="http://www.w3.org/1999/xlink" version="1.1" id="Capa_1" x="0px" y="0px" viewBox="0 0 512 512" style="enable-background:new 0 0 512 512;" xml:space="preserve" width="512" height="512">
<g>
	<path style="fill:#FAF9EF;" d="M455.331,291.384c0-16.542-2.794-33.045-8.17-48.648l42.089-12.602   c6.641-1.99,11.583-7.571,12.748-14.404l9.743-57.091c1.005-5.891-0.939-11.899-5.204-16.085l-44.345-43.525   c-3.626-3.558-8.539-5.46-13.651-5.201L388.835,96.7c-1.366,0.066-2.681,0.331-3.962,0.684c-5.61-20.194-23.747-34.24-46.572-34.24   c-5.807,0.012-11.274,1.24-16.335,3.303c-3.998-5.782-10.664-9.509-18.395-9.509l-15.557,0.069   c-7.254,0.031-13.585,3.38-17.613,8.645c-4.091-5.181-10.262-8.252-16.987-8.252c-0.946,0-1.887,0.08-2.824,0.201   c-4.028-3.594-9.367-5.696-15.214-5.696c-1.153,0-2.323,0.084-3.481,0.248l-16.226,2.309c-5.975,0.85-11.341,4.263-14.784,9.363   c-0.828-0.092-1.654-0.199-2.503-0.199c-8.819,0-16.819,5.108-20.453,12.746c-0.71,1.304-1.288,2.671-1.73,4.094l-1.799,5.827   c-1.606-2.119-3.183-4.222-4.738-6.316c-4.318-5.823-10.939-9.163-18.158-9.163c-4.12,0-8.206,1.126-11.756,3.207   c-7.951,4.065-12.526,12.46-11.557,21.663l0.351,3.349c-7.42-5.192-16.079-8.027-25.114-8.027c-11.16,0-22.376,4.352-31.58,12.256   c-5.239,4.498-9.467,10.579-12.358,17.547c-4.917-2.03-10.471-3.169-16.415-3.243c-0.077-0.001-0.382-0.003-0.456-0.003   c-15.878,0-28.05,10.07-35.824,17.641c-4.244,4.134-6.585,9.618-6.677,15.313c-0.476,4.515,0.471,9.139,2.784,13.219l32.442,57.256   c3.069,5.402,8.193,9.2,14.079,10.565c0.191,0.056,0.391,0.075,0.583,0.126c-14.488,22.984-22.909,50.159-22.909,79.278   c0,82.233,66.9,149.133,149.131,149.133c30.302,0,60.068-9.369,84.895-26.552c14.57,4.631,29.687,6.972,45.076,6.972   C388.431,440.514,455.331,373.614,455.331,291.384z"/>
	<g>
		<polygon style="fill:#89AFCB;" points="365.348,189.667 389.289,116.208 390.716,114.87 449.414,112.045 461.793,124.195     461.532,126.124 464.088,126.447 482.668,144.683 483.322,146.973 484.876,146.85 493.76,155.57 484.513,209.763 483.38,210.068     484.055,212.449 484.019,212.661 407.799,235.482   "/>
		<path style="fill:#B3D3DB;" d="M484.514,209.757c-6.225-6.044-13.367-13.072-21.114-20.796c1.146-1.562,3.016-4.525,5.288-8.601    c3.558-6.342,7.954-15.37,12.505-25.436c1.212-2.672,2.421-5.339,3.668-8.088l-2.228-2.187c-1.366,2.882-2.763,5.897-4.18,9.029    c-3.55,7.829-7.054,15.555-11.662,25.716c-1.86,4.021-3.297,7.085-4.046,8.914c-6.864-6.848-14.167-14.205-21.752-21.941    c-7.829-8.025-15.311-15.694-22.469-23.033c2.147-0.519,4.98-1.302,8.407-2.391c7.719-2.426,18.141-6.466,29.461-11.248    c2.635-1.113,5.202-2.197,7.696-3.248l-2.295-2.253c-2.149,0.879-4.333,1.783-6.566,2.726    c-11.321,4.782-21.531,9.099-29.01,12.018c-3.629,1.43-6.583,2.56-8.665,3.399c-8.255-8.462-16.065-16.468-23.39-23.976    c-1.206-1.226-2.333-2.365-3.447-3.492l-1.006,0.048l-0.421,1.291c1.074,1.17,2.163,2.354,3.333,3.621    c6.185,6.694,13.687,14.737,22.082,23.588c-0.06,0.088-0.126,0.187-0.192,0.286c-0.205,0.128-0.34,0.236-0.321,0.303    c0.005,0.018,0.072,0.017,0.098,0.028c-1.251,1.942-3.293,5.524-5.845,10.343c-4.031,7.608-9.279,18.29-14.592,30.308    c-4.01,9.082-7.478,17.617-10.191,24.744l1.858,2.006c3.967-9.136,7.458-17.177,11.086-25.534    c4.433-9.861,8.658-19.261,13.751-30.59c2.401-5.324,4.117-9.243,4.865-11.298c0.012-0.002,0.031-0.005,0.043-0.007    c7.271,7.66,15.187,15.9,23.581,24.467c7.442,7.59,14.659,14.78,21.486,21.45c-5.68,2.199-20.424,9.134-37.58,17.749    c-10.789,5.418-20.484,10.472-27.482,14.286l1.529,1.65c7.184-3.321,16.786-7.966,27.303-13.247    c17.465-8.77,32.059-16.584,36.966-19.721c8.434,8.227,16.239,15.622,22.986,21.803L484.514,209.757z"/>
		<path style="fill:#E08528;" d="M176.231,180.07c-72.29,0-130.892,58.602-130.892,130.892c0,72.29,58.602,130.892,130.892,130.892    c72.29,0,130.892-58.602,130.892-130.892C307.123,238.672,248.521,180.07,176.231,180.07z M176.231,404.261    c-51.528,0-93.299-41.771-93.299-93.299c0-51.528,41.771-93.299,93.299-93.299c51.527,0,93.299,41.771,93.299,93.299    C269.529,362.489,227.758,404.261,176.231,404.261z"/>
		<path style="fill:#F49B3E;" d="M306.199,160.491c-72.29,0-130.892,58.602-130.892,130.892c0,72.29,58.602,130.892,130.892,130.892    c72.29,0,130.892-58.602,130.892-130.892C437.092,219.093,378.489,160.491,306.199,160.491z M306.199,376.763    c-47.154,0-85.38-38.226-85.38-85.379c0-47.154,38.226-85.38,85.38-85.38c47.154,0,85.38,38.226,85.38,85.38    C391.579,338.537,353.353,376.763,306.199,376.763z"/>
		<g>
			<path style="fill:#172B42;" d="M58.19,166.995c4.902-6.494,6.881-14.271,1.961-23.039c-3.363-5.994-10.958-8.073-17.298-8.151     c-9.154-0.113-17.163,6.459-23.331,12.468c-1.068,1.04-1.324,2.252-1.081,3.357c-0.333,0.925-0.298,2.004,0.331,3.114     c10.811,19.079,21.621,38.159,32.432,57.238c0.703,1.241,1.749,1.797,2.829,1.883c0.668,0.292,1.439,0.42,2.304,0.282     c16.437-2.633,28.734-17.634,26.067-34.365C80.47,167.652,69.446,165.352,58.19,166.995z M54.741,150.744     c3.769,10.383-8.144,18.166-16.338,22.789c-3.976-7.017-7.952-14.034-11.927-21.05C34.047,145.833,49.709,136.881,54.741,150.744     z M56.813,206.025c-4.847-8.554-9.694-17.108-14.541-25.662c9.568-5.386,28.59-11.756,32.593,1.498     C78.321,193.296,66.845,203.209,56.813,206.025z"/>
			<path style="fill:#172B42;" d="M126.037,135.766c12.232,18.252-9.178,42.978-29.073,33.582     c-8.392-3.963-13.017-13.01-14.391-22.145c13.122-6.543,26.244-13.086,39.365-19.629c0.405-0.202,0.724-0.447,1.007-0.708     c2.423-0.724,4.211-3.225,2.316-5.809c-10.653-14.525-28.171-15.426-41.53-3.957c-14.036,12.051-12.595,36.733-1.582,50.129     c11.264,13.701,28.016,16.778,42.538,6.12c13.172-9.667,17.782-28.066,8.574-41.806     C130.274,127.088,123.024,131.27,126.037,135.766z M114.767,121.821c-10.827,5.398-21.653,10.797-32.48,16.195     c0.046-0.496,0.087-0.995,0.154-1.479C84.595,120.92,103.003,111.768,114.767,121.821z"/>
			<path style="fill:#172B42;" d="M224.095,153.619c-1.156,0.189-2.311,0.377-3.467,0.566c-0.004-0.018-0.002-0.035-0.006-0.053     c-4.786-23.472-10.867-46.576-18.257-69.362c-1.371-4.229-7.128-3.451-8.129-0.142c-0.245,0.354-0.462,0.746-0.609,1.222     c-4.005,12.969-8.01,25.938-12.016,38.907c-9.133-11.093-18.035-22.365-26.596-33.91c-1.737-2.342-4.69-2.148-6.49-0.789     c-1.387,0.51-2.402,1.747-2.194,3.729c2.223,21.211,4.445,42.421,6.668,63.631c-1.42,0.172-2.843,0.325-4.274,0.447     c-5.333,0.456-5.378,8.825,0,8.366c6.953-0.594,13.83-1.663,20.623-3.261c5.25-1.235,3.023-9.301-2.224-8.067     c-1.96,0.461-3.925,0.86-5.895,1.231c-1.754-16.74-3.508-33.48-5.263-50.22c7.45,9.737,15.098,19.316,22.949,28.738     c0.453,3.848,6.85,4.994,8.244,0.481c3.668-11.876,7.335-23.752,11.003-35.628c5.571,18.457,10.331,37.118,14.212,56.026     c-2.057,0.336-4.115,0.671-6.172,1.007c-5.314,0.867-3.052,8.927,2.224,8.067c5.964-0.973,11.928-1.945,17.892-2.918     C231.633,160.819,229.371,152.758,224.095,153.619z"/>
			<path style="fill:#172B42;" d="M303.653,75.178c-5.188,0.023-10.376,0.046-15.563,0.068c-5.393,0.024-5.396,8.389,0,8.366     c1.23-0.006,2.461-0.011,3.691-0.016c-1.587,15.718-3.173,31.437-4.76,47.155c-11.337-16.959-21.476-34.603-30.423-52.977     c-1.008-2.07-2.898-2.474-4.554-1.892c-2.031,0.073-4,1.409-3.985,4.032c0.123,21.869,0.246,43.738,0.37,65.607     c0.001,0.114,0.026,0.21,0.033,0.319c-0.477,0.038-0.953,0.076-1.429,0.114c-5.34,0.426-5.381,8.794,0,8.366     c5.41-0.431,10.819-0.862,16.228-1.293c5.34-0.425,5.381-8.794,0-8.366c-2.156,0.172-4.313,0.344-6.469,0.516     c-0.092-16.392-0.185-32.784-0.277-49.176c8.628,16.252,18.212,31.93,28.794,47.041c0.154,0.22,0.326,0.404,0.499,0.582     c0.399,4.475,7.861,4.147,8.367-0.863c1.992-19.734,3.983-39.467,5.975-59.2c1.167-0.005,2.335-0.01,3.503-0.015     C309.047,83.519,309.049,75.154,303.653,75.178z"/>
			<path style="fill:#172B42;" d="M374.359,123.667c-5.641-1.502-11.282-3.003-16.923-4.505c-5.22-1.39-7.432,6.68-2.224,8.067     c1.029,0.274,2.057,0.548,3.085,0.821c-3.071,9.003-10.394,14.416-20.39,14.446c-12.816,0.038-20.702-12.587-21.907-23.819     c-0.525-4.89,0.457-9.624,2.505-13.857c14.551,3.3,29.102,6.601,43.653,9.901c0.826,0.187,1.568,0.129,2.23-0.075     c2.078-0.049,4.111-1.405,4.094-4.087c-0.108-17.425-12.964-29.21-30.14-29.174c-15.858,0.033-29.25,15.743-30.562,30.752     c-1.484,16.986,6.699,31.412,22.758,37.513c15.476,5.879,31.188-4.965,35.96-19.416c1.879,0.5,3.758,1,5.637,1.501     C377.355,133.123,379.567,125.053,374.359,123.667z M329.939,92.3c12.546-7.696,26.228,0.844,29.385,13.099     c-11.866-2.691-23.733-5.383-35.599-8.074C325.566,95.396,327.66,93.698,329.939,92.3z"/>
			<path style="fill:#172B42;" d="M220.463,80.587c0.942-0.134,1.884-0.268,2.826-0.402c1.949,18.318,3.898,36.637,5.846,54.955     c-1.056,0.136-2.112,0.271-3.174,0.376c-5.316,0.528-5.368,8.899,0,8.366c6.185-0.614,12.299-1.616,18.338-3.086     c5.24-1.275,3.017-9.342-2.224-8.066c-1.569,0.381-3.143,0.723-4.72,1.044c-1.942-18.254-3.884-36.507-5.826-54.761     c1.72-0.245,3.44-0.489,5.161-0.734c2.261-0.322,3.467-3.161,2.921-5.145c-0.661-2.405-2.89-3.243-5.145-2.922     c-5.409,0.77-10.818,1.54-16.227,2.309c-2.261,0.322-3.467,3.161-2.921,5.145C215.98,80.07,218.208,80.907,220.463,80.587z"/>
		</g>
	</g>
</g>















</svg>
