<?xml version="1.0" encoding="UTF-8"?>
<!-- Generator: Adobe Illustrator 25.2.1, SVG Export Plug-In . SVG Version: 6.00 Build 0)  -->
<svg xmlns="http://www.w3.org/2000/svg" xmlns:xlink="http://www.w3.org/1999/xlink" version="1.1" id="Capa_1" x="0px" y="0px" viewBox="0 0 512 512" style="enable-background:new 0 0 512 512;" xml:space="preserve" width="512" height="512">
<g>
	<path style="fill:#FAF9EF;" d="M428.567,130.235c-2.867-8.381-10.905-13.793-19.547-13.161c-3.243,0.237-6.424,1.338-9.201,3.182   c-2.344,1.555-3.675,1.293,0.757-1.849c7.06-5.005,9.842-13.83,6.92-21.961c-1.197-3.333-3.235-6.173-5.79-8.341   c0.889-3.698,0.612-7.646-0.978-11.355c-2.99-6.983-10.089-11.657-17.679-11.838c-2.435-4.935-5.751-9.371-9.756-12.903   c-6.592-5.816-14.777-8.848-23.215-8.757c2.332-6.044,1.548-12.704-2.201-17.961c-3.956-5.546-10.59-8.685-17.308-8.193   c-5.15,0.377-9.803,2.879-12.999,6.812c0.418-3.964-0.407-8.037-2.495-11.685c-3.724-6.505-10.784-10.367-17.99-9.84   c-5.528,0.404-10.566,3.339-13.821,8.053c-4.564,6.616-7.651,13.686-9.262,20.772c-6.709-16.263-21.806-27.237-38.75-27.095   c-6.38,0.053-12.387,1.478-17.811,3.937c-0.676-0.999-1.448-1.943-2.331-2.807c-3.784-3.7-9.087-5.592-14.555-5.192   c-9.899,0.725-17.745,8.666-18.248,18.474c-0.023,0.48-0.049,0.959-0.074,1.439l-0.296-0.417c-3.9-5.51-10.192-8.509-16.832-8.023   c-1.609,0.118-3.167,0.455-4.663,0.946c-2.213-0.68-4.581-0.974-7.027-0.795c-6.072,0.445-11.654,3.705-14.933,8.721   c-0.671,1.026-1.233,2.1-1.684,3.212c-2.459,0.534-4.888,1.305-7.26,2.309c-11.618,4.914-18.107,15.731-18.762,29.459   c-3.127-1.563-6.666-2.345-10.342-2.076c-6.621,0.485-12.464,4.083-15.632,9.626c-3.083,5.394-3.218,11.785-0.375,17.534   l22.5,45.482c1.588,3.209,3.937,5.85,6.871,7.755c3.244,2.539,7.214,3.9,11.34,3.887c-0.57,0.621-1.142,1.267-1.718,1.967   l-0.388,0.484c-0.006,0.005-0.167,0.207-0.17,0.214c-1.002,1.265-1.873,2.463-2.656,3.656c-1.953,2.967-3.502,6.252-4.599,9.752   c-0.952,3.028-1.595,6.291-1.904,9.687c-0.263,2.862-0.302,5.919-0.111,9.099c0.085,1.415,0.214,2.83,0.379,4.261   c0.16,1.357,0.351,2.706,0.567,4.042c1.211,7.411,3.194,14.794,5.896,21.938c1.759,4.661,3.852,9.283,6.216,13.733   c2.34,4.406,4.986,8.719,7.87,12.821c2.877,4.096,6.032,8.046,9.378,11.742c3.361,3.716,6.984,7.25,10.767,10.503   c9.544,8.212,20.115,14.708,31.441,19.324c1.824,2.237,4.119,4.828,6.278,6.618c8.65,7.176,19.503,11.567,30.735,12.595   c0.734,5.489,1.529,10.957,2.382,16.396c-13.574-8.484-28.141-13.936-42.307-15.815c-5.156-0.684-11.487-0.83-17.368-0.4   c-23.865,1.747-32.725,11.948-35.954,20.194c-3.379,8.62-0.404,17.939,1.566,24.106c0.23,0.723,0.446,1.389,0.617,1.979   c1.778,6.119,4.181,12.129,7.141,17.862c0.976,1.892,2.013,3.758,3.077,5.537c8.405,14.073,20.132,25.925,33.934,34.293   l0.842,0.519c0.107,0.065,0.136,0.086,0.245,0.149c0.348,0.223,0.701,0.442,1.148,0.697c0.237,0.133,0.478,0.259,0.758,0.406   c0.085,0.046,0.17,0.09,0.254,0.136l0.495,0.262c16.5,8.993,36.135,13.171,55.284,11.769c4.742-0.347,9.413-1.021,13.985-2.018   c12.479,37.582,28.12,70.162,46.59,97.011c4.118,5.983,11.193,9.368,18.464,8.836c4.722-0.345,9.22-2.323,12.662-5.565   c7.165-6.742,8.565-17.688,3.328-26.031c-5.804-9.243-19.494-32.703-32.635-67.457c19.83-5.428,37.994-17.202,50.653-33.289   l0.186-0.224c0.303-0.371,0.604-0.742,0.901-1.133c9.853-13.021,16.235-28.686,18.461-45.294c0.272-2.014,0.481-4.064,0.626-6.084   c0.442-6.225,0.288-12.469-0.462-18.554c-0.069-0.578-0.133-1.241-0.202-1.961c-0.602-6.263-1.513-15.726-7.897-22.199   c-4.031-4.086-11.473-8.765-24.039-7.845c-11.457,0.839-23.954,6.154-31.151,10.438c-0.566,0.336-1.123,0.696-1.675,1.06   l-0.357,0.233c-0.026,0.016-0.054,0.033-0.08,0.05c-11.208,7.113-21.465,17.212-29.77,29.296   c-1.598-10.9-2.788-21.825-3.566-32.739c8.853-3.083,17.798-7.598,27.062-13.645c14.122-9.225,21.853-19.786,22.375-30.062   c16.452-16.65,27.029-33.593,32.25-51.619c1.37-4.73,2.771-10.934,3.304-17.702c6.236,2.623,13.567,3.773,21.538,3.19   c1.998-0.146,3.984-0.404,5.905-0.767c13.014-2.453,23.038-9.935,31.882-16.535c2.644-1.974,5.143-3.838,7.535-5.427   C428.385,147.246,431.383,138.467,428.567,130.235z"/>
	<g>
		<g>
			<path style="fill:#172B42;" d="M140.189,103.742c-4.258,3.199-8.735,6.07-13.434,8.56c-6.838-13.821-13.675-27.643-20.513-41.464     c-2.525-5.104-10.998-2.173-8.437,3.004c7.5,15.161,15,30.322,22.501,45.483c0.529,1.07,1.327,1.769,2.223,2.186     c1.016,1.099,2.556,1.59,4.389,0.701c6.468-3.135,12.593-6.769,18.342-11.089C149.859,107.668,144.82,100.263,140.189,103.742z"/>
			<path style="fill:#172B42;" d="M159.662,42.25c0.742-4.121,0.475-8.549-1.092-12.987c-1.807-5.117-9.751-2.304-7.939,2.827     c0.78,2.208,1.072,4.377,1.008,6.454c-5.121-1.412-10.687-1.244-16.291,1.126c-13.621,5.761-10.192,25.019-6.096,35.693     c6.26,14.195,17.691,25.909,34.321,21.357c16.96-4.643,13.648-27.792,8.494-39.443C169.348,51.127,164.979,45.801,159.662,42.25z      M148.994,46.953c-3.066,4.647-8.47,7.61-14.662,7.333c0.021-0.163,0.026-0.324,0.05-0.487     C135.693,44.84,142.407,44.402,148.994,46.953z M165.233,85.308c-9.407,14.086-24.345-4.391-28.041-12.772     c-1.225-3.193-2.191-6.426-2.703-9.72c9.268,0.294,17.339-4.586,21.825-11.84c2.379,1.706,4.358,3.561,5.512,5.154     C167.503,63.97,170.96,76.733,165.233,85.308z"/>
			<path style="fill:#172B42;" d="M197.215,19.29c-0.726,14.209-1.986,28.357-3.698,42.468     c-7.924-11.195-15.848-22.389-23.771-33.584c-3.134-4.427-10.092,0.326-6.945,4.772c10.016,14.15,20.032,28.301,30.048,42.451     c2.004,2.831,7.091,2.169,7.606-1.566c2.525-18.317,4.22-36.692,5.164-55.156C205.895,13.259,197.489,13.939,197.215,19.29z"/>
			<path style="fill:#172B42;" d="M256.043,52.727c-7.471,18.589-32.001,19.815-39.937,0.748c-1.265-3.04-1.482-6.098-0.959-9.011     c0.089,0.012,0.163,0.04,0.256,0.047c13.309,1.122,26.617,2.244,39.926,3.366c0.823,0.069,1.546-0.084,2.184-0.366     c2.52,0.42,5.236-1.046,4.629-4.209c-2.426-12.66-12.968-24.374-26.768-24.259c-15.239,0.126-27.482,11.927-28.702,27.037     c-1.181,14.638,10.926,26.846,24.425,29.753c13.735,2.957,27.598-7.17,32.512-19.396     C265.626,51.417,258.069,47.686,256.043,52.727z M229.069,28.321c9.216-3.729,19.028,2.578,23.056,10.882     c-11.133-0.939-22.267-1.877-33.4-2.816C221.351,32.821,225.058,29.943,229.069,28.321z"/>
			<path style="fill:#F49B3E;" d="M336.107,38.055c2.135-4.986-5.426-8.706-7.566-3.71c-3.037,7.091-6.182,14.361-10.158,21.063     c-0.139,0.162-0.282,0.317-0.406,0.507c-6.992,10.739-18.412,1.264-21.287-6.932c-2.841-8.1,0.634-17.89,5.236-24.558     c3.054-4.426-3.29-9.979-6.376-5.507c-8.692,12.595-11.969,30.111-1.358,42.694c3.805,4.511,8.83,6.817,13.893,7.093     c-0.425,0.409-0.81,0.851-1.252,1.247c-5.609,5.028-14.107,9.07-21.085,4.385c-7.326-4.918-6.479-14.523-0.979-20.197     c3.789-3.909-2.609-9.394-6.376-5.507c-11.604,11.972-5.858,35.404,12.564,36.236C315.27,85.966,328.25,56.402,336.107,38.055z"/>
			<path style="fill:#F49B3E;" d="M370.588,93.547c5.637-0.618,11.122-3.132,15.414-7.024c4.022-3.647-2.402-9.111-6.376-5.507     c-2.231,2.024-4.631,3.268-7.041,3.881c0.019-0.206,0.063-0.417,0.078-0.622c0.002-0.025-0.003-0.047-0.002-0.073     c0.059-0.33,0.09-0.678,0.07-1.055c-0.714-13.722-11.844-28.313-27.256-24.33c-16.337,4.222-31.802,19.129-33.504,36.277     c-1.559,15.708,11.902,27.32,26.779,26.019C352.711,119.893,365.627,107.091,370.588,93.547z M364.292,83.424     c-0.037,0.376-0.097,0.74-0.147,1.109c-6.566-2.246-11.583-8.87-11.012-16.712C359.21,69.418,363.738,74.965,364.292,83.424z      M351.097,106.23c-11.11,9.565-27.956,8.67-30.694-7.786c-1.947-11.697,8.826-20.805,17.087-26.829     c2.356-1.718,4.751-2.893,7.093-3.573c-0.472,8.501,3.474,16.885,10.702,21.82c2.046,1.397,4.231,2.368,6.478,2.995     C359.4,97.958,355.649,102.311,351.097,106.23z"/>
			<path style="fill:#F49B3E;" d="M408.073,132.695c-13.029,8.65-35.116,30.174-49.909,12.871     c-8.915-10.427,5.897-22.546,13.258-27.23c6.731-4.283,13.982-7.476,20.517-12.11c4.424-3.138-0.328-10.096-4.772-6.945     c-16.567,11.748-50.828,24.358-35.948,51.057c5.24,9.402,18.422,10.781,27.7,9.032c12.963-2.444,23.319-12.687,33.926-19.73     C417.37,136.636,412.605,129.686,408.073,132.695z"/>
		</g>
		<g>
			<g>
				<path style="fill:#387923;" d="M269.148,385.611c-1.672-20.305,3.653-41.121,14.869-58.128      c7.287-11.05,16.871-21.094,28.297-27.894c7.922-4.715,28.679-13.33,36.942-4.951c3.188,3.233,3.397,11.301,3.913,15.5      c0.849,6.91,0.784,13.928-0.141,20.827c-1.851,13.795-7.163,27.158-15.573,38.273c-14.642,19.351-38.373,31.505-62.632,32.079"/>
			</g>
			<g>
				<path style="fill:#387923;" d="M257.979,370.143c-6.745-20.157-20.408-37.927-38.155-49.624      c-11.53-7.599-24.849-13.29-38.6-15.113c-9.534-1.264-32.979-0.991-37.457,10.44c-1.728,4.41,1.389,12.233,2.62,16.471      c2.026,6.975,4.974,13.678,8.698,19.912c7.446,12.467,18.033,23.096,30.667,30.296c21.995,12.535,49.746,14.433,73.244,5.01"/>
			</g>
			<path style="fill:#55AA44;" d="M338.457,327.402c-10.001,2.687-18.637,5.282-23.121,6.894     c9.905-11.687,17.361-18.981,16.808-19.566c-0.329-0.365-5,3.108-11.778,9.612c-2.715,2.6-5.755,5.729-8.951,9.271     c-0.168-4.258-1.02-13.499-0.979-24.277c-0.004-3.031,0.064-5.932,0.166-8.646c-0.855,0.542-1.718,1.069-2.551,1.646     c-0.125,2.23-0.203,4.566-0.201,6.997c-0.041,11.748,1.661,21.568,2.714,25.235c-4.542,5.097-9.374,11.011-14.091,17.598     c-3.901,5.466-7.337,10.858-10.315,15.935c-0.669-3.956-3.062-13.638-5.001-25.162c-0.505-2.931-0.941-5.754-1.325-8.409     c-0.694,1.295-1.349,2.609-1.98,3.935c0.22,1.597,0.467,3.232,0.756,4.908c2.107,12.507,5.496,22.638,6.976,25.693     c-3.137,5.413-5.722,10.429-7.707,14.71c-2.622,5.64-4.264,9.931-4.958,12.273l0.442,1.225     c1.918-2.757,6.995-12.951,14.962-25.853c0.111,0.335,4.309,0.953,11.122,1.254c6.918,0.311,16.518,0.183,27.043-0.941     c3.501-0.378,6.861-0.848,10.056-1.364c0.299-0.381,0.618-0.745,0.91-1.132c0.414-0.548,0.787-1.125,1.186-1.684     c-3.883,0.589-8.051,1.15-12.429,1.609c-20.461,2.251-37.241,1.481-37.857,2.204c3.279-5.309,7.038-11.063,11.272-16.946     c4.936-6.953,9.916-13.223,14.454-18.638c4.053-0.594,13.768-2.854,25.045-5.884c5.342-1.435,10.286-2.843,14.428-4.091     c0.053-0.749,0.057-1.501,0.09-2.251C349.305,324.574,344.075,325.892,338.457,327.402z"/>
			<path style="fill:#55AA44;" d="M167.591,342.823c10.695-1.535,20.042-2.597,25.004-2.895     c-14.302-7.134-24.45-11.062-24.16-11.851c0.166-0.485,6.072,0.925,15.245,4.374c3.672,1.377,7.873,3.127,12.395,5.21     c-1.589-4.152-4.572-13.363-9.041-23.681c-1.243-2.908-2.501-5.661-3.714-8.222c1.042,0.168,2.087,0.319,3.123,0.53     c1.037,2.087,2.072,4.295,3.069,6.627c4.868,11.247,7.274,21.364,7.771,25.313c6.451,3.02,13.515,6.704,20.746,11.081     c5.987,3.638,11.499,7.395,16.441,11.038c-0.984-4.068-2.671-14.336-5.549-26.183c-0.72-3.018-1.463-5.904-2.187-8.608     c1.197,0.956,2.366,1.947,3.516,2.959c0.446,1.622,0.881,3.292,1.293,5.017c3.122,12.859,4.037,23.966,3.873,27.504     c5.234,3.901,9.774,7.647,13.438,10.936c4.833,4.33,8.172,7.769,9.8,9.73l0.079,1.356c-2.972-1.855-12.032-9.542-24.975-18.639     c0.031,0.367-3.74,2.685-10.149,5.775c-6.505,3.142-15.763,6.966-26.317,10.216c-3.512,1.076-6.928,2.008-10.204,2.826     c-0.444-0.242-0.899-0.46-1.338-0.711c-0.623-0.355-1.217-0.756-1.829-1.127c3.966-1.031,8.192-2.207,12.579-3.567     c20.544-6.253,36.317-13.89,37.205-13.45c-5.327-3.742-11.297-7.715-17.775-11.614c-7.592-4.638-14.945-8.603-21.522-11.929     c-4.131,1.096-14.375,2.923-26.434,4.655c-5.712,0.82-11.032,1.503-15.516,2.009c-0.359-0.697-0.672-1.416-1.012-2.122     C156.027,344.572,161.583,343.685,167.591,342.823z"/>
			<g>
				<path style="fill:#FA465D;" d="M238.884,132.771c-6.391-2.447-13.58-1.531-20.176,0.293c-6.596,1.824-12.973,4.519-19.728,5.612      c-6.755,1.093-14.23,0.346-19.491-4.031c-18.997-15.804,2.107-43.925,18.934-50.337c15.415-5.873,34.133-1.767,45.673,10.02"/>
			</g>
			<g>
				<path style="fill:#B72948;" d="M144.98,162.129c-5.292-20.904,6.533-41.565,27.516-46.757      c14.181-3.509,29.503,0.275,41.917,7.976c2.291-16.58,14.323-31.442,30.063-37.134c15.74-5.692,34.495-1.963,46.861,9.317      c9.675,8.825,11.536,25.574,8.879,37.825c8.918-6.811,23.406-4.387,29.622,4.956c6.216,9.342,2.854,23.642-6.873,29.236"/>
			</g>
			<g>
				<path style="fill:#E23854;" d="M170.58,161.069c5.739-10.649,15.911-18.819,27.547-22.127      c11.636-3.308,24.584-1.71,35.067,4.328c5.142-13.428,19.579-22.488,33.946-21.906c14.367,0.582,27.778,10.401,33.276,23.687      c5.498,13.286,3.138,29.343-5.425,40.895c-8.676,11.705-22.549,18.391-36.427,22.828c-29.279,9.361-62.876,10.124-89.294-5.593"/>
			</g>
			<g>
				<path style="fill:#C6314C;" d="M293.222,243.982c18.523-15.355,36.434-34.848,43.376-58.816      c3.926-13.553,6.05-33.841-7.788-43.274c-6.187-4.217-15.904-5.815-23.091-3.998c-8.637,2.186-15.715,8.663-20.375,16.257      c-4.659,7.594-7.182,16.284-9.34,24.929c-9.812-20.611-30.87-35.314-52.858-24.29c-11.083,5.557-18.815,17.963-17.409,30.281      c-10.324-20.134-51.039-66.431-73.066-32.956c-4.962,7.541-4.856,17.317-3.403,26.227c5.668,34.76,30.409,65.864,63.123,78.907      c27.279,10.876,68.013,9.821,92.798-7.196C287.959,248.152,290.638,246.124,293.222,243.982z"/>
			</g>
			<g>
				<path style="fill:#479035;" d="M317.614,488.291c-11.605-18.475-58.908-100.417-63.941-214.834      c12.439-2.445,23.803-7.989,34.475-14.955c5.618-3.668,18.474-13.461,15.002-21.58c-3.976-9.3-22.165-2.132-28.119,0.614      c-6.481,2.988-19.033,10.254-21.781,17.831c0-0.142-0.003-0.283-0.004-0.426c2.879-11.796,3.144-25.067-0.262-36.716      c-1.091-3.733-3.713-12.498-7.783-14.227c-5.496-2.335-10.771,5.886-12.443,9.984c-5.771,14.141-3.032,30.143-0.207,45.153      c-5.63-6.926-12.637-14.467-20.423-19.008c-5.19-3.027-15.434-7.446-21.449-5.618c-11.877,3.609,6.416,27.434,11.234,31.43      c9.135,7.578,21.679,10.873,33.358,8.765l0.987-0.013c6.158,53.87,23.521,149.713,71.844,219.951      c1.971,2.865,6.064,3.249,8.596,0.865C318.691,493.631,319.07,490.61,317.614,488.291z"/>
			</g>
		</g>
	</g>
</g>















</svg>
