<?xml version="1.0" encoding="UTF-8"?>
<!-- Generator: Adobe Illustrator 25.2.1, SVG Export Plug-In . SVG Version: 6.00 Build 0)  -->
<svg xmlns="http://www.w3.org/2000/svg" xmlns:xlink="http://www.w3.org/1999/xlink" version="1.1" id="Capa_1" x="0px" y="0px" viewBox="0 0 512 512" style="enable-background:new 0 0 512 512;" xml:space="preserve" width="512" height="512">
<g>
	<path style="fill:#FAF9EF;" d="M43.414,335.855c-0.64,0.839-1.258,1.691-1.85,2.556c-9.474,13.827-11.277,27.628-4.948,37.863   c2.58,4.172,9.049,11.178,23.392,11.232c0.017,0,0.198,0.003,0.219,0c8.85,0,17.667-1.972,25.826-5.693   c0.294,0.475,0.595,0.947,0.901,1.417l0.255,0.376c6.021,9.11,13.561,16.173,21.806,20.431c4.123,2.128,8.498,3.206,13.008,3.206   c9.96,0,19.945-5.376,28.119-15.141c3.136-3.746,5.675-7.863,7.693-12.509c0.09,0.069,0.18,0.139,0.27,0.208   c3.553,2.718,7.215,5.39,10.883,7.938c1.844,1.281,3.701,2.543,5.574,3.783c3.688,2.442,7.519,4.859,11.389,7.186   c5.711,3.431,11.644,6.743,17.637,9.844c3.921,2.028,7.987,4.028,12.089,5.944c8.045,3.753,16.405,7.256,24.847,10.413   c2.911,1.089,6.113,1.133,9.054,0.124c2.033-0.697,4.061-1.415,6.083-2.152l2.052-0.764c1.335-0.495,2.67-0.991,3.984-1.498   c0.591-0.228,1.181-0.461,1.769-0.695l0.67-0.265c1.194-0.47,2.387-0.941,3.559-1.418c0.726-0.296,1.449-0.597,2.172-0.899   l0.447-0.187c1.11-0.462,2.219-0.928,3.329-1.403c0.844-0.362,1.681-0.73,2.522-1.1l0.198-0.088   c1.056-0.464,2.106-0.932,3.168-1.411c0.035-0.016,0.071-0.032,0.107-0.048c0.661,5.497,2.127,12.383,5.894,18.685l0.228,0.39   c2.08,3.569,6.409,10.997,14.896,11.967c0.635,0.073,1.251,0.106,1.844,0.106c1.485,0,4.533-0.251,7.637-1.991   c2.074,4.067,4.9,8.406,8.829,12.096l0.328,0.313c2.773,2.663,7.935,7.622,15.135,7.622c0.831,0,1.664-0.068,2.479-0.203   c2.252-0.374,12.273-2.737,13.196-15.172c2.675,1.263,5.461,2.318,8.303,3.129l0.21,0.06c3.994,1.139,10.678,3.046,17.346,3.046   c6.542,0,11.893-1.856,15.898-5.515c3.398-3.101,5.267-7.281,5.263-11.772c-0.007-7.854-5.566-12.912-8.236-15.342l-0.462-0.425   c-3.797-3.643-8.152-6.203-12.233-8.052c0.133-1.467,0.05-2.632-0.017-3.232c-0.056-0.488-0.131-0.96-0.227-1.42   c19.985-7.906,36.148-24.187,43.511-45.304c1.955-5.603,3.235-11.38,3.827-17.242c12.413-8.327,21.527-20.515,26.053-34.51   c3.001,0.825,6.119,1.443,9.322,1.841c2.443,0.303,6.375,0.665,11.241,0.665c20.537,0,34.379-6.211,40.027-17.961   c3.651-7.593,2.43-16.794-3.35-25.242c-4.621-6.753-10.93-12.37-18.468-16.555c1.343-2.157,2.565-4.39,3.653-6.684   c0.348-0.731,0.672-1.473,0.983-2.197c0.028-0.06,0.052-0.119,0.079-0.176c3.258-7.602,5.061-15.541,5.358-23.599   c0.161-4.355-0.097-10.821-4.16-16.678c-5.428-7.822-14.662-11.787-27.444-11.787c-3.422,0-7.058,0.277-11.115,0.846   c-8.347,1.174-16.569,3.771-24.113,7.592c-2.779-20.193-11.105-37.209-24.671-50.07c-14.709-13.944-34.116-22.937-54.61-25.559   c1.55-11.982,0.361-26.319-9.298-34.828c-3.688-3.247-8.268-4.964-13.244-4.964c-8.122,0-14.752,4.592-17.983,7.331   c-2.896,2.455-5.568,5.271-7.959,8.376c-0.936-0.984-1.906-1.93-2.911-2.837l-0.157-0.151c-0.447-0.429-0.901-0.848-1.376-1.245   c-0.266-0.222-0.549-0.442-0.784-0.618c-7.631-6.054-17.509-9.667-26.423-9.667c-8.916,0-16.888,3.535-22.445,9.954   c-5.922,6.843-9.243,16.054-9.607,26.636c0,0.026-0.002,0.053-0.002,0.081c-0.256,7.814,1.09,16.32,3.894,24.605   c2.636,7.786,6.437,14.985,10.825,20.557c-2.119,2.527-4.166,5.138-6.135,7.826c-15.431-22.303-35.756-39.115-58.224-47.916   c2.666-4.868,4.538-10.016,5.516-15.279c2.056-11.039-1.198-20.888-8.706-26.349c-3.863-2.808-8.53-4.275-14.276-4.487   c-10.893-0.403-21.69,3.353-30.887,10.311c-0.769-1.735-1.616-3.427-2.537-5.076c-0.415-0.749-0.839-1.492-1.281-2.209   c-2.009-3.269-4.256-6.259-6.673-8.886c-9.03-9.819-18.084-11.88-24.09-11.88c-10.071,0-18.607,5.375-25.158,13.267   c-0.58-0.18-1.17-0.326-1.764-0.437c-0.672-4.422-1.951-9.298-4.422-13.933l-0.285-0.563c-1.734-3.47-6.338-12.688-16.802-12.688   c-2.96,0-5.894,0.851-8.485,2.46c-11.479,7.13-11.428,23.476-11.404,31.332v0.214c0.009,2.926,0.262,5.864,0.741,8.755   c-1.163-0.237-2.425-0.39-3.767-0.39c-6.261,0-11.78,3.471-14.403,9.055c-3.636,7.735,0.41,15.319,2.354,18.962l0.215,0.406   c2.486,4.788,5.896,8.685,9.249,11.787c-2.428,2.435-3.894,5.526-4.394,8.604c-1.262,7.768,3.703,13.625,6.738,16.824   c-1.114,1.49-2.162,3.04-3.142,4.643c-0.444,0.726-0.872,1.461-1.303,2.236c-4.658,8.446-7.189,18.023-7.323,27.696   c-0.062,4.456,0.369,8.853,1.284,13.149c-3.381,3.207-6.489,6.707-9.294,10.474c-0.275,0.373-0.552,0.748-0.783,1.073   C5.477,230.47,0.234,246.379,0.008,262.996C-0.425,294.433,16.877,322.132,43.414,335.855z"/>
	<g>
		<g>
			<path style="fill:#9BAA46;" d="M429.009,278.804c5.713,12.261,18.412,18.456,31.31,20.059     c10.095,1.254,32.172,1.326,37.518-9.794c1.829-3.804,0.052-8.364-2.331-11.848c-6.488-9.483-17.314-15.401-28.553-17.789     c-11.24-2.388-22.929-1.549-34.27,0.298"/>
		</g>
		<g>
			<path style="fill:#BBC654;" d="M482.487,282.475c-0.033-0.352-3.387-0.183-8.747-0.472c-2.681-0.13-5.858-0.459-9.354-0.992     c-3.489-0.582-7.293-1.396-11.207-2.546c-3.904-1.184-7.531-2.589-10.768-4.014c-3.216-1.471-6.054-2.937-8.367-4.298     c-4.641-2.696-7.353-4.676-7.574-4.4c-0.166,0.196,2.216,2.627,6.742,5.727c2.253,1.56,5.081,3.208,8.335,4.82     c3.274,1.567,6.985,3.071,10.999,4.288c4.025,1.183,7.954,1.959,11.551,2.444c3.605,0.436,6.873,0.608,9.613,0.538     C479.194,283.458,482.518,282.73,482.487,282.475z"/>
		</g>
		<g>
			<path style="fill:#868E35;" d="M410.355,259.103c-3.081-18.223,7.137-34.595,22.269-44.026     c7.478-4.661,15.986-7.747,24.711-8.974c7.593-1.067,20.619-1.969,25.667,5.303c1.686,2.43,1.883,5.577,1.774,8.532     c-0.528,14.272-7.128,28.22-17.828,37.679c-10.7,9.459-25.353,14.297-39.582,13.07"/>
		</g>
		<path style="fill:#71752A;" d="M470.267,237.328c-9.396-1.348-17.353-2.742-20.472-2.998c5.96-4.443,11.551-8.065,15.996-10.733    c5.962-3.587,9.79-5.603,9.642-5.913c-0.111-0.243-4.191,1.277-10.414,4.55c-4.664,2.447-10.49,5.963-16.626,10.433    c0.717-3.268,1.619-8.673,2.433-14.824c0.53-4.008,0.94-7.712,1.206-10.739c-0.634,0.146-1.267,0.296-1.897,0.46    c-0.494,2.86-1.015,6.289-1.505,9.989c-0.914,6.911-1.478,12.953-1.546,16.095c-1.623,1.21-3.259,2.467-4.901,3.805    c-5.724,4.685-10.665,9.49-14.652,13.813c0.166-3.122-0.126-11.027-0.225-20.31c-0.058-4.457-0.063-8.6-0.079-12.051    c-0.665,0.534-1.303,1.095-1.939,1.658c-0.159,3.092-0.245,6.641-0.196,10.419c0.108,10.081,1.133,18.486,1.811,20.964    c-1.555,1.71-2.967,3.343-4.191,4.843c-2.465,3.016-4.245,5.463-5.329,7.101l0.644,0.439c1.316-1.449,3.282-3.697,5.866-6.512    c1.151-1.256,2.43-2.615,3.822-4.047c1.34,0.515,3.494,1.214,6.322,1.994c4.955,1.37,11.908,2.909,19.686,4.005    c3.226,0.451,6.323,0.785,9.226,1.03c0.816-0.588,1.612-1.204,2.393-1.839c-3.469-0.365-7.291-0.813-11.31-1.385    c-11.635-1.61-21.472-3.771-25.671-4.461c4.183-4.263,9.331-9.125,15.224-13.949c1.853-1.511,3.693-2.939,5.506-4.304    c2.404,1.017,10.723,3.201,20.859,4.656c3.476,0.507,6.762,0.867,9.7,1.115c0.296-0.623,0.57-1.257,0.841-1.891    C477.436,238.335,473.958,237.866,470.267,237.328z"/>
		<g>
			<path style="fill:#9BAA46;" d="M96.052,323.491c-16.868-0.83-33.997,8.757-43.417,22.504c-4.048,5.908-8.99,16.125-4.603,23.219     c2.378,3.846,7.503,4.853,12.025,4.869c18.078,0.066,35.793-10.594,44.201-26.598"/>
		</g>
		<g>
			<path style="fill:#BBC654;" d="M101.451,332.088c-0.171-0.522-11.252,3.341-22.976,11.632     c-11.771,8.224-19.157,17.342-18.724,17.68c0.488,0.466,8.463-7.816,19.997-15.869     C91.232,337.405,101.724,332.705,101.451,332.088z"/>
		</g>
		<g>
			<path style="fill:#868E35;" d="M97.416,318.275c-7.655,11.751-10.204,26.709-6.872,40.332     c3.157,12.91,12.607,27.298,24.627,33.504c9.413,4.859,18.68-1.454,24.679-8.622c6.419-7.67,8.537-16.171,10.032-25.885     c2.918-18.964-1.52-40.317-17.676-52.272"/>
		</g>
		<path style="fill:#71752A;" d="M144.43,337.318c-10.603-3.121-19.741-5.511-23.578-6.216c-1.761-7.243-3.735-13.631-5.508-18.551    c-0.105-0.292-0.203-0.55-0.306-0.832l-1.42,0.528c0.081,0.269,0.155,0.514,0.238,0.791c1.359,4.535,2.94,10.24,4.46,16.662    c-3.246,2.216-10.393,7.957-18.12,15.34c-3.96,3.769-7.478,7.402-10.292,10.476c0.126,0.708,0.272,1.412,0.429,2.115    c3.138-3.035,7.063-6.869,11.391-10.988c7.402-7.073,13.922-13.014,16.821-15.954c0.737,3.161,1.457,6.471,2.125,9.919    c0.774,4.031,1.422,7.935,1.965,11.624c-2.834,2.145-9.023,7.683-15.836,14.562c-3.25,3.276-6.188,6.399-8.612,9.089    c0.345,0.53,0.701,1.053,1.063,1.571c2.636-2.586,5.765-5.719,9.122-9.101c6.407-6.47,11.906-12.099,14.423-14.997    c0.835,5.827,1.412,11.089,1.798,15.379c0.658,7.25,0.913,11.762,1.248,11.758c0.276-0.001,0.576-4.531,0.315-11.86    c-0.14-4.007-0.496-8.871-1.126-14.238c1.16,1.404,7.934,6.453,16.557,11.845c1.96,1.228,3.856,2.374,5.647,3.423    c0.217-0.691,0.436-1.382,0.627-2.086c-1.611-1.022-3.322-2.1-5.099-3.213c-9.134-5.712-16.69-10.31-17.779-10.357    c-0.518-4.334-1.209-8.981-2.138-13.818c-0.54-2.792-1.13-5.5-1.749-8.104c3.876,1.538,12.542,4.365,22.71,7.358    c2.311,0.68,4.543,1.322,6.676,1.923c-0.061-0.767-0.121-1.532-0.21-2.295C148.397,338.498,146.448,337.912,144.43,337.318z"/>
		<g>
			<path style="fill:#9BAA46;" d="M128.075,145.708c2.146-12.043,5.732-24.139,13.054-33.938     c7.322-9.799,18.931-17.008,31.155-16.559c2.415,0.089,4.922,0.51,6.877,1.931c3.837,2.79,4.272,8.372,3.405,13.037     c-1.979,10.649-8.83,19.982-17.459,26.529c-8.629,6.547-18.943,10.538-29.411,13.317"/>
		</g>
		<path style="fill:#71752A;" d="M96.982,171.707l-1.752-1.73c-0.634-0.638-1.263-1.392-1.975-2.162    c-1.385-1.578-3.099-3.241-4.696-5.344c-0.863-1.061-1.73-2.129-2.606-3.206c-0.332-0.401-0.642-0.839-0.955-1.274    c4.925-5.511,8.053-12.613,8.707-19.977c0.492-5.538,0.5-11.577-1.603-16.961c-0.637-1.632-2.143-6.12-4.084-6.678    c-2.938-0.845-3.94,3.695-4.64,5.65c-3.859,10.775-4.334,22.731-1.38,33.786c-1.371-1.997-2.684-4.172-4.081-6.408    c-2.495-4.308-4.917-9.078-7.093-14.204c5.446-4.943,9.287-11.636,10.721-18.851c1.084-5.453,1.741-11.456,0.228-17.035    c-0.459-1.691-1.473-6.315-3.343-7.079c-2.83-1.156-4.314,3.25-5.221,5.119c-4.464,9.204-6.31,19.634-5.414,29.822    c-2.28-6.946-3.839-13.771-4.848-20.08c-0.026-0.202-0.052-0.398-0.078-0.599c3.288-5.587,5.02-12.09,4.833-18.572    c-0.16-5.557-0.859-11.555-3.578-16.655c-1.169-2.193-3.376-7.734-6.647-5.702c-5.186,3.221-5.079,14.859-5.064,20.108    c0.023,7.871,2.572,17.259,7.798,23.712c0.779,5.172,1.942,10.634,3.611,16.216c-6.078-7.282-13.979-13.05-22.805-16.528    c-1.933-0.761-6.008-2.999-7.308-0.232c-0.859,1.828,1.525,5.918,2.332,7.473c2.664,5.13,7.212,9.103,11.702,12.382    c5.641,4.119,12.56,6.439,19.54,6.622c2.393,5.718,5.147,10.986,8.015,15.674c0.661,1.005,1.306,1.986,1.948,2.952    c-8.154-5.933-17.885-9.703-27.923-10.682c-2.067-0.202-6.6-1.235-7.091,1.783c-0.324,1.994,3.091,5.272,4.294,6.545    c3.97,4.202,9.434,6.773,14.651,8.694c6.784,2.497,14.35,2.749,21.307,0.798c0.481,0.627,0.963,1.235,1.475,1.797    c0.952,1.056,1.895,2.102,2.833,3.142c1.749,2.049,3.617,3.634,5.153,5.113c0.788,0.72,1.492,1.42,2.201,1.998l1.973,1.539    c2.385,1.829,3.762,2.747,3.907,2.569C100.172,175.062,99.073,173.808,96.982,171.707z"/>
		
			<ellipse transform="matrix(0.7071 -0.7071 0.7071 0.7071 -112.2246 115.2774)" style="fill:#FB9FA9;" cx="83.04" cy="193.106" rx="45.668" ry="45.668"/>
		<path style="fill:#C16F7A;" d="M102.375,151.735c-0.762,1.477-1.812,3.276-3.292,5.23c-3.795,5.136-11.028,10.995-20.49,13.648    c-9.497,2.633-18.678,1.946-25.112,1.009c-3.907-0.58-6.881-1.196-8.671-1.507c-0.093-0.095-0.188-0.209-0.281-0.301    c-0.167-0.168-0.323-0.306-0.488-0.466c-0.347,0.569-0.685,1.144-1.007,1.728c0.014,0.017,0.027,0.031,0.041,0.048    c3.53,4.209,7.574,10.914,9.138,19.139c1.556,8.227,0.248,15.946-1.496,21.156c-1.727,5.263-3.618,8.241-3.239,8.485    c0.243,0.191,2.767-2.445,5.072-7.798c2.309-5.275,4.058-13.505,2.383-22.359c-1.463-7.7-5.166-14.006-8.79-18.193    c1.721,0.617,4.057,1.328,6.985,1.993c4.146,0.928,9.57,1.691,15.583,1.399c0.421,0.776,1.055,1.868,1.737,3.264    c1.345,2.718,2.753,6.722,2.896,11.281c0.141,4.559-1.015,8.643-2.188,11.439c-1.164,2.818-2.23,4.469-1.906,4.731    c0.257,0.228,1.914-1.021,3.651-3.843c1.732-2.78,3.371-7.274,3.21-12.414c-0.16-5.14-2.076-9.523-3.978-12.19    c-0.709-1.006-1.393-1.794-1.986-2.378c2.967-0.226,6.047-0.689,9.194-1.56c10.151-2.841,17.733-9.425,21.343-15.188    c1.398-2.178,2.306-4.16,2.88-5.788C103.173,152.105,102.773,151.922,102.375,151.735z"/>
		
			<ellipse transform="matrix(0.7071 -0.7071 0.7071 0.7071 -163.0751 134.5151)" style="fill:#F48F58;" cx="80.837" cy="264.107" rx="67.417" ry="67.417"/>
		<path style="fill:#71752A;" d="M379.134,429.783c-4.17-4.002-9.753-6.303-15.057-7.967c-6.188-1.94-12.917-2.039-19.187-0.392    c-0.186-0.08-0.368-0.158-0.555-0.237c-5.798-2.684-11.944-6.037-18.01-10.119c9.561,3.63,20.101,4.686,30.172,2.889    c2.045-0.365,6.688-0.597,6.344-3.634c-0.227-2.007-4.402-4.239-5.905-5.14c-4.958-2.971-10.914-3.969-16.457-4.406    c-7.334-0.579-14.818,1.3-21.054,5.199c-4.343-3.486-8.275-7.113-11.744-10.683c-1.773-1.952-3.509-3.806-5.059-5.668    c9.838,5.845,21.474,8.635,32.891,7.846c2.072-0.143,6.713,0.125,6.698-2.932c-0.01-2.02-3.921-4.688-5.318-5.744    c-4.61-3.487-10.425-5.119-15.888-6.149c-7.266-1.371-14.95-0.289-21.591,2.955c-0.333-0.419-0.671-0.837-0.966-1.265    c-0.799-1.135-1.591-2.26-2.378-3.378c-1.591-2.109-2.726-4.209-3.868-5.971c-0.547-0.895-1.102-1.705-1.544-2.488l-1.189-2.156    c-1.453-2.584-2.363-3.981-2.573-3.891c-0.21,0.091,0.299,1.666,1.411,4.458l0.945,2.317c0.365,0.839,0.847,1.706,1.326,2.661    c1.006,1.88,2.024,4.108,3.521,6.348c0.746,1.185,1.497,2.376,2.255,3.579c0.402,0.645,0.857,1.274,1.329,1.907    c-3.767,6.166-5.579,13.517-5.018,20.724c0.431,5.543,1.423,11.5,4.388,16.462c0.899,1.504,3.126,5.681,5.133,5.91    c3.037,0.347,3.274-4.296,3.641-6.34c1.783-9.927,0.798-20.316-2.698-29.774c0.755,0.881,1.524,1.768,2.311,2.676    c3.733,4.034,8.056,8.115,12.908,11.97c-1.72,6.767-1.366,14.056,1.067,20.604c1.936,5.212,4.525,10.668,8.738,14.625    c1.277,1.199,4.566,4.604,6.559,4.274c3.016-0.5,1.969-5.029,1.761-7.096c-0.951-9.439-4.356-18.609-9.714-26.436    c4.919,3.123,9.859,5.725,14.626,7.879c4.791,6.781,13.134,11.784,20.703,13.944c5.048,1.44,16.22,4.703,20.728,0.587    C385.66,435.132,380.927,431.504,379.134,429.783z"/>
		<g>
			<path style="fill:#9BAA46;" d="M308.281,157.036c-5.926-11.948-5.086-26.594,0.255-38.587c2.696-6.054,6.621-11.6,11.69-15.898     c3.528-2.991,9.58-6.142,13.679-2.531c8.138,7.169,5.247,26.139,2.083,34.84c-3.786,10.408-11.536,19.318-21.319,24.509"/>
		</g>
		<g>
			<path style="fill:#BBC654;" d="M313.32,152.857c0.582,0.188,4.038-8.89,7.72-20.276c3.681-11.386,6.194-20.769,5.612-20.957     c-0.582-0.188-4.038,8.89-7.719,20.275C315.251,143.286,312.738,152.669,313.32,152.857z"/>
		</g>
		<g>
			<path style="fill:#868E35;" d="M288.749,174.26c-8.621-1.829-16.612-6.51-22.422-13.137     c-11.22-12.796-19.256-41.695-6.687-56.215c8.072-9.323,22.804-4.892,30.911,1.857c16.719,13.917,19.824,40.792,14.589,60.869"/>
		</g>
		<path style="fill:#71752A;" d="M303.499,125.831c-0.319-0.863-0.64-1.725-1-2.567c-1.031,1.748-2.112,3.615-3.217,5.559    c-4.395,7.733-7.929,14.506-9.234,17.597c-1.302-3.116-2.76-6.4-4.368-9.765c-1.18-2.463-2.377-4.824-3.566-7.084    c1.42-2.384,4.333-8.767,7.432-16.401c0.757-1.864,1.469-3.667,2.124-5.369c-0.378-0.341-0.726-0.709-1.118-1.036    c-0.175-0.146-0.37-0.284-0.552-0.427c-0.804,1.868-1.647,3.882-2.506,5.999c-2.852,7.027-5.078,13.182-5.916,16.225    c-2.914-5.467-5.757-10.244-8.147-13.929c-3.508-5.415-5.973-8.559-6.211-8.401c-0.271,0.179,1.726,3.622,4.87,9.209    c2.025,3.594,4.498,8.104,7.128,13.204c-4.103-1.561-12.516-4.217-22.38-6.783c-1.154-0.301-2.284-0.588-3.4-0.867    c-0.065,0.738-0.112,1.481-0.138,2.231c0.979,0.256,1.97,0.516,2.98,0.78c10.535,2.74,19.589,5.054,23.525,5.786    c1.273,2.491,2.574,5.098,3.879,7.82c1.584,3.314,3.054,6.535,4.398,9.582c-1.512-0.321-3.722-0.711-6.479-1.135    c-5.44-0.837-12.983-1.786-21.342-2.576c-1.279-0.121-2.531-0.232-3.77-0.338c0.26,0.768,0.531,1.53,0.817,2.282    c0.905,0.086,1.818,0.173,2.745,0.261c13.05,1.227,24.141,2.264,28.402,2.363c2.065,4.714,3.829,8.993,5.227,12.495    c2.381,5.952,3.81,9.667,4.12,9.568c0.273-0.086-0.631-3.978-2.649-10.106c-1.174-3.571-2.765-7.905-4.72-12.649    c1.814-2.309,6.073-9.165,10.776-17.44C302.003,128.517,302.768,127.152,303.499,125.831z"/>
		
			<ellipse transform="matrix(0.1773 -0.9842 0.9842 0.1773 -45.3945 620.211)" style="fill:#FB9FA9;" cx="348.258" cy="337.256" rx="61.992" ry="61.992"/>
		<path style="fill:#C16F7A;" d="M404.765,355.243c-3.903-1.082-9.144-1.623-14.799-0.843c-0.454-0.873-2.398-3.147-4.49-6.939    c-2.55-4.548-5.056-11.594-4.704-19.533c0.368-7.938,3.501-14.729,6.452-19.027c2.95-4.361,5.519-6.54,5.228-6.886    c-0.172-0.254-3.253,1.412-6.799,5.719c-3.525,4.222-7.247,11.431-7.646,20.069c-0.384,8.638,2.67,16.154,5.799,20.678    c2.313,3.393,4.495,5.328,5.568,6.024c-3.086,0.474-6.277,1.319-9.443,2.723c-4.337,1.938-7.95,4.598-10.884,7.458    c-0.367-1.096-1.004-2.568-2.014-4.29c-2.086-3.598-6.009-8.155-11.658-11.346c-5.647-3.194-11.574-4.206-15.732-4.138    c-4.198,0.048-6.666,0.928-6.605,1.26c0.058,0.42,2.573,0.25,6.502,0.695c3.912,0.425,9.287,1.662,14.472,4.593    c5.185,2.931,9.017,6.899,11.398,10.032c1.273,1.658,2.187,3.053,2.83,3.987c-2.875,2.969-5.023,6.107-6.404,8.875    c-2.271,4.469-2.945,7.895-3.005,9.25c-1.04-0.997-3.249-2.662-6.656-4.336c-5.001-2.491-12.807-4.674-21.485-3.864    c-8.678,0.811-15.944,4.401-20.398,7.775c-0.706,0.529-1.328,1.039-1.911,1.537c0.454,0.382,0.92,0.75,1.385,1.119    c0.507-0.335,1.048-0.681,1.622-1.034c4.539-2.822,11.459-5.883,19.559-6.641c8.101-0.755,15.468,0.972,20.451,2.904    c5.026,1.919,7.873,3.811,8.125,3.446c0.048-0.059-0.068-0.256-0.331-0.546c0.558-0.933,1.662-4.279,4.347-8.648    c3.144-5.205,9.021-11.764,17.515-15.561c8.505-3.771,17.313-3.749,23.285-2.603c0.876,0.161,1.682,0.339,2.449,0.522    c0.189-0.542,0.377-1.083,0.552-1.631C406.543,355.766,405.699,355.494,404.765,355.243z"/>
		
			<ellipse transform="matrix(0.2284 -0.9736 0.9736 0.2284 15.8618 599.9048)" style="fill:#F48F58;" cx="386.415" cy="289.945" rx="52.719" ry="52.72"/>
		<path style="fill:#C1683A;" d="M438.578,282.303c-2.625,1.1-5.451,2.605-8.239,4.639c-1.294-0.525-2.956-1.269-4.849-2.428    c-4.338-2.585-9.545-7.632-12.948-14.604c-3.4-7-4.646-14.127-5.412-19.252c-0.742-5.153-1.075-8.404-1.483-8.391    c-0.355,0.009-0.718,3.272-0.465,8.584c0.282,5.268,1.241,12.779,4.874,20.276c0.582,1.195,1.237,2.312,1.92,3.391    c-0.423,0.321-0.924,0.799-1.464,1.487c-1.187,1.501-2.395,3.966-2.831,6.896c-0.428,2.931,0.018,5.64,0.721,7.42    c0.006,0.016,0.012,0.025,0.019,0.041c-1.975-0.375-4.096-0.595-6.32-0.561c-6.226,0.089-11.637,2.079-15.071,4.117    c-3.475,2.039-5.121,3.942-4.904,4.203c0.254,0.335,2.289-0.973,5.78-2.453c3.469-1.49,8.526-3.016,14.235-3.099    c5.71-0.084,10.809,1.293,14.32,2.681c1.806,0.704,3.224,1.371,4.218,1.812c-3.622,5.492-5.504,11.247-6.152,15.655    c-0.463,3.037-0.474,5.42-0.34,6.989c-1.057-0.938-2.563-2.11-4.554-3.373c-2.17-1.4-4.934-2.784-8.124-4.031    c-3.21-1.186-6.858-2.197-10.775-2.782c-3.923-0.54-7.708-0.595-11.122-0.359c-3.412,0.299-6.453,0.851-8.929,1.585    c-4.971,1.433-7.711,3.122-7.579,3.411c0.168,0.411,3.134-0.61,8.019-1.504c2.438-0.467,5.375-0.795,8.635-0.946    c3.264-0.087,6.853,0.041,10.583,0.552c3.724,0.557,7.204,1.444,10.312,2.444c3.086,1.061,5.812,2.201,8.021,3.335    c2.562,1.288,4.474,2.422,5.706,3.096c0.095,0.422,0.197,0.646,0.277,0.639c0.082,0,0.15-0.154,0.215-0.378    c0.604,0.312,0.981,0.458,1.075,0.34c0.083-0.096-0.228-0.546-0.89-1.216c0.237-1.442,0.553-4.046,1.389-7.414    c1.262-5.206,4.101-12.256,9.46-18.405c4.023-4.611,8.742-7.885,12.954-10.06C438.781,283.857,438.691,283.077,438.578,282.303z     M423.82,292.883c-0.939,1.077-1.769,2.188-2.552,3.309c-0.837-0.748-2.162-1.719-3.982-2.717    c-1.817-1.007-4.176-1.978-6.89-2.672c-0.162-1.754-0.464-4.449,0.023-7.496c0.454-3.361,1.691-6.036,2.317-7.635    c3.512,5.096,7.96,8.742,11.811,10.558c1.726,0.837,3.26,1.35,4.547,1.668C427.268,289.341,425.48,290.98,423.82,292.883z"/>
		<g>
			<path style="fill:#868E35;" d="M109.036,161.699c-16.828-8.287-26.888-24.785-27.888-43.327     c-1.061-19.658,18.747-56.864,40.375-33.347c16.978,18.461,15.906,49.219,3.459,69.842"/>
		</g>
		<path style="fill:#71752A;" d="M134.246,118.447c-0.03-0.872-0.093-1.741-0.159-2.61c-2.155,1.761-4.464,3.678-6.868,5.708    c-8.348,7.052-15.259,13.279-17.771,15.949c-0.799-3.938-1.555-8.292-2.132-12.906c-0.552-4.179-0.9-8.173-1.127-11.876    c2.649-1.931,8.104-6.615,14.24-12.295c2.645-2.448,5.096-4.784,7.202-6.851c-0.321-0.575-0.643-1.149-0.989-1.711    c-2.305,2.003-4.938,4.365-7.717,6.937c-5.662,5.24-10.437,9.969-12.816,12.627c-0.653-11.943-0.012-20.391-0.534-20.425    c-0.274-0.028-0.973,3.72-1.346,9.864c-0.163,2.638-0.233,5.739-0.175,9.137c-2.607-2.547-7.455-6.801-13.151-11.48    c-1.461-1.2-2.878-2.345-4.238-3.429c-0.324,0.66-0.634,1.33-0.933,2.004c1.203,1.015,2.458,2.062,3.765,3.136    c6.215,5.106,11.741,9.322,14.583,11.188c0.115,4.138,0.43,8.691,1.038,13.457c0.524,4.051,1.218,7.885,1.988,11.427    c-1.387-0.935-3.356-2.199-5.792-3.741c-5.068-3.208-12.071-7.62-19.718-12.629c-0.113-0.074-0.222-0.147-0.335-0.221    c0.074,0.948,0.164,1.891,0.285,2.826c7.238,4.697,13.956,8.648,18.975,11.373c2.957,1.607,5.289,2.783,6.822,3.479    c0.943,4.176,1.985,7.897,2.985,10.943c1.914,5.85,3.538,9.299,3.796,9.203c0.487-0.162-2.152-7.877-4.505-19.222    c2.833-1.813,10.37-7.759,19.028-15.072C130.605,121.583,132.482,119.976,134.246,118.447z"/>
		<g>
			<path style="fill:#BBC654;" d="M170.701,106.542c-0.154-0.23-3.085,1.351-7.426,4.518c-4.34,3.159-10.019,8.004-15.544,14.085     c-5.514,6.091-9.783,12.215-12.504,16.842c-2.729,4.629-4.018,7.7-3.773,7.831c0.6,0.348,7.008-11.243,17.918-23.185     C160.193,114.611,171.105,107.105,170.701,106.542z"/>
		</g>
		<path style="fill:#C1683A;" d="M110.08,286.58c-2.063,0.471-4.456,1.301-7.012,2.462c-2.532,1.206-5.213,2.772-7.796,4.738    c-2.561,1.994-4.76,4.185-6.574,6.325c-1.777,2.174-3.191,4.275-4.174,6.149c-0.925,1.734-1.529,3.203-1.892,4.309    c-0.348-0.257-0.669-0.53-1.027-0.78c-5.246-3.661-10.804-5.963-15.87-7.304c0.227-0.833,0.401-2.677,0.818-5.183    c0.562-3.441,1.75-8.109,4.03-12.87c2.301-4.751,5.209-8.591,7.549-11.175c0.614-0.683,1.178-1.284,1.674-1.809    c3.999,2.168,8.007,3.358,11.244,3.791c5.472,0.77,8.837-0.078,8.792-0.382c-0.018-0.451-3.352-0.327-8.422-1.54    c-5.029-1.167-11.857-4.027-17.437-9.572c-5.569-5.556-8.46-12.371-9.648-17.395c-0.688-2.821-0.955-5.075-1.138-6.547    c1.223-0.261,2.456-0.566,3.698-0.98c7.427-2.476,12.99-7.191,16.096-11.117c3.163-3.952,4.172-6.953,3.882-7.092    c-0.38-0.218-1.982,2.379-5.342,5.788c-3.318,3.404-8.658,7.508-15.511,9.794c-6.854,2.281-13.589,2.2-18.285,1.467    c-3.905-0.588-6.492-1.438-7.386-1.496c-2.036-2.536-4.11-4.747-6.075-6.509c-2.943-2.668-5.566-4.535-7.54-5.748    c-0.226,0.303-0.449,0.608-0.67,0.915c1.762,1.44,4.158,3.482,6.847,6.237c5.687,5.762,12.429,15.142,15.815,27.061    c3.379,11.922,2.569,23.446,0.756,31.336c-1.783,7.963-4.139,12.559-3.705,12.763c0.036,0.023,0.155-0.093,0.308-0.276    c0.268,0.397,4.299,0.088,10.569,0.994c6.42,0.894,15.255,3.457,23.368,9.118c7.629,5.327,12.878,12.18,16.019,17.736    c0.679-0.157,1.352-0.328,2.023-0.505c-2.577-5.564-7.35-12.462-14.522-18.032c0.634-0.958,1.501-2.335,2.648-3.968    c1.147-1.662,2.648-3.534,4.428-5.498c1.817-1.931,3.934-3.934,6.344-5.812c2.433-1.85,4.911-3.384,7.242-4.647    c2.354-1.217,4.548-2.191,6.448-2.874c3.788-1.398,6.285-1.963,6.226-2.39C116.842,285.733,114.206,285.607,110.08,286.58z     M56.865,300.989c-5.907-0.398-9.779,0.369-10.642,0.77c0.954-1.251,3.264-5.283,5.156-11.827    c2.364-8.007,3.556-20.063,0.01-32.571c-2.273-8.003-6.103-14.812-10.193-20.151c1.201,0.696,3.267,1.619,6.153,2.364    c3.811,1.007,9.142,1.466,14.861,0.418c-0.175,1.523-0.217,3.815,0.206,6.729c0.746,5.397,3.55,12.928,9.615,18.977    c1.996,1.984,4.153,3.583,6.338,4.905c-0.5,0.36-1.03,0.764-1.6,1.242c-2.818,2.346-6.216,6.286-8.679,11.379    c-2.446,5.101-3.407,10.215-3.483,13.881c-0.06,2.493,0.191,4.292,0.465,5.2C62.093,301.56,59.297,301.14,56.865,300.989z"/>
		<g>
			<g>
				<path style="fill:#C62566;" d="M397.451,160.075c-20.614-19.543-52.132-27.521-79.157-19.773      c-30.347,8.7-54.985,32.731-70.174,61.306c-14.398-28.982-38.366-53.681-68.462-63.212c-26.802-8.488-58.527-1.379-79.67,17.59      c-34.051,30.55-25.028,87.245-7.539,123.541c31.14,64.625,88.046,108.611,152.774,132.813      c65.369-22.414,123.463-64.818,156.368-128.563C420.071,247.975,430.649,191.549,397.451,160.075z"/>
			</g>
			<g>
				<path style="fill:#F48F58;" d="M399.544,189.164c0.019-1.398-6.596-2.673-15.772-3.215c6.211-6.626,10.08-12.038,9.107-13.038      c-0.973-1-6.494,2.722-13.292,8.753c-0.302-8.864-1.39-15.262-2.779-15.281c-1.385-0.019-2.645,6.312-3.193,15.125      c-6.273-5.95-11.402-9.631-12.4-8.679c-1.004,0.958,2.482,6.315,8.196,12.917c-9.241,0.285-15.937,1.381-15.957,2.784      c-0.019,1.398,6.596,2.673,15.772,3.215c-6.21,6.626-10.08,12.038-9.107,13.038c0.973,1,6.494-2.722,13.292-8.753      c0.302,8.864,1.39,15.262,2.779,15.281c1.385,0.019,2.646-6.312,3.193-15.125c6.273,5.95,11.402,9.631,12.4,8.679      c1.004-0.958-2.482-6.315-8.196-12.917C392.828,191.663,399.525,190.567,399.544,189.164z"/>
				<path style="fill:#F8C1C9;" d="M149.638,180.953c0.019-1.398-6.597-2.673-15.772-3.215c6.211-6.626,10.08-12.038,9.107-13.038      c-0.973-1-6.494,2.722-13.292,8.753c-0.302-8.864-1.39-15.262-2.779-15.281c-1.385-0.019-2.645,6.312-3.193,15.125      c-6.273-5.95-11.402-9.631-12.4-8.679c-1.004,0.958,2.482,6.315,8.196,12.917c-9.241,0.285-15.937,1.381-15.957,2.784      c-0.019,1.398,6.597,2.673,15.772,3.215c-6.211,6.626-10.08,12.038-9.107,13.038c0.973,1,6.494-2.722,13.292-8.753      c0.301,8.864,1.39,15.262,2.779,15.281c1.385,0.019,2.646-6.312,3.193-15.125c6.273,5.95,11.402,9.631,12.4,8.679      c1.004-0.958-2.482-6.315-8.196-12.917C142.922,183.452,149.619,182.356,149.638,180.953z"/>
				<path style="fill:#F48F58;" d="M335.554,326.758c0.015-1.106-5.22-2.115-12.482-2.544c4.915-5.244,7.977-9.527,7.207-10.318      c-0.77-0.792-5.139,2.155-10.52,6.927c-0.239-7.015-1.1-12.079-2.199-12.094c-1.096-0.015-2.094,4.995-2.527,11.97      c-4.964-4.709-9.024-7.622-9.813-6.869c-0.795,0.758,1.964,4.998,6.486,10.223c-7.313,0.225-12.613,1.092-12.628,2.203      c-0.015,1.106,5.221,2.115,12.482,2.544c-4.915,5.244-7.977,9.527-7.207,10.318c0.77,0.792,5.139-2.155,10.52-6.927      c0.239,7.015,1.1,12.079,2.199,12.094c1.096,0.015,2.094-4.995,2.527-11.97c4.964,4.709,9.024,7.622,9.813,6.869      c0.795-0.758-1.964-4.998-6.486-10.223C330.239,328.736,335.538,327.868,335.554,326.758z"/>
				<path style="fill:#F8C1C9;" d="M318.74,183.558c0.009-0.652-3.075-1.246-7.354-1.499c2.896-3.089,4.7-5.613,4.246-6.079      c-0.454-0.466-3.028,1.269-6.197,4.081c-0.141-4.133-0.648-7.116-1.296-7.125c-0.645-0.009-1.233,2.943-1.489,7.052      c-2.925-2.774-5.316-4.491-5.781-4.047c-0.468,0.447,1.157,2.944,3.821,6.023c-4.308,0.133-7.431,0.644-7.44,1.298      c-0.009,0.652,3.075,1.246,7.353,1.499c-2.896,3.089-4.7,5.613-4.246,6.079c0.453,0.466,3.028-1.269,6.197-4.081      c0.141,4.133,0.648,7.116,1.296,7.125c0.646,0.009,1.233-2.943,1.489-7.052c2.925,2.774,5.316,4.491,5.781,4.047      c0.468-0.447-1.157-2.944-3.821-6.023C315.608,184.723,318.731,184.212,318.74,183.558z"/>
				<path style="fill:#F48F58;" d="M203.607,166.706c0.009-0.652-3.075-1.246-7.354-1.499c2.896-3.089,4.7-5.613,4.246-6.079      c-0.454-0.466-3.028,1.269-6.197,4.081c-0.141-4.133-0.648-7.116-1.296-7.125c-0.645-0.009-1.234,2.943-1.489,7.052      c-2.925-2.774-5.316-4.491-5.781-4.047c-0.468,0.447,1.157,2.944,3.821,6.023c-4.308,0.133-7.431,0.644-7.44,1.298      c-0.009,0.652,3.076,1.246,7.353,1.499c-2.896,3.089-4.7,5.613-4.246,6.079c0.454,0.466,3.028-1.269,6.197-4.081      c0.141,4.133,0.648,7.116,1.296,7.125c0.645,0.009,1.233-2.943,1.489-7.052c2.925,2.774,5.316,4.491,5.781,4.047      c0.468-0.447-1.157-2.944-3.821-6.023C200.476,167.871,203.598,167.361,203.607,166.706z"/>
				<path style="fill:#F8C1C9;" d="M261.724,393.836c0.009-0.652-3.076-1.246-7.354-1.499c2.896-3.089,4.7-5.613,4.246-6.079      c-0.454-0.466-3.028,1.269-6.198,4.081c-0.141-4.133-0.648-7.116-1.296-7.125c-0.646-0.009-1.234,2.943-1.489,7.052      c-2.925-2.774-5.316-4.491-5.781-4.047c-0.468,0.447,1.157,2.944,3.821,6.023c-4.308,0.133-7.431,0.644-7.44,1.298      c-0.009,0.652,3.076,1.246,7.354,1.499c-2.896,3.089-4.7,5.613-4.246,6.079c0.454,0.466,3.028-1.27,6.198-4.081      c0.141,4.133,0.648,7.116,1.296,7.125c0.646,0.009,1.234-2.943,1.489-7.052c2.925,2.774,5.316,4.491,5.781,4.047      c0.468-0.447-1.157-2.944-3.821-6.023C258.593,395.001,261.715,394.49,261.724,393.836z"/>
			</g>
			<g>
				<path style="fill:#171F5C;" d="M285.403,326.978c-2.316,9.248-6.553,17.181-13.567,23.723      c-5.561,5.187-11.44-16.926-11.945-20.587c-1.088-7.883,0.344-15.934,3.599-23.139c2.337-5.173,8.52-11.175,12.543-3.587      c3.919,7.391-9.073,14.822-13.989,16.752c-1.976,0.776-3.15,3.486-0.099,2.566c7.164-2.161,13.434-6.019,18.03-11.99      c4.104-5.332,3.908-12.559-2.47-15.717c-6.039-2.989-13.614,1.188-18.303,4.789c-7.361,5.653-12.374,13.954-15.12,22.71      c-2.496,7.959-2.372,20.13,1.927,28.654c-2.286,6.324-4.875,12.375-8.586,18.202c-0.422,0.662-1.204-4.513-1.254-4.582      c-0.189-2.083,0.149-4.341,0.138-6.426c-0.027-4.977-0.456-9.907-0.295-14.902c0.626-19.366,6.76-38.584,4.66-58.026      c-1.599-14.802-18.411-9.385-23.162,0.007c-3.994,7.897-5.241,18.351-7.097,26.976c-0.576,2.674-1.092,5.356-1.572,8.044      c-0.188-3.101-0.257-6.21-0.246-9.316c0.018-5.208-2.689-9.877-8.626-7.876c-6.103,2.057-9.093,8.496-11.633,13.901      c-1.613,3.433-2.71,7.099-3.416,10.852c-0.188-0.858-0.377-1.716-0.546-2.576c-1.852-9.461-1.794-19.489-4.341-28.757      c-1.421-5.172-13.646,1.82-13.977,5.822c-1.864,9.321-0.482,19.521,0.685,28.873c1.191,9.539,2.632,20.213,7.904,28.38      c3.077,4.768,15.348-1.272,15.133-6.304c-0.142-3.326-0.632-6.605-1.273-9.864c0.229-0.285,0.37-0.584,0.364-0.876      c-0.125-6.193,0.622-12.029,2.353-17.994c0.676-2.33,7.609-16.746,8.391-15.597c1.141,1.678-0.269,6.052-0.583,7.79      c-0.652,3.61-1.046,7.262-1.403,10.911c-0.625,6.389-1.389,13.46,1.362,19.423c2.007,4.348,11.324-1.513,11.725-4.884      c0.041-0.349,0.054-0.695,0.08-1.043c0.105-0.174,0.186-0.35,0.212-0.525c1.368-9.394,3.11-18.718,5.137-27.991      c0.529-2.418,7.389-33.154,11.248-31.14c3.237,1.689,0.948,9.586,0.483,12.154c-0.937,5.171-1.913,10.325-3.043,15.457      c-2.206,10.01-4.289,20.125-5.811,30.262c-1.596,10.624-6.057,41.169,13.241,38.568c9.612-1.296,15.667-10.515,19.069-20.248      c3.002,2.316,6.839,3.539,11.645,3.049c16.353-1.667,27.134-21.076,29.327-35.705      C292.7,322.524,285.912,324.946,285.403,326.978z"/>
				<path style="fill:#171F5C;" d="M404.07,223.799c-3.428-4.814-17.163,1.214-16.461,6.857c0.545,4.388,1.568,8.094,0.915,12.565      c-0.581,3.973-2.819,7.336-5.433,10.301c-0.262-1.445-0.518-2.878-0.755-4.296c-0.896-5.362-1.578-10.73-2.097-16.141      c-0.46-4.795,0.022-9.596-1.144-14.29c-0.891-3.588-8.517-0.013-9.932,0.962c-0.775,0.534-1.549,1.068-2.324,1.602      c-0.96,0.661-2.952,2.524-1.58,3.711c-1.184,3.113-1.893,6.402-2.217,9.809c-1.54,4.064-3.283,8.042-5.282,11.971      c-1.777,3.494-3.842,6.822-5.976,10.105c-0.231,0.316-0.414,0.568-0.575,0.788c-0.908-1.528-0.543-4.514-0.643-6.228      c-0.421-7.227-1.485-14.129-1.044-21.411c0.332-5.474,3.946-13.582,1.59-18.567c-1.588-3.36-8.227,0.261-9.789,1.796      c-0.501,0.492-1.001,0.984-1.502,1.476c-0.283,0.278-0.796,0.906-0.954,1.491c-4.586,6.474-6.161,14.912-6.867,22.902      c-2.502,5.1-5.102,10.115-8.031,15.026c-1.754,2.94-3.618,5.806-5.534,8.643c-0.963,1.439-1.96,2.854-2.99,4.246      c-0.396,0.548-0.646,0.981-0.811,1.328c-0.058-0.204-0.153-0.433-0.306-0.686c-2.975-4.933-0.598-14.777,0.174-20.08      c0.915-6.285,4.176-12.569,2.545-18.867c-0.953-3.679-7.629-4.602-10.535-4.569c-2.055,0.023-4.175,0.555-6.13,1.148      c-0.129,0.039-0.245,0.061-0.371,0.097c2.305-11.75,2.1-22.392-7.201-19.257c-7.509,2.531-9.46,11.109-9.564,18.184      c-0.099,6.685,4.917,8.431,10.118,8.41c-0.555,3.036-1.27,6.035-2.124,8.996c-0.301,0.258-0.534,0.525-0.638,0.783      c-2.917,7.259-6.125,14.283-10.108,21.029c-1.771,3-3.786,5.843-5.856,8.641c-0.407-0.999-0.815-1.999-1.224-2.997      c-5.042-12.295,2.102-28.684,3.534-41.128c1.296-11.26-8.258-7.313-14.452-3.823c0.888-4.192,1.215-8.411,0.559-12.385      c-1.229-7.443-8.937-6.201-13.548-2.878c-5.265,3.794-8.77,18.112-2.995,22.673c2.532,2,5.464,2.63,8.606,1.559      c0.016-0.005,0.03-0.012,0.046-0.017c-1.869,3.934-3.684,7.884-5.682,11.729c-3.69,5.057-7.348,10.134-10.961,15.246      c-0.298,0.422-0.545,0.802-0.759,1.142c-0.632,0.507-1.275,0.948-1.93,1.318c-0.363-0.389-0.835-1.12-1.564-2.289      c-1.939-3.111-1.804-8.311-2.245-11.869c-1.116-9.006,2.216-26.4-9.745-27.718c-0.321-0.036-0.927,0.104-1.636,0.347      c-5.482-6.386-13.61-9.756-22.622-6.297c-12.853,4.933-20.976,15.046-24.673,28.18c-2.689,9.553-2.506,20.249,4.119,26.919      c-1.798,3.908-7.323,15.017-10.287,13.654c-3.424-1.574-2.571-7.493-2.271-10.397c0.621-6.007,1.875-11.932,2.451-17.952      c1.664-17.394,8.751-35.391,7.342-52.965c-1.032-12.874-14.459-10.877-20.118-2.496c-3.239,4.797-4.756,10.688-6.619,16.104      c-1.729,5.026-3.028,10.163-3.979,15.366c-0.508-3.359-1.043-6.722-1.777-10.031c-1.291-5.818-6.198-7.406-11.402-4.81      c-5.608,2.798-7.021,9.088-8.27,14.729c-0.832,3.758-1.419,7.52-1.752,11.291c-0.559-1.94-1.084-3.891-1.574-5.849      c-1.259-5.04-2.116-10.194-2.793-15.341c-0.555-4.222-0.457-8.598-2.195-12.53c-1.994-4.512-11.465,1.366-12.52,4.25      c-3.47,9.486-1.646,21.129,0.201,30.83c1.624,8.53,3.436,21.356,10.696,26.898c4.037,3.081,14.136-2.326,14.369-7.168      c0.087-1.799-0.156-3.474-0.581-5.098c-0.812-12.241,1.048-24.236,5.395-35.727c0.047-0.06,0.08-0.109,0.123-0.165      c0.228,0.942,0.314,1.901,0.24,2.881c0.047,3.598-0.192,7.206-0.188,10.807c0.008,6.242-1.175,13.575,1.133,19.443      c1.969,5.007,12.199-1.939,12.822-5.341c0.183-1.001,0.248-2.017,0.263-3.039c0.32-0.314,0.542-0.65,0.582-0.976      c1.459-11.648,4.327-22.969,8.528-33.929c1.058-2.759,5.455-16.941,8.728-12.506c3.302,4.475-2.419,14.162-4.037,18.533      c-3.651,9.869-6.217,20.451-8.596,30.69c-2.673,11.504-6.3,41.137,12.869,40.768c8.465-0.163,14.766-7.368,19.061-15.923      c0.018,0.008,0.034,0.019,0.052,0.027c10.394,4.66,24.686,1.088,33.431-6.459c1.81,2.244,4.367,3.988,7.817,5.173      c16.998,5.842,26.049-18.442,31.994-28.945c0.252-0.445,0.298-0.768,0.216-1.01c2.025-4.314,3.804-8.696,5.451-12.872      c0.807-0.476,1.613-0.954,2.402-1.459c0.418-0.128,0.789-0.25,1.125-0.367c-3.687,9.289-7.288,18.266-9.548,28.125      c-1.689,7.367-4.473,21.975,3.569,26.594c7.372,4.235,17.161-3.303,20.898-9.185c6.339-9.98,11.726-20.552,15.062-31.93      c0.05-0.171,0.074-0.323,0.078-0.457c0.867-2.706,1.768-5.745,2.583-8.89c0.096-0.017,0.197-0.032,0.292-0.049      c7.169-1.335,0.498,12.032-0.361,14.999c-1.534,5.293-2.389,10.788-2.964,16.257c-0.932,8.863,0.172,17.557,10.471,18.381      c9.671,0.774,16.321-8.145,19.8-15.75c2.001-4.375,4.165-8.662,6.265-12.973c0.906,6.497,3.731,12.32,11.167,13.565      c7.272,1.218,13.714-4.693,16.888-10.569c1.209-2.238,2.32-4.509,3.365-6.803c0.692,6.367,1.872,12.717,2.731,18.603      c-2.896,2.196-5.74,4.454-8.353,6.979c-10.294,9.948-18.076,32.598,0.373,38.878c6.07,2.066,12.827-2.371,16.825-6.449      c6.314-6.439,9.627-16.943,10.663-25.672c0.733-6.175,0.107-12.573-0.888-18.902c0.647-0.399,1.294-0.797,1.928-1.213      C396.735,254.988,413.334,236.809,404.07,223.799z M212.348,260.327c-6.922,3.334-12.171,5.666-19.462,1.574      c-5.846-3.281-5.98-11.808-5.811-17.621c0.198-6.802,2.763-13.371,6.774-18.783c7.173-9.679,18.886-1.471,23.535,6.176      c-0.665,2.432-1.731,4.898-1.998,6.128c-1.25,5.76-1.872,11.336-2.052,17.225c-0.052,1.724,0.036,3.341,0.265,4.854      C213.11,260.016,212.677,260.168,212.348,260.327z M256.91,226.914c-4.339,0.515-5.109-5.145-4.654-9.932      c-0.328-2.551,1.008-3.878,4.008-3.98c1.195,1.679,1.198,4.079,1.248,6.045C257.58,221.673,257.343,224.305,256.91,226.914z       M294.424,225.555c-2.655-1.122-3.532-4.314-3.232-8.525c0.219-1.967,0.612-3.901,1.178-5.8      c2.066,1.088,2.942,2.658,2.627,4.712C295.125,219.122,294.812,222.365,294.424,225.555z M367.109,305.933      c-2.752,7.633-11.095-1.312-12.808-4.956c-4.672-9.938,4.084-21.137,11.464-26.688c0.339-0.255,0.692-0.49,1.037-0.737      c0.857,7.524,1.469,15.254,1.703,22.783C368.607,299.641,368.231,302.822,367.109,305.933z"/>
			</g>
		</g>
	</g>
</g>















</svg>
