<?xml version="1.0" encoding="UTF-8"?>
<!-- Generator: Adobe Illustrator 25.2.1, SVG Export Plug-In . SVG Version: 6.00 Build 0)  -->
<svg xmlns="http://www.w3.org/2000/svg" xmlns:xlink="http://www.w3.org/1999/xlink" version="1.1" id="Capa_1" x="0px" y="0px" viewBox="0 0 512 512" style="enable-background:new 0 0 512 512;" xml:space="preserve" width="512" height="512">
<g>
	<path style="fill:#FAF9EF;" d="M511.313,168.132c1.336-4.603,0.706-9.554-1.743-13.675c-2.445-4.117-6.483-7.04-11.176-8.067   l-22.237-4.881c-0.587-1.281-1.195-2.547-1.83-3.797c0.859-3.026,0.787-5.815,0.105-8.361c1.551-3.335,2.002-7.375,0.524-12.255   c-1.253-4.096-3.923-7.525-7.479-9.775c-1.255-3.459-3.793-6.645-8.31-9.058c-1.095-0.584-2.308-1.072-3.502-1.411   c-3.308-0.936-6.277-0.931-8.933-0.292c-3.248-1.289-7.29-1.644-10.87-0.767c-10.409-6.821-21.954-12.185-34.158-15.826   c-5.301-2.08-11.114-3.384-17.216-3.884c-15.036-2.328-29.78-1.957-43.844,1.107c-33.513,7.3-65.282,27.791-90.179,57.575   c-9.428-15.787-20.729-29.808-33.523-41.539c-0.105-0.472-0.215-0.874-0.313-1.201c-1.621-5.325-5.633-9.546-10.897-11.563   c-1.141-6.329-5.073-10.008-9.074-12.142c-1.083-0.575-2.316-1.07-3.497-1.404c-4.577-1.296-8.559-0.728-11.935,0.749   c-2.193-1.389-5.126-2.506-8.142-2.769c-0.911-0.381-1.813-0.742-2.714-1.092c-7.851-3.061-16.258-5.273-24.965-6.57   c-3.236-2.937-7.572-4.647-12.238-4.484l-27.189,0.941c-5.241,0.181-9.978,2.707-13.061,6.662   c-13.536,3.64-26.268,9.386-37.529,16.937c-4.472-1.851-9.538-1.741-13.935,0.313l-15.197,7.094   c-5.433,2.537-9.167,7.699-9.873,13.653l-4.913,41.445c-3.631,13.351-5.368,27.982-5.161,43.526L0.121,235.5   c-0.77,6.501,2.191,12.88,7.653,16.487l14.378,9.496c0.164,0.415,0.33,0.829,0.496,1.237c2.263,5.602,4.722,11.214,7.354,16.792   c-2.079,5.56-1.043,10.504,1.442,14.755c-3.668,4.257-5.537,9.706-3.398,16.721c1.767,5.83,6.39,10.35,12.397,12.146   c0.515,5.463,3.128,10.441,9.49,13.831c1.093,0.583,2.355,1.091,3.548,1.428c4.405,1.247,8.291,0.833,11.711-0.582   c7.649,10.169,15.926,19.997,24.759,29.389c-0.578,6.023-0.974,10.874-1.204,14.709c-0.471,7.891-1.348,22.579,12.85,26.598   c0.505,0.143,1.029,0.266,1.544,0.364l31.911,5.978c2.91,0.542,5.875,0.328,8.629-0.583c23.065,16.688,48.392,31.274,75.52,43.47   c0.777,0.35,1.574,0.639,2.385,0.868c3.01,0.852,6.212,0.877,9.264,0.049c17.598-4.79,34.907-10.664,51.515-17.48   c17.007,0.888,33.629-2.396,48.329-9.581c15.249-7.454,27.373-18.132,39.096-28.457c3.783-3.333,7.355-6.479,11.008-9.503   c14.719-12.173,27.299-18.331,38.454-18.829c7.829-0.347,14.448-5.91,16.139-13.561l0.926-4.192   c3.293-14.88,6.696-30.262,9.727-45.565c3.34-4.932,6.496-9.866,9.42-14.73c1.656-2.753,3.322-5.686,4.971-8.754   c17.911-15.252,26.114-34.76,32.272-53.676c4.405-13.541,8.088-27.392,11.648-40.786   C506.584,185.149,508.891,176.475,511.313,168.132z"/>
	<g>
		<g>
			<path style="fill:#F48F58;" d="M445.667,126.515C420.49,99.346,380.15,86.305,344.33,94.109     c-40.223,8.763-74.31,37.956-96.486,73.858c-16.292-38.927-45.398-73.089-83.758-88.03c-34.161-13.306-76.043-6.73-105.157,16.17     C12.042,132.991,19.002,207.527,38.7,256.233c35.072,86.721,105.414,148.758,187.602,185.711     c86.953-23.654,166.126-73.935,214.32-154.11C467.69,242.805,486.214,170.272,445.667,126.515z"/>
		</g>
		<g>
			<g>
				<polygon style="fill:#C62566;" points="106.578,70.995 78.233,178.923 48.776,93.293 33.58,100.387 17.318,237.537       54.084,261.822 55.612,197.964 86.484,242.926 111.329,183.147 125.675,243.237 160.568,237.741 133.767,70.055     "/>
			</g>
			<g>
				<path style="fill:#C62566;" d="M329.143,182.833c10.873-12.839,8.13-32.156-5.827-41.54c-7.657-5.148-17.252-6.769-26.464-6.267      c-9.212,0.503-19.851,4.746-28.743,7.207l-2.19,98.798l21.409,1.683l0.975-44.73c0.628-0.026,1.268-0.072,1.905-0.11      l35.524,46.691l22.763-17.454l-35.912-33.58C319.168,191.137,325.046,187.669,329.143,182.833z M303.742,176.471      c-4.024,3.417-9.422,4.759-14.739,4.805c0.137-9.114,0.203-18.229,0.242-27.345c3.06-0.65,6.216-0.853,9.26-0.191      c3.856,0.838,7.505,3.177,9.295,6.694C310.5,165.736,308.277,172.62,303.742,176.471z"/>
			</g>
			<g>
				<path style="fill:#C62566;" d="M410.9,187.417l-19.643-35.659c6.586-2.394,12.465-5.862,16.561-10.698      c10.873-12.839,8.131-32.156-5.827-41.54c-7.657-5.148-17.251-6.769-26.464-6.267c-9.212,0.503-19.851,4.746-28.743,7.207      l-5.157,104.717l21.34,0.167l4.011-49.133c0.628-0.026,1.268-0.072,1.905-0.11l20.842,47.42L410.9,187.417z M383.022,134.485      c-4.298,3.402-10.083,4.717-15.787,4.733c0.096-9.134,0.116-18.269,0.107-27.404c3.28-0.634,6.665-0.82,9.935-0.14      c4.142,0.861,8.07,3.226,10.011,6.761C390.213,123.763,387.866,130.65,383.022,134.485z"/>
			</g>
			<g>
				<path style="fill:#C62566;" d="M473.169,158.581c-1.185-0.26-2.37-0.52-3.556-0.781c-0.892,10.269-3.613,20.369-7.935,29.724      c-2.74,5.93-8.191,20.528-16.267,18.574c-17.081-4.135-5.797-52.643-4.168-52.473c-6.794-0.708-12.776-1.938-19.35-3.664      c-5.598,14.498-8.869,29.891-9.642,45.412c-0.412,8.265,0.099,17.207,5.212,23.714c5.92,7.533,16.463,9.742,26.035,9.352      c-1.302,13.936-10.723,26.815-23.61,32.275c-5.083,2.154-10.914,3.193-16.127,1.375c-8.262-2.881-12.707-12.115-13.51-20.828      c-0.648-7.036,0.477-14.079,1.017-21.136c-7.352-0.156-14.694-0.505-22.031-0.98c-2.189,10.889-4.101,21.932-3.052,32.959      c1.162,12.218,6.518,24.636,16.738,31.432c7.873,5.236,17.752,6.612,27.196,6.167c12.27-0.579,24.572-4.12,34.543-11.295      c17.334-12.473,25.159-29.729,31.575-49.442c7.007-21.53,12.126-43.901,18.445-65.664      C487.512,161.729,480.34,160.155,473.169,158.581z"/>
			</g>
			<g>
				<g>
					<path style="fill:#C62566;" d="M243.963,167.879c-6.393-19.164-21.409-34.758-42.448-36.296       c-12.856-0.94-25.604,1.775-38.058,4.54c0.234,7.18,0.566,14.355,0.995,21.526c7.397-1.502,14.886-2.886,22.405-2.394       c10.84,0.709,22.381,0.153,27.767,11.306c0.082,0.169,0.132,0.349,0.209,0.52c-11.337-1.431-23.259-2.303-33.433,2.359       c-13.88,6.36-22.211,22.11-21.697,37.369c0.29,8.615,3.246,17.352,9.295,23.492c7.089,7.197,17.592,10.089,27.691,10.349       c1.294,0.033,14.064-1.122,23.688-2.384c-0.027,2.076-0.055,4.151-0.085,6.225c7.839,0.839,15.678,1.678,23.517,2.517       c0.508-14.109,1.017-28.217,1.525-42.325C245.778,192.359,247.881,179.624,243.963,167.879z M203.977,219.401       c-5.964-0.209-15.937-0.936-19.756-6.25c-8.201-11.411,1.376-23.603,13.451-25.419c1.18-0.177,12.804-0.064,21.35,0.445       c0.96,9.972,1.329,19.992,1.425,30.024C214.99,219.025,209.492,219.595,203.977,219.401z"/>
				</g>
			</g>
		</g>
		<g>
			<g>
				<path style="fill:#322F47;" d="M341.649,282.567c-2.89-7.825-8.113-14.844-14.949-19.654c-0.328-0.231-0.66-0.457-0.994-0.678      c-18.255-12.064-44.016-9.871-61.002,3.45c-17.278,13.552-25.346,42.613-19.323,63.68c5.929,20.738,30.866,37.105,52.083,33.57      c11.026-1.837,20.967-8.3,28.258-16.773c6.888-8.005,11.537-17.72,14.721-27.803c-10.987-0.591-21.976-1.163-32.981-1.167      c-0.988,5.157-2.174,10.341-4.884,14.814c-5.544,9.149-16.649,10.97-24.716,3.432c-8.037-7.514-4.944-20.952-4.196-30.436      c22.711,2.217,45.539,3.244,68.358,3.075C344.81,308.058,342.691,285.388,341.649,282.567z M278.28,289.436      c0.633-5.501,4.206-10.624,9.165-13.174c5.739-2.951,12.983-2.499,18.526,0.805c5.373,3.201,9.071,8.892,10.258,15.035      C303.59,291.501,290.927,290.073,278.28,289.436z"/>
			</g>
			<g>
				<path style="fill:#322F47;" d="M409.175,307.004c-8.938,1.276-17.714,3.659-26.086,7.035      c-7.671,3.092-15.011,7.024-21.829,11.71c-7.442,5.115-14.262,11.13-20.211,17.933c-9.961,11.392-17.549,24.788-28.241,35.498      c-7.002,7.014-15.842,12.924-25.621,15.11c-10.975,2.453-17.985-1.389-26.902-7.49c-25.651-17.551-26.214-54.912-26.554-82.911      c-0.043-3.51,1.858-45.676,2.632-53.797l-46.978-3.694c-5.303,24.358-11.213,56.45-16.515,80.808      c-6.045-21.199-12.09-42.399-18.134-63.598c-0.513-1.8-1.077-3.631-1.949-5.271c-10.75-0.239-21.493-1.163-32.252-2.081      c-2.645,23.267-17.6,134.938-14.208,135.595c10.637,1.993,21.275,3.986,31.913,5.979c2.64-24.094,4.298-45.185,7.358-73.094      c2.512,15.788,5.588,32.342,9.004,47.749c13.715,0.494,22.983,0.827,36.698,1.321c3.876-15.689,11.201-31.465,13.055-47.518      c-1.834,15.877,0.677,32.7,5.854,47.738c4.42,12.841,14.728,23.393,25.209,31.931c24.086,19.621,59.761,23.722,87.671,10.08      c17.658-8.631,31.528-23.216,46.673-35.744c14.06-11.63,30.696-21.983,48.72-22.784c3.674-16.627,7.387-33.246,10.687-49.951      C422.484,307.077,416.412,305.971,409.175,307.004z"/>
			</g>
		</g>
		<g>
			<path style="fill:#171F5C;" d="M198.495,114.94c0.672-1.259-4.734-5.516-12.806-10.307c8.74-3.103,14.787-6.201,14.373-7.564     c-0.414-1.363-7.169-0.572-16.164,1.715c3.88-8.185,5.89-14.501,4.638-15.169c-1.248-0.666-5.358,4.488-9.985,12.23     c-2.904-8.339-5.834-14.082-7.185-13.686c-1.36,0.399-0.707,6.894,1.385,15.562c-8.519-4.071-15.109-6.215-15.784-4.95     c-0.672,1.259,4.734,5.516,12.806,10.307c-8.74,3.103-14.787,6.201-14.373,7.564c0.414,1.363,7.169,0.572,16.164-1.715     c-3.88,8.185-5.889,14.501-4.639,15.169c1.248,0.666,5.358-4.488,9.985-12.23c2.904,8.339,5.834,14.082,7.185,13.686     c1.36-0.399,0.707-6.893-1.385-15.562C191.23,114.061,197.82,116.205,198.495,114.94z"/>
			<path style="fill:#171F5C;" d="M94.973,310.991c0.786-1.472-5.531-6.445-14.964-12.044c10.213-3.626,17.279-7.246,16.795-8.839     c-0.484-1.593-8.376-0.669-18.887,2.004c4.533-9.564,6.882-16.944,5.419-17.725c-1.458-0.778-6.261,5.245-11.667,14.29     c-3.394-9.743-6.817-16.455-8.396-15.992c-1.589,0.466-0.826,8.055,1.618,18.184c-9.954-4.757-17.655-7.262-18.444-5.784     c-0.785,1.472,5.531,6.445,14.964,12.044c-10.213,3.626-17.279,7.246-16.795,8.839c0.484,1.593,8.376,0.668,18.887-2.004     c-4.533,9.563-6.882,16.945-5.42,17.725c1.458,0.778,6.261-5.245,11.667-14.29c3.394,9.743,6.817,16.455,8.396,15.992     c1.589-0.466,0.826-8.055-1.618-18.184C86.484,309.964,94.184,312.468,94.973,310.991z"/>
			<path style="fill:#171F5C;" d="M457.389,133.613c0.431-0.807-3.033-3.535-8.206-6.605c5.601-1.988,9.476-3.974,9.211-4.847     c-0.265-0.874-4.594-0.367-10.358,1.099c2.486-5.245,3.774-9.293,2.972-9.721c-0.799-0.427-3.434,2.877-6.398,7.837     c-1.861-5.344-3.739-9.024-4.605-8.77c-0.871,0.256-0.453,4.418,0.887,9.973c-5.459-2.609-9.683-3.983-10.115-3.173     c-0.431,0.807,3.034,3.535,8.206,6.605c-5.601,1.988-9.476,3.974-9.211,4.847c0.265,0.874,4.594,0.367,10.358-1.099     c-2.486,5.245-3.774,9.293-2.972,9.721c0.799,0.427,3.434-2.876,6.398-7.837c1.861,5.344,3.739,9.025,4.605,8.77     c0.872-0.256,0.453-4.417-0.887-9.973C452.734,133.049,456.957,134.423,457.389,133.613z"/>
			<path style="fill:#C62566;" d="M207.829,410.467c0.431-0.808-3.037-3.539-8.217-6.614c5.608-1.991,9.488-3.979,9.223-4.854     c-0.266-0.875-4.6-0.367-10.371,1.1c2.489-5.252,3.779-9.305,2.976-9.733c-0.8-0.427-3.438,2.88-6.406,7.847     c-1.864-5.35-3.744-9.036-4.611-8.781c-0.873,0.256-0.453,4.423,0.888,9.985c-5.466-2.612-9.695-3.987-10.128-3.176     c-0.431,0.808,3.038,3.539,8.217,6.613c-5.608,1.991-9.488,3.979-9.223,4.854c0.266,0.875,4.6,0.367,10.371-1.1     c-2.489,5.252-3.779,9.305-2.976,9.733c0.8,0.427,3.438-2.88,6.407-7.847c1.864,5.35,3.744,9.036,4.611,8.782     c0.873-0.256,0.453-4.423-0.888-9.985C203.168,409.903,207.396,411.278,207.829,410.467z"/>
			<path style="fill:#C62566;" d="M374.594,298.702c0.327-0.612-2.299-2.679-6.22-5.006c4.245-1.507,7.182-3.012,6.981-3.674     c-0.201-0.662-3.482-0.278-7.85,0.833c1.884-3.975,2.86-7.043,2.253-7.368c-0.606-0.323-2.602,2.18-4.849,5.94     c-1.411-4.05-2.833-6.84-3.49-6.647c-0.661,0.194-0.343,3.348,0.673,7.558c-4.138-1.977-7.339-3.018-7.666-2.404     c-0.326,0.612,2.299,2.679,6.22,5.006c-4.245,1.507-7.182,3.012-6.981,3.674c0.201,0.662,3.482,0.278,7.85-0.833     c-1.884,3.975-2.86,7.043-2.253,7.368c0.606,0.324,2.602-2.18,4.849-5.94c1.41,4.05,2.833,6.84,3.49,6.647     c0.661-0.194,0.343-3.348-0.673-7.558C371.065,298.275,374.266,299.315,374.594,298.702z"/>
		</g>
		<g>
			<path style="fill:#F48F58;" d="M410.504,331c-28.099,3.976-48.57,20.74-67.225,41.068     c-10.522,11.465-19.985,23.843-33.806,31.514c-14.593,8.099-31.56,5.932-46.453,0.128     c-50.327-19.613-51.932-85.134-51.257-130.35c0.018-1.22-0.968-1.863-1.915-1.876c-0.845-0.288-1.882-0.048-2.295,1.023     c-10.941,28.366-21.882,56.733-32.822,85.099c-11.69-26.408-23.069-52.952-34.793-79.344c-0.073-0.164-0.18-0.267-0.277-0.388     c0.038-0.23,0.076-0.459,0.115-0.689c0.383-2.303-3.227-2.567-3.607-0.283c-5.619,33.742-11.239,67.484-16.859,101.226     c-0.383,2.303,3.227,2.567,3.607,0.284c5.229-31.396,10.458-62.792,15.687-94.188c11.606,26.227,22.911,52.587,34.553,78.797     c0.051,0.114,0.115,0.214,0.19,0.313c0.439,0.732,1.174,0.914,1.855,0.722c0.556-0.089,1.076-0.406,1.338-1.086     c10.51-27.248,21.019-54.497,31.529-81.745c-0.262,43.953,3.518,96.367,44.49,121.328c21.719,13.231,47.28,13.209,67.852-1.694     c13.974-10.123,24.45-25.843,36.6-37.939c14.996-14.927,33.078-25.38,54.179-28.366C413.499,334.226,412.81,330.673,410.504,331z     "/>
			<path style="fill:#F48F58;" d="M282.333,349.352c18.879,7.326,37.351-7.453,42.804-24.719c0.702-2.223-2.7-3.457-3.403-1.232     c-5.382,17.041-20.282,27.001-38.169,22.549c-18.125-4.512-24.007-27.672-22.725-43.561c0.169-2.09,0.536-4.077,1.023-5.992     c22.777,0.633,45.555,1.266,68.333,1.899c0.651,0.018,1.124-0.265,1.444-0.665c0.37-0.363,0.614-0.864,0.549-1.508     c-2.07-20.377-18.705-32.549-38.613-31.467c-19.991,1.086-33.219,19.283-36.342,37.45     C253.978,321.041,264.331,342.366,282.333,349.352z M328.313,294.628c-21.78-0.605-43.56-1.211-65.341-1.816     C274.059,263.19,322.713,258.354,328.313,294.628z"/>
			<path style="fill:#171F5C;" d="M480.024,170.444c-3.178,13.884-6.386,27.979-10.665,41.673     c-13.302,11.324-33.234,12.546-42.341-4.887c-7.411-14.186,0.865-33.664,2.413-48.339c0.245-2.323-3.363-2.6-3.607-0.284     c-2.078,19.694-11.818,42.603,4.254,58.978c10.351,10.546,26.08,7.815,37.336,0.498c-4.37,12.834-9.84,25.23-17.336,36.652     c-10.696,16.3-28.914,27.568-48.747,22.683c-21.29-5.245-25.295-31.396-21.197-49.194c0.518-2.248-2.881-3.5-3.403-1.232     c-3.567,15.489-2.209,30.153,7.576,43.061c9.154,12.075,27.04,15.279,40.683,9.855c40.364-16.048,49.922-71.04,58.435-108.231     C483.942,169.429,480.544,168.176,480.024,170.444z"/>
			<path style="fill:#171F5C;" d="M349.945,196.982c-0.209,2.325,3.398,2.606,3.607,0.284c1.457-16.244,2.649-32.503,3.595-48.776     c5.445,0.561,12.099,0.559,18.744-0.354c6.376,14.129,12.752,28.259,19.128,42.388c0.96,2.127,4.218,0.552,3.258-1.576     c-6.23-13.806-12.459-27.611-18.689-41.417c13.675-2.624,26.306-9.461,26.938-23.692c1.112-25.031-32.679-25.239-48.996-23.534     c-0.117,0.012-0.193,0.066-0.295,0.094c-0.844,0.001-1.655,0.497-1.686,1.591C354.649,133.711,352.781,165.375,349.945,196.982z      M402.797,126.294c-0.792,17.84-32.121,19.875-45.464,18.575c0.764-13.689,1.366-27.388,1.769-41.098     C375.942,102.115,403.858,102.41,402.797,126.294z"/>
			<path style="fill:#171F5C;" d="M275.867,233.024c0.792-14.365,1.584-28.73,2.375-43.095c5.312,0.358,11.163,0.48,16.91-0.04     c0.07,0.174,0.139,0.35,0.279,0.518c11.771,14.176,23.543,28.353,35.314,42.529c1.493,1.798,4.242-0.555,2.751-2.35     c-11.402-13.732-22.804-27.464-34.206-41.195c13.422-2.031,25.334-8.243,26.984-24.138c0.924-8.91-6.751-17.118-14.238-20.604     c-10.605-4.937-21.535-5.387-32.51-1.702c-1.02-0.346-2.322,0.094-2.399,1.482c-1.622,29.437-3.245,58.874-4.867,88.31     C272.131,235.067,275.738,235.356,275.867,233.024z M321.861,169.726c-4.468,18.284-28.843,17.627-43.42,16.592     c0.734-13.326,1.469-26.653,2.203-39.979C296.605,140.983,327.509,146.613,321.861,169.726z"/>
			<path style="fill:#171F5C;" d="M87.141,213.069c8.592-35.376,18.318-70.442,29.101-105.209     c8.487,39.501,17.243,78.943,26.319,118.313c0.522,2.265,4.079,1.594,3.554-0.685c-9.598-41.633-18.862-83.34-27.803-125.118     c-0.158-0.737-0.646-1.136-1.206-1.3c-0.039-0.016-0.078-0.026-0.118-0.039c-0.081-0.018-0.158-0.037-0.241-0.045     c-0.616-0.12-1.243,0.053-1.64,0.619c-0.119,0.137-0.199,0.302-0.265,0.478c-0.002,0.005-0.006,0.008-0.007,0.013     c0,0-0.002,0.005-0.002,0.007c-0.031,0.086-0.065,0.168-0.08,0.263c-11.215,35.691-21.25,71.716-30.153,108.051     c-13.911-23.599-27.049-47.615-39.316-72.113c-0.093-0.347-0.3-0.604-0.563-0.8c-0.053-0.047-0.111-0.077-0.168-0.115     c-0.087-0.05-0.169-0.098-0.263-0.133c-0.175-0.075-0.351-0.119-0.538-0.132c0,0-0.003-0.001-0.005-0.001     c-0.201-0.014-0.396,0.001-0.593,0.05c-0.064,0.014-0.123,0.035-0.185,0.055c-0.126,0.045-0.242,0.094-0.357,0.162     c-0.094,0.053-0.179,0.114-0.262,0.185c-0.112,0.093-0.204,0.197-0.291,0.312c-0.034,0.048-0.069,0.091-0.098,0.143     c-0.122,0.199-0.196,0.418-0.221,0.66c-0.001,0.01-0.008,0.016-0.009,0.027c-0.003,0.022-0.005,0.043-0.008,0.064     c-0.002,0.045-0.019,0.084-0.016,0.129c-3.975,32.043-7.949,64.085-11.924,96.128c-0.287,2.318,3.321,2.592,3.607,0.284     c3.738-30.135,7.476-60.27,11.215-90.406c12.218,24.108,25.221,47.783,39.034,71.02c0.288,0.484,0.702,0.752,1.143,0.861     c0.759,0.312,1.619,0.145,2.019-0.677C87.036,213.824,87.185,213.473,87.141,213.069z"/>
			<path style="fill:#171F5C;" d="M229.749,167.14c-10.85-24.416-29.318-25.49-53.785-24.398c-2.346,0.105-2.357,3.759,0,3.654     c12.19-0.544,23.431-1.924,34.936,3.235c10.646,4.775,15.473,16.829,18.484,27.548c-20.671-7.676-58.956-5.457-61.597,22.563     c-1.225,12.997,5.617,22.433,16.619,28.644c13.989,7.897,32.296,3.699,46.979,0.414c-0.302,3.909-0.594,7.744-0.795,11.448     c-0.128,2.356,3.526,2.343,3.654,0C235.518,216.843,239.584,189.271,229.749,167.14z M230.951,225.156     c-20.901,4.67-57.389,9.162-59.859-21.714c-1.142-14.278,14.215-22.565,25.449-25.819c11.286-3.269,23.564-0.887,33.968,3.935     c3.181,13.593,2.27,28.993,1.157,43.583C231.444,225.106,231.209,225.098,230.951,225.156z"/>
		</g>
	</g>
</g>















</svg>
