<?xml version="1.0" encoding="UTF-8"?>
<!-- Generator: Adobe Illustrator 25.2.1, SVG Export Plug-In . SVG Version: 6.00 Build 0)  -->
<svg xmlns="http://www.w3.org/2000/svg" xmlns:xlink="http://www.w3.org/1999/xlink" version="1.1" id="Capa_1" x="0px" y="0px" viewBox="0 0 512 512" style="enable-background:new 0 0 512 512;" xml:space="preserve" width="512" height="512">
<g>
	<path style="fill:#FAF9EF;" d="M2.726,346.708c2.203,3.493,6.623,7.818,15.167,8.592l0.698,0.059   c12.356,0.935,25.358-3.094,36.713-11.356c-0.034,1.959,0.028,3.922,0.19,5.88c0.891,10.676,7.083,15.083,10.689,16.757   c1.92,0.893,3.972,1.426,6.101,1.587c3.738,0.283,7.436-0.564,11.308-2.59c0.593-0.312,1.182-0.636,1.763-0.974   c-1.544,3.231-2.964,6.56-4.248,9.964c-0.468,1.239-0.905,2.49-1.343,3.761c-8.666,25.319-9.671,54.224-2.829,81.388   c1.692,6.707,7.899,11.311,14.758,11.019c34.42-1.427,68.259-17.323,91.488-42.773c6.53,13.481,15.902,25.62,27.371,35.122   c5.965,4.945,14.754,4.363,20.02-1.32c9.834-10.613,17.573-23.232,22.731-36.825c9.267,5.436,19.736,8.776,30.612,9.599   c8.845,0.669,17.629-0.302,26.102-2.887c19.625-5.985,35.492-19.992,43.9-38.317c38.531-7.236,68.678-36.828,76.835-74.939   c1.729,0.926,3.473,1.769,5.225,2.522c9.263,3.981,19.177,6.395,29.466,7.173c12.255,0.928,24.865-0.575,36.47-4.344   c7.206-2.341,11.423-9.808,9.707-17.189c-4.841-20.821-16.389-39.822-32.519-53.504c-3.201-2.716-6.605-5.233-10.172-7.529   c1.032-0.853,2.048-1.726,3.045-2.617c4.747-4.245,9.224-9.033,13.313-14.238c0.665-0.848,1.31-1.712,1.938-2.561   c14.515-19.578,23.209-44.399,24.484-69.889c0.342-6.873-4.159-13.051-10.806-14.83c-7.032-1.881-14.333-3.118-21.7-3.676   c-0.002,0-0.002,0-0.004,0c-16.956-1.283-34.377,1.052-50.37,6.747c-1.062,0.378-2.11,0.784-3.324,1.258   c-3.952,1.541-7.785,3.268-11.462,5.164c-3.809-51.968-45.253-94.858-98.749-98.907c-39.688-3.004-76.574,15.692-97.602,47.869   c-3.934-3.796-8.154-4.973-11.346-5.215c-0.688-0.052-1.386-0.065-2.085-0.034c-0.248,0.011-0.5,0.028-0.759,0.05   c-0.616-5.995-2.134-11.897-4.53-17.459c-4.242-9.841-11.519-12.047-15.477-12.485c-4.083-0.475-10.22,0.28-16.176,6.499   c-1.144,1.195-2.226,2.453-3.245,3.771c-0.466-1.205-0.973-2.391-1.52-3.557c-5.504-11.762-14.876-21.549-26.385-27.555   c-3.021-1.579-5.91-2.454-8.83-2.675c-3.974-0.301-7.797,0.651-11.065,2.755c-3.47,2.237-7.751,6.699-8.443,15.247   c-1.046,12.877,3.305,26.404,12.248,38.087c0.829,1.084,1.694,2.152,2.598,3.206c-2.503,0.397-4.982,0.954-7.423,1.671   c-10.28,3.018-13.351,9.974-14.273,13.869c-0.943,4.014-0.929,10.192,4.502,16.831c6.719,8.208,16.359,14.208,27.648,17.316   c-1.784,2.934-2.363,5.803-2.519,7.816c-0.318,4.117,0.648,10.226,7.034,15.944c5.869,5.259,13.059,9.047,21.167,11.202   c-15.988,17.396-26.143,39.945-27.994,64.401c-0.114,1.508-0.178,3.006-0.232,4.519c-0.05,1.524-0.06,3.038-0.048,4.542   c0.002,0.242,0.004,0.484,0.008,0.727c-8.148-5.084-17.422-8.126-27.11-8.86c-1.604-0.121-3.228-0.178-4.828-0.166   c-10.717,0.074-15.583,5.92-17.531,9.399c-0.758,1.355-1.47,3.041-1.882,5.038c-9.92-3.369-20.924-4.087-31.253-1.954   c-10.486,2.169-14.115,8.844-15.348,12.632c-1.275,3.924-1.774,10.086,3.098,17.159c1.167,1.694,2.451,3.312,3.842,4.852   c-3.043,0.834-6.016,1.908-8.886,3.217c-11.818,5.392-21.694,14.67-27.809,26.119C-2.217,336.271,0.6,343.34,2.726,346.708z"/>
	<g>
		<g>
			<path style="fill:#3CC380;" d="M424.658,244.098c18.174,1.139,35.76,8.194,49.514,19.861     c13.754,11.668,23.608,27.891,27.745,45.677c-18.24,5.925-38.378,5.072-55.66-2.357c-19.157-8.235-35.349-29.01-41.303-48.896"/>
		</g>
		<g>
			<path style="fill:#4BD890;" d="M412.416,249.394c-0.291,0.244,2.47,4.226,7.804,9.945c5.32,5.717,13.362,13.036,23.24,19.779     c9.892,6.723,19.646,11.527,26.912,14.387c7.273,2.872,11.988,3.987,12.109,3.627c0.359-0.917-17.888-7.241-37.283-20.566     C425.695,263.398,413.139,248.725,412.416,249.394z"/>
		</g>
		<g>
			<path style="fill:#2AA565;" d="M19.586,338.631c0.837,1.326,2.58,1.702,4.142,1.844c10.03,0.911,20.069-2.979,28.125-9.023     c6.289-4.718,11.492-10.68,16.167-17.03c2.861-1.259,5.935-2.407,9.11-3.664c6.861-2.451,14.461-4.695,22.538-6.462     c-7.362,3.61-13.744,9.222-18.168,16.13c-5.271,8.23-7.751,18.214-6.945,27.955c0.152,1.835,0.624,3.959,2.294,4.735     c1.422,0.66,3.091,0.031,4.48-0.697c8.921-4.674,15.246-13.386,18.738-22.833c3.099-8.384,4.151-17.359,4.515-26.311     c9.649-1.695,18.97-2.451,27.471-2.63c2.558,0.033,5.034,0.033,7.433,0.092c-7.244,2.245-13.931,6.298-19.191,11.765     c-6.777,7.042-11.16,16.349-12.272,26.059c-0.21,1.83-0.162,4.004,1.325,5.092c1.266,0.926,3.025,0.634,4.529,0.191     c9.662-2.841,17.567-10.15,22.837-18.732c4.516-7.356,7.271-15.623,9.351-24.024c1.295,0.072,2.57,0.139,3.791,0.277     c1.727,0.201,3.427,0.4,5.103,0.595c3.272,0.283,6.172,0.904,8.757,1.289c1.218,0.195,2.416,0.386,3.6,0.576     c1.014,0.208,2.013,0.413,3.003,0.616c3.624,0.704,5.698,0.938,5.808,0.597c0.109-0.34-1.762-1.225-5.274-2.542     c-0.968-0.352-1.944-0.706-2.935-1.066c-1.085-0.351-2.285-0.651-3.568-1.007c-2.576-0.666-5.495-1.553-8.811-2.08     c-1.704-0.31-3.433-0.625-5.19-0.946c-1.193-0.205-2.438-0.341-3.704-0.476c-2.71-9.185-8.417-17.462-16.068-23.222     c-7.809-5.878-17.576-9.106-27.35-9.038c-1.842,0.013-3.995,0.323-4.894,1.93c-0.766,1.368-0.264,3.079,0.357,4.52     c3.986,9.249,12.195,16.214,21.351,20.409c4.261,1.953,8.728,3.356,13.295,4.402c-0.424-0.017-0.84-0.033-1.268-0.051     c-8.875-0.081-18.657,0.563-28.759,2.361c-4.496-7.679-11.283-14.008-19.304-17.869c-8.806-4.239-19.016-5.497-28.588-3.521     c-1.804,0.372-3.854,1.097-4.423,2.849c-0.484,1.491,0.343,3.072,1.233,4.363c5.716,8.292,15.128,13.519,24.927,15.845     c4.055,0.963,8.186,1.451,12.344,1.645c-4.959,1.43-9.683,3.037-14.077,4.758c-3.05,1.312-6.001,2.537-8.746,3.865     c-8.587-1.297-17.548-0.084-25.452,3.522c-8.892,4.057-16.39,11.1-20.994,19.721C19.358,335.034,18.603,337.073,19.586,338.631z"/>
		</g>
		<g>
			<path style="fill:#4BD890;" d="M238.422,337.395c9.868,17.954,13.926,39.044,11.426,59.378     c-2.5,20.335-11.546,39.813-25.47,54.842c-16.425-13.607-27.738-33.246-31.268-54.281c-3.913-23.317,5.525-51.651,20.294-69.715"/>
		</g>
		<g>
			<path style="fill:#2AA565;" d="M226.18,329.086c-0.408-0.12-2.43,4.992-4.506,13.62c-1.052,4.308-2.024,9.507-2.829,15.322     c-0.752,5.821-1.305,12.263-1.461,19.041c-0.117,6.779,0.176,13.238,0.692,19.084c0.569,5.843,1.331,11.077,2.209,15.424     c1.725,8.704,3.54,13.893,3.953,13.79c1.076-0.218-4.046-21.52-3.4-48.229C221.269,350.426,227.247,329.348,226.18,329.086z"/>
		</g>
		<path style="fill:#4BD890;" d="M121.292,123.377c6.379,7.794,16.188,12.23,26.145,13.743c8.971,1.363,18.112,0.538,27.082-0.956    c1.463,1.783,2.96,3.565,4.521,5.337c4.735,5.298,9.597,10.12,14.391,14.53c-3.626-1.918-7.493-3.378-11.503-4.241    c-9.555-2.057-19.775-0.885-28.617,3.279c-1.666,0.785-3.49,1.97-3.632,3.806c-0.121,1.563,1.053,2.906,2.221,3.952    c7.501,6.721,17.875,9.596,27.947,9.56c9.14-0.033,18.11-2.284,26.802-5.169c1.218,0.948,2.429,1.868,3.635,2.715    c1.631,1.178,3.178,2.349,4.72,3.4c1.519,0.999,3.013,1.981,4.484,2.948c11.52,7.38,19.343,10.66,19.628,10.118    c0.397-0.714-6.749-5.109-17.538-13.127c-1.383-1.039-2.787-2.093-4.216-3.167c-1.453-1.117-2.912-2.347-4.456-3.575    c-0.853-0.66-1.708-1.355-2.567-2.069c5.626-6.902,9.184-15.48,9.994-24.351c0.889-9.733-1.507-19.737-6.708-28.012    c-0.98-1.559-2.377-3.227-4.217-3.146c-1.567,0.069-2.758,1.396-3.655,2.682c-5.767,8.257-7.369,18.903-6.118,28.896    c0.84,6.709,2.881,13.177,5.465,19.443c-0.599-0.519-1.198-1.039-1.811-1.564c-6.577-5.94-13.564-12.731-20.373-20.349    c-1.293-1.468-2.528-2.937-3.759-4.406c6.434-5.917,11.125-13.722,13.249-22.204c2.374-9.481,1.545-19.735-2.323-28.711    c-0.729-1.691-1.853-3.554-3.683-3.757c-1.558-0.173-2.939,0.956-4.024,2.088c-6.967,7.273-10.187,17.545-10.487,27.612    c-0.186,6.249,0.676,12.453,2.062,18.562c-3.152-4.026-6.083-8.003-8.755-11.848c-2.399-3.714-4.816-7.166-6.755-10.593    c-0.305-0.517-0.608-1.016-0.912-1.52c1.337-8.75,0.073-17.889-3.68-25.909c-4.142-8.853-11.256-16.283-19.921-20.805    c-1.633-0.852-3.68-1.588-5.228-0.59c-1.318,0.849-1.677,2.596-1.804,4.159c-0.815,10.039,3.171,20.039,9.292,28.038    c4.725,6.174,10.658,11.275,16.972,15.85c0.506,0.95,1.025,1.913,1.549,2.904c1.824,3.602,4.157,7.223,6.508,11.102    c1.579,2.421,3.297,4.893,5.078,7.382c-4.015-3.545-8.631-6.41-13.632-8.329c-9.125-3.501-19.404-3.915-28.781-1.159    c-1.767,0.519-3.751,1.41-4.174,3.203C119.345,120.657,120.299,122.164,121.292,123.377z"/>
		<g>
			<path style="fill:#3CC380;" d="M206.197,324.874c4.086,31.87-5.765,65.281-26.488,89.836     c-20.723,24.556-52.002,39.883-84.106,41.212c-7.87-31.255-4.583-65.765,11.828-93.505     c16.411-27.739,46.505-47.712,78.707-49.079"/>
		</g>
		<g>
			<path style="fill:#4BD890;" d="M371.456,237.189c4.872-28.275,22.201-54.107,46.595-69.458     c24.394-15.351,55.482-19.988,83.59-12.467c-1.438,28.77-13.381,57.309-34.886,76.537c-21.505,19.228-52.794,28.145-80.997,20.63     "/>
		</g>
		<path style="fill:#2AA565;" d="M109.972,382.942c16.534,0.187,30.771,0.632,37.443,0.495    c-18.803,27.69-32.682,49.225-31.971,49.713c0.715,0.49,15.932-20.464,35.092-48.228c0.674,5.215,3.441,17.839,7.201,32.509    c1.326,5.173,2.636,10.05,3.864,14.433c0.92-0.7,1.817-1.427,2.716-2.154c-0.957-4.065-2.045-8.496-3.234-13.136    c-4.019-15.679-7.914-28.782-9.7-32.881c1.647-2.389,3.318-4.821,5.014-7.298c8.797-12.847,16.816-24.782,23.208-34.493    c0.569,5.471,3.064,18.696,6.507,34.08c1.855,8.29,3.69,15.879,5.276,21.951c0.71-1.238,1.415-2.478,2.079-3.742    c-1.079-5.551-2.433-12.03-3.985-18.964c-3.698-16.522-7.326-30.339-9.019-34.632c7.993-12.173,13.242-20.584,13.965-22.489    l-0.314-0.181c-1.569,1.44-7.608,9.513-16.169,21.519c-3.931-1.032-20.613-2.686-40.692-2.452    c-2.975,0.028-5.869,0.097-8.664,0.196c-1.291,1.12-2.555,2.269-3.79,3.452c3.943-0.082,8.136-0.154,12.49-0.195    c19.242-0.225,35.393,0.208,40.109-0.236c-6.758,9.491-15.018,21.331-23.852,34.233c-1.775,2.592-3.514,5.142-5.218,7.649    c-6.216-1.05-20.994-2.407-38.314-2.603c-3.722-0.049-7.31-0.037-10.741,0.014c-0.415,1.101-0.803,2.211-1.184,3.324    C101.857,382.853,105.84,382.887,109.972,382.942z"/>
		<path style="fill:#2AA565;" d="M469.971,213.616c-14.247-4.617-26.439-8.834-32.244-10.515    c23.56-18.541,41.241-33.162,40.754-33.769c-0.489-0.611-19.172,13.153-43.061,31.662c0.792-4.628,1.73-16.138,2.347-29.66    c0.218-4.768,0.371-9.279,0.465-13.348c-0.98,0.349-1.948,0.727-2.917,1.105c-0.245,3.724-0.472,7.795-0.668,12.072    c-0.66,14.452-0.748,26.674-0.285,30.65c-2.054,1.593-4.141,3.216-6.26,4.871c-10.994,8.583-21.075,16.597-29.163,23.154    c0.951-4.818,2.281-16.767,3.361-30.812c0.582-7.569,0.997-14.534,1.227-20.139c-0.94,0.865-1.877,1.732-2.785,2.63    c-0.531,5.024-1.069,10.913-1.556,17.243c-1.16,15.084-1.667,27.843-1.335,31.96c-10.121,8.224-16.878,13.981-18.006,15.41    l0.224,0.239c1.736-0.805,9.087-6.06,19.655-13.989c3.126,1.94,17.115,7.847,34.538,13.06c2.579,0.778,5.101,1.499,7.543,2.168    c1.412-0.607,2.807-1.246,4.187-1.922c-3.431-0.993-7.076-2.062-10.851-3.201c-16.697-4.995-30.547-9.718-34.743-10.611    c8.347-6.271,18.611-14.139,29.652-22.759c2.218-1.732,4.394-3.437,6.529-5.115c5.098,2.571,17.518,7.711,32.442,12.548    c3.206,1.045,6.311,2.001,9.291,2.883c0.649-0.827,1.277-1.669,1.9-2.515C476.965,215.88,473.529,214.776,469.971,213.616z"/>
		
			<ellipse transform="matrix(0.1577 -0.9875 0.9875 0.1577 -111.3557 596.2158)" style="fill:#FBABA9;" cx="293.797" cy="363.38" rx="56.538" ry="56.538"/>
		<path style="fill:#D17577;" d="M237.281,361.901c-0.038,1.408-0.009,2.803,0.056,4.189c2.584,2.064,5.777,4.102,9.587,5.77    c4.525,1.991,9.899,3.379,15.654,3.643c1.683,0.06,3.329-0.004,4.951-0.129c-1.204,2.039-2.174,5.247-2.027,8.842    c0.159,3.681,1.451,6.868,2.86,8.786c0.148,0.204,0.289,0.34,0.435,0.518c-0.33,0.016-0.651,0.005-0.983,0.028    c-7.038,0.487-13.268,2.612-18.146,5.154c0.856,1.069,1.748,2.107,2.679,3.111c4.494-1.781,9.872-3.26,15.785-3.671    c9.034-0.624,17.213,1.375,22.811,3.519c2.945,1.11,5.23,2.184,6.817,2.885c0.701,1.203,1.446,2.357,2.248,3.432    c3.103,4.202,6.765,7.322,10.263,9.485c1.363-0.416,2.711-0.869,4.031-1.383c-0.224-0.142-0.445-0.277-0.672-0.428    c-3.422-2.305-7.127-5.647-10.161-10.128c-3.048-4.453-5.31-10.101-6.401-16.295c-1.062-6.212-0.898-12.316,0.012-17.754    c0.888-5.456,2.415-10.266,3.899-14.239c3.05-7.932,5.736-12.612,5.133-12.987c-0.461-0.312-4.15,3.755-8.12,11.69    c-0.423,0.868-0.845,1.803-1.262,2.765c-1.47,0.971-4.24,3.25-8.473,5.691c-5.909,3.466-15.108,6.917-25.492,6.506    c-10.383-0.437-19.27-4.627-24.877-8.563C237.673,362.19,237.489,362.048,237.281,361.901z M270.872,375.015    c2.693-0.412,5.251-1.053,7.605-1.867c4.684-1.61,8.595-3.807,11.565-6.028c2.223-1.659,3.934-3.264,5.191-4.645    c-0.904,2.512-1.714,5.258-2.324,8.232c-1.216,5.805-1.547,12.479-0.376,19.313c0.676,3.854,1.83,7.519,3.347,10.866    c-1.022-0.704-2.213-1.445-3.589-2.189c-4.862-2.664-12.193-5.092-20.565-5.24c-0.388-2.009-1.512-5.372-1.622-9.432    C269.891,380.32,270.584,377.097,270.872,375.015z"/>
		<g>
			
				<ellipse transform="matrix(0.7071 -0.7071 0.7071 0.7071 -20.8159 266.862)" style="fill:#B22D51;" cx="311.723" cy="158.558" rx="92.518" ry="92.517"/>
			<path style="fill:#6D2136;" d="M230.48,127.892c5.398,2.823,12.326,5.334,20.343,6.61c3.156,0.509,6.488,0.79,9.925,0.823     c-0.036,5.076,1.014,17.529-1.021,31.988c-2.436,18.788-9.005,32.992-7.748,33.589c0.526,0.265,2.881-2.968,5.541-8.826     c2.663-5.839,5.439-14.383,6.771-24.146c0.479-3.576,0.724-7.041,0.797-10.314c0.678-0.252,1.434-0.535,2.268-0.835     c3.459-1.256,8.305-2.612,13.806-3.06c5.503-0.419,10.502,0.162,14.115,0.861c1.978,0.375,3.546,0.727,4.626,0.878     c4.598,7.885,11.093,13.311,16.246,16.124c2.493,1.378,4.622,2.222,6.223,2.691c-8.464,8.436-13.292,18.414-15.279,25.944     c-2.205,8.171-1.757,13.445-1.222,13.465c0.725,0.081,1.448-4.971,4.316-12.449c2.808-7.442,8.236-17.312,17.189-25.434     c8.959-8.116,19.312-12.552,26.993-14.619c3.69-1.015,6.772-1.594,8.992-2.003c2.929,1.682,5.872,3.14,8.774,4.365     c7.524,3.192,14.706,4.97,20.797,5.771c4.098,0.543,7.656,0.71,10.593,0.681c0.094-0.762,0.157-1.534,0.233-2.303     c-2.867-0.308-6.326-0.78-10.274-1.588c-5.794-1.173-12.563-3.197-19.632-6.442c-7.066-3.231-14.372-7.79-21.08-13.697     c-6.65-5.974-12.03-12.697-16.063-19.338c-4.048-6.642-6.848-13.129-8.689-18.747c-2.678-8.118-3.627-14.273-4.242-17.063     c0.227-0.97,0.258-1.524,0.115-1.576c-0.108-0.046-0.26,0.079-0.452,0.325c-0.102-0.265-0.202-0.411-0.309-0.403     c-0.122-0.006-0.264,0.496-0.358,1.436c-1.429,2.435-4.217,7.899-9.515,14.429c-3.647,4.522-8.604,9.414-14.873,13.779     c-6.25,4.37-13.889,8.081-22.386,10.218c-8.523,2.029-17.013,2.263-24.575,1.274c-7.576-0.977-14.232-3.028-19.555-5.355     c-1.942-0.842-3.708-1.698-5.309-2.533c-0.366,0.863-0.733,1.726-1.074,2.603C226.99,125.97,228.646,126.938,230.48,127.892z      M300.859,122.258c6.522-4.834,11.507-10.26,14.992-15.257c3.501-4.994,5.67-9.443,6.821-12.626     c0.008-0.02,0.013-0.038,0.021-0.058c0.108,3.423,0.659,8.399,2.205,14.488c1.506,5.955,4.11,12.881,8.158,19.982     c4.031,7.097,9.61,14.297,16.657,20.622c3.397,2.993,6.955,5.62,10.564,7.904c-1.885,0.069-4.105,0.273-6.615,0.692     c-8.263,1.334-19.68,5.597-29.377,14.385c-0.196,0.178-0.363,0.369-0.556,0.548c-1.344-0.933-3.376-2.245-5.799-4.082     c-4.508-3.382-10.213-8.834-14.376-16.247c-4.161-7.414-5.845-15.124-6.385-20.733c-0.289-2.848-0.36-5.176-0.447-6.803     C298.157,124.168,299.549,123.233,300.859,122.258z M277.095,133.501c6.405-1.607,12.294-4.119,17.491-7.135     c-0.317,1.489-0.577,3.372-0.673,5.61c-0.261,5.439,0.802,13.035,4.415,20.516c-0.619-0.339-1.308-0.684-2.099-1.024     c-1.839-0.806-4.148-1.484-6.773-1.955c-2.629-0.422-5.578-0.607-8.655-0.382c-3.075,0.259-5.958,0.904-8.489,1.732     c-2.519,0.876-4.693,1.908-6.384,2.992c-0.295,0.186-0.557,0.368-0.824,0.551c-0.053-4.375-0.409-8.313-0.93-11.554     c-0.519-3.263-1.142-5.823-1.705-7.54C267.218,135.238,272.144,134.682,277.095,133.501z"/>
		</g>
		<g>
			
				<ellipse transform="matrix(0.9986 -0.0527 0.0527 0.9986 -15.2084 18.3407)" style="fill:#F8CDC9;" cx="340.25" cy="297.617" rx="82.599" ry="82.599"/>
			<path style="fill:#CE9695;" d="M338.494,344.058c-0.628-1.612-1.638-3.473-3.179-5.376c-2.216-2.732-5.433-5.434-9.322-7.77     c-3.901-2.306-8.354-4.395-13.25-6.11c-9.804-3.399-19.267-4.33-25.989-4.077c-6.754,0.211-10.792,1.415-10.722,1.986     c0.069,0.691,4.165,0.65,10.627,1.269c6.453,0.577,15.303,1.961,24.577,5.174c4.615,1.614,8.935,3.506,12.659,5.447     c3.707,1.966,6.773,4.137,9.018,6.281c2.415,2.272,3.785,4.467,4.66,6.024c-0.734,2.496-1.332,4.982-1.774,7.425     c-1.023,5.188-1.256,10.217-1.287,14.893c0.114,3.866,0.432,7.488,0.984,10.831c1.138,0.066,2.274,0.12,3.404,0.139     c-0.42-3.384-0.592-7.05-0.57-10.957c0.195-4.448,0.55-9.205,1.632-14.088c1.998-9.771,6.309-20.117,13.305-29.199     c7.138-8.97,16.147-15.637,25.153-19.922c4.481-2.222,9.014-3.708,13.284-4.965c4.315-1.094,8.407-1.892,12.191-2.246     c7.563-0.755,13.785-0.392,18.035,0.174c0.316,0.04,0.6,0.078,0.895,0.117c0.011-0.577,0-1.15-0.001-1.725     c-0.193-0.052-0.368-0.103-0.571-0.156c-4.261-1.127-10.671-2.022-18.611-1.657c-3.971,0.16-8.291,0.8-12.869,1.789     c-0.13,0.033-0.265,0.072-0.395,0.106c-1.344-1.03-3.388-2.473-5.852-4.434c-1.145-0.922-2.395-1.923-3.641-3.113     c-1.31-1.112-2.561-2.459-3.922-3.818c-2.616-2.827-5.297-6.103-7.745-9.805c-2.4-3.733-4.317-7.507-5.849-11.041     c-0.695-1.794-1.423-3.482-1.913-5.129c-0.587-1.62-0.999-3.168-1.381-4.588c-1.493-5.681-1.938-9.399-2.651-9.387     c-0.163-0.003-0.337,0.362-0.489,0.985c-1.296,0.656-4.261,3.177-8.895,6.251c-0.775,0.501-1.539,0.996-2.294,1.484     c-0.798,0.512-1.689,0.952-2.57,1.464c-1.745,1.061-3.742,1.946-5.796,2.952c-4.192,1.84-8.932,3.543-14.067,4.766     c-5.151,1.152-10.158,1.7-14.733,1.885c-2.287-0.004-4.47,0.076-6.504-0.112c-1.017-0.074-2.01-0.079-2.952-0.189     c-0.893-0.108-1.796-0.217-2.713-0.328c-6.913-0.917-11.15-2.229-11.416-1.545c-0.216,0.486,3.674,2.928,10.811,4.745     c0.95,0.218,1.886,0.433,2.812,0.646c0.982,0.211,2.02,0.311,3.091,0.473c2.14,0.365,4.453,0.434,6.89,0.555     c4.871,0.048,10.248-0.407,15.75-1.641c5.486-1.303,10.518-3.253,14.875-5.431c2.137-1.177,4.185-2.253,5.949-3.519     c0.891-0.615,1.781-1.16,2.57-1.78c0.739-0.597,1.486-1.201,2.244-1.813c3.326-2.819,5.506-5.315,6.669-6.971     c-0.143,1.72-0.133,4.139,0.222,7.127c0.193,1.543,0.444,3.233,0.903,5.007c0.361,1.803,0.994,3.657,1.63,5.623     c1.414,3.876,3.364,8.01,5.95,12.027c2.633,3.986,5.629,7.437,8.606,10.294c1.543,1.375,2.984,2.702,4.488,3.759     c1.439,1.135,2.884,2.046,4.218,2.845c1.871,1.104,3.532,1.914,4.935,2.5c-3.583,1.008-7.291,2.25-10.982,3.974     c-6.697,3.002-13.422,7.331-19.483,12.914c-1.513-0.614-4.108-1.464-7.366-2.827c-5.32-2.197-12.371-6.039-18.608-12.088     c-6.238-6.048-10.296-12.978-12.655-18.228c-2.392-5.26-3.368-8.822-4.051-8.703c-0.567,0.077-0.738,3.925,1.001,9.842     c1.695,5.872,5.653,13.76,12.5,20.395c6.842,6.639,14.848,10.352,20.769,11.866c2.856,0.744,5.206,1.059,6.906,1.13     c-2.102,2.05-4.113,4.256-5.997,6.627C344.572,329.687,340.926,336.884,338.494,344.058z"/>
		</g>
		<g>
			
				<ellipse transform="matrix(0.133 -0.9911 0.9911 0.133 -45.1745 463.1284)" style="fill:#FA4A76;" cx="242.139" cy="257.386" rx="92.518" ry="92.517"/>
			<path style="fill:#B22D51;" d="M149.647,258.245c3.171-0.44,6.52-1.14,9.973-2.159c3.528-1.101,7.161-2.513,10.763-4.336     c3.49-1.822,6.943-4.013,10.226-6.612c1.632,0.729,4.98,1.903,9.007,4.539c5.743,3.66,12.589,10.852,16.042,20.697     c3.436,9.9,3.083,19.776,2.207,26.705c-0.672,5.315-1.509,9.073-1.582,10.673c-8.087,6.427-14.272,13.507-18.396,19.625     c-0.783,1.15-1.499,2.259-2.16,3.327c0.776,0.599,1.554,1.196,2.35,1.77c0.752-1.012,1.559-2.067,2.426-3.16     c6.987-8.894,18.48-20.026,33.932-27.718c15.452-7.692,31.26-10.154,42.569-10.368c7.163-0.17,12.608,0.314,15.699,0.51     c1.208,2.227,2.479,4.355,3.811,6.343c4.318,6.469,9.071,11.659,13.463,15.519c3.632,3.198,6.915,5.532,9.548,7.153     c0.474-0.503,0.939-1.015,1.401-1.53c-2.345-1.949-5.361-4.571-8.701-7.979c-7.876-7.944-17.221-20.874-21.881-37.317     c-4.647-16.448-3.462-32.358-0.916-43.251c1.965-8.628,4.394-14.387,5.018-16.64c0.13-0.173,0.196-0.306,0.155-0.366     c-0.008-0.014-0.047-0.007-0.059-0.018c0.082-0.383,0.085-0.621-0.03-0.678c-0.09-0.058-0.375,0.193-0.789,0.708     c-1.715,0.438-5.896,2.297-12.186,3.847c-7.961,2.017-19.638,3.053-31.654-0.385c-12.012-3.455-21.364-10.524-27.046-16.454     c-5.77-5.946-8.38-10.553-9.031-10.198c-0.774-0.017-0.788,6.751-3.897,16.914c-1.544,5.062-3.896,10.949-7.47,16.92     c-1.761,2.994-3.827,6.008-6.253,8.88c-2.403,2.885-5.111,5.698-8.216,8.148c-3.097,2.479-6.378,4.6-9.681,6.393     c-3.331,1.751-6.691,3.151-9.965,4.293c-2.977,0.984-5.864,1.71-8.64,2.269C149.644,255.629,149.637,256.939,149.647,258.245z      M275.916,275.181c1.535,5.335,3.565,10.337,5.906,14.903c-3.16-0.852-8.211-1.79-14.784-2.112     c-11.674-0.63-28.394,1.404-44.653,9.501c-5.259,2.617-10.033,5.658-14.318,8.899c0.91-1.849,2.031-4.777,3.002-8.71     c0.877-3.581,1.55-7.974,1.55-12.918c0.015-4.933-0.73-10.429-2.615-15.893c-0.162-0.456-0.372-0.876-0.549-1.322     c1.408-0.586,3.228-1.524,5.341-2.913c2.34-1.515,4.915-3.638,7.526-6.258c1.322-1.375,2.642-2.895,3.921-4.54     c0.744,1.232,2.116,2.963,4.229,4.908c3.738,3.474,10.011,7.376,17.809,9.058c7.797,1.688,15.122,0.724,19.96-0.897     c2.41-0.794,4.24-1.679,5.454-2.437C274.192,267.98,274.913,271.573,275.916,275.181z M236.775,220.951     c0.619,0.202,1.208,0.44,1.842,0.622c13.082,3.744,25.699,2.031,33.851-0.92c4.522-1.605,7.766-3.395,9.774-4.774     c-1.669,2.77-3.969,7.472-5.96,13.969c-1.718,5.588-3.047,12.5-3.336,20.272c-0.155,3.997,0.004,8.224,0.518,12.567     c-1.37,0.216-3.392,0.646-5.971,1.031c-4.689,0.722-11.27,1.069-18.235-0.436c-6.966-1.505-12.816-4.539-16.789-7.132     c-2.372-1.533-4.134-2.851-5.295-3.587c0.868-1.182,1.719-2.403,2.52-3.704c2.202-3.669,3.85-7.416,5.034-10.916     c1.123-3.525,1.821-6.789,2.087-9.564C237.161,225.021,237.045,222.463,236.775,220.951z M189.683,236.067     c2.554-3.127,4.679-6.394,6.445-9.631c3.583-6.458,5.729-12.786,6.934-18.192c1.534-6.896,1.619-12.196,1.353-15.144     c0.906,2.23,2.777,5.706,5.987,9.748c4.903,6.256,13.575,13.578,25.056,17.657c-0.448,1.362-0.958,3.923-1.844,7.282     c-0.648,2.543-1.619,5.503-2.871,8.702c-1.316,3.177-2.948,6.581-4.983,9.978c-2.077,3.371-4.346,6.388-6.56,9.02     c-2.263,2.585-4.442,4.812-6.401,6.558c-1.632,1.48-3.036,2.668-4.117,3.612c-1.869-4.132-4.287-7.782-6.977-10.739     c-3.38-3.702-7.077-6.4-10.464-8.066c-3.383-1.681-6.354-2.476-8.432-2.706c-0.344-0.04-0.623-0.054-0.917-0.074     C184.833,241.608,187.418,238.876,189.683,236.067z"/>
		</g>
	</g>
</g>















</svg>
