<?xml version="1.0" encoding="UTF-8"?>
<!-- Generator: Adobe Illustrator 25.2.1, SVG Export Plug-In . SVG Version: 6.00 Build 0)  -->
<svg xmlns="http://www.w3.org/2000/svg" xmlns:xlink="http://www.w3.org/1999/xlink" version="1.1" id="Capa_1" x="0px" y="0px" viewBox="0 0 512 512" style="enable-background:new 0 0 512 512;" xml:space="preserve" width="512" height="512">
<g>
	<g>
		<g>
			<path style="fill:#FFFFFF;" d="M476.264,214.793c0.89-0.235,1.765-0.563,2.61-0.985c0.681-0.34,1.325-0.734,1.926-1.174     c9.228-6.346,29.887-22.434,31.138-39.921c0.514-7.195-2.191-13.897-7.619-18.873c-4.884-4.475-10.716-6.841-16.863-6.841     c-3.167,0-7.291,0.651-11.902,3.01c-5.243-3.464-10.202-4.395-14.02-4.395c-3.613,0-7.198,0.872-10.58,2.513l-1.326-4.178     l0.342-0.709l10.568-2.882c8.115-2.212,11.45-8.363,11.864-13.382c0.417-5.015-1.856-11.624-9.473-15.13l-9.737-4.485     l-2.806-10.076c-1.99-7.171-7.707-11.804-14.564-11.804c-1.569,0-3.09,0.247-4.529,0.718l-0.203-0.635     c-3.412-10.834-13.33-18.113-24.681-18.113c-2.667,0-5.314,0.413-7.849,1.222l-54.711,17.37     c8.092-9.555,14.629-20.512,15.206-31.365c0.483-9.081-2.958-17.147-9.951-23.328c-6.204-5.486-13.467-8.385-20.998-8.385     c-6.808,0-13.462,2.23-19.882,6.65c-8.109-6.481-15.697-8.108-21.271-8.108c-6.837,0-13.358,2.332-19.377,6.932     c-7.421,5.67-11.429,13.475-11.591,22.575c-0.163,9.111,3.578,19.042,11.361,30.108l-3.786-0.623l-3.68-6.142     c-2.948-4.918-7.686-7.738-13-7.738c-7.129,0-13.079,5.227-14.468,12.711l-1.345,7.25l-6.517,3.859     c-6.992,4.141-8.508,10.812-7.594,15.672c0.547,2.912,2.151,6.106,5.065,8.486c-0.23,0.057-0.46,0.107-0.691,0.172l-12.121,3.431     l-10.222-6.874c-3.008-2.023-6.19-3.049-9.456-3.049c-4.593,0-8.823,2.066-11.603,5.668c-1.728,2.238-4.352,7.052-2.499,14.135     l2.757,10.561L26.33,186.852c-1.182,0.374-2.331,0.847-3.475,1.436l-6.52,2.07c-12.306,3.907-19.142,17.098-15.236,29.408     l34.007,107.113c-0.485,0.473-0.939,0.983-1.361,1.528c-1.695,2.194-4.27,6.9-2.482,13.745l2.418,9.259l-5.513,8.109     c-3.456,5.085-3.95,11.083-1.322,16.045c2.515,4.75,7.522,7.7,13.068,7.7c1.577,0,3.205-0.234,4.847-0.698l7.365-2.085     l8.538,26.892c-0.012,0.521-0.018,1.038-0.019,1.547c-23.074,3.742-37.131,18.378-37.492,40.048     c-0.169,10.086,3.287,19.02,9.992,25.837c10.38,10.554,27.668,15.685,52.855,15.685c23.032,0,45.446-4.375,50.609-5.451     c1.329-0.196,2.642-0.592,3.89-1.192c1.697-0.815,3.169-1.956,4.36-3.327c1.147-1.312,2.05-2.856,2.63-4.57     c0.506-1.495,0.738-3.038,0.713-4.563c0.127-2.941,0.417-11.788-0.055-23.06l7.793-2.475c0.522,0.053,1.053,0.08,1.592,0.08     c1.576,0,3.201-0.234,4.836-0.697l9.21-2.607l7.744,5.209c2.892,1.946,5.973,2.934,9.157,2.934c4.531,0,8.708-2.041,11.458-5.598     c1.695-2.193,4.273-6.895,2.486-13.753l-0.078-0.3l31.149-9.891c9.051,4.682,19.452,7.131,30.468,7.131     c18.618,0,36.162-7.01,48.133-19.229c5.091-5.194,8.86-10.876,12.184-15.885c0.236-0.355,0.474-0.712,0.714-1.069l30.51-9.688     c0.593,0.605,1.128,1.233,1.596,1.872c5.082,6.985,6.564,16.594,7.743,26.626l0.353,3.064     c1.329,11.652,2.834,24.857,9.175,37.288c11.21,21.967,36.701,36.728,63.44,36.729c2.23,0,4.481-0.106,6.698-0.314     c28.893-2.745,54.53-22.834,62.345-48.855c5.832-19.421,1.228-40.091-12.014-53.944c-10.822-11.324-25.428-16.587-38.302-21.227     l-2.704-0.976c-5.219-1.897-10.654-4.062-15.219-6.651l12.638-4.011l2.726-0.847l33.503-10.646     c5.984-1.906,10.859-6.024,13.733-11.594c2.87-5.564,3.401-11.912,1.501-17.845l-30.457-95.933c0.18,0.007,0.36,0.018,0.54,0.018     C473.961,215.243,475.127,215.093,476.264,214.793z M443.038,392.519l2.753,0.995c10.068,3.628,20.478,7.379,26.155,13.319     c5.387,5.635,7.141,14.432,4.58,22.96c-4.073,13.564-19.126,24.93-35.029,26.441c-1.245,0.119-2.521,0.18-3.791,0.18     c-14.837,0-29.287-8.004-35.134-19.463c-3.736-7.321-4.796-16.628-5.92-26.501l-0.361-3.121     c-1.373-11.708-3.52-23.874-9.356-34.818l16.984-5.392C413.229,380.291,428.168,387.118,443.038,392.519z"/>
		</g>
	</g>
	<g>
		<g>
			<g>
				<g>
					<g>
						<path style="fill:#4F021B;" d="M437.803,473.376c-21.399,0-42.408-11.769-51.372-29.341        c-5.225-10.241-6.526-21.638-7.784-32.659l-0.356-3.088c-1.341-11.439-3.238-23.412-10.248-33.045        c-6.331-8.701-19.104-15.77-31.274-12.445c-6.814,1.863-13.04,6.74-19.037,14.909c-1.641,2.235-3.212,4.603-4.732,6.893        c-3.143,4.735-6.393,9.63-10.579,13.904c-16.886,17.238-47.854,20.271-67.624,6.622l2.603-3.769        c17.732,12.241,46.591,9.413,61.748-6.058c3.882-3.964,6.871-8.466,10.036-13.233c1.549-2.334,3.152-4.747,4.857-7.07        c6.632-9.034,13.672-14.469,21.521-16.617c14.83-4.048,29.153,4.503,36.186,14.169c7.661,10.527,9.743,23.693,11.093,35.207        l0.357,3.101c1.212,10.617,2.465,21.595,7.313,31.097c8.903,17.449,30.874,28.634,52.284,26.608        c21.401-2.032,41.042-17.183,46.7-36.025c3.961-13.186,0.987-27.061-7.757-36.211c-7.876-8.24-19.809-12.541-31.35-16.701        l-2.746-0.993c-13.359-4.852-26.684-10.876-33.672-21.991c-8.915-14.177-3.81-34.225,11.147-43.776l2.466,3.861        c-12.88,8.223-17.338,25.386-9.736,37.477c6.254,9.946,18.768,15.549,31.36,20.124l2.735,0.989        c12.038,4.34,24.488,8.826,33.107,17.845c9.883,10.339,13.267,25.933,8.835,40.694c-6.172,20.553-27.476,37.066-50.656,39.267        C441.421,473.292,439.611,473.376,437.803,473.376z"/>
					</g>
				</g>
				<g>
					<g>
						<path style="fill:#A44043;" d="M473.149,329.127L98.519,448.067c-5.2,1.651-10.753-1.226-12.404-6.426L14.006,214.516        c-1.65-5.2,1.226-10.753,6.426-12.404L392.709,83.92c6.499-2.063,13.442,1.532,15.505,8.032l71.362,224.771        C481.226,321.923,478.349,327.477,473.149,329.127z"/>
					</g>
				</g>
				<g>
					<g>
						<path style="fill:#F8627F;" d="M483.37,326.542l-33.496,10.644l-2.642,0.821l-287.482,91.279l-2.59,0.821l-48.371,15.363        c-5.206,1.641-10.772-1.231-12.439-6.437L23.973,211.026c-1.641-5.206,1.231-10.772,6.437-12.413L402.658,80.429        c6.515-2.077,13.465,1.539,15.517,8.053l71.633,225.621C491.475,319.309,488.602,324.875,483.37,326.542z"/>
					</g>
				</g>
				<g>
					<g>
						<g>
							<path style="fill:#FFD1D0;" d="M452.22,259.121L98.152,373.039L52.488,231.111c-1.735-5.394,1.23-11.173,6.624-12.908         l334.536-107.634c5.394-1.735,11.173,1.23,12.908,6.624L452.22,259.121z"/>
						</g>
					</g>
					<g>
						<g>
							
								<rect x="76.361" y="234.161" transform="matrix(0.9519 -0.3063 0.3063 0.9519 -71.9655 93.6173)" style="fill:#A44043;" width="371.943" height="83.936"/>
						</g>
					</g>
					<g>
						<g>
							<g>
								<g>
									<path style="fill:#4F021B;" d="M364.581,246.856l-203.368,65.432c-12.136,3.904-25.139-2.768-29.043-14.904l-6.852-21.298           c-3.904-12.135,2.768-25.139,14.904-29.043l203.368-65.432c12.135-3.905,25.138,2.768,29.043,14.903l6.852,21.298           C383.389,229.948,376.716,242.951,364.581,246.856z"/>
								</g>
							</g>
							<g>
								<g>
									<g>
										<g>
											<path style="fill:#FFACB3;" d="M365.469,219.823c0,8.079-3.745,15.286-9.618,19.954c-4.36,3.514-9.9,5.591-15.927,5.591             c-14.106,0-25.545-11.439-25.545-25.545c0-6.027,2.077-11.567,5.591-15.927c4.668-5.873,11.875-9.618,19.954-9.618             C354.03,194.278,365.469,205.717,365.469,219.823z"/>
										</g>
									</g>
									<g>
										<g>
											<path style="fill:#FFDCBD;" d="M361.545,223.747c0,6.079-2.129,11.67-5.694,16.03c-4.36,3.514-9.9,5.591-15.927,5.591             c-14.106,0-25.545-11.439-25.545-25.545c0-6.027,2.077-11.567,5.591-15.927c4.36-3.565,9.951-5.668,16.03-5.668             C350.106,198.228,361.545,209.641,361.545,223.747z"/>
										</g>
									</g>
								</g>
								<g>
									<g>
										<g>
											<path style="fill:#FFACB3;" d="M189.647,274.501c0,8.079-3.744,15.286-9.618,19.954c-4.36,3.514-9.9,5.591-15.927,5.591             c-14.106,0-25.545-11.439-25.545-25.545c0-6.027,2.077-11.567,5.591-15.927c4.668-5.873,11.875-9.618,19.954-9.618             C178.208,248.956,189.647,260.395,189.647,274.501z"/>
										</g>
									</g>
									<g>
										<g>
											<path style="fill:#FFDCBD;" d="M185.723,278.425c0,6.079-2.129,11.67-5.694,16.03c-4.36,3.514-9.9,5.591-15.927,5.591             c-14.106,0-25.545-11.439-25.545-25.545c0-6.027,2.077-11.567,5.591-15.927c4.36-3.565,9.951-5.668,16.03-5.668             C174.285,252.906,185.723,264.319,185.723,278.425z"/>
										</g>
									</g>
								</g>
								<g>
									<g>
										<g>
											<path style="fill:#FFDCBD;" d="M298.761,204.292l-26.34,8.475l-1.253,0.422l-48.793,15.709l-1.33,0.422l-29.485,9.504             l-0.614,0.185l15.867,49.228l29.281-9.426l1.406-0.449l52.91-17.054l1.457-0.475l22.121-7.128l0.614-0.185             L298.761,204.292z M289.988,260.082l-1.381,0.449l-50.225,16.183l-1.33,0.423l-29.434,9.478l-15.049-46.773l30.125-9.689             l1.253-0.422l46.517-14.97l1.228-0.396l26.238-8.449l15.049,46.773L289.988,260.082z"/>
										</g>
									</g>
									<g>
										<g>
											<path style="fill:#FFDCBD;" d="M223.947,229.73c-0.515-0.277-1.031-0.555-1.572-0.832l-1.33,0.422             c0.567,0.251,1.108,0.529,1.649,0.831c10.877,5.774,18.342,17.17,18.463,30.327c0.055,6.027-1.432,11.709-4.105,16.658             c-0.303,0.567-0.631,1.134-0.959,1.676l1.406-0.449c0.303-0.541,0.606-1.082,0.883-1.649             c2.443-4.87,3.803-10.397,3.75-16.244C242.011,247.262,234.698,235.787,223.947,229.73z"/>
										</g>
									</g>
									<g>
										<g>
											<path style="fill:#FFDCBD;" d="M289.988,260.082c-5.69-2.384-10.65-6.289-14.391-11.384             c-5.506-7.465-7.744-16.626-6.367-25.795c0.46-2.979,1.28-5.86,2.461-8.538c0.226-0.541,0.452-1.082,0.729-1.597             l-1.253,0.422c-0.277,0.515-0.503,1.031-0.704,1.571c-1.028,2.549-1.747,5.223-2.184,7.997             c-1.427,9.426,0.891,18.843,6.527,26.512c3.636,4.942,8.365,8.772,13.8,11.261c0.592,0.277,1.184,0.527,1.802,0.779             l1.457-0.475C291.224,260.583,290.607,260.358,289.988,260.082z"/>
										</g>
									</g>
								</g>
							</g>
						</g>
						<g>
							<g>
								<g>
									<path style="fill:#FFDCBD;" d="M142.605,337.014c-0.543,0-1.048-0.347-1.222-0.893c-0.215-0.674,0.158-1.396,0.832-1.612           l248.834-79.453c0.68-0.21,1.397,0.156,1.612,0.832c0.215,0.674-0.158,1.396-0.832,1.612l-248.834,79.453           C142.865,336.995,142.733,337.014,142.605,337.014z"/>
								</g>
							</g>
							<g>
								<g>
									<path style="fill:#FFDCBD;" d="M145.66,345.308c-0.543,0-1.048-0.348-1.222-0.893c-0.215-0.674,0.158-1.396,0.832-1.612           l248.834-79.452c0.676-0.215,1.397,0.158,1.612,0.832c0.215,0.674-0.158,1.396-0.832,1.612l-248.834,79.452           C145.921,345.288,145.789,345.308,145.66,345.308z"/>
								</g>
							</g>
							<g>
								<g>
									<g>
										<path style="fill:#FFDCBD;" d="M426.63,186.659l-48.696,15.408c-0.572,0.181-1.183-0.137-1.364-0.708            c-0.181-0.572,0.136-1.183,0.708-1.364l48.696-15.408c0.572-0.181,1.184,0.136,1.364,0.708            C427.52,185.867,427.202,186.478,426.63,186.659z"/>
									</g>
								</g>
								<g>
									<g>
										<path style="fill:#FFDCBD;" d="M428.606,192.902l-48.696,15.408c-0.572,0.181-1.183-0.136-1.365-0.708            c-0.181-0.572,0.137-1.184,0.708-1.365l48.696-15.408c0.572-0.181,1.183,0.136,1.364,0.708            C429.495,192.11,429.177,192.722,428.606,192.902z"/>
									</g>
								</g>
								<g>
									<g>
										<path style="fill:#FFDCBD;" d="M430.581,199.146l-48.696,15.408c-0.572,0.181-1.184-0.137-1.365-0.708            c-0.181-0.572,0.137-1.183,0.709-1.364l48.696-15.408c0.572-0.181,1.184,0.137,1.365,0.708            C431.47,198.354,431.153,198.965,430.581,199.146z"/>
									</g>
								</g>
								<g>
									<g>
										<path style="fill:#FFDCBD;" d="M432.557,205.389l-48.696,15.408c-0.572,0.181-1.183-0.137-1.364-0.708            c-0.181-0.572,0.136-1.183,0.708-1.364l48.696-15.408c0.572-0.181,1.183,0.137,1.364,0.709            C433.446,204.597,433.128,205.208,432.557,205.389z"/>
									</g>
								</g>
							</g>
							<g>
								<g>
									<g>
										<path style="fill:#FFDCBD;" d="M124.905,281.341l-48.582,15.766c-0.571,0.185-1.184-0.128-1.369-0.698            c-0.185-0.571,0.128-1.184,0.699-1.369l48.581-15.766c0.571-0.185,1.184,0.128,1.37,0.699            C125.788,280.542,125.475,281.156,124.905,281.341z"/>
									</g>
								</g>
								<g>
									<g>
										<path style="fill:#FFDCBD;" d="M126.926,287.569l-48.581,15.766c-0.571,0.185-1.184-0.128-1.37-0.699            c-0.185-0.571,0.128-1.184,0.699-1.37l48.581-15.766c0.571-0.185,1.184,0.128,1.37,0.699            C127.809,286.771,127.497,287.384,126.926,287.569z"/>
									</g>
								</g>
								<g>
									<g>
										<path style="fill:#FFDCBD;" d="M128.947,293.798l-48.582,15.766c-0.571,0.185-1.184-0.128-1.369-0.698            c-0.185-0.571,0.128-1.184,0.699-1.37l48.581-15.766c0.571-0.185,1.184,0.128,1.37,0.698            C129.831,292.999,129.518,293.613,128.947,293.798z"/>
									</g>
								</g>
								<g>
									<g>
										<path style="fill:#FFDCBD;" d="M130.969,300.027l-48.582,15.766c-0.57,0.185-1.184-0.128-1.369-0.698            c-0.185-0.57,0.128-1.184,0.699-1.369l48.581-15.766c0.571-0.185,1.184,0.128,1.37,0.698            C131.852,299.228,131.539,299.841,130.969,300.027z"/>
									</g>
								</g>
							</g>
						</g>
						<g>
							<g>
								<g>
									<path style="fill:#4F021B;" d="M151.704,228.951c-1.886,0.534-3.749,1.131-5.601,1.762           c-2.432-7.681-4.871-15.36-7.139-23.092c2.082-1.076,4.163-2.152,6.244-3.227c1.777-0.918,0.233-3.351-1.513-2.625           c-5.176,2.151-10.417,4.141-15.709,5.989c-1.828,0.638-1.06,3.571,0.787,2.926c2.4-0.838,4.783-1.722,7.159-2.622           c2.259,7.721,4.695,15.387,7.123,23.056c-1.767,0.926-3.533,1.852-5.3,2.779c-1.767,0.926-0.234,3.368,1.513,2.625           c4.304-1.833,8.723-3.37,13.223-4.644C154.363,231.346,153.586,228.417,151.704,228.951z"/>
								</g>
							</g>
							<g>
								<g>
									<path style="fill:#4F021B;" d="M190.861,215.928c-2.803,0.77-5.578,1.636-8.332,2.565           c-2.223-8.491-5.068-16.795-8.515-24.87c-0.763-1.788-3.383-0.264-2.625,1.513c3.503,8.206,6.343,16.685,8.541,25.332           c0.076,0.298,0.225,0.507,0.399,0.678c0.347,0.552,1.003,0.938,1.664,0.708c3.184-1.107,6.404-2.108,9.655-3           c0.764-0.21,1.317-1.074,1.069-1.857C192.471,216.219,191.68,215.704,190.861,215.928z"/>
								</g>
							</g>
							<g>
								<g>
									<path style="fill:#4F021B;" d="M207.1,194.256c1.181-1.799,1.806-3.967,1.65-6.16c-0.137-1.932-3.168-1.967-3.029-0.019           c0.074,1.038-0.11,2.064-0.445,3.031c-0.126-0.173-0.221-0.366-0.353-0.534c-1.506-1.913-3.717-3.401-6.099-3.79           c-0.189-0.077-0.407-0.118-0.666-0.097c-0.013,0.001-0.024,0.005-0.037,0.006c-0.98-0.066-1.979,0.05-2.965,0.429           c-1.69,0.65-2.999,2.11-3.572,3.786c-0.372,0.598-0.702,1.228-0.956,1.902c-1.481,3.928-0.45,8.518,0.718,12.39           c1.076,3.567,2.942,7.087,6.519,8.641c3.319,1.442,6.87,0.464,8.994-2.448c2.066-2.832,2.493-6.693,2.162-10.09           C208.785,198.878,208.124,196.48,207.1,194.256z M203.21,193.352c0.098,0.152,0.181,0.325,0.276,0.483           c-0.27,0.246-0.512,0.518-0.831,0.717c-2.106,1.319-5.143,1.512-7.229,0.025c-0.947-0.675-1.199-1.613-1.014-2.488           c0.873-1.26,2.115-2.219,3.691-2.365C200.247,189.92,202.066,191.587,203.21,193.352z M205.029,208.582           c-1.017,2.063-2.909,3.423-5.27,2.744c-2.66-0.764-4.215-3.255-5.096-5.719c-1-2.797-1.903-6.075-1.703-9.124           c2.52,2.443,6.929,2.637,10.004,1.312c0.696-0.3,1.322-0.705,1.912-1.154C206.371,200.461,206.785,205.021,205.029,208.582           z"/>
								</g>
							</g>
							<g>
								<g>
									<path style="fill:#4F021B;" d="M229.858,178.034c0.484,8.064,0.329,16.144-0.397,24.186           c-5.24-6.243-9.781-13.028-14.357-19.765c-1.089-1.602-3.724-0.105-2.625,1.513c5.192,7.644,10.306,15.38,16.433,22.322           c0.355,0.402,0.969,0.527,1.471,0.399c0.247-0.063,0.495-0.126,0.742-0.189c0.698-0.177,1.05-0.788,1.121-1.454           c0.967-8.967,1.181-17.991,0.641-26.994C232.771,176.117,229.741,176.084,229.858,178.034z"/>
								</g>
							</g>
							<g>
								<g>
									<path style="fill:#4F021B;" d="M258.166,194.766c-2.576,3.124-7.38,3.456-9.958,0.121c-2.327-3.01-1.323-7.428,1.929-9.244           c0.659-0.19,1.229-0.512,1.584-1.062c0.665-1.032-0.446-2.739-1.697-2.236c-0.223,0.09-0.433,0.198-0.646,0.303           c-2.793,0.395-5.795-0.845-6.647-3.728c-0.78-2.637,1.376-6.512,4.306-6.683c1.936-0.113,1.969-3.143,0.019-3.029           c-5.119,0.299-8.822,6.319-7.064,11.051c0.871,2.345,2.697,4.097,5.04,4.957c0.252,0.093,0.545,0.182,0.857,0.265           c-2.368,3.07-2.816,7.406-0.313,10.914c3.503,4.909,10.858,5.213,14.719,0.529           C261.525,195.43,259.407,193.261,258.166,194.766z"/>
								</g>
							</g>
							<g>
								<g>
									<path style="fill:#4F021B;" d="M294.527,156.752c-0.493-1.418-2.35-1.264-2.867-0.266c-0.34,0.232-0.571,0.608-0.512,1.174           c0.518,5.025,0.764,10.032,0.664,15.083c-0.038,1.97-0.003,3.984-0.399,5.924c-0.315,1.543-0.953,3.859-2.703,4.334           c-3.434,0.932-5.727-4.654-6.83-6.891c-2.095-4.245-3.556-8.763-4.91-13.288c-0.557-1.862-3.487-1.088-2.926,0.787           c1.221,4.077,2.547,8.126,4.278,12.019c1.437,3.233,3.113,7.219,6.143,9.277c2.632,1.788,6.005,1.528,8.001-1.053           c2.307-2.983,2.307-7.119,2.37-10.711c0.042-2.412,0.011-4.812-0.081-7.21c2.087,5.242,4.369,10.405,6.887,15.456           c0.87,1.745,3.494,0.23,2.625-1.513C300.53,172.38,297.277,164.662,294.527,156.752z"/>
								</g>
							</g>
							<g>
								<g>
									<path style="fill:#4F021B;" d="M339.55,146.311c-1.878-2.942-5.541-3.591-8.265-1.371           c-1.873,1.527-2.816,4.023-3.183,6.522c-2.009-1.794-4.573-3.062-7.203-2.877c-4.19,0.295-5.721,5-4.84,8.55           c1.003,4.042,4.373,6.697,7.908,8.518c1.98,1.02,4.028,1.914,6.047,2.852c1.785,0.829,3.558,1.824,5.445,2.391           c0.773,0.233,1.664-0.264,1.87-1.046c1.074-4.086,2.149-8.182,2.806-12.361C340.685,153.985,341.593,149.51,339.55,146.311           z M336.724,159.436c-0.531,2.68-1.206,5.329-1.895,7.972c-0.81-0.353-1.608-0.738-2.405-1.108           c-1.565-0.727-3.131-1.45-4.695-2.18c-2.776-1.296-5.948-2.719-7.68-5.382c-0.771-1.185-1.298-2.567-1.235-4           c0.053-1.206,0.611-2.752,1.914-3.078c1.331-0.333,2.932,0.412,4.053,1.079c1.297,0.771,2.361,1.831,3.167,3.103           c0.578,0.91,1.631,0.836,2.287,0.323c0.432-0.214,0.755-0.622,0.722-1.267c-0.123-2.433,0.224-6.052,2.31-7.676           c2.416-1.88,4.244,0.847,4.438,3.107C337.961,153.32,337.303,156.517,336.724,159.436z"/>
								</g>
							</g>
						</g>
					</g>
				</g>
				<g>
					<g>
						<g>
							<path style="fill:#4F021B;" d="M114.992,430.463c0,3.074-2.492,5.566-5.566,5.566c-3.074,0-5.566-2.492-5.566-5.566         c0-3.074,2.492-5.566,5.566-5.566C112.5,424.897,114.992,427.389,114.992,430.463z"/>
						</g>
					</g>
					<g>
						<g>
							<path style="fill:#4F021B;" d="M476.021,316.086c0,3.074-2.492,5.566-5.566,5.566c-3.074,0-5.566-2.492-5.566-5.566         c0-3.074,2.492-5.566,5.566-5.566C473.529,310.52,476.021,313.012,476.021,316.086z"/>
						</g>
					</g>
					<g>
						<g>
							<path style="fill:#4F021B;" d="M44.707,210.877c0,3.074-2.492,5.566-5.566,5.566c-3.074,0-5.566-2.492-5.566-5.566         c0-3.074,2.492-5.566,5.566-5.566C42.215,205.311,44.707,207.803,44.707,210.877z"/>
						</g>
					</g>
					<g>
						<g>
							<circle style="fill:#4F021B;" cx="400.607" cy="94.754" r="5.566"/>
						</g>
					</g>
				</g>
				<g>
					<g>
						<g>
							<path style="fill:#4F021B;" d="M449.875,337.186l-2.642,0.821l-37.471-47.063L161.751,372.04l-2,57.245l-2.59,0.821         l2.052-59.066c0.026-0.539,0.385-1,0.898-1.154l249.704-81.636c0.513-0.179,1.077,0,1.411,0.41L449.875,337.186z"/>
						</g>
					</g>
					<g>
						<g>
							<path style="fill:#4F021B;" d="M195.426,381.171c-6.489,0-11.772,5.258-11.772,11.747s5.283,11.772,11.772,11.772         c6.489,0,11.772-5.283,11.772-11.772S201.915,381.171,195.426,381.171z M195.426,402.125c-5.078,0-9.208-4.129-9.208-9.207         c0-5.078,4.129-9.182,9.208-9.182c5.078,0,9.207,4.104,9.207,9.182C204.634,397.996,200.505,402.125,195.426,402.125z"/>
						</g>
					</g>
					<g>
						<g>
							<path style="fill:#4F021B;" d="M397.118,316.539c-6.489,0-11.772,5.283-11.772,11.772c0,6.489,5.283,11.747,11.772,11.747         s11.747-5.258,11.747-11.747C408.865,321.823,403.607,316.539,397.118,316.539z M397.118,337.493         c-5.078,0-9.208-4.104-9.208-9.182c0-5.078,4.129-9.208,9.208-9.208c5.078,0,9.182,4.129,9.182,9.208         C406.3,333.39,402.196,337.493,397.118,337.493z"/>
						</g>
					</g>
					<g>
						<g>
							<path style="fill:#4F021B;" d="M294.964,334.441c-6.489,0-11.772,5.283-11.772,11.772s5.283,11.747,11.772,11.747         s11.747-5.258,11.747-11.747S301.453,334.441,294.964,334.441z M294.964,355.395c-5.078,0-9.207-4.129-9.207-9.182         c0-5.078,4.129-9.207,9.207-9.207c5.078,0,9.182,4.129,9.182,9.207C304.146,351.266,300.042,355.395,294.964,355.395z"/>
						</g>
					</g>
				</g>
			</g>
			<g>
				<g>
					<g>
						<path style="fill:#FFACB3;" d="M495.169,162.671c-9.56-8.761-19.35,2.63-20.638,3.969c-1.186-1.569-9.522-13.787-19.901-6.147        c-15.35,11.298,17.297,39.299,18.167,40.041c0,0.006-0.001,0.015-0.001,0.015s0.004-0.003,0.01-0.007        c0.006,0.005,0.009,0.008,0.009,0.008s0.001-0.009,0.001-0.015C473.758,199.893,509.221,175.549,495.169,162.671z"/>
					</g>
				</g>
				<g>
					<g>
						<path style="fill:#FFDCBD;" d="M440.611,111.511c0.67,2.406,3.101,5.241,5.402,6.301l11.252,5.181        c2.302,1.059,2.173,2.476-0.289,3.147l-12.029,3.281c-2.46,0.672-5.372,3.071-6.469,5.332l-5.365,11.053        c-1.098,2.261-2.543,2.144-3.212-0.262l-3.271-11.759c-0.67-2.405-3.1-5.24-5.402-6.3l-11.252-5.18        c-2.302-1.061-2.172-2.477,0.289-3.148l12.029-3.281c2.46-0.672,5.372-3.071,6.469-5.333l5.365-11.053        c1.097-2.261,2.543-2.143,3.212,0.262L440.611,111.511z"/>
					</g>
				</g>
				<g>
					<g>
						<path style="fill:#FFFFFF;" d="M443.933,227.344c1.559,1.048,4.334,1.481,6.167,0.962l8.965-2.538        c1.833-0.519,2.452,0.354,1.373,1.94l-5.273,7.755c-1.078,1.586-1.57,4.381-1.093,6.21l2.335,8.942        c0.478,1.829-0.406,2.468-1.965,1.42l-7.617-5.123c-1.558-1.048-4.333-1.481-6.167-0.962l-8.964,2.538        c-1.834,0.519-2.452-0.355-1.374-1.941l5.274-7.755c1.078-1.586,1.57-4.381,1.093-6.21l-2.335-8.941        c-0.478-1.829,0.406-2.468,1.964-1.419L443.933,227.344z"/>
					</g>
				</g>
			</g>
			<g>
				<g>
					<g>
						<path style="fill:#FFACB3;" d="M96.777,377.394c-29.155,5.241-22.01,38.803-21.361,42.997        c-4.493-0.017-38.235-1.786-38.724,27.653c-0.723,43.535,95.362,22.981,97.914,22.427c0.01,0.009,0.026,0.022,0.026,0.022        s0.001-0.011,0.002-0.028c0.017-0.004,0.028-0.006,0.028-0.006s-0.016-0.014-0.026-0.022        C134.771,467.837,139.633,369.689,96.777,377.394z"/>
					</g>
				</g>
				<g>
					<g>
						<path style="fill:#FFDCBD;" d="M173.852,404.841c1.932,1.299,5.373,1.836,7.647,1.193l11.115-3.146        c2.273-0.644,3.04,0.439,1.702,2.406l-6.539,9.615c-1.337,1.967-1.947,5.432-1.355,7.699l2.895,11.086        c0.592,2.268-0.504,3.061-2.436,1.761l-9.444-6.352c-1.931-1.299-5.372-1.836-7.646-1.192l-11.114,3.147        c-2.275,0.643-3.04-0.44-1.703-2.406l6.539-9.615c1.337-1.967,1.947-5.432,1.355-7.7l-2.895-11.086        c-0.592-2.268,0.504-3.06,2.435-1.76L173.852,404.841z"/>
					</g>
				</g>
				<g>
					<g>
						<path style="fill:#FFDCBD;" d="M56.244,342.171c1.932,1.299,5.373,1.836,7.647,1.193l11.115-3.146        c2.273-0.644,3.04,0.439,1.702,2.406l-6.539,9.615c-1.337,1.967-1.946,5.431-1.354,7.699l2.895,11.086        c0.592,2.268-0.504,3.061-2.436,1.761l-9.444-6.352c-1.931-1.299-5.372-1.836-7.646-1.192l-11.114,3.147        c-2.275,0.643-3.04-0.44-1.703-2.406l6.539-9.615c1.337-1.967,1.947-5.432,1.355-7.7l-2.895-11.085        c-0.592-2.268,0.504-3.06,2.435-1.76L56.244,342.171z"/>
					</g>
				</g>
			</g>
			<g>
				<g>
					<g>
						<path style="fill:#FFACB3;" d="M340.138,40.345c-15.407-13.618-30.605,4.722-32.61,6.881        c-1.925-2.453-15.49-21.588-31.731-9.18c-24.017,18.351,28.546,61.821,29.946,62.972c0,0.009-0.001,0.024-0.001,0.024        s0.007-0.005,0.016-0.012c0.009,0.008,0.015,0.013,0.015,0.013s0-0.015,0.001-0.024        C307.249,99.974,362.786,60.363,340.138,40.345z"/>
					</g>
				</g>
				<g>
					<g>
						<path style="fill:#FFDCBD;" d="M202.675,128.973c2.301,1.547,6.398,2.186,9.106,1.42l13.236-3.746        c2.707-0.766,3.621,0.523,2.027,2.865l-7.786,11.449c-1.592,2.343-2.318,6.468-1.613,9.169l3.448,13.201        c0.705,2.7-0.6,3.644-2.901,2.097l-11.246-7.564c-2.3-1.547-6.397-2.186-9.105-1.42l-13.235,3.747        c-2.708,0.765-3.62-0.524-2.028-2.866l7.786-11.45c1.592-2.342,2.318-6.468,1.613-9.169l-3.447-13.201        c-0.706-2.7,0.599-3.643,2.9-2.096L202.675,128.973z"/>
					</g>
				</g>
				<g>
					<g>
						<path style="fill:#FFDCBD;" d="M253.299,88.566c1.03,1.718,3.513,3.394,5.519,3.724l9.806,1.613        c2.005,0.33,2.207,1.453,0.446,2.496l-8.606,5.097c-1.76,1.043-3.502,3.518-3.87,5.5l-1.798,9.691        c-0.368,1.982-1.511,2.199-2.54,0.48l-5.032-8.399c-1.029-1.718-3.512-3.393-5.518-3.724l-9.805-1.613        c-2.006-0.331-2.207-1.453-0.447-2.496l8.607-5.097c1.759-1.043,3.502-3.518,3.87-5.501l1.798-9.691        c0.368-1.983,1.511-2.198,2.54-0.48L253.299,88.566z"/>
					</g>
				</g>
			</g>
		</g>
	</g>
</g>















</svg>
