<?xml version="1.0" encoding="UTF-8"?>
<!-- Generator: Adobe Illustrator 25.2.1, SVG Export Plug-In . SVG Version: 6.00 Build 0)  -->
<svg xmlns="http://www.w3.org/2000/svg" xmlns:xlink="http://www.w3.org/1999/xlink" version="1.1" id="Capa_1" x="0px" y="0px" viewBox="0 0 512 512" style="enable-background:new 0 0 512 512;" xml:space="preserve" width="512" height="512">
<g>
	<g>
		<g>
			<path style="fill:#FFFFFF;" d="M194.109,65.755c-8.398,2.022-16.853,3.97-24.954,7.018     c-12.101,4.553-17.544,14.986-15.518,27.714c1.213,7.62,3.33,14.946,5.378,22.03c0.968,3.348,1.881,6.511,2.683,9.631     l12.336,48.079c-13.135,10.181-15.134,29.9-15.348,47.886c-0.051,4.295-0.002,9.049,0.151,14.533     c0.003,0.13,0.009,0.26,0.016,0.388c0.124,4.202,0.292,8.509,0.461,12.869c0.328,8.433,0.652,17.119,0.68,25.542     c-16.148-27.079-34.117-35.741-36.373-36.746c-1.714-0.764-3.542-1.143-5.369-1.143c-3.242,0-6.471,1.196-9.011,3.553     c-2.344,2.175-3.754,5.193-4.117,8.37c-1.818,15.919-0.812,31.86,2.988,47.385c0.143,0.655,0.312,1.331,0.498,2.057     c2.636,10.13,6.458,20.108,11.389,29.764c-2.609-1.48-5.213-2.895-7.806-4.193c-0.713-0.37-1.433-0.719-2.001-0.987     c-23.697-11.58-42.684-14.012-54.438-14.012c-6.707,0-10.768,0.812-11.513,0.974c-4.242,0.925-7.756,3.878-9.397,7.897     c-1.642,4.019-1.201,8.588,1.179,12.218c8.811,13.434,19.922,25.214,33.027,35.012c0.544,0.427,1.12,0.854,1.703,1.28     c11.454,8.323,24.417,15.22,38.479,20.482c0.969,0.367,1.937,0.731,2.843,1.047c22.541,8.056,42.375,10.235,52.011,10.82     c0.751,0.355,1.494,0.706,2.227,1.049c0.703,0.329,1.442,0.58,2.194,0.788l-13.642,46.1c-2.956,10.066,0.311,20.834,8.326,27.435     C188.505,501.434,217.026,512,247.962,512c9.904,0,20.011-1.116,30.115-3.331l2.849-0.654c22.878-5.51,37.99-14.91,38.621-15.307     c3.348-2.105,5.574-5.602,6.065-9.525c0.004-0.035,3.623-22.997,3.623-22.997c15.154-6.026,45.824-22.379,57.982-59.054     c12.008,4.816,23.564,7.259,34.477,7.259c28.291,0,42.321-15.987,43.828-17.809c2.243-2.713,3.307-6.209,2.957-9.711     c-0.35-3.502-2.086-6.718-4.818-8.934c-9.772-7.92-20.622-12.68-32.325-14.318c14.669-16.271,15.076-33.171,15.084-34.305     c0.037-5.55-3.424-10.761-9.181-12.679c-1.287-0.429-2.648-0.597-4.005-0.597h-0.047c-0.843,0.003-1.685,0.021-2.524,0.054     l-2.329-9.083c1.141-1.584,2.04-3.364,2.814-5.24c2.094,6.164,7.298,10.126,13.516,10.126c5.479,0,10.336-3.117,13-8.341     l2.724-5.355l6.366-1.613c6.349-1.606,10.793-6.565,11.328-12.635c0.532-6.065-2.975-11.717-8.93-14.397l-5.81-2.617     l-1.605-5.575c-1.117-3.878-3.464-6.916-6.503-8.793c3.463-3.699,4.796-8.736,3.355-13.534     c-1.723-5.736-6.915-9.618-13.223-9.892l-3.185-0.141l-0.482-0.621c0.321-0.474,0.655-0.931,0.963-1.423     c3.033-3.669,5.454-7.685,7.198-11.953c8.409-20.549,0.889-44.738-4.604-62.399l-0.764-2.464     c-5.168-16.731-11.411-34.533-19.084-54.421c-2.49-6.456-5.392-13.337-9.531-19.552c10.311-7.085,24.22-18.922,26.319-32.312     c1.116-7.123-1.019-14.025-6.014-19.437c-5.029-5.445-11.341-8.323-18.254-8.323c-3.546,0-7.076,0.752-10.581,2.256     c-5.754-4.688-11.506-5.912-15.938-5.912c-4.604,0-9.104,1.332-13.379,3.959c-1.11,0.682-2.119,1.457-3.078,2.272l-5.355-0.881     l-2.655-4.422C364.168,2.755,359.5,0,354.452,0c-6.825,0-12.42,4.744-13.92,11.792l-1.12,5.236l-5.147,2.867     c-4.677,2.607-7.488,7.082-7.766,11.918L219.08,59.353L194.109,65.755z"/>
		</g>
	</g>
	<g>
		<g>
			<path style="fill:#FFACB3;" d="M377.584,390.917c-11.489,46.317-57.152,58.887-58.954,59.382c-0.023,0-0.068,0-0.068,0v0.023     l-4.911,31.156c-0.022,0.045,0,0.067,0,0.067l-34.805,3.289l-3.131,0.293l-33.251,3.086l-3.649-155.034l19.396-2.163     l125.005-13.764C383.216,317.252,389.299,343.632,377.584,390.917z"/>
		</g>
		<g>
			<g>
				<g>
					<path style="fill:#BF3561;" d="M189.403,81.03c0.005,0.026,62.488,298.416,62.488,298.416l-5.995,1.537       c-2.93,0.751-6.167-2.002-7.23-6.15c-5.307-20.7-10.614-41.4-15.921-62.099c-10.525-41.051-21.05-82.103-31.574-123.154       c-5.189-20.238-10.386-40.474-15.578-60.711c-2.566-10.001-6.19-20.264-7.81-30.454c-1.143-7.191,2.004-11.31,8.611-14.031       C177.422,83.96,187.445,81.362,189.403,81.03z"/>
				</g>
				<g>
					<path style="fill:#4F021B;" d="M335.646,43.369c7.299-1.871,14.801,2.569,16.672,9.868l69.064,269.38       c1.871,7.299-2.569,14.801-9.868,16.672L258.44,378.534c-7.299,1.871-14.801-2.569-16.672-9.868l-69.064-269.38       c-1.871-7.299,2.569-14.801,9.868-16.672L335.646,43.369z"/>
				</g>
				<g>
					<g>
						
							<rect x="225.743" y="75.286" transform="matrix(0.9687 -0.2483 0.2483 0.9687 -42.4888 81.2103)" style="fill:#FFD1D0;" width="149.78" height="267.448"/>
					</g>
					<g>
						<path style="fill:#FFD1D0;" d="M276.327,66.802c0.581,2.267-0.785,4.575-3.052,5.156c-2.266,0.581-4.575-0.785-5.156-3.052        c-0.581-2.267,0.785-4.575,3.051-5.156C273.437,63.17,275.746,64.536,276.327,66.802z"/>
					</g>
					<g>
						<path style="fill:#FFACB3;" d="M320.266,356.772c-0.922,0-1.832-0.248-2.651-0.732c-1.201-0.711-2.051-1.842-2.396-3.184        c-0.344-1.342-0.142-2.743,0.568-3.944c0.711-1.201,1.841-2.052,3.184-2.396l42.184-10.815        c2.785-0.711,5.627,0.97,6.341,3.752c0.713,2.782-0.971,5.626-3.753,6.34l-42.185,10.815        C321.132,356.717,320.697,356.772,320.266,356.772z M362.448,335.838c-0.406,0-0.815,0.051-1.217,0.154l-42.184,10.815        c-1.265,0.324-2.33,1.126-3,2.258c-0.669,1.132-0.86,2.451-0.535,3.715c0.324,1.265,1.126,2.33,2.258,3        c1.131,0.67,2.452,0.861,3.715,0.536l42.184-10.815c2.622-0.673,4.208-3.352,3.536-5.973c-0.324-1.265-1.126-2.33-2.258-3        C364.176,336.072,363.317,335.838,362.448,335.838z"/>
					</g>
				</g>
			</g>
			<g>
				<polygon style="fill:#FFC0C0;" points="339.96,60.885 406.926,322.083 405.1,322.551 338.667,63.43 192.644,100.868       192.111,98.79     "/>
			</g>
		</g>
		<g>
			<path style="fill:#FFACB3;" d="M400.379,269.838c-0.66,1.985-0.722,4.143-0.591,6.254c0.309,4.955,1.66,9.859,3.932,14.27     c1.454,2.823,3.528,5.63,6.5,6.463c3.049,0.855,6.351-0.698,8.302-3.212c1.951-2.514,2.736-5.819,2.958-9.063     c0.354-5.172-0.707-10.668-3.901-14.733C413.34,264.424,403.087,261.691,400.379,269.838z"/>
		</g>
		<g>
			<g>
				<g>
					<path style="fill:#FFACB3;" d="M395.654,217.174c0,0,8.266,2.989,14.134,16.13c5.869,13.14,5.968,25.716-5.772,31.11       c-8.992,4.131-16.709-4.671-18.888-12.658c-1.833-6.716-1.095-14.688,2.579-20.659c1.556-2.528,3.997-4.325,5.293-7.039       C394.057,221.846,394.914,219.511,395.654,217.174z"/>
				</g>
				<g>
					<path style="fill:#FFE7E7;" d="M394.039,236.563c-1.153,2.851-0.946,6.109-0.028,9.044c0.917,2.936,2.498,5.613,4.086,8.246       c0.991,1.642,2.013,3.308,3.464,4.562c1.452,1.253,3.426,2.05,5.3,1.641c3.171-0.693,4.69-4.32,5.198-7.526       c0.639-4.038,0.481-8.201-0.463-12.178c-0.598-2.519-1.55-5.034-3.316-6.927C403.994,228.83,396.304,230.964,394.039,236.563z"/>
				</g>
			</g>
			<g>
				<path style="fill:#FFE7E7;" d="M405.137,272.098c-0.347,2.211,0.257,4.456,0.974,6.576c0.932,2.754,2.064,5.44,3.385,8.03      c1.018,1.996,2.565,4.191,4.805,4.181c1.284-0.006,2.47-0.799,3.228-1.836c0.758-1.037,1.146-2.296,1.434-3.548      c0.851-3.697,0.909-7.68-0.543-11.184C416.274,269.135,406.586,262.882,405.137,272.098z"/>
			</g>
		</g>
		<g>
			<path style="fill:#F8627F;" d="M387.03,290.244c-8.375-8.561-17.978,1.451-19.233,2.621c-1.015-1.506-8.087-13.194-18.044-6.672     c-14.726,9.646,13.972,37.115,14.737,37.843c0,0.005-0.002,0.014-0.002,0.014s0.004-0.002,0.01-0.006     c0.005,0.005,0.008,0.008,0.008,0.008s0.001-0.009,0.001-0.014C365.408,323.493,399.34,302.828,387.03,290.244z"/>
		</g>
		<g>
			<g>
				<path style="fill:#F8627F;" d="M212.51,71.566c-13.218,0.935-11.647,16.205-11.56,18.101      c-1.998-0.223-16.921-2.625-18.548,10.445c-2.406,19.329,41.314,14.787,42.476,14.663c0.004,0.004,0.01,0.011,0.01,0.011      s0.001-0.005,0.002-0.013c0.007-0.001,0.012-0.001,0.012-0.001s-0.007-0.007-0.01-0.011      C225.079,113.612,231.941,70.191,212.51,71.566z"/>
			</g>
			<g>
				<path style="fill:#F8627F;" d="M427.614,27.366c-9.09-9.844-20.152,1.044-21.594,2.311c-1.086-1.717-8.618-15.016-19.965-8.043      c-16.78,10.313,14.429,41.958,15.261,42.797c0,0.006-0.002,0.016-0.002,0.016s0.004-0.003,0.011-0.006      c0.005,0.005,0.009,0.009,0.009,0.009s0.001-0.01,0.002-0.016C402.361,63.854,440.975,41.837,427.614,27.366z"/>
			</g>
			<g>
				<g>
					<path style="fill:#FFDCBD;" d="M360.984,21.196c0.864,1.439,2.991,2.85,4.726,3.135l8.483,1.395       c1.736,0.286,1.891,1.224,0.344,2.086l-7.557,4.212c-1.546,0.862-3.1,2.919-3.453,4.571l-1.727,8.08       c-0.354,1.653-1.349,1.828-2.214,0.389l-4.224-7.035c-0.863-1.439-2.991-2.85-4.726-3.135l-8.484-1.395       c-1.735-0.286-1.89-1.224-0.344-2.086l7.558-4.212c1.546-0.862,3.1-2.919,3.453-4.571l1.727-8.079       c0.353-1.653,1.35-1.828,2.213-0.389L360.984,21.196z"/>
				</g>
				<g>
					<path style="fill:#FFDCBD;" d="M435.151,234.01c0.811,1.045,2.606,1.949,3.99,2.01l6.765,0.297       c1.384,0.061,1.593,0.78,0.465,1.599l-5.517,4.001c-1.128,0.819-2.151,2.573-2.273,3.898l-0.594,6.481       c-0.122,1.325-0.884,1.556-1.695,0.511l-3.961-5.106c-0.81-1.044-2.605-1.949-3.99-2.01l-6.765-0.297       c-1.384-0.061-1.593-0.781-0.465-1.599l5.517-4.001c1.128-0.819,2.151-2.573,2.273-3.899l0.595-6.48       c0.122-1.326,0.884-1.556,1.694-0.511L435.151,234.01z"/>
				</g>
				<g>
					<path style="fill:#FFDCBD;" d="M452.588,267.352c0.492,1.706,2.281,3.727,3.978,4.491l8.291,3.735       c1.696,0.764,1.599,1.765-0.215,2.225l-8.871,2.248c-1.815,0.46-3.963,2.14-4.774,3.733l-3.964,7.789       c-0.811,1.593-1.876,1.501-2.368-0.205l-2.402-8.339c-0.491-1.706-2.282-3.727-3.978-4.491l-8.291-3.734       c-1.696-0.764-1.599-1.765,0.216-2.226l8.87-2.248c1.815-0.46,3.963-2.14,4.774-3.733l3.964-7.788       c0.811-1.593,1.877-1.501,2.368,0.205L452.588,267.352z"/>
				</g>
				<g>
					<path style="fill:#FFFFFF;" d="M290.246,292.714c0.961,1.6,3.325,3.169,5.255,3.486l9.432,1.551       c1.93,0.317,2.102,1.361,0.383,2.319l-8.402,4.682c-1.719,0.958-3.447,3.245-3.839,5.082l-1.92,8.983       c-0.393,1.838-1.5,2.032-2.461,0.432l-4.695-7.821c-0.96-1.599-3.325-3.168-5.254-3.485l-9.432-1.551       c-1.929-0.317-2.101-1.36-0.383-2.318l8.402-4.682c1.719-0.958,3.446-3.245,3.84-5.083l1.92-8.983       c0.393-1.838,1.5-2.032,2.461-0.432L290.246,292.714z"/>
				</g>
			</g>
		</g>
		<g>
			<g>
				<path style="fill:#B8E3C5;" d="M378.364,371.349c0,0,11.225-47.961,55.993-48.125      C434.356,323.224,434.143,359.573,378.364,371.349z"/>
			</g>
			<g>
				<path style="fill:#B8E3C5;" d="M382.67,384.043c0,0,39.029-30.049,73.809-1.861C456.479,382.182,433.323,410.202,382.67,384.043      z"/>
			</g>
		</g>
		<g>
			<g>
				<g>
					<path style="fill:#B8E3C5;" d="M166.429,329.506c0.207,0.807,0.42,1.637,0.608,2.474c3.151,13.002,5.421,28.049,6.349,45.578       c0.006,0.023,0.03,0.017,0.012,0.046c0.033,0.434,0.072,0.891,0.081,1.331c0,0-0.581-0.441-1.61-1.307c0,0,0,0-0.03-0.017       c-4.916-4.048-19.887-17.264-32.722-37.883c-0.482-0.761-0.938-1.529-1.396-2.296c-6.177-10.286-11.7-22.287-15.225-35.832       c-0.142-0.553-0.29-1.13-0.407-1.689c-3.218-13.06-4.53-27.516-2.712-43.169c0,0,20.718,9.236,36.592,43.132       c0.276,0.569,0.558,1.16,0.815,1.757C160.401,309.549,163.711,318.801,166.429,329.506z"/>
				</g>
				<g>
					<path style="fill:#4F021B;" d="M174.786,382.351c-0.323,0.083-0.668-0.059-0.813-0.354       c-19.039-38.95-48.374-108.692-48.668-109.392c-0.144-0.344,0.035-0.741,0.4-0.887c0.356-0.142,0.778,0.012,0.923,0.356       c0.294,0.7,29.616,70.408,48.638,109.325c0.163,0.335,0.007,0.741-0.35,0.906C174.873,382.324,174.831,382.34,174.786,382.351z       "/>
				</g>
			</g>
			<g>
				<path style="fill:#4F021B;" d="M142.164,309.581c-0.081,0.193-0.258,0.312-0.478,0.368c-0.122,0.031-0.226,0.033-0.371-0.028      c-0.025,0.006-0.079-0.004-0.11-0.021l-18.709-8.301c-0.142-0.553-0.29-1.13-0.407-1.689l18.411,8.156l1.354,0.611      C142.206,308.833,142.337,309.242,142.164,309.581z"/>
			</g>
			<g>
				<path style="fill:#4F021B;" d="M156.784,301.63l-8.304,20.707c-0.037,0.058-0.049,0.111-0.117,0.153      c-0.093,0.147-0.227,0.23-0.398,0.274c-0.122,0.031-0.275,0.046-0.42-0.015c-0.371-0.126-0.545-0.499-0.402-0.855l0.442-1.121      l8.385-20.899C156.244,300.442,156.526,301.033,156.784,301.63z"/>
			</g>
			<g>
				<path style="fill:#4F021B;" d="M166.429,329.506c0.207,0.807,0.42,1.637,0.608,2.474l-6.479,17.978      c-0.081,0.193-0.222,0.352-0.436,0.431l-0.073,0.019c-0.171,0.044-0.354,0.042-0.53-0.036l-0.419-0.212l-19.983-10.432      c-0.482-0.761-0.938-1.529-1.396-2.296l20.433,10.66l1.347,0.687l0.224-0.647L166.429,329.506z"/>
			</g>
		</g>
		<g>
			<g>
				<g>
					<path style="fill:#B8E3C5;" d="M133.083,358.158c0.688,0.503,1.395,1.021,2.087,1.558       c10.931,8.213,22.468,18.521,34.525,31.529c0.02,0.014,0.036-0.005,0.039,0.029c0.307,0.316,0.633,0.647,0.924,0.982       c0,0-0.753-0.002-2.143-0.071c0,0,0,0-0.035,0.005c-6.578-0.262-27.184-1.747-50.842-10.201       c-0.88-0.308-1.743-0.634-2.607-0.961c-11.619-4.348-23.818-10.404-35.4-18.82c-0.472-0.345-0.963-0.704-1.418-1.069       c-11.021-8.218-21.405-18.628-30.036-31.788c0,0,22.677-4.943,57.352,12.001c0.589,0.279,1.198,0.571,1.791,0.883       C115.346,346.246,123.984,351.468,133.083,358.158z"/>
				</g>
				<g>
					<path style="fill:#4F021B;" d="M173.916,394.134c-0.207,0.253-0.578,0.344-0.885,0.2       c-40.489-19.005-109.15-55.808-109.838-56.178c-0.338-0.182-0.45-0.593-0.249-0.919c0.196-0.318,0.635-0.445,0.974-0.263       c0.689,0.37,69.317,37.155,109.771,56.144c0.348,0.164,0.484,0.569,0.302,0.904       C173.969,394.062,173.944,394.099,173.916,394.134z"/>
				</g>
			</g>
			<g>
				<path style="fill:#4F021B;" d="M100.649,356.907c0.059,0.196-0.007,0.392-0.148,0.563c-0.078,0.096-0.161,0.158-0.318,0.195      c-0.016,0.019-0.067,0.043-0.102,0.048l-20.452,4.494c-0.472-0.345-0.963-0.704-1.418-1.069l20.119-4.432l1.487-0.317      C100.2,356.304,100.57,356.544,100.649,356.907z"/>
			</g>
			<g>
				<path style="fill:#4F021B;" d="M107.318,342.235l6.656,20.85c0.008,0.067,0.032,0.115,0.004,0.186      c0.02,0.167-0.035,0.311-0.144,0.444c-0.078,0.095-0.192,0.195-0.349,0.233c-0.38,0.119-0.762-0.069-0.876-0.427l-0.367-1.124      l-6.715-21.046C106.116,341.63,106.725,341.923,107.318,342.235z"/>
			</g>
			<g>
				<path style="fill:#4F021B;" d="M133.083,358.158c0.688,0.503,1.395,1.021,2.087,1.558l6.369,17.676      c0.059,0.196,0.048,0.402-0.074,0.588l-0.047,0.057c-0.11,0.133-0.259,0.238-0.451,0.281l-0.475,0.08l-22.855,3.591      c-0.88-0.308-1.743-0.634-2.607-0.961l23.365-3.676l1.53-0.255l-0.236-0.631L133.083,358.158z"/>
			</g>
		</g>
		<g>
			<g>
				<path style="fill:#FFACB3;" d="M313.651,481.478c-0.022,0.045,0,0.067,0,0.067s-13.652,8.583-34.692,13.652      c-0.879,0.203-1.757,0.405-2.658,0.608c-27.326,5.992-66.006,5.564-103.604-25.389c-3.965-3.266-5.497-8.628-4.055-13.539      l14.44-48.794c0,0-8.808-82.225-8.763-124.464c0.045-13.787-0.789-28.092-1.172-41.338l10.295-51.791      c1.532-1.126,3.244-1.982,5.204-2.501c15.724-4.258,39.423,55.53,44.447,88.308c4.979,32.755,3.807,33.521,3.807,33.521      s9.372,7.772,21.311,21.198c13.719,15.454,30.863,38.409,41.135,65.645c7.321,19.396,10.948,38.59,12.705,53.773      c0.022,0.045,0.022,0.09,0.022,0.135C314.124,468.141,313.674,480.351,313.651,481.478z"/>
			</g>
			<g>
				<path style="fill:#FFE7E7;" d="M191.315,220.863c0.097,4.75-0.036,9.64-1.871,14.033c-1.81,4.386-5.661,8.201-10.371,8.768      c-2.28,0.264-4.233-0.276-5.931-1.387c-0.663-23.814,0.167-44.197,10.307-51.785c0.676,0.867,1.265,1.81,1.797,2.741      C189.908,201.535,191.114,211.337,191.315,220.863z"/>
			</g>
			<g>
				<path style="fill:#4F021B;" d="M302.201,404.785c-0.54,0-0.992-0.423-1.022-0.969c-0.022-0.267-0.762-7.234-17.383-37.303      c-17.565-31.774-47.232-55.662-47.53-55.9c-0.442-0.353-0.514-0.997-0.161-1.439c0.354-0.441,0.998-0.513,1.439-0.161      c0.301,0.24,30.285,24.383,48.044,56.51c17.067,30.875,17.622,37.9,17.637,38.184c0.03,0.565-0.403,1.047-0.967,1.078      C302.237,404.784,302.219,404.785,302.201,404.785z"/>
			</g>
			<g>
				<path style="fill:#F4A2AB;" d="M318.562,450.322l-4.911,31.156c-0.022,0.045,0,0.067,0,0.067s-13.652,8.583-34.692,13.652      c-0.428-2.275-0.541-4.641-0.428-7.051c0.045-1.104,0.158-2.208,0.315-3.312c2.365-16.085,16.535-32.214,33.206-34.4      C314.192,450.164,316.354,450.119,318.562,450.322z"/>
			</g>
		</g>
		<g>
			<g>
				<path style="fill:#FFC0C0;" d="M361.809,70.683c-2.607,0.621-5.18,1.303-7.687,1.945c-23.167,5.936-45.874,13.667-67.853,23.096      c-17.385,7.458-36.041,14.735-49.012,29.129c-15.281,16.96-14.757,41.097-10.891,62.168      c4.768,25.98,15.002,49.917,28.588,72.432c2.753,4.563,6.311,8.915,11.191,11.056c10.228,4.487,23.698-0.297,33.838-2.86      c7.822-1.977,15.624-4.379,23.121-7.378l-5.16,37.53l43.224-47.675c15.565-4,30.787-9.428,45.266-16.413      c11.698-5.644,23.542-12.035,28.736-24.731c6.954-16.997-0.616-39.319-5.762-55.978c-5.586-18.083-11.977-35.91-18.788-53.569      c-3.796-9.842-8.501-20.835-17.788-26.708C383.283,66.689,372.272,68.191,361.809,70.683z"/>
			</g>
			<g>
				<path style="fill:#FFE7E7;" d="M365.415,65.713c-2.607,0.621-5.179,1.303-7.687,1.946      c-23.167,5.936-45.874,13.667-67.853,23.096c-17.385,7.458-36.042,14.735-49.012,29.129      c-15.281,16.96-14.757,41.097-10.891,62.168c4.768,25.98,15.002,49.917,28.588,72.433c2.753,4.562,6.311,8.915,11.191,11.056      c10.228,4.487,23.698-0.297,33.838-2.86c7.821-1.977,15.624-4.379,23.121-7.378l-5.16,37.53l43.223-47.674      c15.565-4,30.787-9.428,45.266-16.413c11.698-5.644,23.541-12.035,28.736-24.731c6.954-16.997-0.616-39.319-5.762-55.978      c-5.586-18.083-11.977-35.91-18.788-53.568c-3.796-9.842-8.501-20.835-17.788-26.708      C386.889,61.719,375.878,63.221,365.415,65.713z"/>
			</g>
			<g>
				<path style="fill:#F8627F;" d="M374.307,109.235C344,97.697,331.76,133.211,330.001,137.511      c-4.205-2.551-34.857-23.256-51.932,4.082c-25.251,40.429,76.481,75.38,79.187,76.302c0.005,0.014,0.012,0.035,0.012,0.035      s0.007-0.01,0.017-0.026c0.018,0.006,0.029,0.01,0.029,0.01s-0.007-0.022-0.012-0.035      C358.899,215.518,418.856,126.197,374.307,109.235z"/>
			</g>
		</g>
	</g>
</g>















</svg>
