<?xml version="1.0" encoding="UTF-8"?>
<!-- Generator: Adobe Illustrator 25.2.1, SVG Export Plug-In . SVG Version: 6.00 Build 0)  -->
<svg xmlns="http://www.w3.org/2000/svg" xmlns:xlink="http://www.w3.org/1999/xlink" version="1.1" id="Capa_1" x="0px" y="0px" viewBox="0 0 512 512" style="enable-background:new 0 0 512 512;" xml:space="preserve" width="512" height="512">
<g>
	<g>
		<g>
			<path style="fill:#FFFFFF;" d="M475.049,186.284c-0.781-3.375-3.342-10.158-4.236-12.391     c-7.358-18.379-22.127-35.643-40.79-49.54c-0.099-0.072-0.203-0.14-0.297-0.219c-1.589-1.311-7.883-5.339-9.898-6.694     c-8.988-6.043-18.945-10.242-28.619-13.387c7.542-4.603,14.17-10.426,17.59-17.659c3.662-7.747,3.545-16.335-0.333-24.183     c-5.298-10.717-15.049-16.864-26.755-16.864c-1.438,0-2.839,0.093-4.188,0.253c-7.992-11.77-19.052-13.334-24.345-13.334     c-2.785,0-5.654,0.394-8.523,1.172c-4.624,1.253-8.663,3.502-11.932,6.568c-0.757-0.344-1.544-0.649-2.365-0.898l-5.103-1.549     l-1.893-4.374c-2.839-6.539-8.788-10.601-15.532-10.601c-2.368,0-4.633,0.516-6.701,1.452     c-6.058-8.758-14.972-13.579-25.223-13.579c-2.999,0-6.061,0.417-9.184,1.252C258.483,1.809,248.846,0,242.912,0     c-4.071,0-8.218,0.839-12.323,2.494c-8.44,3.403-14.475,9.977-16.996,18.513c-2.335,7.906-1.294,16.952,1.307,25.759     c-0.676-0.085-1.361-0.138-2.057-0.138c-4.403,0-8.456,1.755-11.479,4.768c-3.073-3.315-7.403-5.223-12.14-5.223     c-2.376,0-4.785,0.489-7.164,1.457l-6.793,2.765l-5.919-3.085c-2.76-1.436-5.632-2.164-8.541-2.164     c-5.393,0-10.45,2.598-13.532,6.953c-3.23,4.567-3.939,10.431-1.944,16.086l1.676,4.756c-3.619-1.67-7.616-2.548-11.824-2.548     c-0.457,0-0.912,0.01-1.382,0.031c-13.998,0.612-24.061,8.889-28.041,22.182c-13.616,2.457-22.968,11.771-25.057,25.525     c-1.265,8.328,0.978,16.333,6.315,22.541c1.082,1.258,2.284,2.435,3.597,3.537c-2.061,3.68-3.291,7.958-3.521,12.524     c-0.305,6.055,1.131,11.347,2.414,15.278c0.455,1.388,0.943,2.766,1.469,4.135c-1.261,0.45-2.483,0.978-3.665,1.582     c-3.624-3.456-8.137-6.08-13.304-7.468c-2.628-0.706-5.334-1.065-8.043-1.065c-13.977,0-26.272,9.435-29.898,22.938     c-3.126,11.639,0.841,23.541,9.245,31.096c-2.64,3.266-4.638,7.1-5.776,11.342c-2.943,10.961,0.45,22.16,7.924,29.69V482.32     l0,0.057C47.485,498.744,60.759,512,77.126,512h0h345.188h0c16.366,0,29.642-13.251,29.672-29.617l0-0.062V259.519     c0-4.416-1.866-8.626-5.138-11.592l-0.109-0.099c3.263-1.286,6.351-2.817,9.159-4.704c2.186-1.469,9.888-7.863,11.939-11.093     C476.032,219.127,479.481,203.695,475.049,186.284z"/>
		</g>
	</g>
	<g>
		<path style="fill:#FFE7E7;" d="M437.313,259.948l-186.709,67.868L64.015,259.948l0.124-0.124L231.633,98.925    c8.009-7.687,20.605-7.86,28.813-0.372l175.826,160.453L437.313,259.948z"/>
		<polygon style="fill:#F8627F;" points="433.147,259.847 250.664,413.609 64.362,259.948   "/>
		<g>
			<g>
				<g>
					<path style="fill:#F8627F;" d="M135.426,86.466c-16.449,0.721-15.006,19.739-14.96,22.097       c-2.474-0.343-20.928-3.825-23.385,12.355c-3.633,23.927,50.82,19.743,52.268,19.627c0.005,0.006,0.012,0.015,0.012,0.015       s0.002-0.007,0.003-0.016c0.009-0.001,0.016-0.001,0.016-0.001s-0.008-0.008-0.012-0.014       C149.635,139.108,159.605,85.406,135.426,86.466z"/>
				</g>
			</g>
			<g>
				<g>
					<path style="fill:#F8627F;" d="M289.564,33.843c-9.545-14.64-26.142-3.048-28.272-1.733       c-1.023-2.445-7.811-21.189-23.921-14.693c-23.824,9.606,9.415,57.101,10.302,58.361c-0.003,0.008-0.007,0.02-0.007,0.02       s0.007-0.003,0.016-0.006c0.005,0.008,0.009,0.013,0.009,0.013s0.004-0.012,0.006-0.019       C249.141,75.263,303.595,55.362,289.564,33.843z"/>
				</g>
			</g>
			<g>
				<g>
					<path style="fill:#F8627F;" d="M395.406,69.574c-7.1-14.364-23.468-5.614-25.55-4.648c-0.665-2.337-4.81-20.138-20.182-15.974       c-22.732,6.158,2.37,53.005,3.041,54.248c-0.003,0.007-0.008,0.017-0.008,0.017s0.006-0.001,0.016-0.004       c0.004,0.008,0.007,0.014,0.007,0.014s0.005-0.01,0.008-0.017C354.108,102.891,405.842,90.688,395.406,69.574z"/>
				</g>
			</g>
			<g>
				<g>
					<path style="fill:#FFDCBD;" d="M172.059,66.284c1.837,0.958,4.986,1.072,6.998,0.253l9.831-4.002       c2.011-0.818,2.779,0.068,1.708,1.973l-5.241,9.308c-1.072,1.904-1.381,5.072-0.688,7.041l3.392,9.619       c0.693,1.968-0.242,2.794-2.08,1.837l-8.983-4.683c-1.837-0.958-4.987-1.072-6.997-0.252l-9.832,4.002       c-2.011,0.818-2.779-0.071-1.707-1.974l5.239-9.309c1.072-1.903,1.382-5.072,0.688-7.039l-3.392-9.62       c-0.693-1.968,0.242-2.794,2.08-1.836L172.059,66.284z"/>
				</g>
			</g>
			<g>
				<g>
					<path style="fill:#FFDCBD;" d="M217.493,69.991c0.563,1.3,2.186,2.717,3.606,3.148l6.943,2.109       c1.42,0.432,1.446,1.233,0.057,1.783l-6.791,2.685c-1.389,0.549-2.918,2.098-3.397,3.442l-2.341,6.568       c-0.48,1.343-1.332,1.379-1.895,0.079l-2.753-6.354c-0.563-1.3-2.186-2.717-3.606-3.148l-6.943-2.109       c-1.42-0.431-1.445-1.234-0.056-1.783l6.79-2.686c1.389-0.549,2.918-2.098,3.396-3.441l2.342-6.568       c0.48-1.344,1.332-1.379,1.895-0.079L217.493,69.991z"/>
				</g>
			</g>
			<g>
				<g>
					<path style="fill:#FFDCBD;" d="M313.447,47.859c0.71,1.64,2.757,3.427,4.549,3.971l8.759,2.661       c1.792,0.544,1.824,1.556,0.072,2.25l-8.567,3.387c-1.753,0.693-3.681,2.647-4.286,4.343l-2.954,8.287       c-0.605,1.695-1.681,1.74-2.391,0.1l-3.474-8.017c-0.71-1.639-2.758-3.427-4.55-3.971l-8.761-2.661       c-1.792-0.544-1.823-1.557-0.071-2.25l8.568-3.388c1.752-0.692,3.681-2.647,4.285-4.342l2.955-8.287       c0.605-1.695,1.68-1.74,2.391-0.1L313.447,47.859z"/>
				</g>
			</g>
		</g>
		<g>
			<g>
				<path style="fill:#4F021B;" d="M282.444,204.12c-8.509,1.859-17.263,2.9-25.771,4.759c1.248,6.274,7.705,10.973,14.033,10.484      c5.357,41.946-3.084,107.836-14.797,149.132c-0.175,0.623,0.185,1.271,0.808,1.447c0.107,0.031,0.216,0.044,0.32,0.044      c0.511,0,0.981-0.337,1.128-0.851c11.784-41.561,20.27-107.939,14.847-150.195C279.132,217.168,283.523,210.449,282.444,204.12z      "/>
				<g>
					<path style="fill:#F8627F;" d="M323.805,90.744c0.003-0.717-0.028-1.424-0.101-2.113c-0.047-0.516-0.141-1.008-0.234-1.5       c-0.21-1.018-0.698-1.88-1.389-2.616c-0.311-0.332-1.663-0.27-2.048-0.554c-0.375-0.281-0.367-1.219-0.419-1.245       c-2.987-1.532-7.066-2.08-9.991-2.31c-5.811-0.469-11.528,1.453-16.941,3.585c-5.412,2.132-10.825,4.546-16.636,5.178       c-1.265,0.141-2.507,0.211-3.796,0.234c0,0,0-0.024-0.023,0h-0.68c-0.609,0-1.218,0-1.851,0.023h-0.023       c-0.202,0-0.404,0.001-0.606,0.002c-2.712-1.09-5.543-1.852-8.4-2.247c-4.686-0.633-9.466-0.281-14.012,1.218       c-9.888,3.304-18.37,11.528-28.82,11.364c-5.155-0.07-10.029-2.249-15.16-2.812c-8.833-0.961-17.644,3.069-24.298,8.88       c-4.546,3.983-8.435,8.81-11.739,13.825c-1.711,2.601-2.437,4.499-2.32,6.373c0,0,0.071,0.797,0.164,1.218       c0.258,1.031,0.75,2.109,1.453,3.351c0.351,0.609,1.189,2.014,1.52,2.777c0.003,0.007,0.007,0.014,0.01,0.021       c8.558,25.841,21.095,53.077,44.506,65.915c25.384,13.92,63.015,17.848,89.936-3.39c-0.001-0.094-0.002-0.184-0.003-0.278       c0,0,0.001,0,0.001-0.001c0.047-0.023,0.071-0.047,0.094-0.07l0.984-0.843C330.517,170.872,328.281,126.625,323.805,90.744z"/>
					<g>
						<g>
							<path style="fill:#4F021B;" d="M321.405,83.868c-0.145-0.122-0.294-0.247-0.439-0.369c-0.376-0.268-0.743-0.489-1.113-0.676         l-0.238-0.106l-0.385,0.155c-5.417,1.847-9.632,6.196-11.659,8.62c-1.542,1.804-2.949,3.77-4.308,5.671l-0.554,0.773         c-2.335,3.242-4.749,6.596-7.708,9.267c-1.201,1.08-2.596,2.117-4.082,3.084c-2.67-6.775-6.919-12.454-12.67-16.863         c-1.719-1.368-3.596-2.591-5.722-3.734l-1.938-1.003c-2.899-1.316-5.197-1.953-8.259-2.42         c-0.455-0.069-0.891,0.225-0.998,0.672l0,0c-0.114,0.471,0.172,0.938,0.639,1.064c1.487,0.398,2.962,0.882,4.391,1.443         c1.002,0.399,1.884,0.792,2.698,1.196l0.16,0.065c9.332,4.433,16.082,11.638,19.595,20.845         c-3.909,2.219-8.167,3.886-11.945,5.348c-0.956,0.369-1.917,0.758-2.88,1.146c-0.145-2.05-0.37-4.135-1.12-6.148         c-1.063-2.857-3.046-4.966-5.441-5.787c-3.966-1.354-8.228,1.058-10.386,4.15c-1.133,1.625-1.797,3.3-2.252,4.942         c-0.417-1.111-0.978-2.324-1.751-3.429c-2.051-2.944-5.305-4.535-8.288-4.073c-3.504,0.562-5.855,3.773-6.63,6.705         c-0.339,1.271-0.409,2.572-0.361,3.811c-0.758-0.988-1.523-1.802-2.334-2.499c-2.666-2.274-6.068-3.17-8.882-2.337         c-1.763,0.523-3.317,1.857-4.155,3.569c-0.485,0.984-0.668,2.015-0.598,3.013c-6.834-2.608-14.19-3.897-22.06-3.737         c-10.587,0.186-21.74,2.981-33.152,8.308c-0.637,0.308-1.271,0.613-1.93,0.942l-0.344,0.172v0.383         c0,0.487,0.092,0.956,0.179,1.353l0.283,0.786c0,0,0.807-0.471,0.947-0.526c11.717-5.792,23.178-8.821,34.065-9.005         c15.115-0.332,29.121,5.097,38.269,14.754c1.593,1.683,3.083,3.514,4.724,5.562c2.206,2.763,4.705,5.894,7.637,8.347         c0.046,0.041,0.101,0.073,0.148,0.114l0.031,0.141l0.117-0.026c0.569,0.487,1.152,0.954,1.798,1.385         c0.634,0.45,1.23,0.826,1.811,1.136c3.325,1.877,7.051,2.775,10.754,3.671c1.932,0.455,4.167,1.002,6.245,1.717         c2.344,0.806,4.649,1.913,6.86,3.296c1.811,1.097,3.579,2.4,5.257,3.875c3.344,2.901,6.339,6.434,8.903,10.502         c3.833,6.073,6.683,13.119,8.95,22.021l0.297,1.049l0.188-0.124c0.699-0.46,1.29-1.066,1.73-1.778l0,0         c-0.361-1.494-0.685-2.613-1.045-3.787l-0.024-0.174c-2.102-7.17-4.731-13.221-8.039-18.502         c-2.555-4.022-5.468-7.528-8.657-10.415c-1.857-1.693-3.882-3.23-6.017-4.564c-2.448-1.538-5.008-2.772-7.604-3.671         c-2.189-0.753-4.477-1.308-6.598-1.821c-3.429-0.826-6.974-1.683-10.03-3.383c-0.857-0.477-1.613-0.974-2.349-1.542         c-0.133-0.09-0.254-0.189-0.383-0.291l-0.001-0.001c-0.213-0.989-0.322-2.026-0.302-3.096         c0.068-4.993,2.734-10.315,7.126-14.241c5.104-4.528,11.669-7.107,18.018-9.599l0.141-0.056         c4.371-1.688,9.325-3.601,13.715-6.342c0.339-0.189,0.659-0.395,0.976-0.605l0.443-0.298c1.3-0.848,2.564-1.821,3.758-2.901         c3.313-2.995,5.93-6.674,8.252-9.935c0.182-0.271,0.363-0.521,0.598-0.826l0.148-0.203c1.201-1.673,2.446-3.402,3.785-4.986         c2.027-2.436,6.209-6.737,11.449-8.187l1.222-0.337L321.405,83.868z M250.039,142.676c-0.009,0.344-0.001,0.661,0.004,0.981         c-0.278-0.281-0.558-0.539-0.837-0.838c-0.712-0.731-1.475-1.593-2.291-2.588c-0.729-0.864-1.436-1.748-2.146-2.632         l-0.114-0.143c-1.424-1.792-3.087-3.862-4.862-5.734c-0.901-0.952-1.775-1.792-2.661-2.564         c-3.675-3.31-7.962-6.027-12.706-8.105c0.003-0.153-0.022-0.307-0.079-0.453c-0.303-0.78-0.23-1.7,0.204-2.586         c0.542-1.102,1.572-1.993,2.68-2.325c2.439-0.724,5.022,0.489,6.625,1.862c2.041,1.748,3.509,4.315,4.695,6.385         c0.213,0.375,0.615,0.61,1.048,0.61c0.138,0,0.273-0.022,0.392-0.065c0.547-0.189,0.884-0.741,0.799-1.315l-0.177-1.189         c-0.361-2.363-0.734-4.809-0.167-6.954c0.578-2.179,2.252-4.552,4.685-4.94c2.535-0.407,4.765,1.4,5.928,3.066         c1.484,2.131,2.126,4.804,2.748,7.4c0.133,0.547,0.673,0.957,1.211,0.92c0.567-0.019,1.048-0.438,1.148-0.99l0.107-0.591         c0.545-3.092,1.017-5.766,2.746-8.252c1.642-2.351,4.785-4.223,7.625-3.247c1.707,0.586,3.153,2.172,3.961,4.347         c0.726,1.949,0.894,4.125,1.028,6.273c-4.396,1.822-9.393,4.194-13.654,7.99C253.134,131.32,250.238,137.032,250.039,142.676         z"/>
						</g>
					</g>
				</g>
				<g>
					<g>
						<g>
							<path style="fill:#F44770;" d="M239.235,187.656c0.965,0.849,2.559,1.227,3.492,0.344c0.921-0.873,0.675-2.387,0.238-3.579         c-0.486-1.324-1.177-2.656-2.365-3.417c-1.187-0.761-2.976-0.727-3.826,0.399         C235.165,183.534,237.706,186.311,239.235,187.656z"/>
						</g>
					</g>
					<g>
						<g>
							<path style="fill:#F44770;" d="M244.716,200.9c0.965,0.849,2.559,1.227,3.492,0.344c0.921-0.873,0.675-2.387,0.238-3.579         c-0.486-1.324-1.177-2.656-2.365-3.417c-1.187-0.761-2.976-0.727-3.826,0.399C240.646,196.779,243.187,199.555,244.716,200.9         z"/>
						</g>
					</g>
					<g>
						<g>
							<path style="fill:#F44770;" d="M254.573,198.015c0.965,0.849,2.559,1.227,3.492,0.344c0.921-0.873,0.675-2.388,0.237-3.579         c-0.486-1.324-1.177-2.656-2.364-3.417c-1.187-0.761-2.977-0.727-3.826,0.398         C250.503,193.894,253.045,196.67,254.573,198.015z"/>
						</g>
					</g>
				</g>
				<g>
					<g>
						<path style="fill:#4F021B;" d="M270.621,284.977c-15.532-5.357-28.198-18.403-33.093-34.087        c8.769-0.06,16.674,3.088,22.88,9.282C266.615,266.366,270.662,276.208,270.621,284.977z"/>
					</g>
				</g>
			</g>
			<g>
				<path style="fill:#4F021B;" d="M395.68,168.322c-0.521-0.445-1.301-0.389-1.748,0.13      c-24.374,28.254-45.129,59.549-61.788,92.891c1.154-10.619-1.924-21.519-9.024-29.758c-3.559,12.496-1.577,26.442,5.247,37.492      c-13.796,28.973-24.526,59.407-31.855,90.683c-0.155,0.667,0.257,1.334,0.925,1.49c0.094,0.023,0.191,0.033,0.282,0.033      c0.564,0,1.072-0.386,1.207-0.957c8.014-34.192,20.114-67.372,35.859-98.721c14.278,0.147,27.949-7.409,34.897-19.915      c-13.383,1.004-26.192,8.08-34.167,18.874c-0.192,0.259-0.333,0.411-0.47,0.52c16.449-32.647,36.856-63.3,60.762-91.013      C396.254,169.552,396.198,168.769,395.68,168.322z"/>
				<g>
					<g>
						<g>
							<path style="fill:#FFDCBD;" d="M456.844,223.165c-1.118,1.504-2.012,2.83-3.371,4.052c-0.164,0.159-1.24,0.33-1.405,0.474         c-0.137,0.12-0.299,1.045-0.437,1.155c-9.419,8.078-23.059,10.546-39.237,7.821c-0.183-0.034-1.165-0.853-1.347-0.885         c-0.225-0.039-0.963,0.481-1.188,0.452c-13.972-2.574-28.43-8.657-42.746-18.733c-0.127-0.087-0.47-1.078-0.593-1.165         c-0.195-0.139-1.198-0.079-1.4-0.217c-0.586-0.435-2.888-1.82-3.474-2.254c-20.348-15.159-32.067-33.173-36.875-50.911         c-0.069-0.252,0.349-1.081,0.286-1.328c-0.04-0.157-0.889-1.006-0.903-1.161c-1.392-14.523-0.975-23.006,5.442-31.648         c3.458-4.641,7.064-8.328,12.6-10.614c0.188-0.077,1.412,0.09,1.6,0.013c0.196-0.08,0.567-0.902,0.763-0.982         c9.935-3.726,21.473-4.001,34.929-0.714c0.197,0.044,1.287,0.921,1.485,0.967c0.237,0.055,0.97-0.393,1.208-0.328         c11.396,2.955,22.743,7.995,34.227,15.722c0.152,0.104,0.46,1.066,0.612,1.17c0.177,0.121,1.22,0.091,1.397,0.212         c1.392,0.941,2.663,1.942,4.039,2.956c18.409,13.708,31.124,30.48,37.005,46.742c0.073,0.195-0.322,0.916-0.257,1.11         c0.079,0.234,1.095,1.313,1.169,1.537C465.191,200.766,464.155,213.372,456.844,223.165z"/>
						</g>
					</g>
					<path style="fill:#4F021B;" d="M412.281,176.533c14.606,2.925,29.007,5.971,46.124,9.642l1.969,0.434l-0.453-1.346       c-0.107-0.324-0.22-0.659-0.344-0.993l-0.116-0.308l-0.724-0.167c-15.171-3.245-30.859-6.603-46.456-9.7       c-5.938-1.188-10.804-2.132-15.286-2.964c-0.302-1.175-0.605-2.342-0.914-3.461c1.55-2.466,3.126-4.91,4.708-7.335       c5.69-8.804,11.5-17.403,17.268-25.558l0.361-0.511l-2.01-1.383l-0.351,0.501c-5.981,8.482-11.812,17.13-17.333,25.694       c-1.186,1.804-2.335,3.603-3.466,5.404c-0.68-2.677-1.368-5.343-2.084-8c-3.402-12.863-7.068-25.98-10.894-38.99l-0.099-0.332       l-0.334-0.092c-0.445-0.121-0.889-0.22-1.332-0.32l-1.026-0.228l0.295,1.007c3.63,12.347,7.293,25.454,10.889,38.961       c0.963,3.572,1.901,7.148,2.827,10.765l-0.042,0.066c-0.348,0.544-0.693,1.092-1.038,1.639       c-3.392-3.449-7.021-7.197-11.089-11.456c-12.376-12.962-24.65-26.399-36.479-39.934l-0.293-0.334l-2.364,0.969l0.569,0.651       c11.771,13.468,24.098,26.965,36.636,40.123l0.15,0.179c3.431,3.585,6.855,7.115,10.295,10.654       c-4.177-0.765-7.762-1.396-11.15-1.963c-19.589-3.342-37.152-5.732-53.693-7.303l-0.85-0.08l0.186,0.833       c0.078,0.348,0.177,0.712,0.276,1.082l0.155,0.574l0.429,0.041c16.466,1.562,34.046,3.959,53.744,7.323       c3.184,0.552,6.354,1.119,9.531,1.69l1.851,0.331c-1.435,2.295-2.851,4.619-4.244,6.945       c-7.313,12.095-14.279,24.324-20.701,36.343l-0.261,0.492l1.993,1.383l0.327-0.61c6.366-11.928,13.306-24.12,20.626-36.24       c1.583-2.621,3.186-5.241,4.771-7.811c0.933,0.987,1.902,1.967,2.866,2.926l0.204,0.788c0.792,3.15,1.583,6.303,2.356,9.453       c4.117,16.638,7.986,33.392,11.504,49.8l0.092,0.426l0.433,0.058c0.393,0.051,0.79,0.124,1.184,0.199l0.918,0.177l-0.196-0.915       c-3.647-17.032-7.519-33.791-11.504-49.804c-0.538-2.288-1.105-4.576-1.678-6.871c2.396,2.4,4.801,4.802,7.206,7.181       c14.635,14.408,29.782,28.619,45.02,42.24l0.39,0.349l0.409-0.325c0.319-0.257,0.639-0.535,0.954-0.84l0.479-0.465       l-0.499-0.443c-15.158-13.512-30.176-27.595-44.637-41.857c-3.671-3.579-7.189-7.09-10.463-10.436l-0.097-0.422l-0.034,0.007       l-0.094-0.367c4.667,0.876,9.32,1.789,13.974,2.704L412.281,176.533z"/>
					<g>
						<g>
							<path style="fill:#F8627F;" d="M402.418,161.507c8.72,6.493,12.579,16.067,8.619,21.385         c-3.96,5.318-14.238,4.365-22.958-2.128c-8.719-6.493-12.578-16.067-8.619-21.385         C383.42,154.061,393.699,155.014,402.418,161.507z"/>
						</g>
					</g>
				</g>
			</g>
			<g>
				<g>
					<g>
						<path style="fill:#B8E3C5;" d="M128.01,201.827c-10.101-9.075-18.347-20.83-22.717-34.218        c-1.016-3.111-1.829-6.37-1.664-9.645c0.165-3.275,1.44-6.593,3.902-8.444c4.612-3.465,11.02-0.649,15.785,2.751        c12.641,9.021,22.68,21.873,29.86,36.252c3.598,7.206,6.5,14.81,8.726,22.622c3.012,10.572-3.722,9.389-10.758,5.996        C142.88,213.157,135.005,208.112,128.01,201.827z"/>
					</g>
				</g>
				<g>
					<g>
						<path style="fill:#B8E3C5;" d="M185.474,230.259c-1.56-13.489,0.043-27.757,5.633-40.684c1.299-3.004,2.847-5.985,5.139-8.329        c2.292-2.344,5.445-3.988,8.515-3.744c5.751,0.457,8.688,6.81,10.007,12.514c3.5,15.131,2.513,31.409-1.627,46.938        c-2.075,7.783-4.935,15.402-8.439,22.73c-4.743,9.917-9.005,4.571-12.032-2.629        C189.115,248.595,186.554,239.6,185.474,230.259z"/>
					</g>
				</g>
				<g>
					<g>
						<path style="fill:#B8E3C5;" d="M225.475,266.726c3.364-13.156,9.961-25.909,19.801-35.984        c2.287-2.341,4.798-4.572,7.777-5.942c2.979-1.37,6.51-1.778,9.29-0.453c5.208,2.482,5.68,9.466,4.874,15.264        c-2.139,15.382-8.878,30.233-18.295,43.256c-4.719,6.528-10.114,12.621-16.006,18.213c-7.974,7.567-10.045,1.051-10.297-6.756        C222.321,285.153,223.145,275.836,225.475,266.726z"/>
					</g>
				</g>
				<g>
					<g>
						<path style="fill:#B8E3C5;" d="M170.826,323.674c-13.42-2.068-26.755-7.394-37.739-16.208        c-2.552-2.048-5.017-4.331-6.67-7.162c-1.654-2.831-2.403-6.306-1.355-9.202c1.964-5.425,8.868-6.574,14.717-6.335        c15.517,0.633,30.953,5.896,44.83,14.001c6.956,4.062,13.545,8.839,19.683,14.159c8.307,7.2,2.023,9.895-5.722,10.906        C189.473,325.019,180.12,325.106,170.826,323.674z"/>
					</g>
				</g>
				<g>
					<g>
						<path style="fill:#B8E3C5;" d="M145.787,275.45c-13.388-2.269-26.641-7.794-37.492-16.771        c-2.521-2.086-4.951-4.406-6.562-7.261c-1.611-2.856-2.308-6.342-1.217-9.222c2.045-5.395,8.966-6.44,14.811-6.114        c15.505,0.866,30.861,6.359,44.616,14.671c6.894,4.166,13.41,9.04,19.468,14.452c8.198,7.324,1.874,9.924-5.885,10.819        C164.411,277.074,155.058,277.021,145.787,275.45z"/>
					</g>
				</g>
				<path style="fill:#4F021B;" d="M253.174,397.991c-8.271-27.413-18.71-54.325-31.086-80.364c0.005-0.012,0.014-0.021,0.019-0.034      c5.179-14.16,10.607-29.399,15.075-46.304c0.173-0.662-0.221-1.341-0.882-1.515c-0.671-0.17-1.342,0.22-1.517,0.882      c-4.206,15.925-9.281,30.378-14.192,43.855c-6.642-13.764-13.815-27.284-21.515-40.491c2.077-16.311,3.049-32.296,3.054-50.279      c0-0.685-0.554-1.24-1.24-1.24c-0.684,0-1.24,0.555-1.24,1.24c-0.005,16.685-0.856,31.639-2.647,46.735      c-16.125-27.218-34.438-53.098-54.669-77.13c-0.437-0.526-1.225-0.591-1.746-0.15c-0.523,0.441-0.592,1.222-0.15,1.746      c22.61,26.859,42.807,56.039,60.225,86.816c-17.316-11.865-36.319-20.765-56.568-26.471c-0.653-0.184-1.342,0.198-1.53,0.856      c-0.186,0.659,0.198,1.344,0.859,1.53c21.581,6.083,41.736,15.835,59.903,28.985c0.035,0.025,0.075,0.035,0.111,0.056      c7.471,13.506,14.404,27.31,20.774,41.353c-14.991-9.591-31.972-16.604-49.327-20.351c-0.668-0.141-1.329,0.282-1.474,0.95      c-0.145,0.67,0.282,1.329,0.95,1.474c18.178,3.922,35.937,11.49,51.36,21.883c0.104,0.07,0.215,0.121,0.328,0.156      c9.639,21.695,17.936,43.939,24.751,66.526c0.163,0.536,0.653,0.882,1.187,0.882c0.117,0,0.239-0.018,0.358-0.053      C253.002,399.338,253.372,398.646,253.174,397.991z"/>
			</g>
			<g>
				<g>
					<g>
						<path style="fill:#A44043;" d="M404.234,204.247c3.94,7.509,1.046,16.791-6.464,20.731c-7.509,3.94-16.791,1.046-20.731-6.464        s-1.046-16.791,6.464-20.731C391.013,193.843,400.295,196.737,404.234,204.247z"/>
					</g>
				</g>
				<g>
					<g>
						<path style="fill:#A44043;" d="M410.141,246.412c3.888,7.412,1.032,16.573-6.38,20.461c-7.412,3.889-16.573,1.032-20.461-6.38        c-3.888-7.412-1.032-16.573,6.38-20.461C397.091,236.143,406.252,238.999,410.141,246.412z"/>
					</g>
				</g>
				<path style="fill:#4F021B;" d="M392.493,258.183c-0.318-0.611-1.07-0.848-1.672-0.53c-13.443,6.975-25.925,16.376-36.419,27.386      c8.635-23.489,19.765-46.059,33.174-67.074c0.368-0.577,0.201-1.344-0.379-1.713c-0.572-0.366-1.342-0.197-1.71,0.379      c-14.62,22.913-26.557,47.658-35.52,73.429c-0.007,0.021-0.015,0.041-0.021,0.062c-7.894,22.711-13.479,46.219-16.553,69.973      c-0.086,0.679,0.391,1.3,1.07,1.389c0.056,0.006,0.109,0.01,0.163,0.01c0.613,0,1.146-0.456,1.228-1.081      c3.045-23.529,8.571-46.814,16.379-69.313c11.062-12.691,24.793-23.493,39.733-31.244      C392.572,259.539,392.808,258.79,392.493,258.183z"/>
			</g>
			<g>
				<g>
					<g>
						<g>
							<path style="fill:#A44043;" d="M52.088,196.629c-2.2,8.19,2.656,16.613,10.847,18.812c8.19,2.2,16.612-2.656,18.812-10.847         c2.2-8.19-2.656-16.612-10.846-18.812C62.71,183.583,54.288,188.44,52.088,196.629z"/>
						</g>
					</g>
					<g>
						<g>
							<path style="fill:#A44043;" d="M55.558,239.064c-2.171,8.084,2.622,16.397,10.706,18.568         c8.083,2.171,16.397-2.622,18.568-10.706c2.171-8.084-2.622-16.397-10.706-18.568         C66.042,226.187,57.729,230.98,55.558,239.064z"/>
						</g>
					</g>
				</g>
				<g>
					<g>
						<path style="fill:#A44043;" d="M88.125,200.092c-3.131,7.881,0.72,16.808,8.601,19.939c7.881,3.131,16.808-0.72,19.939-8.601        c3.131-7.881-0.72-16.808-8.601-19.939C100.183,188.359,91.256,192.21,88.125,200.092z"/>
					</g>
				</g>
				<path style="fill:#4F021B;" d="M155.335,333.182c-8.201-22.506-18.798-44.223-31.475-64.657      c-0.008-0.014-0.016-0.027-0.025-0.041c-3.186-5.134-6.509-10.185-9.953-15.149c0.003-0.044,0.022-0.083,0.021-0.128      c-0.666-16.935-3.85-28.804-9.492-44.784c-0.229-0.647-0.945-0.986-1.581-0.756c-0.648,0.227-0.986,0.936-0.757,1.582      c5.133,14.538,8.197,25.622,9.154,40.312c-11.441-16.041-24.206-31.118-38.132-44.954c-0.483-0.482-1.271-0.48-1.753,0.005      c-0.483,0.487-0.48,1.271,0.005,1.754c17.686,17.571,33.489,37.156,47.058,58.184c-12.647-8.445-26.886-14.884-41.536-18.747      c-0.653-0.173-1.339,0.221-1.515,0.882c-0.173,0.662,0.221,1.341,0.884,1.515c16.277,4.294,32.042,11.827,45.61,21.787      c12.545,20.244,23.037,41.753,31.159,64.044c0.183,0.503,0.658,0.816,1.164,0.816c0.14,0,0.285-0.024,0.424-0.075      C155.238,334.536,155.571,333.825,155.335,333.182z"/>
			</g>
		</g>
		<path style="fill:#FFE7E7;" d="M437.019,259.948l-3.871-0.101l-161.912,96.264l-6.415-2.973    c-6.474-2.093-13.48-1.825-19.775,0.756l-6.301,3.599L64.362,259.948h-0.347l0,222.814c0,2.777,0.793,5.356,2.157,7.538    c2.555,3.994,7.127,6.548,11.895,6.529h345.187c3.929-0.04,7.928-1.681,10.463-4.719c2.257-2.455,3.595-5.753,3.595-9.348V259.948    H437.019z"/>
		<path style="fill:#4F021B;" d="M235.7,357.544c-0.297,0.174-0.595,0.347-0.893,0.521l-2.157,1.265    c-8.654,5.009-17.01,10.712-24.027,15.597c-23.333,16.315-45.847,34.193-64.791,49.542    c-18.969,15.398-38.607,31.862-58.418,48.971c-5.876,5.108-12.2,10.637-18.622,16.34c-0.174,0.174-0.372,0.347-0.62,0.521    c0.174,0.273,0.347,0.521,0.521,0.769c0.248,0.298,0.496,0.62,0.768,0.918c0.05,0.049,0.074,0.074,0.099,0.124    c0.004,0.005,0.009,0.008,0.013,0.013c0.167,0.188,0.358,0.352,0.536,0.529l0.294-0.245c0.174-0.149,0.347-0.273,0.496-0.421    c7.017-6.298,13.935-12.274,18.522-16.241c2.604-2.256,5.182-4.488,7.786-6.72c0.198-0.198,0.421-0.372,0.62-0.545    c15.894-13.613,31.986-27.052,47.93-40.02c0.025-0.025,0.025-0.025,0.05-0.025c0.645-0.545,1.289-1.066,1.934-1.587    c8.456-6.844,18.522-14.952,29.234-23.234c5.48-4.265,11.183-8.629,17.357-13.241l0.248-0.149    c6.496-4.81,12.299-8.976,17.779-12.819c6.893-4.81,15.101-10.414,23.804-15.473l2.107-1.24c0.099-0.025,0.174-0.074,0.297-0.149    l0.248-0.149c4.761-2.802,8.728-5.058,12.844-6.323l0.248-0.074c2.901-0.843,5.653-1.091,8.53-0.744    c2.009,0.223,4.042,0.769,6.224,1.637c2.678,1.041,5.753,2.653,9.398,4.86l0.446,0.273c4.562,2.802,9.174,6.099,13.241,9.001    l1.066,0.769l2.405,1.735c5.653,4.042,11.307,8.456,16.687,12.82c0.025,0.025,0.025,0.025,0.05,0.049    c0.124,0.099,0.248,0.198,0.372,0.297c3.298,2.678,6.521,5.331,9.571,7.86l4.562,3.744c0.967,0.793,1.934,1.587,2.876,2.38    l2.628,2.132l0.198,0.174c5.753,4.786,11.629,9.745,17.555,14.803c11.034,9.398,21.622,18.696,32.086,28.143    c0.62,0.57,1.24,1.116,1.86,1.686c0.297,0.273,0.62,0.545,0.917,0.818c2.554,2.331,5.108,4.662,7.662,7.017    c1.091,0.992,2.182,2.008,3.248,3c0.868,0.793,1.736,1.612,2.604,2.405c13.487,12.495,26.057,24.346,37.388,35.305    c0.04-0.029,0.083-0.054,0.123-0.083c0.181-0.122,0.364-0.243,0.525-0.384c0.025-0.025,0.075-0.049,0.099-0.099    c0.297-0.248,0.595-0.496,0.868-0.793c0.223-0.223,0.446-0.446,0.62-0.694v0c-13.836-13.34-28.416-27.077-43.417-40.863    c-21.572-19.837-43.119-38.557-65.907-57.278l-4.587-3.794c-8.679-7.166-17.679-14.58-26.829-21.126l-2.852-2.033    c-4.885-3.496-10.364-7.414-15.844-10.637l163.031-95.463v-0.967h-0.295l-3.871-0.102l0,0l-0.174,0.101l-161.767,94.695    c-1.984-1.066-3.818-1.934-5.43-2.604c-10.836-4.314-18.721-0.967-27.027,3.719L64.461,259.998l-0.099-0.05h-0.347v3.273    L235.7,357.544z"/>
		<g>
			<g>
				<path style="fill:#F8627F;" d="M283.307,411.003c-13.935-10.687-25.812,5.827-27.374,7.786      c-1.785-1.984-14.481-17.481-27.573-5.976c-19.39,17.06,27.945,51.005,29.209,51.897c0.025,0,0.025,0.025,0.025,0.025v-0.025      C258.784,463.719,303.764,426.724,283.307,411.003z"/>
			</g>
		</g>
	</g>
</g>















</svg>
