<?xml version="1.0" encoding="UTF-8"?>
<!-- Generator: Adobe Illustrator 25.2.1, SVG Export Plug-In . SVG Version: 6.00 Build 0)  -->
<svg xmlns="http://www.w3.org/2000/svg" xmlns:xlink="http://www.w3.org/1999/xlink" version="1.1" id="Capa_1" x="0px" y="0px" viewBox="0 0 512 512" style="enable-background:new 0 0 512 512;" xml:space="preserve" width="512" height="512">
<g>
	<g>
		<g>
			<path style="fill:#FFFFFF;" d="M511.258,298.663c-1.105-2.986-3.357-5.405-6.255-6.719c-7.88-3.578-16.006-5.393-24.152-5.393     c-1.824,0-3.608,0.096-5.355,0.266c8.257-16.636,4.946-30.594,4.699-31.561c-0.708-2.787-2.402-5.204-4.746-6.836     c6.224-6.256,8.354-11.57,9.073-14.426c1.588-6.313,0.237-12.696-3.807-17.971c-4.494-5.863-10.805-9.091-17.775-9.091     c-2.528,0-5.085,0.417-7.661,1.25c-2.606-2.541-5.283-4.15-7.787-5.158c2.771-3.284,4.942-7.14,6.309-11.439     c3.465-10.891,0.93-22.484-5.826-30.958c5.993-9.009,7.383-20.694,2.869-31.392c-4.073-9.646-12.298-16.631-22.09-19.243     c-0.336-10-5.141-19.685-13.57-25.87c-5.752-4.219-12.555-6.448-19.674-6.448c-2.322,0-4.628,0.245-6.88,0.72     c-4.525-7.798-12.132-13.688-21.273-15.818c-2.489-0.579-5.038-0.874-7.577-0.874c-8.006,0-15.605,2.941-21.516,7.944     c-5.04-2.945-10.845-4.581-16.832-4.581c-4.918,0-9.681,1.065-14.155,3.165c-8.07,3.789-14.053,10.543-17.035,18.505     c-0.53-0.025-1.062-0.038-1.594-0.038c-2.006,0-3.988,0.185-5.93,0.534c1.84-6.798,2.48-13.761,0.541-19.792     c-2.081-6.475-6.814-11.387-13.326-13.829c-2.972-1.115-5.969-1.681-8.905-1.681c-3.799,0-11.821,1.105-18.54,9.425     c-2.006-0.486-4.188-0.802-6.486-0.802c-8.288,0-15.367,4.071-19.934,11.463c-1.206,1.953-2.088,4.001-2.654,6.097     c-2.959-3.383-6.622-6.207-10.873-8.202c-4.469-2.099-9.225-3.162-14.137-3.162c-5.998,0-11.793,1.616-16.829,4.558     c-5.921-5.01-13.529-7.925-21.53-7.925c-2.541,0-5.092,0.294-7.581,0.875c-9.16,2.134-16.788,7.95-21.315,15.797     c-2.235-0.465-4.522-0.703-6.83-0.703c-7.122,0-13.928,2.231-19.684,6.452c-8.4,6.163-13.27,15.813-13.58,25.887     c-9.793,2.612-18.013,9.591-22.081,19.228c-4.438,10.514-3.095,22.225,2.868,31.292c-6.866,8.486-9.317,20.076-5.825,31.054     c0.026,0.082,0.057,0.161,0.083,0.242c-0.303,0.026-0.606,0.048-0.909,0.086c-7.73,0.973-15.994,5.925-18.571,16.544     c-8.943,2.751-14.723,9.755-15.391,19.367c-0.405,5.814,1.418,11.072,5.27,15.199c5.558,5.958,14.705,8.854,27.963,8.854     c0.001,0,0.001,0,0.002,0c2.626,0,5.143-0.116,7.386-0.277c-2.032,12.058-2.355,24.422-0.962,37.018     c-5.735-3.962-10.4-5.292-10.926-5.433c-1.015-0.272-2.053-0.406-3.087-0.406c-2.095,0-4.172,0.551-6.014,1.627     c-2.749,1.604-4.743,4.242-5.537,7.323c-2.447,9.492-2.24,18.176-0.359,25.941c-4.551-1.173-8.751-1.596-12.438-1.596     c-8.67,0-14.433,2.396-15.5,2.875c-2.902,1.309-5.162,3.72-6.276,6.702c-1.115,2.982-0.991,6.286,0.344,9.175     c9.404,20.371,28.98,32.054,53.709,32.054c0.001,0,0,0,0.001,0c1.944,0,3.716-0.076,5.281-0.185     c-8.194,12.351-15.937,25.04-23.109,37.917c-0.576,1.399-3.937,6.88-4.475,8.146c-2.291,4.253-9.133,17.035-1.54,28.369     c5.41,8.165,14.852,9.813,19.395,10.607l31.335,5.482c3.224,0.567,6.991,1.173,10.908,1.173c5.481,0,10.364-1.219,14.494-3.613     c6.463-3.731,10.847-9.979,13.069-18.602c0.764-1.357,1.265-2.871,1.451-4.459l0.072-0.613l0.206-1.539     c0.155-1.289,0.098-2.565-0.149-3.786c0.113-1.468,0.196-2.996,0.254-4.599c0.745-19.4,2.879-38.817,6.357-57.874     c4.809,0.344,9.534,0.516,14.134,0.516c3.633,0,7.222-0.109,10.748-0.322c0.421,6.243,4.459,11.689,10.409,13.438     c1.284,0.377,2.618,0.567,3.963,0.567c2.981,0,5.961-0.963,8.46-2.691c0.075,0,0.149,0.002,0.223,0.002     c0.465,0,0.934-0.023,1.393-0.07c2.234-0.221,4.357-0.978,6.224-2.165c5.945,5.03,13.428,7.81,21.236,7.868     c1.387,7.668,5.465,14.84,11.942,20.041c5.901,4.739,13.311,7.348,20.867,7.348c4.914,0,9.744-1.087,14.137-3.139     c0.623,0.101,1.25,0.15,1.877,0.15c1.435,0,2.866-0.258,4.219-0.771c0.344-0.124,0.681-0.266,1.015-0.423     c3.995,1.637,8.305,2.499,12.671,2.499c7.552,0,14.958-2.607,20.852-7.342c6.465-5.193,10.54-12.368,11.93-20.04     c6.21-0.045,12.213-1.809,17.402-5.059c1.535,0.78,3.209,1.283,4.95,1.456c0.468,0.048,0.934,0.07,1.392,0.07     c0.016,0,0.029,0,0.043,0c2.444,1.648,5.337,2.563,8.231,2.563c1.344,0,2.673-0.19,3.953-0.567     c5.708-1.675,9.647-6.799,10.258-12.745c3.203,0.182,6.459,0.276,9.75,0.276c6.28,0,12.784-0.338,19.44-1.006     c2.506,13.904,4.048,28.103,4.59,42.314c0.035,0.877,0.079,1.745,0.136,2.596c-0.268,1.279-0.328,2.621-0.153,3.974l0.221,1.763     c0.196,1.664,0.734,3.244,1.561,4.651c1.559,5.424,4.199,9.608,8.004,12.714c0.662,0.54,1.378,1.008,2.139,1.394     c2.714,1.378,5.704,2.106,8.645,2.106c0.27,0,0.54-0.006,0.786-0.017c2.06-0.087,4.052-0.526,5.9-1.266     c1.318,0.285,2.671,0.433,4.042,0.433c1.683,0,3.362-0.223,4.989-0.664c1.724-0.464,3.353-1.167,4.851-2.066     c1.456,0.34,2.949,0.516,4.45,0.516c1.19,0,2.38-0.111,3.525-0.328c3.37-0.635,6.486-2.157,9.078-4.31     c1.202-0.058,2.409-0.243,3.644-0.563c5.215-1.398,9.613-5.075,11.99-9.936c1.398-2.759,2.151-5.814,2.238-9.084     c0.039-1.501-0.204-2.997-0.718-4.407c-0.528-1.446-1.18-2.918-1.951-4.409c-0.21-0.955-0.54-1.891-0.99-2.788l-0.402-0.802     c-0.277-0.549-0.557-1.072-0.874-1.611l-0.142-0.241c-0.542-0.92-1.198-1.753-1.943-2.481     c-7.48-13.362-15.746-26.453-24.605-38.957c-0.346-0.487-0.825-1.225-1.425-2.133c-0.914-1.39-2.054-3.124-3.368-5.026     c0.116-0.219,0.225-0.445,0.328-0.672l0.419-0.932c0.278-0.61,0.551-1.254,0.839-2.005l0.074-0.198     c0.344-0.924,0.569-1.879,0.676-2.844c0.208-0.499,0.412-1.002,0.613-1.503c0.612-0.8,1.128-1.685,1.528-2.642l0.52-1.242     c0.27-0.648,0.516-1.297,0.761-1.972c0.089-0.249,0.2-0.598,0.272-0.852c0.232-0.803,0.366-1.629,0.424-2.461     c1.469,1.28,3.248,2.204,5.209,2.647c8.115,1.829,15.904,2.757,23.145,2.757c0.002,0,0.004,0,0.006,0     c38.742,0,51.261-25.948,51.776-27.053C512.229,304.949,512.363,301.646,511.258,298.663z"/>
		</g>
	</g>
	<g>
		<g>
			<g>
				<path style="fill:#FFE7E7;" d="M429.559,161.428c10.131-4.96,14.739-17.031,10.297-27.552      c-4.29-10.162-15.503-15.283-25.834-12.197c5.381-9.334,2.996-21.417-5.893-27.938c-8.306-6.093-19.541-5.311-26.924,1.292      c0-9.731-6.669-18.536-16.554-20.84c-10.548-2.457-21.086,3.344-24.849,13.184c-5.582-9.309-17.417-13.061-27.454-8.35      c-8.946,4.199-13.607,13.792-11.974,23.079c-8.05-5.256-18.922-4.599-26.276,2.245c-6.257,5.823-8.221,14.508-5.802,22.149      c-4.322-0.66-8.96,0.947-11.941,4.345c-0.983,1.121-1.762,2.42-2.341,3.815c-0.564-1.28-1.306-2.469-2.217-3.508      c-2.501-2.851-6.169-4.443-9.838-4.493c1.717-7.25-0.388-15.189-6.232-20.628c-7.354-6.845-18.227-7.502-26.276-2.245      c1.633-9.287-3.028-18.88-11.974-23.079c-10.037-4.712-21.872-0.96-27.454,8.349c-3.763-9.84-14.301-15.642-24.849-13.184      c-9.885,2.303-16.555,11.109-16.554,20.84c-7.384-6.603-18.618-7.385-26.924-1.292c-8.889,6.521-11.274,18.604-5.893,27.938      c-10.331-3.086-21.545,2.034-25.834,12.197c-4.441,10.521,0.166,22.592,10.297,27.552c-10.612,3.976-16.351,15.62-12.877,26.54      c3.144,9.882,12.79,15.887,22.716,14.8c-7.861,5.475-11.319,15.772-7.776,25.141c3.897,10.305,14.888,15.845,25.317,13.175      c-8.477,6.552-10.901,18.549-5.245,27.955c5.263,8.753,15.79,12.375,25.093,9.28c-5.498,8.375-4.509,19.732,2.912,27.015      c7.121,6.989,17.871,7.968,26.037,3.044c-4.845,8.271-3.686,19.066,3.466,26.086c7.283,7.148,18.369,8.019,26.597,2.706      c-4.42,8.406-2.85,19.038,4.486,25.749c8.331,7.621,21.04,7.399,29.122-0.226c-6.042,9.123-4.249,21.51,4.451,28.497      c9.221,7.406,22.7,5.935,30.107-3.286l0.486-1.681c7.406,9.222,20.885,10.693,30.106,3.286      c8.699-6.987,10.493-19.374,4.45-28.497c8.083,7.626,20.792,7.848,29.123,0.227c7.336-6.711,8.906-17.343,4.486-25.749      c8.228,5.314,19.314,4.443,26.597-2.706c7.152-7.02,8.311-17.815,3.466-26.086c8.166,4.924,18.917,3.945,26.037-3.044      c7.421-7.284,8.41-18.64,2.912-27.015c9.303,3.095,19.83-0.527,25.093-9.28c5.656-9.406,3.231-21.404-5.245-27.955      c10.429,2.671,21.42-2.869,25.317-13.175c3.543-9.369,0.085-19.665-7.776-25.141c9.926,1.087,19.572-4.918,22.716-14.8      C445.911,177.049,440.171,165.404,429.559,161.428z M415.925,200.664c-0.291-0.125-0.584-0.247-0.884-0.36L400.15,239.68      c-0.015-0.009-0.028-0.02-0.043-0.029l-22.07,36.706c0.071,0.043,0.146,0.074,0.217,0.116l-29.118,28.579      c0.029,0.03,0.062,0.054,0.091,0.084l-28.599,28.07c-0.153-0.179-0.288-0.367-0.448-0.542l-31.407,28.731      c-0.079-0.102-0.144-0.211-0.226-0.312l-48.162,17.029l-19.11-15.349c-0.081,0.101-0.147,0.21-0.226,0.312l-31.407-28.732      c-0.16,0.175-0.295,0.363-0.448,0.542l-28.599-28.07c0.029-0.029,0.062-0.054,0.091-0.084l-29.118-28.579      c0.071-0.042,0.146-0.073,0.217-0.116l-22.07-36.706c-0.015,0.009-0.028,0.02-0.043,0.029l-14.891-39.376      c-0.299,0.113-0.592,0.235-0.883,0.36l-12.412-39.012l16.221-38.428l31.932-23.423l41.229-9.605l36.75,17.252l29.193,27.172      c1.491-1.602,2.685-3.372,3.594-5.243c4.653,5.244,8.664,10.669,13.698,15.806c0.093-0.209,0.172-0.423,0.254-0.636      c5.424-5.596,9.687-11.518,14.919-17.168c0.925,1.987,2.162,3.869,3.736,5.56l29.194-27.173l36.749-17.251l41.229,9.605      l31.932,23.423l16.221,38.428L415.925,200.664z"/>
				<path style="fill:#F8627F;" d="M403.172,107.906c-73.581-60.5-140.911,26.925-149.832,37.251      c-9.319-11.04-75.281-97.384-148.417-37.251C-3.233,196.835,247.301,389.389,253.975,394.488c0,0.043,0,0.111,0,0.111      s0.029-0.022,0.073-0.055c0.044,0.033,0.072,0.055,0.072,0.055s0-0.067-0.001-0.11      C260.771,389.407,511.333,196.839,403.172,107.906z"/>
			</g>
			<g>
				<g>
					<g>
						<path style="fill:#FFD1D0;" d="M349.41,112.183c2.965,6.429,12.753,11.14,18.277,14.717        c4.852,3.142,13.047,9.481,19.103,6.731c3.411-1.55,4.933-5.77,4.504-9.492c-1.031-8.961-7.709-16.163-15.202-20.581        c-6.262-3.692-18.444-8.771-24.701-2.692c-2.763,2.684-3.618,6.982-2.29,10.573        C349.193,111.689,349.296,111.937,349.41,112.183z"/>
					</g>
					<g>
						<path style="fill:#FFD1D0;" d="M414.975,140.39c1.138,4.871-1.889,9.741-6.76,10.879c-4.871,1.137-9.741-1.889-10.879-6.76        c-1.138-4.871,1.889-9.742,6.76-10.879C408.967,132.493,413.838,135.52,414.975,140.39z"/>
					</g>
				</g>
			</g>
		</g>
		<g>
			<g>
				<path style="fill:#B8E3C5;" d="M432.199,310.791c0,0-1.069-42.672,36.437-52.593      C468.636,258.198,476.401,288.726,432.199,310.791z"/>
			</g>
			<g>
				<path style="fill:#B8E3C5;" d="M438.584,320.495c0,0,26.162-33.728,61.488-17.691      C500.072,302.804,486.778,331.361,438.584,320.495z"/>
			</g>
		</g>
		<g>
			<g>
				<path style="fill:#B8E3C5;" d="M64.683,355.828c0,0-37.992,7.659-52.755-24.322C11.928,331.506,38.007,319.767,64.683,355.828z"/>
			</g>
			<g>
				<path style="fill:#B8E3C5;" d="M72.357,348.594c0,0-34.271-18.097-25.479-52.206C46.879,296.388,74.504,303.79,72.357,348.594z"/>
			</g>
		</g>
		<g>
			<g>
				<g>
					<g>
						<path style="fill:#79E5EF;" d="M118.418,353.612c-4.668,22.656-7.446,45.676-8.334,68.787        c-0.091,2.527-0.251,5.146-0.569,7.742c-0.046,0.387-0.114,0.774-0.16,1.161c-0.956,6.125-3.051,11.84-8.22,14.823        c-5.146,2.983-11.544,2.049-17.373,1.025c-10.451-1.822-20.902-3.666-31.354-5.488c-4.303-0.751-9.085-1.799-11.499-5.442        c-3.188-4.759-0.592-11.134,2.118-16.166c0.637-1.207,1.298-2.391,1.958-3.575c0.205-0.41,0.41-0.797,0.637-1.184        c10.337-18.853,21.768-37.091,34.2-54.624c4.987-7.058,28.735-47.975,38.754-24.5        C120.877,341.612,119.602,347.828,118.418,353.612z"/>
					</g>
					<g>
						<path style="fill:#4F021B;" d="M118.655,339.023c-0.273-0.079-0.562-0.045-0.812,0.091c-0.249,0.14-0.43,0.367-0.508,0.639        c-8.784,30.306-16.758,61.249-23.781,92.054c-1.37-2.86-3.917-5.065-6.823-5.792c-2.524-0.639-5.28-0.254-7.61,1.003        l30.035-84.213c0.096-0.266,0.082-0.555-0.041-0.813c-0.122-0.258-0.337-0.452-0.609-0.549        c-0.557-0.196-1.165,0.097-1.358,0.646l-31.053,87.067c-0.355-1.5-1.021-2.943-1.973-4.225        c-1.833-2.524-4.519-4.189-7.371-4.572c-2.628-0.348-5.489,0.344-7.901,1.874c13.269-28.035,28.398-55.48,45.044-81.619        c0.313-0.499,0.166-1.159-0.326-1.472c-0.491-0.32-1.152-0.173-1.474,0.326c-16.938,26.601-32.315,54.547-45.763,83.093        c-0.385-1.299-1.001-2.52-1.824-3.589c-2.006-2.552-5.284-4.136-8.611-4.175l-1.203,2.207l0.336-0.029        c2.981-0.27,5.968,1.008,7.788,3.322c1.411,1.765,2.079,4.125,1.839,6.49c-0.489,0.982-0.799,2.062-0.921,3.221        c-0.042,0.489,0.26,0.953,0.784,1.14c0.468,0.116,0.976-0.097,1.253-0.569c0.479-1.027,0.795-2.085,0.942-3.149        c0.582-1.05,1.374-1.974,2.359-2.753c2.133-1.72,4.897-2.543,7.409-2.194c2.283,0.303,4.443,1.65,5.928,3.696        c1.505,2.042,2.145,4.512,1.758,6.752c-0.12,0.563,0.233,1.112,0.773,1.239c0.272,0.083,0.559,0.052,0.804-0.089        c0.246-0.142,0.423-0.384,0.464-0.588c0.011-0.027,0.019-0.056,0.029-0.084c0.376-0.064,0.71-0.29,0.838-0.656l0.758-2.125        c2.092-2.298,5.377-3.297,8.382-2.556c3.524,0.882,6.231,4.37,6.313,8.136c-0.016,0.07-0.033,0.14-0.049,0.209        c-0.033,0.146-0.032,0.292-0.005,0.43l-0.054,0.15l0.082,0.082c-0.017,0.252-0.067,0.513-0.116,0.784        c-0.126,0.545,0.204,1.103,0.779,1.275c0.086,0.021,0.173,0.031,0.257,0.031c0.461,0,0.874-0.293,1.013-0.747        c1.372-4.226,6.759-7.699,11.52-7.398c1.08,0.064,2.162,0.313,3.213,0.738l0.105,0.043l0.301-2.172        c-1.17-0.426-2.345-0.674-3.495-0.74c-3.747-0.185-7.813,1.445-10.627,4.166c7.054-31.01,15.082-62.178,23.931-92.713        C119.547,339.78,119.221,339.186,118.655,339.023z"/>
					</g>
				</g>
				<g>
					<g>
						<g>
							<path style="fill:#4F021B;" d="M166.672,359.021c-0.4,1.48-1.224,2.836-1.477,4.348c-0.253,1.512,0.329,3.365,1.801,3.796         c0.944,0.277,1.986-0.133,2.696-0.813c0.71-0.68,1.146-1.593,1.52-2.502c1.23-2.991,1.948-6.391,0.882-9.444         c-0.658-1.882-6.01-7.919-8.317-5.291c-1.144,1.304,1.407,2.87,2.056,4.025C166.825,354.907,167.205,357.048,166.672,359.021         z"/>
						</g>
						<g>
							<path style="fill:#4F021B;" d="M173.154,357.127c0.185,1.522-0.07,3.088,0.264,4.585c0.334,1.497,1.569,2.995,3.095,2.842         c0.978-0.098,1.791-0.869,2.193-1.766c0.403-0.897,0.464-1.907,0.469-2.89c0.017-3.233-0.594-6.655-2.729-9.084         c-1.316-1.498-8.545-5.083-9.695-1.781c-0.571,1.639,2.382,2.132,3.417,2.958         C171.75,353.257,172.907,355.098,173.154,357.127z"/>
						</g>
					</g>
					<g>
						<g>
							<path style="fill:#4F021B;" d="M207.165,344.076c0.067,1.532-0.308,3.074-0.091,4.591c0.217,1.518,1.333,3.107,2.866,3.073         c0.983-0.022,1.852-0.728,2.324-1.591c0.471-0.863,0.61-1.865,0.691-2.845c0.266-3.223-0.078-6.681-2.019-9.268         c-1.197-1.595-8.126-5.728-9.528-2.525c-0.696,1.59,2.21,2.309,3.178,3.214C206.064,340.108,207.075,342.034,207.165,344.076         z"/>
						</g>
						<g>
							<path style="fill:#4F021B;" d="M212.769,340.308c0.638,1.395,0.869,2.964,1.639,4.29c0.771,1.325,2.402,2.379,3.81,1.772         c0.903-0.389,1.443-1.37,1.556-2.347c0.113-0.977-0.135-1.958-0.428-2.896c-0.963-3.087-2.581-6.163-5.351-7.831         c-1.708-1.029-9.682-2.258-9.779,1.238c-0.048,1.735,2.915,1.311,4.152,1.785         C210.259,337.044,211.919,338.449,212.769,340.308z"/>
						</g>
					</g>
					<g>
						<path style="fill:#FFDCBD;" d="M216.517,329.943c0,0-35.674,38.751-125.607,17.047c0,0-0.203-0.526-0.567-1.559        c-4.515-12.876-33.406-102.972,21.542-162.677c7.309-7.936,16.096-15.326,26.624-21.927c2.794-1.762,5.709-3.462,8.746-5.102        c1.053-0.567,2.612-9.941,3.118-11.318c3.138-8.281,7.936-16.055,14.476-22.088c16.298-15.022,42.659-17.108,61.244-5.061        c16.845,10.893,20.692,29.802,17.088,47.842c-1.701,8.584-5.102,16.987-9.597,24.234        C233.584,189.334,286.812,261.188,216.517,329.943z"/>
					</g>
					<g>
						<g>
							<path style="fill:#4F021B;" d="M236.013,170.336c0,0,5.22-4.684,7.205-5.214c0.879-0.234,8.553,9.431,7.146,17.612         l-11.247-2.968L236.013,170.336z"/>
						</g>
						<g>
							<path style="fill:#FFDCBD;" d="M250.091,182.481c-0.039,0-0.078-0.009-0.115-0.027c-5.985-3.017-11.658-8.107-14.807-13.283         c-0.073-0.12-0.035-0.278,0.086-0.352c0.121-0.072,0.278-0.036,0.352,0.085c3.101,5.099,8.695,10.115,14.599,13.092         c0.126,0.064,0.177,0.217,0.114,0.344C250.275,182.429,250.184,182.481,250.091,182.481z"/>
						</g>
					</g>
					<g>
						<path style="fill:#4F021B;" d="M186.896,238.013c-1.849,0-3.626-0.641-4.848-1.833c-1.398-1.361-2.167-3.424-2.166-5.809        c0.002-2.069,0.546-4.058,1.072-5.981c0.075-0.271,0.357-0.431,0.629-0.359c0.273,0.075,0.433,0.357,0.359,0.629        c-0.508,1.859-1.034,3.781-1.036,5.713c-0.001,2.074,0.676,3.924,1.856,5.075c1.524,1.484,4.092,1.956,6.387,1.169        c2.541-0.868,4.29-2.904,5.309-4.458c1.326-2.023,2.202-4.35,3.049-6.601c0.083-0.219,0.307-0.351,0.536-0.328        c0.232,0.026,0.418,0.206,0.45,0.438c0.356,2.558,0.876,5.176,2.939,6.606c1.663,1.153,4.233,1.053,6.247-0.243        c1.656-1.065,3.026-2.835,4.188-5.408c1.061-2.349,1.739-4.799,1.815-6.554c0.012-0.255,0.209-0.464,0.464-0.488        c0.248-0.033,0.488,0.143,0.546,0.393c0.672,2.855,4.082,5.609,7.017,5.667c2.996,0.049,5.81-2.602,5.934-5.583        c0.012-0.282,0.254-0.52,0.533-0.49c0.283,0.012,0.502,0.25,0.491,0.533c-0.149,3.567-3.433,6.611-6.978,6.564        c-2.754-0.054-5.773-2.078-7.239-4.604c-0.311,1.54-0.886,3.292-1.649,4.982c-1.246,2.759-2.74,4.673-4.568,5.848        c-2.39,1.538-5.359,1.628-7.385,0.223c-1.848-1.281-2.627-3.339-3.057-5.431c-0.68,1.73-1.442,3.456-2.477,5.036        c-1.107,1.689-3.018,3.904-5.833,4.867C188.637,237.873,187.758,238.013,186.896,238.013z"/>
					</g>
					<g>
						<path style="fill:#4F021B;" d="M202.664,251.601c-0.838,0-1.659-0.182-2.38-0.558c-2.111-1.098-3.11-3.835-2.136-5.858        c0.123-0.255,0.428-0.361,0.683-0.24c0.255,0.123,0.362,0.429,0.239,0.684c-0.731,1.519,0.073,3.667,1.686,4.506        c1.544,0.803,3.661,0.503,5.151-0.728c1.255-1.038,2.095-2.674,2.342-4.539c0.004-0.173,0.022-0.346,0.056-0.522        c0.052-0.267,0.305-0.443,0.571-0.411c0.269,0.036,0.464,0.276,0.442,0.547c-0.011,0.151-0.026,0.3-0.045,0.449        c-0.005,1.531,1.637,2.924,3.351,3.333c1.709,0.407,3.755-0.338,5.083-1.855c1.471-1.682,1.914-3.889,2.026-5.444        c0.021-0.283,0.272-0.492,0.548-0.473c0.282,0.02,0.494,0.266,0.474,0.548c-0.124,1.711-0.619,4.148-2.278,6.044        c-1.596,1.825-3.985,2.678-6.091,2.177c-1.42-0.339-2.805-1.239-3.557-2.423c-0.474,1.35-1.253,2.518-2.27,3.359        C205.445,251.117,204.031,251.601,202.664,251.601z"/>
					</g>
					<g>
						<g>
							<path style="fill:#79E5EF;" d="M160.296,314.194c-1.538,2.118-3.722,3.156-4.877,2.317c-1.155-0.839-0.845-3.236,0.693-5.355         c1.538-2.118,3.722-3.155,4.877-2.317C162.144,309.678,161.834,312.076,160.296,314.194z"/>
						</g>
						<g>
							<path style="fill:#79E5EF;" d="M172.139,307.42c-1.513,2.083-3.661,3.104-4.797,2.278c-1.136-0.825-0.831-3.183,0.681-5.267         c1.513-2.084,3.661-3.104,4.797-2.279C173.957,302.979,173.652,305.337,172.139,307.42z"/>
						</g>
						<g>
							<path style="fill:#79E5EF;" d="M168.153,319.809c-1.513,2.084-3.66,3.104-4.797,2.278c-1.136-0.825-0.832-3.183,0.681-5.266         c1.513-2.084,3.661-3.104,4.797-2.279S169.666,317.725,168.153,319.809z"/>
						</g>
					</g>
					<g>
						<circle style="fill:#FFC8C2;" cx="207.646" cy="166.329" r="15.422"/>
						<path style="fill:#4F021B;" d="M223.12,158.335c-0.606,1.895,0.318,3.844,1.802,4.585c0.738,0.393,1.683,0.516,2.603,0.408        c0.924-0.121,1.803-0.51,2.508-1.191l0.05-0.048c0.311-0.3,0.806-0.291,1.106,0.019c0.22,0.228,0.273,0.555,0.164,0.832        c-0.551,1.387-1.871,2.362-3.275,2.773c-1.413,0.429-3.004,0.322-4.402-0.393c-1.399-0.733-2.43-2.068-2.765-3.55        c-0.37-1.466-0.068-3.113,0.881-4.224c0.281-0.329,0.775-0.368,1.104-0.087c0.247,0.211,0.331,0.542,0.238,0.834        L223.12,158.335z"/>
					</g>
					<g>
						<path style="fill:#FFFFFF;" d="M156.092,230.262c7.971,12.729,10.309,28.81,6.289,43.26c-0.84,3.019-2.019,6.085-4.327,8.218        c-2.309,2.133-6.013,3.049-8.68,1.379c1.766,9.479-0.246,18.989-4.358,27.721c-1.323,2.809-3.04,5.6-5.725,7.182        c-2.684,1.582-6.543,1.55-8.581-0.798c0.641,7.85-3.352,14.262-9.606,19.1c-6.254,4.837-15.001,6.294-22.5,3.748        C114.595,301.445,132.15,264.589,156.092,230.262z"/>
						<path style="fill:#79E5EF;" d="M241.005,142.887l-10.457-2.953c-3.442-3.239-7.451-5.871-11.824-7.714        c-5.163-2.166-10.913-3.26-16.42-2.207c-5.487,1.053-10.69,4.454-13.12,9.495c-2.45,5.041-1.66,11.682,2.45,15.488        c-6.094-1.923-13.909,2.126-16.48,7.977c-2.571,5.831-1.539,12.735,1.113,18.545c2.652,5.811,6.783,10.791,10.629,15.893        c2.996,3.968,5.993,8.766,4.677,13.565c-1.134,4.191-5.588,6.965-9.921,6.945c-4.333-0.041-8.422-2.47-11.237-5.77        c2.936,6.742,1.296,12.472-2.834,18.545c-2.105,3.098-5.284,5.77-9.03,6.074c-4.677,0.365-8.969-3.098-11.034-7.309        c-2.065-4.211-2.369-9.03-2.652-13.706c-5.406,2.875-11.176,5.709-17.29,6.074c-6.114,0.364-12.593-1.539-16.683-6.114        c-4.211-4.697-5.304-11.581-4.333-17.817c0.83-5.304,2.976-10.285,5.325-15.144c9.253-10.042,20.874-19.214,35.37-27.029        c1.053-0.567,2.612-9.941,3.118-11.318c3.138-8.281,7.936-16.055,14.476-22.088c16.298-15.022,42.659-17.108,61.244-5.061        c5.568,3.604,9.718,8.098,12.654,13.14L241.005,142.887z"/>
						<path style="fill:#FFACB3;" d="M243.181,165.099c-0.466-4.292-1.599-8.524-3.401-12.451        c-2.187-4.778-5.365-9.111-9.232-12.714c-0.202-0.729-0.385-1.458-0.567-2.187c-0.182-0.81-0.365-1.64-0.223-2.47        c0.142-0.81,0.688-1.599,1.498-1.822c0.628-0.162,1.316,0.061,1.903,0.365c2.085,0.992,3.786,2.753,4.738,4.859        c-0.587-1.741-0.952-3.543-0.709-5.365c0.162-1.113,0.729-2.207,1.559-2.915C244.659,140.581,245.59,153.033,243.181,165.099z        "/>
						<path style="fill:#79E5EF;" d="M212.423,111.27c-15.306-3.385-31.252-3.859-46.732-1.389        c-5.572,0.889-11.169,2.187-16.106,4.919c-2.088,1.156-4.259,2.971-4.174,5.357c0.07,1.965,1.754,3.575,3.62,4.195        c1.866,0.62,3.89,0.462,5.849,0.298c-2.121,1.038-4.298,2.504-5.654,4.436c-1.356,1.932-1.765,4.701-0.41,6.634        c1.724,2.458,5.278,2.565,8.266,2.267C177.796,135.923,198.196,126.467,212.423,111.27z"/>
						<g>
							<path style="fill:#79E5EF;" d="M156.467,208.224c-0.041,9.253-0.709,18.525-2.045,27.697         c-0.02,0.344-0.081,0.668-0.142,0.992c-2.592,17.634-7.633,34.844-15.306,50.899c-10.751,22.405-25.516,42.962-45.437,57.418         l-2.901,1.649c-1.33-2.75-2.628-5.021-3.883-7.882c-0.065-0.144-0.158-0.882-0.266-1.032c-0.195-0.272-0.42-0.55-0.525-0.824         c-1.336-3.077-2.295-5.454-3.469-8.592c-0.203-0.486-0.366-1.358-0.548-1.864c0,0-0.282-0.401-0.282-0.421         c-2.774-7.532-4.77-13.659-6.491-21.514l-0.096-1.55c-0.243-1.073-0.466-2.166-0.668-3.24l-0.262,0.032         c-6.661-34.358-1.087-71.687,31.327-110.296c0.256-0.317,0.748-0.523,1.009-0.83c0.172-0.202,0.784-1.278,0.96-1.479         c1.559-1.842,2.761-2.79,4.441-4.632c7.309-7.936,16.096-15.326,26.624-21.927c3.179,1.964,6.135,4.819,8.119,7.511         C154.928,179.535,156.528,194.294,156.467,208.224z"/>
							<path style="fill:#4F021B;" d="M156.128,235.491c-0.544,0.08-1.124,0.14-1.719,0.181c-5.952,0.318-12.058-2.306-15.892-6.855         c-4.153-4.95-5.494-12.24-3.42-18.565c0.12-0.324-0.018-0.697-0.327-0.885c-0.315-0.19-0.71-0.136-0.936,0.124         c-4.308,4.504-12.22,5.304-18.015,1.819c-5.394-3.234-8.892-9.625-9.132-16.68c-0.077-2.087,0.107-4.155,0.562-6.319         l0.194-0.924l-0.624,0.709c-0.433,0.493-0.859,1-1.303,1.549l-0.043,0.05l-0.01,0.068c-0.25,1.623-0.346,3.281-0.286,4.923         c0.017,0.536,0.049,0.987,0.09,1.412C89.179,227.785,78.05,264.37,74.171,299.831l-0.024,0.16         c0.21,1.114,0.46,2.257,0.688,3.261l0.339,1.497l0.151-1.526c3.59-36.238,14.088-72.384,30.353-104.577         c1.047,5.169,3.778,9.773,7.6,12.737c-8.577,38.438-19.214,77.089-31.614,114.88l-0.013,0.058l0.014,0.122         c0.185,0.511,0.367,1,0.572,1.489l0.256,0.615l0.209-0.633c12.519-37.981,23.255-76.862,31.914-115.582         c0.142,0.095,0.29,0.2,0.419,0.275c4.996,3.011,11.586,3.149,16.599,0.407c-11.476,42.607-26.823,84.333-45.626,124.029         l-0.046,0.095l0.038,0.099c0.144,0.38,0.317,0.796,0.532,1.27l0.22,0.487l0.23-0.483         c18.844-39.645,34.213-81.259,45.706-123.689c-0.388,5.437,1.286,10.945,4.678,14.962c2.302,2.716,5.346,4.819,8.82,6.114         c-14.363,38.784-33.048,76.126-55.545,110.991l0.146,0.303l2.732-1.952c21.834-34.248,40.031-70.887,54.089-108.9         c1.894,0.566,3.863,0.861,5.861,0.861c0.268,0,0.545,0,0.81-0.041c0.666,0,1.356-0.08,2.082-0.165         c0.402-0.06,0.692-0.46,0.633-0.868v-0.002C156.935,235.724,156.54,235.454,156.128,235.491z"/>
						</g>
					</g>
					<g>
						<g>
							<path style="fill:#FFFFFF;" d="M132.888,178.283c-1.538,2.119-3.721,3.156-4.877,2.317c-1.156-0.839-0.845-3.236,0.693-5.355         c1.538-2.118,3.722-3.155,4.877-2.317C134.736,173.767,134.426,176.164,132.888,178.283z"/>
						</g>
						<g>
							<path style="fill:#FFFFFF;" d="M144.731,171.509c-1.513,2.083-3.661,3.104-4.797,2.278c-1.136-0.825-0.831-3.183,0.681-5.267         c1.513-2.084,3.661-3.104,4.797-2.279C146.549,167.068,146.244,169.425,144.731,171.509z"/>
						</g>
						<g>
							<path style="fill:#FFFFFF;" d="M140.745,183.898c-1.513,2.084-3.66,3.104-4.797,2.278c-1.136-0.825-0.832-3.183,0.681-5.266         c1.513-2.084,3.66-3.104,4.797-2.279C142.563,179.456,142.258,181.814,140.745,183.898z"/>
						</g>
					</g>
				</g>
			</g>
			<g>
				<g>
					<g>
						<path style="fill:#FFACB3;" d="M448.158,407.793c0.493,1.099,0.659,2.335,0.401,3.512c-0.155,0.708-0.391,1.397-0.72,2.046        c-0.88,1.797-2.498,3.288-4.438,3.809c-1.941,0.503-4.007-0.09-5.319-1.617c-0.719,3.109-3.378,5.696-6.523,6.289        c-3.127,0.593-6.541-1.024-8.356-3.666c-0.539,2.713-2.713,5.031-5.373,5.75c-2.659,0.719-5.499-0.144-7.332-2.211        c-0.809,1.941-2.893,3.217-4.996,3.307c-1.222,0.054-2.426-0.251-3.522-0.808c-2.83-2.309-4.117-5.926-4.768-9.799        c0,0,0.717-0.86,0.683-1.138c-0.02-0.17-0.933-0.661-0.933-0.661c-0.197-1.788-0.307-3.572-0.373-5.312        c-0.665-17.377-2.75-34.7-6.272-51.735c-0.234-1.168-0.485-2.354-0.683-3.558c-0.503-3.127-0.683-6.289,0.431-9.182        c0.036-0.126,0.09-0.251,0.144-0.377c1.294-3.019,2.893-4.636,4.654-5.175c1.618-0.503,3.361-0.144,5.175,0.809        c0.485,0.251,0.971,0.539,1.474,0.88c0.629,0.431,1.276,0.917,1.905,1.473c1.923,1.617,3.846,3.684,5.679,5.894        c0.09,0.108,0.162,0.216,0.251,0.324c4.582,5.642,8.482,12.058,10.009,14.214c9.233,13.033,17.729,26.575,25.437,40.591        l-0.478,1.101l1.422,0.637c0.485,0.899,0.807,1.428,1.292,2.344C447.422,406.253,447.807,407.012,448.158,407.793z"/>
					</g>
					<g>
						<path style="fill:#4F021B;" d="M444.794,401.453c-2.649-0.064-4.926,1.184-6.501,3.191c-0.566,0.736-0.997,1.569-1.291,2.445        c-10.086-21.381-21.608-42.312-34.298-62.239c-0.134-0.208-0.342-0.351-0.584-0.404c-0.244-0.054-0.489-0.008-0.69,0.122        c-0.431,0.27-0.559,0.844-0.285,1.279c12.453,19.554,23.777,40.083,33.719,61.052c-1.765-1.028-3.805-1.509-5.696-1.264        c-2.178,0.293-4.229,1.565-5.625,3.485c-0.488,0.658-0.841,1.38-1.128,2.123l-24.019-64.217        c-0.177-0.474-0.707-0.716-1.192-0.545c-0.475,0.18-0.719,0.714-0.542,1.192l23.658,63.25        c-1.862-1.142-4.118-1.551-6.192-1.028c-2.123,0.53-3.985,2.094-5.058,4.126c-5.265-23.065-11.237-46.229-17.813-68.92        c-0.068-0.239-0.224-0.435-0.441-0.555c-0.217-0.122-0.467-0.15-0.707-0.08c-0.488,0.142-0.771,0.656-0.631,1.145        c6.62,22.843,12.625,46.15,17.907,69.337c-2.131-1.911-5.068-3.039-7.791-2.895c-0.911,0.054-1.719,0.211-2.631,0.553        l0.251,1.799c0.778-0.314,1.691-0.455,2.491-0.502c3.547-0.252,7.524,2.349,8.537,5.471c0.121,0.396,0.474,0.65,0.888,0.65        c0.081,0,0.163-0.01,0.247-0.029c0.471-0.144,0.755-0.627,0.651-1.081c-0.034-0.177-0.068-0.351-0.085-0.528l0.086-0.083        l-0.071-0.179c0.013-0.103,0.018-0.208-0.006-0.314c-0.011-0.048-0.023-0.096-0.034-0.144        c0.063-2.766,2.058-5.335,4.654-5.987c2.214-0.542,4.708,0.227,6.226,1.926c0.467,0.514,0.828,1.128,1.087,1.87l0.047,0.132        c0.056,0.245,0.212,0.456,0.427,0.578c0.213,0.124,0.46,0.147,0.664,0.087c0.5-0.115,0.808-0.59,0.705-1.066        c-0.288-1.666,0.184-3.487,1.3-5.001c1.096-1.508,2.69-2.502,4.376-2.728c1.853-0.254,3.9,0.351,5.48,1.627        c0.718,0.567,1.3,1.244,1.729,2.011c0.114,0.804,0.354,1.605,0.739,2.425c0.219,0.369,0.654,0.553,1.109,0.437        c0.41-0.148,0.671-0.547,0.634-0.982c-0.092-0.87-0.325-1.689-0.695-2.436c-0.171-1.739,0.322-3.473,1.362-4.774        c1.342-1.704,3.774-2.801,5.976-2.596L444.794,401.453z M401.563,345.581L401.563,345.581L401.563,345.581L401.563,345.581z"/>
					</g>
				</g>
				<g>
					<g>
						<g>
							<path style="fill:#4F021B;" d="M337.579,359.704c0.381,1.411,1.167,2.703,1.408,4.144c0.241,1.441-0.314,3.207-1.716,3.618         c-0.899,0.264-1.892-0.126-2.569-0.774c-0.677-0.648-1.092-1.518-1.449-2.385c-1.172-2.85-1.857-6.091-0.841-9         c0.627-1.794,5.728-7.548,7.926-5.043c1.091,1.243-1.341,2.735-1.959,3.836C337.434,355.783,337.071,357.823,337.579,359.704         z"/>
						</g>
						<g>
							<path style="fill:#4F021B;" d="M331.401,357.899c-0.177,1.451,0.067,2.943-0.251,4.37c-0.318,1.426-1.495,2.854-2.949,2.709         c-0.933-0.093-1.706-0.828-2.091-1.683c-0.384-0.855-0.442-1.817-0.447-2.754c-0.016-3.082,0.566-6.342,2.601-8.657         c1.254-1.428,8.143-4.844,9.239-1.697c0.544,1.562-2.27,2.032-3.256,2.82C332.739,354.21,331.637,355.965,331.401,357.899z"/>
						</g>
					</g>
					<g>
						<g>
							<path style="fill:#4F021B;" d="M298.988,345.46c-0.064,1.46,0.294,2.929,0.087,4.376c-0.207,1.447-1.27,2.961-2.731,2.929         c-0.937-0.021-1.765-0.694-2.214-1.516c-0.449-0.823-0.581-1.777-0.659-2.712c-0.254-3.071,0.074-6.367,1.924-8.832         c1.14-1.52,7.744-5.459,9.081-2.406c0.663,1.515-2.106,2.201-3.028,3.063C300.037,341.679,299.074,343.514,298.988,345.46z"/>
						</g>
						<g>
							<path style="fill:#4F021B;" d="M293.647,341.869c-0.608,1.329-0.828,2.825-1.562,4.088c-0.735,1.263-2.289,2.268-3.631,1.689         c-0.86-0.371-1.376-1.305-1.483-2.236c-0.107-0.931,0.129-1.866,0.408-2.76c0.918-2.942,2.46-5.873,5.1-7.464         c1.628-0.98,9.228-2.152,9.32,1.18c0.046,1.653-2.778,1.249-3.957,1.701C296.039,338.759,294.457,340.098,293.647,341.869z"/>
						</g>
					</g>
					<g>
						<path style="fill:#FFDCBD;" d="M290.075,331.992c0,0,33.998,36.931,119.707,16.247c0,0,0.193-0.502,0.541-1.486        c4.302-12.272,31.837-98.135-20.53-155.037c-6.966-7.564-15.34-14.607-25.373-20.897c-2.663-1.679-5.441-3.3-8.336-4.862        c-1.003-0.54-2.489-9.474-2.971-10.786c-2.991-7.892-7.564-15.301-13.796-21.051c-15.532-14.317-40.655-16.304-58.368-4.824        c-16.054,10.381-19.72,28.402-16.285,45.595c1.621,8.181,4.862,16.189,9.146,23.096        C273.809,197.987,223.082,266.465,290.075,331.992z"/>
					</g>
					<g>
						<g>
							<path style="fill:#4F021B;" d="M270.305,179.013c0,0-3.943-3.538-5.442-3.938c-0.664-0.177-6.46,7.123-5.398,13.303         l8.495-2.242L270.305,179.013z"/>
						</g>
						<g>
							<path style="fill:#FFDCBD;" d="M259.695,188.802c-0.093,0-0.184-0.051-0.229-0.141c-0.063-0.126-0.013-0.281,0.114-0.344         c4.004-2.02,8.416-6.206,10.978-10.418c0.073-0.123,0.23-0.16,0.352-0.086c0.121,0.074,0.159,0.231,0.086,0.352         c-2.608,4.287-7.103,8.551-11.186,10.609C259.773,188.793,259.734,188.802,259.695,188.802z"/>
						</g>
					</g>
					<g>
						<path style="fill:#4F021B;" d="M318.304,244.403c-0.825,0-1.663-0.133-2.471-0.409c-2.689-0.92-4.514-3.035-5.571-4.648        c-0.973-1.486-1.693-3.104-2.333-4.729c-0.415,1.972-1.163,3.903-2.907,5.113c-1.939,1.343-4.778,1.258-7.065-0.212        c-1.746-1.123-3.173-2.949-4.362-5.584c-0.718-1.591-1.261-3.238-1.561-4.693c-1.413,2.388-4.275,4.295-6.887,4.346        c-3.423,0.039-6.534-2.868-6.675-6.28c-0.011-0.283,0.208-0.521,0.491-0.533c0.253-0.019,0.52,0.208,0.533,0.491        c0.115,2.798,2.743,5.298,5.54,5.298c0.03,0,0.06,0,0.091-0.001c2.736-0.054,6.037-2.721,6.664-5.383        c0.058-0.249,0.291-0.419,0.546-0.393c0.255,0.024,0.452,0.232,0.464,0.488c0.072,1.669,0.718,4,1.728,6.238        c1.105,2.449,2.407,4.131,3.982,5.144c1.911,1.229,4.35,1.325,5.927,0.231c1.957-1.356,2.452-3.845,2.791-6.278        c0.032-0.232,0.218-0.413,0.45-0.439c0.233-0.023,0.453,0.109,0.536,0.329c0.807,2.143,1.64,4.358,2.903,6.286        c0.97,1.479,2.632,3.415,5.047,4.24c2.179,0.745,4.617,0.301,6.063-1.108c1.121-1.094,1.763-2.85,1.761-4.82        c-0.001-1.84-0.502-3.669-0.986-5.438c-0.074-0.273,0.086-0.554,0.359-0.629c0.277-0.072,0.555,0.087,0.629,0.359        c0.502,1.833,1.021,3.73,1.022,5.707c0.002,2.277-0.733,4.25-2.071,5.554C321.773,243.79,320.072,244.403,318.304,244.403z"/>
					</g>
					<g>
						<path style="fill:#4F021B;" d="M303.278,257.354c-1.308,0-2.662-0.463-3.728-1.345c-0.961-0.794-1.7-1.894-2.154-3.167        c-0.726,1.113-2.036,1.958-3.378,2.279c-2.012,0.482-4.302-0.337-5.829-2.082c-1.586-1.814-2.058-4.141-2.176-5.775        c-0.02-0.282,0.192-0.527,0.474-0.547c0.283-0.021,0.527,0.191,0.548,0.474c0.106,1.477,0.526,3.574,1.924,5.174        c1.261,1.439,3.2,2.147,4.821,1.76c1.623-0.387,3.179-1.706,3.175-3.152c-0.018-0.142-0.032-0.284-0.043-0.428        c-0.022-0.271,0.173-0.512,0.442-0.548c0.267-0.036,0.52,0.144,0.571,0.411c0.032,0.169,0.05,0.336,0.054,0.501        c0.235,1.771,1.032,3.326,2.223,4.311c1.413,1.167,3.42,1.451,4.883,0.691c1.526-0.795,2.287-2.827,1.596-4.263        c-0.123-0.255-0.016-0.561,0.239-0.684c0.255-0.122,0.561-0.015,0.683,0.24c0.933,1.938-0.023,4.562-2.046,5.615        C304.866,257.179,304.08,257.354,303.278,257.354z"/>
					</g>
					<g>
						<g>
							<path style="fill:#FFACB3;" d="M342.382,316.12c1.106,1.523,2.676,2.269,3.507,1.666c0.831-0.603,0.608-2.327-0.498-3.85         c-1.106-1.524-2.676-2.269-3.507-1.666C341.053,312.873,341.276,314.597,342.382,316.12z"/>
						</g>
						<g>
							<path style="fill:#FFACB3;" d="M333.865,311.249c1.088,1.498,2.632,2.232,3.45,1.638c0.817-0.593,0.598-2.289-0.49-3.787         c-1.088-1.498-2.632-2.232-3.45-1.638C332.558,308.055,332.777,309.751,333.865,311.249z"/>
						</g>
						<g>
							<path style="fill:#FFACB3;" d="M336.731,320.159c1.088,1.498,2.632,2.232,3.45,1.638c0.817-0.593,0.598-2.289-0.49-3.787         c-1.088-1.498-2.632-2.232-3.449-1.638C335.424,316.964,335.643,318.66,336.731,320.159z"/>
						</g>
					</g>
					<g>
						<g>
							<path style="fill:#FFC8C2;" d="M283.832,173.625c0,6.771,5.489,12.26,12.26,12.26c6.771,0,12.26-5.489,12.26-12.26         c0-6.771-5.489-12.26-12.26-12.26C289.322,161.365,283.832,166.854,283.832,173.625z"/>
						</g>
						<g>
							<path style="fill:#4F021B;" d="M283.783,168.444c0.578,1.806-0.303,3.664-1.718,4.37c-0.703,0.374-1.604,0.492-2.48,0.388         c-0.88-0.115-1.719-0.486-2.391-1.135l-0.047-0.046c-0.296-0.286-0.768-0.278-1.054,0.018         c-0.21,0.217-0.261,0.529-0.157,0.793c0.525,1.322,1.783,2.251,3.121,2.642c1.346,0.409,2.863,0.307,4.195-0.375         c1.333-0.699,2.316-1.971,2.635-3.383c0.353-1.397,0.065-2.967-0.84-4.026c-0.268-0.313-0.739-0.35-1.052-0.083         c-0.235,0.201-0.315,0.517-0.226,0.794L283.783,168.444z"/>
						</g>
					</g>
					<g>
						<g>
							<path style="fill:#FFFFFF;" d="M347.662,236.992c-7.596,12.132-9.824,27.456-5.994,41.229c0.8,2.878,1.924,5.799,4.124,7.831         c2.2,2.033,5.73,2.906,8.272,1.315c-1.683,9.034,0.234,18.097,4.153,26.418c1.261,2.677,2.897,5.337,5.456,6.845         c2.558,1.507,6.236,1.477,8.178-0.761c-0.611,7.481,3.194,13.593,9.155,18.203c5.96,4.61,14.296,5.999,21.444,3.572         C387.21,304.832,370.479,269.707,347.662,236.992z"/>
						</g>
						<g>
							<path style="fill:#FFACB3;" d="M266.805,156.366l9.899-5.459c3.28-3.087,7.101-5.596,11.268-7.351         c4.921-2.064,10.4-3.107,15.649-2.103c5.229,1.003,10.188,4.245,12.503,9.049c2.335,4.804,1.582,11.133-2.335,14.761         c5.808-1.833,13.256,2.026,15.706,7.602c2.451,5.557,1.466,12.137-1.061,17.674c-2.528,5.538-6.464,10.284-10.13,15.147         c-2.856,3.782-5.712,8.355-4.457,12.928c1.08,3.994,5.325,6.638,9.454,6.618c4.129-0.039,8.027-2.354,10.709-5.499         c-2.798,6.425-1.235,11.886,2.701,17.674c2.007,2.952,5.036,5.499,8.606,5.788c4.457,0.347,8.548-2.952,10.516-6.966         c1.968-4.013,2.258-8.606,2.528-13.063c5.152,2.74,10.651,5.441,16.478,5.789c5.827,0.347,12.002-1.467,15.899-5.827         c4.013-4.477,5.055-11.037,4.129-16.98c-0.791-5.055-2.836-9.802-5.075-14.433c-8.818-9.57-19.893-18.311-33.709-25.759         c-1.003-0.54-2.489-9.474-2.971-10.786c-2.991-7.892-7.564-15.301-13.796-21.051c-15.532-14.317-40.655-16.304-58.368-4.824         c-5.306,3.435-9.262,7.718-12.06,12.523L266.805,156.366z"/>
						</g>
						<g>
							<path style="fill:#FFFFFF;" d="M264.664,174.89c0.444-4.091,1.524-8.124,3.242-11.867c2.084-4.554,5.113-8.683,8.799-12.117         c0.193-0.695,0.367-1.389,0.54-2.084c0.174-0.772,0.347-1.563,0.212-2.354c-0.135-0.772-0.656-1.524-1.428-1.737         c-0.598-0.154-1.254,0.058-1.814,0.347c-1.987,0.945-3.608,2.624-4.515,4.631c0.56-1.66,0.907-3.377,0.675-5.113         c-0.154-1.061-0.695-2.103-1.486-2.779C263.255,151.524,262.367,163.39,264.664,174.89z"/>
						</g>
						<g>
							<path style="fill:#FFACB3;" d="M293.977,123.589c14.587-3.226,29.784-3.677,44.537-1.324         c5.31,0.847,10.644,2.085,15.349,4.688c1.991,1.101,4.059,2.831,3.978,5.105c-0.067,1.873-1.671,3.407-3.45,3.998         c-1.778,0.591-3.707,0.441-5.574,0.284c2.021,0.989,4.096,2.386,5.389,4.228c1.292,1.842,1.682,4.48,0.39,6.322         c-1.643,2.343-5.03,2.445-7.878,2.161C326.977,147.085,307.535,138.072,293.977,123.589z"/>
						</g>
						<g>
							<g>
								<path style="fill:#FFFFFF;" d="M298.337,129.954c-0.146,0.695,1.553,1.639,3.793,2.108c2.241,0.469,4.175,0.286,4.32-0.409          c0.146-0.695-1.552-1.639-3.793-2.108C300.417,129.075,298.483,129.259,298.337,129.954z"/>
							</g>
							<g>
								<path style="fill:#FFFFFF;" d="M305.118,134.878c-0.146,0.695,1.552,1.639,3.792,2.108c2.24,0.469,4.174,0.285,4.32-0.41          c0.146-0.695-1.552-1.639-3.793-2.108C307.198,133.999,305.264,134.183,305.118,134.878z"/>
							</g>
							<g>
								<path style="fill:#FFFFFF;" d="M312.597,132.282c-0.146,0.696,1.552,1.639,3.793,2.108c2.24,0.469,4.174,0.286,4.32-0.41          c0.145-0.695-1.553-1.639-3.793-2.108C314.676,131.404,312.742,131.587,312.597,132.282z"/>
							</g>
							<g>
								<path style="fill:#FFFFFF;" d="M304.905,127.351c-0.146,0.695,1.553,1.639,3.793,2.108c2.24,0.469,4.174,0.285,4.32-0.41          c0.146-0.695-1.552-1.639-3.793-2.108C306.985,126.472,305.051,126.655,304.905,127.351z"/>
							</g>
							<g>
								<path style="fill:#FFFFFF;" d="M314.923,127.623c-0.146,0.696,1.552,1.639,3.793,2.108c2.24,0.469,4.174,0.286,4.32-0.41          c0.146-0.695-1.552-1.639-3.792-2.108C317.003,126.744,315.069,126.928,314.923,127.623z"/>
							</g>
						</g>
						<g>
							<g>
								<path style="fill:#FFACB3;" d="M347.305,215.989c0.038,8.818,0.675,17.655,1.949,26.396          c0.019,0.328,0.077,0.637,0.135,0.945c2.47,16.806,7.274,33.207,14.587,48.508c10.147,21.146,24.046,40.565,42.754,54.32          c0.36,0.265,3.453,1.728,3.453,1.728c1.131-2.375,2.22-4.793,3.292-7.228l0.054-1.982l0.975-0.424          c1.177-2.737,2.004-4.739,3.047-7.527c0.193-0.463-0.023-2.02,0.151-2.502c0,0,0.948-0.413,0.948-0.432          c2.463-6.687,4.314-12.877,5.882-19.746c0.115-0.504,0.665-5.12,0.665-5.12c0.108-0.555,0.626-1.197,0.626-1.197          c5.808-32.056,0.301-66.647-29.521-102.552l-1.221-0.292c0,0-1.082-2.445-1.308-2.707c-1.282-1.489-2.616-2.968-3.978-4.461          c-6.966-7.564-15.34-14.607-25.373-20.897c-3.029,1.872-5.847,4.592-7.737,7.159          C348.771,188.648,347.247,202.714,347.305,215.989z"/>
							</g>
							<path style="fill:#4F021B;" d="M425.821,301.727c-3.855-33.435-14.245-67.51-29.455-97.381         c0.035-0.38,0.064-0.779,0.079-1.249c0.048-1.319-0.008-2.644-0.166-3.948l-2.508-2.973l0.186,0.89         c0.422,2.013,0.6,4.017,0.529,5.958c-0.224,6.636-3.511,12.644-8.577,15.684c-5.423,3.259-12.822,2.518-16.835-1.681         c-0.306-0.34-0.818-0.411-1.225-0.171c-0.401,0.241-0.579,0.728-0.427,1.142c1.951,5.948,0.692,12.799-3.209,17.449         c-3.601,4.273-9.317,6.734-14.925,6.443c-0.547-0.039-1.095-0.095-1.622-0.169c-0.533-0.093-1.04,0.291-1.122,0.819         l-0.001,0.006c-0.076,0.54,0.295,1.042,0.842,1.122c0.658,0.078,1.365,0.149,1.932,0.153         c0.296,0.043,0.569,0.045,0.844,0.045c1.859,0,3.681-0.283,5.421-0.784c13.317,35.961,30.514,70.63,51.135,103.067         l3.181,2.282l0.285-0.545c-21.358-33.118-39.101-68.579-52.75-105.391c3.242-1.251,6.102-3.23,8.273-5.791         c2.861-3.388,4.442-7.875,4.552-12.453c10.915,39.821,25.356,78.835,43.032,116.018l0.185,0.39l1.028-2.408         c-17.752-37.532-32.251-76.968-43.127-117.225c4.788,2.373,10.881,2.179,15.542-0.634c0.036-0.021,0.064-0.044,0.1-0.065         c8.24,36.779,18.443,73.72,30.339,109.812l0.193,0.586l1.095-2.923c-11.705-35.735-21.754-72.281-29.897-108.703         c3.448-2.728,5.96-6.83,7.056-11.457c15.298,30.493,25.18,64.655,28.573,98.908l0.149,1.507L425.821,301.727z"/>
						</g>
					</g>
				</g>
			</g>
		</g>
		<path style="fill:#F8627F;" d="M471.248,223.278c-7.354-9.595-18.192-0.726-19.592,0.293c-0.834-1.633-6.503-14.203-17.273-8.874    c-15.927,7.88,9.5,38.889,10.178,39.711c-0.002,0.006-0.003,0.014-0.003,0.014s0.004-0.002,0.01-0.005    c0.005,0.006,0.008,0.009,0.008,0.009s0.002-0.008,0.003-0.013C445.548,253.976,482.058,237.383,471.248,223.278z"/>
		<path style="fill:#F8627F;" d="M56.684,205.428c-10.863,1.367-8.88,13.892-8.722,15.453c-1.658-0.094-14.077-1.404-14.831,9.451    c-1.115,16.054,34.747,10.34,35.7,10.186c0.003,0.003,0.009,0.009,0.009,0.009s0.001-0.004,0.001-0.01    c0.006-0.001,0.01-0.002,0.01-0.002s-0.005-0.006-0.009-0.009C68.943,239.549,72.65,203.419,56.684,205.428z"/>
		<path style="fill:#F8627F;" d="M265.746,64.78c-12.492-4.686-17.456,9.95-18.17,11.722c-1.735-1.041-14.388-9.497-21.357,1.784    c-10.306,16.684,31.617,30.857,32.732,31.231c0.002,0.006,0.005,0.015,0.005,0.015s0.003-0.004,0.008-0.011    c0.007,0.002,0.012,0.004,0.012,0.004s-0.003-0.009-0.005-0.015C259.622,108.536,284.108,71.668,265.746,64.78z"/>
	</g>
</g>















</svg>
