<?xml version="1.0" encoding="UTF-8"?>
<!-- Generator: Adobe Illustrator 25.2.1, SVG Export Plug-In . SVG Version: 6.00 Build 0)  -->
<svg xmlns="http://www.w3.org/2000/svg" xmlns:xlink="http://www.w3.org/1999/xlink" version="1.1" id="Capa_1" x="0px" y="0px" viewBox="0 0 512 512" style="enable-background:new 0 0 512 512;" xml:space="preserve" width="512" height="512">
<g>
	<g>
		<g>
			<path style="fill:#FFFFFF;" d="M438.69,269.452c1.62,1.145,3.429,1.894,5.3,2.248c0.837,0.16,1.691,0.243,2.55,0.243     c1.428,0,2.868-0.226,4.267-0.692c0.669-0.221,1.312-0.493,1.926-0.81c10.041-4.501,51.174-24.336,58.159-50.003     c2.459-9.031,0.812-17.897-4.762-25.642c-6.418-8.911-15.571-13.819-25.775-13.819c-4.952,0-10.05,1.126-15.249,3.36     c-9.273-11.745-19.766-13.818-26.004-13.818c-4.923,0-9.915,1.213-14.839,3.602c-1.325,0.643-2.571,1.363-3.754,2.14     c-3.92-8.993-13.12-20.773-34.685-27.163c14.736-15.664,22.497-30.2,23.139-43.398c0.498-10.229-3.221-19.572-10.75-27.015     c-2.932-2.898-6.123-5.306-9.497-7.169c-6.122-4.005-12.785-6.034-19.819-6.034c-6.452,0-15.58,1.816-26.03,9.187     c-3.159-2.927-6.458-5.353-9.877-7.259c-5.627-3.634-11.496-5.756-17.495-6.327c-0.903-2.687-1.877-5.574-3.031-8.972     c-2.033-6.03-7.753-10.081-14.234-10.081c-1.565,0-3.124,0.234-4.653,0.702c-2.436,0.749-3.653,1.126-6.095,1.902     c-3.672,1.172-6.76,3.66-8.648,6.892c-1.517-0.45-3.12-0.689-4.77-0.689c-1.983,0-3.944,0.342-5.823,1.014     c-2.244,0.804-3.364,1.213-5.602,2.046c-4.256,1.588-7.696,4.787-9.484,8.809c-1.892-0.74-3.952-1.137-6.091-1.137     c-2.415,0-4.769,0.5-6.998,1.489c-2.145,0.951-3.21,1.434-5.323,2.415c-4.197,1.943-7.426,5.503-8.856,9.767     c-0.226,0.672-0.387,1.357-0.518,2.046c-1.646-0.256-3.327-0.403-5.041-0.403c-6.39,0-12.709,1.845-18.268,5.336     c-5.965,3.744-10.499,8.964-13.185,15.07c-0.53-0.051-1.064-0.091-1.605-0.091c-3.723,0-7.443,1.28-10.484,3.608     c-1.928,1.477-2.885,2.221-4.79,3.727c-3.739,2.955-6.03,7.188-6.43,11.627c-0.415-0.034-0.831-0.049-1.246-0.049     c-4.108,0-8.122,1.571-11.315,4.433c-1.839,1.654-2.752,2.487-4.545,4.153c-3.404,3.155-5.401,7.553-5.479,12.068     c-0.03,1.743,0.226,3.438,0.727,5.043c-1.492-0.45-3.05-0.697-4.633-0.697c-4.682,0-9.212,2.027-12.42,5.547     c-8.584,9.398-13.184,14.666-21.223,25.699c-2.601,3.572-3.683,8.029-3.023,12.291c-5.941,2.922-11.063,7.671-14.524,13.777     c-4.518,7.974-5.701,17.346-3.295,25.809c-0.036,0.012-0.073,0.019-0.109,0.031c-0.255,0.084-0.508,0.173-0.759,0.272     c-8.257,3.227-15.202,10.385-19.051,19.631c-3.661,8.791-3.691,18.56-0.08,26.804c3.269,7.46,9.103,13.04,16.431,15.721     c4.743,1.734,7.116,2.605,11.855,4.359c0.372,0.138,0.747,0.265,1.123,0.388l-46.731,27.342l-36.107,21.145     c-10.72,6.287-14.35,20.125-8.095,30.838c0.983,1.687,2.174,3.235,3.543,4.604c4.26,4.258,9.927,6.606,15.957,6.606     c3.957,0,7.877-1.061,11.397-3.098l99.451-58.202c-0.764,2.593-1.285,5.356-1.544,8.297     c-17.035,3.029-27.652,14.382-28.36,31.123c-0.363,8.556,2.468,16.231,8.183,22.194c9.065,9.457,24.602,14.055,47.498,14.055     c14.291,0,27.017-1.835,30.484-2.381c1.47-0.156,2.928-0.552,4.311-1.2c1.455-0.681,2.752-1.603,3.849-2.702     c1.377-1.375,2.472-3.058,3.163-4.969c0.094-0.258,0.17-0.52,0.247-0.781c3.956,5.433,8.863,10.225,15.225,13.541     c6.304,3.294,12.658,4.427,18.266,5.427c3.644,0.65,7.089,1.265,9.643,2.36c6.601,2.849,11.756,10.663,17.214,18.935     c2.678,4.062,5.45,8.261,8.637,12.287c16.44,20.732,43.113,33.11,71.351,33.11c1.542,0,3.081-0.038,4.581-0.11     c10.096-0.456,19.903-2.495,29.153-6.059c28.822-11.119,52.079-36.023,63.56-67.057c1.253,0.936,2.647,1.639,4.115,2.092     c1.291,0.403,2.645,0.612,4.018,0.612c1.004,0,2.018-0.112,3.024-0.342c1.111-0.255,2.166-0.643,3.149-1.147     c11.125-4.984,44.1-21.434,50.094-43.474c2.242-8.246,0.742-16.337-4.341-23.398c-5.817-8.078-14.143-12.526-23.442-12.526     c-3.982,0-8.052,0.799-12.184,2.39c-6.76-7.924-14.164-10.423-19.597-11.032c-1.797-11.294-4.161-22.689-6.77-34.917     l-2.034-9.525c0.162,0.216,0.307,0.407,0.431,0.57C436.226,267.349,437.352,268.507,438.69,269.452z"/>
		</g>
	</g>
	<g>
		<g>
			<path style="fill:#FFD1D0;" d="M433.441,352.801c-0.242,7.919-1.099,15.816-2.749,23.622     c-6.971,32.94-29.488,62.88-60.252,74.747c-7.96,3.068-16.382,4.783-24.892,5.167c-24.409,1.173-49.345-8.506-64.715-27.887     c-9.873-12.477-16.668-29.015-31.093-35.242c-8.62-3.7-18.669-3.001-27.003-7.355c-9.741-5.077-15.107-15.906-19.329-26.262     c-4.926-12.138-9.961-25.675-14.249-39.438c-4.31-13.785-7.894-27.819-9.917-40.837c-0.968-6.16-1.517-11.732-1.539-16.921     c-0.044-15.252,4.772-27.21,18.713-40.927c22.188-21.795,50.554-36.167,80.064-44.876c29.51-8.709,60.273-12.003,90.949-13.808     c8.686-0.496,15.324,2.018,22.493,7.094c8.246,5.866,13.768,14.182,15.901,24.222c5.959,27.909,11.919,55.818,17.877,83.727     C428.955,302.466,434.211,327.825,433.441,352.801z"/>
		</g>
		<g style="opacity:0.5;">
			<path style="fill:#F2C7C7;" d="M345.549,456.338c-24.409,1.173-49.345-8.506-64.715-27.887     c-9.873-12.477-16.668-29.015-31.093-35.242c-8.62-3.7-18.669-3.001-27.003-7.355c-9.741-5.077-15.107-15.906-19.329-26.262     c-4.926-12.138-9.961-25.675-14.249-39.438c-4.31-13.785-7.894-27.819-9.917-40.837c-0.968-6.16-1.517-11.732-1.539-16.921     c5.541,0.429,11.105,2.843,15.678,6.204c14.777,10.784,21.836,29.263,28.455,46.59c6.619,17.328,14.491,35.693,30.016,45.304     c7.916,4.896,17.393,7.175,24.342,13.424c11.501,10.311,12.71,27.819,18.515,42.326c7.322,18.32,23.265,32.76,41.89,37.949     C339.546,455.007,342.558,455.616,345.549,456.338z"/>
		</g>
		<g>
			<g>
				<g>
					<path style="fill:#FFACAC;" d="M383.175,215.382c-16.214-27.932-47.667-7.321-51.688-4.996       c-1.66-4.63-12.458-40.053-42.57-28.927c-44.53,16.454,12.238,107.214,13.753,109.622c-0.004,0.014-0.012,0.036-0.012,0.036       s0.011-0.004,0.029-0.009c0.009,0.015,0.017,0.026,0.017,0.026s0.007-0.023,0.012-0.037       C305.411,290.211,407.007,256.443,383.175,215.382z"/>
				</g>
				<g>
					<path style="fill:#FFACAC;" d="M383.175,215.382c-16.214-27.932-47.667-7.321-51.688-4.996       c-1.66-4.63-12.458-40.053-42.57-28.927c-44.53,16.454,12.238,107.214,13.753,109.622c-0.004,0.014-0.012,0.036-0.012,0.036       s0.011-0.004,0.029-0.009c0.009,0.015,0.017,0.026,0.017,0.026s0.007-0.023,0.012-0.037       C305.411,290.211,407.007,256.443,383.175,215.382z"/>
				</g>
				<g>
					<path style="fill:#FFACAC;" d="M380.898,213.002c-16.214-27.932-47.667-7.321-51.688-4.996       c-1.66-4.63-12.459-40.053-42.57-28.927c-44.53,16.454,12.238,107.214,13.753,109.622c-0.004,0.014-0.012,0.036-0.012,0.036       s0.011-0.004,0.029-0.009c0.009,0.015,0.017,0.026,0.017,0.026s0.007-0.023,0.011-0.037       C303.134,287.831,404.729,254.063,380.898,213.002z"/>
				</g>
				<g>
					<g>
						<path style="fill:#FFE7E7;" d="M370.26,214.151c-1.177,0.787-1.869,2.153-2.143,3.543c-0.337,1.709-0.105,3.477-0.153,5.206        c-0.065,2.314-0.42,4.627-1.59,6.663c-1.295,2.256-3.495,3.912-4.447,6.382c-1.586,4.115,2.362,6.412,5.995,5.773        c9.579-1.686,16.209-20.095,8.37-26.872C374.648,213.423,372.071,212.942,370.26,214.151z"/>
					</g>
					<g>
						<path style="fill:#FFE7E7;" d="M359.855,249.681c-1.979,0.815-4.243-0.129-5.058-2.108c-0.815-1.979,0.129-4.244,2.108-5.058        c1.979-0.814,4.243,0.129,5.058,2.108C362.777,246.602,361.833,248.866,359.855,249.681z"/>
					</g>
				</g>
			</g>
			<g>
				<g>
					<path style="fill:#FFE3B2;" d="M291.606,219.835c-32.297-0.032-30.299,37.52-30.312,42.164       c-4.837-0.893-40.885-9.373-46.411,22.248c-8.172,46.764,98.825,43.338,101.669,43.24c0.01,0.011,0.025,0.029,0.025,0.029       s0.002-0.012,0.007-0.03c0.018,0,0.031-0.001,0.031-0.001s-0.016-0.018-0.026-0.029       C317.178,324.681,339.081,219.885,291.606,219.835z"/>
				</g>
				<g>
					<path style="fill:#FCD18B;" d="M291.606,219.835c-32.297-0.032-30.299,37.52-30.312,42.164       c-4.837-0.893-40.885-9.373-46.411,22.248c-8.172,46.764,98.825,43.338,101.669,43.24c0.01,0.011,0.025,0.029,0.025,0.029       s0.002-0.012,0.007-0.03c0.018,0,0.031-0.001,0.031-0.001s-0.016-0.018-0.026-0.029       C317.178,324.681,339.081,219.885,291.606,219.835z"/>
				</g>
				<g>
					<path style="fill:#FFE3B2;" d="M288.403,220.606c-32.297-0.032-30.299,37.52-30.311,42.164       c-4.837-0.893-40.885-9.373-46.411,22.249c-8.171,46.764,98.826,43.338,101.669,43.239c0.01,0.01,0.025,0.029,0.025,0.029       s0.002-0.012,0.007-0.03c0.018,0,0.031-0.001,0.031-0.001s-0.016-0.018-0.026-0.029       C313.975,325.452,335.878,220.656,288.403,220.606z"/>
				</g>
				<g>
					<g>
						<path style="fill:#FFF6ED;" d="M274.983,235.16c0.906,1.089,2.337,1.633,3.748,1.76c1.735,0.157,3.469-0.26,5.194-0.392        c2.308-0.178,4.645-0.066,6.792,0.884c2.379,1.052,4.256,3.066,6.812,3.755c4.259,1.147,6.13-3.02,5.114-6.566        c-2.679-9.35-21.681-14.017-27.601-5.512C273.8,230.872,273.591,233.486,274.983,235.16z"/>
					</g>
					<g>
						<path style="fill:#FFF6ED;" d="M311.406,241.79c1.017,1.883,0.316,4.234-1.567,5.251c-1.883,1.017-4.233,0.316-5.251-1.567        c-1.017-1.883-0.316-4.234,1.567-5.251C308.038,239.206,310.389,239.908,311.406,241.79z"/>
					</g>
				</g>
			</g>
			<g>
				<g>
					<path style="fill:#FFACAC;" d="M354.657,329.041c-16.214-27.932-47.667-7.321-51.688-4.996       c-1.66-4.629-12.458-40.053-42.569-28.927c-44.53,16.454,12.238,107.214,13.753,109.622c-0.004,0.014-0.012,0.036-0.012,0.036       s0.011-0.004,0.029-0.009c0.009,0.015,0.017,0.026,0.017,0.026s0.007-0.023,0.012-0.037       C276.893,403.87,378.489,370.102,354.657,329.041z"/>
				</g>
				<g>
					<path style="fill:#FC9A9A;" d="M354.657,329.041c-16.214-27.932-47.667-7.321-51.688-4.996       c-1.66-4.629-12.458-40.053-42.569-28.927c-44.53,16.454,12.238,107.214,13.753,109.622c-0.004,0.014-0.012,0.036-0.012,0.036       s0.011-0.004,0.029-0.009c0.009,0.015,0.017,0.026,0.017,0.026s0.007-0.023,0.012-0.037       C276.893,403.87,378.489,370.102,354.657,329.041z"/>
				</g>
				<g>
					<path style="fill:#FFACAC;" d="M352.38,326.661c-16.214-27.932-47.667-7.321-51.688-4.996       c-1.66-4.63-12.458-40.053-42.57-28.927c-44.53,16.453,12.238,107.214,13.753,109.622c-0.004,0.014-0.012,0.036-0.012,0.036       s0.011-0.004,0.03-0.009c0.009,0.015,0.017,0.026,0.017,0.026s0.007-0.023,0.012-0.037       C274.616,401.489,376.211,367.721,352.38,326.661z"/>
				</g>
				<g>
					<g>
						<path style="fill:#FFE7E7;" d="M324.274,323.087c0.181,1.313,1.047,2.454,2.104,3.255c1.3,0.984,2.883,1.512,4.318,2.261        c1.92,1.002,3.721,2.249,4.956,4.067c1.368,2.014,1.861,4.543,3.549,6.356c2.814,3.021,6.364,0.639,7.314-2.68        c2.505-8.752-10.271-21.872-19.185-18.051C325.459,319.096,323.998,321.068,324.274,323.087z"/>
					</g>
					<g>
						<path style="fill:#FFE7E7;" d="M349.911,346.397c-0.125,1.999-1.847,3.518-3.846,3.393c-1.999-0.125-3.518-1.847-3.393-3.846        s1.847-3.518,3.846-3.393C348.517,342.677,350.036,344.398,349.911,346.397z"/>
					</g>
				</g>
			</g>
			<g>
				<g>
					<path style="fill:#F8627F;" d="M391.707,235.582c-28.348-15.476-44.554,18.457-46.787,22.529       c-3.82-3.098-31.421-27.787-51.399-2.661c-29.544,37.159,66.058,85.329,68.602,86.603c0.004,0.014,0.008,0.037,0.008,0.037       s0.008-0.01,0.021-0.023c0.016,0.008,0.028,0.014,0.028,0.014s-0.005-0.023-0.009-0.038       C364.014,339.888,433.375,258.335,391.707,235.582z"/>
				</g>
				<g>
					<path style="fill:#F44770;" d="M391.707,235.582c-28.348-15.476-44.554,18.457-46.787,22.529       c-3.82-3.098-31.421-27.787-51.399-2.661c-29.544,37.159,66.058,85.329,68.602,86.603c0.004,0.014,0.008,0.037,0.008,0.037       s0.008-0.01,0.021-0.023c0.016,0.008,0.028,0.014,0.028,0.014s-0.005-0.023-0.009-0.038       C364.014,339.888,433.375,258.335,391.707,235.582z"/>
				</g>
				<g>
					<path style="fill:#F8627F;" d="M388.525,234.728c-28.348-15.476-44.554,18.457-46.787,22.529       c-3.82-3.097-31.421-27.787-51.399-2.661c-29.544,37.159,66.057,85.329,68.601,86.603c0.004,0.014,0.008,0.037,0.008,0.037       s0.008-0.009,0.02-0.023c0.016,0.008,0.028,0.014,0.028,0.014s-0.005-0.023-0.009-0.038       C360.832,339.033,430.194,257.48,388.525,234.728z"/>
				</g>
				<g>
					<g>
						<path style="fill:#FFE7E7;" d="M362.158,245.913c0.906,1.089,2.337,1.633,3.748,1.761c1.735,0.157,3.469-0.26,5.194-0.392        c2.307-0.178,4.645-0.066,6.792,0.884c2.379,1.052,4.256,3.066,6.812,3.755c4.259,1.147,6.13-3.02,5.114-6.566        c-2.679-9.35-21.681-14.017-27.601-5.512C360.975,241.625,360.766,244.239,362.158,245.913z"/>
					</g>
					<g>
						<path style="fill:#FFE7E7;" d="M398.581,252.543c1.017,1.883,0.316,4.233-1.567,5.251c-1.883,1.017-4.233,0.316-5.251-1.567        c-1.017-1.883-0.316-4.234,1.567-5.251C395.213,249.959,397.564,250.661,398.581,252.543z"/>
					</g>
				</g>
			</g>
			<g>
				<g>
					<path style="fill:#FFE3B2;" d="M374.514,308.23c-32.297-0.032-30.299,37.52-30.311,42.164       c-4.837-0.893-40.885-9.373-46.411,22.248c-8.171,46.764,98.826,43.338,101.669,43.24c0.01,0.011,0.025,0.029,0.025,0.029       s0.002-0.012,0.007-0.03c0.018,0,0.031-0.001,0.031-0.001s-0.016-0.018-0.026-0.029       C400.087,413.076,421.99,308.28,374.514,308.23z"/>
				</g>
				<g>
					<path style="fill:#FCD18B;" d="M374.514,308.23c-32.297-0.032-30.299,37.52-30.311,42.164       c-4.837-0.893-40.885-9.373-46.411,22.248c-8.171,46.764,98.826,43.338,101.669,43.24c0.01,0.011,0.025,0.029,0.025,0.029       s0.002-0.012,0.007-0.03c0.018,0,0.031-0.001,0.031-0.001s-0.016-0.018-0.026-0.029       C400.087,413.076,421.99,308.28,374.514,308.23z"/>
				</g>
				<g>
					<path style="fill:#FFE3B2;" d="M371.311,309.002c-32.297-0.032-30.299,37.52-30.311,42.164       c-4.837-0.893-40.885-9.373-46.411,22.249c-8.172,46.764,98.825,43.338,101.669,43.239c0.01,0.01,0.025,0.029,0.025,0.029       s0.002-0.012,0.007-0.03c0.018,0,0.031-0.001,0.031-0.001s-0.016-0.017-0.026-0.029       C396.884,413.847,418.787,309.051,371.311,309.002z"/>
				</g>
				<g style="opacity:0.56;">
					<g>
						<path style="fill:#FFF6ED;" d="M357.454,324.907c0.906,1.088,2.337,1.633,3.747,1.76c1.735,0.157,3.469-0.26,5.194-0.392        c2.308-0.178,4.646-0.066,6.793,0.884c2.379,1.052,4.256,3.066,6.812,3.755c4.259,1.147,6.13-3.02,5.114-6.566        c-2.679-9.35-21.681-14.017-27.601-5.512C356.271,320.619,356.062,323.232,357.454,324.907z"/>
					</g>
					<g>
						<path style="fill:#FFF6ED;" d="M393.878,331.537c1.017,1.883,0.316,4.234-1.567,5.251c-1.883,1.017-4.234,0.316-5.251-1.567        c-1.017-1.883-0.316-4.234,1.567-5.251C390.51,328.953,392.861,329.654,393.878,331.537z"/>
					</g>
				</g>
			</g>
		</g>
		<g>
			<path style="fill:#4F021B;" d="M352.69,165.019c-22.336-1.534-49.93,2.504-77.703,11.394     c-27.796,8.889-52.614,21.614-69.897,35.806c-16.515,13.582-24.66,27.435-23.374,39.551c0.338-8.709,7.919-19.674,21.614-30.91     c18.072-14.868,44.289-28.247,73.822-37.678c25.472-8.167,50.651-12.499,72.085-12.499c3.384,0,6.701,0.113,9.882,0.338     c10.536,0.722,19.245,2.617,25.675,5.483c4.422,1.963,7.761,4.377,9.905,7.197C388.722,173.073,374.034,166.485,352.69,165.019z"/>
		</g>
		<g>
			<g>
				<path style="fill:#FFF6ED;" d="M299.248,416.911l2.689-8.357l2.499-8.411l2.39-8.437l2.205-8.484      c2.827-11.339,5.296-22.766,7.173-34.297c2.011-11.507,3.44-23.111,4.492-34.749l0.707-8.738l0.516-8.754l0.406-8.765      l0.209-8.777l0.202,8.781l0.006,8.788l-0.277,8.786l-0.477,8.78c-0.787,11.7-2.235,23.352-4.125,34.928      c-2.023,11.553-4.479,23.036-7.585,34.343l-2.434,8.449l-2.626,8.388l-2.893,8.298L299.248,416.911z"/>
			</g>
			<g>
				<path style="fill:#FFF6ED;" d="M342.854,423.258l2.989-8.692l2.765-8.76l2.621-8.799l2.402-8.858      c3.067-11.843,5.683-23.803,7.613-35.88c2.065-12.055,3.454-24.218,4.369-36.418l0.587-9.159l0.359-9.174l0.213-9.184      l-0.021-9.192l0.432,9.187l0.199,9.2l-0.12,9.204l-0.357,9.201c-0.651,12.263-2.059,24.482-4.002,36.61      c-2.078,12.105-4.682,24.127-8.028,35.943l-2.631,8.823l-2.858,8.75l-3.157,8.643L342.854,423.258z"/>
			</g>
			<g>
				<path style="fill:#FFF6ED;" d="M375.325,431.209l3.8-9.101l3.473-9.223l3.224-9.306l2.902-9.407      c3.664-12.6,6.6-25.412,8.569-38.38c2.102-12.947,3.246-26.042,3.624-39.158l0.128-9.843l-0.21-9.846l-0.469-9.844l-0.816-9.829      l1.227,9.793l0.882,9.837l0.451,9.871l0.104,9.885c-0.111,13.185-1.274,26.357-3.258,39.395      c-2.118,13.017-5.048,25.912-8.996,38.492l-3.134,9.375l-3.462,9.255l-3.861,9.091L375.325,431.209z"/>
			</g>
			<g>
				<path style="fill:#FFF6ED;" d="M286.262,324.634c11.472-1.59,22.976-2.917,34.491-4.138c11.515-1.225,23.052-2.22,34.589-3.219      c11.548-0.863,23.096-1.72,34.659-2.357c11.562-0.635,23.13-1.165,34.709-1.428l-69.233,5.461L286.262,324.634z"/>
			</g>
			<g>
				<path style="fill:#FFF6ED;" d="M282.491,359.944c11.272-1.118,22.569-1.937,33.875-2.612      c11.306-0.679,22.626-1.091,33.947-1.471c11.324-0.243,22.65-0.443,33.976-0.387c11.326,0.058,22.651,0.258,33.967,0.762      l-33.958,0.533c-11.315,0.212-22.63,0.398-33.939,0.773c-11.313,0.238-22.621,0.676-33.931,1.077L282.491,359.944z"/>
			</g>
			<g>
				<path style="fill:#FFF6ED;" d="M286.67,394.217c9.868,0.132,19.728,0.541,29.581,1.071c9.854,0.526,19.692,1.296,29.529,2.075      c9.825,0.916,19.649,1.851,29.448,3.019c9.798,1.169,19.582,2.458,29.326,4.024l-29.462-2.736      c-9.818-0.9-19.63-1.848-29.457-2.632c-9.815-0.919-19.645-1.663-29.471-2.465L286.67,394.217z"/>
			</g>
		</g>
		<path style="fill:#F9A5A5;" d="M276.194,373.919c-6.905-6.21-16.304-8.502-24.189-13.334    c8.855,22.906,21.446,43.038,22.148,44.155c-0.004,0.014-0.012,0.036-0.012,0.036s0.011-0.004,0.029-0.009    c0.009,0.015,0.017,0.026,0.017,0.026s0.007-0.023,0.012-0.037c0.627-0.206,6.607-2.193,15.112-5.635    C286.533,389.571,283.363,380.346,276.194,373.919z"/>
		<path style="fill:#FFB2AE;" d="M276.194,373.919c-6.949-6.25-16.426-8.528-24.342-13.424c-0.575-0.356-1.118-0.747-1.672-1.126    c8.825,22.42,21.005,41.893,21.695,42.991c-0.004,0.014-0.012,0.036-0.012,0.036s0.011-0.004,0.03-0.009    c0.009,0.015,0.017,0.026,0.017,0.026s0.007-0.023,0.012-0.037c0.66-0.217,7.27-2.414,16.51-6.205    C285.833,387.692,282.621,379.681,276.194,373.919z"/>
		<g>
			<g>
				<path style="fill:#4F021B;" d="M229.936,286.337c-3.667,0-7.234-0.119-10.688-0.357c-26.89-1.849-44.285-10.948-48.977-25.618      c-4.694-14.672,4.19-32.175,25.012-49.29c19.287-15.85,46.988-30.044,78.001-39.966c31.014-9.921,61.806-14.445,86.717-12.728      c26.89,1.848,44.283,10.948,48.976,25.618c4.694,14.672-4.19,32.175-25.012,49.29c-19.287,15.851-46.988,30.044-78.001,39.966      C279.251,281.796,252.699,286.335,229.936,286.337z M349.237,170.686c-21.428,0-46.608,4.332-72.093,12.486      c-29.526,9.444-55.742,22.829-73.82,37.685c-16.301,13.398-23.952,26.391-20.991,35.645      c2.961,9.256,16.733,15.395,37.784,16.842c23.343,1.609,52.462-2.712,81.986-12.158c29.525-9.443,55.742-22.828,73.82-37.685      c16.301-13.398,23.952-26.391,20.991-35.645l0,0c-2.961-9.256-16.732-15.394-37.783-16.842      C355.937,170.794,352.632,170.686,349.237,170.686z"/>
			</g>
			<g>
				<g>
					<path style="fill:#FFF6ED;" d="M355.904,242.429c-0.738,0.48-1.433,1.011-1.954,1.757c-0.257,0.368-0.466,0.796-0.448,1.244       c0.028,0.686,0.6,1.259,1.25,1.479c0.65,0.22,1.361,0.151,2.036,0.022c3.444-0.655,6.577-2.541,9.455-4.463       c3.014-2.012,5.815-4.339,8.358-6.92c0.781-0.793,1.571-1.672,1.779-2.766c0.209-1.102-0.429-2.334-1.548-2.646       c-1.294-0.361-2.323,0.907-3.284,1.572c-3.139,2.174-6.283,4.339-9.424,6.509c-1.562,1.08-3.102,2.202-4.686,3.247       C356.935,241.796,356.409,242.1,355.904,242.429z"/>
				</g>
				<g>
					<circle style="fill:#FFF6ED;" cx="380.327" cy="228.492" r="1.872"/>
				</g>
			</g>
			<g>
				<path style="fill:#42031B;" d="M352.69,165.019c-22.336-1.534-49.93,2.504-77.703,11.394      c-27.796,8.889-52.614,21.614-69.897,35.806c-16.515,13.582-24.66,27.435-23.374,39.551c0.338-8.709,7.919-19.674,21.614-30.91      c18.072-14.868,44.289-28.247,73.822-37.678c25.472-8.167,50.651-12.499,72.085-12.499c3.384,0,6.701,0.113,9.882,0.338      c10.536,0.722,19.245,2.617,25.675,5.483c4.422,1.963,7.761,4.377,9.905,7.197C388.722,173.073,374.034,166.485,352.69,165.019z      "/>
			</g>
			<g>
				<path style="fill:#4F021B;" d="M183.453,275.617c-0.248,0.203-0.519,0.406-0.812,0.564L64.079,345.559l-36.956,21.637      c-1.444,0.835-3.023,1.241-4.558,1.241c-2.369,0-4.67-0.925-6.385-2.64c-0.541-0.542-1.015-1.151-1.421-1.85      c-2.504-4.287-1.061-9.815,3.249-12.342l36.099-21.14l119.42-69.874c4.309-2.527,9.837-1.061,12.341,3.226      C188.237,267.833,187.131,272.932,183.453,275.617z"/>
			</g>
			<g>
				<path style="fill:#A44043;" d="M64.079,345.559l-36.956,21.637c-1.444,0.835-3.023,1.241-4.558,1.241      c-2.369,0-4.67-0.925-6.385-2.64c-0.541-0.542-1.015-1.151-1.421-1.85c-2.504-4.287-1.061-9.815,3.249-12.342l36.099-21.14      c0.158,0.97,0.338,1.895,0.586,2.685c0.857,2.595,2.008,5.099,3.587,7.287c1.06,1.422,2.279,2.708,3.745,3.791      C62.68,344.701,63.357,345.153,64.079,345.559z"/>
			</g>
			<g>
				<path style="fill:#42031B;" d="M183.453,275.617c-0.248,0.203-0.519,0.406-0.812,0.564L64.079,345.559l-36.956,21.637      c-1.444,0.835-3.023,1.241-4.558,1.241c-2.369,0-4.67-0.925-6.385-2.64c0.587-0.699,1.309-1.309,2.143-1.805l39.957-23.555      l113.689-66.986C175.85,271.172,180.724,272.165,183.453,275.617z"/>
			</g>
			<path style="fill:#8E383E;" d="M58.28,340.437l-39.957,23.555c-0.835,0.496-1.557,1.106-2.143,1.805     c1.715,1.715,4.016,2.64,6.385,2.64c1.534,0,3.114-0.406,4.557-1.241l36.956-21.637c-0.722-0.406-1.399-0.857-2.053-1.331     C60.559,343.145,59.341,341.859,58.28,340.437z"/>
		</g>
		<g>
			<path style="fill:#F8627F;" d="M162.3,311.264c-21.422,2.794-16.823,27.524-16.427,30.605     c-3.285-0.171-27.932-2.653-28.84,18.801c-1.343,31.726,69.318,20.128,71.195,19.814c0.007,0.006,0.019,0.017,0.019,0.017     s0-0.008,0.002-0.02c0.012-0.002,0.021-0.004,0.021-0.004s-0.012-0.01-0.02-0.017C188.398,378.569,193.79,307.159,162.3,311.264z     "/>
		</g>
		<g>
			<path style="fill:#F8627F;" d="M495.143,202.708c-12.623-17.532-32.211-1.751-34.735,0.06     c-1.409-2.973-10.917-25.847-30.233-16.468c-28.565,13.87,15.169,70.569,16.335,72.073c-0.002,0.009-0.006,0.025-0.006,0.025     s0.007-0.003,0.019-0.008c0.007,0.01,0.013,0.017,0.013,0.017s0.003-0.016,0.005-0.026     C448.278,257.613,513.697,228.48,495.143,202.708z"/>
		</g>
		<g>
			<path style="fill:#F8627F;" d="M487.945,339c-10.632-14.766-27.129-1.475-29.255,0.05c-1.186-2.504-9.195-21.769-25.463-13.87     c-24.058,11.681,12.776,59.435,13.758,60.702c-0.001,0.008-0.005,0.021-0.005,0.021s0.006-0.003,0.016-0.007     c0.006,0.008,0.011,0.014,0.011,0.014s0.003-0.013,0.004-0.022C448.474,385.243,503.572,360.707,487.945,339z"/>
		</g>
		<g>
			<g>
				<g>
					<g>
						<path style="fill:#FFACAC;" d="M388.69,88.31c-20.421-20.182-42.598,4.832-45.505,7.763        c-2.503-3.584-20.024-31.455-43.262-14.891c-34.364,24.495,35.491,89.121,37.352,90.834c-0.001,0.013-0.002,0.034-0.002,0.034        s0.009-0.006,0.023-0.015c0.011,0.011,0.021,0.018,0.021,0.018s0.001-0.021,0.001-0.035        C339.424,170.629,418.706,117.978,388.69,88.31z"/>
					</g>
					<g>
						<path style="fill:#FC9A9A;" d="M388.69,88.31c-20.421-20.182-42.598,4.832-45.505,7.763        c-2.503-3.584-20.024-31.455-43.262-14.891c-34.364,24.495,35.491,89.121,37.352,90.834c-0.001,0.013-0.002,0.034-0.002,0.034        s0.009-0.006,0.023-0.015c0.011,0.011,0.021,0.018,0.021,0.018s0.001-0.021,0.001-0.035        C339.424,170.629,418.706,117.978,388.69,88.31z"/>
					</g>
					<g>
						<path style="fill:#FFACAC;" d="M386.182,86.798c-20.42-20.182-42.598,4.832-45.505,7.763        c-2.503-3.584-20.024-31.455-43.261-14.891c-34.365,24.495,35.491,89.121,37.352,90.833c0,0.013-0.002,0.034-0.002,0.034        s0.009-0.006,0.023-0.015c0.012,0.011,0.021,0.019,0.021,0.019s0.001-0.021,0.001-0.035        C336.915,169.118,416.197,116.467,386.182,86.798z"/>
					</g>
				</g>
				<g>
					<g>
						<path style="fill:#FFE7E7;" d="M359.687,91.017c0.251,1.247,1.149,2.287,2.209,2.99c1.304,0.864,2.85,1.275,4.269,1.906        c1.899,0.844,3.697,1.931,4.988,3.596c1.43,1.846,2.053,4.238,3.778,5.872c2.874,2.723,6.13,0.231,6.841-3.003        c1.874-8.528-11.142-20.322-19.447-16.132C360.583,87.126,359.302,89.1,359.687,91.017z"/>
					</g>
					<g>
						<path style="fill:#FFE7E7;" d="M387.062,112.252c0,1.921-1.557,3.478-3.478,3.478s-3.478-1.557-3.478-3.478        s1.557-3.479,3.478-3.479S387.062,110.331,387.062,112.252z"/>
					</g>
				</g>
			</g>
			<g>
				<g>
					<g>
						<path style="fill:#F8627F;" d="M253.601,141.455c-30.59,3.99-24.023,39.303-23.457,43.703        c-4.691-0.244-39.885-3.788-41.182,26.846c-1.918,45.303,98.983,28.742,101.663,28.294c0.011,0.009,0.027,0.024,0.027,0.024        s0.001-0.011,0.003-0.029c0.017-0.003,0.029-0.005,0.029-0.005s-0.017-0.015-0.029-0.024        C290.868,237.563,298.567,135.594,253.601,141.455z"/>
					</g>
					<g>
						<path style="fill:#F44770;" d="M253.601,141.455c-30.59,3.99-24.023,39.303-23.457,43.703        c-4.691-0.244-39.885-3.788-41.182,26.846c-1.918,45.303,98.983,28.742,101.663,28.294c0.011,0.009,0.027,0.024,0.027,0.024        s0.001-0.011,0.003-0.029c0.017-0.003,0.029-0.005,0.029-0.005s-0.017-0.015-0.029-0.024        C290.868,237.563,298.567,135.594,253.601,141.455z"/>
					</g>
					<g>
						<path style="fill:#F8627F;" d="M250.664,142.584c-30.59,3.99-24.023,39.303-23.457,43.703        c-4.691-0.244-39.885-3.788-41.182,26.846c-1.918,45.303,98.983,28.741,101.663,28.294c0.011,0.009,0.027,0.024,0.027,0.024        s0.001-0.011,0.003-0.029c0.017-0.003,0.029-0.005,0.029-0.005s-0.017-0.015-0.029-0.024        C287.931,238.692,295.63,136.722,250.664,142.584z"/>
					</g>
				</g>
				<g>
					<g>
						<path style="fill:#FFE7E7;" d="M237.713,162.1c1.101,0.637,2.474,0.653,3.703,0.324c1.51-0.405,2.843-1.292,4.255-1.938        c1.89-0.864,3.894-1.493,5.997-1.357c2.331,0.151,4.536,1.267,6.902,1.056c3.944-0.351,4.231-4.442,2.278-7.116        c-5.15-7.05-22.607-5.104-24.964,3.895C235.39,158.852,236.022,161.119,237.713,162.1z"/>
					</g>
					<g>
						<path style="fill:#FFE7E7;" d="M271.751,155.642c1.44,1.272,1.576,3.47,0.304,4.91c-1.272,1.44-3.47,1.576-4.91,0.304        c-1.44-1.272-1.576-3.47-0.304-4.91C268.113,154.506,270.311,154.37,271.751,155.642z"/>
					</g>
				</g>
			</g>
		</g>
		<g>
			<g>
				<g>
					<path style="fill:#A44043;" d="M100.531,243.106c1.037-2.292,3.516-3.218,5.36-2.334c2.49,1.194,3.734,1.792,6.217,2.996       c8.047,3.903,11.899,14.684,8.007,24.012c-3.949,9.46-14.11,13.7-22.541,10.578c-4.76-1.762-7.142-2.638-11.909-4.38       c-8.448-3.087-12.95-13.923-8.502-24.603c2.452-5.893,6.633-10.332,11.484-12.229c0.657-0.214,1.365-0.228,2.003,0.072       c0.634,0.297,1.141,0.881,1.439,1.621c0.515,1.649,0.776,2.47,1.306,4.107c0.272,0.805,0.19,1.62-0.119,2.326       c-0.248,0.566-0.707,1.291-1.746,1.76c-2.491,1.096-4.353,3.013-5.582,5.961c-1.827,4.388,0.283,9.246,3.778,10.641       c4.715,1.883,7.071,2.827,11.774,4.731c3.484,1.412,8.252-0.387,9.962-4.477c1.711-4.09-0.122-8.629-3.552-10.184       c-0.603-0.274-0.905-0.411-1.509-0.685c-1.193,2.734-1.778,4.105-2.928,6.85c-0.603,1.441-2.085,2.189-3.438,1.619       c-1.576-0.662-2.365-0.992-3.942-1.652c-1.295-0.542-1.859-2.181-1.243-3.656C97.048,250.925,98.18,248.304,100.531,243.106z"/>
				</g>
				<g>
					<path style="fill:#A44043;" d="M135.226,203.865c7.643,4.814,9.979,15.493,4.924,24.363       c-5.054,8.874-15.37,12.018-23.393,7.912c-4.506-2.308-6.772-3.446-11.299-5.724c-8.06-4.053-11.392-15.447-5.798-25.32       c5.596-9.872,17.095-12.691,24.785-7.935C128.766,199.831,130.933,201.161,135.226,203.865z M118.541,206.434       c-3.268-1.905-8.228-0.8-10.585,3.355c-2.318,4.087-0.758,8.955,2.574,10.738c4.475,2.39,6.715,3.583,11.167,6.004       c3.259,1.774,8.114,0.653,10.295-3.176c2.218-3.891,0.749-8.576-2.502-10.504C125.128,210.262,122.929,208.989,118.541,206.434       z"/>
				</g>
				<g>
					<path style="fill:#A44043;" d="M144.019,158.026c1.074,0.896,1.063,2.588-0.025,3.78c-2.676,2.93-3.99,4.413-6.57,7.413       c10.527,7.941,15.912,11.754,26.163,20.021c1.142,0.922,1.238,2.476,0.326,3.561c-1.215,1.444-1.818,2.173-3.017,3.644       c-0.902,1.104-2.483,1.345-3.655,0.459c-10.516-7.943-16.113-11.524-26.96-19.085c-2.468,3.077-3.654,4.622-5.973,7.796       c-0.944,1.293-2.662,1.723-3.842,0.956c-1.483-0.964-2.223-1.447-3.698-2.42c-1.226-0.811-1.362-2.5-0.396-3.826       c7.441-10.21,11.604-15.044,20.274-24.537c1.125-1.233,2.877-1.524,3.998-0.582       C141.992,156.337,142.667,156.901,144.019,158.026z"/>
				</g>
				<g>
					<path style="fill:#A44043;" d="M185.02,111.55c1.468-1.123,3.315-1.079,4.19,0.094c0.305,0.407,0.419,0.96,0.43,1.506       c0.259,10.061,0.458,15.083,1.367,24.85c4.385,5.533,6.558,8.313,10.981,13.851c0.911,1.142,0.7,2.704-0.383,3.6       c-1.446,1.194-2.163,1.795-3.586,3.007c-1.117,0.952-2.631,0.837-3.588-0.267c-4.645-5.349-6.947-8.018-11.585-13.334       c-9.38-2.642-14.243-3.737-24.246-5.549c-0.601-0.04-1.077-0.29-1.437-0.648c-1.038-1.03-0.799-2.83,0.497-4.033       c1.743-1.618,2.622-2.42,4.394-4.012c0.899-0.807,1.925-1.126,2.907-0.889c6.397,1.494,9.532,2.319,15.65,4.15       c-0.757-6.341-1.049-9.562-1.557-16.031c-0.086-0.992,0.39-1.943,1.336-2.689C182.231,113.697,183.157,112.976,185.02,111.55z"/>
				</g>
				<g>
					<path style="fill:#A44043;" d="M240.918,109.667c4.21,7.985,1.051,18.475-7.63,23.825c-8.681,5.351-19.075,3.25-24.048-4.199       c-2.794-4.185-4.18-6.282-7.002-10.447c-5.02-7.416-2.688-19.072,7.016-25.162c9.704-6.09,21.47-3.176,25.732,4.779       C237.379,102.932,238.554,105.18,240.918,109.667z M225.166,103.846c-1.866-3.276-6.753-4.683-10.831-2.132       c-4.014,2.509-4.988,7.573-2.996,10.759c2.671,4.277,3.98,6.432,6.624,10.727c1.938,3.144,6.654,4.48,10.405,2.16       c3.811-2.358,4.848-7.195,3.003-10.484C228.897,110.459,227.669,108.245,225.166,103.846z"/>
				</g>
				<g>
					<path style="fill:#A44043;" d="M286.002,89.28c3.472,8.814-0.013,19.128-10.635,23.398       c-10.624,4.273-20.863-0.428-25.077-8.926c-4.489-9.05-6.696-13.6-11.443-22.498c-0.662-1.242,0.051-2.787,1.582-3.495       c2.041-0.947,3.068-1.412,5.129-2.326c1.545-0.685,3.295-0.257,3.923,1.003c4.561,9.14,6.695,13.799,11.02,23.073       c2.113,4.536,6.338,6.185,10.907,4.345c5.053-2.035,5.926-6.509,4.251-10.462c-3.988-9.417-5.967-14.138-10.149-23.452       c-0.576-1.284,0.265-2.765,1.863-3.361c2.163-0.806,3.248-1.201,5.426-1.981c1.612-0.576,3.262-0.005,3.801,1.294       C280.458,75.196,282.304,79.895,286.002,89.28z"/>
				</g>
				<g>
					<path style="fill:#A44043;" d="M302.377,87.851c-0.863,0.276-1.7-0.057-1.955-0.781c-3.934-11.129-5.906-16.698-10.003-27.759       c-0.265-0.717,0.24-1.481,1.176-1.78c2.379-0.755,3.571-1.127,5.96-1.86c0.944-0.289,1.837,0.041,2.082,0.764       c3.789,11.164,5.639,16.764,9.3,27.97c0.237,0.729-0.234,1.47-1.095,1.735C305.655,86.813,304.562,87.155,302.377,87.851z        M302.304,97.735c-1.008-2.829,0.917-5.874,4.186-6.899c3.271-1.025,6.546,0.453,7.434,3.249       c0.868,2.733-0.948,5.814-4.05,6.789C306.706,101.87,303.312,100.562,302.304,97.735z"/>
				</g>
			</g>
		</g>
	</g>
</g>















</svg>
