<?xml version="1.0" encoding="iso-8859-1"?>
<!-- Generator: Adobe Illustrator 19.0.0, SVG Export Plug-In . SVG Version: 6.00 Build 0)  -->
<svg version="1.1" id="Layer_1" xmlns="http://www.w3.org/2000/svg" xmlns:xlink="http://www.w3.org/1999/xlink" x="0px" y="0px"
	 viewBox="0 0 512 512" style="enable-background:new 0 0 512 512;" xml:space="preserve">
<rect x="352" y="18.5" style="fill:#D0CDD2;" width="30" height="60"/>
<rect x="131" y="18.5" style="fill:#DFDFE1;" width="30" height="60"/>
<path style="fill:#F1F1F3;" d="M512,493.5H0v-430h512V493.5z"/>
<path style="fill:#FF642B;" d="M0,63.5v100h512v-100H0z"/>
<path style="fill:#DFDFE1;" d="M256,63.5v430h256v-430H256z"/>
<path style="fill:#E8120C;" d="M256,63.5v100h256v-100H256z"/>
<path style="fill:#FFAB15;" d="M301.774,337.633l44.045-42.933c-0.211-0.681-0.43-1.358-0.656-2.032l-60.874-8.845l-27.297-55.309
	c-0.331-0.003-0.661-0.013-0.993-0.013s-0.662,0.009-0.993,0.013l-27.297,55.309l-60.874,8.845
	c-0.226,0.674-0.445,1.351-0.656,2.032l44.045,42.933l-10.34,60.285c0.653,0.486,1.313,0.963,1.978,1.433L256,370.89l54.136,28.461
	c0.665-0.47,1.325-0.946,1.978-1.433L301.774,337.633z"/>
<path style="fill:#FF6848;" d="M345.819,294.7c-0.211-0.681-0.43-1.358-0.656-2.032l-60.874-8.845l-27.297-55.309
	c-0.331-0.003-0.661-0.013-0.993-0.013v142.39l54.136,28.461c0.665-0.47,1.325-0.946,1.978-1.433l-10.34-60.285L345.819,294.7z"/>
<g>
</g>
<g>
</g>
<g>
</g>
<g>
</g>
<g>
</g>
<g>
</g>
<g>
</g>
<g>
</g>
<g>
</g>
<g>
</g>
<g>
</g>
<g>
</g>
<g>
</g>
<g>
</g>
<g>
</g>
</svg>
