<svg id="Capa_1" enable-background="new 0 0 497 497" height="512" viewBox="0 0 497 497" width="512" xmlns="http://www.w3.org/2000/svg"><g><g><path d="m16.567 397.6v66.267c0 18.299 14.834 33.133 33.133 33.133h397.6c18.299 0 33.132-14.834 33.132-33.133v-66.267z" fill="#b5dbff"/><path d="m457.433 397.6v66.268c0 18.298-14.834 33.132-33.132 33.132h23c18.299 0 33.132-14.834 33.132-33.132v-66.268z" fill="#97d0ff"/><path d="m16.567 132.533v298.2c0 18.298 14.834 33.132 33.132 33.132h397.601c18.299 0 33.132-14.834 33.132-33.132v-298.2z" fill="#edf5ff"/><path d="m457.433 132.533v298.2c0 18.298-14.834 33.132-33.132 33.132h23c18.299 0 33.132-14.834 33.132-33.132v-298.2z" fill="#d5e8fe"/><path d="m480.433 149.1v-82.834c0-18.299-14.834-33.132-33.132-33.132h-397.601c-18.299 0-33.132 14.834-33.132 33.132v82.834z" fill="#ff435b"/><g><path d="m115.967 73.767h-16.567c-4.142 0-7.5-3.358-7.5-7.5s3.358-7.5 7.5-7.5h16.567c4.142 0 7.5 3.358 7.5 7.5s-3.358 7.5-7.5 7.5z" fill="#e3374e"/></g><g><path d="m165.667 73.767h-16.567c-4.142 0-7.5-3.358-7.5-7.5s3.358-7.5 7.5-7.5h16.566c4.142 0 7.5 3.358 7.5 7.5s-3.357 7.5-7.499 7.5z" fill="#e3374e"/></g><g><path d="m347.9 73.767h-16.566c-4.142 0-7.5-3.358-7.5-7.5s3.358-7.5 7.5-7.5h16.566c4.142 0 7.5 3.358 7.5 7.5s-3.358 7.5-7.5 7.5z" fill="#e3374e"/></g><g><path d="m397.6 73.767h-16.567c-4.142 0-7.5-3.358-7.5-7.5s3.358-7.5 7.5-7.5h16.567c4.142 0 7.5 3.358 7.5 7.5s-3.358 7.5-7.5 7.5z" fill="#e3374e"/></g><path d="m115.967 66.267c0 9.149 7.417 16.567 16.567 16.567s16.567-7.417 16.567-16.567v-49.7c-.001-9.15-7.418-16.567-16.568-16.567-9.149 0-16.567 7.417-16.567 16.567v49.7z" fill="#596c76"/><path d="m347.9 66.267c0 9.149 7.417 16.567 16.567 16.567s16.567-7.417 16.567-16.567v-49.7c0-9.15-7.417-16.567-16.567-16.567s-16.567 7.417-16.567 16.567z" fill="#596c76"/><g fill="#e3374e"><path d="m447.3 33.133h-23c18.299 0 33.132 14.834 33.132 33.132v82.835h23v-82.834c.001-18.299-14.833-33.133-33.132-33.133z"/><path d="m16.567 108.467h463.866v15h-463.866z"/></g></g><path d="m323.05 364.467h-149.1c-4.575 0-8.283-3.709-8.283-8.283v-20.939c0-2.572.599-5.108 1.749-7.409l13.069-26.138c1.15-2.3 1.749-4.837 1.749-7.409v-29.223c0-36.598 29.669-66.267 66.267-66.267 36.598 0 66.267 29.669 66.267 66.267v29.223c0 2.572.599 5.108 1.749 7.409l13.069 26.138c1.15 2.3 1.749 4.837 1.749 7.409v20.939c-.001 4.574-3.71 8.283-8.285 8.283z" fill="#ffda2d"/><g fill="#fdbf00"><path d="m329.585 327.836-13.069-26.138c-1.15-2.3-1.749-4.837-1.749-7.409v-29.223c0-36.598-29.669-66.267-66.267-66.267-3.925 0-7.763.361-11.5 1.015 31.113 5.447 54.767 32.578 54.767 65.252v29.223c0 2.572.599 5.108 1.749 7.409l13.069 26.138c1.15 2.3 1.749 4.837 1.749 7.409v20.939c0 4.575-3.709 8.283-8.283 8.283h23c4.575 0 8.283-3.709 8.283-8.283v-20.939c0-2.572-.599-5.109-1.749-7.409z"/><ellipse cx="248.5" cy="389.317" rx="24.85" ry="24.85" transform="matrix(.16 -.987 .987 .16 -175.595 572.247)"/><path d="m167.415 327.836c-1.15 2.3-1.749 4.837-1.749 7.409v3.589h165.667v-3.589c0-2.572-.599-5.109-1.749-7.409l-2.001-4.002h-158.166z"/></g></g></svg>