<svg xmlns="http://www.w3.org/2000/svg" xmlns:xlink="http://www.w3.org/1999/xlink" width="100" height="100" viewBox="0 0 100 100"><circle stroke="none" fill="#f1f2f2" r="48%" cx="50%" cy="50%"></circle><g transform="translate(50 50) scale(0.69 0.69) rotate(0) translate(-50 -50)" style="fill:#05224c"><svg fill="#05224c" xmlns="http://www.w3.org/2000/svg" xmlns:xlink="http://www.w3.org/1999/xlink" version="1.1" x="0px" y="0px" viewBox="0 0 16 16" style="enable-background:new 0 0 16 16;" xml:space="preserve"><path d="M5,5H2V2h3V5z M9.5,2h-3v3h3V2z M14,2h-3v3h3V2z M5,11H2v3h3V11z M9.5,11h-3v3h3V11z M14,11h-3v3h3V11z M5,6.5H2v3h3V6.5z   M9.5,6.5h-3v3h3V6.5z M14,6.5h-3v3h3V6.5z"></path></svg></g></svg>