<svg xmlns="http://www.w3.org/2000/svg" viewBox="0 0 1000 1000" width="100" height="100">
	<style>
		tspan { white-space:pre }
		.shp0 { fill: #0068ff } 
	</style>
	<path id="Layer" fill-rule="evenodd" class="shp0" d="M760 825L240 825C204.1 825 175 795.9 175 760L175 305.02C175 269.1 204.1 240 240 240L305 240L305 191.25C305 182.28 312.27 175 321.25 175C330.23 175 337.5 182.28 337.5 191.25L337.5 240L662.5 240L662.5 191.25C662.5 182.28 669.77 175 678.75 175C687.73 175 695 182.28 695 191.25L695 240L760 240C795.9 240 825 269.1 825 305.02L825 760C825 795.9 795.9 825 760 825ZM792.5 305.02C792.5 287.05 777.94 272.5 760 272.5L695 272.5L695 321.25C695 330.23 687.73 337.5 678.75 337.5C669.77 337.5 662.5 330.23 662.5 321.25L662.5 272.5L337.5 272.5L337.5 321.25C337.5 330.23 330.23 337.5 321.25 337.5C312.27 337.5 305 330.23 305 321.25L305 272.5L240 272.5C222.06 272.5 207.5 287.06 207.5 305.02L207.5 370L792.5 370L792.5 305.02ZM792.5 402.5L207.5 402.5L207.5 760C207.5 777.94 222.05 792.5 240 792.5L760 792.5C777.94 792.5 792.5 777.94 792.5 760L792.5 402.5ZM453.18 692.51C451.53 694.16 449.35 694.78 447.19 694.66C445.02 694.78 442.85 694.16 441.19 692.51L338.91 590.23C335.82 587.14 335.82 582.12 338.91 579.04L350.4 567.55C353.49 564.46 358.5 564.46 361.59 567.55L447.58 653.54L606.38 502.04C609.48 498.96 614.49 498.96 617.57 502.04L629.06 513.53C632.15 516.62 632.15 521.64 629.06 524.72L453.18 692.51Z" />
</svg>