<svg xmlns="http://www.w3.org/2000/svg" viewBox="0 0 100 100" width="100" height="100">
	<style>
		tspan { white-space:pre }
		.shp0 { fill: #dee4e7 } 
		.shp1 { fill: #05224c } 
	</style>
	<path id="Layer" class="shp0" d="M50 98C23.46 98 2 76.54 2 50C2 23.46 23.46 2 50 2C76.54 2 98 23.46 98 50C98 76.54 76.54 98 50 98Z" />
	<g id="Layer">
		<g id="Layer">
			<g id="Layer">
				<path id="Layer" class="shp1" d="M36.68 27.23C30.96 27.23 26.2 32.06 26.2 37.86C26.2 43.65 31.02 48.48 36.68 48.48C42.34 48.48 47.24 43.65 47.24 37.86C47.24 32.06 42.41 27.23 36.68 27.23L36.68 27.23Z" />
				<path id="Layer" class="shp1" d="M62.97 27.23C57.18 27.23 52.48 31.99 52.48 37.86C52.48 43.72 57.18 48.48 62.97 48.48C68.77 48.48 73.46 43.72 73.46 37.86C73.46 31.99 68.77 27.23 62.97 27.23L62.97 27.23Z" />
				<path id="Layer" class="shp1" d="M36.68 54.55C24.88 54.55 19.43 62.42 17.78 65.53C17.36 66.22 17.23 67.04 17.23 67.87L17.23 67.87C17.23 70.63 19.43 72.84 22.19 72.84L51.31 72.84C54.07 72.84 56.28 70.63 56.28 67.87L56.28 67.87C56.28 67.04 56.07 66.28 55.73 65.53C53.93 62.42 48.55 54.55 36.68 54.55L36.68 54.55Z" />
				<path id="Layer" class="shp1" d="M62.97 54.55C60.97 54.55 59.11 54.83 57.45 55.24C54.97 55.86 54 58.83 55.52 60.9C57.38 63.32 58.28 65.32 58.42 65.53L58.42 65.53C58.63 65.94 58.69 66.42 58.69 66.91L58.69 69.25C58.69 71.18 60.28 72.84 62.28 72.84L79.19 72.84C81.12 72.84 82.77 71.25 82.77 69.25L82.77 67.73C82.77 67.11 82.64 66.49 82.29 65.94C80.77 63.25 75.46 54.55 62.97 54.55L62.97 54.55Z" />
			</g>
		</g>
	</g>
</svg>