<svg xmlns="http://www.w3.org/2000/svg" viewBox="0 0 100 100" width="100" height="100">
	<style>
		tspan { white-space:pre }
		.shp0 { fill: #f1f2f2 } 
		.shp1 { fill: none } 
		.shp2 { fill: #05224c } 
	</style>
	<path id="Layer" class="shp0" d="M50 98C23.46 98 2 76.54 2 50C2 23.46 23.46 2 50 2C76.54 2 98 23.46 98 50C98 76.54 76.54 98 50 98Z" />
	<g id="Layer">
		<g id="Layer">
			<path id="Layer" class="shp1" d="M18.95 18.95L81.05 18.95L81.05 81.05L18.95 81.05L18.95 18.95Z" />
			<path id="Layer" fill-rule="evenodd" class="shp2" d="M81.01 50C81.01 54.18 80.19 58.25 78.57 62.07C77.01 65.76 74.77 69.08 71.93 71.93C69.08 74.77 65.76 77.01 62.07 78.57C58.25 80.19 54.19 81.01 50 81.01C45.81 81.01 41.75 80.19 37.93 78.57C34.24 77.01 30.92 74.77 28.07 71.93C25.22 69.08 22.99 65.76 21.43 62.07C19.81 58.25 18.99 54.18 18.99 50C18.99 45.81 19.81 41.75 21.43 37.93C22.99 34.24 25.23 30.92 28.07 28.07C30.92 25.23 34.24 22.99 37.93 21.43C41.75 19.81 45.81 18.99 50 18.99C54.19 18.99 58.24 19.81 62.07 21.43C65.76 22.99 69.08 25.23 71.93 28.07C74.77 30.92 77.01 34.24 78.57 37.93C80.19 41.75 81.01 45.81 81.01 50ZM54.86 68.31C54.86 65.63 52.68 63.45 50 63.45C47.32 63.45 45.14 65.63 45.14 68.31C45.14 70.99 47.32 73.17 50 73.17C52.68 73.17 54.86 70.99 54.86 68.31ZM63.06 39.89C63.06 38.12 62.71 36.41 62.03 34.8C61.37 33.25 60.43 31.85 59.23 30.65C58.04 29.46 56.64 28.51 55.08 27.86C53.47 27.17 51.76 26.83 50 26.83C48.24 26.83 46.53 27.17 44.91 27.86C43.36 28.51 41.96 29.46 40.77 30.65C39.57 31.85 38.63 33.25 37.97 34.8C37.29 36.41 36.94 38.13 36.94 39.89C36.94 40.1 37.11 40.27 37.33 40.27L42.95 40.27C43.16 40.27 43.33 40.1 43.33 39.89C43.33 36.21 46.32 33.22 50 33.22C53.68 33.22 56.66 36.21 56.66 39.89C56.66 41.97 55.71 43.9 54.06 45.17C53.84 45.35 53.6 45.5 53.36 45.65C53.33 45.66 53.3 45.68 53.27 45.69C53.26 45.7 53.24 45.71 53.23 45.72C49.26 47.85 46.8 51.95 46.8 56.45L46.8 58.68C46.8 58.89 46.97 59.06 47.19 59.06L52.81 59.06C53.02 59.06 53.19 58.89 53.19 58.68L53.19 56.45C53.19 54.3 54.38 52.34 56.28 51.34C56.32 51.31 56.37 51.29 56.41 51.26L56.44 51.24C56.49 51.22 56.54 51.19 56.58 51.17C57.06 50.89 57.52 50.58 57.96 50.24C59.51 49.05 60.79 47.49 61.67 45.75C62.59 43.92 63.06 41.95 63.06 39.89Z" />
		</g>
	</g>
</svg>