<svg xmlns="http://www.w3.org/2000/svg" xmlns:xlink="http://www.w3.org/1999/xlink" width="100" height="100" viewBox="0 0 100 100"><circle stroke="none" fill="#f1f2f2" r="48%" cx="50%" cy="50%"/><g transform="translate(50 50) scale(0.69 0.69) rotate(0) translate(-50 -50)" style="fill:#05224c"><svg fill="#05224c" xmlns:x="http://ns.adobe.com/Extensibility/1.0/" xmlns:i="http://ns.adobe.com/AdobeIllustrator/10.0/" xmlns:graph="http://ns.adobe.com/Graphs/1.0/" xmlns="http://www.w3.org/2000/svg" xmlns:xlink="http://www.w3.org/1999/xlink" version="1.1" x="0px" y="0px" viewBox="0 0 100 100" style="enable-background:new 0 0 100 100;" xml:space="preserve"><g><g i:extraneous="self"><g><path d="M60.9,44h16.2c2.7,0,4.9-2.2,4.9-4.9s-2.2-4.9-4.9-4.9h-4.5l20.1-20.1c1.9-1.9,1.9-5,0-6.9c-1.9-1.9-5-1.9-6.9,0     L65.7,27.4v-4.5c0-2.7-2.2-4.9-4.9-4.9c-2.7,0-4.9,2.2-4.9,4.9v16.2C56,41.8,58.2,44,60.9,44z"/><path d="M41.6,26c2.5-2.5,2.4-6.2,0-8.6L28.4,4.3c-2.2-2.2-5.7-2.4-8.2-0.4c-1.7,1.4-3.6,3-5.2,4.5l21.5,21.5     C38.6,28.5,40.6,27,41.6,26z"/><path d="M66,69.5c-3.2,4.4-9.5,4.9-13.3,1.1L29.4,47.3c-3.8-3.8-3.3-10.2,1.1-13.3c0,0,0.4-0.3,1.1-0.7L10.8,12.4     C-0.5,24.4-0.3,43.2,11.4,54.9l33.6,33.6c6,6,13.8,8.9,21.6,8.9c7.5,0,15-2.8,20.9-8.3L66.7,68.4C66.3,69.1,66,69.5,66,69.5z"/><path d="M95.7,71.6L82.5,58.4c-2.4-2.4-6-2.6-8.6,0c-1,1-2.5,3-3.9,5L91.6,85c1.5-1.6,3.1-3.5,4.5-5.2     C98.1,77.3,97.9,73.8,95.7,71.6z"/></g></g></g></svg></g></svg>