<svg version="1.0" xmlns="http://www.w3.org/2000/svg" viewBox="0 0 1200.000000 1200.000000" preserveAspectRatio="xMidYMid meet">

<g transform="translate(0.000000,1200.000000) scale(0.100000,-0.100000)" stroke="none" fill="#05224c">
<path d="M2568 9639 c-187 -27 -324 -92 -456 -214 -120 -111 -194 -238 -237 -410 l-25 -98 0 -2922 0 -2922 25 -99 c74 -298 297 -520 596 -595 l94 -24 3435 0 3435 0 85 23 c181 49 332 145 441 279 106 133 161 275 179 465 8 78 10 993 8 2963 l-3 2850 -27 97 c-82 299 -295 512 -588 590 l-85 23 -3410 1 c-1876 1 -3436 -2 -3467 -7z m6907 -521 c62 -32 129 -103 158 -166 20 -43 22 -66 25 -284 l4 -238 -3667 0 -3667 0 4 238 c3 217 6 241 25 284 40 86 125 162 213 189 14 4 1562 7 3440 6 l3415 -2 50 -27z m193 -3595 l-3 -2428 -22 -47 c-30 -64 -96 -134 -158 -166 l-50 -27 -3435 0 -3435 0 -50 27 c-62 32 -128 102 -158 166 l-22 47 -3 2428 -2 2427 3670 0 3670 0 -2 -2427z"/>
<path d="M3350 6917 c-76 -24 -160 -143 -160 -227 0 -90 85 -205 170 -228 35 -10 361 -12 1460 -10 l1415 3 42 22 c56 30 100 87 120 152 29 101 -15 216 -104 268 l-48 28 -1430 2 c-1029 1 -1440 -2 -1465 -10z"/>
<path d="M3367 5726 c-92 -33 -158 -111 -173 -203 -10 -66 19 -147 72 -199 82 -79 -24 -74 1528 -74 1562 0 1463 -5 1542 76 83 86 92 223 21 316 -18 23 -55 53 -82 67 l-49 26 -1411 2 c-1169 2 -1416 0 -1448 -11z"/>
<path d="M3343 4519 c-94 -36 -163 -148 -149 -245 11 -86 72 -165 155 -203 33 -15 258 -16 2641 -16 2200 0 2611 2 2644 14 62 22 133 94 151 154 19 65 19 88 -2 156 -12 36 -31 69 -55 93 -74 74 153 68 -2737 67 -2575 0 -2596 0 -2648 -20z"/>
</g>
</svg>