<svg xmlns="http://www.w3.org/2000/svg" xmlns:xlink="http://www.w3.org/1999/xlink" width="100" height="100" viewBox="0 0 100 100"><circle stroke="none" fill="#f1f2f2" r="48%" cx="50%" cy="50%"></circle><g transform="translate(50 50) scale(0.69 0.69) rotate(0) translate(-50 -50)" style="fill:#05224c"><svg fill="#05224c" xmlns:dc="http://purl.org/dc/elements/1.1/" xmlns:cc="http://creativecommons.org/ns#" xmlns:rdf="http://www.w3.org/1999/02/22-rdf-syntax-ns#" xmlns:svg="http://www.w3.org/2000/svg" xmlns="http://www.w3.org/2000/svg" xmlns:sodipodi="http://sodipodi.sourceforge.net/DTD/sodipodi-0.dtd" xmlns:inkscape="http://www.inkscape.org/namespaces/inkscape" version="1.1" x="0px" y="0px" viewBox="0 0 100 100"><g transform="translate(0,-952.36218)"><path style="text-indent:0;text-transform:none;direction:ltr;block-progression:tb;baseline-shift:baseline;color:#000000;enable-background:accumulate;" d="m 30.031201,959.36218 c -1.1045,0 -2,0.8955 -2,2 l 0,17 c 0,1.1046 0.8955,2 2,2 1.1046,0 2,-0.8954 2,-2 l 0,-17 c 0,-1.1045 -0.8954,-2 -2,-2 z m 39.999998,0 c -1.104501,0 -1.999997,0.8955 -1.999997,2 l 0,17 c 0,1.1046 0.895497,2 1.999997,2 1.1046,0 2,-0.8954 2,-2 l 0,-17 c 0,-1.1045 -0.8954,-2 -2,-2 z m -53.999998,6 c -4.4455,0 -8.0311995,3.5855 -8.0311995,8.0313 l 0,17.9687 83.9999965,0 0,-17.9687 c 0,-4.4458 -3.5858,-8.0313 -8.0312,-8.0313 l -5.9688,0 -3.9688,0 0,8.5313 c 1.2268,1.0986 2,2.6925 2,4.4687 0,3.3137 -2.686,6 -6,6 -3.313497,0 -5.999997,-2.6863 -5.999997,-6 0,-1.7762 0.7736,-3.3701 2,-4.4687 l 0,-8.5313 -32.0312,0 0,8.5 c 1.2457,1.0994 2.0312,2.7079 2.0312,4.5 0,3.3137 -2.686,6 -6,6 -3.3135,0 -6,-2.6863 -6,-6 0,-1.7604 0.7612,-3.3399 1.9688,-4.4375 l 0,-8.5625 z m -8.0311995,30 0,41.96872 c 0,4.4458 3.5855995,8.0313 8.0311995,8.0313 l 67.937598,0 c 4.4454,0 8.0312,-3.5855 8.0312,-8.0313 l 0,-41.96872 z" fill="#05224c" fill-opacity="1" stroke="none" marker="none" visibility="visible" display="inline" overflow="visible"></path></g></svg></g></svg>