<svg xmlns="http://www.w3.org/2000/svg" xmlns:xlink="http://www.w3.org/1999/xlink" width="100" height="100" viewBox="0 0 100 100"><circle stroke="none" fill="#f1f2f2" r="48%" cx="50%" cy="50%"></circle><g transform="translate(50 50) scale(0.69 0.69) rotate(0) translate(-50 -50)" style="fill:#05224c"><svg fill="#05224c" xmlns:x="http://ns.adobe.com/Extensibility/1.0/" xmlns:i="http://ns.adobe.com/AdobeIllustrator/10.0/" xmlns:graph="http://ns.adobe.com/Graphs/1.0/" xmlns="http://www.w3.org/2000/svg" xmlns:xlink="http://www.w3.org/1999/xlink" version="1.1" x="0px" y="0px" viewBox="0 0 100 100" style="enable-background:new 0 0 100 100;" xml:space="preserve"><g><g i:extraneous="self"><g><path d="M21.3,97.5h57.4c2.8,0,5.1-2.4,4.9-5.3l-4.9-60.9c-0.2-2.5-2.3-4.5-4.8-4.5h-3.5v11c0,3.8-3.1,6.9-6.9,6.9     c-3.8,0-6.9-3.1-6.9-6.9v-11h-13v11c0,3.8-3.1,6.9-6.9,6.9c-3.8,0-6.9-3.1-6.9-6.9v-11h-3.5c-2.5,0-4.7,1.9-4.9,4.5l-4.9,60.9     C16.2,95.1,18.4,97.5,21.3,97.5z"></path><path d="M36.6,41.3c1.9,0,3.4-1.5,3.4-3.4V19.3c0-5.5,4.5-9.9,9.9-9.9c5.5,0,9.9,4.5,9.9,9.9v18.5c0,1.9,1.5,3.4,3.4,3.4     c1.9,0,3.4-1.5,3.4-3.4V19.3C66.8,10,59.3,2.5,50,2.5c-9.3,0-16.8,7.5-16.8,16.8v18.5C33.2,39.7,34.7,41.3,36.6,41.3z"></path></g></g></g></svg></g></svg>