<svg height='100px' width='100px'  fill="#ffffff" xmlns="http://www.w3.org/2000/svg" data-name="Layer 1" viewBox="0 0 100 100" x="0px" y="0px"><title>A_25</title><path d="M95,50a4.49991,4.49991,0,0,1-4.5,4.5H46.7002a4.5,4.5,0,1,1,0-9H90.5A4.49991,4.49991,0,0,1,95,50ZM9.5,54.5H26.31982a4.5,4.5,0,0,0,0-9H9.5a4.5,4.5,0,0,0,0,9Zm81-39H46.7002a4.5,4.5,0,1,0,0,9H90.5a4.5,4.5,0,0,0,0-9Zm-81,9H26.31982a4.5,4.5,0,0,0,0-9H9.5a4.5,4.5,0,0,0,0,9Zm81,51H46.7002a4.5,4.5,0,1,0,0,9H90.5a4.5,4.5,0,0,0,0-9Zm-81,9H26.31982a4.5,4.5,0,0,0,0-9H9.5a4.5,4.5,0,0,0,0,9Z"></path></svg>