<svg height='100px' width='100px'  fill="#0068ff" xmlns:dc="http://purl.org/dc/elements/1.1/" xmlns:cc="http://creativecommons.org/ns#" xmlns:rdf="http://www.w3.org/1999/02/22-rdf-syntax-ns#" xmlns:svg="http://www.w3.org/2000/svg" xmlns="http://www.w3.org/2000/svg" xmlns:sodipodi="http://sodipodi.sourceforge.net/DTD/sodipodi-0.dtd" xmlns:inkscape="http://www.inkscape.org/namespaces/inkscape" version="1.1" x="0px" y="0px" viewBox="0 0 100 100"><g transform="translate(0,-952.36218)"><path style="color:#000000;enable-background:accumulate;" d="m 43,970.36217 c -17.6731,0 -32,14.3269 -32,32.00003 0,17.6731 14.3269,32 32,32 6.8063,0 13.1261,-2.1274 18.3125,-5.75 -0.53,-0.8766 -0.9879,-1.8054 -1.3437,-2.7812 -4.7712,3.463 -10.6217,5.5312 -16.9688,5.5312 -8.2704,0 -15.717,-3.4777 -21,-9.0312 l 0,-5.9688 c 0,-6.8941 9.366,-12 21,-12 8.4084,0 15.6094,2.6683 18.9688,6.75 2.8888,-4.0575 7.6133,-6.7292 12.9687,-6.75 0.041,-0.659 0.062,-1.3308 0.062,-2 0,-17.67313 -14.3269,-32.00003 -32,-32.00003 z m 0,8 c 5.5228,0 10,4.4772 10,10 0,5.5228 -4.4772,10 -10,10 -5.5228,0 -10,-4.4772 -10,-10 0,-5.5228 4.4772,-10 10,-10 z m 32,28.00003 c -7.732,0 -14,6.268 -14,14 0,3.1581 1.0485,6.064 2.8125,8.4062 l 19.5625,-19.5937 c -2.3388,-1.7548 -5.226,-2.8125 -8.375,-2.8125 z m 11.1875,5.5938 -19.5625,19.5937 c 2.3388,1.7548 5.226,2.8125 8.375,2.8125 7.732,0 14,-6.268 14,-14 0,-3.1581 -1.0485,-6.064 -2.8125,-8.4062 z" fill="#0068ff" stroke="none" marker="none" visibility="visible" display="inline" overflow="visible"></path></g></svg>