<svg height='100px' width='100px'  fill="#05224c" xmlns:x="http://ns.adobe.com/Extensibility/1.0/" xmlns:i="http://ns.adobe.com/AdobeIllustrator/10.0/" xmlns:graph="http://ns.adobe.com/Graphs/1.0/" xmlns="http://www.w3.org/2000/svg" xmlns:xlink="http://www.w3.org/1999/xlink" version="1.1" x="0px" y="0px" viewBox="0 0 100 100" enable-background="new 0 0 100 100" xml:space="preserve"><metadata><sfw xmlns="http://ns.adobe.com/SaveForWeb/1.0/"><slices></slices><sliceSourceBounds width="1447.7" height="1447.2" x="1" y="-1448.3" bottomLeftOrigin="true"></sliceSourceBounds></sfw></metadata><path d="M50.2,3.2c-15.5,0-28.1,12.6-28.1,28.1v9.8h-0.7c-4.1,0-7.4,3.3-7.4,7.4v40.9c0,4.1,3.3,7.4,7.4,7.4h57  c4.1,0,7.4-3.3,7.4-7.4V48.5c0-4.1-3.3-7.4-7.4-7.4h-0.2v-9.8C78.3,15.8,65.7,3.2,50.2,3.2z M34.4,31.3c0-8.7,7.1-15.8,15.8-15.8  c8.7,0,15.8,7.1,15.8,15.8v9.8H34.4V31.3z M51.4,77.4l-5.9,5.9l-5.9-5.9L32,69.8l5.9-5.9l7.6,7.6l16.6-16.6l5.9,5.9L51.4,77.4z"></path></svg>