<svg width="100" height="100" viewBox="0 0 100 100" fill="none" xmlns="http://www.w3.org/2000/svg">
<g clip-path="url(#clip0)">
<path d="M50.02 100.02C77.6343 100.02 100.02 77.6343 100.02 50.02C100.02 22.4058 77.6343 0.0200195 50.02 0.0200195C22.4058 0.0200195 0.0200195 22.4058 0.0200195 50.02C0.0200195 77.6343 22.4058 100.02 50.02 100.02Z" fill="#f1f2f2"/>
<g clip-path="url(#clip1)">
<path d="M79.67 45.653H33.647L46.964 32.336C48.689 30.611 48.689 27.851 46.964 26.195C46.136 25.367 45.032 24.953 43.859 24.953C42.686 24.953 41.582 25.436 40.754 26.264L20.054 47.033C18.329 48.758 18.329 51.518 20.054 53.174L40.754 73.943C41.582 74.771 42.686 75.185 43.859 75.185C45.032 75.185 46.136 74.771 46.964 73.943C47.792 73.115 48.275 72.011 48.275 70.838C48.275 69.665 47.792 68.561 47.033 67.733L33.647 54.347H79.67C82.085 54.347 84.017 52.415 84.017 50C84.017 47.585 82.085 45.653 79.67 45.653Z" fill="#05224C"/>
</g>
</g>
<defs>
<clipPath id="clip0">
<rect width="100" height="100" fill="white"/>
</clipPath>
<clipPath id="clip1">
<rect x="15.5" y="15.5" width="69" height="69" fill="white"/>
</clipPath>
</defs>
</svg>