<svg xmlns="http://www.w3.org/2000/svg" xmlns:xlink="http://www.w3.org/1999/xlink" width="100" height="100" viewBox="0 0 100 100"><circle stroke="none" fill="#0068ff" r="48%" cx="50%" cy="50%"></circle><g transform="translate(50 50) scale(0.69 0.69) rotate(0) translate(-50 -50)" style="fill:#ffffff"><svg fill="#ffffff" xmlns="http://www.w3.org/2000/svg" xmlns:xlink="http://www.w3.org/1999/xlink" version="1.1" x="0px" y="0px" viewBox="0 0 30 30" enable-background="new 0 0 30 30" xml:space="preserve"><g><path d="M12.8,21L12.8,21c-0.4,0-0.8-0.2-1-0.5l-3.4-4c-0.5-0.6-0.5-1.6,0.1-2.1c0.6-0.6,1.5-0.5,2,0.1l2.4,2.8l6.7-7.8   c0.5-0.6,1.4-0.6,2-0.1c0.6,0.6,0.6,1.5,0.1,2.1l-7.8,9C13.6,20.8,13.2,21,12.8,21z"></path></g></svg></g></svg>