<svg xmlns="http://www.w3.org/2000/svg" xmlns:xlink="http://www.w3.org/1999/xlink" width="100" height="100" viewBox="0 0 100 100"><circle stroke="none" fill="#f1f2f2" r="48%" cx="50%" cy="50%"/><g transform="translate(50 50) scale(0.69 0.69) rotate(0) translate(-50 -50)" style="fill:#05224c"><svg fill="#05224c" xmlns="http://www.w3.org/2000/svg" xmlns:xlink="http://www.w3.org/1999/xlink" xml:space="preserve" style="shape-rendering:geometricPrecision;text-rendering:geometricPrecision;image-rendering:optimizeQuality;" viewBox="0 0 0.236425 0.301704" x="0px" y="0px" fill-rule="evenodd" clip-rule="evenodd"><defs><style type="text/css">
   
    .fil0 {fill:#05224c}
   
  </style></defs><g><path class="fil0" d="M0.110116 0.107416l0 0.132604c0.000114171,0.0319995 -0.02135,0.0528141 -0.0431253,0.0588494 -0.0305231,0.00845655 -0.060121,-0.00269681 -0.0659753,-0.0244248 -0.0058503,-0.021728 0.0142006,-0.046015 0.0447867,-0.054255 0.0138305,-0.00372435 0.0274444,-0.0035275 0.0387513,-0.000188973l0 -0.167151c0.0506291,-0.0176178 0.101246,-0.0352396 0.151868,-0.0528495l0 0.193005c0.000118108,0.0319995 -0.02135,0.052818 -0.0431253,0.0588494 -0.0305231,0.00846049 -0.060121,-0.00269681 -0.0659713,-0.0244209 -0.00585423,-0.0217319 0.0142006,-0.0460189 0.0447827,-0.0542589 0.0138305,-0.00372041 0.0274444,-0.0035275 0.0387513,-0.000185036l0 -0.100628 -0.100742 0.0350545z"/></g></svg></g></svg>