<svg xmlns="http://www.w3.org/2000/svg" xmlns:xlink="http://www.w3.org/1999/xlink" width="100" height="100" viewBox="0 0 100 100"><circle stroke="none" fill="#f1f2f2" r="48%" cx="50%" cy="50%"></circle><g transform="translate(50 50) scale(0.69 0.69) rotate(0) translate(-50 -50)" style="fill:#05224c"><svg fill="#05224c" xmlns="http://www.w3.org/2000/svg" viewBox="0 0 64 64" x="0px" y="0px"><g data-name="Layer 5"><path d="M16.24,25.89V42.7a3,3,0,0,0,3,3H44.73a3,3,0,0,0,3-3V25.89a3,3,0,0,0-3-3h-3l-.86-2.51A3,3,0,0,0,38,18.27H26a3,3,0,0,0-2.87,2.07l-.86,2.52h-3A3,3,0,0,0,16.24,25.89Zm3,0h3a3,3,0,0,0,2.87-2.07L26,21.27l12.09,0,.83,2.5a3,3,0,0,0,2.87,2.07l3,0,0,16.84-25.49,0Z"></path><path d="M23.28,33c.45,11.57,17,11.56,17.44,0C40.27,21.43,23.73,21.43,23.28,33ZM32,38.72c-7.56-.24-7.57-11.21,0-11.45C39.56,27.51,39.57,38.48,32,38.72Z"></path><path d="M58.5,31.88a26.86,26.86,0,0,1-.76,6.46,1.5,1.5,0,0,0,2.91.72,29.82,29.82,0,0,0,.85-7.18A1.5,1.5,0,0,0,58.5,31.88Z"></path><path d="M35.11,5.68a37.67,37.67,0,0,1,6.73,1.6,1.5,1.5,0,0,0,.53-2.9A29.31,29.31,0,0,0,35.46,2.7,1.5,1.5,0,0,0,35.11,5.68Z"></path><path d="M22,7.34A38.87,38.87,0,0,1,28.72,5.7a1.5,1.5,0,0,0-.36-3,29.19,29.19,0,0,0-6.9,1.72A1.5,1.5,0,0,0,22,7.34Z"></path><path d="M57.71,25.56a1.5,1.5,0,0,0,2.91-.73,29.22,29.22,0,0,0-2.55-6.64,1.5,1.5,0,0,0-2.65,1.41A26.42,26.42,0,0,1,57.71,25.56Z"></path><path d="M4.79,26.86a1.5,1.5,0,0,0,1.46-1.15,26.09,26.09,0,0,1,2.25-6,1.5,1.5,0,0,0-2.66-1.39A30,30,0,0,0,3.33,25,1.51,1.51,0,0,0,4.79,26.86Z"></path><path d="M55.47,44.31a26.64,26.64,0,0,1-3.63,5.26,1.5,1.5,0,1,0,2.25,2,29.54,29.54,0,0,0,4-5.84A1.5,1.5,0,0,0,55.47,44.31Z"></path><path d="M32,58.5c-1.57.25-4.4-1.13-4.84,1.13C27.08,62,30.43,61.3,32,61.5c1.59-.21,5,.54,4.88-1.89C36.45,57.35,33.59,58.76,32,58.5Z"></path><path d="M47.07,53.8a26.55,26.55,0,0,1-5.65,3,1.5,1.5,0,0,0,.53,2.9,23.33,23.33,0,0,0,6.82-3.41A1.5,1.5,0,0,0,47.07,53.8Z"></path><path d="M52.89,14.86A1.51,1.51,0,0,0,54,12.36a30.18,30.18,0,0,0-5.33-4.7A1.5,1.5,0,0,0,47,10.14a26,26,0,0,1,4.79,4.22A1.51,1.51,0,0,0,52.89,14.86Z"></path><path d="M15.18,7.76a29.87,29.87,0,0,0-5.31,4.73,1.5,1.5,0,0,0,2.25,2,26.78,26.78,0,0,1,4.77-4.25A1.5,1.5,0,0,0,15.18,7.76Z"></path><path d="M22.63,56.8a26.51,26.51,0,0,1-5.65-3,1.5,1.5,0,0,0-1.71,2.47,23.36,23.36,0,0,0,6.83,3.4A1.5,1.5,0,0,0,22.63,56.8Z"></path><path d="M8.55,44.36a1.5,1.5,0,0,0-2.65,1.4,29.59,29.59,0,0,0,4,5.84,1.5,1.5,0,0,0,2.24-2A26.68,26.68,0,0,1,8.55,44.36Z"></path><path d="M6.28,38.39a25.88,25.88,0,0,1-.78-6.33,1.5,1.5,0,0,0-3,0,29.26,29.26,0,0,0,.86,7,1.5,1.5,0,0,0,2.92-.72Z"></path></g></svg></g></svg>