<svg xmlns="http://www.w3.org/2000/svg" xmlns:xlink="http://www.w3.org/1999/xlink" width="100" height="100" viewBox="0 0 100 100"><circle stroke="none" fill="#f1f2f2" r="48%" cx="50%" cy="50%"></circle><g transform="translate(50 50) scale(0.69 0.69) rotate(0) translate(-50 -50)" style="fill:#05224c"><svg fill="#05224c" xmlns="http://www.w3.org/2000/svg" xmlns:xlink="http://www.w3.org/1999/xlink" version="1.1" x="0px" y="0px" viewBox="0 0 34 34" enable-background="new 0 0 34 34" xml:space="preserve"><g><path d="M33,21v2.29c0,2.31-0.78,4.46-2.2,6.07c-0.44,0.48-0.88,0.92-1.38,1.36c-1.45,1.18-2.77,1.82-3.63,2.14   C25.6,32.95,25.32,33,25.03,33c-0.15,0-0.52-0.01-0.86-0.15c-0.84-0.3-2.17-0.93-3.56-2.11c-0.51-0.43-0.96-0.88-1.41-1.36   c-1.43-1.63-2.21-3.78-2.21-6.09V21c0-1.19,0.92-2.15,2.1-2.19c1.8-0.05,3.15-0.7,4.15-1.99c0.84-1.05,2.59-1.03,3.4-0.02   c1.01,1.29,2.44,1.96,4.25,2.01C32.08,18.85,33,19.81,33,21z"></path><path d="M8.995,7c0-3.306,2.694-6,6-6c3.305,0,6,2.694,6,6c0,3.305-2.695,6-6,6C11.689,13,8.995,10.305,8.995,7z   "></path><path d="M19.64,31.88c0.52,0.45,1.03,0.82,1.51,1.12H6.26C3.38,33,1.02,30.7,1,27.87v-0.14   C1,20.16,7.16,14,14.74,14c2.6,0,5.09,0.72,7.25,1.98c-0.72,0.89-1.63,1.29-2.95,1.33C17.05,17.38,15.49,19,15.49,21v2.29   c0,2.67,0.92,5.18,2.62,7.12C18.68,31.02,19.15,31.47,19.64,31.88z"></path></g></svg></g></svg>