<svg xmlns="http://www.w3.org/2000/svg" xmlns:xlink="http://www.w3.org/1999/xlink" width="100" height="100" viewBox="0 0 100 100"><circle stroke="none" fill="#f8b116" r="48%" cx="50%" cy="50%"/><g transform="translate(50 50) scale(0.69 0.69) rotate(0) translate(-50 -50)" style="fill:#ffffff"><svg fill="#ffffff" xmlns="http://www.w3.org/2000/svg" data-name="Layer 1" viewBox="0 0 100 100" x="0px" y="0px"><title>12</title><path d="M73.03926,81.252a6.18145,6.18145,0,0,1-6.25714-7.314,8.74545,8.74545,0,0,1,8.371-7.31416,6.18159,6.18159,0,0,1,6.25714,7.31416A8.74533,8.74533,0,0,1,73.03926,81.252Zm-41.78366-7.314a6.18163,6.18163,0,0,0-6.25714-7.31416,8.74545,8.74545,0,0,0-8.371,7.31416,6.18151,6.18151,0,0,0,6.25714,7.314A8.74544,8.74544,0,0,0,31.2556,73.93805ZM5.032,43.96532a3.05343,3.05343,0,0,1,3.02209-2.6168H36.31427a2.545,2.545,0,0,0,2.53144-2.80677,2.64419,2.64419,0,0,0-2.67625-2.28234l-20.55888-.09386a3.05347,3.05347,0,1,1,0-6.10693l32.91754.09387a2.545,2.545,0,0,0,2.53145-2.80678,2.64421,2.64421,0,0,0-2.67626-2.28233H15.27139l.31148-2.15566a4.97391,4.97391,0,0,1,4.761-4.15975H70.95591a3.51563,3.51563,0,0,1,3.55871,4.15975L72.99534,33.4209H83.90952a5.06527,5.06527,0,0,1,4.71457,3.258l5.69474,14.83332a10.25207,10.25207,0,0,1,.57575,5.14117L92.96486,70.00729a3.58139,3.58139,0,0,1-3.42813,2.99532H85.23945a9.25223,9.25223,0,0,0-8.621-10.07733c-6.00529-.514-12.00257,3.99774-13.39518,10.07733H35.08573a9.25241,9.25241,0,0,0-8.62614-10.08316c-6.006-.51115-12.00145,4.00332-13.39095,10.08316H11.339a2.5315,2.5315,0,0,1-2.56244-2.99532l2.52349-17.46274H24.10042a2.5449,2.5449,0,0,0,2.53138-2.80677,2.64409,2.64409,0,0,0-2.67619-2.28233H8.05408A3.05346,3.05346,0,0,1,5.032,43.96532Zm64.996,9.99017,21.1388.04373L85.12359,38.00109a1.30424,1.30424,0,0,0-1.21407-.83853H72.45468Z"/></svg></g></svg>