<?xml version="1.0" standalone="no"?>
<!DOCTYPE svg PUBLIC "-//W3C//DTD SVG 20010904//EN"
 "http://www.w3.org/TR/2001/REC-SVG-20010904/DTD/svg10.dtd">
<svg version="1.0" xmlns="http://www.w3.org/2000/svg"
 width="35" height="35" viewBox="0 0 210.000000 210.000000"
 preserveAspectRatio="xMidYMid meet">
<g transform="translate(0.000000,210.000000) scale(0.100000,-0.100000)"
fill="#fff" stroke="none">
<path d="M440 1538 c-19 -13 -43 -39 -54 -58 -20 -33 -21 -53 -24 -445 -4
-408 -4 -410 18 -438 49 -62 47 -62 470 -62 l385 0 42 28 c63 44 113 130 113
198 0 16 2 29 5 29 3 0 59 -34 124 -75 131 -84 171 -97 201 -70 19 17 20 32
20 365 0 256 -3 349 -12 358 -23 23 -59 11 -205 -68 l-148 -80 -5 123 c-6 139
-15 162 -77 193 -35 18 -68 19 -429 22 l-390 3 -34 -23z m554 -267 c30 -10 75
-33 101 -51 70 -48 165 -150 165 -177 0 -39 -115 -144 -206 -189 -75 -37 -82
-39 -178 -39 -96 0 -104 2 -164 34 -68 37 -202 170 -202 200 0 25 101 133 159
170 108 70 223 88 325 52z"/>
<path d="M793 1194 c-98 -50 -97 -216 2 -283 29 -20 44 -23 95 -19 49 4 65 9
91 34 42 40 59 75 59 124 0 51 -20 98 -54 130 -35 32 -143 40 -193 14z"/>
</g>
</svg>
