<svg width="25" height="25" viewBox="0 0 25 25" fill="none" xmlns="http://www.w3.org/2000/svg">
<path d="M10.4165 25C8.26349 25 6.51025 23.2479 6.51025 21.0938C6.51025 20.6625 6.86025 20.3125 7.2915 20.3125C7.72276 20.3125 8.07275 20.6625 8.07275 21.0938C8.07275 22.3866 9.12485 23.4375 10.4165 23.4375C11.7082 23.4375 12.7603 22.3866 12.7603 21.0938C12.7603 20.6625 13.1103 20.3125 13.5415 20.3125C13.9728 20.3125 14.3228 20.6625 14.3228 21.0938C14.3228 23.2479 12.5697 25 10.4165 25V25Z" fill="#050505"/>
<path d="M19.0104 21.875H1.82285C0.81768 21.875 0 21.0573 0 20.0521C0 19.5186 0.232315 19.0136 0.637436 18.6666C0.663567 18.6437 0.691605 18.623 0.720787 18.6041C2.24991 17.2697 3.125 15.3499 3.125 13.3228V10.4166C3.125 7.02398 5.42393 4.11146 8.71563 3.33326C9.13639 3.23637 9.55734 3.49367 9.65633 3.91462C9.75513 4.33443 9.49478 4.75519 9.07612 4.85418C6.49166 5.46453 4.6875 7.75202 4.6875 10.4166V13.3228C4.6875 15.8396 3.58429 18.2209 1.66359 19.8551C1.64795 19.8677 1.63441 19.8791 1.61762 19.8906C1.58958 19.9261 1.5625 19.9802 1.5625 20.0521C1.5625 20.1937 1.68133 20.3125 1.82285 20.3125H19.0104C19.1521 20.3125 19.2709 20.1937 19.2709 20.0521C19.2709 19.9791 19.2438 19.9261 19.2146 19.8906C19.199 19.8791 19.1843 19.8677 19.1698 19.8551C18.2365 19.0594 17.4999 18.099 16.9813 17C16.7959 16.6103 16.9624 16.1447 17.3531 15.9593C17.7469 15.774 18.2083 15.9428 18.3928 16.3322C18.8051 17.2031 19.3832 17.9678 20.1145 18.6073C20.1416 18.626 20.1698 18.6458 20.1937 18.6666C20.6011 19.0136 20.8334 19.5186 20.8334 20.0521C20.8334 21.0573 20.0157 21.875 19.0104 21.875V21.875Z" fill="#050505"/>
<path d="M18.2292 13.5416C14.4959 13.5416 11.4585 10.5042 11.4585 6.7709C11.4585 3.03745 14.4959 0 18.2292 0C21.9626 0 25.0001 3.03745 25.0001 6.7709C25.0001 10.5042 21.9626 13.5416 18.2292 13.5416V13.5416ZM18.2292 1.5625C15.3573 1.5625 13.021 3.899 13.021 6.7709C13.021 9.64279 15.3573 11.9791 18.2292 11.9791C21.1011 11.9791 23.4376 9.64279 23.4376 6.7709C23.4376 3.899 21.1011 1.5625 18.2292 1.5625V1.5625Z" fill="#050505"/>
<path d="M18.4896 9.89592C18.0584 9.89592 17.7084 9.54592 17.7084 9.11467V5.72913H17.1875C16.7562 5.72913 16.4062 5.37913 16.4062 4.94788C16.4062 4.51662 16.7562 4.16663 17.1875 4.16663H18.4896C18.9209 4.16663 19.2709 4.51662 19.2709 4.94788V9.11467C19.2709 9.54592 18.9209 9.89592 18.4896 9.89592V9.89592Z" fill="#050505"/>
</svg>
