<svg width="25" height="25" viewBox="0 0 25 25" fill="none" xmlns="http://www.w3.org/2000/svg">
<path d="M6.25 23.4375C6.13516 23.4375 6.01953 23.4117 5.91094 23.3602C5.64141 23.2297 5.46875 22.957 5.46875 22.6562V18.75H3.125C1.83281 18.75 0.78125 17.6984 0.78125 16.4062V3.90625C0.78125 2.61406 1.83281 1.5625 3.125 1.5625H21.875C23.1672 1.5625 24.2188 2.61406 24.2188 3.90625V16.4062C24.2188 17.6984 23.1672 18.75 21.875 18.75H12.3836L6.73828 23.2664C6.59688 23.3797 6.42422 23.4375 6.25 23.4375ZM3.125 3.125C2.69375 3.125 2.34375 3.47578 2.34375 3.90625V16.4062C2.34375 16.8367 2.69375 17.1875 3.125 17.1875H6.25C6.68203 17.1875 7.03125 17.5367 7.03125 17.9688V21.0313L11.6211 17.3586C11.7602 17.2477 11.9312 17.1875 12.1094 17.1875H21.875C22.3062 17.1875 22.6562 16.8367 22.6562 16.4062V3.90625C22.6562 3.47578 22.3062 3.125 21.875 3.125H3.125Z" fill="#050505"/>
<path d="M18.75 9.375H6.25C5.81797 9.375 5.46875 9.025 5.46875 8.59375C5.46875 8.1625 5.81797 7.8125 6.25 7.8125H18.75C19.182 7.8125 19.5312 8.1625 19.5312 8.59375C19.5312 9.025 19.182 9.375 18.75 9.375Z" fill="#050505"/>
<path d="M12.5 12.5H6.25C5.81797 12.5 5.46875 12.15 5.46875 11.7188C5.46875 11.2875 5.81797 10.9375 6.25 10.9375H12.5C12.932 10.9375 13.2812 11.2875 13.2812 11.7188C13.2812 12.15 12.932 12.5 12.5 12.5Z" fill="#050505"/>
</svg>
