<svg width="27" height="27" viewBox="0 0 27 27" fill="none" xmlns="http://www.w3.org/2000/svg">
<g clip-path="url(#clip0_1290_966)">
<path d="M26.9058 15.0699L23.3896 7.50361C23.2685 7.29202 23.036 7.16967 22.793 7.18968H19.7791C19.4323 7.18968 19.1512 7.4708 19.1512 7.81759C19.1512 8.16439 19.4323 8.4455 19.7791 8.4455H22.3849L25.3047 14.7246H21.7256C20.1029 14.7166 18.627 15.6635 17.9582 17.142C17.4737 18.159 16.4474 18.8065 15.3209 18.806H11.6791C10.5526 18.8065 9.52637 18.159 9.04184 17.142C8.37295 15.6635 6.89714 14.7166 5.27439 14.7246H1.75813L5.2116 8.4455H7.22092C7.56771 8.4455 7.84883 8.16439 7.84883 7.81759C7.84883 7.4708 7.56771 7.18968 7.22092 7.18968H4.83488C4.60797 7.16817 4.38869 7.27784 4.26977 7.47224L0.125594 15.0699C0.0529416 15.1343 0.00793223 15.2242 0 15.3211V23.1385C0.0499971 24.8981 1.47371 26.308 3.23371 26.3408H23.7663C25.5263 26.308 26.95 24.8981 27 23.1385V15.3211C26.9881 15.2312 26.9559 15.1453 26.9058 15.0699Z" fill="#0068FF"/>
<path d="M13.0605 15.1954C13.2832 15.4381 13.6606 15.4544 13.9033 15.2316C13.9159 15.2201 13.928 15.2079 13.9395 15.1954L18.2093 10.8942C18.4173 10.6167 18.3611 10.2232 18.0837 10.0151C17.8605 9.84766 17.5534 9.84766 17.3302 10.0151L14.1279 13.2174V1.28721C14.1279 0.940416 13.8467 0.659302 13.4999 0.659302C13.1532 0.659302 12.872 0.940416 12.872 1.28721V13.2175L9.6697 10.0151C9.39225 9.8071 8.9987 9.86328 8.7906 10.1407C8.62318 10.364 8.62318 10.671 8.7906 10.8942L13.0605 15.1954Z" fill="#0068FF"/>
</g>
<defs>
<clipPath id="clip0_1290_966">
<rect width="27" height="27" fill="white"/>
</clipPath>
</defs>
</svg>
