<svg width="28" height="26" viewBox="0 0 28 26" fill="none" xmlns="http://www.w3.org/2000/svg">
<path d="M16.0119 0.540826C14.0873 -0.572502 11.6261 0.0881775 10.5149 2.01651L0.539787 19.3268C-0.571409 21.2551 0.0880133 23.7208 2.01269 24.8342C3.93736 25.9475 6.39846 25.2868 7.50971 23.3585L17.4849 6.04824C18.5961 4.1199 17.9366 1.65415 16.0119 0.540826V0.540826Z" fill="#FFC107"/>
<path d="M16.0119 0.540891C15.1129 0.0208677 14.0969 -0.111914 13.156 0.0905943C13.5555 0.176782 13.9488 0.325149 14.3218 0.540891C16.2464 1.65422 16.9059 4.11997 15.7946 6.04831L5.81954 23.3586C5.22739 24.3861 4.25187 25.0535 3.17847 25.2845C4.84064 25.6431 6.61383 24.9132 7.50966 23.3586L17.4848 6.04831C18.5961 4.11997 17.9366 1.65422 16.0119 0.540891V0.540891Z" fill="#FFB300"/>
<path d="M4.01986 25.375C6.23997 25.375 8.03972 23.5718 8.03972 21.3475C8.03972 19.1232 6.23997 17.3201 4.01986 17.3201C1.79975 17.3201 0 19.1232 0 21.3475C0 23.5718 1.79975 25.375 4.01986 25.375Z" fill="#4CAF50"/>
<path d="M27.4602 19.3267L17.4851 2.01651C16.3739 0.0881775 13.9128 -0.572502 11.9881 0.540826C10.0634 1.65415 9.4039 4.1199 10.5152 6.04824L20.4903 23.3585C21.6015 25.2868 24.0626 25.9475 25.9873 24.8342C27.912 23.7208 28.5714 21.255 27.4602 19.3267V19.3267Z" fill="#2196F3"/>
<path d="M27.4601 19.3267L17.485 2.01652C16.5891 0.461924 14.816 -0.268045 13.1538 0.0905411C14.2272 0.321541 15.2027 0.988947 15.7949 2.01652L25.7701 19.3268C26.8813 21.2551 26.2218 23.7208 24.2972 24.8342C23.9241 25.0499 23.5309 25.1983 23.1314 25.2845C24.0722 25.487 25.0883 25.3542 25.9873 24.8342C27.9119 23.7208 28.5714 21.255 27.4601 19.3267Z" fill="#1E88E5"/>
</svg>
