<svg version="1.0" xmlns="http://www.w3.org/2000/svg" width="100" height="100" viewBox="0 0 512.000000 512.000000" preserveAspectRatio="xMidYMid meet">
<circle xmlns="http://www.w3.org/2000/svg" stroke="none" fill="#f1f2f2" r="48%" cx="50%" cy="50%"/>
<g transform="translate(0.000000,512.000000) scale(0.100000,-0.100000)"
fill="#000000" stroke="none">
	<path d="M1293 4036 c-23 -20 -46 -76 -124 -298 l-95 -273 1479 -3 c814 -1 1482 0 1485 2 3 3 -152 468 -183 549 -19 48 22 47 -1299 47 l-1235 0 -28 -24z"/>
	<path d="M987 3187 c-8 -63 6 -159 34 -228 79 -203 305 -335 516 -302 88 13 163 46 239 104 l61 46 49 -40 c187 -152 462 -150 628 3 l45 42 48 -39 c87 -72
	168 -107 274 -119 119 -14 278 38 365 118 l42 39 63 -50 c98 -79 227 -119 347 -107 277 28 479 283 436 549 l-7 37 -1567 0 -1567 0 -6 -53z"/>
	<path d="M1761 2500 c-121 -61 -328 -82 -459 -47 l-53 14 3 -621 3 -621 28 -48 c19 -33 44 -56 80 -77 l52 -30 398 0 397 0 0 496 c0 336 3 502 11 516 23 42 63 48 326 48 141 0 264 -5 285 -11 69 -19 68 -8 68 -564 l0 -495 373 0 c437 0 448 2 519 78 35 37 48 61 57 101 7 35 11 243 11 638 l0 585 -27 -6 c-199 -42 -332 -30 -490 45 l-62 30 -50 -26 c-87 -44 -196 -68 -306 -69 -116 0 -178 13 -293 61 -63 27 -86 32 -96 24 -28 -23 -176 -70 -256 -81 -129 -18 -261 3 -388 61 -36 16 -68 28 -71 28 -3 -1 -30 -14 -60 -29z"/>
</g>
</svg>
