<svg xmlns="http://www.w3.org/2000/svg" xmlns:xlink="http://www.w3.org/1999/xlink" width="100" height="100" viewBox="0 0 100 100">
   <circle stroke="none" fill="#f0f2f5" r="48%" cx="50%" cy="50%"></circle>
   <g transform="translate(50 50) scale(0.69 0.69) rotate(0) translate(-50 -50)" style="fill:#000000">
      <svg xmlns="http://www.w3.org/2000/svg" viewBox="0 0 26 32" fill="none" x="0px" y="0px">
         <path fill-rule="evenodd" clip-rule="evenodd" d="M0 27C0 29.7614 2.23858 32 5 32H21C23.7614 32 26 29.7614 26 27V5C26 2.23858 23.7614 0 21 0H5C2.23858 0 0 2.23858 0 5V27ZM19 9.99999L7 10C6.44771 10 6 10.4477 6 11C6 11.5523 6.44772 12 7 12L19 12C19.5523 12 20 11.5523 20 11C20 10.4477 19.5523 9.99999 19 9.99999ZM7 15L19 15C19.5523 15 20 15.4477 20 16C20 16.5523 19.5523 17 19 17L7 17C6.44772 17 6 16.5523 6 16C6 15.4477 6.44771 15 7 15ZM16 20L9.5 20C8.94771 20 8.5 20.4477 8.5 21C8.5 21.5523 8.94772 22 9.5 22L16 22C16.5523 22 17 21.5523 17 21C17 20.4477 16.5523 20 16 20Z" fill="#05224c"></path>
      </svg>
   </g>
</svg>
