<svg width="91" height="91" viewBox="0 0 91 91" fill="none" xmlns="http://www.w3.org/2000/svg">
<g clip-path="url(#clip0_10373_429)" filter="url(#filter0_d_10373_429)">
<path d="M45.5 87C68.4198 87 87 68.4198 87 45.5C87 22.5802 68.4198 4 45.5 4C22.5802 4 4 22.5802 4 45.5C4 68.4198 22.5802 87 45.5 87Z" fill="#CBE8FF"/>
<path d="M43.3874 71.9092C57.9727 71.9092 69.7965 60.0855 69.7965 45.5002C69.7965 30.9148 57.9727 19.0911 43.3874 19.0911C28.802 19.0911 16.9783 30.9148 16.9783 45.5002C16.9783 60.0855 28.802 71.9092 43.3874 71.9092Z" fill="#E7EFFF"/>
<path d="M43.3875 65.0427C54.1806 65.0427 62.9302 56.2932 62.9302 45.5C62.9302 34.7069 54.1806 25.9573 43.3875 25.9573C32.5943 25.9573 23.8447 34.7069 23.8447 45.5C23.8447 56.2932 32.5943 65.0427 43.3875 65.0427Z" fill="#A5BCED"/>
<path d="M25.9573 20.1474C26.8325 20.1474 27.5419 19.4379 27.5419 18.5628C27.5419 17.6877 26.8325 16.9783 25.9573 16.9783C25.0822 16.9783 24.3728 17.6877 24.3728 18.5628C24.3728 19.4379 25.0822 20.1474 25.9573 20.1474Z" fill="#FF4D69"/>
<path d="M72.4373 24.901C73.3124 24.901 74.0219 24.1916 74.0219 23.3165C74.0219 22.4414 73.3124 21.7319 72.4373 21.7319C71.5622 21.7319 70.8528 22.4414 70.8528 23.3165C70.8528 24.1916 71.5622 24.901 72.4373 24.901Z" fill="#00C99F"/>
<path d="M63.4583 74.0219C64.3334 74.0219 65.0429 73.3124 65.0429 72.4373C65.0429 71.5622 64.3334 70.8528 63.4583 70.8528C62.5832 70.8528 61.8738 71.5622 61.8738 72.4373C61.8738 73.3124 62.5832 74.0219 63.4583 74.0219Z" fill="#FFA100"/>
<path d="M23.3165 71.9091C24.1916 71.9091 24.901 71.1997 24.901 70.3245C24.901 69.4494 24.1916 68.74 23.3165 68.74C22.4414 68.74 21.7319 69.4494 21.7319 70.3245C21.7319 71.1997 22.4414 71.9091 23.3165 71.9091Z" fill="#00C99F"/>
<path d="M70.3245 48.6692C70.324 49.1049 70.4583 49.5301 70.7088 49.8866C70.9594 50.2431 71.3141 50.5134 71.7242 50.6604C71.9276 50.7244 72.1057 50.8506 72.2336 51.0211C72.3615 51.1917 72.4328 51.398 72.4373 51.6111V59.761C72.4373 60.0412 72.326 60.3099 72.1279 60.508C71.9298 60.7061 71.6611 60.8174 71.3809 60.8174H59.5338C59.3207 60.8128 59.1143 60.7416 58.9438 60.6137C58.7732 60.4858 58.6471 60.3077 58.5831 60.1043C58.4372 59.6928 58.1674 59.3367 57.8108 59.0848C57.4542 58.8329 57.0284 58.6977 56.5918 58.6977C56.1553 58.6977 55.7294 58.8329 55.3728 59.0848C55.0163 59.3367 54.7465 59.6928 54.6006 60.1043C54.5366 60.3077 54.4104 60.4858 54.2399 60.6137C54.0693 60.7416 53.863 60.8128 53.6498 60.8174H27.0136C26.7335 60.8174 26.4648 60.7061 26.2667 60.508C26.0686 60.3099 25.9573 60.0412 25.9573 59.761V36.521H54.4791C54.4791 37.0813 54.7017 37.6187 55.0979 38.0149C55.4941 38.4111 56.0315 38.6337 56.5918 38.6337C57.1521 38.6337 57.6895 38.4111 58.0857 38.0149C58.482 37.6187 58.7045 37.0813 58.7045 36.521H71.3809C71.6611 36.521 71.9298 36.6323 72.1279 36.8304C72.326 37.0285 72.4373 37.2972 72.4373 37.5774V45.7272C72.4328 45.9403 72.3615 46.1467 72.2336 46.3172C72.1057 46.4878 71.9276 46.6139 71.7242 46.6779C71.3141 46.825 70.9594 47.0953 70.7088 47.4517C70.4583 47.8082 70.324 48.2334 70.3245 48.6692V48.6692Z" fill="#323FD4"/>
<path d="M61.3456 42.331C61.345 42.7668 61.4793 43.192 61.7298 43.5485C61.9804 43.9049 62.3351 44.1752 62.7452 44.3223C62.9486 44.3863 63.1267 44.5125 63.2546 44.683C63.3825 44.8535 63.4538 45.0599 63.4583 45.273V53.4229C63.4583 53.703 63.347 53.9717 63.1489 54.1698C62.9508 54.3679 62.6821 54.4792 62.4019 54.4792H50.5548C50.3417 54.4747 50.1353 54.4035 49.9648 54.2756C49.7942 54.1477 49.6681 53.9695 49.6041 53.7662C49.4582 53.3547 49.1884 52.9986 48.8318 52.7467C48.4752 52.4948 48.0494 52.3595 47.6128 52.3595C47.1763 52.3595 46.7504 52.4948 46.3938 52.7467C46.0373 52.9986 45.7675 53.3547 45.6216 53.7662C45.5576 53.9695 45.4314 54.1477 45.2609 54.2756C45.0903 54.4035 44.884 54.4747 44.6709 54.4792H18.5628C17.1114 50.4622 16.6559 46.1531 17.2355 41.9214C17.815 37.6897 19.4123 33.6617 21.8904 30.1829H44.6709C44.884 30.1874 45.0903 30.2586 45.2609 30.3865C45.4314 30.5144 45.5576 30.6926 45.6216 30.8959C45.7675 31.3074 46.0373 31.6635 46.3938 31.9154C46.7504 32.1673 47.1763 32.3025 47.6128 32.3025C48.0494 32.3025 48.4752 32.1673 48.8318 31.9154C49.1884 31.6635 49.4582 31.3074 49.6041 30.8959C49.6681 30.6926 49.7942 30.5144 49.9648 30.3865C50.1353 30.2586 50.3417 30.1874 50.5548 30.1829H62.4019C62.6821 30.1829 62.9508 30.2942 63.1489 30.4923C63.347 30.6904 63.4583 30.9591 63.4583 31.2392V39.3891C63.4538 39.6022 63.3825 39.8085 63.2546 39.9791C63.1267 40.1496 62.9486 40.2758 62.7452 40.3398C62.3351 40.4869 61.9804 40.7571 61.7298 41.1136C61.4793 41.4701 61.345 41.8953 61.3456 42.331V42.331Z" fill="#4E6AFF"/>
<path d="M48.1411 35.4647C48.1411 35.173 47.9046 34.9365 47.6129 34.9365C47.3212 34.9365 47.0847 35.173 47.0847 35.4647V36.5211C47.0847 36.8128 47.3212 37.0493 47.6129 37.0493C47.9046 37.0493 48.1411 36.8128 48.1411 36.5211V35.4647Z" fill="#8FA2FF"/>
<path d="M48.1411 39.69C48.1411 39.3983 47.9046 39.1619 47.6129 39.1619C47.3212 39.1619 47.0847 39.3983 47.0847 39.69V40.7464C47.0847 41.0381 47.3212 41.2746 47.6129 41.2746C47.9046 41.2746 48.1411 41.0381 48.1411 40.7464V39.69Z" fill="#8FA2FF"/>
<path d="M48.1411 43.9156C48.1411 43.6239 47.9046 43.3875 47.6129 43.3875C47.3212 43.3875 47.0847 43.6239 47.0847 43.9156V44.972C47.0847 45.2637 47.3212 45.5002 47.6129 45.5002C47.9046 45.5002 48.1411 45.2637 48.1411 44.972V43.9156Z" fill="#8FA2FF"/>
<path d="M48.1411 48.141C48.1411 47.8493 47.9046 47.6128 47.6129 47.6128C47.3212 47.6128 47.0847 47.8493 47.0847 48.141V49.1973C47.0847 49.489 47.3212 49.7255 47.6129 49.7255C47.9046 49.7255 48.1411 49.489 48.1411 49.1973V48.141Z" fill="#8FA2FF"/>
<path d="M51.3102 38.1055H58.7047C58.9964 38.1055 59.2329 37.869 59.2329 37.5773C59.2329 37.2856 58.9964 37.0491 58.7047 37.0491H51.3102C51.0185 37.0491 50.782 37.2856 50.782 37.5773C50.782 37.869 51.0185 38.1055 51.3102 38.1055Z" fill="white"/>
<path d="M51.3102 41.2747H58.7047C58.9964 41.2747 59.2329 41.0382 59.2329 40.7465C59.2329 40.4548 58.9964 40.2183 58.7047 40.2183H51.3102C51.0185 40.2183 50.782 40.4548 50.782 40.7465C50.782 41.0382 51.0185 41.2747 51.3102 41.2747Z" fill="white"/>
<path d="M51.3102 44.4436H58.7047C58.9964 44.4436 59.2329 44.2071 59.2329 43.9154C59.2329 43.6237 58.9964 43.3872 58.7047 43.3872H51.3102C51.0185 43.3872 50.782 43.6237 50.782 43.9154C50.782 44.2071 51.0185 44.4436 51.3102 44.4436Z" fill="white"/>
<path d="M20.6757 52.3665H22.7885C23.0802 52.3665 23.3167 52.13 23.3167 51.8383C23.3167 51.5466 23.0802 51.3101 22.7885 51.3101H20.6757C20.384 51.3101 20.1476 51.5466 20.1476 51.8383C20.1476 52.13 20.384 52.3665 20.6757 52.3665Z" fill="white"/>
<path d="M51.3102 47.6128H58.7047C58.9964 47.6128 59.2329 47.3763 59.2329 47.0846C59.2329 46.7929 58.9964 46.5564 58.7047 46.5564H51.3102C51.0185 46.5564 50.782 46.7929 50.782 47.0846C50.782 47.3763 51.0185 47.6128 51.3102 47.6128Z" fill="white"/>
<path d="M25.9574 48.669C25.7492 48.6682 25.5458 48.6057 25.3729 48.4896C25.2 48.3735 25.0653 48.2088 24.9857 48.0163C24.9061 47.8239 24.8852 47.6121 24.9256 47.4078C24.966 47.2035 25.0659 47.0157 25.2127 46.8679L35.7763 36.3043C35.9784 36.1312 36.2384 36.0408 36.5042 36.0511C36.7701 36.0613 37.0223 36.1716 37.2104 36.3597C37.3986 36.5478 37.5088 36.8 37.519 37.0659C37.5293 37.3317 37.4389 37.5917 37.2658 37.7938L26.7022 48.3574C26.505 48.5558 26.2372 48.6679 25.9574 48.669V48.669Z" fill="white"/>
<path d="M26.4857 41.8028C25.859 41.8028 25.2462 41.6169 24.7251 41.2687C24.2039 40.9205 23.7977 40.4255 23.5579 39.8464C23.318 39.2674 23.2553 38.6302 23.3775 38.0154C23.4998 37.4007 23.8017 36.836 24.2449 36.3928C24.6881 35.9496 25.2527 35.6478 25.8675 35.5255C26.4822 35.4032 27.1194 35.466 27.6985 35.7058C28.2776 35.9457 28.7725 36.3519 29.1207 36.873C29.469 37.3942 29.6548 38.0069 29.6548 38.6337C29.6548 39.4742 29.3209 40.2803 28.7266 40.8746C28.1323 41.4689 27.3262 41.8028 26.4857 41.8028V41.8028ZM26.4857 37.5773C26.2768 37.5773 26.0726 37.6393 25.8989 37.7554C25.7251 37.8714 25.5897 38.0364 25.5098 38.2294C25.4298 38.4225 25.4089 38.6349 25.4497 38.8398C25.4904 39.0447 25.591 39.2329 25.7388 39.3807C25.8865 39.5284 26.0747 39.629 26.2797 39.6698C26.4846 39.7105 26.697 39.6896 26.89 39.6096C27.083 39.5297 27.248 39.3943 27.3641 39.2206C27.4802 39.0469 27.5421 38.8426 27.5421 38.6337C27.5421 38.3535 27.4308 38.0848 27.2327 37.8867C27.0346 37.6886 26.7659 37.5773 26.4857 37.5773Z" fill="white"/>
<path d="M37.0492 49.1973C36.4224 49.1973 35.8097 49.0115 35.2886 48.6632C34.7674 48.315 34.3612 47.8201 34.1214 47.241C33.8815 46.6619 33.8187 46.0247 33.941 45.41C34.0633 44.7952 34.3651 44.2305 34.8083 43.7873C35.2515 43.3441 35.8162 43.0423 36.431 42.92C37.0457 42.7977 37.6829 42.8605 38.262 43.1004C38.8411 43.3402 39.336 43.7464 39.6842 44.2676C40.0324 44.7887 40.2183 45.4014 40.2183 46.0282C40.2183 46.8687 39.8844 47.6748 39.2901 48.2691C38.6958 48.8634 37.8897 49.1973 37.0492 49.1973V49.1973ZM37.0492 44.9719C36.8403 44.9719 36.6361 45.0338 36.4623 45.1499C36.2886 45.266 36.1532 45.4309 36.0733 45.624C35.9933 45.817 35.9724 46.0294 36.0132 46.2343C36.0539 46.4392 36.1545 46.6275 36.3023 46.7752C36.45 46.9229 36.6382 47.0235 36.8431 47.0643C37.048 47.105 37.2604 47.0841 37.4535 47.0042C37.6465 46.9242 37.8115 46.7888 37.9276 46.6151C38.0436 46.4414 38.1056 46.2372 38.1056 46.0282C38.1056 45.7481 37.9943 45.4794 37.7962 45.2813C37.5981 45.0832 37.3294 44.9719 37.0492 44.9719Z" fill="white"/>
</g>
<defs>
<filter id="filter0_d_10373_429" x="0" y="0" width="91" height="91" filterUnits="userSpaceOnUse" color-interpolation-filters="sRGB">
<feFlood flood-opacity="0" result="BackgroundImageFix"/>
<feColorMatrix in="SourceAlpha" type="matrix" values="0 0 0 0 0 0 0 0 0 0 0 0 0 0 0 0 0 0 127 0" result="hardAlpha"/>
<feOffset/>
<feGaussianBlur stdDeviation="2"/>
<feComposite in2="hardAlpha" operator="out"/>
<feColorMatrix type="matrix" values="0 0 0 0 0.795833 0 0 0 0 0.795833 0 0 0 0 0.795833 0 0 0 1 0"/>
<feBlend mode="normal" in2="BackgroundImageFix" result="effect1_dropShadow_10373_429"/>
<feBlend mode="normal" in="SourceGraphic" in2="effect1_dropShadow_10373_429" result="shape"/>
</filter>
<clipPath id="clip0_10373_429">
<rect width="83" height="83" fill="white" transform="translate(4 4)"/>
</clipPath>
</defs>
</svg>
