<svg id="Layer_1" enable-background="new 0 0 497 497" height="512" viewBox="0 0 497 497" width="512" xmlns="http://www.w3.org/2000/svg"><g><path d="m349.088 0c-38.853 0-74.2 16.341-100.593 43.053-26.393-26.712-61.74-43.053-100.593-43.053-81.684 0-147.902 72.192-147.902 161.246 0 219.653 248.495 335.754 248.495 335.754s246.073-114.466 248.495-335.754c.974-89.047-66.218-161.246-147.902-161.246z" fill="#fa7592"/><g><path d="m349.088 0c-6.78 0-13.45.509-19.988 1.472 72.356 10.644 128.783 78.12 127.889 159.774-1.998 182.534-169.77 292.38-228.476 325.258 12.443 6.972 19.982 10.496 19.982 10.496s246.073-114.466 248.495-335.754c.974-89.047-66.218-161.246-147.902-161.246z" fill="#f55577"/></g><g fill="#f9f2d7"><path d="m301.038 279.735c-4.936-1.847-8.217-6.549-8.211-11.82v-.098c0-24.682-20.009-44.691-44.691-44.691s-44.691 20.009-44.691 44.691c0 .262.002.524.007.785.09 5.061-2.917 9.685-7.606 11.591-16.841 6.843-28.568 23.651-27.843 43.112.869 23.334 19.916 42.247 43.255 42.963 6.871.211 13.404-1.131 19.279-3.701 11.749-5.14 25.22-5.139 36.97.001 5.87 2.567 12.398 3.909 19.263 3.701 23.424-.711 42.514-19.755 43.277-43.178.644-19.814-11.612-36.848-29.009-43.356z"/><g><ellipse cx="199.603" cy="159.788" rx="37.935" ry="48.847" transform="matrix(.957 -.29 .29 .957 -37.744 64.71)"/><ellipse cx="142.297" cy="236.275" rx="31.943" ry="41.132" transform="matrix(.892 -.453 .453 .892 -91.519 89.973)"/><ellipse cx="297.397" cy="158.749" rx="48.847" ry="37.935" transform="matrix(.29 -.957 .957 .29 59.267 397.37)"/><ellipse cx="354.703" cy="235.235" rx="41.132" ry="31.943" transform="matrix(.453 -.892 .892 .453 -15.584 445.087)"/></g></g></g></svg>