<svg xmlns="http://www.w3.org/2000/svg" viewBox="0 0 24 24" enable-background="new 0 0 24 24" x="0px" y="0px" fill="#05224c" height="30" width="30"><g><path d="M12 24c-6.617 0-12-5.383-12-12s5.383-12 12-12 12 5.383 12 12-5.383 12-12 12zm0-22c-5.514 0-10 4.486-10 10s4.486 10 10 10 10-4.486 10-10-4.486-10-10-10z"/><circle cx="8.5" cy="9.5" r="1.5"/><circle cx="15.5" cy="9.5" r="1.5"/><path d="M12 19c-2.485 0-4.806-1.341-6.056-3.499-.277-.478-.114-1.09.364-1.366.479-.277 1.09-.113 1.367.364.893 1.543 2.551 2.501 4.325 2.501 1.775 0 3.433-.958 4.325-2.501.276-.478.885-.644 1.366-.364.478.276.642.888.364 1.366-1.248 2.158-3.569 3.499-6.055 3.499z"/></g></svg>