<svg xmlns="http://www.w3.org/2000/svg" xmlns:xlink="http://www.w3.org/1999/xlink" width="100" height="100" viewBox="0 0 100 100"><circle stroke="none" fill="#f1f2f2" r="48%" cx="50%" cy="50%"></circle><g transform="translate(50 50) scale(0.69 0.69) rotate(0) translate(-50 -50)" style="fill:#040404"><svg fill="#040404" xmlns="http://www.w3.org/2000/svg" xmlns:xlink="http://www.w3.org/1999/xlink" version="1.1" x="0px" y="0px" viewBox="0 0 100 100" enable-background="new 0 0 100 100" xml:space="preserve"><g><path d="M60,26v-3c0-1.104-0.896-2-2-2H42c-1.104,0-2,0.896-2,2v3H27c-1.104,0-2,0.896-2,2v6c0,1.104,0.896,2,2,2h46   c1.104,0,2-0.896,2-2v-6c0-1.104-0.896-2-2-2H60z"></path><path d="M31,38c-0.555,0-1.084,0.23-1.462,0.636c-0.378,0.406-0.571,0.95-0.533,1.503l4,43C33.078,84.187,33.949,85,35,85h30   c1.051,0,1.922-0.813,1.995-1.861l5-43c0.039-0.553-0.154-1.098-0.532-1.503C71.084,38.23,70.555,38,70,38H31z M41.897,75.994   C41.845,75.998,41.793,76,41.742,76c-1.036,0-1.912-0.798-1.992-1.847l-1.914-24.967c-0.084-1.102,0.74-2.063,1.841-2.147   c1.094-0.084,2.062,0.74,2.147,1.841l1.914,24.967C43.823,74.949,42.999,75.91,41.897,75.994z M52,73.979c0,1.104-0.896,2-2,2   s-2-0.896-2-2V49c0-1.104,0.896-2,2-2s2,0.896,2,2V73.979z M59.822,74.166c-0.097,1.036-0.969,1.813-1.989,1.813   c-0.063,0-0.125-0.003-0.188-0.009c-1.1-0.103-1.908-1.078-1.805-2.178l2.338-24.924c0.103-1.1,1.076-1.906,2.178-1.804   c1.1,0.103,1.908,1.078,1.805,2.178L59.822,74.166z"></path></g></svg></g></svg>