<svg width="22" height="18" viewBox="0 0 22 18" fill="none" xmlns="http://www.w3.org/2000/svg">
<path d="M19.3541 3.04131H16.1735V2.71454C16.1735 1.25469 14.9887 0.0698853 13.5289 0.0698853H8.47052C7.01009 0.0698853 5.82587 1.25469 5.82587 2.71454V3.04131H2.64465C1.18422 3.04131 0 4.22553 0 5.68597V15.2855C0 16.7453 1.18422 17.9301 2.64465 17.9301H19.3553C20.8158 17.9301 22 16.7453 22 15.2855V5.68597C21.9988 4.22494 20.8146 3.04131 19.3541 3.04131ZM10.9988 15.1868C8.24367 15.1868 6.00336 12.9464 6.00336 10.1913C6.00336 7.43673 8.24367 5.19582 10.9988 5.19582C13.7539 5.19582 15.9943 7.43614 15.9943 10.1913C15.9943 12.9464 13.7534 15.1868 10.9988 15.1868ZM13.6435 10.1913C13.6435 11.6482 12.4563 12.8359 10.9988 12.8359C9.54131 12.8359 8.35416 11.6482 8.35416 10.1913C8.35416 8.73379 9.54131 7.54663 10.9988 7.54663C12.4563 7.54663 13.6435 8.73379 13.6435 10.1913Z" fill="#050505"/>
</svg>
