<svg width="20" height="20" viewBox="0 0 20 20" fill="none" xmlns="http://www.w3.org/2000/svg">
<path d="M5.1254 19.9992C4.38873 19.9992 3.70956 19.5084 3.50623 18.7692L0.0553914 5.88335C-0.178775 4.99169 0.351225 4.07919 1.23539 3.84752L4.89123 2.86085C5.11373 2.80252 5.34206 2.93252 5.40206 3.15502C5.46206 3.37669 5.3304 3.60502 5.1079 3.66502L1.44956 4.65252C1.00706 4.76835 0.744559 5.22502 0.860392 5.66919L4.3104 18.5508C4.43206 18.9908 4.89206 19.2525 5.3354 19.1392L11.4004 17.5142C11.6229 17.455 11.8521 17.5859 11.9104 17.8092C11.9696 18.0317 11.8379 18.26 11.6154 18.3192L5.54873 19.9442C5.4079 19.9817 5.2654 19.9992 5.1254 19.9992V19.9992Z" fill="#050505"/>
<path d="M17.9163 16.6667H8.74959C7.60126 16.6667 6.66626 15.7317 6.66626 14.5833V2.08333C6.66626 0.935 7.60126 0 8.74959 0H17.9163C19.0646 0 19.9996 0.935 19.9996 2.08333V14.5833C19.9996 15.7317 19.0646 16.6667 17.9163 16.6667ZM8.74959 0.833333C8.06043 0.833333 7.49959 1.39417 7.49959 2.08333V14.5833C7.49959 15.2725 8.06043 15.8333 8.74959 15.8333H17.9163C18.6054 15.8333 19.1663 15.2725 19.1663 14.5833V2.08333C19.1663 1.39417 18.6054 0.833333 17.9163 0.833333H8.74959Z" fill="#050505"/>
<path d="M10.8329 7.50008C9.91376 7.50008 9.16626 6.75258 9.16626 5.83341C9.16626 4.91425 9.91376 4.16675 10.8329 4.16675C11.7521 4.16675 12.4996 4.91425 12.4996 5.83341C12.4996 6.75258 11.7521 7.50008 10.8329 7.50008ZM10.8329 5.00008C10.3738 5.00008 9.99959 5.37425 9.99959 5.83341C9.99959 6.29258 10.3738 6.66675 10.8329 6.66675C11.2921 6.66675 11.6663 6.29258 11.6663 5.83341C11.6663 5.37425 11.2921 5.00008 10.8329 5.00008Z" fill="#050505"/>
<path d="M11.6661 12.5C11.5595 12.5 11.4528 12.4591 11.3711 12.3783C11.2086 12.2158 11.2086 11.9516 11.3711 11.7891L15.7795 7.38079C16.2678 6.89162 17.0636 6.89162 17.552 7.38079L19.877 9.70579C20.0395 9.86829 20.0395 10.1325 19.877 10.295C19.7145 10.4575 19.4503 10.4575 19.2878 10.295L16.9628 7.96996C16.7995 7.80662 16.532 7.80662 16.3686 7.96996L11.9603 12.3783C11.8795 12.4591 11.7728 12.5 11.6661 12.5V12.5Z" fill="#050505"/>
<path d="M7.08289 12.9167C6.97622 12.9167 6.86956 12.8759 6.78789 12.795C6.62539 12.6325 6.62539 12.3684 6.78789 12.2059L8.69623 10.2975C9.18456 9.80837 9.9804 9.80837 10.4687 10.2975L11.9604 11.7892C12.1229 11.9517 12.1229 12.2159 11.9604 12.3784C11.7979 12.5409 11.5337 12.5409 11.3712 12.3784L9.87956 10.8867C9.71623 10.7234 9.44873 10.7234 9.2854 10.8867L7.37706 12.795C7.29622 12.8759 7.18956 12.9167 7.08289 12.9167V12.9167Z" fill="#050505"/>
</svg>
