<svg width="27" height="27" viewBox="0 0 27 27" fill="none" xmlns="http://www.w3.org/2000/svg">
<g clip-path="url(#clip0_1133_1200)">
<path d="M22.2138 11.995C22.1158 11.8969 21.9798 11.8405 21.8411 11.8405C21.7024 11.8405 21.5663 11.8969 21.4682 11.995C21.3701 12.0931 21.3137 12.2291 21.3137 12.3678C21.3137 12.5065 21.3701 12.6425 21.4682 12.7406C21.5663 12.8387 21.7024 12.8951 21.8411 12.8951C21.9798 12.8951 22.1158 12.8387 22.2138 12.7406C22.3119 12.6425 22.3684 12.5065 22.3684 12.3678C22.3684 12.2291 22.312 12.0931 22.2138 11.995Z" fill="#050505"/>
<path d="M14.6165 23.0977H4.43872C4.14752 23.0977 3.91138 23.3337 3.91138 23.625C3.91138 23.9163 4.14752 24.1523 4.43872 24.1523H14.6165C14.9077 24.1523 15.1438 23.9163 15.1438 23.625C15.1438 23.3337 14.9077 23.0977 14.6165 23.0977Z" fill="#050505"/>
<path d="M14.6165 20.1445H6.60083C6.30963 20.1445 6.07349 20.3806 6.07349 20.6719C6.07349 20.9631 6.30963 21.1992 6.60083 21.1992H14.6165C14.9077 21.1992 15.1438 20.9631 15.1438 20.6719C15.1438 20.3806 14.9077 20.1445 14.6165 20.1445Z" fill="#050505"/>
<path d="M14.6165 17.1914H4.38916C4.09796 17.1914 3.86182 17.4275 3.86182 17.7188C3.86182 18.01 4.09796 18.2461 4.38916 18.2461H14.6165C14.9077 18.2461 15.1439 18.01 15.1439 17.7188C15.1439 17.4275 14.9078 17.1914 14.6165 17.1914Z" fill="#050505"/>
<path d="M4.76199 14.3928C4.66391 14.2947 4.52785 14.2383 4.38916 14.2383C4.25047 14.2383 4.11441 14.2947 4.01638 14.3928C3.91829 14.4909 3.86182 14.6269 3.86182 14.7656C3.86182 14.9043 3.91824 15.0404 4.01638 15.1385C4.11441 15.2365 4.24999 15.293 4.38916 15.293C4.52785 15.293 4.66391 15.2365 4.76199 15.1385C4.86008 15.0404 4.9165 14.9043 4.9165 14.7656C4.9165 14.6269 4.86013 14.4909 4.76199 14.3928Z" fill="#050505"/>
<path d="M4.76199 20.299C4.66391 20.201 4.52785 20.1445 4.38916 20.1445C4.25047 20.1445 4.11441 20.201 4.01638 20.299C3.91829 20.3971 3.86182 20.5332 3.86182 20.6719C3.86182 20.8106 3.91824 20.9466 4.01638 21.0447C4.11441 21.1428 4.25047 21.1992 4.38916 21.1992C4.52785 21.1992 4.66391 21.1428 4.76199 21.0447C4.86008 20.9466 4.9165 20.8106 4.9165 20.6719C4.9165 20.5332 4.86013 20.3971 4.76199 20.299Z" fill="#050505"/>
<path d="M14.6165 14.2383H6.60083C6.30963 14.2383 6.07349 14.4744 6.07349 14.7656C6.07349 15.0569 6.30963 15.293 6.60083 15.293H14.6165C14.9077 15.293 15.1438 15.0569 15.1438 14.7656C15.1438 14.4744 14.9077 14.2383 14.6165 14.2383Z" fill="#050505"/>
<path d="M7.20797 6.31821H4.38916C4.09796 6.31821 3.86182 6.5543 3.86182 6.84555C3.86182 7.1368 4.09796 7.37289 4.38916 7.37289H5.27125V11.3172C5.27125 11.6084 5.50739 11.8445 5.79859 11.8445C6.08979 11.8445 6.32594 11.6084 6.32594 11.3172V7.37289H7.20802C7.49922 7.37289 7.73537 7.1368 7.73537 6.84555C7.73537 6.5543 7.49922 6.31821 7.20797 6.31821Z" fill="#050505"/>
<path d="M12.4987 11.1113L10.6138 6.67332C10.5311 6.47857 10.34 6.35211 10.1284 6.35211C9.91687 6.35211 9.72576 6.47857 9.64307 6.67332L7.75818 11.1113C7.64428 11.3794 7.76936 11.689 8.03741 11.8028C8.30541 11.9168 8.61507 11.7917 8.72892 11.5236L9.066 10.73H11.1909L11.528 11.5236C11.6132 11.7244 11.8083 11.845 12.0136 11.8449C12.0824 11.8449 12.1522 11.8314 12.2195 11.8028C12.4875 11.689 12.6125 11.3794 12.4987 11.1113ZM9.51398 9.67527L10.1284 8.22845L10.743 9.67527H9.51398Z" fill="#050505"/>
<path d="M15.5791 9.08233L16.819 7.12736C16.9749 6.88146 16.902 6.55561 16.656 6.39963C16.4101 6.24359 16.0842 6.31662 15.9282 6.56252L14.9547 8.09767L13.9811 6.56252C13.8251 6.31662 13.4993 6.24364 13.2533 6.39963C13.0073 6.55561 12.9344 6.88146 13.0903 7.12741L14.3302 9.08238L13.0903 11.0373C12.9344 11.2833 13.0073 11.6091 13.2533 11.7651C13.3409 11.8207 13.4387 11.8472 13.5352 11.8472C13.7098 11.8472 13.8807 11.7605 13.9811 11.6022L14.9547 10.067L15.9282 11.6022C16.0287 11.7605 16.1995 11.8472 16.3741 11.8472C16.4707 11.8472 16.5684 11.8207 16.656 11.7651C16.902 11.6091 16.9749 11.2833 16.819 11.0373L15.5791 9.08233Z" fill="#050505"/>
<path d="M26.991 19.0898C26.991 18.506 26.7399 17.9799 26.3402 17.6133C26.7399 17.2467 26.991 16.7205 26.991 16.1367C26.991 15.0318 26.092 14.1328 24.9871 14.1328H20.3465C19.2415 14.1328 18.3426 15.0318 18.3426 16.1367C18.3426 16.7205 18.5936 17.2467 18.9934 17.6133C18.5936 17.9799 18.3426 18.506 18.3426 19.0898C18.3426 19.6737 18.5936 20.1998 18.9934 20.5664C18.5936 20.933 18.3426 21.4591 18.3426 22.043C18.3426 22.6268 18.5936 23.1529 18.9934 23.5195C18.5936 23.8861 18.3426 24.4123 18.3426 24.9961C18.3426 25.3393 18.4294 25.6626 18.5821 25.9453H1.59112C1.30034 25.9453 1.06377 25.7087 1.06377 25.418V1.58203C1.06377 1.29125 1.30034 1.05469 1.59112 1.05469H16.515V4.26447C16.515 5.14434 17.2308 5.86021 18.1107 5.86021H21.3138V10.2026C21.3138 10.4939 21.5499 10.73 21.8411 10.73C22.1323 10.73 22.3685 10.4939 22.3685 10.2026V5.33287C22.368 5.33297 22.3676 5.33303 22.3672 5.33313C22.3672 5.19587 22.3149 5.06092 22.214 4.95998L17.4152 0.161156C17.3142 0.0602754 17.1793 0.00801562 17.042 0.00801562C17.0421 0.00532617 17.0422 0.00274219 17.0422 0H1.59106C0.718733 0 0.0090332 0.709699 0.0090332 1.58203V25.418C0.0090332 26.2903 0.718733 27 1.59106 27H24.987C26.092 27 26.991 26.101 26.991 24.9961C26.991 24.4123 26.7399 23.8861 26.3402 23.5195C26.7399 23.1529 26.991 22.6268 26.991 22.043C26.991 21.4591 26.7399 20.933 26.3402 20.5664C26.7399 20.1998 26.991 19.6737 26.991 19.0898ZM17.5696 1.80715L20.5679 4.80553H18.1106C17.8123 4.80553 17.5696 4.56279 17.5696 4.26447V1.80715V1.80715ZM24.9871 25.9453H20.7864H20.3465C19.8231 25.9453 19.3973 25.5195 19.3973 24.9961C19.3973 24.4727 19.8231 24.0469 20.3465 24.0469H24.9871C25.5104 24.0469 25.9363 24.4727 25.9363 24.9961C25.9363 25.5195 25.5105 25.9453 24.9871 25.9453ZM24.9871 22.9922H20.3465C19.8231 22.9922 19.3973 22.5664 19.3973 22.043C19.3973 21.5196 19.8231 21.0938 20.3465 21.0938H24.9871C25.5104 21.0938 25.9363 21.5196 25.9363 22.043C25.9363 22.5664 25.5105 22.9922 24.9871 22.9922ZM24.9871 20.0391H20.3465C19.8231 20.0391 19.3973 19.6132 19.3973 19.0898C19.3973 18.5665 19.8231 18.1406 20.3465 18.1406H24.9871C25.5105 18.1406 25.9363 18.5665 25.9363 19.0898C25.9363 19.6132 25.5105 20.0391 24.9871 20.0391ZM24.9871 17.0859H20.3465C19.8231 17.0859 19.3973 16.6601 19.3973 16.1367C19.3973 15.6133 19.8231 15.1875 20.3465 15.1875H24.9871C25.5105 15.1875 25.9363 15.6133 25.9363 16.1367C25.9363 16.6601 25.5105 17.0859 24.9871 17.0859Z" fill="#050505"/>
</g>
<defs>
<clipPath id="clip0_1133_1200">
<rect width="27" height="27" fill="white"/>
</clipPath>
</defs>
</svg>
