<?xml version="1.0" encoding="UTF-8"?>
<!-- Generator: Adobe Illustrator 24.1.1, SVG Export Plug-In . SVG Version: 6.00 Build 0)  -->
<svg xmlns="http://www.w3.org/2000/svg" xmlns:xlink="http://www.w3.org/1999/xlink" version="1.1" id="Capa_1" x="0px" y="0px" viewBox="0 0 512 512" style="enable-background:new 0 0 512 512;" xml:space="preserve" width="512" height="512">
<g>
	<path style="fill:#FFFFFF;" d="M511.088,375.344c0.543-3.921-0.594-8.047-3.458-11.171c-0.08-0.087-0.162-0.172-0.245-0.257   c-2.57-2.658-6.164-4.181-9.859-4.181c-2.881,0-5.647,0.896-7.956,2.545c-0.279-7.24-0.714-14.559-1.305-21.905   c-1.092-13.601-2.709-27.227-4.816-40.587c0.027-0.17,0.053-0.34,0.075-0.51l2.585-19.973c0.559-4.318-1.038-8.637-4.274-11.554   c-1.654-1.488-3.477-2.823-5.458-3.992c-3.665-15.74-7.961-30.737-12.795-44.662c-2.961-8.534-6.263-16.856-9.853-24.847   c5.169-7.645,7.012-15.397,7.262-16.532c1.286-5.828-1.479-11.798-6.757-14.584l-18.942-10.004c-1.82-0.963-3.807-1.47-5.802-1.53   c-5.213-7.286-10.741-14.047-16.545-20.233l1.757-16.096c0.411-3.763-0.805-7.521-3.341-10.328   c-2.515-2.786-6.092-4.374-9.842-4.374c-0.031,0-6.712,0.046-6.712,0.046l-20.678,0.094c-5.404-3.012-10.98-5.672-16.684-7.962   c2.4-2.377,4.775-4.953,6.96-7.737c3.092-3.903,5.493-7.764,7.345-11.805c6.41-13.987,6.373-29.393-0.1-41.212   c-5.933-10.835-16.583-17.836-29.986-19.711c-2.247-0.315-4.56-0.474-6.875-0.474c-14.761,0-30.621,6.51-43.511,17.86   c-10.615,9.343-18.465,20.65-24.745,30.476c-0.822,1.289-1.652,2.57-2.479,3.848c-4.013,6.202-8.12,12.547-11.521,19.61   c-9.054-23.201-21.911-46.185-44.268-58.803c-9.386-5.296-21.065-8.334-32.044-8.334c-14.046,0-26.405,4.884-34.802,13.749   c-11.967,12.63-14.949,31.871-7.422,47.884c1.895,4.024,4.334,7.861,7.422,11.678c3.682,4.596,7.848,8.596,11.805,12.062   l-45.914,0.234c-3.571,0-6.991,1.44-9.486,3.995l-30.856,31.585c-3.369,3.448-4.601,8.451-3.218,13.071l5.62,18.774   c-2.203,2.219-4.37,4.528-6.492,6.919l-4.478-1.452c-1.337-0.432-2.715-0.643-4.084-0.643c-2.876,0-5.716,0.935-8.061,2.729   c-13.556,10.374-15.405,28.562-15.571,30.602c-0.333,4.084,1.236,7.978,4.067,10.679c-2.352,4.661-4.567,9.455-6.637,14.371   c-5.108,1.358-9.116,5.564-10.077,10.978l-0.996,5.6l-5.598,0.995C4.812,251.454,0,257.199,0,263.931   c0,6.735,4.812,12.48,11.443,13.658l2.31,0.411c-14.737,65.262-5.678,130.84,4.122,187.584c1.098,6.358,6.614,11.003,13.068,11.003   h29.29c23.932,15.664,50.391,23.603,78.713,23.603c28.735,0,48.919-8.502,49.764-8.865c3.712-1.589,6.497-4.783,7.567-8.676   l1.668-6.062h107.378c1.346,3.051,3.805,5.508,6.914,6.838c0.845,0.363,21.032,8.862,49.763,8.862   c22.949,0,44.845-5.279,65.141-15.701h41.502c12.898,0,14.875-13.697,16.183-22.762c0.714-4.95,1.441-11.306,2.168-18.946   c4.48-3.811,8.294-7.794,11.569-12.076C509.529,408.482,514.114,390.746,511.088,375.344z"/>
	<g>
		<path style="fill:#D7A0FF;" d="M469.206,462.199c0,0-437.699,0-437.699,0c-12.344-71.467-20.217-142.109,4.22-212.027    c9.889-28.294,25.143-54.937,46.523-75.305c18.83-17.938,39.503-29.938,64.71-35.305c26.683-5.68,52.946-10.17,78.659-20.062    c20.744-7.98,40.63-17.69,62.222-23.108c17.77-4.459,37.048-1.523,54.463,3.749c55.759,16.881,90.434,67.785,109.315,122.175    c13.017,37.497,20.805,78.312,23.992,117.992c1.64,20.429,2.141,40.942,1.136,61.421    C476.481,407.124,472.77,462.199,469.206,462.199z"/>
		<g>
			<g>
				<path style="fill:#4DC764;" d="M441.131,446.699c-3.43-18.331,6.211-36.922,19.307-50.2      c10.42-10.564,23.172-18.816,37.078-23.993c4.688,13.558-0.199,29.717-8.919,41.108c-8.72,11.391-21.276,19.232-34.199,25.46      C449.575,441.399,444.577,442.602,441.131,446.699z"/>
				<path style="fill:#370644;" d="M441.021,447.378c-0.044,0-0.088-0.006-0.133-0.018c-0.266-0.073-0.423-0.349-0.35-0.615      c1.776-6.457,4.468-12.614,8.002-18.301c3.746-6.028,8.431-11.491,12.96-16.774c1.284-1.498,2.575-3.009,3.874-4.529      c10.313-12.069,20.976-24.55,32.379-35.191c0.201-0.188,0.518-0.178,0.706,0.024c0.188,0.201,0.178,0.518-0.024,0.706      c-11.361,10.604-22.006,23.063-32.3,35.111c-1.299,1.52-2.591,3.031-3.875,4.529c-4.506,5.255-9.165,10.688-12.87,16.651      c-3.483,5.605-6.137,11.675-7.887,18.039C441.441,447.232,441.24,447.378,441.021,447.378z"/>
			</g>
			<g>
				<path style="fill:#4DC764;" d="M84.419,381.238c3.43-18.331-6.21-36.923-19.307-50.2c-10.42-10.564-23.172-18.816-37.078-23.993      c-4.688,13.558,0.199,29.717,8.919,41.108c8.72,11.391,21.276,19.232,34.199,25.46C75.975,375.937,80.973,377.14,84.419,381.238      z"/>
				<path style="fill:#370644;" d="M84.529,381.916c-0.22,0-0.421-0.146-0.482-0.367c-1.75-6.364-4.403-12.434-7.887-18.039      c-3.705-5.963-8.364-11.396-12.87-16.651c-1.284-1.498-2.576-3.01-3.875-4.529c-10.294-12.049-20.938-24.508-32.3-35.111      c-0.202-0.188-0.213-0.505-0.024-0.706c0.188-0.201,0.506-0.212,0.706-0.024c11.403,10.642,22.066,23.122,32.379,35.191      c1.299,1.521,2.59,3.031,3.874,4.529c4.529,5.283,9.214,10.746,12.96,16.774c3.534,5.687,6.226,11.844,8.002,18.301      c0.073,0.267-0.084,0.542-0.35,0.615C84.617,381.91,84.573,381.916,84.529,381.916z"/>
			</g>
		</g>
		<g>
			<g>
				<path style="fill:#FF9BBF;" d="M244.262,259.036l-60.208,218.972c0,0-73.735,31.585-139.181-32.358      c0,0,14.389-120.04,27.916-178.922c3.846-16.754,7.625-28.557,10.963-31.231c0.331-0.265,0.663-0.442,0.995-0.53      c15.052-3.758,21.064,58.683,21.064,58.683l29.817-67.855L244.262,259.036z"/>
				<path style="fill:#550E68;" d="M164.499,423.822c-0.358,0-0.676-0.258-0.738-0.623c-4.62-26.909-16.331-49.48-37.973-73.185      c-15.61-17.099-23.301-38.356-21.099-58.324c0.045-0.411,0.426-0.72,0.827-0.663c0.412,0.045,0.709,0.416,0.663,0.827      c-2.154,19.539,5.396,40.369,20.716,57.148c21.847,23.929,33.672,46.733,38.344,73.942c0.07,0.408-0.204,0.796-0.612,0.866      C164.584,423.818,164.541,423.822,164.499,423.822z"/>
				<path style="fill:#FFE4E0;" d="M80.768,256.604c-0.862,3.006-1.879,6.145-4.155,8.289c-0.928,0.862-2.343,1.569-3.824,1.834      c3.846-16.754,7.625-28.557,10.963-31.231C84.415,242.569,82.735,249.731,80.768,256.604z"/>
			</g>
			<g>
				<path style="fill:#FF9BBF;" d="M257.812,251.135l60.208,218.972c0,0,73.735,31.585,139.181-32.358      c0,0-14.389-120.04-27.916-178.922c-3.846-16.754-7.625-28.557-10.963-31.231c-0.331-0.265-0.663-0.442-0.995-0.531      c-15.052-3.757-21.064,58.683-21.064,58.683l-29.817-67.855L257.812,251.135z"/>
				<path style="fill:#550E68;" d="M337.574,415.922c-0.042,0-0.085-0.004-0.128-0.011c-0.408-0.07-0.683-0.458-0.612-0.866      c4.672-27.209,16.497-50.014,38.344-73.942c15.32-16.779,22.871-37.609,20.717-57.148c-0.046-0.411,0.251-0.782,0.663-0.827      c0.407-0.057,0.782,0.251,0.827,0.663c2.202,19.968-5.488,41.227-21.1,58.324c-21.642,23.704-33.353,46.275-37.973,73.185      C338.25,415.664,337.933,415.922,337.574,415.922z"/>
				<path style="fill:#FFE4E0;" d="M421.306,248.704c0.862,3.006,1.879,6.145,4.155,8.288c0.928,0.862,2.343,1.569,3.824,1.835      c-3.846-16.754-7.625-28.557-10.963-31.231C417.659,234.669,419.339,241.83,421.306,248.704z"/>
			</g>
			<g>
				<g>
					<g>
						<path style="fill:#FF71B1;" d="M248.393,112.392c-0.521-3.967-1.5-7.859-2.777-11.629        c-8.221-24.27-19.828-52.293-43.304-65.54c-14.689-8.289-38.066-10.355-50.702,2.985c-8.325,8.789-10.167,22.232-5.049,33.114        c1.529,3.251,3.518,6.249,5.773,9.039c3.919,4.891,8.705,9.193,13.551,13.243c4.991,4.145,10.122,8.163,15.614,11.628        c12.467,7.85,26.774,12.731,41.437,14.3c7.323,0.808,14.748,0.759,22.055-0.122c0.395-0.045,0.766-0.11,1.093-0.169        C249.714,118.492,248.939,116.578,248.393,112.392z M161.116,56.397c0,0,17.747-11.13,39.754,7.374        c22.007,18.504,37.049,45.749,37.049,45.749S166.014,84.223,161.116,56.397z"/>
						<path style="opacity:0.38;fill:#FF71B1;" d="M246.085,119.241c-0.327,0.06-0.698,0.124-1.093,0.169        c-7.307,0.881-14.732,0.93-22.055,0.122c-14.662-1.57-28.97-6.45-41.437-14.3c-5.491-3.465-10.623-7.483-15.614-11.628        c-4.846-4.051-9.632-8.352-13.551-13.243c-2.652-9.174-4.409-22.966,8.781-23.964c4.898,27.827,76.804,53.123,76.804,53.123        L246.085,119.241z"/>
					</g>
					<g>
						<path style="fill:#FF71B1;" d="M261.213,115.45c0.327,0.056,0.699,0.117,1.094,0.159c7.316,0.809,14.741,0.785,22.055-0.096        c14.647-1.714,28.905-6.735,41.294-14.708c5.457-3.519,10.549-7.587,15.498-11.781c4.806-4.098,9.55-8.447,13.42-13.376        c2.227-2.812,4.187-5.829,5.684-9.095c8.447-18.43,2.147-39.184-19.867-42.264c-14.3-2.001-29.257,4.935-39.787,14.205        c-8.953,7.882-15.944,17.664-22.331,27.663c-6.355,9.948-13.047,19.437-16.775,30.811c-1.24,3.782-2.181,7.683-2.662,11.656        C258.332,112.816,257.576,114.737,261.213,115.45z M269.282,105.648c0,0,14.774-27.391,36.597-46.111        c21.824-18.721,39.679-7.766,39.679-7.766C340.935,79.645,269.282,105.648,269.282,105.648z"/>
						<path style="opacity:0.38;fill:#FF71B1;" d="M261.213,115.45c0.327,0.056,0.699,0.117,1.094,0.159        c7.316,0.809,14.741,0.785,22.055-0.096c14.647-1.714,28.905-6.735,41.294-14.708c5.457-3.519,10.549-7.587,15.498-11.781        c4.806-4.098,9.55-8.447,13.42-13.376c2.562-9.199,4.182-23.008-9.017-23.876c-4.624,27.873-76.277,53.876-76.277,53.876        L261.213,115.45z"/>
					</g>
					<path style="fill:#FF71B1;" d="M243.452,112.364c-0.287-2.035-0.42-4.132,0.072-6.128c0.491-1.996,1.684-3.896,3.506-4.847       c1.822-0.951,4.297-0.742,5.677,0.781c1.431-2.124,4.305-3.011,6.802-2.445c2.498,0.566,4.587,2.396,5.877,4.609       c1.289,2.212,1.852,4.78,2.077,7.331c0.353,4.003-0.26,8.442-3.184,11.197c-2.688,2.533-6.754,3.054-10.405,2.491       C246.361,124.192,244.421,119.229,243.452,112.364z"/>
				</g>
				<g>
					<polygon style="fill:#923EFF;" points="402.084,112.703 398.769,145.404 398.725,145.665 396.131,151.598 397.686,156.042        397.642,156.375 393.575,196.525 391.133,200.893 392.492,207.235 390.856,223.395 389.397,237.699 388.403,247.385        385.968,251.686 387.32,258.095 383.231,298.245 380.727,303.23 382.148,308.955 376.489,364.67 323.796,366.027        319.483,364.138 313.673,366.288 313.651,366.288 283.393,367.074 275.679,367.264 270.131,367.407 265.556,367.526        227.583,368.525 222.885,366.647 217.46,368.787 177.587,369.81 173.345,365.92 167.419,370.072 159.109,370.286        157.539,370.334 138.73,370.334 137.537,366.074 135.437,358.506 127.082,328.399 124.96,320.831 117.29,293.176        115.168,285.607 107.278,257.167 106.946,256.024 105.156,249.575 103.123,242.221 97.265,221.158 95.165,213.566        87.496,186.054 85.396,178.462 77.019,148.331 107.874,114.321 108.515,114.321 151.218,114.084 156.739,116.057        161.142,114.036 197.126,113.822 207.049,113.774 244.226,113.584 248.249,113.56 254.151,113.512 261.555,113.465        261.577,113.465 290.642,113.322 291.327,113.322 300.61,113.274 301.229,113.25 338.207,113.06 338.428,113.06        342.884,115.027 348.154,112.989 348.353,112.989 385.529,112.798 385.64,112.798 389.905,114.778 395.431,112.751        395.542,112.751      "/>
					<g>
						<polygon style="fill:#FFA368;" points="161.142,114.036 87.496,186.054 85.396,178.462 151.218,114.084       "/>
						<polygon style="fill:#FFA368;" points="207.049,113.774 97.265,221.158 95.165,213.566 197.126,113.822       "/>
						<polygon style="fill:#FFA368;" points="207.049,113.774 97.265,221.158 95.165,213.566 197.126,113.822       "/>
						<polygon style="fill:#FFA368;" points="254.151,113.512 248.757,118.796 136.475,228.607 131.966,233.01 109.908,254.573         107.278,257.167 106.946,256.024 105.156,249.575 122.02,233.082 130.375,224.918 244.226,113.584 248.249,113.56       "/>
						<polygon style="fill:#FFA368;" points="254.151,113.512 248.757,118.796 136.475,228.607 131.966,233.01 109.908,254.573         107.278,257.167 106.946,256.024 105.156,249.575 122.02,233.082 130.375,224.918 244.226,113.584 248.249,113.56       "/>
						<polygon style="fill:#FFA368;" points="301.229,113.25 139.57,271.399 117.29,293.176 115.168,285.607 137.956,263.307         291.327,113.322 300.61,113.274       "/>
						<polygon style="fill:#FFA368;" points="348.154,112.989 138.818,316.952 127.082,328.399 124.96,320.831 338.207,113.06         338.428,113.06       "/>
						<polygon style="fill:#FFA368;" points="395.542,112.751 137.537,366.074 135.437,358.506 157.562,336.753 385.64,112.798         395.431,112.751       "/>
						<polygon style="fill:#FFA368;" points="398.769,145.404 398.725,145.665 397.686,156.042 183.046,364.527 177.587,369.81         167.419,370.072       "/>
						<polygon style="fill:#FFA368;" points="393.575,196.525 392.492,207.235 227.583,368.525 217.46,368.787       "/>
						<polygon style="fill:#FFA368;" points="393.575,196.525 392.492,207.235 227.583,368.525 217.46,368.787       "/>
						<polygon style="fill:#FFA368;" points="388.403,247.385 387.32,258.095 282.973,360.124 275.679,367.264 270.131,367.407         265.556,367.526 269.888,363.289 282.376,351.08       "/>
						<polygon style="fill:#FFA368;" points="388.403,247.385 387.32,258.095 282.973,360.124 275.679,367.264 270.131,367.407         265.556,367.526 269.888,363.289 282.376,351.08       "/>
						<polygon style="fill:#FFA368;" points="383.231,298.245 382.148,308.955 323.796,366.027 313.673,366.288       "/>
					</g>
				</g>
				<path style="fill:#FF71B1;" d="M283.393,367.074l-7.714,0.19l-5.548,0.143c-0.089-1.333-0.155-2.713-0.243-4.118      c-0.597-9.663-1.414-21.11-2.387-33.795v-0.024c-0.221-2.928-0.442-5.902-0.685-8.949c-0.862-10.924-1.813-22.586-2.829-34.605      c-0.265-2.951-0.508-5.902-0.752-8.877v-0.024c-0.906-10.401-1.835-21.015-2.763-31.629v-0.024      c-0.155-1.666-0.309-3.332-0.464-4.998c-0.111-1.285-0.221-2.594-0.332-3.879c-0.309-3.475-0.619-6.926-0.928-10.377      c-0.729-8.068-1.459-16.088-2.166-23.895c-0.287-2.975-0.553-5.902-0.818-8.83c-1.061-11.495-2.078-22.49-3.028-32.701      c-0.287-3.022-0.575-5.95-0.84-8.806c-1.216-12.9-2.277-24.18-3.139-33.081c-0.177-1.857-0.354-3.594-0.508-5.236l5.901-0.048      l7.405-0.047h0.022c0.685,7.116,1.547,16.112,2.52,26.489c0.265,2.832,0.553,5.76,0.84,8.806      c0.951,10.019,1.989,21.063,3.05,32.724c0.287,2.904,0.553,5.831,0.818,8.806c1.039,11.019,2.078,22.515,3.117,34.176      c0.066,0.452,0.088,0.904,0.132,1.356c0.221,2.499,0.442,4.998,0.685,7.497c0.199,2.261,0.398,4.522,0.597,6.783      c0.752,8.33,1.481,16.707,2.188,24.99c0.265,2.975,0.508,5.926,0.752,8.877c1.039,11.852,1.989,23.442,2.895,34.462      c0.243,3.023,0.486,6.022,0.707,8.949c0.973,12.233,1.812,23.633,2.498,33.7c0.221,3.141,0.42,6.164,0.597,9.044      C283.127,362.551,283.26,364.86,283.393,367.074z"/>
				<polygon style="fill:#FF71B1;" points="390.856,223.395 389.397,237.699 360.73,238.294 350.651,238.508 311.971,239.294       301.87,239.507 273.336,240.102 265.688,240.245 260.008,240.365 255.632,240.46 216.51,241.269 216.487,241.269       206.431,241.459 206.409,241.459 169.387,242.221 159.308,242.435 159.286,242.435 134,242.959 133.934,242.982       109.908,254.573 106.946,256.024 105.156,249.575 103.123,242.221 122.02,233.082 131.038,228.726 131.127,228.726       136.475,228.607 174.227,227.846 184.306,227.632 221.394,226.87 231.495,226.656 258.748,226.108 270.485,225.87       272.054,225.823 280.541,225.656 316.9,224.918 327.001,224.704 365.571,223.919 375.65,223.705     "/>
				<polygon style="opacity:0.35;fill:#923EFF;" points="159.109,370.286 157.539,370.334 138.73,370.334 137.537,366.074       135.437,358.506 127.082,328.399 124.96,320.831 117.29,293.176 115.168,285.607 107.278,257.167 106.946,256.024       105.156,249.575 103.123,242.221 97.265,221.158 95.165,213.566 87.496,186.054 85.396,178.462 77.019,148.331 107.874,114.321       108.515,114.321 115.39,149.116 117.003,157.209 122.794,186.53 124.385,194.621 130.375,224.918 131.127,228.726       131.966,233.01 133.934,242.982 137.956,263.307 139.57,271.399 145.405,300.911 146.996,308.978 153.318,340.918       153.318,340.941 154.909,349.01     "/>
			</g>
		</g>
		<g>
			<path style="fill:#FFD974;" d="M447.269,291.237l3.557-21.124c0,0,14.027-1.451,22.696,6.361l-2.586,19.974     C470.936,296.448,463.193,286.957,447.269,291.237z"/>
			<g>
				<path style="fill:#923EFF;" d="M366.974,457.901l-8.68,19.584c0,0-13.949-2.07-20.412-11.786l7.455-18.71      C345.337,446.988,350.486,458.102,366.974,457.901z"/>
				<path style="fill:#923EFF;" d="M429.664,163.728l18.942,10.004c0,0-3.023,13.774-13.159,19.554l-18.155-8.721      C417.292,184.565,428.734,180.191,429.664,163.728z"/>
				<path style="fill:#FF71B1;" d="M203.287,413.894l7.376,20.111c0,0-11.466,8.21-22.866,5.719l-7.65-18.631      C180.148,421.093,191.576,425.502,203.287,413.894z"/>
				<path style="fill:#FFA368;" d="M64.581,214.968L44.467,207.6c0,0,1.145-14.055,10.413-21.145l19.162,6.203      C74.041,192.658,63.292,198.53,64.581,214.968z"/>
				<path style="fill:#FFEFD7;" d="M395.159,197.094l1.272,7.157c0.807,4.539,4.361,8.093,8.9,8.9l7.157,1.273      c0.672,0.119,0.672,1.083,0,1.202l-7.157,1.273c-4.539,0.807-8.093,4.361-8.9,8.9l-1.272,7.157c-0.12,0.672-1.083,0.672-1.203,0      l-1.273-7.157c-0.807-4.539-4.361-8.093-8.9-8.9l-7.157-1.273c-0.672-0.119-0.672-1.083,0-1.202l7.157-1.273      c4.539-0.807,8.093-4.36,8.9-8.9l1.273-7.157C394.075,196.422,395.039,196.422,395.159,197.094z"/>
				<path style="fill:#FFEFD7;" d="M51.236,420.103l1.273,7.157c0.807,4.539,4.361,8.093,8.9,8.9l7.157,1.273      c0.672,0.119,0.672,1.083,0,1.203l-7.157,1.273c-4.539,0.807-8.093,4.361-8.9,8.9l-1.273,7.157      c-0.119,0.672-1.083,0.672-1.203,0l-1.272-7.157c-0.807-4.539-4.361-8.093-8.9-8.9l-7.157-1.273      c-0.672-0.12-0.672-1.083,0-1.203l7.157-1.273c4.539-0.807,8.093-4.36,8.9-8.9l1.272-7.157      C50.152,419.431,51.116,419.431,51.236,420.103z"/>
				<path style="fill:#FFEFD7;" d="M450.782,379.98l1.056,5.942c0.67,3.768,3.621,6.719,7.389,7.389l5.942,1.057      c0.558,0.099,0.558,0.899,0,0.999l-5.942,1.057c-3.768,0.67-6.719,3.62-7.389,7.389l-1.056,5.942      c-0.099,0.558-0.899,0.558-0.999,0l-1.057-5.942c-0.67-3.768-3.62-6.719-7.389-7.389l-5.942-1.057      c-0.558-0.099-0.558-0.899,0-0.999l5.942-1.057c3.768-0.67,6.719-3.62,7.389-7.389l1.057-5.942      C449.883,379.422,450.683,379.422,450.782,379.98z"/>
				<path style="fill:#FFEFD7;" d="M254.445,389.874l1.402,7.887c0.89,5.002,4.806,8.918,9.808,9.808l7.887,1.402      c0.74,0.132,0.74,1.194,0,1.325l-7.887,1.402c-5.002,0.89-8.918,4.806-9.808,9.808l-1.402,7.887c-0.132,0.74-1.194,0.74-1.325,0      l-1.402-7.887c-0.889-5.002-4.806-8.918-9.808-9.808l-7.887-1.402c-0.74-0.132-0.74-1.194,0-1.325l7.887-1.402      c5.002-0.89,8.918-4.806,9.808-9.808l1.402-7.887C253.252,389.134,254.314,389.134,254.445,389.874z"/>
				<path style="fill:#FFEFD7;" d="M32.862,244.873l1.272,7.157c0.807,4.539,4.361,8.093,8.9,8.9l7.157,1.273      c0.672,0.119,0.672,1.083,0,1.203l-7.157,1.272c-4.539,0.807-8.093,4.361-8.9,8.9l-1.272,7.157c-0.12,0.672-1.083,0.672-1.203,0      l-1.272-7.157c-0.807-4.539-4.361-8.093-8.9-8.9l-7.157-1.272c-0.672-0.12-0.672-1.083,0-1.203l7.157-1.273      c4.539-0.807,8.093-4.36,8.9-8.9l1.272-7.157C31.778,244.201,32.742,244.201,32.862,244.873z"/>
				<path style="fill:#FFEFD7;" d="M196.892,94.386l1.273,7.157c0.807,4.539,4.361,8.093,8.9,8.9l7.157,1.273      c0.672,0.119,0.672,1.083,0,1.203l-7.157,1.273c-4.539,0.807-8.093,4.361-8.9,8.9l-1.273,7.157      c-0.119,0.672-1.083,0.672-1.202,0l-1.273-7.157c-0.807-4.539-4.361-8.093-8.9-8.9l-7.157-1.273      c-0.672-0.119-0.672-1.083,0-1.203l7.157-1.273c4.539-0.807,8.093-4.36,8.9-8.9l1.273-7.157      C195.809,93.715,196.773,93.715,196.892,94.386z"/>
			</g>
		</g>
	</g>
</g>















</svg>
