<?xml version="1.0" encoding="UTF-8"?>
<!-- Generator: Adobe Illustrator 24.1.1, SVG Export Plug-In . SVG Version: 6.00 Build 0)  -->
<svg xmlns="http://www.w3.org/2000/svg" xmlns:xlink="http://www.w3.org/1999/xlink" version="1.1" id="Capa_1" x="0px" y="0px" viewBox="0 0 512 512" style="enable-background:new 0 0 512 512;" xml:space="preserve" width="512" height="512">
<g>
	<path style="fill:#FFFFFF;" d="M458.203,376.177l0.15-6.551c0.787-0.989,1.567-1.986,2.341-2.989   c0.524,0.057,1.056,0.086,1.591,0.086c0.906,0,1.798-0.083,2.669-0.244c2.611,3.797,6.986,6.292,11.931,6.292   c4.945,0,9.32-2.495,11.931-6.292c0.872,0.162,1.763,0.244,2.669,0.244c3.865,0,7.497-1.505,10.229-4.237   c3.499-3.499,4.83-8.361,3.986-12.895c3.801-2.61,6.299-6.986,6.299-11.935c0-4.949-2.498-9.326-6.299-11.935   c0.843-4.534-0.487-9.395-3.986-12.896c-2.456-2.456-5.641-3.92-9.066-4.191c8.755-23.972,13.313-49.515,13.313-75.163   c0-120.483-98.021-218.503-218.504-218.503c-92.43,0-173.293,57.768-204.673,141.784c-6.703,0.388-13.411,1.241-19.988,2.544   c-3.926,0.779-6.486,2.753-7.716,3.702l-0.193,0.148c-1.913,1.45-3.33,3.318-4.213,5.384c-0.443-0.043-0.887-0.066-1.328-0.066   c-4.121,0-8.095,1.914-10.657,5.308c-4.738,6.274-7.525,13.299-9.829,19.957c-1.376,3.977-0.798,8.368,1.561,11.854   c2.356,3.484,6.219,5.654,10.422,5.855c6.688,0.32,13.967,0.667,20.449,2.237L40.768,282.71L0.554,418.041   c-1.8,6.063,0.9,12.558,6.467,15.559c12.42,6.693,26.057,11.529,40.538,14.375c10.479,2.055,21.588,3.097,33.013,3.097   c8.038,0,16.385-0.516,24.814-1.533c0.117-0.012,0.235-0.024,0.352-0.039c2.993-0.363,6.145-0.817,9.62-1.387   c0.735-0.12,1.461-0.25,2.185-0.382l0.898-0.161c2.154-0.38,4.286-0.778,6.401-1.208c1.106-0.225,2.2-0.455,3.293-0.693   c1.971-0.427,3.917-0.874,5.849-1.339c0.637,0.047,1.3,0.089,1.941,0.136c-0.185,0.929-0.28,1.884-0.28,2.853   c0,0.904,0.083,1.796,0.243,2.668c-3.797,2.61-6.293,6.985-6.293,11.931c0,4.95,2.5,9.327,6.301,11.936   c-0.841,4.533,0.487,9.395,3.986,12.895c2.732,2.732,6.364,4.236,10.229,4.236c0.906,0,1.798-0.083,2.669-0.243   c2.61,3.795,6.986,6.29,11.931,6.29c4.945,0,9.32-2.495,11.931-6.29c0.872,0.161,1.763,0.243,2.669,0.243   c3.865,0,7.497-1.504,10.229-4.239c3.502-3.5,4.83-8.36,3.986-12.894c3.769-2.587,6.249-6.913,6.291-11.809   c0.14,0.026,0.273,0.078,0.414,0.1c1.813,0.282,44.959,6.878,93.302,6.878c38.399,0,69.205-4.204,91.567-12.493   c2.91-1.079,5.356-3.14,6.912-5.825l4.436-7.655c29.781-2.633,54.771-6.121,72.594-10.142   c20.651-4.658,39.762-11.182,39.762-27.248C508.805,391.299,494.859,382.949,458.203,376.177z"/>
	<g>
		<g>
			
				<ellipse transform="matrix(0.7071 -0.7071 0.7071 0.7071 -81.5596 270.0385)" style="fill:#923EFF;" cx="285.185" cy="233.47" rx="205.149" ry="205.149"/>
			<g>
				<g>
					<path style="fill:#FFA5D7;" d="M182.895,430.46l17.107,18.488c0,0,116.273,18.011,178.183-4.939l10.807-18.649L182.895,430.46z       "/>
					<path style="opacity:0.34;fill:#FFA5D7;" d="M182.895,430.46l17.107,18.488c0,0,116.273,18.011,178.183-4.939l10.807-18.649       L182.895,430.46z"/>
				</g>
				<g>
					<ellipse style="fill:#FFA5D7;" cx="255.067" cy="405.659" rx="238.11" ry="29.551"/>
					<path style="fill:#FFEFD7;" d="M256.902,425.481c-101.862,0-207.223-7.84-207.223-20.959s105.361-20.958,207.223-20.958       s207.224,7.839,207.224,20.958S358.764,425.481,256.902,425.481z M256.902,384.564c-123.357,0-206.223,10.319-206.223,19.958       s82.866,19.959,206.223,19.959c123.358,0,206.224-10.32,206.224-19.959S380.26,384.564,256.902,384.564z"/>
				</g>
				<g>
					<g>
						<g>
							<path style="fill:#370644;" d="M297.655,82.24c-0.268,0-0.49-0.212-0.499-0.482c-0.146-4.081-0.398-8.215-0.747-12.286         c-0.024-0.275,0.18-0.518,0.456-0.541c0.271-0.027,0.517,0.18,0.541,0.455c0.351,4.088,0.603,8.238,0.75,12.337         c0.01,0.275-0.206,0.508-0.481,0.518C297.667,82.24,297.662,82.24,297.655,82.24z"/>
							<g>
								<path style="fill:#FFD974;" d="M297.708,74.76c-1.946,0.625-4.163-0.151-5.597-1.607c-1.434-1.456-2.166-3.485-2.426-5.512          c-0.72-5.619,1.861-11.078,4.373-16.156c0.862-1.742,1.724-3.485,2.586-5.227c6.076,4.57,9.327,12.809,8.093,20.311          c-0.279,1.698-0.783,3.39-1.754,4.809C302.01,72.797,299.345,74.234,297.708,74.76z"/>
								<path style="fill:#FFEFD7;" d="M297.496,74.997c-0.988,0.317-2.114-0.077-2.842-0.816c-0.728-0.739-1.1-1.77-1.232-2.799          c-0.366-2.854,0.945-5.626,2.221-8.204c0.438-0.885,0.875-1.77,1.313-2.654c3.085,2.32,4.736,6.505,4.11,10.314          c-0.142,0.862-0.397,1.721-0.891,2.442C299.681,74.001,298.328,74.73,297.496,74.997z"/>
							</g>
						</g>
						<g>
							<path style="fill:#FFA368;" d="M445.071,263.979l-0.779,35.078l-0.645,29.469l-0.534,23.905l-0.757,33.275l-0.134,6.299         c-0.111,5.364-4.029,9.86-9.326,10.751c-79.527,13.488-168.891,7.033-227.985-0.334c-7.479-0.935-14.467-1.892-20.9-2.804         c-1.068-0.156-2.137-0.312-3.16-0.467c-3.116-0.445-6.099-0.913-8.925-1.358c-1.491-0.223-2.96-0.467-4.385-0.69         c-1.135-0.178-2.27-0.356-3.339-0.534c-3.428-0.556-6.544-1.091-9.326-1.58c-1.18-0.2-2.27-0.4-3.317-0.579         c-1.224-0.223-2.359-0.423-3.405-0.623c-5.253-0.979-9.014-5.586-9.014-10.928l0.022-0.712l1.603-75.587l0.69-31.473         l2.048-95.975l12.776-0.089l200.141-1.424L445.071,263.979z"/>
							<g>
								<path style="fill:#FFE4E0;" d="M170.013,259.59c-0.068,1.152,0.479,2.379,1.61,2.989c1.136,0.612,2.603,0.503,3.889,0.185          c3.85-0.954,10.67-5.679,6.203-9.205C177.128,249.938,170.266,255.299,170.013,259.59z"/>
								<path style="fill:#FFE4E0;" d="M222.76,364.412c-1.127-0.245-2.425,0.106-3.202,1.128c-0.78,1.027-0.9,2.494-0.783,3.814          c0.348,3.951,3.961,11.419,8.135,7.552C231.197,372.933,226.961,365.326,222.76,364.412z"/>
								<path style="fill:#FFE4E0;" d="M256.285,287.369c-0.746,0.88-1.045,2.191-0.506,3.357c0.541,1.171,1.78,1.965,3,2.481          c3.652,1.547,11.942,1.86,10.486-3.641C267.769,283.918,259.063,284.089,256.285,287.369z"/>
								<path style="fill:#FFE4E0;" d="M351.188,289.642c-0.746,0.88-1.044,2.191-0.506,3.357c0.541,1.171,1.78,1.964,3,2.481          c3.652,1.547,11.943,1.86,10.486-3.641C362.672,286.191,353.966,286.362,351.188,289.642z"/>
								<path style="fill:#FFE4E0;" d="M403.47,314.079c-0.746,0.88-1.044,2.191-0.506,3.357c0.541,1.171,1.78,1.965,3,2.481          c3.652,1.547,11.943,1.86,10.486-3.641C414.953,310.627,406.248,310.798,403.47,314.079z"/>
								<path style="fill:#FFE4E0;" d="M403.47,364.94c-0.746,0.881-1.044,2.191-0.506,3.357c0.541,1.171,1.78,1.965,3,2.481          c3.652,1.547,11.943,1.861,10.486-3.641C414.953,361.488,406.248,361.66,403.47,364.94z"/>
								<path style="fill:#FFE4E0;" d="M297.485,356.7c-0.746,0.881-1.045,2.191-0.506,3.357c0.541,1.171,1.78,1.965,3,2.481          c3.652,1.547,11.943,1.861,10.486-3.641C308.969,353.248,300.263,353.419,297.485,356.7z"/>
								<path style="fill:#FFE4E0;" d="M151.011,337.52c-0.746,0.881-1.045,2.191-0.506,3.357c0.541,1.171,1.78,1.964,3,2.481          c3.652,1.547,11.943,1.86,10.486-3.641C162.495,334.069,153.789,334.24,151.011,337.52z"/>
							</g>
							<path style="opacity:0.14;fill:#FFA368;" d="M445.071,263.979l-0.779,35.078c-6.254,2.515-13.399,2.849-20.054,1.469         c-8.925-1.847-17.049-6.522-24.35-12.019c-1.113-0.846-2.359-1.758-3.762-1.669c-1.024,0.045-1.936,0.623-2.804,1.157         c-12.464,7.456-29.38,6.589-41.043-2.07c1.87,5.498-2.738,11.685-8.391,12.887c-5.676,1.18-11.596-1.647-15.603-5.831         c-4.006-4.185-6.477-9.571-8.859-14.824c-8.28,4.741-18.697,5.52-27.6,2.07c-8.881-3.472-16.026-11.107-18.919-20.188         c-20.588,6.232-44.649-1.491-57.781-18.54c-6.655,4.095-14.267,7.122-22.08,6.944c-7.812-0.2-15.847-4.095-19.475-11.018         c-7.879,10.795-19.409,20.477-31.74,19.542l1.669-77.857l12.776-0.089l200.141-1.424L445.071,263.979z"/>
							<g>
								<path style="fill:#FFE4E0;" d="M443.647,328.526l-0.534,23.905c-11.062,1.603-22.458,0.979-33.809,0.178          c-80.083-5.653-159.677-18.363-237.534-37.882c-10.372-2.604-20.7-5.32-31.005-8.168l0.69-31.473          c7.768,2.916,15.58,5.676,23.437,8.28C254.1,312.945,349.319,323.184,443.647,328.526z"/>
								<path style="opacity:0.29;fill:#FFA368;" d="M204.911,402.421c-7.479-0.935-14.467-1.892-20.9-2.804          c-1.068-0.156-2.137-0.312-3.16-0.467c-3.116-0.467-6.099-0.913-8.925-1.358c-1.491-0.223-2.96-0.467-4.385-0.69          c-1.135-0.178-2.27-0.356-3.339-0.534c-3.428-0.556-6.544-1.091-9.326-1.58c-1.18-0.2-2.27-0.4-3.317-0.579          c-1.224-0.223-2.359-0.423-3.405-0.623c-5.253-0.979-9.014-5.586-9.014-10.928l1.625-76.299l0.69-31.473l2.048-95.975          l12.776-0.089c0.645,34.967,2.537,70.045,8.614,104.344c1.87,10.55,4.14,21.011,6.878,31.361          c0.334,1.269,0.668,2.515,1.024,3.762C180.806,347.4,192.536,375.066,204.911,402.421z"/>
							</g>
							<path style="fill:#FFE4E0;" d="M442.356,385.706l-0.134,6.299c-0.111,5.364-4.029,9.86-9.326,10.751         c-79.527,13.488-168.891,7.033-227.985-0.334c-7.479-0.935-14.467-1.892-20.9-2.804c-1.068-0.156-2.137-0.312-3.16-0.467         c-3.116-0.445-6.099-0.913-8.925-1.358c-1.491-0.223-2.96-0.467-4.385-0.69c-1.135-0.178-2.27-0.356-3.339-0.534         c-3.428-0.556-6.544-1.091-9.326-1.58c-1.18-0.2-2.27-0.4-3.317-0.579c-1.224-0.223-2.359-0.423-3.405-0.623         c-5.253-0.979-9.014-5.586-9.014-10.928l0.022-0.712c2.582-1.246,5.498-1.892,8.369-1.758         c7.612,0.356,14.512,5.364,18.452,11.863c5.186-7.323,14.489-11.507,23.415-10.528c8.925,0.979,17.094,7.078,20.566,15.336         c5.386-6.41,13.978-9.994,22.324-9.282c8.347,0.69,16.226,5.653,20.477,12.887c5.186-6.432,13.666-10.016,21.879-9.282         c8.213,0.734,15.936,5.765,19.898,12.999c3.45-6.744,10.773-9.571,18.34-9.17c7.568,0.379,14.668,5.542,17.383,12.62         c3.005-8.859,11.641-15.491,20.967-16.137c9.326-0.623,18.763,4.808,22.925,13.177c4.251-7.634,12.553-12.843,21.256-13.399         c8.725-0.557,17.606,3.561,22.792,10.595c3.138-5.475,7.79-10.061,13.288-13.132         C434.788,387.108,438.617,385.839,442.356,385.706z"/>
							<path style="fill:#FFE4E0;" d="M281.084,172.607c5.748,0.932,10.538,5.583,12.327,11.124         c4.16-2.014,9.336-1.759,13.279,0.652c3.943,2.412,6.526,6.904,6.628,11.525c0.066,2.975-0.946,6.094-3.227,8.005         c-1.834,1.537-4.266,2.145-6.636,2.472c-11.064,1.525-22.751-2.434-30.609-10.37c-3.879-3.918-8.009-10.372-5.785-16.015         C269.148,174.709,275.691,171.734,281.084,172.607z"/>
							<g>
								<path style="fill:#FFE4E0;" d="M447.527,263.346c-19.546-30.111-44.684-56.111-69.655-81.903          c-4.522-4.671-9.173-9.436-15.026-12.267c-6.585-3.184-14.112-3.645-21.42-3.967c-63.95-2.817-128.17,0.772-191.441,10.491          c-10.22,1.57-18.462,9.471-20.216,19.661c-0.712,4.136-0.663,8.365,0.318,12.436c0.89,3.692,2.395,7.295,2.454,11.092          c0.068,4.388-1.803,8.567-2.371,12.919c-0.764,5.858,0.966,12,4.675,16.598c1.118,1.385,2.486,2.682,4.206,3.143          c2.977,0.799,9.006-0.859,11.451-2.737c8.848-6.798,13.72-15.027,20.424-23.947c18.028,13.038,43.336,15.189,63.306,5.379          c1.141,5.175,3.4,8.088,6.709,12.227c8.623,10.786,25.934,13.253,37.227,5.306c0.144,9.598,10.218,16.746,19.366,19.656          c9.148,2.91,18.976,2.382,28.536,3.259c-0.345,3.941,0.162,7.954,1.476,11.685c1.533,4.353,4.971,8.856,10.118,7.564          c2.046-0.513,3.744-1.988,4.767-3.832c2.516-4.534,1.504-9.549,0.489-14.299c7.511,7.667,18.805,10.222,29.335,12.303          c10.53,2.081,21.927,0.328,30.903-5.558c3.257,6.342,11.121,10.993,17.829,13.407c7.919,2.85,17.84,1.545,23.125-5.006          C449.269,280.566,451.999,270.235,447.527,263.346z"/>
								<g>
									<path style="fill:#FFF1EF;" d="M307.886,81.908c-0.022,1.046-0.045,2.092-0.067,3.138c-0.111,3.962-0.2,7.924-0.267,11.863           c-0.022,1.402-0.067,2.827-0.067,4.229c-0.089,3.94-0.156,7.879-0.2,11.819c-0.022,1.402-0.045,2.804-0.067,4.207           c-0.045,3.94-0.089,7.879-0.156,11.819c-0.022,1.402-0.022,2.805-0.045,4.207c-0.044,3.94-0.111,7.879-0.156,11.819           c-0.022,1.402-0.045,2.805-0.045,4.207c-0.067,3.94-0.133,7.879-0.223,11.841c-0.022,1.402-0.045,2.804-0.067,4.207           c-0.156,8.569-0.378,17.161-0.668,25.774c-0.111-0.601-0.735,0.379-1.336,0.356c-1.001-0.022-2.003-0.067-3.005-0.089           c-3.227-0.111-6.388-0.223-9.571-0.289c-5.164-0.111-9.081-4.563-8.636-9.704c0.178-2.07,0.356-4.162,0.49-6.232           c0.111-1.38,0.223-2.738,0.312-4.096c0.289-4.073,0.557-8.146,0.779-12.219c0.067-1.336,0.134-2.693,0.178-4.029           c0.223-4.051,0.378-8.08,0.49-12.131c0.067-1.335,0.111-2.693,0.133-4.029c0.111-4.006,0.178-8.013,0.223-12.019           c0.022-1.313,0.022-2.649,0.022-3.984c0.045-3.962,0.022-7.946-0.022-11.93c-0.022-1.313-0.022-2.649-0.067-3.962           c-0.045-3.94-0.133-7.879-0.289-11.819c-0.022-1.313-0.067-2.604-0.134-3.917c-0.133-4.14-0.334-8.28-0.556-12.42           c-0.089-1.447,0.111-3.294,1.491-3.717c0.645-0.2,1.335,0.045,1.959,0.267c4.429,1.536,8.836,3.071,13.243,4.629           c1.691,0.579,3.405,1.18,5.097,1.781C307.062,81.619,307.485,81.775,307.886,81.908z"/>
									<g>
										<path style="fill:#FFD974;" d="M307.886,81.908c-0.022,1.046-0.045,2.092-0.067,3.138            c-7.234,3.673-14.668,6.944-22.258,9.816c-0.022-1.313-0.067-2.604-0.134-3.917c7.234-2.804,14.334-5.965,21.234-9.46            C307.062,81.619,307.485,81.775,307.886,81.908z"/>
										<path style="fill:#FFD974;" d="M307.552,96.91c-0.022,1.402-0.067,2.827-0.067,4.229            c-7.011,3.539-14.223,6.722-21.568,9.504c-0.022-1.313-0.022-2.649-0.067-3.962            C293.24,103.81,300.496,100.538,307.552,96.91z"/>
										<path style="fill:#FFD974;" d="M307.285,112.958c-0.022,1.402-0.045,2.804-0.067,4.207            c-6.922,3.494-14.045,6.633-21.301,9.393c0.022-1.313,0.022-2.649,0.022-3.984            C293.218,119.724,300.34,116.519,307.285,112.958z"/>
										<path style="fill:#FFD974;" d="M307.062,128.983c-0.022,1.402-0.022,2.805-0.045,4.207            c-6.967,3.517-14.134,6.655-21.456,9.415c0.067-1.335,0.111-2.693,0.133-4.029            C292.973,135.75,300.118,132.545,307.062,128.983z"/>
										<path style="fill:#FFD974;" d="M306.862,145.009c-0.022,1.402-0.045,2.805-0.045,4.207            c-7.122,3.561-14.445,6.766-21.924,9.549c0.067-1.336,0.134-2.693,0.178-4.029            C292.506,151.864,299.784,148.637,306.862,145.009z"/>
										<path style="fill:#FFD974;" d="M306.595,161.057c-0.022,1.402-0.045,2.804-0.067,4.207            c-7.367,3.672-14.98,6.967-22.725,9.816c0.111-1.38,0.223-2.738,0.312-4.096            C291.771,168.09,299.294,164.774,306.595,161.057z"/>
									</g>
									<path style="opacity:0.43;fill:#FFE4E0;" d="M307.886,81.908c-0.022,1.046-0.045,2.092-0.067,3.138           c-0.111,3.962-0.2,7.924-0.267,11.863c-0.022,1.402-0.067,2.827-0.067,4.229c-0.089,3.94-0.156,7.879-0.2,11.819           c-0.022,1.402-0.045,2.804-0.067,4.207c-0.045,3.94-0.089,7.879-0.156,11.819c-0.022,1.402-0.022,2.805-0.045,4.207           c-0.044,3.94-0.111,7.879-0.156,11.819c-0.022,1.402-0.045,2.805-0.045,4.207c-0.067,3.94-0.133,7.879-0.223,11.841           c-0.022,1.402-0.045,2.804-0.067,4.207c-0.156,8.569-0.378,17.161-0.668,25.774c-0.111-0.601-0.735,0.379-1.336,0.356           c-1.001-0.022-2.003-0.067-3.005-0.089c-2.203-0.378-4.363-1.246-6.321-2.381c-0.312-0.178-0.645-0.379-0.801-0.69           c-0.2-0.378-0.134-0.823-0.045-1.246c3.094-17.494,3.962-35.278,4.83-53.017c0.467-9.615,0.935-19.253,1.358-28.868           c0.378-8.458,0.712-16.938,1.024-25.396c1.691,0.579,3.405,1.18,5.097,1.781C307.062,81.619,307.485,81.775,307.886,81.908           z"/>
								</g>
								<g>
									<path style="fill:#550E68;" d="M349.115,146.926c-3.523-5.68-3.77-13.244-0.625-19.143c0.384-0.721,0.829-1.434,1.478-1.93           c0.648-0.496,1.541-0.742,2.301-0.444c0.464,0.182,0.836,0.544,1.145,0.935c2.116,2.674,1.65,6.494,1.077,9.855           c-0.378,2.22-0.757,4.439-1.135,6.659c3.54-1.775,6.904-3.37,10.861-3.237c1.169,0.039,2.365,0.253,3.358,0.871           c0.993,0.619,1.751,1.702,1.743,2.871c-0.007,1.079-0.657,2.077-1.51,2.737c-0.853,0.66-1.893,1.028-2.93,1.326           C359.346,149.014,354.552,148.816,349.115,146.926z"/>
									<g>
										<path style="fill:#FF71B1;" d="M365.305,175.926c-2.504,4.362-6.574,7.598-10.869,10.21            c-8.731,5.296-18.818,8.359-29.015,8.8c-5.087,0.214-10.357-0.259-14.796-2.71c-2.272-1.243-4.192-2.957-5.754-4.984            c-3.371-4.311-5.057-10.042-4.902-15.595c0.222-8.116,3.891-15.815,8.625-22.416c4.882-6.807,11.388-12.958,19.536-14.9            c8.677-2.061,15.701,2.285,21.909,7.85c5.36,4.814,12.694,8.283,15.945,14.964c0.1,0.229,0.206,0.441,0.307,0.67            C368.819,163.552,368.46,170.487,365.305,175.926z"/>
										<g>
											<path style="fill:#370644;" d="M324.351,146.163c1.286,1.108,4.917-1.367,2.822-2.855             C325.358,142.019,322.759,144.79,324.351,146.163z"/>
											<path style="fill:#370644;" d="M325.774,157.02c1.285,1.108,4.917-1.367,2.822-2.855             C326.781,152.876,324.181,155.648,325.774,157.02z"/>
											<path style="fill:#370644;" d="M313.703,171.433c1.285,1.108,4.917-1.367,2.822-2.855             C314.71,167.288,312.11,170.06,313.703,171.433z"/>
											<path style="fill:#370644;" d="M338.495,152.885c1.286,1.108,4.917-1.367,2.822-2.855             C339.502,148.74,336.902,151.512,338.495,152.885z"/>
											<path style="fill:#370644;" d="M338.495,174.858c1.286,1.108,4.917-1.367,2.822-2.855             C339.502,170.714,336.902,173.486,338.495,174.858z"/>
											<path style="fill:#370644;" d="M324.572,181.394c1.286,1.108,4.917-1.367,2.822-2.855             C325.579,177.249,322.979,180.021,324.572,181.394z"/>
											<path style="fill:#370644;" d="M328.205,168.51c1.285,1.108,4.917-1.367,2.822-2.855             C329.212,164.366,326.612,167.137,328.205,168.51z"/>
											<path style="fill:#370644;" d="M345.253,165.29c1.286,1.108,4.917-1.367,2.822-2.855             C346.26,161.146,343.66,163.917,345.253,165.29z"/>
											<path style="fill:#370644;" d="M357.376,166.805c1.285,1.108,4.917-1.367,2.822-2.855             C358.383,162.661,355.783,165.433,357.376,166.805z"/>
											<path style="fill:#370644;" d="M313.437,159.011c1.286,1.108,4.917-1.367,2.822-2.855             C314.444,154.866,311.844,157.638,313.437,159.011z"/>
										</g>
										<path style="opacity:0.32;fill:#FF71B1;" d="M365.305,175.926c-2.504,4.362-6.574,7.598-10.869,10.21            c-8.731,5.296-18.818,8.359-29.015,8.8c-5.087,0.214-10.357-0.259-14.796-2.71c-2.272-1.243-4.192-2.957-5.754-4.984            c0.783,0.299,1.495,0.574,2.066,0.744c4.172,1.246,8.601,1.656,12.964,1.378c8.597-0.579,16.849-3.721,24.5-7.71            c5.071-2.649,10.006-5.715,13.945-9.857c3.728-3.917,6.455-8.774,7.946-13.981            C368.819,163.552,368.46,170.487,365.305,175.926z"/>
									</g>
								</g>
								<g>
									<g>
										<path style="fill:#550E68;" d="M288.943,174.871c-0.856,1.4-1.931,2.645-3.135,3.73            c-2.909,2.663-6.651,4.465-10.452,5.622c-5.315,1.616-11.111,2.188-16.464,0.669c-5.349-1.54-10.19-5.385-12.045-10.633            c-1.639-4.594-0.754-9.479,1.416-13.733c0.78-1.596,1.766-3.085,2.845-4.465c6.085-7.677,16.421-13.525,25.875-8.914            C287.182,152.126,295.938,163.492,288.943,174.871z"/>
										<path style="fill:#FFE4E0;" d="M278.192,160.996c0.634,1.311,1.416,2.601,2.59,3.462c1.174,0.861,2.816,1.21,4.11,0.543            c1.14-0.588,1.816-1.869,1.916-3.148c0.259-3.291-2.658-7.608-5.997-8.321            C276.152,152.537,276.897,158.317,278.192,160.996z"/>
										<path style="opacity:0.32;fill:#923EFF;" d="M285.808,178.601c-2.909,2.663-6.651,4.465-10.452,5.622            c-5.315,1.616-11.111,2.188-16.464,0.669c-5.349-1.54-10.19-5.385-12.045-10.633c-1.639-4.594-0.754-9.479,1.416-13.733            c0.372,2.563,1.186,5.075,2.429,7.351c3.635,6.606,10.447,11.054,17.71,12.415            C274.2,181.374,280.231,180.642,285.808,178.601z"/>
									</g>
									<path style="fill:#370644;" d="M265.73,146.742c-0.97,0.349-1.94,0.698-2.91,1.048c-1.342,0.483-2.903,1.229-3.062,2.647           c-0.036,0.321,0.019,0.671,0.234,0.912c0.263,0.296,0.696,0.365,1.092,0.369c2.025,0.022,3.863-1.139,5.447-2.399           c0.364-0.289,0.736-0.606,0.905-1.038c0.169-0.433,0.056-1.012-0.362-1.215"/>
								</g>
								<g>
									<g>
										<path style="fill:#550E68;" d="M317.729,207.823c-1.392,0.87-2.91,1.503-4.472,1.935            c-3.793,1.081-7.946,1.02-11.862,0.355c-5.477-0.931-10.917-3.011-15.026-6.762c-4.095-3.769-6.706-9.373-6.019-14.897            c0.588-4.843,3.564-8.816,7.406-11.651c1.411-1.079,2.959-1.97,4.541-2.722c8.876-4.146,20.736-4.755,27.13,3.596            C326.323,186.692,329.073,200.773,317.729,207.823z"/>
										<path style="fill:#FFE4E0;" d="M314.316,190.606c-0.019,1.456,0.103,2.959,0.769,4.254            c0.665,1.295,1.978,2.341,3.434,2.323c1.283-0.016,2.46-0.86,3.122-1.959c1.703-2.828,1.024-7.993-1.644-10.124            C316.273,182.127,314.355,187.631,314.316,190.606z"/>
										<path style="opacity:0.32;fill:#923EFF;" d="M313.257,209.758c-3.793,1.081-7.946,1.02-11.862,0.355            c-5.477-0.931-10.917-3.011-15.026-6.762c-4.095-3.769-6.706-9.373-6.019-14.897c0.588-4.843,3.564-8.816,7.406-11.651            c-0.813,2.46-1.208,5.069-1.114,7.661c0.298,7.535,4.402,14.558,10.29,19.023            C301.634,207.048,307.355,209.09,313.257,209.758z"/>
									</g>
									<path style="fill:#370644;" d="M309.543,172.284c-1.024-0.121-2.048-0.243-3.072-0.364           c-1.416-0.168-3.147-0.198-3.922,0.998c-0.176,0.272-0.282,0.609-0.198,0.921c0.103,0.382,0.459,0.637,0.812,0.818           c1.801,0.925,3.964,0.708,5.945,0.289c0.455-0.096,0.929-0.213,1.274-0.524c0.345-0.311,0.503-0.88,0.219-1.248"/>
								</g>
							</g>
						</g>
					</g>
					<g>
						<path style="fill:#D7A0FF;" d="M202.108,402.679c0,0-16.727,9.871-42.073,19.133c-6.291,2.304-18.932-1.234-26.161,0.835        c-11.709,3.357-18.683,11.98-32.019,13.597l-0.022-0.002c-17.465,2.137-35.87,2.181-53.98-1.371        c-12.519-2.46-9.603-11.422-21.476-17.819l-5.249-29.029l30.166-101.509l20.438-21.136l-3.367-36.266l6.685-22.497        l0.347-1.149l44.494,69.256l31.507,49.017l18.013,28.074l32.219,50.1L202.108,402.679z"/>
						<g>
							<path style="fill:#FFD974;" d="M74.868,205.816c-2.666-11.439-7.507-22.367-14.189-32.026         c0.789-0.597,1.474-1.203,2.445-1.396c6.842-1.355,13.791-2.17,20.761-2.436C82.993,182.627,81.309,194.871,74.868,205.816z"/>
							<path style="fill:#FFD974;" d="M75.445,205.557c7.957-8.734,15.027-18.276,21.066-28.431         c4.322,4.317,8.181,8.336,11.519,13.453C98.205,197.746,87.171,202.331,75.445,205.557z"/>
							<path style="fill:#FFD974;" d="M75.636,206.097c-10.692-6.62-23.868-7.402-36.429-8.002         c1.971-5.689,4.239-11.475,7.868-16.279c2.451,0.662,5.701,1.014,7.903,2.276c1.716,0.984,3.216,2.299,4.657,3.653         C65.226,192.999,71.585,199.584,75.636,206.097z"/>
						</g>
						<g>
							<path style="fill:#FFD974;" d="M88.272,260.612c-1.763,16.466-16.537,28.382-33.003,26.618         c-1.35-0.144-2.69-0.378-3.975-0.717l17.071-57.402C81.226,233.599,89.784,246.492,88.272,260.612z"/>
							<path style="fill:#FFD974;" d="M151.398,323.737c-6.181,6.501-15.236,10.165-24.863,9.134         c-16.466-1.763-28.379-16.56-26.616-33.025c1.275-11.906,9.368-21.426,19.972-25.126L151.398,323.737z"/>
							<path style="fill:#FFD974;" d="M201.631,401.911c-4.921,2.473-10.614,3.587-16.501,2.956         c-16.465-1.763-28.382-16.537-26.618-33.003c0.877-8.189,4.968-15.249,10.9-20.054L201.631,401.911z"/>
							<path style="fill:#FFD974;" d="M160.035,421.812c-16.496,6.046-36.611,11.816-58.179,14.431l-0.022-0.002         c-0.735-3.168-0.957-6.527-0.592-9.935c1.763-16.466,16.537-28.382,33.003-26.618         C146.947,401.048,156.941,410.154,160.035,421.812z"/>
							<path style="fill:#FFD974;" d="M52.929,421.132c-0.547,5.112-2.345,9.777-5.075,13.738         c-12.519-2.46-24.899-6.628-36.771-13.026l10.046-33.822c1.691-0.11,3.433-0.08,5.182,0.107         C42.776,389.893,54.692,404.667,52.929,421.132z"/>
							
								<ellipse transform="matrix(0.469 -0.8832 0.8832 0.469 -273.7669 255.1191)" style="fill:#FFD974;" cx="75.278" cy="355.229" rx="29.981" ry="29.982"/>
						</g>
						<path style="opacity:0.32;fill:#923EFF;" d="M202.108,402.679c0,0-16.727,9.871-42.073,19.133        c-6.291,2.304-13.137,4.57-20.365,6.639c-4.466-18.498-12.661-49.416-13.67-53.375        c-10.16-40.373-21.032-80.577-33.803-120.178c-3.21-9.947-6.539-19.839-10.004-29.702c-2.076-5.908-5.203-12.242-7.143-18.583        l0.347-1.149l44.494,69.256l31.507,49.017l18.013,28.074l32.219,50.1L202.108,402.679z"/>
					</g>
				</g>
				<path style="fill:#FFA368;" d="M404.615,94.033c7.905,8.389,12.868,18.744,15.427,30.182c-4.42,2.801-8.839,5.602-13.258,8.402      c-2.587,1.639-4.852,3.618-7.536,5.084c-2.347-11.877-4.991-24.293-13.967-32.207c0.881-0.975,1.708-1.668,2.855-2.371      C393.117,100.064,399.634,97.092,404.615,94.033z"/>
				<path style="fill:#550E68;" d="M197.323,277.401c3.23-11.065,9.645-20.588,18.212-28.587c4.653,2.392,9.307,4.785,13.96,7.177      c2.724,1.4,5.577,2.351,8.2,3.923c-9.053,8.038-18.419,16.606-20.698,28.354c-1.287-0.265-2.303-0.629-3.49-1.26      C208.347,284.261,202.484,280.148,197.323,277.401z"/>
				<path style="fill:#FFD974;" d="M357.625,334.84c8.628,7.644,14.502,17.51,18.08,28.672c-4.15,3.187-8.299,6.374-12.449,9.561      c-2.429,1.865-4.507,4.04-7.048,5.741c-3.406-11.618-7.156-23.745-16.808-30.82c0.789-1.051,1.551-1.814,2.63-2.618      C346.716,341.881,352.938,338.334,357.625,334.84z"/>
				<path style="fill:#923EFF;" d="M209.215,425.847c7.025-9.139,16.457-15.687,27.342-20.033      c3.468,3.917,6.937,7.835,10.405,11.752c2.03,2.293,4.344,4.215,6.218,6.631c-11.352,4.207-23.189,8.793-29.574,18.914      c-1.103-0.714-1.918-1.421-2.795-2.441C216.999,436.239,213.028,430.279,209.215,425.847z"/>
				<g>
					<path style="fill:#FFD974;" d="M177.591,147.902c-0.552,0-1-0.447-1-1v-41.295c0-0.553,0.448-1,1-1s1,0.447,1,1v41.295       C178.591,147.455,178.143,147.902,177.591,147.902z"/>
					<path style="fill:#FFD974;" d="M162.991,141.854c-0.256,0-0.512-0.098-0.707-0.293c-0.391-0.391-0.391-1.023,0-1.414l29.2-29.2       c0.391-0.391,1.023-0.391,1.414,0s0.391,1.023,0,1.414l-29.2,29.2C163.502,141.757,163.247,141.854,162.991,141.854z"/>
					<path style="fill:#FFD974;" d="M198.238,127.255h-41.295c-0.552,0-1-0.447-1-1s0.448-1,1-1h41.295c0.552,0,1,0.447,1,1       S198.791,127.255,198.238,127.255z"/>
					<path style="fill:#FFD974;" d="M192.191,141.854c-0.256,0-0.512-0.098-0.707-0.293l-29.2-29.2       c-0.391-0.391-0.391-1.023,0-1.414s1.023-0.391,1.414,0l29.2,29.2c0.391,0.391,0.391,1.023,0,1.414       C192.703,141.757,192.447,141.854,192.191,141.854z"/>
				</g>
				<g>
					<path style="fill:#FFD974;" d="M458.322,226.704c-0.552,0-1-0.447-1-1v-41.295c0-0.553,0.448-1,1-1s1,0.447,1,1v41.295       C459.322,226.257,458.874,226.704,458.322,226.704z"/>
					<path style="fill:#FFD974;" d="M443.722,220.656c-0.256,0-0.512-0.098-0.707-0.293c-0.391-0.391-0.391-1.023,0-1.414l29.2-29.2       c0.391-0.391,1.023-0.391,1.414,0s0.391,1.023,0,1.414l-29.2,29.2C444.233,220.559,443.978,220.656,443.722,220.656z"/>
					<path style="fill:#FFD974;" d="M478.969,206.057h-41.295c-0.552,0-1-0.447-1-1s0.448-1,1-1h41.295c0.552,0,1,0.447,1,1       S479.521,206.057,478.969,206.057z"/>
					<path style="fill:#FFD974;" d="M472.922,220.656c-0.256,0-0.512-0.098-0.707-0.293l-29.2-29.2       c-0.391-0.391-0.391-1.023,0-1.414s1.023-0.391,1.414,0l29.2,29.2c0.391,0.391,0.391,1.023,0,1.414       C473.434,220.559,473.178,220.656,472.922,220.656z"/>
				</g>
				<g>
					<path style="fill:#FFD974;" d="M474.612,359.303c-0.552,0-1-0.447-1-1v-41.295c0-0.553,0.448-1,1-1s1,0.447,1,1v41.295       C475.612,358.855,475.165,359.303,474.612,359.303z"/>
					<path style="fill:#FFD974;" d="M460.012,353.255c-0.256,0-0.512-0.098-0.707-0.293c-0.391-0.391-0.391-1.023,0-1.414       l29.2-29.199c0.391-0.391,1.023-0.391,1.414,0s0.391,1.023,0,1.414l-29.2,29.199       C460.524,353.157,460.268,353.255,460.012,353.255z"/>
					<path style="fill:#FFD974;" d="M495.26,338.655h-41.295c-0.552,0-1-0.447-1-1s0.448-1,1-1h41.295c0.552,0,1,0.447,1,1       S495.812,338.655,495.26,338.655z"/>
					<path style="fill:#FFD974;" d="M489.212,353.255c-0.256,0-0.512-0.098-0.707-0.293l-29.2-29.199       c-0.391-0.391-0.391-1.023,0-1.414s1.023-0.391,1.414,0l29.2,29.199c0.391,0.391,0.391,1.023,0,1.414       C489.724,353.157,489.468,353.255,489.212,353.255z"/>
				</g>
				<g>
					<path style="fill:#FFD974;" d="M162.437,483.567c-0.552,0-1-0.447-1-1v-41.296c0-0.553,0.448-1,1-1s1,0.447,1,1v41.296       C163.437,483.12,162.989,483.567,162.437,483.567z"/>
					<path style="fill:#FFD974;" d="M147.836,477.52c-0.256,0-0.512-0.098-0.707-0.293c-0.391-0.391-0.391-1.023,0-1.414l29.2-29.2       c0.391-0.391,1.023-0.391,1.414,0s0.391,1.023,0,1.414l-29.2,29.2C148.348,477.422,148.092,477.52,147.836,477.52z"/>
					<path style="fill:#FFD974;" d="M183.084,462.919h-41.295c-0.552,0-1-0.447-1-1s0.448-1,1-1h41.295c0.552,0,1,0.447,1,1       S183.636,462.919,183.084,462.919z"/>
					<path style="fill:#FFD974;" d="M177.037,477.52c-0.256,0-0.512-0.098-0.707-0.293l-29.2-29.2c-0.391-0.391-0.391-1.023,0-1.414       s1.023-0.391,1.414,0l29.2,29.2c0.391,0.391,0.391,1.023,0,1.414C177.548,477.422,177.292,477.52,177.037,477.52z"/>
				</g>
			</g>
		</g>
		<path style="fill:#FF71B1;" d="M261.318,125.308c0,3.975-3.223,7.198-7.198,7.198c-3.976,0-7.198-3.223-7.198-7.198    c0-3.975,3.223-7.198,7.198-7.198C258.095,118.109,261.318,121.332,261.318,125.308z"/>
		<circle style="fill:#FFD974;" cx="231.767" cy="55.977" r="7.198"/>
		<path style="fill:#FFD974;" d="M469.807,287.617c0,3.05-2.401,5.523-5.364,5.523c-2.962,0-5.364-2.473-5.364-5.523    s2.402-5.523,5.364-5.523C467.406,282.094,469.807,284.566,469.807,287.617z"/>
		<path style="fill:#FFD974;" d="M359.82,92.726c0,3.976-3.223,7.198-7.198,7.198c-3.976,0-7.198-3.223-7.198-7.198    c0-3.975,3.223-7.198,7.198-7.198C356.597,85.528,359.82,88.751,359.82,92.726z"/>
	</g>
</g>















</svg>
