<?xml version="1.0" encoding="UTF-8"?>
<!-- Generator: Adobe Illustrator 24.1.1, SVG Export Plug-In . SVG Version: 6.00 Build 0)  -->
<svg xmlns="http://www.w3.org/2000/svg" xmlns:xlink="http://www.w3.org/1999/xlink" version="1.1" id="Capa_1" x="0px" y="0px" viewBox="0 0 512 512" style="enable-background:new 0 0 512 512;" xml:space="preserve" width="512" height="512">
<g>
	<path style="fill:#FFFFFF;" d="M271.462,512c-19.679,0-39.162-2.759-57.903-8.201c-0.396-0.106-0.773-0.217-1.149-0.337   c-0.525-0.138-1.049-0.296-1.574-0.475c-43.854-13.343-82.515-41.314-109.066-78.869c-6.492-5.777-10.267-9.903-10.429-10.081   c-3.091-3.392-4.217-7.951-3.333-12.198c-15.947-29.915-24.34-63.504-24.34-97.655c0-24.761,4.276-48.827,12.725-71.722   c-3.345-1.95-6.559-4.121-9.619-6.502c-9.805-7.531-18.095-17.384-23.91-28.443c-5.126-9.634-8.371-20.182-9.615-31.293   c-0.377-3.54-0.553-6.913-0.525-10.093c0.089-23.813,9.945-46.566,27.187-63.042l6.023-22.476l1.246-4.695l4.449-16.595   c-1.838-0.163-3.649-0.692-5.322-1.585c-3.957-2.114-6.649-6.01-7.229-10.459c-0.041-0.313-0.115-0.597-0.174-0.875   c-0.342-1.601-0.914-4.28-0.648-7.64c0.403-5.067,3.54-9.509,8.18-11.584c1.431-0.639,2.927-1.161,4.46-1.561   c-0.228-2.498,0.223-5.039,1.346-7.345c1.782-3.659,5.078-6.352,9.018-7.368C83.618,0.296,86.098,0,88.844,0   c1.19,0,2.384,0.057,3.599,0.121c0.595,0.032,1.198,0.066,1.813,0.082c3.329,0.081,6.492,1.354,8.936,3.548   c0.477-0.05,0.959-0.075,1.438-0.075c1.443,0,2.89,0.225,4.29,0.68c3.767,1.222,6.831,3.993,8.425,7.617   c0.794,1.8,1.71,3.384,3.066,5.297c2.985,4.208,3.403,9.832,1.07,14.433c-1.617,3.186-4.308,5.564-7.625,6.867l1.499,1.837   c0.118,0.131,0.23,0.265,0.341,0.399l24.903,30.317c22.782,5.377,42.617,19.852,54.794,39.663   c8.064-3.174,16.344-5.846,24.747-7.986l5.554-2.088l1.857-7.478c1.273-5.133,5.35-9.098,10.517-10.228   c0.986-0.216,1.981-0.321,2.967-0.321c4.172,0,8.19,1.882,10.858,5.226l4.807,6.022l7.686-0.546   c0.33-0.024,0.658-0.035,0.986-0.035c3.197,0,6.254,1.102,8.69,3.055c24.494,0.294,48.198,4.752,70.742,13.285   c-0.68-1.158-1.232-2.488-1.585-4.019c-1.16-5.026,0.604-10.404,4.511-13.771c2.311-1.987,4.041-3.776,5.619-5.817   c2.422-3.131,6.065-5.079,10.013-5.357c0.325-0.023,0.651-0.034,0.975-0.034c2.092,0,4.138,0.472,5.997,1.361   c2.293-1.524,4.973-2.323,7.693-2.323c1.009,0,2.019,0.11,3.021,0.332c0.76,0.17,1.511,0.312,2.252,0.456   c3.401,0.656,7.634,1.473,12.12,3.902c3.58,1.938,6.13,5.348,6.976,9.329c0.719,3.389,0.145,6.903-1.576,9.865   c2.463,1.078,4.789,2.46,6.915,4.123c4.002,3.131,5.976,8.197,5.147,13.21c-0.599,3.618-1.893,6.264-2.75,8.015   c-0.185,0.381-0.389,0.768-0.561,1.205c-1.635,4.179-5.19,7.311-9.54,8.407c-0.832,0.21-1.673,0.34-2.517,0.393   c51.475,39.215,81.764,99.88,81.764,165.215c0,57.892-24.437,113.605-67.043,152.853c-4.285,3.962-8.624,7.643-13.271,11.259   c-9.413,7.317-19.413,13.804-29.721,19.286c-0.55,0.307-1.097,0.595-1.644,0.882l-2.537,1.312   c-14.671,7.399-30.171,13.036-46.052,16.744C303.558,510.155,287.553,512,271.462,512z"/>
	<g>
		<path style="fill:#923EFF;" d="M463.021,304.183c0,56.429-24.104,107.207-62.565,142.635l-0.023,0.023    c-3.983,3.682-8.081,7.155-12.365,10.489c-8.729,6.784-18.038,12.851-27.855,18.061c-0.695,0.394-1.389,0.741-2.084,1.111    c-0.556,0.278-1.112,0.579-1.667,0.857c-7.035,3.548-15.64,1.639-23.133,4.33c-6.885,2.473-12.625,9.614-19.843,11.299    c-14.264,3.357-29.106,5.117-44.388,5.117c-18.802,0-36.979-2.686-54.159-7.688c-0.347-0.093-0.672-0.185-0.996-0.301    c-0.394-0.093-0.787-0.208-1.181-0.347c-42.211-12.782-78.333-39.572-102.924-74.976c-0.023-0.023-0.023-0.046-0.046-0.069    c-0.185-0.208-0.324-0.44-0.44-0.648c-2.779-3.983-5.372-8.058-7.803-12.226v-0.023c-16.764-28.689-26.351-62.032-26.351-97.644    c0-27.971,5.928-54.553,16.602-78.565c2.617-5.928,5.534-11.716,8.706-17.297c4.562-7.989,9.679-15.63,15.282-22.854    c15.861-20.469,35.751-37.673,58.466-50.431c2.871-1.621,5.812-3.172,8.776-4.631c1.181-0.602,2.362-1.181,3.566-1.714    c25.031-11.809,53.002-18.408,82.501-18.408c30.842,0,59.995,7.201,85.882,20.006c0.486,0.232,0.95,0.463,1.412,0.718    c5.048,2.524,9.98,5.303,14.75,8.266c0.787,0.463,1.551,0.949,2.292,1.435c0.44,0.278,0.88,0.556,1.297,0.857    C427.895,176.136,463.021,236.061,463.021,304.183z"/>
		<g>
			<path style="fill:#FF9BBF;" d="M400.433,446.841c-3.983,3.682-8.081,7.155-12.365,10.489     c-8.729,6.784-18.038,12.851-27.855,18.061c-0.695,0.394-1.389,0.741-2.084,1.111c-0.556,0.278-1.112,0.579-1.667,0.857     c-6.46,3.258-13.126,1.17-19.974,3.708c-7.463,2.766-15.141,10.086-23.002,11.921c-14.264,3.357-29.106,5.117-44.388,5.117     c-18.802,0-36.979-2.686-54.159-7.688c-0.347-0.093-0.672-0.185-0.996-0.301v-36.956c-0.556,0.093-1.112,0.162-1.667,0.232     c-0.092,0.023-0.185,0.023-0.278,0.023c-0.533,0.092-1.042,0.139-1.551,0.208c-0.162,0.023-0.301,0.046-0.463,0.046     c-0.787,0.093-1.574,0.162-2.362,0.208c-0.116,0.023-0.232,0.046-0.347,0.046c-0.255,0.023-0.486,0.046-0.741,0.046     c-0.764,0.069-1.528,0.093-2.293,0.116c-0.115,0.023-0.232,0.023-0.37,0.023c-1.528,0.069-3.057,0.093-4.562,0.069     c-1.227,0-2.454-0.046-3.658-0.093c-2.431-0.093-4.839-0.301-7.224-0.602c-2.385-0.278-4.747-0.648-7.062-1.111     c-1.158-0.232-2.315-0.463-3.473-0.718c-3.45-0.764-6.831-1.691-10.142-2.755c-3.126-0.996-6.182-2.107-9.169-3.335     c-0.162-0.069-0.324-0.139-0.486-0.208c-1.065-0.44-2.084-0.88-3.126-1.32c-1.019-0.463-2.038-0.903-3.057-1.389     c-0.996-0.463-1.991-0.95-2.987-1.435c-2.964-1.436-5.812-2.964-8.567-4.562c-1.829-1.042-3.612-2.107-5.372-3.196     c-0.324-0.208-0.648-0.393-0.972-0.602c-0.533-0.347-1.065-0.695-1.598-1.019c-2.431-1.552-4.747-3.149-6.97-4.724     c-4.677-3.334-8.822-6.599-12.365-9.563c-1.158-0.949-2.223-1.876-3.242-2.755c-0.208-0.185-0.44-0.393-0.648-0.579l-0.023-0.023     c-4.585-4.052-7.711-7.201-9.1-8.66c-0.116-0.116-0.208-0.208-0.301-0.301c-0.347-0.371-0.51-0.556-0.51-0.556l2.293-2.825     v-0.023l3.45-4.26l1.158-1.436l3.913-4.862l0.139-0.208l6.947-8.59l17.968-22.321c0,0,8.289,6.831,21.465,13.36     c0.532,0.278,1.088,0.533,1.667,0.811c0.579,0.278,1.134,0.556,1.713,0.81c0.718,0.324,1.482,0.672,2.246,0.996     c1.83,0.811,3.751,1.598,5.719,2.339c0.694,0.255,1.412,0.533,2.153,0.787c0.393,0.139,0.787,0.278,1.181,0.417l2.501,0.834     c0.811,0.255,1.644,0.509,2.478,0.741c0.764,0.232,1.528,0.44,2.316,0.648c0.509,0.139,0.995,0.278,1.505,0.393     c1.343,0.324,2.709,0.649,4.099,0.926c0.648,0.162,1.297,0.278,1.945,0.394c0.648,0.116,1.297,0.232,1.945,0.347     c0.648,0.116,1.32,0.208,1.991,0.301c1.158,0.185,2.316,0.324,3.496,0.417c0.255,0.046,0.51,0.069,0.764,0.092     c1.274,0.139,2.547,0.232,3.867,0.278c0.672,0.046,1.366,0.069,2.084,0.069c1.181,0.046,2.385,0.046,3.589,0     c0.509,0,1.019,0,1.528-0.023c0.857-0.023,1.713-0.069,2.547-0.116c0.533-0.046,1.042-0.069,1.575-0.116     c1.875-0.116,3.705-0.278,5.511-0.486c0.185-0.023,0.394-0.046,0.602-0.069c0.973-0.093,1.945-0.232,2.894-0.371     c2.547-0.324,5.002-0.741,7.363-1.204c11.67-2.223,21.372-5.627,28.55-8.776c0.602-0.255,1.158-0.509,1.713-0.741     c3.427-1.552,6.206-3.01,8.267-4.168c0.602-0.324,1.111-0.625,1.598-0.903c1.065-0.625,1.829-1.112,2.269-1.39     c0.301-0.185,0.463-0.301,0.463-0.301l0.509-5.372l0.37-3.82l0.625-6.738l0.069-0.625l0.996,0.023l36.052,0.787l0.44,8.035     l0.139,2.292l0.208,3.844c0,0,0.092,0.023,0.254,0.093c0.093,0.046,0.232,0.092,0.394,0.139c0.232,0.093,0.533,0.208,0.88,0.347     c0.255,0.093,0.533,0.208,0.857,0.324c0.579,0.232,1.274,0.51,2.061,0.81c0.486,0.208,1.019,0.417,1.574,0.648     c1.366,0.579,2.941,1.25,4.677,2.014c0.093,0.046,0.185,0.069,0.278,0.116c0.811,0.371,1.644,0.741,2.501,1.134     c4.423,2.061,9.679,4.631,15.329,7.757c1.574,0.88,3.195,1.783,4.839,2.732c5.465,3.172,11.161,6.831,16.764,10.906     c3.404,2.501,6.761,5.141,10.003,7.966c0.857,0.741,1.69,1.505,2.524,2.292c0.625,0.556,1.227,1.158,1.829,1.76     c0.394,0.371,0.787,0.764,1.181,1.181c0.486,0.463,0.949,0.949,1.389,1.435c0.88,0.926,1.737,1.876,2.57,2.825     c0.833,0.949,1.667,1.945,2.454,2.918l0.023,0.023c0.023,0.023,0.046,0.046,0.046,0.069c0.695,0.833,1.343,1.667,1.992,2.524     c0.648,0.857,1.297,1.713,1.922,2.593c0.301,0.417,0.625,0.857,0.926,1.297c0.301,0.44,0.625,0.88,0.903,1.297     c0.579,0.833,1.134,1.667,1.667,2.501c1.088,1.69,2.13,3.357,3.08,5.002c0.417,0.695,0.81,1.366,1.181,2.061     c0.486,0.833,0.926,1.644,1.366,2.478c0.51,0.949,1.019,1.922,1.482,2.848c0.347,0.649,0.672,1.32,0.972,1.968     c0.162,0.324,0.324,0.648,0.463,0.95c0.37,0.764,0.717,1.528,1.065,2.269c0.695,1.529,1.343,3.01,1.945,4.446     c0.301,0.695,0.579,1.389,0.856,2.061c0,0.046,0,0.069,0.023,0.093C400.433,446.771,400.433,446.818,400.433,446.841z"/>
			<g>
				<path style="fill:#550E68;" d="M307.918,361.031c-7.155,4.122-16.023,5.65-24.359,5.002c-3.798-0.301-7.641-0.996-11.022-2.732      c-1.181-0.602-2.292-1.343-3.311-2.223l0.996-10.559c0.347-0.232,0.694-0.417,1.065-0.602l36.052,0.787L307.918,361.031z"/>
				<g>
					<path style="fill:#FFA368;" d="M400.456,446.818l-0.023,0.023c-3.983,3.682-8.081,7.155-12.365,10.489       c-8.729,6.784-18.038,12.851-27.855,18.061c-0.695,0.394-1.389,0.741-2.084,1.111c-0.556,0.278-1.112,0.579-1.667,0.857       c-6.539,3.298-15.493,1.419-22.43,3.979c-7.383,2.724-12.774,9.836-20.546,11.651c-14.264,3.357-29.106,5.117-44.388,5.117       c-18.802,0-36.979-2.686-54.159-7.688c-0.347-0.093-0.672-0.185-0.996-0.301v-36.956c-0.556,0.093-1.112,0.162-1.667,0.232       c-0.092,0.023-0.185,0.023-0.278,0.023c-0.533,0.092-1.042,0.139-1.551,0.208c-0.162,0.023-0.301,0.046-0.463,0.046       c-0.046,0.023-0.093,0.023-0.139,0.023c-0.857,0.093-1.713,0.185-2.57,0.232c-0.255,0.023-0.486,0.046-0.741,0.046       c-0.764,0.069-1.528,0.093-2.293,0.116c-0.115,0.023-0.232,0.023-0.37,0.023c-1.528,0.069-3.057,0.093-4.562,0.069       c-1.227,0-2.454-0.046-3.658-0.093c-2.431-0.116-4.839-0.324-7.224-0.602c-2.385-0.301-4.747-0.672-7.062-1.111       c-1.158-0.232-2.315-0.463-3.473-0.718c-3.45-0.764-6.831-1.713-10.142-2.755c-3.126-1.019-6.182-2.131-9.169-3.335       c-0.162-0.069-0.324-0.139-0.486-0.208c-1.065-0.44-2.084-0.88-3.126-1.32c-1.019-0.463-2.038-0.903-3.057-1.389       c-0.996-0.463-1.991-0.95-2.987-1.435c-2.964-1.459-5.812-2.987-8.567-4.562c-1.829-1.042-3.612-2.107-5.372-3.196       c-0.324-0.208-0.648-0.393-0.972-0.602c-0.533-0.347-1.065-0.695-1.598-1.019c-2.431-1.574-4.77-3.172-6.97-4.724       c-4.677-3.334-8.822-6.599-12.365-9.563c-1.181-0.995-2.269-1.922-3.288-2.825c-0.208-0.162-0.394-0.324-0.602-0.509       l-0.023-0.023c-4.585-4.052-2.63-7.782-4.019-9.241c-0.116-0.116-0.208-0.231-0.301-0.301c-0.347-0.371-0.51-0.556-0.51-0.556       l0.977-0.888l0.355-0.977l-0.669-4.664l1.158-1.436l3.774-4.677l0.139-0.185l7.086-8.799l17.968-22.321       c0,0,8.289,6.831,21.465,13.36c0.532,0.278,1.088,0.533,1.667,0.811c0.579,0.278,1.134,0.556,1.713,0.81       c0.741,0.347,1.482,0.672,2.246,0.996c1.83,0.811,3.751,1.598,5.719,2.339c0.694,0.278,1.412,0.533,2.153,0.787       c0.393,0.139,0.787,0.278,1.181,0.417l2.501,0.834c0.811,0.255,1.644,0.509,2.478,0.741c0.764,0.232,1.528,0.44,2.316,0.648       c0.509,0.139,0.995,0.254,1.505,0.393c1.343,0.324,2.709,0.649,4.099,0.926c0.648,0.139,1.297,0.278,1.945,0.394       c0.648,0.116,1.297,0.232,1.945,0.347c0.672,0.093,1.32,0.208,1.991,0.301c1.158,0.185,2.316,0.324,3.496,0.417       c0.255,0.046,0.51,0.069,0.764,0.092c1.274,0.116,2.57,0.208,3.867,0.278l2.084,0.069c1.181,0.046,2.385,0.046,3.589,0       c0.509,0,1.019,0,1.528-0.023c0.857-0.023,1.713-0.069,2.547-0.116c0.533-0.023,1.042-0.069,1.575-0.116       c1.875-0.139,3.705-0.301,5.511-0.486c0.185-0.023,0.394-0.046,0.602-0.069c0.973-0.116,1.945-0.232,2.894-0.371       c2.547-0.347,5.002-0.741,7.363-1.204c11.67-2.223,21.372-5.627,28.55-8.776c0.602-0.255,1.158-0.509,1.713-0.741       c3.427-1.552,6.206-3.01,8.267-4.168c0.602-0.324,1.134-0.625,1.598-0.903c1.065-0.625,1.829-1.112,2.269-1.39       c1.667,2.084,4.423,3.334,7.062,4.098c11.138,3.242,23.687,0.903,33.065-5.881c0.093,0.046,0.232,0.092,0.394,0.139       c0.232,0.093,0.533,0.208,0.88,0.347c0.255,0.093,0.533,0.208,0.857,0.324c0.579,0.232,1.274,0.51,2.061,0.81       c0.486,0.208,1.019,0.417,1.574,0.648c1.366,0.579,2.941,1.25,4.677,2.014c0.093,0.046,0.185,0.069,0.278,0.116       c0.787,0.371,1.621,0.741,2.501,1.134c4.423,2.061,9.679,4.631,15.329,7.757c1.574,0.88,3.195,1.783,4.839,2.732       c5.465,3.172,11.161,6.831,16.764,10.906c3.404,2.501,6.761,5.141,10.003,7.966c0.857,0.741,1.69,1.505,2.524,2.292       c0.625,0.556,1.227,1.158,1.829,1.76c0.394,0.371,0.787,0.764,1.181,1.181c0.486,0.463,0.949,0.949,1.389,1.435       c0.88,0.926,1.737,1.876,2.57,2.825c0.833,0.949,1.667,1.945,2.454,2.918l0.023,0.023c0.023,0.023,0.046,0.046,0.046,0.069       c0.695,0.833,1.343,1.667,1.992,2.524c0.648,0.857,1.297,1.713,1.922,2.593c0.301,0.417,0.625,0.857,0.926,1.297       c0.301,0.44,0.625,0.88,0.903,1.297c0.579,0.833,1.134,1.667,1.667,2.501c1.088,1.69,2.13,3.357,3.08,5.002       c0.417,0.695,0.81,1.366,1.181,2.061c0.486,0.833,0.926,1.644,1.366,2.478c0.51,0.949,1.019,1.922,1.482,2.848       c0.347,0.649,0.672,1.32,0.972,1.968c0.162,0.324,0.324,0.648,0.463,0.95c0.37,0.764,0.717,1.528,1.065,2.269       c0.695,1.529,1.343,3.01,1.945,4.446c0.301,0.695,0.579,1.389,0.856,2.061c0,0.046,0,0.069,0.023,0.093       C400.41,446.771,400.433,446.794,400.456,446.818z"/>
					<g>
						<path style="fill:#FFE4E0;" d="M211.57,394.444c0,12.62-10.235,22.854-22.854,22.854c-12.643,0-22.877-10.234-22.877-22.854        c0-5.65,2.038-10.79,5.418-14.773c10.142,3.473,21.812,5.882,34.107,5.418c1.389-0.046,2.755-0.116,4.122-0.231        C210.829,387.775,211.57,391.017,211.57,394.444z"/>
						<path style="fill:#FFE4E0;" d="M120.524,394.444c0,8.428-4.562,15.792-11.369,19.751c-6.344-5.604-9.91-9.517-9.91-9.517        l17.899-22.206C119.297,385.946,120.524,390.045,120.524,394.444z"/>
						<path style="fill:#FFE4E0;" d="M242.297,464.997c0,12.62-10.234,22.854-22.854,22.854c-1.899,0-3.751-0.232-5.511-0.672        v-34.015c-4.955,0.764-9.841,1.088-14.634,1.019c3.844-7.178,11.439-12.064,20.145-12.064        C232.062,442.12,242.297,452.355,242.297,464.997z"/>
						
							<ellipse transform="matrix(0.1607 -0.987 0.987 0.1607 -187.2 634.951)" style="fill:#FFE4E0;" cx="279.749" cy="427.548" rx="22.859" ry="22.859"/>
						<path style="fill:#FFE4E0;" d="M358.535,391.897c-3.983,6.715-11.3,11.207-19.659,11.207        c-12.643,0-22.877-10.235-22.877-22.854c0-3.983,1.019-7.734,2.825-10.999C328.688,373.651,343.993,381.292,358.535,391.897z"/>
						<path style="fill:#FFE4E0;" d="M400.456,446.818l-0.023,0.023c-3.983,3.682-8.081,7.155-12.365,10.489        c-0.88,0.116-1.783,0.162-2.686,0.162c-12.619,0-22.854-10.234-22.854-22.854c0-10.952,7.711-20.099,17.992-22.345        c0.023,0.023,0.046,0.046,0.046,0.069c0.695,0.833,1.343,1.667,1.992,2.524c0.648,0.857,1.297,1.713,1.922,2.593        c0.301,0.417,0.625,0.857,0.926,1.297c0.301,0.44,0.625,0.88,0.903,1.297c0.579,0.833,1.134,1.667,1.667,2.501        c1.088,1.69,2.13,3.357,3.08,5.002c0.417,0.695,0.81,1.366,1.181,2.061c0.486,0.833,0.926,1.644,1.366,2.478        c0.51,0.949,1.019,1.922,1.482,2.848c0.347,0.649,0.672,1.32,0.972,1.968c0.162,0.324,0.324,0.648,0.463,0.95        c0.37,0.764,0.717,1.528,1.065,2.269c0.695,1.529,1.343,3.01,1.945,4.446c0.301,0.695,0.579,1.389,0.856,2.061        c0,0.046,0,0.069,0.023,0.093C400.41,446.771,400.433,446.794,400.456,446.818z"/>
						<path style="fill:#FFE4E0;" d="M356.462,477.359c-13.499,6.808-27.902,12.11-42.976,15.63        c-0.926-2.454-1.412-5.117-1.412-7.896c0-12.62,10.234-22.854,22.854-22.854C344.838,462.239,353.289,468.537,356.462,477.359        z"/>
					</g>
					<g>
						<path style="fill:#370644;" d="M214.938,490.419c-0.347-0.093-0.672-0.185-0.996-0.301c-0.394-0.093-0.787-0.208-1.181-0.347        l-0.486-36.376l-0.139-10.073l-0.185-14.773c0-0.602,0.486-1.088,1.088-1.088c0.648-0.023,1.065,0.463,1.088,1.065        l0.185,14.194l0.579,44.666L214.938,490.419z"/>
						<path style="fill:#370644;" d="M360.213,475.391c-0.695,0.394-1.389,0.741-2.084,1.111c-0.44-6.692-1.297-13.384-2.547-19.983        c-0.116-0.579,0.254-1.158,0.857-1.273c0.579-0.116,1.158,0.278,1.25,0.857C358.893,462.471,359.749,468.931,360.213,475.391z        "/>
					</g>
				</g>
			</g>
			<path style="fill:#FF9BBF;" d="M105.124,397.709c0,0-26.615-29.263-17.836-50.165c8.779-20.902,17.975-25.361,30.099-20.902     c0,0,1.517-9.104,7.107-8.221c8.444,1.333,10.832,29.983,9.857,43.081L105.124,397.709z"/>
			<path style="fill:#D7A0FF;" d="M200.332,187.328c0,0-0.132,0-0.296,0c-0.163,0-0.296,0-0.296,0s0.132,0,0.296,0     C200.2,187.328,200.332,187.328,200.332,187.328z"/>
			<g>
				<g>
					<path style="fill:#370644;" d="M122.901,350.637c-0.333,0-0.658-0.166-0.848-0.469c-0.293-0.468-0.152-1.085,0.316-1.378       c4.713-2.955,1.427-11.615-0.237-14.703c-3.003-5.573-7.888-8.597-13.064-8.098c-0.549,0.06-1.039-0.349-1.092-0.898       c-0.054-0.55,0.349-1.039,0.898-1.092c6.007-0.584,11.62,2.834,15.018,9.139c2.376,4.41,5.337,13.71-0.461,17.346       C123.267,350.588,123.083,350.637,122.901,350.637z"/>
					<path style="fill:#370644;" d="M117.84,356.415c-0.454,0-0.865-0.311-0.973-0.772c-0.126-0.538,0.208-1.076,0.746-1.201       c1.348-0.315,2.55-1.289,3.138-2.542c0.499-1.062,0.644-2.408,0.458-4.235c-0.274-2.69-1.037-4.98-2.266-6.804       c-2.157-3.199-4.747-5.489-7.917-7c-1.891-0.901-4.786-1.267-6.736-0.851c-0.54,0.115-1.072-0.229-1.187-0.77       c-0.115-0.54,0.229-1.071,0.77-1.187c2.404-0.513,5.699-0.101,8.014,1.001c3.502,1.669,6.353,4.184,8.715,7.688       c1.416,2.1,2.29,4.697,2.597,7.72c0.141,1.386,0.229,3.442-0.637,5.287c-0.854,1.821-2.534,3.182-4.493,3.639       C117.992,356.406,117.915,356.415,117.84,356.415z"/>
					<path style="fill:#370644;" d="M109.931,364.819c-0.88,0-1.76-0.197-2.581-0.641c-0.886-0.479-1.591-1.178-2.214-1.794       l-3.83-3.796c-0.392-0.389-0.395-1.022-0.006-1.415c0.389-0.393,1.021-0.395,1.415-0.006l3.83,3.797       c0.552,0.547,1.124,1.113,1.757,1.456c2.009,1.081,4.701-0.172,5.863-1.977c1.575-2.446,1.171-5.597,0.79-7.257       c-1.111-4.836-4.388-9.12-8.764-11.46c-1.389-0.743-4.042-1.828-6.199-0.756c-0.497,0.245-1.096,0.044-1.341-0.45       c-0.246-0.495-0.044-1.095,0.45-1.341c2.963-1.474,6.305-0.142,8.033,0.783c4.878,2.609,8.53,7.385,9.77,12.776       c0.78,3.397,0.405,6.518-1.057,8.788C114.63,363.413,112.28,364.819,109.931,364.819z"/>
				</g>
				<path style="fill:#370644;" d="M104.856,362.04c-0.057,0-0.115-0.005-0.173-0.015c-1.182-0.206-2.826-0.235-4.146-0.259      l-0.233-0.004c-0.552-0.01-0.991-0.466-0.981-1.019c0.01-0.552,0.47-0.957,1.019-0.981l0.232,0.004      c1.39,0.025,3.119,0.056,4.454,0.289c0.544,0.095,0.908,0.613,0.813,1.157C105.755,361.697,105.333,362.04,104.856,362.04z"/>
			</g>
			<path style="fill:#370644;" d="M132.637,440.104c-0.114,0-0.23-0.02-0.343-0.061c-0.519-0.19-0.786-0.764-0.596-1.283     c2.691-7.362,1.579-15.932-2.901-22.363c-3.373-4.841-8.447-8.361-13.354-11.766c-5.198-3.605-10.572-7.333-14.141-12.704     c-6.382-9.606-5.135-23.657,2.84-31.989c0.382-0.398,1.014-0.413,1.414-0.031c0.399,0.382,0.413,1.015,0.031,1.414     c-7.354,7.683-8.504,20.641-2.619,29.5c3.356,5.051,8.571,8.669,13.614,12.167c5.053,3.505,10.277,7.129,13.855,12.266     c4.847,6.958,6.05,16.229,3.14,24.193C133.428,439.852,133.044,440.104,132.637,440.104z"/>
			<g>
				<g>
					<g>
						<g>
							<path style="fill:#FF9BBF;" d="M208.45,258.039c-2.835-4.275-8.285-5.973-13.388-6.496c-3.212-0.329-6.504-0.308-9.609,0.577         c-8.528,2.429-14.271,11.622-13.602,20.465c0.669,8.842,7.115,16.735,15.33,20.074c8.215,3.339,17.829,2.4,25.76-1.565         C211.314,280.659,214.286,266.84,208.45,258.039z"/>
						</g>
						<path style="fill:#370644;" d="M210.05,277.448c-0.267,0-0.534-0.106-0.73-0.317c-5.904-6.313-15.509-9.171-23.906-7.116        c-0.533,0.131-1.078-0.197-1.209-0.733c-0.131-0.536,0.197-1.078,0.733-1.209c9.215-2.258,19.36,0.762,25.842,7.692        c0.377,0.403,0.356,1.036-0.047,1.414C210.54,277.358,210.295,277.448,210.05,277.448z"/>
					</g>
				</g>
				<g>
					<g>
						<g>
							<g>
								<path style="fill:#FF9BBF;" d="M374.604,269.191c3.041-4.131,8.568-5.561,13.69-5.833c3.224-0.171,6.512,0.011,9.57,1.046          c8.399,2.843,13.685,12.307,12.584,21.105c-1.1,8.799-7.925,16.367-16.294,19.3c-8.368,2.933-17.925,1.525-25.653-2.823          C370.638,291.643,368.344,277.696,374.604,269.191z"/>
							</g>
							<path style="fill:#370644;" d="M372.106,288.499c-0.261,0-0.522-0.102-0.718-0.304c-0.385-0.396-0.375-1.03,0.021-1.414         c6.813-6.606,17.092-9.125,26.188-6.419c0.529,0.158,0.831,0.714,0.673,1.244s-0.716,0.829-1.244,0.673         c-8.283-2.465-18.019-0.079-24.225,5.938C372.608,288.405,372.357,288.499,372.106,288.499z"/>
						</g>
					</g>
					<path style="fill:#FF9BBF;" d="M380.046,272.07c0,8.892-1.32,17.482-3.775,25.586c-6.275,20.654-19.913,38.113-37.858,49.274       c-13.499,8.382-29.407,13.221-46.449,13.221c-17.714,0-34.223-5.233-48.047-14.24c-17.829-11.624-31.167-29.522-36.932-50.571       c-2.015-7.409-3.103-15.213-3.103-23.271c0-48.648,39.433-88.081,88.082-88.081S380.046,223.421,380.046,272.07z"/>
					<g>
						<path style="fill:#550E68;" d="M336.825,168.704c-5.106-4.104-11.307-6.63-17.598-8.457        c-28.493-8.277-60.722-2.459-84.523,15.258s-38.622,46.921-38.869,76.591c1.476,0.202,2.659,0.685,3.819,1.234        c0.313,5.51,1.863,11.037,4.09,15.938c0.177,0.389,0.359,0.78,0.56,1.158c0.335,0.631,0.724,1.228,1.23,1.732        c5.372,5.343,9.556-3.996,11.208-8.006c2.423-5.883,4.521-12.962,4.425-19.727c4.678-5.06,8.798-10.635,12.189-16.635        c3.75,4.211,9.519,5.372,15.155,5.515c15.781,0.398,31.194-10.473,36.116-25.471c8.263,5.349,19.548,8.309,29.375,7.739        c9.826-0.571,19.569-5.174,25.422-13.088c3.827-5.175,5.867-11.463,7.153-17.769        C347.885,178.296,341.932,172.808,336.825,168.704z"/>
						<path style="fill:#550E68;" d="M380.84,201.296c-7.093-7.906-16.984-12.893-27.232-15.688        c-4.192-1.144-8.758-1.929-12.802-0.339c-4.044,1.59-5.468,10.962-3.757,14.956c-2.939,7.639-3.499,16.393-0.404,23.971        c3.095,7.577,10.163,13.689,18.302,14.555c-0.063,7.83,1.779,15.263,7.009,21.091c1.718,1.915,3.694,3.583,5.825,5.022        c-0.739,7.719,0.428,15.944,3.899,21.622c0.277,0.454,0.57,0.892,0.879,1.314c5.206,7.109,10.888-10.725,12.012-14.401        c0.715-2.339,1.253-4.785,1.614-7.266c2.369-3.55,3.847-8.018,4.774-11.969C395.22,235.998,393.302,215.185,380.84,201.296z"/>
					</g>
					<g>
						<g>
							<path style="fill:#FF71B1;" d="M279.185,289.388c-1.31,3.419-1.694,7.038-0.063,10.353c1.157,2.353,3.332,4.158,5.824,4.972         c4.688,1.532,10.62,0.24,13.262-3.914c2.125-3.34,2.226-8.48,1.357-12.335c-1.469-6.519-8.558-15.733-14.746-8.242         C282.741,282.736,280.498,285.961,279.185,289.388z"/>
							<g>
								<path style="fill:#550E68;" d="M258.86,282.657c0,5.306-4.301,9.607-9.607,9.607c-5.306,0-9.607-4.301-9.607-9.607          c0-5.306,4.301-9.607,9.607-9.607C254.559,273.05,258.86,277.352,258.86,282.657z"/>
								<path style="fill:#550E68;" d="M336.898,286.795c0,5.306-4.301,9.607-9.607,9.607s-9.607-4.301-9.607-9.607          c0-5.306,4.301-9.607,9.607-9.607S336.898,281.49,336.898,286.795z"/>
								<path style="fill:#550E68;" d="M237.945,263.595c0.293,0.146,0.596,0.273,0.897,0.39c5.037,1.962,11.719,2.288,16.662-0.207          c4.314-2.177,7.282-6.813,2.556-10.327c-6.383-4.747-15.789-3.159-20.707,2.93c-1.332,1.649-2.306,4.061-1.127,5.822          C236.643,262.825,237.267,263.258,237.945,263.595z"/>
								<path style="fill:#550E68;" d="M342.761,266.255c-0.293,0.145-0.596,0.273-0.897,0.391          c-5.037,1.962-11.718,2.287-16.661-0.208c-4.314-2.177-7.282-6.813-2.556-10.327c6.383-4.747,15.788-3.159,20.707,2.93          c1.332,1.649,2.306,4.061,1.127,5.822C344.063,265.486,343.439,265.918,342.761,266.255z"/>
							</g>
							<path style="fill:#370644;" d="M293.222,314.883c-2.571,0-5.144-0.803-7.221-2.33c-0.445-0.327-0.541-0.953-0.213-1.398         c0.327-0.445,0.954-0.542,1.398-0.213c2.57,1.89,6.051,2.453,9.084,1.468c3.035-0.983,5.524-3.48,6.498-6.517         c0.168-0.525,0.732-0.816,1.257-0.647c0.526,0.168,0.816,0.731,0.647,1.257c-1.167,3.639-4.15,6.631-7.786,7.809         C295.704,314.696,294.463,314.883,293.222,314.883z"/>
						</g>
						<g>
							<path style="fill:#FF71B1;" d="M257.973,319.746c0,10.929-5.581,20.561-14.055,26.165         c-17.829-11.624-31.167-29.522-36.932-50.571c5.372-4.33,12.226-6.923,19.658-6.923         C243.941,288.417,257.973,302.449,257.973,319.746z"/>
							<path style="fill:#FF71B1;" d="M376.271,297.656c-6.275,20.654-19.913,38.113-37.858,49.274         c-9.378-5.418-15.699-15.56-15.699-27.184c0-17.297,14.032-31.329,31.329-31.329         C362.726,288.417,370.575,291.96,376.271,297.656z"/>
						</g>
					</g>
					<g>
						<g>
							<path style="fill:#923EFF;" d="M373.409,118.138c-0.935-8.856-5.055-17.341-11.436-23.552         c-2.292,2.964-4.695,5.396-7.536,7.839c-0.319,0.275,1.044,0.889,1.451,0.997         C363.407,105.405,370.424,110.957,373.409,118.138z"/>
							<path style="fill:#923EFF;" d="M373.305,118.157c1.061-8.148,1.847-16.332,2.357-24.533         c3.781,0.842,7.372,1.169,10.779,3.014C381.333,103.281,377.607,110.965,373.305,118.157z"/>
							<path style="fill:#923EFF;" d="M373.092,118.127c3.356-1.434,6.776-2.88,10.406-3.265c4.705-0.498,9.585,0.9,13.311,3.816         c-0.41,2.472-1.625,4.092-2.539,6.425c-4.273-3.626-10.123-5.921-15.663-6.762         C376.646,118.043,375.294,118.022,373.092,118.127z"/>
						</g>
						<g>
							<path style="fill:#FFD974;" d="M375.808,202.304l-14.171-8.058l-10.072-5.743l-7.387-4.214l-29.708-16.926l-4.279-3.01         l3.77-3.566l15.861-11.786l3.148-1.337l2.965-3.201l16.232-12.087c0.023,0,0.023,0,0.023,0l2.381-0.781l2.852-3.133         l16.324-12.133l0.509-0.393l0.162,8.706l-0.951,2.986l1.067,4.053v0.023l0.185,9.702v0.023l-0.949,2.884l1.065,3.692v0.023         l0.278,14.981l-0.951,3.153l1.044,2.798l0.255,14.518l-0.945,2.746l1.061,3.042L375.808,202.304z"/>
							<g>
								<path style="fill:#923EFF;" d="M336.011,163.532c0,2.367-1.919,4.286-4.286,4.286s-4.286-1.919-4.286-4.286          c0-2.367,1.919-4.286,4.286-4.286S336.011,161.165,336.011,163.532z"/>
								<path style="fill:#923EFF;" d="M336.005,145.204c0,2.362-1.922,4.284-4.284,4.284c-0.695,0-1.343-0.162-1.899-0.486          l6.113-4.538C335.982,144.694,336.005,144.949,336.005,145.204z"/>
								<path style="fill:#923EFF;" d="M357.441,150.674c0,2.367-1.919,4.286-4.286,4.286c-2.367,0-4.286-1.919-4.286-4.286          s1.919-4.286,4.286-4.286C355.522,146.388,357.441,148.307,357.441,150.674z"/>
								<path style="fill:#923EFF;" d="M357.423,128.463c-0.116,2.246-1.991,4.029-4.26,4.029c-0.324,0-0.648-0.046-0.972-0.116          L357.423,128.463z"/>
								<path style="fill:#923EFF;" d="M374.535,131.681v0.023c-0.695,0.509-1.551,0.787-2.454,0.787          c-2.385,0-4.284-1.922-4.284-4.284c0-2.362,1.899-4.284,4.284-4.284c0.394,0,0.764,0.046,1.135,0.162          c0.44,0.116,0.834,0.301,1.204,0.556L374.535,131.681z"/>
								<path style="fill:#923EFF;" d="M374.836,148.005v0.023c-0.741,0.648-1.713,1.019-2.755,1.019          c-0.857,0-1.644-0.255-2.315-0.695c-1.181-0.741-1.968-2.084-1.968-3.589c0-1.968,1.32-3.612,3.126-4.098          c0.371-0.139,0.764-0.185,1.158-0.185c0.996,0,1.922,0.347,2.64,0.926v0.023L374.836,148.005z"/>
								<path style="fill:#923EFF;" d="M375.206,168.961c-0.787,0.834-1.899,1.366-3.126,1.366c-2.385,0-4.284-1.922-4.284-4.284          c0-2.362,1.899-4.284,4.284-4.284c1.181,0,2.246,0.486,3.033,1.25L375.206,168.961z"/>
								<path style="fill:#923EFF;" d="M375.577,189.268c-0.787,0.903-1.922,1.459-3.219,1.459c-2.362,0-4.284-1.922-4.284-4.284          c0-2.362,1.922-4.284,4.284-4.284c1.227,0,2.315,0.509,3.103,1.32L375.577,189.268z"/>
								<path style="fill:#923EFF;" d="M352.121,186.443c0,0.741-0.185,1.459-0.556,2.061l-7.387-4.214          c0.695-1.274,2.084-2.13,3.659-2.13C350.199,182.159,352.121,184.081,352.121,186.443z"/>
								<path style="fill:#923EFF;" d="M315.767,164.26c0,1.204-0.486,2.316-1.297,3.103l-5.279-3.01l4.77-3.566          C315.049,161.551,315.767,162.825,315.767,164.26z"/>
								<path style="fill:#923EFF;" d="M359.067,171.513c0,2.367-1.919,4.286-4.286,4.286c-2.367,0-4.286-1.919-4.286-4.286          c0-2.367,1.919-4.286,4.286-4.286C357.148,167.227,359.067,169.146,359.067,171.513z"/>
							</g>
						</g>
						<path style="opacity:0.49;fill:#FFD974;" d="M375.808,202.304l-14.171-8.058c1.135-5.581,2.2-11.207,3.242-16.811        c1.783-9.679,3.404-19.357,4.886-29.083c0.371-2.315,0.718-4.654,1.065-6.993c0.023-0.232,0.069-0.463,0.093-0.695        c0.417-2.732,0.787-5.441,1.158-8.174c0.394-2.802,0.764-5.603,1.135-8.405c0.046-0.208,0.069-0.44,0.093-0.648        c0.139-1.065,0.116-4.214,0.44-7.109l0.509-0.393l0.162,8.706l0.116,7.039v0.023l0.185,9.702v0.023l0.116,6.576v0.023        l0.278,14.981l0.093,5.951l0.255,14.518l0.116,5.789L375.808,202.304z"/>
					</g>
				</g>
			</g>
			<g>
				<g>
					<path style="fill:#FF71B1;" d="M116.647,227.759c-2.643,5.257-5.062,10.628-7.247,16.091c4.206,0.747,8.664,1.809,12.918,1.418       c3.213-0.296,6.456-0.939,9.273-2.512c-1.729-5.117-2.934-10.736-4.663-15.852       C123.661,227.294,119.937,227.695,116.647,227.759z"/>
					<path style="fill:#370644;" d="M122.409,332.162c-0.312,0-0.619-0.145-0.814-0.417c-0.322-0.449-0.218-1.074,0.23-1.396       c10.003-7.167,19.201-14.471,21.849-24.994c2.215-8.804-1.241-18.848-8.403-24.425c-2.635-2.052-5.745-3.562-8.753-5.023       c-1.7-0.826-3.458-1.68-5.139-2.631c-4.19-2.374-9.431-6.462-10.604-12.462c-1.144-5.854,1.841-11.095,4.727-16.164       c2.172-3.815,4.419-7.76,4.862-11.906c0.059-0.549,0.554-0.942,1.101-0.888c0.549,0.059,0.947,0.551,0.888,1.101       c-0.487,4.56-2.838,8.689-5.112,12.683c-2.831,4.97-5.504,9.665-4.502,14.79c1.026,5.254,5.801,8.939,9.626,11.105       c1.625,0.921,3.354,1.761,5.027,2.573c3.101,1.506,6.307,3.063,9.108,5.244c7.769,6.049,11.517,16.943,9.114,26.492       c-2.813,11.179-12.306,18.74-22.623,26.131C122.814,332.102,122.611,332.162,122.409,332.162z"/>
					<path style="fill:#FF71B1;" d="M183.738,190.587c-5.233,10.119-12.782,18.941-22.02,25.702       c-3.357,2.454-6.947,4.654-10.721,6.506c-7.549,3.751-15.884,6.275-24.753,7.248c-19.82,2.177-38.692-3.682-53.303-15.051       c-8.289-6.368-15.19-14.518-20.145-23.942c-4.237-7.965-7.039-16.857-8.104-26.374c-0.301-2.825-0.463-5.65-0.44-8.428       c0.139-37.071,28.087-68.955,65.807-73.123c40.568-4.469,77.083,24.799,81.552,65.367       C193.277,163.566,190.267,178.084,183.738,190.587z"/>
					<g>
						<path style="opacity:0.4;fill:#FF71B1;" d="M150.997,222.796c-7.549,3.751-15.884,6.275-24.753,7.248        c-19.82,2.177-38.692-3.682-53.303-15.051c-8.289-6.368-15.19-14.518-20.145-23.942c-4.237-7.965-7.039-16.857-8.104-26.374        c-0.301-2.825-0.463-5.65-0.44-8.428c8.174,16.07,22.113,29.43,36.979,40.081C101.769,211.01,125.989,222.217,150.997,222.796        z"/>
						<g>
							<path style="fill:#FF9BBF;" d="M97.671,192.648c0,12.411-10.073,22.46-22.483,22.46c-0.764,0-1.505-0.046-2.246-0.116         c-8.289-6.368-15.19-14.518-20.145-23.942c0.811-11.67,10.536-20.863,22.391-20.863         C87.598,170.188,97.671,180.237,97.671,192.648z"/>
							<path style="fill:#FF9BBF;" d="M183.738,190.587c-5.233,10.119-12.782,18.941-22.02,25.702h-0.208         c-12.411,0-22.46-10.049-22.46-22.46s10.049-22.46,22.46-22.46C172.808,171.369,182.163,179.705,183.738,190.587z"/>
						</g>
						<g>
							<path style="fill:#FFEFD7;" d="M165.639,114.022c-0.194,1.451,0.417,2.888,1.162,4.148c0.697,1.18,1.524,2.283,2.461,3.283         c0.672,0.718,1.5,1.424,2.483,1.435c0.659,0.007,1.276-0.304,1.849-0.631c0.521-0.297,1.041-0.622,1.43-1.078         c0.657-0.768,0.872-1.847,0.737-2.849c-0.136-1.001-0.591-1.934-1.148-2.777         C172.979,113.079,166.455,107.922,165.639,114.022z"/>
							<path style="fill:#FFEFD7;" d="M173.58,129.349c-0.132,1.133-0.015,2.328,0.192,3.446c0.59,3.191,1.517,6.32,2.761,9.318         c0.952,2.295,2.13,4.566,3.973,6.232c0.675,0.61,1.463,1.144,2.36,1.296c4.456,0.756,3.128-7.745,2.817-10.163         c-0.477-3.708-4.373-18.476-10.24-13.741C174.267,126.687,173.74,127.973,173.58,129.349z"/>
						</g>
						<g>
							<path style="fill:#550E68;" d="M98.845,170.971c0,3.918-3.176,7.094-7.094,7.094c-3.918,0-7.094-3.176-7.094-7.094         s3.176-7.094,7.094-7.094C95.668,163.877,98.845,167.053,98.845,170.971z"/>
							<path style="fill:#550E68;" d="M154.121,170.971c0,3.918-3.176,7.094-7.094,7.094c-3.918,0-7.094-3.176-7.094-7.094         s3.176-7.094,7.094-7.094C150.945,163.877,154.121,167.053,154.121,170.971z"/>
							<path style="fill:#550E68;" d="M119.947,186.602c-0.061,0-0.12,0-0.18-0.001c-4.399-0.067-9.326-2.474-10.229-6.945         c-0.044-0.216,0.096-0.426,0.312-0.47c0.218-0.041,0.426,0.096,0.47,0.312c0.82,4.058,5.379,6.244,9.459,6.306         c4.38,0.039,9.443-2.441,10.742-7.362c0.056-0.213,0.274-0.34,0.487-0.284c0.213,0.056,0.34,0.274,0.284,0.487         C129.907,183.894,124.572,186.602,119.947,186.602z"/>
						</g>
					</g>
					<g>
						<path style="fill:#370644;" d="M121.928,232.475c-2.206,0-4.613-0.376-7.209-1.13c-0.53-0.154-0.835-0.709-0.682-1.239        c0.154-0.53,0.708-0.836,1.239-0.682c5.03,1.459,9.218,1.399,12.449-0.182c0.495-0.242,1.095-0.037,1.338,0.459        c0.243,0.496,0.037,1.095-0.459,1.338C126.648,231.996,124.416,232.475,121.928,232.475z"/>
						<path style="fill:#370644;" d="M107.688,247.583c-0.196,0-0.398-0.021-0.604-0.067c-1.151-0.258-2.074-1.297-2.296-2.585        c-0.155-0.9,0.001-1.876,0.478-2.984c0.819-1.899,2.245-3.634,4.486-5.459l0,0c4.703-3.829,8.469-5.732,11.175-5.648        c0.332,0.01,0.637,0.184,0.814,0.463c0.178,0.28,0.205,0.63,0.073,0.935c-2.274,5.236-7.521,10.333-10.994,13.706        C110.29,246.459,109.131,247.583,107.688,247.583z M111.015,238.039c-1.982,1.615-3.226,3.108-3.912,4.7        c-0.319,0.74-0.432,1.346-0.344,1.853c0.083,0.476,0.41,0.895,0.761,0.973c0.595,0.13,1.375-0.539,1.908-1.056        c2.979-2.894,7.311-7.101,9.728-11.416C117.427,233.59,114.834,234.929,111.015,238.039L111.015,238.039z"/>
						<path style="fill:#370644;" d="M133.28,246.417c-0.627,0-1.277-0.116-1.916-0.351c-1.354-0.498-2.461-1.43-3.366-2.277l0,0        c-1.704-1.597-3.242-3.392-4.571-5.335c-0.128-0.188-0.275-0.396-0.435-0.623c-1.212-1.717-2.872-4.068-2.729-5.978        c0.037-0.49,0.424-0.881,0.914-0.922c1.453-0.121,3.232,0.67,4.659,1.307c0.343,0.153,0.667,0.298,0.96,0.417        c1.823,0.743,3.625,1.592,5.355,2.524c1.822,0.982,3.653,2.148,4.707,4.011c1.116,1.973,1.038,5.004-1.035,6.462        C135.104,246.158,134.217,246.417,133.28,246.417z M129.365,242.329c0.796,0.746,1.673,1.487,2.688,1.86        c0.962,0.354,1.966,0.287,2.619-0.172c1.12-0.788,1.135-2.622,0.445-3.841c-0.805-1.422-2.357-2.396-3.916-3.235        c-1.667-0.899-3.403-1.717-5.161-2.433c-0.311-0.126-0.655-0.28-1.021-0.443c-0.765-0.341-1.718-0.767-2.548-0.991        c0.454,1.196,1.511,2.693,2.154,3.604c0.166,0.235,0.319,0.453,0.452,0.647C126.325,239.148,127.767,240.832,129.365,242.329        L129.365,242.329z"/>
					</g>
				</g>
				<g>
					<g>
						<path style="fill:#923EFF;" d="M88.49,34.067c2.499-6.87,7.462-12.813,13.776-16.498c1.239,2.815,2.671,5.229,4.451,7.738        c0.2,0.282-1.007,0.502-1.353,0.506C98.98,25.904,92.29,28.937,88.49,34.067z"/>
						<path style="fill:#923EFF;" d="M88.569,34.103c0.769-6.702,1.764-13.377,2.982-20.012c-3.18-0.078-6.105-0.529-9.185,0.266        C85.12,20.661,86.566,27.521,88.569,34.103z"/>
						<path style="fill:#923EFF;" d="M88.744,34.121c-2.389-1.808-4.828-3.637-7.643-4.662c-3.65-1.329-7.814-1.181-11.361,0.403        c-0.163,2.05,0.484,3.582,0.75,5.621c4.122-2.042,9.237-2.712,13.818-2.284C85.93,33.35,87.011,33.601,88.744,34.121z"/>
					</g>
					<g>
						<path style="fill:#FFD974;" d="M69.906,100.645l12.886-3.612l9.162-2.58l6.719-1.894l27.021-7.6l4.802-1.352l-3.094-3.786        l-10.301-12.532l-3.971-4.827l-10.537-12.845c-0.019-0.005-0.019-0.005-0.019-0.005l-3.394-4.154l-10.602-12.9l-0.328-0.415        l-1.854,6.904l-1.486,5.585l-0.005,0.018l-2.07,7.693l-0.005,0.018l-1.395,5.216l-0.005,0.019l-3.189,11.88l-1.253,4.723        l-3.079,11.516l-1.239,4.589L69.906,100.645z"/>
						<g>
							<path style="fill:#923EFF;" d="M109.292,77.64c-0.469,1.886,0.68,3.795,2.566,4.264c1.886,0.469,3.795-0.68,4.264-2.566         c0.469-1.886-0.68-3.795-2.565-4.264C111.67,74.606,109.761,75.754,109.292,77.64z"/>
							<path style="fill:#923EFF;" d="M112.928,63.039c-0.468,1.882,0.682,3.793,2.564,4.261c0.553,0.138,1.102,0.137,1.609-0.011         l-3.971-4.827C113.047,62.638,112.978,62.836,112.928,63.039z"/>
							<path style="fill:#923EFF;" d="M94.766,63.151c-0.469,1.886,0.68,3.795,2.566,4.264c1.886,0.469,3.795-0.68,4.264-2.566         c0.469-1.886-0.68-3.795-2.566-4.264C97.143,60.116,95.235,61.265,94.766,63.151z"/>
							<path style="fill:#923EFF;" d="M99.18,45.459c-0.353,1.813,0.788,3.604,2.596,4.054c0.258,0.064,0.526,0.091,0.798,0.1         L99.18,45.459z"/>
							<path style="fill:#923EFF;" d="M84.91,44.634l-0.005,0.018c0.452,0.543,1.08,0.935,1.799,1.113         c1.9,0.472,3.794-0.682,4.261-2.564c0.468-1.882-0.664-3.789-2.564-4.261c-0.314-0.078-0.618-0.115-0.936-0.095         c-0.373,0.005-0.723,0.074-1.069,0.204L84.91,44.634z"/>
							<path style="fill:#923EFF;" d="M81.437,57.579l-0.005,0.019c0.462,0.663,1.163,1.151,1.993,1.358         c0.682,0.17,1.36,0.123,1.982-0.095c1.088-0.356,1.981-1.27,2.279-2.47c0.39-1.568-0.336-3.139-1.678-3.884         c-0.268-0.184-0.572-0.299-0.886-0.377c-0.793-0.197-1.6-0.104-2.287,0.215l-0.005,0.018L81.437,57.579z"/>
							<path style="fill:#923EFF;" d="M76.99,74.201c0.462,0.82,1.242,1.464,2.22,1.707c1.9,0.472,3.793-0.682,4.261-2.564         c0.468-1.882-0.664-3.789-2.564-4.261c-0.941-0.234-1.886-0.058-2.664,0.395L76.99,74.201z"/>
							<path style="fill:#923EFF;" d="M72.673,90.306c0.448,0.875,1.242,1.543,2.275,1.8c1.882,0.468,3.793-0.683,4.261-2.564         c0.468-1.882-0.683-3.793-2.564-4.261c-0.978-0.243-1.946-0.053-2.734,0.437L72.673,90.306z"/>
							<path style="fill:#923EFF;" d="M91.919,92.701c-0.147,0.59-0.141,1.199,0.035,1.752l6.719-1.894         c-0.301-1.152-1.238-2.11-2.493-2.422C94.299,89.67,92.387,90.82,91.919,92.701z"/>
							<path style="fill:#923EFF;" d="M125.275,82.23c-0.239,0.959-0.071,1.941,0.418,2.729l4.802-1.352l-3.094-3.786         C126.384,80.214,125.56,81.087,125.275,82.23z"/>
							<path style="fill:#923EFF;" d="M89.342,79.431c-0.469,1.886,0.68,3.795,2.566,4.264c1.886,0.469,3.795-0.68,4.264-2.565         c0.469-1.886-0.68-3.795-2.566-4.264C91.72,76.397,89.811,77.545,89.342,79.431z"/>
						</g>
					</g>
					<path style="opacity:0.49;fill:#FFD974;" d="M69.906,100.645l12.886-3.612c0.201-4.671,0.467-9.364,0.747-14.035       c0.497-8.064,1.123-16.096,1.869-24.138c0.163-1.918,0.35-3.85,0.537-5.782c0.027-0.189,0.036-0.383,0.064-0.572       c0.209-2.259,0.45-4.491,0.697-6.741c0.242-2.31,0.501-4.616,0.761-6.921c0.005-0.175,0.032-0.364,0.055-0.535       c0.1-0.876,0.743-3.38,1.058-5.75l-0.328-0.415l-1.854,6.904l-1.486,5.585l-0.005,0.018l-2.07,7.693l-0.005,0.018l-1.395,5.216       l-0.005,0.019l-3.189,11.88l-1.253,4.723l-3.079,11.516l-1.239,4.589L69.906,100.645z"/>
				</g>
			</g>
		</g>
		<g>
			<g>
				<polygon style="fill:#FFD974;" points="427.731,210.055 431.947,224.46 446.204,229.154 433.806,237.615 433.748,252.624       421.87,243.448 407.577,248.031 412.634,233.899 403.859,221.722 418.861,222.164     "/>
				<polygon style="fill:#FFD974;" points="263.007,107.244 254.745,119.775 260.384,133.685 245.913,129.7 234.426,139.361       233.745,124.367 221.006,116.428 235.056,111.147 238.67,96.579 248.035,108.309     "/>
				<polygon style="fill:#FFD974;" points="176.879,315.379 188.199,325.235 202.736,321.497 196.86,335.309 204.907,347.979       189.956,346.659 180.393,358.228 177.028,343.6 163.07,338.08 175.942,330.359     "/>
			</g>
			<g>
				<path style="fill:#FF71B1;" d="M404.008,341.029c-1.106-7.75,3.068-13.316,8.758-16.257c4.154-2.147,9.63-3.108,15.52-0.434      c1.466,3.034,3.477,6.385,5.281,9.359C420.696,329.331,408.944,332.143,404.008,341.029z"/>
				<path style="fill:#FFA368;" d="M404.015,336.511c-0.105,6.077-3.116,10.71-7.295,13.811c-4.178,3.101-9.397,4.086-14.749,5.616      c3.844,3.212,7.287,7.03,10.017,11.108c5.809-0.412,9.961-3.039,12.561-7.472c2.6-4.433,3.063-10.55,1.288-17.016      C405.326,340.699,405.007,338.37,404.015,336.511z"/>
			</g>
			<g>
				<path style="fill:#D7A0FF;" d="M141.169,263.37c0.709-7.796,6.053-12.251,12.267-13.802c4.537-1.132,10.087-0.806,15.203,3.154      c0.728,3.29,1.912,7.014,2.983,10.324C160.104,255.832,148.02,255.86,141.169,263.37z"/>
				<path style="fill:#FFD974;" d="M142.217,258.975c-1.501,5.889-5.5,9.704-10.281,11.759c-4.78,2.055-10.086,1.811-15.646,2.067      c3.001,4.011,5.472,8.52,7.189,13.117c5.747,0.937,10.393-0.662,13.945-4.377c3.551-3.715,5.411-9.56,5.173-16.261      C142.528,263.353,142.754,261.013,142.217,258.975z"/>
			</g>
			<g>
				<path style="fill:#FFEFD7;" d="M222.206,164.271c0,2.612-2.117,4.729-4.729,4.729c-2.612,0-4.73-2.117-4.73-4.729      s2.118-4.73,4.73-4.73C220.089,159.542,222.206,161.659,222.206,164.271z"/>
				<path style="fill:#FFEFD7;" d="M440.652,288.126c0,2.612-2.117,4.729-4.729,4.729c-2.612,0-4.73-2.117-4.73-4.729      c0-2.612,2.117-4.73,4.73-4.73C438.534,283.396,440.652,285.514,440.652,288.126z"/>
				<path style="fill:#FFEFD7;" d="M417.595,398.679c0,2.612-2.117,4.729-4.729,4.729c-2.612,0-4.73-2.117-4.73-4.729      c0-2.612,2.117-4.729,4.73-4.729C415.478,393.949,417.595,396.067,417.595,398.679z"/>
				<path style="fill:#FFEFD7;" d="M102.195,310.591c0,2.612-2.118,4.73-4.729,4.73c-2.612,0-4.73-2.118-4.73-4.73      c0-2.612,2.118-4.729,4.73-4.729C100.077,305.861,102.195,307.979,102.195,310.591z"/>
				<path style="fill:#FFEFD7;" d="M200.924,468.735c0,2.612-2.118,4.73-4.73,4.73s-4.729-2.118-4.729-4.73s2.117-4.729,4.729-4.729      S200.924,466.122,200.924,468.735z"/>
			</g>
		</g>
	</g>
</g>















</svg>
