<?xml version="1.0" encoding="UTF-8"?>
<!-- Generator: Adobe Illustrator 24.1.1, SVG Export Plug-In . SVG Version: 6.00 Build 0)  -->
<svg xmlns="http://www.w3.org/2000/svg" xmlns:xlink="http://www.w3.org/1999/xlink" version="1.1" id="Capa_1" x="0px" y="0px" viewBox="0 0 512 512" style="enable-background:new 0 0 512 512;" xml:space="preserve" width="512" height="512">
<g>
	<path style="fill:#FFFFFF;" d="M497.167,387.708c-0.167,0-0.337,0.002-0.504,0.009c0,0-1.025,0.035-2.949,0.128   c0.088-0.246,0.172-0.494,0.251-0.747c0.506-1.654,1.274-3.664,2.086-5.791c0.944-2.476,1.921-5.037,2.712-7.619   c0.692-2.26,1.026-4.411,1.053-6.77c0.044-3.81-1.443-7.478-4.123-10.188c-0.615-0.622-1.283-1.183-1.993-1.678   C505.708,326.786,512,296.023,512,265.145c0-42.533-11.587-83.655-33.612-119.633c9.984-11.531,19.269-25.48,18.431-42.588   c-0.531-10.798-5.659-20.181-13.724-25.102c-6.183-3.77-12.789-4.262-17.227-4.304l-0.615-0.002   c-13.174,0-26.637,3.666-40.928,11.162c-14.084-11.095-29.33-20.452-45.526-27.948c1.639-7.998,1.79-17.31-3.194-25.988   c-5.209-9.069-15.066-15.104-26.364-16.141c-1.21-0.111-2.448-0.167-3.682-0.167c-6.802,0-14.017,1.721-21.451,5.118   c-8.303,3.798-16.299,9.285-24.299,16.689c-5.787-0.434-11.606-0.654-17.371-0.654c-110.718,0-203.382,78.796-224.865,183.251   c-0.895,0.037-1.793,0.16-2.68,0.369c-4.124,0.977-7.598,3.738-9.482,7.533l-1.465,2.96c-1.792,3.622-4.792,9.687-3.826,17.227   c0.17,1.332,0.458,2.615,0.857,3.842c-0.021,0.548-0.015,1.102,0.019,1.664c0.065,1.207,0.124,2.415,0.162,3.622   c0.003,0.1,0.043,1.239,0.047,1.346c0.044,1.114,0.07,2.23,0.082,3.346c0.001,0.107,0.021,1.253,0.021,1.253   c0.013,1.16,0.02,2.318,0.006,3.626c0,0-0.021,2.281-0.031,2.886c-4.956,0.125-9.421,0.271-13.729,0.446   c-6.841,0.274-13.597,3.445-18.536,8.698c-3.749,3.986-6.502,9.192-7.962,15.055c-1.884,7.573-1.244,14.784,1.853,20.853   c1.453,2.844,3.445,5.341,5.827,7.36l2.819,13.366l0.784,3.671l3.029,14.392c-4.214,2.898-6.982,7.754-6.982,13.243   c0,8.856,7.204,16.06,16.059,16.06h6.058l5.448,4.014c2.449,1.805,5.413,2.78,8.456,2.78h22.225   c-1.021,7.863-1.02,16.106-0.005,24.619c-0.088,0.209-0.172,0.422-0.249,0.638c-0.775,2.137-1.21,4.081-1.56,5.643   c-0.141,0.631-0.274,1.264-0.457,1.893l-3.312,11.403c-1.676,5.775,0.451,11.981,5.318,15.512   c4.018,2.916,8.219,5.336,12.547,7.234c1.368,3.127,2.834,6.287,4.384,9.445l0.559,1.16c10.532,21.965,16.709,31.148,27.705,31.148   l256.235,0.014c1.09,0.267,2.224,0.406,3.383,0.406l36.502,0.002l68.604-0.002c6.508,0,12.19-4.408,13.807-10.712l5.104-19.925   l2.877-11.15l12.902-50.27c1.118-4.353,0.114-8.977-2.703-12.478C505.564,389.657,501.474,387.708,497.167,387.708z"/>
	<g>
		<circle style="fill:#FF71B1;" cx="282.441" cy="265.145" r="215.303"/>
		<g>
			<g>
				<path style="fill:#FFE4E0;" d="M430.158,482.907c0,0-318.578-0.018-318.596-0.018c-4.15,0-13.712-20.749-15.463-24.321      c-10.356-21.11-18.548-45.088-15.246-68.923c0.668-4.781,2.057-9.671,5.304-13.225c8.949-9.797,24.015-5.359,33.09,1.552      c8.732,6.622,15.444,15.914,25.26,21.092c12.72,6.694,28.706,4.998,41.065-1.714c5.557-3.013,10.537-7.145,14.849-11.728      c0.541-0.559,1.786-2.418,3.302-4.673c3.139-4.709,7.343-11.186,8.119-11.204c51.674-1.552,111.197-14.127,156.411,10.934      c2.58,1.425,5.088,2.959,7.542,4.583C408.201,406.605,429.833,444.043,430.158,482.907z"/>
				<path style="fill:#370644;" d="M375.796,385.26c-15.336,9.202-31.935,16.274-49.274,20.623      c-28.255,7.073-58.476,6.766-86.226-2.057c-13.857-4.403-27.785-11.692-36.572-22.878c3.139-4.709,7.343-11.186,8.119-11.204      c51.674-1.552,111.197-14.127,156.411,10.934C370.834,382.103,373.342,383.636,375.796,385.26z"/>
				<g>
					<path style="fill:#FFE4E0;" d="M241.371,202.974c1.865-52.723,22.275-104.608,56.831-144.471       c9.044-10.432,19.282-20.245,31.838-25.987c5.604-2.563,11.757-4.287,17.893-3.721c6.136,0.566,12.243,3.705,15.312,9.048       c4.087,7.115,2.065,16.08-0.63,23.831c-17.691,50.893-58.307,90.106-84.949,136.939       C266.607,203.989,253.088,199.237,241.371,202.974z"/>
					<path style="fill:#FFE4E0;" d="M335.937,210.25c20.874-42.548,47.59-84.497,88.126-109.051       c12.647-7.661,26.893-13.558,41.679-13.425c3.436,0.031,7.002,0.431,9.936,2.22c4.526,2.761,6.644,8.333,6.904,13.628       c0.659,13.427-8.326,25.243-17.329,35.227c-29.359,32.557-63.839,60.015-98.144,87.309       C357.307,221.193,345.738,215.216,335.937,210.25z"/>
					<path style="fill:#FFA5D7;" d="M349.428,217.526c17.174-38.033,40.965-74.012,74.297-99.12c3.21-2.418,6.676-4.801,10.66-5.33       c3.984-0.528,8.583,1.419,9.748,5.266c1.036,3.42-0.844,6.983-2.73,10.018c-21.167,34.067-51.278,61.485-81.03,88.38       C357.279,217.4,352.523,216.867,349.428,217.526z"/>
					<path style="fill:#FFA5D7;" d="M253.934,194.095c7.71-41.012,22.334-81.591,48.796-113.858       c2.549-3.108,5.354-6.242,9.101-7.695c3.747-1.454,8.675-0.647,10.715,2.816c1.814,3.079,0.829,6.985-0.287,10.38       c-12.526,38.101-35.313,71.852-57.875,105.011C261.532,192.119,256.785,192.723,253.934,194.095z"/>
				</g>
				<path style="fill:#FFE4E0;" d="M407.407,342.247c-1.949,9.888-5.665,18.259-10.844,25.296      c-10.176,13.875-25.999,22.517-45.034,27.136c-44.98,10.898-107.895-0.632-156.646-18.638      c-5.287-1.949-10.429-4.348-15.246-7.235c-11.691-6.964-21.435-16.726-26.523-29.825c-4.132-10.663-4.98-21.958-3.717-33.198      c1.822-16.473,8.155-32.856,15.354-47.019c15.914-31.232,38.575-59.865,73.993-68.995c15.733-4.06,32.711-4.745,49.653-3.067      c45.305,4.511,96.149,22.084,114.137,67.66C413.343,281.714,413.036,313.739,407.407,342.247z"/>
				<g>
					<path style="fill:#370644;" d="M225.295,297.494c0,5.979-4.847,10.825-10.826,10.825c-5.979,0-10.825-4.847-10.825-10.825       c0-5.979,4.847-10.826,10.825-10.826C220.448,286.668,225.295,291.515,225.295,297.494z"/>
					<path style="fill:#370644;" d="M339.539,314.999c0,5.979-4.847,10.826-10.826,10.826c-5.979,0-10.825-4.847-10.825-10.826       c0-5.979,4.847-10.825,10.825-10.825C334.692,304.173,339.539,309.02,339.539,314.999z"/>
					<path style="fill:#FFA5D7;" d="M255.494,311.937c-0.724,0.967-0.958,2.224-0.945,3.432c0.048,4.544,3.518,8.7,7.865,10.024       c4.347,1.324,9.275-0.001,12.729-2.954c1.528-1.306,2.839-2.993,3.201-4.969c1.191-6.497-5.978-5.393-10-5.891       C264.583,311.113,258.369,308.098,255.494,311.937z"/>
					<path style="fill:#370644;" d="M268.453,346.372c-5.504,0-10.092-7.117-12.949-11.551c-0.438-0.68-0.838-1.3-1.195-1.824       c-0.312-0.457-0.193-1.079,0.263-1.39c0.458-0.309,1.079-0.194,1.39,0.263c0.366,0.537,0.775,1.172,1.225,1.868       c2.875,4.459,7.694,11.925,12.584,10.434c3.594-1.093,5.138-7.148,6.16-11.156c0.157-0.616,0.303-1.189,0.444-1.7       c0.148-0.533,0.705-0.842,1.23-0.697c0.532,0.147,0.845,0.698,0.697,1.23c-0.138,0.499-0.281,1.06-0.435,1.661       c-1.132,4.442-2.844,11.155-7.516,12.576C269.708,346.281,269.075,346.372,268.453,346.372z"/>
					<path style="fill:#FFA5D7;" d="M201.342,336.419c0,14.633-8.967,27.154-21.705,32.387       c-11.691-6.964-21.435-16.726-26.523-29.825c-4.132-10.663-4.98-21.958-3.717-33.198c5.016-2.779,10.789-4.366,16.924-4.366       C185.663,301.416,201.342,317.077,201.342,336.419z"/>
					<path style="fill:#FFA5D7;" d="M397.122,361.3c0,2.129-0.199,4.222-0.559,6.243c-10.176,13.875-25.999,22.517-45.034,27.136       c-14.163-4.493-24.43-17.754-24.43-33.379c0-19.342,15.679-35.021,35.021-35.021       C381.443,326.279,397.122,341.958,397.122,361.3z"/>
				</g>
			</g>
			<g>
				<g>
					<path style="fill:#FFA368;" d="M144.74,295.818l-2.49,13.135v0.018l-0.433,2.327l-3.103,16.293l-0.722,3.771l-4.709,24.881       l-0.343,1.768l-1.317,6.965l-11.042,0.072h-1.714l-7.686,0.054l-10.086,0.054l-2.237,0.018l-16.437,0.108h-1.516l-19.179,0.126       l-1.822,0.018l-15.895,0.09l-1.858,0.018l-9.418,0.054l-0.992-4.709l-0.433-2.021l-5.016-23.834l-0.794-3.717l-3.482-16.509       l-0.595-2.869l-3.428-16.22c-0.938-4.493,2.49-8.733,7.091-8.715l104.665,0.253l7.921,0.018       C142.196,287.266,145.588,291.38,144.74,295.818z"/>
					<path style="opacity:0.17;fill:#FFA368;" d="M144.74,295.818l-2.49,13.135v0.018l-0.433,2.327l-3.103,16.293l-0.722,3.771       l-4.709,24.881l-0.343,1.768l-1.317,6.965l-11.042,0.072h-1.714l-7.686,0.054c7.145-25.729,13.929-51.566,18.566-77.854       l7.921,0.018C142.196,287.266,145.588,291.38,144.74,295.818z"/>
					<path style="opacity:0.44;fill:#FFA368;" d="M144.74,295.818l-2.49,13.135v0.018l-0.433,2.327       c-2.689,1.479-6.044,1.786-8.949,0.704c-3.211-1.173-6.531-3.897-7.415-7.199c-1.678,2.147-5.828,1.353-7.975-0.325       c0.415,4.619-1.028,9.761-4.944,12.251c-1.931,1.209-4.33,1.678-6.586,1.227c-0.83-0.144-1.877-0.505-2.237-1.263       c-0.108,1.876-0.054,3.789-0.397,5.647c-0.343,1.858-1.119,3.717-2.562,4.944c-2.219,1.84-5.449,1.786-8.3,1.263       c-1.534-0.271-3.085-0.686-4.366-1.588c-2.346-1.624-3.536-4.258-4.421-6.983c-2.995,0.65-6.225-0.18-8.733-1.966       c-2.508-1.786-4.113-4.781-5.214-7.65c-1.588,1.534-3.23,3.121-5.287,3.951c-3.843,1.57-9.292,0.036-11.926-3.176       c-1.822,4.944-6.766,8.534-12.017,8.751c-5.25,0.198-10.41-3.049-12.594-7.83c-1.786,1.263-3.753,2.291-5.882,2.742       l-0.595-2.869l-3.428-16.22c-0.938-4.493,2.49-8.733,7.091-8.715l112.586,0.271C142.196,287.266,145.588,291.38,144.74,295.818       z"/>
					<path style="fill:#FFE4E0;" d="M28.125,283.2c-3.309,0.134-6.452,1.807-8.721,4.22s-3.712,5.517-4.512,8.731       c-0.901,3.621-0.982,7.607,0.715,10.93c1.696,3.324,5.486,5.734,9.145,5.004c2.421-0.483,4.408-2.187,6.095-3.991       c0.155,4.164,4.352,7.266,8.519,7.292c3.193,0.02,6.161-1.855,8.216-4.299c2.055-2.444,3.346-5.424,4.609-8.357       c0.966,4.111,5.744,7.436,9.96,7.196c4.217-0.24,8.015-3.22,9.774-7.06c0.149,2.599,0.376,6.606,1.558,8.925       c2.228,4.37,8.207,6.342,12.597,4.155c-0.274,2.78,1.233,5.291,3.586,6.799c2.352,1.507,5.643,1.457,7.868-0.233       c2.774-2.107,3.418-5.958,3.707-9.429c0.773,0.791,2.601,0.971,3.686,0.752c1.084-0.219,2.061-0.789,3.015-1.35       c2.09-1.23,4.259-2.533,5.56-4.579c1.323-2.08,1.571-4.651,1.666-7.115c3.258,2.842,8.35,2.305,11.458-0.7       c0.822,2.82,1.598,5.973,3.719,8.004c2.121,2.032,5.145,3.257,8.035,2.734c2.921-0.528,5.333-2.764,6.659-5.42       s1.694-5.689,1.713-8.657c0.015-2.309-0.195-4.706-1.326-6.719c-2.197-3.908-7.099-5.251-11.522-5.982       c-13.914-2.3-28.103-2.147-42.206-1.988C70.409,282.302,49.398,282.342,28.125,283.2z"/>
					<path style="fill:#FFE4E0;" d="M138.714,327.591l-0.722,3.771c-23.131,3.771-46.514,5.665-69.897,5.665       c-13.947,0-27.894-0.668-41.805-2.003l-0.794-3.717C63.242,335.061,101.293,333.816,138.714,327.591z"/>
					<path style="fill:#FFE4E0;" d="M133.283,356.243l-0.343,1.768c-1.985-0.27-3.915-0.144-5.665,0.379       c-3.302,1.01-5.936,3.608-6.676,6.604c0,0.018-0.018,0.036-0.018,0.054h-1.714c-1.317-3.771-5.341-6.459-9.31-6.315       c-3.753,0.162-7.253,2.887-8.462,6.423l-2.237,0.018c-1.588-3.645-4.799-6.261-8.227-6.622       c-2.021-0.216-4.168,0.505-5.81,1.913c-1.389,1.209-2.201,2.779-2.273,4.403c0,0.144-0.054,0.289-0.126,0.415       c-0.144,0.253-0.379,0.415-0.686,0.451c-0.343,0.018-0.668-0.163-0.83-0.451c-0.072-0.072-0.108-0.162-0.126-0.271       c-0.866-4.077-4.98-7.307-9.274-7.307c-0.108,0-0.216,0-0.325,0.018c-4.258,0.162-8.3,3.464-9.455,7.686       c-0.036,0.054-0.036,0.09-0.054,0.144c-0.108,0.415-0.505,0.704-0.92,0.686c-0.433-0.036-0.794-0.361-0.848-0.794v-0.018       c-0.505-3.807-4.114-6.982-7.957-6.982h-0.072c-3.843,0.036-7.416,3.284-7.867,7.073c-0.018,0.018-0.018,0.054-0.018,0.072       c-0.036,0.433-0.379,0.758-0.794,0.812c-0.415,0.036-0.812-0.217-0.956-0.613c-0.036-0.09-0.054-0.162-0.09-0.253       c-0.848-2.472-1.858-4.944-3.879-5.99c-1.66-0.866-3.915-0.632-5.629,0.577c-0.325,0.217-0.613,0.469-0.902,0.758l-0.433-2.021       c0.09-0.072,0.198-0.144,0.289-0.217c2.292-1.606,5.232-1.877,7.506-0.704c1.876,0.974,3.013,2.706,3.861,4.655       c1.552-3.428,5.07-5.918,8.913-5.954c3.915-0.09,7.47,2.436,9.057,5.9c1.985-3.807,5.936-6.459,10.176-6.622       c4.294-0.126,8.372,2.345,10.374,5.954c0.505-1.028,1.227-1.967,2.165-2.778c2.003-1.732,4.673-2.616,7.163-2.346       c3.699,0.397,7.145,2.923,9.112,6.549c1.786-3.572,5.557-6.17,9.562-6.369c4.078-0.216,8.065,2.111,10.14,5.557       c1.389-2.688,4.006-4.871,7.145-5.81C128.79,356.062,131.01,355.918,133.283,356.243z"/>
				</g>
				<g>
					<path style="fill:#FFF1EF;" d="M62.527,252.736c-0.007,0.331-0.014,0.663-0.021,0.995c-0.035,1.256-0.063,2.512-0.085,3.76       c-0.007,0.445-0.021,0.896-0.021,1.34c-0.028,1.249-0.049,2.498-0.064,3.746c-0.007,0.445-0.014,0.889-0.021,1.333       c-0.014,1.249-0.028,2.498-0.049,3.746c-0.007,0.445-0.007,0.889-0.014,1.333c-0.014,1.249-0.035,2.498-0.049,3.746       c-0.007,0.445-0.014,0.889-0.014,1.333c-0.021,1.249-0.042,2.498-0.07,3.753c-0.007,0.445-0.014,0.889-0.021,1.333       c-0.049,2.716-0.12,5.439-0.211,8.17c-0.035-0.19-0.233,0.12-0.423,0.113c-0.317-0.007-0.635-0.021-0.952-0.028       c-1.023-0.035-2.025-0.07-3.034-0.092c-1.637-0.035-2.878-1.446-2.737-3.076c0.057-0.656,0.113-1.319,0.155-1.975       c0.035-0.437,0.07-0.868,0.099-1.298c0.092-1.291,0.176-2.582,0.247-3.873c0.021-0.423,0.042-0.854,0.057-1.277       c0.07-1.284,0.12-2.561,0.155-3.845c0.021-0.423,0.035-0.854,0.042-1.277c0.035-1.27,0.056-2.54,0.071-3.81       c0.007-0.416,0.007-0.84,0.007-1.263c0.014-1.256,0.007-2.519-0.007-3.782c-0.007-0.416-0.007-0.84-0.021-1.256       c-0.014-1.249-0.042-2.498-0.092-3.746c-0.007-0.416-0.021-0.826-0.042-1.242c-0.042-1.312-0.106-2.624-0.176-3.937       c-0.028-0.458,0.035-1.044,0.473-1.178c0.204-0.064,0.423,0.014,0.621,0.085c1.404,0.487,2.801,0.974,4.198,1.468       c0.536,0.183,1.08,0.374,1.616,0.564C62.266,252.645,62.4,252.694,62.527,252.736z"/>
					<g>
						<path style="fill:#D7A0FF;" d="M62.527,252.736c-0.007,0.331-0.014,0.663-0.021,0.995c-2.293,1.164-4.649,2.201-7.055,3.112        c-0.007-0.416-0.021-0.826-0.042-1.242c2.293-0.889,4.544-1.891,6.731-2.998C62.266,252.645,62.4,252.694,62.527,252.736z"/>
						<path style="fill:#D7A0FF;" d="M62.421,257.491c-0.007,0.445-0.021,0.896-0.021,1.34c-2.222,1.122-4.508,2.131-6.837,3.013        c-0.007-0.416-0.007-0.84-0.021-1.256C57.885,259.679,60.185,258.641,62.421,257.491z"/>
						<path style="fill:#D7A0FF;" d="M62.337,262.578c-0.007,0.445-0.014,0.889-0.021,1.333c-2.194,1.108-4.452,2.103-6.752,2.977        c0.007-0.416,0.007-0.84,0.007-1.263C57.878,264.723,60.136,263.707,62.337,262.578z"/>
						<path style="fill:#D7A0FF;" d="M62.266,267.658c-0.007,0.445-0.007,0.889-0.014,1.333c-2.208,1.115-4.48,2.11-6.801,2.984        c0.021-0.423,0.035-0.854,0.042-1.277C57.8,269.803,60.065,268.787,62.266,267.658z"/>
						<path style="fill:#D7A0FF;" d="M62.203,272.737c-0.007,0.445-0.014,0.889-0.014,1.333c-2.258,1.129-4.579,2.145-6.949,3.027        c0.021-0.423,0.042-0.854,0.057-1.277C57.652,274.91,59.959,273.887,62.203,272.737z"/>
						<path style="fill:#D7A0FF;" d="M62.118,277.824c-0.007,0.445-0.014,0.889-0.021,1.333c-2.335,1.164-4.748,2.208-7.203,3.111        c0.035-0.437,0.07-0.868,0.099-1.298C57.419,280.054,59.804,279.002,62.118,277.824z"/>
					</g>
					<path style="opacity:0.43;fill:#FFE4E0;" d="M62.527,252.736c-0.007,0.331-0.014,0.663-0.021,0.995       c-0.035,1.256-0.063,2.512-0.085,3.76c-0.007,0.445-0.021,0.896-0.021,1.34c-0.028,1.249-0.049,2.498-0.064,3.746       c-0.007,0.445-0.014,0.889-0.021,1.333c-0.014,1.249-0.028,2.498-0.049,3.746c-0.007,0.445-0.007,0.889-0.014,1.333       c-0.014,1.249-0.035,2.498-0.049,3.746c-0.007,0.445-0.014,0.889-0.014,1.333c-0.021,1.249-0.042,2.498-0.07,3.753       c-0.007,0.445-0.014,0.889-0.021,1.333c-0.049,2.716-0.12,5.439-0.211,8.17c-0.035-0.19-0.233,0.12-0.423,0.113       c-0.317-0.007-0.635-0.021-0.952-0.028c-0.699-0.12-1.383-0.395-2.004-0.755c-0.099-0.057-0.204-0.12-0.254-0.219       c-0.063-0.12-0.042-0.261-0.014-0.395c0.981-5.545,1.256-11.182,1.531-16.805c0.148-3.048,0.296-6.103,0.43-9.151       c0.12-2.681,0.226-5.369,0.325-8.05c0.536,0.183,1.08,0.374,1.616,0.564C62.266,252.645,62.4,252.694,62.527,252.736z"/>
				</g>
				<g>
					<path style="fill:#FFF1EF;" d="M88.012,253.351c-0.007,0.331-0.014,0.663-0.021,0.995c-0.035,1.256-0.063,2.512-0.084,3.76       c-0.007,0.445-0.021,0.896-0.021,1.34c-0.028,1.249-0.049,2.498-0.063,3.746c-0.007,0.445-0.014,0.889-0.021,1.333       c-0.014,1.249-0.028,2.498-0.049,3.746c-0.007,0.445-0.007,0.889-0.014,1.333c-0.014,1.249-0.035,2.498-0.049,3.746       c-0.007,0.445-0.014,0.889-0.014,1.334c-0.021,1.249-0.042,2.497-0.071,3.753c-0.007,0.445-0.014,0.889-0.021,1.334       c-0.049,2.716-0.12,5.439-0.212,8.17c-0.035-0.19-0.233,0.12-0.423,0.113c-0.317-0.007-0.635-0.021-0.952-0.028       c-1.023-0.035-2.025-0.07-3.034-0.092c-1.637-0.035-2.878-1.446-2.737-3.076c0.056-0.656,0.113-1.319,0.155-1.975       c0.035-0.437,0.071-0.868,0.099-1.298c0.092-1.291,0.176-2.582,0.247-3.873c0.021-0.423,0.042-0.854,0.056-1.277       c0.071-1.284,0.12-2.561,0.155-3.845c0.021-0.423,0.035-0.854,0.042-1.277c0.035-1.27,0.057-2.54,0.071-3.81       c0.007-0.416,0.007-0.84,0.007-1.263c0.014-1.256,0.007-2.519-0.007-3.782c-0.007-0.416-0.007-0.84-0.021-1.256       c-0.014-1.249-0.042-2.498-0.092-3.746c-0.007-0.416-0.021-0.825-0.042-1.242c-0.042-1.312-0.106-2.624-0.176-3.937       c-0.028-0.458,0.035-1.044,0.473-1.178c0.205-0.063,0.423,0.014,0.621,0.085c1.404,0.487,2.801,0.974,4.198,1.468       c0.536,0.183,1.079,0.374,1.616,0.564C87.751,253.259,87.885,253.308,88.012,253.351z"/>
					<g>
						<path style="fill:#D7A0FF;" d="M88.012,253.351c-0.007,0.331-0.014,0.663-0.021,0.995c-2.293,1.164-4.649,2.201-7.055,3.111        c-0.007-0.416-0.021-0.825-0.042-1.242c2.293-0.889,4.543-1.891,6.731-2.998C87.751,253.259,87.885,253.308,88.012,253.351z"/>
						<path style="fill:#D7A0FF;" d="M87.906,258.106c-0.007,0.445-0.021,0.896-0.021,1.34c-2.222,1.122-4.508,2.131-6.836,3.013        c-0.007-0.416-0.007-0.84-0.021-1.256C83.37,260.293,85.669,259.256,87.906,258.106z"/>
						<path style="fill:#D7A0FF;" d="M87.821,263.192c-0.007,0.445-0.014,0.889-0.021,1.333c-2.194,1.108-4.452,2.103-6.752,2.977        c0.007-0.416,0.007-0.84,0.007-1.263C83.363,265.337,85.62,264.321,87.821,263.192z"/>
						<path style="fill:#D7A0FF;" d="M87.751,268.272c-0.007,0.445-0.007,0.889-0.014,1.333c-2.208,1.115-4.48,2.11-6.801,2.984        c0.021-0.423,0.035-0.854,0.042-1.277C83.285,270.417,85.549,269.401,87.751,268.272z"/>
						<path style="fill:#D7A0FF;" d="M87.687,273.352c-0.007,0.445-0.014,0.889-0.014,1.334c-2.258,1.129-4.579,2.145-6.949,3.027        c0.021-0.423,0.042-0.854,0.056-1.277C83.137,275.525,85.444,274.502,87.687,273.352z"/>
						<path style="fill:#D7A0FF;" d="M87.603,278.438c-0.007,0.445-0.014,0.889-0.021,1.334c-2.335,1.164-4.748,2.208-7.203,3.111        c0.035-0.437,0.071-0.868,0.099-1.298C82.904,280.668,85.289,279.617,87.603,278.438z"/>
					</g>
					<path style="opacity:0.43;fill:#FFE4E0;" d="M88.012,253.351c-0.007,0.331-0.014,0.663-0.021,0.995       c-0.035,1.256-0.063,2.512-0.084,3.76c-0.007,0.445-0.021,0.896-0.021,1.34c-0.028,1.249-0.049,2.498-0.063,3.746       c-0.007,0.445-0.014,0.889-0.021,1.333c-0.014,1.249-0.028,2.498-0.049,3.746c-0.007,0.445-0.007,0.889-0.014,1.333       c-0.014,1.249-0.035,2.498-0.049,3.746c-0.007,0.445-0.014,0.889-0.014,1.334c-0.021,1.249-0.042,2.497-0.071,3.753       c-0.007,0.445-0.014,0.889-0.021,1.334c-0.049,2.716-0.12,5.439-0.212,8.17c-0.035-0.19-0.233,0.12-0.423,0.113       c-0.317-0.007-0.635-0.021-0.952-0.028c-0.698-0.12-1.383-0.395-2.004-0.755c-0.099-0.056-0.205-0.12-0.254-0.219       c-0.063-0.12-0.042-0.261-0.014-0.395c0.981-5.545,1.256-11.183,1.531-16.805c0.148-3.048,0.296-6.103,0.43-9.151       c0.12-2.681,0.226-5.369,0.325-8.05c0.536,0.183,1.079,0.374,1.616,0.564C87.751,253.259,87.885,253.308,88.012,253.351z"/>
				</g>
				<g>
					<path style="fill:#FFF1EF;" d="M109.509,253.658c-0.007,0.331-0.014,0.663-0.021,0.995c-0.035,1.256-0.064,2.512-0.085,3.76       c-0.007,0.445-0.021,0.896-0.021,1.34c-0.028,1.249-0.049,2.497-0.063,3.746c-0.007,0.445-0.014,0.889-0.021,1.333       c-0.014,1.249-0.028,2.498-0.049,3.746c-0.007,0.445-0.007,0.889-0.014,1.333c-0.014,1.249-0.035,2.498-0.049,3.746       c-0.007,0.445-0.014,0.889-0.014,1.333c-0.021,1.249-0.042,2.498-0.071,3.753c-0.007,0.445-0.014,0.889-0.021,1.333       c-0.049,2.716-0.12,5.439-0.212,8.17c-0.035-0.19-0.233,0.12-0.423,0.113c-0.317-0.007-0.635-0.021-0.952-0.028       c-1.023-0.035-2.025-0.07-3.034-0.092c-1.637-0.035-2.878-1.446-2.737-3.076c0.056-0.656,0.113-1.319,0.155-1.975       c0.035-0.437,0.07-0.868,0.099-1.298c0.092-1.291,0.176-2.582,0.247-3.873c0.021-0.423,0.042-0.854,0.057-1.277       c0.07-1.284,0.12-2.561,0.155-3.845c0.021-0.423,0.035-0.854,0.042-1.277c0.035-1.27,0.056-2.54,0.071-3.81       c0.007-0.416,0.007-0.839,0.007-1.263c0.014-1.256,0.007-2.519-0.007-3.782c-0.007-0.416-0.007-0.839-0.021-1.256       c-0.014-1.249-0.042-2.497-0.092-3.746c-0.007-0.416-0.021-0.825-0.042-1.242c-0.042-1.312-0.106-2.625-0.176-3.937       c-0.028-0.459,0.035-1.044,0.473-1.178c0.205-0.064,0.423,0.014,0.621,0.084c1.404,0.487,2.801,0.974,4.198,1.468       c0.536,0.183,1.08,0.374,1.616,0.564C109.248,253.566,109.382,253.615,109.509,253.658z"/>
					<g>
						<path style="fill:#D7A0FF;" d="M109.509,253.658c-0.007,0.331-0.014,0.663-0.021,0.995c-2.293,1.164-4.649,2.201-7.055,3.111        c-0.007-0.416-0.021-0.825-0.042-1.242c2.293-0.889,4.544-1.891,6.731-2.998C109.248,253.566,109.382,253.615,109.509,253.658        z"/>
						<path style="fill:#D7A0FF;" d="M109.404,258.413c-0.007,0.445-0.021,0.896-0.021,1.34c-2.222,1.122-4.508,2.131-6.836,3.012        c-0.007-0.416-0.007-0.839-0.021-1.256C104.867,260.6,107.167,259.563,109.404,258.413z"/>
						<path style="fill:#D7A0FF;" d="M109.319,263.5c-0.007,0.445-0.014,0.889-0.021,1.333c-2.194,1.108-4.452,2.103-6.752,2.977        c0.007-0.416,0.007-0.839,0.007-1.263C104.86,265.644,107.118,264.628,109.319,263.5z"/>
						<path style="fill:#D7A0FF;" d="M109.248,268.579c-0.007,0.445-0.007,0.889-0.014,1.333c-2.208,1.115-4.48,2.109-6.801,2.984        c0.021-0.423,0.035-0.854,0.042-1.277C104.782,270.724,107.047,269.708,109.248,268.579z"/>
						<path style="fill:#D7A0FF;" d="M109.185,273.659c-0.007,0.445-0.014,0.889-0.014,1.333c-2.258,1.129-4.579,2.145-6.949,3.027        c0.021-0.423,0.042-0.854,0.057-1.277C104.634,275.832,106.941,274.809,109.185,273.659z"/>
						<path style="fill:#D7A0FF;" d="M109.1,278.746c-0.007,0.445-0.014,0.889-0.021,1.333c-2.335,1.164-4.748,2.208-7.203,3.111        c0.035-0.437,0.07-0.868,0.099-1.298C104.402,280.975,106.786,279.924,109.1,278.746z"/>
					</g>
					<path style="opacity:0.43;fill:#FFE4E0;" d="M109.509,253.658c-0.007,0.331-0.014,0.663-0.021,0.995       c-0.035,1.256-0.064,2.512-0.085,3.76c-0.007,0.445-0.021,0.896-0.021,1.34c-0.028,1.249-0.049,2.497-0.063,3.746       c-0.007,0.445-0.014,0.889-0.021,1.333c-0.014,1.249-0.028,2.498-0.049,3.746c-0.007,0.445-0.007,0.889-0.014,1.333       c-0.014,1.249-0.035,2.498-0.049,3.746c-0.007,0.445-0.014,0.889-0.014,1.333c-0.021,1.249-0.042,2.498-0.071,3.753       c-0.007,0.445-0.014,0.889-0.021,1.333c-0.049,2.716-0.12,5.439-0.212,8.17c-0.035-0.19-0.233,0.12-0.423,0.113       c-0.317-0.007-0.635-0.021-0.952-0.028c-0.698-0.12-1.383-0.395-2.004-0.755c-0.099-0.057-0.205-0.12-0.254-0.219       c-0.064-0.12-0.042-0.261-0.014-0.395c0.981-5.545,1.256-11.182,1.531-16.805c0.148-3.048,0.296-6.103,0.43-9.151       c0.12-2.681,0.226-5.369,0.325-8.05c0.536,0.183,1.08,0.374,1.616,0.564C109.248,253.566,109.382,253.615,109.509,253.658z"/>
				</g>
				<path style="fill:#FFE4E0;" d="M46.702,287.887c0.861-0.763,1.78-1.46,2.748-2.083c0.961-0.618,1.992-1.17,3.118-1.36      c2.184-0.369,4.334,0.66,6.31,1.659c2.563-2.406,6.695-3.125,9.67-1.251c1.819,1.146,3.032,3.034,4.036,4.935      c1.047-1.136,2.277-2.335,3.343-3.453c1.066-1.118,2.334-2.108,3.825-2.513c1.491-0.405,3.233-0.127,4.304,0.987      c1.944-1.548,4.644-2.009,6.937-1.053c2.293,0.956,3.985,3.221,4.253,5.691c1.474-3.109,5.674-4.387,8.969-3.398      c1.691-1.587,3.975-2.67,6.285-2.469c2.31,0.201,4.54,1.908,4.908,4.197c0.256,1.593-0.389,3.235-1.431,4.468      c-1.041,1.232-2.444,2.104-3.885,2.83c-3.246,1.635-6.781,2.622-10.344,3.336c-8.804,1.765-17.849,1.915-26.826,1.72      c-5.469-0.119-10.97-0.367-16.309-1.555c-2.279-0.507-4.547-1.195-6.545-2.403c-1.998-1.208-3.719-2.982-4.518-5.175"/>
				<g>
					<path style="fill:#370644;" d="M58.751,253.557c-0.269,0-0.49-0.212-0.5-0.482c-0.082-2.295-0.224-4.619-0.42-6.907       c-0.023-0.275,0.18-0.518,0.455-0.541c0.265-0.021,0.518,0.18,0.541,0.455c0.198,2.305,0.341,4.646,0.424,6.958       c0.01,0.275-0.206,0.508-0.482,0.518C58.763,253.557,58.757,253.557,58.751,253.557z"/>
					<g>
						<path style="fill:#FFD974;" d="M58.78,249.126c-1.095,0.352-2.344-0.085-3.152-0.905c-0.807-0.82-1.22-1.962-1.366-3.104        c-0.406-3.164,1.048-6.238,2.462-9.097c0.485-0.981,0.971-1.962,1.456-2.943c3.421,2.573,5.252,7.213,4.557,11.436        c-0.157,0.956-0.441,1.909-0.988,2.708C61.203,248.021,59.702,248.83,58.78,249.126z"/>
						<path style="fill:#FFEFD7;" d="M58.661,249.26c-0.556,0.179-1.19-0.043-1.6-0.46c-0.41-0.416-0.619-0.997-0.694-1.576        c-0.206-1.607,0.532-3.168,1.25-4.619c0.247-0.498,0.493-0.997,0.74-1.495c1.737,1.307,2.667,3.663,2.314,5.808        c-0.08,0.485-0.224,0.969-0.502,1.375C59.891,248.699,59.129,249.11,58.661,249.26z"/>
					</g>
				</g>
				<g>
					<path style="fill:#370644;" d="M84.548,254.324c-0.269,0-0.49-0.212-0.5-0.482c-0.082-2.289-0.223-4.613-0.419-6.906       c-0.023-0.275,0.181-0.518,0.455-0.541c0.258-0.03,0.517,0.179,0.541,0.455c0.197,2.311,0.34,4.65,0.423,6.957       c0.01,0.275-0.206,0.508-0.482,0.518C84.56,254.324,84.554,254.324,84.548,254.324z"/>
					<g>
						<path style="fill:#FFD974;" d="M84.577,249.894c-1.095,0.352-2.344-0.085-3.152-0.905c-0.807-0.82-1.22-1.962-1.366-3.104        c-0.406-3.164,1.048-6.238,2.462-9.097c0.485-0.981,0.971-1.962,1.456-2.943c3.421,2.573,5.251,7.213,4.557,11.436        c-0.157,0.956-0.44,1.908-0.988,2.708C87,248.789,85.499,249.598,84.577,249.894z"/>
						<path style="fill:#FFEFD7;" d="M84.458,250.028c-0.556,0.179-1.19-0.043-1.6-0.459c-0.41-0.416-0.619-0.997-0.693-1.576        c-0.206-1.607,0.532-3.167,1.25-4.619c0.246-0.498,0.493-0.996,0.74-1.494c1.737,1.306,2.667,3.663,2.314,5.807        c-0.08,0.485-0.224,0.969-0.502,1.375C85.688,249.466,84.926,249.877,84.458,250.028z"/>
					</g>
				</g>
				<g>
					<path style="fill:#370644;" d="M106.045,254.785c-0.269,0-0.49-0.212-0.5-0.482c-0.083-2.31-0.224-4.634-0.419-6.907       c-0.023-0.275,0.18-0.518,0.455-0.541c0.263-0.02,0.518,0.18,0.541,0.455c0.197,2.29,0.339,4.631,0.423,6.958       c0.01,0.275-0.206,0.508-0.482,0.518C106.057,254.785,106.051,254.785,106.045,254.785z"/>
					<g>
						<path style="fill:#FFD974;" d="M106.075,250.355c-1.096,0.352-2.344-0.085-3.152-0.905c-0.808-0.82-1.22-1.962-1.366-3.104        c-0.406-3.164,1.048-6.238,2.462-9.097c0.485-0.981,0.971-1.962,1.456-2.943c3.421,2.573,5.251,7.213,4.557,11.436        c-0.157,0.956-0.44,1.908-0.987,2.708C108.497,249.249,106.997,250.058,106.075,250.355z"/>
						<path style="fill:#FFEFD7;" d="M105.956,250.488c-0.556,0.179-1.19-0.043-1.6-0.459c-0.41-0.416-0.62-0.997-0.694-1.576        c-0.206-1.607,0.532-3.168,1.25-4.619c0.246-0.498,0.493-0.996,0.739-1.494c1.737,1.306,2.667,3.663,2.314,5.807        c-0.08,0.485-0.224,0.969-0.502,1.375C107.186,249.927,106.424,250.338,105.956,250.488z"/>
					</g>
				</g>
				<path style="fill:#923EFF;" d="M140.532,366.332H24.446c-0.407,0-0.737-0.33-0.737-0.737s0.33-0.737,0.737-0.737h116.086      c0.407,0,0.737,0.33,0.737,0.737S140.939,366.332,140.532,366.332z"/>
				<polygon style="fill:#923EFF;" points="32.738,365.595 44.408,374.194 122.72,374.194 131.623,364.975     "/>
			</g>
			<g>
				<path style="fill:#923EFF;" d="M354.591,203.386c0,0-9.222,2.364-22.419,3.264c-3.276,0.226-6.499-4.853-10.184-4.866      c-5.971-0.018-12.677,4.777-19.176,3.718l-0.01-0.004c-8.514-1.378-17.185-3.87-25.226-8.014      c-5.558-2.867-3.338-6.479-8.054-11.111l1.868-14.593l28.059-43.671l9.885-12.267l5.988-12.427l6.218-9.679l0.32-0.494      l11.493,38.679l0.775,12.693l7.367,14.685l4.648,15.676l0.01,13.474l8.319,14.511L354.591,203.386z"/>
				<g>
					<path style="fill:#FFD974;" d="M321.562,93.335c0.307-5.749-0.481-11.555-2.308-17.014c0.453-0.174,0.858-0.365,1.342-0.323       c3.406,0.296,6.789,0.861,10.106,1.688C328.552,83.527,326.088,89.062,321.562,93.335z"/>
					<path style="fill:#FFD974;" d="M321.869,93.292c4.938-3.026,9.57-6.553,13.799-10.509c1.446,2.623,2.713,5.041,3.587,7.906       C333.65,92.722,327.829,93.374,321.869,93.292z"/>
					<path style="fill:#FFD974;" d="M321.885,93.573c-4.13-4.576-10.227-6.743-16.059-8.74c1.705-2.409,3.562-4.823,5.927-6.59       c1.063,0.646,2.545,1.256,3.41,2.151c0.673,0.697,1.2,1.521,1.694,2.356C318.772,85.985,320.867,89.953,321.885,93.573z"/>
				</g>
				<g>
					<path style="fill:#FFD974;" d="M320.392,120.962c-3.078,7.511-11.66,11.104-19.171,8.026c-0.616-0.252-1.215-0.545-1.773-0.88       l15.873-24.694C320.762,107.283,323.031,114.521,320.392,120.962z"/>
					<path style="fill:#FFD974;" d="M341.494,159.298c-3.797,2.217-8.561,2.706-12.952,0.906c-7.511-3.078-11.1-11.67-8.022-19.181       c2.226-5.431,7.335-8.809,12.832-9.103L341.494,159.298z"/>
					<path style="fill:#FFD974;" d="M354.471,202.959c-2.654,0.492-5.487,0.24-8.172-0.861c-7.511-3.078-11.104-11.66-8.026-19.171       c1.531-3.736,4.421-6.501,7.869-7.953L354.471,202.959z"/>
					<path style="fill:#FFD974;" d="M332.171,206.65c-8.591,0.594-18.849,0.565-29.36-1.148l-0.01-0.004       c0.086-1.592,0.44-3.204,1.077-4.758c3.078-7.511,11.66-11.104,19.171-8.026C328.844,195.088,332.306,200.739,332.171,206.65z"/>
					<path style="fill:#FFD974;" d="M281.84,191.709c-0.956,2.332-2.439,4.283-4.265,5.775c-5.558-2.867-10.817-6.52-15.533-11.152       l9.347-14.552c0.811,0.179,1.627,0.431,2.425,0.758C281.324,175.615,284.917,184.198,281.84,191.709z"/>
					<path style="fill:#FFD974;" d="M314.957,169.305c-3.077,7.511-11.661,11.104-19.171,8.026       c-7.511-3.078-11.104-11.661-8.026-19.171c3.078-7.51,11.661-11.104,19.171-8.026       C314.441,153.212,318.034,161.795,314.957,169.305z"/>
				</g>
				<path style="opacity:0.32;fill:#923EFF;" d="M354.591,203.386c0,0-9.222,2.364-22.419,3.264      c-3.276,0.226-6.809,0.358-10.494,0.345c0.423-9.318,0.785-24.993,0.851-26.994c0.728-20.394,1.098-40.806,0.492-61.193      c-0.154-5.121-0.37-10.233-0.655-15.349c-0.171-3.065-0.778-6.474-0.826-9.724l0.32-0.494l11.493,38.679l8.142,27.378      l4.648,15.676l8.329,27.985L354.591,203.386z"/>
			</g>
			<g>
				<g>
					<path style="fill:#D7A0FF;" d="M497.169,401.962l-6.249,24.352l-2.587,3.282l1.352,1.517l-5.417,21.121l-3.173,0.657       l2.698,1.149l-2.4,9.337l-1.662,2.594l0.45,2.157l-3.896,15.182h-7.777l-0.757-1l-1.06,1h-1.892l-2.195-1l-1.287,1h-24.223       l-2.12-1l-1.59,1h-24.299l-1.968-1l-1.665,1h-24.375l-1.892-1l-1.665,1h-6.34l-3.492-10.573l0.533-1.415l-1.365-1.104       l-5.345-16.179l-0.309-0.903l-0.831-2.518l-5.655-17.082l0.532-1.416l-1.364-1.102l-7.555-22.855       c-0.166,0.166,12.924-0.285,31.456-1.046c1.14-0.047,2.304-0.095,3.492-0.142c7.318-0.285,15.371-0.642,23.711-0.974       c0.309-0.024,0.594-0.024,0.903-0.047c0.594-0.024,1.188-0.071,1.782-0.071c0.285-0.024,0.547-0.047,0.832-0.047       c7.84-0.332,15.871-0.665,23.734-0.998c1.188-0.071,2.352-0.119,3.516-0.166c7.698-0.333,15.181-0.665,22.143-0.974       c0.537-0.02,1.069,0.956,1.598,0.931c0.735-0.034,1.461-1.07,2.18-1.098c2.851-0.119,5.583-0.238,8.173-0.356       c2.091-0.095,4.086-0.19,5.987-0.261c0.879-0.048,1.734-0.071,2.566-0.119c0.879-0.047,1.734-0.071,2.566-0.119       c1.544-0.071,2.993-0.119,4.371-0.19c0.261,0,0.523-0.024,0.76-0.024c0.356-0.024,0.479,0.636,0.812,0.613l0.234,0.34       c0.285-0.024,0.546-1.024,0.808-1.047c0.808-0.024,1.544-0.071,2.257-0.095c0.38-0.024,0.737-0.024,1.093-0.047       c0.166,0,0.333-0.024,0.475-0.024c0.618-0.024,1.188-0.048,1.687-0.072C495.862,402.01,497.169,401.962,497.169,401.962z"/>
					<g>
						<path style="fill:#FFD974;" d="M381.277,406.975l-26.562,26.561l-0.832-2.518l23.901-23.901        C378.925,407.07,380.089,407.023,381.277,406.975z"/>
						<path style="fill:#FFD974;" d="M408.504,405.835l-47.303,47.303l-0.831-2.518l44.618-44.618        C406.152,405.93,407.34,405.882,408.504,405.835z"/>
						<path style="fill:#FFD974;" d="M435.754,404.671l-68.067,68.067l-0.832-2.518l65.383-65.382        C433.426,404.766,434.59,404.718,435.754,404.671z"/>
						<path style="fill:#FFD974;" d="M461.674,403.53l-80.635,79.78h-3.588l80.445-79.614        C459.18,403.649,460.439,403.578,461.674,403.53z"/>
						<path style="fill:#FFD974;" d="M490.541,402.604l-3.469,3.421l-2.423,2.4l-20.099,19.909l-24.162,23.901l-1.83,1.806        l-29.579,29.27h-3.587l0.499-0.499l1.782-1.758l27.298-27.013l1.829-1.806l28.771-28.486l20.218-20.028l1.33-1.307h0.024        c0.285-0.024,0.546-0.024,0.808-0.047c0.808-0.024,1.544-0.071,2.257-0.095L490.541,402.604z"/>
						<polygon style="fill:#FFD974;" points="490.921,426.314 489.685,431.09 489.685,431.114 436.919,483.31 433.331,483.31               "/>
						<polygon style="fill:#FFD974;" points="481.394,463.377 480.182,468.129 464.858,483.31 461.247,483.31       "/>
					</g>
					<path style="opacity:0.41;fill:#FFA5D7;" d="M497.169,401.962l-6.249,24.352l-1.235,4.799l-5.417,21.121l-0.475,1.806       l-2.4,9.337l-1.212,4.752l-3.896,15.182h-24.043c1.449-6.486,2.899-12.972,4.348-19.458c0.333-1.544,0.689-3.041,1.022-4.562       v-0.024c0.38-1.734,0.784-3.492,1.164-5.227c0.143-0.594,0.285-1.212,0.404-1.806c1.782-7.959,3.564-15.942,5.369-23.901       c0.333-1.544,0.665-3.065,1.022-4.585c0.523-2.305,1.022-4.609,1.544-6.914c0.95-4.324,1.734-9.028,2.732-13.661       c2.091-0.095,4.086-0.19,5.987-0.261c0.879-0.048,1.734-0.071,2.566-0.119c0.879-0.047,1.734-0.071,2.566-0.119       c1.544-0.071,2.993-0.119,4.371-0.19c0.261,0,0.523-0.024,0.76-0.024c0.356-0.024,0.449,0.289,0.781,0.265l0.232,0.062       c0.285-0.024,0.578-0.398,0.84-0.422c0.808-0.024,1.544-0.071,2.257-0.095c0.38-0.024,0.737-0.024,1.093-0.047       c0.166,0,0.333-0.024,0.475-0.024c0.618-0.024,1.188-0.048,1.687-0.072C495.862,402.01,497.169,401.962,497.169,401.962z"/>
				</g>
				<rect x="405.9" y="405.772" style="fill:#FFEFD7;" width="1.782" height="77.539"/>
				<polygon style="fill:#FFEFD7;" points="484.268,452.235 483.794,454.04 361.487,454.04 360.9,452.235     "/>
				<g>
					<path style="fill:#FFEFD7;" d="M407.398,407.379c-0.2,0-0.4-0.06-0.573-0.181c-1.097-0.768-26.862-18.905-28.385-28.832       c-0.23-1.497,0.063-2.788,0.868-3.836c0.795-1.033,1.884-1.534,3.124-1.428c8.173,0.649,24.061,29.511,25.845,32.8       c0.222,0.407,0.133,0.914-0.213,1.223C407.876,407.293,407.638,407.379,407.398,407.379z M382.121,375.09       c-0.496,0-0.879,0.208-1.227,0.659c-0.467,0.607-0.623,1.364-0.478,2.313c1.071,6.987,16.631,19.377,23.884,24.814       c-6.961-12.177-17.196-27.397-22.026-27.781C382.223,375.092,382.171,375.09,382.121,375.09z"/>
					<path style="fill:#FFEFD7;" d="M406.964,407.683c-0.239,0-0.478-0.086-0.666-0.254c-0.346-0.309-0.435-0.815-0.213-1.223       c1.785-3.289,17.673-32.151,25.845-32.8c1.245-0.108,2.328,0.395,3.124,1.428c0.806,1.048,1.099,2.339,0.869,3.836       c-1.522,9.927-27.289,28.064-28.386,28.832C407.364,407.623,407.164,407.683,406.964,407.683z M432.241,375.394       c-0.05,0-0.101,0.002-0.153,0.006c-4.829,0.384-15.065,15.604-22.026,27.781c7.254-5.438,22.813-17.827,23.884-24.814       c0.146-0.949-0.01-1.706-0.478-2.313C433.12,375.602,432.737,375.394,432.241,375.394z"/>
				</g>
				<path style="fill:#FFEFD7;" d="M487.951,402.366l-0.879,3.659l-7.626,31.646l-1.14,4.704l-2.376,9.86l-0.451,1.806      l-4.799,19.933l-1.14,4.68v0.024l-1.117,4.633h-1.83l0.547-2.257l1.14-4.704l5.369-22.309l0.451-1.806l1.806-7.484l1.117-4.68      l7.626-31.646l1.14-4.704l0.309-1.259c0.356-0.024,0.689-0.024,1.022-0.047h0.024C487.428,402.39,487.69,402.39,487.951,402.366      z"/>
			</g>
			<path style="fill:#FFA368;" d="M113.604,169.728c7.411-4.589,15.833-6.701,24.694-6.868c1.407,3.698,2.814,7.396,4.221,11.094     c0.824,2.164,1.948,4.142,2.628,6.352c-9.154-0.057-18.753,0.026-25.974,5.48c-0.59-0.8-0.977-1.518-1.326-2.474     C116.335,179.159,115.117,173.882,113.604,169.728z"/>
			<path style="fill:#FFE4E0;" d="M223.015,113.385c-8.604-1.397-16.346-5.328-23.144-11.014c1.363-3.714,2.727-7.428,4.091-11.142     c0.798-2.174,1.247-4.404,2.183-6.518c6.873,6.048,14.172,12.282,23.2,12.901c-0.08,0.99-0.258,1.787-0.622,2.737     C227.139,104.476,224.597,109.258,223.015,113.385z"/>
			<path style="fill:#923EFF;" d="M431.949,250.492c-1.253,8.626-5.052,16.434-10.624,23.326c-3.736-1.301-7.473-2.602-11.209-3.902     c-2.187-0.762-4.424-1.173-6.554-2.074c5.931-6.973,12.042-14.376,12.51-23.413c0.992,0.063,1.791,0.228,2.746,0.576     C422.972,246.517,427.796,248.979,431.949,250.492z"/>
			<path style="fill:#FFD974;" d="M354.585,104.451c7.071-5.097,15.324-7.794,24.152-8.581c1.663,3.59,3.325,7.18,4.988,10.771     c0.973,2.102,2.233,3.995,3.066,6.152c-9.136,0.585-18.705,1.339-25.527,7.286c-0.644-0.756-1.081-1.445-1.495-2.374     C357.969,113.667,356.385,108.488,354.585,104.451z"/>
			<path style="fill:#FFA5D7;" d="M480.211,382.733c-10.353-0.954-19.89-4.993-28.448-11.2c1.317-4.532,2.633-9.064,3.95-13.596     c0.771-2.653,1.121-5.343,2.061-7.936c8.677,6.63,17.876,13.448,28.67,13.441c-0.013,1.185-0.16,2.147-0.515,3.307     C484.385,371.791,481.754,377.691,480.211,382.733z"/>
			<path style="fill:#FFA5D7;" d="M98.588,446.009c-8.68-0.8-16.675-4.186-23.85-9.39c1.104-3.799,2.208-7.599,3.311-11.398     c0.646-2.224,0.94-4.479,1.728-6.653c7.274,5.559,14.986,11.274,24.035,11.269c-0.011,0.994-0.134,1.8-0.432,2.773     C102.088,436.836,99.881,441.782,98.588,446.009z"/>
			<path style="fill:#FFD974;" d="M174.794,385.415c-8.544,1.726-17.175,0.778-25.541-2.147c-0.034-3.956-0.067-7.913-0.101-11.869     c-0.02-2.316-0.386-4.56-0.255-6.869c8.564,3.236,17.592,6.496,26.259,3.893c0.275,0.955,0.389,1.763,0.383,2.78     C175.513,375.623,174.82,380.995,174.794,385.415z"/>
			<path style="fill:#FFD974;" d="M221.137,175.575c0,4.915-3.87,8.9-8.643,8.9c-4.774,0-8.644-3.985-8.644-8.9s3.87-8.9,8.644-8.9     C217.267,166.675,221.137,170.66,221.137,175.575z"/>
			<path style="fill:#FFE4E0;" d="M460.172,200.24c0,4.915-3.87,8.9-8.644,8.9c-4.774,0-8.643-3.985-8.643-8.9s3.87-8.9,8.643-8.9     C456.302,191.339,460.172,195.324,460.172,200.24z"/>
			<path style="fill:#FFD974;" d="M467.653,304.169c0,4.915-3.87,8.9-8.644,8.9c-4.774,0-8.643-3.985-8.643-8.9     c0-4.915,3.87-8.9,8.643-8.9C463.783,295.269,467.653,299.253,467.653,304.169z"/>
			<ellipse style="fill:#FF9BBF;" cx="134.719" cy="258.89" rx="7.868" ry="8.102"/>
		</g>
	</g>
</g>















</svg>
