<?xml version="1.0" encoding="UTF-8"?>
<!-- Generator: Adobe Illustrator 24.1.1, SVG Export Plug-In . SVG Version: 6.00 Build 0)  -->
<svg xmlns="http://www.w3.org/2000/svg" xmlns:xlink="http://www.w3.org/1999/xlink" version="1.1" id="Capa_1" x="0px" y="0px" viewBox="0 0 512 512" style="enable-background:new 0 0 512 512;" xml:space="preserve" width="512" height="512">
<g>
	<path style="fill:#FFFFFF;" d="M256,512C117.241,512,4.35,399.11,4.35,260.351C4.35,121.591,117.241,8.701,256,8.701   c12.34,0,24.731,0.911,36.96,2.714C295.22,4.574,301.538,0,308.74,0c7.337,0,13.897,4.918,15.954,11.96l0.974,3.347l3.208,1.173   c2.963,1.086,5.467,2.94,7.326,5.286C437.771,55.895,507.65,152.219,507.65,260.351C507.65,399.11,394.759,512,256,512z"/>
	<circle style="fill:#FF71B1;" cx="256" cy="260.351" r="235.47"/>
	<g>
		<g>
			<path style="fill:#FDEFF5;" d="M108.718,103.795c0.617-0.561,1.182-0.964,1.693-1.214c0.511-0.247,0.95-0.385,1.313-0.413     c0.365-0.027,0.745,0.068,1.145,0.292c0.4,0.223,0.703,0.442,0.923,0.658c0.217,0.213,0.528,0.549,0.94,1l17.96,19.759     c0.496,0.547,0.849,0.972,1.061,1.277c0.215,0.304,0.387,0.723,0.521,1.25c0.133,0.531,0.039,1.07-0.281,1.624     c-0.321,0.552-0.864,1.172-1.624,1.861c-0.615,0.561-1.18,0.966-1.691,1.215c-0.513,0.248-0.95,0.386-1.313,0.415     c-0.365,0.03-0.748-0.07-1.145-0.296c-0.4-0.222-0.706-0.438-0.923-0.656c-0.217-0.213-0.531-0.547-0.94-0.997l-6.57-7.228     l-9.433,8.576l6.6,7.261c0.496,0.549,0.851,0.975,1.064,1.277c0.212,0.307,0.385,0.723,0.521,1.253     c0.133,0.528,0.039,1.07-0.284,1.622c-0.321,0.552-0.861,1.175-1.619,1.865c-0.619,0.56-1.185,0.965-1.693,1.212     c-0.513,0.251-0.95,0.386-1.315,0.415c-0.365,0.03-0.745-0.07-1.143-0.292c-0.4-0.226-0.708-0.442-0.923-0.655     c-0.217-0.218-0.531-0.549-0.94-1l-17.96-19.761c-0.499-0.547-0.851-0.972-1.064-1.278c-0.212-0.302-0.385-0.721-0.521-1.249     c-0.133-0.529-0.037-1.069,0.284-1.621c0.321-0.55,0.861-1.175,1.621-1.866c0.617-0.561,1.18-0.964,1.693-1.212     c0.511-0.247,0.948-0.387,1.313-0.416c0.365-0.027,0.745,0.07,1.145,0.294c0.397,0.223,0.706,0.443,0.921,0.656     c0.217,0.216,0.531,0.549,0.94,1l6.602,7.265l9.435-8.578l-6.634-7.297c-0.494-0.547-0.849-0.972-1.064-1.28     c-0.212-0.302-0.385-0.723-0.518-1.248c-0.133-0.529-0.042-1.07,0.281-1.624C107.418,105.107,107.958,104.486,108.718,103.795z"/>
			<path style="fill:#FDEFF5;" d="M137.15,86.83l25.344,15.724c1.044,0.629,1.713,1.175,2.004,1.634     c0.617,0.977,0.39,2.357-0.684,4.135c-0.629,1.046-1.256,1.767-1.881,2.16c-0.432,0.276-0.896,0.4-1.39,0.369     c-0.491-0.028-0.898-0.132-1.219-0.309c-0.321-0.175-0.787-0.449-1.402-0.819l-4.897-3.05l-11.257,7.134l0.669,5.728     c0.072,0.712,0.109,1.239,0.116,1.575c0.005,0.339-0.081,0.747-0.257,1.218c-0.175,0.473-0.479,0.845-0.913,1.12     c-0.622,0.396-1.54,0.653-2.754,0.776c-2.051,0.238-3.386-0.131-4.003-1.108c-0.294-0.46-0.501-1.296-0.624-2.51l-3.421-29.672     c-0.096-0.812,0.039-1.599,0.407-2.367c0.37-0.765,0.893-1.362,1.57-1.791C134.026,85.849,135.553,85.869,137.15,86.83z      M140.038,98.669l0.849,7.267l5.403-3.426L140.038,98.669z"/>
			<path style="fill:#FDEFF5;" d="M180.775,70.767c1.429,1.243,2.547,2.823,3.359,4.746c0.807,1.921,1.158,3.818,1.042,5.695     c-0.114,1.877-0.578,3.524-1.387,4.946c-0.812,1.419-1.779,2.656-2.902,3.702c-1.125,1.051-2.308,1.835-3.549,2.359l-5.541,2.337     l2.11,5.008c0.286,0.681,0.481,1.198,0.58,1.559c0.099,0.357,0.123,0.808,0.074,1.352c-0.052,0.54-0.318,1.022-0.805,1.435     c-0.489,0.415-1.204,0.821-2.15,1.219c-0.768,0.326-1.434,0.518-1.999,0.58c-0.565,0.068-1.024,0.051-1.377-0.046     c-0.353-0.094-0.681-0.311-0.982-0.654c-0.301-0.344-0.521-0.654-0.652-0.927c-0.133-0.274-0.318-0.694-0.555-1.254     l-10.373-24.606c-0.286-0.682-0.479-1.198-0.578-1.557c-0.099-0.358-0.126-0.811-0.074-1.351     c0.049-0.543,0.316-1.024,0.805-1.436c0.484-0.416,1.202-0.822,2.147-1.22l9.487-4.001c1.244-0.523,2.624-0.817,4.144-0.885     c1.52-0.064,3.075,0.106,4.657,0.516C177.84,68.699,179.346,69.524,180.775,70.767z M176.31,78.757     c-0.536-1.271-1.372-2.056-2.51-2.361c-1.138-0.304-2.164-0.262-3.08,0.122l-5.543,2.337l3.31,7.85l5.585-2.356     c0.888-0.375,1.621-1.069,2.206-2.078C176.861,81.26,176.87,80.088,176.31,78.757z"/>
			<path style="fill:#FDEFF5;" d="M212.968,61.95c1.229,1.445,2.1,3.171,2.616,5.194c0.513,2.021,0.575,3.949,0.183,5.786     c-0.392,1.839-1.093,3.401-2.108,4.683c-1.012,1.287-2.152,2.362-3.421,3.229c-1.269,0.872-2.554,1.473-3.86,1.804l-5.829,1.486     l1.345,5.268c0.18,0.717,0.294,1.26,0.338,1.626c0.047,0.371,0.002,0.821-0.126,1.35c-0.131,0.529-0.466,0.965-1.009,1.302     c-0.543,0.333-1.313,0.631-2.305,0.884c-0.81,0.207-1.498,0.3-2.066,0.278c-0.57-0.021-1.019-0.105-1.355-0.252     c-0.336-0.143-0.627-0.41-0.871-0.792c-0.249-0.385-0.417-0.722-0.506-1.013c-0.094-0.292-0.212-0.733-0.365-1.324l-6.597-25.875     c-0.18-0.714-0.294-1.257-0.341-1.625c-0.042-0.371,0-0.821,0.131-1.35c0.128-0.531,0.464-0.963,1.007-1.299     c0.543-0.337,1.313-0.634,2.308-0.886l9.978-2.546c1.303-0.331,2.715-0.416,4.228-0.258c1.515,0.163,3.023,0.564,4.529,1.206     C210.374,59.468,211.739,60.509,212.968,61.95z M207.365,69.188c-0.341-1.334-1.051-2.237-2.13-2.709     c-1.081-0.469-2.1-0.58-3.065-0.336l-5.827,1.487l2.103,8.252l5.874-1.498c0.933-0.238,1.762-0.812,2.49-1.725     C207.536,71.744,207.721,70.588,207.365,69.188z"/>
			<path style="fill:#FDEFF5;" d="M246.555,51.468c1.673,0.926,2.562,1.902,2.665,2.922c0.059,0.606-0.222,1.489-0.847,2.648     l-8.781,16.505l0.923,9.144c0.077,0.734,0.106,1.287,0.096,1.656c-0.01,0.374-0.121,0.812-0.326,1.315     c-0.21,0.505-0.605,0.884-1.192,1.135c-0.587,0.254-1.392,0.434-2.414,0.537c-1.019,0.101-1.844,0.088-2.468-0.043     c-0.627-0.13-1.093-0.428-1.397-0.897c-0.306-0.47-0.501-0.885-0.585-1.249c-0.086-0.363-0.168-0.926-0.244-1.689l-0.913-9.05     l-11.901-14.417c-0.844-1.012-1.293-1.821-1.355-2.426c-0.104-1.021,0.587-2.156,2.073-3.401     c1.133-0.922,2.098-1.422,2.895-1.502c0.415-0.043,0.819,0.048,1.212,0.267c0.392,0.218,0.706,0.442,0.938,0.675     c0.234,0.237,0.555,0.61,0.96,1.113l8.618,11.123l6.222-12.619c0.294-0.579,0.536-1.006,0.716-1.281     c0.18-0.278,0.442-0.561,0.785-0.854c0.341-0.29,0.735-0.462,1.182-0.505C244.154,50.502,245.198,50.799,246.555,51.468z"/>
			<path style="fill:#FDEFF5;" d="M292.619,70.092c1.619,2.45,2.268,5.059,1.945,7.829c-0.437,3.181-1.809,5.685-4.122,7.514     c-2.426,1.978-5.151,2.793-8.179,2.44l-12.567-1.466c-0.829-0.096-1.505-0.254-2.029-0.478c-0.523-0.222-0.916-0.462-1.175-0.719     c-0.262-0.257-0.437-0.615-0.528-1.077c-0.091-0.463-0.128-0.848-0.109-1.151c0.02-0.304,0.064-0.759,0.136-1.366l3.09-26.521     c0.089-0.765,0.178-1.319,0.264-1.666c0.091-0.346,0.289-0.742,0.6-1.191c0.311-0.447,0.78-0.731,1.407-0.851     c0.627-0.122,1.451-0.121,2.473-0.001l12.042,1.401c2.93,0.343,5.267,1.649,7.004,3.917c1.829,2.314,2.577,4.919,2.239,7.817     C294.862,66.622,294.033,68.479,292.619,70.092z M286.165,76.41c0.086-0.732,0.067-1.33-0.054-1.799     c-0.126-0.465-0.383-0.81-0.775-1.033c-0.395-0.223-0.75-0.378-1.061-0.464c-0.313-0.084-0.79-0.165-1.427-0.238     c-1.244-0.146-2.125-0.474-2.646-0.985c-0.523-0.512-0.698-1.487-0.533-2.922c0.158-1.336,0.555-2.194,1.197-2.572     c0.642-0.379,1.646-0.486,3.016-0.326c0.415,0.048,0.735,0.068,0.963,0.063c0.227-0.004,0.484-0.065,0.772-0.178     c0.286-0.114,0.503-0.328,0.656-0.649c0.148-0.323,0.259-0.769,0.326-1.343c0.118-1.022-0.067-1.72-0.555-2.099     c-0.489-0.379-1.259-0.633-2.31-0.755l-6.691-0.777l-2.11,18.112l7.838,0.912c0.318,0.038,0.592,0.047,0.822,0.025     c0.227-0.022,0.55-0.099,0.97-0.226c0.42-0.13,0.768-0.428,1.049-0.897C285.893,77.795,286.076,77.177,286.165,76.41z"/>
			<path style="fill:#FDEFF5;" d="M302.335,59.869c0.165-0.718,0.311-1.253,0.439-1.603c0.128-0.35,0.37-0.731,0.728-1.144     c0.355-0.41,0.854-0.644,1.491-0.697c0.637-0.052,1.456,0.036,2.456,0.263c0.814,0.185,1.468,0.417,1.965,0.694     c0.496,0.278,0.861,0.558,1.091,0.843c0.234,0.281,0.373,0.649,0.417,1.104c0.042,0.452,0.039,0.832-0.01,1.132     c-0.054,0.3-0.146,0.748-0.281,1.341L304.7,87.888c-0.17,0.749-0.318,1.294-0.444,1.626c-0.123,0.336-0.365,0.707-0.723,1.12     c-0.355,0.411-0.851,0.644-1.491,0.697c-0.637,0.049-1.456-0.036-2.456-0.267c-0.814-0.181-1.468-0.413-1.965-0.69     c-0.496-0.278-0.861-0.558-1.091-0.843c-0.232-0.281-0.37-0.649-0.415-1.104c-0.044-0.454-0.042-0.832,0.01-1.134     c0.052-0.299,0.146-0.745,0.281-1.341L302.335,59.869z"/>
			<path style="fill:#FDEFF5;" d="M334.229,95.441c0.081,1.248,0.039,2.118-0.126,2.601c-0.392,1.156-1.666,1.804-3.818,1.953     c-1.116,0.094-2.009,0.026-2.675-0.201c-0.516-0.176-0.913-0.475-1.195-0.891c-0.284-0.418-0.457-0.807-0.518-1.167     c-0.062-0.362-0.123-0.907-0.178-1.636c-0.153-1.746-0.346-4.355-0.585-7.825l-1.444-0.392l-5.738-1.956l-1.755,5.146     c-0.239,0.698-0.439,1.213-0.605,1.549c-0.165,0.333-0.444,0.687-0.844,1.056c-0.397,0.374-0.918,0.553-1.555,0.538     c-0.639-0.012-1.444-0.185-2.416-0.516c-0.79-0.27-1.417-0.566-1.881-0.898c-0.464-0.325-0.797-0.643-0.997-0.946     c-0.202-0.306-0.299-0.69-0.296-1.146c0.002-0.457,0.047-0.829,0.131-1.124c0.081-0.294,0.222-0.728,0.42-1.306l8.618-25.274     c0.237-0.698,0.439-1.213,0.602-1.549c0.165-0.333,0.447-0.685,0.844-1.059c0.397-0.374,0.916-0.553,1.555-0.538     c0.639,0.017,1.446,0.188,2.416,0.521l9.835,3.354c1.278,0.433,2.505,1.133,3.685,2.093c1.18,0.963,2.216,2.123,3.112,3.476     c0.891,1.356,1.459,2.973,1.7,4.852c0.239,1.877,0.025,3.801-0.649,5.776c-1.172,3.429-3.273,5.865-6.303,7.304     C333.689,89.072,333.909,91.808,334.229,95.441z M320.7,77.866l5.832,1.99c0.879,0.297,1.873,0.265,2.981-0.104     c1.108-0.369,1.895-1.235,2.362-2.601c0.447-1.304,0.343-2.448-0.304-3.433c-0.649-0.981-1.444-1.634-2.384-1.956l-5.738-1.958     L320.7,77.866z"/>
			<path style="fill:#FDEFF5;" d="M350.968,70.805l23.73,12.349c0.57,0.297,0.972,0.534,1.204,0.711     c0.234,0.175,0.479,0.438,0.731,0.785c0.252,0.349,0.331,0.789,0.237,1.317c-0.096,0.529-0.336,1.165-0.721,1.904     s-0.765,1.292-1.133,1.661c-0.373,0.368-0.775,0.545-1.204,0.539c-0.429-0.007-0.792-0.059-1.083-0.157     c-0.294-0.099-0.723-0.297-1.293-0.591l-8.152-4.245l-11.17,21.469c-0.343,0.655-0.615,1.128-0.822,1.419     c-0.205,0.29-0.521,0.587-0.95,0.887c-0.427,0.302-0.955,0.397-1.584,0.288c-0.632-0.111-1.387-0.397-2.268-0.856     c-0.884-0.459-1.543-0.909-1.979-1.355c-0.439-0.444-0.656-0.928-0.656-1.454c0.002-0.521,0.067-0.959,0.195-1.309     c0.128-0.348,0.363-0.851,0.703-1.504l11.148-21.424l-8.194-4.268c-0.54-0.278-0.935-0.511-1.182-0.694     c-0.249-0.183-0.499-0.449-0.753-0.8c-0.252-0.347-0.331-0.786-0.234-1.315c0.094-0.529,0.333-1.165,0.718-1.905     c0.385-0.737,0.763-1.291,1.135-1.659c0.37-0.368,0.773-0.545,1.202-0.54c0.432,0.006,0.795,0.062,1.083,0.158     C349.968,70.313,350.4,70.508,350.968,70.805z"/>
			<path style="fill:#FDEFF5;" d="M404.21,104.263c0.666,0.505,1.167,0.982,1.505,1.44c0.338,0.455,0.553,0.863,0.649,1.214     c0.096,0.354,0.069,0.747-0.077,1.177c-0.148,0.433-0.306,0.779-0.476,1.029c-0.17,0.253-0.442,0.622-0.807,1.109l-16.116,21.292     c-0.444,0.59-0.797,1.017-1.056,1.281c-0.262,0.267-0.642,0.511-1.135,0.739c-0.496,0.23-1.044,0.237-1.646,0.022     c-0.602-0.216-1.313-0.632-2.13-1.251c-0.666-0.501-1.167-0.982-1.506-1.44c-0.338-0.455-0.553-0.86-0.649-1.214     c-0.094-0.352-0.069-0.745,0.077-1.177c0.148-0.436,0.306-0.775,0.476-1.029c0.17-0.251,0.442-0.621,0.81-1.107l5.894-7.789     l-10.168-7.693l-5.923,7.827c-0.444,0.587-0.797,1.012-1.059,1.278c-0.262,0.263-0.637,0.513-1.133,0.739     c-0.496,0.23-1.044,0.239-1.646,0.025c-0.602-0.216-1.311-0.632-2.13-1.251c-0.666-0.505-1.167-0.982-1.503-1.44     c-0.341-0.455-0.558-0.863-0.652-1.214c-0.094-0.354-0.069-0.747,0.079-1.182c0.146-0.431,0.304-0.774,0.474-1.027     c0.173-0.251,0.439-0.621,0.81-1.107l16.114-21.292c0.444-0.59,0.797-1.017,1.059-1.281c0.262-0.267,0.637-0.513,1.135-0.743     c0.494-0.228,1.042-0.233,1.644-0.019c0.602,0.211,1.313,0.629,2.132,1.248c0.664,0.506,1.165,0.986,1.503,1.441     c0.338,0.458,0.555,0.863,0.649,1.217c0.096,0.352,0.069,0.745-0.077,1.177c-0.146,0.431-0.304,0.775-0.476,1.027     c-0.17,0.253-0.442,0.623-0.807,1.109l-5.923,7.826l10.166,7.694l5.953-7.866c0.444-0.587,0.797-1.014,1.059-1.278     c0.262-0.264,0.639-0.513,1.133-0.742c0.496-0.227,1.044-0.237,1.646-0.022C402.683,103.225,403.393,103.644,404.21,104.263z"/>
			<path style="fill:#FDEFF5;" d="M422.341,146.7c-3.539,3.355-7.764,4.982-12.673,4.882c-4.911-0.099-9.053-1.93-12.427-5.493     l-6.057-6.395c-0.661-0.696-1.133-1.334-1.412-1.907c-0.279-0.578-0.35-1.106-0.212-1.592c0.138-0.482,0.343-0.897,0.612-1.24     c0.271-0.344,0.671-0.773,1.209-1.278l19.421-18.398c0.558-0.529,0.98-0.897,1.271-1.104c0.289-0.207,0.696-0.386,1.222-0.531     c0.528-0.143,1.069-0.06,1.629,0.253c0.558,0.309,1.19,0.834,1.898,1.581c0.661,0.7,1.668,1.775,3.026,3.232     c1.355,1.451,2.374,2.54,3.058,3.264c3.199,3.375,4.795,7.494,4.788,12.362C427.686,139.204,425.902,143.325,422.341,146.7z      M416.343,140.649c1.863-1.765,2.806-3.908,2.828-6.423c0.025-2.519-0.805-4.665-2.48-6.434l-3.176-3.353l-13.204,12.508     l3.208,3.389c1.589,1.676,3.648,2.6,6.173,2.77C412.217,143.276,414.433,142.458,416.343,140.649z"/>
			<path style="fill:#FDEFF5;" d="M447.65,156.959l-14.907,25.834c-0.595,1.064-1.118,1.747-1.567,2.052     c-0.958,0.649-2.342,0.466-4.156-0.548c-1.064-0.597-1.804-1.199-2.219-1.81c-0.289-0.424-0.427-0.884-0.412-1.377     c0.012-0.495,0.104-0.903,0.269-1.229c0.165-0.327,0.424-0.802,0.775-1.429l2.893-4.989l-7.49-11.026l-5.704,0.853     c-0.711,0.096-1.236,0.149-1.572,0.165c-0.338,0.017-0.748-0.053-1.224-0.215c-0.479-0.162-0.861-0.454-1.15-0.876     c-0.412-0.612-0.701-1.523-0.864-2.731c-0.304-2.041,0.025-3.387,0.98-4.036c0.452-0.307,1.281-0.54,2.488-0.702l29.547-4.371     c0.81-0.122,1.602-0.011,2.379,0.332c0.777,0.343,1.39,0.848,1.841,1.512C448.531,153.8,448.561,155.332,447.65,156.959z      M435.91,160.226l-7.239,1.075l3.596,5.293L435.91,160.226z"/>
			<path style="fill:#FDEFF5;" d="M468.72,191.761c-0.281,1.891-0.879,3.068-1.799,3.523c-0.545,0.271-1.471,0.317-2.774,0.142     l-18.54-2.408l-8.236,4.081c-0.661,0.326-1.165,0.553-1.518,0.671c-0.35,0.12-0.8,0.174-1.345,0.155     c-0.545-0.014-1.039-0.253-1.481-0.714c-0.444-0.46-0.893-1.149-1.35-2.069c-0.457-0.919-0.733-1.696-0.832-2.326     c-0.099-0.633,0.02-1.174,0.35-1.624c0.331-0.449,0.652-0.779,0.96-0.987c0.309-0.207,0.81-0.479,1.498-0.822l8.149-4.04     l9.304-16.212c0.649-1.145,1.246-1.855,1.794-2.125c0.921-0.455,2.224-0.207,3.914,0.745c1.259,0.735,2.066,1.462,2.424,2.182     c0.185,0.371,0.244,0.784,0.18,1.227c-0.069,0.444-0.17,0.817-0.306,1.118c-0.138,0.299-0.373,0.729-0.706,1.288l-7.377,11.981     l14.004,1.382c0.644,0.072,1.128,0.147,1.451,0.22c0.323,0.072,0.681,0.217,1.074,0.434c0.395,0.216,0.691,0.523,0.891,0.928     C468.779,189.172,468.868,190.257,468.72,191.761z"/>
		</g>
	</g>
	<g>
		<path style="fill:#FFEFD7;" d="M103.533,206.158l9.233,3.375c0.397,0.145,0.378,0.713-0.028,0.831l-9.594,2.796    c-1.069,0.311-1.927,1.113-2.309,2.159l-3.376,9.233c-0.145,0.397-0.713,0.378-0.831-0.028l-2.796-9.594    c-0.312-1.069-1.113-1.926-2.159-2.309l-9.142-3.342c-0.406-0.148-0.374-0.732,0.045-0.836l9.723-2.411    c1.181-0.293,2.125-1.177,2.494-2.337l2.975-9.353c0.131-0.412,0.716-0.405,0.837,0.01l2.767,9.495    C101.685,204.918,102.487,205.775,103.533,206.158z"/>
		<path style="fill:#FFD974;" d="M312.861,452.729l9.233,3.376c0.397,0.145,0.378,0.713-0.028,0.831l-9.594,2.796    c-1.069,0.312-1.926,1.113-2.309,2.159l-3.376,9.233c-0.145,0.397-0.713,0.378-0.831-0.028l-2.796-9.594    c-0.312-1.069-1.113-1.927-2.159-2.309l-9.142-3.342c-0.406-0.148-0.374-0.732,0.045-0.836l9.723-2.411    c1.181-0.293,2.125-1.178,2.494-2.337l2.975-9.353c0.131-0.412,0.716-0.405,0.837,0.01l2.767,9.495    C311.013,451.49,311.815,452.347,312.861,452.729z"/>
		<path style="fill:#FFEFD7;" d="M469.231,311.966l9.233,3.376c0.397,0.145,0.378,0.713-0.028,0.831l-9.594,2.796    c-1.069,0.312-1.927,1.113-2.309,2.159l-3.375,9.233c-0.145,0.397-0.713,0.378-0.831-0.028l-2.796-9.594    c-0.311-1.069-1.113-1.927-2.159-2.309l-9.142-3.342c-0.405-0.148-0.374-0.732,0.045-0.836l9.723-2.411    c1.181-0.293,2.125-1.178,2.494-2.337l2.975-9.353c0.131-0.412,0.716-0.405,0.837,0.01l2.767,9.495    C467.383,310.726,468.185,311.583,469.231,311.966z"/>
		<path style="fill:#FFD974;" d="M315.406,26.466l11.228,4.105c0.483,0.176,0.459,0.867-0.034,1.011l-11.666,3.4    c-1.3,0.379-2.343,1.354-2.808,2.626l-4.105,11.228c-0.176,0.483-0.867,0.46-1.011-0.034l-3.4-11.666    c-0.379-1.3-1.354-2.343-2.626-2.808l-11.116-4.064c-0.493-0.18-0.455-0.89,0.055-1.016l11.824-2.932    c1.436-0.356,2.584-1.432,3.032-2.842l3.618-11.373c0.159-0.501,0.871-0.492,1.018,0.012l3.365,11.547    C313.159,24.959,314.134,26.001,315.406,26.466z"/>
		<path style="fill:#FFEFD7;" d="M375.286,162.53l9.233,3.376c0.397,0.145,0.378,0.713-0.028,0.831l-9.594,2.796    c-1.069,0.312-1.926,1.113-2.309,2.159l-3.376,9.233c-0.145,0.397-0.713,0.378-0.831-0.028l-2.796-9.594    c-0.312-1.069-1.113-1.927-2.159-2.309l-9.142-3.342c-0.405-0.148-0.374-0.732,0.045-0.836l9.723-2.411    c1.181-0.293,2.125-1.178,2.494-2.337l2.975-9.353c0.131-0.412,0.716-0.405,0.837,0.01l2.767,9.496    C373.438,161.291,374.24,162.148,375.286,162.53z"/>
		<path style="fill:#FFA368;" d="M474.618,277.012c-3.302-0.284-5.73-3.491-6.305-6.754c-0.576-3.263,0.252-6.589,0.964-9.825    c0.712-3.236,1.307-6.662,0.292-9.816c-1.59-4.946-6.729-7.909-11.776-9.143c-4.427-1.083-8.54-1.313-13.014-0.447    c3.308-6.482,6.849-12.845,10.614-19.072c1.72,0.627,3.423,0.299,5.038,1.163c4.762,2.548,9.547,5.207,13.45,8.94    c3.903,3.733,6.887,8.709,7.154,14.103c0.139,2.802-0.452,5.612-0.201,8.406c0.251,2.794,1.656,5.786,4.32,6.667    C481.983,266.576,477.787,271.668,474.618,277.012z"/>
		<path style="fill:#923EFF;" d="M407.942,405.082c-2.207,11.853-11.039,21.651-21.202,28.135    c-4.532-3.912-8.391-8.111-12.923-12.023c8.134-5.491,14.472-13.599,17.837-22.819    C397.031,402.295,401.598,403.078,407.942,405.082z"/>
		<path style="fill:#FFE4E0;" d="M183.95,129.233c11.082-4.748,24.135-2.845,35.173,2.005c-0.736,5.941-2.085,11.483-2.821,17.424    c-9.084-3.715-19.347-4.482-28.883-2.16C187.692,139.854,185.807,135.623,183.95,129.233z"/>
		<path style="fill:#D7A0FF;" d="M49.832,306.812c-9.675-7.194-14.592-19.434-15.948-31.414c5.506-2.35,10.975-3.97,16.481-6.32    c1.355,9.72,5.851,18.978,12.652,26.054C57.133,298.237,54.422,301.994,49.832,306.812z"/>
	</g>
	<g>
		<path style="fill:#923EFF;" d="M72.717,108.24c2.617,2.033,2.911,6.045,1.62,9.097c-1.291,3.052-3.793,5.393-6.151,7.722    c-2.358,2.329-4.718,4.881-5.582,8.08c-1.354,5.016,1.348,10.296,4.913,14.076c3.127,3.316,6.453,5.745,10.68,7.45    c-6.3,3.642-12.732,7.057-19.278,10.236c-1.103-1.462-2.71-2.112-3.596-3.715c-2.611-4.727-5.181-9.561-6.427-14.816    c-1.246-5.255-1.046-11.054,1.663-15.727c1.407-2.427,3.43-4.464,4.738-6.946c1.308-2.482,1.756-5.757-0.001-7.944    C60.861,112.994,67.152,111.001,72.717,108.24z"/>
		<g>
			<g>
				<g>
					<g>
						<path style="fill:#FFEFD7;" d="M311.259,181.378c-2.957,4.94-10.431,5.362-16.086,6.5c-8.904,1.755-18.003,2.535-27.102,2.307        c-6.597-0.163-13.291-0.877-19.336-3.477c-6.044-2.6-13.519-7.019-13.486-13.616c0.032-3.12,0.585-6.142,1.592-9.034        c3.217-9.554,11.081-17.646,19.628-23.398c11.179-7.474,24.015-12.316,34.869-20.278c-3.379,6.825-0.812,15.209,3.445,21.513        c4.257,6.337,10.074,11.471,14.169,17.906c0.91,1.462,1.755,3.022,2.405,4.647        C313.663,170.004,314.249,176.308,311.259,181.378z"/>
						<path style="opacity:0.15;fill:#FFA368;" d="M311.259,181.378c-2.957,4.94-10.431,5.362-16.086,6.5        c-8.904,1.755-18.003,2.535-27.102,2.307c-6.597-0.163-13.291-0.877-19.336-3.477c-6.044-2.6-13.519-7.019-13.486-13.616        c0.032-3.12,0.585-6.142,1.592-9.034c5.004-1.625,10.561-2.307,14.461-2.307c14.656,0.065,28.662,8.287,43.253,6.825        c5.719-0.617,11.211-2.665,16.801-4.127C313.663,170.004,314.249,176.308,311.259,181.378z"/>
						<path style="fill:#FFEFD7;" d="M340.473,216.507c-3.575,3.737-8.741,5.492-13.746,6.955        c-29.702,8.677-61.971,11.926-91.381,2.339c-12.381-4.062-27.882-15.696-23.885-30.807c1.235-4.615,3.672-9.099,6.889-13.064        c6.467-7.962,16.151-13.844,25.64-14.623c13.389-1.137,26.257,5.654,39.679,6.012c6.987,0.162,13.909-1.397,20.896-1.365        c10.692,0.033,21.318,3.932,29.442,10.822c0.13,0.097,0.26,0.227,0.39,0.357c4.745,4.095,8.644,9.327,10.204,15.403        C346.193,204.743,344.926,211.892,340.473,216.507z"/>
						<path style="opacity:0.15;fill:#FFA368;" d="M340.473,216.507c-3.575,3.737-8.741,5.492-13.746,6.955        c-29.702,8.677-61.971,11.926-91.381,2.339c-12.381-4.062-27.882-15.696-23.885-30.807c1.235-4.615,3.672-9.099,6.889-13.064        c0.097,0,0.227-0.033,0.325-0.033c11.114-1.105,22.066,2.73,33.082,4.647c9.197,1.625,18.589,1.885,27.85,0.813        c18.361-2.112,37.437-9.327,54.79-4.225c4.745,4.095,8.644,9.327,10.204,15.403        C346.193,204.743,344.926,211.892,340.473,216.507z"/>
						<path style="fill:#FFEFD7;" d="M367.58,226.746c-55.082,12.544-111.822,20.765-167.684,29.28        c-3.38,0.52-6.759,1.04-10.172,1.56c-4.289,0.65-8.579,1.3-12.869,1.95c-1.04,0.163-2.145,0.325-3.185,0.098        c-2.664-0.552-4.322-3.51-4.322-6.239c0-1.885,1.3-3.12,2.242-4.582c0.455-0.65,0.813-1.365,0.942-2.21        c1.073-6.987,2.73-13.973,5.232-20.571c0.033,0.033,0.033,0.033,0.033,0c2.08-5.524,4.809-10.756,8.287-15.566        c6.467-8.937,15.859-16.086,26.485-18.783c1.852-0.488,3.737-0.845,5.654-1.04c11.146-1.105,22.098,2.73,33.114,4.647        c9.164,1.592,18.588,1.885,27.85,0.813c19.693-2.275,40.264-10.432,58.624-2.892c2.177,0.91,4.225,1.982,6.142,3.217        c4.419,2.827,8.287,6.499,11.666,10.692C360.43,213,364.297,219.921,367.58,226.746z"/>
					</g>
					<path style="opacity:0.15;fill:#FFA368;" d="M367.58,226.746c-55.082,12.544-111.822,20.765-167.684,29.28       c-3.38,0.52-6.759,1.04-10.172,1.56c-6.239-2.502-12.316-5.395-18.133-8.774c0.455-0.65,0.813-1.365,0.942-2.21       c1.073-6.987,2.73-13.973,5.232-20.571c0.033,0.033,0.033,0.033,0.033,0c1.722-1.235,3.51-2.372,5.362-3.379       c9.879-5.329,21.253-7.247,32.432-7.864c0.617-0.032,1.202-0.065,1.82-0.065h0.033c12.121-0.585,24.243,0.26,36.137,2.535       c2.632,0.488,5.297,1.04,7.897,0.553c2.632-0.52,4.939-2.08,7.214-3.445c9.099-5.525,19.531-8.969,30.157-9.132       c10.627-0.163,21.415,3.087,29.702,9.749c4.972-3.055,10.496-5.297,16.183-6.565c3.575-0.812,7.247-1.267,10.886-1.3       C360.43,213,364.297,219.921,367.58,226.746z"/>
				</g>
				<g>
					<path style="fill:#370644;" d="M171.225,152.693c-0.319,0-0.615-0.205-0.715-0.525l-4.158-13.214       c-0.125-0.395,0.095-0.816,0.49-0.94c0.395-0.124,0.816,0.096,0.94,0.49l4.158,13.214c0.125,0.395-0.095,0.816-0.49,0.94       C171.375,152.682,171.299,152.693,171.225,152.693z"/>
					<g>
						<path style="fill:#FFA5D7;" d="M197.141,221.71c0.466,1.766-0.536,3.579-2.297,4.077c-0.125,0.055-0.223,0.071-0.353,0.093        c-1.63,0.275-3.274-0.722-3.718-2.357c-0.751-2.657-1.507-5.347-2.29-7.999c-0.345-1.25-0.723-2.494-1.063-3.711        c-0.92-3.065-1.802-6.102-2.716-9.134c-0.378-1.244-0.75-2.456-1.128-3.7c-0.942-2.994-1.883-5.988-2.82-8.949        c-0.378-1.244-0.783-2.45-1.154-3.662c-0.937-2.961-1.905-5.917-2.906-8.867c-0.373-1.212-0.783-2.45-1.22-3.651        c-0.963-2.923-1.926-5.846-2.955-8.758c-0.405-1.206-0.81-2.413-1.215-3.619c-1.028-2.912-2.057-5.824-3.08-8.704        c-0.591-1.711,0.297-3.606,2.003-4.229c1.738-0.629,3.605,0.297,4.229,2.003c0.623,1.706,1.22,3.45,1.811,5.161        c0.437,1.2,0.875,2.401,1.28,3.607l0.006,0.033c0.99,2.885,1.98,5.77,2.971,8.655c0.405,1.206,0.815,2.445,1.225,3.684        c0.995,2.917,1.964,5.873,2.895,8.802c0.41,1.239,0.821,2.477,1.199,3.722c0.968,2.956,1.905,5.917,2.808,8.884        c0.411,1.239,0.788,2.483,1.166,3.727c0.909,2.999,1.818,5.999,2.727,8.998c0.378,1.244,0.729,2.527,1.112,3.804        C194.84,213.647,195.991,217.679,197.141,221.71z"/>
						<path style="fill:#FFD974;" d="M177.549,159.312l0.006,0.033c-1.654,1.923-3.308,3.845-5.033,5.747        c-0.405-1.206-0.81-2.413-1.215-3.619c1.692-1.896,3.347-3.818,4.963-5.768C176.706,156.905,177.144,158.106,177.549,159.312z        "/>
						<path style="fill:#FFD974;" d="M181.751,171.684c-1.643,1.988-3.33,3.916-5.055,5.818c-0.373-1.212-0.783-2.45-1.22-3.651        c1.725-1.901,3.406-3.862,5.05-5.85C180.93,169.206,181.34,170.445,181.751,171.684z"/>
						<path style="fill:#FFD974;" d="M181.751,171.684c-1.643,1.988-3.33,3.916-5.055,5.818c-0.373-1.212-0.783-2.45-1.22-3.651        c1.725-1.901,3.406-3.862,5.05-5.85C180.93,169.206,181.34,170.445,181.751,171.684z"/>
						<path style="fill:#FFD974;" d="M185.844,184.208c-1.676,1.993-3.363,3.922-5.088,5.823c-0.378-1.244-0.783-2.45-1.154-3.662        c1.719-1.934,3.401-3.895,5.044-5.883C185.056,181.724,185.466,182.963,185.844,184.208z"/>
						<path style="fill:#FFD974;" d="M185.844,184.208c-1.676,1.993-3.363,3.922-5.088,5.823c-0.378-1.244-0.783-2.45-1.154-3.662        c1.719-1.934,3.401-3.895,5.044-5.883C185.056,181.724,185.466,182.963,185.844,184.208z"/>
						<path style="fill:#FFD974;" d="M189.818,196.819c-1.676,1.993-3.357,3.954-5.114,5.861c-0.378-1.244-0.75-2.456-1.128-3.7        c1.725-1.901,3.4-3.895,5.076-5.888C189.063,194.33,189.441,195.575,189.818,196.819z"/>
						<path style="fill:#FFD974;" d="M189.818,196.819c-1.676,1.993-3.357,3.954-5.114,5.861c-0.378-1.244-0.75-2.456-1.128-3.7        c1.725-1.901,3.4-3.895,5.076-5.888C189.063,194.33,189.441,195.575,189.818,196.819z"/>
						<path style="fill:#FFD974;" d="M193.657,209.62c-1.67,2.026-3.422,3.966-5.174,5.905c-0.345-1.25-0.723-2.494-1.063-3.711        c1.747-1.972,3.455-3.971,5.125-5.997C192.923,207.061,193.274,208.343,193.657,209.62z"/>
					</g>
					<g>
						<path style="fill:#FFD974;" d="M168.946,144.947c-0.702,0.833-2.002,0.869-3.028,0.504c-2.866-1.019-4.259-4.27-4.757-7.271        c-0.767-4.621-0.191-9.347,0.385-13.996c5.026,2.026,8.717,5.948,10.678,10.999c0.679,1.748,1.11,3.666,0.709,5.498        C172.533,142.513,170.796,144.644,168.946,144.947z"/>
						<path style="fill:#FFEFD7;" d="M169.39,144.854c-0.45,0.534-1.282,0.557-1.94,0.323c-1.836-0.653-2.728-2.736-3.047-4.657        c-0.491-2.96-0.122-5.988,0.247-8.966c3.219,1.298,5.583,3.811,6.84,7.046c0.435,1.12,0.711,2.349,0.455,3.522        C171.687,143.295,170.575,144.66,169.39,144.854z"/>
					</g>
				</g>
				<g>
					<path style="fill:#370644;" d="M300.069,138.121c-0.052,0-0.105-0.005-0.158-0.017c-0.405-0.087-0.664-0.485-0.577-0.89       l2.899-13.546c0.087-0.406,0.49-0.663,0.89-0.577c0.405,0.087,0.664,0.485,0.577,0.89l-2.899,13.546       C300.726,137.88,300.415,138.121,300.069,138.121z"/>
					<g>
						<path style="fill:#FFA5D7;" d="M288.209,210.845c-0.466,1.766-2.231,2.849-4.009,2.414c-0.136-0.014-0.229-0.048-0.353-0.093        c-1.554-0.564-2.493-2.242-2.072-3.884c0.657-2.682,1.326-5.394,1.952-8.087c0.316-1.257,0.601-2.526,0.906-3.753        c0.711-3.12,1.442-6.197,2.142-9.285c0.285-1.269,0.558-2.507,0.843-3.775c0.657-3.069,1.314-6.138,1.96-9.176        c0.285-1.268,0.528-2.518,0.802-3.755c0.646-3.038,1.261-6.087,1.845-9.147c0.273-1.238,0.527-2.518,0.739-3.778        c0.604-3.018,1.207-6.036,1.749-9.076c0.242-1.249,0.485-2.498,0.727-3.747c0.542-3.04,1.083-6.081,1.613-9.09        c0.33-1.78,2.036-2.991,3.828-2.691c1.822,0.31,2.99,2.036,2.691,3.828c-0.299,1.791-0.64,3.603-0.97,5.383        c-0.211,1.26-0.423,2.52-0.665,3.769l-0.011,0.031c-0.561,2.998-1.122,5.996-1.683,8.995        c-0.243,1.249-0.496,2.529-0.751,3.809c-0.573,3.029-1.187,6.078-1.822,9.085c-0.254,1.28-0.508,2.56-0.793,3.829        c-0.615,3.049-1.261,6.087-1.938,9.113c-0.254,1.28-0.539,2.549-0.824,3.818c-0.688,3.057-1.377,6.115-2.065,9.172        c-0.285,1.269-0.612,2.558-0.909,3.857C290.184,202.695,289.197,206.77,288.209,210.845z"/>
						<path style="fill:#FFD974;" d="M301.935,146.9l-0.011,0.031c-2.387,0.857-4.774,1.714-7.213,2.517        c0.242-1.249,0.485-2.498,0.727-3.747c2.407-0.815,4.794-1.672,7.162-2.571C302.39,144.391,302.178,145.651,301.935,146.9z"/>
						<path style="fill:#FFD974;" d="M299.49,159.735c-2.41,0.919-4.828,1.765-7.266,2.568c0.273-1.238,0.527-2.518,0.739-3.778        c2.438-0.803,4.867-1.68,7.278-2.599C299.998,157.174,299.744,158.455,299.49,159.735z"/>
						<path style="fill:#FFD974;" d="M299.49,159.735c-2.41,0.919-4.828,1.765-7.266,2.568c0.273-1.238,0.527-2.518,0.739-3.778        c2.438-0.803,4.867-1.68,7.278-2.599C299.998,157.174,299.744,158.455,299.49,159.735z"/>
						<path style="fill:#FFD974;" d="M296.875,172.649c-2.441,0.908-4.859,1.754-7.298,2.557c0.285-1.268,0.528-2.518,0.802-3.755        c2.449-0.835,4.879-1.711,7.289-2.63C297.414,170.1,297.16,171.38,296.875,172.649z"/>
						<path style="fill:#FFD974;" d="M296.875,172.649c-2.441,0.908-4.859,1.754-7.298,2.557c0.285-1.268,0.528-2.518,0.802-3.755        c2.449-0.835,4.879-1.711,7.289-2.63C297.414,170.1,297.16,171.38,296.875,172.649z"/>
						<path style="fill:#FFD974;" d="M294.114,185.579c-2.441,0.908-4.871,1.785-7.34,2.577c0.285-1.269,0.558-2.507,0.843-3.775        c2.438-0.804,4.879-1.711,7.32-2.619C294.684,183.042,294.399,184.311,294.114,185.579z"/>
						<path style="fill:#FFD974;" d="M294.114,185.579c-2.441,0.908-4.871,1.785-7.34,2.577c0.285-1.269,0.558-2.507,0.843-3.775        c2.438-0.804,4.879-1.711,7.32-2.619C294.684,183.042,294.399,184.311,294.114,185.579z"/>
						<path style="fill:#FFD974;" d="M291.14,198.609c-2.452,0.939-4.933,1.762-7.413,2.585c0.316-1.257,0.601-2.526,0.906-3.753        c2.492-0.854,4.964-1.751,7.416-2.69C291.764,196.021,291.436,197.309,291.14,198.609z"/>
					</g>
					<g>
						<path style="fill:#FFD974;" d="M301.536,130.161c-1.022,0.379-2.17-0.231-2.883-1.055c-1.99-2.3-1.599-5.815-0.552-8.671        c1.612-4.398,4.443-8.226,7.237-11.986c3.373,4.24,4.649,9.473,3.865,14.835c-0.271,1.856-0.842,3.737-2.094,5.133        C305.856,129.812,303.295,130.809,301.536,130.161z"/>
						<path style="fill:#FFEFD7;" d="M301.968,130.299c-0.655,0.243-1.39-0.148-1.847-0.676c-1.275-1.473-1.025-3.725-0.354-5.555        c1.033-2.817,2.846-5.269,4.636-7.678c2.161,2.717,2.978,6.068,2.476,9.503c-0.174,1.189-0.54,2.394-1.341,3.288        C304.735,130.076,303.094,130.714,301.968,130.299z"/>
					</g>
				</g>
				<path style="fill:#FFA368;" d="M430.883,330.81c-0.055,1.128-0.137,2.229-0.22,3.302c-0.963,15.219-2.669,25.814-2.669,25.814      l-57.737,1.981l-3.715,0.138l-265.266,9.137c0,0,0.165-14.503,1.046-33.795c0.027-1.156,0.082-2.339,0.165-3.55      c0.495-10.348,1.211-21.851,2.202-33.107c2.257-25.401,5.944-49.591,12.054-56.746c24.575-28.786,276.136-34.428,300.023,1.404      c6.853,10.32,10.705,24.19,12.714,38.693C431.681,300.18,431.626,317.078,430.883,330.81z"/>
				<path style="fill:#FFE4E0;" d="M430.883,330.81c-0.055,1.128-0.137,2.229-0.22,3.302c-8.972-7.32-23.282-6.605-33.354-1.018      c-11.944,6.577-20.31,18.714-27.052,28.814c-0.275,0.413-0.55,0.798-0.826,1.211c-0.248,0.413-0.633,0.633-1.183,0.606      c-0.468,0-0.908-0.275-1.156-0.688c-0.193-0.33-0.385-0.661-0.55-0.991c-5.229-9.164-10.21-17.255-17.31-23.53      c-8.284-7.348-18.438-10.623-27.19-8.724c-11.806,2.559-21.053,13.622-27.465,32.886c-0.193,0.578-0.715,0.963-1.376,0.936      c-0.606-0.027-1.128-0.468-1.266-1.073c-2.339-10.21-6.385-18.549-12.081-24.823c-6.522-7.21-15.521-11.503-24.08-11.503      c-4.348,0-8.751,1.073-12.907,3.055c-4.155,1.982-8.063,4.871-11.476,8.559c-5.697,6.192-9.962,14.31-12.989,24.851      c-0.165,0.605-0.743,1.018-1.376,0.991s-1.156-0.495-1.293-1.101c-2.972-14.476-7.293-28.593-18.824-33.932      c-10.65-4.954-23.117,0.193-30.162,7.1c-8.504,8.283-12.797,20.227-15.576,29.722c-0.193,0.578-0.715,0.991-1.321,0.991      c-0.055,0-0.083,0-0.138-0.028c-0.633-0.055-1.156-0.55-1.238-1.183c-0.908-7.733-4.568-26.392-18.769-32.556      c-8.476-3.66-19.374-1.761-27.382,4.706c0.027-1.156,0.082-2.339,0.165-3.55c8.586-5.972,19.594-7.486,28.291-3.688      c9.687,4.211,16.622,14.586,19.512,28.923c2.89-8.614,7.21-18.191,14.53-25.318c9.44-9.192,23.117-12.329,33.244-7.623      c11.228,5.201,16.127,17.503,19.264,30.85c3-8.614,6.963-15.521,12.054-20.998c7.32-7.953,16.925-12.522,26.392-12.522      c4.734,0,9.467,1.128,13.925,3.247c4.458,2.119,8.614,5.201,12.192,9.164c5.174,5.696,9.054,12.962,11.586,21.658      c6.687-17.613,16.072-27.85,27.988-30.437c9.604-2.064,20.667,1.431,29.611,9.357c7.155,6.33,12.164,14.283,17.31,23.282      c6.852-10.21,15.356-22.291,27.575-29.033C406.363,324.921,420.948,324.013,430.883,330.81z"/>
				<g>
					<g>
						<g>
							<path style="fill:#D7A0FF;" d="M305.806,336.035c0,0.719-0.023,1.415-0.093,2.111c-0.556,6.238-3.479,11.781-7.908,15.7         c-4.151,3.734-9.601,6.006-15.63,6.076h-0.255c-13.195,0-23.886-10.691-23.886-23.886c0-4.847,1.438-9.369,3.943-13.149         c4.267-6.47,11.618-10.737,19.944-10.737C295.115,312.149,305.806,322.84,305.806,336.035z"/>
							<path style="opacity:0.35;fill:#D7A0FF;" d="M305.713,338.146c-0.556,6.238-3.479,11.781-7.908,15.7         c-4.685,3.177-10.065,5.38-15.63,6.076h-0.255c-13.195,0-23.886-10.691-23.886-23.886c0-4.847,1.438-9.369,3.943-13.149         c2.551,2.69,5.473,4.963,8.65,6.888c3.595,2.18,7.467,3.85,11.479,5.102C289.712,337.241,297.712,338.053,305.713,338.146z"/>
							<path style="fill:#FFE4E0;" d="M296.702,340.716c0.199,0.996,0.633,2.077,1.574,2.46c0.703,0.286,1.519,0.096,2.188-0.262         c1.359-0.726,2.296-2.087,2.795-3.544c0.5-1.458,0.607-3.018,0.647-4.558c0.029-1.084,0.019-2.205-0.414-3.198         c-1.566-3.589-4.221-0.901-5.436,1.214C296.701,335.187,296.168,338.037,296.702,340.716z"/>
							<path style="fill:#923EFF;" d="M286.064,317.493c-0.322,0.723-0.121,1.597,0.334,2.244c0.456,0.647,1.131,1.103,1.817,1.497         c1.542,0.884,3.222,1.525,4.96,1.894c0.729,0.155,1.49,0.261,2.217,0.094c0.727-0.167,1.418-0.658,1.639-1.371         c0.216-0.698-0.048-1.456-0.412-2.089C295.249,317.386,287.835,313.514,286.064,317.493z"/>
						</g>
						<g>
							<path style="fill:#4DC764;" d="M277.493,351.896c-5.04-6.543-12.293-11.35-20.283-13.441         c-7.99-2.092-16.668-1.456-24.267,1.777c1.978,6.299,7.883,10.096,14.187,12.058         C256.283,355.138,268.611,355.501,277.493,351.896z"/>
							<path style="fill:#4DC764;" d="M285.989,355.395c8.129,1.462,16.73,0.152,24.055-3.665         c7.324-3.817,13.326-10.116,16.784-17.617c-5.696-3.338-12.621-2.185-18.609,0.596         C299.525,338.747,290.148,346.759,285.989,355.395z"/>
						</g>
					</g>
					<g>
						<g>
							<path style="fill:#D7A0FF;" d="M181.438,336.035c0,0.719-0.023,1.415-0.093,2.111c-0.556,6.238-3.479,11.781-7.908,15.7         c-4.151,3.734-9.601,6.006-15.63,6.076h-0.255c-13.195,0-23.886-10.691-23.886-23.886c0-4.847,1.438-9.369,3.942-13.149         c4.267-6.47,11.618-10.737,19.944-10.737C170.748,312.149,181.438,322.84,181.438,336.035z"/>
							<path style="opacity:0.35;fill:#D7A0FF;" d="M181.346,338.146c-0.556,6.238-3.479,11.781-7.908,15.7         c-4.685,3.177-10.065,5.38-15.63,6.076h-0.255c-13.195,0-23.886-10.691-23.886-23.886c0-4.847,1.438-9.369,3.942-13.149         c2.551,2.69,5.473,4.963,8.65,6.888c3.595,2.18,7.467,3.85,11.479,5.102C165.344,337.241,173.345,338.053,181.346,338.146z"/>
							<path style="fill:#FFE4E0;" d="M172.335,340.716c0.199,0.996,0.633,2.077,1.574,2.46c0.703,0.286,1.519,0.096,2.188-0.262         c1.359-0.726,2.296-2.087,2.795-3.544c0.5-1.458,0.607-3.018,0.648-4.558c0.029-1.084,0.019-2.205-0.414-3.198         c-1.565-3.589-4.221-0.901-5.436,1.214C172.334,335.187,171.8,338.037,172.335,340.716z"/>
							<path style="fill:#923EFF;" d="M161.696,317.493c-0.322,0.723-0.121,1.597,0.334,2.244c0.456,0.647,1.131,1.103,1.817,1.497         c1.542,0.884,3.222,1.525,4.96,1.894c0.729,0.155,1.49,0.261,2.217,0.094c0.727-0.167,1.418-0.658,1.639-1.371         c0.216-0.698-0.048-1.456-0.412-2.089C170.881,317.386,163.468,313.514,161.696,317.493z"/>
						</g>
						<g>
							<path style="fill:#4DC764;" d="M153.126,351.896c-5.04-6.543-12.293-11.35-20.283-13.441         c-7.99-2.092-16.667-1.456-24.267,1.777c1.977,6.299,7.883,10.096,14.187,12.058         C131.916,355.138,144.244,355.501,153.126,351.896z"/>
							<path style="fill:#4DC764;" d="M161.621,355.395c8.129,1.462,16.73,0.152,24.055-3.665         c7.324-3.817,13.326-10.116,16.784-17.617c-5.696-3.338-12.621-2.185-18.609,0.596         C175.157,338.747,165.781,346.759,161.621,355.395z"/>
						</g>
					</g>
					<g>
						<g>
							<path style="fill:#D7A0FF;" d="M411.229,335.111c0,0.719-0.023,1.415-0.093,2.111c-0.556,6.238-3.479,11.781-7.908,15.7         c-4.151,3.734-9.601,6.006-15.63,6.076h-0.255c-13.195,0-23.886-10.691-23.886-23.886c0-4.847,1.438-9.369,3.942-13.149         c4.267-6.47,11.619-10.737,19.944-10.737C400.538,311.226,411.229,321.916,411.229,335.111z"/>
							<path style="opacity:0.35;fill:#D7A0FF;" d="M411.136,337.222c-0.556,6.238-3.479,11.781-7.908,15.7         c-4.685,3.177-10.065,5.38-15.63,6.076h-0.255c-13.195,0-23.886-10.691-23.886-23.886c0-4.847,1.438-9.369,3.942-13.149         c2.551,2.69,5.473,4.963,8.65,6.888c3.595,2.18,7.467,3.85,11.479,5.102C395.135,336.317,403.136,337.129,411.136,337.222z"/>
							<path style="fill:#FFE4E0;" d="M402.125,339.793c0.199,0.996,0.633,2.077,1.574,2.46c0.703,0.286,1.518,0.096,2.188-0.262         c1.359-0.726,2.296-2.087,2.796-3.544c0.5-1.458,0.607-3.018,0.647-4.558c0.029-1.084,0.019-2.205-0.414-3.198         c-1.566-3.589-4.221-0.901-5.436,1.214C402.124,334.264,401.591,337.114,402.125,339.793z"/>
							<path style="fill:#923EFF;" d="M391.487,316.569c-0.322,0.723-0.121,1.597,0.334,2.244c0.456,0.647,1.131,1.103,1.817,1.497         c1.542,0.884,3.222,1.525,4.96,1.894c0.729,0.155,1.49,0.261,2.217,0.094c0.727-0.167,1.418-0.658,1.639-1.371         c0.217-0.698-0.048-1.456-0.412-2.089C400.672,316.462,393.259,312.59,391.487,316.569z"/>
						</g>
						<g>
							<path style="fill:#4DC764;" d="M382.916,350.973c-5.04-6.543-12.293-11.35-20.283-13.441         c-7.99-2.092-16.668-1.456-24.267,1.777c1.977,6.299,7.883,10.096,14.187,12.058         C361.706,354.215,374.034,354.577,382.916,350.973z"/>
							<path style="fill:#4DC764;" d="M391.412,354.471c8.128,1.462,16.73,0.151,24.054-3.665         c7.324-3.817,13.326-10.116,16.784-17.617c-5.696-3.338-12.621-2.185-18.609,0.596         C404.948,337.823,395.571,345.835,391.412,354.471z"/>
						</g>
					</g>
				</g>
				<g>
					<g>
						<path style="fill:#D7A0FF;" d="M349.847,201.599c0,0.853-0.028,1.679-0.11,2.504c-0.661,7.403-4.128,13.98-9.385,18.631        c-4.926,4.431-11.393,7.128-18.548,7.211h-0.303c-15.659,0-28.346-12.687-28.346-28.346c0-5.752,1.706-11.118,4.678-15.604        c5.064-7.678,13.787-12.742,23.667-12.742C337.16,173.254,349.847,185.94,349.847,201.599z"/>
						<path style="opacity:0.35;fill:#D7A0FF;" d="M349.737,204.104c-0.661,7.403-4.128,13.98-9.385,18.631        c-5.559,3.77-11.944,6.385-18.548,7.211h-0.303c-15.659,0-28.346-12.687-28.346-28.346c0-5.752,1.706-11.118,4.678-15.604        c3.027,3.192,6.495,5.889,10.265,8.173c4.266,2.587,8.861,4.568,13.622,6.054        C330.748,203.031,340.242,203.993,349.737,204.104z"/>
						<path style="fill:#FFE4E0;" d="M339.044,207.154c0.236,1.182,0.751,2.465,1.868,2.919c0.834,0.339,1.802,0.113,2.596-0.311        c1.613-0.861,2.724-2.477,3.317-4.206c0.593-1.73,0.72-3.581,0.769-5.409c0.034-1.286,0.023-2.616-0.492-3.795        c-1.858-4.259-5.01-1.07-6.451,1.441C339.042,200.593,338.409,203.975,339.044,207.154z"/>
						<path style="fill:#923EFF;" d="M326.419,179.595c-0.382,0.858-0.144,1.896,0.397,2.663c0.541,0.768,1.342,1.31,2.156,1.777        c1.829,1.049,3.823,1.81,5.886,2.247c0.866,0.184,1.769,0.31,2.631,0.111c0.862-0.198,1.683-0.781,1.945-1.626        c0.257-0.828-0.057-1.728-0.49-2.479C337.318,179.468,328.521,174.873,326.419,179.595z"/>
					</g>
					<g>
						<path style="fill:#4DC764;" d="M316.248,220.421c-5.981-7.765-14.588-13.468-24.069-15.951        c-9.482-2.482-19.779-1.728-28.798,2.109c2.347,7.475,9.355,11.981,16.836,14.309        C291.078,224.269,305.707,224.699,316.248,220.421z"/>
						<path style="fill:#4DC764;" d="M326.33,224.574c9.646,1.735,19.854,0.18,28.545-4.35c8.692-4.529,15.814-12.005,19.918-20.906        c-6.759-3.962-14.978-2.593-22.084,0.707C342.393,204.817,331.265,214.325,326.33,224.574z"/>
					</g>
				</g>
				<path style="opacity:0.23;fill:#FFA368;" d="M429.48,284.081c-5.091,1.211-10.705,0.138-14.338-3.605      c-8.559,8.063-20.97,11.806-32.556,9.852c-11.613-1.982-22.071-9.632-27.492-20.09c-7.431,11.614-26.777,12.632-35.391,1.844      c-6.66,11.338-18.108,20.062-31.097,22.181c-12.99,2.091-27.19-3-34.951-13.622c-16.017,16.705-45.903,17.035-62.278,0.715      c-12.824,14.916-37.014,18.411-53.526,7.706c0,0.303-9.082,8.036-9.99,8.586c-3.77,2.394-8.036,4.211-12.549,4.513      c-4.293,0.275-7.788-0.248-10.623-1.431c2.257-25.401,5.944-49.591,12.054-56.746c24.575-28.786,276.136-34.428,300.023,1.404      C423.618,255.708,427.471,269.578,429.48,284.081z"/>
				<g>
					<path style="fill:#FFEFD7;" d="M479.291,351.505l-89.22,25.979l-1.899,6.495l-0.138,0.468c-1.706,5.862-7.1,9.907-13.21,9.907       H170.131l-14.751-18.961l-53.389-23.887H479.291z"/>
					<polygon style="fill:#550E68;" points="390.071,377.484 388.172,383.979 319.454,377.484      "/>
				</g>
				<path style="fill:#FFE4E0;" d="M147.135,225.835c-12.403,2.049-24.4,7.463-33.371,16.27      c-8.97,8.807-14.698,21.124-14.538,33.694c0.052,4.09,0.929,8.569,4.121,11.127c1.491,1.195,3.347,1.842,5.205,2.288      c12.234,2.94,26.054-2.838,32.554-13.612c2.181,4.457,6.384,6.734,11.028,8.481c4.644,1.747,9.689,2.149,14.65,2.08      c4.181-0.058,8.449-0.463,12.267-2.169c7.3-3.263,11.739-10.627,15.718-17.564c5.194,10.478,17.767,16.187,29.449,15.656      c11.682-0.531,22.679-8.036,27.821-18.539c6.814,12.73,23.625,20.686,37.953,18.905c14.329-1.781,27.037-12.286,32.174-25.78      c2.296,5.782,8.696,9.268,14.916,9.312c6.22,0.044,12.164-2.862,16.968-6.814c0.763-0.628,1.549-1.306,2.515-1.511      c2.474-0.525,4.332,2.113,5.617,4.291c5.286,8.96,13.742,16.557,23.963,18.498c10.22,1.941,21.991-3.023,25.842-12.686      c1.227,7.322,13.365,9.318,19.739,5.512c6.374-3.806,8.715-12.342,7.117-19.592c-2.008-9.112-9.125-16.449-17.353-20.85      c-8.228-4.4-17.542-6.268-26.736-7.86c-69.929-12.106-141.616-11.307-212.188-3.81      C171.671,222.32,157.945,224.049,147.135,225.835z"/>
				<g>
					<path style="fill:#923EFF;" d="M139.138,254.566c-3.293,3.293-7.445,4.479-9.274,2.65c-1.829-1.829-0.643-5.982,2.65-9.274       c3.293-3.293,7.445-4.479,9.274-2.65C143.617,247.121,142.43,251.273,139.138,254.566z"/>
					<path style="fill:#923EFF;" d="M371.273,245.188c2.538,3.905,2.836,8.213,0.667,9.623c-2.169,1.41-5.985-0.613-8.522-4.517       c-2.538-3.905-2.836-8.213-0.667-9.622C364.92,239.261,368.736,241.283,371.273,245.188z"/>
					<path style="fill:#923EFF;" d="M259.992,234.541c-3.293,3.293-7.445,4.479-9.274,2.65c-1.829-1.829-0.643-5.982,2.65-9.275       c3.293-3.293,7.445-4.479,9.274-2.65C264.471,227.096,263.285,231.248,259.992,234.541z"/>
					<path style="fill:#D7A0FF;" d="M183.371,242.663c-4.033-2.328-6.253-6.032-4.96-8.272c1.293-2.241,5.612-2.169,9.644,0.159       c4.033,2.328,6.253,6.032,4.96,8.272C191.721,245.063,187.404,244.991,183.371,242.663z"/>
					<path style="fill:#D7A0FF;" d="M408.215,250.041c-4.033-2.328-6.253-6.032-4.96-8.272c1.293-2.24,5.611-2.169,9.644,0.159       c4.033,2.328,6.253,6.032,4.96,8.272C416.566,252.44,412.248,252.369,408.215,250.041z"/>
					<path style="fill:#D7A0FF;" d="M290.523,260.932c-4.033-2.328-6.253-6.032-4.96-8.272s5.612-2.169,9.644,0.159       c4.033,2.328,6.253,6.032,4.96,8.272C298.874,263.331,294.556,263.26,290.523,260.932z"/>
					<path style="fill:#FF9BBF;" d="M224.753,265.603c-4.137,2.138-8.453,2.009-9.641-0.289s1.202-5.895,5.339-8.033       c4.137-2.139,8.453-2.009,9.641,0.289C231.28,259.868,228.889,263.465,224.753,265.603z"/>
					<path style="fill:#FF9BBF;" d="M324.879,237.849c-4.137,2.139-8.453,2.009-9.641-0.289c-1.188-2.298,1.202-5.895,5.339-8.033       c4.137-2.138,8.453-2.009,9.641,0.289C331.406,232.114,329.015,235.71,324.879,237.849z"/>
				</g>
				<g>
					<path style="fill:#370644;" d="M235.722,129.321c-0.401,0-0.734-0.318-0.749-0.722l-0.51-13.843       c-0.015-0.414,0.308-0.762,0.722-0.777c0.42-0.021,0.761,0.308,0.777,0.722l0.51,13.843c0.015,0.414-0.308,0.762-0.722,0.777       C235.741,129.321,235.731,129.321,235.722,129.321z"/>
					<g>
						<path style="fill:#FFA5D7;" d="M242.236,202.71c-0.018,1.827-1.465,3.309-3.295,3.324c-0.135,0.02-0.234,0.01-0.365-0.004        c-1.645-0.166-2.966-1.563-2.961-3.258c-0.02-2.761-0.037-5.555-0.089-8.319c-0.002-1.296-0.037-2.597-0.042-3.86        c-0.075-3.199-0.121-6.361-0.2-9.527c-0.035-1.3-0.073-2.567-0.108-3.867c-0.115-3.136-0.23-6.273-0.349-9.376        c-0.035-1.3-0.106-2.57-0.144-3.837c-0.119-3.103-0.27-6.21-0.454-9.32c-0.038-1.267-0.106-2.57-0.21-3.844        c-0.154-3.074-0.309-6.148-0.529-9.228c-0.071-1.27-0.142-2.54-0.213-3.811c-0.22-3.08-0.441-6.161-0.664-9.208        c-0.117-1.807,1.241-3.398,3.051-3.548c1.843-0.146,3.398,1.241,3.547,3.051c0.149,1.81,0.263,3.65,0.379,5.457        c0.104,1.273,0.208,2.547,0.279,3.818l-0.003,0.033c0.191,3.044,0.382,6.088,0.573,9.133c0.071,1.27,0.138,2.574,0.206,3.877        c0.187,3.077,0.339,6.183,0.46,9.254c0.068,1.303,0.135,2.606,0.17,3.906c0.151,3.107,0.27,6.21,0.355,9.31        c0.068,1.303,0.102,2.604,0.137,3.903c0.082,3.133,0.164,6.266,0.246,9.399c0.035,1.3,0.033,2.63,0.065,3.962        C242.153,194.325,242.195,198.518,242.236,202.71z"/>
						<path style="fill:#FFD974;" d="M239.869,137.352l-0.003,0.033c-2.104,1.416-4.209,2.832-6.376,4.208        c-0.071-1.27-0.142-2.54-0.213-3.811c2.134-1.38,4.238-2.796,6.313-4.248C239.694,134.808,239.798,136.081,239.869,137.352z"/>
						<path style="fill:#FFD974;" d="M240.645,150.394c-2.111,1.482-4.248,2.894-6.415,4.271c-0.038-1.267-0.106-2.57-0.21-3.844        c2.167-1.377,4.307-2.822,6.419-4.304C240.509,147.787,240.577,149.091,240.645,150.394z"/>
						<path style="fill:#FFD974;" d="M240.645,150.394c-2.111,1.482-4.248,2.894-6.415,4.271c-0.038-1.267-0.106-2.57-0.21-3.844        c2.167-1.377,4.307-2.822,6.419-4.304C240.509,147.787,240.577,149.091,240.645,150.394z"/>
						<path style="fill:#FFD974;" d="M241.275,163.555c-2.144,1.478-4.281,2.891-6.448,4.268c-0.035-1.3-0.106-2.57-0.144-3.837        c2.17-1.409,4.311-2.855,6.422-4.337C241.173,160.952,241.24,162.255,241.275,163.555z"/>
						<path style="fill:#FFD974;" d="M241.275,163.555c-2.144,1.478-4.281,2.891-6.448,4.268c-0.035-1.3-0.106-2.57-0.144-3.837        c2.17-1.409,4.311-2.855,6.422-4.337C241.173,160.952,241.24,162.255,241.275,163.555z"/>
						<path style="fill:#FFD974;" d="M241.767,176.768c-2.144,1.478-4.285,2.924-6.484,4.297c-0.035-1.3-0.073-2.567-0.108-3.867        c2.167-1.376,4.311-2.855,6.455-4.333C241.698,174.168,241.733,175.468,241.767,176.768z"/>
						<path style="fill:#FFD974;" d="M241.767,176.768c-2.144,1.478-4.285,2.924-6.484,4.297c-0.035-1.3-0.073-2.567-0.108-3.867        c2.167-1.376,4.311-2.855,6.455-4.333C241.698,174.168,241.733,175.468,241.767,176.768z"/>
						<path style="fill:#FFD974;" d="M242.079,190.129c-2.147,1.512-4.35,2.917-6.553,4.324c-0.002-1.296-0.037-2.597-0.042-3.86        c2.207-1.439,4.384-2.914,6.531-4.426C242.049,187.467,242.047,188.796,242.079,190.129z"/>
					</g>
					<g>
						<path style="fill:#FFD974;" d="M235.378,121.221c-0.898,0.618-2.16,0.308-3.054-0.316c-2.493-1.742-2.976-5.246-2.661-8.271        c0.485-4.659,2.291-9.064,4.078-13.394c4.31,3.284,6.83,8.045,7.384,13.435c0.192,1.865,0.1,3.829-0.772,5.489        C239.482,119.824,237.243,121.418,235.378,121.221z"/>
						<path style="fill:#FFEFD7;" d="M235.831,121.249c-0.575,0.396-1.383,0.197-1.956-0.202c-1.597-1.116-1.907-3.36-1.705-5.298        c0.31-2.984,1.468-5.806,2.612-8.58c2.761,2.104,4.375,5.153,4.73,8.606c0.123,1.195,0.064,2.453-0.495,3.516        C238.46,120.354,237.025,121.375,235.831,121.249z"/>
					</g>
				</g>
			</g>
			<path style="fill:#FFA5D7;" d="M317.693,400.904c0.661,7.045-6.935,13.843-18.438,20.09h-0.028     c-29.061,15.851-83.138,28.428-92.55,33.794c-11.122,6.342-9.447,14.719-31.47,26.804     C103.886,455.54,48.708,395.98,28.693,321.97c43.17-15.983,85.714-27.252,115.982-31.642c22.456-3.275,38.143-2.752,42.326,2.394     c2.807,3.44,1.183,8.834-2.945,15.081c-13.87,20.888-56.086,51.435-56.086,51.435s64.645,5.614,102.127,1.871     c33.85-3.412,67.122-11.036,78.597-3.798c1.239,0.771,3.385,18.466-1.596,23.777c-4.1,4.403-8.614,7.183-8.614,7.183     s8.036,0.083,13.732,3.853c0.028,0,0.028,0,0.028,0C315.079,394.024,317.281,396.776,317.693,400.904z"/>
			<g>
				<path style="fill:#FFE4E0;" d="M184.056,307.803c-7.128,2.642-14.613,4.21-22.181,4.678c-5.009,0.33-10.485-0.028-14.256-3.303      c-4.788-4.128-5.642-12.632-2.944-18.851c22.456-3.275,38.143-2.752,42.326,2.394      C189.808,296.162,188.184,301.556,184.056,307.803z"/>
				<path style="fill:#FFE4E0;" d="M307.098,381.089c-5.449,2.725-11.778,3.66-17.778,2.532c-3.523-0.66-7.238-2.311-8.669-5.587      c-1.101-2.504-0.606-5.421,0.605-7.843c2.642-5.256,8.284-8.339,13.87-10.21c3.522-1.156,8.806-2.56,13.567-2.67      c1.239,0.771,2.202,1.706,2.917,2.862C316.482,368.1,312.079,375.778,307.098,381.089z"/>
				<path style="fill:#FFE4E0;" d="M299.255,420.993h-0.028c-4.1-0.743-7.981-3.605-8.971-7.623c-0.798-3.247,0.33-6.77,2.339-9.439      c2.036-2.669,4.844-4.623,7.706-6.357c3.165-1.899,7.623-4.541,11.916-5.449c0.028,0,0.028,0,0.028,0      c2.835,1.899,5.036,4.651,5.449,8.779C318.354,407.949,310.758,414.746,299.255,420.993z"/>
				<path style="fill:#550E68;" d="M204.606,363.036c-16.254,0-38.044-0.9-65.785-2.71c-31.913-2.081-85.114-0.367-85.649-0.35      c-0.421,0.01-0.76-0.312-0.774-0.725c-0.014-0.414,0.311-0.761,0.725-0.774c0.534-0.018,53.807-1.735,85.796,0.352      c44.167,2.882,73.198,3.457,88.753,1.76c0.411-0.048,0.782,0.252,0.827,0.664c0.045,0.412-0.252,0.782-0.664,0.827      C221.998,362.716,214.282,363.036,204.606,363.036z"/>
				<path style="fill:#550E68;" d="M165.839,415.036c-22.804,0-42.441-0.938-42.815-0.957c-0.414-0.02-0.733-0.372-0.712-0.786      c0.02-0.414,0.375-0.73,0.786-0.712c0.716,0.035,71.905,3.436,100.633-2.794c28.787-6.244,76.036-21.954,76.51-22.112      c0.393-0.13,0.818,0.082,0.949,0.474c0.131,0.393-0.082,0.818-0.474,0.949c-0.475,0.158-47.801,15.895-76.666,22.155      C210.229,414.249,186.708,415.036,165.839,415.036z"/>
				<path style="fill:#550E68;" d="M168.263,462.093c-0.353,0-0.667-0.25-0.736-0.61c-0.077-0.407,0.19-0.799,0.597-0.877      c5.395-1.026,10.967-1.822,16.356-2.592c7.21-1.03,14.666-2.095,21.793-3.726c0.409-0.094,0.806,0.161,0.898,0.563      c0.093,0.404-0.16,0.806-0.563,0.898c-7.188,1.645-14.675,2.714-21.916,3.749c-5.372,0.768-10.927,1.561-16.288,2.581      C168.357,462.089,168.31,462.093,168.263,462.093z"/>
			</g>
		</g>
	</g>
</g>















</svg>
