<?xml version="1.0" encoding="UTF-8"?>
<!-- Generator: Adobe Illustrator 24.1.1, SVG Export Plug-In . SVG Version: 6.00 Build 0)  -->
<svg xmlns="http://www.w3.org/2000/svg" xmlns:xlink="http://www.w3.org/1999/xlink" version="1.1" id="Capa_1" x="0px" y="0px" viewBox="0 0 512 512" style="enable-background:new 0 0 512 512;" xml:space="preserve" width="512" height="512">
<g>
	<path style="fill:#FFFFFF;" d="M215.201,490.819c-0.622,0-1.237-0.041-1.847-0.125c-12.931-0.206-27.01-0.305-42.973-0.305   c-11.457,0-22.237,0.05-31.88,0.095c-7.846,0.036-14.943,0.07-21.05,0.07c-17.715,0-22.452-0.298-25.398-0.884   c-16.603-3.344-27.813-18.766-32.289-26.081l-10.76-6.62l-1.755-1.097l-20.868-12.84c-5.293-3.258-7.779-9.634-6.087-15.615   c1.694-5.98,7.152-10.109,13.367-10.109c2.132,0,4.288,0,6.468,0.002c-0.086-0.581-0.133-1.169-0.145-1.761l-0.004-0.296   c-0.022-1.214-0.045-2.431-0.045-3.665c0-1.782,0.339-3.505,0.968-5.099c-0.538-6.428-0.848-12.727-0.92-18.814l-0.002-0.206   c-0.022-1.214-0.045-2.43-0.045-3.665c0-1.467,0.018-2.994,0.059-4.646C13.81,341.013,0,296.437,0,249.923   C0,159.155,54.348,76.739,136.638,40.488c0.143-1.976,0.696-3.93,1.671-5.738c2.496-4.64,7.319-7.522,12.583-7.522   c1.834,0,3.805,0.394,5.497,1.099l3.389,1.415l3.089-1.854c2.159-1.3,4.841-2.044,7.362-2.044c2.155,0,4.239,0.482,6.125,1.377   c17.105-4.011,34.68-6.039,52.39-6.039c85.457,0,162.515,46.584,202.307,121.927c30.876,14.005,57.034,27.067,57.308,27.205   c0.737,0.369,1.438,0.8,2.098,1.293c1.144,0.855,27.948,21.41,20.112,62.954c-7.029,37.39-26.316,54.088-28.493,55.87   c-2.517,2.06-5.635,3.141-8.8,3.141c-1.458,0-2.926-0.231-4.35-0.699l-14.622-4.825c-0.909,5.406-2.01,10.778-3.299,16.087   c2.48,3.966,2.815,8.96,0.796,13.263c-1.576,3.358-4.036,6.107-7.1,8.065c-9.516,27.153-24.358,52.684-43.308,74.496   c0.864,1.798,1.531,3.649,1.996,5.539c0.443,1.791,0.665,3.423,0.832,4.778c1.542,1.078,2.867,2.471,3.878,4.115   c1.142,1.861,1.814,3.937,2.001,6.057c2.148,1.757,3.778,4.162,4.574,6.977c1.689,5.983-0.803,12.361-6.1,15.615l-8.219,5.047   l-1.022,0.651l-24.143,14.859c-1.327,2.166-3.258,5.074-5.729,8.146c-1.21,1.495-2.358,2.817-3.531,4.072   c-7.143,7.586-14.875,12.237-23.013,13.856c-2.937,0.586-7.671,0.884-25.387,0.884c-6.105,0-13.202-0.034-21.046-0.07   c-9.645-0.045-20.426-0.095-31.887-0.095c-15.986,0-30.081,0.1-43.03,0.307c-0.599,0.082-1.207,0.122-1.818,0.122   c-0.145,0-2.254-0.045-2.254-0.045S215.35,490.819,215.201,490.819z"/>
	
		<ellipse transform="matrix(0.7071 -0.7071 0.7071 0.7071 -109.0523 234.9935)" style="fill:#923EFF;" cx="229.136" cy="249.135" rx="214.85" ry="214.85"/>
	<g>
		<path style="fill:#FFA5D7;" d="M387.667,373.617v2.778c0,10.233-0.208,21.833-0.509,33.132c-0.046,2.315-0.116,4.631-0.185,6.899    c-0.394,12.225-9.377,22.458-21.463,24.38c-53.784,8.474-200.087,27.783-289.711,3.033c-9.701-2.686-16.971-10.743-18.476-20.699    c-0.463-3.033-0.926-6.437-1.343-10.118c-0.88-7.664-1.598-16.624-1.713-26.302c-0.023-1.227-0.046-2.454-0.046-3.704    c0-4.445,0.139-9.03,0.417-13.683c2.57-41.467,17.851-88.884,71.056-103.84c100.877-28.386,215.367-21.486,242.549,20.49    c14.239,21.972,18.592,48.551,19.31,77.863C387.621,366.88,387.644,370.168,387.667,373.617z"/>
		<g>
			<g>
				<path style="fill:#FFE4E0;" d="M119.624,350.73c-2.602,3.249-6.209,4.683-8.057,3.203c-1.847-1.48-1.235-5.313,1.367-8.562      c2.602-3.249,6.209-4.683,8.057-3.203C122.838,343.648,122.226,347.481,119.624,350.73z"/>
				<path style="fill:#FFE4E0;" d="M338.048,350.73c-2.602,3.249-6.209,4.683-8.057,3.203c-1.847-1.48-1.235-5.313,1.367-8.562      c2.602-3.249,6.209-4.683,8.057-3.203C341.262,343.648,340.65,347.481,338.048,350.73z"/>
				<path style="fill:#FFE4E0;" d="M236.816,356.051c-2.602,3.249-6.209,4.683-8.057,3.203c-1.847-1.48-1.235-5.313,1.367-8.562      c2.602-3.249,6.209-4.683,8.057-3.203C240.03,348.968,239.418,352.802,236.816,356.051z"/>
				<path style="fill:#FFE4E0;" d="M243.91,429.647c-2.602,3.249-6.209,4.683-8.057,3.203c-1.847-1.48-1.235-5.313,1.367-8.562      c2.602-3.249,6.209-4.683,8.057-3.203C247.124,422.565,246.512,426.398,243.91,429.647z"/>
				<path style="fill:#FFE4E0;" d="M152.284,428.021c-2.602,3.249-6.209,4.683-8.057,3.203c-1.847-1.48-1.235-5.313,1.367-8.562      c2.602-3.249,6.209-4.683,8.057-3.203C155.498,420.939,154.886,424.772,152.284,428.021z"/>
				<path style="fill:#FFE4E0;" d="M174.382,385.226c3.605,2.081,5.568,5.43,4.384,7.48c-1.184,2.05-5.065,2.024-8.67-0.057      c-3.605-2.081-5.568-5.43-4.384-7.48S170.777,383.145,174.382,385.226z"/>
				<path style="fill:#FFE4E0;" d="M353.348,391.45c-2.439,3.373-5.972,4.983-7.89,3.596c-1.918-1.387-1.495-5.246,0.944-8.619      c2.439-3.373,5.972-4.983,7.89-3.595C356.21,384.218,355.788,388.077,353.348,391.45z"/>
				<path style="fill:#FFE4E0;" d="M82.953,389.821c2.3-3.469,5.764-5.221,7.737-3.913c1.973,1.308,1.707,5.181-0.593,8.65      c-2.3,3.469-5.764,5.221-7.737,3.914C80.387,397.163,80.653,393.29,82.953,389.821z"/>
				<path style="fill:#FFE4E0;" d="M273.688,395.98c-3.681-1.943-5.77-5.215-4.666-7.308c1.105-2.093,4.985-2.215,8.666-0.273      c3.681,1.943,5.77,5.214,4.666,7.308C281.249,397.8,277.369,397.922,273.688,395.98z"/>
				<path style="fill:#FFE4E0;" d="M324.279,430.118c-3.681-1.943-5.77-5.215-4.665-7.308c1.105-2.093,4.985-2.215,8.666-0.273      c3.681,1.943,5.77,5.214,4.665,7.308C331.84,431.938,327.961,432.061,324.279,430.118z"/>
			</g>
			<g>
				<g style="opacity:0.16;">
					<path style="fill:#FFA5D7;" d="M387.667,360.021v2.778c-19.24-10.326-42.995-6.39-57.928,10.118l-1.736,1.922       c-0.417,0.463-1.135,0.532-1.644,0.162l-2.084-1.528c-19.124-14.007-45.194-12.016-61.98,4.746l-1.829,1.829       c-0.44,0.44-1.158,0.486-1.644,0.093l-1.991-1.644c-18.406-14.957-44.546-14.285-62.165,1.598l-1.899,1.736       c-0.231,0.208-0.532,0.301-0.833,0.301c-0.278,0-0.579-0.093-0.81-0.301l-1.922-1.736       c-17.619-15.86-43.759-16.531-62.142-1.551l-2.014,1.621c-0.486,0.394-1.181,0.37-1.644-0.093l-1.829-1.806       c-16.786-16.763-42.856-18.731-61.98-4.723l-2.084,1.528c-0.51,0.37-1.204,0.301-1.644-0.185l-1.598-1.76       c-0.023-1.227-0.046-2.454-0.046-3.704l2.732,3.01l1.181-0.88c20.12-14.725,47.533-12.641,65.175,4.978l1.042,1.042       l1.157-0.926c19.333-15.744,46.815-15.049,65.337,1.644l1.088,0.972l1.088-0.972c18.522-16.716,46.005-17.411,65.361-1.69       l1.134,0.926l1.042-1.042c17.642-17.619,45.055-19.703,65.175-4.978l1.204,0.857l0.973-1.088       C343.307,354.233,367.64,349.95,387.667,360.021z"/>
				</g>
				<g style="opacity:0.16;">
					<path style="fill:#FFA5D7;" d="M387.667,401.401v2.778c-19.24-10.326-42.995-6.39-57.928,10.118l-1.736,1.922       c-0.417,0.463-1.135,0.533-1.644,0.162l-2.084-1.528c-19.124-14.007-45.194-12.016-61.98,4.746l-1.829,1.829       c-0.44,0.44-1.158,0.486-1.644,0.093l-1.991-1.644c-18.406-14.957-44.546-14.285-62.165,1.598l-1.899,1.736       c-0.231,0.209-0.532,0.301-0.833,0.301c-0.278,0-0.579-0.093-0.81-0.301l-1.922-1.736       c-17.619-15.86-43.759-16.531-62.142-1.551l-2.014,1.621c-0.486,0.394-1.181,0.37-1.644-0.093l-1.829-1.806       c-16.786-16.762-42.856-18.731-61.98-4.723l-2.084,1.528c-0.51,0.37-1.204,0.301-1.644-0.185l-1.598-1.76       c-0.023-1.227-0.046-2.454-0.046-3.704l2.732,3.01l1.181-0.88c20.12-14.725,47.533-12.641,65.175,4.978l1.042,1.042       l1.157-0.926c19.333-15.744,46.815-15.049,65.337,1.644l1.088,0.973l1.088-0.973c18.522-16.716,46.005-17.411,65.361-1.69       l1.134,0.926l1.042-1.042c17.642-17.619,45.055-19.703,65.175-4.978l1.204,0.857l0.973-1.088       C343.307,395.612,367.64,391.329,387.667,401.401z"/>
				</g>
			</g>
			<path style="opacity:0.16;fill:#FFA5D7;" d="M387.552,363.847c-2.871,0.208-5.788-0.023-8.59-0.695     c-9.585-2.292-18.291-10.002-22.435-18.939c-9.747,10.048-24.773,14.679-38.48,11.808c-13.706-2.871-25.862-14.031-30.747-27.135     c-7.941,9.701-18.87,17.272-31.164,19.657c-12.317,2.408-26.765-0.926-35.609-9.817c-4.306,12.225-13.081,23.014-24.658,28.825     c-11.577,5.788-25.954,6.228-37.438,0.231c-11.484-6.02-19.448-18.661-18.939-31.604c-9.006,3.519-20.374-1.181-24.264-10.025     c-4.098,5.024-9.145,9.492-15.235,11.762c-6.066,2.292-12.827,2.5-18.198-1.134c-2.315,7.872-5.927,15.373-10.696,22.088     c-1.806,2.524-3.774,4.978-6.275,6.853c-2.94,2.223-6.529,3.427-10.187,3.612c2.57-41.467,17.851-88.884,71.056-103.84     c100.877-28.386,215.367-21.486,242.549,20.49C382.481,307.956,386.834,334.535,387.552,363.847z"/>
			<path style="fill:#FFEFD7;" d="M134.884,247.119c-21.298-6.084-45.832-2.82-62.82,11.395s-24.398,39.984-14.698,59.898     c-5.905,3.918-11.692,10.822-14.434,17.356c-2.742,6.534-2.796,14.386,0.826,20.477c1.849,3.109,4.875,5.805,8.481,6.086     c4.831,0.377,8.867-3.51,11.832-7.342c6.223-8.045,10.947-17.245,13.861-26.99c1.393-0.891,2.736,0.347,4.164,1.18     c4.475,2.609,10.267,1.31,14.798-1.2c7.894-4.372,13.739-12.281,15.602-21.11c0.348,7.859,5.811,17.236,12.755,20.935     c6.943,3.699,15.832,3.441,22.549-0.655c-3.169,12.185,4.073,25.826,15.452,31.214c11.379,5.388,25.667,2.889,35.471-5.009     c9.804-7.898,15.212-20.526,15.649-33.108c8.57,9.585,22.043,15.482,34.871,16.356c18.313,1.248,36.15-7.834,49.319-20.62     c-0.855,6.256,0.255,9.799,1.534,14.569c2.925,10.902,14.033,18.658,25.319,18.815c11.286,0.157,22.103-6.619,27.996-16.247     c2.584,7.851,6.568,15.788,14.118,19.152c7.55,3.364,16.694,3.127,23.884-0.949c7.19-4.076,12.143-11.997,12.299-20.261     c0.124-6.546-2.551-12.798-5.44-18.674c4.673-7.308,3.508-18.12,0.124-26.107c-3.384-7.986-9.59-14.47-16.382-19.865     c-21.958-17.438-51.57-24.856-79.156-19.829c-5.456-9.798-14.251-17.869-24.447-22.539c-10.196-4.669-21.343-6.889-32.468-8.3     c-19.936-2.529-40.388-2.55-59.909,2.222C166.515,222.743,148.271,232.131,134.884,247.119z"/>
			<path style="opacity:0.4;fill:#FFA5D7;" d="M387.158,409.527c-0.046,2.315-0.116,4.631-0.185,6.899     c-0.394,12.225-9.377,22.458-21.463,24.38c-53.784,8.474-200.087,27.783-289.711,3.033c-9.701-2.686-16.971-10.743-18.476-20.699     c-0.463-3.033-0.926-6.437-1.343-10.118c0.116-0.069,0.255-0.139,0.37-0.208c4.607-2.385,10.419-2.246,14.911,0.347     c2.269,1.32,4.167,3.172,5.927,5.094c3.635,4.005,6.83,8.404,9.492,13.128c4.723-5.094,11.785-7.872,18.708-7.802     c6.923,0.069,13.776,3.195,18.36,8.381c3.797,4.306,5.997,9.724,8.59,14.841c5.533-5.881,13.799-9.145,21.856-8.358     c8.034,0.787,15.605,5.464,19.888,12.317c3.797-5.302,9.169-10.095,14.471-13.868c3.288-2.339,6.923-4.376,10.928-4.862     c3.265-0.417,6.575,0.255,9.747,1.181c2.987,0.857,5.973,1.968,8.451,3.843c4.098,3.079,6.436,7.918,8.636,12.549     c6.483-5.094,13.313-11.16,21.463-12.48c9.307-1.505,18.939,2.639,25.607,9.308c3.01-6.576,7.409-11.901,13.428-15.952     c5.997-4.028,13.521-6.02,20.652-4.793c8.196,1.412,15.095,6.761,21.602,11.901c4.028-6.668,11.623-11.136,19.333-9.956     c3.542,0.556,6.876,2.454,9.145,5.232c3.82-7.664,8.103-15.235,15.165-20.074C376.832,409.967,382.296,408.717,387.158,409.527z"/>
			<g>
				<g>
					<g>
						<path style="fill:#4DC764;" d="M185.423,271.761c8.984-1.665,17.374-6.385,23.461-13.199        c6.088-6.814,9.836-15.68,10.482-24.794c-7.2-1.228-13.916,2.673-19.026,7.893        C192.922,249.239,186.35,261.197,185.423,271.761z"/>
						<path style="fill:#4DC764;" d="M162.342,288.21c-8.694,4.018-18.729,5.062-28.063,2.921s-17.912-7.455-23.985-14.859        c5.415-5.412,13.524-6.143,21.056-4.773C142.285,273.488,155.149,279.736,162.342,288.21z"/>
						<g>
							<g>
								<path style="fill:#FF71B1;" d="M192.393,262.211c-0.212,1.202-0.495,2.356-0.872,3.51          c-1.979,6.361-6.361,11.945-11.804,15.833c-5.254,3.77-11.615,6.102-18.095,6.196c-6.456,0.118-13.029-2.073-17.882-6.338          c-1.602-1.414-2.992-3.063-4.147-4.854c-4.052-6.314-5.16-14.584-2.544-21.652c6.055-16.28,34.139-26.199,48.087-14.231          C191.144,245.837,193.712,254.389,192.393,262.211z"/>
								<path style="fill:#FFEFD7;" d="M177.369,247.028c0.387,2.93,1.36,5.781,2.843,8.337c1.102,1.899,2.976,3.837,5.129,3.406          c1.421-0.285,2.471-1.595,2.824-3.001c0.354-1.406,0.128-2.891-0.216-4.299c-0.794-3.248-2.349-6.626-4.96-8.815          C179.126,239.415,176.809,242.795,177.369,247.028z"/>
								<path style="opacity:0.33;fill:#FF71B1;" d="M191.521,265.722c-1.979,6.361-6.361,11.945-11.804,15.833          c-5.254,3.77-11.615,6.102-18.095,6.196c-6.456,0.118-13.029-2.073-17.882-6.338c-1.602-1.414-2.992-3.063-4.147-4.854          c4.806,2.945,11.074,3.84,16.846,3.558C169.304,279.505,181.885,274.298,191.521,265.722z"/>
							</g>
							<path style="fill:#550E68;" d="M156.572,245.572c-5.592-15.695-7.154-32.863-4.441-49.42         c0.089-0.545,0.603-0.915,1.148-0.826c0.545,0.089,0.915,0.603,0.825,1.148c-0.001,0.007-0.003,0.02-0.005,0.027         c-3.099,16.14-2.048,33.126,3.081,48.862c0.055,0.169-0.037,0.351-0.206,0.406         C156.809,245.824,156.631,245.735,156.572,245.572z"/>
						</g>
					</g>
					<path style="fill:#FFEFD7;" d="M126.735,302.237c2.598-6.914,7.483-12.947,13.706-16.926       c6.223-3.979,13.749-5.881,21.115-5.337c0.684-6.879,6.576-13.067,13.195-15.06c6.619-1.992,14.112-0.165,19.486,4.184       c3.522-4.104,9.641-6.676,15.05-6.706c5.408-0.029,10.783,2.388,14.35,6.454c-3.765,4.847-7.274,8.745-12.272,12.306       c-15.718,11.201-33.08,20.091-51.355,26.298c-5.537,1.88-11.252,3.531-17.099,3.54       C137.063,311,130.812,306.429,126.735,302.237z"/>
				</g>
				<g>
					<g>
						<path style="fill:#4DC764;" d="M288.963,303.609c8.181,3.699,17.598,4.6,26.333,2.521c8.735-2.08,16.735-7.128,22.371-14.117        c-5.119-5.032-12.726-5.654-19.777-4.312C307.653,289.65,295.64,295.608,288.963,303.609z"/>
						<path style="fill:#4DC764;" d="M276.931,296.844c-9.228-2.561-17.556-8.257-23.288-15.929        c-5.733-7.672-8.835-17.273-8.675-26.848c7.63-0.623,14.286,4.066,19.143,9.983        C271.163,272.641,276.93,285.728,276.931,296.844z"/>
						<g>
							<g>
								<path style="fill:#FF71B1;" d="M265.695,277.617c0.338,1.15,0.74,2.247,1.234,3.334c2.625,5.997,7.513,10.974,13.252,14.178          c5.542,3.11,12.009,4.695,18.347,4.082c6.318-0.588,12.499-3.443,16.775-8.137c1.411-1.555,2.589-3.317,3.521-5.192          c3.27-6.608,3.452-14.805,0.128-21.423c-7.686-15.241-36.194-21.871-48.513-8.663          C265.132,261.489,263.555,270.121,265.695,277.617z"/>
								<path style="fill:#FFEFD7;" d="M278.715,261.153c-0.059,2.903-0.699,5.794-1.869,8.451c-0.87,1.975-2.489,4.071-4.638,3.884          c-1.419-0.123-2.587-1.289-3.085-2.623c-0.498-1.335-0.439-2.81-0.257-4.223c0.422-3.259,1.573-6.727,3.885-9.149          C276.171,253.909,278.801,256.957,278.715,261.153z"/>
								<path style="opacity:0.33;fill:#FF71B1;" d="M266.929,280.95c2.625,5.997,7.513,10.974,13.252,14.178          c5.542,3.11,12.009,4.695,18.347,4.082c6.318-0.588,12.499-3.443,16.775-8.137c1.411-1.555,2.589-3.317,3.521-5.192          c-4.373,3.4-10.397,4.956-16.065,5.309C290.128,291.992,277.274,288.277,266.929,280.95z"/>
							</g>
							<path style="fill:#550E68;" d="M298.245,257.328c3.292-15.927,2.466-32.629-2.322-48.051         c-0.164-0.528,0.131-1.088,0.659-1.252s1.088,0.131,1.252,0.659c0.002,0.007,0.006,0.02,0.008,0.027         c4.45,15.879,4.788,32.818,1.032,48.756c-0.041,0.173-0.214,0.28-0.387,0.239         C298.316,257.667,298.21,257.498,298.245,257.328z"/>
						</g>
					</g>
					<path style="fill:#FFEFD7;" d="M326.818,320.209c1.039-4.575-0.584-9.657-4.084-12.782c-3.499-3.125-8.732-4.166-13.16-2.618       c-1.219-9.633-7.959-18.371-16.967-21.997c-9.008-3.626-19.922-1.994-27.475,4.108c-2.339-5.699-7.759-10.02-13.836-11.03       c-6.076-1.01-12.603,1.324-16.661,5.959c10.598,10.13,21.549,20.654,35.147,26.134       C287.773,315.235,309.174,312.151,326.818,320.209z"/>
				</g>
			</g>
		</g>
		<g>
			<g>
				<path style="fill:#D7A0FF;" d="M401.698,430.411l-8.219,5.047l-1.204,0.764l-26.857,16.531l-0.116,0.07      c0,0-2.269,4.445-6.274,9.423c-0.88,1.088-1.829,2.199-2.848,3.288c-4.121,4.376-9.423,8.497-15.582,9.724      c-7.085,1.412-62.443-0.185-120.441,0.787v0.093c-0.764-0.023-1.528-0.023-2.269-0.046c-0.764,0.023-1.528,0.023-2.292,0.046      v-0.093c-57.975-0.972-113.333,0.625-120.441-0.787c-14.702-2.964-24.704-22.435-24.704-22.435l-13.776-8.474l-1.667-1.042      l-20.953-12.896c52.881,0,119.306,0.44,183.833,0.857C282.415,430.851,348.817,430.411,401.698,430.411z"/>
				<path style="fill:#550E68;" d="M365.418,452.749l-0.116,0.069c0,0-2.269,4.445-6.274,9.423l-80.827-6.807      C294.639,455.435,342.983,453.629,365.418,452.749z"/>
			</g>
			<path style="fill:#FFEFD7;" d="M393.479,435.459l-1.204,0.764c-1.482-0.625-3.195-0.996-5.418-0.996     c-5.325,0-7.941,2.2-10.72,4.492c-2.802,2.362-5.696,4.769-11.461,4.769c-5.742,0-8.636-2.408-11.437-4.769     c-2.778-2.292-5.395-4.492-10.72-4.492c-5.325,0-7.941,2.2-10.72,4.492c-2.801,2.362-5.695,4.769-11.461,4.769     c-5.742,0-8.636-2.408-11.437-4.769c-2.778-2.292-5.395-4.492-10.72-4.492c-5.325,0-7.941,2.2-10.697,4.492     c-2.802,2.362-5.696,4.769-11.461,4.769c-5.742,0-8.636-2.408-11.437-4.769c-2.778-2.292-5.395-4.492-10.72-4.492     c-5.325,0-7.941,2.2-10.697,4.492c-2.802,2.362-5.719,4.769-11.461,4.769c-5.742,0-8.636-2.408-11.461-4.769     c-2.755-2.292-5.372-4.492-10.697-4.492s-7.941,2.2-10.72,4.492c-2.801,2.362-5.695,4.769-11.437,4.769     c-5.765,0-8.659-2.408-11.461-4.769c-2.755-2.292-5.371-4.492-10.696-4.492c-5.348,0-7.941,2.2-10.72,4.492     c-2.802,2.362-5.696,4.769-11.438,4.769c-5.765,0-8.659-2.408-11.46-4.769c-2.755-2.292-5.372-4.492-10.697-4.492     c-5.348,0-7.965,2.2-10.72,4.492c-2.802,2.362-5.696,4.769-11.461,4.769c-5.742,0-8.636-2.408-11.437-4.769     c-2.778-2.292-5.371-4.492-10.72-4.492c-5.325,0-7.941,2.2-10.697,4.492c-2.408,2.037-4.908,4.098-9.215,4.631l-1.667-1.042     c4.955-0.139,7.478-2.246,10.141-4.469c2.802-2.338,5.696-4.769,11.437-4.769c5.765,0,8.659,2.431,11.461,4.769     c2.755,2.315,5.371,4.492,10.696,4.492c5.348,0,7.941-2.176,10.72-4.492c2.802-2.338,5.696-4.769,11.461-4.769     c5.742,0,8.636,2.431,11.437,4.769c2.778,2.315,5.371,4.492,10.72,4.492c5.325,0,7.942-2.176,10.697-4.492     c2.801-2.338,5.695-4.769,11.461-4.769c5.742,0,8.636,2.431,11.437,4.769c2.778,2.315,5.371,4.492,10.72,4.492     c5.325,0,7.941-2.176,10.697-4.492c2.802-2.338,5.719-4.769,11.461-4.769c5.742,0,8.636,2.431,11.437,4.769     c2.778,2.315,5.395,4.492,10.72,4.492c5.325,0,7.941-2.176,10.72-4.492c2.802-2.338,5.696-4.769,11.438-4.769     c5.765,0,8.659,2.431,11.461,4.769c2.755,2.315,5.372,4.492,10.697,4.492c5.325,0,7.941-2.176,10.72-4.492     c2.801-2.338,5.695-4.769,11.437-4.769c5.765,0,8.659,2.431,11.461,4.769c2.755,2.315,5.371,4.492,10.697,4.492     c5.348,0,7.965-2.176,10.72-4.492c2.802-2.338,5.696-4.769,11.461-4.769c5.742,0,8.659,2.431,11.461,4.769     c2.755,2.315,5.371,4.492,10.696,4.492c5.348,0,7.965-2.176,10.72-4.492c2.802-2.338,5.719-4.769,11.461-4.769     C389.612,434.069,391.719,434.625,393.479,435.459z"/>
		</g>
	</g>
	<path style="fill:#550E68;" d="M241.155,357.606c8.913,6.523,13.502,17.702,14.827,28.668c-5.028,2.191-10.026,3.713-15.054,5.904   c-1.309-8.895-5.491-17.345-11.771-23.78C234.526,365.511,236.984,362.051,241.155,357.606z"/>
	<g>
		<g>
			<path style="fill:#FDEFF5;" d="M43.558,160.482c0.454-0.895,0.906-1.576,1.359-2.037c0.45-0.461,0.95-0.698,1.501-0.711     c0.553-0.011,1.012,0.046,1.383,0.18c0.369,0.132,0.885,0.364,1.55,0.702l24.084,12.173c0.665,0.336,1.15,0.617,1.453,0.841     c0.303,0.228,0.61,0.553,0.92,0.983c0.312,0.43,0.413,0.964,0.309,1.6c-0.103,0.639-0.391,1.42-0.858,2.344     c-0.38,0.753-0.766,1.339-1.161,1.756c-0.393,0.419-0.757,0.707-1.091,0.865c-0.334,0.158-0.729,0.204-1.185,0.136     c-0.457-0.066-0.825-0.162-1.106-0.285c-0.283-0.125-0.7-0.325-1.249-0.604l-14.536-7.348c0.531,1.176,1.422,2.954,2.673,5.327     c1.251,2.377,2.127,4.109,2.629,5.2c0.101,0.158,0.209,0.36,0.325,0.597c0.114,0.241,0.195,0.729,0.244,1.46     c0.048,0.733-0.099,1.431-0.435,2.098c-0.32,0.637-0.768,1.144-1.343,1.525c-0.575,0.384-1.065,0.617-1.471,0.7l-0.652,0.105     c-1.016,0.217-3.134,0.577-6.354,1.095c-3.222,0.514-4.956,0.799-5.202,0.856l14.624,7.392c0.665,0.336,1.152,0.61,1.464,0.823     c0.312,0.209,0.617,0.538,0.92,0.981c0.301,0.443,0.402,0.983,0.299,1.62c-0.105,0.639-0.391,1.418-0.86,2.344     c-0.452,0.898-0.902,1.572-1.345,2.017c-0.443,0.448-0.933,0.683-1.471,0.7c-0.536,0.022-0.99-0.035-1.356-0.167     c-0.369-0.132-0.902-0.375-1.596-0.726l-24.084-12.17c-0.665-0.338-1.154-0.61-1.464-0.823c-0.312-0.211-0.619-0.538-0.92-0.981     c-0.303-0.446-0.402-0.983-0.299-1.622c0.103-0.637,0.391-1.42,0.858-2.346c0.395-0.779,0.83-1.407,1.302-1.874     c0.474-0.47,0.856-0.74,1.146-0.81l0.391-0.13l17.912-3.314c-4.025-8.207-6.661-13.663-7.91-16.363     C42.421,163.704,42.623,162.332,43.558,160.482z"/>
			<path style="fill:#FDEFF5;" d="M65.557,134.24l29.409,6.596c1.205,0.255,2.024,0.553,2.456,0.895     c0.913,0.724,1.154,2.118,0.72,4.175c-0.252,1.205-0.612,2.1-1.075,2.684c-0.323,0.406-0.724,0.676-1.205,0.814     c-0.481,0.134-0.904,0.171-1.269,0.108c-0.364-0.061-0.9-0.165-1.611-0.316l-5.682-1.286l-8.378,10.546l2.539,5.246     c0.307,0.658,0.516,1.146,0.637,1.466c0.116,0.32,0.169,0.735,0.16,1.247c-0.013,0.509-0.18,0.964-0.503,1.372     c-0.463,0.586-1.253,1.135-2.37,1.653c-1.879,0.911-3.277,0.999-4.19,0.274c-0.432-0.342-0.906-1.071-1.427-2.188l-13.119-27.183     c-0.362-0.746-0.492-1.541-0.395-2.395c0.099-0.856,0.399-1.598,0.904-2.232C62.247,134.343,63.713,133.852,65.557,134.24z      M72.245,144.582l3.22,6.655l4.021-5.061L72.245,144.582z"/>
			<path style="fill:#FDEFF5;" d="M100.914,119.706c6.87,0.285,11.876,0.639,15.022,1.062c1.596,0.189,2.629,0.551,3.101,1.082     c0.623,0.707,0.823,1.96,0.597,3.76c-0.237,1.591-0.669,2.669-1.302,3.226c-0.608,0.538-1.798,0.683-3.575,0.435l-16.095-2.057     l6.279,7.103c0.514,0.582,0.874,1.025,1.073,1.323c0.2,0.299,0.362,0.718,0.492,1.253c0.127,0.536,0.024,1.08-0.307,1.635     c-0.334,0.553-0.887,1.174-1.664,1.861c-0.634,0.557-1.209,0.959-1.73,1.201c-0.52,0.244-0.964,0.378-1.332,0.402     c-0.369,0.024-0.753-0.081-1.152-0.312c-0.399-0.23-0.707-0.459-0.922-0.676c-0.217-0.219-0.529-0.562-0.937-1.025l-17.908-20.25     c-0.494-0.557-0.847-0.992-1.058-1.306c-0.209-0.309-0.38-0.733-0.507-1.271c-0.127-0.536-0.026-1.08,0.307-1.633     c0.334-0.555,0.887-1.176,1.666-1.861c0.63-0.56,1.207-0.959,1.727-1.203c0.518-0.244,0.964-0.375,1.332-0.402     c0.369-0.022,0.753,0.081,1.152,0.314c0.399,0.233,0.705,0.457,0.922,0.676c0.217,0.219,0.529,0.562,0.937,1.023l6.152,6.955     c0.015-6.635-0.007-12.043-0.07-16.227c-0.033-1.749,0.268-2.899,0.9-3.459c0.632-0.557,1.751-0.858,3.36-0.898     c1.815,0,3.033,0.349,3.657,1.051c0.472,0.536,0.705,1.607,0.7,3.213c0.026,1.4-0.031,3.356-0.173,5.862     c-0.14,2.507-0.279,4.664-0.413,6.466L100.914,119.706z"/>
			<path style="fill:#FDEFF5;" d="M126.378,111.811l12.638-8.035c0.628-0.399,1.113-0.678,1.455-0.841     c0.34-0.158,0.786-0.257,1.334-0.301c0.549-0.042,1.071,0.145,1.567,0.56c0.494,0.417,1.018,1.06,1.576,1.938     c0.452,0.711,0.757,1.341,0.917,1.894c0.158,0.553,0.219,1.012,0.184,1.378c-0.035,0.369-0.198,0.733-0.487,1.091     c-0.292,0.358-0.562,0.626-0.814,0.806c-0.25,0.18-0.637,0.432-1.157,0.762l-16.246,10.333c-0.711,0.454-1.343,0.757-1.894,0.915     c-0.553,0.16-1.012,0.224-1.378,0.189c-0.369-0.035-0.733-0.2-1.091-0.492c-0.358-0.29-0.626-0.56-0.806-0.812     c-0.18-0.25-0.432-0.637-0.764-1.154l-14.506-22.813c-0.887-1.392-1.231-2.509-1.036-3.345c0.198-0.838,1.023-1.716,2.471-2.64     l16.165-10.278c0.63-0.399,1.115-0.68,1.455-0.838c0.34-0.158,0.786-0.259,1.337-0.301c0.549-0.044,1.071,0.145,1.565,0.56     c0.496,0.415,1.021,1.06,1.576,1.936c0.454,0.713,0.757,1.343,0.917,1.892c0.158,0.553,0.222,1.014,0.184,1.381     c-0.033,0.369-0.195,0.733-0.487,1.089c-0.29,0.36-0.562,0.63-0.812,0.806c-0.252,0.178-0.639,0.435-1.157,0.766l-12.596,8.009     l2.636,4.144l8.123-5.167c0.628-0.402,1.113-0.68,1.455-0.836c0.34-0.158,0.784-0.261,1.334-0.303s1.071,0.143,1.567,0.56     c0.494,0.415,1.018,1.062,1.576,1.936c0.452,0.711,0.757,1.343,0.917,1.894c0.158,0.553,0.219,1.012,0.187,1.381     c-0.037,0.367-0.206,0.733-0.511,1.102c-0.303,0.369-0.582,0.641-0.832,0.816c-0.252,0.18-0.639,0.435-1.157,0.764l-8.042,5.114     L126.378,111.811z"/>
			<path style="fill:#FDEFF5;" d="M168.032,64.569l21.24,21.387c0.88,0.863,1.409,1.556,1.589,2.076     c0.38,1.102-0.169,2.403-1.64,3.905c-0.863,0.878-1.646,1.442-2.351,1.681c-0.492,0.171-0.977,0.182-1.453,0.037     c-0.478-0.145-0.854-0.338-1.128-0.588c-0.274-0.248-0.672-0.626-1.187-1.135l-4.098-4.142l-12.737,4.381l-0.683,5.786     c-0.097,0.722-0.18,1.247-0.255,1.582c-0.072,0.331-0.252,0.711-0.533,1.133c-0.285,0.424-0.672,0.72-1.161,0.889     c-0.705,0.241-1.668,0.283-2.891,0.121c-2.072-0.248-3.299-0.924-3.679-2.026c-0.178-0.52-0.187-1.392-0.024-2.614l3.571-29.973     c0.097-0.819,0.415-1.563,0.955-2.23c0.542-0.665,1.196-1.13,1.962-1.394C165.188,62.875,166.687,63.25,168.032,64.569z      M168.104,76.887l-0.867,7.342l6.115-2.105L168.104,76.887z"/>
			<path style="fill:#FDEFF5;" d="M245.284,50.854c2.206,0.672,3.341,1.653,3.402,2.948c0.022,0.424-0.134,1.225-0.467,2.41     l-8.016,27.405c-0.055,0.228-0.156,0.509-0.303,0.841c-0.145,0.334-0.555,0.784-1.223,1.35c-0.672,0.568-1.477,0.876-2.414,0.92     c-0.972,0.046-1.82-0.178-2.539-0.68c-0.724-0.5-1.209-1.003-1.462-1.51l-0.331-0.812l-6.163-15.669l-4.618,16.191     c-0.029,0.099-0.061,0.222-0.103,0.371c-0.042,0.147-0.169,0.404-0.378,0.773c-0.209,0.364-0.452,0.702-0.731,1.007     c-0.277,0.305-0.661,0.586-1.15,0.836c-0.492,0.25-1.045,0.391-1.659,0.419c-0.906,0.044-1.705-0.16-2.39-0.615     c-0.687-0.452-1.157-0.917-1.407-1.392l-0.373-0.711l-10.68-26.498c-0.408-1.054-0.623-1.837-0.65-2.355     c-0.061-1.295,0.975-2.366,3.106-3.218c0.922-0.369,1.71-0.568,2.357-0.599c0.874-0.044,1.525,0.184,1.956,0.683     c0.428,0.498,0.832,1.275,1.207,2.327l6.128,15.961l4.519-16.233c0.026-0.097,0.064-0.213,0.105-0.347     c0.044-0.129,0.169-0.386,0.378-0.773c0.206-0.382,0.441-0.718,0.705-1.007c0.261-0.288,0.647-0.557,1.154-0.808     c0.505-0.255,1.051-0.395,1.633-0.424c1.069-0.05,1.971,0.173,2.711,0.674c0.737,0.498,1.216,1.005,1.435,1.512l0.329,0.762     l6.073,15.82l4.55-16.575c0.226-0.757,0.408-1.317,0.553-1.683c0.145-0.362,0.426-0.726,0.847-1.086     c0.421-0.362,0.937-0.557,1.554-0.588C243.609,50.445,244.393,50.573,245.284,50.854z"/>
			<path style="fill:#FDEFF5;" d="M254.948,56.459c0.079-0.742,0.165-1.295,0.252-1.661c0.09-0.364,0.288-0.775,0.597-1.229     c0.309-0.457,0.781-0.748,1.413-0.878c0.634-0.127,1.466-0.136,2.498-0.024c0.838,0.092,1.521,0.246,2.052,0.465     c0.529,0.219,0.928,0.459,1.194,0.716c0.266,0.257,0.448,0.61,0.547,1.06c0.099,0.454,0.138,0.832,0.123,1.139     c-0.018,0.309-0.059,0.77-0.125,1.381l-2.891,26.878c-0.083,0.775-0.167,1.337-0.255,1.686c-0.086,0.349-0.285,0.748-0.595,1.205     s-0.781,0.748-1.413,0.876c-0.634,0.127-1.466,0.136-2.498,0.026c-0.838-0.092-1.521-0.246-2.052-0.467     c-0.531-0.219-0.928-0.457-1.196-0.716c-0.266-0.255-0.446-0.61-0.544-1.06c-0.097-0.452-0.138-0.83-0.123-1.137     c0.018-0.307,0.059-0.77,0.125-1.381L254.948,56.459z"/>
			<path style="fill:#FDEFF5;" d="M264.801,83.849c-0.608-1.19-0.841-2.118-0.698-2.785c0.204-0.95,1.13-1.945,2.779-2.985     c0.955-0.59,1.828-0.801,2.621-0.63c0.981,0.211,2.035,1.181,3.156,2.91l0.187,0.292c0.092,0.184,0.239,0.432,0.439,0.737     c0.198,0.309,0.615,0.755,1.253,1.339c0.637,0.584,1.304,0.95,2.002,1.1c2.948,0.632,4.679-0.257,5.195-2.665     c0.156-0.731-0.116-1.427-0.821-2.094c-0.702-0.661-1.631-1.234-2.79-1.714c-1.157-0.478-2.379-1.113-3.668-1.903     c-1.291-0.79-2.467-1.648-3.527-2.572c-1.062-0.924-1.844-2.193-2.342-3.806c-0.5-1.618-0.533-3.437-0.099-5.467     c0.597-2.787,2.155-4.998,4.677-6.631c2.52-1.631,5.57-2.065,9.152-1.297c1.903,0.406,3.584,1.025,5.048,1.852     s2.443,1.558,2.937,2.195l0.799,0.915l0.195,0.241c0.786,1.13,1.115,1.997,0.985,2.599c-0.14,0.665-0.713,1.473-1.712,2.419     c-1.416,1.354-2.693,1.91-3.837,1.664c-0.665-0.14-1.422-0.637-2.267-1.482c-0.081-0.081-0.23-0.279-0.446-0.59     c-0.215-0.312-0.419-0.564-0.61-0.751c-0.191-0.191-0.531-0.413-1.025-0.669c-0.492-0.255-1.089-0.457-1.784-0.606     c-0.762-0.165-1.534-0.07-2.32,0.274c-0.788,0.345-1.266,0.913-1.435,1.705c-0.204,0.953,0.042,1.782,0.733,2.496     c0.694,0.711,1.622,1.291,2.785,1.738c1.163,0.45,2.417,1.025,3.758,1.725c1.341,0.705,2.553,1.466,3.637,2.296     c1.082,0.827,1.874,2.035,2.381,3.617c0.507,1.585,0.536,3.422,0.088,5.516c-0.435,2.026-1.233,3.736-2.392,5.132     c-1.159,1.389-2.489,2.373-3.988,2.948s-2.989,0.917-4.471,1.032c-1.484,0.112-2.924,0.018-4.317-0.279     c-1.49-0.32-2.86-0.806-4.115-1.453c-1.253-0.647-2.243-1.326-2.97-2.028c-0.729-0.702-1.343-1.389-1.846-2.061     s-0.841-1.223-1.014-1.659L264.801,83.849z"/>
			<path style="fill:#FDEFF5;" d="M326.64,70.362c0.786,0.305,1.407,0.632,1.861,0.981c0.457,0.351,0.779,0.685,0.97,1.001     c0.189,0.316,0.272,0.705,0.252,1.165c-0.024,0.463-0.081,0.838-0.178,1.133c-0.097,0.292-0.255,0.724-0.476,1.302l-9.734,25.166     c-0.27,0.696-0.494,1.207-0.674,1.536c-0.18,0.334-0.478,0.676-0.896,1.036c-0.417,0.362-0.95,0.52-1.591,0.478     c-0.645-0.04-1.453-0.248-2.419-0.621c-0.786-0.303-1.407-0.63-1.863-0.981c-0.454-0.349-0.777-0.683-0.968-1.001     c-0.191-0.316-0.274-0.705-0.252-1.165c0.022-0.461,0.081-0.836,0.178-1.13c0.094-0.292,0.255-0.729,0.476-1.302l3.558-9.205     l-12.015-4.649l-3.578,9.251c-0.27,0.696-0.494,1.209-0.674,1.536c-0.18,0.331-0.478,0.678-0.895,1.038s-0.948,0.518-1.593,0.478     c-0.643-0.042-1.451-0.25-2.419-0.623c-0.784-0.303-1.407-0.63-1.861-0.979c-0.454-0.351-0.777-0.685-0.968-1.001     c-0.191-0.316-0.274-0.707-0.252-1.165c0.022-0.461,0.079-0.838,0.176-1.135c0.094-0.292,0.257-0.722,0.476-1.299l9.734-25.168     c0.27-0.694,0.494-1.207,0.676-1.536c0.178-0.331,0.476-0.674,0.893-1.036s0.948-0.52,1.591-0.478     c0.647,0.04,1.451,0.248,2.421,0.621c0.786,0.305,1.405,0.632,1.861,0.981c0.457,0.353,0.779,0.683,0.968,0.999     c0.191,0.32,0.274,0.707,0.255,1.17c-0.022,0.461-0.083,0.836-0.178,1.13c-0.097,0.292-0.255,0.726-0.478,1.299l-3.578,9.251     l12.019,4.649l3.595-9.297c0.268-0.696,0.492-1.207,0.672-1.536c0.18-0.331,0.478-0.678,0.895-1.036     c0.417-0.36,0.948-0.518,1.593-0.478C324.865,69.78,325.673,69.988,326.64,70.362z"/>
		</g>
	</g>
	<g>
		<g>
			<path style="fill:#FF9BBF;" d="M497.309,231.196c-4.283,22.785-13.674,36.638-19.244,43.17c-2.42,2.838-6.345,3.881-9.887,2.713     l-31.552-10.412c0,0-10.257-1.181-61.077-8.659c-44.176-6.506-60.081-25.816-63.508-30.747c-0.509-0.764-0.741-1.181-0.741-1.181     h-0.139l-36.697-2.709l-0.602-0.046c0,0-0.232,0.116-0.672,0.37c-3.612,1.829-20.953,10.303-30.446,7.502     c-8.636-2.547-7.687-9.493-7.015-12.04c0.162-0.602,0.301-0.949,0.301-0.949s-0.301,0.232-0.833,0.602     c-2.871,1.945-12.711,7.594-22.018,0.973c-9.863-7.062,5.765-21.972,9.191-25.051c0.417-0.371,0.648-0.579,0.648-0.579     s-0.209,0-0.556-0.023c-2.639-0.093-13.869-0.949-15.698-7.455c-3.288-11.785,8.544-19.657,44.94-40.795     c36.651-21.278,73.001-25.422,73.001-25.422c21.879-6.506,157.833,61.494,157.833,61.494S503.629,197.694,497.309,231.196z"/>
			<path style="fill:#FFE4E0;" d="M225.161,192.662c-1.821,2.742-1.66,6.99,1.068,8.83c1.116,0.753,2.485,1.019,3.823,1.171     c6.135,0.7,12.325-0.634,18.23-2.44c0.982-0.3,1.972-0.619,2.841-1.166c1.789-1.126,2.895-3.142,3.257-5.225     c0.361-2.083,0.046-4.231-0.523-6.267c-0.441-1.58-1.087-3.192-2.359-4.226c-2.099-1.707-5.17-1.323-7.778-0.602     c-3.687,1.019-7.032,2.564-10.306,4.489C230.46,188.961,227.202,189.59,225.161,192.662z"/>
			<path style="fill:#550E68;" d="M386.763,236.629c-31.662,0-55.744-25.43-58.161-28.077c-3.128,0.247-31.374,2.453-62.391,4.117     c-20.977,1.11-35.19-1.856-41.095-8.612c-2.485-2.844-3.379-6.211-2.657-10.007c2.699-14.192,119.598-42.222,124.572-43.409     c0.309-0.082,0.623,0.118,0.698,0.43c0.075,0.31-0.118,0.622-0.429,0.696c-41.891,9.989-121.655,31.727-123.704,42.5     c-0.652,3.428,0.153,6.467,2.391,9.028c5.582,6.387,19.838,9.306,40.162,8.217c32.716-1.752,62.349-4.113,62.644-4.135     c0.18-0.034,0.362,0.057,0.483,0.197c0.344,0.391,34.83,39.143,76.517,24.659c0.305-0.095,0.631,0.054,0.737,0.357     c0.104,0.303-0.055,0.631-0.357,0.737C399.484,235.648,392.976,236.629,386.763,236.629z"/>
			<path style="fill:#550E68;" d="M235.726,219.158c-0.165,0-0.328-0.07-0.443-0.206c-0.206-0.244-0.174-0.611,0.07-0.816     c1.497-1.26,2.911-2.376,4.326-3.496c1.393-1.099,2.784-2.2,4.257-3.437c0.242-0.201,0.612-0.174,0.815,0.07     c0.206,0.244,0.174,0.61-0.07,0.816c-1.482,1.246-2.884,2.354-4.284,3.459c-1.406,1.11-2.812,2.22-4.298,3.473     C235.991,219.113,235.858,219.158,235.726,219.158z"/>
			<path style="fill:#550E68;" d="M275.227,218.231c-0.116,1.713-0.37,3.45-0.764,5.14l-0.602-0.046c0,0-0.232,0.116-0.672,0.37     c0.463-1.806,0.787-3.681,0.88-5.533c0.023-0.324,0.278-0.602,0.625-0.533C275.019,217.629,275.25,217.907,275.227,218.231z"/>
			<path style="fill:#550E68;" d="M319.171,212.535c-3.334,4.376-5.788,9.4-7.131,14.725c-0.509-0.764-0.741-1.181-0.741-1.181     h-0.139c1.412-5.14,3.843-10.002,7.108-14.239c0.185-0.255,0.556-0.301,0.81-0.116S319.379,212.28,319.171,212.535z"/>
		</g>
		<g>
			<path style="fill:#370644;" d="M237.465,103.63c-0.119,0-0.223-0.086-0.241-0.208l-2.812-18.187     c-0.021-0.133,0.07-0.258,0.204-0.279c0.141-0.025,0.258,0.072,0.278,0.205l2.812,18.187c0.021,0.133-0.07,0.258-0.204,0.279     C237.489,103.629,237.477,103.63,237.465,103.63z"/>
			<g>
				<path style="fill:#FF71B1;" d="M254.413,176.648c-2.686,0.926-5.696,2.107-8.428,3.195c-0.324-2.385-0.648-4.746-0.995-7.131      c-0.231-1.713-0.486-3.38-0.741-5.07c-0.625-4.121-1.273-8.242-1.898-12.317c-0.255-1.713-0.532-3.38-0.787-5.047      c-0.625-4.075-1.32-8.15-2.038-12.225c-0.255-1.667-0.532-3.38-0.88-5.047c-0.671-4.029-1.343-8.057-2.107-12.086      c-0.301-1.667-0.579-3.334-0.88-5.001c-0.764-4.029-1.528-8.057-2.292-12.039c-0.44-2.362,1.065-4.608,3.381-5.14      c0.023,0,0.069-0.023,0.092-0.023c2.408-0.486,4.677,1.111,5.163,3.473c0.463,2.362,0.903,4.793,1.343,7.154      c0.324,1.667,0.648,3.311,0.949,4.978v0.046c0.718,4.005,1.436,7.988,2.177,11.97c0.278,1.667,0.579,3.381,0.857,5.094      c0.718,4.028,1.412,8.103,2.038,12.132c0.301,1.713,0.579,3.404,0.833,5.117c0.671,4.075,1.32,8.15,1.898,12.248      c0.301,1.69,0.533,3.403,0.787,5.117C253.394,169.587,253.903,173.106,254.413,176.648z"/>
				<path style="fill:#FFD974;" d="M244.292,114.331l0.001,0.044c-2.558,2.193-5.116,4.387-7.762,6.538      c-0.29-1.665-0.58-3.33-0.87-4.995c2.603-2.15,5.161-4.344,7.674-6.581C243.669,111.001,244.003,112.665,244.292,114.331z"/>
				<path style="fill:#FFD974;" d="M247.331,131.419c-2.556,2.282-5.158,4.475-7.804,6.627c-0.246-1.666-0.537-3.375-0.87-5.039      c2.646-2.151,5.247-4.389,7.804-6.67C246.749,128.001,247.04,129.71,247.331,131.419z"/>
				<path style="fill:#FFD974;" d="M247.331,131.419c-2.556,2.282-5.158,4.475-7.804,6.627c-0.246-1.666-0.537-3.375-0.87-5.039      c2.646-2.151,5.247-4.389,7.804-6.67C246.749,128.001,247.04,129.71,247.331,131.419z"/>
				<path style="fill:#FFD974;" d="M250.196,148.687c-2.6,2.282-5.202,4.476-7.849,6.627c-0.246-1.709-0.536-3.375-0.782-5.041      c2.645-2.195,5.247-4.433,7.803-6.714C249.659,145.268,249.949,146.977,250.196,148.687z"/>
				<path style="fill:#FFD974;" d="M250.196,148.687c-2.6,2.282-5.202,4.476-7.849,6.627c-0.246-1.709-0.536-3.375-0.782-5.041      c2.645-2.195,5.247-4.433,7.803-6.714C249.659,145.268,249.949,146.977,250.196,148.687z"/>
				<path style="fill:#FFD974;" d="M252.887,166.045c-2.601,2.282-5.202,4.52-7.891,6.672c-0.247-1.71-0.493-3.376-0.739-5.085      c2.646-2.151,5.246-4.433,7.847-6.715C252.394,162.625,252.64,164.335,252.887,166.045z"/>
				<path style="fill:#FFD974;" d="M252.887,166.045c-2.601,2.282-5.202,4.52-7.891,6.672c-0.247-1.71-0.493-3.376-0.739-5.085      c2.646-2.151,5.246-4.433,7.847-6.715C252.394,162.625,252.64,164.335,252.887,166.045z"/>
			</g>
			<g>
				<path style="fill:#FFD974;" d="M235.875,93.741c-1.089,0.953-2.803,0.74-4.078,0.055c-3.559-1.913-4.737-6.461-4.789-10.502      c-0.08-6.222,1.623-12.314,3.311-18.303c6.194,3.667,10.254,9.559,11.818,16.585c0.541,2.432,0.723,5.037-0.171,7.362      C241.073,91.264,238.366,93.713,235.875,93.741z"/>
				<path style="fill:#FFEFD7;" d="M236.477,93.708c-0.698,0.611-1.795,0.474-2.612,0.035c-2.28-1.225-3.035-4.139-3.068-6.727      c-0.051-3.986,1.04-7.888,2.121-11.725c3.968,2.349,6.568,6.123,7.571,10.624c0.347,1.558,0.463,3.227-0.109,4.716      C239.806,92.122,238.072,93.69,236.477,93.708z"/>
			</g>
		</g>
	</g>
	<g>
		<g>
			<path style="fill:#FFA368;" d="M439.617,310.706c-1.289,2.749-4.815,3.82-7.803,3.282c-2.988-0.538-5.585-2.302-8.141-3.939     c-2.557-1.637-5.313-3.232-8.347-3.359c-4.756-0.199-8.929,3.281-11.588,7.229c-2.332,3.463-3.832,6.926-4.504,11.047     c-4.525-4.896-8.874-9.954-13.035-15.163c1.084-1.28,1.341-2.848,2.594-3.963c3.698-3.287,7.499-6.559,11.944-8.732     c4.445-2.173,9.668-3.164,14.39-1.685c2.452,0.768,4.681,2.165,7.163,2.833c2.482,0.668,5.498,0.408,7.099-1.603     C432.977,301.071,436.027,306.29,439.617,310.706z"/>
			<path style="fill:#FF71B1;" d="M389.955,436.908c-3.018,0.326-5.765-2.131-6.857-4.964c-1.092-2.833-0.932-5.968-0.861-9.003     s0.003-6.219-1.464-8.877c-2.3-4.167-7.441-5.927-12.196-6.149c-4.171-0.195-7.909,0.321-11.779,1.887     c1.834-6.409,3.899-12.753,6.189-19.014c1.657,0.261,3.13-0.333,4.734,0.159c4.729,1.453,9.499,3.003,13.664,5.673     c4.166,2.67,7.724,6.619,8.913,11.422c0.617,2.495,0.581,5.125,1.298,7.593c0.717,2.468,2.507,4.911,5.056,5.235     C394.742,426.231,391.865,431.547,389.955,436.908z"/>
			<path style="fill:#FF71B1;" d="M78.592,285.256c-1.346,2.721-4.894,3.719-7.869,3.119c-2.976-0.6-5.535-2.418-8.057-4.108     c-2.522-1.69-5.245-3.342-8.274-3.532c-4.75-0.298-8.996,3.094-11.737,6.986c-2.404,3.414-3.976,6.844-4.734,10.95     c-4.422-4.989-8.664-10.137-12.716-15.432c1.111-1.257,1.4-2.82,2.677-3.908c3.766-3.209,7.634-6.401,12.123-8.481     c4.489-2.08,9.732-2.961,14.422-1.385c2.436,0.819,4.635,2.262,7.102,2.982c2.467,0.72,5.488,0.523,7.131-1.454     C72.155,275.483,75.095,280.765,78.592,285.256z"/>
			<path style="fill:#D7A0FF;" d="M332.583,92.539c10.251-4.112,22.165-2.09,32.171,2.587c-0.801,5.426-2.155,10.472-2.956,15.898     c-8.241-3.596-17.624-4.518-26.407-2.595C335.784,102.347,334.148,98.431,332.583,92.539z"/>
			<path style="fill:#FFD974;" d="M112.472,153.849c7.235-8.346,18.754-11.998,29.792-12.415c1.769,5.191,2.874,10.298,4.644,15.489     c-8.973,0.572-17.738,4.044-24.669,9.772C119.804,161.106,116.558,158.372,112.472,153.849z"/>
			<path style="fill:#FFD974;" d="M132.033,456.814c-10.749,2.543-22.23-1.226-31.43-7.339c1.598-5.246,3.687-10.036,5.285-15.282     c7.615,4.781,16.757,7.086,25.728,6.49C130.325,446.639,131.362,450.755,132.033,456.814z"/>
		</g>
		<g>
			<path style="fill:#FFEFD7;" d="M198.701,140.839l8.459,3.092c0.364,0.133,0.346,0.653-0.026,0.761l-8.789,2.561     c-0.98,0.285-1.765,1.02-2.115,1.978l-3.093,8.459c-0.133,0.364-0.653,0.346-0.761-0.025l-2.561-8.789     c-0.285-0.979-1.02-1.765-1.978-2.115l-8.375-3.062c-0.372-0.136-0.343-0.671,0.041-0.766l8.908-2.209     c1.082-0.268,1.947-1.079,2.285-2.141l2.726-8.568c0.12-0.377,0.656-0.371,0.767,0.009l2.535,8.699     C197.008,139.704,197.742,140.489,198.701,140.839z"/>
			<path style="fill:#FFEFD7;" d="M105.941,212.629l7.72-4.639c0.332-0.2,0.726,0.141,0.576,0.498l-3.528,8.447     c-0.393,0.941-0.315,2.014,0.21,2.888l4.639,7.72c0.2,0.332-0.141,0.726-0.498,0.576l-8.447-3.529     c-0.941-0.393-2.014-0.315-2.888,0.21l-7.644,4.593c-0.339,0.204-0.737-0.155-0.57-0.513l3.877-8.318     c0.471-1.01,0.383-2.192-0.231-3.122l-4.954-7.504c-0.218-0.33,0.124-0.743,0.489-0.591l8.361,3.492     C103.994,213.233,105.067,213.155,105.941,212.629z"/>
			<path style="fill:#FFEFD7;" d="M162.693,43.644l7.72-4.639c0.332-0.2,0.726,0.141,0.576,0.498l-3.529,8.447     c-0.393,0.941-0.315,2.014,0.21,2.888l4.639,7.72c0.199,0.332-0.141,0.726-0.498,0.576l-8.447-3.529     c-0.941-0.393-2.014-0.315-2.888,0.21l-7.644,4.593c-0.339,0.204-0.737-0.155-0.57-0.513l3.877-8.318     c0.471-1.01,0.384-2.192-0.231-3.122l-4.954-7.504c-0.218-0.33,0.124-0.743,0.489-0.591l8.361,3.492     C160.746,44.248,161.819,44.17,162.693,43.644z"/>
			<path style="fill:#FFEFD7;" d="M392.182,137.289l5.849-6.848c0.251-0.294,0.733-0.097,0.705,0.289l-0.666,9.131     c-0.074,1.017,0.34,2.01,1.116,2.672l6.848,5.849c0.295,0.251,0.097,0.733-0.289,0.705l-9.13-0.666     c-1.018-0.074-2.01,0.34-2.672,1.116l-5.792,6.78c-0.257,0.301-0.748,0.087-0.703-0.306l1.038-9.119     c0.126-1.107-0.332-2.201-1.209-2.888l-7.079-5.544c-0.312-0.244-0.118-0.744,0.276-0.716l9.037,0.659     C390.528,138.479,391.52,138.065,392.182,137.289z"/>
			<path style="fill:#FFEFD7;" d="M399.276,257.881l5.849-6.848c0.251-0.294,0.733-0.097,0.705,0.289l-0.666,9.13     c-0.074,1.018,0.34,2.01,1.116,2.672l6.848,5.849c0.295,0.251,0.097,0.733-0.289,0.705l-9.13-0.666     c-1.018-0.074-2.01,0.34-2.672,1.116l-5.792,6.781c-0.257,0.301-0.748,0.087-0.703-0.306l1.038-9.119     c0.126-1.107-0.332-2.201-1.209-2.888l-7.079-5.544c-0.312-0.244-0.118-0.744,0.276-0.716l9.037,0.659     C397.621,259.071,398.613,258.656,399.276,257.881z"/>
		</g>
	</g>
</g>















</svg>
