<?xml version="1.0" encoding="UTF-8"?>
<!-- Generator: Adobe Illustrator 24.1.1, SVG Export Plug-In . SVG Version: 6.00 Build 0)  -->
<svg xmlns="http://www.w3.org/2000/svg" xmlns:xlink="http://www.w3.org/1999/xlink" version="1.1" id="Capa_1" x="0px" y="0px" viewBox="0 0 512 512" style="enable-background:new 0 0 512 512;" xml:space="preserve" width="512" height="512">
<g>
	<path style="fill:#FFFFFF;" d="M357.569,512c-9.913,0-19.398-3.329-27.053-9.335c-0.317,0.065-2.538,0.511-2.538,0.511   c-1.029,0.208-5.124,0.992-5.124,0.992c-55.253,10.094-114.288,11.605-167.849-7.678c-2.385-0.872-4.638-1.733-6.876-2.643   c-3.749-1.526-6.68-4.564-8.068-8.364l-13.073-35.818C60.576,406.126,21.088,333.232,21.088,253.657   c0-20.289,2.602-40.396,7.739-59.88c-13.448-17.249-20.772-38.436-20.772-60.492c0-54.316,44.19-98.506,98.506-98.506   c8.731,0,17.422,1.157,25.83,3.441c5.889,1.587,11.614,3.729,17.095,6.384c19.127-9.715,39.372-16.696,60.398-20.83l0.866-10.14   c0.597-6.997,6.178-12.532,13.18-13.073C224.228,0.539,231.363,0,243.451,0c46.815,0,165.409,8.063,255.319,82.766   c4.816,4.001,6.479,10.665,4.106,16.46l-28.763,70.228c10.357,26.857,15.602,55.153,15.602,84.203   c0,75.54-35.648,145.152-96.137,189.253c5.072,7.254,7.928,15.998,7.928,25.154c0,9.652-3.248,19.181-9.143,26.834   C383.936,505.777,371.263,512,357.569,512z"/>
	<g>
		<g>
			
				<ellipse transform="matrix(0.7071 -0.7071 0.7071 0.7071 -104.1999 255.7522)" style="fill:#FF71B1;" cx="256.62" cy="253.656" rx="219.979" ry="219.979"/>
			<g>
				<g>
					<path style="fill:#550E68;" d="M318.264,284.702c-0.146,0-0.292-0.016-0.439-0.049c-1.078-0.242-1.756-1.312-1.514-2.39       l45.718-203.707c0.242-1.078,1.317-1.751,2.389-1.514c1.078,0.242,1.756,1.312,1.514,2.39L320.213,283.14       C320.005,284.07,319.179,284.702,318.264,284.702z"/>
					<g>
						<g>
							<path style="fill:#FFE4E0;" d="M226.254,14.856c0,0,155.153-11.977,264.577,78.937L448.912,196.14         c0,0-75.671-75.127-231.913-72.949L226.254,14.856z"/>
							<path style="fill:#D7A0FF;" d="M447.549,184.664c-0.173,0-0.343-0.06-0.479-0.173c-0.209-0.173-21.292-17.496-59.233-34.356         c-35.01-15.558-91.944-33.894-164.366-32.881c-0.24-0.006-0.416-0.083-0.56-0.239c-0.145-0.155-0.217-0.364-0.198-0.575         l8.323-97.43c0.032-0.377,0.341-0.671,0.719-0.686c0.389-0.015,39.405-1.347,89.942,7.341         c46.663,8.022,112.984,26.474,163.947,68.816c0.254,0.211,0.34,0.564,0.211,0.869l-37.616,88.856         c-0.092,0.218-0.282,0.38-0.513,0.436C447.668,184.657,447.608,184.664,447.549,184.664z M229.194,115.714         c69.995,0,125.08,17.858,159.308,33.075c34.034,15.131,54.585,30.649,58.742,33.921l37.013-87.431         C433.615,53.408,367.818,35.12,321.478,27.15c-46.788-8.047-83.665-7.477-89.004-7.346l-8.196,95.939         C225.922,115.724,227.566,115.714,229.194,115.714z"/>
						</g>
						<g>
							<g>
								<path style="fill:#FFA368;" d="M318.976,35.059c0.84,0.152,1.521,0.348,2.046,0.587c0.522,0.239,0.912,0.48,1.167,0.727          c0.252,0.247,0.418,0.567,0.493,0.966c0.075,0.399,0.096,0.728,0.063,0.993c-0.033,0.264-0.099,0.656-0.197,1.178          c-1.724,9.137-2.586,13.705-4.31,22.842c-0.119,0.633-0.232,1.101-0.338,1.409c-0.105,0.305-0.32,0.642-0.643,1.006          c-0.323,0.367-0.791,0.577-1.403,0.633c-0.61,0.056-1.407-0.004-2.387-0.181c-0.796-0.144-1.445-0.333-1.94-0.561          c-0.497-0.229-0.867-0.463-1.111-0.705c-0.243-0.242-0.4-0.56-0.474-0.954c-0.074-0.396-0.097-0.725-0.067-0.99          c0.03-0.265,0.09-0.657,0.181-1.181c0.581-3.351,0.872-5.026,1.453-8.377c-4.985-0.865-7.483-1.269-12.489-2.023          c-0.509,3.379-0.764,5.069-1.273,8.449c-0.096,0.637-0.191,1.108-0.285,1.42c-0.094,0.309-0.297,0.654-0.606,1.03          c-0.31,0.378-0.77,0.606-1.38,0.684c-0.608,0.078-1.407,0.048-2.395-0.093c-0.802-0.115-1.458-0.279-1.962-0.489          c-0.506-0.211-0.885-0.431-1.137-0.664c-0.252-0.232-0.421-0.545-0.51-0.936c-0.089-0.394-0.124-0.721-0.103-0.987          c0.02-0.266,0.066-0.66,0.137-1.187c1.249-9.214,1.874-13.821,3.123-23.034c0.087-0.638,0.176-1.111,0.268-1.423          c0.092-0.31,0.299-0.657,0.614-1.035c0.315-0.378,0.795-0.612,1.436-0.69c0.643-0.08,1.485-0.047,2.526,0.102          c0.846,0.121,1.534,0.292,2.068,0.512c0.531,0.219,0.93,0.446,1.194,0.684c0.261,0.237,0.439,0.552,0.529,0.947          c0.09,0.396,0.124,0.724,0.1,0.99c-0.023,0.265-0.074,0.659-0.154,1.185c-0.509,3.379-0.764,5.069-1.273,8.449          c5.06,0.762,7.585,1.171,12.624,2.045c0.587-3.384,0.88-5.076,1.467-8.46c0.11-0.635,0.216-1.104,0.32-1.413          c0.103-0.306,0.323-0.646,0.651-1.012c0.328-0.366,0.817-0.582,1.459-0.637C317.1,34.807,317.942,34.871,318.976,35.059z"/>
								<path style="fill:#FFA368;" d="M345.803,49.418c0.976,0.228,1.743,0.495,2.301,0.8c0.56,0.306,0.907,0.689,1.045,1.154          c0.139,0.463,0.193,0.857,0.165,1.182c-0.028,0.322-0.117,0.797-0.267,1.421c-1.373,5.701-2.059,8.551-3.432,14.252          c-0.151,0.626-0.286,1.088-0.407,1.39c-0.12,0.3-0.342,0.621-0.665,0.958c-0.323,0.34-0.791,0.522-1.404,0.548          c-0.612,0.025-1.404-0.074-2.374-0.3c-1.364-0.318-2.285-0.722-2.763-1.215c-0.48-0.497-0.684-1.107-0.616-1.836          c-1.453,1.189-3.433,1.503-5.96,0.959c-2.738-0.589-5.005-2.184-6.844-4.802c-1.839-2.618-2.495-5.375-1.931-8.279          c0.549-2.824,2.197-5.092,4.976-6.768c2.779-1.677,5.6-2.214,8.413-1.609c1.075,0.231,2.022,0.609,2.833,1.13          c0.808,0.519,1.358,0.968,1.639,1.33c0.281,0.362,0.501,0.708,0.661,1.028c0.266-0.741,0.732-1.237,1.403-1.486          C343.245,49.029,344.322,49.073,345.803,49.418z M334.217,61.835c1.109,0.241,2.121,0.08,3.039-0.487          c0.919-0.568,1.482-1.299,1.684-2.198c0.196-0.872,0.015-1.771-0.545-2.699c-0.56-0.926-1.467-1.526-2.716-1.797          c-1.215-0.264-2.291-0.095-3.217,0.508c-0.926,0.605-1.482,1.359-1.671,2.261c-0.189,0.9,0.045,1.799,0.695,2.693          C332.137,61.009,333.046,61.58,334.217,61.835z"/>
								<path style="fill:#FFA368;" d="M346.925,78.55c2.354-9.497,3.531-14.246,5.884-23.742c0.154-0.623,0.292-1.079,0.413-1.364          c0.121-0.287,0.351-0.599,0.681-0.932c0.331-0.334,0.8-0.513,1.405-0.534c0.607-0.021,1.395,0.091,2.366,0.339          c1.411,0.36,2.357,0.802,2.839,1.316c0.482,0.514,0.678,1.138,0.587,1.866c1.554-1.095,3.524-1.324,5.895-0.676          c2.712,0.741,4.918,2.48,6.578,5.193c1.66,2.713,2.077,5.418,1.289,8.097c-0.82,2.787-2.634,4.883-5.411,6.321          c-2.777,1.44-5.466,1.8-8.108,1.078c-2.283-0.624-3.816-1.695-4.608-3.23c-0.861,3.273-1.291,4.909-2.152,8.182          c-0.163,0.62-0.307,1.075-0.43,1.361c-0.122,0.284-0.349,0.594-0.672,0.926c-0.323,0.333-0.774,0.514-1.348,0.536          c-0.576,0.024-1.322-0.083-2.24-0.317c-0.918-0.235-1.63-0.501-2.14-0.802c-0.508-0.298-0.826-0.668-0.953-1.102          c-0.127-0.433-0.18-0.807-0.151-1.114C346.678,79.641,346.77,79.173,346.925,78.55z M360.839,61.756          c-0.901,0.54-1.465,1.244-1.692,2.108s-0.077,1.748,0.453,2.654c0.527,0.905,1.337,1.505,2.433,1.802          c1.124,0.304,2.172,0.215,3.142-0.27c0.969-0.485,1.581-1.169,1.828-2.057c0.247-0.888,0.103-1.791-0.437-2.707          c-0.539-0.917-1.399-1.538-2.568-1.855C362.795,61.105,361.74,61.215,360.839,61.756z"/>
								<path style="fill:#FFA368;" d="M372.83,85.642c2.812-9.372,4.218-14.057,7.03-23.429c0.184-0.615,0.344-1.064,0.479-1.342          c0.135-0.281,0.379-0.581,0.726-0.898c0.347-0.317,0.824-0.473,1.429-0.465c0.607,0.009,1.389,0.159,2.347,0.454          c1.392,0.428,2.315,0.915,2.772,1.453c0.456,0.537,0.622,1.169,0.495,1.892c1.605-1.017,3.584-1.151,5.922-0.388          c2.674,0.872,4.794,2.716,6.321,5.507c1.527,2.791,1.813,5.513,0.896,8.15c-0.954,2.744-2.868,4.75-5.712,6.05          c-2.845,1.303-5.548,1.532-8.153,0.682c-2.251-0.734-3.73-1.879-4.447-3.451c-1.019,3.227-1.528,4.841-2.547,8.068          c-0.193,0.612-0.358,1.059-0.495,1.338c-0.136,0.278-0.378,0.576-0.716,0.892c-0.339,0.316-0.798,0.475-1.372,0.47          c-0.577-0.004-1.316-0.147-2.222-0.425c-0.906-0.279-1.604-0.58-2.099-0.905c-0.492-0.323-0.792-0.708-0.899-1.147          c-0.106-0.438-0.14-0.814-0.096-1.12C372.53,86.719,372.645,86.257,372.83,85.642z M387.543,69.543          c-0.926,0.496-1.524,1.171-1.793,2.023c-0.269,0.852-0.162,1.742,0.324,2.673c0.483,0.93,1.262,1.568,2.343,1.918          c1.108,0.359,2.16,0.32,3.152-0.117s1.636-1.091,1.926-1.965c0.29-0.875,0.189-1.784-0.305-2.725          c-0.495-0.942-1.323-1.604-2.476-1.977C389.529,68.989,388.469,69.048,387.543,69.543z"/>
								<path style="fill:#FFA368;" d="M428.539,75.618c1.506,1.38,2.058,2.554,1.671,3.512c-0.167,0.413-0.643,0.945-1.421,1.593          c-0.006,0.016-0.009,0.024-0.016,0.039c-0.041,0.016-0.067,0.036-0.076,0.06c-8.344,7.228-12.426,10.909-20.406,18.394          c-0.418,0.411-0.754,0.716-1.009,0.92c-0.257,0.203-0.601,0.355-1.031,0.463c-0.433,0.107-0.879,0.075-1.337-0.094          c-0.575-0.213-1.29-0.702-2.15-1.464c-1.449-1.303-2.009-2.422-1.668-3.368c0.151-0.419,0.629-1.019,1.437-1.796          c1.879-1.843,3.895-3.738,6.048-5.683c-1.561-6.56-2.39-9.841-4.146-16.405c-0.299-1.082-0.379-1.833-0.233-2.254          c0.294-0.844,1.409-1.404,3.355-1.663c1.221-0.162,2.201-0.106,2.932,0.156c0.425,0.153,0.787,0.401,1.075,0.742          c0.288,0.34,0.475,0.656,0.562,0.938c0.086,0.285,0.208,0.724,0.371,1.317c1.221,4.933,2.104,8.607,2.721,11.019          c0.307-0.363,2.776-2.643,7.518-6.768c0.373-0.336,0.647-0.573,0.823-0.714c0.177-0.142,0.424-0.294,0.746-0.451          c0.323-0.16,0.643-0.24,0.952-0.238c0.31,0.003,0.666,0.08,1.057,0.233C426.977,74.367,427.722,74.871,428.539,75.618z"/>
								<path style="fill:#FFA368;" d="M288.193,90.433c1.452,2.18,2.008,4.504,1.635,6.878c-0.43,2.73-1.786,4.888-3.865,6.426          c-2.208,1.634-4.653,2.317-7.353,1.974c-4.485-0.569-6.732-0.829-11.232-1.301c-0.741-0.078-1.35-0.212-1.819-0.398          c-0.471-0.187-0.826-0.39-1.065-0.61c-0.239-0.221-0.401-0.53-0.492-0.932c-0.091-0.403-0.132-0.735-0.12-1.001          c0.011-0.266,0.043-0.661,0.094-1.191c0.9-9.254,1.35-13.882,2.249-23.136c0.065-0.669,0.135-1.152,0.21-1.454          c0.075-0.3,0.256-0.648,0.537-1.04c0.281-0.392,0.719-0.647,1.309-0.754c0.593-0.109,1.372-0.115,2.339-0.013          c4.57,0.479,6.852,0.742,11.408,1.317c2.772,0.35,4.97,1.575,6.583,3.578c1.665,2.065,2.341,4.367,1.977,6.879          C290.323,87.478,289.521,89.07,288.193,90.433z M282.213,95.788c0.084-0.636,0.071-1.16-0.038-1.568          c-0.109-0.41-0.345-0.718-0.701-0.917c-0.358-0.2-0.681-0.339-0.968-0.418c-0.287-0.079-0.72-0.155-1.302-0.228          c-1.138-0.142-1.945-0.437-2.426-0.89c-0.478-0.45-0.646-1.299-0.497-2.548c0.138-1.163,0.503-1.909,1.094-2.231          c0.591-0.322,1.525-0.406,2.791-0.248c0.384,0.048,0.679,0.072,0.89,0.07c0.21-0.001,0.449-0.049,0.717-0.141          c0.265-0.093,0.469-0.278,0.61-0.554c0.141-0.278,0.245-0.667,0.309-1.165c0.115-0.886-0.055-1.501-0.508-1.839          c-0.454-0.339-1.173-0.573-2.154-0.695c-2.497-0.31-3.747-0.457-6.248-0.738c-0.708,6.31-1.062,9.465-1.77,15.776          c2.844,0.319,4.264,0.488,7.102,0.846c0.287,0.036,0.535,0.047,0.743,0.033c0.208-0.016,0.5-0.077,0.881-0.183          c0.381-0.106,0.699-0.359,0.958-0.762C281.952,96.984,282.125,96.452,282.213,95.788z"/>
								<path style="fill:#FFA368;" d="M298.794,83.343c-0.919-0.146-1.647-0.343-2.187-0.597c-0.537-0.254-0.887-0.605-1.045-1.051          c-0.16-0.449-0.239-0.834-0.236-1.159c0.003-0.323,0.053-0.804,0.15-1.438c0.097-0.636,0.192-1.108,0.285-1.42          c0.093-0.309,0.283-0.648,0.57-1.015c0.285-0.365,0.729-0.589,1.323-0.665c0.596-0.076,1.377-0.038,2.339,0.116          c0.931,0.149,1.67,0.353,2.213,0.611c0.541,0.257,0.892,0.615,1.047,1.064c0.156,0.452,0.23,0.84,0.222,1.163          c-0.008,0.325-0.065,0.803-0.171,1.438c-0.106,0.633-0.207,1.103-0.305,1.413c-0.098,0.31-0.291,0.645-0.581,1.008          c-0.287,0.362-0.727,0.579-1.317,0.653C300.511,83.537,299.743,83.495,298.794,83.343z M293.921,89.326          c0.097-0.634,0.191-1.108,0.284-1.418c0.093-0.312,0.283-0.652,0.563-1.016c0.281-0.366,0.715-0.589,1.3-0.668          c0.587-0.079,1.352-0.044,2.296,0.106c0.736,0.118,1.351,0.288,1.845,0.511c0.491,0.222,0.85,0.451,1.067,0.684          c0.216,0.232,0.361,0.549,0.431,0.942c0.07,0.395,0.091,0.725,0.062,0.987c-0.029,0.265-0.087,0.66-0.175,1.182          c-0.967,5.783-1.45,8.675-2.416,14.458c-0.106,0.635-0.207,1.106-0.302,1.414c-0.096,0.31-0.286,0.648-0.563,1.011          c-0.277,0.363-0.699,0.584-1.262,0.662c-0.565,0.077-1.299,0.043-2.203-0.101c-0.876-0.14-1.569-0.333-2.083-0.583          c-0.511-0.249-0.842-0.597-0.99-1.043c-0.148-0.444-0.224-0.825-0.22-1.133c0.004-0.311,0.056-0.799,0.157-1.461          C292.594,98.046,293.036,95.139,293.921,89.326z"/>
								<path style="fill:#FFA368;" d="M322.88,93.441c-0.246,1.176-0.753,2.226-1.516,3.15c-0.765,0.926-1.663,1.281-2.698,1.072          c-0.52-0.105-0.995-0.313-1.428-0.627c-0.431-0.314-0.895-0.52-1.385-0.617c-1.069-0.21-1.995-0.117-2.772,0.273          c-0.78,0.392-1.236,0.959-1.377,1.7c-0.654,3.457-0.981,5.186-1.635,8.643c-0.12,0.633-0.23,1.101-0.332,1.407          c-0.102,0.308-0.304,0.641-0.605,0.995c-0.301,0.357-0.732,0.565-1.296,0.631c-0.567,0.066-1.298,0.016-2.199-0.148          c-0.703-0.127-1.291-0.304-1.758-0.529c-0.47-0.226-0.806-0.453-1.013-0.688c-0.206-0.235-0.339-0.55-0.402-0.942          c-0.063-0.395-0.079-0.722-0.048-0.987c0.031-0.264,0.092-0.656,0.183-1.181c1.008-5.794,1.512-8.69,2.52-14.483          c0.11-0.632,0.215-1.104,0.314-1.411c0.099-0.309,0.296-0.645,0.584-1.004c0.288-0.359,0.727-0.574,1.314-0.641          c0.589-0.066,1.352-0.016,2.292,0.155c0.881,0.16,1.584,0.375,2.112,0.644c0.525,0.268,0.862,0.564,1.014,0.892          c0.151,0.328,0.237,0.593,0.26,0.795c0.022,0.204,0.01,0.429-0.036,0.675c0.182-0.163,0.436-0.357,0.767-0.579          c0.33-0.22,0.992-0.478,1.989-0.77c0.997-0.289,1.966-0.341,2.902-0.155c0.44,0.088,0.885,0.213,1.341,0.376          c0.453,0.163,0.942,0.384,1.462,0.662c0.52,0.278,0.923,0.652,1.206,1.126C322.92,92.343,323,92.868,322.88,93.441z"/>
								<path style="fill:#FFA368;" d="M337.43,101.646c-1.099-0.333-1.649-0.499-2.751-0.826c-0.528,2.251-0.792,3.376-1.321,5.626          c-0.172,0.734-0.179,1.293-0.015,1.674c0.164,0.384,0.554,0.648,1.175,0.796c0.704,0.168,1.226,0.315,1.569,0.441          c0.343,0.126,0.68,0.337,1.009,0.631c0.328,0.294,0.511,0.68,0.545,1.147c0.034,0.47-0.042,1.083-0.229,1.842          c-0.207,0.841-0.465,1.498-0.772,1.968c-0.308,0.47-0.693,0.757-1.16,0.857c-0.468,0.102-0.864,0.136-1.194,0.1          c-0.328-0.036-0.8-0.128-1.411-0.273c-2.892-0.689-4.944-1.826-6.171-3.447c-1.224-1.618-1.511-3.953-0.841-7.007          c0.532-2.422,0.798-3.633,1.329-6.055c-0.565-0.038-1.09-0.109-1.578-0.215c-0.778-0.168-1.323-0.53-1.641-1.082          c-0.318-0.552-0.325-1.567-0.013-3.041c0.162-0.765,0.369-1.384,0.622-1.86c0.253-0.473,0.539-0.792,0.863-0.952          c0.324-0.158,0.625-0.243,0.9-0.256c0.278-0.012,0.592,0.02,0.94,0.095c0.563,0.191,0.845,0.286,1.407,0.479          c0.37-1.685,0.555-2.528,0.925-4.214c0.138-0.629,0.262-1.087,0.372-1.378c0.11-0.289,0.316-0.597,0.617-0.915          c0.3-0.318,0.752-0.491,1.345-0.517c0.593-0.023,1.364,0.07,2.307,0.285c0.737,0.167,1.334,0.375,1.788,0.623          c0.453,0.246,0.793,0.492,1.017,0.732c0.222,0.239,0.357,0.555,0.403,0.954c0.047,0.397,0.044,0.735-0.004,1.011          c-0.048,0.275-0.131,0.657-0.246,1.145c-0.375,1.599-0.563,2.399-0.938,3.998c1.301,0.19,2.27,0.365,2.91,0.519          c0.666,0.16,1.159,0.302,1.483,0.424c0.321,0.122,0.671,0.336,1.04,0.641c0.368,0.304,0.577,0.742,0.622,1.297          c0.045,0.557-0.042,1.271-0.257,2.138c-0.208,0.84-0.463,1.496-0.76,1.968c-0.3,0.474-0.689,0.757-1.167,0.856          c-0.48,0.098-0.889,0.128-1.226,0.089C338.583,101.904,338.087,101.804,337.43,101.646z"/>
								<path style="fill:#FFA368;" d="M357.962,99.407c2.871,0.802,4.965,2.514,6.256,5.105c1.291,2.593,1.475,5.363,0.592,8.306          c-0.848,2.824-1.272,4.235-2.12,7.059c-0.185,0.617-0.344,1.071-0.477,1.364c-0.134,0.296-0.363,0.607-0.682,0.933          c-0.323,0.327-0.768,0.491-1.336,0.497c-0.57,0.006-1.292-0.12-2.17-0.376c-0.85-0.249-1.506-0.526-1.967-0.833          c-0.463-0.308-0.748-0.685-0.857-1.139c-0.11-0.451-0.14-0.845-0.09-1.178c0.051-0.335,0.168-0.826,0.351-1.47          c0.802-2.82,1.203-4.229,2.005-7.049c0.314-1.102,0.236-2.053-0.238-2.854c-0.476-0.804-1.225-1.346-2.246-1.629          c-0.992-0.275-1.95-0.227-2.872,0.146c-0.921,0.371-1.537,0.907-1.843,1.605c-0.843,3.139-1.265,4.709-2.109,7.848          c-0.167,0.622-0.313,1.08-0.437,1.378c-0.125,0.3-0.347,0.618-0.657,0.952c-0.311,0.335-0.751,0.514-1.319,0.537          c-0.57,0.023-1.295-0.082-2.18-0.313c-0.857-0.224-1.528-0.483-2.013-0.781c-0.484-0.297-0.779-0.676-0.883-1.133          c-0.104-0.457-0.142-0.842-0.109-1.149c0.034-0.309,0.133-0.789,0.297-1.439c2.458-9.712,3.688-14.568,6.147-24.28          c0.158-0.624,0.298-1.085,0.421-1.386c0.123-0.299,0.344-0.618,0.665-0.955c0.318-0.336,0.781-0.516,1.379-0.534          c0.6-0.018,1.372,0.095,2.313,0.34c0.911,0.238,1.626,0.513,2.14,0.822c0.513,0.308,0.827,0.698,0.937,1.16          c0.111,0.465,0.147,0.858,0.108,1.179c-0.039,0.323-0.142,0.793-0.309,1.415c-0.961,3.575-1.441,5.363-2.402,8.938          C354.129,99.233,356.039,98.87,357.962,99.407z"/>
								<path style="fill:#FFA368;" d="M393.116,99.533c0.888,0.309,1.579,0.64,2.067,0.988c0.488,0.35,0.77,0.762,0.845,1.232          c0.075,0.472,0.08,0.869,0.015,1.184c-0.066,0.317-0.207,0.778-0.423,1.385c-3.351,9.424-5.027,14.135-8.379,23.559          c-0.216,0.607-0.397,1.054-0.544,1.342c-0.146,0.286-0.399,0.584-0.75,0.887c-0.352,0.306-0.813,0.447-1.38,0.423          c-0.568-0.022-1.283-0.184-2.148-0.484c-2.054-0.713-2.972-1.744-2.748-3.114c-1.574,0.883-3.369,0.984-5.407,0.314          c-2.444-0.803-4.336-2.557-5.712-5.286c-1.376-2.73-1.647-5.518-0.771-8.373c0.836-2.724,2.617-4.824,5.384-6.269          c2.764-1.444,5.43-1.75,7.95-0.922c2.097,0.689,3.501,1.899,4.206,3.614c1.13-3.332,1.695-4.998,2.826-8.33          c0.207-0.61,0.383-1.058,0.529-1.348c0.146-0.288,0.392-0.591,0.737-0.901c0.343-0.309,0.82-0.45,1.42-0.422          C391.435,99.041,392.195,99.213,393.116,99.533z M375.362,118.75c0.485,0.95,1.236,1.591,2.254,1.928          c1.019,0.337,1.983,0.264,2.898-0.223c0.915-0.487,1.524-1.167,1.819-2.038c0.287-0.846,0.23-1.75-0.173-2.713          c-0.403-0.961-1.166-1.627-2.283-1.997c-1.117-0.37-2.131-0.298-3.038,0.214c-0.907,0.515-1.501,1.211-1.784,2.088          C374.773,116.884,374.877,117.8,375.362,118.75z"/>
								<path style="fill:#FFA368;" d="M414.701,118.644c0.858,0.347,1.517,0.707,1.977,1.076c0.463,0.371,0.716,0.791,0.763,1.264          c0.048,0.471,0.031,0.866-0.051,1.18c-0.08,0.313-0.244,0.767-0.489,1.361c-2.237,5.42-3.356,8.13-5.594,13.55          c-0.246,0.595-0.449,1.031-0.612,1.312c-0.162,0.279-0.421,0.566-0.774,0.857c-0.354,0.293-0.814,0.413-1.381,0.361          c-0.565-0.052-1.274-0.248-2.123-0.591c-1.195-0.483-1.969-0.995-2.322-1.54c-0.354-0.548-0.437-1.173-0.25-1.879          c-1.534,0.983-3.399,1.042-5.618,0.19c-2.404-0.924-4.205-2.778-5.442-5.584c-1.237-2.806-1.371-5.6-0.365-8.382          c0.979-2.705,2.868-4.722,5.697-6.014c2.829-1.292,5.506-1.459,7.985-0.506c0.947,0.364,1.752,0.856,2.408,1.471          c0.653,0.613,1.082,1.123,1.278,1.514c0.196,0.391,0.339,0.759,0.431,1.094c0.371-0.694,0.883-1.121,1.541-1.281          C412.418,117.938,413.399,118.118,414.701,118.644z M401.957,129.366c0.975,0.377,1.929,0.347,2.867-0.094          c0.938-0.441,1.58-1.088,1.919-1.945c0.328-0.831,0.316-1.737-0.039-2.719c-0.356-0.98-1.085-1.684-2.184-2.109          c-1.069-0.413-2.084-0.385-3.034,0.09c-0.951,0.477-1.588,1.147-1.914,2.009c-0.325,0.86-0.264,1.773,0.179,2.733          C400.193,128.292,400.928,128.968,401.957,129.366z"/>
								<path style="fill:#FFA368;" d="M440.768,130.276c1.29,1.405,1.707,2.578,1.264,3.512c-0.191,0.403-0.681,0.914-1.463,1.531          c-0.007,0.015-0.011,0.023-0.018,0.038c-0.04,0.015-0.065,0.034-0.076,0.057c-8.405,6.889-12.521,10.404-20.572,17.564          c-0.423,0.393-0.762,0.685-1.015,0.879c-0.256,0.193-0.588,0.333-0.998,0.428c-0.411,0.094-0.823,0.05-1.234-0.131          c-0.516-0.227-1.139-0.729-1.872-1.506c-1.235-1.327-1.661-2.449-1.265-3.374c0.176-0.41,0.669-0.987,1.485-1.732          c1.901-1.766,3.933-3.578,6.1-5.436c-0.901-6.522-1.399-9.788-2.492-16.329c-0.189-1.078-0.202-1.824-0.031-2.235          c0.343-0.825,1.427-1.344,3.261-1.541c1.151-0.122,2.06-0.037,2.719,0.244c0.384,0.164,0.7,0.421,0.941,0.766          c0.24,0.345,0.389,0.663,0.446,0.944c0.057,0.284,0.134,0.721,0.236,1.312c0.729,4.91,1.243,8.562,1.615,10.962          c0.317-0.349,2.807-2.528,7.58-6.46c0.376-0.321,0.652-0.546,0.829-0.681c0.177-0.135,0.42-0.277,0.734-0.423          c0.315-0.148,0.62-0.218,0.909-0.207c0.29,0.012,0.615,0.098,0.967,0.261C439.414,128.996,440.067,129.515,440.768,130.276z          "/>
							</g>
						</g>
					</g>
				</g>
				<g>
					<path style="fill:#550E68;" d="M199.413,335.521c-0.352,0-0.693-0.186-0.876-0.516c-11.834-21.367-21.608-44.208-31.062-66.296       c-10.476-24.478-21.308-49.789-34.957-73.103c-0.278-0.477-0.118-1.089,0.358-1.368c0.474-0.281,1.088-0.12,1.368,0.357       c13.712,23.422,24.569,48.792,35.069,73.327c9.433,22.042,19.188,44.835,30.973,66.114c0.268,0.483,0.093,1.092-0.391,1.359       C199.743,335.481,199.577,335.521,199.413,335.521z"/>
					<g>
						<path style="fill:#FFE4E0;" d="M191.949,133.285c0,46.493-37.677,84.17-84.17,84.17h-1.027        c-46.015-0.55-83.142-38.011-83.142-84.17c0-46.493,37.677-84.17,84.169-84.17c7.645,0,15.028,1.027,22.076,2.939        c7.168,1.935,13.977,4.802,20.236,8.458c5.447,3.178,10.512,6.952,15.1,11.229        C181.652,87.103,191.949,108.987,191.949,133.285z"/>
						<path style="fill:#FFA5D7;" d="M150.976,102.847c10.488,13.666,15.051,31.776,12.185,48.452        c-2.963,17.178-13.57,32.564-28.407,41.165c-9.126,5.304-19.806,7.98-30.748,7.98c-10.058,0-20.331-2.246-29.817-6.761        c-12.232-5.782-22.482-14.884-28.909-25.659c-5.83-9.819-9.15-21.789-9.82-35.598c-0.836-16.915,2.652-31.991,10.106-43.602        c6.618-10.321,16.963-18.994,30.748-25.803c16.843-8.314,35.574-11.994,53.541-10.966c7.168,1.935,13.977,4.802,20.236,8.458        c5.447,3.178,10.512,6.952,15.1,11.229c-1.027-0.597-2.079-1.171-3.154-1.696c-2.389-1.195-4.85-2.27-7.359-3.202        c-22.768-8.601-50.459-6.952-74.135,4.754c-12.209,6.021-21.263,13.546-26.95,22.386c-8.028,12.543-9.103,27.571-8.601,37.987        c0.597,12.209,3.464,22.697,8.505,31.155c5.447,9.15,14.239,16.939,24.775,21.932c17.058,8.076,36.865,7.765,51.677-0.86        c12.423-7.191,21.311-20.093,23.796-34.523c2.413-14.096-1.457-29.41-10.345-40.998c-5.424-7.072-12.185-12.232-19.543-14.932        c-7.884-2.867-16.413-2.771-23.39,0.263c-4.754,2.102-9.27,5.758-13.068,10.584c-6.953,8.888-10.082,20.26-8.362,30.39        c1.816,10.584,9.318,19.997,18.707,23.39c9.724,3.536,21.478,0.334,27.308-7.454c3.154-4.181,4.468-9.365,3.536-13.857        c-0.956-4.563-4.468-8.482-8.553-9.509c-3.99-1.003-8.72,1.051-10.297,4.492c-1.099,2.389-3.942,3.44-6.331,2.341        c-2.389-1.099-3.44-3.942-2.341-6.331c3.488-7.598,12.83-11.898,21.311-9.772c7.597,1.935,13.857,8.673,15.553,16.82        c1.505,7.167-0.454,15.219-5.232,21.574c-8.41,11.181-24.465,15.673-38.226,10.68c-12.686-4.587-22.434-16.676-24.847-30.772        c-2.174-12.734,1.672-26.902,10.249-37.868c4.778-6.092,10.56-10.727,16.772-13.451c9.222-4.038,20.332-4.205,30.509-0.478        C136.211,88.106,144.453,94.342,150.976,102.847z"/>
						<path style="opacity:0.36;fill:#FFE4E0;" d="M191.949,133.285c0,46.493-37.677,84.17-84.17,84.17h-1.027        c3.536-1.529,7.024-3.249,10.464-5.304c17.871-10.68,33.281-26.018,42.001-44.916c6.761-14.717,9.293-31.107,9.222-47.305        c-0.072-14.765-2.318-29.697-8.362-43.172c-1.553-3.417-3.345-6.738-5.4-9.915c-1.41-2.198-2.939-4.3-4.587-6.331        c5.447,3.178,10.512,6.952,15.1,11.229C181.652,87.103,191.949,108.987,191.949,133.285z"/>
					</g>
				</g>
				<g>
					<g>
						<path style="fill:#FFE4E0;" d="M321.911,205.598c-1.986,4.033-7.452,2.805-11.997,3.46        c-25.181,3.583-50.444,7.165-75.891,7.247c-13.88,0.061-28.477-2.579-41.047-8.353c-1.249-7.186-0.061-14.638,2.907-21.332        c0.594-1.392,1.29-2.764,2.047-4.074c4.422-7.677,11.116-13.962,18.712-18.712c7.78-4.831,16.562-8.168,23.707-13.86        c7.145-5.691,12.55-14.843,10.093-23.503c13.594,2.928,26.962,6.367,39.307,12.611c12.365,6.265,23.502,15.395,30.074,27.351        c0.307,0.553,0.614,1.126,0.901,1.699C326.538,179.782,327.623,193.929,321.911,205.598z"/>
						<path style="opacity:0.27;fill:#FFA5D7;" d="M321.911,205.598c-1.986,4.033-7.452,2.805-11.997,3.46        c-25.181,3.583-50.444,7.165-75.891,7.247c-13.88,0.061-28.477-2.579-41.047-8.353c-1.249-7.186-0.061-14.638,2.907-21.332        c0.328-0.184,0.655-0.348,0.983-0.512c8.189-3.89,17.524-4.647,26.594-4.34c9.069,0.328,18.077,1.638,27.146,1.658        c17.34,0.041,34.373-4.688,50.608-10.85c6.264-2.395,13.02-5.016,19.51-4.443        C326.538,179.782,327.623,193.929,321.911,205.598z"/>
						<path style="fill:#FFE4E0;" d="M355.076,241.015c-2.641,4.586-7.575,7.411-12.55,9.213        c-17.279,6.203-36.973,2.027-52.88-7.165c-15.907-9.172-28.641-22.867-40.658-36.748l1.495-5.077        c5.712-1.269,11.444-2.539,17.156-3.808c9.008-2.006,17.995-4.013,27.003-6.019c7.513-1.679,15.211-3.358,22.847-2.436        c7.841,0.942,15.109,4.565,21.639,8.987c5.855,3.971,11.403,8.783,14.556,15.108c1.965,3.972,2.907,8.373,3.419,12.775        c0.164,1.269,0.266,2.559,0.307,3.849C357.554,233.645,357.042,237.617,355.076,241.015z"/>
						<path style="opacity:0.27;fill:#FFA5D7;" d="M355.076,241.015c-2.641,4.586-7.575,7.411-12.55,9.213        c-17.279,6.203-36.973,2.027-52.88-7.165c-15.907-9.172-28.641-22.867-40.658-36.748l1.495-5.077        c5.712-1.269,11.444-2.539,17.156-3.808c4.586,1.515,9.049,3.501,13.368,5.568c20.657,9.95,40.638,23.011,63.403,25.652        c4.32,0.512,8.68,0.614,13,1.044C357.554,233.645,357.042,237.617,355.076,241.015z"/>
						<path style="fill:#FFE4E0;" d="M150.18,264.023c-0.47-15.549,5.28-31.06,15.133-43.099        c9.853-12.039,23.641-20.639,38.566-25.027c9.304-2.735,19.212-3.883,28.748-2.121c8.875,1.64,17.084,5.707,25.24,9.571        c19.805,9.383,40.043,17.819,60.273,26.251c7.76,3.234,15.597,6.492,23.876,7.952c6.658,1.175,13.895,1.308,19.368,5.278        c8.418,6.106,8.938,18.752,5.435,28.543c-8.857,5.5-20.089,7.924-30.442,9.149c-17.306,2.047-34.778,2.158-52.205,2.143        c-21.64-0.018-43.294-0.228-64.886-1.674C195.513,279.396,171.107,275.419,150.18,264.023z"/>
					</g>
					<g>
						<path style="fill:#D7A0FF;" d="M248.081,215.227c0,2.527-3.482,4.575-7.778,4.575c-4.295,0-7.777-2.048-7.777-4.575        c0-2.527,3.482-4.575,7.777-4.575C244.598,210.652,248.081,212.7,248.081,215.227z"/>
						<path style="fill:#FF71B1;" d="M249.592,176.844c-2.047,1.482-5.748-0.137-8.267-3.617c-2.519-3.479-2.902-7.501-0.855-8.983        c2.046-1.482,5.748,0.138,8.267,3.617C251.255,171.341,251.638,175.363,249.592,176.844z"/>
						<path style="fill:#FFD974;" d="M294.736,168.114c-1.787-1.787-0.773-5.697,2.265-8.735c3.037-3.037,6.948-4.051,8.734-2.264        c1.787,1.787,0.773,5.697-2.264,8.735C300.433,168.887,296.522,169.901,294.736,168.114z"/>
						<path style="fill:#FFD974;" d="M330.573,247.261c-1.787-1.787-0.773-5.697,2.264-8.735c3.037-3.037,6.948-4.051,8.734-2.264        c1.787,1.787,0.773,5.697-2.264,8.735C336.27,248.034,332.359,249.048,330.573,247.261z"/>
						<path style="fill:#FFD974;" d="M191.189,217.981c-1.787-1.787-0.773-5.697,2.264-8.735c3.037-3.037,6.948-4.051,8.734-2.264        c1.787,1.787,0.773,5.697-2.264,8.735C196.886,218.754,192.976,219.768,191.189,217.981z"/>
						<path style="fill:#923EFF;" d="M302.995,201.924c1.101-2.274,5.128-2.599,8.994-0.727c3.866,1.872,6.107,5.234,5.005,7.508        c-1.102,2.274-5.128,2.599-8.994,0.727C304.135,207.559,301.894,204.198,302.995,201.924z"/>
						<path style="fill:#923EFF;" d="M197.466,244.014c1.102-2.274,5.128-2.599,8.994-0.727c3.866,1.872,6.107,5.234,5.005,7.508        c-1.102,2.274-5.128,2.599-8.994,0.727C198.606,249.649,196.365,246.288,197.466,244.014z"/>
						<path style="fill:#FF71B1;" d="M276.629,238.083c-1.976-1.575-1.406-5.575,1.271-8.933c2.678-3.359,6.45-4.804,8.426-3.229        c1.975,1.575,1.406,5.575-1.271,8.933S278.605,239.658,276.629,238.083z"/>
					</g>
				</g>
				<g>
					<path style="fill:#FFA5D7;" d="M384.538,297.281c-1.033,9.491-6.516,18.416-14.531,23.579       c-1.107,0.713-2.237,1.352-3.418,1.869c-7.425,3.59-16.227,4.254-24.071,1.672c-18.17-22.817-34.348-45.683-56.083-64.934       c-0.639-0.59-1.279-1.131-1.918-1.696c1.229-0.983,2.582-1.77,3.983-2.434c3.368-1.647,7.155-2.483,10.99-3.024       c1.377-0.197,2.754-0.369,4.13-0.516c11.826-1.303,23.8-2.114,35.578-0.393c11.777,1.697,23.431,6.073,32.209,14.088       C380.211,273.506,385.817,285.455,384.538,297.281z"/>
					<path style="opacity:0.27;fill:#FFA5D7;" d="M366.639,321.549c0,0.393,0,0.787-0.049,1.18       c-7.425,3.59-16.227,4.254-24.071,1.672c-18.17-22.817-34.348-45.683-56.083-64.934c0.492-1.574,1.156-2.975,2.065-4.13       c1.057-1.402,2.434-2.459,4.229-2.951c2.164-0.615,4.426-0.565,6.762-0.074c8.802,1.893,18.194,10.376,23.677,15.318       c5.09,4.573,9.785,9.564,14.457,14.605c6.614,7.13,13.154,14.359,19.596,21.637       C361.77,308.985,366.516,314.738,366.639,321.549z"/>
					<path style="fill:#FFA5D7;" d="M352.821,322.926c-0.098,0.984-0.32,2.065-1.106,2.68c-0.713,0.565-1.721,0.565-2.631,0.565       c-6.688-0.147-13.351-0.369-20.038-0.688c-14.211-0.615-28.398-1.598-42.585-2.901c-13.99-1.303-28.005-2.926-41.527-6.688       c-12.294-3.393-24.39-8.728-33.512-17.629c-6.614-6.442-11.384-14.457-15.145-22.841c-1.426-3.196-3.098-6.614-4.229-10.056       c-0.295-0.86-0.541-1.697-0.738-2.557c-0.565-2.237-0.148-3.786,0.86-5.089c1.008-1.303,2.631-2.361,4.475-3.615       c1.918-1.303,3.91-2.483,5.95-3.541c18.44-9.785,40.864-10.892,61.689-7.819c8.114,1.18,16.203,2.975,23.677,6.319       c8.581,3.811,16.104,9.589,23.554,15.293c8.261,6.319,16.572,12.711,23.505,20.456c6.417,7.204,11.556,15.514,15.121,24.464       C351.862,313.632,353.239,318.254,352.821,322.926z"/>
					<path style="opacity:0.27;fill:#FFA5D7;" d="M329.045,325.483c-14.211-0.615-28.398-1.598-42.585-2.901       c-13.99-1.303-28.005-2.926-41.527-6.688c-12.294-3.393-24.39-8.728-33.512-17.629c-6.614-6.442-11.384-14.457-15.145-22.841       c-1.426-3.196-3.098-6.614-4.229-10.056c-0.147-2.164-0.123-4.352,0.025-6.54c0.024-0.369,0.049-0.738,0.098-1.106       c1.008-1.303,2.631-2.361,4.475-3.615c1.918-1.303,3.91-2.483,5.95-3.541c8.802,4.475,18.071,8.089,27.587,10.745       c7.794,2.188,15.76,3.737,23.604,5.778c25.497,6.639,50.354,18.932,67.122,39.241c3.172,3.811,6.048,7.991,7.302,12.785       C328.75,321.18,328.971,323.319,329.045,325.483z"/>
					<path style="fill:#FFA5D7;" d="M127.681,311.523c-2.437-10.122-4.146-20.742-1.854-30.897       c3.302-14.63,15.42-26.898,30.008-30.379c12.665-3.022,26.067,0.253,37.941,5.594c11.874,5.341,22.735,12.694,34.413,18.452       c21.704,10.703,45.75,15.676,69.665,19.374c8.223,1.271,17.273,2.843,22.517,9.304c1.182,1.456,2.132,3.168,2.341,5.032       c0.604,5.385-4.806,9.378-9.736,11.625c-12.284,5.597-25.733,8.114-39.112,9.912c-21.84,2.935-43.919,4.067-65.945,3.409       c-11.295-0.338-22.577-1.147-33.804-2.427c-10.305-1.175-20.629-3.751-30.952-4.437c-3.071-0.204-6.158,0.266-8.834-1.567       C130.361,321.8,128.735,315.901,127.681,311.523z"/>
				</g>
				<path style="fill:#550E68;" d="M107.071,331.666c15.694-22.709,42.639-37.215,70.236-37.815      c16.153-11.274,36.202-16.495,55.899-16.36s39.306,6.525,55.303,18.02c26.109-12.33,57.355-7.211,82.798,6.441      c12.707,6.818,25.081,16.594,29.051,30.456c-1.317,3.684-3.819,5.68-7.043,7.897c-22.406,15.403-48.852,23.844-75.355,29.917      c-35.784,8.199-72.546,12.457-109.242,11.429c-20.054-0.562-40.365-2.772-58.98-10.252      C131.121,363.919,115.619,349.815,107.071,331.666z"/>
				<g>
					<path style="fill:#FFD974;" d="M408.5,329.907l-47.568,150.66c0,0-9.604,3.13-25.516,6.666       c-0.406,0.096-0.836,0.191-1.266,0.263c-0.597,0.143-1.218,0.263-1.84,0.406c-12.495,2.676-28.407,5.495-46.302,7.263       c-0.406,0.072-0.812,0.096-1.218,0.144c-15.386,1.505-32.182,2.246-49.551,1.505c-0.406-0.024-0.812-0.024-1.194-0.048       c-12.639-0.573-25.54-1.935-38.394-4.372c-0.43-0.072-0.836-0.143-1.242-0.239c-8.482-1.625-16.939-3.727-25.253-6.379       c-0.454-0.143-0.908-0.287-1.362-0.454c-4.396-1.433-8.744-3.01-13.045-4.754l-52.035-142.56l-4.086-11.157       c0,0,13.761-6.594,25.277,10.488c0.119,0.167,0.215,0.335,0.334,0.502c0,0,0.072-0.191,0.263-0.549       c1.027-1.983,5.877-8.792,23.533-9.82c18.444-1.075,27.236,9.891,28.956,12.328c0.239,0.311,0.334,0.478,0.334,0.478       s0.143-0.143,0.406-0.406c2.078-2.031,12.256-10.823,30.079-8.123c17.225,2.604,24.178,8.338,25.803,9.939       c0.311,0.287,0.43,0.43,0.43,0.43s0.095-0.167,0.334-0.478c1.553-2.007,8.863-9.652,29.554-8.075       c20.738,1.601,28.025,9.7,29.578,11.731c0.215,0.311,0.311,0.478,0.311,0.478s0.143-0.167,0.406-0.454       c2.246-2.461,13.929-14.191,31.943-14.191c17.847,0,29.96,7.693,32.445,9.437c0.311,0.215,0.478,0.334,0.478,0.334       s0.167-0.12,0.502-0.334C363.322,338.102,387.213,323.193,408.5,329.907z"/>
					<g>
						<path style="fill:#550E68;" d="M169.156,485.774c-0.454-0.143-0.908-0.287-1.362-0.454L123.69,338.006        c-0.072-0.239,0.024-0.502,0.215-0.669c0.048-0.024,0.096-0.048,0.167-0.072c0.143-0.048,0.287-0.024,0.43,0.024        c0.167,0.072,0.287,0.215,0.31,0.382L169.156,485.774z"/>
						<path style="fill:#550E68;" d="M195.652,492.392c-0.43-0.072-0.836-0.143-1.242-0.239l-17.68-151.806        c-0.024-0.239,0.072-0.454,0.263-0.55c0.072-0.072,0.167-0.096,0.263-0.119c0.191-0.024,0.358,0.048,0.478,0.191        c0.096,0.096,0.167,0.191,0.191,0.335L195.652,492.392z"/>
						<path style="fill:#550E68;" d="M235.24,496.812c-0.406-0.024-0.812-0.024-1.194-0.048l-0.597-154.649        c0-0.167,0.072-0.31,0.167-0.43c0.12-0.095,0.263-0.167,0.43-0.167c0.119,0,0.239,0.048,0.334,0.12        c0.167,0.096,0.263,0.263,0.263,0.454L235.24,496.812z"/>
						<path style="fill:#550E68;" d="M294.419,345.795l-8.41,149.369c-0.406,0.072-0.812,0.096-1.218,0.144l8.434-149.584        c0.024-0.191,0.119-0.334,0.287-0.43c0.096-0.072,0.215-0.12,0.358-0.12c0.143,0,0.263,0.072,0.358,0.143        C294.371,345.436,294.443,345.604,294.419,345.795z"/>
						<path style="fill:#550E68;" d="M359.69,340.992l-24.274,146.24c-0.406,0.096-0.836,0.191-1.266,0.263l24.369-146.717        c0.024-0.072,0.048-0.167,0.096-0.215c0.12-0.191,0.334-0.287,0.573-0.263c0.167,0.024,0.311,0.12,0.406,0.263        C359.666,340.682,359.714,340.825,359.69,340.992z"/>
					</g>
					<path style="opacity:0.45;fill:#FFD974;" d="M332.31,487.901c-39.827,8.529-114.249,18.42-177.561-7.335l-52.035-142.56       c33.161,33.018,68.449,64.029,107.153,90.262C247.592,453.832,288.685,474.856,332.31,487.901z"/>
				</g>
				<polygon style="fill:#D7A0FF;" points="214.328,270.006 218.725,278.916 228.559,280.345 221.443,287.282 223.123,297.076       214.328,292.452 205.532,297.076 207.212,287.282 200.096,280.345 209.93,278.916     "/>
				<polygon style="fill:#923EFF;" points="290.78,304.979 295.178,313.89 305.011,315.318 297.896,322.255 299.576,332.048       290.78,327.424 281.985,332.048 283.664,322.255 276.549,315.318 286.382,313.89     "/>
				<polygon style="fill:#FF71B1;" points="364.108,286.79 363.573,296.713 371.443,302.779 361.841,305.336 358.504,314.696       353.105,306.354 343.172,306.073 349.437,298.36 346.635,288.826 355.906,292.401     "/>
				<polygon style="fill:#FF71B1;" points="143.505,296.561 150.853,303.249 160.529,300.988 156.439,310.044 161.58,318.547       151.703,317.456 145.204,324.973 143.19,315.242 134.033,311.384 142.665,306.462     "/>
				<g>
					<path style="fill:#FFE4E0;" d="M239.134,320.756c0,1.797-1.457,3.253-3.253,3.253c-1.797,0-3.253-1.457-3.253-3.253       c0-1.797,1.456-3.253,3.253-3.253C237.677,317.503,239.134,318.959,239.134,320.756z"/>
					<path style="fill:#FFE4E0;" d="M273.7,293.509c0,1.797-1.456,3.253-3.253,3.253c-1.797,0-3.253-1.457-3.253-3.253       c0-1.797,1.457-3.253,3.253-3.253C272.244,290.256,273.7,291.713,273.7,293.509z"/>
					<path style="fill:#FFE4E0;" d="M328.6,315.063c0,1.797-1.457,3.253-3.253,3.253c-1.797,0-3.253-1.457-3.253-3.253       c0-1.797,1.457-3.253,3.253-3.253C327.143,311.809,328.6,313.266,328.6,315.063z"/>
					<path style="fill:#FFE4E0;" d="M185.048,315.063c0,1.797-1.457,3.253-3.253,3.253c-1.797,0-3.253-1.457-3.253-3.253       c0-1.797,1.457-3.253,3.253-3.253C183.591,311.809,185.048,313.266,185.048,315.063z"/>
				</g>
				<g>
					<path style="fill:#FFA5D7;" d="M388.391,468.064c0,6.809-2.318,13.093-6.164,18.086c-5.424,7-13.905,11.516-23.438,11.516       c-16.342,0-29.578-13.26-29.578-29.602c0-10.584,5.543-19.854,13.905-25.062c4.539-2.867,9.915-4.515,15.673-4.515       C375.131,438.486,388.391,451.722,388.391,468.064z"/>
					<path style="opacity:0.26;fill:#FFA5D7;" d="M382.227,486.15c-5.424,7-13.905,11.516-23.438,11.516       c-16.342,0-29.578-13.26-29.578-29.602c0-10.584,5.543-19.854,13.905-25.062c-3.202,8.028-2.103,17.919,2.628,25.373       c6.355,9.987,17.942,15.768,29.673,17.393C377.663,486.078,379.957,486.245,382.227,486.15z"/>
					<path style="fill:#FFE4E0;" d="M368.849,449.292c-0.812,1.96-0.612,4.234,0.172,6.205c0.784,1.972,2.107,3.681,3.53,5.255       c1.03,1.139,2.145,2.24,3.51,2.945c1.364,0.705,3.023,0.973,4.448,0.4c2.052-0.825,3.132-3.215,3.051-5.424       c-0.081-2.21-1.091-4.271-2.184-6.193C378.976,448.26,372.021,441.641,368.849,449.292z"/>
				</g>
			</g>
		</g>
		<g>
			<path style="fill:#FF9BBF;" d="M305.492,408.426c4.963-10.261,15.456-16.998,26.34-20.382c3.159,4.696,5.633,9.486,8.792,14.182     c-8.785,2.983-16.583,8.8-21.947,16.371C314.749,413.684,310.779,411.833,305.492,408.426z"/>
			<g>
				<path style="fill:#923EFF;" d="M440.296,220.754c-2.086,11.205-10.436,20.467-20.044,26.598      c-4.284-3.698-7.932-7.668-12.217-11.366c7.69-5.191,13.682-12.856,16.862-21.572      C429.981,218.12,434.298,218.86,440.296,220.754z"/>
				<path style="fill:#FFEFD7;" d="M398.198,364.901c10.176-5.134,22.604-4.108,33.304-0.183c-0.344,5.649-1.29,10.957-1.634,16.606      c-8.79-2.969-18.518-3.087-27.378-0.333C402.356,374.701,400.328,370.82,398.198,364.901z"/>
				<path style="fill:#FFEFD7;" d="M54.175,279.949c2.157-11.192,10.565-20.401,20.212-26.47c4.26,3.725,7.883,7.718,12.144,11.443      c-7.723,5.142-13.763,12.769-16.999,21.464C64.472,282.65,60.161,281.882,54.175,279.949z"/>
				<path style="fill:#FFA5D7;" d="M181.739,70.475c10.609-4.166,22.888-1.99,33.177,2.912c-0.868,5.593-2.302,10.79-3.17,16.383      c-8.476-3.773-18.151-4.795-27.229-2.876C184.968,80.62,183.309,76.566,181.739,70.475z"/>
				<path style="fill:#FFD974;" d="M125.675,243.49l8.729,3.191c0.375,0.137,0.357,0.674-0.026,0.786l-9.069,2.643      c-1.011,0.295-1.821,1.052-2.183,2.041l-3.191,8.729c-0.137,0.375-0.674,0.357-0.786-0.026l-2.643-9.069      c-0.295-1.011-1.052-1.821-2.041-2.183l-8.642-3.16c-0.383-0.14-0.354-0.692,0.042-0.79l9.192-2.279      c1.116-0.277,2.009-1.113,2.357-2.209l2.813-8.842c0.124-0.389,0.677-0.382,0.791,0.01l2.616,8.976      C123.928,242.318,124.686,243.129,125.675,243.49z"/>
				<path style="fill:#FFD974;" d="M439.986,295.43l8.729,3.191c0.375,0.137,0.357,0.674-0.026,0.786l-9.069,2.643      c-1.011,0.295-1.821,1.053-2.183,2.041l-3.191,8.729c-0.137,0.375-0.674,0.357-0.786-0.026l-2.643-9.069      c-0.295-1.011-1.053-1.821-2.041-2.183l-8.642-3.16c-0.383-0.14-0.354-0.692,0.042-0.79l9.192-2.279      c1.116-0.277,2.009-1.113,2.357-2.209l2.813-8.842c0.124-0.389,0.677-0.383,0.792,0.01l2.616,8.977      C438.239,294.258,438.997,295.068,439.986,295.43z"/>
				<path style="fill:#FFD974;" d="M93.557,351.405l8.729,3.191c0.375,0.137,0.357,0.674-0.026,0.786l-9.069,2.643      c-1.011,0.295-1.821,1.053-2.182,2.041l-3.191,8.729c-0.137,0.376-0.674,0.358-0.786-0.026l-2.643-9.069      c-0.295-1.011-1.052-1.821-2.041-2.183l-8.642-3.16c-0.383-0.14-0.354-0.692,0.042-0.79l9.192-2.279      c1.116-0.277,2.009-1.113,2.357-2.209l2.813-8.842c0.124-0.389,0.677-0.383,0.791,0.01l2.616,8.977      C91.81,350.233,92.568,351.043,93.557,351.405z"/>
				<path style="fill:#FFD974;" d="M378.58,177.904l8.729,3.191c0.375,0.137,0.357,0.674-0.026,0.786l-9.07,2.643      c-1.011,0.295-1.821,1.053-2.183,2.041l-3.191,8.729c-0.137,0.375-0.674,0.357-0.786-0.026l-2.643-9.069      c-0.295-1.011-1.053-1.821-2.041-2.183l-8.642-3.16c-0.383-0.14-0.354-0.692,0.043-0.79l9.192-2.279      c1.116-0.277,2.009-1.113,2.357-2.209l2.813-8.842c0.124-0.389,0.677-0.383,0.791,0.01l2.616,8.977      C376.833,176.732,377.591,177.542,378.58,177.904z"/>
			</g>
		</g>
	</g>
</g>















</svg>
