<?xml version="1.0" encoding="UTF-8"?>
<!-- Generator: Adobe Illustrator 24.1.1, SVG Export Plug-In . SVG Version: 6.00 Build 0)  -->
<svg xmlns="http://www.w3.org/2000/svg" xmlns:xlink="http://www.w3.org/1999/xlink" version="1.1" id="Capa_1" x="0px" y="0px" viewBox="0 0 512 512" style="enable-background:new 0 0 512 512;" xml:space="preserve" width="512" height="512">
<g>
	<path style="fill:#FFFFFF;" d="M509.947,405.168c-0.127-2.038-0.672-4.791-2.34-7.687c2.841-29.209,4.464-62.866-1.96-96.077   c-3.392-17.54-9.128-34.257-16.816-49.16c5.248-2.005,8.975-7.087,8.975-13.04v-2.326c0-7.708-6.254-13.955-13.962-13.955   c-4.328,0-8.643,0.799-12.767,2.329c-4.725-5.682-9.797-10.835-15.187-15.43c10.39-2.178,21.939-5.851,31.859-14.76   c8.857-7.955,15.23-18.099,18.433-29.338c4.372-15.338,2.218-32.452-5.909-46.953c-7.844-13.998-20.215-23.95-34.836-28.023   c-4.843-1.349-9.881-2.032-14.974-2.032c-16.787,0-32.605,7.286-43.154,19.473c-4.873-8.139-12.168-14.006-21.79-17.5   c-5.873-2.132-12.07-3.214-18.418-3.214c-10.623,0-20.92,3.078-29.576,8.616c-20.143-23.733-49.04-40.846-81.194-47.729   c-11.251-2.408-23.014-3.629-34.963-3.629c-22.897,0-46.264,4.353-69.454,12.936c-31.14,11.527-58.641,29.606-79.53,52.287   c-19.912,21.618-35.717,49.197-46.975,81.971C4.525,252.724,3.751,321.879,22.903,384.015C11.417,387.725,0,394.059,0,406.182   c0,1.263,0.152,2.985,0.741,4.931c-0.118,0.865-0.163,1.671-0.163,2.401c0,16.502,18.795,23.634,47.016,29.266   c22.449,4.48,53.731,8.16,90.683,10.674c8.78,6.8,20.091,10.887,32.103,11.562c18.318,1.028,46.769,2.251,78.291,2.252   c0.004,0,0.002,0,0.007,0c30.944,0,58.229-1.196,81.091-3.554c9.428-0.974,18.469-4.171,25.939-9.118   c41.895-2.297,77.672-6.003,103.678-10.747c31.582-5.76,52.614-13.124,52.614-30.335C512,411.173,511.547,408.24,509.947,405.168z"/>
	<path style="fill:#923EFF;" d="M54.14,416.952C22.178,349.038,17.788,267.743,42.239,196.56   c9.731-28.329,24.002-55.295,44.04-77.05c20.373-22.12,46.318-38.367,74.11-48.654c30.838-11.415,64.581-15.613,96.651-8.748   c32.07,6.864,62.265,25.336,81.072,53.107c13.34,19.698,21.021,43.749,37.923,60.253c18.239,17.809,44.251,23.951,65.264,38.104   c29.54,19.896,47.354,54.791,54.276,90.58s4.12,72.783-0.031,109.029c-54.701,17.363-112.439,24.928-169.521,28.907   C233.321,448.552,142.985,445.123,54.14,416.952z"/>
	<g>
		<g>
			<path style="fill:#FFF1EF;" d="M135.339,429.767l13.914,11.779c6.676,5.652,15.796,9.088,25.54,9.635     c30.488,1.71,100.739,4.571,157.174-1.25c11.569-1.193,21.803-6.533,27.879-14.426l10.446-13.568L135.339,429.767z"/>
			<g>
				<ellipse style="fill:#FFEFD7;" cx="259.199" cy="413.613" rx="241.034" ry="29.702"/>
				<ellipse style="opacity:0.51;fill:#FFEFD7;" cx="260.642" cy="413.613" rx="241.034" ry="29.702"/>
			</g>
			<ellipse style="fill:#FFF1EF;" cx="258.621" cy="406.281" rx="241.034" ry="26.844"/>
			<path style="fill:#D7A0FF;" d="M256.475,422.153c-104.585,0-212.763-7.256-212.763-19.399s108.178-19.4,212.763-19.4     s212.764,7.257,212.764,19.4S361.06,422.153,256.475,422.153z M256.475,384.354c-126.671,0-211.763,9.515-211.763,18.4     s85.092,18.399,211.763,18.399c126.672,0,211.764-9.514,211.764-18.399S383.147,384.354,256.475,384.354z"/>
			<ellipse style="fill:#FFF1EF;" cx="386.865" cy="402.933" rx="100.559" ry="7.126"/>
		</g>
		<g>
			<path style="fill:#FFEFD7;" d="M343.445,336.959c0.023,34.47-1.326,61.218-1.326,61.218     c-28.748,7.141-63.614,10.513-98.526,11.676c-84.175,2.861-168.699-6.931-168.699-6.931l-1.349-20.933l-1.233-19.119     l-0.047-0.558l-0.651-10.118l-0.163-2.349l-1.047-16.281l-0.349-5.536l-1.117-17.072l-0.093-1.489l-0.488-7.373l-0.023-0.605     l-0.768-11.723l-0.163-2.535l-1.21-18.468l-2-30.911c22.12-12.188,165.42-20.584,233.104-23.934     c21.469-1.047,35.331-1.605,35.331-1.605c3.559,12.56,6.001,28.725,7.675,46.286c0.093,1.07,0.186,2.117,0.279,3.186     c1.302,14.7,2.047,30.237,2.442,45.379c0.116,3.815,0.186,7.629,0.256,11.374c0.023,1.209,0.046,2.442,0.07,3.652     C343.421,327.236,343.445,332.167,343.445,336.959z"/>
			<g>
				<g>
					<path style="fill:#FFE4E0;" d="M332.629,314.444c0,0-95.619,11.885-151.441,14.258c-46.1,1.954-95.386,0.046-111.133-0.674       l-1.117-17.072c19.468,1.558,71.849,2.046,127.695-1.256c70.08-4.163,135.39-13.071,135.39-13.071L332.629,314.444z"/>
					<path style="opacity:0.52;fill:#FFE4E0;" d="M343.445,336.959c0.023,34.47-1.326,61.218-1.326,61.218       c-28.748,7.141-63.614,10.513-98.526,11.676c-84.175,2.861-168.699-6.931-168.699-6.931l-1.349-20.933       c63.986-6.14,127.693,21.631,191.656,15.235c16.165-1.605,41.24-0.337,51.985-12.501c12.979-14.723,5.186-42.088,4.791-61.718       c-0.512-24.19-1-48.379-1.512-72.569c-0.047-2.07-0.256-4.489-2-5.652c-3.791-2.489-7.164,3.815-11.211,5.861       c-4.536,2.303-9.909-1.396-12.769-5.629c-2.838-4.21-4.768-9.374-9.025-12.141c-0.814-0.512-1.698-0.93-2.652-0.954       c-1.744-0.023-3.21,1.326-4.256,2.745c-9.071,12.374-0.349,33.54-12.351,43.076c-2.651,2.093-5.978,3.21-9.327,3.675       c-12.42,1.721-25.492-6.07-29.888-17.793c-1.512-4.07-2.233-8.769-5.466-11.676c-5.35-4.791-14.676-1.302-17.91,5.094       c-2.349,4.628-2.396,10.118-4.559,14.863c-4.326,9.513-16.886,13.49-26.748,10.025c-9.862-3.466-16.816-12.863-19.538-22.957       c-0.651-2.349-1.186-4.908-3.024-6.489c-3.256-2.814-8.606-0.651-10.978,2.931c-2.372,3.559-2.838,8.025-4.14,12.118       c-2.512,7.862-8.536,14.63-16.258,17.537c-7.722,2.907-16.979,1.651-23.329-3.582c-5.21-4.303-9.094-11.304-15.793-12.072       c-2.489-0.279-4.977,0.395-7.466,0.325c-2.093-0.046-3.954-0.395-5.582-0.977l-2-30.911       c22.12-12.188,165.42-20.584,233.104-23.934c21.469-1.047,35.331-1.605,35.331-1.605c3.559,12.56,6.001,28.725,7.675,46.286       c0.093,1.07,0.186,2.117,0.279,3.186c1.302,14.7,2.047,30.237,2.442,45.379c0.116,3.815,0.186,7.629,0.256,11.374       c0.023,1.209,0.046,2.442,0.07,3.652C343.421,327.236,343.445,332.167,343.445,336.959z"/>
					<path style="fill:#FFA5D7;" d="M336.29,318.717c-88.23,12.578-177.782,16.345-266.875,13.716       c-2.518-0.074-4.535-2.142-4.529-4.662c0.002-1.046,0.024-2.1,0.029-3.147c0.012-2.607,2.135-4.702,4.741-4.649       c87.586,1.794,175.811,3.22,261.974-12.47C332.553,311.64,335.776,314.513,336.29,318.717z"/>
					<g>
						<path style="opacity:0.62;fill:#FFE4E0;" d="M292.601,278.065c-2.667-2.667-3.748-5.91-2.414-7.244        c1.334-1.334,4.576-0.253,7.244,2.414c2.667,2.667,3.748,5.91,2.414,7.244C298.511,281.813,295.268,280.732,292.601,278.065z"/>
						<path style="opacity:0.62;fill:#FFE4E0;" d="M292.601,344.577c-2.667-2.667-3.748-5.91-2.414-7.244        c1.334-1.333,4.576-0.252,7.244,2.415c2.667,2.667,3.748,5.91,2.414,7.244C298.511,348.325,295.268,347.244,292.601,344.577z"/>
						<path style="opacity:0.62;fill:#FFE4E0;" d="M135.032,349.723c-2.667-2.667-3.748-5.91-2.414-7.244        c1.334-1.334,4.576-0.252,7.244,2.415c2.667,2.667,3.748,5.91,2.414,7.244C140.942,353.472,137.699,352.391,135.032,349.723z"/>
						<path style="opacity:0.62;fill:#FFE4E0;" d="M235.195,344.577c-2.667-2.667-3.748-5.91-2.415-7.244        c1.334-1.333,4.577-0.252,7.244,2.415c2.667,2.667,3.748,5.91,2.414,7.244C241.105,348.325,237.862,347.244,235.195,344.577z"/>
						<path style="opacity:0.62;fill:#FFE4E0;" d="M147.305,278.065c-2.667-2.667-3.748-5.91-2.414-7.244        c1.333-1.334,4.576-0.253,7.244,2.414c2.667,2.667,3.748,5.91,2.414,7.244C153.215,281.813,149.972,280.732,147.305,278.065z"/>
						<path style="opacity:0.62;fill:#FFE4E0;" d="M94.056,356.256c-2.667-2.667-3.748-5.91-2.414-7.244        c1.333-1.334,4.576-0.253,7.244,2.414c2.667,2.667,3.748,5.91,2.414,7.244C99.966,360.004,96.723,358.923,94.056,356.256z"/>
						<path style="opacity:0.62;fill:#FFE4E0;" d="M258.176,297.003c3.528-1.335,6.929-0.987,7.596,0.777        c0.667,1.764-1.651,4.276-5.179,5.611c-3.528,1.335-6.928,0.987-7.596-0.777C252.33,300.85,254.648,298.338,258.176,297.003z"/>
						<path style="opacity:0.62;fill:#FFE4E0;" d="M258.176,374.6c3.528-1.335,6.929-0.987,7.596,0.777        c0.667,1.764-1.651,4.276-5.179,5.611c-3.528,1.335-6.928,0.987-7.596-0.777C252.33,378.447,254.648,375.935,258.176,374.6z"/>
						<path style="opacity:0.62;fill:#FFE4E0;" d="M150.491,374.6c3.528-1.335,6.928-0.987,7.596,0.777        c0.667,1.764-1.651,4.276-5.179,5.611c-3.528,1.335-6.928,0.987-7.596-0.777C144.644,378.447,146.963,375.935,150.491,374.6z"/>
						<path style="opacity:0.62;fill:#FFE4E0;" d="M178.996,293.836c3.528-1.335,6.928-0.987,7.596,0.777        c0.667,1.764-1.651,4.276-5.179,5.611c-3.528,1.335-6.929,0.987-7.596-0.777C173.149,297.682,175.468,295.171,178.996,293.836        z"/>
						<path style="opacity:0.62;fill:#FFE4E0;" d="M191.664,355.201c3.528-1.335,6.928-0.987,7.596,0.777        c0.667,1.764-1.651,4.276-5.179,5.61c-3.528,1.335-6.928,0.987-7.596-0.777C185.818,359.047,188.137,356.535,191.664,355.201z        "/>
						<path style="opacity:0.62;fill:#FFE4E0;" d="M210.352,273.236c2.667-2.667,5.91-3.748,7.244-2.414        c1.334,1.333,0.253,4.576-2.414,7.244c-2.667,2.667-5.91,3.748-7.244,2.414C206.604,279.146,207.685,275.903,210.352,273.236z        "/>
						<path style="opacity:0.62;fill:#FFE4E0;" d="M84.851,293.031c2.667-2.667,5.91-3.748,7.244-2.414s0.253,4.576-2.414,7.244        c-2.667,2.667-5.91,3.748-7.244,2.414C81.103,298.942,82.184,295.698,84.851,293.031z"/>
					</g>
				</g>
				<path style="fill:#FFA5D7;" d="M345.77,224.942c-1.116,6.978-6.396,15.374-14.374,10.443c-1.535-0.954-2.745-2.303-3.791-3.745      c-2.349-3.21-6.908-7.187-10.955-5.396c-3.21,1.419-4.001,5.466-5.768,8.49c-3.791,6.443-13.979,7.838-19.352,2.628      c-4.14-4.001-6.955-11.49-12.886-9.815c-1.768,0.488-3.186,1.791-4.117,3.372c-3.745,6.396-4.233,13.909-5.908,21.05      c-2.047,8.885-6.699,18.212-17.979,18.491c-2.21,0.07-4.443-0.302-6.536-1.023c-8.071-2.768-13.514-9.466-17.677-16.584      c-2.14-3.675-4.047-7.536-6.908-10.676c-2.861-3.14-7.559-5.14-11.792-4.721c-12.49,1.186-7.141,33.842-29.097,38.587      c-21.98,4.745-21.98-32.656-33.865-36.215c-11.862-3.559-16.026,20.771-29.679,27.306c-13.677,6.536-21.375-8.908-27.911-14.258      c-6.536-5.326-13.677,9.513-25.539,2.977c-8.071-4.419-3.768-17.793-1.372-24.259c2.024-5.489,4.884-10.118,8.373-14.049      c4.14-4.675,9.025-8.164,14.328-10.909c12.397-6.35,27.167-8.443,40.773-11.141c30.633-6.047,61.846-9.001,92.944-11.211      c32.051-2.256,64.242-2.838,96.34-1.442c2.954,0.116,5.861,0.628,8.606,1.442c12.653,3.791,22.538,14.49,24.306,27.981      C346.492,216.452,346.445,220.732,345.77,224.942z"/>
				<path style="opacity:0.3;fill:#FFA5D7;" d="M321.627,184.285c-26.725,11.932-57.683,13.793-87.315,15.816      c-50.403,3.466-100.945,8.606-151.348,6.536c12.397-6.35,27.167-8.443,40.773-11.141c30.633-6.047,61.846-9.001,92.944-11.211      c32.051-2.256,64.242-2.838,96.34-1.442C315.975,182.959,318.883,183.471,321.627,184.285z"/>
				<path style="fill:#FFA5D7;" d="M315.493,224.88c1.572-1.118,3.92-0.196,4.991,1.409c1.071,1.605,1.209,3.636,1.314,5.562      c2.658,48.842,5.07,97.697,7.236,146.563c0.342,7.72-4.763,14.738-12.282,16.518c-8.135,1.926-16.643,2.565-25.075,3.34      c-31.468,2.891-63.019,5.785-94.612,5.085c-42.127-0.933-83.885-8.247-126-9.828c-2.745-0.103-5.407,1.537-6.183,4.171      c-1.408,4.782,4.193,7.166,8.564,7.981c73.246,13.665,148.526,16.371,222.565,8c15.78-1.784,31.919-4.215,46.266-10.718      c5.496-2.491,9.089-7.945,9.371-13.973c0.76-16.256,0.175-31.985-0.047-48.542c-0.232-17.272-0.463-34.543-0.695-51.815      c-0.299-22.322-0.602-44.695-3.708-66.827c-0.854-6.088-2.555-12.05-5.397-17.501c-0.94-1.803-2.095-3.571-3.827-4.621      c-3.407-2.065-7.88-0.712-11.241,1.426C320.694,204.951,317.092,217.906,315.493,224.88z"/>
				<g>
					<path style="fill:#FFA368;" d="M143.043,221.545c-2.989,2.3-6.345,2.953-7.495,1.458c-1.15-1.495,0.341-4.571,3.33-6.871       c2.989-2.3,6.345-2.953,7.495-1.458C147.523,216.169,146.032,219.245,143.043,221.545z"/>
					<path style="fill:#FFA368;" d="M331.438,205.477c0,3.772-1.529,6.829-3.415,6.829s-3.415-3.058-3.415-6.829       c0-3.772,1.529-6.83,3.415-6.83S331.438,201.706,331.438,205.477z"/>
					<path style="fill:#FFA368;" d="M249.045,247.081c-2.989,2.3-6.345,2.953-7.495,1.459c-1.15-1.495,0.341-4.571,3.33-6.871       c2.989-2.3,6.345-2.953,7.495-1.458C253.525,241.704,252.034,244.781,249.045,247.081z"/>
					<path style="fill:#FFD974;" d="M168.238,249.56c-2.667-2.667-3.748-5.91-2.414-7.244c1.333-1.334,4.576-0.252,7.244,2.414       c2.667,2.667,3.748,5.91,2.414,7.244C174.148,253.308,170.905,252.227,168.238,249.56z"/>
					<path style="fill:#FFD974;" d="M295.917,216.008c-2.667-2.667-3.748-5.91-2.415-7.244c1.334-1.334,4.577-0.253,7.244,2.414       c2.667,2.667,3.748,5.91,2.414,7.244C301.827,219.756,298.584,218.675,295.917,216.008z"/>
					<path style="fill:#FF71B1;" d="M108.259,249.56c-2.667-2.667-3.748-5.91-2.415-7.244c1.334-1.334,4.577-0.252,7.244,2.414       c2.667,2.667,3.748,5.91,2.415,7.244C114.169,253.308,110.926,252.227,108.259,249.56z"/>
					<path style="fill:#FF71B1;" d="M249.893,219.571c-2.667-2.667-3.748-5.91-2.414-7.244c1.334-1.334,4.576-0.252,7.244,2.415       c2.667,2.667,3.748,5.91,2.414,7.244C255.803,223.319,252.56,222.238,249.893,219.571z"/>
					<path style="fill:#923EFF;" d="M201.441,219.984c-2.451,2.866-5.601,4.196-7.034,2.97c-1.433-1.226-0.607-4.543,1.844-7.409       c2.452-2.866,5.601-4.196,7.034-2.97C204.719,213.8,203.893,217.118,201.441,219.984z"/>
					<path style="fill:#923EFF;" d="M89.407,220.595c3.761,0.288,6.693,2.045,6.549,3.925c-0.144,1.88-3.309,3.172-7.07,2.884       c-3.761-0.287-6.693-2.045-6.549-3.925C82.481,221.599,85.646,220.308,89.407,220.595z"/>
				</g>
			</g>
			<g>
				<g>
					<path style="fill:#FFF1EF;" d="M236.5,140.072c-2.14,8.373-8.676,14.886-15.7,19.887c-6.955,4.954-14.746,8.885-23.12,10.63       c-8.35,1.744-17.328,1.163-25.027-2.489c-7.513-3.582-14.072-12.49-19.538-18.747c-0.372-2.605-0.209-5.257,0.372-7.815       c0.861-3.815,2.675-7.443,5.14-10.467c4.14-5.071,10.002-8.56,16.258-10.513c5.21-1.605,10.746-2.21,15.63-4.582       c7.094-3.466,12.188-10.676,13.048-18.514c8.932,4.024,18.491,8.187,25.004,15.514c2.628,2.977,4.838,6.42,6.373,10.118       C237.175,128.512,237.942,134.42,236.5,140.072z"/>
					<path style="opacity:0.66;fill:#FFE4E0;" d="M236.5,140.072c-2.14,8.373-8.676,14.886-15.7,19.887       c-6.955,4.954-14.746,8.885-23.12,10.63c-8.35,1.744-17.328,1.163-25.027-2.489c-7.513-3.582-14.072-12.49-19.538-18.747       c-0.372-2.605-0.209-5.257,0.372-7.815c1.535-0.884,3.326-1.605,5.373-2.163c8.908-2.396,18.305-0.116,27.283,0.721       c9.443,0.884,19.166,0.302,28.144-2.768c8.024-2.768,15.444-7.582,20.654-14.235C237.175,128.512,237.942,134.42,236.5,140.072       z"/>
					<path style="fill:#FFF1EF;" d="M269.97,169.455c-0.768,5.512-3.721,10.746-8.234,14.025       c-26.515,1.512-53.984-11.769-74.429-28.725c1.721-2.512,3.768-4.768,6.047-6.745c11.048-9.676,27.725-12.955,41.378-7.327       c3.466,1.442,6.768,3.396,10.374,4.419c3.442,0.977,7.117,1.117,10.536,2.163c7.257,2.21,13.002,8.745,14.258,16.212       C270.226,165.455,270.249,167.478,269.97,169.455z"/>
					<path style="opacity:0.66;fill:#FFE4E0;" d="M269.97,169.455c-0.768,5.512-3.721,10.746-8.234,14.025       c-26.515,1.512-53.984-11.769-74.429-28.725c1.721-2.512,3.768-4.768,6.047-6.745c5.745-0.744,12.397,1.21,17.142,2.954       c16.025,5.885,31.446,14.537,48.472,15.816C262.76,167.059,267.086,167.199,269.97,169.455z"/>
					<g>
						<g>
							<g>
								<path style="fill:#FF71B1;" d="M270.28,152.819c0,15.584-12.63,28.214-28.213,28.214c-0.209,0-0.442,0-0.651-0.023          c-15.281-0.326-27.562-12.816-27.562-28.19c0-15.584,12.63-28.213,28.214-28.213c7.141,0,13.653,2.652,18.631,7.024          C266.582,136.793,270.28,144.376,270.28,152.819z"/>
								<path style="opacity:0.32;fill:#923EFF;" d="M270.28,152.819c0,15.584-12.63,28.214-28.213,28.214          c-0.209,0-0.442,0-0.651-0.023c8.396-4.117,15.328-11.281,19.026-19.91c3.396-7.931,4.001-17.002,1.884-25.353          c-0.256-0.977-1-2.512-1.628-4.117C266.582,136.793,270.28,144.376,270.28,152.819z"/>
							</g>
							<path style="fill:#FFEFD7;" d="M220.896,140.058c-0.368,1.048-0.603,2.173-0.421,3.268c0.182,1.095,0.842,2.155,1.862,2.594         c1.553,0.667,3.308-0.241,4.684-1.221c2.636-1.879,5.09-4.283,6.041-7.376c0.362-1.176,0.459-2.556-0.272-3.546         C229.271,129.012,221.965,137.014,220.896,140.058z"/>
							<path style="fill:#370644;" d="M250.888,128.556c-1.55-0.453-3.471-0.768-4.894-0.079c-0.755,0.366-1.391,1.101-1.386,1.939         c0.007,1.099,1.043,1.893,2.033,2.37c1.489,0.718,3.128,1.137,4.78,1.159c0.937,0.013,1.941-0.13,2.637-0.757         c1.996-1.799-0.909-3.986-2.553-4.377"/>
						</g>
						<g>
							<path style="fill:#4DC764;" d="M242.049,181.718c3.938-11.539,15.4-19.025,27.122-22.376         c9.327-2.666,19.238-3.266,28.819-1.746c-1.688,9.225-9.662,16.854-18.287,20.538c-8.624,3.683-18.293,4.113-27.651,3.506         C248.559,181.413,245.327,180.492,242.049,181.718z"/>
							<path style="fill:#370644;" d="M241.929,182.284c-0.127,0-0.255-0.048-0.353-0.146c-0.196-0.194-0.197-0.511-0.002-0.707         c3.097-3.118,6.622-5.768,10.475-7.878c4.084-2.236,8.511-3.843,12.792-5.397l3.664-1.334         c9.752-3.559,19.837-7.24,29.757-9.636c0.267-0.067,0.538,0.1,0.603,0.369c0.065,0.268-0.1,0.539-0.369,0.603         c-9.864,2.383-19.922,6.054-29.649,9.604l-3.666,1.335c-4.246,1.541-8.636,3.134-12.653,5.333         c-3.769,2.063-7.217,4.656-10.247,7.706C242.186,182.234,242.058,182.284,241.929,182.284z"/>
						</g>
					</g>
					<path style="fill:#FFF1EF;" d="M265.678,182.602c-1.169-7.766-8.384-13.372-15.886-15.694       c-7.502-2.321-15.513-2.175-23.294-3.236c-6.36-0.868-12.608-2.555-18.54-5.009c-9.561-3.954-18.381-9.908-28.473-12.188       c-12.894-2.913-27.111,0.857-36.868,9.774c-9.757,8.918-14.787,22.74-13.043,35.842c24.921,4.157,49.805,5.601,75.07,5.466       C225.876,197.445,246.62,191.961,265.678,182.602z"/>
				</g>
				<g>
					<path style="fill:#4DC764;" d="M164.365,197.546c-3.937-11.539-15.4-19.025-27.122-22.376       c-9.327-2.666-19.238-3.266-28.819-1.746c1.687,9.225,9.662,16.854,18.286,20.538c8.625,3.683,18.293,4.113,27.651,3.506       C157.854,197.242,161.086,196.32,164.365,197.546z"/>
					<path style="fill:#370644;" d="M164.485,198.112c-0.128,0-0.257-0.049-0.354-0.147c-3.03-3.05-6.478-5.642-10.247-7.706       c-4.016-2.199-8.407-3.792-12.653-5.333l-3.662-1.334c-9.728-3.55-19.786-7.221-29.652-9.604       c-0.269-0.064-0.434-0.335-0.369-0.603s0.339-0.436,0.603-0.369c9.921,2.396,20.006,6.077,29.76,9.637l3.66,1.333       c4.282,1.554,8.71,3.161,12.793,5.397c3.854,2.109,7.378,4.76,10.476,7.877c0.195,0.196,0.194,0.513-0.002,0.707       C164.74,198.064,164.612,198.112,164.485,198.112z"/>
				</g>
				<g>
					<path style="fill:#4DC764;" d="M163.347,196.977c-4.831-11.194-1.365-24.438,5.071-34.793       c5.121-8.239,12.062-15.339,20.182-20.646c4.944,7.969,4.158,18.977,0.241,27.498c-3.917,8.521-10.793,15.331-18.135,21.166       C167.967,192.38,164.953,193.867,163.347,196.977z"/>
					<path style="fill:#370644;" d="M163.303,197.606c-0.008,0-0.016,0-0.023,0c-0.276-0.013-0.489-0.247-0.477-0.522       c0.202-4.39,1.034-8.721,2.472-12.872c1.524-4.398,3.726-8.563,5.855-12.59l1.819-3.45c4.836-9.186,9.837-18.685,15.578-27.121       c0.157-0.228,0.467-0.288,0.695-0.132c0.229,0.156,0.288,0.467,0.132,0.695c-5.709,8.39-10.697,17.863-15.521,27.024       l-1.82,3.452c-2.112,3.994-4.295,8.124-5.794,12.449c-1.407,4.061-2.221,8.296-2.418,12.59       C163.79,197.397,163.569,197.606,163.303,197.606z"/>
				</g>
			</g>
		</g>
		<g>
			<g>
				<path style="fill:#FFA368;" d="M363.968,338.895c1.188,0.792-7.126,16.628-5.938,27.317c1.188,10.689,9.502,28.109,9.502,28.109      s-11.877,10.689-9.897,11.877c1.979,1.188,22.368-3.959,21.973-6.73c-0.396-2.771-1.782-9.106,0.198-12.669      c1.98-3.563,18.212-26.525,18.212-26.525L363.968,338.895z"/>
				<path style="fill:#370644;" d="M362.78,343.645c0,0,16.826,13.857,28.307,16.628c0,0-19.993,3.167-31.87-7.918"/>
				<path style="fill:#FFA368;" d="M465.247,343.417c-7.213,0-14.517-3.553-18.396-9.67l1.689-1.07      c5.01,7.9,16.332,11.077,24.721,6.935c8.39-4.143,12.751-15.062,9.524-23.844c-1.323-3.601-3.736-6.801-6.069-9.896      l-0.947-1.261c-6.728-9.015-10.873-16.858-13.044-24.686c-2.769-9.979-2.097-19.831,1.89-27.743      c4.535-8.998,13.721-15.042,22.86-15.042c0.003,0,0.005,0,0.008,0l-0.001,2c-0.002,0-0.005,0-0.007,0      c-8.403,0-16.871,5.602-21.074,13.943c-3.763,7.467-4.384,16.81-1.75,26.308c2.104,7.581,6.146,15.215,12.72,24.025l0.941,1.252      c2.421,3.212,4.925,6.532,6.35,10.411c3.563,9.696-1.252,21.753-10.516,26.326C471.378,342.771,468.32,343.417,465.247,343.417z      "/>
				<path style="fill:#FFA368;" d="M454.198,346.142c-2.163,3.768-4.675,7.373-7.792,10.397      c-7.745,7.536-18.886,10.909-29.702,10.816c-10.792-0.116-21.352-3.419-31.237-7.769c-12.56-5.559-25.26-14.025-29.214-27.167      c-2.303-7.676-1.256-15.909,0.186-23.794c4.443-24.352,12.746-48.03,24.469-69.824c1.884-3.535,3.884-7.024,5.954-10.443      c1.326-2.21,4.815-2.652,7.373-2.931c3.652-0.395,7.327-0.791,11.002-1.186c3.791-0.419,7.582-0.814,11.374-1.233      c0.233,0.419,0.465,0.861,0.721,1.279c0.163,0.302,0.326,0.628,0.488,0.93c11.885,21.561,23.771,43.146,35.657,64.707      c2.721,4.954,5.466,9.955,7.117,15.351C464.665,318.858,461.245,333.837,454.198,346.142z"/>
				<path style="fill:#370644;" d="M417.821,225.217c-10.467,8.28-23.585,13.118-36.912,13.583      c1.884-3.535,3.884-7.024,5.954-10.443c1.326-2.21,4.815-2.652,7.373-2.931c3.652-0.395,7.327-0.791,11.002-1.186      c4.07,0.047,8.164,0.093,12.095,0.047C417.495,224.589,417.658,224.914,417.821,225.217z"/>
				<path style="fill:#FFA368;" d="M424.937,362.649c0,0,10.293,25.338,10.293,26.921c0,1.583-1.98,5.938-0.396,8.314      c1.584,2.375,21.775,5.938,21.775,4.355c0-1.583-6.73-8.71-6.73-10.689c0-1.979,2.771-44.737,2.771-44.737L424.937,362.649z"/>
				<path style="fill:none;" d="M407.703,272.317c0.047-0.093,0.093-0.186,0.163-0.233c0.279-0.232,0.744-0.139,0.977,0.14      c0.023,0.023,0.046,0.046,0.07,0.093"/>
				<g>
					<g>
						<g>
							<path style="fill:#FFD974;" d="M324.992,252.296c-6.424-2.945-14.011-3.248-20.649-0.826c0.55-1.746,0.808-3.805,1.358-5.551         C312.457,245.997,319.605,248.215,324.992,252.296z"/>
							<path style="fill:#FFD974;" d="M325.283,252.696c1.594-6.884,5.99-13.076,11.964-16.85c-1.718-0.632-3.506-1.686-5.224-2.318         C327.956,238.926,325.344,245.939,325.283,252.696z"/>
							<path style="fill:#FFD974;" d="M325.036,252.411c-1.832-6.825-6.44-12.86-12.541-16.426c1.695-0.691,3.446-1.806,5.141-2.497         C321.887,238.741,324.741,245.66,325.036,252.411z"/>
							<path style="fill:#FFD974;" d="M324.881,252.535c-6.795,1.941-12.756,6.645-16.223,12.802         c-0.718-1.684-1.861-3.416-2.579-5.1C311.263,255.902,318.135,252.938,324.881,252.535z"/>
						</g>
						<g>
							<path style="fill:#FF71B1;" d="M405.312,301.337l-52.308,31.34l-8.224,4.915c0,0,0.492-2.206-0.366-5.907         c-0.353-1.523-1.766-3.3-2.227-5.28c-2.05-8.718-4.989-21.412-7.903-33.909c-0.847-3.644,1.305-7.264,0.486-10.762         c-0.614-2.619-4.212-5.17-4.783-7.612c-3.038-13.065-5.359-22.919-5.384-22.919l5.038,3.136l15.559,9.656l9.163,5.68         l4.743,4.197l9.581,4.718l8.372,5.186l5.678,4.769l9.115,4.419L405.312,301.337z"/>
							<g>
								<path style="fill:#FFD974;" d="M342.039,283.209c0,4.643-3.334,8.496-7.755,9.286c-1.482-6.372-2.963-12.669-4.297-18.374          c0.815-0.247,1.679-0.371,2.593-0.371C337.816,273.751,342.039,277.998,342.039,283.209z"/>
								<path style="fill:#FFD974;" d="M345.2,263.995c-1.679,1.63-3.976,2.618-6.52,2.618c-5.211,0-9.459-4.248-9.459-9.459          c0-0.988,0.148-1.926,0.42-2.815L345.2,263.995z"/>
								<path style="fill:#FFD974;" d="M368.687,278.591c-0.42,4.816-4.47,8.619-9.409,8.619c-5.211,0-9.459-4.248-9.459-9.459          c0-3.433,1.828-6.421,4.544-8.076L368.687,278.591z"/>
								<path style="fill:#FFD974;" d="M362.645,305.072c0,5.224-4.235,9.458-9.458,9.458c-5.224,0-9.458-4.235-9.458-9.458          s4.235-9.458,9.458-9.458C358.411,295.614,362.645,299.849,362.645,305.072z"/>
								<path style="fill:#FFD974;" d="M391.853,292.965c-0.692,4.544-4.618,8.002-9.335,8.002c-5.236,0-9.459-4.223-9.459-9.459          c0-3.186,1.581-6.001,4.001-7.73L391.853,292.965z"/>
								<path style="fill:#FFD974;" d="M353.005,332.677l-8.224,4.915c0,0-1.013-4.396-2.593-11.188          c0.914-0.198,1.852-0.247,2.84-0.148C348.831,326.651,351.893,329.269,353.005,332.677z"/>
							</g>
							<path style="fill:#370644;" d="M344.78,337.599c0,0,9.954-13.854,27.429-24.382c17.445-10.509,33.104-11.875,33.104-11.875         s-8.933,15.449-25.117,25.327C364.012,336.547,344.78,337.599,344.78,337.599z"/>
						</g>
					</g>
					<g>
						<path style="fill:#FFA368;" d="M407.658,268.679c0,0,5.368,25.348-0.298,37.873c-5.666,12.525-19.98,18.489-19.98,18.489        s25.348,8.947,40.855-10.437c15.507-19.384,15.507-27.137,15.507-27.137L407.658,268.679z"/>
						<g>
							<path style="fill:#370644;" d="M442.976,297.84c-0.209,0-0.404-0.132-0.474-0.341c-0.35-1.042-1.22-1.885-2.272-2.201         c-0.265-0.079-0.415-0.357-0.335-0.622s0.357-0.417,0.623-0.335c1.358,0.407,2.482,1.495,2.934,2.84         c0.088,0.262-0.053,0.545-0.315,0.633C443.083,297.832,443.029,297.84,442.976,297.84z"/>
							<path style="fill:#370644;" d="M442.34,300.189c-0.228,0-0.434-0.157-0.487-0.389c-0.205-0.901-0.795-1.731-1.58-2.222         c-0.234-0.146-0.306-0.454-0.16-0.688c0.146-0.234,0.456-0.308,0.689-0.159c1.021,0.637,1.759,1.675,2.026,2.847         c0.061,0.27-0.107,0.538-0.377,0.599C442.415,300.186,442.377,300.189,442.34,300.189z"/>
							<path style="fill:#370644;" d="M442.016,302.731c-0.211,0-0.407-0.134-0.476-0.346c-0.283-0.868-0.888-1.646-1.661-2.133         c-0.233-0.146-0.304-0.456-0.156-0.689c0.147-0.232,0.455-0.305,0.689-0.156c0.981,0.618,1.719,1.566,2.079,2.67         c0.085,0.262-0.058,0.544-0.321,0.63C442.119,302.724,442.067,302.731,442.016,302.731z"/>
						</g>
						<g>
							<path style="fill:#FFA368;" d="M390.517,322.742c0,0-11.189-5.752-11.786-4.858c-0.596,0.895,2.982,4.473,2.982,4.473         s-8.544,0.921-9.043,2.697c-0.499,1.776,5.763,1.925,5.763,1.925s-4.005,2.386-3.941,3.728         c0.064,1.342,4.742-1.402,4.742-1.402s-2.591,3.787-1.696,3.936c0.895,0.149,8.648-4.175,11.034-4.772         c2.386-0.596,7.306-1.193,7.306-1.193L390.517,322.742z"/>
							<path style="fill:#370644;" d="M439.316,304.288c-0.163-0.327-0.584-0.374-0.934-0.257c-1.705,3.971-4.625,8.83-9.554,13.315         c-1.145,1.051-2.36,2.032-3.621,2.92c-6.798,4.765-15.301,7.078-24.551,6.704c-0.864-0.023-1.752-0.093-2.64-0.163         c-0.958-0.07-1.915-0.164-2.897-0.187c-1.612-0.07-3.224,0-4.765,0.397c-2.92,0.748-5.49,2.173-7.989,3.551         c-1.028,0.584-2.032,1.145-3.084,1.659c-0.397,0.21-0.818,0.397-1.215,0.514c0.467-0.958,1.121-1.869,1.799-2.476         c0.21-0.187,0.257-0.514,0.093-0.748c-0.093-0.187-0.28-0.28-0.467-0.28c-0.093,0-0.187,0.023-0.257,0.07l-0.024,0.024         c-0.047,0-0.07,0.023-0.117,0.047c-1.378,0.607-2.85,1.051-4.345,1.308c-0.117,0-0.21,0.023-0.257,0.023v-0.023         c0.047-0.07,0.093-0.117,0.187-0.21c1.238-1.261,2.593-2.266,4.018-2.967c0.21-0.117,0.351-0.35,0.304-0.607         c-0.023-0.257-0.21-0.444-0.467-0.491l-4.532-0.794c-0.444-0.07-0.934-0.164-1.238-0.444c-0.07-0.07-0.093-0.117-0.093-0.117         c0-0.023,0.023-0.07,0.093-0.14c0.07-0.07,0.21-0.164,0.374-0.234c1.332-0.584,2.803-0.724,4.392-0.864         c1.542-0.14,3.13-0.28,4.578-0.888c0.187-0.07,0.327-0.234,0.351-0.444c0.047-0.21-0.047-0.397-0.187-0.537         c-1.075-0.911-2.102-1.892-3.06-2.943c-0.163-0.21-0.234-0.351-0.304-0.374c0.047,0,0.164,0,0.397,0.07         c1.495,0.444,2.92,1.121,4.322,1.775c2.149,1.004,4.368,2.056,6.891,2.266c0.047,0,0.117,0,0.164-0.023         c0.327-0.07,0.561-0.14,0.747-0.35c2.429-2.009,9.835-8.129,14.46-17.847c4.859-10.115,3.714-25.439,2.873-32.331         c-0.023-0.047-0.047-0.07-0.07-0.093c-0.234-0.28-0.701-0.374-0.981-0.14c-0.07,0.047-0.117,0.14-0.164,0.234         c0.841,6.751,1.986,22.029-2.71,31.817c-4.532,9.484-11.774,15.488-14.226,17.543c-0.023,0-0.047,0-0.094,0.024         c-2.266-0.21-4.275-1.145-6.401-2.149c-1.425-0.677-2.897-1.378-4.485-1.846c-0.911-0.28-1.378,0.024-1.612,0.327         c-0.397,0.491-0.28,1.191,0.327,1.869c0.747,0.841,1.565,1.635,2.383,2.406c-1.028,0.28-2.149,0.374-3.317,0.467         c-1.588,0.14-3.247,0.303-4.742,0.958c-0.818,0.374-1.262,0.981-1.168,1.612c0.047,0.304,0.21,0.584,0.467,0.818         c0.561,0.514,1.285,0.631,1.846,0.724l2.92,0.514c-1.004,0.654-1.986,1.448-2.873,2.383         c-0.818,0.818-0.561,1.448-0.421,1.682c0.28,0.444,0.771,0.607,1.472,0.49c0.911-0.14,1.799-0.35,2.663-0.631         c-0.397,0.631-0.724,1.308-0.981,2.009c-0.07,0.163-0.047,0.35,0.047,0.49c0.093,0.164,0.257,0.257,0.444,0.28         c0.117,0,0.21,0.023,0.327,0.023c0.864,0,1.682-0.374,2.383-0.724c1.051-0.537,2.102-1.098,3.13-1.682         c2.546-1.401,4.952-2.733,7.732-3.457c2.266-0.584,4.812-0.374,7.265-0.187c0.911,0.093,1.822,0.164,2.686,0.187         c9.531,0.374,18.268-2.009,25.252-6.915c1.308-0.911,2.57-1.915,3.761-3.013c5.022-4.578,8.012-9.461,9.788-13.479v-0.093         C439.386,304.521,439.363,304.381,439.316,304.288z"/>
						</g>
					</g>
					<path style="fill:#FFA368;" d="M334.876,297.661c1.462,0.035,2.923,0.07,4.385,0.106c0.335,0.008,0.679,0.015,0.992-0.102       s0.594-0.388,0.618-0.722c0.021-0.284-0.144-0.551-0.345-0.752c-0.681-0.683-1.73-0.799-2.692-0.877       c-1.036-0.084-2.1-0.351-3.136-0.435c0.391-0.35,0.925-0.482,1.436-0.602c1.419-0.333,2.837-0.666,4.256-0.999       c0.298-0.07,0.618-0.153,0.814-0.389c0.342-0.414,0.084-1.093-0.378-1.366c-0.462-0.273-1.036-0.251-1.571-0.202       c-1.65,0.153-3.499,0.176-5.07,0.704c1.211-1.03,2.513-1.953,3.887-2.752c0.689-0.401,1.409-0.781,1.956-1.362       c0.125-0.133,0.246-0.289,0.255-0.472c0.013-0.256-0.207-0.478-0.453-0.551c-0.246-0.073-0.509-0.031-0.761,0.02       c-2.147,0.432-4.042,1.347-5.653,2.831c0.811-2.273,1.621-4.546,2.432-6.82c0.099-0.278,0.2-0.571,0.157-0.863       c-0.043-0.293-0.282-0.579-0.578-0.566c-0.193,0.008-0.358,0.135-0.503,0.262c-2.216,1.913-3.36,4.752-4.427,7.479       c-0.935,2.388-0.217,5.111,1.223,7.233C332.245,297.236,333.947,297.757,334.876,297.661z"/>
				</g>
			</g>
			<g>
				<path style="fill:#FFA368;" d="M334.272,124.843c1.247-2.9,2.885-5.698,4.931-8.326c10.467-13.445,29.299-18.379,45.184-12.612      c9.122,3.312,14.809,9.317,17.692,18.666c4.666,15.135,0.503,33.289-11.16,44.188c-8.727,8.156-24.424,13.058-36.019,8.419      C334.648,167.075,326.118,143.799,334.272,124.843z"/>
				<path style="opacity:0.27;fill:#FFA368;" d="M334.272,124.843c1.247-2.9,2.885-5.698,4.931-8.326      c10.467-13.445,29.299-18.379,45.184-12.612c9.122,3.312,14.809,9.317,17.692,18.666c4.666,15.135,0.503,33.289-11.16,44.188      c-8.727,8.156-24.424,13.058-36.019,8.419C334.648,167.075,326.118,143.799,334.272,124.843z"/>
				<path style="fill:#FFA368;" d="M443.545,204.679c-5.117,6.396-12.63,17.607-28.795,23.98c-8.234,3.233-18.7,5.21-32.237,4.698      c-1.024-0.047-2.07-0.093-3.117-0.163c-25.632-1.674-37.68-17.468-44.146-27.492c-3.559-5.513-4.791-10.234-3.954-12.49      c1.233-3.256,6.257-5.373,10.862-6.629c4.349-1.233,8.35-1.698,8.35-1.698c9.49-53.45,60.963-43.937,60.963-43.937      C455.431,152.811,455.175,190.142,443.545,204.679z"/>
				<path style="fill:#FFA368;" d="M417.478,122.955c9.61-16.015,29.858-23.675,47.845-18.664      c23.971,6.678,37.761,34.229,31.07,57.708c-2.493,8.749-7.578,16.709-14.338,22.78c-7.934,7.127-17.772,10.061-28.099,12.021      c-5.298,1.005-10.812,1.704-16.043,0.398c-5.364-1.339-10.046-4.726-13.707-8.848c-3.661-4.122-6.39-8.97-8.889-13.877      c-3.768-7.4-7.976-16.563-6.893-25.095C409.558,140.433,412.845,130.675,417.478,122.955z"/>
				<path style="fill:#FFE4E0;" d="M489.444,148.772c0,19.933-16.163,36.096-36.096,36.096c-1.495,0-2.968-0.087-4.42-0.282      c-1.322-4.724-3.293-9.252-5.807-13.455c-5.352-8.883-13.087-16.358-22.251-21.255c-0.845-0.455-2.21-1.343-3.597-2.058      c0.499-19.5,16.467-35.143,36.074-35.143C473.281,112.676,489.444,128.838,489.444,148.772z"/>
				<path style="fill:#FFA368;" d="M410.643,148.521c2.693-3.106,5.576-6.345,9.655-7.83c2.251-0.82,5.012-0.985,6.969,0.301      c1.489,0.978,2.268,2.697,2.13,4.34c-0.138,1.644-1.132,3.185-2.547,4.247c3.242-1.521,7.673,0.39,8.842,3.484      c0.343,0.909,0.422,1.888,0.325,2.843c-0.282,2.77-2.193,5.449-5.066,6.538c-3.748,1.422-8.121-0.027-11.437-2.136      C415.798,157.945,412.636,152.18,410.643,148.521z"/>
				<path style="fill:#370644;" d="M343.531,192.328c0.023,2.884-1.186,5.698-2.884,8.001c-1.512,2.07-3.419,3.768-5.396,5.373      c-3.559-5.513-4.791-10.234-3.954-12.49c1.233-3.256,6.257-5.373,10.862-6.629C343.112,188.328,343.531,190.909,343.531,192.328      z"/>
				<path style="fill:#370644;" d="M447.203,198.372c-0.059,0-0.118-0.01-0.176-0.032c-0.258-0.097-0.389-0.385-0.292-0.644      c1.514-4.037,1.952-8.421,1.267-12.679c-0.044-0.273,0.142-0.529,0.414-0.573c0.271-0.043,0.529,0.142,0.573,0.414      c0.713,4.429,0.257,8.99-1.318,13.189C447.596,198.249,447.405,198.372,447.203,198.372z"/>
				<path style="fill:#370644;" d="M390.493,193.994c0,4.045-3.279,7.324-7.324,7.324c-4.045,0-7.324-3.279-7.324-7.324      c0-4.045,3.279-7.324,7.324-7.324C387.214,186.67,390.493,189.949,390.493,193.994z"/>
				<path style="fill:#FFA5D7;" d="M416.216,221.309c0,2.605-0.512,5.094-1.465,7.35c-8.234,3.233-18.7,5.21-32.237,4.698      c-2.675-3.279-4.303-7.489-4.303-12.048c0-10.49,8.513-19.003,19.003-19.003C407.726,202.307,416.216,210.819,416.216,221.309z"/>
			</g>
		</g>
		<g>
			<g>
				<path style="fill:#FF71B1;" d="M104.528,385.151c0,15.584-12.63,28.214-28.213,28.214c-0.209,0-0.442,0-0.651-0.023      c-15.281-0.326-27.562-12.816-27.562-28.19c0-15.584,12.63-28.213,28.213-28.213c7.141,0,13.653,2.652,18.631,7.024      C100.829,369.126,104.528,376.708,104.528,385.151z"/>
				<path style="opacity:0.32;fill:#923EFF;" d="M104.528,385.151c0,15.584-12.63,28.214-28.213,28.214      c-0.209,0-0.442,0-0.651-0.023c8.397-4.117,15.328-11.281,19.026-19.91c3.396-7.931,4-17.002,1.884-25.353      c-0.256-0.977-1-2.512-1.628-4.117C100.829,369.126,104.528,376.708,104.528,385.151z"/>
			</g>
			<path style="fill:#FFEFD7;" d="M55.143,372.391c-0.368,1.047-0.603,2.173-0.421,3.268c0.182,1.095,0.842,2.156,1.862,2.594     c1.552,0.667,3.307-0.241,4.684-1.221c2.635-1.879,5.09-4.283,6.041-7.376c0.362-1.176,0.46-2.556-0.272-3.546     C63.519,361.344,56.213,369.346,55.143,372.391z"/>
			<path style="fill:#370644;" d="M85.136,360.888c-1.55-0.453-3.471-0.768-4.894-0.079c-0.755,0.366-1.391,1.101-1.386,1.939     c0.007,1.099,1.043,1.893,2.033,2.37c1.489,0.718,3.128,1.137,4.781,1.159c0.936,0.013,1.941-0.13,2.636-0.757     c1.996-1.799-0.909-3.986-2.553-4.377"/>
		</g>
	</g>
	<g>
		<g>
			<path style="fill:#FFA368;" d="M20.656,261.2l19.399-11.481c0,0,10.689,10.293,10.293,22.566l-17.816,11.481     C32.532,283.767,34.908,271.098,20.656,261.2z"/>
			<path style="fill:#FFA5D7;" d="M476.74,292.889l-16.401-7.872c0,0,2.117-11.788,10.53-17.024l15.691,6.81     C486.56,274.802,476.993,278.887,476.74,292.889z"/>
			<path style="fill:#D7A0FF;" d="M129.141,143.69l-22.268-3.502c0,0-1.686-14.744,6.435-23.954l21.047,2.494     C134.355,118.728,124.455,126.983,129.141,143.69z"/>
			<path style="fill:#FFD974;" d="M285.559,137.731l3.743-22.229c0,0,14.761-1.527,23.883,6.693l-2.721,21.019     C310.464,143.214,302.317,133.226,285.559,137.731z"/>
		</g>
		<g>
			<path style="fill:#FFEFD7;" d="M266.119,78.728l0.847,4.765c0.537,3.022,2.903,5.388,5.925,5.925l4.765,0.847     c0.447,0.079,0.447,0.721,0,0.801l-4.765,0.847c-3.022,0.537-5.388,2.903-5.925,5.925l-0.847,4.765     c-0.08,0.447-0.721,0.447-0.801,0l-0.847-4.765c-0.537-3.022-2.903-5.388-5.925-5.925l-4.765-0.847     c-0.447-0.08-0.447-0.721,0-0.801l4.765-0.847c3.022-0.537,5.388-2.903,5.925-5.925l0.847-4.765     C265.398,78.281,266.039,78.281,266.119,78.728z"/>
			<path style="fill:#FFEFD7;" d="M360.891,242.473l0.847,4.765c0.537,3.022,2.903,5.388,5.925,5.925l4.765,0.847     c0.447,0.08,0.447,0.721,0,0.801l-4.765,0.847c-3.022,0.537-5.388,2.903-5.925,5.925l-0.847,4.765     c-0.08,0.447-0.721,0.447-0.801,0l-0.847-4.765c-0.537-3.022-2.903-5.388-5.925-5.925l-4.765-0.847     c-0.447-0.08-0.447-0.721,0-0.801l4.765-0.847c3.022-0.538,5.388-2.903,5.925-5.925l0.847-4.765     C360.17,242.025,360.811,242.025,360.891,242.473z"/>
			<path style="fill:#FFEFD7;" d="M474.897,356.492l0.847,4.765c0.537,3.022,2.903,5.388,5.925,5.925l4.765,0.847     c0.447,0.08,0.447,0.721,0,0.801l-4.765,0.847c-3.022,0.538-5.388,2.903-5.925,5.925l-0.847,4.765     c-0.08,0.447-0.721,0.447-0.801,0l-0.847-4.765c-0.537-3.022-2.903-5.388-5.925-5.925l-4.765-0.847     c-0.447-0.08-0.447-0.721,0-0.801l4.765-0.847c3.022-0.537,5.388-2.903,5.925-5.925l0.847-4.765     C474.176,356.045,474.818,356.045,474.897,356.492z"/>
			<path style="fill:#FFEFD7;" d="M48.511,319.674l0.847,4.765c0.537,3.022,2.903,5.388,5.925,5.925l4.765,0.847     c0.447,0.08,0.447,0.721,0,0.801l-4.765,0.847c-3.022,0.537-5.388,2.903-5.925,5.925l-0.847,4.765     c-0.08,0.447-0.721,0.447-0.801,0l-0.847-4.765c-0.537-3.022-2.903-5.388-5.925-5.925l-4.765-0.847     c-0.447-0.08-0.447-0.721,0-0.801l4.765-0.847c3.022-0.537,5.388-2.903,5.925-5.925l0.847-4.765     C47.79,319.226,48.432,319.226,48.511,319.674z"/>
			<path style="fill:#FFEFD7;" d="M74.008,166.322l0.847,4.765c0.537,3.022,2.903,5.388,5.925,5.925l4.765,0.847     c0.447,0.08,0.447,0.721,0,0.801l-4.765,0.847c-3.022,0.538-5.388,2.903-5.925,5.925l-0.847,4.765     c-0.079,0.447-0.721,0.447-0.801,0l-0.847-4.765c-0.537-3.022-2.903-5.388-5.925-5.925l-4.765-0.847     c-0.447-0.08-0.447-0.721,0-0.801l4.765-0.847c3.022-0.537,5.388-2.903,5.925-5.925l0.847-4.765     C73.287,165.874,73.928,165.874,74.008,166.322z"/>
		</g>
	</g>
</g>















</svg>
