<svg width="100" height="100" viewBox="0 0 100 100" fill="none" xmlns="http://www.w3.org/2000/svg">
<path d="M50 100C77.6142 100 100 77.6142 100 50C100 22.3858 77.6142 0 50 0C22.3858 0 0 22.3858 0 50C0 77.6142 22.3858 100 50 100Z" fill="#F1F2F2"/>
<path d="M50.5 16C31.4717 16 16 31.472 16 50.5C16 69.5285 31.4717 85 50.5 85C69.5283 85 85 69.5285 85 50.5C85 31.472 69.5283 16 50.5 16ZM50.5 20.3125C67.1976 20.3125 80.6875 33.8024 80.6875 50.5C80.6875 67.1976 67.1976 80.6875 50.5 80.6875C33.8024 80.6875 20.3125 67.1976 20.3125 50.5C20.3125 33.8024 33.8024 20.3125 50.5 20.3125ZM41.875 37.5625C40.7313 37.5625 39.6344 38.0169 38.8256 38.8256C38.0169 39.6344 37.5625 40.7313 37.5625 41.875C37.5625 43.0187 38.0169 44.1156 38.8256 44.9244C39.6344 45.7331 40.7313 46.1875 41.875 46.1875C43.0187 46.1875 44.1156 45.7331 44.9244 44.9244C45.7331 44.1156 46.1875 43.0187 46.1875 41.875C46.1875 40.7313 45.7331 39.6344 44.9244 38.8256C44.1156 38.0169 43.0187 37.5625 41.875 37.5625V37.5625ZM59.125 37.5625C57.9813 37.5625 56.8844 38.0169 56.0756 38.8256C55.2669 39.6344 54.8125 40.7313 54.8125 41.875C54.8125 43.0187 55.2669 44.1156 56.0756 44.9244C56.8844 45.7331 57.9813 46.1875 59.125 46.1875C60.2687 46.1875 61.3656 45.7331 62.1744 44.9244C62.9831 44.1156 63.4375 43.0187 63.4375 41.875C63.4375 40.7313 62.9831 39.6344 62.1744 38.8256C61.3656 38.0169 60.2687 37.5625 59.125 37.5625V37.5625ZM31.0601 50.6516C30.7769 50.656 30.4974 50.7162 30.2375 50.8286C29.9775 50.9411 29.7423 51.1036 29.5452 51.307C29.3481 51.5103 29.193 51.7505 29.0887 52.0138C28.9845 52.2771 28.9331 52.5584 28.9375 52.8416C28.9375 60.4268 33.0708 67.4269 39.7356 71.2034C46.4004 74.9798 54.5996 74.9798 61.2644 71.2034C67.9292 67.4269 72.0625 60.4268 72.0625 52.8416C72.0665 52.5558 72.0138 52.2721 71.9072 52.007C71.8007 51.7418 71.6425 51.5005 71.4418 51.297C71.2412 51.0935 71.0021 50.932 70.7385 50.8217C70.4749 50.7114 70.192 50.6546 69.9062 50.6546C69.6205 50.6546 69.3376 50.7114 69.074 50.8217C68.8104 50.932 68.5713 51.0935 68.3707 51.297C68.17 51.5005 68.0118 51.7418 67.9053 52.007C67.7987 52.2721 67.746 52.5558 67.75 52.8416C67.75 58.864 64.4848 64.4274 59.1418 67.4552C53.7989 70.4826 47.2011 70.4826 41.8582 67.4552C36.5152 64.4274 33.25 58.864 33.25 52.8416C33.2545 52.5527 33.201 52.2659 33.0925 51.9982C32.9841 51.7304 32.8229 51.4872 32.6187 51.283C32.4144 51.0787 32.1712 50.9176 31.9034 50.8091C31.6357 50.7006 31.3489 50.6471 31.0601 50.6516V50.6516Z" fill="#05224C"/>
</svg>
