<svg width="140" height="140" viewBox="0 0 140 140" fill="none" xmlns="http://www.w3.org/2000/svg">
<path d="M139.639 69.7067C139.639 108.028 108.573 139.092 70.252 139.092C31.9322 139.092 0.867188 108.028 0.867188 69.7067C0.867188 31.3867 31.9322 0.321379 70.252 0.321379C108.573 0.321379 139.639 31.3867 139.639 69.7067Z" fill="#EC1348"/>
<path d="M92.672 33.8894C83.5413 33.8894 75.564 38.7441 71.116 45.9974C66.668 38.7441 58.6907 33.8894 49.5587 33.8894C35.5869 33.8894 24.2609 45.2161 24.2609 59.1881C24.2609 92.3241 71.116 110.496 71.116 110.496C71.116 110.496 117.971 91.9681 117.971 59.1881C117.971 45.2161 106.644 33.8894 92.672 33.8894Z" fill="white"/>
</svg>
