<svg width="40" height="40" viewBox="0 0 40 40" fill="none" xmlns="http://www.w3.org/2000/svg">
<g clip-path="url(#clip0_6833_275)">
<path d="M20 40C31.0457 40 40 31.0457 40 20C40 8.9543 31.0457 0 20 0C8.9543 0 0 8.9543 0 20C0 31.0457 8.9543 40 20 40Z" fill="#F0F2F5"/>
<path d="M14.7287 26.3227C13.2612 26.3227 11.9558 25.383 11.4818 23.9842L11.4498 23.8788C11.338 23.5083 11.2912 23.1968 11.2912 22.8851V16.635L9.0673 24.0584C8.78128 25.1502 9.43305 26.2822 10.5266 26.5838L24.7014 30.38C24.8783 30.4258 25.0553 30.4478 25.2295 30.4478C26.1424 30.4478 26.9766 29.8418 27.2105 28.9489L28.0363 26.3227H14.7287Z" fill="#050505"/>
<path d="M17.2497 16.6974C18.2608 16.6974 19.083 15.8751 19.083 14.864C19.083 13.8528 18.2608 13.0305 17.2497 13.0305C16.2386 13.0305 15.4163 13.8528 15.4163 14.864C15.4163 15.8751 16.2386 16.6974 17.2497 16.6974Z" fill="#050505"/>
<path d="M28.7083 10.2805H14.9579C13.6948 10.2805 12.6663 11.3091 12.6663 12.5724V22.6558C12.6663 23.9191 13.6948 24.9477 14.9579 24.9477H28.7083C29.9715 24.9477 31.0001 23.9191 31.0001 22.6558V12.5724C31.0001 11.3091 29.9715 10.2805 28.7083 10.2805ZM14.9579 12.114H28.7083C28.9614 12.114 29.1667 12.3192 29.1667 12.5724V19.0799L26.2709 15.7009C25.9637 15.3407 25.5191 15.1482 25.0416 15.1373C24.5667 15.14 24.1212 15.3508 23.8169 15.7157L20.4122 19.8022L19.3031 18.6957C18.6762 18.0688 17.6558 18.0688 17.0297 18.6957L14.4997 21.2249V12.5724C14.4997 12.3192 14.705 12.114 14.9579 12.114Z" fill="#050505"/>
</g>
<defs>
<clipPath id="clip0_6833_275">
<rect width="40" height="40" fill="white"/>
</clipPath>
</defs>
</svg>
