<svg width="25" height="25" viewBox="0 0 25 25" fill="none" xmlns="http://www.w3.org/2000/svg">
<path d="M12.5 0C5.60722 0 0 5.60722 0 12.5C0 19.3928 5.60722 25 12.5 25C19.3928 25 25 19.3928 25 12.5C25 5.60722 19.3928 0 12.5 0Z" fill="#2196F3"/>
<path d="M17.9688 13.5417H13.5417V17.9688C13.5417 18.5439 13.0752 19.0105 12.5001 19.0105C11.925 19.0105 11.4585 18.5439 11.4585 17.9688V13.5417H7.03135C6.45628 13.5417 5.98975 13.0752 5.98975 12.5001C5.98975 11.925 6.45628 11.4585 7.03135 11.4585H11.4585V7.03135C11.4585 6.45628 11.925 5.98975 12.5001 5.98975C13.0752 5.98975 13.5417 6.45628 13.5417 7.03135V11.4585H17.9688C18.5439 11.4585 19.0105 11.925 19.0105 12.5001C19.0105 13.0752 18.5439 13.5417 17.9688 13.5417Z" fill="#FAFAFA"/>
</svg>
