<svg width="154" height="154" viewBox="0 0 154 154" fill="none" xmlns="http://www.w3.org/2000/svg">
<path d="M76.8479 153.7C34.5066 153.7 0.181274 119.376 0.181274 77.0333C0.181274 34.692 34.5066 0.366627 76.8479 0.366627C119.189 0.366627 153.515 34.692 153.515 77.0333C153.515 119.376 119.189 153.7 76.8479 153.7ZM39.3399 143.837C50.4293 150.077 63.2173 153.652 76.8479 153.652C119.163 153.652 153.467 119.349 153.467 77.0333C153.467 75.5546 153.413 74.088 153.331 72.6293C150.271 98.936 133.361 124.124 106.4 137.96C93.1533 144.759 79.0946 147.985 65.4733 147.985C56.4493 147.985 47.6186 146.569 39.3399 143.837" fill="url(#paint0_radial)"/>
<path d="M76.848 153.652C63.2173 153.652 50.4293 150.077 39.34 143.837C47.6186 146.569 56.4493 147.985 65.4733 147.985C79.0946 147.985 93.1533 144.759 106.4 137.96C133.361 124.124 150.271 98.9358 153.331 72.6292C153.413 74.0878 153.467 75.5545 153.467 77.0332C153.467 119.349 119.163 153.652 76.848 153.652" fill="url(#paint1_radial)"/>
<path d="M85.1426 126.549C83.6866 126.549 82.2746 126.255 80.9466 125.671C79.9306 125.227 79.3359 124.245 79.4306 123.172C79.5226 122.104 80.3093 121.211 81.3866 120.948C84.4213 120.207 86.5413 117.863 86.5413 115.247C86.5413 112.972 84.932 110.875 82.432 109.881C82.0693 109.784 81.7146 109.669 81.3693 109.535L81.288 109.507L80.9373 109.361L80.6826 109.247L80.5493 109.125C80.3186 108.975 80.0626 108.764 79.8533 108.444L79.7253 108.249L79.5826 107.88C79.5293 107.721 79.4426 107.455 79.4426 107.1C79.4306 106.747 79.5346 106.424 79.6133 106.217L79.6919 106.007L79.8746 105.707C79.9986 105.509 80.188 105.312 80.432 105.133L80.5333 105.017L80.8346 104.868L80.9626 104.767L81.3479 104.657C81.7199 104.511 82.1026 104.385 82.4919 104.283C84.9559 103.287 86.5413 101.201 86.5413 98.9466C86.5413 96.3293 84.4199 93.9813 81.3839 93.2333C80.3106 92.9693 79.5266 92.0773 79.4333 91.012C79.34 89.9413 79.9333 88.9613 80.944 88.5133C82.2733 87.9267 83.6853 87.6307 85.1426 87.6307C91.1106 87.6307 95.9666 92.7066 95.9666 98.9466C95.9666 102.081 94.7573 104.987 92.6466 107.091C94.7573 109.197 95.9666 112.107 95.9666 115.247C95.9666 121.479 91.1106 126.549 85.1426 126.549" fill="#ED8206"/>
<path d="M32.1706 60.4841C36.6039 53.8134 44.8147 43.3801 48.9187 43.3801C53.024 43.3801 60.0373 50.7347 65.5106 60.4841C66.1946 62.3654 65.168 67.3267 60.7213 66.9841C56.2747 66.6414 54.564 58.2041 49.7746 56.3788C48.4066 55.9228 43.1613 60.3708 38.828 65.6161C36.5466 68.0108 29.5053 64.3001 32.1706 60.4841" fill="url(#paint2_radial)"/>
<path d="M121.527 60.4841C117.092 53.8134 108.883 43.3801 104.777 43.3801C100.672 43.3801 93.66 50.7347 88.1867 60.4841C87.5014 62.3654 88.528 67.3267 92.976 66.9841C97.4227 66.6414 99.1334 58.2041 103.923 56.3788C105.291 55.9228 110.536 60.3708 114.869 65.6161C117.149 68.0108 124.192 64.3001 121.527 60.4841" fill="url(#paint3_radial)"/>
<defs>
<radialGradient id="paint0_radial" cx="0" cy="0" r="1" gradientUnits="userSpaceOnUse" gradientTransform="translate(76.4039 51.2559) scale(89.1064)">
<stop stop-color="#FFF081"/>
<stop offset="1" stop-color="#FD8C05"/>
</radialGradient>
<radialGradient id="paint1_radial" cx="0" cy="0" r="1" gradientUnits="userSpaceOnUse" gradientTransform="translate(76.404 51.2559) scale(89.1064)">
<stop stop-color="#FFDA28"/>
<stop offset="1" stop-color="#FD7F02"/>
</radialGradient>
<radialGradient id="paint2_radial" cx="0" cy="0" r="1" gradientUnits="userSpaceOnUse" gradientTransform="translate(48.64 55.1908) scale(14.674)">
<stop stop-color="#3C2415"/>
<stop offset="0.660514" stop-color="#3C2415"/>
<stop offset="1" stop-color="#24160D"/>
</radialGradient>
<radialGradient id="paint3_radial" cx="0" cy="0" r="1" gradientUnits="userSpaceOnUse" gradientTransform="translate(105.056 55.1908) rotate(180) scale(14.674)">
<stop stop-color="#3C2415"/>
<stop offset="0.660514" stop-color="#3C2415"/>
<stop offset="1" stop-color="#24160D"/>
</radialGradient>
</defs>
</svg>
