<svg width="154" height="154" viewBox="0 0 154 154" fill="none" xmlns="http://www.w3.org/2000/svg">
<path d="M77.0334 153.517C34.692 153.517 0.366699 119.192 0.366699 76.8507C0.366699 34.508 34.692 0.18401 77.0334 0.18401C119.376 0.18401 153.7 34.508 153.7 76.8507C153.7 119.192 119.376 153.517 77.0334 153.517ZM39.5267 143.653C50.6147 149.893 63.404 153.468 77.0334 153.468C119.349 153.468 153.652 119.165 153.652 76.8507C153.652 75.3707 153.6 73.904 153.517 72.4454C150.456 98.752 133.547 123.941 106.585 137.777C93.3387 144.575 79.28 147.801 65.6587 147.801C56.6347 147.801 47.8041 146.385 39.5267 143.653" fill="url(#paint0_radial)"/>
<path d="M77.0333 153.468C63.404 153.468 50.6147 149.893 39.5267 143.653C47.804 146.385 56.6346 147.801 65.6586 147.801C79.28 147.801 93.3387 144.575 106.585 137.777C133.547 123.941 150.456 98.752 153.517 72.4454C153.6 73.904 153.652 75.3707 153.652 76.8507C153.652 119.165 119.349 153.468 77.0333 153.468" fill="url(#paint1_radial)"/>
<path d="M37.0347 67.2973C35.808 67.8493 34.6027 68.464 33.504 69.24C29.9147 71.7773 27.6427 76.0826 27.572 80.4773C27.5614 81.084 27.5947 81.7079 27.844 82.2599C28.4547 83.6133 30.2347 84.1213 31.66 83.708C33.084 83.2946 34.1987 82.1893 35.1214 81.0266C36.044 79.8639 36.8547 78.5919 37.984 77.6293C38.9667 76.7919 40.1493 76.224 41.3453 75.736C44.888 74.292 49.128 73.524 52.4 75.508C53.068 75.9133 53.668 76.4186 54.2733 76.9133C55.7987 78.1626 57.4307 79.3853 59.344 79.8586C61.2587 80.3319 63.532 79.876 64.688 78.2786C65.648 76.9546 65.6467 75.1039 65.016 73.5933C64.3867 72.0839 63.212 70.8639 61.9547 69.8186C57.8214 66.3826 52.424 64.4453 47.0547 64.6853C43.5854 64.8399 40.2013 65.8719 37.0347 67.2973" fill="url(#paint2_radial)"/>
<path d="M117.033 67.2973C118.26 67.8493 119.464 68.464 120.563 69.24C124.152 71.7773 126.425 76.0826 126.496 80.4773C126.505 81.084 126.472 81.7079 126.223 82.2599C125.613 83.6133 123.833 84.1213 122.408 83.708C120.983 83.2946 119.869 82.1893 118.947 81.0266C118.024 79.8639 117.213 78.5919 116.084 77.6293C115.101 76.7919 113.919 76.224 112.723 75.736C109.18 74.292 104.94 73.524 101.668 75.508C101 75.9133 100.399 76.4186 99.7946 76.9133C98.2679 78.1626 96.6373 79.3853 94.7226 79.8586C92.8093 80.3319 90.5359 79.876 89.3786 78.2786C88.4186 76.9546 88.4213 75.1039 89.0506 73.5933C89.6813 72.0839 90.8546 70.8639 92.1133 69.8186C96.2453 66.3826 101.644 64.4453 107.012 64.6853C110.481 64.8399 113.867 65.8719 117.033 67.2973" fill="url(#paint3_radial)"/>
<path d="M42.7599 41.548C46.5946 36.624 49.8425 33.3066 53.2145 34.252C56.5865 35.1973 58.4626 41.3133 54.9439 44.7827C51.4266 48.2507 41.6012 58.8147 23.6692 59.3787C20.9732 59.644 22.5652 52.6147 29.5666 50.668C36.5666 48.7213 41.3826 43.272 42.7599 41.548" fill="#ED8206"/>
<path d="M111.308 41.548C107.472 36.624 104.224 33.3066 100.853 34.252C97.4813 35.1973 95.6053 41.3133 99.1226 44.7827C102.641 48.2507 112.467 58.8147 130.397 59.3787C133.093 59.644 131.501 52.6147 124.501 50.668C117.501 48.7213 112.684 43.272 111.308 41.548" fill="#ED8206"/>
<path d="M107.133 99.5799C102.745 98.3879 98.1959 99.9173 94.6586 102.775C90.0559 106.493 81.1586 106.389 77.0333 106.389C72.9093 106.389 64.0106 106.493 59.4092 102.775C55.8719 99.9173 51.3226 98.3879 46.9346 99.5799C42.1532 100.879 37.5079 104.573 37.4386 113.477C37.4386 117.399 39.2253 125.091 46.9253 124.789C51.0493 124.488 51.324 119.812 59.2986 119.812C67.272 119.812 77.0333 120.264 77.0333 120.264C77.0333 120.264 86.7946 119.812 94.7693 119.812C102.743 119.812 103.019 124.488 107.143 124.789C114.841 125.091 116.629 117.399 116.629 113.477C116.56 104.573 111.915 100.879 107.133 99.5799" fill="url(#paint4_linear)"/>
<defs>
<radialGradient id="paint0_radial" cx="0" cy="0" r="1" gradientUnits="userSpaceOnUse" gradientTransform="translate(76.5894 51.072) scale(89.1064)">
<stop stop-color="#FFF081"/>
<stop offset="1" stop-color="#FD8C05"/>
</radialGradient>
<radialGradient id="paint1_radial" cx="0" cy="0" r="1" gradientUnits="userSpaceOnUse" gradientTransform="translate(76.5893 51.072) scale(89.1063)">
<stop stop-color="#FFDA28"/>
<stop offset="1" stop-color="#FD7F02"/>
</radialGradient>
<radialGradient id="paint2_radial" cx="0" cy="0" r="1" gradientUnits="userSpaceOnUse" gradientTransform="translate(46.512 74.2559) rotate(180) scale(15.0136)">
<stop stop-color="#3C2415"/>
<stop offset="0.660514" stop-color="#3C2415"/>
<stop offset="1" stop-color="#24160D"/>
</radialGradient>
<radialGradient id="paint3_radial" cx="0" cy="0" r="1" gradientUnits="userSpaceOnUse" gradientTransform="translate(107.555 74.2559) scale(15.0136)">
<stop stop-color="#3C2415"/>
<stop offset="0.660514" stop-color="#3C2415"/>
<stop offset="1" stop-color="#24160D"/>
</radialGradient>
<linearGradient id="paint4_linear" x1="77.0333" y1="124.797" x2="77.0333" y2="99.1722" gradientUnits="userSpaceOnUse">
<stop stop-color="#781512"/>
<stop offset="1" stop-color="#380A08"/>
</linearGradient>
</defs>
</svg>
