<svg width="154" height="155" viewBox="0 0 154 155" fill="none" xmlns="http://www.w3.org/2000/svg">
<path d="M77.1188 154.149C34.7771 154.149 0.452148 119.825 0.452148 77.4828C0.452148 35.1414 34.7771 0.81609 77.1188 0.81609C119.461 0.81609 153.785 35.1414 153.785 77.4828C153.785 119.825 119.461 154.149 77.1188 154.149V154.149ZM39.6063 144.287C50.6953 150.527 63.4839 154.101 77.114 154.101C119.428 154.101 153.732 119.799 153.732 77.4841C153.732 76.0054 153.68 74.5387 153.597 73.0801C150.536 99.3867 133.627 124.575 106.665 138.411C93.4188 145.208 79.3599 148.436 65.7391 148.436C56.7151 148.436 47.8839 147.02 39.6063 144.287V144.287ZM29.3656 97.4001C29.0803 97.4001 28.7953 97.5267 28.6057 97.7801C25.9812 101.165 17.438 112.604 14.1265 121.109C19.9183 129.472 27.3203 136.603 35.9172 142.087C41.8172 139.552 45.962 133.671 45.962 126.829C45.962 118.865 33.3839 102.016 30.1255 97.7801C29.9355 97.5267 29.6505 97.4001 29.3656 97.4001Z" fill="url(#paint0_radial)"/>
<path d="M77.114 154.101C63.4839 154.101 50.6953 150.527 39.6063 144.287C47.8839 147.02 56.7151 148.436 65.7391 148.436C79.3599 148.436 93.4188 145.208 106.665 138.411C133.627 124.575 150.536 99.3867 153.597 73.08C153.68 74.5387 153.732 76.0053 153.732 77.484C153.732 119.799 119.428 154.101 77.114 154.101Z" fill="url(#paint1_radial)"/>
<path d="M56.3609 72.5065C56.3609 80.2532 50.8917 86.5332 44.1443 86.5332C37.3973 86.5332 31.9276 80.2532 31.9276 72.5065C31.9276 64.7598 37.3973 58.4799 44.1443 58.4799C50.8917 58.4799 56.3609 64.7598 56.3609 72.5065Z" fill="url(#paint2_radial)"/>
<path d="M122.3 72.5065C122.3 80.2532 116.831 86.5332 110.084 86.5332C103.336 86.5332 97.8667 80.2532 97.8667 72.5065C97.8667 64.7598 103.336 58.4799 110.084 58.4799C116.831 58.4799 122.3 64.7598 122.3 72.5065Z" fill="url(#paint3_radial)"/>
<path d="M46.2265 68.3439C46.2265 70.7933 44.2412 72.7786 41.7921 72.7786C39.3426 72.7786 37.3573 70.7933 37.3573 68.3439C37.3573 65.8959 39.3426 63.9092 41.7921 63.9092C44.2412 63.9092 46.2265 65.8959 46.2265 68.3439Z" fill="white"/>
<path d="M112.165 68.3439C112.165 70.7933 110.18 72.7786 107.731 72.7786C105.282 72.7786 103.296 70.7933 103.296 68.3439C103.296 65.8959 105.282 63.9092 107.731 63.9092C110.18 63.9092 112.165 65.8959 112.165 68.3439Z" fill="white"/>
<path d="M77.1136 119.464C82.2194 119.464 87.3251 120.059 92.3255 121.247C96.9172 122.392 100.7 119.243 97.5922 115.809L97.311 115.516C88.0531 105.028 66.174 105.028 56.9162 115.516L56.635 115.809C53.5287 119.243 57.3099 122.392 61.9016 121.247C66.9022 120.059 72.0084 119.464 77.1136 119.464Z" fill="url(#paint4_linear)"/>
<path d="M35.001 43.8359C40.5578 40.9919 44.425 38.4239 44.1286 34.9345C43.8322 31.4465 38.1754 28.4559 34.1088 31.2612C30.0421 34.0665 17.8234 41.7372 13.9078 59.2452C13.1426 61.8439 20.3453 61.5972 23.5697 55.0865C26.7942 48.5745 33.0505 44.8652 35.001 43.8359" fill="#ED8206"/>
<path d="M119.227 43.8359C113.669 40.9919 109.803 38.4239 110.099 34.9345C110.396 31.4465 116.052 28.4559 120.119 31.2612C124.185 34.0665 136.404 41.7372 140.32 59.2452C141.085 61.8439 133.883 61.5972 130.659 55.0865C127.433 48.5745 121.177 44.8652 119.227 43.8359Z" fill="#ED8206"/>
<path d="M35.9172 142.087C27.3203 136.603 19.9183 129.472 14.1265 121.109C17.438 112.604 25.9812 101.165 28.6057 97.78C28.7953 97.5267 29.0803 97.4 29.3656 97.4C29.6505 97.4 29.9355 97.5267 30.1255 97.78C33.3839 102.016 45.962 118.865 45.962 126.829C45.962 133.671 41.8172 139.552 35.9172 142.087Z" fill="url(#paint5_radial)"/>
<path d="M10.9625 125.025C10.9625 134.189 18.3907 141.616 27.5531 141.616C36.7161 141.616 44.1443 134.189 44.1443 125.025C44.1443 117.052 31.5803 100.201 28.3193 95.9626C27.9292 95.456 27.1776 95.456 26.7875 95.9626C23.5265 100.201 10.9625 117.052 10.9625 125.025Z" fill="#7FD0EF"/>
<defs>
<radialGradient id="paint0_radial" cx="0" cy="0" r="1" gradientUnits="userSpaceOnUse" gradientTransform="translate(76.6744 51.7054) scale(89.1064)">
<stop stop-color="#FFF081"/>
<stop offset="1" stop-color="#FD8C05"/>
</radialGradient>
<radialGradient id="paint1_radial" cx="0" cy="0" r="1" gradientUnits="userSpaceOnUse" gradientTransform="translate(76.6744 51.7054) scale(89.1064)">
<stop stop-color="#FFDA28"/>
<stop offset="1" stop-color="#FD7F02"/>
</radialGradient>
<radialGradient id="paint2_radial" cx="0" cy="0" r="1" gradientUnits="userSpaceOnUse" gradientTransform="translate(44.1444 72.5065) scale(17.6988)">
<stop stop-color="#3C2415"/>
<stop offset="0.660514" stop-color="#3C2415"/>
<stop offset="1" stop-color="#24160D"/>
</radialGradient>
<radialGradient id="paint3_radial" cx="0" cy="0" r="1" gradientUnits="userSpaceOnUse" gradientTransform="translate(110.083 72.5065) scale(13.1527)">
<stop stop-color="#3C2415"/>
<stop offset="0.660514" stop-color="#3C2415"/>
<stop offset="1" stop-color="#24160D"/>
</radialGradient>
<linearGradient id="paint4_linear" x1="77.1139" y1="107.649" x2="77.1139" y2="121.486" gradientUnits="userSpaceOnUse">
<stop stop-color="#781512"/>
<stop offset="1" stop-color="#380A08"/>
</linearGradient>
<radialGradient id="paint5_radial" cx="0" cy="0" r="1" gradientUnits="userSpaceOnUse" gradientTransform="translate(76.6744 51.7054) scale(89.1064)">
<stop stop-color="#FFD61B"/>
<stop offset="1" stop-color="#FD7D01"/>
</radialGradient>
</defs>
</svg>
