<svg width="154" height="155" viewBox="0 0 154 155" fill="none" xmlns="http://www.w3.org/2000/svg">
<path d="M76.8506 154.149C34.5093 154.149 0.18396 119.825 0.18396 77.4828C0.18396 35.1414 34.5093 0.81609 76.8506 0.81609C119.193 0.81609 153.517 35.1414 153.517 77.4828C153.517 119.825 119.193 154.149 76.8506 154.149ZM39.344 144.285C50.432 150.525 63.2213 154.101 76.852 154.101C119.167 154.101 153.469 119.797 153.469 77.4828C153.469 76.0041 153.417 74.5374 153.335 73.0787C150.273 99.3854 133.364 124.573 106.403 138.409C93.156 145.208 79.0973 148.435 65.4773 148.435C56.4533 148.435 47.6213 147.019 39.344 144.285" fill="url(#paint0_radial)"/>
<path d="M76.852 154.101C63.2213 154.101 50.432 150.525 39.344 144.285C47.6213 147.019 56.4533 148.435 65.4773 148.435C79.0973 148.435 93.156 145.208 106.403 138.409C133.364 124.573 150.273 99.3853 153.335 73.0787C153.417 74.5373 153.469 76.004 153.469 77.4827C153.469 119.797 119.167 154.101 76.852 154.101" fill="url(#paint1_radial)"/>
<path d="M118.208 105.937L118.132 105.901C115.771 104.992 112.505 106.181 110.265 108.208C107.267 110.951 103.821 113.169 100.133 114.859C97.1466 116.369 93.7906 117.605 90.1746 118.464C86.544 119.324 82.9893 119.727 79.624 119.711C75.5853 119.853 71.528 119.413 67.636 118.319C64.724 117.513 61.2719 117.919 59.5706 119.791L59.5026 119.861C57.808 121.692 59.1079 124.749 62.8226 126.167C70.9893 129.271 80.2799 130.043 89.4586 128.672C90.4506 128.485 91.4479 128.283 92.4533 128.044C93.4613 127.805 94.4466 127.539 95.4186 127.259C104.235 124.36 112.187 119.5 118.073 113.063C120.773 110.124 120.561 106.808 118.208 105.937" fill="url(#paint2_linear)"/>
<path d="M31.892 73.6213C34.9653 67.656 40.3867 61.692 52.136 61.692C59.5467 61.692 64.4267 66.572 64.4267 73.6213C64.4267 80.6693 60.2693 84.4653 55.028 84.4653C50.28 84.4653 44.5947 81.7479 44.996 75.2373C45.0947 73.6373 43.82 72.28 42.2173 72.2293C39.9306 72.1573 37.4053 72.6946 36.1693 74.6453C34.18 77.7879 30.6266 77.8987 31.892 73.6213" fill="url(#paint3_radial)"/>
<path d="M89.5413 73.6213C92.6147 67.656 98.0373 61.692 109.785 61.692C117.196 61.692 122.076 66.572 122.076 73.6213C122.076 80.6693 117.919 84.4653 112.677 84.4653C107.931 84.4653 102.244 81.7479 102.645 75.2373C102.744 73.6373 101.469 72.28 99.8667 72.2293C97.58 72.1573 95.0546 72.6946 93.82 74.6453C91.8293 77.7879 88.276 77.8987 89.5413 73.6213" fill="url(#paint4_radial)"/>
<path d="M49.9546 48.0372C56.1093 49.0745 60.7453 49.3239 62.5906 46.3479C64.4373 43.3719 61.6852 37.5959 56.7479 37.4186C51.8106 37.2399 37.4293 36.0959 23.8333 47.7999C21.6679 49.4279 27.5919 53.5319 34.0666 50.2345C40.5413 46.9372 47.7746 47.6985 49.9546 48.0372" fill="#ED8206"/>
<path d="M103.748 48.0372C97.592 49.0745 92.9574 49.3239 91.1107 46.3479C89.2654 43.3719 92.0174 37.5959 96.9547 37.4186C101.892 37.2399 116.273 36.0959 129.869 47.7999C132.035 49.4279 126.111 53.5319 119.636 50.2345C113.16 46.9372 105.928 47.6985 103.748 48.0372Z" fill="#ED8206"/>
<defs>
<radialGradient id="paint0_radial" cx="0" cy="0" r="1" gradientUnits="userSpaceOnUse" gradientTransform="translate(76.4066 51.7054) scale(89.1064)">
<stop stop-color="#FFF081"/>
<stop offset="1" stop-color="#FD8C05"/>
</radialGradient>
<radialGradient id="paint1_radial" cx="0" cy="0" r="1" gradientUnits="userSpaceOnUse" gradientTransform="translate(76.4067 51.7053) scale(89.1064)">
<stop stop-color="#FFDA28"/>
<stop offset="1" stop-color="#FD7F02"/>
</radialGradient>
<linearGradient id="paint2_linear" x1="92.4799" y1="128.159" x2="88.6424" y2="111.98" gradientUnits="userSpaceOnUse">
<stop stop-color="#781512"/>
<stop offset="1" stop-color="#380A08"/>
</linearGradient>
<radialGradient id="paint3_radial" cx="0" cy="0" r="1" gradientUnits="userSpaceOnUse" gradientTransform="translate(50.5907 73.0786) scale(14.118)">
<stop stop-color="#3C2415"/>
<stop offset="0.660514" stop-color="#3C2415"/>
<stop offset="1" stop-color="#24160D"/>
</radialGradient>
<radialGradient id="paint4_radial" cx="0" cy="0" r="1" gradientUnits="userSpaceOnUse" gradientTransform="translate(108.24 73.0786) scale(14.118)">
<stop stop-color="#3C2415"/>
<stop offset="0.660514" stop-color="#3C2415"/>
<stop offset="1" stop-color="#24160D"/>
</radialGradient>
</defs>
</svg>
