<svg width="154" height="154" viewBox="0 0 154 154" fill="none" xmlns="http://www.w3.org/2000/svg">
<path d="M77.2172 153.783C34.8759 153.783 0.550537 119.457 0.550537 77.1161C0.550537 34.7734 34.8759 0.449391 77.2172 0.449391C119.559 0.449391 153.884 34.7734 153.884 77.1161C153.884 119.457 119.559 153.783 77.2172 153.783ZM39.7106 143.919C50.7986 150.159 63.5879 153.733 77.2172 153.733C119.532 153.733 153.835 119.431 153.835 77.1161C153.835 75.6361 153.783 74.1694 153.7 72.7107C150.64 99.0187 133.729 124.207 106.769 138.043C93.5225 144.84 79.4626 148.068 65.8426 148.068C56.8186 148.068 47.9879 146.652 39.7106 143.919" fill="url(#paint0_radial)"/>
<path d="M77.2173 153.733C63.588 153.733 50.7987 150.159 39.7107 143.919C47.988 146.652 56.8187 148.068 65.8427 148.068C79.4627 148.068 93.5226 144.84 106.769 138.043C133.729 124.207 150.64 99.0187 153.7 72.7107C153.783 74.1694 153.835 75.6361 153.835 77.1161C153.835 119.431 119.532 153.733 77.2173 153.733" fill="url(#paint1_radial)"/>
<path d="M46.4172 37.5707C52.5372 36.3454 56.9586 34.9266 57.6226 31.4893C58.2866 28.0506 53.6573 23.6347 48.9813 25.2267C44.3039 26.82 30.4586 30.8746 21.9253 46.656C20.4826 48.948 27.4799 50.672 32.3546 45.2827C37.2293 39.8947 44.2599 38.0294 46.4172 37.5707Z" fill="#ED8206"/>
<path d="M108.017 37.5707C101.897 36.3454 97.4773 34.9266 96.812 31.4893C96.148 28.0506 100.777 23.6347 105.453 25.2267C110.131 26.82 123.976 30.8746 132.509 46.656C133.952 48.948 126.955 50.672 122.08 45.2827C117.205 39.8947 110.175 38.0294 108.017 37.5707Z" fill="#ED8206"/>
<path d="M107.317 99.8455C102.928 98.6535 98.3798 100.183 94.8412 103.04C90.2398 106.759 81.3412 106.655 77.2172 106.655C73.0932 106.655 64.1946 106.759 59.5933 103.041C56.0559 100.183 51.5066 98.6535 47.1172 99.8455C42.3372 101.146 37.6906 104.839 37.6226 113.743C37.6226 117.664 39.4092 125.356 47.1078 125.055C51.2332 124.754 51.5079 120.078 59.4826 120.078C67.4559 120.078 77.2172 120.531 77.2172 120.531C77.2172 120.531 86.9785 120.078 94.9519 120.078C102.927 120.078 103.201 124.754 107.327 125.055C115.025 125.356 116.812 117.664 116.812 113.743C116.744 104.839 112.097 101.146 107.317 99.8455Z" fill="url(#paint2_linear)"/>
<path d="M62.116 73.4958C62.116 81.2424 56.6466 87.5225 49.8999 87.5225C43.1533 87.5225 37.6826 81.2424 37.6826 73.4958C37.6826 65.7491 43.1533 59.4691 49.8999 59.4691C56.6466 59.4691 62.116 65.7491 62.116 73.4958Z" fill="url(#paint3_radial)"/>
<path d="M116.752 73.4958C116.752 81.2424 111.281 87.5225 104.535 87.5225C97.788 87.5225 92.3186 81.2424 92.3186 73.4958C92.3186 65.7491 97.788 59.4691 104.535 59.4691C111.281 59.4691 116.752 65.7491 116.752 73.4958Z" fill="url(#paint4_radial)"/>
<path d="M51.9814 69.3334C51.9814 71.7828 49.9959 73.7681 47.5466 73.7681C45.0986 73.7681 43.1133 71.7828 43.1133 69.3334C43.1133 66.8841 45.0986 64.8988 47.5466 64.8988C49.9959 64.8988 51.9814 66.8841 51.9814 69.3334Z" fill="white"/>
<path d="M106.617 69.3334C106.617 71.7828 104.632 73.7681 102.183 73.7681C99.7333 73.7681 97.748 71.7828 97.748 69.3334C97.748 66.8841 99.7333 64.8988 102.183 64.8988C104.632 64.8988 106.617 66.8841 106.617 69.3334Z" fill="white"/>
<defs>
<radialGradient id="paint0_radial" cx="0" cy="0" r="1" gradientUnits="userSpaceOnUse" gradientTransform="translate(76.7732 51.3387) scale(89.1064)">
<stop stop-color="#FFF081"/>
<stop offset="1" stop-color="#FD8C05"/>
</radialGradient>
<radialGradient id="paint1_radial" cx="0" cy="0" r="1" gradientUnits="userSpaceOnUse" gradientTransform="translate(76.7733 51.3387) scale(89.1064)">
<stop stop-color="#FFDA28"/>
<stop offset="1" stop-color="#FD7F02"/>
</radialGradient>
<linearGradient id="paint2_linear" x1="77.2172" y1="125.064" x2="77.2172" y2="99.439" gradientUnits="userSpaceOnUse">
<stop stop-color="#781512"/>
<stop offset="1" stop-color="#380A08"/>
</linearGradient>
<radialGradient id="paint3_radial" cx="0" cy="0" r="1" gradientUnits="userSpaceOnUse" gradientTransform="translate(49.9 73.4958) scale(17.6987)">
<stop stop-color="#3C2415"/>
<stop offset="0.660514" stop-color="#3C2415"/>
<stop offset="1" stop-color="#24160D"/>
</radialGradient>
<radialGradient id="paint4_radial" cx="0" cy="0" r="1" gradientUnits="userSpaceOnUse" gradientTransform="translate(104.535 73.4958) scale(13.1527)">
<stop stop-color="#3C2415"/>
<stop offset="0.660514" stop-color="#3C2415"/>
<stop offset="1" stop-color="#24160D"/>
</radialGradient>
</defs>
</svg>
