<svg width="154" height="162" viewBox="0 0 154 162" fill="none" xmlns="http://www.w3.org/2000/svg">
<path d="M77.1156 153.729C34.774 153.729 0.448914 119.405 0.448914 77.0626C0.448914 34.7213 34.774 0.395956 77.1156 0.395956C119.457 0.395956 153.783 34.7213 153.783 77.0626C153.783 119.405 119.457 153.729 77.1156 153.729V153.729ZM39.6084 143.867C50.6973 150.105 63.486 153.681 77.1156 153.681C119.431 153.681 153.733 119.379 153.733 77.0626C153.733 75.5839 153.681 74.1172 153.599 72.6586C150.539 98.9652 133.628 124.153 106.667 137.989C93.4208 144.788 79.362 148.015 65.7412 148.015C56.7172 148.015 47.886 146.599 39.6084 143.867" fill="url(#paint0_radial)"/>
<path d="M77.1156 153.681C63.486 153.681 50.6973 150.105 39.6084 143.867C47.886 146.599 56.7172 148.015 65.7412 148.015C79.362 148.015 93.4208 144.788 106.667 137.989C133.628 124.153 150.539 98.9654 153.599 72.6587C153.681 74.1174 153.733 75.584 153.733 77.0627C153.733 119.379 119.431 153.681 77.1156 153.681Z" fill="url(#paint1_radial)"/>
<path d="M46.4364 38.9801C52.6645 38.5655 57.2322 37.7348 58.3396 34.4135C59.4469 31.0908 55.4328 26.1081 50.5885 27.0775C45.7442 28.0468 31.4885 30.2601 20.9693 44.7934C19.2396 46.8788 25.9521 49.5001 31.4885 44.7934C37.0245 40.0881 44.2374 39.1548 46.4364 38.9801Z" fill="#ED8206"/>
<path d="M107.796 38.9801C101.567 38.5655 96.9995 37.7348 95.8921 34.4135C94.7855 31.0908 98.7989 26.1081 103.643 27.0775C108.488 28.0468 122.744 30.2601 133.263 44.7934C134.992 46.8788 128.28 49.5001 122.744 44.7934C117.207 40.0881 109.995 39.1548 107.796 38.9801" fill="#ED8206"/>
<path d="M114.541 109.044C111.844 112.693 108.253 118.087 102.442 122.571C96.6453 127.056 88.6417 130.632 77.1197 130.632C65.5973 130.632 57.5797 127.056 51.7823 122.571C45.9855 118.072 42.3948 112.693 39.6979 109.044C37.261 105.771 37.1891 102.685 37.9817 100.335C38.0973 100.003 38.2271 99.6708 38.3713 99.3681C39.4531 97.0614 41.3421 95.6761 42.164 95.9068C54.3063 101.517 70.8177 100.724 77.1197 100.724C83.4068 100.724 99.9328 101.517 112.06 95.9068C112.897 95.6761 114.772 97.0614 115.853 99.3681C116.012 99.6708 116.141 100.003 116.243 100.335C117.051 102.685 116.964 105.771 114.541 109.044" fill="url(#paint2_linear)"/>
<path d="M94.4907 110.435C92.6265 109.276 90.4364 108.624 88.1021 108.624C85.8036 108.624 83.6677 109.257 81.8579 110.361C79.8131 111.556 78.1656 113.348 77.1161 115.484C76.0661 113.348 74.4193 111.556 72.374 110.361C70.564 109.257 68.4287 108.624 66.1303 108.624C63.7953 108.624 61.6057 109.276 59.7412 110.435L59.6703 110.477C56.4287 112.463 54.6011 116.131 54.6011 119.932V125.004V138.976C54.6011 151.28 64.576 161.256 76.8807 161.256H77.3333C89.6584 161.256 99.6307 151.283 99.6307 138.976V125.004V119.932C99.6307 116.131 97.8031 112.463 94.562 110.477L94.4907 110.435" fill="url(#paint3_linear)"/>
<path d="M27.5255 70.0653C32.4473 63.3946 41.5599 52.9613 46.1161 52.9613C50.6729 52.9613 58.4568 60.3159 64.5317 70.0653C65.2912 71.9466 64.1521 76.9066 59.2156 76.5653C54.2797 76.2226 52.3812 67.7839 47.0656 65.9599C45.5469 65.5039 39.7251 69.9506 34.9156 75.1959C32.3844 77.5906 24.5677 73.8813 27.5255 70.0653Z" fill="url(#paint4_radial)"/>
<path d="M126.707 70.0653C121.784 63.3946 112.672 52.9613 108.116 52.9613C103.559 52.9613 95.7755 60.3159 89.7005 70.0653C88.9412 71.9466 90.0803 76.9066 95.0161 76.5653C99.9521 76.2226 101.851 67.7839 107.167 65.9599C108.685 65.5039 114.507 69.9506 119.316 75.1959C121.848 77.5906 129.664 73.8813 126.707 70.0653Z" fill="url(#paint5_radial)"/>
<defs>
<radialGradient id="paint0_radial" cx="0" cy="0" r="1" gradientUnits="userSpaceOnUse" gradientTransform="translate(76.6713 51.2853) scale(89.1064)">
<stop stop-color="#FFF081"/>
<stop offset="1" stop-color="#FD8C05"/>
</radialGradient>
<radialGradient id="paint1_radial" cx="0" cy="0" r="1" gradientUnits="userSpaceOnUse" gradientTransform="translate(76.6713 51.2854) scale(89.1064)">
<stop stop-color="#FFDA28"/>
<stop offset="1" stop-color="#FD7F02"/>
</radialGradient>
<linearGradient id="paint2_linear" x1="77.116" y1="130.632" x2="77.116" y2="95.8822" gradientUnits="userSpaceOnUse">
<stop stop-color="#781512"/>
<stop offset="1" stop-color="#380A08"/>
</linearGradient>
<linearGradient id="paint3_linear" x1="77.116" y1="161.256" x2="77.116" y2="108.625" gradientUnits="userSpaceOnUse">
<stop stop-color="#D63744"/>
<stop offset="0.660514" stop-color="#D63744"/>
<stop offset="1" stop-color="#8C242C"/>
</linearGradient>
<radialGradient id="paint4_radial" cx="0" cy="0" r="1" gradientUnits="userSpaceOnUse" gradientTransform="translate(45.8065 64.7706) scale(16.2871 14.6744)">
<stop stop-color="#3C2415"/>
<stop offset="0.660514" stop-color="#3C2415"/>
<stop offset="1" stop-color="#24160D"/>
</radialGradient>
<radialGradient id="paint5_radial" cx="0" cy="0" r="1" gradientUnits="userSpaceOnUse" gradientTransform="translate(108.425 64.7706) rotate(180) scale(16.2871 14.6744)">
<stop stop-color="#3C2415"/>
<stop offset="0.660514" stop-color="#3C2415"/>
<stop offset="1" stop-color="#24160D"/>
</radialGradient>
</defs>
</svg>
