<svg width="154" height="154" viewBox="0 0 154 154" fill="none" xmlns="http://www.w3.org/2000/svg">
<path d="M77.2172 153.334C34.8759 153.334 0.550537 119.01 0.550537 76.6678C0.550537 34.3265 34.8759 0.00114846 77.2172 0.00114846C119.559 0.00114846 153.884 34.3265 153.884 76.6678C153.884 119.01 119.559 153.334 77.2172 153.334ZM39.7106 143.47C50.7986 149.71 63.5879 153.286 77.2172 153.286C119.532 153.286 153.835 118.982 153.835 76.6678C153.835 75.1891 153.783 73.7225 153.7 72.2638C150.64 98.5705 133.729 123.759 106.769 137.594C93.5225 144.392 79.4639 147.62 65.8426 147.62C56.8186 147.62 47.9879 146.204 39.7106 143.47" fill="url(#paint0_radial)"/>
<path d="M77.2173 153.287C63.588 153.287 50.7987 149.711 39.7107 143.471C47.988 146.204 56.8187 147.62 65.8427 147.62C79.4641 147.62 93.5226 144.392 106.769 137.595C133.729 123.759 150.64 98.5706 153.7 72.264C153.783 73.7226 153.835 75.1893 153.835 76.6679C153.835 118.983 119.532 153.287 77.2173 153.287" fill="url(#paint1_radial)"/>
<path d="M61.048 63.144C61.048 74.3894 51.68 83.5054 40.1226 83.5054C28.5653 83.5054 19.1974 74.3894 19.1974 63.144C19.1974 51.9 28.5653 42.784 40.1226 42.784C51.68 42.784 61.048 51.9 61.048 63.144Z" fill="white"/>
<path d="M38.4959 52.7653C38.4959 56.6306 35.3627 59.7639 31.4974 59.7639C27.632 59.7639 24.4987 56.6306 24.4987 52.7653C24.4987 48.9 27.632 45.7666 31.4974 45.7666C35.3627 45.7666 38.4959 48.9 38.4959 52.7653Z" fill="url(#paint2_radial)"/>
<path d="M135.237 63.144C135.237 74.3894 125.869 83.5054 114.312 83.5054C102.755 83.5054 93.3867 74.3894 93.3867 63.144C93.3867 51.9 102.755 42.784 114.312 42.784C125.869 42.784 135.237 51.9 135.237 63.144Z" fill="white"/>
<path d="M112.685 52.7653C112.685 56.6306 109.552 59.7639 105.687 59.7639C101.821 59.7639 98.688 56.6306 98.688 52.7653C98.688 48.9 101.821 45.7666 105.687 45.7666C109.552 45.7666 112.685 48.9 112.685 52.7653Z" fill="url(#paint3_radial)"/>
<path d="M77.2106 116.544C82.4426 115.799 87.824 116.092 92.9146 117.484C97.3746 118.777 103.053 115.769 100.259 111.44C100.171 111.317 100.08 111.196 99.9893 111.073C91.2146 96.7054 58.2306 101.399 53.8106 117.643C53.7573 117.785 53.7053 117.928 53.6533 118.071C52.1773 123.007 58.4692 124.311 62.3906 121.827C66.8919 119.069 71.9773 117.288 77.2106 116.544" fill="url(#paint4_linear)"/>
<defs>
<radialGradient id="paint0_radial" cx="0" cy="0" r="1" gradientUnits="userSpaceOnUse" gradientTransform="translate(76.7732 50.8905) scale(89.1064)">
<stop stop-color="#FFF081"/>
<stop offset="1" stop-color="#FD8C05"/>
</radialGradient>
<radialGradient id="paint1_radial" cx="0" cy="0" r="1" gradientUnits="userSpaceOnUse" gradientTransform="translate(76.7733 50.8906) scale(89.1064)">
<stop stop-color="#FFDA28"/>
<stop offset="1" stop-color="#FD7F02"/>
</radialGradient>
<radialGradient id="paint2_radial" cx="0" cy="0" r="1" gradientUnits="userSpaceOnUse" gradientTransform="translate(31.4973 52.7653) scale(6.9985)">
<stop stop-color="#3C2415"/>
<stop offset="0.660514" stop-color="#3C2415"/>
<stop offset="1" stop-color="#24160D"/>
</radialGradient>
<radialGradient id="paint3_radial" cx="0" cy="0" r="1" gradientUnits="userSpaceOnUse" gradientTransform="translate(105.687 52.7653) scale(6.9985)">
<stop stop-color="#3C2415"/>
<stop offset="0.660514" stop-color="#3C2415"/>
<stop offset="1" stop-color="#24160D"/>
</radialGradient>
<linearGradient id="paint4_linear" x1="77.7506" y1="120.339" x2="75.2674" y2="102.879" gradientUnits="userSpaceOnUse">
<stop stop-color="#781512"/>
<stop offset="1" stop-color="#380A08"/>
</linearGradient>
</defs>
</svg>
