<svg width="155" height="154" viewBox="0 0 155 154" fill="none" xmlns="http://www.w3.org/2000/svg">
<path d="M77.4826 153.334C35.1413 153.334 0.815979 119.01 0.815979 76.6678C0.815979 34.3265 35.1413 0.00114846 77.4826 0.00114846C119.825 0.00114846 154.149 34.3265 154.149 76.6678C154.149 119.01 119.825 153.334 77.4826 153.334ZM39.976 143.47C51.064 149.71 63.8533 153.286 77.4826 153.286C119.799 153.286 154.101 118.982 154.101 76.6678C154.101 75.1891 154.049 73.7225 153.967 72.2638C150.905 98.5705 133.996 123.759 107.035 137.594C93.788 144.392 79.7293 147.62 66.108 147.62C57.084 147.62 48.2533 146.204 39.976 143.47V143.47ZM109.292 38.8972C97.8013 38.8972 89.6546 43.6505 86.2946 45.4385C81.9346 47.7585 81.9866 54.1572 84.948 56.0239C85.68 56.4865 86.4786 56.6959 87.3426 56.6959C89.9773 56.6959 93.2253 54.7438 97.0506 52.0145C98.8319 50.7772 104.827 47.0345 111.933 47.0345C112.055 47.0345 112.176 47.0358 112.297 47.0385C112.373 47.0398 112.448 47.0398 112.523 47.0398C119.635 47.0398 123.067 40.8825 120.435 40.3718C116.448 39.3198 112.721 38.8972 109.292 38.8972ZM43.032 47.0345C50.1386 47.0345 56.1346 50.7772 57.916 52.0145C61.7413 54.7438 64.9879 56.6959 67.6226 56.6959C68.4879 56.6959 69.2866 56.4865 70.0173 56.0239C72.9799 54.1572 73.032 47.7585 68.6706 45.4385C65.312 43.6505 57.1653 38.8972 45.6746 38.8972C42.244 38.8972 38.5186 39.3198 34.532 40.3718C31.9 40.8825 35.332 47.0398 42.444 47.0398C42.5186 47.0398 42.592 47.0398 42.668 47.0385C42.7893 47.0358 42.912 47.0345 43.032 47.0345" fill="url(#paint0_radial)"/>
<path d="M77.4827 153.287C63.8533 153.287 51.064 149.711 39.976 143.471C48.2533 146.204 57.084 147.62 66.108 147.62C79.7293 147.62 93.788 144.392 107.035 137.595C133.996 123.759 150.905 98.5706 153.967 72.264C154.049 73.7226 154.101 75.1893 154.101 76.6679C154.101 118.983 119.799 153.287 77.4827 153.287" fill="url(#paint1_radial)"/>
<path d="M62.3827 66.3507C62.3827 74.0974 56.912 80.3774 50.1653 80.3774C43.4187 80.3774 37.9493 74.0974 37.9493 66.3507C37.9493 58.6041 43.4187 52.3241 50.1653 52.3241C56.912 52.3241 62.3827 58.6041 62.3827 66.3507Z" fill="url(#paint2_radial)"/>
<path d="M117.017 66.3507C117.017 74.0974 111.548 80.3774 104.8 80.3774C98.0533 80.3774 92.584 74.0974 92.584 66.3507C92.584 58.6041 98.0533 52.3241 104.8 52.3241C111.548 52.3241 117.017 58.6041 117.017 66.3507Z" fill="url(#paint3_radial)"/>
<path d="M52.248 62.1892C52.248 64.6372 50.2627 66.6226 47.8133 66.6226C45.364 66.6226 43.3787 64.6372 43.3787 62.1892C43.3787 59.7399 45.364 57.7546 47.8133 57.7546C50.2627 57.7546 52.248 59.7399 52.248 62.1892Z" fill="white"/>
<path d="M106.883 62.1892C106.883 64.6372 104.897 66.6226 102.448 66.6226C99.9987 66.6226 98.0133 64.6372 98.0133 62.1892C98.0133 59.7399 99.9987 57.7546 102.448 57.7546C104.897 57.7546 106.883 59.7399 106.883 62.1892Z" fill="white"/>
<path d="M87.3427 56.696C86.4787 56.696 85.68 56.4867 84.948 56.024C81.9867 54.1574 81.9347 47.7587 86.2947 45.4387C89.6547 43.6507 97.8013 38.8973 109.292 38.8973C112.721 38.8973 116.448 39.32 120.435 40.372C123.067 40.8827 119.635 47.04 112.523 47.04C112.448 47.04 112.373 47.04 112.297 47.0387C112.176 47.036 112.055 47.0347 111.933 47.0347C104.827 47.0347 98.832 50.7773 97.0507 52.0147C93.2253 54.744 89.9773 56.696 87.3427 56.696Z" fill="url(#paint4_radial)"/>
<path d="M67.6227 56.696C64.988 56.696 61.7414 54.744 57.916 52.0147C56.1347 50.7773 50.1387 47.0347 43.032 47.0347C42.912 47.0347 42.7894 47.036 42.668 47.0387C42.592 47.04 42.5187 47.04 42.444 47.04C35.332 47.04 31.9 40.8827 34.532 40.372C38.5187 39.32 42.244 38.8973 45.6747 38.8973C57.1654 38.8973 65.312 43.6507 68.6707 45.4387C73.032 47.7587 72.98 54.1574 70.0174 56.024C69.2867 56.4867 68.488 56.696 67.6227 56.696" fill="url(#paint5_radial)"/>
<path d="M115.563 110.66C115.581 112.615 115.527 114.371 115.4 115.964C114.567 126.297 110.657 129.609 102.243 130.895C97.1387 131.691 89.9707 123.475 77.4827 123.475C64.9947 123.475 57.828 131.691 52.724 130.895C44.308 129.609 40.3987 126.297 39.5667 115.964C39.44 114.371 39.3853 112.615 39.404 110.66C39.404 110.1 39.404 109.503 39.4213 108.905C39.8373 92.888 66.244 93.1053 77.4827 93.1053C88.7227 93.1053 115.128 92.888 115.544 108.905C115.563 109.503 115.563 110.1 115.563 110.66" fill="url(#paint6_linear)"/>
<path d="M39.3994 110.661C49.5709 113.16 62.8924 114.663 77.4788 114.663C77.4788 113.67 77.4788 112.674 77.4788 111.682C63.3423 111.682 49.5189 110.681 39.4157 108.966C39.3997 109.532 39.4001 110.099 39.4001 110.661H39.3994Z" fill="#E7E7E7"/>
<path d="M39.415 108.966C49.5182 110.681 63.3417 111.682 77.4782 111.682C77.4782 110.686 77.4782 109.694 77.4782 108.706C63.7957 108.706 49.5906 108.207 39.5557 107.279C39.4717 107.841 39.4316 108.404 39.415 108.966V108.966Z" fill="#F9F9F9"/>
<path d="M77.4795 114.663C92.07 114.663 105.391 113.16 115.562 110.661C115.562 110.099 115.563 109.532 115.547 108.966C105.443 110.681 91.616 111.682 77.4795 111.682C77.4795 112.674 77.4795 113.67 77.4795 114.663V114.663Z" fill="#E7E7E7"/>
<path d="M77.4795 111.682C91.616 111.682 105.443 110.681 115.546 108.966C115.526 108.404 115.486 107.841 115.406 107.279C105.371 108.207 91.1662 108.706 77.4795 108.706C77.4795 109.694 77.4795 110.686 77.4795 111.682V111.682Z" fill="#F9F9F9"/>
<path d="M39.5557 107.279C49.5906 108.207 63.7957 108.706 77.4782 108.706C77.4782 106.729 77.4782 104.84 77.4782 103.032C65.1857 103.032 50.0206 103.206 40.4437 104.182C40.0218 105.134 39.7203 106.162 39.5557 107.279V107.279Z" fill="white"/>
<path d="M77.4795 108.706C91.1662 108.706 105.371 108.207 115.406 107.279C115.241 106.162 114.94 105.134 114.514 104.182C104.941 103.206 89.7722 103.032 77.4795 103.032C77.4795 104.84 77.4795 106.729 77.4795 108.706V108.706Z" fill="white"/>
<path d="M40.4443 104.183C50.0213 103.207 65.1863 103.033 77.4788 103.033C77.4788 101.225 77.4788 99.498 77.4788 97.8469C67.1788 97.8469 50.9771 97.8748 42.0628 101.575C41.4122 102.366 40.8701 103.235 40.4443 104.183Z" fill="white"/>
<path d="M77.4795 103.033C89.7722 103.033 104.941 103.207 114.514 104.183C114.092 103.235 113.546 102.366 112.899 101.575C103.985 97.8749 87.7836 97.8469 77.4795 97.8469C77.4795 99.498 77.4795 101.225 77.4795 103.033Z" fill="white"/>
<path d="M42.0635 101.574C50.9777 97.8746 67.1795 97.8466 77.4795 97.8466C77.4795 97.4329 77.4795 97.0231 77.4795 96.6213C67.4888 96.6213 51.3797 96.8668 42.5661 100.992C42.3933 101.181 42.2243 101.374 42.0635 101.574Z" fill="white"/>
<path d="M42.5654 100.993C51.379 96.8672 67.4882 96.6217 77.4788 96.6217C77.4788 96.2159 77.4788 95.8188 77.4788 95.4251C68.171 95.4251 51.6925 95.3766 43.1077 100.438C42.9229 100.619 42.7421 100.804 42.5654 100.993V100.993Z" fill="#FBFDFD"/>
<path d="M43.1084 100.437C51.6932 95.3754 68.1716 95.4239 77.4795 95.4239C77.4795 95.0303 77.4795 94.6404 77.4795 94.2508C68.8546 94.2508 52.0463 93.9133 43.6865 99.9109C43.4896 100.084 43.2972 100.256 43.1084 100.437V100.437Z" fill="#F1F7F9"/>
<path d="M43.6865 99.9115C52.0463 93.9139 68.8546 94.2514 77.4795 94.2514C77.4795 93.8656 77.4795 93.4844 77.4795 93.1068C69.1679 93.1068 52.5524 92.99 44.3011 99.4089C44.0923 99.5696 43.8873 99.7389 43.6865 99.9115V99.9115Z" fill="#DFEEF2"/>
<path d="M77.4795 97.8466C87.7836 97.8466 103.985 97.8745 112.899 101.574C112.734 101.374 112.566 101.181 112.393 100.992C103.583 96.8668 87.4743 96.6213 77.4795 96.6213C77.4795 97.0231 77.4795 97.4329 77.4795 97.8466Z" fill="white"/>
<path d="M77.4795 96.6217C87.4743 96.6217 103.583 96.8672 112.393 100.993C112.216 100.804 112.035 100.619 111.851 100.438C103.266 95.3765 86.7874 95.4251 77.4795 95.4251C77.4795 95.8188 77.4795 96.2159 77.4795 96.6217Z" fill="#FBFDFD"/>
<path d="M77.4795 95.4239C86.7874 95.4239 103.266 95.3755 111.851 100.437C111.662 100.256 111.469 100.084 111.272 99.9109C102.916 93.9133 86.1044 94.2508 77.4795 94.2508C77.4795 94.6404 77.4795 95.0303 77.4795 95.4239V95.4239Z" fill="#F1F7F9"/>
<path d="M77.4795 94.2514C86.1044 94.2514 102.916 93.9139 111.272 99.9115C111.075 99.7389 110.87 99.5696 110.661 99.4089C102.406 92.9895 85.7951 93.1068 77.4795 93.1068C77.4795 93.4844 77.4795 93.8656 77.4795 94.2514V94.2514Z" fill="#DFEEF2"/>
<path d="M52.7145 130.9C54.9595 131.25 57.6059 129.854 60.9307 128.185C60.5551 127.665 60.3373 127.024 60.2646 126.175C56.0393 127.417 51.7455 129.662 47.2256 129.475C48.7876 130.132 50.6104 130.58 52.7145 130.9V130.9Z" fill="white"/>
<path d="M60.93 128.185C65.1553 126.055 70.4777 123.482 77.4645 123.478C77.4645 123.666 77.4775 123.73 77.4775 123.585C71.673 123.585 65.826 124.54 60.2646 126.174C60.338 127.024 60.5551 127.664 60.9307 128.185H60.93Z" fill="white"/>
<path d="M77.4648 123.478H77.4779C77.4779 123.666 77.4776 123.73 77.4909 123.585H77.4779C77.4779 123.73 77.4648 123.666 77.4648 123.478Z" fill="white"/>
<path d="M77.4772 123.478C84.2421 123.478 89.4451 125.888 93.6022 127.971C93.9351 127.476 94.1185 126.854 94.1569 126.026C88.7578 124.494 83.1067 123.589 77.4857 123.585C77.4857 123.73 77.4727 123.666 77.4727 123.478H77.4772Z" fill="white"/>
<path d="M93.6025 127.972C97.1237 129.735 99.8979 131.263 102.237 130.9C104.341 130.58 106.163 130.132 107.726 129.475C103.031 129.671 98.5618 127.273 94.1572 126.027C94.1186 126.855 93.9355 127.477 93.6025 127.972V127.972Z" fill="white"/>
<path d="M47.2249 129.474C51.7448 129.662 56.0387 127.417 60.264 126.175C59.5513 125.594 58.9793 124.809 58.5439 123.742C53.3967 124.485 48.5266 126.521 43.2939 126.828C44.3567 127.968 45.6628 128.825 47.2249 129.474V129.474Z" fill="white"/>
<path d="M60.264 126.174C65.8253 124.54 71.6724 123.585 77.4769 123.585C77.4769 123.444 77.4769 123.093 77.4769 122.466C71.1602 122.466 64.7966 122.837 58.5439 123.742C58.9793 124.809 59.5513 125.594 60.264 126.174Z" fill="white"/>
<path d="M77.4775 123.585C83.0986 123.585 88.7539 124.49 94.1572 126.026C94.8699 125.471 95.4464 124.711 95.8903 123.669C89.804 122.828 83.6193 122.466 77.4775 122.466C77.4775 123.093 77.4775 123.444 77.4775 123.585V123.585Z" fill="white"/>
<path d="M94.1572 126.026C98.5618 127.272 103.031 129.67 107.726 129.474C109.288 128.825 110.594 127.968 111.66 126.828C106.257 126.508 101.213 124.403 95.8903 123.669C95.4464 124.711 94.8699 125.471 94.1572 126.026V126.026Z" fill="white"/>
<path d="M43.2939 126.829C48.5266 126.521 53.3967 124.485 58.5439 123.743C57.9721 122.727 57.5327 121.425 57.2126 119.765C51.6896 119.961 46.2305 121.579 40.7803 122.48C41.3948 124.264 42.2269 125.685 43.2939 126.829V126.829Z" fill="white"/>
<path d="M58.5433 123.742C58.8165 123.703 59.094 123.665 59.3714 123.628C58.8294 122.642 58.4066 121.374 58.0993 119.743C57.8048 119.743 57.5107 119.756 57.2119 119.764C57.532 121.425 57.9714 122.726 58.5433 123.742V123.742Z" fill="white"/>
<path d="M59.3727 123.627C65.3609 122.807 71.4382 122.466 77.4775 122.466C77.4775 121.835 77.4775 120.921 77.4775 119.645C71.0199 119.645 64.5582 119.701 58.1006 119.744C58.4079 121.374 58.8307 122.642 59.3727 123.628V123.627Z" fill="white"/>
<path d="M77.4775 122.466C83.6193 122.466 89.804 122.829 95.8903 123.67C96.364 122.675 96.7141 121.394 96.9489 119.755C90.4572 119.705 83.965 119.645 77.4775 119.645C77.4775 120.921 77.4775 121.835 77.4775 122.466V122.466Z" fill="white"/>
<path d="M95.8896 123.669C101.212 124.403 106.256 126.508 111.66 126.828C112.727 125.684 113.555 124.263 114.17 122.479C108.459 121.536 102.744 119.802 96.9482 119.755C96.7134 121.394 96.3634 122.675 95.8896 123.669V123.669Z" fill="white"/>
<path d="M40.7809 122.48C45.6081 121.682 50.4393 120.32 55.3219 119.885C55.2326 119.437 55.1555 118.963 55.083 118.468C50.0979 118.942 45.1259 120.23 40.3584 121.071C40.4864 121.566 40.6273 122.036 40.7809 122.48Z" fill="white"/>
<path d="M40.3577 121.071C45.1252 120.23 50.0973 118.942 55.0824 118.468C55.0104 117.973 54.9461 117.456 54.8864 116.909C49.6752 117.46 44.6474 118.582 40.0166 119.521C40.1193 120.064 40.2297 120.58 40.3577 121.071Z" fill="#FBFDFD"/>
<path d="M40.0169 119.521C44.6477 118.582 49.6755 117.46 54.8867 116.909C54.8307 116.367 54.7839 115.8 54.7415 115.202C49.2998 115.834 44.2466 116.786 39.748 117.823C39.8254 118.417 39.9145 118.979 40.0169 119.521V119.521Z" fill="#F2F8FA"/>
<path d="M39.7487 117.823C44.2472 116.786 49.3005 115.834 54.7422 115.202C54.6995 114.609 54.6647 113.985 54.6393 113.336C49.0951 114.002 43.9908 114.887 39.5605 115.966C39.6112 116.611 39.675 117.23 39.748 117.823H39.7487Z" fill="#E2EFF3"/>
<path d="M55.321 119.884C56.2472 119.799 57.1735 119.748 58.0996 119.744C58.0103 119.334 57.9289 118.898 57.8477 118.442C56.9258 118.428 55.9996 118.416 55.082 118.467C55.154 118.962 55.2314 119.436 55.321 119.884V119.884Z" fill="white"/>
<path d="M55.0827 118.468C56.0003 118.417 56.9264 118.429 57.8483 118.442C57.771 117.981 57.7033 117.499 57.6393 116.995C56.7217 116.949 55.7958 116.923 54.8867 116.909C54.9467 117.456 55.0103 117.973 55.0827 118.468V118.468Z" fill="#FBFDFD"/>
<path d="M54.8864 116.909C55.7955 116.923 56.7214 116.949 57.639 116.995C57.575 116.487 57.5191 115.954 57.4684 115.399C56.555 115.318 55.6332 115.284 54.7412 115.202C54.7839 115.8 54.8307 116.367 54.8864 116.909Z" fill="#F2F8FA"/>
<path d="M54.7419 115.202C55.6339 115.283 56.5556 115.317 57.4691 115.399C57.4184 114.84 57.3756 114.254 57.3369 113.643C56.4278 113.545 55.5274 113.447 54.6396 113.336C54.665 113.985 54.6998 114.609 54.7425 115.202H54.7419Z" fill="#E2EFF3"/>
<path d="M58.0996 119.744C64.5572 119.701 71.019 119.645 77.4766 119.645C77.4766 119.329 77.4766 118.987 77.4766 118.62C70.9166 118.62 64.2797 118.505 57.8477 118.441C57.929 118.897 58.01 119.333 58.0996 119.743V119.744Z" fill="white"/>
<path d="M57.8486 118.442C64.2806 118.506 70.9175 118.62 77.4775 118.62C77.4775 118.258 77.4775 117.87 77.4775 117.456C70.6999 117.456 64.0032 117.298 57.6396 116.995C57.7036 117.499 57.7716 117.981 57.8486 118.442Z" fill="#FBFDFD"/>
<path d="M57.6393 116.995C64.0029 117.298 70.6996 117.456 77.4772 117.456C77.4772 117.042 77.4772 116.602 77.4772 116.137C70.4819 116.137 63.7726 115.941 57.4688 115.399C57.5194 115.954 57.5753 116.487 57.6393 116.995V116.995Z" fill="#F2F8FA"/>
<path d="M57.4691 115.399C63.7729 115.941 70.4822 116.137 77.4775 116.137C77.4775 115.672 77.4775 115.181 77.4775 114.665C70.3841 114.665 63.6109 114.297 57.3369 113.644C57.3756 114.254 57.4178 114.84 57.4684 115.399H57.4691Z" fill="#E2EFF3"/>
<path d="M77.4775 119.645C83.965 119.645 90.4572 119.705 96.9489 119.755C97.0382 119.341 97.1234 118.906 97.2002 118.446C90.7383 118.506 84.0674 118.62 77.4775 118.62C77.4775 118.987 77.4775 119.329 77.4775 119.645V119.645Z" fill="white"/>
<path d="M77.4775 118.62C84.0674 118.62 90.7383 118.506 97.2002 118.446C97.2775 117.985 97.3457 117.503 97.4098 116.995C91.0162 117.298 84.2851 117.456 77.4775 117.456C77.4775 117.87 77.4775 118.258 77.4775 118.62Z" fill="#FBFDFD"/>
<path d="M77.4775 117.456C84.2851 117.456 91.0162 117.298 97.4098 116.995C97.4738 116.487 97.5297 115.953 97.5804 115.394C91.2509 115.94 84.507 116.137 77.4775 116.137C77.4775 116.602 77.4775 117.042 77.4775 117.456V117.456Z" fill="#F2F8FA"/>
<path d="M77.4775 116.137C84.507 116.137 91.2509 115.94 97.5804 115.394C97.6311 114.83 97.6732 114.247 97.7119 113.632C91.4123 114.294 84.6053 114.665 77.4775 114.665C77.4775 115.181 77.4775 115.672 77.4775 116.137V116.137Z" fill="#E2EFF3"/>
<path d="M96.9492 119.756C97.8455 119.769 98.7369 119.813 99.6289 119.889C99.7182 119.441 99.7958 118.971 99.8685 118.472C98.9849 118.425 98.0925 118.437 97.2005 118.446C97.1232 118.907 97.0388 119.342 96.9492 119.756Z" fill="white"/>
<path d="M97.2002 118.446C98.0922 118.433 98.9846 118.425 99.8682 118.472C99.9402 117.981 100.004 117.46 100.064 116.913C99.1892 116.927 98.2976 116.953 97.4098 116.995C97.3458 117.503 97.2774 117.985 97.2002 118.446Z" fill="#FBFDFD"/>
<path d="M97.4092 116.995C98.2969 116.953 99.1885 116.927 100.063 116.913C100.119 116.371 100.17 115.799 100.209 115.206C99.3465 115.278 98.459 115.317 97.5798 115.394C97.5291 115.953 97.4732 116.486 97.4092 116.994V116.995Z" fill="#F2F8FA"/>
<path d="M97.5801 115.393C98.4593 115.316 99.3469 115.279 100.209 115.206C100.252 114.609 100.286 113.989 100.316 113.336C99.4579 113.443 98.5873 113.542 97.7122 113.632C97.6736 114.246 97.6307 114.83 97.5801 115.393V115.393Z" fill="#E2EFF3"/>
<path d="M99.6279 119.889C104.511 120.32 109.338 121.682 114.17 122.48C114.323 122.036 114.464 121.566 114.592 121.071C109.825 120.23 104.853 118.941 99.8675 118.472C99.7942 118.971 99.7175 119.44 99.6279 119.889V119.889Z" fill="white"/>
<path d="M99.8682 118.472C104.853 118.941 109.825 120.23 114.593 121.071C114.721 120.58 114.836 120.064 114.934 119.521C110.303 118.582 105.275 117.46 100.064 116.913C100.004 117.46 99.9404 117.981 99.8682 118.472V118.472Z" fill="#FBFDFD"/>
<path d="M100.063 116.913C105.275 117.46 110.302 118.582 114.933 119.521C115.036 118.979 115.125 118.417 115.202 117.823C110.704 116.786 105.651 115.834 100.209 115.206C100.17 115.799 100.119 116.371 100.063 116.913Z" fill="#F2F8FA"/>
<path d="M100.21 115.206C105.652 115.833 110.705 116.786 115.203 117.823C115.281 117.23 115.344 116.611 115.396 115.966C110.961 114.887 105.857 114.002 100.317 113.336C100.287 113.989 100.253 114.609 100.21 115.206V115.206Z" fill="#E2EFF3"/>
<defs>
<radialGradient id="paint0_radial" cx="0" cy="0" r="1" gradientUnits="userSpaceOnUse" gradientTransform="translate(77.0386 50.8905) scale(89.1064)">
<stop stop-color="#FDA133"/>
<stop offset="1" stop-color="#EF5136"/>
</radialGradient>
<radialGradient id="paint1_radial" cx="0" cy="0" r="1" gradientUnits="userSpaceOnUse" gradientTransform="translate(77.0386 50.8906) scale(89.1064)">
<stop stop-color="#FD9210"/>
<stop offset="1" stop-color="#EF4A11"/>
</radialGradient>
<radialGradient id="paint2_radial" cx="0" cy="0" r="1" gradientUnits="userSpaceOnUse" gradientTransform="translate(50.1653 66.3508) scale(17.6987)">
<stop stop-color="#3C2415"/>
<stop offset="0.660514" stop-color="#3C2415"/>
<stop offset="1" stop-color="#24160D"/>
</radialGradient>
<radialGradient id="paint3_radial" cx="0" cy="0" r="1" gradientUnits="userSpaceOnUse" gradientTransform="translate(104.801 66.3508) scale(13.1527)">
<stop stop-color="#3C2415"/>
<stop offset="0.660514" stop-color="#3C2415"/>
<stop offset="1" stop-color="#24160D"/>
</radialGradient>
<radialGradient id="paint4_radial" cx="0" cy="0" r="1" gradientUnits="userSpaceOnUse" gradientTransform="translate(77.0387 50.8907) scale(89.1064 89.1066)">
<stop stop-color="#CF852A"/>
<stop offset="1" stop-color="#C4432D"/>
</radialGradient>
<radialGradient id="paint5_radial" cx="0" cy="0" r="1" gradientUnits="userSpaceOnUse" gradientTransform="translate(77.0387 50.8907) scale(89.1064 89.1066)">
<stop stop-color="#CF852A"/>
<stop offset="1" stop-color="#C4432D"/>
</radialGradient>
<linearGradient id="paint6_linear" x1="77.4827" y1="130.949" x2="77.4827" y2="93.1047" gradientUnits="userSpaceOnUse">
<stop stop-color="#781512"/>
<stop offset="1" stop-color="#380A08"/>
</linearGradient>
</defs>
</svg>
