<svg width="194" height="154" viewBox="0 0 194 154" fill="none" xmlns="http://www.w3.org/2000/svg">
<path d="M191.729 115.861C194.805 120.333 193.675 126.453 189.203 129.531C184.731 132.607 178.611 131.476 175.535 127.004C172.857 123.112 173.331 110.669 173.499 107.505C173.519 107.128 173.887 106.875 174.247 106.992C177.261 107.965 189.051 111.971 191.729 115.861Z" fill="#7FD0EF"/>
<path d="M97.0307 153.7C54.6893 153.7 20.364 119.376 20.364 77.0333C20.364 34.692 54.6893 0.366627 97.0307 0.366627C139.373 0.366627 173.697 34.692 173.697 77.0333C173.697 119.376 139.373 153.7 97.0307 153.7ZM59.524 143.837C70.6134 150.077 83.4013 153.652 97.0307 153.652C139.347 153.652 173.649 119.349 173.649 77.0333C173.649 75.5546 173.597 74.088 173.515 72.6293C170.453 98.936 153.544 124.124 126.583 137.96C113.336 144.759 99.2773 147.985 85.656 147.985C76.632 147.985 67.8014 146.569 59.524 143.837Z" fill="url(#paint0_radial)"/>
<path d="M97.0306 153.652C83.4013 153.652 70.6133 150.077 59.524 143.837C67.8013 146.569 76.632 147.985 85.656 147.985C99.2773 147.985 113.336 144.759 126.583 137.96C153.544 124.124 170.453 98.9358 173.515 72.6292C173.597 74.0878 173.649 75.5545 173.649 77.0332C173.649 119.349 139.347 153.652 97.0306 153.652" fill="url(#paint1_radial)"/>
<path d="M74.8373 64.0839C76.0639 63.5319 77.2693 62.9173 78.3679 62.1413C81.9573 59.604 84.2293 55.2986 84.3 50.904C84.3106 50.2973 84.2773 49.6733 84.028 49.1213C83.4173 47.768 81.6373 47.2613 80.2119 47.6733C78.7879 48.0866 77.6733 49.1933 76.7506 50.3546C75.8279 51.5173 75.0173 52.7893 73.888 53.752C72.9053 54.5906 71.7227 55.1573 70.5267 55.6453C66.984 57.0906 62.744 57.8573 59.472 55.8733C58.804 55.4693 58.204 54.9626 57.5987 54.468C56.0733 53.2186 54.4413 51.996 52.528 51.5226C50.6133 51.0493 48.3399 51.5053 47.1839 53.1026C46.2239 54.428 46.2253 56.2773 46.856 57.788C47.4853 59.2986 48.6599 60.5173 49.9173 61.5626C54.0506 64.9986 59.4479 66.936 64.8173 66.6973C68.2866 66.5413 71.6706 65.5106 74.8373 64.0839" fill="url(#paint2_radial)"/>
<path d="M119.225 64.0839C117.999 63.5319 116.793 62.9173 115.695 62.1413C112.105 59.604 109.833 55.2986 109.763 50.904C109.752 50.2973 109.785 49.6733 110.035 49.1213C110.645 47.768 112.425 47.2613 113.849 47.6733C115.275 48.0866 116.389 49.1933 117.312 50.3546C118.235 51.5173 119.045 52.7893 120.175 53.752C121.157 54.5906 122.34 55.1573 123.536 55.6453C127.079 57.0906 131.319 57.8573 134.591 55.8733C135.259 55.4693 135.859 54.9626 136.464 54.468C137.989 53.2186 139.621 51.996 141.535 51.5226C143.449 51.0493 145.723 51.5053 146.879 53.1026C147.839 54.428 147.837 56.2773 147.207 57.788C146.577 59.2986 145.403 60.5173 144.145 61.5626C140.012 64.9986 134.615 66.936 129.245 66.6973C125.776 66.5413 122.392 65.5106 119.225 64.0839" fill="url(#paint3_radial)"/>
<path d="M13.5772 76.632C8.38391 84.1813 10.2932 94.5106 17.8425 99.704C25.3905 104.899 35.7212 102.988 40.9145 95.44C45.4345 88.8706 44.6332 67.8666 44.3505 62.5266C44.3159 61.888 43.6973 61.4613 43.0879 61.6586C37.9986 63.3026 18.0972 70.0626 13.5772 76.632Z" fill="#7FD0EF"/>
<path d="M2.33335 115.861C-0.742648 120.333 0.388044 126.453 4.86004 129.531C9.33204 132.607 15.452 131.476 18.528 127.004C21.2053 123.112 20.732 110.669 20.564 107.505C20.5427 107.128 20.176 106.875 19.816 106.992C16.8014 107.965 5.01068 111.971 2.33335 115.861" fill="#7FD0EF"/>
<path d="M180.485 76.632C185.678 84.1813 183.769 94.5106 176.22 99.704C168.671 104.899 158.341 102.988 153.148 95.44C148.628 88.8706 149.428 67.8666 149.712 62.5266C149.747 61.888 150.365 61.4613 150.974 61.6586C156.064 63.3026 175.965 70.0626 180.485 76.632" fill="#7FD0EF"/>
<path d="M120.115 123.031V123.049C119.735 124.461 119.228 125.709 118.612 126.759L118.595 126.795C116.423 130.923 112.133 133.619 97.0386 133.619C81.9439 133.619 77.6373 130.923 75.4653 126.795L75.4466 126.759C74.8319 125.709 74.3253 124.461 73.9439 123.049V123.031C72.6773 118.18 72.8773 111.647 75.2293 107.249L75.5919 106.579C87.8266 83.7933 106.232 83.7933 118.468 106.579L118.829 107.249C121.2 111.647 121.4 118.18 120.115 123.031" fill="url(#paint4_linear)"/>
<path d="M118.612 126.759L118.595 126.795C116.423 130.923 112.133 133.619 97.0386 133.619C81.944 133.619 77.6373 130.923 75.4653 126.795L75.4467 126.759C81.6907 122.488 89.0933 120.008 97.0386 120.008C104.965 120.008 112.387 122.488 118.612 126.759" fill="url(#paint5_radial)"/>
<defs>
<radialGradient id="paint0_radial" cx="0" cy="0" r="1" gradientUnits="userSpaceOnUse" gradientTransform="translate(96.5867 51.2559) scale(89.1064)">
<stop stop-color="#FFF081"/>
<stop offset="1" stop-color="#FD8C05"/>
</radialGradient>
<radialGradient id="paint1_radial" cx="0" cy="0" r="1" gradientUnits="userSpaceOnUse" gradientTransform="translate(96.5866 51.2559) scale(89.1064)">
<stop stop-color="#FFDA28"/>
<stop offset="1" stop-color="#FD7F02"/>
</radialGradient>
<radialGradient id="paint2_radial" cx="0" cy="0" r="1" gradientUnits="userSpaceOnUse" gradientTransform="translate(65.36 57.1253) scale(15.0136)">
<stop stop-color="#3C2415"/>
<stop offset="0.660514" stop-color="#3C2415"/>
<stop offset="1" stop-color="#24160D"/>
</radialGradient>
<radialGradient id="paint3_radial" cx="0" cy="0" r="1" gradientUnits="userSpaceOnUse" gradientTransform="translate(128.703 57.1253) rotate(180) scale(15.0134)">
<stop stop-color="#3C2415"/>
<stop offset="0.660514" stop-color="#3C2415"/>
<stop offset="1" stop-color="#24160D"/>
</radialGradient>
<linearGradient id="paint4_linear" x1="97.0359" y1="133.619" x2="97.0359" y2="89.4893" gradientUnits="userSpaceOnUse">
<stop stop-color="#781512"/>
<stop offset="1" stop-color="#380A08"/>
</linearGradient>
<radialGradient id="paint5_radial" cx="0" cy="0" r="1" gradientUnits="userSpaceOnUse" gradientTransform="translate(97.0293 126.813) scale(20.2907 8.39017)">
<stop stop-color="#D63744"/>
<stop offset="0.660514" stop-color="#D63744"/>
<stop offset="1" stop-color="#8C242C"/>
</radialGradient>
</defs>
</svg>
