<svg width="140" height="140" viewBox="0 0 140 140" fill="none" xmlns="http://www.w3.org/2000/svg">
<path d="M139.744 70.0307C139.744 108.347 108.684 139.407 70.368 139.407C32.0541 139.407 0.993195 108.347 0.993195 70.0307C0.993195 31.7174 32.0541 0.656063 70.368 0.656063C108.684 0.656063 139.744 31.7174 139.744 70.0307Z" fill="#F4C119"/>
<path d="M87.2827 99.9279C87.2827 113.828 79.4827 125.096 69.86 125.096C60.2364 125.096 52.4349 113.828 52.4349 99.9279C52.4349 86.0279 60.2364 74.7599 69.86 74.7599C79.4827 74.7599 87.2827 86.0279 87.2827 99.9279Z" fill="#370E12"/>
<path d="M111.531 52.3215C111.531 59.5335 107.451 65.3801 102.419 65.3801C97.388 65.3801 93.308 59.5335 93.308 52.3215C93.308 45.1081 97.388 39.2615 102.419 39.2615C107.451 39.2615 111.531 45.1081 111.531 52.3215Z" fill="#370E12"/>
<path d="M48.0562 52.3215C48.0562 59.5335 43.9765 65.3801 38.9448 65.3801C33.913 65.3801 29.8333 59.5335 29.8333 52.3215C29.8333 45.1081 33.913 39.2615 38.9448 39.2615C43.9765 39.2615 48.0562 45.1081 48.0562 52.3215Z" fill="#370E12"/>
<path d="M29.9995 23.0281C32.9995 14.6267 44.7011 13.2761 48.4521 20.9267" stroke="#370E12" stroke-width="5.26785" stroke-miterlimit="10" stroke-linecap="round"/>
<path d="M108.46 23.0281C105.459 14.6267 93.7573 13.2761 90.0067 20.9267" stroke="#370E12" stroke-width="5.26785" stroke-miterlimit="10" stroke-linecap="round"/>
</svg>
