<svg width="100" height="100" viewBox="0 0 100 100" fill="none" xmlns="http://www.w3.org/2000/svg">
<g clip-path="url(#clip0_8437_814)">
<path d="M85.5 42C85.5 44.4853 83.4853 46.5 81 46.5C78.5147 46.5 76.5 44.4853 76.5 42C76.5 39.5147 78.5147 37.5 81 37.5C83.4853 37.5 85.5 39.5147 85.5 42Z" fill="white"/>
<path d="M85.5 42C85.5 44.4853 83.4853 46.5 81 46.5C78.5147 46.5 76.5 44.4853 76.5 42C76.5 39.5147 78.5147 37.5 81 37.5C83.4853 37.5 85.5 39.5147 85.5 42Z" fill="white"/>
<path d="M85.5 42C85.5 44.4853 83.4853 46.5 81 46.5C78.5147 46.5 76.5 44.4853 76.5 42C76.5 39.5147 78.5147 37.5 81 37.5C83.4853 37.5 85.5 39.5147 85.5 42Z" stroke="#F0F2F5"/>
<path d="M26.5 42C26.5 44.4853 24.4853 46.5 22 46.5C19.5147 46.5 17.5 44.4853 17.5 42C17.5 39.5147 19.5147 37.5 22 37.5C24.4853 37.5 26.5 39.5147 26.5 42Z" fill="white"/>
<path d="M26.5 42C26.5 44.4853 24.4853 46.5 22 46.5C19.5147 46.5 17.5 44.4853 17.5 42C17.5 39.5147 19.5147 37.5 22 37.5C24.4853 37.5 26.5 39.5147 26.5 42Z" fill="white"/>
<path d="M26.5 42C26.5 44.4853 24.4853 46.5 22 46.5C19.5147 46.5 17.5 44.4853 17.5 42C17.5 39.5147 19.5147 37.5 22 37.5C24.4853 37.5 26.5 39.5147 26.5 42Z" stroke="#F0F2F5"/>
</g>
<path d="M70.3653 73.5272L49.5752 22.5916C49.3358 22.0049 48.7651 21.6216 48.1316 21.6216C47.498 21.6216 46.9274 22.0049 46.6879 22.5916L25.8979 73.5272C25.6422 74.1536 25.8197 74.8734 26.3372 75.3092C26.8548 75.7447 27.5941 75.7973 28.168 75.4387L48.1316 62.9614L68.0951 75.4386C68.3493 75.5975 68.6358 75.6756 68.9213 75.6756C69.2803 75.6756 69.6377 75.5519 69.9259 75.3091C70.4435 74.8734 70.621 74.1535 70.3653 73.5272Z" fill="black"/>
<path d="M52.6196 56.1822C29.2624 63.5925 8.56588 64.2769 6.48211 57.7088C4.39809 51.14 21.7038 39.7679 45.0611 32.3576C68.4183 24.9473 89.1147 24.2625 91.1987 30.8313C93.2828 37.4005 75.9769 48.7719 52.6196 56.1822ZM45.428 33.5143C23.6581 40.421 7.47763 50.8649 9.35932 56.796C11.2408 62.7263 30.4828 61.9326 52.2528 55.0259C74.0227 48.1192 90.203 37.6748 88.3216 31.7445C86.44 25.8138 67.198 26.6075 45.428 33.5143Z" fill="#050505"/>
<g clip-path="url(#clip1_8437_814)">
<path d="M48.7637 41.0688L48.7637 37.8379L46.6786 37.8379C46.6315 37.9576 46.6067 38.0995 46.6067 38.2447C46.5845 38.3147 46.5596 38.365 46.5596 38.4363C46.3451 39.6326 45.7224 40.4704 44.6681 40.9262C44.3568 41.0688 44.0704 41.0917 43.759 41.0688L43.759 43.6764L45.2908 43.6764C45.3163 47.341 45.3163 49.2311 45.3163 49.3273C45.3163 49.3992 45.3163 49.4712 45.3163 49.5444C45.5086 51.1462 46.3451 52.1043 47.8297 52.4634C48.4275 52.6315 49.073 52.7028 49.7212 52.7028C50.5577 52.6792 51.3726 52.5353 52.1876 52.2717L52.1876 49.2076C51.7095 49.3515 51.2752 49.4705 50.8945 49.5889C50.1522 49.8067 49.5296 49.6628 49.026 49.1841C48.9782 49.1121 48.9063 49.016 48.8814 48.9205C48.8121 48.5372 48.765 48.1317 48.765 47.7465L48.765 43.6771L52.0895 43.6771L52.0895 41.0688L48.7637 41.0688Z" fill="white"/>
</g>
<path d="M70.3653 73.5272L49.5752 22.5916C49.3358 22.0049 48.7651 21.6216 48.1316 21.6216C47.498 21.6216 46.9274 22.0049 46.6879 22.5916L25.8979 73.5272C25.6422 74.1536 25.8197 74.8734 26.3372 75.3092C26.8548 75.7447 27.5941 75.7973 28.168 75.4387L48.1316 62.9614L68.0951 75.4386C68.3493 75.5975 68.6358 75.6756 68.9213 75.6756C69.2803 75.6756 69.6377 75.5519 69.9259 75.3091C70.4435 74.8734 70.621 74.1535 70.3653 73.5272Z" fill="white"/>
<path d="M52.6196 56.1822C29.2624 63.5925 8.56588 64.2769 6.48211 57.7088C4.39809 51.14 21.7038 39.7679 45.0611 32.3576C68.4183 24.9473 89.1147 24.2625 91.1987 30.8313C93.2828 37.4005 75.9769 48.7719 52.6196 56.1822ZM45.428 33.5143C23.6581 40.421 7.47763 50.8649 9.35932 56.796C11.2408 62.7263 30.4828 61.9326 52.2528 55.0259C74.0227 48.1192 90.203 37.6748 88.3216 31.7445C86.44 25.8138 67.198 26.6075 45.428 33.5143Z" fill="white"/>
<defs>
<clipPath id="clip0_8437_814">
<rect width="82.3953" height="43.0224" fill="white" transform="translate(4.69531 41.6447) rotate(-17.6021)"/>
</clipPath>
<clipPath id="clip1_8437_814">
<rect width="14.8649" height="14.8649" fill="white" transform="translate(40.5405 37.8379)"/>
</clipPath>
</defs>
</svg>
