<svg height='100px' width='100px'  fill="#040404" xmlns="http://www.w3.org/2000/svg" xmlns:xlink="http://www.w3.org/1999/xlink" version="1.1" x="0px" y="0px" viewBox="0 0 32 32" style="enable-background:new 0 0 32 32;" xml:space="preserve"><title>cashbox</title><path d="M31,29L31,29c0,0.6-0.4,1-1,1H2c-0.6,0-1-0.4-1-1l0,0c0-2.8,2.2-5,5-5h20C28.8,24,31,26.2,31,29z M24,9v2h1c1.7,0,3,1.3,3,3  v8H4v-8c0-1.7,1.3-3,3-3h15V9h-1c-1.7,0-3-1.3-3-3V5c0-1.7,1.3-3,3-3h4c1.7,0,3,1.3,3,3v1c0,1.7-1.3,3-3,3H24z M12,19  c0-0.6-0.4-1-1-1H9c-0.6,0-1,0.4-1,1s0.4,1,1,1h2C11.6,20,12,19.6,12,19z M12,15c0-0.6-0.4-1-1-1H9c-0.6,0-1,0.4-1,1s0.4,1,1,1h2  C11.6,16,12,15.6,12,15z M18,19c0-0.6-0.4-1-1-1h-2c-0.6,0-1,0.4-1,1s0.4,1,1,1h2C17.6,20,18,19.6,18,19z M18,15c0-0.6-0.4-1-1-1h-2  c-0.6,0-1,0.4-1,1s0.4,1,1,1h2C17.6,16,18,15.6,18,15z M24,19c0-0.6-0.4-1-1-1h-2c-0.6,0-1,0.4-1,1s0.4,1,1,1h2  C23.6,20,24,19.6,24,19z M24,15c0-0.6-0.4-1-1-1h-2c-0.6,0-1,0.4-1,1s0.4,1,1,1h2C23.6,16,24,15.6,24,15z"></path></svg>