<svg xmlns="http://www.w3.org/2000/svg" xmlns:xlink="http://www.w3.org/1999/xlink" width="100" height="100" viewBox="0 0 100 100"><circle stroke="none" fill="#f1f2f2" r="48%" cx="50%" cy="50%"></circle><g transform="translate(50 50) scale(0.69 0.69) rotate(0) translate(-50 -50)" style="fill:#05224c"><svg fill="#05224c" xmlns="http://www.w3.org/2000/svg" version="1.1" viewBox="0 0 34 34" x="0px" y="0px"><title>announcement</title><path d="M28.236 3.382c-1.138 0-2.094 0.781-2.365 1.832l-0.047 0.186-10.842 3.57h-7.355c-0.324 0-0.58 0.257-0.58 0.582v1.309l-0.279 0.059c-1.961 0.4-3.447 2.137-3.447 4.219s1.485 3.819 3.447 4.219l0.279 0.059v1.311c0 0.325 0.255 0.58 0.58 0.58h1.387l1.475 7.377c0.224 1.121 1.217 1.936 2.361 1.936 1.528 0 2.659-1.386 2.359-2.881l-1.287-6.43h1.061l10.842 3.57 0.047 0.186c0.273 1.050 1.227 1.83 2.365 1.83 1.35 0 2.443-1.093 2.443-2.443v-18.625c0-1.35-1.093-2.443-2.443-2.443zM28.236 4.546c0.703 0 1.281 0.576 1.281 1.279v18.623c0 0.703-0.578 1.281-1.281 1.281s-1.281-0.578-1.281-1.281v-18.623c0-0.703 0.579-1.279 1.281-1.279zM25.793 6.634v17.008l-10.135-3.334v-10.34l9.676-3.182zM8.209 10.132h6.285v10.010h-6.285v-9.66zM7.047 12.007v6.26l-0.467-0.166c-1.376-0.488-2.089-1.734-2.090-2.963s0.712-2.476 2.090-2.965zM10.197 21.306h2.539l1.334 6.66c0.153 0.763-0.444 1.488-1.223 1.488-0.591 0-1.104-0.422-1.221-1l-1.346-6.73z"></path></svg></g></svg>