<?xml version="1.0" encoding="iso-8859-1"?>
<!-- Generator: Adobe Illustrator 19.0.0, SVG Export Plug-In . SVG Version: 6.00 Build 0)  -->
<svg version="1.1" id="Capa_1" xmlns="http://www.w3.org/2000/svg" xmlns:xlink="http://www.w3.org/1999/xlink" x="0px" y="0px"
	 viewBox="0 0 512 512" style="enable-background:new 0 0 512 512;" xml:space="preserve">
<path style="fill:#DDEDE5;" d="M512,109.663v293.849c0,11.229-9.107,20.336-20.346,20.336H50.355
	c-11.239,0-20.346-9.107-20.346-20.336V109.663H512z"/>
<g>
	<path style="fill:#AFC3C3;" d="M262.686,362.006c0,22.221-5.275,43.226-14.649,61.842H50.355c-11.239,0-20.346-9.107-20.346-20.336
		V261.594c24.735-23.313,58.051-37.632,94.643-37.632C200.762,223.96,262.686,285.885,262.686,362.006z"/>
	<rect x="30.01" y="109.66" style="fill:#AFC3C3;" width="481.99" height="25.612"/>
</g>
<path style="fill:#FF4F19;" d="M512,88.838v33.826H30.012V88.838c0-23.993,19.444-43.437,43.437-43.437h395.114
	C492.556,45.401,512,64.845,512,88.838z"/>
<rect x="30.01" y="109.66" style="fill:#FF9900;" width="481.99" height="13.01"/>
<g>
	<path style="fill:#F40029;" d="M180.573,45.401v20.482c0,6.42-5.208,11.638-11.638,11.638h-65.461
		c-6.43,0-11.638-5.218-11.638-11.638V45.401H180.573z"/>
	<path style="fill:#F40029;" d="M450.176,45.401v20.482c0,6.42-5.208,11.638-11.638,11.638h-65.461
		c-6.43,0-11.638-5.218-11.638-11.638V45.401H450.176z"/>
</g>
<path style="fill:#4E7693;" d="M161.784,64.909h-51.159c-3.414,0-6.181-2.767-6.181-6.181V31.532c0-3.414,2.767-6.181,6.181-6.181
	h51.159c3.414,0,6.181,2.767,6.181,6.181v27.196C167.965,62.141,165.198,64.909,161.784,64.909z"/>
<path style="fill:#618BAA;" d="M167.965,37.914h-63.522v-6.382c0-3.414,2.767-6.181,6.181-6.181h51.159
	c3.414,0,6.181,2.767,6.181,6.181v6.382H167.965z"/>
<path style="fill:#4E7693;" d="M431.387,64.909h-51.159c-3.414,0-6.181-2.767-6.181-6.181V31.532c0-3.414,2.767-6.181,6.181-6.181
	h51.159c3.414,0,6.181,2.767,6.181,6.181v27.196C437.568,62.141,434.801,64.909,431.387,64.909z"/>
<path style="fill:#618BAA;" d="M437.568,37.914h-63.522v-6.382c0-3.414,2.767-6.181,6.181-6.181h51.159
	c3.414,0,6.181,2.767,6.181,6.181v6.382H437.568z"/>
<g>
	<path style="fill:#35696A;" d="M214.435,218.427h-20.042c-4.267,0-7.726-3.459-7.726-7.726s3.459-7.726,7.726-7.726h20.042
		c4.267,0,7.726,3.459,7.726,7.726S218.702,218.427,214.435,218.427z"/>
	<path style="fill:#35696A;" d="M275.208,218.427h-20.042c-4.267,0-7.726-3.459-7.726-7.726s3.459-7.726,7.726-7.726h20.042
		c4.268,0,7.726,3.459,7.726,7.726S279.476,218.427,275.208,218.427z"/>
	<path style="fill:#35696A;" d="M214.435,259.908h-20.042c-4.267,0-7.726-3.459-7.726-7.726c0-4.267,3.459-7.726,7.726-7.726h20.042
		c4.267,0,7.726,3.459,7.726,7.726S218.702,259.908,214.435,259.908z"/>
	<path style="fill:#35696A;" d="M275.208,259.908h-20.042c-4.267,0-7.726-3.459-7.726-7.726c0-4.267,3.459-7.726,7.726-7.726h20.042
		c4.268,0,7.726,3.459,7.726,7.726S279.476,259.908,275.208,259.908z"/>
	<path style="fill:#35696A;" d="M275.208,301.389h-20.042c-4.267,0-7.726-3.459-7.726-7.726s3.459-7.726,7.726-7.726h20.042
		c4.268,0,7.726,3.459,7.726,7.726S279.476,301.389,275.208,301.389z"/>
</g>
<path style="fill:#FF4F19;" d="M313.354,380.337c-4.268,0-7.726-3.459-7.726-7.726V170.615c0-4.267,3.459-7.726,7.726-7.726
	s7.726,3.459,7.726,7.726v201.994C321.08,376.878,317.622,380.337,313.354,380.337z"/>
<g>
	<path style="fill:#35696A;" d="M477.322,255.863v-37.651c0-3.036-1.779-5.791-4.545-7.041c-2.765-1.248-6.009-0.763-8.289,1.244
		l-7.941,6.995c-3.201,2.82-3.511,7.703-0.69,10.905c1.577,1.79,3.798,2.677,6.012,2.616v22.925h-0.214
		c-4.268,0-7.726,3.459-7.726,7.726s3.459,7.726,7.726,7.726h15.517c4.268,0,7.726-3.459,7.726-7.726
		C484.898,259.366,481.52,255.943,477.322,255.863z"/>
	<path style="fill:#35696A;" d="M442.607,255.863v-37.651c0-3.036-1.779-5.791-4.545-7.041c-2.765-1.248-6.009-0.764-8.288,1.243
		l-7.942,6.995c-3.202,2.82-3.512,7.703-0.691,10.905c1.577,1.791,3.797,2.677,6.013,2.616v22.925h-0.215
		c-4.268,0-7.726,3.459-7.726,7.726s3.459,7.726,7.726,7.726h15.517c4.268,0,7.726-3.459,7.726-7.726
		C450.182,259.366,446.804,255.945,442.607,255.863z"/>
	<path style="fill:#35696A;" d="M434.848,325.689v-37.651c0-3.036-1.779-5.791-4.545-7.041c-2.766-1.249-6.009-0.764-8.289,1.243
		l-7.941,6.995c-3.201,2.821-3.511,7.703-0.69,10.905c1.577,1.791,3.796,2.681,6.012,2.616v22.926h-0.214
		c-4.268,0-7.726,3.459-7.726,7.726s3.459,7.726,7.726,7.726h15.516c4.268,0,7.726-3.459,7.726-7.726
		C442.424,329.191,439.045,325.77,434.848,325.689z"/>
	<path style="fill:#35696A;" d="M400.604,325.689v-37.651c0-3.036-1.779-5.791-4.545-7.041c-2.766-1.249-6.009-0.764-8.288,1.243
		l-7.942,6.995c-3.202,2.82-3.512,7.703-0.691,10.904c1.577,1.791,3.799,2.682,6.013,2.617v22.926h-0.215
		c-4.268,0-7.726,3.459-7.726,7.726s3.459,7.726,7.726,7.726h15.517c4.268,0,7.726-3.459,7.726-7.726
		C408.179,329.191,404.801,325.77,400.604,325.689z"/>
</g>
<circle style="fill:#FF4F19;" cx="124.65" cy="362" r="124.65"/>
<path style="fill:#F40029;" d="M124.648,473.391c-61.421,0-111.39-49.969-111.39-111.39s49.969-111.39,111.39-111.39
	s111.39,49.969,111.39,111.39S186.069,473.391,124.648,473.391z"/>
<circle style="fill:#DDEDE5;" cx="124.65" cy="362" r="98"/>
<g>
	<path style="fill:#FF4F19;" d="M124.648,300.289c-4.267,0-7.726-3.459-7.726-7.726v-8.365c0-4.267,3.459-7.726,7.726-7.726
		c4.267,0,7.726,3.459,7.726,7.726v8.365C132.375,296.829,128.915,300.289,124.648,300.289z"/>
	<path style="fill:#FF4F19;" d="M124.648,447.53c-4.267,0-7.726-3.459-7.726-7.726v-8.364c0-4.267,3.459-7.726,7.726-7.726
		c4.267,0,7.726,3.459,7.726,7.726v8.364C132.375,444.07,128.915,447.53,124.648,447.53z"/>
	<path style="fill:#FF4F19;" d="M202.451,369.727h-8.364c-4.267,0-7.726-3.459-7.726-7.726s3.459-7.726,7.726-7.726h8.364
		c4.267,0,7.726,3.459,7.726,7.726C210.178,366.268,206.718,369.727,202.451,369.727z"/>
	<path style="fill:#FF4F19;" d="M55.21,369.727h-8.364c-4.267,0-7.726-3.459-7.726-7.726s3.459-7.726,7.726-7.726h8.364
		c4.267,0,7.726,3.459,7.726,7.726C62.937,366.268,59.477,369.727,55.21,369.727z"/>
	<path style="fill:#FF4F19;" d="M173.749,320.627c-1.977,0-3.955-0.755-5.463-2.263c-3.018-3.017-3.018-7.909,0-10.927l5.914-5.914
		c3.017-3.017,7.909-3.017,10.927,0s3.018,7.909,0,10.927l-5.914,5.914C177.704,319.872,175.726,320.627,173.749,320.627z"/>
	<path style="fill:#FF4F19;" d="M69.634,424.742c-1.977,0-3.955-0.755-5.463-2.263c-3.018-3.017-3.018-7.909,0-10.927l5.914-5.914
		c3.017-3.017,7.909-3.017,10.927,0c3.018,3.017,3.018,7.909,0,10.927l-5.914,5.914C73.589,423.987,71.611,424.742,69.634,424.742z"
		/>
	<path style="fill:#FF4F19;" d="M179.663,424.742c-1.977,0-3.955-0.755-5.463-2.263l-5.914-5.914c-3.018-3.017-3.018-7.909,0-10.927
		c3.017-3.017,7.909-3.017,10.927,0l5.914,5.914c3.018,3.017,3.018,7.909,0,10.927C183.618,423.987,181.641,424.742,179.663,424.742
		z"/>
	<path style="fill:#FF4F19;" d="M75.548,320.627c-1.977,0-3.955-0.755-5.463-2.263l-5.914-5.914c-3.018-3.017-3.018-7.909,0-10.927
		c3.017-3.017,7.909-3.017,10.927,0l5.914,5.914c3.018,3.017,3.018,7.909,0,10.927C79.503,319.872,77.526,320.627,75.548,320.627z"
		/>
</g>
<path style="fill:#AFC3C3;" d="M124.529,356.099c-4.267,0-7.726-3.459-7.726-7.726V312.9c0-4.267,3.459-7.726,7.726-7.726
	c4.267,0,7.726,3.459,7.726,7.726v35.472C132.255,352.64,128.796,356.099,124.529,356.099z"/>
<circle style="fill:#4E7693;" cx="124.65" cy="361.9" r="15.857"/>
<path style="fill:#FF4F19;" d="M360.735,206.207h-13.049c-3.414,0-6.181-2.767-6.181-6.181v-13.049c0-3.414,2.767-6.181,6.181-6.181
	h13.049c3.414,0,6.181,2.767,6.181,6.181v13.049C366.916,203.44,364.149,206.207,360.735,206.207z"/>
<g>
</g>
<g>
</g>
<g>
</g>
<g>
</g>
<g>
</g>
<g>
</g>
<g>
</g>
<g>
</g>
<g>
</g>
<g>
</g>
<g>
</g>
<g>
</g>
<g>
</g>
<g>
</g>
<g>
</g>
</svg>
