<svg xmlns="http://www.w3.org/2000/svg" xmlns:xlink="http://www.w3.org/1999/xlink" width="100" height="100" viewBox="0 0 100 100"><circle stroke="none" fill="#f1f2f2" r="48%" cx="50%" cy="50%"></circle><g transform="translate(50 50) scale(0.69 0.69) rotate(0) translate(-50 -50)" style="fill:#05224c"><svg fill="#05224c" xmlns:dc="http://purl.org/dc/elements/1.1/" xmlns:cc="http://creativecommons.org/ns#" xmlns:rdf="http://www.w3.org/1999/02/22-rdf-syntax-ns#" xmlns:svg="http://www.w3.org/2000/svg" xmlns="http://www.w3.org/2000/svg" xmlns:sodipodi="http://sodipodi.sourceforge.net/DTD/sodipodi-0.dtd" xmlns:inkscape="http://www.inkscape.org/namespaces/inkscape" version="1.1" x="0px" y="0px" viewBox="0 0 100 100"><g transform="translate(0,-952.36218)"><path d="m 83.763439,957.34674 -33.7949,38.4825 -10.71317,-11.5573 c -1.09806,-1.1684 -3.17905,-1.1983 -4.31026,-0.062 l -7.99584,7.9963 c -1.14764,1.1416 -1.10212,3.2508 0.0937,4.3418 l 20.98908,18.99126 c 1.16711,1.0592 3.19555,0.9548 4.24778,-0.2186 l 42.97763,-47.97806 c 1.063352,-1.1858 0.92821,-3.243 -0.28111,-4.2794 l -6.99636,-5.9973 c -1.65405,-1.0526 -2.78835,-0.8188 -4.21655,0.2808 z m -37.73035,1.1245 c -23.42503,1.5337 -42.0093805,21.0776 -42.0093805,44.88576 0,24.8059 20.1722105,44.9795 44.9765805,44.9795 23.79546,0 43.33303,-18.5698 44.88288,-41.9809 l -6.02811,0 c -1.52987,20.1537 -18.30256,35.9524 -38.85477,35.9524 -21.56341,0 -38.94847,-17.3862 -38.94847,-38.951 0,-20.55976 15.82023,-37.36746 35.98127,-38.88846 z" style="text-indent:0;text-transform:none;direction:ltr;block-progression:tb;baseline-shift:baseline;color:#000000;enable-background:accumulate;" fill="#05224c" fill-opacity="1" stroke="none" marker="none" visibility="visible" display="inline" overflow="visible"></path></g></svg></g></svg>