<svg width="23" height="23" viewBox="0 0 23 23" fill="none" xmlns="http://www.w3.org/2000/svg">
<g clip-path="url(#clip0_11220_1365)">
<path d="M11.5 22.9999C17.8513 22.9999 23 17.8512 23 11.5C23 5.14871 17.8513 0 11.5 0C5.14874 0 3.05176e-05 5.14871 3.05176e-05 11.5C3.05176e-05 17.8512 5.14874 22.9999 11.5 22.9999Z" fill="#F0F2F5"/>
<path d="M14.7296 8.57571L12.3056 10.9999L14.7296 13.424C15.0901 13.7847 15.0901 14.369 14.7296 14.7297C14.5494 14.9098 14.3133 14.9999 14.0772 14.9999C13.8407 14.9999 13.6045 14.9099 13.4245 14.7297L11 12.3053L8.57571 14.7296C8.39559 14.9098 8.15938 14.9999 7.9231 14.9999C7.68689 14.9999 7.45084 14.9099 7.27055 14.7296C6.91 14.3691 6.91 13.7848 7.27055 13.424L9.69444 10.9999L7.27041 8.57571C6.90986 8.21516 6.90986 7.63076 7.27041 7.27021C7.6309 6.90993 8.21496 6.90993 8.57558 7.27021L11 9.69441L13.4242 7.27021C13.7849 6.90993 14.369 6.90993 14.7294 7.27021C15.0901 7.63076 15.0901 8.21516 14.7296 8.57571Z" fill="#050505"/>
</g>
<defs>
<clipPath id="clip0_11220_1365">
<rect width="23" height="23" fill="white"/>
</clipPath>
</defs>
</svg>
