<svg xmlns="http://www.w3.org/2000/svg" xmlns:xlink="http://www.w3.org/1999/xlink" width="100" height="100" viewBox="0 0 100 100"><circle stroke="none" fill="#f1f2f2" r="48%" cx="50%" cy="50%"></circle><g transform="translate(50 50) scale(0.69 0.69) rotate(0) translate(-50 -50)" style="fill:#05224c"><svg fill="#05224c" xmlns:dc="http://purl.org/dc/elements/1.1/" xmlns:cc="http://creativecommons.org/ns#" xmlns:rdf="http://www.w3.org/1999/02/22-rdf-syntax-ns#" xmlns:svg="http://www.w3.org/2000/svg" xmlns="http://www.w3.org/2000/svg" xmlns:sodipodi="http://sodipodi.sourceforge.net/DTD/sodipodi-0.dtd" xmlns:inkscape="http://www.inkscape.org/namespaces/inkscape" version="1.1" x="0px" y="0px" viewBox="0 0 100 100"><g transform="translate(0,-952.36218)"><path style="text-indent:0;text-transform:none;direction:ltr;block-progression:tb;baseline-shift:baseline;color:#000000;enable-background:accumulate;" d="m 15,972.36216 c -4.3974,0 -7.9999998,3.60255 -7.9999998,8 l 0,44.00004 c 0,4.3974 3.6025998,8 7.9999998,8 l 70,0 c 4.3974,0 8,-3.6026 8,-8 l 0,-44.00004 c 0,-4.39745 -3.6026,-8 -8,-8 l -70,0 z m 0,4 70,0 c 0.5518,0 1.0581,0.12055 1.5312,0.3125 L 53,1005.0497 c -1.8783,1.5912 -4.1875,1.5913 -6.0625,0 L 13.4688,976.67466 c 0.4731,-0.19195 0.9794,-0.3125 1.5312,-0.3125 z m 73.9375,3.46875 c 0.023,0.17661 0.062,0.34726 0.062,0.53125 l 0,44.00004 c 0,2.2506 -1.7494,4 -4,4 l -70,0 c -2.2506,0 -4,-1.7494 -4,-4 l 0,-44.00004 c 0,-0.17332 0.042,-0.3332 0.062,-0.5 l 33.2813,28.25004 c 3.2509,2.7591 7.9981,2.7548 11.25,0 l 33.3437,-28.28129 z" fill="#05224c" fill-opacity="1" stroke="none" marker="none" visibility="visible" display="inline" overflow="visible"></path></g></svg></g></svg>