<svg height='100px' width='100px'  fill="#ffffff" xmlns="http://www.w3.org/2000/svg" xmlns:xlink="http://www.w3.org/1999/xlink" viewBox="0 0 241 307" version="1.1" baseProfile="full" x="0px" y="0px"><g transform="scale(1,-1) translate(0,-307)"><path d="M 209.432200 113.194400 L 209.489500 114.330400 L 209.657900 115.433700 L 209.931700 116.498500 L 210.305300 117.519300 L 210.773200 118.490600 L 211.329800 119.406700 L 211.969400 120.262100 L 212.686500 121.051100 L 213.475600 121.768300 L 214.330900 122.407900 L 215.247100 122.964500 L 216.218300 123.432300 L 217.239200 123.806000 L 218.304000 124.079800 L 219.407200 124.248100 L 220.543300 124.305500 L 325.404400 124.305500 L 325.404400 377.490400 L 325.352600 379.537200 L 325.199000 381.557000 L 324.946100 383.547600 L 324.596300 385.506200 L 324.152200 387.430500 L 323.616200 389.318000 L 322.990900 391.166000 L 322.278700 392.972200 L 321.482200 394.734100 L 320.603900 396.449000 L 319.646200 398.114700 L 318.611600 399.728400 L 317.502700 401.287800 L 316.321900 402.790400 L 315.071800 404.233500 L 313.754800 405.614900 L 312.373500 406.931800 L 310.930300 408.181900 L 309.427800 409.362700 L 307.868400 410.471600 L 306.254600 411.506200 L 304.589000 412.463900 L 302.874100 413.342300 L 301.112200 414.138800 L 299.306000 414.850900 L 297.457900 415.476200 L 295.570500 416.012200 L 293.646200 416.456300 L 291.687600 416.806100 L 289.697000 417.059100 L 287.677100 417.212600 L 285.630400 417.264400 L 48.107300 417.264400 L 46.060500 417.212600 L 44.040600 417.059100 L 42.050100 416.806100 L 40.091400 416.456300 L 38.167200 416.012200 L 36.279700 415.476200 L 34.431700 414.850900 L 32.625500 414.138800 L 30.863600 413.342300 L 29.148600 412.463900 L 27.483000 411.506200 L 25.869300 410.471600 L 24.309900 409.362700 L 22.807300 408.181900 L 21.364100 406.931800 L 19.982800 405.614900 L 18.665900 404.233500 L 17.415700 402.790400 L 16.235000 401.287800 L 15.126100 399.728400 L 14.091500 398.114700 L 13.133800 396.449000 L 12.255400 394.734100 L 11.458900 392.972200 L 10.746800 391.166000 L 10.121400 389.318000 L 9.585500 387.430500 L 9.141400 385.506200 L 8.791600 383.547600 L 8.538600 381.557000 L 8.385000 379.537200 L 8.333300 377.490400 L 8.333300 48.107300 L 8.385000 46.060500 L 8.538600 44.040600 L 8.791600 42.050100 L 9.141400 40.091400 L 9.585500 38.167200 L 10.121400 36.279700 L 10.746800 34.431700 L 11.458900 32.625500 L 12.255400 30.863600 L 13.133800 29.148600 L 14.091500 27.483000 L 15.126100 25.869300 L 16.235000 24.309900 L 17.415700 22.807300 L 18.665900 21.364100 L 19.982800 19.982800 L 21.364100 18.665900 L 22.807300 17.415700 L 24.309900 16.235000 L 25.869300 15.126100 L 27.483000 14.091500 L 29.148600 13.133800 L 30.863600 12.255400 L 32.625500 11.458900 L 34.431700 10.746800 L 36.279700 10.121400 L 38.167200 9.585500 L 40.091400 9.141400 L 42.050100 8.791600 L 44.040600 8.538600 L 46.060500 8.385000 L 48.107300 8.333300 L 209.432200 8.333300 Z M 55.555500 280.753300 L 82.018300 342.003200 L 95.249600 342.003200 L 121.712400 280.753300 L 107.166600 280.753300 L 101.471000 293.984600 L 75.796800 293.984600 L 70.101300 280.753300 Z M 128.810000 280.753300 L 128.810000 342.003200 L 142.479500 342.003200 L 142.479500 280.753300 Z M 88.677800 323.777200 L 80.966800 305.989300 L 96.301100 305.989300 Z M 55.555500 233.666700 L 55.555500 247.555600 L 152.777700 247.555600 L 152.777700 233.666700 Z M 55.555500 193.322700 L 55.555500 207.211500 L 262.768900 207.211500 L 262.768900 193.322700 Z" transform="scale(0.720000,0.720000) translate(0.000000,0.000000)" opacity="1.000000"></path><path d="M 13.966107 104.252266 L 102.736996 104.252266 L 2.854995 3.319880 L 2.854995 93.141154 C 2.854995 99.277652 7.829609 104.252266 13.966107 104.252266 Z" transform="scale(0.720000,0.720000) translate(221.999999,6.000000)" opacity="1.000000"></path></g></svg>