<svg width="100" height="100" viewBox="0 0 100 100" fill="none" xmlns="http://www.w3.org/2000/svg">
<path d="M91.333 25.354C91.333 28.679 88.638 31.375 85.312 31.375H14.688C11.363 31.375 8.66699 28.68 8.66699 25.354C8.66699 22.029 11.362 19.333 14.688 19.333H85.313C88.638 19.333 91.333 22.029 91.333 25.354Z" fill="white"/>
<path d="M81.333 50.657C81.333 53.982 78.638 56.678 75.312 56.678H24.688C21.363 56.678 18.667 53.983 18.667 50.657C18.667 47.332 21.362 44.636 24.688 44.636H75.313C78.638 44.636 81.333 47.332 81.333 50.657Z" fill="white"/>
<path d="M66.333 75.959C66.333 79.284 63.638 81.98 60.312 81.98H39.688C36.363 81.98 33.667 79.285 33.667 75.959C33.667 72.634 36.362 69.938 39.688 69.938H60.313C63.638 69.938 66.333 72.634 66.333 75.959Z" fill="white"/>
</svg>
