<svg width="25" height="25" viewBox="0 0 25 25" fill="none" xmlns="http://www.w3.org/2000/svg">
<g clip-path="url(#clip0_1_2)">
<path d="M12.5 25C19.4036 25 25 19.4036 25 12.5C25 5.59644 19.4036 0 12.5 0C5.59644 0 0 5.59644 0 12.5C0 19.4036 5.59644 25 12.5 25Z" fill="white"/>
<path d="M17.9537 9.24805C18.2638 9.24805 18.4788 8.93454 18.3626 8.64705C17.9497 7.62632 16.9483 6.9043 15.7813 6.9043H15.2418C15.0406 5.84161 14.1089 5 12.9687 5H12.0312C10.8919 5 9.95952 5.84105 9.75822 6.9043H9.21875C8.05174 6.9043 7.05031 7.62632 6.63743 8.64705C6.52115 8.93454 6.73616 9.24805 7.04627 9.24805H17.9537ZM12.0312 5.87891H12.9687C13.6104 5.87891 14.155 6.31057 14.3383 6.9043H10.6617C10.845 6.31057 11.3896 5.87891 12.0312 5.87891ZM8.25351 18.7753C8.3024 19.4621 8.88005 20 9.56853 20H15.4314C16.1199 20 16.6976 19.4621 16.7465 18.7753L17.3624 10.127H7.63763L8.25351 18.7753ZM13.7017 12.4781C13.7139 12.2357 13.9205 12.0487 14.1626 12.0611C14.405 12.0732 14.5917 12.2796 14.5795 12.5219L14.3451 17.2094C14.3334 17.4444 14.1392 17.627 13.9066 17.627C13.6536 17.627 13.4548 17.4153 13.4673 17.1656L13.7017 12.4781ZM10.8374 12.0611C11.0795 12.0489 11.2862 12.2357 11.2983 12.4781L11.5326 17.1656C11.5451 17.4155 11.3463 17.627 11.0934 17.627C10.8608 17.627 10.6666 17.4444 10.6548 17.2094L10.4204 12.5219C10.4083 12.2796 10.595 12.0732 10.8374 12.0611Z" fill="#050505"/>
</g>
<defs>
<clipPath id="clip0_1_2">
<rect width="25" height="25" fill="white"/>
</clipPath>
</defs>
</svg>
