<svg width="42" height="42" viewBox="0 0 42 42" fill="none" xmlns="http://www.w3.org/2000/svg">
<path d="M2.29071 40.1282C2.29063 40.265 2.31752 40.4005 2.36984 40.5269C2.42215 40.6534 2.49888 40.7682 2.59562 40.865C2.69237 40.9617 2.80723 41.0384 2.93365 41.0907C3.06007 41.1431 3.19556 41.17 3.33238 41.1699H19.999V18.2532H2.29071V40.1282Z" fill="white"/>
<path d="M22.0824 41.1699H38.7491C38.8859 41.17 39.0214 41.1431 39.1478 41.0907C39.2742 41.0384 39.3891 40.9617 39.4858 40.865C39.5826 40.7682 39.6593 40.6534 39.7116 40.5269C39.7639 40.4005 39.7908 40.265 39.7907 40.1282V18.2532H22.0824V41.1699Z" fill="white"/>
<path d="M40.8324 9.90759H30.3383C31.2149 9.34784 31.9514 8.59437 32.4909 7.70519C32.9652 6.97571 33.2102 6.12089 33.1941 5.25092C33.1781 4.38095 32.9019 3.53573 32.401 2.8242C31.8975 2.02693 31.1458 1.41738 30.2616 1.08948C29.3775 0.761581 28.4101 0.733538 27.5084 1.00967C24.0864 1.97394 21.4314 6.49316 21.0407 9.91988C20.6501 6.49316 17.9951 1.97394 14.573 1.00967C13.6714 0.733538 12.704 0.761581 11.8198 1.08948C10.9357 1.41738 10.184 2.02693 9.68042 2.8242C9.17959 3.53573 8.90335 4.38095 8.88733 5.25092C8.87131 6.12089 9.11623 6.97571 9.59052 7.70519C10.1301 8.59437 10.8666 9.34784 11.7432 9.90759H1.24906C1.11225 9.90751 0.976756 9.93439 0.850339 9.98671C0.723921 10.039 0.609056 10.1158 0.512312 10.2125C0.415568 10.3092 0.338842 10.4241 0.286522 10.5505C0.234203 10.6769 0.207315 10.8124 0.207398 10.9493V15.1159C0.207322 15.2527 0.234214 15.3882 0.286536 15.5146C0.338858 15.6411 0.415584 15.7559 0.512327 15.8527C0.609069 15.9494 0.723932 16.0261 0.850346 16.0784C0.976761 16.1308 1.11225 16.1577 1.24906 16.1576H40.8324C40.9692 16.1577 41.1047 16.1308 41.2311 16.0784C41.3575 16.0261 41.4724 15.9494 41.5691 15.8527C41.6659 15.7559 41.7426 15.6411 41.7949 15.5146C41.8472 15.3882 41.8741 15.2527 41.8741 15.1159V10.9493C41.8741 10.8124 41.8473 10.6769 41.7949 10.5505C41.7426 10.4241 41.6659 10.3092 41.5691 10.2125C41.4724 10.1158 41.3575 10.039 41.2311 9.98671C41.1047 9.93439 40.9692 9.90751 40.8324 9.90759ZM12.3168 6.15379C11.7883 5.07905 12.2294 3.75561 13.7267 4.01769C15.1424 4.26551 16.8395 6.82832 17.5678 9.05103C15.6411 8.54165 12.9824 7.50738 12.3168 6.15379ZM29.7647 6.15379C29.099 7.50738 26.4403 8.54139 24.5136 9.05103C25.242 6.82832 26.939 4.26551 28.3548 4.01769C29.852 3.75561 30.2931 5.07905 29.7647 6.15379Z" fill="white"/>
</svg>
