<svg width="40" height="40" viewBox="0 0 40 40" fill="none" xmlns="http://www.w3.org/2000/svg">
<g clip-path="url(#clip0_0_3)">
<path d="M29.0883 40C28.8083 40 28.5217 39.965 28.2383 39.89L2.46667 32.9883C0.7 32.5017 -0.353334 30.6717 0.109999 28.905L3.36167 16.785C3.48167 16.34 3.93833 16.0817 4.38167 16.195C4.82667 16.3133 5.09 16.7717 4.97167 17.215L1.72167 29.3317C1.49 30.215 2.02 31.135 2.905 31.38L28.6667 38.2783C29.5517 38.5117 30.465 37.985 30.695 37.105L31.9967 32.2817C32.1167 31.8367 32.5733 31.5717 33.0183 31.6933C33.4633 31.8133 33.725 32.2717 33.6067 32.715L32.3067 37.5317C31.915 39.015 30.565 40 29.0883 40Z" fill="#6B6B6B"/>
<path d="M36.6667 30H10C8.16167 30 6.66667 28.505 6.66667 26.6667V6.66667C6.66667 4.82833 8.16167 3.33333 10 3.33333H36.6667C38.505 3.33333 40 4.82833 40 6.66667V26.6667C40 28.505 38.505 30 36.6667 30ZM10 5C9.08167 5 8.33333 5.74833 8.33333 6.66667V26.6667C8.33333 27.585 9.08167 28.3333 10 28.3333H36.6667C37.585 28.3333 38.3333 27.585 38.3333 26.6667V6.66667C38.3333 5.74833 37.585 5 36.6667 5H10Z" fill="#6B6B6B"/>
<path d="M15 15C13.1617 15 11.6667 13.505 11.6667 11.6667C11.6667 9.82833 13.1617 8.33333 15 8.33333C16.8383 8.33333 18.3333 9.82833 18.3333 11.6667C18.3333 13.505 16.8383 15 15 15ZM15 10C14.0817 10 13.3333 10.7483 13.3333 11.6667C13.3333 12.585 14.0817 13.3333 15 13.3333C15.9183 13.3333 16.6667 12.585 16.6667 11.6667C16.6667 10.7483 15.9183 10 15 10Z" fill="#6B6B6B"/>
<path d="M7.61667 28.2167C7.40333 28.2167 7.19 28.135 7.02667 27.9733C6.70167 27.6483 6.70167 27.12 7.02667 26.795L14.8983 18.9233C15.8417 17.98 17.49 17.98 18.4333 18.9233L20.7767 21.2667L27.2633 13.4833C27.735 12.9183 28.4283 12.59 29.1667 12.5833H29.185C29.915 12.5833 30.6067 12.9 31.0833 13.455L39.8 23.625C40.1 23.9733 40.06 24.5 39.71 24.8C39.3617 25.1 38.8367 25.0617 38.535 24.71L29.8183 14.54C29.6567 14.3533 29.4333 14.25 29.185 14.25C29.0117 14.235 28.7067 14.355 28.545 14.55L21.4733 23.035C21.3233 23.215 21.105 23.3233 20.87 23.3333C20.6333 23.35 20.4083 23.2567 20.2433 23.09L17.255 20.1017C16.94 19.7883 16.3917 19.7883 16.0767 20.1017L8.205 27.9733C8.04333 28.135 7.83 28.2167 7.61667 28.2167Z" fill="#6B6B6B"/>
</g>
<defs>
<clipPath id="clip0_0_3">
<rect width="40" height="40" fill="white"/>
</clipPath>
</defs>
</svg>
