<svg version="1.2" baseProfile="tiny-ps" xmlns="http://www.w3.org/2000/svg" viewBox="0 0 640 640" width="64" height="64">
	<title>like-svg</title>
	<style>
		tspan { white-space:pre }
		.shp0 { fill: #0068ff } 
	</style>
	<g id="Layer">
		<path id="Layer" class="shp0" d="M129.77 267.05L25.68 267.05C15.96 267.05 8.33 274.68 8.33 284.4L8.33 561.97C8.33 571.69 15.96 579.32 25.68 579.32L129.77 579.32C139.49 579.32 147.11 571.69 147.11 561.97L147.11 284.4C147.12 274.68 139.49 267.05 129.77 267.05Z" />
		<path id="Layer" class="shp0" d="M631.67 299.93C631.67 271.66 612.26 243.05 575.19 243.05L407.12 243.05C431.13 200.1 438.19 139.69 421.5 95.49C409.24 62.98 385.81 44.01 355.49 42.08L355 42.04C335.27 40.83 318.19 55.61 316.55 75.31C312.23 119.15 293.02 196.69 265.49 224.22C242.31 247.4 222.47 257.11 189.58 273.19C184.82 275.52 179.62 278.06 174.12 280.8C174.22 281.99 174.28 283.18 174.28 284.4L174.28 559.14C178.25 560.5 182.17 561.85 186.02 563.17C240.3 581.88 287.21 598.03 358.91 598.03L494.79 598.03C531.87 598.03 551.27 569.41 551.27 541.15C551.27 532.76 549.57 524.35 546.2 516.65C558.55 514.43 569.36 508.49 577.37 499.4C586.46 489.07 591.47 475.34 591.47 460.74C591.47 452.38 589.77 443.97 586.41 436.29C616.18 431.15 631.68 405.6 631.68 380.34C631.68 365.69 626.46 350.94 616.28 340.14C626.44 329.33 631.67 314.58 631.67 299.93Z" />
	</g>
</svg>