<svg width="100" height="100" viewBox="0 0 100 100" fill="none" xmlns="http://www.w3.org/2000/svg">
<path d="M96.0714 20.8596V14.622C96.0714 10.6791 92.8714 7.47914 88.9286 7.47914H11.0714C7.12863 7.47914 3.92856 10.6791 3.92856 14.622V20.8596H96.0714V20.8596Z" fill="white"/>
<path d="M3.92856 29.9934V57.0791C3.92856 61.022 7.12863 64.222 11.0714 64.222H54.6571C54.6857 63.2934 54.9572 62.3791 55.4428 61.5505C56.4858 59.7363 58.3572 58.622 60.4571 58.5792C60.5858 58.5649 60.7001 58.4648 60.7001 58.3219C60.7858 55.0648 63.4143 52.5077 66.6715 52.5077C67.6572 52.5077 68.6429 52.7506 69.5143 53.2362H69.5286C69.5714 53.2362 69.6143 53.2505 69.6571 53.2505C69.7429 53.2505 69.8143 53.222 69.8715 53.1362C70.9572 51.3505 72.8714 50.2791 74.9572 50.2791C77.0571 50.2791 78.9572 51.3505 80.0429 53.1362C80.1286 53.2505 80.2429 53.2648 80.2714 53.2648L80.2857 53.2934L80.4 53.2362C81.2714 52.7506 82.2572 52.5077 83.2429 52.5077C86.5001 52.5077 89.1286 55.0648 89.2143 58.3219C89.2143 58.4649 89.3286 58.5649 89.4714 58.5792C91.5572 58.622 93.4286 59.7363 94.4857 61.5505V61.5648C95.5 60.322 96.0714 58.7506 96.0714 57.0791V29.9934H3.92856ZM18.9429 55.6505C18.9429 56.4363 18.3143 57.0791 17.5143 57.0791H12.5C11.7143 57.0791 11.0714 56.4363 11.0714 55.6505V50.6362C11.0714 49.8505 11.7143 49.2077 12.5 49.2077H17.5143C18.3143 49.2077 18.9429 49.8505 18.9429 50.6362V55.6505ZM31.9286 55.6505C31.9286 56.4363 31.2857 57.0791 30.5 57.0791H25.4857C24.7 57.0791 24.0572 56.4363 24.0572 55.6505V50.6362C24.0572 49.8505 24.7 49.2077 25.4857 49.2077H30.5C31.2857 49.2077 31.9286 49.8505 31.9286 50.6362V55.6505ZM44.9 55.6505C44.9 56.4363 44.2715 57.0791 43.4714 57.0791H38.4714C37.6714 57.0791 37.0428 56.4363 37.0428 55.6505V50.6362C37.0428 49.8505 37.6714 49.2077 38.4714 49.2077H43.4714C44.2715 49.2077 44.9 49.8505 44.9 50.6362V55.6505ZM57.8857 55.6505C57.8857 56.4363 57.2429 57.0791 56.4572 57.0791H51.4429C50.6572 57.0791 50.0143 56.4363 50.0143 55.6505V50.6362C50.0143 49.8505 50.6572 49.2077 51.4429 49.2077H56.4572C57.2429 49.2077 57.8857 49.8505 57.8857 50.6362V55.6505ZM64.0715 42.4506H11.0714C10.2857 42.4506 9.64284 41.8077 9.64284 41.022C9.64284 40.2363 10.2857 39.5934 11.0714 39.5934H64.0715C64.8572 39.5934 65.5 40.2363 65.5 41.022C65.5 41.8077 64.8572 42.4506 64.0715 42.4506Z" fill="white"/>
<path d="M70.8429 67.2077C70.8429 68.0934 70.6429 68.7506 70.2429 69.2362C70.1143 69.3934 69.8572 69.722 68.8858 69.722C67.9286 69.722 67.6572 69.3934 67.5286 69.2362C67.1286 68.7506 66.9429 68.0934 66.9429 67.2077C66.9429 66.3363 67.1286 65.6648 67.5286 65.1934C67.6572 65.0362 67.9286 64.7077 68.8858 64.7077C69.8572 64.7077 70.1143 65.0362 70.2429 65.1934C70.6429 65.6648 70.8429 66.3363 70.8429 67.2077Z" fill="white"/>
<path d="M82.9714 78.4506C82.9714 79.322 82.7857 79.9792 82.3858 80.4648C82.2571 80.622 81.9857 80.9506 81.0286 80.9506C80.0572 80.9506 79.8 80.622 79.6714 80.4648C79.2715 79.9934 79.0715 79.322 79.0715 78.4506C79.0715 77.5649 79.2715 76.9077 79.6571 76.422C79.8001 76.2648 80.0572 75.9363 81.0286 75.9363C81.9857 75.9363 82.2572 76.2648 82.3858 76.422C82.7857 76.9077 82.9714 77.5649 82.9714 78.4506Z" fill="white"/>
<path d="M93.1643 70.1762L93.1546 70.1703C91.7436 69.3047 91.2567 67.4862 92.0463 66.0314L92.0482 66.0281C93.1574 63.9844 91.716 61.49 89.3913 61.4306C87.7341 61.3884 86.4008 60.0549 86.3585 58.3978V58.3974C86.2991 56.0727 83.8048 54.6313 81.7611 55.7405L81.7574 55.7425C80.3026 56.532 78.4841 56.0451 77.6186 54.6342L77.6126 54.6242C76.3975 52.6438 73.5199 52.6438 72.3049 54.6243L72.2991 54.6339C71.4334 56.045 69.615 56.5319 68.1601 55.7421L68.1569 55.7405C66.1131 54.6311 63.6188 56.0726 63.5595 58.3973C63.5171 60.0544 62.1837 61.3878 60.5265 61.4301L60.5261 61.4302C58.2015 61.4895 56.7601 63.9836 57.8692 66.0274L57.8712 66.0312C58.6609 67.4861 58.1739 69.3044 56.763 70.17L56.7531 70.1761C54.7727 71.391 54.7727 74.2687 56.7531 75.4836L56.7627 75.4895C58.1737 76.3551 58.6607 78.1735 57.871 79.6284L57.8692 79.6317C56.76 81.6755 58.2014 84.1698 60.5261 84.2292C62.1832 84.2714 63.5165 85.6048 63.5589 87.262V87.2624C63.6182 89.587 66.1125 91.0285 68.1563 89.9193L68.16 89.9172C69.6149 89.1278 71.4332 89.6147 72.2988 91.0256L72.3049 91.0356C73.5199 93.016 76.3975 93.0159 77.6124 91.0355L77.6183 91.0259C78.4839 89.6148 80.3023 89.1279 81.7572 89.9176L81.7604 89.9193C83.8042 91.0286 86.2985 89.5872 86.3579 87.2625C86.4002 85.6054 87.7336 84.2719 89.3908 84.2297L89.3912 84.2296C91.7158 84.1703 93.1573 81.6761 92.0481 79.6323L92.046 79.6285C91.2565 78.1737 91.7434 76.3554 93.1544 75.4898L93.1643 75.4837C95.1447 74.2688 95.1447 71.3912 93.1643 70.1762ZM65.3352 71.063C64.4987 70.0548 64.0817 68.7718 64.0817 67.214C64.0817 65.6561 64.4987 64.3731 65.3352 63.3649C66.1716 62.3568 67.3582 61.8522 68.8928 61.8522C70.4251 61.8522 71.6118 62.3568 72.4483 63.3649C73.2846 64.3731 73.7018 65.6561 73.7018 67.214C73.7018 68.7718 73.2846 70.0548 72.4483 71.063C71.6118 72.0712 70.4251 72.5758 68.8928 72.5758C67.3582 72.5758 66.1716 72.0712 65.3352 71.063ZM70.8588 83.714C70.4863 84.4095 69.6205 84.6714 68.925 84.2989C68.2294 83.9265 67.9676 83.0607 68.34 82.3652L79.2413 62.0078C79.6138 61.3122 80.4796 61.0504 81.1751 61.4228C81.8706 61.7953 82.1325 62.661 81.7601 63.3566L70.8588 83.714ZM84.5799 82.2947C83.7435 83.303 82.5567 83.8076 81.0245 83.8076C79.4899 83.8076 78.3055 83.303 77.4668 82.2947C76.6303 81.2867 76.2133 80.0037 76.2133 78.4458C76.2133 76.8879 76.6303 75.6061 77.4668 74.5968C78.3055 73.5886 79.4899 73.0839 81.0245 73.0839C82.5567 73.0839 83.7435 73.5886 84.5799 74.5968C85.4163 75.6061 85.8357 76.8879 85.8357 78.4458C85.8357 80.0037 85.4163 81.2867 84.5799 82.2947Z" fill="white"/>
</svg>
