<svg width="35" height="35" viewBox="0 0 35 35" fill="none" xmlns="http://www.w3.org/2000/svg">
<path d="M22.5241 28.9252C22.4282 28.7328 22.2311 28.6118 22.0161 28.6129H18.0645V24.6613C18.0645 24.6511 18.0596 24.6425 18.059 24.6332C22.504 24.3369 25.9603 20.6485 25.9677 16.1935C25.9677 15.8818 25.715 15.629 25.4032 15.629C25.0915 15.629 24.8387 15.8818 24.8387 16.1935C24.8387 20.2466 21.5531 23.5323 17.5 23.5323C13.447 23.5323 10.1613 20.2466 10.1613 16.1935C10.1613 15.8818 9.90853 15.629 9.59678 15.629C9.28503 15.629 9.03226 15.8818 9.03226 16.1935C9.0397 20.6485 12.496 24.3369 16.941 24.6332C16.941 24.6425 16.9355 24.6511 16.9355 24.6613V28.6129H12.9839C12.77 28.6129 12.5743 28.7336 12.4786 28.9252L11.3496 31.1833C11.2622 31.3583 11.2716 31.5661 11.3744 31.7323C11.4775 31.8988 11.6591 32 11.8548 32H23.1452C23.3414 32.0011 23.5239 31.9002 23.6275 31.7337C23.7312 31.567 23.7408 31.3586 23.6532 31.1833L22.5241 28.9252ZM12.7683 30.871L13.3328 29.7419H21.6672L22.2317 30.871H12.7683Z" fill="#0056B3"/>
<path d="M16.95 22H18.05C20.7825 21.9976 22.997 20.1674 23 17.9091V6.09091C22.997 3.83261 20.7825 2.00244 18.05 2H16.95C14.2175 2.00244 12.003 3.83261 12 6.09091V17.9091C12.003 20.1674 14.2175 21.9976 16.95 22ZM13.1 6.09091C13.1024 4.33443 14.8247 2.91109 16.95 2.90909H18.05C20.1753 2.91109 21.8976 4.33443 21.9 6.09091V17.9091C21.8976 19.6656 20.1753 21.0889 18.05 21.0909H16.95C14.8247 21.0889 13.1024 19.6656 13.1 17.9091V6.09091Z" fill="#0056B3"/>
<path d="M14.1129 12.3386H20.8871C21.1989 12.3386 21.4516 12.0859 21.4516 11.7741C21.4516 11.4624 21.1989 11.2096 20.8871 11.2096H14.1129C13.8012 11.2096 13.5484 11.4624 13.5484 11.7741C13.5484 12.0859 13.8012 12.3386 14.1129 12.3386Z" fill="#0056B3"/>
</svg>
