<svg height='100px' width='100px'  fill="#ffffff" xmlns:dc="http://purl.org/dc/elements/1.1/" xmlns:cc="http://creativecommons.org/ns#" xmlns:rdf="http://www.w3.org/1999/02/22-rdf-syntax-ns#" xmlns:svg="http://www.w3.org/2000/svg" xmlns="http://www.w3.org/2000/svg" xmlns:sodipodi="http://sodipodi.sourceforge.net/DTD/sodipodi-0.dtd" xmlns:inkscape="http://www.inkscape.org/namespaces/inkscape" version="1.1" x="0px" y="0px" viewBox="0 0 100 100"><g transform="translate(0,-952.36218)"><path d="m 27.03125,960.36221 c -1.1046,0 -2,0.89543 -2,2 l 0,17 c 0,1.10456 0.8954,2 2,2 1.1046,0 2,-0.89544 2,-2 l 0,-17 c 0,-1.10457 -0.8954,-2 -2,-2 z m 46,0 c -1.1046,0 -2,0.89543 -2,2 l 0,17 c 0,1.10456 0.8954,2 2,2 1.1046,0 2,-0.89544 2,-2 l 0,-17 c 0,-1.10457 -0.8954,-2 -2,-2 z m -60,6 C 8.58545,966.36221 5,969.94765 5,974.39346 l 0,17.96875 90,0 0,-17.96875 c 0,-4.44581 -3.5856,-8.03125 -8.0313,-8.03125 l -5.9687,0 -3.96875,0 0,8.53125 c 1.22659,1.0986 1.99995,2.6925 1.99995,4.46875 0,3.31371 -2.68624,6 -5.99995,6 -3.31371,0 -6,-2.68629 -6,-6 0,-1.77625 0.77341,-3.37015 2,-4.46875 l 0,-8.53125 -38.03125,0 0,8.5 c 1.24568,1.09942 2.03125,2.70792 2.03125,4.5 0,3.31371 -2.68629,6 -6,6 -3.31371,0 -6,-2.68629 -6,-6 0,-1.76041 0.76116,-3.33993 1.96875,-4.4375 l 0,-8.5625 z M 5,996.36225 5,1036.3309 c 0,4.4458 3.58535,8.0313 8.03125,8.0313 l 73.93745,0 c 4.4457,0 8.0313,-3.5855 8.0313,-8.0313 l 0,-39.96865 z" style="text-indent:0;text-transform:none;direction:ltr;block-progression:tb;baseline-shift:baseline;color:#000000;enable-background:accumulate;" fill="#ffffff" fill-opacity="1" stroke="none" marker="none" visibility="visible" display="inline" overflow="visible"></path></g></svg>