<svg width="100" height="100" viewBox="0 0 100 100" fill="none" xmlns="http://www.w3.org/2000/svg">
<path d="M0.50002 0.98002C0.765116 0.98002 0.98002 0.765116 0.98002 0.50002C0.98002 0.234923 0.765116 0.0200195 0.50002 0.0200195C0.234923 0.0200195 0.0200195 0.234923 0.0200195 0.50002C0.0200195 0.765116 0.234923 0.98002 0.50002 0.98002Z" fill="white"/>
<path d="M72.011 34.689H27.989C25.793 34.689 23.6869 35.5613 22.1341 37.1141C20.5813 38.6669 19.709 40.773 19.709 42.969V72.1491C19.709 74.3451 20.5813 76.4511 22.1341 78.0039C23.6869 79.5567 25.793 80.4291 27.989 80.4291H72.011C74.207 80.4291 76.313 79.5567 77.8658 78.0039C79.4186 76.4511 80.291 74.3451 80.291 72.1491V42.969C80.291 40.773 79.4186 38.6669 77.8658 37.1141C76.313 35.5613 74.207 34.689 72.011 34.689V34.689ZM27.9821 40.209H72.011C72.743 40.209 73.445 40.4997 73.9626 41.0173C74.4802 41.5349 74.771 42.237 74.771 42.969V62.5995L65.6009 55.2993C65.1159 54.921 64.5185 54.7156 63.9035 54.7156C63.2885 54.7156 62.6911 54.921 62.2061 55.2993L50.5106 64.2693L41.1611 53.9814C40.7238 53.5034 40.1324 53.1945 39.4903 53.1088C38.8482 53.023 38.1964 53.1658 37.649 53.5122L25.229 61.3782V42.969C25.229 42.6065 25.3004 42.2476 25.4391 41.9128C25.5778 41.5779 25.7811 41.2736 26.0374 41.0173C26.2937 40.7611 26.5979 40.5578 26.9328 40.4191C27.2676 40.2804 27.6265 40.209 27.989 40.209H27.9821ZM25.2221 72.1491V67.9401L38.6495 59.4117L52.8152 74.9091H27.9752C27.2456 74.9054 26.5471 74.613 26.0325 74.0958C25.5179 73.5786 25.229 72.8787 25.229 72.1491H25.2221ZM72.011 74.9091H60.281L54.2366 68.2989L63.8483 60.9573L74.771 69.6582V72.1491C74.771 72.8811 74.4802 73.5831 73.9626 74.1007C73.445 74.6183 72.743 74.9091 72.011 74.9091Z" fill="#05224C"/>
<path d="M51.5525 58.2799C53.1274 58.2799 54.6668 57.8129 55.9763 56.938C57.2857 56.0631 58.3063 54.8195 58.909 53.3645C59.5117 51.9095 59.6693 50.3085 59.3621 48.7639C59.0549 47.2193 58.2965 45.8005 57.1829 44.6869C56.0693 43.5733 54.6505 42.815 53.1059 42.5077C51.5613 42.2005 49.9603 42.3582 48.5053 42.9609C47.0504 43.5635 45.8068 44.5841 44.9318 45.8936C44.0569 47.203 43.5899 48.7425 43.5899 50.3173C43.5917 52.4286 44.4312 54.4528 45.9241 55.9457C47.417 57.4386 49.4413 58.2781 51.5525 58.2799V58.2799ZM51.5525 47.8747C52.0356 47.8747 52.5079 48.018 52.9095 48.2864C53.3112 48.5548 53.6243 48.9363 53.8092 49.3826C53.994 49.8289 54.0424 50.32 53.9482 50.7939C53.8539 51.2677 53.6213 51.7029 53.2797 52.0445C52.9381 52.3861 52.5029 52.6188 52.029 52.713C51.5552 52.8073 51.0641 52.7589 50.6178 52.574C50.1714 52.3891 49.79 52.0761 49.5216 51.6744C49.2532 51.2727 49.1099 50.8004 49.1099 50.3173C49.1099 49.6695 49.3672 49.0482 49.8253 48.5902C50.2834 48.1321 50.9047 47.8747 51.5525 47.8747Z" fill="#05224C"/>
<path d="M25.8845 29.8935C25.8845 30.6255 26.1752 31.3276 26.6928 31.8452C27.2104 32.3628 27.9125 32.6535 28.6445 32.6535H71.3555C72.0875 32.6535 72.7895 32.3628 73.3071 31.8452C73.8247 31.3276 74.1155 30.6255 74.1155 29.8935C74.1155 29.1615 73.8247 28.4595 73.3071 27.9419C72.7895 27.4243 72.0875 27.1335 71.3555 27.1335H28.6445C27.9125 27.1335 27.2104 27.4243 26.6928 27.9419C26.1752 28.4595 25.8845 29.1615 25.8845 29.8935V29.8935Z" fill="#05224C"/>
<path d="M66.56 25.091C67.292 25.091 67.994 24.8003 68.5116 24.2827C69.0292 23.7651 69.32 23.063 69.32 22.331C69.32 21.599 69.0292 20.897 68.5116 20.3794C67.994 19.8618 67.292 19.571 66.56 19.571H33.44C32.708 19.571 32.006 19.8618 31.4884 20.3794C30.9708 20.897 30.68 21.599 30.68 22.331C30.68 23.063 30.9708 23.7651 31.4884 24.2827C32.006 24.8003 32.708 25.091 33.44 25.091H66.56Z" fill="#05224C"/>
</svg>
