<svg height='100px' width='100px'  fill="#ffffff" xmlns:dc="http://purl.org/dc/elements/1.1/" xmlns:cc="http://creativecommons.org/ns#" xmlns:rdf="http://www.w3.org/1999/02/22-rdf-syntax-ns#" xmlns:svg="http://www.w3.org/2000/svg" xmlns="http://www.w3.org/2000/svg" xmlns:sodipodi="http://sodipodi.sourceforge.net/DTD/sodipodi-0.dtd" xmlns:inkscape="http://www.inkscape.org/namespaces/inkscape" version="1.1" x="0px" y="0px" viewBox="0 0 100 100"><g transform="translate(0,-952.36218)"><path style="color:#000000;enable-background:accumulate;" d="m 17,966.36219 c -4.3974,0 -8,3.6026 -8,8 l 0,57.00001 c 0,3.8434 3.1566,7 7,7 l 68,0 c 3.8434,0 7,-3.1566 7,-7 l 0,-46.00001 c 0,-3.8434 -3.1566,-7 -7,-7 l -5,0 0,-10 c -1e-4,-1.0472 -0.9528,-1.9999 -2,-2 z m 0,4 58,0 0,8 -58,0 c -2.2506,0 -4,-1.7494 -4,-4 0,-2.2506 1.7494,-4 4,-4 z m -4,10.9062 c 1.1789,0.6866 2.5456,1.0938 4,1.0938 22.5241,-0.02 47.6406,0 67,0 1.6966,0 3,1.3034 3,3 l 0,12 -29,0 c -2.7354,0 -5,2.2646 -5,5.00001 l 0,12 c 0,2.7354 2.2646,5 5,5 l 29,0 0,12 c 0,1.6966 -1.3034,3 -3,3 l -68,0 c -1.6966,0 -3,-1.3034 -3,-3 z m 45,20.09381 29,0 0,14 -29,0 c -0.5886,0 -1,-0.4114 -1,-1 l 0,-12 c 0,-0.5886 0.4114,-1.0012 1,-1 z m 10,3 c -2.2091,0 -4,1.7909 -4,4 0,2.2092 1.7909,4 4,4 2.2091,0 4,-1.7908 4,-4 0,-2.2091 -1.7909,-4 -4,-4 z" fill="#ffffff" fill-opacity="1" fill-rule="nonzero" stroke="none" marker="none" visibility="visible" display="inline" overflow="visible"></path></g></svg>