<svg width="100" height="100" viewBox="0 0 100 100" fill="none" xmlns="http://www.w3.org/2000/svg">
<g clip-path="url(#clip0)">
<path d="M50.02 100.02C77.6343 100.02 100.02 77.6343 100.02 50.02C100.02 22.4058 77.6343 0.0200195 50.02 0.0200195C22.4058 0.0200195 0.0200195 22.4058 0.0200195 50.02C0.0200195 77.6343 22.4058 100.02 50.02 100.02Z" fill="#FF0000"/>
<path d="M55.6579 49.931L72.1489 33.44C73.5289 32.06 73.5289 29.714 72.1489 28.334L71.3899 27.575C70.0099 26.195 67.6639 26.195 66.2839 27.575L49.7929 44.066L33.3019 27.575C31.9219 26.195 29.5759 26.195 28.1959 27.575L27.4369 28.334C26.0569 29.714 26.0569 32.06 27.4369 33.44L43.9279 49.931L27.4369 66.422C26.0569 67.802 26.0569 70.148 27.4369 71.528L28.1959 72.287C29.5759 73.667 31.9219 73.667 33.3019 72.287L49.7929 55.796L66.2839 72.287C67.6639 73.667 70.0099 73.667 71.3899 72.287L72.1489 71.528C73.5289 70.148 73.5289 67.802 72.1489 66.422L55.6579 49.931Z" fill="white"/>
</g>
<defs>
<clipPath id="clip0">
<rect width="100" height="100" fill="white"/>
</clipPath>
</defs>
</svg>
