<svg width="100" height="100" viewBox="0 0 100 100" fill="none" xmlns="http://www.w3.org/2000/svg">
<g clip-path="url(#clip0)">
<path d="M50.02 100.02C77.6343 100.02 100.02 77.6343 100.02 50.02C100.02 22.4058 77.6343 0.0200195 50.02 0.0200195C22.4058 0.0200195 0.0200195 22.4058 0.0200195 50.02C0.0200195 77.6343 22.4058 100.02 50.02 100.02Z" fill="#FBE8E6"/>
<g clip-path="url(#clip1)">
<path d="M25.2079 74.875H40.7156H57.9656H80.1442V67.4822H32.6007L25.2079 74.875Z" fill="#E74438"/>
<path d="M49.3406 83.4999C52.9976 83.4999 56.0423 80.8311 56.6312 77.3392H42.0513C42.639 80.8311 45.6836 83.4999 49.3406 83.4999Z" fill="#E74438"/>
<path d="M19.8394 65.0179H31.5792L66.5055 30.0915C65.6677 21.3556 58.2908 14.5 49.3393 14.5C39.8272 14.5 32.0893 22.2379 32.0893 31.75V40.3035C32.0893 46.1858 30.0871 51.9732 26.4535 56.5999L19.8394 65.0179Z" fill="#E74438"/>
<path d="M66.5905 33.4922L35.0649 65.0178H78.8405L72.2264 56.5986C68.5916 51.9731 66.5905 46.1845 66.5905 40.3022V33.4922Z" fill="#E74438"/>
<path d="M29.1162 67.4822H18.537V74.875H21.7233L29.1162 67.4822Z" fill="#E74438"/>
</g>
</g>
<defs>
<clipPath id="clip0">
<rect width="100" height="100" fill="white"/>
</clipPath>
<clipPath id="clip1">
<rect x="18.5" y="14.5" width="61.6071" height="69" fill="white"/>
</clipPath>
</defs>
</svg>
