<svg xmlns="http://www.w3.org/2000/svg" xmlns:xlink="http://www.w3.org/1999/xlink" width="100" height="100" viewBox="0 0 100 100"><circle stroke="none" fill="#ffe3e0" r="48%" cx="50%" cy="50%"></circle><g transform="translate(50 50) scale(0.69 0.69) rotate(0) translate(-50 -50)" style="fill:#ff4143"><svg fill="#ff4143" xmlns="http://www.w3.org/2000/svg" data-name="Layer 1" viewBox="0 0 100 100" x="0px" y="0px"><title>Artboard 21</title><path d="M5.55,50a44.2,44.2,0,0,1,20.12-37.2,1.17,1.17,0,0,1,1.27,0l6.52,4.25a.74.74,0,0,1-.07,1.27A35.77,35.77,0,0,0,48.89,85.77V82.62A1.35,1.35,0,0,1,51,81.49L62.52,89a1.35,1.35,0,0,1,0,2.26L51,98.78a1.35,1.35,0,0,1-2.08-1.13v-3.2A44.61,44.61,0,0,1,5.55,50ZM51.11,5.54V2.35A1.35,1.35,0,0,0,49,1.22L37.48,8.73a1.35,1.35,0,0,0,0,2.26L49,18.51a1.35,1.35,0,0,0,2.08-1.13V14.23A35.77,35.77,0,0,1,66.6,81.67a.74.74,0,0,0-.07,1.27l6.52,4.25a1.17,1.17,0,0,0,1.27,0A44.46,44.46,0,0,0,51.11,5.54ZM50,74.75A24.75,24.75,0,1,1,74.75,50,24.78,24.78,0,0,1,50,74.75Zm8.87-19.87c0-3.63-1.93-5.84-6.73-7.54C48.71,46,47.3,45.2,47.3,43.87c0-1.13.85-2.26,3.47-2.26a12.38,12.38,0,0,1,3.57.51,2.27,2.27,0,0,0,.64.09,2.34,2.34,0,0,0,.6-4.59,17.23,17.23,0,0,0-3.68-.53V35.53a2,2,0,1,0-4,0v1.85c-4.31.85-6.81,3.63-6.81,7.18,0,3.91,2.94,5.93,7.26,7.38,3,1,4.27,2,4.27,3.51s-1.57,2.5-3.87,2.5a13.55,13.55,0,0,1-4.36-.75,2.4,2.4,0,0,0-.77-.13,2.28,2.28,0,0,0-2.23,1.71l0,.19a2.34,2.34,0,0,0,1.55,2.8,18.64,18.64,0,0,0,4.81.86v1.85a2,2,0,1,0,3.95,0V62.33C56.33,61.53,58.87,58.47,58.87,54.88Z"></path></svg></g></svg>