<svg xmlns="http://www.w3.org/2000/svg" xmlns:xlink="http://www.w3.org/1999/xlink" width="100" height="100" viewBox="0 0 100 100"><circle stroke="none" fill="#ffe3e0" r="48%" cx="50%" cy="50%"></circle><g transform="translate(50 50) scale(0.69 0.69) rotate(0) translate(-50 -50)" style="fill:#ff4143"><svg fill="#ff4143" xmlns="http://www.w3.org/2000/svg" viewBox="0 0 64 64" x="0px" y="0px"><title>Package Returned</title><g data-name="Package Returned"><path d="M22,15H32v8.5859l-.293-.2929a.9994.9994,0,0,0-1.414,0L29,24.5859,27.707,23.293a.9995.9995,0,0,0-1.414,0L25,24.5859,23.707,23.293a.9994.9994,0,0,0-1.414,0L22,23.5859ZM29.7188,5H24.2813l-2,8h9.4375ZM22.22,5H11a.9988.9988,0,0,0-.8.4L4.5,13H20.22ZM49.5,13,43.8,5.4A.9988.9988,0,0,0,43,5H31.78l2,8ZM32,46a14.9025,14.9025,0,0,0,3.0283,9H5a1,1,0,0,1-1-1V15H20V26a1,1,0,0,0,1.707.707L23,25.4141l1.293,1.2929a.9994.9994,0,0,0,1.414,0L27,25.4141l1.293,1.2929a.9994.9994,0,0,0,1.414,0L31,25.4141l1.293,1.2929A1,1,0,0,0,34,26V15H50V31.3023A15.0034,15.0034,0,0,0,32,46ZM8.293,42.707a.9994.9994,0,0,0,1.414,0L10,42.4141V46a1,1,0,0,0,2,0V42.4141l.293.2929a1,1,0,0,0,1.414-1.414l-1.9991-1.9992a1.0033,1.0033,0,0,0-1.4158,0L8.293,41.293A.9994.9994,0,0,0,8.293,42.707ZM22,50a1,1,0,0,0-1-1H9a1,1,0,0,0,0,2H21A1,1,0,0,0,22,50Zm-.293-8.707-1.9991-1.9992a1.0033,1.0033,0,0,0-1.4158,0L16.293,41.293a1,1,0,0,0,1.414,1.414L18,42.4141V46a1,1,0,0,0,2,0V42.4141l.293.2929a1,1,0,0,0,1.414-1.414ZM60,46A13,13,0,1,1,47,33,13.015,13.015,0,0,1,60,46Zm-6,1.5A4.505,4.505,0,0,0,49.5,43H44l1.6-1.2A1,1,0,1,0,44.4,40.2l-4,3c-.0163.0122-.0228.0326-.0382.0457a.98.98,0,0,0-.196.2346.9563.9563,0,0,0-.0668.0992.9383.9383,0,0,0,0,.8406,2.0508,2.0508,0,0,0,.2628.3338c.0154.0131.0218.0335.0382.0457l4,3A1,1,0,1,0,45.6,46.2L44,45h5.5a2.5,2.5,0,0,1,0,5H47a1,1,0,0,0,0,2h2.5A4.505,4.505,0,0,0,54,47.5Z"></path></g></svg></g></svg>