<svg width="60" height="60" viewBox="0 0 60 60" fill="none" xmlns="http://www.w3.org/2000/svg">
<circle cx="30" cy="30" r="30" fill="#76E0DE" fill-opacity="0.33"/>
<rect x="12" y="37" width="35" height="9" fill="#FFAB18" fill-opacity="0.62"/>
<path d="M31.7603 46.7169H12.1839C11.9288 46.7169 11.6854 46.6084 11.5148 46.419C11.3441 46.2296 11.2614 45.9768 11.2878 45.7229L14.2905 16.8976C14.3386 16.4384 14.725 16.09 15.1866 16.09H36.205C36.6665 16.09 37.053 16.4384 37.1011 16.8976L38.2083 27.5299C38.2347 27.7839 38.152 28.0366 37.9814 28.2261C37.8107 28.4155 37.5673 28.524 37.3122 28.524H34.4668L32.6564 45.9094C32.6083 46.3686 32.2218 46.7169 31.7603 46.7169ZM13.1832 44.9153H30.9486L32.759 27.5299C32.8071 27.0708 33.1936 26.7224 33.6551 26.7224H36.3129L35.3934 17.8916H15.9982L13.1832 44.9153Z" fill="#05224C"/>
<path d="M32.2013 23.1462C31.704 23.1462 31.3005 22.7427 31.3005 22.2454V15.6894C31.3005 12.5988 28.7864 10.0847 25.6958 10.0847C22.6052 10.0847 20.0911 12.5988 20.0911 15.6894V22.2454C20.0911 22.7427 19.6876 23.1462 19.1903 23.1462C18.693 23.1462 18.2895 22.7427 18.2895 22.2454V15.6894C18.2895 11.6054 21.6117 8.28314 25.6958 8.28314C29.7798 8.28314 33.1021 11.6054 33.1021 15.6894V22.2454C33.1021 22.7427 32.6986 23.1462 32.2013 23.1462Z" fill="#05224C"/>
<path d="M48.8161 46.7169H31.7603C31.5052 46.7169 31.2618 46.6084 31.0912 46.419C30.9205 46.2296 30.8378 45.9768 30.8642 45.7229L32.759 27.53C32.8071 27.0708 33.1936 26.7224 33.6551 26.7224H46.9213C47.3828 26.7224 47.7693 27.0708 47.8174 27.53L49.7122 45.7229C49.7386 45.9768 49.6559 46.2296 49.4852 46.419C49.3146 46.6084 49.0712 46.7169 48.8161 46.7169ZM32.7596 44.9153H47.8168L46.1096 28.524H34.4668L32.7596 44.9153Z" fill="#05224C"/>
<path d="M40.2879 37.0304C38.0324 37.0304 36.1974 35.1954 36.1974 32.9394V31.5911C36.1974 31.0938 36.6009 30.6903 37.0982 30.6903C37.5955 30.6903 37.999 31.0938 37.999 31.5911V32.9394C37.999 34.202 39.0258 35.2289 40.2879 35.2289C41.5505 35.2289 42.5774 34.202 42.5774 32.9394V31.5911C42.5774 31.0938 42.9809 30.6903 43.4782 30.6903C43.9755 30.6903 44.379 31.0938 44.379 31.5911V32.9394C44.379 35.1954 42.544 37.0304 40.2879 37.0304Z" fill="#05224C"/>
<path d="M48.8161 46.7169H31.7603C31.5052 46.7169 31.2618 46.6084 31.0912 46.4189C30.9205 46.2295 30.8378 45.9768 30.8642 45.7228L31.3773 40.7955C31.4254 40.3363 31.8119 39.9879 32.2734 39.9879H48.3029C48.7645 39.9879 49.151 40.3363 49.199 40.7955L49.7122 45.7228C49.7386 45.9768 49.6559 46.2295 49.4852 46.4189C49.3146 46.6084 49.0712 46.7169 48.8161 46.7169ZM32.7596 44.9153H47.8168L47.4913 41.7895H33.0851L32.7596 44.9153Z" fill="#05224C"/>
<path d="M31.7603 46.7169H12.1839C11.9288 46.7169 11.6854 46.6084 11.5148 46.419C11.3441 46.2296 11.2614 45.9768 11.2878 45.7229L12.1012 37.916C12.1493 37.4568 12.5358 37.1085 12.9973 37.1085H32.5731C32.8282 37.1085 33.0716 37.2164 33.2423 37.4064C33.4129 37.5958 33.4956 37.8486 33.4692 38.1025L32.6564 45.9094C32.6083 46.3685 32.2218 46.7169 31.7603 46.7169ZM13.1832 44.9153H30.9486L31.5738 38.91H13.809L13.1832 44.9153Z" fill="#05224C"/>
</svg>
