<svg width="100" height="100" viewBox="0 0 100 100" fill="none" xmlns="http://www.w3.org/2000/svg">
<path d="M77.0393 41.5992L62.8935 49.8561L81.833 63.5044V33.25C81.833 36.6744 79.9958 39.8735 77.0393 41.5992Z" fill="#05224C"/>
<path d="M35.9632 39.7366L54.3156 50.4489C54.8093 50.7374 55.3737 50.8901 55.9464 50.8901H55.9696C56.5423 50.8901 57.1067 50.7374 57.5994 50.4495L60.3478 48.8452C60.354 48.8414 60.36 48.8381 60.3663 48.8344L75.9528 39.7366C78.2501 38.3958 79.6768 35.9106 79.6768 33.25V32.1719H32.2393V33.25C32.2393 35.9106 33.6659 38.3958 35.9632 39.7366Z" fill="#05224C"/>
<path d="M49.023 49.8531L34.878 41.5947C31.9239 39.8697 30.0803 36.6784 30.0803 33.25V45.1094H24.0944C23.4984 45.1094 23.0162 45.5921 23.0162 46.1875C23.0162 46.7829 23.4984 47.2656 24.0944 47.2656H30.0803H34.1934H37.4331C39.2121 47.2656 40.6675 48.7211 40.6675 50.5C40.6675 52.2789 39.2121 53.7344 37.4331 53.7344H36.3496H30.0803H23.0162C22.4203 53.7344 21.9381 54.2171 21.9381 54.8125C21.9381 55.4079 22.4203 55.8906 23.0162 55.8906H30.0803V63.5022L49.023 49.8531Z" fill="#05224C"/>
<path d="M58.687 52.3114C57.8647 52.7921 56.9245 53.0463 55.9696 53.0463C55.9696 53.0463 55.9559 53.0463 55.9548 53.0463C54.9915 53.0463 54.0513 52.7921 53.2279 52.3109L51.0605 51.0458L30.083 66.1633V67.75C30.083 68.3454 30.5652 68.8281 31.1611 68.8281H80.7549C81.3508 68.8281 81.833 68.3454 81.833 67.75V66.1632L60.8551 51.0459L58.687 52.3114Z" fill="#05224C"/>
<path d="M38.5059 50.5C38.5059 49.9046 38.0237 49.4219 37.4277 49.4219H20.2451C19.6492 49.4219 19.167 49.9046 19.167 50.5C19.167 51.0954 19.6492 51.5781 20.2451 51.5781H37.4277C38.0237 51.5781 38.5059 51.0954 38.5059 50.5Z" fill="#05224C"/>
</svg>
