<svg width="21" height="20" viewBox="0 0 21 20" fill="none" xmlns="http://www.w3.org/2000/svg">
<g clip-path="url(#clip0)">
<path fill-rule="evenodd" clip-rule="evenodd" d="M10.2004 0.543091C15.484 0.543091 19.7635 4.76977 19.7635 9.98819C19.7635 15.2066 15.484 19.4333 10.2004 19.4333C4.91672 19.4333 0.637207 15.2066 0.637207 9.98819C0.637207 4.76977 4.91672 0.543091 10.2004 0.543091ZM8.14429 11.6175L14.719 5.12396C15.0298 4.817 15.5079 4.817 15.7948 5.12396L16.6555 5.95041C16.9424 6.25738 16.9424 6.72963 16.6555 7.01299L8.69417 14.876C8.38337 15.1594 7.90521 15.1594 7.61832 14.876L3.76914 11.0744C3.48225 10.791 3.48225 10.3188 3.76914 10.0118L4.62983 9.18536C4.91672 8.87839 5.39488 8.87839 5.70568 9.18536L8.14429 11.6175Z" fill="#30A851"/>
</g>
<defs>
<clipPath id="clip0">
<rect width="20.25" height="20" fill="white" transform="translate(0.0874023)"/>
</clipPath>
</defs>
</svg>
