<svg xmlns="http://www.w3.org/2000/svg" xmlns:xlink="http://www.w3.org/1999/xlink" width="100" height="100" viewBox="0 0 100 100"><circle stroke="none" fill="#f1f2f2" r="48%" cx="50%" cy="50%"></circle><g transform="translate(50 50) scale(0.69 0.69) rotate(0) translate(-50 -50)" style="fill:#ea3d2d"><svg fill="#ea3d2d" xmlns:dc="http://purl.org/dc/elements/1.1/" xmlns:cc="http://creativecommons.org/ns#" xmlns:rdf="http://www.w3.org/1999/02/22-rdf-syntax-ns#" xmlns:svg="http://www.w3.org/2000/svg" xmlns="http://www.w3.org/2000/svg" xmlns:sodipodi="http://sodipodi.sourceforge.net/DTD/sodipodi-0.dtd" xmlns:inkscape="http://www.inkscape.org/namespaces/inkscape" viewBox="0 0 32 32.000001" version="1.1" x="0px" y="0px"><g transform="translate(0,-1020.3622)"><path d="M 7.4999928,1026.3648 H 24.500005 c 0.554003,0 0.999988,0.4461 0.999988,1.0003 v 1.5003 c 0,0.5541 -0.445985,1.0003 -0.999988,1.0003 H 7.4999928 c -0.5539654,0 -0.9999874,-0.4461 -0.9999874,-1.0003 v -1.5003 c 0,-0.5541 0.446022,-1.0003 0.9999874,-1.0003 z" style="opacity:1;fill:#ea3d2d;fill-opacity:1;stroke:none;stroke-width:0.99999994;stroke-linecap:butt;stroke-linejoin:round;stroke-miterlimit:4;stroke-dasharray:none;stroke-opacity:1"></path><path style="color:#000000;font-style:normal;font-variant:normal;font-weight:normal;font-stretch:normal;font-size:medium;line-height:normal;font-family:sans-serif;font-variant-ligatures:normal;font-variant-position:normal;font-variant-caps:normal;font-variant-numeric:normal;font-variant-alternates:normal;font-feature-settings:normal;text-indent:0;text-align:start;text-decoration:none;text-decoration-line:none;text-decoration-style:solid;text-decoration-color:#000000;letter-spacing:normal;word-spacing:normal;text-transform:none;writing-mode:lr-tb;direction:ltr;text-orientation:mixed;dominant-baseline:auto;baseline-shift:baseline;text-anchor:start;white-space:normal;shape-padding:0;clip-rule:nonzero;display:inline;overflow:visible;visibility:visible;opacity:1;isolation:auto;mix-blend-mode:normal;color-interpolation:sRGB;color-interpolation-filters:linearRGB;solid-color:#000000;solid-opacity:1;vector-effect:none;fill:#ea3d2d;fill-opacity:1;fill-rule:nonzero;stroke:none;stroke-width:0.99999994;stroke-linecap:butt;stroke-linejoin:miter;stroke-miterlimit:4;stroke-dasharray:none;stroke-dashoffset:0;stroke-opacity:1;color-rendering:auto;image-rendering:auto;shape-rendering:auto;text-rendering:auto;enable-background:accumulate" d="m 14.004068,1023.3622 c -0.822387,0 -1.505839,0.6759 -1.505839,1.4984 v 0.504 h 7.00388 v -0.504 c 0,-0.8225 -0.68349,-1.4984 -1.505839,-1.4984 z"></path><path style="opacity:1;fill:#ea3d2d;fill-opacity:1;stroke:none;stroke-width:0.99999994;stroke-linecap:butt;stroke-linejoin:miter;stroke-miterlimit:4;stroke-dasharray:none;stroke-opacity:1" d="m 7.9999865,1030.8659 1.0000252,17.4981 c 0.030236,0.5529 0.446022,0.9982 0.9999874,0.9982 H 21.999999 c 0.553965,0 0.969751,-0.4453 0.999987,-0.9982 l 1.000025,-17.4981 h -3.025398 l -0.974627,13.6554 a 0.50005001,0.50016248 0 1 1 -0.996094,-0.067 l 0.966803,-13.5889 h -3.468737 v 13.6182 a 0.50004997,0.50016244 0 1 1 -0.996094,0 v -13.6182 h -3.478526 l 0.974626,13.5889 a 0.50004997,0.50016244 0 1 1 -0.996094,0.067 l -0.980485,-13.6554 z"></path><path style="opacity:1;fill:#ea3d2d;fill-opacity:1;stroke:none;stroke-width:0.99999994;stroke-linecap:butt;stroke-linejoin:round;stroke-miterlimit:4;stroke-dasharray:none;stroke-opacity:1" d="M 7.4999928,1026.3648 H 24.500005 c 0.554003,0 0.999988,0.4461 0.999988,1.0003 v 1.5003 c 0,0.5541 -0.445985,1.0003 -0.999988,1.0003 H 7.4999928 c -0.5539654,0 -0.9999874,-0.4461 -0.9999874,-1.0003 v -1.5003 c 0,-0.5541 0.446022,-1.0003 0.9999874,-1.0003 z"></path></g></svg></g></svg>