<svg width="100" height="100" viewBox="0 0 100 100" fill="none" xmlns="http://www.w3.org/2000/svg">
<path d="M0.50002 0.98002C0.765116 0.98002 0.98002 0.765116 0.98002 0.50002C0.98002 0.234923 0.765116 0.0200195 0.50002 0.0200195C0.234923 0.0200195 0.0200195 0.234923 0.0200195 0.50002C0.0200195 0.765116 0.234923 0.98002 0.50002 0.98002Z" fill="white"/>
<path d="M46.4423 43.3804C46.6475 43.1815 46.922 43.0703 47.2078 43.0703C47.4935 43.0703 47.7681 43.1815 47.9732 43.3804L54.8085 50.2373L68.4576 36.5882C68.6628 36.3893 68.9373 36.2781 69.2231 36.2781C69.5088 36.2781 69.7834 36.3893 69.9885 36.5882L80.7698 47.3695V21.4945C80.7784 20.9011 80.6686 20.312 80.4468 19.7615C80.225 19.2111 79.8956 18.7104 79.478 18.2888C79.0604 17.8671 78.5629 17.533 78.0146 17.3059C77.4663 17.0789 76.8782 16.9634 76.2848 16.9664H39.9304C39.2648 16.9682 38.608 17.1181 38.0075 17.4053C37.4071 17.6924 36.878 18.1097 36.4589 18.6267C35.8064 19.4139 35.4548 20.4074 35.467 21.4298V54.3126L43.057 46.7226L46.4423 43.3804ZM46.9167 32.1679C47.5564 32.1679 48.1817 32.3576 48.7136 32.713C49.2455 33.0684 49.66 33.5736 49.9048 34.1646C50.1496 34.7556 50.2137 35.4059 50.0889 36.0333C49.9641 36.6607 49.6561 37.237 49.2037 37.6893C48.7514 38.1417 48.1751 38.4497 47.5477 38.5745C46.9203 38.6993 46.2699 38.6353 45.6789 38.3905C45.0879 38.1457 44.5828 37.7311 44.2274 37.1992C43.872 36.6673 43.6823 36.042 43.6823 35.4023C43.6823 34.5445 44.0231 33.7218 44.6296 33.1153C45.2362 32.5087 46.0589 32.1679 46.9167 32.1679V32.1679Z" fill="#05224C"/>
<path d="M79.7132 49.3749L69.2338 38.8955L55.5847 52.523C55.4845 52.6241 55.3653 52.7043 55.2339 52.759C55.1025 52.8137 54.9616 52.8419 54.8193 52.8419C54.6769 52.8419 54.536 52.8137 54.4046 52.759C54.2733 52.7043 54.154 52.6241 54.0538 52.523L47.1969 45.6877L43.5313 49.2239L36.2216 56.6414C36.1253 56.745 36.0085 56.8273 35.8785 56.883C35.7485 56.9387 35.6083 56.9666 35.4669 56.9649V75.2283C35.4669 76.4121 35.9372 77.5474 36.7742 78.3844C37.6113 79.2215 38.7466 79.6918 39.9304 79.6918H76.2847C77.4685 79.6918 78.6038 79.2215 79.4409 78.3844C80.2779 77.5474 80.7482 76.4121 80.7482 75.2283V49.6121C80.5709 49.6747 80.3795 49.6856 80.1963 49.6436C80.013 49.6016 79.8455 49.5084 79.7132 49.3749V49.3749Z" fill="#05224C"/>
<path d="M33.3107 75.2283V21.322C33.3137 20.588 33.4375 19.8595 33.6773 19.1658L22.7235 21.7101C21.5724 21.9726 20.5722 22.6803 19.9418 23.6785C19.3114 24.6767 19.1021 25.884 19.3598 27.0361L31.1113 79.5408C31.3739 80.6975 32.0839 81.7031 33.0861 82.3375C34.0883 82.972 35.301 83.1836 36.4588 82.9261L41.2673 81.848H39.9304C38.1765 81.8423 36.496 81.143 35.2558 79.9028C34.0156 78.6626 33.3164 76.9822 33.3107 75.2283V75.2283Z" fill="#05224C"/>
<path d="M80.7482 48.8145V48.8791L81.1794 49.2888L80.7482 48.8145Z" fill="#05224C"/>
</svg>
