<svg height='100px' width='100px'  fill="#ffffff" xmlns="http://www.w3.org/2000/svg" data-name="Layer 1" viewBox="0 0 100 100" x="0px" y="0px"><title>57 all</title><path d="M74,49.89a5,5,0,0,0-5,5v10a3,3,0,0,1-3,3H34a3,3,0,0,1-3-3v-10a5,5,0,0,0-10,0v10a13,13,0,0,0,13,13H66a13,13,0,0,0,13-13v-10A5,5,0,0,0,74,49.89Z"></path><path d="M50,66.33a5,5,0,0,0,5-5V38.39l4.41,4A5,5,0,0,0,66.12,35L53.36,23.42c-.09-.08-.2-.14-.29-.22s-.24-.19-.37-.27a4.9,4.9,0,0,0-.46-.25c-.12-.06-.24-.13-.37-.18a4.92,4.92,0,0,0-.56-.18L51,22.22a5,5,0,0,0-1.91,0l-.34.09a4.94,4.94,0,0,0-.56.18c-.13.05-.25.12-.38.18a4.91,4.91,0,0,0-.46.25c-.13.08-.25.18-.37.27s-.2.14-.29.22L33.88,35a5,5,0,0,0,6.71,7.41l4.41-4V61.33A5,5,0,0,0,50,66.33Z"></path></svg>