<svg width="100" height="100" viewBox="0 0 100 100" fill="none" xmlns="http://www.w3.org/2000/svg">
<path d="M80.2114 31.8773L66.3355 39.8537V37.28C66.3355 35.084 65.4631 32.978 63.9103 31.4252C62.3575 29.8724 60.2515 29 58.0555 29H24.28C22.084 29 19.978 29.8724 18.4252 31.4252C16.8724 32.978 16 35.084 16 37.28V63.0584C16 65.2544 16.8724 67.3604 18.4252 68.9132C19.978 70.466 22.084 71.3384 24.28 71.3384H58.0555C60.2515 71.3384 62.3575 70.466 63.9103 68.9132C65.4631 67.3604 66.3355 65.2544 66.3355 63.0584V60.4847L80.2114 68.4611C82.8403 69.9722 85 68.7302 85 65.7011V34.6511C85 31.6082 82.8472 30.3662 80.2114 31.8773Z" fill="#05224C"/>
</svg>
