<svg width="41" height="41" viewBox="0 0 41 41" fill="none" xmlns="http://www.w3.org/2000/svg">
<g clip-path="url(#clip0_6145_471)">
<path d="M20.1824 0.0913743C31.2282 0.141811 40.1413 9.13677 40.0909 20.1825C40.0405 31.2282 31.0455 40.1414 19.9998 40.091C8.95407 40.0405 0.0408862 31.0456 0.0913232 19.9998C0.14176 8.95412 9.13672 0.0409372 20.1824 0.0913743Z" fill="url(#paint0_linear_6145_471)"/>
<path d="M30.1511 22.9857C29.8209 22.9857 29.5534 23.2532 29.5534 23.5834L29.5534 28.8905C29.5522 29.8805 28.7502 30.6828 27.7602 30.6837L10.9886 30.6837C9.99864 30.6828 9.19662 29.8805 9.19545 28.8905L9.19545 13.3144C9.19662 12.3247 9.99864 11.5224 10.9886 11.5213L16.2958 11.5213C16.6259 11.5213 16.8935 11.2537 16.8935 10.9235C16.8935 10.5936 16.6259 10.3258 16.2958 10.3258L10.9886 10.3258C9.33881 10.3277 8.00187 11.6646 8 13.3144L8 28.8907C8.00187 30.5406 9.33881 31.8775 10.9886 31.8794L27.7602 31.8794C29.41 31.8775 30.7469 30.5406 30.7488 28.8907L30.7488 23.5834C30.7488 23.2532 30.4812 22.9857 30.1511 22.9857Z" fill="white"/>
<path d="M30.512 8.78784C29.4616 7.73739 27.7585 7.73739 26.7081 8.78784L16.0443 19.4516C15.9712 19.5247 15.9185 19.6153 15.8909 19.7147L14.4886 24.7774C14.4309 24.985 14.4895 25.2073 14.6418 25.3597C14.7942 25.512 15.0165 25.5706 15.2241 25.5131L20.2868 24.1106C20.3862 24.083 20.4768 24.0303 20.5499 23.9572L31.2134 13.2932C32.2622 12.242 32.2622 10.5404 31.2134 9.48923L30.512 8.78784ZM17.3467 19.8401L26.0742 11.1124L28.8888 13.9271L20.1611 22.6548L17.3467 19.8401ZM16.7845 20.9683L19.0332 23.2173L15.9227 24.0791L16.7845 20.9683ZM30.3682 12.448L29.7343 13.0819L26.9194 10.267L27.5535 9.63306C28.137 9.04958 29.0831 9.04958 29.6666 9.63306L30.3682 10.3345C30.9508 10.9186 30.9508 11.864 30.3682 12.448Z" fill="white"/>
</g>
<defs>
<linearGradient id="paint0_linear_6145_471" x1="19.9998" y1="40.091" x2="20.1824" y2="0.0913743" gradientUnits="userSpaceOnUse">
<stop stop-color="#0068FF"/>
<stop offset="1" stop-color="#71C9FF"/>
</linearGradient>
<clipPath id="clip0_6145_471">
<rect width="40" height="40" fill="white" transform="translate(0 39.9996) rotate(-89.7384)"/>
</clipPath>
</defs>
</svg>
