<svg width="50" height="50" viewBox="0 0 50 50" fill="none" xmlns="http://www.w3.org/2000/svg">
<path d="M25 50C38.8071 50 50 38.8071 50 25C50 11.1929 38.8071 0 25 0C11.1929 0 0 11.1929 0 25C0 38.8071 11.1929 50 25 50Z" fill="#5A5A5A"/>
<path d="M33.0176 23.4926H25.2574V15.7324C25.2574 15.2451 24.8624 14.85 24.375 14.85C23.8876 14.85 23.4926 15.2451 23.4926 15.7324V23.4926H15.7324C15.2451 23.4926 14.85 23.8876 14.85 24.375C14.85 24.8624 15.2451 25.2574 15.7324 25.2574H23.4926V33.0176C23.4926 33.5049 23.8876 33.9 24.375 33.9C24.8624 33.9 25.2574 33.5049 25.2574 33.0176V25.2574H33.0176C33.5049 25.2574 33.9 24.8624 33.9 24.375C33.9 23.8876 33.5049 23.4926 33.0176 23.4926Z" fill="white" stroke="white" stroke-width="0.3"/>
</svg>
