<svg width="25" height="25" viewBox="0 0 25 25" fill="none" xmlns="http://www.w3.org/2000/svg">
<path d="M13.2329 12.5033L18.5911 7.14501C18.7979 6.94529 18.8036 6.61574 18.6039 6.40893C18.4042 6.20213 18.0746 6.1964 17.8678 6.39612C17.8635 6.4003 17.8592 6.40457 17.855 6.40893L12.4967 11.7672L7.13851 6.4089C6.9317 6.20918 6.60216 6.21491 6.40243 6.42172C6.20758 6.62346 6.20758 6.94327 6.40243 7.14501L11.7607 12.5033L6.40243 17.8615C6.19919 18.0648 6.19919 18.3943 6.40243 18.5976C6.60569 18.8008 6.93524 18.8008 7.13851 18.5976L12.4967 13.2393L17.855 18.5976C18.0618 18.7973 18.3913 18.7916 18.5911 18.5848C18.7859 18.383 18.7859 18.0632 18.5911 17.8615L13.2329 12.5033Z" fill="#1C79FF"/>
</svg>
