<svg xmlns="http://www.w3.org/2000/svg" xmlns:xlink="http://www.w3.org/1999/xlink" width="100" height="100" viewBox="0 0 100 100"><circle stroke="none" fill="#f1f2f2" r="48%" cx="50%" cy="50%"></circle><g transform="translate(50 50) scale(0.69 0.69) rotate(0) translate(-50 -50)" style="fill:#05224c"><svg fill="#05224c" xmlns="http://www.w3.org/2000/svg" xmlns:xlink="http://www.w3.org/1999/xlink" version="1.1" x="0px" y="0px" viewBox="0 0 50 56" style="enable-background:new 0 0 50 56;" xml:space="preserve"><g><g><polygon points="5.444,49 18.03,49 32.03,49 50.03,49 50.03,43 11.444,43   "></polygon><path d="M25.03,56c2.968,0,5.439-2.166,5.917-5H19.114C19.591,53.834,22.062,56,25.03,56z"></path><path d="M1.087,41h9.528l28.346-28.346C38.281,5.564,32.294,0,25.029,0c-7.72,0-14,6.28-14,14v6.942    c0,4.774-1.625,9.471-4.574,13.226L1.087,41z"></path><path d="M39.03,15.414L13.444,41h35.528l-5.368-6.833c-2.95-3.754-4.574-8.452-4.574-13.226L39.03,15.414L39.03,15.414z"></path><polygon points="8.616,43 0.03,43 0.03,49 2.616,49   "></polygon></g></g></svg></g></svg>