<svg width="38" height="38" viewBox="0 0 38 38" fill="none" xmlns="http://www.w3.org/2000/svg">
<path d="M19 38C29.4934 38 38 29.4934 38 19C38 8.50659 29.4934 0 19 0C8.50659 0 0 8.50659 0 19C0 29.4934 8.50659 38 19 38Z" fill="url(#paint0_linear_8837_249)"/>
<path d="M12.9833 11.7167H14.8833C15.1353 11.7167 15.3769 11.6166 15.5551 11.4384C15.7332 11.2602 15.8333 11.0186 15.8333 10.7667C15.8333 10.5147 15.7332 10.2731 15.5551 10.0949C15.3769 9.91674 15.1353 9.81665 14.8833 9.81665H10.7667C10.5147 9.81665 10.2731 9.91674 10.0949 10.0949C9.91674 10.2731 9.81665 10.5147 9.81665 10.7667V14.8833C9.81665 15.1353 9.91674 15.3769 10.0949 15.5551C10.2731 15.7332 10.5147 15.8333 10.7667 15.8333C11.0186 15.8333 11.2602 15.7332 11.4384 15.5551C11.6166 15.3769 11.7167 15.1353 11.7167 14.8833V12.9833L16.3083 17.575C16.3915 17.6582 16.4902 17.7241 16.5989 17.7691C16.7076 17.8142 16.824 17.8373 16.9417 17.8373C17.0593 17.8373 17.1757 17.8142 17.2844 17.7691C17.3931 17.7241 17.4918 17.6582 17.575 17.575C17.6582 17.4918 17.7241 17.3931 17.7691 17.2844C17.8142 17.1757 17.8373 17.0593 17.8373 16.9417C17.8373 16.824 17.8142 16.7076 17.7691 16.5989C17.7241 16.4902 17.6582 16.3915 17.575 16.3083L12.9833 11.7167Z" fill="white"/>
<path d="M17.575 20.4249C17.4918 20.3418 17.3931 20.2758 17.2844 20.2308C17.1757 20.1858 17.0593 20.1626 16.9417 20.1626C16.824 20.1626 16.7076 20.1858 16.5989 20.2308C16.4902 20.2758 16.3915 20.3418 16.3083 20.4249L11.7167 25.0166V23.1166C11.7167 22.8647 11.6166 22.623 11.4384 22.4449C11.2602 22.2667 11.0186 22.1666 10.7667 22.1666C10.5147 22.1666 10.2731 22.2667 10.0949 22.4449C9.91674 22.623 9.81665 22.8647 9.81665 23.1166V27.2333C9.81665 27.4852 9.91674 27.7269 10.0949 27.905C10.2731 28.0832 10.5147 28.1833 10.7667 28.1833H14.8833C15.1353 28.1833 15.3769 28.0832 15.5551 27.905C15.7332 27.7269 15.8333 27.4852 15.8333 27.2333C15.8333 26.9813 15.7332 26.7397 15.5551 26.5615C15.3769 26.3834 15.1353 26.2833 14.8833 26.2833H12.9833L17.575 21.6916C17.6582 21.6084 17.7241 21.5097 17.7691 21.401C17.8142 21.2924 17.8373 21.1759 17.8373 21.0583C17.8373 20.9407 17.8142 20.8242 17.7691 20.7155C17.7241 20.6068 17.6582 20.5081 17.575 20.4249V20.4249Z" fill="white"/>
<path d="M27.2333 9.81665H23.1166C22.8647 9.81665 22.623 9.91674 22.4449 10.0949C22.2667 10.2731 22.1666 10.5147 22.1666 10.7667C22.1666 11.0186 22.2667 11.2602 22.4449 11.4384C22.623 11.6166 22.8647 11.7167 23.1166 11.7167H25.0166L20.4249 16.3083C20.3418 16.3915 20.2758 16.4902 20.2308 16.5989C20.1858 16.7076 20.1626 16.824 20.1626 16.9417C20.1626 17.0593 20.1858 17.1757 20.2308 17.2844C20.2758 17.3931 20.3418 17.4918 20.4249 17.575C20.5081 17.6582 20.6068 17.7241 20.7155 17.7691C20.8242 17.8142 20.9407 17.8373 21.0583 17.8373C21.1759 17.8373 21.2924 17.8142 21.401 17.7691C21.5097 17.7241 21.6084 17.6582 21.6916 17.575L26.2833 12.9833V14.8833C26.2833 15.1353 26.3834 15.3769 26.5615 15.5551C26.7397 15.7332 26.9813 15.8333 27.2333 15.8333C27.4852 15.8333 27.7269 15.7332 27.905 15.5551C28.0832 15.3769 28.1833 15.1353 28.1833 14.8833V10.7667C28.1833 10.5147 28.0832 10.2731 27.905 10.0949C27.7269 9.91674 27.4852 9.81665 27.2333 9.81665Z" fill="white"/>
<path d="M27.2333 22.1666C26.9813 22.1666 26.7397 22.2667 26.5615 22.4449C26.3834 22.623 26.2833 22.8647 26.2833 23.1166V25.0166L21.6916 20.4249C21.6084 20.3418 21.5097 20.2758 21.401 20.2308C21.2924 20.1858 21.1759 20.1626 21.0583 20.1626C20.9407 20.1626 20.8242 20.1858 20.7155 20.2308C20.6068 20.2758 20.5081 20.3418 20.4249 20.4249C20.3418 20.5081 20.2758 20.6068 20.2308 20.7155C20.1858 20.8242 20.1626 20.9407 20.1626 21.0583C20.1626 21.1759 20.1858 21.2924 20.2308 21.401C20.2758 21.5097 20.3418 21.6084 20.4249 21.6916L25.0166 26.2833H23.1166C22.8647 26.2833 22.623 26.3834 22.4449 26.5615C22.2667 26.7397 22.1666 26.9813 22.1666 27.2333C22.1666 27.4852 22.2667 27.7269 22.4449 27.905C22.623 28.0832 22.8647 28.1833 23.1166 28.1833H27.2333C27.4852 28.1833 27.7269 28.0832 27.905 27.905C28.0832 27.7269 28.1833 27.4852 28.1833 27.2333V23.1166C28.1833 22.8647 28.0832 22.623 27.905 22.4449C27.7269 22.2667 27.4852 22.1666 27.2333 22.1666Z" fill="white"/>
<defs>
<linearGradient id="paint0_linear_8837_249" x1="19" y1="0" x2="19" y2="38" gradientUnits="userSpaceOnUse">
<stop stop-color="#3495FF"/>
<stop offset="1" stop-color="#82BFF9"/>
</linearGradient>
</defs>
</svg>
