<svg width="20" height="20" viewBox="0 0 20 20" fill="none" xmlns="http://www.w3.org/2000/svg">
<circle cx="10" cy="10" r="10" fill="white"/>
<path d="M14.0555 9.74096L14.0555 5.96387C13.0142 5.96387 12.1669 6.81107 12.1669 7.85243C12.1669 8.89379 13.0142 9.74096 14.0555 9.74096Z" fill="#9BC9FF"/>
<path d="M15.9441 7.85243C15.9441 6.81107 15.0969 5.96387 14.0555 5.96387L14.0555 9.74096C15.0969 9.74096 15.9441 8.89376 15.9441 7.85243Z" fill="#57A4FF"/>
<path d="M17 13.1274C17 11.5038 15.6791 10.1829 14.0555 10.1829C13.2128 10.1829 12.4299 10.5383 11.8801 11.1428C12.6485 11.7644 13.1702 12.6796 13.2725 13.7163L17 13.7163L17 13.1274Z" fill="#9BC9FF"/>
<path d="M7.11991 11.1428C6.57008 10.5383 5.78722 10.1829 4.94452 10.1829C3.32091 10.1829 2 11.5038 2 13.1274L2 13.7163L5.72747 13.7163C5.8298 12.6796 6.35145 11.7644 7.11991 11.1428Z" fill="#9BC9FF"/>
<path d="M4.94453 9.74096L4.94453 5.96387C3.90317 5.96387 3.05597 6.81107 3.05597 7.85243C3.05597 8.89379 3.90317 9.74096 4.94453 9.74096Z" fill="#9BC9FF"/>
<path d="M6.83308 7.85243C6.83308 6.81107 5.98588 5.96387 4.94452 5.96387L4.94452 9.74096C5.98588 9.74096 6.83308 8.89376 6.83308 7.85243Z" fill="#57A4FF"/>
<path d="M11.8801 11.1427C11.2289 10.616 10.4007 10.3 9.49994 10.3L9.49994 14.6803L13.291 14.6803L13.291 14.0914C13.291 13.9648 13.2847 13.8397 13.2725 13.7162C13.1702 12.6795 12.6485 11.7643 11.8801 11.1427Z" fill="#003F8A"/>
<path d="M11.8556 7.35562C11.8556 6.05679 10.7988 5 9.49994 5L9.49994 9.71124C10.7988 9.71124 11.8556 8.65474 11.8556 7.35562Z" fill="#003F8A"/>
<path d="M7.11991 11.1428C6.35145 11.7644 5.8298 12.6795 5.72747 13.7162C5.71528 13.8397 5.70892 13.9648 5.70892 14.0914L5.70892 14.6803L9.5 14.6803L9.5 10.3C8.5993 10.3001 7.77106 10.6161 7.11991 11.1428Z" fill="#005ECE"/>
<path d="M9.49997 9.71124L9.49997 5C8.20114 5 7.14435 6.05679 7.14435 7.35562C7.14435 8.65474 8.20114 9.71124 9.49997 9.71124Z" fill="#005ECE"/>
</svg>
