<svg width="50" height="50" viewBox="0 0 50 50" fill="none" xmlns="http://www.w3.org/2000/svg">
<path d="M25 50C38.8071 50 50 38.8071 50 25C50 11.1929 38.8071 0 25 0C11.1929 0 0 11.1929 0 25C0 38.8071 11.1929 50 25 50Z" fill="#EF3140"/>
<path d="M13.0219 28.898L17.3505 29.0042C18.1997 29.0189 18.9038 28.3509 18.9336 27.5021L18.9727 24.7154C18.9986 24.4543 19.2086 24.255 19.4706 24.243C21.3105 24.0865 23.1555 24.0212 25.0017 24.0583C26.8515 24.0994 28.6909 24.2463 30.5239 24.4955C30.789 24.51 30.9957 24.7279 30.9963 24.9934L30.8874 27.839C30.8801 28.6959 31.5517 29.4039 32.4079 29.4416L36.744 29.5555C37.5938 29.5475 38.2939 28.8832 38.3466 28.035L38.4328 24.4644C38.4328 24.4644 38.4407 24.3091 38.4384 24.2521C38.2956 22.0371 32.9263 19.6734 25.1709 19.4924C19.4936 19.3281 14.3542 20.4864 12.3937 22.3464C12.0375 22.6253 11.7321 22.989 11.6332 23.4302C11.6157 23.5207 11.5931 23.8008 11.5931 23.8008L11.5087 27.3032C11.4938 28.16 12.1655 28.8679 13.0219 28.898Z" fill="white"/>
</svg>
