<svg width="50" height="50" viewBox="0 0 50 50" fill="none" xmlns="http://www.w3.org/2000/svg">
<path d="M25 50C38.8071 50 50 38.8071 50 25C50 11.1929 38.8071 0 25 0C11.1929 0 0 11.1929 0 25C0 38.8071 11.1929 50 25 50Z" fill="url(#paint0_linear_9751_560)"/>
<path d="M39.8762 27.4657C39.8762 25.9715 39.374 25.5445 38.8294 25.1164C39.1302 24.6174 39.8075 23.706 39.8075 22.795C39.8075 20.5204 37.6757 19.8425 34.3832 19.864C31.2486 19.885 28.5583 20.5537 28.5583 20.5537C28.7317 19.5772 30.016 16.7482 30.016 15.8019C30.016 13.8376 29.5471 11.3954 27.7472 10.4297C27.2149 10.145 26.7686 10 26.0908 10C25.0536 10 24.3677 10.4249 24.1207 10.6929C23.967 10.8599 23.9257 11.4104 23.9423 11.6398L24.27 15.3501C24.27 18.3284 19.7212 21.9668 19.7212 26.2556V35.1684C19.7212 36.7518 21.8481 37.8754 24.9124 37.8754H33.3643C35.574 37.8754 36.0735 37.4882 36.6444 36.4526C37.0908 35.6411 36.9758 34.9718 36.5999 34.2978C37.4657 34.0249 38.4427 33.093 38.6838 31.8931C38.8391 31.1154 38.6586 30.4703 38.4056 29.9896C39.1662 29.5707 39.8762 28.9594 39.8762 27.4657Z" fill="white"/>
<path d="M12.2516 22.3416H14.8963C16.1392 22.3416 17.1473 23.3492 17.1473 24.5931V36.9101C17.1473 38.1535 16.1392 39.1617 14.8963 39.1617H12.2516C11.0082 39.1617 10 38.1535 10 36.9101V24.5937C10 23.3492 11.0082 22.3416 12.2516 22.3416Z" fill="white"/>
<defs>
<linearGradient id="paint0_linear_9751_560" x1="24.8069" y1="-7.07245e-09" x2="25.1931" y2="50" gradientUnits="userSpaceOnUse">
<stop stop-color="#09C6F9"/>
<stop offset="1" stop-color="#045DE9"/>
</linearGradient>
</defs>
</svg>
