<svg width="50" height="50" viewBox="0 0 50 50" fill="none" xmlns="http://www.w3.org/2000/svg">
<path d="M25 50C38.8071 50 50 38.8071 50 25C50 11.1929 38.8071 0 25 0C11.1929 0 0 11.1929 0 25C0 38.8071 11.1929 50 25 50Z" fill="#5A5A5A"/>
<path d="M34.0802 26.0249C34.0802 25.5722 33.713 25.205 33.26 25.205C32.8071 25.205 32.4399 25.5722 32.4399 26.0249C32.4399 30.0365 29.1765 33.2999 25.165 33.2999C21.1537 33.2999 17.8903 30.0365 17.8903 26.0249C17.8903 25.5722 17.5231 25.205 17.0701 25.205C16.6172 25.205 16.25 25.5722 16.25 26.0249C16.25 30.6645 19.8121 34.4865 24.3448 34.902V37.1098H21.3014C20.8484 37.1098 20.4812 37.4769 20.4812 37.9299C20.4812 38.3829 20.8484 38.7501 21.3014 38.7501H29.0288C29.4816 38.7501 29.8488 38.3829 29.8488 37.9299C29.8488 37.4769 29.4816 37.1098 29.0288 37.1098H25.9851V34.902C30.518 34.4867 34.0802 30.6645 34.0802 26.0249Z" fill="white" fill-opacity="0.21"/>
<path d="M25.1652 31.2762C28.0607 31.2762 30.4165 28.9205 30.4165 26.0249V16.5011C30.4165 13.6057 28.0607 11.25 25.1652 11.25C22.2698 11.25 19.9141 13.6057 19.9141 16.5011V26.0249C19.9141 28.9205 22.2698 31.2762 25.1652 31.2762V31.2762Z" fill="white" fill-opacity="0.21"/>
<path d="M36.7062 12.2938C36.3145 11.9021 35.6801 11.9021 35.2884 12.2938L12.2938 35.2884C11.9021 35.6798 11.9021 36.3148 12.2938 36.7062C12.4893 36.902 12.746 37 13.0027 37C13.259 37 13.5161 36.9021 13.7116 36.7062L36.7062 13.7116C37.0979 13.3202 37.0979 12.6852 36.7062 12.2938Z" fill="#FF2929"/>
</svg>
