<svg width="23" height="5" viewBox="0 0 23 5" fill="none" xmlns="http://www.w3.org/2000/svg">
<path d="M21.5227 0.5H1.47729C1.23852 0.5 1.05545 0.617457 0.936668 0.737149C0.819703 0.855009 0.737332 1.00013 0.678857 1.13936C0.561032 1.41989 0.5 1.77273 0.5 2.1364C0.5 2.50007 0.561032 2.85291 0.678857 3.13344C0.737332 3.27267 0.819703 3.41779 0.936669 3.53565C1.05545 3.65534 1.23852 3.7728 1.47729 3.7728H21.5227C21.7615 3.7728 21.9445 3.65534 22.0633 3.53565C22.1803 3.41779 22.2627 3.27267 22.3211 3.13344C22.439 2.85291 22.5 2.50007 22.5 2.1364C22.5 1.77273 22.439 1.41989 22.3211 1.13936C22.2627 1.00013 22.1803 0.855009 22.0633 0.737149C21.9445 0.617458 21.7615 0.5 21.5227 0.5Z" fill="white" stroke="white"/>
</svg>
