<svg width="38" height="38" viewBox="0 0 38 38" fill="none" xmlns="http://www.w3.org/2000/svg">
<path d="M19 38C29.4934 38 38 29.4934 38 19C38 8.50659 29.4934 0 19 0C8.50659 0 0 8.50659 0 19C0 29.4934 8.50659 38 19 38Z" fill="url(#paint0_linear_8837_239)"/>
<path d="M29.0777 24.0705C29.042 24.0409 25.0119 21.1568 23.9184 21.3459C23.3929 21.4387 23.0921 21.7967 22.4898 22.5147C22.3929 22.6305 22.1594 22.907 21.9791 23.1042C21.5984 22.9802 21.2272 22.8291 20.8681 22.652C19.0146 21.7496 17.517 20.252 16.6146 18.3985C16.4375 18.0394 16.2864 17.6682 16.1624 17.2875C16.3602 17.1065 16.6375 16.873 16.7559 16.7734C17.4699 16.1745 17.8279 15.8737 17.9207 15.3475C18.1112 14.258 15.2257 10.2246 15.1961 10.1882C15.0647 10.0019 14.8935 9.84702 14.695 9.73484C14.4965 9.62266 14.2755 9.55596 14.0481 9.53955C12.8786 9.53955 9.53955 13.8704 9.53955 14.6006C9.53955 14.643 9.60079 18.9523 14.9148 24.3578C20.3143 29.6658 24.6237 29.7271 24.666 29.7271C25.3962 29.7271 29.7271 26.388 29.7271 25.2185C29.7107 24.991 29.6439 24.77 29.5316 24.5714C29.4193 24.3729 29.2642 24.2018 29.0777 24.0705V24.0705ZM24.592 28.3772C24.0039 28.3287 20.3876 27.8516 15.8663 23.4097C11.4015 18.8642 10.9365 15.2378 10.8901 14.6759C11.7721 13.2915 12.8374 12.0327 14.0568 10.9338C14.0838 10.9608 14.1194 11.0011 14.1652 11.0536C15.1004 12.3303 15.9061 13.697 16.5702 15.1335C16.3542 15.3508 16.1259 15.5555 15.8865 15.7465C15.5152 16.0295 15.1742 16.3501 14.8691 16.7034L14.7055 16.9322L14.754 17.2088C14.8964 17.8257 15.1145 18.4226 15.4033 18.986C16.4382 21.111 18.1554 22.828 20.2806 23.8626C20.8439 24.1518 21.4408 24.3702 22.0578 24.5126L22.3344 24.5611L22.5632 24.3976C22.9178 24.091 23.2398 23.7487 23.5241 23.3761C23.7347 23.1244 24.0167 22.7886 24.123 22.6937C25.5636 23.3572 26.9338 24.1638 28.213 25.1014C28.2688 25.1485 28.3079 25.1849 28.3341 25.2084C27.2354 26.4283 25.9766 27.4937 24.592 28.3758V28.3772Z" fill="white"/>
<defs>
<linearGradient id="paint0_linear_8837_239" x1="19" y1="0" x2="19" y2="38" gradientUnits="userSpaceOnUse">
<stop stop-color="#3693FF"/>
<stop offset="1" stop-color="#9ACFFF"/>
</linearGradient>
</defs>
</svg>
