<svg width="26" height="26" viewBox="0 0 26 26" fill="none" xmlns="http://www.w3.org/2000/svg">
<g clip-path="url(#clip0_9765_250)">
<path d="M12.6777 25.1777C19.5705 25.1777 25.1777 19.5705 25.1777 12.6777C25.1777 5.78496 19.5705 0.177734 12.6777 0.177734C5.78496 0.177734 0.177734 5.78496 0.177734 12.6777C0.177734 19.5705 5.78496 25.1777 12.6777 25.1777Z" fill="url(#paint0_linear_9765_250)"/>
<path d="M7.20889 11.636L11.636 11.636L11.636 7.20889C11.636 6.63382 12.1026 6.16728 12.6776 6.16728C13.2527 6.16728 13.7192 6.63382 13.7192 7.20889L13.7192 11.636H18.1464C18.7215 11.636 19.188 12.1026 19.188 12.6776C19.188 13.2527 18.7215 13.7192 18.1464 13.7192H13.7192V18.1464C13.7192 18.7215 13.2527 19.188 12.6776 19.188C12.1026 19.188 11.636 18.7215 11.636 18.1464V13.7192L7.20889 13.7192C6.63382 13.7192 6.16728 13.2527 6.16728 12.6776C6.16728 12.1026 6.63382 11.636 7.20889 11.636V11.636Z" fill="white"/>
</g>
<defs>
<linearGradient id="paint0_linear_9765_250" x1="12.6777" y1="25.1777" x2="12.6777" y2="0.177734" gradientUnits="userSpaceOnUse">
<stop stop-color="#0462EA"/>
<stop offset="1" stop-color="#08BFF8"/>
</linearGradient>
<clipPath id="clip0_9765_250">
<rect width="25" height="25" fill="white" transform="translate(25.1777 25.1777) rotate(-180)"/>
</clipPath>
</defs>
</svg>
