<svg width="154" height="154" viewBox="0 0 154 154" fill="none" xmlns="http://www.w3.org/2000/svg">
<path d="M77.2146 153.884C34.872 153.884 0.547974 119.559 0.547974 77.2171C0.547974 34.8759 34.872 0.550595 77.2146 0.550595C119.556 0.550595 153.881 34.8759 153.881 77.2171C153.881 119.559 119.556 153.884 77.2146 153.884V153.884ZM39.7012 144.021C50.7906 150.261 63.5786 153.836 77.2093 153.836C119.524 153.836 153.827 119.533 153.827 77.2187C153.827 75.7385 153.775 74.2718 153.692 72.813C150.632 99.1197 133.721 124.309 106.76 138.145C93.5146 144.943 79.4546 148.169 65.8346 148.169C56.8106 148.169 47.9786 146.753 39.7012 144.021" fill="url(#paint0_radial)"/>
<path d="M77.2094 153.836C63.5787 153.836 50.7906 150.261 39.7013 144.021C47.9786 146.753 56.8106 148.169 65.8346 148.169C79.4546 148.169 93.5147 144.943 106.76 138.145C133.721 124.309 150.632 99.1197 153.692 72.813C153.775 74.2718 153.827 75.7385 153.827 77.2187C153.827 119.533 119.524 153.836 77.2094 153.836Z" fill="url(#paint1_radial)"/>
<path d="M56.4559 72.241C56.4559 79.9878 50.9866 86.2676 44.2399 86.2676C37.4932 86.2676 32.0226 79.9878 32.0226 72.241C32.0226 64.4946 37.4932 58.2144 44.2399 58.2144C50.9866 58.2144 56.4559 64.4946 56.4559 72.241Z" fill="url(#paint2_radial)"/>
<path d="M122.395 72.241C122.395 79.9878 116.925 86.2676 110.179 86.2676C103.432 86.2676 97.9626 79.9878 97.9626 72.241C97.9626 64.4946 103.432 58.2144 110.179 58.2144C116.925 58.2144 122.395 64.4946 122.395 72.241Z" fill="url(#paint3_radial)"/>
<path d="M46.3213 68.0785C46.3213 70.528 44.336 72.5129 41.8867 72.5129C39.4387 72.5129 37.4534 70.528 37.4534 68.0785C37.4534 65.6291 39.4387 63.6436 41.8867 63.6436C44.336 63.6436 46.3213 65.6291 46.3213 68.0785" fill="white"/>
<path d="M112.261 68.0785C112.261 70.528 110.276 72.5129 107.827 72.5129C105.377 72.5129 103.392 70.528 103.392 68.0785C103.392 65.6291 105.377 63.6436 107.827 63.6436C110.276 63.6436 112.261 65.6291 112.261 68.0785" fill="white"/>
<defs>
<radialGradient id="paint0_radial" cx="0" cy="0" r="1" gradientUnits="userSpaceOnUse" gradientTransform="translate(76.7693 51.4399) scale(89.1064)">
<stop stop-color="#FFF081"/>
<stop offset="1" stop-color="#FD8C05"/>
</radialGradient>
<radialGradient id="paint1_radial" cx="0" cy="0" r="1" gradientUnits="userSpaceOnUse" gradientTransform="translate(76.7693 51.4399) scale(89.1064)">
<stop stop-color="#FFDA28"/>
<stop offset="1" stop-color="#FD7F02"/>
</radialGradient>
<radialGradient id="paint2_radial" cx="0" cy="0" r="1" gradientUnits="userSpaceOnUse" gradientTransform="translate(44.2399 72.2412) scale(17.6987)">
<stop stop-color="#3C2415"/>
<stop offset="0.660514" stop-color="#3C2415"/>
<stop offset="1" stop-color="#24160D"/>
</radialGradient>
<radialGradient id="paint3_radial" cx="0" cy="0" r="1" gradientUnits="userSpaceOnUse" gradientTransform="translate(110.179 72.2412) scale(13.1527)">
<stop stop-color="#3C2415"/>
<stop offset="0.660514" stop-color="#3C2415"/>
<stop offset="1" stop-color="#24160D"/>
</radialGradient>
</defs>
</svg>
