<svg width="154" height="168" viewBox="0 0 154 168" fill="none" xmlns="http://www.w3.org/2000/svg">
<path d="M77.1161 160.143C34.7745 160.143 0.449463 125.817 0.449463 83.4745C0.449463 41.1332 34.7745 6.80782 77.1161 6.80782C119.459 6.80782 153.783 41.1332 153.783 83.4745C153.783 125.817 119.459 160.143 77.1161 160.143V160.143ZM39.6088 150.28C50.6979 156.52 63.486 160.095 77.1161 160.095C119.431 160.095 153.733 125.792 153.733 83.4759C153.733 81.9972 153.683 80.5305 153.599 79.0719C150.539 105.379 133.628 130.568 106.668 144.404C93.4208 151.201 79.362 154.428 65.7412 154.428C56.7172 154.428 47.8864 153.012 39.6088 150.28V150.28ZM99.8364 44.9106C98.9527 44.9106 98.1396 45.1266 97.3984 45.6039C94.4541 47.4999 94.4609 53.8972 98.8432 56.1785C102.181 57.9145 110.225 62.5065 121.515 62.5065C125.049 62.5065 128.903 62.0572 133.028 60.9279C135.641 60.3945 132.204 54.3319 125.168 54.3319C125.056 54.3319 124.944 54.3332 124.829 54.3372C124.645 54.3412 124.46 54.3439 124.276 54.3439C117.252 54.3439 111.313 50.7118 109.537 49.5025C105.711 46.8238 102.463 44.9106 99.8364 44.9106V44.9106ZM29.064 54.3319C22.0287 54.3319 18.5912 60.3945 21.2041 60.9279C25.3303 62.0572 29.1833 62.5065 32.7183 62.5065C44.0068 62.5065 52.0511 57.9145 55.3891 56.1785C59.7719 53.8972 59.7781 47.4999 56.8339 45.6039C56.0927 45.1266 55.2797 44.9106 54.3959 44.9106C51.7697 44.9106 48.5219 46.8238 44.6948 49.5025C42.9188 50.7118 36.9797 54.3452 29.9557 54.3439C29.7724 54.3439 29.5875 54.3412 29.4027 54.3372C29.2885 54.3332 29.176 54.3319 29.064 54.3319V54.3319ZM34.3969 19.8665C24.9855 26.1825 17.0584 34.5625 11.2484 44.3185C14.1625 46.8705 17.9812 48.4093 22.1437 48.4093C31.3021 48.4093 38.7407 40.9705 38.7407 31.8119C38.7407 28.7359 36.876 24.3559 34.3969 19.8665Z" fill="url(#paint0_radial)"/>
<path d="M77.1161 160.095C63.486 160.095 50.6978 156.52 39.6088 150.28C47.8864 153.012 56.7172 154.428 65.7412 154.428C79.362 154.428 93.4208 151.201 106.668 144.404C133.628 130.568 150.539 105.379 153.599 79.0721C153.683 80.5307 153.733 81.9974 153.733 83.4761C153.733 125.792 119.431 160.095 77.1161 160.095Z" fill="url(#paint1_radial)"/>
<path d="M61.7932 79.54C61.7932 87.2866 56.3235 93.5667 49.5765 93.5667C42.8292 93.5667 37.3599 87.2866 37.3599 79.54C37.3599 71.7933 42.8292 65.5133 49.5765 65.5133C56.3235 65.5133 61.7932 71.7933 61.7932 79.54Z" fill="url(#paint2_radial)"/>
<path d="M116.872 79.54C116.872 87.2866 111.403 93.5667 104.656 93.5667C97.9088 93.5667 92.4396 87.2866 92.4396 79.54C92.4396 71.7933 97.9088 65.5133 104.656 65.5133C111.403 65.5133 116.872 71.7933 116.872 79.54Z" fill="url(#paint3_radial)"/>
<path d="M51.6584 75.3787C51.6584 77.8267 49.6729 79.812 47.224 79.812C44.7751 79.812 42.7896 77.8267 42.7896 75.3787C42.7896 72.928 44.7751 70.9427 47.224 70.9427C49.6729 70.9427 51.6584 72.928 51.6584 75.3787Z" fill="white"/>
<path d="M106.739 75.3787C106.739 77.8267 104.753 79.812 102.304 79.812C99.8547 79.812 97.8693 77.8267 97.8693 75.3787C97.8693 72.928 99.8547 70.9427 102.304 70.9427C104.753 70.9427 106.739 72.928 106.739 75.3787Z" fill="white"/>
<path d="M32.7183 62.5068C29.1833 62.5068 25.3303 62.0575 21.2041 60.9282C18.5912 60.3949 22.0287 54.3322 29.064 54.3322C29.176 54.3322 29.2885 54.3336 29.4027 54.3376C29.5875 54.3416 29.7724 54.3442 29.9557 54.3442C36.9797 54.3455 42.9188 50.7121 44.6948 49.5028C48.5219 46.8241 51.7697 44.9109 54.3959 44.9109C55.2797 44.9109 56.0927 45.1269 56.8339 45.6042C59.7782 47.5002 59.7719 53.8975 55.3891 56.1788C52.0511 57.9148 44.0068 62.5068 32.7183 62.5068Z" fill="url(#paint4_radial)"/>
<path d="M121.515 62.5068C110.225 62.5068 102.181 57.9148 98.8432 56.1788C94.4609 53.8975 94.4541 47.5002 97.3984 45.6042C98.1396 45.1269 98.9527 44.9109 99.8364 44.9109C102.463 44.9109 105.711 46.8241 109.537 49.5028C111.313 50.7121 117.252 54.3442 124.276 54.3442C124.46 54.3442 124.645 54.3416 124.829 54.3376C124.944 54.3336 125.056 54.3322 125.168 54.3322C132.204 54.3322 135.641 60.3949 133.028 60.9282C128.903 62.0575 125.049 62.5068 121.515 62.5068Z" fill="url(#paint5_radial)"/>
<path d="M48.2464 116.435C50.3266 113.621 53.0964 109.46 57.5798 106.001C62.0516 102.541 68.2251 99.7827 77.1131 99.7827C86.0011 99.7827 92.186 102.541 96.6579 106.001C101.13 109.472 103.899 113.621 105.98 116.435C107.86 118.96 107.916 121.341 107.304 123.155C107.215 123.411 107.115 123.665 107.003 123.9C106.169 125.679 104.711 126.747 104.078 126.569C94.7115 122.241 81.9746 122.853 77.1131 122.853C72.2631 122.853 59.5151 122.241 50.1599 126.569C49.5146 126.747 48.0683 125.679 47.2344 123.9C47.112 123.665 47.012 123.411 46.9339 123.155C46.311 121.341 46.3776 118.96 48.2464 116.435" fill="url(#paint6_linear)"/>
<path d="M94.4912 116.848C92.6266 115.69 90.437 115.038 88.1022 115.038C85.8036 115.038 83.6678 115.672 81.8579 116.775C79.8131 117.969 78.1661 119.762 77.1161 121.898C76.0667 119.762 74.4194 117.969 72.3746 116.775C70.5646 115.672 68.4287 115.038 66.1303 115.038C63.7959 115.038 61.6058 115.69 59.7418 116.848L59.6703 116.891C56.4292 118.876 54.6016 122.544 54.6016 126.345V131.417V145.389C54.6016 157.695 64.576 167.669 76.8807 167.669H77.3334C89.6588 167.669 99.6312 157.696 99.6312 145.389V131.417V126.345C99.6312 122.544 97.8036 118.876 94.562 116.891L94.4912 116.848" fill="url(#paint7_linear)"/>
<path d="M22.1437 48.4092C17.9812 48.4092 14.1625 46.8704 11.2484 44.3184C17.0584 34.5624 24.9855 26.1825 34.3969 19.8665C36.876 24.3558 38.7407 28.7358 38.7407 31.8118C38.7407 40.9705 31.3021 48.4092 22.1437 48.4092Z" fill="url(#paint8_radial)"/>
<path d="M3.74011 30.0054C3.74011 39.1694 11.1682 46.5974 20.3312 46.5974C29.4942 46.5974 36.9224 39.1694 36.9224 30.0054C36.9224 22.032 24.3578 5.18139 21.0969 0.942727C20.7073 0.436061 19.9552 0.436061 19.5656 0.942727C16.3046 5.18139 3.74011 22.032 3.74011 30.0054" fill="#7FD0EF"/>
<defs>
<radialGradient id="paint0_radial" cx="0" cy="0" r="1" gradientUnits="userSpaceOnUse" gradientTransform="translate(76.6717 57.6972) scale(89.1064)">
<stop stop-color="#FDA133"/>
<stop offset="1" stop-color="#EF5136"/>
</radialGradient>
<radialGradient id="paint1_radial" cx="0" cy="0" r="1" gradientUnits="userSpaceOnUse" gradientTransform="translate(76.6717 57.6974) scale(89.1064)">
<stop stop-color="#FD9210"/>
<stop offset="1" stop-color="#EF4A11"/>
</radialGradient>
<radialGradient id="paint2_radial" cx="0" cy="0" r="1" gradientUnits="userSpaceOnUse" gradientTransform="translate(49.5765 79.54) scale(17.6987)">
<stop stop-color="#3C2415"/>
<stop offset="0.660514" stop-color="#3C2415"/>
<stop offset="1" stop-color="#24160D"/>
</radialGradient>
<radialGradient id="paint3_radial" cx="0" cy="0" r="1" gradientUnits="userSpaceOnUse" gradientTransform="translate(104.656 79.54) scale(13.1527)">
<stop stop-color="#3C2415"/>
<stop offset="0.660514" stop-color="#3C2415"/>
<stop offset="1" stop-color="#24160D"/>
</radialGradient>
<radialGradient id="paint4_radial" cx="0" cy="0" r="1" gradientUnits="userSpaceOnUse" gradientTransform="translate(76.6717 57.6975) scale(89.1064 89.1062)">
<stop stop-color="#CF852A"/>
<stop offset="1" stop-color="#C4432D"/>
</radialGradient>
<radialGradient id="paint5_radial" cx="0" cy="0" r="1" gradientUnits="userSpaceOnUse" gradientTransform="translate(76.6717 57.6975) scale(89.1064 89.1062)">
<stop stop-color="#CF852A"/>
<stop offset="1" stop-color="#C4432D"/>
</radialGradient>
<linearGradient id="paint6_linear" x1="77.116" y1="99.7827" x2="77.116" y2="126.588" gradientUnits="userSpaceOnUse">
<stop stop-color="#781512"/>
<stop offset="1" stop-color="#380A08"/>
</linearGradient>
<linearGradient id="paint7_linear" x1="77.1163" y1="167.669" x2="77.1163" y2="115.038" gradientUnits="userSpaceOnUse">
<stop stop-color="#D63744"/>
<stop offset="0.660514" stop-color="#D63744"/>
<stop offset="1" stop-color="#8C242C"/>
</linearGradient>
<radialGradient id="paint8_radial" cx="0" cy="0" r="1" gradientUnits="userSpaceOnUse" gradientTransform="translate(76.6717 57.6972) scale(89.1064 89.1065)">
<stop stop-color="#FD8F0B"/>
<stop offset="1" stop-color="#EF480B"/>
</radialGradient>
</defs>
</svg>
