<svg width="154" height="154" viewBox="0 0 154 154" fill="none" xmlns="http://www.w3.org/2000/svg">
<path d="M77.1156 153.334C34.774 153.334 0.448914 119.01 0.448914 76.6678C0.448914 34.3265 34.774 0.00114846 77.1156 0.00114846C119.457 0.00114846 153.783 34.3265 153.783 76.6678C153.783 119.01 119.457 153.334 77.1156 153.334V153.334ZM39.6084 143.47C50.6973 149.71 63.486 153.286 77.1156 153.286C119.431 153.286 153.733 118.982 153.733 76.6678C153.733 75.1891 153.681 73.7225 153.599 72.2638C150.539 98.5705 133.628 123.759 106.667 137.594C93.4208 144.392 79.362 147.62 65.7412 147.62C56.7172 147.62 47.886 146.204 39.6084 143.47" fill="url(#paint0_radial)"/>
<path d="M77.1156 153.287C63.486 153.287 50.6973 149.711 39.6084 143.471C47.886 146.204 56.7172 147.62 65.7412 147.62C79.362 147.62 93.4208 144.392 106.667 137.595C133.628 123.759 150.539 98.5706 153.599 72.264C153.681 73.7226 153.733 75.1893 153.733 76.6679C153.733 118.983 119.431 153.287 77.1156 153.287Z" fill="url(#paint1_radial)"/>
<path d="M77.1156 108.929H55.5812C48.7937 108.929 45.6057 117.32 50.6812 121.827L51.126 122.223C65.9521 135.388 88.2802 135.388 103.106 122.223L103.551 121.827C108.627 117.32 105.439 108.929 98.6505 108.929H77.1156Z" fill="url(#paint2_linear)"/>
<path d="M54.9224 77.5268C56.149 76.9748 57.3536 76.3601 58.4522 75.5827C62.0412 73.0454 64.314 68.7414 64.385 64.3454C64.3948 63.74 64.3615 63.1148 64.1126 62.5628C63.5027 61.2108 61.7224 60.7027 60.2974 61.1161C58.8724 61.5281 57.7579 62.6347 56.8355 63.7974C55.9126 64.9587 55.1022 66.2307 53.973 67.1947C52.9902 68.0321 51.8074 68.5987 50.612 69.0867C47.0688 70.5321 42.8292 71.2987 39.5574 69.3161C38.8886 68.9107 38.288 68.4054 37.6834 67.9094C36.1579 66.6614 34.526 65.4374 32.612 64.9641C30.6979 64.4907 28.4251 64.9467 27.2683 66.5441C26.3084 67.8694 26.3099 69.7201 26.9402 71.2294C27.5703 72.7401 28.7438 73.9587 30.0022 75.0054C34.135 78.4414 39.5328 80.3787 44.9016 80.1387C48.3708 79.9841 51.7558 78.9521 54.9224 77.5268" fill="url(#paint3_radial)"/>
<path d="M99.3093 77.5268C98.0828 76.9748 96.8781 76.3601 95.7797 75.5827C92.1907 73.0454 89.9177 68.7414 89.8469 64.3454C89.8369 63.74 89.8703 63.1148 90.1197 62.5628C90.7297 61.2108 92.5093 60.7027 93.9344 61.1161C95.3599 61.5281 96.474 62.6347 97.3964 63.7974C98.3193 64.9587 99.1303 66.2307 100.259 67.1947C101.242 68.0321 102.425 68.5987 103.62 69.0867C107.163 70.5321 111.403 71.2987 114.675 69.3161C115.343 68.9107 115.944 68.4054 116.548 67.9094C118.075 66.6614 119.705 65.4374 121.62 64.9641C123.533 64.4907 125.807 64.9467 126.964 66.5441C127.924 67.8694 127.921 69.7201 127.292 71.2294C126.661 72.7401 125.488 73.9587 124.229 75.0054C120.097 78.4414 114.699 80.3787 109.331 80.1387C105.861 79.9841 102.476 78.9521 99.3093 77.5268" fill="url(#paint4_radial)"/>
<path d="M46.4364 43.9307C52.6645 43.5147 57.2323 42.684 58.3396 39.3627C59.4469 36.0414 55.4328 31.0587 50.5885 32.0267C45.7443 32.996 31.4885 35.2107 20.9693 49.7427C19.2391 51.828 25.9521 54.4493 31.4885 49.7427C37.0245 45.0373 44.2375 44.104 46.4364 43.9307" fill="#ED8206"/>
<path d="M107.796 43.9307C101.567 43.5147 96.9995 42.684 95.8921 39.3627C94.7849 36.0414 98.7989 31.0587 103.643 32.0267C108.488 32.996 122.744 35.2107 133.263 49.7427C134.992 51.828 128.28 54.4493 122.744 49.7427C117.207 45.0373 109.995 44.104 107.796 43.9307" fill="#ED8206"/>
<defs>
<radialGradient id="paint0_radial" cx="0" cy="0" r="1" gradientUnits="userSpaceOnUse" gradientTransform="translate(76.6713 50.8905) scale(89.1064)">
<stop stop-color="#FFF081"/>
<stop offset="1" stop-color="#FD8C05"/>
</radialGradient>
<radialGradient id="paint1_radial" cx="0" cy="0" r="1" gradientUnits="userSpaceOnUse" gradientTransform="translate(76.6713 50.8906) scale(89.1064)">
<stop stop-color="#FFDA28"/>
<stop offset="1" stop-color="#FD7F02"/>
</radialGradient>
<linearGradient id="paint2_linear" x1="77.1158" y1="132.096" x2="77.1158" y2="108.929" gradientUnits="userSpaceOnUse">
<stop stop-color="#781512"/>
<stop offset="1" stop-color="#380A08"/>
</linearGradient>
<radialGradient id="paint3_radial" cx="0" cy="0" r="1" gradientUnits="userSpaceOnUse" gradientTransform="translate(45.444 70.5667) scale(15.0136)">
<stop stop-color="#3C2415"/>
<stop offset="0.660514" stop-color="#3C2415"/>
<stop offset="1" stop-color="#24160D"/>
</radialGradient>
<radialGradient id="paint4_radial" cx="0" cy="0" r="1" gradientUnits="userSpaceOnUse" gradientTransform="translate(108.788 70.5667) rotate(180) scale(15.0136)">
<stop stop-color="#3C2415"/>
<stop offset="0.660514" stop-color="#3C2415"/>
<stop offset="1" stop-color="#24160D"/>
</radialGradient>
</defs>
</svg>
