<svg width="154" height="154" viewBox="0 0 154 154" fill="none" xmlns="http://www.w3.org/2000/svg">
<path d="M77.2146 153.7C34.872 153.7 0.547974 119.376 0.547974 77.0333C0.547974 34.692 34.872 0.366627 77.2146 0.366627C119.556 0.366627 153.881 34.692 153.881 77.0333C153.881 119.376 119.556 153.7 77.2146 153.7ZM39.7012 143.837C50.7906 150.077 63.5786 153.652 77.2093 153.652C119.524 153.652 153.827 119.349 153.827 77.0346C153.827 75.556 153.775 74.0893 153.692 72.6306C150.632 98.9373 133.721 124.125 106.76 137.961C93.5146 144.759 79.4546 147.987 65.8346 147.987C56.8106 147.987 47.9786 146.571 39.7012 143.837" fill="url(#paint0_radial)"/>
<path d="M77.2094 153.652C63.5787 153.652 50.7906 150.077 39.7013 143.837C47.9786 146.571 56.8106 147.987 65.8346 147.987C79.4546 147.987 93.5147 144.759 106.76 137.961C133.721 124.125 150.632 98.9372 153.692 72.6305C153.775 74.0892 153.827 75.5559 153.827 77.0345C153.827 119.349 119.524 153.652 77.2094 153.652" fill="url(#paint1_radial)"/>
<path d="M106.911 122.669H47.5186C44.976 122.669 43.68 119.535 45.5466 117.808C50.6373 113.1 62.9027 109.787 77.2214 109.787C91.5294 109.787 103.792 113.1 108.883 117.808C110.749 119.535 109.452 122.669 106.911 122.669" fill="url(#paint2_linear)"/>
<path d="M59.3774 67.7612C60.62 69.5732 59.1454 72.0239 56.9547 71.8705C53.4627 71.6279 49.7906 71.4959 46.0066 71.4959C41.42 71.4959 37 71.6932 32.8626 72.0479C30.6746 72.2346 29.1707 69.8239 30.3654 67.9812C32.8694 64.1159 38.4493 61.4146 44.9387 61.4146C51.308 61.4146 56.808 64.0132 59.3774 67.7612Z" fill="url(#paint3_radial)"/>
<path d="M95.032 67.7612C93.7894 69.5732 95.264 72.0239 97.456 71.8705C100.948 71.6279 104.62 71.4959 108.404 71.4959C112.991 71.4959 117.411 71.6932 121.548 72.0479C123.736 72.2346 125.24 69.8239 124.045 67.9812C121.541 64.1159 115.961 61.4146 109.472 61.4146C103.103 61.4146 97.6027 64.0132 95.032 67.7612" fill="url(#paint4_radial)"/>
<defs>
<radialGradient id="paint0_radial" cx="0" cy="0" r="1" gradientUnits="userSpaceOnUse" gradientTransform="translate(76.7693 51.2559) scale(89.1064)">
<stop stop-color="#FFF081"/>
<stop offset="1" stop-color="#FD8C05"/>
</radialGradient>
<radialGradient id="paint1_radial" cx="0" cy="0" r="1" gradientUnits="userSpaceOnUse" gradientTransform="translate(76.7693 51.2559) scale(89.1064)">
<stop stop-color="#FFDA28"/>
<stop offset="1" stop-color="#FD7F02"/>
</radialGradient>
<linearGradient id="paint2_linear" x1="77.2147" y1="122.669" x2="77.2147" y2="109.786" gradientUnits="userSpaceOnUse">
<stop stop-color="#781512"/>
<stop offset="1" stop-color="#380A08"/>
</linearGradient>
<radialGradient id="paint3_radial" cx="0" cy="0" r="1" gradientUnits="userSpaceOnUse" gradientTransform="translate(44.888 66.7359) scale(11.217)">
<stop stop-color="#3C2415"/>
<stop offset="0.660514" stop-color="#3C2415"/>
<stop offset="1" stop-color="#24160D"/>
</radialGradient>
<radialGradient id="paint4_radial" cx="0" cy="0" r="1" gradientUnits="userSpaceOnUse" gradientTransform="translate(109.523 66.7359) rotate(180) scale(11.217)">
<stop stop-color="#3C2415"/>
<stop offset="0.660514" stop-color="#3C2415"/>
<stop offset="1" stop-color="#24160D"/>
</radialGradient>
</defs>
</svg>
