<svg width="154" height="154" viewBox="0 0 154 154" fill="none" xmlns="http://www.w3.org/2000/svg">
<path d="M77.3 153.517C34.9573 153.517 0.633331 119.192 0.633331 76.8507C0.633331 34.508 34.9573 0.18401 77.3 0.18401C119.641 0.18401 153.967 34.508 153.967 76.8507C153.967 119.192 119.641 153.517 77.3 153.517ZM39.792 143.653C50.8813 149.893 63.6693 153.468 77.3 153.468C119.615 153.468 153.917 119.165 153.917 76.8507C153.917 75.3707 153.865 73.904 153.783 72.4454C150.721 98.752 133.812 123.941 106.851 137.777C93.604 144.575 79.5453 147.801 65.924 147.801C56.9 147.801 48.0693 146.385 39.792 143.653" fill="url(#paint0_radial)"/>
<path d="M77.3 153.468C63.6693 153.468 50.8813 149.893 39.792 143.653C48.0693 146.385 56.9 147.801 65.924 147.801C79.5453 147.801 93.604 144.575 106.851 137.777C133.812 123.941 150.721 98.752 153.783 72.4454C153.865 73.904 153.917 75.3707 153.917 76.8507C153.917 119.165 119.615 153.468 77.3 153.468Z" fill="url(#paint1_radial)"/>
<path d="M112.792 101.817L112.719 101.759C110.456 100.175 107.075 101.037 104.632 103.141C101.356 105.993 97.692 108.108 93.8373 109.515C90.7013 110.831 87.2253 111.736 83.5293 112.119C79.8173 112.504 76.2293 112.329 72.872 111.669C68.828 111.08 64.824 109.759 61.052 107.653C58.2293 106.095 54.7427 105.943 52.852 107.956L52.7773 108.031C50.8986 109.993 51.8813 114.056 55.4426 116.531C63.272 121.959 72.464 124.687 81.764 124.723C82.7733 124.679 83.7906 124.615 84.8173 124.508C85.848 124.401 86.8586 124.256 87.8573 124.092C96.952 122.152 105.388 117.597 111.924 110.684C114.92 107.531 115.049 103.352 112.792 101.817" fill="url(#paint2_linear)"/>
<path d="M61.976 58.9025C61.976 66.6492 56.5067 72.9292 49.76 72.9292C43.012 72.9292 37.5427 66.6492 37.5427 58.9025C37.5427 51.1559 43.012 44.8759 49.76 44.8759C56.5067 44.8759 61.976 51.1559 61.976 58.9025Z" fill="url(#paint3_radial)"/>
<path d="M106.847 50.4214C96.5187 50.4214 88.1453 55.7254 88.1453 62.2694V62.3748C88.2067 66.8281 93.5386 68.9174 96.996 66.1081C99.5426 64.0388 103.013 62.7641 106.847 62.7641C110.68 62.7641 114.151 64.0388 116.697 66.1081C120.155 68.9174 125.487 66.8281 125.548 62.3748L125.549 62.2694C125.549 55.7254 117.176 50.4214 106.847 50.4214" fill="url(#paint4_radial)"/>
<defs>
<radialGradient id="paint0_radial" cx="0" cy="0" r="1" gradientUnits="userSpaceOnUse" gradientTransform="translate(76.8547 51.072) scale(89.1064)">
<stop stop-color="#FFF081"/>
<stop offset="1" stop-color="#FD8C05"/>
</radialGradient>
<radialGradient id="paint1_radial" cx="0" cy="0" r="1" gradientUnits="userSpaceOnUse" gradientTransform="translate(76.8547 51.072) scale(89.1064)">
<stop stop-color="#FFDA28"/>
<stop offset="1" stop-color="#FD7F02"/>
</radialGradient>
<linearGradient id="paint2_linear" x1="84.8333" y1="124.656" x2="82.6672" y2="103.737" gradientUnits="userSpaceOnUse">
<stop stop-color="#781512"/>
<stop offset="1" stop-color="#380A08"/>
</linearGradient>
<radialGradient id="paint3_radial" cx="0" cy="0" r="1" gradientUnits="userSpaceOnUse" gradientTransform="translate(49.76 58.9025) scale(17.6987)">
<stop stop-color="#3C2415"/>
<stop offset="0.660514" stop-color="#3C2415"/>
<stop offset="1" stop-color="#24160D"/>
</radialGradient>
<radialGradient id="paint4_radial" cx="0" cy="0" r="1" gradientUnits="userSpaceOnUse" gradientTransform="translate(106.847 58.9027) scale(14.5207)">
<stop stop-color="#3C2415"/>
<stop offset="0.660514" stop-color="#3C2415"/>
<stop offset="1" stop-color="#24160D"/>
</radialGradient>
</defs>
</svg>
