<svg width="155" height="162" viewBox="0 0 155 162" fill="none" xmlns="http://www.w3.org/2000/svg">
<path d="M77.4826 153.913C35.14 153.913 0.815979 119.588 0.815979 77.2467C0.815979 34.9054 35.14 0.580022 77.4826 0.580022C119.824 0.580022 154.149 34.9054 154.149 77.2467C154.149 119.588 119.824 153.913 77.4826 153.913ZM39.9746 144.049C51.064 150.289 63.852 153.864 77.4826 153.864C119.797 153.864 154.1 119.561 154.1 77.2467C154.1 75.7667 154.048 74.3 153.965 72.8427C150.904 99.1493 133.995 124.337 107.033 138.173C93.7866 144.971 79.728 148.199 66.1066 148.199C57.0826 148.199 48.252 146.783 39.9746 144.049" fill="url(#paint0_radial)"/>
<path d="M77.4827 153.864C63.852 153.864 51.064 150.289 39.9747 144.049C48.252 146.783 57.0827 148.199 66.1067 148.199C79.728 148.199 93.7867 144.971 107.033 138.173C133.995 124.337 150.904 99.1494 153.965 72.8427C154.048 74.3 154.1 75.7667 154.1 77.2467C154.1 119.561 119.797 153.864 77.4827 153.864Z" fill="url(#paint1_radial)"/>
<path d="M62.1587 67.1706C62.1587 74.9173 56.6894 81.1973 49.9427 81.1973C43.1947 81.1973 37.7253 74.9173 37.7253 67.1706C37.7253 59.4239 43.1947 53.1439 49.9427 53.1439C56.6894 53.1439 62.1587 59.4239 62.1587 67.1706Z" fill="url(#paint2_radial)"/>
<path d="M117.239 67.1706C117.239 74.9173 111.769 81.1973 105.021 81.1973C98.2746 81.1973 92.8053 74.9173 92.8053 67.1706C92.8053 59.4239 98.2746 53.1439 105.021 53.1439C111.769 53.1439 117.239 59.4239 117.239 67.1706Z" fill="url(#paint3_radial)"/>
<path d="M52.024 63.008C52.024 65.4573 50.0387 67.4426 47.5893 67.4426C45.1413 67.4426 43.1547 65.4573 43.1547 63.008C43.1547 60.56 45.1413 58.5746 47.5893 58.5746C50.0387 58.5746 52.024 60.56 52.024 63.008Z" fill="white"/>
<path d="M107.104 63.008C107.104 65.4573 105.119 67.4426 102.669 67.4426C100.22 67.4426 98.2346 65.4573 98.2346 63.008C98.2346 60.56 100.22 58.5746 102.669 58.5746C105.119 58.5746 107.104 60.56 107.104 63.008Z" fill="white"/>
<path d="M46.8027 39.1639C53.0307 38.7493 57.5987 37.9186 58.7053 34.5959C59.8133 31.2746 55.7987 26.2919 50.9547 27.2613C46.1107 28.2293 31.8547 30.4439 21.336 44.9773C19.6053 47.0613 26.3187 49.6826 31.8547 44.9773C37.3907 40.2706 44.604 39.3386 46.8027 39.1639" fill="#ED8206"/>
<path d="M108.161 39.1639C101.933 38.7493 97.3653 37.9186 96.2586 34.5959C95.1506 31.2746 99.1653 26.2919 104.009 27.2613C108.853 28.2293 123.109 30.4439 133.628 44.9773C135.359 47.0613 128.645 49.6826 123.109 44.9773C117.573 40.2706 110.36 39.3386 108.161 39.1639" fill="#ED8206"/>
<path d="M114.907 109.228C112.211 112.876 108.62 118.269 102.808 122.755C97.0107 127.24 89.008 130.816 77.4853 130.816C65.964 130.816 57.9454 127.24 52.148 122.755C46.352 118.256 42.7613 112.876 40.064 109.228C37.6267 105.955 37.5547 102.868 38.348 100.517C38.464 100.187 38.5934 99.8546 38.7374 99.5519C39.8187 97.2439 41.708 95.8599 42.5307 96.0906C54.672 101.7 71.184 100.907 77.4853 100.907C83.7733 100.907 100.299 101.7 112.427 96.0906C113.263 95.8599 115.139 97.2439 116.22 99.5519C116.379 99.8546 116.508 100.187 116.609 100.517C117.416 102.868 117.331 105.955 114.907 109.228" fill="url(#paint4_linear)"/>
<path d="M94.8573 110.617C92.992 109.459 90.8027 108.808 88.468 108.808C86.1693 108.808 84.0333 109.441 82.224 110.545C80.1787 111.74 78.532 113.532 77.4827 115.667C76.432 113.532 74.7853 111.74 72.74 110.545C70.9307 109.441 68.7947 108.808 66.496 108.808C64.1613 108.808 61.972 109.459 60.108 110.617L60.036 110.661C56.7947 112.647 54.9667 116.315 54.9667 120.116V125.187V139.16C54.9667 151.464 64.9427 161.439 77.2467 161.439H77.7C90.024 161.439 99.9973 151.467 99.9973 139.16V125.187V120.116C99.9973 116.315 98.1693 112.647 94.928 110.661L94.8573 110.617Z" fill="url(#paint5_linear)"/>
<defs>
<radialGradient id="paint0_radial" cx="0" cy="0" r="1" gradientUnits="userSpaceOnUse" gradientTransform="translate(77.0373 51.4693) scale(89.1064)">
<stop stop-color="#FFF081"/>
<stop offset="1" stop-color="#FD8C05"/>
</radialGradient>
<radialGradient id="paint1_radial" cx="0" cy="0" r="1" gradientUnits="userSpaceOnUse" gradientTransform="translate(77.0373 51.4694) scale(89.1064)">
<stop stop-color="#FFDA28"/>
<stop offset="1" stop-color="#FD7F02"/>
</radialGradient>
<radialGradient id="paint2_radial" cx="0" cy="0" r="1" gradientUnits="userSpaceOnUse" gradientTransform="translate(49.9427 67.1706) scale(17.6987)">
<stop stop-color="#3C2415"/>
<stop offset="0.660514" stop-color="#3C2415"/>
<stop offset="1" stop-color="#24160D"/>
</radialGradient>
<radialGradient id="paint3_radial" cx="0" cy="0" r="1" gradientUnits="userSpaceOnUse" gradientTransform="translate(105.023 67.1706) scale(13.1527)">
<stop stop-color="#3C2415"/>
<stop offset="0.660514" stop-color="#3C2415"/>
<stop offset="1" stop-color="#24160D"/>
</radialGradient>
<linearGradient id="paint4_linear" x1="77.4827" y1="130.816" x2="77.4827" y2="96.066" gradientUnits="userSpaceOnUse">
<stop stop-color="#781512"/>
<stop offset="1" stop-color="#380A08"/>
</linearGradient>
<linearGradient id="paint5_linear" x1="77.4827" y1="161.439" x2="77.4827" y2="108.808" gradientUnits="userSpaceOnUse">
<stop stop-color="#D63744"/>
<stop offset="0.660514" stop-color="#D63744"/>
<stop offset="1" stop-color="#8C242C"/>
</linearGradient>
</defs>
</svg>
