<svg width="155" height="154" viewBox="0 0 155 154" fill="none" xmlns="http://www.w3.org/2000/svg">
<path d="M77.6346 153.884C35.2933 153.884 0.967957 119.559 0.967957 77.2171C0.967957 34.8759 35.2933 0.550595 77.6346 0.550595C119.977 0.550595 154.303 34.8759 154.303 77.2171C154.303 119.559 119.977 153.884 77.6346 153.884V153.884ZM40.128 144.02C51.2173 150.26 64.0053 153.836 77.6346 153.836C119.951 153.836 154.253 119.532 154.253 77.2171C154.253 75.7385 154.201 74.2718 154.119 72.813C151.057 99.1197 134.148 124.308 107.187 138.144C93.94 144.941 79.8813 148.169 66.26 148.169C57.236 148.169 48.4053 146.753 40.128 144.02V144.02ZM111.796 31.7546C100.305 31.7546 92.1586 36.5079 88.8 38.2959C84.4386 40.6159 84.492 47.0133 87.4533 48.8813C88.184 49.3426 88.9826 49.553 89.848 49.553C92.4826 49.553 95.7293 47.6013 99.5547 44.8719C101.336 43.6346 107.332 39.8919 114.437 39.8919C114.559 39.8919 114.68 39.8933 114.803 39.8959C114.877 39.8973 114.952 39.8973 115.027 39.8973C122.139 39.8973 125.572 33.7399 122.94 33.2293C118.952 32.1773 115.227 31.7546 111.796 31.7546ZM40.8333 39.8919C47.9387 39.8919 53.9347 43.6346 55.716 44.8719C59.5413 47.6013 62.788 49.553 65.4226 49.553C66.288 49.553 67.0853 49.3426 67.8173 48.8813C70.7786 47.0133 70.832 40.6159 66.4706 38.2959C63.112 36.5079 54.9653 31.7546 43.4733 31.7546C40.044 31.7546 36.3186 32.1773 32.3306 33.2293C29.7 33.7399 33.1307 39.8973 40.244 39.8973C40.3187 39.8973 40.3933 39.8973 40.468 39.8959C40.5906 39.8933 40.712 39.8919 40.8333 39.8919" fill="url(#paint0_radial)"/>
<path d="M77.6346 153.836C64.0053 153.836 51.2173 150.26 40.128 144.02C48.4053 146.753 57.236 148.169 66.26 148.169C79.8814 148.169 93.94 144.941 107.187 138.144C134.148 124.308 151.057 99.1197 154.119 72.813C154.201 74.2718 154.253 75.7385 154.253 77.2171C154.253 119.532 119.951 153.836 77.6346 153.836" fill="url(#paint1_radial)"/>
<path d="M100.719 123.215V123.232C100.339 124.644 99.832 125.893 99.216 126.943L99.1987 126.979C97.0267 131.105 92.7373 133.803 77.6426 133.803C62.5479 133.803 58.2413 131.105 56.0693 126.979L56.0506 126.943C55.4359 125.893 54.9293 124.644 54.5493 123.232V123.215C53.2813 118.364 53.4813 111.831 55.8333 107.432L56.196 106.763C68.4306 83.9761 86.8373 83.9761 99.072 106.763L99.4333 107.432C101.804 111.831 102.004 118.364 100.719 123.215" fill="url(#paint2_linear)"/>
<path d="M99.216 126.943L99.1987 126.979C97.0267 131.105 92.7373 133.803 77.6427 133.803C62.548 133.803 58.2413 131.105 56.0693 126.979L56.0507 126.943C62.2947 122.672 69.6973 120.192 77.6427 120.192C85.5693 120.192 92.9907 122.672 99.216 126.943" fill="url(#paint3_radial)"/>
<path d="M65.2493 66.9C65.2493 74.6464 59.78 80.9265 53.032 80.9265C46.2853 80.9265 40.816 74.6464 40.816 66.9C40.816 59.1531 46.2853 52.8735 53.032 52.8735C59.78 52.8735 65.2493 59.1531 65.2493 66.9Z" fill="url(#paint4_radial)"/>
<path d="M114.455 66.9C114.455 74.6464 108.985 80.9265 102.239 80.9265C95.4907 80.9265 90.0214 74.6464 90.0214 66.9C90.0214 59.1531 95.4907 52.8735 102.239 52.8735C108.985 52.8735 114.455 59.1531 114.455 66.9Z" fill="url(#paint5_radial)"/>
<path d="M55.1146 62.7369C55.1146 65.1864 53.1293 67.1719 50.68 67.1719C48.2307 67.1719 46.2453 65.1864 46.2453 62.7369C46.2453 60.2891 48.2307 58.3027 50.68 58.3027C53.1293 58.3027 55.1146 60.2891 55.1146 62.7369Z" fill="white"/>
<path d="M104.32 62.7369C104.32 65.1864 102.335 67.1719 99.8854 67.1719C97.4374 67.1719 95.4507 65.1864 95.4507 62.7369C95.4507 60.2891 97.4374 58.3027 99.8854 58.3027C102.335 58.3027 104.32 60.2891 104.32 62.7369Z" fill="white"/>
<path d="M65.4227 49.553C62.788 49.553 59.5413 47.6012 55.716 44.8719C53.9347 43.6346 47.9387 39.8919 40.8333 39.8919C40.712 39.8919 40.5906 39.8932 40.468 39.8959C40.3933 39.8972 40.3187 39.8972 40.244 39.8972C33.1307 39.8972 29.7 33.7399 32.3307 33.2292C36.3187 32.1772 40.044 31.7546 43.4733 31.7546C54.9653 31.7546 63.112 36.5079 66.4706 38.2959C70.832 40.6159 70.7787 47.0132 67.8173 48.8812C67.0853 49.3426 66.288 49.553 65.4227 49.553" fill="url(#paint6_radial)"/>
<path d="M89.848 49.553C88.9827 49.553 88.184 49.3426 87.4533 48.8812C84.492 47.0132 84.4387 40.6159 88.8 38.2959C92.1587 36.5079 100.305 31.7546 111.796 31.7546C115.227 31.7546 118.952 32.1772 122.94 33.2292C125.572 33.7399 122.139 39.8972 115.027 39.8972C114.952 39.8972 114.877 39.8972 114.803 39.8959C114.68 39.8932 114.559 39.8919 114.437 39.8919C107.332 39.8919 101.336 43.6346 99.5547 44.8719C95.7294 47.6012 92.4827 49.553 89.848 49.553" fill="url(#paint7_radial)"/>
<defs>
<radialGradient id="paint0_radial" cx="0" cy="0" r="1" gradientUnits="userSpaceOnUse" gradientTransform="translate(77.1906 51.4399) scale(89.1064)">
<stop stop-color="#FDA133"/>
<stop offset="1" stop-color="#EF5136"/>
</radialGradient>
<radialGradient id="paint1_radial" cx="0" cy="0" r="1" gradientUnits="userSpaceOnUse" gradientTransform="translate(77.1907 51.4399) scale(89.1064)">
<stop stop-color="#FD9210"/>
<stop offset="1" stop-color="#EF4A11"/>
</radialGradient>
<linearGradient id="paint2_linear" x1="77.64" y1="133.803" x2="77.64" y2="89.6734" gradientUnits="userSpaceOnUse">
<stop stop-color="#781512"/>
<stop offset="1" stop-color="#380A08"/>
</linearGradient>
<radialGradient id="paint3_radial" cx="0" cy="0" r="1" gradientUnits="userSpaceOnUse" gradientTransform="translate(77.6333 126.997) scale(20.2907 8.39018)">
<stop stop-color="#D63744"/>
<stop offset="0.660514" stop-color="#D63744"/>
<stop offset="1" stop-color="#8C242C"/>
</radialGradient>
<radialGradient id="paint4_radial" cx="0" cy="0" r="1" gradientUnits="userSpaceOnUse" gradientTransform="translate(53.032 66.9) scale(17.6987)">
<stop stop-color="#3C2415"/>
<stop offset="0.660514" stop-color="#3C2415"/>
<stop offset="1" stop-color="#24160D"/>
</radialGradient>
<radialGradient id="paint5_radial" cx="0" cy="0" r="1" gradientUnits="userSpaceOnUse" gradientTransform="translate(102.239 66.9) scale(13.1527)">
<stop stop-color="#3C2415"/>
<stop offset="0.660514" stop-color="#3C2415"/>
<stop offset="1" stop-color="#24160D"/>
</radialGradient>
<radialGradient id="paint6_radial" cx="0" cy="0" r="1" gradientUnits="userSpaceOnUse" gradientTransform="translate(77.1906 51.4399) scale(89.1063)">
<stop stop-color="#CF852A"/>
<stop offset="1" stop-color="#C4432D"/>
</radialGradient>
<radialGradient id="paint7_radial" cx="0" cy="0" r="1" gradientUnits="userSpaceOnUse" gradientTransform="translate(77.1907 51.4399) scale(89.1064)">
<stop stop-color="#CF852A"/>
<stop offset="1" stop-color="#C4432D"/>
</radialGradient>
</defs>
</svg>
