<svg width="154" height="161" viewBox="0 0 154 161" fill="none" xmlns="http://www.w3.org/2000/svg">
<path d="M76.6679 153.363C34.3266 153.363 0.00128174 119.037 0.00128174 76.6961C0.00128174 34.3548 34.3266 0.0294688 76.6679 0.0294688C119.011 0.0294688 153.335 34.3548 153.335 76.6961C153.335 119.037 119.011 153.363 76.6679 153.363ZM39.1613 143.499C50.2493 149.739 63.0386 153.313 76.6679 153.313C118.983 153.313 153.285 119.011 153.285 76.6961C153.285 75.2161 153.235 73.7495 153.151 72.2908C150.091 98.5988 133.18 123.787 106.22 137.623C92.9733 144.42 78.9133 147.648 65.2933 147.648C56.2693 147.648 47.4386 146.232 39.1613 143.499" fill="url(#paint0_radial)"/>
<path d="M103.779 46.584C114.108 46.584 122.481 51.8894 122.481 58.4321L122.48 58.5373C122.42 62.9907 117.087 65.08 113.631 62.2707C111.084 60.2027 107.612 58.928 103.779 58.928C99.9466 58.928 96.4746 60.2027 93.928 62.2707C90.4706 65.08 85.1387 62.9907 85.0773 58.5373V58.4321C85.0773 51.8894 93.4506 46.584 103.779 46.584Z" fill="url(#paint1_radial)"/>
<path d="M76.668 153.313C63.0386 153.313 50.2493 149.739 39.1613 143.499C47.4386 146.232 56.2693 147.648 65.2933 147.648C78.9133 147.648 92.9733 144.42 106.22 137.623C133.18 123.787 150.091 98.5986 153.151 72.2906C153.235 73.7492 153.285 75.2159 153.285 76.6959C153.285 119.011 118.983 153.313 76.668 153.313" fill="url(#paint2_radial)"/>
<path d="M114.093 108.677C111.397 112.325 107.807 117.719 101.995 122.204C96.1974 126.689 88.1934 130.265 76.672 130.265C65.1494 130.265 57.132 126.689 51.3347 122.204C45.5373 117.705 41.9467 112.325 39.2507 108.677C36.8133 105.404 36.7413 102.317 37.5347 99.9667C37.6493 99.636 37.7801 99.304 37.9241 99.0013C39.0054 96.6933 40.8947 95.3093 41.716 95.54C53.8587 101.149 70.3707 100.356 76.672 100.356C82.9587 100.356 99.4854 101.149 111.613 95.54C112.449 95.3093 114.324 96.6933 115.405 99.0013C115.564 99.304 115.695 99.636 115.795 99.9667C116.603 102.317 116.516 105.404 114.093 108.677Z" fill="url(#paint3_linear)"/>
<path d="M94.0426 110.067C92.1786 108.908 89.9894 108.257 87.6547 108.257C85.356 108.257 83.22 108.891 81.4107 109.995C79.3653 111.189 77.7173 112.981 76.668 115.116C75.6186 112.981 73.972 111.189 71.9267 109.995C70.116 108.891 67.9813 108.257 65.6827 108.257C63.348 108.257 61.1574 108.908 59.2934 110.067L59.2227 110.111C55.9813 112.096 54.1533 115.764 54.1533 119.565V124.636V138.609C54.1533 150.913 64.128 160.888 76.4333 160.888H76.8854C89.2107 160.888 99.1827 150.916 99.1827 138.609V124.636V119.565C99.1827 115.764 97.356 112.096 94.1146 110.109L94.0426 110.067Z" fill="url(#paint4_linear)"/>
<path d="M58.908 55.0652C58.908 62.8118 53.4387 69.0918 46.692 69.0918C39.9453 69.0918 34.4747 62.8118 34.4747 55.0652C34.4747 47.3185 39.9453 41.0385 46.692 41.0385C53.4387 41.0385 58.908 47.3185 58.908 55.0652Z" fill="url(#paint5_radial)"/>
<defs>
<radialGradient id="paint0_radial" cx="0" cy="0" r="1" gradientUnits="userSpaceOnUse" gradientTransform="translate(76.2239 50.9188) scale(89.1064)">
<stop stop-color="#FFF081"/>
<stop offset="1" stop-color="#FD8C05"/>
</radialGradient>
<radialGradient id="paint1_radial" cx="0" cy="0" r="1" gradientUnits="userSpaceOnUse" gradientTransform="translate(103.779 55.0654) rotate(180) scale(14.5207)">
<stop stop-color="#3C2415"/>
<stop offset="0.660514" stop-color="#3C2415"/>
<stop offset="1" stop-color="#24160D"/>
</radialGradient>
<radialGradient id="paint2_radial" cx="0" cy="0" r="1" gradientUnits="userSpaceOnUse" gradientTransform="translate(76.224 50.9186) scale(89.1064)">
<stop stop-color="#FFDA28"/>
<stop offset="1" stop-color="#FD7F02"/>
</radialGradient>
<linearGradient id="paint3_linear" x1="76.668" y1="130.265" x2="76.668" y2="95.5155" gradientUnits="userSpaceOnUse">
<stop stop-color="#781512"/>
<stop offset="1" stop-color="#380A08"/>
</linearGradient>
<linearGradient id="paint4_linear" x1="76.668" y1="160.888" x2="76.668" y2="108.257" gradientUnits="userSpaceOnUse">
<stop stop-color="#D63744"/>
<stop offset="0.660514" stop-color="#D63744"/>
<stop offset="1" stop-color="#8C242C"/>
</linearGradient>
<radialGradient id="paint5_radial" cx="0" cy="0" r="1" gradientUnits="userSpaceOnUse" gradientTransform="translate(46.692 55.0651) scale(17.6987)">
<stop stop-color="#3C2415"/>
<stop offset="0.660514" stop-color="#3C2415"/>
<stop offset="1" stop-color="#24160D"/>
</radialGradient>
</defs>
</svg>
