<svg width="154" height="154" viewBox="0 0 154 154" fill="none" xmlns="http://www.w3.org/2000/svg">
<path d="M76.8506 153.334C34.508 153.334 0.18396 119.01 0.18396 76.6678C0.18396 34.3265 34.508 0.00114846 76.8506 0.00114846C119.192 0.00114846 153.517 34.3265 153.517 76.6678C153.517 119.01 119.192 153.334 76.8506 153.334ZM39.3426 143.47C50.4319 149.71 63.22 153.286 76.8506 153.286C119.165 153.286 153.468 118.982 153.468 76.6678C153.468 75.1891 153.416 73.7225 153.333 72.2638C150.273 98.5705 133.363 123.759 106.401 137.594C93.1546 144.392 79.0959 147.62 65.4759 147.62C56.4519 147.62 47.6199 146.204 39.3426 143.47" fill="url(#paint0_radial)"/>
<path d="M76.8506 153.287C63.2199 153.287 50.4319 149.711 39.3426 143.471C47.6199 146.204 56.4519 147.62 65.4759 147.62C79.0959 147.62 93.1546 144.392 106.401 137.595C133.363 123.759 150.273 98.5706 153.333 72.264C153.416 73.7226 153.468 75.1893 153.468 76.6679C153.468 118.983 119.165 153.287 76.8506 153.287" fill="url(#paint1_radial)"/>
<path d="M123.811 103.135C123.231 103.931 122.616 104.781 121.947 105.687C114.96 115.243 103.251 130.211 76.8441 130.211C50.4561 130.211 38.7467 115.26 31.7427 105.704C31.0907 104.781 30.4574 103.931 29.8787 103.135C26.8374 99.0253 26.7294 95.1534 27.7427 92.2027C27.8694 91.7867 28.032 91.3707 28.2307 90.9907C29.588 88.0947 31.9601 86.3573 32.9907 86.628C48.2121 93.6693 68.9534 92.692 76.8441 92.692C84.7534 92.692 105.495 93.6693 120.716 86.628C121.747 86.3573 124.119 88.0947 125.476 90.9907C125.656 91.3707 125.837 91.7867 125.964 92.2027C126.96 95.1534 126.869 99.0253 123.811 103.135" fill="url(#paint2_linear)"/>
<path d="M28.7 60.9439C34.1533 52.7399 44.2507 39.9079 49.2987 39.9079C54.348 39.9079 62.972 48.9533 69.704 60.9439C70.5453 63.2573 69.2827 69.3586 63.8133 68.9372C58.344 68.5172 56.2413 58.1386 50.3507 55.8946C48.668 55.3346 42.2174 60.8039 36.888 67.2546C34.0827 70.2 25.4213 65.6373 28.7 60.9439" fill="url(#paint3_radial)"/>
<path d="M125 60.9439C119.547 52.7399 109.449 39.9079 104.401 39.9079C99.3519 39.9079 90.728 48.9533 83.996 60.9439C83.1547 63.2573 84.4173 69.3586 89.8866 68.9372C95.3559 68.5172 97.46 58.1386 103.349 55.8946C105.032 55.3346 111.484 60.8039 116.812 67.2546C119.617 70.2 128.279 65.6373 125 60.9439" fill="url(#paint4_radial)"/>
<path d="M37.4297 100.389C38.474 101.182 39.5623 101.936 40.6927 102.66C40.293 101.902 39.9035 101.134 39.5312 100.355C38.2734 99.6145 36.8434 99.3698 35.6406 98.97C36.2232 99.456 36.8196 99.9274 37.4297 100.389Z" fill="#DEEBEF"/>
<path d="M35.641 98.9708C36.8438 99.3707 38.2737 99.6153 39.5316 100.356C39.1594 99.5739 38.7973 98.7841 38.4561 97.9812C37.0739 97.2299 35.3062 97.4981 33.9482 97.4877C34.4962 97.9909 35.062 98.4883 35.641 98.9708V98.9708Z" fill="#F6FAFB"/>
<path d="M40.6927 102.66C50.3086 108.823 62.9751 112.563 76.8438 112.563C76.8438 111.518 76.8438 110.464 76.8438 109.399C63.9298 109.399 49.8261 106.487 39.5312 100.356C39.9035 101.135 40.293 101.902 40.6927 102.66V102.66Z" fill="#DEEBEF"/>
<path d="M39.5316 100.356C49.8264 106.487 63.9301 109.399 76.8441 109.399C76.8441 108.33 76.8441 107.255 76.8441 106.17C64.8847 106.17 49.4262 104.084 38.4561 97.9807C38.7973 98.7836 39.1594 99.5734 39.5316 100.356V100.356Z" fill="#F6FAFB"/>
<path d="M76.8438 112.563C90.7125 112.563 103.375 108.823 112.991 102.66C113.394 101.902 113.779 101.135 114.155 100.356C103.86 106.487 89.7579 109.399 76.8438 109.399C76.8438 110.464 76.8438 111.518 76.8438 112.563Z" fill="#DEEBEF"/>
<path d="M76.8438 109.399C89.7579 109.399 103.86 106.487 114.155 100.356C114.527 99.5734 114.889 98.7836 115.23 97.9807C104.26 104.084 88.8032 106.17 76.8438 106.17C76.8438 107.255 76.8438 108.33 76.8438 109.399Z" fill="#F6FAFB"/>
<path d="M112.991 102.66C114.125 101.936 115.214 101.182 116.258 100.389C116.868 99.9274 117.465 99.456 118.047 98.97C116.844 99.3698 115.41 99.6145 114.155 100.355C113.78 101.134 113.395 101.902 112.991 102.66Z" fill="#DEEBEF"/>
<path d="M114.155 100.356C115.41 99.615 116.844 99.3704 118.047 98.9705C118.626 98.488 119.191 97.9906 119.736 97.4874C118.382 97.5008 116.613 97.2296 115.231 97.9809C114.89 98.7839 114.528 99.5737 114.155 100.356V100.356Z" fill="#F6FAFB"/>
<path d="M33.9482 97.4868C35.2545 97.5002 36.9362 97.2491 38.2907 97.897C37.1568 96.129 36.0818 94.3203 35.0719 92.4764C33.7933 92.3318 32.0696 93.2373 30.8701 94.3436C31.8249 95.4293 32.8557 96.4771 33.9482 97.4868Z" fill="white"/>
<path d="M38.29 97.8974C38.3447 97.9254 38.4006 97.9527 38.4554 97.9807C37.6145 96.2712 36.8364 94.52 36.1195 92.7346C35.8024 92.5968 35.4436 92.5148 35.0713 92.4768C36.0812 94.3207 37.1562 96.1294 38.29 97.8974V97.8974Z" fill="white"/>
<path d="M38.4561 97.9807C38.6801 98.1087 38.9109 98.2317 39.1383 98.3557C38.0733 96.5188 37.068 94.644 36.1201 92.7346C36.8371 94.52 37.6151 96.2712 38.4561 97.9807Z" fill="white"/>
<path d="M39.1383 98.3557C50.0637 104.17 65.1329 106.17 76.8441 106.17C76.8441 103.998 76.8441 101.789 76.8441 99.5419C67.125 99.5419 49.1789 99.0624 36.1201 92.7346C37.068 94.644 38.0733 96.5188 39.1383 98.3557V98.3557Z" fill="white"/>
<path d="M76.8438 106.17C88.5551 106.17 103.622 104.17 114.544 98.3557C115.613 96.5188 116.619 94.644 117.564 92.7346C104.508 99.0624 86.5629 99.5419 76.8438 99.5419C76.8438 101.789 76.8438 103.998 76.8438 106.17V106.17Z" fill="white"/>
<path d="M114.544 98.3557C114.775 98.2317 115.006 98.1082 115.23 97.9807C116.419 96.185 117.549 94.3483 118.614 92.4768C118.242 92.5155 117.884 92.5974 117.563 92.7346C116.619 94.644 115.612 96.5188 114.544 98.3557Z" fill="white"/>
<path d="M115.23 97.9803C116.612 97.229 118.381 97.4972 119.736 97.4868C120.832 96.4771 121.862 95.4293 122.816 94.3436C121.617 93.2373 119.89 92.3318 118.615 92.4764C117.55 94.3479 116.42 96.1846 115.23 97.9803Z" fill="white"/>
<path d="M30.8698 94.3433C32.0693 93.237 33.7929 92.3314 35.0716 92.4761C34.7959 92.0109 34.5201 91.545 34.2513 91.0763C32.9898 91.0377 31.3329 92.2547 30.168 93.523C30.3954 93.7987 30.6286 94.071 30.8698 94.3433Z" fill="white"/>
<path d="M30.168 93.5237C31.3329 92.2554 32.9898 91.0391 34.2513 91.0771C33.9825 90.6117 33.7143 90.1405 33.4557 89.6682C32.2357 89.8613 30.5882 91.067 29.4922 92.6903C29.7093 92.9695 29.937 93.2479 30.168 93.5237Z" fill="#FAFCFD"/>
<path d="M29.4919 92.69C30.5879 91.0667 32.2354 89.861 33.4554 89.6679C33.1935 89.1958 32.9344 88.7229 32.6794 88.2473C31.5042 88.6677 29.8747 89.8676 28.8408 91.8424C29.0544 92.1284 29.2679 92.4108 29.4919 92.69Z" fill="#ECF4F7"/>
<path d="M28.8408 91.8424C29.8747 89.8676 31.5042 88.6677 32.6794 88.2473C32.4278 87.7682 32.1792 87.2889 31.9346 86.8098C30.7731 87.3371 29.2192 88.8474 28.2197 90.9843C28.4231 91.2738 28.6306 91.5597 28.8408 91.8424V91.8424Z" fill="#D4E7ED"/>
<path d="M35.0713 92.4771C35.4436 92.5158 35.8024 92.5977 36.1195 92.7349C35.8161 92.2317 35.5122 91.7286 35.2158 91.2219C34.9125 91.1086 34.6026 91.0914 34.251 91.0774C34.5198 91.5461 34.7956 92.0119 35.0713 92.4771Z" fill="white"/>
<path d="M34.2516 91.0769C34.6032 91.0902 34.9131 91.1074 35.2165 91.2214C34.9166 90.7148 34.6246 90.209 34.335 89.6954C34.0696 89.6367 33.7697 89.6294 33.4561 89.6667C33.7146 90.139 33.9828 90.6116 34.2516 91.0769V91.0769Z" fill="#FAFCFD"/>
<path d="M33.4557 89.668C33.7693 89.6306 34.0693 89.6366 34.3346 89.6953C34.0452 89.1853 33.7592 88.6758 33.4766 88.1589C33.2491 88.1455 32.9589 88.1447 32.6797 88.2474C32.9348 88.723 33.1939 89.1958 33.4557 89.668V89.668Z" fill="#ECF4F7"/>
<path d="M32.6794 88.2473C32.9586 88.1513 33.2488 88.1508 33.4762 88.1575C33.1937 87.6439 32.9139 87.1271 32.6416 86.6067C32.4348 86.624 32.193 86.6931 31.9346 86.8098C32.1792 87.2889 32.4278 87.7682 32.6794 88.2473V88.2473Z" fill="#D4E7ED"/>
<path d="M36.1195 92.7349C36.3193 92.8283 36.5155 92.9253 36.7119 93.0149C36.3879 92.4944 36.0637 91.9667 35.7432 91.4394C35.5605 91.3607 35.3985 91.3013 35.2158 91.2219C35.5122 91.7286 35.8161 92.2317 36.1195 92.7349Z" fill="white"/>
<path d="M35.2165 91.2216C35.3991 91.3003 35.5611 91.3597 35.7438 91.439C35.4233 90.9117 35.1095 90.3848 34.7959 89.8505C34.6478 89.7918 34.4936 89.74 34.335 89.6956C34.6246 90.2092 34.9166 90.7149 35.2165 91.2216Z" fill="#FAFCFD"/>
<path d="M34.3346 89.6952C34.4933 89.7406 34.6474 89.7911 34.7956 89.8502C34.4854 89.3195 34.1795 88.7854 33.8763 88.2512C33.759 88.2099 33.611 88.1641 33.4766 88.1575C33.7592 88.6744 34.0452 89.1852 34.3346 89.6952V89.6952Z" fill="#ECF4F7"/>
<path d="M33.4762 88.158C33.6106 88.1713 33.7588 88.2104 33.876 88.2517C33.5726 87.714 33.2726 87.1758 32.9762 86.6346C32.8762 86.6066 32.7656 86.6006 32.6416 86.6072C32.9139 87.1276 33.1937 87.6444 33.4762 88.158V88.158Z" fill="#D4E7ED"/>
<path d="M36.7119 93.0142C49.7156 99.0766 67.269 99.5416 76.8434 99.5416C76.8434 98.9799 76.8434 98.4142 76.8434 97.8489C67.531 97.8489 49.0949 97.6527 35.7432 91.4387C36.0637 91.9661 36.3879 92.4937 36.7119 93.0142V93.0142Z" fill="white"/>
<path d="M35.7438 91.4394C49.0955 97.6534 67.5317 97.8495 76.8441 97.8495C76.8441 97.2809 76.8441 96.7125 76.8441 96.1438C68.1073 96.1438 48.9128 96.4027 34.7959 89.8508C35.1095 90.3851 35.4233 90.912 35.7438 91.4394Z" fill="#FAFCFD"/>
<path d="M34.7952 89.8502C48.9122 96.402 68.1066 96.1431 76.8434 96.1431C76.8434 95.571 76.8434 94.9986 76.8434 94.4231C68.6788 94.4231 48.758 95.1372 33.876 88.2512C34.1792 88.7854 34.4851 89.3195 34.7952 89.8502Z" fill="#ECF4F7"/>
<path d="M33.8763 88.2512C48.7583 95.1372 68.6791 94.4231 76.8438 94.4231C76.8438 93.851 76.8438 93.2729 76.8438 92.6939C68.941 92.6939 48.2102 93.6754 32.9766 86.634C33.273 87.1752 33.573 87.7135 33.8763 88.2512Z" fill="#D4E7ED"/>
<path d="M76.8438 99.5422C86.5629 99.5422 104.508 99.0627 117.564 92.7349C117.843 92.2352 118.116 91.7329 118.388 91.2297C104.991 97.6677 86.2803 97.8495 76.8438 97.8495C76.8438 98.4149 76.8438 98.9805 76.8438 99.5422Z" fill="white"/>
<path d="M76.8438 97.8489C86.2803 97.8489 104.991 97.6671 118.388 91.2291C118.657 90.7259 118.926 90.2183 119.188 89.7083C105.043 96.3944 85.6531 96.1431 76.8438 96.1431C76.8438 96.7118 76.8438 97.2802 76.8438 97.8489Z" fill="#FAFCFD"/>
<path d="M76.8438 96.1438C85.6531 96.1438 105.043 96.395 119.187 89.7089C119.449 89.2022 119.708 88.6924 119.96 88.179C105.071 95.1099 85.0292 94.4237 76.8438 94.4237C76.8438 94.9992 76.8438 95.5717 76.8438 96.1438V96.1438Z" fill="#ECF4F7"/>
<path d="M76.8438 94.4231C85.0292 94.4231 105.071 95.1092 119.96 88.1783C120.215 87.6647 120.463 87.1511 120.711 86.634C105.477 93.6754 84.7467 92.6939 76.8438 92.6939C76.8438 93.2729 76.8438 93.851 76.8438 94.4231V94.4231Z" fill="#D4E7ED"/>
<path d="M117.563 92.7349C117.87 92.2317 118.173 91.7286 118.47 91.2219C118.452 91.2219 118.405 91.2229 118.388 91.2362C118.115 91.7394 117.843 92.2417 117.563 92.7415V92.7349Z" fill="white"/>
<path d="M118.388 91.2291C118.405 91.2291 118.452 91.2148 118.47 91.2148C118.77 90.7081 119.063 90.2023 119.353 89.6887C119.29 89.6887 119.235 89.6884 119.187 89.7017C118.925 90.2117 118.656 90.7181 118.388 91.2213V91.2291Z" fill="#FAFCFD"/>
<path d="M119.188 89.7085C119.235 89.6951 119.29 89.6915 119.353 89.6955C119.642 89.1855 119.928 88.6759 120.211 88.159C120.107 88.1457 120.046 88.1585 119.96 88.1798C119.708 88.6933 119.449 89.2031 119.188 89.7098V89.7085Z" fill="#ECF4F7"/>
<path d="M119.96 88.1787C120.047 88.1547 120.108 88.1512 120.211 88.1579C120.494 87.6443 120.77 87.1275 121.042 86.6071C120.921 86.5938 120.811 86.6065 120.711 86.6345C120.463 87.1515 120.215 87.6651 119.96 88.1787V88.1787Z" fill="#D4E7ED"/>
<path d="M117.563 92.7349C117.884 92.5971 118.242 92.5151 118.614 92.4771C118.89 92.0119 119.166 91.5461 119.435 91.0774C119.083 91.0907 118.773 91.1079 118.47 91.2219C118.173 91.7286 117.87 92.2317 117.563 92.7349Z" fill="white"/>
<path d="M118.47 91.2216C118.773 91.1082 119.083 91.0911 119.435 91.0771C119.703 90.6117 119.969 90.1405 120.231 89.6682C119.918 89.6309 119.618 89.6369 119.353 89.6955C119.063 90.2091 118.77 90.7162 118.47 91.2229V91.2216Z" fill="#FAFCFD"/>
<path d="M119.353 89.6957C119.618 89.637 119.918 89.6297 120.231 89.6671C120.493 89.1949 120.752 88.7234 121.004 88.2478C120.728 88.1518 120.438 88.1513 120.211 88.158C119.928 88.6749 119.642 89.1857 119.353 89.6957V89.6957Z" fill="#ECF4F7"/>
<path d="M120.211 88.1575C120.438 88.1441 120.728 88.1446 121.004 88.2473C121.259 87.7682 121.507 87.2889 121.751 86.8098C121.493 86.6925 121.252 86.6239 121.042 86.6067C120.769 87.1271 120.493 87.6439 120.211 88.1575V88.1575Z" fill="#D4E7ED"/>
<path d="M118.614 92.476C119.889 92.3314 121.617 93.237 122.816 94.3432C123.054 94.071 123.288 93.7987 123.519 93.5229C122.351 92.2547 120.692 91.0383 119.435 91.0763C119.166 91.545 118.89 92.0108 118.614 92.476Z" fill="white"/>
<path d="M119.435 91.0771C120.692 91.0384 122.351 92.2554 123.519 93.5237C123.75 93.2479 123.974 92.9695 124.195 92.6903C123.099 91.067 121.451 89.8613 120.231 89.6682C119.969 90.1405 119.703 90.6117 119.435 91.0771Z" fill="#FAFCFD"/>
<path d="M120.231 89.6679C121.451 89.861 123.099 91.0667 124.195 92.69C124.419 92.4108 124.632 92.1284 124.842 91.8424C123.812 89.8676 122.182 88.6677 121.004 88.2473C120.752 88.7229 120.493 89.1958 120.231 89.6679Z" fill="#ECF4F7"/>
<path d="M121.004 88.2473C122.183 88.6677 123.812 89.8676 124.842 91.8424C125.056 91.5597 125.264 91.2738 125.464 90.9843C124.468 88.8474 122.909 87.3371 121.751 86.8098C121.507 87.2889 121.259 87.7682 121.004 88.2473V88.2473Z" fill="#D4E7ED"/>
<path d="M42.1481 117.672C49.6086 124.379 60.364 130.21 76.8434 130.21C76.8434 129.792 76.8434 129.364 76.8434 128.934C60.6369 128.934 48.3101 123.176 40.2939 115.923C40.889 116.512 41.5069 117.093 42.1481 117.672Z" fill="#C1DEE6"/>
<path d="M40.2943 115.923C48.3104 123.176 60.6372 128.934 76.8438 128.934C76.8438 128.503 76.8438 128.072 76.8438 127.638C61.2356 127.638 47.8234 122.604 38.5742 114.154C39.1266 114.745 39.6991 115.338 40.2943 115.923Z" fill="#DCECF0"/>
<path d="M38.5745 114.154C47.8237 122.604 61.2359 127.638 76.8441 127.638C76.8441 127.204 76.8441 126.769 76.8441 126.338C61.8377 126.338 47.4629 122.031 36.9873 112.384C37.4969 112.973 38.0255 113.562 38.5745 114.154Z" fill="#EFF6F8"/>
<path d="M36.9867 112.384C47.4623 122.031 61.837 126.339 76.8434 126.339C76.8434 125.908 76.8434 125.481 76.8434 125.06C62.1098 125.06 46.5506 120.826 35.5127 110.633C35.9862 111.212 36.4769 111.796 36.9867 112.384Z" fill="#FBFCFD"/>
<path d="M76.8438 130.21C93.3299 130.21 104.088 124.375 111.546 117.668C112.187 117.089 112.805 116.504 113.4 115.915C105.38 123.169 93.0603 128.934 76.8438 128.934C76.8438 129.364 76.8438 129.792 76.8438 130.21V130.21Z" fill="#C1DEE6"/>
<path d="M76.8438 128.934C93.0603 128.934 105.38 123.169 113.4 115.916C113.995 115.331 114.563 114.74 115.116 114.148C105.863 122.595 92.4619 127.635 76.8438 127.639C76.8438 128.073 76.8438 128.503 76.8438 128.934Z" fill="#DCECF0"/>
<path d="M76.8438 127.639C92.4619 127.639 105.863 122.595 115.116 114.148C115.665 113.556 116.195 112.967 116.704 112.378C106.216 122.022 91.8635 126.336 76.8438 126.339C76.8438 126.77 76.8438 127.204 76.8438 127.639Z" fill="#EFF6F8"/>
<path d="M76.8438 126.339C91.8635 126.339 106.216 122.022 116.704 112.378C117.214 111.789 117.704 111.204 118.174 110.625C107.123 120.812 91.5905 125.057 76.8438 125.06C76.8438 125.481 76.8438 125.908 76.8438 126.339V126.339Z" fill="#FBFCFD"/>
<path d="M35.513 110.633C46.5509 120.826 62.1102 125.06 76.8438 125.06C76.8438 123.771 76.8438 122.535 76.8438 121.44C60.7851 121.44 43.681 116.791 31.7422 105.703C32.8634 107.236 34.109 108.907 35.513 110.633Z" fill="white"/>
<path d="M76.8438 125.06C91.5905 125.06 107.123 120.812 118.174 110.625C119.582 108.896 120.824 107.223 121.945 105.688C110.003 116.772 92.9024 121.434 76.8438 121.44C76.8438 122.535 76.8438 123.771 76.8438 125.06V125.06Z" fill="white"/>
<path d="M31.7419 105.703C43.6807 116.79 60.7848 121.447 76.8434 121.44C76.8434 120.674 76.8434 119.99 76.8434 119.342C60.6237 119.342 43.2566 114.499 31.3408 103.021C31.4328 103.862 31.5609 104.743 31.7419 105.703Z" fill="white"/>
<path d="M76.8438 121.44C92.9024 121.44 110.003 116.771 121.945 105.687C122.126 104.734 122.255 103.859 122.35 103.021C110.431 114.496 93.0636 119.336 76.8438 119.342C76.8438 119.99 76.8438 120.674 76.8438 121.44Z" fill="white"/>
<path d="M31.3415 103.021C33.4064 105.01 35.639 106.801 37.9964 108.402C37.8419 107.1 37.7666 105.911 37.7008 104.642C35.3302 102.942 33.1038 101.037 31.085 98.9231C31.1316 100.304 31.1864 101.607 31.3415 103.021Z" fill="white"/>
<path d="M31.085 98.9237C33.1038 101.038 35.3302 102.943 37.7008 104.642C37.6315 103.37 37.5689 102.018 37.4378 100.394C35.0606 98.5986 32.847 96.5828 30.874 94.3469C30.9994 96.0797 31.039 97.5428 31.085 98.9237V98.9237Z" fill="#F7F7F7"/>
<path d="M37.9961 108.402C49.2445 116.034 63.4353 119.342 76.8437 119.342C76.8437 118.244 76.8434 117.261 76.8568 116.195C62.4026 116.195 48.2878 112.208 37.707 104.642C37.7724 105.911 37.8481 107.1 38.0026 108.402H37.9961Z" fill="white"/>
<path d="M37.7005 104.642C48.2813 112.208 62.3961 116.196 76.8503 116.196C76.8503 115.131 76.8503 113.986 76.8503 112.566C61.3505 112.566 47.3542 107.897 37.4375 100.394C37.5695 102.018 37.6315 103.37 37.7005 104.642Z" fill="#F7F7F7"/>
<path d="M76.8438 119.343C76.8438 118.245 76.8568 117.261 76.8568 116.196C76.8568 117.261 76.8571 118.245 76.8438 119.343Z" fill="white"/>
<path d="M76.8434 119.342C90.252 119.342 104.447 116.028 115.695 108.4C115.853 107.098 115.932 105.91 116.001 104.638C105.417 112.204 91.3041 116.192 76.8499 116.195C76.8499 117.261 76.8502 118.244 76.8369 119.342H76.8434Z" fill="white"/>
<path d="M76.8506 116.196C91.3047 116.196 105.417 112.204 116.002 104.639C116.074 103.369 116.137 102.018 116.265 100.394C106.348 107.897 92.3502 112.566 76.8506 112.566C76.8506 113.986 76.8506 115.131 76.8506 116.196V116.196Z" fill="#F7F7F7"/>
<path d="M115.695 108.4C118.053 106.798 120.285 105.01 122.35 103.021C122.508 101.61 122.564 100.308 122.613 98.927C120.594 101.038 118.369 102.941 116.001 104.638C115.932 105.91 115.853 107.098 115.695 108.4V108.4Z" fill="white"/>
<path d="M116.001 104.639C118.368 102.942 120.594 101.038 122.613 98.9277C122.662 97.5466 122.702 96.0831 122.823 94.3469C120.853 96.5828 118.638 98.5986 116.264 100.394C116.136 102.018 116.073 103.369 116.001 104.639Z" fill="#F7F7F7"/>
<defs>
<radialGradient id="paint0_radial" cx="0" cy="0" r="1" gradientUnits="userSpaceOnUse" gradientTransform="translate(76.4053 50.8905) scale(89.1064)">
<stop stop-color="#FFF081"/>
<stop offset="1" stop-color="#FD8C05"/>
</radialGradient>
<radialGradient id="paint1_radial" cx="0" cy="0" r="1" gradientUnits="userSpaceOnUse" gradientTransform="translate(76.4053 50.8906) scale(89.1064)">
<stop stop-color="#FFDA28"/>
<stop offset="1" stop-color="#FD7F02"/>
</radialGradient>
<linearGradient id="paint2_linear" x1="76.8494" y1="130.211" x2="76.8494" y2="86.6011" gradientUnits="userSpaceOnUse">
<stop stop-color="#781512"/>
<stop offset="1" stop-color="#380A08"/>
</linearGradient>
<radialGradient id="paint3_radial" cx="0" cy="0" r="1" gradientUnits="userSpaceOnUse" gradientTransform="translate(48.956 54.4333) scale(18.0471)">
<stop stop-color="#3C2415"/>
<stop offset="0.660514" stop-color="#3C2415"/>
<stop offset="1" stop-color="#24160D"/>
</radialGradient>
<radialGradient id="paint4_radial" cx="0" cy="0" r="1" gradientUnits="userSpaceOnUse" gradientTransform="translate(104.744 54.4333) rotate(180) scale(18.0471)">
<stop stop-color="#3C2415"/>
<stop offset="0.660514" stop-color="#3C2415"/>
<stop offset="1" stop-color="#24160D"/>
</radialGradient>
</defs>
</svg>
