<svg width="30" height="30" viewBox="0 0 30 30" fill="none" xmlns="http://www.w3.org/2000/svg">
<path d="M20.4546 0H5.4546C3.94839 0 2.72729 1.22104 2.72729 2.72725V27.2727C2.72729 28.7789 3.94833 29.9999 5.45454 29.9999H24.5454C26.0516 29.9999 27.2727 28.7789 27.2727 27.2727V7.5L20.4546 0ZM25.9092 27.2728C25.9092 28.0259 25.2986 28.6364 24.5455 28.6364H5.4546C4.70149 28.6364 4.09095 28.0259 4.09095 27.2728V2.72725C4.09095 1.97414 4.70149 1.36359 5.4546 1.36359H17.7274V8.1818C17.7274 8.9349 18.3378 9.54545 19.091 9.54545H25.9092V27.2728H25.9092ZM19.0909 8.1818V1.36365H19.7727L25.9091 8.18186H19.0909V8.1818Z" fill="#050505"/>
</svg>
