<svg width="25" height="25" viewBox="0 0 25 25" fill="none" xmlns="http://www.w3.org/2000/svg">
<g clip-path="url(#clip0_9605_2765)">
<path d="M13.5417 22.4458L14.6115 24.2083C14.6833 24.3264 14.7053 24.4682 14.6725 24.6025C14.6398 24.7369 14.5551 24.8527 14.437 24.9245C14.3189 24.9963 14.1771 25.0183 14.0428 24.9856C13.9085 24.9528 13.7927 24.8681 13.7208 24.75L12.651 22.9865C11.5295 23.5801 10.2799 23.8912 9.01093 23.8927C7.74191 23.8941 6.49169 23.5859 5.36875 22.9948L4.30208 24.75C4.23025 24.8681 4.11445 24.9528 3.98015 24.9856C3.84584 25.0183 3.70404 24.9963 3.58594 24.9245C3.46783 24.8527 3.3831 24.7369 3.35038 24.6025C3.31766 24.4682 3.33963 24.3264 3.41146 24.2083L4.47917 22.4531C3.54222 21.7947 2.75963 20.9404 2.18562 19.9495C1.6116 18.9585 1.25989 17.8547 1.15484 16.7143C1.04978 15.574 1.19391 14.4244 1.57722 13.3453C1.96054 12.2662 2.57388 11.2833 3.37476 10.4648C4.17564 9.64622 5.1449 9.01157 6.21539 8.6048C7.28589 8.19802 8.43202 8.02885 9.57439 8.10899C10.7168 8.18913 11.828 8.51668 12.8313 9.06893C13.8345 9.62119 14.7056 10.3849 15.3844 11.3073C15.4661 11.4186 15.5003 11.5579 15.4794 11.6944C15.4585 11.831 15.3843 11.9536 15.2729 12.0354C15.1616 12.1172 15.0223 12.1514 14.8858 12.1305C14.7492 12.1096 14.6266 12.0353 14.5448 11.924C13.6656 10.727 12.4219 9.84764 11.0003 9.41789C9.57869 8.98814 8.05605 9.03123 6.66104 9.54068C5.26603 10.0501 4.07398 10.9984 3.26391 12.2432C2.45384 13.4879 2.0695 14.9619 2.16861 16.4437C2.26772 17.9255 2.84493 19.3352 3.81354 20.4609C4.78216 21.5867 6.08989 22.3678 7.54032 22.687C8.99074 23.0061 10.5056 22.846 11.8572 22.2308C13.2089 21.6156 14.3245 20.5784 15.0365 19.275C15.1044 19.157 15.2159 19.0703 15.347 19.0335C15.4781 18.9967 15.6184 19.0127 15.7379 19.078C15.8573 19.1434 15.9464 19.253 15.9861 19.3833C16.0257 19.5135 16.0128 19.6542 15.95 19.775C15.3632 20.8386 14.5391 21.7525 13.5417 22.4458V22.4458ZM0.520833 10.9719C0.658967 10.9719 0.791443 10.917 0.889118 10.8193C0.986793 10.7217 1.04167 10.5892 1.04167 10.4511C1.04304 9.80658 1.29981 9.18893 1.75572 8.73342C2.21162 8.27791 2.82949 8.02167 3.47396 8.02084C3.61209 8.02084 3.74457 7.96597 3.84224 7.86829C3.93992 7.77062 3.99479 7.63814 3.99479 7.50001C3.99479 7.36187 3.93992 7.2294 3.84224 7.13172C3.74457 7.03405 3.61209 6.97918 3.47396 6.97918C2.55331 6.98028 1.67065 7.34635 1.01945 7.99715C0.368256 8.64796 0.0016537 9.5304 0 10.4511C0 10.5892 0.0548734 10.7217 0.152549 10.8193C0.250224 10.917 0.3827 10.9719 0.520833 10.9719ZM16.9792 10.4511C16.9792 10.5892 17.034 10.7217 17.1317 10.8193C17.2294 10.917 17.3619 10.9719 17.5 10.9719C17.6381 10.9719 17.7706 10.917 17.8683 10.8193C17.966 10.7217 18.0208 10.5892 18.0208 10.4511C18.0192 9.53058 17.6527 8.6483 17.0017 7.99752C16.3508 7.34675 15.4684 6.98055 14.5479 6.97918C14.4098 6.97918 14.2773 7.03405 14.1796 7.13172C14.082 7.2294 14.0271 7.36187 14.0271 7.50001C14.0271 7.63814 14.082 7.77062 14.1796 7.86829C14.2773 7.96597 14.4098 8.02084 14.5479 8.02084C15.1921 8.02222 15.8096 8.27866 16.2652 8.73409C16.7208 9.18951 16.9775 9.80685 16.9792 10.4511ZM9.01146 11.9229C8.87332 11.9229 8.74085 11.9778 8.64317 12.0755C8.5455 12.1731 8.49062 12.3056 8.49062 12.4438V15.9854C8.49055 16.0705 8.5113 16.1542 8.55107 16.2294C8.59084 16.3046 8.64841 16.3689 8.71875 16.4167L12.55 19.0208C12.6363 19.0788 12.7377 19.11 12.8417 19.1104C12.9532 19.1106 13.0618 19.0749 13.1515 19.0087C13.2413 18.9425 13.3074 18.8492 13.3402 18.7426C13.3729 18.6361 13.3706 18.5218 13.3336 18.4166C13.2965 18.3114 13.2267 18.2209 13.1344 18.1583L9.53229 15.7136V12.4438C9.53229 12.3056 9.47742 12.1731 9.37974 12.0755C9.28207 11.9778 9.14959 11.9229 9.01146 11.9229V11.9229ZM19.2708 16.6854C19.2708 16.5473 19.216 16.4148 19.1183 16.3171C19.0206 16.2195 18.8881 16.1646 18.75 16.1646H16.8823L18.6823 14.3646C18.7549 14.2918 18.8043 14.1991 18.8243 14.0982C18.8443 13.9973 18.834 13.8928 18.7947 13.7977C18.7554 13.7027 18.6888 13.6214 18.6033 13.5642C18.5179 13.5069 18.4174 13.4763 18.3146 13.4761H16.2792C16.141 13.4761 16.0086 13.5309 15.9109 13.6286C15.8132 13.7263 15.7583 13.8588 15.7583 13.9969C15.7583 14.135 15.8132 14.2675 15.9109 14.3652C16.0086 14.4628 16.141 14.5177 16.2792 14.5177H17.0573L15.2562 16.3167C15.1832 16.3895 15.1335 16.4824 15.1133 16.5836C15.0931 16.6847 15.1034 16.7896 15.1429 16.8849C15.1824 16.9801 15.2493 17.0616 15.3352 17.1188C15.421 17.176 15.5219 17.2064 15.625 17.2063H18.75C18.8881 17.2063 19.0206 17.1514 19.1183 17.0537C19.216 16.956 19.2708 16.8236 19.2708 16.6854ZM21.1094 0.321884C21.0698 0.226144 21.0026 0.14438 20.9163 0.0870437C20.83 0.0297077 20.7286 -0.000595173 20.625 8.85728e-06H18.5937C18.4556 8.85728e-06 18.3231 0.0548822 18.2255 0.152557C18.1278 0.250233 18.0729 0.382709 18.0729 0.520842C18.0729 0.658976 18.1278 0.791452 18.2255 0.889127C18.3231 0.986802 18.4556 1.04168 18.5937 1.04168H19.375L17.5708 2.84168C17.4982 2.91457 17.4487 3.00737 17.4288 3.10835C17.4088 3.20932 17.4192 3.31395 17.4586 3.40902C17.4981 3.50409 17.5648 3.58534 17.6504 3.64251C17.736 3.69967 17.8367 3.7302 17.9396 3.73022H21.0646C21.2027 3.73022 21.3352 3.67534 21.4329 3.57767C21.5305 3.47999 21.5854 3.34752 21.5854 3.20938C21.5854 3.07125 21.5305 2.93877 21.4329 2.8411C21.3352 2.74342 21.2027 2.68855 21.0646 2.68855H19.1969L20.9969 0.889592C21.0697 0.816698 21.1192 0.723854 21.1392 0.622802C21.1593 0.52175 21.1489 0.417029 21.1094 0.321884V0.321884ZM24.4792 10.9375H21.2927L24.25 7.98022C24.3227 7.90732 24.3721 7.81452 24.3921 7.71355C24.412 7.61257 24.4016 7.50794 24.3622 7.41287C24.3227 7.3178 24.256 7.23655 24.1704 7.17938C24.0848 7.12222 23.9842 7.0917 23.8812 7.09168H20.9708C20.8327 7.09168 20.7002 7.14655 20.6025 7.24422C20.5049 7.3419 20.45 7.47438 20.45 7.61251C20.45 7.75064 20.5049 7.88312 20.6025 7.98079C20.7002 8.07847 20.8327 8.13334 20.9708 8.13334H22.624L19.6667 11.0896C19.5936 11.1624 19.5439 11.2553 19.5237 11.3565C19.5035 11.4576 19.5139 11.5625 19.5533 11.6578C19.5928 11.7531 19.6597 11.8345 19.7456 11.8917C19.8314 11.9489 19.9323 11.9794 20.0354 11.9792H24.4792C24.6173 11.9792 24.7498 11.9243 24.8475 11.8266C24.9451 11.729 25 11.5965 25 11.4583C25 11.3202 24.9451 11.1877 24.8475 11.0901C24.7498 10.9924 24.6173 10.9375 24.4792 10.9375V10.9375Z" fill="#050505"/>
</g>
<defs>
<clipPath id="clip0_9605_2765">
<rect width="25" height="25" fill="white"/>
</clipPath>
</defs>
</svg>
