<svg width="18" height="12" viewBox="0 0 18 12" fill="none" xmlns="http://www.w3.org/2000/svg">
<path d="M17.7683 1.22034C17.6234 1.12226 17.4393 1.10243 17.2768 1.1674L12.3516 3.13749V1.65702C12.3516 0.743344 11.6082 0 10.6945 0H1.65705C0.743379 0 0 0.743344 0 1.65702V9.56486C0 10.4785 0.743379 11.2219 1.65705 11.2219H10.6945C11.6082 11.2219 12.3516 10.4785 12.3516 9.56486V8.0844L17.2768 10.0545C17.34 10.0798 17.4065 10.0922 17.4726 10.0922C17.5765 10.0922 17.6798 10.0615 17.7683 10.0015C17.9132 9.90342 18 9.73987 18 9.56486V1.65702C18 1.48205 17.9132 1.31847 17.7683 1.22034ZM11.2969 9.56486C11.2969 9.89698 11.0267 10.1672 10.6945 10.1672H1.65705C1.32493 10.1672 1.05469 9.89698 1.05469 9.56486V1.65702C1.05469 1.3249 1.32493 1.05469 1.65705 1.05469H10.6945C11.0267 1.05469 11.2969 1.3249 11.2969 1.65702V9.56486ZM16.9453 8.78597L12.3516 6.94846V4.27342L16.9453 2.43591V8.78597Z" fill="white"/>
</svg>
