<svg width="40" height="33" viewBox="0 0 40 33" fill="none" xmlns="http://www.w3.org/2000/svg">
<path d="M20.8935 0.544183L33.9621 31.7662C34.0313 31.9307 34.0495 32.112 34.0146 32.287C33.9796 32.4619 33.893 32.6223 33.7659 32.7475V32.7475C33.6253 32.8699 33.4499 32.9452 33.2643 32.9628C33.0786 32.9804 32.8922 32.9394 32.7311 32.8456L19.8944 25.4861L6.95061 32.6226C6.78583 32.715 6.59597 32.7527 6.4084 32.7302C6.22083 32.7078 6.04523 32.6264 5.9069 32.4977C5.78099 32.3698 5.6966 32.2068 5.66477 32.0302C5.63294 31.8535 5.65515 31.6714 5.72849 31.5075L19.2699 0.526342C19.3409 0.368441 19.4563 0.234602 19.602 0.141147C19.7477 0.0476926 19.9175 -0.00133986 20.0906 2.78517e-05C20.2627 0.00362577 20.43 0.0569113 20.5725 0.153462C20.7149 0.250012 20.8264 0.385706 20.8935 0.544183V0.544183Z" fill="#0068FF"/>
<path d="M28.9221 21.2488V21.4183C30.8133 21.124 32.5796 20.8117 33.873 20.5263C32.5974 20.8028 30.8311 21.008 28.9221 21.2488Z" fill="#0068FF"/>
<path d="M10.1888 20.8028C10.055 20.8028 9.9212 20.8028 9.79631 20.7225C8.10259 20.3802 6.44274 19.8876 4.83647 19.2506C4.06236 18.9396 3.32613 18.5416 2.64201 18.0642C2.33501 17.8916 2.0651 17.6602 1.84773 17.3831C1.63036 17.106 1.46981 16.7888 1.37528 16.4496C1.295 15.9232 1.72319 15.3612 2.33871 14.8974C2.99762 14.4266 3.71798 14.0484 4.47965 13.7734C6.07652 13.1919 7.72544 12.7647 9.40381 12.4977V12.4977C9.62328 12.4362 9.81088 12.2931 9.92812 12.0976C10.0454 11.9022 10.0833 11.6692 10.0343 11.4467C9.98517 11.2241 9.85276 11.0288 9.66419 10.9007C9.47562 10.7727 9.2452 10.7217 9.02022 10.7582C7.24553 11.1154 5.50975 11.6442 3.83737 12.3372C2.95967 12.7052 2.13474 13.1882 1.38421 13.7734C0.982357 14.0974 0.641077 14.49 0.376179 14.9331C0.0622585 15.4485 -0.0608596 16.0578 0.0282761 16.6547C0.141259 17.2075 0.407055 17.7174 0.795447 18.1266C1.13182 18.4856 1.51252 18.8004 1.92836 19.0633C2.70473 19.5632 3.53706 19.9704 4.40828 20.2765C6.09541 20.8747 7.83304 21.3196 9.60006 21.6057L10.1888 21.6949V20.8028Z" fill="#0068FF"/>
<path d="M15.2021 10.8742C13.418 11.0169 11.732 11.1953 10.5544 11.347C11.7409 11.2578 13.4358 11.1507 15.2021 11.0705V10.8742Z" fill="#0068FF"/>
<path d="M39.9836 16.3425C39.9323 15.8795 39.7634 15.4373 39.493 15.058C39.0124 14.4271 38.4045 13.9043 37.7088 13.5236C35.1968 12.2507 32.4782 11.4351 29.6803 11.1151C28.146 10.8831 26.5938 10.7315 25.0505 10.6334V11.2846C26.5581 11.4541 28.0479 11.686 29.5108 11.9893C32.1391 12.4408 34.6686 13.3464 36.9863 14.6655C37.4829 14.9737 37.911 15.3805 38.2441 15.8608C38.367 16.0321 38.4374 16.2355 38.4469 16.4461C38.4564 16.6567 38.4046 16.8656 38.2976 17.0473C38.0043 17.4926 37.61 17.8624 37.1468 18.1267C36.6051 18.4516 36.0348 18.7263 35.443 18.9473V18.9473C35.2421 19.0532 35.0892 19.2317 35.0153 19.4464C34.9415 19.6611 34.9523 19.8959 35.0456 20.103C35.1389 20.31 35.3076 20.4737 35.5173 20.5606C35.7271 20.6475 35.9621 20.6512 36.1745 20.5709C36.8507 20.2767 37.4987 19.9214 38.1103 19.5093C38.8046 19.0636 39.3752 18.45 39.7695 17.7252C39.9622 17.2915 40.0361 16.8143 39.9836 16.3425Z" fill="#0068FF"/>
<path d="M9.88565 10.1605C10.3171 10.5979 10.559 11.1876 10.559 11.8019C10.559 12.4163 10.3171 13.006 9.88565 13.4433C9.61412 13.7135 9.28012 13.9126 8.91326 14.0228C8.54639 14.133 8.158 14.151 7.78251 14.0752C7.40703 13.9994 7.05604 13.8321 6.76069 13.5882C6.46533 13.3442 6.23472 13.0312 6.08931 12.6768C5.9439 12.3224 5.88817 11.9376 5.92708 11.5565C5.96598 11.1755 6.09831 10.8099 6.31234 10.4922C6.52636 10.1745 6.81547 9.91447 7.15402 9.73525C7.49258 9.55603 7.87012 9.46312 8.25318 9.46474C8.55811 9.46491 8.85986 9.52662 9.14037 9.64618C9.42087 9.76574 9.67436 9.94069 9.88565 10.1605V10.1605Z" fill="#0068FF"/>
<path d="M38.6454 19.7323C38.6384 20.3799 38.3756 20.9983 37.9144 21.4529C37.4531 21.9074 36.8309 22.1611 36.1834 22.1587C35.6974 22.157 35.223 22.0109 34.8202 21.739C34.4174 21.4672 34.1044 21.0819 33.9209 20.6319C33.7374 20.1819 33.6917 19.6876 33.7895 19.2116C33.8874 18.7356 34.1244 18.2994 34.4705 17.9583C34.8166 17.6172 35.2562 17.3866 35.7336 17.2957C36.2109 17.2048 36.7045 17.2578 37.1518 17.4478C37.599 17.6379 37.9798 17.9564 38.2457 18.3632C38.5116 18.7699 38.6507 19.2464 38.6454 19.7323V19.7323Z" fill="#0068FF"/>
</svg>
