<svg width="27" height="25" viewBox="0 0 27 25" fill="none" xmlns="http://www.w3.org/2000/svg">
<path d="M2.41406 8.1947V21.21C2.41406 21.9771 2.71879 22.7128 3.2612 23.2552C3.80361 23.7976 4.53927 24.1023 5.30635 24.1023H21.696C22.4631 24.1023 23.1988 23.7976 23.7412 23.2552C24.2836 22.7128 24.5883 21.9771 24.5883 21.21V8.1947H2.41406Z" fill="#9BC9FF"/>
<path d="M24.5883 8.1947V21.21C24.5883 21.9771 24.2836 22.7128 23.7412 23.2552C23.1988 23.7976 22.4631 24.1023 21.696 24.1023H13.5012V8.1947H24.5883Z" fill="url(#paint0_linear_4968_17)"/>
<path d="M18.3219 12.5332H8.68089C8.4252 12.5332 8.17998 12.6348 7.99917 12.8156C7.81837 12.9964 7.7168 13.2416 7.7168 13.4973V17.8357C7.7168 18.0914 7.81837 18.3367 7.99917 18.5175C8.17998 18.6983 8.4252 18.7998 8.68089 18.7998H18.3219C18.5776 18.7998 18.8228 18.6983 19.0036 18.5175C19.1844 18.3367 19.286 18.0914 19.286 17.8357V13.4973C19.286 13.2416 19.1844 12.9964 19.0036 12.8156C18.8228 12.6348 18.5776 12.5332 18.3219 12.5332Z" fill="#0064F4"/>
<path d="M26.8684 8.19484C26.7839 8.34125 26.6623 8.46286 26.5159 8.54747C26.3696 8.63208 26.2035 8.67671 26.0345 8.67688H0.967933C0.798374 8.67756 0.631636 8.6335 0.484541 8.54916C0.337445 8.46482 0.215195 8.34317 0.130123 8.1965C0.0450515 8.04982 0.000167986 7.88331 4.70624e-07 7.71375C-0.000167045 7.54419 0.0443876 7.37758 0.129169 7.23074L3.98556 0.482056C4.0705 0.334931 4.19281 0.212862 4.3401 0.128212C4.48739 0.0435606 4.65444 -0.000666851 4.82432 7.59987e-06H22.1781C22.348 -0.000666851 22.515 0.0435606 22.6623 0.128212C22.8096 0.212862 22.9319 0.334931 23.0168 0.482056L26.8732 7.23074C26.9571 7.37772 27.0008 7.5442 27 7.71343C26.9991 7.88267 26.9538 8.0487 26.8684 8.19484V8.19484Z" fill="#0064F4"/>
<path d="M26.8684 8.19484C26.7839 8.34125 26.6624 8.46286 26.516 8.54747C26.3696 8.63208 26.2036 8.67671 26.0345 8.67688H13.5012V7.59987e-06H22.1781C22.348 -0.000666851 22.515 0.0435606 22.6623 0.128212C22.8096 0.212862 22.9319 0.334931 23.0169 0.482056L26.8733 7.23074C26.9571 7.37772 27.0009 7.5442 27 7.71343C26.9992 7.88267 26.9538 8.0487 26.8684 8.19484V8.19484Z" fill="url(#paint1_linear_4968_17)"/>
<path d="M19.2858 13.4973V17.8357C19.2858 18.0914 19.1842 18.3367 19.0034 18.5175C18.8226 18.6983 18.5774 18.7998 18.3217 18.7998H13.5012V12.5332H18.3217C18.5774 12.5332 18.8226 12.6348 19.0034 12.8156C19.1842 12.9964 19.2858 13.2416 19.2858 13.4973Z" fill="url(#paint2_linear_4968_17)"/>
<defs>
<linearGradient id="paint0_linear_4968_17" x1="24.7667" y1="16.1485" x2="13.4964" y2="16.1485" gradientUnits="userSpaceOnUse">
<stop stop-color="#57A4FF"/>
<stop offset="1" stop-color="#25B8F2"/>
</linearGradient>
<linearGradient id="paint1_linear_4968_17" x1="27.1191" y1="4.33845" x2="13.5735" y2="4.33845" gradientUnits="userSpaceOnUse">
<stop stop-color="#005ECE"/>
<stop offset="0.81" stop-color="#2B39C5"/>
</linearGradient>
<linearGradient id="paint2_linear_4968_17" x1="269.18" y1="260.065" x2="198.608" y2="260.065" gradientUnits="userSpaceOnUse">
<stop stop-color="#003F8A"/>
<stop offset="0.81" stop-color="#2B39C5"/>
</linearGradient>
</defs>
</svg>
