<svg width="30" height="30" viewBox="0 0 30 30" fill="none" xmlns="http://www.w3.org/2000/svg">
<path d="M15 30C23.2843 30 30 23.2843 30 15C30 6.71573 23.2843 0 15 0C6.71573 0 0 6.71573 0 15C0 23.2843 6.71573 30 15 30Z" fill="url(#paint0_linear_6716_7)"/>
<path d="M23.7683 10.2203C23.6234 10.1223 23.4393 10.1024 23.2768 10.1674L18.3516 12.1375V10.657C18.3516 9.74334 17.6082 9 16.6945 9H7.65705C6.74338 9 6 9.74334 6 10.657V18.5649C6 19.4785 6.74338 20.2219 7.65705 20.2219H16.6945C17.6082 20.2219 18.3516 19.4785 18.3516 18.5649V17.0844L23.2768 19.0545C23.34 19.0798 23.4065 19.0922 23.4726 19.0922C23.5765 19.0922 23.6798 19.0615 23.7683 19.0015C23.9132 18.9034 24 18.7399 24 18.5649V10.657C24 10.482 23.9132 10.3185 23.7683 10.2203ZM17.2969 18.5649C17.2969 18.897 17.0267 19.1672 16.6945 19.1672H7.65705C7.32493 19.1672 7.05469 18.897 7.05469 18.5649V10.657C7.05469 10.3249 7.32493 10.0547 7.65705 10.0547H16.6945C17.0267 10.0547 17.2969 10.3249 17.2969 10.657V18.5649ZM22.9453 17.786L18.3516 15.9485V13.2734L22.9453 11.4359V17.786Z" fill="white"/>
<defs>
<linearGradient id="paint0_linear_6716_7" x1="15" y1="0" x2="15" y2="30" gradientUnits="userSpaceOnUse">
<stop stop-color="#3495FF"/>
<stop offset="1" stop-color="#82BFF9"/>
</linearGradient>
</defs>
</svg>
