<svg id="Capa_1" enable-background="new 0 0 510 510" height="512" viewBox="0 0 510 510" width="512" xmlns="http://www.w3.org/2000/svg" xmlns:xlink="http://www.w3.org/1999/xlink"><linearGradient id="lg1"><stop offset="0" stop-color="#f8f6fb"/><stop offset="1" stop-color="#efdcfb"/></linearGradient><linearGradient id="SVGID_1_" gradientTransform="matrix(.707 .707 -.707 .707 595.376 -846.083)" gradientUnits="userSpaceOnUse" x1="412.736" x2="725.697" xlink:href="#lg1" y1="901.268" y2="1214.229"/><linearGradient id="SVGID_2_" gradientTransform="matrix(.707 .707 -.707 .707 595.376 -846.083)" gradientUnits="userSpaceOnUse" x1="581.443" x2="726.516" y1="1137.313" y2="1282.386"><stop offset="0" stop-color="#efdcfb" stop-opacity="0"/><stop offset=".4856" stop-color="#baaad6" stop-opacity=".486"/><stop offset="1" stop-color="#8679b2"/></linearGradient><linearGradient id="lg2"><stop offset="0" stop-color="#ff819c"/><stop offset=".2594" stop-color="#ff7e9a"/><stop offset=".4757" stop-color="#fe7396"/><stop offset=".6765" stop-color="#fc628e"/><stop offset=".8668" stop-color="#fa4a83"/><stop offset="1" stop-color="#f83479"/></linearGradient><linearGradient id="SVGID_3_" gradientTransform="matrix(-.707 -.707 -.707 .707 2460.515 1019.056)" gradientUnits="userSpaceOnUse" x1="2133.113" x2="2187.517" xlink:href="#lg2" y1="1186.614" y2="1307.512"/><linearGradient id="SVGID_4_" gradientTransform="matrix(-.911 -.413 -.413 .911 3718.018 1724.295)" gradientUnits="userSpaceOnUse" x1="3866.655" x2="3886.545" xlink:href="#lg2" y1="74.784" y2="163.582"/><linearGradient id="SVGID_5_" gradientUnits="userSpaceOnUse" x1="244.282" x2="279.416" xlink:href="#lg2" y1="174.563" y2="218.431"/><linearGradient id="lg3"><stop offset="0" stop-color="#fff" stop-opacity="0"/><stop offset="1" stop-color="#fff"/></linearGradient><linearGradient id="SVGID_6_" gradientUnits="userSpaceOnUse" x1="263.165" x2="187.677" xlink:href="#lg3" y1="209.608" y2="33.696"/><linearGradient id="lg4"><stop offset="0" stop-color="#f82814" stop-opacity="0"/><stop offset="1" stop-color="#c0272d"/></linearGradient><linearGradient id="SVGID_7_" gradientUnits="userSpaceOnUse" x1="262.688" x2="281.801" xlink:href="#lg4" y1="206.958" y2="262.87"/><linearGradient id="SVGID_8_" gradientUnits="userSpaceOnUse" x1="260.884" x2="214.639" xlink:href="#lg4" y1="187.338" y2="140.186"/><linearGradient id="SVGID_9_" gradientTransform="matrix(.707 .707 -.707 .707 595.376 -846.083)" gradientUnits="userSpaceOnUse" x1="568.525" x2="612.972" xlink:href="#lg2" y1="946.398" y2="990.844"/><linearGradient id="SVGID_10_" gradientTransform="matrix(.707 .707 -.707 .707 595.376 -846.083)" gradientUnits="userSpaceOnUse" x1="583.413" x2="531.968" xlink:href="#lg3" y1="961.285" y2="909.84"/><linearGradient id="SVGID_11_" gradientTransform="matrix(.707 .707 -.707 .707 595.376 -846.083)" gradientUnits="userSpaceOnUse" x1="508.251" x2="541.839" xlink:href="#lg2" y1="855.209" y2="888.797"/><linearGradient id="SVGID_12_" gradientTransform="matrix(.707 .707 -.707 .707 595.376 -846.083)" gradientUnits="userSpaceOnUse" x1="519.501" x2="480.625" xlink:href="#lg3" y1="866.46" y2="827.583"/><linearGradient id="SVGID_13_" gradientTransform="matrix(.707 .707 -.707 .707 595.376 -846.083)" gradientUnits="userSpaceOnUse" x1="557.078" x2="305.46" xlink:href="#lg3" y1="1112.948" y2="861.33"/><linearGradient id="SVGID_14_" gradientTransform="matrix(.707 .707 -.707 .707 595.376 -846.083)" gradientUnits="userSpaceOnUse" x1="521.702" x2="448.846" xlink:href="#lg3" y1="833.305" y2="780.94"/><linearGradient id="SVGID_15_" gradientTransform="matrix(.707 .707 -.707 .707 595.376 -846.083)" gradientUnits="userSpaceOnUse" x1="538.553" x2="538.553" xlink:href="#lg1" y1="739.229" y2="777.105"/><g><path d="m413.077 197.526 86.548-86.548-101.526-101.526-86.545 86.545c-14.848 14.848-36.487 20.774-56.772 15.347-67.484-18.054-142.481-.633-195.45 52.281-78.348 78.268-78.86 206.29-1.109 285.152 78.922 80.05 207.798 80.397 287.154 1.042 52.917-52.917 70.382-127.85 52.414-195.31-5.426-20.366.382-42.079 15.286-56.983z" fill="url(#SVGID_1_)"/><circle cx="202.317" cy="306.76" fill="url(#SVGID_2_)" r="202.317"/><g><path d="m62.672 188.444c-26.997 31.833-43.269 73.043-43.269 118.047-.009 100.871 81.765 182.646 182.636 182.636 76.354.007 141.761-46.841 169.043-113.367 13.326-32.493-.105-69.959-31.102-86.469-.164-.088-.329-.175-.493-.262-59.033-31.325-118.13-26.351-118.38-26.341l-149.583-82.966z" fill="url(#SVGID_3_)"/><path d="m221.116 262.692s-45.1 12.548-86.851-9.606-70.557-53.772-64.341-70.621 45.1-12.549 86.851 9.605c41.751 22.155 64.341 70.622 64.341 70.622z" fill="url(#SVGID_4_)"/></g><g><g><path d="m252.573 237.833c-1.824 0-3.651-.432-5.284-1.249-4.934-2.469-14.569-7.764-23.658-15.483-11.824-10.041-18.832-20.819-20.83-32.035-1.552-8.712.664-17.606 6.079-24.402 5.016-6.293 12.123-9.971 20.013-10.355.464-.023.934-.034 1.397-.034 7.392 0 14.37 2.849 19.649 8.022.954.934 1.833 1.926 2.633 2.966.801-1.041 1.68-2.032 2.634-2.967 5.279-5.173 12.257-8.021 19.649-8.021.463 0 .933.011 1.397.034 7.89.385 14.997 4.062 20.013 10.356 5.416 6.795 7.631 15.689 6.079 24.401-1.998 11.215-9.006 21.993-20.829 32.034-9.089 7.719-18.723 13.014-23.658 15.483-1.633.818-3.46 1.25-5.284 1.25z" fill="url(#SVGID_5_)"/><path d="m252.573 231.674c-1.306 0-2.615-.299-3.785-.864-4.573-2.209-13.5-6.943-21.906-13.833-10.723-8.789-17.063-18.139-18.845-27.79-1.335-7.231.566-14.606 5.214-20.235 4.261-5.16 10.291-8.175 16.98-8.49.396-.019.797-.028 1.192-.028 6.293 0 12.233 2.341 16.727 6.59.807.763 1.562 1.584 2.245 2.441l2.179 2.732 2.179-2.732c.684-.857 1.439-1.679 2.246-2.441 4.493-4.25 10.434-6.59 16.727-6.59.395 0 .796.009 1.192.028 6.689.315 12.719 3.33 16.98 8.49 4.648 5.629 6.548 13.004 5.214 20.235-1.781 9.651-8.121 19.001-18.844 27.79-8.407 6.891-17.334 11.625-21.906 13.833-1.173.566-2.482.864-3.789.864z" fill="url(#SVGID_6_)"/><path d="m296.265 164.666c-1.88-2.359-4.054-4.35-6.453-5.939 4.379 6.503 6.077 14.564 4.668 22.476-1.998 11.215-9.006 21.993-20.829 32.034-9.089 7.719-18.723 13.014-23.658 15.483-1.633.817-3.46 1.249-5.284 1.249s-3.651-.432-5.284-1.249c-4.934-2.469-14.569-7.764-23.658-15.483-.389-.331-.773-.662-1.152-.995 2.603 3.009 5.608 5.965 9.016 8.859 9.089 7.719 18.724 13.014 23.658 15.483 1.633.817 3.46 1.249 5.284 1.249s3.651-.432 5.284-1.249c4.935-2.469 14.569-7.764 23.658-15.483 11.824-10.041 18.832-20.819 20.829-32.034 1.553-8.712-.663-17.606-6.079-24.401z" fill="url(#SVGID_7_)"/><path d="m276.253 154.31c-.464-.023-.934-.034-1.397-.034-7.392 0-14.371 2.849-19.649 8.021-.953.934-1.832 1.926-2.633 2.966v72.569c1.824 0 3.651-.432 5.284-1.249 4.934-2.469 14.569-7.764 23.658-15.483 11.824-10.041 18.832-20.819 20.83-32.034 1.552-8.712-.663-17.606-6.079-24.401-5.017-6.293-12.125-9.971-20.014-10.355z" fill="url(#SVGID_8_)"/></g><g><circle cx="328.18" cy="245.957" fill="url(#SVGID_9_)" r="28.927"/><circle cx="328.18" cy="245.957" fill="url(#SVGID_10_)" r="24.192"/></g><g><circle cx="350.04" cy="133.769" fill="url(#SVGID_11_)" r="21.86"/><circle cx="350.04" cy="133.769" fill="url(#SVGID_12_)" r="18.281"/></g></g><circle cx="202.317" cy="306.76" fill="url(#SVGID_13_)" r="182.645"/><path d="m345.913 240.188-77.024-77.024 141.461-141.461 77.024 77.024z" fill="url(#SVGID_14_)"/><path d="m477.743 128.181-95-95c-4.86-4.86-4.86-12.741 0-17.601l11.011-11.011c4.86-4.86 12.741-4.86 17.601 0l95.001 95.001c4.86 4.86 4.86 12.741 0 17.601l-11.011 11.011c-4.861 4.859-12.742 4.859-17.602-.001z" fill="url(#SVGID_15_)"/></g></svg>