<svg id="Capa_1" enable-background="new 0 0 510 510" height="512" viewBox="0 0 510 510" width="512" xmlns="http://www.w3.org/2000/svg" xmlns:xlink="http://www.w3.org/1999/xlink"><linearGradient id="lg1"><stop offset="0" stop-color="#ffd945"/><stop offset=".4169" stop-color="#ffd744"/><stop offset=".6278" stop-color="#ffcf3f"/><stop offset=".7926" stop-color="#ffc237"/><stop offset=".9326" stop-color="#ffaf2c"/><stop offset="1" stop-color="#ffa325"/></linearGradient><radialGradient id="SVGID_1_" cx="98.737" cy="102.138" gradientTransform="matrix(1.181 0 0 .895 50.95 75.115)" gradientUnits="userSpaceOnUse" r="267.532" xlink:href="#lg1"/><radialGradient id="SVGID_2_" cx="4395.221" cy="-4668.712" gradientTransform="matrix(.117 0 0 .12 -107.284 622.878)" gradientUnits="userSpaceOnUse" r="258.363" xlink:href="#lg1"/><linearGradient id="SVGID_3_" gradientUnits="userSpaceOnUse" x1="228.322" x2="365.255" y1="263.408" y2="434.381"><stop offset="0" stop-color="#ff7044"/><stop offset="1" stop-color="#f82814"/></linearGradient><linearGradient id="SVGID_4_" gradientUnits="userSpaceOnUse" x1="301.915" x2="7.706" y1="399.996" y2="-285.607"><stop offset="0" stop-color="#fff" stop-opacity="0"/><stop offset="1" stop-color="#fff"/></linearGradient><linearGradient id="lg2"><stop offset="0" stop-color="#f82814" stop-opacity="0"/><stop offset="1" stop-color="#c0272d"/></linearGradient><linearGradient id="SVGID_5_" gradientUnits="userSpaceOnUse" x1="306.964" x2="363.666" xlink:href="#lg2" y1="388.906" y2="510.092"/><linearGradient id="SVGID_6_" gradientUnits="userSpaceOnUse" x1="293.025" x2="112.789" xlink:href="#lg2" y1="313.199" y2="129.429"/><linearGradient id="lg3"><stop offset="0" stop-color="#f35227" stop-opacity="0"/><stop offset="1" stop-color="#f35227"/></linearGradient><linearGradient id="SVGID_7_" gradientUnits="userSpaceOnUse" x1="256.167" x2="415.154" xlink:href="#lg3" y1="253.105" y2="354.279"/><linearGradient id="SVGID_8_" gradientUnits="userSpaceOnUse" x1="277.384" x2="142.052" y1="293.048" y2="100.925"><stop offset="0" stop-color="#ffd945" stop-opacity="0"/><stop offset="1" stop-color="#fbed21"/></linearGradient><linearGradient id="SVGID_9_" gradientUnits="userSpaceOnUse" x1="174.129" x2="351.65" xlink:href="#lg3" y1="249.588" y2="320.185"/><radialGradient id="SVGID_10_" cx="82.736" cy="-28.078" gradientTransform="matrix(1 0 0 .771 0 154.455)" gradientUnits="userSpaceOnUse" r="37.12" xlink:href="#lg1"/><radialGradient id="SVGID_11_" cx="384.833" cy="35.373" gradientUnits="userSpaceOnUse" r="13.764" xlink:href="#lg1"/><g><path d="m379.072 71.083c-3.522 4.196-7.935 9.847-12.695 16.877-2.326 3.435-8.718 3.583-11.306.257-29.021-37.289-63.766-88.217-101.113-88.217-59.501 0-112.406 91.61-146.058 162.755-4.563 9.647-22.765 9.592-26.952-.152-.064-.148-.127-.297-.189-.446-1.786-4.267-9.889-4.06-11.424.262-13.91 39.165-37.796 135.425 28.616 209.251 32.558 39.343 90.236 65.518 156.007 65.518 52.411 0 99.669-16.637 133.195-43.292 15.143-13.837 69.351-52.685 69.351-137.12 0-109.024-63.938-138.518-69.192-184.196-.371-3.231-5.943-4.233-8.24-1.497z" fill="url(#SVGID_1_)"/><path d="m424.036 50.115c-.348.562-.784 1.319-1.255 2.261-.23.46-.862.48-1.118.034-2.869-4.996-6.303-11.818-9.995-11.818-5.882 0-11.654 11.958-14.438 21.804-7.016 24.816 7.936 36.766 14.438 36.766 5.181 0 9.852-2.229 13.166-5.8 1.497-1.854 6.855-7.058 6.855-18.37 0-14.606-6.32-18.557-6.84-24.677-.036-.432-.586-.566-.813-.2z" fill="url(#SVGID_2_)"/><g><path d="m260.635 510c-7.11 0-14.231-1.683-20.594-4.868-19.23-9.624-56.781-30.26-92.204-60.343-46.081-39.135-73.395-81.141-81.182-124.852-6.049-33.956 2.587-68.619 23.694-95.103 19.548-24.527 47.248-38.86 77.997-40.359 1.808-.088 3.64-.133 5.444-.133 28.81 0 56.006 11.103 76.581 31.264 3.716 3.642 7.143 7.506 10.264 11.562 3.122-4.056 6.548-7.921 10.265-11.563 20.573-20.16 47.771-31.262 76.582-31.262 1.804 0 3.636.045 5.444.133 30.75 1.499 58.45 15.832 77.998 40.36 21.107 26.483 29.742 61.147 23.692 95.102-7.786 43.71-35.1 85.717-81.181 124.851-35.422 30.082-72.973 50.719-92.204 60.343-6.365 3.185-13.487 4.868-20.596 4.868z" fill="url(#SVGID_3_)"/><path d="m260.635 485.997c-5.092 0-10.193-1.164-14.752-3.366-17.823-8.609-52.617-27.061-85.379-53.915-41.791-34.254-66.501-70.694-73.445-108.308-5.202-28.181 2.206-56.926 20.321-78.865 16.608-20.111 40.11-31.862 66.177-33.088 1.542-.073 3.106-.11 4.645-.11 24.525 0 47.676 9.122 65.19 25.686 3.146 2.975 6.089 6.175 8.75 9.512l8.491 10.649 8.492-10.648c2.665-3.341 5.61-6.542 8.752-9.515 17.513-16.562 40.664-25.684 65.191-25.684 1.539 0 3.103.037 4.645.11 26.068 1.226 49.57 12.978 66.178 33.09 18.115 21.938 25.522 50.682 20.319 78.863-6.943 37.614-31.653 74.054-73.444 108.308-32.765 26.857-67.556 45.307-85.379 53.915-4.558 2.202-9.659 3.366-14.752 3.366z" fill="url(#SVGID_4_)"/><path d="m430.923 224.836c-7.327-9.194-15.8-16.955-25.15-23.146 17.068 25.347 23.686 56.764 18.192 87.598-7.786 43.71-35.1 85.717-81.181 124.851-35.422 30.082-72.973 50.719-92.204 60.343-6.363 3.185-13.485 4.868-20.594 4.868s-14.231-1.683-20.594-4.868c-19.23-9.624-56.781-30.26-92.204-60.343-1.518-1.289-3.012-2.581-4.489-3.876 10.145 11.728 21.857 23.247 35.138 34.526 35.423 30.083 72.975 50.72 92.204 60.343 6.363 3.184 13.485 4.868 20.594 4.868 7.11 0 14.231-1.683 20.594-4.868 19.232-9.624 56.782-30.261 92.204-60.343 46.081-39.135 73.395-81.142 81.181-124.851 6.051-33.955-2.584-68.619-23.691-95.102z" fill="url(#SVGID_5_)"/><path d="m352.924 184.476c-1.808-.088-3.64-.133-5.444-.133-28.811 0-56.009 11.102-76.582 31.262-3.716 3.642-7.142 7.506-10.264 11.562v282.833c7.109 0 14.231-1.683 20.594-4.868 19.232-9.624 56.782-30.261 92.204-60.343 46.081-39.135 73.395-81.141 81.181-124.851 6.05-33.955-2.585-68.619-23.692-95.102-19.546-24.529-47.247-38.862-77.997-40.36z" fill="url(#SVGID_6_)"/></g><path d="m456.504 256.776c0-109.024-63.938-138.518-69.192-184.196-.372-3.231-5.943-4.234-8.24-1.497-3.522 4.196-7.935 9.847-12.695 16.877-2.326 3.435-8.718 3.583-11.306.257-29.021-37.289-63.766-88.217-101.113-88.217-59.501 0-112.406 91.61-146.058 162.755-4.563 9.647-22.765 9.592-26.952-.152-.064-.148-.127-.297-.189-.446-1.786-4.267-9.889-4.06-11.424.263-11.011 31.006-28.265 97.794-2.028 160.908 8.57 42.493 35.642 83.34 80.53 121.462 35.423 30.083 72.975 50.72 92.204 60.343 6.363 3.184 13.485 4.868 20.594 4.868 7.11 0 14.231-1.683 20.594-4.868 19.232-9.624 56.782-30.261 92.204-60.343 46.081-39.135 73.395-81.142 81.181-124.851 2.382-13.368 2.478-26.845.442-39.89.934-7.345 1.448-15.092 1.448-23.273z" fill="url(#SVGID_7_)"/><g><path d="m372.926 287.09c0 57.592-52.74 104.279-117.799 104.279s-117.798-46.687-117.798-104.279c0-57.591 52.74-204.014 117.799-204.014s117.798 146.423 117.798 204.014z" fill="url(#SVGID_8_)"/><path d="m340.692 315.625c0 41.832-38.308 75.744-85.564 75.744s-85.564-33.912-85.564-75.744 38.308-148.187 85.564-148.187 85.564 106.355 85.564 148.187z" fill="url(#SVGID_9_)"/></g><path d="m107.734 144.859c0 8.28-5.677 14.992-12.68 14.992s-12.68-6.712-12.68-14.992 5.677-29.331 12.68-29.331 12.68 21.051 12.68 29.331z" fill="url(#SVGID_10_)"/><circle cx="389.418" cy="37.887" fill="url(#SVGID_11_)" r="10.562"/></g></svg>