<svg id="Capa_1" enable-background="new 0 0 510 510" height="512" viewBox="0 0 510 510" width="512" xmlns="http://www.w3.org/2000/svg" xmlns:xlink="http://www.w3.org/1999/xlink"><linearGradient id="lg1"><stop offset="0" stop-color="#ff819c"/><stop offset=".2594" stop-color="#ff7e9a"/><stop offset=".4757" stop-color="#fe7396"/><stop offset=".6765" stop-color="#fc628e"/><stop offset=".8668" stop-color="#fa4a83"/><stop offset="1" stop-color="#f83479"/></linearGradient><linearGradient id="SVGID_1_" gradientTransform="matrix(-.848 .53 .53 .848 -1898.318 506.542)" gradientUnits="userSpaceOnUse" x1="-2018.13" x2="-1878.924" xlink:href="#lg1" y1="1032.588" y2="1213.669"/><linearGradient id="lg2"><stop offset="0" stop-color="#f82814" stop-opacity="0"/><stop offset="1" stop-color="#c0272d"/></linearGradient><linearGradient id="SVGID_2_" gradientUnits="userSpaceOnUse" x1="315.528" x2="194.389" xlink:href="#lg2" y1="388.259" y2="246.052"/><linearGradient id="SVGID_3_" gradientTransform="matrix(.848 .53 -.53 .848 94.612 506.542)" gradientUnits="userSpaceOnUse" x1="-56.373" x2="82.833" xlink:href="#lg1" y1="-194.091" y2="-13.01"/><linearGradient id="SVGID_4_" gradientTransform="matrix(.848 .53 -.53 .848 94.612 506.542)" gradientUnits="userSpaceOnUse" x1="13.436" x2="-132.231" xlink:href="#lg2" y1="-158.049" y2="-263.907"/><linearGradient id="SVGID_5_" gradientUnits="userSpaceOnUse" x1="203.233" x2="139.504" xlink:href="#lg2" y1="365.971" y2="253.785"/><linearGradient id="SVGID_6_" gradientUnits="userSpaceOnUse" x1="103.436" x2="160.66" xlink:href="#lg1" y1="253.47" y2="332.439"/><linearGradient id="SVGID_7_" gradientUnits="userSpaceOnUse" x1="78.403" x2="241.742" xlink:href="#lg1" y1="104.203" y2="267.542"/><linearGradient id="SVGID_8_" gradientUnits="userSpaceOnUse" x1="113.226" x2="281.464" xlink:href="#lg2" y1="208.675" y2="149.162"/><linearGradient id="SVGID_9_" gradientUnits="userSpaceOnUse" x1="181.575" x2="221.631" xlink:href="#lg2" y1="241.417" y2="174.465"/><linearGradient id="SVGID_10_" gradientTransform="matrix(-1 0 0 1 1545.88 0)" gradientUnits="userSpaceOnUse" x1="1139.315" x2="1196.539" xlink:href="#lg1" y1="253.47" y2="332.439"/><linearGradient id="SVGID_11_" gradientTransform="matrix(-1 0 0 1 1545.88 0)" gradientUnits="userSpaceOnUse" x1="1114.282" x2="1277.622" xlink:href="#lg1" y1="104.203" y2="267.542"/><linearGradient id="SVGID_12_" gradientTransform="matrix(-1 0 0 1 1545.88 0)" gradientUnits="userSpaceOnUse" x1="1149.105" x2="1317.343" xlink:href="#lg2" y1="208.675" y2="149.162"/><linearGradient id="SVGID_13_" gradientTransform="matrix(-1 0 0 1 1545.88 0)" gradientUnits="userSpaceOnUse" x1="1217.454" x2="1257.511" xlink:href="#lg2" y1="241.417" y2="174.465"/><linearGradient id="SVGID_14_" gradientUnits="userSpaceOnUse" x1="394.514" x2="302.87" xlink:href="#lg2" y1="290.363" y2="239.274"/><linearGradient id="SVGID_15_" gradientUnits="userSpaceOnUse" x1="239.511" x2="305.149" xlink:href="#lg1" y1="208.933" y2="290.889"/><linearGradient id="SVGID_16_" gradientUnits="userSpaceOnUse" x1="245.38" x2="127.928" y1="217.311" y2="65.624"><stop offset="0" stop-color="#fff" stop-opacity="0"/><stop offset="1" stop-color="#fff"/></linearGradient><linearGradient id="SVGID_17_" gradientUnits="userSpaceOnUse" x1="273.897" x2="309.604" xlink:href="#lg2" y1="269.455" y2="373.911"/><linearGradient id="SVGID_18_" gradientUnits="userSpaceOnUse" x1="270.526" x2="184.13" xlink:href="#lg2" y1="232.8" y2="144.71"/><g><g><g><path d="m278.169 272.628c27.181-16.866 62.961-8.093 79.921 19.03l97.3 155.606c1.243 1.988-.263 4.554-2.605 4.437l-58.224-2.897c-4.014-.2-7.727 2.122-9.305 5.818l-22.887 53.615c-.921 2.157-3.886 2.387-5.13.399l-97.633-156.139c-16.983-27.161-8.678-62.966 18.563-79.869z" fill="url(#SVGID_1_)"/></g><path d="m277.997 272.738 110.998 177.513c-1.627 1.018-2.95 2.522-3.739 4.37l-22.887 53.615c-.921 2.157-3.886 2.388-5.13.399l-97.633-156.139c-16.946-27.102-8.712-62.81 18.391-79.758z" fill="url(#SVGID_2_)"/></g><g><g><g><path d="m231.831 272.628c-27.181-16.866-62.961-8.093-79.921 19.03l-97.3 155.606c-1.243 1.988.263 4.554 2.605 4.437l58.224-2.897c4.014-.2 7.727 2.122 9.305 5.818l22.887 53.615c.921 2.157 3.886 2.387 5.13.399l97.633-156.139c16.983-27.161 8.678-62.966-18.563-79.869z" fill="url(#SVGID_3_)"/></g><path d="m232.003 272.738-110.998 177.513c1.627 1.018 2.95 2.522 3.739 4.37l22.887 53.615c.921 2.157 3.886 2.388 5.13.399l97.633-156.139c16.946-27.102 8.712-62.81-18.391-79.758z" fill="url(#SVGID_4_)"/></g></g><path d="m231.826 272.623c-27.177-16.865-62.961-8.09-79.92 19.035l-42.251 67.575 84.007 83.997 56.735-90.728c16.98-27.167 8.68-62.972-18.571-79.879z" fill="url(#SVGID_5_)"/><g><g><g><path d="m226.526 263.943c0 24.058-13.812 45.979-35.514 56.362l-83.564 39.984c-29.937 14.324-64.982-5.572-68.025-38.62l-3.236-35.149c-3.742-40.642 22.835-77.898 62.482-87.589l8.184-2c51.296-12.537 103.555 16.725 119.673 67.012z" fill="url(#SVGID_6_)"/><path d="m226.526 263.943v-62.258c0-39.279-15.603-76.949-43.378-104.723l-85.47-85.47c-22.152-22.152-60.056-10.578-66.055 20.17l-9.119 48.453c-12.218 64.922 26.184 128.688 89.282 148.252z" fill="url(#SVGID_7_)"/><path d="m194.551 170.542-63.003-47.808c-16.329-12.391-44.269-5.916-48.691 11.282l-6.722 27.102c-4.639 18.706.632 37.233 13.186 52.302 5.839 7.008 13.637 12.201 22.347 14.91.039.012.079.024.118.037l114.739 35.576v-34.824c.001-21.971-11.501-43.042-31.974-58.577z" fill="url(#SVGID_8_)"/><path d="m194.551 206.382-6.498-3.039c-24.574-11.492-53.241 4.154-56.871 31.038l95.345 29.562v-21.461c-.001-13.541-11.503-26.526-31.976-36.1z" fill="url(#SVGID_9_)"/></g><g><path d="m283.474 263.943c0 24.058 13.812 45.979 35.514 56.362l83.564 39.984c29.937 14.324 64.982-5.572 68.025-38.62l3.236-35.149c3.742-40.642-22.835-77.898-62.482-87.589l-8.184-2c-51.296-12.537-103.555 16.725-119.673 67.012z" fill="url(#SVGID_10_)"/><path d="m283.474 263.943v-62.258c0-39.279 15.603-76.949 43.378-104.723l85.47-85.47c22.152-22.152 60.056-10.577 66.055 20.17l9.119 48.453c12.218 64.922-26.184 128.688-89.282 148.252z" fill="url(#SVGID_11_)"/><path d="m315.449 170.542 63.003-47.808c16.329-12.391 44.269-5.916 48.691 11.282l6.722 27.102c4.639 18.706-.632 37.233-13.186 52.302-5.839 7.008-13.637 12.201-22.347 14.91-.039.012-.079.024-.118.037l-114.739 35.576v-34.824c-.001-21.971 11.501-43.042 31.974-58.577z" fill="url(#SVGID_12_)"/><path d="m315.449 206.382 6.498-3.039c24.574-11.492 53.241 4.154 56.871 31.038l-95.345 29.562v-21.461c.001-13.541 11.503-26.526 31.976-36.1z" fill="url(#SVGID_13_)"/></g></g></g><path d="m318.988 320.305 83.564 39.984c29.294 14.017 63.461-4.743 67.765-36.52l-135.741-135.741c-9.21-10.277-21.64-16.264-35.337-16.931-.867-.042-1.745-.064-2.609-.064-3.442 0-6.837.331-10.146.978-1.983 9.695-3.01 19.631-3.01 29.675v62.258c0 24.057 13.812 45.977 35.514 56.361z" fill="url(#SVGID_14_)"/><g><path d="m255 327.137c-3.408 0-6.822-.807-9.872-2.333-9.218-4.613-27.218-14.505-44.198-28.926-22.089-18.759-35.182-38.895-38.915-59.848-2.9-16.277 1.24-32.893 11.358-45.588 9.37-11.757 22.648-18.627 37.388-19.346.867-.042 1.745-.064 2.609-.064 13.81 0 26.847 5.322 36.709 14.986 1.781 1.746 3.424 3.598 4.92 5.542 1.497-1.944 3.139-3.797 4.92-5.543 9.862-9.664 22.899-14.986 36.71-14.986.865 0 1.743.021 2.609.064 14.74.718 28.018 7.589 37.389 19.347 10.118 12.695 14.257 29.311 11.357 45.587-3.732 20.952-16.825 41.088-38.914 59.847-16.979 14.42-34.979 24.312-44.198 28.926-3.05 1.528-6.464 2.335-9.872 2.335z" fill="url(#SVGID_15_)"/><path d="m255 315.631c-2.441 0-4.886-.558-7.072-1.614-8.544-4.127-25.222-12.972-40.926-25.844-20.033-16.42-31.877-33.887-35.206-51.918-2.493-13.509 1.057-27.288 9.741-37.804 7.961-9.64 19.227-15.273 31.722-15.861.739-.035 1.489-.053 2.227-.053 11.756 0 22.854 4.373 31.249 12.312 1.508 1.426 2.919 2.96 4.194 4.56l4.07 5.105 4.07-5.104c1.278-1.601 2.689-3.136 4.195-4.561 8.395-7.939 19.493-12.312 31.249-12.312.738 0 1.487.018 2.227.053 12.496.588 23.762 6.221 31.722 15.862 8.684 10.516 12.234 24.295 9.74 37.803-3.328 18.03-15.173 35.498-35.206 51.918-15.706 12.874-32.383 21.718-40.926 25.844-2.183 1.056-4.629 1.614-7.07 1.614z" fill="url(#SVGID_16_)"/><path d="m336.627 190.443c-3.512-4.407-7.574-8.128-12.055-11.095 8.182 12.15 11.354 27.21 8.72 41.99-3.732 20.952-16.825 41.088-38.914 59.847-16.979 14.42-34.979 24.312-44.198 28.926-3.05 1.527-6.464 2.333-9.872 2.333s-6.822-.807-9.872-2.333c-9.218-4.613-27.218-14.505-44.198-28.926-.727-.618-1.444-1.237-2.152-1.858 4.863 5.622 10.477 11.143 16.844 16.55 16.98 14.42 34.98 24.312 44.198 28.926 3.05 1.526 6.464 2.333 9.872 2.333s6.822-.807 9.872-2.333c9.219-4.613 27.219-14.506 44.198-28.926 22.089-18.759 35.182-38.895 38.914-59.847 2.9-16.276-1.239-32.892-11.357-45.587z" fill="url(#SVGID_17_)"/><path d="m299.239 171.097c-.867-.042-1.745-.064-2.609-.064-13.81 0-26.848 5.322-36.71 14.986-1.781 1.746-3.423 3.598-4.92 5.542v135.576c3.408 0 6.822-.807 9.872-2.333 9.219-4.613 27.219-14.506 44.198-28.926 22.089-18.759 35.182-38.895 38.914-59.847 2.9-16.276-1.239-32.892-11.357-45.587-9.37-11.758-22.648-18.629-37.388-19.347z" fill="url(#SVGID_18_)"/></g></g></svg>