<svg id="Capa_1" enable-background="new 0 0 508.163 508.163" height="512" viewBox="0 0 508.163 508.163" width="512" xmlns="http://www.w3.org/2000/svg" xmlns:xlink="http://www.w3.org/1999/xlink"><linearGradient id="SVGID_1_" gradientTransform="matrix(-.707 .707 .707 .707 1122.733 1176.314)" gradientUnits="userSpaceOnUse" x1="11.754" x2="36.556" y1="-1261.272" y2="-1261.272"><stop offset="0" stop-color="#f8f6fb"/><stop offset="1" stop-color="#efdcfb"/></linearGradient><linearGradient id="lg1"><stop offset="0" stop-color="#ffd945"/><stop offset=".3043" stop-color="#ffcd3e"/><stop offset=".8558" stop-color="#ffad2b"/><stop offset="1" stop-color="#ffa325"/></linearGradient><linearGradient id="SVGID_2_" gradientTransform="matrix(.707 .707 -.707 .707 469.409 423.91)" gradientUnits="userSpaceOnUse" x1="-566.399" x2="21.603" xlink:href="#lg1" y1="-9.988" y2="-9.988"/><linearGradient id="SVGID_3_" gradientUnits="userSpaceOnUse" x1="133.951" x2="376.555" xlink:href="#lg1" y1="336.23" y2="217.107"/><linearGradient id="lg2"><stop offset="0" stop-color="#e87264" stop-opacity="0"/><stop offset=".6519" stop-color="#f67150" stop-opacity=".652"/><stop offset="1" stop-color="#ff7044"/></linearGradient><linearGradient id="SVGID_4_" gradientUnits="userSpaceOnUse" x1="380.992" x2="338.419" xlink:href="#lg2" y1="221.245" y2="178.671"/><linearGradient id="SVGID_5_" gradientUnits="userSpaceOnUse" x1="236.748" x2="218.496" y1="324.489" y2="306.237"><stop offset="0" stop-color="#efdcfb" stop-opacity="0"/><stop offset=".4856" stop-color="#baaad6" stop-opacity=".486"/><stop offset="1" stop-color="#8679b2"/></linearGradient><linearGradient id="SVGID_6_" gradientTransform="matrix(.707 .707 .707 -.707 91.275 -614.497)" gradientUnits="userSpaceOnUse" x1="642.302" x2="722.883" xlink:href="#lg1" y1="-695.512" y2="-695.512"/><linearGradient id="SVGID_7_" gradientTransform="matrix(.707 .707 .707 -.707 91.275 -614.497)" gradientUnits="userSpaceOnUse" x1="693.232" x2="632.526" xlink:href="#lg2" y1="-720.073" y2="-567.358"/><linearGradient id="lg3"><stop offset="0" stop-color="#e87264" stop-opacity="0"/><stop offset="1" stop-color="#ff7044"/></linearGradient><linearGradient id="SVGID_8_" gradientTransform="matrix(.707 .707 .707 -.707 91.275 -614.497)" gradientUnits="userSpaceOnUse" x1="695.841" x2="655.054" xlink:href="#lg3" y1="-743.579" y2="-607.938"/><linearGradient id="SVGID_9_" gradientTransform="matrix(.707 .707 .707 -.707 91.275 -614.497)" gradientUnits="userSpaceOnUse" x1="699.906" x2="671.925" xlink:href="#lg3" y1="-765.024" y2="-638.395"/><linearGradient id="SVGID_10_" gradientTransform="matrix(-.707 -.707 .707 -.707 -1087.641 -1793.412)" gradientUnits="userSpaceOnUse" x1="-2483.638" x2="-2403.058" xlink:href="#lg1" y1="-695.512" y2="-695.512"/><linearGradient id="SVGID_11_" gradientTransform="matrix(-.707 -.707 .707 -.707 -1087.641 -1793.412)" gradientUnits="userSpaceOnUse" x1="-2432.708" x2="-2493.415" xlink:href="#lg2" y1="-720.073" y2="-567.358"/><linearGradient id="SVGID_12_" gradientTransform="matrix(-.707 -.707 .707 -.707 -1087.641 -1793.412)" gradientUnits="userSpaceOnUse" x1="-2430.1" x2="-2470.887" xlink:href="#lg3" y1="-743.579" y2="-607.938"/><linearGradient id="SVGID_13_" gradientTransform="matrix(-.707 -.707 .707 -.707 -1087.641 -1793.412)" gradientUnits="userSpaceOnUse" x1="-2426.034" x2="-2454.016" xlink:href="#lg3" y1="-765.024" y2="-638.395"/><linearGradient id="SVGID_14_" gradientTransform="matrix(.707 .707 .707 -.707 91.275 -614.497)" gradientUnits="userSpaceOnUse" x1="717.969" x2="740.733" xlink:href="#lg1" y1="-513.933" y2="-513.933"/><linearGradient id="SVGID_15_" gradientTransform="matrix(.707 .707 .707 -.707 -623.909 1466.419)" gradientUnits="userSpaceOnUse" x1="-251.856" x2="-186.217" y1="1695.541" y2="1777.497"><stop offset="0" stop-color="#ff819c"/><stop offset=".2594" stop-color="#ff7e9a"/><stop offset=".4757" stop-color="#fe7396"/><stop offset=".6765" stop-color="#fc628e"/><stop offset=".8668" stop-color="#fa4a83"/><stop offset="1" stop-color="#f83479"/></linearGradient><linearGradient id="lg4"><stop offset="0" stop-color="#f82814" stop-opacity="0"/><stop offset="1" stop-color="#c0272d"/></linearGradient><linearGradient id="SVGID_16_" gradientTransform="matrix(.707 .707 .707 -.707 -623.909 1466.419)" gradientUnits="userSpaceOnUse" x1="-217.47" x2="-181.763" xlink:href="#lg4" y1="1756.063" y2="1860.519"/><linearGradient id="SVGID_17_" gradientTransform="matrix(.707 .707 .707 -.707 -623.909 1466.419)" gradientUnits="userSpaceOnUse" x1="-220.841" x2="-307.236" xlink:href="#lg4" y1="1719.408" y2="1631.319"/><g><g><path d="m402.725 490.466c4.843-4.843 4.843-12.695 0-17.538l-360.313-360.313c-4.843-4.843-12.695-4.843-17.538 0-4.843 4.843-4.843 12.695 0 17.538l360.313 360.313c4.843 4.843 12.695 4.843 17.538 0z" fill="url(#SVGID_1_)"/><g><path d="m405.626 508.089c-6.274.001-12.548-2.393-17.335-7.18-28.236-28.237-28.236-74.182 0-102.419l.753-.753c12.904-12.904 19.922-30.067 19.764-48.326-.16-18.322-7.474-35.65-20.593-48.794-10.991-11.012-19.584-23.889-25.54-38.274-5.97-14.417-8.998-29.631-8.998-45.217 0-16.752-6.523-32.501-18.368-44.345-11.843-11.844-27.592-18.367-44.344-18.367-15.586 0-30.8-3.028-45.22-8.999s-27.322-14.59-38.348-25.615c-13.061-13.061-30.426-20.254-48.898-20.254s-35.838 7.193-48.899 20.254c-28.236 28.236-74.182 28.237-102.419.001-9.574-9.573-9.574-25.095-.001-34.669 9.574-9.574 25.095-9.573 34.669-.001 9.121 9.121 23.962 9.122 33.082 0 22.321-22.322 51.999-34.615 83.567-34.615 31.567 0 61.246 12.293 83.567 34.615 6.449 6.448 13.998 11.491 22.438 14.985 8.443 3.496 17.345 5.269 26.461 5.269 29.848 0 57.909 11.623 79.014 32.728 21.104 21.104 32.728 49.165 32.728 79.014 0 9.116 1.773 18.018 5.269 26.46 3.486 8.421 8.513 15.955 14.941 22.395 22.246 22.286 34.647 51.764 34.919 83.003.275 31.517-11.843 61.144-34.121 83.422l-.753.754c-9.121 9.121-9.121 23.961 0 33.082 9.574 9.574 9.573 25.096 0 34.669-4.788 4.783-11.062 7.177-17.335 7.177z" fill="url(#SVGID_2_)"/><path d="m409.68 446.439.753-.754c22.278-22.278 34.396-51.905 34.121-83.422-.272-31.239-12.673-60.717-34.919-83.003-6.428-6.44-11.455-13.974-14.941-22.395-3.496-8.441-5.269-17.344-5.269-26.46 0-29.849-11.623-57.91-32.728-79.014-21.104-21.104-49.165-32.728-79.014-32.728-9.116 0-18.018-1.773-26.461-5.269-8.44-3.495-15.989-8.537-22.438-14.985-22.321-22.322-51.999-34.615-83.567-34.615s-61.247 12.293-83.567 34.615c-9.12 9.122-23.961 9.121-33.082 0-7.221-7.22-17.822-8.988-26.706-5.317-3.671 8.884-1.903 19.486 5.317 26.706 28.238 28.236 74.183 28.236 102.419-.001 13.061-13.061 30.427-20.254 48.899-20.254s35.837 7.193 48.898 20.254c11.026 11.026 23.928 19.644 38.348 25.615 14.42 5.972 29.634 8.999 45.22 8.999 16.753 0 32.501 6.523 44.344 18.367 11.844 11.844 18.368 27.593 18.368 44.345 0 15.586 3.028 30.8 8.998 45.217 5.956 14.385 14.549 27.262 25.54 38.274 13.119 13.144 20.433 30.472 20.593 48.794.159 18.26-6.86 35.422-19.764 48.326l-.753.753c-28.236 28.237-28.236 74.182 0 102.419 4.787 4.787 11.06 7.181 17.335 7.18 3.19 0 6.377-.626 9.372-1.864 3.67-8.883 1.903-19.484-5.317-26.705-9.119-9.117-9.119-23.958.001-33.078z" fill="url(#SVGID_3_)"/></g></g><path d="m402.706 217.125c0-29.849-11.623-57.91-32.728-79.014-.622-.622-1.251-1.234-1.884-1.839l-34.692 34.692c.644.593 1.284 1.193 1.907 1.816 11.844 11.844 18.368 27.593 18.368 44.345 0 15.586 3.028 30.8 8.998 45.217 5.756 13.901 13.98 26.387 24.444 37.149l34.683-34.683c-5.889-6.18-10.549-13.303-13.827-21.224-3.496-8.441-5.269-17.343-5.269-26.459z" fill="url(#SVGID_4_)"/><path d="m202.924 308.203 38.797 38.796 17.537-17.538-38.796-38.796z" fill="url(#SVGID_5_)"/><g><g><g><g><path d="m179.133 319.956c-52.634-8.416-106.402 5.338-148.531 37.992l-13.159 10.2c-19.174 14.862-20.96 43.175-3.806 60.329 15.733 15.733 41.242 15.733 56.975 0z" fill="url(#SVGID_6_)"/><path d="m13.455 428.294c-.548-.555-1.077-1.122-1.586-1.699-14.411-16.344-10.068-42.007 8.384-53.596 39.382-24.735 86.601-34.519 132.945-27.109l-81.85 81.85c-15.77 15.771-42.22 16.423-57.893.554z" fill="url(#SVGID_7_)"/><path d="m14.009 428.844c-.18-.176-.358-.353-.534-.531-12.67-12.811-7.686-34.473 9.131-40.942 31.391-12.076 65.705-15.865 99.563-10.451l-50.898 50.898c-15.699 15.699-41.366 16.526-57.262 1.026z" fill="url(#SVGID_8_)"/><path d="m14.088 428.92c-.14-.136-.279-.273-.417-.41-6.93-6.915-3.364-18.766 6.165-21.013 24.171-5.699 49.457-6.746 74.499-2.742l-23.067 23.067c-15.669 15.669-41.275 16.526-57.18 1.098z" fill="url(#SVGID_9_)"/></g><g><path d="m188.281 329.103c8.416 52.634-5.338 106.402-37.992 148.531l-10.2 13.159c-14.862 19.174-43.175 20.96-60.329 3.806-15.733-15.733-15.733-41.242 0-56.975z" fill="url(#SVGID_10_)"/><path d="m79.943 494.781c.555.548 1.122 1.077 1.699 1.586 16.344 14.411 42.007 10.068 53.596-8.384 24.735-39.382 34.519-86.601 27.109-132.945l-81.85 81.85c-15.771 15.771-16.423 42.221-.554 57.893z" fill="url(#SVGID_11_)"/><path d="m79.393 494.227c.176.18.353.358.531.534 12.811 12.67 34.473 7.686 40.942-9.131 12.076-31.391 15.865-65.705 10.451-99.563l-50.898 50.898c-15.7 15.7-16.526 41.367-1.026 57.262z" fill="url(#SVGID_12_)"/><path d="m79.316 494.149c.136.14.273.279.41.417 6.915 6.93 18.766 3.364 21.013-6.165 5.699-24.171 6.746-49.457 2.742-74.499l-23.067 23.067c-15.668 15.669-16.526 41.274-1.098 57.18z" fill="url(#SVGID_13_)"/></g></g><path d="m416.998 91.238c-4.445-4.445-11.652-4.445-16.096 0l-330.703 330.703c-4.445 4.445-4.445 11.651 0 16.096 4.445 4.445 11.651 4.445 16.096 0l330.703-330.703c4.445-4.444 4.445-11.651 0-16.096z" fill="url(#SVGID_14_)"/></g><g><path d="m491.466 16.771c-2.41-2.41-5.394-4.253-8.63-5.331-9.78-3.256-29.503-8.989-51.706-10.799-28.884-2.354-52.38 2.626-69.836 14.802-13.56 9.459-22.382 24.136-24.204 40.267-1.687 14.939 2.843 29.186 12.758 40.117.583.643 1.189 1.279 1.8 1.89 9.765 9.765 22.747 15.22 36.554 15.36 2.494.025 4.965-.123 7.398-.44-.316 2.433-.465 4.904-.44 7.398.14 13.807 5.596 26.789 15.361 36.554.611.611 1.247 1.217 1.89 1.8 10.931 9.915 25.178 14.446 40.118 12.758 16.131-1.822 30.807-10.645 40.265-24.204 12.176-17.455 17.157-40.951 14.802-69.835-1.81-22.203-7.543-41.925-10.799-51.706-1.078-3.237-2.922-6.221-5.331-8.631z" fill="url(#SVGID_15_)"/><path d="m452.528 171.147c-5.6.633-11.103.392-16.37-.679 14.377-2.806 27.269-11.212 35.858-23.525 12.176-17.455 17.157-40.951 14.802-69.835-1.81-22.203-7.543-41.925-10.799-51.706-1.077-3.236-2.921-6.221-5.331-8.63-2.41-2.41-5.394-4.253-8.63-5.331-9.78-3.256-29.503-8.989-51.706-10.799-.951-.078-1.896-.146-2.835-.208 7.414-.537 15.288-.471 23.613.208 22.203 1.81 41.926 7.543 51.706 10.799 3.236 1.077 6.221 2.921 8.63 5.331 2.41 2.41 4.253 5.394 5.331 8.63 3.257 9.781 8.99 29.503 10.799 51.706 2.354 28.884-2.626 52.38-14.802 69.835-9.459 13.56-24.135 22.382-40.266 24.204z" fill="url(#SVGID_16_)"/><path d="m412.41 158.39c-.643-.583-1.279-1.189-1.89-1.8-9.765-9.765-15.221-22.747-15.361-36.554-.025-2.494.123-4.965.44-7.398l95.867-95.867c2.41 2.41 4.253 5.394 5.331 8.63 3.257 9.781 8.99 29.503 10.799 51.706 2.354 28.884-2.626 52.38-14.802 69.835-9.458 13.56-24.135 22.382-40.265 24.204-14.941 1.689-29.188-2.842-40.119-12.756z" fill="url(#SVGID_17_)"/></g></g></g></svg>