<svg id="Capa_1" enable-background="new 0 0 510 510" height="512" viewBox="0 0 510 510" width="512" xmlns="http://www.w3.org/2000/svg" xmlns:xlink="http://www.w3.org/1999/xlink"><linearGradient id="lg1"><stop offset="0" stop-color="#8a7889"/><stop offset="1" stop-color="#6e566e"/></linearGradient><linearGradient id="SVGID_1_" gradientUnits="userSpaceOnUse" x1="227.538" x2="261.308" xlink:href="#lg1" y1="69.637" y2="148.265"/><linearGradient id="lg2"><stop offset="0" stop-color="#f8f6fb"/><stop offset="1" stop-color="#efdcfb"/></linearGradient><linearGradient id="SVGID_2_" gradientUnits="userSpaceOnUse" x1="189.906" x2="319.227" xlink:href="#lg2" y1="112.367" y2="112.367"/><linearGradient id="lg3"><stop offset="0" stop-color="#fff" stop-opacity="0"/><stop offset="1" stop-color="#fff"/></linearGradient><linearGradient id="SVGID_3_" gradientUnits="userSpaceOnUse" x1="254.016" x2="212.804" xlink:href="#lg3" y1="133.603" y2="41.941"/><linearGradient id="SVGID_4_" gradientUnits="userSpaceOnUse" x1="189.906" x2="319.227" xlink:href="#lg3" y1="128.452" y2="128.452"/><linearGradient id="lg4"><stop offset="0" stop-color="#ff7044"/><stop offset="1" stop-color="#f82814"/></linearGradient><linearGradient id="SVGID_5_" gradientUnits="userSpaceOnUse" x1="407.779" x2="438.949" xlink:href="#lg4" y1="120.695" y2="120.695"/><linearGradient id="SVGID_6_" gradientUnits="userSpaceOnUse" x1="180.838" x2="368.506" xlink:href="#lg1" y1="266.275" y2="397.554"/><linearGradient id="lg5"><stop offset="0" stop-color="#6e566e" stop-opacity="0"/><stop offset=".2944" stop-color="#674d66" stop-opacity=".294"/><stop offset="1" stop-color="#593b56"/></linearGradient><linearGradient id="SVGID_7_" gradientUnits="userSpaceOnUse" x1="255.002" x2="255.002" xlink:href="#lg5" y1="437.527" y2="499.26"/><linearGradient id="SVGID_8_" gradientUnits="userSpaceOnUse" x1="384.75" x2="240.668" xlink:href="#lg5" y1="448.33" y2="304.248"/><linearGradient id="lg6"><stop offset="0" stop-color="#ffd945"/><stop offset=".3043" stop-color="#ffcd3e"/><stop offset=".8558" stop-color="#ffad2b"/><stop offset="1" stop-color="#ffa325"/></linearGradient><linearGradient id="SVGID_9_" gradientUnits="userSpaceOnUse" x1="86.345" x2="422.788" xlink:href="#lg6" y1="318.152" y2="318.152"/><linearGradient id="SVGID_10_" gradientTransform="matrix(-1 0 0 -1 1574 562.01)" gradientUnits="userSpaceOnUse" x1="1175.9" x2="1462.967" xlink:href="#lg6" y1="243.858" y2="243.858"/><linearGradient id="SVGID_11_" gradientUnits="userSpaceOnUse" x1="191.305" x2="334.591" xlink:href="#lg2" y1="254.89" y2="398.176"/><linearGradient id="SVGID_12_" gradientUnits="userSpaceOnUse" x1="234.493" x2="319.557" xlink:href="#lg4" y1="277.103" y2="383.313"/><linearGradient id="lg7"><stop offset="0" stop-color="#f82814" stop-opacity="0"/><stop offset="1" stop-color="#c0272d"/></linearGradient><linearGradient id="SVGID_13_" gradientUnits="userSpaceOnUse" x1="283.347" x2="318.57" xlink:href="#lg7" y1="355.063" y2="430.344"/><linearGradient id="SVGID_14_" gradientUnits="userSpaceOnUse" x1="274.688" x2="162.724" xlink:href="#lg7" y1="308.034" y2="193.875"/><linearGradient id="lg8"><stop offset="0" stop-color="#ff819c"/><stop offset=".2594" stop-color="#ff7e9a"/><stop offset=".4757" stop-color="#fe7396"/><stop offset=".6765" stop-color="#fc628e"/><stop offset=".8668" stop-color="#fa4a83"/><stop offset="1" stop-color="#f83479"/></linearGradient><linearGradient id="SVGID_15_" gradientUnits="userSpaceOnUse" x1="77.424" x2="160.72" xlink:href="#lg8" y1="46.805" y2="46.805"/><linearGradient id="SVGID_16_" gradientUnits="userSpaceOnUse" x1="14.963" x2="73.866" xlink:href="#lg8" y1="92.035" y2="92.035"/><linearGradient id="SVGID_17_" gradientUnits="userSpaceOnUse" x1="340.708" x2="399.611" xlink:href="#lg8" y1="71.078" y2="71.078"/><linearGradient id="SVGID_18_" gradientUnits="userSpaceOnUse" x1="435.267" x2="494.17" xlink:href="#lg8" y1="34.506" y2="34.506"/><linearGradient id="lg9"><stop offset="0" stop-color="#65e0db"/><stop offset=".199" stop-color="#60dcd6"/><stop offset=".4277" stop-color="#53d0c8"/><stop offset=".671" stop-color="#3cbcb1"/><stop offset=".9229" stop-color="#1ca191"/><stop offset="1" stop-color="#119786"/></linearGradient><linearGradient id="SVGID_19_" gradientUnits="userSpaceOnUse" x1="36.553" x2="45.216" xlink:href="#lg9" y1="166.954" y2="173.014"/><linearGradient id="SVGID_20_" gradientUnits="userSpaceOnUse" x1="65.821" x2="74.484" xlink:href="#lg9" y1="166.954" y2="173.014"/><linearGradient id="SVGID_21_" gradientUnits="userSpaceOnUse" x1="95.089" x2="103.752" xlink:href="#lg9" y1="166.954" y2="173.014"/><g><g><path d="m346.266 139.192h-183.399l21.413-62.946c2.824-8.3 10.618-13.882 19.386-13.882h101.802c8.767 0 16.562 5.582 19.386 13.882z" fill="url(#SVGID_1_)"/><g><path d="m319.227 139.192h-129.321l15.099-43.956c1.991-5.796 7.487-9.694 13.67-9.694h71.784c6.182 0 11.678 3.898 13.67 9.694z" fill="url(#SVGID_2_)"/><path d="m189.906 139.193h129.321l-12.707-36.995h-103.907z" fill="url(#SVGID_3_)"/><path d="m189.906 139.193h129.321l-7.378-21.481h-114.565z" fill="url(#SVGID_4_)"/></g></g><path d="m459.141 139.38h-72.705v-22.778c0-8.058 6.532-14.591 14.591-14.591h43.524c8.058 0 14.591 6.532 14.591 14.591v22.778z" fill="url(#SVGID_5_)"/><path d="m464.167 505.194h-418.34c-25.309 0-45.827-20.517-45.827-45.827v-282.431c0-25.31 20.518-45.827 45.827-45.827h418.339c25.31 0 45.828 20.518 45.828 45.827v282.431c0 25.31-20.517 45.827-45.827 45.827z" fill="url(#SVGID_6_)"/><path d="m510 374.049v85.323c0 25.309-20.524 45.82-45.833 45.82h-418.342c-25.309 0-45.82-20.511-45.82-45.82v-85.323z" fill="url(#SVGID_7_)"/><path d="m414.151 239.787c-3.661-4.018-7.507-7.877-11.538-11.551l-23.062-23.062c-31.653-34.864-77.711-56.393-128.791-55.204-89.394 2.088-162.28 74.975-164.368 164.395-.489 20.961 2.855 41.062 9.37 59.684 9.357 26.749 25.269 50.419 45.833 69.08l62.063 62.063.006.002h260.503c25.31 0 45.828-20.518 45.828-45.827v-123.736z" fill="url(#SVGID_8_)"/><g><circle cx="254.567" cy="318.151" fill="url(#SVGID_9_)" r="168.222"/><circle cx="254.567" cy="318.151" fill="url(#SVGID_10_)" r="143.533"/><circle cx="254.567" cy="318.151" fill="url(#SVGID_11_)" r="127.762"/></g><g><path d="m254.567 430.288c-4.416 0-8.84-1.046-12.793-3.024-11.945-5.978-35.273-18.798-57.278-37.486-28.626-24.311-45.593-50.405-50.431-77.559-3.758-21.093 1.607-42.627 14.719-59.079 12.143-15.236 29.35-24.14 48.452-25.071 1.123-.055 2.261-.083 3.382-.083 17.897 0 34.791 6.897 47.572 19.421 2.309 2.262 4.437 4.663 6.376 7.182 1.939-2.519 4.068-4.921 6.376-7.183 12.78-12.523 29.676-19.42 47.573-19.42 1.12 0 2.259.028 3.382.083 19.102.931 36.31 9.835 48.453 25.072 13.112 16.452 18.476 37.985 14.718 59.078-4.837 27.153-21.804 53.248-50.43 77.558-22.004 18.687-45.331 31.507-57.278 37.486-3.953 1.979-8.377 3.025-12.793 3.025z" fill="url(#SVGID_12_)"/><path d="m360.35 253.142c-4.552-5.711-9.815-10.533-15.623-14.378 10.603 15.746 14.714 35.262 11.301 54.416-4.837 27.153-21.804 53.248-50.43 77.558-22.004 18.687-45.331 31.507-57.278 37.486-3.953 1.978-8.377 3.024-12.793 3.024s-8.84-1.046-12.793-3.024c-11.945-5.978-35.273-18.798-57.278-37.486-.943-.801-1.871-1.603-2.788-2.408 6.302 7.286 13.578 14.441 21.828 21.448 22.005 18.688 45.332 31.507 57.278 37.486 3.953 1.978 8.377 3.024 12.793 3.024s8.84-1.045 12.793-3.024c11.947-5.979 35.274-18.798 57.278-37.486 28.626-24.311 45.593-50.406 50.43-77.558 3.758-21.093-1.606-42.627-14.718-59.078z" fill="url(#SVGID_13_)"/><path d="m311.897 228.07c-1.123-.055-2.261-.083-3.382-.083-17.897 0-34.793 6.897-47.573 19.42-2.308 2.262-4.437 4.663-6.376 7.182v175.698c4.416 0 8.84-1.045 12.793-3.024 11.947-5.979 35.274-18.798 57.278-37.486 28.626-24.311 45.593-50.406 50.43-77.558 3.758-21.093-1.606-42.626-14.718-59.078-12.142-15.236-29.35-24.14-48.452-25.071z" fill="url(#SVGID_14_)"/></g><g><path d="m158.383 51.224c-14.006 9.127-25.956 21.149-35.006 35.213-2.035 3.163-6.732 3.154-8.755-.016-8.998-14.097-20.904-26.162-34.877-35.34-3.101-2.037-3.093-6.67.016-8.695 14.006-9.127 25.956-21.149 35.005-35.213 2.035-3.163 6.732-3.154 8.755.016 8.999 14.097 20.905 26.162 34.877 35.34 3.102 2.037 3.093 6.669-.015 8.695z" fill="url(#SVGID_15_)"/><path d="m72.214 95.16c-9.904 6.455-18.355 14.956-24.755 24.901-1.439 2.237-4.76 2.23-6.191-.011-6.363-9.969-14.783-18.501-24.664-24.991-2.193-1.441-2.187-4.716.011-6.149 9.905-6.455 18.355-14.957 24.755-24.902 1.439-2.236 4.76-2.231 6.191.011 6.363 9.969 14.783 18.501 24.664 24.991 2.193 1.441 2.187 4.717-.011 6.15z" fill="url(#SVGID_16_)"/><path d="m397.959 74.203c-9.904 6.455-18.355 14.956-24.755 24.902-1.439 2.236-4.76 2.23-6.191-.011-6.363-9.969-14.783-18.501-24.664-24.991-2.193-1.441-2.187-4.716.011-6.149 9.905-6.454 18.355-14.956 24.754-24.901 1.439-2.236 4.76-2.231 6.191.011 6.363 9.969 14.783 18.501 24.664 24.991 2.194 1.44 2.188 4.716-.01 6.148z" fill="url(#SVGID_17_)"/><path d="m492.518 37.631c-9.904 6.455-18.355 14.956-24.755 24.902-1.439 2.236-4.76 2.23-6.191-.011-6.363-9.969-14.783-18.501-24.664-24.991-2.193-1.441-2.187-4.716.011-6.149 9.905-6.454 18.355-14.956 24.754-24.901 1.439-2.236 4.76-2.231 6.191.011 6.363 9.969 14.783 18.501 24.664 24.991 2.194 1.44 2.188 4.716-.01 6.148z" fill="url(#SVGID_18_)"/></g><g><path d="m44.041 181.517h-8.13c-4.475 0-8.103-3.628-8.103-8.103v-8.13c0-4.475 3.628-8.103 8.103-8.103h8.13c4.475 0 8.103 3.628 8.103 8.103v8.13c-.001 4.475-3.628 8.103-8.103 8.103z" fill="url(#SVGID_19_)"/><path d="m73.309 181.517h-8.13c-4.475 0-8.103-3.628-8.103-8.103v-8.13c0-4.475 3.628-8.103 8.103-8.103h8.13c4.475 0 8.103 3.628 8.103 8.103v8.13c0 4.475-3.628 8.103-8.103 8.103z" fill="url(#SVGID_20_)"/><path d="m102.577 181.517h-8.13c-4.475 0-8.103-3.628-8.103-8.103v-8.13c0-4.475 3.628-8.103 8.103-8.103h8.13c4.475 0 8.103 3.628 8.103 8.103v8.13c0 4.475-3.628 8.103-8.103 8.103z" fill="url(#SVGID_21_)"/></g></g></svg>