<svg id="Capa_1" enable-background="new 0 0 510 510" height="512" viewBox="0 0 510 510" width="512" xmlns="http://www.w3.org/2000/svg" xmlns:xlink="http://www.w3.org/1999/xlink"><linearGradient id="lg1"><stop offset="0" stop-color="#ff819c"/><stop offset=".2594" stop-color="#ff7e9a"/><stop offset=".4757" stop-color="#fe7396"/><stop offset=".6765" stop-color="#fc628e"/><stop offset=".8668" stop-color="#fa4a83"/><stop offset="1" stop-color="#f83479"/></linearGradient><linearGradient id="SVGID_1_" gradientUnits="userSpaceOnUse" x1="156.763" x2="295.504" xlink:href="#lg1" y1="240.915" y2="414.144"/><linearGradient id="SVGID_2_" gradientUnits="userSpaceOnUse" x1="278.921" x2="82.098" xlink:href="#lg1" y1="339.451" y2="142.628"/><linearGradient id="lg2"><stop offset="0" stop-color="#f82814" stop-opacity="0"/><stop offset="1" stop-color="#c0272d"/></linearGradient><linearGradient id="SVGID_3_" gradientUnits="userSpaceOnUse" x1="172.197" x2="55.258" xlink:href="#lg2" y1="378.138" y2="533.628"/><linearGradient id="SVGID_4_" gradientUnits="userSpaceOnUse" x1="211.255" x2="169.057" xlink:href="#lg2" y1="225.059" y2="182.86"/><linearGradient id="lg3"><stop offset="0" stop-color="#65e0db"/><stop offset=".199" stop-color="#60dcd6"/><stop offset=".4277" stop-color="#53d0c8"/><stop offset=".671" stop-color="#3cbcb1"/><stop offset=".9229" stop-color="#1ca191"/><stop offset="1" stop-color="#119786"/></linearGradient><linearGradient id="SVGID_5_" gradientUnits="userSpaceOnUse" x1="162.388" x2="472.496" xlink:href="#lg3" y1="38.977" y2="313.065"/><linearGradient id="SVGID_6_" gradientTransform="matrix(.707 .707 .707 -.707 -191.502 -130.742)" gradientUnits="userSpaceOnUse" x1="662.445" x2="465.617" xlink:href="#lg3" y1="183.18" y2="-13.648"/><linearGradient id="SVGID_7_" gradientTransform="matrix(.962 .962 .707 -.707 -424.811 -1153.559)" gradientUnits="userSpaceOnUse" x1="1036.186" x2="1094.967" xlink:href="#lg3" y1="-239.701" y2="-239.701"/><linearGradient id="lg4"><stop offset="0" stop-color="#65e0db" stop-opacity="0"/><stop offset="1" stop-color="#119786"/></linearGradient><linearGradient id="SVGID_8_" gradientTransform="matrix(1.18 .18 .18 1.18 -86.369 -86.369)" gradientUnits="userSpaceOnUse" x1="445.451" x2="439.823" xlink:href="#lg4" y1="81.79" y2="5.248"/><linearGradient id="SVGID_9_" gradientUnits="userSpaceOnUse" x1="333.079" x2="300.107" xlink:href="#lg4" y1="351.859" y2="318.887"/><g><g><path d="m318.088 174.702c-15.397-19.319-37.214-30.608-61.433-31.789-1.424-.069-2.867-.105-4.288-.105-22.692 0-44.114 8.745-60.318 24.623-2.927 2.868-5.626 5.913-8.085 9.107-2.458-3.194-5.157-6.238-8.084-9.106-16.205-15.879-37.626-24.624-60.317-24.624-1.421 0-2.864.035-4.288.105-24.219 1.18-46.036 12.47-61.433 31.787-16.624 20.859-23.426 48.161-18.662 74.905 6.134 34.428 27.646 67.513 63.941 98.336 17.187 14.596 35.005 26.365 49.697 35.024 9.666 5.697 15.625 16.05 15.625 27.27h-37.381c-8.472 0-15.341 6.868-15.341 15.341v16.361c0 8.472 6.868 15.341 15.341 15.341h37.381v37.381c0 8.472 6.868 15.341 15.341 15.341h16.361c8.472 0 15.341-6.868 15.341-15.341v-37.381h37.381c8.472 0 15.341-6.868 15.341-15.341v-16.361c0-8.472-6.868-15.341-15.341-15.341h-37.381c0-11.22 5.959-21.573 15.625-27.27 14.692-8.659 32.51-20.429 49.697-35.025 36.295-30.824 57.807-63.909 63.94-98.336 4.765-26.742-2.036-54.043-18.66-74.902zm-23.512 67.391c-4.341 24.365-20.993 48.992-49.497 73.199-20.181 17.139-41.516 29.917-55.904 37.638-3.256 1.747-7.161 1.747-10.417 0-14.39-7.722-35.726-20.5-55.906-37.638-28.503-24.207-45.157-48.835-49.497-73.199-2.605-14.627 1.035-29.46 9.988-40.694 7.723-9.69 18.104-15.119 30.02-15.699.732-.036 1.473-.054 2.201-.054 11.413 0 22.186 4.398 30.336 12.384 1.111 1.089 21.91 20.202 32.28 29.728 3.269 3.002 8.289 3.003 11.558.001 10.374-9.526 31.182-28.642 32.293-29.732 8.147-7.984 18.922-12.381 30.335-12.381.729 0 1.47.018 2.203.054 11.916.581 22.296 6.01 30.018 15.7 8.955 11.234 12.594 26.065 9.989 40.693z" fill="url(#SVGID_1_)"/><path d="m300.409 193.202c-13.367-15.61-32.309-24.731-53.336-25.685-1.236-.056-2.489-.085-3.722-.085-19.701 0-38.299 7.066-52.367 19.895-2.541 2.318-4.884 4.777-7.019 7.359-2.134-2.581-4.477-5.04-7.018-7.358-14.069-12.83-32.666-19.896-52.366-19.896-1.233 0-2.486.028-3.722.085-21.027.954-39.968 10.075-53.335 25.684-14.433 16.854-20.339 38.914-16.202 60.523 5.325 27.818 24.002 54.55 55.513 79.455 24.222 19.145 49.9 32.278 63.05 38.402 4.351 2.027 9.221 3.098 14.083 3.098 4.861 0 9.731-1.071 14.082-3.098 13.151-6.125 38.828-19.258 63.05-38.402 31.51-24.905 50.188-51.638 55.512-79.455 4.135-21.608-1.77-43.668-16.203-60.522zm-20.413 54.452c-3.768 19.687-18.226 39.585-42.973 59.144-17.521 13.848-36.043 24.173-48.535 30.411-2.827 1.412-6.217 1.412-9.044 0-12.494-6.239-31.017-16.564-48.537-30.412-24.746-19.559-39.205-39.458-42.973-59.144-2.262-11.819.899-23.804 8.671-32.881 6.705-7.829 15.718-12.216 26.063-12.685.636-.029 1.279-.044 1.911-.044 9.908 0 19.262 3.553 26.338 10.006.965.88 19.022 16.323 28.025 24.02 2.838 2.426 7.197 2.426 10.035.001 9.006-7.697 27.071-23.143 28.037-24.023 7.073-6.451 16.428-10.004 26.337-10.004.633 0 1.276.015 1.913.044 10.345.469 19.357 4.856 26.062 12.685 7.772 9.079 10.932 21.063 8.67 32.882z" fill="url(#SVGID_2_)"/><path d="m256.654 142.913c-1.424-.069-2.867-.105-4.288-.105-22.692 0-44.114 8.745-60.318 24.623-2.927 2.868-5.625 5.912-8.084 9.106v53.471c2.07-.001 4.14-.751 5.773-2.251 10.374-9.526 31.182-28.642 32.293-29.732 8.147-7.984 18.922-12.381 30.335-12.381.729 0 1.47.018 2.203.054 11.916.581 22.296 6.01 30.018 15.7 8.954 11.235 12.593 26.066 9.988 40.694-4.341 24.365-20.993 48.992-49.497 73.199-20.181 17.139-41.516 29.917-55.904 37.638-1.628.874-3.419 1.31-5.209 1.31v155.761h8.181c8.472 0 15.34-6.868 15.34-15.341v-37.381h37.381c8.472 0 15.341-6.868 15.341-15.341v-16.361c0-8.472-6.868-15.341-15.341-15.341h-37.381c0-11.22 5.959-21.573 15.625-27.27 14.692-8.659 32.51-20.429 49.697-35.025 36.295-30.824 57.807-63.909 63.94-98.336 4.765-26.744-2.036-54.046-18.661-74.905-15.395-19.316-37.212-30.606-61.432-31.786z" fill="url(#SVGID_3_)"/></g><path d="m189.261 170.308v65.522c9.094-7.773 26.798-22.91 27.753-23.781 2.499-2.279 5.288-4.189 8.281-5.716l-36.03-36.03c-.002.002-.003.003-.004.005z" fill="url(#SVGID_4_)"/><g><g><path d="m396.633 133.694c-2.206-8.172.158-16.918 6.146-22.906l33.667-33.656-33.273-33.262-33.656 33.656c-5.988 5.988-14.723 8.352-22.906 6.146-17.098-4.615-39.689-9.5-64.126-11.493-47.456-3.872-86.065 4.311-114.746 24.325-22.287 15.534-36.774 39.656-39.768 66.164-.18 1.61-.326 3.219-.417 4.818-.732 12.371 1.148 24.37 5.448 35.446 3.624 9.32 8.971 17.987 15.927 25.653.957 1.047 1.959 2.094 2.961 3.095 16.04 16.051 37.37 25.011 60.063 25.248 4.097.034 8.149-.203 12.157-.732-.529 4.007-.765 8.059-.732 12.157.146 14.475 3.85 28.399 10.682 40.747.99-.754 1.981-1.52 2.96-2.296 5.144-4.063 9.849-8.149 14.093-12.235 6.326-6.09 11.662-12.202 15.995-18.314-.563-2.724-.867-5.504-.889-8.33-.022-1.553-1.216-29.784-1.812-43.854-.191-4.435-3.737-7.992-8.172-8.172-12.067-.518-34.523-1.463-41.67-1.733-1.193-.045-1.959-.079-2.184-.079-11.403-.113-22.13-4.626-30.2-12.697-.518-.506-1.024-1.047-1.52-1.587-4.525-4.986-7.609-10.727-9.174-16.997-1.238-4.829-1.564-9.973-.957-15.331 1.621-14.273 9.534-27.341 21.713-35.84 20.295-14.16 49.493-19.8 86.763-16.76 26.384 2.15 50.507 8.206 66.141 12.922 3.534 1.058 6.304 3.827 7.373 7.362 4.705 15.635 10.761 39.757 12.911 66.141 3.039 37.281-2.6 66.468-16.76 86.763-8.498 12.179-21.556 20.104-35.84 21.713-1.25.146-2.476.236-3.703.259-3.816 5.11-8.026 10.176-12.607 15.185-6.495 7.114-13.744 14.127-21.736 21.027 13.192 5.651 27.814 7.789 42.864 6.09 26.497-2.994 50.619-17.481 66.153-39.768 20.013-28.681 28.197-67.29 24.324-114.746-1.992-24.429-6.877-47.031-11.493-64.129z" fill="url(#SVGID_5_)"/><path d="m389.407 199.982c-3.591-30.662-12.461-58.104-17.425-71.736-1.643-4.514-4.334-8.712-7.767-12.157-3.444-3.433-7.643-6.123-12.157-7.767-13.62-4.964-41.063-13.834-71.736-17.425-39.892-4.671-71.995 1.024-95.43 16.929-18.213 12.359-29.626 32.125-31.348 54.255-.281 3.602-.293 7.181-.056 10.727 1.137 16.603 7.913 32.339 19.608 45.149.844.912 1.711 1.824 2.578 2.69 4.998 4.998 10.547 9.264 16.479 12.697 10.592 6.146 22.422 9.703 34.613 10.266 3.444.158 6.832.079 10.176-.248-.315 3.343-.405 6.731-.248 10.176.675 14.712 5.718 28.917 14.419 41.029 6.326-6.09 11.662-12.202 15.995-18.314 2.848-4.018 5.257-8.037 7.238-12.067-1.024-3.141-1.621-6.416-1.767-9.725-.056-1.306-1.902-25-2.837-36.808-.293-3.726-3.377-6.81-7.091-7.103-11.808-.923-35.502-2.769-36.808-2.825-.889-.045-1.767-.113-2.645-.225-8.588-1.013-16.693-4.975-23.053-11.324-.439-.45-.889-.912-1.317-1.384-6.315-6.923-9.602-15.342-9.568-24.493 0-.968.034-1.925.113-2.904.923-11.92 7.159-22.625 17.109-29.39 16.592-11.245 40.882-15.095 72.208-11.425 22.186 2.589 42.582 8.386 55.831 12.81 2.994 1.002 5.392 3.399 6.393 6.394 4.424 13.248 10.221 33.645 12.81 55.831 3.67 31.326-.169 55.617-11.425 72.208-4.829 7.103-11.673 12.326-19.529 15.05-3.838 7.136-8.386 14.194-13.642 21.162-3.816 5.11-8.026 10.176-12.607 15.185 7.035 1.576 14.329 2.116 21.702 1.542 22.13-1.711 41.896-13.136 54.255-31.348 15.905-23.438 21.6-55.541 16.929-95.432z" fill="url(#SVGID_6_)"/></g><g><path d="m440.123 129.63-11.155-24.616c-10.511-23.195-30.481-43.164-53.675-53.675l-24.616-11.155c-8.017-3.633-8.564-14.53-.735-14.263 40.721 1.39 78.262-7.07 109.651-24.709 9.976-5.606 25.109 9.527 19.503 19.503-17.64 31.389-26.099 68.931-24.709 109.651.267 7.828-10.631 7.281-14.264-.736z" fill="url(#SVGID_7_)"/><path d="m479.096 20.714c-17.639 31.389-26.099 68.931-24.709 109.652.267 7.829-10.63 7.282-14.263-.735l-11.155-24.616c-5.256-11.597-12.876-22.389-22.081-31.594l68.301-68.301c4.328 4.328 6.71 10.605 3.907 15.594z" fill="url(#SVGID_8_)"/></g></g><path d="m365.839 331.94-43.069-43.069c-3.838 7.136-8.386 14.194-13.642 21.162-3.816 5.11-8.026 10.176-12.607 15.185-6.495 7.114-13.744 14.127-21.736 21.027 13.192 5.651 27.814 7.789 42.864 6.09 17.754-2.007 34.437-9.18 48.19-20.395z" fill="url(#SVGID_9_)"/></g></svg>