<svg id="Capa_1" enable-background="new 0 0 510 510" height="512" viewBox="0 0 510 510" width="512" xmlns="http://www.w3.org/2000/svg" xmlns:xlink="http://www.w3.org/1999/xlink"><linearGradient id="SVGID_1_" gradientUnits="userSpaceOnUse" x1="212.937" x2="391.207" y1="171.917" y2="394.503"><stop offset="0" stop-color="#ff7044"/><stop offset="1" stop-color="#f82814"/></linearGradient><linearGradient id="SVGID_2_" gradientUnits="userSpaceOnUse" x1="315.315" x2="389.133" y1="335.302" y2="493.071"><stop offset="0" stop-color="#f82814" stop-opacity="0"/><stop offset="1" stop-color="#c0272d"/></linearGradient><linearGradient id="lg1"><stop offset="0" stop-color="#ffd945"/><stop offset=".3043" stop-color="#ffcd3e"/><stop offset=".8558" stop-color="#ffad2b"/><stop offset="1" stop-color="#ffa325"/></linearGradient><linearGradient id="SVGID_3_" gradientUnits="userSpaceOnUse" x1="256.022" x2="281.29" xlink:href="#lg1" y1="36.742" y2="73.631"/><linearGradient id="SVGID_4_" gradientTransform="matrix(.894 -.448 .448 .894 -13.692 123.488)" gradientUnits="userSpaceOnUse" x1="239.405" x2="264.674" xlink:href="#lg1" y1="44.21" y2="81.099"/><linearGradient id="SVGID_5_" gradientTransform="matrix(-.894 -.448 -.448 .894 447.312 123.488)" gradientUnits="userSpaceOnUse" x1="164.19" x2="189.459" xlink:href="#lg1" y1="6.489" y2="43.378"/><g><g><path d="m507.543 245.515c-10.142 56.906-45.704 111.588-105.696 162.544-46.112 39.16-94.995 66.024-120.03 78.553-4.145 2.073-8.535 3.656-13.042 4.728-4.518 1.06-9.141 1.607-13.775 1.607-9.257 0-18.526-2.189-26.805-6.335-25.035-12.529-73.93-39.393-120.042-78.553-10.841-9.211-20.89-18.538-30.124-27.982-.885-.908-15.545-16.873-15.615-16.954l-.012-.012c-32.628-37.715-52.726-77.085-59.946-117.596-7.872-44.202 3.377-89.336 30.858-123.815 25.443-31.929 61.506-50.595 101.539-52.54 2.352-.116 4.739-.175 7.08-.175 27.932 0 54.701 8.015 77.606 22.95 8.401 5.478 11.593 16.245 7.602 25.446l-3.686 8.499-24.616 56.766c-3.389 7.825-2.632 16.849 2.038 23.999l21.146 32.395c4.495 6.893 4.646 15.743.396 22.776l-11.714 19.341c-6.684 11.039-5.508 25.129 2.923 34.898l19.772 22.916c2.737 3.179 7.86.361 6.661-3.645l-5.158-17.21c-2.271-7.546-1.036-15.708 3.342-22.253l11.97-17.886c5.554-8.302 5.95-19.015 1.036-27.702l-13.461-23.801c-4.145-7.324-5.275-15.988-3.132-24.139l13.403-51.119 3.473-13.252c2.544-9.707 7.425-18.69 14.43-25.875.791-.811 1.592-1.614 2.405-2.409 26.782-26.247 62.181-40.697 99.699-40.697 2.34 0 4.727.058 7.08.175 25.035 1.211 48.511 8.966 68.807 22.404v.012c17.421 10.799 31.975 29.158 32.744 30.124 27.468 34.481 38.716 79.615 30.844 123.817z" fill="url(#SVGID_1_)"/><path d="m476.694 121.703c-9.539-11.97-20.57-22.074-32.742-30.133 22.221 32.998 30.836 73.899 23.684 114.042-10.137 56.905-45.696 111.592-105.688 162.541-46.115 39.163-95.001 66.03-120.039 78.559-8.284 4.146-17.556 6.337-26.811 6.337-9.256 0-18.527-2.191-26.811-6.337-25.034-12.529-73.922-39.395-120.039-78.559-1.976-1.678-3.921-3.36-5.844-5.046 13.208 15.268 28.456 30.264 45.746 44.948 46.116 39.165 95.004 66.031 120.039 78.559 8.284 4.146 17.556 6.337 26.811 6.337 9.256 0 18.527-2.191 26.811-6.337 25.037-12.529 73.924-39.396 120.039-78.559 59.992-50.949 95.551-105.636 105.688-162.541 7.876-44.205-3.366-89.333-30.844-123.811z" fill="url(#SVGID_2_)"/></g><g><path d="m258.881 64.785c-6.431 0-11.644-5.213-11.644-11.644v-24.448c0-6.431 5.213-11.644 11.644-11.644 6.431 0 11.644 5.213 11.644 11.644v24.448c.001 6.431-5.213 11.644-11.644 11.644z" fill="url(#SVGID_3_)"/><g><path d="m235.255 79.468c-5.749 2.883-12.746.56-15.629-5.189l-10.96-21.854c-2.883-5.749-.56-12.746 5.189-15.629 5.749-2.883 12.746-.56 15.629 5.189l10.96 21.854c2.883 5.749.56 12.746-5.189 15.629z" fill="url(#SVGID_4_)"/><path d="m282.508 79.468c5.749 2.883 12.746.56 15.629-5.189l10.96-21.854c2.883-5.749.56-12.746-5.189-15.629-5.749-2.883-12.746-.56-15.629 5.189l-10.96 21.854c-2.883 5.749-.56 12.746 5.189 15.629z" fill="url(#SVGID_5_)"/></g></g></g></svg>