<svg id="Capa_1" enable-background="new 0 0 510 510" height="512" viewBox="0 0 510 510" width="512" xmlns="http://www.w3.org/2000/svg" xmlns:xlink="http://www.w3.org/1999/xlink"><linearGradient id="lg1"><stop offset="0" stop-color="#c4d143"/><stop offset="1" stop-color="#7c8a1a"/></linearGradient><linearGradient id="SVGID_1_" gradientTransform="matrix(.676 -.737 .603 .553 -556.153 255.138)" gradientUnits="userSpaceOnUse" x1="559.855" x2="640.932" xlink:href="#lg1" y1="521.688" y2="567.592"/><linearGradient id="lg2"><stop offset="0" stop-color="#7c8a1a" stop-opacity="0"/><stop offset=".3152" stop-color="#768319" stop-opacity=".315"/><stop offset=".7806" stop-color="#646f15" stop-opacity=".781"/><stop offset="1" stop-color="#5a6313"/></linearGradient><linearGradient id="SVGID_2_" gradientTransform="matrix(.676 -.737 .603 .553 -556.153 255.138)" gradientUnits="userSpaceOnUse" x1="618.515" x2="476.225" xlink:href="#lg2" y1="551.13" y2="509.455"/><linearGradient id="SVGID_3_" gradientTransform="matrix(-.676 -.737 -.603 .553 931.058 255.138)" gradientUnits="userSpaceOnUse" x1="471.039" x2="552.117" xlink:href="#lg1" y1="403.194" y2="449.099"/><linearGradient id="SVGID_4_" gradientTransform="matrix(-.676 -.737 -.603 .553 931.058 255.138)" gradientUnits="userSpaceOnUse" x1="529.699" x2="387.41" xlink:href="#lg2" y1="432.637" y2="390.962"/><linearGradient id="SVGID_5_" gradientTransform="matrix(.936 -.351 .287 .766 -496.543 -118.273)" gradientUnits="userSpaceOnUse" x1="545.866" x2="626.944" xlink:href="#lg1" y1="510.325" y2="556.23"/><linearGradient id="SVGID_6_" gradientTransform="matrix(.936 -.351 .287 .766 -496.543 -118.273)" gradientUnits="userSpaceOnUse" x1="604.526" x2="462.237" xlink:href="#lg2" y1="539.768" y2="498.093"/><linearGradient id="SVGID_7_" gradientTransform="matrix(.937 .349 -.286 .766 -1372.035 -1601.7)" gradientUnits="userSpaceOnUse" x1="2120.903" x2="2179.26" xlink:href="#lg1" y1="1199.317" y2="1232.357"/><linearGradient id="SVGID_8_" gradientTransform="matrix(.937 .349 -.286 .766 -1372.035 -1601.7)" gradientUnits="userSpaceOnUse" x1="2166.845" x2="2085.747" xlink:href="#lg2" y1="1221.845" y2="1198.093"/><linearGradient id="SVGID_9_" gradientTransform="matrix(1 -.002 .002 .818 -1103.666 -796.384)" gradientUnits="userSpaceOnUse" x1="1317.565" x2="1385.283" xlink:href="#lg1" y1="1053.342" y2="1091.682"/><linearGradient id="SVGID_10_" gradientTransform="matrix(1 -.002 .002 .818 -1103.666 -796.384)" gradientUnits="userSpaceOnUse" x1="1369.039" x2="1261.82" xlink:href="#lg2" y1="1078.939" y2="1047.536"/><linearGradient id="SVGID_11_" gradientUnits="userSpaceOnUse" x1="254.843" x2="254.843" y1="109.227" y2="143.881"><stop offset="0" stop-color="#5a6313" stop-opacity="0"/><stop offset="1" stop-color="#544f43"/></linearGradient><linearGradient id="lg3"><stop offset="0" stop-color="#ff7044"/><stop offset="1" stop-color="#f82814"/></linearGradient><linearGradient id="SVGID_12_" gradientUnits="userSpaceOnUse" x1="220.913" x2="365.364" xlink:href="#lg3" y1="186.76" y2="367.121"/><linearGradient id="SVGID_13_" gradientUnits="userSpaceOnUse" x1="136.791" x2="73.438" xlink:href="#lg3" y1="178.069" y2="178.069"/><linearGradient id="lg4"><stop offset="0" stop-color="#ffd945"/><stop offset=".2567" stop-color="#ffd442"/><stop offset=".5511" stop-color="#ffc63a"/><stop offset=".8628" stop-color="#ffb02c"/><stop offset="1" stop-color="#ffa325"/></linearGradient><linearGradient id="SVGID_14_" gradientUnits="userSpaceOnUse" x1="104.977" x2="116.448" xlink:href="#lg4" y1="178.069" y2="178.069"/><linearGradient id="SVGID_15_" gradientUnits="userSpaceOnUse" x1="207.233" x2="143.88" xlink:href="#lg3" y1="178.069" y2="178.069"/><linearGradient id="SVGID_16_" gradientUnits="userSpaceOnUse" x1="175.419" x2="186.89" xlink:href="#lg4" y1="178.069" y2="178.069"/><linearGradient id="SVGID_17_" gradientUnits="userSpaceOnUse" x1="277.675" x2="214.322" xlink:href="#lg3" y1="178.069" y2="178.069"/><linearGradient id="SVGID_18_" gradientUnits="userSpaceOnUse" x1="245.861" x2="257.332" xlink:href="#lg4" y1="178.069" y2="178.069"/><linearGradient id="SVGID_19_" gradientUnits="userSpaceOnUse" x1="348.117" x2="284.764" xlink:href="#lg3" y1="178.069" y2="178.069"/><linearGradient id="SVGID_20_" gradientUnits="userSpaceOnUse" x1="316.303" x2="327.774" xlink:href="#lg4" y1="178.069" y2="178.069"/><linearGradient id="SVGID_21_" gradientUnits="userSpaceOnUse" x1="418.559" x2="355.206" xlink:href="#lg3" y1="178.069" y2="178.069"/><linearGradient id="SVGID_22_" gradientUnits="userSpaceOnUse" x1="386.745" x2="398.217" xlink:href="#lg4" y1="178.069" y2="178.069"/><linearGradient id="SVGID_23_" gradientUnits="userSpaceOnUse" x1="136.791" x2="73.438" xlink:href="#lg3" y1="292.259" y2="292.259"/><linearGradient id="SVGID_24_" gradientUnits="userSpaceOnUse" x1="104.977" x2="116.448" xlink:href="#lg4" y1="292.259" y2="292.259"/><linearGradient id="SVGID_25_" gradientUnits="userSpaceOnUse" x1="207.233" x2="143.88" xlink:href="#lg3" y1="292.259" y2="292.259"/><linearGradient id="SVGID_26_" gradientUnits="userSpaceOnUse" x1="175.419" x2="186.89" xlink:href="#lg4" y1="292.259" y2="292.259"/><linearGradient id="SVGID_27_" gradientUnits="userSpaceOnUse" x1="277.675" x2="214.322" xlink:href="#lg3" y1="292.259" y2="292.259"/><linearGradient id="SVGID_28_" gradientUnits="userSpaceOnUse" x1="245.861" x2="257.332" xlink:href="#lg4" y1="292.259" y2="292.259"/><linearGradient id="SVGID_29_" gradientUnits="userSpaceOnUse" x1="348.117" x2="284.764" xlink:href="#lg3" y1="292.259" y2="292.259"/><linearGradient id="SVGID_30_" gradientUnits="userSpaceOnUse" x1="316.303" x2="327.774" xlink:href="#lg4" y1="292.259" y2="292.259"/><linearGradient id="SVGID_31_" gradientUnits="userSpaceOnUse" x1="418.559" x2="355.206" xlink:href="#lg3" y1="292.259" y2="292.259"/><linearGradient id="SVGID_32_" gradientUnits="userSpaceOnUse" x1="386.745" x2="398.217" xlink:href="#lg4" y1="292.259" y2="292.259"/><linearGradient id="SVGID_33_" gradientUnits="userSpaceOnUse" x1="175.023" x2="111.67" xlink:href="#lg3" y1="349.354" y2="349.354"/><linearGradient id="SVGID_34_" gradientUnits="userSpaceOnUse" x1="143.209" x2="154.68" xlink:href="#lg4" y1="349.354" y2="349.354"/><linearGradient id="SVGID_35_" gradientUnits="userSpaceOnUse" x1="245.465" x2="182.112" xlink:href="#lg3" y1="349.354" y2="349.354"/><linearGradient id="SVGID_36_" gradientUnits="userSpaceOnUse" x1="213.651" x2="225.122" xlink:href="#lg4" y1="349.354" y2="349.354"/><linearGradient id="SVGID_37_" gradientUnits="userSpaceOnUse" x1="315.907" x2="252.554" xlink:href="#lg3" y1="349.354" y2="349.354"/><linearGradient id="SVGID_38_" gradientUnits="userSpaceOnUse" x1="284.093" x2="295.564" xlink:href="#lg4" y1="349.354" y2="349.354"/><linearGradient id="SVGID_39_" gradientUnits="userSpaceOnUse" x1="386.349" x2="322.996" xlink:href="#lg3" y1="349.354" y2="349.354"/><linearGradient id="SVGID_40_" gradientUnits="userSpaceOnUse" x1="354.535" x2="366.007" xlink:href="#lg4" y1="349.354" y2="349.354"/><linearGradient id="SVGID_41_" gradientUnits="userSpaceOnUse" x1="104.581" x2="41.228" xlink:href="#lg3" y1="235.164" y2="235.164"/><linearGradient id="SVGID_42_" gradientUnits="userSpaceOnUse" x1="72.767" x2="84.238" xlink:href="#lg4" y1="235.164" y2="235.164"/><linearGradient id="SVGID_43_" gradientUnits="userSpaceOnUse" x1="175.023" x2="111.67" xlink:href="#lg3" y1="235.164" y2="235.164"/><linearGradient id="SVGID_44_" gradientUnits="userSpaceOnUse" x1="143.209" x2="154.68" xlink:href="#lg4" y1="235.164" y2="235.164"/><linearGradient id="SVGID_45_" gradientUnits="userSpaceOnUse" x1="245.465" x2="182.112" xlink:href="#lg3" y1="235.164" y2="235.164"/><linearGradient id="SVGID_46_" gradientUnits="userSpaceOnUse" x1="213.651" x2="225.122" xlink:href="#lg4" y1="235.164" y2="235.164"/><linearGradient id="SVGID_47_" gradientUnits="userSpaceOnUse" x1="315.907" x2="252.554" xlink:href="#lg3" y1="235.164" y2="235.164"/><linearGradient id="SVGID_48_" gradientUnits="userSpaceOnUse" x1="284.093" x2="295.564" xlink:href="#lg4" y1="235.164" y2="235.164"/><linearGradient id="SVGID_49_" gradientUnits="userSpaceOnUse" x1="386.349" x2="322.996" xlink:href="#lg3" y1="235.164" y2="235.164"/><linearGradient id="SVGID_50_" gradientUnits="userSpaceOnUse" x1="354.535" x2="366.007" xlink:href="#lg4" y1="235.164" y2="235.164"/><linearGradient id="SVGID_51_" gradientUnits="userSpaceOnUse" x1="456.792" x2="393.439" xlink:href="#lg3" y1="235.164" y2="235.164"/><linearGradient id="SVGID_52_" gradientUnits="userSpaceOnUse" x1="424.978" x2="436.449" xlink:href="#lg4" y1="235.164" y2="235.164"/><radialGradient id="SVGID_53_" cx="175.638" cy="164.98" gradientUnits="userSpaceOnUse" r="269.148"><stop offset="0" stop-color="#f82814" stop-opacity="0"/><stop offset=".2832" stop-color="#f42816" stop-opacity=".283"/><stop offset=".5389" stop-color="#e9281a" stop-opacity=".539"/><stop offset=".783" stop-color="#d72723" stop-opacity=".783"/><stop offset="1" stop-color="#c0272d"/></radialGradient><linearGradient id="lg5"><stop offset="0" stop-color="#f82814" stop-opacity="0"/><stop offset="1" stop-color="#c0272d"/></linearGradient><linearGradient id="SVGID_54_" gradientUnits="userSpaceOnUse" x1="303.873" x2="363.688" xlink:href="#lg5" y1="319.149" y2="446.989"/><linearGradient id="SVGID_55_" gradientUnits="userSpaceOnUse" x1="289.169" x2="99.037" xlink:href="#lg5" y1="239.286" y2="45.425"/><linearGradient id="lg6"><stop offset="0" stop-color="#fcb37e"/><stop offset="1" stop-color="#8c6239"/></linearGradient><linearGradient id="SVGID_56_" gradientUnits="userSpaceOnUse" x1="266.76" x2="288.26" xlink:href="#lg6" y1="470.436" y2="487.436"/><linearGradient id="SVGID_57_" gradientUnits="userSpaceOnUse" x1="190.425" x2="316.311" xlink:href="#lg6" y1="277.713" y2="439.566"/><linearGradient id="SVGID_58_" gradientUnits="userSpaceOnUse" x1="315.018" x2="289.802" y1="409.72" y2="516.156"><stop offset="0" stop-color="#8c6239" stop-opacity="0"/><stop offset=".5198" stop-color="#734a23" stop-opacity=".52"/><stop offset="1" stop-color="#603813"/></linearGradient><g><g><g><path d="m136.523 118.25c25.724 17.977 79.016 42.337 111.358 43.266 3.159.091 5.734-2.204 5.238-4.668-5.082-25.224-42.094-64.094-67.818-82.071s-36.024-12.168-68.365-13.097c-3.159-.091-5.734 2.204-5.238 4.668 5.083 25.224-.899 33.925 24.825 51.902z" fill="url(#SVGID_1_)"/><path d="m253.119 156.847c-5.082-25.224-42.094-64.094-67.818-82.071-25.724-17.976-36.024-12.167-68.365-13.096-1.58-.045-3.013.506-3.99 1.376l138.925 97.083c.976-.87 1.496-2.06 1.248-3.292z" fill="url(#SVGID_2_)"/></g><g><path d="m369.837 118.25c-25.724 17.977-79.016 42.337-111.358 43.266-3.159.091-5.734-2.204-5.238-4.668 5.082-25.224 42.094-64.094 67.818-82.071s36.024-12.167 68.365-13.096c3.159-.091 5.734 2.204 5.238 4.668-5.082 25.223.9 33.924-24.825 51.901z" fill="url(#SVGID_3_)"/><path d="m253.242 156.847c5.082-25.224 42.094-64.094 67.818-82.071s36.024-12.167 68.365-13.096c1.58-.045 3.013.506 3.99 1.376l-138.925 97.083c-.977-.87-1.496-2.06-1.248-3.292z" fill="url(#SVGID_4_)"/></g><g><g><path d="m166.65 69.627c14.792 27.678 51.271 73.534 79.685 89.01 2.775 1.512 6.111.632 6.784-1.79 6.893-24.79-8.499-76.208-23.291-103.887-14.792-27.678-26.606-27.164-55.019-42.64-2.775-1.512-6.111-.632-6.784 1.79-6.894 24.79-16.167 29.839-1.375 57.517z" fill="url(#SVGID_5_)"/><path d="m253.119 156.847c6.893-24.79-8.499-76.208-23.291-103.887-14.792-27.678-26.606-27.164-55.019-42.64-1.388-.756-2.915-.914-4.18-.58l79.887 149.477c1.264-.334 2.266-1.159 2.603-2.37z" fill="url(#SVGID_6_)"/></g><g><path d="m279.8 53.109c-14.773 27.683-30.214 79.046-23.273 103.777.678 2.416 4.019 3.284 6.797 1.766 28.433-15.543 65-61.418 79.774-89.101 14.773-27.683 5.376-32.722-1.565-57.453-.678-2.416-4.02-3.284-6.797-1.765-28.433 15.542-40.163 15.092-54.936 42.776z" fill="url(#SVGID_7_)"/><path d="m263.324 158.652c28.433-15.543 65-61.418 79.774-89.101 14.773-27.683 5.376-32.722-1.565-57.453-.339-1.208-1.344-2.029-2.611-2.358l-79.783 149.504c1.267.329 2.796.167 4.185-.592z" fill="url(#SVGID_8_)"/></g></g><g><path d="m221.088 55.149c.065 29.552 11.392 81.438 30.304 102.884 1.847 2.095 5.412 2.085 7.25-.019 18.817-21.547 30.025-73.493 29.959-103.045-.065-29.552-11.392-31.957-30.304-53.403-1.847-2.095-5.411-2.085-7.25.019-18.817 21.547-30.025 24.012-29.959 53.564z" fill="url(#SVGID_9_)"/><path d="m258.641 158.013c18.817-21.547 30.025-73.493 29.959-103.045-.065-29.552-11.392-31.957-30.304-53.403-.924-1.047-2.276-1.569-3.628-1.565l.352 159.598c1.352-.004 2.702-.532 3.621-1.585z" fill="url(#SVGID_10_)"/></g><path d="m189.628 104.257c17 22.084 38.505 44.465 56.707 54.38 1.976 1.076 4.231.935 5.612-.106 1.674 1.347 4.201 1.413 5.94.166 1.395.914 3.546.989 5.437-.045 18.197-9.947 39.719-32.319 56.734-54.395z" fill="url(#SVGID_11_)"/></g><g><path d="m255 446.893c-7.5 0-15.013-1.776-21.725-5.135-20.285-10.152-59.899-31.921-97.267-63.657-48.611-41.284-77.425-85.596-85.64-131.707-6.381-35.82 2.729-72.387 24.995-100.325 20.622-25.873 49.842-40.994 82.28-42.575 1.907-.093 3.84-.14 5.743-.14 30.391 0 59.082 11.713 80.786 32.98 3.92 3.842 7.535 7.918 10.827 12.196 3.293-4.279 6.908-8.356 10.828-12.198 21.703-21.267 50.394-32.979 80.787-32.979 1.903 0 3.835.047 5.743.14 32.438 1.581 61.66 16.701 82.281 42.576 22.266 27.938 31.375 64.504 24.993 100.324-8.214 46.11-37.027 90.423-85.639 131.707-37.367 31.734-76.979 53.504-97.267 63.657-6.712 3.36-14.225 5.136-21.725 5.136z" fill="url(#SVGID_12_)"/><g><g><g><ellipse cx="114.116" cy="178.069" fill="url(#SVGID_13_)" rx="11.728" ry="22.115"/><ellipse cx="114.116" cy="178.069" fill="url(#SVGID_14_)" rx="7.281" ry="17.033"/></g><g><ellipse cx="184.558" cy="178.069" fill="url(#SVGID_15_)" rx="11.728" ry="22.115"/><ellipse cx="184.558" cy="178.069" fill="url(#SVGID_16_)" rx="7.281" ry="17.033"/></g><g><ellipse cx="255" cy="178.069" fill="url(#SVGID_17_)" rx="11.728" ry="22.115"/><ellipse cx="255" cy="178.069" fill="url(#SVGID_18_)" rx="7.281" ry="17.033"/></g><g><ellipse cx="325.442" cy="178.069" fill="url(#SVGID_19_)" rx="11.728" ry="22.115"/><ellipse cx="325.442" cy="178.069" fill="url(#SVGID_20_)" rx="7.281" ry="17.033"/></g><g><ellipse cx="395.884" cy="178.069" fill="url(#SVGID_21_)" rx="11.728" ry="22.115"/><ellipse cx="395.884" cy="178.069" fill="url(#SVGID_22_)" rx="7.281" ry="17.033"/></g></g><g><g><ellipse cx="114.116" cy="292.259" fill="url(#SVGID_23_)" rx="11.728" ry="22.115"/><ellipse cx="114.116" cy="292.259" fill="url(#SVGID_24_)" rx="7.281" ry="17.033"/></g><g><ellipse cx="184.558" cy="292.259" fill="url(#SVGID_25_)" rx="11.728" ry="22.115"/><ellipse cx="184.558" cy="292.259" fill="url(#SVGID_26_)" rx="7.281" ry="17.033"/></g><g><ellipse cx="255" cy="292.259" fill="url(#SVGID_27_)" rx="11.728" ry="22.115"/><ellipse cx="255" cy="292.259" fill="url(#SVGID_28_)" rx="7.281" ry="17.033"/></g><g><ellipse cx="325.442" cy="292.259" fill="url(#SVGID_29_)" rx="11.728" ry="22.115"/><ellipse cx="325.442" cy="292.259" fill="url(#SVGID_30_)" rx="7.281" ry="17.033"/></g><g><ellipse cx="395.884" cy="292.259" fill="url(#SVGID_31_)" rx="11.728" ry="22.115"/><ellipse cx="395.884" cy="292.259" fill="url(#SVGID_32_)" rx="7.281" ry="17.033"/></g></g><g><g><ellipse cx="152.348" cy="349.354" fill="url(#SVGID_33_)" rx="11.728" ry="22.115"/><ellipse cx="152.348" cy="349.354" fill="url(#SVGID_34_)" rx="7.281" ry="17.033"/></g><g><ellipse cx="222.79" cy="349.354" fill="url(#SVGID_35_)" rx="11.728" ry="22.115"/><ellipse cx="222.79" cy="349.354" fill="url(#SVGID_36_)" rx="7.281" ry="17.033"/></g><g><ellipse cx="293.232" cy="349.354" fill="url(#SVGID_37_)" rx="11.728" ry="22.115"/><ellipse cx="293.232" cy="349.354" fill="url(#SVGID_38_)" rx="7.281" ry="17.033"/></g><g><ellipse cx="363.674" cy="349.354" fill="url(#SVGID_39_)" rx="11.728" ry="22.115"/><ellipse cx="363.674" cy="349.354" fill="url(#SVGID_40_)" rx="7.281" ry="17.033"/></g></g><g><g><ellipse cx="81.906" cy="235.164" fill="url(#SVGID_41_)" rx="11.728" ry="22.115"/><ellipse cx="81.906" cy="235.164" fill="url(#SVGID_42_)" rx="7.281" ry="17.033"/></g><g><ellipse cx="152.348" cy="235.164" fill="url(#SVGID_43_)" rx="11.728" ry="22.115"/><ellipse cx="152.348" cy="235.164" fill="url(#SVGID_44_)" rx="7.281" ry="17.033"/></g><g><ellipse cx="222.79" cy="235.164" fill="url(#SVGID_45_)" rx="11.728" ry="22.115"/><ellipse cx="222.79" cy="235.164" fill="url(#SVGID_46_)" rx="7.281" ry="17.033"/></g><g><ellipse cx="293.232" cy="235.164" fill="url(#SVGID_47_)" rx="11.728" ry="22.115"/><ellipse cx="293.232" cy="235.164" fill="url(#SVGID_48_)" rx="7.281" ry="17.033"/></g><g><ellipse cx="363.674" cy="235.164" fill="url(#SVGID_49_)" rx="11.728" ry="22.115"/><ellipse cx="363.674" cy="235.164" fill="url(#SVGID_50_)" rx="7.281" ry="17.033"/></g><g><g><ellipse cx="434.117" cy="235.164" fill="url(#SVGID_51_)" rx="11.728" ry="22.115"/><ellipse cx="434.117" cy="235.164" fill="url(#SVGID_52_)" rx="7.281" ry="17.033"/></g></g></g></g><path d="m255 446.893c-7.5 0-15.013-1.776-21.725-5.135-20.285-10.152-59.899-31.921-97.267-63.657-48.611-41.284-77.425-85.596-85.64-131.707-6.381-35.82 2.729-72.387 24.995-100.325 20.622-25.873 49.842-40.994 82.28-42.575 1.907-.093 3.84-.14 5.743-.14 30.391 0 59.082 11.713 80.786 32.98 3.92 3.842 7.535 7.918 10.827 12.196 3.293-4.279 6.908-8.356 10.828-12.198 21.703-21.267 50.394-32.979 80.787-32.979 1.903 0 3.835.047 5.743.14 32.438 1.581 61.66 16.701 82.281 42.576 22.266 27.938 31.375 64.504 24.993 100.324-8.214 46.11-37.027 90.423-85.639 131.707-37.367 31.734-76.979 53.504-97.267 63.657-6.712 3.36-14.225 5.136-21.725 5.136z" fill="url(#SVGID_53_)"/><path d="m434.638 146.07c-7.73-9.699-16.668-17.886-26.53-24.417 18.005 26.738 24.987 59.881 19.191 92.408-8.214 46.11-37.027 90.423-85.639 131.707-37.367 31.734-76.979 53.504-97.267 63.657-6.713 3.36-14.225 5.135-21.725 5.135s-15.013-1.776-21.725-5.135c-20.285-10.152-59.899-31.921-97.267-63.657-1.601-1.36-3.177-2.723-4.735-4.089 10.702 12.372 23.058 24.523 37.068 36.421 37.368 31.735 76.982 53.505 97.267 63.657 6.713 3.359 14.225 5.135 21.725 5.135s15.013-1.775 21.725-5.135c20.288-10.153 59.9-31.923 97.267-63.657 48.612-41.284 77.425-85.597 85.639-131.707 6.382-35.818-2.728-72.385-24.994-100.323z" fill="url(#SVGID_54_)"/><path d="m352.357 103.494c-1.907-.093-3.84-.14-5.743-.14-30.393 0-59.084 11.712-80.787 32.979-3.92 3.842-7.534 7.918-10.827 12.196v298.363c7.5 0 15.013-1.775 21.725-5.135 20.288-10.153 59.9-31.923 97.267-63.657 48.612-41.284 77.425-85.597 85.639-131.707 6.382-35.82-2.727-72.386-24.993-100.324-20.621-25.874-49.843-40.994-82.281-42.575z" fill="url(#SVGID_55_)"/></g><path d="m294.184 486.995c0 6.923-5.677 12.536-12.68 12.536s-12.68-5.613-12.68-12.536 5.677-24.526 12.68-24.526 12.68 17.603 12.68 24.526z" fill="url(#SVGID_56_)"/><path d="m371.452 347.444c0 12.78-10.36 23.14-23.14 23.14-12.78 0-23.14-10.36-23.14-23.14 0-8.272-6.706-14.977-14.977-14.977h-21.87c-14.434 0-26.134-11.701-26.134-26.134 0-19.986-16.202-36.188-36.188-36.188-19.986 0-36.188 16.202-36.188 36.188v38.277c0 14.156-11.476 25.633-25.633 25.633-14.156 0-25.633-11.476-25.633-25.633 0-12.29-9.963-22.253-22.253-22.253h-9.415c-13.926 0-21.366 16.499-12.064 26.863 10.361 11.542 22.108 22.896 35.228 34.043.469.399.938.798 1.407 1.185 2.357 1.994 4.727 3.941 7.096 5.841 11.325 9.131 22.712 17.389 33.621 24.731 11.068 7.449 17.644 19.972 17.644 33.313v25.48c0 19.986 16.202 36.188 36.188 36.188 19.986 0 36.188-16.202 36.188-36.188 0-10.786 8.744-19.53 19.53-19.53h20.558c12.644 0 22.894-10.25 22.894-22.894 0-5.03 2.549-9.702 6.76-12.454 12.669-8.28 26.132-17.852 39.52-28.646 1.818-1.466 3.648-2.956 5.465-4.469 1.009-.844 2.029-1.701 3.038-2.557 6.982-5.928 13.575-11.917 19.776-17.962 12.295-11.986 3.869-32.834-13.302-32.834-8.271-.001-14.976 6.705-14.976 14.977z" fill="url(#SVGID_57_)"/><path d="m386.429 332.466c-8.272 0-14.977 6.705-14.977 14.977 0 12.78-10.36 23.14-23.14 23.14-12.78 0-23.14-10.36-23.14-23.14 0-8.272-6.706-14.977-14.977-14.977h-21.87c-14.434 0-26.134-11.701-26.134-26.134v167.48c0-10.786 8.744-19.53 19.53-19.53h20.558c12.644 0 22.894-10.25 22.894-22.894 0-5.03 2.549-9.702 6.76-12.454 12.669-8.28 26.132-17.852 39.52-28.646 1.818-1.466 3.648-2.956 5.465-4.469 1.009-.844 2.029-1.701 3.038-2.557 6.982-5.928 13.575-11.917 19.776-17.962 12.294-11.986 3.868-32.834-13.303-32.834z" fill="url(#SVGID_58_)"/></g></svg>