<svg id="Capa_1" enable-background="new 0 0 510 510" height="512" viewBox="0 0 510 510" width="512" xmlns="http://www.w3.org/2000/svg" xmlns:xlink="http://www.w3.org/1999/xlink"><linearGradient id="SVGID_1_" gradientUnits="userSpaceOnUse" x1="294.733" x2="411.474" y1="67.407" y2="213.168"><stop offset="0" stop-color="#ff7044"/><stop offset="1" stop-color="#f82814"/></linearGradient><linearGradient id="lg1"><stop offset="0" stop-color="#f82814" stop-opacity="0"/><stop offset="1" stop-color="#c0272d"/></linearGradient><linearGradient id="SVGID_2_" gradientUnits="userSpaceOnUse" x1="361.778" x2="410.119" xlink:href="#lg1" y1="174.399" y2="277.715"/><linearGradient id="SVGID_3_" gradientUnits="userSpaceOnUse" x1="349.895" x2="196.236" xlink:href="#lg1" y1="109.856" y2="-46.816"/><linearGradient id="SVGID_4_" gradientUnits="userSpaceOnUse" x1="60.922" x2="120.172" y1="138.818" y2="138.818"><stop offset="0" stop-color="#ffd945"/><stop offset=".3043" stop-color="#ffcd3e"/><stop offset=".8558" stop-color="#ffad2b"/><stop offset="1" stop-color="#ffa325"/></linearGradient><linearGradient id="SVGID_5_" gradientUnits="userSpaceOnUse" x1="99.972" x2="-92.927" y1="140.512" y2="34.685"><stop offset="0" stop-color="#f35227" stop-opacity="0"/><stop offset="1" stop-color="#f35227"/></linearGradient><linearGradient id="lg2"><stop offset="0" stop-color="#65e0db"/><stop offset=".199" stop-color="#60dcd6"/><stop offset=".4277" stop-color="#53d0c8"/><stop offset=".671" stop-color="#3cbcb1"/><stop offset=".9229" stop-color="#1ca191"/><stop offset="1" stop-color="#119786"/></linearGradient><linearGradient id="SVGID_6_" gradientUnits="userSpaceOnUse" x1="106.544" x2="141.373" xlink:href="#lg2" y1="324.218" y2="621.605"/><linearGradient id="lg3"><stop offset="0" stop-color="#65e0db" stop-opacity="0"/><stop offset=".1625" stop-color="#49c8bf" stop-opacity=".163"/><stop offset=".3526" stop-color="#31b3a6" stop-opacity=".353"/><stop offset=".5508" stop-color="#1fa394" stop-opacity=".551"/><stop offset=".7603" stop-color="#149a89" stop-opacity=".76"/><stop offset="1" stop-color="#119786"/></linearGradient><linearGradient id="SVGID_8_" gradientUnits="userSpaceOnUse" x1="107.159" x2="178.826" xlink:href="#lg3" y1="304.554" y2="608.638"/><linearGradient id="SVGID_9_" gradientUnits="userSpaceOnUse" x1="246.54" x2="281.369" xlink:href="#lg2" y1="306.131" y2="603.518"/><linearGradient id="SVGID_10_" gradientUnits="userSpaceOnUse" x1="325.944" x2="120.262" xlink:href="#lg2" y1="402.65" y2="402.65"/><linearGradient id="SVGID_11_" gradientUnits="userSpaceOnUse" x1="405.065" x2="439.894" xlink:href="#lg2" y1="285.787" y2="583.174"/><linearGradient id="SVGID_12_" gradientUnits="userSpaceOnUse" x1="415.857" x2="415.857" xlink:href="#lg2" y1="300.839" y2="514.528"/><linearGradient id="SVGID_13_" gradientUnits="userSpaceOnUse" x1="148.587" x2="115.768" xlink:href="#lg3" y1="337.949" y2="692.937"/><g><g><path d="m322.281 277.637c-6.061 0-12.133-1.435-17.558-4.15-16.394-8.205-48.408-25.798-78.608-51.445-39.286-33.364-62.572-69.176-69.211-106.442-5.157-28.949 2.206-58.501 20.2-81.079 16.666-20.91 40.281-33.13 66.496-34.407 1.542-.076 3.104-.114 4.642-.114 24.561 0 47.748 9.466 65.288 26.654 3.168 3.105 6.089 6.399 8.75 9.857 2.662-3.458 5.583-6.753 8.751-9.858 17.54-17.188 40.727-26.653 65.289-26.653 1.538 0 3.1.038 4.641.113 26.216 1.278 49.831 13.497 66.497 34.409 17.995 22.578 25.357 52.13 20.199 81.079-6.638 37.265-29.924 73.077-69.21 106.441-30.199 25.646-62.212 43.24-78.608 51.445-5.425 2.715-11.497 4.15-17.558 4.15z" fill="url(#SVGID_1_)"/><path d="m467.459 34.522c-6.247-7.838-13.47-14.455-21.441-19.733 14.551 21.609 20.193 48.394 15.51 74.681-6.638 37.265-29.924 73.077-69.21 106.441-30.199 25.646-62.212 43.24-78.608 51.445-5.425 2.715-11.496 4.15-17.558 4.15-6.061 0-12.133-1.435-17.558-4.15-16.394-8.205-48.408-25.798-78.608-51.445-1.294-1.099-2.568-2.2-3.827-3.305 8.649 9.999 18.634 19.819 29.957 29.435 30.2 25.647 62.214 43.241 78.608 51.445 5.425 2.715 11.496 4.15 17.558 4.15 6.061 0 12.133-1.435 17.558-4.15 16.396-8.205 48.409-25.799 78.608-51.445 39.286-33.364 62.572-69.177 69.21-106.441 5.157-28.948-2.205-58.5-20.199-81.078z" fill="url(#SVGID_2_)"/><path d="m400.962.113c-1.542-.075-3.104-.113-4.641-.113-24.562 0-47.75 9.465-65.289 26.653-3.168 3.105-6.089 6.399-8.75 9.857v241.127c6.061 0 12.133-1.435 17.558-4.15 16.396-8.205 48.409-25.799 78.608-51.445 39.286-33.364 62.572-69.177 69.211-106.441 5.158-28.948-2.204-58.5-20.199-81.079-16.667-20.911-40.283-33.131-66.498-34.409z" fill="url(#SVGID_3_)"/></g><g><path d="m60.922 17.851c0-12.534 14.813-17.851 29.626-17.851s29.624 5.317 29.624 17.851v241.555c0 12.154-14.811 18.231-29.624 18.231s-29.625-6.077-29.625-18.231v-241.555z" fill="url(#SVGID_4_)"/><path d="m90.548 0-.001 277.637h.001c14.813 0 29.624-6.077 29.624-18.231v-241.555c-.001-12.534-14.812-17.851-29.624-17.851z" fill="url(#SVGID_5_)"/></g><g><path d="m82.782 421.149c0-1.748-.582-3.204-1.166-4.078l-60.302-99.922c-.582-1.166-.582-2.331-.582-3.204 0-10.779 18.353-18.644 30.88-18.644 7.283 0 9.904 2.913 13.108 8.448l40.785 74.868 40.492-74.868c2.913-5.535 5.827-8.448 13.111-8.448 12.526 0 30.878 7.865 30.878 18.644 0 .874 0 2.039-.582 3.204l-60.012 99.922c-.582.874-1.166 2.331-1.166 4.078v73.12c0 9.322-11.36 13.983-22.722 13.983s-22.723-4.661-22.723-13.983v-73.12z" fill="url(#SVGID_6_)"/><path d="m82.782 421.149c0-1.748-.582-3.204-1.166-4.078l-60.302-99.922c-.582-1.166-.582-2.331-.582-3.204 0-10.779 18.353-18.644 30.88-18.644 7.283 0 9.904 2.913 13.108 8.448l40.785 74.868 40.492-74.868c2.913-5.535 5.827-8.448 13.111-8.448 12.526 0 30.878 7.865 30.878 18.644 0 .874 0 2.039-.582 3.204l-60.012 99.922c-.582.874-1.166 2.331-1.166 4.078v73.12c0 9.322-11.36 13.983-22.722 13.983s-22.723-4.661-22.723-13.983v-73.12z" fill="url(#SVGID_6_)"/><path d="m105.592 416.035 64.424-119.117c-3.744-1.043-7.537-1.617-10.908-1.617-7.284 0-10.197 2.913-13.111 8.448l-40.492 74.868-40.785-74.868c-3.204-5.535-5.825-8.448-13.108-8.448-3.372 0-7.166.574-10.911 1.618z" fill="url(#SVGID_8_)"/><path d="m186.33 441.25v-77.199c0-50.106 31.17-68.75 71.373-68.75 40.2 0 71.662 18.644 71.662 68.75v77.199c0 50.106-31.462 68.75-71.662 68.75-40.203 0-71.373-18.644-71.373-68.75zm97.591-77.199c0-20.101-9.906-29.131-26.219-29.131-16.314 0-25.928 9.03-25.928 29.131v77.199c0 20.101 9.614 29.131 25.928 29.131 16.313 0 26.219-9.03 26.219-29.131z" fill="url(#SVGID_9_)"/><path d="m257.753 315.924c-26.231 0-46.569 15.062-46.569 55.542v62.368c0 40.48 20.337 55.542 46.569 55.542 26.23 0 46.757-15.062 46.757-55.542v-62.368c0-40.48-20.527-55.542-46.757-55.542zm26.168 125.326c0 20.101-9.906 29.131-26.219 29.131-16.314 0-25.928-9.03-25.928-29.131v-77.199c0-20.101 9.614-29.131 25.928-29.131 16.313 0 26.219 9.03 26.219 29.131z" fill="url(#SVGID_10_)"/><path d="m443.824 308.992c0-9.614 11.07-13.692 22.722-13.692 11.07 0 22.722 4.078 22.722 13.692v132.258c0 50.106-32.336 68.75-73.41 68.75-41.367 0-73.413-18.644-73.413-68.75v-132.258c0-9.614 11.07-13.692 22.723-13.692 11.07 0 22.723 4.078 22.723 13.692v132.258c0 19.809 10.486 29.131 27.966 29.131 17.477 0 27.966-9.322 27.966-29.131v-132.258z" fill="url(#SVGID_11_)"/><path d="m466.546 295.3c-11.652 0-22.722 4.078-22.722 13.692v132.258c0 19.809-10.489 29.131-27.966 29.131-17.48 0-27.966-9.322-27.966-29.131v-132.258c0-9.614-11.653-13.692-22.723-13.692-.018 0-.037.001-.055.001v126.272c0 49.415 22.15 67.802 50.744 67.802 28.391 0 50.742-18.387 50.742-67.802v-126.271c-.018 0-.036-.002-.054-.002z" fill="url(#SVGID_12_)"/><path d="m159.108 295.3c-7.284 0-10.197 2.913-13.111 8.448l-40.406 74.708v129.794c11.332-.024 22.635-4.683 22.635-13.981v-73.12c0-1.748.583-3.204 1.166-4.078l60.012-99.922c.582-1.166.582-2.331.582-3.204 0-10.779-18.352-18.645-30.878-18.645z" fill="url(#SVGID_13_)"/></g></g></svg>