<svg id="Capa_1" enable-background="new 0 0 510 510" height="512" viewBox="0 0 510 510" width="512" xmlns="http://www.w3.org/2000/svg" xmlns:xlink="http://www.w3.org/1999/xlink"><linearGradient id="SVGID_1_" gradientUnits="userSpaceOnUse" x1="183.027" x2="402.016" y1="134.454" y2="591.932"><stop offset="0" stop-color="#f8f6fb"/><stop offset="1" stop-color="#efdcfb"/></linearGradient><linearGradient id="SVGID_2_" gradientUnits="userSpaceOnUse" x1="231.22" x2="272.988" y1="41.993" y2="187.407"><stop offset="0" stop-color="#ff819c"/><stop offset=".2594" stop-color="#ff7e9a"/><stop offset=".4757" stop-color="#fe7396"/><stop offset=".6765" stop-color="#fc628e"/><stop offset=".8668" stop-color="#fa4a83"/><stop offset="1" stop-color="#f83479"/></linearGradient><linearGradient id="lg1"><stop offset="0" stop-color="#ffd945"/><stop offset=".3043" stop-color="#ffcd3e"/><stop offset=".8558" stop-color="#ffad2b"/><stop offset="1" stop-color="#ffa325"/></linearGradient><linearGradient id="SVGID_3_" gradientUnits="userSpaceOnUse" x1="68.185" x2="138.31" xlink:href="#lg1" y1="59.606" y2="59.606"/><linearGradient id="lg2"><stop offset="0" stop-color="#f35227" stop-opacity="0"/><stop offset="1" stop-color="#f35227"/></linearGradient><linearGradient id="SVGID_4_" gradientUnits="userSpaceOnUse" x1="124.437" x2="78.437" xlink:href="#lg2" y1="43.235" y2="22.901"/><linearGradient id="SVGID_5_" gradientUnits="userSpaceOnUse" x1="99.68" x2="117.68" xlink:href="#lg2" y1="101.286" y2="134.62"/><linearGradient id="SVGID_6_" gradientUnits="userSpaceOnUse" x1="110.354" x2="180.478" xlink:href="#lg1" y1="59.606" y2="59.606"/><linearGradient id="SVGID_7_" gradientUnits="userSpaceOnUse" x1="169.835" x2="133.168" xlink:href="#lg2" y1="45.971" y2="25.637"/><linearGradient id="SVGID_8_" gradientUnits="userSpaceOnUse" x1="145.028" x2="161.028" xlink:href="#lg2" y1="104.694" y2="125.027"/><linearGradient id="SVGID_9_" gradientUnits="userSpaceOnUse" x1="329.522" x2="399.646" xlink:href="#lg1" y1="59.606" y2="59.606"/><linearGradient id="SVGID_10_" gradientUnits="userSpaceOnUse" x1="379.93" x2="349.93" xlink:href="#lg2" y1="40.658" y2="27.325"/><linearGradient id="SVGID_11_" gradientUnits="userSpaceOnUse" x1="363.59" x2="387.59" xlink:href="#lg2" y1="103.295" y2="127.628"/><linearGradient id="SVGID_12_" gradientUnits="userSpaceOnUse" x1="371.691" x2="441.815" xlink:href="#lg1" y1="59.606" y2="59.606"/><linearGradient id="SVGID_13_" gradientUnits="userSpaceOnUse" x1="426.158" x2="375.491" xlink:href="#lg2" y1="42.572" y2="19.239"/><linearGradient id="SVGID_14_" gradientUnits="userSpaceOnUse" x1="400.969" x2="427.302" xlink:href="#lg2" y1="97.434" y2="137.767"/><linearGradient id="lg3"><stop offset="0" stop-color="#efdcfb" stop-opacity="0"/><stop offset=".4856" stop-color="#baaad6" stop-opacity=".486"/><stop offset="1" stop-color="#8679b2"/></linearGradient><linearGradient id="SVGID_15_" gradientUnits="userSpaceOnUse" x1="255" x2="255" xlink:href="#lg3" y1="477" y2="514.014"/><linearGradient id="SVGID_16_" gradientUnits="userSpaceOnUse" x1="368.735" x2="-23.265" xlink:href="#lg3" y1="410.457" y2="282.457"/><linearGradient id="lg4"><stop offset="0" stop-color="#65e0db"/><stop offset=".199" stop-color="#60dcd6"/><stop offset=".4277" stop-color="#53d0c8"/><stop offset=".671" stop-color="#3cbcb1"/><stop offset=".9229" stop-color="#1ca191"/><stop offset="1" stop-color="#119786"/></linearGradient><linearGradient id="SVGID_17_" gradientUnits="userSpaceOnUse" x1="107.498" x2="321.987" xlink:href="#lg4" y1="249.702" y2="507.689"/><linearGradient id="SVGID_18_" gradientUnits="userSpaceOnUse" x1="430.89" x2="158.89" xlink:href="#lg3" y1="427.382" y2="224.049"/><linearGradient id="SVGID_19_" gradientUnits="userSpaceOnUse" x1="449.903" x2="259.903" xlink:href="#lg3" y1="456.322" y2="347.655"/><linearGradient id="SVGID_20_" gradientUnits="userSpaceOnUse" x1="184.983" x2="399.472" xlink:href="#lg4" y1="185.282" y2="443.269"/><g><g><path d="m480.177 98.166c0-.288-.011-.565-.033-.853 0-.133-.011-.255-.022-.376-.022-.388-.044-.775-.089-1.163-.066-.753-.155-1.495-.255-2.248-.055-.299-.1-.609-.155-.919-.066-.388-.144-.775-.221-1.163-.155-.775-.332-1.55-.531-2.303-.1-.376-.21-.753-.321-1.129-.365-1.207-.775-2.381-1.24-3.532-2.945-7.286-7.994-13.508-14.383-17.904s-14.139-6.976-22.488-6.976h-370.878c-21.956 0-39.761 17.804-39.761 39.761v370.878c0 16.686 10.286 30.969 24.868 36.86l.011.011c.277.111.554.221.83.321.52.199 1.041.388 1.572.554.52.166 1.03.332 1.55.476.122.044.255.078.399.111.531.144 1.052.277 1.594.41.376.089.753.166 1.129.244.354.078.698.144 1.052.199.31.055.62.1.919.155.753.1 1.495.188 2.248.255.388.044.775.066 1.163.089.122.011.244.022.376.022.288.022.565.033.853.033.399.011.797.022 1.196.022h370.878c21.956 0 39.761-17.804 39.761-39.761v-370.878c0-.399-.011-.797-.022-1.196zm-375.849 21.048c-8.957 0-16.21-7.263-16.21-16.221s7.252-16.21 16.21-16.21 16.221 7.252 16.221 16.21-7.263 16.221-16.221 16.221zm42.168 0c-8.946 0-16.21-7.263-16.21-16.221s7.263-16.21 16.21-16.21c8.958 0 16.221 7.252 16.221 16.21s-7.264 16.221-16.221 16.221zm219.167 0c-8.946 0-16.21-7.263-16.21-16.221s7.263-16.21 16.21-16.21c8.958 0 16.221 7.252 16.221 16.21s-7.263 16.221-16.221 16.221zm42.179 0c-8.957 0-16.221-7.263-16.221-16.221s7.263-16.21 16.221-16.21c8.946 0 16.21 7.252 16.21 16.21s-7.264 16.221-16.21 16.221z" fill="url(#SVGID_1_)"/><path d="m480.144 97.313c0-.133-.011-.255-.022-.376-.022-.388-.044-.775-.089-1.163-.066-.753-.155-1.495-.255-2.248-.055-.299-.1-.609-.155-.919-.066-.388-.144-.775-.221-1.163-.155-.775-.332-1.55-.531-2.303-.1-.376-.21-.753-.321-1.129-.365-1.207-.775-2.38-1.24-3.532-2.945-7.286-7.994-13.508-14.383-17.904s-14.139-6.976-22.488-6.976h-370.878c-21.956 0-39.761 17.804-39.761 39.761v56.458h450.399v-56.457c0-.399-.011-.797-.022-1.196 0-.288-.011-.565-.033-.853zm-375.816 21.901c-8.957 0-16.21-7.263-16.21-16.221s7.252-16.21 16.21-16.21 16.221 7.252 16.221 16.21-7.263 16.221-16.221 16.221zm42.168 0c-8.946 0-16.21-7.263-16.21-16.221s7.263-16.21 16.21-16.21c8.957 0 16.221 7.252 16.221 16.21s-7.264 16.221-16.221 16.221zm219.167 0c-8.946 0-16.21-7.263-16.21-16.221s7.263-16.21 16.21-16.21c8.957 0 16.221 7.252 16.221 16.21s-7.263 16.221-16.221 16.221zm42.179 0c-8.957 0-16.221-7.263-16.221-16.221s7.263-16.21 16.221-16.21c8.946 0 16.21 7.252 16.21 16.21s-7.264 16.221-16.21 16.221z" fill="url(#SVGID_2_)"/><g><g><path d="m103.247 119.212c-20.316 0-35.062-25.067-35.062-59.605s14.746-59.607 35.062-59.607 35.062 25.068 35.062 59.607h-27.681c0-14.43-3.509-24.498-6.352-29.269-.464-.778-1.595-.778-2.059 0-2.843 4.77-6.352 14.839-6.352 29.269 0 16.194 4.42 26.896 7.358 30.779 1.833-2.435 5.073-3.328 7.844-2.067 14.392 6.547 11.777 27.933-3.815 30.557-1.479.248-2.832.336-4.005.336z" fill="url(#SVGID_3_)"/></g><g><path d="m137.074 59.606c0-22.849-9.227-41.371-20.609-41.371-8.48 0-15.76 10.283-18.924 24.974 1.277-5.848 3.082-10.194 4.677-12.871.464-.778 1.595-.778 2.059 0 2.843 4.77 6.352 14.839 6.352 29.269z" fill="url(#SVGID_4_)"/></g><path d="m103.247 119.212c1.173 0 2.526-.088 4.007-.337 15.592-2.623 18.206-24.01 3.815-30.557-2.772-1.261-6.011-.369-7.844 2.067-1.487-1.966-3.353-5.686-4.835-10.976h-28.434c4.483 23.906 17.117 39.803 33.291 39.803z" fill="url(#SVGID_5_)"/></g><g><g><path d="m145.416 119.212c-20.316 0-35.062-25.067-35.062-59.605s14.746-59.607 35.062-59.607 35.062 25.068 35.062 59.607h-27.681c0-14.43-3.509-24.498-6.352-29.269-.464-.778-1.595-.778-2.059 0-2.843 4.77-6.352 14.839-6.352 29.269 0 16.194 4.42 26.896 7.358 30.779 1.833-2.435 5.073-3.328 7.844-2.067 14.392 6.547 11.777 27.933-3.815 30.557-1.479.248-2.832.336-4.005.336z" fill="url(#SVGID_6_)"/></g><g><path d="m179.243 59.606c0-22.849-9.227-41.371-20.609-41.371-8.48 0-15.76 10.283-18.924 24.974 1.277-5.848 3.082-10.194 4.677-12.871.464-.778 1.595-.778 2.059 0 2.843 4.77 6.352 14.839 6.352 29.269z" fill="url(#SVGID_7_)"/></g><path d="m145.416 119.212c1.173 0 2.526-.088 4.007-.337 15.592-2.623 18.206-24.01 3.815-30.557-2.772-1.261-6.011-.369-7.844 2.067-1.487-1.966-3.353-5.686-4.835-10.976h-28.434c4.483 23.906 17.117 39.803 33.291 39.803z" fill="url(#SVGID_8_)"/></g><g><g><path d="m364.584 119.212c-20.316 0-35.062-25.067-35.062-59.605s14.746-59.607 35.062-59.607 35.062 25.068 35.062 59.607h-27.681c0-14.43-3.509-24.498-6.352-29.269-.464-.778-1.595-.778-2.059 0-2.843 4.77-6.352 14.839-6.352 29.269 0 16.194 4.42 26.896 7.358 30.779 1.833-2.435 5.073-3.328 7.844-2.067 14.392 6.547 11.777 27.933-3.815 30.557-1.479.248-2.832.336-4.005.336z" fill="url(#SVGID_9_)"/></g><g><path d="m398.411 59.606c0-22.849-9.227-41.371-20.609-41.371-8.48 0-15.76 10.283-18.924 24.974 1.277-5.848 3.082-10.194 4.677-12.871.464-.778 1.595-.778 2.059 0 2.843 4.77 6.352 14.839 6.352 29.269z" fill="url(#SVGID_10_)"/></g><path d="m364.584 119.212c1.173 0 2.526-.088 4.007-.337 15.592-2.623 18.206-24.01 3.815-30.557-2.772-1.261-6.011-.369-7.844 2.067-1.487-1.966-3.353-5.686-4.835-10.976h-28.434c4.483 23.906 17.117 39.803 33.291 39.803z" fill="url(#SVGID_11_)"/></g><g><g><path d="m406.753 119.212c-20.316 0-35.062-25.067-35.062-59.605s14.745-59.607 35.062-59.607c20.316 0 35.062 25.068 35.062 59.607h-27.681c0-14.43-3.509-24.498-6.352-29.269-.464-.778-1.595-.778-2.059 0-2.843 4.77-6.352 14.839-6.352 29.269 0 16.194 4.42 26.896 7.358 30.779 1.833-2.435 5.073-3.328 7.844-2.067 14.392 6.547 11.777 27.933-3.815 30.557-1.479.248-2.832.336-4.005.336z" fill="url(#SVGID_12_)"/></g><g><path d="m440.579 59.606c0-22.849-9.227-41.371-20.609-41.371-8.48 0-15.76 10.283-18.924 24.974 1.277-5.848 3.082-10.194 4.677-12.871.464-.778 1.595-.778 2.059 0 2.843 4.77 6.352 14.839 6.352 29.269z" fill="url(#SVGID_13_)"/></g><path d="m406.753 119.212c1.173 0 2.526-.088 4.007-.337 15.592-2.623 18.206-24.01 3.815-30.557-2.772-1.261-6.011-.369-7.844 2.067-1.488-1.966-3.353-5.686-4.835-10.976h-28.434c4.482 23.906 17.117 39.803 33.291 39.803z" fill="url(#SVGID_14_)"/></g><path d="m29.801 432.162v38.077c0 16.686 10.286 30.969 24.868 36.86l.011.011c.277.111.554.221.83.321.52.199 1.041.388 1.572.554.52.166 1.03.332 1.55.476.122.044.255.078.399.111.531.144 1.052.277 1.594.41.376.089.753.166 1.129.244.354.078.698.144 1.052.199.31.055.62.1.919.155.753.1 1.495.188 2.248.255.388.044.775.066 1.163.089.122.011.244.022.376.022.288.022.565.033.853.033.399.011.797.022 1.196.022h370.878c21.956 0 39.761-17.804 39.761-39.761v-38.077h-450.399z" fill="url(#SVGID_15_)"/></g><path d="m476.12 487.784-278.865-278.866c-3.784-6.959-13.764-11.137-22.652-11.137-3.862 0-7.372.702-10.18 2.458l-46.342 28.086c-7.021 4.212-10.181 11.234-10.181 18.608 0 8.223 4.012 16.444 10.365 19.971l25.796 26.236v145.125c0 5.421 3.193 9.53 8.03 12.335l59.4 59.4h228.948c15.658 0 29.198-9.058 35.681-22.216z" fill="url(#SVGID_16_)"/><path d="m144.06 259.57-10.181 6.319c-3.159 2.106-6.319 2.809-8.776 2.809-10.181 0-17.203-10.884-17.203-21.765 0-7.373 3.16-14.395 10.181-18.608l46.342-28.086c2.809-1.756 6.319-2.458 10.18-2.458 11.234 0 24.224 6.67 24.224 17.203v223.28c0 11.234-13.691 16.851-27.383 16.851s-27.383-5.617-27.383-16.851v-178.694z" fill="url(#SVGID_17_)"/><path d="m345.78 210.156c-5.622-7.316-17.115-11.673-24.075-11.673-8.776 0-17.554 3.862-22.819 14.044l-81.098 159.036c-2.106 3.861-2.809 7.722-2.809 10.531 0 7.357 2.907 12.682 7.416 15.786l112.121 112.12h105.922c21.956 0 39.761-17.804 39.761-39.761v-125.664z" fill="url(#SVGID_18_)"/><path d="m440.439 510c21.956 0 39.761-17.804 39.761-39.761v-39.428l-112.556-112.556c-4.568-6.124-14.718-8.833-24.874-8.833-13.692 0-27.384 4.916-27.384 16.5v24.575 87.768c0 4.452 2.155 8.018 5.603 10.705l61.03 61.03z" fill="url(#SVGID_19_)"/><path d="m315.386 401.051h-82.15c-10.181 0-18.256-6.67-18.256-18.958 0-2.809.702-6.67 2.809-10.531l81.098-159.036c5.266-10.181 14.043-14.044 22.819-14.044 9.479 0 27.383 8.075 27.383 20.714 0 2.106-.702 4.212-1.755 6.67l-62.14 124.63h30.192v-24.575c0-11.584 13.692-16.5 27.384-16.5 13.691 0 27.383 4.916 27.383 16.5v24.575h15.096c11.234 0 16.851 12.639 16.851 25.278 0 12.637-8.426 25.276-16.851 25.276h-15.096v37.214c0 11.234-13.692 16.851-27.383 16.851-13.692 0-27.384-5.617-27.384-16.851z" fill="url(#SVGID_20_)"/></g></svg>