<svg id="Capa_1" enable-background="new 0 0 510 510" height="512" viewBox="0 0 510 510" width="512" xmlns="http://www.w3.org/2000/svg" xmlns:xlink="http://www.w3.org/1999/xlink"><linearGradient id="lg1"><stop offset="0" stop-color="#ffd945"/><stop offset=".3043" stop-color="#ffcd3e"/><stop offset=".8558" stop-color="#ffad2b"/><stop offset="1" stop-color="#ffa325"/></linearGradient><linearGradient id="SVGID_1_" gradientUnits="userSpaceOnUse" x1="255" x2="255" xlink:href="#lg1" y1="125.314" y2="275.513"/><linearGradient id="SVGID_2_" gradientUnits="userSpaceOnUse" x1="97.443" x2="337.075" y1="106.088" y2="345.72"><stop offset="0" stop-color="#f8f6fb"/><stop offset="1" stop-color="#efdcfb"/></linearGradient><linearGradient id="SVGID_3_" gradientUnits="userSpaceOnUse" x1="94.235" x2="144.034" xlink:href="#lg1" y1="337" y2="457.763"/><linearGradient id="SVGID_4_" gradientUnits="userSpaceOnUse" x1="414.45" x2="373.39" xlink:href="#lg1" y1="295.71" y2="452.483"/><linearGradient id="SVGID_5_" gradientUnits="userSpaceOnUse" x1="225.123" x2="261.375" xlink:href="#lg1" y1="360.746" y2="523.257"/><linearGradient id="lg2"><stop offset="0" stop-color="#f82814" stop-opacity="0"/><stop offset="1" stop-color="#c0272d"/></linearGradient><linearGradient id="SVGID_6_" gradientUnits="userSpaceOnUse" x1="344.809" x2="187.392" xlink:href="#lg2" y1="411.212" y2="184.315"/><linearGradient id="SVGID_7_" gradientUnits="userSpaceOnUse" x1="241.688" x2="298.101" y1="305.519" y2="375.956"><stop offset="0" stop-color="#ff819c"/><stop offset=".2594" stop-color="#ff7e9a"/><stop offset=".4757" stop-color="#fe7396"/><stop offset=".6765" stop-color="#fc628e"/><stop offset=".8668" stop-color="#fa4a83"/><stop offset="1" stop-color="#f83479"/></linearGradient><linearGradient id="SVGID_8_" gradientUnits="userSpaceOnUse" x1="276.041" x2="307.614" xlink:href="#lg2" y1="363.903" y2="437.329"/><linearGradient id="SVGID_9_" gradientUnits="userSpaceOnUse" x1="268.344" x2="194.091" xlink:href="#lg2" y1="326.031" y2="250.322"/><g><path d="m489.081 510h-468.162c-8.96 0-16.223-7.263-16.223-16.223v-303.971c0-12.006 5.835-23.263 15.645-30.185l219.348-154.763c9.18-6.477 21.441-6.477 30.621 0l219.349 154.764c9.81 6.922 15.645 18.179 15.645 30.185v303.971c0 8.959-7.263 16.222-16.223 16.222z" fill="url(#SVGID_1_)"/><path d="m469.723 447.969h-429.446v-353.61c0-20.048 16.252-36.301 36.301-36.301h356.844c20.048 0 36.301 16.252 36.301 36.301z" fill="url(#SVGID_2_)"/><g fill="#e3ceef"><path d="m405.263 138.606h-300.526c-5.05 0-9.143-4.094-9.143-9.143v-13.67c0-5.05 4.094-9.143 9.143-9.143h300.526c5.05 0 9.143 4.094 9.143 9.143v13.67c0 5.05-4.093 9.143-9.143 9.143z"/><path d="m405.263 211.705h-300.526c-5.05 0-9.143-4.094-9.143-9.143v-13.67c0-5.05 4.094-9.143 9.143-9.143h300.526c5.05 0 9.143 4.094 9.143 9.143v13.67c0 5.05-4.093 9.143-9.143 9.143z"/><path d="m405.263 284.805h-300.526c-5.05 0-9.143-4.094-9.143-9.143v-13.67c0-5.05 4.094-9.143 9.143-9.143h300.526c5.05 0 9.143 4.094 9.143 9.143v13.67c0 5.049-4.093 9.143-9.143 9.143z"/></g><path d="m20.919 510c-8.96 0-16.223-7.263-16.223-16.223v-306.894c0-.32.009-.638.028-.953.648-11.18 13.683-17.049 22.823-10.578l215.76 152.746c9.341 6.613 9.288 20.49-.102 27.033z" fill="url(#SVGID_3_)"/><path d="m489.081 510c8.96 0 16.223-7.263 16.223-16.223v-306.894c0-.32-.009-.638-.028-.953-.648-11.18-13.683-17.049-22.823-10.578l-215.76 152.746c-9.341 6.613-9.288 20.49.102 27.033z" fill="url(#SVGID_4_)"/><path d="m489.081 510h-468.162c-8.96 0-16.223-7.263-16.223-16.223l234.425-164.787c9.527-6.697 22.232-6.697 31.759 0l234.424 164.786c0 8.961-7.263 16.224-16.223 16.224z" fill="url(#SVGID_5_)"/><path d="m322.538 286.635c-7.823-8.268-18.161-13.082-29.517-13.635-.745-.036-1.5-.055-2.243-.055-11.87 0-23.074 4.574-31.55 12.879-1.441 1.412-2.772 2.908-3.996 4.472-.24-.246-4.003-4.023-4.461-4.472-8.476-8.306-19.681-12.88-31.55-12.88-.743 0-1.498.018-2.243.055-12.668.617-24.08 6.522-32.133 16.627-8.696 10.911-12.254 25.191-9.762 39.181 2.75 15.436 11.417 30.356 25.792 44.457l136.736 136.736h151.47c8.96 0 16.223-7.263 16.223-16.223v-24.376z" fill="url(#SVGID_6_)"/><g><path d="m255 407.109c-2.929 0-5.863-.694-8.484-2.005-7.922-3.965-23.393-12.466-37.986-24.86-18.984-16.123-30.237-33.428-33.445-51.436-2.492-13.989 1.066-28.27 9.762-39.18 8.053-10.104 19.465-16.009 32.133-16.627.745-.036 1.5-.055 2.243-.055 11.869 0 23.073 4.574 31.55 12.88 1.531 1.5 2.943 3.092 4.228 4.763 1.286-1.671 2.698-3.263 4.229-4.764 8.476-8.305 19.681-12.879 31.55-12.879.743 0 1.498.018 2.243.055 12.668.617 24.08 6.522 32.134 16.628 8.696 10.911 12.253 25.191 9.761 39.18-3.208 18.008-14.46 35.313-33.445 51.436-14.593 12.393-30.063 20.895-37.986 24.86-2.624 1.311-5.558 2.004-8.487 2.004z" fill="url(#SVGID_7_)"/><path d="m325.155 289.628c-3.019-3.788-6.509-6.985-10.361-9.536 7.032 10.442 9.758 23.385 7.495 36.089-3.208 18.008-14.46 35.313-33.445 51.436-14.593 12.393-30.063 20.895-37.986 24.86-2.621 1.312-5.555 2.005-8.484 2.005s-5.863-.693-8.484-2.005c-7.922-3.965-23.393-12.466-37.986-24.86-.625-.531-1.241-1.063-1.849-1.597 4.18 4.832 9.005 9.577 14.476 14.224 14.594 12.394 30.064 20.895 37.986 24.86 2.621 1.312 5.555 2.005 8.484 2.005s5.863-.693 8.484-2.005c7.923-3.965 23.393-12.467 37.986-24.86 18.984-16.123 30.237-33.429 33.445-51.436 2.492-13.989-1.065-28.27-9.761-39.18z" fill="url(#SVGID_8_)"/><path d="m293.021 273c-.745-.036-1.5-.055-2.243-.055-11.869 0-23.074 4.574-31.55 12.879-1.531 1.5-2.942 3.092-4.228 4.763v116.521c2.929 0 5.863-.693 8.484-2.005 7.923-3.965 23.393-12.467 37.986-24.86 18.984-16.123 30.237-33.428 33.445-51.436 2.492-13.989-1.065-28.269-9.761-39.18-8.052-10.105-19.465-16.01-32.133-16.627z" fill="url(#SVGID_9_)"/></g></g></svg>