<svg id="Capa_1" enable-background="new 0 0 510 510" height="512" viewBox="0 0 510 510" width="512" xmlns="http://www.w3.org/2000/svg" xmlns:xlink="http://www.w3.org/1999/xlink"><linearGradient id="lg1"><stop offset="0" stop-color="#8a7889"/><stop offset="1" stop-color="#6e566e"/></linearGradient><linearGradient id="SVGID_1_" gradientUnits="userSpaceOnUse" x1="232.226" x2="282.501" xlink:href="#lg1" y1="413.999" y2="413.999"/><linearGradient id="SVGID_2_" gradientUnits="userSpaceOnUse" x1="388.32" x2="442.002" xlink:href="#lg1" y1="434.248" y2="434.248"/><linearGradient id="SVGID_3_" gradientUnits="userSpaceOnUse" x1="123.596" x2="167.515" xlink:href="#lg1" y1="434.247" y2="434.247"/><linearGradient id="lg2"><stop offset="0" stop-color="#ffd945"/><stop offset=".2567" stop-color="#ffd442"/><stop offset=".5511" stop-color="#ffc63a"/><stop offset=".8628" stop-color="#ffb02c"/><stop offset="1" stop-color="#ffa325"/></linearGradient><linearGradient id="SVGID_4_" gradientUnits="userSpaceOnUse" x1="124.216" x2="160.355" xlink:href="#lg2" y1="363.484" y2="363.484"/><linearGradient id="lg3"><stop offset="0" stop-color="#ff819c"/><stop offset=".2594" stop-color="#ff7e9a"/><stop offset=".4757" stop-color="#fe7396"/><stop offset=".6765" stop-color="#fc628e"/><stop offset=".8668" stop-color="#fa4a83"/><stop offset="1" stop-color="#f83479"/></linearGradient><linearGradient id="SVGID_5_" gradientUnits="userSpaceOnUse" x1="238.87" x2="275.009" xlink:href="#lg3" y1="330.984" y2="330.984"/><linearGradient id="lg4"><stop offset="0" stop-color="#65e0db"/><stop offset=".199" stop-color="#60dcd6"/><stop offset=".4277" stop-color="#53d0c8"/><stop offset=".671" stop-color="#3cbcb1"/><stop offset=".9229" stop-color="#1ca191"/><stop offset="1" stop-color="#119786"/></linearGradient><linearGradient id="SVGID_6_" gradientUnits="userSpaceOnUse" x1="395.753" x2="431.892" xlink:href="#lg4" y1="363.484" y2="363.484"/><linearGradient id="SVGID_7_" gradientUnits="userSpaceOnUse" x1="397.292" x2="464.929" xlink:href="#lg4" y1="243.44" y2="327.889"/><linearGradient id="SVGID_8_" gradientUnits="userSpaceOnUse" x1="433.643" x2="288.322" y1="310.905" y2="-27.739"><stop offset="0" stop-color="#fff" stop-opacity="0"/><stop offset="1" stop-color="#fff"/></linearGradient><linearGradient id="lg5"><stop offset="0" stop-color="#65e0db" stop-opacity="0"/><stop offset=".1625" stop-color="#49c8bf" stop-opacity=".163"/><stop offset=".3526" stop-color="#31b3a6" stop-opacity=".353"/><stop offset=".5508" stop-color="#1fa394" stop-opacity=".551"/><stop offset=".7603" stop-color="#149a89" stop-opacity=".76"/><stop offset="1" stop-color="#119786"/></linearGradient><linearGradient id="SVGID_9_" gradientUnits="userSpaceOnUse" x1="438.479" x2="476.333" xlink:href="#lg5" y1="313.439" y2="401.472"/><linearGradient id="SVGID_10_" gradientUnits="userSpaceOnUse" x1="429.252" x2="340.227" xlink:href="#lg5" y1="268.033" y2="177.263"/><linearGradient id="SVGID_11_" gradientUnits="userSpaceOnUse" x1="223.827" x2="361.733" xlink:href="#lg3" y1="79.627" y2="251.814"/><linearGradient id="lg6"><stop offset="0" stop-color="#f82814" stop-opacity="0"/><stop offset="1" stop-color="#c0272d"/></linearGradient><linearGradient id="SVGID_12_" gradientUnits="userSpaceOnUse" x1="296.072" x2="371.091" xlink:href="#lg6" y1="206.781" y2="426.241"/><linearGradient id="SVGID_13_" gradientUnits="userSpaceOnUse" x1="288.99" x2="107.475" xlink:href="#lg6" y1="129.771" y2="-55.303"/><linearGradient id="SVGID_14_" gradientUnits="userSpaceOnUse" x1="118.337" x2="217.411" xlink:href="#lg2" y1="186.825" y2="310.528"/><linearGradient id="lg7"><stop offset="0" stop-color="#f35227" stop-opacity="0"/><stop offset="1" stop-color="#f35227"/></linearGradient><linearGradient id="SVGID_15_" gradientUnits="userSpaceOnUse" x1="178.668" x2="234.117" xlink:href="#lg7" y1="289.361" y2="418.313"/><linearGradient id="SVGID_16_" gradientUnits="userSpaceOnUse" x1="165.151" x2="34.746" xlink:href="#lg7" y1="222.85" y2="89.888"/><g><path d="m270.012 510c-4.087 0-8.092-2.001-10.488-5.682l-18.958-29.123c-12.303-18.901-10.885-43.253 3.528-60.598 4.855-5.843 6.928-13.491 5.687-20.986l-10.114-61.07c-1.128-6.811 3.479-13.246 10.29-14.374 6.808-1.128 13.247 3.479 14.375 10.29l10.114 61.07c2.428 14.659-1.627 29.621-11.124 41.049-7.369 8.867-8.093 21.317-1.804 30.98l18.958 29.123c3.766 5.786 2.129 13.529-3.657 17.295-2.105 1.372-4.47 2.026-6.807 2.026z" fill="url(#SVGID_1_)"/><path d="m429.512 510c-4.34 0-8.558-2.263-10.865-6.3l-16.222-28.389c-15.673-27.428-18.425-60.169-7.55-89.828l6.889-18.789c2.376-6.481 9.558-9.808 16.039-7.433 6.481 2.377 9.81 9.558 7.433 16.04l-6.889 18.788c-8.331 22.722-6.223 47.806 5.784 68.817l16.222 28.389c3.425 5.994 1.343 13.63-4.651 17.056-1.956 1.118-4.088 1.649-6.19 1.649z" fill="url(#SVGID_2_)"/><path d="m142.505 510c-1.174 0-2.367-.166-3.549-.516-6.62-1.957-10.4-8.911-8.443-15.531l10.842-36.673c2.665-9.015.652-18.697-5.384-25.903-13.558-16.181-16.218-38.837-6.776-57.719l4.125-8.251c3.087-6.176 10.594-8.679 16.771-5.591 6.175 3.088 8.677 10.596 5.59 16.771l-4.125 8.251c-4.986 9.973-3.581 21.938 3.579 30.483 11.43 13.644 15.242 31.979 10.196 49.047l-10.842 36.673c-1.61 5.438-6.588 8.959-11.984 8.959z" fill="url(#SVGID_3_)"/><path d="m121.178 376.539c-3.887-3.887-3.887-10.19 0-14.077l20.539-20.539 20.539 20.539c3.887 3.887 3.887 10.19 0 14.077-11.344 11.343-29.735 11.343-41.078 0z" fill="url(#SVGID_4_)"/><path d="m235.831 344.039c-3.887-3.887-3.887-10.19 0-14.077l20.539-20.539 20.539 20.539c3.887 3.887 3.887 10.19 0 14.077-11.344 11.343-29.734 11.343-41.078 0z" fill="url(#SVGID_5_)"/><path d="m392.714 376.539c-3.887-3.887-3.887-10.19 0-14.077l20.539-20.539 20.539 20.539c3.887 3.887 3.887 10.19 0 14.077-11.344 11.343-29.734 11.343-41.078 0z" fill="url(#SVGID_6_)"/><g><g><path d="m413.253 365.241c-3.512 0-7.029-.831-10.172-2.404-9.498-4.753-28.046-14.946-45.543-29.806-22.761-19.33-36.252-40.079-40.099-61.669-2.988-16.772 1.278-33.894 11.703-46.975 9.656-12.115 23.337-19.194 38.526-19.935.893-.044 1.798-.066 2.689-.066 14.23 0 27.664 5.484 37.826 15.442 1.836 1.799 3.528 3.707 5.07 5.711 1.542-2.003 3.234-3.912 5.07-5.711 10.162-9.958 23.596-15.442 37.827-15.442.891 0 1.796.022 2.689.066 15.188.74 28.871 7.82 38.526 19.935 10.425 13.081 14.691 30.203 11.702 46.974-3.846 21.59-17.337 42.339-40.098 61.669-17.496 14.859-36.044 25.052-45.543 29.806-3.144 1.573-6.661 2.405-10.173 2.405z" fill="url(#SVGID_7_)"/><path d="m413.253 353.385c-2.515 0-5.035-.575-7.287-1.663-8.804-4.252-25.989-13.366-42.172-26.63-20.642-16.919-32.847-34.919-36.277-53.497-2.569-13.92 1.09-28.118 10.037-38.954 8.203-9.934 19.812-15.738 32.687-16.344.762-.036 1.534-.054 2.294-.054 12.114 0 23.549 4.506 32.2 12.687 1.554 1.469 3.008 3.05 4.322 4.698l4.194 5.26 4.194-5.26c1.316-1.65 2.771-3.231 4.323-4.7 8.65-8.181 20.086-12.686 32.2-12.686.76 0 1.533.018 2.294.054 12.876.606 24.485 6.41 32.688 16.344 8.948 10.836 12.606 25.034 10.036 38.953-3.429 18.579-15.634 36.578-36.277 53.497-16.184 13.265-33.368 22.379-42.172 26.63-2.249 1.09-4.768 1.665-7.284 1.665z" fill="url(#SVGID_8_)"/><path d="m497.364 224.387c-3.619-4.541-7.804-8.375-12.422-11.432 8.431 12.52 11.699 28.038 8.986 43.268-3.846 21.59-17.337 42.339-40.098 61.669-17.496 14.859-36.044 25.052-45.543 29.806-3.143 1.573-6.661 2.404-10.172 2.404-3.512 0-7.029-.831-10.172-2.404-9.498-4.753-28.046-14.946-45.543-29.806-.75-.637-1.488-1.275-2.217-1.915 5.011 5.793 10.796 11.482 17.356 17.054 17.497 14.859 36.045 25.052 45.543 29.806 3.143 1.573 6.661 2.404 10.172 2.404s7.029-.831 10.172-2.404c9.499-4.754 28.047-14.947 45.543-29.806 22.761-19.33 36.252-40.079 40.098-61.669 2.988-16.772-1.277-33.893-11.703-46.975z" fill="url(#SVGID_9_)"/><path d="m458.838 204.452c-.893-.044-1.798-.066-2.689-.066-14.231 0-27.665 5.484-37.827 15.442-1.835 1.799-3.528 3.708-5.07 5.711v139.702c3.512 0 7.029-.831 10.172-2.404 9.499-4.754 28.047-14.947 45.543-29.806 22.761-19.33 36.252-40.079 40.098-61.669 2.988-16.772-1.277-33.893-11.702-46.974-9.654-12.116-23.336-19.196-38.525-19.936z" fill="url(#SVGID_10_)"/></g><g><path d="m256.37 327.97c-7.16 0-14.332-1.695-20.741-4.902-19.366-9.692-57.184-30.475-92.859-60.772-46.408-39.413-73.916-81.717-81.759-125.738-6.092-34.197 2.606-69.106 23.863-95.778 19.687-24.701 47.583-39.136 78.551-40.645 1.822-.09 3.667-.135 5.483-.135 29.014 0 56.404 11.182 77.125 31.486 3.743 3.668 7.193 7.559 10.336 11.644 3.144-4.085 6.595-7.977 10.338-11.645 20.719-20.304 48.11-31.485 77.125-31.485 1.816 0 3.662.045 5.482.134 30.968 1.509 58.865 15.944 78.552 40.647 21.257 26.672 29.953 61.581 23.86 95.777-7.842 44.02-35.349 86.325-81.758 125.738-35.673 30.296-73.491 51.079-92.859 60.772-6.407 3.207-13.579 4.902-20.739 4.902z" fill="url(#SVGID_11_)"/><path d="m427.867 40.78c-7.379-9.259-15.912-17.076-25.328-23.31 17.189 25.527 23.854 57.167 18.321 88.22-7.842 44.02-35.349 86.325-81.758 125.738-35.673 30.296-73.491 51.079-92.859 60.772-6.408 3.207-13.581 4.902-20.741 4.902s-14.332-1.695-20.741-4.902c-19.366-9.692-57.184-30.475-92.859-60.772-1.528-1.298-3.033-2.599-4.521-3.904 10.217 11.811 22.013 23.412 35.388 34.771 35.675 30.297 73.493 51.08 92.859 60.772 6.408 3.207 13.581 4.902 20.741 4.902s14.332-1.695 20.741-4.902c19.368-9.692 57.186-30.476 92.859-60.772 46.408-39.413 73.916-81.718 81.758-125.738 6.093-34.195-2.603-69.105-23.86-95.777z" fill="url(#SVGID_12_)"/><path d="m349.315.134c-1.821-.089-3.666-.134-5.483-.134-29.015 0-56.406 11.181-77.126 31.484-3.742 3.667-7.193 7.56-10.337 11.644v284.842c7.16 0 14.332-1.695 20.741-4.902 19.368-9.692 57.186-30.476 92.859-60.772 46.408-39.413 73.916-81.718 81.758-125.738 6.093-34.196-2.604-69.106-23.86-95.777-19.687-24.703-47.584-39.138-78.552-40.647z" fill="url(#SVGID_13_)"/></g><g><path d="m141.716 365.241c-5.144 0-10.297-1.218-14.9-3.522-13.913-6.963-41.083-21.894-66.712-43.66-33.341-28.315-53.103-58.707-58.737-90.333-4.377-24.568 1.872-49.648 17.143-68.809 14.144-17.746 34.185-28.116 56.433-29.2 1.308-.064 2.634-.096 3.939-.096 20.844 0 40.522 8.033 55.408 22.62 2.689 2.635 5.168 5.431 7.426 8.365 2.259-2.934 4.738-5.731 7.427-8.366 14.885-14.586 34.564-22.619 55.409-22.619 1.305 0 2.631.032 3.939.096 22.248 1.084 42.29 11.455 56.434 29.202 15.271 19.161 21.519 44.241 17.142 68.809-5.634 31.625-25.396 62.018-58.737 90.333-25.629 21.765-52.797 36.697-66.712 43.66-4.605 2.302-9.758 3.52-14.902 3.52z" fill="url(#SVGID_14_)"/><path d="m264.924 158.917c-5.302-6.652-11.432-12.268-18.196-16.746 12.349 18.339 17.137 41.07 13.162 63.379-5.634 31.625-25.396 62.018-58.737 90.333-25.629 21.765-52.797 36.697-66.712 43.66-4.604 2.304-9.757 3.522-14.901 3.522s-10.297-1.218-14.9-3.522c-13.913-6.963-41.083-21.894-66.712-43.66-1.098-.932-2.179-1.867-3.248-2.804 7.34 8.486 15.814 16.82 25.423 24.98 25.629 21.766 52.799 36.697 66.712 43.66 4.604 2.304 9.757 3.522 14.9 3.522 5.144 0 10.297-1.217 14.9-3.522 13.915-6.963 41.083-21.895 66.712-43.66 33.341-28.315 53.103-58.708 58.737-90.333 4.379-24.568-1.869-49.648-17.14-68.809z" fill="url(#SVGID_15_)"/><path d="m208.49 129.716c-1.308-.064-2.634-.096-3.939-.096-20.845 0-40.524 8.033-55.409 22.619-2.689 2.635-5.167 5.431-7.426 8.365v204.637c5.144 0 10.297-1.218 14.9-3.522 13.915-6.963 41.083-21.895 66.712-43.66 33.341-28.315 53.103-58.708 58.737-90.333 4.377-24.567-1.871-49.647-17.142-68.809-14.143-17.747-34.185-28.117-56.433-29.201z" fill="url(#SVGID_16_)"/></g></g></g></svg>