<svg id="Capa_1" enable-background="new 0 0 510 510" height="512" viewBox="0 0 510 510" width="512" xmlns="http://www.w3.org/2000/svg" xmlns:xlink="http://www.w3.org/1999/xlink"><linearGradient id="SVGID_1_" gradientUnits="userSpaceOnUse" x1="212.932" x2="391.203" y1="145.949" y2="368.537"><stop offset="0" stop-color="#ff7044"/><stop offset="1" stop-color="#f82814"/></linearGradient><linearGradient id="lg1"><stop offset="0" stop-color="#f82814" stop-opacity="0"/><stop offset="1" stop-color="#c0272d"/></linearGradient><linearGradient id="SVGID_2_" gradientUnits="userSpaceOnUse" x1="315.315" x2="389.135" xlink:href="#lg1" y1="309.333" y2="467.104"/><linearGradient id="SVGID_3_" gradientUnits="userSpaceOnUse" x1="297.169" x2="62.522" xlink:href="#lg1" y1="210.772" y2="-28.476"/><linearGradient id="SVGID_4_" gradientUnits="userSpaceOnUse" x1="423.5" x2="289.407" xlink:href="#lg1" y1="423.5" y2="289.407"/><linearGradient id="SVGID_5_" gradientTransform="matrix(.707 .707 .707 -.707 -481.805 1163.181)" gradientUnits="userSpaceOnUse" x1="-249.181" x2="6.819" y1="1163.181" y2="1163.181"><stop offset="0" stop-color="#ffd945"/><stop offset=".2567" stop-color="#ffd442"/><stop offset=".5511" stop-color="#ffc63a"/><stop offset=".8628" stop-color="#ffb02c"/><stop offset="1" stop-color="#ffa325"/></linearGradient><linearGradient id="lg2"><stop offset="0" stop-color="#f35227" stop-opacity="0"/><stop offset="1" stop-color="#f35227"/></linearGradient><linearGradient id="SVGID_6_" gradientTransform="matrix(.707 .707 .707 -.707 -481.805 1163.181)" gradientUnits="userSpaceOnUse" x1="-99.421" x2="-349.421" xlink:href="#lg2" y1="1165.524" y2="1031.524"/><linearGradient id="SVGID_7_" gradientTransform="matrix(.707 -.707 -.707 -.707 631.181 1523.805)" gradientUnits="userSpaceOnUse" x1="652.941" x2="402.941" xlink:href="#lg2" y1="1165.524" y2="1031.524"/><g><g><path d="m255 466.985c-9.256 0-18.527-2.192-26.812-6.337-25.035-12.529-73.923-39.395-120.04-78.56-59.992-50.95-95.551-105.637-105.689-162.544-7.875-44.206 3.368-89.334 30.847-123.814 25.45-31.931 61.511-50.591 101.544-52.542 2.354-.115 4.739-.173 7.087-.173 37.507 0 72.914 14.455 99.7 40.702 4.838 4.741 9.299 9.772 13.362 15.052 4.065-5.28 8.525-10.312 13.363-15.053 26.784-26.246 62.193-40.7 99.701-40.7 2.348 0 4.733.058 7.087.173 40.033 1.951 76.096 20.611 101.545 52.544 27.479 34.479 38.721 79.606 30.845 123.812-10.137 56.905-45.696 111.593-105.689 162.543-46.115 39.164-95.002 66.031-120.04 78.56-8.283 4.146-17.555 6.337-26.811 6.337z" fill="url(#SVGID_1_)"/><path d="m476.696 95.732c-9.539-11.97-20.57-22.074-32.742-30.133 22.221 32.999 30.837 73.9 23.684 114.043-10.137 56.906-45.696 111.593-105.689 162.543-46.115 39.164-95.002 66.031-120.04 78.56-8.284 4.146-17.556 6.337-26.812 6.337s-18.527-2.191-26.812-6.337c-25.035-12.529-73.923-39.395-120.04-78.56-1.976-1.678-3.921-3.36-5.844-5.046 13.208 15.269 28.456 30.265 45.746 44.949 46.117 39.165 95.005 66.031 120.04 78.56 8.284 4.146 17.556 6.337 26.812 6.337s18.527-2.191 26.811-6.337c25.038-12.53 73.924-39.396 120.04-78.56 59.993-50.949 95.552-105.637 105.689-162.543 7.878-44.206-3.364-89.334-30.843-123.813z" fill="url(#SVGID_2_)"/><path d="m375.151 43.188c-2.354-.115-4.739-.173-7.087-.173-37.508 0-72.917 14.454-99.701 40.7-4.838 4.741-9.298 9.772-13.362 15.052v368.218c9.256 0 18.527-2.191 26.811-6.337 25.038-12.53 73.924-39.396 120.04-78.56 59.993-50.949 95.552-105.637 105.689-162.543 7.876-44.206-3.366-89.334-30.845-123.812-25.45-31.934-61.513-50.594-101.545-52.545z" fill="url(#SVGID_3_)"/></g><path d="m477.51 296.491-153.567-153.567c-6.639-6.639-17.403-6.639-24.042 0l-44.901 44.901-44.901-44.901c-6.639-6.639-17.403-6.639-24.042 0l-43.133 43.134c-6.639 6.639-6.639 17.403 0 24.042l44.901 44.9-44.901 44.901c-6.639 6.639-6.639 17.403 0 24.042l137.397 137.397c.497-.231 1.001-.447 1.491-.692 25.038-12.53 73.924-39.396 120.04-78.56 32.405-27.521 57.667-56.134 75.658-85.597z" fill="url(#SVGID_4_)"/><g><path d="m299.901 367.076-44.901-44.901-44.901 44.901c-6.639 6.639-17.403 6.639-24.042 0l-43.134-43.134c-6.639-6.639-6.639-17.403 0-24.042l44.902-44.9-44.901-44.901c-6.639-6.639-6.639-17.403 0-24.042l43.134-43.134c6.639-6.639 17.403-6.639 24.042 0l44.9 44.902 44.901-44.901c6.639-6.639 17.403-6.639 24.042 0l43.134 43.134c6.639 6.639 6.639 17.403 0 24.042l-44.902 44.9 44.901 44.901c6.639 6.639 6.639 17.403 0 24.042l-43.134 43.134c-6.638 6.638-17.402 6.638-24.041-.001z" fill="url(#SVGID_5_)"/><path d="m186.057 367.076-21.567-21.566 181.02-181.02 21.567 21.567c6.639 6.639 6.639 17.403 0 24.042l-156.978 156.977c-6.639 6.639-17.403 6.639-24.042 0z" fill="url(#SVGID_6_)"/><path d="m367.076 323.943-21.566 21.567-181.02-181.02 21.567-21.567c6.639-6.639 17.403-6.639 24.042 0l156.978 156.978c6.638 6.639 6.638 17.403-.001 24.042z" fill="url(#SVGID_7_)"/></g></g></svg>