<svg id="Capa_1" enable-background="new 0 0 510 510" height="512" viewBox="0 0 510 510" width="512" xmlns="http://www.w3.org/2000/svg" xmlns:xlink="http://www.w3.org/1999/xlink"><linearGradient id="lg1"><stop offset="0" stop-color="#ffdecf"/><stop offset="1" stop-color="#faa68e"/></linearGradient><linearGradient id="SVGID_1_" gradientTransform="matrix(1 0 0 -1 0 512)" gradientUnits="userSpaceOnUse" x1="264.163" x2="9.497" xlink:href="#lg1" y1="243.266" y2="278.599"/><linearGradient id="lg2"><stop offset="0" stop-color="#faa68e" stop-opacity="0"/><stop offset="1" stop-color="#faa68e"/></linearGradient><linearGradient id="SVGID_2_" gradientTransform="matrix(-1 0 0 -1 2513.506 512)" gradientUnits="userSpaceOnUse" x1="2394.216" x2="2369.624" xlink:href="#lg2" y1="316.578" y2="295.99"/><linearGradient id="SVGID_3_" gradientTransform="matrix(1 0 0 -1 0 512)" gradientUnits="userSpaceOnUse" x1="126.474" x2="381.141" xlink:href="#lg1" y1="349.478" y2="206.145"/><linearGradient id="SVGID_4_" gradientTransform="matrix(-1 0 0 -1 2513.506 512)" gradientUnits="userSpaceOnUse" x1="2197.78" x2="2168.132" xlink:href="#lg2" y1="263.194" y2="297.165"/><linearGradient id="SVGID_5_" gradientTransform="matrix(1 0 0 -1 0 512)" gradientUnits="userSpaceOnUse" x1="175.548" x2="302.215" xlink:href="#lg2" y1="201.015" y2="314.348"/><linearGradient id="SVGID_6_" gradientTransform="matrix(.669 -.669 .925 .925 562.262 -5487.191)" gradientUnits="userSpaceOnUse" x1="-4449.928" x2="-4494.052" xlink:href="#lg1" y1="3028.443" y2="3050.913"/><linearGradient id="SVGID_7_" gradientTransform="matrix(.669 -.669 1.131 1.131 -90.72 -6022.306)" gradientUnits="userSpaceOnUse" x1="-4414.799" x2="-4464.467" xlink:href="#lg1" y1="2998.575" y2="3023.869"/><linearGradient id="SVGID_8_" gradientTransform="matrix(.669 -.669 .925 .925 443.813 -5368.743)" gradientUnits="userSpaceOnUse" x1="-4386.129" x2="-4431.02" xlink:href="#lg1" y1="3028.186" y2="3051.047"/><linearGradient id="SVGID_9_" gradientTransform="matrix(.669 -.669 .707 .707 1032.653 -4674.387)" gradientUnits="userSpaceOnUse" x1="-4363.067" x2="-4400.134" xlink:href="#lg1" y1="3064.702" y2="3083.578"/><linearGradient id="SVGID_10_" gradientTransform="matrix(-1 0 0 -1 2513.506 512)" gradientUnits="userSpaceOnUse" x1="2196.356" x2="2453.716" xlink:href="#lg1" y1="377.555" y2="212.581"/><linearGradient id="lg3"><stop offset="0" stop-color="#ff819c"/><stop offset=".2594" stop-color="#ff7e9a"/><stop offset=".4757" stop-color="#fe7396"/><stop offset=".6765" stop-color="#fc628e"/><stop offset=".8668" stop-color="#fa4a83"/><stop offset="1" stop-color="#f83479"/></linearGradient><linearGradient id="SVGID_11_" gradientTransform="matrix(-1 -.026 .026 -1 2501.226 507.805)" gradientUnits="userSpaceOnUse" x1="2347.059" x2="2381.763" xlink:href="#lg3" y1="388.193" y2="353.489"/><linearGradient id="SVGID_12_" gradientTransform="matrix(-1 -.026 .026 -1 2501.226 507.805)" gradientUnits="userSpaceOnUse" x1="2378.007" x2="2412.712" xlink:href="#lg3" y1="355.811" y2="321.107"/><linearGradient id="SVGID_13_" gradientTransform="matrix(-1 -.026 .026 -1 2501.226 507.805)" gradientUnits="userSpaceOnUse" x1="2408.955" x2="2443.66" xlink:href="#lg3" y1="323.429" y2="288.724"/><linearGradient id="SVGID_14_" gradientTransform="matrix(1 0 0 -1 0 512)" gradientUnits="userSpaceOnUse" x1="31.792" x2="77.38" xlink:href="#lg3" y1="345.197" y2="345.197"/><linearGradient id="SVGID_15_" gradientTransform="matrix(1 0 0 -1 0 512)" gradientUnits="userSpaceOnUse" x1="0" x2="45.588" xlink:href="#lg3" y1="313.643" y2="313.643"/><linearGradient id="lg4"><stop offset="0" stop-color="#8a7889"/><stop offset="1" stop-color="#6e566e"/></linearGradient><linearGradient id="SVGID_16_" gradientTransform="matrix(-1 0 0 -1 2513.506 512)" gradientUnits="userSpaceOnUse" x1="2076.511" x2="2154.239" xlink:href="#lg4" y1="389.994" y2="312.266"/><linearGradient id="lg5"><stop offset="0" stop-color="#ffd945"/><stop offset=".3043" stop-color="#ffcd3e"/><stop offset=".8558" stop-color="#ffad2b"/><stop offset="1" stop-color="#ffa325"/></linearGradient><linearGradient id="SVGID_17_" gradientTransform="matrix(1 0 0 -1 0 512)" gradientUnits="userSpaceOnUse" x1="461.899" x2="325.707" xlink:href="#lg5" y1="414.897" y2="278.705"/><linearGradient id="SVGID_18_" gradientTransform="matrix(-1 0 0 1 2826.44 -494.974)" gradientUnits="userSpaceOnUse" x1="2471.503" x2="2356.585" xlink:href="#lg5" y1="699.039" y2="584.121"/><linearGradient id="SVGID_19_" gradientTransform="matrix(1 0 0 -1 0 512)" gradientUnits="userSpaceOnUse" x1="388.954" x2="448.212" y1="371.819" y2="312.56"><stop offset="0" stop-color="#f8f6fb"/><stop offset="1" stop-color="#efdcfb"/></linearGradient><linearGradient id="SVGID_20_" gradientTransform="matrix(1 0 0 -1 0 512)" gradientUnits="userSpaceOnUse" x1="399.608" x2="417.519" xlink:href="#lg4" y1="375.615" y2="357.704"/><linearGradient id="SVGID_21_" gradientTransform="matrix(0 1 1 0 909.75 -1411.75)" gradientUnits="userSpaceOnUse" x1="1563.543" x2="1576.937" xlink:href="#lg4" y1="-492.831" y2="-506.225"/><g><path d="m151.569 62.91 237.941 237.942-.033.043c6.882 6.107 11.224 15.013 11.224 24.938 0 9.416-3.905 17.917-10.183 23.977-5.669 5.472-9.041 12.834-9.777 20.678-.011.117-.023.234-.035.351-1.647 15.811-14.546 28.414-30.39 29.7-.46.037-.919.065-1.375.084-8.363.342-16.181 4.278-21.014 11.111-6.037 8.534-15.984 14.106-27.233 14.106-.062 0-.126 0-.189-.001-6.448-.065-12.114 3.962-14.364 10.005-4.72 12.675-16.931 21.704-31.25 21.704-9.413 0-18.244-12.737-24.306-19.011l-52.33-43.958c-11.41-11.437-20.371-25.078-26.334-40.092-5.981-15.057-14.975-28.733-26.431-40.189l-112.655-112.654z" fill="url(#SVGID_1_)"/><path d="m160.965 373.937c-5.376-7.695-10.08-15.846-14.047-24.387-7.923-17.071-18.794-32.624-32.115-45.945l-75.753-75.753 79.753-79.754c4.31-4.571 9.297-8.57 14.875-11.824 7.397-4.314 15.807-6.587 24.37-6.587h60.304l74.899 74.899 14.833 28.179c4.844 9.203 2.307 20.215-5.31 26.523l-129.77 129.774c-4.309-4.809-8.344-9.85-12.039-15.125z" fill="url(#SVGID_2_)"/><g><path d="m356.11 62.91-237.941 237.942.033.043c-6.882 6.107-11.224 15.013-11.224 24.938 0 9.416 3.905 17.917 10.183 23.977 5.669 5.472 9.041 12.834 9.776 20.678.011.117.023.234.035.351 1.647 15.811 14.546 28.414 30.39 29.7.46.037.919.065 1.375.084 8.363.342 16.181 4.278 21.014 11.111 6.037 8.534 15.984 14.106 27.233 14.106.062 0 .126 0 .189-.001 6.448-.065 12.114 3.962 14.364 10.005 4.72 12.675 16.931 21.704 31.25 21.704 9.413 0 17.908-3.907 23.97-10.181l52.666-52.788c11.41-11.437 20.371-25.078 26.334-40.092 5.981-15.057 14.975-28.733 26.431-40.189l112.653-112.653z" fill="url(#SVGID_3_)"/><path d="m232.71 186.082 123.172-123.172 136.316 136.316.033-.033c.835.791 1.702 1.55 2.612 2.222l-102.19 102.19c-7.133 7.134-13.538 14.925-19.19 23.229z" fill="url(#SVGID_4_)"/></g><path d="m118.202 300.895c-6.882 6.107-11.224 15.013-11.224 24.938 0 9.416 3.905 17.917 10.183 23.976 5.669 5.472 9.041 12.834 9.776 20.678.011.117.023.234.035.352 1.647 15.811 14.546 28.414 30.39 29.7.46.037.919.065 1.375.084.836.034 1.664.114 2.486.219l141.553-141.552c7.617-6.308 10.155-17.321 5.31-26.523l-14.833-28.179-27.194-51.626-147.89 147.89z" fill="url(#SVGID_5_)"/><g><path d="m359.061 299.389-4.739 4.739c-8.598 8.598-8.598 22.538 0 31.136l13.545 13.545c8.598 8.598 22.538 8.598 31.136 0l4.739-4.739c8.598-8.598 8.598-22.538 0-31.136l-13.545-13.545c-8.599-8.598-22.539-8.598-31.136 0z" fill="url(#SVGID_6_)"/><path d="m319.079 331.158-8.706 8.706c-8.598 8.598-8.598 22.538 0 31.136l23.495 23.495c8.598 8.598 22.538 8.598 31.136 0l8.706-8.706c8.598-8.598 8.598-22.538 0-31.136l-23.495-23.495c-8.597-8.598-22.538-8.598-31.136 0z" fill="url(#SVGID_7_)"/><path d="m283.343 375.106-5.485 5.485c-8.598 8.598-8.598 22.538 0 31.136l13.545 13.545c8.598 8.598 22.538 8.598 31.136 0l5.485-5.485c8.598-8.598 8.598-22.538 0-31.136l-13.544-13.544c-8.599-8.599-22.539-8.599-31.137-.001z" fill="url(#SVGID_8_)"/><path d="m255.353 420.358-.026.026c-8.598 8.598-8.598 22.538 0 31.136l3.03 3.03c8.598 8.598 22.538 8.598 31.136 0l.026-.026c8.598-8.598 8.598-22.538 0-31.136l-3.03-3.03c-8.598-8.598-22.538-8.598-31.136 0z" fill="url(#SVGID_9_)"/></g><path d="m133.679 136.275c7.397-4.314 15.807-6.587 24.37-6.587h66.572c17.96 0 34.442 9.95 42.808 25.843l40.656 77.235c5.773 10.966 1.093 24.529-10.213 29.602-14.665 6.581-31.936 1.968-41.367-11.049l-29.422-40.611c-4.187-5.779-12.549-6.443-17.595-1.397l-21.763 21.763c-9.563 9.563-22.533 14.935-36.056 14.935-28.162 0-50.992-22.83-50.992-50.992v-1.295c0-23.654 12.567-45.53 33.002-57.447z" fill="url(#SVGID_10_)"/><g><circle cx="149.964" cy="72.141" fill="url(#SVGID_11_)" r="22.794"/><circle cx="118.171" cy="103.695" fill="url(#SVGID_12_)" r="22.794"/><circle cx="86.379" cy="135.249" fill="url(#SVGID_13_)" r="22.794"/><circle cx="54.586" cy="166.803" fill="url(#SVGID_14_)" r="22.794"/><circle cx="22.794" cy="198.357" fill="url(#SVGID_15_)" r="22.794"/></g><path d="m299.686 93.615 42.702-42.702c2.55-2.55 6.684-2.55 9.234 0l156.466 156.467c2.55 2.55 2.55 6.684 0 9.234l-42.702 42.702c-2.55 2.55-6.684 2.55-9.234 0l-156.466-156.466c-2.55-2.55-2.55-6.685 0-9.235z" fill="url(#SVGID_16_)"/><circle cx="403.887" cy="155.115" fill="url(#SVGID_17_)" r="64.347"/><circle cx="403.887" cy="155.115" fill="url(#SVGID_18_)" r="54.295"/><circle cx="403.887" cy="155.115" fill="url(#SVGID_19_)" r="44.962"/><g><path d="m404.121 158.668c-1.933 0-3.5-1.567-3.5-3.5v-28.539c0-1.933 1.567-3.5 3.5-3.5 1.933 0 3.5 1.567 3.5 3.5v28.539c0 1.933-1.567 3.5-3.5 3.5z" fill="url(#SVGID_20_)"/><path d="m400.621 155.168c0-1.933 1.567-3.5 3.5-3.5h18.846c1.933 0 3.5 1.567 3.5 3.5 0 1.933-1.567 3.5-3.5 3.5h-18.846c-1.933 0-3.5-1.567-3.5-3.5z" fill="url(#SVGID_21_)"/></g></g></svg>