<svg id="Capa_1" enable-background="new 0 0 510 510" height="512" viewBox="0 0 510 510" width="512" xmlns="http://www.w3.org/2000/svg" xmlns:xlink="http://www.w3.org/1999/xlink"><linearGradient id="SVGID_1_" gradientUnits="userSpaceOnUse" x1="164.541" x2="338.843" y1="165.264" y2="350.551"><stop offset="0" stop-color="#65e0db"/><stop offset="1" stop-color="#119786"/></linearGradient><linearGradient id="lg1"><stop offset="0" stop-color="#fff" stop-opacity="0"/><stop offset="1" stop-color="#fff"/></linearGradient><linearGradient id="SVGID_2_" gradientUnits="userSpaceOnUse" x1="221.833" x2="351.976" xlink:href="#lg1" y1="281.511" y2="346.114"/><linearGradient id="SVGID_3_" gradientUnits="userSpaceOnUse" x1="158.126" x2="317.071" xlink:href="#lg1" y1="339.918" y2="423.175"/><linearGradient id="SVGID_4_" gradientUnits="userSpaceOnUse" x1="287.879" x2="387.876" xlink:href="#lg1" y1="301.1" y2="417.896"/><linearGradient id="SVGID_5_" gradientUnits="userSpaceOnUse" x1="246.493" x2="270.417" xlink:href="#lg1" y1="201.862" y2="362.982"/><linearGradient id="SVGID_6_" gradientUnits="userSpaceOnUse" x1="181.916" x2="144.566" xlink:href="#lg1" y1="183.989" y2="279.195"/><linearGradient id="SVGID_7_" gradientTransform="matrix(-1 0 0 1 -1718.24 0)" gradientUnits="userSpaceOnUse" x1="-2046.32" x2="-2083.67" xlink:href="#lg1" y1="183.989" y2="279.195"/><linearGradient id="SVGID_8_" gradientUnits="userSpaceOnUse" x1="277.633" x2="50.876" xlink:href="#lg1" y1="319.827" y2="530.868"/><linearGradient id="lg2"><stop offset="0" stop-color="#ffd945"/><stop offset=".4169" stop-color="#ffd744"/><stop offset=".6278" stop-color="#ffcf3f"/><stop offset=".7926" stop-color="#ffc237"/><stop offset=".9326" stop-color="#ffaf2c"/><stop offset="1" stop-color="#ffa325"/></linearGradient><radialGradient id="SVGID_9_" cx="-1046.289" cy="1085.428" gradientTransform="matrix(0 1 1 0 -1065.943 1093.748)" gradientUnits="userSpaceOnUse" r="39.414" xlink:href="#lg2"/><linearGradient id="lg3"><stop offset="0" stop-color="#ffd945" stop-opacity="0"/><stop offset="1" stop-color="#fbed21"/></linearGradient><linearGradient id="SVGID_10_" gradientTransform="matrix(0 1 1 0 -1065.943 1093.748)" gradientUnits="userSpaceOnUse" x1="-1031.683" x2="-1069.524" xlink:href="#lg3" y1="1103.071" y2="1065.23"/><linearGradient id="lg4"><stop offset="0" stop-color="#e87264" stop-opacity="0"/><stop offset="1" stop-color="#ff7044"/></linearGradient><linearGradient id="SVGID_11_" gradientTransform="matrix(0 1 1 0 -1065.943 1093.748)" gradientUnits="userSpaceOnUse" x1="-1023.741" x2="-964.814" xlink:href="#lg4" y1="1098.764" y2="1048.887"/><radialGradient id="SVGID_12_" cx="-1011.651" cy="1133.79" gradientTransform="matrix(0 1 1 0 -1065.943 1093.748)" gradientUnits="userSpaceOnUse" r="39.414" xlink:href="#lg2"/><linearGradient id="SVGID_13_" gradientTransform="matrix(0 1 1 0 -1065.943 1093.748)" gradientUnits="userSpaceOnUse" x1="-997.046" x2="-1034.887" xlink:href="#lg3" y1="1151.433" y2="1113.592"/><linearGradient id="SVGID_14_" gradientTransform="matrix(0 1 1 0 -1065.943 1093.748)" gradientUnits="userSpaceOnUse" x1="-989.103" x2="-930.176" xlink:href="#lg4" y1="1147.126" y2="1097.249"/><radialGradient id="SVGID_15_" cx="-988.018" cy="1189.056" gradientTransform="matrix(0 1 1 0 -1065.943 1093.748)" gradientUnits="userSpaceOnUse" r="39.414" xlink:href="#lg2"/><linearGradient id="SVGID_16_" gradientTransform="matrix(0 1 1 0 -1065.943 1093.748)" gradientUnits="userSpaceOnUse" x1="-973.412" x2="-1011.253" xlink:href="#lg3" y1="1206.699" y2="1168.858"/><linearGradient id="SVGID_17_" gradientTransform="matrix(0 1 1 0 -1065.943 1093.748)" gradientUnits="userSpaceOnUse" x1="-965.47" x2="-906.543" xlink:href="#lg4" y1="1202.392" y2="1152.515"/><radialGradient id="SVGID_18_" cx="-974.058" cy="1248.926" gradientTransform="matrix(0 1 1 0 -1065.943 1093.748)" gradientUnits="userSpaceOnUse" r="39.414" xlink:href="#lg2"/><linearGradient id="SVGID_19_" gradientTransform="matrix(0 1 1 0 -1065.943 1093.748)" gradientUnits="userSpaceOnUse" x1="-959.453" x2="-997.294" xlink:href="#lg3" y1="1266.569" y2="1228.728"/><linearGradient id="SVGID_20_" gradientTransform="matrix(0 1 1 0 -1065.943 1093.748)" gradientUnits="userSpaceOnUse" x1="-951.51" x2="-892.584" xlink:href="#lg4" y1="1262.262" y2="1212.385"/><radialGradient id="SVGID_21_" cx="-974.058" cy="1368.665" gradientTransform="matrix(0 1 1 0 -1065.943 1093.748)" gradientUnits="userSpaceOnUse" r="39.414" xlink:href="#lg2"/><linearGradient id="SVGID_22_" gradientTransform="matrix(0 1 1 0 -1065.943 1093.748)" gradientUnits="userSpaceOnUse" x1="-959.453" x2="-997.294" xlink:href="#lg3" y1="1386.308" y2="1348.467"/><linearGradient id="SVGID_23_" gradientTransform="matrix(0 1 1 0 -1065.943 1093.748)" gradientUnits="userSpaceOnUse" x1="-951.51" x2="-892.584" xlink:href="#lg4" y1="1382.001" y2="1332.123"/><radialGradient id="SVGID_24_" cx="-988.018" cy="1428.534" gradientTransform="matrix(0 1 1 0 -1065.943 1093.748)" gradientUnits="userSpaceOnUse" r="39.414" xlink:href="#lg2"/><linearGradient id="SVGID_25_" gradientTransform="matrix(0 1 1 0 -1065.943 1093.748)" gradientUnits="userSpaceOnUse" x1="-973.412" x2="-1011.253" xlink:href="#lg3" y1="1446.177" y2="1408.336"/><linearGradient id="SVGID_26_" gradientTransform="matrix(0 1 1 0 -1065.943 1093.748)" gradientUnits="userSpaceOnUse" x1="-965.47" x2="-906.543" xlink:href="#lg4" y1="1441.87" y2="1391.993"/><radialGradient id="SVGID_27_" cx="-1011.651" cy="1483.8" gradientTransform="matrix(0 1 1 0 -1065.943 1093.748)" gradientUnits="userSpaceOnUse" r="39.414" xlink:href="#lg2"/><linearGradient id="SVGID_28_" gradientTransform="matrix(0 1 1 0 -1065.943 1093.748)" gradientUnits="userSpaceOnUse" x1="-997.046" x2="-1034.887" xlink:href="#lg3" y1="1501.444" y2="1463.602"/><linearGradient id="SVGID_29_" gradientTransform="matrix(0 1 1 0 -1065.943 1093.748)" gradientUnits="userSpaceOnUse" x1="-989.103" x2="-930.176" xlink:href="#lg4" y1="1497.137" y2="1447.259"/><radialGradient id="SVGID_30_" cx="-1046.289" cy="1532.162" gradientTransform="matrix(0 1 1 0 -1065.943 1093.748)" gradientUnits="userSpaceOnUse" r="39.414" xlink:href="#lg2"/><linearGradient id="SVGID_31_" gradientTransform="matrix(0 1 1 0 -1065.943 1093.748)" gradientUnits="userSpaceOnUse" x1="-1031.683" x2="-1069.524" xlink:href="#lg3" y1="1549.805" y2="1511.964"/><linearGradient id="SVGID_32_" gradientTransform="matrix(0 1 1 0 -1065.943 1093.748)" gradientUnits="userSpaceOnUse" x1="-1023.741" x2="-964.814" xlink:href="#lg4" y1="1545.498" y2="1495.621"/><linearGradient id="SVGID_33_" gradientUnits="userSpaceOnUse" x1="343.549" x2="257.83" y1="266.454" y2="180.735"><stop offset="0" stop-color="#65e0db" stop-opacity="0"/><stop offset="1" stop-color="#119786"/></linearGradient><linearGradient id="lg5"><stop offset="0" stop-color="#ffd945"/><stop offset=".3043" stop-color="#ffcd3e"/><stop offset=".8558" stop-color="#ffad2b"/><stop offset="1" stop-color="#ffa325"/></linearGradient><linearGradient id="SVGID_34_" gradientUnits="userSpaceOnUse" x1="222.336" x2="299.878" xlink:href="#lg5" y1="133.909" y2="211.45"/><linearGradient id="SVGID_35_" gradientUnits="userSpaceOnUse" x1="297.639" x2="182.734" xlink:href="#lg5" y1="209.211" y2="94.306"/><linearGradient id="SVGID_36_" gradientUnits="userSpaceOnUse" x1="259.12" x2="217.727" xlink:href="#lg3" y1="173.68" y2="102.267"/><linearGradient id="lg6"><stop offset="0" stop-color="#ff819c"/><stop offset=".2594" stop-color="#ff7e9a"/><stop offset=".4757" stop-color="#fe7396"/><stop offset=".6765" stop-color="#fc628e"/><stop offset=".8668" stop-color="#fa4a83"/><stop offset="1" stop-color="#f83479"/></linearGradient><linearGradient id="SVGID_37_" gradientUnits="userSpaceOnUse" x1="337.087" x2="412.39" xlink:href="#lg6" y1="447.094" y2="447.094"/><linearGradient id="SVGID_38_" gradientUnits="userSpaceOnUse" x1="428.211" x2="503.514" xlink:href="#lg6" y1="182.443" y2="182.443"/><linearGradient id="SVGID_39_" gradientUnits="userSpaceOnUse" x1="22.218" x2="97.521" xlink:href="#lg6" y1="188.752" y2="188.752"/><linearGradient id="SVGID_40_" gradientUnits="userSpaceOnUse" x1="432.057" x2="485.309" xlink:href="#lg6" y1="337.574" y2="337.574"/><linearGradient id="SVGID_41_" gradientUnits="userSpaceOnUse" x1="260.007" x2="313.259" xlink:href="#lg6" y1="64.937" y2="64.937"/><linearGradient id="SVGID_42_" gradientUnits="userSpaceOnUse" x1="77.344" x2="130.596" xlink:href="#lg6" y1="416.498" y2="416.498"/><g><g><path d="m418.89 243.373-37.61-59.359c-5.309-8.38-14.031-14.004-23.855-15.383l-29.301-4.114c-17.743-2.491-35.311 5.583-44.974 20.671l-15.327 23.932c-2.148 3.353-5.433 5.917-9.307 6.837-6.347 1.508-12.73-1.205-16.104-6.472l-15.561-24.296c-9.663-15.088-27.231-23.163-44.974-20.671l-29.301 4.114c-9.824 1.379-18.546 7.004-23.855 15.384l-37.61 59.359c-6.779 10.699-6.024 24.52 1.88 34.417l148.801 182.067c6.826 8.352 19.592 8.352 26.418 0l148.8-182.069c7.904-9.897 8.658-23.718 1.88-34.417z" fill="url(#SVGID_1_)"/><path d="m160.439 233.918c-3.911 12.821-3.476 29.384 1.084 41.244l88.521 190.209c3.228.974 6.684.974 9.911 0l88.521-190.209c4.56-11.86 4.995-28.423 1.084-41.244l-21.159-69.362-.277-.039c-17.743-2.491-35.311 5.583-44.974 20.671l-15.327 23.932c-2.148 3.353-5.433 5.916-9.307 6.837-6.347 1.508-12.73-1.205-16.104-6.472l-15.561-24.297c-9.663-15.088-27.231-23.162-44.974-20.671l-.277.039z" fill="url(#SVGID_2_)"/><path d="m161.521 275.16c-1.479-3.852-2.519-8.203-3.134-12.758h-71.702c.585 5.5 2.686 10.856 6.304 15.387l148.801 182.067c2.247 2.749 5.142 4.574 8.254 5.514z" fill="url(#SVGID_3_)"/><path d="m351.613 262.403c-.615 4.555-1.655 8.905-3.134 12.758l-88.523 190.211c3.111-.939 6.006-2.765 8.254-5.514l148.8-182.068c3.619-4.531 5.72-9.887 6.304-15.387z" fill="url(#SVGID_4_)"/><path d="m381.28 184.014c-5.309-8.38-14.031-14.004-23.855-15.384l-29.301-4.114c-17.743-2.491-35.311 5.583-44.974 20.671l-15.561 24.297c-2.748 4.291-7.493 6.887-12.589 6.887s-9.84-2.596-12.589-6.887l-15.561-24.297c-9.663-15.088-27.231-23.162-44.974-20.671l-29.301 4.114c-9.824 1.379-18.546 7.004-23.855 15.384l-37.61 59.359c-3.676 5.802-5.118 12.52-4.424 19.034h336.628c.693-6.514-.749-13.232-4.424-19.034z" fill="url(#SVGID_5_)"/><path d="m158.387 262.402 72.046-71.621-3.583-5.594c-9.663-15.088-27.231-23.162-44.974-20.671l-29.301 4.114c-7.643 1.073-14.61 4.725-19.831 10.236z" fill="url(#SVGID_6_)"/><path d="m351.609 262.402-72.046-71.621 3.583-5.594c9.663-15.088 27.231-23.162 44.974-20.671l29.301 4.114c7.643 1.073 14.61 4.725 19.831 10.236z" fill="url(#SVGID_7_)"/><path d="m381.28 184.014c-5.309-8.38-14.031-14.004-23.855-15.384l-29.301-4.114c-17.743-2.491-35.311 5.583-44.974 20.671l-15.327 23.932c-2.148 3.353-5.433 5.916-9.307 6.837-1.177.28-2.355.413-3.515.413v249.752c4.898 0 9.796-2.088 13.209-6.264l148.8-182.067c7.903-9.897 8.658-23.718 1.88-34.417z" fill="url(#SVGID_8_)"/></g><g><g><g><circle cx="31.633" cy="56.569" fill="url(#SVGID_9_)" r="31.633"/><path d="m31.633 84.806c15.595 0 28.237-12.642 28.237-28.237s-12.642-28.236-28.237-28.236c-15.594 0-28.236 12.642-28.236 28.236-.001 15.595 12.642 28.237 28.236 28.237z" fill="url(#SVGID_10_)"/><path d="m3.336 70.72c4.258 2.134 9.063 3.336 14.15 3.336 17.47 0 31.633-14.162 31.633-31.633 0-5.087-1.203-9.892-3.336-14.15 10.366 5.194 17.483 15.913 17.483 28.297 0 17.471-14.163 31.633-31.633 31.633-12.383-.001-23.103-7.117-28.297-17.483z" fill="url(#SVGID_11_)"/></g></g><g><g><circle cx="79.995" cy="91.207" fill="url(#SVGID_12_)" r="31.633"/><path d="m79.995 119.444c15.595 0 28.237-12.642 28.237-28.237s-12.642-28.236-28.237-28.236c-15.594 0-28.236 12.642-28.236 28.236-.001 15.595 12.641 28.237 28.236 28.237z" fill="url(#SVGID_13_)"/><path d="m51.698 105.357c4.258 2.134 9.063 3.336 14.15 3.336 17.47 0 31.633-14.162 31.633-31.633 0-5.087-1.203-9.892-3.336-14.15 10.366 5.194 17.483 15.913 17.483 28.297 0 17.471-14.163 31.633-31.633 31.633-12.384 0-23.103-7.117-28.297-17.483z" fill="url(#SVGID_14_)"/></g></g><g><g><circle cx="135.261" cy="114.841" fill="url(#SVGID_15_)" r="31.633"/><path d="m135.261 143.077c15.595 0 28.237-12.642 28.237-28.237s-12.642-28.236-28.237-28.236c-15.594 0-28.236 12.642-28.236 28.236 0 15.595 12.642 28.237 28.236 28.237z" fill="url(#SVGID_16_)"/><path d="m106.964 128.991c4.258 2.134 9.063 3.336 14.15 3.336 17.47 0 31.633-14.162 31.633-31.633 0-5.087-1.203-9.892-3.336-14.15 10.366 5.194 17.483 15.913 17.483 28.297 0 17.471-14.163 31.633-31.633 31.633-12.383 0-23.103-7.117-28.297-17.483z" fill="url(#SVGID_17_)"/></g></g><g><g><circle cx="195.13" cy="128.8" fill="url(#SVGID_18_)" r="31.633"/><path d="m195.13 157.036c15.595 0 28.237-12.642 28.237-28.237s-12.642-28.236-28.237-28.236c-15.594 0-28.236 12.642-28.236 28.236 0 15.595 12.642 28.237 28.236 28.237z" fill="url(#SVGID_19_)"/><path d="m166.834 142.95c4.258 2.134 9.063 3.336 14.15 3.336 17.47 0 31.633-14.162 31.633-31.633 0-5.087-1.203-9.892-3.336-14.15 10.366 5.194 17.483 15.913 17.483 28.297 0 17.471-14.163 31.633-31.633 31.633-12.384 0-23.104-7.117-28.297-17.483z" fill="url(#SVGID_20_)"/></g></g><g><g><circle cx="314.869" cy="128.8" fill="url(#SVGID_21_)" r="31.633"/><path d="m314.869 157.036c15.595 0 28.237-12.642 28.237-28.237s-12.642-28.236-28.237-28.236c-15.594 0-28.236 12.642-28.236 28.236 0 15.595 12.642 28.237 28.236 28.237z" fill="url(#SVGID_22_)"/><path d="m286.573 142.95c4.258 2.134 9.063 3.336 14.15 3.336 17.47 0 31.633-14.162 31.633-31.633 0-5.087-1.203-9.892-3.336-14.15 10.366 5.194 17.483 15.913 17.483 28.297 0 17.471-14.163 31.633-31.633 31.633-12.384 0-23.104-7.117-28.297-17.483z" fill="url(#SVGID_23_)"/></g></g><g><g><circle cx="374.739" cy="114.841" fill="url(#SVGID_24_)" r="31.633"/><path d="m374.739 143.077c15.595 0 28.237-12.642 28.237-28.237s-12.642-28.236-28.237-28.236c-15.594 0-28.236 12.642-28.236 28.236-.001 15.595 12.641 28.237 28.236 28.237z" fill="url(#SVGID_25_)"/><path d="m346.442 128.991c4.258 2.134 9.063 3.336 14.15 3.336 17.47 0 31.633-14.162 31.633-31.633 0-5.087-1.203-9.892-3.336-14.15 10.366 5.194 17.483 15.913 17.483 28.297 0 17.471-14.163 31.633-31.633 31.633-12.384 0-23.103-7.117-28.297-17.483z" fill="url(#SVGID_26_)"/></g></g><g><g><circle cx="430.005" cy="91.207" fill="url(#SVGID_27_)" r="31.633"/><path d="m430.005 119.444c15.595 0 28.237-12.642 28.237-28.237s-12.642-28.236-28.237-28.236c-15.594 0-28.236 12.642-28.236 28.236 0 15.595 12.642 28.237 28.236 28.237z" fill="url(#SVGID_28_)"/><path d="m401.708 105.357c4.258 2.134 9.063 3.336 14.15 3.336 17.47 0 31.633-14.162 31.633-31.633 0-5.087-1.203-9.892-3.336-14.15 10.366 5.194 17.483 15.913 17.483 28.297 0 17.471-14.163 31.633-31.633 31.633-12.383 0-23.103-7.117-28.297-17.483z" fill="url(#SVGID_29_)"/></g></g><g><g><circle cx="478.367" cy="56.569" fill="url(#SVGID_30_)" r="31.633"/><path d="m478.367 84.806c15.595 0 28.237-12.642 28.237-28.237s-12.642-28.236-28.237-28.236c-15.594 0-28.236 12.642-28.236 28.236-.001 15.595 12.642 28.237 28.236 28.237z" fill="url(#SVGID_31_)"/><path d="m450.07 70.72c4.258 2.134 9.063 3.336 14.15 3.336 17.47 0 31.633-14.162 31.633-31.633 0-5.087-1.203-9.892-3.336-14.15 10.366 5.193 17.483 15.913 17.483 28.296 0 17.471-14.163 31.633-31.633 31.633-12.383 0-23.103-7.116-28.297-17.482z" fill="url(#SVGID_32_)"/></g></g></g><path d="m417.01 277.79c.038-.048.07-.099.108-.147l-110.865-110.865c-9.339 3.357-17.535 9.716-23.103 18.41l-15.327 23.932c-2.148 3.353-5.433 5.917-9.307 6.837-6.347 1.508-12.73-1.205-16.104-6.472l-15.561-24.296c-5.731-8.949-14.244-15.43-23.925-18.704-.009.29-.028.563-.028.866.221 15.001 6.764 28.471 17.101 37.845l141.058 141.058z" fill="url(#SVGID_33_)"/><g><g><path d="m255 114.449c-28.787 0-52.124 23.337-52.124 52.124s23.337 52.124 52.124 52.124 52.124-23.337 52.124-52.124-23.337-52.124-52.124-52.124zm0 81.937c-16.465 0-29.813-13.348-29.813-29.813s13.348-29.813 29.813-29.813 29.813 13.348 29.813 29.813-13.348 29.813-29.813 29.813z" fill="url(#SVGID_34_)"/><path d="m255 119.594c-25.946 0-46.979 21.033-46.979 46.979s21.033 46.979 46.979 46.979 46.979-21.033 46.979-46.979-21.033-46.979-46.979-46.979zm0 76.792c-16.465 0-29.813-13.348-29.813-29.813s13.348-29.813 29.813-29.813 29.813 13.348 29.813 29.813-13.348 29.813-29.813 29.813z" fill="url(#SVGID_35_)"/><path d="m255 117.377c-27.17 0-49.196 22.026-49.196 49.196s22.026 49.196 49.196 49.196 49.196-22.026 49.196-49.196-22.026-49.196-49.196-49.196zm0 79.009c-16.465 0-29.813-13.348-29.813-29.813s13.348-29.813 29.813-29.813 29.813 13.348 29.813 29.813-13.348 29.813-29.813 29.813z" fill="url(#SVGID_36_)"/></g></g><g><path d="m410.278 451.089c-12.662 8.251-23.466 19.12-31.647 31.834-1.84 2.859-6.086 2.851-7.915-.014-8.135-12.744-18.898-23.652-31.53-31.949-2.804-1.842-2.796-6.03.014-7.861 12.662-8.251 23.465-19.12 31.646-31.834 1.84-2.859 6.086-2.851 7.915.014 8.135 12.744 18.899 23.652 31.531 31.949 2.804 1.842 2.796 6.03-.014 7.861z" fill="url(#SVGID_37_)"/><path d="m501.401 186.438c-12.662 8.252-23.466 19.12-31.647 31.835-1.84 2.859-6.086 2.851-7.915-.014-8.135-12.744-18.898-23.652-31.53-31.949-2.804-1.842-2.796-6.03.014-7.861 12.662-8.251 23.465-19.12 31.646-31.834 1.84-2.859 6.086-2.852 7.915.014 8.135 12.744 18.899 23.652 31.531 31.949 2.804 1.841 2.797 6.029-.014 7.86z" fill="url(#SVGID_38_)"/><path d="m95.409 192.747c-12.662 8.251-23.465 19.12-31.647 31.834-1.84 2.859-6.086 2.851-7.915-.014-8.135-12.744-18.898-23.652-31.53-31.949-2.804-1.842-2.796-6.03.014-7.861 12.662-8.251 23.465-19.12 31.646-31.834 1.84-2.859 6.086-2.852 7.915.014 8.135 12.744 18.899 23.652 31.531 31.949 2.804 1.842 2.796 6.03-.014 7.861z" fill="url(#SVGID_39_)"/><path d="m483.815 340.399c-8.954 5.835-16.594 13.521-22.38 22.512-1.301 2.022-4.304 2.016-5.597-.01-5.753-9.012-13.364-16.726-22.297-22.593-1.983-1.302-1.977-4.264.01-5.559 8.954-5.835 16.594-13.521 22.379-22.512 1.301-2.022 4.304-2.016 5.597.01 5.753 9.012 13.365 16.726 22.297 22.593 1.984 1.302 1.978 4.264-.009 5.559z" fill="url(#SVGID_40_)"/><path d="m311.765 67.762c-8.954 5.835-16.594 13.521-22.379 22.512-1.301 2.022-4.304 2.016-5.597-.01-5.753-9.012-13.364-16.726-22.297-22.593-1.983-1.302-1.977-4.264.01-5.559 8.954-5.835 16.594-13.521 22.379-22.512 1.301-2.022 4.304-2.017 5.597.01 5.753 9.012 13.365 16.726 22.297 22.593 1.983 1.303 1.977 4.264-.01 5.559z" fill="url(#SVGID_41_)"/><path d="m129.102 419.323c-8.954 5.835-16.594 13.521-22.38 22.512-1.301 2.022-4.304 2.016-5.597-.01-5.753-9.012-13.364-16.726-22.297-22.593-1.983-1.302-1.977-4.264.01-5.559 8.954-5.835 16.594-13.521 22.379-22.512 1.301-2.022 4.304-2.016 5.597.01 5.753 9.012 13.365 16.726 22.297 22.593 1.984 1.303 1.978 4.264-.009 5.559z" fill="url(#SVGID_42_)"/></g></g></svg>