<svg id="Capa_1" enable-background="new 0 0 510 510" height="512" viewBox="0 0 510 510" width="512" xmlns="http://www.w3.org/2000/svg" xmlns:xlink="http://www.w3.org/1999/xlink"><linearGradient id="SVGID_1_" gradientUnits="userSpaceOnUse" x1="191.125" x2="378.559" y1="123.26" y2="425.921"><stop offset="0" stop-color="#ff819c"/><stop offset=".2594" stop-color="#ff7e9a"/><stop offset=".4757" stop-color="#fe7396"/><stop offset=".6765" stop-color="#fc628e"/><stop offset=".8668" stop-color="#fa4a83"/><stop offset="1" stop-color="#f83479"/></linearGradient><linearGradient id="lg1"><stop offset="0" stop-color="#f8f6fb"/><stop offset="1" stop-color="#efdcfb"/></linearGradient><linearGradient id="SVGID_2_" gradientUnits="userSpaceOnUse" x1="169.251" x2="356.686" xlink:href="#lg1" y1="145.134" y2="447.795"/><linearGradient id="SVGID_3_" gradientUnits="userSpaceOnUse" x1="314.03" x2="101.025" y1="515.854" y2="302.848"><stop offset="0" stop-color="#efdcfb" stop-opacity="0"/><stop offset=".4856" stop-color="#baaad6" stop-opacity=".486"/><stop offset="1" stop-color="#8679b2"/></linearGradient><linearGradient id="SVGID_4_" gradientUnits="userSpaceOnUse" x1="362.01" x2="390.146" xlink:href="#lg1" y1="437.764" y2="483.196"/><linearGradient id="lg2"><stop offset="0" stop-color="#ff7044"/><stop offset="1" stop-color="#f82814"/></linearGradient><linearGradient id="SVGID_5_" gradientTransform="matrix(.937 -.351 .351 .937 -84.495 -90.909)" gradientUnits="userSpaceOnUse" x1="88.85" x2="115.297" xlink:href="#lg2" y1="551.01" y2="624.742"/><linearGradient id="SVGID_6_" gradientTransform="matrix(.937 -.351 .351 .937 -84.495 -90.909)" gradientUnits="userSpaceOnUse" x1="72.508" x2="91.742" xlink:href="#lg2" y1="497.511" y2="560.825"/><linearGradient id="SVGID_7_" gradientTransform="matrix(.937 -.351 .351 .937 -84.495 -90.909)" gradientUnits="userSpaceOnUse" x1="114.127" x2="58.828" y1="508.503" y2="424.353"><stop offset="0" stop-color="#f82814" stop-opacity="0"/><stop offset="1" stop-color="#c0272d"/></linearGradient><linearGradient id="SVGID_8_" gradientTransform="matrix(.937 -.351 .351 .937 -84.495 -90.909)" gradientUnits="userSpaceOnUse" x1="102.757" x2="70.737" xlink:href="#lg1" y1="556.219" y2="524.199"/><g><path d="m358.761 488.127h-248.065c-15.91 0-28.807-12.898-28.807-28.807v-430.513c0-15.909 12.898-28.807 28.807-28.807h310.48c15.91 0 28.807 12.898 28.807 28.807v368.096c.001 50.381-40.841 91.224-91.222 91.224z" fill="url(#SVGID_1_)"/><g><path d="m336.887 510h-248.064c-15.91 0-28.807-12.898-28.807-28.807v-430.512c0-15.91 12.898-28.807 28.807-28.807h310.48c15.91 0 28.807 12.898 28.807 28.807v368.096c.001 50.381-40.841 91.223-91.223 91.223z" fill="url(#SVGID_2_)"/><path d="m407.064 477.052-122.895-122.894c-3.565-1.718-10.281-5.917-22.204-16.158-20.843-17.901-60.561-41.587-75.215-36.099-5.987 2.242-10.306 7.507-13.321 12.951-4.131 7.461-13.093 10.817-21.109 7.905-5.848-2.125-12.563-3.258-18.551-1.015-14.654 5.488-29.044 49.437-33 76.625-2.263 15.552-4.573 23.131-6.135 26.77-.765 1.78.03 3.841 1.804 4.621.292.128 50.121 49.664 80.865 80.243h159.585c28.22-.001 53.443-12.821 70.176-32.949z" fill="url(#SVGID_3_)"/><path d="m357.693 418.776c-15.91 0-28.808 12.898-28.808 28.808v62.416h8.002c50.381 0 91.223-40.842 91.223-91.223h-70.417z" fill="url(#SVGID_4_)"/></g><g fill="#e3ceef"><path d="m392.119 123.371h-296.112c-5.184 0-9.386-4.202-9.386-9.386v-15.325c0-5.184 4.202-9.386 9.386-9.386h296.112c5.184 0 9.386 4.202 9.386 9.386v15.325c.001 5.184-4.202 9.386-9.386 9.386z"/><path d="m392.119 196.99h-296.112c-5.184 0-9.386-4.202-9.386-9.386v-15.325c0-5.184 4.202-9.386 9.386-9.386h296.112c5.184 0 9.386 4.202 9.386 9.386v15.325c.001 5.184-4.202 9.386-9.386 9.386z"/><path d="m392.119 270.61h-296.112c-5.184 0-9.386-4.202-9.386-9.386v-15.325c0-5.184 4.202-9.386 9.386-9.386h296.112c5.184 0 9.386 4.202 9.386 9.386v15.325c.001 5.183-4.202 9.386-9.386 9.386z"/><path d="m392.119 344.229h-296.112c-5.184 0-9.386-4.202-9.386-9.386v-15.325c0-5.184 4.202-9.386 9.386-9.386h296.112c5.184 0 9.386 4.202 9.386 9.386v15.325c.001 5.183-4.202 9.386-9.386 9.386z"/></g><g><path d="m285.843 358.824c.823-1.752.07-3.826-1.674-4.667-3.565-1.718-10.281-5.917-22.204-16.158-20.843-17.901-60.561-41.587-75.215-36.099-5.987 2.242-10.306 7.507-13.321 12.951-4.131 7.461-13.093 10.817-21.109 7.905-5.848-2.124-12.563-3.257-18.551-1.015-14.654 5.488-29.044 49.437-33 76.625-2.263 15.552-4.573 23.131-6.136 26.77-.765 1.78.03 3.841 1.804 4.621 4.891 2.152 14.371 7.364 27.055 19.225 17.898 16.737 50.472 39.023 87.403 16.807 3.789-2.279 7.968-3.844 12.322-4.614 42.439-7.508 52.361-45.709 54.863-70.085 1.772-17.278 5.492-27.433 7.763-32.266z" fill="url(#SVGID_5_)"/><path d="m286.032 356.343c-11.258 6.501-25.194 13.051-40.647 18.838-21.03 7.876-40.873 12.842-55.968 14.511-12.479 8.657-30.703 17.946-51.733 25.822-15.453 5.787-30.263 10.003-43.022 12.496-.401-.877-.439-1.915-.028-2.874 1.56-3.639 3.869-11.218 6.133-26.768.597-4.096 1.431-8.576 2.469-13.244 5.831-26.317 18.085-58.723 30.533-63.385 5.985-2.242 12.701-1.106 18.549 1.017 8.063 2.928 16.956-.402 21.112-7.906 3.015-5.442 7.333-10.709 13.318-12.951 12.448-4.662 42.974 11.724 64.657 27.737 3.848 2.838 7.42 5.668 10.561 8.364 11.923 10.242 18.638 14.44 22.203 16.156.94.453 1.59 1.262 1.863 2.187z" fill="url(#SVGID_6_)"/><path d="m261.966 338c-3.141-2.696-6.712-5.526-10.561-8.364-21.683-16.013-52.209-32.399-64.657-27.737-5.985 2.241-10.303 7.508-13.318 12.951-2.079 3.753-5.343 6.462-9.095 7.867l25.082 66.975c15.096-1.669 34.938-6.636 55.968-14.511 15.453-5.787 29.389-12.337 40.647-18.838-.273-.925-.923-1.734-1.863-2.186-3.565-1.716-10.28-5.915-22.203-16.157z" fill="url(#SVGID_7_)"/><path d="m199.473 416.544c-.901.338-1.882.47-2.835.382-3.726-.342-11.108-1.302-18.687-3.884-9.669-3.293-16.458-8.106-20.181-14.304-2.789-4.644-3.383-10.223-1.631-15.307 1.607-4.661 4.988-8.299 9.521-10.244.268-.115.543-.225.815-.327 4.341-1.626 9.044-1.546 13.242.225.754.318 1.487.689 2.179 1.104 1.131.677 2.598.128 3.006-1.126.25-.768.559-1.53.919-2.264 2.002-4.093 5.496-7.242 9.837-8.868.272-.102.552-.199.83-.289 4.696-1.511 9.635-.989 13.908 1.47 4.661 2.682 7.878 7.28 8.825 12.613 1.264 7.119-.694 15.207-5.821 24.041-4.02 6.926-8.955 12.498-11.539 15.204-.66.692-1.486 1.237-2.388 1.574z" fill="url(#SVGID_8_)"/></g></g></svg>