<svg id="Capa_1" enable-background="new 0 0 510 510" height="512" viewBox="0 0 510 510" width="512" xmlns="http://www.w3.org/2000/svg" xmlns:xlink="http://www.w3.org/1999/xlink"><linearGradient id="lg1"><stop offset="0" stop-color="#ffd945"/><stop offset=".3043" stop-color="#ffcd3e"/><stop offset=".8558" stop-color="#ffad2b"/><stop offset="1" stop-color="#ffa325"/></linearGradient><linearGradient id="SVGID_1_" gradientUnits="userSpaceOnUse" x1="255" x2="255" xlink:href="#lg1" y1="59.973" y2="152.525"/><linearGradient id="SVGID_2_" gradientUnits="userSpaceOnUse" x1="244.009" x2="203.268" y1="96.281" y2="-20.038"><stop offset="0" stop-color="#ffd945" stop-opacity="0"/><stop offset="1" stop-color="#fbed21"/></linearGradient><linearGradient id="SVGID_3_" gradientUnits="userSpaceOnUse" x1="218.426" x2="373.414" xlink:href="#lg1" y1="230.895" y2="424.41"/><linearGradient id="SVGID_4_" gradientUnits="userSpaceOnUse" x1="433.555" x2="105.321" xlink:href="#lg1" y1="458.107" y2="129.873"/><linearGradient id="lg2"><stop offset="0" stop-color="#ff7044"/><stop offset="1" stop-color="#f82814"/></linearGradient><linearGradient id="SVGID_5_" gradientUnits="userSpaceOnUse" x1="223.601" x2="358.67" xlink:href="#lg2" y1="237.329" y2="405.975"/><linearGradient id="SVGID_6_" gradientUnits="userSpaceOnUse" x1="315.058" x2="202.738" xlink:href="#lg2" y1="363.802" y2="363.802"/><linearGradient id="SVGID_7_" gradientUnits="userSpaceOnUse" x1="309.525" x2="207.552" y1="363.802" y2="363.802"><stop offset="0" stop-color="#8a7889"/><stop offset="1" stop-color="#6e566e"/></linearGradient><g><g><path d="m387.893 171.627c-11.582 0-20.971-9.389-20.971-20.971v-43.904c0-35.793-29.016-64.81-64.81-64.81h-94.223c-35.794 0-64.81 29.017-64.81 64.81v43.904c0 11.582-9.389 20.971-20.971 20.971-11.582 0-20.971-9.389-20.971-20.971v-43.904c-.001-58.957 47.794-106.752 106.751-106.752h94.223c58.958 0 106.753 47.795 106.753 106.753v43.904c0 11.581-9.389 20.97-20.971 20.97z" fill="url(#SVGID_1_)"/><path d="m299.301 10.241h-88.601c-55.44 0-100.383 44.943-100.383 100.383v49.214c0 6.512 5.279 11.79 11.79 11.79 11.582 0 20.971-9.389 20.971-20.971v-43.904c0-35.793 29.016-64.81 64.81-64.81h94.223c35.794 0 64.81 29.017 64.81 64.81v43.904c0 11.582 9.389 20.971 20.971 20.971 6.511 0 11.79-5.279 11.79-11.79v-49.214c.001-55.44-44.942-100.383-100.381-100.383z" fill="url(#SVGID_2_)"/></g><path d="m255 510c-8.047 0-16.108-1.905-23.31-5.51-21.765-10.892-64.268-34.25-104.362-68.3-52.157-44.295-83.072-91.84-91.886-141.314-6.847-38.433 2.929-77.667 26.818-107.643 22.126-27.761 53.477-43.984 88.281-45.68 2.046-.1 4.12-.15 6.162-.15 32.608 0 63.391 12.567 86.678 35.386 4.206 4.122 8.084 8.495 11.617 13.086 3.534-4.591 7.412-8.965 11.618-13.087 23.286-22.818 54.07-35.384 86.679-35.384 2.041 0 4.115.051 6.162.15 34.804 1.696 66.157 17.919 88.283 45.682 23.89 29.975 33.664 69.209 26.816 107.641-8.813 49.473-39.728 97.018-91.885 141.313-40.092 34.049-82.594 57.406-104.362 68.3-7.201 3.605-15.262 5.51-23.309 5.51z" fill="url(#SVGID_3_)"/><path d="m255 497.223c-6.072 0-12.155-1.438-17.591-4.159-21.253-10.636-62.742-33.434-101.809-66.612-49.834-42.321-79.299-87.344-87.579-133.816-6.203-34.818 2.63-70.333 24.232-97.438 19.803-24.848 47.829-39.366 78.912-40.881 1.839-.09 3.703-.135 5.539-.135 29.244 0 56.851 11.271 77.735 31.735 3.751 3.675 7.261 7.63 10.434 11.752l10.124 13.157 10.126-13.156c3.178-4.128 6.689-8.083 10.436-11.755 20.883-20.463 48.49-31.733 77.737-31.733 1.835 0 3.7.046 5.539.135 31.085 1.515 59.11 16.034 78.913 40.883 21.602 27.104 30.433 62.618 24.229 97.436-8.279 46.473-37.744 91.495-87.578 133.816-39.07 33.181-80.556 55.977-101.809 66.612-5.434 2.721-11.517 4.159-17.59 4.159z" fill="url(#SVGID_4_)"/><g><path d="m358.214 167.079c-55.793-2.718-102.006 41.103-103.19 96.015-.002.12-.044.12-.046 0-1.184-54.912-47.398-98.733-103.19-96.015-61.276 2.986-101.945 62.919-91.185 123.317 18.097 101.58 143.114 171.52 182.526 191.243 7.48 3.743 16.266 3.743 23.746 0 39.412-19.723 164.429-89.663 182.526-191.243 10.758-60.398-29.911-120.331-91.187-123.317z" fill="url(#SVGID_5_)"/></g><path d="m255.019 450.396c-14.548-.001-26.382-12.067-26.382-26.897v-40.701c0-4.72-2.226-9.223-5.954-12.044-1.932-1.463-3.806-2.965-5.569-4.463-14.982-12.723-23.897-26.57-26.497-41.156-2.125-11.933.921-24.129 8.358-33.459 6.982-8.761 16.894-13.881 27.911-14.419.642-.031 1.292-.047 1.932-.047 9.759 0 18.997 3.575 26.183 10.101 7.188-6.526 16.426-10.101 26.184-10.101.64 0 1.29.016 1.931.047 11.018.538 20.93 5.658 27.913 14.418 7.436 9.331 10.482 21.525 8.357 33.458-2.599 14.586-11.514 28.434-26.498 41.159-1.762 1.497-3.636 2.999-5.568 4.462-3.728 2.822-5.954 7.324-5.954 12.044v41.235c0 14.267-11.602 26.092-25.862 26.358z" fill="url(#SVGID_6_)"/><path d="m306.341 295.409c-5.894-7.395-14.245-11.717-23.516-12.168-.545-.027-1.098-.04-1.641-.04-8.686 0-16.886 3.347-23.089 9.426-1.121 1.098-2.153 2.263-3.095 3.486-.941-1.223-1.974-2.388-3.094-3.486-6.203-6.078-14.403-9.426-23.089-9.426-.544 0-1.096.013-1.641.04-9.271.452-17.622 4.773-23.516 12.168-6.364 7.985-8.968 18.436-7.144 28.673 2.348 13.179 10.583 25.843 24.476 37.642 1.761 1.495 3.539 2.913 5.307 4.251 5.264 3.984 8.33 10.22 8.33 16.822v40.701c0 11.419 9.344 21.116 20.761 20.902 11.072-.208 19.983-9.247 19.983-20.368v-41.235c0-6.602 3.065-12.838 8.33-16.822 1.768-1.338 3.546-2.755 5.307-4.251 13.893-11.799 22.129-24.464 24.476-37.642 1.822-10.237-.781-20.688-7.145-28.673z" fill="url(#SVGID_7_)"/></g></svg>