<svg id="Capa_1" enable-background="new 0 0 510 510" height="512" viewBox="0 0 510 510" width="512" xmlns="http://www.w3.org/2000/svg" xmlns:xlink="http://www.w3.org/1999/xlink"><linearGradient id="SVGID_1_" gradientUnits="userSpaceOnUse" x1="235.791" x2="400.345" y1="95.014" y2="300.473"><stop offset="0" stop-color="#ff7044"/><stop offset="1" stop-color="#f82814"/></linearGradient><linearGradient id="lg1"><stop offset="0" stop-color="#f82814" stop-opacity="0"/><stop offset="1" stop-color="#c0272d"/></linearGradient><linearGradient id="SVGID_2_" gradientUnits="userSpaceOnUse" x1="330.296" x2="398.435" xlink:href="#lg1" y1="245.825" y2="391.456"/><linearGradient id="SVGID_3_" gradientUnits="userSpaceOnUse" x1="313.546" x2="96.955" xlink:href="#lg1" y1="154.848" y2="-65.99"/><linearGradient id="SVGID_4_" gradientTransform="matrix(.707 .707 -.707 .707 260.34 -103.413)" gradientUnits="userSpaceOnUse" x1="235.506" x2="283.879" y1="561.591" y2="609.963"><stop offset="0" stop-color="#65e0db"/><stop offset=".199" stop-color="#60dcd6"/><stop offset=".4277" stop-color="#53d0c8"/><stop offset=".671" stop-color="#3cbcb1"/><stop offset=".9229" stop-color="#1ca191"/><stop offset="1" stop-color="#119786"/></linearGradient><linearGradient id="lg2"><stop offset="0" stop-color="#fff" stop-opacity="0"/><stop offset="1" stop-color="#fff"/></linearGradient><linearGradient id="SVGID_5_" gradientTransform="matrix(.707 .707 -.707 .707 260.34 -103.413)" gradientUnits="userSpaceOnUse" x1="255.895" x2="234.499" xlink:href="#lg2" y1="572.89" y2="592.103"/><linearGradient id="SVGID_6_" gradientUnits="userSpaceOnUse" x1="265.197" x2="126.698" y1="278.423" y2="121.813"><stop offset="0" stop-color="#e8ecf4" stop-opacity="0"/><stop offset="1" stop-color="#fff"/></linearGradient><linearGradient id="SVGID_7_" gradientTransform="matrix(.707 .707 -.707 .707 -411.856 -702.703)" gradientUnits="userSpaceOnUse" x1="1139.967" x2="1169.015" y1="375.293" y2="375.293"><stop offset="0" stop-color="#f8f6fb"/><stop offset="1" stop-color="#efdcfb"/></linearGradient><linearGradient id="SVGID_8_" gradientTransform="matrix(.707 .707 -.707 .707 -411.856 -702.703)" gradientUnits="userSpaceOnUse" x1="1163.528" x2="1144.657" y1="387.711" y2="349.026"><stop offset="0" stop-color="#efdcfb" stop-opacity="0"/><stop offset=".4856" stop-color="#baaad6" stop-opacity=".486"/><stop offset="1" stop-color="#8679b2"/></linearGradient><linearGradient id="lg3"><stop offset="0" stop-color="#8a7889"/><stop offset="1" stop-color="#6e566e"/></linearGradient><linearGradient id="SVGID_9_" gradientUnits="userSpaceOnUse" x1="196.91" x2="392.685" xlink:href="#lg3" y1="208.073" y2="403.849"/><linearGradient id="SVGID_10_" gradientTransform="matrix(.707 .707 -.707 .707 260.34 -103.413)" gradientUnits="userSpaceOnUse" x1="345.466" x2="126.207" xlink:href="#lg3" y1="360.911" y2="141.652"/><linearGradient id="SVGID_11_" gradientTransform="matrix(.707 .707 -.707 .707 260.34 -103.413)" gradientUnits="userSpaceOnUse" x1="246.905" x2="-33.415" xlink:href="#lg2" y1="263.109" y2="60.074"/><linearGradient id="SVGID_12_" gradientTransform="matrix(.707 .707 -.707 .707 -411.856 -702.703)" gradientUnits="userSpaceOnUse" x1="1135.481" x2="1179.368" y1="446.866" y2="446.866"><stop offset="0" stop-color="#ffd945"/><stop offset="1" stop-color="#ffa325"/></linearGradient><linearGradient id="lg4"><stop offset="0" stop-color="#ffd945"/><stop offset=".3043" stop-color="#ffcd3e"/><stop offset=".8558" stop-color="#ffad2b"/><stop offset="1" stop-color="#ffa325"/></linearGradient><linearGradient id="SVGID_13_" gradientTransform="matrix(.707 .707 -.707 .707 260.34 -103.413)" gradientUnits="userSpaceOnUse" x1="222.363" x2="227.967" xlink:href="#lg4" y1="555.21" y2="555.21"/><linearGradient id="SVGID_14_" gradientTransform="matrix(.707 .707 -.707 .707 260.34 -103.413)" gradientUnits="userSpaceOnUse" x1="230.462" x2="236.066" xlink:href="#lg4" y1="555.21" y2="555.21"/><linearGradient id="SVGID_15_" gradientTransform="matrix(.707 .707 -.707 .707 260.34 -103.413)" gradientUnits="userSpaceOnUse" x1="238.561" x2="244.165" xlink:href="#lg4" y1="555.21" y2="555.21"/><linearGradient id="SVGID_16_" gradientTransform="matrix(.707 .707 -.707 .707 260.34 -103.413)" gradientUnits="userSpaceOnUse" x1="246.661" x2="252.265" xlink:href="#lg4" y1="555.21" y2="555.21"/><linearGradient id="SVGID_17_" gradientTransform="matrix(.707 .707 -.707 .707 260.34 -103.413)" gradientUnits="userSpaceOnUse" x1="254.76" x2="260.364" xlink:href="#lg4" y1="555.21" y2="555.21"/><linearGradient id="SVGID_18_" gradientTransform="matrix(.707 .707 -.707 .707 260.34 -103.413)" gradientUnits="userSpaceOnUse" x1="262.859" x2="268.463" xlink:href="#lg4" y1="555.21" y2="555.21"/><linearGradient id="SVGID_19_" gradientTransform="matrix(.707 .707 -.707 .707 260.34 -103.413)" gradientUnits="userSpaceOnUse" x1="270.959" x2="276.563" xlink:href="#lg4" y1="555.21" y2="555.21"/><linearGradient id="SVGID_20_" gradientTransform="matrix(.707 .707 -.707 .707 260.34 -103.413)" gradientUnits="userSpaceOnUse" x1="222.363" x2="227.967" xlink:href="#lg4" y1="440.151" y2="440.151"/><linearGradient id="SVGID_21_" gradientTransform="matrix(.707 .707 -.707 .707 260.34 -103.413)" gradientUnits="userSpaceOnUse" x1="230.462" x2="236.066" xlink:href="#lg4" y1="440.151" y2="440.151"/><linearGradient id="SVGID_22_" gradientTransform="matrix(.707 .707 -.707 .707 260.34 -103.413)" gradientUnits="userSpaceOnUse" x1="238.561" x2="244.165" xlink:href="#lg4" y1="440.151" y2="440.151"/><linearGradient id="SVGID_23_" gradientTransform="matrix(.707 .707 -.707 .707 260.34 -103.413)" gradientUnits="userSpaceOnUse" x1="246.661" x2="252.265" xlink:href="#lg4" y1="440.151" y2="440.151"/><linearGradient id="SVGID_24_" gradientTransform="matrix(.707 .707 -.707 .707 260.34 -103.413)" gradientUnits="userSpaceOnUse" x1="254.76" x2="260.364" xlink:href="#lg4" y1="440.151" y2="440.151"/><linearGradient id="SVGID_25_" gradientTransform="matrix(.707 .707 -.707 .707 260.34 -103.413)" gradientUnits="userSpaceOnUse" x1="262.859" x2="268.463" xlink:href="#lg4" y1="440.151" y2="440.151"/><linearGradient id="SVGID_26_" gradientTransform="matrix(.707 .707 -.707 .707 260.34 -103.413)" gradientUnits="userSpaceOnUse" x1="270.959" x2="276.563" xlink:href="#lg4" y1="440.151" y2="440.151"/><g><g><path d="m274.622 391.346c-8.544 0-17.102-2.023-24.748-5.85-23.108-11.565-68.235-36.363-110.803-72.515-55.376-47.029-88.199-97.508-97.558-150.036-7.269-40.805 3.109-82.46 28.474-114.286 23.491-29.474 56.778-46.698 93.73-48.499 2.173-.106 4.375-.16 6.542-.16 34.621 0 67.303 13.343 92.028 37.57 4.466 4.376 8.583 9.02 12.334 13.894 3.752-4.874 7.869-9.519 12.335-13.895 24.723-24.227 57.407-37.569 92.029-37.569 2.167 0 4.369.054 6.542.16 36.952 1.801 70.24 19.025 93.732 48.501 25.364 31.825 35.741 73.481 28.471 114.285-9.357 52.527-42.18 103.006-97.556 150.035-42.567 36.15-87.692 60.95-110.803 72.515-7.647 3.827-16.205 5.85-24.749 5.85z" fill="url(#SVGID_1_)"/><path d="m479.259 48.661c-8.805-11.049-18.987-20.376-30.222-27.814 20.511 30.459 28.464 68.214 21.862 105.268-9.357 52.527-42.18 103.006-97.556 150.035-42.567 36.15-87.692 60.95-110.803 72.515-7.647 3.827-16.205 5.849-24.748 5.849-8.544 0-17.102-2.023-24.748-5.849-23.108-11.565-68.235-36.364-110.803-72.515-1.824-1.549-3.62-3.102-5.394-4.658 12.191 14.094 26.266 27.936 42.226 41.49 42.568 36.151 87.695 60.95 110.803 72.515 7.647 3.827 16.205 5.849 24.748 5.849 8.544 0 17.102-2.022 24.748-5.849 23.111-11.565 68.236-36.365 110.803-72.515 55.376-47.029 88.199-97.509 97.556-150.035 7.269-40.805-3.108-82.461-28.472-114.286z" fill="url(#SVGID_2_)"/><path d="m385.527.16c-2.173-.106-4.374-.16-6.542-.16-34.622 0-67.306 13.342-92.029 37.568-4.466 4.376-8.583 9.02-12.334 13.894v339.883c8.544 0 17.102-2.022 24.748-5.85 23.111-11.565 68.236-36.365 110.803-72.515 55.376-47.029 88.199-97.508 97.556-150.035 7.27-40.804-3.107-82.46-28.471-114.285-23.491-29.475-56.779-46.699-93.731-48.5z" fill="url(#SVGID_3_)"/></g><g><g><path d="m53.728 456.272c.837.837 1.477 1.873 1.851 2.997 1.131 3.396 3.122 10.245 3.75 17.955.818 10.03-.912 18.189-5.14 24.251-3.285 4.709-8.381 7.772-13.983 8.405-5.188.586-10.135-.987-13.931-4.43-.223-.202-.444-.413-.656-.625-3.391-3.391-5.285-7.899-5.334-12.694-.009-.866.043-1.724.153-2.569-.845.11-1.703.162-2.569.153-4.794-.049-9.302-1.943-12.694-5.334-.212-.212-.423-.433-.625-.656-3.443-3.796-5.016-8.743-4.43-13.931.633-5.602 3.696-10.698 8.405-13.982 6.061-4.228 14.22-5.958 24.251-5.14 7.71.628 14.559 2.619 17.955 3.75 1.124.373 2.16 1.013 2.997 1.85z" fill="url(#SVGID_4_)"/><path d="m20.438 489.562c-.11.845-.162 1.703-.153 2.569.049 4.795 1.943 9.303 5.334 12.694.212.212.433.423.656.625 3.796 3.443 8.743 5.016 13.931 4.43 5.602-.633 10.698-3.696 13.983-8.405 4.228-6.061 5.958-14.221 5.14-24.251-.628-7.71-2.619-14.559-3.75-17.955-.374-1.124-1.014-2.16-1.851-2.997z" fill="url(#SVGID_5_)"/></g><g><circle cx="249.419" cy="260.581" fill="url(#SVGID_6_)" r="112.971"/><path d="m131.239 403.613-24.852-24.852 32.482-32.482 24.852 24.852z" fill="url(#SVGID_7_)"/><path d="m163.721 371.131-24.852-24.852-7.194 7.195v49.703z" fill="url(#SVGID_8_)"/><g><path d="m249.419 110.62c-82.821 0-149.962 67.14-149.962 149.962s67.14 149.961 149.962 149.961 149.962-67.14 149.962-149.961-67.141-149.962-149.962-149.962zm0 256c-58.564 0-106.039-47.475-106.039-106.039s47.475-106.039 106.039-106.039 106.039 47.475 106.039 106.039c-.001 58.564-47.476 106.039-106.039 106.039z" fill="url(#SVGID_9_)"/><path d="m249.419 380.037c65.974 0 119.456-53.482 119.456-119.456s-53.482-119.456-119.456-119.456-119.456 53.482-119.456 119.456 53.482 119.456 119.456 119.456zm0-225.494c58.564 0 106.039 47.475 106.039 106.039s-47.475 106.039-106.039 106.039-106.039-47.475-106.039-106.039 47.475-106.039 106.039-106.039z" fill="url(#SVGID_10_)"/><path d="m249.419 119.308c-78.023 0-141.274 63.25-141.274 141.274s63.25 141.273 141.274 141.273 141.274-63.25 141.274-141.273-63.251-141.274-141.274-141.274zm0 247.312c-58.564 0-106.039-47.475-106.039-106.039s47.475-106.039 106.039-106.039 106.039 47.475 106.039 106.039c-.001 58.564-47.476 106.039-106.039 106.039z" fill="url(#SVGID_11_)"/></g><path d="m61.885 485.661-37.546-37.546 78.85-78.85c2.107-2.107 5.523-2.107 7.63 0l29.916 29.916c2.107 2.107 2.107 5.523 0 7.63z" fill="url(#SVGID_12_)"/></g><g><path d="m24.002 453.707-2.071-2.071c-1.009-1.009-1.009-2.646 0-3.656l4.617-4.617c1.009-1.009 2.646-1.009 3.656 0l2.071 2.071c1.009 1.009 1.009 2.646 0 3.656l-4.617 4.617c-1.01 1.01-2.647 1.01-3.656 0z" fill="url(#SVGID_13_)"/><path d="m29.729 459.434-2.071-2.071c-1.009-1.009-1.009-2.646 0-3.656l4.617-4.617c1.009-1.009 2.646-1.009 3.656 0l2.071 2.071c1.009 1.009 1.009 2.646 0 3.656l-4.617 4.617c-1.01 1.01-2.647 1.01-3.656 0z" fill="url(#SVGID_14_)"/><path d="m35.456 465.161-2.071-2.071c-1.009-1.009-1.009-2.646 0-3.656l4.617-4.617c1.009-1.009 2.646-1.009 3.656 0l2.071 2.071c1.009 1.009 1.009 2.646 0 3.656l-4.617 4.617c-1.01 1.01-2.647 1.01-3.656 0z" fill="url(#SVGID_15_)"/><path d="m41.183 470.889-2.071-2.071c-1.009-1.009-1.009-2.646 0-3.656l4.617-4.617c1.009-1.009 2.646-1.009 3.656 0l2.071 2.071c1.009 1.009 1.009 2.646 0 3.656l-4.617 4.617c-1.01 1.009-2.647 1.009-3.656 0z" fill="url(#SVGID_16_)"/><path d="m46.91 476.616-2.071-2.071c-1.009-1.009-1.009-2.646 0-3.656l4.617-4.617c1.009-1.009 2.646-1.009 3.656 0l2.071 2.071c1.009 1.009 1.009 2.646 0 3.656l-4.617 4.617c-1.01 1.009-2.646 1.009-3.656 0z" fill="url(#SVGID_17_)"/><path d="m52.637 482.343-2.071-2.071c-1.009-1.009-1.009-2.646 0-3.656l4.617-4.617c1.009-1.009 2.646-1.009 3.656 0l2.071 2.071c1.009 1.009 1.009 2.646 0 3.656l-4.617 4.617c-1.01 1.009-2.646 1.009-3.656 0z" fill="url(#SVGID_18_)"/><path d="m58.364 488.07-2.071-2.071c-1.009-1.009-1.009-2.646 0-3.656l4.617-4.617c1.009-1.009 2.646-1.009 3.656 0l2.071 2.071c1.009 1.009 1.009 2.646 0 3.656l-4.617 4.617c-1.01 1.009-2.646 1.009-3.656 0z" fill="url(#SVGID_19_)"/></g><g><path d="m105.361 372.348-2.071-2.071c-1.009-1.009-1.009-2.646 0-3.656l4.617-4.617c1.009-1.009 2.646-1.009 3.656 0l2.071 2.071c1.009 1.009 1.009 2.646 0 3.656l-4.617 4.617c-1.01 1.01-2.647 1.01-3.656 0z" fill="url(#SVGID_20_)"/><path d="m111.088 378.075-2.071-2.071c-1.009-1.009-1.009-2.646 0-3.656l4.617-4.617c1.009-1.009 2.646-1.009 3.656 0l2.071 2.071c1.009 1.009 1.009 2.646 0 3.656l-4.617 4.617c-1.01 1.01-2.647 1.01-3.656 0z" fill="url(#SVGID_21_)"/><path d="m116.815 383.802-2.071-2.071c-1.009-1.009-1.009-2.646 0-3.656l4.617-4.617c1.009-1.009 2.646-1.009 3.656 0l2.071 2.071c1.009 1.009 1.009 2.646 0 3.656l-4.617 4.617c-1.01 1.01-2.647 1.01-3.656 0z" fill="url(#SVGID_22_)"/><path d="m122.542 389.53-2.071-2.071c-1.009-1.009-1.009-2.646 0-3.656l4.617-4.617c1.009-1.009 2.646-1.009 3.656 0l2.071 2.071c1.009 1.009 1.009 2.646 0 3.656l-4.617 4.617c-1.01 1.009-2.647 1.009-3.656 0z" fill="url(#SVGID_23_)"/><path d="m128.269 395.257-2.071-2.071c-1.009-1.009-1.009-2.646 0-3.656l4.617-4.617c1.009-1.009 2.646-1.009 3.656 0l2.071 2.071c1.009 1.009 1.009 2.646 0 3.656l-4.617 4.617c-1.01 1.009-2.646 1.009-3.656 0z" fill="url(#SVGID_24_)"/><path d="m133.996 400.984-2.071-2.071c-1.009-1.009-1.009-2.646 0-3.656l4.617-4.617c1.009-1.009 2.646-1.009 3.656 0l2.071 2.071c1.009 1.009 1.009 2.646 0 3.656l-4.617 4.617c-1.01 1.009-2.646 1.009-3.656 0z" fill="url(#SVGID_25_)"/><path d="m139.723 406.711-2.071-2.071c-1.009-1.009-1.009-2.646 0-3.656l4.617-4.617c1.009-1.009 2.646-1.009 3.656 0l2.071 2.071c1.009 1.009 1.009 2.646 0 3.656l-4.617 4.617c-1.01 1.009-2.646 1.009-3.656 0z" fill="url(#SVGID_26_)"/></g></g></g></svg>