<svg id="Capa_1" enable-background="new 0 0 510 510" height="512" viewBox="0 0 510 510" width="512" xmlns="http://www.w3.org/2000/svg" xmlns:xlink="http://www.w3.org/1999/xlink"><linearGradient id="lg1"><stop offset="0" stop-color="#ffd945"/><stop offset=".3043" stop-color="#ffcd3e"/><stop offset=".8558" stop-color="#ffad2b"/><stop offset="1" stop-color="#ffa325"/></linearGradient><linearGradient id="SVGID_1_" gradientTransform="matrix(.707 -.707 .707 .707 -162.654 278.622)" gradientUnits="userSpaceOnUse" x1="-6.481" x2="-6.481" xlink:href="#lg1" y1="253.681" y2="304.426"/><linearGradient id="SVGID_2_" gradientTransform="matrix(-.707 .707 .707 .707 1324.881 -1208.912)" gradientUnits="userSpaceOnUse" x1="1473.152" x2="1473.152" xlink:href="#lg1" y1="253.681" y2="304.426"/><linearGradient id="SVGID_3_" gradientTransform="matrix(.707 -.707 .707 .707 -162.654 278.622)" gradientUnits="userSpaceOnUse" x1="123.513" x2="229.417" xlink:href="#lg1" y1="246.908" y2="379.138"/><linearGradient id="SVGID_4_" gradientTransform="matrix(.707 -.707 .707 .707 -162.654 278.622)" gradientUnits="userSpaceOnUse" x1="270.512" x2="46.227" xlink:href="#lg1" y1="402.163" y2="177.879"/><linearGradient id="lg2"><stop offset="0" stop-color="#8a7889"/><stop offset="1" stop-color="#6e566e"/></linearGradient><linearGradient id="SVGID_5_" gradientTransform="matrix(.707 -.707 .707 .707 -162.654 278.622)" gradientUnits="userSpaceOnUse" x1="127.048" x2="219.342" xlink:href="#lg2" y1="251.304" y2="366.541"/><linearGradient id="lg3"><stop offset="0" stop-color="#fff" stop-opacity="0"/><stop offset="1" stop-color="#fff"/></linearGradient><linearGradient id="SVGID_6_" gradientTransform="matrix(.707 -.707 .707 .707 -162.654 278.622)" gradientUnits="userSpaceOnUse" x1="144.865" x2="-143.748" xlink:href="#lg3" y1="275.982" y2="-24.364"/><linearGradient id="SVGID_7_" gradientTransform="matrix(.707 -.707 .707 .707 -162.654 278.622)" gradientUnits="userSpaceOnUse" x1="450.564" x2="556.468" xlink:href="#lg1" y1="246.908" y2="379.138"/><linearGradient id="SVGID_8_" gradientTransform="matrix(.707 -.707 .707 .707 -162.654 278.622)" gradientUnits="userSpaceOnUse" x1="597.563" x2="373.279" xlink:href="#lg1" y1="402.163" y2="177.879"/><linearGradient id="lg4"><stop offset="0" stop-color="#e87264" stop-opacity="0"/><stop offset=".6519" stop-color="#f67150" stop-opacity=".652"/><stop offset="1" stop-color="#ff7044"/></linearGradient><linearGradient id="SVGID_9_" gradientTransform="matrix(.707 -.707 .707 .707 -162.654 278.622)" gradientUnits="userSpaceOnUse" x1="355.745" x2="328.21" xlink:href="#lg4" y1="280.953" y2="245.228"/><linearGradient id="SVGID_10_" gradientTransform="matrix(.707 -.707 .707 .707 -162.654 278.622)" gradientUnits="userSpaceOnUse" x1="454.1" x2="546.393" xlink:href="#lg2" y1="251.304" y2="366.541"/><linearGradient id="SVGID_11_" gradientTransform="matrix(.707 -.707 .707 .707 -162.654 278.622)" gradientUnits="userSpaceOnUse" x1="471.916" x2="183.303" xlink:href="#lg3" y1="275.982" y2="-24.364"/><linearGradient id="SVGID_12_" gradientTransform="matrix(.707 -.707 .707 .707 -162.654 278.622)" gradientUnits="userSpaceOnUse" x1="304.186" x2="290.008" xlink:href="#lg4" y1="273.028" y2="257.032"/><radialGradient id="SVGID_13_" cx="312.317" cy="268.662" gradientTransform="matrix(.707 -.707 .707 .707 -162.654 278.622)" gradientUnits="userSpaceOnUse" r="30.746"><stop offset="0" stop-color="#ffa325"/><stop offset=".2682" stop-color="#ffa727"/><stop offset=".5449" stop-color="#ffb42f"/><stop offset=".8245" stop-color="#ffc83b"/><stop offset="1" stop-color="#ffd945"/></radialGradient><linearGradient id="SVGID_14_" gradientTransform="matrix(.707 -.707 .707 .707 -162.654 278.622)" gradientUnits="userSpaceOnUse" x1="358.039" x2="325.845" y1="280.334" y2="257.741"><stop offset="0" stop-color="#6e566e" stop-opacity="0"/><stop offset=".4613" stop-color="#664c65" stop-opacity=".461"/><stop offset="1" stop-color="#593b56"/></linearGradient><g><g><path d="m53.884 482.082-15.412 15.412c-3.773 3.773-9.889 3.773-13.662 0l-21.981-21.98c-3.773-3.773-3.773-9.889 0-13.662l15.412-15.412z" fill="url(#SVGID_1_)"/><path d="m482.082 53.884 15.412-15.412c3.773-3.773 3.773-9.889 0-13.662l-21.98-21.98c-3.773-3.773-9.889-3.773-13.662 0l-15.412 15.412z" fill="url(#SVGID_2_)"/></g><g><g><g><path d="m251.8 483.06c-3.888 3.888-8.703 6.862-13.925 8.601-15.779 5.253-47.601 14.504-83.425 17.424-46.603 3.799-84.512-4.236-112.675-23.882-21.878-15.262-36.111-38.941-39.052-64.968-2.723-24.104 4.587-47.09 20.584-64.726.941-1.037 1.918-2.063 2.904-3.05 15.755-15.755 36.701-24.557 58.978-24.783 4.024-.041 8.011.199 11.936.71-.511-3.925-.751-7.913-.71-11.937.226-22.276 9.028-43.222 24.784-58.978.986-.986 2.013-1.964 3.05-2.904 17.636-15.997 40.623-23.307 64.728-20.584 26.026 2.94 49.705 17.175 64.966 39.052 19.646 28.162 27.681 66.072 23.882 112.675-2.92 35.823-12.17 67.644-17.424 83.425-1.739 5.222-4.713 10.037-8.601 13.925z" fill="url(#SVGID_3_)"/><path d="m245.626 476.886c-2.934 2.934-6.568 5.178-10.509 6.49-15.408 5.13-46.469 14.161-81.376 17.006-44.527 3.63-80.517-3.887-106.972-22.34-19.82-13.826-32.712-35.254-35.371-58.787-2.437-21.574 4.089-42.13 18.375-57.88.845-.932 1.724-1.855 2.611-2.742 14.13-14.13 32.914-22.023 52.893-22.226 3.588-.036 7.195.178 10.72.637l11.249 1.465-1.464-11.249c-.459-3.53-.673-7.138-.637-10.722.203-19.977 8.097-38.761 22.228-52.892.887-.887 1.81-1.766 2.742-2.611 15.751-14.287 36.307-20.813 57.882-18.375 23.533 2.659 44.96 15.551 58.785 35.372 18.454 26.454 25.971 62.444 22.341 106.971-2.845 34.91-11.876 65.969-17.006 81.376-1.312 3.939-3.556 7.573-6.491 10.507z" fill="url(#SVGID_4_)"/><g><path d="m135.98 267.501c-28.271 25.644-29.427 69.146-3.467 96.25.057.059.037.079-.022.022-27.104-25.96-70.606-24.804-96.25 3.467-28.164 31.05-18.856 79.658 15.525 103.641 57.824 40.336 152.022 13.725 180.594 4.212 5.423-1.806 9.668-6.051 11.473-11.473 9.513-28.572 36.125-122.77-4.212-180.594-23.983-34.382-72.591-43.689-103.641-15.525z" fill="url(#SVGID_5_)"/><path d="m231.157 462.417c-.698.698-1.563 1.232-2.503 1.545-26.408 8.792-116.727 34.582-170.176-2.703-14.998-10.463-24.747-26.61-26.745-44.301-1.767-15.646 2.92-30.504 13.198-41.835.624-.688 1.271-1.368 1.924-2.021 10.32-10.32 24.04-16.085 38.631-16.233 14.571-.148 28.382 5.313 38.89 15.377l.034.033c4.596 4.402 11.863 4.343 16.387-.133l.045-.044c4.524-4.524 4.596-11.835.162-16.447l-.043-.044c-10.04-10.483-15.501-24.294-15.354-38.863.149-14.591 5.914-28.31 16.235-38.631.654-.654 1.333-1.301 2.021-1.924 11.332-10.279 26.189-14.966 41.835-13.199 17.692 1.998 33.838 11.747 44.301 26.745 37.284 53.449 11.495 143.767 2.703 170.175-.313.939-.847 1.805-1.545 2.503z" fill="url(#SVGID_6_)"/></g></g><g><path d="m483.06 251.8c-3.888 3.888-8.703 6.862-13.925 8.601-15.779 5.253-47.601 14.504-83.425 17.424-46.603 3.799-84.512-4.236-112.675-23.882-21.878-15.262-36.111-38.941-39.052-64.968-2.723-24.104 4.587-47.09 20.584-64.726.941-1.037 1.918-2.063 2.904-3.05 15.755-15.755 36.701-24.557 58.978-24.783 4.024-.041 8.011.199 11.936.71-.511-3.925-.751-7.913-.71-11.937.226-22.276 9.028-43.222 24.784-58.978.986-.986 2.013-1.964 3.05-2.904 17.636-15.997 40.623-23.307 64.728-20.584 26.026 2.94 49.705 17.175 64.966 39.052 19.646 28.162 27.681 66.072 23.882 112.675-2.92 35.823-12.17 67.644-17.424 83.425-1.739 5.222-4.713 10.037-8.601 13.925z" fill="url(#SVGID_7_)"/><path d="m476.887 245.626c-2.934 2.934-6.568 5.178-10.509 6.49-15.408 5.13-46.47 14.161-81.376 17.006-44.527 3.63-80.517-3.887-106.972-22.34-19.82-13.826-32.712-35.254-35.371-58.787-2.437-21.574 4.089-42.13 18.375-57.88.845-.932 1.724-1.855 2.611-2.742 14.13-14.13 32.914-22.023 52.893-22.226 3.588-.036 7.195.178 10.72.637l11.249 1.465-1.465-11.249c-.459-3.53-.673-7.138-.637-10.722.203-19.977 8.096-38.761 22.228-52.892.887-.887 1.81-1.766 2.742-2.611 15.751-14.287 36.307-20.813 57.882-18.375 23.533 2.659 44.96 15.551 58.785 35.372 18.454 26.454 25.971 62.444 22.341 106.971-2.845 34.91-11.876 65.969-17.006 81.376-1.312 3.939-3.556 7.573-6.49 10.507z" fill="url(#SVGID_8_)"/><path d="m311.004 230.313c-1.294 1.294-2.995 2.037-4.777 2.141-.304.032-.631.024-.95.008h-1.566-.415-.975-1.07-1.15-43.293c-.895.064-1.797-.008-2.676-.279-1.246-.383-2.508-.623-3.802-.719-3.195-4.473-5.967-9.21-8.299-14.162.328-.072.647-.136.966-.2.008-.008.016 0 .032 0 .32-.064.647-.12.982-.168.304-.048.623-.096.935-.136.487-.056.967-.104 1.454-.144 1.198-.096 2.396-.128 3.602-.088l48.557-.008c3.187.008 6.382.471 9.449 1.414 5.328 1.621 6.934 8.403 2.996 12.341z" fill="url(#SVGID_9_)"/><g><path d="m367.24 36.241c-28.271 25.644-29.427 69.146-3.467 96.25.057.059.037.079-.022.022-27.104-25.96-70.606-24.804-96.25 3.467-28.164 31.05-18.856 79.658 15.525 103.641 57.824 40.336 152.022 13.725 180.594 4.212 5.423-1.806 9.668-6.051 11.473-11.473 9.513-28.572 36.125-122.77-4.212-180.594-23.983-34.382-72.591-43.689-103.641-15.525z" fill="url(#SVGID_10_)"/><path d="m462.417 231.157c-.698.698-1.563 1.232-2.503 1.545-26.408 8.792-116.727 34.582-170.176-2.703-14.998-10.463-24.747-26.61-26.745-44.301-1.767-15.646 2.92-30.504 13.198-41.835.624-.688 1.271-1.368 1.924-2.021 10.32-10.32 24.04-16.085 38.631-16.233 14.571-.148 28.382 5.313 38.89 15.377l.034.033c4.596 4.402 11.863 4.343 16.387-.133l.045-.044c4.524-4.524 4.596-11.835.162-16.447l-.043-.044c-10.04-10.483-15.501-24.294-15.354-38.863.149-14.591 5.914-28.31 16.235-38.631.654-.654 1.333-1.301 2.021-1.924 11.332-10.279 26.189-14.966 41.835-13.199 17.692 1.998 33.838 11.747 44.301 26.745 37.284 53.449 11.496 143.767 2.703 170.175-.313.939-.847 1.805-1.545 2.503z" fill="url(#SVGID_11_)"/></g></g></g><path d="m224.514 263.653h21.948c-5.851-6.452-12.526-12.003-19.801-16.524l-2.147 2.147c-3.971 3.97-3.971 10.407 0 14.377z" fill="url(#SVGID_12_)"/><path d="m226.046 226.046c-8.783 8.783-11.475 21.345-8.077 32.442 1.63 5.323 8.404 6.932 12.34 2.995 1.924-1.924 2.665-4.752 1.869-7.354-1.841-6.016-.381-12.82 4.375-17.576s11.56-6.217 17.576-4.375c2.602.796 5.43.055 7.354-1.869 3.936-3.936 2.328-10.71-2.995-12.34-11.097-3.398-23.659-.705-32.442 8.077z" fill="url(#SVGID_13_)"/><path d="m298.559 216.558-37.083.006c3.468 5.758 7.736 11.128 12.771 15.897h31.029c.319.016.647.024.95-.008 1.781-.104 3.483-.847 4.777-2.141 3.938-3.938 2.332-10.719-2.995-12.341-3.067-.942-6.262-1.405-9.449-1.413z" fill="url(#SVGID_14_)"/></g></g></svg>