<?xml version="1.0" encoding="UTF-8"?>
<!-- Generator: Adobe Illustrator 25.2.1, SVG Export Plug-In . SVG Version: 6.00 Build 0)  -->
<svg xmlns="http://www.w3.org/2000/svg" xmlns:xlink="http://www.w3.org/1999/xlink" version="1.1" id="Capa_1" x="0px" y="0px" viewBox="0 0 512 512" style="enable-background:new 0 0 512 512;" xml:space="preserve" width="512" height="512">
<g>
	<g>
		<g>
			<g>
				<g>
					<path style="fill:#FFF3B0;" d="M432.156,298.76c-2.737-14.159-9.471-27.686-13.384-40.51       c-1.99-6.512-4.044-12.462-6.766-18.624c-2.594-5.87-4.884-11.934-7.584-17.793c-5.379-11.679-7.14-24.717-16.386-32.126       c-9.242-7.407-24.9-15.239-35.251-22.004c-10.15-6.635-20.21-13.713-30.139-20.333c-4.963-3.308-10.308-6.478-16.023-9.197       c-5.913-2.814-16.949-8.971-24.029-9.982c-14.558-2.077-29.903-3.89-47.021-3.141c-7.569,0.331-14.923,1.964-22.227,3.227       c-21.398,3.696-50.69,18.293-67.047,26.741c-11.06,5.714-21.072,12.551-30.593,20.066       c-9.542,7.533-18.843,15.127-26.435,24.151c-7.682,9.129-14.796,21.251-20.556,32.727c-5.805,11.566-10.668,23-14.344,35.346       c-1.994,6.697-3.499,13.877-5.563,20.195c-2.016,6.17,4.454,10.914,1.667,16.91c-4.942,10.632-7.401,22.264-9.481,34.633       c5.454-0.216,10.909-0.406,16.347-0.435c7.004-0.036,13.97,0.037,20.88,0.201c0.985-10.451,9.604-21.24,11.563-31.035       c7.177-35.852,16.759-68.403,36.073-92.601c12.423-15.565,28.278-29.538,46.3-39.57c9.223-5.134,19.165-5.283,30.688-7.745       c9.074-1.941,11.447,0.083,21.779-0.598c33.241-2.191,59.165-1.416,81.022,9.823c19.164,9.853,35.074,27.267,47.648,43.878       c6.265,8.278,12.249,17.757,18.84,26.919c6.547,9.095,12.748,18.772,16.691,29.072c2.189,5.72,3.395,11.905,4.846,18.036       c3.398,14.382,13.151,27.568,15.476,43.48c6.726-0.606,13.438-1.226,20.133-1.862c0,0,5.556-10.087,4.708-14.993       C432.734,314.376,433.536,305.883,432.156,298.76z"/>
					<path style="fill:#FF4E4E;" d="M40.991,299.937c4.307-10.662,6.635-21.237,10.141-32.796c1.053-3.469,2.632-6.752,4.03-10.204       c5.622-13.898,11.192-27.154,18.328-39.191c7.148-12.061,7.429-16.181,15.595-27.059c4.271-5.69,8.635-10.735,13.323-15.512       c4.803-4.89,10.044-8.882,15.819-13.059c10.919-7.901,22.926-15.082,36.077-21.492c12.966-6.319,25.189-9.524,41.556-12.622       c16.229-3.073,34.024-4.964,51.883-5.973c8.567-0.483,18.588-0.413,26.665,0.856c7.505,1.178,10.442,2.786,17.023,5.099       c13.292,4.674,22.947,5.71,35.258,11.214c18.275,8.17,33.538,20.643,48.079,33.163c4.83,4.156,9.716,8.673,13.588,13.342       c8.141,9.812,13.896,21.908,20.097,34.166c3.128,6.177,6.068,12.129,8.417,18.609c2.444,6.753,4.458,13.629,6.236,20.828       c6.745,27.3,25.387,44.929,28.895,74.997c5.406-0.593,10.791-1.208,16.116-1.881c-0.952-38.993-4.366-74.53-12.651-105.792       c-2.059-7.766-4.424-15.107-7.538-22.073c-2.984-6.683-6.487-13.106-9.957-19.651c-7.138-13.452-12.714-26.882-21.537-37.686       c-8.782-10.755-18.981-21.12-31.226-27.995c-12.248-6.879-25.795-12.749-40.917-18.305       c-14.312-5.259-31.196-7.936-50.069-9.153c-9.385-0.604-18.534-1.097-27.726-1.884c-13.62-1.166-30.283-1.185-44.416-0.538       c-4.948,0.226-9.59,0.571-14.268,1.077c-27.975,3.025-48.419,11.215-69.989,21.266c-27.713,12.912-53.265,27.354-72.681,48.992       c-14.581,16.249-25.244,35.522-34.456,56.799c-3.035,7.014-6.265,14.074-9.152,21.265       c-5.725,14.262-11.883,29.058-15.612,45.224C2.047,300.764,0.862,319.614,0,339.153c6.242,0.545,12.56,0.674,18.918,0.606       C32.17,329.587,35.662,313.127,40.991,299.937z"/>
					<path style="fill:#7AB0C9;" d="M362.513,263.713c-4.693-8.418-4.521-18.238-10.682-25.772       c-11.861-14.505-30.168-33.815-45.57-44.672c-7.792-5.492-16.262-10.247-26.381-13.19c-9.829-2.858-21.116-5.266-33.381-5.922       c-13.062-0.699-25.977,0.53-37.416,2.154c-11.806,1.676-22.81,4.027-32.841,6.73c-19.215,5.176-42.977,24.188-52.856,39.001       c-5.229,7.84-10.105,16.149-14.804,24.765c-4.831,8.855-7.917,18.406-10.498,29.073c-2.668,11.02-3.608,22.335-5.653,33.918       c-1.518,8.593,4.972,20.78,3.287,29.63c6.383,0.292,12.709,0.65,18.956,1.071c-0.226-21.471,3.495-40.617,7.807-57.876       c4.317-17.282,11.31-32.625,19.921-46.032c4.359-6.788,8.976-12.894,15.073-17.767c12.191-9.742,27.771-16.013,47.109-18.843       c9.642-1.412,20.363-2.094,30.956-0.539c18.334,2.691,34.284,9.27,48.455,17.228c14.372,8.072,26.762,17.341,37.685,28.265       c2.865,2.865,5.371,5.663,7.539,8.883c2.194,3.263,3.842,6.848,5.921,10.499c12.376,21.72,14.61,49.87,19.651,79.409       c10.556-1.18,21.252-2.223,31.994-3.219c-1.039-6.324-1.945-12.587-3.275-18.65       C378.821,300.478,371.973,280.682,362.513,263.713z"/>
					<path style="fill:#6F6AAD;" d="M348.52,263.613c-4.152-7.446-8.837-14.054-14.289-20.717       c-10.493-12.832-21.856-24.924-35.48-34.528c-6.893-4.858-14.383-9.065-23.338-11.668c-8.694-2.528-18.678-4.658-29.526-5.239       c-11.557-0.618-22.979,0.469-33.099,1.906c-10.444,1.483-20.177,3.562-29.051,5.953c-16.997,4.578-30.791,17.377-39.529,30.48       c-4.625,6.936-8.941,14.286-13.096,21.907c-4.274,7.833-7.003,16.282-9.287,25.718c-2.359,9.748-3.192,19.758-5,30.003       c-1.344,7.6-3.11,25.082-4.602,32.909c5.646,0.259,11.168,0.746,16.694,1.122c-0.2-18.994,3.456-45.852,7.27-61.119       c3.819-15.287,10.004-28.86,17.62-40.72c3.856-6.004,7.943-11.404,13.336-15.715c10.783-8.618,24.567-14.166,41.672-16.668       c8.529-1.249,18.013-1.852,27.384-0.477c16.219,2.381,30.327,8.2,42.862,15.24c12.715,7.14,23.675,15.34,33.337,25.003       c2.535,2.535,4.751,5.009,6.667,7.859c1.942,2.886,3.4,6.058,5.239,9.287c10.948,19.214,14.57,55.169,19.029,81.301       c9.338-1.046,18.427-2.573,27.928-3.454c-0.919-5.595-2.992-21.583-4.169-26.947       C362.945,296.135,356.889,278.623,348.52,263.613z"/>
					<path style="fill:#FFAC42;" d="M433.057,250.618c-1.778-7.198-3.792-14.074-6.236-20.828       c-2.349-6.48-5.289-12.432-8.417-18.609c-6.201-12.258-11.956-24.354-20.097-34.166c-3.872-4.668-8.758-9.185-13.588-13.342       c-14.541-12.52-31.475-22.976-49.75-31.147c-12.311-5.504-25.862-9.807-39.155-14.481c-6.582-2.313-13.434-4.675-20.938-5.853       c-8.077-1.269-18.097-1.339-26.665-0.856c-17.859,1.009-35.654,2.9-51.883,5.973c-16.366,3.097-31.705,7.006-44.672,13.324       c-13.151,6.409-25.159,13.59-36.077,21.492c-5.775,4.177-11.016,8.169-15.819,13.059c-4.688,4.776-9.052,9.822-13.323,15.512       c-8.167,10.878-15.895,22.225-23.043,34.287c-7.135,12.037-12.706,25.292-18.328,39.191c-1.398,3.452-2.976,6.735-4.03,10.204       c-3.506,11.559-5.834,22.134-10.141,32.796c-5.329,13.19-11.775,26.884-11.977,42.585c7.321-0.079,14.695-0.418,22.073-0.712       c2.08-12.369,4.539-24.001,9.481-34.633c2.787-5.996,5.239-11.759,7.255-17.929c2.064-6.318,3.598-12.866,5.593-19.563       c3.676-12.347,9.26-23.746,15.065-35.313c5.761-11.476,10.712-22.916,18.393-32.046c7.593-9.024,16.894-16.619,26.435-24.151       c9.521-7.515,19.533-14.352,30.593-20.066c16.357-8.449,37.528-13.606,58.926-17.303c7.304-1.262,14.658-2.895,22.227-3.227       c17.118-0.749,32.463,1.064,47.021,3.141c7.08,1.011,12.833,3.611,18.746,6.425c5.715,2.719,11.06,5.889,16.023,9.197       c9.93,6.62,19.989,13.698,30.139,20.333c10.351,6.765,20.897,12.926,30.139,20.334c9.246,7.409,16.05,17.53,21.429,29.208       c2.7,5.859,4.99,11.923,7.584,17.793c2.722,6.162,4.776,12.112,6.766,18.624c3.913,12.823,7.799,26.142,10.536,40.301       c1.379,7.123,2.519,14.431,3.772,21.674c0.848,4.906,1.399,9.856,2.162,14.765c7.62-0.726,15.205-1.485,22.725-2.308       C448.494,304.235,439.802,277.918,433.057,250.618z"/>
					<path style="fill:#00AF93;" d="M395.085,275.287c-3.943-10.301-10.144-19.977-16.691-29.072       c-6.592-9.161-12.576-18.641-18.84-26.919c-12.575-16.611-28.484-34.025-47.648-43.878       c-21.857-11.239-53.707-17.265-86.948-15.074c-10.332,0.681-19.728,1.559-28.802,3.5c-11.523,2.463-21.464,7.248-30.688,12.382       c-18.022,10.033-33.877,24.006-46.3,39.57c-19.313,24.198-28.896,56.749-36.073,92.601c-1.959,9.795-3.891,19.965-4.876,30.416       c5.877,0.139,11.712,0.347,17.5,0.613c1.685-8.849,3.357-17.59,4.875-26.183c2.045-11.583,2.984-22.898,5.653-33.918       c2.581-10.666,5.667-20.217,10.498-29.073c4.698-8.615,9.575-16.924,14.804-24.765c9.878-14.813,25.471-29.281,44.686-34.456       c10.031-2.703,21.035-5.054,32.841-6.73c11.439-1.624,24.354-2.853,37.416-2.154c12.264,0.656,23.552,3.064,33.381,5.922       c10.118,2.943,18.589,7.698,26.381,13.19c15.402,10.857,28.247,24.527,40.108,39.032c6.161,7.534,11.459,15.003,16.152,23.42       c9.46,16.969,16.308,36.765,20.997,58.145c1.329,6.063,2.236,12.327,3.275,18.65c7.441-0.69,14.901-1.362,22.36-2.034       c-2.325-15.913-5.815-30.768-9.213-45.15C398.48,287.193,397.274,281.008,395.085,275.287z"/>
				</g>
				<g>
					<g>
						<path style="fill-rule:evenodd;clip-rule:evenodd;fill:#F8FAFF;" d="M181.679,119.646c-1.514-5.392,6.299-5.979,11.053-6.711        c5.28-0.813,16.033-2.887,13.933,4.261c-0.997,3.384-6.568,3.478-10.865,4.19        C191.183,122.151,182.985,124.299,181.679,119.646z"/>
						<path style="fill-rule:evenodd;clip-rule:evenodd;fill:#F8FAFF;" d="M210.701,98.928c2.391,7.3-16.498,7.37-15.915,2.101        C195.224,97.056,207.673,95.928,210.701,98.928z"/>
						<path style="fill-rule:evenodd;clip-rule:evenodd;fill:#F8FAFF;" d="M238.982,111.766c-0.978,2.221-2.513,3.39-4.217,3.248        C226.12,114.296,235.946,104.35,238.982,111.766z"/>
					</g>
					<g>
						<path style="fill-rule:evenodd;clip-rule:evenodd;fill:#F8FAFF;" d="M25.898,267.3c-4.61-0.323-3.965-4.875-1.993-9.921        c1.67-4.275,6.822-14.142,10.453-9.155c0.774,1.063-0.206,6.51-0.914,9.299C32.049,262.998,29.259,267.536,25.898,267.3z"/>
						<path style="fill-rule:evenodd;clip-rule:evenodd;fill:#F8FAFF;" d="M44.755,252.863c-6.617-0.435-0.469-11.752,3.708-10.124        c2.458,0.958,1.15,6.903-0.834,9.042C46.82,252.655,45.822,252.932,44.755,252.863z"/>
						<path style="fill-rule:evenodd;clip-rule:evenodd;fill:#F8FAFF;" d="M15.58,308.455c-7.174-0.143-1.408-16.093,4.781-11.765        c2.056,1.436,0.455,3.883-0.71,6.826C18.431,306.598,18.108,308.504,15.58,308.455z"/>
					</g>
					<g>
						<path style="fill-rule:evenodd;clip-rule:evenodd;fill:#F8FAFF;" d="M131.784,230.54c-4.433-1.308-2.823-5.615,0.188-10.118        c2.55-3.816,9.703-12.343,12.177-6.692c0.527,1.205-1.598,6.314-2.893,8.884C138.717,227.661,135.017,231.493,131.784,230.54z        "/>
						<path style="fill-rule:evenodd;clip-rule:evenodd;fill:#F8FAFF;" d="M153.307,220.496c-6.369-1.849,2.068-11.577,5.796-9.089        c2.195,1.465-0.36,6.988-2.757,8.651C155.365,220.736,154.332,220.793,153.307,220.496z"/>
						<path style="fill-rule:evenodd;clip-rule:evenodd;fill:#F8FAFF;" d="M146.478,206.381c-6.976-1.681,2.085-16.018,7.199-10.46        c1.697,1.845-0.393,3.89-2.161,6.514C149.662,205.18,148.935,206.974,146.478,206.381z"/>
					</g>
					<g>
						<path style="fill-rule:evenodd;clip-rule:evenodd;fill:#F8FAFF;" d="M351.536,208.487c3.913-2.459,1.198-6.169-2.919-9.688        c-3.489-2.983-12.685-9.256-13.536-3.146c-0.182,1.303,3.25,5.645,5.19,7.77C344.082,207.592,348.684,210.28,351.536,208.487z        "/>
						<path style="fill-rule:evenodd;clip-rule:evenodd;fill:#F8FAFF;" d="M328.099,204.646c5.628-3.504-5.127-10.584-8.044-7.179        c-1.715,2.004,2.241,6.628,4.999,7.579C326.18,205.436,327.19,205.209,328.099,204.646z"/>
						<path style="fill-rule:evenodd;clip-rule:evenodd;fill:#F8FAFF;" d="M330.851,189.209c6.259-3.508-6.345-14.855-9.764-8.12        c-1.133,2.236,1.431,3.639,3.845,5.686C327.46,188.916,328.644,190.445,330.851,189.209z"/>
					</g>
				</g>
			</g>
			<g>
				<g>
					<path style="fill-rule:evenodd;clip-rule:evenodd;fill:#C1DFEA;" d="M415.759,399.33c0.555,2.808,4.033,5.414,3.745,8.95       c-0.138,1.709-2.694,4.698-4.578,6.242c-1.086,0.892-2.655,1.73-3.953,2.498c-2.029,1.2-3.989,2.754-7.285,2.082       c-1.914-0.391-3.587-2.465-4.58-3.538c-1.289-1.397-1.981-2.991-3.537-4.37c-5.767,1.608-12.648,3.536-19.979,2.287       c-2.476,2.375-2.058,7.686-5.619,8.534c-3.182,0.759-8.253-1.902-10.613-2.912c-3.522-1.511-7.105-2.839-8.118-5.411       c0.012-1.647-0.085-2.94,0.208-4.37c0.247-1.2,1.16-2.396,1.04-3.33c-0.191-1.513-2.107-2.599-3.328-3.953       c-2.993-3.324-7.398-8.952-8.95-12.696c-0.776-1.873-0.964-6.26-3.122-7.077c-2.507-0.945-6.163,1.8-8.949,0.625       c-2.897-1.221-4.658-8.426-4.994-12.28c-0.347-3.971,1.007-7.397,3.537-8.533c3.208-1.438,8.156,0.067,9.99-2.914       c1.039-1.686,1.069-4.881,1.666-6.866c1.345-4.478,2.518-8.121,4.786-12.07c0.861-1.503,3.021-3.861,3.121-5.204       c0.238-3.239-3.963-5.37-4.164-8.74c-0.238-4.046,3.409-6.917,5.203-8.326c1.873-1.467,6.868-4.985,10.614-3.953       c4.277,1.176,5.564,7.929,9.158,9.572c2.101,0.963,6.194,0.885,9.574,0.833c3.145-0.049,7.517-0.259,8.948-1.456       c1.652-1.384,1.896-5.235,2.915-7.494c1.516-3.361,3.826-6.877,9.571-6.45c2.489,0.184,4.508,0.899,7.076,1.871       c1.548,0.587,4.951,1.656,5.83,3.123c1.872,3.127-0.453,9.303-0.208,12.694c4.001,5.53,8.565,10.456,12.07,17.274       c1.126,2.188,1.973,5.635,3.537,6.243c1.523,0.591,3.64-0.313,4.995-0.417c7.708-0.592,7.871,4.974,7.907,12.071       c0.019,3.617-0.079,9.627-1.457,12.072c-0.86,1.527-3.818,3.267-5.201,3.745c-1.552,0.539-3.426,0.164-4.788,0.832       c-1.191,0.585-2.152,3.389-3.12,5.203C421.862,389.055,418.469,394.351,415.759,399.33z M370.804,350.632       c-4.802,2.925-9.129,9.332-8.739,17.065c0.052,1.046,0.485,2.423,0.831,3.953c0.29,1.277,0.117,2.718,0.417,3.746       c0.516,1.766,2.435,4.114,3.746,5.41c3.504,3.467,9.46,6.111,14.776,6.037c10.646-0.15,19.673-8.31,19.147-19.771       c-0.166-3.61-1.764-8.084-3.747-10.822c-3.131-4.321-9.95-9.011-18.314-8.117C375.654,348.483,373.125,349.218,370.804,350.632       z"/>
					<g>
						<path style="fill-rule:evenodd;clip-rule:evenodd;fill:#F8FAFF;" d="M416.121,382.315c-3.575,1.34-4.654-2.301-4.904-6.768        c-0.213-3.786,0.27-12.969,4.712-10.467c0.947,0.532,2.081,4.96,2.506,7.299C419.266,376.97,418.728,381.339,416.121,382.315z        "/>
						<path style="fill-rule:evenodd;clip-rule:evenodd;fill:#F8FAFF;" d="M425.334,364.994c-5.122,1.945-4.387-8.668-0.689-8.88        c2.176-0.124,3.233,4.791,2.476,7.08C426.813,364.127,426.159,364.679,425.334,364.994z"/>
						<path style="fill-rule:evenodd;clip-rule:evenodd;fill:#F8FAFF;" d="M413.813,359.07c-5.438,2.356-6.583-11.606-0.446-10.48        c2.037,0.374,1.675,2.763,1.811,5.375C415.318,356.697,415.73,358.241,413.813,359.07z"/>
					</g>
				</g>
				<g>
					<g>
						<path style="fill-rule:evenodd;clip-rule:evenodd;fill:#42758A;" d="M33.565,292.645        c12.558-10.485,28.82-16.126,44.912-22.587c15.948-6.401,32.623-12.369,49.068-18.433        c15.967-5.886,32.704-11.92,50.105-17.393c8.457-2.662,17.006-5.385,25.442-8.308c8.804-3.05,17.752-6.385,27.26-7.529        c9.067-1.09,15.882,2.551,19.992,7.789c3.457,4.41,6.002,10.461,8.308,15.837c12.05,28.099,21.677,58.278,33.487,87.229        c2.159,5.288,4.75,11.156,7.011,17.135c2.952,7.803,6.463,18.161,3.375,26.74c-1.214,3.37-3.815,6.868-6.748,9.087        c-6.04,4.565-15.319,7.971-23.366,11.422c-24.601,10.55-49.152,19.453-75.028,28.819        c-16.289,5.892-32.455,13.426-49.327,19.988c-7.832,3.047-16.271,6.695-25.183,9.607c-10.44,3.412-25.737,7.555-35.307,1.297        c-4.413-2.886-8.911-9.707-11.683-14.797c-3.26-5.987-6.162-12.215-8.567-17.915c-5.56-13.174-10.589-26.099-15.058-37.642        c-7.23-18.681-14.465-37.802-20.509-58.674c-1.829-6.314-4.539-14.887-3.375-21.808        C29.034,298.585,30.524,296.883,33.565,292.645z"/>
						<path style="fill-rule:evenodd;clip-rule:evenodd;fill:#7AB0C9;" d="M188.556,251.624c2.299-0.188,9.732-0.595,13.24,0.78        c10.562,4.143,16.201,19.388,20.249,31.153c5.013,14.569,10.139,29.18,16.357,42.839c1.552,3.408,3.035,6.882,4.413,10.383        c1.429,3.628,2.45,7.461,3.893,10.903c0.812,1.935,2.07,3.782,3.118,5.971c2.424,5.061,6.302,14.656,3.634,22.068        c-1.826,5.073-9.498,8.707-15.319,11.163c-6.579,2.776-13.026,4.891-18.95,7.269c-25.975,10.428-50.832,19.62-76.846,28.556        c-9.044,3.108-18.968,6.904-29.856,9.606c-4.024,0.999-7.751,2.291-11.683,1.037c-4.198-1.335-7.476-6.926-9.865-11.679        c-5.035-10.015-9.726-18.524-13.499-29.338c-1.873-5.366-3.405-10.883-5.193-16.095c-3.822-11.145-8.049-20.596-11.683-31.154        c-1.665-4.841-3.353-10.493-4.932-16.358c-1.332-4.941-3.775-11.877-3.116-18.171c0.248-2.365,1.343-5.692,2.077-7.27        c1.921-4.12,7.568-7.724,12.982-10.385c15.703-7.718,33.879-12.849,50.625-18.691c17.074-5.959,33.774-11.922,51.403-17.914        C175.577,254.267,181.301,252.22,188.556,251.624z"/>
						<g>
							<path style="fill-rule:evenodd;clip-rule:evenodd;fill:#42758A;" d="M234.507,332.626c-6.023,5.352-9.126-8.2-8.048-14.54         c2.783-2.665,4.829,0.38,6.23,4.153C233.938,325.603,235.143,328.904,234.507,332.626z"/>
							<path style="fill-rule:evenodd;clip-rule:evenodd;fill:#F8FAFF;" d="M227.756,341.971c-2.64,1.305-3.071-0.615-3.894-3.375         c-0.959-3.223-2.075-5.961,2.077-5.193C227.144,335.667,229.357,339.258,227.756,341.971z"/>
							<path style="fill-rule:evenodd;clip-rule:evenodd;fill:#F8FAFF;" d="M235.546,341.451c3.347-0.741,5.733,5.526,7.009,8.567         c0.764,1.823,1.477,3.803,2.076,5.711c1.04,3.306,2.121,8.703-2.076,8.827c-4.22,0.127-7.014-10.262-8.308-15.317         C233.327,345.654,232.274,342.174,235.546,341.451z"/>
							<path style="fill-rule:evenodd;clip-rule:evenodd;fill:#F8FAFF;" d="M228.795,224.625c3.21-0.559,4.594,0.161,4.932,1.818         c0.99,4.849-8.686,6.231-9.085,1.816C224.387,225.453,226.493,225.026,228.795,224.625z"/>
							<path style="fill-rule:evenodd;clip-rule:evenodd;fill:#F8FAFF;" d="M242.294,227.741c2.562-0.682,3.824,2.203,4.673,5.711         c0.794,3.278,2.485,10.573-1.816,9.865c-1.453-0.239-2.444-2.609-3.376-5.711         C240.743,234.167,238.827,228.665,242.294,227.741z"/>
							<path style="fill-rule:evenodd;clip-rule:evenodd;fill:#F8FAFF;" d="M236.063,239.682c-2.084,0.969-3.393-3.321-3.113-4.413         C234.071,230.876,240.025,237.21,236.063,239.682z"/>
							<path style="fill-rule:evenodd;clip-rule:evenodd;fill:#7AB0C9;" d="M261.731,260.93c-0.19,3.302-4.372,5.172-7.268,6.75         c-6.129,3.338-13.008,5.91-20.77,8.048c-2.467,0.68-10.588,2.996-11.423,0.26c-0.773-2.534,4.737-5.241,6.49-6.231         c7.708-4.354,17.458-9.06,27.261-10.125C257.885,259.429,261.202,258.95,261.731,260.93z"/>
							<path style="fill-rule:evenodd;clip-rule:evenodd;fill:#7AB0C9;" d="M265.747,276.103c0.376,1.925-1.535,2.93-2.854,3.894         c-6.023,4.399-14.159,8.075-22.327,10.644c-3.209,1.01-7.286,2.648-10.385,0.78c-0.443-3.41,3.184-4.759,5.451-6.232         c4.681-3.037,9.963-5.806,15.837-7.528c3.277-0.959,7.08-2.067,10.385-2.336         C262.981,275.232,264.985,274.969,265.747,276.103z"/>
							<path style="fill-rule:evenodd;clip-rule:evenodd;fill:#7AB0C9;" d="M285.474,322.91c-0.19,3.302-4.372,5.172-7.268,6.75         c-6.128,3.337-13.006,5.91-20.77,8.048c-2.467,0.68-10.588,2.993-11.422,0.259c-0.774-2.532,4.738-5.241,6.489-6.229         c7.711-4.356,17.459-9.061,27.26-10.126C281.629,321.41,284.945,320.93,285.474,322.91z"/>
							<path style="fill-rule:evenodd;clip-rule:evenodd;fill:#7AB0C9;" d="M289.491,338.083c0.377,1.924-1.536,2.93-2.855,3.894         c-6.021,4.397-14.157,8.074-22.328,10.644c-3.209,1.01-7.284,2.645-10.383,0.779c-0.443-3.409,3.185-4.758,5.45-6.231         c4.682-3.039,9.965-5.806,15.838-7.528c3.276-0.959,7.08-2.069,10.385-2.337         C286.724,337.211,288.728,336.949,289.491,338.083z"/>
							<path style="fill-rule:evenodd;clip-rule:evenodd;fill:#7AB0C9;" d="M255.988,291.119         c8.602-1.211,17.319,4.186,17.656,12.722c0.414,10.512-9.675,17.151-17.135,17.133c-9.647-0.022-17.44-10.76-13.499-20.249         C244.694,296.667,249.674,292.007,255.988,291.119z"/>
							<path style="fill-rule:evenodd;clip-rule:evenodd;fill:#F8FAFF;" d="M228.795,403.24c-2.267-3.389,1.71-4.384,4.932-6.23         c3.224-1.847,5.25-4.456,8.567-4.414c1.995,0.024,3.534,1.47,3.635,2.855c0.245,3.365-4.734,4.808-7.268,5.972         C235.505,402.87,231.944,404.984,228.795,403.24z"/>
						</g>
					</g>
					<g>
						<path style="fill:#C1DFEA;" d="M77.416,259.834c-2.192-5.912-5.041-10.734-12.916-9.687        c-8.564,1.138-10.131,9.544-7.381,18.221c1.165,3.669,2.535,7.409,3.646,10.526l12.094,2.94l8.688-10.498        C80.185,267.466,78.812,263.604,77.416,259.834z"/>
						<path style="fill:#F8FAFF;" d="M139.688,444.576c-0.17-2.723-0.488-5.61-0.692-8.302c-0.229-3.002-0.139-5.945-0.693-8.305        c-0.397-1.697-1.337-3.662-2.074-5.535c-5.041-12.785-9.835-26.369-14.3-39.208c-10.768-30.966-21.314-59.529-32.521-89.719        c-2.606-7.02-5.207-14.613-7.862-22.171l-20.782,7.558c0.091,0.26,0.187,0.523,0.275,0.774        c8.122,22.955,15.754,45.467,23.757,67.578c5.124,14.162,11.507,29.343,16.835,43.822c4.77,12.955,9.636,26.637,14.07,39.208        c0.681,1.931,1.252,3.885,2.076,5.535c1.083,2.17,3.023,4.284,4.614,6.46c3.157,4.321,6.207,8.674,9.455,12.684        c1.675,2.068,3.419,4.541,5.998,5.074C140.993,456.899,140.035,450.183,139.688,444.576z"/>
						<g>
							<path style="fill-rule:evenodd;clip-rule:evenodd;fill:#C1DFEA;" d="M98.095,352.001c-2.672,0.032-3.535-3.059-4.549-5.123         c-3.206-6.525-5.858-13.208-8.955-20.4c-2.836-6.591-5.669-13.49-7.247-21.919c-0.434-2.314-1.59-9.472,1.222-8.937         c2.815,0.536,3.851,3.616,4.766,5.366c3.38,6.477,6.051,13.306,8.725,20.389c2.855,7.566,5.175,13.994,6.516,22.567         C98.98,346.541,99.981,349.938,98.095,352.001z"/>
							<path style="fill-rule:evenodd;clip-rule:evenodd;fill:#C1DFEA;" d="M100.313,357.444c2.752-1.069,4.989,4.528,6.037,7.291         c1.092,2.889,2.815,8.889,0.13,9.48c-3.247,0.716-5.964-7.417-6.766-10.568C99.295,362.014,98.112,358.302,100.313,357.444z"/>
						</g>
						<path style="fill-rule:evenodd;clip-rule:evenodd;fill:#C1DFEA;" d="M140.609,467.641c-2.186-0.598-2.507-3.263-3.228-5.075        c-0.757-1.898-2.033-3.867-1.845-6.226c2.205-2.345,3.659,2.237,4.613,4.843C141.035,463.599,142.527,466.587,140.609,467.641        z"/>
					</g>
				</g>
				<g>
					<path style="fill-rule:evenodd;clip-rule:evenodd;fill:#FFF3B0;" d="M383.555,330.822c16.272-31.97,3.549-71.076-28.415-87.349       c-31.967-16.272-71.076-3.549-87.349,28.416c-10.744,21.107-3.919,65.437-8.661,86.699c-1.202,5.383-0.546,10.922,4.364,13.422       l42.5,21.639c4.914,2.499,9.812-0.207,13.42-4.372C333.625,372.883,372.996,351.565,383.555,330.822z"/>
					<path style="fill-rule:evenodd;clip-rule:evenodd;fill:#FF4E4E;" d="M337.61,302.649c-0.395,0.548-0.335,1.294-0.413,1.89       c-0.551,4.19-2.007,8.12-4.183,11.81c-1.034,1.749-2.468,3.995-4.703,5.677c-2.341,1.762-5.699,2.676-7.395,0.508       c-1.643-2.094-0.747-5.144-0.024-6.94c2.442-6.072,6.791-10.987,12.896-15.171c-0.9-6.204-5.894-7.458-11.333-5.466       c0.08,4.94-0.606,10.464-3.692,13.999c-2.018,2.308-6.25,3.956-7.989,1.044c-1.527-2.558-0.321-6.106,0.59-8.272       c1.573-3.748,3.834-6.295,7.233-8.668c-1.203-5.307-4.274-9.327-9.186-7.36c-2.06,0.828-3.183,2.587-3.908,3.968       c-3.519,6.679-2.892,16.745-3.194,25.657c-0.288,8.386-2.096,17.125-4.717,24.954c-1.323,3.951-2.923,7.746-4.423,11.581       c-1.477,3.777-2.856,7.544-4.477,11.443c-2.56,6.153-4.942,10.956-7.684,16.885c-0.298,0.641-1.882,5.357-4.102,3.877       c-0.705-0.469-1.077-1.317-0.24-3.228c0.453-1.03,1.098-2.197,1.457-2.905c4.666-9.201,8.965-19.953,12.727-29.799       c1.537-4.024,3.096-7.993,4.358-12.187c1.317-4.362,2.26-8.735,2.786-13.03c1.099-8.948,0.35-18.456,2.061-27.453       c0.83-4.374,2.215-9.011,5.503-11.663c1.899-1.532,5.433-2.372,7.438-2.106c4.049,0.536,7.47,4.068,8.785,9.717       c7.213-2.179,13.218-0.472,15.381,7.451c5.97-1.504,10.548,0.113,12.859,4.903c0.652,1.347,1.004,3.911,0.784,5.555       c-0.96,7.11-7.151,12.609-13.571,17.634c-6.186,4.836-12.908,9.701-18,15.471c-7.045,7.984-12.463,18.253-18.386,27.301       c-0.622,0.949-2.12,3.23-3.047,4.596c-0.495,0.736-2.179,4.536-3.989,2.89c-1.203-1.09,0.157-2.916,1.171-4.538       c5.912-9.434,11.421-19.603,18.164-28.328c3.999-5.168,9.103-10.358,14.282-14.416c5.732-4.492,11.984-8.429,16.184-13.539       c1.934-2.356,5.189-7.454,2.966-11.677C344.956,301.629,341.381,301.23,337.61,302.649z M326.829,311.991       c-1.627,2.38-3.19,5.235-3.123,8.253c3.752-0.942,5.456-4.058,6.737-6.584c1.348-2.66,2.684-5.556,3.023-8.537       c0.076-0.029,0.113-0.171-0.053-0.139C330.921,307.085,328.577,309.422,326.829,311.991z M313.858,308.077       c4.033-1.942,4.906-6.887,4.923-10.659C315.854,300.376,313.499,303.603,313.858,308.077z"/>
					<path style="fill-rule:evenodd;clip-rule:evenodd;fill:#FF4E4E;" d="M309.252,392.409c-2.077-1.831-4.267-3.319-6.074-4.528       c-8.609-5.762-17.224-9.723-26.367-13.289c-4.804-1.875-9.762-3.805-14.469-4.356c-2.165-0.255-5.564-0.234-7.268,1.032       c-2.082,3.789,2.807,7.094,4.441,10.031c-3.737,0.173-11.889-0.636-12.938,3.783c-1.154,4.851,5.449,7.523,7.282,9.888       c-2.994-0.154-8.487-0.521-9.735,2.897c0.304,3.305,2.863,5.296,5.042,6.944c2.18,1.646,4.49,3.221,6.696,4.522       c0.606,0.358,1.216,0.719,1.83,1.081c-1.934,5.836,0.613,12.364,6.258,15.237c5.733,2.92,12.636,1.04,16.167-4.142       c3.9,1.591,7.886,3.004,11.939,3.953c2.689,0.632,5.85,1.682,8.636-0.049c1.106-2.752-1.336-4.932-3-6.403       c-1.842-1.619-4.114-2.947-5.582-4.286c0.188-0.059,0.273,0.078,0.436,0.061c3.634,1.35,14.485,2.772,12.62-4.089       c-0.993-3.657-5.414-6.109-6.897-8.165c3.478,0.304,8.001,1.673,12.157,0.604C317.568,401.305,312.508,395.276,309.252,392.409       z"/>
					<g>
						<path style="fill-rule:evenodd;clip-rule:evenodd;fill:#FFAC42;" d="M380.837,292.523c5.999-2.079,4.257,10.093,2.918,13.561        c-1.198,3.098-3.098,5.126-4.967,4.247c-3.861-1.813,0.962-8.207,1.494-12.527        C380.518,295.886,379.677,294.698,380.837,292.523z"/>
						<path style="fill-rule:evenodd;clip-rule:evenodd;fill:#FFAC42;" d="M371.898,299.676c3.482,1.066,1.629,11.548-2.325,9.937        C367.117,308.608,366.892,298.142,371.898,299.676z"/>
						<path style="fill-rule:evenodd;clip-rule:evenodd;fill:#FFAC42;" d="M380.399,319.817c-0.319,2.692-3.793,6.85-6.329,5.092        C370.702,322.578,377.983,314.186,380.399,319.817z"/>
					</g>
					<g>
						<g>
							<path style="fill-rule:evenodd;clip-rule:evenodd;fill:#FFD837;" d="M332.04,252.052c-2.935-4.564,11.035-6.155,9.238-1.125         C340.336,253.554,334.503,253.005,332.04,252.052z"/>
							<path style="fill-rule:evenodd;clip-rule:evenodd;fill:#FFD837;" d="M323.59,247.794c1.103,0.309,3.206,1.545,2.416,3.716         c-1.03,2.839-6.996,3.931-9.277,4.814c-2.772,1.071-7.515,4.34-10.11,2.22c-3.701-3.025,4.113-6.748,6.856-7.913         c1.454-0.621,2.942-1.089,4.197-1.552C319.822,248.288,321.464,247.198,323.59,247.794z"/>
						</g>
						<g>
							<path style="fill-rule:evenodd;clip-rule:evenodd;fill:#FFD837;" d="M288.51,277.946c0.287,3.92-2.75,9.813-6.079,15.424         c-1.425,2.399-3.793,6.248-6.086,5.217c-2.755-1.238-0.752-6.039-0.034-7.747c2.285-5.43,6.135-11.517,9.139-14.159         C286.338,276.423,287.846,277.104,288.51,277.946z"/>
							<path style="fill-rule:evenodd;clip-rule:evenodd;fill:#FFF3B0;" d="M288.055,296.263c6.168,1.45,0.761,14.217-3.823,11.64         c-1.99-1.121-1.683-8.271,0.615-10.815C285.671,296.175,286.98,296.011,288.055,296.263z"/>
							<path style="fill-rule:evenodd;clip-rule:evenodd;fill:#FFD837;" d="M276.114,308.055c2.231,0.282,3.097,3.43,2.752,6.672         c-0.278,2.605-2.003,7.459-4.745,6.216c-1.213-0.548-2.239-2.979-2.026-5.677         C272.348,312.096,273.242,307.69,276.114,308.055z"/>
						</g>
					</g>
				</g>
			</g>
		</g>
		<g>
			<g>
				<g>
					<path style="fill-rule:evenodd;clip-rule:evenodd;fill:#C1DFEA;" d="M383.595,94.997c2.646-5.465,5.123-11.676,9.688-16.958       c4.352-5.034,13.925-11.918,20.998-6.461c9.21,7.105,3.192,27.089,0.27,36.879c5.375-6.039,14.279-13.535,26.649-12.383       c11.009,1.026,18.705,10.453,17.497,23.42c-0.549,5.894-3.591,11.281-6.999,14.804c-8.896,9.2-24.666,13.326-41.454,16.152       c-38.683,6.511-97.217,10.723-123.558-9.96c-6.399-5.024-11.792-12.432-10.766-23.419c0.581-6.247,3.979-12.122,6.996-15.614       c4.814-5.569,11.981-10.155,21.537-10.228c6.795-0.051,10.987,1.764,16.419,4.038c0.95-13.389,5.899-22.915,11.844-32.033       c5.301-8.128,13.228-18.174,25.304-18.843c3.059-0.17,6.186,0.371,8.614,1.346C381.719,51.791,385.781,73.856,383.595,94.997z"/>
					<g>
						<path style="fill-rule:evenodd;clip-rule:evenodd;fill:#7AB0C9;" d="M372.289,54.107c3.993-2.086,7.936,13.067,2.691,12.651        c-2.153-0.171-1.653-2.989-2.423-6.191C372.013,58.308,369.89,55.359,372.289,54.107z"/>
						<path style="fill-rule:evenodd;clip-rule:evenodd;fill:#F8FAFF;" d="M371.481,66.758c1.604,1.325,2.631,7.235,0.539,8.883        c-3.626,0.21-2.285-5.658-2.155-8.344C370.43,67.142,370.634,66.628,371.481,66.758z"/>
						<path style="fill-rule:evenodd;clip-rule:evenodd;fill:#F8FAFF;" d="M378.21,72.681c1.857,1.384,1.427,11.232-1.614,10.767        c-3.063-0.467-0.655-8.934,0.269-10.767C377.313,72.681,377.761,72.681,378.21,72.681z"/>
						<path style="fill-rule:evenodd;clip-rule:evenodd;fill:#7AB0C9;" d="M412.936,82.102c-2.228-0.894-2.192-6.98,0-6.999        C415.221,75.084,415.346,81.347,412.936,82.102z"/>
						<path style="fill-rule:evenodd;clip-rule:evenodd;fill:#7AB0C9;" d="M332.448,80.218c-0.148,4.876-1.793,8.258-4.576,10.499        c-0.512-0.116-0.676-0.581-1.346-0.539C325.602,85.898,328.199,77.634,332.448,80.218z"/>
						<path style="fill-rule:evenodd;clip-rule:evenodd;fill:#F8FAFF;" d="M411.051,94.754c-1.165-1.047-0.086-2.657,0.269-4.307        c0.479-2.229,0.434-4.731,1.884-5.923C417.576,84.527,413.951,94.961,411.051,94.754z"/>
						<path style="fill-rule:evenodd;clip-rule:evenodd;fill:#7AB0C9;" d="M391.131,89.37c2.415,2.106-0.871,7.681-3.767,7.807        C386.29,94.213,388.25,90.12,391.131,89.37z"/>
						<path style="fill-rule:evenodd;clip-rule:evenodd;fill:#7AB0C9;" d="M327.065,93.677c2.926-0.628,1.904,6.804-0.539,6.73        C323.521,100.315,325.228,94.071,327.065,93.677z"/>
						<path style="fill-rule:evenodd;clip-rule:evenodd;fill:#F8FAFF;" d="M292.878,99.329c0.15,3.535-1.988,6.156-3.231,8.884        c-0.629,1.381-1.333,2.838-1.884,4.307c-0.458,1.227-0.47,3.444-2.422,3.499c-1.662-1.711-0.751-6.196,0.269-9.422        C286.848,102.687,289.404,97.301,292.878,99.329z"/>
						<path style="fill-rule:evenodd;clip-rule:evenodd;fill:#7AB0C9;" d="M434.471,99.329c-0.414,2.099-2.38,2.646-4.576,2.962        c-0.463-0.436-0.669-1.126-0.539-2.154C430.762,99.622,433.25,97.56,434.471,99.329z"/>
						<path style="fill-rule:evenodd;clip-rule:evenodd;fill:#7AB0C9;" d="M449.814,116.019c-1.074-2.986-0.101-8.271,0-11.843        c0.7-0.344,0.813-0.59,1.615-0.27C453.326,106.587,454.503,115.504,449.814,116.019z"/>
						<path style="fill-rule:evenodd;clip-rule:evenodd;fill:#F8FAFF;" d="M424.78,104.714c-0.418,2.612-2.298,4.828-4.038,6.192        c-0.886,0.695-2.118,1.507-3.499,1.345c-1.251-1.708,1.878-5.504,3.769-6.998C421.908,104.544,423.397,103.587,424.78,104.714        z"/>
						<path style="fill-rule:evenodd;clip-rule:evenodd;fill:#F8FAFF;" d="M293.416,122.749c-3.475-1.47-1.794-9.62,0.538-11.036        c1.366-0.199,1.666,0.668,2.424,1.076C297.165,116.899,296.128,121.266,293.416,122.749z"/>
						<path style="fill-rule:evenodd;clip-rule:evenodd;fill:#F8FAFF;" d="M445.508,113.866c2.387,1.134,2.332,8.131-0.808,8.346        c-1.211-0.313-1.146-2.139-1.077-3.769c0.08-1.855,0.696-4.118,1.345-4.846C445.282,113.554,445.449,113.657,445.508,113.866z        "/>
						<path style="fill-rule:evenodd;clip-rule:evenodd;fill:#7AB0C9;" d="M453.583,121.942c-0.179,3.369-1.552,6.818-4.846,6.192        C448.353,125.319,450.691,120.62,453.583,121.942z"/>
						<path style="fill-rule:evenodd;clip-rule:evenodd;fill:#7AB0C9;" d="M288.031,134.325c-2.974-0.404-5.351-9.444-2.96-12.652        c2.422-0.349,2.945,2.753,3.499,5.653C289.058,129.88,289.782,133.498,288.031,134.325z"/>
						<path style="fill-rule:evenodd;clip-rule:evenodd;fill:#7AB0C9;" d="M392.209,140.246c-0.506,2.763-6.484,3.813-8.344,1.885        C384.374,139.482,390.313,138.117,392.209,140.246z"/>
						<path style="fill-rule:evenodd;clip-rule:evenodd;fill:#F8FAFF;" d="M398.938,144.554c-0.608,1.908-2.499,2.079-5.114,2.691        c-1.552,0.364-5.092,1.719-5.654-0.27C387.408,144.274,397.792,141.689,398.938,144.554z"/>
						<path style="fill-rule:evenodd;clip-rule:evenodd;fill:#F8FAFF;" d="M351.831,145.361c-0.508,2.467-7.647,2.363-7.81,0.269        C343.852,143.4,351.351,142.723,351.831,145.361z"/>
						<path style="fill-rule:evenodd;clip-rule:evenodd;fill:#7AB0C9;" d="M340.255,147.784c-1.326,1.724-4.949,1.508-7.806,1.347        c-3.436-0.196-7.874-0.357-8.615-2.693c0.677-1.016,2.751-1.437,4.577-1.615C332.731,144.402,339.585,144.447,340.255,147.784        z"/>
						<path style="fill-rule:evenodd;clip-rule:evenodd;fill:#F8FAFF;" d="M384.133,146.976c-0.673,2.247-5.406,3.517-8.347,3.769        c-1.512,0.131-4.122,0.25-4.306-1.345c-0.266-2.299,6.667-3.331,8.614-3.501C381.692,145.761,383.665,145.307,384.133,146.976        z"/>
					</g>
				</g>
				<g>
					<path style="fill-rule:evenodd;clip-rule:evenodd;fill:#42758A;" d="M408.857,156.842c0.918,1.199,0.915,3.066,1.345,4.846       c1.034,4.291,2.829,10.132,3.231,15.343c0.397,5.163-0.545,13.172-6.193,12.651c-4.435-0.408-5.261-6.355-4.845-11.843       C402.996,169.905,406.764,163.055,408.857,156.842z"/>
					<path style="fill-rule:evenodd;clip-rule:evenodd;fill:#42758A;" d="M306.71,135.07c0.179,0,0.358,0,0.537,0       c1.383,5.172,5.067,12.743,4.577,19.92c-0.258,3.769-2.261,7.9-5.385,8.345c-4.71,0.672-6.75-3.701-6.998-8.076       c-0.424-7.45,4.537-15.49,6.73-19.381C306.32,135.613,306.394,135.175,306.71,135.07z"/>
					<path style="fill-rule:evenodd;clip-rule:evenodd;fill:#42758A;" d="M368.375,174.851c0.18,0,0.359,0,0.539,0       c1.383,5.172,5.068,12.742,4.576,19.919c-0.257,3.768-2.26,7.901-5.383,8.345c-4.712,0.671-6.752-3.701-7-8.076       c-0.423-7.45,4.538-15.49,6.731-19.382C367.986,175.394,368.059,174.956,368.375,174.851z"/>
					<path style="fill-rule:evenodd;clip-rule:evenodd;fill:#42758A;" d="M430.839,133.039c0.12,0,0.241,0,0.362,0       c0.931,3.482,3.41,8.578,3.08,13.408c-0.171,2.536-1.522,5.317-3.623,5.617c-3.171,0.452-4.543-2.491-4.711-5.435       c-0.285-5.016,3.053-10.426,4.531-13.047C430.577,133.405,430.627,133.11,430.839,133.039z"/>
				</g>
			</g>
			<g>
				<path style="fill-rule:evenodd;clip-rule:evenodd;fill:#42758A;" d="M486.683,273.526c0.179,0,0.358,0,0.537,0      c1.383,5.172,5.067,12.743,4.576,19.919c-0.256,3.769-2.26,7.9-5.383,8.345c-4.713,0.672-6.75-3.701-6.997-8.076      c-0.424-7.451,4.536-15.49,6.728-19.382C486.293,274.069,486.367,273.631,486.683,273.526z"/>
				<path style="fill-rule:evenodd;clip-rule:evenodd;fill:#42758A;" d="M449.348,280.082c0.229-0.049,0.255,0.106,0.269,0.27      c1.258,5.64,3.648,12.615,3.23,20.189c-0.226,4.12-1.411,8.628-5.384,8.616c-4.648-0.018-6.331-5.128-5.923-10.5      c0.261-3.438,1.488-6.912,2.693-9.96C445.741,284.887,447.203,282.416,449.348,280.082z"/>
				<g>
					<path style="fill-rule:evenodd;clip-rule:evenodd;fill:#C1DFEA;" d="M423.703,234.975c-0.751-2.925-2.119-5.244-2.422-8.344       c-0.769-7.861,2.489-15.729,7.268-19.92c7.639-6.7,20.914-4.66,27.727,2.153c3.544,3.544,5.34,8.12,6.46,14.536       c2.676-4.362,4.92-8.398,9.692-9.69c9.717-2.635,17.012,6.433,13.729,17.497c0.049,0.228-0.106,0.254-0.272,0.269       c-0.029,0.036,0.041,0.246,0,0.269c4.696-2.762,9.065-5.909,15.343-5.384c6.084,0.51,12.139,5.593,10.5,13.459       c-1.132,5.435-4.805,9.747-8.615,12.922c-14.735,12.278-48.238,16.653-77.256,12.92c-9.913-1.275-21.492-3.66-24.495-11.036       c-1.88-4.613,0.372-9.714,3.228-12.653C408.877,237.565,416.091,235.164,423.703,234.975z"/>
					<path style="fill-rule:evenodd;clip-rule:evenodd;fill:#7AB0C9;" d="M439.317,208.325c-0.685,4.253-3.514,6.359-7,7.807       C429.019,212.891,435.89,204.775,439.317,208.325z"/>
					<path style="fill-rule:evenodd;clip-rule:evenodd;fill:#F8FAFF;" d="M427.471,218.825c1.443,1.947,2.05,8.894-1.614,8.883       C424.243,225.874,423.235,218.526,427.471,218.825z"/>
					<path style="fill-rule:evenodd;clip-rule:evenodd;fill:#7AB0C9;" d="M435.816,220.171c-0.115,1.768-0.757,3.01-2.691,2.961       C430.387,221.69,434.153,217.127,435.816,220.171z"/>
					<path style="fill-rule:evenodd;clip-rule:evenodd;fill:#F8FAFF;" d="M481.041,227.17c-1.389-1.123-0.947-4.078-2.154-5.385       C480.813,216.425,486.23,226.93,481.041,227.17z"/>
					<path style="fill-rule:evenodd;clip-rule:evenodd;fill:#7AB0C9;" d="M506.614,237.937c-1.783,0.102-1.983-1.816-2.424-3.23       c-0.436-1.4-1.105-3.247-0.809-4.306C506.671,229.385,509.127,235.651,506.614,237.937z"/>
					<path style="fill-rule:evenodd;clip-rule:evenodd;fill:#7AB0C9;" d="M483.732,231.207c0.16,2.011-0.78,3.861-2.692,2.96       C480.911,232.187,481.737,230.224,483.732,231.207z"/>
					<path style="fill-rule:evenodd;clip-rule:evenodd;fill:#F8FAFF;" d="M502.575,240.09c-0.178,0-0.358,0-0.537,0       c-1.614-0.061-1.579-4.296,0.269-4.038C504.236,236.228,503.732,239.393,502.575,240.09z"/>
					<path style="fill-rule:evenodd;clip-rule:evenodd;fill:#F8FAFF;" d="M421.28,237.937c-1.029,2.829-3.379,4.337-6.729,4.845       C413.403,239.182,418.492,235.876,421.28,237.937z"/>
					<path style="fill-rule:evenodd;clip-rule:evenodd;fill:#7AB0C9;" d="M507.96,241.974c-0.433,1.992-1.027,3.821-3.5,3.769       C503.534,243.621,505.97,240.341,507.96,241.974z"/>
					<path style="fill-rule:evenodd;clip-rule:evenodd;fill:#7AB0C9;" d="M409.974,243.859c0.788,1.873-0.358,4.077-0.808,5.922       c-0.446,1.835-0.309,4.304-2.153,4.846c-2.687-1.355-1.222-9.667,1.079-11.036       C408.965,243.434,409.342,243.773,409.974,243.859z"/>
					<path style="fill-rule:evenodd;clip-rule:evenodd;fill:#F8FAFF;" d="M417.512,246.82c0.891,2.581-2.582,7.134-4.576,4.306       C413.417,248.758,414.784,246.071,417.512,246.82z"/>
					<path style="fill-rule:evenodd;clip-rule:evenodd;fill:#7AB0C9;" d="M477.002,254.896c0.171,2.214-3.31,2.481-4.575,1.615       C472.247,254.439,475.987,253.235,477.002,254.896z"/>
					<path style="fill-rule:evenodd;clip-rule:evenodd;fill:#F8FAFF;" d="M485.616,256.511c-1.207,2.472-4.51,2.847-8.074,2.961       c-0.805-1.876,1.48-2.396,3.229-2.961C482.233,256.038,484.842,254.867,485.616,256.511z"/>
					<path style="fill-rule:evenodd;clip-rule:evenodd;fill:#7AB0C9;" d="M472.157,260.01c-0.291,1.799-3.425,2.356-5.653,2.692       c-2.327,0.35-5.537,0.764-6.999-0.539c0.448-2.008,3.605-2.059,5.921-2.423C467.721,259.38,470.733,258.371,472.157,260.01z"/>
				</g>
			</g>
			<g>
				<g>
					<path style="fill-rule:evenodd;clip-rule:evenodd;fill:#C1DFEA;" d="M94.486,143.182c2.094-1.667,3.8-4.338,6.191-6.729       c5.984-5.984,15.051-13.249,24.227-15.614c5.141-1.324,11.085-1.436,14.267,1.347c6.626,5.795,2.36,21.487-0.538,28.534       c10.23-3.244,26.066-2.576,32.034,4.575c3.765,4.513,2.073,10.972-1.615,15.345c-3.357,3.98-9.02,7.151-14.805,10.229       c-16.251,8.644-35.731,13.615-59.491,15.074c-15.636,0.96-31.955-0.305-46.571-2.691c-6.731-1.099-13.907-2.627-20.189-4.846       c-5.944-2.1-12.447-5.56-14.537-10.229c-3.484-7.787,1.186-13.808,6.462-16.689c5.653-3.088,13.6-4.063,21.805-3.769       c-2.923-7.448-5.425-15.854-4.846-24.497c0.9-13.418,10.123-27.751,25.842-26.38c9.226,0.804,16.317,6.709,21.267,12.92       C89.252,126.369,92.711,134.506,94.486,143.182z"/>
					<path style="fill-rule:evenodd;clip-rule:evenodd;fill:#7AB0C9;" d="M46.3,121.916c1.289,2.809-0.356,6.252-1.075,9.152       c-0.752,3.022-0.813,6.651-2.962,8.346c-1.834-0.666-1.394-3.306-1.346-4.845c0.141-4.438,1.712-9.572,3.231-12.383       c0.217-0.231,0.736-0.16,0.806-0.539C45.716,121.425,45.652,122.027,46.3,121.916z"/>
					<path style="fill-rule:evenodd;clip-rule:evenodd;fill:#F8FAFF;" d="M80.488,124.878c3.846,0.621,8.125,7.879,5.922,12.113       c-2.05,0.142-2.603-2.671-3.5-4.577C81.748,129.941,79.798,128.001,80.488,124.878z"/>
					<path style="fill-rule:evenodd;clip-rule:evenodd;fill:#F8FAFF;" d="M132.98,145.336c-1.802-1.765,1.011-5.439,1.883-8.883       c0.68-2.677,0.395-7.013,3.77-5.922C141.008,135.933,138.85,144.737,132.98,145.336z"/>
					<path style="fill-rule:evenodd;clip-rule:evenodd;fill:#F8FAFF;" d="M44.148,145.067c1.363,2.08,2.532,7.936,0.806,10.498       c-2.162-0.172-3.392-5.055-3.229-7.806c0.058-0.99,0.397-1.983,0.808-2.691C43.07,145.067,43.61,145.067,44.148,145.067z"/>
					<path style="fill-rule:evenodd;clip-rule:evenodd;fill:#7AB0C9;" d="M134.596,148.835c1.365,3.422-0.847,7.468-4.039,8.076       c-1.654-2.394,1.062-6.139,2.422-8.076C133.517,148.835,134.057,148.835,134.596,148.835z"/>
					<path style="fill-rule:evenodd;clip-rule:evenodd;fill:#7AB0C9;" d="M165.013,157.45c-1.648,1.394-3.426-1.397-2.961-2.963       C163.025,151.208,167.689,154.763,165.013,157.45z"/>
					<path style="fill-rule:evenodd;clip-rule:evenodd;fill:#7AB0C9;" d="M165.283,160.141c1.752,2.841-0.508,7.734-2.692,9.691       c-1.038,0.929-2.551,1.792-4.038,1.076c-1-3.753,3.032-4.637,4.307-6.999C163.195,162.181,163.131,160.054,165.283,160.141z"/>
					<path style="fill-rule:evenodd;clip-rule:evenodd;fill:#F8FAFF;" d="M23.42,165.257c0.354,1.692-0.547,2.417-0.808,3.768       c-0.605,3.133-0.037,7.429-2.423,7.807C14.536,177.728,18.909,160.759,23.42,165.257z"/>
					<path style="fill-rule:evenodd;clip-rule:evenodd;fill:#F8FAFF;" d="M155.053,173.87c-0.303,2.224-2.55,3.638-4.306,4.846       c-1.636,1.124-3.966,3.095-6.193,1.884c-0.469-1.952,1.889-3.085,3.771-4.307C150.431,174.924,152.961,172.028,155.053,173.87z       "/>
					<path style="fill-rule:evenodd;clip-rule:evenodd;fill:#7AB0C9;" d="M28.804,184.1c-3.337,0-4.895-7.863-1.884-8.077       C29.149,175.866,30.972,182.512,28.804,184.1z"/>
				</g>
				<g>
					<path style="fill-rule:evenodd;clip-rule:evenodd;fill:#42758A;" d="M41.903,184.333c0.179,0,0.358,0,0.537,0       c1.383,5.172,5.068,12.743,4.577,19.92c-0.257,3.769-2.263,7.9-5.384,8.346c-4.711,0.671-6.751-3.702-6.999-8.076       c-0.423-7.45,4.536-15.49,6.731-19.382C41.513,184.877,41.589,184.438,41.903,184.333z"/>
					<path style="fill-rule:evenodd;clip-rule:evenodd;fill:#42758A;" d="M81.295,172.585c0.918,1.2,0.915,3.065,1.345,4.845       c1.033,4.291,2.827,10.133,3.231,15.343c0.396,5.163-0.546,13.173-6.192,12.653c-4.437-0.409-5.262-6.356-4.846-11.844       C75.435,185.647,79.203,178.798,81.295,172.585z"/>
					<path style="fill-rule:evenodd;clip-rule:evenodd;fill:#42758A;" d="M113.177,183.612c0.161,0,0.319,0,0.479,0       c1.235,4.62,4.526,11.382,4.088,17.791c-0.228,3.366-2.019,7.056-4.808,7.454c-4.207,0.599-6.029-3.306-6.249-7.214       c-0.378-6.654,4.051-13.834,6.011-17.31C112.829,184.099,112.895,183.707,113.177,183.612z"/>
				</g>
			</g>
		</g>
	</g>
</g>















</svg>
