<?xml version="1.0" encoding="UTF-8"?>
<!-- Generator: Adobe Illustrator 25.2.1, SVG Export Plug-In . SVG Version: 6.00 Build 0)  -->
<svg xmlns="http://www.w3.org/2000/svg" xmlns:xlink="http://www.w3.org/1999/xlink" version="1.1" id="Capa_1" x="0px" y="0px" viewBox="0 0 512 512" style="enable-background:new 0 0 512 512;" xml:space="preserve" width="512" height="512">
<g>
	<path style="fill:#FFFFFF;" d="M196.444,511.926c5.783,0.639,11.255-2.931,12.959-8.557l25.871-85.385l41.075-0.027l8.638,79.254   c0.661,6.054,5.712,10.71,11.792,10.834l39.585,0.951c3.913,0.096,7.63-1.699,9.989-4.821c2.359-3.121,3.073-7.187,1.917-10.925   c-1.855-5.989-7.74-16.345-26.313-18.396c-1.377-0.152-2.729-0.249-4.033-0.303l-7.518-60.194   c10.771-5.489,18.122-16.714,18.113-29.434l-0.006-11.227c1.803-0.983,3.473-2.232,4.966-3.725   c4.08-4.087,6.326-9.519,6.322-15.291c-0.004-6.074-2.508-11.647-6.694-15.615l-0.081-122.452   c26.553-14.696,43.509-42.143,44.878-72.844c4.257-3.529,9.016-8.213,12.758-14.2c1.985-3.178,4.292-7.519,4.493-12.929   c0.32-8.361-4.75-15.787-12.32-18.056c-1.952-0.584-4.035-0.807-6.09-0.653c-0.169-0.415-0.352-0.829-0.548-1.242   c-1.932-4.113-4.792-6.983-8.508-8.536c-1.311-0.547-2.693-0.903-4.107-1.06c-5.099-0.563-10.392,1.567-14.156,5.693   c-2.77,3.037-4.371,6.491-5.323,9.776c-3.793-0.924-7.573-0.676-10.98,0.76c-2.455,1.034-4.556,2.482-6.228,4.25l-53.604-97.237   c-3.134-5.685-8.851-9.502-15.29-10.213c-8.076-0.892-15.819,3.126-19.727,10.237l-53.369,97.106   c-1.64-1.675-3.676-3.05-6.037-4.041c-3.4-1.425-7.215-1.679-10.981-0.742c-0.957-3.286-2.564-6.74-5.344-9.777   c-4.799-5.245-12.195-7.141-18.276-4.601c-3.705,1.555-6.56,4.429-8.482,8.532c-0.195,0.415-0.377,0.833-0.548,1.251   c-2.079-0.153-4.124,0.07-6.084,0.662c-7.569,2.279-12.629,9.71-12.303,18.077c0.214,5.42,2.524,9.753,4.511,12.921   c3.752,5.983,8.517,10.659,12.776,14.181c1.408,30.553,18.282,57.907,44.671,72.609l0.079,122.629   c-4.179,3.972-6.675,9.548-6.671,15.622c0.005,8.155,4.526,15.326,11.31,19.001l0.008,11.228   c0.007,12.426,6.892,23.357,17.224,28.969l-19.541,61.031c-0.68-0.099-1.377-0.188-2.083-0.266   c-19.986-2.207-28.123,7.224-31.194,13.043c-1.827,3.461-1.877,7.587-0.134,11.09c1.743,3.503,5.065,5.953,8.927,6.583   l39.082,6.371C196.024,511.874,196.233,511.903,196.444,511.926z"/>
	<g>
		<g>
			<g>
				<path style="fill:#572330;" d="M295.318,391.634l11.932,95.551c0,0,25.192-3.954,29.405,9.661l-39.585-0.952l-11.566-106.11"/>
			</g>
			<g>
				<g>
					<path style="fill:#572330;" d="M379.338,110.227c-1.584-0.475-3.337-0.008-4.716,0.904c-1.379,0.911-2.44,2.225-3.403,3.569       c-2.176,3.039-4.205,7.341-5.706,10.759c0.531-3.285,1.207-7.606,1.386-10.929c0.231-4.3,0.131-8.774-1.703-12.67       c-0.481-1.023-1.145-2.051-2.188-2.486c-1.6-0.667-3.434,0.326-4.603,1.607c-2.463,2.699-3.2,6.528-3.525,10.167       c-0.468,5.248-0.264,10.551,0.558,15.755c-1.94-2.754-4.136-5.328-6.585-7.642c-2.428-2.294-7.291-6.303-11.015-4.735       c-6.95,2.927-0.918,10.787,2.23,13.477c4.899,4.188,10.863,6.861,16.865,9.175c0.918,28.786-14.93,53.42-41.412,64.642       c-5.255,2.227-0.72,9.869,4.486,7.663c29.008-12.292,46.595-40.407,45.805-71.728c5.644-4.096,10.834-8.697,14.541-14.627       c1.33-2.128,2.559-4.442,2.654-6.949C383.102,113.671,381.741,110.948,379.338,110.227z"/>
				</g>
				<g>
					<path style="fill:#572330;" d="M196.592,201.897c-26.496-11.187-42.376-35.801-41.496-64.588       c5.998-2.322,11.959-5.003,16.852-9.197c3.144-2.695,9.166-10.562,2.212-13.48c-3.726-1.564-8.584,2.452-11.009,4.749       c-2.446,2.317-4.638,4.894-6.575,7.651c0.815-5.206,1.013-10.508,0.537-15.756c-0.33-3.638-1.072-7.467-3.538-10.163       c-1.17-1.279-3.005-2.27-4.605-1.601c-1.042,0.436-1.704,1.466-2.184,2.489c-1.829,3.898-1.923,8.372-1.686,12.672       c0.183,3.323,0.864,7.643,1.4,10.928c-1.506-3.415-3.54-7.715-5.72-10.751c-0.964-1.343-2.027-2.655-3.407-3.565       c-1.381-0.91-3.135-1.375-4.717-0.898c-2.402,0.724-3.759,3.449-3.661,5.956c0.098,2.507,1.331,4.82,2.664,6.946       c3.714,5.925,8.91,10.52,14.56,14.608c-0.749,31.322,16.875,59.414,45.899,71.668       C197.325,211.765,201.85,204.118,196.592,201.897z"/>
				</g>
			</g>
		</g>
		<g>
			<path style="fill:#572330;" d="M218.735,397.698l-29.364,91.707c0,0-24.029-8.536-30.684,4.067l39.081,6.371l30.952-102.152"/>
		</g>
		<g>
			<path style="fill:#FF61B8;" d="M320.81,126.276c0-0.079-0.014-0.158-0.015-0.237c-7.149,1.403-14.699,0.07-19.811-4.98     c-2.9,6.312-9.559,10.714-16.503,10.909c-6.944,0.195-13.839-3.827-17.088-9.967c-3.461,8.306-11.863,14.321-20.841,14.921     c-8.978,0.601-18.106-4.241-22.643-12.011c-9.139,7.712-23.691,6.921-32.895-0.371c-0.062,0.605-0.114,1.211-0.114,1.822     l0.15,229.365l129.908-0.085L320.81,126.276z"/>
		</g>
		<g>
			<path style="fill:#2BB680;" d="M296.02,405.789l-79.963,0.052c-11.242,0.007-20.362-9.1-20.369-20.343l-0.024-36.111     l120.675-0.079l0.024,36.111C316.371,396.662,307.263,405.782,296.02,405.789z"/>
		</g>
		<g>
			<path style="fill:#FF97B3;" d="M225.306,126.993c-0.498-0.671-0.973-1.359-1.395-2.083c-0.103,0.087-0.216,0.158-0.32,0.243     c-0.567,24.704-0.933,74.411-0.895,131.751c0.025,37.954,0.222,72.562,0.526,98.801l2.711-0.002     c0.27-26.239,0.422-60.848,0.397-98.802C226.293,200.965,225.882,152.277,225.306,126.993z"/>
		</g>
		<g>
			<path style="fill:#FF97B3;" d="M267.546,122.242c-0.046-0.083-0.107-0.157-0.152-0.241c-0.411,0.986-0.896,1.937-1.439,2.854     c-0.57,24.609-0.939,74.471-0.902,132.022c0.025,37.954,0.222,72.562,0.526,98.801l2.711-0.002     c0.27-26.239,0.422-60.848,0.397-98.802C268.648,197.211,268.183,145.805,267.546,122.242z"/>
		</g>
		<g>
			<path style="fill:#FF97B3;" d="M303.266,122.941c-0.535-0.376-1.036-0.806-1.534-1.245c-0.614,23.315-1.018,75.043-0.979,135.158     c0.025,37.954,0.222,72.562,0.526,98.801l2.711-0.002c0.27-26.239,0.422-60.848,0.397-98.802     C304.349,197.81,303.894,146.831,303.266,122.941z"/>
		</g>
		<g>
			<g>
				<path style="fill:#FF52A1;" d="M320.935,316.694c-7.618-4.549-15.669-8.472-23.772-11.968      c-15.396-6.644-31.372-12.087-46.001-20.283c-14.629-8.196-28.126-19.592-35.144-34.822      c-8.616-18.696-6.433-40.286-6.053-60.868c0.361-19.584-1.105-39.198-4.324-58.519c-5.303-0.477-10.5-2.427-14.623-5.694      c-0.062,0.605-0.114,1.211-0.114,1.822l0.15,229.365l129.908-0.085L320.935,316.694z"/>
			</g>
		</g>
		<g>
			<g>
				<g>
					<path style="fill:#572330;" d="M208.614,215.472c4.615,22.455,29.406,32.021,50.091,31.713       c22.179-0.331,41.675-17.066,44.929-38.904c0.56-3.759-5.184-5.373-5.749-1.581c-3.013,20.215-19.354,32.877-39.184,34.524       c-17.938,1.49-40.438-8.351-44.34-27.34C213.588,210.119,207.843,211.72,208.614,215.472L208.614,215.472z"/>
				</g>
			</g>
			<g>
				<g>
					<path style="fill:#572330;" d="M241.937,208.356c0.003,5.243-4.244,9.497-9.488,9.5c-5.243,0.004-9.497-4.244-9.5-9.488       c-0.004-5.243,4.244-9.497,9.488-9.5S241.934,203.112,241.937,208.356z"/>
				</g>
				<g>
					<path style="fill:#572330;" d="M289.262,208.325c0.004,5.243-4.244,9.497-9.488,9.5c-5.243,0.003-9.497-4.245-9.5-9.488       c-0.003-5.243,4.245-9.497,9.488-9.5C285.005,198.833,289.258,203.081,289.262,208.325z"/>
				</g>
			</g>
		</g>
		<g>
			<g>
				<path style="fill:#FFC82B;" d="M223.911,124.911c4.537,7.77,13.665,12.612,22.643,12.011      c8.978-0.601,17.379-6.616,20.841-14.921c3.249,6.14,10.144,10.162,17.088,9.967c6.944-0.195,13.603-4.597,16.503-10.909      c5.111,5.05,12.662,6.383,19.811,4.98c0.001,0.079,0.015,0.158,0.015,0.237c-0.002-2.995-0.761-5.941-2.207-8.564      L262.642,16.205c-2.978-5.403-10.745-5.398-13.716,0.009l-55.828,101.58c-1.148,2.089-1.84,4.385-2.082,6.745      C200.219,131.832,214.772,132.623,223.911,124.911z"/>
			</g>
		</g>
		<g>
			<path style="fill:#A03589;" d="M255.864,51.022c8.822-0.006,17.18-0.857,24.667-2.367l-17.889-32.449     c-2.978-5.403-10.745-5.398-13.716,0.009L231.09,48.667C238.606,50.18,247.001,51.027,255.864,51.022z"/>
		</g>
		<path style="fill:#4F202D;" d="M209.586,219.123c-0.089-2.137-0.132-4.282-0.142-6.434c-0.677,0.654-1.07,1.614-0.83,2.783    C208.873,216.732,209.204,217.944,209.586,219.123z"/>
		<path style="fill:#FF8D8D;" d="M265.125,291.401c0.087,24.288,0.245,46.257,0.454,64.276l2.711-0.002    c0.181-17.632,0.309-39.055,0.366-62.72C267.476,292.444,266.298,291.928,265.125,291.401z"/>
		<path style="fill:#FF8D8D;" d="M300.89,306.372c0.092,18.35,0.225,35.054,0.39,49.282l2.711-0.002    c0.142-13.82,0.251-29.979,0.319-47.71C303.173,307.41,302.033,306.886,300.89,306.372z"/>
		<path style="fill:#FF8D8D;" d="M226.332,265.133c-1.275-1.428-2.484-2.908-3.633-4.431c0.035,36.458,0.229,69.644,0.523,95.003    l1.564-0.001l1.147-0.001C226.183,331.375,226.331,299.846,226.332,265.133z"/>
		<g>
			<g>
				<path style="fill:#FFFCDE;" d="M294.597,101.565c3.106-1.158,1.528-13.044-4.955-25.891      c-6.452-12.862-15.055-21.214-17.836-19.41c-2.838,1.826,0.89,12.631,7.015,24.854      C284.985,93.322,291.44,102.755,294.597,101.565z"/>
			</g>
			<g>
				<path style="fill:#FFFCDE;" d="M306.544,105.712c-1.342-2.512-4.821-3.27-7.772-1.694c-2.951,1.576-4.255,4.89-2.913,7.402      c1.342,2.512,4.821,3.27,7.772,1.694C306.581,111.537,307.886,108.223,306.544,105.712z"/>
			</g>
			<g>
				<path style="fill:#FFFCDE;" d="M277.906,386.251c-13.739,0.415-25.199,1.523-25.674,4.882c-0.201,1.644,2.517,3.535,7.224,4.998      c4.695,1.464,11.386,2.429,18.782,2.23c7.397-0.207,14.025-1.537,18.632-3.256c4.62-1.719,7.23-3.756,6.939-5.387      C303.151,386.389,291.648,385.911,277.906,386.251z"/>
			</g>
			<g>
				<path style="fill:#FFFCDE;" d="M237.008,385.771c-4.188-0.154-7.683,2.431-7.806,5.774c-0.123,3.343,3.173,6.178,7.361,6.332      c4.188,0.154,7.683-2.431,7.806-5.774C244.492,388.76,241.196,385.925,237.008,385.771z"/>
			</g>
		</g>
		<g>
			<path style="fill:#A03589;" d="M318.184,364.158l-124.345,0.081c-5.227,0.003-9.467-4.231-9.47-9.458l0,0     c-0.003-5.227,4.231-9.467,9.458-9.47l124.345-0.081c5.227-0.003,9.467,4.231,9.47,9.458l0,0     C327.646,359.914,323.411,364.154,318.184,364.158z"/>
		</g>
	</g>
</g>















</svg>
