<?xml version="1.0" encoding="UTF-8"?>
<!-- Generator: Adobe Illustrator 25.2.1, SVG Export Plug-In . SVG Version: 6.00 Build 0)  -->
<svg xmlns="http://www.w3.org/2000/svg" xmlns:xlink="http://www.w3.org/1999/xlink" version="1.1" id="Capa_1" x="0px" y="0px" viewBox="0 0 512 512" style="enable-background:new 0 0 512 512;" xml:space="preserve" width="512" height="512">
<g>
	<path style="fill:#FFFFFF;" d="M436.697,379.97c-6.476-2.967-13.184-4.472-19.933-4.472c-6.616,0-12.504,1.416-17.61,3.534   l-24.377-34.023c4.066-5.549,7.768-11.306,11.075-17.228c18.551-24.273,30.087-53.753,32.553-84.148   c0.384-4.505,0.58-9.088,0.589-13.675c19.796-24.889,27.518-56.613,21.495-88.036c3.527-5.384,7.02-11.93,9.295-19.48   c1.424-4.725,3.102-11.945,1.224-20.062c-3.043-13.097-14.183-22.472-27.077-22.802l-0.718-0.011c-1.222,0-2.434,0.083-3.636,0.244   c0,0-52.47-79.811-166.164-79.812c-44.897,0-81.009,10.185-118.321,43.481c-16.003,14.281-28.29,39.07-35.083,57.866   c-2.984-0.759-6.206-1.472-9.315-1.472c-2.341,0-4.668,0.321-6.95,0.964c-3.874,1.095-9.157,3.597-13.66,9.284   c-1.446,0.02-2.897,0.153-4.328,0.399c-12.72,2.203-22.379,13.095-23.489,26.491c-0.687,8.291,2.022,15.2,4.121,19.674   c3.348,7.144,7.759,13.117,12.037,17.937c-0.766,17.75,2.729,35.247,10.174,51.103c-2.186,3.305-4.029,6.782-5.521,10.416   c-12.244,29.828-10.564,64.525,4.734,97.697c21.225,46.023,65.522,63.297,101.778,71.516c-7.105,19.102-21.369,36.97-27.756,43.643   l-24.772,25.638L231.011,512l2.029-28.567c0.715-10.071-2.415-19.395-9.053-26.964c-2.746-3.132-5.929-5.717-9.299-7.855   c6.882-13.038,10.861-25.062,12.999-35.668c2.066,0.055,4.112,0.081,6.138,0.081c38.183,0,71.414-9.321,99.145-27.764   l50.704,78.145l86.168-68.255L436.697,379.97z"/>
	<g>
		<g>
			<g>
				<path style="fill:#FF61B8;" d="M384.981,131.898c6.858,3.24,14.47,4.395,21.997,5.152c9.642,31.808-0.365,64.12-26.526,84.785      c-4.842,3.824,1.684,10.806,6.489,7.01c28.492-22.506,39.807-58.878,29.458-93.544c5.171-6.388,9.683-13.206,12.06-21.093      c0.837-2.779,1.506-5.736,0.85-8.563c-0.656-2.827-3.003-5.453-5.904-5.527c-1.912-0.049-3.727,1.006-4.989,2.442      c-1.262,1.437-2.047,3.225-2.713,5.018c-1.504,4.053-2.461,9.472-3.097,13.742c-0.406-3.828-0.966-8.856-1.777-12.619      c-1.049-4.87-2.521-9.832-5.753-13.623c-0.848-0.995-1.901-1.942-3.197-2.11c-1.989-0.258-3.733,1.409-4.648,3.193      c-1.928,3.761-1.587,8.259-0.843,12.419c1.073,6,2.913,11.855,5.413,17.414c-3.003-2.484-6.236-4.689-9.673-6.527      c-3.407-1.822-10.054-4.818-13.733-1.935C371.528,122.914,380.65,129.852,384.981,131.898z"/>
			</g>
			<g>
				<path style="fill:#FF61B8;" d="M129.671,244.842c-28.866-16.567-43.266-47.162-38.443-79.941      c7.343-1.843,14.712-4.092,21.032-8.296c3.988-2.653,12.005-10.843,4.43-15.168c-4.059-2.318-10.2,1.612-13.306,3.909      c-3.133,2.317-6.012,4.969-8.622,7.863c1.666-5.863,2.636-11.923,2.826-18.015c0.132-4.224-0.184-8.724-2.638-12.165      c-1.164-1.633-3.133-3.028-5.063-2.484c-1.258,0.355-2.163,1.444-2.857,2.552c-2.647,4.22-3.382,9.343-3.713,14.314      c-0.256,3.841-0.08,8.897,0.075,12.743c-1.25-4.133-2.983-9.355-5.06-13.147c-0.919-1.677-1.955-3.333-3.413-4.571      c-1.457-1.238-3.406-2.018-5.291-1.692c-2.86,0.494-4.8,3.433-5.039,6.326c-0.239,2.892,0.853,5.721,2.084,8.349      c3.5,7.465,8.959,13.559,15.009,19.131c-5.289,35.848,11.37,70.281,42.852,88.349      C129.871,255.961,135.015,247.909,129.671,244.842z"/>
			</g>
			<g>
				<path style="fill:#572330;" d="M394.223,408.626l-52.135-72.763l-13.455-0.206l60.479,93.211l38.346-30.377      C407.603,389.398,394.223,408.626,394.223,408.626z"/>
			</g>
			<g>
				<path style="fill:#572330;" d="M180.243,459.047c38.53-49.644,25.04-85.804,25.04-85.804l-10.529-3.343      c10.17,44.247-36.797,92.83-36.797,92.83l52.863,17.333C212.179,460.959,180.243,459.047,180.243,459.047z"/>
			</g>
		</g>
		<g>
			<g>
				<path style="fill:#28935F;" d="M359.417,322.977c-42.161,46.312-100.775,52.762-159.504,41.91      c-39.678-7.331-80.727-22.029-99-61.653c-10.992-23.835-14.655-50.825-5.88-75.787c-4.766,4.213-8.707,9.246-11.229,15.391      c-10.706,26.075-7.238,54.724,4.353,79.86c18.273,39.624,59.322,54.322,99,61.653c58.73,10.851,117.344,4.402,159.505-41.91      c8.2-9.008,15.023-18.631,20.506-28.709C364.73,316.876,362.16,319.964,359.417,322.977z"/>
			</g>
		</g>
		<g>
			<path style="fill:#2BB680;" d="M359.417,322.977c36.518-40.114,45.957-92.368,29.543-143.132     c-11.634-35.982-37.768-66.507-71.096-84.231c-30.912-16.439-72.886-31.858-106.977-14.358     c-21.59,11.085-38.518,32.115-41.758,56.511c-1.819,13.696,0.161,25.037-9.1,37.129c-7.727,10.09-19.801,15.408-31.134,20.353     c-13.475,5.88-26.588,14.119-32.338,28.125c-10.705,26.075-7.238,54.724,4.353,79.86c18.273,39.624,59.322,54.322,99,61.653     C258.642,375.739,317.257,369.289,359.417,322.977z"/>
		</g>
		<g>
			<g>
				<path style="fill:#23A56D;" d="M359.417,322.977c31.904-35.046,43.137-79.358,34.521-123.847      c-23.932,16.046-44.887,36.356-67.636,54.164c-25.922,20.293-55.898,37.919-88.781,39.494      c-32.425,1.553-65.196-13.869-84.666-39.845c-12.634-16.856-19.428-36.901-24.118-57.623      c-13.419,5.876-26.451,14.103-32.178,28.054c-10.705,26.075-7.238,54.724,4.353,79.86c18.273,39.624,59.322,54.322,99,61.653      C258.643,375.739,317.257,369.289,359.417,322.977z"/>
			</g>
		</g>
		<g>
			<g>
				<path style="fill:#572330;" d="M183.241,205.534c4.57,27.707,35.001,40.516,60.312,40.411      c26.017-0.108,49.383-19.039,54.142-44.566c0.837-4.489-5.986-6.698-6.83-2.17c-4.364,23.407-23.827,38.005-47.035,39.577      c-22.053,1.494-49.723-11.308-53.612-34.888C189.467,199.34,182.492,200.992,183.241,205.534L183.241,205.534z"/>
			</g>
		</g>
		<g>
			<g>
				<path style="fill:#FFFCDE;" d="M239.231,280.714c-15.927-7.404-37.843,2.798-38.983,21.157      c-0.249,4.011,0.322,8.092-0.505,12.025c-0.427,2.031-1.223,3.993-1.381,6.062c-1.067,13.989,27.146,25.728,38.36,22.981      c5.164-1.265,10.083-4.009,13.281-8.256c3.199-4.247,4.464-10.082,2.61-15.065c-1.478-3.973-4.794-7.316-5.112-11.543      c-0.379-5.044,3.671-9.583,3.49-14.638C250.773,287.349,244.755,283.282,239.231,280.714z"/>
			</g>
			<g>
				<path style="fill:#A03589;" d="M337.338,289.424c-2.296-6.177-7.482-13.445-12.308-17.876      c-3.454-3.171-7.722-5.712-12.398-6.074c-9.989-0.772-17.858,6.076-22.527,14.208c-2.327,4.054-4.206,9.291-1.628,13.19      c1.345,2.034,3.697,3.287,4.86,5.43c2.347,4.328-1.194,9.53-0.967,14.448c0.192,4.159,3.196,7.804,6.868,9.767      C318.77,332.957,345.368,311.025,337.338,289.424z"/>
			</g>
			<g>
				<path style="fill:#4ADFA4;" d="M371.256,199.98c-3.35-5.425-13.137-10.434-19.358-8.071c-2.728,1.036-4.742,3.354-7.201,4.926      c-11.938,7.634-30.131,11.041-23.338,30.614c1.144,3.295,3.094,6.254,5.26,8.989c5.454,6.888,13.232,12.882,22.016,12.703      c8.205-0.168,15.565-5.884,19.568-13.049c4.004-7.164,5.135-15.578,5.349-23.783      C373.664,208.068,373.485,203.589,371.256,199.98z"/>
			</g>
			<path style="fill:#CBE8BA;" d="M250.003,334.683c3.199-4.247,4.464-10.082,2.61-15.065c-1.478-3.973-4.794-7.316-5.112-11.543     c-0.379-5.044,3.671-9.583,3.49-14.638c-0.027-0.742-0.142-1.453-0.33-2.137c-4.326,0.763-8.705,1.276-13.139,1.489     c-10.877,0.521-21.791-0.877-32.23-3.934c-2.864,3.604-4.732,8.003-5.044,13.016c-0.249,4.011,0.322,8.092-0.505,12.025     c-0.427,2.031-1.223,3.993-1.381,6.062c-1.067,13.989,27.145,25.728,38.36,22.981     C241.885,341.673,246.804,338.929,250.003,334.683z"/>
			<path style="fill:#792760;" d="M325.029,271.548c-3.454-3.171-7.722-5.712-12.398-6.074c-1.035-0.08-2.042-0.059-3.03,0.017     c-5.518,3.725-11.187,7.233-17.002,10.413c-0.908,1.211-1.747,2.475-2.495,3.778c-2.327,4.054-4.206,9.291-1.628,13.19     c1.345,2.035,3.698,3.286,4.86,5.43c2.347,4.328-1.193,9.53-0.966,14.448c0.192,4.16,3.196,7.804,6.868,9.767     c19.531,10.438,46.13-11.493,38.099-33.094C335.041,283.247,329.856,275.979,325.029,271.548z"/>
			<path style="fill:#41CE91;" d="M368.204,236.092c3.693-6.608,4.94-14.279,5.28-21.868c-12.64,10.052-24.793,20.806-37.283,31.098     c3.771,2.404,7.972,3.911,12.435,3.819C356.841,248.973,364.201,243.256,368.204,236.092z"/>
			<g>
				<path style="fill:#FF61B8;" d="M338.679,128.004c-5.73-9.25-12.067-11.456-21.798-8.692c-8.213,2.333-17.79,4.545-21.012,13.651      c-4.454,12.588,4.171,23.335,12.105,32.107c2.111,2.334,4.336,4.747,7.276,5.866c3.837,1.46,8.207,0.425,11.875-1.418      c7.218-3.627,12.765-10.418,14.918-18.203S342.933,134.871,338.679,128.004z"/>
			</g>
			<g>
				<path style="fill:#FFE300;" d="M267.128,103.636c-10.906-21.994-39.683-11.925-48.581,5.132      c-4.016,7.697-6.372,17.671-1.192,24.638c2.155,2.898,5.366,4.857,8.721,6.195c6.023,2.402,13.102,2.92,18.857-0.066      c3.795-1.969,6.705-5.26,9.522-8.476c2.813-3.212,5.627-6.425,8.44-9.637c2.662-3.04,5.451-6.358,5.861-10.378      C269.017,108.495,268.267,105.932,267.128,103.636z"/>
			</g>
		</g>
		<g>
			<g>
				<circle style="fill:#572330;" cx="212.194" cy="198.119" r="11.411"/>
			</g>
			<g>
				
					<ellipse transform="matrix(0.0386 -0.9993 0.9993 0.0386 58.485 461.4137)" style="fill:#572330;" cx="269.03" cy="200.313" rx="11.411" ry="11.41"/>
			</g>
		</g>
		<g>
			<path style="fill:#792760;" d="M147.307,107.614c0.154-0.04,0.343-0.013,0.571,0.077c0.228,0.092,0.449,0.19,0.668,0.294     c0.219,0.107,0.415,0.213,0.593,0.315s0.312,0.182,0.408,0.241c0.488,0.2,0.995,0.508,1.527,0.928     c0.53,0.418,0.929,0.879,1.195,1.38l0.692,1.247c0.235,0.483,0.373,0.855,0.413,1.116c0.04,0.261,0.154,0.639,0.336,1.135     c0.117,0.24,0.192,0.501,0.223,0.777c0.033,0.279,0.082,0.545,0.148,0.798l-0.132,1.217c-0.022,0.333-0.074,0.678-0.158,1.04     c-0.082,0.361-0.198,0.671-0.348,0.927c-0.344,0.877-0.686,1.755-1.027,2.632c-0.344,0.877-0.759,1.735-1.247,2.567     c-0.152,0.258-0.323,0.566-0.512,0.93c-0.193,0.361-0.362,0.671-0.514,0.928c-0.12,0.277-0.324,0.533-0.615,0.773     c-0.291,0.238-0.491,0.455-0.606,0.647l-0.991,1.359c-0.126,0.141-0.291,0.347-0.491,0.618c-0.203,0.269-0.369,0.516-0.5,0.74     l-1.155-0.678c-0.141-0.126-0.301-0.241-0.478-0.344c-0.175-0.103-0.361-0.213-0.553-0.325c-0.373-0.174-0.717-0.377-1.035-0.608     c-0.319-0.228-0.662-0.432-1.035-0.605c-0.179-0.064-0.357-0.145-0.534-0.25c-0.175-0.103-0.344-0.201-0.506-0.297     c-0.302-0.219-0.631-0.391-0.991-0.516c-0.358-0.123-0.678-0.31-0.963-0.563c-0.502-0.467-1.052-0.855-1.647-1.162     c-0.597-0.307-1.241-0.642-1.935-1.005c-0.339-0.155-0.653-0.32-0.942-0.488c-0.29-0.171-0.579-0.339-0.867-0.509l-2.38-1.458     c-0.192-0.114-0.448-0.264-0.768-0.453c-0.32-0.187-0.656-0.372-1.002-0.554c-0.347-0.181-0.668-0.349-0.965-0.502     c-0.3-0.153-0.511-0.269-0.642-0.343c-0.326-0.104-0.646-0.293-0.963-0.565c-0.205-0.163-0.431-0.327-0.679-0.496     c-0.247-0.165-0.498-0.325-0.754-0.474c-0.477-0.366-1.065-0.742-1.764-1.131c-0.699-0.389-1.32-0.743-1.867-1.063     c-0.386-0.227-0.729-0.449-1.031-0.669c-0.301-0.221-0.492-0.375-0.569-0.465c-0.469-0.23-0.821-0.438-1.059-0.619     c-0.237-0.184-0.437-0.323-0.597-0.416l2.991-5.102c0.376-0.643,0.805-1.277,1.279-1.904c0.476-0.626,0.944-1.258,1.403-1.893     c0.235-0.251,0.42-0.423,0.559-0.513c0.197-0.187,0.358-0.351,0.484-0.494c0.125-0.139,0.259-0.256,0.398-0.347     c0.256-0.067,0.537-0.18,0.849-0.345c0.312-0.16,0.608-0.321,0.896-0.476c0.285-0.157,0.576-0.286,0.875-0.392     c0.299-0.104,0.564-0.133,0.794-0.085c0.2,0.032,0.42,0.042,0.66,0.032c0.243-0.008,0.463,0.003,0.662,0.032     c0.44,0.128,0.988,0.353,1.642,0.672c0.656,0.318,1.285,0.7,1.888,1.138c0.605,0.442,1.143,0.92,1.617,1.436     c0.473,0.516,0.779,1.028,0.91,1.537c0.275,0.635,0.457,1.227,0.545,1.774c0.088,0.549,0.129,1.014,0.119,1.395     c-0.094,0.162-0.137,0.331-0.133,0.506c0.004,0.175-0.03,0.326-0.105,0.454c0.31-0.163,0.521-0.318,0.632-0.469     c0.111-0.151,0.32-0.309,0.632-0.471c0.037-0.064,0.135-0.159,0.292-0.281c0.16-0.123,0.257-0.215,0.295-0.281     c0.152-0.256,0.387-0.474,0.706-0.652c0.321-0.178,0.7-0.421,1.137-0.725c0.122-0.059,0.289-0.144,0.505-0.253     c0.216-0.11,0.452-0.221,0.709-0.328c0.257-0.108,0.497-0.203,0.721-0.289c0.222-0.085,0.4-0.131,0.534-0.141     c0.408-0.104,0.66-0.13,0.756-0.073c0.096,0.056,0.354,0.057,0.775,0.002c0.371-0.042,0.701-0.019,0.995,0.067     C146.574,107.359,146.917,107.473,147.307,107.614z M131.538,114.864c0.075-0.128,0.112-0.356,0.109-0.681     s-0.096-0.626-0.277-0.906c-0.163-0.312-0.389-0.659-0.68-1.046c-0.291-0.387-0.677-0.613-1.155-0.678     c-0.418-0.245-0.9-0.377-1.449-0.399c-0.549-0.019-1.036,0.148-1.46,0.502c-0.075,0.13-0.13,0.205-0.166,0.227     c-0.034,0.023-0.089,0.099-0.164,0.227c-0.011,0.165-0.043,0.256-0.093,0.269c-0.051,0.013-0.124,0.1-0.217,0.26l-0.17,0.288     c0.835,0.491,1.666,1.02,2.495,1.594c0.829,0.571,1.7,1.039,2.609,1.4L131.538,114.864z M146.779,122.962     c0.075-0.128,0.177-0.338,0.306-0.63c0.127-0.29,0.256-0.582,0.383-0.874c0.129-0.292,0.308-0.671,0.54-1.141     c0.067-0.262,0.138-0.51,0.212-0.749c0.075-0.235,0.136-0.468,0.184-0.7c0.077-0.643,0.017-1.165-0.182-1.561     c-0.199-0.396-0.474-0.85-0.823-1.357c-0.259-0.368-0.582-0.697-0.973-0.989c-0.388-0.294-0.768-0.527-1.141-0.703     c-0.224-0.131-0.433-0.253-0.625-0.367c-0.192-0.112-0.411-0.219-0.654-0.318c-0.288-0.17-0.657-0.331-1.105-0.488     c-0.448-0.155-0.845-0.159-1.187-0.017c-0.485,0.018-1.01,0.271-1.577,0.758c-0.567,0.489-1.003,0.922-1.312,1.301     c-0.171,0.29-0.333,0.55-0.491,0.78c-0.157,0.232-0.347,0.39-0.568,0.476l-1.809,3.08c0.083,0.005,0.233,0.083,0.447,0.229     c0.215,0.15,0.355,0.241,0.419,0.278c0.739,0.435,1.467,0.904,2.183,1.409c0.716,0.508,1.388,0.925,2.017,1.248l2.27,1.203     c0.066,0.037,0.192,0.112,0.386,0.227c0.192,0.112,0.401,0.236,0.625,0.367c0.224,0.131,0.425,0.25,0.602,0.353     c0.175,0.103,0.297,0.173,0.361,0.213c0.291-0.349,0.555-0.688,0.793-1.024C146.302,123.631,146.542,123.298,146.779,122.962z"/>
			<path style="fill:#792760;" d="M149.053,74.157c0.274,0.428,0.648,0.791,1.123,1.093c0.475,0.302,0.913,0.62,1.31,0.957     c-0.096,0.112-0.232,0.349-0.414,0.709c-0.18,0.358-0.365,0.678-0.55,0.957c-0.096,0.114-0.212,0.238-0.346,0.366     c-0.134,0.132-0.221,0.251-0.265,0.361l-0.513,0.954l-2.011,2.391c-0.476,0.623-0.916,1.163-1.327,1.621     c-0.408,0.458-0.865,0.984-1.369,1.582c-0.096,0.114-0.219,0.291-0.37,0.527c-0.151,0.239-0.277,0.387-0.378,0.448     c0.142,0.121,0.244,0.23,0.306,0.331c0.059,0.101,0.162,0.211,0.306,0.331c0.107,0.043,0.339,0.201,0.693,0.474     c0.354,0.273,0.744,0.577,1.168,0.91c0.424,0.333,0.814,0.636,1.168,0.91s0.572,0.446,0.659,0.517l1.922,1.618     c0.226,0.192,0.417,0.341,0.572,0.446c0.155,0.106,0.384,0.237,0.688,0.395l2.084-2.476c0.382-0.455,0.756-0.87,1.12-1.245     s0.749-0.805,1.157-1.289c0.215-0.256,0.486-0.549,0.816-0.881c0.327-0.332,0.546-0.621,0.658-0.87     c0.279,0.188,0.574,0.387,0.883,0.597c0.308,0.213,0.576,0.413,0.804,0.605l0.683,0.574c-0.096,0.114-0.26,0.339-0.495,0.675     c-0.236,0.338-0.446,0.646-0.634,0.927l-1.508,1.793c-0.394,0.642-0.795,1.205-1.202,1.687c-0.407,0.486-0.863,1.025-1.364,1.624     c-0.096,0.114-0.203,0.269-0.317,0.464c-0.114,0.194-0.224,0.323-0.323,0.383l1.579,1.329c0.4,0.336,0.816,0.678,1.255,1.022     s0.852,0.607,1.236,0.783c0.514,0.432,0.996,0.827,1.45,1.182c0.453,0.358,0.864,0.693,1.234,1.004l0.727,0.609     c0.018-0.08,0.182-0.246,0.491-0.496c0.309-0.252,0.67-0.566,1.087-0.945c0.418-0.379,0.765-0.706,1.044-0.981     c0.281-0.275,0.572-0.506,0.871-0.689c0.178-0.096,0.471-0.37,0.879-0.828c0.411-0.458,0.675-0.758,0.794-0.901     c0.684-0.639,1.329-1.289,1.931-1.949c0.604-0.658,1.234-1.319,1.888-1.983l1.295-1.537c0.094-0.114,0.18-0.259,0.259-0.44     c0.077-0.176,0.138-0.294,0.186-0.351c0.633,0.289,1.196,0.629,1.694,1.022c0.496,0.395,0.984,0.793,1.469,1.201     c-0.051,0.347-0.217,0.692-0.505,1.033c-0.288,0.343-0.548,0.682-0.784,1.018c-0.167,0.201-0.363,0.401-0.582,0.606     c-0.22,0.203-0.424,0.42-0.617,0.646c-0.451,0.594-1.02,1.27-1.707,2.03c-0.688,0.757-1.243,1.445-1.665,2.064l-0.538,0.641     c-0.322,0.265-0.728,0.662-1.225,1.193c-0.494,0.531-0.864,0.94-1.102,1.226c-0.293,0.288-0.705,0.791-1.237,1.511     s-1.455,1.889-2.766,3.506c-0.048,0.057-0.21,0.249-0.485,0.577c-0.277,0.328-0.568,0.69-0.878,1.086     c-0.308,0.396-0.595,0.763-0.855,1.102c-0.262,0.339-0.416,0.538-0.464,0.596c-0.598-0.503-1.212-0.957-1.84-1.366     c-0.63-0.409-1.187-0.816-1.671-1.224c-0.283-0.24-0.625-0.5-1.018-0.784c-0.393-0.281-0.697-0.56-0.904-0.834     c-0.863-0.821-1.741-1.598-2.637-2.326c-0.893-0.729-1.796-1.475-2.708-2.242c-0.199-0.167-0.568-0.452-1.102-0.857     c-0.537-0.403-1.021-0.808-1.453-1.222l-1.397-1.028c-0.222-0.137-0.567-0.465-1.034-0.981c-0.467-0.514-0.912-0.924-1.334-1.23     c-0.678-0.522-1.279-0.979-1.8-1.371c-0.522-0.389-1.137-0.858-1.845-1.405c-0.621-0.474-1.207-0.979-1.753-1.513     c-0.547-0.532-1.091-1.027-1.632-1.482c-0.144-0.121-0.258-0.228-0.345-0.328c-0.088-0.097-0.129-0.265-0.122-0.505l1.917-2.105     c0.387-0.404,0.801-0.895,1.24-1.474c0.437-0.579,0.851-1.07,1.238-1.474c0.096-0.114,0.179-0.227,0.249-0.337     c0.07-0.111,0.153-0.226,0.249-0.34c0.071-0.085,0.226-0.268,0.467-0.554c0.238-0.286,0.49-0.584,0.755-0.896     c0.263-0.313,0.501-0.598,0.718-0.854c0.215-0.256,0.36-0.401,0.438-0.435c0.075-0.032,0.247-0.178,0.515-0.441     c0.268-0.26,0.463-0.46,0.582-0.604c0.071-0.085,0.172-0.218,0.302-0.403c0.129-0.181,0.272-0.365,0.427-0.551     c0.156-0.184,0.307-0.364,0.451-0.533c0.144-0.171,0.252-0.3,0.323-0.385c0.32-0.265,0.588-0.538,0.8-0.823     c0.214-0.282,0.467-0.567,0.758-0.857c0.025-0.027,0.157-0.171,0.399-0.43c0.243-0.257,0.521-0.545,0.837-0.865     c0.316-0.317,0.595-0.604,0.837-0.863S149.027,74.187,149.053,74.157z"/>
			<path style="fill:#792760;" d="M197.104,75.712c-0.159,0.101-0.308,0.174-0.454,0.223c-0.125,0.082-0.248,0.15-0.366,0.204     c-0.122,0.054-0.211,0.101-0.274,0.142c-0.293,0.231-0.542,0.413-0.746,0.545c-0.204,0.13-0.409,0.24-0.615,0.33     c-0.209,0.088-0.428,0.162-0.655,0.221c-0.229,0.057-0.524,0.113-0.884,0.169c-0.302,0.017-0.606,0.092-0.919,0.224     c-0.311,0.134-0.627,0.194-0.946,0.18c-0.557-0.041-1.128-0.017-1.712,0.071c-0.586,0.087-1.155,0.11-1.712,0.071     c-0.104-0.024-0.225-0.044-0.371-0.06c-0.143-0.019-0.277-0.054-0.4-0.109c-0.456-0.018-0.88-0.043-1.276-0.075     c-0.396-0.031-0.797-0.118-1.195-0.26c-0.206-0.043-0.541-0.172-1.009-0.38c-0.466-0.21-0.946-0.443-1.442-0.7     c-0.497-0.255-0.952-0.515-1.365-0.782c-0.413-0.265-0.669-0.473-0.77-0.632c-0.303-0.468-0.687-0.863-1.157-1.18     c-0.468-0.317-0.854-0.712-1.157-1.18c-0.018-0.031-0.109-0.172-0.27-0.423c-0.161-0.251-0.358-0.555-0.589-0.916     c-0.231-0.36-0.488-0.759-0.77-1.198c-0.28-0.436-0.542-0.844-0.782-1.22c-0.271-0.491-0.495-0.91-0.676-1.257     c-0.181-0.35-0.265-0.549-0.252-0.601c-0.621-1.722-1.129-3.32-1.522-4.794c-0.393-1.471-0.458-3-0.194-4.585     c-0.091-0.691,0.06-1.318,0.45-1.88c0.247-0.512,0.472-1.023,0.677-1.53c0.205-0.505,0.446-1.026,0.724-1.559     c0.317-0.468,0.662-0.911,1.036-1.329c0.372-0.416,0.661-0.778,0.863-1.084c0.479-0.353,0.911-0.762,1.296-1.231     c0.385-0.468,0.797-0.842,1.235-1.125c0.376-0.241,0.819-0.514,1.328-0.822c0.512-0.306,1.006-0.5,1.481-0.585     c0.54-0.259,1.127-0.469,1.753-0.629c0.626-0.159,1.244-0.214,1.853-0.162c0.287,0.035,0.545,0.025,0.774-0.033     c0.227-0.059,0.441-0.105,0.636-0.144l0.482,0.75c0.101,0.157,0.229,0.341,0.387,0.548c0.156,0.211,0.274,0.377,0.354,0.503     c0.163,0.251,0.251,0.459,0.268,0.624c-0.021,0.104,0.003,0.21,0.073,0.319c0.07,0.11,0.074,0.184,0.011,0.223l-0.094,0.062     c-0.094,0.06-0.217,0.072-0.373,0.038c-0.216,0.009-0.408,0.054-0.575,0.139c-0.167,0.085-0.322,0.151-0.466,0.2     c-0.209,0.09-0.39,0.151-0.546,0.184c-0.154,0.033-0.359,0.13-0.607,0.291c-0.159,0.101-0.329,0.212-0.517,0.331     c-0.188,0.122-0.366,0.259-0.533,0.409c-0.23,0.194-0.562,0.417-0.995,0.673c-0.431,0.256-0.716,0.45-0.852,0.581     c-0.201,0.173-0.349,0.336-0.451,0.487c-0.1,0.156-0.193,0.303-0.277,0.446c-0.181,0.338-0.341,0.64-0.48,0.905     c-0.139,0.265-0.284,0.559-0.433,0.874c-0.314,0.955-0.539,1.918-0.668,2.884c-0.167,1.391-0.163,2.637,0.015,3.738     c0.176,1.103,0.638,2.234,1.382,3.391l1.839,2.863l3.433,2.97c0.304,0.335,0.657,0.573,1.057,0.713     c0.398,0.142,0.778,0.318,1.136,0.531c0.872,0.191,1.617,0.298,2.229,0.324c0.615,0.026,1.24,0.054,1.881,0.086     c0.331-0.035,0.703-0.108,1.117-0.221c0.415-0.111,0.797-0.168,1.148-0.174c0.188-0.122,0.461-0.229,0.818-0.326     c0.357-0.098,0.943-0.407,1.758-0.93l1.596-1.026c0.251-0.161,0.457-0.303,0.619-0.43s0.27-0.317,0.326-0.577l0.235-0.15     l2.384,1.852c-0.181,0.338-0.358,0.63-0.534,0.874c-0.175,0.244-0.363,0.519-0.565,0.825c-0.388,0.426-0.745,0.801-1.071,1.12     c-0.324,0.319-0.656,0.697-0.993,1.136L197.104,75.712z"/>
			<path style="fill:#792760;" d="M201.568,56.379c-0.166-0.336-0.28-0.67-0.345-1.004c-0.064-0.332-0.154-0.656-0.27-0.971     c-0.208-0.556-0.417-1.086-0.622-1.585c-0.206-0.499-0.412-1.027-0.62-1.585l-0.916-2.458c-0.063-0.173-0.141-0.353-0.23-0.539     c-0.089-0.185-0.183-0.359-0.283-0.52l-1.81-4.864c-0.123-0.43-0.304-0.948-0.549-1.551c-0.245-0.603-0.4-0.993-0.466-1.168     c-0.037-0.104-0.095-0.202-0.168-0.295c-0.075-0.09-0.107-0.177-0.097-0.261c0.173-0.063,0.349-0.15,0.529-0.257     c0.176-0.105,0.423-0.217,0.738-0.334c0.265-0.138,0.532-0.276,0.798-0.417c0.267-0.138,0.574-0.273,0.922-0.403l2.354-0.876     c0.279-0.103,0.527-0.185,0.741-0.246c0.216-0.059,0.511-0.12,0.887-0.18c0.047,0.021,0.089,0.025,0.124,0.014     c0.047,0.021,0.157,0,0.332-0.066c0.185-0.148,0.482-0.278,0.897-0.393c0.413-0.113,0.836-0.232,1.267-0.353     c0.293-0.069,0.58-0.098,0.863-0.082c0.281,0.013,0.511-0.013,0.686-0.078c0.069-0.026,0.265-0.029,0.59-0.012     c0.325,0.019,0.673,0.048,1.044,0.088c0.374,0.041,0.713,0.073,1.02,0.096c0.307,0.025,0.518,0.035,0.636,0.031     c0.517,0.007,1.026,0.066,1.526,0.177c0.498,0.113,0.91,0.286,1.235,0.521c0.391,0.094,0.718,0.279,0.983,0.557     c0.262,0.281,0.55,0.521,0.863,0.721c0.158,0.1,0.292,0.249,0.404,0.446c0.112,0.196,0.272,0.355,0.477,0.477     c0.264,0.18,0.527,0.488,0.792,0.926c0.26,0.44,0.497,0.916,0.711,1.433c0.211,0.517,0.4,1.052,0.569,1.605     c0.166,0.554,0.309,1.047,0.43,1.477c0.06,0.376,0.112,0.723,0.152,1.045c0.04,0.322,0.098,0.689,0.172,1.098     c0.03,0.187,0.021,0.409-0.021,0.663c-0.045,0.254-0.069,0.482-0.074,0.683c-0.032,0.767-0.244,1.58-0.638,2.44l-0.276,0.699     c-0.114,0.122-0.204,0.254-0.271,0.398c-0.064,0.144-0.149,0.293-0.249,0.451c-0.11,0.24-0.258,0.453-0.444,0.642     c-0.188,0.189-0.337,0.404-0.446,0.642c-0.489,0.182-0.866,0.423-1.132,0.72c-0.267,0.297-0.633,0.454-1.105,0.47     c-0.348,0.131-0.647,0.292-0.892,0.481c-0.248,0.191-0.509,0.338-0.788,0.443l-0.314,0.117c0.065,0.175,0.367,0.398,0.906,0.675     c0.539,0.276,0.961,0.557,1.266,0.839c0.382,0.176,0.729,0.334,1.04,0.475c0.311,0.143,0.664,0.32,1.06,0.53     c0.608,0.248,1.067,0.465,1.374,0.649c0.305,0.184,0.764,0.401,1.372,0.649c0.276,0.098,0.655,0.344,1.139,0.738     c0.482,0.396,0.864,0.64,1.137,0.736c0.325,0.237,0.535,0.398,0.625,0.483c0.093,0.084,0.233,0.173,0.424,0.259     c0.421,0.28,0.774,0.536,1.06,0.768c0.284,0.231,0.583,0.446,0.896,0.648c-0.058,0.378-0.181,0.792-0.371,1.239     c-0.192,0.449-0.478,0.903-0.863,1.364c-0.108-0.078-0.25-0.136-0.421-0.171c-0.171-0.035-0.319-0.108-0.439-0.222     c-0.096-0.045-0.411-0.166-0.94-0.364c-0.531-0.2-0.995-0.405-1.391-0.615c-0.266-0.178-0.672-0.395-1.224-0.645     c-0.549-0.253-1.147-0.496-1.79-0.733c-0.646-0.237-1.24-0.502-1.786-0.794c-0.545-0.294-0.969-0.522-1.268-0.689     c-0.144-0.067-0.38-0.167-0.709-0.302c-0.329-0.135-0.673-0.264-1.037-0.387s-0.708-0.252-1.037-0.389     c-0.329-0.135-0.565-0.236-0.709-0.302c-0.043,0.097-0.066,0.174-0.061,0.233c0,0.059-0.003,0.129-0.01,0.211     c-0.01,0.083-0.002,0.159,0.024,0.228c0.261,0.7,0.478,1.363,0.652,1.992c0.177,0.629,0.373,1.241,0.595,1.833     c0.117,0.314,0.226,0.64,0.333,0.978c0.105,0.338,0.237,0.714,0.393,1.133l0.682,1.832c-0.071,0.026-0.191,0.08-0.358,0.161     c-0.169,0.083-0.35,0.181-0.546,0.293c-0.358,0.213-0.722,0.378-1.095,0.497c-0.371,0.119-0.732,0.245-1.082,0.373     c-0.452,0.17-0.828,0.309-1.123,0.419c-0.297,0.111-0.61,0.147-0.941,0.112c-0.175,0.065-0.279,0.105-0.314,0.117     c-0.035,0.014-0.171-0.035-0.411-0.145l-1.486-4.15l-0.149-0.72l-0.727-1.633l-1.884-5.373c-0.097-0.48-0.195-0.822-0.29-1.024     C201.704,57.041,201.628,56.752,201.568,56.379z M208.388,46.871c-0.088-0.444-0.21-0.886-0.372-1.322     c-0.162-0.434-0.326-0.82-0.49-1.156c-0.079-0.208-0.201-0.322-0.367-0.339c-0.169-0.135-0.31-0.222-0.422-0.261     c-0.114-0.035-0.235-0.07-0.367-0.102c-0.321-0.117-0.643-0.186-0.968-0.203c-0.325-0.019-0.639-0.012-0.944,0.022     c-0.106,0.04-0.167,0.142-0.184,0.307c-0.01,0.083-0.005,0.142,0.006,0.177l1.986,5.333l0.89-0.33     c0.11-0.24,0.247-0.401,0.416-0.484c0.167-0.081,0.289-0.236,0.363-0.462c0.145-0.252,0.262-0.444,0.352-0.578     C208.374,47.342,208.408,47.141,208.388,46.871z"/>
			<path style="fill:#792760;" d="M244.959,28.632c-0.089,0.499-0.061,1.019,0.084,1.564c0.143,0.545,0.247,1.075,0.312,1.593     c-0.147,0.018-0.41,0.098-0.784,0.238c-0.377,0.143-0.728,0.251-1.056,0.33c-0.149,0.018-0.316,0.031-0.501,0.035     c-0.188,0.004-0.333,0.033-0.44,0.083l-1.024,0.353l-3.102,0.389c-0.769,0.136-1.461,0.232-2.072,0.289     c-0.611,0.059-1.304,0.135-2.081,0.234c-0.147,0.018-0.356,0.065-0.63,0.135c-0.271,0.072-0.466,0.096-0.581,0.074     c0.023,0.184,0.024,0.335,0,0.45c-0.022,0.115-0.023,0.265,0,0.45c0.05,0.107,0.114,0.38,0.189,0.819     c0.072,0.442,0.152,0.929,0.238,1.461c0.086,0.534,0.166,1.019,0.24,1.461c0.075,0.439,0.119,0.716,0.132,0.826l0.314,2.492     c0.037,0.296,0.075,0.536,0.116,0.716c0.043,0.183,0.121,0.435,0.237,0.758l3.212-0.404c0.59-0.073,1.146-0.124,1.667-0.152     c0.523-0.028,1.097-0.082,1.724-0.16c0.331-0.042,0.73-0.072,1.198-0.096c0.466-0.019,0.822-0.084,1.073-0.19     c0.077,0.328,0.16,0.674,0.242,1.038c0.084,0.366,0.146,0.695,0.182,0.989l0.11,0.886c-0.147,0.018-0.422,0.073-0.823,0.16     c-0.403,0.087-0.766,0.171-1.095,0.25l-2.325,0.292c-0.724,0.203-1.399,0.343-2.027,0.424c-0.627,0.078-1.329,0.167-2.104,0.264     c-0.149,0.018-0.33,0.061-0.546,0.125c-0.219,0.064-0.383,0.086-0.5,0.061l0.259,2.049c0.063,0.518,0.141,1.051,0.228,1.602     c0.088,0.551,0.214,1.023,0.375,1.416c0.083,0.665,0.169,1.281,0.26,1.85c0.089,0.571,0.165,1.096,0.225,1.576l0.119,0.941     c0.069-0.045,0.303-0.056,0.7-0.032c0.396,0.026,0.876,0.04,1.439,0.045c0.563,0.004,1.041,0.001,1.433-0.012     c0.393-0.011,0.761,0.016,1.108,0.086c0.194,0.051,0.596,0.047,1.208-0.012c0.611-0.057,1.01-0.099,1.194-0.122     c0.937-0.005,1.851-0.044,2.74-0.119c0.891-0.075,1.802-0.131,2.735-0.174l1.992-0.251c0.147-0.018,0.31-0.069,0.488-0.147     s0.304-0.121,0.378-0.132c0.268,0.641,0.451,1.275,0.547,1.901c0.098,0.626,0.185,1.251,0.266,1.879     c-0.273,0.221-0.63,0.36-1.073,0.415c-0.443,0.057-0.865,0.128-1.268,0.215c-0.259,0.034-0.537,0.049-0.836,0.051     c-0.301-0.001-0.599,0.018-0.893,0.055c-0.736,0.129-1.612,0.239-2.63,0.331c-1.021,0.092-1.895,0.219-2.624,0.385l-0.831,0.105     c-0.416-0.025-0.984-0.007-1.709,0.045c-0.725,0.053-1.272,0.104-1.641,0.151c-0.411,0.013-1.056,0.103-1.934,0.27     c-0.88,0.167-2.351,0.398-4.413,0.696c-0.075,0.008-0.325,0.04-0.748,0.093c-0.426,0.053-0.884,0.121-1.381,0.202     s-0.956,0.157-1.378,0.228c-0.422,0.071-0.67,0.114-0.743,0.122c-0.099-0.774-0.24-1.524-0.424-2.252     c-0.186-0.728-0.317-1.405-0.397-2.032c-0.045-0.368-0.118-0.79-0.215-1.266c-0.097-0.475-0.13-0.885-0.097-1.226     c-0.074-1.19-0.193-2.356-0.356-3.498c-0.161-1.141-0.317-2.304-0.466-3.485c-0.031-0.259-0.11-0.718-0.228-1.378     c-0.121-0.66-0.199-1.287-0.237-1.882l-0.327-1.702c-0.069-0.254-0.101-0.729-0.094-1.423c0.005-0.694-0.042-1.298-0.144-1.811     c-0.142-0.844-0.275-1.587-0.392-2.229c-0.117-0.64-0.251-1.402-0.399-2.284c-0.136-0.771-0.222-1.537-0.263-2.302     c-0.038-0.763-0.102-1.495-0.19-2.197c-0.023-0.184-0.035-0.342-0.032-0.475c0.003-0.131,0.085-0.281,0.253-0.453l2.836-0.244     c0.558-0.033,1.196-0.111,1.911-0.241c0.714-0.125,1.353-0.205,1.911-0.238c0.147-0.018,0.283-0.046,0.411-0.08     c0.126-0.034,0.264-0.062,0.411-0.08c0.112-0.013,0.351-0.043,0.719-0.09c0.369-0.047,0.757-0.095,1.163-0.147     c0.406-0.05,0.777-0.097,1.108-0.138c0.333-0.042,0.537-0.049,0.616-0.022c0.077,0.029,0.304,0.038,0.678,0.028     c0.374-0.01,0.654-0.027,0.838-0.048c0.112-0.015,0.277-0.044,0.495-0.092c0.22-0.046,0.449-0.083,0.69-0.113     c0.239-0.03,0.469-0.06,0.691-0.087c0.222-0.029,0.388-0.05,0.498-0.064c0.416,0.025,0.797,0.005,1.146-0.058     c0.347-0.063,0.726-0.101,1.137-0.115c0.037-0.005,0.232-0.019,0.587-0.045c0.352-0.026,0.753-0.047,1.201-0.067     c0.446-0.018,0.846-0.042,1.199-0.067C244.727,28.654,244.921,28.637,244.959,28.632z"/>
			<path style="fill:#792760;" d="M255.685,52.527c0.337-0.712,0.688-1.414,1.042-2.103c0.356-0.691,0.704-1.392,1.044-2.103     c0.246-0.536,0.545-1.064,0.904-1.587c0.356-0.521,0.669-0.994,0.939-1.413c0.255-0.608,0.503-1.096,0.751-1.462     c0.246-0.366,0.392-0.603,0.442-0.708c0.007-0.074,0.11-0.251,0.311-0.529c0.198-0.276,0.443-0.736,0.739-1.377     c0.148-0.322,0.287-0.661,0.419-1.021c0.134-0.359,0.291-0.698,0.476-1.016l1.684-3.072c0.192-0.39,0.328-0.684,0.405-0.882     c0.077-0.196,0.143-0.368,0.197-0.512c0.051-0.142,0.108-0.306,0.165-0.487c0.055-0.181,0.199-0.464,0.43-0.852     c0.229-0.386,0.427-0.756,0.597-1.112c0.169-0.356,0.369-0.726,0.6-1.114c0.098-0.215,0.195-0.427,0.293-0.641     c0.098-0.215,0.195-0.427,0.295-0.641c0.142-0.283,0.263-0.533,0.363-0.746c0.098-0.215,0.199-0.466,0.306-0.752     c0.081-0.067,0.148-0.162,0.199-0.287c0.051-0.127,0.142-0.274,0.273-0.448c0.238-0.124,0.433-0.186,0.584-0.189     c0.149-0.003,0.299,0.005,0.447,0.019l2.552,0.28c0.057,0.155,0.078,0.298,0.064,0.428c-0.014,0.13,0.007,0.273,0.066,0.428     l0.131,0.856l0.118,0.461l0.422,1.787l0.69,2.939l0.311,0.763c0.064,0.083,0.121,0.247,0.171,0.496     c0.047,0.251,0.124,0.568,0.232,0.952c0.131,0.501,0.267,1.069,0.404,1.701s0.266,1.255,0.386,1.866     c0.157,0.953,0.296,1.66,0.414,2.123c0.118,0.461,0.243,0.944,0.376,1.444c0.094,0.161,0.149,0.335,0.168,0.524     c0.015,0.188,0.051,0.38,0.105,0.572l0.474,2.354l0.724,2.1c0.074,0.346,0.159,0.683,0.254,1.01     c0.096,0.329,0.219,0.652,0.373,0.968c0.215,0.772,0.38,1.473,0.5,2.102c0.118,0.631,0.285,1.334,0.499,2.104     c0.111,0.349,0.236,0.681,0.37,0.994c0.134,0.315,0.239,0.644,0.313,0.99c0.054,0.192,0.107,0.386,0.161,0.578     c0.054,0.194,0.107,0.386,0.161,0.578c0.148,0.353,0.267,0.713,0.36,1.079c0.091,0.366,0.206,0.761,0.347,1.188     c0.05,0.231,0.117,0.463,0.205,0.696c0.087,0.235,0.138,0.446,0.157,0.635c-0.187-0.02-0.369-0.06-0.55-0.115     c-0.181-0.057-0.346-0.094-0.493-0.111l-0.943-0.102c-0.333-0.037-0.629-0.061-0.89-0.069c-0.262-0.01-0.484-0.025-0.668-0.045     c-0.137-0.464-0.357-0.928-0.662-1.392c-0.305-0.464-0.609-1.03-0.908-1.699c-0.056-0.192-0.11-0.367-0.168-0.524     c-0.06-0.155-0.117-0.312-0.174-0.467c-0.05-0.231-0.229-0.568-0.535-1.014c-0.308-0.444-0.468-0.78-0.481-1.005     c-0.259-0.366-0.442-0.657-0.549-0.875c-0.107-0.216-0.243-0.429-0.408-0.634c-0.148-0.017-0.332-0.046-0.553-0.089     c-0.219-0.041-0.42-0.093-0.601-0.15c-0.216-0.061-0.457-0.105-0.715-0.135l-1.33-0.145c-0.185-0.02-0.381-0.032-0.586-0.036     c-0.205-0.004-0.512-0.018-0.922-0.044c-0.409-0.025-0.967-0.068-1.67-0.126c-0.705-0.058-1.649-0.151-2.831-0.282l-0.389-0.041     c-0.298-0.033-0.529-0.029-0.703,0.008c-0.172,0.037-0.401-0.015-0.684-0.16c-0.104-0.085-0.37-0.134-0.798-0.144     c-0.43-0.008-0.723-0.002-0.874,0.019l-0.726-0.024l-0.319,0.359c-0.1,0.212-0.256,0.457-0.474,0.733     c-0.218,0.278-0.434,0.553-0.652,0.828c-0.218,0.275-0.425,0.551-0.624,0.829s-0.345,0.506-0.439,0.682l-0.498,0.957l-1.664,2.4     c-0.09,0.138-0.211,0.201-0.359,0.185c-0.148-0.014-0.262,0.01-0.343,0.076l-2.83-0.31c-0.131-0.164-0.195-0.265-0.191-0.3     c0.004-0.039,0.091-0.141,0.259-0.309c0.017-0.15,0.095-0.357,0.236-0.622c0.141-0.265,0.219-0.47,0.236-0.62     c0.218-0.275,0.408-0.563,0.572-0.862c0.162-0.302,0.335-0.592,0.516-0.871L255.685,52.527z M268.835,40.039     c-0.194,0.054-0.333,0.133-0.417,0.235c-0.087,0.104-0.175,0.225-0.265,0.365c-0.205,0.501-0.455,0.989-0.748,1.462     c-0.296,0.473-0.583,0.955-0.861,1.449c-0.225,0.349-0.447,0.673-0.666,0.965c-0.219,0.295-0.423,0.619-0.612,0.972     c-0.414,0.704-0.825,1.398-1.237,2.083c-0.411,0.685-0.86,1.357-1.342,2.015l0.333,0.035c0.296,0.033,0.56,0.081,0.798,0.144     c0.236,0.064,0.488,0.073,0.754,0.027c0.231-0.05,0.445-0.046,0.646,0.014c0.199,0.058,0.391,0.098,0.576,0.118     c0.628,0.068,1.276,0.13,1.944,0.184c0.668,0.054,1.404,0.163,2.21,0.325c0.403,0.081,0.781,0.122,1.137,0.125     c0.356,0.001,0.717,0.021,1.089,0.062l0.498,0.054c-0.02-0.151-0.053-0.277-0.099-0.375c-0.044-0.098-0.099-0.207-0.16-0.327     c-0.117-0.312-0.246-0.588-0.387-0.827c-0.143-0.241-0.25-0.534-0.326-0.877l-1.516-4.097c-0.056-0.192-0.103-0.441-0.144-0.746     L268.835,40.039z"/>
			<path style="fill:#792760;" d="M296.267,67.831c-0.071-0.02-0.201-0.041-0.391-0.057c-0.189-0.018-0.374-0.043-0.558-0.078     s-0.34-0.061-0.471-0.081c-0.13-0.018-0.178-0.022-0.141-0.012l-2.622-0.776c-0.55-0.24-1.01-0.423-1.38-0.553     c-0.368-0.128-0.701-0.217-0.996-0.265c-0.073-0.02-0.135-0.069-0.191-0.143c-0.056-0.076-0.097-0.137-0.122-0.182     c0.059-0.332,0.193-0.816,0.401-1.454c0.208-0.636,0.365-1.132,0.47-1.49l0.221-0.749c0.25-0.586,0.43-1.125,0.536-1.617     c0.106-0.491,0.25-1.04,0.428-1.647l0.349-1.178c0.41-0.731,0.697-1.54,0.862-2.423c0.163-0.882,0.351-1.68,0.562-2.393     l4.035-13.647c0.105-0.356,0.07-0.563-0.109-0.615c-0.488-0.183-0.876-0.315-1.161-0.401c-0.287-0.085-0.683-0.181-1.194-0.295     c-0.214-0.063-0.563-0.225-1.049-0.484c-0.485-0.261-0.823-0.399-1.012-0.417c-0.199,0.018-0.566-0.09-1.096-0.324     c-0.532-0.234-0.889-0.379-1.066-0.432c-0.179-0.053-0.336-0.109-0.474-0.169c-0.137-0.06-0.262-0.165-0.372-0.313l0.979-3.317     c0.165-0.029,0.389-0.002,0.674,0.083c0.287,0.083,0.572,0.168,0.857,0.254c0.356,0.103,0.678,0.199,0.965,0.284     c0.285,0.085,0.558,0.146,0.818,0.184c0.071,0.02,0.314,0.113,0.734,0.275c0.417,0.162,0.761,0.302,1.038,0.422     c0.234-0.006,0.46,0.02,0.674,0.083c0.545,0.124,1.044,0.272,1.498,0.444c0.312,0.13,0.542,0.2,0.697,0.206     c0.153,0.006,0.371,0.051,0.656,0.137l0.857,0.251l1.414,0.535c0.356,0.105,0.715,0.202,1.078,0.29     c0.361,0.088,0.715,0.202,1.063,0.342c0.798,0.315,1.584,0.576,2.358,0.785c0.771,0.209,1.416,0.352,1.94,0.426     c0.248,0.075,0.685,0.243,1.306,0.504c0.621,0.262,1.229,0.499,1.826,0.714c0.381,0.15,0.702,0.245,0.963,0.284     s0.474,0.101,0.643,0.191l-0.728,2.46c-0.043,0.142-0.053,0.238-0.026,0.283c0.024,0.047-0.041,0.204-0.197,0.466     c-0.077,0.132-0.245,0.172-0.498,0.114c-0.256-0.054-0.454-0.105-0.597-0.147c-0.971-0.131-1.834-0.326-2.59-0.589     c-0.756-0.263-1.491-0.501-2.204-0.712c-0.287-0.083-0.509-0.151-0.669-0.198c-0.162-0.046-0.355-0.084-0.579-0.112l-0.364,1.23     c-0.085,0.287-0.22,0.712-0.407,1.277c-0.186,0.567-0.327,1.009-0.422,1.331c-0.04,0.143-0.073,0.25-0.093,0.322     c-0.022,0.071-0.061,0.166-0.114,0.286c-0.057,0.12-0.136,0.289-0.24,0.51c-0.105,0.223-0.272,0.531-0.505,0.928     c-0.181,0.606-0.334,1.124-0.459,1.552s-0.235,0.823-0.321,1.186c-0.088,0.361-0.182,0.711-0.283,1.05     c-0.1,0.341-0.219,0.743-0.356,1.204l-0.158,0.535c-0.321,0.566-0.536,1.16-0.643,1.789c-0.109,0.627-0.253,1.243-0.432,1.85     L296.267,67.831z"/>
			<path style="fill:#792760;" d="M314.093,68.129c-0.027,0.069-0.08,0.2-0.155,0.389s-0.159,0.398-0.249,0.621     c-0.09,0.226-0.174,0.441-0.259,0.649c-0.082,0.206-0.143,0.361-0.186,0.467c-0.372,0.931-0.62,1.574-0.738,1.927     c-0.121,0.351-0.279,0.769-0.472,1.254c-0.041,0.103-0.14,0.174-0.294,0.211c-0.156,0.038-0.31,0.047-0.462,0.026l-3.317-1.322     l0.227-0.572l1.211-3.782c0.261-0.656,0.506-1.299,0.738-1.927c0.232-0.631,0.453-1.262,0.667-1.897l0.558-1.4     c0.193-0.484,0.365-0.966,0.519-1.445c0.152-0.481,0.358-0.949,0.62-1.406l0.703-1.763c0.249-0.621,0.484-1.237,0.709-1.85     c0.224-0.611,0.436-1.217,0.636-1.818c0.07-0.172,0.137-0.316,0.202-0.431c0.065-0.113,0.132-0.257,0.202-0.431     c0.29-0.724,0.542-1.385,0.76-1.979c0.217-0.594,0.441-1.177,0.668-1.747c0.227-0.57,0.464-1.165,0.713-1.789     c0.249-0.621,0.507-1.319,0.775-2.092l0.58-1.451c0.118-0.395,0.247-0.794,0.387-1.199c0.142-0.403,0.288-0.794,0.44-1.175     l0.063-0.157c0.053-0.138,0.119-0.251,0.197-0.342c0.047-0.02,0.257,0.003,0.632,0.072c0.184,0.035,0.41,0.125,0.673,0.268     c0.214,0.165,0.497,0.31,0.85,0.43c0.351,0.121,0.736,0.264,1.151,0.429c0.344,0.138,0.616,0.286,0.812,0.446     c0.197,0.158,0.282,0.273,0.255,0.342l-3.229,8.083c-0.146,0.265-0.26,0.527-0.345,0.794c-0.087,0.265-0.204,0.529-0.347,0.792     c-0.187,0.368-0.347,0.744-0.48,1.13c-0.135,0.388-0.279,0.771-0.431,1.151l-0.351,0.881c-0.041,0.103-0.087,0.215-0.135,0.338     c-0.048,0.12-0.118,0.242-0.206,0.368c-0.063,0.054-0.131,0.178-0.206,0.368c-0.077,0.191-0.148,0.392-0.213,0.607     c-0.065,0.214-0.13,0.427-0.195,0.641c-0.067,0.216-0.114,0.358-0.141,0.427c-0.338,0.945-0.566,1.495-0.688,1.648     c-0.122,0.152-0.201,0.28-0.242,0.384c-0.23,0.469-0.412,0.958-0.554,1.461c-0.142,0.505-0.309,0.999-0.503,1.482     c-0.227,0.67-0.477,1.322-0.75,1.953C314.621,66.829,314.356,67.473,314.093,68.129z"/>
			<path style="fill:#792760;" d="M336.043,76.997c-0.151,0.134-0.339,0.299-0.565,0.498c-0.226,0.199-0.463,0.401-0.713,0.608     c-0.252,0.206-0.494,0.418-0.727,0.633s-0.401,0.382-0.502,0.496c-0.752,0.829-1.274,1.389-1.567,1.679     c-0.293,0.29-0.59,0.525-0.89,0.706c-0.067,0.05-0.227,0.157-0.475,0.322c-0.251,0.165-0.425,0.265-0.527,0.298     c-0.181-0.053-0.261-0.082-0.237-0.088c0.027-0.01-0.095-0.08-0.361-0.215c-0.165-0.085-0.389-0.157-0.673-0.216     c-0.282-0.059-0.589-0.173-0.921-0.341c-0.133-0.066-0.316-0.18-0.548-0.338c-0.232-0.16-0.482-0.307-0.747-0.441     c-0.133-0.066-0.207-0.126-0.223-0.174c-0.018-0.051-0.092-0.111-0.225-0.177c-0.15-0.117-0.349-0.238-0.597-0.364     c-0.248-0.127-0.456-0.232-0.623-0.317c-0.266-0.132-0.486-0.255-0.658-0.364c-0.175-0.109-0.395-0.231-0.66-0.364     c-0.099-0.218-0.135-0.413-0.111-0.587c0.026-0.176,0.015-0.379-0.033-0.613c0.168-0.666,0.283-1.284,0.345-1.858     c0.059-0.574,0.1-1.168,0.119-1.783c-0.032-0.351-0.033-0.676-0.006-0.974c0.025-0.3,0.072-0.515,0.139-0.65     c-0.017,0.034-0.025-0.095-0.022-0.385c0-0.293,0.01-0.537,0.028-0.737c0.034-0.483,0.137-1.222,0.308-2.219     c0.172-0.998,0.257-1.913,0.263-2.745c0.053-0.681,0.132-1.436,0.233-2.257c0.104-0.823,0.166-1.585,0.186-2.283l0.593-4.391     c0.017-0.281,0.007-0.528-0.033-0.735c-0.042-0.209-0.037-0.447,0.014-0.713c0.033-0.232,0.064-0.478,0.092-0.734     c0.025-0.259,0.079-0.471,0.164-0.635c-0.066-0.201-0.053-0.434,0.04-0.699c0.093-0.267,0.107-0.498,0.04-0.699     c0.153-0.632,0.276-1.205,0.37-1.719c0.094-0.516,0.159-1.015,0.195-1.497c0.085-0.499,0.132-0.925,0.143-1.274     c0.009-0.349,0.039-0.739,0.091-1.173c0.035-0.064,0.076-0.148,0.127-0.248c0.05-0.098,0.173-0.14,0.374-0.123     c0.334,0.002,0.634-0.013,0.899-0.046c0.268-0.031,0.574-0.063,0.925-0.095c0.332,0.002,0.731,0.017,1.197,0.044     c0.466,0.027,0.908-0.044,1.324-0.206c0.25-0.082,0.491-0.105,0.723-0.072c0.232,0.035,0.45,0.061,0.65,0.077     c0.215-0.016,0.329-0.031,0.336-0.048c0.009-0.015,0.095,0.017,0.262,0.102l0.048,0.275l0.066,1.847     c0.016,0.217-0.014,0.587-0.091,1.11c-0.079,0.523-0.143,1.001-0.195,1.433l-0.389,3.118c-0.001,0.085-0.025,0.364-0.078,0.837     c-0.051,0.474-0.138,1.077-0.258,1.808l-0.458,2.019l-0.083,1.647c-0.002,0.332-0.052,0.681-0.154,1.046     c-0.102,0.367-0.169,0.707-0.203,1.023c-0.02,0.449-0.08,0.816-0.18,1.098c-0.103,0.282-0.17,0.498-0.204,0.647     c-0.223,1.43-0.416,2.865-0.581,4.304s-0.166,2.947-0.007,4.529c0.066-0.133,0.158-0.19,0.275-0.175     c0.115,0.018,0.207-0.04,0.275-0.173c0.433-0.531,0.938-0.953,1.516-1.267c0.573-0.312,1.129-0.793,1.664-1.44     c0.084-0.082,0.201-0.232,0.353-0.447c0.148-0.215,0.282-0.358,0.401-0.423c0.384-0.265,0.724-0.612,1.027-1.043     c0.303-0.431,0.76-0.805,1.379-1.117l1.302-1.216c0.452-0.397,0.827-0.73,1.128-0.993c0.301-0.266,0.593-0.556,0.878-0.87     c0.3-0.183,0.582-0.434,0.852-0.757c0.266-0.324,0.542-0.643,0.827-0.957c0.218-0.267,0.454-0.511,0.714-0.734     c0.26-0.221,0.489-0.45,0.69-0.683c0.182-0.198,0.354-0.351,0.513-0.458c0.159-0.11,0.329-0.262,0.513-0.46     c0.168-0.166,0.364-0.326,0.588-0.484c0.227-0.157,0.396-0.31,0.516-0.46l1.453-1.391c0.183-0.115,0.355-0.309,0.514-0.583     c0.159-0.273,0.347-0.46,0.565-0.559c0.3-0.183,0.511-0.356,0.638-0.521c0.124-0.165,0.338-0.382,0.641-0.648     c0.033-0.064,0.115-0.107,0.249-0.124c0.049-0.016,0.107-0.007,0.174,0.026l0.597,0.302c0.298,0.483,0.555,0.823,0.771,1.014     s0.488,0.538,0.818,1.04c0.248,0.25,0.53,0.579,0.844,0.989s0.562,0.764,0.745,1.064l0.272,0.825     c-0.068,0.133-0.178,0.246-0.327,0.337c-0.15,0.09-0.266,0.219-0.351,0.384c-0.316,0.215-0.606,0.435-0.864,0.659     c-0.26,0.224-0.581,0.51-0.965,0.856l-1.076,1.019c-0.387,0.513-0.875,0.944-1.467,1.29c-0.592,0.348-0.98,0.621-1.165,0.819     c-0.386,0.43-0.823,0.802-1.316,1.117c-0.492,0.313-1.023,0.703-1.588,1.166c-0.335,0.249-0.682,0.583-1.041,1.005     c-0.361,0.423-0.674,0.734-0.94,0.933c-0.302,0.18-0.539,0.383-0.715,0.608c-0.175,0.225-0.397,0.393-0.664,0.509     c-0.116,0.065-0.289,0.24-0.513,0.522c-0.227,0.282-0.414,0.488-0.563,0.62c-0.067,0.05-0.223,0.17-0.464,0.36     c-0.243,0.191-0.497,0.428-0.765,0.708c-0.334,0.332-0.619,0.605-0.852,0.821s-0.385,0.348-0.45,0.397L336.043,76.997z"/>
			<path style="fill:#792760;" d="M378.613,74.128c-0.386,0.328-0.699,0.746-0.937,1.254c-0.238,0.51-0.499,0.985-0.78,1.424     c-0.126-0.081-0.377-0.187-0.756-0.32c-0.379-0.133-0.721-0.272-1.023-0.424c-0.124-0.079-0.262-0.178-0.408-0.295     c-0.146-0.115-0.277-0.188-0.389-0.216l-1.013-0.386l-2.631-1.686c-0.679-0.391-1.27-0.758-1.778-1.106     c-0.506-0.347-1.087-0.732-1.745-1.155c-0.126-0.079-0.316-0.178-0.571-0.299c-0.253-0.119-0.419-0.224-0.492-0.316     c-0.1,0.158-0.196,0.272-0.288,0.347c-0.092,0.073-0.188,0.189-0.288,0.345c-0.028,0.115-0.156,0.363-0.38,0.749     c-0.227,0.386-0.477,0.811-0.752,1.276c-0.275,0.463-0.525,0.888-0.75,1.274c-0.227,0.386-0.369,0.625-0.429,0.719l-1.356,2.113     c-0.16,0.251-0.284,0.461-0.367,0.628c-0.085,0.167-0.188,0.41-0.306,0.733l2.725,1.747c0.501,0.321,0.96,0.637,1.38,0.951     c0.418,0.313,0.892,0.639,1.425,0.981c0.283,0.181,0.608,0.412,0.982,0.695c0.371,0.283,0.685,0.463,0.946,0.541     c-0.151,0.302-0.31,0.619-0.48,0.953c-0.17,0.334-0.334,0.625-0.494,0.876l-0.483,0.752c-0.126-0.081-0.369-0.215-0.733-0.406     c-0.366-0.189-0.7-0.359-1-0.508l-1.975-1.266c-0.687-0.308-1.296-0.633-1.827-0.974c-0.535-0.342-1.129-0.723-1.785-1.145     c-0.126-0.079-0.293-0.164-0.501-0.253c-0.208-0.089-0.349-0.179-0.422-0.272l-1.115,1.738c-0.281,0.439-0.565,0.897-0.85,1.377     c-0.287,0.48-0.492,0.922-0.619,1.327c-0.362,0.562-0.691,1.093-0.987,1.588s-0.574,0.947-0.834,1.354l-0.513,0.799     c0.083,0.008,0.269,0.15,0.558,0.423c0.289,0.273,0.647,0.593,1.076,0.956c0.429,0.364,0.799,0.666,1.109,0.909     c0.307,0.241,0.572,0.5,0.795,0.775c0.116,0.164,0.427,0.418,0.933,0.765s0.838,0.569,0.996,0.672     c0.721,0.595,1.449,1.15,2.182,1.663c0.731,0.515,1.468,1.054,2.21,1.618l1.691,1.085c0.126,0.081,0.28,0.146,0.468,0.201     c0.186,0.053,0.311,0.099,0.374,0.139c-0.205,0.664-0.472,1.268-0.797,1.812c-0.327,0.542-0.659,1.079-1.001,1.612     c-0.351-0.005-0.713-0.128-1.09-0.367c-0.375-0.242-0.746-0.457-1.11-0.648c-0.219-0.139-0.444-0.307-0.675-0.498     c-0.231-0.192-0.47-0.37-0.722-0.53c-0.645-0.37-1.388-0.848-2.23-1.431c-0.842-0.585-1.595-1.046-2.261-1.384l-0.705-0.451     c-0.306-0.285-0.753-0.638-1.343-1.06c-0.59-0.424-1.043-0.737-1.354-0.936c-0.326-0.253-0.879-0.595-1.661-1.031     c-0.78-0.434-2.058-1.199-3.832-2.292c-0.064-0.042-0.275-0.177-0.635-0.407c-0.36-0.232-0.757-0.475-1.19-0.731     c-0.431-0.255-0.832-0.491-1.204-0.706c-0.369-0.215-0.587-0.344-0.649-0.383c0.423-0.658,0.793-1.325,1.118-2     c0.323-0.677,0.654-1.282,0.996-1.815c0.202-0.313,0.417-0.682,0.648-1.11c0.228-0.426,0.466-0.761,0.709-1.003     c0.705-0.962,1.36-1.934,1.968-2.915s1.233-1.972,1.874-2.973c0.142-0.219,0.376-0.623,0.708-1.206     c0.328-0.583,0.67-1.116,1.024-1.596l0.84-1.517c0.107-0.238,0.386-0.623,0.837-1.153c0.45-0.528,0.799-1.024,1.05-1.481     c0.43-0.741,0.805-1.394,1.126-1.963c0.321-0.568,0.705-1.239,1.156-2.01c0.391-0.679,0.815-1.322,1.275-1.935     c0.458-0.611,0.879-1.215,1.26-1.809c0.1-0.158,0.192-0.285,0.279-0.384c0.087-0.099,0.246-0.163,0.485-0.186l2.336,1.629     c0.448,0.334,0.989,0.68,1.619,1.04s1.171,0.707,1.621,1.038c0.126,0.081,0.247,0.149,0.368,0.202     c0.118,0.055,0.242,0.123,0.368,0.204c0.094,0.06,0.296,0.19,0.609,0.39c0.313,0.202,0.643,0.411,0.988,0.634     c0.343,0.221,0.656,0.42,0.939,0.602c0.281,0.181,0.442,0.307,0.485,0.379c0.043,0.072,0.21,0.224,0.504,0.456     c0.292,0.232,0.517,0.398,0.675,0.498c0.094,0.06,0.239,0.145,0.438,0.248c0.197,0.106,0.397,0.223,0.602,0.353     c0.202,0.13,0.398,0.256,0.586,0.376c0.187,0.121,0.33,0.211,0.424,0.272c0.303,0.282,0.609,0.513,0.916,0.688     c0.308,0.176,0.622,0.389,0.949,0.641c0.03,0.019,0.189,0.132,0.478,0.339c0.287,0.208,0.609,0.447,0.966,0.718     c0.354,0.271,0.677,0.511,0.963,0.718C378.422,73.994,378.581,74.108,378.613,74.128z"/>
		</g>
		<g>
			<g>
				<path style="fill:#28935F;" d="M163.983,242.311c-5.934-7.681-14.369-12.262-24.409-10.01      c-8.529,1.913-15.867,7.679-18.635,16.129c-4.722,14.414-2.192,31.59,8.372,42.474c5.093,5.247,12.119,8.931,19.429,8.79      C178.04,299.128,178.633,261.274,163.983,242.311z"/>
			</g>
			<g>
				<path style="fill:#FFFCDE;" d="M148.74,299.694c4.09-0.079,7.601-0.906,10.609-2.286c4.314-12.734,0.956-29.993-7.511-40.952      c-5.934-7.68-14.369-12.262-24.409-10.01c-2.322,0.521-4.541,1.351-6.618,2.42c-4.532,14.324-1.959,31.262,8.5,42.038      C134.404,296.151,141.429,299.836,148.74,299.694z"/>
			</g>
		</g>
		<g>
			<g>
				<path style="fill:#FFFCDE;" d="M382.883,204.972c-0.678-5.713-1.918-11.073-3.436-15.808c-1.574-4.724-3.393-8.828-5.294-12.083      c-3.781-6.538-7.459-9.731-9.138-8.892c-1.781,0.881-1.333,5.499-0.163,12.309c1.189,6.824,2.924,15.931,4.111,26.077      c1.151,10.15,1.531,19.414,1.924,26.33c0.408,6.898,1.021,11.497,2.956,11.95c1.825,0.436,4.682-3.51,6.878-10.737      c1.111-3.602,1.95-8.013,2.409-12.971C383.532,216.192,383.521,210.69,382.883,204.972z"/>
			</g>
			<g>
				<path style="fill:#FFFCDE;" d="M363.236,142.272c-3.164-4.502-8.295-6.348-11.461-4.123c-3.166,2.225-3.167,7.678-0.003,12.18      c3.164,4.502,8.296,6.348,11.461,4.123C366.399,152.227,366.4,146.774,363.236,142.272z"/>
			</g>
		</g>
	</g>
</g>















</svg>
