<?xml version="1.0" encoding="UTF-8"?>
<!-- Generator: Adobe Illustrator 25.2.1, SVG Export Plug-In . SVG Version: 6.00 Build 0)  -->
<svg xmlns="http://www.w3.org/2000/svg" xmlns:xlink="http://www.w3.org/1999/xlink" version="1.1" id="Capa_1" x="0px" y="0px" viewBox="0 0 511.995 511.995" style="enable-background:new 0 0 511.995 511.995;" xml:space="preserve" width="512" height="512">
<g>
	<path style="fill:#FFFFFF;" d="M488.906,49.898c-2.732-0.838-5.577-1.134-8.471-0.881c-8.683-24.211-38.908-16.138-43.562,6.101   c-12.659-3.962-27.283,4.893-29.042,17.673c-0.681,24.015,16.206,31.395,29.903,39.217c-1.796,18.492-9.872,34.99-23.108,47.331   c-5.676-4.951-11.377-8.586-16.491-11.238c1.869-2.637,2.911-5.808,2.93-9.102c-0.052-2.409,1.625-90.966-1.101-89.803   C381.892,5.119,306.634,2.391,255.337,0c-45.986,1.828-137.466,2.326-146.09,54.534c0.397,4.628-2.484,90.63,1.814,91.705   c-4.862,2.427-10.273,5.725-15.717,10.183c-12.441-12.377-19.939-28.604-21.479-46.592c13.766-7.626,30.776-14.859,30.368-38.859   c-1.619-12.818-16.102-21.785-28.831-18.019c-4.419-22.335-34.48-30.734-43.483-6.618C18.131,44.808,6.377,56.779,6.999,70.948   c1.169,16.266,13.539,28.232,23.659,37.063c1.296,32.333,15.395,62.323,39.032,83.419C52.417,232.934,62.118,293.774,81.5,335.703   c19.385,40.542,42.933,59.223,88.815,55.587l-6.161,74.061c-30.523,2.362-48.283,22.749-37.007,40.847   c3.254,3.953,8.213,6.098,13.32,5.763l53.657-3.509c7.989-0.495,14.297-6.848,14.833-14.802l6.881-102.087l70.078,0.418   l10.313,100.805c0.813,7.93,7.367,14.036,15.336,14.28l53.744,1.649c0.881,0.025,1.753-0.02,2.614-0.136   c10.329-1.187,16.766-12.638,12.529-22.086c-5.914-16.355-22.791-22.822-40.438-23.601l-8.345-70.637   c22.443,0.953,48.919,0.865,66.025-15.976c43.199-43.926,60.707-124.408,41.555-181.194c24.933-20.87,40.007-51.222,41.716-84.385   C499.577,97.73,520.124,62.644,488.906,49.898z"/>
	<g>
		<g>
			<g>
				<path style="fill:#FFE300;" d="M484.244,65.105c-2.146-0.659-4.532-0.041-6.413,1.185c-1.881,1.225-3.334,3-4.653,4.816      c-2.982,4.106-5.776,9.931-7.845,14.558c0.751-4.456,1.707-10.318,1.98-14.829c0.353-5.838,0.258-11.913-2.198-17.22      c-0.644-1.392-1.536-2.796-2.948-3.396c-2.167-0.92-4.666,0.412-6.265,2.141c-3.369,3.642-4.405,8.836-4.878,13.775      c-0.683,7.123-0.453,14.325,0.616,21.4c-2.61-3.758-5.568-7.273-8.873-10.437c-3.276-3.136-9.844-8.625-14.915-6.528      c-9.464,3.912-1.343,14.64,2.906,18.322c6.729,5.83,14.969,9.542,23.239,12.776c0.926,39.16-20.887,72.574-57.027,87.607      c-6.658,2.769-0.993,12.461,5.602,9.717c39.28-16.339,63.301-54.04,62.636-96.323c7.865-5.586,15.119-11.869,20.299-20.035      c1.825-2.877,3.516-6.009,3.667-9.413C489.324,69.816,487.501,66.105,484.244,65.105z"/>
			</g>
			<g>
				<path style="fill:#FFE300;" d="M113.704,187.579c-35.957-15.464-57.37-49.137-55.975-88.283      c8.308-3.135,16.592-6.748,23.39-12.497c4.294-3.631,12.542-14.261,3.125-18.286c-5.046-2.157-11.679,3.253-14.992,6.349      c-3.343,3.124-6.343,6.604-8.998,10.33c1.153-7.062,1.47-14.26,0.872-21.391c-0.415-4.944-1.389-10.15-4.713-13.832      c-1.577-1.747-4.061-3.11-6.239-2.216c-1.419,0.583-2.328,1.976-2.989,3.36c-2.519,5.277-2.687,11.351-2.404,17.193      c0.219,4.514,1.104,10.387,1.803,14.852c-2.014-4.651-4.738-10.509-7.671-14.651c-1.298-1.832-2.729-3.624-4.595-4.872      c-1.866-1.247-4.244-1.895-6.398-1.261c-3.269,0.961-5.136,4.65-5.025,8.055c0.11,3.406,1.764,6.557,3.554,9.456      c5.082,8.227,12.261,14.596,20.058,20.276c-1.171,42.273,22.397,80.258,61.48,97.066      C114.547,200.051,120.327,190.428,113.704,187.579z"/>
			</g>
			<g>
				<path style="fill:#572330;" d="M178.786,481.336c0,0-34.402-3.955-39.357,14.755l53.657-3.508l9.75-144.62l-13.211,3.059      L178.786,481.336z"/>
			</g>
			<g>
				<path style="fill:#572330;" d="M325.953,479.433L310.61,349.571l-13.309-2.6l14.75,144.196l53.746,1.649      C360.198,474.29,325.953,479.433,325.953,479.433z"/>
			</g>
		</g>
		<path style="fill:#A03589;" d="M376.755,157.002l0.872-20.373l-104.319-3.644l0.006-1.086l-18.771,0.431l-18.765-0.655    l-0.007,1.086l-104.355,2.396l20.981,20.382c0,0-63.854,10.569-54.528,103.156c5.399,53.603,23.64,84.18,38.044,100.426    c9.129,10.296,21.459,5.927,35.219,6.009l61.436-0.319l37.536,0.224l82.69,0.495c13.76,0.082,66.508-55.188,66.609-55.486    c4.661-13.684,8.466-29.958,10.642-49.24C440.478,168.334,376.755,157.002,376.755,157.002z"/>
		<path style="fill:#933181;" d="M229.273,287.44c-20.407,1.435-42.904,3.067-59.26-9.222c-17.082-12.834-21.46-36.899-19.245-58.15    c2.215-21.251,9.613-41.794,10.759-63.129c0.403-7.512-0.08-15.036-1.291-22.445l-28.819,0.662l0.628,20.382    c0,0-22.552,3.733-38.894,26.195c0,0,1.485,6.291,0.143,8.613c-1.516,2.621-8.609,6.373-8.609,6.373    c-6.363,14.835-9.895,34.898-7.168,61.976c1.952,19.379,5.582,35.748,10.103,49.519c0,0,13.081,7.16,14.348,10.364    c1.199,3.034-6.989,8.415-6.989,8.415c6.599,14.264,13.992,24.696,20.581,32.128c9.129,10.296,22.308,16.07,36.068,16.152    l82.691,0.495l37.536,0.224l82.691,0.495c13.76,0.082,27.007-5.534,36.258-15.72c6.601-7.269,14.019-17.469,20.724-31.41    c0,0-1.849-6.43-0.467-9.846c1.232-3.044,8.314-9.432,8.314-9.432c0.711-2.086,1.402-4.231,2.071-6.438    C359.715,286.669,293.414,282.929,229.273,287.44z"/>
		<path style="fill:#FF61B8;" d="M125.167,54.599l-0.286,47.796l-0.213,35.608c19.767,16.042,70.324,27.668,129.673,28.023    c60.167,0.36,111.45-10.969,130.818-27.124l0.205-34.289l0.29-48.455L125.167,54.599z"/>
		<g>
			<g>
				<path style="fill:#E046A2;" d="M137.976,54.675l-2.722-0.016c-0.271,15.331-0.486,33.842-0.605,53.78      c-0.076,12.706-0.106,24.824-0.095,35.92c0.976,0.516,1.986,1.024,3.03,1.526c0.153-11.498,0.275-24.145,0.354-37.426      C138.057,88.521,138.063,70.008,137.976,54.675z"/>
			</g>
			<g>
				<path style="fill:#E046A2;" d="M161.609,54.816l-2.722-0.016c-0.271,15.331-0.486,33.842-0.605,53.78      c-0.097,16.301-0.119,31.644-0.076,45.081c0.948,0.284,1.917,0.561,2.891,0.836c0.21-13.629,0.376-29.266,0.475-45.898      C161.691,88.662,161.697,70.15,161.609,54.816z"/>
			</g>
			<g>
				<path style="fill:#E046A2;" d="M185.242,54.958l-2.723-0.016c-0.271,15.331-0.486,33.842-0.605,53.78      c-0.111,18.602-0.124,35.954-0.054,50.651c0.921,0.178,1.848,0.353,2.783,0.524c0.25-14.802,0.448-32.337,0.561-51.155      C185.324,88.803,185.33,70.291,185.242,54.958z"/>
			</g>
			<g>
				<path style="fill:#E046A2;" d="M208.876,55.099l-2.723-0.016c-0.271,15.331-0.486,33.842-0.605,53.78      c-0.12,20.111-0.125,38.766-0.035,54.176c0.898,0.108,1.8,0.213,2.707,0.316c0.276-15.466,0.497-34.23,0.618-54.473      C208.957,88.945,208.963,70.433,208.876,55.099z"/>
			</g>
			<g>
				<path style="fill:#E046A2;" d="M232.509,55.241l-2.722-0.016c-0.271,15.331-0.486,33.842-0.605,53.78      c-0.125,20.988-0.125,40.386-0.023,56.17c0.886,0.055,1.77,0.11,2.662,0.16c0.292-15.806,0.525-35.258,0.651-56.31      C232.59,89.086,232.597,70.574,232.509,55.241z"/>
			</g>
			<g>
				<path style="fill:#E046A2;" d="M256.142,55.382l-2.723-0.016c-0.271,15.331-0.486,33.842-0.605,53.78      c-0.127,21.293-0.125,40.956-0.019,56.861c0.516,0.005,1.028,0.015,1.546,0.018c0.369,0.002,0.733-0.001,1.101,0      c0.297-15.903,0.534-35.566,0.661-56.86C256.224,89.227,256.23,70.715,256.142,55.382z"/>
			</g>
			<g>
				<path style="fill:#E046A2;" d="M279.776,55.523l-2.723-0.016c-0.271,15.331-0.486,33.842-0.605,53.78      c-0.126,21.063-0.125,40.526-0.022,56.339c0.893-0.038,1.775-0.086,2.662-0.13c0.291-15.785,0.524-35.191,0.65-56.19      C279.857,89.369,279.863,70.856,279.776,55.523z"/>
			</g>
			<g>
				<path style="fill:#E046A2;" d="M303.409,55.664l-2.723-0.016c-0.271,15.331-0.486,33.842-0.605,53.78      c-0.121,20.263-0.125,39.045-0.033,54.522c0.905-0.09,1.814-0.178,2.71-0.274c0.274-15.419,0.493-34.093,0.614-54.229      C303.491,89.51,303.497,70.998,303.409,55.664z"/>
			</g>
			<g>
				<path style="fill:#E046A2;" d="M327.042,55.806l-2.722-0.016c-0.271,15.331-0.486,33.842-0.605,53.78      c-0.113,18.852-0.124,36.416-0.051,51.237c0.932-0.158,1.869-0.314,2.787-0.478c0.246-14.714,0.442-32.098,0.553-50.739      C327.124,89.651,327.13,71.139,327.042,55.806z"/>
			</g>
			<g>
				<path style="fill:#E046A2;" d="M350.676,55.947l-2.723-0.016c-0.271,15.331-0.486,33.842-0.605,53.78      c-0.1,16.687-0.12,32.372-0.073,46.035c0.983-0.263,1.941-0.534,2.898-0.805c0.205-13.467,0.367-28.857,0.465-45.21      C350.757,89.792,350.763,71.28,350.676,55.947z"/>
			</g>
			<g>
				<path style="fill:#E046A2;" d="M374.309,56.088l-2.723-0.016c-0.271,15.331-0.486,33.842-0.605,53.78      c-0.08,13.369-0.109,26.094-0.093,37.653c1.047-0.482,2.063-0.97,3.045-1.465c0.145-11.162,0.262-23.367,0.338-36.168      C374.391,89.934,374.397,71.422,374.309,56.088z"/>
			</g>
		</g>
		<g>
			<g>
				<path style="fill:#FF61B8;" d="M84.686,196.808c16.425,3.901,33.055,7.077,49.698,9.874      c58.23,9.785,117.455,13.234,176.396,9.599c38.029-2.345,75.913-8.092,112.905-17.287c-2.439-5.925-5.314-11.068-8.452-15.469      c-34.154,8.213-69.108,13.477-104.353,15.934c-55.54,3.872-111.574,0.413-166.533-8.1c-17.087-2.647-34.237-5.737-51.195-9.624      C90.03,186.028,87.155,191.043,84.686,196.808z"/>
			</g>
			<g>
				<path style="fill:#FFE300;" d="M95.002,326.972c12.806,2.786,25.708,5.187,38.619,7.356c58.23,9.785,117.454,13.235,176.396,9.6      c34.128-2.105,68.14-6.948,101.495-14.561c2.793-5.8,5.457-12.253,7.892-19.41c-35.718,8.909-72.343,14.574-109.287,17.15      c-55.54,3.872-111.574,0.413-166.533-8.1c-18.677-2.893-37.428-6.323-55.922-10.739      C89.922,315.135,92.399,321.348,95.002,326.972z"/>
			</g>
		</g>
		<g>
			<path style="fill:#F950BC;" d="M152.268,209.465c0.948-5.504,2.112-10.978,3.303-16.446c-3.746-0.531-7.488-1.082-11.224-1.661     c-17.087-2.647-34.237-5.738-51.195-9.624c-3.123,4.292-5.999,9.307-8.467,15.073c16.425,3.901,33.055,7.077,49.698,9.874     C140.335,207.682,146.298,208.599,152.268,209.465z"/>
			<g>
				<path style="fill:#EAC803;" d="M95.002,326.972c12.806,2.786,25.708,5.187,38.619,7.356c58.23,9.785,117.454,13.235,176.396,9.6      c34.128-2.105,68.14-6.948,101.495-14.561c2.793-5.8,5.457-12.253,7.892-19.41c-35.718,8.909-72.343,14.574-109.287,17.15      c-55.54,3.872-111.574,0.413-166.533-8.1c-18.677-2.893-37.428-6.323-55.922-10.739      C89.922,315.135,92.399,321.348,95.002,326.972z"/>
			</g>
		</g>
		<g>
			<g>
				<path style="fill:#FFFCDE;" d="M227.569,245.569c-0.038,6.314-5.187,11.403-11.502,11.365      c-6.315-0.038-11.403-5.187-11.365-11.502c0.038-6.315,5.187-11.403,11.502-11.365      C222.518,234.105,227.607,239.255,227.569,245.569z"/>
			</g>
			<g>
				<path style="fill:#FFFCDE;" d="M296.096,245.979c-0.038,6.315-5.187,11.403-11.502,11.365      c-6.315-0.038-11.403-5.187-11.365-11.502c0.038-6.315,5.187-11.403,11.502-11.365      C291.046,234.515,296.134,239.664,296.096,245.979z"/>
			</g>
			<g>
				<g>
					<path style="fill:#FFFCDE;" d="M183.501,263.248c10.45,28.62,36.663,47.5,67.237,47.803       c30.071,0.298,56.452-23.255,64.925-50.903c1.704-5.561-6.965-7.975-8.66-2.443c-7.289,23.784-27.536,40.989-52.293,44.118       c-27.282,3.449-53.446-16.059-62.521-40.914C190.219,255.509,181.508,257.787,183.501,263.248L183.501,263.248z"/>
				</g>
			</g>
			<path style="fill:#EFEBCE;" d="M250.739,311.05c19.872,0.197,38.128-10.027,50.674-24.96c-4.015-0.143-8.031-0.249-12.047-0.316     c-9.383,8.63-21.368,14.368-34.655,16.048c-15.666,1.98-30.955-3.617-42.86-13.441c-4.474,0.094-8.938,0.015-13.313-0.371     C211.681,302.271,230.224,310.847,250.739,311.05z"/>
		</g>
		<g>
			
				<ellipse transform="matrix(0.006 -1 1 0.006 198.1048 310.0428)" style="fill:#2BB680;" cx="255.004" cy="55.375" rx="39.468" ry="129.848"/>
		</g>
		<g>
			
				<ellipse transform="matrix(0.006 -1 1 0.006 198.1048 310.0427)" style="fill:#FFE300;" cx="255.004" cy="55.375" rx="19.616" ry="64.537"/>
		</g>
		<g>
			<g>
				<path style="fill:#FFFCDE;" d="M410.317,260.284c2.201,0.297,4.933-3.829,6.723-11.146c1.797-7.279,2.412-17.763,0.485-29.04      c-1.948-11.273-6.029-20.949-10.154-27.21c-4.13-6.299-8.083-9.276-10.058-8.261c-2.063,1.053-1.864,5.769-0.752,12.557      c1.131,6.805,3.026,15.763,4.751,25.702c1.693,9.944,2.897,19.021,4.104,25.814C406.633,255.469,408.02,259.98,410.317,260.284z      "/>
			</g>
		</g>
		<g>
			<g>
				<path style="fill:#FFFCDE;" d="M409.596,290.189c4.465,0.835,8.802-2.321,9.686-7.048c0.884-4.727-2.019-9.237-6.484-10.072      c-4.465-0.835-8.802,2.321-9.685,7.048C402.227,284.844,405.131,289.354,409.596,290.189z"/>
			</g>
		</g>
	</g>
</g>















</svg>
