<?xml version="1.0" encoding="UTF-8"?>
<!-- Generator: Adobe Illustrator 25.2.1, SVG Export Plug-In . SVG Version: 6.00 Build 0)  -->
<svg xmlns="http://www.w3.org/2000/svg" xmlns:xlink="http://www.w3.org/1999/xlink" version="1.1" id="Capa_1" x="0px" y="0px" viewBox="0 0 512 512" style="enable-background:new 0 0 512 512;" xml:space="preserve" width="512" height="512">
<g>
	<path style="fill:#FFFFFF;" d="M499.083,69.268c-2.06-0.732-4.261-1.108-6.482-1.093c-0.135-0.369-0.277-0.739-0.428-1.11   c-1.943-4.742-5.006-8.141-9.093-10.095c-1.77-0.848-3.662-1.381-5.625-1.578c-5.452-0.548-11.007,1.535-15.252,5.726   c-3.147,3.113-5.105,6.714-6.363,10.191c-2.757-0.766-5.582-0.964-8.269-0.577l1.159-12.143c0.37-3.886-0.918-7.751-3.546-10.638   c-2.628-2.887-6.351-4.543-10.26-4.524l-94.175,0.131c-9.407-6.207-20.695-10.672-35.467-14.033   c-7.674-1.745-15.413-3.017-23.003-3.779c-19.729-1.982-38.616-0.611-56.136,4.076c-27.895,7.466-51.847,23.436-67.441,44.972   c-4.506,6.223-8.222,12.816-11.816,19.194c-6.767,12.001-13.159,23.338-23.337,29.172c-10.999,6.302-22.992,10.206-35.69,14.339   l-3.246,1.058c-0.014,0.003-0.028,0.009-0.042,0.012c0,0.002-0.002,0.002-0.005,0.002c-1.806,0.591-3.613,1.193-5.402,1.795   l-1.278,0.431c-1.958,0.666-3.914,1.347-5.992,2.096l-0.282,0.105c-1.785,0.65-3.563,1.327-5.329,2.022l-1.524,0.603   c-1.917,0.77-3.827,1.564-5.724,2.406c-0.057,0.026-0.116,0.052-0.173,0.078c-22.892,10.204-42.371,34.325-52.108,64.524   c-1.185,3.678-2.202,7.392-3.018,11.028c-1.158,5.146-2.061,10.413-2.68,15.649c-1.274,10.768-1.396,21.539-0.36,32.018   c0.267,2.689,0.611,5.376,1.023,7.988c4.116,26.016,15.41,48.374,32.662,64.655c15.248,14.385,35.73,24.351,57.676,28.056   c7.067,1.197,14.298,1.738,21.344,1.594c7.261-0.147,14.43-0.745,21.361-1.324c11.084-0.927,21.556-1.801,31.397-0.812   c9.888,0.993,17.871,3.769,25.123,8.736c2.014,1.378,4.153,3.086,6.734,5.377c1.564,1.385,3.1,2.808,4.635,4.233   c0.951,0.881,1.904,1.763,2.857,2.634c1.515,1.382,3.534,3.205,5.732,5.016c16.211,13.37,36.441,21.609,58.502,23.826   c3.478,0.349,6.99,0.544,10.5,0.577l-6.245,13.685c-2.41-0.79-5.034-1.394-7.83-1.675c-8.533-0.857-16.896,1.458-24.187,6.697   c-3.914,2.812-6.084,7.455-5.731,12.262c0.353,4.804,3.179,9.081,7.463,11.29l38.124,19.672c1.564,0.807,3.249,1.3,4.965,1.473   c2.083,0.209,4.21-0.055,6.215-0.8c3.655-1.359,6.565-4.197,8.021-7.816l25.789-64.197c1.259-0.556,4.832-2.28,5.311-2.538   c0,0,3.595-1.854,5.164-2.741l23.322-0.031c5.229,11.22,15.157,25.864,33.957,39.706c-3.108,3.518-5.817,7.664-7.331,12.386   c-2.217,6.913-1.609,13.983,1.763,20.445c1.971,3.784,5.577,6.446,9.774,7.218c4.191,0.743,8.512-0.436,11.703-3.271l36.468-32.408   c3.559-3.163,5.233-7.935,4.45-12.633c-0.783-4.695-3.934-8.666-8.328-10.503c-0.285-0.119-22.24-9.436-38.195-25.324   c8.114-4.868,13.765-13.421,14.656-23.559l3.209-36.516c0.175-2.016-0.094-4.026-0.762-5.892c0.213-0.769,0.361-1.568,0.439-2.387   l13.038-136.712c31.527-14.595,52.138-43.515,55.567-78.097c4.996-3.705,10.605-8.668,15.128-15.137   c2.397-3.429,5.215-8.139,5.754-14.183C512.754,80.91,507.477,72.261,499.083,69.268z"/>
	<g>
		<g>
			<path style="fill:#3BBBAF;" d="M353.242,81.884c-2.641-10.964-10.372-20.233-19.739-26.514s-20.297-9.842-31.293-12.343     c-23.794-5.413-48.914-6.135-72.486,0.173c-23.572,6.308-45.493,19.95-59.804,39.714c-12.818,17.703-19.78,40.967-39.486,52.261     c-20.938,11.999-44.113,15.852-65.932,25.58c-24.747,11.034-41.43,40.04-47.256,65.945c-8.407,37.382-1.819,80.34,26.64,107.198     c18.314,17.283,44.316,26.377,69.237,25.875c29.45-0.592,59.266-9.275,85.984,9.019c7.602,5.205,13.838,12.14,20.945,18.002     c26.811,22.116,66.074,27.165,98.326,14.212c32.252-12.953,56.726-42.775,64.962-76.541"/>
		</g>
		<g>
			<g>
				<path style="fill:#37AA9C;" d="M318.378,401.006c17.561-7.053,32.787-19.132,44.371-34.101      c-16.159-19.953-30.571-42.437-51.951-56.215c-28.59-18.423-65.244-18.42-98.881-13.382      c-24.935,3.735-50.837,9.823-74.867,2.186c-35.811-11.382-56.386-51.127-57.381-88.69c-0.533-20.113,3.362-39.792,9.247-59.084      c-4.101,1.341-8.201,2.707-12.278,4.184c-4.077,1.477-8.13,3.065-12.137,4.852c-24.748,11.034-41.43,40.04-47.256,65.945      c-8.407,37.382-1.819,80.34,26.64,107.198c18.314,17.283,44.316,26.377,69.237,25.875c29.45-0.592,59.266-9.275,85.984,9.019      c7.602,5.205,13.838,12.14,20.945,18.002C246.863,408.91,286.126,413.959,318.378,401.006z"/>
			</g>
		</g>
		<g>
			<polygon style="fill:#572330;" points="398.667,341.505 296.456,348.977 296.433,325.536 398.645,325.393    "/>
		</g>
		<g>
			<g>
				<path style="fill:#572330;" d="M312.963,383.534l-32.591,71.414c0,0-14.759-14.289-30.311-3.114l38.125,19.672l36.321-90.419"/>
			</g>
			<g>
				<path style="fill:#572330;" d="M368.432,385.434c0,0,1.779,33.799,50.112,60.276c0,0-25.021,12.693-17.256,27.585l36.47-32.407      c0,0-54.75-22.676-62.023-61.821"/>
			</g>
			<g>
				<g>
					<path style="fill:#FFE300;" d="M494.425,82.31c-1.713-0.612-3.667-0.198-5.234,0.726c-1.568,0.924-2.808,2.307-3.942,3.729       c-2.563,3.216-5.036,7.829-6.88,11.499c0.77-3.58,1.757-8.29,2.142-11.932c0.498-4.712,0.642-9.634-1.154-14.019       c-0.471-1.151-1.142-2.319-2.263-2.856c-1.721-0.824-3.792,0.164-5.149,1.505c-2.859,2.826-3.887,6.993-4.449,10.973       c-0.812,5.741-0.887,11.579-0.279,17.345c-1.976-3.137-4.243-6.09-6.804-8.771c-2.538-2.658-7.655-7.339-11.836-5.827       c-7.803,2.823-1.62,11.801,1.687,14.936c5.237,4.965,11.774,8.27,18.353,11.189c-0.514,31.095-19.13,57.806-48.475,68.495       c-5.461,1.989-3.091,10.77,2.428,8.759c32.8-11.948,54.048-41.235,55.078-76.038c6.57-4.236,12.672-9.059,17.162-15.481       c1.582-2.263,3.064-4.736,3.311-7.486C498.366,86.307,497.025,83.238,494.425,82.31z"/>
				</g>
				<g>
					<path style="fill:#FFE300;" d="M277.675,179.503c-29.375-10.607-48.066-37.266-48.667-68.359       c6.571-2.938,13.099-6.261,18.322-11.241c3.298-3.144,9.456-12.141,1.645-14.941c-4.185-1.501-9.289,3.195-11.82,5.86       c-2.553,2.688-4.811,5.648-6.779,8.79c0.592-5.768,0.5-11.605-0.328-17.344c-0.574-3.979-1.613-8.143-4.48-10.961       c-1.36-1.337-3.435-2.32-5.153-1.491c-1.12,0.54-1.787,1.71-2.255,2.862c-1.783,4.39-1.625,9.312-1.114,14.022       c0.395,3.64,1.395,8.348,2.175,11.926c-1.854-3.665-4.34-8.271-6.912-11.48c-1.138-1.419-2.382-2.799-3.952-3.718       c-1.57-0.919-3.524-1.328-5.236-0.711c-2.597,0.936-3.93,4.009-3.676,6.758c0.254,2.749,1.743,5.219,3.331,7.477       c4.508,6.41,10.623,11.215,17.205,15.433c1.127,34.801,22.457,64.028,55.29,75.884       C280.796,190.264,283.141,181.477,277.675,179.503z"/>
				</g>
			</g>
		</g>
		<g>
			<polygon style="fill:#FF61B8;" points="350.388,65.444 344.734,65.452 262.127,85.459 295.245,321.577 408.639,333.11      411.434,303.803 408.985,298.557 412.434,293.311 421.943,193.605 414.811,156.08 428.886,120.793 432.279,85.221    "/>
		</g>
		<g>
			<g>
				<path style="fill:#792760;" d="M103.082,196.182c-0.25-0.374-0.509-0.774-0.779-1.202c-0.272-0.426-0.582-0.908-0.927-1.441      c-0.698-1.015-1.3-1.99-1.815-2.921c-0.514-0.931-0.897-1.533-1.151-1.803l-2.099-2.578c-0.148-0.214-0.32-0.508-0.516-0.881      c-0.196-0.371-0.344-0.637-0.443-0.797c-0.246-0.374-0.481-0.76-0.701-1.16c-0.223-0.398-0.456-0.759-0.705-1.081      c-0.299-0.429-0.66-0.963-1.08-1.604c-0.42-0.643-0.655-0.965-0.707-0.966l-0.048,3.522l-0.77,6.311      c-0.008,0.262-0.042,0.82-0.099,1.682c-0.059,0.857-0.129,1.781-0.217,2.769c-0.086,0.988-0.16,1.912-0.215,2.772      c-0.057,0.86-0.088,1.418-0.098,1.678c-0.092,1.094-0.202,2.057-0.335,2.886c-0.135,0.829-0.194,1.793-0.179,2.891      c-0.018,0.521-0.076,1.003-0.17,1.442c-0.094,0.439-0.124,0.921-0.091,1.443c-0.01,0.262-0.019,0.508-0.027,0.743      c-0.008,0.235-0.042,0.483-0.104,0.742c0.026,0.732,0.001,1.475-0.079,2.228c-0.08,0.753-0.132,1.493-0.158,2.225      c-0.635,0.237-1.202,0.375-1.697,0.409c-0.497,0.034-1.112,0.04-1.841,0.014c-0.208,0.043-0.483,0.072-0.824,0.087      c-0.341,0.013-0.664,0.028-0.979,0.044c-0.316,0.014-0.578,0.03-0.784,0.05c-0.21,0.017-0.288,0.028-0.236,0.031      c-0.262-0.01-0.562,0.005-0.902,0.045c-0.342,0.04-0.721,0.052-1.134,0.038c-0.21-0.007-0.421-0.026-0.628-0.061      c-0.207-0.034-0.41-0.184-0.609-0.451l0.399-2.413l0.018-0.469c-0.023-0.782-0.052-1.555-0.074-2.311      c-0.028-0.757,0.023-1.42,0.146-1.992c0.063-0.311,0.118-0.724,0.163-1.243c0.046-0.521,0.076-1.068,0.095-1.642      c0.021-0.573,0.042-1.135,0.06-1.682c0.019-0.546,0.013-1.029-0.027-1.448c-0.075-0.837-0.113-1.556-0.119-2.157      c-0.006-0.599,0.018-1.577,0.066-2.934c0.089-1.092,0.146-1.952,0.168-2.577c0.024-0.625,0.027-1.486,0.012-2.581l0.025-0.704      c0.026-0.731,0.01-1.381-0.048-1.958c-0.06-0.577-0.055-1.073,0.014-1.489c0.247-1.085,0.351-2.164,0.309-3.235      c-0.04-1.071,0.013-2.203,0.16-3.4c0.082-0.884,0.125-1.743,0.13-2.578c0.002-0.833,0.023-1.694,0.053-2.582      c0.032-0.885,0.101-1.768,0.212-2.654c0.107-0.882,0.178-1.767,0.21-2.654c0.015-0.415,0.06-0.662,0.142-0.738      c0.082-0.076,0.33-0.105,0.75-0.09l8.05,0.283c0.251,0.272,0.551,0.712,0.893,1.324s0.639,1.106,0.884,1.48      c0.399,0.536,0.786,1.15,1.149,1.842c0.368,0.689,0.7,1.303,0.994,1.833c0.385,0.904,0.805,1.596,1.257,2.081      c0.454,0.487,0.82,1.124,1.105,1.919c0.252,0.27,0.463,0.577,0.632,0.92c0.171,0.348,0.356,0.629,0.556,0.844      c0.247,0.426,0.565,0.958,0.963,1.599c0.393,0.64,0.792,1.176,1.195,1.608c0.645,0.91,1.205,1.738,1.674,2.483      c0.468,0.749,1.051,1.553,1.751,2.412c0.398,0.588,0.746,1.122,1.04,1.602c0.298,0.481,0.619,1.014,0.96,1.601      c0.402,0.484,0.841,1.034,1.313,1.65c0.472,0.618,1.009,1.302,1.61,2.053c0.105-0.048,0.307-0.236,0.605-0.564      c0.3-0.33,0.534-0.621,0.697-0.877c0.487-0.452,0.987-1.033,1.51-1.747c0.522-0.711,1.026-1.347,1.517-1.905l0.836-1.536      c0.113-0.202,0.25-0.394,0.413-0.57c0.16-0.176,0.297-0.344,0.41-0.496l2.222-3.129c0.228-0.514,0.682-1.15,1.358-1.909      c0.679-0.759,1.353-1.674,2.016-2.747l0.408-0.455c0.551-0.867,1.05-1.698,1.498-2.491c0.444-0.794,0.892-1.623,1.338-2.498      c0.339-0.664,0.681-1.189,1.036-1.568c0.351-0.379,0.72-0.899,1.111-1.565c0.222-0.408,0.349-0.678,0.38-0.807      c0.031-0.131,0.13-0.349,0.297-0.657l7.113,0.253c0.877,0.24,1.501,0.366,1.867,0.38c0.364,0.012,0.625,0.022,0.781,0.026      c0.262,0.01,0.509,0.031,0.741,0.065c0.234,0.035,0.558,0.058,0.978,0.073l-0.114,3.205c-0.242,0.88-0.384,1.658-0.434,2.333      c-0.052,0.679-0.089,1.355-0.114,2.032l-0.279,7.896c-0.033,0.937-0.037,1.838-0.015,2.701c0.018,0.86,0.013,1.786-0.023,2.775      c0.041,0.265,0.059,0.538,0.049,0.825c-0.011,0.287-0.02,0.587-0.031,0.898c0.03,0.576,0.029,0.993-0.004,1.255      c-0.037,0.259-0.038,0.676-0.006,1.25l-0.036,1.016c-0.063,0.311-0.137,0.845-0.213,1.598c-0.078,0.753-0.159,1.534-0.24,2.339      c-0.081,0.807-0.146,1.589-0.199,2.343c-0.055,0.753-0.084,1.287-0.095,1.601c-0.015,0.418-0.008,0.939,0.024,1.565      c0.028,0.628,0.036,1.15,0.019,1.565c-0.037,1.045-0.089,2.125-0.152,3.245c-0.067,1.121-0.248,2.222-0.55,3.306l-0.063,1.799      c-0.22,0.252-0.499,0.385-0.835,0.401c-0.341,0.013-0.643,0.017-0.902,0.007c-0.466-0.122-0.946-0.163-1.444-0.129      s-0.85,0.048-1.057,0.041l-6.018-0.213c-0.08-0.735-0.133-1.468-0.16-2.198c-0.026-0.732-0.026-1.437-0.001-2.114      c0.011-0.312,0.037-0.755,0.086-1.328c0.044-0.571,0.078-1.184,0.103-1.836c0.022-0.65,0.045-1.262,0.065-1.837      c0.021-0.573,0.011-1.016-0.029-1.33c0.012-0.364,0.057-0.925,0.137-1.678c0.078-0.753,0.125-1.313,0.137-1.678l0.016-2.66      c0.018-0.521,0.021-0.952,0.008-1.293c-0.016-0.337-0.015-0.638-0.007-0.898l-0.106-1.492c0.004-0.104,0.023-0.247,0.057-0.429      c0.032-0.18,0.051-0.323,0.054-0.429c-0.169-1.204-0.139-2.379,0.086-3.518c0.221-1.138,0.299-2.258,0.235-3.356      c0.066-0.363,0.102-0.701,0.113-1.015c0.011-0.314,0.022-0.625,0.033-0.937l-0.012-4.072l0.03-0.86l-0.307-0.167      c-0.055,0.051-0.081,0.103-0.084,0.155c-0.699,0.6-1.323,1.242-1.868,1.928c-0.547,0.686-1.096,1.462-1.65,2.331l-2.558,3.744      c-0.277,0.461-0.611,0.985-0.994,1.57c-0.385,0.587-0.774,1.186-1.159,1.798c-0.388,0.613-0.76,1.188-1.118,1.723      c-0.36,0.535-0.703,0.98-1.026,1.333c-0.163,0.203-0.398,0.508-0.697,0.915c-0.304,0.407-0.632,0.852-0.988,1.335      c-0.359,0.483-0.712,0.98-1.069,1.487c-0.359,0.51-0.7,0.967-1.028,1.371l-0.329,0.461c-0.265,0.093-0.617,0.121-1.059,0.079      c-0.442-0.042-0.793-0.068-1.055-0.079c-0.467-0.015-0.938-0.02-1.408-0.01c-0.47,0.012-0.941,0.007-1.408-0.01      c-0.405-0.43-0.799-1.018-1.189-1.764c-0.394-0.744-0.739-1.329-1.035-1.758L103.082,196.182z"/>
				<path style="fill:#792760;" d="M140.177,205.165c0.402-1.029,0.815-2.043,1.242-3.047c0.429-1.001,0.839-2.018,1.244-3.046      c0.289-0.775,0.653-1.543,1.1-2.311c0.446-0.766,0.833-1.457,1.169-2.071c0.292-0.877,0.59-1.585,0.897-2.121      c0.305-0.538,0.487-0.882,0.546-1.039c0.004-0.104,0.131-0.358,0.378-0.768c0.249-0.408,0.546-1.078,0.892-2.003      c0.173-0.463,0.333-0.952,0.483-1.469c0.149-0.515,0.337-1.006,0.562-1.468l2.037-4.469c0.227-0.566,0.387-0.99,0.477-1.273      c0.087-0.283,0.16-0.53,0.219-0.737c0.059-0.205,0.119-0.437,0.181-0.698c0.062-0.259,0.232-0.668,0.514-1.235      c0.281-0.563,0.521-1.103,0.722-1.617c0.201-0.514,0.443-1.054,0.724-1.617c0.113-0.31,0.228-0.62,0.345-0.928      c0.115-0.31,0.23-0.618,0.347-0.928c0.17-0.411,0.315-0.77,0.43-1.08c0.115-0.308,0.228-0.668,0.349-1.084      c0.107-0.1,0.192-0.239,0.251-0.421c0.059-0.18,0.169-0.398,0.337-0.652c0.321-0.197,0.581-0.306,0.794-0.326      c0.208-0.018,0.419-0.024,0.629-0.016l3.594,0.128c0.096,0.214,0.14,0.408,0.133,0.591c-0.005,0.185,0.039,0.38,0.137,0.594      l0.273,1.183l0.211,0.633l0.777,2.454l1.262,4.037l0.512,1.037c0.1,0.107,0.198,0.332,0.288,0.675      c0.092,0.345,0.237,0.778,0.424,1.307c0.239,0.688,0.485,1.465,0.742,2.335c0.255,0.871,0.499,1.729,0.729,2.57      c0.319,1.316,0.585,2.29,0.798,2.925c0.211,0.633,0.434,1.294,0.673,1.98c0.148,0.214,0.244,0.453,0.288,0.715      s0.11,0.525,0.206,0.789l0.904,3.242l1.226,2.862c0.14,0.474,0.293,0.936,0.463,1.385c0.166,0.449,0.371,0.889,0.618,1.315      c0.381,1.058,0.683,2.019,0.915,2.89c0.23,0.868,0.536,1.832,0.915,2.887c0.19,0.477,0.398,0.928,0.618,1.353      c0.218,0.425,0.399,0.876,0.537,1.35c0.096,0.266,0.189,0.529,0.287,0.792c0.093,0.265,0.189,0.529,0.285,0.792      c0.242,0.48,0.446,0.969,0.613,1.471c0.165,0.504,0.366,1.045,0.607,1.626c0.093,0.317,0.213,0.635,0.357,0.951      c0.147,0.318,0.24,0.609,0.282,0.871c-0.262-0.008-0.519-0.043-0.78-0.106c-0.257-0.06-0.491-0.095-0.699-0.102l-1.329-0.047      c-0.467-0.015-0.888-0.019-1.252-0.004c-0.366,0.011-0.679,0.013-0.941,0.005c-0.237-0.635-0.591-1.26-1.068-1.879      c-0.473-0.616-0.956-1.376-1.445-2.281c-0.096-0.263-0.192-0.502-0.288-0.715c-0.097-0.211-0.193-0.425-0.292-0.636      c-0.093-0.317-0.376-0.767-0.851-1.361c-0.475-0.589-0.731-1.043-0.772-1.357c-0.404-0.485-0.687-0.873-0.859-1.165      c-0.174-0.294-0.386-0.573-0.635-0.845c-0.208-0.007-0.468-0.029-0.782-0.067c-0.311-0.036-0.594-0.087-0.855-0.147      c-0.311-0.063-0.649-0.101-1.013-0.113l-1.876-0.066c-0.262-0.01-0.538-0.007-0.826,0.01c-0.285,0.017-0.716,0.028-1.29,0.031      c-0.576,0.006-1.357,0.004-2.349-0.005c-0.991-0.009-2.32-0.043-3.986-0.101l-0.549-0.019c-0.42-0.015-0.744,0.011-0.982,0.083      c-0.238,0.069-0.564,0.018-0.972-0.152c-0.152-0.11-0.531-0.148-1.132-0.121c-0.601,0.032-1.008,0.071-1.217,0.116l-1.019,0.043      l-0.411,0.532c-0.115,0.31-0.31,0.669-0.586,1.076c-0.277,0.407-0.551,0.815-0.825,1.224c-0.277,0.407-0.537,0.814-0.787,1.224      c-0.252,0.41-0.43,0.743-0.544,0.999l-0.597,1.388l-2.083,3.526c-0.111,0.204-0.273,0.303-0.478,0.296      c-0.21-0.007-0.366,0.038-0.474,0.14l-3.986-0.142c-0.203-0.215-0.302-0.35-0.302-0.402c0.003-0.052,0.111-0.204,0.331-0.456      c0.008-0.21,0.096-0.507,0.264-0.893c0.17-0.384,0.259-0.681,0.266-0.891c0.276-0.405,0.514-0.827,0.712-1.265      c0.196-0.436,0.408-0.858,0.63-1.269L140.177,205.165z M157.281,186.359c-0.266,0.096-0.45,0.22-0.563,0.372      c-0.108,0.152-0.219,0.331-0.328,0.536c-0.236,0.724-0.538,1.43-0.9,2.123c-0.364,0.688-0.716,1.396-1.055,2.114      c-0.28,0.513-0.554,0.986-0.831,1.418c-0.277,0.434-0.528,0.907-0.752,1.422c-0.508,1.025-1.013,2.037-1.519,3.037      s-1.063,1.986-1.67,2.956l0.47,0.015c0.418,0.015,0.792,0.055,1.132,0.118c0.336,0.063,0.688,0.051,1.057-0.041      c0.317-0.093,0.616-0.108,0.899-0.046c0.286,0.063,0.561,0.097,0.821,0.107c0.885,0.03,1.798,0.052,2.735,0.057      c0.942,0.006,1.981,0.083,3.126,0.228c0.568,0.073,1.103,0.09,1.6,0.057c0.497-0.034,1.005-0.042,1.529-0.023l0.702,0.023      c-0.045-0.208-0.104-0.382-0.179-0.514c-0.073-0.132-0.158-0.281-0.255-0.44c-0.195-0.425-0.405-0.797-0.628-1.119      c-0.222-0.319-0.404-0.718-0.542-1.192l-2.546-5.57c-0.096-0.266-0.186-0.605-0.275-1.027L157.281,186.359z"/>
				<path style="fill:#792760;" d="M200.739,208.015c0.606,0.596,1.209,1.152,1.819,1.669c0.607,0.519,1.139,1.018,1.591,1.503      c0.303,0.273,0.708,0.64,1.212,1.1c0.506,0.461,0.962,0.778,1.377,0.947c0.249,0.272,0.539,0.516,0.873,0.738      c0.331,0.219,0.597,0.438,0.797,0.653c0.251,0.272,0.504,0.526,0.754,0.771c0.254,0.243,0.455,0.526,0.6,0.842      c-0.056,0.105-0.114,0.233-0.17,0.386c-0.114,0.256-0.25,0.46-0.415,0.611c-0.43,0.403-0.782,0.796-1.058,1.178      c-0.274,0.38-0.548,0.697-0.816,0.949l-0.647,0.603c-0.107,0.1-0.163,0.176-0.163,0.228c-0.262-0.01-0.493-0.122-0.693-0.337      c-0.2-0.217-0.427-0.435-0.682-0.651c-0.662-0.443-1.108-0.784-1.333-1.026s-0.674-0.48-1.344-0.713      c-0.152-0.108-0.421-0.276-0.806-0.498c-0.381-0.222-0.65-0.389-0.802-0.497c-0.67-0.233-1.311-0.596-1.921-1.085      c-0.608-0.491-1.272-0.957-1.984-1.402l-5.955-4.202c-0.516-0.278-0.986-0.582-1.417-0.913c-0.434-0.327-0.904-0.628-1.417-0.91      c-0.359-0.22-0.648-0.425-0.878-0.618c-0.23-0.189-0.492-0.421-0.798-0.694c-0.407-0.274-0.842-0.549-1.301-0.826      c-0.459-0.277-0.896-0.502-1.307-0.673l-0.614-0.336l-0.018,0.469c-0.015,0.418-0.065,0.807-0.158,1.169      c-0.089,0.363-0.14,0.672-0.15,0.934c-0.1,1.354-0.225,2.691-0.376,4.017c-0.154,1.326-0.247,2.666-0.297,4.02      c-0.015,0.418-0.043,0.834-0.085,1.249c-0.042,0.417-0.199,0.827-0.475,1.237l-0.39-0.014c-0.625-0.022-1.145-0.054-1.56-0.093      c-0.419-0.042-0.911-0.046-1.489-0.014c-0.416,0.035-0.783,0.037-1.094-0.001c-0.311-0.038-0.675-0.063-1.093-0.078      c-0.048-0.157-0.12-0.291-0.221-0.398c-0.1-0.107-0.148-0.239-0.142-0.395c0.135-0.936,0.173-2.395,0.116-4.381      c-0.061-1.986-0.046-4.227,0.042-6.73c0.023-0.675,0.058-1.326,0.108-1.951c0.049-0.627,0.058-1.279,0.031-1.956      c-0.077-0.837-0.097-1.672-0.067-2.508c0.029-0.833,0.084-1.693,0.168-2.577l0.077-2.19c0.026-0.781,0.027-1.576,0.007-2.387      c-0.025-0.809-0.02-1.631,0.01-2.466c0.015-0.415,0.041-0.832,0.082-1.249c0.042-0.415,0.095-0.831,0.161-1.246      c0.015-0.418-0.009-0.862-0.072-1.335c-0.059-0.47-0.033-0.914,0.088-1.328c0.007-0.156,0.033-0.624,0.089-1.405      c0.051-0.781,0.097-1.642,0.13-2.578c0.033-0.939,0.051-1.864,0.059-2.778c0.006-0.912,0.018-1.604,0.034-2.072l-0.016-3.993      c0.27-0.252,0.444-0.388,0.526-0.412c0.077-0.024,0.243-0.03,0.505-0.022c0.104,0.004,0.184,0.021,0.235,0.046      c0.049,0.03,0.104,0.044,0.156,0.045c0.052,0.003,0.335,0.027,0.858,0.07c0.519,0.045,1.092,0.092,1.715,0.138      c0.627,0.049,1.212,0.095,1.757,0.14c0.546,0.048,0.844,0.096,0.896,0.149c0.037,0.421,0.051,0.759,0.042,1.021      c-0.01,0.259-0.032,0.52-0.067,0.779c-0.035,0.261-0.072,0.559-0.111,0.897c-0.039,0.338-0.068,0.766-0.086,1.287l-0.052,1.485      c-0.259,1.453-0.429,2.92-0.508,4.405s-0.143,2.931-0.193,4.337c-0.107,1.561-0.212,2.693-0.314,3.396      c-0.104,0.699-0.171,1.519-0.204,2.456l-0.059,1.643c-0.008,0.262-0.029,0.468-0.06,0.624c-0.031,0.155,0.083,0.237,0.342,0.247      l0.405-0.378c0.27-0.249,0.537-0.54,0.815-0.87c0.271-0.328,0.515-0.596,0.732-0.796c0.056-0.103,0.215-0.293,0.488-0.569      s0.459-0.466,0.569-0.568c0.604-0.918,1.139-1.575,1.596-1.978s0.907-0.96,1.351-1.674c0.329-0.458,0.645-0.916,0.949-1.375      c0.302-0.461,0.671-0.888,1.102-1.292l0.165-0.151c0.279-0.565,0.612-1.087,0.991-1.57c0.384-0.482,0.767-1.004,1.154-1.565      c0.436-0.556,0.86-1.144,1.275-1.752c0.413-0.613,0.836-1.198,1.275-1.757l4.853-6.639l0.987-1.373      c0.111-0.154,0.284-0.327,0.527-0.529c0.244-0.2,0.443-0.35,0.605-0.449c0.203,0.165,0.507,0.384,0.915,0.658      c0.407,0.276,0.89,0.633,1.449,1.07c0.409,0.277,0.804,0.563,1.184,0.864c0.38,0.301,0.689,0.767,0.926,1.402      c-0.004,0.156-0.199,0.515-0.584,1.076c-0.387,0.559-0.796,1.159-1.238,1.794c-0.442,0.637-0.852,1.221-1.237,1.756      c-0.384,0.534-0.605,0.854-0.658,0.956c-0.332,0.51-0.625,1.034-0.881,1.574c-0.251,0.539-0.513,0.934-0.785,1.185      c-0.434,0.507-0.833,1.053-1.193,1.64c-0.358,0.589-0.733,1.161-1.115,1.723c-0.606,0.866-1.249,1.675-1.926,2.437      c-0.681,0.758-1.346,1.516-1.998,2.277c-0.602,0.76-1.201,1.497-1.803,2.204c-0.599,0.71-0.977,1.114-1.139,1.213      c-0.378,0.404-0.757,0.769-1.132,1.094c-0.379,0.327-0.756,0.667-1.133,1.017c-0.378,0.354-0.704,0.72-0.978,1.102      c-0.276,0.38-0.546,0.722-0.819,1.028c0.201,0.163,0.341,0.324,0.414,0.483c0.072,0.159,0.235,0.32,0.493,0.487      c0.608,0.439,1.242,0.983,1.897,1.634c0.658,0.648,1.289,1.192,1.9,1.632c0.869,0.502,1.66,1.064,2.368,1.688      c0.707,0.626,1.491,1.321,2.353,2.08c0.197,0.269,0.514,0.516,0.95,0.739c0.437,0.223,0.855,0.577,1.255,1.062      c0.2,0.217,0.416,0.393,0.647,0.532C200.317,207.777,200.533,207.903,200.739,208.015z"/>
				<path style="fill:#792760;" d="M242.458,174.815c-0.23,0.67-0.31,1.398-0.233,2.183c0.077,0.787,0.101,1.544,0.075,2.273      c-0.208-0.007-0.589,0.045-1.139,0.155c-0.553,0.112-1.063,0.185-1.535,0.22c-0.208-0.007-0.441-0.026-0.7-0.064      c-0.261-0.035-0.471-0.029-0.627,0.016l-1.496,0.262l-4.379-0.155c-1.095,0.012-2.072-0.009-2.931-0.066      c-0.86-0.055-1.838-0.103-2.933-0.143c-0.205-0.007-0.508,0.01-0.902,0.045c-0.391,0.04-0.667,0.028-0.819-0.03      c-0.011,0.264-0.045,0.471-0.101,0.624c-0.059,0.155-0.091,0.362-0.099,0.622c0.043,0.158,0.072,0.551,0.074,1.179      c0.005,0.626,0.004,1.316,0.005,2.073c0.001,0.759,0.002,1.448,0.007,2.076c0.003,0.626,0.002,1.015-0.005,1.173l-0.125,3.517      c-0.015,0.42-0.013,0.758,0.006,1.02c0.014,0.262,0.066,0.627,0.154,1.101l4.533,0.161c0.835,0.03,1.616,0.083,2.344,0.161      c0.728,0.078,1.534,0.131,2.419,0.164c0.472,0.016,1.029,0.063,1.681,0.137c0.649,0.077,1.155,0.068,1.525-0.023      c0.037,0.47,0.073,0.968,0.106,1.49c0.033,0.524,0.045,0.994,0.03,1.412l-0.046,1.25c-0.21-0.007-0.603,0.003-1.175,0.036      c-0.579,0.032-1.099,0.066-1.571,0.1l-3.284-0.115c-1.047,0.119-2.014,0.162-2.899,0.132c-0.887-0.032-1.876-0.066-2.97-0.106      c-0.208-0.007-0.47,0.009-0.784,0.05s-0.549,0.033-0.704-0.025l-0.103,2.894c-0.026,0.729-0.04,1.484-0.042,2.268      c0.001,0.782,0.066,1.463,0.205,2.041c-0.033,0.939-0.053,1.814-0.055,2.622c-0.004,0.808-0.015,1.55-0.04,2.227l-0.047,1.329      c0.107-0.048,0.431-0.009,0.974,0.111c0.542,0.125,1.204,0.255,1.982,0.385c0.777,0.132,1.442,0.235,1.986,0.304      c0.548,0.073,1.052,0.194,1.515,0.37c0.256,0.114,0.814,0.197,1.674,0.252c0.859,0.059,1.418,0.09,1.68,0.099      c1.296,0.205,2.57,0.353,3.819,0.449c1.248,0.096,2.524,0.222,3.823,0.37l2.815,0.099c0.208,0.007,0.444-0.023,0.705-0.092      c0.265-0.068,0.449-0.1,0.553-0.096c0.229,0.945,0.336,1.864,0.331,2.749c-0.005,0.887-0.024,1.774-0.054,2.661      c-0.426,0.245-0.951,0.357-1.576,0.335c-0.625-0.024-1.226-0.019-1.802,0.014c-0.363-0.014-0.754-0.053-1.168-0.12      c-0.414-0.069-0.832-0.108-1.247-0.123c-1.046,0.015-2.283-0.03-3.713-0.131c-1.433-0.103-2.67-0.121-3.716-0.054l-1.172-0.041      c-0.572-0.125-1.363-0.232-2.378-0.32c-1.013-0.086-1.782-0.141-2.304-0.159c-0.571-0.071-1.482-0.09-2.738-0.058      c-1.254,0.033-3.339,0.025-6.259-0.026c-0.106-0.004-0.458-0.017-1.057-0.036c-0.6-0.022-1.252-0.033-1.956-0.031      c-0.702,0.002-1.357,0.004-1.958,0.009c-0.598,0.003-0.952,0.004-1.056,0c0.04-1.092,0.009-2.162-0.083-3.211      c-0.094-1.047-0.124-2.01-0.094-2.9c0.018-0.519,0.015-1.12-0.012-1.8c-0.029-0.678,0.019-1.251,0.136-1.717      c0.163-1.664,0.262-3.304,0.293-4.92c0.029-1.617,0.076-3.259,0.135-4.927c0.014-0.363,0.009-1.016-0.01-1.956      c-0.017-0.939,0.016-1.826,0.095-2.659l-0.068-2.431c-0.04-0.364,0.022-1.029,0.188-1.988c0.16-0.96,0.231-1.805,0.205-2.537      c-0.011-1.199-0.025-2.256-0.044-3.171c-0.019-0.913-0.035-1.997-0.04-3.25c-0.015-1.096,0.037-2.175,0.151-3.242      c0.118-1.064,0.192-2.092,0.228-3.083c0.008-0.262,0.03-0.482,0.064-0.664c0.03-0.183,0.18-0.372,0.449-0.571l3.98,0.298      c0.783,0.079,1.681,0.11,2.698,0.094c1.018-0.013,1.917,0.018,2.695,0.096c0.21,0.008,0.405,0.002,0.591-0.018      c0.181-0.02,0.376-0.026,0.586-0.018c0.156,0.004,0.497,0.016,1.016,0.034c0.521,0.018,1.068,0.039,1.643,0.059      c0.571,0.021,1.095,0.04,1.562,0.055c0.469,0.018,0.756,0.056,0.859,0.109c0.101,0.055,0.412,0.118,0.932,0.189      c0.516,0.072,0.909,0.109,1.17,0.12c0.153,0.006,0.389,0.003,0.704-0.013c0.314-0.016,0.638-0.017,0.979-0.006      c0.339,0.011,0.664,0.024,0.977,0.035c0.314,0.011,0.549,0.019,0.702,0.025c0.572,0.125,1.103,0.183,1.6,0.174      c0.493-0.009,1.028,0.024,1.599,0.095c0.052,0.003,0.326,0.026,0.822,0.069c0.492,0.045,1.052,0.103,1.677,0.178      c0.622,0.074,1.181,0.132,1.677,0.175C242.134,174.792,242.406,174.815,242.458,174.815z"/>
			</g>
			<g>
				<path style="fill:#FFE300;" d="M138.651,336.584c0.333-1.462,0.684-2.903,1.054-4.334c0.37-1.426,0.721-2.87,1.051-4.328      c0.232-1.093,0.565-2.199,1.008-3.315c0.441-1.118,0.827-2.117,1.149-3.008c0.214-1.231,0.472-2.241,0.775-3.021      c0.303-0.781,0.477-1.28,0.522-1.499c-0.015-0.14,0.103-0.508,0.353-1.104c0.252-0.595,0.518-1.552,0.795-2.863      c0.138-0.657,0.255-1.343,0.35-2.067c0.095-0.72,0.246-1.414,0.456-2.079l1.831-6.39c0.189-0.803,0.32-1.404,0.381-1.803      c0.06-0.397,0.111-0.741,0.148-1.027c0.038-0.288,0.071-0.614,0.102-0.971c0.029-0.359,0.176-0.945,0.439-1.757      c0.263-0.81,0.476-1.583,0.643-2.314c0.166-0.729,0.379-1.498,0.645-2.312c0.091-0.437,0.183-0.874,0.274-1.311      c0.091-0.437,0.185-0.874,0.279-1.311c0.145-0.583,0.264-1.095,0.358-1.532c0.091-0.437,0.176-0.945,0.253-1.522      c0.124-0.155,0.206-0.36,0.25-0.616c0.041-0.252,0.15-0.565,0.319-0.942c0.391-0.328,0.723-0.525,0.997-0.593      c0.276-0.067,0.558-0.118,0.837-0.149l4.842-0.551c0.171,0.264,0.272,0.521,0.299,0.764c0.027,0.247,0.128,0.502,0.301,0.766      l0.601,1.531l0.411,0.807l1.532,3.128l2.504,5.151l0.893,1.283c0.155,0.127,0.33,0.409,0.522,0.845      c0.193,0.443,0.468,0.998,0.829,1.669c0.456,0.87,0.941,1.864,1.459,2.976c0.518,1.114,1.017,2.216,1.497,3.292      c0.69,1.703,1.242,2.952,1.652,3.759c0.413,0.805,0.845,1.643,1.301,2.516c0.244,0.258,0.418,0.556,0.53,0.901      c0.106,0.344,0.251,0.68,0.435,1.016l1.859,4.16l2.22,3.585c0.283,0.606,0.58,1.195,0.894,1.764      c0.314,0.568,0.679,1.112,1.093,1.632c0.722,1.341,1.323,2.568,1.807,3.686c0.481,1.118,1.085,2.347,1.807,3.686      c0.35,0.601,0.719,1.162,1.097,1.687c0.382,0.525,0.713,1.091,0.994,1.699c0.182,0.335,0.361,0.671,0.542,1.004      c0.179,0.34,0.359,0.67,0.538,1.005c0.423,0.591,0.796,1.208,1.117,1.845c0.323,0.64,0.703,1.326,1.141,2.056      c0.188,0.404,0.413,0.805,0.67,1.202c0.259,0.398,0.442,0.767,0.555,1.109c-0.353,0.039-0.707,0.045-1.066,0.017      c-0.359-0.034-0.679-0.03-0.958,0.001l-1.788,0.206c-0.632,0.07-1.193,0.15-1.678,0.241c-0.487,0.091-0.908,0.158-1.259,0.2      c-0.445-0.804-1.05-1.571-1.808-2.3c-0.758-0.731-1.555-1.654-2.393-2.768c-0.182-0.331-0.358-0.632-0.53-0.898      c-0.173-0.262-0.346-0.529-0.516-0.795c-0.19-0.404-0.661-0.95-1.413-1.651c-0.757-0.694-1.193-1.248-1.31-1.661      c-0.634-0.569-1.095-1.03-1.383-1.389c-0.29-0.358-0.631-0.691-1.023-1.004c-0.28,0.033-0.633,0.054-1.058,0.068      c-0.425,0.014-0.816,0.006-1.175-0.025c-0.428-0.02-0.89-0.006-1.38,0.049l-2.525,0.288c-0.351,0.042-0.719,0.102-1.099,0.18      c-0.384,0.081-0.958,0.18-1.725,0.302c-0.769,0.127-1.818,0.279-3.146,0.465c-1.328,0.186-3.117,0.409-5.361,0.664l-0.738,0.084      c-0.561,0.064-0.993,0.168-1.297,0.309s-0.748,0.138-1.331-0.009c-0.228-0.116-0.743-0.093-1.538,0.07      c-0.8,0.162-1.337,0.296-1.607,0.396l-1.358,0.262l-0.443,0.798c-0.094,0.435-0.281,0.953-0.569,1.556      c-0.287,0.603-0.574,1.202-0.861,1.803c-0.287,0.603-0.556,1.201-0.806,1.799c-0.253,0.598-0.43,1.078-0.528,1.444l-0.52,1.977      l-2.08,5.142c-0.109,0.297-0.305,0.461-0.584,0.494c-0.282,0.033-0.484,0.124-0.606,0.283l-5.367,0.612      c-0.315-0.251-0.475-0.41-0.482-0.479c-0.009-0.071,0.107-0.3,0.349-0.678c-0.033-0.284,0.027-0.697,0.178-1.248      c0.15-0.549,0.21-0.964,0.177-1.246c0.287-0.599,0.518-1.212,0.697-1.837c0.176-0.623,0.373-1.233,0.591-1.828L138.651,336.584z       M157.776,307.963c-0.333,0.184-0.56,0.385-0.675,0.612c-0.118,0.226-0.23,0.489-0.337,0.784      c-0.168,1.014-0.428,2.023-0.775,3.023c-0.347,0.998-0.676,2.012-0.985,3.043c-0.271,0.738-0.549,1.431-0.831,2.066      c-0.284,0.637-0.525,1.322-0.725,2.054c-0.472,1.477-0.945,2.934-1.42,4.374c-0.475,1.441-1.024,2.869-1.643,4.291l0.632-0.072      c0.559-0.064,1.071-0.087,1.536-0.068c0.465,0.02,0.934-0.072,1.409-0.268c0.406-0.188,0.804-0.27,1.2-0.242      c0.394,0.026,0.764,0.018,1.117-0.021c1.192-0.136,2.419-0.292,3.677-0.473c1.259-0.177,2.668-0.285,4.228-0.321      c0.781-0.017,1.498-0.099,2.159-0.247c0.658-0.145,1.337-0.258,2.039-0.339l0.946-0.107c-0.102-0.273-0.214-0.49-0.34-0.653      c-0.124-0.166-0.271-0.347-0.435-0.54c-0.343-0.528-0.696-0.987-1.06-1.373c-0.365-0.383-0.686-0.88-0.97-1.488l-4.524-6.947      c-0.182-0.333-0.373-0.774-0.576-1.32L157.776,307.963z"/>
				<path style="fill:#FFE300;" d="M186.847,317.018c-0.152-0.693-0.21-1.362-0.174-2.006c0.031-0.643,0.011-1.281-0.059-1.911      c-0.13-1.123-0.267-2.19-0.419-3.204c-0.152-1.012-0.291-2.082-0.419-3.204l-0.565-4.948c-0.04-0.348-0.098-0.714-0.177-1.098      c-0.079-0.382-0.175-0.742-0.283-1.086l-1.117-9.787c-0.028-0.852-0.128-1.886-0.301-3.111      c-0.176-1.223-0.283-2.008-0.322-2.361c-0.024-0.209-0.085-0.416-0.178-0.618c-0.095-0.202-0.114-0.376-0.058-0.527      c0.348-0.04,0.714-0.119,1.093-0.232c0.378-0.112,0.882-0.206,1.514-0.278c0.552-0.133,1.105-0.267,1.66-0.404      c0.552-0.133,1.18-0.242,1.883-0.32l4.734-0.539c0.561-0.064,1.055-0.102,1.48-0.116c0.425-0.012,0.996,0.012,1.714,0.073      c0.075,0.062,0.15,0.09,0.223,0.081c0.076,0.06,0.292,0.072,0.642,0.033c0.406-0.188,1.015-0.292,1.828-0.315      c0.816-0.025,1.649-0.045,2.499-0.071c0.571,0.003,1.11,0.087,1.627,0.241c0.512,0.156,0.946,0.213,1.299,0.174      c0.14-0.018,0.503,0.064,1.094,0.246c0.587,0.181,1.215,0.394,1.884,0.638c0.669,0.244,1.279,0.459,1.834,0.644      c0.555,0.185,0.939,0.303,1.159,0.348c0.951,0.247,1.86,0.588,2.729,1.022c0.865,0.434,1.545,0.941,2.037,1.525      c0.681,0.349,1.198,0.841,1.555,1.477c0.355,0.636,0.778,1.209,1.263,1.722c0.241,0.258,0.421,0.59,0.54,1.003      c0.117,0.413,0.336,0.779,0.658,1.097c0.408,0.451,0.751,1.14,1.036,2.066c0.283,0.93,0.5,1.919,0.656,2.968      c0.158,1.047,0.261,2.119,0.314,3.214c0.055,1.095,0.093,2.069,0.121,2.919c-0.061,0.719-0.128,1.383-0.2,1.994      c-0.073,0.613-0.134,1.314-0.186,2.099c-0.032,0.362-0.145,0.765-0.342,1.214c-0.199,0.447-0.349,0.855-0.447,1.224      c-0.41,1.395-1.174,2.798-2.291,4.205l-0.828,1.163c-0.264,0.171-0.49,0.372-0.677,0.605c-0.187,0.235-0.41,0.475-0.666,0.717      c-0.311,0.392-0.682,0.72-1.113,0.98c-0.432,0.262-0.805,0.59-1.116,0.98c-0.983,0.112-1.785,0.382-2.412,0.809      c-0.628,0.429-1.376,0.55-2.25,0.363c-0.703,0.079-1.325,0.243-1.865,0.481c-0.543,0.238-1.092,0.389-1.654,0.452l-0.63,0.073      c0.039,0.353,0.491,0.906,1.36,1.659c0.867,0.753,1.516,1.462,1.948,2.121c0.625,0.5,1.191,0.951,1.699,1.353      c0.507,0.407,1.077,0.89,1.713,1.457c1.006,0.74,1.752,1.347,2.231,1.826c0.482,0.477,1.225,1.086,2.236,1.826      c0.461,0.302,1.046,0.927,1.76,1.876c0.711,0.95,1.298,1.576,1.759,1.878c0.492,0.584,0.804,0.973,0.933,1.172      c0.13,0.199,0.349,0.425,0.662,0.671c0.649,0.709,1.181,1.342,1.601,1.898c0.42,0.554,0.871,1.091,1.357,1.602      c-0.28,0.672-0.695,1.375-1.25,2.115c-0.557,0.739-1.294,1.447-2.211,2.12c-0.166-0.196-0.398-0.366-0.696-0.509      c-0.303-0.141-0.538-0.346-0.711-0.611c-0.157-0.125-0.678-0.494-1.566-1.1c-0.885-0.612-1.646-1.201-2.28-1.767      c-0.408-0.451-1.06-1.035-1.958-1.748c-0.898-0.713-1.888-1.438-2.965-2.169c-1.077-0.731-2.055-1.486-2.925-2.276      c-0.872-0.788-1.546-1.406-2.023-1.848c-0.235-0.187-0.624-0.482-1.166-0.881c-0.544-0.401-1.123-0.797-1.734-1.189      c-0.615-0.393-1.194-0.788-1.736-1.189c-0.542-0.399-0.932-0.692-1.167-0.878c-0.124,0.155-0.197,0.288-0.219,0.397      c-0.024,0.109-0.065,0.238-0.116,0.387c-0.056,0.151-0.075,0.292-0.059,0.433c0.16,1.405,0.259,2.724,0.293,3.964      c0.034,1.24,0.12,2.456,0.256,3.648c0.07,0.632,0.127,1.284,0.168,1.954c0.041,0.672,0.11,1.427,0.205,2.268l0.42,3.685      c-0.142,0.015-0.384,0.059-0.732,0.135c-0.345,0.076-0.726,0.172-1.137,0.291c-0.757,0.225-1.505,0.368-2.246,0.413      c-0.741,0.05-1.464,0.116-2.163,0.197c-0.914,0.103-1.668,0.188-2.264,0.257c-0.596,0.067-1.193-0.009-1.783-0.224      c-0.353,0.042-0.564,0.063-0.632,0.072c-0.071,0.009-0.303-0.144-0.693-0.455l-0.842-8.326l0.056-1.392l-0.595-3.342      l-1.014-10.76c0.036-0.925,0.014-1.6-0.069-2.019C186.797,318.3,186.784,317.734,186.847,317.018z M203.755,302.615      c0.043-0.856,0.017-1.724-0.083-2.602c-0.1-0.875-0.227-1.661-0.375-2.355c-0.048-0.419-0.221-0.684-0.518-0.793      c-0.25-0.329-0.473-0.55-0.662-0.671c-0.192-0.119-0.4-0.237-0.628-0.353c-0.539-0.367-1.104-0.641-1.691-0.822      c-0.591-0.179-1.174-0.308-1.749-0.384c-0.211,0.024-0.372,0.182-0.478,0.477c-0.056,0.151-0.078,0.259-0.069,0.328      l1.223,10.734l1.787-0.203c0.311-0.388,0.64-0.62,0.988-0.698c0.345-0.076,0.64-0.305,0.88-0.686      c0.382-0.397,0.684-0.701,0.911-0.903C203.516,303.481,203.669,303.125,203.755,302.615z"/>
				<path style="fill:#FFE300;" d="M255.639,337.855c-0.142,0.015-0.384,0.077-0.726,0.188c-0.344,0.11-0.689,0.203-1.036,0.277      c-0.347,0.076-0.642,0.144-0.882,0.208c-0.242,0.064-0.329,0.092-0.258,0.085l-5.156,0.587      c-1.138-0.015-2.078,0.004-2.819,0.052c-0.741,0.05-1.389,0.139-1.942,0.276c-0.142,0.017-0.285-0.022-0.437-0.112      c-0.154-0.088-0.269-0.163-0.347-0.225c-0.141-0.624-0.27-1.57-0.377-2.835c-0.108-1.266-0.202-2.249-0.283-2.953l-0.169-1.474      c0.006-1.207-0.083-2.28-0.258-3.222c-0.18-0.938-0.336-2.002-0.472-3.196l-0.266-2.317c0.177-1.582,0.078-3.207-0.287-4.872      c-0.368-1.661-0.63-3.196-0.79-4.601l-3.06-26.834c-0.079-0.701-0.295-1.031-0.646-0.991c-0.992,0.041-1.767,0.094-2.326,0.158      c-0.564,0.063-1.33,0.186-2.305,0.369c-0.422,0.048-1.153,0.025-2.192-0.071c-1.042-0.093-1.736-0.084-2.077,0.025      c-0.335,0.179-1.055,0.261-2.156,0.245c-1.106-0.016-1.832-0.005-2.183,0.034c-0.351,0.042-0.667,0.06-0.953,0.058      c-0.285-0.004-0.579-0.097-0.883-0.274l-0.745-6.522c0.264-0.175,0.677-0.292,1.239-0.356c0.561-0.064,1.123-0.127,1.684-0.191      c0.701-0.081,1.331-0.152,1.895-0.217c0.561-0.064,1.083-0.161,1.567-0.284c0.14-0.015,0.636-0.038,1.486-0.064      c0.85-0.026,1.558-0.036,2.128-0.029c0.404-0.19,0.817-0.308,1.238-0.354c1.045-0.192,2.026-0.304,2.947-0.336      c0.639-0.004,1.095-0.055,1.368-0.157c0.271-0.102,0.689-0.185,1.251-0.25l1.684-0.191l2.866-0.113      c0.701-0.079,1.4-0.179,2.1-0.294c0.696-0.116,1.4-0.177,2.11-0.187c1.628-0.043,3.195-0.168,4.702-0.377      c1.502-0.207,2.737-0.434,3.705-0.688c0.49-0.055,1.375-0.086,2.655-0.089c1.28-0.003,2.518-0.037,3.721-0.104      c0.776-0.017,1.409-0.09,1.893-0.218c0.481-0.124,0.903-0.172,1.263-0.143l0.551,4.84c0.033,0.282,0.086,0.453,0.166,0.515      c0.078,0.062,0.079,0.382,0.003,0.959c-0.038,0.288-0.302,0.479-0.789,0.569c-0.487,0.094-0.872,0.155-1.149,0.186      c-1.796,0.49-3.449,0.784-4.964,0.885c-1.519,0.101-2.977,0.233-4.38,0.394c-0.564,0.063-0.999,0.113-1.315,0.149      c-0.316,0.036-0.682,0.113-1.093,0.232l0.276,2.42c0.064,0.561,0.142,1.407,0.235,2.531c0.093,1.126,0.174,2.006,0.247,2.639      c0.033,0.28,0.055,0.49,0.073,0.63c0.015,0.142,0.018,0.337,0.012,0.583c-0.007,0.251-0.018,0.608-0.038,1.072      c-0.017,0.463-0.084,1.129-0.198,1.994c0.136,1.194,0.251,2.211,0.348,3.052c0.094,0.843,0.2,1.613,0.316,2.311      c0.116,0.696,0.21,1.38,0.286,2.045c0.078,0.669,0.166,1.457,0.272,2.37l0.119,1.052c-0.146,1.224-0.081,2.425,0.197,3.604      c0.276,1.176,0.483,2.359,0.62,3.551L255.639,337.855z"/>
			</g>
			<g>
				<path style="fill:#FFFCDE;" d="M63.274,290.539c-0.22,0.025-0.711-0.006-1.473-0.087c-0.762-0.079-1.312-0.127-1.648-0.143      c-1.064-0.048-2.624-0.735-4.67-2.064c-2.048-1.327-3.352-2.489-3.911-3.485c-0.346-0.574-0.508-1.014-0.487-1.327      c0.02-0.308,0.204-0.677,0.544-1.107c0.592-0.681,1.373-0.922,2.343-0.727c0.97,0.199,1.849,0.809,2.636,1.832      c0.958,1.064,2.075,2.052,3.349,2.966c1.447,0.952,2.997,1.332,4.649,1.142c1.762-0.199,2.707-0.476,2.833-0.825      c0.122-0.402,0.541-0.648,1.256-0.73c0.662-0.074,0.972-0.274,0.935-0.606c-0.043-0.385,0.153-0.603,0.596-0.654      c0.385-0.043,0.84-0.443,1.369-1.204c0.527-0.756,0.764-1.355,0.715-1.795c-0.057-0.495,0.235-1.365,0.874-2.61l0.168-2.194      l-1.222-3.376c-0.363-0.739-0.677-1.289-0.942-1.651c-0.263-0.357-0.505-0.637-0.722-0.836      c-0.218-0.196-0.796-0.619-1.732-1.268c-0.939-0.643-1.835-1.281-2.687-1.91c-3.78-2.804-6.344-4.518-7.697-5.145      c-1.24-0.582-2.484-1.473-3.737-2.672c-0.246-0.192-0.725-0.725-1.435-1.592c-0.715-0.867-1.223-1.421-1.529-1.665      c-1.296-1.082-1.994-3.539-2.097-7.378c-0.051-2.893,0.642-5.259,2.079-7.094c1.435-1.838,3.909-3.263,7.418-4.279      c4.324-1.215,7.575-1.309,9.757-0.272c0.595,0.32,0.983,0.921,1.168,1.791c0.182,0.872,0.076,1.525-0.319,1.957      c-0.351,0.377-0.689,0.57-1.023,0.579c-0.334,0.009-1.046-0.116-2.136-0.382c-1.844-0.518-3.934-0.5-6.27,0.043      c-3.474,0.845-5.05,2.669-4.729,5.473c0.187,1.654,0.65,3.024,1.388,4.113c0.738,1.089,1.973,2.146,3.709,3.173      c1.852,1.074,3.383,2.043,4.599,2.906c1.028,0.722,1.895,1.207,2.592,1.461c1.52,0.613,3.475,2.227,5.866,4.855      s3.657,4.549,3.793,5.759c0.082,0.715,0.38,1.379,0.897,1.988c0.459,0.617,0.395,2.495-0.194,5.628      c-0.611,2.972-1.617,5.403-3.018,7.29c-1.506,1.958-3.341,3.488-5.5,4.601C67.465,290.129,65.348,290.634,63.274,290.539z"/>
				<path style="fill:#FFFCDE;" d="M89.775,276.724c-1.357-0.179-2.608-0.624-3.749-1.33c-1.141-0.706-2.615-1.905-4.425-3.598      c-3.927-3.62-5.104-9.762-3.522-18.422c0.475-2.675,1.527-4.941,3.157-6.8c1.962-2.345,3.659-3.864,5.086-4.556      c1.426-0.69,3.848-1.233,7.262-1.622c2.972-0.338,4.81-0.477,5.515-0.42c0.703,0.062,1.794,0.454,3.271,1.178      c1.3,0.631,2.296,1.298,2.991,1.999c0.693,0.704,1.678,2.013,2.958,3.931l3.014,4.426l0.174,6.673      c-0.017,2.291-0.114,3.889-0.288,4.801c-0.178,0.915-0.63,2.08-1.36,3.501c-1.845,3.392-3.18,5.135-4.005,5.229      c-0.277,0.031-0.965,0.61-2.062,1.739c-1.001,1.007-1.704,1.448-2.107,1.329c-0.118-0.041-0.592,0.206-1.421,0.748      c-0.831,0.539-2.392,0.926-4.679,1.161C93.298,276.924,91.36,276.933,89.775,276.724z M100.299,271.425      c1.637-0.801,3.058-2.273,4.264-4.422c1.205-2.144,2.083-4.725,2.631-7.746c0.556-2.962,0.304-5.667-0.757-8.111      c-0.777-1.92-1.412-2.853-1.908-2.794c-0.442,0.051-0.897-0.29-1.371-1.014c-1.046-1.833-2.85-2.993-5.417-3.485      c-1.611-0.429-3.609-0.088-5.992,1.02c-1.969,0.84-3.201,1.76-3.701,2.763c-0.459,0.889-0.93,1.639-1.418,2.252      c-1.768,2.6-1.81,7.348-0.133,14.24c0.608,2.385,1.506,4.152,2.696,5.3c1.125,1.042,2.36,1.737,3.712,2.086      c1.347,0.348,3.168,0.531,5.459,0.548C99.079,271.982,99.724,271.768,100.299,271.425z"/>
				<path style="fill:#FFFCDE;" d="M115.416,283.256c-0.513-0.557-0.802-1.415-0.88-2.578c-0.076-1.163,0.07-2.07,0.442-2.728      c0.256-0.699,0.38-1.799,0.375-3.306c0.019-2.288,0.083-4.162,0.198-5.625c0.046-0.566,0.096-1.59,0.15-3.073      c0.052-1.485,0.105-2.506,0.152-3.07c0.212-2.536,0.398-4.343,0.554-5.42c0.164-1.021,0.24-4.013,0.232-8.979      c-0.013-4.518,0.079-6.897,0.274-7.144c0.096-0.122-0.275-0.943-1.118-2.464c-1.195-2.15-1.099-4.254,0.285-6.307      c0.517-0.843,1.181-1.252,1.993-1.234c0.811,0.023,1.376,0.46,1.698,1.315c0.345,1.077,0.702,1.76,1.069,2.053      c0.43,0.34,0.824,1.107,1.184,2.289c1.282,3.427,3.531,7.495,6.743,12.201c1.456,2.011,2.312,2.914,2.57,2.721      c0.5-1.005,1.182-4.192,2.046-9.565c0.868-5.368,1.256-8.688,1.166-9.961c-0.185-2.601,1.205-4.348,4.172-5.244l1.696-0.53      l0.707,3.267c0.621,2.998,0.989,4.988,1.102,5.982c0.426,3.744,1.938,10.153,4.533,19.23c0.847,3.025,1.398,5.638,1.647,7.84      c0.207,1.819,0.757,4.321,1.651,7.51c0.894,3.189,1.557,4.954,1.985,5.296c0.367,0.291,0.324,0.882-0.133,1.772      c-0.457,0.892-0.934,1.36-1.429,1.417c-0.495,0.057-0.723,0.251-0.686,0.579c0.031,0.277-0.314,0.551-1.035,0.832      c-0.721,0.276-1.286,0.356-1.688,0.234c-1.269-0.359-2.465-3.51-3.589-9.463c-1.398-6.871-2.137-10.411-2.215-10.625      c-0.588-2.22-1.244-5.519-1.966-9.902c-0.478-2.732-1.024-5.318-1.637-7.76l-0.566-2.028l-0.738,1.591      c-0.587,1.239-0.874,2.137-0.867,2.695c-0.002,0.947-0.066,1.622-0.186,2.029c-0.329,1.041-0.745,4.463-1.255,10.263      c-0.072,1.347-0.391,2.697-0.961,4.044c-0.573,1.351-1.08,2.046-1.52,2.097c-0.66,0.076-1.68-0.531-3.054-1.827      c-0.936-0.896-1.763-1.906-2.476-3.024c-0.712-1.116-1.899-3.308-3.555-6.58c-0.149-0.319-0.332-0.727-0.558-1.234      c-0.224-0.5-0.417-0.966-0.578-1.397c-0.161-0.431-0.319-0.843-0.478-1.242c-0.155-0.401-0.286-0.692-0.392-0.878      c-0.104-0.183-0.182-0.243-0.231-0.182c-0.143,0.185-0.206,3.065-0.186,8.639c-0.059,9.266-0.279,15.399-0.664,18.398      c-0.059,0.454-0.153,1.342-0.28,2.67c-0.129,1.326-0.218,2.241-0.272,2.75C118.494,284.328,117.35,285.545,115.416,283.256z"/>
				<path style="fill:#FFFCDE;" d="M156.42,269.713c-0.626-0.598-1.031-1.345-1.215-2.247c-0.188-0.9-0.416-3.258-0.684-7.078      l-0.5-8.056l-1.459-0.337c-0.988-0.333-1.534-0.97-1.639-1.904c-0.063-0.55,0.154-0.854,0.649-0.911      c0.715-0.082,1.131-0.099,1.247-0.058c0.338,0.02,0.522-0.575,0.55-1.775c0.032-1.202-0.048-2.884-0.239-5.037      c-0.195-2.206-0.065-4.245,0.392-6.111c0.455-1.864,1.069-2.842,1.842-2.93c0.715-0.08,1.112-0.264,1.193-0.553      c0.378-0.601,3.131-0.886,8.268-0.857c0.275-0.031,1.13-0.104,2.57-0.211c1.438-0.109,2.544-0.179,3.322-0.214      c2.282-0.033,3.87,0.19,4.762,0.673c0.892,0.484,1.173,1.246,0.846,2.287c-0.256,0.697-0.54,1.137-0.854,1.312      c-0.314,0.175-1.198,0.263-2.649,0.259c-1.279,0.035-2.575-0.096-3.891-0.391c-1.544-0.33-3.305-0.38-5.29-0.153l-4.084,0.133      l0.532,3.202c0.045,0.385,0.049,1.289,0.017,2.716c-0.032,1.424-0.04,2.472-0.019,3.138l0.157,3.581l3.008-0.762      c5.438-1.23,8.296-1.361,8.575-0.391c0.123,0.601-0.117,0.935-0.722,1.004c-0.717,0.082-1.199,0.276-1.44,0.582      c-0.293,0.371-1.506,0.87-3.637,1.501c-2.132,0.635-3.534,0.907-4.214,0.816c-0.572-0.101-0.894,0.241-0.971,1.033      c-0.126,0.85-0.087,3.888,0.118,9.105c0.026,1.226,0.117,2.261,0.27,3.108c0.151,0.846,0.322,1.484,0.51,1.909      c0.188,0.427,0.365,0.628,0.528,0.608c1.435-0.164,3.731-0.93,6.895-2.293c3.161-1.363,5.289-2.389,6.384-3.069      c0.991-0.616,1.658-0.971,2.012-1.069c0.351-0.094,0.927-0.047,1.73,0.14c2.015,0.551,2.022,1.583,0.018,3.092      c-0.36,0.267-0.747,0.532-1.161,0.803c-4.102,2.7-8.267,4.316-12.501,4.856c-2.306,0.316-4.35,0.745-6.128,1.285      c-0.807,0.256-1.384,0.339-1.732,0.238C157.442,270.586,156.985,270.263,156.42,269.713z"/>
			</g>
		</g>
		<g>
			<g>
				<path style="fill:#EA49B8;" d="M407.35,317.992c-19.975-7.65-40.386-15.493-56.747-29.271      c-35.656-30.027-44.412-80.855-47.531-127.365c-2.337-34.849-3.328-71.426-14.575-103.877l-26.37,27.98l3.492,35.563      l9.76,34.706l-2.603,38.184l9.757,99.366l3.639,4.079l-2.609,6.411l2.898,29.513l58.262-0.082l5.654-0.008l58.262-0.082      l1.345-14.106C409.106,318.666,408.227,318.328,407.35,317.992z"/>
			</g>
		</g>
		<g>
			<polygon style="fill:#FFE300;" points="344.336,57.401 259.383,57.52 262.127,85.459 432.279,85.221 434.944,57.274      349.99,57.393    "/>
		</g>
		<path style="fill:#EAC803;" d="M295.754,85.412c-1.792-9.546-4.126-18.9-7.257-27.933l-29.114,0.041l2.744,27.939L295.754,85.412z    "/>
		<g>
			<g>
				<path style="fill:#D3A102;" d="M273.202,57.5l-2.627,0.004c-0.008,3.265-0.011,6.615-0.006,10.039      c0.009,6.242,0.039,12.255,0.087,17.904l2.541-0.004c0.033-5.649,0.046-11.662,0.037-17.904      C273.23,64.116,273.219,60.765,273.202,57.5z"/>
			</g>
			<g>
				<path style="fill:#E5B400;" d="M295.208,57.469l-2.627,0.004c-0.008,3.265-0.01,6.615-0.005,10.039      c0.009,6.242,0.039,12.255,0.087,17.904l2.541-0.004c0.033-5.649,0.046-11.662,0.037-17.904      C295.237,64.085,295.225,60.734,295.208,57.469z"/>
			</g>
			<path style="fill:#D3A102;" d="M292.664,85.416l2.541-0.004c0.005-0.9,0.009-1.825,0.013-2.743     c-0.778-3.896-1.648-7.759-2.633-11.578C292.598,76.054,292.625,80.858,292.664,85.416z"/>
			<g>
				<path style="fill:#E5B400;" d="M317.215,57.439l-2.627,0.004c-0.008,3.265-0.01,6.615-0.006,10.039      c0.009,6.242,0.039,12.255,0.087,17.904l2.541-0.004c0.033-5.648,0.046-11.662,0.037-17.904      C317.244,64.054,317.232,60.703,317.215,57.439z"/>
			</g>
			<g>
				<path style="fill:#E5B400;" d="M339.222,57.408l-2.627,0.004c-0.008,3.265-0.01,6.615-0.005,10.04      c0.009,6.242,0.039,12.255,0.087,17.904l2.541-0.004c0.032-5.648,0.046-11.662,0.037-17.904      C339.251,64.023,339.239,60.672,339.222,57.408z"/>
			</g>
			<g>
				<path style="fill:#E5B400;" d="M361.229,57.377l-2.627,0.004c-0.008,3.265-0.01,6.615-0.005,10.04      c0.009,6.242,0.039,12.255,0.088,17.904l2.541-0.004c0.033-5.648,0.046-11.661,0.037-17.904      C361.257,63.992,361.246,60.642,361.229,57.377z"/>
			</g>
			<g>
				<path style="fill:#E5B400;" d="M383.235,57.346l-2.627,0.004c-0.008,3.265-0.01,6.615-0.005,10.039      c0.009,6.242,0.039,12.255,0.088,17.904l2.541-0.003c0.032-5.649,0.046-11.662,0.037-17.904      C383.264,63.962,383.252,60.611,383.235,57.346z"/>
			</g>
			<g>
				<path style="fill:#E5B400;" d="M405.242,57.315l-2.627,0.004c-0.008,3.265-0.01,6.615-0.006,10.039      c0.009,6.242,0.039,12.255,0.087,17.904l2.541-0.004c0.033-5.649,0.046-11.662,0.037-17.904      C405.271,63.931,405.259,60.58,405.242,57.315z"/>
			</g>
			<g>
				<path style="fill:#E5B400;" d="M427.249,57.284l-2.627,0.004c-0.008,3.265-0.01,6.615-0.006,10.039      c0.009,6.242,0.039,12.255,0.087,17.904l2.541-0.004c0.032-5.649,0.046-11.662,0.037-17.904      C427.278,63.9,427.266,60.549,427.249,57.284z"/>
			</g>
		</g>
		<g>
			<polygon style="fill:#A03589;" points="306.39,193.911 421.933,193.703 428.886,120.793 265.619,121.021    "/>
		</g>
		<path style="fill:#792760;" d="M268.742,152.834l4.033,41.077l33.615-0.047c-1.576-10.861-2.6-21.799-3.318-32.508    c-0.893-13.318-1.591-26.887-2.739-40.383l-34.715,0.049L268.742,152.834z"/>
		<g>
			<polygon style="fill:#FFE300;" points="283.566,303.803 411.451,303.624 412.434,293.311 282.554,293.493    "/>
		</g>
		<g>
			
				<ellipse transform="matrix(1 -0.0014 0.0014 1 -0.342 0.4804)" style="fill:#FFE300;" cx="345.087" cy="246.012" rx="30.255" ry="38.789"/>
		</g>
		<g>
			<path style="fill:#2BB680;" d="M363.653,245.986c0.018,13.146-8.279,23.814-18.532,23.829     c-10.253,0.014-18.58-10.631-18.599-23.777c-0.018-13.146,8.279-23.814,18.532-23.829     C355.307,222.195,363.634,232.84,363.653,245.986z"/>
		</g>
		<g>
			<path style="fill:#A03589;" d="M389.102,393.273l-82.936,0.116c-8.663,0.012-15.902-6.591-16.684-15.219l-3.31-36.508     l122.779-0.172l-3.208,36.517C404.985,386.637,397.765,393.261,389.102,393.273z"/>
		</g>
		<g>
			<g>
				<path style="fill:#FFE300;" d="M301.464,151.387c4.584,21.621,27.754,30.939,47.82,31.291      c22.489,0.395,42.533-16.374,45.881-38.454c0.562-3.708-5.104-5.293-5.671-1.555c-2.886,19.03-17.636,31.443-36.381,33.916      c-18.281,2.412-41.864-7.344-45.982-26.77C306.345,146.109,300.68,147.69,301.464,151.387L301.464,151.387z"/>
			</g>
		</g>
		<path style="fill:#EAC803;" d="M346.215,284.765c-14.245-13.539-23.78-30.653-30.22-49.421c-0.756,3.404-1.167,6.994-1.162,10.71    c0.03,21.423,13.6,38.77,30.309,38.747C345.502,284.8,345.858,284.781,346.215,284.765z"/>
		<path style="fill:#EAC803;" d="M302.708,155.758c-0.15-2.364-0.298-4.734-0.445-7.109c-0.662,0.645-1.042,1.589-0.799,2.738    C301.786,152.907,302.209,154.359,302.708,155.758z"/>
		<path style="fill:#EAC803;" d="M356.609,293.389l-74.055,0.104l0.563,5.732l0.45,4.578l90.077-0.126    C367.714,300.643,361.991,297.271,356.609,293.389z"/>
		<g>
			<g>
				<path style="fill:#FFE300;" d="M334.321,144.345c0.007,5.171-4.179,9.369-9.35,9.376c-5.171,0.007-9.368-4.179-9.376-9.35      c-0.007-5.171,4.179-9.368,9.35-9.376C330.116,134.988,334.314,139.174,334.321,144.345z"/>
			</g>
			<g>
				<path style="fill:#FFE300;" d="M380.991,144.279c0.007,5.171-4.179,9.368-9.35,9.376c-5.171,0.007-9.368-4.179-9.376-9.349      c-0.007-5.171,4.179-9.368,9.35-9.376C376.786,134.923,380.983,139.109,380.991,144.279z"/>
			</g>
		</g>
		<g>
			<g>
				<g>
					<path style="fill:#FFFCDE;" d="M388.15,377.426c-0.205-3.675-11.188-6.052-24.532-5.309c-13.344,0.743-23.995,4.325-23.79,8       c0.205,3.675,11.188,6.052,24.532,5.309C377.703,384.683,388.355,381.101,388.15,377.426z"/>
				</g>
			</g>
			<g>
				<g>
					<path style="fill:#FFFCDE;" d="M331.452,379.025c0.181-3.677-2.414-6.792-5.795-6.958c-3.381-0.166-6.269,2.679-6.45,6.355       c-0.181,3.676,2.414,6.792,5.795,6.958C328.383,385.547,331.271,382.702,331.452,379.025z"/>
				</g>
			</g>
			<g>
				<g>
					<path style="fill:#FFFCDE;" d="M403.695,270.603c3.68,0.081,6.942-12.548,7.286-28.207c0.344-15.659-2.36-28.418-6.04-28.499       c-3.68-0.081-6.942,12.548-7.286,28.207C397.311,257.763,400.015,270.523,403.695,270.603z"/>
				</g>
			</g>
			<g>
				<g>
					<path style="fill:#FFFCDE;" d="M405.838,206.798c3.68,0.094,6.773-4.158,6.91-9.497c0.137-5.339-2.735-9.744-6.415-9.838       c-3.68-0.094-6.773,4.158-6.91,9.497C399.286,202.299,402.159,206.704,405.838,206.798z"/>
				</g>
			</g>
		</g>
	</g>
</g>















</svg>
