<?xml version="1.0" encoding="UTF-8"?>
<!-- Generator: Adobe Illustrator 25.2.1, SVG Export Plug-In . SVG Version: 6.00 Build 0)  -->
<svg xmlns="http://www.w3.org/2000/svg" xmlns:xlink="http://www.w3.org/1999/xlink" version="1.1" id="Capa_1" x="0px" y="0px" viewBox="0 0 512.001 512.001" style="enable-background:new 0 0 512.001 512.001;" xml:space="preserve" width="512" height="512">
<g>
	<path style="fill:#FFFFFF;" d="M511.791,121.281c-0.36-2.542-3.041-15.246-20.528-15.646c-3.792-0.087-8.027,0.388-12.217,1.365   c-2.287,0.529-4.796,1.246-7.303,2.21c0.08-0.073,0.154-0.135,0.234-0.209c18.852-17.524,13.391-29.056,8.443-34.386   c-3.201-3.439-7.597-5.393-12.379-5.503c-2.468-0.057-9.976-0.228-22.514,11.427c-3.488,3.242-6.461,6.606-8.596,9.729   c-2.719,3.976-3.971,7.575-4.352,10.738l-4.091-2.253c-0.444-0.245-0.901-0.464-1.354-0.693c2.071-5.753,2.726-11.987,3.139-15.931   c0.87-8.439,3.184-30.855-14.959-33.586c-0.693-0.104-1.465-0.172-2.166-0.188c-12.209-0.28-19.452,9.739-21.524,29.761   c-0.857,8.213-0.419,14.041,0.496,18.214c-0.701,0.272-1.393,0.565-2.078,0.873c-1.317-4.237-3.19-7.961-4.382-10.329   c-4.732-9.326-10.727-19.296-22.006-19.554c-2.259-0.052-4.471,0.333-6.512,1.116c-4.569,1.735-8.222,5.395-10.022,10.042   c-3.496,9.031,0.933,20.145,3.867,25.931c1.877,3.724,4.349,7.766,7.444,11.174c-1.882,1.706-3.538,3.689-4.823,5.98   c-3.126,5.565-3.894,12.014-2.166,18.158c0.247,0.881,0.543,1.74,0.882,2.575l-0.067,0.127   c-13.228-1.242-28.269-6.666-44.791-16.161c-6.797-3.905-13.404-8.112-20.398-12.565c-16.504-10.508-33.569-21.373-53.292-28.042   c-17.846-6.037-35.181-9.17-52.989-9.578c-17.349-0.397-34.927,1.807-53.742,6.742C98.9,90.2,72.716,104.74,53.319,123.761   c-32.26,31.627-51.133,76.101-53.144,125.234c-0.659,16.062,0.548,32.3,3.57,48.127c10.743,55.954,46.075,103.293,99.485,133.295   c5.136,2.886,10.475,5.616,15.87,8.118c20.281,9.399,42.071,16.284,64.764,20.465c7.454,1.374,15.067,2.46,22.625,3.226   c7.227,0.733,14.557,1.188,21.788,1.354l1.046,0.022c7.625,0.146,15.317-0.025,22.867-0.51c15.379-0.99,30.545-3.3,45.077-6.864   c5.687-1.394,11.409-3.112,17.01-5.105c5.484-1.951,10.974-4.208,16.318-6.708c5.249-2.455,10.482-5.203,15.557-8.164   c12.354-7.207,24.19-15.904,35.178-25.85c2.149-1.944,4.284-3.954,6.342-5.969c8.208-8.031,15.885-16.787,22.825-26.026l-0.002,0   c34.506-46.425,47.802-108.687,33.949-164.969c-0.32-1.284-0.653-2.567-1.005-3.847l6.863-12.246   c7.171-1.116,13.512-5.445,17.138-11.913c0.432-0.77,0.809-1.56,1.151-2.36c2.015,0.801,4.01,1.458,5.867,1.987   c4.576,1.314,9.158,2.058,13.253,2.152c17.495,0.401,20.724-12.143,21.183-14.606c3.254-17.137-16.336-22.77-23.752-24.903   c-1.992-0.567-3.829-1.012-5.594-1.402c2.51-0.283,5.26-0.752,8.294-1.452C505.383,140.748,513.44,132.813,511.791,121.281z"/>
	<g>
		<g>
			<path style="fill:#14ACD1;" d="M376.529,156.645c-26.002,7.42-53.816-2.642-77.261-16.115     c-23.445-13.473-45.146-30.624-70.761-39.288c-32.807-11.096-63.674-11.32-97.285-2.505     c-24.309,6.375-48.384,19.127-66.384,36.775c-41.522,40.71-55.705,102.373-44.93,158.506     c11.299,58.856,52.526,104.748,106.112,129.584c50.987,23.631,112.241,30.154,167.326,16.641     c41.78-10.249,78.388-37.632,103.99-71.722c38.859-51.742,49.184-129.933,16.846-187.395"/>
		</g>
		<g>
			<g>
				<path style="fill:#1795CC;" d="M126.021,423.603c50.987,23.632,112.241,30.154,167.326,16.641      c41.78-10.25,78.388-37.632,103.99-71.722c34.148-45.47,46.249-111.36,26.738-165.664      c-50.937,43.723-79.533,113.841-140.408,142.129c-42.762,19.871-93.179,14.415-138.264,0.602      c-40.595-12.438-80.269-32.099-108.074-64.185c-8.246-9.515-15.263-20.276-20.709-31.745      c-0.607,14.851,0.492,29.791,3.289,44.359C31.207,352.875,72.435,398.767,126.021,423.603z"/>
			</g>
		</g>
		<g>
			<g>
				<g>
					<path style="fill:#6125B7;" d="M374.696,106.991c1.394-0.892-0.555-6.406-3.71-12.67c-3.173-6.254-6.457-11.093-8.002-10.5       c-1.519,0.578-0.623,6.623,2.701,13.18C368.993,103.565,373.33,107.872,374.696,106.991z"/>
				</g>
			</g>
			<g>
				<g>
					<path style="fill:#6125B7;" d="M409.654,95.512c1.646,0.095,3.37-6.669,4.248-15.073c0.869-8.405,0.573-15.379-1.057-15.624       c-1.614-0.245-3.967,6.454-4.852,15.01C407.1,88.38,408.025,95.419,409.654,95.512z"/>
				</g>
			</g>
			<g>
				<g>
					<path style="fill:#6125B7;" d="M468.374,85.827c-1.117-1.202-6.33,1.828-11.645,6.767c-5.315,4.939-8.718,9.917-7.601,11.118       c1.117,1.202,6.33-1.828,11.645-6.767C466.088,92.006,469.491,87.028,468.374,85.827z"/>
				</g>
			</g>
			<g>
				<g>
					<path style="fill:#6125B7;" d="M495.495,123.587c-0.227-1.612-5.986-2.13-12.74-0.554c-6.757,1.562-11.698,4.564-11.192,6.112       c0.51,1.571,6.055,1.171,12.535-0.326C490.576,127.307,495.73,125.223,495.495,123.587z"/>
				</g>
			</g>
			<g>
				<g>
					<path style="fill:#6125B7;" d="M492.726,169.533c0.308-1.625-5.18-4.018-12.091-6.005c-6.916-1.968-12.839-2.839-13.437-1.297       c-0.593,1.515,4.596,4.954,11.804,7.008C486.205,171.308,492.428,171.132,492.726,169.533z"/>
				</g>
			</g>
		</g>
		<g>
			<g>
				<path style="fill:#FFFFFF;" d="M140.749,181.6c11.486-5.684,20.217-15.169,19.705-29.571      c-0.948-26.62-30.257-36.547-52.748-33.523c-2.387,0.321-3.869,1.666-4.579,3.349c-1.413,0.82-2.44,2.285-2.519,4.511      c-1.366,38.131-4.851,76.191-4.807,114.366c-1.172,2.871-0.399,6.59,2.673,8.079c1.886,1.383,4.4,1.79,6.396,1.088      c25.06,2.493,56.611,1.194,60.902-29.88C168.369,201.211,156.303,188.266,140.749,181.6z M148.094,151.038      c3.165,18.699-23.691,25.102-36.864,25.163c-0.268,0.001-0.509,0.05-0.762,0.078c0.866-15.276,1.759-30.552,2.344-45.838      C127.587,129.39,145.275,134.388,148.094,151.038z M108.142,237.838c0.092-16.288,0.76-32.558,1.626-48.822      c0.223-0.006,0.433,0.014,0.666-0.014c20.082-2.42,45.984,8.129,42.664,32.179C150.353,241.059,124.667,239.679,108.142,237.838      z"/>
			</g>
			<g>
				<path style="fill:#FFFFFF;" d="M254.668,187.894c-0.811-7.953-13.067-6.053-12.258,1.886      c1.784,17.497-8.759,34.173-25.945,38.99c-24.694,6.922-36.665-16.807-38.125-37.477c-0.239-3.378-0.172-6.999,0.206-10.704      c21.677-0.022,43.339-1.111,65.018-0.934c0.558,0.005,1.075-0.066,1.568-0.176c2.788,0.023,5.341-1.617,5.309-5.262      c-0.228-26.066-14.794-48.797-42.857-47.771c-29.597,1.082-42.218,39.231-41.582,63.626      c0.752,28.868,17.911,55.827,49.754,51.495C241.296,238.091,257.137,212.114,254.668,187.894z M202.271,140.23      c19.607-8.668,32.905,9.952,35.42,27.103c-18.913,0.071-37.816,0.894-56.728,0.941      C184.489,156.18,191.459,145.01,202.271,140.23z"/>
			</g>
		</g>
		<g>
			<g>
				<path style="fill:#C9CF74;" d="M318.822,208.908c0.224-1.916-4.544-4.101-11.201-5.353c0.401-7.286-0.593-12.847-2.532-13.073      c-1.938-0.226-4.187,4.955-5.478,12.137c-6.766-0.317-11.909,0.71-12.133,2.625c-0.224,1.915,4.544,4.101,11.201,5.352      c-0.401,7.286,0.593,12.847,2.531,13.073c1.938,0.227,4.188-4.954,5.478-12.137      C313.455,211.851,318.598,210.823,318.822,208.908z"/>
			</g>
			<g>
				<path style="fill:#C9CF74;" d="M347.36,396.371c0.224-1.916-4.544-4.101-11.201-5.353c0.401-7.286-0.593-12.847-2.531-13.073      c-1.938-0.227-4.187,4.955-5.478,12.137c-6.766-0.317-11.909,0.71-12.133,2.625c-0.224,1.916,4.544,4.101,11.201,5.352      c-0.401,7.286,0.593,12.847,2.531,13.073c1.938,0.227,4.188-4.954,5.478-12.137C341.993,399.313,347.136,398.286,347.36,396.371      z"/>
			</g>
			<g>
				<path style="fill:#C9CF74;" d="M62.418,220.89c0.182-1.553-3.684-3.325-9.081-4.34c0.325-5.907-0.481-10.415-2.053-10.599      c-1.571-0.184-3.395,4.017-4.442,9.84c-5.486-0.257-9.655,0.575-9.837,2.128c-0.182,1.553,3.684,3.325,9.081,4.34      c-0.325,5.907,0.481,10.415,2.053,10.599c1.571,0.184,3.395-4.017,4.442-9.84C58.066,223.275,62.236,222.442,62.418,220.89z"/>
			</g>
			<g>
				<path style="fill:#C9CF74;" d="M283.624,147.483c0.131-1.121-2.659-2.4-6.556-3.133c0.234-4.264-0.347-7.519-1.482-7.652      c-1.134-0.133-2.451,2.9-3.207,7.104c-3.96-0.186-6.97,0.415-7.102,1.536c-0.131,1.121,2.66,2.4,6.556,3.133      c-0.234,4.264,0.347,7.519,1.482,7.652c1.134,0.133,2.451-2.9,3.206-7.104C280.483,149.205,283.493,148.604,283.624,147.483z"/>
			</g>
			<g>
				<path style="fill:#C9CF74;" d="M134.041,396.346c0.131-1.121-2.659-2.4-6.556-3.133c0.234-4.265-0.347-7.519-1.482-7.652      s-2.451,2.9-3.206,7.104c-3.96-0.186-6.971,0.415-7.102,1.536c-0.131,1.121,2.659,2.4,6.556,3.133      c-0.235,4.265,0.347,7.519,1.482,7.652c1.134,0.133,2.451-2.9,3.207-7.104C130.899,398.068,133.91,397.467,134.041,396.346z"/>
			</g>
			<g>
				<path style="fill:#C9CF74;" d="M411.478,303.633c0.131-1.121-2.659-2.4-6.556-3.133c0.234-4.265-0.347-7.519-1.482-7.652      c-1.134-0.133-2.451,2.9-3.206,7.104c-3.96-0.186-6.971,0.415-7.102,1.537c-0.131,1.121,2.659,2.4,6.556,3.133      c-0.234,4.264,0.347,7.519,1.482,7.652c1.134,0.133,2.451-2.9,3.207-7.104C408.337,305.355,411.347,304.754,411.478,303.633z"/>
			</g>
		</g>
		<g>
			<g>
				<path style="fill:#6125B7;" d="M85.864,327.591c-1.336,15.208-16.502,21.429-28.61,12.541      c-9.303-6.829-10.654-21.154-11.344-31.695c-0.829-12.654,1.06-25.682,9.146-35.82c8.774-11,28.074-10.676,31.962,4.283      c1.16,4.463,8.325,3.42,7.15-1.1c-3.593-13.822-16.944-21.673-30.919-16.889c-18.717,6.407-25.04,27.097-24.666,45.204      c0.369,17.849,3.684,38.418,22.028,46.204c15.676,6.654,31.09-6.565,32.436-21.889C93.455,323.793,86.273,322.94,85.864,327.591      z"/>
			</g>
			<g>
				<path style="fill:#6125B7;" d="M135.882,363.015c-1,0.129-1.995,0.21-2.989,0.279c-3.259-12.527-6.823-24.964-10.678-37.319      c7.907-4.337,14.044-11.69,14.893-20.761c1.733-18.512-21.584-26.942-36.141-23.82c-2.119,0.455-3.003,2.259-2.89,3.954      c-0.36,0.476-0.609,1.082-0.658,1.853c-1.459,23.33-2.919,46.66-4.379,69.99c-1.603-0.133-3.207-0.266-4.81-0.398      c-4.638-0.384-5.493,6.798-0.84,7.184c6.622,0.549,13.244,1.097,19.867,1.645c4.638,0.384,5.493-6.798,0.84-7.184      c-2.619-0.217-5.238-0.434-7.857-0.651c0.582-9.299,1.164-18.597,1.745-27.896c4.438,0.665,9.117,0.254,13.578-1.097      c3.56,11.416,6.853,22.905,9.881,34.473c-1.25-0.098-2.502-0.235-3.759-0.423c-4.617-0.691-5.443,6.495-0.84,7.184      c5.36,0.802,10.763,0.83,16.137,0.138C141.606,369.569,140.51,362.418,135.882,363.015z M102.438,322.654      c0.719-11.5,1.439-23,2.159-34.5c11.916-1.215,28.711,5.484,24.67,20.191C126.372,318.883,112.3,324.077,102.438,322.654z"/>
			</g>
			<g>
				<path style="fill:#6125B7;" d="M163.372,363.437c20.673-0.323,22.744-24.973,22.056-40.228c-0.21-4.651-7.358-3.517-7.15,1.1      c0.531,11.771,0.205,31.721-16.167,31.977c-13.946,0.218-16.668-18.337-17.174-28.57c-0.476-9.634,0.661-19.281,3.085-28.591      c11.448,0.216,22.879-0.049,34.305-0.834c0.341-0.023,0.642-0.093,0.922-0.184c2.018,0.062,4.288-1.431,4.153-4.068      c-0.793-15.468-11.103-33.947-29.181-25.527c-17.891,8.332-20.796,39.885-20.501,56.545      C138.006,341.248,142.959,363.756,163.372,363.437z M152.528,285.592c2.933-7.104,9.706-13.947,18-11.171      c7.081,2.371,8.846,10.061,9.456,16.791c-9.934,0.65-19.868,0.893-29.82,0.743C150.893,289.812,151.665,287.683,152.528,285.592      z"/>
			</g>
			<g>
				<path style="fill:#6125B7;" d="M187.778,351.982c-0.681,4.619,6.505,5.445,7.184,0.84c1.003-6.806,2.038-13.608,3.082-20.408      c8.696,0.504,17.351,0.107,25.961-1.313c0.046-0.008,0.083-0.025,0.128-0.034c1.481,6.299,2.923,12.609,4.293,18.937      c0.981,4.531,8.14,3.471,7.151-1.1c-7.087-32.726-15.67-65.074-25.697-97.022c-1.394-4.443-8.011-1.51-6.627,2.901      c0.079,0.251,0.154,0.504,0.232,0.755c-0.069,0.199-0.136,0.4-0.175,0.625C197.673,288.028,192.495,319.969,187.778,351.982z       M222.456,324.012c-7.749,1.247-15.483,1.648-23.303,1.228c2.834-18.187,5.827-36.348,8.958-54.487      C213.345,288.386,218.129,306.14,222.456,324.012z"/>
			</g>
			<g>
				<path style="fill:#6125B7;" d="M222.901,257.417c5.398-0.712,10.803-1.313,16.213-1.862c2.889,31.288,3.793,62.723,4.658,94.119      c0.128,4.648,7.277,3.506,7.15-1.1c-0.861-31.259-1.764-62.556-4.623-93.708c9.299-0.819,18.617-1.42,27.961-1.759      c4.65-0.169,3.512-7.318-1.1-7.15c-17.194,0.624-34.303,2.059-51.36,4.31C217.179,250.877,218.275,258.027,222.901,257.417z"/>
			</g>
			<g>
				<path style="fill:#6125B7;" d="M279.559,335.323c-1.69,0.223-3.38,0.446-5.07,0.67c0.003-0.098,0.022-0.189,0.019-0.29      c-0.649-19.331-1.298-38.662-1.947-57.993c2.527-0.108,5.054-0.216,7.581-0.323c4.65-0.198,3.515-7.347-1.1-7.15      c-6.369,0.271-12.738,0.543-19.107,0.815c-4.65,0.198-3.515,7.347,1.1,7.15c1.45-0.062,2.9-0.124,4.349-0.185      c0.658,19.596,1.316,39.192,1.974,58.787c0.002,0.047,0.014,0.084,0.018,0.13c-1.982,0.262-3.964,0.524-5.946,0.786      c-4.622,0.611-3.526,7.761,1.1,7.15c6.043-0.798,12.086-1.596,18.13-2.395C285.28,341.863,284.185,334.712,279.559,335.323z"/>
			</g>
			<g>
				<path style="fill:#6125B7;" d="M194.911,363.177c-6.367,17.035-13.163,33.893-20.34,50.599      c-7.401-15.512-14.802-31.023-22.203-46.535c-2.002-4.197-8.641-1.322-6.627,2.901c8.408,17.622,16.816,35.244,25.224,52.866      c0.395,0.829,0.975,1.373,1.629,1.694c1.704,1.314,4.585,1.285,5.709-1.285c8.296-18.962,16.065-38.133,23.312-57.52      C203.248,361.527,196.544,358.809,194.911,363.177z"/>
			</g>
			<g>
				<path style="fill:#6125B7;" d="M251.87,398.372c0.436,10.61-4.604,19.709-15.272,22.533      c-15.382,4.071-23.99-9.718-25.993-22.604c-0.315-2.029-0.403-4.12-0.285-6.219c14.938-1.871,29.877-3.742,44.815-5.614      c0.187-0.026,0.368-0.07,0.547-0.121c0.51-0.132,0.935-0.349,1.281-0.633c0.014-0.011,0.028-0.021,0.041-0.033      c0.123-0.105,0.236-0.217,0.338-0.337c0.062-0.069,0.119-0.141,0.174-0.215c0.058-0.083,0.112-0.168,0.161-0.256      c0.059-0.102,0.114-0.207,0.16-0.318c0.065-0.15,0.114-0.306,0.157-0.464c0.004-0.016,0.01-0.03,0.013-0.046      c0.264-1.022,0.089-2.17-0.47-3.091c-3.904-13.832-15.911-23.058-30.668-21.262c-16.07,1.955-24.72,22.424-23.651,36.59      c1.394,18.49,12.201,33.076,31.813,32.177c16.305-0.747,24.584-16.695,23.988-31.188      C258.829,392.622,251.68,393.758,251.87,398.372z M223.563,368.373c10.355-6.219,21.742,1.89,25.981,11.509      c-12.635,1.583-25.27,3.165-37.905,4.748C213.626,377.948,217.72,371.882,223.563,368.373z"/>
			</g>
		</g>
		<g>
			<g>
				<path style="fill:#6125B7;" d="M427.535,198.97l-64.903-35.744l22.106-40.14c6.917-12.56,22.707-17.134,35.267-10.217      l19.42,10.695c12.56,6.917,17.134,22.706,10.217,35.266L427.535,198.97z"/>
			</g>
			<g>
				<polygon style="fill:#EA55DE;" points="445.239,172.712 375.694,133.64 291.552,289.615 306.855,333.098 359.163,326.316           "/>
			</g>
			<g>
				<g>
					<path style="fill:#BF34BC;" d="M433.935,166.361l-2.943-1.653c-10.74,17.22-27.977,46.335-47.007,79.61       c-30.81,53.871-54.632,98.203-53.208,99.017c1.424,0.814,27.555-42.197,58.364-96.068       C408.18,213.979,424.541,184.348,433.935,166.361z"/>
				</g>
				<g>
					<path style="fill:#BF34BC;" d="M414.476,155.429l-3.391-1.905c-10.773,17.573-26.197,43.741-43.029,73.172       c-30.81,53.871-54.632,98.203-53.208,99.017c1.424,0.814,27.555-42.197,58.364-96.068       C390.053,200.2,404.793,173.626,414.476,155.429z"/>
				</g>
				<g>
					<path style="fill:#BF34BC;" d="M391.22,142.363c-10.44,17.237-24.216,40.698-39.092,66.71       c-30.81,53.871-54.632,98.203-53.208,99.017c1.424,0.814,27.555-42.197,58.364-96.068       c14.885-26.026,28.127-49.807,37.691-67.549L391.22,142.363z"/>
				</g>
			</g>
			<g>
				<path style="fill:#F79C3D;" d="M442.977,180.218l-72.172-40.486c-3.579-2.008-4.852-6.536-2.845-10.115l0,0      c2.007-3.579,6.536-4.852,10.114-2.845l72.173,40.486c3.579,2.007,4.852,6.536,2.845,10.114l0,0      C451.084,180.952,446.555,182.226,442.977,180.218z"/>
			</g>
			<g>
				<g>
					<g>
						<path style="fill:#390E7C;" d="M363.654,191.521c-1.733,3.485-4.617,5.574-6.441,4.667c-1.824-0.907-1.898-4.468-0.165-7.953        c1.733-3.485,4.617-5.574,6.441-4.667C365.313,184.476,365.387,188.036,363.654,191.521z"/>
					</g>
					<g>
						<path style="fill:#390E7C;" d="M408.572,213.86c-1.733,3.485-4.617,5.574-6.441,4.667c-1.824-0.907-1.898-4.468-0.165-7.952        c1.733-3.485,4.617-5.574,6.441-4.667C410.231,206.815,410.305,210.376,408.572,213.86z"/>
					</g>
				</g>
				<g>
					<g>
						<path style="fill:#390E7C;" d="M392.106,200.275c-0.411-0.173-1.18,1.18-2.999,2.445c-1.777,1.283-4.79,2.214-7.669,0.79        c-1.402-0.677-2.5-1.734-3.101-2.9c-0.624-1.174-0.828-2.454-0.822-3.528c0.026-2.181,0.857-3.498,0.507-3.777        c-0.224-0.272-1.892,0.693-2.589,3.497c-0.314,1.364-0.329,3.141,0.418,4.954c0.734,1.826,2.305,3.479,4.308,4.435        c2.003,0.953,4.253,1.133,6.118,0.62c1.865-0.492,3.279-1.513,4.221-2.519C392.393,202.196,392.45,200.363,392.106,200.275z"/>
					</g>
				</g>
			</g>
			<g>
				<polygon style="fill:#F79C3D;" points="359.163,326.316 291.551,289.615 287.603,343.738 292.026,359.47 311.486,360.098           "/>
			</g>
			<g>
				<polygon style="fill:#6125B7;" points="311.486,360.098 287.603,343.738 285.043,378.835     "/>
			</g>
		</g>
		<g>
			<g>
				<path style="fill:#FFF2FF;" d="M444.366,153.923c0.765,0.141,1.908-1.549,2.407-4.676c0.511-3.097,0.149-7.61-1.81-12.055      c-1.97-4.44-5.066-7.744-7.701-9.45c-2.65-1.734-4.67-2.026-5.079-1.365c-0.866,1.458,4.25,5.93,7.348,13.217      C442.839,146.789,442.705,153.582,444.366,153.923z"/>
			</g>
		</g>
		<g>
			<g>
				<path style="fill:#FFF2FF;" d="M428.432,125.383c0.795-1.424-0.198-3.483-2.404-3.994c-2.207-0.508-4.002,0.907-3.912,2.535      c0.08,1.647,1.251,2.932,2.575,3.252C426.021,127.469,427.637,126.828,428.432,125.383z"/>
			</g>
		</g>
		<g>
			<g>
				<path style="fill:#FFF2FF;" d="M83.005,135.878c-0.579-0.738-3.479,0.359-7.476,3.176c-3.989,2.803-8.993,7.419-13.51,13.359      c-4.506,5.947-7.607,12.008-9.234,16.604c-1.638,4.606-1.915,7.695-1.048,8.054c1.866,0.737,7.381-9.373,15.854-20.429      C75.962,145.508,84.217,137.477,83.005,135.878z"/>
			</g>
		</g>
		<g>
			<g>
				<path style="fill:#FFF2FF;" d="M49.377,179.348c-1.713-0.893-4.601,1.26-6.449,4.808c-1.849,3.548-1.959,7.148-0.246,8.041      c1.713,0.893,4.6-1.26,6.449-4.808C50.98,183.84,51.09,180.241,49.377,179.348z"/>
			</g>
		</g>
	</g>
</g>















</svg>
