<svg height='100px' width='100px'  fill="#05224c" xmlns:x="http://ns.adobe.com/Extensibility/1.0/" xmlns:i="http://ns.adobe.com/AdobeIllustrator/10.0/" xmlns:graph="http://ns.adobe.com/Graphs/1.0/" xmlns="http://www.w3.org/2000/svg" xmlns:xlink="http://www.w3.org/1999/xlink" version="1.1" x="0px" y="0px" viewBox="0 0 100 100" style="enable-background:new 0 0 100 100;" xml:space="preserve"><g><g i:extraneous="self"><g><path d="M38.4,68.5c0-4.5,3.7-8.1,8.1-8.1h1.3l5.1-6.2c-2.3-4.5-6.4-7.9-11.3-9.4c-3.5,1.9-7.6,3-11.9,3c-4.4,0-8.4-1.1-12-3     C10.6,46.9,5.3,53,4.4,60.7L2.5,75.9c-0.3,2,1,3.9,3,4.3c7.6,1.6,15.7,2.5,24.1,2.5c5.2,0,10.4-0.3,15.3-1l-0.9-5.5     C40.8,75.2,38.4,72.1,38.4,68.5z"></path><circle cx="29.6" cy="22.3" r="17.7"></circle><path d="M95,66h-3.9l-9-11c-0.9-1.1-2.4-1.2-3.5-0.4c-1.1,0.9-1.2,2.4-0.4,3.5l6.4,7.8H57l6.4-7.8c0.9-1.1,0.7-2.6-0.4-3.5     c-1.1-0.9-2.6-0.7-3.5,0.4l-9,11h-3.9c-1.4,0-2.5,1.1-2.5,2.5c0,1.4,1.1,2.5,2.5,2.5H49l3.6,22.3c0.2,1.2,1.2,2.1,2.5,2.1h31.5     c1.2,0,2.3-0.9,2.5-2.1L92.6,71H95c1.4,0,2.5-1.1,2.5-2.5C97.5,67.1,96.4,66,95,66z M63,85.3c0,1.4-1.1,2.5-2.5,2.5     S58,86.7,58,85.3v-9.2c0-1.4,1.1-2.5,2.5-2.5s2.5,1.1,2.5,2.5V85.3z M73.3,85.3c0,1.4-1.1,2.5-2.5,2.5c-1.4,0-2.5-1.1-2.5-2.5     v-9.2c0-1.4,1.1-2.5,2.5-2.5c1.4,0,2.5,1.1,2.5,2.5V85.3z M83.6,85.3c0,1.4-1.1,2.5-2.5,2.5c-1.4,0-2.5-1.1-2.5-2.5v-9.2     c0-1.4,1.1-2.5,2.5-2.5c1.4,0,2.5,1.1,2.5,2.5V85.3z"></path></g></g></g></svg>