<svg height='100px' width='100px'  fill="#05224c" xmlns="http://www.w3.org/2000/svg" data-name="Layer 1" viewBox="0 0 100 100" x="0px" y="0px"><title>Artboard 4</title><path d="M8.31,97.33H48.92a1.93,1.93,0,0,0,1.94-2.18q0-.33-.08-.66a9.57,9.57,0,0,1,2.29-7l1.29-1.56a1.58,1.58,0,0,0-.56-2.46A16.67,16.67,0,1,1,74.25,58.85a1.59,1.59,0,0,0,2.88-1.13L74.25,35.23A7.12,7.12,0,0,0,67.19,29H62.56V24.54C62.56,13,53.59,3.12,42,2.68A21.37,21.37,0,0,0,19.86,24v5H15.23a7.12,7.12,0,0,0-7.06,6.21L1.26,89.31A7.11,7.11,0,0,0,8.31,97.33ZM28,24A13.19,13.19,0,0,1,54.4,24v5H28ZM71,68.14A10.56,10.56,0,1,0,60.42,78.7,10.56,10.56,0,0,0,71,68.14Zm-15,0a4.37,4.37,0,1,1,4.37,4.37A4.37,4.37,0,0,1,56,68.14ZM77.68,85.91A10.56,10.56,0,1,0,88.24,75.35,10.56,10.56,0,0,0,77.68,85.91Zm14.94,0a4.37,4.37,0,1,1-4.37-4.37A4.37,4.37,0,0,1,92.61,85.91ZM57.72,91.44,85.42,58.11a3.59,3.59,0,0,1,6.32,2,3.5,3.5,0,0,1-.84,2.57L63.21,96a3.62,3.62,0,0,1-2.76,1.29,3.52,3.52,0,0,1-2.29-.85A3.65,3.65,0,0,1,56.88,94,3.5,3.5,0,0,1,57.72,91.44Z"></path></svg>