<svg xmlns="http://www.w3.org/2000/svg" xmlns:xlink="http://www.w3.org/1999/xlink" width="100" height="100" viewBox="0 0 100 100"><circle stroke="none" fill="#05224c" r="48%" cx="50%" cy="50%"></circle><g transform="translate(50 50) scale(0.69 0.69) rotate(0) translate(-50 -50)" style="fill:#ffffff"><svg fill="#ffffff" xmlns="http://www.w3.org/2000/svg" xmlns:xlink="http://www.w3.org/1999/xlink" xml:space="preserve" version="1.1" style="shape-rendering:geometricPrecision;text-rendering:geometricPrecision;image-rendering:optimizeQuality;" viewBox="0 0 296.32 405.14" x="0px" y="0px" fill-rule="evenodd" clip-rule="evenodd"><defs><style type="text/css">
   
    .fil0 {fill:#ffffff}
   
  </style></defs><g><path class="fil0" d="M148.16 0c81.83,0 148.16,68.51 148.16,153.03 0,74.55 -71.87,180.47 -127.3,242.75 -11.11,12.48 -30.61,12.48 -41.72,0 -55.43,-62.28 -127.3,-168.2 -127.3,-242.75 0,-84.52 66.33,-153.03 148.16,-153.03zm0 75.66c43.83,0 79.34,35.51 79.34,79.34 0,43.83 -35.51,79.34 -79.34,79.34 -43.83,0 -79.34,-35.51 -79.34,-79.34 0,-43.83 35.51,-79.34 79.34,-79.34z"></path></g></svg></g></svg>