<svg xmlns="http://www.w3.org/2000/svg" xmlns:xlink="http://www.w3.org/1999/xlink" width="100" height="100" viewBox="0 0 100 100"><circle stroke="none" fill="#05224c" r="48%" cx="50%" cy="50%"></circle><g transform="translate(50 50) scale(0.69 0.69) rotate(0) translate(-50 -50)" style="fill:#ffffff"><svg fill="#ffffff" xmlns="http://www.w3.org/2000/svg" xmlns:xlink="http://www.w3.org/1999/xlink" version="1.1" x="0px" y="0px" viewBox="0 0 72 72" style="enable-background:new 0 0 72 72;" xml:space="preserve"><g><g><g><g><g><path d="M52.9,8c-0.4-0.1-0.9,0-1.1,0.4c-0.1,0.1-9.7,13.5-29.9,14v21c20.1,0.4,29.8,13.8,29.9,14c0.2,0.3,0.5,0.4,0.8,0.4       c0.1,0,0.2,0,0.3-0.1c0.4-0.1,0.7-0.5,0.7-0.9l0-47.9C53.6,8.5,53.4,8.2,52.9,8z M47.9,21.8c-6.4,4.3-13.6,6.8-21.6,7.6h-0.1       c-0.5,0-0.9-0.4-1-0.9c0-0.5,0.4-1,0.9-1.1c7.6-0.8,14.5-3.2,20.6-7.3c0.5-0.3,1.1-0.2,1.4,0.3C48.5,20.9,48.3,21.5,47.9,21.8z       "></path></g><g><path d="M62.1,32.9c0,3.8-2.8,6.9-6.5,7.4V25.5C59.3,26,62.1,29.1,62.1,32.9z"></path></g></g><g><path d="M16.6,45.4v13.9c0,2.6-2.1,4.7-4.7,4.7c-2.6,0-4.7-2.1-4.7-4.7V45.4H16.6z"></path></g></g><g><path d="M6.2,22.4c-2.3,0-4.2,1.9-4.2,4.2v12.7c0,2.3,1.9,4.2,4.2,4.2h13.8v-21H6.2z M10.6,27.7h2.8c0.6,0,1,0.5,1,1s-0.4,1-1,1     h-2.8c-0.6,0-1-0.5-1-1S10,27.7,10.6,27.7z M13.3,38.1h-2.8c-0.6,0-1-0.5-1-1s0.4-1,1-1h2.8c0.6,0,1,0.5,1,1S13.9,38.1,13.3,38.1     z M15.6,33.9H8.3c-0.5,0-1-0.5-1-1s0.5-1,1-1h7.3c0.5,0,1,0.5,1,1S16.2,33.9,15.6,33.9z"></path></g></g><g><g><g><path d="M69,33.9h-3.7c-0.6,0-1-0.4-1-1s0.4-1,1-1H69c0.6,0,1,0.4,1,1S69.6,33.9,69,33.9z"></path></g></g><g><g><path d="M63.9,28.6c-0.3,0-0.7-0.2-0.9-0.5c-0.3-0.5-0.1-1.1,0.4-1.4l3.2-1.8c0.5-0.3,1.1-0.1,1.4,0.4c0.3,0.5,0.1,1.1-0.4,1.4      l-3.2,1.8C64.2,28.5,64,28.6,63.9,28.6z"></path></g></g><g><g><path d="M60,24.6c-0.2,0-0.3,0-0.5-0.1c-0.5-0.3-0.6-0.9-0.4-1.4l1.8-3.2c0.3-0.5,0.9-0.6,1.4-0.4c0.5,0.3,0.6,0.9,0.4,1.4      l-1.8,3.2C60.6,24.5,60.3,24.6,60,24.6z"></path></g></g><g><g><path d="M61.8,46.4c-0.3,0-0.7-0.2-0.9-0.5l-1.8-3.2c-0.3-0.5-0.1-1.1,0.4-1.4c0.5-0.3,1.1-0.1,1.4,0.4l1.8,3.2      c0.3,0.5,0.1,1.1-0.4,1.4C62.2,46.3,62,46.4,61.8,46.4z"></path></g></g><g><g><path d="M67.1,41.1c-0.2,0-0.3,0-0.5-0.1l-3.2-1.8c-0.5-0.3-0.6-0.9-0.4-1.4c0.3-0.5,0.9-0.6,1.4-0.4l3.2,1.8      c0.5,0.3,0.6,0.9,0.4,1.4C67.8,40.9,67.4,41.1,67.1,41.1z"></path></g></g></g></g></svg></g></svg>