<svg xmlns="http://www.w3.org/2000/svg" xmlns:xlink="http://www.w3.org/1999/xlink" width="100" height="100" viewBox="0 0 100 100"><circle stroke="none" fill="#f1f2f2" r="48%" cx="50%" cy="50%"></circle><g transform="translate(50 50) scale(0.69 0.69) rotate(0) translate(-50 -50)" style="fill:#05224c"><svg fill="#05224c" xmlns="http://www.w3.org/2000/svg" viewBox="0 0 64 64" x="0px" y="0px"><title>settings,menu,preference,</title><g data-name="Layer 3"><path d="M11.38,33.28V60a1,1,0,0,0,1.93,0V33.28h0a7.91,7.91,0,0,0,0-15.71h0V4a1,1,0,0,0-1.93,0v13.6a7.91,7.91,0,0,0,0,15.71Z"></path><path d="M32,61a1,1,0,0,0,1-1V46.8a7.91,7.91,0,0,0,0-15.71V4A1,1,0,1,0,31,4V31.09h0A7.91,7.91,0,0,0,31,46.8V60A1,1,0,0,0,32,61Z"></path><path d="M51.65,61a1,1,0,0,0,1-1V33.28a7.91,7.91,0,0,0,0-15.71V4a1,1,0,0,0-1.93,0v13.6h0a7.91,7.91,0,0,0,0,15.71h0V60A1,1,0,0,0,51.65,61Z"></path></g></svg></g></svg>