<svg height='100px' width='100px'  fill="#05224c" xmlns="http://www.w3.org/2000/svg" xmlns:xlink="http://www.w3.org/1999/xlink" version="1.1" x="0px" y="0px" viewBox="0 0 96 96" enable-background="new 0 0 96 96" xml:space="preserve"><path d="M16.2,65c0.5,4.4,4.2,7.9,8.8,7.9c4.5,0,8.3-3.4,8.8-7.8h27.1c0.5,4.4,4.2,7.8,8.8,7.8s8.3-3.4,8.8-7.8h7.1  c1.1,0,2-0.3,2.6-0.9c1-1.1,1-2.7,1-4.5c0-0.3,0-0.7,0-1c0,0,0-0.1,0-0.1l-1.8-14.4c-0.1-0.4-0.4-0.7-0.8-0.8l-9.5-2.3  c-6.1-11-17.7-17.8-30.3-17.8H13.4C9.9,23.1,7,26,7,29.5V55C7,60.2,11,64.6,16.2,65z M76.4,64.1c0,3.8-3.1,6.8-6.8,6.8  c-3.8,0-6.8-3.1-6.8-6.8s3.1-6.8,6.8-6.8C73.3,57.3,76.4,60.3,76.4,64.1z M48.7,33.9c0-0.6,0.4-1,1-1s1,0.4,1,1V46h15  c0.6,0,1,0.4,1,1s-0.4,1-1,1h-16c-0.6,0-1-0.4-1-1V33.9z M41,48H25.8c-0.6,0-1-0.4-1-1s0.4-1,1-1H41c0.6,0,1,0.4,1,1S41.5,48,41,48z   M25.8,32H41c0.6,0,1,0.4,1,1s-0.4,1-1,1H25.8c-0.6,0-1-0.4-1-1S25.3,32,25.8,32z M20.3,39h24c0.6,0,1,0.4,1,1s-0.4,1-1,1h-24  c-0.6,0-1-0.4-1-1S19.8,39,20.3,39z M24.9,57.3c3.8,0,6.8,3.1,6.8,6.8s-3.1,6.8-6.8,6.8s-6.8-3.1-6.8-6.8S21.2,57.3,24.9,57.3z"></path></svg>