<svg id="Layer_1" enable-background="new 0 0 512.42 512.42" height="512" viewBox="0 0 512.42 512.42" width="512" xmlns="http://www.w3.org/2000/svg"><g><path d="m224.34 32.08v480.13h31.87l20-278.957-20-233.043c-17.6 0-31.87 14.27-31.87 31.87z" fill="#6c88a3"/><path d="m288.08 32.08v480.13h-31.87v-512c17.6 0 31.87 14.27 31.87 31.87z" fill="#47627c"/><path d="m288.08 322.38-31.87 75h-194v-150h194z" fill="#92dff4"/><path d="m512.42 322.38-75 75h-181.21v-150h181.21z" fill="#8bb9ff"/><g><g fill="#8bb9ff"><path d="m256.21 307.38 31.87 15.004-31.87 14.996h-74.61v-30z"/><path d="m121.602 307.384h30v30h-30z"/></g></g><path d="m256.21 307.38h134.61v30h-134.61z" fill="#7d81e7"/><g><path d="m256.21 67.38 30 75.004-30 74.996h-181.21l-75-75 75-75z" fill="#ff7038"/><path d="m256.21 67.38h194v150h-194z" fill="#ff3939"/><path d="m256.21 127.38 30 15.004-30 14.996h-134.61v-30z" fill="#ff3939"/><g fill="#c1126b"><path d="m360.818 127.384h30v30h-30z"/><path d="m256.21 127.38h74.61v30h-74.61z"/></g></g></g></svg>