<svg id="Layer_1" enable-background="new 0 0 512 512" height="512" viewBox="0 0 512 512" width="512" xmlns="http://www.w3.org/2000/svg"><g><path d="m329.23 121.6-73.23 63.23-.26-.22-72.97-63.01 14.22-91.6h58.75z" fill="#8bb9ff"/><path d="m329.23 121.6-73.23 63.23-.26-.22v-154.61h59.26z" fill="#7d81e7"/><g><path d="m105.8 142.58v51.18c0 40.24-32.63 72.86-72.87 72.86v245.38h140.71l82.1-39.87 40-178.865-40-150.695z" fill="#f2f6f9"/><path d="m479.07 266.62v245.38h-140.71l-82.36-40-.26.13v-329.56l150.46-.01v51.2c0 40.24 32.63 72.86 72.87 72.86z" fill="#dfe9f2"/></g><g><path d="m222.2 120.44c-8.65-8.65-14-20.6-14-33.8v-86.64h-102.4v142.58l149.94 113.76 30-71.51-30-50.39c-13.1-.07-24.95-5.41-33.54-14z" fill="#92dff4"/><path d="m406.2 0v142.56l-150.46 113.78v-121.9h.26c26.4 0 47.8-21.4 47.8-47.8v-86.64z" fill="#8bb9ff"/></g><path d="m173.64 429.641h82.359l40 42.359-40 40h-82.359z" fill="#6c88a3"/><path d="m255.999 429.641h82.359v82.359h-82.359z" fill="#47627c"/><g fill="#dfe9f2"><path d="m255.74 358.13 10 15-10 15h-41.9v-30z"/><path d="m255.74 298.13 10 15-10 15h-41.9v-30z"/></g><g fill="#c4d9e8"><path d="m255.74 298.13h42.42v30h-42.42z"/><path d="m255.74 358.13h42.42v30h-42.42z"/></g></g></svg>