<svg id="Layer_1" enable-background="new 0 0 512 512" height="512" viewBox="0 0 512 512" width="512" xmlns="http://www.w3.org/2000/svg"><g><path d="m447.44 266.04 15.343-10 15.127 10v11.344l-136.784 146.192 2.493-46.574z" fill="#dfe9f2"/><path d="m64.56 266.04-14.864-10-15.606 10v11.344l130.664 139.651 3.627-40.033z" fill="#f2f6f9"/><g><path d="m412.91 65c-41.91-41.92-97.64-65-156.91-65l118.22 266.04c0-19.85 16.42-36 36.61-36 20.18 0 36.61 16.15 36.61 36h30.47v-44.13c0-59.28-23.08-115-65-156.91z" fill="#7d81e7"/><path d="m99.09 65c-41.92 41.91-65 97.63-65 156.91v44.13h30.47c0-19.85 16.43-36 36.61-36 20.19 0 36.61 16.15 36.61 36l118.22-266.04c-59.27 0-115 23.08-156.91 65z" fill="#8bb9ff"/></g><path d="m138.03 219.27-.25 46.77h30c0-19.85 16.42-36 36.61-36s36.61 16.15 36.61 36h15l40-133.02-40-133.02c-65.15 0-117.97 98.17-117.97 219.27z" fill="#92dff4"/><path d="m374.22 266.04h-30c0-19.85-16.42-36-36.61-36s-36.61 16.15-36.61 36h-15v-266.04c65.15 0 117.97 98.17 117.97 219.27z" fill="#8bb9ff"/><g><path d="m152.979 360.541v151.459h103.021l30-75.729-30-75.73z" fill="#e29764"/><path d="m256 360.541h103.021v151.459h-103.021z" fill="#c96a3a"/></g><path d="m228.26 421.74v-89.74h-30v119.74h57.74l20-15.469-20-14.531z" fill="#c96a3a"/><path d="m313.74 332v119.74h-57.74v-30h27.74v-89.74z" fill="#aa4b2e"/></g></svg>