<svg id="Layer_1" enable-background="new 0 0 512 512" height="512" viewBox="0 0 512 512" width="512" xmlns="http://www.w3.org/2000/svg"><g><g><path d="m161.345 299.902c-21.884-13.074-47.472-20.59-74.822-20.59-2.121 0-4.228.042-6.321.141l-80.202 95.546 93.248 43.753 52.167-9.743 41.307-83.731z" fill="#c96a3a"/><path d="m232.624 425.413c0 2.164-.049 4.32-.156 6.448l-95.467 80.139-43.753-93.248 93.474-93.474 25.313 25.313c13.073 21.884 20.589 47.473 20.589 74.822z" fill="#aa4b2e"/></g><g><path d="m162.632 181.242-82.43 98.211 76.137 76.208 118.639-62.073 85.993-142.559z" fill="#e29764"/><path d="m360.971 151.029-30.206 198.332-98.296 82.5-76.13-76.2z" fill="#c96a3a"/></g><path d="m395.44.007c-51.269-.007-99.576 22.52-132.546 61.798l-29.838 35.551 134.986 46.603 81.956-11.249 62.002-132.71z" fill="#7ed7f5"/><path d="m450.202 249.113-35.558 29.845-46.603-135 143.959-143.958v116.567c0 51.262-22.52 99.576-61.798 132.546z" fill="#8bb9ff"/><g><path d="m233.056 97.356-70.424 83.886h168.126l51.425-23.142 32.461-60.744z" fill="#f2f6f9"/><path d="m414.644 278.958-83.879 70.403-.007-168.119 83.886-83.886z" fill="#dfe9f2"/></g><g><path d="m143.428 307.609c-34.576 34.576-19.225 80.188-19.225 80.188l63.844-35.562 35.562-63.844s-45.605-15.358-80.181 19.218z" fill="#f2f6f9"/><path d="m204.398 368.579c-34.575 34.576-80.195 19.218-80.195 19.218l99.406-99.406s15.365 45.612-19.211 80.188z" fill="#dfe9f2"/></g></g></svg>