<svg id="Layer_1" enable-background="new 0 0 512 512" height="512" viewBox="0 0 512 512" width="512" xmlns="http://www.w3.org/2000/svg"><g><g><path d="m256 71.304 30 84.266h-95v-84.266z" fill="#47627c"/><path d="m256 75h65v80.57h-65z" fill="#2e475b"/></g><path d="m256 0 10 75h-100v-75z" fill="#dfe9f2"/><path d="m256 0h90v75h-90z" fill="#c4d9e8"/><g><path d="m141 60v30h115l10-15-10-15z" fill="#6c88a3"/><path d="m460.29 127.28c0 37.1-30.18 67.29-67.28 67.29h-13.45v-30h13.45c20.56 0 37.28-16.73 37.28-37.29 0-20.55-16.72-37.28-37.28-37.28h-137.01v-30h137.01c37.1 0 67.28 30.18 67.28 67.28z" fill="#47627c"/></g><g><path d="m45.81 330.67c0 36.54 9.52 72.54 27.54 104.09 17.47 30.59 42.57 56.53 72.58 75.01l3.62 2.23h106.45l60-181.33-60-210.19c-115.9 0-210.19 94.29-210.19 210.19z" fill="#e29764"/><path d="m466.19 330.67c0 36.54-9.52 72.54-27.54 104.09-17.47 30.59-42.57 56.53-72.58 75.01l-3.62 2.23h-106.45v-391.52c115.9 0 210.19 94.29 210.19 210.19z" fill="#c96a3a"/></g><g><path d="m182.96 236.42-21.21 21.22 73.04 73.03-73.04 73.04 21.21 21.21 73.04-73.04 10-21.21-10-21.21z" fill="#c96a3a"/><path d="m277.21 330.67 73.04 73.04-21.21 21.21-73.04-73.04v-42.42l73.04-73.04 21.21 21.22z" fill="#aa4b2e"/></g></g></svg>