<svg id="Layer_1" enable-background="new 0 0 512 512" height="512" viewBox="0 0 512 512" width="512" xmlns="http://www.w3.org/2000/svg"><g><g><path d="m482 256-37.717-20-37.718 20 15.466 159.34h59.969z" fill="#47627c"/><path d="m422.031 96.66-15.466 159.34h75.435v-159.34z" fill="#6c88a3"/></g><g><path d="m30 256 37.717-20 37.718 20-15.466 159.34h-59.969z" fill="#47627c"/><path d="m89.969 96.66 15.466 159.34h-75.435v-159.34z" fill="#6c88a3"/></g><g><path d="m331 0-75 20-75-20h-91.03v256l166.03 40 166.03-40v-256z" fill="#ace233"/><path d="m422.03 256v256h-91.03l-75-20-75 20h-91.03v-256z" fill="#00da80"/></g><path d="m392.034 30v226l-136.032 30-136.033-30v-226z" fill="#d0ea59"/><path d="m143.001 232.967h226v272.065h-226z" fill="#ace233" transform="matrix(0 -1 1 0 -112.999 625.002)"/><g><path d="m256 183.39c-40.03 0-72.61 32.57-72.61 72.61l72.612 30 72.609-30c-.001-40.04-32.571-72.61-72.611-72.61z" fill="#f2f6f9"/><path d="m183.39 256h145.22c0 40.04-32.57 72.61-72.61 72.61-40.03 0-72.61-32.57-72.61-72.61z" fill="#dfe9f2"/></g><path d="m211.002 466.022v-42.68c0-25.014 20.187-45.364 45-45.364s45 20.35 45 45.364v42.68z" fill="#00da80"/><path d="m181.002 436.022h150v75.978h-150z" fill="#dfe9f2"/><path d="m211.002 45.978v42.68c0 25.014 20.187 45.364 45 45.364s45-20.35 45-45.364v-42.68z" fill="#ace233"/><path d="m181.002 0h150v75.978h-150z" fill="#f2f6f9"/></g></svg>