<svg id="Layer_1" enable-background="new 0 0 512 512" height="512" viewBox="0 0 512 512" width="512" xmlns="http://www.w3.org/2000/svg"><g><g><path d="m256 175.74-122.83 22.22-26.86 26.86c-27.72 27.72-42.98 64.58-42.98 103.78v103.4l215.17 22.87-22.24-279.08z" fill="#92dff4"/><path d="m448.67 432h-192.41v-256.21l123.09 22.69 26.34 26.34c27.72 27.72 42.98 64.58 42.98 103.78z" fill="#8bb9ff"/></g><path d="m256.26 74.87-123.09 123.09 68.9 27.86 54.19-21.74 27.76-50.254z" fill="#8bb9ff"/><path d="m379.35 198.48-67.6 27.34-55.49-21.74v-129.21z" fill="#7d81e7"/><path d="m256 0c-30.76 0-55.78 25.02-55.78 55.78s25.02 55.79 55.78 55.79h.26l20-55.785-20-55.785z" fill="#f2f6f9"/><path d="m256.26 111.57v-111.57c30.64.14 55.52 25.11 55.52 55.78s-24.88 55.65-55.52 55.79z" fill="#dfe9f2"/><path d="m211 342.913v30h45l20-15-20-15z" fill="#8bb9ff"/><path d="m256 342.913h45v30h-45z" fill="#7d81e7"/><g><path d="m256.26 412 22.24 42.87-22.24 47.13-222.93-20v-70z" fill="#f2f6f9"/><path d="m478.67 412v70l-222.41 20v-90z" fill="#dfe9f2"/><path d="m256.26 482 20 20-20 10h-222.93v-30z" fill="#dfe9f2"/><path d="m256.26 482h222.41v30h-222.41z" fill="#c4d9e8"/></g></g></svg>