<svg id="Layer_1" enable-background="new 0 0 512 512" height="512" viewBox="0 0 512 512" width="512" xmlns="http://www.w3.org/2000/svg"><g><g><path d="m66 295.682v216.318h190l40-92.11-40-124.208z" fill="#dfe9f2"/><path d="m256 295.682h190v216.318h-190z" fill="#c4d9e8"/></g><g><path d="m256 482h-160v-156.318h160l40 94.208z" fill="#f2f6f9"/><path d="m416 482h-160v-156.318h160z" fill="#dfe9f2"/></g><g><path d="m422.5 29.478h30v41.348h-30z" fill="#47627c"/><path d="m60.174 29.478h30v41.348h-30z" fill="#6c88a3"/></g><g><path d="m167.29 0-20 60h-147.29v137.78l256 120.04 50-209.037-50-108.783z" fill="#d0ea59"/><path d="m512 60v137.78l-256 120.04v-317.82h88.71l20 60z" fill="#ace233"/></g><g><path d="m0 197.78v85.58c0 45.39 36.93 82.32 82.32 82.32h173.68l40-107.86-40-60.04z" fill="#ace233"/><path d="m512 197.78v85.58c0 45.39-36.93 82.32-82.32 82.32h-173.68v-167.9z" fill="#00da80"/></g><g><path d="m118.14 257.82c0 76.02 61.84 137.86 137.86 137.86l40-137.86-40-137.86c-76.02 0-137.86 61.84-137.86 137.86z" fill="#6c88a3"/><path d="m393.86 257.82c0 76.02-61.84 137.86-137.86 137.86v-275.72c76.02 0 137.86 61.84 137.86 137.86z" fill="#47627c"/></g><g><path d="m148.14 257.82c0 59.47 48.38 107.86 107.86 107.86l40-107.86-40-107.86c-59.48 0-107.86 48.38-107.86 107.86z" fill="#47627c"/><path d="m363.86 257.82c0 59.47-48.38 107.86-107.86 107.86v-215.72c59.48 0 107.86 48.38 107.86 107.86z" fill="#2e475b"/></g><g><path d="m196 257.82c0 33.08 26.92 60 60 60l40-60-40-60c-33.08 0-60 26.92-60 60z" fill="#92dff4"/><path d="m316 257.82c0 33.08-26.92 60-60 60v-120c33.08 0 60 26.92 60 60z" fill="#8bb9ff"/></g><g><path d="m256 45 10 15-10 15h-45v-30z" fill="#ace233"/><path d="m256 45h45v30h-45z" fill="#00da80"/></g><path d="m422.5 119.957h30v30h-30z" fill="#00da80"/></g></svg>