<svg id="Layer_1" enable-background="new 0 0 512 512" height="512" viewBox="0 0 512 512" width="512" xmlns="http://www.w3.org/2000/svg"><g><g><path d="m85.728 310.104c-7.42 13.667-21.679 22.157-37.211 22.157h-48.471l.904 15.854c2.36 41.37 36.694 73.776 78.164 73.776h101.702v-119.63h-90.83z" fill="#dfe9f2"/><path d="m469.801 107.771c-11.39-11.391-26.533-17.663-42.641-17.663h-96.126v119.631h96.126c16.107 0 31.251-6.272 42.641-17.663l42.152-42.152z" fill="#c4d9e8"/></g><g><path d="m160.212 95.72v320.56c0 52.87 42.85 95.72 95.71 95.72l30-251-30-261c-52.86 0-95.71 42.85-95.71 95.72z" fill="#ff7038"/><path d="m351.642 95.72v320.56c0 26.44-10.71 50.36-28.03 67.69-17.33 17.32-41.25 28.03-67.69 28.03v-512c52.87 0 95.72 42.85 95.72 95.72z" fill="#ff3939"/></g><path d="m255.922 371 20 15-20 15h-45v-30z" fill="#ff3939"/><g><path d="m210.922 104.61c0 24.81 20.19 45 45 45l30-45-30-45c-24.81 0-45 20.18-45 45z" fill="#f2f6f9"/><path d="m255.922 149.61v-90c24.82 0 45 20.18 45 45 0 24.81-20.18 45-45 45z" fill="#dfe9f2"/></g><g><path d="m255.922 181 30 80-30 80h-45v-160z" fill="#ff3939"/><path d="m255.922 181h45v160h-45z" fill="#c1126b"/></g><path d="m255.922 371h45v30h-45z" fill="#c1126b"/></g></svg>