<svg id="Layer_1" enable-background="new 0 0 512.01 512.01" height="512" viewBox="0 0 512.01 512.01" width="512" xmlns="http://www.w3.org/2000/svg"><g><g><path d="m161 436.44v22.18c0 29.44 23.95 53.39 53.4 53.39h41.32l30-75.57z" fill="#e29764"/><path d="m255.72 436.44h95.28v22.18c0 29.44-23.95 53.39-53.39 53.39h-41.89z" fill="#c96a3a"/><g><path d="m181.004 436.443h30v-59.998l-30 14.995z" fill="#6c88a3"/><path d="m301.004 376.445v59.998h30v-45.003z" fill="#47627c"/></g><g><path d="m255.72 421.44 30 15-30 15h-114.72v-30z" fill="#c96a3a"/><path d="m255.72 421.44h115.28v30h-115.28z" fill="#aa4b2e"/></g></g><path d="m106.28 79.83c-20.43 29.74-31.44 64.63-31.51 101.06-.08 40.43 13.12 78.81 36.79 109.94l144.16 49.9 60-159.72-60-141.11z" fill="#ace233"/><path d="m437.24 181.25c0 40.29-13.2 78.54-36.8 109.58l-144.44 50-.28-.1v-300.83l.28-.07 150.27 40c20.14 29.72 30.97 64.76 30.97 101.42z" fill="#00da80"/><g><path d="m168.93 79.83c-11.35 28.09-18.17 63.22-18.21 101.09-.04 42.11 8.03 80.57 21.37 109.91l83.63 49.83 60-159.65-60-141.05z" fill="#d0ea59"/><path d="m360.72 181.25c0 41.98-8.06 80.32-21.37 109.58l-83.35 50-.28-.17v-300.7l.28-.13 86.84 40c11.21 28.06 17.88 63.24 17.88 101.42z" fill="#ace233"/></g><g fill="#f2f6f9"><path d="m255.72 290.83 30 49.9-30 50.71h-74.72v-15c0-17.4-8.78-33.49-23.48-43.03-17.98-11.65-33.44-26.1-45.96-42.58z"/><path d="m255.72 0 30 39.83-30 40h-149.44c6.65-9.69 14.3-18.83 22.9-27.3 34.36-33.85 79.24-52.45 126.54-52.53z"/></g><g fill="#dfe9f2"><path d="m255.72 391.44h75.28v-15c0-17.41 8.78-33.49 23.49-43.03 17.97-11.65 33.43-26.1 45.95-42.58h-144.72z"/><path d="m384.95 53.88c-33.7-34.11-78.63-53.23-126.54-53.86-.9-.01-1.79-.02-2.69-.02v79.83h150.55c-6.23-9.19-13.35-17.88-21.32-25.95z"/></g></g></svg>