<svg id="Layer_1" enable-background="new 0 0 512 512" height="512" viewBox="0 0 512 512" width="512" xmlns="http://www.w3.org/2000/svg"><g><g><path d="m429.561 119.557h46.439v30h-46.439z" fill="#c1126b"/><path d="m36 119.557h46.44v30h-46.44z" fill="#ff3939"/></g><g><path d="m190.76 342.89 20.64-80.52-29.06-7.44-63.98 249.62 29.06 7.45 35.65-139.11h72.93l10-14.834-10-15.166z" fill="#dfe9f2"/><path d="m375.79 434.92-29.06 7.44-17.8-69.47h-72.93v-30h65.24l-20.64-80.52 29.06-7.44z" fill="#c4d9e8"/></g><circle cx="369.739" cy="467" fill="#47627c" r="45"/><g><path d="m276 15h30v59.565h-30z" fill="#2e475b"/><path d="m136 15h30v59.565h-30z" fill="#47627c"/><path d="m206 15h30v59.565h-30z" fill="#47627c"/><path d="m346 15h30v59.565h-30z" fill="#2e475b"/></g><g><path d="m64.72 59.57v44c0 105.47 85.81 191.27 191.28 191.27l40-117.635-40-117.635z" fill="#ff7038"/><path d="m447.28 59.57v44c0 105.47-85.81 191.27-191.28 191.27v-235.27z" fill="#ff3939"/></g><path d="m256 119.56 20 15-20 15h-45v-30z" fill="#ff3939"/><path d="m256 119.56h45v30h-45z" fill="#c1126b"/><g><path d="m256 0 20 15-20 15h-155v-30z" fill="#6c88a3"/><path d="m256 0h155v30h-155z" fill="#47627c"/></g></g></svg>