<svg id="Layer_1" enable-background="new 0 0 512 512" height="512" viewBox="0 0 512 512" width="512" xmlns="http://www.w3.org/2000/svg"><g><g><ellipse cx="90.522" cy="367.692" fill="#6c88a3" rx="90.522" ry="90.521" transform="matrix(.987 -.16 .16 .987 -57.729 19.248)"/><ellipse cx="421.478" cy="367.692" fill="#47627c" rx="90.522" ry="90.521" transform="matrix(.987 -.16 .16 .987 -53.455 72.261)"/></g><g><g fill="#f2f6f9"><ellipse cx="90.522" cy="367.692" rx="60.522" ry="60.521" transform="matrix(.987 -.16 .16 .987 -57.729 19.248)"/><path d="m421.479 307.171c-33.372 0-60.522 27.149-60.522 60.521s27.15 60.521 60.522 60.521 60.521-27.149 60.521-60.521-27.149-60.521-60.521-60.521z"/><path d="m90.522 428.214c-33.372 0-60.522-27.15-60.522-60.522s27.15-60.521 60.522-60.521 60.521 27.149 60.521 60.521-27.149 60.522-60.521 60.522z"/></g><path d="m421.479 428.214c-33.372 0-60.522-27.149-60.522-60.521s27.15-60.521 60.522-60.521 60.521 27.148 60.521 60.52-27.149 60.522-60.521 60.522z" fill="#dfe9f2"/></g><path d="m347.174 118.264v90.957h24.782c37.903 0 68.739-30.836 68.739-68.739v-22.218z" fill="#dfe9f2"/><path d="m434.266 359.851-74.526-121.516v-115.071c0-38.31-31.168-69.478-69.479-69.478v30c21.769 0 39.479 17.71 39.479 39.478v114.434l-69.656 95.952 24.277 17.625 59.329-81.727 65.002 105.986z" fill="#8bb9ff"/><path d="m226.874 351.492 24.549-17.242-115.946-165.085-24.55 17.242 41.573 59.193-89.722 137.092h163.222v-30h-107.734l52.794-80.668z" fill="#92dff4"/><path d="m85.109 162.786h100v30h-100z" fill="#e29764"/><g><path d="m211 367.69c0 24.86 20.15 45 45 45l20-44.997-20-45.003c-24.85 0-45 20.15-45 45z" fill="#f2f6f9"/><path d="m301 367.69c0 24.86-20.15 45-45 45v-90c24.85 0 45 20.15 45 45z" fill="#dfe9f2"/></g></g></svg>