<svg id="Layer_1" enable-background="new 0 0 511.986 511.986" height="512" viewBox="0 0 511.986 511.986" width="512" xmlns="http://www.w3.org/2000/svg"><g><path d="m226.252 501.442c-14.059 14.059-36.852 14.059-50.911 0l-55.003-55.003 66.699-35.122 39.215 39.215c14.059 14.058 14.059 36.852 0 50.91z" fill="#6c88a3"/><path d="m501.229 225.614c-14.059 14.059-36.852 14.059-50.911 0l-38.789-38.789 35.122-66.699 54.578 54.578c14.059 14.058 14.059 36.851 0 50.91z" fill="#6c88a3"/><path d="m365.928 98.797 17.473 33.736-44.456 72.74-80.872 52.588-52.587 80.871-72.74 44.456-33.736-17.472z" fill="#ff7038"/><g fill="#ff3939"><path d="m124.614 391.32 133.459-133.459v82.42l-71.036 71.036z"/><path d="m391.533 124.401 19.997 62.424-71.036 71.036h-82.421z"/></g><g><path d="m127.643 183.784h30c0-7.074 2.756-13.725 7.758-18.728 5.003-5.003 11.653-7.757 18.728-7.758v-30c-31.147.001-56.485 25.34-56.486 56.486z" fill="#92dff4"/><path d="m121.183 120.838c16.813-16.813 39.168-26.073 62.946-26.073v-30c-31.791 0-61.68 12.38-84.159 34.859-22.48 22.48-34.859 52.368-34.859 84.159h30c-.001-23.777 9.259-46.132 26.072-62.945z" fill="#92dff4"/><g fill="#8bb9ff"><path d="m346.984 346.853c-5.002 5.002-11.653 7.757-18.728 7.758v30c15.573 0 29.694-6.335 39.922-16.563s16.563-24.349 16.563-39.922h-30c0 7.074-2.754 13.725-7.757 18.727z"/><path d="m391.202 391.072c-16.813 16.813-39.168 26.072-62.945 26.072v30c31.791 0 61.679-12.379 84.159-34.859 22.479-22.479 34.859-52.368 34.859-84.159h-30c0 23.778-9.259 46.132-26.073 62.946z"/></g></g><g fill="#f2f6f9"><path d="m82.223 306.502 63.604 63.605-26.863 55.147-55.147 26.863-63.604-63.604z"/><path d="m388.725 0 63.605 63.604-26.863 55.147-55.148 26.863-63.604-63.604z"/></g><g fill="#dfe9f2"><path d="m67.437 402.577h115.98v58.28h-115.98z" transform="matrix(.707 -.707 .707 .707 -268.533 215.137)"/><path d="m373.94 96.074h115.98v58.28h-115.98z" transform="matrix(.707 -.707 .707 .707 37.969 342.095)"/></g></g></svg>