<?xml version="1.0" encoding="UTF-8"?>
<!-- Generator: Adobe Illustrator 25.2.1, SVG Export Plug-In . SVG Version: 6.00 Build 0)  -->
<svg xmlns="http://www.w3.org/2000/svg" xmlns:xlink="http://www.w3.org/1999/xlink" version="1.1" id="Capa_1" x="0px" y="0px" viewBox="0 0 512 512" style="enable-background:new 0 0 512 512;" xml:space="preserve" width="512" height="512">
<g>
	<g>
		<g>
			<path style="fill:#FFFFFF;" d="M64.884,440.576c-1.423,0-2.635-0.225-3.666-0.59H33.948c-3.908,0-7.25-2.809-7.923-6.659     c-1.469-8.404-2.694-15.873-3.745-22.834c-3.476-22.6-5.757-42.87-6.95-61.775l-8.786-3.782     c-6.374-2.746-6.613-7.948-6.535-9.477c0.079-1.529,0.849-6.678,7.467-8.757l6.927-2.173c-0.339-23.85,1.189-45.69,4.647-66.586     c1.859-11.212,4.378-22.368,7.488-33.16c0.037-0.126,0.077-0.253,0.119-0.378l0.026-0.133c0.11-0.579,0.299-1.573,0.803-2.675     c5.729-19.041,13.276-36.852,22.452-52.988c0.177-2.529,0.602-5.093,1.268-7.648c0.135-0.527,0.308-1.11,0.485-1.692     c1.487-5.016,3.924-10.189,7.233-15.343c10.809-16.892,30.571-32.577,52.951-42.048c31.91-20.102,71.851-30.347,118.728-30.454     l0.721-0.001c51.473,0,96.093,11.74,132.62,34.892c19.984,12.666,38.09,29.252,53.894,49.362     c0.418-0.399,0.775-0.823,0.923-1.134l5.889-13.687c2.687-6.236,7.45-6.909,9.373-6.909c3.419,0,7.722,2.07,9.544,7.878     l4.465,14.23c0.261,0.736,1.558,2.172,2.272,2.512l13.688,5.89c6.72,2.898,6.977,8.264,6.896,9.84     c-0.081,1.576-0.888,6.887-7.865,9.077l-4.509,1.414c0.765,1.123,1.444,2.299,2.027,3.514c3.078-1.085,6.426-1.676,9.856-1.676     c2.852,0,5.589,0.408,8.133,1.213c10.068,3.192,17.875,12.647,19.432,23.529c0.734,5.128,0.137,10.414-1.627,15.374     c4.011,1.634,7.603,4.301,10.207,7.721c5.294,6.984,6.848,16.542,4.167,25.581c-2.239,7.411-7.298,14.306-14.257,19.453     l-0.158,0.116c-0.272,0.2-0.538,0.388-0.816,0.57c-0.358,0.256-0.714,0.502-1.072,0.739c-3.078,4.664-7.821,8.708-14.12,12.036     c-1.701,0.897-3.498,1.727-5.378,2.484c0.063,0.47,0.123,0.938,0.183,1.403c0.103,0.744,0.198,1.458,0.263,2.168     c0.37,2.858,0.692,5.784,0.96,8.7c0.076,0.64,0.137,1.283,0.196,1.923c1.081,11.744,1.592,23.95,1.518,36.292     c0.017,0.83,0,1.678-0.02,2.507c-0.057,7.234-0.334,14.785-0.823,22.447c-0.387,6.124-0.894,12.218-1.51,18.107     c-0.299,2.995-0.64,6.027-1,9.059c-0.058,0.559-0.131,1.101-0.207,1.657l-0.023,0.173c-0.322,2.682-0.704,5.528-1.12,8.344     c-0.066,0.573-0.14,1.146-0.243,1.719c-0.455,3.189-0.855,5.826-1.259,8.287c-0.775,4.825-1.671,9.948-2.66,15.202     c-0.715,3.802-4.036,6.555-7.905,6.555h-11.443c-1.079,0.387-2.229,0.59-3.409,0.59H64.884z"/>
		</g>
	</g>
	<g>
		<g>
			<path style="fill:#9EC7D3;" d="M469.985,345.993c0.019,0.766,0,1.551-0.019,2.316c-0.056,7.361-0.338,14.721-0.807,22.062     c-0.375,5.947-0.863,11.855-1.482,17.783c-0.3,3.003-0.638,6.006-0.995,9.009c-0.056,0.549-0.131,1.079-0.206,1.629     c-0.338,2.807-0.713,5.594-1.126,8.381c-0.056,0.491-0.112,0.982-0.206,1.472c-0.394,2.768-0.807,5.535-1.257,8.283     c-0.807,5.025-1.689,10.03-2.627,15.015H33.948c-1.313-7.517-2.571-15.074-3.715-22.651     c-7.655-49.776-11.446-100.514-3.246-150.034c9.457-57.038,36.213-112.722,80.775-144.931     c35.706-25.83,79.894-34.761,122.861-34.859c44.769-0.098,90.401,9.166,129.015,33.642     c48.034,30.443,82.22,83.084,98.526,140.633c1.313,4.632,2.496,9.284,3.565,13.956c2.308,9.971,4.09,20.04,5.385,30.168     c0.094,0.687,0.188,1.354,0.244,2.022c0.375,2.885,0.694,5.79,0.957,8.675c0.075,0.608,0.132,1.217,0.188,1.826     C469.591,322.204,470.06,334.079,469.985,345.993z"/>
		</g>
	</g>
	<g>
		<g>
			<g>
				<g>
					<rect x="94.188" y="328.99" style="fill:#703427;" width="249.068" height="13.032"/>
				</g>
			</g>
			<g>
				<path style="fill:#703427;" d="M340.957,426.425l-25.217-63.043h15.932v-22.807H104.687v22.807h24.107l-22.914,63.097      c-0.341,0.941,0.144,1.979,1.085,2.322c0.204,0.074,0.413,0.11,0.618,0.11c0.741,0,1.436-0.458,1.703-1.195l23.363-64.334      h179.187l25.755,64.388c0.373,0.93,1.431,1.379,2.355,1.01C340.875,428.408,341.328,427.354,340.957,426.425z"/>
			</g>
			<g>
				<g>
					<rect x="104.687" y="340.574" style="fill:#5B2820;" width="226.985" height="6.878"/>
				</g>
			</g>
		</g>
		<g>
			<g>
				<g>
					<g>
						<path style="fill:#FFBDB5;" d="M72.709,174.53l34.754,153.978h172.32l-24.134-152.53        C255.648,175.978,71.261,174.53,72.709,174.53z"/>
					</g>
				</g>
				<g>
					<g>
						<path style="fill:#FFBDB5;" d="M356.529,328.388H109.151c-1,0-1.812-0.812-1.812-1.812c0-1,0.812-1.812,1.812-1.812h247.378        c1,0,1.812,0.812,1.812,1.812C358.341,327.576,357.53,328.388,356.529,328.388z"/>
					</g>
				</g>
			</g>
			<g>
				<g>
					
						<ellipse transform="matrix(0.982 -0.1891 0.1891 0.982 -45.8117 37.8656)" style="fill:#FFF1E3;" cx="175.522" cy="259" rx="21.238" ry="21.238"/>
				</g>
			</g>
		</g>
	</g>
	<g>
		<path style="fill:#FFFFFF;" d="M447.959,241.868L356.67,131.089c-0.02-0.039-0.059-0.078-0.078-0.098c0,0,0,0,0-0.02    c-0.059-0.039-0.098-0.098-0.157-0.137v-0.02c0,0,0,0-0.02,0c-0.334-0.294-0.785-0.471-1.256-0.491h-0.02    c-0.019,0-0.019,0-0.039,0H154.289c-0.609,0-1.198,0.295-1.57,0.766L63.51,243.163c-1.06,0.059-1.904,0.923-1.904,2.002    c0,0.687,0.353,1.296,0.863,1.649l0.334,117.276l0.157,58.471c0.02,6.085,0.039,8.46,0.491,9.382    c0.274,0.569,0.726,0.589,1.433,0.589h381.524c1.119,0,2.021-0.903,2.021-2.022V243.144    C448.43,242.692,448.253,242.241,447.959,241.868z M260.7,428.508H67.004c-0.02-8.146-0.118-40.001-0.216-74.939    c-0.118-45.281-0.255-95.744-0.275-106.382h120.279h56.587h5.731h11.59V428.508z M262.631,242.518    c-0.543,0.022-1.029,0.256-1.378,0.625h-73.422H68.672l86.578-108.777h195.61l-58.962,72.27l-2.335,2.866l-12.856,15.761    l-0.059,0.079l-14.014,17.174L262.631,242.518z M444.406,428.508H264.729V246.329l0.005-0.006l17.783-21.787l0.059-0.098    l13.112-16.055l2.296-2.807l57.137-70.051l16.585,20.138l72.701,88.207V428.508z"/>
	</g>
	<g>
		<g>
			<g>
				<path style="fill:#FFF1E3;" d="M180.5,150.058c-0.198,0.304-0.391,0.623-0.615,0.939c0,0-1.097,0.219-1.296,0.509      c-0.133,0.194,0.317,0.952,0.317,0.952c-4.988,7.119-11.536,13.822-19.087,19.725c0,0-0.813,0.07-1.065,0.266      c-0.29,0.226-0.563,1.01-0.563,1.01c-12.523,9.51-27.507,16.942-42.403,20.885c0,0-0.677-0.213-0.928-0.147      c-0.405,0.106-1.041,0.661-1.041,0.661c-7.369,1.803-14.725,2.736-21.674,2.635c-7.693-0.107-14.232-1.516-19.439-3.928      c0,0-0.186-0.477-0.39-0.579c-0.204-0.103-0.822-0.028-0.822-0.028c-11.317-5.776-15.964-16.692-12.502-29.967      c0,0,0.561-0.559,0.648-0.851c0.053-0.178-0.243-0.553-0.243-0.553c1.26-4.252,3.343-8.711,6.299-13.314      c10.945-17.104,31.135-31.973,52.582-40.331c0.398-0.155,1.099,0.254,1.099,0.254s0.606-0.903,0.884-1.004      c11.365-4.214,23.044-6.55,33.814-6.383c5.016,0.088,9.549,0.702,13.523,1.787c0,0,0.254,0.47,0.468,0.532      c0.261,0.076,0.948-0.102,0.948-0.102c3.661,1.126,6.836,2.692,9.478,4.611c0,0,0.065,0.508,0.235,0.631      c0.17,0.123,0.622-0.02,0.783,0.108l0,0C190.538,117.104,191.685,132.595,180.5,150.058z"/>
			</g>
		</g>
		<g>
			<path style="fill:#CF6B58;" d="M137.013,150.023c0.001,0,0.001,0,0.002,0c14.383,0.165,28.379,0.972,41.881,2.439     c0.335-0.486,0.669-0.972,0.981-1.458c-13.538-1.449-27.544-2.275-41.914-2.46c-0.005,0-0.01,0-0.014,0     c1.935-3.47,1.887-6.564,0.171-8.661c0.001-0.001,0.002-0.001,0.002-0.002c13.59-10.654,27.381-21.171,41.361-31.485l0.026-0.02     c-0.323-0.261-0.659-0.497-1.018-0.739c-13.919,10.294-27.695,20.767-41.259,31.38c-0.45-0.364-0.958-0.688-1.539-0.956     c0.002-0.002,0.003-0.004,0.005-0.006c10.384-11.804,21.588-23.576,33.308-35.026c-0.455-0.164-0.934-0.289-1.402-0.434     c-11.74,11.446-22.868,23.176-33.273,34.976c-1.025-0.293-2.18-0.472-3.484-0.492c-2.176-0.034-4.5,0.354-6.816,1.055     l-0.001-0.004l-3.778-30.927c-0.658,0.225-1.305,0.471-1.965,0.736l3.77,30.868l0,0.003c-5.417,2.074-10.538,5.812-13.305,10.132     c-0.666,1.04-1.137,2.047-1.46,3.014c-0.002,0-0.003,0.001-0.005,0.001c-16.063,3.66-32.107,6.889-47.885,9.63     c-0.16,0.469-0.298,0.938-0.412,1.408c15.801-2.741,31.868-5.969,47.931-9.629c0.002-0.001,0.004-0.001,0.007-0.002     c-0.54,3.114,0.779,5.627,3.638,6.924c-0.005,0.004-0.009,0.007-0.014,0.011c-13.296,10.777-26.32,21.676-39.07,32.658     c0.371,0.222,0.801,0.425,1.22,0.608c12.798-11.02,25.893-21.957,39.226-32.792c1.013,0.284,2.151,0.459,3.434,0.479     c5.013,0.078,10.808-2.021,15.476-5.261c0.005,0.002,0.01,0.004,0.015,0.007c10.389,4.799,19.527,10.639,27.336,17.461     c0.574-0.424,1.126-0.847,1.631-1.272c-7.786-6.821-16.924-12.662-27.29-17.46c-0.003-0.001-0.006-0.002-0.008-0.004     C134.29,153.3,135.826,151.712,137.013,150.023z"/>
		</g>
		<g>
			<g>
				<path style="fill:#CF6B58;" d="M121.783,153.433c-0.549,2.422-1.092,4.86-1.553,7.277c-2.314,11.419-3.811,22.702-4.443,33.635      c-0.653,0.182-1.312,0.348-1.97,0.515c0.643-10.99,2.156-22.317,4.481-33.793c0.448-2.182,0.918-4.391,1.422-6.582      c0.028-0.189,0.076-0.405,0.13-0.606l0.884-0.202L121.783,153.433z"/>
			</g>
		</g>
	</g>
	<g>
		<g>
			<g>
				<path style="fill:#703427;" d="M374.242,421.704l-1.337-0.108c5.596-68.841,33.207-139.868,56.667-168.765l1.04,0.844      C407.282,282.414,379.818,353.123,374.242,421.704z"/>
			</g>
		</g>
		<g>
			<g>
				<g>
					<path style="fill:#96976A;" d="M453.314,295.451c0.068,0.461,0.136,0.923,0.179,1.374c0.87,6.711,0.296,13.588-1.557,20.114       c-0.13,0.546-0.286,1.082-0.468,1.606c-1.764,5.634-4.477,10.99-7.97,15.717c-1.871,2.523-3.934,4.893-6.172,7.104       c-0.018,0.008-0.018,0.008-0.036,0.015c-0.553,0.555-1.078,1.077-1.639,1.614c-7.145,6.621-15.76,11.692-24.868,15.202       c-7.846,3.016-16.627,4.787-24.966,3.534c0,0,0,0-0.018,0.008c-0.428-0.053-0.827-0.139-1.244-0.217       c0.07-0.286,0.159-0.579,0.247-0.873c2.589-9.611,6.803-18.761,12.36-27.01c0.541-0.784,1.082-1.569,1.648-2.343       c3.206-4.499,6.824-8.681,10.806-12.508c6.489-6.257,13.955-11.522,22.016-15.589c0.699-0.361,1.406-0.704,2.096-1.04       c0.018-0.008,0.018-0.008,0.018-0.008c6.016-2.856,12.316-5.044,18.809-6.526C452.806,295.56,453.064,295.514,453.314,295.451z       "/>
				</g>
			</g>
			<g>
				<path style="fill:#FFF1E3;" d="M453.493,296.825c-0.043-0.451-0.111-0.913-0.179-1.374c-0.25,0.064-0.508,0.109-0.759,0.173      c-8.539,10.264-17.562,20.093-27.05,29.481c2.098-7.355,4.6-15.115,8.223-22.947c-0.689,0.336-1.396,0.679-2.096,1.04      c-3.64,8.245-6.101,16.351-8.241,23.958l0.026,0.01c-7.73,7.553-15.733,14.816-24.005,21.745l0.008,0.018      c-0.001,0.001-0.003,0.002-0.004,0.004c-0.001-0.007-0.002-0.014-0.003-0.022c-0.906-5.843-1.113-11.748-0.602-17.617      c-0.567,0.774-1.108,1.559-1.648,2.343c-0.276,5.471,0.036,10.969,0.914,16.397c-4.34,3.637-8.763,7.181-13.275,10.614      c-0.089,0.294-0.177,0.587-0.247,0.873c0.417,0.079,0.816,0.165,1.244,0.217c0.018-0.008,0.018-0.008,0.018-0.008      c7.883-6.039,15.538-12.365,22.971-18.96c8.935,1,17.945,1.072,26.862,0.224c0.561-0.537,1.085-1.059,1.639-1.614      c-8.977,0.959-18.036,0.972-27.002,0.049c7.175-6.399,14.138-13.049,20.868-19.943c6.823-0.555,13.612-1.543,20.312-2.942      c0.182-0.525,0.338-1.06,0.468-1.606c-6.328,1.368-12.757,2.353-19.212,2.922C439.936,312.443,446.865,304.762,453.493,296.825z      "/>
			</g>
		</g>
		<g>
			<g>
				<g>
					<path style="fill:#FF5B44;" d="M503,257.759c-1.864,6.17-6.158,11.449-11.329,15.273c-0.241,0.175-0.46,0.343-0.709,0.495       l-1.379-0.917l-1.348,3.01c0,0-0.022,0.007-0.015,0.03c-2.572,4.391-7.072,7.758-11.69,10.199       c-22.677,11.95-54.964,7.405-73.02-10.806c-17.902-18.037-22.983-47.544-12.156-70.541c3.518-7.431,9.779-14.86,18.001-14.877       c1.305-0.015,2.538,0.215,3.732,0.555c0.06-0.043,0.091-0.102,0.152-0.146l1.709-0.304l0.168-1.349       c2.041-1.68,4.22-3.156,6.581-4.368c7.023-3.592,15.7-4.518,22.812-1.073c7.105,3.423,11.942,11.734,10.157,19.411       c3.974-6.611,14.117-9.159,21.442-6.843c7.355,2.331,12.803,9.364,13.895,17c1.092,7.636-1.868,15.584-7.18,21.158       c6.132-2.027,13.408,0.527,17.323,5.669C504.031,244.464,504.834,251.574,503,257.759z"/>
				</g>
			</g>
			<g>
				<g>
					<path style="fill:#FFF1E3;" d="M491.326,267.854c0.057,1.909-0.087,3.807-0.365,5.674c-0.785,0.568-2.627,1.938-2.726,2.093       c0.438-2.534,0.788-5.115,0.697-7.681c-0.075-2.595-0.691-6.28-3.072-9.138c-2.601-3.085-7.075-4.742-11.992-4.43       c-4.29,0.262-8.52,2.21-12.622,4.093l-0.691,0.316c-0.451,0.216-0.949,0.125-1.323-0.202c-0.345-0.312-0.463-0.843-0.306-1.287       c2.582-7.186,3.382-13.441,2.464-19.107c-1.107-6.742-5.011-12.555-10.214-15.193c-4.116-2.09-9.342-2.447-14.71-1.055       c-5.031,1.286-9.671,4.129-13.975,6.94c-0.414,0.254-0.958,0.252-1.348-0.046c-0.413-0.29-0.598-0.8-0.471-1.26       c2.456-9.395,2.018-19.584-1.233-28.74c-1.543-4.357-3.42-7.102-5.869-8.605c-0.118-0.061-0.214-0.13-0.332-0.192       c0.613-0.564,1.234-1.105,1.877-1.653c3.678,2.425,5.529,6.661,6.589,9.638c3.08,8.691,3.76,18.236,1.951,27.254       c3.789-2.328,7.799-4.504,12.201-5.666c5.937-1.546,11.758-1.104,16.407,1.263c5.941,3.023,10.254,9.35,11.497,16.915       c0.87,5.359,0.324,11.163-1.68,17.674c3.718-1.688,7.576-3.247,11.65-3.491c5.671-0.351,10.885,1.616,13.968,5.291       C490.533,260.618,491.235,264.893,491.326,267.854z"/>
				</g>
			</g>
		</g>
	</g>
	<g>
		<g>
			<g>
				<g>
					<g>
						<g>
							<path style="fill:#FFD8A7;" d="M415.08,388.73c-5.494,7.216-13.223,13.022-22.417,16.941c0,0-7.17-0.602-10.906,0.332         c-0.861,0.22-1.53,3.678-2.409,3.862c-0.531,0.11-1.08,0.201-1.63,0.311c-2.271,0.458-4.414,0.879-6.245,1.703         c-1.374,0.623-2.472,1.502-3.077,2.454c-0.238,0.348-0.403,0.714-0.495,1.081l-4.524-0.989         c-0.11-0.275-0.201-0.568-0.293-0.861c-0.494-1.538-0.714-3.242-0.824-4.927c1.465-1.721,3.406-3.187,5.751-4.249         c2.711-1.227,5.458-1.777,8.113-2.308c0.513-0.092,1.026-0.183,1.538-0.293c2.125-0.458,4.132,0.979,6.146,0.338         c3.645-1.135,10.282-6.309,10.282-6.309c5.769-3.168,10.623-7.234,14.267-12.014c7.381-9.67,9.231-22.692,4.652-32.417         c-1.227-2.564-3.425-6.007-6.905-7.747c-1.3-0.659-2.802-1.026-4.359-1.136c-3.113-0.257-6.557,0.531-9.707,2.308         c-1.63,0.916-3.388,2.106-5.183,3.516c-3.04,2.417-6.264,5.421-9.304,8.791l-6.245-5.476         c2.784-3.077,8.022-8.425,13.974-12.362c0.861-0.568,1.74-1.117,2.637-1.612c4.762-2.692,10.073-3.828,15-3.352         c2.491,0.238,4.872,0.879,7.015,1.96c4.45,2.216,8.132,6.227,10.659,11.593C426.564,360.453,424.384,376.496,415.08,388.73z"/>
						</g>
					</g>
				</g>
				<g>
					<g>
						<path style="fill:#F7BE7F;" d="M394.091,395.818l-1.428,9.853c-3.37,1.465-6.96,2.656-10.696,3.59        c-0.861,0.22-1.74,0.421-2.619,0.604c-0.531,0.11-1.08,0.201-1.63,0.311c-2.271,0.458-4.414,0.879-6.245,1.703        c-1.374,0.623-2.472,1.502-3.077,2.454l-5.311-0.769c-0.494-1.538-0.714-3.242-0.824-4.927        c1.465-1.721,3.406-3.187,5.751-4.249c2.711-1.227,5.458-1.777,8.113-2.308c0.513-0.092,1.026-0.183,1.538-0.293        c2.125-0.458,4.212-1.007,6.227-1.648C387.535,399.005,390.96,397.54,394.091,395.818z"/>
					</g>
				</g>
				<g>
					<g>
						<path style="fill:#F7BE7F;" d="M402.919,334.317l-1.172,8.187c-3.113-0.257-6.557,0.531-9.707,2.308        c-1.63,0.916-3.388,2.106-5.183,3.516c-3.04,2.417-6.264,5.421-9.304,8.791l-6.245-5.476        c2.784-3.077,8.022-8.425,13.974-12.362c0.861-0.568,1.74-1.117,2.637-1.612C392.681,334.977,397.993,333.841,402.919,334.317        z"/>
					</g>
				</g>
			</g>
			<g>
				<g>
					<g>
						<path style="fill:#FFD8A7;" d="M395.972,319.864c-0.021,1.091-0.042,2.119-0.063,3.189c-0.021,0.734-0.042,1.469-0.063,2.203        c-0.021,0.461-0.042,0.902-0.042,1.343c-0.084,2.79-0.21,5.518-0.357,8.182c-0.126,2.329-0.294,4.615-0.462,6.86        c-0.021,0.357-0.042,0.713-0.063,1.07l-0.063,0.818c-0.126,1.762-0.294,3.504-0.462,5.224        c-0.524,5.623-1.196,10.952-1.909,15.966c-0.168,1.133-0.336,2.224-0.524,3.336c-0.231,1.49-0.483,2.937-0.734,4.343        c-1.112,6.399-2.35,12.232-3.672,17.498c-0.734,3.063-1.531,5.916-2.308,8.623c-0.126,0.441-0.252,0.86-0.378,1.28        c-1.028,3.504-2.077,6.672-3.105,9.504c-0.839,2.392-1.658,4.574-2.434,6.504c-0.063,0.147-0.105,0.294-0.168,0.441        c-2.958,7.175-9.945,11.959-17.791,12.105l-5.371,0.105l-5.518,0.105l-7.826,0.168l-16.973,0.357l-3.503,0.063        c-1.322,0.021-2.602-0.063-3.861-0.315c-3.965-0.692-7.595-2.581-10.343-5.371c-0.105-0.063-0.168-0.147-0.252-0.252        c-1.07-1.112-2.014-2.35-2.79-3.693c-0.546-0.944-1.007-1.951-1.406-3c-0.902-2.581-1.784-5.224-2.602-7.888        c-0.545-1.741-1.07-3.483-1.552-5.245c-0.273-0.902-0.525-1.804-0.755-2.727c-0.818-3-1.574-6-2.245-9.022        c-0.44-1.846-0.839-3.671-1.217-5.518c-0.881-4.133-1.679-8.245-2.371-12.315c-0.336-1.951-0.629-3.86-0.923-5.77        c-0.692-4.385-1.28-8.686-1.762-12.798c-0.042-0.189-0.063-0.356-0.084-0.546c-0.21-1.846-0.42-3.672-0.608-5.455        c-0.504-4.721-0.902-9.189-1.238-13.28c-0.168-2.182-0.315-4.259-0.42-6.21c-0.063-0.546-0.063-1.049-0.105-1.553        c-0.105-1.616-0.21-3.126-0.252-4.574c-0.042-0.566-0.063-1.133-0.105-1.678c-0.336-6.882-0.336-11.015-0.336-11.015        c1.091-0.21,2.161-0.461,3.231-0.609c7.574-1.028,15.274-1.909,23.036-2.602c2.79-0.252,5.602-0.482,8.392-0.671        c5.853-0.44,11.707-0.734,17.581-0.881h0.021c2.602-0.105,5.203-0.147,7.805-0.147c5.455-0.063,10.91,0,16.302,0.21        c2.413,0.084,4.805,0.21,7.196,0.378h0.021c2.035,0.105,4.049,0.252,6.063,0.42c0.923,0.063,4.972,0.336,9.147,0.734        c0.965,0.084,1.951,0.189,2.895,0.294c0.042,0.021,0.105,0.021,0.147,0.021c3.881,0.419,7.196,0.944,7.196,1.51        C396.035,313.109,396.035,316.528,395.972,319.864z"/>
					</g>
				</g>
				<g>
					<g>
						<g>
							<path style="fill:#FFF1E3;" d="M321.618,307.045l-6.483,5.602l-26.96,23.309c-0.168-2.182-0.315-4.259-0.42-6.21         l20.246-17.518l5.224-4.511C316.016,307.465,318.828,307.234,321.618,307.045z"/>
						</g>
					</g>
					<g>
						<g>
							<path style="fill:#FFF1E3;" d="M347.025,306.017l-8.056,6.965l-41.31,35.73l-4.616,3.986l-2.937,2.539         c-0.042-0.189-0.063-0.356-0.084-0.546c-0.21-1.846-0.42-3.672-0.608-5.455l3.231-2.79l4.7-4.07l33.946-29.351l7.91-6.861         h0.021C341.822,306.059,344.424,306.017,347.025,306.017z"/>
						</g>
					</g>
					<g>
						<g>
							<path style="fill:#FFF1E3;" d="M370.523,306.605l-6.357,5.497l-71.375,61.703c-0.336-1.951-0.629-3.86-0.923-5.77         l2.832-2.455l4.196-3.63l57.192-49.451l7.238-6.273C365.74,306.311,368.132,306.437,370.523,306.605z"/>
						</g>
					</g>
					<g>
						<g>
							<path style="fill:#FFF1E3;" d="M392.238,308.745l-1.091,0.944l-94.768,81.949c-0.44-1.846-0.839-3.671-1.217-5.518         l87.194-75.424l3.399-2.937c0.965,0.084,1.951,0.189,2.895,0.294c0.042,0.021,0.105,0.021,0.147,0.021         C390.119,308.325,391.273,308.556,392.238,308.745z"/>
						</g>
					</g>
					<g>
						<g>
							<path style="fill:#FFF1E3;" d="M395.978,319.867c-0.018,1.081-0.055,2.124-0.073,3.187c-0.018,0.733-0.037,1.465-0.055,2.198         c-0.018,0.458-0.037,0.897-0.055,1.355l-94.87,82.032c-0.531-1.74-1.062-3.48-1.538-5.256L395.978,319.867z"/>
						</g>
					</g>
					<g>
						<g>
							<path style="fill:#FFF1E3;" d="M394.989,341.643c-0.018,0.348-0.037,0.714-0.073,1.062c-0.146,2.051-0.33,4.066-0.513,6.044         l-86.427,74.724c-0.092-0.073-0.165-0.165-0.257-0.256c-1.062-1.117-1.996-2.344-2.784-3.7L394.989,341.643z"/>
						</g>
					</g>
					<g>
						<g>
							<path style="fill:#FFF1E3;" d="M392.48,364.72c-0.165,1.135-0.329,2.234-0.513,3.333c-0.238,1.483-0.476,2.93-0.733,4.341         l-65.548,56.684l-3.498,0.073c-1.319,0.018-2.601-0.073-3.865-0.311L392.48,364.72z"/>
						</g>
					</g>
					<g>
						<g>
							<path style="fill:#FFF1E3;" d="M387.553,389.903c-0.733,3.059-1.52,5.916-2.308,8.608l-34.761,30.054l-7.82,0.165         L387.553,389.903z"/>
						</g>
					</g>
				</g>
				<g>
					<g>
						<g>
							<g>
								<path style="fill:#FFFFFF;" d="M295.933,355.168c1.206-0.225,2.076-1.312,1.983-2.542          c-0.738-9.785-0.617-14.329-0.616-14.373c0.038-1.321-1.017-2.417-2.36-2.447c-1.337-0.03-2.462,1.014-2.502,2.335          c-0.006,0.19-0.134,4.788,0.627,14.869c0.099,1.318,1.266,2.299,2.606,2.193          C295.759,355.196,295.847,355.184,295.933,355.168z"/>
							</g>
						</g>
						<g>
							<g>
								<path style="fill:#FFFFFF;" d="M297.065,366.482c1.217-0.228,2.088-1.331,1.981-2.569l-0.135-1.569          c-0.079-0.944-0.079-0.944-0.18-1.713l-0.123-0.949c-0.167-1.31-1.383-2.232-2.716-2.059          c-1.326,0.171-2.277,1.375-2.11,2.686l0.124,0.962c0.088,0.673,0.088,0.673,0.158,1.498l0.135,1.582          c0.115,1.316,1.293,2.285,2.631,2.164C296.91,366.508,296.989,366.497,297.065,366.482z"/>
							</g>
						</g>
					</g>
					<g>
						<g>
							<path style="fill:#FFFFFF;" d="M366.018,420.387c0.092-0.017,0.183-0.042,0.274-0.076c6.039-2.247,10.897-7.435,12.68-13.538         c0.247-0.849-0.249-1.729-1.109-1.967c-0.861-0.24-1.759,0.256-2.007,1.104c-1.504,5.147-5.601,9.522-10.694,11.418         c-0.84,0.312-1.267,1.234-0.955,2.057C364.486,420.12,365.258,420.529,366.018,420.387z"/>
						</g>
					</g>
					<g>
						<g>
							<path style="fill:#FFFFFF;" d="M360.771,421.754c0.811-0.152,1.392-0.887,1.321-1.711c-0.075-0.878-0.859-1.524-1.752-1.444         l-2.995,0.267c-0.907,0.078-1.556,0.855-1.481,1.732c0.075,0.878,0.859,1.525,1.751,1.446l2.998-0.268         C360.667,421.771,360.719,421.763,360.771,421.754z"/>
						</g>
					</g>
				</g>
			</g>
			<g>
				<g>
					<path style="fill:#241E1C;" d="M394.504,309.227c-1.049,0.147-2.161,0.294-3.357,0.461c-2.602,0.336-5.518,0.692-8.791,1.007       c-5.161,0.525-11.203,1.007-18.19,1.406c-2.559,0.147-5.245,0.273-8.077,0.399c-2.937,0.126-6.042,0.231-9.294,0.315       c-2.707,0.084-5.308,0.126-7.826,0.168c-2.664,0.021-5.224,0.042-7.679,0.042c-5.98-0.021-11.35-0.168-16.155-0.378       c-2.539-0.126-4.909-0.252-7.133-0.42c-7.721-0.525-13.574-1.238-17.812-1.909c7.574-1.028,15.274-1.909,23.036-2.602       c2.79-0.252,5.602-0.482,8.392-0.671c5.853-0.44,11.707-0.734,17.581-0.881h0.021c2.602-0.105,5.203-0.147,7.805-0.147       c5.455-0.063,10.91,0,16.302,0.21c2.413,0.084,4.805,0.21,7.196,0.378h0.021c2.035,0.105,4.049,0.252,6.063,0.42       c0.923,0.063,4.972,0.336,9.147,0.734c0.965,0.084,1.951,0.189,2.895,0.294c0.042,0.021,0.105,0.021,0.147,0.021       c1.322,0.252,2.476,0.482,3.441,0.671C393.161,308.934,393.916,309.102,394.504,309.227z"/>
				</g>
			</g>
		</g>
		<g>
			<g>
				<g>
					<path style="fill:#BCDBE2;" d="M298.582,299.078c-2.42-7.67,1.026-16.781,7.916-20.93c3.418-2.058,7.497-2.977,10.613-5.469       c2.774-2.22,4.546-5.508,7.349-7.692c6.04-4.705,15.341-2.755,20.971,2.433c8.441,7.778,9.887,21.791,3.788,31.514       C339.839,313.888,305.176,319.974,298.582,299.078z"/>
				</g>
			</g>
			<g>
				<g>
					<path style="fill:#BCDBE2;" d="M379.814,239.105c-5.94-5.13-15.057-6.374-21.994-2.703       c-6.937,3.671-11.056,12.176-9.299,19.825c0.83,3.612,3.228,7.208,6.848,8.001c2.825,0.619,5.82-0.569,8.637,0.088       c5.079,1.184,7.548,6.949,13.301,6.103c3.572-0.525,7.852-4.315,9.28-7.543C389.862,255.472,385.56,244.069,379.814,239.105z"/>
				</g>
			</g>
			<g>
				<g>
					<path style="fill:#BCDBE2;" d="M330.405,253.411c16.704-7.902,1.362-31.049-13.604-25.133       C299.657,235.054,314.128,261.112,330.405,253.411z"/>
				</g>
			</g>
		</g>
	</g>
	<g>
		<g>
			<g>
				<path style="fill:#FFF1E3;" d="M44.404,343.599c-2.395,0.752-5.165,3.253-6.159,5.558l-4.85,11.27      c-0.992,2.305-2.419,2.232-3.17-0.163l-3.673-11.707c-0.752-2.395-3.253-5.167-5.558-6.159l-11.269-4.85      c-2.306-0.993-2.233-2.419,0.162-3.171l11.707-3.673c2.395-0.751,5.166-3.252,6.159-5.557l4.85-11.271      c0.993-2.305,2.419-2.232,3.17,0.162l3.673,11.708c0.751,2.395,3.252,5.167,5.557,6.159l11.271,4.85      c2.305,0.993,2.232,2.42-0.163,3.171L44.404,343.599z"/>
			</g>
		</g>
		<g>
			<g>
				<path style="fill:#FFF1E3;" d="M277.735,115.625c-2.395,0.752-5.165,3.253-6.159,5.558l-4.851,11.271      c-0.992,2.305-2.419,2.232-3.17-0.163l-3.673-11.707c-0.752-2.395-3.253-5.167-5.558-6.159l-11.269-4.85      c-2.306-0.993-2.233-2.42,0.162-3.171l11.707-3.673c2.395-0.751,5.166-3.252,6.159-5.557l4.851-11.271      c0.993-2.305,2.419-2.232,3.17,0.163l3.674,11.707c0.751,2.395,3.252,5.167,5.556,6.159l11.271,4.85      c2.305,0.993,2.232,2.42-0.163,3.171L277.735,115.625z"/>
			</g>
		</g>
		<g>
			<g>
				<path style="fill:#FFF1E3;" d="M310.653,148.893c-2.046,0.642-4.413,2.779-5.261,4.748l-4.143,9.627      c-0.848,1.969-2.066,1.906-2.708-0.139l-3.138-10c-0.642-2.046-2.778-4.413-4.748-5.261l-9.627-4.143      c-1.97-0.848-1.908-2.067,0.138-2.709l10.001-3.138c2.046-0.642,4.413-2.778,5.261-4.747l4.143-9.628      c0.848-1.969,2.066-1.906,2.708,0.139l3.138,10.001c0.641,2.046,2.778,4.414,4.747,5.261l9.628,4.143      c1.969,0.848,1.906,2.067-0.139,2.709L310.653,148.893z"/>
			</g>
		</g>
		<g>
			<g>
				<path style="fill:#FFF1E3;" d="M446.385,180.165c-2.911,0.914-6.279,3.954-7.486,6.756l-5.896,13.7      c-1.206,2.802-2.94,2.713-3.853-0.198l-4.465-14.23c-0.914-2.911-3.953-6.28-6.756-7.486l-13.698-5.896      c-2.803-1.207-2.715-2.941,0.197-3.854l14.23-4.465c2.911-0.913,6.28-3.953,7.486-6.755l5.896-13.7      c1.207-2.802,2.94-2.713,3.854,0.197l4.465,14.231c0.912,2.911,3.953,6.281,6.754,7.487l13.7,5.896      c2.802,1.207,2.713,2.941-0.198,3.854L446.385,180.165z"/>
			</g>
		</g>
		<g>
			<g>
				<path style="fill:#FFF1E3;" d="M197.949,402.953c-2.005,0.629-4.324,2.723-5.155,4.652l-4.06,9.434      c-0.831,1.93-2.025,1.868-2.653-0.136l-3.075-9.799c-0.629-2.005-2.722-4.325-4.652-5.155l-9.433-4.06      c-1.931-0.831-1.87-2.025,0.135-2.654l9.799-3.075c2.005-0.629,4.324-2.722,5.155-4.651l4.06-9.434      c0.831-1.929,2.025-1.868,2.654,0.136l3.075,9.8c0.628,2.005,2.722,4.325,4.651,5.155l9.435,4.06      c1.929,0.832,1.868,2.026-0.136,2.654L197.949,402.953z"/>
			</g>
		</g>
	</g>
	<g>
		<path style="fill:#FFFFFF;" d="M359.732,190.934c-8.283,0-15.722,3.73-20.707,9.598c-0.687,0.805-1.335,1.668-1.943,2.552    c-2.375,3.572-3.925,7.733-4.397,12.208c0,0.02-0.019,0.039-0.019,0.078c-0.098,0.903-0.138,1.845-0.138,2.787    c0,4.848,1.276,9.402,3.494,13.347c0.432,0.746,0.884,1.472,1.394,2.179c4.907,7.066,13.092,11.698,22.317,11.698    c1.963,0,3.867-0.216,5.692-0.608c2.65-0.549,5.162-1.511,7.458-2.787c1.747-0.962,3.376-2.12,4.868-3.435    c3.003-2.65,5.417-5.967,7.007-9.696c1.408-3.265,2.19-6.862,2.196-10.653c0-0.013,0.004-0.026,0.004-0.039    c0-0.009-0.003-0.017-0.003-0.026c-0.005-6.43-2.26-12.369-6.044-17.035c-0.511-0.648-1.06-1.276-1.649-1.865    c-1.001-1.06-2.12-2.041-3.317-2.925c-4.063-3.042-9.029-4.966-14.407-5.319C361.508,190.99,360.433,190.934,359.732,190.934z     M336.885,214.311c0.726-4.416,2.728-8.44,5.613-11.639c0.824-0.923,1.747-1.787,2.709-2.571    c3.808-3.062,8.597-4.946,13.799-5.103c0.001,0,0.003,0,0.004,0v21.151h-22.359c0.039-0.606,0.117-1.192,0.215-1.778    C336.866,214.35,336.866,214.33,336.885,214.311z M339.751,229.915c-0.549-0.942-1.04-1.923-1.452-2.964    c-0.883-2.12-1.452-4.397-1.649-6.771c0-0.001,0-0.001,0-0.003h22.36v21.161c-0.001,0-0.003,0-0.004,0    C350.821,241.102,343.677,236.568,339.751,229.915z M381.774,225.4c-2.414,7.301-8.341,13.013-15.8,15.113    c-0.959,0.254-1.937,0.469-2.935,0.607v-20.944h19.795c0,0.001,0,0.002,0,0.003C382.697,221.985,382.323,223.732,381.774,225.4z     M374.963,200.709c0.216,0.176,0.432,0.373,0.648,0.589c0.118,0.078,0.216,0.177,0.314,0.275c3.807,3.709,6.34,8.695,6.889,14.269    c0.019,0.095,0.019,0.192,0.019,0.306h-19.794v-20.934c3.686,0.531,7.098,1.924,10.02,3.983    C373.727,199.668,374.355,200.159,374.963,200.709z"/>
	</g>
	<g>
		<g>
			<g>
				<g>
					<path style="fill:#96976A;" d="M228.781,102.709c0.186,0.428,0.371,0.856,0.529,1.281c2.582,6.255,3.814,13.045,3.718,19.828       c0.016,0.561,0.004,1.119-0.035,1.673c-0.24,5.899-1.471,11.775-3.617,17.247c-1.152,2.922-2.529,5.747-4.117,8.462       c-0.016,0.012-0.016,0.012-0.031,0.024c-0.39,0.68-0.761,1.32-1.163,1.984c-5.181,8.249-12.185,15.382-20.069,21.136       c-6.794,4.949-14.814,8.939-23.192,9.894c0,0,0,0-0.015,0.012c-0.427,0.06-0.835,0.081-1.258,0.113       c-0.006-0.294,0.003-0.601,0.012-0.907c0.006-9.954,1.7-19.884,4.925-29.293c0.319-0.898,0.637-1.796,0.984-2.691       c1.928-5.176,4.336-10.155,7.189-14.884c4.642-7.727,10.486-14.749,17.214-20.77c0.582-0.531,1.176-1.046,1.754-1.549       c0.016-0.012,0.016-0.012,0.016-0.012c5.068-4.32,10.584-8.069,16.47-11.185C228.319,102.947,228.556,102.836,228.781,102.709z       "/>
				</g>
			</g>
			<g>
				<path style="fill:#FFF1E3;" d="M232.993,125.492c0.04-0.554,0.051-1.112,0.035-1.673c-5.756,2.964-11.708,5.584-17.795,7.809      c5.039-9.035,9.737-18.252,14.077-27.637c-0.158-0.425-0.344-0.853-0.529-1.281c-0.225,0.126-0.462,0.237-0.688,0.364      c-5.582,12.129-11.743,23.964-18.469,35.493c0.117-7.647,0.518-15.791,1.983-24.296c-0.578,0.503-1.172,1.018-1.754,1.549      c-1.374,8.907-1.647,17.374-1.739,25.276l0.028,0.003c-5.504,9.301-11.347,18.392-17.537,27.232l0.012,0.016      c-0.001,0.001-0.002,0.003-0.003,0.005c-0.003-0.007-0.006-0.013-0.009-0.02c-2.391-5.407-4.125-11.056-5.154-16.857      c-0.346,0.895-0.665,1.793-0.984,2.691c1.154,5.355,2.882,10.584,5.139,15.597c-3.247,4.639-6.598,9.21-10.064,13.696      c-0.009,0.306-0.018,0.613-0.012,0.907c0.424-0.032,0.831-0.053,1.258-0.113c0.015-0.012,0.015-0.012,0.015-0.012      c6.045-7.878,11.795-15.975,17.262-24.273c8.888-1.354,17.608-3.623,25.999-6.757c0.402-0.664,0.773-1.304,1.163-1.984      c-8.42,3.256-17.165,5.62-26.064,7.057c5.268-8.042,10.265-16.272,14.976-24.676      C220.586,131.298,226.886,128.581,232.993,125.492z"/>
			</g>
		</g>
		<g>
			<g>
				<g>
					<path style="fill:#96976A;" d="M33.32,226.117c0.333,0.326,0.667,0.652,1.007,0.951c4.923,4.643,10.827,8.215,17.199,10.545       c0.519,0.215,1.044,0.403,1.576,0.564c5.596,1.879,11.525,2.826,17.402,2.772c3.141-0.033,6.271-0.313,9.374-0.828       c0.017-0.01,0.017-0.01,0.034-0.02c0.774-0.122,1.504-0.24,2.269-0.379c9.554-1.899,18.716-5.897,26.904-11.211       c7.047-4.582,13.635-10.651,17.515-18.138c0,0,0,0,0.017-0.01c0.208-0.377,0.373-0.751,0.554-1.135       c-0.273-0.111-0.562-0.212-0.852-0.312c-9.301-3.545-19.183-5.504-29.123-5.847c-0.952-0.022-1.905-0.045-2.865-0.041       c-5.524-0.045-11.034,0.429-16.469,1.408c-8.875,1.581-17.519,4.536-25.543,8.675c-0.703,0.354-1.396,0.725-2.073,1.086       c-0.016,0.01-0.016,0.01-0.016,0.01c-5.844,3.194-11.313,7.01-16.324,11.398C33.707,225.77,33.519,225.952,33.32,226.117z"/>
				</g>
			</g>
			<g>
				<path style="fill:#FFF1E3;" d="M126.318,208.916c-5.428,1.639-10.893,3.139-16.385,4.518      c-3.879-3.897-8.147-7.377-12.738-10.364c-0.952-0.022-1.905-0.045-2.865-0.041c5.053,3.031,9.712,6.665,13.91,10.828      c0.005,0.005,0.01,0.01,0.016,0.016c-0.002,0.001-0.004,0.001-0.005,0.001l-0.01-0.017c-10.466,2.63-21.043,4.846-31.695,6.671      l0.007-0.027c-7.415-2.732-15.423-5.497-24.234-7.39c-0.703,0.354-1.396,0.725-2.073,1.086      c8.467,1.664,16.219,4.194,23.405,6.812c-13.169,2.172-26.424,3.707-39.746,4.596c-0.198,0.165-0.387,0.347-0.585,0.513      c0.333,0.326,0.667,0.652,1.007,0.951c10.316-0.708,20.602-1.809,30.84-3.294c-4.25,4.892-8.819,9.519-13.642,13.839      c0.518,0.215,1.044,0.403,1.576,0.564c5.065-4.603,9.849-9.52,14.304-14.718c9.531-1.403,19.002-3.137,28.395-5.19      c-4.516,7.801-9.844,15.128-15.889,21.832c0.774-0.122,1.504-0.24,2.269-0.379c5.92-6.722,11.151-14.059,15.586-21.88      c9.702-2.148,19.317-4.632,28.833-7.469c0,0,0,0,0.017-0.01c0.208-0.378,0.373-0.751,0.554-1.135      C126.898,209.117,126.608,209.016,126.318,208.916z"/>
			</g>
		</g>
	</g>
</g>















</svg>
