<?xml version="1.0" encoding="UTF-8"?>
<!-- Generator: Adobe Illustrator 25.2.1, SVG Export Plug-In . SVG Version: 6.00 Build 0)  -->
<svg xmlns="http://www.w3.org/2000/svg" xmlns:xlink="http://www.w3.org/1999/xlink" version="1.1" id="Capa_1" x="0px" y="0px" viewBox="0 0 512 512" style="enable-background:new 0 0 512 512;" xml:space="preserve" width="512" height="512">
<g>
	<g>
		<path style="fill:#FFFFFF;" d="M72.303,441.812c-1.285,0-2.362-0.217-3.26-0.565H43.148c-3.104,0-5.765-2.218-6.322-5.272    c-1.472-8.051-2.699-15.206-3.753-21.872c-5.378-33.427-7.919-61.387-7.95-87.64c-2.921-2.423-5.602-4.973-7.996-7.607    c-0.532-0.604-0.989-1.139-1.45-1.687c-0.092-0.096-0.182-0.195-0.269-0.296c-2.332-2.737-4.458-5.656-6.318-8.676    c-3.566-5.81-6.125-12.139-7.613-18.823c-0.17-0.686-0.311-1.386-0.419-2.085c-1.478-7.739-1.405-15.775,0.213-23.257    c0.1-0.529,0.225-1.067,0.352-1.605c0.418-1.769,1.567-3.28,3.16-4.156c0.959-0.528,2.027-0.796,3.099-0.796    c0.709,0,1.418,0.117,2.102,0.353c0,0,0.513,0.16,0.688,0.219c6.74,2.165,13.271,5.054,19.424,8.594    c3.577-19.976,9.283-39.15,16.981-57.061c-5.899-13.743-6.764-29.156-2.317-42.74c3.634-11.021,10.604-17.951,19.129-19.028    c0.413-0.056,0.861-0.097,1.323-0.118c1.877-1.925,3.817-3.561,5.832-4.934c5.158-3.502,11.202-5.427,17.026-5.427    c2.801,0,5.518,0.44,8.074,1.308c0.047,0.016,0.093,0.032,0.14,0.048c1.406-1.274,2.84-2.531,4.296-3.764    c-0.774-1.558-0.812-3.004-0.779-3.648c0.064-1.242,0.694-5.427,6.136-7.135l10.43-3.272c0.422-0.169,1.295-0.957,1.522-1.394    l4.305-10.005c2.152-4.996,6.176-5.385,7.358-5.385c2.695,0,6.082,1.616,7.502,6.148l0.325,1.034    c11.695-5.556,24.366-10.037,37.818-13.372c0.749-1.704,2.376-3.739,5.91-4.785l12.237-3.623c0.721-0.22,2.148-1.465,2.462-2.151    l5.236-11.64c2.238-4.976,6.042-5.513,7.574-5.513c2.807,0,6.316,1.72,7.745,6.547l3.623,12.239    c0.164,0.54,0.903,1.474,1.551,2.043c6.395-0.398,12.738-0.607,18.886-0.621l0.719-0.001c51.269,0,95.695,11.167,132.043,33.192    c12.795,7.752,24.916,17.139,36.136,27.977l2.058-4.782c2.261-5.249,6.191-5.816,7.776-5.816c1.365,0,5.969,0.477,7.896,6.618    l4.214,13.428c0.301,0.96,1.86,2.689,2.782,3.085l12.927,5.562c5.652,2.437,5.874,6.86,5.807,8.158    c-0.067,1.298-0.741,5.675-6.61,7.516l-6.668,2.092c1.605,2.34,3.174,4.716,4.709,7.125c2.002-1.848,4.237-2.04,5.068-2.04    c2.695,0,6.08,1.614,7.502,6.146l3.272,10.429c0.17,0.423,0.958,1.297,1.394,1.523l10.004,4.305    c5.24,2.257,5.439,6.484,5.375,7.726c-0.064,1.242-0.695,5.426-6.135,7.135l-6.765,2.121c4.213,9.81,7.878,19.947,10.922,30.218    c1.096,3.694,2.136,7.52,3.102,11.406c3.493,1.787,6.787,3.877,9.823,6.234c4.202,3.279,7.939,7.018,11.122,11.126    c0.086,0.105,0.17,0.214,0.251,0.325l0.35,0.484c0.282,0.379,0.494,0.666,0.701,0.96c2.801,3.85,5.193,8.147,7.046,12.683    c0.224,0.529,0.47,1.121,0.693,1.713c0.074,0.196,0.137,0.393,0.191,0.592c7.476,20.342,4.01,42.669-9.324,59.844l-0.188,0.241    c-0.184,0.24-0.374,0.481-0.572,0.716c-0.235,0.302-0.475,0.592-0.716,0.878c0,0-0.432,0.523-0.48,0.58    c-3.255,3.786-6.941,7.156-10.986,10.048c-0.198,2.657-0.416,5.25-0.657,7.811c3.124,0.484,6.206,1.122,9.217,1.909    c0.165,0.041,0.642,0.17,0.642,0.17c1.75,0.438,3.269,1.599,4.128,3.187c0.858,1.587,1.043,3.47,0.451,5.174    c-0.177,0.508-0.346,0.989-0.53,1.449c-2.476,6.704-6.443,13.07-11.481,18.424c-0.439,0.499-0.903,0.982-1.382,1.439    c-1.83,1.83-3.856,3.578-6.047,5.219c-0.663,3.799-1.368,7.602-2.104,11.338c-0.594,3.014-3.235,5.186-6.306,5.186h-30.6    c-0.955,0.371-1.98,0.565-3.035,0.565H72.303z"/>
	</g>
	<g>
		<path style="fill:#FFD8A7;" d="M479.477,352.877c0.019,0.734,0,1.487-0.019,2.221c-0.056,7.058-0.339,14.116-0.809,21.156    c-0.377,5.703-0.866,11.368-1.487,17.052c-0.301,2.879-0.64,5.759-0.997,8.639c-0.057,0.527-0.132,1.035-0.207,1.562    c-0.339,2.692-0.715,5.364-1.129,8.037c-0.056,0.47-0.113,0.941-0.207,1.411c-0.395,2.654-0.809,5.308-1.261,7.943    c-0.809,4.818-1.694,9.618-2.635,14.398H42.083c-1.318-7.209-2.578-14.455-3.727-21.72c-7.679-47.732-11.481-96.385-3.256-143.872    c9.486-54.695,36.325-108.092,81.027-138.978c35.817-24.769,80.142-33.333,123.244-33.427c44.908-0.094,90.683,8.79,129.417,32.26    c48.183,29.192,82.476,79.672,98.832,134.856c1.318,4.442,2.503,8.903,3.576,13.382c2.315,9.561,4.103,19.217,5.402,28.929    c0.094,0.659,0.188,1.299,0.245,1.939c0.377,2.767,0.696,5.552,0.96,8.319c0.075,0.583,0.132,1.167,0.188,1.75    C479.082,330.065,479.553,341.452,479.477,352.877z"/>
	</g>
	<g>
		<g>
			<path style="fill:#FFF1E3;" d="M372.41,212.786c-0.024,0.096-0.048,0.192-0.072,0.288c-0.432,0.384-0.635,1.15-1.067,1.486     c-7.345,3.264-29.441,11.26-73.702,18.628c-46.829,7.825-68,7.177-73.833,6.721c-0.12-0.264-0.216-0.528-0.288-0.816     c-0.072-0.168-0.12-0.312-0.168-0.48c-5.424-20.114,3.073-43.205,20.258-54.99c10.393-7.153,23.043-10.129,35.428-12.554     c12.386-2.4,25.059-4.416,36.364-9.985c11.329-5.569,21.339-15.434,23.523-27.867c13.802,7.465,24.243,19.346,30.411,33.772     C375.363,181.319,376.491,197.736,372.41,212.786z"/>
		</g>
		<g>
			<path style="fill:#F7E8C6;" d="M372.41,212.786c-0.024,0.096-0.048,0.192-0.072,0.288c-0.432,0.384-0.635,1.15-1.067,1.486     c-7.345,3.264-29.441,11.26-73.702,18.628c-46.829,7.825-68,7.177-73.833,6.721c-0.12-0.264-0.216-0.528-0.288-0.816     c-0.072-0.168-0.12-0.312-0.168-0.48c-5.424-20.114,3.073-43.205,20.258-54.99c10.393-7.153,23.043-10.129,35.428-12.554     c12.386-2.4,25.059-4.416,36.364-9.985c11.329-5.569,21.339-15.434,23.523-27.867c13.802,7.465,24.243,19.346,30.411,33.772     C375.363,181.319,376.491,197.736,372.41,212.786z"/>
		</g>
		<g>
			<g>
				<g>
					<g>
						<path style="fill:#9EC7D3;" d="M275.069,381.883l-7.356,3.115c-0.944-2.14-3.702-3.995-7.211-4.875        c-3.364-0.808-7.139-0.856-11.155-0.903c-0.968,0-1.936,0-2.88-0.024c-1.549-0.023-3.097-0.095-4.622-0.19        c-24.754-1.427-46.944-9.987-62.842-24.373c-19.721-17.857-28.529-44.418-22.383-67.721        c2.613-9.939,7.598-17.929,14.446-23.113c9.897-7.466,24.416-9.25,37.894-4.637c1.67,0.571,3.339,1.213,4.984,1.902        c11.373,4.803,21.972,12.246,27.706,16.597l-8.881,11.271c-6.267-4.755-12.679-8.846-18.632-11.96        c-3.508-1.831-6.872-3.305-9.921-4.352c-8.929-3.044-18.245-2.069-24.295,2.497c-5.372,4.066-8.009,10.605-9.268,15.361        c-4.719,17.976,2.589,39.544,18.197,53.644c11.954,10.796,28.287,17.739,46.823,19.998c3.63,0.452,7.332,0.713,11.107,0.808        c0.895,0.024,1.815,0.024,2.71,0.024c4.67,0.072,9.51,0.119,14.519,1.332c4.331,1.07,8.106,2.925,11.131,5.398        C275.577,375.13,275.722,378.673,275.069,381.883z"/>
					</g>
				</g>
				<g>
					<path style="fill:#8BBDC9;" d="M241.652,277.662l-8.881,11.271c-6.267-4.755-12.679-8.846-18.632-11.96       c-0.29-4.161-0.436-8.322-0.436-12.508c0-1.141,0.024-2.283,0.242-3.4C225.318,265.868,235.917,273.311,241.652,277.662z"/>
				</g>
				<g>
					<path style="fill:#8BBDC9;" d="M275.069,381.883l-7.356,3.115c-0.944-2.14-3.702-3.995-7.211-4.875       c-3.364-0.808-7.139-0.856-11.155-0.903c-0.968,0-1.936,0-2.88-0.024c-1.549-0.023-3.097-0.095-4.622-0.19       c-2.033-3.709-3.557-7.752-5.009-11.699c-0.387-1.07-0.774-2.14-1.161-3.186c3.63,0.452,7.332,0.713,11.107,0.808       c0.895,0.024,1.815,0.024,2.71,0.024c4.67,0.072,9.51,0.119,14.519,1.332c4.331,1.07,8.106,2.925,11.131,5.398       C275.577,375.13,275.722,378.673,275.069,381.883z"/>
				</g>
			</g>
			<g>
				<g>
					<path style="fill:#9EC7D3;" d="M386.403,345.573v0.024c0,0-12.739,6.722-14.021,14.759c-0.629,3.995,6.859,20.789,6.859,20.789       c-4.307,6.587-11.349,11.295-19.576,12.674l-49.751,8.251c0,0-37.676-12.151-37.313-11.556       c0.118,0.192-0.242-0.404-0.363-0.594c-8.518-13.316-20.398-35.073-31.626-66.556l4.404-19.831l-15.68-16.502       c-2.154-8.013-4.21-16.455-6.146-25.348c-0.242-1.07-0.46-2.116-0.677-3.21c-1.355-6.325-2.638-12.888-3.823-19.688       c0,0,60.954-29.152,160.214-27.94c0,0,1.113,6.04,2.516,16.241c0.097,0.809,0.218,1.641,0.339,2.497       c0.29,2.116,0.581,4.375,0.871,6.777l-3.255,21.77l7.03,17.726C387.782,297.256,388.266,321.7,386.403,345.573z"/>
				</g>
				<g>
					<g>
						<path style="fill:#FFF1E3;" d="M260.696,303.533c0,10.938-9.002,19.784-20.084,19.831        c-3.896-10.914-7.719-23.017-11.276-36.333c3.194-2.116,7.041-3.329,11.179-3.329        C251.645,283.702,260.696,292.571,260.696,303.533z"/>
					</g>
					<g>
						<path style="fill:#FFF1E3;" d="M321.65,347.245c0,10.953-9.036,19.832-20.182,19.832c-11.146,0-20.182-8.879-20.182-19.832        c0-10.953,9.036-19.832,20.182-19.832C312.615,327.412,321.65,336.291,321.65,347.245z"/>
					</g>
					<g>
						<ellipse style="fill:#FFF1E3;" cx="301.468" cy="283.7" rx="20.182" ry="19.832"/>
					</g>
					<g>
						<path style="fill:#FFF1E3;" d="M378.901,308.389c0,10.953-9.036,19.832-20.182,19.832c-11.146,0-20.182-8.879-20.182-19.832        c0-10.953,9.036-19.832,20.182-19.832C369.865,288.557,378.901,297.436,378.901,308.389z"/>
					</g>
					<g>
						<path style="fill:#FFF1E3;" d="M386.403,275.855c-0.823,0.119-1.694,0.166-2.565,0.166c-11.131,0-20.181-8.893-20.181-19.855        c0-10.534,8.396-19.189,18.971-19.807C383.983,247.155,385.411,260.732,386.403,275.855z"/>
					</g>
					<g>
						<path style="fill:#FFF1E3;" d="M386.403,345.573v0.024c-0.654,8.322-1.597,16.55-2.88,24.587        c-0.629,3.995-2.129,7.704-4.283,10.962c-1.428,0.333-2.928,0.5-4.452,0.5c-11.155,0-20.181-8.869-20.181-19.831        c0-10.962,9.026-19.831,20.181-19.831C379.119,341.983,383.137,343.314,386.403,345.573z"/>
					</g>
					<g>
						<path style="fill:#FFF1E3;" d="M310.107,399.455c0,0.88-0.048,1.76-0.194,2.615l-7.937,1.308        c-11.542,1.926-23.109-3.163-29.376-12.864c-0.121-0.19-0.242-0.404-0.363-0.594c3.412-6.135,10.066-10.296,17.689-10.296        C301.082,379.624,310.107,388.493,310.107,399.455z"/>
					</g>
				</g>
				<g>
					<g>
						<g>
							<path style="fill:#FFFFFF;" d="M377.867,278.161c-1.829,0-3.403-1.355-3.604-3.184c-1.6-14.548-3.024-21.175-3.038-21.24         c-0.418-1.926,0.829-3.822,2.79-4.234c1.952-0.41,3.887,0.812,4.308,2.738c0.061,0.277,1.509,6.983,3.157,21.971         c0.216,1.959-1.225,3.718-3.219,3.929C378.129,278.154,377.997,278.161,377.867,278.161z"/>
						</g>
						<g>
							<path style="fill:#FFFFFF;" d="M379.308,295.059c-1.847,0-3.426-1.379-3.608-3.223l-0.233-2.337         c-0.143-1.406-0.143-1.406-0.206-2.561l-0.08-1.424c-0.113-1.966,1.417-3.652,3.418-3.763         c1.991-0.113,3.715,1.392,3.829,3.359l0.082,1.444c0.056,1.01,0.056,1.01,0.18,2.24l0.236,2.356         c0.193,1.961-1.269,3.704-3.263,3.894C379.543,295.053,379.425,295.059,379.308,295.059z"/>
						</g>
					</g>
					<g>
						<path style="fill:#FFFFFF;" d="M292.999,392.987c-0.139,0-0.28-0.012-0.422-0.036c-9.469-1.639-18.014-7.913-22.3-16.371        c-0.595-1.176-0.109-2.603,1.087-3.188c1.197-0.587,2.648-0.107,3.244,1.068c3.616,7.133,10.822,12.424,18.808,13.807        c1.316,0.228,2.195,1.462,1.964,2.754C295.172,392.175,294.152,392.987,292.999,392.987z"/>
					</g>
					<g>
						<path style="fill:#FFFFFF;" d="M301.066,393.551c-1.231,0-2.284-0.918-2.406-2.147c-0.13-1.307,0.842-2.47,2.173-2.597        l4.464-0.43c1.35-0.135,2.516,0.827,2.646,2.133c0.131,1.307-0.841,2.47-2.171,2.6l-4.469,0.429        C301.223,393.548,301.144,393.551,301.066,393.551z"/>
					</g>
				</g>
			</g>
			<g>
				<path style="fill:#B6D6DD;" d="M297.471,232.585c44.261-7.369,66.369-15.43,73.714-18.694c0.432-0.336,0.722-0.433,1.154-0.817      c0.024-0.096,0.048-0.192,0.072-0.288c0.177-0.654,0.332-1.314,0.49-1.973c-80.8-0.002-135.08,19.933-150.028,26.145      c0.128,0.553,0.261,1.106,0.409,1.656c0.048,0.168,0.096,0.312,0.168,0.48c0.072,0.288,0.124,0.428,0.244,0.692      C229.526,240.241,250.641,240.41,297.471,232.585z"/>
				<path style="fill:#241E1C;" d="M374.788,212.866c0,0-0.944,0.499-2.976,1.403c-7.404,3.234-29.425,11.533-74.045,18.832      c-47.21,7.752-68.552,7.11-74.432,6.658c-1.21-0.095-1.767-0.167-1.767-0.167s0.484-0.238,1.476-0.642      c9.413-3.971,63.374-25.086,150.171-26.061C373.723,212.866,374.256,212.866,374.788,212.866z"/>
				<path style="fill:#4C483C;" d="M297.766,233.102c43.762-7.16,65.775-15.276,73.591-18.637c0.37-0.366,0.581-1.035,0.981-1.391      c0.014-0.057,0.028-0.114,0.043-0.172c-85.42,1.089-138.842,21.659-149.027,25.919c0.03,0.089,0.055,0.177,0.095,0.273      c0.061,0.244,0.149,0.467,0.244,0.692C230.038,240.232,251.445,240.707,297.766,233.102z"/>
			</g>
		</g>
		<g>
			<g>
				<path style="fill:#FFA2A5;" d="M239.634,356.133c-0.527,1.656-1.148,3.294-1.75,4.931c-0.094,0.263-0.188,0.527-0.282,0.772      c-1.129,3.181-2.165,6.362-2.315,9.712c-0.019,0.471-0.019,0.922-0.019,1.374c0,0.602,0.037,1.205,0.094,1.807      c0.264,3.425,1.092,6.851,1.242,10.314c0.15,4.46-2.861,10.051-6.663,12.403c-14.718,9.26-26.331,23.358-39.563,34.556      c-1.318,1.148-2.921,1.07-4.277,2.124l-114.727-0.272c-0.433-0.885-0.376-1.72-0.395-7.555l0.057-56.444      c1.054-3.049,0.521-6.044,2.027-9.714c5.232-12.723,13.326-28.853,25.578-45.793c12.008-16.601,26.764-37.624,41.05-56.22      c0.998-1.299,1.995-2.597,2.993-3.877c3.689-4.743,7.341-9.279,10.879-13.514c0.546-0.659,1.111-1.299,1.638-1.939      c1.054-1.261,2.089-2.466,3.143-3.633c11.311-12.93,21.174-21.833,27.536-22.247c0.188-0.019,0.376-0.019,0.546-0.019      c0.019,0,0.019,0,0.038,0c2.315,0.019,3.952,1.129,5.082,3.012c4.254,7.246,0.678,25.955-2.409,38.339      c-0.301,1.204-0.602,2.353-0.885,3.426c-0.037,0.15-0.075,0.301-0.113,0.452c-1.261,4.743-2.259,7.867-2.259,7.867      c0.226,0,0.452,0,0.678-0.019c0.019,0,0.019,0,0.038,0c5.609-0.019,11.331-0.47,16.036,2.503c1.525,0.96,2.88,2.127,4.047,3.463      c2.692,3.031,4.442,6.889,4.837,10.917c0.339,3.068-0.094,6.324,1.129,9.166c2.485,5.759,10.502,7.434,13.269,13.062      c3.444,7.039-3.068,15.923,0.132,23.057c2.466,5.534,9.637,7.416,12.987,12.46C241.987,345.085,241.272,351.033,239.634,356.133      z"/>
			</g>
			<g>
				<g>
					<g>
						<path style="fill:#703427;" d="M140.779,289.605c-0.231,0-0.458-0.107-0.601-0.309c-0.236-0.332-0.16-0.793,0.172-1.029        c14.275-10.174,29.997-17.982,46.729-23.211c0.392-0.121,0.803,0.096,0.924,0.484c0.121,0.389-0.095,0.803-0.484,0.924        c-16.582,5.182-32.164,12.921-46.312,23.003C141.077,289.561,140.927,289.605,140.779,289.605z"/>
					</g>
				</g>
				<g>
					<path style="fill:#FFFFFF;" d="M185.749,219.853c-2.079,5.173-6.12,9.238-10.069,13.164c-2.379,2.378-4.804,4.78-7.76,6.373       c-2.956,1.594-6.582,2.309-9.699,1.086c-1.247-0.485-2.24-1.039-3.025-1.686c1.062-1.247,2.101-2.448,3.141-3.626       c11.316-12.932,21.177-21.823,27.551-22.239c0.185-0.023,0.37-0.023,0.531-0.023c0.023,0,0.023,0,0.046,0       C186.996,215.096,186.627,217.706,185.749,219.853z"/>
				</g>
				<g>
					<path style="fill:#F99BA2;" d="M236.604,385.043c0.15,4.46-2.861,10.051-6.663,12.403       c-16.186,10.183-28.628,26.219-43.572,37.85H145.94c10.596-4.818,21.306-9.43,31.696-14.681       c19.913-10.107,39.167-23.038,51.345-41.746c1.016-1.581,2.164-3.294,3.576-4.517c0.81-0.678,1.713-1.205,2.711-1.431       c0,0.602,0.037,1.205,0.094,1.807C235.625,378.154,236.453,381.58,236.604,385.043z"/>
				</g>
			</g>
		</g>
	</g>
	<g>
		<g>
			<path style="fill:#FFFFFF;" d="M355.616,204.238c-0.13-0.027-0.264-0.043-0.401-0.043c-0.054,0-0.105,0.012-0.158,0.016     c-0.042-0.001-0.08-0.006-0.122-0.006c-0.32-0.019-0.64-0.019-0.96-0.019c-7.943,0-15.076,3.576-19.857,9.204     c-0.659,0.772-1.28,1.6-1.863,2.447c-2.277,3.426-3.764,7.416-4.216,11.707c0,0.019-0.019,0.038-0.019,0.075     c-0.094,0.866-0.132,1.769-0.132,2.673c0,4.649,1.224,9.016,3.35,12.799c0.414,0.715,0.847,1.412,1.336,2.089     c4.705,6.776,12.554,11.217,21.4,11.217c1.882,0,3.708-0.207,5.458-0.583c2.541-0.527,4.95-1.449,7.152-2.673     c1.675-0.922,3.237-2.033,4.668-3.294c2.879-2.541,5.194-5.722,6.719-9.298c1.35-3.131,2.1-6.58,2.106-10.216     c0-0.013,0.004-0.024,0.004-0.037c0-0.008-0.002-0.016-0.002-0.024c-0.005-6.166-2.168-11.862-5.796-16.337     c-0.49-0.621-1.016-1.223-1.581-1.788c-0.96-1.016-2.032-1.957-3.181-2.804c-3.896-2.917-8.658-4.762-13.815-5.101     C355.678,204.241,355.645,204.24,355.616,204.238z M353.283,252.52c-0.001,0-0.003,0-0.004,0     c-7.849-0.226-14.699-4.574-18.464-10.954c-0.527-0.903-0.997-1.845-1.393-2.842c-0.847-2.033-1.393-4.216-1.581-6.493     c0-0.001,0-0.002,0-0.002h21.442V252.52z M353.283,228.365h-21.441c0.038-0.581,0.112-1.143,0.206-1.706     c0-0.019,0-0.037,0.019-0.056c0.696-4.235,2.616-8.093,5.383-11.161c0.79-0.885,1.675-1.713,2.597-2.466     c3.651-2.936,8.244-4.743,13.232-4.894c0.001,0,0.003,0,0.004,0V228.365z M357.146,208.291c3.535,0.509,6.807,1.845,9.609,3.82     c0.64,0.452,1.243,0.922,1.826,1.449c0.207,0.17,0.414,0.358,0.621,0.565c0.113,0.075,0.207,0.169,0.301,0.264     c3.651,3.557,6.079,8.338,6.606,13.683c0.018,0.092,0.018,0.184,0.018,0.294h-18.981V208.291z M357.146,232.228h18.982     c0,0.001,0,0.002,0,0.002c-0.132,1.732-0.489,3.407-1.016,5.007c-2.315,7.002-7.999,12.479-15.151,14.492     c-0.919,0.244-1.857,0.45-2.814,0.582V232.228z"/>
		</g>
		<g>
			<path style="fill:#FFFFFF;" d="M438.578,253.029l-87.539-106.229c-0.019-0.038-0.193-0.221-0.245-0.263     c-0.32-0.282-0.753-0.452-1.204-0.471c0,0-0.038,0-0.056,0H156.97c-0.583,0-1.148,0.282-1.506,0.734L69.92,254.271     c-1.016,0.056-1.826,0.885-1.826,1.92c0,0.659,0.339,1.242,0.828,1.581l0.32,112.459l0.15,56.069     c0.019,5.835,0.038,8.112,0.471,8.997c0.263,0.546,0.696,0.565,1.374,0.565h365.854c1.073,0,1.939-0.866,1.939-1.939V254.252     C439.03,253.819,438.861,253.386,438.578,253.029z M157.892,149.943h187.576l-56.54,69.301l-2.24,2.748l-12.328,15.114     l-0.056,0.075l-13.439,16.469l-0.002,0.003c-0.52,0.022-0.986,0.245-1.321,0.599h-70.406H74.87L157.892,149.943z M73.063,360.142     c-0.113-43.421-0.245-91.812-0.264-102.013h115.339h54.262h5.496h11.114v173.874H73.27     C73.252,424.192,73.158,393.645,73.063,360.142z M435.171,432.003H262.874V257.307l0.005-0.006l17.052-20.892l0.056-0.094     l12.573-15.396l2.202-2.692l54.79-67.174l15.904,19.311l69.715,84.584V432.003z"/>
		</g>
	</g>
	<g>
		<g>
			<g>
				<path style="fill:#703427;" d="M448.667,334.409c-1.562,2.371-3.087,4.743-4.592,7.133c-0.245,0.395-0.489,0.772-0.734,1.167      c-0.96,1.562-1.92,3.124-2.88,4.686c-6.324,10.502-12.083,21.287-17.26,32.335c-6.117,12.968-11.443,26.275-15.942,39.902      c-0.188,0.583-0.395,1.167-0.583,1.75c-0.169,0.508-0.32,1.035-0.489,1.543c-0.038,0.113-0.075,0.207-0.094,0.32      c-1.336,4.178-2.597,8.375-3.783,12.61h-2.353c5.458-19.687,12.554-38.791,21.231-57.199      c5.948-12.667,12.667-24.995,20.121-36.928c0.602-1.017,1.242-2.014,1.882-3.012c0.941-1.505,1.92-2.993,2.899-4.479      c0.132-0.226,0.282-0.452,0.433-0.659c0.075-0.132,0.169-0.282,0.264-0.414l0.245,0.169L448.667,334.409z"/>
			</g>
			<g>
				<g>
					<path style="fill:#FFF1E3;" d="M492.659,364.014c-0.219,0.276-0.437,0.576-0.678,0.853c-0.35,0.46-0.723,0.876-1.073,1.314       c-5.397,6.276-11.914,11.113-19.036,14.339c-0.49,0.261-1.004,0.477-1.54,0.693c-11.751,4.99-24.959,5.885-37.353,2.334       c-0.545-0.144-1.091-0.311-1.637-0.478c-6.1-1.947-12.001-5.006-17.366-9.161c-5.94-4.593-10.708-10.186-14.225-16.307       c-0.283-0.49-0.567-1.002-0.805-1.493c-7.529-13.99-8.784-30.734-3.245-45.82c0.19-0.524,0.403-1.049,0.615-1.573       c1.891-4.744,4.465-9.278,7.746-13.492c12.161-15.68,31.008-23.128,49.428-21.466c0.588,0.053,1.132,0.107,1.698,0.183       c9.715,1.157,19.269,4.914,27.581,11.367c3.868,3.019,7.25,6.434,10.097,10.133c0.328,0.466,0.677,0.909,1.005,1.375       c2.596,3.57,4.724,7.423,6.359,11.424c0.216,0.514,0.432,1.028,0.625,1.542l-0.022,0.023       C507.503,327.428,505.083,348.011,492.659,364.014z"/>
				</g>
				<g>
					<path style="fill:#CF6B58;" d="M500.838,309.803l0.014-0.018c-0.194-0.523-0.403-1.027-0.629-1.546       c-13.001,5.191-25.931,10.694-38.727,16.502c-0.27-0.729-0.594-1.441-0.987-2.122c0.002-0.002,0.003-0.003,0.005-0.004       c10.587-9.182,21.802-17.848,33.349-25.8c-0.317-0.475-0.662-0.914-0.993-1.371c-11.56,7.935-22.708,16.591-33.31,25.756       c-0.731-0.971-1.588-1.87-2.594-2.651c-1.68-1.304-3.564-2.151-5.51-2.589l0-0.005l3.722-42.003       c-0.559-0.091-1.113-0.149-1.681-0.191l-3.716,41.921l0,0.005c-4.644-0.467-9.418,1.379-12.491,5.338       c-0.74,0.953-1.321,1.976-1.78,3.035c-0.001-0.001-0.003-0.001-0.004-0.001c-13.237-4.591-26.367-9.728-39.185-15.337       c-0.225,0.511-0.433,1.036-0.622,1.574c12.837,5.623,25.983,10.773,39.221,15.365c0.002,0.001,0.004,0.001,0.006,0.002       c-1.088,3.696-0.606,7.695,1.331,11.021c-0.004,0.002-0.009,0.004-0.013,0.006c-12.622,6.173-25.061,12.66-37.305,19.413       c0.24,0.501,0.529,1.011,0.815,1.49c12.289-6.775,24.791-13.27,37.455-19.496c0.724,0.953,1.568,1.836,2.558,2.605       c0.736,0.571,1.513,1.053,2.315,1.457c0,0.001,0,0.001-0.001,0.002c-4.27,13.428-7.878,27.133-10.74,40.909       c0.546,0.167,1.092,0.334,1.637,0.478c2.84-13.706,6.427-27.363,10.675-40.721c3.009,1.075,6.271,1.075,9.239,0.065       c0.003,0.006,0.007,0.012,0.01,0.017c7.02,12.194,12.846,25.006,17.433,38.311c0.536-0.212,1.055-0.438,1.538-0.692       c-4.568-13.291-10.395-26.102-17.397-38.283c-0.002-0.003-0.004-0.006-0.006-0.009c1.676-0.81,3.207-1.965,4.491-3.452       c0.001,0,0.001,0.001,0.002,0.001c11.113,8.543,21.786,17.687,31.936,27.397c0.363-0.432,0.728-0.864,1.074-1.309       c-10.181-9.706-20.859-18.882-31.958-27.442c-0.004-0.003-0.007-0.005-0.011-0.008c2.246-3.347,2.874-7.357,1.995-11.05       c0.001,0,0.001-0.001,0.002-0.001C474.825,320.524,487.785,314.984,500.838,309.803z"/>
				</g>
			</g>
		</g>
		<g>
			<g>
				<path style="fill:#96976A;" d="M492.048,397.808c-2.235,6.092-5.772,11.685-10.241,16.412c0,0-0.915,0.194-1.105,0.392      c-0.181,0.188-0.006,0.767-0.006,0.767c-3.997,4.009-8.679,7.36-13.744,9.831c-2.709,1.316-5.552,2.414-8.435,3.301l0,0      c0,0-1.014,0.003-1.327,0.1c-0.383,0.118-0.781,0.546-0.781,0.546c-9.011,2.463-18.584,2.955-27.884,1.902      c-8.009-0.913-16.26-3.3-22.795-8.062c0,0,0,0-0.019-0.001c-0.34-0.234-0.57-1.159-0.364-1.369      c6.462-7.024,14.102-12.937,22.484-17.488l1.014,0.051l1.427-1.313c4.72-2.404,9.651-4.357,14.733-5.845      c8.292-2.444,16.974-3.611,25.631-3.495l0.98,0.451l1.263-0.407c0.019,0.002,0.019,0.002,0.019,0.002      c6.381,0.238,12.708,1.17,18.887,2.789C492.024,396.427,492.211,397.405,492.048,397.808z"/>
			</g>
			<g>
				<path style="fill:#FFF1E3;" d="M492.505,396.56c-0.241-0.057-0.481-0.132-0.722-0.189c-11.811,4.942-23.841,9.3-36.07,13.077      c5.044-5.323,10.612-10.814,17.164-15.867c-0.735-0.02-1.488-0.042-2.243-0.044c-6.75,5.397-12.436,11.199-17.628,16.718      l0.017,0.02c-9.921,2.995-19.945,5.623-30.051,7.848l-0.001,0.019c-0.002,0-0.004,0.001-0.005,0.001      c0.002-0.007,0.004-0.013,0.007-0.02c1.82-5.37,4.261-10.483,7.298-15.247c-0.825,0.407-1.633,0.835-2.44,1.262      c-2.66,4.53-4.832,9.343-6.491,14.348c-5.303,1.168-10.634,2.221-15.993,3.14c-0.206,0.21-0.411,0.421-0.597,0.633      c0.32,0.252,0.621,0.502,0.961,0.736c0.019,0.002,0.019,0.002,0.019,0.002c9.38-1.641,18.693-3.626,27.938-5.938      c7.154,4.811,14.783,8.866,22.742,12.098c0.715-0.208,1.392-0.419,2.109-0.646c-8.058-3.164-15.767-7.169-22.982-11.928      c8.938-2.26,17.806-4.828,26.585-7.706c6.048,2.553,12.259,4.722,18.576,6.503c0.388-0.366,0.758-0.752,1.111-1.158      c-5.988-1.642-11.89-3.655-17.631-6.033c9.42-3.11,18.717-6.569,27.872-10.38C492.211,397.405,492.358,396.982,492.505,396.56z"/>
			</g>
		</g>
	</g>
	<g>
		<g>
			<path style="fill:#703427;" d="M79.534,235.128c-8.15,22.586-11.764,46.885-10.804,70.995c0.019,1.186,0.075,2.372,0.151,3.576     c0.038,0.621,0.075,1.242,0.132,1.863c-0.019,0.151,0,0.301,0.037,0.471c0.922,13.777,3.369,27.423,7.322,40.598     c-0.471,1.148-0.941,2.371-1.43,3.651c-1.826-5.741-3.35-11.575-4.611-17.485c-0.019-0.094-0.038-0.188-0.056-0.301     c-0.188-0.847-0.377-1.713-0.527-2.579c-0.885-4.423-1.6-8.903-2.127-13.382c-3.708-29.7-0.471-60.342,9.693-88.367     c2.277-6.362,4.931-12.592,7.943-18.652l2.183,1.092C84.447,222.611,81.812,228.804,79.534,235.128z"/>
		</g>
		<g>
			<g>
				<path style="fill:#96976A;" d="M136.207,242.338l0.603,0.582c1.084,6.925,0.677,14.061-1.064,20.869l-0.624,0.739l0.183,0.937      c-1.672,5.882-4.336,11.501-7.823,16.491c-1.868,2.663-3.939,5.174-6.197,7.523c-0.019,0.008-0.019,0.008-0.037,0.017      c0,0-1.629,0.371-1.927,0.681c-0.248,0.257,0.274,1.035,0.274,1.035c-7.218,7.05-15.999,12.536-25.333,16.418      c-8.042,3.337-17.085,5.41-25.753,4.341c0,0,0,0-0.018,0.009l-0.81-0.471l-0.252-0.631c2.419-10.022,6.532-19.611,12.061-28.304      l0.889-0.478l0.754-1.993c3.197-4.745,6.828-9.175,10.847-13.245c6.548-6.656,14.135-12.31,22.37-16.741      c0,0,0.403,0.303,0.707,0.142c0.412-0.218,1.434-1.276,1.434-1.276c0.019-0.009,0.019-0.009,0.019-0.009      c6.151-3.122,12.614-5.559,19.297-7.27L136.207,242.338z"/>
			</g>
			<g>
				<path style="fill:#FFF1E3;" d="M136.81,242.92c-0.057-0.466-0.14-0.942-0.223-1.418c-0.257,0.073-0.523,0.127-0.78,0.2      c-8.562,10.861-17.636,21.284-27.203,31.263c1.972-7.672,4.35-15.776,7.887-23.984c-0.704,0.366-1.427,0.741-2.142,1.135      c-3.543,8.636-5.87,17.096-7.879,25.031l0.027,0.01c-7.798,8.031-15.885,15.769-24.261,23.17l0.008,0.019      c-0.001,0.001-0.003,0.002-0.004,0.004c-0.001-0.007-0.003-0.015-0.004-0.022c-1.097-6.025-1.473-12.133-1.104-18.224      c-0.566,0.817-1.104,1.644-1.643,2.471c-0.136,5.672,0.336,11.356,1.394,16.952c-4.395,3.884-8.877,7.674-13.455,11.352      c-0.084,0.306-0.167,0.613-0.232,0.911c0.434,0.07,0.85,0.148,1.294,0.191c0.018-0.009,0.018-0.009,0.018-0.009      c7.998-6.468,15.75-13.227,23.267-20.258c9.279,0.791,18.609,0.62,27.819-0.501c0.566-0.571,1.095-1.126,1.652-1.716      c-9.268,1.237-18.648,1.498-27.957,0.788c7.255-6.822,14.282-13.897,21.063-21.218c7.05-0.761,14.052-1.97,20.951-3.6      c0.174-0.549,0.321-1.108,0.441-1.676c-6.515,1.589-13.144,2.784-19.812,3.549C123.199,259.461,130.164,251.319,136.81,242.92z"/>
			</g>
		</g>
		<g>
			<g>
				<path style="fill:#96976A;" d="M7.195,265.497l-0.69,0.284c-1.494,6.848-1.512,13.996-0.179,20.895l0.78,0.988l-0.44,0.711      c1.32,5.971,3.644,11.738,6.829,16.927c1.706,2.77,3.625,5.399,5.739,7.879c0.018,0.009,0.018,0.009,0.036,0.019l1.655,0.963      l-0.107,0.848c6.786,7.467,15.226,13.465,24.312,17.896c7.829,3.809,16.75,6.426,25.467,5.873l0,0l0.278-0.897l0.847-0.139      c-1.818-10.148-5.355-19.965-10.357-28.971l-1.002-0.181l-0.491-2.383c-2.909-4.927-6.271-9.565-10.041-13.867      c-6.141-7.033-13.378-13.129-21.335-18.042l-1.035,0.032l-1.035-1.292c-0.018-0.01-0.018-0.01-0.018-0.01      c-5.955-3.482-12.261-6.299-18.831-8.405L7.195,265.497z"/>
			</g>
			<g>
				<path style="fill:#FFF1E3;" d="M71.724,337.744c-4.352-3.943-8.601-7.993-12.757-12.132c1.389-5.523,2.199-11.169,2.4-16.839      c-0.488-0.857-0.977-1.715-1.493-2.564c0.007,6.102-0.731,12.178-2.185,18.127c-0.002,0.008-0.004,0.015-0.006,0.022      c-0.001-0.001-0.003-0.003-0.004-0.004l0.01-0.018c-7.921-7.886-15.534-16.092-22.841-24.572l0.027-0.008      c-1.533-8.04-3.353-16.624-6.377-25.455c-0.69-0.435-1.389-0.852-2.07-1.26c3.043,8.404,4.935,16.635,6.447,24.411      c-8.958-10.53-17.396-21.475-25.296-32.825c-0.252-0.088-0.514-0.158-0.767-0.246c-0.112,0.47-0.223,0.941-0.307,1.402      c6.135,8.779,12.604,17.321,19.387,25.616c-6.611-1.161-13.157-2.747-19.566-4.721c0.086,0.575,0.2,1.142,0.341,1.7      c6.79,2.038,13.708,3.661,20.7,4.84c6.334,7.711,12.928,15.192,19.764,22.433c-9.335,0.156-18.682-0.662-27.861-2.448      c0.521,0.622,1.017,1.207,1.548,1.811c9.127,1.667,18.431,2.393,27.74,2.155c7.086,7.465,14.423,14.673,22.021,21.605      c0,0,0,0,0.018,0.009c0.446-0.016,0.866-0.07,1.303-0.114C71.854,338.365,71.789,338.054,71.724,337.744z"/>
			</g>
		</g>
		<g>
			<g>
				<path style="fill:#FF5B44;" d="M151.041,203.029c-0.939,5.48-4.053,10.456-8.073,14.28c-0.188,0.175-0.358,0.342-0.554,0.499      l-1.409,0.091c0,0-0.633,1.847-0.702,1.99c0,0-0.019,0.008-0.01,0.027c-1.735,4.033-5.228,7.393-8.922,9.974      c-18.141,12.642-46.262,12.187-63.657-1.482c-17.244-13.536-24.732-38.254-17.911-59.092c2.221-6.735,6.79-13.761,13.827-14.65      c1.115-0.152,2.195-0.086,3.254,0.078c0.047-0.044,0.067-0.098,0.114-0.142c0,0,0.831-0.259,1.097-0.557      c0.211-0.237,0.333-1.057,0.333-1.057c1.569-1.655,3.277-3.15,5.169-4.439c5.629-3.822,12.959-5.538,19.414-3.345      c6.446,2.174,11.471,8.774,10.76,15.536c2.698-6.082,11.11-9.342,17.627-8.139c6.544,1.213,11.955,6.654,13.703,13.074      c1.747,6.421,0.059,13.539-3.896,18.876c5.033-2.388,11.533-0.976,15.432,3.01C150.509,191.538,151.953,197.539,151.041,203.029      z"/>
			</g>
			<g>
				<path style="fill:#FFF1E3;" d="M142.122,212.913c0.252,1.628,0.331,3.269,0.291,4.896c-0.611,0.57-1.24,1.102-1.904,1.607      c-0.06,0.161-0.139,0.332-0.208,0.475c0.105-2.216,0.13-4.462-0.221-6.649c-0.34-2.214-1.259-5.303-3.602-7.496      c-2.555-2.365-6.561-3.307-10.737-2.517c-3.645,0.681-7.058,2.799-10.369,4.847l-0.558,0.344      c-0.363,0.232-0.799,0.208-1.154-0.032c-0.329-0.23-0.486-0.672-0.399-1.07c1.446-6.426,1.465-11.866,0.077-16.618      c-1.665-5.654-5.626-10.214-10.36-11.919c-3.746-1.351-8.258-1.101-12.705,0.662c-4.17,1.636-7.839,4.563-11.224,7.428      c-0.328,0.261-0.794,0.318-1.159,0.105c-0.384-0.204-0.597-0.621-0.537-1.028c1.103-8.304-0.356-16.979-4.113-24.472      c-1.785-3.565-3.683-5.716-5.939-6.742c-0.108-0.04-0.197-0.089-0.305-0.129c0.465-0.548,0.938-1.077,1.431-1.614      c3.406,1.685,5.442,5.114,6.666,7.549c3.561,7.113,5.158,15.211,4.57,23.123c2.995-2.396,6.197-4.685,9.842-6.148      c4.918-1.955,9.948-2.196,14.179-0.664c5.408,1.956,9.772,6.913,11.641,13.256c1.315,4.495,1.465,9.522,0.443,15.308      c3.003-1.841,6.14-3.586,9.601-4.228c4.817-0.904,9.49,0.225,12.52,3.044C140.673,206.803,141.729,210.388,142.122,212.913z"/>
			</g>
		</g>
	</g>
	<g>
		<path style="fill:#FFF1E3;" d="M217.612,109.926c-2.504,0.742-5.428,3.297-6.5,5.677l-5.235,11.641    c-1.071,2.381-2.554,2.28-3.294-0.223l-3.623-12.238c-0.741-2.504-3.296-5.429-5.677-6.499l-11.64-5.235    c-2.382-1.072-2.282-2.554,0.222-3.295l12.239-3.623c2.503-0.741,5.428-3.296,6.499-5.676l5.235-11.641    c1.071-2.381,2.554-2.281,3.294,0.222l3.624,12.239c0.741,2.504,3.295,5.429,5.676,6.5l11.641,5.234    c2.381,1.072,2.28,2.554-0.223,3.296L217.612,109.926z"/>
	</g>
	<g>
		<path style="fill:#FFF1E3;" d="M429.752,183.89c-2.747,0.862-5.925,3.731-7.064,6.375l-5.564,12.927    c-1.138,2.644-2.775,2.56-3.635-0.187l-4.213-13.427c-0.862-2.747-3.731-5.926-6.375-7.064l-12.926-5.563    c-2.645-1.139-2.561-2.775,0.186-3.637l13.428-4.213c2.747-0.862,5.925-3.73,7.064-6.374l5.563-12.928    c1.139-2.644,2.775-2.56,3.636,0.186l4.214,13.428c0.861,2.747,3.73,5.926,6.373,7.064l12.928,5.563    c2.644,1.139,2.56,2.775-0.187,3.637L429.752,183.89z"/>
	</g>
	<g>
		<path style="fill:#FFF1E3;" d="M457.271,227.389c-2.134,0.669-4.601,2.898-5.486,4.951l-4.321,10.039    c-0.884,2.053-2.155,1.988-2.823-0.145l-3.272-10.428c-0.67-2.134-2.897-4.602-4.951-5.486l-10.039-4.32    c-2.054-0.884-1.99-2.155,0.144-2.824l10.429-3.272c2.133-0.669,4.602-2.897,5.486-4.95l4.321-10.04    c0.884-2.053,2.155-1.988,2.824,0.145l3.272,10.429c0.668,2.134,2.896,4.603,4.95,5.486l10.04,4.321    c2.053,0.885,1.988,2.155-0.145,2.824L457.271,227.389z"/>
	</g>
	<g>
		<path style="fill:#FFF1E3;" d="M265.891,124.144c-1.779,0.558-3.837,2.416-4.574,4.128l-3.603,8.37    c-0.737,1.712-1.797,1.657-2.354-0.121l-2.728-8.695c-0.559-1.779-2.416-3.837-4.128-4.574l-8.37-3.603    c-1.713-0.737-1.659-1.797,0.12-2.355l8.695-2.728c1.779-0.558,3.837-2.416,4.574-4.127l3.602-8.371    c0.737-1.712,1.797-1.658,2.354,0.121l2.728,8.695c0.557,1.779,2.415,3.837,4.127,4.574l8.371,3.602    c1.712,0.738,1.658,1.797-0.121,2.355L265.891,124.144z"/>
	</g>
	<g>
		<path style="fill:#FFF1E3;" d="M137.545,138.967c-2.134,0.669-4.602,2.898-5.486,4.951l-4.321,10.039    c-0.884,2.053-2.155,1.988-2.823-0.145l-3.272-10.428c-0.67-2.134-2.897-4.602-4.951-5.486l-10.038-4.32    c-2.054-0.885-1.99-2.155,0.144-2.825l10.428-3.272c2.133-0.669,4.602-2.897,5.486-4.95l4.321-10.04    c0.884-2.053,2.155-1.988,2.824,0.145l3.272,10.429c0.669,2.134,2.897,4.603,4.95,5.486l10.04,4.32    c2.053,0.885,1.988,2.156-0.145,2.825L137.545,138.967z"/>
	</g>
</g>















</svg>
