<?xml version="1.0" encoding="UTF-8"?>
<!-- Generator: Adobe Illustrator 25.2.1, SVG Export Plug-In . SVG Version: 6.00 Build 0)  -->
<svg xmlns="http://www.w3.org/2000/svg" xmlns:xlink="http://www.w3.org/1999/xlink" version="1.1" id="Capa_1" x="0px" y="0px" viewBox="0 0 512 512" style="enable-background:new 0 0 512 512;" xml:space="preserve" width="512" height="512">
<g>
	<g>
		<g>
			<path style="fill:#FFFFFF;" d="M498.842,97.47c-0.766-13.041-7.638-24.711-17.934-30.455c-4.692-2.618-10.064-4.001-15.534-4.001     c-3.138,0-6.224,0.455-9.173,1.352c-5.999,1.824-9.967,5.87-13.156,9.121c-2.899,2.955-4.416,4.347-5.799,4.347     c-0.133,0-0.279-0.009-0.431-0.028c-1.251-0.154-2.682-0.521-4.198-0.909c-1.477-0.379-3.004-0.77-4.686-1.062     c-1.849-0.322-3.752-0.485-5.657-0.485c-8.204,0-16.331,3.054-22.556,8.243c-1.918-1.745-3.868-3.456-5.852-5.127     c0.806-0.547,1.525-1.25,2.109-2.102l5.072-7.401c1.201-1.753,1.657-3.911,1.268-6c-0.39-2.088-1.594-3.937-3.347-5.138     l-15.161-10.39c-0.374-0.256-0.765-0.478-1.17-0.665c-0.317-0.306-0.663-0.589-1.039-0.846l-18.382-12.6     c-1.211-0.83-2.617-1.283-4.058-1.368c-0.748-0.843-1.657-1.54-2.706-2.009l-32.695-14.624c-1.062-0.476-2.173-0.7-3.267-0.7     c-2.651,0-5.195,1.328-6.695,3.615c-3.699-5.377-9.58-9.44-17.241-11.424c-2.355-0.578-4.771-0.871-7.182-0.871     c-4.775,0-9.196,1.102-13.028,3.113c-0.396-3.82-3.493-6.911-7.454-7.162l-8.519-0.539c-0.17-0.011-0.34-0.016-0.508-0.016     c-0.915,0-1.806,0.156-2.642,0.449c-1.978-0.899-4.322-1.555-7.063-1.728c-0.63-0.04-1.261-0.06-1.887-0.06     c-11.931,0-24.454,7.705-25.536,24.918c-0.044,0.69-0.058,1.369-0.06,2.044c-3.317,0.177-6.628,0.449-9.928,0.821l0.574-2.902     c1.28-0.614,2.387-1.563,3.191-2.762c1.183-1.765,1.617-3.928,1.206-6.013l-1.737-8.802c-0.753-3.818-4.102-6.462-7.851-6.462     c-0.514,0-1.036,0.049-1.56,0.153l-18.027,3.556c-0.45,0.089-0.884,0.214-1.299,0.371c-0.441,0.012-0.884,0.062-1.324,0.148     l-21.861,4.309c-2.085,0.411-3.921,1.634-5.105,3.398c-0.891,1.329-1.357,2.884-1.357,4.462c-2.775-1.166-5.88-1.789-9.249-1.789     c-5.36,0-10.264,1.518-13.429,2.789c-5.261,2.108-10.202,5.975-14.719,11.473c-0.832-0.283-1.704-0.444-2.587-0.444     c-1.032,0-2.074,0.2-3.066,0.613l-1.531-2.574c-1.308-2.199-3.588-3.642-6.136-3.881c-0.251-0.024-0.502-0.035-0.751-0.035     c-2.283,0-4.473,0.977-6.001,2.704l-9.262,10.472c-1.05,1.188-1.678,2.625-1.903,4.117l-2.647-3.088     c-1.585-1.849-3.829-2.797-6.086-2.797c-1.845,0-3.699,0.634-5.21,1.929l-9.448,8.098c-1.07,0.917-1.843,2.061-2.302,3.306     c-3.635,1.108-7.212,3.136-10.574,6.018c-9.414,8.075-13.414,23.116-3.815,34.311c2.689,3.137,5.912,5.374,9.524,6.642     c-0.197,0.602-0.323,1.23-0.373,1.873c-0.162,2.118,0.523,4.215,1.906,5.828l11.865,13.84c1.383,1.613,3.35,2.611,5.469,2.774     c0.205,0.015,0.41,0.023,0.614,0.023c0.819,0,1.621-0.15,2.393-0.392c-1.364,2.663-2.656,5.363-3.881,8.093     c-1.976-2.19-4.541-3.065-6.754-3.065c-3.821,0-7.182,2.399-8.992,6.421l-5.107,11.367c-0.238,0.408-1.069,1.133-1.41,1.283     l-12.046,3.566c-6.673,1.975-7.529,7.113-7.632,8.641c-0.104,1.527,0.052,6.735,6.401,9.592l11.367,5.107     c0.408,0.239,1.133,1.069,1.282,1.41l3.566,12.044c0.91,3.076,2.573,5.066,4.443,6.246c-0.38,5.405-0.843,10.807-2.061,16.002     c-10.771,2.673-20.287,8.072-27.272,15.689c-9.254,10.091-13.062,22.432-15.346,32.056c-5.077,21.406-5.012,41.208,0.191,58.858     c6.39,21.675,21.293,39.8,39.866,48.485c1.62,0.758,3.29,1.424,4.982,2.037c1.196,2.723,2.414,5.435,3.653,8.136     c-0.084,0.058-0.172,0.108-0.256,0.167c-3.302,2.342-5.496,5.025-6.886,7.857c-0.823-0.275-1.686-0.416-2.554-0.416     c-1.603,0-3.222,0.48-4.629,1.478l-13.678,9.703c-1.733,1.23-2.907,3.097-3.263,5.192c-0.356,2.095,0.135,4.246,1.365,5.978     l6.738,9.495c0.849,1.196,1.972,2.095,3.232,2.664c0.774,3.453,2.262,6.809,4.425,9.855c5.384,7.59,13.15,12.123,20.774,12.123     c0.001,0,0.001,0,0.001,0c0.589,0,1.172-0.031,1.752-0.082c-2.351,5.351-2.376,11.914,5.226,19.094     c1.247,1.181,5.766,4.855,9.293,6.246c0.954,0.376,1.95,0.558,2.936,0.558c0.482,0,0.961-0.05,1.434-0.136     c1.416,4.579,4.609,8.837,9.431,12.01c1.183,0.776,3.945,2.358,7.624,3.007c0.526,0.67,1.164,1.261,1.898,1.744l11.895,7.823     c1.028,0.677,2.155,1.083,3.298,1.241l-0.465,0.343c-3.191,2.359-4.174,6.698-2.311,10.203c2.309,4.343,5.701,7.551,10.081,9.537     c0.123,0.056,0.249,0.109,0.375,0.159c3.27,1.285,6.446,1.937,9.44,1.937c8.254,0,13.33-4.882,15.769-7.228     c0.09-0.086,0.177-0.175,0.263-0.265l19.423-20.504c0.2,0.015,0.399,0.022,0.598,0.022c1.108,0,2.216-0.23,3.248-0.688     c1.28-0.568,2.348-1.477,3.166-2.583c2.339,0.566,4.691,1.078,7.053,1.551l0.114,0.393c-2.76,3.151-4.486,7.172-4.778,11.709     c-0.712,11.058,7.634,19.656,19.852,20.444c0.376,0.023,0.779,0.038,1.202,0.038c1.454,0,4.064-0.176,6.927-1.196     c0.786,0.319,1.628,0.516,2.501,0.573l14.207,0.918c0.173,0.011,0.345,0.017,0.518,0.017c1.94,0,3.821-0.705,5.288-1.993     c0.97-0.852,1.706-1.92,2.168-3.101c2.517,2.386,6.123,3.999,11.371,3.999c1.037,0,2.148-0.065,3.293-0.194     c1.707-0.19,7.43-1.266,10.765-3.057c2.885-1.548,4.537-4.697,4.172-7.951l-0.949-8.46c-0.299-2.669-1.915-5.01-4.304-6.235     c-0.902-0.463-1.87-0.744-2.851-0.843l-0.041-0.369c1.447-0.487,2.737-1.381,3.704-2.592c0.644-0.806,1.117-1.722,1.409-2.692     c2.855-0.628,5.687-1.34,8.505-2.097l2.869,6.995c-1.024,2.008-1.199,4.433-0.278,6.682l3.305,8.066     c0.806,1.967,2.36,3.533,4.321,4.353c0.989,0.414,2.04,0.621,3.092,0.621c1.033,0,2.067-0.2,3.042-0.6l19.324-7.931     c0.524-0.214,1.012-0.479,1.463-0.784c0.549-0.099,1.09-0.257,1.615-0.472l15.818-6.489c3.914-1.605,5.866-5.953,4.562-9.91     c1.166,0.17,2.354,0.267,3.567,0.267c0.001,0,0.001,0,0.002,0c5.535,0,11.28-1.89,16.177-5.322     c6.244-4.376,10.313-10.505,11.459-17.259c0.089-0.526,0.132-1.051,0.185-1.576l1.586,1.304c1.491,1.226,3.293,1.823,5.084,1.823     c2.313,0,4.608-0.997,6.192-2.923l12.555-15.266c0.193-0.234,0.37-0.476,0.532-0.724c0.214-0.209,0.418-0.429,0.61-0.663     l10.949-13.315c0.22-0.268,0.421-0.547,0.601-0.833c0.251-0.235,0.487-0.487,0.708-0.755l10.739-13.057     c2.81-3.418,2.319-8.466-1.098-11.277l-0.709-0.583c6.334-2.238,11.651-7.119,14.697-13.839     c3.785-8.368,4.482-15.868,2.191-23.601c-0.603-2.038-1.992-3.752-3.859-4.766c-1.185-0.643-2.5-0.971-3.823-0.971     c-0.647,0-1.297,0.078-1.934,0.237c-0.217-0.28-0.454-0.549-0.712-0.802c-0.571-0.562-1.176-1.081-1.803-1.562     c1.035-2.706,1.962-5.441,2.765-8.201c0.154,0.008,0.308,0.017,0.458,0.017c0.001,0,0.001,0,0.001,0     c3.822,0,7.184-2.401,8.991-6.421l5.108-11.365c0.239-0.409,1.07-1.135,1.411-1.285l12.046-3.566     c6.672-1.975,7.528-7.113,7.631-8.64c0.104-1.527-0.052-6.734-6.4-9.592l-11.368-5.108c-0.407-0.239-1.131-1.067-1.281-1.411     l-3.567-12.045c-1.669-5.642-5.868-7.653-9.24-7.653c-2.926,0-5.584,1.408-7.48,3.874c0.221-10.009-0.859-19.636-1.763-27.715     c-0.698-6.228-1.357-12.111-1.06-15.547c1.318-15.224,13.278-20.186,13.708-20.36c0.633-0.237,1.221-0.55,1.755-0.924     c3.011-1.913,4.541-5.534,4.662-11.051c3.028,1.724,6.502,2.785,10.15,2.983c0.442,0.024,0.884,0.036,1.325,0.036     c5.253,0,10.6-1.663,15.463-4.807c7.206-4.658,11.928-11.703,12.957-19.33c1.269-9.401-3.715-18.904-11.852-22.596     c-0.71-0.322-1.429-0.582-2.153-0.81c12.266-7.541,22.535-18.12,29.701-30.608C496.57,118.435,499.444,107.706,498.842,97.47z      M440.028,166.94c-0.731,0.831-2.18,1.715-3.713,2.65c-0.724,0.441-1.493,0.912-2.279,1.43c0.701-2.143,1.043-4.368,1.018-6.57     c0.112,0.044,0.217,0.094,0.331,0.136c1.81,0.67,3.717,1.076,5.686,1.228C440.723,166.17,440.375,166.545,440.028,166.94z"/>
		</g>
		<g>
			<g>
				<g>
					<path style="fill:#AFCBD3;" d="M406.602,236.135c-1.464,16.945,13.685,61.635-13.951,86.454       c-13.995,12.553-29.055,16.235-36.751,17.299c-3.105,0.444-5.013,0.444-5.168,0.444l-10.18-50.967c0,0,22.645,0,27.169-19.628       c4.524-19.628-6.787-83.815,53.607-85.322l2.95,17.477l1.197,7.075C425.476,208.966,408.399,215.376,406.602,236.135z"/>
				</g>
				<g>
					<path style="fill:#9FC1C9;" d="M406.602,236.135c-1.464,16.945,13.685,61.635-13.951,86.454       c-13.995,12.553-29.055,16.235-36.751,17.299c-1.175-1.508-1.597-3.238-0.665-5.168c1.597-3.283,7.43-4.547,10.424-6.055       c4.147-2.063,8.162-4.436,11.888-7.186c7.918-5.811,14.638-13.44,18.409-22.512c4.569-11.001,4.525-23.332,3.992-35.242       c-0.532-11.888-1.464-24.02,1.486-35.575c2.972-11.533,10.69-22.645,22.112-26.061c0.244-0.066,0.488-0.133,0.732-0.2       l1.197,7.075C425.476,208.966,408.399,215.376,406.602,236.135z"/>
				</g>
				<g>
					<path style="fill:#241E1C;" d="M425.958,196.198c1.158,6.789,0.895,12.498-0.589,12.752c-1.483,0.253-3.625-5.046-4.783-11.835       c-1.158-6.789-0.895-12.499,0.589-12.752C422.658,184.11,424.8,189.409,425.958,196.198z"/>
				</g>
			</g>
			<g>
				<g>
					<path style="fill:#F8E5D7;" d="M121.404,229.464c-14.579-18.915-21.15-44.305-17.581-67.918       c3.57-23.613,17.351-45.926,36.868-59.687l5.111,7.249c-17.578,12.396-29.994,32.495-33.208,53.763       c-3.214,21.269,2.705,44.139,15.835,61.178L121.404,229.464z"/>
				</g>
				<g>
					<path style="fill:#F8E5D7;" d="M329.488,240.736l-7.494-4.75c14.858-23.446,21.876-49.199,19.76-72.515       c-2.404-26.501-16.933-49.974-37.915-61.259l4.202-7.812c23.574,12.677,39.877,38.837,42.549,68.27       C352.882,187.922,345.388,215.647,329.488,240.736z"/>
				</g>
				<g>
					<g>
						<path style="fill:#241E1C;" d="M133.304,119.558l-8.499-13.13c-2.058-3.179-1.042-7.417,2.206-9.363        c54.924-32.907,124.117-38.766,183.795-15.56c3.529,1.372,5.243,5.379,3.749,8.858l-7.008,16.323        c-1.405,3.271-5.136,4.861-8.46,3.585c-49.27-18.907-108.112-14.23-153.857,12.109        C141.117,124.749,135.883,123.543,133.304,119.558z"/>
					</g>
					<g>
						<path style="fill:#F8E5D7;" d="M308.193,87.315c-0.262,0-0.529-0.048-0.789-0.145c-4.65-1.767-6.392-2.428-11.194-3.875        c-1.174-0.353-1.839-1.591-1.484-2.764c0.351-1.17,1.583-1.836,2.762-1.483c4.954,1.492,6.866,2.219,11.493,3.974        c1.143,0.435,1.72,1.717,1.284,2.861C309.929,86.769,309.087,87.315,308.193,87.315z"/>
					</g>
					<g>
						<path style="fill:#F8E5D7;" d="M288.651,80.947c-0.195,0-0.392-0.026-0.587-0.08c-16.662-4.561-33.762-7.079-50.821-7.483        c-1.226-0.028-2.194-1.045-2.166-2.269c0.028-1.226,1.048-2.272,2.27-2.165c17.42,0.412,34.878,2.982,51.887,7.639        c1.183,0.323,1.878,1.543,1.555,2.725C290.518,80.3,289.626,80.947,288.651,80.947z"/>
					</g>
				</g>
			</g>
			<g>
				<path style="fill:#AFCBD3;" d="M83.359,358.655c-7.832,0-15.774-1.657-23.069-5.068c-16.526-7.728-29.825-23.987-35.575-43.494      c-4.804-16.297-4.83-34.714-0.08-54.744c2.06-8.68,5.449-19.761,13.455-28.491c10.286-11.217,26.972-16.658,44.603-14.561      c15.465,1.838,29.574,8.871,41.337,15.511l-7.63,13.521c-10.423-5.883-22.796-12.101-35.538-13.615      c-12.495-1.483-24.512,2.206-31.326,9.636c-4.36,4.753-7.379,11.41-9.794,21.582c-4.117,17.364-4.163,33.101-0.132,46.77      c4.512,15.305,14.702,27.948,27.258,33.821c13.407,6.266,29.68,4.377,39.578-4.594l10.426,11.503      C108.023,354.452,95.831,358.655,83.359,358.655z"/>
			</g>
			<g>
				<g>
					<g>
						<g>
							<path style="fill:#241E1C;" d="M235.975,142.14h-24.916c-5.606,0-10.193-4.587-10.193-10.193l0,0         c0-5.606,4.587-10.193,10.193-10.193h24.916c5.606,0,10.193,4.587,10.193,10.193l0,0         C246.168,137.554,241.581,142.14,235.975,142.14z"/>
						</g>
						<g>
							<rect x="210.492" y="139.12" style="fill:#241E1C;" width="27.181" height="7.928"/>
						</g>
					</g>
					<g>
						<path style="fill:#AFCBD3;" d="M135.178,178.004c0,0,21.896-33.599,87.961-33.599c66.065,0,90.226,34.731,90.226,34.731        S134.801,177.627,135.178,178.004z"/>
					</g>
					<g>
						<path style="fill:#F8E5D7;" d="M316.103,187.82H134.612c-3.232,0-5.852-2.62-5.852-5.852l0,0c0-3.232,2.62-5.852,5.852-5.852        h181.491c2.45,0,4.436,1.986,4.436,4.436v2.831C320.538,185.834,318.552,187.82,316.103,187.82z"/>
					</g>
				</g>
				<g>
					<g>
						<path style="fill:#AFCBD3;" d="M354.459,384.845c-3.327,4.968-7.785,9.071-13.418,11.577        c-7.297,3.238-15.436,4.059-23.421,4.17c-20.449,0.288-40.898,0.311-61.347,0.643c-30.541,0.466-61.081,0.953-91.622,1.419        c-12.066,0.178-24.242,0.333-35.975-2.395c-10.979-2.573-21.669-7.984-28.633-16.745l-8.628-52.52        c1.974-20.05,6.188-39.967,11.866-59.506c0-0.022,0-0.044,0.022-0.044c8.362-29.01,19.895-57.289,31.894-84.369        c18.564,0.067,37.15,0.133,55.714,0.222c8.938,0.022,17.876,0.066,26.814,0.111h0.022c2.129,0,4.281,0.022,6.41,0.022h0.022        c8.583,0.044,17.189,0.066,25.772,0.111c21.913,0.089,43.804,0.2,65.717,0.288c17.832,46.376,34.688,93.507,43.293,142.434        L354.459,384.845z"/>
					</g>
					<g>
						<path style="fill:#9FC1C9;" d="M354.468,384.843c-3.32,4.957-7.789,9.065-13.427,11.58c-7.297,3.238-15.436,4.059-23.421,4.17        c-20.449,0.288-40.898,0.311-61.347,0.643c-30.541,0.466-61.081,0.953-91.622,1.419c-12.066,0.178-24.242,0.333-35.975-2.395        c-10.975-2.573-21.651-7.979-28.633-16.745l-8.631-52.521c1.978-20.06,6.199-39.957,11.869-59.504        c-1.131,27.568,6.143,56.046,25.861,77.405c25.129,27.236,66.803,39.057,106.725,40.233        c39.922,1.175,79.334-6.809,118.769-12.332L354.468,384.843z"/>
					</g>
					<g>
						<g>
							<path style="fill:#FFBDB5;" d="M147.045,317.25c10.223-9.838,19.318-21.821,24.775-35.001         c2.89-6.98,5.355-16.301,0.036-22.75c-4.686-5.681-12.658-5.812-18.366-1.603c-3.681,2.714-6.277,6.642-8.436,10.674         c-2.488-5.063-6.203-9.848-11.334-12.193c-5.408-2.471-12.069-1.678-16.204,2.79         C101.7,276.262,146.041,318.216,147.045,317.25z"/>
						</g>
						<g>
							<path style="fill:#FFBDB5;" d="M247.712,206.371c-5.478,13.175-14.571,25.151-24.796,34.999         c-0.932,0.909-39.235-35.22-32.004-54.073c8.938,0.022,17.876,0.066,26.814,0.111h0.022c1.242,1.663,2.307,3.46,3.194,5.279         c0.954-1.819,2.018-3.593,3.216-5.257h0.022c8.583,0.044,17.189,0.066,25.772,0.111         C252.103,193.507,250.041,200.693,247.712,206.371z"/>
						</g>
						<g>
							<path style="fill:#FFBDB5;" d="M222.926,385.77c10.223-9.838,19.318-21.821,24.775-35.001         c2.89-6.98,5.355-16.301,0.035-22.749c-4.686-5.681-12.658-5.812-18.366-1.603c-3.681,2.714-6.277,6.642-8.436,10.674         c-2.488-5.064-6.203-9.849-11.334-12.194c-5.408-2.471-12.069-1.678-16.204,2.79         C177.58,344.78,221.922,386.736,222.926,385.77z"/>
						</g>
						<g>
							<path style="fill:#FFBDB5;" d="M293.427,315.268c10.223-9.838,19.318-21.822,24.775-35.001         c2.89-6.98,5.355-16.301,0.036-22.749c-4.686-5.681-12.658-5.812-18.366-1.603c-3.681,2.714-6.277,6.642-8.436,10.674         c-2.488-5.063-6.203-9.848-11.334-12.193c-5.408-2.471-12.07-1.678-16.204,2.79         C248.081,274.28,292.423,316.235,293.427,315.268z"/>
						</g>
						<g>
							<path style="fill:#FFBDB5;" d="M360.825,369.076c-0.466,2.44-1.153,4.88-2.018,7.208c-1.131,3.038-2.573,5.922-4.347,8.561         c-8.361-6.92-41.741-41.697-27.702-56.867c4.125-4.48,10.801-5.279,16.191-2.794c5.145,2.351,8.849,7.119,11.334,12.198         c1.353-2.506,2.861-4.968,4.68-7.119c0.289,1.663,0.577,3.305,0.843,4.968C361.645,346.431,363.02,357.943,360.825,369.076z"/>
						</g>
						<path style="fill:#F4B3AE;" d="M347.154,377.869c3.035,3.162,5.654,5.609,7.302,6.974c0.028-0.041,0.055-0.083,0.082-0.124        c0.386-0.579,0.755-1.169,1.109-1.77c0.036-0.061,0.074-0.121,0.11-0.182c0.376-0.646,0.733-1.303,1.073-1.972        c0.049-0.096,0.095-0.195,0.143-0.292c0.282-0.566,0.551-1.14,0.809-1.721c0.066-0.15,0.133-0.299,0.198-0.45        c0.29-0.675,0.569-1.356,0.826-2.048c-1.419,0.133-2.817,0.311-4.17,0.51C352.142,377.144,349.648,377.503,347.154,377.869z"/>
						<g>
							<path style="fill:#FFBDB5;" d="M122.267,351.045c-4.99,12.087-13.041,23.155-22.223,32.47c-0.51-0.599-0.976-1.22-1.42-1.863         c-8.184-11.755-8.872-27.103-7.962-41.386c0.2-3.083,0.444-6.188,0.754-9.271c1.641,1.929,2.972,4.147,4.081,6.387         c2.173-4.037,4.768-7.962,8.45-10.69c5.7-4.192,13.684-4.081,18.364,1.619C127.635,334.743,125.151,344.081,122.267,351.045z         "/>
						</g>
						<path style="fill:#F4B3AE;" d="M100.044,383.515c9.182-9.315,17.233-20.383,22.223-32.47c0.938-2.265,1.828-4.782,2.426-7.368        c-4.907-6.196-8.891-12.885-12.034-19.901c-3.026-0.005-6.107,1-8.712,2.916c-3.682,2.728-6.277,6.654-8.45,10.69        c-1.109-2.24-2.439-4.457-4.081-6.387c-0.002,0.016-0.003,0.032-0.005,0.048c-0.139,1.381-0.261,2.767-0.375,4.153        c-0.014,0.164-0.03,0.327-0.043,0.49c-0.123,1.528-0.233,3.056-0.331,4.578c-0.91,14.283-0.222,29.631,7.962,41.386        c0.316,0.452,0.651,0.887,0.985,1.322C99.753,383.155,99.893,383.338,100.044,383.515z"/>
					</g>
					<g>
						<g>
							<g>
								<g>
									<path style="fill:#F8E5D7;" d="M336.37,283.816c-0.75,0-1.44-0.495-1.652-1.254c-4.599-16.402-9.407-32.674-14.291-48.364           c-0.282-0.906,0.224-1.868,1.129-2.149c0.905-0.279,1.868,0.223,2.149,1.129c4.893,15.721,9.71,32.024,14.318,48.458           c0.256,0.913-0.277,1.861-1.19,2.116C336.679,283.795,336.524,283.816,336.37,283.816z"/>
								</g>
							</g>
							<g>
								<g>
									<path style="fill:#F8E5D7;" d="M318.728,224.805c-0.727,0-1.402-0.466-1.635-1.196c-1.516-4.757-3.051-9.496-4.603-14.206           c-0.296-0.9,0.193-1.871,1.093-2.168c0.902-0.296,1.871,0.193,2.168,1.093c1.555,4.721,3.093,9.47,4.613,14.238           c0.288,0.903-0.211,1.869-1.114,2.157C319.076,224.779,318.901,224.805,318.728,224.805z"/>
								</g>
							</g>
						</g>
						<g>
							<g>
								<path style="fill:#F8E5D7;" d="M154.436,393.803c-15.246,0-34.78-4.93-46.422-18.942c-0.404-0.486-0.337-1.208,0.149-1.612          c0.487-0.405,1.208-0.337,1.611,0.149c11.708,14.091,31.901,18.586,46.884,18.079c0.621-0.03,1.161,0.474,1.182,1.105          c0.021,0.632-0.474,1.161-1.106,1.182C155.981,393.791,155.214,393.803,154.436,393.803z"/>
							</g>
						</g>
						<g>
							<g>
								<path style="fill:#F8E5D7;" d="M183.878,393.625h-15.289c-0.632,0-1.145-0.513-1.145-1.145c0-0.632,0.513-1.144,1.145-1.144          h15.289c0.632,0,1.145,0.513,1.145,1.144C185.022,393.112,184.51,393.625,183.878,393.625z"/>
							</g>
						</g>
					</g>
				</g>
			</g>
		</g>
		<g>
			<g>
				<path style="fill:#F8E5D7;" d="M434.043,181.777c-2.352,3.525-2.021,8.481,0.391,11.965c2.412,3.485,6.626,5.504,10.857,5.733      c4.232,0.23,8.447-1.198,12.006-3.499c4.787-3.095,8.605-8.024,9.367-13.673c0.762-5.649-2.032-11.874-7.222-14.229      c-5.329-2.418-9.959,0.244-13.397,4.156C442.659,176.082,436.963,177.402,434.043,181.777z"/>
			</g>
			<g>
				<g>
					<path style="fill:#F8E5D7;" d="M391.594,155.005c-2.655,6.199-0.983,13.99,3.983,18.553c3.649,3.352,8.701,4.899,13.655,5.007       c5.286,0.114,10.835-1.471,14.438-5.341c3.602-3.87,4.658-10.282,1.532-14.546c-2.293-3.128-6.264-4.624-8.747-7.604       c-1.253-1.504-2.084-3.339-3.449-4.742C406.975,140.138,394.186,148.955,391.594,155.005z"/>
				</g>
				<g>
					<path style="fill:#F8E5D7;" d="M435.84,85.757c-3.144-0.386-6.158-1.487-9.279-2.029c-9.54-1.658-19.854,2.42-25.679,10.156       c-5.825,7.735-6.896,18.774-2.667,27.485c3.348,6.895,9.467,11.965,15.405,16.81c5.93,4.84,11.86,9.679,17.79,14.518       c2.088,1.704,4.227,3.438,6.755,4.373c5.984,2.215,12.632-0.496,18.076-3.824c11.175-6.832,20.592-16.514,27.111-27.875       c4.785-8.339,8.057-17.833,7.493-27.431c-0.563-9.597-5.444-19.245-13.84-23.93c-5.557-3.101-12.385-3.833-18.473-1.981       C449.191,74.871,445.897,86.991,435.84,85.757z"/>
				</g>
			</g>
		</g>
		<g>
			<g>
				<g>
					<path style="fill:#241E1C;" d="M77.887,111.423L66.018,97.584l10.214-8.76c3.956,4.613,9.229,1.426,11.63-0.442       c1.922-1.65,4.291-4.442,2.313-6.749c-3.673-4.283-23.208,15.613-35.218,1.61c-6.97-8.127-2.437-18.402,2.944-23.017       c4.614-3.955,10.553-6.475,16.283-4.242L70.777,50.9l9.446-8.101l11.821,13.784l-9.939,8.525       c-3.486-4.062-8.649-3.638-12.493-0.342c-1.593,1.366-2.942,4.238-1.293,6.16c4.85,5.656,25.468-14.312,36.535-1.406       c7.348,8.568,1.967,18.519-4.568,24.123c-5.547,4.756-11.604,5.472-15.811,4.791l3.023,4.747L77.887,111.423z"/>
				</g>
				<g>
					<path style="fill:#241E1C;" d="M96.91,49.592l3.358-1.997l-3.403-5.721l9.258-10.473l5.585,9.389l5.907-3.513l4.807,8.082       l-5.907,3.514l6.582,11.067c1.257,2.114,2.523,5.233,4.948,3.791c0.809-0.481,2.404-2.188,3.289-3.388l4.733,7.958       c-1.422,1.856-5.39,4.806-6.82,5.657c-9.327,5.547-12.669,0.633-17.59-7.214l-6.582-11.066l-3.358,1.995L96.91,49.592z"/>
				</g>
				<g>
					<path style="fill:#241E1C;" d="M125.186,36.314c2.039-2.689,6.548-8.162,12.725-10.639c8.058-3.232,19.409-4.277,23.745,6.534       l5.251,13.093l4.028-1.616l3.447,8.595l-14.369,5.763l-2.823-2.375c-1.111,4.421-4.924,6.963-7.342,7.933       c-6.378,2.559-14.601,1.881-17.725-5.908c-3.043-7.587,1.424-14.913,9.012-17.956c3.961-1.59,7.093-0.584,7.59-0.316       l-0.942-2.351c-1.212-3.022-4.261-2.656-7.887-1.202c-3.962,1.589-6.78,4.668-8.766,7.101L125.186,36.314z M152.845,49.694       l-1.023-2.55c-0.337-0.256-1.923-1.49-4.743-0.359c-2.686,1.077-3.301,3.04-2.468,5.121c0.754,1.881,2.811,2.537,4.825,1.729       C151.451,52.826,152.645,50.945,152.845,49.694z"/>
				</g>
				<g>
					<path style="fill:#241E1C;" d="M195.14,20.776l-3.265,0.645l-1.778-9.014l18.028-3.556l1.736,8.802l-3.406,0.672l-7.018,35.451       c-1.19,4.806-2.98,11.059-13.286,13.016c-3.732,0.516-6.795-0.429-9.288-1.855l3.672-9.425       c1.416,0.827,3.046,1.612,4.592,1.602c2.285-0.009,3.511-2.388,3.8-4.658l0.406-3.178l-19.02-23.53l-2.91,0.572l-1.792-9.085       l21.861-4.311l1.778,9.015l-3.336,0.657l6.797,10.161L195.14,20.776z"/>
				</g>
				<g>
					<path style="fill:#241E1C;" d="M256.744,25.54c0.074-3.475-0.75-7.658-4.07-7.868c-4.259-0.268-6.64,4.149-6.935,8.841       c-0.296,4.692,2.282,8.625,6.899,8.988c3.821,0.314,6.448-1.115,8.994-3.563l5.888,7.763       c-3.624,3.469-10.354,6.74-18.151,6.249c-10.613-0.669-19.448-7.677-18.637-20.528c0.805-12.779,9.684-17.944,18.925-17.361       c4.909,0.309,7.627,3.163,8.764,4.684l1.445-3.388l8.519,0.538l-1.029,16.315L256.744,25.54z"/>
				</g>
				<g>
					<path style="fill:#241E1C;" d="M270.906,28.131c2.95-11.714,14.037-15.922,23.732-13.543       c11.065,2.863,17.648,11.556,14.979,23.339c-2.72,11.697-12.999,16.25-23.678,13.63       C275.893,49.093,267.715,40.531,270.906,28.131z M295.215,34.394c1.293-5.27,0.466-9.793-2.819-10.673       c-2.74-0.671-5.847,2.886-7.105,8.014c-1.414,5.761-0.097,10.106,2.854,10.831C291.167,43.306,293.923,39.662,295.215,34.394z"/>
				</g>
				<g>
					<path style="fill:#241E1C;" d="M314.62,35.862l5.911-13.203l32.68,14.631l-3.813,8.517l-22.807,8.81l6.933,3.104l2.01-4.49       l9.308,4.167l-5.882,13.139l-33.208-14.868l3.872-8.649l23.006-8.721l-7.329-3.281l-2.098,4.688L314.62,35.862z"/>
				</g>
				<g>
					<path style="fill:#241E1C;" d="M376.855,63.54l-2.744-1.882l5.196-7.576l15.152,10.393l-5.073,7.397l-2.863-1.965       l-30.237,19.788c-4.266,2.511-9.984,5.607-18.594-0.384c-2.979-2.307-4.447-5.156-5.172-7.934l9.302-3.97       c0.4,1.59,0.98,3.303,2.069,4.4c1.603,1.627,4.162,0.836,5.986-0.544l2.553-1.932l3.504-30.05l-2.446-1.679l5.237-7.636       l18.375,12.601l-5.196,7.576l-2.803-1.922l-2.505,11.966L376.855,63.54z"/>
				</g>
			</g>
			<g>
				<g>
					<path style="fill:#241E1C;" d="M42.227,396.451l13.67-9.714l7.17,10.089c-4.556,3.239-2.078,8.335-0.567,10.69       c1.349,1.899,3.71,4.303,5.988,2.684c4.232-3.007-12.361-22.565,1.473-32.394c8.028-5.706,17.059-0.695,20.837,4.623       c3.238,4.555,5.049,10.206,2.523,15.268l4.942-2.696l6.63,9.33l-13.615,9.676l-6.978-9.818       c4.014-2.853,4.057-7.618,1.359-11.414c-1.119-1.574-3.637-3.049-5.535-1.7c-5.588,3.969,10.979,24.525-1.768,33.584       c-8.462,6.012-17.128,0.253-21.714-6.203c-3.894-5.478-4.043-11.087-3.067-14.884l-4.6,2.373L42.227,396.451z"/>
				</g>
				<g>
					<path style="fill:#241E1C;" d="M96.87,413.753l2.616,2.466l4.198-4.456l11.602,5.54l-6.891,7.312l4.599,4.335l-5.932,6.294       l-4.6-4.335l-8.122,8.619c-1.553,1.645-3.991,3.553-2.101,5.334c0.629,0.593,2.54,1.571,3.826,2.051l-5.842,6.198       c-2-0.787-5.612-3.552-6.725-4.602c-7.264-6.845-3.764-11.043,1.933-17.378l8.123-8.619l-2.614-2.463L96.87,413.753z"/>
				</g>
				<g>
					<path style="fill:#241E1C;" d="M113.251,433.417c3.101,0.12,9.602,0.639,14.724,3.991c6.681,4.374,13.447,12.382,7.58,21.347       l-7.108,10.855l3.341,2.188l-4.665,7.126l-11.914-7.801l0.304-3.38c-3.92,1.491-7.845-0.044-9.849-1.358       c-5.289-3.461-9.109-10.018-4.881-16.477c4.118-6.291,11.995-6.781,18.286-2.662c3.284,2.15,4.175,5.041,4.235,5.555       l1.276-1.947c1.64-2.505-0.242-4.613-3.248-6.58c-3.285-2.151-7.091-2.654-9.972-2.871L113.251,433.417z M117.729,461.321       l1.385-2.116c0.016-0.387,0.11-2.234-2.228-3.765c-2.226-1.457-4.031-0.889-5.16,0.837c-1.02,1.56-0.433,3.455,1.238,4.548       C114.633,461.918,116.68,461.828,117.729,461.321z"/>
				</g>
				<g>
					<path style="fill:#241E1C;" d="M166.271,468.191l-2.859-1.093l3.018-7.894l15.787,6.037l-2.947,7.706l-2.983-1.14       L153.5,496.004c-3.275,3.165-7.725,7.162-16.712,3.655c-3.161-1.423-5.086-3.655-6.332-5.982l7.465-5.552       c0.7,1.336,1.587,2.744,2.797,3.491c1.784,1.109,3.902-0.146,5.237-1.773l1.867-2.278l-3.327-27.629l-2.548-0.974l3.041-7.955       l19.142,7.319l-3.018,7.892l-2.92-1.117l0.332,11.24L166.271,468.191z"/>
				</g>
				<g>
					<path style="fill:#241E1C;" d="M199.066,471.357c2.752-1.434,8.65-4.213,14.761-3.845c7.969,0.478,17.818,4.07,17.175,14.762       l-0.779,12.949l3.985,0.24l-0.511,8.501l-14.212-0.854l-1.414-3.085c-2.661,3.24-6.831,3.855-9.222,3.712       c-6.309-0.379-12.879-4.173-12.416-11.878c0.451-7.504,7.044-11.84,14.548-11.389c3.918,0.235,6.126,2.301,6.435,2.719       l0.14-2.324c0.179-2.988-2.499-3.883-6.085-4.098c-3.918-0.236-7.472,1.217-10.079,2.46L199.066,471.357z M216.806,493.352       l0.151-2.524c-0.179-0.345-1.013-1.995-3.802-2.161c-2.656-0.16-3.939,1.23-4.064,3.287c-0.111,1.861,1.34,3.214,3.332,3.335       C214.416,495.407,216.148,494.313,216.806,493.352z"/>
				</g>
				<g>
					<path style="fill:#241E1C;" d="M237.043,470.029l3.569-0.419l-0.713-6.078l11.702-5.323l1.169,9.978l6.278-0.736l1.007,8.589       l-6.278,0.738l1.378,11.761c0.263,2.247,0.157,5.34,2.734,5.039c0.859-0.101,2.837-0.935,4.031-1.611l0.991,8.458       c-1.889,1.025-6.329,2.014-7.849,2.192c-9.912,1.162-10.878-4.219-12.066-12.653l-1.378-11.762l-3.568,0.418L237.043,470.029z"/>
				</g>
				<g>
					<path style="fill:#241E1C;" d="M309.116,486.695l-19.284,8.047l-3.357-8.047l2.579-1.075l-12.53-30.031l-2.579,1.076       l-3.332-7.985l14.863-6.201l7.994,19.161c0.215-1.387,3.109-7.065,7.592-8.936c9.519-3.972,13.694,2.577,16.385,9.027       l4.278,10.256l2.886-1.204l3.357,8.046l-15.783,6.585l-6.97-16.705c-0.87-2.088-2.382-5.711-6.006-4.199       c-3.132,1.306-2.589,4.685-1.487,7.326l3.614,8.659l4.421-1.845L309.116,486.695z"/>
				</g>
				<g>
					<path style="fill:#241E1C;" d="M325.452,460.864c-6.389-9.092-2.657-19.341,4.824-24.664c8.642-5.986,18.65-5.348,25.254,3.589       c6.511,8.921,3.508,18.816-4.732,24.679C343.046,469.984,332.17,470.536,325.452,460.864z M344.417,447.695       c-2.893-4.065-6.54-6.206-9.126-4.447c-2.114,1.504-1.504,5.805,1.311,9.762c3.164,4.445,6.982,6.138,9.259,4.519       C348.192,455.871,347.309,451.762,344.417,447.695z"/>
				</g>
				<g>
					<path style="fill:#241E1C;" d="M386.2,431.616l-12.428,15.365l-6.778-5.482l1.758-2.173l-12.209-9.876l-1.758,2.173       l-6.829-5.524l7.909-9.779l3.973,1.331c-0.313-1.623-1.181-6.262,1.455-9.521c4.227-5.226,8.05-4.872,9.96-4.697       c-0.513-3.068-0.46-7.048,2.427-10.617c6.779-8.382,13.93-4.737,20.242,0.368l7.14,5.776l2.051-2.535l6.983,5.648       l-10.63,13.141l-12.674-10.252c-2.483-2.009-6.038-5.656-8.005-3.222c-1.8,2.223-0.667,3.996,1.558,5.796l8.381,6.778       l2.511-3.103l6.932,5.608l-10.839,13.398l-13.192-10.671c-4.191-3.389-5.981-4.668-7.656-2.597       c-1.338,1.655-0.9,3.123,1.221,4.838l9.208,7.45l2.511-3.104L386.2,431.616z"/>
				</g>
				<g>
					<path style="fill:#241E1C;" d="M423.448,359.742c1.906,6.226,1.156,11.714-1.64,18.044       c-3.334,7.548-11.907,13.946-23.595,8.784c-9.983-4.409-12.714-14.199-8.654-23.391c3.199-7.244,9.359-11.142,15.251-10.649       c2.453,0.209,7.436,1.611,10.341,4.421l-8.469,19.175c1.805,0.361,5.502,1.047,7.761-4.064c0.913-2.07,2.129-5.315,0.841-9.814       L423.448,359.742z M400.737,373.281l4.059-9.192c-2.34-0.96-5.139-1.542-6.858,2.353       C396.297,370.155,399.27,372.488,400.737,373.281z"/>
				</g>
			</g>
		</g>
		<g>
			<g>
				<path style="fill:#FFDEB7;" d="M81.255,165.408c-2.828,0.837-6.13,3.723-7.34,6.411l-5.912,13.147      c-1.209,2.689-2.884,2.575-3.72-0.252l-4.092-13.821c-0.838-2.828-3.722-6.131-6.411-7.34l-13.146-5.912      c-2.69-1.21-2.577-2.884,0.251-3.722l13.822-4.092c2.827-0.837,6.13-3.722,7.34-6.41l5.912-13.147      c1.21-2.689,2.884-2.576,3.721,0.251l4.092,13.822c0.836,2.828,3.722,6.131,6.41,7.341l13.147,5.912      c2.689,1.211,2.575,2.885-0.251,3.722L81.255,165.408z"/>
			</g>
			<g>
				<path style="fill:#FFDEB7;" d="M244.24,435.026c-3.128,0.926-6.78,4.117-8.119,7.091l-6.54,14.541      c-1.337,2.975-3.19,2.849-4.115-0.278l-4.526-15.287c-0.926-3.128-4.117-6.781-7.091-8.119l-14.54-6.539      c-2.975-1.338-2.851-3.19,0.277-4.117l15.288-4.526c3.127-0.925,6.781-4.117,8.118-7.091l6.54-14.542      c1.338-2.974,3.19-2.849,4.116,0.278l4.526,15.288c0.926,3.128,4.117,6.782,7.09,8.119l14.542,6.539      c2.974,1.339,2.849,3.191-0.279,4.117L244.24,435.026z"/>
			</g>
			<g>
				<path style="fill:#FFDEB7;" d="M434.792,316.547c-2.465,0.729-5.342,3.245-6.397,5.587l-5.153,11.458      c-1.054,2.343-2.513,2.245-3.242-0.219l-3.566-12.046c-0.73-2.464-3.244-5.343-5.588-6.397l-11.457-5.152      c-2.344-1.055-2.246-2.514,0.218-3.244l12.046-3.566c2.465-0.729,5.343-3.244,6.397-5.587l5.153-11.458      c1.055-2.344,2.514-2.245,3.243,0.219l3.567,12.046c0.729,2.465,3.244,5.344,5.587,6.398l11.458,5.152      c2.343,1.055,2.244,2.514-0.219,3.244L434.792,316.547z"/>
			</g>
			<g>
				<path style="fill:#FFDEB7;" d="M364.707,235.387c-2.005,0.593-4.346,2.639-5.204,4.545l-4.191,9.319      c-0.857,1.906-2.044,1.826-2.637-0.178l-2.901-9.798c-0.594-2.005-2.639-4.346-4.545-5.203l-9.319-4.191      c-1.907-0.858-1.827-2.045,0.178-2.639l9.798-2.901c2.005-0.593,4.346-2.638,5.203-4.545l4.191-9.32      c0.858-1.906,2.045-1.826,2.638,0.178l2.901,9.799c0.593,2.005,2.638,4.346,4.544,5.204l9.32,4.191      c1.906,0.858,1.826,2.045-0.178,2.638L364.707,235.387z"/>
			</g>
			<g>
				<path style="fill:#FFDEB7;" d="M378.358,125.212c-1.854,0.549-4.018,2.44-4.811,4.202l-3.875,8.616      c-0.792,1.762-1.89,1.688-2.438-0.165l-2.682-9.059c-0.549-1.853-2.439-4.018-4.202-4.81l-8.615-3.874      c-1.763-0.793-1.69-1.891,0.164-2.439l9.058-2.682c1.853-0.548,4.017-2.439,4.81-4.201l3.875-8.616      c0.793-1.762,1.89-1.688,2.438,0.165l2.682,9.058c0.548,1.854,2.439,4.018,4.201,4.811l8.617,3.874      c1.762,0.793,1.688,1.891-0.165,2.439L378.358,125.212z"/>
			</g>
			<g>
				<path style="fill:#FFDEB7;" d="M72.627,292.087c-2.914,0.863-6.317,3.836-7.564,6.607l-6.093,13.547      c-1.246,2.771-2.972,2.654-3.834-0.259l-4.217-14.242c-0.863-2.914-3.836-6.318-6.607-7.564l-13.547-6.092      c-2.772-1.247-2.656-2.973,0.258-3.835l14.243-4.216c2.914-0.862,6.317-3.836,7.564-6.606l6.092-13.548      c1.247-2.77,2.972-2.654,3.835,0.259l4.217,14.243c0.862,2.914,3.835,6.318,6.606,7.564l13.548,6.092      c2.771,1.248,2.654,2.973-0.259,3.835L72.627,292.087z"/>
			</g>
		</g>
	</g>
	<g>
		<g>
			<circle style="fill:#FFBDB5;" cx="296.089" cy="132.655" r="9.3"/>
		</g>
		<g>
			<path style="fill:#FFBDB5;" d="M306.775,430.431c-3.632,3.632-9.52,3.632-13.152,0c-3.632-3.632-3.632-9.521,0-13.152     c3.632-3.632,9.52-3.632,13.152,0C310.408,420.911,310.408,426.799,306.775,430.431z"/>
		</g>
		<g>
			<path style="fill:#FFBDB5;" d="M369.822,176.97c-3.521-1.037-5.494-4.872-4.406-8.565c1.087-3.694,4.823-5.849,8.344-4.812     c3.521,1.036,5.494,4.871,4.406,8.565C377.079,175.852,373.343,178.006,369.822,176.97z"/>
		</g>
		<g>
			<path style="fill:#FFBDB5;" d="M102.195,125.565c-2.781,2.781-7.289,2.781-10.07,0c-2.781-2.781-2.781-7.289,0-10.07     c2.781-2.781,7.289-2.781,10.07,0C104.976,118.276,104.976,122.784,102.195,125.565z"/>
		</g>
		<g>
			<path style="fill:#FFBDB5;" d="M172.17,134.941c0,3.987-3.232,7.219-7.219,7.219c-3.987,0-7.219-3.232-7.219-7.219     c0-3.987,3.232-7.219,7.219-7.219C168.938,127.723,172.17,130.954,172.17,134.941z"/>
		</g>
		<g>
			<path style="fill:#FFBDB5;" d="M93.05,257.396c-3.632,3.632-9.52,3.632-13.152,0c-3.632-3.632-3.632-9.52,0-13.152     c3.632-3.632,9.521-3.632,13.152,0C96.682,247.876,96.682,253.764,93.05,257.396z"/>
		</g>
		<g>
			<path style="fill:#FFBDB5;" d="M162.524,431.703c-2.958,2.958-7.754,2.958-10.712,0c-2.958-2.958-2.958-7.754,0-10.712     c2.958-2.958,7.754-2.958,10.712,0C165.482,423.949,165.482,428.745,162.524,431.703z"/>
		</g>
	</g>
</g>















</svg>
