<?xml version="1.0" encoding="UTF-8"?>
<!-- Generator: Adobe Illustrator 25.2.1, SVG Export Plug-In . SVG Version: 6.00 Build 0)  -->
<svg xmlns="http://www.w3.org/2000/svg" xmlns:xlink="http://www.w3.org/1999/xlink" version="1.1" id="Capa_1" x="0px" y="0px" viewBox="0 0 512 512" style="enable-background:new 0 0 512 512;" xml:space="preserve" width="512" height="512">
<g>
	<g>
		<path style="fill:#FFFFFF;" d="M506.816,180.494l-12.368-5.561c-1.016-0.457-2.592-2.263-2.909-3.332l-3.85-13.003    c-1.687-5.699-5.891-6.142-7.138-6.142c-1.405,0-4.902,0.505-7.009,5.187l-5.562,12.369c-0.457,1.016-2.263,2.593-3.331,2.909    l-2.526,0.748c-1.823-2.752-3.699-5.468-5.635-8.142c0.715-0.8,1.284-1.533,1.675-2.113c4.739-7.041,3.956-16.691-1.996-24.581    c-4.639-6.153-11.271-9.682-18.197-9.682c-1.16,0-2.317,0.103-3.466,0.298c0.797-1.584,1.432-3.289,1.762-5.107    c0.719-3.96,0.216-9.859-6.26-15.472c-2.503-2.172-5.407-3.521-8.664-4.029c-0.726-2.551-2.351-5.527-5.794-8.512    c-1.684-1.46-3.747-2.466-6.083-2.983c-0.312-0.971-0.885-1.862-1.691-2.561l-9.233-8.004c-1.038-0.9-2.363-1.391-3.727-1.391    c-0.135,0-0.27,0.005-0.405,0.014c-1.506,0.107-2.907,0.809-3.896,1.949l-2.244,2.59c-1.156-6.54-5.431-12.412-12.46-16.376    c-3.705-2.028-7.832-3.1-11.935-3.1c-4.305,0-8.284,1.161-11.687,3.304c0.726-10.028-5.472-14.522-11.464-16.529    c-1.375-0.46-2.868-0.72-4.445-0.776l3.169-9.466c0.998-2.98-0.609-6.204-3.589-7.202l-14.837-4.969    c-0.588-0.197-1.198-0.295-1.807-0.295c-0.873,0-1.742,0.201-2.538,0.597c-1.351,0.673-2.379,1.856-2.858,3.287l-2.668,7.972    c-0.652,1.947-0.192,3.998,1.036,5.464l-6.956,20.779c-0.431,0.1-0.852,0.25-1.255,0.45c-0.242,0.12-0.459,0.275-0.679,0.426    c-3.471-0.641-6.954-1.204-10.444-1.701c-0.231-0.28-0.482-0.546-0.768-0.78c-0.998-0.819-2.227-1.263-3.483-1.292l0.428-4.192    l0.448,0.046c0.196,0.02,0.39,0.03,0.583,0.03c2.883,0,5.355-2.183,5.654-5.113l0.853-8.358c0.154-1.502-0.296-3.003-1.25-4.173    c-0.953-1.17-2.333-1.913-3.835-2.066l-0.446-0.045l0.413-4.047c0.185-1.808-0.506-3.596-1.858-4.811    c-1.054-0.947-2.413-1.457-3.803-1.457c-0.392,0-0.787,0.041-1.179,0.124l-12.219,2.587c-2.419,0.512-4.231,2.529-4.482,4.989    l-0.07,0.693c-0.7,0.213-1.359,0.561-1.938,1.032c-1.17,0.954-1.914,2.333-2.067,3.834l-0.162,1.585    c-3.681-5.366-10.482-8.464-19.444-8.464c-0.482,0-0.957,0.01-1.427,0.028c-5.31,0.207-10.959,2.244-16.792,6.054    c-2.28,1.489-3.185,4.385-2.159,6.908l2.745,6.748c-2.28,2.797-3.569,6.209-3.731,9.897c-4.287,0.552-8.627,1.211-12.979,1.991    l0.79-7.14c2.59-1.117,4.007-4.012,3.207-6.794l-2.214-7.701c-0.417-1.451-1.393-2.676-2.714-3.407    c-0.851-0.471-1.8-0.711-2.755-0.711c-0.527,0-1.057,0.073-1.573,0.222l-15.777,4.537c-0.389,0.111-0.762,0.264-1.113,0.452    c-0.393,0.027-0.79,0.096-1.185,0.209l-19.13,5.499c-1.451,0.417-2.676,1.393-3.407,2.714c-0.731,1.321-0.907,2.878-0.49,4.328    l0.339,1.178c-2.477-1.258-5.31-1.92-8.423-1.92c-5.109,0-9.806,1.753-12.847,3.223c-4.509,2.18-8.634,5.986-12.286,11.283    c-0.399-0.181-0.817-0.323-1.254-0.409c-0.365-0.072-0.734-0.107-1.101-0.107c-1.121,0-2.226,0.331-3.17,0.965l-0.375,0.252    l-2.269-3.382c-1.013-1.51-2.685-2.445-4.502-2.516c-0.075-0.003-0.15-0.005-0.225-0.005c-1.734,0-3.38,0.792-4.461,2.159    l-7.755,9.797c-1.535,1.939-1.642,4.649-0.263,6.703l0.26,0.388l-5.691-6.149c-1.025-1.108-2.449-1.763-3.957-1.821    c-0.073-0.003-0.146-0.004-0.219-0.004c-1.431,0-2.812,0.539-3.866,1.515l-8.157,7.552c-0.919,0.851-1.499,1.942-1.721,3.095    c-3.27,0.991-6.473,2.902-9.457,5.665c-3.475,3.216-5.966,7.751-6.835,12.444c-1.113,6.015,0.547,11.784,4.674,16.243    c2.763,2.986,6.001,4.867,9.663,5.621c-1.242,2.051-1.079,4.736,0.539,6.634c-15.697,7.471-29.133,19.589-38.13,34.474    c-1.055,1.746-1.095,3.924-0.104,5.707c0.991,1.784,2.861,2.9,4.901,2.926l41.832,0.536l-42.293,23.542    c-2.265,1.261-3.392,3.893-2.741,6.402c0.651,2.509,2.916,4.261,5.508,4.261H62.4v20.634c-0.338-0.196-0.694-0.387-1.089-0.564    l-12.37-5.562c-1.015-0.457-2.591-2.262-2.908-3.332l-3.85-13.003c-1.687-5.699-5.89-6.142-7.138-6.142    c-1.405,0-4.902,0.505-7.009,5.186l-5.562,12.369c-0.458,1.016-2.262,2.593-3.331,2.909L6.14,234.351    c-5.373,1.591-6.048,5.524-6.127,6.692c-0.079,1.167,0.061,5.156,5.172,7.457l12.369,5.563c1.016,0.457,2.592,2.262,2.909,3.331    l3.849,13.002c1.686,5.699,5.889,6.143,7.137,6.143c0,0,0,0,0.001,0c1.407,0,4.903-0.506,7.008-5.187l5.562-12.367    c0.458-1.017,2.263-2.595,3.331-2.911l13.005-3.85c0.779-0.231,1.449-0.515,2.043-0.829v49.29    c-29.737,7.293-50.849,33.887-50.849,64.971c0,31.083,21.112,57.677,50.849,64.971v12.772h-3.863    c-1.794,0-3.483,0.846-4.557,2.283c-1.074,1.436-1.408,3.296-0.901,5.017l7.866,26.688c0.714,2.42,2.935,4.082,5.458,4.082h28.373    c0.914,0,1.789-0.218,2.566-0.611h54.493c0.588,0,1.155-0.089,1.688-0.255H427.42c1.198,0,2.309-0.37,3.226-1.002h21.576    c2.564,0,4.811-1.715,5.488-4.188l7.145-26.106c0.469-1.711,0.112-3.543-0.965-4.954c-1.077-1.41-2.749-2.238-4.524-2.238h-14.865    v-10.847c32.585-4.039,57.378-31.64,57.378-65.077c0-36.169-29.427-65.596-65.596-65.596c-1.054,0-2.113,0.026-3.173,0.077V262.87    l47.455-0.139c1.672,0,2.912-0.703,3.625-1.195c1.201-0.594,2.182-1.605,2.724-2.891c4.054-9.611,2.982-20.09-2.731-26.697    c-0.097-0.113-0.203-0.219-0.303-0.33c0.816-5.043,0.328-10.548-0.959-16.009c0.37-0.53,0.723-1.133,1.042-1.841l5.561-12.366    c0.458-1.017,2.264-2.595,3.332-2.911l13.005-3.85c5.371-1.591,6.047-5.523,6.125-6.691    C512.067,186.784,511.928,182.796,506.816,180.494z"/>
	</g>
	<g>
		<g>
			<g>
				<g>
					<polygon style="fill:#F8E5D7;" points="448.179,191.557 448.179,474.152 153.744,474.152 153.744,192.741 154.51,192.31        310.514,105.617 310.538,105.617 311.496,105.067 403.025,163.772 403.48,164.059      "/>
				</g>
			</g>
			<g>
				<g>
					<g>
						<rect x="65.255" y="191.712" style="fill:#F8E5D7;" width="89.255" height="282.704"/>
					</g>
				</g>
				<g>
					<g>
						<g>
							<rect x="65.255" y="191.712" style="fill:#F2D6C2;" width="89.255" height="282.704"/>
						</g>
					</g>
				</g>
			</g>
			<g>
				<g>
					<polygon style="fill:#CF6B58;" points="45.065,194.312 155.156,194.312 311.498,105.067 310.087,103.818 211.396,101.728             "/>
				</g>
			</g>
			<g>
				<g>
					<path style="fill:#CF6B58;" d="M455.726,196.416c-0.093,0-0.186-0.025-0.27-0.078l-145.648-91.58       c-0.238-0.15-0.309-0.463-0.16-0.701c0.149-0.238,0.462-0.31,0.701-0.16l145.648,91.58c0.238,0.15,0.309,0.463,0.16,0.701       C456.059,196.332,455.895,196.416,455.726,196.416z"/>
				</g>
			</g>
			<g>
				<g>
					<path style="fill:#FFBDB5;" d="M448.179,462.925v3.184c-0.814,0.646-1.7,1.245-2.634,1.748h-16.568       c-3.567-1.915-6.129-5.004-8.643-7.997c-3.927-4.716-7.637-9.146-15.083-9.146c-7.446,0-11.157,4.429-15.083,9.146       c-2.49,2.993-5.076,6.081-8.643,7.997c-2.275,1.245-4.956,2.011-8.26,2.011c-3.304,0-5.985-0.766-8.26-2.011       c-3.591-1.915-6.153-5.004-8.667-7.997c-3.926-4.716-7.637-9.146-15.059-9.146c-7.446,0-11.157,4.429-15.083,9.146       c-2.514,2.993-5.076,6.081-8.643,7.997c-2.275,1.245-4.956,2.011-8.26,2.011c-3.328,0-6.009-0.766-8.284-2.011       c-3.567-1.915-6.129-5.004-8.643-7.997c-3.926-4.716-7.613-9.146-15.059-9.146c-7.446,0-11.157,4.429-15.083,9.146       c-2.49,2.993-5.076,6.081-8.643,7.997c-2.274,1.245-4.956,2.011-8.26,2.011s-5.985-0.766-8.26-2.011       c-3.567-1.915-6.153-5.004-8.643-7.997c-3.926-4.716-7.637-9.146-15.083-9.146c-7.446,0-11.157,4.429-15.083,9.146       c-2.49,2.993-5.076,6.081-8.643,7.997c-2.274,1.245-4.956,2.011-8.26,2.011c-3.304,0-5.985-0.766-8.26-2.011       c-3.567-1.915-6.153-5.004-8.643-7.997c-2.897-3.495-5.674-6.799-9.936-8.308c-0.239-0.096-0.503-0.168-0.766-0.239       c-1.317-0.383-2.753-0.599-4.381-0.599c-7.446,0-11.157,4.429-15.083,9.146c-2.61,3.136-5.315,6.345-9.146,8.26       c-2.155,1.077-4.693,1.748-7.757,1.748c-3.065,0-5.602-0.671-7.757-1.748c-3.831-1.915-6.536-5.124-9.146-8.26       c-3.926-4.716-7.637-9.146-15.083-9.146c-7.422,0-11.133,4.429-15.059,9.146c-1.58,1.915-3.208,3.831-5.076,5.459v-3.328       c1.125-1.149,2.155-2.394,3.232-3.663c4.118-4.932,8.356-10.008,16.903-10.008c8.571,0,12.809,5.076,16.927,10.008       c3.926,4.693,7.637,9.146,15.059,9.146c7.446,0,11.157-4.453,15.083-9.146c4.094-4.932,8.356-10.008,16.903-10.008       c1.604,0,3.041,0.168,4.381,0.503c0.263,0.072,0.527,0.12,0.766,0.216c5.315,1.556,8.571,5.459,11.755,9.289       c3.926,4.693,7.637,9.146,15.083,9.146c7.446,0,11.157-4.453,15.083-9.146c4.094-4.932,8.356-10.008,16.903-10.008       c8.547,0,12.809,5.076,16.903,10.008c3.926,4.693,7.637,9.146,15.083,9.146c7.446,0,11.157-4.453,15.083-9.146       c4.094-4.932,8.356-10.008,16.903-10.008c8.547,0,12.809,5.076,16.903,10.008c3.926,4.693,7.637,9.146,15.083,9.146       c7.422,0,11.133-4.453,15.059-9.146c4.118-4.932,8.356-10.008,16.927-10.008c8.547,0,12.809,5.076,16.903,10.008       c3.926,4.693,7.637,9.146,15.083,9.146c7.446,0,11.157-4.453,15.083-9.146c4.094-4.932,8.356-10.008,16.903-10.008       c8.571,0,12.809,5.076,16.927,10.008c3.926,4.693,7.637,9.146,15.083,9.146C442.146,467.474,445.402,465.559,448.179,462.925z"/>
				</g>
			</g>
		</g>
		<g>
			<g>
				<g>
					<path style="fill:#FF5B44;" d="M308.167,425.108c36.136-34.774,68.285-77.133,87.574-123.721       c10.215-24.673,18.928-57.619,0.126-80.414c-16.564-20.081-44.743-20.544-64.919-5.667       c-13.011,9.592-22.187,23.478-29.818,37.729c-8.794-17.898-21.925-34.811-40.063-43.101       c-19.115-8.736-42.663-5.931-57.277,9.863C147.882,280.223,304.618,428.524,308.167,425.108z"/>
				</g>
			</g>
			<g>
				<g>
					<g>
						<g>
							<path style="fill:#F8E5D7;" d="M376.252,323.045c-0.449-0.089-0.888-0.258-1.299-0.511c-1.844-1.139-2.417-3.556-1.28-5.401         c9.79-15.868,14.41-27.986,16.479-43.222c0.291-2.148,2.268-3.652,4.417-3.36c2.134,0.267,3.652,2.268,3.36,4.417         c-2.2,16.209-7.291,29.619-17.575,46.288C379.47,322.688,377.812,323.353,376.252,323.045z"/>
						</g>
					</g>
					<g>
						<g>
							<path style="fill:#F8E5D7;" d="M392.525,264.348c-2.015-0.399-3.398-2.3-3.126-4.365c0.437-3.297-1.024-6.897-3.636-8.958         c-1.702-1.342-1.994-3.809-0.651-5.511c1.344-1.703,3.808-1.995,5.511-0.651c4.784,3.772,7.358,10.113,6.558,16.152         c-0.284,2.148-2.258,3.66-4.407,3.375C392.691,264.379,392.608,264.365,392.525,264.348z"/>
						</g>
					</g>
				</g>
				<g>
					<g>
						<g>
							<path style="fill:#F8E5D7;" d="M290.274,404.887c-0.337,0-0.674-0.13-0.931-0.39l-4.589-4.649         c-0.507-0.514-0.502-1.341,0.013-1.85c0.512-0.508,1.34-0.504,1.85,0.013l4.589,4.649c0.507,0.514,0.502,1.341-0.013,1.85         C290.938,404.762,290.606,404.887,290.274,404.887z"/>
						</g>
					</g>
					<g>
						<g>
							<path style="fill:#F8E5D7;" d="M282.344,396.34c-0.337,0-0.676-0.13-0.931-0.389l-20.796-21.069         c-0.507-0.513-0.502-1.341,0.013-1.85c0.512-0.507,1.34-0.502,1.85,0.013l20.796,21.069c0.507,0.514,0.502,1.343-0.013,1.85         C283.008,396.215,282.676,396.34,282.344,396.34z"/>
						</g>
					</g>
				</g>
			</g>
		</g>
	</g>
	<g>
		<g>
			<g>
				<path style="fill:#AFCBD3;" d="M353.965,258.481c2.595-6.204,5.246-12.503,9.483-17.726c4.238-5.222,10.36-9.312,17.082-9.528      c6.722-0.216,13.751,4.315,14.921,10.938c6.728-11.88,17.953-20.525,31.331-23.247c5.329-1.084,11.249-1.145,15.777,1.867      c6.607,4.394,7.91,13.638,6.787,21.492c4.628-4.667,10.016-8.92,16.403-10.472c6.387-1.552,13.796-0.092,18.095,4.88      c4.799,5.55,4.648,14.047,1.796,20.807c-0.293,0-0.815,0.609-1.108,0.609L353.965,258.481z"/>
			</g>
		</g>
		<g>
			<g>
				<path style="fill:#AFCBD3;" d="M48.13,177.577c9.095-15.047,23.065-27.095,39.286-33.879c9.434-3.946,20.291-6.096,29.824-2.395      c9.533,3.702,16.585,14.863,12.934,24.415c5.371-5.169,10.939-9.297,18.179-11.068c7.241-1.771,15.41-0.677,21.2,4.017      c5.79,4.694,8.535,13.266,5.452,20.053c0.186,0-0.135,0.483,0.051,0.483L48.13,177.577z"/>
			</g>
		</g>
	</g>
	<g>
		<g>
			<g>
				<g>
					
						<ellipse transform="matrix(0.9732 -0.2298 0.2298 0.9732 -81.8786 28.094)" style="fill:#96976A;" cx="79.704" cy="365.656" rx="61.241" ry="61.241"/>
				</g>
			</g>
			<g>
				<path style="fill:#703427;" d="M80.453,348.464c-0.393,0-0.711,0.319-0.711,0.711v42.161l-16.373-17.55      c-0.268-0.288-0.719-0.302-1.005-0.035c-0.287,0.268-0.303,0.718-0.035,1.005l16.855,18.067c0.14,0.15,0.33,0.226,0.52,0.226      c0.013,0,0.025-0.006,0.038-0.007v69.625c0,0.393,0.319,0.711,0.711,0.711c0.393,0,0.711-0.319,0.711-0.711V349.176      C81.165,348.783,80.846,348.464,80.453,348.464z"/>
			</g>
			<g>
				<g>
					<polygon style="fill:#DFA76D;" points="59.759,449.09 103.302,449.09 95.998,475.777 67.625,475.777      "/>
				</g>
			</g>
		</g>
		<g>
			<g>
				<g>
					
						<ellipse transform="matrix(0.9557 -0.2943 0.2943 0.9557 -88.3938 144.9755)" style="fill:#96976A;" cx="437.506" cy="366.189" rx="59.905" ry="59.905"/>
				</g>
			</g>
			<g>
				<path style="fill:#703427;" d="M438.239,349.357c-0.393,0-0.711,0.319-0.711,0.711v41.753l-15.982-17.682      c-0.264-0.292-0.713-0.313-1.005-0.051c-0.291,0.263-0.314,0.714-0.051,1.005l17.037,18.85v67.142      c0,0.393,0.319,0.711,0.711,0.711s0.711-0.319,0.711-0.711V350.068C438.95,349.675,438.632,349.357,438.239,349.357z"/>
			</g>
			<g>
				<g>
					<polygon style="fill:#CF6B58;" points="417.996,447.804 460.589,447.804 453.444,473.909 425.69,473.909      "/>
				</g>
			</g>
		</g>
	</g>
	<g>
		<g>
			<path style="fill:#241E1C;" d="M96.757,148.451l-11.066-11.955l8.824-8.168c3.689,3.985,8.288,0.96,10.369-0.789     c1.661-1.538,3.681-4.112,1.837-6.105c-3.425-3.699-20.192,14.729-31.39,2.631c-6.499-7.02-2.8-16.346,1.849-20.649     c3.984-3.689,9.202-6.141,14.394-4.34l-3.215-4.424l8.16-7.553l11.022,11.906l-8.586,7.949     c-3.249-3.511-7.845-2.956-11.166,0.117c-1.376,1.274-2.483,3.885-0.946,5.544c4.523,4.886,22.254-13.641,32.574-2.493     c6.85,7.4,2.383,16.467-3.262,21.693c-4.791,4.436-10.176,5.28-13.955,4.814l2.86,4.135L96.757,148.451z"/>
		</g>
		<g>
			<path style="fill:#241E1C;" d="M111.315,92.684l2.899-1.944l-3.312-4.939l7.753-9.792l5.436,8.106l5.1-3.421l4.68,6.98l-5.1,3.42     l6.409,9.555c1.224,1.825,2.504,4.546,4.598,3.142c0.697-0.467,2.038-2.067,2.769-3.18l4.609,6.872     c-1.178,1.724-4.576,4.548-5.811,5.376c-8.053,5.4-11.273,1.178-16.042-5.585l-6.408-9.555l-2.899,1.944L111.315,92.684z"/>
		</g>
		<g>
			<path style="fill:#241E1C;" d="M135.637,79.605c1.652-2.523,5.334-7.678,10.688-10.268c6.983-3.378,17.038-5.011,21.57,4.359     l5.489,11.348l3.491-1.688l3.603,7.449l-12.454,6.023l-2.663-1.944c-0.717,4.009-3.96,6.512-6.054,7.525     c-5.529,2.675-12.9,2.578-16.165-4.173c-3.182-6.576,0.348-13.381,6.924-16.563c3.434-1.661,6.287-0.958,6.747-0.751     l-0.985-2.036c-1.267-2.619-3.963-2.106-7.105-0.585c-3.434,1.661-5.756,4.578-7.377,6.87L135.637,79.605z M161.12,89.826     l-1.07-2.211c-0.315-0.207-1.805-1.209-4.25-0.027c-2.327,1.126-2.755,2.913-1.882,4.716c0.788,1.63,2.661,2.088,4.407,1.243     C160.07,92.705,161.018,90.953,161.12,89.826z"/>
		</g>
		<g>
			<path style="fill:#241E1C;" d="M196.769,61.085l-2.857,0.823l-2.269-7.89l15.779-4.538l2.215,7.704l-2.982,0.856l-3.548,32.097     c-0.693,4.369-1.811,10.072-10.836,12.6c-3.284,0.743-6.082,0.136-8.41-0.942l2.551-8.671c1.324,0.628,2.835,1.203,4.21,1.075     c2.033-0.181,2.944-2.393,3.029-4.436l0.118-2.858l-18.725-19.5l-2.547,0.732l-2.287-7.952l19.134-5.503l2.269,7.889l-2.92,0.84     l6.826,8.53L196.769,61.085z"/>
		</g>
		<g>
			<path style="fill:#241E1C;" d="M230.392,48.769c2.524-1.65,7.961-4.901,13.904-5.13c7.751-0.3,17.617,2.23,18.019,12.629     l0.486,12.595l3.876-0.149l0.32,8.268l-13.823,0.533l-1.662-2.847c-2.263,3.387-6.235,4.381-8.56,4.471     c-6.136,0.238-12.852-2.803-13.142-10.295c-0.282-7.299,5.677-12.122,12.976-12.405c3.811-0.147,6.144,1.639,6.482,2.014     l-0.088-2.26c-0.112-2.906-2.788-3.515-6.276-3.38c-3.811,0.148-7.107,1.892-9.509,3.343L230.392,48.769z M249.649,68.337     l-0.095-2.455c-0.206-0.315-1.17-1.831-3.883-1.726c-2.584,0.1-3.692,1.566-3.615,3.568c0.07,1.809,1.603,2.979,3.541,2.904     C247.535,70.553,249.105,69.328,249.649,68.337z"/>
		</g>
		<g>
			<path style="fill:#241E1C;" d="M270.702,45.378l3.472,0.356l0.604-5.917l12.22-2.585l-0.992,9.71l6.109,0.624l-0.854,8.359     l-6.109-0.623l-1.17,11.446c-0.223,2.186-0.976,5.098,1.533,5.354c0.836,0.085,2.888-0.289,4.163-0.679l-0.841,8.231     c-2.008,0.576-6.427,0.579-7.906,0.428c-9.646-0.985-9.428-6.292-8.781-14.543l1.169-11.446l-3.473-0.355L270.702,45.378z"/>
		</g>
		<g>
			<path style="fill:#241E1C;" d="M324.327,88.66l-19.245-6.445l2.689-8.03l2.574,0.862l10.036-29.972l-2.574-0.862l2.668-7.967     l14.833,4.967l-6.405,19.123c1.044-0.877,6.791-3.179,11.265-1.681c9.501,3.181,8.366,10.641,6.211,17.076l-3.428,10.236     l2.88,0.966l-2.689,8.029l-15.752-5.274l5.583-16.673c0.698-2.083,1.909-5.7-1.707-6.91c-3.126-1.047-4.888,1.771-5.77,4.407     l-2.894,8.642l4.413,1.478L324.327,88.66z"/>
		</g>
		<g>
			<path style="fill:#241E1C;" d="M350.724,80.818c5.243-9.435,15.784-10.515,23.609-6.229c8.894,5.02,12.577,14.04,7.56,23.6     c-5.042,9.472-14.965,11.038-23.582,6.318C350.204,100.065,345.113,90.791,350.724,80.818z M370.271,91.822     c2.329-4.252,2.657-8.348,0.023-9.864c-2.211-1.211-5.713,1.146-7.98,5.283c-2.546,4.649-2.409,8.704-0.029,10.008     C364.723,98.586,367.942,96.074,370.271,91.822z"/>
		</g>
		<g>
			<path style="fill:#241E1C;" d="M389.407,124.036l-14.504-12.58l5.55-6.398l2.051,1.779l9.997-11.524l-2.052-1.779l5.591-6.447     l9.23,8.006l-1.425,3.813c1.587-0.25,6.12-0.938,9.197,1.73c4.932,4.278,4.462,7.978,4.227,9.828     c2.996-0.396,6.859-0.212,10.229,2.711c7.911,6.862,4.134,13.683-1.034,19.641l-5.846,6.738l2.393,2.076l-5.718,6.593     l-12.404-10.759l10.378-11.964c2.033-2.343,5.692-5.675,3.397-7.665c-2.1-1.821-3.859-0.78-5.68,1.319l-6.862,7.912l2.93,2.541     l-5.676,6.543l-12.648-10.97l10.801-12.452c3.431-3.956,4.731-5.652,2.778-7.346c-1.562-1.356-3.002-0.979-4.74,1.024     l-7.539,8.692l2.929,2.542L389.407,124.036z"/>
		</g>
		<g>
			<path style="fill:#241E1C;" d="M439.736,172.651c-6.182-1.328-10.483-4.562-14.53-9.929c-4.825-6.4-6.196-16.7,3.713-24.172     c8.464-6.381,18.063-4.066,23.939,3.727c4.631,6.141,5.023,13.212,1.817,17.977c-1.339,1.981-4.886,5.545-8.644,6.679     l-12.258-16.257c-1.161,1.361-3.494,4.171-0.225,8.507c1.324,1.755,3.502,4.322,7.926,5.358L439.736,172.651z M438.998,146.979     l5.876,7.794c1.922-1.531,3.74-3.63,1.25-6.933C443.75,144.693,440.366,146.11,438.998,146.979z"/>
		</g>
	</g>
	<g>
		<g>
			<g>
				<path style="fill:#FFDEB7;" d="M492.465,193.035c-2.661,0.788-5.767,3.502-6.906,6.032l-5.562,12.368      c-1.138,2.53-2.713,2.423-3.5-0.236l-3.85-13.003c-0.788-2.66-3.502-5.768-6.032-6.906l-12.368-5.562      c-2.531-1.139-2.425-2.714,0.236-3.502l13.003-3.849c2.66-0.787,5.767-3.502,6.905-6.031l5.562-12.369      c1.138-2.529,2.713-2.423,3.501,0.236l3.85,13.004c0.787,2.661,3.501,5.769,6.031,6.906l12.369,5.562      c2.529,1.139,2.423,2.714-0.237,3.502L492.465,193.035z"/>
			</g>
		</g>
		<g>
			<g>
				<path style="fill:#FFDEB7;" d="M259.649,116.782c-2.449,0.725-5.309,3.224-6.357,5.552l-5.12,11.385      c-1.047,2.329-2.498,2.23-3.222-0.218l-3.543-11.969c-0.725-2.449-3.224-5.309-5.552-6.357l-11.384-5.119      c-2.329-1.048-2.232-2.498,0.217-3.223l11.969-3.543c2.449-0.724,5.309-3.223,6.356-5.552l5.12-11.385      c1.048-2.328,2.498-2.231,3.222,0.217l3.544,11.97c0.724,2.449,3.223,5.309,5.551,6.357l11.385,5.12      c2.328,1.048,2.23,2.498-0.218,3.223L259.649,116.782z"/>
			</g>
		</g>
		<g>
			<g>
				<path style="fill:#FFDEB7;" d="M46.144,249.802c-2.661,0.788-5.767,3.502-6.906,6.032l-5.562,12.368      c-1.138,2.53-2.713,2.423-3.5-0.237l-3.85-13.003c-0.788-2.661-3.502-5.768-6.032-6.906l-12.368-5.562      c-2.531-1.139-2.425-2.714,0.236-3.502l13.004-3.849c2.66-0.787,5.767-3.502,6.905-6.031l5.562-12.369      c1.138-2.529,2.713-2.423,3.501,0.236l3.85,13.004c0.787,2.661,3.501,5.769,6.031,6.906l12.369,5.562      c2.529,1.139,2.423,2.714-0.236,3.502L46.144,249.802z"/>
			</g>
		</g>
	</g>
</g>















</svg>
