<?xml version="1.0" encoding="UTF-8"?>
<!-- Generator: Adobe Illustrator 25.0.0, SVG Export Plug-In . SVG Version: 6.00 Build 0)  -->
<svg xmlns="http://www.w3.org/2000/svg" xmlns:xlink="http://www.w3.org/1999/xlink" version="1.1" id="Capa_1" x="0px" y="0px" viewBox="0 0 512 512" style="enable-background:new 0 0 512 512;" xml:space="preserve" width="512" height="512">
<style type="text/css">
	.st0{fill:#FFFFFF;}
	.st1{fill:#DFA76D;}
	.st2{fill:#DB9B63;}
	.st3{fill:#96976A;}
	.st4{fill:#FFDEB7;}
	.st5{fill:#F8E5D7;}
	.st6{fill:#241E1C;}
	.st7{fill:#CF6B58;}
	.st8{fill:#FF5B44;}
</style>
<g>
	<path class="st0" d="M481.082,233.376c8.966-7.622,15.565-14.82,20.77-22.655c7.32-11.025,8.416-21.721,3.086-30.117   c-4.049-6.375-11.206-10.181-19.149-10.181c-2.015,0-4.025,0.25-5.974,0.743c-4.085,1.033-8.022,3.086-11.674,6.06   c-1.267-2.271-2.816-4.515-4.746-6.569c-4.135-4.398-9.47-7.129-14.901-7.696c4.07-9.065,5.38-19.303,4.137-28.232   c-2.106-15.117-10.002-29.777-24.137-44.818c-14.586-15.523-32.978-28.432-53.29-37.42c-3.079-4.447-6.715-8.685-10.831-12.622   C338.018,12.321,295.73,3.998,272.849,1.49C263.834,0.501,254.566,0,245.302,0c-34.232,0-67.579,6.644-96.431,19.213   c-12.223,5.325-23.568,11.706-33.719,18.966c-15.032,10.752-27.094,24.211-34.967,39c-22.121,16.873-39.618,38.675-50.649,63.136   c-8.486,18.813-11.193,35.243-8.28,50.227c2.224,11.429,9.183,23.547,19.577,31.133c0.587,1.196,1.185,2.387,1.824,3.557   c1.849,3.382,3.916,6.675,6.037,9.944c-3.001,1.767-5.656,4.217-7.722,7.242c-2.375,3.479-3.964,7.625-4.73,12.272   c-2.454-0.862-5.1-1.517-7.906-1.777c-0.801-0.075-1.617-0.112-2.423-0.112c-7.194,0-13.634,2.84-17.67,7.79   c-5.541,6.796-6.022,17.201-1.197,25.893c4.003,7.212,10.497,12.003,16.322,15.738c12.08,7.746,25.157,13.567,38.95,17.346   c-0.071,3.534,0.047,7.059,0.339,10.568c-0.069-0.001-0.139-0.01-0.207-0.01c-2.599,0-5.164,0.549-7.617,1.629   c-3.336,1.464-6.002,3.498-7.924,6.045c-0.686,0.908-1.269,1.838-1.752,2.789c-0.171-0.078-0.345-0.155-0.526-0.229   c-2.24-0.905-4.218-1.345-6.049-1.345c-1.433,0-2.778,0.272-4.014,0.815c-2.211,0.978-3.996,2.842-5.462,5.706l-0.272,0.533   c-0.544,0.929-1.006,2.026-1.445,3.426c-0.404,1.304-0.723,2.749-0.946,4.301c-0.267,1.862-0.229,3.91,0.12,6.28   c0.342,2.275,1.008,4.548,1.977,6.749c0.946,2.155,2.221,4.188,3.796,6.052c1.577,1.862,3.466,3.518,5.61,4.919   c2.574,1.686,5.562,2.659,8.897,2.895c0.435,0.03,0.87,0.044,1.307,0.044c2.831,0,5.706-0.632,8.551-1.881   c3.431-1.512,6.126-3.57,8.007-6.118c1.238-1.674,2.099-3.421,2.612-5.219c0.034,0.081,0.053,0.17,0.09,0.25   c0.302,0.664,0.719,1.385,1.359,2.357l2.584,3.897l-19.096,12.663c-1.056,0.697-1.784,1.234-2.353,1.732   c-0.915,0.8-1.725,1.822-2.423,3.069c-1.146,2.071-1.411,4.531-0.741,6.946c0.403,1.434,1.119,2.91,2.17,4.485   c1.044,1.577,2.108,2.799,3.292,3.768c1.714,1.38,3.721,2.109,5.802,2.109c0.291,0,0.58-0.014,0.969-0.053   c0.965-0.11,1.829-0.306,2.613-0.576c-1.424,1.99-2.643,5.344-1.043,10.441c0.733,2.454,1.744,4.342,3.08,5.761   c1.425,1.521,3.258,2.505,5.244,2.837c0.703,0.124,1.394,0.187,2.052,0.187c0.663,0,1.311-0.063,2.013-0.205   c0.606-0.13,1.402-0.343,2.464-0.661l2.758-0.869l5.461,5.818l-1.072,2.779c-0.346,0.932-0.598,1.647-0.756,2.148   c-0.441,1.356-0.561,2.842-0.357,4.411c0.256,1.988,1.129,3.819,2.485,5.252c1.341,1.442,3.168,2.576,5.587,3.469   c1.895,0.698,3.609,1.037,5.241,1.037c1.346,0,2.494-0.237,3.477-0.59c-0.06,0.253-0.12,0.506-0.167,0.773   c-0.439,2.405,0.121,4.876,1.578,6.961c0.841,1.203,2.001,2.367,3.556,3.568c1.559,1.197,2.993,2.024,4.337,2.508   c1.096,0.405,2.22,0.611,3.336,0.611c1.286,0,2.534-0.269,3.717-0.805c1.328-0.604,2.408-1.325,3.36-2.265   c0.534-0.539,1.122-1.231,1.851-2.178l5.628-7.319l19.483-6.587c2.034,1.265,4.086,2.506,6.151,3.725   c-2.062,2.307-3.782,5.015-5.078,8.122c-1.514,3.634-2.31,7.319-2.365,10.946c-0.06,3.67,0.498,7.028,1.649,9.961   c1.065,2.736,2.518,5.309,4.312,7.638c1.774,2.313,3.707,4.265,5.744,5.803c2.018,1.523,4.102,2.736,6.177,3.598   c2.449,1.026,5.091,1.676,7.87,1.934c1.543,0.139,2.769,0.207,3.746,0.207c0.809,0,1.503-0.047,2.082-0.136   c0.777-0.116,1.403-0.22,1.878-0.309c1.762-0.262,3.208-0.647,4.38-1.159c1.645-0.704,3.026-1.848,4.032-3.299   c0.586,1.235,1.265,2.45,2.042,3.644c4.28,6.567,10.391,10.665,18.169,12.181c1.787,0.346,3.579,0.522,5.322,0.522   c5.606,0,10.891-1.774,15.703-5.271c0.988-0.717,1.896-1.49,2.766-2.288c0.148,1.859,0.659,3.578,1.572,5.105   c1.04,1.809,2.512,3.255,4.347,4.282c1.812,1.029,3.777,1.55,5.84,1.55c0.017,0,24.6-0.194,24.6-0.194   c0.896-0.012,1.566-0.027,2.02-0.057c0.959-0.062,1.956-0.271,3.051-0.642c1.769-0.6,3.27-1.66,4.326-3.043   c0.784-1.02,1.375-2.24,1.815-3.76c0.369-1.298,0.541-2.741,0.525-4.386c-0.011-1.956-0.275-3.613-0.813-5.082   c-0.839-2.271-2.356-4.027-4.358-5.062c-0.852-0.447-1.682-0.77-2.489-0.987c1.054-0.053,2.109-0.118,3.164-0.202   c2.843-0.227,5.663-0.575,8.462-1.026l1.396,1.399l1.765,8.938c0.243,1.238,0.47,2.15,0.712,2.872   c0.398,1.181,1.039,2.316,1.944,3.451c1.516,1.914,3.741,3.123,6.263,3.404c0.448,0.05,0.918,0.076,1.399,0.076   c1.111,0,2.305-0.131,3.598-0.39c1.906-0.366,3.474-0.892,4.82-1.623c2.192-1.204,3.78-3.125,4.464-5.383   c0.44-1.431,0.612-2.752,0.526-4.017c-0.049-0.766-0.188-1.708-0.419-2.863l-1.787-9.056l1.764-4.237   c7.511-2.977,14.821-6.578,21.914-10.602l0.212,13.06c0.009,2.63,0.368,4.508,1.166,6.092c1.031,2.044,3.75,5.473,10.386,5.473   l0.277-0.003c2.562,0,4.662-0.43,6.455-1.331c1.847-0.941,3.298-2.415,4.187-4.242c0.638-1.301,1.002-2.54,1.118-3.869   c0.046-0.611,0.068-1.412,0.065-2.549l-0.052-2.888l7.127-3.587c0,0,2.349,1.809,2.379,1.831c0.783,0.582,1.381,1.013,1.788,1.295   c1.203,0.833,2.622,1.38,4.16,1.615c0.5,0.082,1.008,0.123,1.512,0.123c1.472,0,2.902-0.341,4.276-1.027   c1.741-0.879,3.332-2.3,4.875-4.358c2.099-2.816,2.862-5.303,2.928-7.398c1.232,0.611,2.557,0.925,3.945,0.925   c0.976,0,1.965-0.158,2.975-0.481c1.417-0.462,2.86-1.234,4.392-2.345c1.553-1.119,2.738-2.238,3.628-3.431   c1.514-2.038,2.15-4.466,1.796-6.798c-0.205-1.42-0.589-2.635-1.149-3.674c-0.357-0.673-0.843-1.427-1.579-2.45l-13.438-18.646   l3.739-2.695c0.941-0.677,1.626-1.237,2.156-1.763c0.767-0.762,1.416-1.663,1.951-2.695c0.34-0.639,0.581-1.315,0.744-2.01   c1.703-1.717,3.377-3.46,5.031-5.22l19.975,15.966c0.704,0.562,1.245,0.976,1.593,1.225c0.795,0.573,1.719,1.05,2.819,1.455   c1.074,0.396,2.169,0.597,3.255,0.597c0.696,0,1.388-0.083,1.987-0.231c1.285-0.3,2.533-0.886,3.779-1.764   c1.104-0.767,2.153-1.781,3.204-3.097c1.222-1.528,2.075-2.942,2.605-4.317c0.904-2.341,0.879-4.839-0.069-7.025   c-0.573-1.328-1.267-2.417-2.123-3.327c-0.026-0.027-0.051-0.055-0.077-0.082c-0.515-0.529-1.195-1.129-2.15-1.893l-4.203-3.359   l1.464-1.832l4.167,3.329c0.695,0.553,1.226,0.96,1.605,1.232c0.798,0.571,1.712,1.043,2.858,1.465   c1.064,0.382,2.142,0.575,3.203,0.575c0.693,0,1.382-0.082,2.043-0.244c1.243-0.303,2.46-0.875,3.749-1.771   c1.108-0.779,2.15-1.789,3.172-3.074c1.225-1.531,2.08-2.949,2.602-4.309c0.902-2.326,0.884-4.817-0.064-7.04   c-0.599-1.386-1.325-2.505-2.183-3.381c-0.543-0.563-1.257-1.193-2.166-1.915l-0.073-0.059c1.675-0.221,3.358-0.593,5.031-1.111   c7.494-2.315,13.109-7.072,16.693-14.143c3.491-6.899,3.889-14.14,1.184-21.521c-0.643-1.755-1.42-3.399-2.318-4.94l1.037,0.254   c1.157,0.286,2.097,0.472,2.93,0.572c0.351,0.04,0.717,0.062,1.098,0.062c0.969,0,1.986-0.142,3.025-0.423   c2.277-0.615,4.165-2.053,5.435-4.121c0.779-1.247,1.383-2.774,1.853-4.685c0.46-1.896,0.638-3.53,0.543-5.002   c-0.164-2.499-1.175-4.669-2.912-6.266c-1.09-1.006-2.252-1.753-3.462-2.222c-0.715-0.276-1.598-0.538-2.766-0.821l-1.095-0.268   c0.147-0.145,0.294-0.295,0.44-0.451c1.37-1.448,2.31-3.182,2.786-5.141c0.504-2.046,0.452-4.098-0.149-6.074   c-0.046-0.157-0.093-0.309-0.142-0.457l1.032,0.253c0.881,0.211,1.54,0.36,1.902,0.425c0.649,0.128,1.321,0.19,2.054,0.19   c0.352,0,0.731-0.015,1.179-0.05c1.854-0.159,3.551-0.815,4.912-1.898c1.007-0.796,1.879-1.836,2.655-3.172   c0.674-1.154,1.197-2.508,1.604-4.158c0.466-1.905,0.642-3.548,0.544-4.983c-0.157-2.522-1.236-4.785-3.062-6.389   c-0.198-0.172-0.395-0.328-0.593-0.483c1.083-0.56,2.046-1.305,2.833-2.253c0.815-1.004,1.439-2.196,1.903-3.633   c0.415-1.275,0.64-2.709,0.688-4.394l0.636-23.315c0.025-0.914,0.028-1.602,0.014-2.021c-0.025-0.985-0.203-2.006-0.536-3.103   c-0.539-1.781-1.535-3.312-2.928-4.461c-0.989-0.803-2.171-1.425-3.663-1.915c-1.288-0.413-2.725-0.633-4.345-0.671   c-0.255-0.008-0.504-0.012-0.745-0.012c-1.645,0-3.055,0.177-4.276,0.53c-2.415,0.684-4.396,2.209-5.584,4.301   c-0.405,0.715-0.724,1.413-0.961,2.101c-0.199-0.076-0.405-0.148-0.618-0.217c-1.271-0.41-2.701-0.633-4.405-0.681   c-0.208-0.005-0.412-0.007-0.609-0.007c-1.678,0-3.101,0.172-4.403,0.539c-0.02,0.006-0.041,0.012-0.062,0.018   c-0.038-0.138-0.078-0.277-0.121-0.417c-0.538-1.78-1.535-3.311-2.929-4.461c-0.93-0.756-2.051-1.348-3.44-1.828   c2.049-0.595,5.324-2.48,13.517-8.418C474.425,238.57,479.888,234.39,481.082,233.376z"/>
	<path class="st1" d="M276.487,274.328c0,0,32.981,155.246,109.799,133.573c75.036-21.17,22.695-177.333,22.695-177.333   S316.063,211.621,276.487,274.328z"/>
	<path class="st2" d="M286.911,270.866c0,0,31.122,143.016,97.354,124.114c64.695-18.463,16.828-162.464,16.828-162.464   S320.61,214.681,286.911,270.866z"/>
	<path class="st3" d="M414.329,230.182c0.086,0.466-1.141,0.936-1.067,1.376c0.065,0.387,1.431,0.749,1.497,1.114   c0.136,0.755,0.237,1.467,0.352,2.126c0.465,3.013-1.85,5.683-4.878,5.721c-72.203,1.127-115.415,29.75-130.204,41.557   c-2.748,2.18-6.788,0.916-7.796-2.386c-0.034-0.043,0.518-1.375,0.508-1.423l-1.225-1.106   c-12.773-46.348-40.614-106.784-3.325-149.123c8.332-9.461,20.564-18.177,33.189-20.755   C382.584,90.699,408.218,196.187,414.329,230.182z"/>
	<path class="st4" d="M414.329,230.182c0.161,0.876,0.288,1.71,0.43,2.49c-50.754,1.562-100.828,18.061-142.527,47.019   c-0.034-0.043-0.05-0.116-0.06-0.164l-0.656-2.365C313.39,248.318,363.488,231.814,414.329,230.182z"/>
	<path class="st5" d="M343.824,159.351c-4.968-2.644-11.342-2.416-16.108,0.577c-4.418,2.774-7.262,7.827-7.481,13.028   c-3.037-4.3-8.251-7.007-13.524-6.884c-5.626,0.132-11.07,3.456-13.756,8.401c-3.472,6.392-2.133,14.645,1.988,20.64   c4.12,5.995,10.597,10,17.344,12.718c6.431,2.591,13.218,4.163,19.836,6.234l0.272,0.092c4.379-5.377,9.758-10.611,13.695-16.318   c4.13-5.988,7.325-12.901,7.457-20.174C353.678,170.393,350.245,162.769,343.824,159.351z"/>
	<path class="st4" d="M409.845,381.149c-0.379,0.095-0.797,0.01-1.114-0.267c-0.515-0.449-0.569-1.23-0.12-1.746   c2.642-3.034,4.657-6.706,5.827-10.623c0.196-0.654,0.885-1.031,1.54-0.831c0.655,0.195,1.027,0.884,0.832,1.538   c-1.271,4.251-3.46,8.243-6.332,11.541C410.305,380.96,410.082,381.09,409.845,381.149z"/>
	<path class="st4" d="M417.783,363.786c-0.196,0.049-0.407,0.052-0.617-0.005c-0.66-0.174-1.054-0.853-0.878-1.512   c2.811-10.599,3.948-21.527,3.38-32.478c-0.035-0.684,0.479-1.281,1.171-1.299c0.682-0.036,1.264,0.488,1.3,1.17   c0.582,11.209-0.582,22.393-3.458,33.24C418.56,363.353,418.206,363.68,417.783,363.786z"/>
	<path class="st1" d="M239.592,280.83c0,0,5.834,158.603-73.949,156.298c-77.933-2.252-65.214-166.461-65.214-166.461   S185.931,229.654,239.592,280.83z"/>
	<path class="st2" d="M228.639,280.012c0,0,4.658,146.289-64.183,144.092c-67.244-2.146-55.901-153.469-55.901-153.469   S182.267,233.729,228.639,280.012z"/>
	<path class="st3" d="M95.149,271.596c0.024,0.383,1.096,0.616,1.125,0.98c0.038,0.482-0.966,1.089-0.935,1.539   c0.052,0.766,0.127,1.481,0.176,2.148c0.283,3.035,3.179,5.061,6.125,4.361c70.302-16.497,119.185,0.736,136.406,8.584   c3.197,1.445,6.807-0.765,6.98-4.213c0.023-0.051-1.158-1.688-1.16-1.738l1.239-0.89c1.097-48.063,13.375-113.461-33.105-145.44   c-10.386-7.146-24.373-12.619-37.246-12.044C91.956,128.581,92.794,237.136,95.149,271.596z"/>
	<path class="st4" d="M95.149,271.596c0.057,0.889,0.137,1.728,0.19,2.519c49.605-10.849,102.19-7.047,149.687,10.88   c0.023-0.051,0.02-0.125,0.018-0.174l0.06-2.453C197.464,264.593,144.855,260.792,95.149,271.596z"/>
	<path class="st5" d="M146.273,185.722c4.174-3.775,10.412-5.107,15.764-3.365c4.961,1.614,8.949,5.822,10.43,10.813   c1.898-4.911,6.295-8.806,11.439-9.971c5.489-1.243,11.578,0.655,15.389,4.797c4.925,5.353,5.637,13.684,3.101,20.502   s-7.842,12.281-13.723,16.561c-5.607,4.08-11.805,7.257-17.719,10.879l-0.242,0.156c-5.557-4.148-12.049-7.914-17.258-12.491   c-5.464-4.801-10.247-10.728-12.147-17.749C139.406,198.832,140.878,190.601,146.273,185.722z"/>
	<path class="st4" d="M136.276,416.922c0.39,0,0.775-0.185,1.015-0.53c0.39-0.561,0.252-1.332-0.309-1.723   c-3.302-2.299-6.151-5.37-8.24-8.883c-0.35-0.587-1.11-0.784-1.696-0.431c-0.588,0.349-0.781,1.108-0.432,1.695   c2.268,3.813,5.364,7.152,8.954,9.651C135.784,416.85,136.032,416.922,136.276,416.922z"/>
	<path class="st4" d="M124.347,402.016c0.202,0,0.407-0.049,0.597-0.155c0.598-0.329,0.814-1.084,0.484-1.68   c-5.309-9.595-9.073-19.917-11.19-30.676c-0.133-0.672-0.777-1.125-1.452-0.975c-0.67,0.132-1.107,0.782-0.976,1.451   c2.167,11.013,6.019,21.576,11.452,31.396C123.488,401.785,123.911,402.016,124.347,402.016z"/>
	<path class="st3" d="M218.389,356.536c1.05,0.074,1.635,0.151,1.635,0.151c0.006,0.299,0.022,0.62,0.005,0.93   c0.34,18.679-3.412,32.813-9.26,43.478c-0.344,0.658-0.698,1.293-1.074,1.884c-7.523,12.727-18.141,20.296-28.139,24.743   c-0.569,0.244-1.16,0.499-1.729,0.744c-11.342,4.733-21.63,5.589-25.34,5.743c-0.942,0.039-1.462,0.04-1.462,0.04   c-0.015-0.376-0.008-0.764-0.001-1.151c-0.284-18.103,2.578-31.976,7.218-42.585c0.254-0.615,0.542-1.219,0.818-1.79   C176.755,355.556,210.574,355.964,218.389,356.536z"/>
	<path class="st6" d="M223.896,353.768c-0.032-0.067-0.053-0.112-0.097-0.145c-0.314-0.426-0.876-0.514-1.303-0.201   c-1.38,1.016-2.749,2.054-4.107,3.114c-11.519,9.013-21.711,19.368-31.108,30.412c-8.647,1.992-17.424,2.565-26.221,1.776   c-0.276,0.571-0.564,1.174-0.818,1.79c8.431,0.827,16.84,0.402,25.116-1.276c-11.663,13.992-22.117,29.024-32.334,43.861   c-0.007,0.387-0.014,0.775,0.001,1.151c0,0,0.52-0.002,1.462-0.04c7.83-11.338,15.807-22.828,24.34-33.843   c-1.554,9.491-1.211,18.762,1.001,28.1c0.569-0.244,1.16-0.499,1.729-0.744c-2.344-10.015-2.442-19.979-0.309-30.268   c0.023-0.066,0.036-0.154,0.026-0.232c6.015-7.618,12.335-14.998,19.112-21.938c0.616,9.442,3.568,18.261,9.31,27.695   c0.376-0.591,0.73-1.226,1.074-1.884c-5.566-9.354-8.275-18.125-8.625-27.584l-0.011-0.022   c5.624-5.622,11.565-10.983,17.896-15.872c1.168-0.942,2.357-1.839,3.58-2.725C223.98,354.633,224.077,354.148,223.896,353.768z"/>
	<path class="st3" d="M308.095,350.108c-0.924,0.504-1.424,0.818-1.424,0.818c0.119,0.274,0.238,0.573,0.382,0.848   c7.464,17.126,16.758,28.417,26.514,35.681c0.586,0.455,1.173,0.885,1.761,1.267c12.137,8.442,24.942,10.905,35.883,10.788   c0.619-0.015,1.263-0.029,1.882-0.043c12.283-0.416,21.993-3.92,25.432-5.323c0.872-0.357,1.346-0.572,1.346-0.572   c-0.143-0.349-0.31-0.698-0.478-1.047c-7.276-16.579-15.651-28.003-24.285-35.719c-0.488-0.454-1-0.883-1.489-1.287   C345.545,331.89,314.963,346.335,308.095,350.108z"/>
	<path class="st6" d="M399.87,393.572c-0.143-0.349-0.31-0.698-0.478-1.047c-15.465-9.239-31.226-18.557-47.654-26.426   c8.224-1.919,16.047-5.032,23.369-9.292c-0.488-0.454-1-0.883-1.489-1.287c-7.67,4.378-15.89,7.509-24.581,9.297   c-13.14-6.132-26.717-11.305-40.942-14.708c-1.676-0.399-3.353-0.773-5.031-1.122c-0.518-0.108-0.993,0.207-1.101,0.725   c-0.026,0.049-0.026,0.098-0.028,0.173c-0.007,0.421,0.283,0.822,0.728,0.903c1.48,0.297,2.935,0.618,4.389,0.988   c7.791,1.811,15.424,4.214,22.878,6.985v0.025c3.618,8.747,4.805,17.85,3.636,28.671c0.586,0.455,1.173,0.885,1.761,1.266   c1.294-10.968,0.308-20.216-3.061-29.058c9.051,3.49,17.869,7.571,26.508,11.995c0.023,0.074,0.072,0.15,0.12,0.2   c6.221,8.468,10.279,17.569,12.315,27.651c0.619-0.015,1.263-0.029,1.882-0.043c-1.875-9.411-5.421-17.984-10.784-25.967   c12.343,6.465,24.378,13.594,36.216,20.645C399.396,393.787,399.87,393.572,399.87,393.572z"/>
	<path class="st4" d="M229.72,425.336l-4.209-13.501l-0.256-0.793l-0.062-0.064l-11.114-9.935c-5.35-4.792-6.763-12.6-3.432-18.963   l6.497-12.395l0.431-0.804l0.035-0.081l-0.828-14.952c-0.395-7.166,4.133-13.696,10.983-15.837l13.666-4.264l0.627-0.201   l0.168-0.181l9.831-10.995c4.792-5.35,12.6-6.763,18.963-3.432l13.281,6.963l0.334-0.023l0.905-0.051l13.713-0.754   c7.176-0.41,13.706,4.119,15.837,10.983l4.145,13.287l0.279,0.851l0.04,0.156l11.176,9.999c5.35,4.792,6.763,12.6,3.432,18.964   l-6.677,12.716l-0.286,0.565l0.01,0.261l0.818,14.691c0.41,7.176-4.119,13.706-10.983,15.837l-13.428,4.196l-0.865,0.269   l-0.01,0.014l-9.989,11.162c-4.792,5.35-12.6,6.763-18.964,3.432l-12.865-6.738l-0.417-0.225l-0.421,0.026l-14.531,0.801   C238.381,436.729,231.851,432.2,229.72,425.336z"/>
	<path class="st7" d="M284.499,389.805c1.174-1.694,1.945-3.546,2.338-5.444l40.374,8.493l-0.009-0.261l0.286-0.565l-40.501-8.536   l-0.011-0.002c0.525-3.622-0.306-7.34-2.361-10.4l0,0l34.9-22.895l-0.279-0.851l-35.115,23.022l-0.011,0.007   c-0.919-1.206-2.033-2.295-3.346-3.205c-1.401-0.971-2.913-1.652-4.467-2.086l0.003-0.013l9.241-41.242l-0.905,0.051l-9.188,40.982   c-3.537-0.764-7.235-0.189-10.378,1.569l-0.009-0.014l-22.835-35.049l-0.168,0.181l-0.627,0.201l22.872,35.117l0.004,0.005   c-1.6,1.025-3.03,2.374-4.181,4.033c-0.979,1.411-1.662,2.935-2.095,4.501l-0.009-0.002l-40.448-8.52l-0.431,0.804l40.665,8.567   c-0.751,3.52-0.176,7.198,1.569,10.328l-0.019,0.012l-34.166,22.387l0.062,0.064l0.256,0.793l34.303-22.497   c1.027,1.609,2.381,3.046,4.047,4.202c1.595,1.106,3.332,1.844,5.115,2.256l-8.888,39.722l0.421-0.026l0.417,0.225l8.898-39.74   l0.004-0.016c3.699,0.627,7.526-0.169,10.67-2.25l22.244,34.15l0.01-0.015l0.865-0.269l-22.398-34.364l-0.005-0.007   C282.452,392.277,283.569,391.146,284.499,389.805z"/>
	<path d="M34.495,348.978c0.739-1.44,1.486-2.325,2.241-2.656c1.078-0.473,2.71-0.27,4.898,0.612   c1.257,0.518,2.083,1.227,2.478,2.126c0.489,1.113,0.281,2.835-0.625,5.162l-0.15,0.388c-0.118,0.222-0.256,0.54-0.417,0.954   s-0.302,1.139-0.424,2.18c-0.121,1.04-0.01,1.955,0.338,2.745c1.467,3.341,3.568,4.412,6.299,3.211   c0.825-0.363,1.315-1.125,1.47-2.287c0.154-1.159,0.057-2.478-0.291-3.954c-0.349-1.477-0.592-3.127-0.731-4.953   c-0.137-1.826-0.129-3.587,0.026-5.283c0.155-1.698,0.847-3.362,2.079-4.998c1.233-1.634,2.999-2.957,5.297-3.967   c3.161-1.389,6.437-1.424,9.825-0.106c3.387,1.32,5.973,4.008,7.758,8.068c0.947,2.156,1.533,4.246,1.757,6.268   c0.225,2.024,0.199,3.503-0.075,4.438l-0.335,1.433l-0.097,0.364c-0.554,1.572-1.171,2.508-1.853,2.808   c-0.754,0.332-1.95,0.342-3.586,0.033c-2.334-0.432-3.785-1.295-4.353-2.589c-0.331-0.754-0.383-1.846-0.154-3.275   c0.025-0.139,0.113-0.426,0.267-0.857c0.152-0.431,0.255-0.809,0.306-1.132c0.052-0.322,0.028-0.815-0.071-1.48   c-0.099-0.663-0.323-1.391-0.67-2.181c-0.378-0.862-1.017-1.558-1.912-2.084c-0.898-0.528-1.795-0.595-2.693-0.199   c-1.077,0.473-1.721,1.302-1.929,2.487c-0.209,1.184-0.12,2.506,0.265,3.967c0.384,1.459,0.707,3.097,0.969,4.912   c0.261,1.814,0.369,3.546,0.322,5.195c-0.047,1.649-0.668,3.283-1.864,4.902c-1.196,1.618-2.979,2.949-5.351,3.992   c-2.299,1.01-4.543,1.439-6.733,1.286c-2.188-0.152-4.096-0.762-5.721-1.826s-3.02-2.285-4.181-3.659   c-1.163-1.378-2.091-2.855-2.785-4.435c-0.742-1.69-1.238-3.379-1.489-5.069c-0.25-1.69-0.287-3.143-0.114-4.354   c0.175-1.213,0.413-2.303,0.717-3.273c0.302-0.969,0.606-1.692,0.912-2.169L34.495,348.978z"/>
	<path d="M80.851,362.105l18.062,27.297c0.432,0.655,0.722,1.146,0.868,1.472c0.146,0.327,0.25,0.754,0.314,1.276   c0.063,0.522-0.114,1.038-0.528,1.549c-0.416,0.509-1.049,1.046-1.901,1.61c-0.851,0.564-1.583,0.93-2.199,1.103   c-0.616,0.171-1.151,0.126-1.607-0.137c-0.457-0.263-0.813-0.534-1.067-0.813c-0.255-0.279-0.599-0.744-1.032-1.399l-6.204-9.376   l-24.694,16.338c-0.754,0.499-1.327,0.842-1.719,1.031c-0.393,0.189-0.908,0.318-1.544,0.387c-0.637,0.069-1.261-0.145-1.868-0.635   c-0.608-0.493-1.248-1.247-1.919-2.26c-0.671-1.016-1.108-1.89-1.313-2.625c-0.204-0.736-0.15-1.383,0.162-1.943   c0.311-0.559,0.64-0.988,0.984-1.287c0.343-0.298,0.893-0.696,1.646-1.194l24.646-16.306l-6.237-9.427   c-0.412-0.622-0.695-1.106-0.852-1.449c-0.158-0.344-0.267-0.776-0.33-1.299c-0.063-0.522,0.111-1.038,0.528-1.547   c0.414-0.512,1.048-1.048,1.9-1.611c0.851-0.562,1.584-0.93,2.2-1.102c0.615-0.173,1.151-0.127,1.607,0.136   c0.457,0.263,0.811,0.533,1.066,0.811C80.074,360.984,80.417,361.45,80.851,362.105z"/>
	<path d="M110.807,406.612l-13.113,34.054c-0.519,1.398-1.02,2.327-1.507,2.782c-1.032,0.966-2.742,1.006-5.128,0.123   c-1.398-0.518-2.406-1.106-3.023-1.765c-0.429-0.459-0.682-0.988-0.759-1.587c-0.078-0.6-0.048-1.113,0.091-1.539   c0.138-0.425,0.361-1.05,0.666-1.872l2.548-6.581l-11.146-11.902l-6.734,2.111c-0.841,0.249-1.463,0.416-1.869,0.501   c-0.406,0.084-0.912,0.075-1.519-0.029c-0.608-0.103-1.126-0.385-1.556-0.842c-0.618-0.66-1.137-1.703-1.563-3.134   c-0.754-2.412-0.615-4.102,0.417-5.068c0.486-0.454,1.444-0.895,2.875-1.321l34.884-10.892c0.954-0.301,1.933-0.317,2.938-0.05   c1.004,0.27,1.841,0.762,2.512,1.478C111.272,402.628,111.598,404.471,110.807,406.612z M97.234,412.787l-8.541,2.678l5.351,5.715   L97.234,412.787z"/>
	<path d="M145.28,432.642c0.705,2.232,0.676,3.844-0.092,4.839c-0.456,0.59-1.449,1.137-2.978,1.641l-21.687,7.277l-6.871,8.899   c-0.552,0.715-0.99,1.233-1.312,1.553c-0.322,0.322-0.787,0.62-1.396,0.892c-0.608,0.275-1.28,0.276-2.014,0.008   c-0.735-0.27-1.598-0.789-2.592-1.555c-0.994-0.769-1.714-1.474-2.16-2.116c-0.446-0.642-0.608-1.3-0.484-1.974   c0.121-0.674,0.298-1.206,0.529-1.598c0.229-0.393,0.632-0.963,1.207-1.708l6.8-8.806l1.558-22.821   c0.101-1.608,0.38-2.706,0.837-3.297c0.767-0.993,2.334-1.419,4.703-1.277c1.78,0.137,3.058,0.503,3.835,1.102   c0.402,0.312,0.688,0.73,0.853,1.255c0.165,0.523,0.253,0.987,0.263,1.394c0.01,0.404-0.018,1.001-0.084,1.793l-1.7,17.133   l16.143-5.979c0.75-0.263,1.322-0.442,1.716-0.534c0.393-0.093,0.864-0.125,1.414-0.099c0.548,0.027,1.041,0.208,1.476,0.544   C143.957,429.762,144.636,430.906,145.28,432.642z"/>
	<path d="M173.454,480.105l0.417-0.08c1.533-0.205,2.553-0.202,3.061,0.01c1.121,0.471,1.906,1.995,2.357,4.568   c0.264,1.602,0.229,2.8-0.106,3.595c-0.305,0.725-0.808,1.236-1.508,1.537c-0.702,0.302-1.663,0.536-2.882,0.705   c-0.417,0.08-1,0.176-1.749,0.286c-0.75,0.111-2.168,0.068-4.257-0.13c-2.089-0.197-4.055-0.683-5.9-1.459   c-1.592-0.671-3.169-1.6-4.734-2.789c-1.565-1.19-3.054-2.71-4.467-4.562c-1.416-1.85-2.54-3.857-3.376-6.019   c-0.839-2.161-1.229-4.646-1.176-7.455c0.053-2.808,0.68-5.642,1.883-8.5c1.171-2.786,2.709-5.13,4.617-7.03   c1.906-1.902,3.908-3.295,6.005-4.181c2.096-0.884,4.302-1.447,6.616-1.687c2.315-0.24,4.463-0.209,6.444,0.092   c1.98,0.301,3.803,0.8,5.468,1.501c1.699,0.715,3.316,1.704,4.851,2.967c1.533,1.262,2.639,2.354,3.315,3.279l0.983,1.308   c0.484,0.671,0.84,1.215,1.071,1.631c0.229,0.415,0.399,0.924,0.508,1.523c0.109,0.6,0.05,1.171-0.178,1.714   c-0.38,0.904-1.171,1.721-2.372,2.45c-2.232,1.361-3.909,1.805-5.03,1.333c-0.652-0.275-1.408-1.06-2.266-2.358   c-1.002-1.868-2.77-3.335-5.302-4.4c-1.122-0.473-2.367-0.751-3.735-0.837c-1.369-0.086-2.773,0.036-4.211,0.368   c-1.439,0.332-2.824,1.069-4.155,2.212c-1.332,1.142-2.38,2.618-3.139,4.427c-0.777,1.846-1.108,3.644-0.991,5.395   c0.114,1.751,0.561,3.269,1.341,4.554c0.778,1.286,1.681,2.379,2.708,3.278c1.027,0.901,2.082,1.579,3.168,2.036   c1.121,0.471,2.24,0.771,3.357,0.9c1.116,0.13,1.952,0.141,2.508,0.033L173.454,480.105z"/>
	<path d="M213.718,458.256c5.698,1.128,10.236,4.169,13.616,9.119c3.379,4.951,4.445,10.583,3.194,16.896   c-1.168,5.891-4.18,10.585-9.033,14.084c-4.855,3.5-10.15,4.681-15.886,3.543c-5.968-1.182-10.582-4.297-13.842-9.344   s-4.31-10.496-3.151-16.348c0.633-3.195,1.803-6.075,3.511-8.637c1.709-2.561,3.712-4.595,6.011-6.101   c2.298-1.504,4.805-2.547,7.521-3.13C208.374,457.758,211.062,457.729,213.718,458.256z M207.288,491.609   c2.772,0.549,5.46,0.002,8.067-1.642c2.607-1.643,4.26-4.236,4.963-7.778c0.686-3.465,0.132-6.475-1.662-9.031   c-1.795-2.555-4.039-4.102-6.733-4.635c-2.772-0.549-5.467,0.026-8.085,1.729c-2.617,1.7-4.27,4.284-4.956,7.748   c-0.672,3.388-0.113,6.37,1.678,8.946C202.35,489.519,204.593,491.074,207.288,491.609z"/>
	<path d="M264.307,495.523c0.862-0.003,1.531,0.035,2.002,0.111c0.472,0.077,0.982,0.262,1.533,0.553   c0.549,0.293,0.954,0.793,1.212,1.498c0.256,0.705,0.388,1.647,0.393,2.824c0.003,1.021-0.091,1.865-0.285,2.532   c-0.194,0.668-0.428,1.178-0.701,1.533c-0.275,0.355-0.675,0.621-1.204,0.8c-0.53,0.178-0.981,0.277-1.354,0.299   c-0.373,0.02-0.932,0.033-1.678,0.035l-24.488,0.089c-0.903,0.003-1.767-0.229-2.593-0.697s-1.457-1.093-1.89-1.877   c-0.474-0.783-0.713-1.705-0.716-2.765c-0.004-1.02,0.229-1.845,0.697-2.475l18.158-25.321l-13.539,0.049   c-0.943,0.004-1.64-0.024-2.09-0.08c-0.453-0.057-0.992-0.233-1.622-0.524c-0.629-0.293-1.072-0.8-1.329-1.526   c-0.26-0.724-0.388-1.676-0.393-2.854c-0.005-1.255,0.109-2.256,0.341-3.004c0.233-0.746,0.644-1.277,1.23-1.594   c0.588-0.316,1.107-0.505,1.559-0.564c0.451-0.062,1.148-0.093,2.09-0.097l23.665-0.085c0.902-0.004,1.767,0.229,2.593,0.697   c0.826,0.467,1.455,1.094,1.89,1.876c0.474,0.784,0.712,1.705,0.717,2.765c0.004,1.059-0.229,1.904-0.697,2.533l-18.158,25.321   L264.307,495.523z"/>
	<path d="M303.794,456.727c2.14,0.948,3.33,2.039,3.566,3.271c0.142,0.732-0.106,1.84-0.74,3.32l-8.901,21.072l2.121,11.042   c0.172,0.887,0.27,1.557,0.297,2.011c0.027,0.456-0.058,1-0.254,1.638c-0.199,0.638-0.641,1.141-1.328,1.514   c-0.689,0.373-1.649,0.677-2.882,0.913c-1.234,0.237-2.239,0.311-3.016,0.219c-0.777-0.091-1.376-0.404-1.799-0.943   c-0.424-0.538-0.706-1.023-0.85-1.455c-0.143-0.431-0.302-1.11-0.48-2.036l-2.099-10.925l-16.074-16.275   c-1.138-1.139-1.778-2.076-1.918-2.809c-0.237-1.233,0.482-2.689,2.157-4.371c1.279-1.243,2.401-1.959,3.364-2.145   c0.501-0.096,1.002-0.032,1.505,0.19c0.502,0.224,0.909,0.466,1.219,0.726c0.31,0.261,0.739,0.676,1.29,1.251l11.715,12.614   l6.206-16.059c0.298-0.735,0.543-1.281,0.735-1.639c0.19-0.357,0.48-0.73,0.863-1.124c0.383-0.394,0.845-0.642,1.386-0.746   C300.76,455.811,302.067,456.06,303.794,456.727z"/>
	<path d="M342.967,442.908l28.812,22.395c1.19,0.9,1.933,1.649,2.229,2.246c0.626,1.268,0.171,2.915-1.365,4.943   c-0.9,1.19-1.754,1.986-2.564,2.385c-0.562,0.278-1.143,0.368-1.738,0.27c-0.597-0.099-1.079-0.276-1.446-0.533   c-0.367-0.255-0.901-0.648-1.6-1.177l-5.562-4.342l-14.617,7.229l0.075,7.056c-0.004,0.879-0.025,1.523-0.06,1.936   c-0.038,0.412-0.193,0.894-0.468,1.445c-0.276,0.552-0.693,0.968-1.255,1.246c-0.811,0.4-1.961,0.598-3.452,0.592   c-2.528,0.025-4.105-0.598-4.731-1.863c-0.295-0.598-0.44-1.642-0.433-3.135l-0.345-36.544c-0.013-1,0.254-1.942,0.802-2.827   c0.547-0.883,1.261-1.543,2.14-1.979C339.288,441.312,341.147,441.531,342.967,442.908z M344.958,457.685l0.093,8.952l7.018-3.472   L344.958,457.685z"/>
	<path d="M349.988,436.16l26.692-18.943c0.641-0.455,1.121-0.761,1.443-0.917c0.323-0.156,0.745-0.275,1.264-0.355   c0.521-0.08,1.043,0.079,1.566,0.477c0.524,0.4,1.08,1.014,1.671,1.847c0.591,0.832,0.982,1.553,1.174,2.162   c0.192,0.611,0.164,1.148-0.084,1.611c-0.248,0.466-0.508,0.83-0.777,1.093c-0.27,0.264-0.725,0.623-1.365,1.078l-9.17,6.507   l17.137,24.148c0.523,0.736,0.886,1.297,1.087,1.683c0.203,0.387,0.348,0.897,0.437,1.531c0.09,0.635-0.102,1.263-0.573,1.888   c-0.472,0.623-1.205,1.288-2.196,1.991c-0.993,0.704-1.853,1.17-2.581,1.399c-0.728,0.229-1.376,0.195-1.947-0.099   c-0.569-0.293-1.007-0.607-1.317-0.942c-0.309-0.333-0.725-0.87-1.248-1.605l-17.103-24.1l-9.217,6.542   c-0.608,0.432-1.081,0.732-1.419,0.899c-0.338,0.168-0.767,0.292-1.288,0.371c-0.519,0.082-1.042-0.077-1.564-0.477   c-0.525-0.397-1.081-1.012-1.671-1.846c-0.59-0.831-0.982-1.551-1.174-2.163c-0.193-0.609-0.164-1.145,0.083-1.611   c0.248-0.464,0.506-0.828,0.777-1.093C348.893,436.973,349.348,436.615,349.988,436.16z"/>
	<path d="M409.583,381.005c0.644-0.792,1.252-1.384,1.825-1.779c0.574-0.393,1.078-0.641,1.514-0.742   c0.437-0.1,0.915-0.054,1.438,0.144c0.523,0.197,0.935,0.406,1.237,0.626c0.301,0.22,0.742,0.565,1.321,1.036l25.352,20.607   c0.702,0.57,1.209,1.019,1.521,1.349c0.313,0.331,0.599,0.803,0.858,1.418c0.258,0.615,0.245,1.287-0.044,2.014   c-0.288,0.727-0.827,1.578-1.619,2.552c-0.644,0.793-1.252,1.387-1.826,1.779c-0.573,0.394-1.077,0.643-1.512,0.743   c-0.436,0.101-0.916,0.051-1.439-0.145c-0.523-0.197-0.933-0.405-1.236-0.626c-0.301-0.219-0.741-0.565-1.321-1.035l-9.273-7.537   l-9.84,12.106l9.318,7.574c0.702,0.569,1.209,1.02,1.521,1.349c0.313,0.332,0.599,0.805,0.858,1.419   c0.257,0.615,0.243,1.285-0.043,2.013c-0.29,0.728-0.828,1.579-1.62,2.553c-0.645,0.792-1.252,1.385-1.826,1.779   c-0.573,0.393-1.077,0.64-1.514,0.742c-0.434,0.101-0.915,0.052-1.439-0.146c-0.521-0.196-0.933-0.404-1.235-0.625   c-0.303-0.219-0.741-0.564-1.321-1.035l-25.354-20.608c-0.699-0.569-1.206-1.02-1.519-1.349c-0.313-0.331-0.6-0.803-0.858-1.418   c-0.259-0.615-0.246-1.287,0.043-2.012c0.286-0.727,0.827-1.579,1.62-2.554c0.643-0.791,1.251-1.383,1.825-1.779   c0.573-0.393,1.078-0.639,1.514-0.741c0.436-0.101,0.915-0.053,1.438,0.144c0.523,0.197,0.934,0.407,1.236,0.626   c0.303,0.22,0.742,0.565,1.321,1.035l9.319,7.575l9.84-12.106l-9.364-7.612c-0.701-0.569-1.207-1.018-1.52-1.35   c-0.313-0.329-0.601-0.802-0.858-1.418c-0.26-0.615-0.245-1.286,0.043-2.013C408.251,382.831,408.79,381.979,409.583,381.005z"/>
	<path d="M422.582,357.822c2.672-5.157,6.857-8.668,12.554-10.534c5.696-1.865,11.403-1.319,17.116,1.643   c5.332,2.763,9,6.963,11.008,12.6c2.007,5.638,1.666,11.052-1.024,16.244c-2.799,5.401-7.075,8.965-12.833,10.689   c-5.755,1.726-11.281,1.216-16.579-1.529c-2.891-1.499-5.33-3.425-7.314-5.78c-1.985-2.355-3.379-4.844-4.184-7.472   c-0.805-2.626-1.107-5.325-0.91-8.096C420.615,362.814,421.336,360.227,422.582,357.822z M452.822,373.294   c1.3-2.508,1.524-5.244,0.672-8.205c-0.853-2.96-2.88-5.272-6.087-6.933c-3.136-1.626-6.181-1.933-9.137-0.922   c-2.954,1.011-5.064,2.734-6.328,5.174c-1.299,2.509-1.497,5.258-0.592,8.246c0.904,2.988,2.925,5.295,6.061,6.921   c3.066,1.588,6.085,1.883,9.057,0.881C449.439,377.454,451.557,375.733,452.822,373.294z"/>
	<path d="M443.456,298.934c0.299-1.178,0.657-2.1,1.069-2.765c0.412-0.664,0.942-1.077,1.591-1.235   c0.648-0.158,1.207-0.208,1.678-0.149c0.471,0.057,1.145,0.199,2.019,0.423l31.66,8.065c0.875,0.223,1.522,0.429,1.939,0.616   c0.418,0.188,0.868,0.495,1.346,0.919c0.479,0.427,0.739,1.029,0.783,1.81c0.045,0.782-0.088,1.78-0.398,2.997   c-0.253,0.989-0.555,1.782-0.911,2.379c-0.354,0.599-0.708,1.034-1.062,1.309c-0.353,0.275-0.809,0.432-1.366,0.472   c-0.558,0.041-1.018,0.025-1.385-0.048c-0.366-0.072-0.91-0.202-1.633-0.386l-19.111-4.868c0.937,1.251,2.457,3.116,4.558,5.596   c2.102,2.48,3.594,4.298,4.472,5.453c0.162,0.163,0.341,0.371,0.541,0.623c0.198,0.254,0.423,0.806,0.669,1.66   c0.249,0.852,0.262,1.717,0.039,2.591c-0.212,0.836-0.608,1.556-1.187,2.158s-1.097,1.006-1.556,1.213l-0.743,0.297   c-1.145,0.519-3.552,1.506-7.224,2.959c-3.67,1.455-5.645,2.248-5.922,2.379l19.225,4.898c0.875,0.223,1.523,0.419,1.946,0.588   c0.423,0.167,0.871,0.475,1.345,0.919c0.474,0.445,0.733,1.058,0.777,1.838c0.045,0.782-0.088,1.78-0.399,2.997   c-0.299,1.179-0.654,2.091-1.062,2.736c-0.407,0.646-0.925,1.05-1.555,1.213c-0.628,0.165-1.179,0.216-1.649,0.157   c-0.471-0.06-1.163-0.205-2.076-0.438l-31.66-8.066c-0.875-0.224-1.524-0.419-1.947-0.587c-0.423-0.169-0.871-0.475-1.345-0.919   c-0.474-0.445-0.733-1.057-0.777-1.838c-0.045-0.782,0.088-1.78,0.399-2.997c0.262-1.027,0.61-1.88,1.047-2.558   s0.816-1.098,1.14-1.259l0.429-0.255l20.299-8.619c-6.91-8.644-11.458-14.401-13.644-17.266   C442.956,303.04,442.836,301.368,443.456,298.934z"/>
	<path d="M477.241,283.457l0.688-18.118c0.034-0.903,0.089-1.577,0.165-2.027c0.076-0.448,0.282-0.962,0.618-1.538   c0.337-0.577,0.882-0.969,1.635-1.175c0.755-0.208,1.759-0.286,3.013-0.239c1.021,0.039,1.86,0.17,2.519,0.389   c0.66,0.222,1.16,0.477,1.503,0.765c0.342,0.289,0.592,0.7,0.748,1.237c0.157,0.536,0.238,0.991,0.243,1.363   c0.005,0.374-0.006,0.933-0.034,1.678l-0.884,23.295c-0.039,1.021-0.168,1.859-0.389,2.519c-0.222,0.66-0.476,1.16-0.764,1.503   c-0.288,0.342-0.701,0.592-1.237,0.748c-0.535,0.156-0.99,0.237-1.363,0.243c-0.373,0.006-0.933-0.006-1.678-0.035l-32.708-1.241   c-2-0.076-3.348-0.499-4.046-1.272c-0.697-0.772-1.006-2.198-0.928-4.276l0.88-23.177c0.034-0.903,0.089-1.578,0.164-2.027   c0.077-0.448,0.283-0.962,0.619-1.537c0.336-0.577,0.882-0.969,1.635-1.175c0.754-0.207,1.758-0.286,3.013-0.24   c1.02,0.039,1.86,0.168,2.519,0.39c0.659,0.223,1.16,0.477,1.502,0.764c0.343,0.289,0.592,0.701,0.749,1.237   c0.157,0.536,0.238,0.99,0.243,1.363c0.006,0.373-0.006,0.933-0.033,1.678l-0.685,18.06l5.941,0.225l0.442-11.647   c0.034-0.902,0.09-1.576,0.165-2.026c0.076-0.448,0.282-0.962,0.618-1.538c0.337-0.576,0.882-0.968,1.635-1.174   c0.755-0.208,1.759-0.288,3.015-0.24c1.019,0.039,1.858,0.169,2.518,0.391s1.16,0.478,1.503,0.763   c0.342,0.289,0.591,0.711,0.747,1.267s0.237,1.02,0.242,1.392c0.005,0.375-0.006,0.933-0.034,1.678l-0.438,11.529L477.241,283.457z   "/>
	<path class="st8" d="M71.253,314.591c-15.141-3.463-29.675-9.564-42.75-17.948c-5.512-3.534-10.927-7.649-14.105-13.375   c-3.178-5.725-3.598-13.414,0.54-18.489c3.352-4.111,9.064-5.756,14.346-5.267s10.214,2.834,14.774,5.544   c-0.564-6.519,0.258-13.497,3.948-18.901c3.889-5.695,10.98-8.899,17.762-6.94c8.398,2.426,11.818,11.276,12.91,19.151   c1.343,9.687,0.832,19.237-0.55,28.879C77.779,289.665,72.766,314.937,71.253,314.591z"/>
	<path class="st8" d="M455.086,244.261c-9.05-12.623-15.897-26.821-20.14-41.763c-1.789-6.299-3.12-12.968-1.708-19.363   c1.411-6.394,6.19-12.433,12.651-13.494c5.234-0.86,10.603,1.691,14.236,5.556s5.774,8.889,7.396,13.939   c3.896-5.258,9.133-9.941,15.477-11.545c6.686-1.691,14.12,0.605,17.904,6.566c4.685,7.38,1.385,16.276-3.013,22.899   c-5.41,8.147-12.118,14.963-19.54,21.271C476.485,229.91,455.99,245.523,455.086,244.261z"/>
	<path class="st7" d="M92.46,79.245c0,0.001-0.001,0.002-0.002,0.003C69.128,95.432,49.96,117.932,38.384,143.6   c-7.781,17.254-10.305,32.108-7.718,45.411c2.79,14.339,14.264,29.957,30.796,32.064c1.267,0.161,2.545,0.241,3.829,0.241   c12.361,0,25.324-7.387,35.348-20.346c5.165-6.677,9.309-14.159,13.315-21.395c0.381-0.688,0.771-1.385,1.156-2.077   c0,0,13.989,8.716,30.954,8.439c2.32-0.038,4.429-0.185,6.617-0.447c3.648-0.438,7.25-1.176,10.811-2.134   c8.563-2.466,17.509-6.135,27.948-10.905c10.352-4.731,15.237-7.262,23.209-10.022c7.829-2.71,17.686-5.169,29.621-6.101   c7.472-0.744,15.045-1.001,22.766-0.983c3.088,0.007,9.351,0.141,9.358,0.141c15.761,0.613,29.353,0.414,29.353,0.414   c9.209-0.111,16.83-1.039,22.441-1.977c9.395-1.57,14.647-3.418,16.22-3.989c4.311-1.564,7.775-3.258,10.22-4.573   c3.359,2.79,6.622,5.713,9.803,8.586c6.138,5.543,12.486,11.274,19.54,15.912c9.594,6.31,19.663,9.562,28.853,9.562   c5.286,0,10.281-1.076,14.729-3.264c14.951-7.359,20.733-25.856,18.716-40.323c-1.871-13.422-9.081-26.652-22.042-40.445   c-14.124-15.031-31.549-27.134-50.599-35.575c-15.541-25.712-47.484-39.671-76.913-45.765c-0.012-0.002-9.373-2.033-20.271-3.232   c-0.006-0.001-0.013-0.001-0.019-0.002c-39.32-4.311-83.086,0.865-120.609,17.212c-9.903,4.446-24.54,11.566-38.683,23.039   C105.266,60.691,97.747,69.857,92.46,79.245z M83.737,136.406c3.344,11.857,9.793,22.848,18.643,31.425   c0.001,0.001,0.003,0.002,0.004,0.003c0.749,0.726,7.66,6.759,10.836,8.517c0.001,0,0.001,0.001,0.002,0.001   c-0.401,0.719-0.806,1.442-1.201,2.156c-3.967,7.163-8.069,14.57-13.13,21.113c-10.582,13.68-24.473,20.887-37.151,19.265   c-15.492-1.974-26.268-16.734-28.906-30.294c-2.497-12.839-0.024-27.258,7.563-44.081c10.783-23.91,28.25-45.029,49.545-60.744   c0,0,0,0,0,0.001c-0.382,0.733-1.879,3.759-2.189,4.523c-2.33,5.014-5.282,12.914-6.226,23.006   C80.518,122.096,82.227,130.917,83.737,136.406z M426.573,174.177c-11.469,5.646-26.943,3.343-41.392-6.161   c-6.913-4.546-13.196-10.22-19.274-15.707c-2.997-2.706-6.07-5.456-9.232-8.11c13.05-8.276,17.965-15.823,21.508-23.755   c0.591-1.322,3.123-8.895,3.477-10.311c2.604-10.408,2.074-22.829-0.58-32.789c-0.339-1.271-2.52-8.41-5.602-14.26   c17.707,8.248,33.895,19.726,47.137,33.818c12.636,13.449,19.658,26.284,21.463,39.238   C445.987,149.82,440.587,167.279,426.573,174.177z"/>
	<path class="st4" d="M219.62,112.867c-3.836-3.159-7.894-6.104-12.08-8.808c2.361-2.013,4.595-4.184,6.661-6.521   c0.905-1.022,0.81-2.586-0.214-3.492c-1.026-0.906-2.586-0.81-3.493,0.215c-6.598,7.461-14.954,13.186-24.162,16.767   c-0.309,0.029-0.618,0.115-0.911,0.268c-0.107,0.056-0.201,0.126-0.296,0.195c-5.494,2.008-11.273,3.252-17.155,3.643   c-0.23-0.033-0.465-0.047-0.705-0.014c-0.093,0.014-0.178,0.044-0.266,0.068c-16.223,0.815-32.41-4.863-44.541-15.658   c-1.02-0.911-2.586-0.817-3.493,0.203c-0.909,1.022-0.817,2.586,0.204,3.494c2.604,2.317,5.39,4.402,8.307,6.272   c-1.583,2.255-3.066,4.467-4.506,6.619c-1.798,2.688-3.658,5.467-5.685,8.277c-0.8,1.109-0.549,2.656,0.559,3.456   c0.438,0.314,0.944,0.466,1.445,0.466c0.768,0,1.526-0.358,2.009-1.027c2.078-2.883,3.962-5.699,5.784-8.42   c1.49-2.227,3.028-4.517,4.662-6.835c5.041,2.729,10.421,4.798,15.979,6.18l-5.819,17.845c-0.424,1.298,0.286,2.694,1.585,3.12   c0.255,0.082,0.514,0.121,0.767,0.121c1.042,0,2.012-0.662,2.352-1.709l5.985-18.352c3.737,0.643,7.53,0.986,11.339,0.986   c0.528,0,1.058-0.035,1.586-0.048l2.805,18.731c0.184,1.228,1.238,2.107,2.443,2.107c0.122,0,0.247-0.01,0.371-0.027   c1.351-0.203,2.283-1.462,2.08-2.815l-2.739-18.29c5.092-0.509,10.093-1.614,14.908-3.253c2.679,5.252,5.187,10.633,7.45,16.045   c0.396,0.95,1.316,1.52,2.284,1.52c0.318,0,0.642-0.061,0.954-0.191c1.261-0.527,1.856-1.977,1.328-3.238   c-2.241-5.359-4.719-10.69-7.36-15.898c4.724-2.005,9.211-4.554,13.37-7.572c4.539,2.845,8.933,5.99,13.059,9.388   c0.462,0.382,1.019,0.565,1.572,0.565c0.714,0,1.422-0.307,1.911-0.901C220.826,115.294,220.674,113.735,219.62,112.867z"/>
	<path class="st4" d="M353.77,95.863c-2.703-2.18-5.236-4.374-7.684-6.496c-1.95-1.689-3.957-3.425-6.071-5.177   c2.32-2.573,4.452-5.324,6.352-8.245c0.746-1.146,0.421-2.678-0.725-3.422c-1.147-0.752-2.679-0.42-3.424,0.725   c-8.852,13.612-22.984,23.368-38.833,26.859c-0.09,0.001-0.179-0.006-0.27,0.005c-0.25,0.03-0.48,0.106-0.698,0.202   c-5.771,1.17-11.666,1.495-17.487,1.009c-0.109-0.041-0.218-0.084-0.335-0.109c-0.321-0.07-0.639-0.07-0.944-0.018   c-9.829-1.022-19.401-4.338-27.737-9.794c-1.143-0.744-2.679-0.428-3.427,0.715s-0.428,2.678,0.715,3.427   c2.61,1.708,5.335,3.216,8.143,4.534c-3.324,3.715-6.459,7.625-9.322,11.677c-0.788,1.117-0.522,2.661,0.595,3.449   c0.434,0.307,0.932,0.454,1.424,0.454c0.777,0,1.542-0.365,2.024-1.047c3.079-4.361,6.482-8.549,10.106-12.49   c4.81,1.814,9.818,3.068,14.906,3.755c-1.173,5.717-2.156,11.514-2.903,17.283c-0.175,1.356,0.781,2.598,2.136,2.774   c0.107,0.012,0.215,0.019,0.321,0.019c1.224,0,2.289-0.909,2.451-2.156c0.755-5.823,1.753-11.674,2.948-17.437   c1.374,0.084,2.751,0.135,4.129,0.135c3.712,0,7.43-0.323,11.11-0.944l2.187,18.368c0.15,1.259,1.218,2.182,2.454,2.182   c0.098,0,0.197-0.005,0.296-0.017c1.357-0.162,2.326-1.394,2.165-2.75l-2.238-18.796c4.214-1.045,8.303-2.503,12.214-4.332   l10.621,16.127c0.475,0.723,1.264,1.114,2.069,1.114c0.466,0,0.939-0.133,1.358-0.408c1.142-0.752,1.458-2.286,0.706-3.427   l-10.319-15.672c4.995-2.8,9.624-6.232,13.765-10.194c2.187,1.803,4.274,3.606,6.297,5.36c2.481,2.148,5.046,4.372,7.817,6.607   c0.458,0.37,1.006,0.549,1.553,0.549c0.723,0,1.438-0.314,1.927-0.921C355,98.28,354.833,96.722,353.77,95.863z"/>
	<path class="st5" d="M283.03,17.409c-0.535,1.132-1.808,1.771-3.073,1.463c-9.004-2.19-16.52-1.416-16.595-1.407   c-1.48,0.16-2.809-0.911-2.968-2.391c-0.158-1.477,0.91-2.809,2.39-2.969c0.344-0.037,8.538-0.882,18.448,1.529   c1.447,0.352,2.333,1.81,1.982,3.256C283.169,17.073,283.107,17.246,283.03,17.409z"/>
	<path class="st5" d="M334.953,38.469c-0.534,0-1.075-0.148-1.556-0.46c-12.147-7.846-26.074-13.438-40.274-16.171   c-1.557-0.301-2.577-1.806-2.277-3.363c0.301-1.557,1.805-2.573,3.363-2.277c14.916,2.872,29.544,8.745,42.304,16.988   c1.333,0.859,1.715,2.639,0.854,3.971C336.819,38.007,335.896,38.469,334.953,38.469z"/>
</g>
</svg>
