<?xml version="1.0" encoding="UTF-8"?>
<!-- Generator: Adobe Illustrator 25.2.1, SVG Export Plug-In . SVG Version: 6.00 Build 0)  -->
<svg xmlns="http://www.w3.org/2000/svg" xmlns:xlink="http://www.w3.org/1999/xlink" version="1.1" id="Capa_1" x="0px" y="0px" viewBox="0 0 512 512" style="enable-background:new 0 0 512 512;" xml:space="preserve" width="512" height="512">
<g>
	<g>
		<path style="fill:#FFFFFF;" d="M318.364,458.487c-17.759,0-43.141-5.418-63.803-13.449c-1.299,0.715-2.783,1.107-4.34,1.107    c-1.334,0-2.626-0.289-3.838-0.86c-0.063-0.03-0.127-0.061-0.188-0.091c-0.378-0.19-0.737-0.404-1.076-0.638    c-3.849-0.314-9.806-0.832-16.869-1.56h-70.214c-4.652,1.638-8.616,2.994-12.378,4.234c-1.047,0.357-2.204,0.742-3.335,1.104    c-3.161,1.035-6.553,2.07-10.191,2.474c-1.109,0.443-2.307,0.681-3.523,0.681c-1.397,0-2.756-0.304-3.993-0.879    c-6.006-1.073-10.837-4.317-14.639-7.614H39.104c-3.644,0-6.864-2.371-7.945-5.851C18.8,397.39,6.02,356.282,7.214,312.95    c0.067-2.442,0.202-4.976,0.413-7.786c-4.012-4.696-6.529-10.063-7.345-15.719c-1.178-8.155,1.369-16.223,6.812-21.577    c2.477-2.434,5.483-4.246,8.869-5.371c3.773-11.384,8.674-21.923,14.629-31.472c-2.967-2.162-5.308-4.682-7.069-7.597    c-5.797-9.586-4.358-23.143,3.347-31.534c4.066-4.426,9.755-6.751,16.919-6.918c0.034-7.42,2.387-13.783,6.911-18.24    c4.093-4.029,9.642-6.249,15.624-6.249c2.146,0,4.285,0.291,6.357,0.864c2.027,0.562,4.018,1.424,5.898,2.547    c2.134-3.161,4.83-5.72,7.929-7.403c2.737-1.486,5.822-2.271,8.923-2.271c3.882,0,7.554,1.204,10.619,3.48    c5.262,3.908,7.517,9.384,8.371,14.539c10.704-3.93,21.732-8.009,31.811-13.061c1.7-0.852,3.454-1.778,5.374-2.842    c0.77-3.134,1.703-6.14,2.599-8.843c0.023-4.758,1.602-9.444,4.413-13.119c0.641-2.077,1.132-3.872,1.523-5.56    c1.007-4.343,1.566-8.859,2.157-13.643c0.961-7.77,1.956-15.807,5.004-23.751c5.997-15.624,19.475-28.397,36.052-34.172    c6.921-2.411,15.013-3.739,22.783-3.739c8.864,0,16.724,1.741,22.885,5.052c2.24-0.269,4.507-0.404,6.775-0.404    c10.861,0,21.392,2.995,30.452,8.66c9.393,5.874,16.903,14.473,21.572,24.589c32.216,1.766,64.627,12.463,91.837,30.396    c25.219,16.62,46.814,39.03,64.257,66.67c0.403-0.023,0.801-0.034,1.2-0.034c7.441,0,14.46,3.868,18.777,10.347    c1.163,1.743,2.101,3.689,2.787,5.759c2.113-0.572,4.242-0.87,6.333-0.87c1.537,0,3.057,0.162,4.518,0.482    c6.983,1.527,12.477,6.902,13.99,13.695c3.068,13.784-9.376,24.302-13.466,27.758c-1.808,1.527-3.686,3.057-5.619,4.58    c1.283,3.996,2.406,7.776,3.397,11.44c12.936,47.784,13.87,108.098,2.703,174.421c-0.674,4.006-4.142,6.94-8.205,6.94h-86.962    c-0.691,0.403-1.442,0.707-2.232,0.897c-0.645,0.156-1.3,0.233-1.953,0.233c-1.461,0-2.905-0.384-4.185-1.129h-49.196    c-0.02,0.254-0.048,0.509-0.085,0.763C344.773,450.479,339.264,458.487,318.364,458.487z"/>
	</g>
	<g>
		<path style="fill:#DFA76D;" d="M491.282,434.674H40.057c-12.404-39.902-24.722-79.726-23.571-121.495    c1.15-41.769,17.38-85.181,51.389-109.459c24.737-17.658,55.87-23.481,83.041-37.099c30.157-15.115,54.963-39.603,85.574-53.775    c50.654-23.451,112.936-14.809,159.543,15.908c46.607,30.717,78.132,81.174,92.718,135.054    C503.336,317.689,500.548,379.629,491.282,434.674z"/>
	</g>
	<g>
		<g>
			<path style="fill:#CF6B58;" d="M17.151,304.57c-0.115,3.291,1.795,6.259,3.613,8.997c0.575,0.851,1.128,1.703,1.703,2.554     c8.307,12.472,16.637,24.967,25.175,37.302c19.238,27.729,39.534,54.652,63.005,78.837c4.488,4.625,9.573,9.389,15.97,10.263     c4.395,0.621,8.813-0.737,13.025-2.117c1.081-0.345,2.186-0.713,3.267-1.082c13.347-4.395,26.555-9.228,39.603-14.474     c7.34-2.945,14.635-6.006,21.861-9.204c10.838-4.786,50.004-16.591,50.947-30.398c0.414-6.075-6.558-12.748-8.583-18.225     c-3.428-9.205-4.741-19.353-7.732-28.764c-6.167-19.284-14.589-37.854-25.037-55.205c-10.655-17.719-23.426-34.149-37.992-48.784     c-1.243-1.22-2.462-2.416-3.704-3.613c-4.51-4.349-10.033-8.813-16.246-8.031c-8.675,1.128-12.472,11.207-18.11,17.903     c-1.657,1.956-3.521,3.682-5.569,5.155c-7.111,5.201-16.292,7.686-25.128,9.228c-11.391,1.979-23.242,2.923-33.505,8.192     c-14.221,7.318-23.793,22.16-38.659,27.982C27.621,294.007,17.381,296.585,17.151,304.57z"/>
		</g>
		<g>
			<g>
				<path style="fill:#FFDBAF;" d="M132.347,245.683c1.864,10.585,11.115,18.616,22.252,18.616c12.495,0,22.62-10.125,22.62-22.62      c0-2.6-0.437-5.085-1.243-7.41c-1.243-1.22-2.462-2.416-3.704-3.613c-4.51-4.349-10.033-8.813-16.246-8.031      c-8.675,1.128-12.472,11.207-18.11,17.903C136.259,242.485,134.395,244.211,132.347,245.683z"/>
			</g>
			<g>
				
					<ellipse transform="matrix(0.2898 -0.9571 0.9571 0.2898 -195.7229 374.6927)" style="fill:#FFDBAF;" cx="154.607" cy="319.225" rx="22.62" ry="22.62"/>
			</g>
			<g>
				
					<ellipse transform="matrix(0.9571 -0.2898 0.2898 0.9571 -94.6727 76.6223)" style="fill:#FFDBAF;" cx="211.402" cy="358.002" rx="22.62" ry="22.62"/>
			</g>
			<g>
				<path style="fill:#FFDBAF;" d="M69.416,296.017c0,12.493,10.127,22.62,22.62,22.62c12.492,0,22.62-10.127,22.62-22.62      c0-12.493-10.127-22.62-22.62-22.62C79.543,273.398,69.416,283.525,69.416,296.017z"/>
			</g>
			<g>
				<path style="fill:#FFDBAF;" d="M83.222,370.34c0,12.492,10.127,22.62,22.62,22.62c12.492,0,22.62-10.127,22.62-22.62      c0-12.493-10.127-22.62-22.62-22.62C93.35,347.72,83.222,357.847,83.222,370.34z"/>
			</g>
			<g>
				<path style="fill:#FFDBAF;" d="M137.271,424.391c0,5.707,2.117,10.953,5.638,14.935c13.347-4.395,26.555-9.228,39.603-14.474      v-0.46c0-12.495-10.125-22.62-22.621-22.62C147.397,401.77,137.271,411.896,137.271,424.391z"/>
			</g>
			<g>
				<path style="fill:#FFDBAF;" d="M22.467,316.122c8.307,12.472,16.637,24.967,25.175,37.302      c5.039-4.142,8.261-10.424,8.261-17.443c0-12.495-10.125-22.62-22.62-22.62C29.37,313.36,25.665,314.35,22.467,316.122z"/>
			</g>
		</g>
		<g>
			<path style="fill:#241E1C;" d="M128.463,442.533c-0.127,0-0.255-0.047-0.354-0.141C77.617,394.534,48.6,352.35,18.148,299.8     c-0.142-0.246-0.058-0.561,0.188-0.704c0.244-0.142,0.56-0.059,0.704,0.188c30.406,52.47,59.375,94.587,109.776,142.359     c0.207,0.196,0.216,0.522,0.02,0.728C128.736,442.479,128.599,442.533,128.463,442.533z"/>
		</g>
	</g>
	<g>
		<g>
			<path style="fill:#CF6B58;" d="M491.127,295.17c0.115,3.29-1.795,6.259-3.612,8.997c-0.576,0.851-1.128,1.703-1.703,2.554     c-8.307,12.472-16.637,24.967-25.175,37.302c-19.237,27.729-39.534,54.652-63.005,78.838c-4.487,4.625-9.573,9.389-15.97,10.263     c-4.395,0.621-8.814-0.736-13.025-2.117c-1.081-0.345-2.186-0.713-3.268-1.082c-13.347-4.395-26.555-9.228-39.603-14.474     c-7.341-2.946-14.635-6.006-21.861-9.205c-10.839-4.786-50.004-16.591-50.947-30.398c-0.414-6.075,6.558-12.749,8.583-18.225     c3.429-9.205,4.74-19.353,7.732-28.764c6.167-19.284,14.589-37.854,25.036-55.204c10.654-17.719,23.426-34.149,37.992-48.784     c1.242-1.22,2.462-2.416,3.705-3.613c4.51-4.349,10.033-8.814,16.246-8.031c8.675,1.127,12.472,11.206,18.11,17.903     c1.657,1.956,3.521,3.682,5.569,5.155c7.111,5.201,16.292,7.686,25.129,9.227c11.391,1.979,23.241,2.923,33.505,8.192     c14.221,7.317,23.794,22.16,38.659,27.982C480.657,284.607,490.897,287.184,491.127,295.17z"/>
		</g>
		<g>
			<g>
				<path style="fill:#FFDBAF;" d="M375.932,236.283c-1.864,10.585-11.115,18.616-22.252,18.616c-12.495,0-22.62-10.125-22.62-22.62      c0-2.6,0.437-5.086,1.243-7.41c1.242-1.22,2.462-2.416,3.705-3.613c4.51-4.349,10.033-8.814,16.246-8.031      c8.675,1.127,12.472,11.206,18.11,17.903C372.02,233.084,373.884,234.81,375.932,236.283z"/>
			</g>
			<g>
				
					<ellipse transform="matrix(0.9239 -0.3827 0.3827 0.9239 -91.6429 158.9277)" style="fill:#FFDBAF;" cx="353.671" cy="309.824" rx="22.62" ry="22.62"/>
			</g>
			<g>
				
					<ellipse transform="matrix(0.1222 -0.9925 0.9925 0.1222 -85.3858 600.6606)" style="fill:#FFDBAF;" cx="296.877" cy="348.601" rx="22.62" ry="22.62"/>
			</g>
			<g>
				<path style="fill:#FFDBAF;" d="M438.863,286.617c0,12.492-10.127,22.62-22.62,22.62s-22.62-10.127-22.62-22.62      c0-12.493,10.127-22.62,22.62-22.62S438.863,274.124,438.863,286.617z"/>
			</g>
			<g>
				
					<ellipse transform="matrix(0.1891 -0.982 0.982 0.1891 -28.094 687.8578)" style="fill:#FFDBAF;" cx="402.436" cy="360.939" rx="22.62" ry="22.62"/>
			</g>
			<g>
				<path style="fill:#FFDBAF;" d="M371.007,414.99c0,5.707-2.117,10.953-5.638,14.935c-13.347-4.395-26.555-9.228-39.603-14.474      v-0.461c0-12.495,10.125-22.62,22.62-22.62C360.882,392.37,371.007,402.495,371.007,414.99z"/>
			</g>
			<g>
				<path style="fill:#FFDBAF;" d="M485.812,306.721c-8.307,12.472-16.637,24.967-25.175,37.302      c-5.039-4.142-8.261-10.424-8.261-17.442c0-12.496,10.125-22.62,22.62-22.62C478.908,303.96,482.613,304.949,485.812,306.721z"/>
			</g>
		</g>
		<g>
			<path style="fill:#241E1C;" d="M379.817,433.133c-0.136,0-0.273-0.054-0.374-0.161c-0.196-0.206-0.187-0.532,0.02-0.728     c50.401-47.773,79.37-89.89,109.775-142.359c0.144-0.247,0.461-0.33,0.704-0.188c0.246,0.143,0.33,0.458,0.188,0.704     c-30.452,52.55-59.467,94.733-109.959,142.592C380.072,433.086,379.944,433.133,379.817,433.133z"/>
		</g>
	</g>
	<g>
		<g>
			<g>
				<g>
					<g>
						<path style="fill:#703427;" d="M66.212,267.488c11.182,15.994,32.832,7.472,47.867,2.539        c11.508-2.361-21.037-20.53-25.007-21.226C75.444,241.443,57.12,251.578,66.212,267.488z"/>
					</g>
					<g>
						<path style="fill:#FFDBAF;" d="M63.981,258.748c17.902,1.387,35.678,4.709,52.886,9.887c0.038-0.3-0.043-0.688-0.244-1.28        c-17.115-5.111-34.75-8.369-52.56-9.758C64.004,257.965,63.97,258.357,63.981,258.748z"/>
					</g>
				</g>
				<g>
					<g>
						<path style="fill:#703427;" d="M147.692,259.914c-17.987,7.571-14.203,30.529-12.538,46.266        c-0.416,11.915,24.664-16.379,26.007-19.99C171.216,274.411,165.157,254.368,147.692,259.914z"/>
					</g>
					<g>
						<path style="fill:#FFDBAF;" d="M156.706,259.569c-5.117,17.212-12.1,33.892-20.777,49.628c0.285,0.099,0.682,0.103,1.303,0.03        c8.593-15.659,15.482-32.216,20.583-49.337C157.466,259.756,157.09,259.64,156.706,259.569z"/>
					</g>
				</g>
			</g>
			<g>
				<path style="fill:#FF5B44;" d="M82.564,232.453c-68.551,8.423-65.975-46.71-29.275-38.189      c-8.244-22.544,17.232-36.311,28.315-14.801c0.442-9.796,9.396-21.605,19.342-15.08c13.743,13.597-2.411,49.699-7.252,65.759      C91.092,230.934,85.254,232.053,82.564,232.453z"/>
			</g>
			<g>
				<path style="fill:#703427;" d="M163.033,396.115c-9.641-58.39-33.066-114.269-67.874-162.11      c0.431-5.066,1.867-10.123,2.118-15.19c-6.495,1.091-17.645,8.445-20.878,14.182c4.559,1.597,12.744,0.671,17.741,1.963      c34.626,47.635,57.93,103.26,67.529,161.382L163.033,396.115z"/>
			</g>
		</g>
		<g>
			<g>
				<path style="fill:#FF5B44;" d="M43.957,281.105c-9.536-16.479-38.312-15.648-35.584,7.154      C14.896,320.257,72.395,319.428,43.957,281.105z"/>
			</g>
			<g>
				<g>
					<g>
						<path style="fill:#703427;" d="M46.185,343.705c14.596,7.97,27.891-6.74,37.496-16.204c7.878-6.163-23.816-7.697-27.131-6.723        C43.361,320.328,33.216,335.009,46.185,343.705z"/>
					</g>
					<g>
						<path style="fill:#FFDBAF;" d="M41.17,337.88c14.19-5.726,29.016-9.927,44.112-12.497c-0.085-0.243-0.294-0.509-0.672-0.885        c-15,2.585-29.694,6.782-43.815,12.471C40.891,337.274,41.013,337.587,41.17,337.88z"/>
					</g>
				</g>
				<g>
					<g>
						<path style="fill:#703427;" d="M105.504,307.045c-10.859,12.595,0.73,28.684,7.964,40.064        c4.37,8.999,12.529-21.67,12.273-25.113C128.952,309.195,116.731,296.193,105.504,307.045z"/>
					</g>
					<g>
						<path style="fill:#FFDBAF;" d="M112.253,303.366c2.617,15.076,3.609,30.453,2.95,45.753c0.255-0.032,0.559-0.18,1.006-0.471        c0.624-15.208-0.393-30.456-2.988-45.457C112.904,303.22,112.573,303.274,112.253,303.366z"/>
					</g>
				</g>
			</g>
			<g>
				<path style="fill:#703427;" d="M55.604,307.217c-1.645-3.978-2.797-7.995-4.529-11.966c-1.886,5.182-5.721,10.832-8.659,16.01      c4.063-0.507,8.579-2.291,12.702-2.966c44.499,23.237,83.394,56.845,112.755,97.58l0.958-0.689      C139.35,364.283,100.29,330.54,55.604,307.217z"/>
			</g>
		</g>
	</g>
	<g>
		<g>
			<g>
				<path style="fill:#FF5B44;" d="M444.824,259.133c-13.985-9.892-31.171-25.295-30.665-44.136      c4.175-17.764,24.587-19.135,33.499-3.899c8.51-22.445,36.785-16.195,31.1,7.324c6.741-7.121,21.239-10.197,24.494,1.245      c1.501,19.274-34.331,36.017-48.497,44.998C452.269,263.561,447.121,260.589,444.824,259.133z"/>
			</g>
			<g>
				<path style="fill:#703427;" d="M476.127,322.504c-17.093-5.561-28.752,10.83-37.545,23.605      c7.574-25.243,12.538-51.268,14.751-77.562c3.639-3.551,8.035-6.438,11.54-10.108c-5.626-3.423-18.871-5.153-25.069-2.928      c2.405,4.189,9.2,8.842,12.136,13.087c-0.932,11.018-2.345,21.988-4.239,32.872c-1.397-9.122-7.04-23.746-8.646-25.716      c-5.497-14.479-25.987-18.797-29.515-0.816c-2.004,19.412,19.948,27.127,34.548,33.229c0.941,0.527,1.685,0.704,2.264,0.6      c-2.691,13.861-6.151,27.568-10.359,41.042c-0.558,0.77-0.746,1.423-0.617,1.972c-9.247,29.058-21.966,57.011-37.912,83.06      l1.182,0.724c15.854-25.899,28.525-53.675,37.783-82.544c5.493,3.202,29.814-0.359,32.699-1.832      C484.439,348.856,492.966,329.731,476.127,322.504z"/>
			</g>
			<g>
				<g>
					<path style="fill:#FFDBAF;" d="M413.569,266.868c12.635,12.759,23.907,26.898,33.538,42.07       c0.224-0.202,0.418-0.548,0.652-1.128c-9.602-15.061-20.812-29.059-33.375-41.76       C414.098,266.291,413.816,266.565,413.569,266.868z"/>
				</g>
				<g>
					<path style="fill:#FFDBAF;" d="M483.171,328.139c-15.129,9.672-31.321,17.722-48.178,23.95       c0.151,0.262,0.449,0.523,0.966,0.875c16.742-6.224,32.783-14.242,47.84-23.857       C483.624,328.777,483.416,328.444,483.171,328.139z"/>
				</g>
			</g>
		</g>
	</g>
	<g>
		<path style="fill:#241E1C;" d="M331.043,148.19c-6.969-7.143-16.499-12.002-21.443-20.671c-4.281-7.504-4.382-16.595-6.632-24.936    c-3.176-11.771-10.935-22.242-21.273-28.706c-10.202-6.379-22.811-8.784-34.649-6.638c-0.27-0.207-0.53-0.422-0.825-0.604    c-10.862-6.731-28.691-5.561-40.274-1.525c-14.247,4.964-25.906,15.975-31.018,29.295c-4.447,11.588-4.037,24.264-6.824,36.292    c-2.359,10.18-6.994,19.827-9.112,30.054c-4.226,20.409,2.411,42.513,17.396,57.939c14.985,15.427,37.968,23.814,60.242,21.986    c6.733-0.553,13.83-2.287,18.988-6.11c16.385,4.448,34.2,4.403,50.002-1.773c16.221-6.34,30.035-19.47,35.573-35.982    C346.733,180.297,343.205,160.656,331.043,148.19z"/>
	</g>
	<g>
		<g>
			<path style="fill:#FF9093;" d="M229.673,191.314l0.949,9.717c0.542,5.552,5.483,9.613,11.035,9.071l4.222-0.412     c5.552-0.543,9.613-5.483,9.071-11.035l-0.949-9.717L229.673,191.314z"/>
		</g>
		<g>
			<path style="fill:#F27E7E;" d="M229.673,191.314l0.9,9.215c2.231,1.484,4.981,2.163,7.669,2.43     c4.053,0.393,8.239-0.038,11.957-1.687c1.707-0.764,3.321-1.79,4.708-3.054l-0.907-9.282L229.673,191.314z"/>
		</g>
	</g>
	<g>
		<g>
			<path style="fill:#FF9093;" d="M306.28,120.385c-3.229-1.458-6.448-1.159-9.405,0.187c-0.387,1.372-0.802,2.729-1.101,4.04     c-0.73,3.211-2.519,11.173-6.777,5.22c-2.144-2.997-3.042-6.681-3.896-10.264c-0.092-0.385-0.182-0.772-0.27-1.16     c-9.41-2.974-18.284-7.652-26.014-13.789c-7.804-6.193-14.433-13.854-19.483-22.441c-5.15,10.769-12.171,20.646-20.686,29.014     c-9.101,8.944-19.899,16.145-31.628,21.168c-0.35,2.736-1.401,5.512-1.993,8.115c-0.731,3.212-2.519,11.173-6.778,5.221     c-2.143-2.997-3.042-6.68-3.896-10.264c-0.027-0.115-0.054-0.23-0.081-0.346c-2.51-0.097-4.97,0.561-7.176,2.286     c-4.005,3.132-5.627,8.839-4.266,13.737c1.361,4.898,5.451,8.838,10.276,10.441c3.851,1.279,8.082,1.119,11.953-0.136     c0.055,0.111,0.104,0.225,0.16,0.335c7.703,15.364,21.224,26.756,37.068,31.307c6.997,1.997,14.449,2.669,22.058,1.753     c8.004-0.964,15.418-3.589,21.989-7.517c14.012-8.369,24.124-22.661,27.75-39.328c4.202,0.402,8.532-0.429,12.098-2.666     c4.306-2.702,7.344-7.5,7.504-12.581C313.844,127.636,310.914,122.476,306.28,120.385z"/>
		</g>
		<g>
			<path style="fill:#241E1C;" d="M294.497,108.353c-0.583-3.271-1.559-6.449-3.08-9.372c-3.443-6.615-8.446-12.335-14.119-17.175     c-5.86-5-12.587-9.166-20.044-11.099c-4.63-1.201-9.589-1.406-14.296-0.499c-4.577-2.291-9.173-3.372-14.355-2.901     c-16.23,1.478-31.892,9.66-41.778,22.617c-7.371,9.661-11.296,21.721-10.953,33.725c-1.12,0.853-1.969,2.257-2.297,4.33     c-0.375,2.367,0.14,4.768,0.694,7.106c0.027,0.115,0.054,0.231,0.081,0.346c0.854,3.584,1.752,7.268,3.896,10.264     c4.259,5.952,6.047-2.009,6.778-5.221c0.592-2.603,1.643-5.379,1.993-8.115c11.729-5.022,22.526-12.224,31.628-21.168     c8.515-8.368,15.536-18.244,20.686-29.014c5.051,8.587,11.679,16.247,19.483,22.441c7.731,6.136,16.604,10.815,26.014,13.789     c0.088,0.388,0.178,0.776,0.27,1.16c0.854,3.583,1.753,7.268,3.896,10.264c4.259,5.952,6.047-2.01,6.777-5.22     c0.299-1.312,0.715-2.668,1.101-4.04c0.565-2.007,1.064-4.049,1.017-6.04C297.832,111.929,296.407,109.741,294.497,108.353z"/>
		</g>
	</g>
	<g>
		<g>
			<g>
				<g>
					<path style="fill:#F27E7E;" d="M256.044,170.231c0.864,7.175,4.783,13.244,10.287,17.062       c14.146-8.449,24.326-22.93,27.862-39.801c-4.742-3.366-10.705-5.037-16.93-4.288       C263.944,144.808,254.441,156.912,256.044,170.231z"/>
				</g>
				<g>
					<path style="fill:#F27E7E;" d="M185.217,161.749c7.703,15.363,21.224,26.756,37.068,31.308       c4.742-5.061,7.298-12.105,6.404-19.532c-1.603-13.319-13.697-22.823-27.026-21.218       C194.861,153.124,189.046,156.685,185.217,161.749z"/>
				</g>
			</g>
			<g>
				<g>
					<g>
						<path style="fill:#241E1C;" d="M240.524,167.889c-2.905,0-5.929-1.451-6.92-4.942c-0.068-0.239,0.071-0.489,0.311-0.557        c0.239-0.068,0.49,0.071,0.557,0.311c1.046,3.683,4.486,4.575,7.112,4.213c2.94-0.401,6.112-2.534,6.133-6.271        c0.001-0.249,0.203-0.449,0.451-0.449c0.001,0,0.002,0,0.002,0c0.25,0.001,0.45,0.204,0.449,0.453        c-0.023,4.276-3.6,6.709-6.914,7.162C241.317,167.862,240.921,167.889,240.524,167.889z"/>
					</g>
					<g>
						<g>
							<path style="fill:#FFFFFF;" d="M219.186,158.846c-6.579,4.693-15.285,4.211-21.271-0.628         c-1.213-0.98-2.321-2.141-3.276-3.479c-5.643-7.911-3.811-18.899,4.108-24.547c7.91-5.643,18.904-3.803,24.547,4.107         c0.956,1.339,1.692,2.764,2.224,4.23C228.144,145.765,225.757,154.159,219.186,158.846z"/>
						</g>
						<g>
							<path style="fill:#241E1C;" d="M219.186,158.846c-6.579,4.693-15.285,4.211-21.271-0.628         c-2.627-7.236-0.249-15.624,6.33-20.317c6.572-4.688,15.285-4.211,21.271,0.628         C228.144,145.765,225.757,154.159,219.186,158.846z"/>
						</g>
					</g>
					<g>
						<g>
							<path style="fill:#FFFFFF;" d="M275.312,152.337c-6.773,4.409-15.451,3.556-21.225-1.534         c-1.17-1.031-2.228-2.237-3.125-3.615c-5.301-8.144-3.002-19.044,5.149-24.35c8.144-5.301,19.049-2.995,24.35,5.15         c0.897,1.378,1.572,2.834,2.041,4.321C284.819,139.649,282.077,147.934,275.312,152.337z"/>
						</g>
						<g>
							<path style="fill:#241E1C;" d="M275.312,152.337c-6.773,4.409-15.451,3.556-21.225-1.534         c-2.316-7.341,0.417-15.62,7.19-20.029c6.765-4.403,15.451-3.556,21.225,1.534         C284.819,139.649,282.077,147.934,275.312,152.337z"/>
						</g>
					</g>
				</g>
			</g>
		</g>
	</g>
	<g>
		<g>
			<g>
				<path style="fill:#AFCBD3;" d="M337.035,365.346c0,0-8.616,47.786-66.978,47.786c-96.746,0-114.764-50.919-114.764-50.919      L337.035,365.346z"/>
			</g>
			<g>
				<g>
					<path style="fill:#241E1C;" d="M255.739,385.884c-0.289,0-0.576-0.035-0.855-0.105c-1.698-0.432-2.919-2.069-3.63-4.867       c-1.917-7.54-1.4-15.366-0.901-22.933c0.014-0.218,0.209-0.405,0.42-0.369c0.218,0.013,0.384,0.202,0.369,0.42       c-0.495,7.507-1.007,15.269,0.879,22.688c0.634,2.493,1.663,3.939,3.057,4.293c1.066,0.276,2.352-0.17,3.292-1.12       c0.926-0.938,1.466-2.225,1.873-3.362c2.485-6.93,2.4-14.407,2.318-21.638c-0.003-0.218,0.172-0.397,0.392-0.4       c0.001,0,0.003,0,0.004,0c0.217,0,0.393,0.174,0.396,0.392c0.079,6.96,0.168,14.849-2.364,21.913       c-0.436,1.217-1.022,2.602-2.056,3.65C258.022,385.371,256.857,385.884,255.739,385.884z"/>
				</g>
			</g>
		</g>
		<g>
			<path style="fill:#96976A;" d="M254.977,196.334c0,0-14.101,5.483-24.872,1.371c0,0-6.659-0.783-9.205,10.771     c-0.159,0.72-9.508,3.247-10.388,3.604c-8.386,3.407-16.443,7.747-23.751,13.1c-29.472,21.586-39.943,60.766-38.421,95.706     c0.291,6.683,1.009,13.346,2.1,19.945c0.358,2.163,3.316,21.304,4.853,21.381c0.001,0,63.061,3.133,63.061,3.133h118.681     c0,0,22.326-89.892-2.35-118.093c-24.676-28.201-69.72-38.973-69.72-38.973S263.789,196.921,254.977,196.334z"/>
		</g>
		<g>
			<g>
				<path style="fill:#241E1C;" d="M195.319,332.843c-0.004,0-0.009,0-0.015,0c-0.218-0.008-0.389-0.191-0.381-0.411l2.259-62.673      c0.008-0.213,0.183-0.381,0.396-0.381c0.004,0,0.009,0,0.015,0c0.218,0.008,0.389,0.191,0.381,0.41l-2.259,62.673      C195.707,332.675,195.532,332.843,195.319,332.843z"/>
			</g>
		</g>
		<g>
			<path style="fill:#96976A;" d="M323.924,407.937c0,0-70.723,36.177-79.968,24.579c-9.245-11.597,34.135-44.549,66.408-57.672     L323.924,407.937z"/>
		</g>
		<g>
			<path style="fill:#84845B;" d="M323.924,407.937c0,0-70.723,36.177-79.968,24.579c-9.245-11.597,34.135-44.549,66.408-57.672     L323.924,407.937z"/>
		</g>
		<g>
			<path style="fill:#96976A;" d="M264.475,401.479c0,0,74.91,26.439,72.854,41.127c-2.056,14.688-55.815,5.875-87.542-8.519     L264.475,401.479z"/>
		</g>
		<g>
			<g>
				<g>
					<path style="fill:#FFF1E3;" d="M419.288,281.036l6.463-9.401c0,0-51.702-24.382-90.479,4.7c0,0-25.557-27.908-89.598-34.958       l-9.694,19.682l85.192,41.714L419.288,281.036z"/>
				</g>
				<g>
					<path style="fill:#FF5B44;" d="M425.164,277.217l-71.287,77.162l-71.678,17.626c0,0-36.818-22.718-84.995-31.727l42.302-93.221       c0,0,63.061,3.133,93.613,34.468C333.118,281.525,387.954,251.757,425.164,277.217z"/>
				</g>
				<g>
					<g>
						<path style="fill:#241E1C;" d="M279.163,369.266c-0.071,0-0.143-0.019-0.207-0.059c-0.187-0.114-0.244-0.358-0.129-0.544        l53.954-87.346c0.117-0.186,0.359-0.242,0.544-0.129c0.187,0.115,0.244,0.358,0.129,0.544L279.5,369.078        C279.425,369.199,279.295,369.266,279.163,369.266z"/>
					</g>
				</g>
				<g>
					<g>
						<path style="fill:#FFF1E3;" d="M244.51,273.058c-1.065,1.846-2.887,3.833-4.941,3.262c-2.024-0.562-2.585-3.159-2.51-5.258        c0.182-5.063,1.935-10.059,4.957-14.126c2.84-3.821,6.866-3.153,7.053,1.782C249.25,263.453,246.818,269.058,244.51,273.058z"/>
					</g>
					<g>
						<path style="fill:#FFF1E3;" d="M230.889,283.375c-1.828,1.644-1.977,4.459-0.333,6.287c1.644,1.828,4.459,1.977,6.287,0.333        c1.828-1.644,1.977-4.459,0.333-6.287C235.532,281.88,232.717,281.731,230.889,283.375z"/>
					</g>
				</g>
			</g>
			<g>
				<g>
					<path style="fill:#FF9093;" d="M222.271,356.533c-8.342,2.796-19.007,2.622-26.576-1.864       c-7.569-4.486-12.654-13.336-11.649-22.077c0.769-6.69,4.768-12.541,9.024-17.76c8.004-9.813,17.375-18.51,27.757-25.759       c1.715-1.198,3.819-2.408,5.783-1.687c1.716,0.63,2.637,2.603,2.601,4.431c-0.035,1.828-0.824,3.547-1.623,5.191       c-3.314,6.818-8.353,13.551-14.081,19.573c8.494-0.945,20.665-1.935,29.159-2.881c2.695-0.3,5.855-0.43,7.63,1.619       c1.805,2.083,1.083,5.495-0.819,7.49c-1.902,1.995-4.634,2.924-7.253,3.784c2.783,0.057,5.805-0.31,8.289,0.946       c2.484,1.256,4.424,4.054,3.76,6.757c-0.413,1.678-1.744,3.014-3.27,3.825c-1.526,0.812-3.245,1.172-4.941,1.501       c-5.307,1.028-15.517,1.781-22.861,3.397c0,0,22.375,1.175,22.766,5.288C246.359,352.42,222.271,356.533,222.271,356.533z"/>
				</g>
				<g>
					<g>
						<path style="fill:#241E1C;" d="M216.298,331.225c-0.192,0-0.361-0.14-0.392-0.337c-0.032-0.215,0.116-0.417,0.333-0.451        l27.027-4.114c0.228-0.026,0.417,0.117,0.451,0.333c0.032,0.215-0.116,0.417-0.332,0.451l-27.027,4.114        C216.337,331.224,216.316,331.225,216.298,331.225z"/>
					</g>
				</g>
			</g>
		</g>
		<g>
			<g>
				<path style="fill:#AFCBD3;" d="M250.472,436.632l19.193-37.993c0,0-71.831-62.297-120.639-69.328      c-46.219-6.659-57.76,6.797-58.753,35.251c-1.175,33.685,66.158,58.134,92.046,63.453      C210.912,433.891,250.472,436.632,250.472,436.632l19.193-37.993"/>
			</g>
			<g>
				<g>
					<path style="fill:#241E1C;" d="M250.076,437.563c-0.059,0-0.12-0.013-0.176-0.042c-0.195-0.097-0.275-0.334-0.178-0.53       l19.24-38.806c-22.622-20.234-46.739-36.765-71.688-49.14c-0.195-0.097-0.275-0.334-0.178-0.53       c0.098-0.195,0.337-0.275,0.53-0.178c25.094,12.446,49.347,29.087,72.087,49.459c0.132,0.118,0.17,0.311,0.09,0.471       l-19.375,39.077C250.361,437.482,250.221,437.563,250.076,437.563z"/>
				</g>
			</g>
		</g>
		<g>
			<g>
				<path style="fill:#AFCBD3;" d="M310.792,420.965l-42.694-45.435c0,0,88.031-120.345,134.74-74.029      C457.767,355.97,310.792,420.965,310.792,420.965z"/>
			</g>
			<g>
				<g>
					<path style="fill:#241E1C;" d="M310.792,421.361c-0.105,0-0.21-0.042-0.288-0.125L267.809,375.8       c-0.133-0.141-0.144-0.359-0.024-0.513c0.399-0.514,40.198-51.536,65.533-65.514c0.191-0.106,0.432-0.036,0.537,0.155       c0.106,0.191,0.036,0.432-0.155,0.537c-24.248,13.379-61.932,61.026-65.082,65.04l42.461,45.19       c0.149,0.159,0.143,0.409-0.018,0.559C310.987,421.325,310.888,421.361,310.792,421.361z"/>
				</g>
			</g>
		</g>
	</g>
	<g>
		<g>
			<g>
				<path style="fill:#FFF1E3;" d="M403.135,193.632c2.459-4.777,6.787-8.301,12.018-9.423c0.721-0.154,0.979-1.034,0.438-1.535      c-4.334-4.015-7.483-9.3-8.966-15.018c-0.214-0.824-1.338-0.893-1.684-0.116c-2.442,5.479-7.102,9.676-12.635,12.287      c-0.601,0.283-0.687,1.104-0.16,1.509c4.034,3.105,7.617,7.441,9.362,12.199C401.775,194.261,402.781,194.32,403.135,193.632z"/>
			</g>
			<g>
				<path style="fill:#FFF1E3;" d="M372.878,163.374c2.459-4.777,6.787-8.301,12.018-9.423c0.721-0.154,0.979-1.034,0.438-1.535      c-4.334-4.015-7.482-9.299-8.967-15.018c-0.214-0.823-1.338-0.893-1.684-0.116c-2.442,5.479-7.102,9.675-12.635,12.286      c-0.601,0.284-0.687,1.104-0.161,1.509c4.034,3.105,7.617,7.44,9.363,12.199C371.517,164.003,372.524,164.062,372.878,163.374z"/>
			</g>
			<g>
				<path style="fill:#FFF1E3;" d="M372.701,208.062c3.354-6.516,9.258-11.324,16.394-12.854c0.983-0.211,1.336-1.411,0.598-2.094      c-5.913-5.477-10.207-12.685-12.231-20.485c-0.291-1.123-1.825-1.218-2.297-0.158c-3.331,7.474-9.688,13.198-17.235,16.76      c-0.819,0.387-0.937,1.505-0.219,2.058c5.503,4.236,10.39,10.15,12.771,16.641C370.845,208.92,372.218,209,372.701,208.062z"/>
			</g>
		</g>
		<g>
			<path style="fill:#FFF1E3;" d="M135.359,222.448c2.459-4.777,6.787-8.301,12.019-9.423c0.721-0.155,0.979-1.034,0.438-1.535     c-4.335-4.015-7.483-9.299-8.966-15.017c-0.214-0.823-1.338-0.893-1.684-0.116c-2.442,5.479-7.102,9.676-12.635,12.286     c-0.601,0.284-0.687,1.104-0.161,1.509c4.034,3.105,7.617,7.441,9.363,12.2C133.999,223.077,135.005,223.135,135.359,222.448z"/>
		</g>
		<g>
			<path style="fill:#FFF1E3;" d="M62.834,408.933c-1.533-5.149-0.851-10.689,2.146-15.121c0.413-0.611-0.01-1.424-0.747-1.41     c-5.908,0.104-11.838-1.529-16.868-4.627c-0.725-0.446-1.583,0.282-1.296,1.083c2.032,5.644,1.576,11.898-0.608,17.613     c-0.237,0.621,0.268,1.272,0.929,1.2c5.061-0.553,10.648,0.094,15.202,2.319C62.288,410.329,63.054,409.674,62.834,408.933z"/>
		</g>
		<g>
			<path style="fill:#FFF1E3;" d="M459.464,411.71c3.547-4.036,8.602-6.402,13.949-6.217c0.737,0.025,1.201-0.765,0.798-1.383     c-3.228-4.948-4.996-10.84-5.045-16.747c-0.007-0.851-1.08-1.191-1.605-0.522c-3.702,4.72-9.242,7.658-15.244,8.845     c-0.651,0.129-0.935,0.903-0.523,1.424c3.158,3.993,5.579,9.07,6.115,14.11C457.991,411.99,458.953,412.291,459.464,411.71z"/>
		</g>
	</g>
	<g>
		<path style="fill:#241E1C;" d="M180.846,151.615c-1.62-3.664-4.775-6.032-8.484-6.435c1.639-1.956,4.352-3.03,6.863-2.508    c0.223,0.042,0.423-0.094,0.467-0.308c0.044-0.214-0.094-0.423-0.308-0.467c-3.472-0.716-7.315,1.268-8.744,4.515    c-1.428,3.246-0.298,7.418,2.577,9.498c0.07,0.051,0.151,0.075,0.231,0.075c0.123,0,0.244-0.056,0.321-0.164    c0.128-0.176,0.089-0.424-0.089-0.552c-2.583-1.87-3.6-5.621-2.315-8.539c0.132-0.3,0.3-0.579,0.475-0.854    c0.028,0.009,0.045,0.036,0.076,0.038c3.582,0.249,6.65,2.5,8.206,6.022c0.066,0.148,0.21,0.236,0.362,0.236    c0.054,0,0.108-0.011,0.16-0.034C180.843,152.048,180.934,151.815,180.846,151.615z"/>
	</g>
	<g>
		<path style="fill:#241E1C;" d="M304.98,130.008c-2.159-2.814-6.358-3.831-9.566-2.312c-0.197,0.094-0.281,0.33-0.189,0.528    c0.096,0.198,0.329,0.283,0.528,0.188c2.323-1.1,5.208-0.701,7.262,0.808c-3.508,1.272-6.011,4.322-6.714,8.264    c-0.039,0.215,0.105,0.421,0.319,0.459c0.024,0.004,0.047,0.007,0.07,0.007c0.188,0,0.355-0.135,0.389-0.326    c0.677-3.79,3.123-6.704,6.545-7.797c0.029-0.009,0.039-0.039,0.064-0.054c0.235,0.225,0.465,0.456,0.664,0.716    c1.94,2.531,1.841,6.415-0.225,8.843c-0.141,0.165-0.121,0.416,0.046,0.557c0.074,0.063,0.166,0.094,0.256,0.094    c0.112,0,0.223-0.047,0.301-0.14C307.029,137.144,307.139,132.823,304.98,130.008z"/>
	</g>
</g>















</svg>
