<?xml version="1.0" encoding="UTF-8"?>
<!-- Generator: Adobe Illustrator 25.0.0, SVG Export Plug-In . SVG Version: 6.00 Build 0)  -->
<svg xmlns="http://www.w3.org/2000/svg" xmlns:xlink="http://www.w3.org/1999/xlink" version="1.1" id="Capa_1" x="0px" y="0px" viewBox="0 0 512 512" style="enable-background:new 0 0 512 512;" xml:space="preserve" width="512" height="512">
<style type="text/css">
	.st0{fill:#FFFFFF;}
	.st1{fill:#96976A;}
	.st2{fill:#FFDBAF;}
	.st3{fill:#FF5B44;}
	.st4{fill:#703427;}
	.st5{fill:#DFA76D;}
	.st6{fill:#602B23;}
	.st7{fill:#FFF1E3;}
	.st8{fill:#D18C59;}
	.st9{fill:#FFAAAD;}
	.st10{fill:#F27E7E;}
	.st11{fill:#F99BA2;}
	.st12{fill:#241E1C;}
	.st13{fill:#F4C3BA;}
	.st14{fill:#FFFAF3;}
	.st15{fill:#CF6B58;}
</style>
<g>
	<path class="st0" d="M392.461,512c-6.048,0-11.917-1.083-17.445-3.217c-0.901-0.33-1.835-0.722-2.783-1.166   c-7.464-3.353-13.97-8.597-18.957-15.265h-30.569c-5.99,8.719-10.932,13.306-15.771,14.71c-5.659,1.643-17.877,2.379-27.476,2.379   c-24.689,0-29.14-3.898-31.372-7.552c-2.124-3.476-2.352-6.647-1.422-9.537H214.74c-2.571,4.902-6.084,6.68-9.133,7.167   c-0.812,0.253-1.666,0.384-2.535,0.384c-1.328,0-2.635-0.305-3.821-0.887c-1.531,1.306-3.508,2.082-5.627,2.082   c-0.6,0-1.195-0.061-1.77-0.181c-0.378-0.077-0.745-0.177-1.099-0.3c-2.962,0.107-7.417,0.159-13.307,0.159   c-8.569,0-19.974-0.113-33.902-0.34c-11.075-0.188-20.221-2.617-27.261-7.229c-2.213,0.291-4.458,0.438-6.708,0.438   c-3.882,0-7.771-0.435-11.577-1.292H46.593c-1.343,0-2.624-0.342-3.747-0.954c-13.211-2.605-23.294-13.692-24.427-27.332   l-8.169-97.409l-0.107-1.194c-0.198-2.193,0.536-4.366,2.02-5.991c1.483-1.622,3.58-2.548,5.779-2.55   c0.011-3.868,0.09-7.71,0.237-11.49l-0.426-1.772c-1.245-5.209-2.422-10.129-4.226-16.27c-5.089-17.278-7.969-32.815-8.801-47.485   c-0.027-0.273-0.04-0.519-0.045-0.731c-0.14-2.579-0.145-4.727-0.018-6.728c0.004-0.094,0.009-0.189,0.015-0.273   c0.357-4.657,1.57-8.539,3.707-11.87c3.26-5.055,9.148-8.31,15.009-8.31c3.465,0,6.668,1.119,9.261,3.236   c1.17,0.957,2.11,2.013,2.878,3.116c-1.151-20.61,0.325-41.296,4.395-61.563c0,0,1.129-5.352,1.335-6.254   c1.566-6.788,3.654-14.584,8.64-21.278c5.187-6.952,12.872-11.225,20.582-11.454c0.306-0.017,2.73,0.043,3.659,0.175   c0.009,0.001,0.218,0.027,0.314,0.041c4.935,0.742,9.586,3.196,13.454,7.099c0.823,0.823,1.565,1.666,2.244,2.552   c1.175,1.478,2.221,3.098,3.108,4.815c2.703,5.263,3.879,10.88,4.578,16.327c0.68-0.505,11.683-8.639,16.311-12.35   c-1.253-8.588-2.21-17.257-2.858-25.864c-0.696-0.616-1.42-1.237-2.162-1.875c-1.321-1.135-2.681-2.303-4.024-3.559   c-9.916-6.064-19.404-13.034-28.214-20.727c-3.864-3.374-15.618-13.639-12.476-26.754c1.545-6.445,6.861-11.484,13.544-12.836   c1.291-0.261,2.629-0.393,3.978-0.393c2.162,0,4.361,0.334,6.537,0.976c0.691-2.024,1.636-3.921,2.801-5.611   c4.149-6.01,10.789-9.597,17.765-9.597c0.542,0,1.088,0.022,1.635,0.066c6.097,0.496,11.765,3.764,16.364,9.268   c3.959-3.2,8.675-5.583,14.271-5.583c0.828,0,1.667,0.055,2.491,0.164c7.45,0.982,14.22,5.597,18.241,11.84   c8.033-17.874,19.915-34.244,34.734-47.832c0.427-1.542,1.275-2.967,2.486-4.088c3.328-3.081,5.793-7.212,6.939-11.627   c1.001-3.853,4.481-6.545,8.46-6.545c2.878,0,5.537,1.414,7.161,3.712c6.921-4.068,14.091-7.519,21.402-10.293   C259.49,3.129,276.783,0,294.628,0c23.212,0,46.133,5.428,66.281,15.7c33.754,17.206,61.582,48.382,79.024,88.313   c1.445-0.352,2.908-0.541,4.365-0.556l0.233-0.001c1.097,0,2.199,0.111,3.279,0.329c0.812,0.145,1.644,0.364,2.475,0.648   c5.655,1.962,10.142,6.71,12.341,13.035c1.676,4.791,1.829,9.587,1.745,14.052c-0.003,0.102-0.094,3.368-0.094,3.368   c-0.488,12.191-2.464,24.349-5.88,36.263c2.724,18.889,3.991,39.336,3.837,62.118c0.963-0.793,1.927-1.577,2.891-2.346   c4.856-3.868,10.15-7.769,16.824-9.31c1.744-0.408,3.565-0.616,5.394-0.616c4.858,0,9.47,1.479,12.988,4.166   c0.908,0.682,1.787,1.508,2.57,2.422c0.543,0.606,1.061,1.284,1.542,2.018c3.259,5.042,3.875,11.546,1.715,17.883   c-1.625,4.802-4.454,8.677-7.268,12.148c-0.068,0.083-0.323,0.387-0.323,0.387c-0.135,0.167-0.272,0.333-0.412,0.495l-1.415,1.718   c-8.444,9.967-18.177,18.835-28.999,26.447c-2.296,1.615-4.694,3.208-7.13,4.737c-0.143,0.1-0.29,0.193-0.437,0.281l-1.093,0.654   c-4.462,48.693-13.522,95.678-26.957,139.782c2.73,3.726,4.888,7.755,6.44,12.025c0.356,0.948,0.647,1.828,0.888,2.691   c1.375,4.546,2.073,9.292,2.073,14.107c0,18.417-10.166,35.105-26.531,43.552c-0.871,0.467-1.7,0.869-2.511,1.213   C406.192,510.561,399.456,512,392.461,512z"/>
	<path class="st1" d="M47.038,484.08l358.914,0.436c30.631-74.734,45.685-156.475,48.177-237.204   c1.329-43.063-1.603-86.923-16.263-127.435s-42.131-77.627-80.514-97.194c-34.094-17.38-75.564-19.635-111.342-6.054   s-65.305,42.786-79.277,78.413c-8.121,20.706-11.34,43.606-23.491,62.235c-14.792,22.679-40.398,35.483-60.558,53.558   c-36.474,32.703-54.121,82.579-56.549,131.507C23.706,391.271,33.4,437.028,47.038,484.08z"/>
	<path class="st2" d="M157.631,146.336c-12.36,12.085-23.431,25.519-32.936,39.973c-0.213-0.198-0.394-0.535-0.611-1.096   c9.477-14.347,20.485-27.647,32.776-39.677C157.13,145.773,157.398,146.041,157.631,146.336z"/>
	<path class="st2" d="M89.681,204.23c14.412,9.545,29.872,17.547,46.001,23.804c-0.149,0.249-0.44,0.497-0.943,0.827   c-16.018-6.252-31.334-14.219-45.677-23.709C89.235,204.837,89.441,204.519,89.681,204.23z"/>
	<path class="st3" d="M127.666,138.404c1.694-1.036,3.28-2.237,4.888-3.408c8.367-6.09,15.598-13.861,21.07-23.005   c2.738-4.575,5.124-9.895,4.244-15.595c-1.154-7.481-8.113-13.574-15.085-14.494c-6.972-0.919-12.717,4.889-17.097,10.22   c-3.057-6.68-8.5-13.447-15.639-14.027c-4.918-0.399-9.564,2.184-12.314,6.169c-1.305,1.891-2.155,4.13-2.54,6.517   c-0.242,1.496-0.854,6.62,0.444,7.907c-4.33-4.29-10.559-7.289-16.119-6.165c-3.498,0.707-6.594,3.297-7.477,6.981   c-1.823,7.605,4.786,14.465,10.01,19.026c8.218,7.175,17.216,13.239,26.328,18.893c3.257,2.021,6.296,4.338,9.644,6.149   C120.431,142.551,125.433,139.771,127.666,138.404z"/>
	<path class="st4" d="M170.458,308.308c-14.844-25.155-26.587-52.069-35.022-79.983c0.102-0.1,0.188-0.197,0.245-0.292   c0.401-0.611-0.201-1.174-1.043-2.353c-3.785-12.873-6.858-25.955-9.214-39.168c0.5-0.092,1.172-0.489,2.188-0.897   c4.282-1.715,8.551-3.447,12.768-5.279c5.514-2.404,10.934-5.354,15.045-9.751s6.766-10.462,5.958-16.418   c-0.398-2.898-1.753-5.689-3.753-7.831c-0.232-0.295-0.5-0.563-0.771-0.8c-1.97-1.855-4.456-3.078-7.156-3.287   c-3.64-0.257-7.258,1.299-10.069,3.629c-2.798,2.347-4.879,5.425-6.673,8.615c-4.198,7.395-6.992,15.57-8.284,23.97   c-0.07,0.478-0.196,1.078-0.328,1.721c-1.736-10.827-2.991-21.734-3.742-32.684c2.854-4.067,9.549-8.477,11.948-12.503   c-5.932-2.238-18.707-0.779-24.176,2.428c3.34,3.612,7.562,6.474,11.024,9.983c1.733,25.43,6.151,50.638,13.093,75.128   c-1.956-2.885-3.925-5.757-5.949-8.584c-3.509-4.885-7.532-9.565-12.695-12.661c-5.162-3.096-11.65-4.417-17.303-2.376   c-2.749,0.998-5.193,2.909-6.868,5.314c-0.239,0.29-0.445,0.608-0.62,0.922c-1.4,2.316-2.074,5.004-1.711,7.687   c0.514,3.613,2.796,6.823,5.664,9.082c2.882,2.242,6.328,3.63,9.824,4.715c8.112,2.551,16.692,3.564,25.176,3.063   c1.674-0.111,4.848,0.131,6.386-0.669c8.456,27.877,20.2,54.757,35.03,79.886L170.458,308.308z"/>
	<path class="st3" d="M186.227,150.471c-0.366-5.823,0.602-11.896,3.799-16.777c3.197-4.881,8.885-8.341,14.701-7.874   c5.017,0.403,9.545,3.666,12.19,7.948c5.105,8.262,3.392,19.263-1.358,27.734c-2.308,4.115-5.329,8.307-9.563,10.281   c-0.418,0.195-0.998,0.075-1.437,0.231c-7.617,2.703-12.15-1.093-14.847-6.701C187.505,160.724,186.506,154.921,186.227,150.471z"/>
	<g>
		<path class="st4" d="M223.258,198.064c-1.64,4.851-5.965,8.475-10.769,10.273c-4.804,1.798-10.06,1.995-15.179,1.74    c-3.914-0.199-7.828-0.495-11.746-0.81c-1.469-0.116-2.277,0.073-2.49-0.576c-0.087-0.232-0.098-0.557-0.051-1.068    c0.021-0.082,0.025-0.159,0.046-0.241c0.234-1.455,2.137-3.492,2.965-4.686c4.17-5.922,9.4-11.103,15.407-15.156    c2.579-1.755,5.333-3.315,8.358-4.046c3.029-0.712,6.38-0.53,9.061,1.046c1.982,1.183,3.415,3.059,4.216,5.221    c0.117,0.283,0.22,0.589,0.286,0.903C224.076,193.058,224.052,195.702,223.258,198.064z"/>
	</g>
	<g>
		<path class="st2" d="M223.362,190.665c-14.014,4.539-27.555,10.598-40.288,18.027c-0.087-0.232-0.098-0.557-0.051-1.068    c12.671-7.359,26.113-13.338,40.053-17.862C223.193,190.046,223.296,190.352,223.362,190.665z"/>
	</g>
	<g>
		<path class="st4" d="M156.814,207.647c5.088,0.584,9.539,4.051,12.306,8.371c2.767,4.319,4.064,9.416,4.891,14.474    c0.627,3.868,1.16,7.758,1.676,11.654c0.196,1.46,0.55,2.211-0.04,2.555c-0.208,0.134-0.524,0.213-1.033,0.274    c-0.085-0.004-0.161,0.01-0.245,0.006c-1.472,0.077-3.863-1.356-5.205-1.914c-6.665-2.833-12.83-6.858-18.055-11.879    c-2.257-2.153-4.361-4.518-5.711-7.322c-1.333-2.811-1.858-6.126-0.881-9.078c0.74-2.186,2.273-3.981,4.219-5.219    c0.253-0.174,0.53-0.339,0.823-0.469C151.748,207.9,154.337,207.367,156.814,207.647z"/>
	</g>
	<g>
		<path class="st2" d="M149.558,209.1c7.382,12.747,16.15,24.713,26.089,35.601c-0.208,0.134-0.524,0.213-1.033,0.274    c-9.857-10.842-18.527-22.728-25.878-35.406C148.988,209.395,149.266,209.23,149.558,209.1z"/>
	</g>
	<path class="st4" d="M194.699,177.493c3.473-2.076,7.956-3.555,11.297-5.71c-5.368-2.008-11.69-3.811-16.284-6.471   c1.183,4.032,2.831,7.733,4.078,11.72c-18.561,44.801-26.539,93.812-23.038,142.192l1.015-0.074   C168.279,270.955,176.22,222.129,194.699,177.493z"/>
	<path class="st4" d="M331.388,447.147c-0.093,0-0.188-0.025-0.272-0.078c-0.24-0.15-0.312-0.467-0.163-0.707   c45.318-72.427,77.083-155.188,91.864-239.339c0.05-0.278,0.311-0.459,0.594-0.416c0.278,0.05,0.464,0.315,0.416,0.594   c-14.803,84.278-46.617,167.166-92.004,239.704C331.724,447.062,331.557,447.147,331.388,447.147z"/>
	<path class="st5" d="M420.064,214.399c0.019,2.713-0.369,5.428-0.089,6.712l-0.001,0.025c0.177,0.872,0.672,1.078,1.866,0.16   c0.612-0.496,1.447-1.335,2.506-2.54c3.994-4.582,7.879-8.587,10.971-13.78c4.248-7.178,7.933-14.692,10.973-22.448l0.002-0.025   c0.417-1.065,0.808-2.107,1.225-3.173l0.001-0.025c0.967-2.656,1.858-5.315,2.674-8.005c3.611-11.879,5.754-24.224,6.251-36.615   c0.021-0.785,0.041-1.569,0.061-2.328c0.019-0.328,0.013-0.658,0.032-0.987c0.072-3.823-0.054-7.734-1.313-11.331   c-1.258-3.622-3.877-6.944-7.479-8.195c-0.447-0.153-0.921-0.282-1.398-0.361c-0.651-0.139-1.306-0.203-1.966-0.191   c-4.033,0.043-8.074,2.391-10.671,5.61c-3.333,4.114-4.759,9.404-6,14.578c-1.344,5.624-2.461,11.287-3.378,16.987   c-0.239,1.481-0.478,2.963-0.691,4.446C420.627,173.218,419.871,193.908,420.064,214.399z"/>
	<path class="st4" d="M434.067,153.221l0.002-0.025c6.958-6.715,14.469-12.916,22.376-18.51c0.021-0.785,0.041-1.569,0.061-2.328   c-7.608,5.257-14.819,11.095-21.577,17.417c3.36-13.212,7.18-26.067,11.419-38.289c-0.651-0.14-1.306-0.203-1.966-0.191   c-4.516,13.043-8.541,26.798-12.031,40.94c-0.137,0.169-0.201,0.394-0.163,0.624c-1.029,4.147-2.009,8.323-2.941,12.552   l-4.913-16.941c-0.239,1.481-0.478,2.963-0.691,4.446l4.767,16.4c-3.636,17.074-6.509,34.521-8.434,51.797l-0.001,0.025   c0.177,0.872,0.672,1.079,1.866,0.16c0.979-8.916,2.238-17.865,3.725-26.801l0.002-0.026c7.219-3.379,14.171-7.382,20.724-11.94   l0.002-0.025c0.417-1.065,0.808-2.107,1.225-3.173c-6.778,4.926-14.001,9.243-21.563,12.855c1.239-7.303,2.63-14.598,4.142-21.809   c0.293-0.236,0.417-0.635,0.312-0.996l-0.042-0.154l0.002-0.025C431.52,163.819,432.744,158.492,434.067,153.221z"/>
	<path class="st5" d="M412.965,297.707c-1.655,2.15-3.63,4.052-4.2,5.236l-0.017,0.019c-0.397,0.797-0.134,1.264,1.373,1.275   c0.788-0.015,1.962-0.162,3.538-0.46c5.968-1.154,11.495-1.921,17.127-4.111c7.765-3.045,15.294-6.701,22.462-10.944l0.016-0.019   c0.984-0.583,1.934-1.164,2.918-1.747l0.017-0.019c2.396-1.498,4.735-3.047,7.034-4.665c10.155-7.142,19.441-15.555,27.457-25.017   c0.499-0.606,0.998-1.211,1.48-1.798c0.217-0.247,0.415-0.511,0.633-0.758c2.409-2.97,4.716-6.13,5.937-9.74   c1.237-3.629,1.217-7.859-0.853-11.061c-0.259-0.396-0.553-0.789-0.88-1.145c-0.427-0.51-0.904-0.964-1.432-1.361   c-3.205-2.448-7.836-3.083-11.863-2.143c-5.159,1.192-9.537,4.485-13.699,7.8c-4.52,3.607-8.885,7.383-13.115,11.312   c-1.1,1.021-2.2,2.042-3.281,3.079C438.748,265.591,425.422,281.435,412.965,297.707z"/>
	<path class="st4" d="M464.447,255.909c10.777-8.348,21.699-16.131,32.561-23.157c-0.427-0.51-0.904-0.964-1.432-1.361   c-11.585,7.503-23.222,15.87-34.674,24.87c-0.212,0.049-0.4,0.187-0.513,0.392c-2.822,2.213-6.125,4.845-10.041,8.085l6.551-16.378   c-1.1,1.021-2.2,2.042-3.281,3.079l-6.333,15.862c-13.372,11.221-26.372,23.208-38.519,35.641l-0.016,0.019   c-0.397,0.797-0.134,1.264,1.373,1.275c6.257-6.426,12.757-12.706,19.427-18.836l0.017-0.018c7.77,1.778,15.713,2.9,23.683,3.339   l0.017-0.019c0.984-0.583,1.933-1.164,2.918-1.747c-7.444-0.256-15.834-1.133-24.908-3.135c5.47-4.995,11.055-9.889,16.684-14.643   c0.376-0.006,0.719-0.243,0.859-0.593l0.062-0.147l0.017-0.019c4.22-3.534,8.463-6.98,12.749-10.321l0.017-0.019   c9.616-1.011,19.353-1.278,29.028-0.823c0.499-0.606,0.998-1.211,1.48-1.798C482.94,254.919,473.663,255.084,464.447,255.909z"/>
	<path class="st4" d="M389.667,329.812c-0.083,0-0.167-0.02-0.245-0.063c-0.249-0.136-0.341-0.448-0.205-0.695   c6.204-11.366,14.284-21.46,24.018-30.002c0.211-0.186,0.536-0.168,0.723,0.047c0.186,0.213,0.166,0.537-0.047,0.723   c-9.644,8.463-17.649,18.462-23.794,29.721C390.024,329.715,389.848,329.812,389.667,329.812z"/>
	<path class="st5" d="M395.403,252.327c0.539,2.659,1.476,5.237,1.466,6.55l0.007,0.024c0.006,0.89-0.436,1.194-1.794,0.54   c-0.701-0.36-1.69-1.009-2.974-1.971c-4.85-3.664-9.475-6.786-13.568-11.232c-5.632-6.152-10.781-12.75-15.349-19.716l-0.007-0.024   c-0.627-0.957-1.223-1.896-1.851-2.853l-0.006-0.024c-1.492-2.4-2.91-4.82-4.261-7.285c-5.974-10.884-10.606-22.526-13.638-34.55   c-0.181-0.764-0.363-1.527-0.537-2.266c-0.086-0.317-0.148-0.642-0.234-0.959c-0.856-3.727-1.536-7.58-1.042-11.359   c0.487-3.803,2.368-7.592,5.636-9.556c0.407-0.241,0.844-0.465,1.295-0.64c0.609-0.27,1.237-0.467,1.885-0.591   c3.956-0.786,8.393,0.682,11.595,3.299c4.107,3.341,6.589,8.226,8.866,13.035c2.47,5.229,4.727,10.541,6.795,15.931   c0.538,1.401,1.076,2.802,1.59,4.209C386.394,212.139,391.383,232.232,395.403,252.327z"/>
	<path class="st4" d="M396.869,258.877c-5.432-16.512-11.827-32.998-18.892-48.96l1.298-17.029c-0.514-1.407-1.052-2.808-1.59-4.209   l-1.329,17.589c-1.781-3.948-3.598-7.833-5.456-11.68c-0.011-0.233-0.12-0.44-0.288-0.578   c-6.32-13.123-13.085-25.759-20.183-37.596c-0.648,0.124-1.276,0.321-1.885,0.591c6.659,11.091,13.038,22.887,19.04,35.128   c-7.912-4.798-16.168-9.031-24.694-12.613c0.175,0.739,0.356,1.502,0.538,2.266c8.887,3.852,17.512,8.378,25.701,13.52l0.007,0.024   c2.377,4.886,4.669,9.848,6.902,14.879l0.007,0.024l-0.009,0.16c-0.029,0.375,0.175,0.739,0.51,0.911   c2.961,6.747,5.82,13.6,8.533,20.493c-8.143-1.982-16.099-4.723-23.744-8.152c0.627,0.957,1.224,1.896,1.851,2.854l0.007,0.024   c7.35,3.116,14.975,5.605,22.734,7.43l0.007,0.025c3.29,8.44,6.361,16.941,9.15,25.465c1.358,0.654,1.799,0.35,1.794-0.54   L396.869,258.877z"/>
	<path class="st4" d="M402.412,291.464c-0.273,0-0.5-0.215-0.512-0.49c-0.561-12.818-3.347-25.322-8.279-37.163   c-0.108-0.26,0.015-0.561,0.275-0.67c0.264-0.107,0.562,0.015,0.671,0.275c4.979,11.954,7.791,24.575,8.356,37.512   c0.013,0.283-0.207,0.523-0.488,0.535C402.428,291.464,402.42,291.464,402.412,291.464z"/>
	<path class="st5" d="M103.866,340.071c-2.195,10.862-5.069,21.791-10.884,31.227c-7.739,12.559-24.212,22.38-38.581,19.234   c-0.747-0.181-1.494-0.362-2.24-0.633c-4.277-1.358-8.305-3.983-11.79-8.124c-4.571-5.453-8.938-17.356-10.861-23.941   c-3.598-12.4-4.82-20.252-8.463-32.653c-4.413-14.98-7.648-30.322-8.509-45.958c0,0,0,0,0-0.023   c-0.023-0.09-0.023-0.204-0.023-0.294c-0.113-2.014-0.158-4.073-0.023-6.087c0,0,0-0.022,0-0.045   c0.227-2.941,0.906-5.77,2.489-8.237c2.67-4.141,8.893-6.358,12.717-3.236c2.851,2.331,3.281,6.404,4.277,9.934   c0.973,3.553,3.689,7.445,7.332,6.879c4.435-0.656,5.114-6.63,4.729-11.133c0-0.09-0.023-0.204-0.023-0.294   c-0.136-1.426-0.249-2.828-0.362-4.254c0,0,0,0,0-0.023c-1.607-21.406-0.271-43.017,3.96-64.083   c0.226-1.132,0.452-2.286,0.724-3.417c0.181-0.883,0.362-1.742,0.566-2.625c1.493-6.472,3.326-13.034,7.286-18.352   c3.462-4.639,8.916-8.169,14.618-8.304c0.769-0.045,1.538,0,2.308,0.113c0.068,0,0.113,0.023,0.181,0.023   c3.462,0.52,6.562,2.353,9.051,4.865c0.588,0.588,1.131,1.199,1.63,1.856c0.905,1.131,1.674,2.331,2.33,3.598   c2.625,5.114,3.507,10.93,4.096,16.632c1.403,13.781,1.245,27.562,0.068,41.32v0.023c-0.113,1.606-0.271,3.19-0.43,4.797   c-1.697,17.062-4.843,34.055-8.327,50.959c-0.34,1.675-0.702,3.326-1.041,5.024c0,0.023,0,0.023,0,0.023   c-1.222,5.815-2.466,11.631-3.711,17.424c-0.973,4.503-0.543,11.043,4.05,11.45c3.733,0.339,5.906-4.073,9.142-5.974   c2.784-1.652,6.155-1.109,8.916,0.656c0.657,0.385,1.267,0.883,1.833,1.403c1.154,1.109,2.127,2.421,2.738,3.847   C105.835,328.757,104.953,334.618,103.866,340.071z"/>
	<path class="st4" d="M99.069,318.416c-11.789,13.192-26.045,25.525-42.564,36.907c1.109-11.722,2.58-23.421,4.186-35.051   l0.249,0.181c5.205-6.992,10.726-14.052,16.043-20.863c1.222-1.561,2.444-3.146,3.688-4.729c0,0,0,0,0-0.023   c0.339-1.697,0.701-3.349,1.041-5.024c-2.173,2.829-4.367,5.612-6.517,8.373c-4.639,5.929-9.368,12.016-13.962,18.125   c0.996-7.083,2.036-14.12,3.077-21.112c1.29-8.734,2.58-17.514,3.802-26.339c7.761-9.617,15.116-19.664,21.927-30.005   c0.158-1.607,0.317-3.191,0.43-4.797c-6.766,10.477-14.03,20.659-21.768,30.435c1.131-8.486,2.172-16.994,3.054-25.548l0.136-0.068   l-0.113-0.204c1.652-16.021,2.67-32.132,2.512-48.199l0.294,0.159c3.349-5.906,6.494-11.971,9.391-18.148   c-0.498-0.656-1.041-1.267-1.629-1.856c-2.512,5.408-5.227,10.749-8.101,15.976c-0.136-6.97-0.498-13.917-1.131-20.863   c-0.77-0.113-1.539-0.159-2.308-0.113c2.15,23.058,1.29,46.298-0.95,69.447l-21.52-40.165c-0.271,1.131-0.498,2.285-0.724,3.417   l21.859,40.799c-1.606,15.749-3.801,31.409-6.087,46.931c-7.399-7.06-14.052-15.025-19.732-23.624   c0.113,1.426,0.226,2.828,0.362,4.254c0,0.091,0.023,0.204,0.023,0.294c5.544,7.92,11.925,15.297,18.962,21.836   c-0.317,2.014-0.611,4.028-0.905,6.042c-2.195,14.776-4.39,29.734-6.178,44.759c-19.347-18.691-34.191-41.568-43.424-66.799   c-0.136,2.014-0.09,4.073,0.023,6.087c0,0.091,0,0.204,0.023,0.294c0,0.023,0,0.023,0,0.023   c9.64,23.85,24.326,45.461,43.039,63.224v0.023c-1.81,15.749-3.123,31.589-3.417,47.429c0.747,0.271,1.493,0.452,2.24,0.633   c0.181-10.748,0.837-21.542,1.81-32.291c17.402-11.789,32.336-24.665,44.691-38.423C100.336,319.299,99.726,318.801,99.069,318.416   z"/>
	<path class="st4" d="M108.075,364.759l-0.633,7.739l-0.862,1.377l0.68,0.908l-6.834,84.879l-0.294,3.689   c-0.951,11.744-10.771,20.796-22.561,20.796H48.766c-11.744,0-21.565-9.006-22.538-20.728l-7.467-89.179l0.447-1.035l-0.651-1.251   l-0.498-5.951l-0.113-1.245h90.129V364.759z"/>
	<path class="st6" d="M100.427,459.663l-0.294,3.689c-0.951,11.744-10.771,20.796-22.561,20.796H48.766   c-11.744,0-21.565-9.006-22.538-20.728l-7.478-89.182l0.458-1.031l-0.636-1.086l-0.513-6.116   c2.534,5.227,4.413,18.057,5.408,21.135c3.281,10.16,7.603,20.004,12.921,29.281c4.481,7.829,10.025,15.568,18.103,19.596   c9.074,4.503,20.004,3.643,29.395,7.445C91.24,446.425,97.372,452.376,100.427,459.663z"/>
	<path class="st5" d="M107.442,372.498l-0.181,2.286c-13.939,1.471-27.923,2.218-41.907,2.218c-15.568,0-31.114-0.905-46.592-2.761   l-0.204-2.285C48.088,375.462,77.889,375.643,107.442,372.498z"/>
	<path class="st7" d="M86.984,406.117c0.221,2.573,1.199,5.688,3.744,6.117c2.509,0.423,4.458-2.137,5.454-4.479   c2.401-5.647,3.044-12.028,1.817-18.041c-1.153-5.651-5.912-6.985-8.653-1.668C86.718,393.146,86.507,400.544,86.984,406.117z"/>
	<path class="st7" d="M96.626,424.431c1.161,2.743-0.122,5.907-2.864,7.067c-2.743,1.161-5.907-0.122-7.068-2.864   c-1.161-2.743,0.122-5.907,2.864-7.067C92.301,420.406,95.466,421.688,96.626,424.431z"/>
	<path class="st8" d="M20.111,372.128c-0.517-0.059-1.035-0.112-1.553-0.173l0.02,0.237l0.183,2.048   c0.641,0.077,1.284,0.142,1.925,0.216C20.501,373.666,20.309,372.889,20.111,372.128z"/>
	<path class="st9" d="M304.512,183.745v10.696c0,6.11-4.844,11.064-10.82,11.064h-4.544c-5.976,0-10.819-4.954-10.819-11.064   v-10.696H304.512z"/>
	<path class="st10" d="M304.512,183.745v10.142c-2.224,1.856-5.085,2.889-7.922,3.467c-4.28,0.86-8.788,0.836-12.923-0.566   c-1.9-0.652-3.727-1.598-5.338-2.827v-10.216H304.512z"/>
	<path class="st4" d="M317.543,181.748c-1.841,0.774-3.726,1.46-5.648,2.056c17.173-2.178,32.975-13.431,42.656-28.132   c-1.963-0.406-3.88-1.071-5.678-1.98C341.624,166.273,330.653,176.208,317.543,181.748z"/>
	<path class="st9" d="M372.596,130.593c-1.805-1.961-3.959-3.087-6.282-3.585c-2.143,9.534-5.619,18.8-10.777,27.124   c-0.32,0.517-0.65,1.029-0.986,1.539c2.352,0.486,4.772,0.594,7.15,0.216c5.55-0.882,10.719-4.446,13.082-9.544   C377.147,141.245,376.402,134.728,372.596,130.593z"/>
	<path class="st9" d="M357.69,127.586c0.31-2.405,0.512-4.846,0.572-7.322c0.046-0.696,0.046-1.369,0.046-2.065   c0-1.694-0.046-3.364-0.186-5.012c-0.431-6.323-1.691-12.403-3.644-18.133c-8.98-26.36-32.869-45.231-60.903-45.231   c-35.754,0-64.733,30.626-64.733,68.376c0,5.824,0.696,11.485,1.995,16.891c0.487,2.088,1.09,4.153,1.763,6.148   c4.965,14.64,14.524,26.984,26.844,35.058c2.854,1.903,5.87,3.55,9.002,4.942c7.727,3.434,16.218,5.337,25.128,5.337   c6.362,0,12.514-0.97,18.319-2.77c1.923-0.596,3.807-1.282,5.648-2.056c13.109-5.541,24.081-15.475,31.33-28.056   c1.798,0.908,3.715,1.573,5.678,1.98c0.336-0.509,0.665-1.021,0.986-1.539c5.157-8.325,8.633-17.59,10.777-27.124   C363.579,126.423,360.61,126.713,357.69,127.586z"/>
	<g>
		<g>
			<path class="st11" d="M264.156,161.145c0,5.615-1.74,10.835-4.71,15.151c-12.32-8.074-21.879-20.418-26.844-35.058     c-0.673-1.995-1.276-4.06-1.763-6.149c2.065-0.51,4.223-0.789,6.45-0.789C252.114,134.301,264.156,146.32,264.156,161.145z"/>
		</g>
		<g>
			<path class="st11" d="M354.093,142.482c-6.425,17.879-19.758,32.169-36.546,39.258c-5.873-4.928-9.609-12.321-9.609-20.591     c0-14.83,12.017-26.858,26.858-26.858C342.369,134.29,349.221,137.43,354.093,142.482z"/>
		</g>
	</g>
	<g>
		<g>
			<path class="st4" d="M239.856,110.216c0.568,0.959,1.665,1.179,2.668,1.293c3.117,0.355,26.367-1.386,17.498-9.423     C256.059,98.494,235.491,102.846,239.856,110.216z"/>
		</g>
		<g>
			<path class="st4" d="M329.252,117.641c-0.673,0.862-1.78,0.955-2.783,0.957c-3.116,0.007-25.849-4.163-16.165-10.936     C314.632,104.635,334.415,111.026,329.252,117.641z"/>
		</g>
	</g>
	<path class="st12" d="M367.063,139.828c-0.972-3.778-4.805-6.592-8.682-6.459c-0.217,0.009-0.385,0.191-0.376,0.407   c0.009,0.217,0.182,0.38,0.407,0.376c2.885-0.1,5.684,1.586,7.115,4.059c-4.135-0.26-8.019,1.76-10.449,5.477   c-0.119,0.181-0.068,0.424,0.114,0.542c0.066,0.043,0.14,0.064,0.214,0.064c0.128,0,0.253-0.062,0.328-0.177   c2.339-3.575,6.122-5.486,10.076-5.116c0.044,0.006,0.083-0.001,0.122-0.008c0.144,0.335,0.28,0.675,0.371,1.031   c0.883,3.434-0.912,7.365-4.083,8.95c-0.194,0.097-0.273,0.333-0.176,0.525c0.069,0.138,0.208,0.217,0.351,0.217   c0.059,0,0.119-0.013,0.175-0.041C366.059,147.931,368.032,143.606,367.063,139.828z"/>
	<path class="st12" d="M300.495,128.22c1.968,1.887,4.142,3.478,6.51,4.644c2.373,1.142,4.887,1.955,7.448,2.238   c2.556,0.33,5.19,0.135,7.766-0.414c2.577-0.573,5.066-1.605,7.424-2.973l0.056-0.032c1.1-0.638,2.508-0.264,3.146,0.836   c0.533,0.919,0.357,2.056-0.357,2.776c-2.374,2.393-5.388,4.13-8.622,5.203c-3.235,1.098-6.738,1.431-10.184,1.041   c-3.44-0.435-6.765-1.587-9.649-3.419c-2.889-1.808-5.407-4.208-7.148-7.094c-0.657-1.088-0.306-2.503,0.782-3.16   c0.91-0.549,2.048-0.394,2.781,0.307L300.495,128.22z"/>
	<path class="st12" d="M237.715,125.92c2.057,1.584,4.266,2.853,6.599,3.68c2.335,0.804,4.755,1.266,7.152,1.206   c2.397-0.015,4.799-0.552,7.102-1.427c2.301-0.899,4.46-2.235,6.456-3.882l0.047-0.039c0.931-0.768,2.277-0.588,3.006,0.403   c0.61,0.828,0.595,1.961,0.03,2.759c-1.878,2.651-4.43,4.744-7.272,6.219c-2.839,1.499-6.023,2.286-9.248,2.358   c-3.226,0.027-6.438-0.66-9.332-2.07c-2.896-1.386-5.526-3.399-7.503-5.99c-0.746-0.977-0.606-2.405,0.312-3.19   c0.768-0.656,1.836-0.655,2.602-0.066L237.715,125.92z"/>
	<g>
		<path class="st12" d="M282.743,156.067c-0.067,0-0.133,0-0.2-0.001c-4.902-0.076-10.538-3.013-11.328-9.279    c-0.096-0.756,0.44-1.447,1.197-1.542c0.793-0.093,1.45,0.442,1.544,1.196c0.585,4.632,4.884,6.804,8.632,6.863    c0.052,0.001,0.105,0.001,0.156,0.001c3.3,0,7.332-1.628,8.064-6.256c0.118-0.754,0.816-1.274,1.58-1.149    c0.754,0.12,1.268,0.826,1.148,1.58C292.595,153.432,287.473,156.067,282.743,156.067z"/>
	</g>
	<path class="st4" d="M368.894,71.799c1.402-0.965,2.462-2.623,2.218-4.308c-0.282-1.953-2.236-3.321-4.193-3.572   c-1.957-0.252-3.912,0.363-5.777,1.006c-1.865,0.644-3.606,1.069-5.577,0.978c0.672-2.237,2.323-4.021,3.847-5.79   c1.525-1.77,3.029-3.741,3.297-6.062c0.267-2.32-1.225-4.993-3.555-5.164c-2.08-0.153-3.764,1.606-4.998,3.287   c-2.871,3.909-5.133,8.257-6.73,12.837c-0.703-1.844-1.381-3.598-1.577-3.958c-1.508-2.715-3.387-5.221-5.568-7.448   c-2.506-2.576-5.36-4.779-8.469-6.589c-31.554-18.562-79.558-2.808-98.932,26.496c-0.997,1.508-8.074,11.484-6.566,12.784   c12.854,11.09,29.628,14.339,46.496,14.664c6.009-3.968,11.647-8.469,16.891-13.387c0.186,4.71-1.555,9.257-4.501,12.923   c14.71-1.555,29.281-6.287,43.642-9.838c3.039,16.195,8.074,36.148,22.668,43.317c1.721,0.939,4.304-2.111,6.917-6.591   c2.681-0.708,5.382-0.913,7.887-0.376c0.015-0.066,0.034-0.133,0.048-0.199c1.883-8.449,2.744-17.121,2.867-25.77   c0.02-1.381-0.06-2.548-0.22-3.551c0.289-4.857-0.325-9.739-2.208-14.208c-1.491-3.553-4.001-6.76-7.085-9.162   c1.454-0.036,2.924-0.202,4.421-0.555C365.792,73.172,367.491,72.763,368.894,71.799z"/>
	<path class="st12" d="M224.54,366.791c0,0-30.804,95.571,0,110.183s50.945-1.974,73.851-38.703l13.427-75.035L224.54,366.791z"/>
	<path class="st3" d="M372.647,234.091c-14.757-24.64-40.928-35.475-56.241-39.883c-0.58-0.186-1.137-0.325-1.693-0.487   c-6.311-1.717-10.394-2.274-10.394-2.274l-26.868-3.156c0,0-2.97,0.58-8.028,1.787c-0.557,0.116-1.113,0.255-1.717,0.418   c-23.967,5.893-85.591,24.153-111.09,60.974c-31.995,46.218,6.705,107.424,6.705,107.424s152.435,41.461,218.003-26.45   c0,0-1.833-8.747-4.989-21.415C387.194,286.875,386.824,257.804,372.647,234.091z"/>
	<path class="st3" d="M295.034,454.76c0,0-9.774,17.771-19.549,25.176c-9.774,7.405-19.252,12.44-15.994,17.772   c3.258,5.331,42.059,4.443,51.241,1.777s24.781-34.358,24.781-34.358L295.034,454.76z"/>
	<path class="st12" d="M293.651,456.438c0,0-4.896-106.674,25.67-130.719c29.619-23.301,57.015-14.69,57.015-14.69   s23.944,46.284,17.23,75.509c-6.714,29.224-37.913,38.307-37.913,38.307l-20.141,40.282L293.651,456.438z"/>
	<path class="st7" d="M355.401,425.975c-0.056,0-0.112-0.012-0.165-0.039c-0.182-0.091-0.256-0.314-0.164-0.495   c8.446-16.798,13.736-35.579,15.301-54.314c0.017-0.203,0.175-0.353,0.398-0.336c0.202,0.017,0.353,0.195,0.336,0.399   c-1.572,18.827-6.89,37.702-15.378,54.582C355.665,425.901,355.536,425.975,355.401,425.975z"/>
	<path class="st12" d="M270.746,367.554c-0.166,0-0.316-0.112-0.359-0.28l-8.688-35.147c-0.048-0.194,0.068-0.392,0.262-0.445   c0.322-0.087,32.499-8.999,51.163-29.413c18.298-20.013,25.598-47.205,26.265-57.237c0.013-0.203,0.184-0.343,0.393-0.344   c0.203,0.014,0.357,0.189,0.344,0.393c-0.674,10.117-8.027,37.529-26.458,57.687c-17.76,19.424-47.612,28.5-51.168,29.528   l8.603,34.802c0.048,0.197-0.072,0.397-0.27,0.447C270.805,367.551,270.775,367.554,270.746,367.554z"/>
	<path class="st12" d="M280.937,366.873c-0.194,0-0.357-0.151-0.368-0.348c-0.725-12.997-3.156-25.855-7.226-38.217   c-0.064-0.193,0.042-0.401,0.235-0.466c0.192-0.065,0.402,0.042,0.466,0.235c4.09,12.423,6.533,25.345,7.262,38.406   c0.011,0.204-0.144,0.378-0.348,0.389C280.951,366.873,280.944,366.873,280.937,366.873z"/>
	<path class="st12" d="M316.406,194.208c-0.58,1.206-1.183,2.367-1.856,3.48c-1.368,2.343-2.923,4.432-4.64,6.288   c-1.554,1.671-3.271,3.155-5.081,4.385c-3.55,2.436-7.471,3.944-11.485,4.408c-0.812,0.093-1.647,0.139-2.46,0.139   c-6.891,0-13.805-3.202-18.144-8.562c-3.132-3.898-4.896-8.84-5.035-13.851c0.604-0.163,1.16-0.302,1.717-0.418   c0.07,4.756,1.717,9.49,4.687,13.178c4.478,5.545,11.949,8.608,19.048,7.796c4.06-0.464,8.051-2.111,11.601-4.78   c1.369-1.021,2.668-2.181,3.875-3.48c1.67-1.786,3.178-3.828,4.477-6.102c0.58-0.951,1.114-1.926,1.601-2.97   C315.269,193.883,315.826,194.022,316.406,194.208z"/>
	<path class="st5" d="M433.69,462.958c0,15.93-9.051,29.756-22.289,36.59c-0.679,0.362-1.358,0.702-2.059,0.996   c-5.137,2.331-10.862,3.621-16.881,3.621c-5.182,0-10.137-0.95-14.686-2.716c-0.747-0.271-1.493-0.588-2.218-0.928   c-11.382-5.114-20.026-15.274-23.104-27.629c-0.181-0.724-0.339-1.471-0.475-2.218c-0.475-2.489-0.724-5.069-0.724-7.716   c0-17.537,10.975-32.54,26.407-38.468c0.702-0.294,1.403-0.543,2.127-0.77c4.005-1.29,8.259-1.991,12.672-1.991   c5.091,0,9.979,0.928,14.505,2.625c0.746,0.272,1.493,0.588,2.218,0.905c10.183,4.526,18.193,13.057,22.017,23.579   c0.272,0.724,0.521,1.448,0.724,2.195C433.079,454.811,433.69,458.817,433.69,462.958z"/>
	<path class="st7" d="M421.108,451.711c3.44,0,7.015-0.226,10.816-0.679c-0.203-0.747-0.453-1.471-0.724-2.195   c-9.798,1.109-18.238,0.679-25.57-1.312c1.833-7.286,3.009-14.754,3.553-22.266c-0.724-0.317-1.471-0.634-2.218-0.905   c-0.475,7.603-1.652,15.161-3.508,22.538c-1.765-0.566-3.439-1.222-5.069-1.969c-8.078-3.756-16.134-11.45-18.601-21.203   c-0.724,0.226-1.426,0.475-2.127,0.77c2.467,9.322,9.776,17.831,19.778,22.492c1.742,0.815,3.552,1.516,5.453,2.104   c-2.828,10.681-7.06,20.999-12.536,30.616c-1.833-1.109-3.734-2.105-5.657-3.009c-10.16-4.752-21.543-6.834-32.721-6.019   c0.136,0.747,0.294,1.493,0.475,2.217c10.703-0.701,21.565,1.29,31.295,5.861c1.878,0.883,3.711,1.855,5.476,2.919   c-3.96,6.675-8.531,13.011-13.668,18.85c0.724,0.339,1.471,0.656,2.218,0.928c5.001-5.77,9.459-12.016,13.373-18.578   c7.151,4.594,13.396,10.635,18.193,17.673c0.702-0.294,1.38-0.634,2.059-0.996c-5.023-7.422-11.586-13.826-19.121-18.646   c5.566-9.798,9.888-20.298,12.785-31.182C409.93,451.055,415.27,451.711,421.108,451.711z"/>
	<path class="st7" d="M199.864,103.496c-3.482-6.764-9.61-11.754-17.017-13.343c-1.021-0.219-1.386-1.464-0.62-2.173   c6.137-5.684,10.595-13.167,12.696-21.263c0.303-1.166,1.894-1.264,2.384-0.164c3.458,7.758,10.056,13.7,17.89,17.396   c0.851,0.401,0.972,1.563,0.227,2.137c-5.712,4.396-10.785,10.535-13.257,17.273C201.79,104.387,200.365,104.47,199.864,103.496z"/>
	<path class="st7" d="M217.372,51.05c-2.523-4.901-6.964-8.518-12.331-9.669c-0.74-0.159-1.005-1.061-0.45-1.575   c4.447-4.119,7.677-9.541,9.2-15.409c0.219-0.845,1.373-0.916,1.728-0.118c2.506,5.621,7.287,9.927,12.964,12.606   c0.617,0.291,0.705,1.133,0.165,1.548c-4.139,3.186-7.816,7.635-9.607,12.517C218.768,51.696,217.735,51.755,217.372,51.05z"/>
	<path class="st7" d="M392.345,109.926c-3.003-5.835-8.289-10.139-14.678-11.509c-0.881-0.188-1.196-1.263-0.535-1.875   c5.294-4.903,9.139-11.358,10.951-18.341c0.261-1.006,1.634-1.091,2.057-0.142c2.983,6.691,8.674,11.817,15.431,15.006   c0.733,0.346,0.839,1.348,0.196,1.843c-4.927,3.792-9.303,9.088-11.435,14.899C394.006,110.694,392.777,110.766,392.345,109.926z"/>
	<path class="st7" d="M415.698,367.54c-2.526-4.906-6.97-8.526-12.343-9.678c-0.741-0.159-1.006-1.062-0.45-1.577   c4.452-4.123,7.685-9.55,9.209-15.423c0.219-0.846,1.374-0.917,1.729-0.119c2.508,5.627,7.294,9.937,12.976,12.619   c0.617,0.291,0.706,1.133,0.165,1.549c-4.143,3.189-7.823,7.642-9.616,12.529C417.094,368.186,416.061,368.246,415.698,367.54z"/>
	<path class="st7" d="M88.501,352.904c-2.525-4.906-6.97-8.526-12.343-9.678c-0.74-0.159-1.006-1.062-0.45-1.577   c4.452-4.123,7.685-9.551,9.209-15.423c0.219-0.846,1.374-0.917,1.73-0.119c2.508,5.627,7.294,9.937,12.976,12.618   c0.617,0.291,0.706,1.133,0.165,1.549c-4.143,3.189-7.823,7.642-9.616,12.529C89.898,353.55,88.864,353.61,88.501,352.904z"/>
	<path class="st7" d="M268.558,295.042c-0.905-6.868-3.248-13.272-6.728-19.026c-2.204-3.643-4.849-7.053-7.912-10.139   c-1.439-1.461-2.947-2.831-4.548-4.153l-0.023-0.023c-0.905-0.742-1.833-1.462-2.784-2.158c0-0.441-0.023-0.882-0.07-1.299   l-7.993-15.976l12.053-19.801c0.325-0.835,0.65-1.67,1.021-2.482c1.16-2.598,2.483-5.591,1.276-8.074   c-0.951-1.949-3.295-2.877-5.476-2.738c-2.181,0.116-4.269,1.114-6.241,2.135c-6.473,3.387-12.599,7.563-18.167,12.366   c-6.868,5.963-12.97,12.854-18.028,20.441c-0.395,0.557-0.766,1.137-1.137,1.717c-0.07,0.093-0.116,0.186-0.186,0.279l0,0   c-3.689,0-7.448,0.232-11.229,0.742c-4.849,0.65-9.559,1.717-14.014,3.132l-46.96,51.601c-0.418,3.852-0.394,7.796,0.139,11.763   c0.279,2.042,0.673,4.037,1.183,5.986c0.789,2.993,1.856,5.893,3.179,8.654c4.669,9.852,12.565,18.116,22.492,24.057   c-0.002,0.001-0.002,0.003-0.004,0.004l1.056,1.124l-2.146,0.059c-4.432,4.826-11.23,12.645-18.26,22.483   c-0.859,1.206-8.931,26.161-9.464,27.229c-6.427,11.972-18.563,38.455-18.772,42.052c0,0-2.538,3.79-2.147,9.892   c0.021,0.329,0.407,1.175,0.407,1.5v0.018c-4.855,1.515-9.896,2.449-14.971,2.767l-10.962,5.733l6.066,15.195   c9.165,4.919,20.046,6.497,30.208,4.432c-0.015-0.039-0.027-0.079-0.042-0.118c0.001,0.001,0.001,0.001,0.002,0.001   c5.522,4.594,13.852,7.749,26.195,7.958c34.222,0.557,45.499,0.325,49.188,0.139c0.418-0.023,0.812-0.163,1.16-0.394   c0.511-0.325,0.905-0.859,0.998-1.508c0.116-0.65,0.348-1.787,0.65-3.202c0.232-0.998,0.368-1.582,0.623-2.719l0.977-0.246   c1.983,2.324,5.583,7.312,8.224,7.137c12.206-0.808,5.191-58.295,7.671-79.373c1.97-16.747,5.031-44.668,6.007-53.61   c20.261-6.242,36.113-19.847,43.453-36.385C268.28,313.743,269.811,304.462,268.558,295.042z"/>
	<path class="st13" d="M264.521,322.211c-7.68-5.267-12.738-14.107-12.738-24.13c0-8.794,3.898-16.705,10.046-22.065   c3.48,5.754,5.824,12.158,6.729,19.025C269.811,304.462,268.28,313.743,264.521,322.211z"/>
	<path class="st14" d="M251.865,293.791c-1.155,1.13-2.486,2.119-3.985,2.915c-8.857,4.703-20.073,0.926-25.053-8.453   c-4.975-9.37-1.826-20.786,7.031-25.489c1.5-0.796,3.064-1.345,4.647-1.668L251.865,293.791z"/>
	<path class="st12" d="M254.91,271.217c4.138,7.793,2.658,16.995-3.046,22.574c-7.817,1.6-16.268-2.328-20.406-10.122   c-4.133-7.784-2.658-16.995,3.046-22.574C242.321,259.495,250.777,263.432,254.91,271.217z"/>
	<path class="st12" d="M252.965,310.263l-0.073-2.347c0.169-1.217,0.183-2.459,0.012-3.739c-0.104-0.778-0.276-1.554-0.512-2.307   c-0.426-2.047-1.241-3.873-2.863-5.127c-2.555-1.978-6.007-1.682-9.326-1.214l-19.57,2.777c-0.256,0.037-0.435,0.274-0.399,0.532   c0.037,0.256,0.264,0.43,0.532,0.399l14.042-1.992c-0.807,0.289-1.577,0.58-2.269,0.848c0.787,4.281,3.245,8.232,6.739,10.829   c3.493,2.598,7.985,3.814,12.311,3.334c0.171-0.366,0.323-0.734,0.465-1.103c0.147,4.625,0.127,4.965-0.244,10.956l-0.291,4.767   c-0.015,0.259,0.182,0.482,0.441,0.497c0.01,0,0.019,0,0.028,0c0.247,0,0.454-0.191,0.469-0.441l0.291-4.765   C253.142,315.778,253.142,315.778,252.965,310.263z"/>
	<path class="st15" d="M178.373,249.985c0.092,2.854,0,5.684-0.279,8.492c-0.394,3.851-1.137,7.633-2.32,11.322   c-0.626,2.065-1.392,4.084-2.32,6.056c-0.023,0.116-0.093,0.232-0.139,0.348c-0.464,1.021-0.975,2.019-1.554,2.993   c-1.949,3.527-4.385,6.821-7.216,9.721c-0.464,0.51-0.951,0.998-1.462,1.462c-4.803,4.617-10.557,8.121-16.821,10.023   c-1.995,0.626-4.06,1.067-6.149,1.322c-0.905,0.116-1.786,0.186-2.691,0.209c-2.019,0.116-4.037,0-6.009-0.348   c0.186-1.787,0.464-3.527,0.835-5.267c-0.116-0.232-0.209-0.441-0.302-0.673c-0.302-0.65-0.58-1.346-0.835-2.065   c-1.415-3.967-2.251-8.608-2.877-12.529c-2.32-14.431-1.555-29.35,2.158-43.48c2.042-7.819,5.012-15.383,8.84-22.482   c1.183-2.158,2.459-4.339,4.431-5.824c1.949-1.485,4.733-2.135,6.891-0.998c2.761,1.462,3.504,4.989,4.153,8.028   c0.012,0.043,0.027,0.111,0.046,0.162l0.728,27.657l17.671,7.517c0.047,0.046,0.093,0.116,0.139,0.162   c0.533-0.232,1.09-0.441,1.624-0.626C176.053,250.75,177.213,250.356,178.373,249.985z"/>
	<path class="st13" d="M194.127,324.532c0,16.148-13.086,29.234-29.211,29.234c-1.346,0-2.691-0.092-3.991-0.278   c-11.114-6.009-19.953-14.826-25.011-25.499c-0.162-1.137-0.232-2.297-0.232-3.457c0-16.148,13.086-29.211,29.234-29.211   C181.042,295.321,194.127,308.383,194.127,324.532z"/>
	<path class="st14" d="M193.357,290.86l5.143,20.218c-1.339,1.271-2.872,2.391-4.592,3.305c-10.16,5.395-22.773,1.539-28.173-8.631   c-5.395-10.16-1.53-22.778,8.631-28.173c1.72-0.914,3.507-1.557,5.31-1.953L193.357,290.86z"/>
	<path class="st12" d="M202.539,286.211c4.487,8.45,2.57,18.594-4.039,24.868c-8.9,1.96-18.376-2.133-22.863-10.584   c-4.482-8.441-2.57-18.593,4.039-24.868C188.576,273.667,198.057,277.77,202.539,286.211z"/>
	<path class="st12" d="M228.513,331.134c-0.023,0-0.045,0-0.068-0.001c-3.718-0.03-7.272-2.61-8.453-6.135   c-0.065-0.193,0.039-0.402,0.232-0.467c0.195-0.063,0.404,0.039,0.467,0.232c1.084,3.235,4.347,5.604,7.76,5.632   c3.424,0.02,6.713-2.285,7.852-5.503c0.068-0.192,0.277-0.294,0.471-0.224c0.192,0.068,0.292,0.278,0.224,0.471   C235.765,328.622,232.205,331.134,228.513,331.134z"/>
	<path class="st15" d="M146.709,431.375c-4.292,8.492-11.345,15.522-19.745,19.93c-3.643,1.926-9.1,5.172-14.088,5.195   c-0.65,0-3.291,0.089-3.801-0.097c-2.112-0.766,1.74-15.887,2.065-17.604c0.302-1.508,0.603-3.016,0.951-4.524   c2.947-13.225,7.471-25.731,13.898-37.703c3.134-5.951,6.749-11.691,10.533-17.239c0.835-1.207,1.67-2.413,2.529-3.62   c2.668,1.763,4.71,4.663,6.288,7.541C153.322,397.919,154.249,416.48,146.709,431.375z"/>
	<path class="st15" d="M180.308,384.167c0,5.889-4.774,10.663-10.663,10.663s-10.663-4.774-10.663-10.663   s4.774-10.663,10.663-10.663S180.308,378.278,180.308,384.167z"/>
	<path class="st15" d="M94.777,464.159c0.139,5.754-1.926,11.485-5.568,15.94c-0.186-0.069-0.371-0.185-0.557-0.278   c-9.257-5.128-16.287-14.13-20-24.06c8.144,2.854,16.868,3.991,25.452,3.41C94.499,460.795,94.731,462.466,94.777,464.159z"/>
	<path class="st9" d="M173.153,251.632c-0.487,0.278-0.975,0.557-1.438,0.812c-5.545,3.109-10.673,6.056-16.032,9.118   c-2.39,1.346-4.849,2.738-7.401,4.176c-5.174-13.712-4.733-29.466,1.206-42.877c1.137-2.552,2.854-5.29,5.267-6.404   c2.691,12.854,8.956,24.965,17.888,34.617C172.828,251.26,172.99,251.446,173.153,251.632z"/>
	<path class="st9" d="M246.145,255.089c0.116,1.044,0.255,2.088,0.348,3.155c-6.148-4.362-12.9-7.935-20.046-10.325   c5.406-10.534,13.898-19.443,24.107-25.452C246.47,232.862,244.916,244.184,246.145,255.089z"/>
	<path class="st12" d="M224.591,248.059c-0.116,0.394-0.464,0.65-0.835,0.65c-0.07,0-0.163-0.023-0.232-0.046   c-6.45-1.786-13.062-2.738-19.721-2.831c0.371-0.58,0.742-1.16,1.137-1.717c6.427,0.162,12.831,1.137,19.049,2.877   C224.452,247.131,224.73,247.595,224.591,248.059z"/>
	<path class="st12" d="M203.199,360.726c0,0.487-0.394,0.858-0.882,0.858c-1.462-0.023-2.923-0.046-4.385-0.139   c-13.805-0.58-27.68-3.411-40.626-8.213c0.464-0.487,0.905-0.951,1.299-1.392c11.833,4.339,24.431,6.961,37.007,7.75   c2.251,0.162,4.478,0.232,6.728,0.255C202.805,359.845,203.199,360.239,203.199,360.726z"/>
	<path class="st12" d="M196.788,493.051c-0.057,0-0.113-0.004-0.17-0.016c-0.472-0.095-0.777-0.553-0.684-1.024   c0.791-3.942-0.958-8.549-4.454-11.735c-2.855-2.606-6.818-4.439-12.113-5.603c-0.238-0.052-0.444-0.202-0.566-0.412   c-0.122-0.209-0.152-0.46-0.079-0.693c1.933-6.285,3.718-15.761,1.235-25.205c-1.013-3.847-4.28-12.949-12.727-14.367   c-0.473-0.079-0.793-0.528-0.714-1.004c0.081-0.471,0.51-0.777,1.004-0.714c9.446,1.586,13.021,11.467,14.118,15.641   c2.472,9.401,0.904,18.776-0.986,25.266c5.153,1.242,9.084,3.145,12.002,5.805c3.997,3.643,5.909,8.764,4.989,13.361   C197.559,492.766,197.196,493.051,196.788,493.051z"/>
	<path class="st12" d="M206.477,491.825c-0.15,0-0.301-0.039-0.44-0.12c-5.035-2.952-8.295-8.039-10.574-12.142   c-11.469-20.65-14.118-44.572-15.849-67.303c-0.036-0.478,0.321-0.897,0.802-0.933c0.519-0.057,0.897,0.324,0.933,0.802   c1.715,22.538,4.335,46.247,15.636,66.592c2.171,3.908,5.261,8.746,9.931,11.485c0.415,0.242,0.555,0.775,0.31,1.19   C207.066,491.671,206.774,491.825,206.477,491.825z"/>
	<path class="st9" d="M263.63,338.439c-11.879-2.891-23.758-5.782-35.636-8.674c-2.242-0.546-4.597-1.092-6.828-0.502   c-2.23,0.589-4.234,2.728-3.825,4.999c0.35,1.942,2.208,3.191,3.928,4.158c4.299,2.416,8.782,4.504,13.398,6.241   c-10.244,3.635-20.518,8.253-30.356,12.875c-1.727,0.812-3.485,1.664-4.825,3.024c-1.339,1.359-2.201,3.345-1.732,5.195   c0.45,1.77,2.029,3.076,3.749,3.692c1.719,0.616,3.583,0.656,5.409,0.689c-1.62,1.414-2.916,2.83-3.931,4.725   c-1.015,1.896-1.268,4.354-0.067,6.138c1.708,2.534,5.359,2.651,8.389,2.245c7.584-1.015,14.86-3.59,22.071-6.15   c-4.425,2.63-8.158,5.675-11.867,9.245c-1.538,1.481-3.122,3.599-2.259,5.552c0.55,1.246,1.984,1.914,3.346,1.941   c1.361,0.026,2.674-0.47,3.932-0.992c15.285-6.338,28.156-17.239,40.752-27.971C268.593,356.04,267.201,346.618,263.63,338.439z"/>
	<path class="st7" d="M293.942,456.816c-0.203,0-0.367-0.163-0.368-0.366c-0.695-37.175,1.396-66.647,7.052-94.571   c1.741-8.595,4.5-16.146,7.814-22.712c2.859-5.666,7.931-13.206,15.858-16.939c0.183-0.087,0.404-0.008,0.491,0.176   s0.008,0.404-0.176,0.491c-7.738,3.646-12.707,11.042-15.514,16.605c-3.276,6.492-5.82,13.711-7.55,22.247   c-5.645,27.873-7.533,59.604-7.238,94.7c0.002,0.203-0.162,0.37-0.366,0.37C293.943,456.816,293.943,456.816,293.942,456.816z"/>
</g>
</svg>
