<?xml version="1.0" encoding="UTF-8"?>
<!-- Generator: Adobe Illustrator 25.2.1, SVG Export Plug-In . SVG Version: 6.00 Build 0)  -->
<svg xmlns="http://www.w3.org/2000/svg" xmlns:xlink="http://www.w3.org/1999/xlink" version="1.1" id="Capa_1" x="0px" y="0px" viewBox="0 0 512 512" style="enable-background:new 0 0 512 512;" xml:space="preserve" width="512" height="512">
<g>
	<g>
		<path style="fill:#FFFFFF;" d="M68.704,512c-5.211,0-10.096-2.043-13.755-5.754l-6.769-6.864    c-0.129-0.044-0.258-0.091-0.385-0.141c0,0-9.723,0.066-9.739,0.066c-5.183,0-10.051-2.026-13.704-5.705    c-3.654-3.68-5.646-8.561-5.611-13.746l0.062-9.013c-0.228-0.373-0.428-0.768-0.596-1.183c-0.054-0.131-0.105-0.263-0.152-0.394    l-6.252-6.167c-3.711-3.658-5.754-8.543-5.754-13.755c0-5.211,2.043-10.097,5.754-13.756l5.955-5.872    c0.1-0.568,0.263-1.128,0.488-1.673c0.158-0.381,0.342-0.744,0.551-1.089l-0.056-8.122c-0.051-7.385,4.149-13.964,10.424-17.228    c0.31-15.921,1.084-30.412,2.358-44.152c0.073-0.784,0.15-1.582,0.232-2.401c-3.615-1.306-6.578-3.19-8.966-5.687    c-6.635-6.941-7.958-18.549-3.077-27.003c2.986-5.17,7.943-7.66,12.594-8.88c-1.269-6.102-0.461-11.76,2.455-16.27    c2.284-3.534,5.773-6.174,9.822-7.557c5.78-18.596,13.274-35.678,22.307-50.838c1.759-2.953,3.584-5.85,5.45-8.69    c-3.409,1.834-6.862,3.54-10.347,5.111c-2.198,0.991-4.801,2.048-7.882,2.048c-0.67,0-1.341-0.051-1.992-0.154    c-5.444-0.846-9.777-5.505-10.297-11.078c-0.476-5.092,2.206-9.046,3.911-11.108l-18.129-0.97    c-10.297-0.552-13.46-6.427-14.429-9.879c-1.443-5.146,0.375-11.06,4.525-14.719c3.333-2.937,7.253-3.761,9.596-4.252    c23.593-4.954,44.8-7.542,64.817-7.905l20.12-2.153c4.023-6.051,7.391-11.666,10.254-17.086    c6.233-11.799,11.161-24.779,15.927-37.332c5.712-15.044,11.618-30.601,19.967-44.903C183.107,33.396,229.282,4.569,278.89,0.513    C283.053,0.173,287.298,0,291.509,0c30.215,0,60.451,8.575,87.812,24.851l1.493-1.514c3.659-3.711,8.544-5.754,13.755-5.754    c5.211,0,10.096,2.043,13.755,5.754l5.678,5.756c0.407,0.093,0.807,0.22,1.199,0.378c0.564,0.234,1.087,0.524,1.565,0.862    c0,0,8.432-0.057,8.449-0.057c5.184,0,10.052,2.027,13.707,5.706s5.647,8.561,5.611,13.745l-0.06,8.713    c0.096,0.189,0.184,0.384,0.265,0.582c0.163,0.392,0.293,0.796,0.389,1.206l6.344,6.256c3.71,3.659,5.754,8.544,5.754,13.756    c0,5.211-2.043,10.097-5.754,13.756l-2.72,2.682c14.27,25.033,23.922,53.528,28.005,82.791c0.67,4.796,1.219,9.836,1.663,15.284    c4.585,1.016,9.138,2.101,13.594,3.242c2.317,0.593,6.198,1.586,9.4,4.668c3.986,3.837,5.544,9.824,3.878,14.901    c-1.12,3.408-4.536,9.139-14.846,9.241l-10.718,0.104c0.068,8.261-0.007,16.541-0.081,24.611    c-0.21,23.141-0.427,47.07,2.78,70.038c1.975,14.151,5.328,28.452,8.571,42.282c2.743,11.702,5.58,23.802,7.637,35.971    c5.632,33.318,4.369,59.939-3.873,81.188c0.237,0.997,0.268,2.054,0.06,3.112c-0.677,3.443-3.695,5.926-7.204,5.926h-371.78    c-3.416,5.656-9.572,9.272-16.488,9.272c-0.017,0-9.982-0.068-9.982-0.068l-6.909,7.006C78.8,509.957,73.915,512,68.704,512z"/>
	</g>
	<g>
		<path style="fill:#FFAAAD;" d="M37.672,480.599h448.114c10.755-24.319,9.412-54.518,4.957-80.874    c-4.456-26.356-12.543-51.979-16.241-78.461c-6.557-46.963,0.882-95.126-5.672-142.089    c-6.643-47.609-28.317-93.297-62.576-125.701C371.995,21.07,325.043,2.744,278.834,6.522    C232.625,10.3,188.089,36.995,164.07,78.138c-14.989,25.675-21.838,55.638-35.743,81.963    c-15.407,29.169-38.926,52.872-55.783,81.164c-20.609,34.589-30.61,75.074-34.364,115.555    C34.426,397.301,35.453,439.996,37.672,480.599z"/>
	</g>
	<g>
		<g>
			<g>
				<g>
					<g>
						<g>
							<path style="fill:#703427;" d="M125.408,366.682c0.881,6.203,5.266,11.533,10.638,14.776         c5.372,3.243,11.647,4.663,17.86,5.509c4.751,0.64,9.524,1.165,14.307,1.669c1.792,0.192,2.721,0.6,3.123-0.132         c0.157-0.259,0.243-0.648,0.301-1.273c-0.007-0.103,0.007-0.197-0.001-0.3c0.046-1.803-1.784-4.68-2.511-6.302         c-3.682-8.059-8.805-15.466-15.116-21.691c-2.706-2.69-5.667-5.186-9.14-6.746c-3.481-1.538-7.552-2.072-11.13-0.781         c-2.649,0.977-4.795,2.909-6.244,5.33c0,0,0.32,0.614,0.236,0.765c-0.104,0.188-0.783,0.256-0.783,0.256         C125.551,360.478,124.984,363.663,125.408,366.682z"/>
						</g>
					</g>
					<g>
						<g>
							<path style="fill:#FFDBAF;" d="M126.948,357.762c15.829,8.612,30.749,18.944,44.388,30.742         c0.157-0.259,0.243-0.648,0.301-1.273c-13.58-11.7-28.398-21.914-44.142-30.491         C127.29,357.055,127.098,357.4,126.948,357.762z"/>
						</g>
					</g>
				</g>
				<g>
					<g>
						<g>
							<path style="fill:#703427;" d="M197.941,393.999c-6.249-0.443-12.381,2.725-16.681,7.296         c-4.299,4.571-7.006,10.408-9.138,16.304c-1.624,4.51-3.141,9.067-4.638,13.637c-0.564,1.712-1.159,2.534-0.528,3.081         c0.221,0.208,0.583,0.374,1.181,0.562c0.102,0.014,0.191,0.048,0.293,0.062c1.752,0.424,4.95-0.761,6.689-1.131         c8.652-1.906,16.97-5.36,24.383-10.221c3.199-2.081,6.261-4.451,8.515-7.519c2.235-3.081,3.613-6.948,3.102-10.717         c-0.398-2.795-1.837-5.299-3.899-7.225c-0.143-0.144-0.611,0.187-0.772,0.052c-0.137-0.115,0.036-0.699-0.112-0.801         C203.976,395.442,200.982,394.218,197.941,393.999z"/>
						</g>
					</g>
					<g>
						<g>
							<path style="fill:#FFDBAF;" d="M206.339,397.378c-11.745,13.667-24.981,26.083-39.382,36.939         c0.221,0.208,0.583,0.374,1.181,0.562c14.292-10.819,27.391-23.16,39.085-36.751         C206.958,397.861,206.661,397.601,206.339,397.378z"/>
						</g>
					</g>
				</g>
			</g>
			<g>
				<g>
					<path style="fill:#FF5B44;" d="M154.636,281.126c-2.013-0.564-3.906-1.304-5.871-2.03       c-10.099-3.734-19.597-9.488-27.666-17.092c-4.045-3.811-7.949-8.47-8.686-14.437c-0.967-7.831,4.283-15.919,11.015-18.821       c6.733-2.902,14.144,1.292,20.052,5.396c1.169-7.568,4.707-15.902,11.703-18.511c4.819-1.797,10.213-0.525,14.104,2.691       c1.846,1.526,3.334,3.531,4.398,5.816c0.667,1.432,2.736,6.398,1.799,8.057c3.126-5.532,8.522-10.31,14.418-10.761       c3.71-0.284,7.55,1.434,9.482,4.879c3.988,7.111-0.693,15.868-4.637,21.927c-6.175,9.483-13.553,18.201-21.043,26.427       c-2.728,2.996-5.043,6.101-7.927,8.907C163.07,283.231,157.264,281.862,154.636,281.126z"/>
				</g>
			</g>
			<g>
				<path style="fill:#703427;" d="M173.704,274.667c-6.396-1.664-19.625,0.5-24.939,4.429c3.554,3.362,11.536,5.887,15.549,9.162      c12.161,57.81,10.692,118.291-4.343,175.443l1.182,0.311c15.098-57.394,16.56-118.135,4.32-176.185      C167.95,283.318,171.377,279.244,173.704,274.667z"/>
			</g>
		</g>
		<g>
			<g>
				<g>
					<g>
						<path style="fill:#703427;" d="M72.759,386.48c3.715,3.748,9.359,5.143,14.62,4.632c5.261-0.512,10.215-2.709,14.838-5.263        c3.532-1.957,7.021-4.004,10.506-6.069c1.307-0.772,2.141-0.964,2.044-1.661c0,0-0.83-0.312-0.939-0.534        c-0.066-0.134,0.503-0.477,0.503-0.477c-0.057-0.066-0.095-0.136-0.152-0.202c-0.876-1.241-3.56-2.264-4.867-2.995        c-6.541-3.593-13.73-6.019-21.125-7.051c-3.182-0.456-6.438-0.653-9.569,0.04c-3.126,0.712-6.145,2.399-7.913,5.072        c-1.298,1.992-1.776,4.378-1.538,6.742c0,0,0.466,0.308,0.489,0.47c0.023,0.162-0.345,0.495-0.345,0.495        C69.735,382.217,70.954,384.654,72.759,386.48z"/>
					</g>
				</g>
				<g>
					<g>
						<path style="fill:#FFDBAF;" d="M69.312,379.679c15.027-2.145,30.305-2.67,45.455-1.56c-0.024-0.254-0.162-0.56-0.436-1.011        c-15.061-1.073-30.212-0.52-45.163,1.606C69.187,379.029,69.231,379.358,69.312,379.679z"/>
					</g>
				</g>
			</g>
			<g>
				<g>
					<path style="fill:#FF5B44;" d="M73.507,345.723c-1.637,0.629-3.302,1.086-4.988,1.582c-8.708,2.563-18.007,3.449-27.291,2.371       c-4.65-0.54-9.632-1.724-13.131-5.385c-4.593-4.805-5.115-12.91-2.026-18.258c3.089-5.348,10.207-6.242,16.262-6.441       c-3.017-5.702-4.82-13.112-1.405-18.395c2.352-3.639,6.636-5.493,10.883-5.277c2.015,0.103,4.029,0.708,5.897,1.717       c1.171,0.632,5.068,2.946,5.269,4.538c-0.671-5.31,0.571-11.253,4.327-14.524c2.364-2.058,5.823-2.829,8.861-1.474       c6.271,2.798,7.514,11.069,7.897,17.147c0.601,9.552,0.009,19.08-0.923,28.441c-0.335,3.359-0.344,6.696-0.875,10.005       C80.264,342.902,75.653,344.898,73.507,345.723z"/>
				</g>
			</g>
			<g>
				<path style="fill:#703427;" d="M84.2,344.798c-0.595-4.293-0.329-8.769-1.059-13.033c-5.158,2.094-13.008,10.211-14.621,15.539      c4.08,0.482,10.716-1.813,15.076-1.635c37.311,32.945,66.768,74.538,85.365,120.723l0.955-0.385      C151.243,419.636,121.674,377.862,84.2,344.798z"/>
			</g>
		</g>
	</g>
	<g>
		<g>
			<g>
				<path style="fill:#96976A;" d="M469.078,316.233c-2.24,11.085-5.173,22.239-11.108,31.869      c-7.898,12.817-24.71,22.84-39.375,19.63c-0.762-0.185-1.524-0.369-2.286-0.646c-4.365-1.386-8.475-4.064-12.032-8.291      c-4.665-5.565-9.122-17.712-11.085-24.433c-3.672-12.655-4.919-20.669-8.637-33.324c-4.503-15.288-7.806-30.945-8.683-46.903      c0,0,0,0,0-0.023c-0.023-0.092-0.023-0.208-0.023-0.3c-0.116-2.055-0.162-4.157-0.023-6.212c0,0,0-0.023,0-0.046      c0.231-3.002,0.924-5.889,2.541-8.406c2.725-4.226,9.076-6.489,12.979-3.302c2.91,2.378,3.348,6.536,4.365,10.138      c0.993,3.626,3.764,7.598,7.482,7.02c4.526-0.67,5.219-6.766,4.826-11.362c0-0.093-0.023-0.208-0.023-0.3      c-0.138-1.455-0.254-2.887-0.369-4.342c0,0,0,0,0-0.023c-1.64-21.846-0.277-43.901,4.042-65.401      c0.231-1.155,0.462-2.332,0.739-3.487c0.185-0.9,0.369-1.778,0.577-2.679c1.524-6.605,3.395-13.302,7.436-18.729      c3.534-4.734,9.099-8.337,14.919-8.476c0.785-0.046,1.57,0,2.356,0.116c0.069,0,0.116,0.023,0.185,0.023      c3.533,0.531,6.697,2.402,9.237,4.965c0.601,0.601,1.155,1.224,1.663,1.894c0.924,1.155,1.709,2.378,2.378,3.672      c2.679,5.219,3.58,11.154,4.18,16.974c1.432,14.064,1.27,28.128,0.069,42.169v0.023c-0.115,1.639-0.277,3.256-0.439,4.896      c-1.732,17.412-4.942,34.756-8.498,52.007c-0.347,1.709-0.716,3.395-1.062,5.127c0,0.023,0,0.023,0,0.023      c-1.247,5.935-2.517,11.87-3.787,17.782c-0.993,4.596-0.555,11.27,4.134,11.685c3.81,0.346,6.027-4.157,9.33-6.097      c2.84-1.686,6.281-1.132,9.099,0.67c0.67,0.392,1.293,0.901,1.871,1.432c1.178,1.132,2.171,2.471,2.794,3.926      C471.087,304.687,470.186,310.668,469.078,316.233z"/>
			</g>
			<g>
				<path style="fill:#703427;" d="M464.182,294.133c-12.032,13.464-26.581,26.05-43.439,37.665      c1.131-11.962,2.633-23.901,4.272-35.772l0.254,0.185c5.311-7.136,10.946-14.341,16.373-21.293      c1.247-1.593,2.494-3.21,3.764-4.826c0,0,0,0,0-0.023c0.346-1.732,0.716-3.418,1.062-5.127      c-2.217,2.887-4.457,5.727-6.651,8.545c-4.734,6.05-9.561,12.263-14.249,18.498c1.016-7.228,2.078-14.41,3.141-21.546      c1.316-8.914,2.633-17.874,3.88-26.881c7.921-9.815,15.426-20.068,22.378-30.622c0.161-1.64,0.323-3.257,0.439-4.896      c-6.905,10.692-14.318,21.084-22.216,31.061c1.155-8.66,2.217-17.343,3.118-26.073l0.138-0.069l-0.115-0.207      c1.686-16.351,2.725-32.793,2.563-49.19l0.3,0.162c3.418-6.028,6.628-12.217,9.584-18.521c-0.508-0.669-1.062-1.293-1.663-1.894      c-2.563,5.52-5.335,10.969-8.267,16.304c-0.139-7.113-0.508-14.203-1.155-21.292c-0.785-0.116-1.57-0.162-2.355-0.116      c2.194,23.533,1.316,47.25-0.97,70.874l-21.962-40.991c-0.277,1.155-0.508,2.333-0.739,3.487l22.308,41.638      c-1.639,16.073-3.88,32.054-6.212,47.896c-7.552-7.205-14.341-15.334-20.138-24.11c0.116,1.455,0.231,2.887,0.369,4.342      c0,0.092,0.023,0.208,0.023,0.3c5.658,8.083,12.171,15.611,19.353,22.285c-0.324,2.055-0.624,4.111-0.924,6.166      c-2.24,15.08-4.48,30.345-6.305,45.679c-19.745-19.075-34.894-42.423-44.316-68.172c-0.139,2.055-0.092,4.157,0.023,6.212      c0,0.093,0,0.208,0.023,0.3c0,0.023,0,0.023,0,0.023c9.838,24.341,24.826,46.395,43.924,64.524v0.023      c-1.848,16.073-3.187,32.239-3.487,48.404c0.762,0.277,1.524,0.462,2.286,0.646c0.185-10.969,0.854-21.985,1.848-32.954      c17.759-12.031,33.001-25.172,45.61-39.213C465.475,295.034,464.852,294.525,464.182,294.133z"/>
			</g>
		</g>
		<g>
			<g>
				<path style="fill:#703427;" d="M473.373,341.428l-0.647,7.898l-0.938,1.274l0.753,1.058l-6.974,86.624l-0.3,3.764      c-0.97,11.986-10.992,21.223-23.024,21.223h-29.398c-11.986,0-22.008-9.191-23.001-21.154l-7.621-91.012l0.748-1.176      l-0.956-1.157l-0.508-6.073l-0.115-1.271H473.373z"/>
			</g>
			<g>
				<path style="fill:#602B23;" d="M465.568,438.283l-0.3,3.764c-0.97,11.986-10.992,21.223-23.024,21.223h-29.398      c-11.986,0-22.008-9.191-23.001-21.154l-7.634-91.032l0.379-1.072l-0.574-1.246l-0.509-6.068      c2.587,5.335,4.503,18.429,5.519,21.569c3.349,10.369,7.759,20.415,13.186,29.883c4.573,7.991,10.231,15.888,18.475,19.999      c9.261,4.596,20.415,3.718,29.999,7.598C456.192,424.773,462.45,430.847,465.568,438.283z"/>
			</g>
			<g>
				<path style="fill:#DFA76D;" d="M472.727,349.327l-0.185,2.332c-14.226,1.501-28.498,2.263-42.769,2.263      c-15.889,0-31.754-0.924-47.55-2.818l-0.208-2.333C412.152,352.352,442.567,352.536,472.727,349.327z"/>
			</g>
			<path style="fill:#D18C59;" d="M383.601,348.949c-0.528-0.061-1.057-0.114-1.585-0.177l0.022,0.263l0.185,2.07     c0.655,0.078,1.31,0.145,1.965,0.22C383.999,350.518,383.803,349.726,383.601,348.949z"/>
			<g>
				<g>
					<path style="fill:#FFF1E3;" d="M451.849,383.637c0.225,2.625,1.223,5.805,3.821,6.243c2.561,0.431,4.55-2.181,5.566-4.571       c2.451-5.764,3.107-12.276,1.855-18.413c-1.176-5.766-6.034-7.128-8.831-1.702       C451.577,370.399,451.361,377.949,451.849,383.637z"/>
				</g>
				<g>
					<path style="fill:#FFF1E3;" d="M461.689,402.327c1.185,2.799-0.124,6.028-2.923,7.213c-2.799,1.185-6.028-0.124-7.213-2.923       c-1.184-2.799,0.124-6.028,2.923-7.213C457.275,398.219,460.504,399.528,461.689,402.327z"/>
				</g>
			</g>
		</g>
	</g>
	<g>
		<polygon style="fill:#FF5B44;" points="487.619,482.693 58.373,482.693 138.562,449.675 406.841,449.675   "/>
	</g>
	<g>
		<g>
			<path style="fill:#CF6B58;" d="M190.056,174.124l-97.484,10.43c-21.363,0.362-42.69,3.33-63.766,7.756     c-2.181,0.458-4.437,0.977-6.249,2.575c-1.813,1.598-3.05,4.594-2.311,7.226c1.013,3.612,4.721,4.369,7.751,4.532     c11.958,0.64,23.917,1.28,35.876,1.921c-4.037,3.201-8.189,6.285-11.775,10.253c-1.562,1.729-3.209,3.949-2.965,6.554     c0.23,2.458,2.176,4.204,4.12,4.507c1.944,0.303,3.879-0.502,5.724-1.334c10.807-4.872,21.239-11.068,31.104-18.471     c33.516,2.222,67.599,3.239,101.147,1.999C191.113,199.158,190.171,187.037,190.056,174.124z"/>
		</g>
		<g>
			<path style="fill:#CF6B58;" d="M329.89,179.898l96.936,14.676c21.326,1.295,42.504,5.191,63.366,10.533     c2.158,0.553,4.389,1.17,6.13,2.845c1.741,1.675,2.846,4.723,1.993,7.321c-1.17,3.564-4.907,4.159-7.942,4.189     c-11.975,0.117-23.95,0.235-35.926,0.352c3.893,3.375,7.907,6.637,11.316,10.757c1.485,1.795,3.033,4.085,2.676,6.677     c-0.337,2.445-2.357,4.105-4.312,4.323c-1.955,0.218-3.853-0.671-5.66-1.582c-10.584-5.34-20.736-11.985-30.268-19.812     c-33.581,0.757-67.676,0.284-101.138-2.419C327.741,204.862,329.211,192.794,329.89,179.898z"/>
		</g>
	</g>
	<g>
		<path style="fill:#AFCBD3;" d="M187.796,169.309c0,0,23.88-3.439,78.518-1.867c54.638,1.572,77.831,7.076,77.831,7.076    l-6.683,51.887l-23.978-0.393l-6.683,48.742l-86.478-1.179l-5.896-51.887l-26.336-1.179    C188.09,220.508,183.963,190.24,187.796,169.309z"/>
	</g>
	<g>
		<path style="fill:#CF6B58;" d="M337.314,98.052c-3.733-2.257-7.769-1.888-11.486-0.121c-2.204-32.16-27.588-57.537-58.594-57.537    c-31.022,0-56.417,25.403-58.597,57.587c-3.868-2.001-8.121-2.529-12.042-0.159c-4.366,2.64-6.667,8.132-5.898,13.176    c0.768,5.044,4.371,9.46,8.986,11.635c3.821,1.801,8.236,2.11,12.374,1.206c5.613,16.171,17.402,29.198,32.367,35.857    c3.664,1.632,7.518,2.871,11.512,3.694v3.609c0,5.078,4.116,9.194,9.193,9.194h3.861c5.077,0,9.194-4.116,9.194-9.194v-3.534    c3.743-0.745,7.362-1.857,10.818-3.31c15.241-6.436,27.346-19.409,33.178-35.64c0.042-0.117,0.078-0.237,0.119-0.354    c4.007,0.786,8.242,0.438,11.926-1.298c4.615-2.175,8.218-6.592,8.986-11.635C343.98,106.184,341.68,100.692,337.314,98.052z"/>
	</g>
	<g>
		<g>
			<g>
				<g>
					<path style="fill:#C65D4F;" d="M252.626,141.461c0,7.253-3.177,13.77-8.203,18.234c-15.108-6.722-26.988-19.93-32.535-36.314       c4.321-3.923,10.062-6.303,16.354-6.303C241.707,117.078,252.626,127.998,252.626,141.461z"/>
				</g>
				<g>
					<path style="fill:#C65D4F;" d="M322.18,124.515c-5.832,16.231-17.938,29.205-33.178,35.64       c-5.332-4.474-8.724-11.186-8.724-18.693c0-13.463,10.91-24.383,24.383-24.383C311.537,117.078,317.757,119.928,322.18,124.515       z"/>
				</g>
			</g>
			<g>
				<g>
					<g>
						<path style="fill:#241E1C;" d="M266.762,137.327c-0.046,0-0.091,0-0.137-0.001c-3.355-0.052-7.211-2.048-7.747-6.304        c-0.031-0.247,0.144-0.473,0.391-0.504c0.253-0.024,0.473,0.144,0.504,0.391c0.469,3.723,3.888,5.468,6.867,5.515        c2.651,0.072,5.981-1.255,6.581-5.052c0.039-0.245,0.271-0.411,0.516-0.375c0.246,0.039,0.414,0.27,0.375,0.516        C273.473,135.542,269.985,137.327,266.762,137.327z"/>
					</g>
					<g>
						<g>
							<path style="fill:#FFFFFF;" d="M294.658,130.258c1.544,0.256,3.153,0.313,4.794,0.136         c9.695-1.044,16.714-9.747,15.668-19.452c-1.044-9.695-9.756-16.713-19.451-15.668c-1.641,0.177-3.201,0.575-4.655,1.154         L294.658,130.258z"/>
						</g>
						<g>
							<path style="fill:#241E1C;" d="M280,114.726c0.869,8.063,7.037,14.271,14.658,15.532         c7.178-2.856,11.882-10.234,11.013-18.298c-0.868-8.054-7.036-14.271-14.658-15.532         C283.835,99.283,279.132,106.671,280,114.726z"/>
						</g>
					</g>
					<g>
						<g>
							<path style="fill:#FFFFFF;" d="M235.389,128.203c1.553,0.192,3.163,0.182,4.795-0.063         c9.644-1.446,16.294-10.433,14.847-20.086c-1.446-9.644-10.442-16.293-20.086-14.847c-1.632,0.245-3.174,0.708-4.603,1.346         L235.389,128.203z"/>
						</g>
						<g>
							<path style="fill:#241E1C;" d="M220.099,113.293c1.203,8.021,7.623,13.966,15.29,14.91         c7.053-3.151,11.447-10.718,10.244-18.739c-1.202-8.011-7.623-13.966-15.291-14.91         C223.289,97.705,218.897,105.282,220.099,113.293z"/>
						</g>
					</g>
				</g>
				<g>
					<path style="fill:#703427;" d="M225.191,95.32c0.731,0.614,1.79,0.587,2.741,0.499c2.954-0.274,24.046-5.583,14.132-10.017       C237.633,83.821,219.577,90.604,225.191,95.32z"/>
				</g>
				<g>
					<path style="fill:#703427;" d="M309.59,95.618c-0.625,0.66-1.629,0.75-2.538,0.769c-2.823,0.061-23.34-2.67-14.447-7.937       C296.579,86.096,314.385,90.55,309.59,95.618z"/>
				</g>
			</g>
		</g>
		<g>
			<path style="fill:#703427;" d="M326.756,94.118c1.7-17.436-4.542-28.936-14.128-40.568c-10.33-12.54-25.824-20.646-41.947-21.939     c-12.69-1.036-25.989,2.535-37.026,9.321c-0.007-0.425-0.02-0.847-0.05-1.251c-0.312-4.236-2.499-8.604-6.396-10.293     c-1.613-0.699-3.649-0.838-4.995,0.292c-0.932,0.782-1.359,2.045-1.365,3.262c-0.006,1.217,0.364,2.404,0.796,3.541     c1.14,2.999,2.86,6.441,4.91,9.53c-0.022,0.018-0.044,0.037-0.067,0.056c-1.381-1.96-3.031-3.777-4.66-5.131     c-3.266-2.715-7.928-4.173-11.849-2.541c-1.622,0.676-3.136,2.045-3.257,3.798c-0.084,1.214,0.529,2.398,1.401,3.247     c0.872,0.848,1.982,1.406,3.101,1.884c2.486,1.063,5.486,2.053,8.549,2.741c-5.652,3.635-9.823,9.381-12.817,15.37     c-2.763,5.525-5.357,18.849-0.568,31.313c0.855,5.452,3.692,14.789,5.814,13.888c0.499-0.212,0.796-0.72,1.055-1.196     c2.428-4.465,4.609-9.064,6.53-13.769c0.26-0.637,0.511-1.294,0.722-1.96c5.087-4.621,9.389-10.121,11.856-15.942     c1.53-3.608,2.579-7.399,3.155-11.257c0.688,0.676,1.395,1.33,2.123,1.955c6.374,5.496,15.331,11.016,23.032,14.364     c9.166,3.995,18.309,7.205,27.592,9.676c-3.513-4.965-6.096-10.6-7.538-16.489c6.165,7.597,13.447,14.156,21.52,19.699     c3.911,0.736,7.725,1.272,11.587,1.689c1.74,4.1,3.665,8.121,5.793,12.033c0.259,0.477,0.556,0.984,1.055,1.196     c1.92,0.816,4.424-6.744,5.517-12.231c0.002,0,0.003,0,0.005,0c0.004-0.025,0.006-0.049,0.01-0.075     C326.561,96.607,326.761,95.092,326.756,94.118z"/>
		</g>
	</g>
	<g>
		<g>
			<path style="fill:#CF6B58;" d="M133.845,436.113c0,0,0.295,16.804-2.948,20.932c-3.243,4.127-30.366,10.613-28.892,17.689     c1.195,5.737,45.034,2.17,61.575,0.616c3.54-0.333,6.253-3.287,6.281-6.843l0.246-30.919L133.845,436.113z"/>
		</g>
		<g>
			<path style="fill:#CF6B58;" d="M383.452,438.668l9.532,15.429c0,0,1.081,14.053,5.405,17.983     c4.324,3.931,66.234,4.717,66.824-1.376c0.723-7.475-38.129-20.637-40.487-25.747c-2.359-5.11-7.862-16.116-7.862-16.116     L383.452,438.668z"/>
		</g>
		<g>
			<path style="fill:#241E1C;" d="M218.161,263.747l-1.179,13.758c0,0-67.217,37.146-80.778,72.524     c-13.561,35.378-3.341,88.247-3.341,88.247s38.325,1.769,38.325-0.196c0-12.655-0.307-26.639,2.485-38.965     c3.295-14.543,13.939-25.704,25.978-33.838c9.271-6.264,19.509-10.972,29.569-15.798c5.717-2.743,11.463-5.426,17.236-8.05     c1.732-0.787,15.548-8.178,16.517-7.32c0,0,121.462,112.029,121.462,112.029l40.094-9.434l-114.976-157.43l-1.769-10.023     L218.161,263.747z"/>
		</g>
	</g>
	<g>
		<path style="fill:#241E1C;" d="M218.947,264.526c-0.194,0-0.362-0.146-0.383-0.344l-5.307-47.957    c-0.024-0.212,0.129-0.402,0.341-0.426c0.211-0.019,0.403,0.13,0.426,0.342l5.307,47.957c0.024,0.212-0.129,0.402-0.341,0.426    C218.976,264.525,218.961,264.526,218.947,264.526z"/>
	</g>
	<g>
		<path style="fill:#241E1C;" d="M307.195,270.619c-0.019,0-0.037-0.001-0.056-0.004c-0.211-0.031-0.357-0.227-0.326-0.438    l7.272-49.726c0.031-0.211,0.225-0.354,0.438-0.326c0.211,0.031,0.357,0.227,0.326,0.438l-7.272,49.726    C307.548,270.481,307.383,270.619,307.195,270.619z"/>
	</g>
	<g>
		<g>
			<path style="fill:#FFF1E3;" d="M446.316,88.767l-9.214,9.087l0.089,12.948c0.046,6.679-5.38,12.105-12.059,12.059l-12.948-0.089     l-9.087,9.214c-4.69,4.756-12.365,4.756-17.055,0l-9.087-9.214l-12.948,0.089c-6.679,0.046-12.105-5.38-12.059-12.059     l0.089-12.948l-9.214-9.087c-4.756-4.69-4.756-12.365,0-17.055l9.214-9.087l-0.089-12.948     c-0.046-6.679,5.38-12.105,12.059-12.059l12.947,0.089l9.087-9.214c4.69-4.757,12.365-4.757,17.055,0l9.087,9.214l12.948-0.089     c6.679-0.046,12.105,5.38,12.059,12.059l-0.089,12.948l9.214,9.087C451.072,76.402,451.072,84.077,446.316,88.767z"/>
		</g>
		<g>
			<path style="fill:#DFA76D;" d="M437.677,61.897c-0.068-0.163-0.254-0.239-0.415-0.172L409.544,73.19     c-1.722-3.699-4.874-6.587-8.752-7.962l11.727-28.273c0.067-0.163-0.01-0.348-0.172-0.415c-0.16-0.068-0.347,0.01-0.415,0.171     l-11.739,28.302c-1.424-0.438-2.935-0.676-4.503-0.676c-2.403,0-4.667,0.569-6.69,1.557l-12.078-29.2     c-0.067-0.164-0.255-0.24-0.415-0.172c-0.162,0.067-0.239,0.252-0.172,0.413l12.092,29.234c-3.169,1.714-5.651,4.52-6.973,7.908     l-29.887-12.397c-0.16-0.067-0.347,0.009-0.415,0.171c-0.067,0.162,0.01,0.348,0.172,0.415l29.911,12.407     c-0.533,1.555-0.836,3.217-0.836,4.953c0,1.84,0.342,3.596,0.937,5.229l-30.031,12.422c-0.162,0.067-0.239,0.252-0.172,0.413     c0.051,0.123,0.169,0.197,0.293,0.197c0.041,0,0.082-0.008,0.121-0.025l30.006-12.411c1.362,3.3,3.843,6.017,6.974,7.681     l-12.236,29.499c-0.067,0.163,0.01,0.348,0.172,0.415c0.04,0.017,0.081,0.025,0.121,0.025c0.124,0,0.243-0.074,0.293-0.196     l12.222-29.466c1.997,0.956,4.225,1.508,6.587,1.508c1.517,0,2.98-0.229,4.363-0.64l11.836,28.615     c0.051,0.123,0.169,0.197,0.293,0.197c0.041,0,0.082-0.008,0.121-0.025c0.162-0.067,0.239-0.252,0.172-0.414l-11.82-28.575     c3.837-1.319,6.975-4.117,8.746-7.719l27.842,11.549c0.039,0.017,0.081,0.025,0.121,0.025c0.124,0,0.243-0.074,0.293-0.196     c0.067-0.162-0.01-0.348-0.172-0.415l-27.809-11.535c0.831-1.885,1.301-3.965,1.301-6.158c0-2.077-0.418-4.056-1.169-5.862     l27.694-11.455C437.667,62.243,437.744,62.058,437.677,61.897z"/>
		</g>
	</g>
	<g>
		<g>
			<g>
				<path style="fill:#FFF1E3;" d="M120.451,457.871l-9.214,9.087l0.089,12.949c0.046,6.679-5.38,12.105-12.059,12.059      l-12.948-0.089l-9.087,9.214c-4.691,4.756-12.365,4.756-17.056,0l-9.087-9.214l-12.949,0.089      c-6.679,0.046-12.105-5.38-12.059-12.059l0.089-12.948l-9.214-9.087c-4.756-4.69-4.756-12.365,0-17.055l9.214-9.087      l-0.089-12.948c-0.046-6.679,5.38-12.105,12.059-12.059l12.948,0.089l9.087-9.214c4.69-4.756,12.365-4.756,17.056,0l9.087,9.214      l12.948-0.089c6.679-0.046,12.105,5.38,12.059,12.059l-0.089,12.948l9.214,9.087      C125.207,445.506,125.207,453.181,120.451,457.871z"/>
			</g>
		</g>
		<g>
			<path style="fill:#DFA76D;" d="M111.812,431.001c-0.067-0.164-0.254-0.24-0.415-0.172l-27.718,11.465     c-1.722-3.699-4.874-6.586-8.752-7.961l11.727-28.273c0.067-0.163-0.01-0.348-0.172-0.415c-0.16-0.067-0.347,0.01-0.415,0.171     l-11.739,28.302c-1.424-0.438-2.935-0.676-4.503-0.676c-2.403,0-4.667,0.57-6.69,1.557l-12.078-29.199     c-0.068-0.164-0.255-0.24-0.415-0.172c-0.162,0.067-0.239,0.252-0.172,0.413l12.092,29.234c-3.169,1.714-5.651,4.52-6.973,7.908     l-29.887-12.397c-0.16-0.068-0.347,0.01-0.415,0.171c-0.067,0.163,0.01,0.348,0.172,0.415l29.912,12.407     c-0.533,1.555-0.836,3.217-0.836,4.953c0,1.84,0.342,3.596,0.937,5.229l-30.031,12.421c-0.162,0.067-0.239,0.252-0.172,0.414     c0.051,0.123,0.169,0.197,0.293,0.197c0.041,0,0.082-0.008,0.121-0.025l30.006-12.411c1.362,3.3,3.843,6.017,6.974,7.68     l-12.236,29.499c-0.067,0.163,0.01,0.348,0.172,0.415c0.04,0.017,0.081,0.025,0.121,0.025c0.124,0,0.243-0.074,0.293-0.196     l12.222-29.467c1.997,0.957,4.225,1.508,6.587,1.508c1.517,0,2.98-0.229,4.363-0.64l11.837,28.616     c0.051,0.123,0.169,0.197,0.293,0.197c0.041,0,0.082-0.008,0.121-0.025c0.162-0.067,0.239-0.252,0.172-0.413l-11.82-28.575     c3.837-1.319,6.975-4.117,8.746-7.719l27.842,11.549c0.039,0.017,0.081,0.025,0.121,0.025c0.124,0,0.243-0.074,0.293-0.196     c0.067-0.163-0.01-0.348-0.172-0.415L83.814,454.89c0.831-1.885,1.301-3.965,1.301-6.158c0-2.078-0.418-4.056-1.169-5.862     l27.694-11.455C111.802,431.348,111.879,431.162,111.812,431.001z"/>
		</g>
	</g>
	<g>
		<g>
			<path style="fill:#FFF1E3;" d="M349.753,280.682c-2.96-5.75-8.169-9.992-14.466-11.342c-0.868-0.186-1.178-1.245-0.527-1.848     c5.217-4.832,9.006-11.193,10.792-18.076c0.257-0.991,1.61-1.075,2.027-0.139c2.939,6.595,8.548,11.646,15.208,14.788     c0.723,0.341,0.827,1.328,0.193,1.816c-4.856,3.737-9.168,8.956-11.269,14.684C351.39,281.439,350.179,281.51,349.753,280.682z"/>
		</g>
		<g>
			<path style="fill:#FFF1E3;" d="M367.528,165.35c-2.494-4.845-6.884-8.42-12.19-9.558c-0.731-0.157-0.993-1.049-0.444-1.557     c4.397-4.072,7.589-9.432,9.094-15.232c0.217-0.835,1.357-0.905,1.708-0.117c2.477,5.557,7.203,9.814,12.815,12.462     c0.609,0.288,0.697,1.119,0.163,1.531c-4.092,3.149-7.726,7.547-9.496,12.374C368.907,165.988,367.887,166.048,367.528,165.35z"/>
		</g>
		<g>
			<path style="fill:#FFF1E3;" d="M261.141,417.942c-2.96-5.75-8.169-9.992-14.466-11.342c-0.868-0.186-1.178-1.244-0.527-1.847     c5.217-4.833,9.006-11.193,10.792-18.076c0.257-0.991,1.61-1.075,2.027-0.139c2.939,6.595,8.548,11.646,15.208,14.789     c0.723,0.341,0.827,1.328,0.193,1.816c-4.856,3.737-9.168,8.956-11.269,14.684C262.779,418.699,261.568,418.77,261.141,417.942z"/>
		</g>
		<g>
			<path style="fill:#FFF1E3;" d="M175.421,136.421c-2.96-5.75-8.169-9.992-14.465-11.342c-0.868-0.186-1.178-1.245-0.527-1.848     c5.217-4.832,9.006-11.193,10.792-18.076c0.257-0.991,1.61-1.074,2.027-0.139c2.94,6.595,8.548,11.646,15.208,14.788     c0.723,0.341,0.827,1.328,0.193,1.816c-4.856,3.737-9.168,8.956-11.27,14.684C177.058,137.178,175.847,137.249,175.421,136.421z"/>
		</g>
		<g>
			<path style="fill:#FFF1E3;" d="M156.533,162.272c-2.076-4.034-5.731-7.01-10.148-7.957c-0.609-0.13-0.827-0.873-0.37-1.296     c3.66-3.39,6.318-7.852,7.572-12.681c0.18-0.695,1.13-0.754,1.422-0.098c2.062,4.626,5.997,8.17,10.669,10.375     c0.507,0.239,0.58,0.932,0.136,1.274c-3.407,2.622-6.432,6.283-7.906,10.301C157.682,162.803,156.832,162.853,156.533,162.272z"/>
		</g>
	</g>
	<g>
		<g>
			<path style="fill:#241E1C;" d="M334.823,107.508c-1.801-3.044-5.841-4.548-9.197-3.428c-0.183,0.061-0.281,0.259-0.221,0.442     c0.061,0.183,0.258,0.28,0.442,0.22c2.489-0.83,5.37-0.059,7.247,1.746c-3.671,0.821-6.552,3.563-7.73,7.42     c-0.056,0.184,0.048,0.379,0.232,0.435c0.034,0.011,0.069,0.016,0.102,0.016c0.149,0,0.288-0.097,0.334-0.247     c1.133-3.71,3.934-6.333,7.493-7.017c0.039-0.008,0.059-0.042,0.092-0.061c0.219,0.263,0.428,0.535,0.603,0.832     c1.642,2.772,1.074,6.657-1.292,8.843c-0.142,0.131-0.151,0.353-0.02,0.493c0.069,0.075,0.163,0.112,0.256,0.112     c0.085,0,0.17-0.031,0.237-0.092C336.002,114.819,336.625,110.553,334.823,107.508z"/>
		</g>
		<g>
			<path style="fill:#241E1C;" d="M200.813,106.257c1.877-1.805,4.759-2.577,7.248-1.746c0.181,0.06,0.381-0.038,0.442-0.22     c0.061-0.183-0.038-0.381-0.22-0.442c-3.356-1.122-7.395,0.385-9.197,3.428c-1.802,3.045-1.178,7.311,1.419,9.713     c0.068,0.062,0.152,0.093,0.237,0.093c0.094,0,0.188-0.037,0.256-0.112c0.131-0.141,0.122-0.362-0.019-0.492     c-2.365-2.188-2.934-6.073-1.292-8.845c0.175-0.296,0.385-0.568,0.603-0.831c0.033,0.019,0.054,0.054,0.093,0.061     c3.558,0.682,6.359,3.305,7.493,7.017c0.046,0.151,0.185,0.247,0.334,0.247c0.033,0,0.068-0.005,0.102-0.016     c0.184-0.056,0.288-0.251,0.232-0.435C207.365,109.819,204.484,107.077,200.813,106.257z"/>
		</g>
	</g>
	<g>
		<path style="fill:#BA4532;" d="M278.184,163.346v3.193c-1.89,1.542-4.321,2.401-6.732,2.88c-3.636,0.715-7.467,0.695-10.981-0.47    c-1.614-0.542-3.167-1.328-4.536-2.35v-3.255H278.184z"/>
	</g>
</g>















</svg>
