<?xml version="1.0" encoding="UTF-8"?>
<!-- Generator: Adobe Illustrator 25.0.0, SVG Export Plug-In . SVG Version: 6.00 Build 0)  -->
<svg xmlns="http://www.w3.org/2000/svg" xmlns:xlink="http://www.w3.org/1999/xlink" version="1.1" id="Capa_1" x="0px" y="0px" viewBox="0 0 512 512" style="enable-background:new 0 0 512 512;" xml:space="preserve" width="512" height="512">
<style type="text/css">
	.st0{fill:#FFFFFF;}
	.st1{fill:#FFBDB5;}
	.st2{fill:#703427;}
	.st3{fill:#5B2820;}
	.st4{fill:#F8E5D7;}
	.st5{fill:#FF9A7B;}
	.st6{fill:#EA816A;}
	.st7{fill:#FF5B44;}
</style>
<g>
	<path class="st0" d="M500.814,264.871c-6.652-37.077-24.521-101.8-46.85-135.276c0.687,0.17,1.374,0.334,2.063,0.491   c0.434,0.099,0.905,0.152,1.351,0.152c5.583,0,6.738-5.124,9.04-15.332c1.184-5.254,2.376-11.309,2.571-12.67   c1.404-9.793,1.551-18.005,0.465-25.842c-1.545-11.14-6.889-18.573-15.047-20.93c-1.647-0.475-3.351-0.716-5.065-0.716   c-6.448,0-12.566,3.322-16.365,8.886c-1.943,2.846-3.268,6.214-3.946,9.977c-1.957-0.657-4.057-1.152-6.276-1.357   c-0.683-0.063-1.378-0.096-2.065-0.096c-6.142,0-11.646,2.43-15.101,6.668c-1.805,2.214-2.983,4.874-3.523,7.729   c-0.804-0.478-1.617-0.948-2.427-1.421c0.448-0.351,0.885-0.745,1.312-1.199c0.861-0.905,1.626-2.028,2.341-3.437   c0.823-1.623,1.334-3.068,1.564-4.442c0.372-2.274-0.095-4.432-1.369-6.265c-0.529-0.753-1.086-1.39-1.677-1.92   c0.244-0.221,0.486-0.459,0.726-0.714c0.854-0.907,1.611-2.023,2.319-3.417c0.824-1.627,1.333-3.073,1.561-4.436   c0.027-0.163,0.049-0.324,0.067-0.484c0.267,0.056,0.544,0.106,0.833,0.15c0.441,0.064,0.883,0.097,1.314,0.097   c1.222,0,2.382-0.255,3.433-0.75c1.082-0.506,2.087-1.261,3.067-2.302c0.859-0.91,1.62-2.03,2.327-3.427   c0.828-1.636,1.339-3.086,1.561-4.435c0.371-2.26-0.116-4.487-1.362-6.257c-0.786-1.124-1.638-1.992-2.611-2.657   c-0.588-0.401-1.334-0.827-2.349-1.343l-19.78-10.041c-2.202-1.114-4.161-1.655-5.991-1.655c-0.882,0-1.738,0.127-2.553,0.38   c-2.564,0.802-4.607,2.759-6.249,5.986l-0.372,0.734c-0.495-1.684-1.174-3.349-2.038-4.992c-3.366-6.406-8.43-10.795-15.046-13.042   c-1.092-0.372-2.73-0.936-4.91-1.694c-2.224-0.775-3.872-1.346-4.938-1.705c-1.726-0.587-3.232-0.887-4.611-0.917   c-0.042-0.001-0.163-0.002-0.205-0.002c-2.233,0-4.239,0.773-5.807,2.239c-0.981,0.921-1.707,1.86-2.247,2.931   c-0.313,0.639-0.633,1.45-1.004,2.548l-5.105,15.051l-6.226-21.591c-1.284-4.224-4.428-7.059-8.632-7.778   c-0.601-0.102-1.213-0.154-1.818-0.154c-1.422,0-2.832,0.281-4.179,0.831c-1.984,0.804-3.608,2.084-4.816,3.788l-13.17,18.453   L292.924,10.9c-0.005-1.133-0.051-1.992-0.14-2.684c-0.149-1.181-0.54-2.351-1.207-3.598c-1.038-1.92-2.813-3.35-4.973-4.018   c-1.283-0.404-2.749-0.6-4.482-0.6l-0.143,0.001c-4.384,0.021-7.525,1.366-9.343,3.998c-1.586,2.027-4.247,5.523-7.941,10.434   l-8.082-10.515c-0.168-0.218-0.351-0.425-0.547-0.618l-0.248-0.243c-1.227-1.28-2.758-1.893-3.83-2.247   c-1.315-0.435-2.804-0.655-4.522-0.655c-0.001,0-0.002,0-0.003,0c-1.825,0.013-3.341,0.219-4.638,0.634   c-2.172,0.695-3.87,2.064-4.919,3.971c-0.019,0.035-0.033,0.069-0.051,0.104c-0.955-1.089-2.151-1.902-3.558-2.385   c-1.188-0.398-2.283-0.591-3.347-0.591c-0.053,0-0.206,0.003-0.259,0.004c-0.706,0.019-1.547,0.113-2.733,0.307l-21.886,3.6   c-3.586,0.591-6.088,1.906-7.649,4.024c-0.549,0.746-0.957,1.57-1.246,2.469c-0.196-0.214-0.399-0.425-0.616-0.631   c-1.566-1.486-3.585-2.271-5.839-2.271c-0.029,0-0.126,0.001-0.155,0.002c-1.375,0.02-2.872,0.308-4.573,0.878   c-4.154,1.389-6.717,3.648-7.624,6.717c-0.884,2.458-2.317,6.612-4.279,12.398l-10.967-7.455c-0.216-0.146-0.442-0.279-0.675-0.396   l-0.321-0.161c-1.58-0.847-3.236-0.949-4.378-0.949c-1.411,0.001-2.919,0.267-4.48,0.79c-1.741,0.583-3.125,1.258-4.227,2.062   c-1.847,1.346-3.03,3.181-3.416,5.282c-0.251,1.338-0.264,2.608-0.035,3.8c0.136,0.697,0.369,1.526,0.732,2.61l0.663,1.981   c-1.9-1.115-3.944-2.02-6.165-2.653c-2.566-0.73-5.135-1.1-7.635-1.1c-4.307,0-8.484,1.086-12.419,3.228   c-2.98,1.624-5.571,3.825-7.702,6.541c-2.082,2.653-3.636,5.624-4.619,8.833c-0.595,1.947-0.938,3.991-1.039,6.109l-0.676-0.878   c-0.521-0.678-0.924-1.176-1.196-1.492c-0.594-0.693-1.319-1.323-2.199-1.913c-1.406-0.95-2.992-1.459-4.639-1.471   c-1.18,0-2.395,0.249-3.717,0.761c-1.171,0.455-2.339,1.14-3.551,2.078c-1.465,1.122-2.557,2.218-3.335,3.342   c-1.324,1.907-1.83,4.067-1.467,6.211c0.221,1.358,0.618,2.515,1.211,3.537c0.348,0.599,0.82,1.281,1.546,2.232l3.413,4.433   l-2.402,1.848l-3.38-4.394c-0.513-0.665-0.91-1.155-1.202-1.498c-0.592-0.689-1.317-1.317-2.189-1.901   c-1.412-0.956-3.004-1.466-4.646-1.475c-1.177,0-2.39,0.248-3.708,0.759c-1.164,0.451-2.33,1.132-3.57,2.086   c-1.455,1.121-2.542,2.214-3.311,3.322c-1.33,1.903-1.84,4.064-1.476,6.239c0.221,1.335,0.628,2.52,1.215,3.531   c0.355,0.607,0.845,1.313,1.542,2.219l19.061,24.766c0.505,0.654,0.892,1.138,1.164,1.457c-3.66,3.853-7.217,8.024-10.432,12.016   c0.593-5.685-0.818-10.746-4.225-14.778c-3.545-4.195-8.865-6.601-14.595-6.601c-2.671,0-5.284,0.508-7.767,1.51   c-3.196,1.29-6.167,3.358-8.818,6.112c-1.264-1.632-2.736-3.209-4.468-4.611c-3.82-3.091-8.417-4.793-12.943-4.793   c-1.715,0-3.392,0.249-4.987,0.74c-7.169,2.209-12.448,9.373-13.138,17.828c-0.568,6.971,1.751,13.384,4.094,18.736   c5.52,12.609,13.117,24.07,22.577,34.065c1.142,1.206,2.757,1.899,4.432,1.9c0.002,0,0.004,0,0.006,0   c2.26,0,3.84-0.591,10.164-6.447c-8.597,14.848-15.736,29.708-18.866,41.178c-10.081,36.97,6.531,114.671,19.37,154.961   c4.391,13.795,10.877,27.641,21.031,44.896c11.952,20.294,21.521,35.472,31.022,49.208c6.665,9.659,13.687,18.608,20.87,26.596   c5.867,6.527,12.096,12.625,18.507,18.119c1.299,1.117,2.561,2.346,3.897,3.647c1.228,1.195,2.498,2.432,3.856,3.634   c0.615,0.543,1.759,1.555,3.535,2.07c0.705,0.204,1.444,0.307,2.196,0.307c1.342,0,2.459-0.333,3.058-0.511   c12.819-3.817,25.988-9.861,40.233-18.467c0.888-0.219,1.632-0.467,2.292-0.764c1.405-0.633,2.597-1.611,3.474-2.812   c0.307-0.196,0.616-0.394,0.925-0.593c0.621,1.311,1.352,2.592,2.192,3.841c4.22,6.272,10.171,10.134,17.688,11.478   c1.601,0.286,3.203,0.431,4.762,0.431c5.536,0,10.725-1.786,15.424-5.309c1.534-1.15,2.917-2.402,4.148-3.753l0.019,0.92   c0.021,0.885,0.046,1.551,0.076,1.913c0.062,0.915,0.274,1.871,0.648,2.918c0.58,1.629,1.575,2.999,2.842,3.933   c0.963,0.721,2.113,1.258,3.545,1.65c1.11,0.297,2.331,0.442,3.735,0.442l0.416-0.004c1.858-0.036,3.406-0.27,4.753-0.724   c2.217-0.755,3.921-2.205,4.926-4.192c0.623-1.231,0.99-2.383,1.121-3.523c0.084-0.727,0.11-1.632,0.081-2.833l-0.104-5.015   l5.42-0.113c0.869-0.018,1.521-0.046,1.973-0.079c0.911-0.068,1.854-0.281,2.888-0.651c1.613-0.579,2.973-1.566,3.917-2.835   c0.68-0.906,1.195-1.975,1.573-3.271c0.163,0.181,0.33,0.359,0.5,0.535l2.266,11.312c0.17,0.842,0.311,1.47,0.42,1.901   c0.225,0.883,0.598,1.775,1.15,2.745c0.856,1.491,2.07,2.657,3.477,3.357c1.069,0.541,2.296,0.868,3.773,1.004   c0.324,0.029,0.664,0.044,1.021,0.044c0.977,0,2.013-0.112,3.171-0.343c1.84-0.369,3.329-0.879,4.507-1.535   c2.037-1.113,3.508-2.894,4.135-4.993c0.398-1.314,0.558-2.511,0.491-3.65c-0.041-0.713-0.166-1.556-0.419-2.833l-0.308-1.539   l16.82-5.959l1.624,4.135c0.334,0.85,0.595,1.476,0.75,1.804c0.382,0.842,0.909,1.659,1.597,2.481   c1.108,1.334,2.519,2.278,4.073,2.729c0.826,0.241,1.73,0.362,2.688,0.362c0.363,0,0.753-0.017,1.116-0.051   c1.271-0.104,2.619-0.443,4.113-1.033l21.358-8.389c0.815-0.319,1.423-0.572,1.854-0.768c0.807-0.372,1.603-0.887,2.486-1.617   c1.308-1.107,2.236-2.504,2.681-4.03c0.098-0.335,0.176-0.678,0.234-1.032c0.824,0.393,1.687,0.642,2.552,0.732   c0.304,0.034,0.625,0.053,0.961,0.053c0.918,0,1.872-0.138,2.913-0.422c1.216-0.331,2.467-0.896,3.832-1.733l19.552-12.038   c0.754-0.465,1.316-0.826,1.658-1.065c0.751-0.521,1.456-1.18,2.157-2.017c1.101-1.318,1.775-2.859,1.949-4.454   c0.131-1.191,0.009-2.451-0.375-3.867c-0.336-1.227-0.903-2.477-1.731-3.819c-0.981-1.594-1.971-2.81-3.016-3.711   c-0.307-0.266-0.625-0.507-0.953-0.725c12.568,1.612,28.763,3.197,43.845,3.197c0.002,0,0.002,0,0.003,0   c12.424,0,22.565-1.089,30.18-3.247c3.846-1.12,5.096-4.643,7.798-13.213c0.297-0.943,0.531-1.704,0.663-2.054   c3.106-7.859,5.765-16.161,7.905-24.673c2.62-10.417,4.65-21.609,6.031-33.26c1.986-16.586,3.357-34.476,4.448-58.01   C504.105,294.39,503.373,279.118,500.814,264.871z"/>
	<path class="st1" d="M391.728,142.699c-58.035-74.962-165.851-88.684-240.813-30.648c-74.962,58.035-88.684,165.851-30.648,240.813   c36.582,47.252,92.944,70.16,148.389,66.112l22.749,64.22c1.333,3.764,5.465,5.734,9.229,4.401l36.938-13.085   c3.764-1.333,5.734-5.465,4.401-9.229l-20.784-58.674c13.955-5.737,27.382-13.412,39.892-23.097   C436.041,325.476,449.763,217.66,391.728,142.699z"/>
	<ellipse class="st2" cx="255.994" cy="247.781" rx="151.172" ry="151.172"/>
	<path class="st3" d="M402.308,285.872c7.343-40.685-1.925-84.199-29.233-119.471c-51.125-66.036-146.06-78.119-212.096-26.993   c-27.434,21.239-45.555,50.015-53.69,81.205c6.461-35.365,25.5-68.619,56.173-92.366c66.014-51.108,160.948-39.025,212.056,26.988   C405.351,193.769,413.656,242.123,402.308,285.872z"/>
	<path class="st4" d="M349.3,161.332c-1.654,1.117-3.92,0.959-5.405-0.491c-10.57-10.325-21.51-15.373-21.62-15.422   c-2.16-0.984-3.113-3.533-2.129-5.693c0.984-2.155,3.532-3.114,5.692-2.129c0.502,0.229,12.428,5.732,24.062,17.095   c1.697,1.659,1.729,4.379,0.071,6.077C349.764,160.983,349.538,161.172,349.3,161.332z"/>
	<path class="st4" d="M395.014,253.612c-0.604,0.408-1.321,0.668-2.102,0.722c-2.368,0.165-4.422-1.619-4.587-3.987   c-3.184-45.381-30.028-73.321-30.298-73.598c-1.658-1.696-1.632-4.414,0.061-6.074c1.678-1.66,4.409-1.638,6.072,0.053   c1.196,1.216,29.325,30.348,32.739,79.019C397.011,251.334,396.244,252.782,395.014,253.612z"/>
	<path class="st4" d="M124.077,238.06c-0.53,5.478-0.339,11.148,1.667,16.272c2.007,5.125,6.044,9.653,11.311,11.252   c5.266,1.599,11.672-0.297,14.453-5.046c3.692-6.306,0.175-14.282,0.74-21.568c0.649-8.385,7.213-25.977-7.571-26.456   C131.439,212.087,125.127,227.21,124.077,238.06z"/>
	<path class="st4" d="M149.121,197.297c8.19,8.459,21.566-4.753,11.778-12.937C151.942,176.869,141.388,189.31,149.121,197.297z"/>
	<path class="st4" d="M330.781,237.972c-4.681-11.34-15.712-19.803-27.877-21.387c-11.277-1.469-23.068,3.078-30.657,11.518   c0.863-11.444-4.144-23.23-13.178-30.34c-9.64-7.587-23.404-9.554-34.783-4.97c-14.708,5.925-23.91,21.658-25.304,37.453   s3.935,31.517,11.504,45.45c7.215,13.281,16.441,25.342,24.691,38.008l0.329,0.533c14.823-2.962,31.129-4.294,45.667-8.425   c15.253-4.334,30.217-11.52,40.533-23.562C332.022,270.209,336.832,252.629,330.781,237.972z"/>
	<path class="st5" d="M232.655,451.614l-8.718-18.064c0.06-7.694-0.271-14.922-0.923-21.723   c-8.17-85.113-67.826-101.376-67.826-101.376s-2.944-8.71-18.407-51.615c-15.466-42.86-39.563-53.054-39.563-53.054   s2.657-4.35,6.591-11.261c1.052-1.902,2.203-3.955,3.358-6.052c2.954-5.407,6.307-11.707,9.62-18.391   c0.005-0.009,0.009-0.018,0.013-0.027c19.919-24.239,57.065-67.26,36.608-79.642c-0.499-0.305-1.552,0.413-2.116,0.146   c-11.677-5.471-21.454,4.602-29.618,12.471c-0.156,0.156-3.594-0.628-3.728-0.492c-1.151-0.214-2.395-0.367-3.644-0.453   c-0.715-0.049-21.795,14.318-34,30.173c-18.694,24.34-38.15,57.74-43.648,77.874c-9.473,34.785,5.898,109.555,19.31,151.6   c4.887,15.353,12.328,29.805,20.482,43.678c9.722,16.517,19.889,33.088,30.785,48.856c6.265,9.052,13.045,17.802,20.402,25.986   c5.606,6.245,11.595,12.136,17.975,17.581c2.69,2.318,5.133,4.978,7.82,7.341c0.358,0.339,0.761,0.681,1.246,0.804   c0.615,0.199,1.279-0.002,1.898-0.183c18.7-5.576,36.012-15.423,52.307-26.484c7.065-4.809,13.946-9.855,20.666-14.867   C233.523,461.46,234.816,456.073,232.655,451.614z"/>
	<path class="st4" d="M93.67,220.529c4.752,10.011,4.767,21.53,4.691,32.612c-0.029,4.249-0.065,8.547-1.103,12.667   c-1.039,4.12-3.197,8.11-6.695,10.523c-2.948,2.033-7.286,2.656-9.951,0.266c-1.776-1.592-2.386-4.078-2.907-6.405   c-2.109-9.425-4.227-18.91-4.648-28.559c-0.34-7.77-0.191-19.327,4.439-26.035C82.51,208.331,90.865,214.619,93.67,220.529z"/>
	<path class="st4" d="M118.812,108.382c-3.915,7.85-9.4,14.904-16.001,20.652c-2.769,2.411-6.272,4.897-10.021,6.116   c-2.983,0.981-6.098,1.161-9.129-0.173c-1.536-0.668-2.636-1.619-3.351-2.73c13.634-17.734,26.854-30.667,33.982-30.175   c1.264,0.087,2.503,0.235,3.654,0.461c0.134-0.137,0.291-0.292,0.448-0.448c0.299,0.187,0.575,0.415,0.805,0.701   c0.114,0.153,0.227,0.328,0.319,0.501C120.345,104.886,119.609,106.792,118.812,108.382z"/>
	<path class="st4" d="M151.823,89.55c-11.564-5.418-24.999,4.471-33.187,12.305c3.189,0.548,6.295,1.92,9.431,4.136   c1.732,1.224,3.134,2.618,4.286,4.132c6.522-4.085,12.671-9.708,17.323-14.496c1.502-1.541,2.995-3.27,3.733-5.218   C152.91,90.104,152.388,89.818,151.823,89.55z"/>
	<path class="st2" d="M118.394,102.086c0.079-0.076,0.162-0.154,0.243-0.231c-3.224-0.554-6.533-0.267-10.043,0.846   c-0.242,0.076-0.376,0.335-0.299,0.576c0.076,0.241,0.331,0.378,0.577,0.299c3.112-0.986,6.06-1.286,8.934-0.902   c0.048-0.047,0.093-0.093,0.142-0.14C118.081,102.398,118.237,102.242,118.394,102.086z"/>
	<path class="st2" d="M128.067,105.991c-3.136-2.216-6.242-3.588-9.431-4.136c-0.08,0.077-0.163,0.155-0.243,0.231   c-0.157,0.156-0.313,0.311-0.448,0.448c-0.048,0.047-0.094,0.093-0.142,0.14c3.298,0.44,6.498,1.782,9.732,4.067   c1.622,1.146,2.937,2.455,4.026,3.874c0.264-0.16,0.527-0.328,0.791-0.493C131.201,108.609,129.799,107.215,128.067,105.991z"/>
	<path class="st6" d="M229.547,464.44c-6.72,5.012-13.601,10.058-20.666,14.867c-3.448-4.345-5.317-10.108-5.446-15.706   c-0.212-8.633,3.014-16.985,6.914-24.705c3.899-7.699,8.517-15.1,11.435-23.226c0.447-1.271,0.871-2.543,1.23-3.843   c0.652,6.801,0.983,14.028,0.923,21.723l8.718,18.064C234.816,456.073,233.523,461.46,229.547,464.44z"/>
	<path class="st5" d="M494.954,265.917c-7.773-43.428-29.104-116.724-53.723-143.069c-14.256-15.215-47.071-35.662-74.984-48.453   c-20.525-5.252-37.026-8.805-44.531-7.056c-0.069,0.018,2.49-4.601,2.444-4.582c-0.776,0.193-1.468,0.46-2.054,0.823   c-0.446,0.283-0.87,0.568-1.293,0.853c-0.094,0.061-0.186,0.099-0.26,0.184c-0.495,0.347-0.991,0.694-1.443,1.067l-0.022-0.002   c-0.002,0.001-0.004,0.003-0.005,0.005c-0.179-0.057-0.767,0.877-0.971,0.814c-10.894-3.144-20.975-5.848-28.745,4.443   c-0.374,0.501-6.986,0.088-7.285,0.591c-12.306,20.504,40.636,41.194,69.57,53.324c0.007,0.005,0.015,0.011,0.022,0.016   c6.585,4.742,13.018,9.092,18.471,12.678c0.064,0.049,0.15,0.1,0.214,0.15c0.839,0.529,1.655,1.057,2.429,1.559   c0.15,0.1,0.278,0.199,0.408,0.275c7.456,4.802,12.458,7.774,12.458,7.774s-17.212,13.392-10.197,65.394   c6.375,45.15,7.813,54.227,7.813,54.227s-44.441,41.594-13.35,119.492c2.734,6.877,6.078,14.044,10.075,21.48l0.726,20.026   c0.173,4.972,3.837,9.108,8.744,9.874c6.906,1.083,17.374,2.569,28.992,3.664c19.335,1.807,41.798,2.506,56.22-1.57   c1.261-0.384,3.977-10.139,4.605-11.757c3.075-7.8,5.625-15.794,7.669-23.935c2.69-10.677,4.589-21.589,5.883-32.52   c2.28-19.032,3.53-38.428,4.427-57.578C497.986,298.043,497.807,281.803,494.954,265.917z"/>
	<path class="st4" d="M395.677,158.688c0.474,11.072,5.841,21.264,11.084,31.027c2.011,3.744,4.049,7.527,6.892,10.685   s6.615,5.678,10.835,6.177c3.556,0.421,7.683-1.054,8.923-4.413c0.826-2.237,0.205-4.72-0.421-7.021   c-2.537-9.319-5.095-18.694-9.228-27.423c-3.329-7.029-8.858-17.178-16.085-20.947C399.847,142.69,395.397,152.152,395.677,158.688   z"/>
	<path class="st4" d="M321.065,71.269c7.128,5.112,15.272,8.788,23.795,10.788c3.575,0.839,7.833,1.4,11.717,0.727   c3.096-0.526,5.934-1.821,7.991-4.416c1.046-1.308,1.575-2.663,1.688-3.979c-20.339-9.313-38.069-14.574-44.141-10.809   c-1.077,0.668-2.103,1.377-3.016,2.114c-0.182-0.058-0.394-0.123-0.605-0.187c-0.177,0.305-0.315,0.635-0.385,0.996   c-0.029,0.189-0.047,0.396-0.048,0.592C318.077,68.893,319.618,70.235,321.065,71.269z"/>
	<path class="st4" d="M318.538,65.52c-0.015-0.005-0.028-0.009-0.044-0.013c-10.894-3.144-27.645-5.762-35.415,4.53   c-0.374,0.501-0.702,0.997-1.001,1.5c1.563,1.377,3.691,2.209,5.738,2.87c6.548,2.125,14.919,4.295,22.806,4.778   c0.333-1.703,0.918-3.416,1.789-5.132C314.229,70.472,316.032,67.672,318.538,65.52z"/>
	<path class="st2" d="M319.606,65.847c1.925-1.534,4.273-2.701,7.374-3.545c0.245-0.067,0.389-0.319,0.323-0.564   c-0.067-0.245-0.32-0.388-0.564-0.323c-3.516,0.957-6.104,2.305-8.201,4.105c0.196,0.06,0.392,0.12,0.561,0.174   C319.272,65.744,319.437,65.796,319.606,65.847z"/>
	<path class="st2" d="M313.232,74.468c1.866-3.678,3.713-6.502,6.374-8.621c-0.169-0.051-0.334-0.102-0.506-0.153   c-0.169-0.054-0.365-0.114-0.561-0.174c-2.506,2.152-4.309,4.952-6.125,8.532c-0.871,1.716-1.456,3.429-1.789,5.132   c0.313,0.019,0.625,0.036,0.936,0.05C311.88,77.65,312.425,76.059,313.232,74.468z"/>
	<path class="st2" d="M462.776,283.692l-12.963-13.985c-0.074-0.079-0.169-0.12-0.268-0.135   c-4.814-24.773-12.402-62.059-17.839-80.365c-5.543-18.665-12.014-37.385-24.664-43.328c-6.153-2.891-13.001-2.352-21.358,1.217   c-0.031,0.013-0.054,0.036-0.08,0.055c-1.11-0.737-24.384-16.177-36.613-23.531c-10.639-6.398-41.375-24.885-37.432-44.386   c-0.311-0.014-0.623-0.031-0.936-0.05c-3.929,20.071,27.124,38.746,37.895,45.224c11.801,7.097,33.917,21.744,36.394,23.387   c-7.226,6.966-8.864,16.56-10.435,25.85l-0.187,1.108c-1.783,10.492-1.438,21.342-0.864,30.572c1.295,20.82,4.337,41.68,9.043,62   c0.05,0.213,0.238,0.356,0.447,0.356c0.035,0,0.069-0.004,0.104-0.012c0.247-0.057,0.401-0.304,0.344-0.551   c-4.695-20.271-7.73-41.08-9.021-61.85c-0.57-9.177-0.915-19.961,0.852-30.36l0.188-1.109c1.651-9.769,3.211-18.997,10.612-25.782   c0.008-0.007,0.022-0.024,0.025-0.025c8.101-3.461,14.729-4.054,20.632-1.28c12.305,5.781,18.689,24.293,24.173,42.758   c8.502,28.627,22.292,103.838,22.43,104.594c0.041,0.222,0.234,0.377,0.452,0.377c0.027,0,0.055-0.002,0.083-0.007   c0.25-0.046,0.415-0.285,0.37-0.535c-0.048-0.264-1.756-9.579-4.32-22.813l12.263,13.23c0.091,0.098,0.214,0.147,0.337,0.147   c0.112,0,0.224-0.04,0.312-0.122C462.938,284.169,462.949,283.878,462.776,283.692z"/>
	<path class="st6" d="M418.455,441.467c-11.618-1.095-22.086-2.581-28.992-3.664c-4.907-0.765-8.572-4.901-8.744-9.874   l-0.726-20.026c-3.998-7.436-7.341-14.602-10.075-21.479c3.744,3.962,7.969,7.463,12.594,10.364   c7.161,4.535,15.137,7.667,22.248,12.266c7.113,4.576,13.573,11.127,15.288,19.438   C420.973,432.955,420.283,437.419,418.455,441.467z"/>
	<path class="st6" d="M485.887,370.707c-0.322,4.657-2.015,8.333-3.781,8.211s-2.937-3.996-2.616-8.653   c0.322-4.657,2.015-8.333,3.781-8.211C485.038,362.176,486.208,366.05,485.887,370.707z"/>
	<path class="st6" d="M473.22,381.737c-0.322,4.657-2.015,8.333-3.781,8.211s-2.937-3.996-2.616-8.653   c0.322-4.657,2.014-8.333,3.781-8.211S473.542,377.08,473.22,381.737z"/>
	<path class="st6" d="M482.152,391.995c-0.322,4.656-2.014,8.333-3.781,8.211s-2.938-3.996-2.616-8.653s2.014-8.333,3.781-8.211   C481.302,383.464,482.474,387.338,482.152,391.995z"/>
	<path class="st7" d="M39.508,167.844c-8.941-9.446-16.234-20.449-21.45-32.364c-2.199-5.023-4.06-10.405-3.615-15.87   s3.724-11.018,8.964-12.632c4.245-1.308,8.989,0.199,12.442,2.994c3.453,2.794,5.8,6.719,7.718,10.725   c2.635-4.804,6.449-9.285,11.53-11.335c5.355-2.162,11.784-1.101,15.6,3.415c4.725,5.591,2.996,13.346,0.099,19.34   c-3.564,7.374-8.356,13.79-13.797,19.866C55.634,153.508,40.402,168.788,39.508,167.844z"/>
	<path class="st7" d="M457.352,124.293c-12.679-2.9-24.85-8.009-35.799-15.03c-4.616-2.96-9.151-6.406-11.811-11.2   c-2.661-4.794-3.013-11.233,0.452-15.483c2.807-3.442,7.59-4.82,12.013-4.41c4.423,0.41,8.553,2.374,12.371,4.643   c-0.472-5.459,0.216-11.302,3.306-15.828c3.257-4.769,9.195-7.452,14.874-5.812c7.033,2.031,9.896,9.443,10.811,16.037   c1.125,8.112,0.696,16.109-0.46,24.183C462.817,103.421,458.619,124.583,457.352,124.293z"/>
	<path d="M95.067,59.689c0.773-0.595,1.47-1.012,2.09-1.253c0.62-0.24,1.144-0.359,1.572-0.357c0.427,0.002,0.863,0.152,1.305,0.451   c0.443,0.299,0.78,0.584,1.013,0.854c0.232,0.272,0.565,0.69,1,1.255l19.051,24.757c0.526,0.685,0.899,1.215,1.117,1.591   c0.219,0.377,0.38,0.879,0.486,1.508c0.104,0.629-0.057,1.251-0.484,1.864c-0.428,0.613-1.117,1.286-2.069,2.018   c-0.774,0.595-1.47,1.013-2.09,1.253c-0.62,0.242-1.144,0.359-1.572,0.357c-0.427-0.001-0.863-0.152-1.306-0.451   c-0.442-0.299-0.78-0.583-1.012-0.855c-0.232-0.27-0.565-0.689-1.001-1.254l-6.968-9.055l-11.821,9.096l7.002,9.1   c0.527,0.684,0.899,1.215,1.118,1.59c0.218,0.377,0.379,0.879,0.485,1.508c0.105,0.629-0.056,1.25-0.483,1.863   c-0.428,0.614-1.117,1.286-2.069,2.019c-0.774,0.595-1.47,1.012-2.09,1.252c-0.621,0.241-1.144,0.36-1.572,0.357   c-0.427-0.001-0.864-0.152-1.306-0.451c-0.443-0.298-0.78-0.583-1.013-0.854c-0.232-0.27-0.565-0.689-1.001-1.254L74.4,81.842   c-0.525-0.685-0.898-1.214-1.117-1.591c-0.217-0.375-0.38-0.879-0.485-1.508c-0.106-0.629,0.056-1.251,0.483-1.864   s1.117-1.285,2.069-2.018c0.773-0.595,1.469-1.012,2.09-1.253c0.619-0.24,1.144-0.359,1.571-0.357s0.863,0.152,1.305,0.451   c0.443,0.299,0.78,0.584,1.013,0.855s0.567,0.69,1.001,1.254l7.003,9.101l11.821-9.097l-7.037-9.145   c-0.526-0.684-0.898-1.214-1.118-1.59c-0.217-0.376-0.38-0.88-0.485-1.509c-0.106-0.629,0.056-1.25,0.483-1.863   C93.425,61.095,94.115,60.422,95.067,59.689z"/>
	<path d="M123.661,41.614c4.877-2.655,10.073-3.197,15.585-1.627c5.512,1.572,9.739,5.059,12.681,10.465   c2.745,5.042,3.404,10.334,1.977,15.875s-4.596,9.647-9.507,12.321c-5.109,2.781-10.405,3.314-15.887,1.599   c-5.484-1.714-9.59-5.076-12.316-10.086c-1.49-2.736-2.39-5.566-2.702-8.494c-0.312-2.928-0.084-5.647,0.685-8.16   c0.769-2.512,1.972-4.813,3.613-6.902C119.43,44.517,121.387,42.853,123.661,41.614z M139.337,70.058   c2.373-1.291,4.015-3.339,4.924-6.141c0.91-2.803,0.54-5.719-1.111-8.751c-1.615-2.966-3.863-4.84-6.745-5.621   c-2.882-0.78-5.476-0.544-7.783,0.713c-2.373,1.291-4.002,3.363-4.884,6.215c-0.883,2.852-0.517,5.76,1.097,8.727   c1.579,2.9,3.813,4.749,6.705,5.547C134.431,71.543,137.03,71.314,139.337,70.058z"/>
	<path d="M187.962,15.882c1.102-0.368,2.028-0.559,2.776-0.572c0.747-0.012,1.352,0.201,1.816,0.64   c0.462,0.438,0.792,0.862,0.988,1.272c0.197,0.409,0.431,1.023,0.704,1.841l9.899,29.629c0.274,0.819,0.443,1.445,0.509,1.878   c0.066,0.434,0.051,0.952-0.043,1.557c-0.095,0.606-0.445,1.128-1.05,1.567c-0.605,0.44-1.476,0.85-2.616,1.229   c-0.926,0.31-1.72,0.477-2.385,0.5c-0.664,0.025-1.198-0.035-1.602-0.177c-0.403-0.142-0.765-0.427-1.086-0.854   c-0.32-0.427-0.546-0.806-0.677-1.139c-0.131-0.332-0.309-0.836-0.535-1.513l-5.976-17.884c-0.521,1.401-1.235,3.587-2.14,6.56   c-0.906,2.973-1.596,5.113-2.069,6.418c-0.048,0.214-0.121,0.465-0.222,0.756c-0.101,0.292-0.43,0.758-0.987,1.399   s-1.245,1.098-2.064,1.372c-0.784,0.261-1.567,0.316-2.35,0.162c-0.783-0.154-1.377-0.361-1.78-0.622l-0.623-0.444   c-1.009-0.651-3.048-2.077-6.117-4.277c-3.069-2.198-4.728-3.375-4.977-3.529l6.011,17.99c0.274,0.82,0.453,1.442,0.536,1.869   s0.069,0.947-0.044,1.557c-0.113,0.612-0.472,1.136-1.075,1.575c-0.606,0.44-1.477,0.85-2.616,1.23   c-1.104,0.369-2.02,0.556-2.749,0.562c-0.731,0.008-1.324-0.199-1.781-0.621c-0.458-0.42-0.784-0.836-0.98-1.245   c-0.196-0.409-0.437-1.041-0.722-1.895l-9.899-29.629c-0.274-0.818-0.452-1.442-0.536-1.869c-0.083-0.426-0.069-0.945,0.043-1.557   c0.113-0.61,0.471-1.136,1.076-1.575c0.604-0.44,1.476-0.85,2.616-1.231c0.961-0.321,1.826-0.481,2.599-0.482   c0.771,0,1.305,0.088,1.601,0.265l0.428,0.213l17.433,11.86c3.374-10.03,5.648-16.664,6.821-19.904   C184.402,17.605,185.682,16.643,187.962,15.882z"/>
	<path d="M216.996,41.735l17.107-2.807c0.851-0.139,1.494-0.216,1.929-0.231c0.435-0.014,0.955,0.082,1.558,0.286   c0.604,0.206,1.075,0.642,1.413,1.308c0.338,0.668,0.604,1.594,0.798,2.778c0.158,0.964,0.195,1.775,0.114,2.434   c-0.082,0.661-0.226,1.177-0.429,1.554c-0.205,0.375-0.543,0.688-1.015,0.936c-0.473,0.248-0.884,0.411-1.233,0.487   c-0.349,0.077-0.875,0.172-1.578,0.287l-21.995,3.608c-0.964,0.158-1.775,0.198-2.434,0.114c-0.661-0.082-1.178-0.225-1.554-0.43   c-0.376-0.204-0.688-0.543-0.937-1.015c-0.248-0.472-0.411-0.883-0.487-1.232c-0.077-0.348-0.172-0.875-0.287-1.578l-5.066-30.88   c-0.31-1.889-0.17-3.232,0.422-4.033c0.59-0.8,1.867-1.362,3.83-1.684l21.884-3.59c0.852-0.14,1.495-0.216,1.93-0.231   c0.434-0.014,0.954,0.081,1.558,0.286c0.605,0.205,1.076,0.642,1.412,1.308c0.338,0.667,0.604,1.594,0.798,2.778   c0.158,0.964,0.196,1.775,0.115,2.434c-0.082,0.66-0.226,1.177-0.429,1.553c-0.205,0.376-0.544,0.688-1.015,0.937   c-0.473,0.248-0.884,0.411-1.232,0.487c-0.35,0.077-0.875,0.172-1.578,0.288l-17.052,2.798l0.921,5.61l10.997-1.804   c0.851-0.14,1.495-0.217,1.929-0.231c0.434-0.014,0.955,0.081,1.559,0.286c0.604,0.206,1.075,0.642,1.412,1.309   c0.338,0.667,0.604,1.593,0.798,2.777c0.158,0.964,0.195,1.775,0.115,2.434c-0.083,0.661-0.226,1.178-0.43,1.553   c-0.205,0.376-0.553,0.69-1.043,0.942c-0.492,0.252-0.911,0.416-1.26,0.492c-0.349,0.077-0.875,0.172-1.578,0.287l-10.887,1.786   L216.996,41.735z"/>
	<path d="M282.094,5.95c1.162-0.006,2.101,0.104,2.815,0.326s1.222,0.614,1.525,1.176c0.302,0.562,0.482,1.067,0.541,1.518   c0.058,0.45,0.089,1.106,0.093,1.969l0.131,31.238c0.004,0.864-0.031,1.512-0.104,1.943c-0.074,0.432-0.25,0.921-0.529,1.466   s-0.775,0.932-1.487,1.16c-0.711,0.229-1.668,0.345-2.869,0.35c-0.976,0.004-1.783-0.086-2.421-0.271   c-0.639-0.184-1.128-0.407-1.466-0.669c-0.339-0.26-0.594-0.645-0.764-1.151c-0.172-0.505-0.267-0.937-0.287-1.293   s-0.032-0.891-0.035-1.604l-0.08-18.856c-0.933,1.167-2.294,3.021-4.085,5.562c-1.79,2.54-3.115,4.357-3.974,5.448   c-0.111,0.189-0.262,0.405-0.447,0.649c-0.187,0.246-0.645,0.585-1.375,1.019c-0.73,0.436-1.527,0.654-2.39,0.657   c-0.826,0.003-1.586-0.19-2.282-0.581c-0.697-0.391-1.194-0.774-1.496-1.148l-0.453-0.618c-0.755-0.934-2.246-2.926-4.472-5.976   c-2.227-3.048-3.435-4.685-3.623-4.91l0.08,18.968c0.003,0.864-0.022,1.511-0.076,1.943c-0.055,0.432-0.231,0.92-0.528,1.465   c-0.299,0.546-0.804,0.932-1.515,1.161c-0.712,0.228-1.669,0.345-2.869,0.349c-1.164,0.006-2.092-0.103-2.787-0.325   c-0.696-0.223-1.195-0.605-1.496-1.148c-0.303-0.542-0.483-1.039-0.541-1.489c-0.058-0.45-0.09-1.125-0.094-2.026l-0.13-31.238   c-0.004-0.863,0.021-1.51,0.075-1.943c0.055-0.431,0.23-0.92,0.529-1.465c0.297-0.545,0.802-0.932,1.515-1.161   c0.711-0.227,1.667-0.344,2.869-0.349c1.013-0.004,1.887,0.114,2.619,0.355c0.733,0.241,1.212,0.493,1.438,0.754l0.34,0.336   l12.847,16.72c6.343-8.47,10.579-14.06,12.707-16.77C278.175,6.473,279.692,5.959,282.094,5.95z"/>
	<path d="M320.064,13.883l9.651,33.53c0.412,1.366,0.564,2.363,0.457,2.992c-0.23,1.331-1.509,2.349-3.839,3.052   c-1.366,0.412-2.474,0.545-3.324,0.398c-0.592-0.101-1.09-0.359-1.495-0.771c-0.406-0.412-0.678-0.82-0.817-1.226   c-0.141-0.404-0.332-1.008-0.573-1.812l-1.853-6.487l-15.365-2.644l-3.916,5.494c-0.497,0.676-0.877,1.163-1.137,1.461   c-0.261,0.297-0.652,0.583-1.174,0.854c-0.524,0.271-1.081,0.357-1.672,0.255c-0.851-0.146-1.851-0.642-3-1.487   c-1.966-1.404-2.835-2.772-2.606-4.104c0.108-0.629,0.584-1.517,1.43-2.666l20.313-28.431c0.553-0.78,1.29-1.358,2.211-1.733   c0.922-0.374,1.845-0.482,2.769-0.323C318.12,10.579,319.433,11.796,320.064,13.883z M313.281,26.423l-4.969,6.97l7.377,1.27   L313.281,26.423z"/>
	<path d="M371.806,46.849c-1.835,5.401-5.322,9.388-10.457,11.963c-5.135,2.574-10.42,2.938-15.856,1.091l-9.752-3.314   c-1.066-0.362-1.901-0.765-2.503-1.208s-0.965-0.951-1.085-1.528c-0.122-0.576-0.136-1.116-0.044-1.62   c0.091-0.504,0.276-1.164,0.554-1.981l10.07-29.631c0.289-0.852,0.528-1.465,0.713-1.838c0.186-0.372,0.512-0.778,0.978-1.213   c0.465-0.437,1.072-0.647,1.819-0.631c0.747,0.017,1.689,0.217,2.826,0.604c1.066,0.362,2.697,0.926,4.894,1.693   c2.197,0.767,3.845,1.336,4.947,1.711c5.152,1.75,9.05,5.146,11.698,10.188C373.253,36.176,373.652,41.413,371.806,46.849z    M362.3,43.857c0.965-2.842,0.773-5.572-0.575-8.191c-1.35-2.619-3.375-4.387-6.075-5.304l-5.116-1.739l-6.847,20.145l5.169,1.757   c2.558,0.869,5.19,0.704,7.897-0.497C359.461,48.827,361.31,46.771,362.3,43.857z"/>
	<path d="M380.563,63.344l15.452,7.859c0.769,0.39,1.334,0.709,1.693,0.955c0.359,0.246,0.721,0.631,1.086,1.153   c0.366,0.523,0.487,1.154,0.365,1.89c-0.122,0.738-0.455,1.642-1,2.713c-0.443,0.869-0.892,1.546-1.348,2.029   c-0.457,0.484-0.878,0.817-1.265,0.999c-0.388,0.182-0.846,0.233-1.373,0.154c-0.529-0.079-0.956-0.191-1.282-0.336   c-0.327-0.145-0.807-0.379-1.443-0.703L371.58,69.955c-0.87-0.442-1.546-0.892-2.03-1.349c-0.484-0.456-0.816-0.878-0.998-1.265   c-0.183-0.387-0.234-0.844-0.155-1.373c0.079-0.528,0.191-0.955,0.336-1.281c0.144-0.326,0.379-0.807,0.702-1.442l14.185-27.896   c0.867-1.705,1.776-2.706,2.726-3.002c0.949-0.296,2.312,0.007,4.085,0.91L410.2,43.308c0.769,0.391,1.334,0.709,1.693,0.955   c0.358,0.246,0.721,0.63,1.087,1.153c0.366,0.524,0.487,1.154,0.365,1.891c-0.122,0.738-0.456,1.642-1,2.711   c-0.443,0.871-0.892,1.547-1.348,2.031c-0.457,0.483-0.878,0.815-1.265,0.998c-0.388,0.182-0.845,0.233-1.373,0.154   c-0.528-0.079-0.956-0.191-1.281-0.336c-0.327-0.144-0.808-0.379-1.443-0.702l-15.403-7.832l-2.577,5.067l9.935,5.052   c0.768,0.391,1.333,0.709,1.691,0.955c0.36,0.246,0.722,0.631,1.088,1.153c0.366,0.524,0.487,1.154,0.364,1.891   c-0.122,0.737-0.455,1.642-1,2.711c-0.442,0.87-0.891,1.547-1.348,2.03c-0.457,0.484-0.878,0.816-1.265,0.998   c-0.388,0.182-0.853,0.229-1.398,0.142c-0.546-0.087-0.981-0.203-1.307-0.348c-0.328-0.145-0.808-0.38-1.443-0.703l-9.835-5   L380.563,63.344z"/>
	<path d="M194.161,477.472l0.409-0.087c1.507-0.229,2.51-0.243,3.014-0.043c1.112,0.445,1.914,1.931,2.402,4.457   c0.286,1.572,0.272,2.753-0.044,3.542c-0.287,0.718-0.774,1.231-1.459,1.54c-0.686,0.308-1.628,0.557-2.825,0.743   c-0.409,0.086-0.982,0.191-1.717,0.312c-0.736,0.122-2.133,0.105-4.193-0.054c-2.061-0.158-4.005-0.602-5.835-1.334   c-1.579-0.632-3.15-1.521-4.71-2.664c-1.563-1.145-3.055-2.616-4.479-4.414c-1.426-1.797-2.568-3.753-3.429-5.868   c-0.862-2.113-1.292-4.553-1.287-7.319c0.003-2.766,0.573-5.567,1.706-8.403c1.106-2.762,2.579-5.097,4.424-7.003   c1.844-1.905,3.791-3.312,5.841-4.22c2.049-0.906,4.211-1.5,6.486-1.776c2.274-0.276,4.39-0.283,6.346-0.022   c1.955,0.263,3.758,0.723,5.41,1.384c1.686,0.673,3.295,1.62,4.828,2.836c1.532,1.216,2.639,2.272,3.321,3.169l0.99,1.271   c0.488,0.653,0.848,1.182,1.082,1.588c0.233,0.405,0.409,0.902,0.529,1.49c0.117,0.589,0.07,1.152-0.146,1.691   c-0.36,0.897-1.123,1.716-2.293,2.454c-2.175,1.378-3.818,1.845-4.93,1.4c-0.646-0.259-1.403-1.019-2.271-2.282   c-1.019-1.823-2.785-3.237-5.297-4.242c-1.112-0.445-2.344-0.698-3.693-0.759c-1.348-0.061-2.729,0.085-4.139,0.436   c-1.411,0.352-2.762,1.103-4.053,2.251c-1.293,1.148-2.296,2.62-3.014,4.413c-0.732,1.83-1.028,3.607-0.883,5.329   c0.143,1.723,0.61,3.21,1.4,4.462c0.788,1.252,1.698,2.313,2.723,3.182c1.027,0.868,2.078,1.517,3.154,1.948   c1.112,0.444,2.22,0.722,3.322,0.829c1.101,0.108,1.925,0.105,2.47-0.011L194.161,477.472z"/>
	<path d="M233.51,455.235c5.632,1,10.16,3.904,13.584,8.712c3.425,4.809,4.585,10.333,3.477,16.573   c-1.035,5.823-3.907,10.504-8.618,14.044c-4.711,3.541-9.902,4.807-15.571,3.8c-5.898-1.047-10.502-4.022-13.811-8.929   c-3.31-4.905-4.451-10.25-3.426-16.034c0.562-3.158,1.658-6.015,3.289-8.571c1.631-2.557,3.564-4.598,5.798-6.125   c2.234-1.526,4.681-2.603,7.344-3.23C228.24,454.85,230.884,454.77,233.51,455.235z M227.834,488.2   c2.74,0.488,5.377-0.105,7.911-1.775c2.533-1.669,4.111-4.254,4.733-7.756c0.608-3.425,0.003-6.378-1.813-8.859   c-1.817-2.481-4.057-3.959-6.721-4.432c-2.74-0.486-5.382,0.134-7.925,1.861c-2.545,1.727-4.121,4.302-4.728,7.728   c-0.595,3.349,0.013,6.272,1.828,8.773C222.932,486.242,225.17,487.728,227.834,488.2z"/>
	<path d="M283.022,458.38c0.888-0.02,1.556-0.005,2.001,0.041c0.445,0.049,0.952,0.221,1.52,0.517   c0.567,0.296,0.975,0.81,1.223,1.537c0.249,0.73,0.386,1.712,0.414,2.948c0.03,1.238-0.064,2.225-0.28,2.964   c-0.216,0.74-0.61,1.26-1.183,1.563c-0.573,0.303-1.082,0.488-1.523,0.556c-0.444,0.068-1.129,0.113-2.057,0.134l-17.735,0.401   l0.133,5.853l11.417-0.259c0.927-0.021,1.613-0.007,2.059,0.041c0.446,0.048,0.953,0.22,1.521,0.517   c0.565,0.297,0.975,0.819,1.224,1.567c0.248,0.748,0.387,1.741,0.415,2.977c0.022,1.005-0.056,1.838-0.235,2.499   c-0.179,0.661-0.399,1.168-0.66,1.522c-0.264,0.354-0.654,0.624-1.171,0.809c-0.518,0.186-0.96,0.293-1.326,0.32   c-0.367,0.028-0.917,0.05-1.651,0.066l-11.359,0.257l0.247,10.955c0.022,0.927,0.008,1.604-0.041,2.03   c-0.048,0.427-0.221,0.933-0.516,1.52c-0.298,0.586-0.81,1.004-1.538,1.252c-0.73,0.249-1.711,0.388-2.948,0.415   c-1.005,0.023-1.838-0.055-2.499-0.234c-0.663-0.178-1.17-0.399-1.523-0.662c-0.354-0.261-0.624-0.652-0.809-1.169   c-0.186-0.518-0.293-0.959-0.321-1.327c-0.027-0.366-0.05-0.917-0.067-1.651l-0.727-32.225c-0.045-1.97,0.292-3.32,1.01-4.053   c0.718-0.73,2.1-1.12,4.149-1.166L283.022,458.38z"/>
	<path d="M316.511,452.494c0.871-0.176,1.53-0.28,1.977-0.312c0.447-0.031,0.976,0.049,1.586,0.24   c0.611,0.192,1.104,0.624,1.477,1.298c0.373,0.673,0.682,1.616,0.927,2.828c0.246,1.213,0.329,2.202,0.247,2.966   c-0.08,0.766-0.376,1.349-0.887,1.749c-0.511,0.399-0.979,0.671-1.402,0.816c-0.424,0.145-1.091,0.311-1.999,0.494l-17.385,3.527   l1.164,5.738l11.194-2.27c0.908-0.185,1.586-0.293,2.034-0.324c0.446-0.032,0.975,0.048,1.586,0.24   c0.61,0.192,1.104,0.634,1.482,1.325c0.375,0.693,0.688,1.645,0.933,2.857c0.201,0.986,0.271,1.819,0.212,2.501   c-0.059,0.683-0.187,1.221-0.383,1.616c-0.195,0.395-0.531,0.729-1.008,1.004c-0.477,0.274-0.894,0.458-1.25,0.549   c-0.357,0.092-0.893,0.21-1.613,0.357l-11.135,2.259l2.178,10.739c0.184,0.909,0.29,1.578,0.318,2.005   c0.028,0.428-0.053,0.957-0.24,1.587c-0.189,0.629-0.62,1.13-1.292,1.504c-0.674,0.373-1.617,0.683-2.829,0.928   c-0.986,0.2-1.819,0.271-2.5,0.211c-0.683-0.058-1.221-0.186-1.616-0.382c-0.394-0.195-0.729-0.532-1.003-1.009   c-0.275-0.477-0.457-0.893-0.55-1.249c-0.092-0.356-0.211-0.894-0.357-1.614l-6.409-31.589c-0.392-1.932-0.299-3.32,0.279-4.167   c0.576-0.847,1.868-1.474,3.876-1.882L316.511,452.494z"/>
	<path d="M343.745,477.337l16.599-6.58c0.825-0.328,1.455-0.547,1.891-0.656c0.433-0.109,0.979-0.127,1.631-0.054   c0.653,0.074,1.223,0.41,1.709,1.006c0.486,0.598,0.958,1.471,1.414,2.621c0.37,0.935,0.586,1.742,0.649,2.423   c0.063,0.684,0.032,1.236-0.091,1.659c-0.124,0.423-0.396,0.811-0.818,1.165c-0.42,0.355-0.797,0.608-1.132,0.761   c-0.335,0.154-0.842,0.366-1.525,0.636l-21.341,8.461c-0.935,0.37-1.743,0.587-2.424,0.649c-0.683,0.063-1.234,0.032-1.657-0.091   c-0.423-0.122-0.812-0.395-1.166-0.816c-0.354-0.421-0.608-0.798-0.76-1.132c-0.154-0.334-0.365-0.843-0.636-1.525l-11.879-29.965   c-0.726-1.832-0.88-3.215-0.46-4.151c0.418-0.934,1.58-1.78,3.484-2.535l21.234-8.418c0.826-0.328,1.456-0.546,1.89-0.657   c0.434-0.109,0.978-0.127,1.631-0.053c0.654,0.074,1.223,0.409,1.709,1.006c0.486,0.598,0.958,1.471,1.414,2.62   c0.369,0.935,0.586,1.743,0.649,2.424c0.062,0.683,0.032,1.235-0.091,1.658c-0.123,0.423-0.395,0.812-0.816,1.165   c-0.422,0.353-0.799,0.608-1.133,0.761c-0.335,0.154-0.842,0.366-1.525,0.637l-16.545,6.559l2.159,5.443l10.67-4.23   c0.827-0.328,1.457-0.547,1.892-0.657c0.434-0.109,0.979-0.127,1.632-0.053c0.653,0.074,1.222,0.409,1.707,1.006   c0.486,0.597,0.958,1.471,1.414,2.62c0.37,0.934,0.586,1.742,0.648,2.423c0.063,0.684,0.033,1.236-0.091,1.659   c-0.123,0.423-0.404,0.815-0.843,1.176c-0.44,0.362-0.826,0.62-1.16,0.772c-0.334,0.154-0.844,0.365-1.525,0.635l-10.563,4.188   L343.745,477.337z"/>
	<path d="M379.695,460.415l15.169-9.419c0.755-0.468,1.336-0.796,1.745-0.981c0.407-0.184,0.939-0.299,1.595-0.342   c0.656-0.042,1.276,0.187,1.86,0.688c0.586,0.501,1.204,1.277,1.856,2.328c0.53,0.853,0.886,1.611,1.068,2.271   c0.182,0.661,0.249,1.209,0.204,1.647c-0.046,0.439-0.245,0.868-0.596,1.292c-0.352,0.423-0.679,0.739-0.981,0.949   c-0.302,0.211-0.765,0.509-1.388,0.896l-19.503,12.11c-0.854,0.53-1.609,0.887-2.27,1.069c-0.661,0.183-1.209,0.251-1.648,0.204   c-0.438-0.046-0.869-0.246-1.292-0.597c-0.422-0.351-0.739-0.677-0.95-0.98c-0.21-0.301-0.508-0.764-0.896-1.388l-17.002-27.383   c-1.039-1.674-1.436-3.009-1.19-4.004c0.247-0.994,1.241-2.032,2.981-3.113l19.405-12.048c0.755-0.468,1.337-0.795,1.746-0.981   c0.407-0.185,0.939-0.299,1.595-0.343c0.656-0.042,1.277,0.187,1.861,0.688c0.585,0.502,1.203,1.277,1.855,2.328   c0.53,0.854,0.887,1.611,1.068,2.27c0.182,0.661,0.25,1.21,0.204,1.648c-0.046,0.438-0.244,0.868-0.596,1.292   c-0.352,0.423-0.68,0.74-0.981,0.949c-0.302,0.21-0.764,0.509-1.387,0.896l-15.121,9.388l3.089,4.975l9.751-6.054   c0.754-0.47,1.337-0.796,1.744-0.982c0.409-0.185,0.942-0.299,1.596-0.342c0.656-0.043,1.275,0.186,1.861,0.688   c0.584,0.502,1.202,1.278,1.855,2.329c0.53,0.854,0.887,1.611,1.068,2.27c0.183,0.661,0.25,1.21,0.205,1.649   c-0.048,0.437-0.253,0.873-0.622,1.307c-0.369,0.433-0.703,0.755-1.004,0.965c-0.302,0.21-0.765,0.509-1.388,0.895l-9.653,5.994   L379.695,460.415z"/>
	<path class="st2" d="M143.469,277.682c-4.193-16.158-9.013-28.924-15.169-40.178c-6.218-11.367-17.102-25.889-29.987-32.027   c2.191-4.015,14.201-25.959,21.043-37.286c6.544-10.833,25.293-41.896,12.996-58.068c-0.264,0.165-0.526,0.333-0.791,0.493   c12.015,15.674-6.53,46.403-12.992,57.101c-7.049,11.67-19.573,34.588-21.232,37.631c-0.052-0.014-0.106-0.022-0.163-0.016   c-9.056,0.747-15.447,3.75-19.538,9.18c-8.41,11.163-5.387,30.738-1.57,49.831c3.743,18.725,14.448,55.24,21.762,79.393   c-0.081,0.059-0.147,0.139-0.175,0.243l-4.93,18.421c-0.066,0.245,0.08,0.497,0.325,0.563c0.04,0.01,0.08,0.015,0.119,0.015   c0.203,0,0.388-0.135,0.443-0.34l4.664-17.427c3.914,12.9,6.755,21.935,6.835,22.191c0.062,0.196,0.243,0.321,0.438,0.321   c0.046,0,0.092-0.007,0.138-0.021c0.242-0.077,0.376-0.334,0.3-0.576c-0.231-0.734-23.167-73.678-29.02-102.962   c-3.775-18.888-6.777-38.238,1.404-49.098c3.924-5.209,10.1-8.093,18.88-8.818c0.273,0.001,0.326,0.006,0.327,0.006   c12.435,5.955,23.666,20.412,29.855,31.727c6.116,11.179,10.907,23.874,15.079,39.951c0.058,0.223,0.259,0.371,0.479,0.371   c0.041,0,0.083-0.006,0.125-0.016C143.38,278.217,143.538,277.947,143.469,277.682z"/>
</g>
</svg>
