<?xml version="1.0" encoding="UTF-8"?>
<!-- Generator: Adobe Illustrator 25.2.1, SVG Export Plug-In . SVG Version: 6.00 Build 0)  -->
<svg xmlns="http://www.w3.org/2000/svg" xmlns:xlink="http://www.w3.org/1999/xlink" version="1.1" id="Capa_1" x="0px" y="0px" viewBox="0 0 512 512" style="enable-background:new 0 0 512 512;" xml:space="preserve" width="512" height="512">
<g>
	<g>
		<g>
			<path style="fill:#FFFFFF;" d="M477.448,217.326l-0.26-4.049c-0.185-2.771-1.444-5.245-3.505-6.969     c1.758-1.81,2.775-4.314,2.602-7.008l-0.227-3.537c-0.318-4.85-4.411-8.648-9.315-8.648c-0.203,0-0.408,0.007-0.62,0.02     l-3.891,0.251c7.506-4.583,11.521-13.512,9.265-22.226c-1.95-7.538-8.201-13.115-15.842-14.567     c5.031-5.986,6.448-14.456,2.89-21.75c-3.35-6.864-10.306-11.129-18.155-11.129c-0.354,0-0.708,0.013-1.062,0.031     c4.395-5.915,4.821-14.133,0.448-20.41l-4.499-6.461c-1.642-2.358-4.161-3.883-6.953-4.221c-0.488-0.072-0.982-0.107-1.475-0.107     c-2.114,0-4.16,0.646-5.921,1.87l-24.227,16.874c-0.096,0.067-0.183,0.142-0.276,0.212c0.447-0.947,0.823-1.73,0.991-2.023     c0.065-0.113,0.126-0.226,0.184-0.341l14.752-29.176c2.017-3.877,1.272-8.497-1.864-11.52l-2.46-2.38     c-1.832-1.776-4.236-2.754-6.768-2.754c-1.676,0-3.339,0.438-4.816,1.269l-28.662,15.735c-0.112,0.061-0.219,0.129-0.33,0.192     c-0.7,0.392-3.719,1.983-5.916,3.186c-0.002-0.001-0.004-0.003-0.006-0.004l17.34-30.525c2.545-4.482,1.012-10.181-3.417-12.706     l-3.114-1.776c-1.374-0.782-2.934-1.196-4.513-1.196c-1.427,0-2.812,0.335-4.062,0.948c-0.244-2.937-1.861-5.694-4.579-7.243     l-3.105-1.769c-1.384-0.791-2.958-1.208-4.552-1.208c-1.512,0-2.969,0.388-4.274,1.065c-0.75-2.809-2.779-5.221-5.685-6.304     L322.46,9.872c-1.033-0.384-2.115-0.579-3.214-0.579c-1.996,0-3.859,0.631-5.394,1.738c-0.173-0.386-0.363-0.766-0.589-1.13     c-1.33-2.142-3.501-3.661-5.965-4.172l-12.789-2.632c-0.611-0.127-1.237-0.191-1.862-0.191c-2.213,0-4.283,0.804-5.907,2.157     c-0.129-0.227-0.257-0.455-0.406-0.673c-0.068-0.099-0.138-0.198-0.212-0.293c-1.73-2.275-4.453-3.646-7.274-3.671l-3.728-0.037     c-3.04,0-5.827,1.481-7.584,3.837c-1.718-2.421-4.494-3.961-7.553-3.996l-3.576-0.036c-3.04,0-5.829,1.481-7.585,3.84     c-1.72-2.425-4.499-3.966-7.557-3.997L237.69,0c-5.051,0-9.205,4.131-9.26,9.251c-0.005,1.063,0.19,1.9,0.287,2.313     c0.016,0.07,0.034,0.139,0.051,0.208l8.356,31.583c0.067,0.253,0.145,0.501,0.231,0.744c-4.055,0.425-8.07,0.988-12.039,1.681     c0.065-1.022-0.026-2.06-0.299-3.082l-0.904-3.376c-0.788-2.922-2.9-5.214-5.572-6.285c0.186-1.233,0.127-2.524-0.217-3.804     l-0.875-3.264c-0.243-0.906-0.613-1.751-1.091-2.518c0.211-0.298,0.406-0.61,0.581-0.933c1.152-2.123,1.44-4.583,0.811-6.926     l-0.899-3.353c-1.094-4.103-4.785-6.969-8.976-6.969c-0.8,0-1.6,0.105-2.393,0.316l-14.678,3.935     c-2.771,0.746-5.058,2.595-6.323,5.102c-1.242,2.316-1.546,4.987-0.856,7.557l0.991,3.697l-3.161-4.917     c-1.81-2.976-4.916-4.747-8.351-4.747c-1.501,0-2.959,0.338-4.333,1.006l-3.304,1.604c-3.569,1.727-5.732,5.491-5.504,9.335     c-1.782-1.574-4.076-2.458-6.452-2.458c-1.451,0-2.912,0.336-4.213,0.97l-3.677,1.784c-4.586,2.226-6.65,7.465-4.862,12.257     l1.977,5.728c-3.564-2.598-7.897-4.072-12.309-4.072c-4.554,0-8.826,1.501-12.352,4.341c-4.303,3.464-6.893,8.449-7.292,14.035     c-0.18,2.507,0.106,4.989,0.795,7.355l-1.728-1.513c-1.721-1.505-3.921-2.333-6.197-2.333c-2.669,0-5.201,1.145-6.94,3.134     l-2.368,2.702c-2.057,2.354-2.68,5.486-1.949,8.338c-0.374-0.045-0.751-0.069-1.13-0.069c-2.643,0-5.154,1.136-6.886,3.117     l-2.359,2.693c-1.656,1.889-2.471,4.414-2.237,6.93c0.223,2.403,1.351,4.606,3.176,6.204l23.878,20.903     c0.864,0.757,1.846,1.344,2.895,1.743c-1.766,2.554-3.469,5.155-5.102,7.803c-0.6-0.578-1.28-1.091-2.048-1.507l-10.673-5.78     l-8.741-14.018c-0.856-1.522-2.127-2.768-3.706-3.627c-1.383-0.749-2.94-1.145-4.504-1.145c-3.439,0-6.592,1.874-8.229,4.894     l-1.774,3.278c-1.461,2.696-1.525,5.775-0.236,8.43c-2.938,0.378-5.472,2.11-6.928,4.796l-1.776,3.278     c-1.19,2.194-1.453,4.72-0.741,7.115c0.644,2.164,2.02,3.984,3.884,5.195l-1.254-0.058c-0.193-0.011-0.384-0.016-0.575-0.016     c-4.156,0-7.756,2.524-9.174,6.437l-1.161,3.216c-1.49,4.105-0.129,8.583,3.388,11.178l5.36,4.051     c-0.114-0.027-0.223-0.062-0.339-0.085l-3.408-0.687c-0.627-0.126-1.267-0.19-1.902-0.19c-4.405,0-8.235,3.113-9.111,7.415     l-4.031,19.993c-0.663,3.296,0.55,6.54,2.895,8.666c-0.673,0.541-1.28,1.165-1.775,1.879c-2.881,4.05-4.434,9.153-4.259,14.019     c0.359,10.05,7.924,17.345,17.986,17.344c0.244,0,0.49-0.004,0.736-0.013c5.224-0.186,8.879-2.1,11.438-4.438     c0.713,0.663,1.538,1.224,2.459,1.655c0,0,3.078,1.479,3.123,1.499c1.186,0.541,2.459,0.814,3.786,0.814     c1.732,0,3.391-0.485,4.819-1.331v238.797c0-0.129,0-0.129,0-0.129H61.315c0,0,0,0,0,0v22.031l0,0h388.477l0,0v-22.031     c0,0,0,0,0,0h-15.696c0,0,0,0,0,0V228.915c0.748,0.198,1.528,0.312,2.334,0.312c0.198,0,0.397-0.006,0.616-0.021     c1.912-0.126,3.736-0.854,5.277-2.105c0.046-0.037,10.139-8.646,10.139-8.646l10.599,7.098c0.19,0.127,0.387,0.246,0.589,0.355     c1.488,0.806,3.043,1.215,4.623,1.214c0.198,0,0.395-0.006,0.576-0.018c2.469-0.158,4.719-1.258,6.338-3.097     C476.803,222.168,477.606,219.796,477.448,217.326z"/>
			<g>
				<path style="fill:#241E1C;" d="M67.147,209.75c-1.961,0.222-2.437,1.048-4.055,5.246l-0.507,1.332      c-1.998,4.868-4.766,7.947-10.313,8.146c-6.304,0.225-10.902-4.055-11.124-10.258c-0.118-3.329,0.968-6.801,2.941-9.55      c0.479-0.724,1.577-1.066,2.399-0.69l3.028,1.356c0.719,0.327,1.145,0.919,1.172,1.676c0.014,0.403-0.072,0.809-0.261,1.169      l-0.049,0.053c-1.671,2.686-1.902,4.714-1.868,5.672c0.075,2.068,1.332,3.337,3.197,3.269c1.615-0.058,2.747-0.856,4.37-4.904      c0.044-0.203,0.274-0.816,1.151-3.122c1.622-4.098,5.019-6.541,9.306-6.695c6.657-0.238,11.175,4.65,11.402,11.006      c0.119,3.279-0.919,6.749-2.935,9.699c-0.429,0.721-1.577,1.066-2.4,0.692l-3.032-1.457c-0.718-0.328-1.142-0.92-1.168-1.625      c-0.014-0.403,0.072-0.81,0.312-1.172l-0.003-0.051c1.288-2.116,1.925-4.057,1.865-5.773      C70.482,211.246,69.165,209.679,67.147,209.75z"/>
				<path style="fill:#241E1C;" d="M53.953,170.582c1.088,0.22,1.809,1.24,1.599,2.28l-1.288,6.381l25.528,5.15      c1.139,0.23,1.81,1.241,1.601,2.28l-0.7,3.462c-0.219,1.09-1.219,1.711-2.357,1.482l-25.528-5.151l-1.289,6.382      c-0.21,1.038-1.269,1.699-2.358,1.48l-3.413-0.689c-1.138-0.229-1.809-1.239-1.601-2.279l4.032-19.988      c0.211-1.038,1.221-1.71,2.36-1.48L53.953,170.582z"/>
				<path style="fill:#241E1C;" d="M90.223,147.46c0.208,0.021,0.397,0.088,0.681,0.191c1.091,0.395,1.655,1.511,1.26,2.603      l-1.079,2.99c-0.378,1.043-1.352,1.657-2.499,1.564l-6.247-0.379l-3.069,8.494l5.029,3.748c0.941,0.663,1.297,1.757,0.937,2.754      l-1.063,2.941c-0.395,1.093-1.541,1.589-2.632,1.195c-0.285-0.103-0.475-0.172-0.648-0.287l-26.128-19.746      c-0.893-0.644-1.249-1.738-0.87-2.783l1.166-3.227c0.378-1.043,1.35-1.658,2.449-1.583L90.223,147.46z M66.276,153.451      l6.833,4.992l1.612-4.462L66.276,153.451z"/>
				<path style="fill:#241E1C;" d="M73.185,110.065c0.528-0.975,1.759-1.342,2.78-0.789c0.355,0.193,0.661,0.473,0.853,0.863      l9.888,15.858l12.38,6.704c1.018,0.552,1.365,1.715,0.861,2.648l-1.682,3.104c-0.506,0.933-1.668,1.278-2.689,0.726      l-12.379-6.704l-18.683,0.382c-0.431,0.054-0.834-0.049-1.189-0.243c-1.021-0.551-1.387-1.783-0.858-2.758l1.778-3.284      c0.361-0.665,0.961-1.03,1.703-1.028l12.127-0.031l-6.6-10.173c-0.407-0.622-0.43-1.323-0.069-1.989L73.185,110.065z"/>
			</g>
			<g>
				<path style="fill:#241E1C;" d="M102.234,72.226c0.697-0.797,1.947-0.844,2.781-0.114l23.879,20.908      c0.873,0.765,0.954,1.975,0.256,2.773l-2.36,2.695c-0.699,0.797-1.876,0.84-2.748,0.076l-9.455-8.277l-7.512,8.579l9.454,8.278      c0.873,0.764,0.987,1.936,0.287,2.733l-2.358,2.695c-0.697,0.797-1.91,0.878-2.782,0.114L87.797,91.779      c-0.835-0.731-0.954-1.975-0.256-2.772l2.361-2.696c0.697-0.797,1.913-0.807,2.747-0.075l8.808,7.712l7.513-8.58l-8.809-7.712      c-0.835-0.731-0.986-1.936-0.288-2.734L102.234,72.226z"/>
				<path style="fill:#241E1C;" d="M147.276,62.617c4.463,5.541,4.176,13.872-1.523,18.46c-5.699,4.59-13.899,3.095-18.362-2.446      l-6.267-7.782c-4.463-5.541-4.104-13.865,1.555-18.423c5.659-4.557,13.868-3.134,18.329,2.407L147.276,62.617z M135.272,59.455      c-1.866-2.319-5.44-3.133-7.878-1.173c-2.396,1.932-2.401,5.628-0.532,7.945l6.267,7.783c1.835,2.278,5.509,3.141,7.908,1.21      c2.437-1.962,2.37-5.666,0.501-7.984L135.272,59.455z"/>
				<path style="fill:#241E1C;" d="M158.669,48.063l6.056,16.75c0.325,1.132-0.14,2.256-1.092,2.717l-2.997,1.454      c-0.544,0.266-1.086,0.304-1.581,0.095c-0.516-0.254-0.94-0.666-1.181-1.277L147.66,38.206c-0.504-1.27-0.016-2.573,1.166-3.146      l3.676-1.784c0.954-0.464,2.079-0.225,2.814,0.596l15.469,16.5l-3.461-22.385c-0.17-1.04,0.386-2.094,1.34-2.555l3.313-1.609      c1.226-0.595,2.553-0.174,3.24,1.009l16.931,26.333c0.332,0.568,0.393,1.156,0.275,1.719c-0.143,0.517-0.509,0.92-1.053,1.184      l-3.133,1.521c-0.997,0.485-2.234,0.132-2.834-0.869l-9.458-15.095l2.938,18.879c0.189,1.085-0.319,2.118-1.272,2.581      l-3.088,1.498c-0.952,0.463-2.078,0.223-2.791-0.553L158.669,48.063z"/>
				<path style="fill:#241E1C;" d="M198.997,22.709l1.541,5.753l7.459-1.998c1.023-0.275,2.075,0.333,2.362,1.404l0.876,3.265      c0.287,1.073-0.319,2.125-1.343,2.4l-7.459,1.998l1.883,7.018l10.334-2.771c1.023-0.273,2.087,0.382,2.375,1.454l0.901,3.365      c0.3,1.121-0.306,2.172-1.331,2.445l-14.672,3.933c-1.607,0.433-3.144-0.621-3.562-2.18l-7.644-28.517      c-0.209-0.781-0.112-1.589,0.281-2.269c0.331-0.715,0.983-1.203,1.714-1.4l14.672-3.933c1.026-0.272,2.076,0.333,2.375,1.454      l0.903,3.363c0.287,1.073-0.306,2.171-1.329,2.446L198.997,22.709z"/>
			</g>
			<g>
				<path style="fill:#241E1C;" d="M278.773,7.766c0.606,0.005,1.158,0.315,1.506,0.773c0.348,0.509,0.443,1.166,0.234,1.767      l-9.206,31.388c-0.261,1.007-1.126,1.653-2.135,1.644l-4.238-0.045c-0.907-0.009-1.757-0.724-2-1.686l-4.945-19.373      l-5.396,19.267c-0.262,1.007-1.128,1.653-2.135,1.643l-4.24-0.043c-0.908-0.01-1.757-0.725-2-1.636l-8.351-31.57      c-0.047-0.201-0.096-0.404-0.095-0.606c0.012-1.059,0.879-1.958,1.938-1.948l3.48,0.037c0.908,0.009,1.76,0.724,2.001,1.685      l5.487,20.743l5.663-20.626c0.262-0.955,1.126-1.653,2.086-1.644l3.481,0.035c0.907,0.01,1.757,0.725,2,1.686L267.393,30      l5.663-20.627c0.262-0.957,1.128-1.653,2.086-1.643L278.773,7.766z"/>
				<path style="fill:#241E1C;" d="M305.818,12.919c1.037,0.215,1.695,1.278,1.47,2.363l-0.651,3.163      c-0.233,1.138-1.247,1.806-2.285,1.591l-2.768-0.569l-4.285,20.806l2.768,0.57c1.038,0.213,1.695,1.276,1.471,2.364      l-0.651,3.163c-0.236,1.135-1.248,1.803-2.286,1.588l-12.8-2.635c-1.038-0.215-1.705-1.228-1.471-2.364l0.651-3.163      c0.223-1.088,1.248-1.804,2.286-1.59l2.768,0.57l4.286-20.807l-2.768-0.569c-1.038-0.215-1.705-1.228-1.471-2.365l0.651-3.163      c0.224-1.087,1.249-1.803,2.286-1.588L305.818,12.919z"/>
				<path style="fill:#241E1C;" d="M338.897,29.678c-0.388,1.042-1.508,1.594-2.5,1.225l-6.102-2.269l-9.069,24.409      c-0.406,1.088-1.508,1.593-2.502,1.224l-3.31-1.23c-1.043-0.388-1.5-1.471-1.095-2.561l9.07-24.407l-6.102-2.267      c-0.994-0.37-1.481-1.52-1.093-2.559l1.212-3.264c0.405-1.088,1.507-1.593,2.5-1.224l19.109,7.1      c0.993,0.369,1.499,1.473,1.096,2.561L338.897,29.678z"/>
				<path style="fill:#241E1C;" d="M371.821,40.833c0.922,0.525,1.217,1.737,0.668,2.702l-15.711,27.581      c-0.575,1.008-1.745,1.328-2.665,0.804L351,70.147c-0.921-0.526-1.198-1.669-0.622-2.679l6.218-10.917l-9.909-5.643      l-6.218,10.917c-0.575,1.008-1.701,1.355-2.621,0.829l-3.115-1.773c-0.92-0.524-1.241-1.694-0.666-2.703l15.711-27.58      c0.548-0.965,1.743-1.33,2.665-0.804l3.112,1.773c0.92,0.524,1.174,1.713,0.625,2.678l-5.797,10.172l9.911,5.645l5.795-10.172      c0.548-0.965,1.7-1.355,2.62-0.831L371.821,40.833z"/>
				<path style="fill:#241E1C;" d="M391.051,99.825c-0.103,0.181-0.244,0.326-0.456,0.545c-0.805,0.833-2.054,0.89-2.889,0.083      l-2.285-2.21c-0.797-0.77-0.961-1.91-0.405-2.918l2.902-5.545l-6.493-6.277l-5.48,3.054c-0.988,0.588-2.133,0.464-2.894-0.271      l-2.249-2.174c-0.834-0.808-0.82-2.056-0.013-2.891c0.21-0.217,0.351-0.363,0.527-0.472l28.707-15.758      c0.956-0.551,2.099-0.428,2.897,0.344l2.466,2.386c0.799,0.77,0.961,1.908,0.441,2.881L391.051,99.825z M395.385,75.524      l-7.352,4.19l3.41,3.297L395.385,75.524z"/>
				<path style="fill:#241E1C;" d="M405.339,122.982l-5.279-7.577c-0.952-1.367-0.485-3.169,0.84-4.092l24.224-16.872      c0.663-0.461,1.456-0.647,2.231-0.508c0.784,0.067,1.466,0.516,1.898,1.137l4.499,6.461c3.26,4.679,1.835,11.022-2.761,14.223      c-1.78,1.241-3.717,1.728-5.891,1.52c0.153,3.399-1.681,6.152-4.414,8.055C415.761,128.761,408.858,128.034,405.339,122.982z       M414.828,110.47l-6.212,4.326l2.624,3.767c1.327,1.906,3.443,2.031,5.266,0.762c1.739-1.212,2.158-3.349,0.946-5.086      L414.828,110.47z M427.518,105.381l-1.76-2.526l-5.135,3.577l1.76,2.524c0.922,1.325,3.005,1.843,4.372,0.891      C428.204,108.838,428.528,106.83,427.518,105.381z"/>
				<path style="fill:#241E1C;" d="M436.551,153.78c-6.394,3.12-14.451,0.989-17.659-5.586c-3.21-6.575,0.071-14.238,6.464-17.358      l8.977-4.381c6.394-3.121,14.429-0.921,17.614,5.608c3.187,6.532-0.025,14.217-6.418,17.336L436.551,153.78z M442.299,142.778      c2.677-1.304,4.265-4.606,2.892-7.419c-1.35-2.765-4.952-3.589-7.627-2.283l-8.978,4.38c-2.63,1.283-4.288,4.675-2.938,7.44      c1.373,2.811,4.998,3.568,7.672,2.263L442.299,142.778z"/>
				<path style="fill:#241E1C;" d="M444.972,185.212c-6.888,1.783-14.359-1.911-16.193-8.995c-1.834-7.084,2.907-13.94,9.794-15.724      l9.673-2.503c6.888-1.785,14.324,1.974,16.145,9.008c1.82,7.035-2.858,13.928-9.746,15.711L444.972,185.212z M452.798,175.576      c2.883-0.745,5.098-3.664,4.315-6.693c-0.772-2.981-4.139-4.506-7.02-3.76l-9.673,2.502c-2.833,0.735-5.132,3.728-4.363,6.707      c0.784,3.029,4.188,4.494,7.07,3.748L452.798,175.576z"/>
				<path style="fill:#241E1C;" d="M433.234,198.532c-0.068-1.057,0.733-1.969,1.841-2.039l31.52-2.032      c1.157-0.074,2.068,0.727,2.137,1.784l0.226,3.525c0.068,1.057-0.733,1.967-1.891,2.042l-12.183,0.787l0.002,0.049l13.781,9.072      c0.737,0.46,1.137,1.191,1.194,2.048l0.259,4.029c0.068,1.057-0.686,1.914-1.743,1.982c-0.403,0.026-0.816-0.099-1.234-0.325      l-15.219-10.193l-14.234,12.142c-0.337,0.275-0.73,0.452-1.133,0.478c-1.057,0.068-1.915-0.686-1.983-1.743l-0.216-4.133      c-0.055-0.855,0.252-1.582,0.925-2.132L447.6,203.32l-0.016-0.251l-12.035,0.776c-1.108,0.07-2.02-0.731-2.088-1.788      L433.234,198.532z"/>
			</g>
		</g>
		<g>
			<g>
				<path style="fill:#AFCBD3;" d="M256.127,56.058L256.127,56.058c-92.332,0-167.182,74.85-167.182,167.182v234.055h334.364      V223.239C423.309,130.907,348.459,56.058,256.127,56.058z"/>
			</g>
			<g>
				<g>
					<path style="fill:#9BBCC4;" d="M376.865,107.614C346.88,79.032,306.239,61.451,261.52,61.451       c-92.327,0-167.182,74.854-167.182,167.182v228.662h-5.393V223.24c0-92.328,74.854-167.182,167.182-167.182       c46.164,0,87.97,18.724,118.214,48.968C375.204,105.889,376.045,106.73,376.865,107.614z"/>
				</g>
			</g>
		</g>
		<g>
			<g>
				<g>
					<path style="fill:#703427;" d="M349.336,477.881l-1.926-0.59c15.831-51.843,44.391-99.572,82.594-138.029l1.428,1.419       C393.462,378.907,365.073,426.348,349.336,477.881z"/>
				</g>
			</g>
			<g>
				<g>
					<g>
						<path style="fill:#FF5B44;" d="M473.477,357.863c-2.241,2.35-4.992,4.065-7.996,5.331c0,0-0.566-0.705-0.904-0.576        c-0.368,0.14-1.207,1.375-1.207,1.375c-2.422,0.83-4.945,1.398-7.461,1.805c-11.696,1.81-23.929-0.604-35.776-3.061        c-2.92-0.606-5.817-0.972-8.677-1.559c-1.461-3.025-2.207-6.151-3.229-9.348c-3.868-12.102-5.07-25.214-2.476-37.647        c0,0,1.277-1.174,1.406-1.733c0.093-0.406-0.75-1.162-0.75-1.162c0.082-0.375,0.18-0.726,0.281-1.098        c1.525-5.591,3.855-11.234,8.332-14.893c4.46-3.682,11.526-4.694,15.942-0.971c3.95,3.319,4.659,9.112,4.348,14.267        c3.16-2.098,7.867-4.29,11.623-4.78c3.759-0.51,7.75,0.183,10.841,2.382c4.224,3.017,6.251,8.493,6.016,13.682        c-0.254,5.186-2.484,10.09-5.375,14.417c6.663-1.914,14.338-0.274,17.995,5.591        C479.872,345.451,478.003,353.15,473.477,357.863z"/>
					</g>
				</g>
				<g>
					<path style="fill:#FFDBAF;" d="M459.647,344.764c-2.681-2.969-6.07-5.095-9.745-6.348c-0.005-0.001-0.009-0.003-0.014-0.004       c1.948-3.785,1.951-7.176-0.082-9.196c-1.491-1.481-4.04-2.94-6.356-2.851c-0.15,0.005-0.297,0.018-0.442,0.036       c0.102-0.724,0.074-1.486-0.094-2.243c-0.411-1.85-1.595-3.371-3.164-4.069c-1.571-0.694-3.491-0.555-5.139,0.378       c-0.874,0.495-1.591,1.173-2.108,1.952l0.002-0.011c-0.932-3.174-2.478-5.958-4.533-8.131       c-4.718-4.996-12.493-6.776-18.899-4.309c-0.936,0.358-1.823,0.785-2.666,1.321c-0.238,0.961-0.457,1.926-0.656,2.895       c1.203-0.988,2.578-1.785,4.037-2.343c5.661-2.16,12.551-0.586,16.714,3.81c2.753,2.9,4.5,7.084,4.937,11.791       c0.341,3.792-0.079,7.991-1.36,13.213c-0.105,0.391,0.052,0.805,0.361,1.039c0.329,0.237,0.773,0.269,1.11,0.079       c8.514-4.879,19.951-3.013,26.608,4.362c4.306,4.766,6.085,11.509,5.212,17.859c0.712-0.231,1.43-0.502,2.111-0.799       C466.111,356.579,464.11,349.698,459.647,344.764z M432.508,339.028c0.959-4.499,1.251-8.29,0.921-11.774       c-0.055-0.54-0.11-1.08-0.204-1.626c-0.001-0.004-0.001-0.008-0.002-0.012c0.223-0.158,0.384-0.399,0.42-0.691       c0.132-1.074,0.866-2.085,1.961-2.706c1.096-0.619,2.338-0.732,3.328-0.289c0.988,0.44,1.742,1.436,2.016,2.666       c0.273,1.228,0.014,2.45-0.695,3.267c-0.364,0.42-0.319,1.057,0.102,1.421c0.419,0.363,1.056,0.317,1.422-0.101v-0.001       c0,0,0.001-0.001,0.001-0.002c0.445-0.512,1.017-0.773,1.747-0.801c1.636-0.062,3.681,1.094,4.862,2.266       c1.659,1.649,0.891,4.693-0.459,7.183C442.833,336.529,437.348,336.879,432.508,339.028z"/>
				</g>
				<g>
					<g>
						<path style="fill:#703427;" d="M406.154,367.337c0.151-5.223,0.847-10.43,2.073-15.509c4.403,3.291,8.413,6.663,11.906,10.907        C415.743,364.668,410.863,366.428,406.154,367.337z"/>
					</g>
				</g>
			</g>
			<g>
				<g>
					<g>
						<path style="fill:#703427;" d="M419.15,421.504c-3.504,4.206-9.213,6.154-14.696,6.096c-5.483-0.058-10.8-1.885-15.807-4.111        c-3.826-1.707-7.615-3.509-11.401-5.332c-1.42-0.681-2.299-0.804-2.261-1.533c0.002-0.265,0.117-0.593,0.361-1.084        c0.053-0.073,0.086-0.149,0.138-0.223c0.794-1.361,3.476-2.659,4.762-3.531c6.439-4.299,13.651-7.451,21.202-9.179        c3.247-0.757,6.595-1.251,9.893-0.815c3.295,0.456,6.566,1.929,8.632,4.533c1.52,1.943,2.228,4.366,2.193,6.831        c0,0-0.493,0.247-0.505,0.426c-0.01,0.16,0.442,0.584,0.442,0.584C421.894,416.826,420.853,419.454,419.15,421.504z"/>
					</g>
				</g>
				<g>
					<g>
						<path style="fill:#FFDBAF;" d="M422.104,414.165c-15.723-0.871-31.56-0.046-47.119,2.458c0.002-0.265,0.117-0.593,0.361-1.084        c15.47-2.458,31.178-3.243,46.821-2.385C422.174,413.483,422.159,413.827,422.104,414.165z"/>
					</g>
				</g>
			</g>
			<g>
				<g>
					<g>
						<path style="fill:#703427;" d="M352.684,408.484c4.849,2.542,7.952,7.714,9.047,13.087c1.096,5.373,0.426,10.955-0.698,16.318        c-0.865,4.099-1.831,8.182-2.818,12.267c-0.367,1.532-0.303,2.416-1.023,2.533c-0.259,0.053-0.605,0.01-1.136-0.125        c-0.082-0.036-0.164-0.052-0.246-0.089c-1.497-0.49-3.33-2.84-4.453-3.914c-5.556-5.392-10.152-11.781-13.429-18.8        c-1.422-3.016-2.609-6.185-2.875-9.501c-0.246-3.317,0.507-6.825,2.618-9.392c1.58-1.895,3.8-3.095,6.217-3.579        c0.319-0.076,0.659-0.134,1.001-0.151C347.535,406.785,350.322,407.25,352.684,408.484z"/>
					</g>
				</g>
				<g>
					<g>
						<path style="fill:#FFDBAF;" d="M344.889,407.138c2.452,15.556,6.586,30.865,12.303,45.551        c-0.259,0.053-0.605,0.01-1.136-0.125c-5.653-14.609-9.72-29.801-12.168-45.275        C344.207,407.213,344.547,407.156,344.889,407.138z"/>
					</g>
				</g>
			</g>
		</g>
		<g>
			<g>
				<g>
					<g>
						<path style="fill:#703427;" d="M136.659,446.232c-0.878-57.667-15.983-114.89-43.684-165.48l1.894-1.037        c27.866,50.897,43.064,108.467,43.946,166.484L136.659,446.232z"/>
					</g>
				</g>
				<g>
					<g>
						<g>
							<path style="fill:#FF5B44;" d="M44.635,285.934c1.607,3.082,3.927,5.664,6.64,7.858c0,0,0.744-0.342,1.028-0.127         c0.361,0.273,0.906,1.576,0.906,1.576c2.245,1.573,4.67,2.907,7.138,4.072c11.722,5.442,25.494,6.454,38.654,7.449         c2.921,0.221,5.573,0.777,8.435,1.001c2.035-2.269,3.314-5.204,5.063-7.698c8.123-11.583,13.696-24.836,14.762-38.94         c0.083-1.054,0.145-2.112,0.185-3.172c0.027-0.41,0.031-0.8,0.037-1.212c0.092-6.203-0.628-12.698-4.145-17.791         c-3.493-5.112-10.46-8.251-16.107-5.734c-5.049,2.241-7.497,7.987-8.709,13.382c-2.627-3.096-6.817-6.749-10.533-8.368         c-3.714-1.64-8.024-2.114-11.857-0.77c-5.241,1.848-8.951,6.878-10.251,12.284c-1.279,5.408-0.442,11.114,1.246,16.423         c-6.284-3.948-14.664-4.54-20.167,0.406C41.744,271.269,41.38,279.742,44.635,285.934z"/>
						</g>
					</g>
					<g>
						<path style="fill:#FFDBAF;" d="M125.095,255.803c-5.855-4.439-14.38-4.918-20.716-1.181c-2.759,1.625-5.176,4.029-7.077,7.016        l-0.001,0.012c-0.3-0.955-0.836-1.865-1.589-2.634c-1.419-1.449-3.352-2.162-5.173-1.915c-1.821,0.253-3.49,1.465-4.462,3.246        c-0.398,0.728-0.653,1.503-0.763,2.278c-0.143-0.062-0.29-0.118-0.443-0.168c-2.355-0.78-5.41-0.037-7.384,1.044        c-2.691,1.474-3.695,4.962-2.816,9.433c-0.005,0-0.01,0-0.015,0.001c-4.152,0.198-8.269,1.377-11.907,3.634        c-6.056,3.749-10.157,10.231-11.474,17.222c0.613,0.508,1.271,1,1.934,1.448c0.988-6.79,4.82-13.197,10.664-16.819        c9.037-5.607,21.353-4.13,28.66,3.416c0.29,0.296,0.757,0.395,1.165,0.248c0.387-0.149,0.672-0.528,0.68-0.961        c0.233-5.751,1.049-10.194,2.526-13.993c1.847-4.71,4.886-8.496,8.579-10.66c5.586-3.284,13.139-2.856,18.32,1.046        c1.335,1.008,2.513,2.235,3.456,3.608c0.083-1.055,0.145-2.112,0.185-3.172C126.737,257.152,125.952,256.449,125.095,255.803z         M94.912,266.349c-1.374,3.485-2.2,7.471-2.55,12.382c-4.34-3.647-9.877-5.637-15.502-5.814        c-0.65-2.962-0.535-6.32,1.661-7.523c1.562-0.855,4.009-1.436,5.674-0.887c0.743,0.245,1.254,0.684,1.559,1.342        c0,0.001,0.001,0.002,0.001,0.002l0,0.001c0.252,0.538,0.893,0.775,1.432,0.526c0.541-0.25,0.776-0.891,0.527-1.431        c-0.486-1.05-0.39-2.384,0.256-3.566c0.647-1.183,1.718-1.983,2.865-2.143c1.15-0.161,2.394,0.323,3.337,1.286        c0.942,0.964,1.396,2.221,1.213,3.365c-0.05,0.311,0.045,0.607,0.227,0.836c-0.002,0.004-0.004,0.007-0.006,0.011        C95.346,265.271,95.129,265.81,94.912,266.349z"/>
					</g>
					<g>
						<g>
							<path style="fill:#703427;" d="M110.341,314.505c1.217-4.721,1.941-9.57,2.157-14.441c-4.799,1.811-9.267,3.795-13.498,6.696         C102.435,309.63,106.355,312.471,110.341,314.505z"/>
						</g>
					</g>
				</g>
				<g>
					<g>
						<g>
							<path style="fill:#703427;" d="M81.604,367.519c2.355,5.367,7.647,9.065,13.303,10.634         c5.656,1.569,11.667,1.269,17.477,0.467c4.441-0.619,8.874-1.347,13.309-2.097c1.663-0.279,2.603-0.144,2.781-0.905         c0.076-0.273,0.056-0.645-0.049-1.223c-0.033-0.091-0.044-0.179-0.077-0.27c-0.412-1.636-2.785-3.767-3.848-5.046         c-5.346-6.333-11.826-11.717-19.079-15.737c-3.115-1.743-6.411-3.246-9.932-3.777c-3.524-0.51-7.326,0.034-10.224,2.098         c-2.141,1.547-3.588,3.828-4.284,6.373c-0.053,0.168,0.617,0.535,0.577,0.712s-0.791,0.164-0.812,0.346         C80.172,361.894,80.462,364.905,81.604,367.519z"/>
						</g>
					</g>
					<g>
						<g>
							<path style="fill:#FFDBAF;" d="M80.746,359.095c16.429,3.774,32.471,9.326,47.728,16.523         c0.076-0.273,0.056-0.645-0.049-1.223c-15.18-7.122-31.101-12.595-47.444-16.358         C80.877,358.372,80.79,358.731,80.746,359.095z"/>
						</g>
					</g>
				</g>
				<g>
					<g>
						<g>
							<path style="fill:#703427;" d="M153.827,373.87c-5.741,1.175-10.469,5.572-13.191,10.772         c-2.723,5.2-3.692,11.14-4.128,16.989c-0.328,4.472-0.547,8.959-0.746,13.453c-0.077,1.684-0.406,2.575,0.301,2.909         c0.251,0.132,0.619,0.19,1.205,0.209c0.096-0.013,0.184-0.005,0.28-0.018c1.686-0.059,4.268-1.932,5.742-2.703         c7.315-3.896,13.94-9.101,19.394-15.347c2.358-2.679,4.52-5.586,5.779-8.917c1.238-3.338,1.506-7.169,0.097-10.437         c-1.062-2.418-2.989-4.312-5.331-5.527c-0.305-0.173-0.638-0.333-0.985-0.453         C159.627,373.651,156.622,373.303,153.827,373.87z"/>
						</g>
					</g>
					<g>
						<g>
							<path style="fill:#FFDBAF;" d="M162.243,374.801c-7.141,15.27-15.94,29.787-26.181,43.192         c0.251,0.132,0.619,0.19,1.205,0.209c10.152-13.345,18.848-27.761,25.961-42.948         C162.923,375.08,162.59,374.921,162.243,374.801z"/>
						</g>
					</g>
				</g>
			</g>
			<g>
				<g>
					<g>
						<g>
							<path style="fill:#703427;" d="M174.708,468.64c-47.844-16.594-89.134-49.282-116.268-92.041l1.82-1.156         c26.875,42.35,67.769,74.724,115.153,91.161L174.708,468.64z"/>
						</g>
					</g>
					<g>
						<g>
							<g>
								<path style="fill:#FF5B44;" d="M78.557,376.73c0.147,0.828,0.242,1.641,0.313,2.458          c0.845,10.002-1.022,21.363-13.788,18.866c-4.069-0.792-7.737-2.899-11.213-5.163c-7.588-4.951-14.839-11.304-17.795-19.859          c-0.11-0.347-0.22-0.693-0.307-1.044c-0.126-0.398,0.701-1.483,0.612-1.89c-0.108-0.491-1.125-0.305-1.188-0.814          c-1.162-7.798,1.902-16.394,8.96-19.67c4.852-2.226,10.441-1.533,15.418,0.66c0.34,0.152,0.344,1.128,0.676,1.292          c0.392,0.194,1.111-0.422,1.492-0.212c0.894,0.501,1.745,1.033,2.581,1.617c6.777,4.778,11.466,12.098,13.495,20.108          c0.152,0.543-0.763,0.759-0.646,1.316C77.303,375.056,78.464,376.059,78.557,376.73z"/>
							</g>
						</g>
						<g>
							<path style="fill:#FFDBAF;" d="M77.812,373.08c-5.656-4.098-12.297-6.874-19.183-7.997c-0.329-4.749,0.767-9.58,3.107-13.728         c-0.703-0.388-1.426-0.748-2.168-1.08c-1.048,1.914-1.878,3.959-2.429,6.076c-1.111-0.983-2.563-1.785-4.167-2.256         c-2.534-0.744-4.954-0.55-6.637,0.536c-1.328,0.856-2.249,2.328-2.663,4.256c-0.444,2.061-0.255,4.423,0.453,6.376         c-3.187,0.713-6.414,2.016-8.933,4.022c0.116,0.931,0.299,1.826,0.576,2.704c2.847-2.799,7.34-4.302,11.352-4.793         c3.082-0.375,6.206-0.368,9.296-0.012l0.004,0.024l0.048-0.008c8.077,0.96,15.87,4.313,22.09,9.532         C78.386,375.492,78.144,374.266,77.812,373.08z M46.819,364.808l-0.26,0.046c-0.001,0-0.002,0-0.002,0         c-0.679-1.582-0.912-3.718-0.536-5.462c0.193-0.9,0.632-2.108,1.616-2.743c1.075-0.697,2.82-0.79,4.658-0.25         c1.815,0.534,3.417,1.601,4.181,2.786l0.033-0.021c-0.305,1.859-0.412,3.732-0.326,5.595         C53.068,364.409,49.924,364.429,46.819,364.808z"/>
						</g>
					</g>
				</g>
				<g>
					<g>
						<path style="fill:#703427;" d="M80.301,403.065c0.284-4.867-1.04-9.13-1.767-13.951c-4.36,2.702-7.349,5.583-10.941,9.245        C71.516,400.512,75.998,401.837,80.301,403.065z"/>
					</g>
				</g>
			</g>
		</g>
		<g>
			<g>
				<g>
					<g>
						<path style="fill:#FFAAAD;" d="M141.989,456.611c0,0,21.037-89.844,118.195-90.747        c97.157-0.903,126.393,90.563,126.393,90.563S141.989,456.159,141.989,456.611z"/>
					</g>
				</g>
				<g>
					<g>
						<path style="fill:#FFAAAD;" d="M277.698,346.728v19.505c-5.092,4.924-12.764,7.291-19.768,5.809        c-4.446-0.956-9.251-3.729-12.788-7.482v-17.832H277.698z"/>
					</g>
				</g>
			</g>
			<g>
				<g>
					<g>
						<path style="fill:#FFAAAD;" d="M390.866,248.405c-6.771-5.41-14.726-4.439-22.059-0.382        c1.425-59.385-41.31-109.972-98.113-114.444c-58.874-4.637-110.602,42.046-115.502,104.268        c-0.335,4.237-0.417,8.432-0.308,12.582c-8.288-4.511-17.487-5.803-25.415-0.146c-7.854,5.604-11.454,16.407-9.347,25.963        c2.106,9.555,9.453,17.55,18.407,21.13c8.669,3.465,18.603,2.964,27.224-0.574c-0.075,0.445,24.271,2.77,30.397,10.136        c8.669,10.424,16.124,39.885,16.124,39.885c10.069,5.485,21.129,9.282,32.867,11.118v12.809        c0,8.988,7.291,16.255,16.278,16.255c8.988,0,16.278-7.267,16.278-16.255v-12.928c5.262-0.872,10.415-2.132,15.418-3.78        c3.394-1.123,6.717-2.438,9.944-3.896c0,0,13.362-27.549,23.982-40.202c6.437-7.669,30.905-14.859,30.905-14.859        c7.537,3.2,16.164,3.546,23.796,0.216c8.164-3.562,14.963-11.522,17.057-21.038        C400.892,264.747,397.853,253.988,390.866,248.405z"/>
					</g>
					<g>
						<g>
							<g>
								<path style="fill:#FF9093;" d="M229.763,314.914c-1.036,13.162-7.732,24.536-17.49,31.919          c-26.458-14.356-46.131-40.022-53.857-70.549c8.402-6.502,19.16-10.001,30.579-9.102          C213.428,269.105,231.686,290.482,229.763,314.914z"/>
							</g>
						</g>
						<g>
							<g>
								<g>
									<g>
										<g>
											<path style="fill:#FF9093;" d="M364.97,275.59c-1.697,6.43-3.896,12.621-6.549,18.501             c-11.378,25.242-31.242,45.178-55.361,56.054c-8.916-8.844-14.223-20.796-13.936-33.848             c0.645-26.39,24.166-47.233,52.564-46.54C350.126,269.973,358.038,272.052,364.97,275.59z"/>
										</g>
									</g>
								</g>
							</g>
						</g>
						<g>
							<g>
								<path style="fill:#241E1C;" d="M263.591,305.616c-7.241,0-14.221-3.956-17.912-10.201c-0.673-1.136-0.295-2.603,0.841-3.274          c1.14-0.675,2.603-0.297,3.274,0.841c2.877,4.866,8.618,8.052,14.253,7.846c6.089-0.182,11.781-3.428,14.166-8.077          c0.597-1.177,2.041-1.645,3.216-1.037c1.175,0.601,1.64,2.041,1.037,3.216c-3.202,6.25-10.376,10.438-18.276,10.676          C263.989,305.614,263.789,305.616,263.591,305.616z"/>
							</g>
						</g>
						<g>
							<g>
								<g>
									<g>
										<path style="fill:#241E1C;" d="M181.06,261.934c7.632,3.954,15.835,6.378,24.27,6.961            c4.207,0.294,8.444,0.167,12.644-0.387c4.204-0.556,8.354-1.535,12.507-2.856l0.084-0.027            c2.062-0.656,4.266,0.484,4.923,2.546c0.54,1.696-0.14,3.49-1.544,4.438c-4.231,2.852-9.057,4.832-14.052,6.018            c-5.001,1.19-10.188,1.597-15.322,1.244c-10.23-0.704-20.445-4.321-28.285-10.959c-1.791-1.517-2.014-4.198-0.497-5.99            c1.306-1.542,3.475-1.922,5.197-1.029L181.06,261.934z"/>
									</g>
								</g>
								<g>
									<g>
										<path style="fill:#241E1C;" d="M296.806,265.06c8.075,2.945,16.52,4.299,24.961,3.798c4.21-0.247,8.396-0.915,12.49-2.001            c4.099-1.089,8.089-2.591,12.039-4.433l0.08-0.037c1.962-0.915,4.293-0.066,5.208,1.896            c0.752,1.613,0.308,3.479-0.964,4.599c-3.832,3.37-8.365,5.952-13.166,7.767c-4.808,1.82-9.9,2.888-15.036,3.194            c-10.236,0.611-20.829-1.669-29.455-7.25c-1.971-1.275-2.535-3.906-1.259-5.877c1.098-1.697,3.201-2.351,5.022-1.686            L296.806,265.06z"/>
									</g>
								</g>
							</g>
							<g>
								<g>
									<g>
										<path style="fill:#241E1C;" d="M187.817,230.1c-2.015,1.776-3.832,3.943-4.647,6.581            c-0.814,2.639-0.446,5.811,1.417,7.764c2.596,2.723,6.826,2.221,10.422,1.529c6.694-1.29,13.387-2.579,20.081-3.868            c10.09-1.944,8.838-14.752,0.344-18.216C207.14,220.507,194.27,224.416,187.817,230.1z"/>
									</g>
								</g>
							</g>
							<g>
								<g>
									<g>
										<path style="fill:#241E1C;" d="M330.968,225.827c1.959,1.486,3.797,3.373,4.833,5.828c1.035,2.455,1.121,5.56-0.233,7.656            c-1.888,2.923-5.59,2.917-8.771,2.655c-5.921-0.488-11.842-0.976-17.764-1.464c-8.926-0.736-9.474-13.243-2.608-17.548            C313.13,218.75,324.696,221.069,330.968,225.827z"/>
									</g>
								</g>
							</g>
						</g>
					</g>
				</g>
				<g>
					<g>
						<path style="fill:#241E1C;" d="M340.9,149.277c-19.656-17.348-44.829-28.351-70.885-31.148        c-12.904-1.385-26.317-0.886-38.992,1.951c-7.029,1.573-13.905,3.841-20.467,6.816c-0.712,0.323-1.945,0.842-3.423,1.482        c0.005-5.252-1.432-10.512-4.328-14.898c-2.206-3.341-5.626-6.366-9.628-6.287c-4.87,0.097-8.577,4.927-9.168,9.762        c-0.591,4.835,0.231,10.371,1.924,14.938c-4.31-2.698-8.873-5.478-13.952-5.71c-2.888-0.131-6.249,0.992-7.137,3.743        c-0.789,2.445,0.734,5.044,2.565,6.847c2.84,2.796,6.368,4.511,10.133,5.843c-12.547,6.873-23.864,18.806-31.79,37.275        c-8.557,19.941-7.105,43.848-1.335,65.443c1.046,10.564,6.723,21.837,11.622,29.269c0.43,0.652,0.931,1.343,1.681,1.56        c1.039,0.3,2.14-0.479,2.591-1.461c0.451-0.983,0.42-2.108,0.404-3.189c-0.104-6.73,0.728-13.461,2.361-19.991        c9.725-5.19,16.593-12.039,25.169-22.817c9.372-11.778,16.003-25.703,19.358-40.372c1.915,2.207,3.942,4.306,6.082,6.253        c15.739,14.297,39.816,27.08,60.072,33.568c6.079,1.946,12.062,3.628,18.022,5.07c-6.344-6.368-10.885-14.513-12.879-23.284        c13.672,9.996,27.777,19.175,41.522,29.051c10.04,1.613,20.441,3.385,31.02,5.038c0.457,1.553,0.957,3.099,1.407,4.647        c2.154,7.403,3.194,15.128,3.075,22.836c-0.017,1.081-0.047,2.206,0.404,3.189c0.451,0.982,1.553,1.762,2.591,1.461        c0.751-0.217,1.251-0.908,1.681-1.56c5.332-8.091,11.593-20.731,11.785-32.054C375.536,209.124,366.557,171.92,340.9,149.277z        "/>
					</g>
				</g>
				<g>
					<g>
						<g>
							<path style="fill:#241E1C;" d="M379.925,286.387c-0.327,0-0.652-0.136-0.887-0.399c-0.435-0.491-0.392-1.242,0.097-1.677         c4.209-3.741,5.725-10.839,3.451-16.156c-2.232-5.22-7.918-8.155-12.954-6.683c-0.638,0.178-1.29-0.177-1.474-0.806         c-0.184-0.631,0.177-1.29,0.806-1.474c6.181-1.802,13.113,1.728,15.806,8.029c2.652,6.202,0.871,14.488-4.055,18.865         C380.487,286.288,380.206,286.387,379.925,286.387z"/>
						</g>
					</g>
					<g>
						<g>
							<path style="fill:#241E1C;" d="M367.729,279.81c-0.134,0-0.27-0.023-0.403-0.071c-0.617-0.224-0.938-0.903-0.714-1.521         c2.741-7.591,8.443-12.684,15.248-13.627c0.657-0.074,1.251,0.364,1.341,1.014c0.09,0.65-0.364,1.251-1.014,1.341         c-5.918,0.818-10.904,5.333-13.341,12.078C368.671,279.508,368.215,279.81,367.729,279.81z"/>
						</g>
					</g>
				</g>
				<g>
					<g>
						<g>
							<path style="fill:#241E1C;" d="M140.762,288.483c-0.281,0-0.562-0.092-0.795-0.283c-5.393-4.432-7.192-12.825-4.094-19.105         c3.105-6.303,10.793-9.839,17.518-8.04c0.668,0.177,1.064,0.864,0.887,1.532c-0.18,0.666-0.866,1.069-1.532,0.887         c-5.605-1.497-12.03,1.458-14.629,6.727c-2.605,5.283-1.094,12.339,3.439,16.064c0.534,0.44,0.611,1.228,0.173,1.762         C141.481,288.329,141.124,288.483,140.762,288.483z"/>
						</g>
					</g>
					<g>
						<g>
							<path style="fill:#241E1C;" d="M154.4,281.883c-0.507,0-0.984-0.311-1.173-0.813c-2.539-6.755-7.966-11.279-14.516-12.106         c-0.687-0.085-1.173-0.712-1.085-1.398c0.085-0.686,0.728-1.177,1.398-1.085c7.487,0.945,13.675,6.068,16.548,13.71         c0.242,0.647-0.085,1.368-0.733,1.612C154.695,281.855,154.548,281.883,154.4,281.883z"/>
						</g>
					</g>
				</g>
			</g>
		</g>
		<g>
			<g>
				<g>
					<g>
						<g>
							<path style="fill:#FFF1E3;" d="M375.606,468.539L267.5,493.674l-118.077-19.295l-3.893-131.75l-0.024-1.201l-0.072-2.331         l-0.048-1.225l-0.048-1.994c0,0,68.458,1.586,114.905,18.766c2.499,0.889,4.926,1.85,7.281,2.859         c0,0,1.922-1.153,5.431-3.027c14.225-7.641,54.377-27.225,96.812-30.276l0.024,0.505l0.048,1.202l0.096,2.259l0.048,1.225         L375.606,468.539z"/>
						</g>
					</g>
					<g>
						<g>
							<g>
								<g>
									<path style="fill:#703427;" d="M369.839,325.905c-32.655,4.878-64.853,14.994-94.313,29.675           c-1.466,0.673-2.907,1.418-4.349,2.163l-0.553-1.081c1.154-0.601,2.331-1.201,3.508-1.754           c29.844-14.994,62.547-25.278,95.658-30.204L369.839,325.905z"/>
								</g>
							</g>
							<g>
								<g>
									<path style="fill:#703427;" d="M369.983,329.389c-30.012,4.493-59.855,13.288-92.655,27.321           c-1.874,0.793-3.773,1.61-5.671,2.451l-0.481-1.105c1.658-0.721,3.316-1.442,4.95-2.138           c33.232-14.273,63.436-23.212,93.808-27.753L369.983,329.389z"/>
								</g>
							</g>
						</g>
						<g>
							<g>
								<g>
									<path style="fill:#703427;" d="M261.349,355.412l-0.312,1.153c-1.033-0.288-2.091-0.6-3.124-0.865           c-40.536-11.342-76.435-16.676-112.478-16.604l-0.048-1.225c36.452-0.072,72.951,5.406,114.137,17.036           C260.124,355.076,260.748,355.244,261.349,355.412z"/>
								</g>
							</g>
							<g>
								<g>
									<path style="fill:#703427;" d="M261.061,356.878l-0.336,1.153c-1.49-0.433-3.004-0.841-4.518-1.225           c-36.379-9.828-75.45-14.85-110.676-14.177l-0.024-1.201c35.683-0.697,75.234,4.421,112.022,14.49           C258.706,356.229,259.883,356.542,261.061,356.878z"/>
								</g>
							</g>
						</g>
					</g>
				</g>
				<g>
					<g>
						<path style="fill:#96976A;" d="M381.324,485.222l-112.31,26.509L267.837,512l-1.225-0.195l-122.691-20.364l-4.301-147.572        c0,0,77.949-2.756,126.487,18.047c0.264,0.097,0.553,0.219,0.817,0.341c0,0,0.553-0.268,1.61-0.78        c9.227-4.463,56.828-26.412,106.663-30.046L381.324,485.222z"/>
					</g>
				</g>
				<g>
					<path style="fill:#703427;" d="M268.697,364.292c3.621-1.812,7.198-3.876,10.388-5.97c-2.578-2.969-7.388-4.879-12.278-4.874       c-4.89,0.004-9.693,1.921-12.262,4.894c3.811,2.305,7.72,4.482,11.538,6.778c-1.214,48.58-1.037,97.751,0.624,146.276       l1.316,0.195l1.264-0.268C267.622,462.523,267.448,413.097,268.697,364.292z"/>
				</g>
			</g>
			<g>
				<g>
					<path style="fill:#FFAAAD;" d="M392.835,474.172c8.649-5.753,9.852-16.692,7.767-26.177       c-4.205-19.124-26.567-53.696-35.787-53.594c0,0-6.765-1.365,3.085,22.444c0,0-16.2-15.298-22.141-10.862       c-5.941,4.437,11.004,25.015,11.004,25.015s-13.26-14.131-18.688-9.49c-5.428,4.641,15.379,31.067,15.379,31.067       s-12.411-6.052-14.956-2.768c-2.545,3.284,2.936,10.267,11.589,17.545c5.809,4.885,11.339,9.752,19.116,10.989       C376.989,479.58,386.034,478.676,392.835,474.172z"/>
				</g>
			</g>
			<g>
				<g>
					<path style="fill:#FFAAAD;" d="M126.602,479.08c-8.649-5.753-9.852-16.692-7.767-26.177       c4.205-19.124,26.567-53.696,35.787-53.594c0,0,6.765-1.365-3.085,22.444c0,0,16.2-15.298,22.141-10.861       c5.941,4.437-11.004,25.015-11.004,25.015s13.26-14.131,18.688-9.491c5.428,4.64-15.379,31.067-15.379,31.067       s12.411-6.052,14.956-2.768c2.545,3.284-2.936,10.267-11.589,17.545c-5.809,4.885-11.339,9.752-19.116,10.989       C142.448,484.488,133.403,483.584,126.602,479.08z"/>
				</g>
			</g>
			<g>
				<g>
					<g>
						<g>
							<path style="fill:#FFFFFF;" d="M372.878,376.758c0,1.544-1.252,2.796-2.796,2.796s-2.796-1.252-2.796-2.796         c0-1.544,1.252-2.795,2.796-2.795S372.878,375.214,372.878,376.758z"/>
						</g>
					</g>
				</g>
				<g>
					<g>
						<path style="fill:#FFFFFF;" d="M369.523,369.653L369.523,369.653c-1.236,0.056-2.293-0.909-2.349-2.146l-1.12-24.719        c-0.056-1.236,0.91-2.293,2.146-2.349l0,0c1.236-0.056,2.293,0.909,2.349,2.145l1.12,24.719        C371.725,368.54,370.759,369.597,369.523,369.653z"/>
					</g>
				</g>
			</g>
		</g>
		<g>
			<g>
				<g>
					<g>
						<path style="fill:#FF5B44;" d="M396.903,144.714c-14.14-6.586-26.122,4.559-27.89,6.764        c-0.763-3.232-5.874-18.286-21.229-18.211c-9.596,0.047-15.307,9.405-15.818,17.275c-0.774,11.913,4.885,23.402,11.293,33.356        c4.077,6.333,8.951,12.985,14.967,17.674l-0.036,0.17c0.061-0.014,0.121-0.034,0.182-0.049        c0.005,0.004,0.01,0.008,0.015,0.012l0.004-0.017c7.425-1.746,14.633-5.754,20.984-9.805        c9.981-6.366,19.082-14.793,23.356-25.94C405.554,158.58,405.602,148.765,396.903,144.714z"/>
					</g>
				</g>
				<g>
					<g>
						<path style="fill:#FF5B44;" d="M156.321,84.146c-17.023,7.26-16.685,26.67-16.139,29.979        c-3.457-1.889-20.797-9.312-32.904,4.3c-7.566,8.507-3.833,20.966,2.708,27.656c9.901,10.127,24.527,14.241,38.394,16.475        c8.822,1.421,18.557,2.393,27.465,0.8l0.122,0.167c0.036-0.065,0.066-0.135,0.101-0.2c0.007-0.001,0.015-0.002,0.023-0.003        l-0.012-0.017c4.345-7.938,6.522-17.478,7.981-26.294c2.294-13.857,2.071-28.57-4.38-41.179        C175.418,87.503,166.793,79.681,156.321,84.146z"/>
					</g>
				</g>
			</g>
			<g>
				<g>
					<g>
						<path style="fill:#FFF1E3;" d="M301.157,93.345c-2.832,0.889-6.107,3.846-7.281,6.57l-5.734,13.324        c-1.173,2.725-2.86,2.638-3.747-0.193l-4.342-13.839c-0.889-2.831-3.845-6.108-6.571-7.281l-13.322-5.734        c-2.726-1.174-2.641-2.861,0.191-3.749l13.84-4.342c2.831-0.888,6.107-3.845,7.281-6.569l5.734-13.325        c1.173-2.725,2.86-2.638,3.748,0.192l4.343,13.84c0.887,2.832,3.844,6.108,6.569,7.281l13.325,5.734        c2.725,1.174,2.638,2.861-0.193,3.749L301.157,93.345z"/>
					</g>
				</g>
				<g>
					<g>
						<path style="fill:#FFF1E3;" d="M244.123,136.011c-1.844,1.403-3.465,4.443-3.605,6.755l-0.679,11.304        c-0.139,2.312-1.401,2.696-2.803,0.852l-6.857-9.012c-1.403-1.844-4.443-3.466-6.755-3.605l-11.303-0.679        c-2.313-0.139-2.697-1.4-0.854-2.803l9.012-6.858c1.844-1.402,3.465-4.442,3.605-6.754l0.679-11.305        c0.139-2.312,1.401-2.696,2.803-0.853l6.858,9.012c1.402,1.844,4.442,3.467,6.754,3.606l11.305,0.678        c2.312,0.14,2.696,1.401,0.852,2.804L244.123,136.011z"/>
					</g>
				</g>
				<g>
					<g>
						<path style="fill:#FFF1E3;" d="M402.999,247.623c-2.172-0.806-5.607-0.548-7.635,0.571l-9.911,5.478        c-2.027,1.12-3.027,0.26-2.22-1.911l3.941-10.616c0.806-2.173,0.549-5.608-0.571-7.635l-5.477-9.911        c-1.121-2.028-0.261-3.028,1.911-2.221l10.616,3.941c2.172,0.807,5.608,0.549,7.635-0.571l9.912-5.479        c2.027-1.12,3.027-0.26,2.221,1.911l-3.941,10.617c-0.807,2.171-0.55,5.608,0.57,7.635l5.479,9.912        c1.12,2.028,0.26,3.027-1.912,2.221L402.999,247.623z"/>
					</g>
				</g>
				<g>
					<g>
						<path style="fill:#FFF1E3;" d="M149.419,348.237c-2.172-0.806-5.608-0.548-7.635,0.571l-9.911,5.478        c-2.027,1.12-3.027,0.26-2.22-1.911l3.941-10.616c0.806-2.172,0.549-5.608-0.571-7.635l-5.477-9.911        c-1.121-2.028-0.261-3.028,1.911-2.221l10.617,3.941c2.171,0.807,5.607,0.549,7.635-0.571l9.912-5.478        c2.027-1.12,3.027-0.26,2.221,1.911l-3.941,10.617c-0.807,2.171-0.55,5.608,0.57,7.635l5.479,9.912        c1.12,2.028,0.26,3.027-1.912,2.221L149.419,348.237z"/>
					</g>
				</g>
			</g>
		</g>
	</g>
</g>















</svg>
