<?xml version="1.0" encoding="UTF-8"?>
<!-- Generator: Adobe Illustrator 25.2.1, SVG Export Plug-In . SVG Version: 6.00 Build 0)  -->
<svg xmlns="http://www.w3.org/2000/svg" xmlns:xlink="http://www.w3.org/1999/xlink" version="1.1" id="Capa_1" x="0px" y="0px" viewBox="0 0 512 512" style="enable-background:new 0 0 512 512;" xml:space="preserve" width="512" height="512">
<g>
	<g>
		<path style="fill:#FFFFFF;" d="M460.233,486.799V203.577C460.233,91.145,369.088,0,256.656,0h-0.001    C144.224,0,53.079,91.145,53.079,203.577v283.222H33.811V512h444.377v-25.201H460.233z"/>
	</g>
	<g>
		<path style="fill:#FFAAAD;" d="M261.034,19.143l-2.431-1.208c-105.618,0-193.185,130.703-193.185,236.32v219.522h382.477V252.486    C447.895,146.868,366.651,19.143,261.034,19.143z"/>
	</g>
	<g>
		<g>
			<path style="fill:#F79FA6;" d="M394.767,73.781c-34.3-32.696-80.789-52.806-131.942-52.806     c-105.613,0-191.238,85.625-191.238,191.238v261.565h-6.169V206.044c0-105.613,85.626-191.239,191.239-191.239     c52.806,0,100.628,21.419,135.224,56.014C392.867,71.807,393.83,72.77,394.767,73.781z"/>
		</g>
	</g>
	<g>
		<path style="fill:#FFDBAF;" d="M447.895,206.044c0-3.453-0.102-6.881-0.283-10.29l-1.614-2.992l1.333-0.709    c-1.117-15.43-4.038-30.355-8.6-44.554l-3.877-6.796l0.617-2.494C413.444,80.184,364.017,35.673,302.968,20.485l-3.017,0.376    l-6.307-2.479c-7.654-1.501-15.524-2.548-23.476-3.106l-0.256,1.717l-3.393-1.937c-0.417-0.021-0.84-0.063-1.257-0.081    l-0.791,2.481l-2.122-2.506c-1.289-0.038-2.576-0.085-3.871-0.098c0,0,0-0.001,0-0.001c-0.554-0.005-1.782-0.045-1.82-0.045    c0,0-2.445,0.011-3.685,0.035l-2.079,0.631l-0.84-0.554c-0.266,0.009-0.516,0.018-0.782,0.028l-3.383,1.745l-0.229-1.574    c-7.081,0.403-13.925,1.156-20.779,2.309c-2.876,1.519-5.727,3.082-8.565,4.667c-0.094-0.982-0.199-1.966-0.329-2.953    C150.137,33.426,96.921,81.667,75.571,144.577c-0.197,1.733-0.16,3.294,0.083,4.692c-0.945,1.351-1.89,2.702-2.82,4.064    c-3.772,13.179-6.184,26.927-7.034,41.104c0.231,1.026,0.476,1.986,0.734,2.889c-0.307,0.24-0.608,0.486-0.915,0.726    c-0.109,2.653-0.202,5.311-0.202,7.992v29.521c0-0.223,2.338,0.272,2.338,0.272l-2.338,2.857v15.562    c93.563-46.82,165.383-135.175,192.186-236.32c0-0.001,0-0.001,0-0.002c0,0.001,0,0.001,0,0.002    c26.837,100.16,97.82,187.666,190.291,234.549v-15.63l-2.593-3.223l2.593,0.087V206.044z"/>
		<g>
			<path style="fill:#FFF1E3;" d="M447.895,236.856v-3.136C363.272,186.504,296.05,106.732,265.261,14.975     c-0.967-0.043-2.344-0.252-2.913-0.025C293.353,108.221,361.738,189.257,447.895,236.856z"/>
		</g>
		<g>
			<path style="fill:#FFF1E3;" d="M447.612,195.755c-0.066-1.241-0.192-2.466-0.281-3.701     c-65.712-51.795-125.153-111.13-177.164-176.778c-1.236-0.087-2.407-0.157-3.649-0.219     C319.52,82.341,380.274,142.94,447.612,195.755z"/>
		</g>
		<g>
			<path style="fill:#FFF1E3;" d="M438.73,147.5c-1.007-3.134-2.098-6.23-3.26-9.291C400.124,90.305,354.878,49.99,302.968,20.484     c-3.078-0.766-6.19-1.488-9.325-2.103C351.331,49.546,401.135,94.065,438.73,147.5z"/>
		</g>
		<g>
			<path style="fill:#FFF1E3;" d="M252.971,14.841c-0.971,0.018-1.952,0.044-2.92,0.077     c-30.835,92.766-98.933,173.384-184.634,220.647v3.129C152.654,191.055,221.926,109.12,252.971,14.841z"/>
		</g>
		<g>
			<path style="fill:#FFF1E3;" d="M249.27,14.946c-1.2,0.046-2.418,0.104-3.613,0.171C192.95,81.827,132.619,142.005,65.801,194.438     c-0.072,1.202-0.131,2.407-0.181,3.615C133.983,144.658,195.628,83.209,249.27,14.946z"/>
		</g>
		<g>
			<path style="fill:#FFF1E3;" d="M224.878,17.426c-2.957,0.497-5.984,1.083-8.893,1.714     C160.46,49.914,112.343,93.068,75.571,144.577c-0.98,2.889-1.892,5.807-2.736,8.756     C111.531,96.651,163.971,49.598,224.878,17.426z"/>
		</g>
	</g>
	<path style="fill:#96976A;" d="M447.895,352.356v-12.738c-4.045,0.069-8.36,0.808-12.123,2.086l1.923-11.641l0.77-4.535   l1.237-7.449c0.33-2.199-1.017-4.288-3.189-4.837c-8.658-2.117-31.362-7.119-60.195-8.933c0.35,1.339-30.366,0.98-29.878-0.55   c-22.924,0.66-47.661,3.986-71.3,12.204c-1.924,0.632-3.106,2.639-2.804,4.645l0.632,4.59l0.632,4.48l1.952,13.798   c11.242,1.484,14.073,56.622,8.273,58.271l6.432,45.353c4.095,0.33,19.439,18.828,21.177,26.452h53.952   c4.822-1.038,37.192-0.271,40.488-2.572c5.714-3.989,9.885-9.121,9.885-9.121c0.248-0.88,0.468-1.759,0.605-2.666l2.105-12.747   l0.028-0.171c10.936-1.842,20.575-4.656,29.087-8.52v-14.719c-7.612,4.219-16.48,7.333-26.806,9.432l12.402-75.086   C437.043,354.197,442.553,352.474,447.895,352.356z"/>
	<path style="fill:#DFA76D;" d="M300.18,393.748c8.604-5.47,16.41-12.726,20.092-22.319c2.446-6.322,2.474-14.76-5.002-18.251   c-12.176-5.662-22.484,3.903-23.995,5.8c-0.605-2.583-4.48-14.018-15.722-15.502l8.273,58.271   C289.626,400.098,295.205,396.937,300.18,393.748z"/>
	<path style="fill:#DFA76D;" d="M377.127,308.362c-0.198-1.362-0.46-2.716-0.809-4.055c-9.4-0.577-19.46-0.824-29.878-0.55   c-0.489,1.53-0.779,2.948-0.951,4.132c3.469-0.105,7.008-0.165,10.611-0.165C363.396,307.725,370.444,307.96,377.127,308.362z"/>
	<path style="fill:#DFA76D;" d="M323.985,309.211c5.015-0.47,10.323-0.848,15.859-1.105   C335.597,306.611,329.634,305.777,323.985,309.211z"/>
	<path style="fill:#DFA76D;" d="M333.04,327.609c-2.728-0.092-5.389-0.201-7.974-0.324c-1.724-0.082-3.413-0.171-5.066-0.266   c-0.527-0.03-1.044-0.062-1.564-0.094c0.651,1.673,1.526,3.224,2.551,4.54c6.349,8.081,16.575,12.176,26.387,14.897   c6.239,1.704,13.193,3.161,19.735,2.721l0.082,0.138c0.028-0.055,0.055-0.11,0.083-0.138h0.027v-0.027   c3.738-5.36,6.075-12.066,7.806-18.306c0.283-1.006,0.545-2.021,0.787-3.042c-6.315,0.182-12.948,0.281-19.795,0.281   C348.061,327.988,340.314,327.855,333.04,327.609z"/>
	<path style="fill:#DFA76D;" d="M429.336,359.515c-0.385-2.173-0.95-4.318-1.749-6.412c-0.141-0.371-0.296-0.741-0.459-1.109   c-1.186-1.77-6.729-8.947-10.936-9.59c-1.411-0.161-2.919-0.05-4.527,0.438c-12.843,3.896-14.125,17.917-13.991,20.345   c-0.576-0.401-1.731-1.109-3.289-1.817l-1.975-0.802c-4.952-1.78-12.335-2.711-18.797,3.134   c-6.123,5.538-4.411,14.815-0.221,20.152c4.159,5.298,9.988,8.884,16.276,11.491l1.99,0.789c2.678,1.013,5.414,1.87,8.12,2.615   c6.249,1.719,13.191,3.184,19.739,2.736l0.075,0.13c0.031-0.044,0.058-0.092,0.089-0.136c0.005-0.001,0.011,0,0.017-0.001   l-0.008-0.013c3.756-5.382,6.075-12.088,7.82-18.329C429.653,375.466,430.717,367.3,429.336,359.515z M418.308,392.6   c-1.822,0-3.299-1.477-3.299-3.298c0-1.822,1.477-3.299,3.299-3.299c1.822,0,3.299,1.477,3.299,3.299   C421.607,391.124,420.13,392.6,418.308,392.6z"/>
	<path style="fill:#DFA76D;" d="M368.01,410.781c-11.276-7.28-22.801,0.806-24.567,2.478c-0.269-2.844-2.851-16.277-15.947-18.023   c-8.184-1.091-14.154,6.212-15.518,12.859c-2.064,10.062,1.405,20.521,5.694,29.76c2.729,5.878,6.099,12.122,10.673,16.827   l-0.051,0.141c0.054-0.005,0.108-0.015,0.161-0.02c0.004,0.004,0.007,0.008,0.011,0.012l0.005-0.014   c6.535-0.613,13.15-3.18,19.04-5.883c9.258-4.25,18.007-10.359,22.964-19.356C373.749,423.618,374.947,415.259,368.01,410.781z"/>
	<path style="fill:#DFA76D;" d="M415.76,461.859c-9.153-2.172-17.289,3.601-18.746,4.975c-0.275-2.859-2.858-16.272-15.942-18.031   c-8.191-1.1-14.155,6.212-15.53,12.864c-0.812,3.937-0.765,7.928-0.155,11.885h43.33   C412.018,470.432,414.508,466.433,415.76,461.859z"/>
	<path style="fill:#DFA76D;" d="M290.258,447.099l1.622,11.517c0.838,5.91,3.671,11.092,7.745,14.936h11.811   c-1.738-7.625-4.88-14.928-10.293-20.598C298.284,449.958,294.353,447.429,290.258,447.099z"/>
	<path style="fill:#703427;" d="M377.127,308.362c-6.682-0.403-13.731-0.637-21.027-0.637c-3.603,0-7.141,0.06-10.61,0.165   c-1.905,0.058-3.788,0.13-5.646,0.216c-5.535,0.257-10.843,0.635-15.858,1.105c-26.085,2.446-44.177,7.375-44.177,10.621   c0,1.062,1.912,2.082,5.437,3.016c5.958,1.602,16.507,2.953,29.909,3.866c1.074,0.073,2.172,0.143,3.282,0.21   c0.52,0.032,1.036,0.064,1.564,0.094c1.653,0.095,3.342,0.184,5.066,0.266c2.585,0.123,5.246,0.232,7.974,0.324   c7.274,0.246,15.021,0.379,23.06,0.379c5.65,0,11.129-0.085,16.439-0.212c0,0,42.094-3.112,56.369-5.522c0,0,0,0,0,0   c2.251-0.764,3.441-1.572,3.441-2.421C432.349,316.145,409,310.284,377.127,308.362z"/>
	<path style="fill:#241E1C;" d="M381.077,312.951c-0.977,0.297-1.911,0.849-2.124,1.784c-0.17,0.85,0.34,1.742,1.019,2.209   c0.68,0.51,1.53,0.765,2.379,0.977c1.869,0.468,3.696,0.977,5.565,1.444c0.849,0.213,1.784,0.552,1.996,1.359   c0.212,0.723-0.297,1.487-0.935,1.827c-0.68,0.34-1.444,0.34-2.166,0.383c-3.356,0.212-6.712,0.722-10.025,1.529   c-0.071,0.016-0.142,0.035-0.213,0.052c-0.869,0.203-1.762,0.457-2.548,0.968c-0.765,0.51-1.444,1.359-1.487,2.294   c1.131-0.025,2.249-0.054,3.361-0.085c3.331-0.092,6.581-0.201,9.714-0.34c-0.049-0.029,2.937,1.255,3.255-0.155   c2.243-0.113,4.42-0.243,6.536-0.379c11.077-0.851,21.983-1.454,32.641-4.286c0.301-0.092,0.592-0.184,0.863-0.277   C423.47,318.855,405.077,314.692,381.077,312.951z"/>
	<g>
		<path style="fill:#FFFFFF;" d="M427.329,353.355c-0.054-0.455-0.129-0.908-0.201-1.361c-0.273-1.728-0.698-3.418-1.358-4.976    c-0.192-0.453-0.383-0.906-0.619-1.332c-2.184-3.945-6.168-5.482-8.959-3.282c-0.972,0.767-1.802,1.979-2.356,3.712    c-0.885,2.767-0.705,5.844-0.313,8.766c0.392,2.922,0.985,5.84,0.887,8.797c-0.101,3.017-0.921,5.968-0.878,8.988    c0.042,3.019,1.314,6.38,3.781,7.131c1.538,0.468,3.205-0.217,4.43-1.413c1.225-1.197,2.07-2.849,2.776-4.534    c2.031-4.846,3.076-10.257,3.079-15.668C427.599,356.569,427.518,354.954,427.329,353.355z"/>
		<path style="fill:#FFFFFF;" d="M418.308,386.003c-1.822,0-3.299,1.477-3.299,3.299c0,1.822,1.477,3.298,3.299,3.298    c1.822,0,3.299-1.477,3.299-3.298C421.607,387.479,420.13,386.003,418.308,386.003z"/>
	</g>
	<path style="fill:#CF6B58;" d="M389.742,401.315c-0.184-0.008-0.363,0.005-0.546,0.005c-7.459-0.022-13.667,5.841-13.98,13.359   l-1.146,27.499h1.913l5.149-25.798c0,0,1.479-14.047,8.054-14.938c0.292-0.04,0.584-0.076,0.881-0.097   C389.958,401.338,389.852,401.32,389.742,401.315z"/>
	<path style="fill:#FFF1E3;" d="M391.655,401.315c-0.137-0.006-0.27,0.005-0.405,0.004l0.407-5.184l2.728-34.764l0.66-8.414   c0.408-5.007,0.858-10.708-0.511-16.022c-1.004-4.016-3.018-7.394-5.665-9.74c-1.07,0.055-2.158,0.106-3.255,0.156   c3.237,1.946,5.812,5.61,6.958,10.075c1.267,5.006,0.838,10.279,0.449,15.388l-0.611,7.754l-2.743,34.777l-0.471,5.974   c0.183,0.001,0.362-0.013,0.546-0.005c0.11,0.004,0.216,0.023,0.326,0.03c-0.297,0.021-0.589,0.058-0.881,0.097l0,0   c-6.575,0.891-11.772,6.376-12.057,13.237l-1.146,27.499l25.98,1.082l1.91,0.08l1.146-27.499   C405.34,408.14,399.357,401.637,391.655,401.315z"/>
	<g>
		<polygon style="fill:#FFFFFF;" points="451.095,266.819 262.96,266.819 262.96,3.829 257.462,3.829 257.462,266.819     58.099,266.819 58.099,272.316 257.462,272.316 257.462,496.007 262.96,496.007 262.96,272.316 451.095,272.316   "/>
	</g>
	<g>
		<g>
			<g>
				<path style="fill:#FFF1E3;" d="M353.254,231.212c-4.003,1.256-8.633,5.436-10.293,9.288l-8.106,18.834      c-1.658,3.852-4.043,3.729-5.297-0.272l-6.138-19.563c-1.257-4.003-5.435-8.634-9.288-10.292l-18.833-8.105      c-3.854-1.659-3.733-4.043,0.27-5.299l19.564-6.138c4.002-1.255,8.633-5.435,10.293-9.287l8.106-18.836      c1.659-3.852,4.043-3.729,5.298,0.271l6.139,19.565c1.255,4.003,5.434,8.635,9.286,10.293l18.835,8.106      c3.852,1.66,3.73,4.043-0.272,5.299L353.254,231.212z"/>
			</g>
		</g>
		<g>
			<g>
				<path style="fill:#FFF1E3;" d="M425.12,289.845c-2.459,0.772-5.303,3.34-6.323,5.706l-4.98,11.571      c-1.018,2.367-2.484,2.291-3.254-0.167l-3.771-12.019c-0.772-2.459-3.339-5.304-5.706-6.323l-11.57-4.98      c-2.367-1.02-2.293-2.484,0.166-3.255l12.02-3.771c2.459-0.771,5.304-3.339,6.323-5.706l4.98-11.572      c1.019-2.366,2.484-2.292,3.255,0.167l3.772,12.02c0.771,2.459,3.339,5.305,5.705,6.323l11.572,4.98      c2.366,1.02,2.291,2.484-0.167,3.256L425.12,289.845z"/>
			</g>
		</g>
		<g>
			<g>
				<path style="fill:#FFF1E3;" d="M236.936,320.075c-2.459,0.772-5.304,3.34-6.323,5.706l-4.98,11.571      c-1.019,2.367-2.484,2.291-3.254-0.167l-3.771-12.019c-0.772-2.459-3.339-5.304-5.706-6.324l-11.57-4.979      c-2.368-1.02-2.293-2.484,0.166-3.256l12.02-3.771c2.459-0.771,5.304-3.339,6.324-5.705l4.98-11.572      c1.019-2.366,2.484-2.291,3.255,0.167l3.772,12.02c0.771,2.459,3.339,5.305,5.705,6.324l11.572,4.979      c2.366,1.02,2.291,2.484-0.167,3.256L236.936,320.075z"/>
			</g>
		</g>
	</g>
	<g>
		<g>
			<g>
				<g>
					<path style="fill:#703427;" d="M126.794,343.875l-2.914-0.2c5.441-79.233,42.938-154.554,102.876-206.655l1.917,2.204       C169.313,190.819,132.182,265.41,126.794,343.875z"/>
				</g>
			</g>
			<g>
				<g>
					<g>
						<path style="fill:#703427;" d="M202.586,272.202c-3.499,7.402-11.035,12.358-18.996,14.327        c-7.961,1.969-16.343,1.313-24.426-0.036c-6.178-1.039-12.34-2.23-18.504-3.452c-2.311-0.455-3.629-0.304-3.848-1.373        c-0.096-0.385-0.052-0.903,0.117-1.705c0.049-0.126,0.068-0.248,0.117-0.374c0.64-2.268,4.038-5.151,5.573-6.895        c7.714-8.635,16.976-15.897,27.262-21.226c4.419-2.311,9.081-4.281,14.019-4.884c4.941-0.573,10.229,0.336,14.196,3.332        c2.929,2.244,4.86,5.487,5.732,9.069c0.134,0.472,0.24,0.977,0.287,1.487C204.808,264.403,204.284,268.597,202.586,272.202z"/>
					</g>
				</g>
				<g>
					<g>
						<path style="fill:#FFDBAF;" d="M204.116,260.471c-23.092,4.624-45.712,11.747-67.303,21.197        c-0.096-0.385-0.052-0.903,0.117-1.705c21.479-9.349,43.928-16.365,66.899-20.978        C203.962,259.457,204.069,259.961,204.116,260.471z"/>
					</g>
				</g>
			</g>
			<g>
				<g>
					<g>
						<path style="fill:#703427;" d="M129.457,180.954c7.844,2.346,13.878,9.051,17.021,16.625        c3.144,7.574,3.757,15.96,3.639,24.153c-0.098,6.264-0.349,12.535-0.63,18.813c-0.102,2.353,0.246,3.633-0.779,4.011        c-0.366,0.152-0.885,0.188-1.704,0.141c-0.132-0.029-0.256-0.03-0.387-0.059c-2.338-0.291-5.7-3.217-7.655-4.473        c-9.697-6.327-18.27-14.392-25.086-23.759c-2.949-4.021-5.598-8.333-6.937-13.125c-1.31-4.799-1.207-10.163,1.159-14.535        c1.778-3.233,4.693-5.63,8.103-7.031c0.447-0.203,0.93-0.385,1.427-0.508C121.412,179.931,125.637,179.818,129.457,180.954z"/>
					</g>
				</g>
				<g>
					<g>
						<path style="fill:#FFDBAF;" d="M117.629,181.206c8.045,22.133,18.489,43.425,31.079,63.349        c-0.366,0.152-0.885,0.188-1.704,0.141c-12.473-19.828-22.786-40.966-30.802-62.982        C116.649,181.511,117.132,181.329,117.629,181.206z"/>
					</g>
				</g>
			</g>
			<g>
				<g>
					<path style="fill:#FFFFFF;" d="M299.358,183.476c-6.112-12.194-17.492-21.445-30.447-25.605       c8.708-1.537,17.047-4.269,23.871-9.75c5.369-4.312,9.677-11.4,7.368-17.888c-1.309-3.681-4.578-6.432-8.223-7.838       c-3.645-1.406-7.646-1.609-11.547-1.403c-9.724,0.514-19.288,3.554-27.579,8.655c4.773-4.712,10.022-8.977,14.735-13.763       c6.471-6.573,12.12-14.686,12.773-23.887c0.652-9.201-5.292-19.297-14.426-20.578c-8.32-1.167-15.91,4.898-21.157,11.46       c-4.469,5.589-8.083,11.845-10.763,18.479c-2.382-12.312-6.902-24.213-13.404-34.937c-2.651-4.372-5.687-8.625-9.773-11.7       c-4.086-3.074-9.379-4.858-14.383-3.803c-6.048,1.275-10.707,6.546-12.588,12.434c-1.881,5.888-1.362,12.292-0.016,18.324       c1.361,6.096,3.511,11.906,6.19,17.5c-7.325-3.425-15.031-6.031-22.944-7.699c-5.003-1.054-10.183-1.746-15.221-0.866       c-5.037,0.88-9.957,3.524-12.608,7.896c-3.205,5.286-2.543,12.29,0.468,17.688c3.011,5.398,8.039,9.398,13.363,12.539       c10.785,6.365,22.896,9.631,35.325,11.698c-10.049,2.559-19.69,6.75-28.378,12.434c-7.243,4.74-14.524,12.271-12.894,20.773       c0.853,4.453,4.151,8.168,8.121,10.335c3.97,2.168,8.555,2.953,13.074,3.174c8.029,0.393,16.074-1.056,23.552-3.999       c-1.445,2.408-2.771,4.887-3.959,7.431c-3.204,6.86-5.145,15.807,0,21.362c2.694,2.909,6.868,4.142,10.827,3.917       c3.959-0.224,7.737-1.758,11.205-3.681c5.998-3.325,11.186-7.962,15.341-13.404c0.152,4.985,0.747,9.956,1.803,14.831       c1.603,7.399,5.475,15.696,12.932,17.003c3.906,0.684,7.974-0.861,10.988-3.436c3.015-2.575,5.094-6.083,6.69-9.713       c3.18-7.229,4.453-15.192,4.004-23.067c4.667,3.945,9.761,7.385,15.186,10.199c6.721,3.486,15.58,5.796,21.343,0.887       c3.019-2.571,4.424-6.69,4.364-10.655C302.511,190.859,301.135,187.021,299.358,183.476z M236.044,166.6       c-0.014-0.743-0.013-1.486-0.063-2.228c-4.594-2.289-9.592-4.413-14.353-6.634c0.259-0.454,0.517-0.908,0.764-1.37       c-3.282-5.344-7.142-10.786-10.591-16.159c1.328-2.74,2.782-5.341,4.237-7.941c6.109-1.861,12.152-2.947,18.279-5.016       c4.431,1.692,8.692,3.766,12.219,6.851c-0.227,0.186-0.46,0.365-0.685,0.554c2.345,6.975,3.822,15.155,5.974,22.398       c-1.186,2.224-2.35,4.508-3.506,6.816C244.289,164.676,240.144,165.675,236.044,166.6z"/>
				</g>
				<g>
					<g>
						<path style="fill:#DFA76D;" d="M248.534,133.274c8.207,14.483,7.033,30.658-2.621,36.129        c-9.654,5.471-24.134-1.835-32.34-16.317c-8.207-14.482-7.033-30.658,2.621-36.129        C225.848,111.486,240.328,118.792,248.534,133.274z"/>
					</g>
				</g>
			</g>
		</g>
		<g>
			<g>
				<path style="fill:#EFE0CE;" d="M244.304,485.716c0,1.55-41.893,2.807-93.571,2.807c-51.678,0-93.571-1.257-93.571-2.807      c0-1.55,41.893-2.807,93.571-2.807C202.411,482.909,244.304,484.165,244.304,485.716z"/>
			</g>
		</g>
		<g>
			<g>
				<g>
					<g>
						<g>
							<polygon style="fill:#CF6B58;" points="134.533,314.876 135.279,314.884 135.279,314.627        "/>
						</g>
					</g>
					<g>
						<g>
							<path style="fill:#CF6B58;" d="M216.562,427.203c-1.869,16.238-10.601,30.372-22.75,40.798         c-7.126,6.074-15.419,10.864-24.181,14.047c-42.667,15.391-103.528-4.293-108.989-54.845         c-3.972-36.826,10.28-58.174,21.494-69.038l0.029-0.029c6.717-6.484,12.353-9.199,12.353-9.199v-24.911         c0-4.789,3.855-8.703,8.674-8.761l32.095-0.35c0-0.029,1.168-0.029,1.168-0.029h1.811c3.855,0.087,22.575,0.263,33.847,0.379         c4.789,0.059,8.645,3.972,8.645,8.761v24.911c0,0,0.409,0.204,1.168,0.584C188.731,353.171,222.578,374.14,216.562,427.203z"/>
						</g>
					</g>
					<g>
						<g>
							<polygon style="fill:#CF6B58;" points="137.556,314.627 137.556,314.884 138.262,314.876        "/>
						</g>
					</g>
				</g>
				<g>
					<g>
						<g>
							<path style="fill:#703427;" d="M181.927,349.521c-8.236,1.781-16.676,2.628-25.846,2.628c-1.46,0-2.92-0.029-4.439-0.087         c-0.584,0-1.081-0.526-1.051-1.11c0-0.613,0.409-1.139,1.11-1.081c10.455,0.321,19.888-0.438,29.058-2.307v1.372         C180.758,348.937,181.167,349.141,181.927,349.521z"/>
						</g>
					</g>
					<g>
						<g>
							<path style="fill:#703427;" d="M143.957,352.237c-0.01,0-0.02,0-0.031,0l-10.646-0.302c-0.605-0.017-1.081-0.522-1.064-1.126         c0.017-0.605,0.506-1.004,1.127-1.064l10.646,0.302c0.604,0.017,1.081,0.522,1.064,1.126         C145.035,351.767,144.548,352.237,143.957,352.237z"/>
						</g>
					</g>
				</g>
			</g>
			<g>
				<g>
					<path style="fill:#C66355;" d="M193.812,468.001c-7.126,6.074-15.419,10.864-24.181,14.047       c-42.667,15.391-103.528-4.293-108.989-54.845c-3.972-36.826,10.28-58.174,21.494-69.038c-2.804,3.651-5.14,7.681-6.98,11.916       c-4.118,9.608-5.578,20.384-3.738,30.723c3.504,19.654,18.866,36.739,38.053,42.287c19.42,5.636,40.447,0.029,60.306,3.68       c5.607,1.051,11.185,2.862,15.741,6.308c4.556,3.417,7.972,8.645,8.265,14.339       C193.783,467.593,193.812,467.797,193.812,468.001z"/>
				</g>
			</g>
			<g>
				<g>
					<g>
						<g>
							<path style="fill:#FFFFFF;" d="M186.705,371.872c0.445,2.31,1.768,4.428,3.181,6.353c1.413,1.925,2.968,3.769,4.046,5.909         c1.1,2.184,1.663,4.6,2.865,6.73c1.202,2.13,3.411,4.026,5.456,3.602c1.275-0.264,2.194-1.398,2.601-2.724         c0.406-1.326,0.365-2.829,0.214-4.301c-0.568-5.498-2.675-11.033-5.961-15.661c-1.272-1.791-2.748-3.478-4.526-4.606         C190.423,364.534,185.626,366.271,186.705,371.872z"/>
						</g>
					</g>
					<g>
						<g>
							<path style="fill:#FFFFFF;" d="M209.131,400.868c0.805,1.769,0.023,3.854-1.745,4.659c-1.768,0.805-3.854,0.023-4.659-1.745         c-0.805-1.768-0.023-3.854,1.745-4.659C206.241,398.319,208.327,399.1,209.131,400.868z"/>
						</g>
					</g>
				</g>
				<g>
					<g>
						<g>
							<path style="fill:#FFFFFF;" d="M98.399,470.443c-0.688,0.382-1.51,0.53-2.342,0.364c-6.156-1.229-11.532-5.119-16.432-11.889         c-1.115-1.539-0.77-3.69,0.769-4.804c1.535-1.102,3.691-0.771,4.804,0.769c3.837,5.3,7.831,8.303,12.206,9.177         c1.864,0.372,3.072,2.184,2.7,4.047C99.899,469.14,99.251,469.97,98.399,470.443z"/>
						</g>
					</g>
					<g>
						<g>
							<path style="fill:#FFFFFF;" d="M108.635,469.926c0.745,1.343,0.232,3.053-1.146,3.818c-1.379,0.765-3.101,0.297-3.846-1.047         c-0.745-1.343-0.232-3.053,1.146-3.818C106.167,468.113,107.889,468.582,108.635,469.926z"/>
						</g>
					</g>
				</g>
			</g>
		</g>
	</g>
</g>















</svg>
