<?xml version="1.0" encoding="UTF-8"?>
<!-- Generator: Adobe Illustrator 25.2.1, SVG Export Plug-In . SVG Version: 6.00 Build 0)  -->
<svg xmlns="http://www.w3.org/2000/svg" xmlns:xlink="http://www.w3.org/1999/xlink" version="1.1" id="Capa_1" x="0px" y="0px" viewBox="0 0 512 512" style="enable-background:new 0 0 512 512;" xml:space="preserve" width="512" height="512">
<g>
	<path style="fill:#FFFFFF;" d="M477.124,173.204l-4.536-15.189c-0.83-2.774-2.761-5.026-5.325-6.23   c-1.43-0.714-3.023-1.091-4.628-1.091c-1.025,0-2.046,0.151-3.022,0.444l-6.516,1.946l7.932-5.716   c4.255-2.907,5.588-8.439,3.092-12.958l-1.863-3.374c-1.734-3.127-5.033-5.071-8.61-5.071c-0.696,0-1.392,0.075-2.015,0.211   l-0.009,0.002c3.031-3.129,3.669-7.737,1.572-11.538l-2.068-3.742c-1.732-3.124-5.013-5.065-8.562-5.065   c-1.386,0-2.74,0.284-4.029,0.847l-7.523,3.05c2.976-3.342,4.862-7.498,5.351-11.981c0.623-5.712-1.075-11.217-4.779-15.499   c-3.837-4.438-9.459-6.984-15.422-6.984c-0.197,0-0.392,0.021-0.588,0.027c1.969-3.766,1.21-8.514-2.116-11.4l-2.813-2.427   c-1.666-1.445-3.801-2.242-6.009-2.242c-1.001,0-1.985,0.161-2.919,0.468c0.132-0.751,0.172-1.519,0.116-2.282   c-0.181-2.452-1.303-4.684-3.154-6.278l-2.818-2.433c-1.676-1.452-3.826-2.253-6.054-2.253c-2.744,0-5.351,1.199-7.151,3.285   L361.01,74.801c-0.81,0.939-1.414,2.001-1.804,3.13c-3.243-2.242-6.558-4.386-9.947-6.422c0.62-0.628,1.163-1.343,1.599-2.144   l9.496-17.449c1.229,0.581,2.582,0.887,3.945,0.887c3.443,0,6.611-1.896,8.262-4.936l1.748-3.206   c2.47-4.561,0.814-10.261-3.685-12.703l-18.661-10.153c-1.362-0.745-2.899-1.139-4.446-1.139c-3.416,0-6.572,1.891-8.244,4.95   l-1.728,3.18c-1.17,2.144-1.469,4.617-0.844,6.967c0.609,2.283,2.077,4.261,4.067,5.496l-6.271,11.525l0.551-30.598   c0.129-4.403-2.576-8.269-6.74-9.63l-3.404-1.123c-1.003-0.33-2.043-0.497-3.09-0.497c-3.205,0-6.208,1.583-8.054,4.239   l-19.78,27.787c-0.075,0.105-0.147,0.212-0.216,0.321c-0.59,0.931-0.868,1.761-1.055,2.318c-0.382,1.163-0.518,2.347-0.452,3.5   c-3.063-0.646-6.154-1.216-9.27-1.709c4.316-3.738,7.166-9.258,7.554-15.643l0.466-7.674c0.345-5.689-1.373-11.205-4.839-15.536   c-3.713-4.64-9.019-7.393-14.937-7.752l-9.11-0.553c-0.2-0.011-0.4-0.017-0.599-0.017c-2.658,0-5.21,1.042-7.06,2.871   c-1.935,1.815-3.084,4.279-3.246,6.967l-0.006,0.099C247.512,4.063,240.935,0,233.635,0c-0.615,0-1.24,0.03-1.86,0.086   c-8.694,0.802-15.61,7.092-17.877,15.248c-3.888-5.288-10.049-8.669-16.697-8.669c-1.538,0-3.083,0.179-4.595,0.533   c-9.244,2.166-15.51,10.468-15.78,19.789c-0.052-0.143-0.09-0.292-0.149-0.432c-0.828-1.973-2.254-3.593-4.123-4.686   c-0.11-0.064-0.222-0.126-0.335-0.185c-2.837-1.465-6.048-2.24-9.286-2.24c-2.848,0-5.673,0.574-8.398,1.707   c-10.527,4.384-15.408,16.797-10.879,27.673l4.028,9.675c2.336,5.608,6.934,9.91,12.381,11.971   c-1.581,0.927-3.147,1.877-4.698,2.849c-0.318-0.956-0.78-1.871-1.397-2.704l-2.167-2.936c-1.79-2.415-4.624-3.855-7.581-3.855   c-1.98,0-3.867,0.623-5.45,1.797l-1.998,1.476l-11.8-15.965c-1.784-2.419-4.615-3.862-7.574-3.862   c-1.994,0-3.899,0.629-5.509,1.819l-2.948,2.179c-2.021,1.487-3.368,3.764-3.697,6.248c-0.061,0.458-0.076,0.916-0.069,1.373   c-0.482-0.076-0.971-0.126-1.468-0.126c-2.462,0-4.781,0.956-6.523,2.686L85.924,72.601c-2.056,2.039-3.134,4.802-2.989,7.629   c0.023,0.882,0.167,1.744,0.406,2.577c-0.614-0.125-1.241-0.196-1.879-0.196c-2.898,0-5.668,1.382-7.4,3.685L64.506,98.94   c-1.741,2.31-2.412,5.197-1.865,7.972c0.048,0.282,0.112,0.558,0.182,0.832c-3.118,0.253-5.917,2.037-7.424,4.826l-7.561,14.045   c-1.365,2.535-1.586,5.555-0.606,8.287c0.886,2.473,2.656,4.524,4.981,5.775l28.181,15.169c0.952,0.513,1.986,0.848,3.043,1.016   c-9.834,22.642-15.297,47.622-15.297,73.881v258.275H50.569V512h405.235v-22.982H439.43V230.744c0-12.366-1.22-24.445-3.527-36.135   c0.195,0.012,0.391,0.024,0.589,0.024c0.926,0,1.85-0.136,2.75-0.404l3.472-1.037c2.429-0.721,4.427-2.34,5.627-4.559   c0.26-0.48,0.475-0.977,0.646-1.484c0.454,0.066,0.917,0.101,1.388,0.101c0.919,0,1.834-0.135,2.706-0.396l3.393-1.012   c0.978-0.294,1.874-0.734,2.669-1.288c1.538,1.08,3.415,1.697,5.424,1.697c0.001,0,0.001,0,0.001,0   c0.919,0,1.834-0.134,2.719-0.398l3.49-1.041C475.746,183.323,478.593,178.115,477.124,173.204z"/>
	<path style="fill:#DFA76D;" d="M253.785,58.6L253.785,58.6c-96.315,0-174.394,78.079-174.394,174.394v244.151h53.144L258.5,461.696   l129.174,15.449h40.504V232.994C428.179,136.679,350.1,58.6,253.785,58.6z"/>
	<g>
		<path style="fill:#241E1C;" d="M76.426,136.684l3.868-7.186c0.523-0.972,0.134-2.137-0.886-2.687l-3.105-1.671    c-1.02-0.548-2.209-0.234-2.732,0.741l-3.868,7.186l-6.256-3.37l5.34-9.921c0.548-1.017,0.113-2.21-0.906-2.758l-3.246-1.745    c-1.019-0.55-2.252-0.255-2.802,0.762l-7.56,14.045c-0.824,1.53-0.077,3.368,1.405,4.166l28.184,15.17    c1.064,0.574,2.278,0.211,2.802-0.762l1.771-3.291c0.524-0.973,0.135-2.14-0.93-2.714L76.426,136.684z"/>
		<path style="fill:#241E1C;" d="M106.124,108.011c-0.924-0.698-2.222-0.555-2.887,0.328l-6.725,8.9l-6.046-4.568l4.854-6.423    c0.666-0.883,0.491-2.136-0.432-2.834l-2.815-2.124c-0.922-0.701-2.178-0.523-2.844,0.355l-4.854,6.428l-4.954-3.746l6.726-8.898    c0.665-0.885,0.451-2.169-0.475-2.866l-2.897-2.191c-0.966-0.728-2.219-0.555-2.885,0.33l-9.551,12.635    c-0.476,0.631-0.699,1.453-0.512,2.252c0.112,0.81,0.552,1.539,1.225,2.048l24.563,18.559c1.345,1.016,3.282,0.893,4.327-0.492    l9.55-12.638c0.667-0.885,0.493-2.136-0.474-2.864L106.124,108.011z"/>
		<path style="fill:#241E1C;" d="M125.821,87.525c-0.815-0.822-2.119-0.867-2.901-0.089l-7.931,7.85l-5.334-5.383l5.723-5.671    c0.785-0.776,0.792-2.039-0.023-2.864l-2.482-2.507c-0.815-0.82-2.081-0.829-2.865-0.051l-5.723,5.666l-4.369-4.411l7.928-7.852    c0.785-0.778,0.754-2.082-0.06-2.904l-2.556-2.581c-0.852-0.86-2.117-0.865-2.901-0.086L91.069,77.788    c-0.561,0.556-0.902,1.334-0.831,2.153c-0.003,0.82,0.327,1.602,0.92,2.202l21.665,21.878c1.185,1.196,3.121,1.356,4.356,0.134    l11.257-11.149c0.784-0.776,0.792-2.042-0.06-2.902L125.821,87.525z"/>
		<path style="fill:#241E1C;" d="M145.935,72.032c-0.69-0.931-1.93-1.194-2.819-0.534l-7.874,5.819L119.096,55.47    c-0.72-0.976-1.971-1.163-2.861-0.506l-2.962,2.19c-0.891,0.655-1.08,1.907-0.359,2.885l18.929,25.612    c1.002,1.356,2.894,1.789,4.293,0.758l11.642-8.605c0.889-0.658,1.034-1.878,0.314-2.851L145.935,72.032z"/>
		<path style="fill:#241E1C;" d="M176.888,40.18c-0.648-1.557-2.45-2.458-4.054-1.793l-9.09,3.785    c-1.021,0.425-1.483,1.644-1.037,2.711l1.356,3.259c0.464,1.117,1.635,1.603,2.656,1.175l4.86-2.023l0.527,1.266    c1.193,2.865,0.07,6.467-2.896,7.702c-2.963,1.238-6.491-0.658-7.685-3.53l-4.026-9.67c-1.195-2.867-0.055-6.707,2.909-7.942    c1.993-0.829,3.852-0.747,5.703,0.137c0.779,0.36,1.353,0.233,1.742,0.072c0.485-0.202,0.891-0.598,1.096-1.199l1.084-3.018    c0.157-0.574,0.13-1.194-0.094-1.728c-0.223-0.534-0.618-0.94-1.073-1.206c-3.486-1.8-7.634-1.896-11.522-0.279    c-7.047,2.934-9.796,11.266-6.943,18.12l4.028,9.673c2.855,6.854,10.702,10.771,17.748,7.834    c6.953-2.891,9.727-11.292,6.896-18.096L176.888,40.18z"/>
		<path style="fill:#241E1C;" d="M210.422,24.859c-1.693-7.228-8.77-12.275-16.149-10.548c-7.382,1.73-11.479,9.396-9.786,16.622    l2.377,10.149c1.693,7.225,8.73,12.335,16.163,10.596c7.433-1.741,11.467-9.444,9.773-16.67L210.422,24.859z M201.238,44.043    c-3.129,0.729-6.195-1.741-6.892-4.713l-2.377-10.149c-0.707-3.025,0.965-6.498,4.092-7.231c3.177-0.742,6.169,1.637,6.876,4.662    l2.378,10.147C206.025,39.784,204.413,43.296,201.238,44.043z"/>
		<path style="fill:#241E1C;" d="M246.982,20.035c-0.679-7.392-6.991-13.366-14.536-12.674c-7.548,0.697-12.666,7.721-11.987,15.111    l0.954,10.379c0.68,7.392,6.945,13.422,14.544,12.725c7.601-0.702,12.658-7.774,11.981-15.164L246.982,20.035z M235.239,37.763    c-3.199,0.293-5.894-2.576-6.172-5.616l-0.955-10.379c-0.284-3.093,1.854-6.303,5.05-6.594c3.251-0.298,5.883,2.47,6.167,5.566    l0.955,10.377C240.568,34.209,238.488,37.465,235.239,37.763z"/>
		<path style="fill:#241E1C;" d="M270.789,8.08l-9.091-0.553c-0.788-0.046-1.597,0.219-2.16,0.82    c-0.613,0.541-0.976,1.31-1.026,2.151l-1.868,30.743c-0.102,1.682,1.071,3.23,2.803,3.333l9.091,0.553    c8.094,0.493,14.236-5.991,14.712-13.82l0.466-7.673C284.19,15.804,278.881,8.571,270.789,8.08z M275.572,30.891    c-0.213,3.521-3.143,6.613-6.768,6.395l-4.206-0.257l1.3-21.388l4.206,0.257c3.624,0.219,6.162,3.593,5.948,7.113L275.572,30.891z    "/>
		<path style="fill:#241E1C;" d="M326.021,19.495l-3.4-1.121c-1.099-0.362-2.228,0.042-2.876,0.995L299.934,47.2    c-0.115,0.182-0.181,0.383-0.281,0.681c-0.379,1.155,0.176,2.334,1.323,2.71l3.1,1.021c1.051,0.345,2.181-0.056,2.843-1.057    l3.76-5.355l8.949,2.947l-0.211,6.525c-0.062,1.2,0.606,2.197,1.706,2.559l3.151,1.036c1.151,0.382,2.296-0.24,2.674-1.39    c0.1-0.298,0.165-0.499,0.181-0.715l0.615-34.16C327.79,20.854,327.122,19.855,326.021,19.495z M315.168,38.643l5.004-7.276    l-0.303,8.823L315.168,38.643z"/>
		<path style="fill:#241E1C;" d="M367.133,38.377l-18.676-10.162c-0.969-0.53-2.183-0.17-2.763,0.891l-1.734,3.191    c-0.554,1.016-0.22,2.277,0.75,2.805l5.963,3.245L337.693,62.2c-0.579,1.06-0.267,2.249,0.749,2.805l3.237,1.758    c0.971,0.53,2.184,0.171,2.763-0.891l12.98-23.85l5.963,3.243c0.97,0.528,2.209,0.125,2.762-0.894l1.738-3.188    C368.461,40.118,368.105,38.905,367.133,38.377z"/>
		<path style="fill:#241E1C;" d="M408.686,69.426l-2.828-2.441c-0.835-0.724-2.095-0.555-2.851,0.32l-7.981,9.246l-9.006-7.778    l7.982-9.244c0.757-0.876,0.739-2.145-0.098-2.867l-2.831-2.443c-0.835-0.724-2.133-0.588-2.888,0.287l-21.642,25.064    c-0.791,0.918-0.698,2.179,0.138,2.897l2.829,2.446c0.838,0.722,2.061,0.593,2.851-0.323l8.567-9.919l9.006,7.775l-8.567,9.922    c-0.792,0.918-0.738,2.146,0.099,2.867l2.828,2.441c0.836,0.726,2.1,0.631,2.889-0.282l21.641-25.067    C409.582,71.453,409.524,70.152,408.686,69.426z"/>
		<path style="fill:#241E1C;" d="M424.214,106.228c5.615-4.854,6.802-13.466,1.844-19.197c-4.957-5.734-13.648-5.808-19.263-0.954    l-7.883,6.817c-5.615,4.852-6.874,13.457-1.882,19.233c4.99,5.773,13.686,5.77,19.301,0.918L424.214,106.228z M402.961,106.996    c-2.101-2.427-1.334-6.292,0.974-8.29l7.885-6.817c2.351-2.028,6.204-2.161,8.304,0.269c2.136,2.472,1.415,6.225-0.936,8.255    l-7.885,6.817C408.954,109.261,405.096,109.465,402.961,106.996z"/>
		<path style="fill:#241E1C;" d="M457.724,137.944l-1.858-3.364c-0.535-0.966-1.664-1.484-2.738-1.251l-23.13,4.84l16.335-17.03    c0.816-0.809,1.002-1.995,0.468-2.963l-2.063-3.733c-0.663-1.196-2.047-1.634-3.342-1.037l-30.269,12.273    c-0.625,0.284-1.03,0.751-1.267,1.302c-0.19,0.527-0.121,1.089,0.186,1.642l1.68,3.041c0.535,0.966,1.732,1.39,2.892,0.99    l17.116-7.234l-13.829,14.38c-0.768,0.783-0.955,1.971-0.42,2.939l1.732,3.132c0.533,0.968,1.638,1.44,2.758,1.181l19.506-4.103    l-15.203,10.689c-1.011,0.68-1.311,1.988-0.75,3.001l1.757,3.178c0.306,0.555,0.743,0.914,1.29,1.033    c0.595,0.092,1.203-0.003,1.777-0.38l26.501-19.096C458.046,140.593,458.412,139.188,457.724,137.944z"/>
		<path style="fill:#241E1C;" d="M470.124,175.295l-4.536-15.185c-0.227-0.759-0.753-1.423-1.51-1.745    c-0.721-0.39-1.568-0.467-2.375-0.224l-29.508,8.812c-1.614,0.482-2.665,2.115-2.168,3.779l4.535,15.185    c0.315,1.058,1.429,1.657,2.589,1.312l3.482-1.04c1.109-0.329,1.76-1.459,1.443-2.519l-3.193-10.693l7.263-2.168l2.305,7.715    c0.318,1.058,1.431,1.662,2.54,1.328l3.379-1.008c1.109-0.334,1.712-1.447,1.395-2.505l-2.305-7.715l5.952-1.779l3.194,10.693    c0.317,1.061,1.481,1.646,2.592,1.315l3.48-1.038C469.839,177.466,470.44,176.353,470.124,175.295z"/>
	</g>
	<g>
		<g>
			<path style="fill:#CE9867;" d="M379.731,112.381c-31.278-29.815-73.673-48.155-120.32-48.155     c-96.31,0-174.394,78.083-174.394,174.394v238.525h-5.626V232.994c0-96.31,78.083-174.394,174.394-174.394     c48.155,0,91.765,19.532,123.313,51.081C377.998,110.581,378.876,111.459,379.731,112.381z"/>
		</g>
	</g>
	<g>
		<g>
			<g>
				<path style="fill:#96976A;" d="M460.762,199.623c-1.44-3.915-4.456-7.426-8.461-8.641c-0.112-0.045-0.248-0.067-0.382-0.113      c-0.405-0.112-0.833-0.202-1.26-0.247c-4.32-0.585-8.798,1.485-11.836,4.681c-3.308,3.51-5.153,8.168-6.435,12.849      c-2.88,10.396-3.443,21.242-2.813,31.976c0.396,7.042,1.201,20.842,4.05,28.745c-4.195,17.62-9.588,37.696-15.707,58.432      c0.728-9-0.436-18.954-0.899-27.703c-0.607-10.689-1.755-21.378-4.05-31.841c-0.72-3.285-1.575-6.616-3.421-9.406      c-1.823-2.813-4.815-5.063-8.168-5.198h-0.27c-0.562,0-1.125,0.045-1.665,0.18c-3.375,0.698-6.278,3.51-7.651,6.751      c-1.643,3.848-1.598,8.191-1.238,12.354c0.9,11.004,3.781,21.827,8.326,31.864c2.273,5.018,4.973,9.856,8.056,14.424      c2.496,3.691,5.985,9.722,9.888,12.257c-8.266,27.726-17.77,56.427-27.404,81.85c0.125-7.686-0.746-15.775-1.13-23.032      c-0.607-10.689-1.755-21.377-4.051-31.841c-0.72-3.285-1.575-6.616-3.42-9.406c-1.822-2.813-4.815-5.063-8.168-5.198h-0.27      c-0.562,0-1.125,0.045-1.665,0.18c-3.375,0.698-6.278,3.51-7.651,6.751c-1.643,3.848-1.598,8.191-1.238,12.354      c0.9,11.004,3.78,21.827,8.326,31.863c2.273,5.018,4.973,9.856,8.056,14.424c2.181,3.225,5.119,8.233,8.429,11.139      c-8.559,21.959-17.135,41.02-24.949,54.193c-0.317,0.536-0.142,1.226,0.393,1.543c0.18,0.106,0.379,0.156,0.573,0.156      c0.384,0,0.758-0.197,0.968-0.55c7.795-13.141,16.345-32.113,24.882-53.976c0.078,0.045,0.155,0.099,0.234,0.142      c0.068-0.36,0.113-0.72,0.158-1.103c0.003-0.022,0.005-0.045,0.008-0.067c18.263-46.96,36.416-106.949,46.971-151.32      c0.021-0.022,0.044-0.044,0.064-0.066c13.344-14.109,24.055-37.804,25.9-56.616C462.27,208.106,462.247,203.673,460.762,199.623      z"/>
			</g>
			<g>
				<path style="fill:#96976A;" d="M455.533,306.929c-0.438-0.343-0.934-0.614-1.448-0.842l-0.247-0.11      c-3.117-1.242-6.767-0.404-9.577,1.423c-2.821,1.798-4.958,4.491-6.953,7.199c-6.356,8.623-11.755,17.919-16.661,27.435      c-4.262,8.349-9.853,17.633-12.723,26.726c-0.105,0.347-0.211,0.695-0.316,1.042c-0.115,0.367-0.22,0.715-0.305,1.071      c4.718-0.361,10.777-4.78,14.767-7.264c4.675-2.918,9.111-6.238,13.23-9.896c8.237-7.317,15.274-16.031,20.575-25.715      c2.023-3.656,3.832-7.604,3.898-11.788C459.839,312.691,458.332,308.94,455.533,306.929z"/>
			</g>
		</g>
		<g>
			<g>
				<path style="fill:#703427;" d="M407.609,369.802c0.046,0.119,0.13,0.206,0.214,0.293c0.073,0.057,0.146,0.114,0.228,0.151      c0.329,0.147,0.708,0.069,0.969-0.184c17.948-19.101,33.594-40.336,46.512-63.132c-0.438-0.343-0.934-0.614-1.448-0.842      c-12.824,22.641-28.339,43.689-46.16,62.673c-0.048,0.052-0.087,0.084-0.135,0.137      C407.559,369.139,407.495,369.504,407.609,369.802z"/>
			</g>
		</g>
	</g>
	<g>
		<g>
			<g>
				<g>
					<path style="fill:#96976A;" d="M146.604,473.708c-8.726-14.711-18.303-35.997-27.862-60.52       c3.697-3.245,6.978-8.839,9.414-12.44c3.443-5.101,6.458-10.504,8.997-16.108c5.076-11.208,8.293-23.296,9.298-35.584       c0.402-4.649,0.452-9.499-1.382-13.797c-1.533-3.619-4.775-6.76-8.544-7.539c-0.603-0.151-1.231-0.201-1.86-0.201h-0.302       c-3.744,0.151-7.087,2.664-9.122,5.805c-2.061,3.116-3.016,6.836-3.82,10.505c-2.563,11.685-3.845,23.622-4.523,35.559       c-0.429,8.104-1.401,17.139-1.261,25.722c-10.759-28.392-21.373-60.444-30.604-91.408c4.359-2.83,8.255-9.566,11.043-13.688       c3.443-5.101,6.458-10.504,8.997-16.108c5.076-11.208,8.293-23.296,9.298-35.584c0.402-4.649,0.452-9.499-1.382-13.796       c-1.533-3.619-4.775-6.76-8.544-7.539c-0.603-0.151-1.231-0.201-1.86-0.201h-0.302c-3.744,0.151-7.086,2.664-9.122,5.805       c-2.061,3.116-3.016,6.836-3.82,10.505c-2.563,11.685-3.845,23.622-4.523,35.559c-0.517,9.771-1.817,20.888-1.004,30.94       c-6.834-23.158-12.857-45.579-17.542-65.256c3.182-8.826,4.081-24.238,4.523-32.102c0.704-11.987,0.075-24.1-3.141-35.71       c-1.433-5.227-3.493-10.429-7.187-14.349c-3.392-3.569-8.394-5.881-13.218-5.227c-0.477,0.05-0.955,0.151-1.407,0.276       c-0.151,0.05-0.301,0.076-0.427,0.126c-4.473,1.357-7.841,5.278-9.449,9.65c-1.659,4.523-1.684,9.474-1.207,14.274       c2.061,21.009,14.023,47.471,28.925,63.228c0.024,0.025,0.049,0.051,0.073,0.077c11.787,49.552,32.059,116.544,52.454,168.986       c0.003,0.025,0.006,0.05,0.01,0.076c0.05,0.427,0.1,0.829,0.176,1.231c0.088-0.047,0.174-0.107,0.261-0.158       c9.535,24.415,19.082,45.603,27.787,60.278c0.234,0.394,0.653,0.615,1.081,0.615c0.217,0,0.439-0.058,0.641-0.175       C146.761,475.076,146.958,474.307,146.604,473.708z"/>
				</g>
				<g>
					<path style="fill:#96976A;" d="M94.971,355.889c-3.205-10.155-9.448-20.523-14.209-29.847       c-5.479-10.627-11.508-21.008-18.606-30.638c-2.228-3.024-4.614-6.033-7.765-8.04c-3.138-2.041-7.214-2.976-10.695-1.589       l-0.276,0.123c-0.574,0.256-1.127,0.557-1.617,0.941c-3.126,2.246-4.808,6.435-4.736,10.364       c0.074,4.672,2.094,9.082,4.353,13.164c5.92,10.815,13.779,20.547,22.977,28.718c4.6,4.086,9.553,7.793,14.775,11.051       c4.455,2.774,11.222,7.71,16.491,8.113c-0.095-0.398-0.213-0.786-0.341-1.196C95.206,356.664,95.088,356.276,94.971,355.889z"/>
				</g>
			</g>
			<g>
				<g>
					<path style="fill:#703427;" d="M95.324,357.052c-0.051,0.133-0.145,0.23-0.24,0.327c-0.081,0.064-0.163,0.128-0.255,0.169       c-0.367,0.164-0.791,0.077-1.082-0.206c-20.044-21.331-37.518-45.046-51.944-70.504c0.489-0.383,1.043-0.685,1.617-0.941       c14.322,25.284,31.647,48.79,51.55,69.992c0.054,0.059,0.097,0.094,0.151,0.153C95.379,356.312,95.451,356.72,95.324,357.052z"/>
				</g>
			</g>
		</g>
		<g>
			<g>
				<path style="fill:#703427;" d="M45.413,157.351l18.269,87.151l0.1,0.477c0.076,0.452,0.478,0.754,0.905,0.754      c0.075,0,0.1,0,0.176-0.025h0.025c0.503-0.1,0.829-0.603,0.729-1.106l-18.37-87.654c-0.477,0.05-0.955,0.151-1.407,0.276      C45.689,157.276,45.538,157.301,45.413,157.351z"/>
			</g>
		</g>
		<g>
			<g>
				<path style="fill:#703427;" d="M84.138,312.906c0.1,0.1,0.226,0.151,0.352,0.201c0.1,0.025,0.201,0.05,0.301,0.05      c0.402,0,0.754-0.251,0.905-0.628c9.625-27.643,15.933-56.417,18.747-85.543c-0.603-0.151-1.231-0.201-1.86-0.201      c-2.79,28.925-9.047,57.447-18.596,84.915c-0.025,0.075-0.05,0.126-0.076,0.201C83.786,312.253,83.887,312.655,84.138,312.906z"/>
			</g>
		</g>
		<g>
			<g>
				<path style="fill:#703427;" d="M116.219,413.64c0.1,0.1,0.226,0.151,0.352,0.201c0.1,0.025,0.201,0.05,0.301,0.05      c0.402,0,0.754-0.251,0.904-0.628c9.625-27.643,15.933-56.417,18.747-85.543c-0.603-0.151-1.231-0.201-1.86-0.201      c-2.789,28.925-9.047,57.448-18.596,84.915c-0.025,0.075-0.05,0.126-0.075,0.201      C115.867,412.987,115.968,413.389,116.219,413.64z"/>
			</g>
		</g>
	</g>
	<g>
		<g>
			<path style="fill:#703427;" d="M452.301,190.982l-16.359,78.038l-0.09,0.428c-0.068,0.405-0.428,0.675-0.81,0.675     c-0.068,0-0.09,0-0.158-0.023h-0.023c-0.45-0.09-0.742-0.54-0.652-0.99l16.449-78.489c0.428,0.045,0.855,0.135,1.26,0.248     C452.053,190.915,452.189,190.937,452.301,190.982z"/>
		</g>
	</g>
	<g>
		<g>
			<path style="fill:#703427;" d="M417.625,330.272c-0.09,0.09-0.203,0.135-0.315,0.18c-0.09,0.022-0.18,0.045-0.27,0.045     c-0.36,0-0.675-0.225-0.81-0.563c-8.618-24.753-14.266-50.518-16.787-76.598c0.54-0.135,1.103-0.18,1.665-0.18     c2.498,25.9,8.101,51.441,16.652,76.036c0.023,0.067,0.045,0.113,0.068,0.18C417.94,329.687,417.85,330.047,417.625,330.272z"/>
		</g>
	</g>
	<g>
		<g>
			<path style="fill:#703427;" d="M388.898,420.473c-0.09,0.09-0.202,0.135-0.315,0.18c-0.09,0.022-0.18,0.045-0.27,0.045     c-0.36,0-0.675-0.225-0.81-0.562c-8.619-24.753-14.267-50.518-16.787-76.598c0.54-0.135,1.103-0.18,1.665-0.18     c2.498,25.9,8.101,51.441,16.652,76.036c0.022,0.067,0.045,0.112,0.067,0.18C389.214,419.888,389.123,420.248,388.898,420.473z"/>
		</g>
	</g>
	<g>
		<g>
			<g>
				<g>
					<path style="fill:#703427;" d="M420.69,385.911v0.025c-0.324,0.848-0.723,1.671-1.122,2.493h-16.282       c-1.222-10.597-5.436-19.798-9.5-30.146c-0.175-0.424-0.349-0.848-0.499-1.272c0.1,6.408-0.474,12.791-1.745,19.05       c0,0,0,0,0,0.025c-0.175,0.973-0.374,1.895-0.624,2.842v0.025c-0.698,3.216-1.621,6.358-2.693,9.475H126.884       c-6.334-9.974-10.373-21.369-10.922-33.188c-3.117,10.722-3.865,22.142-2.294,33.188h-13.39c-0.224,0-0.449-0.025-0.648-0.025       c-0.474-0.025-0.947-0.05-1.421-0.05c-1.97-0.075-3.84-0.075-5.935-0.174c-11.545-18.601-10.447-43.735,2.693-61.339       c2.194-2.917,4.663-5.635,7.206-8.303c1.521-1.596,3.067-3.167,4.588-4.763c3.017-3.142,5.934-6.358,8.428-9.899       c1.87-2.668,3.441-5.486,4.763-8.428l0.025-0.025c0.823-1.77,1.546-3.566,2.169-5.411c2.593-7.306,3.99-15.086,4.862-22.766       c1.496-12.841,1.77-25.857,4.738-38.449c1.795-7.555,4.488-14.861,7.979-21.818c1.521-3.067,3.216-6.059,5.062-8.952       c6.483-10.223,14.836-19.349,24.71-26.73c1.297-0.997,2.618-1.92,3.965-2.842c3.641-2.469,7.481-4.713,11.495-6.683       c27.977-13.814,53.41-30.545,84.479-29.697c15.26,0.399,31.792,5.411,47.052,13.14c1.87,0.948,3.715,1.945,5.561,2.967       c13.589,7.63,25.882,17.33,34.809,27.603c16.457,18.951,26.406,44.683,29.598,70.366c0,0.025,0.025,0.05,0.025,0.05       c0.299,2.369,0.549,4.762,0.723,7.131c0.549,7.356,0.549,14.687,0,21.768c-1.097,14.138-2.818,29.597,5.511,41.317       c4.389,6.184,11.071,10.448,16.432,15.883c5.511,5.561,9.65,12.642,12.093,20.272c0.349,0.972,0.623,1.97,0.873,2.967       C424.804,365.714,424.58,376.56,420.69,385.911z"/>
				</g>
			</g>
			<g>
				<g>
					<g>
						<path style="fill:#964941;" d="M140.075,388.429h-1.546c-8.129-12.168-12.143-28.45-10.822-45.605        c1.646-21.568,10.323-41.591,18.726-60.965l1.122,0.499c-8.328,19.275-16.956,39.198-18.601,60.566        C127.632,360.128,131.747,376.411,140.075,388.429z"/>
					</g>
				</g>
				<g>
					<g>
						<path style="fill:#964941;" d="M167.528,388.429h-1.247c-0.424-5.91-2.02-11.669-3.79-16.432        c-1.521-4.164-3.391-8.303-5.162-12.293c-3.242-7.206-6.608-14.661-8.228-22.541c-3.341-16.282,1.022-33.637,11.619-46.403        l0.972,0.798c-10.223,12.293-14.587,29.672-11.37,45.356c1.596,7.729,4.912,15.135,8.129,22.292        c1.795,4.014,3.665,8.154,5.211,12.343C165.458,376.435,167.104,382.345,167.528,388.429z"/>
					</g>
				</g>
				<g>
					<g>
						<path style="fill:#964941;" d="M179.297,388.429H178c-0.947-4.862-2.718-10.049-5.261-15.584        c-1.521-3.316-3.242-6.658-4.887-9.874c-4.014-7.78-8.154-15.833-10.098-24.511c-2.668-11.944-0.274-27.104,11.046-34.086        l0.648,1.072c-10.747,6.608-12.966,21.618-10.472,32.739c1.92,8.528,6.009,16.507,9.974,24.212        c1.671,3.241,3.391,6.583,4.937,9.924C176.504,378.031,178.3,383.417,179.297,388.429z"/>
					</g>
				</g>
				<g>
					<g>
						<path style="fill:#964941;" d="M204.431,388.429h-1.247c0.324-5.061-0.524-9.974-1.571-13.888        c-1.322-4.987-3.292-9.899-5.211-14.637c-1.247-3.142-2.568-6.383-3.691-9.65c-3.466-10.174-4.164-18.626-2.119-25.833        l1.197,0.349c-1.97,6.957-1.272,15.16,2.12,25.084c1.097,3.217,2.394,6.458,3.665,9.6c1.92,4.763,3.915,9.7,5.261,14.786        C203.883,378.231,204.755,383.243,204.431,388.429z"/>
					</g>
				</g>
				<g>
					<g>
						<path style="fill:#964941;" d="M318.408,388.429h-1.272c2.842-30.47-1.945-61.489-14.113-89.84l1.147-0.499        C316.388,326.616,321.2,357.759,318.408,388.429z"/>
					</g>
				</g>
				<g>
					<g>
						<path style="fill:#964941;" d="M333.069,388.429h-1.247c-0.898-8.602-2.518-17.205-4.139-25.658        c-0.474-2.519-0.973-5.037-1.421-7.53c-3.491-19.15-5.76-39.372,1.197-57.575l1.172,0.449        c-6.857,17.928-4.613,37.926-1.147,56.901c0.474,2.493,0.948,5.012,1.421,7.53        C330.526,371.05,332.172,379.727,333.069,388.429z"/>
					</g>
				</g>
				<g>
					<g>
						<path style="fill:#964941;" d="M354.114,388.429h-1.247c-1.571-10.971-4.588-21.992-7.58-32.864l-0.922-3.391        c-6.732-24.685-11.37-50.493,0.374-71.887l1.097,0.599c-11.52,20.995-6.932,46.528-0.274,70.964l0.923,3.391        C349.476,366.212,352.543,377.333,354.114,388.429z"/>
					</g>
				</g>
				<g>
					<g>
						<path style="fill:#964941;" d="M367.654,388.429h-1.271c-0.997-7.904-2.967-15.385-4.887-21.843        c-1.222-4.139-2.593-8.328-3.915-12.393c-3.391-10.373-6.882-21.07-8.578-32.041c-2.693-17.654,0.2-33.537,8.179-44.708        l0.997,0.723c-7.78,10.921-10.597,26.481-7.93,43.785c1.671,10.872,5.137,21.544,8.503,31.867        c1.322,4.064,2.693,8.253,3.94,12.417C364.637,372.795,366.631,380.4,367.654,388.429z"/>
					</g>
				</g>
				<g>
					<g>
						<path style="fill:#964941;" d="M391.541,376.062c0,0,0,0,0,0.025c-0.175,0.973-0.374,1.895-0.624,2.842        c-1.072-4.987-2.693-9.824-4.812-14.412c-3.266-7.107-7.73-13.714-12.068-20.122c-3.591-5.336-7.306-10.847-10.348-16.632        c-3.865-7.356-11.894-26.206-2.618-41.741l1.072,0.648c-8.952,14.986-1.122,33.338,2.668,40.519        c2.992,5.735,6.707,11.196,10.273,16.507c4.339,6.433,8.852,13.115,12.168,20.297        C389.048,367.858,390.469,371.897,391.541,376.062z"/>
					</g>
				</g>
				<g>
					<g>
						<path style="fill:#964941;" d="M420.69,385.911v0.025c-0.324,0.848-0.723,1.671-1.122,2.493h-0.025        c-0.299-14.013-5.71-27.952-15.833-37.502c-3.466-3.266-7.406-6.109-11.246-8.852c-4.164-2.992-8.478-6.084-12.218-9.775        c-16.457-16.257-19.299-44.059-6.458-63.309l1.022,0.698c-12.492,18.776-9.724,45.88,6.308,61.738        c3.665,3.591,7.929,6.658,12.068,9.625c3.865,2.768,7.855,5.635,11.37,8.952C414.307,359.231,419.817,372.421,420.69,385.911z        "/>
					</g>
				</g>
				<g>
					<g>
						<path style="fill:#964941;" d="M422.111,355.54c-1.87-2.294-3.715-4.289-5.361-5.91c-3.641-3.566-7.63-6.932-11.47-10.198        c-6.882-5.835-14.013-11.894-19.449-19.324c-8.378-11.495-12.018-29.049-2.743-40.319l0.973,0.798        c-8.877,10.772-5.336,27.678,2.793,38.798c5.336,7.306,12.392,13.29,19.225,19.1c3.865,3.267,7.879,6.658,11.545,10.273        c1.122,1.097,2.344,2.369,3.615,3.815C421.588,353.545,421.862,354.543,422.111,355.54z"/>
					</g>
				</g>
				<g>
					<g>
						<path style="fill:#964941;" d="M97.112,330.905c-7.68,18.377-6.533,39.895,2.518,57.499c-0.474-0.025-0.947-0.05-1.421-0.05        c-8.952-17.803-9.974-39.447-2.244-57.923c1.746-4.114,3.865-8.054,6.209-11.894c1.521-1.596,3.067-3.167,4.588-4.763        C103.047,319.235,99.631,324.896,97.112,330.905z"/>
					</g>
				</g>
				<g>
					<g>
						<path style="fill:#964941;" d="M131.248,388.429h-1.571c-12.841-17.454-17.379-41.092-10.697-61.838        c1.895-5.884,4.588-11.495,7.53-16.931c0.324,0.224,0.673,0.449,1.047,0.649c-2.868,5.361-5.536,10.871-7.381,16.656        C113.519,347.661,118.182,371.224,131.248,388.429z"/>
					</g>
				</g>
			</g>
			<g>
				<g>
					<g>
						<path style="fill:#FF5B44;" d="M132.535,477.145c0,0,21.944-93.719,123.293-94.661        c101.348-0.942,131.846,94.661,131.846,94.661S132.535,476.674,132.535,477.145z"/>
					</g>
				</g>
				<g>
					<g>
						<path style="fill:#FF9093;" d="M274.099,362.522v20.347c-5.311,5.137-13.315,7.605-20.621,6.059        c-4.638-0.997-9.65-3.89-13.34-7.805v-18.601H274.099z"/>
					</g>
				</g>
			</g>
			<g>
				<g>
					<g>
						<path style="fill:#241E1C;" d="M380.735,299.578c-0.341,0-0.681-0.142-0.926-0.418c-0.454-0.509-0.409-1.293,0.103-1.747        c4.39-3.903,5.972-11.304,3.6-16.853c-2.327-5.445-8.268-8.517-13.515-6.971c-0.66,0.19-1.345-0.185-1.537-0.841        c-0.191-0.658,0.185-1.346,0.842-1.538c6.432-1.874,13.676,1.8,16.488,8.375c2.765,6.469,0.906,15.113-4.232,19.679        C381.322,299.475,381.028,299.578,380.735,299.578z"/>
					</g>
				</g>
				<g>
					<g>
						<path style="fill:#241E1C;" d="M368.015,292.717c-0.139,0-0.282-0.024-0.421-0.074c-0.644-0.233-0.977-0.942-0.745-1.586        c2.86-7.918,8.805-13.232,15.905-14.214c0.676-0.084,1.303,0.382,1.396,1.057c0.094,0.678-0.379,1.305-1.057,1.399        c-6.171,0.853-11.373,5.563-13.913,12.599C368.998,292.403,368.522,292.717,368.015,292.717z"/>
					</g>
				</g>
			</g>
			<g>
				<g>
					<g>
						<path style="fill:#241E1C;" d="M131.254,301.765c-0.291,0-0.585-0.096-0.828-0.296c-5.624-4.624-7.5-13.378-4.27-19.931        c3.241-6.573,11.263-10.254,18.273-8.384c0.697,0.185,1.111,0.901,0.925,1.598c-0.186,0.697-0.9,1.12-1.598,0.925        c-5.847-1.562-12.55,1.521-15.257,7.015c-2.717,5.513-1.143,12.876,3.585,16.759c0.558,0.459,0.638,1.281,0.18,1.838        C132.006,301.604,131.631,301.765,131.254,301.765z"/>
					</g>
				</g>
				<g>
					<g>
						<path style="fill:#241E1C;" d="M145.482,294.88c-0.529,0-1.025-0.324-1.222-0.848c-2.649-7.046-8.31-11.766-15.142-12.628        c-0.716-0.089-1.222-0.743-1.132-1.459c0.089-0.716,0.737-1.235,1.459-1.132c7.81,0.985,14.263,6.33,17.259,14.301        c0.255,0.675-0.088,1.427-0.762,1.682C145.79,294.851,145.634,294.88,145.482,294.88z"/>
					</g>
				</g>
			</g>
			<g>
				<g>
					<path style="fill:#FFAAAD;" d="M392.148,259.958c-7.059-5.641-15.354-4.632-23-0.404       c1.485-61.945-43.103-114.71-102.355-119.375c-61.414-4.837-115.373,43.86-120.485,108.765       c-0.349,4.42-0.435,8.796-0.321,13.125c-8.646-4.706-18.242-6.054-26.511-0.152c-8.192,5.846-11.948,17.115-9.75,27.083       c2.197,9.967,9.861,18.308,19.201,22.042c9.037,3.612,19.391,3.092,28.38-0.591c10.412,22.301,27.396,40.708,48.545,52.171       c10.507,5.724,22.036,9.717,34.285,11.632v13.328c0,9.375,7.605,16.955,16.981,16.955c9.376,0,16.981-7.58,16.981-16.955       v-13.486c5.489-0.91,10.865-2.224,16.083-3.943c3.541-1.172,7.007-2.544,10.373-4.064       c24.825-11.195,45.311-31.601,57.254-57.437c7.862,3.338,16.862,3.699,24.822,0.226c8.517-3.716,15.609-12.02,17.793-21.945       C402.607,277.006,399.437,265.783,392.148,259.958z"/>
				</g>
				<g>
					<path style="fill:#FF9093;" d="M224.096,329.337c-1.081,13.729-8.066,25.594-18.245,33.296       c-27.599-14.975-48.121-41.748-56.181-73.592c8.764-6.782,19.987-10.432,31.899-9.495       C207.056,281.551,226.102,303.85,224.096,329.337z"/>
					<path style="fill:#FF9093;" d="M365.135,288.316c-1.77,6.708-4.064,13.166-6.832,19.299       c-11.869,26.331-32.59,47.127-57.749,58.472c-9.301-9.226-14.836-21.693-14.537-35.307       c0.673-27.528,25.209-49.271,54.831-48.548C349.651,282.457,357.904,284.626,365.135,288.316z"/>
					<g>
						<g>
							<path style="fill:#241E1C;" d="M259.381,319.637c-7.549,0-14.831-4.126-18.683-10.641c-0.702-1.185-0.309-2.713,0.877-3.415         c1.184-0.702,2.714-0.31,3.415,0.877c3,5.073,8.965,8.38,14.867,8.185c6.353-0.19,12.291-3.576,14.778-8.428         c0.628-1.225,2.128-1.716,3.357-1.079c1.226,0.627,1.71,2.132,1.081,3.357c-3.343,6.517-10.827,10.886-19.066,11.134         C259.798,319.635,259.59,319.637,259.381,319.637z"/>
						</g>
					</g>
					<g>
						<g>
							<g>
								<g>
									<path style="fill:#241E1C;" d="M173.292,274.071c7.961,4.124,16.518,6.652,25.317,7.262           c4.388,0.306,8.808,0.174,13.189-0.403c4.385-0.58,8.714-1.601,13.046-2.979l0.087-0.028           c2.152-0.685,4.45,0.505,5.135,2.656c0.563,1.77-0.146,3.641-1.611,4.63c-4.414,2.975-9.448,5.041-14.658,6.277           c-5.216,1.241-10.627,1.666-15.982,1.298c-10.671-0.735-21.326-4.507-29.505-11.432c-1.869-1.582-2.101-4.38-0.519-6.248           c1.362-1.609,3.625-2.005,5.421-1.074L173.292,274.071z"/>
								</g>
							</g>
							<g>
								<g>
									<path style="fill:#241E1C;" d="M294.031,277.331c8.424,3.072,17.233,4.484,26.038,3.963           c4.391-0.258,8.758-0.955,13.029-2.088c4.275-1.136,8.438-2.703,12.558-4.624l0.083-0.039           c2.046-0.954,4.479-0.069,5.433,1.977c0.785,1.683,0.321,3.63-1.005,4.798c-3.997,3.516-8.726,6.208-13.734,8.101           c-5.015,1.899-10.327,3.012-15.685,3.332c-10.678,0.637-21.728-1.741-30.725-7.563c-2.056-1.33-2.644-4.075-1.314-6.131           c1.145-1.77,3.339-2.452,5.239-1.759L294.031,277.331z"/>
								</g>
							</g>
						</g>
						<g>
							<g>
								<g>
									<path style="fill:#662D24;" d="M183.098,240.88c-1.586,1.32-3.016,2.931-3.657,4.892c-0.641,1.961-0.351,4.32,1.115,5.772           c2.043,2.024,5.372,1.651,8.202,1.136c5.268-0.959,10.535-1.917,15.803-2.876c7.94-1.445,6.955-10.966,0.271-13.541           C198.304,233.749,188.176,236.654,183.098,240.88z"/>
								</g>
							</g>
						</g>
						<g>
							<g>
								<g>
									<path style="fill:#662D24;" d="M333.956,243.426c1.586,1.32,3.016,2.931,3.657,4.892c0.641,1.962,0.351,4.319-1.115,5.772           c-2.043,2.025-5.372,1.652-8.202,1.136c-5.267-0.958-10.535-1.917-15.803-2.876c-7.94-1.445-6.955-10.966-0.271-13.541           C318.75,236.295,328.878,239.201,333.956,243.426z"/>
								</g>
							</g>
						</g>
					</g>
				</g>
			</g>
			<g>
				<g>
					<path style="fill:#703427;" d="M374.813,244.381c-0.133-0.936-0.339-1.792-0.6-2.581c-0.5-11.173-2.342-22.665-5.562-33.574       v-0.025c-0.648-2.194-1.346-4.388-2.119-6.508v-0.025c-2.493-7.082-5.61-13.814-9.35-19.948       c-8.802-14.462-21.419-26.032-36.056-34.335c-1.845-1.047-3.74-2.07-5.66-3.017h-0.025       c-9.575-4.762-19.823-8.178-30.346-10.148c-0.025,0-0.025-0.025-0.025-0.025c-0.947-0.174-1.895-0.349-2.842-0.499       c-2.743-0.449-5.486-0.798-8.228-1.047c-3.84-0.349-7.68-0.524-11.47-0.549c-0.773,0-1.521,0-2.294,0.025h-0.025       c-2.618,0.025-5.236,0.15-7.829,0.349c-0.598,0.049-1.197,0.099-1.795,0.149h-0.025c-2.568,0.249-5.111,0.573-7.68,0.998       c-0.549,0.075-1.122,0.174-1.671,0.249c0,0,0,0-0.025,0c-5.585,0.997-11.071,2.419-16.507,4.289       c-0.474,0.15-0.948,0.324-1.446,0.498c-1.471,0.523-2.917,1.072-4.389,1.671c-0.474,0.2-0.947,0.399-1.446,0.599       c-4.463,1.92-8.852,4.139-13.166,6.682c-0.349,0.225-0.723,0.449-1.097,0.648c-1.995,1.222-3.965,2.493-5.91,3.865       c-0.349,0.224-0.698,0.474-1.022,0.723c-2.07,1.446-4.089,2.992-6.109,4.638c-0.349,0.249-0.698,0.524-1.022,0.823       c-0.175,0.125-0.349,0.274-0.524,0.424c-0.399,0.324-0.798,0.673-1.197,1.022c-0.274,0.199-0.524,0.424-0.798,0.648v0.025       c-0.798,0.673-1.596,1.372-2.369,2.07v0.025c-0.548,0.474-1.072,0.972-1.596,1.471c-0.549,0.224-1.122,0.449-1.671,0.673       c-0.748,0.324-1.471,0.648-2.194,0.973c-1.596,0.748-3.167,1.571-4.688,2.443c-0.15,0.05-0.299,0.15-0.449,0.249       c-1.122,0.624-2.219,1.272-3.291,1.995c-7.805,4.987-14.662,11.445-20.322,18.776c-0.025,0.025-0.025,0.05-0.075,0.1       c-3.416,4.463-6.383,9.226-8.852,14.213c-0.025,0.05-0.05,0.1-0.05,0.149c-0.324,0.599-0.623,1.197-0.898,1.795       c-0.923,1.995-1.745,4.039-2.493,6.109c0,0.025,0,0.05-0.025,0.075c-5.161,14.861-5.336,31.567-2.892,47.326       c0.2,1.347,0.424,2.693,0.673,4.015c0.125,0.673,0.249,1.346,0.374,2.02c1.391,0.046,2.822,0.059,4.271,0.057       c2.238,11.579,6.7,25.248,11.753,24.073c1.731-0.403,2.625-2.28,3.221-3.954c2.37-6.666,3.846-13.66,4.238-20.722       c0.592-0.025,1.185-0.053,1.777-0.077c0.399,0,0.823-0.025,1.247-0.025c2.094-0.075,4.164-0.15,6.184-0.199       c0.424,0,0.848-0.025,1.247-0.025c2.493-0.025,4.912-0.025,7.231,0.025c0.873-28.102,6.134-53.21,11.819-78.719       c5.885,20.771,8.503,41.641,8.827,64.082c4.114-0.1,8.253-0.2,12.417-0.274c0.424,0,0.848-0.025,1.272,0       c5.436-0.125,10.896-0.174,16.357-0.225c0.424,0,0.823-0.025,1.247-0.025c5.785-0.05,11.57-0.05,17.354-0.05       c0.399,0,0.823,0,1.247,0.025c2.793-0.025,5.585,0,8.378,0.025c0.424-0.025,0.848,0,1.296,0c5.71,0.025,11.42,0.1,17.155,0.2       c0.424-0.025,0.848,0,1.272,0.025c3.665,0.025,7.356,0.1,11.021,0.2c0.424-0.025,0.873,0,1.297,0.025       c6.957,0.125,13.938,0.324,20.87,0.573c0.424-0.025,0.848,0,1.272,0.025c1.796,0.05,3.59,0.1,5.386,0.174       c1.272-8.602,0.947-17.454-1.022-25.932c6.433,7.655,11.545,16.756,14.013,26.431h0.224c0.424,0.025,0.873,0.05,1.297,0.075       c7.206,0.274,14.412,0.624,21.569,0.997c0.449,0.025,0.873,0.05,1.321,0.075h0.025c0.521,0.029,1.034,0.058,1.554,0.087       c-0.238,2.107-0.317,4.23-0.271,6.236c0.204,8.974,1.742,17.885,4.331,26.344c0.596,1.945,1.49,4.125,3.221,4.593       C369.474,291.133,375.886,251.936,374.813,244.381z"/>
				</g>
				<g>
					<g>
						<g>
							<path style="fill:#964941;" d="M178.723,165.638c0.723-0.324,1.446-0.648,2.194-0.973         c-10.872,14.811-15.385,32.814-17.205,46.603c-1.97,14.911-1.77,30.271-1.571,45.132c0.05,2.593,0.075,5.211,0.1,7.854         c-0.424,0-0.848,0.025-1.247,0.025c-0.025-2.643-0.05-5.286-0.1-7.879c-0.2-14.886-0.399-30.296,1.571-45.306         C164.236,197.679,168.55,180.299,178.723,165.638z"/>
						</g>
					</g>
					<g>
						<g>
							<path style="fill:#964941;" d="M184.184,162.496c0.773-0.698,1.571-1.396,2.369-2.07c-0.873,1.82-1.72,3.616-2.518,5.461         c-0.324,0.748-0.648,1.521-0.972,2.269c-12.742,30.021-17.479,63.583-13.39,95.874c-0.399,0-0.823,0.025-1.247,0.025         c-4.139-32.914,0.823-67.099,14.013-97.594c0.25-0.623,0.524-1.272,0.823-1.895c0.299-0.698,0.623-1.347,0.923-2.045V162.496         z"/>
						</g>
					</g>
					<g>
						<g>
							<path style="fill:#964941;" d="M211.238,249.144c-0.424-0.025-0.848,0-1.272,0c-1.047-14.662-6.433-29.323-11.669-43.586         l-1.621-4.463c-2.519-6.932-4.912-14.213-6.633-21.594c-0.299-1.271-0.598-2.518-0.823-3.79l-0.025-0.025         c-1.072-5.311-1.745-10.647-1.845-15.933c0.399-0.349,0.798-0.698,1.197-1.022c0.075,14.088,4.463,28.675,9.301,41.94         l1.621,4.463C204.755,219.546,210.191,234.308,211.238,249.144z"/>
						</g>
					</g>
					<g>
						<g>
							<path style="fill:#964941;" d="M228.842,248.895c-0.424,0-0.823,0.025-1.247,0.025c-3.167-15.11-9.325-29.298-14.986-40.967         c-2.344-4.838-4.837-9.75-7.231-14.462c-5.785-11.395-11.744-23.065-16.307-35.183c0.324-0.299,0.673-0.573,1.022-0.823         c4.588,12.218,10.547,23.987,16.382,35.432c2.419,4.738,4.912,9.625,7.256,14.487         C219.467,219.222,225.7,233.56,228.842,248.895z"/>
						</g>
					</g>
					<g>
						<g>
							<path style="fill:#964941;" d="M247.443,248.87c-0.424-0.025-0.848-0.025-1.247-0.025         c-3.491-29.872-16.382-58.821-36.704-80.913c-1.097-1.197-2.219-2.369-3.366-3.566c-3.491-3.69-7.032-7.43-9.924-11.52         c0.324-0.249,0.673-0.499,1.022-0.723c2.843,4.039,6.358,7.755,9.824,11.395c1.122,1.172,2.244,2.369,3.341,3.566         C230.937,189.425,243.952,218.674,247.443,248.87z"/>
						</g>
					</g>
					<g>
						<g>
							<path style="fill:#964941;" d="M257.118,248.895c-0.449,0-0.873-0.025-1.297,0c-6.683-37.751-25.434-73.732-52.687-100.637         c0.374-0.199,0.748-0.424,1.097-0.648C231.61,174.714,250.436,210.919,257.118,248.895z"/>
						</g>
					</g>
					<g>
						<g>
							<path style="fill:#964941;" d="M275.545,249.119c-0.424-0.025-0.848-0.05-1.272-0.025         c-2.543-19.474-6.782-40.793-15.908-60.542c-9.725-21.045-24.037-37.601-40.968-47.625c0.499-0.2,0.973-0.399,1.446-0.599         c16.781,10.198,30.969,26.78,40.644,47.7C268.688,207.977,273.001,229.495,275.545,249.119z"/>
						</g>
					</g>
					<g>
						<g>
							<path style="fill:#964941;" d="M287.863,249.343c-0.424-0.025-0.873-0.05-1.297-0.025         c-4.663-18.003-10.148-35.931-17.953-52.862c-11.495-24.96-27.079-44.758-45.381-57.798c0.499-0.175,0.973-0.349,1.446-0.499         c18.152,13.19,33.637,32.964,45.082,57.773C277.639,213.063,283.175,231.166,287.863,249.343z"/>
						</g>
					</g>
					<g>
						<g>
							<path style="fill:#964941;" d="M310.005,249.942c-0.424-0.025-0.848-0.05-1.272-0.025         c-6.957-45.506-31.418-87.521-67.523-116.046c0.549-0.075,1.122-0.174,1.671-0.249         C278.786,162.371,303.073,204.436,310.005,249.942z"/>
						</g>
					</g>
					<g>
						<g>
							<path style="fill:#964941;" d="M329.903,250.69c-0.424-0.025-0.873-0.05-1.297-0.075         c-12.368-46.528-39.971-88.394-78.021-117.991c0.598-0.05,1.197-0.1,1.795-0.149         C290.232,162.271,317.66,204.187,329.903,250.69z"/>
						</g>
					</g>
					<g>
						<g>
							<path style="fill:#964941;" d="M352.793,251.762c-0.449-0.025-0.873-0.05-1.321-0.075         c-15.061-48.872-48.024-92.209-91.236-119.562c0.773-0.025,1.521-0.025,2.294-0.025         C305.317,159.778,337.907,203.064,352.793,251.762z"/>
						</g>
					</g>
					<g>
						<g>
							<path style="fill:#964941;" d="M362.143,252.286c-0.424-0.025-0.873-0.05-1.297-0.075         c-11.345-47.127-39.572-89.765-78.619-118.515c0.947,0.15,1.895,0.324,2.842,0.499c0,0,0,0.025,0.025,0.025         C323.345,163.219,350.997,205.583,362.143,252.286z"/>
						</g>
					</g>
					<g>
						<g>
							<path style="fill:#964941;" d="M368.651,208.226v-0.025c-13.24-24.112-30.994-45.78-52.163-62.985         c-0.324-0.299-0.673-0.573-1.022-0.848c1.92,0.948,3.815,1.97,5.66,3.017c0.299,0.274,0.624,0.524,0.923,0.798         c17.404,14.986,32.515,33.089,44.483,53.485v0.025c0.548,0.873,1.047,1.721,1.546,2.593         c7.655,13.39,13.814,27.453,18.377,41.865c0,0.025,0.025,0.05,0.025,0.05c0.299,2.369,0.549,4.762,0.723,7.131         C382.789,237.699,376.506,222.538,368.651,208.226z"/>
						</g>
					</g>
					<g>
						<g>
							<path style="fill:#964941;" d="M170.296,170.325c1.072-0.723,2.169-1.371,3.291-1.995l-0.125,0.125         c-11.246,12.642-18.9,30.071-22.865,52.064c-1.397,7.78-1.845,15.858-2.269,23.688c-0.374,6.832-0.773,13.789-1.795,20.646         v0.025c-0.424,0.025-0.848,0.025-1.272,0.05c0-0.025,0-0.025,0-0.05c1.047-6.882,1.446-13.888,1.82-20.746         c0.424-7.854,0.873-15.983,2.294-23.813c3.641-20.197,10.373-36.604,20.122-49.022         C169.747,170.973,169.996,170.649,170.296,170.325z"/>
						</g>
					</g>
					<g>
						<g>
							<path style="fill:#964941;" d="M149.899,189.201c-1.87,2.818-3.591,5.785-5.112,8.827c-3.74,7.53-6.258,15.634-7.281,23.937         c-0.748,6.109-0.773,12.417-0.798,18.526c-0.025,5.66-0.05,11.47-0.648,17.18l-1.222-0.075         c0.598-5.66,0.598-11.445,0.623-17.105c0.025-6.134,0.05-12.492,0.823-18.676c0.624-5.062,1.795-10.024,3.441-14.836         c0.399-1.147,0.798-2.294,1.271-3.416c0-0.05,0.025-0.1,0.05-0.15C143.516,198.427,146.483,193.664,149.899,189.201z"/>
						</g>
					</g>
				</g>
			</g>
			<g>
				<path style="fill:#FFB3B9;" d="M236.591,357.708c-7.535-4.871-13.184-14.139-10.587-22.728      c2.132-7.052,8.914-11.482,13.449-17.288c1.364-1.746,2.51-3.646,3.435-5.649l2.377-1.7l-0.391-4.044      c1.88-7.843,0.78-16.439-3.44-23.334c9.133,3.927,16.085,11.906,18.286,21.601c0.748,3.294,0.93,6.702,0.588,10.059l-2.13,1.904      l1.22,3.108c-1.237,4.701-3.518,9.126-6.718,12.788c-3.535,4.045-8.046,7.134-11.659,11.109      C237.407,347.509,235.411,352.467,236.591,357.708z"/>
				<path style="fill:#FFB3B9;" d="M274.789,357.708c-7.535-4.871-13.184-14.139-10.587-22.728      c2.132-7.052,8.914-11.482,13.449-17.288c7.595-9.722,8.42-24.206,1.98-34.728c9.133,3.927,16.086,11.906,18.286,21.601      c2.201,9.695-0.498,20.374-7.04,27.859c-3.535,4.045-8.046,7.134-11.66,11.109C275.605,347.509,273.609,352.467,274.789,357.708      z"/>
				<path style="fill:#443A40;" d="M259.857,314.643c-5.902,0.195-11.867-3.112-14.867-8.185c-0.039-0.066-0.089-0.12-0.133-0.181      c-0.472,1.975-1.122,3.903-1.97,5.744c4.09,4.736,10.194,7.616,16.493,7.616c0.003,0,0.005,0,0.008,0      c0.434-1.647,0.733-3.327,0.906-5.02C260.149,314.624,260.004,314.639,259.857,314.643z"/>
				<path style="fill:#FFA4AB;" d="M286.297,336.925c1.602-1.427,3.169-2.887,4.58-4.501c6.542-7.485,9.241-18.164,7.04-27.859      c-0.228-1.005-0.519-1.986-0.846-2.951c-6.695,8.09-10.784,18.162-11.053,29.165      C285.972,332.859,286.078,334.907,286.297,336.925z"/>
			</g>
		</g>
		<g>
			<g>
				<path style="fill:#FFDBAF;" d="M321.866,384.709c-5.724-4.064-13.268-4.815-19.602-2.664l1.105-6.689l0.439-2.608l0.707-4.266      c0.195-1.267-0.585-2.462-1.828-2.779c-10.141-2.487-53.993-11.871-92.605,1.56c-1.097,0.366-1.779,1.511-1.609,2.657      l0.366,2.633l0.365,2.584l10.482,73.982c1.024,7.216,7.191,12.578,14.48,12.578h42.537c7.142,0,13.261-5.168,14.431-12.237      l1.21-7.325c8.78-1.423,16.061-3.962,22.154-7.724c8.857-5.467,15.056-13.719,17.007-22.639      C333.757,401.47,329.795,390.341,321.866,384.709z M324.359,410.209c-1.531,6.995-6.526,13.548-13.706,17.98      c-4.705,2.905-10.329,4.974-17.047,6.287l7.175-43.451c4.391-3.618,11.804-3.937,16.85-0.353      C323.238,394.655,326.005,402.689,324.359,410.209z"/>
			</g>
			<g>
				<path style="fill:#DFA76D;" d="M300.297,369.481c0,0.488-0.682,0.951-1.974,1.389c-5.534,1.901-22.17,0.353-41.793,0.353      c-18.453,0-34.212,1.72-40.647-0.011c-2.023-0.536-3.12-1.121-3.12-1.731c0-2.559,19.599-6.947,43.78-6.947      C280.699,362.534,300.297,366.922,300.297,369.481z"/>
				<path style="fill:#241E1C;" d="M298.323,370.871c-4.632,1.585-16.966,2.828-32.347,3.169c-3.047,0.073-6.192,0.122-9.434,0.122      c-18.452,0-34.224-1.219-40.659-2.949c3.072-2.584,20.476-6.192,41.464-6.192c4.729,0,9.287,0.195,13.529,0.512      C284.648,366.532,295.203,368.92,298.323,370.871z"/>
				<path style="fill:#332B29;" d="M298.323,370.871c-4.632,1.585-16.966,2.828-32.347,3.169c0.024-0.536,0.414-1.024,0.853-1.317      c0.488-0.317,1.048-0.463,1.585-0.585c1.901-0.463,3.827-0.756,5.753-0.878c0.414-0.024,0.853-0.024,1.243-0.22      c0.366-0.195,0.658-0.634,0.536-1.048c-0.122-0.463-0.658-0.658-1.145-0.78c-1.073-0.268-2.121-0.561-3.193-0.829      c-0.487-0.122-0.975-0.268-1.365-0.56c-0.39-0.268-0.682-0.78-0.585-1.268c0.122-0.536,0.658-0.853,1.219-1.024      C284.648,366.532,295.203,368.92,298.323,370.871z"/>
			</g>
			<g>
				<g>
					<g>
						<g>
							<path style="fill:#FFFFFF;" d="M289.674,384.565c-0.508,1.588-0.405,3.354-0.18,5.03c0.225,1.677,0.566,3.351,0.509,5.048         c-0.058,1.731-0.528,3.425-0.504,5.158c0.025,1.732,0.754,3.662,2.17,4.092c0.882,0.269,1.839-0.124,2.542-0.811         c0.703-0.687,1.188-1.635,1.593-2.602c1.513-3.612,2.083-7.769,1.612-11.763c-0.182-1.546-0.528-3.096-1.25-4.401         C294.477,381.265,290.905,380.715,289.674,384.565z"/>
						</g>
					</g>
					<g>
						<g>
							<path style="fill:#FFFFFF;" d="M294.133,409.346c0,1.046-0.848,1.893-1.893,1.893c-1.045,0-1.893-0.847-1.893-1.893         c0-1.045,0.847-1.893,1.893-1.893C293.286,407.453,294.133,408.301,294.133,409.346z"/>
						</g>
					</g>
				</g>
				<g>
					<g>
						<g>
							<path style="fill:#FFFFFF;" d="M229.956,454.317c-0.557,0-1.117-0.19-1.576-0.58c-3.391-2.878-5.384-7.135-6.092-13.014         c-0.162-1.336,0.792-2.551,2.128-2.711c1.329-0.155,2.552,0.792,2.711,2.128c0.555,4.603,1.996,7.835,4.406,9.882         c1.027,0.871,1.152,2.409,0.281,3.435C231.333,454.025,230.646,454.317,229.956,454.317z"/>
						</g>
					</g>
					<g>
						<g>
							<path style="fill:#FFFFFF;" d="M237.705,455.48c0,1.089-0.905,1.971-2.023,1.971c-1.117,0-2.023-0.882-2.023-1.971         c0-1.089,0.905-1.971,2.023-1.971C236.8,453.509,237.705,454.391,237.705,455.48z"/>
						</g>
					</g>
				</g>
			</g>
			<g>
				<g>
					<path style="fill:#FFFFFF;" d="M303.808,372.748l-0.439,2.608c-15.064,3.876-30.69,5.826-46.412,5.826       c-16.015,0-32.104-1.999-47.753-6.045l-0.365-2.584C240.161,380.767,273.264,380.792,303.808,372.748z"/>
				</g>
			</g>
		</g>
		<g>
			<g>
				<path style="fill:#FFAAAD;" d="M197.626,466.569c-7.995-3.192-13.547-10.746-12.98-23.975      c0.875-20.407,18.078-64.299,27.698-61.384c0,0,4.771,1.037,0.288,23.486c0,0,13.888-18.637,20.791-15.149      c6.903,3.488-6.798,27.685-6.798,27.685s11.078-16.908,17.491-13.118c6.413,3.79-10.203,34.691-10.203,34.691      s11.661-8.454,14.868-5.539c3.207,2.915-1.166,11.077-8.745,20.114C229.886,465.482,210.56,471.733,197.626,466.569z"/>
			</g>
		</g>
		<g>
			<g>
				<path style="fill:#FFAAAD;" d="M322.06,467.156c9.923-4.352,13.13-15.375,12.696-25.496      c-0.874-20.406-17.621-59.958-27.112-61.514c0,0-6.705-2.621-0.874,23.616c0,0-13.888-18.637-20.792-15.149      c-6.903,3.488,6.798,27.684,6.798,27.684s-11.078-16.908-17.491-13.118c-6.414,3.79,10.203,34.691,10.203,34.691      s-11.661-8.454-14.868-5.539c-3.207,2.915,1.166,11.078,8.745,20.115c5.088,6.066,9.893,12.063,17.661,14.736      C304.804,469.858,314.261,470.559,322.06,467.156z"/>
			</g>
		</g>
	</g>
	<g>
		<path style="fill:#FF5B44;" d="M414.602,146.642c-17.499-8.15-32.328,5.642-34.515,8.371c-0.944-4-7.27-22.63-26.273-22.538    c-11.875,0.058-18.943,11.64-19.576,21.379c-0.958,14.743,6.045,28.961,13.976,41.28c5.046,7.837,11.078,16.07,18.523,21.873    l-0.045,0.211c0.076-0.017,0.15-0.043,0.226-0.06c0.006,0.005,0.012,0.01,0.018,0.015l0.004-0.021    c9.189-2.161,18.109-7.122,25.969-12.134c12.353-7.879,23.615-18.307,28.904-32.102    C425.308,163.801,425.367,151.655,414.602,146.642z"/>
		<path style="fill:#FF5B44;" d="M185.08,79.547c-21.236,3.541-26.176,25.579-26.467,29.469c-3.391-3.084-20.96-16.23-38.38-4.16    c-10.887,7.543-10.082,22.654-4.522,32.01c8.417,14.165,23.826,22.826,38.891,29.154c9.584,4.026,20.325,7.794,30.833,8.436    l0.091,0.222c0.059-0.063,0.111-0.134,0.17-0.198c0.009,0.001,0.018,0.002,0.026,0.003l-0.009-0.022    c7.089-7.783,12.165-17.972,16.232-27.539c6.393-15.038,10.174-31.733,6.339-47.758C205.75,88.578,198.144,77.369,185.08,79.547z"/>
	</g>
	<g>
		<path style="fill:#FFF1E3;" d="M258.093,105.328c-2.801,0.879-6.041,3.804-7.203,6.5l-5.673,13.181    c-1.16,2.696-2.829,2.61-3.707-0.19l-4.296-13.691c-0.879-2.801-3.804-6.042-6.5-7.203l-13.18-5.672    c-2.697-1.161-2.612-2.83,0.189-3.708l13.692-4.296c2.801-0.878,6.042-3.804,7.203-6.499l5.673-13.182    c1.161-2.695,2.829-2.61,3.708,0.19l4.297,13.692c0.878,2.801,3.803,6.043,6.498,7.203l13.182,5.672    c2.695,1.162,2.61,2.83-0.191,3.709L258.093,105.328z"/>
		<path style="fill:#FFF1E3;" d="M306.923,142.326c-2.253,0.707-4.858,3.059-5.793,5.227l-4.562,10.6    c-0.933,2.168-2.275,2.099-2.981-0.153l-3.454-11.01c-0.707-2.253-3.059-4.859-5.227-5.792l-10.599-4.562    c-2.169-0.934-2.101-2.276,0.152-2.982l11.011-3.455c2.253-0.706,4.859-3.059,5.793-5.227l4.562-10.601    c0.934-2.168,2.275-2.099,2.982,0.153l3.455,11.011c0.706,2.253,3.059,4.86,5.226,5.793l10.601,4.562    c2.168,0.934,2.099,2.275-0.153,2.982L306.923,142.326z"/>
		<path style="fill:#FFF1E3;" d="M142.67,216.49c-2.442,0.767-5.268,3.317-6.281,5.668l-4.946,11.494    c-1.012,2.351-2.467,2.276-3.232-0.166l-3.746-11.939c-0.767-2.443-3.317-5.269-5.668-6.281l-11.493-4.946    c-2.352-1.013-2.278-2.467,0.165-3.234l11.939-3.746c2.442-0.766,5.269-3.317,6.281-5.667l4.947-11.494    c1.012-2.351,2.467-2.276,3.233,0.166l3.746,11.94c0.766,2.443,3.316,5.269,5.667,6.281l11.494,4.946    c2.35,1.013,2.276,2.468-0.166,3.234L142.67,216.49z"/>
		<path style="fill:#FFF1E3;" d="M383.921,395.416c-1.895,0.595-4.086,2.573-4.872,4.396l-3.837,8.915    c-0.785,1.824-1.914,1.766-2.507-0.129l-2.906-9.261c-0.595-1.895-2.573-4.087-4.397-4.872l-8.915-3.837    c-1.824-0.785-1.767-1.914,0.128-2.508l9.261-2.906c1.895-0.594,4.087-2.573,4.872-4.396l3.837-8.916    c0.785-1.823,1.914-1.765,2.508,0.129l2.906,9.261c0.594,1.895,2.572,4.087,4.395,4.872l8.916,3.837    c1.823,0.786,1.766,1.914-0.129,2.509L383.921,395.416z"/>
	</g>
</g>















</svg>
