<?xml version="1.0" encoding="UTF-8"?>
<!-- Generator: Adobe Illustrator 25.2.1, SVG Export Plug-In . SVG Version: 6.00 Build 0)  -->
<svg xmlns="http://www.w3.org/2000/svg" xmlns:xlink="http://www.w3.org/1999/xlink" version="1.1" id="Capa_1" x="0px" y="0px" viewBox="0 0 512 512" style="enable-background:new 0 0 512 512;" xml:space="preserve" width="512" height="512">
<g>
	<path style="fill:#FFFFFF;" d="M422.219,433.401c-2.704-0.063-5.375-0.489-7.949-1.252c-0.567,0.161-1.143,0.294-1.726,0.396   c-1.05,0.185-2.124,0.278-3.192,0.278c-5.863,0-11.436-2.731-15.287-7.493c-2.718-3.359-3.907-6.883-4.617-8.988l-4.585-13.594   H51.509l-2.243-12.312c-2.693-14.784-4.647-26.798-6.157-37.922c-0.001-0.001-0.002-0.001-0.004-0.002   c-0.371-0.248-0.73-0.496-1.089-0.744c-3.824-2.644-7.411-5.415-10.718-8.277c-5.137-4.451-9.824-9.472-13.935-14.928l-0.134-0.177   c-0.199-0.266-0.403-0.539-0.6-0.811C10.4,319.097,5.818,309.964,3.01,300.43c-0.027-0.093-0.054-0.185-0.08-0.278   c-0.107-0.363-0.209-0.718-0.303-1.071c-1.25-4.516-2.08-9.124-2.467-13.702c-0.049-0.525-0.085-1.05-0.119-1.592l-0.029-0.513   C0.004,283.063,0,282.854,0,282.644V262.43l19.347,5.857c7.098,2.149,14.027,4.88,20.701,8.156c0.406-4.796,0.948-9.49,1.63-14.1   c-5.128-4.15-10.812-9.287-14.895-16.462c-6.64-11.631-6.445-25.512,0.505-35.345c2.589-3.655,6.002-6.65,10.03-8.832   c1.072-0.916,2.286-1.696,3.625-2.302c2.832-4.818,6.746-8.866,11.478-11.785c5.342-3.296,11.602-5.038,18.103-5.038   c0.611,0,1.223,0.016,1.833,0.047c19.728-28.9,47.586-52.707,79.976-68.333c0.105-3.24,0.503-6.633,1.392-10.113   c3.296-12.983,13.072-22.838,24.901-25.091c1.745-0.331,3.528-0.497,5.312-0.497c2.646,0,5.341,0.373,7.972,1.093   c1.466,0.086,2.905,0.379,4.292,0.875c3.048-0.845,6.19-1.279,9.342-1.279c2.393,0,4.776,0.255,7.083,0.757   c7.945,1.731,15.047,6.416,20.033,12.852c6.832-0.561,13.738-0.844,20.632-0.844c12.116,0,24.4,0.872,36.51,2.592   c9.139,1.299,18.157,3.099,26.807,5.35c6.42,1.648,12.76,3.588,18.793,5.754l1.395,0.5c12.28,4.504,23.714,10.018,34.031,16.405   c8.811,5.393,17.149,11.697,24.733,18.699c11.688,10.835,22.064,23.93,30.954,39.047c9.659-4.804,20.714-9.179,32.998-10.077   l0.546-0.04h0.132c0.88-0.054,1.784-0.08,2.793-0.08l0.206,0c5.171,0,10.009,0.793,14.384,2.359   c0.852,0.286,1.715,0.629,2.626,1.043c3.254,1.455,6.162,3.387,8.578,5.715c0.635,0.582,1.242,1.216,1.814,1.895   c0.742,0.833,1.445,1.745,2.095,2.719c0.838,1.246,1.579,2.592,2.211,4.02c6.789,1.799,12.069,5.923,14.917,11.674l0.049,0.101   c1.11,2.283,1.785,4.675,2.011,7.122c0.151,1.296,0.165,2.618,0.043,3.945c-0.425,5.343-2.778,10.708-7,15.949   c-2.749,3.413-5.729,6.646-8.856,9.611c-0.422,0.405-0.912,0.859-1.411,1.318l-0.061,0.06l-0.314,0.285   c-0.621,0.559-1.249,1.109-1.882,1.651c0.348,0.811,0.647,1.647,0.892,2.503c0.446,1.549,0.704,3.149,0.767,4.768   c0.074,1.153,0.038,2.328-0.107,3.562c-0.647,5.519-3.343,10.786-8.015,15.65c-0.459,0.482-0.946,0.958-1.44,1.43l-0.072,0.075   l-0.298,0.28c-7.074,6.642-14.978,12.354-23.518,16.997c5.031,34.999,4.838,70.308-0.588,105.131l-1.978,12.69h-12.679   c1.136,3.662,1.886,8.502,0.456,13.753c-2.712,9.954-12.184,16.905-23.034,16.905C422.592,433.407,422.405,433.405,422.219,433.401   z"/>
	<g>
		<path style="fill:#CDE6CF;" d="M445.193,387.748H167.554l-1.098-0.663l-2.499,0.663h-53.693l-1.055-0.883l-0.804,0.883h-2.078    l-1.008-0.385l-0.851,0.385h-6.874l-1.009-0.354l-0.91,0.354H64.024c-2.657-14.587-5.115-29.315-6.934-44.062    c-0.2-1.758-0.4-3.497-0.6-5.255c-0.04-0.32-0.08-0.639-0.1-0.959c-0.799-7.274-1.419-14.548-1.799-21.801    c-0.04-0.46-0.06-0.919-0.06-1.399c-0.2-3.837-0.34-7.693-0.36-11.53c-0.22-15.746,0.839-31.353,3.777-46.64    c1.179-6.235,2.658-12.409,4.516-18.524c0.939-3.137,1.958-6.275,3.097-9.372c1.978-5.415,4.236-10.711,6.774-15.866    c0.12-0.28,0.26-0.559,0.419-0.839c0.22-0.46,0.44-0.919,0.68-1.379c1.838-3.617,3.797-7.154,5.915-10.631    c20.262-33.671,52.095-60.428,88.463-75.734c0.24-0.12,0.5-0.22,0.739-0.32c5.335-2.218,10.771-4.216,16.266-5.975    c5.915-1.898,11.89-3.517,17.944-4.876c2.298-0.539,4.616-1.019,6.954-1.479c0.699-0.12,1.399-0.26,2.118-0.38    c4.117-0.759,8.273-1.399,12.449-1.898c21.022-2.618,42.443-2.318,63.405,0.659c8.433,1.199,16.845,2.858,25.138,5.016    c5.915,1.519,17.157,13.419,17.392,13.503c0.214,0.076,49.93,19.728,51.668,21.247c1.159,0.999,2.318,2.018,3.457,3.077    c26.837,24.878,42.743,59.568,52.254,94.918C449.849,292.871,452.466,341.069,445.193,387.748z"/>
		<g>
			<g>
				<g>
					<path style="fill:#50A050;" d="M375.818,258.354c-8.313,3.017-16.686,5.915-25.118,8.692       c-6.734-5.096-12.529-12.009-17.785-18.444c19.983-10.97,39.945-21.921,59.928-32.851l20.542,0.989L375.818,258.354z"/>
				</g>
				<path style="fill:#456638;" d="M481.706,204.68c-1.099,4.156-3.357,7.933-5.595,11.69      c-32.691,15.486-66.103,29.634-100.293,41.984c-1.019-0.32-2.038-0.659-3.037-1.059c4.816-5.595,7.474-12.549,7.274-19.623      c0-0.36-0.02-0.699-0.02-1.039c-0.1-1.539-0.32-3.057-0.699-4.556c-0.02-0.06-0.02-0.1-0.04-0.16      c1.858-0.639,3.597-1.539,5.176-2.638c1.858-1.299,3.477-2.877,4.796-4.656c0.34-0.46,0.639-0.919,0.939-1.399      c0.02-0.04,0.06-0.1,0.08-0.14c0.799-1.319,1.439-2.737,1.878-4.216c0.12-0.419,0.24-0.819,0.34-1.239      c0.14-0.62,0.26-1.259,0.34-1.878c9.971-5.475,19.942-10.911,29.894-16.386c11.83-6.474,24.199-13.089,37.867-14.088h0.1      c0.759-0.06,1.499-0.08,2.278-0.08c3.297-0.02,6.694,0.44,9.692,1.538c0.44,0.14,0.879,0.32,1.319,0.52      c1.698,0.759,3.257,1.739,4.536,3.018c0.26,0.22,0.499,0.48,0.719,0.759c0.36,0.38,0.679,0.799,0.959,1.219      c0.739,1.099,1.259,2.298,1.619,3.557c0.08,0.34,0.16,0.659,0.22,0.999C482.565,199.385,482.385,202.122,481.706,204.68z"/>
				<g>
					<path style="fill:#222A30;" d="M462.982,185.197c-23.12,12.149-46.879,23.439-70.819,33.671c0.12-0.419,0.24-0.819,0.34-1.239       c23.02-9.851,45.84-20.682,68.101-32.352h0.1C461.463,185.217,462.203,185.197,462.982,185.197z"/>
					<path style="fill:#222A30;" d="M473.992,187.255l-84.726,37.368c0.34-0.46,0.639-0.919,0.939-1.399       c0.02-0.04,0.06-0.1,0.08-0.14l82.388-36.348C473.113,186.876,473.553,187.056,473.992,187.255z"/>
					<path style="fill:#222A30;" d="M479.248,191.032c-32.292,15.866-65.823,29.634-99.913,41.044c-0.02-0.06-0.02-0.1-0.04-0.16       c1.858-0.639,3.597-1.539,5.176-2.638c32.072-10.97,63.625-24.059,94.058-39.006       C478.788,190.493,479.028,190.752,479.248,191.032z"/>
					<path style="fill:#222A30;" d="M482.045,196.807c-32.911,15.966-67.162,29.714-101.991,40.865c0-0.36-0.02-0.699-0.02-1.039       c34.75-11.15,68.94-24.878,101.792-40.825C481.905,196.148,481.985,196.467,482.045,196.807z"/>
				</g>
			</g>
			<path style="fill:#5AAA5B;" d="M434.821,256.777l-49.651,47.977c-10.171-2.438-22.56-7.873-31.473-13.408     c-4.376-11.67-7.833-23.28-13.568-34.33c26.157-10.311,52.295-20.642,78.452-30.953L434.821,256.777z"/>
			<path style="fill:#5AAA5B;" d="M429.593,403.746c-8.842-18.119-22.796-34.793-28.616-54.096     c-1.059-3.511-2.832-8.893-4.239-12.457c-2.165-7.998-5.214-17.273-9.531-27.504c-14.507-34.35-48.478-64.804-48.478-64.804     s-18.864-25.498-32.652-39.286c-13.768-13.768-55.092-0.5-55.092-0.5c-1.199,0.879-1.958,1.878-2.338,3.017     c-0.06,0.1-0.08,0.22-0.12,0.34v0.02c0,0.26-0.06,0.58-0.16,0.939c-0.02,0-0.02,0.02-0.02,0.04     c-0.08,0.999,0.06,2.058,0.42,3.197c0.839,2.638,12.065,2.206,14.723,5.423c7.953,7.613,18.304,18.024,26.777,27.276     c0.38,0.42,0.759,0.819,1.119,1.219c12.309,13.528-6.43,30.486,3.561,54.365c1.719,4.117,4.037,8.553,7.154,13.368     c0,0,59.974,27.273,77.177,36.631c1.839,1,3.064,3.755,3.12,3.816c3.13,3.426,4.884,8.232,6.406,12.746     c4.952,14.683,9.905,29.367,14.857,44.051c0.516,1.529,1.051,3.094,2.066,4.348c1.015,1.255,2.627,2.155,4.216,1.875     c1.589-0.28,2.884-2.056,2.289-3.556c2.813,2.536,6.549,4.101,10.335,4.189c3.786,0.088,7.778-2.191,8.773-5.845     C432.145,409.604,430.937,406.499,429.593,403.746z"/>
			<g>
				<path style="fill:#456638;" d="M313.032,252.778c-1.079,4.316-4.996,8.033-9.432,8.053c4.057,8.273,5.675,17.425,4.196,26.537      c-0.479,2.998-1.299,5.995-2.957,8.533c-1.639,2.538-4.236,4.596-7.234,5.056c-0.879,0.12-1.778,0.12-2.658-0.02      c-9.991-23.879-0.539-37.407-12.849-50.936c-0.36-0.4-0.739-0.799-1.119-1.219c-8.473-9.252-18.824-19.663-26.777-27.276      c-2.877-2.737-5.455-5.135-7.493-6.974c-0.12-1.119,1.159-3.477,1.638-5.076c0-0.02,0-0.04,0.02-0.04      c0.1-0.36,0.16-0.68,0.16-0.939v-0.34c0.04,0,0.08-0.02,0.12-0.02c13.169-2.238,26.977-2.638,39.706,1.439      c4.656,1.499,9.332,4.976,12.249,8.912c2.938,3.937,3.237,10.171-0.52,13.328c3.597,2.638,7.713,4.596,10.191,8.293      C312.752,243.786,314.111,248.442,313.032,252.778z"/>
				<circle style="fill:#222A30;" cx="281.677" cy="217.084" r="6.377"/>
				<path style="fill:#F9EFD2;" d="M382.398,354.752l-1.159-1.143c0,0-48.485,2.339-74.902-33.21      c-1.559-2.098-2.977-4.116-4.236-6.095c0.18-0.34,0.38-0.68,0.599-0.999c2.558-3.797,7.074-5.975,11.61-6.534      c4.556-0.56,9.152,0.32,13.548,1.619c17.225,5.115,31.71,16.746,44.521,29.354C382.058,347.269,382.398,354.692,382.398,354.752      z"/>
				<path style="fill:#222A30;" d="M250.931,204.973c2.045,0.271,5.079,2.072,7.099,3.982c1.029,0.972,0.903,2.676-0.324,3.383      c-3.161,1.819-7.174,3.089-8.601,3.053c-3.568-0.091-9.244-1.092-13.436-2.153c-12.843-3.249-27.913-5.821-41.128-7.137      c-1.257-0.125-1.217-1.257,0.045-1.308C209.228,204.208,239.162,203.418,250.931,204.973z"/>
			</g>
			<path style="fill:#456638;" d="M496.972,209.496c-0.18,2.758-1.918,5.575-3.737,7.833c-2.318,2.877-4.816,5.595-7.493,8.133     c-0.48,0.46-0.979,0.919-1.479,1.379l-0.02,0.02c-5.975,5.375-12.729,9.911-20.023,13.348c-0.06,0.02-0.1,0.06-0.16,0.08     c1.758-0.22,3.557-0.14,5.335,0.12h0.02c1.099,0.14,2.198,0.34,3.257,0.599c2.758,0.66,5.415,2.538,6.195,5.295     c0.14,0.48,0.2,0.939,0.2,1.419c0.04,0.34,0.02,0.68-0.02,1.019c-0.3,2.558-1.998,4.996-3.937,7.014     c-0.4,0.42-0.799,0.799-1.199,1.179c-0.02,0.02-0.04,0.04-0.06,0.06c-6.554,6.155-13.968,11.41-21.941,15.566h-0.02     c-0.639,0.34-1.219,0.659-1.858,0.979c-0.02,0-0.04,0-0.04,0c-4.976,2.458-10.151,4.496-15.466,6.075     c-0.08,0.02-0.18,0.06-0.26,0.08c1.219,0,2.498,0.4,3.577,1.079c0.819,0.5,1.519,1.179,1.958,1.958     c1.439,2.578,0.939,5.895-0.6,8.413c-0.759,1.239-1.758,2.318-2.858,3.277c-0.36,0.32-0.719,0.599-1.099,0.879     c-0.799,0.62-1.659,1.199-2.518,1.719c-5.915,3.697-12.509,6.195-19.343,7.553c-0.56,0.12-1.119,0.24-1.698,0.32     c-6.275,1.099-12.729,1.279-19.064,0.6c-1.299-0.14-2.178-0.16-2.977-0.18c-0.659-0.02-1.219-0.02-1.878-0.1     c-0.699-0.06-1.499-0.18-2.598-0.46c-13.109-6.974-19.623-14.348-25.578-23.26c2.018-0.2,3.936-0.719,5.695-1.519     c0.3-0.14,0.599-0.28,0.899-0.44c2.198-1.139,4.177-2.718,5.895-4.636c0.12-0.1,0.2-0.22,0.3-0.32c0.14-0.14,0.26-0.3,0.38-0.46     c1.159-1.399,2.138-2.957,2.858-4.636c0.16-0.3,0.3-0.62,0.42-0.939c0.699-1.798,1.159-3.717,1.359-5.635l0.06-1.139     c0.04-0.48,0.04-0.939,0.02-1.419c1.059,0,2.078-0.04,3.117-0.14h0.02c0.759-0.02,1.519-0.1,2.258-0.2     c2.178-0.26,4.296-0.679,6.354-1.239c0.02-0.02,0.04-0.02,0.06,0c0.779-0.24,1.479-0.48,2.238-0.739     c3.257-1.139,6.374-2.698,9.272-4.716c0.439-0.28,0.859-0.579,1.279-0.899c1.519-1.119,2.957-2.358,4.356-3.717     c0.779-0.759,1.538-1.559,2.258-2.378c0.3-0.34,0.579-0.679,0.859-1.019c1.499-1.818,2.838-3.757,4.017-5.815     c0.2-0.36,0.4-0.719,0.599-1.079c0.839-1.579,1.579-3.157,2.218-4.816v-0.02c0.16-0.36,0.28-0.719,0.42-1.099     c0.38-1.079,0.739-2.178,1.039-3.277c0.1-0.38,0.2-0.759,0.3-1.139c0.16-0.659,0.3-1.339,0.44-1.998     c16.646-6.574,33.291-13.129,49.937-19.703c6.514-2.578,13.388-5.195,20.342-4.336h0.02c0.06,0,0.1,0.02,0.16,0.02     c0.56,0.06,1.099,0.16,1.659,0.32c0,0,0,0,0.02,0c2.358,0.56,4.596,1.779,5.655,3.917c0.34,0.699,0.54,1.399,0.579,2.138     C497.012,208.777,497.012,209.136,496.972,209.496z"/>
			<g>
				<path style="fill:#222A30;" d="M490.698,202.362c-23.959,9.672-48.398,18.684-72.857,26.837c0.1-0.38,0.2-0.759,0.3-1.139      c23.719-7.933,47.439-16.665,70.719-26.038h0.02c0.06,0,0.1,0.02,0.16,0.02C489.599,202.102,490.138,202.202,490.698,202.362z"/>
				<path style="fill:#222A30;" d="M496.972,209.496c-25.918,10.851-52.974,18.944-80.59,24.079c0.16-0.36,0.28-0.719,0.42-1.099      c27.476-5.156,54.373-13.229,80.15-24.059C497.012,208.777,497.012,209.136,496.972,209.496z"/>
				<path style="fill:#222A30;" d="M485.742,225.462c-0.48,0.46-0.979,0.919-1.479,1.379l-0.02,0.02      c-23.24,5.735-46.899,9.971-70.678,12.629c0.2-0.36,0.4-0.719,0.599-1.079C438.243,235.693,462.203,231.357,485.742,225.462z"/>
				<path style="fill:#222A30;" d="M469.396,240.409c-20.083,3.317-40.385,5.315-60.707,5.915c0.3-0.34,0.579-0.679,0.859-1.019      c18.284-0.599,36.568-2.298,54.672-5.096c-0.06,0.02-0.1,0.06-0.16,0.08C465.819,240.07,467.618,240.15,469.396,240.409z"/>
				<path style="fill:#222A30;" d="M479.068,247.723c0.04,0.34,0.02,0.68-0.02,1.019c-18.464,3.637-37.148,5.455-55.891,5.455      c-7.454,0-14.907-0.28-22.361-0.879c0.439-0.28,0.859-0.579,1.279-0.899C427.892,254.297,453.71,252.739,479.068,247.723z"/>
				<path style="fill:#222A30;" d="M475.111,255.756c-0.4,0.42-0.799,0.799-1.199,1.179c-0.02,0.02-0.04,0.04-0.06,0.06      c-15.866,2.778-31.992,4.176-48.098,4.176c-12.209,0-24.399-0.799-36.468-2.398c0.779-0.24,1.479-0.48,2.238-0.739      C419.2,261.511,447.595,260.732,475.111,255.756z"/>
				<path style="fill:#222A30;" d="M451.892,272.561c-0.639,0.34-1.219,0.659-1.858,0.979c-0.02,0-0.04,0-0.04,0      c-23.64-0.439-47.139-4.916-69.38-13.328c0.759-0.02,1.519-0.1,2.258-0.2C405.032,268.105,428.412,272.342,451.892,272.561z"/>
				<path style="fill:#222A30;" d="M437.844,280.774c-21.202-0.62-42.443-6.834-60.448-17.864l0.06-1.139      c17.005,10.531,36.968,16.706,57.07,17.844c-0.08,0.02-0.18,0.06-0.26,0.08C435.486,279.695,436.765,280.095,437.844,280.774z"/>
				<path style="fill:#222A30;" d="M436.345,294.422c-0.36,0.32-0.719,0.599-1.099,0.879c-21.761-2.877-42.603-11.85-59.628-25.818      c0.16-0.3,0.3-0.62,0.42-0.939C393.203,282.693,414.324,291.705,436.345,294.422z"/>
				<path style="fill:#222A30;" d="M413.385,304.573c-0.56,0.12-1.119,0.24-1.698,0.32c-15.167-6.934-28.895-17.305-39.606-29.994      c0.12-0.1,0.2-0.22,0.3-0.32c0.14-0.14,0.26-0.3,0.38-0.46C383.671,287.109,397.798,297.659,413.385,304.573z"/>
				<path style="fill:#222A30;" d="M389.645,305.313c-0.659-0.02-1.219-0.02-1.878-0.1c-9.232-6.634-17.025-15.307-22.48-25.238      c0.3-0.14,0.599-0.28,0.899-0.44C371.821,289.766,379.994,298.659,389.645,305.313z"/>
			</g>
		</g>
		<g>
			<g>
				<g>
					<path style="fill:#FFB329;" d="M183.876,195.356c5.115-7.144,15.316-10.13,23.475-6.87s13.496,12.451,12.281,21.153       c5.557-1.13,11.649,1.737,15.392,5.997c3.743,4.26,5.467,10.029,5.61,15.698c0.143,5.669-1.184,11.28-2.943,16.672       c7.512,4.305,9.19,14.126,5.542,21.979c-3.647,7.852-12.47,12.606-21.127,12.586c-8.658-0.02-16.954-4.31-23.026-10.482       c-6.072-6.172-10.104-14.094-12.932-22.277C180.543,233.596,173.888,209.306,183.876,195.356z"/>
					<path style="fill:#FFB329;" d="M229.164,252.307c-0.422,4.586-2.431,8.946-5.226,12.608c0.161,0.366,0.341,0.75,0.484,1.117       c1.59,3.645,2.794,7.377,3.187,11.34c0.253,2.537-0.048,5.205-1.01,7.56c-0.686,1.695-1.731,3.236-3.16,4.399       c-4.142,3.391-10.344,2.968-15.196,0.696c-1.699-0.798-3.293-1.785-4.835-2.866c-0.266-0.158-0.514-0.354-0.761-0.532       c-2.552-1.847-4.964-3.94-7.516-5.787c-9.201-6.697-20.353-10.633-31.706-11.162c-2.364-0.125-4.836-0.116-6.97-1.141       c-2.134-1.025-4.145-5.008-3.083-7.125c5.855-11.57,7.161-24.696,7.688-37.778c0.026-0.335,0.033-0.67,0.041-1.005       c0.096-2.661,0.175-5.302,0.253-7.943c0.199-6.79,0.467-13.749,3.213-19.973c2.728-6.206,8.532-11.548,15.31-11.701       c3.138-0.068,6.185,1,8.771,2.753c0,0,0,0,0.001,0.019c1.883,1.275,3.536,2.929,4.807,4.782       c1.681,2.471,2.796,5.239,3.489,8.152c0.021,0.073,0.041,0.129,0.043,0.184c0.304,1.309,0.535,2.64,0.672,3.973       c0.029,0.296,0.058,0.611,0.068,0.927c0.079,0.703,0.103,1.409,0.127,2.114c3.037-1.421,6.635-1.096,9.856,0.208       c0.038,0.017,0.095,0.053,0.133,0.07c1.45,0.565,2.833,1.354,4.053,2.261c0.076,0.053,0.134,0.107,0.21,0.16l0.019,0.018       c3.779,2.976,5.985,7.771,6.183,12.577c0.147,3.823-0.915,7.613-2.773,10.946c0,0,0,0-0.018,0.019       c-0.507,0.946-1.11,1.821-1.75,2.679c-0.018,0.019-0.035,0.057-0.053,0.076c0.055-0.02,0.092-0.022,0.148-0.023       c0,0,0,0,0.019-0.001c4.146-1.05,7.761,0.91,10.744,3.969c0.019,0.018,0.019,0.018,0.039,0.054       c0.173,0.161,0.346,0.342,0.501,0.522C228.271,242.878,229.585,247.703,229.164,252.307z"/>
					<g>
						<path style="fill:#222A30;" d="M226.868,284.989c-0.051,0.002-0.102-0.005-0.153-0.02c-0.245-0.076-0.381-0.336-0.306-0.581        c1.832-5.921,0.979-12.492-2.279-17.576c-0.128-0.2-0.085-0.463,0.099-0.612c5.387-4.353,7.784-12.005,5.829-18.609        c-3.086-10.427-11.386-12.401-16.058-12.649c-0.154-0.008-0.295-0.093-0.374-0.226c-0.08-0.133-0.087-0.297-0.021-0.437        c2.457-5.168,3.325-9.363,2.814-13.601c-0.595-4.94-2.783-9.49-6.003-12.485c-3.785-3.52-8.93-5.219-13.124-4.32        c-0.128,0.025-0.259-0.001-0.365-0.074c-0.105-0.075-0.175-0.19-0.192-0.318c-0.437-3.242-0.887-6.594-2.047-9.682        c-0.899-2.394-2.64-5.644-5.83-7.531c-0.221-0.131-0.294-0.416-0.164-0.636c0.133-0.22,0.418-0.292,0.636-0.164        c3.423,2.025,5.275,5.47,6.227,8.004c1.138,3.031,1.608,6.258,2.032,9.399c4.386-0.731,9.606,1.057,13.459,4.642        c3.378,3.142,5.672,7.901,6.292,13.055c0.512,4.251-0.294,8.437-2.609,13.493c8.019,0.667,13.91,5.471,16.218,13.267        c2.02,6.824-0.372,14.708-5.819,19.332c3.224,5.261,4.036,11.957,2.166,18.003        C227.236,284.856,227.06,284.983,226.868,284.989z"/>
						<path style="fill:#222A30;" d="M203.408,287.161c-0.266-0.158-0.514-0.354-0.761-0.532c3.237-7.096,2.755-15.907-1.571-22.433        c-5.11-7.745-15.592-11.648-24.916-9.272c-0.185,0.043-0.392-0.043-0.509-0.206c-0.099-0.183-0.088-0.406,0.056-0.559        c4.311-4.995,6.387-11.216,5.726-17.066c-0.734-6.368-4.973-11.949-10.557-13.88c-3.234-1.118-6.793-0.868-9.816,0.423        c0.026-0.335,0.033-0.67,0.041-1.005c3.154-1.258,6.79-1.455,10.08-0.301c5.904,2.05,10.394,7.939,11.178,14.658        c0.656,5.702-1.204,11.729-5.087,16.747c9.324-1.8,19.495,2.244,24.585,9.952        C206.379,270.522,206.839,279.761,203.408,287.161z"/>
					</g>
				</g>
				<path style="fill:#222A30;" d="M151.394,263.454c2.483-4.596,3.995-8.103,5.879-12.417c0.645-1.477,1.319-2.996,2.485-4.109      c1.166-1.113,2.962-1.728,4.428-1.059c1.277,0.583,2.008,2.002,2.156,3.398c0.148,1.396-0.188,2.793-0.521,4.156      c0.716-1.932,3.301-2.674,5.359-2.569s3.959,1.658,4.473,3.653c0.514,1.995-0.516,4.052-2.15,5.36      c2.641-0.749,6.163,1.581,6.681,4.176c0.517,2.595-1.417,5.211-3.697,6.554c-2.28,1.343-5.035,1.602-7.681,1.55      c-5.027-0.099-9.974-1.2-14.881-2.296c-1.131-0.253-2.343-0.551-3.105-1.426C150.06,267.552,150.807,265.273,151.394,263.454z"/>
			</g>
			<g>
				<path style="fill:#5AAA5B;" d="M191.02,301.312c0,0.081-0.013,0.148-0.013,0.228c-0.027,0.43-0.054,0.846-0.094,1.262      c-0.336,4.028-1.061,8.002-2.148,11.909c-0.094,0.362-0.202,0.725-0.309,1.087c-2.538,8.62-6.767,16.823-12.165,24.154      c-0.201,0.282-0.416,0.564-0.618,0.832c-3.732,4.954-7.975,9.492-12.594,13.494c-3.196,2.766-6.552,5.344-10.03,7.747      c-0.349,0.242-0.698,0.483-1.061,0.725c-12.97,8.808-27.551,15.494-41.676,22.275c0-0.242,0.013-0.483,0.027-0.725v-0.013      c0.013-0.698,0.054-1.383,0.121-2.068c-0.013-0.013,0-0.013,0-0.013c0.859-11.131,5.317-21.657,11.587-31.096      c0.282-0.43,0.577-0.873,0.886-1.302c2.699-3.934,5.706-7.667,8.888-11.157c2.537-2.779,5.183-5.451,7.948-8.002      c0.322-0.296,0.631-0.577,0.953-0.859c6.27-5.679,13.077-10.741,20.314-15.105c0.349-0.215,0.698-0.416,1.047-0.618      C171.176,308.67,180.91,304.374,191.02,301.312z"/>
				<path style="fill:#222A30;" d="M191.007,301.541c-10.325,6.592-20.193,13.923-29.498,21.899l0.577-9.372      c-0.349,0.202-0.698,0.403-1.047,0.618l-0.577,9.291l0.389,0.027c-6.445,5.545-12.607,11.399-18.475,17.535      c-0.792-3.867-1.342-7.801-1.651-11.748c-0.322,0.282-0.631,0.564-0.953,0.859c0.363,3.961,0.94,7.895,1.759,11.762v0.013      c-5.934,6.243-11.547,12.782-16.823,19.576c-0.792-4.015-1.383-8.11-1.772-12.191c-0.309,0.43-0.604,0.873-0.886,1.302      c0.416,4.001,1.034,7.989,1.839,11.909h0.027c-4.766,6.19-9.264,12.594-13.453,19.187c0,0-0.013,0,0,0.013      c-0.456,0.712-0.913,1.423-1.356,2.135l0.859,0.537c0.121-0.201,0.242-0.389,0.376-0.591v-0.013      c6.216-9.909,13.091-19.401,20.583-28.397l21.066,6.861c0.362-0.242,0.712-0.483,1.061-0.725l-21.429-6.968      c6.257-7.465,12.93-14.581,19.992-21.308l-0.04,0.215c8.217,1.531,16.3,3.813,24.101,6.821c0.201-0.269,0.416-0.551,0.618-0.832      c-7.761-3.021-15.816-5.317-23.993-6.861c5.277-5.008,10.768-9.788,16.448-14.34l19.71-2.954      c0.107-0.363,0.215-0.725,0.309-1.087l-18.421,2.766c6.606-5.223,13.48-10.137,20.569-14.675      C190.953,302.386,190.98,301.97,191.007,301.541z"/>
			</g>
			<g>
				<path style="fill:#5AAA5B;" d="M15,282.644c0,0.075,0.013,0.138,0.013,0.213c0.025,0.402,0.05,0.79,0.088,1.18      c0.314,3.765,0.991,7.479,2.008,11.131c0.088,0.339,0.188,0.678,0.289,1.016c2.372,8.057,6.325,15.724,11.369,22.576      c0.188,0.263,0.389,0.527,0.577,0.778c3.489,4.631,7.454,8.872,11.771,12.612c2.987,2.585,6.124,4.994,9.374,7.241      c0.326,0.226,0.653,0.452,0.991,0.678c12.122,8.232,25.75,14.481,38.952,20.819c0-0.226-0.013-0.452-0.025-0.678v-0.013      c-0.012-0.652-0.05-1.292-0.113-1.932c0.012-0.012,0-0.012,0-0.012c-0.803-10.403-4.969-20.242-10.83-29.063      c-0.264-0.402-0.54-0.816-0.828-1.217c-2.522-3.677-5.333-7.165-8.307-10.428c-2.372-2.598-4.844-5.095-7.429-7.479      c-0.301-0.276-0.59-0.54-0.891-0.803c-5.86-5.308-12.223-10.039-18.986-14.117c-0.326-0.201-0.653-0.389-0.979-0.577      C33.547,289.521,24.449,285.505,15,282.644z"/>
				<path style="fill:#222A30;" d="M90.294,358.264c0.012-0.012,0-0.012,0-0.012c-3.915-6.162-8.119-12.147-12.574-17.932h0.025      c0.753-3.664,1.33-7.391,1.719-11.131c-0.264-0.402-0.54-0.816-0.828-1.217c-0.364,3.815-0.916,7.642-1.656,11.395      c-4.932-6.35-10.177-12.461-15.724-18.296v-0.012c0.765-3.614,1.305-7.291,1.644-10.993c-0.301-0.276-0.59-0.54-0.891-0.803      c-0.289,3.689-0.803,7.366-1.544,10.98c-5.484-5.735-11.244-11.206-17.267-16.389l0.364-0.025l-0.54-8.684      c-0.326-0.201-0.653-0.389-0.979-0.577l0.54,8.759c-8.696-7.454-17.92-14.306-27.57-20.467c0.025,0.402,0.05,0.79,0.088,1.18      c6.626,4.241,13.051,8.835,19.225,13.716l-17.217-2.585c0.088,0.339,0.188,0.678,0.289,1.017l18.422,2.761      c5.308,4.254,10.441,8.722,15.372,13.402c-7.642,1.443-15.172,3.589-22.425,6.413c0.188,0.263,0.389,0.527,0.577,0.778      c7.291-2.811,14.845-4.944,22.525-6.375l-0.038-0.201c6.601,6.287,12.838,12.938,18.685,19.915l-20.028,6.513      c0.326,0.226,0.653,0.452,0.991,0.678l19.689-6.413c7.002,8.408,13.427,17.28,19.237,26.541v0.013      c0.125,0.188,0.238,0.364,0.351,0.552l0.803-0.502C91.147,359.594,90.72,358.929,90.294,358.264z"/>
			</g>
			<path style="fill:#222A30;" d="M188.815,167.06c-6.634,3.977-12.869,8.453-18.744,13.408c-0.999,0.819-1.998,1.678-2.977,2.578     c-9.851,8.752-18.544,18.884-25.997,30.294c-3.018,4.596-5.835,9.412-8.453,14.407c-0.2,0.4-0.4,0.779-0.599,1.179     c-0.34,0.66-0.679,1.319-0.999,1.978c-0.02,0.02-0.02,0.02,0,0.02c-3.117,6.234-5.915,12.789-8.393,19.603     c-0.1,0.28-0.22,0.56-0.32,0.859c-0.659,1.858-1.299,3.757-1.918,5.675c-1.339,4.096-2.578,8.293-3.677,12.589     c-0.879,3.377-1.678,6.794-2.418,10.291c-8.353,39.606-10.99,73.676-7.993,107.806h-1.858c-3.017-34.27-0.34-68.44,8.033-108.186     c0.62-2.917,1.279-5.775,1.998-8.612c1.159-4.696,2.478-9.272,3.916-13.748c0.66-2.118,1.379-4.216,2.118-6.275     c0.1-0.3,0.2-0.579,0.32-0.879c2.698-7.473,5.775-14.607,9.252-21.401c0.32-0.699,0.68-1.379,1.039-2.058     c0.16-0.34,0.34-0.659,0.54-0.999c2.418-4.576,5.035-9.012,7.833-13.248c7.673-11.73,16.626-22.121,26.777-31.073     c0.879-0.799,1.758-1.559,2.658-2.278c5.915-4.996,12.229-9.512,18.904-13.508L188.815,167.06z"/>
			<g>
				<path style="fill:#FFB329;" d="M187.409,105.341c3.867-7.889,13.437-12.515,22.022-10.645      c8.585,1.87,15.363,10.057,15.599,18.84c5.295-2.03,11.777-0.206,16.17,3.379c4.394,3.585,7.045,8.991,8.12,14.559      c1.075,5.568,0.691,11.321-0.155,16.929c8.119,3.008,11.392,12.419,9.088,20.765c-2.303,8.346-10.222,14.489-18.765,15.896      c-8.543,1.407-17.433-1.457-24.438-6.544c-7.006-5.088-12.288-12.236-16.426-19.841      C190.423,143.607,179.857,120.746,187.409,105.341z"/>
				<path style="fill:#FFB329;" d="M241.463,154.05c0.34,4.593-0.924,9.224-3.077,13.297c0.219,0.335,0.46,0.684,0.661,1.022      c2.169,3.333,3.971,6.815,5.012,10.66c0.667,2.461,0.81,5.142,0.25,7.623c-0.397,1.786-1.174,3.477-2.392,4.859      c-3.526,4.027-9.713,4.632-14.874,3.191c-1.808-0.507-3.542-1.218-5.241-2.03c-0.288-0.113-0.565-0.265-0.839-0.399      c-2.822-1.401-5.545-3.068-8.367-4.469c-10.179-5.089-21.827-7.134-33.112-5.785c-2.353,0.266-4.789,0.682-7.063,0.023      c-2.274-0.659-4.914-4.257-4.214-6.52c3.869-12.376,2.993-25.539,1.357-38.528c-0.03-0.335-0.078-0.666-0.126-0.998      c-0.343-2.64-0.701-5.258-1.059-7.877c-0.922-6.73-1.805-13.638-0.122-20.23c1.668-6.57,6.512-12.796,13.172-14.064      c3.084-0.584,6.265-0.033,9.104,1.27c0,0,0,0,0.004,0.018c2.067,0.947,3.971,2.306,5.529,3.924      c2.066,2.16,3.622,4.707,4.785,7.466c0.033,0.069,0.062,0.12,0.073,0.175c0.516,1.241,0.962,2.515,1.318,3.808      c0.077,0.288,0.158,0.593,0.22,0.903c0.194,0.681,0.334,1.373,0.474,2.064c2.761-1.902,6.363-2.175,9.756-1.419      c0.04,0.011,0.102,0.036,0.142,0.047c1.523,0.318,3.018,0.869,4.37,1.562c0.084,0.04,0.149,0.084,0.233,0.123l0.022,0.015      c4.218,2.313,7.184,6.679,8.172,11.386c0.775,3.747,0.352,7.659-0.931,11.253c0,0,0,0-0.015,0.022      c-0.344,1.017-0.794,1.979-1.284,2.931c-0.015,0.022-0.025,0.062-0.04,0.084c0.051-0.029,0.087-0.037,0.142-0.048      c0,0,0,0,0.018-0.004c3.916-1.719,7.805-0.381,11.252,2.144c0.022,0.015,0.022,0.015,0.047,0.047      c0.197,0.131,0.397,0.28,0.58,0.433C239.028,144.898,241.12,149.44,241.463,154.05z"/>
				<g>
					<path style="fill:#222A30;" d="M244.585,186.664c-0.05,0.01-0.101,0.012-0.154,0.005c-0.254-0.035-0.432-0.268-0.398-0.523       c0.831-6.142-1.093-12.483-5.144-16.96c-0.16-0.176-0.161-0.443-0.003-0.62c4.596-5.181,5.699-13.124,2.683-19.315       c-4.762-9.776-13.274-10.355-17.923-9.83c-0.154,0.017-0.307-0.043-0.406-0.161c-0.101-0.118-0.135-0.279-0.093-0.427       c1.572-5.503,1.737-9.782,0.535-13.879c-1.401-4.774-4.309-8.902-7.978-11.326c-4.313-2.848-9.668-3.676-13.657-2.098       c-0.122,0.046-0.255,0.041-0.372-0.013c-0.116-0.056-0.204-0.159-0.242-0.282c-0.965-3.126-1.961-6.358-3.614-9.212       c-1.281-2.213-3.534-5.132-6.991-6.467c-0.24-0.092-0.359-0.362-0.266-0.6c0.095-0.239,0.364-0.357,0.6-0.266       c3.71,1.433,6.105,4.526,7.461,6.868c1.622,2.801,2.617,5.907,3.553,8.936c4.206-1.444,9.649-0.541,14.04,2.36       c3.849,2.543,6.896,6.858,8.357,11.839c1.206,4.109,1.101,8.37-0.35,13.739c8.019-0.664,14.621,3.104,18.182,10.413       c3.116,6.398,2.057,14.569-2.554,20.027c4.046,4.658,5.951,11.129,5.104,17.4C244.925,186.472,244.773,186.626,244.585,186.664       z"/>
					<path style="fill:#222A30;" d="M221.803,192.672c-0.288-0.113-0.565-0.265-0.839-0.399c2.023-7.532,0.096-16.143-5.247-21.867       c-6.317-6.797-17.299-8.919-26.103-5.039c-0.175,0.073-0.393,0.022-0.536-0.119c-0.128-0.164-0.154-0.386-0.037-0.561       c3.429-5.637,4.452-12.115,2.836-17.776c-1.774-6.16-6.874-10.966-12.7-11.95c-3.374-0.57-6.844,0.263-9.612,2.034       c-0.03-0.335-0.078-0.666-0.126-0.998c2.904-1.761,6.457-2.554,9.893-1.959c6.161,1.049,11.561,6.117,13.44,12.616       c1.587,5.515,0.745,11.767-2.257,17.356c8.9-3.312,19.598-0.999,25.889,5.765C221.992,175.771,223.967,184.808,221.803,192.672       z"/>
				</g>
				<path style="fill:#222A30;" d="M166.594,177.861c1.692-4.942,2.605-8.651,3.753-13.216c0.393-1.563,0.807-3.172,1.773-4.462      c0.966-1.29,2.637-2.193,4.193-1.774c1.356,0.364,2.31,1.643,2.686,2.996c0.376,1.352,0.275,2.786,0.171,4.186      c0.387-2.023,2.815-3.182,4.862-3.417c2.047-0.235,4.178,0.983,5.014,2.866c0.836,1.883,0.158,4.082-1.237,5.641      c2.481-1.174,6.339,0.544,7.278,3.018c0.938,2.474-0.538,5.373-2.566,7.073c-2.027,1.701-4.702,2.41-7.32,2.794      c-4.974,0.731-10.035,0.46-15.055,0.188c-1.158-0.063-2.402-0.158-3.297-0.895C165.953,182.122,166.314,179.752,166.594,177.861      z"/>
			</g>
			<g>
				<path style="fill:#222A30;" d="M95.916,379.036c0.5,3.077,1.059,5.955,1.679,8.712h-1.918c-0.579-2.658-1.099-5.455-1.599-8.413      c-1.059-6.394-1.938-12.709-2.658-19.004c-0.02-0.12-0.04-0.24-0.04-0.36c-2.618-22.72-3.077-44.861-1.339-66.802      c0.08-1.279,0.2-2.578,0.32-3.857c0.719-8.153,1.758-16.286,3.097-24.419c0.02-0.2,0.04-0.38,0.08-0.579l0.54,0.08l1.199,0.2      l0.08,0.02c-0.06,0.32-0.1,0.639-0.14,0.959c-1.299,7.953-2.298,15.886-2.997,23.859c-0.14,1.239-0.24,2.458-0.32,3.677      C89.681,321.166,91.02,349.502,95.916,379.036z"/>
				<g>
					<path style="fill:#FFB329;" d="M51.835,223.333c-2.693-8.363,0.984-18.336,8.462-22.949c7.477-4.613,18.04-3.426,24.306,2.732       c2.402-5.137,8.333-8.324,13.985-8.793s11.312,1.581,15.952,4.843c4.64,3.261,8.357,7.669,11.64,12.293       c7.932-3.47,16.821,1.031,20.956,8.637c4.136,7.606,2.7,17.525-2.472,24.468c-5.172,6.943-13.559,11.053-22.134,12.254       c-8.574,1.201-17.339-0.277-25.597-2.879C80.569,248.784,57.094,239.664,51.835,223.333z"/>
					<path style="fill:#FFB329;" d="M124.556,220.871c3.433,3.07,5.739,7.281,7.016,11.707c0.39,0.089,0.806,0.173,1.186,0.277       c3.875,0.893,7.59,2.149,11.008,4.194c2.189,1.308,4.153,3.138,5.472,5.314c0.953,1.561,1.568,3.318,1.652,5.158       c0.257,5.347-3.776,10.077-8.491,12.622c-1.653,0.89-3.395,1.583-5.182,2.177c-0.285,0.119-0.591,0.202-0.881,0.295       c-3.004,0.95-6.122,1.641-9.125,2.591c-10.859,3.403-20.663,10.017-27.85,18.822c-1.508,1.825-2.973,3.815-5.068,4.92       c-2.094,1.104-6.492,0.347-7.559-1.767c-5.807-11.594-15.574-20.461-25.769-28.675c-0.254-0.221-0.518-0.426-0.783-0.631       c-2.08-1.662-4.155-3.298-6.23-4.934c-5.335-4.204-10.766-8.564-14.131-14.476c-3.361-5.887-4.195-13.731-0.282-19.267       c1.814-2.562,4.487-4.373,7.435-5.406c0,0,0,0,0.015,0.01c2.145-0.753,4.459-1.096,6.704-1.013       c2.986,0.121,5.874,0.874,8.627,2.052c0.072,0.027,0.128,0.043,0.174,0.075c1.233,0.535,2.439,1.143,3.592,1.826       c0.255,0.154,0.525,0.318,0.785,0.497c0.612,0.355,1.193,0.756,1.774,1.157c0.667-3.286,3.07-5.982,6.037-7.794       c0.036-0.02,0.099-0.045,0.135-0.065c1.317-0.828,2.775-1.469,4.23-1.909c0.088-0.029,0.166-0.044,0.254-0.073l0.026-0.005       c4.642-1.263,9.807-0.179,13.786,2.524c3.159,2.159,5.57,5.269,7.141,8.746c0,0,0,0,0.004,0.026       c0.458,0.971,0.802,1.976,1.11,3.001c0.005,0.026,0.025,0.062,0.029,0.088c0.016-0.056,0.037-0.087,0.069-0.133       c0,0,0,0,0.011-0.015c1.626-3.956,5.353-5.693,9.587-6.267c0.026-0.005,0.026-0.005,0.067,0.001       c0.232-0.043,0.48-0.075,0.718-0.091C116.45,215.972,121.109,217.79,124.556,220.871z"/>
					<g>
						<path style="fill:#222A30;" d="M149.444,242.179c-0.029,0.042-0.064,0.079-0.108,0.111c-0.207,0.151-0.497,0.106-0.649-0.1        c-3.666-4.998-9.452-8.227-15.476-8.637c-0.237-0.016-0.423-0.207-0.433-0.444c-0.289-6.92-5.008-13.402-11.477-15.765        c-10.214-3.731-16.742,1.761-19.725,5.366c-0.099,0.119-0.25,0.182-0.404,0.166c-0.155-0.015-0.291-0.107-0.363-0.243        c-2.689-5.052-5.541-8.247-9.25-10.361c-4.323-2.464-9.281-3.416-13.605-2.614c-5.082,0.944-9.51,4.065-11.287,7.97        c-0.056,0.118-0.155,0.207-0.276,0.249c-0.122,0.04-0.257,0.027-0.37-0.035c-2.864-1.58-5.825-3.215-8.997-4.122        c-2.459-0.704-6.107-1.24-9.521,0.198c-0.237,0.1-0.509-0.011-0.609-0.247c-0.098-0.238,0.015-0.509,0.247-0.608        c3.665-1.544,7.536-0.98,10.138-0.235c3.112,0.891,5.984,2.435,8.761,3.966c2.025-3.959,6.569-7.087,11.744-8.047        c4.536-0.842,9.724,0.149,14.234,2.72c3.72,2.12,6.603,5.26,9.286,10.132c5.312-6.045,12.679-7.916,20.316-5.127        c6.684,2.442,11.594,9.058,12.064,16.188c6.146,0.543,12.009,3.879,15.752,8.982        C149.556,241.804,149.553,242.021,149.444,242.179z"/>
						<path style="fill:#222A30;" d="M137.216,262.318c-0.285,0.119-0.591,0.202-0.881,0.295        c-3.773-6.826-11.137-11.686-18.956-12.098c-9.265-0.507-18.643,5.588-22.287,14.493c-0.075,0.174-0.268,0.289-0.468,0.286        c-0.206-0.029-0.378-0.171-0.416-0.378c-1.445-6.438-5.206-11.811-10.299-14.764c-5.553-3.203-12.561-3.122-17.437,0.214        c-2.824,1.932-4.743,4.94-5.507,8.137c-0.254-0.221-0.518-0.426-0.783-0.631c0.868-3.283,2.875-6.321,5.761-8.277        c5.163-3.522,12.568-3.622,18.432-0.249c4.971,2.869,8.705,7.953,10.424,14.06c4.107-8.562,13.413-14.324,22.637-13.822        C125.619,250.022,133.315,255.155,137.216,262.318z"/>
					</g>
					<path style="fill:#222A30;" d="M87.195,289.982c-2.214-4.732-4.13-8.035-6.473-12.118c-0.802-1.398-1.621-2.844-1.821-4.443       c-0.2-1.599,0.376-3.409,1.787-4.188c1.229-0.678,2.804-0.421,4.013,0.292c1.209,0.712,2.131,1.814,3.028,2.894       c-1.126-1.725-0.182-4.245,1.128-5.835c1.31-1.59,3.69-2.193,5.599-1.417s2.948,2.828,3.026,4.919       c0.971-2.567,4.941-4.009,7.334-2.88c2.393,1.13,3.342,4.241,3.063,6.872c-0.279,2.631-1.712,4.999-3.329,7.093       c-3.074,3.979-6.904,7.297-10.707,10.586c-0.877,0.758-1.838,1.554-2.994,1.645C89.692,293.494,88.306,291.538,87.195,289.982z       "/>
				</g>
			</g>
			<path style="fill:#222A30;" d="M161.099,259.18c-2.238,2.518-4.396,5.096-6.474,7.733c-0.699,0.859-1.379,1.719-2.038,2.578     c-24.139,31.413-38.766,70.499-41.864,110.204c-0.08,0.799-0.14,1.599-0.18,2.398c-0.06,0.699-0.1,1.379-0.12,2.078     c-0.04,0.28-0.04,0.54-0.04,0.819c-0.06,0.919-0.12,1.838-0.12,2.758h-1.858c1.639-42.743,16.646-85.346,42.543-119.196     c0.899-1.139,1.779-2.258,2.678-3.377c1.958-2.458,3.996-4.876,6.095-7.234L161.099,259.18z"/>
		</g>
		<g>
			<path style="fill:#222A30;" d="M289.947,317.809c-4.016,1.259-7.993,2.578-11.91,3.977c-6.534,2.298-12.969,4.796-19.283,7.493     c-33.131,14.088-63.405,33.491-91.201,58.469h-3.597c21.381-19.503,44.202-35.689,68.68-48.678     c9.811-5.215,19.883-9.931,30.234-14.128c0.879-0.36,1.739-0.699,2.618-1.039c3.757-1.499,7.553-2.917,11.37-4.276     c4.077-1.439,8.213-2.818,12.369-4.116L289.947,317.809z"/>
			<g>
				<path style="fill:#FF6453;" d="M279.661,302.102c-1.544-17.484,3.325-35.465,13.482-49.78c1.595-2.248,3.374-4.46,5.759-5.841      c2.385-1.381,5.509-1.782,7.873-0.364c3.047,1.829,3.842,5.857,3.954,9.41c0.579,18.308-8.776,35.283-17.852,51.194      c11.797-4.579,23.133-8.833,35.783-9.172c5.69-0.153,11.633,0.664,16.357,3.84c4.724,3.176,7.88,9.157,6.421,14.659      c-1.208,4.556-5.299,7.931-9.78,9.395c-4.481,1.464-9.324,1.295-14.01,0.785c-9.648-1.049-19.145-3.48-28.11-7.197      c13.938,5.641,25.425,17.204,31.876,30.786c2.265,4.768,3.926,10.084,3.029,15.286c-0.897,5.202-4.98,10.134-10.243,10.551      c-5.238,0.415-9.775-3.462-13.274-7.381c-9.499-10.638-18.837-23.111-22.405-36.919c-4.516,9.866-6.832,18.735-12.913,27.72      c-6.081,8.985-13.715,17.116-23.155,22.464c-4.214,2.387-9.708,4.124-13.685,1.359c-4.166-2.896-4.239-8.991-3.321-13.981      c3.47-18.869,17.322-37.375,33.669-47.419c-15.355,8.471-33.175,18.459-50.494,21.209c-5.3,0.842-11.854,0.54-14.53-4.111      c-2.657-4.617,0.343-10.452,3.969-14.355c8.921-9.601,21.531-14.783,33.91-19.089c5.623-1.956,11.63-3.812,17.439-2.508      c-10.584-5.839-20.902-12.351-28.412-21.822c-2.18-2.75-4.069-5.812-4.924-9.215c-0.855-3.404-0.581-7.196,1.302-10.157      c3.41-5.359,10.932-6.492,17.126-5.083c9.778,2.225,17.932,9.291,23.419,17.685      C273.411,282.446,276.943,292.449,279.661,302.102z"/>
				<path style="fill:#FFB329;" d="M289.139,311.333c2.759,7.05-0.004,15.129-3.014,16.307c-3.01,1.178-7.686-3.582-10.445-10.632      c-2.759-7.05-2.555-13.72,0.455-14.897C279.145,300.932,286.38,304.283,289.139,311.333z"/>
			</g>
		</g>
		<g>
			<g>
				<path style="fill:#00A063;" d="M328.534,148.476c-0.839,0.04-1.658,0.04-2.478,0.04c-3.757-0.02-7.513-0.174-11.269-0.514      c0,0-0.203-0.288-0.395-0.306c-0.233-0.022-0.885,0.18-0.885,0.18c-8.413-0.819-16.744-2.466-24.837-4.884      c-0.237-0.071-0.25-0.364-0.478-0.435c-0.156-0.049-0.684,0.075-0.684,0.075c-10.111-3.117-19.822-7.425-28.894-12.84      c0.06-0.06,0.12-0.1,0.18-0.14c0.19-0.156,0.991,0.035,1.176-0.108c0.146-0.114-0.326-0.565-0.176-0.671      c3.197-2.458,6.634-4.596,10.251-6.414c0.207-0.11,0.555,0.037,0.762-0.066c0.133-0.066,0.125-0.383,0.257-0.453      c8.093-3.917,17.005-6.295,26.057-7.234c0.146-0.017,0.304,0.302,0.454,0.289c0.199-0.017,0.391-0.366,0.585-0.389      c4.896-0.439,9.811-0.48,14.667-0.1c5.915,1.519,11.77,3.297,17.505,5.355c0.192,0.07,0.565,0.506,0.761,0.576      c0.254,0.09,0.33-0.187,0.578-0.097c10.951,4.017,21.501,9.012,31.333,15.107c0.004,0.042,0.06,0.04,0.06,0.04      C363.523,135.747,332.431,148.416,328.534,148.476z"/>
				<path style="fill:#222A30;" d="M362.564,135.548c-7.673,1.019-15.407,1.698-23.14,2.038l-7.753-17.245      c-0.44-0.16-0.899-0.32-1.339-0.479l7.993,17.765c-9.731,0.38-19.483,0.24-29.194-0.48c0,0-0.001,0-0.001,0l0.177-0.109      c-4.391-7.112-8.136-14.63-11.154-22.426c-0.334,0.031-0.687,0.062-1.032,0.102c2.981,7.776,6.698,15.283,11.052,22.374      c-0.001,0-0.001,0-0.002,0c-7.254-0.54-14.487-1.399-21.661-2.538c-0.006-0.001-0.012-0.002-0.018-0.003l-15.43-12.598      c-0.341,0.164-0.681,0.329-1.013,0.503l14.433,11.777l0.005,0.004c-0.005-0.001-0.01-0.001-0.015-0.002      c-8.293-1.379-16.566-3.157-24.678-5.355c-0.34,0.24-0.66,0.5-0.999,0.779c8.95,2.417,18.059,4.375,27.229,5.834l0.004,0.003      l0.002-0.002c0,0,0.001,0,0.001,0c2.932,0.479,5.865,0.898,8.797,1.277l-7.319,5.868c0.384,0.123,0.768,0.246,1.161,0.36      l7.567-6.067c8.256,1.001,16.55,1.623,24.863,1.819c0.001,0,0.002,0,0.002,0c-0.002,0.003-0.004,0.006-0.007,0.009      c-2.33,3.186-4.872,6.239-7.586,9.121c0.425,0.049,0.842,0.088,1.277,0.128c2.688-2.931,5.212-6.004,7.524-9.21      c0-0.004,0.004-0.005,0.005-0.008c0.001,0,0.002,0,0.004,0c8.612,0.2,17.224-0.04,25.796-0.699      c-2.437,3.282-5.069,6.47-7.826,9.5c0.526-0.06,1.052-0.14,1.56-0.22c2.682-2.998,5.219-6.136,7.579-9.369l-0.01-0.011      c2.097-0.18,4.195-0.38,6.292-0.599c2.898-0.3,6.264-1.043,6.264-1.043l1.09-0.856      C362.904,135.508,362.744,135.528,362.564,135.548z"/>
			</g>
			<g>
				<path style="fill:#5AAA5B;" d="M381.888,149.256c-2.778,3.537-5.955,6.834-9.372,9.891c-0.38,0.34-0.779,0.699-1.179,1.039      c-3.597,3.137-7.454,5.975-11.41,8.553c-3.157,2.058-6.394,3.977-9.712,5.735c-0.38,0.22-0.759,0.4-1.139,0.599      c-7.493,3.917-15.367,7.094-23.46,9.492c-0.4,0.12-0.779,0.24-1.179,0.34c-10.151,2.938-20.662,4.636-31.213,5.056      c0.02-0.08,0.04-0.14,0.06-0.22c0.14-0.42,0.28-0.819,0.419-1.199c1.339-3.817,3.037-7.474,5.076-10.99      c0.18-0.32,0.38-0.639,0.579-0.979c4.636-7.693,10.791-14.567,17.864-20.302c0.26-0.22,0.54-0.44,0.799-0.639      c3.337-2.638,6.854-5.036,10.511-7.154c1.659-0.979,3.357-1.878,5.076-2.738c3.797-1.878,7.693-3.517,11.67-4.976      c0.36-0.12,0.719-0.26,1.079-0.38c0.04-0.02,0.08-0.02,0.12-0.04c0.539-0.2,1.079-0.38,1.618-0.559      c2.518-0.879,5.056-1.659,7.613-2.398c2.278-0.66,4.556-1.259,6.854-1.838c0.14-0.04,0.3-0.08,0.44-0.1      c0,0,0.013,0.008,0.06,0.04c0.46,0.26,0.899,0.54,1.339,0.819c1.119,0.699,2.198,1.399,3.277,2.138      c2.758,1.838,5.455,3.777,8.093,5.815c0.12,0.086-0.151,0.583-0.035,0.67c0.154,0.116,0.695-0.176,0.855-0.051      C378.391,146.278,380.149,147.737,381.888,149.256z"/>
				<path style="fill:#222A30;" d="M373.718,147.155c0.958-0.758,1.916-1.497,2.874-2.275c-0.28-0.22-0.54-0.42-0.819-0.62      c-3.476,2.777-7.012,5.454-10.628,8.031l-0.006-0.004l-18.656-11.95c-0.412,0.142-0.811,0.288-1.209,0.434l18.98,12.146      l0.002,0.001c-7.951,5.653-16.201,10.847-24.711,15.581c-0.005,0.003-0.009,0.005-0.014,0.008l0.005-0.01l0.093-0.198      c-7.566-3.553-14.812-7.799-21.603-12.677c-0.263,0.209-0.542,0.428-0.808,0.65c6.748,4.879,13.964,9.132,21.486,12.687      c-6.374,3.517-12.888,6.754-19.523,9.731c0,0,0,0-0.001,0l-0.006-0.001l-19.818-2.111c-0.195,0.324-0.391,0.648-0.573,0.975      l18.523,1.968l0.011,0.001c-0.005,0.002-0.01,0.005-0.016,0.007c-7.713,3.377-15.586,6.394-23.599,9.012      c-0.14,0.38-0.28,0.779-0.419,1.199c8.852-2.858,17.545-6.215,26.017-10.011c2.718-1.199,5.396-2.458,8.053-3.757      c0.003-0.001,0.006-0.003,0.009-0.004l-0.004,0.011l-2.921,8.923c0.389-0.107,0.777-0.214,1.169-0.334l3.042-9.237      c7.453-3.669,14.735-7.694,21.785-12.049c0.001-0.001,0.002-0.001,0.003-0.002c0,0.003,0,0.005,0,0.007      c-0.208,3.942-0.667,7.887-1.364,11.785c0.383-0.192,0.753-0.386,1.139-0.591c0.648-3.924,1.081-7.877,1.263-11.825      c-0.003-0.006,0-0.01-0.001-0.015c7.313-4.536,14.406-9.451,21.22-14.706c0,0.002,0,0.004,0,0.006      c-0.246,4.085-0.706,8.196-1.359,12.244c0.407-0.338,0.805-0.692,1.186-1.037c0.606-3.977,1.014-7.991,1.222-11.988      l-0.026-0.007L373.718,147.155z"/>
			</g>
		</g>
		<g>
			<path style="fill:#FFFFFF;" d="M227.518,373.126c0-0.419-0.34-0.76-0.76-0.76h-8.424c2.25-2.09,4.664-4.198,7.142-6.138     c0.33-0.259,0.388-0.736,0.13-1.066c-0.259-0.33-0.736-0.388-1.066-0.13c-2.54,1.989-5.012,4.149-7.311,6.288v-11.126     c0-0.419-0.34-0.76-0.76-0.76s-0.76,0.34-0.76,0.76v11.692c-3.027-2.663-6.113-5.257-9.266-7.736     c-0.33-0.26-0.808-0.203-1.067,0.127c-0.26,0.33-0.203,0.808,0.127,1.067c2.868,2.256,5.675,4.614,8.44,7.023h-10.924     c-0.419,0-0.76,0.34-0.76,0.76c0,0.419,0.34,0.76,0.76,0.76h11.519c-3.326,3.251-6.119,6.263-7.947,8.303     c-0.28,0.313-0.254,0.793,0.059,1.073c0.145,0.13,0.326,0.194,0.507,0.194c0.209,0,0.417-0.085,0.566-0.253     c1.831-2.045,4.643-5.075,7.985-8.337v10.158c0,0.419,0.34,0.76,0.76,0.76s0.76-0.34,0.76-0.76v-9.744     c2.973,2.697,5.886,5.461,8.692,8.304c0.148,0.15,0.344,0.226,0.541,0.226c0.193,0,0.386-0.073,0.534-0.219     c0.298-0.295,0.302-0.776,0.007-1.074c-2.919-2.956-5.947-5.83-9.044-8.63h8.8C227.178,373.886,227.518,373.546,227.518,373.126z     "/>
			<g>
				<path style="fill:#FFFFFF;" d="M366.769,208.97c0-0.446-0.361-0.807-0.807-0.807h-8.949c2.39-2.221,4.955-4.459,7.587-6.52      c0.351-0.275,0.413-0.782,0.138-1.133c-0.275-0.35-0.783-0.412-1.133-0.138c-2.698,2.113-5.324,4.407-7.766,6.68v-11.819      c0-0.446-0.361-0.807-0.807-0.807s-0.807,0.361-0.807,0.807v12.421c-3.216-2.829-6.494-5.584-9.844-8.219      c-0.35-0.276-0.858-0.216-1.133,0.135c-0.276,0.351-0.215,0.858,0.135,1.133c3.047,2.397,6.029,4.902,8.966,7.461h-11.605      c-0.446,0-0.807,0.361-0.807,0.807c0,0.446,0.361,0.807,0.807,0.807h12.237c-3.533,3.453-6.501,6.653-8.442,8.821      c-0.297,0.332-0.269,0.843,0.063,1.14c0.154,0.138,0.347,0.206,0.538,0.206c0.221,0,0.443-0.091,0.602-0.269      c1.946-2.173,4.932-5.392,8.483-8.856v10.791c0,0.446,0.361,0.807,0.807,0.807s0.807-0.361,0.807-0.807v-10.352      c3.159,2.866,6.252,5.801,9.234,8.821c0.158,0.16,0.366,0.24,0.574,0.24c0.205,0,0.41-0.078,0.567-0.233      c0.317-0.313,0.32-0.824,0.008-1.141c-3.101-3.141-6.318-6.194-9.608-9.168h9.349      C366.407,209.777,366.769,209.415,366.769,208.97z"/>
				<path style="fill:#FFFFFF;" d="M146.416,174.372c0-0.53-0.43-0.96-0.96-0.96h-10.648c2.844-2.642,5.895-5.306,9.028-7.758      c0.418-0.327,0.491-0.931,0.164-1.348c-0.328-0.418-0.931-0.49-1.348-0.164c-3.211,2.514-6.335,5.244-9.241,7.948v-14.063      c0-0.53-0.43-0.96-0.96-0.96c-0.53,0-0.96,0.43-0.96,0.96v14.756c-3.823-3.362-7.731-6.625-11.712-9.756      c-0.418-0.328-1.021-0.256-1.349,0.161c-0.328,0.417-0.255,1.021,0.161,1.349c3.634,2.858,7.206,5.824,10.708,8.877h-13.848      c-0.53,0-0.96,0.43-0.96,0.96s0.43,0.96,0.96,0.96h14.56c-4.203,4.109-7.734,7.916-10.044,10.495      c-0.354,0.395-0.32,1.002,0.074,1.356c0.183,0.164,0.412,0.245,0.64,0.245c0.264,0,0.526-0.108,0.716-0.32      c2.315-2.585,5.868-6.415,10.093-10.538v12.839c0,0.53,0.43,0.96,0.96,0.96c0.53,0,0.96-0.43,0.96-0.96v-12.339      c3.763,3.413,7.436,6.921,10.987,10.518c0.188,0.19,0.435,0.286,0.683,0.286c0.244,0,0.488-0.092,0.675-0.277      c0.377-0.373,0.381-0.981,0.008-1.358c-3.686-3.734-7.502-7.372-11.413-10.908h11.104      C145.985,175.332,146.416,174.902,146.416,174.372z"/>
				<path style="fill:#FFF2E8;" d="M168.159,292.508c0,3.006-2.436,5.442-5.442,5.442c-3.006,0-5.442-2.437-5.442-5.442      c0-3.006,2.436-5.442,5.442-5.442C165.722,287.066,168.159,289.503,168.159,292.508z"/>
				<path style="fill:#FFF2E8;" d="M434.821,342.848c0,3.006-2.437,5.442-5.442,5.442c-3.006,0-5.442-2.436-5.442-5.442      c0-3.006,2.437-5.442,5.442-5.442C432.384,337.405,434.821,339.842,434.821,342.848z"/>
				<circle style="fill:#FFF2E8;" cx="282.443" cy="163.939" r="5.442"/>
			</g>
		</g>
	</g>
</g>















</svg>
