<?xml version="1.0" encoding="UTF-8"?>
<!-- Generator: Adobe Illustrator 25.2.1, SVG Export Plug-In . SVG Version: 6.00 Build 0)  -->
<svg xmlns="http://www.w3.org/2000/svg" xmlns:xlink="http://www.w3.org/1999/xlink" version="1.1" id="Capa_1" x="0px" y="0px" viewBox="0 0 511.997 511.997" style="enable-background:new 0 0 511.997 511.997;" xml:space="preserve" width="512" height="512">
<g>
	<path style="fill:#FFFFFF;" d="M40.797,487.403c-7.75,0-15.369-2.635-21.454-7.42l-4.158-3.27l-0.183-0.797   c-4.905-5.413-7.955-12.206-8.73-19.616c-1.143-10.929-2.405-24.641-3.754-40.756l-0.187-2.207   c-1.814-22.583-2.575-45.369-2.264-67.798c0.059-4.125,0.145-9.006,0.336-13.99c0.136-4.293,0.316-8.587,0.537-12.765l0.062-1.149   c0.308-5.756,0.627-11.706,1.265-17.726c0.202-2.33,0.419-4.658,0.651-6.984c3.198-32.035,8.92-60.541,17.492-87.149   c11.567-35.94,29.138-69.181,50.811-96.127l2.254-2.802l0.075-0.034c0.857-1.032,1.731-2.067,2.617-3.099v-0.107l3.846-4.277   c14.226-16.534,36.627-32.789,36.627-32.789c3.052-2.151,6.143-4.205,9.256-6.146c37.039-23.087,83.165-35.8,129.888-35.8   c18.161,0,36.081,1.923,53.264,5.715l0.351,0.08c29.298,6.512,55.509,18.127,77.913,34.526   c26.26,19.192,48.145,45.961,66.896,81.83c0.247,0.473,0.481,0.932,0.716,1.392l0.116,0.226l0.104,0.186l0.124,0.241   c8.093,15.722,15.42,32.794,21.776,50.744c10.859,30.828,19.62,66.347,26.045,105.594c1.44,8.887,2.604,16.888,3.562,24.486   c0.871,6.752,1.582,12.901,2.168,18.758c1.231,11.74,2.146,23.896,2.709,36.06c0.111,2.488,0.201,4.979,0.29,7.469l0.004,0.121   c0.135,4.551,0.4,36.389-0.206,61.503c-0.264,10.845-5.432,20.744-14.177,27.162c-0.804,0.589-1.637,1.146-2.483,1.663   c-5.438,3.309-11.674,5.054-18.043,5.054H40.797z"/>
	<g>
		<path style="fill:#CDE6CF;" d="M476.913,472.403H177.271l-98.36-4.211l-29.303,4.211h-8.812c-4.576,0-8.816-1.565-12.182-4.211    l-11.151-53.898c-0.086-1.022-0.149-1.781-0.187-2.229c-1.774-22.076-2.519-44.175-2.212-66.317    c0.066-4.555,0.153-9.111,0.329-13.666c0.131-4.161,0.306-8.344,0.526-12.505c0.327-6.08,0.633-12.168,1.28-18.223l1.457-5.882    l-0.812-1.056c2.843-28.473,8.07-56.802,16.844-84.039c10.429-32.402,26.554-64.387,48.221-91.325c0,0,11.011-5.047,15.801-10.007    c5.975-6.186,16.86-22.919,16.86-22.919c5.827-4.693,11.916-9.044,18.265-13.005c48.913-30.488,113.844-40.993,171.98-28.164    c26.308,5.806,157.089,159.585,157.089,159.585c11.663,33.108,19.713,68.383,25.382,103.01c1.292,7.972,2.475,15.944,3.482,23.938    c0.788,6.11,1.511,12.243,2.124,18.375c1.226,11.695,2.103,23.456,2.65,35.261c0.109,2.431,0.197,4.884,0.285,7.337    c0.135,4.564,0.388,36.013-0.209,60.699c-0.154,6.349-3.293,11.936-8.056,15.431c0,0-0.487,0.055-0.694,0.196    c-0.264,0.178-0.723,0.753-0.723,0.753C484.162,471.358,480.658,472.403,476.913,472.403z"/>
		<g>
			<g>
				<g>
					<path style="fill:#5AAA5B;" d="M192.882,374.171c27.916-16.651,57.185-31.009,84.581-48.484       c27.183-17.344,43.212-26.856,83.778-54.773c0.311-0.203,0.604-0.419,0.915-0.622c-1.193-0.08-2.386-0.159-3.592-0.22       c-66.052-4.081-151.276,10.928-205.08,53.659c-46.502,36.891-82.828,91.67-103.875,148.672h17.519       C104.189,433.93,146.234,401.998,192.882,374.171z"/>
					<path style="fill:#222A30;" d="M176.811,331.729c60.712-41.379,132.601-55.991,184.43-60.816       c0.311-0.203,0.604-0.419,0.915-0.622c-1.193-0.08-2.386-0.159-3.592-0.22c-51.747,5.035-122.469,19.895-182.394,60.731       c-49.354,33.634-93.764,84.365-124.482,141.6h1.272C83.553,415.555,127.738,365.156,176.811,331.729z"/>
				</g>
				<path style="fill:#8FD971;" d="M351.423,347.429c-64.835,0.912-129.4,17.286-186.833,47.382      c-38.512,20.181-73.767,46.518-104.174,77.592h42.418C183.601,426.743,266.388,385.06,351.423,347.429z"/>
				<path style="fill:#8FD971;" d="M43.727,303.126c-13.605,35.683-22.415,73.175-26.262,111.168      c0.562,6.708,2.086,24.761,3.726,40.445c0.575,5.499,3.379,10.259,7.448,13.452c36.383-113.132,79.169-223.667,128.79-331.779      C107.203,182.082,67.91,239.695,43.727,303.126z"/>
			</g>
			<g>
				<path style="fill:#E46C3E;" d="M194.18,59.83c10.043-5.358,21.506-9.429,32.679-7.25c11.172,2.178,21.334,12.517,19.829,23.8      c-0.824,6.18-4.909,11.569-9.962,15.221c-5.053,3.653-11.028,5.787-16.989,7.615c-12.225,3.751-24.782,6.411-37.475,7.958      c-8.688,1.059-28.915,2.214-37.281,0.037C157.387,86.294,175.438,69.829,194.18,59.83z"/>
				<path style="fill:#E46C3E;" d="M82.911,119.064c0.934,6.694,2.398,13.032,4.428,18.658      c11.675-13.993,22.06-32.656,28.234-51.583C103.569,95.807,92.676,106.921,82.911,119.064z"/>
				<g>
					<path style="fill:#E46C3E;" d="M180.852,151.986c11.198-2.042,23.357-2.424,33.333,3.056       c9.977,5.48,16.503,18.424,11.63,28.712c-2.669,5.635-8.202,9.521-14.128,11.46c-5.926,1.939-12.267,2.149-18.501,2.074       c-12.786-0.154-25.557-1.448-38.117-3.844c-8.598-1.64-28.214-6.706-35.518-11.329       C137.742,165.975,159.954,155.796,180.852,151.986z"/>
					<path style="fill:#222A30;" d="M17.845,294.414c-0.23,2.311-0.445,4.624-0.645,6.938c10.534-31.12,22.984-61.607,39.018-90.394       c0.558-1.003,1.132-1.987,1.697-2.981c37.927-20.284,80.641-32.29,123.577-34.721c0.453-0.025,0.799-0.414,0.774-0.867       s-0.449-0.808-0.866-0.773c-42.311,2.397-84.41,14.041-121.971,33.703C96.342,141.645,147.616,96.462,204.368,77.77       c0.431-0.142,0.665-0.606,0.523-1.037c-0.142-0.43-0.603-0.667-1.037-0.523c-45.201,14.888-86.926,46.451-120.766,90.68       c2.458-20.098,5.924-40.17,10.323-60.002c-0.755,0.815-1.499,1.643-2.242,2.47c-4.294,19.778-7.649,39.788-10.016,59.81       c-0.009,0.08,0.006,0.155,0.019,0.23c-8.716,11.618-16.885,24.099-24.446,37.35c-0.049,0.027-0.099,0.052-0.149,0.079       c-0.329,0.177-0.475,0.542-0.402,0.889c-0.462,0.816-0.933,1.621-1.391,2.443C39.795,237.069,27.935,265.44,17.845,294.414z"/>
				</g>
			</g>
			<g>
				<path style="fill:#E46C3E;" d="M376.313,295.481c-8.986-6.988-19.59-12.948-30.97-12.701      c-11.38,0.247-23.151,8.708-23.587,20.082c-0.238,6.23,2.871,12.235,7.229,16.693c4.358,4.459,9.884,7.577,15.446,10.393      c11.409,5.775,23.331,10.531,35.576,14.214c8.382,2.521,28.118,7.098,36.732,6.375      C408.07,327.815,393.081,308.52,376.313,295.481z"/>
				<path style="fill:#E46C3E;" d="M480.807,310.945c-1.109-5.935-3.001-11.973-7.123-16.386      c-4.122-4.413-10.947-6.749-16.413-4.184c-6.389,2.999-8.503,10.986-9.057,18.021c-2.098,26.644,6.824,58.993,20.14,82.009      C480.411,369.205,485.262,334.784,480.807,310.945z"/>
				<g>
					<path style="fill:#E46C3E;" d="M373.778,388.561c-10.688-3.916-22.605-6.36-33.368-2.656       c-10.763,3.704-19.395,15.35-16.343,26.316c1.672,6.007,6.464,10.777,11.974,13.695c5.51,2.918,11.723,4.204,17.88,5.19       c12.626,2.023,25.431,2.918,38.216,2.693c8.752-0.154,28.943-1.811,36.927-5.125       C413.881,409.676,393.724,395.869,373.778,388.561z"/>
					<path style="fill:#222A30;" d="M488.12,467.322c-0.311-0.888-0.639-1.762-0.956-2.645c-0.11-0.289-0.323-0.928-0.378-1.045       c-5.198-14.344-11.126-28.031-17.74-40.962c0.025-0.072,0.052-0.144,0.056-0.225c1.696-31.88,0.955-64.147-2.205-95.907       c-0.045-0.451-0.446-0.775-0.898-0.736c-0.452,0.045-0.781,0.447-0.736,0.898c3.069,30.852,3.844,62.183,2.32,93.17       c-25.827-49.339-61.579-87.537-103.59-109.893c-0.402-0.216-0.897-0.061-1.111,0.339c-0.214,0.4-0.061,0.898,0.339,1.111       c52.749,28.07,95.593,81.314,121.143,150.337c-33.671-25.763-73.177-44.396-114.465-53.952       c-0.44-0.097-0.884,0.173-0.986,0.615c-0.103,0.442,0.173,0.883,0.615,0.986c41.899,9.697,81.952,28.792,115.876,55.229       c0.388,1.075,0.785,2.142,1.165,3.225c0.193,0.551,0.386,1.124,0.577,1.675c0.485-0.295,0.96-0.613,1.417-0.948       C488.419,468.175,488.267,467.739,488.12,467.322z"/>
				</g>
			</g>
			<g>
				<path style="fill:#5AAA5B;" d="M177.269,472.403c14.255-3.104,28.215-7.436,41.649-13.49      c8.585-3.876,17.105-8.607,23.084-15.922c5.979-7.293,8.936-17.674,5.366-26.413c-0.526-1.27-1.183-2.475-1.949-3.614      c-0.285-0.482-0.635-0.942-0.986-1.38c-3.789-4.84-9.549-8.169-15.572-9.702c-7.928-2.015-16.272-1.336-24.354-0.066      c-21.288,3.351-41.744,10.753-60.82,20.697c-17.455,9.089-33.772,20.302-49.103,32.611      c-4.481,3.607-15.491,11.345-20.913,17.279H177.269z"/>
				<path style="fill:#222A30;" d="M90.365,472.403c52.732-16.664,104.765-36.6,155.053-59.439c-0.285-0.482-0.635-0.942-0.986-1.38      c-51.709,23.486-105.239,43.901-159.509,60.819H90.365z"/>
			</g>
			<g>
				<g>
					<path style="fill:#5AAA5B;" d="M416.499,121.741c-10.298,41.271-18.597,84.405-11.493,126.937       c1.558,9.29,3.959,18.735,9.507,26.382c5.527,7.641,14.81,13.149,24.17,11.926c1.362-0.184,2.695-0.512,3.992-0.963       c0.539-0.152,1.073-0.374,1.586-0.601c5.646-2.429,10.335-7.149,13.353-12.582c3.971-7.152,5.443-15.394,6.276-23.532       c1.524-14.915,1.044-29.939-0.985-44.767c-5.926-16.733-12.842-33.089-20.974-48.886       C441.594,155.001,416.499,121.741,416.499,121.741z"/>
					<path style="fill:#222A30;" d="M425.249,129.413c2.796,53.301,8.497,104.079,17.426,156.61       c0.539-0.152,1.073-0.374,1.586-0.601c-8.746-51.443-14.387-101.076-17.231-153.275       C426.438,131.235,425.853,130.316,425.249,129.413z"/>
				</g>
				<g>
					<g>
						<path style="fill:#F9EFD2;" d="M440.914,153.695c-15.594-29.83-35.283-56.812-62.463-76.676        c-21.414-15.675-46.334-26.257-72.645-32.062c-2.543,1.899-4.81,4.094-6.66,6.619c-1.139,1.536-2.096,3.199-2.9,4.983        c-0.182,0.401-0.344,0.79-0.483,1.219c-3.364,8.734-1.636,19.057,3.547,26.896c1.633,2.485,4.167,4.664,7.129,6.586        c2.357,1.491,4.998,2.838,7.697,4.017c5.219,2.281,10.685,3.962,15.048,5.222c-0.321,0.565-0.631,1.149-0.929,1.753        c-0.352,0.69-0.685,1.367-0.986,2.053c-5.664,12.56-6.872,28.947,3.129,37.746c2.847,2.521,6.099,4.266,9.572,5.322        c0.012,0.02,0.012,0.02,0.043,0.027c2.305,0.702,4.718,1.1,7.149,1.221c0.012,0.02,0.012,0.02,0.031,0.008        c8.049,0.386,16.475-2.289,23.203-7.252c-0.048,2.334-0.104,4.699-0.109,7.06c-0.017,0.805-0.003,1.618,0.03,2.419        c0.031,7.029,0.528,14.041,2.348,20.785c2.664,9.811,8.591,19.189,17.717,23.641c4.541,2.213,9.538,2.985,14.532,2.567        c0,0,0.043,0.027,0.062,0.015c4.943-0.414,9.894-1.999,14.318-4.458c3.01-1.685,5.824-3.781,8.226-6.211        c8.282-8.341,12.648-19.81,14.406-31.533C441.588,155.007,441.256,154.349,440.914,153.695z"/>
						<path style="fill:#F9EFD2;" d="M419.739,190.532c-9.008,14.789-27.282,24.595-44.379,23.815        c-17.096-0.78-32-12.1-36.194-27.491c-9.924,5.143-21.815,5.436-31.002,0.871s-15.537-13.125-18.251-22.769        c-2.714-9.643-1.976-20.288,0.966-30.429c-18.413-2.12-32.92-18.834-32.896-36.617s14.382-36.055,32.805-41.747        c19.235-5.943,38.829,1.153,54.845,10.402c22.73,13.126,42.217,30.811,56.997,51.729c6.916,9.788,12.85,20.37,16.101,31.993        C421.983,161.913,426.556,179.339,419.739,190.532z"/>
						<path style="fill:#62857E;" d="M306.44,91.26c-2.232-2.468-4.149-5.205-5.736-8.141c-4.109-7.64-5.791-16.613-4.939-25.341        c0.139-0.428,0.301-0.818,0.483-1.219c0.804-1.784,1.76-3.447,2.9-4.983c-2.613,10.109-1.385,21.316,3.557,30.467        c2.796,5.201,6.736,9.71,11.433,13.233c4.19,3.166,9.001,5.561,14.12,6.975c1.238,0.339,2.503,0.635,3.771,0.849        c0.362,0.073,0.686,0.302,0.834,0.636c0.161,0.354,0.13,0.743-0.067,1.074c-7.138,11.568-5.089,28.083,4.654,37.594        c2.812,2.727,6.143,4.822,9.714,6.217c0.012,0.019,0.012,0.019,0.031,0.008c7.344,2.905,15.781,2.925,23.093-0.191        c1.566-0.654,3.069-1.455,4.49-2.393c0.4-0.215,0.886-0.244,1.252,0.012c0.386,0.244,0.585,0.706,0.49,1.162        c-2.018,10.306-0.932,20.619,3.024,29.014c4.413,9.285,12.468,16.264,21.562,18.644c6.131,1.598,12.656,0.996,18.189-1.469        c-4.424,2.459-9.375,4.044-14.318,4.458c-0.02,0.012-0.062-0.015-0.062-0.015c-1.455-0.129-2.942-0.397-4.386-0.77        c-9.739-2.572-18.348-9.986-23.024-19.881c-3.865-8.158-5.118-18-3.643-27.978c-1.161,0.622-2.338,1.173-3.543,1.636        c-9.901,3.831-21.523,2.529-30.304-3.457c-0.031-0.008-0.031-0.008-0.043-0.027c-1.461-0.972-2.834-2.104-4.113-3.346        c-10.094-9.829-12.493-26.662-5.805-39.019c-0.942-0.2-1.876-0.431-2.783-0.704C319.212,102.015,311.949,97.445,306.44,91.26z        "/>
						<g>
							<path style="fill:#62857E;" d="M349.493,163.663c-2.149-3.56-2.337-7.383-0.42-8.54c1.917-1.157,5.212,0.79,7.361,4.35         c2.149,3.559,2.337,7.383,0.421,8.54C354.937,169.169,351.642,167.222,349.493,163.663z"/>
							<path style="fill:#62857E;" d="M322.675,157.145c-2.282-3.476-2.614-7.289-0.743-8.518c1.872-1.228,5.239,0.593,7.52,4.069         c2.281,3.476,2.614,7.29,0.742,8.518C328.323,162.443,324.956,160.621,322.675,157.145z"/>
							<path style="fill:#62857E;" d="M316.705,128.956c-2.282-3.476-2.614-7.29-0.742-8.518c1.872-1.229,5.238,0.593,7.52,4.069         c2.281,3.476,2.614,7.29,0.742,8.518C322.354,134.253,318.987,132.431,316.705,128.956z"/>
						</g>
					</g>
				</g>
			</g>
			<g>
				<g>
					<g>
						<g>
							<path style="fill:#F9EFD2;" d="M241.66,333.635c2.749,2.691,4.985,5.565,6.193,8.572c3.844,9.491,3.463,20.889-2.015,29.492         c-0.241,0.427-0.498,0.808-0.779,1.197c-1.244,1.732-2.624,3.302-4.172,4.697c-7.916,7.218-19.508,10.108-30.452,10.482         c-38.01,1.323-72.292-11.945-94.279-43.003c-18.041-25.462-15.859-73.993-7.108-103.954         c4.143-14.162,11.752-27.885,23.993-36.074c3.089-2.077,6.547-3.709,10.126-4.859c5.255-1.671,10.886-2.296,16.254-1.672         c0.023-0.008,0.063,0.03,0.063,0.03c5.424,0.631,10.594,2.534,14.967,5.877c8.786,6.724,13.093,18.019,13.821,29.073         c0.488,7.596-0.494,15.192-1.977,22.706c-0.137,0.863-0.298,1.734-0.49,2.591c-0.515,2.521-1.085,5.035-1.64,7.517         c8.256-3.848,17.833-4.888,26.346-2.739c0.023-0.008,0.023-0.008,0.031,0.015c2.571,0.655,5.062,1.6,7.372,2.847         c0.031,0.015,0.031,0.015,0.04,0.038c3.481,1.878,6.579,4.444,9.075,7.75c8.784,11.556,3.958,28.798-4.803,40.99         c-0.47,0.667-0.971,1.319-1.496,1.98c-0.448,0.58-0.905,1.138-1.37,1.672c4.389,2.287,9.864,5.262,14.946,8.824         C236.933,329.525,239.463,331.533,241.66,333.635z"/>
							<path style="fill:#F9EFD2;" d="M142.071,203.159c12.812-13.851,34.446-20.382,52.538-15.86s31.567,19.828,32.725,37.171         c11.709-3.352,24.473-1.099,33.299,5.759c8.826,6.858,13.762,17.371,14.58,28.256c0.818,10.885-2.267,22.095-7.598,32.291         c19.208,6.237,31.096,27.219,27.233,46.207c-3.862,18.988-23.141,35.406-44.045,37.51         c-21.826,2.197-41.223-9.61-56.333-22.944c-21.445-18.924-38.441-42.017-49.714-67.548         c-5.275-11.946-9.329-24.529-10.294-37.644C133.498,233.242,132.374,213.642,142.071,203.159z"/>
							<path style="fill:#62857E;" d="M241.66,333.635c1.851,3.117,3.308,6.454,4.37,9.933c2.74,9.047,2.6,18.994-0.193,28.131         c-0.241,0.427-0.498,0.808-0.779,1.197c-1.244,1.732-2.624,3.302-4.172,4.697c4.973-10.233,6.079-22.468,2.776-33.308         c-1.864-6.158-5.1-11.825-9.356-16.601c-3.792-4.286-8.413-7.882-13.576-10.496c-1.249-0.629-2.536-1.218-3.845-1.721         c-0.371-0.156-0.667-0.47-0.754-0.859c-0.095-0.412,0.021-0.821,0.303-1.133c10.119-10.815,11.495-28.896,3.142-41.157         c-2.415-3.519-5.521-6.476-9.034-8.736c-0.008-0.023-0.008-0.023-0.031-0.015c-7.217-4.688-16.224-6.529-24.706-4.779         c-1.814,0.361-3.592,0.892-5.312,1.587c-0.474,0.143-0.999,0.069-1.335-0.283c-0.359-0.344-0.473-0.881-0.272-1.347         c4.379-10.572,5.444-21.821,3.031-31.641c-2.71-10.869-9.808-20.062-19.006-24.565c-6.203-3.029-13.303-3.795-19.744-2.355         c5.255-1.671,10.886-2.296,16.254-1.672c0.023-0.008,0.063,0.03,0.063,0.03c1.527,0.451,3.056,1.058,4.518,1.769         c9.847,4.849,17.442,14.625,20.301,26.202c2.368,9.547,1.582,20.329-2.146,30.668c1.375-0.413,2.751-0.749,4.137-0.983         c11.401-1.955,23.534,1.944,31.62,10.231c0.031,0.015,0.031,0.015,0.04,0.038c1.351,1.354,2.573,2.859,3.671,4.461         c8.66,12.676,7.59,31.172-2.219,42.927c0.963,0.417,1.911,0.865,2.821,1.353C230.339,319.391,237.11,325.84,241.66,333.635z"/>
						</g>
						<path style="fill:#222A30;" d="M110.501,347.2c3.879,5.149,9.163,9.529,14.618,12.236c3.134,1.555,6.563,2.77,10.054,2.554        c3.492-0.216,7.046-2.127,8.401-5.352c1.311-3.12,0.324-6.838-1.706-9.546c-2.03-2.708-4.843-5.062-7.773-6.755        c3.575-1.486,6.062-5.271,6.007-9.142c-0.055-3.871-2.649-7.584-6.265-8.967c-3.616-1.383-8.417-0.847-11.042,1.998        c0.549-3.745,1.088-7.638-0.026-11.255c-1.114-3.617-4.395-6.865-8.173-6.635c-4.005,0.244-6.809,4.066-8.337,7.776        c-3.23,7.842-3.372,16.908-0.391,24.848c0.784,2.089,1.847,4.133,3.118,6.091c-20.409,29.373-37.796,65.529-50.56,105.346        c-2.342,7.305-4.491,14.65-6.469,22.007h2.445C66.865,426.241,86.298,382.244,110.501,347.2z"/>
					</g>
					<g>
						<path style="fill:#456638;" d="M58.04,448.541c0.221-0.998,0.441-1.995,0.638-2.984c0.007-0.055,0.005-0.133,0.035-0.196        c1.336-6.752,2.1-12.906,4.011-19.811c4.32-15.722,9.058-31.305,12.891-47.141c7.737-31.987,11.673-66.235,0.934-97.33        c-1.061-3.111-2.605-6.47-5.155-8.313c-0.572-0.425-1.198-0.779-1.883-1.006c-0.213-0.081-0.426-0.163-0.654-0.212        c-5.542-1.402-10.251,4.143-12.835,9.242c-7.468,14.775-10.384,31.412-12.265,47.862c-1.25,10.659-2.053,21.394-2.465,32.121        c-0.76,19.068-0.222,38.169,1.565,57.165c0.904,9.416,2.088,18.809,3.599,28.165c1.33,8.292,2.358,16.594,5.288,26.304h0.598        C54.647,465.226,56.398,455.892,58.04,448.541z"/>
						<path style="fill:#222A30;" d="M52.343,472.403c2.304-7.177,4.055-16.511,5.698-23.862c0.221-0.998,0.441-1.995,0.638-2.984        c0.007-0.055,0.005-0.133,0.035-0.196c10.607-62.467,14.772-119.242,12.681-172.596c-0.572-0.425-1.198-0.779-1.883-1.006        c2.482,61.2-3.315,126.936-17.644,200.645H52.343z"/>
					</g>
				</g>
				<g>
					<path style="fill:#FFB329;" d="M234.739,327.416c-4.159,4.024-8.872,7.47-13.956,10.188       c-5.233,2.835-11.176,5.713-16.842,7.529c-13.13,4.208-31.305-3.292-39.467-15.259c-3.034-4.449-5.913-10.224-6.471-15.558       c-0.558-5.367-0.186-10.975,0.62-16.419c0.238-1.482,0.492-2.981,0.78-4.446c0.24-1.216,0.48-2.432,0.753-3.648       c1.027-4.764,2.337-9.514,3.964-14.117c1.464-4.136,3.179-8.157,5.211-11.998c2.688-5.01,5.91-9.725,9.803-13.847       c1.468-1.591,3.019-3.1,4.704-4.51c14.489-12.204,39.973-15.631,54.404-1.292c8.649,8.58,13.437,21.181,14.619,33.927       c0.546,6.049,0.278,12.155-0.791,17.867c-0.446,2.431-1.043,4.814-1.79,7.082c-0.438,1.35-0.927,2.685-1.482,3.986       c-1.828,4.438-4.223,8.648-7.053,12.528C239.638,322.272,237.297,324.952,234.739,327.416z"/>
					<path style="fill:#222A30;" d="M252.069,295.832c-22.082-20.714-52.476-32.616-82.739-32.145       c2.688-5.01,5.91-9.725,9.803-13.847c26.589,1.687,52.694,11.743,73.727,28.125       C253.407,284.014,253.138,290.12,252.069,295.832z"/>
					<path style="fill:#222A30;" d="M241.744,319.429c-22.189-19.532-52.059-30.39-81.588-29.626       c1.027-4.764,2.337-9.514,3.964-14.117c30.635,0.258,61.224,11.526,84.677,31.215       C246.969,311.339,244.574,315.548,241.744,319.429z"/>
					<path style="fill:#222A30;" d="M234.739,327.416c-4.159,4.024-8.872,7.47-13.956,10.188       c-18.609-12.676-40.408-20.737-62.78-23.288c-0.558-5.367-0.186-10.975,0.62-16.419       C185.969,300.825,212.609,311.11,234.739,327.416z"/>
					<path style="fill:#222A30;" d="M182.575,349.689c-0.211-6.038-0.443-12.291-0.654-18.329c2.83-1.135,6.116-1.081,8.908,0.144       c2.792,1.226,5.055,3.608,6.136,6.459C192.189,341.547,187.017,345.701,182.575,349.689z"/>
					<path style="fill:#FFF2E8;" d="M231.047,311.124c-0.769-7.634-1.977-14.28-3.692-20.319c-1.613-5.674-5.24-14.215-9.391-19.559       c-1.156-1.487-2.082-2.381-3.118-2.271c-0.149,0.017-0.286,0.054-0.416,0.105c-0.659-0.776-1.93-0.798-3.772-0.57       c-6.716,0.83-15.326,4.289-20.484,7.152c-5.489,3.046-11.05,6.881-17.001,11.724c-3.639,2.963-7.74,6.515-10.333,11.198       c-2.798,5.054-3.18,10.865-0.998,15.165c2.607,5.134,8.375,7.507,13.914,7.507c2.024,0,4.018-0.317,5.815-0.931       c5.867-2.006,11.206-6.661,16.324-14.233c1.503-2.224,2.942-4.583,4.348-7.122c-0.771,2.693-1.398,5.289-1.897,7.841       c-1.753,8.969-1.283,16.037,1.437,21.608c2.593,5.31,8.563,9.932,14.805,9.932c1.257,0,2.524-0.187,3.777-0.594       c4.588-1.489,8.435-5.861,10.04-11.41C231.892,321.205,231.516,315.793,231.047,311.124z M215.017,270.607       c0.068,0.008,0.467,0.123,1.649,1.646c3.838,4.94,7.487,13.298,9.108,19c1.689,5.945,2.879,12.498,3.638,20.034       c0.02,0.195,0.037,0.399,0.056,0.597c-1.312-1.717-3.14-3.04-5.242-3.633c-2.219-0.625-4.611-0.417-6.71,0.479       c-0.614-0.782-1.309-1.528-2.081-2.225c-2.267-2.048-4.811-3.323-7.355-3.689c-1.8-0.257-3.566-0.396-5.249,0.381       c1.342-5.514,3.295-11.356,6.052-18.076c0.076-0.184,0.153-0.39,0.229-0.579c0.487-1.124,1.014-2.298,1.581-3.547       c1.142-2.51,2.322-5.106,3.159-7.397l0.16-0.436c0.322-0.873,0.58-1.586,0.713-2.194       C214.841,270.781,214.943,270.644,215.017,270.607z M218.565,314.195c0.756,2.566,0.563,5.288-0.528,7.467       c-0.288,0.574-0.899,1.557-1.759,1.69c-1.02,0.143-1.992-0.94-2.47-2.022c-1.27-2.874-0.719-6.538,1.34-8.911       c0.533-0.615,1.166-1.142,1.864-1.57C217.7,311.916,218.225,313.041,218.565,314.195z M190.97,277.098       c5.183-2.877,13.68-6.191,19.889-6.958c0.7-0.087,1.194-0.115,1.538-0.115c0.597,0,0.75,0.084,0.77,0.092       c0.022,0.057,0.017,0.157,0,0.275c-0.274,0.479-0.548,1.068-0.869,1.76l-0.196,0.421c-1.031,2.209-2.036,4.876-3.009,7.455       c-0.504,1.334-0.983,2.601-1.453,3.777c-0.134,0.309-0.279,0.632-0.406,0.932c-2.816,6.7-5.578,12.209-8.54,17.052       c-0.637-1.742-1.974-2.9-3.429-3.995c-2.055-1.545-4.754-2.447-7.804-2.608c-1.036-0.054-2.057-0.022-3.046,0.095       c-0.844-2.119-2.386-3.96-4.395-5.091c-1.902-1.072-4.128-1.433-6.27-1.152c0.153-0.125,0.308-0.256,0.46-0.379       C180.085,283.878,185.566,280.097,190.97,277.098z M183.475,299.564c-0.228,3.133-2.435,6.111-5.368,7.239       c-1.107,0.425-2.571,0.503-3.175-0.324c-0.513-0.702-0.249-1.83-0.045-2.439c0.774-2.311,2.566-4.368,4.918-5.644       c1.058-0.574,2.225-0.997,3.467-1.262C183.461,297.932,183.535,298.753,183.475,299.564z M181.04,318.77       c-6.066,2.077-14.573,0.461-17.733-5.764c-1.939-3.82-1.567-9.041,0.97-13.625c1.548-2.797,3.7-5.193,5.962-7.302       c2.56-1.805,6.244-1.993,8.976-0.456c1.552,0.875,2.788,2.303,3.525,3.948c-1.326,0.299-2.576,0.763-3.718,1.382       c-2.713,1.471-4.787,3.865-5.692,6.567c-0.533,1.594-0.437,2.953,0.276,3.928c0.703,0.964,1.786,1.313,2.884,1.313       c0.77,0,1.548-0.172,2.208-0.426c3.561-1.371,6.14-4.848,6.417-8.653c0.069-0.942-0.005-1.887-0.206-2.802       c0.802-0.079,1.628-0.096,2.468-0.054c1.899,0.101,4.638,0.578,6.904,2.28c2.006,1.51,3.058,2.684,3.151,4.693       c-0.298,0.459-0.594,0.923-0.897,1.371C191.623,312.436,186.556,316.884,181.04,318.77z M228.827,325.891       c-1.455,5.032-4.892,8.98-8.969,10.303c-6.635,2.156-13.786-2.732-16.599-8.496c-2.557-5.237-2.982-11.966-1.301-20.573       c0.104-0.53,0.223-1.067,0.338-1.602c1.49-1.354,3.062-1.436,5.55-1.08c2.805,0.403,5.076,2.007,6.487,3.281       c0.625,0.565,1.195,1.163,1.704,1.787c-0.79,0.503-1.511,1.117-2.13,1.831c-2.499,2.882-3.143,7.163-1.601,10.653       c0.638,1.443,1.978,3.017,3.753,3.017c0.153,0,0.309-0.012,0.468-0.037c1.196-0.184,2.225-1.074,2.979-2.577       c1.276-2.547,1.507-5.706,0.635-8.668c-0.367-1.246-0.922-2.459-1.645-3.609c1.685-0.639,3.569-0.773,5.286-0.289       c3.015,0.85,5.483,3.595,6.011,6.683C229.894,319.607,229.715,322.821,228.827,325.891z"/>
					<g>
						<path style="fill:#222A30;" d="M219.65,245.818c-0.468,0-0.858-0.368-0.88-0.84c-0.483-10.215-4.076-20.385-10.119-28.637        c-0.288-0.393-0.202-0.945,0.191-1.233c0.392-0.289,0.943-0.202,1.232,0.191c6.244,8.528,9.958,19.039,10.458,29.595        c0.023,0.487-0.353,0.9-0.84,0.923C219.678,245.817,219.664,245.818,219.65,245.818z"/>
						<path style="fill:#222A30;" d="M227.408,248.583c-0.18,0-0.361-0.055-0.519-0.169c-0.394-0.287-0.48-0.838-0.193-1.232        c5.178-7.105,12.146-12.779,20.153-16.408c0.447-0.201,0.968-0.004,1.167,0.44c0.201,0.443,0.005,0.966-0.439,1.167        c-7.73,3.503-14.457,8.98-19.456,15.839C227.949,248.457,227.68,248.583,227.408,248.583z"/>
					</g>
				</g>
			</g>
		</g>
		<g>
			<path style="fill:#FFFFFF;" d="M217.661,128.449c6.35-3.351,11.389-8.476,14.204-15.563c0.356-0.896,1.634-0.854,1.966,0.052     c2.693,7.335,6.068,12.914,12.194,16.638c0.699,0.425,0.673,1.44-0.05,1.823c-5.835,3.093-10.196,8.022-13.178,13.954     c-0.41,0.815-1.57,0.768-1.913-0.078c-2.627-6.48-7.145-11.512-13.258-14.993C216.909,129.873,216.931,128.834,217.661,128.449z"/>
			<path style="fill:#FFFFFF;" d="M265.982,233.214c5.562-2.935,9.976-7.424,12.442-13.632c0.312-0.785,1.431-0.748,1.722,0.045     c2.359,6.425,5.315,11.312,10.682,14.574c0.612,0.372,0.589,1.261-0.044,1.597c-5.111,2.709-8.931,7.027-11.544,12.223     c-0.359,0.714-1.375,0.673-1.676-0.068c-2.301-5.676-6.259-10.084-11.613-13.132     C265.323,234.461,265.342,233.551,265.982,233.214z"/>
			<path style="fill:#FFFFFF;" d="M367.608,241.453c4.784-2.525,8.58-6.385,10.701-11.724c0.268-0.675,1.23-0.643,1.481,0.039     c2.029,5.526,4.571,9.729,9.187,12.534c0.527,0.32,0.507,1.085-0.038,1.373c-4.396,2.33-7.681,6.043-9.928,10.512     c-0.309,0.614-1.183,0.578-1.441-0.059c-1.979-4.882-5.383-8.673-9.988-11.294C367.041,242.525,367.058,241.743,367.608,241.453z     "/>
			<path style="fill:#FFFFFF;" d="M430.237,381.621c4.784-2.524,8.58-6.385,10.701-11.724c0.268-0.675,1.231-0.643,1.481,0.039     c2.029,5.526,4.571,9.729,9.186,12.534c0.527,0.32,0.507,1.085-0.038,1.373c-4.396,2.33-7.681,6.043-9.928,10.512     c-0.309,0.614-1.183,0.579-1.441-0.059c-1.979-4.881-5.383-8.672-9.988-11.294C429.67,382.693,429.686,381.911,430.237,381.621z"/>
			<path style="fill:#FFFFFF;" d="M286.341,422.627c4.784-2.524,8.58-6.385,10.701-11.724c0.268-0.675,1.231-0.643,1.481,0.039     c2.029,5.526,4.571,9.729,9.186,12.534c0.527,0.32,0.507,1.084-0.038,1.373c-4.396,2.33-7.681,6.043-9.928,10.512     c-0.309,0.614-1.183,0.579-1.441-0.059c-1.979-4.881-5.383-8.672-9.988-11.294C285.774,423.7,285.79,422.918,286.341,422.627z"/>
		</g>
	</g>
</g>















</svg>
