<?xml version="1.0" encoding="UTF-8"?>
<!-- Generator: Adobe Illustrator 25.2.1, SVG Export Plug-In . SVG Version: 6.00 Build 0)  -->
<svg xmlns="http://www.w3.org/2000/svg" xmlns:xlink="http://www.w3.org/1999/xlink" version="1.1" id="Capa_1" x="0px" y="0px" viewBox="0 0 512 512" style="enable-background:new 0 0 512 512;" xml:space="preserve" width="512" height="512">
<g>
	<path style="fill:#FFFFFF;" d="M50.138,454.333c-9.627,0-17.652-3.193-23.205-9.233c-0.323-0.349-0.635-0.708-0.937-1.077   c-0.586,0.041-1.17,0.061-1.756,0.061c-11.681,0-21.688-7.69-23.796-18.286c-1.892-9.504,2.263-18.433,12.35-26.538   c4.794-3.864,9.599-7.734,14.416-11.608c-1.094-7.751-2.019-14.981-2.805-21.916l-0.691-6.587   c-0.058-0.516-0.109-1.013-0.146-1.521c-0.614-6.106-1.121-12.095-1.516-17.898h-0.158l-0.354-8.663   c-0.01-0.201-0.02-0.401-0.03-0.602c-0.054-0.751-0.085-1.492-0.093-2.247c-0.044-0.948-0.086-1.897-0.125-2.846l-0.268-6.569   l0.061-0.061c-0.008-0.304-0.015-0.603-0.021-0.899l-0.203-0.03l0.136-13.058c0.19-18.298,1.666-35.036,4.513-51.169   c0.035-0.2,0.145-0.775,0.145-0.775c0.79-4.463,1.694-8.897,2.699-13.231l-0.05-0.108l1.333-5.21   c0.419-1.638,0.856-3.272,1.312-4.904c1.221-4.445,2.45-8.495,3.739-12.314c2.384-7.079,5.096-14,8.062-20.57   c0.226-0.556,0.473-1.102,0.747-1.65c0.244-0.551,0.491-1.101,0.754-1.651c2.325-4.973,4.671-9.56,7.172-14.02   c0.615-1.111,1.279-2.287,1.953-3.455l1.999-3.468l0.083-0.048c3.616-6.023,7.531-11.926,11.685-17.617l0.015-0.087l2.153-2.855   c10.079-13.37,21.612-25.703,34.277-36.658c4.476-3.867,9.255-7.69,14.213-11.372c0.657-0.485,1.28-0.93,1.906-1.375l0.689-0.492   c11.969-8.589,24.611-15.967,37.578-21.931c0.394-0.201,0.717-0.35,0.927-0.445l0.129-0.065l0.283-0.127   c6.502-2.922,13.101-5.557,19.615-7.83c2.86-0.995,5.803-1.95,8.995-2.917c0.209-0.072,0.42-0.14,0.634-0.204l1.879-0.557   l0.037-0.007c3.333-0.972,6.704-1.875,10.034-2.69c3.081-0.801,6.11-1.466,8.412-1.957l0.298-0.063l0.3-0.051   c0.327-0.056,0.653-0.127,0.983-0.195c0.357-0.074,0.716-0.148,1.079-0.219c3.406-0.678,6.909-1.293,10.356-1.818l0.609-0.096   c1.352-0.202,2.69-0.391,4.03-0.563c11.35-1.541,23.019-2.321,34.685-2.321c5.205,0,10.497,0.156,15.731,0.464   c8.575,0.504,17.187,1.419,25.599,2.718c10.36,1.596,20.544,3.807,30.264,6.57c7.186,2.016,14.273,4.375,21.015,7.001   c0.601,0.221,1.221,0.463,1.82,0.708c12.238,4.873,23.766,10.751,34.334,17.502l7.172,4.787c0.866,0.605,1.696,1.202,2.504,1.8   c3.255,2.362,6.545,4.934,9.782,7.65c0.39,0.312,0.765,0.626,1.16,0.965c2.219,1.875,4.426,3.857,6.56,5.891   c1.415,1.318,2.838,2.692,4.231,4.086c23.126,23.332,41.429,54.962,54.51,94.147c6.837,3.099,12.246,8.463,15.021,15.233   c3.675,8.97,2.447,19.473-3.256,28.34c0.598,2.79,1.172,5.598,1.72,8.412c9.156,4.837,15.424,10.703,19.156,17.92   c6.121,11.835,3.854,26.393-5.388,34.616c-1.897,1.687-3.989,3.072-6.268,4.151c2.374,33.382,1.196,66.893-3.518,99.805   l-1.844,12.873H97.791c-1.978,1.538-3.827,2.93-5.644,4.252c-1.652,1.197-3.822,2.749-6.175,4.289   c-0.469,0.303-2.212,1.413-2.212,1.413l-0.217,0.137c-10.892,6.763-21.043,10.319-31.032,10.873   C51.72,454.311,50.931,454.333,50.138,454.333z"/>
	<g>
		<path style="fill:#FFCBA1;" d="M478.555,418.303H372.14l-18.313-2.235l-13.239,2.235h-82.861l-33.053-8.884l-22.092,8.884H47.157    c-3.008-17.98-5.79-36.095-7.848-54.255c-0.226-2.171-0.452-4.32-0.678-6.468c-0.045-0.407-0.091-0.792-0.113-1.199    c-0.905-8.956-1.606-17.912-2.035-26.845c-0.045-0.566-0.068-1.131-0.068-1.719c-0.049-1.018-0.094-2.036-0.136-3.055    c0,0,11.297-11.229,11.28-14.92c-0.037-2.913-11.563-4.93-11.563-4.93c0.171-16.436,1.461-32.708,4.286-48.719    c0.046-0.262,0.092-0.481,0.138-0.744c0,0,4.905-6.259,5.564-9.304c0.598-2.762-1.817-8.165-1.817-8.165    c0.391-1.531,0.8-3.059,1.226-4.584c1.063-3.867,2.216-7.735,3.505-11.557c2.239-6.649,4.795-13.185,7.667-19.517    c0.136-0.362,0.294-0.701,0.475-1.041c0.249-0.565,0.497-1.131,0.769-1.696c2.081-4.455,4.297-8.82,6.694-13.095    c0.612-1.106,1.234-2.206,1.864-3.299c0,0,8.398-4.848,10.943-8.681c2.441-3.676,3.975-13.857,3.975-13.857    c9.517-12.623,20.319-24.142,32.113-34.343c0,0,7.999-2.143,10.376-4.033c2.081-1.655,2.967-6.641,2.967-6.641    c0.795-0.587,1.593-1.146,2.395-1.721c11.221-8.052,49.254-14.804,55.473-16.975c2.972-1.034,5.217-13.452,8.217-14.354    c0.371-0.112,0.742-0.222,1.114-0.332c0,0,15.093-2.562,17.739-3.127c0.792-0.136,12.51-3.649,12.51-3.649    c0.193-0.029,0.389-0.062,0.581-0.091c1.259-0.189,2.494-0.362,3.765-0.526c0,0,12.16,2.483,18.813,2.138    c9.214-0.479,28.757-3.892,28.757-3.892c8.094,0.476,16.178,1.331,24.19,2.568c9.544,1.47,19.065,3.505,28.451,6.174    c6.694,1.877,13.321,4.071,19.811,6.604c0.498,0.181,1.018,0.384,1.516,0.588c12.393,4.93,24.335,11.082,35.462,18.59    c0.022,0,0.045,0,0.068,0.045c0.52,0.317,1.018,0.679,1.515,1.018c1.267,0.859,2.488,1.719,3.709,2.623    c3.121,2.262,6.174,4.659,9.159,7.169c0.317,0.249,0.611,0.498,0.927,0.769c2.035,1.719,4.026,3.506,5.993,5.383    c1.312,1.221,2.623,2.487,3.913,3.777c30.373,30.644,48.375,73.366,59.14,116.879c2.759,11.149,5.089,22.412,6.966,33.765v0.023    c0.701,4.229,1.357,8.458,1.922,12.71C484.616,333.652,484.548,376.464,478.555,418.303z"/>
		<g>
			<path style="fill:#393528;" d="M476.927,279.08c-7.056,5.541-14.723,10.539-22.232,15.469     c-17.98,11.76-36.547,23.927-47.561,43.286c-2.374,4.139-4.275,8.459-6.129,12.643c-2.081,4.727-4.071,9.205-6.604,13.298     c-7.011,11.376-17.957,19.472-29.559,28.066c-5.224,3.89-10.607,7.871-15.672,12.235c-31.956-21.033-61.312-45.729-87.727-73.795     c-10.742-11.421-20.897-23.905-22.412-37.814c-0.747-6.716,0.497-13.818,1.809-21.327c1.651-9.453,3.347-19.223,1.402-29.468     c-3.144-16.578-14.904-29.129-24.357-39.193c-28.293-30.124-57.422-61.153-91.142-86.845c-4.568,3.392-9.024,6.943-13.343,10.675     c34.06,25.33,63.664,56.879,92.408,87.501c10.177,10.81,18.116,19.97,20.196,30.961c1.38,7.26,0,15.153-1.47,23.52     c-1.447,8.323-2.94,16.939-1.968,25.963c2.058,18.771,14.112,33.856,26.823,47.357c27.478,29.197,58.032,54.844,91.278,76.69     h31.458c-4.388-2.533-8.707-5.156-13.004-7.825c4.026-3.324,8.3-6.468,12.461-9.544c11.941-8.843,24.29-18.002,32.454-31.21     c2.94-4.772,5.156-9.815,7.305-14.678c1.809-4.093,3.528-7.961,5.609-11.625c9.657-16.962,26.325-27.863,43.943-39.42     c5.993-3.935,12.077-7.915,17.957-12.212C478.283,287.538,477.628,283.309,476.927,279.08z"/>
			<g>
				<path style="fill:#222A30;" d="M327.529,389.622c-2.138-6.447-4.934-11.22-8.547-14.592c-4.555-4.252-10.595-6.122-15.858-4.945      c-0.287-0.155-0.614-0.184-0.914-0.075l-27.398-12.744c-2.698-1.255-5.03-2.462-6.243-4.525      c-0.931-1.586-1.12-3.615-1.234-5.558c-0.34-5.807-0.231-11.687,0.323-17.477c0.06-0.622-0.396-1.174-1.018-1.233      c-0.621-0.064-1.173,0.396-1.233,1.018c-0.566,5.904-0.677,11.901-0.33,17.824c0.129,2.218,0.355,4.553,1.542,6.572      c1.668,2.838,4.757,4.275,7.239,5.43l24.985,11.622c-3.47,0.54-6.838,1.869-9.665,3.905c-4.139,2.982-7.247,7.524-8.527,12.462      c-0.156,0.605,0.207,1.222,0.811,1.379c0.095,0.024,0.191,0.036,0.285,0.036c0.503,0,0.962-0.338,1.094-0.847      c1.149-4.436,3.941-8.516,7.659-11.195c3.551-2.557,8.04-3.888,12.421-3.735c6.432,6.349,11.015,14.61,12.963,23.431      c0.117,0.528,0.584,0.887,1.103,0.887c0.08,0,0.163-0.009,0.245-0.027c0.61-0.135,0.995-0.738,0.86-1.348      c-1.97-8.919-6.514-17.29-12.884-23.843c4.144-0.359,8.677,1.325,12.23,4.64c3.33,3.107,5.928,7.573,7.944,13.651      c0.157,0.475,0.599,0.775,1.073,0.775c0.118,0,0.238-0.019,0.356-0.058C327.405,390.855,327.726,390.215,327.529,389.622z"/>
				<g>
					<path style="fill:#F9EFD2;" d="M396.911,203.339c-0.023,3.845-0.181,7.803-0.497,11.851v0.068       c-1.538,19.585-6.785,41.116-19.45,60.656c-35.416,54.663-64.862,70.064-128.006,77.753       c-27.433,3.347-54.866-2.759-77.143-10.743c-0.905-0.316-1.809-0.633-2.714-0.972c-27.478-10.222-46.408-22.91-46.408-22.91       s8.865-22.435,25.624-50.139c0-0.023,0.023-0.023,0.045-0.045c14.248-23.543,34.195-50.886,59.253-71.398       c7.441-6.129,15.311-11.624,23.634-16.238c0,0,2.691-4.026,7.486-10.155c7.938-10.154,21.643-26.121,38.537-39.374       c17.618-13.818,38.696-24.651,60.226-22.842c54.663,4.614,52.356,42.337,52.356,42.337s0.294,0.927,0.769,2.646       c1.312,4.794,4.003,15.786,5.382,30.147C396.595,189.928,396.957,196.441,396.911,203.339z"/>
					<path style="fill:#FFF2E8;" d="M396.911,203.339c-0.023,3.845-0.181,7.803-0.497,11.851v0.068       c-1.538,19.585-6.785,41.116-19.45,60.656c-35.416,54.663-64.862,70.064-128.006,77.753       c-27.433,3.347-54.866-2.759-77.143-10.743c0.701-8.164,6.378-15.447,12.054-21.598       c37.022-40.098,86.347-66.762,137.685-85.737c5.654-6.626,11.941-12.574,19.585-16.691c4.229-2.284,9.091-3.958,13.841-3.144       c4.749,0.837,9.182,4.84,9.114,9.68c5.315-6.83,11.489-13.841,18.93-18.206C387.187,204.786,392.117,203.316,396.911,203.339z"/>
					<g>
						<path style="opacity:0.9;fill:#222A30;" d="M390.624,153.833c-7.961,5.676-19.834,4.907-25.986-2.691        c0,8.187-7.825,14.994-15.989,15.492c-8.165,0.52-15.537-2.759-20.694-9.114c-5.857,6.423-15.831,8.029-24.086,5.292        c-8.255-2.714-14.904-9.16-19.54-16.51c-2.895-4.591-5.111-9.544-7.056-14.61c17.618-13.818,38.696-24.651,60.226-22.842        c54.663,4.614,53.029,42.053,53.029,42.053S390.625,152.058,390.624,153.833z"/>
						<path style="fill:#222A30;" d="M357.808,149.268c0,4.73-3.835,8.565-8.565,8.565c-4.731,0-8.565-3.835-8.565-8.565        c0-4.73,3.835-8.565,8.565-8.565C353.973,140.702,357.808,144.537,357.808,149.268z"/>
						<path style="fill:#FFB329;" d="M366.969,161.41c4.085-7.01,11.838-11.554,19.736-11.565        c8.623-0.012,14.056,11.549,16.239,20.201c-6.033,3.182-12.636,4.989-19.225,3.386        C377.13,171.828,371.007,167.043,366.969,161.41z"/>
					</g>
					<path style="fill:#222A30;" d="M340.874,188.99c-1.4,0-2.8-0.328-4.038-0.988c-1.097-0.585-4.333-2.515-5.357-5.382       c-2.259,1.688-4.905,2.633-7.475,2.562c-3.396-0.063-6.558-1.888-8.056-4.651c-1.654-3.05-1.042-6.982,1.426-9.146       c0.352-0.309,0.888-0.273,1.197,0.079s0.273,0.888-0.079,1.197c-1.856,1.627-2.319,4.729-1.053,7.061       c1.212,2.235,3.801,3.712,6.596,3.764c2.563,0.055,5.26-1.061,7.41-3.041c0.242-0.222,0.591-0.284,0.894-0.161       c0.304,0.124,0.509,0.413,0.527,0.741c0.118,2.23,2.54,4.293,4.767,5.48c2.091,1.114,4.757,1.05,6.792-0.166       c0.403-0.24,0.923-0.108,1.163,0.293c0.24,0.402,0.109,0.923-0.293,1.163C343.966,188.59,342.42,188.99,340.874,188.99z"/>
					<g>
						<g>
							<g>
								<path style="fill:#59827A;" d="M169.306,335.122c-25.918,32.68-52.265,65.767-85.985,90.305          c-1.809,1.312-3.664,2.623-5.564,3.867c-0.701,0.452-1.425,0.905-2.126,1.357c-7.395,4.591-15.379,8.164-23.95,8.639          c-4.953,0.271-10.358-0.701-13.705-4.342c-2.194-2.375-3.37-6.197-2.714-9.227c0.226-0.973,0.633-1.877,1.244-2.601          c-0.724,0.633-1.47,1.221-2.216,1.786c-2.465,1.855-5.134,3.415-8.142,4.003c-4.546,0.859-10.087-1.493-10.991-6.039          c-0.95-4.772,3.234-8.866,7.034-11.919c6.287-5.066,12.574-10.132,18.884-15.198c0.588-0.475,1.176-0.973,1.786-1.447          c28.994-23.362,58.032-46.725,87.049-70.087c-0.882-0.068-0.701-0.52-1.583-0.588          C142.461,323.181,157.613,327.184,169.306,335.122z"/>
							</g>
							<path style="fill:#222A30;" d="M35.124,425.74c-0.214,0-0.426-0.08-0.592-0.241c-0.336-0.327-0.342-0.864-0.015-1.199         c28.921-29.702,58.119-56.555,94.673-87.068c0.358-0.298,0.895-0.253,1.195,0.108c0.301,0.359,0.252,0.895-0.108,1.195         c-36.508,30.473-65.665,57.289-94.545,86.949C35.566,425.654,35.345,425.74,35.124,425.74z"/>
							<path style="fill:#222A30;" d="M77.757,429.294c-0.701,0.452-1.425,0.905-2.126,1.357c-3.257-0.656-6.401-1.922-9.205-3.754         c-6.694-4.433-11.24-12.258-11.873-20.264v-0.023c-0.023-0.045-0.023-0.091-0.023-0.136c-0.905,0.317-1.855,0.498-2.804,0.52         c-2.171,0.045-4.365-0.611-6.174-1.968c-2.737-2.035-4.455-5.564-4.478-9.205v-0.068c0.588-0.475,1.176-0.973,1.786-1.447         c-0.068,0.497-0.09,0.995-0.09,1.492c0.023,2.058,0.633,4.048,1.741,5.676c0.226,0.384,0.52,0.747,0.814,1.063         c0.362,0.43,0.792,0.792,1.221,1.131c2.126,1.583,4.998,2.013,7.35,1.198h0.023c0.362-0.113,0.678-0.249,0.995-0.43         c0.249-0.136,0.566-0.136,0.814,0.023c0.226,0.136,0.384,0.362,0.407,0.588v0.023c0.023,0.045,0.023,0.068,0.023,0.113         c0.068,3.438,0.95,6.875,2.443,10.019c0.248,0.543,0.52,1.063,0.836,1.583c1.923,3.505,4.659,6.513,7.938,8.684         c0.724,0.475,1.47,0.927,2.261,1.289c0.52,0.294,1.063,0.543,1.629,0.769C73.324,428.412,75.518,429,77.757,429.294z"/>
							<path style="fill:#222A30;" d="M45.312,402.529c-0.247,0-0.493-0.108-0.66-0.316c-0.294-0.365-0.236-0.899,0.128-1.193         c28.952-23.333,58.249-47.219,87.078-70.993c0.358-0.298,0.892-0.248,1.193,0.114c0.298,0.362,0.247,0.897-0.115,1.195         c-28.831,23.779-58.134,47.668-87.091,71.005C45.688,402.467,45.5,402.529,45.312,402.529z"/>
							<path style="fill:#222A30;" d="M58.798,417.079c-0.207,0-0.415-0.077-0.579-0.229c-0.342-0.32-0.36-0.857-0.04-1.199         c27.026-28.897,56.246-56.403,89.333-84.088c0.355-0.3,0.894-0.252,1.192,0.106c0.302,0.359,0.254,0.895-0.106,1.195         c-33.031,27.642-62.202,55.101-89.182,83.947C59.251,416.989,59.026,417.079,58.798,417.079z"/>
							<path style="fill:#222A30;" d="M69.947,428.511c-0.212,0-0.424-0.08-0.589-0.237c-0.336-0.326-0.347-0.862-0.02-1.199         l89.898-93.131c0.327-0.338,0.861-0.345,1.199-0.022c0.336,0.326,0.347,0.862,0.02,1.199l-89.898,93.13         C70.391,428.424,70.168,428.511,69.947,428.511z"/>
						</g>
						<g>
							<path style="fill:#62857E;" d="M361.292,260.444c-3.37,10.2-11.172,18.5-20.151,24.402         c-8.979,5.903-19.178,9.68-29.31,13.253c-28.858,10.222-58.123,19.291-87.478,27.999c-0.045,0.023-0.09,0.045-0.136,0.045         c-3.347,1.018-6.695,2.013-10.041,2.985c0,0,0,0-0.023,0c-8.345,2.465-16.645,4.907-24.991,7.35         c-3.392,0.972-6.807,1.968-10.222,2.94c-0.023,0-0.023,0-0.023,0c-2.307,0.634-4.591,1.244-6.898,1.809         c-0.022,0-0.022,0-0.022,0c-0.973,0.271-1.922,0.497-2.895,0.724c-5.745,1.38-11.534,2.488-17.392,3.098h-0.023         c-1.38,0.136-2.759,0.249-4.161,0.339c-0.362,0.023-0.746,0.045-1.108,0.068c-4.048,0.226-8.39-0.022-12.393-1.018         c-0.588-0.136-1.131-0.294-1.696-0.497c0,0.023,0,0.023-0.023,0c-2.013-0.611-3.912-1.448-5.586-2.556         c-0.362-0.203-0.724-0.452-1.086-0.746c-0.882-0.633-1.673-1.38-2.397-2.216c-0.249-0.271-0.498-0.565-0.701-0.882         c-0.294-0.339-0.52-0.701-0.747-1.085c-0.271-0.43-0.52-0.859-0.746-1.334c-0.068-0.113-0.113-0.249-0.158-0.362         c-0.317-0.678-0.565-1.334-0.792-2.013c0,0,0,0,0-0.023c-0.181-0.588-0.317-1.176-0.43-1.764         c-0.973-4.682-0.113-9.702,1.583-14.632c-0.023-0.023,0-0.045,0.023-0.068c1.945-5.767,5.043-11.399,7.735-16.193         c0-0.023,0-0.023,0.023-0.045c0.475-0.859,0.927-1.696,1.38-2.488c6.581-11.896,11.766-22.979,19.432-34.129         c3.076-4.478,7.884-11.248,11.163-15.591c7.825-10.448,15.081-20.244,24.06-29.834c13.389-14.339,28.933-27.194,46.189-36.76         c0,0,2.691-4.026,7.486-10.155c3.573-1.809,7.282-3.347,11.195-4.026c5.179-0.927,10.833-0.203,15.017,2.986         c4.161,3.189,6.4,9.114,4.365,13.954c5.292-2.375,11.059-4.456,16.849-5.066c5.79-0.588,12.009,0.701,16.261,4.659         c4.252,3.958,5.925,10.901,2.827,15.831c7.667-7.011,22.412-8.21,30.463-1.628c8.051,6.581,10.267,19.269,4.93,28.179         c7.803-0.271,15.808,4.817,19.427,11.738C363.689,244.591,363.757,253.026,361.292,260.444z"/>
							<g>
								<g>
									<path style="fill:#222A30;" d="M304.7,265.213c-1.716,0-3.398-0.214-5.008-0.651c-6.11-1.659-12.218-6.724-12.729-13.224           c-3.388,3.077-6.663,5.26-9.967,6.65c-4.766,2.004-9.737,2.361-13.999,1.003c-4.869-1.552-8.683-5.489-9.718-10.03           c-0.95-4.172-0.747-7.747,0.707-11.611c-3.377,1.205-7.895,2.105-12.758,1.084c-5.237-1.101-9.689-4.356-11.909-8.707           c-2.128-4.169-1.031-8.638,0.308-13.009c-0.782,0.191-1.586,0.413-2.418,0.644c-3.025,0.837-6.152,1.704-9.125,1.279           c-4.867-0.694-8.799-3.295-10.52-6.957c-1.358-2.891-1.352-6.605,0.016-10.189c1.242-3.253,3.399-6.082,5.323-8.478           c0.293-0.366,0.827-0.424,1.192-0.13s0.424,0.827,0.13,1.192c-1.844,2.296-3.907,4.998-5.061,8.021           c-1.205,3.155-1.229,6.385-0.065,8.862c1.739,3.701,5.904,5.525,9.223,5.999c2.622,0.375,5.576-0.443,8.433-1.234           c1.311-0.363,2.666-0.738,3.954-0.984c0.292-0.054,0.593,0.046,0.792,0.269c0.198,0.223,0.265,0.533,0.177,0.817           l-0.044,0.141c-1.388,4.441-2.822,9.033-0.805,12.985c1.989,3.899,6.007,6.822,10.747,7.819           c4.219,0.887,9.062,0.271,13.637-1.736c0.322-0.141,0.7-0.069,0.948,0.184c0.247,0.253,0.311,0.632,0.161,0.952           c-1.987,4.253-2.403,7.964-1.391,12.411c0.903,3.967,4.271,7.418,8.578,8.79c3.878,1.235,8.433,0.898,12.827-0.95           c3.578-1.505,7.145-4.016,10.905-7.679c0.256-0.249,0.642-0.312,0.962-0.155c0.321,0.156,0.511,0.497,0.473,0.852           c-0.691,6.55,5.387,11.836,11.458,13.484c5.891,1.599,12.875-0.078,18.684-4.486c0.372-0.283,0.905-0.21,1.188,0.163           c0.283,0.373,0.21,0.905-0.163,1.188C315.188,263.324,309.797,265.212,304.7,265.213z"/>
									<g>
										<path style="fill:#222A30;" d="M229.215,230.795c-37.542,25.285-71.715,58.869-107.425,105.661            c-0.271-0.43-0.52-0.859-0.746-1.334c-0.068-0.113-0.113-0.249-0.158-0.362c35.688-46.611,69.838-80.128,107.358-105.39            c0.407-0.249,0.927-0.158,1.198,0.249C229.713,230.003,229.599,230.546,229.215,230.795z"/>
										<path style="fill:#222A30;" d="M233.58,234.459c-34.67,33.991-71.783,68.955-110.343,103.965            c-0.249-0.271-0.498-0.565-0.701-0.882c38.515-35.009,75.605-69.95,110.252-103.897L233.58,234.459z"/>
										<path style="fill:#222A30;" d="M254.771,237.285c-25.33,22.842-64.116,56.789-104.983,88.858            c-6.468,5.066-14.316,11.195-23.068,15.243c-0.362-0.203-0.724-0.452-1.086-0.746c8.888-4.003,16.871-10.245,23.43-15.402            c40.867-32.047,79.608-65.97,104.938-88.812L254.771,237.285z"/>
										<path style="fill:#222A30;" d="M259.045,258.318c-36.932,35.439-78.929,64.387-125.021,86.121            c-0.588-0.136-1.131-0.294-1.696-0.497c46.453-21.711,88.767-50.795,125.925-86.461L259.045,258.318z"/>
										<path style="fill:#222A30;" d="M287.134,251.669c-18.568,19.54-43.219,39.917-71.308,58.959            c-22.232,15.085-43.355,26.438-64.116,34.422c-0.023,0.023-0.023,0-0.023,0c-1.38,0.136-2.759,0.249-4.161,0.339            c21.892-8.006,44.169-19.766,67.667-35.71c28.021-18.997,52.604-39.329,71.127-58.801L287.134,251.669z"/>
										<path style="fill:#222A30;" d="M303.983,264.538c-39.6,30.147-82.277,55.658-125.043,74.881c-0.023,0-0.023,0-0.023,0            c-2.307,0.634-4.591,1.244-6.898,1.809c44.825-19.495,89.763-46.023,131.262-77.595L303.983,264.538z"/>
										<path style="fill:#222A30;" d="M333.655,270.576c-33.788,20.4-69.34,38.47-109.303,55.522            c-0.045,0.023-0.09,0.045-0.136,0.045c-3.347,1.018-6.695,2.013-10.041,2.985c43.92-18.206,82.435-37.542,118.892-59.525            L333.655,270.576z"/>
										<path style="fill:#222A30;" d="M229.667,216.728c-21.123,16.08-45.345,35.122-64.84,54.482            c-20.354,20.219-35.055,40.392-44.734,61.515c-0.181-0.588-0.317-1.176-0.43-1.764            c9.747-20.784,24.312-40.641,44.35-60.543c19.563-19.427,43.807-38.515,64.953-54.617L229.667,216.728z"/>
										<path style="fill:#222A30;" d="M215.284,218.062c-26.506,18.567-45.254,34.286-60.746,50.931            c-14.112,15.13-25.262,30.961-33.268,47.267c1.945-5.767,5.043-11.399,7.735-16.193c0-0.023,0-0.023,0.023-0.045            c6.807-10.878,15.062-21.485,24.651-31.798c15.582-16.713,34.376-32.477,60.949-51.112L215.284,218.062z"/>
										<path style="fill:#222A30;" d="M207.798,210.282c-20.286,13.253-39.668,31.527-56.087,52.649            c3.076-4.478,6.219-8.888,9.499-13.23c14.044-15.921,29.717-29.762,45.955-40.392L207.798,210.282z"/>
									</g>
								</g>
								<path style="fill:#222A30;" d="M318.447,238.597c-2.455,0-4.894-0.824-6.833-2.36c-2.281-1.807-3.706-3.802-4.255-5.948          c-3.518,3.476-8.776,5.055-13.634,3.968c-5.277-1.18-9.334-6.533-10.819-11.413c-4.739,3.006-12.051,3.335-15.755-0.859          c-3.948-4.47-3.686-12.064,0.56-16.252c0.334-0.328,0.87-0.325,1.199,0.008c0.329,0.333,0.325,0.87-0.008,1.199          c-3.637,3.587-3.861,10.093-0.48,13.921c3.379,3.824,10.425,3.111,14.468-0.082c0.23-0.181,0.537-0.231,0.811-0.133          c0.275,0.098,0.481,0.331,0.543,0.617c1.032,4.721,4.999,10.253,9.851,11.338c4.779,1.068,10.2-0.896,13.184-4.778          c0.22-0.287,0.597-0.402,0.94-0.288c0.343,0.114,0.576,0.433,0.581,0.794c0.032,2.356,1.333,4.569,3.868,6.578          c2.124,1.683,5.086,2.363,7.734,1.782c0.456-0.102,0.91,0.188,1.011,0.645c0.101,0.458-0.188,0.91-0.645,1.011          C320.004,238.514,319.225,238.597,318.447,238.597z"/>
							</g>
						</g>
					</g>
				</g>
			</g>
		</g>
		<g>
			<path style="fill:#393528;" d="M371.441,394.43l-2.193-0.552c1.685-6.696,3.226-13.562,4.716-20.201     c3.28-14.616,6.672-29.729,11.833-44.083c8.822-24.534,21.609-42.653,38.005-53.854l1.276,1.868     c-15.995,10.927-28.495,28.675-37.153,52.751c-5.114,14.221-8.49,29.265-11.755,43.813     C374.677,380.825,373.133,387.705,371.441,394.43z"/>
			<g>
				<path style="fill:#FFB329;" d="M402.783,269.325c-13.338-14.722-21.227-34.273-21.841-54.129      c-0.096-3.118-0.002-6.33,1.207-9.205c1.209-2.876,3.754-5.372,6.855-5.706c3.999-0.432,7.468,2.661,9.996,5.789      c13.03,16.125,16.184,37.833,18.864,58.39c7.517-12.19,14.84-23.773,26.023-32.721c5.031-4.025,10.951-7.348,17.384-7.709      c6.433-0.361,13.366,2.879,15.808,8.841c2.023,4.937,0.636,10.776-2.407,15.158c-3.043,4.382-7.529,7.538-12.106,10.28      c-9.422,5.645-19.653,9.938-30.282,12.708c16.431-4.431,34.695-1.845,49.795,6.004c5.301,2.756,10.432,6.418,13.176,11.725      c2.744,5.307,2.429,12.547-2.034,16.518c-4.443,3.953-11.185,3.553-17.02,2.408c-15.839-3.11-32.786-7.986-45.438-18.008      c2.665,11.987,6.634,21.573,7.285,33.835c0.651,12.262-0.683,24.813-5.548,36.088c-2.172,5.033-5.942,10.354-11.42,10.575      c-5.737,0.232-9.967-5.217-12.548-10.347c-9.759-19.397-9.901-45.558-2.013-65.789c-8.069,18.133-17.325,39.319-31.074,53.633      c-4.207,4.38-10.327,8.585-15.919,6.217c-5.551-2.351-6.831-9.666-6.225-15.664c1.491-14.758,9.33-28.049,17.559-40.39      c3.738-5.606,7.891-11.385,14.023-14.176c-13.539,1.962-27.298,3.134-40.545-0.282c-3.846-0.992-7.642-2.465-10.739-4.952      c-3.096-2.487-5.44-6.096-5.763-10.055c-0.585-7.165,5.429-13.327,11.981-16.286c10.344-4.673,22.528-3.867,33.214-0.041      C383.715,255.858,393.735,262.471,402.783,269.325z"/>
				<path style="fill:#FFF2E8;" d="M417.641,271.179c7.305,4.477,10.332,13.654,8.421,16.773c-1.911,3.119-9.383,2.019-16.688-2.458      c-7.305-4.477-11.678-10.634-9.767-13.753C401.518,268.622,410.335,266.703,417.641,271.179z"/>
			</g>
			<g>
				<path style="fill:#8FD971;" d="M477.97,361.933c-2.79,7.944-7.328,15.05-13.354,21.004c-0.386,0.406-0.8,0.784-1.214,1.161      c-1.796,1.693-3.711,3.287-5.764,4.779c-6.642,4.827-14.015,8.471-21.775,11.16c-0.655,0.239-1.287,0.467-1.976,0.694      c-0.017-0.006-0.035-0.012-0.035-0.012c-6.404,2.074-13.024,3.54-19.694,4.529c-15.344,2.241-30.915,2.032-46.401,1.794      c-0.149-0.012-0.287-0.001-0.436-0.013c0.209-0.562,0.411-1.163,0.637-1.777l0.006-0.017c1.059-2.975,2.384-6.396,4.078-8.754      c5.164-7.202,11.243-13.712,17.985-19.406c0.564-0.48,1.128-0.961,1.72-1.412c8.704-7.082,18.504-12.875,28.909-17.163      c0.603-0.256,1.224-0.507,1.838-0.74c9.893-3.905,20.309-6.466,30.881-7.5c0.741-0.095,1.487-0.15,2.233-0.205      c4.706-0.387,9.44-0.458,14.15-0.231c4.194,0.225,7.449,3.122,8.419,6.78c0.125,0.425,0.204,0.873,0.242,1.326      C478.575,359.227,478.445,360.58,477.97,361.933z"/>
				<path style="fill:#393528;" d="M478.418,357.929c-0.039-0.453-0.117-0.901-0.243-1.326c-11.489,2.62-22.86,5.913-34.038,9.825      c2.441-6.281,6.412-11.931,11.469-16.374c-0.746,0.055-1.492,0.11-2.233,0.205c-4.857,4.644-8.651,10.393-10.92,16.731      l0.052,0.017c-8.99,3.214-17.843,6.818-26.502,10.813c1.238-6.973,3.411-13.708,6.489-20.061      c-0.615,0.233-1.235,0.484-1.838,0.74c-2.952,6.377-5.004,13.095-6.174,20.034c-7.993,3.722-15.814,7.788-23.471,12.159      c-0.77-4.988-0.507-10.146,0.736-15.03c-0.592,0.451-1.156,0.932-1.72,1.412c-0.973,4.708-1.092,9.607-0.274,14.343      c-7.444,4.309-14.722,8.922-21.789,13.817l-0.006,0.017c-0.226,0.613-0.428,1.215-0.637,1.777      c0.149,0.012,0.287,0.001,0.436,0.013c13.312-9.339,27.413-17.609,42.061-24.775c6.114,8.167,14.568,14.556,24.034,18.453      c0,0,0.017,0.006,0.035,0.012c0.689-0.227,1.321-0.455,1.976-0.694c-9.742-3.703-18.513-10.065-24.787-18.381      c7.022-3.398,14.17-6.543,21.42-9.423c5.801,3.467,12.196,6.367,18.798,8.591c3.989,1.344,8.042,2.441,12.108,3.274      c0.414-0.378,0.829-0.755,1.214-1.161c-10.614-2.024-21.291-5.965-30.512-11.33      C448.523,365.972,463.352,361.393,478.418,357.929z"/>
			</g>
		</g>
		<g>
			<path style="fill:#FFFFFF;" d="M439.686,189.54c0-0.505-0.409-0.914-0.914-0.914h-10.129c2.705-2.514,5.608-5.047,8.587-7.38     c0.397-0.311,0.467-0.885,0.156-1.282c-0.312-0.398-0.886-0.468-1.282-0.156c-3.054,2.391-6.026,4.988-8.79,7.56v-13.377     c0-0.505-0.409-0.914-0.914-0.914c-0.505,0-0.914,0.409-0.914,0.914v14.036c-3.637-3.198-7.353-6.302-11.141-9.281     c-0.396-0.312-0.971-0.243-1.283,0.153c-0.312,0.397-0.243,0.971,0.153,1.283c3.457,2.719,6.855,5.541,10.186,8.444H410.23     c-0.505,0-0.914,0.409-0.914,0.914c0,0.505,0.409,0.914,0.914,0.914h13.849c-3.998,3.908-7.357,7.53-9.555,9.983     c-0.337,0.376-0.305,0.954,0.071,1.29c0.175,0.156,0.392,0.233,0.609,0.233c0.251,0,0.5-0.103,0.681-0.304     c2.202-2.459,5.582-6.102,9.601-10.024v12.213c0,0.505,0.409,0.914,0.914,0.914c0.505,0,0.914-0.409,0.914-0.914v-11.737     c3.579,3.246,7.073,6.583,10.451,10.005c0.179,0.181,0.414,0.272,0.65,0.272c0.232,0,0.464-0.088,0.642-0.264     c0.359-0.354,0.363-0.933,0.008-1.292c-3.506-3.551-7.136-7.013-10.856-10.376h10.563     C439.277,190.453,439.686,190.044,439.686,189.54z"/>
			<path style="fill:#FFFFFF;" d="M291.094,99.461c0-0.505-0.409-0.914-0.914-0.914h-10.128c2.705-2.513,5.608-5.047,8.587-7.38     c0.397-0.311,0.467-0.885,0.156-1.282c-0.312-0.399-0.886-0.467-1.282-0.156c-3.054,2.391-6.026,4.988-8.79,7.56V83.912     c0-0.505-0.409-0.914-0.914-0.914c-0.505,0-0.914,0.409-0.914,0.914v14.036c-3.637-3.199-7.354-6.302-11.141-9.28     c-0.396-0.312-0.971-0.244-1.283,0.153c-0.312,0.397-0.243,0.971,0.153,1.283c3.456,2.718,6.854,5.54,10.186,8.444h-13.172     c-0.505,0-0.914,0.409-0.914,0.914s0.409,0.914,0.914,0.914h13.849c-3.999,3.909-7.358,7.53-9.555,9.983     c-0.337,0.376-0.305,0.954,0.071,1.29c0.175,0.156,0.392,0.233,0.609,0.233c0.251,0,0.5-0.103,0.681-0.304     c2.202-2.459,5.582-6.102,9.601-10.024v12.213c0,0.505,0.409,0.914,0.914,0.914c0.505,0,0.914-0.409,0.914-0.914v-11.736     c3.578,3.246,7.072,6.583,10.451,10.005c0.179,0.181,0.414,0.272,0.65,0.272c0.232,0,0.464-0.088,0.642-0.264     c0.359-0.354,0.362-0.933,0.008-1.292c-3.507-3.552-7.136-7.013-10.856-10.376h10.562     C290.685,100.375,291.094,99.965,291.094,99.461z"/>
			<path style="fill:#FFFFFF;" d="M168.714,390.483c0-0.523-0.424-0.948-0.948-0.948h-10.042c2.686-2.493,5.566-5.004,8.522-7.319     c0.412-0.323,0.485-0.918,0.162-1.33c-0.324-0.413-0.919-0.485-1.33-0.162c-3.034,2.376-5.986,4.954-8.735,7.508v-13.298     c0-0.523-0.424-0.948-0.948-0.948s-0.948,0.424-0.948,0.948v13.961c-3.619-3.181-7.317-6.268-11.085-9.232     c-0.411-0.324-1.007-0.252-1.331,0.159c-0.324,0.412-0.252,1.007,0.159,1.331c3.432,2.7,6.807,5.501,10.116,8.383h-13.082     c-0.523,0-0.948,0.424-0.948,0.948s0.424,0.948,0.948,0.948h13.765c-3.973,3.887-7.31,7.485-9.496,9.926     c-0.349,0.39-0.316,0.989,0.074,1.338c0.181,0.162,0.407,0.242,0.632,0.242c0.26,0,0.519-0.106,0.707-0.315     c2.191-2.446,5.548-6.066,9.542-9.966v12.132c0,0.523,0.424,0.948,0.948,0.948s0.948-0.424,0.948-0.948v-11.659     c3.559,3.23,7.033,6.549,10.393,9.952c0.186,0.188,0.43,0.282,0.674,0.282c0.241,0,0.481-0.091,0.666-0.273     c0.372-0.368,0.376-0.968,0.008-1.34c-3.486-3.531-7.094-6.973-10.792-10.318h10.474     C168.29,391.431,168.714,391.007,168.714,390.483z"/>
		</g>
		<g>
			<path style="fill:#FFB329;" d="M137.672,118.169c11.81,3.363,24.428,3.059,36.503,0.826c12.075-2.234,21.066-7.411,32.606-11.607     c-8.298,13.844-10.938,31.28-11.97,47.388c-0.38,5.934,0.098,12.672,4.593,16.565c4.516,3.912,11.736,3.286,16.642-0.123     c4.907-3.409,7.873-8.97,9.919-14.584c5.826-15.989,6.025-34.435-0.498-50.153c4.124,10.18,9.706,19.769,16.524,28.38     c3.311,4.183,7.022,8.222,11.761,10.672c4.739,2.449,10.71,3.069,15.343,0.423c5.595-3.194,7.91-10.489,6.719-16.82     c-1.192-6.332-5.253-11.772-9.896-16.238c-10.321-9.929-22.755-15.69-35.817-21.564c15.989-4.245,32.654-8.9,46.005-18.228     c-15.867-0.933-31.817-0.387-47.57,1.754c-1.257,0.162-2.512,0.339-3.765,0.526c-0.484,0.539-0.976,1.071-1.445,1.623     c0.29-0.508,0.577-1.019,0.865-1.532c-3.264,0.497-6.516,1.069-9.744,1.712c-0.814,0.158-1.606,0.339-2.397,0.475     c-2.646,0.565-5.27,1.153-7.87,1.832c-3.468,0.847-6.913,1.777-10.338,2.789c1.845,0.551,3.676,1.096,5.473,1.629     c-2.142-0.528-4.343-0.943-6.571-1.291c-2.971,0.895-5.93,1.842-8.873,2.866c-6.219,2.171-12.371,4.636-18.409,7.35     c-0.272,0.136-0.565,0.249-0.837,0.407c-12.372,5.658-24.263,12.613-35.487,20.668     C131.478,115.939,134.654,117.309,137.672,118.169z"/>
			<path style="fill:#FFF2E8;" d="M210.341,82.695c6.814-5.193,16.465-4.698,18.683-1.789c2.217,2.909-1.509,9.478-8.324,14.672     c-6.814,5.193-14.136,7.045-16.354,4.135C202.129,96.803,203.527,87.888,210.341,82.695z"/>
		</g>
		<g>
			<path style="fill:#393528;" d="M35.99,308.164c-0.002,1.418,0,2.837,0.014,4.257c18.586-30.439,45.252-55.607,77.018-72.272     l-1.051-2.002C80.919,254.438,54.684,278.76,35.99,308.164z"/>
			<g>
				<g>
					<path style="fill:#FFF2E8;" d="M56.056,258.951c19.602-3.113,39.769-14.418,57.148-24.005       c-18.5,11.369-34.178,32.312-38.105,53.668c-1.039,5.647-0.955,12.545,3.759,15.823c4.501,3.129,10.719,1.164,15.488-1.538       c10.684-6.053,19.323-15.255,26.206-25.424c6.883-10.169,9.504-20.208,14.615-31.373c4.038,15.628,14.606,29.744,25.357,41.784       c3.961,4.435,9.096,8.823,15.023,8.354c5.956-0.472,10.577-6.054,11.592-11.942c1.015-5.888-0.865-11.904-3.428-17.301       c-7.301-15.372-20.302-28.458-36.077-34.843c10.146,4.207,20.895,6.959,31.814,8.146c5.304,0.577,10.786,0.768,15.857-0.889       c5.071-1.657,9.702-5.476,11.069-10.633c1.651-6.228-1.921-12.996-7.268-16.591c-5.347-3.595-12.073-4.519-18.513-4.346       c-14.317,0.384-27.147,5.198-40.498,10.381c10.272-18.008,20.86-37.219,20.204-57.94c-0.127-4.02-1.027-8.58-4.475-10.649       c-2.675-1.605-6.21-1.151-8.91,0.412c-2.7,1.563-4.713,4.067-6.518,6.611c-11.496,16.202-17.007,36.551-15.259,56.339       c-3.076-10.925-7.073-22.246-13.284-31.747c-6.21-9.5-15.438-17.497-26.505-20.015c-1.31-0.298-2.673-0.495-4.048-0.58       c-5.421,7.19-10.425,14.736-14.957,22.603c1.035,2.001,2.32,3.887,3.722,5.655c8.5,10.72,20.177,18.09,32.156,24.698       c-6.574-1.476-13.373,0.625-19.737,2.838c-13.974,4.861-28.207,10.71-38.3,21.524c-1.48,5.786-2.723,11.612-3.762,17.477       C43.816,259.598,50.533,259.828,56.056,258.951z"/>
					<path style="fill:#FFB329;" d="M135.864,223.442c3.122,7.979-0.004,17.123-3.411,18.456       c-3.407,1.333-8.699-4.054-11.822-12.033c-3.122-7.979-2.892-15.528,0.515-16.86       C124.553,211.671,132.742,215.463,135.864,223.442z"/>
				</g>
				<g>
					<path style="fill:#8FD971;" d="M252.172,407.118c-3.495-6.407-7.455-12.585-11.953-18.316c0,0-0.001-0.019-0.001-0.039       c-0.488-0.615-0.956-1.172-1.443-1.748c-5.629-6.879-12.083-13.009-19.467-17.954c-2.281-1.529-4.616-2.879-7.007-4.072       c-0.538-0.28-1.076-0.56-1.633-0.8c-8.298-3.899-17.211-5.855-26.323-5.724c-1.551,0.023-2.975,0.396-4.235,1.039       c-0.446,0.209-0.872,0.456-1.257,0.742c-3.354,2.351-5.081,6.739-3.744,11.084c1.528,4.869,3.368,9.651,5.518,14.288       c0.334,0.737,0.669,1.474,1.042,2.191c4.998,10.354,11.488,19.979,19.148,28.571c0.466,0.537,0.952,1.074,1.438,1.591       c0.104,0.113,0.213,0.221,0.317,0.333h55.153C255.999,414.516,254.16,410.781,252.172,407.118z"/>
					<g>
						<path style="fill:#393528;" d="M211.787,400.815c1.356-7.187,1.915-14.766,1.709-22.304        c-0.124-4.554-0.523-9.081-1.194-13.522c-0.538-0.28-1.076-0.56-1.633-0.8c1.906,11.538,1.889,23.856-0.118,35.226        c-11.108-12.544-21.295-25.899-30.439-39.911c-0.446,0.209-0.872,0.456-1.257,0.742c6.951,10.693,14.541,21.015,22.689,30.91        c-7.292-0.135-14.515-2.059-20.915-5.538c0.334,0.737,0.669,1.474,1.042,2.191c6.531,3.201,13.787,4.908,21.073,4.846        l-0.002-0.059c6.621,7.932,13.587,15.58,20.879,22.885c-7.546,1.345-15.199,1.653-22.802,0.898        c0.466,0.537,0.952,1.074,1.438,1.591c7.58,0.618,15.171,0.195,22.657-1.208c0.522,0.52,1.058,1.025,1.583,1.541h2.094        C222.792,412.669,217.181,406.838,211.787,400.815z"/>
						<path style="fill:#393528;" d="M240.217,388.762c-0.488-0.615-0.956-1.172-1.443-1.748        c-0.121,10.984-3.156,21.968-8.953,31.289h1.748c5.305-8.865,8.252-19.14,8.649-29.501        C240.218,388.801,240.218,388.782,240.217,388.762z"/>
					</g>
				</g>
				<g>
					<path style="fill:#8FD971;" d="M61.616,324.178c5.666-0.596,11.308-1.596,16.788-3.117c0,0,0.014,0.006,0.029,0.011       c0.59-0.167,1.131-0.337,1.693-0.515c6.647-1.993,13.002-4.804,18.783-8.641c1.786-1.185,3.461-2.463,5.037-3.828       c0.363-0.304,0.726-0.607,1.067-0.936c5.3-4.811,9.386-10.647,12.026-17.253c0.449-1.125,0.608-2.263,0.522-3.364       c-0.016-0.384-0.067-0.765-0.157-1.128c-0.688-3.123-3.332-5.684-6.864-6.025c-3.968-0.36-7.967-0.47-11.954-0.312       c-0.632,0.02-1.264,0.039-1.892,0.093c-8.962,0.494-17.847,2.283-26.338,5.225c-0.527,0.175-1.06,0.364-1.579,0.559       c-8.937,3.247-17.418,7.786-25.02,13.453c-0.516,0.36-1.009,0.745-1.502,1.13c-2.157,1.67-4.241,3.438-6.245,5.294       c-0.031,2.933-0.039,5.87-0.002,8.813c0.018,3.681,0.134,7.389,0.285,11.093C44.746,325.041,53.202,325.045,61.616,324.178z"/>
					<path style="fill:#393528;" d="M36.048,315.875c7.386-4.106,14.976-7.861,22.727-11.254       c4.869,7.113,11.777,12.81,19.629,16.439c0,0,0.014,0.006,0.029,0.011c0.59-0.167,1.131-0.337,1.693-0.515       c-8.092-3.475-15.268-9.16-20.266-16.405c6.05-2.617,12.197-5.016,18.42-7.187c4.773,3.134,10.067,5.812,15.562,7.926       c3.32,1.277,6.702,2.349,10.104,3.198c0.363-0.304,0.726-0.607,1.067-0.936c-8.888-2.089-17.76-5.798-25.352-10.658       c12.375-4.24,25.057-7.574,37.901-9.959c-0.016-0.384-0.067-0.765-0.157-1.128c-9.793,1.801-19.511,4.172-29.087,7.075       c2.286-5.215,5.84-9.843,10.269-13.412c-0.632,0.02-1.264,0.039-1.892,0.093c-4.267,3.746-7.675,8.463-9.818,13.733       l0.043,0.017c-7.704,2.391-15.307,5.116-22.76,8.179c1.295-5.842,3.371-11.45,6.197-16.703       c-0.527,0.175-1.06,0.364-1.578,0.559c-2.72,5.278-4.694,10.875-5.93,16.691c-6.881,2.855-13.63,6.008-20.25,9.424       c-0.472-4.239-0.065-8.583,1.159-12.663c-0.516,0.36-1.009,0.745-1.502,1.13c-0.99,3.939-1.266,8.071-0.746,12.099       c-1.84,0.963-3.666,1.954-5.484,2.96C36.028,315.016,36.042,315.447,36.048,315.875z"/>
				</g>
			</g>
		</g>
	</g>
</g>















</svg>
