<?xml version="1.0" encoding="UTF-8"?>
<!-- Generator: Adobe Illustrator 25.2.1, SVG Export Plug-In . SVG Version: 6.00 Build 0)  -->
<svg xmlns="http://www.w3.org/2000/svg" xmlns:xlink="http://www.w3.org/1999/xlink" version="1.1" id="Capa_1" x="0px" y="0px" viewBox="0 0 512 512" style="enable-background:new 0 0 512 512;" xml:space="preserve" width="512" height="512">
<g>
	<path style="fill:#FFFFFF;" d="M50.028,510.849l-2.123-12.486c-1.029-6.053-2.074-12.127-3.123-18.22   c-8.172-47.494-16.602-96.486-19.124-145.428L0,323.243l25.569-42.266c0.292-5.405,0.676-10.713,1.149-15.841   c3.23-35.063,16.183-81.903,27.828-112.464c-20.674,10.891-46.518,41.182-46.518,41.182s-3.128-18.844,1.822-34.065   c11.137-40.161,44.939-60.593,82.011-70.155c0.444-0.562,0.892-1.123,1.34-1.68c-1.546-2.267-2.526-4.955-2.722-7.864   c-0.576-8.77,6.07-16.357,14.812-16.94c0.964-0.063,1.934-0.095,2.895-0.095c0.919,0,1.836,0.028,2.752,0.083   c0.198-3.987,1.883-7.903,5.023-10.834c2.97-2.764,6.818-4.277,10.852-4.277c2.004,0,3.976,0.383,5.812,1.105   c40.312-30.998,91.585-47.983,145.314-47.983c30.139,0,59.377,5.295,86.901,15.738c1.494,0.566,3.017,1.164,4.586,1.8   c0.374-0.111,0.747-0.216,1.121-0.315l-0.008-0.027l7.115-2.113c1.523-0.732,3.189-1.575,4.75-2.509   c10.628-6.283,20.903-9.448,30.608-9.448c4.258,0,8.406,0.62,12.328,1.843c11.191,3.507,20.853,12.282,25.868,23.479   c0.536,1.197,1.021,2.421,1.455,3.667c2.506-1.599,5.044-3.125,7.61-4.574c2.415-1.373,5.153-2.098,7.928-2.098   c5.645,0,10.94,3.022,13.818,7.886l0.215,0.363l0.194,0.375c2.365,4.565,2.338,9.766,0.341,14.127   c1.292-0.908,2.576-1.815,3.849-2.719c2.744-1.965,5.974-3.003,9.349-3.003c5.115,0,9.965,2.47,12.972,6.607l0.211,0.29l0.197,0.3   c4.724,7.199,2.975,16.793-3.983,21.841l-0.126,0.091c-5.33,3.784-10.818,7.596-16.396,11.392c0.175,1.562,0.275,3.131,0.301,4.7   c5.598,0.352,10.6,3.592,13.22,8.633c3.02,5.737,2.143,12.558-1.699,17.384c4.89,7.869,7.897,17.066,8.334,26.381   c0.786,16.884-6.706,34.053-19.85,46.227c0.792,7.239,1.411,14.764,1.878,22.792c1.424,24.339,0.983,49.654-1.307,75.426   c1.005,0.259,22.271,13.72,22.271,13.72s-25.147,17.995-26.039,18.317c-8.969,61.36-28.246,124.933-55.979,184.459l-4.037,8.665   H50.028z"/>
	<g>
		<g>
			<path style="fill:#222A30;" d="M400.565,38.884c0.44-0.026,0.88-0.052,1.32-0.052l-0.207,0.026L400.565,38.884z"/>
			<g>
				<path style="fill:#CAFCFF;" d="M416.376,495.849h-8.32l-193.23-18.881L83.223,495.849H62.693      c-12.758-75.048-28.027-153.512-21.039-229.336c6.987-75.85,36.23-152.658,94.302-200.844      c61.125-50.696,149.63-62.807,223.565-34.755c31.572,11.956,61.177,31.21,81.155,58.77      c24.999,34.47,32.892,78.697,35.376,121.448C481.694,307.556,457.058,408.535,416.376,495.849z"/>
				<path style="fill:#5AAA5B;" d="M486.119,301.76c0,0-0.026,0-0.077,0c-18.426,6.547-36.593,13.56-54.423,21.298      c-0.854,0.336-1.708,0.725-2.562,1.113c-7.531,3.261-14.984,6.677-22.385,10.222c-0.699,0.336-1.397,0.673-2.096,1.009      c-12.836,6.237-25.439,12.888-37.757,20.082c-0.621,0.336-1.216,0.699-1.838,1.061c-0.958,0.569-1.915,1.139-2.873,1.708      c-0.595,0.337-1.164,0.673-1.734,1.035c-8.126,4.865-16.096,9.989-23.938,15.372c-6.004,4.115-11.904,8.359-17.727,12.758      c-0.543,0.414-1.113,0.854-1.656,1.268c-5.848,4.451-11.594,9.057-17.209,13.793c-0.569,0.466-1.139,0.932-1.682,1.397      c-5.9,5.046-11.645,10.222-17.209,15.553c-0.595,0.569-1.19,1.139-1.786,1.734c-4.296,4.141-8.514,8.411-12.603,12.784      c-0.569,0.595-1.138,1.19-1.682,1.786c-16.889,18.264-31.847,38.208-44.059,59.931l-0.4,0.107      c1.346-7.194,2.924-14.337,4.839-21.402c0-0.051,0-0.077,0.026-0.103c7.764-28.829,20.159-56.493,36.851-81.129      c0.362-0.595,0.776-1.216,1.216-1.812c4.969-7.22,10.3-14.181,16.045-20.832c0.492-0.595,1.009-1.191,1.553-1.76      c6.211-7.142,12.888-13.897,20.004-20.185c0.569-0.543,1.139-1.061,1.734-1.527c2.64-2.329,5.357-4.581,8.1-6.729      c0.518-0.44,1.035-0.854,1.553-1.268c0.026,0,0.052-0.026,0.078-0.052c10.714-8.333,22.255-15.605,34.418-21.738      c0.802-0.414,1.605-0.802,2.407-1.19c14.052-6.884,28.855-12.24,44.045-15.889c0.983-0.233,1.993-0.466,2.976-0.673      c28.881-6.522,59.029-6.832,87.729,0.233c0.026,0,0.077,0,0.103,0.026L486.119,301.76z"/>
				<g>
					<g>
						<g>
							<g>
								<path style="fill:#222A30;" d="M223.937,488.419l-2.588-0.028c0.014-1.288,0.02-2.575,0.019-3.863          c-0.01-27.641-3.245-56.16-9.89-87.185c-7.69-35.895-20.563-95.973-65.786-112.931c-16.59-6.221-37.115-5.312-52.298,2.31          l-1.16-2.312c15.798-7.932,37.137-8.878,54.368-2.421c46.547,17.454,59.604,78.399,67.406,114.812          c6.684,31.206,9.938,59.901,9.948,87.726C223.957,485.824,223.951,487.121,223.937,488.419z"/>
								<g>
									<path style="fill:#456638;" d="M149.568,299.689c-0.647,8.411-6.263,15.709-12.965,20.807           c-4.011,3.054-8.359,5.435-12.991,7.22c-0.673,0.285-1.372,0.543-2.07,0.776c-11.386,4.037-24.145,4.71-36.515,3.468           c-0.621-0.052-1.242-0.103-1.863-0.181c-2.148-0.259-4.27-0.544-6.366-0.906c-2.355-0.388-4.684-0.802-7.039-1.242           c-0.621-0.129-1.242-0.233-1.863-0.362c-16.821-3.287-33.616-7.79-49.842-12.06l-1.294-1.553           c6.703-8.773,13.509-17.597,20.962-25.749c0.543-0.621,1.139-1.242,1.708-1.863c5.849-6.262,12.111-12.085,19.047-17.131           c4.684-3.416,9.782-6.444,15.087-8.928h0.026c1.035-0.492,2.044-0.958,3.105-1.398c12.37-5.227,25.827-7.453,38.818-4.788           h0.026c0.621,0.103,1.242,0.233,1.863,0.388c0.647,0.155,1.294,0.336,1.941,0.518c0.026,0,0.026,0,0.026,0           c4.969,1.449,9.756,3.804,13.12,7.712c3.39,3.96,4.943,9.782,3.105,14.57c-0.077,0.259-0.207,0.492-0.311,0.751           c-0.129,0.311-0.284,0.595-0.44,0.88c1.165,0.129,2.303,0.414,3.39,0.88c0.88,0.362,1.708,0.802,2.51,1.32           C146.229,286.31,150.034,293.401,149.568,299.689z"/>
								</g>
							</g>
							<g>
								<g>
									<g>
										<path style="fill:#FFB329;" d="M329.698,176.739c-15.135-42.612-6.328-92.873,22.393-127.8            c8.8-10.701,22.722-20.712,35.51-15.382c8.193,3.415,12.943,12.419,13.827,21.251c0.884,8.832-1.41,17.639-3.683,26.22            c8.207-7.468,19.468-7.214,29.421-2.312c9.954,4.903,16.357,16.214,15.439,27.272            c-0.918,11.058-9.099,21.158-19.725,24.352c11.494,2.324,21.231,8.454,28.269,17.833            c7.038,9.379,9.268,22.723,3.87,33.133c-6.742,13.001-22.657,18.166-37.214,19.757            C385.803,204.558,356.391,194.733,329.698,176.739z"/>
										<path style="fill:#FFB329;" d="M494.016,141.947c0.684,14.701-7.277,29.082-19.105,37.881            c-7.103,5.276-15.461,8.643-24.179,10.326c-0.846,0.167-1.719,0.341-2.58,0.455c-0.383,0.073-0.746,0.112-1.129,0.185            l-0.027,0.007c-4.571,0.639-9.202,0.834-13.806,0.591c-19.438-33.396-40.128-67.723-59.566-101.119            c-7.889-13.593-16.697-32.055-11.015-46.693c4.95-5.595,10.665-8.634,16.505-11.42c0.027-0.007,0.047-0.041,0.1-0.055            c1.251-0.591,2.529-1.188,3.8-1.813c0.027-0.007,0.027-0.007,0.027-0.007c2.375-1.119,4.736-2.292,7.066-3.686            c9.263-5.476,20.468-9.369,30.773-6.158c7.396,2.318,13.469,8.204,16.643,15.291c3.174,7.087,3.589,15.251,1.84,22.84            c12.116-0.573,24.531,4.204,30.536,14.706c6.039,10.521,5.641,24.388-0.948,34.526            C483.209,111.517,493.324,127.219,494.016,141.947z"/>
										<path style="fill:#222A30;" d="M457.326,161.856c0.233,2.61,0.225,5.284-0.086,8.01c-0.449,4.371-1.59,8.84-3.401,13.486            c-0.027,0.007-0.02,0.034-0.02,0.034c-0.85,2.208-1.889,4.466-3.088,6.767c-0.846,0.167-1.719,0.341-2.58,0.455            c0.276-0.475,0.525-0.944,0.747-1.405c3.564-6.922,5.619-13.357,6.297-19.57c0.899-8.628-0.997-16.744-5.43-22.836            c-5.038-6.966-12.128-10.514-19.445-9.72c-0.424,0.026-0.824-0.183-1.039-0.558c-0.187-0.381-0.126-0.8,0.098-1.146            c0.641-0.831,1.275-1.689,1.849-2.559c2.433-3.605,4.235-7.531,5.349-11.561c0.058-0.217,0.129-0.379,0.133-0.581            l0.02-0.034c0.154-0.501,0.275-1.021,0.368-1.534c0.663-3.02,0.923-6.048,0.765-9.023            c-0.189-3.311-0.944-6.587-2.173-9.594c-0.232-0.657-0.524-1.326-0.803-1.942c-2.209-4.642-5.507-8.622-9.602-11.385            c-1.224-0.824-2.535-1.539-3.863-2.106c-0.685-0.307-1.356-0.56-2.038-0.752c-6.301-2.091-13.21-1.492-18.887,1.796            c-0.401,0.221-0.9,0.181-1.241-0.13c-0.314-0.319-0.416-0.809-0.213-1.236c1.099-2.245,2.057-4.482,2.826-6.669            c2.196-6.013,3.21-11.827,3.036-17.354c-0.242-8.813-3.619-16.881-9.28-22.187c-2.144-2.016-4.659-3.59-7.328-4.662            c-0.034-0.02-0.068-0.04-0.128-0.052l-0.027,0.007c-2.9-1.184-6.013-1.765-9.029-1.654c-0.148-0.018-0.29-0.009-0.431,0            c-0.424,0.026-0.794,0.038-1.184,0.084l-0.027,0.007c-0.054,0.014-0.115,0.002-0.168,0.016            c-0.868,0.087-1.687,0.247-2.492,0.46l8.202-2.436c0.027-0.007,0.027-0.007,0.027-0.007            c5.076,0.721,10.087,3.04,14.026,6.734c6.043,5.665,9.65,14.274,9.92,23.626c0.142,5.191-0.668,10.578-2.467,16.14            l-0.027,0.007c-0.637,2.037-1.416,4.082-2.336,6.136c5.811-2.462,12.497-2.599,18.544-0.383            c0.69,0.219,1.368,0.499,2.026,0.812c1.275,0.581,2.544,1.25,3.741,2.081c4.333,2.901,7.842,7.141,10.203,12.03            c0.305,0.609,0.591,1.251,0.856,1.928c1.368,3.314,2.208,6.912,2.403,10.567c0.123,1.978,0.051,3.98-0.189,5.997            c-0.094,0.945-0.242,1.903-0.416,2.869c-0.124,0.722-0.283,1.425-0.521,2.149c-1.101,4.401-2.999,8.726-5.602,12.663            c-0.264,0.415-0.527,0.829-0.824,1.224c1.354,0.014,2.683,0.15,4.02,0.427c0,0,0,0,0.027-0.007            c5.696,1.217,11.042,4.797,15.035,10.317C454.766,150.154,456.773,155.769,457.326,161.856z"/>
										<path style="fill:#222A30;" d="M469.112,42.118c0.271,0.523,0.105,1.14-0.383,1.428            c-17.688,9.986-33.432,23.675-45.995,39.81c-0.467,0.516-0.888,1.076-1.318,1.697c-0.663-0.297-1.343-0.559-2.031-0.76            c0.439-0.595,0.878-1.19,1.326-1.759c12.777-16.534,28.868-30.579,46.973-40.8            C468.197,41.438,468.823,41.631,469.112,42.118z"/>
										<path style="fill:#222A30;" d="M496.558,60.521c-19.136,13.581-38.903,26.619-59.033,38.872            c-0.609,0.36-1.209,0.747-1.828,1.081c-0.229-0.655-0.52-1.318-0.819-1.92c0.583-0.351,1.193-0.712,1.793-1.098            c20.008-12.181,39.663-25.12,58.676-38.629c0.469-0.341,1.121-0.245,1.461,0.224            C497.123,59.528,497.027,60.18,496.558,60.521z"/>
										<path style="fill:#222A30;" d="M489.054,104.393c0.262,0.497,0.043,1.132-0.453,1.395            c-5.945,3.022-12.097,5.616-18.387,7.818c-10.169,3.559-20.715,6.044-31.4,7.371c-0.753,0.116-1.49,0.198-2.226,0.279            c0.218-0.723,0.383-1.428,0.512-2.15c0.737-0.081,1.473-0.162,2.227-0.279c16.767-2.191,33.264-7.258,48.334-14.886            C488.147,103.652,488.783,103.871,489.054,104.393z"/>
									</g>
									<path style="fill:#222A30;" d="M325.68,178.09c-2.742-7.481-5.419-15.037-6.756-22.892           c-1.337-7.855-1.281-16.091,1.363-23.608c0.704-2.003,1.617-3.986,3.103-5.503c1.486-1.516,3.637-2.506,5.732-2.168           c4.432,0.716,7.066,5.388,8.174,9.363c1.621,5.818,1.994,11.99,0.847,17.898c0.083-0.429,1.84-1.447,2.218-1.755           c0.843-0.687,1.678-1.383,2.533-2.056c1.681-1.323,3.462-2.643,5.437-3.498c3.272-1.417,6.99-1.76,10.189,0.087           c2.995,1.73,4.93,5.24,4.579,8.681c-0.282,2.76-1.88,5.13-3.639,7.185c-0.877,1.023-1.793,2.005-2.811,2.888           c-0.528,0.458-3.233,3.127-3.912,2.942c6.544,1.787,11.88,6.225,15.583,11.909c1.578,2.424,2.795,5.158,2.991,8.044           c0.196,2.886-0.741,5.935-2.897,7.863c-3.768,3.37-9.623,2.372-14.432,0.816           C343.768,190.982,334.377,184.382,325.68,178.09z"/>
								</g>
								<path style="fill:#222A30;" d="M237.557,474.467l-2.419-0.057c1.395-58.535,8.209-111.668,20.253-157.922          c16.928-65.01,44.204-116.556,81.073-153.207l1.706,1.716C275.692,227.106,240.901,334.119,237.557,474.467z"/>
							</g>
							<g>
								<path style="fill:#222A30;" d="M431.619,323.058c-0.854,0.336-1.708,0.725-2.562,1.113          c-13.483-4.995-27.819-7.996-42.078-8.773c-0.155,0-0.311-0.026-0.466-0.026c-0.103,0-0.207-0.026-0.285-0.078          c-0.388-0.155-0.673-0.518-0.647-0.958c0-0.259,0.129-0.466,0.31-0.621l0.026-0.026c0.207-0.181,0.466-0.285,0.699-0.259          h0.078c0.233,0.026,0.492,0.026,0.725,0.052c1.475,0.078,2.976,0.181,4.451,0.31          C405.404,314.983,418.913,318.141,431.619,323.058z"/>
								<path style="fill:#222A30;" d="M396.269,299.482c-3.235,4.114-6.237,8.773-8.67,13.638          c-0.284,0.544-0.569,1.113-0.828,1.656c-0.155,0.362-0.517,0.569-0.88,0.569c-0.129,0-0.285-0.052-0.414-0.104          c-0.466-0.233-0.673-0.75-0.492-1.216c0-0.026,0-0.052,0.026-0.078c2.303-4.839,5.176-9.575,8.281-13.793          C394.276,299.922,395.285,299.689,396.269,299.482z"/>
								<path style="fill:#222A30;" d="M349.247,316.044c-1.501,4.762-2.407,9.705-2.717,14.673          c-0.052,0.259-0.052,0.517-0.077,0.776c-0.026,0.518-0.466,0.906-0.958,0.906h-0.078c-0.388-0.026-0.699-0.285-0.828-0.621          c-0.052-0.129-0.077-0.259-0.077-0.388c0.259-4.762,1.035-9.523,2.329-14.155          C347.643,316.821,348.445,316.433,349.247,316.044z"/>
								<path style="fill:#222A30;" d="M484.101,299.741c-0.026-0.026-0.078-0.026-0.104-0.026          c-32.426-1.604-65.395,3.105-96.398,13.405c-0.88,0.285-1.76,0.595-2.614,0.906c-13.25,4.529-26.137,10.118-38.456,16.692          c-0.647,0.336-1.294,0.673-1.941,1.035v0.026c-6.754,3.649-13.302,7.608-19.668,11.853          c-0.259,0.155-0.518,0.336-0.776,0.492c-1.423,0.957-2.821,1.941-4.218,2.924c-0.052,0.026-0.104,0.078-0.155,0.104          c-0.517,0.388-1.035,0.75-1.553,1.139c-2.174,1.527-4.322,3.131-6.418,4.787c-2.433-2.795-5.616-4.865-9.109-6.055          c-0.595,0.466-1.164,0.983-1.734,1.527c3.545,1.009,6.858,3.002,9.316,5.719c-7.168,5.59-14.052,11.671-20.599,18.167          c-2.588-1.889-5.59-3.131-8.721-3.701c-0.544,0.569-1.061,1.164-1.553,1.76c3.183,0.362,6.263,1.527,8.876,3.338          c-6.107,6.133-11.93,12.603-17.468,19.383c-0.026,0-0.026-0.026-0.052-0.026c-2.381-0.88-4.865-1.501-7.401-1.863          c-0.44,0.595-0.854,1.216-1.216,1.812c2.536,0.285,5.021,0.854,7.401,1.708h-0.026          c-18.736,23.42-33.849,50.437-44.226,79.421c-0.026,0.026-0.026,0.052-0.026,0.104c-2.407,6.729-4.555,13.561-6.444,20.47          c-0.155,0.518,1.605,0.932,1.605,0.932c0.129-0.103,0.207-0.259,0.259-0.44c7.893-29.087,20.599-56.648,37.084-81.181          c3.494,6.728,5.926,14.052,7.117,21.583c0.544-0.595,1.113-1.19,1.682-1.786c-1.372-7.556-3.934-14.906-7.583-21.634          c4.167-6.082,8.54-11.956,13.146-17.623c3.856,8.333,6.237,17.313,7.039,26.474c0.595-0.595,1.19-1.164,1.786-1.734          c-0.984-9.135-3.494-18.089-7.453-26.396c3.286-4.037,6.728-7.945,10.274-11.749c4.865,2.51,9.006,7.349,11.646,13.664          c1.216,2.873,2.07,5.875,2.743,8.928c0.543-0.466,1.113-0.932,1.682-1.397c-0.673-2.821-1.501-5.59-2.614-8.281          c-2.743-6.521-6.987-11.594-12.059-14.363c5.59-5.952,11.464-11.568,17.572-16.873c6.573,7.479,11.438,16.278,14.311,25.723          c0.544-0.414,1.113-0.854,1.656-1.268c-3.002-9.446-7.919-18.218-14.492-25.723c5.434-4.632,11.05-9.006,16.821-13.069          c1.501-1.035,3.002-2.07,4.503-3.08c1.087-0.75,2.199-1.475,3.312-2.199c0.128-0.083,0.259-0.162,0.388-0.245          c0.061,0.021,0.114,0.055,0.182,0.064c0.155,0.026,0.285,0.052,0.44,0.103h0.026c11.438,1.915,22.23,7.738,30.485,16.019          c0.569-0.362,1.139-0.699,1.734-1.035c-7.764-7.893-17.753-13.664-28.466-16.226c-0.665-0.173-1.331-0.318-1.996-0.446          c11.556-7.277,23.772-13.65,36.44-19.015l0.026,0.026c13.224,2.381,25.283,6.625,36.463,12.81          c0.699-0.336,1.398-0.673,2.096-1.009c-10.921-6.185-22.747-10.585-35.376-13.172h0.026          c36.178-14.828,75.902-21.712,114.72-19.461c0.051,0,0.077,0,0.077,0c0.802-0.285,1.63-0.569,2.433-0.854          C487.077,300.492,485.576,300.103,484.101,299.741z"/>
							</g>
							<g>
								<path style="fill:#222A30;" d="M60.785,143.776c14.992-6.28,30.543-11.846,46.749-13.102          c16.206-1.257,33.298,2.199,45.978,12.368c0.98-5.858-1.627-11.913-5.763-16.175c-4.136-4.262-9.636-6.948-15.243-8.909          c-21.138-7.393-45.093-5.242-65.378,4.244c-19.419,9.082-33.271,23.837-45.643,40.898          c-2.808,3.872-4.847,7.341-6.485,11.911C26.662,159.806,43.431,151.046,60.785,143.776z"/>
								<path style="fill:#5AAA5B;" d="M253.742,306.061c-0.052,0.957-0.104,1.889-0.155,2.821          c-0.802,13.975-2.174,27.871-4.037,41.742v0.026c-0.129,1.113-0.259,2.226-0.44,3.338c0,0,0,0,0,0.026          c-1.941,14.311-4.347,28.544-7.091,42.803c-0.31,1.605-0.621,3.235-0.958,4.84v0.026          c-3.157,16.122-6.728,32.193-10.507,48.315c-3.468,14.803-7.091,29.605-10.74,44.46c0.077-2.251,0.155-4.477,0.207-6.729          c1.035-32.918,0.699-66.016-1.475-98.934c-0.026-0.854-0.103-1.708-0.155-2.562v-0.026          c-1.035-15.243-2.484-30.433-4.373-45.546c-0.103-0.854-0.207-1.708-0.336-2.588c-1.579-12.474-3.468-24.895-5.719-37.265          c-0.129-0.751-0.259-1.501-0.414-2.251c-4.374-23.834-10.015-47.41-17.106-70.571c-0.181-0.673-0.388-1.32-0.621-1.993          c-2.174-7.168-4.529-14.285-7.013-21.35c0,0,0,0-0.026,0c-0.207-0.673-0.466-1.32-0.699-1.993          c-0.31-0.88-0.621-1.734-0.932-2.614c-6.082-16.769-13.328-33.746-24.688-47.28c-0.543-0.621-1.061-1.242-1.605-1.837          c-2.044-2.303-4.244-4.503-6.573-6.573c-18.477-16.407-45.003-22.721-69.277-17.934c-3.752,0.725-7.401,1.734-10.998,2.925          c0,0,0,0-0.026,0c-2.562,0.88-5.02,1.837-7.479,2.924c-0.026,0-0.026,0-0.026,0c-16.614,7.324-31.106,19.564-41.458,34.548          c18.451-37.214,54.811-62.601,96.191-65.965c2.122-0.155,4.218-0.284,6.314-0.31c3.002-0.103,6.004-0.052,8.98,0.129          c10.947,0.569,21.816,2.691,32.219,6.185c0.595,0.181,1.216,0.388,1.838,0.621c13.276,4.658,25.775,11.568,36.722,20.341          c0.518,0.414,0.983,0.802,1.475,1.216c3.959,3.261,7.686,6.754,11.179,10.481c0.466,0.518,0.906,1.009,1.372,1.527          c2.847,3.157,5.512,6.444,7.996,9.912c13.457,18.788,21.169,40.862,25.542,63.713c0.155,0.802,0.311,1.63,0.44,2.433          c1.708,9.342,2.847,18.788,3.649,28.182C254.647,265.69,254.777,285.953,253.742,306.061z"/>
								<path style="fill:#222A30;" d="M240.051,322.131v0.026c-0.932-23.601-3.338-47.099-7.194-70.286          c-0.388-2.277-0.776-4.529-1.164-6.729c4.14-10.222,10.17-19.797,17.597-28.052c-0.129-0.802-0.285-1.631-0.44-2.433          c-7.35,7.945-13.431,17.131-17.805,26.991c0,0.026,0,0.026,0,0.026c-1.578-8.333-3.312-16.174-5.227-23.55          c0.104-0.311,0.026-0.621-0.207-0.854c-4.736-18.193-10.507-33.746-17.649-47.643c-0.492-0.958-1.01-1.941-1.553-2.95          c1.812-9.471,4.762-17.96,8.902-25.646c-0.466-0.518-0.906-1.009-1.372-1.527c-4.089,7.427-7.039,15.527-8.98,24.533v0.026          c-2.51-4.477-5.434-9.213-8.799-14.026c0.362-7.479,2.691-14.751,6.599-21.014c-0.492-0.414-0.958-0.802-1.475-1.216          c-3.778,5.952-6.159,12.732-6.884,19.771c-7.893-10.843-18.063-21.842-30.873-30.925c-0.233-3.028,0.104-6.081,1.035-9.187          c-0.621-0.233-1.242-0.44-1.838-0.621c-0.88,2.847-1.268,5.642-1.216,8.411c-3.856-2.64-7.971-5.072-12.318-7.298          c-6.03-3.079-12.292-5.512-18.684-7.298c-2.976-0.181-5.978-0.233-8.98-0.129c9.161,1.734,18.219,4.788,26.785,9.161          c2.831,1.441,5.559,2.986,8.186,4.632h-0.008c-32.503-9.497-69.096-2.717-95.984,17.934          c2.458-1.087,4.917-2.045,7.479-2.924c0.026,0,0.026,0,0.026,0c27.509-17.96,63.299-22.385,94.276-11.076          c0.049,0.024,0.097,0.045,0.145,0.027c0.012,0.009,0.024,0.016,0.036,0.025c18.762,13.302,31.753,30.822,40.241,45.754          c-13.664-9.73-30.951-14.259-47.85-13.146c0.544,0.595,1.061,1.216,1.605,1.837c17.313-0.802,34.884,4.451,48.238,15.242          c0.078,0.078,0.181,0.13,0.285,0.155c0.414,0.802,0.828,1.605,1.242,2.381c6.806,13.198,12.37,27.949,16.95,45.106          c-12.292-7.764-26.06-12.111-41.095-12.991c0.233,0.673,0.492,1.32,0.699,1.993c0.026,0,0.026,0,0.026,0          c15.113,1.035,28.881,5.616,41.095,13.742c2.096,8.074,3.959,16.692,5.642,25.93          c-10.196-10.869-24.844-17.468-39.724-18.322c0.233,0.673,0.44,1.32,0.621,1.993c14.777,1.035,29.217,7.893,38.948,19.047          c0.207,0.181,0.44,0.285,0.699,0.31c0.311,1.605,0.569,3.235,0.854,4.865c3.932,23.566,6.338,47.417,7.193,71.345          c-7.194-11.256-18.14-20.08-30.587-24.997c0.155,0.75,0.285,1.501,0.414,2.251c12.396,5.176,23.187,14.388,29.89,25.982          c0.103,0.181,0.233,0.311,0.414,0.388c0.336,11.205,0.336,22.385,0,33.565c-6.961-8.721-15.32-16.433-24.585-22.67          c0.129,0.88,0.233,1.734,0.336,2.588c9.187,6.418,17.416,14.259,24.171,23.11c-0.466,13.69-1.423,27.354-2.899,40.966          c-4.373-7.143-10.17-13.483-16.899-18.503c0.052,0.854,0.129,1.708,0.155,2.562c6.651,5.253,12.292,11.801,16.381,19.124          v0.026c-3.028,26.94-7.996,53.646-14.906,79.784c-0.466,1.889-0.983,3.804-1.501,5.693c-0.155,0.518,0.155,1.035,0.673,1.19          c0.078,0.026,0.181,0.026,0.259,0.026c0.44,0,0.828-0.285,0.932-0.699c3.985-14.466,7.375-29.139,10.17-43.942          c2.64-13.949,4.762-28.001,6.34-42.13c1.371-2.07,2.769-4.114,4.166-6.185v-0.026c0.337-1.605,0.647-3.235,0.958-4.84          c-1.553,2.277-3.131,4.555-4.658,6.858c1.371-13.111,2.302-26.275,2.742-39.464c0.001-0.001,0.001-0.001,0.001-0.001v-0.026          c3.079-3.571,6.055-6.961,9.006-10.17c0-0.026,0-0.026,0-0.026c0.181-1.113,0.311-2.225,0.44-3.338          c-3.054,3.287-6.159,6.78-9.342,10.455c0.362-11.801,0.337-23.627-0.051-35.428c3.494-5.952,7.919-11.516,13.431-16.795          c0.052-0.932,0.104-1.863,0.156-2.821C248.229,311.132,243.701,316.463,240.051,322.131z"/>
							</g>
							<g>
								<g>
									<g>
										<path style="fill:#171D21;" d="M327.088,370.676c-0.489,0-0.909-0.368-0.963-0.865            c-1.342-12.252,2.681-25.123,10.762-34.429c0.352-0.403,0.964-0.448,1.369-0.096c0.405,0.352,0.448,0.964,0.096,1.369            c-7.733,8.905-11.583,21.221-10.299,32.945c0.058,0.532-0.326,1.012-0.859,1.07            C327.159,370.674,327.123,370.676,327.088,370.676z"/>
										<path style="fill:#171D21;" d="M394.406,341.6c-0.304,0-0.603-0.142-0.792-0.409l-12.417-17.496            c-0.31-0.437-0.208-1.043,0.23-1.353c0.439-0.31,1.044-0.207,1.353,0.23l12.417,17.496c0.31,0.437,0.208,1.043-0.23,1.353            C394.796,341.542,394.6,341.6,394.406,341.6z"/>
										<path style="fill:#171D21;" d="M433.972,321.204c-0.241,0-0.483-0.089-0.671-0.269            c-7.461-7.138-18.077-11.077-28.381-10.519c-0.537,0.024-0.992-0.382-1.021-0.917c-0.029-0.535,0.382-0.992,0.917-1.021            c10.829-0.578,21.985,3.553,29.826,11.055c0.387,0.37,0.401,0.985,0.031,1.372            C434.483,321.104,434.228,321.204,433.972,321.204z"/>
									</g>
									<g>
										<path style="fill:#FF6453;" d="M441.168,294.772c-2.795,2.976-5.823,5.745-8.98,8.359            c-0.984,0.828-1.993,1.631-3.028,2.407c-4.969,3.83-10.222,7.142-15.682,10.377h-0.026            c-0.155,0.078-0.31,0.181-0.466,0.285c-6.159,3.597-12.474,6.936-18.943,9.989            c-22.773,10.869-47.177,18.348-72.124,22.126c-3.442,0.518-6.91,0.44-10.403,0.311c-1.087-0.026-11.05-0.414-11.154-1.242            c-2.95-22.463,4.762-46.116,20.366-62.549c0.155-0.155,0.311-0.336,0.492-0.492c4.632-4.813,9.911-8.928,15.631-12.318            c7.35-4.373,15.424-7.505,23.783-9.29c7.039-1.527,14.311-2.044,21.505-1.475c1.993,0.155,3.985,0.388,5.978,0.725            c6.547,1.061,13.069,3.028,19.306,5.771c2.484,1.087,4.917,2.303,7.298,3.597c2.018,1.113,3.985,2.303,5.875,3.597            C428.747,280.306,435.863,287.06,441.168,294.772z"/>
										<path style="fill:#222A30;" d="M300.025,349.36c-0.01,0-0.021,0-0.031,0c-0.536-0.017-0.956-0.465-0.94-1.001            c0.849-27.038,17.435-53.553,42.253-67.551c23.632-13.328,52.364-15.642,78.828-6.343            c0.506,0.177,0.772,0.731,0.594,1.237c-0.178,0.506-0.732,0.773-1.237,0.594c-25.937-9.112-54.087-6.852-77.232,6.203            c-24.24,13.671-40.438,39.547-41.266,65.922C300.978,348.945,300.547,349.36,300.025,349.36z"/>
										<path style="fill:#222A30;" d="M323.547,310.763c-2.035,5.579-0.805,12.264,3.218,16.633            c4.023,4.369,10.703,6.136,16.302,4.158c5.6-1.978,9.721-7.671,9.677-13.61c-0.03-4.039-1.85-7.946-4.57-10.932            c-2.839-3.118-8.484-7.74-13.033-6.931C329.98,300.998,325.273,306.029,323.547,310.763z"/>
										<path style="fill:#222A30;" d="M463.256,278.829c-8.709-2.275-18.422-0.699-26.14,3.986            c-0.496-0.385-1.001-0.758-1.507-1.111c-1.177-0.822-2.383-1.602-3.602-2.361c2.129-7.456,6.808-14.227,13.063-18.8            c0.433-0.316,0.527-0.923,0.21-1.356c-0.315-0.433-0.923-0.529-1.356-0.21c-6.455,4.718-11.317,11.657-13.63,19.32            c-4.956-2.921-10.215-5.328-15.671-7.154c0.446,0.283,0.872,0.592,1.302,0.895c-0.401-0.23-0.8-0.463-1.204-0.686            c4.762,3.39,8.669,7.945,11.257,13.172c3.183,6.47,4.296,13.923,3.183,21.014c1.035-0.776,2.045-1.579,3.028-2.407            c0.218-0.18,0.43-0.367,0.646-0.549c2.218-1.255,4.354-2.65,6.063-4.522c0.833-0.912,1.548-1.965,2.08-3.092            c0.062-0.066,0.128-0.129,0.19-0.195c-0.02-0.03-0.042-0.058-0.063-0.088c0.833-1.895,1.138-3.98,0.583-5.958            c-0.505-1.798-1.637-3.285-3.008-4.578c7.181-4.163,16.08-5.531,24.084-3.441c0.522,0.135,1.049-0.176,1.184-0.694            C464.085,279.495,463.774,278.965,463.256,278.829z"/>
										<path style="fill:#222A30;" d="M372.403,289.049c2.638,2.556,7.279,2.815,10.002,0.349            c2.455-2.223,2.974-6.032,1.993-9.195c-1.479-4.769-6.747-7.494-10.874-4.189            C369.605,279.152,368.576,285.342,372.403,289.049z"/>
										<path style="fill:#222A30;" d="M337.628,278.831c-0.906,2.458-3.079,4.244-5.46,5.383            c-2.225,1.087-4.762,1.682-7.246,1.398c-1.475-0.155-2.692-0.621-3.701-1.268c4.632-4.813,9.911-8.928,15.631-12.318            C338.042,274.095,338.456,276.606,337.628,278.831z"/>
										<path style="fill:#222A30;" d="M419.818,280.668c-1.294,1.579-3.493,2.044-5.512,2.044            c-3.157-0.026-6.418-1.087-8.566-3.39c-2.174-2.303-3.002-5.952-1.553-8.747c0.673-1.294,1.837-2.199,3.235-2.821            c2.484,1.087,4.917,2.303,7.298,3.597c2.018,1.113,3.985,2.303,5.875,3.597c0.155,0.518,0.259,1.061,0.31,1.63            C421.035,278.029,420.75,279.556,419.818,280.668z"/>
										<path style="fill:#222A30;" d="M388.117,261.984c-0.776,2.381-3.442,3.649-5.9,4.347            c-3.416,0.984-6.961,1.475-10.507,1.475c-3.597,0-9.627-1.32-11.076-5.072c7.039-1.527,14.311-2.044,21.505-1.475            C384.132,261.415,386.124,261.648,388.117,261.984z"/>
										<path style="fill:#222A30;" d="M413.478,315.915h-0.026c-0.155,0.078-0.31,0.181-0.466,0.285            c-6.159,3.597-12.474,6.936-18.943,9.989c-0.259-0.129-0.517-0.259-0.776-0.414c-4.969-2.821-7.841-8.928-6.91-14.57            c0.88-5.124,5.875-11.697,11.645-11.335c5.59,0.336,11.982,3.261,14.44,8.514            C413.53,310.714,413.866,313.379,413.478,315.915z"/>
									</g>
								</g>
								<g>
									<path style="fill:#FFF2E8;" d="M326.109,337.341c-0.089,0.041-0.177,0.084-0.265,0.128c-1.85,0.928-5.354,3.916-2.87,6.042           c0.614,0.526,1.419,0.768,2.212,0.923c3.443,0.672,7.045,0.426,10.4-0.576c1.909-0.57,4.11-1.203,5.657-2.525           c0.669-0.572,1.188-1.38,1.209-2.259c0.112-4.643-9.023-3.346-11.71-2.975           C329.152,336.318,327.561,336.663,326.109,337.341z"/>
									<path style="fill:#FFF2E8;" d="M351.319,336.993c0,1.369-1.109,2.478-2.478,2.478c-1.368,0-2.478-1.109-2.478-2.478           s1.109-2.478,2.478-2.478C350.209,334.515,351.319,335.624,351.319,336.993z"/>
								</g>
							</g>
							<g>
								<g>
									<g>
										<path style="fill:#171D21;" d="M215.121,186.163c-0.091,0-0.184-0.014-0.276-0.042c-0.496-0.152-0.774-0.677-0.622-1.173            c3.227-10.507,1.858-22.455-3.662-31.959c-0.26-0.449-0.108-1.023,0.34-1.284c0.449-0.259,1.023-0.108,1.284,0.34            c5.778,9.949,7.211,22.456,3.833,33.455C215.894,185.903,215.522,186.163,215.121,186.163z"/>
										<path style="fill:#171D21;" d="M158.542,147.7c-0.238,0-0.475-0.093-0.653-0.279c-0.346-0.361-0.334-0.933,0.027-1.28            l14.44-13.854c0.36-0.345,0.934-0.334,1.28,0.027c0.346,0.361,0.334,0.933-0.027,1.28l-14.44,13.854            C158.993,147.616,158.767,147.7,158.542,147.7z"/>
										<path style="fill:#171D21;" d="M125.866,122.085c-0.297,0-0.587-0.145-0.761-0.413c-0.272-0.42-0.152-0.98,0.268-1.252            c8.496-5.5,19.435-7.332,29.261-4.905c0.485,0.12,0.782,0.61,0.662,1.096c-0.12,0.485-0.613,0.779-1.096,0.662            c-9.351-2.31-19.758-0.566-27.843,4.666C126.205,122.038,126.034,122.085,125.866,122.085z"/>
									</g>
									<g>
										<path style="fill:#FF6453;" d="M123.732,96.593c2.039,3.216,4.328,6.283,6.763,9.231c0.756,0.931,1.54,1.843,2.353,2.735            c3.881,4.379,8.114,8.334,12.55,12.254l0.024,0.005c0.128,0.098,0.253,0.22,0.377,0.342            c5.013,4.374,10.213,8.539,15.605,12.47c18.96,13.946,40.007,25.072,62.201,32.903c3.062,1.077,6.253,1.613,9.476,2.107            c1,0.167,10.196,1.556,10.436,0.816c6.637-20.062,3.715-43.083-7.703-60.871c-0.115-0.169-0.225-0.363-0.364-0.537            c-3.401-5.221-7.517-9.915-12.162-14.023c-5.967-5.294-12.816-9.577-20.161-12.677            c-6.181-2.632-12.753-4.379-19.443-5.118c-1.853-0.207-3.719-0.342-5.604-0.383c-6.184-0.175-12.503,0.485-18.697,1.906            c-2.466,0.561-4.908,1.249-7.316,2.017c-2.044,0.666-4.054,1.412-6.012,2.267            C137.646,85.515,129.943,90.457,123.732,96.593z"/>
										<path style="fill:#222A30;" d="M244.061,170.127c-0.047,0-0.095-0.004-0.143-0.011c-0.494-0.078-0.83-0.542-0.752-1.036            c3.902-24.57-6.384-52.573-25.014-68.099c-18.239-15.199-44.235-21.585-71.327-17.52            c-0.491,0.073-0.956-0.267-1.029-0.761c-0.074-0.494,0.266-0.955,0.761-1.029c27.598-4.141,54.118,2.389,72.754,17.92            c19.096,15.913,29.64,44.605,25.643,69.773C244.883,169.809,244.498,170.127,244.061,170.127z"/>
										<path style="fill:#222A30;" d="M228.689,131.844c0.887,5.468-1.41,11.377-5.861,14.675            c-4.45,3.298-10.88,3.747-15.663,0.954s-7.562-8.73-6.481-14.164c0.735-3.695,3.086-6.955,6.101-9.215            c3.147-2.359,9.129-5.605,13.155-4.068C224.507,121.77,227.937,127.205,228.689,131.844z"/>
										<path style="fill:#222A30;" d="M152.19,79.594c-5.318,0.717-10.558,2.001-15.61,3.809            c-0.777-7.425-4.016-14.635-9.103-20.088c-0.341-0.365-0.914-0.385-1.279-0.044c-0.365,0.341-0.385,0.914-0.044,1.279            c4.929,5.284,8.03,12.307,8.674,19.511c-1.249,0.482-2.491,0.985-3.713,1.532c-0.526,0.235-1.054,0.488-1.576,0.754            c-6.25-5.641-14.871-8.782-23.25-8.23c-0.499,0.033-0.876,0.465-0.843,0.964c0.033,0.499,0.469,0.882,0.964,0.843            c7.697-0.518,15.612,2.296,21.462,7.37c-1.483,0.945-2.781,2.11-3.558,3.668c-0.854,1.714-0.935,3.677-0.504,5.558            c-0.025,0.025-0.053,0.047-0.078,0.072c0.047,0.074,0.098,0.146,0.146,0.22c0.29,1.122,0.757,2.21,1.359,3.189            c1.238,2.014,2.951,3.666,4.762,5.205c0.167,0.205,0.328,0.413,0.496,0.617c0.756,0.931,1.54,1.843,2.352,2.735            c0.223-6.691,2.547-13.324,6.597-18.694c3.286-4.336,7.664-7.824,12.62-10.096c-0.486,0.159-0.961,0.346-1.444,0.514            C151.139,80.043,151.658,79.805,152.19,79.594z"/>
										<path style="fill:#222A30;" d="M187.733,103.394c-2.865,1.879-7.161,1.304-9.224-1.432            c-1.86-2.467-1.668-6.047-0.215-8.773c2.19-4.11,7.494-5.684,10.696-1.934C192.03,94.816,191.889,100.667,187.733,103.394            z"/>
										<path style="fill:#222A30;" d="M221.382,100.123c0.399,2.411,2.078,4.428,4.06,5.888c1.849,1.386,4.068,2.375,6.394,2.55            c1.379,0.116,2.575-0.098,3.612-0.514c-3.401-5.221-7.517-9.915-12.162-14.023            C221.832,95.712,221.013,97.939,221.382,100.123z"/>
										<path style="fill:#222A30;" d="M145.762,87.411c0.909,1.673,2.842,2.485,4.692,2.838c2.897,0.529,6.07,0.128,8.441-1.606            c2.395-1.729,3.792-4.927,2.954-7.742c-0.39-1.303-1.298-2.337-2.469-3.151c-2.466,0.561-4.908,1.249-7.316,2.017            c-2.044,0.666-4.054,1.412-6.012,2.267c-0.233,0.447-0.423,0.927-0.57,1.439C145.109,84.78,145.103,86.228,145.762,87.411            z"/>
										<path style="fill:#222A30;" d="M178.077,75.846c0.294,2.317,2.514,3.946,4.644,5.016c2.957,1.499,6.119,2.571,9.367,3.192            c3.295,0.63,9.051,0.477,11.036-2.707c-6.181-2.632-12.753-4.379-19.443-5.118            C181.828,76.022,179.962,75.887,178.077,75.846z"/>
										<path style="fill:#222A30;" d="M145.397,120.812l0.024,0.005c0.128,0.098,0.253,0.22,0.377,0.342            c5.013,4.374,10.213,8.539,15.605,12.47c0.26-0.073,0.519-0.147,0.784-0.244c5.046-1.714,8.747-6.806,8.882-12.138            c0.091-4.848-3.333-11.745-8.684-12.424c-5.18-0.671-11.548,0.889-14.721,5.271            C146.26,116.038,145.485,118.421,145.397,120.812z"/>
									</g>
								</g>
								<g>
									<path style="fill:#FFF2E8;" d="M221.687,155.744c0.074,0.053,0.148,0.108,0.22,0.164c1.532,1.174,4.219,4.525,1.572,6.038           c-0.654,0.374-1.434,0.455-2.188,0.458c-3.272,0.013-6.529-0.844-9.427-2.349c-1.649-0.857-3.554-1.822-4.741-3.304           c-0.513-0.641-0.847-1.472-0.712-2.282c0.71-4.274,8.853-1.485,11.249-0.674           C219.078,154.275,220.475,154.869,221.687,155.744z"/>
									<path style="fill:#FFF2E8;" d="M198.652,151.009c-0.24,1.254,0.582,2.464,1.836,2.704c1.254,0.24,2.464-0.582,2.704-1.836           c0.24-1.254-0.582-2.464-1.836-2.704S198.892,149.756,198.652,151.009z"/>
								</g>
							</g>
						</g>
						<path style="fill:#222A30;" d="M408.056,495.849H83.223c4.241-12.464,11.117-23.33,21.919-30.665        c12.177-8.28,30.142-9.197,40.915,0.86c3.61-17.908,14.498-33.867,29.799-43.838c15.3-10,35.443-12.693,52.377-5.816        c16.905,6.877,29.741,23.61,30.687,41.833c9.427-21.031,36.532-32.635,59.196-28.366        c22.664,4.269,41.002,25.358,42.148,48.394c7.822-7.679,21.346-9.484,31.375-5.1        C400.95,477.218,407.398,485.764,408.056,495.849z"/>
					</g>
					<g>
						<path style="fill:#FFFFFF;" d="M258.636,78.053c9.31-4.913,16.697-12.426,20.825-22.817c0.522-1.314,2.395-1.251,2.882,0.076        c3.948,10.754,8.896,18.933,17.878,24.392c1.025,0.623,0.986,2.111-0.073,2.673c-8.555,4.535-14.948,11.761-19.321,20.457        c-0.601,1.195-2.302,1.126-2.804-0.114c-3.851-9.5-10.475-16.877-19.437-21.98C257.533,80.141,257.565,78.618,258.636,78.053z        "/>
						<path style="fill:#FFFFFF;" d="M363.838,229.084c5.129-2.706,9.199-6.846,11.473-12.57c0.288-0.724,1.319-0.689,1.588,0.042        c2.175,5.925,4.901,10.431,9.849,13.438c0.565,0.343,0.543,1.163-0.04,1.472c-4.713,2.498-8.235,6.479-10.644,11.27        c-0.331,0.658-1.268,0.62-1.545-0.063c-2.121-5.234-5.771-9.298-10.708-12.109        C363.231,230.234,363.248,229.395,363.838,229.084z"/>
						<path style="fill:#FFFFFF;" d="M122.341,387.329c5.129-2.706,9.199-6.846,11.473-12.57c0.288-0.724,1.319-0.689,1.588,0.042        c2.175,5.925,4.901,10.431,9.849,13.438c0.565,0.343,0.543,1.163-0.04,1.472c-4.713,2.498-8.235,6.479-10.644,11.27        c-0.331,0.658-1.268,0.62-1.545-0.063c-2.121-5.233-5.771-9.298-10.708-12.109        C121.733,388.479,121.751,387.64,122.341,387.329z"/>
						<path style="fill:#FFFFFF;" d="M122.341,206.95c5.129-2.706,9.199-6.846,11.473-12.57c0.288-0.724,1.319-0.689,1.588,0.042        c2.175,5.924,4.901,10.431,9.849,13.438c0.565,0.343,0.543,1.163-0.04,1.472c-4.713,2.498-8.235,6.479-10.644,11.27        c-0.331,0.658-1.268,0.62-1.545-0.063c-2.121-5.233-5.771-9.298-10.708-12.109C121.733,208.1,121.751,207.261,122.341,206.95z        "/>
						<path style="fill:#FFFFFF;" d="M366.661,409.436c9.018-4.758,16.173-12.036,20.172-22.101c0.506-1.273,2.32-1.212,2.792,0.074        c3.825,10.416,8.617,18.339,17.317,23.627c0.993,0.603,0.955,2.044-0.071,2.589c-8.286,4.392-14.479,11.392-18.714,19.815        c-0.582,1.158-2.23,1.091-2.717-0.11c-3.73-9.202-10.146-16.348-18.827-21.29        C365.593,411.459,365.624,409.984,366.661,409.436z"/>
						<path style="fill:#FFFFFF;" d="M82.41,412.553c7.462-3.938,13.383-9.959,16.691-18.288c0.418-1.053,1.919-1.003,2.31,0.061        c3.165,8.619,7.131,15.175,14.329,19.55c0.821,0.499,0.79,1.692-0.059,2.142c-6.857,3.635-11.981,9.426-15.485,16.396        c-0.482,0.958-1.845,0.902-2.248-0.091c-3.086-7.614-8.396-13.527-15.579-17.617C81.526,414.226,81.551,413.006,82.41,412.553        z"/>
					</g>
				</g>
				<path style="fill:#222A30;" d="M138.231,281.509c-1.087-0.466-2.225-0.751-3.39-0.88c0.155-0.285,0.31-0.569,0.44-0.88      c-1.261,0.089-2.529,0.195-3.801,0.31c-0.001-0.004-0.001-0.008-0.002-0.012c-0.052-0.57-0.155-1.165-0.233-1.734      c-1.397-8.1-5.823-15.915-11.878-21.609c0,0,0,0-0.026,0c-0.647-0.181-1.294-0.362-1.941-0.518      c-0.621-0.155-1.242-0.285-1.863-0.388c6.961,5.357,12.215,13.638,13.819,22.307c0.155,0.699,0.259,1.397,0.336,2.122      c0,0.002,0,0.004,0.001,0.005c-6.923,0.693-14.016,1.776-21.323,3.259c-0.001-0.001-0.001-0.002-0.002-0.003      c-0.285-0.544-0.595-1.087-0.932-1.63c-0.414-0.776-0.906-1.553-1.423-2.303c-6.625-9.86-17.364-16.769-29.32-18.969      c-1.061,0.44-2.07,0.906-3.105,1.398c12.344,1.397,23.653,8.074,30.563,18.011c0.518,0.751,1.009,1.501,1.475,2.303      c0.311,0.518,0.621,1.035,0.88,1.578c0,0.001,0.001,0.001,0.001,0.002c-9.317,1.968-18.981,4.574-29.09,7.852      c-3.976,1.282-7.932,2.659-11.877,4.077l0,0l-0.026-0.026c-7.841-5.305-16.718-7.919-26.086-7.738      c-0.569,0.621-1.165,1.242-1.708,1.863c9.187-0.517,17.96,1.734,25.698,6.651c0.003,0.002,0.007,0.004,0.01,0.007      c-15.864,5.793-31.455,12.497-46.671,19.104c-0.259,0.336-0.518,0.673-0.776,1.009c0.699,0.181,1.371,0.362,2.07,0.544      c18.77-8.148,38.146-16.423,57.867-22.949c0.436,12.079-2.384,24.313-8.023,34.996c0.621,0.129,1.242,0.233,1.863,0.362      c5.69-11.018,8.485-23.561,7.919-35.95c0.112-0.036,0.223-0.076,0.334-0.112c3.142-1.015,6.236-1.958,9.294-2.846      c1.757,13.815,0.334,27.888-4.142,41.056c0.621,0.078,1.242,0.129,1.863,0.181c4.501-13.399,5.873-27.73,4.065-41.751      c11.506-3.263,22.44-5.615,32.945-7.091c3.567,14.875,3.385,30.448-0.496,45.374c0.699-0.233,1.398-0.492,2.07-0.776      c3.647-14.795,3.726-30.158,0.238-44.851C128.73,282.224,133.519,281.771,138.231,281.509z"/>
			</g>
		</g>
	</g>
</g>















</svg>
