<?xml version="1.0" encoding="UTF-8"?>
<!-- Generator: Adobe Illustrator 25.2.1, SVG Export Plug-In . SVG Version: 6.00 Build 0)  -->
<svg xmlns="http://www.w3.org/2000/svg" xmlns:xlink="http://www.w3.org/1999/xlink" version="1.1" id="Capa_1" x="0px" y="0px" viewBox="0 0 512.003 512.003" style="enable-background:new 0 0 512.003 512.003;" xml:space="preserve" width="512" height="512">
<g>
	<path style="fill:#FFFFFF;" d="M10.042,476.575L7.63,464.516c-11.081-69.775-11.183-143.333,6.976-211.279   c4.969-18.474,11.365-36.416,19.005-53.301c6.149-13.664,13.219-26.925,21-39.388c0.557-0.888,1.103-1.756,1.653-2.618   c12.834-20.116,27.661-38.303,44.07-54.057c22.178-21.89,48.679-38.243,76.896-51.309c16.15-5.398,32.523-11.605,49.518-14.325   l0.071-0.077c19.077-3.819,55.181-2.653,65.085-2.243c1.658,0.069,3.314,0.203,4.958,0.428c13.502,1.846,26.613,4.995,39.111,9.399   c40.1,14.165,76.507,41.878,105.298,80.147c7.67,10.149,14.851,21.145,21.321,32.655c1.646,2.89,3.131,5.625,4.499,8.289   c1.419,2.668,2.692,5.16,3.887,7.611c0.403,0.787,0.912,1.799,1.423,2.899c6.623,13.731,12.328,28.107,16.958,42.728   c6.557,20.49,11.16,41.458,14.666,62.808l-0.026,0.039c1.477,9.342,2.708,18.717,3.724,28.081l0.042,0.034   c4.611,43.843,4.677,88.461,3.804,132.449c-0.111,6.124-0.245,12.238-0.379,18.353l-0.321,14.672l-14.677,0.062H10.042z"/>
	<g>
		<g>
			<g>
				<path style="fill:#FFDCCA;" d="M496.571,443.202c-0.112,6.139-0.246,12.256-0.381,18.373H22.339      c-0.045-0.224-0.067-0.448-0.112-0.672c-0.112-0.695-0.202-1.389-0.314-2.084c-1.076-6.968-2.039-14.026-2.868-21.107      c-0.112-0.874-0.224-1.748-0.314-2.621c-0.56-4.885-1.076-9.814-1.501-14.743c-0.045-0.426-0.067-0.829-0.112-1.255      c-0.807-9.388-1.389-18.821-1.725-28.277c-0.023-0.403-0.045-0.829-0.067-1.232c0-0.359-0.022-0.717-0.022-1.076      c-0.045-0.896-0.067-1.792-0.09-2.689c-0.067-2.353-0.112-4.728-0.157-7.08c0-0.717,0-1.434-0.023-2.129      c-0.045-4.257-0.045-8.492,0.023-12.727c0.09-5.557,0.246-11.113,0.538-16.67c0.336-7.686,0.874-15.371,1.613-23.034      c1.949-20.547,5.288-40.847,10.173-60.497c0.56-2.196,1.12-4.369,1.703-6.52c4.683-17.41,10.733-34.551,18.194-51.042      c20.39-45.306,51.042-85.861,91.351-114.609c5.086-3.63,10.352-7.036,15.752-10.217      c52.812-31.391,118.822-41.766,176.608-21.398c39.771,14.049,72.843,41.183,98.297,75.017      c7.416,9.814,14.161,20.188,20.233,30.988c1.479,2.599,2.913,5.221,4.28,7.887c1.3,2.442,2.554,4.885,3.764,7.372      c0.448,0.874,0.874,1.725,1.277,2.599c6.565,13.601,12.122,27.694,16.581,41.967c0.448,1.389,0.874,2.801,1.3,4.212      c1.12,3.697,2.173,7.417,3.159,11.158c0.336,1.21,0.65,2.42,0.941,3.63c1.412,5.445,2.711,10.934,3.876,16.424      c0.291,1.344,0.583,2.711,0.851,4.055c0.65,3.159,1.255,6.319,1.837,9.5c0.314,1.792,0.627,3.585,0.941,5.377      c0.045,0.202,0.067,0.403,0.112,0.605c0.269,1.703,0.56,3.406,0.829,5.109c0.023,0.202,0.067,0.426,0.09,0.627      c0.135,0.807,0.269,1.636,0.381,2.442c0.157,0.963,0.291,1.905,0.426,2.868c0.157,0.941,0.291,1.882,0.403,2.846      c0.358,2.487,0.695,4.974,1.008,7.461C497.467,348.557,497.467,396.215,496.571,443.202z"/>
			</g>
			<g>
				<path style="opacity:0.69;fill:#8FD971;" d="M496.571,443.202l-142.357,13.38l-252.354,4.993l-1.86-6.901      c1.949-25.387,16.021-49.585,37.105-63.858c10.531-7.148,22.72-11.718,35.312-13.578c2.532-0.358,5.086-0.627,7.641-0.762      c10.172-0.605,20.412,0.583,30.114,3.63c2.017-9.254,5.31-18.217,9.702-26.574c11.046-20.995,28.972-38.382,50.661-47.972      c30.338-13.399,67.063-11.36,95.743,5.288c7.484-19.471,15.124-35.94,28.792-51.714c13.668-15.752,31.727-28.232,52.095-32.736      c4.935-1.09,10.003-1.668,15.077-1.723c4.418-0.048,20.596,28.173,20.596,28.173c2.076,8.823,3.86,17.714,5.393,26.656      c0,0-10.066,12.826-9.111,20.369c0.706,5.575,14.328,18.939,14.328,18.939C497.454,359.97,497.36,401.846,496.571,443.202z"/>
				<path style="fill:#8FD971;" d="M496.571,443.202c-0.112,6.139-0.246,12.256-0.381,18.373h-20.009l-1.563-0.833l-0.852,0.833      h-29.829l-26.898-6.027l-24.602,6.027l-343.277,0c0,0-29.285-16.783-30.114-23.863c-0.112-0.874-0.224-1.748-0.314-2.621      c-0.56-4.885-3.428-82.321-3.137-87.878c0.336-7.686,0.874-15.371,1.613-23.034c3.787-2.017,7.663-3.832,11.652-5.423      c7.865-3.159,16.088-5.422,24.445-6.789c0.47-0.067,0.963-0.134,1.434-0.202c12.189-1.815,24.647-1.658,36.769,0.672      c4.571,0.874,9.052,2.061,13.466,3.54c8.649,2.891,16.917,6.879,24.602,11.786c6.587,4.19,12.727,9.052,18.329,14.497      c0.403,0.381,0.806,0.784,1.21,1.187c7.439,7.417,13.87,15.841,18.978,25.028c1.568,2.846,3.002,5.781,4.324,8.761      c0.605,1.322,1.143,2.666,1.68,4.033c1.949-1.636,3.943-3.227,5.96-4.795c12.212-9.455,25.521-17.365,39.816-22.944      c6.206-2.442,12.592-4.414,19.158-5.87c24.109-5.422,50.392-3.115,71.902,9.052c21.51,12.144,37.508,34.752,39.077,59.422      c29.89-13.018,64.463-17.813,95.967-9.433C466.457,412.146,485.39,425.545,496.571,443.202z"/>
			</g>
		</g>
		<g>
			<g>
				<path style="fill:#005E49;" d="M203.764,192.855c-0.224,0.269-0.403,0.538-0.627,0.829      c-9.478,13.063-17.029,23.146-23.616,31.795c-0.358,0.471-0.717,0.964-1.075,1.434c-6.476,8.47-12.055,15.55-17.746,22.765      c-0.381,0.493-0.762,0.963-1.12,1.456c-4.123,5.198-8.29,10.486-12.973,16.424c-4.638,5.938-9.411,11.718-14.295,17.455      c-0.358,0.403-0.717,0.807-1.053,1.21c-8.627,10.038-17.522,19.852-26.283,29.756c-2.667,3.003-5.333,6.027-7.977,9.075      c-0.381,0.403-0.762,0.829-1.12,1.299c-2.846,3.249-5.669,6.543-8.425,9.859c-6.722,8.066-13.197,16.222-19.449,24.535      c-0.426,0.515-0.829,1.053-1.21,1.591c-4.907,6.543-9.68,13.198-14.295,19.897c-0.359,0.515-0.695,1.031-1.076,1.568      c-7.26,10.621-14.116,21.443-20.569,32.512c-0.291,0.493-0.583,0.986-0.851,1.479c-1.143,1.972-2.285,3.966-3.406,5.96      c-2.599,4.616-5.109,9.276-7.551,13.959c-0.112-0.874-0.224-1.748-0.314-2.621c-0.56-4.885-1.076-9.814-1.501-14.743      c-0.045-0.426-0.067-0.829-0.112-1.255c-0.807-9.388-1.389-18.821-1.725-28.277c-0.023-0.403-0.045-0.829-0.067-1.232      c0-0.359-0.022-0.717-0.022-1.076c-0.045-0.896-0.067-1.792-0.09-2.689c-0.067-2.353-0.112-4.728-0.157-7.08      c0-0.717,0-1.434-0.023-2.129c-0.045-4.257-0.045-8.492,0.023-12.727c0.09-5.557,0.246-11.113,0.538-16.67      c2.375-5.983,4.952-11.853,7.73-17.589c0.202-0.448,0.426-0.896,0.65-1.322c1.568-3.227,3.182-6.408,4.885-9.545      c2.666-4.996,5.489-9.881,8.469-14.609c6.229-9.904,13.668-19.314,22.026-28.187c0.515-0.56,1.053-1.12,1.568-1.658      c12.951-13.466,27.963-25.655,44.073-36.388c0.717-0.448,1.412-0.941,2.129-1.389c10.374-6.789,21.152-12.996,32.109-18.552      c0.605-0.314,1.187-0.627,1.815-0.919c19.875-9.949,40.242-17.791,59.399-23.258c0.023-0.022,0.045-0.022,0.067-0.022      c0.134-0.045,0.269-0.067,0.381-0.112c0.269-0.09,0.516-0.157,0.784-0.224C202.374,193.236,203.069,193.034,203.764,192.855z"/>
				<g>
					<path style="fill:#222A30;" d="M203.764,192.855c-0.695,0.179-1.389,0.381-2.084,0.583c-0.381,0.09-0.762,0.201-1.143,0.313       l-0.022,0.023c-0.023,0-0.045,0-0.067,0.022c-20.367,9.478-43.692,22.138-66.816,38.405c-0.004,0.002-0.007,0.005-0.011,0.008       l0.005-0.009l7.429-15.14c-0.625,0.295-1.226,0.596-1.832,0.921l-7.709,15.715l-0.005,0.024l-0.006,0.007       c-11.913,8.464-23.758,17.936-35.089,28.414c0.002-0.006,0.004-0.013,0.006-0.02c2.808-8.826,6.4-17.403,10.697-25.596       c-0.711,0.454-1.403,0.939-2.114,1.393c-4.221,8.311-7.733,16.982-10.44,25.932l0.049,0.011l0.009,0.003       c-12.323,11.562-24.019,24.4-34.505,38.561c-0.001,0.001-0.001,0.002-0.002,0.003c0-0.002-0.001-0.005-0.001-0.007       c-1.508-9.343-1.213-18.9,0.817-28.126c-0.527,0.546-1.06,1.116-1.587,1.662c-1.753,9.007-1.892,18.318-0.355,27.413       l0.45-0.079l0.04-0.007c-0.004,0.005-0.008,0.011-0.012,0.016h-0.022c0,0.023-0.022,0.023-0.022,0.045       c-2.084,2.823-4.123,5.691-6.117,8.627c-6.722,9.859-13.018,20.3-18.799,31.212c-0.002,0.003-0.004,0.007-0.006,0.01       c-0.001-0.002-0.003-0.003-0.004-0.005c-3.914-4.654-7.446-9.656-10.52-14.889c-0.223,0.435-0.446,0.869-0.65,1.333       c3.109,5.189,6.627,10.137,10.551,14.741c-3.965,7.483-7.684,15.189-11.134,23.075c-0.002,0.003-0.002,0.006-0.004,0.008       c-0.046-0.009-0.076,0.008-0.123-0.002l0.022,0.205c-0.002,0.004-0.004,0.009-0.007,0.013v0.022       c-1.77,4.033-3.473,8.089-5.131,12.211c-0.852-1.075-1.681-2.173-2.465-3.293c0.023,0.695,0.023,1.412,0.023,2.129       c0.627,0.829,1.255,1.658,1.927,2.465c0,0,0,0.022,0.022,0.022c-0.627,1.524-1.21,3.047-1.793,4.593       c0.023,0.896,0.045,1.792,0.09,2.689c2.51-6.722,5.176-13.354,8.044-19.852c0,0,0,0,0-0.001       c14.539-0.492,29.213-2.634,43.438-6.325c0.395-0.524,0.796-1.073,1.216-1.591c-14.413,3.853-29.287,6.103-44.095,6.663       c0,0,0-0.001,0.001-0.002c6.901-15.64,14.788-30.585,23.527-44.522v-0.022c0.005-0.007,0.009-0.014,0.014-0.02l-0.006,0.034       l-0.141,0.758c16.134,2.913,32.379,3.815,48.58,2.721c0.355-0.457,0.729-0.883,1.127-1.305       c-16.432,1.221-32.937,0.339-49.294-2.599l-0.005-0.001c2.261-3.627,4.612-7.187,7.03-10.679       c1.792-2.644,3.63-5.243,5.512-7.797c4.84-6.587,9.948-12.884,15.259-18.911c0.002-0.002,0.003-0.004,0.005-0.006l0,0.009       l0.003,0.102l55.741,1.065c0.344-0.408,0.689-0.816,1.057-1.218l-55.812-1.08c6.16-6.943,12.61-13.505,19.24-19.71       c0,0,0.004-0.006,0.006-0.009l0.008,0.002c0.002-0.007,0.004-0.013,0.006-0.019c0.008-0.009,0.016-0.018,0.025-0.018       c2.731-2.574,5.484-5.059,8.26-7.477l0.001,0.022l0.006,0.205c18.553-0.678,37.155-2.618,55.516-5.781       c0.366-0.505,0.751-0.98,1.135-1.456c-18.3,3.228-36.882,5.198-55.427,5.954c-0.006,0-0.012,0.001-0.019,0.001       c0.002-0.002,0.004-0.003,0.006-0.005c8.557-7.437,17.316-14.27,26.142-20.587l0.013-0.002l0.024,0.005l0.558-0.106       c10.24-1.769,20.402-3.529,30.588-5.285c5.294-0.922,10.558-1.826,15.852-2.749c0.36-0.481,0.721-0.961,1.081-1.442       c-5.715,0.983-11.429,1.965-17.143,2.948c-9.526,1.646-18.979,3.308-28.553,4.943l-0.01-0.002       c24.062-16.982,48.326-29.998,69.319-39.677C203.36,193.392,203.54,193.124,203.764,192.855z"/>
					<path style="fill:#222A30;" d="M15.393,390.816c12.144-1.479,24.199-3.832,36.03-7.013c0.381-0.538,0.717-1.053,1.076-1.568       c-12.189,3.339-24.647,5.803-37.172,7.35C15.348,389.986,15.37,390.412,15.393,390.816z"/>
					<path style="fill:#222A30;" d="M17.23,420.347c4.302-0.717,8.559-1.568,12.771-2.554c0.269-0.493,0.56-0.986,0.852-1.479       c-4.549,1.098-9.119,2.016-13.735,2.778C17.163,419.518,17.185,419.921,17.23,420.347z"/>
				</g>
			</g>
			<g>
				<path style="fill:#5AAA5B;" d="M208.2,291.555c-0.022,0.045-0.022,0.112-0.045,0.157c-0.246,0.919-0.493,1.86-0.739,2.779      c-3.182,11.472-7.506,22.518-12.794,33.116c-0.336,0.65-0.65,1.322-1.008,1.972c-7.036,13.78-15.707,26.753-25.521,38.897      c-3.406,4.212-6.924,8.313-10.621,12.324c-7.417,8.156-15.348,15.886-23.616,23.191c-0.627,0.583-1.277,1.165-1.927,1.725      c-3.63,3.159-7.327,6.229-11.069,9.209c-4.145,3.316-8.38,6.543-12.66,9.657c-11.875,8.716-24.266,16.76-36.971,24.356      c-0.023,0-0.023,0-0.023,0c-0.784,0.493-1.591,0.986-2.397,1.479c0,0-0.022,0-0.045,0c-6.475,3.832-13.018,7.529-19.606,11.159      H22.339c-0.045-0.224-0.067-0.448-0.112-0.672c-0.112-0.695-0.202-1.389-0.314-2.084c-1.076-6.968-2.039-14.026-2.868-21.107      c-0.112-0.874-0.224-1.748-0.314-2.621c2.554-3.832,5.153-7.618,7.865-11.338c9.769-13.556,20.502-26.44,32.086-38.517      c0.56-0.583,1.12-1.165,1.703-1.748c19.247-19.852,40.757-37.486,64.015-52.453c0.627-0.403,1.255-0.829,1.905-1.232      c1.076-0.695,2.173-1.367,3.271-2.039C154.156,312.505,180.595,300.249,208.2,291.555z"/>
				<path style="fill:#222A30;" d="M207.416,294.49c0.246-0.919,0.493-1.86,0.739-2.779c-18.396,14.922-36.59,30.159-54.604,45.686      c-0.004,0.003-0.007,0.006-0.011,0.009l-0.303,0.065l0.043,0.152l-5.375,4.636c-9.343,8.066-18.642,16.244-27.873,24.49      l6.272-36.941c-0.65,0.403-1.277,0.829-1.905,1.233l-6.296,37.015l0.398,0.066c-19.783,17.609-39.297,35.555-58.497,53.815      c0,0,0,0,0,0l0.381-38.443c-0.583,0.582-1.143,1.165-1.703,1.748l-0.381,38.286c-12.256,11.651-24.378,23.414-36.388,35.29      c0.112,0.695,0.202,1.389,0.314,2.084c5.264-5.241,10.572-10.438,15.903-15.612c0.002,0,0.003,0.001,0.005,0.001      c10.105,2.442,20.345,4.145,30.629,5.131c0.023,0,0.045,0,0.045,0c0.807-0.493,1.613-0.986,2.398-1.479      c-10.643-0.896-21.219-2.577-31.638-5.041c-0.002,0-0.003-0.001-0.005-0.001c0.002-0.002,0.004-0.004,0.006-0.005      c14.428-14.047,29.034-27.892,43.798-41.58c0.003,0,0.003,0,0.007,0c14.9,2.285,29.935,3.428,44.97,3.428      c1.187,0,2.375,0,3.585-0.022c0.65-0.56,1.3-1.143,1.927-1.726c-16.334,0.314-32.691-0.739-48.913-3.137      c-0.002,0-0.004,0-0.006-0.001c0.002-0.002,0.004-0.004,0.006-0.006c21.062-19.494,42.483-38.651,64.172-57.405      c1.744-1.498,3.488-3.019,5.233-4.517l0.01-0.002l39.256-9.344c0.358-0.65,0.672-1.322,1.008-1.972l-37.508,8.94l-0.011,0.003      c0.004-0.003,0.007-0.006,0.011-0.01C173.716,322.274,190.499,308.248,207.416,294.49z"/>
			</g>
		</g>
		<g>
			<path style="fill:#393528;" d="M245.148,342.978c1.434-0.762,2.823-1.546,4.235-2.33c12.055-6.789,23.885-14.318,35.335-21.6     c19.269-12.256,39.166-24.916,60.273-34.058c27.941-12.1,58.615-18.306,88.304-24.311c16.132-3.271,29.602-6.587,45.824-10.89     c-0.695-2.913-1.653-4.963-2.437-7.854c-16.021,4.28-29.137,6.734-45.158,9.96c-13.466,2.733-27.134,5.49-40.712,8.828     c6.341-6.789,11.562-14.631,16.11-22.115c3.585-5.893,6.856-12.032,10.016-17.97c4.459-8.38,9.075-17.051,14.52-24.894     c5.131-7.372,12.637-16.088,22.339-21.958c-1.367-2.666-2.801-5.288-4.28-7.887c-11.158,6.655-19.65,16.491-25.409,24.737     c-5.758,8.268-10.486,17.186-15.079,25.79c-3.115,5.826-6.319,11.853-9.769,17.522c-7.887,13.018-17.88,27.134-32.086,33.296     l0.023,0.045c-8.739,2.711-17.343,5.848-25.767,9.478c-21.757,9.411-41.968,22.272-61.528,34.73     c-11.338,7.215-23.079,14.676-34.909,21.353c-21.331,11.987-44.208,22.048-66.323,31.772     c-17.118,7.528-34.819,15.303-51.803,23.975c-41.855,21.376-72.059,45.351-91.821,72.978h11.181     c18.933-24.266,46.852-45.664,84.719-64.979c16.737-8.559,34.327-16.29,51.333-23.773c14.9-6.565,30.159-13.264,45.104-20.636     c0,0,0,0,0.023,0c0.016-0.008,0.033-0.017,0.049-0.025c6.843-2.141,14.168-3.218,21.495-3.699     c11.639-0.763,23.453-0.12,35.331,0.44c11.852,0.533,23.794,1.274,35.803,0.789c11.97-0.48,24.111-2.275,35.32-6.883     c0.618-0.255,0.929-0.958,0.691-1.588c-0.242-0.643-0.959-0.968-1.602-0.725c-10.971,4.131-22.769,5.529-34.503,5.652     c-11.766,0.127-23.564-0.952-35.427-1.841c-11.83-0.906-23.784-1.929-35.905-1.5c-1.179,0.044-2.364,0.107-3.551,0.182     c0.007-0.004,0.015-0.008,0.022-0.012C245.148,342.978,245.148,342.978,245.148,342.978z"/>
			<g>
				<g>
					<path style="fill:#FFCE2E;" d="M358.92,243.915c-3.51,5.675-10.029,8.815-16.522,10.24c-6.493,1.452-13.223,1.452-19.821,2.428       c-2.402,0.369-4.804,0.871-7.126,1.61c0,0-5.06-0.202-6.3,0.379c-2.138,0.977-3.36,4.82-3.36,4.82       c-0.396,0.343-0.792,0.713-1.161,1.109c-0.686,0.739-1.32,1.531-1.9,2.349c-0.871,1.214-1.61,2.481-2.296,3.801       c-0.976,2.428-1.9,4.936-2.85,7.469c-0.66,1.821-1.346,3.642-2.032,5.437c-4.962,13.038-11.797,27.528-24.809,37.637       c0,0-5.007,0.245-6.009,0.932c-1.98,1.346-2.911,4.716-2.911,4.716c-15.071,7.759-31.83,7.865-46.61,7.258l-1.346-0.053       c-9.449-0.396-18.475-0.765-25.76,1.056c0,0-2.181-0.661-2.365-0.608c-1.874,0.475-3.616,1.109-5.199,1.927       c-1.478,0.766-2.306,3.669-2.306,3.669c-0.159,0.159-0.317,0.29-0.475,0.449c-4.988,4.988-7.68,12.748-6.202,19.478       c2.138,9.977-4.197,19.795-14.173,21.959c-1.32,0.29-2.613,0.422-3.906,0.422c-8.525,0-16.179-5.938-18.053-14.595       c-1.188-5.463-1.504-11.032-1.029-16.469c0.039-0.513,1.247-0.812,1.3-1.322c0.053-0.513-1.049-1.237-0.983-1.74       c0.898-6.361,2.798-12.51,5.648-18.238c0.283-0.565,1.686-0.9,1.99-1.461c0.235-0.434-0.633-1.096-0.38-1.522       c4.698-8.288,11.402-15.467,19.663-20.587c0,0,3.194,1.416,4.487,0.756c1.742-0.897,3.484-1.689,5.226-2.349       c0.369-0.159,0.369-3.316,0.369-3.316c3.009-1.161,6.044-2.059,9.053-2.718c11.85-2.639,23.727-2.164,34.601-1.716l1.346,0.053       c7.918,0.317,16.496,0.449,23.384-1.399c0,0,4.165,1.507,6.171,0.161c0.845-0.581,3.199-5.15,3.199-5.15       c5.12-4.856,8.71-12.933,11.56-20.428c0.66-1.689,1.293-3.378,1.927-5.094c0.713-1.953,1.452-3.959,2.243-5.991       c0.204-0.509,1.181-0.539,1.389-1.059c0.17-0.424-0.432-1.338-0.254-1.765c2.771-7.02,6.15-14.305,10.953-21.088       c2.059-3.405,4.751-6.572,7.812-9.396c0,0,2.769,0.842,4.273-0.32c1.584-1.214,4.991-6.727,4.991-6.727       c1.451-0.898,2.903-1.742,4.381-2.507c1.927-1.03,3.827-1.927,5.701-2.719c7.443-3.141,15.466-4.83,23.543-4.83       c9.502,0,19.452,2.507,26.314,9.079C361.163,224.543,363.935,235.839,358.92,243.915z"/>
					<path style="fill:#393528;" d="M270.741,321.194c-0.924,0.739-1.9,1.425-2.903,2.111c-1.98,1.346-3.986,2.507-6.018,3.537       c-3.933-5.648-8.34-11.983-12.695-18.185c-3.035-4.329-6.097-8.71-9.027-12.88c2.613-0.713,4.962-1.689,6.968-3.035       c0.845-0.581,1.636-1.214,2.402-1.953c2.692,3.853,5.49,7.865,8.287,11.824C262.216,308.974,266.729,315.414,270.741,321.194z"/>
					<path style="fill:#393528;" d="M344.416,230.167c0,3.722-3.017,6.739-6.739,6.739s-6.738-3.017-6.738-6.739       c0-3.722,3.017-6.738,6.738-6.738S344.416,226.445,344.416,230.167z"/>
					<path style="fill:#393528;" d="M315.451,258.194c-1.32,0.422-2.587,0.897-3.827,1.478c-2.138,0.977-4.117,2.164-5.833,3.721       c-9.924-10.425-17.155-23.463-20.692-37.425c1.372-1.293,2.85-2.507,4.355-3.669c1.584-1.214,3.22-2.322,4.909-3.378       C297.054,233.728,304.603,247.716,315.451,258.194z"/>
					<path style="fill:#393528;" d="M188.104,335.104c-0.185,0.026-0.396,0.079-0.581,0.132c-1.874,0.475-3.616,1.109-5.199,1.927       c-1.478,0.765-2.877,1.769-4.091,2.93c-1.399-9.633-5.041-18.924-10.689-26.974c-1.187-1.663-3.246-4.302-5.912-6.651       c1.214-0.766,2.481-1.478,3.774-2.138c1.742-0.897,3.484-1.689,5.226-2.349c0.369-0.159,0.712-0.291,1.082-0.422       c1.557,1.636,3.035,3.484,4.46,5.49C182.086,315.467,186.125,325.074,188.104,335.104z"/>
				</g>
				<g>
					<path style="fill:#393528;" d="M156.802,354.423c-0.264,0.554-0.818,0.897-1.399,0.897c-0.211,0-0.422-0.053-0.607-0.158       c-6.361-2.877-13.434-4.17-20.402-3.827c0.079-1.029,0.185-2.059,0.317-3.062c7.311-0.29,14.675,1.082,21.326,4.117       C156.802,352.734,157.145,353.658,156.802,354.423z"/>
					<path style="fill:#393528;" d="M160.523,335.183c-0.29,0.422-0.792,0.686-1.267,0.686c-0.291,0-0.581-0.079-0.845-0.264       c-5.384-3.51-11.666-5.437-18.053-5.569c0.501-1.003,1.029-2.006,1.61-2.982c6.414,0.396,12.695,2.455,18.106,6.017       C160.787,333.52,160.972,334.47,160.523,335.183z"/>
					<path style="fill:#393528;" d="M282.433,269.543c-0.264,0.211-0.581,0.317-0.924,0.317c-0.449,0-0.897-0.211-1.188-0.607       c-3.721-4.856-9.185-8.366-15.123-9.977c0.37-0.924,0.739-1.874,1.135-2.824c6.44,1.848,12.352,5.648,16.39,10.953       C283.225,268.065,283.119,269.042,282.433,269.543z"/>
				</g>
			</g>
		</g>
		<g>
			<g>
				<path style="fill:#222A30;" d="M66.907,169.17c32.161-9.03,65.134-15.412,98.566-18.968c25.198-2.68,51.659-3.618,74.504,7.557      l1.135-2.322c-23.432-11.464-50.333-10.527-75.912-7.805c-32.539,3.461-64.703,9.607-96.29,18.365      C68.237,167.051,67.567,168.107,66.907,169.17z"/>
				<path style="fill:#FFF2E8;" d="M142.786,147.37c9.701,1.032,19.402,2.064,29.104,3.096      c-16.088,4.608-30.222,13.193-43.071,23.915c-5.572,4.65-10.873,10.029-13.43,16.821c-2.556,6.792-1.751,15.275,3.58,20.199      c3.8,3.509,9.31,4.716,14.458,4.215c5.148-0.502,10.018-2.536,14.656-4.826c16.843-8.317,31.821-20.385,43.53-35.075      c-4.561,6.936-8.167,15.996-11.169,23.735c-3.002,7.739-4.327,16.377-2.153,24.388c2.174,8.011,8.285,15.214,16.332,17.248      c8.479,2.143,17.748-1.818,23.405-8.488c5.657-6.671,8.077-15.607,8.377-24.348c0.3-8.741-1.348-17.418-2.989-26.009      c6.242,11.013,18.637,19.008,29.084,26.158c7.389,5.058,16.594,9.012,25.15,6.369c8.314-2.568,13.867-11.149,14.513-19.826      c0.647-8.678-2.932-17.247-8.154-24.207c-5.223-6.96-12.016-12.555-18.739-18.079c18.13,4.569,38.434,1.751,55.729-5.353      c5.536-2.274,10.962-5.209,14.912-9.704c3.951-4.495,6.228-10.79,4.741-16.587c-1.673-6.521-7.751-11.172-14.215-13.053      c-6.464-1.881-13.343-1.479-20.063-1.06c-9.592,0.599-19.183,1.197-28.775,1.795c9.12-9.716,18.026-22.183,21.999-34.902      c2.489-7.97-0.605-17.267-6.918-21.26c-1.629-1.03-3.615-1.773-5.751-2.249c-2.481-0.236-4.967-0.417-7.457-0.558      c-3.178,0.201-6.24,0.946-8.634,2.254c-19.709,10.76-28.755,23.192-34.977,44.768c2.833-17.461,2.474-30.892-1.533-44.604      c-18.122,2.932-35.948,8.162-52.908,15.422c2.98,8.029,7.03,15.66,12.072,22.583c-14.811-6.223-29.87-6.821-45.785-4.75      c-3.079,1.964-6.113,3.996-9.079,6.112c-11.227,8.007-21.704,16.933-31.42,26.62c-0.603,6.354,0.871,12.746,4.955,17.655      C119.33,144.401,131.642,146.184,142.786,147.37z"/>
				<path style="fill:#DA9C39;" d="M194.469,136.837c-3.14,7.775-4.311,17.215,0.435,24.129c4.488,6.538,13.356,9.033,21.167,7.664      c7.811-1.368,14.689-5.97,20.632-11.22c12.585-11.115,28.362-39.594,6.071-50.004      C222.758,98.058,201.215,120.133,194.469,136.837z"/>
			</g>
			<g>
				<path style="fill:#005E49;" d="M471.856,451.705c-16.112-14.532-36.973-23.709-58.571-25.768      c-21.599-2.059-43.818,3.012-62.385,14.237c12.15,10.747,26.405,17.772,41.537,21.401h51.503      C453.516,459.42,462.917,456.115,471.856,451.705z"/>
				<path style="fill:#222A30;" d="M392.683,324.842l-1.695,1.465c34.481,39.903,62.753,86.197,82.769,135.268h2.423      C456.054,411.965,427.521,365.158,392.683,324.842z"/>
				<path style="fill:#FFF2E8;" d="M493.403,318.426c-0.536-5.475-1.139-10.938-1.829-16.385c-0.313-2.487-0.65-4.974-1.008-7.461      c-0.112-0.964-0.247-1.904-0.403-2.846c-0.134-0.963-0.269-1.904-0.426-2.868c-0.112-0.807-0.247-1.635-0.381-2.442      c-0.022-0.201-0.067-0.426-0.09-0.627c-0.269-1.703-0.56-3.406-0.829-5.109c-0.045-0.202-0.067-0.403-0.112-0.605      c-0.088-0.503-0.176-1.006-0.264-1.51c-12.822-2.766-26.305-2.479-38.98,0.911c11.4-5.024,20.449-12.434,29.131-21.369      c1.611-1.658,3.181-3.493,4.575-5.446c-0.629-2.655-1.284-5.305-1.968-7.944c-0.291-1.21-0.605-2.42-0.941-3.63      c-0.986-3.742-2.039-7.461-3.159-11.158c-0.426-1.412-0.852-2.823-1.3-4.212c-0.165-0.528-0.342-1.054-0.51-1.582      c-1.76-0.418-3.574-0.616-5.356-0.583c-7.106,0.133-13.802,3.224-20.046,6.619c-18.051,9.814-34.421,22.711-48.185,37.965      c-16.845,18.667-36.261,26.402-57.041,40.56c-28.685,19.542-51.024,48.249-62.919,80.857c-1.545,4.235-2.936,8.662-2.639,13.161      c0.297,4.498,2.627,9.121,6.744,10.957c3.799,1.694,8.365,0.699,11.882-1.523c3.516-2.222,6.197-5.516,8.812-8.751      c9.685-11.983,19.369-23.965,29.054-35.948c-8.353,17.444-12.807,36.528-11.622,55.833c0.386,6.279,1.354,12.711,4.537,18.138      c3.184,5.427,9.001,9.676,15.288,9.445c6.357-0.234,11.854-4.958,14.829-10.581c2.975-5.622,3.894-12.07,4.767-18.371      c2.655-19.17,5.311-38.339,7.966-57.508c-0.118,19.278,5.749,37.793,16.32,53.914c3.635,5.544,7.998,10.861,13.85,13.977      c5.852,3.116,13.464,3.617,18.896-0.184c7.237-5.065,8.177-15.323,7.602-24.137c-1.209-18.537-6.105-36.823-14.283-53.5      c8.944,15.121,22.72,27.043,37.53,36.786c8.752,5.758,19.892,10.318,29.478,6.092c10.544-4.649,14.371-18.671,10.767-29.617      c-3.603-10.946-12.733-19.15-22.314-25.554c-9.581-6.403-20.051-11.613-28.597-19.343      C457.609,327.397,476.589,325.081,493.403,318.426z"/>
				<path style="fill:#DA9C39;" d="M336.244,310.142c-1.687,4.165-3.102,8.563-2.927,13.054c0.175,4.49,2.197,9.121,6.055,11.426      c6.685,3.993,15.094-0.28,21.654-4.476c17.117-10.949,34.234-21.898,51.351-32.847c8.369-5.353,17.732-12.458,17.548-22.392      c-0.441-23.791-36.162-18.06-50.305-12.866C359.881,269.29,343.831,291.412,336.244,310.142z"/>
			</g>
		</g>
	</g>
</g>















</svg>
