<?xml version="1.0" encoding="UTF-8"?>
<!-- Generator: Adobe Illustrator 25.2.1, SVG Export Plug-In . SVG Version: 6.00 Build 0)  -->
<svg xmlns="http://www.w3.org/2000/svg" xmlns:xlink="http://www.w3.org/1999/xlink" version="1.1" id="Capa_1" x="0px" y="0px" viewBox="0 0 512 512" style="enable-background:new 0 0 512 512;" xml:space="preserve" width="512" height="512">
<g>
	<path style="fill:#FFFFFF;" d="M79.127,501.744c-11.827,0-17.719-10.958-25.35-27.676c-4.875-10.681-9.743-22.927-12.651-30.243   c-0.901-2.267-1.679-4.225-2.016-5.016C20.058,393.855,7.808,348.151,2.691,302.949c-5.6-49.47-2.45-97.122,9.362-141.634   c13.995-52.704,41.841-96.661,78.408-123.775c24.782-18.375,51.838-27.307,82.716-27.307c37.638,0,74.515,13.441,108.76,27.966   c13.478,5.698,27.668,10.837,41.391,15.806c2.291,0.829,4.581,1.658,6.87,2.491c34.289,12.474,76.938,27.988,109.2,57.998   c1.539-0.186,3.018-0.276,4.5-0.276c0.163,0,0.61,0.003,0.61,0.003c0.242,0,0.486,0.006,0.729,0.017   c7.94,0.27,14.969,3.375,19.814,8.759c4.645,5.195,7.012,12.208,6.698,19.784c-0.136,3.175-0.703,6.077-1.423,8.722   c13.437,20.59,23.699,43.944,30.546,69.54c10.53,39.417,13.606,82.446,9.145,127.896c-3.979,40.535-13.817,82.174-29.241,123.761   c-0.145,0.39-0.474,1.416-0.737,2.241c-2.984,9.334-7.493,23.438-19.996,26.401C457.639,501.912,79.127,501.744,79.127,501.744z"/>
	<g>
		<path style="fill:#304554;" d="M466.713,467.481c-1.492,4.002-4.974,18.041-10.129,19.262c-1.915,0.456-23.939,0.694-56.472,0.792    c0,0-46.008-7.557-48.966-7.587c-2.885-0.03-38.338,7.61-38.338,7.61c-11.908-0.018-24.069-0.041-36.276-0.069h-2.848    c-0.668-0.002-1.342,0-2.011-0.002c0,0-0.75-0.384-1.238-0.385c-0.49-0.002-1.674,0.385-1.674,0.385l-22.182-0.07    c0,0-0.965-0.696-1.493-0.697c-0.529-0.001-1.673,0.697-1.673,0.697c-3.25-0.008-6.492-0.027-9.724-0.041    c-0.837,0-1.673,0-2.51-0.022c-0.181,0.022-0.362,0-0.543,0h-2.487c-0.088,0-0.177,0.018-0.265,0.018c0,0-1.193-0.703-1.588-0.705    c-0.46-0.001-0.977,0.681-0.977,0.681l-0.555,0c0,0-0.959-0.555-1.443-0.556c-0.366-0.001-1.099,0.556-1.099,0.556    c-1.779-0.006-3.552-0.012-5.319-0.017l-65.1-15.583l-57.875,15.072c-9.393-0.047-14.723-0.076-14.723-0.076    c-5.742,0-23.58-47.432-26.293-53.808c-35.337-83.38-50.055-178.493-26.361-267.773c12.073-45.465,36.286-88.466,72.844-115.574    c56.227-41.69,118.264-22.36,176.684,2.419c16.097,6.805,32.579,12.615,48.992,18.584c36.852,13.407,75.195,27.876,104.338,55.097    c28.328,26.452,47.025,62.037,56.973,99.228C507.611,304.385,494.928,391.405,466.713,467.481z"/>
		<g>
			<path style="fill:#5AAA5B;" d="M493.859,303.49c-3.23-6.672-7.579-12.793-12.767-18.085c-3.534-3.604-8.972-9.095-14.26-11.613     c-0.025-0.059-0.059-0.118-0.118-0.158c-9.89-8.179-24.331-10.929-38.634-7.325c-2.656,0.67-5.312,1.547-7.968,2.656     c1.661-1.098,3.216-2.169,4.337-2.953c4.306-3.014,8.593-6.054,12.861-9.121c8.342-5.995,16.61-12.091,24.803-18.288     c2.284-1.727,4.615-3.521,6.102-5.967c1.487-2.446,1.96-5.727,0.413-8.136c-1.636-2.548-5.097-3.421-8.066-2.83     c-2.97,0.591-5.555,2.36-7.984,4.168c-8.484,6.314-16.217,13.633-23.013,21.734c-3.399,4.051-6.564,8.298-9.473,12.714     c-2.283,3.466-4.52,7.408-6.765,11.909c-0.004,0.002-0.008,0.004-0.013,0.006c-6.562,3.605-13.102,8.48-19.548,14.604     c-13.494,12.824-23.939,28.028-32.65,44.041c-0.011,0.019-0.021,0.038-0.031,0.057c3.214-7.809,5.982-15.798,8.637-23.811     c2.46-7.43,5.09-14.802,7.512-22.245c1.203-3.696,3.258-7.725,2.414-11.718c-0.693-3.278-3.864-6.367-7.365-4.837     c-1.395,0.61-2.484,1.761-3.366,3.002c-1.421,1.998-2.34,4.202-3.045,6.489c-0.743,2.412-1.246,4.917-1.844,7.368     c-1.317,5.399-2.381,10.855-3.184,16.354c-1.616,11.064-2.219,22.272-1.943,33.448c-0.001,0.002-0.002,0.004-0.003,0.006     c-5.222,9.936-9.82,20.103-14.141,30.177c-2.403,5.592-4.737,11.253-7.07,16.891c-4.76,11.484-9.612,23.199-15.019,34.637     c-0.005,0.01-0.009,0.019-0.014,0.029c5.361-18.449,7.819-36.979,5.197-56.388c-0.362-2.68-0.836-5.425-2.252-7.729     c-1.415-2.304-3.99-4.089-6.68-3.809c-3.369,0.351-5.709,3.806-6.038,7.176c-0.329,3.371,0.839,6.683,1.875,9.907     c2.997,9.324,5.002,18.964,5.999,28.707c0.793,7.751,1.677,16.828,0.586,24.851c-0.005,0.01-0.009,0.019-0.014,0.029     c-4.83,10.028-10.144,19.872-16.221,29.161c-7.833,11.946-16.66,22.275-26.18,30.755c-0.02,0.018-0.041,0.035-0.062,0.053     c9.51-15.081,13.748-35.744,14.311-52.797c0.082-2.473,0.071-5.021-0.845-7.319c-0.916-2.298-2.939-4.315-5.405-4.52     c-2.974-0.247-5.624,2.218-6.638,5.026c-1.013,2.808-0.782,5.888-0.601,8.868c1.089,18.022-0.66,35.581-3.776,53.269     c-0.004,0.003-0.007,0.006-0.011,0.009c-2.334,1.964-4.714,3.813-7.14,5.546h2.912c10.49-7.833,20.311-17.815,29.091-29.669     c0,0,0,0,0-0.001c4.228-1.05,9.438-3.074,13.361-4.663c4.993-2.023,9.89-4.283,14.669-6.769     c9.465-4.923,18.469-10.734,26.843-17.345c2.108-1.665,4.224-3.435,5.543-5.774c1.319-2.34,1.695-5.393,0.271-7.67     c-2.303-3.683-7.74-3.548-11.858-2.168c-9.948,3.333-17.732,11.007-25.137,18.44c-4.568,4.585-9.222,9.143-14.022,14.534     c-1.348,1.514-3.846,4.091-6.201,6.539c0.791-1.11,1.561-2.24,2.308-3.394c10.624-16.189,18.846-33.949,26.376-51.662     c2.5-2.142,5.116-3.768,8.078-5.466c13.429-7.703,29.133-12.136,41.76-21.264c2.609-1.886,5.177-4.08,6.41-7.053     c1.234-2.973,0.71-6.896-1.958-8.698c-1.513-1.021-3.468-1.216-5.266-0.897c-1.797,0.319-3.474,1.105-5.106,1.924     c-4.27,2.142-8.397,4.569-12.351,7.251c-6.941,4.709-13.346,10.206-19.062,16.344c-2.822,3.03-5.476,6.217-7.943,9.542     c-0.895,1.206-1.719,2.362-2.566,3.626c0.001-0.002,0.001-0.003,0.002-0.005c1.479-3.512,2.934-7.001,4.367-10.491     c2.334-5.661,4.668-11.299,7.07-16.891c2.403-5.661,4.922-11.368,7.602-17.03c0.004-0.009,0.009-0.018,0.013-0.027     c1.169-0.895,3.916-3.211,6.274-4.716c8.837-5.641,14.579-7.163,21.789-9.551c11.303-3.743,23.067-6.255,33.85-11.305     c2.615-1.225,5.236-2.654,7.056-4.896c1.82-2.242,2.677-5.481,1.423-8.083c-1.039-2.156-3.336-3.498-5.687-3.941     c-2.352-0.443-4.777-0.111-7.131,0.322c-7.784,1.43-15.344,4.018-22.412,7.573c-12.263,6.169-23.07,15.262-31.166,26.354     c9.587-19.079,21.184-37.44,36.983-52.454c0.763-0.739,1.525-1.433,2.311-2.126c0.007-0.007,0.015-0.013,0.022-0.019     c8.74-2.707,17.143-4.009,26.328-1.602c9.379,2.458,17.861,8.21,23.614,16.015c1.58,2.143,2.977,4.453,4.912,6.283     c1.935,1.83,4.572,3.154,7.205,2.755c4.252-0.644,6.726-5.683,5.945-9.912c-0.781-4.229-3.9-7.634-7.222-10.365     c-8.682-7.14-19.732-11.348-30.964-11.791c-8.953-0.353-18.953,1.637-27.016,6.192c9.388-7.925,18.937-13.133,28.44-15.509     c13.068-3.279,26.735-0.927,36.047,6.177c8.263,11.122,9.637,25.66,18.319,36.47c1.329,1.655,2.892,3.207,4.857,4.01     c1.965,0.803,4.402,0.719,6.018-0.658C496.632,311.525,495.503,306.886,493.859,303.49z"/>
			<g>
				<g>
					<g>
						<path style="fill:#FFB329;" d="M133.193,197.753c-0.184,13.656-1.017,24.793-16.498,26.319        c-10.282,1.017-20.796-0.786-30.524-4.159c-3.536-1.225-7.025-2.68-10.398-4.367c-1.063-0.508-2.103-1.063-3.119-1.641        c-11.369-6.216-21.258-15.019-27.82-26.134c-7.209-12.223-9.844-27.381-6.493-41.061c0.139-0.647,0.3-1.271,0.508-1.895        c0.809-2.819,1.872-5.569,3.235-8.203c7.302-14.21,23.199-24.008,38.981-23.153c0.647,0.046,1.317,0.093,1.964,0.162        c1.155,0.139,2.288,0.324,3.443,0.555c16.567,3.559,28.675,18.092,35.908,33.435c0.393,0.855,0.786,1.71,1.155,2.565        c0.254,0.532,0.485,1.063,0.693,1.594C130.375,166.259,133.402,182.04,133.193,197.753z"/>
						<path style="fill:#222A30;" d="M110.41,171.296c-0.092-0.069-0.162-0.115-0.254-0.162c0.254-2.033,0.763-4.044,1.525-5.938        c2.334-5.8,6.932-10.652,12.547-13.425c-0.208-0.532-0.439-1.063-0.693-1.594c-6.031,2.981-10.976,8.134-13.448,14.372        c-0.739,1.825-1.248,3.72-1.548,5.661c-4.921-2.495-10.629-2.519-14.742,0.093c-0.947,0.601-1.779,1.294-2.495,2.103        c-0.393,0.416-0.74,0.855-1.063,1.34c-2.704,3.859-3.304,9.104-2.496,13.402c0.185,1.017,0.439,2.01,0.739,2.981        c-4.991-1.779-10.074-1.34-13.656,1.155c-5.037,3.512-6.193,10.213-5.107,15.32c0.555,2.657,1.618,5.084,2.935,7.302        c1.016,0.577,2.056,1.132,3.119,1.641c-1.964-2.773-3.651-5.869-4.367-9.312c-0.97-4.529,0.023-10.467,4.413-13.517        c3.166-2.218,7.764-2.542,12.293-0.878c0.393,0.139,0.763,0.3,1.155,0.462c1.641,4.09,4.09,7.833,6.331,11.253        c2.149,3.281,4.598,4.552,6.747,3.512c1.987-0.971,2.403-3.581,1.617-5.453c-0.74-1.756-2.288-3.004-3.535-3.997        c-3.05-2.426-6.193-4.922-9.797-6.608c-0.532-1.363-0.924-2.75-1.202-4.182c-0.97-5.199,0.301-11.877,5.315-15.065        c4.251-2.703,9.659-1.872,13.564,0.3c-0.578,6.585,1.202,13.448,5.107,18.786c1.686,2.264,3.512,3.281,5.314,2.958        c2.08-0.393,3.235-2.449,3.327-4.298c0.093-1.779-0.624-3.466-1.294-4.899C117.758,178.228,114.477,174.022,110.41,171.296z         M99.366,198.977c1.132,0.901,2.449,1.941,3.004,3.304c0.462,1.109,0.254,2.727-0.786,3.235        c-1.849,0.901-3.928-2.01-4.529-2.912c-1.849-2.819-3.836-5.846-5.361-9.104C94.421,195.05,96.916,197.037,99.366,198.977z         M118.405,192.092c-1.363,0.254-2.703-1.086-3.581-2.288c-3.489-4.76-5.176-10.791-4.853-16.706        c3.558,2.542,6.493,6.447,9.22,12.247c0.624,1.294,1.202,2.68,1.132,4.067C120.277,190.567,119.538,191.884,118.405,192.092z"/>
						<path style="fill:#222A30;" d="M91.394,173.699c-0.185,0.162-0.393,0.254-0.624,0.254c-0.185,0-0.393-0.069-0.531-0.208        c-0.023,0-0.046-0.023-0.069-0.046c-9.312-9.22-19.918-16.937-31.541-22.922c-4.09-2.126-8.526-4.136-13.309-4.645        c-2.449-0.254-4.852-0.046-6.978,0.578c0.139-0.647,0.3-1.271,0.508-1.895c2.079-0.485,4.344-0.624,6.655-0.393        c1.155,0.115,2.288,0.324,3.397,0.624c0.601,0.116,1.178,0.277,1.733,0.462c3.166,0.947,6.147,2.357,8.781,3.72        c7.348,3.789,14.28,8.226,20.727,13.309c1.271,0.993,2.519,2.01,3.743,3.073c2.565,2.149,5.037,4.413,7.417,6.794l0.069,0.069        C91.717,172.798,91.717,173.352,91.394,173.699z"/>
						<path style="fill:#222A30;" d="M83.884,165.611c0.069,0.347-0.069,0.716-0.37,0.901c-0.162,0.092-0.324,0.138-0.462,0.138        c-0.301,0-0.578-0.138-0.74-0.416c-0.716-1.132-1.456-2.38-2.172-3.697c-3.812-7.001-7.302-16.452-6.493-26.688        c0.323-3.998,1.132-7.926,2.403-11.715c0.185-0.555,0.37-1.132,0.601-1.687c1.155-3.142,2.634-6.169,4.413-8.989        c0.647,0.046,1.317,0.093,1.964,0.162c-4.344,6.678-7.001,14.419-7.648,22.367c-0.947,11.669,4.044,22.39,8.388,29.323        C83.838,165.404,83.861,165.496,83.884,165.611z"/>
						<path style="fill:#222A30;" d="M49.758,146.492c-0.463,0-0.846-0.365-0.867-0.83c-0.16-3.84,2.157-7.665,5.639-9.3        c2.297-1.079,5.005-1.157,7.397-0.346c-1.596-3.715-1.088-8.324,1.611-11.439c3.545-4.099,9.669-4.785,13.932-1.57        c0.383,0.288,0.458,0.832,0.171,1.213c-0.289,0.386-0.837,0.458-1.214,0.17c-3.54-2.668-8.624-2.09-11.58,1.321        c-2.933,3.387-2.715,9.126,0.467,12.283c0.336,0.331,0.343,0.869,0.02,1.211c-0.33,0.339-0.862,0.36-1.21,0.047        c-2.351-2.126-5.998-2.664-8.859-1.322c-2.866,1.347-4.775,4.496-4.642,7.66c0.02,0.478-0.352,0.882-0.83,0.902        C49.783,146.492,49.769,146.492,49.758,146.492z"/>
					</g>
					<path style="fill:#222A30;" d="M245.261,485.385c-0.3-1.733-0.624-3.443-0.97-5.153c-7.487-38.611-18.74-76.437-33.459-112.83       c-3.766-9.335-7.741-18.555-11.969-27.682c-9.381-20.311-19.872-40.113-31.402-59.292       c-8.318-13.841-17.168-27.335-26.596-40.483c-3.882-5.476-7.879-10.883-11.992-16.22c4.223-2.788,9.74-14.032,9.322-22.058       c-0.075-1.434-0.401-3.095-1.683-3.743c-0.969-0.49-2.194-0.184-3.044,0.492c-0.85,0.676-1.394,1.659-1.86,2.64       c-2.085,4.39-3.722,8.471-3.434,13.322c-0.723-4.234-2.499-8.284-5.124-11.683c-1.306-1.691-3.317-3.366-5.353-2.718       c-1.341,0.427-2.212,1.804-2.41,3.197c-0.198,1.394,0.161,2.805,0.608,4.14c1.529,4.571,3.675,8.576,7.091,11.978       c-6.967-2.06-14.4-2.53-21.571-1.365c-1.199,0.195-2.548,0.546-3.11,1.623c-0.53,1.014-0.1,2.321,0.719,3.121       c0.819,0.8,1.939,1.2,3.034,1.533c7.998,2.44,16.964,3.29,24.789,0.43c4.226,5.519,8.383,11.108,12.401,16.765       c9.404,13.148,18.254,26.642,26.573,40.483c11.438,19.063,21.836,38.727,31.147,58.922c4.598,9.936,8.919,20.034,12.963,30.224       c14.973,37.548,26.226,76.576,33.481,116.388h2.218C245.538,486.725,245.4,486.055,245.261,485.385z"/>
				</g>
				<g>
					<g>
						<g>
							<path style="fill:#E46C3E;" d="M448.808,176.102c-0.294,6.334-3.049,12.35-7.016,17.322c0.021,0.084,0.015,0.152,0.014,0.242         c0.005,0.021,0.005,0.021,0.005,0.021c0.115,0.752,0.183,1.494,0.209,2.245c0.173,3.658-0.465,7.378-1.777,10.794         c-2.47,6.549-7.082,12.078-12.271,16.789c-19.861,18.025-49.553,24.256-75.101,16.402c-0.55-0.156-1.106-0.334-1.635-0.495         c-2.065-0.704-4.102-1.48-6.098-2.357c-0.359-0.56-2.008-0.561-2.346-1.126c-16.648-14.266-26.103-35.734-28.027-57.577         c-0.383-4.342-0.418-8.813,1.02-12.906c0.446-1.289,1.054-2.551,1.824-3.695c0,0-0.005-0.021,0.016-0.026         c1.275-1.913,2.979-3.529,5.003-4.554c-0.015-0.063-0.009-0.132-0.004-0.2c-0.054-0.499-0.097-1.046-0.13-1.551         c-0.582-10.044,4.353-20.22,12.591-25.959c7.573-5.266,17.628-6.631,26.322-3.766c0.026,0.016,0.074,0.027,0.126,0.059         c0.77,0.237,1.514,0.547,2.258,0.857c0.696,0.3,1.382,0.646,2.047,0.998c0.169-0.13,0.343-0.239,0.517-0.348         c0.455-0.333,0.935-0.65,1.421-0.946c8.787-5.315,20.487-4.671,29.284,0.642c8.64,5.218,14.45,14.486,16.557,24.384         l0.005,0.021c0.036,0.147,0.045,0.279,0.081,0.426c0.79-0.325,1.57-0.603,2.407-0.828c0,0,0,0,0.021-0.005         c7.24-2.132,15.897-0.618,22.059,3.662C445.044,159.362,449.196,167.762,448.808,176.102z"/>
							<g>
								<path style="fill:#222A30;" d="M373.485,192.781c-0.028,0.898-0.119,1.812-0.23,2.73c-0.022,0.184-0.05,0.346-0.072,0.53          c-0.716,5.143-2.507,9.99-4.15,14.065c-4.319,10.696-9.757,20.727-16.16,29.81c-0.55-0.156-1.106-0.334-1.635-0.495          c6.461-9.12,11.963-19.166,16.293-29.909c1.595-3.997,3.343-8.744,4.057-13.708c0.705-5.096,0.215-9.88-1.474-13.817          c-1.937-4.501-5.541-7.974-9.639-9.344c-4.02-1.322-10.033-0.847-13.259,2.676c-0.228,0.256-0.591,0.321-0.889,0.193          c-0.32-0.123-0.527-0.43-0.519-0.766c0.227-7.254-4.816-14.367-11.708-16.599c-5.582-1.791-12.076-0.263-16.47,3.587          c1.275-1.913,2.979-3.529,5.003-4.554c-0.015-0.063-0.009-0.132-0.004-0.2c3.825-1.416,8.098-1.626,11.965-0.379          c6.986,2.253,12.231,9.095,12.792,16.381c3.825-2.887,9.611-3.197,13.584-1.885c4.554,1.505,8.535,5.332,10.636,10.239          C373.04,184.687,373.673,188.59,373.485,192.781z"/>
								<path style="fill:#222A30;" d="M441.806,193.665c0.005,0.021,0.005,0.021,0.005,0.021c0.115,0.752,0.183,1.494,0.209,2.245          c-1.08-0.964-2.32-1.756-3.702-2.313c-3.473-1.365-7.665-1.375-11.779,0.044c-4.198,1.44-7.5,3.265-10.371,5.765          c-0.275,0.245-0.669,0.273-0.962,0.077c-0.314-0.191-0.447-0.56-0.356-0.917c1.679-6.134-2.625-12.313-7.787-14.762          c-6.79-3.192-14.265-1.204-18.1,0.26c-0.226,0.077-0.448,0.175-0.669,0.273c-0.532,0.196-1.033,0.428-1.555,0.666          c-5.197,2.373-9.789,5.959-13.411,10.424c-0.016,0.026-0.053,0.057-0.074,0.062c-0.27,0.266-0.727,0.31-1.056,0.055          c-0.36-0.292-0.415-0.791-0.123-1.151c0.445-0.553,0.912-1.112,1.41-1.634c3.74-4.16,8.361-7.44,13.515-9.624          c0.459-0.223,0.907-0.398,1.375-0.578c0.227-0.077,0.427-0.17,0.658-0.226c6.822-2.476,13.463-2.48,18.724,0.013          c5.157,2.428,9.558,8.272,9.05,14.457c2.626-1.95,5.6-3.473,9.202-4.702c4.487-1.533,9.079-1.53,12.903-0.004          C439.95,192.533,440.923,193.055,441.806,193.665z"/>
								<path style="fill:#222A30;" d="M391.783,160.848c0.085,0.536,0.176,1.094,0.224,1.662c0.174,1.362,0.247,2.77,0.216,4.204          c-0.061,4.717-1.096,9.737-3.189,15.637c-0.22,0.655-0.482,1.32-0.74,2.007c-0.532,0.196-1.033,0.428-1.555,0.666          c-0.182-0.201-0.238-0.522-0.13-0.815c0.134-0.367,0.273-0.713,0.391-1.053c2.385-6.35,3.522-11.595,3.611-16.475          c0.1-6.487-1.81-12.354-5.362-16.531c-3.875-4.589-10.236-6.837-15.798-5.602c-0.295,0.071-0.588-0.036-0.796-0.253          c-0.188-0.222-0.243-0.543-0.131-0.815c1.404-3.772,1.127-8.14-0.78-11.69c-1.362-2.59-3.59-4.702-6.207-6.03          c0.77,0.237,1.514,0.547,2.258,0.857c0.696,0.3,1.382,0.646,2.047,0.998c0.169-0.13,0.343-0.239,0.517-0.348          c1.137,1.106,2.089,2.369,2.825,3.751c1.886,3.555,2.343,7.835,1.274,11.704c2.487-0.313,5.091-0.052,7.533,0.739          c0.508,0.167,1.022,0.354,1.519,0.568c2.655,1.118,5.075,2.827,6.976,5.064C389.188,152.25,390.997,156.314,391.783,160.848          z"/>
								<path style="fill:#222A30;" d="M416.112,150.968c-3.955,4.189-6.737,9.454-7.877,15.146          c-0.055,0.325-0.288,0.56-0.604,0.636c-0.295,0.071-0.63-0.026-0.823-0.269c-3.457-4.244-9.681-5.924-14.801-3.971          c-0.042,0.01-0.079,0.041-0.121,0.052c-0.406,0.165-0.882-0.054-1.052-0.48c-0.144-0.411,0.054-0.882,0.46-1.047          c0.163-0.062,0.327-0.124,0.49-0.186c4.667-1.62,10.102-0.619,14.02,2.4c0.413,0.324,0.804,0.652,1.185,1.028          c0.374-1.494,0.868-2.951,1.462-4.365c1.257-3.09,3.029-5.993,5.175-8.541c0.036,0.147,0.045,0.279,0.081,0.426          C414.496,151.471,415.275,151.193,416.112,150.968z"/>
								<path style="fill:#222A30;" d="M406.524,164.826c-0.191,0.046-0.397,0.024-0.582-0.078c-0.394-0.216-0.538-0.71-0.322-1.103          c2.037-3.704,1.589-8.575-1.088-11.845c-2.679-3.271-7.386-4.665-11.398-3.408c-0.283,0.09-0.581,0.019-0.792-0.177          c-0.213-0.197-0.306-0.492-0.242-0.775c0.72-3.228-1.443-6.831-4.631-7.709c-3.186-0.88-6.893,1.102-7.928,4.245          c-0.143,0.427-0.604,0.659-1.026,0.517c-0.426-0.141-0.657-0.599-0.516-1.025c1.294-3.925,5.928-6.403,9.901-5.303          c3.573,0.985,6.115,4.706,5.951,8.371c4.351-0.86,9.113,0.786,11.938,4.235c3.085,3.771,3.603,9.387,1.257,13.656          C406.93,164.636,406.737,164.774,406.524,164.826z"/>
							</g>
						</g>
						<path style="fill:#222A30;" d="M385.11,229.835c-0.781-2.525-3.216-4.276-5.786-4.896c-2.569-0.62-5.269-0.284-7.864,0.218        c-8.205,1.585-16.429,5.26-23.397,9.871c-0.739-9.904-2.987-19.695-6.643-28.93c-0.734-1.854-1.554-3.731-2.944-5.161        c-1.39-1.43-3.478-2.34-5.404-1.822c-1.893,0.508-3.238,2.293-3.733,4.19c-0.496,1.897-0.281,3.902,0.03,5.838        c1.828,11.396,6.934,22.247,14.55,30.919c0.421,0.14,0.849,0.272,1.275,0.406c-17.907,66.519-38.771,124.535-64.025,177.562        c0,0.023-0.023,0.046-0.023,0.069c-0.3,0.624-0.601,1.294-0.924,1.918c0,0.023-0.023,0.023-0.023,0.046        c-10.444,21.859-21.651,42.863-33.736,63.266c-0.393,0.693-0.786,1.363-1.202,2.056c-0.393,0.67-0.809,1.363-1.225,2.033        h2.542c11.761-19.71,22.737-39.928,32.996-60.955v-0.046c1.849-3.789,3.674-7.625,5.476-11.461        c24.424-52.036,44.734-108.879,62.249-173.854c0,0,0,0,0-0.001c9.642,2.76,20.255,3.861,29.388,0.093        c2.399-0.99,4.773-2.225,6.496-4.165C384.907,235.087,385.877,232.314,385.11,229.835z"/>
					</g>
					<g>
						<g>
							<path style="fill:#E46C3E;" d="M279.543,64.515c4.521,6.232,6.467,14.029,6.471,21.753c0.083,0.065,0.13,0.134,0.197,0.219         c0.02,0.016,0.02,0.016,0.02,0.016c0.679,0.626,1.306,1.278,1.9,1.971c2.936,3.34,5.151,7.353,6.494,11.588         c2.62,8.086,2.434,16.828,1.081,25.23c-5.184,32.156-28.635,60.572-58.829,72.483c-0.641,0.269-1.302,0.521-1.927,0.769         c-2.492,0.897-5.015,1.705-7.572,2.385c-0.764-0.259-2.331,0.989-3.079,0.709c-26.609-0.919-51.851-14.123-70.231-33.391         c-3.654-3.83-7.076-8.046-8.813-13.019c-0.554-1.561-0.934-3.219-1.07-4.889c0,0-0.021-0.016-0.004-0.037         c-0.24-2.782,0.152-5.606,1.296-8.114c-0.063-0.048-0.109-0.117-0.155-0.187c-0.43-0.433-0.885-0.919-1.299-1.373         c-8.165-9.089-11.195-22.485-7.728-34.175c3.194-10.736,11.701-19.652,22.122-23.523c0.037-0.005,0.09-0.03,0.164-0.039         c0.911-0.359,1.851-0.629,2.792-0.898c0.888-0.244,1.801-0.435,2.698-0.605c0.062-0.251,0.144-0.487,0.227-0.722         c0.179-0.66,0.394-1.325,0.631-1.974c4.309-11.702,15.899-19.959,28.273-21.585c12.153-1.598,24.691,2.793,34.191,10.588         l0.021,0.016c0.146,0.113,0.254,0.23,0.4,0.343c0.504-0.908,1.033-1.762,1.656-2.61c0,0,0,0,0.016-0.021         c5.254-7.51,14.616-12.634,23.707-13.244C263.285,51.484,273.59,56.308,279.543,64.515z"/>
							<g>
								<path style="fill:#222A30;" d="M220.713,137.429c0.654,0.873,1.261,1.809,1.851,2.765c0.118,0.191,0.215,0.367,0.333,0.558          c3.219,5.423,5.193,11.378,6.722,16.49c4.009,13.422,6.451,27.062,7.259,40.534c-0.641,0.269-1.302,0.521-1.927,0.769          c-0.781-13.55-3.175-27.252-7.209-40.727c-1.516-5.001-3.455-10.83-6.539-16.082c-3.193-5.37-7.284-9.538-11.87-11.994          c-5.249-2.803-11.302-3.366-16.229-1.56c-4.816,1.792-10.162,6.801-10.553,12.588c-0.022,0.415-0.317,0.752-0.698,0.857          c-0.397,0.125-0.826-0.008-1.073-0.333c-5.282-7.055-15.459-9.983-23.69-6.876c-6.653,2.531-11.657,8.903-12.909,15.886          c-0.24-2.782,0.152-5.606,1.296-8.114c-0.063-0.048-0.109-0.117-0.155-0.187c2.556-4.242,6.451-7.68,11.066-9.428          c8.337-3.157,18.499-0.64,24.553,5.848c1.441-5.639,6.697-10.318,11.46-12.084c5.462-2.024,12.139-1.408,17.853,1.654          C214.157,130.086,217.715,133.31,220.713,137.429z"/>
								<path style="fill:#222A30;" d="M286.211,86.487c0.02,0.016,0.02,0.016,0.02,0.016c0.679,0.626,1.306,1.278,1.9,1.971          c-1.756-0.096-3.532,0.092-5.266,0.612c-4.33,1.336-8.316,4.504-11.143,8.969c-2.892,4.548-4.642,8.782-5.472,13.331          c-0.075,0.441-0.428,0.767-0.854,0.802c-0.443,0.056-0.849-0.192-1.032-0.6c-3.055-7.094-11.822-9.694-18.577-8.106          c-8.863,2.118-14.448,9.669-16.978,13.965c-0.156,0.245-0.292,0.506-0.428,0.767c-0.357,0.589-0.655,1.189-0.97,1.811          c-3.133,6.191-4.773,13.073-4.825,20.055c0.005,0.037-0.007,0.095-0.023,0.115c-0.054,0.457-0.455,0.845-0.96,0.853          c-0.563-0.004-0.993-0.437-0.989-1c0.003-0.863,0.022-1.746,0.099-2.618c0.396-6.781,2.294-13.397,5.53-19.375          c0.267-0.559,0.559-1.065,0.867-1.591c0.156-0.245,0.276-0.485,0.453-0.714c4.596-7.52,10.894-12.556,17.776-14.179          c6.734-1.604,15.339,0.605,19.544,6.858c1.013-3.841,2.681-7.54,5.168-11.436c3.097-4.855,7.455-8.333,12.24-9.783          C283.59,86.82,284.909,86.577,286.211,86.487z"/>
								<path style="fill:#222A30;" d="M213.874,93.261c0.488,0.444,0.996,0.905,1.472,1.407c1.197,1.161,2.334,2.441,3.391,3.826          c3.517,4.522,6.339,10.07,8.825,17.255c0.288,0.789,0.543,1.619,0.819,2.465c-0.357,0.589-0.655,1.189-0.97,1.811          c-0.325-0.052-0.621-0.315-0.742-0.675c-0.151-0.45-0.281-0.883-0.427-1.296c-2.549-7.833-5.446-13.671-9.06-18.369          c-4.822-6.232-11.081-10.35-17.617-11.621c-7.155-1.418-14.894,1.27-19.236,6.658c-0.225,0.291-0.585,0.412-0.947,0.364          c-0.346-0.068-0.642-0.331-0.742-0.675c-1.527-4.644-5.1-8.578-9.6-10.501c-3.255-1.425-6.97-1.741-10.459-1.017          c0.911-0.359,1.851-0.629,2.792-0.898c0.888-0.244,1.801-0.435,2.698-0.605c0.062-0.251,0.144-0.487,0.227-0.722          c1.917,0.188,3.778,0.665,5.523,1.418c4.484,1.944,8.161,5.658,10.079,10.14c2.123-2.182,4.792-3.907,7.708-5.008          c0.609-0.227,1.238-0.438,1.872-0.612c3.367-0.952,6.958-1.164,10.457-0.482C204.895,87.069,209.691,89.555,213.874,93.261z          "/>
								<path style="fill:#222A30;" d="M229.47,65.447c-0.578,6.973,0.773,14.076,4.005,20.341c0.194,0.35,0.151,0.75-0.091,1.061          c-0.225,0.291-0.617,0.453-0.984,0.369c-6.497-1.407-13.676,1.715-17.054,7.45c-0.032,0.042-0.044,0.099-0.076,0.141          c-0.26,0.464-0.878,0.618-1.363,0.342c-0.448-0.281-0.617-0.878-0.357-1.342c0.108-0.182,0.216-0.365,0.324-0.547          c3.2-5.074,9.116-8.243,15.122-8.349c0.637-0.006,1.257,0.009,1.903,0.078c-0.778-1.701-1.414-3.458-1.922-5.25          c-1.149-3.885-1.668-7.982-1.563-12.026c0.146,0.113,0.254,0.23,0.4,0.343C228.317,67.149,228.846,66.295,229.47,65.447z"/>
								<path style="fill:#222A30;" d="M230.875,85.863c-0.146,0.189-0.358,0.324-0.612,0.368c-0.537,0.094-1.048-0.266-1.141-0.803          c-0.874-5.058-4.991-9.34-10.01-10.415c-5.021-1.073-10.544,1.172-13.398,5.405c-0.2,0.3-0.537,0.458-0.885,0.432          c-0.351-0.025-0.663-0.234-0.817-0.552c-1.763-3.609-6.546-5.388-10.237-3.806c-3.691,1.58-5.706,6.271-4.305,10.037          c0.189,0.514-0.074,1.083-0.581,1.269c-0.511,0.189-1.078-0.071-1.267-0.582c-1.747-4.705,0.772-10.568,5.375-12.535          c4.136-1.773,9.369-0.169,11.991,3.433c3.477-4.114,9.243-6.162,14.537-5.029c5.786,1.24,10.533,6.177,11.542,12.005          C231.117,85.375,231.038,85.652,230.875,85.863z"/>
							</g>
						</g>
						<g>
							<path style="fill:#222A30;" d="M305.061,249.997c-0.462,4.206-2.334,8.087-4.182,11.9         c-18.023,37.248-39.859,77.338-54.74,112.807c0.046-0.901,0.069-1.802,0.115-2.681c0.069-1.617,0.162-3.189,0.231-4.737         c1.225-22.691,3.512-38.403,7.903-55.803c5.083-20.218,12.039-41.338,22.437-59.523c2.426-4.714,5.13-9.52,9.404-12.616         c3.212-2.334,7.556-3.443,11.299-2.472c0,0,0.144,0.432,0.321,0.487c0.223,0.07,0.881-0.094,0.881-0.094         c0.809,0.323,1.571,0.763,2.288,1.317C304.345,241.17,305.523,245.815,305.061,249.997z"/>
							<path style="fill:#62857E;" d="M298.73,237.265c-13.471,14.626-24.447,33.32-32.742,55.826         c-9.451,25.51-14.419,52.729-19.202,79.025l-0.532-0.093c0.069-1.617,0.162-3.189,0.231-4.737         c4.575-24.909,9.497-50.465,18.416-74.611c8.295-22.437,19.225-41.13,32.627-55.803         C297.944,236.988,298.337,237.104,298.73,237.265z"/>
						</g>
						<g>
							<path style="fill:#222A30;" d="M244.267,342.377c-16.544-27.82-35.723-53.792-58.159-77.153         c-4.875-5.06-10.074-10.329-11.807-17.145c-1.41-5.545,0.601-12.362,5.153-15.273c0,0,0.791,0.088,0.996-0.024         c0.167-0.091,0.113-0.6,0.113-0.6c0.716-0.347,1.479-0.601,2.311-0.739c6.747-1.178,12.408,4.852,16.383,10.398         c16.914,23.5,30.038,49.702,38.819,77.292c1.41,4.437,2.888,8.989,4.113,13.587c0.508,1.941,0.993,3.882,1.386,5.823         C243.828,339.813,244.082,341.107,244.267,342.377z"/>
							<path style="fill:#62857E;" d="M243.574,338.542c-13.818-30.639-30.131-60.262-48.663-88.268         c-4.229-6.4-9.127-13.217-15.458-17.469c0.347-0.254,0.716-0.462,1.109-0.624c6.285,4.367,11.114,11.114,15.32,17.469         c17.468,26.411,32.996,54.278,46.306,83.068C242.696,334.66,243.181,336.601,243.574,338.542z"/>
						</g>
						<path style="fill:#222A30;" d="M259.827,163.777c-2.655-1.803-6.292-1.619-9.201-0.261c-2.908,1.359-5.215,3.724-7.298,6.167        c-6.584,7.722-11.602,17.442-14.719,27.099c-8.208-8.838-17.762-16.424-28.229-22.416c-2.102-1.203-4.302-2.363-6.705-2.666        c-2.403-0.303-5.074,0.416-6.509,2.366c-1.411,1.918-1.334,4.63-0.367,6.805c0.967,2.176,2.691,3.915,4.453,5.517        c10.371,9.428,23.44,15.854,37.24,18.31c0.352-0.13,0.704-0.27,1.057-0.405c6.424,43.578,10.883,87.503,13.425,131.543        c0.023,0.531,0.069,1.063,0.093,1.594c0.046,1.063,0.115,2.149,0.162,3.235c2.542,46.491,2.912,93.097,1.063,139.564        c-0.069,2.403-0.162,4.783-0.277,7.186c0.007,0,0.023,0,0.023,0h2.264c0.069-1.363,0.116-2.726,0.162-4.09        c1.525-36.74,1.687-73.595,0.439-110.404v-0.023c0.023-0.393,0-0.786-0.046-1.178c0-0.023,0-0.023,0-0.046        c-0.023-1.825-0.092-3.651-0.162-5.476c0-0.023,0-0.023,0-0.046c0-0.393-0.023-0.763-0.069-1.155v-0.023        c0-0.023,0-0.023,0-0.046v-0.092c-2.033-54.046-7.001-108-14.881-161.4c0-0.002-0.001-0.005-0.001-0.007        c11.502-4.689,22.764-11.763,28.702-22.492c1.526-2.757,2.843-5.728,3.007-8.875        C263.615,168.915,262.433,165.548,259.827,163.777z"/>
					</g>
				</g>
				<g>
					<path style="fill:#FFCBA1;" d="M134.691,315.423c-12.053-6.492-26.474-6.356-40.142-5.58       c-13.668,0.776-27.821,1.963-40.661-2.787c-3.929-1.454-7.99-3.821-9.298-7.801c-0.99-3.013-0.045-6.569,2.309-8.693       c2.355-2.124,5.989-2.699,8.884-1.405c-2.418-4.887-4.639-10.577-3.75-15.956c0.695-4.208,3.581-7.993,7.455-9.778       c3.874-1.785,8.626-1.519,12.276,0.688c-1.069-5.996,3.444-12.991,9.128-15.178c5.684-2.186,12.76,0.18,15.985,5.346       c-0.481-9.596,6.634-19.005,16.077-20.779c9.443-1.773,19.73,4.281,22.764,13.398c1.113-2.781,2.36-4.543,4.619-6.511       c2.259-1.967,5.403-3.093,8.313-2.38c3.563,0.874,6.044,4.315,6.828,7.899c0.784,3.584,0.179,7.313-0.531,10.913       c1.455-4.824,6.482-8.188,11.517-8.404c5.034-0.216,10.034,3.023,11.897,7.705c1.934,4.864,0.531,10.533-2.289,14.943       c-2.82,4.409-6.9,7.835-10.817,11.306C153.977,292.363,144.126,303.674,134.691,315.423z"/>
					<path style="fill:#222A30;" d="M135.352,317.039c-0.237,0-0.472-0.098-0.639-0.281c-19.088-20.833-41.093-38.696-65.4-53.091       c-0.411-0.244-0.546-0.775-0.302-1.187c0.241-0.415,0.774-0.548,1.187-0.305c23.763,14.074,45.34,31.443,64.164,51.647       c-1.169-22.275-2.247-45.315,0.262-70.015c0.048-0.475,0.476-0.828,0.95-0.774c0.476,0.049,0.821,0.474,0.774,0.95       c-2.586,25.453-1.338,49.19-0.131,72.144c0.02,0.364-0.192,0.703-0.528,0.844C135.578,317.018,135.465,317.039,135.352,317.039       z"/>
					<path style="fill:#222A30;" d="M227.885,487.372c-11.623-24.077-23.731-47.969-36.301-71.654       c-0.739-1.41-1.502-2.842-2.264-4.252c-16.406-30.824-33.551-61.209-51.389-91.063c1.96-5.862,4.01-12.528,5.955-18.255       c0.393-1.158,0.747-2.564-0.04-3.501c-0.531-0.634-1.46-0.824-2.269-0.651c-0.808,0.174-1.516,0.655-2.153,1.182       c-2.174,1.799-4.11,3.882-4.874,6.598c-0.091-1.447-0.187-2.913-0.651-4.286c-0.464-1.373-1.348-2.666-2.649-3.305       c-1.301-0.639-3.044-0.472-3.993,0.624c-0.777,0.896-0.895,2.182-0.845,3.367c0.106,2.473,0.456,5.017,1.664,7.177       c-2.42-1.214-5.042-2.022-7.725-2.383c-1.04-0.139-2.258-0.147-2.944,0.647c-0.745,0.862-0.416,2.274,0.387,3.082       c0.803,0.808,1.935,1.173,3.012,1.546c5.003,1.735,9.732,4.245,13.993,7.39c32.53,54.364,62.866,110.554,90.521,167.713       C226.175,487.372,227.03,487.372,227.885,487.372z"/>
				</g>
				<path style="fill:#222A30;" d="M190.287,354.72c0.607-3.496,1.351-7.052,3.185-10.089c1.833-3.038,4.967-5.507,8.513-5.639      c4.466-0.167,8.398,3.456,9.92,7.658c1.522,4.202,1.119,8.84,0.409,13.253c-1.623,10.076-4.745,19.844-8.555,29.292      c-3.635,9.016-7.389,19.448-12.831,27.513c-3.648-8.727-3.114-21.671-3.184-31.04      C187.665,375.302,188.513,364.931,190.287,354.72z"/>
				<g>
					<g>
						<path style="fill:#FFCBA1;" d="M119.006,368.35c-3.328,3.604-11.784,0.994-15.805-0.046        c-6.401-1.641-12.478-4.459-17.815-8.341c-5.73-4.182-10.721-9.774-12.57-16.614c-0.716-2.703-0.855-5.615-0.393-8.388        c0,0,0.455-0.558,0.506-0.805c0.048-0.232-0.205-0.628-0.205-0.628c0.924-3.674,2.935-7.001,6.031-9.173        c2.08-1.456,4.482-2.288,6.978-2.565c0,0-0.098,0.83,0.137,0.811c0.312-0.026,1.504-0.926,1.504-0.926        c3.119-0.092,6.331,0.624,9.15,1.964c5.592,2.68,9.936,7.463,13.379,12.639C113.853,342.146,125.314,361.44,119.006,368.35z"/>
						<path style="fill:#222A30;" d="M90.793,337.548c-1.825-2.08-4.228-3.651-6.839-4.529c-0.185-1.063-0.254-2.126-0.162-3.189        c0.208-3.027,1.502-5.938,3.582-8.157c-0.555,0-1.109,0.046-1.641,0.116c-1.779,2.264-2.889,5.06-3.097,7.949        c-0.069,0.97-0.046,1.941,0.093,2.911c-1.132-0.3-2.311-0.439-3.466-0.462h-0.254c-2.149,0-4.298,0.462-6.285,1.34        c-0.115,0.462-0.208,0.947-0.301,1.433c2.033-1.04,4.321-1.617,6.586-1.617h0.231c1.248,0.023,2.519,0.208,3.72,0.555        c0.693,3.073,2.357,5.915,4.737,7.949c0.809,0.693,1.571,1.04,2.288,1.04c0.208,0,0.416-0.023,0.601-0.093        c1.178-0.37,1.664-1.664,1.548-2.703C91.971,339.05,91.324,338.195,90.793,337.548z M90.238,341.684        c-0.439,0.162-1.063-0.092-1.779-0.716c-2.033-1.71-3.489-4.067-4.205-6.609c2.172,0.832,4.136,2.195,5.661,3.951        c0.439,0.508,0.971,1.201,1.063,1.941C91.047,340.806,90.793,341.523,90.238,341.684z"/>
					</g>
					<path style="fill:#222A30;" d="M120.607,371.336c-3.259,1.255-6.947,1.362-10.273,0.3c-1.63-0.521-3.449-1.847-3.052-3.512       c0.35-1.466,2.281-2.36,3.785-2.249c1.504,0.111,3.048,0.098,4.387,0.378c-0.503-1.607-0.889-3.159-1.043-4.754       c-0.154-1.595,1.094-3.423,2.667-3.726c1.905-0.367,3.469,1.54,4.163,3.352C122.436,364.248,121.704,368.177,120.607,371.336z"/>
					<path style="fill:#222A30;" d="M224.765,487.349h-2.542c-22.622-47.184-58.483-87.62-102.94-115.556       c0-0.023-0.023-0.023-0.023-0.023l1.224-1.941c0.162,0.116,0.347,0.208,0.508,0.324       C165.889,398.504,202.075,439.518,224.765,487.349z"/>
				</g>
			</g>
		</g>
		<g>
			<g>
				<path style="fill:#456638;" d="M467.27,376.668l-0.695-0.824l0.834-1.024c0.162-3.535-0.208-7.048-1.433-10.329      c-1.34-3.581-3.928-6.816-7.186-8.688c0,0-0.954,0.237-1.244,0.091c-0.255-0.128-0.373-0.923-0.373-0.923      c-1.271-0.531-2.634-0.878-4.067-0.947c-6.631-0.324-12.2,4.69-16.914,9.381c-9.196,9.15-18.416,18.301-27.612,27.451      c0,0-0.646,1.51-1.107,1.967c-0.242,0.239-0.995,0.135-0.995,0.135l-0.531,0.531c-15.459,15.366-30.94,30.755-46.398,46.121      c0,0-0.023,0-0.023,0.023c0,0-1.432,2.35-2.035,2.951c-0.402,0.4-0.992,0.052-0.992,0.052c-1.086,1.063-2.149,2.149-3.235,3.212      c-8.711,8.642-17.399,17.284-26.087,25.926c-3.535,3.535-8.323,9.308-14.366,15.784c0.359,0.001,0.717,0.001,1.076,0.002      c0,0,1.107-0.455,1.638-0.454c0.365,0.001,1.053,0.458,1.053,0.458c11.928,0.016,23.578,0.027,34.741,0.029      c0,0,1.052-0.628,1.999-0.628c1.181,0,4.38,0.629,4.38,0.629c15.285-0.001,29.547-0.019,42.222-0.057      c6.089-1.524,12.134-3.224,18.113-5.109c3.235-1.017,6.516-2.126,9.59-3.582c0,0-0.257-0.73,0.229-0.991      c0.502-0.27,2.775-0.603,2.751-0.603h0.023c0.023,0.023,0.023,0.023,0.046,0c1.779-1.063,3.443-2.264,4.921-3.697      c4.783-4.575,7.44-11.992,4.645-17.977c-1.664-3.559-4.968-6.193-7.394-9.243c0,0-1.679-0.584-1.908-0.913      c-0.221-0.318,0.568-1.028,0.568-1.028c-0.647-1.04-1.132-2.172-1.386-3.42c-1.525-7.487,6.008-13.286,11.923-18.139      c1.317-1.086,2.611-2.218,3.836-3.42c0,0,0.063-0.677,0.345-0.955c0.337-0.332,1.503-0.871,1.503-0.871      c9.52-9.774,16.175-22.367,18.809-35.792C466.877,380.111,467.131,378.401,467.27,376.668z"/>
				<path style="fill:#222A30;" d="M422.351,391.572c10.305-3.397,20.357-6.747,30.385-10.075c4.829-1.594,9.659-3.212,14.534-4.829      c0.069-0.624,0.116-1.248,0.139-1.849c-5.084,1.687-10.167,3.351-15.228,5.037c-8.988,2.981-17.954,5.961-27.15,9.011      c11.369-10.929,22.622-21.951,33.759-33.065c-0.508-0.323-1.063-0.601-1.617-0.832c-16.406,16.383-33.089,32.581-50.003,48.57      c0.116-4.275,0.601-8.503,1.409-12.685c-0.693,0.716-1.409,1.409-2.103,2.103c-0.693,4.044-1.063,8.134-1.109,12.27      c-5.315,5.037-10.675,10.028-16.036,15.019h-0.046v0.046c-11.065,10.257-22.2,20.398-33.427,30.47      c0.923-3.801,2.122-7.443,3.666-11.13c-1.017,0.994-2.01,1.987-3.027,3.004c-1.198,3.318-2.143,6.659-2.904,10.138      c-0.002,0.002-0.005,0.004-0.007,0.006v0.023h-0.023c-13.12,11.756-26.351,23.344-39.68,34.756      c0.898,0.001,1.792,0.002,2.687,0.004c3.52-3.031,7.031-6.077,10.537-9.134c7.849,3.66,15.946,6.709,24.212,9.164      c2.144,0,4.272,0.001,6.379,0c-9.985-2.592-19.753-6.069-29.158-10.412c4.898-4.228,9.774-8.503,14.626-12.801      c27.474,7.949,55.849,12.824,84.455,14.465c1.039-0.485,2.01-1.017,2.98-1.595c-29.068-1.433-57.905-6.215-85.887-14.233      c9.381-8.295,18.693-16.683,27.959-25.117l60.17,8.434c-0.485-0.624-0.947-1.271-1.34-1.941l-57.166-8.041      c5.268-4.76,10.491-9.566,15.689-14.396l55.849-2.542c0.624-0.578,1.248-1.202,1.849-1.825l-55.733,2.542      c10.19-9.474,20.311-19.04,30.339-28.652L422.351,391.572z"/>
			</g>
			<g>
				<path style="fill:#456638;" d="M206.897,478.649c-9.653-7.549-19.307-15.097-28.983-22.642      c-1.205-0.927-2.389-1.878-3.594-2.805c-0.375-0.295-0.822,0.55-1.193,0.259c-0.748-0.586-1.416-2.303-2.17-2.882      c-0.003-0.023-0.026-0.02-0.026-0.02c-17.174-13.42-34.375-26.861-51.549-40.281l-0.591-0.464c0,0-0.599,0.73-1.04,0.386      c-0.342-0.267-0.96-1.949-1.297-2.223c-10.219-7.993-20.46-15.983-30.679-23.975c-5.237-4.098-11.363-8.414-17.909-7.305      c-1.414,0.239-2.727,0.745-3.925,1.424c0,0-0.169,0.685-0.398,0.836c-0.28,0.184-1.109,0.183-1.109,0.183      c-3.012,2.245-5.198,5.765-6.103,9.48c-0.826,3.404-0.776,6.935-0.195,10.426c0,0,0.612,0.72,0.674,1.034      c0.058,0.294-0.316,0.785-0.316,0.785c0.343,1.704,0.799,3.372,1.344,5.005c4.211,13.017,12.315,24.73,22.928,33.304      c0,0,1.558,0.369,1.938,0.663c0.308,0.238,0.114,0.93,0.114,0.93c1.359,1.048,2.778,2.018,4.215,2.94      c6.45,4.115,14.619,8.979,13.994,16.594c-0.104,1.269-0.451,2.451-0.97,3.56c0,0,0.251,0.677,0.111,0.95      c-0.219,0.426-1.211,1.136-1.211,1.136c-2.047,3.317-5.014,6.325-6.243,10.056c-1.183,3.594-0.528,7.439,1.237,10.818      c11.752,0.057,29.857,0.141,51.84,0.233c0,0,2.856-0.545,3.928-0.541c0.958,0.004,2.156,0.566,2.156,0.566      c15.002,0.062,31.605,0.126,49.09,0.188c0,0,1.763-0.414,2.362-0.411c0.534,0.002,1.036,0.423,1.036,0.423      c4.142,0.014,8.33,0.029,12.555,0.043C212.922,483.794,209.561,480.743,206.897,478.649z"/>
				<path style="fill:#222A30;" d="M178.442,462.948l-0.023,0.003l-0.003-0.023c-0.003-0.002-0.005-0.003-0.007-0.005      c-1.169-3.364-2.505-6.569-4.089-9.721c-1.13-0.889-2.235-1.757-3.362-2.623c1.971,3.477,3.594,6.951,4.962,10.616      c-12.344-8.667-24.605-17.414-36.811-26.283l-0.006-0.046l-0.046,0.006c-5.916-4.319-11.831-8.638-17.707-13.008      c-0.537-4.101-1.39-8.118-2.559-12.051c-0.77-0.606-1.564-1.209-2.337-1.838c1.3,4.057,2.284,8.197,2.907,12.428      c-18.694-13.867-37.184-27.968-55.419-42.285c-0.523,0.296-1.041,0.637-1.507,1.018c12.379,9.712,24.862,19.319,37.448,28.82      c-9.494-1.936-18.75-3.83-28.029-5.722c-5.225-1.073-10.47-2.122-15.718-3.192c0.094,0.594,0.214,1.208,0.357,1.819      c5.033,1.027,10.02,2.059,15.005,3.068c10.352,2.112,20.731,4.245,31.367,6.393l0.012-0.095      c11.099,8.353,22.285,16.649,33.528,24.845l-55.64,4.098c0.67,0.548,1.364,1.093,2.052,1.593l55.755-4.112      c5.736,4.178,11.492,8.329,17.289,12.429l-55.806,14.776c-0.31,0.712-0.692,1.41-1.1,2.087l58.741-15.523      c10.202,7.273,20.445,14.495,30.745,21.617c-13.913,5.852-28.159,10.86-42.651,15.013c1.984,0.008,3.999,0.017,6.045,0.025      c13.006-3.945,25.799-8.57,38.306-13.869c5.329,3.691,10.678,7.356,16.044,10.972c-1.724,1.061-3.467,2.086-5.225,3.084      c1.128,0.004,2.26,0.008,3.395,0.012c1.137-0.67,2.279-1.331,3.401-2.027c1.008,0.687,2.019,1.365,3.027,2.05      c1.025,0.003,2.051,0.007,3.08,0.01C202.002,479.308,190.192,471.187,178.442,462.948z"/>
			</g>
		</g>
		<g>
			<path style="fill:#222A30;" d="M198.132,94.408c-1.917,4.003-1.701,8.655-1.428,13.085c1.157,18.788,2.624,37.622,6.501,56.041     c0.399,1.897,1.372,4.243,3.309,4.173c1.888-0.068,2.718-2.371,3.064-4.229c2.271-12.207,4.541-24.414,6.812-36.621     c1.446-7.775,2.899-15.656,2.314-23.543c-0.228-3.073-0.787-6.185-2.261-8.89C212.467,87.127,201.904,86.53,198.132,94.408z"/>
			<g>
				<g>
					<g>
						<path style="fill:#F9EFD2;" d="M201.075,170.446c-1.206,1.165-2.761,1.793-4.431,2.128c-0.249,0.063-0.509,0.108-0.766,0.138        c-0.927,0.161-1.879,0.237-2.806,0.273c-2.25,0.099-4.496,0.058-6.728-0.103c-0.26-0.017-0.502-0.046-0.748-0.06        c-1.935-0.166-3.849-0.42-5.756-0.766c-1.28-0.238-2.53-0.531-3.708-0.93c-0.246-0.076-0.488-0.167-0.715-0.254        c-3.555-1.359-6.34-3.696-7.299-7.947c-0.895-3.878,0.497-6.304,2.546-9.503c2.935-4.583,5.86-9.183,8.865-13.733        c3.031-4.59,6.127-9.133,9.265-13.65c1.59-2.284,3.192-4.55,4.794-6.816c0.799-1.094,1.587-2.207,2.39-3.317        c0.142-0.198,0.573-0.683,1.011-1.198c0.026-0.04,0.066-0.077,0.088-0.103c0.595-0.709,1.172-1.47,1.116-1.748        c0.045,0.26,0.09,0.52,0.134,0.78c0.093,0.506,0.186,1.011,0.265,1.513c2.623,14.855,4.283,29.892,5.002,44.962        C203.766,163.764,203.709,167.905,201.075,170.446z"/>
						<g>
							<path style="fill:#304554;" d="M198.774,112.642l-0.109,0.253l-0.339,0.741l-0.487,1.094l-0.218,0.506l-0.339,0.741         c-0.618,1.373-1.241,2.76-1.863,4.147l-0.011,0.044c-7.376,16.528-14.728,33.529-19.275,50.957         c-0.246-0.076-0.488-0.167-0.715-0.254c4.956-18.961,13.195-37.346,21.178-55.203l0.309-0.686l0.171-0.378l1.011-2.272         c0.08-0.198,0.303-0.283,0.498-0.188c0.044,0.011,0.07,0.033,0.092,0.069l0.015,0.004         C198.806,112.324,198.843,112.488,198.774,112.642z"/>
							<path style="fill:#304554;" d="M196.644,172.574c-0.249,0.063-0.509,0.108-0.766,0.138         c0.301-9.232,0.609-18.306,0.925-27.409c0.349-10.122,0.716-20.256,1.036-30.572c0.011-0.106,0.003-0.202,0.013-0.308         c-0.083,0.275-0.163,0.535-0.231,0.814c-5.581,18.776-9.374,38.133-11.277,57.645c-0.26-0.017-0.502-0.046-0.748-0.06         c1.736-17.764,5.036-35.437,9.812-52.653l0.011-0.044c0.471-1.72,0.971-3.433,1.486-5.142         c0.022-0.088,0.047-0.191,0.083-0.275c0.312-1.075,0.642-2.16,0.969-3.232c0.058-0.172,0.241-0.283,0.42-0.254         c0.194,0.032,0.327,0.19,0.327,0.376c-0.003,0.201-0.01,0.418-0.028,0.616l0.015,0.004c-0.01,0.231-0.021,0.462-0.027,0.678         c-0.031,0.755-0.047,1.514-0.074,2.254c-0.334,10.188-0.684,20.186-1.033,30.184         C197.246,154.36,196.931,163.401,196.644,172.574z"/>
						</g>
					</g>
					<g>
						<path style="fill:#CDE6CF;" d="M195.347,125.127c-4.365,9.116-9.805,17.672-15.569,25.961c-2.094,3-4.272,6.027-6.781,8.692        c-0.402,0.43-0.814,0.842-1.227,1.253c-1.797,1.735-3.768,3.288-5.966,4.504c-6.127,3.391-13.528,3.868-20.396,2.564        c-6.868-1.305-13.294-4.275-19.508-7.472c-3.439-1.766-6.879-3.657-9.657-6.335c-2.79-2.696-4.876-6.291-4.998-10.149        c-0.116-4.075,1.998-7.973,4.872-10.859c0.044-0.052,0.084-0.088,0.142-0.136c1.034-1.037,2.149-1.96,3.322-2.807l0.018-0.011        c2.062-1.483,4.304-2.751,6.539-3.989c5.718-3.181,11.468-6.306,17.274-9.34c10.386-5.453,20.912-10.653,31.546-15.593        c2.989-1.395,6.005-2.768,9.016-4.126c0.754-0.343,1.523-0.683,2.287-1.008c1.632-0.749,3.29-1.476,4.929-2.192        c2.741-1.207,5.724-2.385,8.713-2.706c4.172-0.449,4.238,3.068,3.941,6.357c-0.142,1.521-0.346,3.042-0.605,4.535        c-0.061,0.374-0.137,0.744-0.213,1.115C201.582,110.948,198.685,118.154,195.347,125.127z"/>
						<g>
							<path style="fill:#304554;" d="M172.996,159.779c-0.402,0.43-0.814,0.842-1.227,1.253c0.548-4.051-0.708-8.36-3.598-11.282         c-3.434-3.492-9.093-5.153-15.133-4.448c-5.546,0.655-10.742,2.984-15.778,5.228c-0.209,0.089-0.461,0.042-0.623-0.123         c-0.165-0.15-0.214-0.395-0.127-0.623c1.716-4.183,1.158-9.3-1.423-13.034c-2.584-3.719-7.176-6.049-11.708-5.907         c-2.525,0.078-5.017,0.91-7.12,2.306c1.034-1.037,2.149-1.96,3.322-2.807l0.018-0.011c1.226-0.367,2.479-0.587,3.747-0.616         c4.892-0.147,9.876,2.358,12.677,6.395c2.536,3.66,3.27,8.572,1.983,12.845c4.735-2.1,9.632-4.16,14.903-4.774         c6.381-0.76,12.396,1.035,16.08,4.775C171.777,151.791,173.149,155.818,172.996,159.779z"/>
							<path style="fill:#304554;" d="M122.112,147.07c1.03,0.56,2.322,0.383,3.389-0.104c1.59-0.726,3.029-2.331,2.769-4.187         c-0.24-1.715-1.666-2.996-3.393-2.767C121.955,140.401,118.486,145.098,122.112,147.07z"/>
							<path style="fill:#304554;" d="M150.851,158.197c0.521,1.223,2.033,1.883,3.318,1.541c2.451-0.652,3.445-4.676,1.081-6.085         C152.841,152.216,149.884,155.926,150.851,158.197z"/>
							<path style="fill:#304554;" d="M153.469,121.38c-0.667,0.821-1.297,1.702-1.609,2.712c-0.313,1.01-0.269,2.179,0.338,3.046         c1.146,1.637,3.592,1.514,5.527,1.014c5.284-1.365,10.166-4.249,13.911-8.218c2.53-2.68,3.843-7.657-1.227-7.983         c-3.92-0.252-8.432,2.236-11.531,4.408C156.856,117.775,155.025,119.464,153.469,121.38z"/>
							<path style="fill:#304554;" d="M171.566,129.885c-0.435,0.793-0.755,1.676-0.73,2.58c0.024,0.904,0.437,1.83,1.204,2.309         c0.677,0.424,1.545,0.454,2.317,0.247c0.772-0.207,1.467-0.628,2.135-1.068c1.099-0.723,2.175-1.528,2.945-2.596         c0.769-1.068,1.2-2.443,0.885-3.721C179.043,122.454,172.897,127.461,171.566,129.885z"/>
							<path style="fill:#304554;" d="M203.028,103.384c0.076-0.37,0.152-0.741,0.213-1.115c-2.873-1.035-6.09-1.113-9.034-0.283         c-0.177-0.417-0.387-0.827-0.634-1.215c-1.54-2.403-4.249-4.036-7.31-4.495c-0.765,0.325-1.533,0.665-2.287,1.008         c0.238-0.019,0.487-0.02,0.733-0.006c3.298,0.067,6.319,1.636,7.903,4.112c0.206,0.3,0.376,0.622,0.512,0.951         c-1.819,0.688-3.509,1.734-4.871,3.156c-1.461,1.507-2.45,3.877-1.177,5.53c0.39,0.501,0.912,0.847,1.542,1.003         c0.205,0.051,0.418,0.072,0.634,0.079c1.275,0.066,2.714-0.529,3.66-1.525c1.826-1.915,2.4-4.87,1.673-7.539         C197.33,102.258,200.353,102.366,203.028,103.384z M192.095,109.791c-0.719,0.772-1.847,1.241-2.785,1.196         c-0.583-0.035-1.027-0.253-1.332-0.655c-0.861-1.115-0.038-2.873,1.09-4.042c1.238-1.297,2.767-2.259,4.432-2.891         C194.09,105.676,193.607,108.203,192.095,109.791z"/>
						</g>
					</g>
				</g>
				<g>
					<g>
						<path style="fill:#F2E5C4;" d="M185.781,166.616c0.651,1.545,1.835,2.733,3.239,3.697c0.204,0.156,0.426,0.299,0.65,0.428        c0.789,0.511,1.635,0.956,2.474,1.353c2.03,0.974,4.112,1.819,6.228,2.547c0.246,0.086,0.48,0.155,0.711,0.238        c1.845,0.607,3.705,1.125,5.594,1.555c1.27,0.284,2.535,0.506,3.775,0.601c0.256,0.026,0.514,0.038,0.758,0.047        c3.803,0.146,7.282-0.91,9.833-4.443c2.346-3.215,2.018-5.993,1.389-9.739c-0.9-5.367-1.783-10.747-2.761-16.111        c-0.985-5.412-2.05-10.805-3.161-16.191c-0.566-2.725-1.149-5.438-1.732-8.151c-0.305-1.321-0.593-2.653-0.895-3.989        c-0.053-0.238-0.259-0.854-0.46-1.499c-0.008-0.047-0.03-0.097-0.04-0.129c-0.269-0.886-0.501-1.812-0.34-2.046        c-0.143,0.222-0.287,0.443-0.43,0.665c-0.284,0.428-0.568,0.856-0.838,1.287c-8.245,12.632-15.676,25.81-22.253,39.387        C185.93,159.415,184.356,163.245,185.781,166.616z"/>
						<g>
							<path style="fill:#304554;" d="M210.593,114.358l0.001,0.276l0.02,0.815l0.019,1.197l0.002,0.551l0.02,0.815         c0.03,1.505,0.058,3.025,0.085,4.545l-0.007,0.045c0.294,18.097,0.38,36.619-2.281,54.433         c0.256,0.026,0.514,0.038,0.758,0.047c2.886-19.385,2.528-39.528,2.197-59.085l-0.015-0.753l-0.009-0.415l-0.038-2.486         c0.004-0.214-0.168-0.38-0.384-0.369c-0.045-0.007-0.077,0.003-0.112,0.028L210.836,114         C210.689,114.052,210.59,114.189,210.593,114.358z"/>
							<path style="fill:#304554;" d="M189.021,170.313c0.204,0.156,0.426,0.299,0.65,0.428c3.348-8.608,6.627-17.075,9.912-25.571         c3.654-9.447,7.294-18.91,11.052-28.524c0.032-0.102,0.076-0.187,0.108-0.289c-0.031,0.286-0.06,0.557-0.106,0.84         c-2.24,19.459-6.351,38.751-12.263,57.443c0.246,0.086,0.48,0.155,0.711,0.238c5.378-17.018,9.282-34.568,11.65-52.277         l0.007-0.045c0.242-1.767,0.455-3.539,0.652-5.313c0.015-0.089,0.032-0.194,0.032-0.286c0.135-1.111,0.258-2.239,0.378-3.352         c0.014-0.181-0.11-0.355-0.287-0.399c-0.191-0.046-0.375,0.046-0.449,0.218c-0.076,0.186-0.155,0.388-0.216,0.577         L210.836,114c-0.082,0.216-0.163,0.433-0.242,0.634c-0.268,0.706-0.551,1.41-0.817,2.102         c-3.693,9.501-7.297,18.833-10.901,28.165C195.619,153.325,192.359,161.764,189.021,170.313z"/>
						</g>
					</g>
					<g>
						<path style="fill:#CDE6CF;" d="M208.844,127.186c0.435,10.098,2.079,20.102,4.125,29.989c0.748,3.582,1.562,7.22,2.824,10.656        c0.201,0.553,0.419,1.094,0.636,1.635c0.972,2.302,2.174,4.503,3.719,6.485c4.304,5.524,10.923,8.87,17.751,10.366        c6.828,1.496,13.904,1.288,20.875,0.787c3.856-0.274,7.762-0.663,11.369-2.034c3.624-1.384,6.954-3.872,8.581-7.372        c1.706-3.702,1.293-8.117-0.218-11.9c-0.02-0.065-0.043-0.114-0.078-0.181c-0.544-1.359-1.207-2.646-1.953-3.886l-0.013-0.017        c-1.314-2.174-2.878-4.22-4.448-6.237c-4.009-5.17-8.071-10.303-12.219-15.373c-7.411-9.093-15.05-18.008-22.89-26.727        c-2.202-2.456-4.436-4.903-6.672-7.334c-0.559-0.612-1.132-1.226-1.708-1.825c-1.206-1.33-2.446-2.649-3.672-3.952        c-2.047-2.186-4.327-4.441-6.95-5.91c-3.661-2.052-5.103,1.158-6.121,4.299c-0.467,1.455-0.877,2.934-1.224,4.408        c-0.091,0.368-0.166,0.738-0.242,1.109C208.676,111.697,208.512,119.462,208.844,127.186z"/>
						<g>
							<path style="fill:#304554;" d="M215.793,167.831c0.201,0.553,0.419,1.094,0.636,1.635c1.087-3.941,3.934-7.411,7.739-8.964         c4.529-1.864,10.386-1.169,15.665,1.851c4.843,2.78,8.708,6.962,12.458,11.003c0.157,0.163,0.408,0.22,0.621,0.132         c0.211-0.073,0.352-0.279,0.361-0.523c0.064-4.521,2.587-9.008,6.426-11.428c3.837-2.405,8.975-2.746,13.087-0.835         c2.291,1.063,4.257,2.807,5.643,4.916c-0.544-1.359-1.207-2.646-1.953-3.886l-0.013-0.017         c-0.984-0.819-2.05-1.513-3.204-2.038c-4.441-2.056-10.009-1.709-14.17,0.903c-3.77,2.37-6.373,6.599-6.867,11.035         c-3.53-3.79-7.225-7.608-11.832-10.242c-5.57-3.205-11.807-3.916-16.664-1.922         C220.052,160.963,217.209,164.128,215.793,167.831z"/>
							<path style="fill:#304554;" d="M267.581,176.122c-1.167,0.11-2.287-0.56-3.076-1.426c-1.178-1.292-1.871-3.333-0.903-4.938         c0.894-1.483,2.709-2.101,4.206-1.212C270.344,170.05,271.691,175.732,267.581,176.122z"/>
							<path style="fill:#304554;" d="M236.782,175.07c-0.96,0.921-2.609,0.934-3.656,0.115c-1.998-1.562-1.332-5.653,1.395-6.021         C237.3,168.789,238.562,173.362,236.782,175.07z"/>
							<path style="fill:#304554;" d="M248.83,140.183c0.291,1.017,0.524,2.074,0.415,3.126c-0.109,1.052-0.608,2.11-1.506,2.668         c-1.696,1.056-3.898-0.018-5.481-1.238c-4.323-3.33-7.681-7.899-9.567-13.02c-1.274-3.458-0.528-8.551,4.263-6.861         c3.704,1.308,6.877,5.367,8.874,8.582C247.13,135.537,248.151,137.809,248.83,140.183z"/>
							<path style="fill:#304554;" d="M228.847,140.899c0.089,0.9,0.036,1.838-0.341,2.66c-0.378,0.822-1.121,1.511-2.015,1.651         c-0.789,0.124-1.599-0.189-2.228-0.682c-0.629-0.493-1.103-1.154-1.544-1.82c-0.727-1.097-1.401-2.259-1.689-3.543         c-0.288-1.284-0.144-2.718,0.647-3.77C224.887,131.129,228.575,138.147,228.847,140.899z"/>
							<path style="fill:#304554;" d="M218.216,107.176c-1.716,2.169-2.349,5.112-1.422,7.591c0.479,1.287,1.568,2.399,2.767,2.839         c0.201,0.079,0.405,0.143,0.614,0.177c0.642,0.104,1.257-0.009,1.812-0.317c1.82-1.02,1.841-3.588,1.089-5.548         c-0.694-1.843-1.838-3.468-3.241-4.815c0.255-0.249,0.537-0.479,0.845-0.673c2.428-1.655,5.823-1.913,8.882-0.679         c0.231,0.084,0.46,0.182,0.672,0.293c-0.559-0.612-1.132-1.226-1.708-1.825c-2.996-0.78-6.129-0.342-8.488,1.264         c-0.379,0.26-0.733,0.554-1.06,0.868c-2.381-1.919-5.371-3.111-8.419-3.287c-0.091,0.368-0.166,0.738-0.242,1.109         C213.176,104.287,215.999,105.375,218.216,107.176z M219.073,107.928c1.283,1.235,2.312,2.719,2.941,4.399         c0.579,1.518,0.645,3.458-0.584,4.145c-0.439,0.25-0.933,0.277-1.483,0.08c-0.88-0.327-1.733-1.201-2.092-2.193         C217.089,112.304,217.637,109.791,219.073,107.928z"/>
						</g>
					</g>
				</g>
				<g>
					<path style="fill:#222A30;" d="M205.096,91.756c-0.274,0-0.537-0.152-0.666-0.414c-3.46-7.029-10.404-12.34-18.122-13.861       c-7.718-1.523-16.153,0.759-22.012,5.95c-0.308,0.272-0.775,0.245-1.048-0.063c-0.272-0.306-0.243-0.775,0.063-1.047       c6.199-5.491,15.121-7.9,23.283-6.296c8.162,1.61,15.507,7.228,19.167,14.661c0.181,0.368,0.03,0.813-0.338,0.994       C205.318,91.732,205.206,91.756,205.096,91.756z"/>
					<path style="fill:#222A30;" d="M209.425,94.146c-0.129,0-0.26-0.034-0.379-0.104c-0.352-0.21-0.468-0.665-0.258-1.017       c4.227-7.107,11.985-12.098,20.247-13.024c8.26-0.931,16.964,2.218,22.716,8.207c0.284,0.295,0.275,0.765-0.021,1.049       s-0.766,0.274-1.049-0.021c-5.439-5.661-13.667-8.641-21.481-7.76c-7.81,0.875-15.142,5.591-19.137,12.307       C209.925,94.017,209.678,94.146,209.425,94.146z"/>
				</g>
			</g>
		</g>
		<g>
			<path style="fill:#222A30;" d="M362.281,167.818c2.47,2.826,6.156,4.212,9.688,5.48c14.981,5.376,30.103,10.527,45.706,13.668     c1.607,0.323,3.754,0.352,4.347-1.176c0.578-1.49-0.934-2.904-2.262-3.793c-8.725-5.841-17.449-11.682-26.174-17.523     c-5.557-3.721-11.193-7.481-17.516-9.661c-2.463-0.849-5.067-1.455-7.662-1.213C361.412,154.25,357.421,162.256,362.281,167.818z     "/>
			<g>
				<g>
					<g>
						<path style="fill:#F9EFD2;" d="M422.333,190.928c0.503,1.326,0.471,2.744,0.173,4.153c-0.034,0.214-0.086,0.431-0.148,0.641        c-0.185,0.773-0.444,1.539-0.725,2.271c-0.675,1.781-1.457,3.512-2.328,5.192c-0.1,0.196-0.203,0.375-0.296,0.561        c-0.775,1.448-1.612,2.85-2.518,4.215c-0.612,0.915-1.257,1.788-1.961,2.57c-0.141,0.165-0.293,0.323-0.437,0.471        c-2.243,2.308-4.989,3.691-8.612,3.016c-3.312-0.599-4.732-2.491-6.532-5.152c-2.579-3.811-5.177-7.62-7.708-11.474        c-2.553-3.888-5.048-7.81-7.509-11.756c-1.243-1.998-2.469-4-3.694-6c-0.583-0.986-1.185-1.97-1.778-2.964        c-0.107-0.177-0.34-0.673-0.593-1.186c-0.023-0.033-0.038-0.077-0.051-0.102c-0.352-0.699-0.75-1.401-0.985-1.451        c0.217,0.052,0.434,0.104,0.651,0.156c0.424,0.096,0.848,0.193,1.264,0.299c12.415,2.924,24.652,6.657,36.599,11.132        C418.042,186.607,421.24,188.034,422.333,190.928z"/>
						<g>
							<path style="fill:#304554;" d="M376.661,173.409l0.16,0.169l0.463,0.51l0.687,0.744l0.32,0.339l0.463,0.511         c0.86,0.939,1.729,1.885,2.599,2.832l0.031,0.023c10.377,11.25,21.128,22.64,33.148,31.993         c-0.141,0.165-0.293,0.323-0.437,0.471c-13.074-10.184-24.605-22.724-35.81-34.89l-0.43-0.47l-0.237-0.259l-1.427-1.544         c-0.127-0.128-0.119-0.33,0.02-0.45c0.023-0.03,0.049-0.043,0.085-0.048l0.008-0.01         C376.424,173.278,376.564,173.304,376.661,173.409z"/>
							<path style="fill:#304554;" d="M422.507,195.081c-0.034,0.214-0.086,0.431-0.148,0.641         c-7.071-3.317-14.018-6.587-20.984-9.873c-7.747-3.652-15.496-7.322-23.404-11.016c-0.079-0.044-0.156-0.07-0.235-0.113         c0.186,0.157,0.362,0.306,0.555,0.452c12.722,10.606,26.492,20.019,41.014,28.014c-0.1,0.196-0.203,0.375-0.296,0.561         c-13.22-7.281-25.847-15.748-37.626-25.208l-0.031-0.023c-1.179-0.94-2.342-1.901-3.498-2.872         c-0.061-0.046-0.132-0.1-0.186-0.157c-0.731-0.601-1.464-1.22-2.187-1.831c-0.115-0.103-0.139-0.282-0.057-0.412         c0.09-0.14,0.256-0.19,0.402-0.128c0.156,0.07,0.321,0.147,0.469,0.227l0.008-0.01c0.176,0.085,0.352,0.17,0.518,0.248         c0.576,0.276,1.16,0.542,1.727,0.81c7.803,3.663,15.453,7.273,23.103,10.884C408.558,188.53,415.477,191.795,422.507,195.081         z"/>
						</g>
					</g>
					<g>
						<path style="fill:#FFCBA1;" d="M385.214,180.242c5.624,6.436,10.453,13.52,14.967,20.766c1.632,2.629,3.255,5.332,4.487,8.171        c0.2,0.456,0.382,0.914,0.564,1.372c0.748,1.976,1.296,4.025,1.506,6.139c0.588,5.892-1.513,11.801-4.82,16.7        c-3.308,4.899-7.761,8.899-12.321,12.659c-2.521,2.082-5.139,4.122-8.147,5.386c-3.026,1.267-6.516,1.686-9.554,0.492        c-3.204-1.271-5.527-4.215-6.808-7.412c-0.025-0.051-0.041-0.095-0.058-0.156c-0.46-1.149-0.805-2.324-1.071-3.518        l-0.002-0.018c-0.464-2.097-0.699-4.263-0.915-6.413c-0.561-5.504-1.069-11.015-1.487-16.539        c-0.767-9.89-1.291-19.804-1.577-29.714c-0.085-2.788-0.144-5.589-0.193-8.382c-0.015-0.7-0.022-1.411-0.019-2.113        c-0.037-1.518-0.048-3.049-0.057-4.561c-0.022-2.532,0.059-5.243,0.808-7.672c1.045-3.391,3.799-2.268,6.254-0.938        c1.134,0.618,2.248,1.285,3.321,1.985c0.27,0.172,0.532,0.355,0.795,0.538C376.282,170.662,380.913,175.32,385.214,180.242z"/>
						<g>
							<path style="fill:#304554;" d="M404.669,209.179c0.2,0.456,0.382,0.914,0.564,1.372c-2.964-1.779-6.731-2.242-9.966-0.974         c-3.86,1.501-7.04,5.343-8.51,10.271c-1.343,4.527-1.27,9.341-1.209,14.003c-0.001,0.192-0.122,0.372-0.303,0.443         c-0.172,0.078-0.378,0.034-0.526-0.11c-2.676-2.731-6.838-4.006-10.6-3.248c-3.752,0.765-7.096,3.554-8.499,7.122         c-0.783,1.987-0.969,4.202-0.587,6.301c-0.46-1.149-0.805-2.324-1.071-3.518l-0.002-0.018         c0.125-1.075,0.372-2.122,0.772-3.117c1.519-3.849,5.13-6.884,9.202-7.712c3.69-0.748,7.751,0.322,10.641,2.75         c-0.049-4.38-0.015-8.872,1.269-13.172c1.54-5.211,4.944-9.285,9.08-10.897C398.056,207.458,401.642,207.737,404.669,209.179         z"/>
							<path style="fill:#304554;" d="M377.8,244.463c0.779-0.613,1.073-1.676,1.051-2.667c-0.033-1.478-0.799-3.131-2.327-3.55         c-1.413-0.386-2.884,0.294-3.283,1.712C372.567,242.358,375.057,246.621,377.8,244.463z"/>
							<path style="fill:#304554;" d="M396.043,225.853c1.124,0.004,2.142-0.95,2.305-2.063c0.312-2.122-2.482-4.238-4.366-2.872         C392.061,222.31,393.956,225.846,396.043,225.853z"/>
							<path style="fill:#304554;" d="M368.316,211.523c0.415,0.792,0.889,1.575,1.569,2.156c0.681,0.581,1.603,0.936,2.479,0.755         c1.655-0.343,2.376-2.285,2.634-3.955c0.704-4.56,0.094-9.316-1.738-13.552c-1.237-2.86-4.665-5.543-6.612-1.713         c-1.505,2.961-1.079,7.297-0.427,10.43C366.647,207.687,367.348,209.674,368.316,211.523z"/>
							<path style="fill:#304554;" d="M380.968,200.305c0.471,0.603,1.05,1.146,1.76,1.429c0.711,0.283,1.568,0.271,2.196-0.164         c0.556-0.385,0.869-1.049,0.966-1.717c0.097-0.669,0.002-1.349-0.116-2.015c-0.195-1.096-0.461-2.2-1.033-3.155         c-0.573-0.954-1.498-1.748-2.595-1.93C377.693,192.015,379.529,198.462,380.968,200.305z"/>
							<path style="fill:#304554;" d="M370.889,167.012c-0.262-0.183-0.525-0.365-0.795-0.538c-1.764,1.886-2.899,4.359-3.237,6.923         c-0.383-0.002-0.772,0.025-1.155,0.087c-2.381,0.393-4.554,1.953-5.934,4.177c-0.003,0.703,0.004,1.413,0.019,2.113         c0.065-0.191,0.147-0.385,0.24-0.571c1.153-2.54,3.382-4.362,5.834-4.766c0.302-0.06,0.608-0.084,0.91-0.08         c-0.073,1.643,0.175,3.305,0.825,4.838c0.683,1.638,2.194,3.199,3.903,2.761c0.52-0.136,0.963-0.425,1.294-0.863         c0.108-0.143,0.196-0.301,0.273-0.466c0.477-0.969,0.495-2.285,0.038-3.352c-0.878-2.058-2.982-3.491-5.298-3.818         C368.111,171.063,369.205,168.75,370.889,167.012z M372.214,177.646c0.359,0.817,0.347,1.849-0.001,2.563         c-0.222,0.441-0.54,0.713-0.954,0.816c-1.154,0.296-2.244-0.93-2.776-2.197c-0.595-1.395-0.831-2.904-0.765-4.409         C369.685,174.721,371.486,175.94,372.214,177.646z"/>
						</g>
					</g>
				</g>
				<g>
					<g>
						<path style="fill:#F2E5C4;" d="M414.25,201.53c1.418,0.01,2.736-0.512,3.954-1.282c0.189-0.106,0.374-0.231,0.549-0.362        c0.661-0.442,1.289-0.951,1.877-1.47c1.435-1.252,2.787-2.587,4.059-3.988c0.149-0.162,0.281-0.321,0.423-0.473        c1.088-1.23,2.111-2.502,3.077-3.826c0.645-0.892,1.239-1.801,1.727-2.732c0.106-0.19,0.201-0.387,0.289-0.573        c1.384-2.906,1.726-5.961-0.167-9.123c-1.714-2.896-3.981-3.57-7.102-4.332c-4.47-1.093-8.944-2.204-13.438-3.236        c-4.533-1.042-9.079-2.017-13.634-2.953c-2.306-0.471-4.609-0.924-6.91-1.377c-1.128-0.204-2.26-0.426-3.398-0.636        c-0.203-0.039-0.75-0.084-1.318-0.144c-0.039-0.01-0.085-0.009-0.114-0.012c-0.778-0.087-1.575-0.216-1.703-0.419        c0.124,0.185,0.249,0.371,0.373,0.556c0.238,0.364,0.476,0.728,0.72,1.081c7.059,10.624,14.814,20.798,23.165,30.443        C408.705,199.009,411.156,201.511,414.25,201.53z"/>
						<g>
							<path style="fill:#304554;" d="M381.941,164.801l0.215,0.091l0.64,0.256l0.936,0.385l0.429,0.183l0.64,0.256         c1.179,0.479,2.369,0.966,3.559,1.452l0.032,0.021c14.156,5.816,28.574,11.936,41.524,19.952         c0.106-0.19,0.201-0.387,0.289-0.573c-14.095-8.717-29.862-15.166-45.165-21.441l-0.59-0.24l-0.325-0.132l-1.944-0.801         c-0.164-0.075-0.351,0.004-0.415,0.175c-0.02,0.032-0.024,0.061-0.016,0.096l-0.007,0.011         C381.736,164.624,381.809,164.747,381.941,164.801z"/>
							<path style="fill:#304554;" d="M418.204,200.249c0.189-0.106,0.374-0.231,0.549-0.362         c-5.569-5.476-11.051-10.852-16.554-16.241c-6.118-5.993-12.254-11.983-18.467-18.112c-0.068-0.059-0.119-0.122-0.188-0.181         c0.212,0.12,0.412,0.233,0.617,0.363c14.368,8.24,27.982,17.877,40.528,28.712c0.149-0.162,0.281-0.321,0.423-0.473         c-11.424-9.862-23.754-18.756-36.72-26.511l-0.032-0.021c-1.292-0.778-2.597-1.535-3.909-2.281         c-0.065-0.041-0.14-0.089-0.211-0.12c-0.818-0.476-1.653-0.948-2.478-1.413c-0.136-0.072-0.313-0.033-0.406,0.09         c-0.1,0.133-0.09,0.307,0.019,0.421c0.119,0.122,0.25,0.25,0.376,0.361l-0.007,0.011c0.141,0.135,0.282,0.271,0.412,0.399         c0.459,0.444,0.911,0.9,1.36,1.337c6.148,6.042,12.193,11.959,18.239,17.876C407.211,189.449,412.678,194.8,418.204,200.249z         "/>
						</g>
					</g>
					<g>
						<path style="fill:#FFCBA1;" d="M391.322,170.444c7.99,3.035,16.311,5.099,24.674,6.811c3.032,0.616,6.131,1.198,9.221,1.366        c0.497,0.029,0.99,0.04,1.482,0.052c2.113,0.014,4.225-0.185,6.28-0.723c5.729-1.498,10.538-5.523,13.982-10.327        c3.443-4.805,5.645-10.371,7.584-15.954c1.075-3.088,2.078-6.252,2.217-9.512c0.136-3.278-0.685-6.695-2.861-9.129        c-2.306-2.562-5.874-3.716-9.317-3.806c-0.057-0.006-0.103-0.005-0.167,0c-1.237-0.032-2.458,0.053-3.671,0.22l-0.018,0.004        c-2.128,0.295-4.24,0.827-6.33,1.372c-5.356,1.388-10.699,2.829-16.024,4.358c-9.539,2.72-19.017,5.677-28.408,8.855        c-2.644,0.89-5.29,1.808-7.926,2.734c-0.662,0.229-1.33,0.47-1.988,0.717c-1.436,0.493-2.875,1.015-4.296,1.533        c-2.382,0.86-4.896,1.878-6.913,3.425c-2.816,2.159-0.805,4.351,1.295,6.19c0.974,0.849,1.987,1.661,3.016,2.423        c0.255,0.193,0.518,0.376,0.78,0.558C379.233,165.401,385.211,168.123,391.322,170.444z"/>
						<g>
							<path style="fill:#304554;" d="M425.218,178.621c0.497,0.029,0.99,0.04,1.482,0.052c-2.698-2.16-4.443-5.531-4.379-9.006         c0.065-4.141,2.561-8.459,6.67-11.551c3.777-2.834,8.317-4.439,12.708-6.003c0.18-0.067,0.307-0.244,0.31-0.439         c0.014-0.188-0.1-0.367-0.286-0.455c-3.491-1.56-6.134-5.018-6.732-8.809c-0.587-3.784,0.865-7.889,3.722-10.446         c1.591-1.425,3.603-2.37,5.704-2.742c-1.237-0.032-2.458,0.053-3.671,0.22l-0.018,0.004c-0.964,0.491-1.86,1.087-2.653,1.808         c-3.081,2.763-4.671,7.204-4.031,11.31c0.582,3.72,2.998,7.155,6.279,9.02c-4.124,1.476-8.324,3.071-11.909,5.77         c-4.35,3.257-6.986,7.864-7.059,12.303C421.305,173.019,422.814,176.285,425.218,178.621z"/>
							<path style="fill:#304554;" d="M448.956,141.159c-0.304,0.943-1.198,1.589-2.135,1.913c-1.397,0.483-3.214,0.34-4.137-0.948         c-0.854-1.19-0.727-2.806,0.463-3.673C445.162,136.985,450.026,137.837,448.956,141.159z"/>
							<path style="fill:#304554;" d="M437.852,164.735c0.395,1.053-0.146,2.339-1.132,2.879c-1.881,1.03-4.836-0.854-4.211-3.095         C433.146,162.234,437.12,162.781,437.852,164.735z"/>
							<path style="fill:#304554;" d="M414.774,143.722c0.887,0.114,1.786,0.286,2.567,0.722c0.781,0.436,1.436,1.177,1.57,2.061         c0.253,1.671-1.316,3.022-2.792,3.844c-4.031,2.246-8.702,3.328-13.31,3.083c-3.112-0.165-6.819-2.446-3.906-5.603         c2.253-2.441,6.467-3.55,9.631-4.028C410.597,143.491,412.704,143.457,414.774,143.722z"/>
							<path style="fill:#304554;" d="M408.657,159.486c0.728,0.231,1.439,0.586,1.952,1.154c0.512,0.568,0.799,1.375,0.61,2.116         c-0.167,0.655-0.681,1.179-1.274,1.503c-0.593,0.323-1.265,0.471-1.93,0.591c-1.095,0.199-2.223,0.334-3.317,0.129         c-1.094-0.205-2.16-0.796-2.712-1.762C399.744,159.298,406.427,158.778,408.657,159.486z"/>
							<path style="fill:#304554;" d="M378.908,156.48c1.112,2.058,3.187,3.533,5.422,3.64c1.16,0.058,2.387-0.417,3.13-1.201         c0.129-0.13,0.246-0.267,0.342-0.418c0.295-0.463,0.413-0.979,0.359-1.514c-0.185-1.754-2.173-2.628-3.946-2.699         c-1.664-0.076-3.309,0.269-4.823,0.909c-0.108-0.281-0.193-0.577-0.241-0.881c-0.475-2.439,0.459-5.163,2.439-7.127         c0.142-0.152,0.295-0.297,0.452-0.424c-0.662,0.229-1.33,0.47-1.988,0.717c-1.606,2.067-2.312,4.647-1.853,7.016         c0.075,0.381,0.186,0.755,0.32,1.114c-2.286,1.209-4.211,3.133-5.365,5.443c0.255,0.193,0.518,0.376,0.78,0.558         C374.98,159.431,376.768,157.601,378.908,156.48z M379.778,156.066c1.388-0.585,2.885-0.888,4.4-0.816         c1.373,0.057,2.902,0.654,3.025,1.838c0.048,0.424-0.097,0.817-0.433,1.178c-0.548,0.575-1.512,0.945-2.402,0.892         C382.515,159.069,380.745,157.804,379.778,156.066z"/>
						</g>
					</g>
				</g>
				<g>
					<path style="fill:#222A30;" d="M341.857,191.261c-0.264,0-0.509-0.166-0.596-0.431c-2.195-6.649-1.089-14.385,2.887-20.19       c3.975-5.803,10.792-9.631,17.791-9.992c0.352-0.034,0.641,0.248,0.659,0.594c0.018,0.346-0.248,0.642-0.595,0.659       c-6.616,0.342-13.061,3.962-16.82,9.449c-3.759,5.487-4.805,12.801-2.73,19.087c0.109,0.329-0.07,0.683-0.399,0.792       C341.988,191.252,341.922,191.261,341.857,191.261z"/>
					<path style="fill:#222A30;" d="M365.274,159.337c-0.194,0-0.385-0.089-0.508-0.259c-4.11-5.657-5.396-13.351-3.355-20.078       c2.04-6.726,7.39-12.438,13.963-14.907c0.323-0.119,0.687,0.043,0.808,0.368c0.122,0.324-0.042,0.686-0.367,0.808       c-6.216,2.333-11.275,7.735-13.204,14.095c-1.929,6.36-0.714,13.631,3.169,18.977c0.204,0.28,0.142,0.673-0.139,0.877       C365.531,159.299,365.402,159.337,365.274,159.337z"/>
				</g>
			</g>
		</g>
		<g>
			<path style="fill:#FFF2E8;" d="M110.3,89.542c-3.283-6.634-9.661-11.637-16.559-15.235c-1.025-0.534-1.1-1.937-0.167-2.619     c6.009-4.39,11.37-12.128,14.068-19.896c0.434-1.249,2.125-1.363,2.785-0.217c3.932,6.831,9.625,12.053,16.397,16.796     c0.853,0.598,0.888,1.829,0.078,2.484c-6.433,5.204-11.078,11.159-13.769,18.58C112.666,90.724,110.908,90.771,110.3,89.542z"/>
			<path style="fill:#FFF2E8;" d="M253.896,241.677c-2.065-4.172-6.076-7.318-10.414-9.581c-0.644-0.336-0.692-1.218-0.105-1.647     c3.78-2.761,7.15-7.627,8.847-12.512c0.273-0.786,1.337-0.857,1.751-0.136c2.473,4.296,6.053,7.58,10.312,10.563     c0.537,0.376,0.559,1.15,0.049,1.562c-4.046,3.273-6.966,7.017-8.659,11.684C255.384,242.42,254.278,242.45,253.896,241.677z"/>
			<path style="fill:#FFF2E8;" d="M434.048,348.831c-1.92-3.879-5.649-6.804-9.683-8.908c-0.599-0.313-0.643-1.133-0.097-1.531     c3.514-2.567,6.648-7.092,8.226-11.633c0.254-0.731,1.243-0.797,1.628-0.127c2.299,3.994,5.628,7.047,9.587,9.821     c0.499,0.349,0.519,1.069,0.046,1.452c-3.762,3.043-6.477,6.525-8.051,10.864C435.432,349.522,434.404,349.549,434.048,348.831z"/>
			<path style="fill:#FFF2E8;" d="M274.366,378.722c-1.92-3.879-5.649-6.804-9.683-8.908c-0.599-0.313-0.643-1.133-0.097-1.531     c3.514-2.567,6.648-7.092,8.226-11.633c0.254-0.731,1.243-0.797,1.628-0.127c2.299,3.994,5.628,7.047,9.588,9.821     c0.499,0.35,0.519,1.069,0.046,1.452c-3.762,3.043-6.477,6.525-8.05,10.864C275.75,379.413,274.722,379.441,274.366,378.722z"/>
			<path style="fill:#FFF2E8;" d="M45.463,348.831c-1.92-3.879-5.649-6.804-9.682-8.908c-0.599-0.313-0.643-1.133-0.097-1.531     c3.514-2.567,6.648-7.092,8.226-11.633c0.254-0.731,1.243-0.797,1.628-0.127c2.299,3.994,5.628,7.047,9.587,9.821     c0.499,0.349,0.519,1.069,0.046,1.452c-3.762,3.043-6.477,6.525-8.051,10.864C46.847,349.522,45.818,349.549,45.463,348.831z"/>
			<path style="fill:#FFF2E8;" d="M284.374,223.005c-2.788-5.633-8.204-9.881-14.061-12.937c-0.87-0.454-0.934-1.645-0.141-2.224     c5.103-3.728,9.655-10.299,11.946-16.895c0.369-1.061,1.805-1.157,2.365-0.184c3.339,5.801,8.173,10.235,13.923,14.262     c0.725,0.508,0.754,1.553,0.067,2.109c-5.463,4.419-9.406,9.475-11.691,15.777C286.383,224.009,284.89,224.049,284.374,223.005z"/>
			<path style="fill:#FFF2E8;" d="M351.08,113.186c-2.592-5.237-7.628-9.187-13.074-12.028c-0.809-0.422-0.868-1.53-0.132-2.068     c4.745-3.466,8.976-9.576,11.107-15.708c0.343-0.986,1.678-1.076,2.199-0.171c3.105,5.393,7.599,9.516,12.946,13.261     c0.674,0.472,0.701,1.444,0.062,1.961c-5.079,4.108-8.746,8.81-10.87,14.669C352.949,114.119,351.561,114.156,351.08,113.186z"/>
		</g>
	</g>
</g>















</svg>
