<?xml version="1.0" encoding="UTF-8"?>
<!-- Generator: Adobe Illustrator 25.2.1, SVG Export Plug-In . SVG Version: 6.00 Build 0)  -->
<svg xmlns="http://www.w3.org/2000/svg" xmlns:xlink="http://www.w3.org/1999/xlink" version="1.1" id="Capa_1" x="0px" y="0px" viewBox="0 0 512 512" style="enable-background:new 0 0 512 512;" xml:space="preserve" width="512" height="512">
<g>
	<path style="fill:#FFFFFF;" d="M84.437,512c-6.805,0-12.985-4.014-15.745-10.225C43.514,444.339,29.952,374.549,27.22,288.409   c-6.056-9.343-8.527-20.943-7.111-31.46c-4.944-5.343-8.295-10.984-10.164-17.074c-4.115-13.406,0.296-28.091,10.729-35.709   c5.084-3.714,11.318-5.677,18.026-5.677c2.659,0,5.347,0.31,7.992,0.912c12.272-23.559,29.628-42.477,50.812-55.233   c1.403-0.845,2.811-1.689,4.221-2.534c15.547-9.319,30.233-18.122,41.336-29.991c7.398-7.909,12.545-18.257,17.994-29.212   c3.855-7.751,7.842-15.767,12.894-23.473C197.792,22.592,243.247,0,292.576,0c11.31,0,22.509,1.207,33.287,3.589   c44.38,9.808,85.386,37.748,116.16,78.986c0.452,0.066,0.902,0.141,1.351,0.221c3.877-3.636,8.34-7.179,13.269-9.705   c5.264-2.698,11.052-4.125,16.74-4.125c6.32,0,12.259,1.782,17.176,5.152c10.654,7.308,15.5,21.854,11.786,35.377   c-1.688,6.143-4.87,11.881-9.653,17.368c1.733,10.501-0.411,22.208-6.226,31.744c-1.041,1.706-2.221,3.347-3.522,4.903   c3.218,10.084,5.983,20.522,8.25,31.146c0.042,0.188,0.114,0.511,0.242,1.124l0.097,0.049l1.004,5.327l1.57,6.021l-0.369,0.524   c5.135,29.354,6.874,60.783,5.167,93.501c-3.78,72.077-15.803,131.7-40.205,199.366C456.265,507.409,449.77,512,442.51,512H84.437z   "/>
	<g>
		<path style="fill:#CDE6CF;" d="M483.923,300.422c-3.46,65.986-13.951,124.679-39.355,195.111    c-0.307,0.876-1.139,1.467-2.059,1.467h-95.562l-46.816-6.194L236.427,497h-0.948l-44.82-6.194L156.459,497H84.438    c-0.876,0-1.686-0.526-2.037-1.314c-27.879-63.599-38.107-137.184-40.253-209.872c-0.022-0.854-0.044-1.686-0.044-2.54    c-0.307-21.441,3.657-43.647,11.914-63.971c10.293-25.426,27.332-47.896,51.225-62.285c17.236-10.381,35.128-20.543,48.772-35.128    c14.608-15.615,20.805-36.902,32.478-54.707c27.726-42.29,85.871-60.051,136.133-48.947c45.881,10.14,84.776,40.91,111.407,78.885    c2.562,3.635,4.993,7.337,7.315,11.082c2.124,3.438,4.183,6.942,6.11,10.469c0.394,0.679,0.766,1.336,1.095,2.015    c6.745,12.374,12.396,25.229,17.082,38.435c4.49,12.637,8.103,25.602,10.906,38.764c0.131,0.569,0.263,1.117,0.372,1.686    c0.328,1.555,0.635,3.11,0.92,4.665c0.109,0.548,0.219,1.095,0.328,1.664C484.011,236.933,485.566,268.929,483.923,300.422z"/>
		<g>
			<g>
				<path style="fill:#CAFCFF;" d="M420.339,202.307c9.47,0.93,19.29-3.323,25.09-10.867c5.8-7.544,8.154-18.58,4.822-27.493      c9.351-0.005,18.538-5.166,23.407-13.149c4.869-7.984,6.346-19.941,2.069-28.257c5.385-4.593,10.278-10.194,12.152-17.019      c1.875-6.824,0.034-15.029-5.803-19.031c-5.367-3.68-12.8-3.021-18.591-0.052c-5.791,2.969-11.382,8.555-15.765,13.366      c-8.796-4.236-19.803-3.468-27.925,1.948c-8.122,5.416-14.651,15.399-14.123,25.147c-11.108-2.507-23.468,1.749-30.676,10.565      c-7.209,8.816-8.764,20.261-4.101,30.65c-12.34,3.321-21.614,15.685-21.35,28.461s10.041,24.745,22.507,27.554      c9.616,2.167,18.971,4.784,28.029,0.895C409.139,221.136,418.018,211.888,420.339,202.307z"/>
				<path style="fill:#62857E;" d="M276.333,483.534c-0.041,0-0.082-0.002-0.125-0.007c-0.601-0.067-1.032-0.611-0.963-1.211      c15.803-139.006,78.902-270.125,177.676-369.204c0.429-0.428,1.122-0.428,1.548-0.002c0.428,0.427,0.429,1.12,0.002,1.548      c-98.426,98.73-161.304,229.389-177.051,367.906C277.357,483.121,276.883,483.534,276.333,483.534z"/>
			</g>
			<g>
				<path style="fill:#CAFCFF;" d="M94.669,330.211c-9.439,1.211-19.38-2.748-25.402-10.117c-6.022-7.368-8.703-18.33-5.636-27.338      c-9.347,0.273-18.683-4.613-23.787-12.448c-5.104-7.835-6.936-19.744-2.908-28.183c-5.518-4.431-10.576-9.885-12.652-16.65      c-2.076-6.766-0.48-15.021,5.235-19.195c5.255-3.838,12.704-3.4,18.581-0.604c5.877,2.796,11.631,8.214,16.155,12.892      c8.666-4.495,19.691-4.055,27.971,1.118c8.28,5.172,15.102,14.957,14.864,24.716c11.029-2.836,23.509,1.052,30.976,9.649      c7.467,8.598,9.362,19.991,5.009,30.514c12.433,2.953,22.07,15.036,22.186,27.814c0.116,12.778-9.302,25.033-21.679,28.211      c-9.548,2.451-18.821,5.346-27.99,1.727C106.424,348.699,97.274,339.718,94.669,330.211z"/>
				<path style="fill:#62857E;" d="M222.126,497h-2.3c-0.197-0.613-0.416-1.205-0.635-1.818      c-5.234-15.396-11.06-30.573-17.477-45.487c-1.467-3.394-2.978-6.789-4.49-10.162c-0.372-0.832-0.766-1.665-1.161-2.497      c-0.482-1.139-1.008-2.256-1.555-3.373c-11.52-24.901-24.704-49.035-39.464-72.206c-2.54-4.051-5.168-8.081-7.841-12.089      c-7.577-11.344-15.527-22.448-23.871-33.267c-19.776-25.777-41.633-50.042-65.373-72.49c-0.46-0.416-0.46-1.117-0.044-1.555      c0.394-0.438,1.095-0.46,1.533-0.044c23.784,22.47,45.64,46.735,65.482,72.534c8.475,11.038,16.579,22.339,24.288,33.902      c2.212,3.307,4.38,6.636,6.526,9.987c16.316,25.492,30.792,52.145,43.253,79.718c0.372,0.81,0.745,1.621,1.095,2.453      c0.394,0.832,0.766,1.664,1.117,2.497c1.117,2.496,2.212,5.015,3.263,7.533c4.161,9.702,8.037,19.513,11.673,29.434      c1.818,4.862,3.526,9.746,5.19,14.651C221.622,495.467,221.863,496.233,222.126,497z"/>
			</g>
			<g>
				<path style="fill:#222A30;" d="M231.455,497h-2.212c-2.606-38.479-5.431-75.359-9.965-111.955      c-0.964-7.862-2.015-15.725-3.153-23.565c-0.088-0.569-0.175-1.161-0.263-1.73c-0.394-2.803-0.832-5.606-1.27-8.41      c-1.029-6.636-2.124-13.294-3.329-19.951c-1.993-11.213-4.205-22.448-6.702-33.771c0-0.044,0-0.088-0.044-0.131      c-1.621-7.49-3.395-15.002-5.278-22.557c-1.423-5.694-2.913-11.41-4.512-17.148c-0.219-0.854-0.46-1.73-0.701-2.606      c-6.767-24.309-21.046-51.619-28.974-65.745c-0.285-0.525-0.109-1.183,0.416-1.489c0.526-0.285,1.205-0.11,1.489,0.416      c7.906,14.082,22.119,41.217,29.018,65.591c0.066,0.219,0.109,0.416,0.175,0.635c1.884,6.745,3.635,13.447,5.3,20.127      c1.905,7.599,3.679,15.155,5.322,22.667c0.044,0.153,0.066,0.329,0.11,0.482c2.453,11.191,4.643,22.295,6.592,33.376      c1.051,5.869,2.037,11.717,2.957,17.564c0.438,2.672,0.832,5.366,1.226,8.037c0.109,0.548,0.175,1.117,0.263,1.665      c1.161,7.906,2.256,15.834,3.241,23.762C225.87,419.779,228.761,457.557,231.455,497z"/>
				<g>
					<path style="fill:#FCEBE0;" d="M124.02,188.089c-14.049,14.4-26.585,30.937-32.545,50.152c-0.611,1.971-1.157,4.011-1.016,6.07       c0.141,2.059,1.082,4.165,2.852,5.225c3.346,2.002,7.534-0.465,10.493-3.005c9.03-7.754,16.663-17.129,22.424-27.544       c-2.331,17.703-4.364,35.616,0.602,52.767c0.732,2.527,1.641,5.069,3.307,7.106c1.665,2.037,4.223,3.506,6.843,3.26       c3.867-0.363,6.448-4.086,8.152-7.576c8.704-17.818,8.985-38.424,9.093-58.254c2.948,8.586,4.868,16.724,7.816,25.31       c2.254,6.566,4.664,13.384,9.614,18.25c4.95,4.867,13.249,7.084,18.929,3.092c3.384-2.378,5.222-6.512,5.63-10.628       s-0.457-8.251-1.568-12.235c-3.559-12.764-9.73-24.794-18.021-35.131c9.311,10.638,21.527,18.471,35.08,22.495       c4.449,1.321,9.159,2.232,13.721,1.375c4.561-0.856,8.958-3.789,10.472-8.176c1.186-3.437,0.468-7.32-1.246-10.526       c-1.714-3.206-4.34-5.827-7.091-8.204c-8.881-7.673-19.507-13.314-30.838-16.372c12.906,1.315,25.29,2.339,37.427-2.242       c3.302-1.246,6.513-2.961,8.88-5.578c2.368-2.617,3.793-6.252,3.144-9.721c-0.615-3.28-2.994-6.027-5.841-7.768       c-2.846-1.741-6.137-2.601-9.406-3.268c-16.852-3.441-33.946-5.286-50.218,0.286C161.54,163.814,138.17,173.586,124.02,188.089       z"/>
					<path style="fill:#FFCE2E;" d="M162.075,154.872c-17.581,2.314-33.106,15.834-38.078,32.809       c-0.387,1.319,0.475,2.704,1.842,2.846c11.745,1.221,23.535-0.324,33.942-5.972c10.484-5.689,19.192-14.587,24.687-25.17       c0.591-1.139,0.038-2.551-1.152-3.031C176.809,153.726,169.033,153.956,162.075,154.872z"/>
				</g>
			</g>
			<g>
				<path style="fill:#222A30;" d="M294.528,113.502c-2.322,6.526-4.555,13.074-6.745,19.666      c-3.789,11.498-7.38,23.105-10.753,34.778C246.216,274.273,233.032,386.819,238.638,497h-2.212      c-5.716-112.59,8.169-227.655,40.362-336.04c2.759-9.373,5.694-18.725,8.782-28.011c2.212-6.745,4.512-13.469,6.877-20.17      c0.197-0.591,0.832-0.876,1.402-0.679C294.419,112.297,294.725,112.932,294.528,113.502z"/>
				<g>
					<path style="fill:#FFF2E8;" d="M376.679,110.742c-2.301-2.978-5.433-5.217-8.729-7.034c-9.325-5.142-20.121-7.143-30.768-7.343       c-1.392-0.026-2.784-0.02-4.174,0.009c5.438-2.62,10.73-5.578,15.882-8.703c4.993-3.029,9.969-6.292,13.7-10.785       c3.731-4.493,6.103-10.439,5.094-16.191c-1.427-8.141-9.531-13.987-17.768-14.676c-8.236-0.689-16.333,2.896-22.92,7.889       c-6.587,4.993-16.266,17.461-19.87,25.161c0.655-7.372,1.052-20.578,0-26.702c-1.052-6.124-3.74-11.896-7.742-16.649       c-4.002-4.753-10.57-7.748-16.557-6.085c-5.037,1.398-8.727,5.687-11.49,10.124c-3.251,5.22-5.614,10.98-7.054,16.955       c-2.044,8.479-2.234,17.445-0.513,26.013c-6.046-4.484-12.593-8.277-19.545-11.153c-11.346-4.693-23.773-6.912-36.008-5.896       c-5.128,0.426-10.391,1.489-14.567,4.495c-4.176,3.006-7.001,8.348-5.777,13.346c0.706,2.884,2.657,5.35,5.02,7.148       c2.362,1.798,5.126,2.99,7.912,4.014c16.214,5.958,33.81,6.703,51.075,7.269c-10.041,1.325-20.365,2.923-30.023,5.97       c-9.658,3.046-18.949,7.923-25.795,15.387c-2.961,3.227-5.494,7.065-6.131,11.398c-0.637,4.333,1.006,9.201,4.784,11.418       c2.958,1.736,6.622,1.619,10.028,1.223c17.393-2.024,33.494-9.874,49.205-17.605c-11.221,10.888-19.014,25.439-22.027,40.781       c-0.622,3.168-1.046,6.433-0.527,9.62c0.519,3.187,2.09,6.318,4.767,8.123c2.656,1.791,6.097,2.085,9.248,1.509       c7.588-1.387,13.591-7.268,17.908-13.66c6.754-10,10.515-21.669,14.193-33.162c-0.68,8.653-1.035,17.025-0.436,25.684       c0.599,8.659,2.533,17.351,6.784,24.919c1.562,2.78,3.467,5.433,6.012,7.355c2.545,1.922,5.803,3.055,8.953,2.561       c3.378-0.53,6.28-2.872,8.121-5.753c1.842-2.881,2.74-6.263,3.312-9.634c2.535-14.955-0.903-30.232-4.881-44.87       c2.812,8.219,5.989,15.952,10.767,23.206c4.778,7.254,11.139,13.639,18.965,17.407c4.051,1.951,8.721,3.18,13.045,1.948       c5.234-1.492,9.004-6.503,9.974-11.858c0.971-5.355-0.524-10.929-3.138-15.702c-3.246-5.927-8.149-10.816-13.578-14.841       c-5.428-4.025-11.402-7.244-17.351-10.449c7.163,1.825,14.059,3.749,21.421,4.409c7.362,0.661,14.941,0.147,21.834-2.522       c3.032-1.174,5.939-2.782,8.261-5.058c2.322-2.276,4.027-5.266,4.392-8.497C380.388,117.512,378.98,113.72,376.679,110.742z"/>
					<ellipse style="fill:#FFCE2E;" cx="291.993" cy="111.312" rx="32.446" ry="22.052"/>
				</g>
			</g>
			<g>
				<g>
					<path style="fill:#456638;" d="M211.478,452.708c-0.088,0.153-0.438,0.153-1.205-0.088c-1.686-0.526-3.373-1.161-5.037-1.73       c-3.307-1.117-6.592-2.234-9.899-3.351c-7.402-2.694-14.914-5.081-22.404-7.622c-1.183-0.394-2.387-0.81-3.57-1.226       c-6.329-2.19-12.571-4.731-18.112-8.476c-3.198-2.124-6.132-4.687-8.585-7.643c-1.884-2.256-3.723-4.752-4.621-7.578       c-0.635-1.949-0.723-4.161,0.197-6.001c0.329-0.701,0.81-1.314,1.358-1.839c0.35-0.329,0.745-0.613,1.161-0.898       c1.533-0.985,3.438-1.511,5.278-1.708c8.037-0.832,15.484,3.176,21.944,7.468c5.212,3.46,10.184,7.227,14.98,11.235       c8.738,7.271,16.863,15.286,24.266,23.915l0.066,0.066c1.029,1.204,2.059,2.431,3.066,3.657       C210.909,451.569,211.697,452.423,211.478,452.708z"/>
					<path style="fill:#222A30;" d="M211.478,452.708c-10.359-9.855-21.112-19.908-33.004-28.164       c-13.096-9.11-26.171-14.958-38.873-17.389c0.35-0.329,0.745-0.613,1.161-0.898c12.549,2.584,25.448,8.41,38.348,17.389       c10.052,6.964,19.272,15.199,28.12,23.521l0.066,0.066c1.029,1.204,2.059,2.431,3.066,3.657       C210.909,451.569,211.697,452.423,211.478,452.708z"/>
				</g>
				<g>
					<path style="fill:#222A30;" d="M221.775,497h-2.212c-0.11-0.613-0.241-1.226-0.372-1.818       c-0.985-5.059-1.993-10.096-3.044-15.111c-1.884-9.22-3.854-18.374-5.957-27.463c-0.109-0.482-0.219-0.964-0.328-1.424       c-0.088-0.416-0.175-0.832-0.285-1.226c-3.526-15.155-7.424-30.135-11.914-44.962c-3.811-12.593-7.906-24.507-12.308-35.807       c-6.132-15.768-12.855-30.376-20.214-43.932c-3.066-5.628-6.264-11.082-9.548-16.36c-1.205-1.949-2.431-3.876-3.679-5.76       c-0.329-0.526-0.175-1.205,0.329-1.533c0.504-0.328,1.183-0.175,1.511,0.329c1.292,1.971,2.562,3.986,3.811,6.001       c2.65,4.227,5.191,8.541,7.643,12.987c8.278,14.739,15.703,30.705,22.426,48.115c4.314,11.169,8.344,22.93,12.111,35.325       c0.022,0.088,0.066,0.197,0.088,0.285c0.088,0.329,0.197,0.657,0.285,0.985c0.285,0.876,0.548,1.752,0.788,2.628       c8.388,28.252,14.63,57.072,20.433,86.463C221.491,495.489,221.644,496.255,221.775,497z"/>
					<g>
						<path style="fill:#FFF2E8;" d="M127.431,312.265c-15.765,13.636-25.121,34.39-24.898,55.233        c0.032,3.001,0.273,6.083,1.568,8.79c1.295,2.707,3.847,4.987,6.841,5.192c4.029,0.275,7.388-3.123,9.288-6.687        c1.9-3.564,3.017-7.617,5.68-10.652c-1.051,5.221-1.237,11.04,0.238,16.158s6.34,9.682,11.608,8.899        c4.157-0.618,7.194-4.201,9.386-7.787c7.086-11.589,9.483-25.383,11.16-38.863c2.417,5.388,4.858,10.582,8.36,15.336        c3.502,4.754,8.194,8.839,13.842,10.563c5.02,1.532,11.078,0.841,14.598-3.052c3.319-3.671,3.623-9.144,3.077-14.063        c-0.986-8.89-4.196-17.526-9.256-24.902c7.991,4.547,17.76,5.844,26.858,4.52c6.06-0.881,12.483-3.629,14.977-9.222        c2.006-4.5,0.902-9.992-2.022-13.957c-2.924-3.965-7.425-6.54-12.128-8.007c-4.703-1.468-9.652-1.926-14.558-2.376        c6.918,0.681,14.928-1.747,20.967-5.19c2.421-1.38,4.83-3.292,5.46-6.007c0.664-2.857-0.918-5.879-3.241-7.668        c-2.324-1.789-5.262-2.563-8.148-3.085c-15.757-2.851-32.594,0.828-45.725,9.993        C157.402,295.173,140.307,301.127,127.431,312.265z"/>
						<path style="fill:#FFCE2E;" d="M166.456,279.379c-9.865,1.118-19.35,5.377-26.742,12.005        c-6.601,5.92-11.503,13.705-14.03,22.201c-0.442,1.485,0.738,2.991,2.28,2.845c22.061-2.101,42.958-12.839,56.12-30.583        c0.876-1.181,0.307-2.877-1.087-3.346C177.667,280.711,171.775,278.777,166.456,279.379z"/>
					</g>
					<g>
						<path style="fill:#456638;" d="M234.543,355.72c-0.175,4.928-2.65,9.461-5.19,13.688c-4.095,6.855-8.476,13.535-13.14,19.995        c-4.577,6.307-9.351,13.753-15.177,18.944c-0.044-0.022-0.088-0.066-0.131-0.088c-0.46-0.329-0.723-0.942-0.898-1.73        c-0.635-3.022,0.416-8.629,0.613-10.512c0.46-4.752,1.226-9.461,2.256-14.126c2.059-9.198,5.234-18.134,9.483-26.565        c1.467-2.935,3.132-5.891,5.585-8.103c2.409-2.146,5.738-3.526,8.892-2.913c0.066,0,0.131,0,0.197,0.022        c0.35,0.066,0.679,0.175,0.985,0.307C232.265,346.15,234.718,351.143,234.543,355.72z"/>
						<path style="fill:#222A30;" d="M228.017,344.639c-15.199,17.893-24.747,40.209-27.113,63.621        c-0.46-0.329-0.723-0.942-0.898-1.73c2.628-22.864,12.023-44.633,26.828-62.219c0.066,0,0.131,0,0.197,0.022        C227.382,344.398,227.71,344.507,228.017,344.639z"/>
					</g>
				</g>
			</g>
		</g>
		<g>
			<g>
				<path style="fill:#FF6453;" d="M380.482,281.396c-0.504,6.965-4.139,13.403-8.892,18.506      c-4.052,4.358-8.869,7.884-13.775,11.279c-0.306,0.197-0.613,0.416-0.898,0.613c-0.131,0.088-0.263,0.175-0.394,0.263      c-0.285,0.197,0.175,0.548,0.504,0.526c3.701-0.131,8.147,3.11,8.563,6.68c0.482,4.161-2.256,8.191-5.826,10.403      c-3.57,2.19-7.84,2.913-12.001,3.416c-20.959,2.562-44.239,3.329-64.606-2.343c-0.214-0.059-0.049-0.541-0.262-0.606      c-0.181-0.055-0.74,0.306-0.92,0.256c-11.235-3.285-21.528-8.607-29.982-16.71c-15.002-14.389-26.39-32.5-32.916-52.232      c-0.188-0.55-0.105-1.747-0.276-2.302c-0.109-0.352-0.476-0.057-0.578-0.414c-0.153-0.438-0.285-0.876-0.416-1.314      c-0.854-2.891-1.599-5.847-2.19-8.826c-0.306-1.477-0.289-3.996-0.514-5.484c-0.145-0.961-0.557-0.89-0.669-1.852      c-1.38-11.585-0.329-23.324,4.862-33.617c1.708-3.416,3.92-6.701,7.096-8.826c3.176-2.124,7.424-2.913,10.862-1.226      c3.438,1.664,5.475,6.154,3.767,9.57c5.563-6.132,10.863-11.87,17.936-16.141c7.096-4.271,15.593-6.701,23.718-5.168      c8.125,1.511,15.637,7.534,17.477,15.593c0.854,3.811,0.679,8.279,3.526,10.95c2.475,2.322,6.373,2.322,9.592,1.205      c3.197-1.117,6.001-3.132,9.11-4.468c8.125-3.504,18.221-1.905,24.879,3.942c6.636,5.869,9.505,15.681,7.03,24.178      c-1.511,5.191-4.796,10.534-2.869,15.571c1.424,3.701,5.3,5.869,9.089,7.052c3.767,1.183,7.819,1.73,11.279,3.701      C377.854,267.008,380.964,274.432,380.482,281.396z"/>
				<g>
					<path style="fill:#393528;" d="M306.349,271.717c0.854-6.833,1.708-13.797,0.591-20.587c-0.745-4.599-2.54-9.198-5.431-12.79       c5.366,1.424,10.446,3.942,14.783,7.446c6.614,5.344,11.344,12.921,13.403,21.134       C321.745,266.636,313.752,268.694,306.349,271.717z"/>
					<path style="fill:#393528;" d="M296.122,305.859c-0.109,0.525-0.241,1.051-0.372,1.577       c-2.256,8.629-6.592,16.688-12.593,23.302c-0.394-0.109-0.788-0.241-1.183-0.35c9.636-10.337,15.024-24.528,14.345-38.742       c-0.329-7.008-2.3-12.067-5.891-15.045c-5.563-4.643-13.929-3.351-19.908-0.613l-0.81,0.372       c-2.738,1.27-5.825,2.716-8.826,1.686c-2.519-0.876-4.38-3.307-5.65-7.446c-0.964-3.066-1.599-6.242-2.212-9.329       c-0.46-2.234-0.92-4.577-1.489-6.811c-1.664-6.417-4.117-11.038-7.49-14.148c-4.227-3.898-10.271-5.147-14.651-3.022       c-3.876,1.883-6.614,6.001-8.388,12.637c-1.007,3.767-1.643,7.621-1.927,11.52c-0.307-0.898-0.591-1.796-0.854-2.716       c0.35-3.066,0.92-6.11,1.73-9.088c1.862-6.942,4.774-11.323,8.957-13.337c4.796-2.3,11.323-0.986,15.878,3.197       c3.526,3.263,6.088,8.059,7.796,14.673c0.591,2.278,1.051,4.621,1.511,6.877c0.613,3.066,1.248,6.22,2.168,9.22       c1.183,3.789,2.803,5.979,4.993,6.746c2.562,0.876,5.322-0.416,7.993-1.665l0.81-0.372c6.286-2.869,15.111-4.183,21.068,0.766       c3.833,3.198,5.957,8.519,6.285,15.856C297.633,296.398,297.173,301.194,296.122,305.859z"/>
					<path style="fill:#393528;" d="M333.665,316.092c-0.149,0-0.295-0.061-0.401-0.175c-0.171-0.184-0.195-0.46-0.058-0.671       c1.927-2.967,3.921-6.036,4.84-9.49c1-3.756,0.416-7.436-1.563-9.846c-1.727-2.103-4.604-3.378-7.892-3.497       c-3.155-0.12-6.302,0.791-8.949,1.695c-8.634,2.945-16.571,7.389-23.59,13.21c-0.235,0.191-0.58,0.16-0.771-0.072       c-0.194-0.233-0.161-0.579,0.071-0.771c7.122-5.906,15.175-10.415,23.937-13.404c2.741-0.935,5.97-1.857,9.343-1.753       c3.602,0.131,6.771,1.552,8.698,3.897c2.202,2.681,2.866,6.727,1.775,10.823c-0.786,2.951-2.287,5.585-3.885,8.105       c6.628-3.103,14.351-3.996,21.494-2.436c0.295,0.064,0.484,0.356,0.418,0.651c-0.064,0.297-0.356,0.48-0.651,0.418       c-7.553-1.646-15.773-0.465-22.553,3.249C333.846,316.069,333.755,316.092,333.665,316.092z"/>
					<path style="fill:#393528;" d="M357.815,311.181c-0.066,0.329-0.153,0.635-0.219,0.964c-0.044,0.241-0.285,0.416-0.526,0.416       h-0.022c-0.044,0-0.066,0-0.11-0.022c-0.219-0.066-0.394-0.263-0.416-0.482c0-0.066,0-0.109,0.022-0.175       c0.022-0.065,0.022-0.131,0.044-0.197c1.884-8.322,3.526-18.988-0.591-28.339c-3.526-8.016-11.914-13.929-21.901-15.462       c-1.424-0.241-2.869-0.372-4.424-0.416c-7.008-0.263-14.783,1.358-23.127,4.752c-0.175,0.066-0.372,0.044-0.526-0.066       c-0.153-0.131-0.241-0.306-0.219-0.504c0.854-6.723,1.708-13.666,0.591-20.433c-0.766-4.774-2.65-9.242-5.3-12.527       c-1.402-1.73-3-3.154-4.774-4.249c-4.949-3-11.542-3.614-18.112-1.643c-5.475,1.643-11.016,4.73-16.491,9.154       c-0.153,0.131-0.372,0.153-0.548,0.088c-0.197-0.066-0.306-0.241-0.35-0.416c-1.051-7.38-2.234-15.725-6.461-22.47       c-3.767-5.957-11.432-11.498-19.404-9.527c-4.161,1.051-8.059,4.117-11.585,9.111c-6.001,8.585-8.695,19.404-7.753,29.85       c-0.504-2.431-0.898-4.884-1.183-7.337c0.591-8.257,3.307-16.382,8.059-23.127c3.657-5.234,7.775-8.454,12.198-9.549       c8.497-2.103,16.622,3.701,20.586,10.008c4.183,6.636,5.453,14.695,6.505,21.922c5.344-4.205,10.753-7.161,16.119-8.76       c6.855-2.059,13.776-1.424,18.988,1.774c1.884,1.161,3.592,2.672,5.037,4.467c0.153,0.197,0.328,0.394,0.46,0.613       c2.54,3.395,4.336,7.753,5.103,12.439c1.073,6.614,0.329,13.315-0.482,19.82c8.103-3.197,15.659-4.731,22.535-4.49h0.175       c1.599,0.044,3.088,0.175,4.555,0.416c10.359,1.599,19.053,7.775,22.733,16.119C361.1,292.237,359.677,302.815,357.815,311.181       z"/>
				</g>
			</g>
			<path style="fill:#393528;" d="M293.016,319.551c-1.898-1.629-4.719-1.416-7.187-1.007c-5.712,0.946-11.385,2.326-16.809,4.35     c3.342-5.283,5.755-11.152,7.095-17.258c0.339-1.546,0.536-3.376-0.566-4.513c-0.886-0.914-2.369-1.024-3.562-0.578     c-1.193,0.446-2.153,1.346-3.036,2.263c-4.302,4.467-7.05,8.221-10.906,13.404c-1.658-4.957-2.603-7.351-4.296-11.744     c-1.693-4.393-4.28-11.597-8.833-10.502c-5.119,1.908-2.644,10.056-0.829,14.881c1.815,4.826,5.075,8.947,8.284,12.982     c1.891,2.378,4.305,4.381,7.03,6.004c-0.001,0.002-0.001,0.005-0.002,0.007C244.99,383.227,238.42,439.949,239.777,497h3.285     c-1.358-56.525,5.125-112.743,19.316-167.604c0-0.002,0.001-0.003,0.001-0.005c7.279,3.357,16.09,4.27,23.402,2.342     c2.823-0.744,5.702-1.924,7.475-4.244C295.03,325.169,295.231,321.452,293.016,319.551z"/>
		</g>
		<g>
			<g>
				<path style="fill:#393528;" d="M452.822,252.084c-0.691-0.831-1.667-1.364-2.619-1.877c-7.056-3.805-14.455-8.424-21.511-12.229      c-3.294-10.328-7.816-20.264-13.44-29.531c-0.64-1.055-1.315-2.123-2.289-2.881c-0.974-0.757-2.32-1.153-3.466-0.697      c-1.134,0.451-1.84,1.644-2.027,2.85c-0.187,1.206,0.061,2.433,0.349,3.619c2.54,10.469,8.337,20.124,16.383,27.288      c-7.752,1.03-15.208,3.342-22.73,5.48c-0.655,0.186-1.327,0.385-1.861,0.807c-0.534,0.422-0.905,1.123-0.74,1.784      c0.312,1.248,2.018,1.372,3.296,1.221c7.574-0.891,15.149-1.782,22.723-2.673c-0.003,0.004-0.007,0.007-0.011,0.01      C353.988,314.526,302.872,401.383,276.701,497h1.686c0.175-0.635,0.35-1.27,0.525-1.905      c26.105-93.69,76.257-178.883,145.55-247.124c0.003-0.003,0.007-0.007,0.01-0.01c-3.566,8.268-5.486,17.553-5.619,26.485      c-0.02,1.336,0.195,2.977,1.436,3.471c0.881,0.351,1.918-0.106,2.527-0.832c0.609-0.726,0.887-1.667,1.149-2.577      c2.289-7.943,4.578-15.886,6.866-23.829c1.47,8.812,5.309,17.23,10.835,24.249c0.844,1.072,2.116,2.226,3.392,1.739      c1.458-0.556,1.413-2.618,1.042-4.133c-1.946-7.94-5.603-15.456-10.651-21.886c4.059,2.771,8.354,4.654,13.161,5.674      c1.738,0.369,3.998,0.375,4.775-1.223C453.861,254.126,453.513,252.915,452.822,252.084z"/>
				<g>
					
						<ellipse transform="matrix(0.5572 -0.8304 0.8304 0.5572 16.556 471.1035)" style="fill:#FFB329;" cx="450" cy="220.028" rx="29.915" ry="29.915"/>
					<g>
						<path style="fill:#FFFFFF;" d="M433.553,204.264c-0.286,0-0.564-0.149-0.714-0.415c-2.38-4.181-4.334-8.623-5.805-13.201        c-0.139-0.432,0.098-0.894,0.53-1.033c0.43-0.137,0.894,0.097,1.033,0.53c1.437,4.471,3.345,8.808,5.669,12.891        c0.225,0.394,0.088,0.896-0.307,1.12C433.83,204.229,433.69,204.264,433.553,204.264z"/>
						<path style="fill:#FFFFFF;" d="M437.697,201.712c-0.317,0-0.618-0.184-0.753-0.494c-1.788-4.107-3.103-8.428-3.909-12.841        c-0.081-0.446,0.215-0.874,0.661-0.956c0.447-0.078,0.875,0.214,0.956,0.661c0.782,4.289,2.06,8.488,3.797,12.481        c0.181,0.415-0.01,0.899-0.426,1.08C437.918,201.691,437.807,201.712,437.697,201.712z"/>
					</g>
					<g>
						<path style="fill:#FFFFFF;" d="M465.571,207.775c-0.223,0-0.446-0.091-0.609-0.269c-0.305-0.336-0.279-0.856,0.057-1.16        c3.564-3.232,7.476-6.103,11.626-8.535c0.391-0.23,0.895-0.098,1.124,0.294c0.229,0.391,0.097,0.894-0.294,1.124        c-4.052,2.374-7.872,5.178-11.352,8.334C465.965,207.705,465.768,207.775,465.571,207.775z"/>
						<path style="fill:#FFFFFF;" d="M468.963,211.267c-0.254,0-0.505-0.116-0.665-0.338c-0.267-0.367-0.186-0.88,0.181-1.147        c3.622-2.637,7.554-4.858,11.686-6.603c0.416-0.176,0.899,0.019,1.077,0.438c0.175,0.418-0.02,0.9-0.438,1.077        c-4.016,1.695-7.838,3.854-11.359,6.417C469.3,211.215,469.13,211.267,468.963,211.267z"/>
					</g>
					<g>
						<path style="fill:#FFFFFF;" d="M473.042,247.161c-0.253,0-0.504-0.116-0.664-0.337c-2.769-3.795-5.941-7.314-9.427-10.46        c-0.337-0.304-0.364-0.823-0.06-1.159c0.302-0.34,0.824-0.366,1.159-0.06c3.572,3.222,6.819,6.826,9.654,10.711        c0.267,0.367,0.187,0.88-0.179,1.147C473.379,247.11,473.21,247.161,473.042,247.161z"/>
						<path style="fill:#FFFFFF;" d="M467.997,251.111c-0.291,0-0.573-0.155-0.722-0.428c-2.085-3.824-4.616-7.409-7.522-10.659        c-0.303-0.338-0.274-0.858,0.064-1.159c0.339-0.307,0.858-0.274,1.159,0.064c2.991,3.344,5.595,7.034,7.74,10.967        c0.217,0.399,0.071,0.897-0.327,1.114C468.265,251.079,468.13,251.111,467.997,251.111z"/>
					</g>
				</g>
			</g>
			<g>
				<path style="fill:#393528;" d="M428.504,362.307c-0.505-0.956-1.351-1.678-2.176-2.376c-6.12-5.177-12.409-11.222-18.529-16.399      c-1.095-10.785-3.472-21.44-7.066-31.667c-0.409-1.164-0.849-2.349-1.646-3.291c-0.797-0.942-2.032-1.606-3.248-1.396      c-1.202,0.207-2.139,1.23-2.571,2.371c-0.432,1.141-0.442,2.394-0.404,3.613c0.329,10.768,4.011,21.41,10.408,30.079      c-7.798-0.59-15.57,0.136-23.372,0.678c-0.679,0.047-1.377,0.104-1.987,0.406c-0.61,0.302-1.117,0.912-1.092,1.593      c0.049,1.286,1.692,1.758,2.973,1.874c6.993,0.634,13.985,1.268,20.978,1.902c-0.002,0.001-0.004,0.002-0.006,0.003      c-56.328,31.975-100.172,84.404-121.854,145.397c-0.241,0.635-0.46,1.27-0.679,1.905h1.73      c21.572-61.803,66.074-114.89,123.3-146.842c0.013-0.008,0.026-0.014,0.039-0.022c-6.068,7.803-10.466,17.419-12.645,27.054      c-0.295,1.303-0.423,2.953,0.69,3.693c0.789,0.525,1.899,0.291,2.645-0.294c0.746-0.585,1.211-1.448,1.656-2.285      c3.877-7.301,7.753-14.602,11.63-21.903c-0.377,8.926,1.644,17.954,5.605,25.962c0.605,1.223,1.612,2.614,2.96,2.401      c1.541-0.244,1.922-2.27,1.871-3.83c-0.268-8.17-2.298-16.279-5.912-23.611c3.401,3.548,7.215,6.276,11.71,8.264      c1.625,0.719,3.835,1.191,4.925-0.213C429.101,364.52,429.01,363.263,428.504,362.307z"/>
				<g>
					
						<ellipse transform="matrix(0.7917 -0.6109 0.6109 0.7917 -111.7612 332.9224)" style="fill:#FFB329;" cx="432.349" cy="330.359" rx="29.915" ry="29.915"/>
					<g>
						<path style="fill:#FFFFFF;" d="M419.672,311.56c-0.348,0-0.67-0.222-0.782-0.571c-1.467-4.578-2.464-9.327-2.961-14.113        c-0.047-0.451,0.281-0.854,0.732-0.902c0.441-0.037,0.854,0.281,0.902,0.733c0.485,4.674,1.459,9.311,2.89,13.782        c0.139,0.432-0.099,0.894-0.531,1.032C419.839,311.547,419.754,311.56,419.672,311.56z"/>
						<path style="fill:#FFFFFF;" d="M424.253,309.918c-0.382,0-0.724-0.267-0.803-0.655c-0.904-4.391-1.299-8.89-1.178-13.372        c0.013-0.454,0.406-0.823,0.844-0.799c0.454,0.013,0.811,0.39,0.799,0.844c-0.119,4.356,0.266,8.729,1.144,12.996        c0.092,0.445-0.195,0.879-0.638,0.97C424.364,309.913,424.308,309.918,424.253,309.918z"/>
					</g>
					<g>
						<path style="fill:#FFFFFF;" d="M450.281,321.595c-0.282,0-0.557-0.146-0.71-0.408c-0.229-0.391-0.097-0.894,0.295-1.123        c4.154-2.427,8.573-4.432,13.134-5.954c0.426-0.141,0.896,0.089,1.038,0.519c0.144,0.43-0.088,0.895-0.519,1.038        c-4.453,1.487-8.768,3.444-12.826,5.815C450.565,321.558,450.421,321.595,450.281,321.595z"/>
						<path style="fill:#FFFFFF;" d="M452.878,325.711c-0.313,0-0.613-0.181-0.75-0.486c-0.185-0.414,0-0.899,0.414-1.085        c4.092-1.835,8.399-3.198,12.797-4.053c0.436-0.091,0.876,0.204,0.962,0.65c0.087,0.445-0.204,0.876-0.65,0.962        c-4.274,0.83-8.46,2.155-12.438,3.94C453.104,325.688,452.99,325.711,452.878,325.711z"/>
					</g>
					<g>
						<path style="fill:#FFFFFF;" d="M449.474,361.675c-0.313,0-0.612-0.18-0.749-0.484c-1.929-4.286-4.307-8.384-7.071-12.179        c-0.267-0.367-0.186-0.88,0.181-1.147c0.366-0.269,0.882-0.184,1.147,0.181c2.83,3.887,5.266,8.083,7.24,12.472        c0.186,0.414,0.002,0.899-0.412,1.085C449.702,361.652,449.587,361.675,449.474,361.675z"/>
						<path style="fill:#FFFFFF;" d="M443.723,364.5c-0.354,0-0.68-0.229-0.786-0.585c-1.255-4.175-2.993-8.206-5.165-11.98        c-0.226-0.394-0.091-0.895,0.302-1.122c0.395-0.223,0.896-0.092,1.122,0.303c2.235,3.883,4.022,8.031,5.314,12.326        c0.131,0.434-0.116,0.892-0.551,1.023C443.88,364.49,443.801,364.5,443.723,364.5z"/>
					</g>
				</g>
			</g>
		</g>
		<g>
			<path style="fill:#FFF2E8;" d="M91.16,211.535c-2.454-4.958-7.221-8.697-12.376-11.386c-0.766-0.4-0.822-1.448-0.124-1.957     c4.491-3.281,8.497-9.065,10.514-14.87c0.324-0.934,1.588-1.018,2.081-0.162c2.939,5.105,7.194,9.008,12.255,12.553     c0.638,0.447,0.664,1.367,0.058,1.856c-4.808,3.889-8.279,8.34-10.29,13.886C92.929,212.418,91.615,212.453,91.16,211.535z"/>
			<path style="fill:#FFF2E8;" d="M386.397,104.922c-2.454-4.958-7.221-8.697-12.376-11.386c-0.766-0.399-0.822-1.448-0.124-1.957     c4.491-3.281,8.497-9.065,10.515-14.87c0.324-0.934,1.588-1.019,2.081-0.162c2.939,5.106,7.194,9.008,12.255,12.553     c0.638,0.447,0.664,1.367,0.058,1.856c-4.808,3.889-8.279,8.34-10.29,13.886C388.165,105.805,386.851,105.84,386.397,104.922z"/>
			<path style="fill:#FFF2E8;" d="M433.366,458.311c-2.454-4.958-7.22-8.697-12.376-11.386c-0.766-0.399-0.822-1.448-0.125-1.957     c4.491-3.281,8.497-9.065,10.515-14.87c0.324-0.934,1.588-1.018,2.081-0.162c2.939,5.105,7.194,9.008,12.255,12.553     c0.638,0.447,0.664,1.367,0.058,1.856c-4.808,3.889-8.279,8.34-10.29,13.886C435.135,459.194,433.821,459.229,433.366,458.311z"/>
		</g>
		<g>
			<g>
				<path style="fill:#5AAA5B;" d="M271.427,497c8.126-7.537,15.572-15.854,22.072-24.754c0.266-0.367-1.104-0.855-0.838-1.229      c0.307-0.431,2.25-0.749,2.557-1.173c5.158-7.341,9.688-15.037,13.427-22.979c1.201-2.565,2.374-5.158,3.466-7.805      c0.173-0.418-0.696-0.697-0.523-1.119c0.155-0.377,1.351-0.896,1.506-1.282v-0.027c3.875-9.661,6.959-19.758,9.143-30.102      c0.091-0.39-0.637-0.724-0.558-1.114c0.086-0.429,0.978-0.913,1.049-1.342c1.665-8.378,2.702-16.838,3.056-25.298v-0.027      c0.034-0.333-0.619-0.353-0.602-0.684c0.024-0.456,0.711-1.22,0.711-1.663c0.327-10.125-0.355-20.168-2.102-29.965      c-0.082-0.519-1.637-0.573-2.347-0.109l-0.027,0.027c-13.209,9.115-25.134,19.949-35.587,32.094      c-0.263,0.305-0.088,1.53-0.351,1.835c-0.255,0.295-0.949-0.329-1.204-0.033c-9.361,11.107-17.52,23.279-24.288,36.16      c-0.192,0.371,0.139,2.177-0.05,2.548c-0.242,0.475-1.003-0.485-1.232-0.01v0.027c-5.704,11.162-10.371,22.843-13.891,34.85      c-0.17,0.573,0.174,1.53,0.013,2.095c-0.122,0.431-0.753,0.47-0.86,0.907c-3.655,13.125-5.964,26.599-6.804,40.173h9.322      l1.297-0.599l0.88,0.599H271.427z"/>
				<path style="fill:#393528;" d="M246.484,497h2.177c1.914-4.96,3.86-9.905,5.867-14.82c12.09-4.121,24.916-7.423,38.971-9.934      c0.573-0.791,1.146-1.61,1.719-2.402c-14.3,2.484-27.4,5.731-39.68,9.852c2.729-6.741,5.594-13.427,8.542-20.086v-0.027h0.027      c0.003-0.007,0.005-0.013,0.008-0.02c15.163-8.669,31.28-15.54,47.996-20.503c0.327-0.792,0.655-1.583,0.982-2.402      c-16.565,4.776-32.557,11.407-47.649,19.813c4.776-10.753,9.743-21.423,14.955-31.958l41.837-17.985      c0.191-0.819,0.355-1.637,0.491-2.456l-40.936,17.603c3.657-7.396,7.423-14.737,11.298-21.996c0,0,0.027,0,0.027-0.028      c10.316-7.778,21.26-14.764,32.667-20.877v-0.027c0.082-0.791,0.109-1.583,0.109-2.347      c-10.643,5.622-20.877,12.008-30.593,19.103c8.979-16.647,18.448-33.022,28.491-49.068c-0.082-0.519-0.164-1.01-0.273-1.528      c-0.71,0.464-1.365,0.955-2.074,1.419l-0.027,0.027c-10.343,16.593-20.113,33.513-29.283,50.761      c-1.31-4.094-2.702-8.16-4.066-12.09c-0.737-2.156-1.501-4.367-2.238-6.577c-0.519,0.6-1.037,1.201-1.556,1.801      c0.628,1.828,1.255,3.657,1.856,5.431c1.583,4.558,3.193,9.252,4.667,13.973v0.028c-4.148,7.75-8.133,15.528-11.981,23.388      c0,0,0,0-0.027,0.027c-0.054,0.137-0.109,0.218-0.164,0.355c-0.027,0.027-0.027,0.027,0,0.055l-0.027,0.027      c-0.003,0.01,0,0.022-0.003,0.032c-3.247,6.494-6.357,13.096-9.413,19.726l-9.197-26.881c-0.437,0.846-0.874,1.692-1.283,2.538      v0.027l9.142,26.69c0.027,0.109,0.082,0.191,0.137,0.273c-4.912,10.643-9.579,21.369-14,32.203      c-2.374-8.351-5.458-16.484-9.17-24.316c-0.3,1.01-0.601,1.992-0.846,3.002c3.575,7.86,6.495,16.074,8.733,24.425v0.027      C250.571,486.497,248.51,491.742,246.484,497z"/>
			</g>
			<g>
				<path style="fill:#456638;" d="M439.673,386.035c-0.92,0.154-1.818,0.329-2.738,0.504c-0.248,0.039-0.49,0.441-0.745,0.486      c-0.172,0.031-0.358-0.294-0.526-0.267c-5.103,0.986-10.162,2.124-15.177,3.438c-0.299,0.06-0.485,0.4-0.777,0.48      c-0.136,0.037-0.376-0.186-0.515-0.151c-5.322,1.402-10.6,2.979-15.812,4.709c-0.203,0.075-0.495,0.577-0.698,0.647      c-0.213,0.073-0.337-0.287-0.55-0.209c-5.847,1.971-11.607,4.183-17.301,6.57c-0.607,0.26-1.677,1.071-2.284,1.331      c-0.466,0.2-0.469-0.151-0.935,0.049c-8.629,3.789-17.06,8.016-25.251,12.702c-0.263,0.142-0.754,1.054-1.014,1.204      c-0.26,0.151-0.289-0.46-0.541-0.307c-0.175,0.088-0.35,0.175-0.504,0.307c-0.426,0.233-0.954,0.995-1.376,1.243      c-0.293,0.172-0.483-0.174-0.771,0.005c-9.549,5.672-18.725,11.936-27.485,18.747c-0.326,0.26-0.58,1.263-0.912,1.517      c-0.226,0.173-0.53-0.402-0.752-0.225c-1.774,1.424-3.548,2.847-5.3,4.314c-0.231,0.193-0.274,1.098-0.511,1.295      c-0.167,0.139-0.531-0.432-0.693-0.288c-18.252,15.358-34.435,33.162-47.857,52.863h12.072l1.731-0.771l1.368,0.771h21.458      l0.809-0.396l0.417,0.396h9.009l0.605-0.224l0.564,0.224h30.266c2.073-1.08,4.136-2.186,6.175-3.347      c0.24-0.147,0.297-0.673,0.532-0.808c0.15-0.087,0.483,0.215,0.628,0.129c2.759-1.577,5.453-3.241,8.147-4.993      c0.143-0.089,0.061-0.423,0.21-0.519c0.216-0.138,0.665-0.039,0.885-0.182c1.927-1.27,3.833-2.584,5.738-3.942      c7.38-5.256,14.345-11.06,20.827-17.301c0,0,0.354-0.916,0.713-1.267c0.167-0.163,0.697-0.1,0.864-0.266      c7.796-7.643,14.914-15.944,21.397-24.748c0.132-0.168-0.151-0.54-0.025-0.718c0.104-0.146,0.617-0.097,0.725-0.246      c5.168-7.118,10.095-14.491,14.235-22.295c0.034-0.063,0.688-2.063,1.074-2.77c0.33-0.603,1.072-1.151,1.072-1.151      c4.512-8.431,8.526-17.16,12.03-26.095C442.176,386.483,439.679,386.045,439.673,386.035z"/>
				<g>
					<path style="fill:#5AAA5B;" d="M430.387,406.49c-0.744,3.307-1.511,6.68-2.387,10.008c0.723-1.292,1.445-2.606,2.146-3.92       c0.46-1.949,0.92-3.92,1.358-5.847c0.766-3.438,1.577-6.986,2.475-10.446c0.766-2.935,1.708-6.285,2.957-9.746       c-0.416,0.066-0.854,0.154-1.27,0.219c-1.161,3.285-2.037,6.439-2.781,9.242C431.986,399.482,431.175,403.029,430.387,406.49z"/>
					<path style="fill:#5AAA5B;" d="M282.146,497l28.358-38.015c2.453-3.285,5.212-6.986,6.504-11.367       c0.46-1.489,0.679-3.022,0.701-4.49c-0.394,0.329-0.81,0.657-1.205,1.008c-0.088,1.029-0.285,2.102-0.591,3.153       c-1.226,4.183-3.942,7.819-6.329,11.016L280.72,497H282.146z"/>
					<path style="fill:#5AAA5B;" d="M314.49,470.439c3.088-11.016,6.242-22.185,10.184-32.916c-0.548,0.438-1.117,0.854-1.664,1.292       c-3.701,10.249-6.701,20.849-9.636,31.296c-2.53,8.959-5.101,18.03-8.095,26.889h1.226       C309.449,488.241,311.99,479.287,314.49,470.439z"/>
					<path style="fill:#5AAA5B;" d="M353.472,418.842l0.131-0.219c0.241-0.372,0.46-0.723,0.701-1.095       c-0.723,0.394-1.445,0.81-2.146,1.248c-12.943,20.455-23.937,42.443-32.675,65.395c-1.548,4.082-3.085,8.379-3.971,12.829       h1.169c0.878-4.291,2.364-8.451,3.875-12.413C329.36,461.503,340.42,439.384,353.472,418.842z"/>
					<path style="fill:#5AAA5B;" d="M383.848,403.117l0.438-0.394c0.175-0.153,0.372-0.307,0.548-0.482       c-1.073,0.46-2.146,0.92-3.219,1.38c-15.571,14.345-25.755,35.041-28.076,57.138c-0.526,4.906-1.38,21.266,8.892,27.222       c0.35-0.219,0.723-0.46,1.095-0.701c-0.11-0.044-0.197-0.088-0.307-0.153c-9.921-5.497-9.045-21.484-8.563-26.259       C357.02,438.355,367.664,417.309,383.848,403.117z"/>
					<path style="fill:#5AAA5B;" d="M408.114,432.07c0.263,3.088,1.883,6.592,4.95,7.687c0.241-0.306,0.46-0.635,0.701-0.964       c-0.022,0-0.022,0-0.044,0c-2.737-0.81-4.249-4.096-4.467-6.811c-0.263-3.132,0.701-6.351,1.533-9.198l9.702-32.588       c-0.438,0.088-0.854,0.219-1.292,0.328l-9.505,31.931C408.815,425.39,407.829,428.719,408.114,432.07z"/>
					<path style="fill:#5AAA5B;" d="M354.283,492.975c0.022-5.081-0.547-10.14-1.117-15.111c-1.796-15.812-3.854-33.748-0.197-50.59       c0.766-3.548,1.884-7.271,3.395-10.95c-0.526,0.285-1.051,0.591-1.555,0.898c-1.314,3.307-2.278,6.614-2.957,9.811       c-3.679,17.017-1.643,35.063,0.175,50.962c0.591,5.147,1.183,10.425,1.095,15.659       C353.516,493.412,353.911,493.193,354.283,492.975z"/>
					<path style="fill:#5AAA5B;" d="M390.09,466.037c0.526-0.504,1.051-1.007,1.577-1.533c0.745-3.307,1.292-6.636,1.818-9.811       l9.899-59.46c-0.416,0.153-0.832,0.285-1.248,0.438l-9.768,58.824C391.755,458.219,391.097,462.161,390.09,466.037z"/>
				</g>
				<path style="fill:#393528;" d="M439.679,386.045C383.742,418.229,330.641,455.447,281.262,497h2.557      c49.387-41.415,102.457-78.469,158.357-110.517c0.131-0.307,0.241-0.635,0.372-0.942      C441.585,385.694,440.643,385.848,439.679,386.045z"/>
			</g>
			<g>
				<path style="fill:#456638;" d="M231.137,491.945c0,0-0.429,0.089-0.591-0.094c-0.177-0.2-0.417-1.045-0.417-1.045      c-4.862-5.431-10.03-10.622-15.418-15.527c-0.112-0.105-0.661,0.196-0.776,0.091c-0.245-0.224-0.059-0.853-0.297-1.077      c-6.811-6.11-14.016-11.826-21.528-17.06c0,0-0.42,0.022-0.564-0.081c-0.199-0.142-0.465-0.642-0.465-0.642      c-1.708-1.183-3.416-2.344-5.147-3.438c0,0-0.524,0.167-0.671,0.07c-0.17-0.112-0.292-0.705-0.292-0.705      c-10.731-6.921-22.032-12.943-33.77-17.958c0,0-0.39,0.14-0.565,0.065c-0.197-0.084-0.551-0.547-0.551-0.547      c-1.533-0.657-3.11-1.292-4.665-1.906c0,0-0.44,0.315-0.586,0.255c-0.194-0.079-0.444-0.671-0.444-0.671      c-6.154-2.409-12.396-4.533-18.725-6.373c0,0-0.426,0.281-0.609,0.227c-0.168-0.05-0.443-0.533-0.443-0.533      c-2.694-0.788-5.409-1.511-8.125-2.168c0,0-0.384,0.163-0.549,0.123c-0.201-0.048-0.546-0.386-0.546-0.386      c-4.205-1.029-8.432-1.927-12.702-2.672c0,0-0.367,0.26-0.549,0.227c-0.179-0.033-0.546-0.424-0.546-0.424      c-1.993-0.35-4.008-0.679-6.001-0.942c0,0-0.389,0.202-0.556,0.176c-0.19-0.03-0.517-0.329-0.517-0.329      c-2.869-0.416-5.76-0.766-8.651-1.051c0,0-0.386,0.262-0.562,0.246c-0.185-0.017-0.533-0.356-0.533-0.356      c-2.536-0.225-5.235-0.481-7.789-0.628c-0.424-0.024-0.701,0.015-1.125-0.007c-0.445-0.035-0.909-0.102-1.348-0.119      c-0.382-0.015-0.74,0.02-1.127,0.009c0.153,0.241,0.284,0.504,0.416,0.745c3.592,6.614,7.512,13.053,11.782,19.228      c0.198,0.282,0.494-0.003,0.687,0.273c0.256,0.366,0.409,1.292,0.672,1.654c4.533,6.417,9.439,12.527,14.695,18.309      c0.222,0.238,0.59-0.299,0.808-0.061c0.363,0.395,0.574,1.562,0.944,1.945c5.322,5.716,11.038,11.082,17.082,16.009      c0.201,0.163,0.431-0.142,0.634,0.026c0.261,0.215,0.497,0.904,0.767,1.113c0.898,0.723,1.84,1.445,2.759,2.146      c0.208,0.156,0.375-0.23,0.583-0.072c0.23,0.175,0.502,0.895,0.731,1.079c6.154,4.599,12.658,8.782,19.469,12.483      c0.92,0.504,1.84,0.986,2.759,1.445c0.127,0.067,0.386-0.136,0.509-0.07c0.239,0.128,0.34,0.523,0.586,0.639      c1.424,0.723,2.847,1.424,4.271,2.081c0.209,0.1,0.306-0.268,0.516-0.169c0.251,0.119,0.613,0.706,0.864,0.826      c0.51,0.233,1.024,0.448,1.536,0.675h17.801l0.632-0.423l0.489,0.423h4.183l0.586-0.423l0.505,0.423h33.726l0.546-0.285      l0.55,0.285h8.926l0.559-0.529l1.993,0.529h2.689l0.529-0.353l0.573,0.353h4.732      C234.056,495.294,232.612,493.605,231.137,491.945z"/>
				<g>
					<path style="fill:#5AAA5B;" d="M86.945,438.596c-0.942-6.986-1.292-14.038-1.073-21.046c-0.372-0.044-0.723-0.066-1.095-0.11       c-0.219,6.395,0.066,12.834,0.81,19.228C86.046,437.325,86.485,437.961,86.945,438.596z"/>
					<path style="fill:#5AAA5B;" d="M94.522,418.601c-1.643,6.001-1.205,12.768,0.197,18.199c1.073,4.205,2.628,8.322,4.139,12.33       c0.964,2.54,1.949,5.147,2.782,7.775c0.591,0.635,1.161,1.27,1.752,1.883c-0.044-0.153-0.088-0.306-0.131-0.46       c-0.022-1.204-0.044-2.409-0.044-3.592l-0.526-34.843c-0.372-0.066-0.723-0.132-1.095-0.197l0.526,35.062       c-0.723-2.037-1.489-4.03-2.234-6.022c-1.511-3.964-3.044-8.059-4.117-12.199c-1.358-5.322-1.796-11.958-0.175-17.783       C95.223,418.688,94.873,418.623,94.522,418.601z"/>
					<path style="fill:#5AAA5B;" d="M186.372,477.053c1.599-4.051,3.285-8.235,4.424-12.527c0.57-2.146,1.073-4.643,1.314-7.293       c-0.328-0.263-0.679-0.504-1.029-0.723c-0.197,2.825-0.745,5.475-1.336,7.731c-1.139,4.227-2.803,8.388-4.402,12.396       c-1.117,2.803-2.256,5.672-3.219,8.585c-1.435,4.268-2.274,8.172-2.56,11.778h1.091c0.289-3.498,1.111-7.288,2.498-11.428       C184.117,482.681,185.255,479.812,186.372,477.053z"/>
					<path style="fill:#5AAA5B;" d="M230.129,490.806c-0.19,2.035-0.364,4.112-0.485,6.194h1.102       c0.103-1.693,0.241-3.384,0.39-5.055C230.83,491.573,230.48,491.179,230.129,490.806z"/>
					<path style="fill:#5AAA5B;" d="M151.2,434.478c-0.372-0.175-0.744-0.329-1.117-0.482c0.11,2.606-0.241,5.431-0.657,8.125       c-2.716,17.936-1.27,36.289,4.117,53.547c0.46,0.219,0.92,0.438,1.38,0.657c-5.607-17.367-7.14-35.938-4.424-54.028       C150.894,439.713,151.222,437.019,151.2,434.478z"/>
					<path style="fill:#5AAA5B;" d="M121.876,475.936c-4.249-17.389-6.066-35.238-5.387-53.109c-0.35-0.088-0.723-0.175-1.095-0.263       c-0.679,17.586,1.029,35.128,5.081,52.232C120.934,475.169,121.394,475.564,121.876,475.936z"/>
					<path style="fill:#5AAA5B;" d="M215.477,497c0.099-2.179,0.061-4.27-0.021-6.172c-0.088-1.883-0.219-3.767-0.351-5.628       c-0.219-3.263-0.46-6.614-0.394-9.921c-0.35-0.329-0.723-0.657-1.073-0.986c-0.131,3.679,0.131,7.38,0.372,10.972       c0.131,1.861,0.263,3.745,0.351,5.606c0.083,1.887,0.121,3.966,0.019,6.128H215.477z"/>
					<path style="fill:#5AAA5B;" d="M175.4,496.873l0.044-0.35c2.234-14.739,5.76-29.303,10.49-43.45       c-0.328-0.241-0.635-0.438-0.964-0.635c-4.796,14.279-8.344,29.018-10.6,43.932l-0.066,0.329       c-0.015,0.1-0.031,0.202-0.045,0.302h1.121C175.387,496.958,175.394,496.915,175.4,496.873z"/>
					<path style="fill:#5AAA5B;" d="M144.389,431.675c-3.285,17.061-2.716,34.734,1.752,51.576l0.372,1.401       c0.745,2.76,1.511,5.541,1.664,8.366c0.372,0.197,0.723,0.394,1.095,0.569c-0.065-3.132-0.898-6.219-1.708-9.22l-0.372-1.402       c-4.38-16.6-4.971-34.033-1.774-50.875C145.068,431.938,144.74,431.807,144.389,431.675z"/>
					<path style="fill:#5AAA5B;" d="M124.613,424.995c-3.417,17.542-3.373,35.61,0.022,53.087c0.438,0.329,0.876,0.657,1.314,1.007       c-3.614-17.696-3.723-36.004-0.285-53.787C125.314,425.193,124.964,425.083,124.613,424.995z"/>
				</g>
				<path style="fill:#393528;" d="M226.956,497c-47.381-31.23-97.68-58.131-149.968-80.188c-0.833-0.066-1.644-0.097-2.473-0.126      c0.143,0.245,0.269,0.511,0.412,0.756C127.023,439.324,177.144,466,224.403,497H226.956z"/>
			</g>
		</g>
	</g>
</g>















</svg>
