<svg id="Capa_1" enable-background="new 0 0 497 497" height="512" viewBox="0 0 497 497" width="512" xmlns="http://www.w3.org/2000/svg"><g><path d="m395.348 22.251-187.937 102.684c-32.495 17.754-33.798 63.947-2.356 83.505l-9.292 56.907 188.194 54.378c31.442 19.558 72.301-2.029 73.863-39.025l9.035-213.969c1.588-37.597-38.484-62.523-71.507-44.48z" fill="#ffca8a"/><path d="m461.138 24.124c-11.155-11.636-26.7-18.31-42.648-18.31-9.839 0-19.31 2.449-28.149 7.278l-47.599 26.007c-11.493 6.279-18.641 18.331-18.641 31.427v45.717c0 13.614 11.036 24.65 24.65 24.65 13.614 0 24.65-11.036 24.65-24.65v66.96c0 13.614 11.036 24.65 24.65 24.65 13.614 0 24.65-11.036 24.65-24.65 0 13.614 11.036 24.65 24.65 24.65 13.614 0 24.65-11.036 24.65-24.65l5.28-116.03c.687-16.188-5.047-31.476-16.143-43.049z" fill="#ffb25a"/><path d="m113.043 319.726c-31.442 19.558-72.301-2.029-73.863-39.025l-9.035-213.969c-1.588-37.598 38.484-62.524 71.507-44.481l187.937 102.684c32.495 17.754 33.798 63.947 2.356 83.505z" fill="#ffdebb"/><path d="m52.147 231.174c0-75.444 27.639-144.209 73.012-196.079l-23.507-12.843c-33.023-18.043-73.095 6.883-71.507 44.48l9.035 213.969c.802 19 11.971 33.934 26.904 41.319-9.033-28.599-13.937-59.128-13.937-90.846z" fill="#ffca8a"/><path d="m35.861 24.124c11.155-11.636 26.7-18.31 42.648-18.31 9.839 0 19.31 2.449 28.149 7.278l47.599 26.007c11.493 6.279 18.641 18.331 18.641 31.427v45.717c0 13.614-11.036 24.65-24.65 24.65-13.614 0-24.65-11.036-24.65-24.65v66.96c0 13.614-11.036 24.65-24.65 24.65-13.614 0-24.65-11.036-24.65-24.65 0 13.614-11.036 24.65-24.65 24.65-13.614 0-24.65-11.036-24.65-24.65l-5.28-116.03c-.686-16.188 5.048-31.476 16.143-43.049z" fill="#ffbe73"/><path d="m431.624 251.581h-366.248c-36.106 0-65.376 29.269-65.376 65.376 0 96.225 78.005 174.23 174.23 174.23h148.54c96.225 0 174.23-78.005 174.23-174.23 0-36.107-29.27-65.376-65.376-65.376z" fill="#ff6f7f"/><path d="m52.917 252.781c-30.145 5.819-52.917 32.331-52.917 64.176 0 96.224 78.005 174.229 174.23 174.229h31.219c-85.204-45.467-145.182-134.379-152.532-238.405z" fill="#fc5c70"/><path d="m132.389 27.15-25.731-14.059c-8.838-4.829-18.309-7.278-28.149-7.278-15.948 0-31.492 6.674-42.648 18.311-11.095 11.573-16.829 26.861-16.146 43.048l5.28 116.03c0 13.614 11.036 24.65 24.65 24.65 1.16 0 2.3-.086 3.417-.241 5.4-69.998 34.644-133.039 79.327-180.461z" fill="#ffb25a"/><g fill="#fff"><ellipse cx="128.69" cy="379.762" rx="44.207" ry="35.205"/><ellipse cx="368.309" cy="379.762" rx="44.207" ry="35.205"/></g><g><path d="m154.454 353.373c-4.142 0-7.5-3.358-7.5-7.5v-18.072c0-4.142 3.358-7.5 7.5-7.5s7.5 3.358 7.5 7.5v18.072c0 4.142-3.358 7.5-7.5 7.5z" fill="#423e4f"/></g><g><path d="m342.546 353.373c-4.142 0-7.5-3.358-7.5-7.5v-18.072c0-4.142 3.358-7.5 7.5-7.5s7.5 3.358 7.5 7.5v18.072c0 4.142-3.358 7.5-7.5 7.5z" fill="#423e4f"/></g><g><path d="m248.5 364.13c-11.669 0-22.768-5.055-30.449-13.868-2.721-3.123-2.396-7.86.727-10.582 3.123-2.721 7.861-2.396 10.582.727 4.831 5.544 11.808 8.723 19.14 8.723 7.333 0 14.31-3.179 19.141-8.723 2.722-3.123 7.459-3.448 10.582-.727s3.448 7.459.727 10.582c-7.682 8.814-18.78 13.868-30.45 13.868z" fill="#423e4f"/></g></g></svg>