<svg id="Capa_1" enable-background="new 0 0 497 497" height="512" viewBox="0 0 497 497" width="512" xmlns="http://www.w3.org/2000/svg"><g><path d="m82.676 27.203c-6.171-11.663-20.627-16.114-32.29-9.944-11.662 6.171-16.114 20.627-9.944 32.29l72.398 136.832 42.234-22.346z" fill="#f9ed80"/><path d="m248.986 27.203c-6.171-11.663-20.627-16.114-32.29-9.944-11.662 6.171-16.114 20.627-9.944 32.29l72.398 136.832 42.234-22.346z" fill="#f9ed80"/><path d="m449.285 272.046-58.494-110.552c-22.323-42.191-74.622-58.296-116.813-35.973-42.191 22.323-58.296 74.622-35.973 116.813l58.494 110.552c22.323 42.191 74.622 58.296 116.813 35.973 42.19-22.324 58.296-74.623 35.973-116.813z" fill="#ff9c20"/><path d="m282.975 272.046-58.494-110.552c-22.323-42.191-74.622-58.296-116.813-35.973-42.191 22.323-58.296 74.622-35.973 116.813l58.494 110.552c22.323 42.191 74.622 58.296 116.813 35.973 42.19-22.324 58.296-74.623 35.973-116.813z" fill="#ffb25a"/><path d="m452.779 281.475h-408.558c-27.799 0-48.714 25.355-43.389 52.639 6.261 32.082 19.822 74.089 49.086 112.101 17.737 23.039 45.358 36.304 74.434 36.304h248.296c29.076 0 56.696-13.264 74.434-36.304 29.264-38.012 42.825-80.019 49.086-112.101 5.325-27.284-15.59-52.639-43.389-52.639z" fill="#ff6f7f"/><path d="m101.644 314.276c0-11.089.632-22.029 1.822-32.801h-59.245c-27.799 0-48.714 25.354-43.389 52.639 6.261 32.082 19.822 74.089 49.086 112.102 17.737 23.039 45.358 36.304 74.434 36.304h29.861c-33.134-47.749-52.569-105.722-52.569-168.244z" fill="#fc5c70"/><path d="m174.748 119.724c-21.45-6.956-45.575-5.582-67.08 5.797-42.191 22.323-58.296 74.622-35.973 116.813l30.312 57.29c3.359-68.768 30.231-131.351 72.741-179.9z" fill="#ff9c20"/><path d="m301.572 270.919h-233.218c-16.797 0-24.785 20.68-12.349 31.972l88.66 80.502c22.857 20.754 57.74 20.754 80.597 0l88.66-80.502c12.434-11.292 4.447-31.972-12.35-31.972z" fill="#dcdcdc"/><g><g><path d="m152.292 444.568c-4.143 0-7.5-3.358-7.5-7.5v-18.487c0-4.142 3.357-7.5 7.5-7.5s7.5 3.358 7.5 7.5v18.487c0 4.142-3.357 7.5-7.5 7.5z" fill="#423e4f"/></g><g><path d="m344.708 444.568c-4.143 0-7.5-3.358-7.5-7.5v-18.487c0-4.142 3.357-7.5 7.5-7.5s7.5 3.358 7.5 7.5v18.487c0 4.142-3.357 7.5-7.5 7.5z" fill="#423e4f"/></g><g><path d="m248.5 455.573c-11.888 0-23.194-5.149-31.02-14.128-2.721-3.123-2.396-7.86.727-10.582 3.122-2.721 7.859-2.397 10.582.726 4.976 5.709 12.16 8.983 19.711 8.983 7.552 0 14.735-3.274 19.71-8.983 2.721-3.123 7.457-3.448 10.582-.727 3.122 2.721 3.448 7.459.727 10.582-7.824 8.98-19.13 14.129-31.019 14.129z" fill="#423e4f"/></g></g><path d="m101.644 314.276c0-14.73 1.094-29.205 3.175-43.357h-36.465c-16.797 0-24.785 20.68-12.349 31.972l47.322 42.967c-1.104-10.377-1.683-20.912-1.683-31.582z" fill="#cececc"/></g></svg>