<svg id="Capa_1" enable-background="new 0 0 497 497" height="512" viewBox="0 0 497 497" width="512" xmlns="http://www.w3.org/2000/svg"><g><path d="m202.561 0h-44.829c-12.792 0-23.162 10.37-23.162 23.162v38.533h91.153v-38.533c0-12.792-10.37-23.162-23.162-23.162z" fill="#dcdcdc"/><path d="m212.098 2.056c-2.909-1.317-6.136-2.056-9.537-2.056h-44.829c-12.792 0-23.162 10.37-23.162 23.162v38.533h30.872c13.243-22.042 28.945-42.077 46.656-59.639z" fill="#cececc"/><path d="m410.787 79.784c-5.531-22.205-25.474-37.789-48.357-37.789h-227.86c-22.883 0-42.826 15.584-48.357 37.789l-6.252 25.097 178.946 41.78 158.131-41.78z" fill="#60d9a7"/><path d="m258.908 146.661-195.527 41.781 40.837 258.026c4.606 29.102 29.694 50.532 59.159 50.532h170.246c29.465 0 54.553-21.43 59.159-50.533l40.837-258.026z" fill="#ed9b83"/><path d="m118.29 235.089c0-20.34 1.765-40.217 5.096-59.469l-60.005 12.822 40.837 258.026c4.606 29.102 29.694 50.532 59.159 50.532h82.74c-76.903-55.429-127.827-152.02-127.827-261.911z" fill="#e7886e"/><path d="m178.306 41.995h-43.736c-22.883 0-42.826 15.584-48.357 37.789l-6.252 25.097 58.513 13.662c10.016-27.719 23.487-53.46 39.832-76.548z" fill="#00cd8c"/><path d="m468.188 157.524-3.92-15.735c-5.402-21.687-24.88-36.908-47.23-36.908h-337.076c-22.35 0-41.827 15.221-47.23 36.908l-3.92 15.735c-3.913 15.71 7.971 30.918 24.161 30.918h391.054c16.19 0 28.074-15.208 24.161-30.918z" fill="#dcdcdc"/><path d="m394.895 249.656h-292.797c-20.775 0-36.632 18.565-33.385 39.084l12.791 80.812c2.599 16.423 16.757 28.516 33.385 28.516h267.221c16.628 0 30.786-12.094 33.385-28.518l12.785-80.812c3.246-20.519-12.611-39.082-33.385-39.082z" fill="#60d9a7"/><g><g><path d="m156.417 325.243c-4.142 0-7.5-3.358-7.5-7.5v-17.694c0-4.142 3.358-7.5 7.5-7.5s7.5 3.358 7.5 7.5v17.694c0 4.142-3.358 7.5-7.5 7.5z" fill="#423e4f"/></g><g><path d="m340.583 325.243c-4.142 0-7.5-3.358-7.5-7.5v-17.694c0-4.142 3.358-7.5 7.5-7.5s7.5 3.358 7.5 7.5v17.694c0 4.142-3.358 7.5-7.5 7.5z" fill="#423e4f"/></g><g><path d="m248.5 335.776c-11.472 0-22.381-4.969-29.932-13.632-2.721-3.123-2.396-7.86.727-10.582 3.123-2.721 7.859-2.396 10.582.727 4.7 5.394 11.488 8.487 18.623 8.487 7.134 0 13.922-3.094 18.623-8.487 2.721-3.123 7.459-3.448 10.582-.727s3.448 7.459.727 10.582c-7.551 8.663-18.46 13.632-29.932 13.632z" fill="#423e4f"/></g></g><path d="m118.603 249.656h-16.505c-20.775 0-36.632 18.565-33.385 39.084l12.791 80.812c2.599 16.423 16.757 28.516 33.385 28.516h44.571c-23.969-43.536-38.622-94.159-40.857-148.412z" fill="#00cd8c"/><path d="m143.755 104.881h-63.793c-22.35 0-41.827 15.221-47.23 36.908l-3.92 15.735c-3.913 15.71 7.971 30.918 24.161 30.918h68.429c3.951-29.403 11.587-57.454 22.353-83.561z" fill="#cececc"/></g></svg>