<svg id="Capa_1" enable-background="new 0 0 497 497" height="512" viewBox="0 0 497 497" width="512" xmlns="http://www.w3.org/2000/svg"><g><path d="m37.65 256.868s-6.933 42.055 32.084 105.229c24.693 39.982 68.445 64.214 115.438 64.214h126.658c46.993 0 90.744-24.232 115.438-64.214 39.017-63.174 32.084-105.229 32.084-105.229l-57.204-20.948h-315.858z" fill="#ffb3dd"/><g><path d="m467.157 194.713c-25.529-71.382-113.743-124.024-218.657-124.024s-193.128 52.642-218.657 124.024l56.447 41.208h315.856z" fill="#ffb25a"/></g><path d="m86.809 240.554c0-1.549.037-3.09.07-4.633h-.589l-48.64 20.948s-6.933 42.055 32.084 105.229c23.893 38.687 65.63 62.625 110.881 64.135-57.833-46.955-93.806-112.785-93.806-185.679z" fill="#ff9dd3"/><path d="m145.31 89.018c-56.367 21.339-98.985 59.608-115.467 105.695l56.447 41.208h.589c1.15-54.841 22.649-105.504 58.431-146.903z" fill="#ff9c20"/><path d="m471.981 195.577c-8.52-1.706-17.214-2.578-25.943-2.578-19.37 0-38.568 4.291-56.072 12.477-27.02 12.636-58.372 12.637-85.392.001-17.505-8.186-36.703-12.478-56.075-12.477-22.599 0-44.964 5.841-64.675 16.892-21.031 11.79-47.158 11.789-68.187-.001-19.713-11.051-42.077-16.892-64.676-16.892-8.729 0-17.423.871-25.943 2.578-20.768 4.16-31.353 27.478-20.996 45.953 6.668 11.896 20.236 17.911 33.628 15.338 15.998-3.073 32.912-.547 47.405 7.578 19.713 11.051 42.077 16.892 64.676 16.891 22.599 0 44.964-5.841 64.676-16.892 21.029-11.79 47.157-11.789 68.187.001 19.713 11.051 42.078 16.892 64.676 16.891 22.599 0 44.964-5.841 64.675-16.892 14.493-8.125 31.406-10.65 47.404-7.577 13.393 2.573 26.96-3.442 33.629-15.338 10.357-18.475-.229-41.794-20.997-45.953z" fill="#ffca8a"/><g><g><path d="m155.388 351.298c-4.142 0-7.5-3.358-7.5-7.5v-17.892c0-4.142 3.358-7.5 7.5-7.5s7.5 3.358 7.5 7.5v17.892c0 4.142-3.358 7.5-7.5 7.5z" fill="#423e4f"/></g><g><path d="m341.612 351.298c-4.142 0-7.5-3.358-7.5-7.5v-17.892c0-4.142 3.358-7.5 7.5-7.5s7.5 3.358 7.5 7.5v17.892c0 4.142-3.358 7.5-7.5 7.5z" fill="#423e4f"/></g><g><path d="m248.5 361.949c-11.576 0-22.584-5.014-30.203-13.756-2.721-3.123-2.396-7.86.727-10.582 3.123-2.721 7.859-2.396 10.582.727 4.769 5.472 11.656 8.611 18.894 8.611s14.125-3.139 18.894-8.611c2.721-3.123 7.459-3.448 10.582-.727s3.448 7.459.727 10.582c-7.619 8.742-18.627 13.756-30.203 13.756z" fill="#423e4f"/></g></g><g><path d="m248.5 163.32c-8.635 0-15.635-7-15.635-15.635v-29.814c0-8.635 7-15.635 15.635-15.635s15.635 7 15.635 15.635v29.814c0 8.634-7 15.635-15.635 15.635z" fill="#ffca8a"/></g><path d="m179.891 122.459c-4.702-7.241-14.385-9.301-21.629-4.599-9.853 6.398-18.767 13.947-26.492 22.44-5.811 6.388-5.344 16.276 1.044 22.087 6.387 5.81 16.275 5.344 22.087-1.044 5.923-6.511 12.783-12.316 20.39-17.255 7.243-4.703 9.302-14.387 4.6-21.629z" fill="#ffca8a"/><path d="m317.109 122.459c4.702-7.241 14.385-9.301 21.629-4.599 9.853 6.398 18.767 13.947 26.492 22.44 5.811 6.388 5.344 16.276-1.044 22.087-6.387 5.81-16.275 5.344-22.087-1.044-5.923-6.511-12.783-12.316-20.39-17.255-7.243-4.703-9.302-14.387-4.6-21.629z" fill="#ffca8a"/><path d="m86.809 240.554c0-14.094 1.365-27.917 3.951-41.398-12.839-4.049-26.274-6.157-39.799-6.157-8.729 0-17.423.872-25.943 2.578-20.767 4.16-31.353 27.479-20.996 45.954 6.668 11.896 20.236 17.911 33.628 15.338 15.998-3.074 32.912-.547 47.405 7.578 1.079.604 2.168 1.187 3.262 1.76-.991-8.44-1.508-16.996-1.508-25.653z" fill="#ffb25a"/></g></svg>