<svg id="Capa_1" enable-background="new 0 0 497 497" height="512" viewBox="0 0 497 497" width="512" xmlns="http://www.w3.org/2000/svg"><g><path d="m220.418 487.567h-63.713c-.184 0-.367 0-.551-.01l-52.701-96.997 21.661-96.997h79.555l43.832 97.003z" fill="#f9ed80"/><path d="m371.886 293.562 18.687 97.003-49.728 96.992c-.184.01-.367.01-.551.01h-63.713l-28.081-97.002 43.832-97.003z" fill="#f9ed80"/><path d="m446.249 293.562-35.947 139.738c-8.171 31.765-36.702 54.022-69.456 54.257l31.04-193.995z" fill="#9ae0eb"/><path d="m292.332 293.562-15.75 194.005h-56.164l-15.75-194.005z" fill="#9ae0eb"/><path d="m112.499 350.051-9.046 40.508 52.701 96.998c.184.01.367.01.551.01h44.093c-40.648-36.685-71.538-83.975-88.299-137.516z" fill="#f9d888"/><path d="m156.154 487.557c-32.754-.235-61.285-22.492-69.456-54.257l-35.947-139.738h74.362z" fill="#9ae0eb"/><path d="m100.503 293.562h-49.752l35.947 139.738c8.171 31.765 36.702 54.022 69.456 54.257l-10.507-65.664c-23.862-38.024-39.697-81.588-45.144-128.331z" fill="#64d1e1"/><path d="m467.608 199.726-.077-.099.033-.198c8.775-43.875-16.522-87.271-58.776-101.41v-.022c-14.061-41.957-57.298-67.655-101.608-58.71-.265-.156-22.018-22.238-58.709-22.238-36.625 0-58.446 22.083-58.709 22.238-44.35-8.953-87.557 16.782-101.609 58.709v.022c-42.286 14.15-67.544 57.572-58.776 101.41l.033.198c-41.178 47.637-5.956 117.331 53.263 117.331h331.595c60.279.001 94.058-71.423 53.34-117.231z" fill="#e7886e"/><g><g><path d="m149.697 250.877c-4.142 0-7.5-3.358-7.5-7.5v-18.986c0-4.142 3.358-7.5 7.5-7.5s7.5 3.358 7.5 7.5v18.986c0 4.142-3.358 7.5-7.5 7.5z" fill="#423e4f"/></g><g><path d="m347.303 250.877c-4.142 0-7.5-3.358-7.5-7.5v-18.986c0-4.142 3.358-7.5 7.5-7.5s7.5 3.358 7.5 7.5v18.986c0 4.142-3.358 7.5-7.5 7.5z" fill="#423e4f"/></g><g><path d="m248.5 262.179c-12.15 0-23.706-5.263-31.703-14.44-2.721-3.123-2.396-7.86.727-10.582 3.123-2.721 7.859-2.396 10.582.727 5.148 5.907 12.582 9.295 20.395 9.295s15.247-3.388 20.395-9.295c2.722-3.124 7.459-3.448 10.582-.727s3.448 7.459.727 10.582c-7.999 9.177-19.555 14.44-31.705 14.44z" fill="#423e4f"/></g></g><circle cx="166.895" cy="155.273" fill="#ffb3dd" r="29.745"/><path d="m98.381 257.291c0-85.129 34.311-162.238 89.848-218.276-43.809-8.062-86.186 17.538-100.076 58.981v.022c-42.286 14.15-67.544 57.571-58.776 101.41l.033.198c-41.178 47.637-5.956 117.331 53.263 117.331h21.466c-3.765-19.31-5.758-39.254-5.758-59.666z" fill="#e27858"/><circle cx="189.011" cy="39.177" fill="#ffb3dd" r="29.745"/><circle cx="330.105" cy="155.273" fill="#f9ed80" r="29.745"/><circle cx="307.989" cy="39.177" fill="#f9ed80" r="29.745"/><circle cx="408.922" cy="98.667" fill="#ffb3dd" r="29.745"/><circle cx="467.255" cy="198.788" fill="#f9ed80" r="29.745"/><path d="m168.585 60.789c12.594-15.357 26.632-29.483 41.91-42.171-5.415-5.657-13.035-9.185-21.484-9.185-16.428 0-29.745 13.317-29.745 29.745 0 8.515 3.584 16.188 9.319 21.611z" fill="#ff9dd3"/><circle cx="88.078" cy="98.667" fill="#f9d888" r="29.745"/><circle cx="29.745" cy="198.788" fill="#ff9dd3" r="29.745"/></g></svg>