<svg id="Capa_1" enable-background="new 0 0 497 497" height="512" viewBox="0 0 497 497" width="512" xmlns="http://www.w3.org/2000/svg"><g><path d="m268.684 6.287c-6.985-6.376-17.088-8.012-25.83-4.406-22.299 9.196-56.682 28.015-64.907 58.859l.034.022 5.013 20.138 79.387 35.265 80.182-24.127c30.687-65.204-50.168-64.108-73.879-85.751z" fill="#ffb3dd"/><path d="m182.993 80.9 19.22 8.538c27.847-30.248 62.412-53.345 101.101-66.5-13.707-5.162-27.072-9.751-34.63-16.65-6.985-6.375-17.088-8.012-25.83-4.406-22.299 9.197-56.682 28.015-64.907 58.859l.034.022z" fill="#ff9dd3"/><path id="XMLID_4_" d="m177.947 60.74s-49.881 23.811-35.811 62.117l-2.501 42.399 116.051 6.334 120.586-12.667c57.391-98.183-176.584-68.16-198.325-98.183z" fill="#f9ed80"/><path d="m152.999 165.986c15.14-35.639 37.412-67.044 64.852-92.132-20.013-2.799-35.113-6.498-39.904-13.114 0 0-49.881 23.811-35.811 62.117l-2.501 42.399z" fill="#f9d888"/><path id="XMLID_3_" d="m404.686 220.323c56.29-119.207-250.739-57.09-262.55-97.466 0 0-71.09 36.533-29.028 97.466l142.577 29.453z" fill="#ffb3dd"/><path d="m85.833 244.667c0 136.688 96.634 184.725 169.853 184.725s169.853-48.037 169.853-184.725z" fill="#ffca8a"/><path d="m168.222 135.598c-14.55-2.369-24.177-6.215-26.086-12.74 0 0-71.09 36.533-29.028 97.466l22.3 4.607c5.856-32.249 17.148-62.406 32.814-89.333z" fill="#ff9dd3"/><path d="m429.349 185.341c-12.139-10.033-29.406-11.324-42.71-2.897-33.221 21.042-87.469 30.79-130.968 30.79-43.483 0-97.719-9.743-130.945-30.776-13.309-8.425-30.578-7.129-42.715 2.91-19.249 15.922-17.327 46.037 3.829 59.321 42.372 26.604 103.18 42.155 169.831 42.155 66.675 0 127.495-15.558 169.867-42.177 21.156-13.29 23.069-43.41 3.811-59.326z" fill="#ffdebb"/><g><g><g><ellipse cx="299.068" cy="351.659" fill="#ff8997" rx="26.952" ry="33.845"/></g></g></g><g><path d="m328.397 355.543c-4.143 0-7.5-3.358-7.5-7.5s3.357-7.5 7.5-7.5c4.747 0 8.609-3.862 8.609-8.609s-3.862-8.609-8.609-8.609c-4.143 0-7.5-3.358-7.5-7.5s3.357-7.5 7.5-7.5c13.019 0 23.609 10.591 23.609 23.609s-10.59 23.609-23.609 23.609z" fill="#423e4f"/></g><path d="m317.428 433.456c-16.033-16.033-39.555-20.094-59.712-12.311-20.157-7.783-43.679-3.723-59.712 12.311-13.334 13.334-18.387 31.846-15.234 49.296 1.228 6.799 6.541 12.111 13.339 13.34 17.45 3.153 35.963-1.901 49.296-15.234 5.522-5.522 9.624-11.934 12.311-18.789 2.687 6.856 6.788 13.267 12.311 18.789 13.334 13.334 31.846 18.387 49.296 15.234 6.799-1.228 12.111-6.541 13.34-13.34 3.152-17.449-1.902-35.962-15.235-49.296z" fill="#ffdebb"/><path d="m130.816 276.009c0-10.606.597-21.061 1.724-31.343h-46.707c0 79.23 32.469 128.67 74.025 156.239-18.527-37.225-29.042-79.739-29.042-124.896z" fill="#ffbe73"/><path d="m157.686 329.397-1.779-1.779c-25.638-25.638-67.207-25.638-92.845 0-6.393 6.393-9.542 15.342-8.56 24.33.907 8.305 7.466 14.863 15.771 15.771 8.305.907 14.863 7.466 15.771 15.771.907 8.305 7.466 14.863 15.771 15.771 8.305.907 14.863 7.466 15.771 15.771.907 8.305 7.466 14.863 15.771 15.771 15.387 1.681 24.226-8.495 24.331-8.56 25.637-25.639 25.637-67.208-.002-92.846z" fill="#ffdebb"/><g fill="#ffca8a"><path d="m133.194 312.82c-23.5-9.086-51.17-4.165-70.132 14.797-6.393 6.394-9.542 15.342-8.56 24.331.907 8.305 7.466 14.863 15.771 15.771 8.305.907 14.864 7.466 15.771 15.771.907 8.305 7.466 14.863 15.771 15.771 8.305.907 14.863 7.466 15.771 15.771.907 8.305 7.466 14.863 15.771 15.771 15.387 1.681 24.226-8.495 24.33-8.56 3.103-3.103 5.822-6.443 8.174-9.956-16.669-29.85-28.019-63.505-32.667-99.467z"/><path d="m143.398 192.227c-6.725-2.936-13.009-6.185-18.671-9.769-13.309-8.425-30.578-7.129-42.715 2.91-19.249 15.922-17.327 46.037 3.829 59.321 13.351 8.383 28.536 15.666 45.154 21.713.856-25.836 5.144-50.732 12.403-74.175z"/></g></g></svg>