<svg id="Capa_1" enable-background="new 0 0 497 497" height="512" viewBox="0 0 497 497" width="512" xmlns="http://www.w3.org/2000/svg"><g><path d="m416.231 15.201h-335.462c-39.011 0-70.636 31.625-70.636 70.636v335.463c0 39.011 31.625 70.636 70.636 70.636h335.463c39.011 0 70.636-31.625 70.636-70.636v-335.463c-.001-39.011-31.626-70.636-70.637-70.636z" fill="#ffdebb"/><g fill="#ffca8a"><path d="m91.197 194.385c0-66.167 21.511-127.738 58.484-179.184h-68.912c-39.011 0-70.636 31.625-70.636 70.636v335.463c0 39.011 31.625 70.635 70.636 70.635h188.49c-106.468-62.47-178.062-176.838-178.062-297.55z"/><path d="m188.876 104.25h-95.622c-17.424 0-31.548 14.125-31.548 31.548v85.489c0 17.424 14.125 31.548 31.548 31.548h95.622c17.424 0 31.548-14.125 31.548-31.548v-85.489c.001-17.423-14.124-31.548-31.548-31.548z"/><path d="m188.876 299.6h-95.622c-17.424 0-31.548 14.125-31.548 31.548v77.382c0 17.424 14.125 31.548 31.548 31.548h95.622c17.424 0 31.548-14.125 31.548-31.548v-77.382c.001-17.423-14.124-31.548-31.548-31.548z"/><path d="m308.124 104.25h95.622c17.424 0 31.548 14.125 31.548 31.548v85.489c0 17.424-14.125 31.548-31.548 31.548h-95.622c-17.424 0-31.548-14.125-31.548-31.548v-85.489c-.001-17.423 14.124-31.548 31.548-31.548z"/><path d="m308.124 299.6h95.622c17.424 0 31.548 14.125 31.548 31.548v77.382c0 17.424-14.125 31.548-31.548 31.548h-95.622c-17.424 0-31.548-14.125-31.548-31.548v-77.382c-.001-17.423 14.124-31.548 31.548-31.548z"/></g><path d="m91.197 194.385c0-31.266 4.807-61.505 13.775-90.135h-11.718c-17.424 0-31.548 14.125-31.548 31.548v85.489c0 17.424 14.125 31.548 31.548 31.548h3.513c-3.66-19.182-5.57-38.731-5.57-58.45z" fill="#ffbe73"/><path d="m416.23 5.065h-335.46c-44.608 0-80.77 36.161-80.77 80.769v9.179c0 36.72 38.138 63.366 73.879 46.086 22.052-10.652 47.78-10.668 69.846 0 22.021 10.666 47.776 10.68 69.846 0 22.069-10.66 47.786-10.66 69.856 0 22.024 10.658 47.78 10.688 69.846 0 22.049-10.66 47.776-10.66 69.846 0 35.726 17.288 73.881-9.36 73.881-46.085v-9.18c0-44.608-36.162-80.769-80.77-80.769z" fill="#e7886e"/><g><g><path d="m148.676 86.634c-4.142 0-7.5-3.358-7.5-7.5v-19.181c0-4.142 3.358-7.5 7.5-7.5s7.5 3.358 7.5 7.5v19.182c0 4.142-3.358 7.499-7.5 7.499z" fill="#423e4f"/></g><g><path d="m348.324 86.634c-4.142 0-7.5-3.358-7.5-7.5v-19.181c0-4.142 3.358-7.5 7.5-7.5s7.5 3.358 7.5 7.5v19.182c0 4.142-3.358 7.499-7.5 7.499z" fill="#423e4f"/></g><g><path d="m248.5 98.053c-12.254 0-23.907-5.308-31.972-14.563-2.721-3.123-2.396-7.86.727-10.582s7.86-2.396 10.582.727c5.215 5.984 12.747 9.417 20.664 9.417 7.916 0 15.448-3.433 20.665-9.417 2.721-3.123 7.458-3.448 10.582-.726 3.123 2.721 3.448 7.459.727 10.582-8.068 9.255-19.722 14.562-31.975 14.562z" fill="#423e4f"/></g></g><path d="m109.372 299.6h-16.118c-17.424 0-31.548 14.125-31.548 31.548v77.383c0 17.424 14.125 31.548 31.548 31.548h95.622c3.519 0 6.899-.585 10.06-1.648-40.33-39.074-71.378-86.837-89.564-138.831z" fill="#ffbe73"/><path d="m157.268 5.065h-76.498c-44.608 0-80.77 36.161-80.77 80.769v9.179c0 36.72 38.138 63.366 73.879 46.086 7.481-3.614 15.386-6 23.427-7.163 9.687-47.346 30.536-91.095 59.962-128.871z" fill="#e27858"/></g></svg>