<svg id="Capa_1" enable-background="new 0 0 497 497" height="512" viewBox="0 0 497 497" width="512" xmlns="http://www.w3.org/2000/svg"><g><path d="m116.755 336.593 22.946 120.103c4.468 23.388 24.922 40.304 48.734 40.304h120.137c23.811 0 44.265-16.916 48.734-40.304l22.946-120.103z" fill="#ffca8a"/><path d="m255.172 8.385c-9.315-8.502-22.788-10.685-34.447-5.876-29.738 12.264-75.59 37.36-86.558 78.493l.045.029 6.685 26.855 105.869 47.029 106.929-32.175c40.923-86.955-66.904-85.494-98.523-114.355z" fill="#f9ed80"/><path d="m140.896 107.886 17.172 7.628c24.499-42.7 60.864-77.977 104.726-101.522-2.854-1.751-5.427-3.604-7.622-5.608-9.315-8.502-22.788-10.685-34.447-5.876-29.738 12.264-75.59 37.36-86.558 78.493l.045.029z" fill="#f9d888"/><path id="XMLID_1_" d="m135.785 81.002s-57.473 31.754-38.709 82.838l-12.383 56.543 154.763 8.446 160.811-16.893c76.534-130.934-235.489-90.896-264.482-130.934z" fill="#ffb3dd"/><path d="m141.375 336.593h-24.62l22.946 120.103c4.468 23.388 24.922 40.304 48.734 40.304h120.137c3.883 0 7.675-.457 11.324-1.312-82.185-22.136-148.492-81.836-178.521-159.095z" fill="#ffbe73"/><path d="m74.88 251.32 19.611 96.052c5.559 27.226 29.509 46.781 57.298 46.781h193.429c27.788 0 51.739-19.555 57.298-46.781l19.611-96.052z" fill="#ffdebb"/><path d="m124.812 222.572c3.794-46.935 20.234-90.373 45.973-127.06-17.457-3.387-30.166-7.835-35-14.511 0 0-57.473 31.755-38.709 82.838l-12.383 56.543z" fill="#ff9dd3"/><path d="m124.088 251.32h-49.208l19.611 96.052c5.559 27.226 29.509 46.781 57.297 46.781h20.862c-29.239-40.602-46.973-89.73-48.562-142.833z" fill="#ffca8a"/><path d="m79.038 303.898 3.63 1.77c25.906 12.632 48.708-.023 48.605 0 25.906-12.632 48.708.023 48.605 0 25.906 12.632 48.708-.023 48.605 0 25.906-12.632 48.708.023 48.605 0 25.906 12.632 48.708-.023 48.605 0 25.906-12.632 48.708.023 48.605 0 15.339 7.479 33.267 7.479 48.605 0 0 0 2.059-1.004 4.978-2.427 18.234-8.891 29.78-27.832 28.385-48.07-7.305-105.994-344.917-42.535-359.192-91.332 0 0-56.331 28.949-56.458 79.435-.063 25.846 15.191 49.297 38.422 60.624z" fill="#e7886e"/><g><g><path d="m159.227 259.812c-4.143 0-7.5-3.358-7.5-7.5v-17.155c0-4.142 3.357-7.5 7.5-7.5s7.5 3.358 7.5 7.5v17.155c0 4.142-3.358 7.5-7.5 7.5z" fill="#423e4f"/></g><g><path d="m337.78 259.812c-4.143 0-7.5-3.358-7.5-7.5v-17.155c0-4.142 3.357-7.5 7.5-7.5s7.5 3.358 7.5 7.5v17.155c0 4.142-3.357 7.5-7.5 7.5z" fill="#423e4f"/></g><g><path d="m248.503 270.024c-11.188 0-21.827-4.846-29.191-13.295-2.721-3.123-2.396-7.86.727-10.582 3.122-2.722 7.859-2.397 10.582.726 4.515 5.18 11.032 8.15 17.883 8.15s13.369-2.971 17.884-8.15c2.723-3.124 7.459-3.448 10.582-.726s3.447 7.459.727 10.582c-7.366 8.45-18.007 13.295-29.194 13.295z" fill="#423e4f"/></g></g><path d="m123.96 243.514c0-21.618 2.695-42.617 7.74-62.709-19.314-3.162-32.085-8.288-34.624-16.965 0 0-56.331 28.949-56.458 79.435-.065 25.845 15.189 49.297 38.42 60.624l3.63 1.77c25.906 12.632 48.708-.023 48.605 0 .087-.042.172-.077.259-.119-4.936-19.889-7.572-40.659-7.572-62.036z" fill="#e27858"/></g></svg>