<svg id="Capa_1" enable-background="new 0 0 497 497" height="512" viewBox="0 0 497 497" width="512" xmlns="http://www.w3.org/2000/svg"><g><path d="m357.583 455.998c-9.511-31.971-28.088-42.64-28.088-42.64l-87.333-26.38-87.333 26.38s-18.577 10.669-28.088 42.64c-6.083 20.443 9.139 41.002 30.466 41.002h169.908c21.328 0 36.549-20.559 30.468-41.002z" fill="#9ae0eb"/><path d="m187.128 403.602-32.3 9.757s-18.577 10.669-28.088 42.64c-6.082 20.442 9.14 41.001 30.467 41.001h138.394c-43.042-21.659-80.236-53.872-108.473-93.398z" fill="#64d1e1"/><path d="m383.911 256.923s1.102 88.498-54.417 156.435h-174.666c-55.519-67.937-54.417-156.435-54.417-156.435z" fill="#ffb3dd"/><path d="m131.251 256.923h-30.839s-1.102 88.498 54.417 156.435h39.579c-34.02-43.825-56.628-97.585-63.157-156.435z" fill="#ff9dd3"/><g><g><path d="m165.197 336.72c-4.143 0-7.5-3.358-7.5-7.5v-14.789c0-4.142 3.357-7.5 7.5-7.5s7.5 3.358 7.5 7.5v14.789c0 4.143-3.357 7.5-7.5 7.5z" fill="#423e4f"/></g><g><path d="m319.126 336.72c-4.143 0-7.5-3.358-7.5-7.5v-14.789c0-4.142 3.357-7.5 7.5-7.5s7.5 3.358 7.5 7.5v14.789c0 4.143-3.358 7.5-7.5 7.5z" fill="#423e4f"/></g><g><path d="m242.161 345.524c-9.944 0-19.401-4.307-25.945-11.816-2.722-3.123-2.396-7.86.727-10.582 3.122-2.721 7.859-2.396 10.582.727 3.694 4.24 9.029 6.671 14.637 6.671s10.942-2.432 14.639-6.672c2.721-3.123 7.459-3.447 10.581-.726 3.123 2.722 3.447 7.459.726 10.582-6.547 7.51-16.004 11.816-25.947 11.816z" fill="#423e4f"/></g></g><path d="m425.074 33.948 14.771 18.476-14.771 48.02-33.943 33.942-33.253-33.253z" fill="#e7886e"/><path d="m487.87 37.658-33.253 33.253-14.772-18.487 14.772-48.019c5.863-5.873 15.372-5.873 21.246 0l12.007 12.007c5.863 5.863 5.863 15.373 0 21.246z" fill="#e7886e"/><path d="m454.617 4.405v66.506l-29.543 29.533v-66.507z" fill="#dcdcdc"/><path d="m100.767 57.188c-7.894-12.908-20.092-22.815-34.346-27.895l-40.639-14.482c-6.866-2.447-14.415 1.136-16.861 8.001l-3.418 9.591c-2.447 6.866 1.136 14.415 8.001 16.862l40.638 14.482c6.401 2.281 11.878 6.729 15.423 12.526l24.011 39.256 31.202-19.085z" fill="#dcdcdc"/><path d="m368.962 184.4h-253.6c-21.576 0-39.066 17.49-39.066 39.066 0 21.576 17.49 39.066 39.066 39.066h253.6c21.576 0 39.066-17.49 39.066-39.066-.001-21.576-17.491-39.066-39.066-39.066z" fill="#9ae0eb"/><path d="m129.277 221.537c0-12.572.747-24.962 2.166-37.137h-16.082c-21.576 0-39.066 17.49-39.066 39.066 0 21.576 17.49 39.066 39.066 39.066h16.557c-1.73-13.412-2.641-27.092-2.641-40.995z" fill="#64d1e1"/><path d="m242.162 22.781c-95.495 0-172.909 56.513-172.909 152.008 0 14.635 8.014 28.095 20.879 35.07l.734.398c13.482 7.309 29.745 7.309 43.227 0 13.482-7.309 29.745-7.309 43.227 0 13.482 7.309 29.745 7.309 43.227 0s29.745-7.309 43.227 0c13.482 7.309 29.745 7.309 43.227 0 13.482-7.309 29.745-7.309 43.227 0s29.745 7.309 43.227 0l.734-.398c12.866-6.975 20.879-20.435 20.879-35.07.002-95.495-77.412-152.008-172.906-152.008z" fill="#ffb3dd"/><path d="m196.187 27.42c-73.176 15.296-126.934 67.794-126.934 147.369 0 14.635 8.014 28.095 20.879 35.07l.734.398c11.958 6.483 26.099 7.203 38.551 2.186 1.974-70.158 26.69-134.389 66.77-185.023z" fill="#ff9dd3"/><g><path d="m222.544 59.535c-5.742-5.742-5.742-15.051 0-20.794l18.442-18.441c5.742-5.742 15.051-5.742 20.794 0 5.742 5.742 5.742 15.051 0 20.794l-18.442 18.442c-5.742 5.741-15.052 5.742-20.794-.001z" fill="#f9ed80"/></g><g><path d="m261.779 143.535c5.742-5.742 5.742-15.051 0-20.794l-18.442-18.441c-5.742-5.742-15.051-5.742-20.794 0-5.742 5.742-5.742 15.051 0 20.794l18.442 18.442c5.742 5.741 15.051 5.741 20.794-.001z" fill="#e7886e"/></g><g><path d="m113.483 162.802c-5.742-5.742-5.742-15.051 0-20.794l18.442-18.442c5.742-5.742 15.051-5.742 20.794 0 5.742 5.742 5.742 15.051 0 20.794l-18.442 18.442c-5.742 5.741-15.051 5.742-20.794 0z" fill="#f9ed80"/></g><g><path d="m175.088 82.48c-5.742 5.742-15.051 5.742-20.794 0l-18.442-18.442c-5.742-5.742-5.742-15.051 0-20.794 5.742-5.742 15.051-5.742 20.794 0l18.442 18.442c5.741 5.742 5.742 15.051 0 20.794z" fill="#e7886e"/></g><path d="m131.925 123.566-18.442 18.442c-5.742 5.742-5.742 15.052 0 20.794 5.743 5.742 15.052 5.741 20.794 0l.552-.552c2.755-14.567 6.505-28.762 11.175-42.508-4.874-1.256-10.263.008-14.079 3.824z" fill="#f9d888"/><path d="m173.576 60.174-16.93-16.93c-5.742-5.742-15.051-5.742-20.794 0-5.742 5.743-5.742 15.052 0 20.794l18.442 18.442c1.596 1.596 3.473 2.732 5.467 3.441 4.214-8.833 8.828-17.422 13.815-25.747z" fill="#e27858"/><g><path d="m370.84 162.802c5.742-5.742 5.742-15.051 0-20.794l-18.442-18.442c-5.742-5.742-15.051-5.742-20.794 0-5.742 5.742-5.742 15.051 0 20.794l18.442 18.442c5.742 5.741 15.051 5.742 20.794 0z" fill="#f9ed80"/></g><g><path d="m309.235 82.48c5.742 5.742 15.051 5.742 20.794 0l18.442-18.442c5.742-5.742 5.742-15.051 0-20.794-5.742-5.742-15.051-5.742-20.794 0l-18.442 18.442c-5.742 5.742-5.742 15.051 0 20.794z" fill="#e7886e"/></g></g></svg>