<?xml version="1.0" encoding="iso-8859-1"?>
<!-- Generator: Adobe Illustrator 19.0.0, SVG Export Plug-In . SVG Version: 6.00 Build 0)  -->
<svg xmlns="http://www.w3.org/2000/svg" xmlns:xlink="http://www.w3.org/1999/xlink" version="1.1" id="Capa_1" x="0px" y="0px" viewBox="0 0 512.001 512.001" style="enable-background:new 0 0 512.001 512.001;" xml:space="preserve">
<path style="fill:#E4E7E9;" d="M479.609,504.501H167.021c-12.762,0-23.108-10.346-23.108-23.108V159.591  c0-12.762,10.346-23.108,23.108-23.108h312.588c12.762,0,23.108,10.346,23.108,23.108v321.803  C502.716,494.156,492.371,504.501,479.609,504.501z"/>
<g style="opacity:0.4;">
	<ellipse style="fill:#F9B0B6;" cx="403.779" cy="257.46" rx="35.87" ry="21.496"/>
	<ellipse style="fill:#F9B0B6;" cx="242.849" cy="257.46" rx="35.87" ry="21.496"/>
</g>
<path style="fill:#7CD1A9;" d="M143.913,418.759v62.635c0,12.762,10.346,23.108,23.108,23.108h312.588  c12.762,0,23.108-10.346,23.108-23.108v-62.635H143.913z"/>
<path style="fill:#E4E7E9;" d="M66.394,418.759h77.519V377.07H66.394c-8.504,0-15.423-6.918-15.423-15.422V256.235  c0-8.504,6.918-15.423,15.423-15.423h77.519v-41.689H66.394c-31.491,0-57.111,25.62-57.111,57.111v105.413  C9.283,393.139,34.903,418.759,66.394,418.759z"/>
<path style="opacity:0.1;enable-background:new    ;" d="M99.988,199.124v41.689h43.925v-41.689H99.988z M143.913,377.07H99.988  v41.689h43.925V377.07z"/>
<path style="fill:#93827E;" d="M296.03,440.027L296.03,440.027c-23.233-9.525-38.407-32.145-38.407-57.255v-40.763  c0-25.11,15.174-47.73,38.407-57.255l0,0c13.016-5.336,27.285,4.236,27.285,18.303v118.667  C323.315,435.791,309.045,445.363,296.03,440.027z"/>
<path style="opacity:0.1;enable-background:new    ;" d="M296.03,440.027L296.03,440.027c-23.233-9.525-38.407-32.145-38.407-57.255  v-40.763c0-25.11,15.174-47.73,38.407-57.255l0,0c13.016-5.336,27.285,4.236,27.285,18.303v118.667  C323.315,435.791,309.045,445.363,296.03,440.027z"/>
<path style="fill:#93827E;" d="M350.599,440.027L350.599,440.027c23.233-9.525,38.407-32.145,38.407-57.255v-40.763  c0-25.11-15.174-47.73-38.407-57.255l0,0c-13.016-5.336-27.285,4.236-27.285,18.303v118.667  C323.315,435.791,337.584,445.363,350.599,440.027z"/>
<path style="fill:#4A5058;" d="M347.511,228.657c0,13.176-10.915,23.802-24.197,23.33c-12.651-0.45-22.494-11.231-22.494-23.89  v-16.421c0-3.515,2.85-6.365,6.366-6.365h33.96c3.516,0,6.365,2.85,6.365,6.365V228.657z"/>
<path style="opacity:0.1;enable-background:new    ;" d="M479.609,136.483h-46.897c12.762,0,23.108,10.346,23.108,23.108v321.803  c0,12.762-10.346,23.108-23.108,23.108h46.897c12.762,0,23.108-10.346,23.108-23.108V159.591  C502.716,146.829,492.371,136.483,479.609,136.483z"/>
<path d="M502.716,230.993c-4.142,0-7.5,3.358-7.5,7.5v242.9c0,8.606-7.001,15.608-15.608,15.608H167.021  c-8.606,0-15.608-7.001-15.608-15.608v-5.607c0-4.142-3.358-7.5-7.5-7.5s-7.5,3.358-7.5,7.5v5.607  c0,16.877,13.73,30.608,30.608,30.608h312.588c16.877,0,30.608-13.73,30.608-30.608v-242.9  C510.216,234.351,506.859,230.993,502.716,230.993z M388.536,56.427c5.681,4.397,9.192,10.757,9.889,17.907  c0.696,7.15-1.523,14.067-6.248,19.479c-2.725,3.12-2.404,7.857,0.716,10.582c1.422,1.242,3.18,1.851,4.93,1.851  c2.09,0,4.169-0.869,5.652-2.567c7.472-8.556,10.98-19.493,9.879-30.799c-1.101-11.305-6.654-21.361-15.636-28.314  c-10.159-7.866-12.976-22.188-6.552-33.315c2.071-3.587,0.841-8.174-2.746-10.245c-3.588-2.071-8.175-0.841-10.245,2.746  C368.02,21.345,372.473,43.99,388.536,56.427z M248.911,56.427c5.681,4.397,9.192,10.757,9.889,17.907  c0.696,7.15-1.523,14.067-6.248,19.479c-2.725,3.12-2.404,7.857,0.716,10.582c1.422,1.242,3.18,1.851,4.93,1.851  c2.09,0,4.169-0.869,5.652-2.567c7.472-8.556,10.98-19.493,9.879-30.799c-1.101-11.305-6.654-21.361-15.636-28.314  c-10.159-7.866-12.976-22.188-6.552-33.315c2.071-3.587,0.841-8.174-2.746-10.245s-8.174-0.841-10.245,2.746  C228.394,21.345,232.848,43.99,248.911,56.427z M318.724,56.427c5.681,4.397,9.192,10.757,9.889,17.907  c0.696,7.15-1.523,14.067-6.248,19.479c-2.725,3.12-2.404,7.857,0.716,10.582c1.422,1.242,3.18,1.851,4.93,1.851  c2.09,0,4.169-0.869,5.652-2.567c7.472-8.556,10.98-19.493,9.879-30.799c-1.101-11.305-6.654-21.361-15.636-28.314  c-10.159-7.866-12.976-22.188-6.552-33.315c2.071-3.587,0.841-8.174-2.746-10.245s-8.174-0.841-10.245,2.746  C298.207,21.345,302.661,43.99,318.724,56.427z M250.123,342.009v40.763c0,28.272,16.903,53.47,43.062,64.194l0,0  c3.341,1.37,6.857,2.045,10.356,2.045c5.331,0,10.623-1.567,15.19-4.631c1.688-1.132,3.215-2.442,4.583-3.882  c1.368,1.44,2.895,2.749,4.583,3.882c4.568,3.065,9.858,4.631,15.19,4.631c3.499,0,7.016-0.675,10.356-2.045  c20.748-8.506,36.171-26.619,41.256-48.452c0.939-4.034-1.569-8.066-5.603-9.006c-4.031-0.94-8.066,1.569-9.006,5.603  c-3.985,17.112-16.074,31.309-32.336,37.976c-3.852,1.578-8.044,1.154-11.501-1.164c-3.457-2.319-5.439-6.037-5.439-10.199V303.057  c0-4.163,1.982-7.879,5.439-10.198c3.456-2.32,7.649-2.743,11.5-1.165c20.503,8.406,33.752,28.156,33.752,50.315v20.382  c0,4.142,3.358,7.5,7.5,7.5s7.5-3.358,7.5-7.5v-20.382c0-28.272-16.903-53.469-43.062-64.194c-8.431-3.456-17.98-2.489-25.546,2.586  c-1.688,1.132-3.215,2.442-4.583,3.882c-1.368-1.44-2.895-2.749-4.583-3.882c-7.566-5.075-17.115-6.043-25.547-2.586  C267.026,288.54,250.123,313.737,250.123,342.009z M310.375,292.859c3.457,2.319,5.439,6.036,5.439,10.198v118.667  c0,4.163-1.982,7.88-5.439,10.199c-3.458,2.319-7.649,2.743-11.501,1.165h0.001c-20.503-8.406-33.752-28.156-33.752-50.315V342.01  c0-22.159,13.249-41.909,33.751-50.315C302.726,290.116,306.918,290.54,310.375,292.859z M411.905,218.074v-13.831  c0-4.142-3.358-7.5-7.5-7.5s-7.5,3.358-7.5,7.5v13.831c0,4.142,3.358,7.5,7.5,7.5C408.548,225.574,411.905,222.216,411.905,218.074z   M323.048,259.482c0.379,0.014,0.757,0.021,1.135,0.021c8.035,0,15.597-3.047,21.401-8.649c6.079-5.867,9.427-13.75,9.427-22.197  v-16.98c0-7.645-6.22-13.865-13.866-13.865h-33.96c-7.646,0-13.865,6.22-13.865,13.865v16.421  C293.32,244.821,306.656,258.9,323.048,259.482z M308.32,212.811h31.691v15.846c0,4.339-1.72,8.389-4.844,11.403  c-3.122,3.012-7.245,4.579-11.586,4.432c-8.415-0.299-15.261-7.654-15.261-16.395L308.32,212.811L308.32,212.811z M479.609,128.983  H167.021c-16.877,0-30.608,13.73-30.608,30.608v32.033H66.394c-35.627,0-64.611,28.984-64.611,64.611v105.413  c0,35.626,28.984,64.611,64.611,64.611h70.019v14.311c0,4.142,3.358,7.5,7.5,7.5s7.5-3.358,7.5-7.5V159.591  c0-8.607,7.001-15.608,15.608-15.608h312.588c8.606,0,15.608,7.001,15.608,15.608v39.533c0,4.142,3.358,7.5,7.5,7.5  s7.5-3.358,7.5-7.5v-39.533C510.216,142.713,496.486,128.983,479.609,128.983z M136.413,369.57H66.394  c-4.369,0-7.923-3.554-7.923-7.922V256.235c0-4.369,3.554-7.923,7.923-7.923h70.019V369.57z M136.413,233.312H66.394  c-12.64,0-22.923,10.283-22.923,22.923v105.413c0,12.639,10.283,22.922,22.923,22.922h70.019v26.689H66.394  c-27.356,0-49.611-22.255-49.611-49.611V256.235c0-27.356,22.255-49.611,49.611-49.611h70.019V233.312z M249.724,218.074v-13.831  c0-4.142-3.358-7.5-7.5-7.5s-7.5,3.358-7.5,7.5v13.831c0,4.142,3.358,7.5,7.5,7.5S249.724,222.216,249.724,218.074z"/>
<g>
</g>
<g>
</g>
<g>
</g>
<g>
</g>
<g>
</g>
<g>
</g>
<g>
</g>
<g>
</g>
<g>
</g>
<g>
</g>
<g>
</g>
<g>
</g>
<g>
</g>
<g>
</g>
<g>
</g>
</svg>
