<?xml version="1.0" encoding="iso-8859-1"?>
<!-- Generator: Adobe Illustrator 19.0.0, SVG Export Plug-In . SVG Version: 6.00 Build 0)  -->
<svg xmlns="http://www.w3.org/2000/svg" xmlns:xlink="http://www.w3.org/1999/xlink" version="1.1" id="Capa_1" x="0px" y="0px" viewBox="0 0 511.998 511.998" style="enable-background:new 0 0 511.998 511.998;" xml:space="preserve">
<path style="fill:#A3D6EB;" d="M320.824,504.5H191.139c-20.682,0-37.402-16.854-37.237-37.536l0.59-73.953  c0.202-23.265,6.466-46.076,18.172-66.182l0,0c4.152-7.131,6.339-15.235,6.339-23.486v-51.222c0-14.969-4.006-29.666-11.602-42.565  l0,0c-21.919-37.222-18.879-84.057,7.668-118.133l0,0c7.252-9.309,18.393-14.752,30.193-14.752H306.7  c11.8,0,22.941,5.443,30.193,14.752l0,0c26.547,34.076,29.588,80.911,7.668,118.133l0,0c-7.596,12.899-11.602,27.596-11.602,42.565  v51.222c0,8.251,2.187,16.355,6.339,23.486l0,0c11.706,20.106,17.969,42.917,18.172,66.182l0.59,73.953  C358.226,487.646,341.506,504.5,320.824,504.5z"/>
<g style="opacity:0.4;">
	<ellipse style="fill:#F9B0B6;" cx="320.738" cy="434.15" rx="28.872" ry="17.302"/>
	<ellipse style="fill:#F9B0B6;" cx="191.208" cy="434.15" rx="28.872" ry="17.302"/>
</g>
<path style="opacity:0.05;enable-background:new    ;" d="M288.772,139.657c17.703,0,33.941-5.708,49.644-11.228  c5.281-1.856,10.44-3.665,15.442-5.166c-1.515-4.614-3.364-9.138-5.528-13.543c-4.84,1.496-9.742,3.214-14.742,4.972  c-14.551,5.115-29.597,10.404-44.815,10.404c-4.021,0-7.28,3.259-7.28,7.28C281.492,136.398,284.752,139.657,288.772,139.657z   M223.19,447.515c-13.437,0-26.87,4.722-41.091,9.721c-9.224,3.242-18.648,6.55-28.188,8.54l-0.009,1.188  c-0.037,4.65,0.786,9.104,2.309,13.219c10.611-2.149,20.772-5.715,30.716-9.211c13.016-4.575,25.311-8.896,36.263-8.896  c4.021,0,7.28-3.259,7.28-7.28C230.471,450.775,227.211,447.515,223.19,447.515z M357.923,449.639  c-7.948,1.845-16.005,4.669-24.335,7.597c-14.551,5.115-29.597,10.403-44.815,10.403c-4.021,0-7.28,3.26-7.28,7.28  c0,4.021,3.26,7.28,7.28,7.28c17.703,0,33.941-5.708,49.644-11.228c6.767-2.378,13.336-4.682,19.626-6.352L357.923,449.639z   M223.19,104.972c-13.437,0-26.87,4.722-41.091,9.721c-7.753,2.725-15.647,5.492-23.633,7.49  c-1.761,5.172-3.115,10.455-4.049,15.802c11.261-2.096,22.007-5.863,32.51-9.555c13.016-4.575,25.311-8.897,36.263-8.897  c4.021,0,7.28-3.26,7.28-7.28C230.471,108.232,227.211,104.972,223.19,104.972z"/>
<path style="fill:#E4E7E9;" d="M287.473,7.5h-62.984c-6.002,0-10.868,4.866-10.868,10.868V76.67h84.72V18.368  C298.341,12.366,293.476,7.5,287.473,7.5z"/>
<path style="fill:#6FA1DA;" d="M153.514,167.959c1.625,14.403,6.226,28.587,13.887,41.596l0,0  c7.596,12.899,11.602,27.596,11.602,42.565v51.222c0,8.251-2.187,16.355-6.339,23.486l0,0c-1.813,3.114-3.479,6.3-5.029,9.536  h176.693c-1.55-3.236-3.216-6.422-5.029-9.536l0,0c-4.152-7.131-6.339-15.235-6.339-23.486V252.12  c0-14.969,4.006-29.666,11.602-42.565l0,0c7.661-13.009,12.262-27.194,13.887-41.596L153.514,167.959L153.514,167.959z"/>
<path style="opacity:0.1;enable-background:new    ;" d="M339.299,326.829L339.299,326.829c-4.152-7.131-6.339-15.235-6.339-23.486  v-46.485c-7.001-0.393-14.056,1.702-20.478,6.327l0,0c-11.839,8.527-25.828,8.527-37.667,0l0,0c-11.839-8.527-25.828-8.527-37.667,0  l0,0c-11.839,8.527-25.828,8.527-37.667,0l0,0c-6.422-4.626-13.477-6.72-20.478-6.327v46.485c0,8.251-2.187,16.355-6.339,23.486l0,0  c-1.813,3.114-3.479,6.3-5.029,9.536h176.693C342.778,333.13,341.112,329.944,339.299,326.829z"/>
<path style="fill:#A3D6EB;" d="M291.669,268.369c0-14.704-19.861-48.623-29.95-64.905c-2.642-4.263-8.833-4.263-11.475,0  c-10.089,16.282-29.95,50.201-29.95,64.905c0,19.71,15.978,35.688,35.688,35.688C275.691,304.057,291.669,288.079,291.669,268.369z"/>
<g style="opacity:0.1;">
	<rect x="234.068" y="7.5" width="15" height="69.17"/>
	<rect x="262.898" y="7.5" width="15" height="69.17"/>
</g>
<path style="opacity:0.1;enable-background:new    ;" d="M339.299,326.829c-4.152-7.131-6.339-15.235-6.339-23.486v-51.222  c0-14.969,4.006-29.666,11.602-42.565c21.919-37.222,18.879-84.057-7.668-118.133l0,0c-7.252-9.309-18.393-14.752-30.193-14.752  h-31.675c11.8,0,22.941,5.443,30.193,14.752l0,0c26.547,34.076,29.588,80.911,7.668,118.133l0,0  c-7.596,12.899-11.602,27.596-11.602,42.565v51.222c0,8.251,2.187,16.355,6.339,23.486c11.706,20.107,17.969,42.917,18.172,66.182  l0.59,73.953c0.165,20.682-16.555,37.536-37.237,37.536h31.675c20.682,0,37.402-16.854,37.237-37.536l-0.59-73.953  C357.268,369.746,351.005,346.936,339.299,326.829z"/>
<g>
	<path style="fill:#4A5058;" d="M189.825,406.297c-4.142,0-7.5-3.358-7.5-7.5v-10.982c0-4.142,3.358-7.5,7.5-7.5s7.5,3.358,7.5,7.5   v10.982C197.325,402.94,193.967,406.297,189.825,406.297z"/>
	<path style="fill:#4A5058;" d="M322.138,406.297c-4.142,0-7.5-3.358-7.5-7.5v-10.982c0-4.142,3.358-7.5,7.5-7.5s7.5,3.358,7.5,7.5   v10.982C329.638,402.94,326.28,406.297,322.138,406.297z"/>
	<path style="fill:#4A5058;" d="M255.981,414.73c-8.852,0-17.27-3.833-23.096-10.518c-2.722-3.123-2.396-7.86,0.726-10.582   c3.122-2.722,7.86-2.397,10.581,0.726c2.977,3.415,7.273,5.374,11.788,5.374s8.811-1.958,11.788-5.374   c2.721-3.124,7.458-3.448,10.581-0.726c3.123,2.721,3.448,7.459,0.726,10.582C273.251,410.897,264.833,414.73,255.981,414.73z"/>
</g>
<path style="opacity:0.1;enable-background:new    ;" d="M287.474,7.5h-15.388c6.002,0,10.868,4.866,10.868,10.868v39.647h-69.332  V76.67h84.72V18.368C298.341,12.366,293.476,7.5,287.474,7.5z"/>
<path d="M255.981,414.73c8.852,0,17.27-3.833,23.096-10.518c2.722-3.123,2.397-7.86-0.726-10.582  c-3.123-2.722-7.86-2.398-10.581,0.726c-2.977,3.415-7.273,5.374-11.788,5.374c-4.515,0-8.812-1.958-11.788-5.374  c-2.722-3.123-7.46-3.448-10.581-0.726c-3.123,2.721-3.448,7.459-0.726,10.582C238.711,410.897,247.129,414.73,255.981,414.73z   M255.981,192.767c-4.967,0-9.495,2.522-12.113,6.747c-25.684,41.449-31.075,60.322-31.075,68.855  c0,23.814,19.374,43.188,43.188,43.188c23.813,0,43.187-19.374,43.187-43.188c0-8.534-5.391-27.407-31.075-68.855  C265.476,195.29,260.948,192.767,255.981,192.767z M284.169,268.369c0,15.543-12.645,28.188-28.187,28.188  c-15.543,0-28.188-12.645-28.188-28.188c0-8.797,10.782-31.702,28.188-59.922C273.387,236.667,284.169,259.572,284.169,268.369z   M329.638,398.797v-10.982c0-4.142-3.358-7.5-7.5-7.5s-7.5,3.358-7.5,7.5v10.982c0,4.142,3.358,7.5,7.5,7.5  S329.638,402.94,329.638,398.797z M345.78,323.056c-3.48-5.979-5.32-12.795-5.32-19.712v-51.223c0-9.506,1.747-18.818,5.191-27.679  c1.501-3.861-0.412-8.207-4.272-9.708c-3.86-1.501-8.207,0.413-9.708,4.272c-4.121,10.6-6.211,21.741-6.211,33.114v51.223  c0,8.902,2.206,17.682,6.391,25.522h-151.74c4.186-7.839,6.392-16.62,6.392-25.522V252.12c0-16.294-4.371-32.329-12.639-46.371  c-5.579-9.474-9.475-19.693-11.609-30.291h187.453c-0.806,3.979-1.865,7.933-3.179,11.841c-1.321,3.926,0.791,8.179,4.717,9.5  c3.925,1.323,8.18-0.79,9.5-4.717c12.101-35.968,5.397-75.322-17.935-105.27c-8.736-11.212-21.897-17.643-36.109-17.643h-0.859  V18.368C305.841,8.24,297.601,0,287.474,0H224.49c-10.128,0-18.368,8.24-18.368,18.368V69.17h-0.859  c-14.212,0-27.374,6.431-36.109,17.643c-13.954,17.911-22.106,39.353-23.577,62.01s3.841,44.974,15.362,64.538  c6.911,11.736,10.564,25.139,10.564,38.759v51.223c0,6.917-1.84,13.734-5.32,19.713c-12.341,21.196-18.977,45.364-19.19,69.889  l-0.178,20.295c-0.037,4.142,3.291,7.529,7.434,7.566c0.022,0,0.045,0,0.067,0c4.111,0,7.462-3.314,7.498-7.434l0.178-20.296  c0.148-16.958,3.745-33.718,10.465-49.211h167.05c6.72,15.493,10.317,32.253,10.464,49.206l0.591,73.953  c0.064,7.988-3,15.51-8.625,21.181c-5.626,5.671-13.124,8.794-21.112,8.794H191.139c-7.988,0-15.486-3.123-21.112-8.794  c-5.626-5.671-8.689-13.193-8.625-21.164l0.175-16.969c0.043-4.142-3.28-7.535-7.422-7.577c-0.027-0.001-0.053-0.001-0.079-0.001  c-4.106,0-7.456,3.307-7.498,7.422l-0.176,16.987c-0.096,12.017,4.512,23.333,12.976,31.865c8.464,8.532,19.744,13.23,31.761,13.23  h129.686c12.018,0,23.297-4.699,31.761-13.23c8.463-8.532,13.071-19.848,12.976-31.865l-0.591-73.958  C364.757,368.42,358.121,344.252,345.78,323.056z M221.121,18.368c0-1.857,1.511-3.368,3.368-3.368h62.984  c1.857,0,3.368,1.511,3.368,3.368V69.17h-69.72L221.121,18.368L221.121,18.368z M160.435,160.459  c-0.154-3.537-0.122-7.095,0.11-10.664c1.275-19.644,8.344-38.235,20.441-53.763c5.873-7.538,14.721-11.861,24.276-11.861H306.7  c9.555,0,18.403,4.323,24.276,11.861c14.523,18.641,21.614,41.485,20.578,64.427H160.435z M197.325,398.797v-10.982  c0-4.142-3.358-7.5-7.5-7.5s-7.5,3.358-7.5,7.5v10.982c0,4.142,3.358,7.5,7.5,7.5S197.325,402.94,197.325,398.797z"/>
<g>
</g>
<g>
</g>
<g>
</g>
<g>
</g>
<g>
</g>
<g>
</g>
<g>
</g>
<g>
</g>
<g>
</g>
<g>
</g>
<g>
</g>
<g>
</g>
<g>
</g>
<g>
</g>
<g>
</g>
</svg>
