<?xml version="1.0" encoding="iso-8859-1"?>
<!-- Generator: Adobe Illustrator 19.0.0, SVG Export Plug-In . SVG Version: 6.00 Build 0)  -->
<svg xmlns="http://www.w3.org/2000/svg" xmlns:xlink="http://www.w3.org/1999/xlink" version="1.1" id="Capa_1" x="0px" y="0px" viewBox="0 0 512 512" style="enable-background:new 0 0 512 512;" xml:space="preserve">
<path style="fill:#F7E6C5;" d="M370.55,84.804c-8.179-33.995-38.764-59.263-75.268-59.263s-67.089,25.268-75.268,59.263  c-43.623,10.846-75.956,50.259-75.956,97.237v10.162h302.45v-10.162C446.507,135.062,414.173,95.65,370.55,84.804z"/>
<path style="opacity:0.1;enable-background:new    ;" d="M370.55,84.804c-7.515-31.237-33.954-55.088-66.514-58.756  c20.571,9.404,37.675,28.323,44.45,58.027c1.53,6.708,6.532,12.082,13.171,13.888c21.318,5.799,36.017,17.822,44.111,36.278H156.189  c-7.73,14.207-12.134,30.486-12.134,47.8v10.162h302.452V182.04C446.507,135.062,414.173,95.65,370.55,84.804z"/>
<path style="fill:#E8757D;" d="M159.15,365.134H91.797c-40.553,0-74.708-29.052-81.216-69.079l-2.344-14.416  C5.568,265.214,10.219,248.526,21,235.851c10.781-12.675,26.508-19.944,43.147-19.944h95.002v38.495H64.148  c-7.299,0-11.795,4.004-13.825,6.39c-2.03,2.386-5.259,7.466-4.088,14.669l2.344,14.416c3.462,21.301,21.639,36.762,43.22,36.762  h67.352v38.496H159.15z"/>
<path style="opacity:0.1;enable-background:new    ;" d="M116.414,365.134h42.736v-38.495h-55.506  C107.298,339.641,111.559,352.486,116.414,365.134z M87.362,215.907c0.23,12.879,1.036,25.721,2.395,38.495h69.393v-38.495H87.362z"/>
<path style="fill:#E8757D;" d="M418.45,424.709H172.112l-21.895-55.298c-20.337-51.363-30.781-106.107-30.781-161.35v-27.597  c0-12.056,9.773-21.829,21.829-21.829h308.032c12.056,0,21.829,9.773,21.829,21.829v27.597c0,55.243-10.444,109.987-30.781,161.35  L418.45,424.709z"/>
<g style="opacity:0.4;">
	<ellipse style="fill:#F9B0B6;" cx="381.977" cy="322.159" rx="38.648" ry="23.16"/>
	<ellipse style="fill:#F9B0B6;" cx="208.588" cy="322.159" rx="38.648" ry="23.16"/>
</g>
<path style="opacity:0.1;enable-background:new    ;" d="M449.297,158.636h-48.334c12.056,0,21.829,9.773,21.829,21.829v27.597  c0,55.243-10.444,109.987-30.781,161.35l-21.895,55.298h48.334l21.895-55.298c20.337-51.363,30.781-106.107,30.781-161.35v-27.597  C471.125,168.409,461.352,158.636,449.297,158.636z"/>
<path style="fill:#A3D6EB;" d="M451.878,486.462H138.684c-11.346,0-22.089-5.108-29.252-13.907l-20.165-24.773  c-7.522-9.241-0.946-23.073,10.969-23.073h390.089c11.916,0,18.492,13.832,10.97,23.073l-20.165,24.773  C473.967,481.354,463.224,486.462,451.878,486.462z"/>
<path style="opacity:0.1;enable-background:new    ;" d="M490.325,424.709h-48.117c11.916,0,18.492,13.832,10.97,23.073  l-20.165,24.773c-7.163,8.799-17.906,13.907-29.252,13.907h48.117c11.346,0,22.09-5.108,29.252-13.907l20.164-24.773  C508.817,438.541,502.241,424.709,490.325,424.709z"/>
<path d="M509.873,429.56c-3.622-7.618-11.112-12.351-19.548-12.351h-60.84l17.831-45.037c1.177-2.971,2.338-5.997,3.451-8.995  c1.441-3.883-0.537-8.2-4.421-9.642c-3.885-1.441-8.2,0.537-9.642,4.421c-1.075,2.897-2.197,5.822-3.335,8.693l-20.018,50.559  H177.21l-20.019-50.559c-5.406-13.653-10.087-27.501-14.053-41.51c-0.069-0.341-0.169-0.671-0.283-0.994  c-6.445-22.983-10.949-46.403-13.481-70.134c-0.014-0.267-0.041-0.531-0.082-0.79c-1.295-12.359-2.053-24.801-2.277-37.31  c0-0.002,0-0.004,0-0.005c0-0.004-0.001-0.008-0.001-0.011c-0.047-2.609-0.078-5.22-0.078-7.834v-27.597  c0-7.901,6.428-14.329,14.329-14.329h5.534c0.011,0,0.022,0.002,0.033,0.002c0.008,0,0.015-0.002,0.023-0.002h296.852  c0.008,0,0.015,0.002,0.023,0.002c0.011,0,0.022-0.002,0.033-0.002h5.534c7.901,0,14.329,6.428,14.329,14.329v27.597  c0,40.19-5.619,80.156-16.702,118.789c-1.143,3.982,1.159,8.135,5.141,9.277c3.978,1.14,8.136-1.159,9.277-5.141  c11.469-39.978,17.284-81.336,17.284-122.926v-27.597c0-16.115-13.066-29.233-29.159-29.325  c-5.05-16.877-14.198-32.314-26.703-44.927c-12.852-12.962-28.712-22.418-46.092-27.52C366.018,42.76,333.169,18.04,295.281,18.04  s-70.736,24.721-81.392,60.654c-6.01,1.765-11.873,4.06-17.481,6.848c-3.71,1.843-5.223,6.345-3.38,10.054  c1.843,3.709,6.348,5.221,10.054,3.379c5.972-2.967,12.276-5.287,18.741-6.894c2.714-0.675,4.827-2.804,5.482-5.524  c7.582-31.51,35.535-53.517,67.976-53.517s60.396,22.007,67.976,53.517c0.654,2.72,2.768,4.849,5.482,5.524  c30.534,7.592,54.708,29.814,64.979,59.054H156.864c4.361-12.319,11.319-23.655,20.439-33.184c2.864-2.993,2.76-7.74-0.232-10.604  c-2.993-2.864-7.741-2.76-10.604,0.232c-11.815,12.345-20.505,27.309-25.372,43.56c-16.093,0.093-29.158,13.21-29.158,29.325v27.597  c0,0.115,0.002,0.23,0.002,0.346H64.148c-18.843,0-36.651,8.232-48.86,22.585C3.08,245.343-2.188,264.241,0.835,282.842  l2.344,14.415c3.13,19.25,12.106,36.55,25.956,50.03c1.458,1.419,3.346,2.126,5.23,2.126c1.954,0,3.905-0.759,5.376-2.269  c2.889-2.968,2.824-7.716-0.143-10.605c-11.529-11.221-19.004-25.637-21.614-41.689l-2.343-14.415  c-2.316-14.251,1.72-28.73,11.072-39.725c9.354-10.997,22.998-17.304,37.435-17.304H112.2c0.267,7.86,0.745,15.692,1.422,23.495  H64.148c-10.315,0-16.669,5.658-19.539,9.032c-2.868,3.373-7.432,10.551-5.776,20.732l2.343,14.415  c4.056,24.95,25.346,43.059,50.623,43.059h38.328c2.33,7.884,4.877,15.719,7.65,23.495H91.797c-8.856,0-17.512-1.513-25.727-4.496  c-3.893-1.414-8.195,0.597-9.609,4.49c-1.413,3.893,0.597,8.195,4.49,9.609c9.86,3.581,20.239,5.396,30.846,5.396h51.629  l17.65,44.576h-60.839c-8.436,0-15.926,4.733-19.548,12.351s-2.563,16.415,2.762,22.957l20.165,24.772  c8.624,10.596,21.406,16.672,35.068,16.672h313.195c13.662,0,26.444-6.077,35.068-16.672l20.165-24.773  C512.437,445.975,513.495,437.178,509.873,429.56z M91.797,319.139c-17.885,0-32.948-12.813-35.817-30.465l-2.343-14.416  c-0.653-4.015,0.944-6.897,2.397-8.607c1.455-1.71,4.044-3.75,8.112-3.75h51.033c2.339,19.307,5.943,38.408,10.797,57.237  L91.797,319.139L91.797,319.139z M495.479,443.047l-20.165,24.773c-5.764,7.08-14.306,11.141-23.436,11.141H138.684  c-9.13,0-17.672-4.061-23.436-11.142l-20.165-24.773c-2.459-3.021-1.271-6.157-0.848-7.047c0.423-0.889,2.106-3.792,6.001-3.792  h71.851c0.009,0,0.017,0.002,0.026,0.002c0.014,0,0.028-0.002,0.042-0.002h246.25c0.014,0,0.028,0.002,0.042,0.002  c0.009,0,0.017-0.002,0.026-0.002h71.851c3.896,0,5.578,2.902,6.001,3.792C496.749,436.89,497.938,440.026,495.479,443.047z   M378.663,268.629v15.086c0,4.142,3.357,7.5,7.5,7.5s7.5-3.358,7.5-7.5v-15.086c0-4.142-3.357-7.5-7.5-7.5  C382.021,261.129,378.663,264.487,378.663,268.629z M196.899,268.629v15.086c0,4.142,3.357,7.5,7.5,7.5s7.5-3.358,7.5-7.5v-15.086  c0-4.142-3.357-7.5-7.5-7.5S196.899,264.487,196.899,268.629z M313.588,279.457c-4.621,5.302-11.293,8.343-18.307,8.343  s-13.685-3.041-18.307-8.343c-2.723-3.123-7.46-3.447-10.582-0.727c-3.122,2.722-3.448,7.46-0.727,10.582  c7.471,8.572,18.265,13.488,29.615,13.488c11.351,0,22.145-4.916,29.615-13.488c2.722-3.122,2.396-7.86-0.727-10.582  C321.048,276.009,316.311,276.334,313.588,279.457z"/>
<g>
</g>
<g>
</g>
<g>
</g>
<g>
</g>
<g>
</g>
<g>
</g>
<g>
</g>
<g>
</g>
<g>
</g>
<g>
</g>
<g>
</g>
<g>
</g>
<g>
</g>
<g>
</g>
<g>
</g>
</svg>
