<?xml version="1.0" encoding="iso-8859-1"?>
<!-- Generator: Adobe Illustrator 19.0.0, SVG Export Plug-In . SVG Version: 6.00 Build 0)  -->
<svg xmlns="http://www.w3.org/2000/svg" xmlns:xlink="http://www.w3.org/1999/xlink" version="1.1" id="Capa_1" x="0px" y="0px" viewBox="0 0 511.999 511.999" style="enable-background:new 0 0 511.999 511.999;" xml:space="preserve">
<path style="fill:#E4E7E9;" d="M245.552,74.012h-56.656V33.058c0-14.115,11.443-25.558,25.558-25.558h5.539  c14.115,0,25.558,11.443,25.558,25.558v40.954H245.552z"/>
<path style="fill:#6FA1DA;" d="M366.029,125.219l-14.496-20.586H160.467l-14.496,20.586c-6.663,9.463-10.24,20.753-10.24,32.326  v263.421c0,11.573,3.576,22.864,10.24,32.326l14.496,20.586h191.065l14.496-20.586c6.663-9.462,10.24-20.753,10.24-32.326v-263.42  C376.268,145.973,372.692,134.682,366.029,125.219z"/>
<g>
	<ellipse style="opacity:0.3;fill:#F9B0B6;enable-background:new    ;" cx="330.59" cy="243.34" rx="32.877" ry="19.702"/>
	<ellipse style="opacity:0.3;fill:#F9B0B6;enable-background:new    ;" cx="183.09" cy="243.34" rx="32.877" ry="19.702"/>
</g>
<path style="fill:#FDB876;" d="M327.835,352.805c0,0.362,0.002,0.723,0.004,1.084c0.15,18.23-15.287,32.477-33.474,31.218  c-2.572-0.178-5.168-0.269-7.785-0.269c-53.813,0-98.681,38.248-108.932,89.04h173.884l14.496-20.586  c6.663-9.462,10.24-20.753,10.24-32.326V251.799C346.743,275.551,327.835,311.963,327.835,352.805z"/>
<path style="opacity:0.1;enable-background:new    ;" d="M366.029,125.219l-14.496-20.586H160.467l-14.496,20.586  c-0.518,0.736-1.011,1.486-1.491,2.244h180.196c5.7,8.98,8.748,19.409,8.748,30.083v263.421c0,11.573-3.576,22.864-10.24,32.326  l-14.496,20.586h42.844l14.496-20.586c6.663-9.462,10.24-20.753,10.24-32.326V157.546  C376.268,145.973,372.692,134.682,366.029,125.219z"/>
<path style="fill:#E4E7E9;" d="M360.957,74.012H151.043c-8.456,0-15.311,6.855-15.311,15.311l0,0  c0,8.456,6.855,15.311,15.311,15.311h209.915c8.456,0,15.311-6.855,15.311-15.311l0,0C376.268,80.867,369.413,74.012,360.957,74.012  z"/>
<path style="opacity:0.1;enable-background:new    ;" d="M360.957,74.012h-31.591c8.456,0,15.311,6.855,15.311,15.311  s-6.855,15.311-15.311,15.311h31.591c8.456,0,15.311-6.855,15.311-15.311S369.413,74.012,360.957,74.012z"/>
<path style="fill:#E4E7E9;" d="M360.957,473.878H151.043c-8.456,0-15.311,6.855-15.311,15.311l0,0  c0,8.456,6.855,15.311,15.311,15.311h209.915c8.456,0,15.311-6.855,15.311-15.311l0,0  C376.268,480.733,369.413,473.878,360.957,473.878z"/>
<rect x="188.9" y="57.57" style="opacity:0.1;enable-background:new    ;" width="56.656" height="16.444"/>
<path style="opacity:0.1;enable-background:new    ;" d="M360.957,473.878h-31.591c8.456,0,15.311,6.855,15.311,15.311  s-6.855,15.311-15.311,15.311h31.591c8.456,0,15.311-6.855,15.311-15.311S369.413,473.878,360.957,473.878z"/>
<path style="fill:#4A5058;" d="M279.842,216.257c0,12.983-10.755,23.454-23.842,22.988c-12.465-0.443-22.165-11.067-22.165-23.54  v-16.18c0-3.464,2.808-6.272,6.272-6.272h33.463c3.464,0,6.272,2.808,6.272,6.272V216.257z"/>
<g>
	<circle style="fill:#FFFFFF;" cx="201.28" cy="322.16" r="16.437"/>
	<circle style="fill:#FFFFFF;" cx="296.28" cy="298.32" r="16.437"/>
	<circle style="fill:#FFFFFF;" cx="265.85" cy="384.75" r="21.911"/>
</g>
<path d="M328.403,192.201v13.628c0,4.142,3.357,7.5,7.5,7.5s7.5-3.358,7.5-7.5v-13.628c0-4.142-3.357-7.5-7.5-7.5  C331.761,184.701,328.403,188.059,328.403,192.201z M135.731,371.844c4.143,0,7.5-3.358,7.5-7.5V157.546  c0-10.08,3.068-19.765,8.872-28.008l12.256-17.404h183.282l12.256,17.404c3.235,4.594,5.633,9.671,7.125,15.088  c0.916,3.327,3.935,5.51,7.226,5.51c0.659,0,1.329-0.088,1.996-0.271c3.993-1.1,6.339-5.229,5.238-9.223  c-1.952-7.087-5.089-13.73-9.322-19.741l-6.516-9.254c10.337-2.167,18.125-11.353,18.125-22.324  c0-12.578-10.233-22.811-22.812-22.811H253.053V33.058C253.053,14.83,238.223,0,219.994,0h-5.539  c-18.229,0-33.059,14.83-33.059,33.058v33.454h-30.354c-12.578,0-22.812,10.233-22.812,22.811c0,10.972,7.788,20.157,18.125,22.324  l-6.516,9.254c-7.595,10.784-11.608,23.456-11.608,36.644v206.798C128.231,368.486,131.589,371.844,135.731,371.844z   M196.396,33.058c0-9.957,8.101-18.058,18.059-18.058h5.539c9.958,0,18.059,8.101,18.059,18.058v33.454h-41.656V33.058H196.396z   M143.231,89.323c0-4.307,3.504-7.811,7.812-7.811h209.914c4.308,0,7.812,3.504,7.812,7.811s-3.504,7.811-7.812,7.811H151.043  C146.735,97.134,143.231,93.63,143.231,89.323z M221.293,28.958h-8.137c-4.143,0-7.5,3.358-7.5,7.5s3.357,7.5,7.5,7.5h8.137  c4.143,0,7.5-3.358,7.5-7.5S225.436,28.958,221.293,28.958z M183.597,192.201c0-4.142-3.357-7.5-7.5-7.5s-7.5,3.358-7.5,7.5v13.628  c0,4.142,3.357,7.5,7.5,7.5s7.5-3.358,7.5-7.5V192.201z M296.279,322.261c13.199,0,23.938-10.738,23.938-23.937  s-10.738-23.938-23.938-23.938c-13.198,0-23.936,10.738-23.936,23.938C272.343,311.523,283.081,322.261,296.279,322.261z   M296.279,289.387c4.928,0,8.938,4.009,8.938,8.938c0,4.928-4.01,8.937-8.938,8.937s-8.936-4.009-8.936-8.937  C287.343,293.396,291.352,289.387,296.279,289.387z M376.269,170.082c-4.143,0-7.5,3.358-7.5,7.5v70.722  c-21.879,18.593-37.62,43.873-44.457,71.608c-0.991,4.021,1.466,8.085,5.487,9.077c0.603,0.148,1.206,0.22,1.801,0.22  c3.37,0,6.434-2.288,7.276-5.707c5.022-20.374,15.453-39.261,29.893-54.554v152.018c0,10.08-3.068,19.765-8.872,28.008  l-12.256,17.404H187.238c8.353-28.217,28.253-51.465,55.006-64.104c5.366,7.208,13.948,11.885,23.604,11.885  c13.498,0,24.894-9.143,28.338-21.559c0.787,0.048,1.572,0.081,2.356,0.081c9.898,0,19.511-3.766,26.714-10.542  c7.881-7.415,12.173-17.47,12.084-28.312l-0.005-1.023c0-4.142-3.357-7.5-7.5-7.5s-7.5,3.358-7.5,7.5l0.005,1.146  c0.055,6.615-2.561,12.746-7.362,17.265c-4.892,4.602-11.314,6.876-18.094,6.41c-0.168-0.012-0.34-0.02-0.509-0.031  c-3.204-12.77-14.777-22.256-28.527-22.256c-16.218,0-29.411,13.194-29.411,29.411c0,1.215,0.083,2.41,0.227,3.587  c-32.387,14.999-56.136,43.519-64.976,78.041h-7.328l-12.256-17.404c-5.804-8.243-8.872-17.928-8.872-28.008v-22.252  c0-4.142-3.357-7.5-7.5-7.5s-7.5,3.358-7.5,7.5v22.252c0,13.188,4.014,25.86,11.608,36.645l6.516,9.254  c-10.337,2.168-18.125,11.353-18.125,22.324c0,12.578,10.233,22.811,22.812,22.811h209.914c12.578,0,22.812-10.233,22.812-22.811  c0-10.972-7.788-20.157-18.125-22.324l6.517-9.254c7.595-10.784,11.608-23.456,11.608-36.644V177.582  C383.769,173.44,380.411,170.082,376.269,170.082z M265.848,370.338c7.943,0,14.406,6.46,14.411,14.402  c0,0.014-0.002,0.027-0.002,0.041c0,0.005,0.001,0.01,0,0.015c-0.025,7.925-6.478,14.364-14.409,14.364  c-7.946,0-14.411-6.464-14.411-14.411C251.436,376.803,257.901,370.338,265.848,370.338z M368.769,489.189  c0,4.307-3.504,7.811-7.812,7.811H151.043c-4.308,0-7.812-3.504-7.812-7.811s3.504-7.811,7.812-7.811h9.423  c0.003,0,0.006,0.001,0.008,0.001c0.002,0,0.004-0.001,0.007-0.001h17.146c0.01,0,0.02,0.002,0.029,0.002  c0.011,0,0.022-0.002,0.033-0.002h173.829c0.002,0,0.004,0.001,0.007,0.001s0.005-0.001,0.008-0.001h9.423  C365.265,481.378,368.769,484.882,368.769,489.189z M201.277,346.095c13.199,0,23.938-10.738,23.938-23.937  s-10.738-23.938-23.938-23.938c-13.199,0-23.938,10.738-23.938,23.938C177.34,335.357,188.078,346.095,201.277,346.095z   M201.277,313.221c4.928,0,8.938,4.009,8.938,8.938c0,4.928-4.01,8.937-8.938,8.937c-4.928,0-8.938-4.009-8.938-8.937  C192.34,317.23,196.35,313.221,201.277,313.221z M287.343,216.256l-0.001-16.729c0.001-3.679-1.432-7.139-4.033-9.741  c-2.601-2.601-6.06-4.034-9.738-4.034h-33.463c-7.594,0-13.772,6.178-13.772,13.772v16.18c0,16.537,13.188,30.459,29.398,31.035  c0.375,0.014,0.749,0.02,1.122,0.02c7.945,0,15.423-3.013,21.163-8.552C284.03,232.407,287.342,224.611,287.343,216.256  C287.343,216.257,287.343,216.257,287.343,216.256z M267.603,227.415c-3.054,2.947-7.109,4.483-11.336,4.336  c-8.233-0.293-14.932-7.491-14.932-16.045v-14.952h31.007l0.001,15.503C272.343,220.502,270.659,224.465,267.603,227.415z"/>
<g>
</g>
<g>
</g>
<g>
</g>
<g>
</g>
<g>
</g>
<g>
</g>
<g>
</g>
<g>
</g>
<g>
</g>
<g>
</g>
<g>
</g>
<g>
</g>
<g>
</g>
<g>
</g>
<g>
</g>
</svg>
