<?xml version="1.0" encoding="iso-8859-1"?>
<!-- Generator: Adobe Illustrator 19.0.0, SVG Export Plug-In . SVG Version: 6.00 Build 0)  -->
<svg xmlns="http://www.w3.org/2000/svg" xmlns:xlink="http://www.w3.org/1999/xlink" version="1.1" id="Capa_1" x="0px" y="0px" viewBox="0 0 511.999 511.999" style="enable-background:new 0 0 511.999 511.999;" xml:space="preserve">
<circle style="fill:#E8757D;" cx="246.819" cy="35.571" r="28.07"/>
<path style="fill:#F7E6C5;" d="M298.714,94.2h-92.326l0,0c0-22.754,16.707-42.057,39.226-45.32l9.137-1.324  c12.281-1.779,22.849-9.601,28.141-20.825l0,0c2.39-5.07,9.454-5.456,12.384-0.678l0,0c11.054,18.034,13.374,40.095,6.313,60.033  L298.714,94.2z"/>
<path style="opacity:0.05;enable-background:new    ;" d="M295.275,26.053c-2.806-4.578-9.398-4.403-12.048,0.078  c9.193,17.291,10.769,37.715,4.188,56.298l-2.874,8.114h-77.999c-0.096,1.209-0.154,2.427-0.154,3.658h92.326l2.874-8.113  C308.65,66.148,306.33,44.087,295.275,26.053z"/>
<path style="fill:#F7E6C5;" d="M336.517,128.542H175.481l2.42-11.415c4.219-19.902,20.158-35.213,40.212-38.63l0,0  c25.076-4.273,50.695-4.273,75.771,0l0,0c20.055,3.417,35.993,18.728,40.212,38.63L336.517,128.542z"/>
<path style="opacity:0.05;enable-background:new    ;" d="M334.097,117.127c-4.219-19.902-20.157-35.213-40.212-38.63l0,0  c-4.224-0.72-8.465-1.308-12.714-1.785c14.691,6.237,25.745,19.312,29.152,35.386l2.42,11.415H176.547l-1.066,5.029h161.037  L334.097,117.127z"/>
<path style="fill:#F7E6C5;" d="M357.704,168.971h-203.41v-16.204c0-21.899,16.069-40.482,37.739-43.642l0,0  c42.42-6.187,85.513-6.187,127.933,0l0,0c21.67,3.161,37.739,21.743,37.739,43.642v16.204H357.704z"/>
<path style="opacity:0.05;enable-background:new    ;" d="M319.966,109.124L319.966,109.124c-1.8-0.263-3.602-0.498-5.404-0.738  c11.516,8.025,18.912,21.344,18.912,36.196v16.204h-179.18v8.185h203.41v-16.204C357.704,130.867,341.636,112.285,319.966,109.124z"/>
<path id="SVGCleanerId_0" style="fill:#A3D6EB;" d="M159.198,139.988c-7.133,0-12.916,5.783-12.916,12.916v12.947  c0,65.63,13.119,130.598,38.586,191.085l0,0c7.038,16.715,19.01,30.884,34.317,40.612l0,0c6.161,3.916,9.894,10.71,9.894,18.01  v51.805h53.839v-51.805c0-7.301,3.732-14.095,9.894-18.01l0,0c15.307-9.728,27.279-23.897,34.317-40.612l0,0  c25.467-60.487,38.586-125.455,38.586-191.085v-12.947c0-7.133-5.783-12.916-12.916-12.916L159.198,139.988L159.198,139.988z"/>
<g>
	<path id="SVGCleanerId_0_1_" style="fill:#A3D6EB;" d="M159.198,139.988c-7.133,0-12.916,5.783-12.916,12.916v12.947   c0,65.63,13.119,130.598,38.586,191.085l0,0c7.038,16.715,19.01,30.884,34.317,40.612l0,0c6.161,3.916,9.894,10.71,9.894,18.01   v51.805h53.839v-51.805c0-7.301,3.732-14.095,9.894-18.01l0,0c15.307-9.728,27.279-23.897,34.317-40.612l0,0   c25.467-60.487,38.586-125.455,38.586-191.085v-12.947c0-7.133-5.783-12.916-12.916-12.916L159.198,139.988L159.198,139.988z"/>
</g>
<path style="fill:#A3D6EB;" d="M311.398,504.5H200.6c-10.255,0-18.568-8.313-18.568-18.568l0,0c0-10.255,8.313-18.568,18.568-18.568  h110.798c10.255,0,18.568,8.313,18.568,18.568l0,0C329.966,496.187,321.653,504.5,311.398,504.5z"/>
<path style="opacity:0.1;enable-background:new    ;" d="M311.398,467.363h-26.92c10.255,0,18.568,8.313,18.568,18.568  s-8.313,18.568-18.568,18.568h26.92c10.255,0,18.568-8.313,18.568-18.568S321.653,467.363,311.398,467.363z"/>
<path style="opacity:0.05;enable-background:new    ;" d="M255.999,205.201L255.999,205.201c-13.821,0-25.025,11.204-25.025,25.025  v72.102c0,13.821,11.204,25.025,25.025,25.025l0,0c13.821,0,25.025-11.204,25.025-25.025v-72.102  C281.024,216.404,269.82,205.201,255.999,205.201z"/>
<path style="opacity:0.05;enable-background:new    ;" d="M350.572,205.2c-13.821,0-25.025,11.204-25.025,25.025v72.102  c0,9.796,5.632,18.272,13.831,22.381c12.767-37.459,20.976-76.309,24.441-115.711C359.978,206.594,355.439,205.2,350.572,205.2z"/>
<path style="opacity:0.05;enable-background:new    ;" d="M161.426,205.2L161.426,205.2c-4.867,0-9.405,1.394-13.248,3.797  c3.466,39.402,11.675,78.252,24.441,115.711c8.2-4.109,13.831-12.585,13.831-22.381v-72.102  C186.451,216.405,175.247,205.2,161.426,205.2z"/>
<path style="opacity:0.3;fill:#FFFFFF;enable-background:new    ;" d="M352.8,139.988H159.198c-7.133,0-12.916,5.783-12.916,12.916  v12.947c0,2.559,0.027,5.117,0.067,7.674h219.3c0.04-2.557,0.067-5.114,0.067-7.674v-12.947  C365.716,145.77,359.933,139.988,352.8,139.988z"/>
<path style="opacity:0.1;enable-background:new    ;" d="M352.8,139.988h-29.198c7.133,0,12.916,5.783,12.916,12.916v12.947  c0,65.63-13.119,130.598-38.586,191.085l0,0c-7.038,16.715-19.01,30.884-34.317,40.612l0,0c-6.161,3.916-9.894,10.71-9.894,18.01  v31.123h-24.642v20.682h53.839v-51.805c0-7.3,3.732-14.094,9.894-18.01l0,0c15.307-9.728,27.279-23.897,34.317-40.612l0,0  c25.467-60.487,38.586-125.455,38.586-191.085v-12.947C365.716,145.77,359.933,139.988,352.8,139.988z"/>
<path style="fill:#FDB876;" d="M214.204,129.135c-1.92,0-3.839-0.732-5.303-2.197c-2.929-2.929-2.929-7.678,0-10.607l9.082-9.082  c2.929-2.929,7.678-2.929,10.606,0c2.929,2.929,2.929,7.678,0,10.607l-9.082,9.082C218.043,128.402,216.123,129.135,214.204,129.135  z"/>
<path style="fill:#FFFFFF;" d="M246.255,95.079c-0.433,0-0.87-0.038-1.311-0.115c-4.079-0.719-6.803-4.609-6.084-8.688l2.23-12.648  c0.719-4.079,4.61-6.803,8.689-6.084c4.079,0.719,6.803,4.609,6.084,8.688l-2.23,12.648  C252.991,92.518,249.826,95.079,246.255,95.079z"/>
<path style="fill:#F9B0B6;" d="M287.397,120.426c-1.919,0-3.839-0.732-5.303-2.197l-9.081-9.082c-2.929-2.929-2.929-7.678,0-10.606  c2.929-2.929,7.678-2.929,10.606,0l9.082,9.082c2.929,2.929,2.929,7.678,0,10.606C291.236,119.694,289.316,120.426,287.397,120.426z  "/>
<path d="M359.056,246.911c-4.075-0.74-7.981,1.956-8.725,6.031c-6.322,34.629-16.454,68.638-30.113,101.083  c-6.477,15.381-17.344,28.242-31.428,37.193c-8.373,5.32-13.371,14.42-13.371,24.34v44.305h-38.84v-44.305  c0-9.92-4.999-19.02-13.371-24.34c-6.207-3.945-11.853-8.712-16.782-14.169c-2.777-3.074-7.52-3.315-10.593-0.539  c-3.074,2.776-3.315,7.519-0.539,10.593c5.836,6.461,12.52,12.105,19.869,16.775c4.017,2.553,6.416,6.919,6.416,11.68v44.305H200.6  c-14.374,0-26.068,11.694-26.068,26.068s11.694,26.068,26.068,26.068h110.798c14.374,0,26.068-11.694,26.068-26.068  s-11.694-26.068-26.068-26.068h-20.979v-44.305c0-4.761,2.398-9.127,6.417-11.68c16.674-10.597,29.54-25.823,37.207-44.033  c14.083-33.449,24.527-68.51,31.044-104.21C365.831,251.561,363.131,247.654,359.056,246.911z M311.398,474.863  c6.103,0,11.068,4.965,11.068,11.068s-4.965,11.068-11.068,11.068H200.6c-6.103,0-11.068-4.965-11.068-11.068  s4.965-11.068,11.068-11.068H311.398z M361.913,134.661c-4.212-11.22-12.238-20.691-22.644-26.664  c-4.884-13.473-14.792-24.718-27.461-31.304c3.422-18.711-0.154-38.273-10.138-54.559c-2.797-4.563-7.858-7.22-13.198-6.923  c-3.794,0.208-7.277,1.88-9.797,4.562C272.845,8.066,260.758,0,246.816,0c-14.414,0-26.844,8.623-32.426,20.976  c-8.531,0.691-16.701,3.101-23.434,6.977c-3.59,2.066-4.825,6.652-2.758,10.242c1.388,2.411,3.911,3.76,6.507,3.76  c1.269,0,2.556-0.323,3.735-1.002c3.722-2.142,8.118-3.658,12.828-4.479c0.16,6.485,2.035,12.657,5.422,18.017  c-6.39,5.71-11.421,12.949-14.481,21.202c-13.801,6.443-24.324,17.968-29.484,32.306c-10.404,5.973-18.428,15.443-22.638,26.661  c-6.69,3.356-11.303,10.263-11.303,18.243v12.947c0,66.988,13.18,132.257,39.173,193.995c1.207,2.868,3.988,4.592,6.916,4.592  c0.97,0,1.956-0.189,2.907-0.59c3.818-1.607,5.609-6.005,4.002-9.822c-23.247-55.214-35.918-113.342-37.755-173.001h41.934  c4.142,0,7.5-3.358,7.5-7.5s-3.358-7.5-7.5-7.5h-42.175c0-0.058-0.001-0.115-0.001-0.173v-12.947c0-2.434,1.615-4.498,3.829-5.178  c0.099-0.021,0.196-0.051,0.295-0.076c0.415-0.102,0.846-0.162,1.292-0.162h193.602c2.986,0,5.415,2.43,5.415,5.416v12.947  c0,0.058-0.001,0.116-0.001,0.173h-132.59c-4.142,0-7.5,3.358-7.5,7.5s3.358,7.5,7.5,7.5h132.347  c-0.464,14.733-1.596,29.497-3.39,44.065c-0.506,4.111,2.417,7.854,6.527,8.36c4.115,0.501,7.854-2.417,8.36-6.527  c2.484-20.182,3.744-40.73,3.744-61.072v-12.947C373.215,144.923,368.602,138.017,361.913,134.661z M246.816,15  c10.946,0,19.897,8.6,20.512,19.395c-3.925,2.996-8.596,5.006-13.652,5.738l-9.137,1.324c-5.404,0.783-10.567,2.385-15.349,4.681  c-1.906-3.16-2.945-6.774-2.945-10.568C226.245,24.228,235.473,15,246.816,15z M167.935,132.487  c3.546-5.318,8.455-9.687,14.286-12.56c1.871-0.922,3.274-2.581,3.871-4.58c3.669-12.28,12.983-22.417,24.917-27.117  c2.151-0.848,3.792-2.64,4.446-4.858c4.215-14.306,16.476-24.931,31.235-27.07l9.137-1.324  c14.535-2.106,26.992-11.163,33.484-24.293c8.61,14.481,11.017,32.06,6.595,48.37c-1.01,3.725,0.972,7.608,4.581,8.976  c12.186,4.619,21.689,14.831,25.42,27.317c0.597,1.999,2,3.659,3.872,4.58c5.83,2.873,10.74,7.242,14.285,12.56L167.935,132.487  L167.935,132.487z"/>
<g>
</g>
<g>
</g>
<g>
</g>
<g>
</g>
<g>
</g>
<g>
</g>
<g>
</g>
<g>
</g>
<g>
</g>
<g>
</g>
<g>
</g>
<g>
</g>
<g>
</g>
<g>
</g>
<g>
</g>
</svg>
