<?xml version="1.0" encoding="iso-8859-1"?>
<!-- Generator: Adobe Illustrator 19.0.0, SVG Export Plug-In . SVG Version: 6.00 Build 0)  -->
<svg xmlns="http://www.w3.org/2000/svg" xmlns:xlink="http://www.w3.org/1999/xlink" version="1.1" id="Capa_1" x="0px" y="0px" viewBox="0 0 512 512" style="enable-background:new 0 0 512 512;" xml:space="preserve">
<path style="fill:#7CD1A9;" d="M431.252,222.298c30.722,30.722,37.542,77.681,38.62,106.147  c0.531,14.016-10.93,25.477-24.947,24.947c-28.466-1.078-75.425-7.898-106.147-38.62s-37.542-77.681-38.62-106.147  c-0.531-14.016,10.93-25.477,24.947-24.947C353.571,184.756,400.53,191.577,431.252,222.298z"/>
<path style="opacity:0.1;enable-background:new    ;" d="M410.92,308.375c-1.919,0-3.839-0.732-5.304-2.197l-58.244-58.244  c-2.929-2.929-2.929-7.678,0-10.606c2.93-2.929,7.678-2.929,10.607,0l58.244,58.244c2.929,2.929,2.929,7.678,0,10.606  C414.759,307.642,412.839,308.375,410.92,308.375z"/>
<path style="opacity:0.1;enable-background:new    ;" d="M428.035,225.516c-30.722-30.722-77.681-37.542-106.147-38.62  c-14.016-0.531-25.477,10.93-24.947,24.947c1.078,28.466,7.898,75.425,38.62,106.147c12.579,12.579,27.882,21.147,43.521,26.959  l9.343-57.896c24.075-1.282,46.305-9.506,64.732-22.702C447.42,250.36,439.353,236.835,428.035,225.516z"/>
<circle style="fill:#FDB876;" cx="381.8" cy="134.8" r="122.7"/>
<g>
	<circle style="opacity:0.3;fill:#FFFFFF;enable-background:new    ;" cx="381.8" cy="134.8" r="88.28"/>
	<path style="fill:#FFFFFF;" d="M381.798,113.207c-4.143,0-7.5-3.358-7.5-7.5v-21.54c0-4.142,3.357-7.5,7.5-7.5   c4.142,0,7.5,3.358,7.5,7.5v21.54C389.298,109.85,385.94,113.207,381.798,113.207z"/>
	<path style="fill:#FFFFFF;" d="M409.985,114.113c-1.919,0-3.839-0.732-5.304-2.197c-2.929-2.929-2.929-7.678,0-10.606l7.615-7.615   c2.93-2.929,7.678-2.929,10.607,0s2.929,7.678,0,10.606l-7.615,7.615C413.824,113.38,411.904,114.113,409.985,114.113z"/>
</g>
<path style="opacity:0.1;enable-background:new    ;" d="M383.026,134.8h-123.93c0,67.766,54.936,122.702,122.702,122.702  c2.491,0,4.963-0.083,7.417-0.23l15.629-96.851C407.013,146.985,396.637,134.8,383.026,134.8z"/>
<path style="fill:#A3D6EB;" d="M302.128,499.901h-178.89c-11.961,0-22.154-8.68-24.06-20.488L47.701,160.422  C45.533,146.985,55.909,134.8,69.52,134.8h286.326c13.611,0,23.986,12.184,21.818,25.621l-51.477,318.991  C324.281,491.221,314.088,499.901,302.128,499.901z"/>
<path style="opacity:0.3;fill:#FFFFFF;enable-background:new    ;" d="M92.316,436.892l6.862,42.521  c1.905,11.808,12.099,20.488,24.06,20.488h178.89c11.961,0,22.154-8.68,24.06-20.488l6.862-42.521H92.316z"/>
<path style="fill:#E8757D;" d="M160.848,296.272L108.296,71.345c-2.515-10.763-11.991-18.28-23.044-18.28H14.743  c-4,0-7.243-3.243-7.243-7.243v-18.96c0-4,3.243-7.243,7.243-7.243h70.509c26.674,0,49.544,18.141,55.613,44.116l52.552,224.928  L160.848,296.272z"/>
<path style="opacity:0.1;enable-background:new    ;" d="M140.864,63.735c-6.069-25.974-28.938-44.116-55.612-44.116v33.446  c11.053,0,20.529,7.517,23.044,18.28l2.996,12.823h34.346L140.864,63.735z"/>
<path style="fill:#FDB876;" d="M337.457,241.339c-22.97-22.97-60.213-22.97-83.183,0l0,0c-22.97,22.97-60.213,22.97-83.183,0l0,0  c-22.97-22.97-60.213-22.97-83.183,0l0,0c-7.157,7.157-15.699,12.082-24.764,14.779l29.172,180.774h240.733l29.172-180.774  C353.156,253.421,344.614,248.496,337.457,241.339z"/>
<path style="opacity:0.3;fill:#FFFFFF;enable-background:new    ;" d="M337.457,241.339c-22.97-22.97-60.213-22.97-83.183,0l0,0  c-22.97,22.97-60.213,22.97-83.183,0l0,0c-22.97-22.97-60.213-22.97-83.183,0l0,0c-7.157,7.157-15.7,12.082-24.764,14.779  l3.996,24.761c7.57-2.86,14.674-7.32,20.768-13.414l0,0c22.97-22.971,60.212-22.971,83.183,0l0,0c22.97,22.97,60.213,22.97,83.183,0  l0,0c22.97-22.971,60.213-22.971,83.183,0c6.094,6.094,13.198,10.554,20.768,13.414l3.996-24.761  C353.156,253.421,344.614,248.496,337.457,241.339z"/>
<path style="opacity:0.1;enable-background:new    ;" d="M355.845,134.8h-70.937c13.611,0,23.987,12.184,21.818,25.621  L255.25,479.413c-1.905,11.808-12.099,20.488-24.06,20.488h70.937c11.961,0,22.154-8.68,24.06-20.488l51.476-318.991  C379.832,146.985,369.456,134.8,355.845,134.8z"/>
<path d="M455.461,242.1C489.583,218.601,512,179.272,512,134.8C512,63.007,453.592,4.599,381.798,4.599  c-69.275,0-126.08,54.385-129.98,122.702h-88.4l-15.25-65.272C141.302,32.643,115.43,12.12,85.253,12.12h-70.51  C6.614,12.119,0,18.733,0,26.862v18.959c0,8.129,6.614,14.743,14.743,14.743h70.509c7.55,0,14.022,5.135,15.741,12.486  l12.675,54.249H69.519c-8.688,0-16.902,3.794-22.536,10.409c-5.633,6.615-8.07,15.329-6.686,23.907L69.611,343.27  c0.595,3.685,3.779,6.306,7.395,6.306c0.397,0,0.8-0.031,1.204-0.097c4.089-0.66,6.869-4.51,6.21-8.599l-12.877-79.797  c8.063-3.322,15.464-8.238,21.669-14.443c9.693-9.693,22.58-15.031,36.288-15.031c4.283,0,8.485,0.521,12.535,1.533  c0.272,0.093,0.55,0.169,0.833,0.23c8.588,2.302,16.464,6.813,22.92,13.268c4.619,4.619,9.762,8.398,15.232,11.367  c0.074,0.043,0.148,0.085,0.224,0.125c9.78,5.26,20.607,7.902,31.439,7.902c16.983,0,33.966-6.464,46.895-19.393  c9.693-9.693,22.58-15.031,36.288-15.031s26.596,5.338,36.288,15.031c6.204,6.204,13.605,11.12,21.669,14.443l-27.161,168.307  h-44.024c-4.143,0-7.5,3.358-7.5,7.5s3.357,7.5,7.5,7.5h41.603l-5.459,33.827c-1.326,8.218-8.33,14.183-16.655,14.183h-178.89  c-8.324,0-15.329-5.965-16.655-14.183l-5.459-33.827h148.623c4.142,0,7.5-3.358,7.5-7.5s-3.358-7.5-7.5-7.5H98.703l-8.517-52.776  c-0.66-4.089-4.51-6.87-8.599-6.209c-4.089,0.66-6.869,4.51-6.209,8.599l16.396,101.603c2.505,15.525,15.737,26.793,31.463,26.793  h178.89c15.726,0,28.959-11.269,31.464-26.793l23.037-142.756c29.17,17.245,63.482,22.106,88.013,23.035  c0.396,0.015,0.792,0.023,1.186,0.023c8.344,0,16.425-3.327,22.33-9.232c6.184-6.185,9.54-14.755,9.209-23.515  C476.467,304.424,471.849,270.96,455.461,242.1z M381.798,19.599C445.32,19.599,497,71.278,497,134.8  s-51.68,115.202-115.202,115.202c-3.629,0-7.275-0.194-10.906-0.537l3.1-19.208c2.601,0.212,5.209,0.321,7.806,0.321  c52.813,0,95.778-42.966,95.778-95.778c0-8.688-1.164-17.3-3.461-25.598c-1.105-3.992-5.232-6.334-9.229-5.227  c-3.992,1.105-6.332,5.237-5.228,9.229c1.936,6.994,2.918,14.26,2.918,21.596c0,44.542-36.237,80.778-80.778,80.778  c-1.798,0-3.603-0.075-5.406-0.195l8.677-53.767c1.384-8.578-1.054-17.292-6.687-23.907c-5.634-6.615-13.848-10.409-22.536-10.409  H301.38c3.798-41.036,38.406-73.278,80.418-73.278c25.798,0,50.258,12.484,65.43,33.396c2.433,3.354,7.123,4.097,10.475,1.666  c3.353-2.432,4.099-7.122,1.666-10.475c-17.984-24.788-46.982-39.587-77.57-39.587c-50.289,0-91.648,38.958-95.486,88.278h-19.465  C270.725,67.261,320.796,19.599,381.798,19.599z M129.499,216.611c-17.714,0-34.369,6.898-46.894,19.425  c-3.961,3.961-8.556,7.228-13.539,9.699l-13.96-86.508c-0.683-4.231,0.52-8.529,3.298-11.792c2.779-3.263,6.83-5.134,11.116-5.134  h47.653l17.411,74.521C132.899,216.695,131.206,216.611,129.499,216.611z M150.751,220.092L115.599,69.638  c-3.313-14.174-15.792-24.073-30.347-24.073H15V27.119h70.252c23.172,0,43.037,15.759,48.309,38.322l39.044,167.109  C166.112,226.977,158.712,222.776,150.751,220.092z M356.299,245.735c-4.983-2.471-9.578-5.738-13.539-9.7  c-12.526-12.526-29.181-19.425-46.896-19.425s-34.369,6.898-46.895,19.425c-15.585,15.585-38.782,19.027-57.733,10.334  L166.922,142.3h188.923c4.285,0,8.337,1.872,11.116,5.134c2.778,3.263,3.98,7.561,3.298,11.792L356.299,245.735z M457.551,341.07  c-3.289,3.29-7.68,5.007-12.341,4.827c-43.258-1.638-70.465-13.788-85.99-24.109l9.277-57.491c4.425,0.451,8.873,0.704,13.3,0.704  c21.962,0,42.667-5.474,60.835-15.116c14.731,26.154,18.914,56.92,19.745,78.843C462.555,333.398,460.841,337.781,457.551,341.07z"/>
<g>
</g>
<g>
</g>
<g>
</g>
<g>
</g>
<g>
</g>
<g>
</g>
<g>
</g>
<g>
</g>
<g>
</g>
<g>
</g>
<g>
</g>
<g>
</g>
<g>
</g>
<g>
</g>
<g>
</g>
</svg>
