<?xml version="1.0" encoding="iso-8859-1"?>
<!-- Generator: Adobe Illustrator 19.0.0, SVG Export Plug-In . SVG Version: 6.00 Build 0)  -->
<svg xmlns="http://www.w3.org/2000/svg" xmlns:xlink="http://www.w3.org/1999/xlink" version="1.1" id="Capa_1" x="0px" y="0px" viewBox="0 0 512 512" style="enable-background:new 0 0 512 512;" xml:space="preserve">
<path style="fill:#A3D6EB;" d="M97.18,415.487c-21.372,0-42.18-7.638-58.588-21.801C18.832,376.631,7.5,351.879,7.5,325.778  c0-26.103,11.332-50.856,31.093-67.91c19.759-17.055,45.9-24.649,71.725-20.834l93.521,13.816l-5.648,38.227l-93.521-13.816  c-14.693-2.17-29.58,2.152-40.828,11.859c-11.248,9.709-17.7,23.798-17.7,38.657s6.451,28.949,17.698,38.656  c11.248,9.709,26.128,14.032,40.829,11.86l93.521-13.816l5.648,38.227l-93.521,13.816  C105.938,415.168,101.546,415.487,97.18,415.487z"/>
<path style="opacity:0.1;enable-background:new    ;" d="M198.19,289.077l5.648-38.227l-93.521-13.816  c-3.341-0.494-6.687-0.792-10.023-0.908c-3.43,12.803-5.923,25.767-7.483,38.79c3.917-0.338,7.894-0.241,11.858,0.345  L198.19,289.077z M104.67,376.294c-1.717,0.254-3.437,0.41-5.153,0.489c3.258,12.732,7.428,25.261,12.497,37.488l91.824-13.565  l-5.648-38.227L104.67,376.294z"/>
<path style="fill:#F7E6C5;" d="M353.685,52.26l-45.522,15.234c-15.5,5.188-31.875,7.256-48.179,6.087l0,0  c-63.598-4.563-112.383,55.474-94.905,116.793l0,0h174.092L353.685,52.26z"/>
<path style="opacity:0.1;enable-background:new    ;" d="M315.343,65.092c-15.169,14.255-33.991,24.581-54.879,29.529l0,0  c-42.676,10.11-68.745,53.278-57.823,95.753h136.533l14.512-138.114L315.343,65.092z"/>
<path style="fill:#F7E6C5;" d="M388.879,58.766h-35.193v131.607h106.911l6.766-37.849c3.232-18.08,0.123-36.721-8.803-52.773l0,0  C444.494,74.453,417.823,58.766,388.879,58.766z"/>
<path style="opacity:0.1;enable-background:new    ;" d="M423.617,66.744c-10.652-5.159-22.489-7.978-34.738-7.978h-33.223  c-0.645,0.855-1.302,1.699-1.971,2.534v129.073h68.181l1.871-5.054C438.083,146.563,437.673,104.495,423.617,66.744z"/>
<path style="fill:#F7E6C5;" d="M378.151,24.347L378.151,24.347c-7.84-10.511-24.228-8.048-28.633,4.303l0,0  c-12.875,36.108-43.164,63.237-80.466,72.073l0,0c-39.956,9.465-64.363,49.882-54.138,89.65l0,0h184.57l1.871-5.054  C421.391,131.196,412.658,70.608,378.151,24.347z"/>
<path style="fill:#93827E;" d="M464.037,190.373H162.731c-8.912,0-16.931,5.412-20.266,13.675l0,0  c-34.842,86.346-24.083,184.407,28.654,261.144l0,0c12.503,18.193,33.163,29.064,55.238,29.064h174.054  c22.076,0,42.735-10.87,55.238-29.064l0,0c52.737-76.736,63.496-174.798,28.654-261.144l0,0  C480.968,195.785,472.95,190.373,464.037,190.373z"/>
<path style="fill:#F7E6C5;" d="M499.644,348.515L499.644,348.515c-19.828,22.3-54.675,22.3-74.504,0l0,0  c-19.828-22.3-54.675-22.3-74.504,0l0,0c-19.828,22.3-54.675,22.3-74.504,0l0,0c-19.828-22.3-54.675-22.3-74.504,0l0,0  c-19.828,22.3-54.675,22.3-74.504,0l0,0c-0.704-0.792-1.432-1.548-2.173-2.284c5.858,42.079,21.368,82.878,46.167,118.962l0,0  c12.503,18.193,33.163,29.064,55.238,29.064h174.053c22.076,0,42.735-10.87,55.238-29.064l0,0  c24.798-36.083,40.309-76.883,46.167-118.962C501.076,346.966,500.348,347.722,499.644,348.515z"/>
<path style="opacity:0.1;enable-background:new    ;" d="M161.915,173.558c0.525,5.562,1.559,11.182,3.165,16.815h295.516  l3.006-16.815H161.915z"/>
<g style="opacity:0.4;">
	<ellipse style="fill:#F9B0B6;" cx="381.562" cy="290.235" rx="30.392" ry="18.213"/>
	<ellipse style="fill:#F9B0B6;" cx="245.209" cy="290.235" rx="30.392" ry="18.213"/>
</g>
<path style="fill:#4A5058;" d="M334.649,265.202c0,12.001-9.943,21.681-22.04,21.251c-11.523-0.41-20.489-10.23-20.489-21.76  v-14.957c0-3.202,2.596-5.798,5.798-5.798h30.933c3.202,0,5.798,2.596,5.798,5.798L334.649,265.202L334.649,265.202z"/>
<path style="opacity:0.1;enable-background:new    ;" d="M484.303,204.049c-3.335-8.265-11.353-13.675-20.266-13.675h-55.794  c8.912,0,16.93,5.412,20.266,13.675l0,0c34.842,86.346,24.083,184.407-28.654,261.144l0,0  c-12.503,18.193-33.163,29.064-55.238,29.064h55.794c22.075,0,42.735-10.87,55.238-29.064l0,0  C508.386,388.457,519.146,290.394,484.303,204.049z"/>
<path d="M231.247,242.964v12.598c0,4.142,3.357,7.5,7.5,7.5s7.5-3.358,7.5-7.5v-12.598c0-4.142-3.357-7.5-7.5-7.5  C234.604,235.465,231.247,238.823,231.247,242.964z M508.093,261.031c-0.681-4.085-4.544-6.843-8.631-6.164  c-4.086,0.682-6.846,4.546-6.164,8.632c4.401,26.39,4.856,52.971,1.411,79.303c-0.225,0.243-0.459,0.49-0.671,0.729  c-8.029,9.03-19.564,14.209-31.648,14.209c-12.082,0-23.618-5.179-31.647-14.209c-10.874-12.227-26.494-19.241-42.857-19.241  c-16.362,0-31.983,7.014-42.855,19.242c-8.029,9.03-19.565,14.209-31.648,14.209c-12.082,0-23.618-5.179-31.647-14.209  c-16.568-18.636-43.055-24.437-65.899-14.43c-3.794,1.662-5.523,6.085-3.861,9.879c1.662,3.795,6.083,5.522,9.879,3.862  c16.877-7.391,36.435-3.107,48.674,10.657c10.872,12.228,26.493,19.242,42.855,19.242c16.363,0,31.984-7.014,42.856-19.242  c8.029-9.03,19.563-14.208,31.647-14.209c12.083,0,23.619,5.179,31.648,14.209c10.872,12.228,26.493,19.242,42.855,19.242  c10.077,0,19.867-2.668,28.445-7.568c-0.058,0.266-0.107,0.533-0.166,0.799c-7.513,34.17-21.375,66.124-41.201,94.974  c-11.107,16.162-29.447,25.812-49.059,25.812H226.357c-19.611,0-37.95-9.65-49.059-25.812  c-11.553-16.811-21.031-34.639-28.409-53.132c-0.137-0.478-0.318-0.933-0.541-1.363c-4.453-11.34-8.115-22.927-10.979-34.679  c-0.011-0.102-0.014-0.202-0.029-0.304c-0.085-0.578-0.241-1.128-0.447-1.65c-0.362-1.535-0.706-3.073-1.041-4.614  c8.678,5.012,18.463,7.62,28.399,7.62c8.198,0,16.498-1.774,24.359-5.435c4.684-2.181,9.054-4.995,12.989-8.363  c3.148-2.693,3.516-7.427,0.822-10.575c-2.692-3.146-7.427-3.516-10.574-0.822c-2.901,2.483-6.122,4.556-9.57,6.162  c-17.103,7.962-37.015,3.839-49.551-10.261c-0.246-0.277-0.512-0.559-0.773-0.84c-2.699-20.8-2.97-41.903-0.754-62.889  c0.046-0.199,0.09-0.398,0.121-0.604c0.054-0.368,0.072-0.733,0.072-1.095c1.345-12.004,3.498-23.966,6.477-35.806  c0.077-0.245,0.141-0.496,0.194-0.753c2.981-11.708,6.758-23.297,11.354-34.688c2.202-5.457,7.427-8.983,13.31-8.983h2.322  c0.008,0,0.016,0.002,0.024,0.002c0.009,0,0.019-0.002,0.028-0.002h49.782c0.008,0,0.016,0.002,0.023,0.002  c0.01,0,0.021-0.002,0.031-0.002h184.497c0.015,0,0.03,0.002,0.045,0.002c0.008,0,0.017-0.002,0.026-0.002h61.063  c0.011,0,0.022,0.001,0.033,0.001s0.022-0.001,0.033-0.001h3.4c5.885,0,11.108,3.526,13.31,8.983  c3.516,8.713,6.606,17.697,9.186,26.703c1.141,3.982,5.294,6.284,9.275,5.145c3.982-1.141,6.285-5.294,5.145-9.275  c-2.724-9.506-5.985-18.988-9.696-28.185c-3.811-9.445-12.057-16.041-21.795-17.851l5.283-29.549  c3.525-19.722,0.104-40.227-9.632-57.737c-12.868-23.146-35.713-39.2-61.694-43.6c-5.25-11.531-11.701-22.515-19.257-32.643  c-5.282-7.082-13.984-10.666-22.731-9.354c-8.738,1.313-16.01,7.299-18.977,15.622c-3.448,9.669-8.207,18.623-14.053,26.683  l-22.617,7.569c-14.638,4.899-29.866,6.826-45.262,5.718c-32.798-2.352-63.483,10.93-84.213,36.442  c-18.829,23.171-26.098,52.324-20.523,81.164c-9.072,2.187-16.664,8.587-20.276,17.537c-4.038,10.007-7.477,20.158-10.333,30.406  l-13.765-2.034c-27.981-4.133-56.31,4.096-77.72,22.576C12.28,270.67,0,297.492,0,325.778c0,28.286,12.28,55.106,33.692,73.587  c17.647,15.233,40.195,23.624,63.488,23.624c4.744,0,9.532-0.352,14.231-1.046l25.508-3.769c7.482,17.8,16.828,34.985,28.018,51.268  c13.905,20.235,36.866,32.316,61.419,32.316h174.055c24.553,0,47.514-12.08,61.419-32.316  c20.929-30.453,35.561-64.181,43.49-100.249C513.173,333.471,514.107,297.081,508.093,261.031z M356.583,31.168  c1.124-3.151,3.77-5.33,7.079-5.827c3.307-0.497,6.478,0.807,8.478,3.489c14.52,19.467,24.651,42.352,29.298,66.182  c0.793,4.065,4.734,6.723,8.797,5.926c4.065-0.793,6.719-4.731,5.926-8.797c-1.495-7.667-3.524-15.24-6.028-22.659  c17.634,5.446,32.768,17.537,41.874,33.913c8.061,14.498,10.894,31.478,7.976,47.809l-5.662,31.67h-44.156  c6.715-19.934,9.819-40.685,9.215-61.769c-0.119-4.14-3.554-7.374-7.712-7.282c-4.141,0.119-7.4,3.571-7.282,7.712  c0.601,20.94-2.785,41.524-10.063,61.181l-0.059,0.158H221c-2.597-15.487,0.368-31.204,8.587-44.812  c9.217-15.262,23.847-25.931,41.195-30.042C310.721,98.559,342.797,69.83,356.583,31.168z M187.949,112.001  c17.602-21.66,43.665-32.933,71.499-30.94c15.338,1.099,30.523-0.465,45.234-4.646c-11.033,7.926-23.664,13.766-37.357,17.01  c-21.301,5.046-39.263,18.144-50.579,36.882c-9.657,15.99-13.401,34.35-10.911,52.566h-34.902  C165.472,157.751,171.537,132.199,187.949,112.001z M109.222,407.103c-3.978,0.587-8.028,0.885-12.04,0.885  c-19.696,0-38.763-7.095-53.687-19.978c-18.109-15.629-28.495-38.311-28.495-62.232c0-23.921,10.386-46.604,28.494-62.232  c18.106-15.628,42.063-22.586,65.729-19.092l12.297,1.817c-1.719,7.726-3.119,15.491-4.185,23.282l-11.568-1.709  c-16.853-2.491-33.924,2.468-46.824,13.601c-12.899,11.134-20.299,27.293-20.299,44.334s7.398,33.2,20.298,44.334  c10.712,9.247,24.296,14.232,38.248,14.232c2.851,0,5.718-0.208,8.577-0.631l18.468-2.728c2.044,7.697,4.418,15.319,7.114,22.849  L109.222,407.103z M120.757,366.337l-17.184,2.539c-12.534,1.853-25.235-1.835-34.832-10.119  c-9.596-8.283-15.099-20.303-15.099-32.979c0-12.676,5.504-24.697,15.1-32.979c9.597-8.283,22.298-11.969,34.831-10.118  l12.127,1.792C113.413,311.914,115.129,339.483,120.757,366.337z M297.918,236.438c-7.332,0-13.297,5.966-13.297,13.297v14.957  c0,15.587,12.436,28.712,27.723,29.256c0.354,0.013,0.706,0.019,1.058,0.019c7.493,0,14.544-2.842,19.958-8.066  c5.669-5.472,8.791-12.822,8.791-20.699v-15.466c0-7.332-5.966-13.297-13.298-13.297L297.918,236.438L297.918,236.438z   M327.15,265.202c0,3.77-1.494,7.288-4.208,9.906c-2.712,2.617-6.297,3.98-10.066,3.851c-7.31-0.26-13.256-6.66-13.256-14.266  v-13.255h27.53V265.202z M378.972,242.964v12.598c0,4.142,3.357,7.5,7.5,7.5c4.143,0,7.5-3.358,7.5-7.5v-12.598  c0-4.142-3.357-7.5-7.5-7.5C382.33,235.465,378.972,238.823,378.972,242.964z"/>
<g>
</g>
<g>
</g>
<g>
</g>
<g>
</g>
<g>
</g>
<g>
</g>
<g>
</g>
<g>
</g>
<g>
</g>
<g>
</g>
<g>
</g>
<g>
</g>
<g>
</g>
<g>
</g>
<g>
</g>
</svg>
