<?xml version="1.0" encoding="iso-8859-1"?>
<!-- Generator: Adobe Illustrator 19.0.0, SVG Export Plug-In . SVG Version: 6.00 Build 0)  -->
<svg xmlns="http://www.w3.org/2000/svg" xmlns:xlink="http://www.w3.org/1999/xlink" version="1.1" id="Capa_1" x="0px" y="0px" viewBox="0 0 512 512" style="enable-background:new 0 0 512 512;" xml:space="preserve">
<path style="fill:#7CD1A9;" d="M301.841,139.926V93.598h-91.684v46.328c0,10.053-4.905,19.474-13.141,25.24l-12.147,8.504  c-21.97,15.38-35.054,40.511-35.054,67.329v242.323c0,11.697,9.482,21.179,21.179,21.179h170.01  c11.697,0,21.179-9.482,21.179-21.179V240.998c0-26.818-13.084-51.949-35.054-67.329l-12.147-8.504  C306.747,159.4,301.841,149.979,301.841,139.926z"/>
<path style="opacity:0.1;enable-background:new    ;" d="M149.814,474.911v8.409c0,11.697,9.482,21.179,21.179,21.179h170.01  c11.697,0,21.179-9.482,21.179-21.179v-8.409H149.814z"/>
<path style="opacity:0.1;enable-background:new    ;" d="M327.13,173.669l-12.147-8.503c-8.236-5.765-13.141-15.187-13.141-25.24  V93.598h-91.684v30.016h57.801v16.312c0,10.053,4.905,19.475,13.141,25.24l12.147,8.503c21.97,15.38,35.054,40.511,35.054,67.329  v242.323c0,11.697-9.482,21.179-21.179,21.179h33.884c11.697,0,21.179-9.482,21.179-21.179V240.998  C362.183,214.18,349.099,189.049,327.13,173.669z"/>
<path style="fill:#7CD1A9;" d="M305.995,49.725h-99.992c-6.615,0-11.977,5.362-11.977,11.977v19.919  c0,6.615,5.362,11.977,11.977,11.977h99.992c6.615,0,11.977-5.362,11.977-11.977V61.702  C317.972,55.087,312.61,49.725,305.995,49.725z"/>
<path style="opacity:0.1;enable-background:new    ;" d="M305.995,49.725h-21.813c6.615,0,11.977,5.362,11.977,11.977v19.919  c0,6.615-5.362,11.977-11.977,11.977h21.813c6.615,0,11.977-5.362,11.977-11.977V61.702  C317.972,55.087,312.61,49.725,305.995,49.725z"/>
<path style="fill:#93827E;" d="M292.61,49.725h-73.223V16.903c0-5.193,4.21-9.403,9.403-9.403h54.417  c5.193,0,9.403,4.21,9.403,9.403L292.61,49.725L292.61,49.725z"/>
<g style="opacity:0.1;">
	<circle cx="241.589" cy="21.324" r="7.288"/>
	<circle cx="272.349" cy="33.27" r="7.288"/>
</g>
<path style="fill:#FFFFFF;" d="M300.391,240.294h-94.116c-8.381,0-15.176,6.794-15.176,15.176v178.905  c0,8.381,6.794,15.176,15.176,15.176h94.116c8.381,0,15.176-6.794,15.176-15.176V255.47  C315.565,247.089,308.771,240.294,300.391,240.294z"/>
<path style="fill:#4A5058;" d="M315.565,396.252H191.098v38.123c0,8.381,6.794,15.176,15.176,15.176h94.116  c8.381,0,15.176-6.794,15.176-15.176L315.565,396.252L315.565,396.252z"/>
<rect x="191.1" y="373.56" style="fill:#FDB876;" width="124.47" height="22.692"/>
<g>
	<path style="fill:#93827E;" d="M218.328,285.291c-3.485,0-6.608-2.442-7.338-5.989c-1.133-5.505,0.57-11.925,2.728-20.053   c3.694-13.919,8.291-31.243-2.496-43.955c-2.68-3.159-2.292-7.892,0.866-10.571c3.159-2.681,7.892-2.291,10.571,0.866   c15.858,18.689,9.658,42.05,5.556,57.508c-1.316,4.961-2.955,11.135-2.533,13.181c0.835,4.057-1.777,8.023-5.834,8.858   C219.339,285.241,218.829,285.291,218.328,285.291z"/>
	<path style="fill:#93827E;" d="M260.547,285.291c-3.454,0-6.562-2.401-7.323-5.915c-5.055-23.354-24.288-31.582-28.029-31.582   c-4.142,0-7.5-3.358-7.5-7.5s3.358-7.5,7.5-7.5c11.949,0,36.434,14.506,42.689,43.409c0.877,4.048-1.695,8.041-5.744,8.917   C261.607,285.235,261.073,285.291,260.547,285.291z"/>
</g>
<circle style="fill:#B89DD6;" cx="293.799" cy="322.69" r="27.11"/>
<circle style="opacity:0.1;enable-background:new    ;" cx="293.799" cy="322.69" r="27.11"/>
<path style="opacity:0.1;enable-background:new    ;" d="M296.161,295.697c-0.78-0.068-1.568-0.109-2.365-0.109  c-14.97,0-27.106,12.136-27.106,27.106c0,9.737,5.137,18.272,12.847,23.051c5.83-4.972,9.532-12.366,9.532-20.629  c0-4.016-0.88-7.824-2.447-11.252C291.912,309.412,295.471,302.973,296.161,295.697z"/>
<circle style="fill:#B89DD6;" cx="253.329" cy="322.69" r="27.11"/>
<path style="opacity:0.1;enable-background:new    ;" d="M254.43,295.616c-0.365-0.015-0.73-0.028-1.099-0.028  c-14.97,0-27.106,12.136-27.106,27.106c0,1.857,0.188,3.67,0.543,5.422c0.365,0.014,0.73,0.028,1.099,0.028  c14.97,0,27.106-12.136,27.106-27.106C254.975,299.181,254.786,297.368,254.43,295.616z"/>
<circle style="fill:#B89DD6;" cx="260.56" cy="290.69" r="27.11"/>
<circle style="opacity:0.1;enable-background:new    ;" cx="260.56" cy="290.69" r="27.11"/>
<path style="opacity:0.1;enable-background:new    ;" d="M237.878,275.849c-2.798,4.265-4.43,9.362-4.43,14.844  c0,11.433,7.082,21.205,17.095,25.189c2.797-4.265,4.43-9.363,4.43-14.844C254.975,289.605,247.893,279.832,237.878,275.849z"/>
<circle style="fill:#B89DD6;" cx="222.119" cy="295.59" r="27.11"/>
<path style="fill:#FFFFFF;" d="M278.141,430.401h-49.617c-4.142,0-7.5-3.358-7.5-7.5s3.358-7.5,7.5-7.5h49.617  c4.142,0,7.5,3.358,7.5,7.5S282.282,430.401,278.141,430.401z"/>
<path style="opacity:0.1;enable-background:new    ;" d="M283.208,7.5h-15.399c5.193,0,9.403,4.21,9.403,9.403v18.253h-57.824  v14.569h73.223V16.903C292.61,11.71,288.401,7.5,283.208,7.5z"/>
<path d="M149.815,433.583c4.142,0,7.5-3.358,7.5-7.5V240.998c0-24.349,11.908-47.222,31.854-61.185l12.148-8.503  c10.231-7.163,16.339-18.895,16.339-31.384v-38.828h8.807c4.142,0,7.5-3.358,7.5-7.5s-3.358-7.5-7.5-7.5h-20.461  c-2.469,0-4.477-2.009-4.477-4.478V61.702c0-2.469,2.008-4.478,4.477-4.478h99.992c2.469,0,4.477,2.009,4.477,4.478V81.62  c0,2.469-2.008,4.478-4.477,4.478h-49.281c-4.142,0-7.5,3.358-7.5,7.5s3.358,7.5,7.5,7.5h37.627v38.828  c0,12.489,6.108,24.221,16.339,31.384l12.148,8.503c3.273,2.292,6.382,4.863,9.239,7.642c1.457,1.418,3.344,2.124,5.229,2.124  c1.954,0,3.907-0.759,5.377-2.271c2.888-2.969,2.822-7.718-0.147-10.605c-3.432-3.337-7.165-6.425-11.095-9.177l-12.147-8.503  c-6.225-4.358-9.942-11.497-9.942-19.096V100.79c9.148-1.594,16.131-9.572,16.131-19.169V61.702c0-10.74-8.737-19.478-19.477-19.478  h-5.885V16.903c0-9.32-7.583-16.903-16.902-16.903h-54.418c-9.32,0-16.903,7.582-16.903,16.903v25.322h-5.885  c-10.74,0-19.477,8.738-19.477,19.478v19.918c0,9.597,6.983,17.575,16.131,19.169v39.136c0,7.599-3.717,14.738-9.942,19.096  l-12.147,8.503c-23.953,16.768-38.252,44.234-38.252,73.473v185.085C142.315,430.225,145.673,433.583,149.815,433.583z   M226.887,16.903c0-1.049,0.853-1.903,1.903-1.903h54.418c1.049,0,1.902,0.854,1.902,1.903v25.322h-58.223V16.903z M183.598,255.47  v178.905c0,12.503,10.172,22.676,22.675,22.676h94.116c12.503,0,22.676-10.172,22.676-22.676V341.12  c3.373-5.34,5.335-11.656,5.335-18.426s-1.962-13.086-5.335-18.426V255.47c0-12.503-10.172-22.675-22.676-22.675h-67.517  c-0.361-9.247-3.003-18.709-10.213-27.206c-2.679-3.158-7.412-3.547-10.571-0.866c-3.158,2.68-3.546,7.413-0.866,10.571  c4.444,5.238,6.273,11.258,6.633,17.501h-11.582C193.77,232.794,183.598,242.966,183.598,255.47z M308.065,434.375  c0,4.232-3.443,7.676-7.676,7.676h-94.116c-4.232,0-7.675-3.443-7.675-7.676v-30.623h109.467V434.375z M308.065,388.752H198.598  v-7.692h109.467V388.752z M308.065,366.06H198.598v-45.116c5.585,5.184,12.878,8.545,20.931,9.143  c3.397,15.54,17.258,27.212,33.802,27.212c7.546,0,14.53-2.435,20.223-6.55c5.847,4.216,12.922,6.55,20.24,6.55  c5.087,0,9.916-1.112,14.271-3.092V366.06L308.065,366.06z M293.794,342.299c-3.625,0-7.138-1.025-10.181-2.878  c2.752-4.961,4.325-10.664,4.325-16.728c0-3.185-0.431-6.302-1.279-9.321c2.618-3.009,4.724-6.472,6.185-10.255  c0.316-0.015,0.633-0.03,0.95-0.03c10.811,0,19.606,8.795,19.606,19.605C313.401,333.504,304.605,342.299,293.794,342.299z   M300.39,247.794c4.232,0,7.676,3.443,7.676,7.675v35.71c-3.993-1.815-8.387-2.894-13.011-3.06  c-1.322-17.883-16.285-32.033-34.5-32.033c-0.331,0-0.658,0.019-0.988,0.028c-2.081-3.205-4.311-5.969-6.534-8.321L300.39,247.794  L300.39,247.794z M260.555,271.087c10.81,0,19.605,8.795,19.605,19.605s-8.795,19.606-19.605,19.606  c-2.291,0-4.512-0.393-6.607-1.144c1.783-4.168,2.773-8.754,2.773-13.567c0-7.939-2.694-15.256-7.206-21.101  C252.723,272.291,256.534,271.087,260.555,271.087z M260.555,325.299c4.357,0,8.524-0.817,12.367-2.293  c-0.169,10.666-8.885,19.294-19.59,19.294c-9.001,0-16.585-6.106-18.878-14.387c3.88-1.486,7.424-3.651,10.491-6.349  C249.761,323.995,255.123,325.299,260.555,325.299z M231.369,249.892c3.724,1.893,8.445,5.186,12.693,10.361  c-2.268,1.232-4.399,2.722-6.357,4.454c-2.832-1.435-5.884-2.493-9.094-3.105C229.555,258.029,230.563,254.077,231.369,249.892z   M222.115,275.982c10.811,0,19.605,8.795,19.605,19.605c0,9.783-7.21,17.892-16.591,19.349c-0.135,0.019-0.27,0.035-0.402,0.062  c-0.857,0.115-1.725,0.195-2.613,0.195c-10.811,0-19.606-8.795-19.606-19.606C202.509,284.777,211.305,275.982,222.115,275.982z   M213.718,259.248c-0.271,1.021-0.527,2.001-0.781,2.98c-5.427,1.495-10.324,4.278-14.338,8.004V255.47  c0-4.232,3.443-7.675,7.675-7.675h10.229C215.705,251.749,214.682,255.615,213.718,259.248z M361.37,203.286  c-1.742-3.758-6.2-5.391-9.958-3.651c-3.758,1.742-5.393,6.201-3.651,9.958c4.594,9.913,6.924,20.479,6.924,31.405v242.323  c0,7.543-6.137,13.679-13.68,13.679h-170.01c-7.543,0-13.679-6.136-13.679-13.679V457.94c0-4.142-3.358-7.5-7.5-7.5  s-7.5,3.358-7.5,7.5v25.381c0,15.814,12.865,28.679,28.679,28.679h170.01c15.814,0,28.68-12.865,28.68-28.679V240.998  C369.683,227.877,366.886,215.189,361.37,203.286z"/>
<g>
</g>
<g>
</g>
<g>
</g>
<g>
</g>
<g>
</g>
<g>
</g>
<g>
</g>
<g>
</g>
<g>
</g>
<g>
</g>
<g>
</g>
<g>
</g>
<g>
</g>
<g>
</g>
<g>
</g>
</svg>
