<?xml version="1.0" encoding="iso-8859-1"?>
<!-- Generator: Adobe Illustrator 19.0.0, SVG Export Plug-In . SVG Version: 6.00 Build 0)  -->
<svg xmlns="http://www.w3.org/2000/svg" xmlns:xlink="http://www.w3.org/1999/xlink" version="1.1" id="Capa_1" x="0px" y="0px" viewBox="0 0 512 512" style="enable-background:new 0 0 512 512;" xml:space="preserve">
<path style="fill:#4A5058;" d="M293.963,486.957l-38.873-25.849c-7.432-4.942-11.898-13.274-11.898-22.199V240.515h-44.166v197.732  c0,8.925-4.466,17.257-11.897,22.199l-39.87,26.511c-7.891,5.247-4.176,17.543,5.3,17.543h136.104  C298.14,504.5,301.854,492.205,293.963,486.957z"/>
<path style="opacity:0.1;enable-background:new    ;" d="M199.027,240.515v93.857c4.874,0.801,9.865,1.24,14.958,1.24h14.251  c5.092,0,10.084-0.439,14.958-1.24v-93.857L199.027,240.515L199.027,240.515z"/>
<path style="fill:#A3D6EB;" d="M316.75,7.5H125.469c-7.933,0-14.238,6.663-13.801,14.584l10.699,193.635  c2.687,48.634,42.908,86.694,91.616,86.694h14.251c48.709,0,88.929-38.059,91.617-86.694L330.55,22.084  C330.989,14.163,324.683,7.5,316.75,7.5z"/>
<path style="fill:#B89DD6;" d="M235.014,123.868c0,0-74.12,29.775-115.147,46.59l2.501,45.262  c2.687,48.634,42.908,86.694,91.616,86.694h14.251c48.709,0,88.929-38.059,91.617-86.694l5.442-98.48  C278.902,113.919,250.404,128.54,235.014,123.868z"/>
<path style="opacity:0.1;enable-background:new    ;" d="M235.014,123.868c0,0-74.12,29.775-115.147,46.59l2.501,45.262  c2.687,48.634,42.908,86.694,91.616,86.694h14.251c48.709,0,88.929-38.059,91.617-86.694l5.442-98.48  C278.902,113.919,250.404,128.54,235.014,123.868z"/>
<path style="fill:#B89DD6;" d="M116.073,101.792l6.295,113.927c2.687,48.634,42.908,86.694,91.616,86.694h14.251  c48.709,0,88.929-38.059,91.617-86.694l4.299-77.804C219.282,135.69,230.219,104.42,116.073,101.792z"/>
<path style="opacity:0.1;enable-background:new    ;" d="M316.75,7.5h-11.076l-10.512,190.243  c-2.687,48.635-42.908,86.694-91.616,86.694h-14.251c-14.668,0-28.554-3.471-40.889-9.624c16.697,17.06,39.959,27.599,65.579,27.599  h14.251c48.709,0,88.929-38.059,91.617-86.694l10.699-193.635C330.989,14.163,324.683,7.5,316.75,7.5z"/>
<circle style="fill:#B89DD6;" cx="356.34" cy="460.49" r="44.01"/>
<circle style="opacity:0.1;enable-background:new    ;" cx="356.34" cy="460.49" r="44.01"/>
<path style="opacity:0.1;enable-background:new    ;" d="M360.179,416.649c-1.267-0.11-2.546-0.177-3.841-0.177  c-24.308,0-44.014,19.706-44.014,44.014c0,15.812,8.342,29.67,20.861,37.43c9.467-8.073,15.479-20.08,15.479-33.497  c0-6.521-1.429-12.704-3.974-18.271C353.283,438.919,359.061,428.464,360.179,416.649z"/>
<circle style="fill:#B89DD6;" cx="290.63" cy="460.49" r="44.01"/>
<path style="opacity:0.1;enable-background:new    ;" d="M292.419,416.517c-0.592-0.024-1.186-0.045-1.784-0.045  c-24.308,0-44.014,19.706-44.014,44.014c0,3.015,0.305,5.959,0.882,8.804c0.593,0.024,1.186,0.045,1.784,0.045  c24.308,0,44.014-19.706,44.014-44.014C293.302,422.306,292.997,419.362,292.419,416.517z"/>
<circle style="fill:#B89DD6;" cx="302.36" cy="408.52" r="44.01"/>
<circle style="opacity:0.1;enable-background:new    ;" cx="302.36" cy="408.52" r="44.01"/>
<path style="opacity:0.1;enable-background:new    ;" d="M265.543,384.421c-4.543,6.925-7.193,15.203-7.193,24.103  c0,18.565,11.499,34.433,27.759,40.901c4.542-6.925,7.193-15.203,7.193-24.103C293.302,406.757,281.802,390.888,265.543,384.421z"/>
<circle style="fill:#B89DD6;" cx="239.95" cy="416.47" r="44.01"/>
<path d="M139.586,250.239c-5.773-10.834-9.047-22.588-9.729-34.935l-5.844-105.771c16.462,0.608,30.953,1.882,44.087,3.875  c0.382,0.058,0.76,0.086,1.135,0.086c3.645,0,6.842-2.662,7.406-6.376c0.622-4.095-2.194-7.919-6.29-8.54  c-14.069-2.135-29.56-3.477-47.168-4.085l-4.024-72.825c-0.097-1.752,0.514-3.419,1.72-4.693c1.206-1.275,2.837-1.977,4.592-1.977  H316.75c1.755,0,3.386,0.702,4.592,1.977c1.206,1.274,1.817,2.941,1.72,4.693l-1.321,23.906c-0.229,4.136,2.939,7.674,7.075,7.902  c4.124,0.222,7.674-2.938,7.902-7.074l1.321-23.906c0.322-5.824-1.793-11.594-5.802-15.831C328.229,2.43,322.584,0,316.75,0H125.469  c-5.833,0-11.478,2.43-15.487,6.667c-4.009,4.236-6.124,10.007-5.803,15.831l10.699,193.635  c0.804,14.539,4.662,28.388,11.469,41.161c1.349,2.532,3.943,3.975,6.625,3.975c1.19-0.001,2.398-0.284,3.521-0.883  C140.15,258.438,141.534,253.895,139.586,250.239z M356.339,408.972c-0.826,0-1.65,0.038-2.474,0.077  c0.002-0.176,0.013-0.349,0.013-0.526c0-28.404-23.109-51.514-51.514-51.514c-1.378,0-2.743,0.073-4.1,0.179  C285.37,335.96,266.319,324,252.872,320.382c0.108-4.443-0.085-8.919-0.697-13.384c41.359-10.262,72.713-46.511,75.165-90.866  l7.798-141.135c0.228-4.136-2.939-7.674-7.075-7.902c-4.123-0.231-7.673,2.938-7.902,7.074l-1.945,35.204  c-23.213-0.773-41.923,2.634-55.941,5.199c-11.174,2.045-20.001,3.661-25.082,2.117c-0.001,0-0.001,0-0.001,0  c-3.26-1.076-6.476-2.174-9.713-3.282c-8.855-3.029-18.012-6.162-28.657-8.972c-4.003-1.056-8.108,1.333-9.166,5.338  c-1.057,4.006,1.333,8.109,5.338,9.166c10.125,2.672,19.023,5.716,27.628,8.66c22.78,7.793,46.314,15.834,93.614,17.582  l-3.875,70.122c-2.081,37.658-28.704,68.433-63.821,77.138c-2.459-6.559-6.094-12.974-11.279-19.085  c-2.68-3.157-7.412-3.547-10.571-0.866c-3.158,2.68-3.546,7.413-0.866,10.571c3.16,3.725,5.57,7.642,7.386,11.689  c-1.648,0.096-3.304,0.161-4.975,0.161h-14.25c-21.542,0-42.045-8.129-57.734-22.889c-3.017-2.84-7.764-2.693-10.602,0.322  c-2.838,3.018-2.694,7.764,0.323,10.602c12.918,12.154,28.613,20.475,45.555,24.393v91.544c-2,5.49-3.094,11.412-3.094,17.585  s1.094,12.096,3.094,17.586v4.19c0,6.43-3.196,12.393-8.55,15.954l-39.871,26.511c-6.313,4.199-9.082,11.896-6.889,19.154  c2.193,7.258,8.76,12.134,16.342,12.134h136.103c0.263,0,0.516-0.018,0.773-0.03c0.4,0.009,0.797,0.03,1.199,0.03  c12.474,0,23.924-4.459,32.847-11.863C332.666,507.742,344.28,512,356.339,512c28.405,0,51.514-23.109,51.514-51.514  C407.852,432.081,384.743,408.972,356.339,408.972z M279.059,126.898c11.007-1.705,23.651-3.02,38.33-2.548l-0.324,5.855  C302.113,129.667,289.739,128.501,279.059,126.898z M250.693,339.895c0.264-1.415,0.511-2.841,0.737-4.278  c8.424,3.013,21.327,10.957,31.328,25.243c-6.229,2.556-11.913,6.34-16.76,11.198c-4.682-2.757-9.832-4.798-15.305-5.964V339.895z   M206.527,309.609c2.473,0.184,4.957,0.304,7.458,0.304h14.25c2.508,0,4.995-0.095,7.458-0.278v28.83  c-1.359,6.988-3.164,13.805-4.86,20.199c-0.688,2.593-1.346,5.089-1.952,7.504c-8.399,1.847-16.033,5.747-22.353,11.15v-67.709  H206.527z M239.947,379.958c20.134,0,36.514,16.38,36.514,36.514s-16.38,36.515-36.514,36.515s-36.514-16.381-36.514-36.515  C203.433,396.338,219.813,379.958,239.947,379.958z M152.56,497c-1.021,0-1.689-0.495-1.983-1.473  c-0.296-0.978-0.014-1.76,0.836-2.325l39.871-26.511c5.323-3.54,9.445-8.415,12.055-14.02c9.284,9.388,22.137,15.234,36.335,15.308  c1.649,11.261,6.95,21.351,14.665,29.021L152.56,497L152.56,497z M290.635,497c-0.311,0-0.618-0.016-0.928-0.024  c-0.053-0.002-0.107-0.003-0.16-0.004c-17.81-0.525-32.459-13.856-35.023-31.1c8.319-2.46,15.772-6.957,21.763-12.927  c7.87,4.652,16.76,7.092,26.077,7.092c8.741,0,16.977-2.195,24.196-6.053c0.384,2.131,0.589,4.3,0.589,6.501  C327.149,480.62,310.769,497,290.635,497z M302.364,445.038c-6.039,0-11.823-1.448-17.035-4.217  c3.908-7.255,6.131-15.547,6.131-24.349c0-13.47-5.203-25.743-13.696-34.931c6.67-6.116,15.337-9.531,24.6-9.531  c20.134,0,36.514,16.38,36.514,36.514C338.878,428.657,322.498,445.038,302.364,445.038z M356.339,497  c-8.338,0-16.378-2.875-22.812-8.024c5.442-8.166,8.622-17.962,8.622-28.49c0-5.605-0.891-11.072-2.649-16.316  c5.351-5.573,9.465-12.337,11.893-19.857c1.635-0.221,3.287-0.342,4.946-0.342c20.134,0,36.514,16.381,36.514,36.515  S376.472,497,356.339,497z"/>
<g>
</g>
<g>
</g>
<g>
</g>
<g>
</g>
<g>
</g>
<g>
</g>
<g>
</g>
<g>
</g>
<g>
</g>
<g>
</g>
<g>
</g>
<g>
</g>
<g>
</g>
<g>
</g>
<g>
</g>
</svg>
