<?xml version="1.0" encoding="iso-8859-1"?>
<!-- Generator: Adobe Illustrator 19.0.0, SVG Export Plug-In . SVG Version: 6.00 Build 0)  -->
<svg xmlns="http://www.w3.org/2000/svg" xmlns:xlink="http://www.w3.org/1999/xlink" version="1.1" id="Capa_1" x="0px" y="0px" viewBox="0 0 512 512" style="enable-background:new 0 0 512 512;" xml:space="preserve">
<g>
	<path style="fill:#E4E7E9;" d="M446.968,194.299H65.032v281.077c0,16.085,13.039,29.124,29.124,29.124h323.688   c16.085,0,29.124-13.039,29.124-29.124V194.299z"/>
	<polygon style="fill:#E4E7E9;" points="446.968,194.299 65.032,194.299 130.788,88.114 381.212,88.114  "/>
</g>
<polygon style="opacity:0.1;enable-background:new    ;" points="446.968,194.299 65.032,194.299 130.788,88.114 381.212,88.114 "/>
<path style="fill:#E4E7E9;" d="M362.923,7.5H149.077c-10.101,0-18.289,8.188-18.289,18.289v62.325h250.425V25.789  C381.212,15.688,373.024,7.5,362.923,7.5z"/>
<path style="opacity:0.1;enable-background:new    ;" d="M362.923,7.5H318.94c10.101,0,18.289,8.188,18.289,18.289v62.325h43.983  V25.789C381.212,15.688,373.024,7.5,362.923,7.5z"/>
<g>
	<path style="fill:#6FA1DA;" d="M408.893,412.921L408.893,412.921c-18.154,13.491-43.004,13.491-61.157,0l0,0   c-18.154-13.491-43.004-13.491-61.157,0l0,0c-18.154,13.491-43.004,13.491-61.157,0l0,0c-18.154-13.491-43.004-13.491-61.157,0l0,0   c-18.154,13.491-43.004,13.491-61.157,0l0,0c-11.193-8.318-24.93-11.5-38.075-9.561v72.016c0,16.085,13.039,29.124,29.124,29.124   h323.688c16.084,0,29.124-13.039,29.124-29.124V403.36C433.823,401.422,420.086,404.603,408.893,412.921z"/>
	<path style="fill:#6FA1DA;" d="M381.212,88.114H130.788l-41.596,67.171c4.896-1.681,9.596-4.117,13.915-7.327l0,0   c18.154-13.491,43.004-13.491,61.157,0l0,0c18.154,13.491,43.004,13.491,61.157,0l0,0c18.154-13.491,43.004-13.491,61.157,0l0,0   c18.153,13.491,43.003,13.491,61.157,0l0,0c18.154-13.491,43.004-13.491,61.157,0l0,0c4.319,3.21,9.018,5.646,13.915,7.327   L381.212,88.114z"/>
</g>
<g style="opacity:0.4;">
	<ellipse style="fill:#F9B0B6;" cx="335.36" cy="293.54" rx="35.38" ry="21.2"/>
	<ellipse style="fill:#F9B0B6;" cx="176.64" cy="293.54" rx="35.38" ry="21.2"/>
</g>
<path style="fill:#4A5058;" d="M281.657,264.401c0,13.971-11.574,25.239-25.657,24.738c-13.414-0.477-23.851-11.909-23.852-25.332  v-17.411c0-3.728,3.022-6.75,6.749-6.75h36.009c3.728,0,6.75,3.022,6.75,6.75v18.005H281.657z"/>
<circle style="fill:#FDB876;" cx="256" cy="439.77" r="27"/>
<path style="opacity:0.1;enable-background:new    ;" d="M270.007,416.682h-28.015c-7.79,4.736-12.993,13.304-12.993,23.087  c0,4.743,1.227,9.198,3.374,13.071h47.252c2.148-3.873,3.374-8.328,3.374-13.071C283,429.987,277.797,421.419,270.007,416.682z"/>
<path style="fill:#FDB876;" d="M277.634,343.096h-43.267c-7.535,0-14.162,4.982-16.256,12.22l-3.005,10.387  c-4.937,17.068-7.442,34.746-7.442,52.513v11.011c0,5.822,4.72,10.542,10.542,10.542h75.589c5.822,0,10.542-4.72,10.542-10.542  v-11.011c0-17.767-2.505-35.445-7.442-52.513l-3.005-10.387C291.796,348.078,285.169,343.096,277.634,343.096z"/>
<path style="opacity:0.1;enable-background:new    ;" d="M296.894,365.704l-3.005-10.387c-2.094-7.238-8.721-12.22-16.256-12.22  h-15.382c7.535,0,14.163,4.982,16.256,12.22l3.005,10.387c4.937,17.068,7.442,34.746,7.442,52.513v11.011  c0,5.822-4.72,10.542-10.542,10.542h15.382c5.822,0,10.542-4.72,10.542-10.542v-11.011  C304.337,400.45,301.831,382.772,296.894,365.704z"/>
<rect x="248.5" y="7.5" style="opacity:0.1;enable-background:new    ;" width="15" height="80.61"/>
<rect x="179.23" y="7.5" style="opacity:0.1;enable-background:new    ;" width="15" height="80.61"/>
<rect x="317.77" y="7.5" style="opacity:0.1;enable-background:new    ;" width="15" height="80.61"/>
<g>
	<path style="fill:#FFFFFF;" d="M400.476,469.232h-38.527c-4.142,0-7.5-3.357-7.5-7.5s3.358-7.5,7.5-7.5h38.527   c4.142,0,7.5,3.357,7.5,7.5S404.618,469.232,400.476,469.232z"/>
	<path style="fill:#FFFFFF;" d="M401.899,380.527h-41.374c-2.952,0-5.346-2.393-5.346-5.346v-16.517   c0-2.952,2.393-5.346,5.346-5.346h41.374c2.953,0,5.346,2.394,5.346,5.346v16.517C407.245,378.133,404.852,380.527,401.899,380.527   z"/>
</g>
<path style="opacity:0.1;enable-background:new    ;" d="M381.212,88.114H337.23L402.985,194.3v281.077  c0,16.085-13.039,29.124-29.124,29.124h43.983c16.085,0,29.124-13.039,29.124-29.124V194.299L381.212,88.114z"/>
<path d="M162.516,238.514v14.665c0,4.143,3.358,7.5,7.5,7.5s7.5-3.357,7.5-7.5v-14.665c0-4.143-3.358-7.5-7.5-7.5  C165.874,231.014,162.516,234.371,162.516,238.514z M334.484,238.514v14.665c0,4.143,3.358,7.5,7.5,7.5s7.5-3.357,7.5-7.5v-14.665  c0-4.143-3.358-7.5-7.5-7.5C337.842,231.014,334.484,234.371,334.484,238.514z M446.968,236.47c4.142,0,7.5-3.357,7.5-7.5V194.3  c0-0.059-0.008-0.117-0.009-0.176c-0.003-0.15-0.01-0.301-0.023-0.451c-0.009-0.103-0.02-0.205-0.033-0.307  c-0.017-0.139-0.038-0.278-0.064-0.417c-0.02-0.112-0.043-0.223-0.069-0.333c-0.028-0.123-0.06-0.245-0.095-0.368  s-0.073-0.245-0.114-0.366c-0.036-0.105-0.074-0.21-0.115-0.314c-0.052-0.134-0.108-0.265-0.168-0.395  c-0.042-0.091-0.085-0.181-0.13-0.27c-0.07-0.137-0.145-0.271-0.223-0.404c-0.029-0.049-0.052-0.1-0.082-0.149l-24.142-38.985  c-0.002-0.004-0.005-0.008-0.007-0.011L388.712,85.98V25.789C388.712,11.569,377.144,0,362.923,0H149.077  c-14.22,0-25.789,11.569-25.789,25.789v13.793c0,4.143,3.358,7.5,7.5,7.5s7.5-3.357,7.5-7.5V25.789  c0-5.949,4.84-10.789,10.789-10.789h213.847c5.949,0,10.789,4.84,10.789,10.789v54.825H138.288V68.295c0-4.143-3.358-7.5-7.5-7.5  s-7.5,3.357-7.5,7.5V85.98l-40.481,65.372c-0.004,0.006-0.007,0.011-0.01,0.017l-24.14,38.983c-0.03,0.049-0.053,0.1-0.082,0.149  c-0.078,0.132-0.153,0.266-0.223,0.404c-0.046,0.089-0.088,0.179-0.13,0.27c-0.06,0.13-0.116,0.261-0.168,0.395  c-0.041,0.104-0.079,0.209-0.115,0.314c-0.041,0.121-0.079,0.242-0.114,0.366c-0.035,0.122-0.066,0.245-0.095,0.368  c-0.025,0.11-0.048,0.221-0.069,0.333c-0.025,0.139-0.046,0.277-0.064,0.417c-0.013,0.102-0.024,0.204-0.033,0.307  c-0.013,0.15-0.019,0.301-0.023,0.451c-0.001,0.059-0.009,0.116-0.009,0.176v281.076C57.532,495.57,73.961,512,94.156,512h323.688  c20.194,0,36.624-16.43,36.624-36.624V261.853c0-4.143-3.358-7.5-7.5-7.5s-7.5,3.357-7.5,7.5v133.449  c-12.581-0.026-24.779,3.97-35.048,11.601c-15.614,11.604-36.596,11.604-52.21,0c-12.129-9.014-26.936-12.91-41.675-11.208  c-1.25-10.837-3.396-21.565-6.436-32.074l-3.005-10.387c-3.003-10.384-12.65-17.637-23.46-17.637h-43.268  c-10.81,0-20.457,7.253-23.461,17.637l-3.004,10.387c-3.04,10.51-5.185,21.237-6.436,32.075  c-14.739-1.702-29.546,2.194-41.675,11.208c-7.986,5.935-17.855,8.983-27.807,8.604c-4.127-0.174-7.624,3.064-7.785,7.203  c-0.161,4.139,3.064,7.624,7.203,7.785c0.753,0.029,1.505,0.044,2.257,0.044c12.582,0,24.96-4.077,35.079-11.598  c9.179-6.822,20.42-9.706,31.575-8.279c-0.097,2.515-0.15,5.034-0.15,7.554v11.011c0,9.948,8.094,18.042,18.042,18.042h4.125  c3.435,15.428,17.222,27.001,33.67,27.001s30.235-11.573,33.67-27.001h4.125c9.949,0,18.042-8.094,18.042-18.042v-11.011  c0-2.521-0.053-5.039-0.15-7.554c11.155-1.427,22.396,1.457,31.575,8.279c10.483,7.791,22.767,11.686,35.052,11.686  c12.285-0.001,24.57-3.896,35.053-11.686c7.646-5.683,16.73-8.659,26.101-8.639v65.073c0,11.924-9.7,21.624-21.624,21.624H94.156  c-11.923,0-21.624-9.7-21.624-21.624v-65.072c9.37-0.019,18.455,2.955,26.101,8.637c1.344,0.999,2.913,1.48,4.468,1.48  c2.291,0,4.554-1.046,6.025-3.026c2.471-3.324,1.779-8.023-1.546-10.493c-10.269-7.632-22.468-11.626-35.048-11.601V201.8h366.936  v27.17C439.468,233.112,442.826,236.47,446.968,236.47z M256,459.271c-8.096,0-15.051-4.961-17.996-12.001h35.992  C271.051,454.31,264.096,459.271,256,459.271z M296.837,429.228c0,1.678-1.365,3.042-3.043,3.042h-75.589  c-1.677,0-3.042-1.364-3.042-3.042v-11.011c0-17.067,2.405-34.034,7.147-50.429l3.004-10.387c1.159-4.007,4.881-6.805,9.052-6.805  h43.268c4.17,0,7.893,2.798,9.051,6.805l3.005,10.387c4.742,16.395,7.147,33.361,7.147,50.429V429.228z M134.965,95.614h242.071  l24.429,39.45c-18.945-8.197-40.999-5.912-58.202,6.874c-15.614,11.604-36.596,11.604-52.21,0  c-20.966-15.582-49.139-15.582-70.104,0c-15.614,11.604-36.596,11.604-52.21,0c-17.204-12.786-39.257-15.072-58.203-6.874  L134.965,95.614z M78.498,186.8l15.721-25.387c4.764-1.89,9.25-4.38,13.362-7.435c15.615-11.604,36.596-11.602,52.21,0  c20.966,15.582,49.139,15.582,70.105,0c15.614-11.604,36.596-11.604,52.21,0c10.483,7.791,22.768,11.687,35.052,11.687  c12.285,0,24.569-3.895,35.052-11.687c15.615-11.604,36.597-11.602,52.209,0c4.112,3.056,8.598,5.546,13.362,7.436l15.721,25.387  H78.498V186.8z M238.898,232.146c-7.857,0-14.249,6.393-14.249,14.249v17.412c0,17.49,13.944,32.216,31.085,32.826  c0.397,0.015,0.792,0.022,1.187,0.022c8.401,0,16.309-3.186,22.378-9.044c6.357-6.135,9.858-14.378,9.858-23.211v-18.005  c0-7.856-6.392-14.249-14.25-14.249L238.898,232.146L238.898,232.146z M274.157,264.4c0,4.726-1.873,9.136-5.274,12.418  c-3.399,3.28-7.862,5-12.616,4.825c-9.163-0.326-16.618-8.327-16.618-17.836v-16.661h34.508L274.157,264.4L274.157,264.4z"/>
<g>
</g>
<g>
</g>
<g>
</g>
<g>
</g>
<g>
</g>
<g>
</g>
<g>
</g>
<g>
</g>
<g>
</g>
<g>
</g>
<g>
</g>
<g>
</g>
<g>
</g>
<g>
</g>
<g>
</g>
</svg>
