<?xml version="1.0" encoding="iso-8859-1"?>
<!-- Generator: Adobe Illustrator 19.0.0, SVG Export Plug-In . SVG Version: 6.00 Build 0)  -->
<svg xmlns="http://www.w3.org/2000/svg" xmlns:xlink="http://www.w3.org/1999/xlink" version="1.1" id="Capa_1" x="0px" y="0px" viewBox="0 0 512.002 512.002" style="enable-background:new 0 0 512.002 512.002;" xml:space="preserve">
<path style="fill:#A3D6EB;" d="M302.275,496.262h-178.98c-11.967,0-22.165-8.684-24.072-20.499L47.722,156.612  c-2.169-13.444,8.212-25.634,21.829-25.634H356.02c13.617,0,23.999,12.191,21.829,25.634l-51.502,319.151  C324.44,487.578,314.242,496.262,302.275,496.262z"/>
<path style="opacity:0.3;fill:#FFFFFF;enable-background:new    ;" d="M92.359,433.221l6.865,42.542  c1.907,11.814,12.105,20.498,24.072,20.498h178.979c11.967,0,22.165-8.684,24.072-20.498l6.865-42.542H92.359z"/>
<path style="fill:#6FA1DA;" d="M160.925,292.531l-52.578-225.04c-2.516-10.768-11.997-18.289-23.055-18.289H14.746  c-4.002,0-7.246-3.244-7.246-7.246v-18.97c0-4.002,3.244-7.247,7.246-7.247H85.29c26.688,0,49.568,18.15,55.64,44.138l52.578,225.04  L160.925,292.531z"/>
<path style="opacity:0.1;enable-background:new    ;" d="M140.931,59.877c-6.072-25.988-28.953-44.138-55.64-44.138v33.462  c11.058,0,20.539,7.521,23.055,18.289l2.998,12.829h34.364L140.931,59.877z"/>
<path style="fill:#E8757D;" d="M337.622,237.57c-22.982-22.982-60.243-22.982-83.224,0l0,0c-22.982,22.982-60.243,22.982-83.225,0  l0,0c-22.982-22.982-60.243-22.982-83.224,0l0,0c-7.16,7.16-15.707,12.088-24.776,14.786L92.36,433.22h240.853L362.4,252.356  C353.329,249.658,344.782,244.73,337.622,237.57z"/>
<path style="opacity:0.5;fill:#FFFFFF;enable-background:new    ;" d="M337.622,237.57c-22.982-22.982-60.243-22.982-83.224,0l0,0  c-22.982,22.982-60.243,22.982-83.225,0l0,0c-22.982-22.982-60.243-22.982-83.224,0l0,0c-7.16,7.161-15.707,12.088-24.776,14.786  l3.998,24.773c7.574-2.862,14.682-7.324,20.779-13.421l0,0c22.982-22.982,60.242-22.982,83.224,0l0,0  c22.982,22.982,60.243,22.982,83.225,0l0,0c22.982-22.982,60.243-22.982,83.224,0c6.097,6.097,13.205,10.559,20.779,13.421  l3.998-24.773C353.329,249.658,344.782,244.731,337.622,237.57z"/>
<path style="opacity:0.1;enable-background:new    ;" d="M356.02,130.978h-70.972c13.617,0,23.999,12.191,21.829,25.634  l-51.502,319.151c-1.906,11.814-12.105,20.499-24.072,20.499h70.972c11.967,0,22.165-8.685,24.071-20.499l51.502-319.151  C380.018,143.169,369.637,130.978,356.02,130.978z"/>
<path style="fill:#E8757D;" d="M427.335,337.123c-9.61-0.286-18.848,1.137-27.44,3.981c-2.026,0.671-4.208,0.671-6.234,0  c-8.592-2.844-17.831-4.267-27.441-3.981c-41.175,1.227-74.948,34.223-77.056,75.363c-2.35,45.857,34.137,83.776,79.48,83.776  c3.935,0,7.803-0.286,11.585-0.839c10.975-1.604,22.124-1.604,33.098,0c3.782,0.553,7.65,0.839,11.585,0.839  c45.344,0,81.831-37.919,79.48-83.778C502.284,371.345,468.511,338.35,427.335,337.123z"/>
<path style="opacity:0.1;enable-background:new    ;" d="M504.392,412.484c-2.109-41.139-35.882-74.135-77.057-75.361  c-9.61-0.286-18.848,1.137-27.44,3.981c-2.026,0.671-4.208,0.671-6.234,0c-8.592-2.844-17.831-4.267-27.441-3.981  c-10.029,0.299-19.613,2.495-28.413,6.222l0,0c0.536,3.899,3.944,6.841,7.965,6.709l0.238-0.008  c4.882-0.161,9.748,0.181,14.459,1.053c4.708,0.839,9.263,2.233,13.395,4.042c0.711,0.311,1.406,0.645,2.092,0.988  c-4.796,2.102-9.276,4.48-13.581,7.081c-5.335,3.234-10.404,6.771-15.247,10.792c-2.421,2.016-4.784,4.149-7.078,6.526  c-2.287,2.392-4.534,4.983-6.607,8.518c-1.837,3.131-1.368,7.227,1.365,9.85c3.198,3.07,8.278,2.966,11.348-0.231  c3.482-3.627,7.636-6.356,12.022-8.76c4.497-2.465,9.314-4.608,14.176-6.395c4.856-1.789,9.821-3.225,14.547-4.079  c1.669-0.301,3.306-0.52,4.853-0.642c1.102-0.091,1.313,0.363,1.713,0.908c1.655,2.463,3.136,5.199,4.342,8.113  c1.187,2.822,2.161,5.797,2.84,8.734c0.899,3.744,1.077,7.642,1.696,11.439c0.529,3.195,2.757,6.002,6.039,7.114  c11.706,3.968,13.666-12.675,13.727-20.383c0.035-4.447-0.334-8.788-1.05-13.128c-0.322-1.966-0.735-3.927-1.222-5.885  c4.484,0.143,9.165,0.758,13.719,1.716c5.414,1.138,10.718,2.856,15.359,5.115c2.307,1.13,4.43,2.418,6.143,3.789  c1.722,1.369,2.968,2.796,3.693,4.05l0.657,1.139c1.905,3.293,5.877,4.984,9.687,3.859c0.42-0.124,0.817-0.287,1.202-0.468  c1.597,5.635,2.601,11.518,2.909,17.584c2.071,40.743-26.256,75.216-64.13,82.401l0,0c1.419,0.153,2.837,0.331,4.251,0.538  c3.782,0.552,7.65,0.839,11.585,0.839C470.256,496.262,506.743,458.343,504.392,412.484z"/>
<g>
	<path style="fill:#7CD1A9;" d="M471.139,376.86c-1.387-4.696-3.919-8.487-6.611-11.573c-2.721-3.097-5.684-5.586-8.716-7.773   c-6.085-4.329-12.47-7.545-19.065-10.129c-3.577-1.385-7.208-2.597-10.942-3.611c0.58-0.394,1.167-0.782,1.762-1.162   c4.481-2.912,9.481-5.28,14.658-7.388c5.448-2.218,11.066-3.752,16.74-5.257c3.426-0.909,5.842-4.14,5.599-7.81   c-0.277-4.168-3.879-7.322-8.047-7.045c-13.19,0.876-26.343,2.729-38.703,7.647c-6.379,2.506-12.671,5.687-18.678,9.968   c-0.613,0.443-1.22,0.911-1.826,1.382c-0.55-0.381-1.099-0.751-1.647-1.1c-6.434-3.976-12.793-5.967-19.067-7.283   c-6.277-1.258-12.487-1.738-18.613-1.533c-6.123,0.179-12.157,1.042-18.007,2.5c-3.485,0.867-6.019,4.073-5.896,7.807   c0.141,4.296,3.738,7.664,8.035,7.523l0.238-0.008c4.882-0.161,9.748,0.181,14.459,1.053c4.708,0.839,9.263,2.233,13.395,4.042   c0.711,0.311,1.406,0.646,2.092,0.989c-4.796,2.102-9.276,4.48-13.581,7.081c-5.335,3.234-10.404,6.771-15.246,10.792   c-2.421,2.016-4.784,4.149-7.078,6.526c-2.287,2.392-4.534,4.984-6.607,8.518c-1.836,3.13-1.368,7.227,1.365,9.85   c3.197,3.07,8.278,2.966,11.348-0.231c3.482-3.627,7.636-6.356,12.022-8.76c4.497-2.465,9.314-4.608,14.176-6.395   c4.856-1.79,9.821-3.225,14.547-4.079c1.669-0.301,3.306-0.52,4.853-0.642c1.102-0.091,1.313,0.363,1.713,0.908   c1.655,2.463,3.136,5.199,4.342,8.112c1.187,2.822,2.161,5.797,2.84,8.734c0.899,3.744,1.077,7.642,1.696,11.439   c0.529,3.195,2.757,6.002,6.038,7.114c11.706,3.968,13.666-12.675,13.727-20.383c0.035-4.447-0.334-8.788-1.05-13.128   c-0.322-1.966-0.735-3.927-1.222-5.885c4.484,0.143,9.164,0.758,13.719,1.716c5.414,1.138,10.718,2.856,15.359,5.115   c2.307,1.13,4.43,2.417,6.143,3.789c1.722,1.369,2.968,2.796,3.693,4.05l0.657,1.139c1.905,3.293,5.877,4.984,9.687,3.859   C469.907,386.017,472.459,381.326,471.139,376.86z"/>
	<path style="fill:#7CD1A9;" d="M399.839,356.125c-6.305,0-11.415-5.111-11.415-11.415c0-27.903,14.954-56.558,29.412-68.139   c4.92-3.941,12.104-3.148,16.046,1.772c3.941,4.921,3.148,12.105-1.773,16.047c-8.524,6.828-20.855,28.677-20.855,50.32   C411.255,351.014,406.144,356.125,399.839,356.125z"/>
</g>
<path style="opacity:0.15;fill:#FFFFFF;enable-background:new    ;" d="M399.839,356.125c-6.305,0-11.415-5.111-11.415-11.415  c0-27.903,14.954-56.558,29.412-68.139c4.92-3.941,12.104-3.148,16.046,1.772c3.941,4.921,3.148,12.105-1.773,16.047  c-8.524,6.828-20.855,28.677-20.855,50.32C411.255,351.014,406.144,356.125,399.839,356.125z"/>
<path d="M511.883,412.099c-0.164-3.2-0.51-6.42-1.027-9.57c-0.671-4.088-4.529-6.855-8.615-6.187  c-4.088,0.671-6.857,4.528-6.187,8.616c0.427,2.603,0.712,5.264,0.848,7.909c1.025,20.003-5.978,38.985-19.719,53.448  c-13.751,14.475-32.315,22.445-52.271,22.445c-3.517,0-7.05-0.256-10.501-0.76c-11.701-1.711-23.567-1.711-35.267,0  c-3.451,0.504-6.983,0.76-10.5,0.76c-14.569,0-28.386-4.266-40.14-12.191c-0.17-0.122-0.345-0.239-0.527-0.348  c-4.149-2.851-8.041-6.155-11.604-9.905c-9.302-9.79-15.503-21.655-18.23-34.501c-0.026-0.139-0.06-0.274-0.094-0.41  c-1.237-6.004-1.719-12.218-1.395-18.536c1.45-28.29,19.429-53.011,45.928-63.359l0.018-0.001c3.462-0.116,6.874,0.057,10.199,0.508  c-5.112,3.21-9.75,6.556-14.126,10.189c-2.887,2.404-5.397,4.721-7.699,7.108c-2.36,2.469-5.116,5.576-7.656,9.905  c-3.649,6.223-2.564,14.058,2.641,19.057c6.176,5.929,16.024,5.727,21.952-0.448c2.492-2.596,5.643-4.871,10.217-7.378  c4.021-2.205,8.449-4.201,13.164-5.935c4.718-1.738,9.189-2.996,13.284-3.736c0.244-0.044,0.485-0.085,0.725-0.125  c0.715,1.292,1.362,2.638,1.939,4.031c1.03,2.448,1.875,5.047,2.46,7.578c0.454,1.89,0.701,3.988,0.962,6.21  c0.178,1.513,0.362,3.077,0.627,4.701c1.001,6.047,5.227,11.025,11.03,12.993c1.947,0.659,3.876,0.986,5.739,0.986  c3.095,0,6.007-0.902,8.508-2.681c8.037-5.715,9.331-18.575,9.387-25.732c0.028-3.53-0.17-7.026-0.603-10.593  c0.993,0.171,1.996,0.362,3.006,0.575c4.993,1.05,9.703,2.612,13.603,4.511c1.893,0.927,3.537,1.933,4.774,2.923  c1.35,1.074,1.82,1.85,1.863,1.925l0.663,1.149c3.695,6.388,11.223,9.39,18.304,7.296c8.425-2.488,13.255-11.367,10.768-19.792  c-1.376-4.662-3.723-8.976-7.142-13.166c6.271,5.255,11.69,11.569,15.905,18.716c1.399,2.371,3.899,3.69,6.467,3.69  c1.295,0,2.607-0.335,3.803-1.041c3.568-2.104,4.754-6.702,2.65-10.27c-9.218-15.628-23.205-27.968-39.478-35.354  c0.12-0.032,0.233-0.063,0.354-0.095c6.942-1.842,11.635-8.384,11.159-15.555c-0.266-4.015-2.08-7.686-5.107-10.336  c-3.028-2.651-6.907-3.957-10.92-3.696c-8.08,0.536-17.938,1.507-28.146,4.063c2.484-4.614,5.46-8.675,8.922-11.448  c8.14-6.52,9.458-18.447,2.937-26.59c-6.521-8.139-18.449-9.456-26.588-2.936c-11.396,9.129-23.307,27.667-28.921,49.176  c-1.938-0.562-3.974-1.066-6.155-1.523c-6.072-1.217-12.276-1.787-18.453-1.712l17.521-108.573c0.66-4.09-2.12-7.939-6.209-8.6  c-4.087-0.66-7.939,2.12-8.599,6.209l-5.854,36.279c-4.987-2.472-9.587-5.742-13.551-9.707  c-12.532-12.531-29.193-19.433-46.915-19.433c-17.722,0-34.384,6.901-46.916,19.433c-15.594,15.595-38.805,19.04-57.769,10.34  l-24.328-104.128H356.02c4.289,0,8.344,1.873,11.125,5.139c2.781,3.265,3.984,7.566,3.3,11.801l-2.819,17.47  c-0.66,4.089,2.12,7.938,6.21,8.599c0.405,0.065,0.807,0.097,1.204,0.097c3.616,0,6.8-2.622,7.395-6.307l2.819-17.469  c1.385-8.581-1.053-17.298-6.688-23.916c-5.635-6.617-13.853-10.413-22.545-10.413H163.493l-15.258-65.307  C141.366,28.772,115.482,8.24,85.29,8.24H14.747C6.615,8.24,0,14.855,0,22.986v18.969c0,8.132,6.615,14.747,14.747,14.747H85.29  c7.556,0,14.033,5.139,15.753,12.495l12.682,54.281H69.551c-8.692,0-16.91,3.796-22.545,10.413  c-5.635,6.618-8.073,15.335-6.688,23.915L91.82,476.958c2.507,15.53,15.744,26.803,31.476,26.803h178.98  c9.411,0,18.058-4.057,24.013-10.93c12.778,7.138,27.235,10.93,42.357,10.93c4.24,0,8.503-0.309,12.669-0.918  c10.261-1.498,20.667-1.498,30.929,0c4.166,0.609,8.429,0.918,12.669,0.918c24.109,0,46.535-9.629,63.145-27.113  C504.66,459.174,513.121,436.251,511.883,412.099z M457.016,322.596l0.028,0.122c-6.266,1.662-11.919,3.228-17.645,5.56  c-6.46,2.63-11.518,5.187-15.866,8.012c-0.655,0.418-1.302,0.847-1.94,1.279c-1.159,0.787-2.038,1.867-2.598,3.091  c0.337-3.215,1.035-7.056,2.084-11.12C430.798,325.746,441.911,323.597,457.016,322.596z M358.234,331.687  c5.661-0.188,11.342,0.279,16.825,1.378c2.327,0.487,4.44,1.038,6.422,1.673c-0.358,3.298-0.558,6.628-0.558,9.972  c0,4.143,3.358,7.5,7.5,7.5s7.5-3.357,7.5-7.5c0-25.311,13.808-52.037,26.602-62.285c1.685-1.351,4.154-1.077,5.503,0.607  c1.35,1.686,1.078,4.155-0.607,5.505c-6.692,5.361-15.118,18.002-19.897,33.113c-0.053,0.154-0.105,0.309-0.149,0.467  c-2.222,7.16-3.62,14.859-3.62,22.595c0,4.143,3.358,7.5,7.5,7.5c3.713,0,6.787-2.7,7.386-6.243  c0.747,2.441,2.693,4.364,5.201,5.044c3.38,0.917,6.716,2.019,10.17,3.357c6.652,2.606,12.361,5.634,17.413,9.228  c3.046,2.198,5.42,4.31,7.452,6.621c2.524,2.895,4.183,5.762,5.07,8.768c0.146,0.493-0.138,1.013-0.63,1.158  c-0.462,0.14-0.89-0.107-1.065-0.41l-0.662-1.149c-1.245-2.152-3.153-4.284-5.499-6.149c-2.092-1.675-4.626-3.246-7.548-4.677  c-5.006-2.438-10.918-4.412-17.097-5.712c-5.185-1.09-10.24-1.72-15.025-1.872c-2.348-0.091-4.597,0.955-6.073,2.784  c-1.477,1.828-2.011,4.243-1.443,6.523c0.452,1.816,0.822,3.596,1.101,5.295c0.67,4.064,0.981,7.939,0.95,11.849  c-0.061,7.786-1.936,12.589-2.974,13.539c-0.142-0.012-0.415-0.055-0.846-0.2c-0.658-0.224-0.972-0.785-1.043-1.218  c-0.208-1.277-0.365-2.611-0.531-4.024c-0.301-2.559-0.613-5.205-1.26-7.896c-0.77-3.335-1.858-6.685-3.218-9.916  c-1.373-3.315-3.071-6.487-5.047-9.427c-0.057-0.084-0.159-0.229-0.219-0.311c-2.549-3.576-5.947-4.09-8.309-3.891  c-1.772,0.14-3.654,0.388-5.598,0.737c-4.954,0.897-10.272,2.384-15.801,4.421c-5.408,1.989-10.52,4.296-15.192,6.857  c-3.705,2.031-9.169,5.292-13.827,10.144c-0.2,0.209-0.535,0.216-0.743,0.017c-0.22-0.212-0.175-0.503-0.09-0.647  c1.754-2.99,3.708-5.194,5.536-7.105c1.896-1.966,4.016-3.919,6.471-5.963c4.366-3.625,9.058-6.945,14.333-10.143  c4.3-2.598,8.458-4.767,12.714-6.632c2.665-1.168,4.414-3.772,4.487-6.68c0.074-2.908-1.542-5.597-4.144-6.897  c-0.911-0.456-1.685-0.821-2.439-1.151c-4.77-2.088-9.846-3.62-15.037-4.546c-5.181-0.959-10.589-1.356-16.07-1.174l-0.24,0.008  c-0.039,0-0.117,0.004-0.203-0.076c-0.085-0.08-0.088-0.158-0.089-0.197c-0.006-0.19,0.165-0.272,0.214-0.283  C347.223,332.615,352.745,331.848,358.234,331.687z M85.29,41.702H15V23.24h70.29c23.186,0,43.063,15.768,48.337,38.344  l39.065,167.203c-6.498-5.579-13.906-9.785-21.874-12.471l-35.17-150.531C112.336,51.605,99.852,41.702,85.29,41.702z   M55.126,155.417c-0.684-4.233,0.519-8.535,3.3-11.8c2.781-3.266,6.835-5.139,11.125-5.139h47.679l17.422,74.567  c-1.687-0.127-3.382-0.211-5.091-0.211c-17.722,0-34.384,6.901-46.915,19.433c-3.965,3.965-8.564,7.235-13.551,9.707L55.126,155.417  z M302.275,488.762h-178.98c-8.331,0-15.34-5.969-16.668-14.192l-5.462-33.849h13.346c4.142,0,7.5-3.357,7.5-7.5s-3.358-7.5-7.5-7.5  H98.745L71.571,257.324c8.067-3.323,15.472-8.241,21.681-14.45c9.699-9.699,22.593-15.04,36.309-15.04  c4.289,0,8.498,0.523,12.553,1.537c0.266,0.09,0.536,0.164,0.812,0.224c8.597,2.302,16.482,6.817,22.944,13.279  c4.62,4.62,9.765,8.4,15.235,11.37c0.076,0.043,0.151,0.087,0.229,0.128c9.784,5.261,20.615,7.904,31.451,7.904  c16.99,0,33.981-6.468,46.915-19.401c9.699-9.699,22.593-15.04,36.309-15.04s26.61,5.341,36.309,15.04  c6.208,6.208,13.613,11.127,21.681,14.45l-9.812,60.805c-2.015,0.364-4.024,0.787-6.021,1.285  c-6.946,1.728-11.816,8.177-11.581,15.332c0.059,1.794,0.441,3.523,1.084,5.143c-26.754,14.281-44.422,41.504-45.995,72.213  c-0.235,4.593-0.118,9.142,0.338,13.618h-136.07c-4.142,0-7.5,3.357-7.5,7.5s3.358,7.5,7.5,7.5h138.944  c3.796,13.304,10.775,25.573,20.613,35.929c2.605,2.742,5.367,5.266,8.242,7.614C310.684,487.115,306.633,488.762,302.275,488.762z"/>
<g>
</g>
<g>
</g>
<g>
</g>
<g>
</g>
<g>
</g>
<g>
</g>
<g>
</g>
<g>
</g>
<g>
</g>
<g>
</g>
<g>
</g>
<g>
</g>
<g>
</g>
<g>
</g>
<g>
</g>
</svg>
