<?xml version="1.0" encoding="iso-8859-1"?>
<!-- Generator: Adobe Illustrator 19.0.0, SVG Export Plug-In . SVG Version: 6.00 Build 0)  -->
<svg xmlns="http://www.w3.org/2000/svg" xmlns:xlink="http://www.w3.org/1999/xlink" version="1.1" id="Capa_1" x="0px" y="0px" viewBox="0 0 512 512" style="enable-background:new 0 0 512 512;" xml:space="preserve">
<path style="fill:#93827E;" d="M177.36,92.332l-25.102-68.967l-56.076,20.41l25.102,68.967c3.393,9.324,3.304,19.56-0.253,28.822  l-5.718,14.891c-6.435,16.756-6.597,35.273-0.458,52.14l45.405,124.749c4.103,11.273,16.567,17.085,27.84,12.982l88.222-32.11  c11.273-4.103,17.085-16.568,12.982-27.84l-45.405-124.749c-6.139-16.867-18.166-30.947-33.866-39.647l-13.952-7.731  C187.402,109.439,180.753,101.656,177.36,92.332z"/>
<rect x="111.272" y="66.099" transform="matrix(-0.9397 0.342 -0.342 -0.9397 301.0687 106.9076)" style="fill:#E8757D;" width="59.675" height="27.792"/>
<path style="fill:#FFFFFF;" d="M132.177,90.739c-3.064,0-5.939-1.891-7.048-4.937c-1.417-3.893,0.59-8.196,4.483-9.613l17.873-6.505  c3.891-1.414,8.195,0.59,9.613,4.482c1.416,3.893-0.59,8.196-4.483,9.613l-17.873,6.505  C133.895,90.593,133.029,90.739,132.177,90.739z"/>
<path style="opacity:0.1;enable-background:new    ;" d="M210.033,121.98l-13.952-7.731c-8.679-4.809-15.327-12.593-18.721-21.916  l-25.102-68.967l-56.077,20.41l7.754,21.305l37.641-13.7l17.348,47.662c3.393,9.324,10.042,17.107,18.721,21.916l13.952,7.731  c15.7,8.7,27.727,22.78,33.866,39.647l45.405,124.749c4.103,11.273-1.709,23.737-12.982,27.84l18.435-6.71  c11.273-4.103,17.085-16.568,12.982-27.84l-45.405-124.749C237.759,144.76,225.732,130.679,210.033,121.98z"/>
<path style="fill:#E4E7E9;" d="M87.989,40.319l4.121,11.322c0.584,1.604,2.853,1.608,3.435,0.004  c0.952-2.628,2.98-5.196,7.034-6.672c3.369-1.226,6.929-0.865,9.86,0.702c2.155,1.152,4.901,0.152,5.812-2.115  c1.239-3.084,3.733-5.649,7.102-6.876c3.369-1.226,6.929-0.865,9.86,0.702c2.155,1.152,4.901,0.152,5.812-2.115  c1.238-3.084,3.733-5.649,7.102-6.875c4.054-1.476,7.258-0.811,9.677,0.59c1.477,0.856,3.213-0.606,2.629-2.21l-4.121-11.325  c-2.282-6.269-9.214-9.502-15.483-7.22l-45.62,16.604C88.94,27.118,85.707,34.05,87.989,40.319z"/>
<path style="opacity:0.1;enable-background:new    ;" d="M140.829,8.232l-11.523,4.194c6.269-2.282,13.201,0.951,15.483,7.22  l3.205,8.806c0.046-0.017,0.088-0.04,0.134-0.057c4.054-1.476,7.258-0.812,9.677,0.59c1.477,0.856,3.213-0.606,2.629-2.21  l-4.122-11.324C154.03,9.182,147.098,5.95,140.829,8.232z"/>
<path style="fill:#93827E;" d="M398.129,112.764l25.102-68.967l-56.076-20.41l-25.103,68.967  c-3.394,9.324-10.042,17.107-18.721,21.916l-13.952,7.731c-15.7,8.7-27.727,22.78-33.866,39.647l-45.405,124.749  c-4.103,11.273,1.709,23.737,12.982,27.84l88.223,32.11c11.273,4.103,23.738-1.709,27.84-12.982l45.405-124.749  c6.139-16.867,5.976-35.383-0.458-52.14l-5.718-14.891C394.825,132.324,394.735,122.088,398.129,112.764z"/>
<rect x="348.468" y="66.105" transform="matrix(-0.9397 -0.342 0.342 -0.9397 706.4394 284.558)" style="fill:#E8757D;" width="59.675" height="27.792"/>
<path style="fill:#FFFFFF;" d="M387.234,90.762c-0.852,0-1.717-0.146-2.564-0.454l-17.872-6.505  c-3.892-1.417-5.899-5.721-4.482-9.613s5.715-5.898,9.613-4.483l17.872,6.505c3.892,1.417,5.899,5.721,4.483,9.613  C393.174,88.87,390.297,90.762,387.234,90.762z"/>
<path style="opacity:0.1;enable-background:new    ;" d="M404.1,156.477l-5.718-14.891c-3.557-9.262-3.647-19.498-0.253-28.822  l25.102-68.967l-56.076-20.41l-7.754,21.305l37.641,13.7l-17.348,47.662c-3.394,9.324-3.304,19.56,0.253,28.822l5.718,14.891  c6.435,16.756,6.597,35.273,0.458,52.14l-45.405,124.749c-4.103,11.273-16.568,17.085-27.841,12.982l18.435,6.71  c11.273,4.103,23.738-1.709,27.84-12.982l45.405-124.749C410.698,191.75,410.535,173.233,404.1,156.477z"/>
<path style="fill:#E4E7E9;" d="M363.1,15.473l-4.121,11.322c-0.584,1.604,1.152,3.066,2.629,2.21  c2.419-1.401,5.623-2.065,9.677-0.59c3.369,1.226,5.864,3.791,7.102,6.876c0.91,2.267,3.657,3.267,5.812,2.115  c2.931-1.567,6.491-1.928,9.86-0.702s5.864,3.791,7.102,6.875c0.91,2.267,3.657,3.267,5.812,2.115  c2.931-1.567,6.491-1.928,9.86-0.702c4.054,1.476,6.082,4.044,7.034,6.672c0.582,1.605,2.851,1.601,3.435-0.003l4.121-11.322  c2.282-6.269-0.951-13.201-7.22-15.483l-45.62-16.604C372.314,5.972,365.382,9.204,363.1,15.473z"/>
<path style="opacity:0.1;enable-background:new    ;" d="M424.203,24.858l-11.523-4.194c6.269,2.282,9.501,9.214,7.22,15.483  l-3.205,8.806c0.046,0.016,0.093,0.025,0.139,0.042c4.054,1.476,6.082,4.044,7.034,6.672c0.582,1.605,2.851,1.601,3.435-0.003  l4.121-11.322C433.705,34.072,430.472,27.14,424.203,24.858z"/>
<path style="fill:#A3D6EB;" d="M266.01,233.911l-61.313,22.316c-8.236,2.998-17.344-1.249-20.342-9.485l-22.316-61.313  c-2.998-8.236,1.249-17.344,9.485-20.342l61.313-22.316c8.236-2.998,17.344,1.249,20.342,9.485l22.316,61.313  C278.493,221.806,274.247,230.914,266.01,233.911z"/>
<path style="opacity:0.1;enable-background:new    ;" d="M266.01,233.911l-61.313,22.316c-8.236,2.998-17.344-1.249-20.342-9.485  l-22.316-61.313c-2.998-8.236,1.249-17.344,9.485-20.342l61.313-22.316c8.236-2.998,17.344,1.249,20.342,9.485l22.316,61.313  C278.493,221.806,274.247,230.914,266.01,233.911z"/>
<path style="fill:#A3D6EB;" d="M329.65,233.911l61.313,22.316c8.236,2.998,17.344-1.249,20.341-9.485l22.316-61.313  c2.998-8.236-1.249-17.344-9.485-20.342l-61.313-22.316c-8.237-2.998-17.344,1.249-20.341,9.485l-22.316,61.313  C317.167,221.806,321.414,230.914,329.65,233.911z"/>
<path style="opacity:0.1;enable-background:new    ;" d="M329.65,233.911l61.313,22.316c8.236,2.998,17.344-1.249,20.341-9.485  l22.316-61.313c2.998-8.236-1.249-17.344-9.485-20.342l-61.313-22.316c-8.237-2.998-17.344,1.249-20.341,9.485l-22.316,61.313  C317.167,221.806,321.414,230.914,329.65,233.911z"/>
<g>
	<path style="fill:#A3D6EB;" d="M199.869,210.722l-46.137,46.137c-6.198,6.198-16.247,6.198-22.444,0l-46.137-46.137   c-6.198-6.198-6.198-16.247,0-22.444l46.137-46.137c6.198-6.198,16.247-6.198,22.444,0l46.137,46.137   C206.067,194.475,206.067,204.524,199.869,210.722z"/>
	<path style="fill:#A3D6EB;" d="M354.959,206.379l-46.137,46.137c-6.198,6.198-16.247,6.198-22.444,0l-46.137-46.137   c-6.198-6.198-6.198-16.246,0-22.444l46.137-46.137c6.198-6.198,16.247-6.198,22.444,0l46.137,46.137   C361.156,190.132,361.156,200.181,354.959,206.379z"/>
</g>
<path style="fill:#E4E7E9;" d="M422.087,250.693H89.916l36.477,236.283c1.557,10.083,10.234,17.524,20.437,17.524h218.344  c10.202,0,18.88-7.441,20.437-17.524L422.087,250.693z"/>
<g style="opacity:0.4;">
	<ellipse style="fill:#F9B0B6;" cx="313.942" cy="352.181" rx="25.829" ry="15.479"/>
	<ellipse style="fill:#F9B0B6;" cx="198.062" cy="352.181" rx="25.829" ry="15.479"/>
</g>
<path style="fill:#4A5058;" d="M274.733,330.904c0,10.2-8.45,18.426-18.731,18.061c-9.793-0.348-17.413-8.694-17.413-18.494V317.76  c0-2.721,2.206-4.928,4.928-4.928h26.289c2.722,0,4.928,2.206,4.928,4.928v13.144H274.733z"/>
<path style="opacity:0.1;enable-background:new    ;" d="M89.916,250.693l4.014,26.002h277.022l-32.463,210.281  c-1.557,10.083-10.234,17.524-20.437,17.524h47.12c10.202,0,18.88-7.441,20.437-17.524l36.477-236.283H89.916z"/>
<path style="fill:#E4E7E9;" d="M438.263,250.693H73.74c-7.567,0-13.702-6.135-13.702-13.702v-20.438  c0-7.567,6.134-13.702,13.702-13.702h364.524c7.567,0,13.702,6.135,13.702,13.702v20.438  C451.965,244.559,445.831,250.693,438.263,250.693z"/>
<path style="opacity:0.1;enable-background:new    ;" d="M438.263,202.852h-32.11c7.567,0,13.702,6.134,13.702,13.702v20.438  c0,7.567-6.135,13.702-13.702,13.702h32.11c7.567,0,13.702-6.135,13.702-13.702v-20.438  C451.965,208.986,445.831,202.852,438.263,202.852z"/>
<path style="opacity:0.1;enable-background:new    ;" d="M122.125,459.328h267.753l2.248-14.561H119.877L122.125,459.328z   M113.745,405.046l2.248,14.561h280.018l2.248-14.561H113.745z"/>
<path d="M200.728,322.712v-10.707c0-4.143-3.358-7.5-7.5-7.5s-7.5,3.357-7.5,7.5v10.707c0,4.143,3.358,7.5,7.5,7.5  S200.728,326.854,200.728,322.712z M438.263,195.351h-0.272l2.678-7.356c2.135-5.867,1.857-12.213-0.78-17.871  c-2.639-5.658-7.322-9.949-13.188-12.084l-16.236-5.909l-5.082-13.233c-2.908-7.572-2.981-15.942-0.207-23.567l20.016-54.991  c0.129,0.005,0.252,0.029,0.382,0.029h0.008c3.908,0,7.432-2.467,8.768-6.141l4.12-11.321c1.789-4.914,1.557-10.231-0.653-14.972  c-2.211-4.74-6.135-8.336-11.049-10.124L381.149,1.206c-4.916-1.789-10.233-1.558-14.972,0.653  c-4.74,2.21-8.336,6.134-10.125,11.049l-4.122,11.325c-1.336,3.675-0.22,7.831,2.778,10.342c0.099,0.083,0.209,0.144,0.311,0.222  l-20.015,54.991c-2.774,7.624-8.211,13.988-15.308,17.921l-13.952,7.731c-5.761,3.192-11.122,7.09-15.974,11.588  c-3.175,1.124-6.161,2.928-8.697,5.464L261.2,152.365l-0.974-2.675c-3.641-10.005-13.446-16.013-23.575-15.316  c-6.457-7.702-14.167-14.07-22.984-18.956l-1.206-0.668c-3.623-2.006-8.187-0.698-10.195,2.926  c-2.007,3.623-0.697,8.188,2.926,10.195l1.205,0.668c5.27,2.92,10.055,6.492,14.313,10.664l-43.482,15.826l-18.194-18.194  c-7.631-7.63-19.258-8.845-28.193-3.695c1.009-7.692,0.18-15.57-2.51-22.964l-21.264-58.421c0.797,0.062,1.44,0.32,1.834,0.531  c2.903,1.552,6.355,1.793,9.473,0.66c3.117-1.134,5.609-3.537,6.836-6.594c0.288-0.716,1.021-2.009,2.708-2.622  c1.685-0.616,3.079-0.097,3.757,0.267c2.905,1.554,6.357,1.793,9.473,0.66c3.117-1.134,5.608-3.537,6.836-6.594  c0.167-0.417,0.494-1.028,1.064-1.588l21.263,58.421c2.343,6.435,5.941,12.199,10.696,17.129c1.472,1.526,3.434,2.294,5.4,2.294  c1.873,0,3.75-0.698,5.205-2.102c2.982-2.875,3.068-7.623,0.192-10.604c-3.288-3.41-5.777-7.396-7.397-11.848l-20.015-54.99  c0.102-0.079,0.212-0.14,0.312-0.224c2.998-2.512,4.113-6.669,2.775-10.345l-4.121-11.322  c-3.693-10.143-14.954-15.396-25.095-11.702L92.644,17.788c-10.145,3.693-15.395,14.951-11.703,25.097l4.121,11.319  c1.337,3.675,4.859,6.142,8.769,6.142h0.006c0.13,0,0.254-0.024,0.383-0.029l20.016,54.99c2.775,7.625,2.701,15.995-0.208,23.569  l-5.719,14.892c-0.147,0.384-0.276,0.773-0.416,1.159l-28.047,28.047c-3.438,3.438-5.649,7.769-6.473,12.396  c-11.521,0.198-20.837,9.617-20.837,21.184v20.439c0,11.69,9.511,21.201,21.202,21.201h9.746l15.971,103.455  c0.572,3.706,3.766,6.356,7.403,6.356c0.38,0,0.766-0.029,1.153-0.089c4.094-0.632,6.9-4.463,6.268-8.557L98.663,258.193H413.34  l-4.485,29.054c-0.632,4.094,2.174,7.925,6.268,8.557c0.388,0.06,0.773,0.089,1.154,0.089c3.637,0,6.83-2.651,7.402-6.357  l4.838-31.343h9.746c11.69,0,21.202-9.511,21.202-21.201v-20.439C459.465,204.863,449.954,195.351,438.263,195.351z M100.014,37.925  c-1.513,0.551-2.907,1.232-4.173,2.036l-0.803-2.207c-0.864-2.373,0.364-5.007,2.737-5.87l45.62-16.604  c2.375-0.864,5.006,0.364,5.87,2.737l0.804,2.207c-1.486,0.198-2.992,0.572-4.504,1.123c-4.153,1.511-7.651,4.379-9.955,8.083  c-4.146-1.358-8.668-1.307-12.82,0.206c-4.153,1.511-7.65,4.379-9.954,8.083C108.688,36.362,104.165,36.413,100.014,37.925z   M421.571,172.136c2.101,0.765,3.778,2.302,4.723,4.327c0.945,2.027,1.044,4.301,0.279,6.401l-4.545,12.487h-54.959  c0.043-6.124-2.291-12.204-6.807-16.721l-14.223-14.223l3.49-9.586c1.578-4.337,6.394-6.58,10.729-5.003L421.571,172.136z   M370.148,18.039c0.863-2.373,3.498-3.601,5.87-2.737l45.62,16.604c1.149,0.418,2.067,1.259,2.584,2.368  c0.517,1.108,0.571,2.352,0.152,3.502l-0.803,2.206c-0.591-0.375-1.216-0.717-1.861-1.039c-0.033-0.016-0.062-0.037-0.095-0.053  c-0.708-0.347-1.447-0.664-2.219-0.945c-0.531-0.194-1.069-0.362-1.612-0.507c-0.167-0.045-0.337-0.074-0.504-0.114  c-0.377-0.09-0.753-0.182-1.133-0.25c-0.208-0.037-0.418-0.057-0.626-0.088c-0.342-0.05-0.683-0.103-1.027-0.134  c-0.23-0.021-0.46-0.026-0.69-0.039c-0.324-0.018-0.647-0.04-0.971-0.042c-0.046,0-0.092-0.006-0.138-0.006  c-0.251,0-0.502,0.02-0.754,0.03c-0.229,0.009-0.459,0.01-0.688,0.027c-0.315,0.023-0.628,0.065-0.942,0.103  c-0.212,0.026-0.425,0.043-0.637,0.076c-0.345,0.054-0.688,0.128-1.03,0.2c-0.177,0.037-0.356,0.064-0.532,0.106  c-0.517,0.124-1.029,0.267-1.536,0.433c-2.303-3.704-5.8-6.572-9.955-8.084c-4.151-1.511-8.675-1.559-12.818-0.205  c-2.304-3.703-5.8-6.571-9.954-8.084c-1.513-0.551-3.018-0.925-4.505-1.123L370.148,18.039z M313.014,128.562l13.953-7.732  c10.26-5.686,18.12-14.888,22.133-25.91l21.263-58.422c0.033,0.032,0.065,0.065,0.096,0.098c0.081,0.084,0.158,0.169,0.228,0.254  c0.042,0.051,0.082,0.101,0.12,0.152c0.067,0.088,0.128,0.176,0.185,0.262c0.029,0.044,0.059,0.088,0.085,0.131  c0.058,0.096,0.109,0.188,0.156,0.278c0.016,0.03,0.034,0.062,0.049,0.091c0.055,0.112,0.102,0.217,0.141,0.312  c0.001,0.003,0.004,0.007,0.005,0.011c1.073,2.674,3.115,4.849,5.697,6.11c0.369,0.18,0.748,0.342,1.138,0.483  c1.854,0.675,3.825,0.852,5.729,0.567c0.097-0.014,0.195-0.019,0.291-0.035c0.049-0.009,0.096-0.024,0.145-0.033  c1.145-0.216,2.262-0.597,3.306-1.156c0.681-0.364,2.074-0.884,3.761-0.27c1.686,0.613,2.421,1.906,2.708,2.622  c1.227,3.056,3.717,5.459,6.833,6.593c1.169,0.425,2.385,0.658,3.602,0.7c1.622,0.057,3.245-0.225,4.758-0.836  c0.378-0.153,0.75-0.326,1.113-0.521c0.093-0.049,0.202-0.102,0.32-0.154c0.031-0.014,0.067-0.027,0.1-0.04  c0.092-0.038,0.188-0.075,0.293-0.111c0.048-0.016,0.101-0.031,0.151-0.047c0.099-0.03,0.203-0.058,0.311-0.082  c0.06-0.014,0.122-0.026,0.185-0.038c0.111-0.021,0.228-0.036,0.348-0.049c0.043-0.005,0.086-0.009,0.131-0.013L391.084,110.2  c-4.012,11.024-3.905,23.126,0.3,34.075l0.406,1.056l-26.398-9.608c-5.865-2.135-12.213-1.858-17.87,0.78  c-5.658,2.639-9.949,7.321-12.085,13.188l-1.097,3.013l-20.212-20.212c-1.015-1.015-2.11-1.898-3.251-2.687  C311.58,129.379,312.292,128.962,313.014,128.562z M291.681,143.101c1.112-1.112,2.463-1.836,3.889-2.19  c0.045-0.012,0.091-0.02,0.135-0.033c2.721-0.628,5.697,0.107,7.812,2.223l46.138,46.138c1.648,1.647,2.484,3.878,2.434,6.113  h-108.98c-0.05-2.235,0.786-4.465,2.434-6.113L291.681,143.101z M235.403,149.819c0.11-0.04,0.222-0.067,0.333-0.102  c0.086-0.026,0.172-0.05,0.258-0.079c4.176-1.18,8.631,1.043,10.138,5.184l3.365,9.247l-14.561,14.561  c-4.517,4.517-6.851,10.597-6.808,16.721h-16.489c-0.826-4.62-3.035-8.945-6.468-12.378l-16.24-16.24L235.403,149.819z   M90.453,193.581l29.134-29.134c0.001-0.001,0.003-0.003,0.004-0.004l16.999-16.999c3.264-3.264,8.574-3.264,11.838,0l46.138,46.138  c0.534,0.534,0.98,1.132,1.344,1.77H89.11C89.473,194.713,89.919,194.115,90.453,193.581z M444.465,236.992  c0,3.419-2.782,6.201-6.202,6.201H73.74c-3.42,0-6.202-2.782-6.202-6.201v-20.439c0-3.42,2.782-6.202,6.202-6.202h7.152  c0.026,0,0.053,0,0.079,0h123.148c0.012,0,0.024,0.002,0.037,0.002c0.008,0,0.015-0.002,0.023-0.002h33.469c0.012,0,0.024,0,0.037,0  h119.897c0.005,0,0.01,0.001,0.016,0.001c0.005,0,0.01-0.001,0.015-0.001h69.621c0.015,0,0.03,0.002,0.045,0.002  c0.009,0,0.017-0.002,0.025-0.002h10.959c3.42,0,6.202,2.782,6.202,6.202L444.465,236.992L444.465,236.992z M412.702,311.487  c-4.101-0.627-7.925,2.174-8.557,6.268l-25.947,168.077c-0.999,6.472-6.477,11.168-13.024,11.168H146.83  c-6.548,0-12.025-4.696-13.024-11.168l-14.926-96.686c-0.632-4.093-4.466-6.894-8.556-6.268c-4.094,0.632-6.9,4.463-6.268,8.557  l14.926,96.686C121.118,501.957,132.83,512,146.831,512h218.344c14.001,0,25.713-10.043,27.849-23.879l25.947-168.077  C419.601,315.95,416.795,312.119,412.702,311.487z M256.675,356.476c6.661,0,12.93-2.526,17.743-7.171  c5.04-4.864,7.815-11.399,7.815-18.401v-13.145c0-6.853-5.575-12.428-12.428-12.428h-26.289c-6.853,0-12.428,5.575-12.428,12.428  v12.711c0,14.081,10.826,25.497,24.647,25.989C256.049,356.472,256.362,356.476,256.675,356.476z M246.088,330.471v-10.139h21.145  v10.572c0,2.895-1.147,5.597-3.232,7.608c-2.082,2.01-4.818,3.076-7.732,2.957C250.655,341.269,246.088,336.336,246.088,330.471z   M326.275,322.712v-10.707c0-4.143-3.357-7.5-7.5-7.5c-4.142,0-7.5,3.357-7.5,7.5v10.707c0,4.143,3.358,7.5,7.5,7.5  S326.275,326.854,326.275,322.712z"/>
<g>
</g>
<g>
</g>
<g>
</g>
<g>
</g>
<g>
</g>
<g>
</g>
<g>
</g>
<g>
</g>
<g>
</g>
<g>
</g>
<g>
</g>
<g>
</g>
<g>
</g>
<g>
</g>
<g>
</g>
</svg>
