<?xml version="1.0" encoding="iso-8859-1"?>
<!-- Generator: Adobe Illustrator 19.0.0, SVG Export Plug-In . SVG Version: 6.00 Build 0)  -->
<svg xmlns="http://www.w3.org/2000/svg" xmlns:xlink="http://www.w3.org/1999/xlink" version="1.1" id="Capa_1" x="0px" y="0px" viewBox="0 0 512.002 512.002" style="enable-background:new 0 0 512.002 512.002;" xml:space="preserve">
<path style="fill:#7CD1A9;" d="M152.882,251.599l-46.368-198.46c-2.219-9.496-10.58-16.129-20.332-16.129H23.969  c-3.529,0-6.391-2.861-6.391-6.391V13.891c0-3.529,2.861-6.391,6.391-6.391h62.212c23.536,0,43.714,16.007,49.069,38.925  l46.368,198.461L152.882,251.599z"/>
<path style="opacity:0.1;enable-background:new    ;" d="M135.25,46.425C129.895,23.507,109.717,7.5,86.181,7.5v29.51  c9.752,0,18.113,6.633,20.332,16.129l2.644,11.314h30.305L135.25,46.425z"/>
<path style="fill:#93827E;" d="M231.652,473.057c116.637,0,211.191-71.451,211.191-188.088c0-53.736-20.078-102.776-53.131-140.049  c-6.09-6.868-14.855-10.767-24.035-10.767H97.627c-9.179,0-17.944,3.9-24.035,10.767c-33.053,37.273-53.131,86.312-53.131,140.049  C20.461,401.606,115.015,473.057,231.652,473.057z"/>
<g style="opacity:0.4;">
	<ellipse style="fill:#F9B0B6;" cx="279.111" cy="338.68" rx="36.438" ry="21.837"/>
	<ellipse style="fill:#F9B0B6;" cx="115.631" cy="338.68" rx="36.438" ry="21.837"/>
</g>
<path style="fill:#F7E6C5;" d="M389.712,144.919c-6.09-6.868-14.855-10.767-24.035-10.767H97.627c-9.179,0-17.944,3.9-24.035,10.767  c-15.415,17.383-28.005,37.328-37.056,59.113h390.23C417.717,182.247,405.127,162.303,389.712,144.919z"/>
<g style="opacity:0.1;">
	<path d="M86.182,259.099c-4.143,0-7.5-3.358-7.5-7.5c0-31.481,14.755-62.904,28.464-78.778c2.707-3.137,7.443-3.48,10.578-0.774   c3.135,2.707,3.481,7.443,0.773,10.578c-8.583,9.939-24.815,37.145-24.815,68.974C93.682,255.741,90.324,259.099,86.182,259.099z"/>
	<path d="M375.328,234.892c-0.367,0-0.737-0.027-1.11-0.082c-4.098-0.608-6.926-4.422-6.318-8.52   c1.873-12.619-7.791-46.518-16.678-58.503c-2.467-3.328-1.77-8.025,1.558-10.492c3.327-2.467,8.023-1.77,10.491,1.557   c10.385,14.005,22.128,51.706,19.467,69.64C382.185,232.216,378.982,234.892,375.328,234.892z"/>
	<path d="M279.344,234.891c-4.143,0-7.5-3.358-7.5-7.5v-44.694c0-4.142,3.357-7.5,7.5-7.5s7.5,3.358,7.5,7.5v44.694   C286.844,231.533,283.486,234.891,279.344,234.891z"/>
</g>
<path style="opacity:0.1;enable-background:new    ;" d="M389.712,144.919c-6.09-6.868-14.855-10.767-24.035-10.767h-11.423  c26.021,35.105,41.416,78.557,41.416,125.61c0,116.638-94.553,188.088-211.191,188.088c-32.38,0-63.052-5.515-90.477-15.966  c36.968,26.642,85.062,41.173,137.65,41.173c116.637,0,211.191-71.451,211.191-188.088  C442.843,231.232,422.765,182.193,389.712,144.919z"/>
<g>
	<path style="fill:#F9B0B6;" d="M292.038,456.748v-16.5c0-16.15,10.794-30.309,26.367-34.587l60.787-16.698l-16.698,60.787   c-4.278,15.574-18.437,26.367-34.587,26.367h-16.5C300.71,476.117,292.038,467.445,292.038,456.748z"/>
	<path style="fill:#F9B0B6;" d="M311.407,301.809h16.5c16.15,0,30.309,10.794,34.587,26.367l16.698,60.787l-60.787-16.698   c-15.573-4.278-26.367-18.437-26.367-34.587v-16.5C292.038,310.481,300.71,301.809,311.407,301.809z"/>
	<path style="fill:#F9B0B6;" d="M466.346,321.178v16.5c0,16.15-10.794,30.309-26.367,34.587l-60.787,16.698l16.698-60.787   c4.278-15.573,18.437-26.367,34.587-26.367h16.5C457.674,301.809,466.346,310.481,466.346,321.178z"/>
	<path style="fill:#F9B0B6;" d="M446.977,476.117h-16.5c-16.15,0-30.309-10.794-34.587-26.367l-16.698-60.787l60.787,16.698   c15.573,4.278,26.367,18.437,26.367,34.587v16.5C466.346,467.445,457.674,476.117,446.977,476.117z"/>
</g>
<g style="opacity:0.1;">
	<path d="M292.038,456.748v-16.5c0-16.15,10.794-30.309,26.367-34.587l60.787-16.698l-16.698,60.787   c-4.278,15.574-18.437,26.367-34.587,26.367h-16.5C300.71,476.117,292.038,467.445,292.038,456.748z"/>
	<path d="M311.407,301.809h16.5c16.15,0,30.309,10.794,34.587,26.367l16.698,60.787l-60.787-16.698   c-15.573-4.278-26.367-18.437-26.367-34.587v-16.5C292.038,310.481,300.71,301.809,311.407,301.809z"/>
	<path d="M466.346,321.178v16.5c0,16.15-10.794,30.309-26.367,34.587l-60.787,16.698l16.698-60.787   c4.278-15.573,18.437-26.367,34.587-26.367h16.5C457.674,301.809,466.346,310.481,466.346,321.178z"/>
	<path d="M446.977,476.117h-16.5c-16.15,0-30.309-10.794-34.587-26.367l-16.698-60.787l60.787,16.698   c15.573,4.278,26.367,18.437,26.367,34.587v16.5C466.346,467.445,457.674,476.117,446.977,476.117z"/>
</g>
<g>
	<path style="fill:#F9B0B6;" d="M269.939,375.573l11.667-11.667c11.42-11.42,29.064-13.799,43.101-5.812l54.79,31.175l-54.79,31.175   c-14.037,7.987-31.681,5.608-43.101-5.812l-11.667-11.667C262.375,395.4,262.375,383.137,269.939,375.573z"/>
	<path style="fill:#F9B0B6;" d="M393.193,279.71l11.667,11.667c11.42,11.42,13.799,29.064,5.812,43.101l-31.175,54.79l-31.175-54.79   c-7.987-14.037-5.608-31.681,5.812-43.101l11.667-11.667C373.366,272.146,385.629,272.146,393.193,279.71z"/>
	<path style="fill:#F9B0B6;" d="M488.751,402.659l-11.667,11.667c-11.42,11.42-29.064,13.799-43.101,5.812l-54.79-31.175   l54.79-31.175c14.037-7.987,31.681-5.608,43.101,5.812l11.667,11.667C496.314,382.831,496.314,395.095,488.751,402.659z"/>
	<path style="fill:#F9B0B6;" d="M365.802,498.827l-11.667-11.667c-11.42-11.42-13.799-29.064-5.812-43.101l31.175-54.79   l31.175,54.79c7.987,14.037,5.608,31.681-5.812,43.101l-11.667,11.667C385.629,506.391,373.366,506.391,365.802,498.827z"/>
</g>
<path d="M270.693,306.932c4.143,0,7.5-3.358,7.5-7.5v-12.171c0-4.142-3.357-7.5-7.5-7.5s-7.5,3.358-7.5,7.5v12.171  C263.193,303.574,266.551,306.932,270.693,306.932z M501.923,388.963c0-7.177-2.795-13.924-7.869-18.999l-11.667-11.667  c-3.151-3.151-6.707-5.725-10.515-7.716c1.297-4.167,1.974-8.525,1.974-12.903v-16.5c0-13.75-10.384-25.114-23.721-26.678  c0.141-3.18,0.218-6.365,0.218-9.531c0-28.769-5.656-56.954-16.392-83.088c-0.154-0.513-0.359-1.003-0.613-1.464  c-9.193-21.923-21.967-42.376-38.016-60.473c-7.49-8.447-18.295-13.291-29.645-13.291h-203.98l-19.143-81.934  C136.402,18.389,113.221,0,86.182,0H23.97c-7.659,0-13.891,6.231-13.891,13.891V30.62c0,7.659,6.232,13.89,13.891,13.89h62.212  c6.249,0,11.606,4.25,13.028,10.335l16.777,71.807h-18.36c-11.351,0-22.155,4.844-29.646,13.291  c-16.05,18.098-28.825,38.554-38.018,60.479c-0.251,0.457-0.455,0.943-0.608,1.452c-10.737,26.136-16.394,54.323-16.394,83.094  c0,45.281,14.087,86.528,40.738,119.281c1.482,1.822,3.643,2.767,5.822,2.767c1.663,0,3.338-0.551,4.729-1.683  c3.213-2.614,3.698-7.338,1.084-10.551c-24.449-30.048-37.373-68.021-37.373-109.814c0-25.352,4.718-50.215,13.694-73.436H325.52  c4.143,0,7.5-3.358,7.5-7.5s-3.357-7.5-7.5-7.5H48.154c8.085-16.768,18.492-32.477,31.05-46.637  c4.646-5.239,11.36-8.243,18.423-8.243h27.79c0.006,0,0.011,0.001,0.017,0.001c0.008,0,0.017-0.001,0.026-0.001h240.217  c7.063,0,13.777,3.004,18.423,8.243c12.557,14.16,22.964,29.869,31.05,46.637h-58.415c-4.143,0-7.5,3.358-7.5,7.5s3.357,7.5,7.5,7.5  h64.914c8.976,23.221,13.694,48.085,13.694,73.436c0,3.103-0.082,6.225-0.227,9.341h-4.638c-4.33,0-8.646,0.663-12.775,1.935  c-1.966-3.679-4.483-7.114-7.539-10.17l-11.667-11.667h-0.001c-5.074-5.075-11.822-7.87-18.999-7.87s-13.924,2.795-18.999,7.87  l-11.667,11.667c-3.101,3.101-5.645,6.594-7.624,10.335c-4.287-1.382-8.782-2.1-13.301-2.1h-16.5  c-14.815,0-26.868,12.053-26.868,26.869v16.5c0,4.519,0.718,9.014,2.099,13.301c-3.74,1.978-7.233,4.522-10.334,7.624  l-11.668,11.667h-0.001c-10.476,10.476-10.476,27.522,0.001,37.999l11.667,11.667c3.056,3.056,6.493,5.571,10.171,7.536  c-1.272,4.13-1.936,8.447-1.936,12.777v16.5c0,1.167,0.083,2.314,0.228,3.443c-17.043,3.559-34.87,5.365-53.114,5.365  c-56.938,0-108.649-17.574-145.607-49.486c-3.132-2.705-7.869-2.36-10.578,0.775c-2.707,3.135-2.36,7.872,0.775,10.579  c39.68,34.263,94.872,53.132,155.409,53.132c20.401,0,40.336-2.144,59.344-6.364c4.932,5.762,12.249,9.424,20.41,9.424h16.5  c4.423,0,8.824-0.692,13.03-2.016c2.015,3.94,4.648,7.616,7.895,10.863l11.667,11.668c5.075,5.075,11.822,7.87,18.999,7.87  s13.925-2.794,19-7.87l11.667-11.668c3.203-3.203,5.808-6.824,7.813-10.703c4.048,1.218,8.269,1.857,12.501,1.857h16.5  c14.815,0,26.868-12.053,26.868-26.868v-16.5c0-4.376-0.677-8.733-1.973-12.898c3.809-1.992,7.363-4.571,10.514-7.721l11.667-11.667  h-0.001C499.128,402.887,501.923,396.14,501.923,388.963z M131.392,126.652l-17.574-75.22c-3.017-12.908-14.38-21.922-27.636-21.922  H25.079V15h61.103c20.033,0,37.208,13.624,41.765,33.131l18.346,78.521C146.293,126.652,131.392,126.652,131.392,126.652z   M417.191,338.188c4.891-8.597,6.544-18.357,5.189-27.685c2.623-0.781,5.355-1.193,8.098-1.193h16.5  c6.544,0,11.868,5.324,11.868,11.869v16.5c0,2.831-0.435,5.648-1.263,8.344c-9.214-1.258-18.828,0.421-27.309,5.247l-30.352,17.27  L417.191,338.188z M359.439,296.681l11.667-11.667c2.241-2.242,5.222-3.476,8.392-3.476s6.151,1.234,8.393,3.476l11.667,11.667  c9.004,9.003,10.895,23.021,4.598,34.089l-24.657,43.333l-24.658-43.333C348.544,319.703,350.435,305.685,359.439,296.681z   M299.538,321.178c0-6.544,5.324-11.869,11.868-11.869h16.5c2.949,0,5.883,0.468,8.681,1.368c-1.31,9.275,0.355,18.967,5.216,27.51  l17.673,31.061l-31.061-17.673c-8.543-4.861-18.235-6.527-27.51-5.217c-0.9-2.798-1.368-5.732-1.368-8.68v-16.5H299.538z   M286.909,409.328l-11.667-11.667c-4.628-4.627-4.628-12.158,0-16.785l11.668-11.667c9.003-9.003,23.018-10.895,34.088-4.597  l43.334,24.657l-43.334,24.657C309.929,420.223,295.911,418.331,286.909,409.328z M341.804,440.35  c-4.759,8.363-6.454,17.828-5.294,26.925c-2.775,0.883-5.682,1.342-8.603,1.342h-16.5c-6.544,0-11.868-5.324-11.868-11.868v-16.5  c0-2.741,0.412-5.471,1.192-8.091c2.081,0.302,4.183,0.455,6.289,0.455c7.336,0,14.719-1.85,21.397-5.65l31.061-17.673  L341.804,440.35z M399.557,481.856l-11.666,11.667c-2.242,2.242-5.223,3.477-8.393,3.477s-6.15-1.234-8.392-3.476l-11.667-11.667  c-9.004-9.004-10.895-23.022-4.598-34.089l24.656-43.333l24.657,43.333C410.451,458.835,408.561,472.853,399.557,481.856z   M458.846,456.749c0,6.544-5.324,11.868-11.868,11.868h-16.5c-2.711,0-5.415-0.404-8.012-1.169  c1.203-9.15-0.486-18.681-5.274-27.098l-17.784-31.256l30.866,17.563c6.68,3.801,14.061,5.65,21.397,5.65  c1.979,0,3.953-0.142,5.91-0.409c0.83,2.698,1.265,5.518,1.265,8.351L458.846,456.749L458.846,456.749z M483.447,397.355  L483.447,397.355l-11.668,11.667c-9.004,9.004-23.021,10.894-34.088,4.597l-43.334-24.657l43.334-24.657  c11.068-6.298,25.086-4.406,34.088,4.597l11.668,11.668c2.241,2.242,3.476,5.222,3.476,8.392  C486.923,392.133,485.689,395.113,483.447,397.355z M197.371,316.278c9.576,0,18.684-4.147,24.985-11.379  c2.722-3.122,2.396-7.86-0.727-10.582c-3.125-2.722-7.859-2.397-10.582,0.727c-3.452,3.961-8.438,6.234-13.677,6.234  s-10.225-2.272-13.677-6.234c-2.723-3.124-7.461-3.448-10.582-0.727c-3.122,2.721-3.448,7.459-0.727,10.582  C178.687,312.13,187.795,316.278,197.371,316.278z M131.549,299.432v-12.171c0-4.142-3.357-7.5-7.5-7.5c-4.143,0-7.5,3.358-7.5,7.5  v12.171c0,4.142,3.357,7.5,7.5,7.5C128.191,306.932,131.549,303.574,131.549,299.432z"/>
<g>
</g>
<g>
</g>
<g>
</g>
<g>
</g>
<g>
</g>
<g>
</g>
<g>
</g>
<g>
</g>
<g>
</g>
<g>
</g>
<g>
</g>
<g>
</g>
<g>
</g>
<g>
</g>
<g>
</g>
</svg>
