<?xml version="1.0" encoding="UTF-8"?>
<!-- Generator: Adobe Illustrator 25.2.0, SVG Export Plug-In . SVG Version: 6.00 Build 0)  -->
<svg xmlns="http://www.w3.org/2000/svg" xmlns:xlink="http://www.w3.org/1999/xlink" version="1.1" id="Capa_1" x="0px" y="0px" viewBox="0 0 512 512" style="enable-background:new 0 0 512 512;" xml:space="preserve" width="512" height="512">
<g>
	<path style="fill:#7B5366;" d="M258.429,53.668c0,0,22.006-10.354,48.693,13.716c37.546,33.865-8.916,84.355,16.459,96.014   s30.861,39.091,11.659,48.007s30.861,6.172,17.145,36.348s-50.75,68.581-79.554,30.176c0,0,2.743,13.03-29.49,18.517   c-32.233,5.487-61.723-21.26-50.75-48.007s-16.459-2.743-25.375-37.034s27.432-26.747,9.601-56.236S163.787,33.78,258.429,53.668z"/>
	<path style="fill:#241726;" d="M301.888,281.212c-3.075,0-5.923-1.223-8.323-3.636c-0.144-0.143-0.285-0.292-0.423-0.442   c-1.423,0.818-3.376,1.49-6.053,1.848c-6.889,0.913-10.504-1.995-12.312-4.603c-3.231-4.653-2.787-11.264-0.73-15.121   c0.266-0.497,0.883-0.686,1.379-0.42c0.496,0.265,0.684,0.881,0.42,1.379c-1.773,3.324-2.164,9.012,0.605,13.002   c2.132,3.068,5.711,4.369,10.37,3.742c2.036-0.271,3.724-0.766,5.017-1.45c-2.496-3.545-3.445-7.784-2.513-9.744   c0.428-0.897,1.214-1.369,2.178-1.261c2.804,0.281,5.311,3.38,5.364,6.634c0.018,1.1-0.254,3.06-2.072,4.778   c2.325,2.459,6.311,4.774,12.185,2.019c4.54-2.127,7.428-4.764,9.088-7.364c-3.459-2.071-5.553-5.154-6.404-7.784   c-0.794-2.457-0.546-4.611,0.661-5.765c0.564-0.539,1.846-1.317,4.117-0.464c3.245,1.215,5.35,4.235,5.496,7.878   c0.063,1.587-0.264,3.396-1.098,5.262c1.142,0.479,2.418,0.841,3.833,1.036c5.137,0.706,8.305-3.561,9.729-6.169   c3.87-7.092,4.517-19.32-0.411-25.071c-0.125-0.145-0.252-0.284-0.38-0.416c-0.078,0.382-0.169,0.752-0.277,1.106   c-1.111,3.682-3.711,5.582-7.498,5.447c-5.01-0.157-6.451-1.973-6.78-3.469c-0.475-2.176,1.338-4.764,4.41-6.294   c2.38-1.186,5.511-1.687,8.437-0.434c-0.041-6.412-3.093-14.994-6.805-20.792c-1.158,0.712-2.453,1.263-3.884,1.609   c-6.26,1.506-8.536-1.265-9.223-2.528c-1.137-2.099-0.692-4.818,1.057-6.471c1.978-1.866,4.975-1.86,8.018,0.026   c1.496,0.925,3.032,2.503,4.497,4.504c3.596-3.115,5.208-8.274,4.843-12.746c-0.218-2.674-1.084-4.83-2.467-6.312   c-0.926,0.973-2.127,1.715-3.548,2.16c-3.61,1.126-7.041-0.01-8.433-1.659c-0.749-0.887-0.92-1.904-0.469-2.787   c0.826-1.619,3.512-2.308,7.784-1.991c1.573,0.117,2.992,0.569,4.219,1.313c0.28-0.623,0.455-1.309,0.508-2.043   c0.252-3.422-2.163-8.375-9.694-12.012c-4.583-2.212-7.354-5.077-8.233-8.514c-1.172-4.581,1.506-8.401,1.62-8.562   c0.324-0.456,0.958-0.563,1.417-0.237c0.458,0.324,0.565,0.961,0.242,1.418c-0.023,0.032-2.246,3.243-1.3,6.897   c0.729,2.819,3.131,5.228,7.139,7.164c8.452,4.08,11.141,9.905,10.84,13.997c-0.085,1.158-0.391,2.23-0.89,3.179   c1.851,1.824,3.024,4.516,3.293,7.824c0.418,5.12-1.487,11.045-5.716,14.6c4.176,6.501,7.497,16.139,7.179,23.14   c0.566,0.434,1.114,0.951,1.636,1.56c5.614,6.549,4.85,19.682,0.653,27.371c-2.893,5.302-7.091,7.874-11.796,7.211   c-1.672-0.231-3.176-0.666-4.517-1.249c-1.843,2.962-5.035,5.936-10.033,8.28C305.806,280.739,303.803,281.212,301.888,281.212z    M291.3,266.531c-0.483,0.312-0.564,3.257,1.609,6.885c0.163,0.275,0.359,0.581,0.587,0.905c0.893-0.883,1.354-1.944,1.334-3.149   C294.791,268.795,292.867,266.688,291.3,266.531z M312.555,258.216c-0.314,0-0.607,0.076-0.823,0.282   c-0.499,0.477-0.734,1.796-0.129,3.664c0.719,2.226,2.493,4.832,5.428,6.615c0.661-1.518,0.923-2.976,0.872-4.257   c-0.114-2.853-1.675-5.115-4.176-6.053C313.371,258.333,312.946,258.216,312.555,258.216z M326.243,236.757   c-1.393,0-2.735,0.372-3.867,0.935c-2.377,1.184-3.559,2.982-3.328,4.036c0.237,1.082,2.051,1.78,4.853,1.868   c2.861,0.131,4.646-1.217,5.484-3.997c0.182-0.603,0.313-1.249,0.399-1.936C328.632,237.023,327.42,236.757,326.243,236.757z    M314.66,207.894c-0.861,0-1.616,0.279-2.212,0.841c-1.072,1.013-1.358,2.739-0.665,4.018c0.975,1.794,3.511,2.351,6.955,1.518   c1.177-0.282,2.246-0.732,3.208-1.311c-1.299-1.763-2.647-3.143-3.95-3.951C316.794,208.268,315.655,207.894,314.66,207.894z    M319.347,190.41c-2.764,0-3.853,0.587-4.041,0.955c-0.088,0.173,0.139,0.464,0.212,0.549c0.805,0.953,3.346,1.944,6.268,1.026   c1.009-0.314,1.869-0.83,2.545-1.5c-0.937-0.543-2.013-0.871-3.207-0.959C320.467,190.432,319.876,190.41,319.347,190.41z"/>
	<path style="fill:#241726;" d="M201.619,227.17c-2.148,0-4.345-0.619-6.45-2.198c-1.248-0.937-2.216-1.856-2.958-2.743   c-1.838,0.959-4.256,1.343-7.314,0.7c-3.367-0.7-5.996-3.547-7.402-8.013c-2.019-6.416-0.942-14.015,2.506-17.677   c1.103-1.172,2.401-1.914,3.844-2.218c1.262-3.501,4.078-7.102,8.189-10.356c2.413-1.912,3.702-4.195,3.831-6.79   c0.312-6.27-6.066-12.523-6.131-12.584c-0.404-0.392-0.415-1.036-0.024-1.44c0.391-0.408,1.035-0.416,1.439-0.024   c0.29,0.281,7.105,6.945,6.751,14.142c-0.157,3.211-1.706,6-4.601,8.291c-4.099,3.247-6.182,6.237-7.213,8.636   c0.485,0.042,0.983,0.125,1.49,0.253c5.319,1.331,6.795,3.457,7.095,5.009c0.311,1.609-0.502,3.294-2.176,4.508   c-1.635,1.186-4.157,1.894-6.104,0.814c-1.869-1.04-3.059-3.079-3.263-5.596c-0.068-0.824-0.03-1.669,0.107-2.526   c-0.636,0.288-1.219,0.716-1.751,1.279c-2.932,3.113-3.831,9.996-2.045,15.668c0.68,2.162,2.347,5.896,5.874,6.632   c2.516,0.521,4.364,0.239,5.714-0.396c-1.889-3.336-0.789-5.984-0.261-6.923c1.085-1.932,3.065-2.996,4.503-2.413   c1.686,0.674,1.858,3.481,1.165,5.779c-0.45,1.492-1.283,2.946-2.539,4.076c0.625,0.726,1.44,1.49,2.496,2.282   c8.056,6.042,18.537-5.526,18.643-5.644c0.375-0.42,1.02-0.456,1.438-0.082c0.42,0.374,0.457,1.019,0.082,1.438   C216.179,219.472,209.196,227.17,201.619,227.17z M194.4,213.062c-0.322,0-1.227,0.432-1.858,1.554   c-0.36,0.639-1.065,2.389,0.178,4.749c0.626-0.613,1.047-1.283,1.324-1.848c1.073-2.188,0.736-4.182,0.429-4.442   C194.454,213.066,194.429,213.062,194.4,213.062z M185.411,196.905c-0.293,1.219-0.306,2.184-0.255,2.813   c0.148,1.826,0.959,3.276,2.222,3.979c0.978,0.545,2.627,0.257,3.919-0.68c1.017-0.736,1.53-1.661,1.373-2.473   c-0.262-1.349-2.299-2.596-5.588-3.418C186.5,196.98,185.943,196.907,185.411,196.905z"/>
	<polygon style="fill:#F4B29B;" points="199.357,215.326 179.665,260.82 136.208,213.968 128.739,226.869 180.344,292.055    223.802,249.277  "/>
	<polygon style="fill:#F4B29B;" points="368.433,144.028 349.421,220.079 279.337,215.013 272.691,245.882 371.149,237.733    376.582,146.065  "/>
	<g>
		<path style="fill:#43918F;" d="M134.834,148.005l31.803,5.21l-11.379,12.598l-9.137,57.06c0,0,21.721-1.553,17.97,38.97    c-0.451,4.871-5.27,10.35-6.539,16.513c-1.054,5.119,1.581,10.71-0.14,16.816c-2.773,9.833-6.473,21.002-11.296,33.689    l-45.624-5.488c0,0-2.732-14.9-3.165-33.372c-0.118-5.038,2.935-10.341,3.261-15.68c0.354-5.79-1.971-11.623-0.845-17.204    c3.912-19.388,13.271-35.749,33.533-36.797l9.955-56.934L134.834,148.005z"/>
		<path style="fill:#F6DBBE;" d="M164.085,261.842c-5.22-1.179-59.471-4.434-64.336-4.724c-2.165,10.73-2.666,22.38-2.419,32.883    c5.281,0.491,55.436,4.773,60.076,5.169C161.199,281.715,163.261,270.757,164.085,261.842z"/>
		<path style="fill:#241726;" d="M138.255,285.989c-0.02,0-0.039,0-0.059,0c-3.088-0.02-5.962-2.156-8.091-6.016    c-0.15-0.271-0.294-0.551-0.434-0.837c-1.802,1.659-4.098,3.3-6.893,4.78c-4.316,2.286-8.128,1.418-10.461-2.385    c-0.365-0.595-0.682-1.253-0.95-1.954c-1.646,0.7-3.452,0.762-5.318,0.141c-2.953-0.989-4.749-2.616-5.335-4.842    c-1.236-4.685,3.596-10.126,3.803-10.354c0.377-0.42,1.02-0.452,1.437-0.078c0.418,0.376,0.453,1.021,0.078,1.438    c-0.044,0.048-4.306,4.856-3.347,8.478c0.402,1.518,1.751,2.67,4.011,3.424c1.588,0.531,2.942,0.378,4.076-0.161    c-1.138-4.824-0.278-10.75,3.012-13.062c1.809-1.269,2.951-0.535,3.356-0.157c1.928,1.78,0.951,7.195-1.21,10.848    c-0.811,1.369-1.75,2.463-2.783,3.266c0.245,0.702,0.546,1.359,0.907,1.948c1.772,2.888,4.386,3.442,7.771,1.651    c2.946-1.562,5.272-3.31,6.996-5.007c-1.145-3.197-1.533-6.724-0.342-8.636c0.586-0.945,1.519-1.478,2.617-1.383    c1.839,0.084,3.098,1.042,3.454,2.63c0.448,1.995-0.658,4.896-3.352,7.876c0.206,0.465,0.436,0.931,0.689,1.391    c1.732,3.139,4.035,4.949,6.321,4.963c0.014,0,0.029,0,0.044,0c2.494,0,4.845-1.375,6.654-3.165    c-0.053-0.101-0.105-0.205-0.155-0.308c-1.287-2.674-1.308-5.815-0.051-7.639c0.734-1.07,1.832-1.609,3.134-1.49    c1.677,0.139,2.667,1.381,2.583,3.239c-0.079,1.749-1.169,4.207-2.951,6.396c0.79,0.963,2.027,1.9,3.894,2.031    c3.381,0.239,6.099-4.144,6.681-8.341c0.444-3.197-0.281-6.863-3.645-7.565c-0.551-0.115-0.904-0.654-0.789-1.206    c0.113-0.549,0.652-0.915,1.205-0.788c3.905,0.814,5.964,4.677,5.248,9.839c-0.725,5.218-4.211,10.45-8.843,10.094    c-2.023-0.143-3.813-1.048-5.142-2.558C143.981,284.495,141.266,285.989,138.255,285.989z M147.511,273.372    c-0.478,0-0.839,0.199-1.13,0.621c-0.665,0.967-0.818,3.075-0.009,5.107c1.209-1.629,1.957-3.35,2.013-4.603    c0.048-1.054-0.414-1.092-0.718-1.118C147.613,273.374,147.562,273.372,147.511,273.372z M115.699,265.884    c-0.115,0-0.372,0.084-0.742,0.344c-2.185,1.536-3.05,6.075-2.367,10.082c0.636-0.639,1.163-1.377,1.589-2.097    c2.123-3.587,2.3-7.649,1.58-8.313C115.748,265.89,115.728,265.884,115.699,265.884z M130.941,269.125    c-0.33,0-0.544,0.125-0.73,0.424c-0.607,0.977-0.575,3.27,0.18,5.839c1.726-2.144,2.434-4.062,2.173-5.22    c-0.094-0.422-0.358-0.987-1.56-1.042C130.983,269.125,130.962,269.125,130.941,269.125z"/>
		<path style="fill:#241726;" d="M159.092,256.282c-0.062,0-0.124-0.006-0.188-0.018c-0.553-0.103-0.917-0.635-0.815-1.188    c2.737-14.661-10.601-24.956-10.736-25.059c-0.449-0.34-0.537-0.979-0.197-1.426c0.339-0.448,0.975-0.537,1.426-0.197    c0.593,0.448,14.475,11.172,11.51,27.057C160.001,255.94,159.573,256.282,159.092,256.282z"/>
	</g>
	<path style="fill:#241726;" d="M234.067,483.191l-8.189,21.154l5.333,2.022l3.456-10.198c0,0,0.206,17.123,20.663,15.753   c20.456-1.37-23.043-2.543-7.853-25.126L234.067,483.191z"/>
	<path style="fill:#241726;" d="M351.32,462.044l9.033,20.808l5.216-2.308l-4.705-9.685c0,0,12.176,12.041,25.772-3.306   c13.595-15.347-18.185,14.379-23.24-12.364L351.32,462.044z"/>
	<path style="fill:#241726;" d="M375.683,118.347c-12.836,0-50.2-42.217-51.784-44.014c-0.2-0.227-0.288-0.531-0.243-0.828   c0.046-0.298,0.221-0.561,0.478-0.718l40.303-24.411c0.263-0.159,0.583-0.191,0.871-0.088c0.288,0.103,0.515,0.33,0.617,0.619   c0.806,2.282,19.663,55.966,13.75,67.052c-0.634,1.19-1.527,1.94-2.653,2.228C376.609,118.293,376.158,118.347,375.683,118.347z    M326.235,73.897c11.249,12.64,39.792,42.412,49.448,42.412c0.304,0,0.585-0.032,0.833-0.095c0.558-0.143,1.004-0.539,1.363-1.213   c4.447-8.337-7.835-48.082-13.459-64.231L326.235,73.897z"/>
	<path style="fill:#F8DC94;" d="M335.02,79.046l25.383-18.603c0,0,15.926,43.795,13.752,47.691S335.02,79.046,335.02,79.046z"/>
	<path style="fill:#F4B29B;" d="M209.206,97.715c0,0,27.286-35.503,86.936-9.012c22.878,10.16,7.919,117.823-22.041,115.728   C199.654,199.225,184.842,151.822,209.206,97.715z"/>
	<path style="fill:#241726;" d="M278.438,170.465c-0.13,0-0.271-0.014-0.423-0.046c-4.833-1.017-16.712-5.614-17.216-5.809   c-0.525-0.203-0.785-0.792-0.582-1.317c0.204-0.525,0.795-0.788,1.318-0.581c0.118,0.046,11.49,4.446,16.446,5.612   c-0.32-3.205-7.703-16.965-15.123-29.203c-0.291-0.479-0.137-1.106,0.343-1.398c0.482-0.286,1.107-0.137,1.399,0.344   c6.473,10.677,17.042,29.002,15.081,31.769C279.536,170.043,279.149,170.465,278.438,170.465z"/>
	<path style="fill:#241726;" d="M267.447,188.094c-5.418,0-11.19-11.226-11.854-12.555c-0.252-0.503-0.048-1.114,0.456-1.367   c0.502-0.255,1.115-0.046,1.367,0.456c2.348,4.695,7.221,11.9,10.335,11.403c0.537-0.095,0.954-0.378,1.308-0.891   c1.698-2.463,0.97-8.731,0.545-10.937c-0.105-0.553,0.257-1.086,0.809-1.194c0.545-0.103,1.086,0.255,1.193,0.808   c0.172,0.899,1.613,8.88-0.869,12.479c-0.666,0.967-1.553,1.552-2.634,1.741C267.883,188.074,267.665,188.094,267.447,188.094z"/>
	<path style="fill:#241726;" d="M241.874,150.07c-2.993,0-8.295-8.317-10.454-11.924c-0.288-0.483-0.131-1.108,0.351-1.397   c0.484-0.292,1.108-0.131,1.397,0.35c3.46,5.783,7.519,10.894,8.683,10.935c1.156-2.865,0.421-10.339,0.031-12.978   c-0.083-0.557,0.302-1.074,0.858-1.156c0.549-0.09,1.075,0.3,1.157,0.857c0.061,0.412,1.469,10.12-0.295,14.092   c-0.446,1.001-1.214,1.192-1.634,1.217C241.938,150.07,241.906,150.07,241.874,150.07z"/>
	<path style="fill:#241726;" d="M285.459,148.332c-0.217,0-0.436-0.036-0.654-0.109c-3.387-1.126-6.773-13.118-7.729-16.766   c-0.142-0.545,0.183-1.1,0.727-1.243c0.54-0.147,1.101,0.181,1.243,0.726c2.099,7.997,5.099,15.173,6.421,15.356   c1.883-1.518,1.214-10.321,0.139-16.094c-0.102-0.553,0.263-1.086,0.815-1.188c0.564-0.103,1.085,0.261,1.189,0.814   c0.469,2.522,2.638,15.248-0.873,18.041C286.35,148.174,285.912,148.332,285.459,148.332z"/>
	<circle style="fill:#F1948E;" cx="234.864" cy="163.33" r="9.87"/>
	<circle style="fill:#F1948E;" cx="289.328" cy="160.205" r="9.87"/>
	<path style="fill:#F4B29B;" d="M205.175,156.178c0,0-14.163-17.689-21.514-3.784c-7.351,13.905,11.52,31.215,23.251,17.262   L205.175,156.178z"/>
	<path style="fill:#241726;" d="M195.43,170.6c-0.807,0-2.351-0.778-4.683-9.191c-0.15-0.543,0.168-1.104,0.71-1.253   c0.535-0.153,1.102,0.167,1.253,0.708c0.747,2.696,1.839,5.765,2.596,7.112c0.159-0.814,0.329-2.455,0.299-5.733   c-0.067-7.482-1.487-7.929-1.547-7.945c-0.793-0.181-2.632,1.944-3.776,3.989c-0.275,0.487-0.896,0.662-1.386,0.392   c-0.491-0.275-0.667-0.895-0.393-1.385c0.746-1.339,3.385-5.662,6.057-4.969c2.074,0.529,3.024,3.583,3.08,9.899   c0.061,6.784-0.635,8.17-1.94,8.353C195.624,170.586,195.533,170.6,195.43,170.6z"/>
	<path style="fill:#F4B29B;" d="M247.754,195.679l-1.033,16.869l32.616,2.465c0,0,8.385,34.634-13.586,39.835   c-69.553,16.465-66.394-39.523-66.394-39.523l29.877-1.358l-0.339-27.663L247.754,195.679z"/>
	<path style="fill:#F4B29B;" d="M366.886,132.377c0,0,3.787-28.839,5.879-25.778c2.092,3.062,3.817,15.7,3.817,15.7   s18.018-22.671,19.179-17.938c1.161,4.733-10.148,19.022-10.148,19.022s19.116-16.513,21.38-12.188   c2.264,4.325-18.363,20.144-18.363,20.144s25.533-15.716,24.81-9.695s-25.871,20.783-25.871,20.783s18.314-3.53,17.246-0.037   c-1.068,3.493-31.474,8.03-36.501,4.211C363.285,142.782,366.886,132.377,366.886,132.377z"/>
	<path style="fill:#241726;" d="M375.344,139.708c-0.29,0-0.58-0.123-0.781-0.364c-0.361-0.432-0.305-1.072,0.125-1.434   c0.052-0.044,5.199-4.426,4.999-9.069c-0.092-2.131-1.334-4.05-3.692-5.707c-0.461-0.324-0.571-0.959-0.248-1.418   s0.958-0.571,1.419-0.249c2.905,2.043,4.438,4.496,4.557,7.293c0.238,5.652-5.484,10.508-5.727,10.712   C375.806,139.63,375.574,139.708,375.344,139.708z"/>
	<g>
		<path style="fill:#7B5366;" d="M289.5,72.663c0,0,17.85,13.26,16.32,32.64c-1.53,19.38-29.07,14.79-24.99,4.59    c4.08-10.2,15.3,11.22-6.12,14.28c-21.42,3.06-13.77-16.83-10.2-13.26c3.57,3.57-2.04,15.3-17.85,15.3s-13.26-21.42-6.12-17.34    c7.14,4.08,3.57,16.32-12.75,16.32s-19.38-18.87-12.24-18.36c7.14,0.51,15.81,15.81-8.16,20.91s-33.836-33.437-10.803-45.314"/>
		<path style="fill:#241726;" d="M203.213,129.21c-8.483,0.002-15.685-5.441-19.004-14.739c-4.016-11.25-1.213-26.179,11.912-32.947    c0.497-0.263,1.113-0.062,1.372,0.438c0.258,0.501,0.062,1.114-0.439,1.373c-12.085,6.233-14.644,20.036-10.927,30.451    c2.67,7.478,9.787,15.364,21.053,12.96c4.204-0.893,7.605-2.174,10.094-3.754c-2.471-1.812-3.906-3.961-4.609-5.248    c-2.003-3.668-2.332-7.717-0.82-10.072c0.842-1.309,2.19-1.963,3.779-1.856c4.214,0.302,8.192,4.621,8.511,9.244    c0.117,1.689-0.207,4.747-3.258,7.689c1.84,0.849,4.119,1.424,6.914,1.424c3.563,0,6.425-0.591,8.661-1.522    c-0.708-0.927-1.286-1.985-1.717-3.165c-1.547-4.229-0.844-9.157,1.598-11.22c1.335-1.122,3.053-1.223,4.712-0.279    c3.205,1.832,4.668,5.302,3.729,8.841c-0.578,2.172-2.159,4.528-4.945,6.336c1.546,1.166,3.735,2.029,6.831,2.029    c6.21,0,10.705-1.842,13.635-4.221c-0.242-0.416-0.425-0.82-0.564-1.192c-1.409-3.786,0.13-8.411,2.395-9.865    c1.077-0.694,2.235-0.591,3.103,0.277c1.53,1.53,1.763,4.086,0.623,6.839c-0.569,1.373-1.5,2.815-2.808,4.166    c2.148,2.043,6.124,2.739,11.521,1.967c5.495-0.784,8.462-2.729,10.052-4.741c-1.335-0.575-2.502-1.335-3.398-2.264    c-1.82-1.888-2.295-4.249-1.336-6.646c1.407-3.519,3.536-3.485,4.39-3.308c2.412,0.505,4.279,3.855,4.163,7.468    c-0.025,0.75-0.173,2.079-0.813,3.585c2.647,0.625,5.833,0.609,8.857-0.477c4.918-1.763,7.873-5.867,8.322-11.558    c1.466-18.576-15.739-31.612-15.913-31.742c-0.452-0.336-0.545-0.975-0.209-1.424c0.334-0.452,0.974-0.543,1.424-0.211    c0.747,0.555,18.284,13.822,16.728,33.536c-0.697,8.823-6.355,12.131-9.665,13.317c-3.39,1.219-7.281,1.295-10.564,0.412    c-1.753,2.544-5.159,5.128-11.752,6.071c-7.398,1.056-11.279-0.597-13.316-2.61c-3.265,2.64-8.18,4.659-14.878,4.659    c-3.538,0-6.539-1.058-8.747-3.008c-2.581,1.208-5.923,1.987-10.123,1.987c-3.583,0-6.42-0.845-8.637-2.035    c-2.48,1.774-6.149,3.414-11.551,4.564C206.112,129.055,204.644,129.21,203.213,129.21z M238.797,109.377    c-0.414,0-0.795,0.149-1.148,0.448c-1.579,1.333-2.357,5.252-1.001,8.962c0.313,0.855,0.83,1.92,1.67,2.934    c2.563-1.53,3.993-3.553,4.487-5.415c0.706-2.66-0.355-5.168-2.77-6.547C239.59,109.504,239.18,109.377,238.797,109.377z     M215.269,107.841c-0.748,0-1.309,0.306-1.711,0.931c-0.933,1.452-0.925,4.665,0.894,7.997c0.66,1.21,2.066,3.292,4.56,4.941    c2.182-1.876,3.259-4.082,3.09-6.509c-0.27-3.893-3.782-7.15-6.624-7.353C215.406,107.843,215.337,107.841,215.269,107.841z     M263.553,111.499c-0.078,0-0.179,0.036-0.325,0.129c-1.208,0.776-2.765,4.277-1.587,7.44c0.059,0.157,0.123,0.31,0.193,0.458    c0.983-1.072,1.691-2.198,2.138-3.274c0.802-1.936,0.732-3.706-0.181-4.619C263.719,111.563,263.656,111.499,263.553,111.499z     M283.662,108.179c-0.943,0-1.625,1.44-1.886,2.091c-0.662,1.657-0.356,3.163,0.91,4.476c0.721,0.746,1.761,1.404,3.009,1.906    c0.532-1.19,0.681-2.286,0.706-3.044c0.096-3-1.416-5.172-2.544-5.407C283.791,108.187,283.727,108.179,283.662,108.179z"/>
	</g>
	<polygon style="fill:#F4B29B;" points="351.32,462.044 363.395,455.189 340.593,357.92 238.881,310.857 234.139,353.127    307.564,381.193  "/>
	<polygon style="fill:#F4B29B;" points="234.067,483.191 246.526,488.342 306.642,397.303 196.645,307.891 191.1,350.063    264.543,402.736  "/>
	<path style="fill:#C27B9A;" d="M210.867,244.678c0,0,11.971-26.559,28.121-16.337c21.907,13.866,20.467,25.448,20.467,25.448   s9.11-28.343,27.331-16.196c18.22,12.147-13.159,36.441-33.404,41.502C233.137,284.155,207.831,264.923,210.867,244.678z"/>
	<path style="fill:#C27B9A;" d="M281.179,320.574c0,0-43.728,81.262-47.802,84.317c-4.074,3.056-77.478-70.058-41.829-94.502   S281.179,320.574,281.179,320.574z"/>
	<path style="fill:#F4B29B;" d="M119.896,196.839c0,0,32.031-9.337,33.596-6.522c1.565,2.815-1.072,31.085-1.072,31.085   l-27.317-3.035C125.104,218.367,115.144,203.536,119.896,196.839z"/>
	<path style="fill:#C27B9A;" d="M217.392,253.935l-5.161,37.414c0,0-79.148,22.008-5.57,88.141l30.727-49.436l12.256-70.313   L217.392,253.935z"/>
	<path style="fill:#241726;" d="M386.135,173.584c-0.223,0-0.445-0.074-0.629-0.217c-0.355-0.279-0.484-0.756-0.318-1.176   l7.4-18.723l-16.275-35.629c-0.234-0.511-0.009-1.116,0.503-1.351c0.507-0.233,1.115-0.008,1.349,0.503l16.456,36.025   c0.115,0.253,0.123,0.541,0.021,0.798l-6.299,15.934l22.051-15.648l-14.004,0.358c-0.595,0.028-1.029-0.432-1.044-0.993   c-0.014-0.563,0.43-1.03,0.993-1.044l17.345-0.444c0.46,0.008,0.85,0.273,0.993,0.696c0.141,0.426-0.012,0.893-0.377,1.154   l-27.574,19.569C386.548,173.522,386.341,173.584,386.135,173.584z"/>
	<path style="fill:#241726;" d="M259.026,252.48c-0.115,0-0.233-0.02-0.347-0.062c-0.529-0.191-0.802-0.776-0.611-1.305   c3.187-8.787,3.535-15.397,1.006-19.113c-2.06-3.026-5.328-3.151-5.467-3.155c-0.56-0.016-1.005-0.481-0.992-1.042   c0.013-0.553,0.464-0.995,1.016-0.995c0.006,0,0.012,0,0.019,0c0.179,0.004,4.412,0.125,7.082,4.01   c2.982,4.337,2.729,11.399-0.748,20.991C259.834,252.224,259.443,252.48,259.026,252.48z"/>
	<path style="fill:#241726;" d="M289.082,240.919c-0.452,0-0.865-0.302-0.985-0.762c-1.523-5.837-4.13-9.813-7.748-11.817   c-4.34-2.403-8.644-1.1-8.687-1.082c-0.537,0.169-1.108-0.133-1.276-0.668c-0.168-0.537,0.13-1.108,0.667-1.277   c0.207-0.066,5.188-1.578,10.284,1.245c4.125,2.286,7.063,6.688,8.732,13.086c0.142,0.543-0.184,1.1-0.729,1.241   C289.254,240.909,289.167,240.919,289.082,240.919z"/>
	<path style="fill:#241726;" d="M214.069,257.36c-0.244,0-0.488-0.088-0.683-0.263c-0.268-0.243-6.551-5.992-5.84-10.967   c0.281-1.961,1.548-3.501,3.766-4.577c0.757-0.366,1.472-0.637,2.143-0.83c-0.467-1.9-0.508-3.863,0.13-5.544   c0.623-1.637,2.167-3.704,5.991-4.251c2.037-0.294,3.796-0.078,5.281,0.464c0.152-0.977,0.468-1.886,0.978-2.664   c0.83-1.267,2.916-3.197,7.524-1.88c2.199,0.627,3.859,1.874,5.069,3.406c1.311-1.112,3.663-2.001,7.459,0.014   c3.839,2.031,6.145,5.308,7.129,8.403c0.856,0.135,1.732,0.41,2.598,0.826c2.652,1.273,4.007,3.571,4.662,5.968   c1.131-2.415,2.959-4.637,5.911-5.512c1.286-0.38,2.348-0.436,3.217-0.318c0.727-1.339,1.646-2.564,2.656-3.416   c1.783-1.506,3.72-1.79,5.455-0.796c0.879,0.501,1.68,1.12,2.385,1.802c1.728-2.278,4.547-3.835,7.835-3.205   c1.765,0.34,3.09,1.243,3.943,2.688c2.222,3.764,0.258,9.927,0.173,10.187c-0.174,0.537-0.753,0.828-1.283,0.654   c-0.534-0.173-0.828-0.748-0.654-1.283c0.018-0.056,1.765-5.556,0.009-8.526c-0.55-0.929-1.392-1.492-2.571-1.719   c-2.792-0.547-4.889,1.048-6.065,2.785c1.669,2.252,2.362,4.749,1.614,6.095c-0.445,0.804-1.474,1.359-3.034,0.521   c-1.708-0.921-2.227-3.159-1.322-5.701c0.086-0.239,0.181-0.477,0.288-0.71c-0.628-0.658-1.397-1.289-2.328-1.82   c-0.358-0.207-1.45-0.832-3.13,0.583c-0.787,0.664-1.476,1.572-2.036,2.55c0.441,0.277,0.77,0.587,1.006,0.857   c1.165,1.341,1.478,3.374,0.762,4.947c-0.566,1.241-1.699,1.983-3.032,1.983c-0.985,0-1.75-0.551-2.101-1.51   c-0.443-1.21-0.182-3.087,0.525-4.981c-0.526,0.004-1.107,0.099-1.732,0.284c-3.912,1.158-5.393,5.646-5.953,8.763   c-0.061,1.834-0.328,3.173-0.36,3.326c-0.107,0.513-0.582,0.853-1.106,0.806c-0.52-0.056-0.914-0.497-0.91-1.021   c0.001-0.157,0.022-1.506,0.331-3.314c0.075-3.034-0.486-7.43-4.035-9.131c-0.413-0.199-0.826-0.356-1.233-0.473   c0.184,1.506,0.03,2.873-0.432,3.907c-0.774,1.733-2.367,2.399-4.156,1.739c-2.118-0.778-2.616-2.196-2.725-2.972   c-0.191-1.369,0.516-2.821,1.846-3.794c0.814-0.595,1.763-0.963,2.786-1.104c-0.93-2.399-2.813-4.943-5.884-6.569   c-2.368-1.255-4.178-1.285-5.382-0.084c0.998,1.88,1.479,3.965,1.563,5.799c0.045,0.953,0.057,4.108-1.619,4.76   c-0.335,0.129-1.204,0.32-2.06-0.706c-1.706-2.049-2.034-6.887-0.326-9.953c-0.918-1.297-2.285-2.501-4.309-3.079   c-2.564-0.728-4.332-0.382-5.261,1.038c-0.455,0.692-0.689,1.572-0.746,2.528c1.944,1.295,3.21,3.211,3.828,5.051   c0.531,1.582,0.674,3.505-0.516,4.168c-0.574,0.314-1.505,0.398-2.694-1.044c-1.449-1.759-2.479-4.426-2.642-6.984   c-1.246-0.595-2.853-0.905-4.905-0.617c-2.281,0.326-3.753,1.321-4.376,2.958c-0.485,1.277-0.422,2.875-0.017,4.452   c2.675-0.211,4.422,0.877,5.198,1.504c1.566,1.267,2.364,3.149,1.987,4.683c-0.267,1.082-1.077,1.836-2.224,2.065   c-1.267,0.245-2.721-0.497-4.088-2.113c-0.88-1.04-1.679-2.375-2.263-3.829c-0.581,0.161-1.209,0.394-1.882,0.722   c-1.594,0.772-2.458,1.765-2.639,3.032c-0.464,3.249,3.589,7.719,5.19,9.167c0.417,0.378,0.45,1.023,0.072,1.438   C214.624,257.247,214.347,257.36,214.069,257.36z M216.18,242.373c0.471,1.06,1.069,2.037,1.722,2.807   c0.931,1.1,1.755,1.504,2.133,1.43c0.474-0.095,0.594-0.346,0.646-0.555c0.156-0.633-0.244-1.765-1.29-2.612   C218.891,243.039,217.831,242.389,216.18,242.373z M270.453,242.188c-0.597,1.548-0.828,3.004-0.568,3.714   c0.064,0.173,0.088,0.173,0.188,0.173c0.542,0,0.939-0.267,1.179-0.792c0.334-0.734,0.288-1.92-0.447-2.765   C270.698,242.395,270.58,242.285,270.453,242.188z M251.386,240.624c-0.807,0.062-1.543,0.316-2.151,0.76   c-0.723,0.529-1.118,1.245-1.03,1.868c0.1,0.718,0.823,1.128,1.411,1.345c0.779,0.286,1.258,0.092,1.591-0.658   C251.556,243.156,251.634,241.973,251.386,240.624z M280.29,240.976c-0.275,1.11-0.208,2.248,0.541,2.652   c0.146,0.08,0.255,0.121,0.33,0.145C281.238,243.316,280.991,242.22,280.29,240.976z M238.331,234.222   c-0.621,2.178-0.3,4.866,0.513,6.099c0.269-0.824,0.439-2.739-0.163-5.001C238.594,234.99,238.479,234.618,238.331,234.222z    M227.106,235.34c0.371,1.47,1.034,2.877,1.858,3.887c-0.1-0.824-0.515-2.142-1.468-3.408   C227.377,235.661,227.247,235.502,227.106,235.34z"/>
	<path style="fill:#241726;" d="M237.267,300.863c-5.101,0-19.836-1.5-21.947-8.677c-0.159-0.541,0.149-1.106,0.689-1.265   c0.542-0.153,1.107,0.151,1.264,0.688c1.74,5.914,15.653,7.249,19.948,7.249c0.004,0,0.009,0,0.013,0   c-1.673-2.146-6.766-7.128-11.549-11.462c-0.417-0.376-0.449-1.021-0.071-1.438s1.023-0.448,1.439-0.07   c13.219,11.978,12.863,13.398,12.711,14.005c-0.092,0.366-0.52,0.784-0.885,0.875C238.645,300.825,238.077,300.863,237.267,300.863   z"/>
	<path style="fill:#241726;" d="M228.076,403.333c-1.099,0-2.068-0.276-2.902-0.83c-4.177-2.765-2.932-11.413-2.878-11.779   c0.084-0.555,0.608-0.943,1.158-0.855c0.556,0.084,0.94,0.601,0.857,1.158c-0.319,2.142-0.584,8.079,1.988,9.779   c1.911,1.261,5.09-0.171,7.421-1.601c5.47-3.352,6.055-8.136,5.798-11.061c-0.64,0.042-1.271,0.02-1.904-0.076   c-4.729-0.712-7.553-2.232-8.396-4.516c-0.969-2.626,1.11-5.067,1.199-5.168c1.081-1.319,2.576-1.804,4.186-1.349   c2.858,0.806,5.579,4.5,6.587,8.733c4.054-1.321,6.963-5.855,7.898-7.486c0.746-1.301,1.358-2.648,1.82-3.953   c-1.88,0.101-3.666-0.279-5.119-0.955c-2.211-1.03-3.466-2.674-3.356-4.396c0.087-1.357,1.041-3.247,5.096-4.538   c2.955-0.937,4.516,0.036,5.308,1.017c1.149,1.422,1.328,3.714,0.878,6.242c1.209-0.452,2.4-1.17,3.491-2.212   c3.346-3.197,4.206-10.054,3.228-15.944c-5.795,2.079-11.836,1.464-14.175-1.321c-0.926-1.102-2.507-4.154,2.812-8.636   c3.345-2.821,6.791-2.733,9.454,0.235c1.484,1.653,2.622,4.104,3.349,6.897c1.239-0.619,2.445-1.389,3.565-2.326   c3.672-3.07,4.657-7.418,4.361-11.009c-0.297,0.04-0.592,0.072-0.883,0.095c-3.563,0.302-6.301-0.565-7.347-2.306   c-0.537-0.893-0.883-2.415,0.519-4.591c1.546-2.403,3.286-2.536,4.194-2.397c2.137,0.322,4.061,2.648,5.022,6.073   c0.066,0.235,0.126,0.475,0.182,0.722c3.66-0.941,7.401-3.155,8.764-6.626c0.634-1.613,0.567-3.054-0.203-4.4   c-2.862-5.005-14.003-6.831-14.115-6.849c-0.556-0.09-0.934-0.611-0.845-1.168c0.089-0.555,0.615-0.921,1.166-0.845   c0.497,0.08,12.222,2.009,15.563,7.852c1.08,1.89,1.192,3.961,0.33,6.155c-1.663,4.239-6.014,6.855-10.338,7.908   c0.396,4.182-0.721,9.32-5.063,12.95c-1.372,1.146-2.874,2.079-4.424,2.807c1.195,6.63,0.207,14.456-3.709,18.196   c-1.683,1.609-3.574,2.574-5.458,3.04c-0.55,1.812-1.355,3.646-2.3,5.296c-2.581,4.502-5.895,7.464-9.325,8.48   c0.552,5.411-1.885,10.187-6.745,13.167C232.188,402.535,229.944,403.333,228.076,403.333z M233.448,378.908   c-0.56,0-1.037,0.259-1.473,0.79c-0.029,0.034-1.399,1.667-0.841,3.159c0.555,1.486,2.965,2.622,6.786,3.199   c0.43,0.064,0.853,0.088,1.263,0.074c-0.908-3.706-3.241-6.599-5.132-7.132C233.839,378.938,233.638,378.908,233.448,378.908z    M249.717,366.098c-0.452,0-0.975,0.095-1.57,0.284c-2.242,0.714-3.618,1.733-3.681,2.725c-0.053,0.828,0.804,1.778,2.183,2.421   c1.362,0.633,3.085,0.931,4.879,0.708c0.578-2.433,0.529-4.502-0.277-5.5C250.908,366.311,250.394,366.098,249.717,366.098z    M253.897,343.557c-1.093,0-2.259,0.529-3.513,1.585c-1.62,1.367-4.108,3.933-2.564,5.771c1.706,2.033,7.011,2.558,12.197,0.613   c-0.647-2.588-1.67-4.854-3.007-6.344C256.036,344.101,255.004,343.557,253.897,343.557z M265.784,330.185   c-0.835,0-1.532,0.8-1.982,1.5c-0.461,0.716-0.919,1.721-0.486,2.441c0.609,1.013,2.786,1.55,5.431,1.325   c0.244-0.02,0.49-0.048,0.74-0.082c-0.044-0.191-0.092-0.378-0.143-0.561c-0.707-2.52-2.091-4.416-3.364-4.607   C265.913,330.191,265.849,330.185,265.784,330.185z"/>
	<g>
		<path style="fill:#241726;" d="M202.411,354.525c-0.222,0-0.446-0.072-0.633-0.221c-1.165-0.927-2.673-4.291-2.962-4.955    c-0.226-0.515,0.01-1.116,0.525-1.341c0.521-0.225,1.117,0.012,1.341,0.525c0.74,1.693,1.854,3.77,2.363,4.176    c0.441,0.35,0.513,0.991,0.163,1.432C203.008,354.393,202.711,354.525,202.411,354.525z"/>
		<path style="fill:#241726;" d="M195.985,351.847c-0.222,0-0.447-0.072-0.634-0.223c-1.165-0.927-2.672-4.291-2.962-4.955    c-0.226-0.515,0.01-1.116,0.525-1.341c0.517-0.225,1.117,0.012,1.341,0.525c0.74,1.693,1.855,3.772,2.365,4.18    c0.441,0.35,0.512,0.991,0.162,1.43C196.58,351.716,196.284,351.847,195.985,351.847z"/>
		<path style="fill:#241726;" d="M195.689,341.857c-0.222,0-0.447-0.072-0.634-0.223c-1.165-0.927-2.672-4.289-2.961-4.953    c-0.226-0.515,0.01-1.116,0.525-1.341c0.516-0.225,1.117,0.012,1.341,0.525c0.74,1.691,1.854,3.77,2.364,4.178    c0.441,0.35,0.512,0.991,0.162,1.43C196.285,341.725,195.989,341.857,195.689,341.857z"/>
		<path style="fill:#241726;" d="M189.577,340.013c-0.222,0-0.446-0.072-0.634-0.223c-1.165-0.927-2.673-4.291-2.962-4.955    c-0.226-0.515,0.01-1.116,0.525-1.341c0.521-0.223,1.117,0.012,1.341,0.525c0.74,1.693,1.854,3.772,2.365,4.18    c0.44,0.35,0.512,0.991,0.162,1.43C190.174,339.881,189.876,340.013,189.577,340.013z"/>
		<path style="fill:#241726;" d="M202.725,346.052c-0.222,0-0.446-0.072-0.634-0.223c-1.165-0.927-2.673-4.291-2.962-4.955    c-0.226-0.515,0.01-1.116,0.525-1.341c0.522-0.225,1.117,0.012,1.341,0.525c0.74,1.693,1.854,3.772,2.365,4.18    c0.44,0.35,0.512,0.991,0.162,1.43C203.322,345.921,203.025,346.052,202.725,346.052z"/>
		<path style="fill:#241726;" d="M211.169,360.365c-0.222,0-0.446-0.072-0.633-0.221c-1.166-0.927-2.674-4.291-2.963-4.955    c-0.226-0.515,0.01-1.116,0.525-1.341c0.521-0.225,1.117,0.012,1.341,0.525c0.74,1.693,1.854,3.77,2.364,4.176    c0.441,0.35,0.514,0.991,0.164,1.432C211.767,360.234,211.469,360.365,211.169,360.365z"/>
		<path style="fill:#241726;" d="M203.203,363.689c-0.222,0-0.446-0.072-0.633-0.221c-1.166-0.927-2.674-4.291-2.963-4.955    c-0.226-0.515,0.01-1.116,0.525-1.341c0.522-0.225,1.118,0.012,1.341,0.525c0.74,1.693,1.854,3.77,2.364,4.176    c0.441,0.35,0.514,0.991,0.164,1.432C203.801,363.558,203.503,363.689,203.203,363.689z"/>
		<path style="fill:#241726;" d="M211.062,369.737c-0.222,0-0.446-0.072-0.633-0.221c-1.166-0.927-2.674-4.291-2.963-4.955    c-0.226-0.515,0.01-1.116,0.525-1.341c0.524-0.225,1.116,0.012,1.341,0.525c0.74,1.693,1.854,3.77,2.364,4.176    c0.441,0.35,0.514,0.991,0.164,1.432C211.659,369.606,211.362,369.737,211.062,369.737z"/>
	</g>
	<path style="fill:#241726;" d="M138.255,200.163c-0.472,0-0.896-0.33-0.997-0.812c-0.114-0.551,0.24-1.09,0.791-1.204   c3.253-0.676,14.056-2.731,16.514-0.82c0.444,0.344,0.524,0.985,0.178,1.428c-0.343,0.446-0.984,0.527-1.429,0.179   c-1.176-0.911-8.624-0.084-14.849,1.206C138.394,200.157,138.324,200.163,138.255,200.163z"/>
	<path style="fill:#241726;" d="M154.19,208.763c-0.195,0-0.391-0.056-0.565-0.171c-0.755-0.249-8.429-1.03-15.202-1.605   c-0.56-0.048-0.976-0.539-0.928-1.1c0.047-0.559,0.542-0.955,1.101-0.929c15.184,1.287,15.92,1.778,16.161,1.94   c0.467,0.312,0.594,0.945,0.28,1.414C154.841,208.604,154.519,208.763,154.19,208.763z"/>
	<path style="fill:#241726;" d="M151.352,217.361c-1.859,0-8.95-2.218-13.159-3.591c-0.534-0.175-0.827-0.75-0.652-1.285   c0.173-0.535,0.744-0.83,1.285-0.652c5.379,1.755,11.477,3.479,12.437,3.503c0.554-0.117,1.062,0.251,1.173,0.802   c0.11,0.551-0.274,1.092-0.826,1.204C151.541,217.355,151.454,217.361,151.352,217.361z"/>
	<g>
		<polygon style="fill:#C27B9A;" points="273.663,88.349 217.599,95.551 228.258,50.072 232.186,46.112 230.525,40.399     234.572,23.133 241.191,34.175 240.409,37.875 245.382,41.167 251.832,51.927 250.25,55.962 256.592,59.869   "/>
		<path style="fill:#241726;" d="M216.063,32.398c-0.433,0-0.815-0.058-1.135-0.185c-0.66-0.263-1.059-0.778-1.095-1.41    c-0.12-2.178,6.001-6.077,11.863-9.298c-5.04-2.121-14.345-6.599-13.831-10.557c0.092-0.709,0.49-1.267,1.123-1.571    c2.529-1.219,10.046,2.534,15.033,5.338c-2.193-3.685-4.962-9.217-3.992-12.307c0.327-1.041,1.044-1.791,2.073-2.168    c1.122-0.408,2.224-0.294,3.185,0.336c2.43,1.594,3.588,6.427,4.123,9.978c1.581-3.402,4.158-8.052,6.861-9.212    c0.876-0.373,1.76-0.394,2.559-0.056c0.762,0.324,1.31,0.939,1.584,1.78c0.931,2.863-1.577,8.598-3.566,12.459    c4.734-3.042,11.834-6.811,14.487-4.08c0.53,0.546,0.728,1.24,0.557,1.956c-0.897,3.756-14.293,8.622-18.378,10.024    c-0.533,0.181-1.11-0.101-1.294-0.634c-0.182-0.531,0.101-1.111,0.634-1.294c9.083-3.118,17.055-7.135,17.061-8.596    c-1.603-1.65-9.253,2.213-15.439,6.714c-0.393,0.283-0.93,0.256-1.287-0.072c-0.357-0.327-0.436-0.86-0.186-1.276    c2.56-4.269,6.311-12.001,5.474-14.572c-0.115-0.356-0.288-0.47-0.442-0.535c-0.18-0.078-0.476-0.154-0.96,0.052    c-2.836,1.215-6.234,8.863-7.304,11.707c-0.168,0.45-0.637,0.72-1.105,0.649c-0.476-0.072-0.837-0.466-0.864-0.947    c-0.236-4.006-1.43-10.9-3.632-12.345c-0.425-0.278-0.845-0.317-1.367-0.125c-0.436,0.159-0.691,0.426-0.83,0.864    c-0.872,2.776,3.239,10.145,6.035,14.137c0.277,0.394,0.238,0.929-0.092,1.28c-0.329,0.351-0.86,0.423-1.272,0.174    c-7.773-4.733-15.613-8.18-16.788-7.389c-0.233,2,7.35,6.378,14.596,9.205c0.371,0.145,0.624,0.492,0.647,0.889    c0.024,0.398-0.187,0.772-0.538,0.959c-5.322,2.829-11.196,6.541-12.466,8.12c0.031,0,0.064,0.002,0.097,0.002    c2.47,0,9.555-3.662,15.296-7.418c0.472-0.307,1.101-0.175,1.41,0.294c0.308,0.471,0.176,1.102-0.294,1.41    C230.494,26.06,220.559,32.398,216.063,32.398z"/>
		<polygon style="fill:#F19CA4;" points="230.525,40.399 228.258,50.072 245.382,41.167 241.191,34.175   "/>
		<path style="fill:#F19CA4;" d="M223.904,68.647l32.64-8.858l-4.713-7.862c-1.639-0.114-21.429,6.813-25.981,8.416L223.904,68.647z    "/>
		<polygon style="fill:#F19CA4;" points="220.796,81.909 218.902,89.992 269.253,80.992 263.759,71.826   "/>
	</g>
</g>















</svg>
