<?xml version="1.0" encoding="UTF-8"?>
<!-- Generator: Adobe Illustrator 25.2.0, SVG Export Plug-In . SVG Version: 6.00 Build 0)  -->
<svg xmlns="http://www.w3.org/2000/svg" xmlns:xlink="http://www.w3.org/1999/xlink" version="1.1" id="Capa_1" x="0px" y="0px" viewBox="0 0 512 512" style="enable-background:new 0 0 512 512;" xml:space="preserve" width="512" height="512">
<g>
	<path style="fill:#F9DD96;" d="M417.673,74.21c0,0,16.589,2.412,30.737,29.615c19.776,38.024-41.398,92.353-17.23,114.147   s5.499,109.352-95.181,62.265S268.353,29.907,417.673,74.21z"/>
	<g>
		<path style="fill:#241726;" d="M366.969,300.027c-3.157,0.001-6.909-0.592-11.349-2.096c-0.602-0.204-0.926-0.857-0.721-1.459    c0.202-0.601,0.858-0.926,1.458-0.72c8.52,2.885,15.758,2.526,20.319-0.839c-1.836-1.778-2.759-3.798-3.2-5.087    c-1.627-4.781-0.595-10.555,2.211-12.356c0.726-0.466,2.658-1.314,4.927,0.835c3.615,3.423,4.094,9.472,1.135,14.384    c-0.315,0.519-0.811,1.245-1.53,2.039c1.975,1.129,4.716,1.81,8.54,1.49c7.208-0.621,11.9-3.527,13.567-8.403    c0.42-1.235,0.634-2.531,0.674-3.849c-1.049-0.102-2.121-0.37-3.204-0.808c-7.648-3.097-10.444-8.535-10.513-12.249    c-0.045-2.359,0.932-4.221,2.615-4.978c1.099-0.49,3.409-0.892,6.55,2c3.391,3.123,6.163,8.373,6.734,13.687    c4.249-0.727,6.626-5.147,7.381-6.817c1.38-3.054,2.036-6.641,1.869-10.072c-7.168-0.728-11.94-5.562-13.556-9.116    c-1.061-2.331-0.964-4.348,0.265-5.531c1.036-0.995,3.227-1.702,7.783,0.581c4.469,2.238,6.932,6.777,7.644,11.855    c0.393-0.006,0.793-0.026,1.2-0.061c2.986-0.26,4.786-1.085,5.505-2.523c2.137-4.283-4.206-14.449-12.239-27.319    c-2.285-3.66-4.728-7.573-7.197-11.705c-7.965-13.317-5.842-24.542-2.658-31.613c3.438-7.631,8.691-12.06,8.911-12.246    c0.49-0.409,1.216-0.342,1.62,0.147c0.407,0.488,0.342,1.213-0.146,1.62c-0.822,0.688-19.982,17.119-5.754,40.91    c2.465,4.12,4.898,8.02,7.177,11.669c8.741,14.008,15.059,24.13,12.345,29.565c-1.105,2.213-3.514,3.452-7.365,3.787    c-0.404,0.036-0.802,0.057-1.195,0.067c0.139,3.718-0.595,7.577-2.112,10.932c-2.171,4.805-5.536,7.65-9.372,8.175    c-0.029,1.584-0.276,3.147-0.784,4.634c-1.384,4.048-5.204,9.061-15.546,9.952c-4.757,0.413-8.118-0.619-10.473-2.153    C376.116,298.249,372.436,300.027,366.969,300.027z M377.554,279.207c-0.315,0-0.519,0.131-0.625,0.198    c-1.699,1.091-2.647,5.651-1.274,9.679c0.436,1.279,1.243,2.906,2.725,4.293c0.519-0.571,0.986-1.196,1.398-1.876    c2.366-3.928,2.045-8.882-0.746-11.524C378.395,279.371,377.905,279.207,377.554,279.207z M393.564,267.88    c-0.261,0-0.503,0.048-0.719,0.146c-0.804,0.362-1.287,1.449-1.261,2.837c0.056,3.014,2.467,7.483,9.075,10.161    c0.786,0.318,1.53,0.517,2.236,0.617c-0.544-4.651-3.006-9.257-6.006-12.02C395.655,268.484,394.487,267.88,393.564,267.88z     M403.789,251.438c-0.517,0-0.863,0.118-1.052,0.3c-0.454,0.438-0.362,1.612,0.234,2.921c1.29,2.838,5.291,6.895,11.214,7.711    c-0.694-4.188-2.728-7.869-6.289-9.652C406.014,251.775,404.661,251.438,403.789,251.438z"/>
		<polygon style="fill:#F1958E;" points="269.048,212.819 183.201,214.162 198.292,122.33 182.233,117.155 150.384,230.982     266.907,254.423   "/>
		<path style="fill:#F4B29B;" d="M397.361,134.494c0,0,6.715-50.128-62.001-76.82c-26.356-10.238-100.694,87.469-75.161,109.802    C323.646,222.971,373.414,197.094,397.361,134.494z"/>
		<path style="fill:#241726;" d="M303.157,146.527c-0.164,0-0.33-0.035-0.488-0.109c-0.393-0.184-9.671-4.543-14.324-7.601    c-0.679-0.446-1.007-1.117-0.906-1.844c0.557-3.944,21.177-10.908,33.418-14.707c0.618-0.183,1.254,0.153,1.44,0.757    c0.189,0.608-0.151,1.252-0.757,1.44c-13.987,4.342-29.574,10.24-31.648,12.614c4.635,2.974,13.659,7.214,13.751,7.258    c0.575,0.27,0.825,0.955,0.555,1.53C304.002,146.282,303.588,146.527,303.157,146.527z"/>
		<path style="fill:#241726;" d="M286.487,168.027c-0.094,0-0.189-0.003-0.281-0.01c-1.119-0.078-2.04-0.593-2.669-1.493    c-3.521-5.047,0.368-16.774,0.825-18.095c0.207-0.599,0.858-0.916,1.463-0.712c0.6,0.207,0.919,0.862,0.712,1.462    c-1.13,3.284-3.532,12.562-1.112,16.029c0.231,0.331,0.512,0.485,0.939,0.515c2.955,0.201,9.477-5.539,12.879-9.207    c0.429-0.467,1.164-0.492,1.625-0.062c0.465,0.433,0.494,1.161,0.061,1.626C299.971,159.114,291.556,168.027,286.487,168.027z"/>
		<path style="fill:#241726;" d="M333.686,151.044c-2.022,0-3.64-0.302-4.352-1.111c-0.312-0.356-0.771-1.126-0.324-2.279    c1.775-4.576,10.675-11.178,11.053-11.457c0.508-0.376,1.231-0.27,1.609,0.243c0.377,0.511,0.267,1.231-0.243,1.609    c-2.427,1.791-8.999,7.155-10.275,10.439c0.872,0.821,8.186,0.006,15.576-1.829c0.62-0.156,1.24,0.225,1.393,0.839    c0.153,0.617-0.222,1.241-0.84,1.394C344.116,149.677,337.984,151.044,333.686,151.044z"/>
		<path style="fill:#241726;" d="M298.27,114.451c-0.62,0-1.15-0.094-1.564-0.303c-0.717-0.362-1.164-1.012-1.254-1.83    c-0.557-5.035,11.363-13.431,13.758-15.062c0.521-0.354,1.24-0.225,1.598,0.302c0.357,0.526,0.222,1.241-0.303,1.599    c-5.48,3.735-13.064,10.21-12.765,12.907c1.191,0.943,9.325-2.378,17.396-7.064c0.546-0.317,1.252-0.134,1.573,0.418    c0.319,0.549,0.133,1.254-0.418,1.573C313.03,108.882,303.026,114.451,298.27,114.451z"/>
		<path style="fill:#241726;" d="M203.988,482.469l5.812,24.953l-6.284,1.418l-2.251-11.952c0,0-2.939,19.117-25.6,14.349    c-22.661-4.769,26.172,0.801,12.757-26.857L203.988,482.469z"/>
		<path style="fill:#241726;" d="M66.778,407.929l-18.929,17.267l-4.308-4.79l9.327-7.806c0,0-18.115,6.779-25.03-15.321    c-6.915-22.101,12.092,23.225,29.666-1.996L66.778,407.929z"/>
		<circle style="fill:#F1958E;" cx="324.366" cy="166.184" r="11.148"/>
		<circle style="fill:#F1958E;" cx="280.931" cy="120.28" r="11.148"/>
		<path style="fill:#F4B29B;" d="M353.736,184.273c0,0,25.448-2.739,20.161,14.222s-34.179,15.626-32.341-4.882L353.736,184.273z"/>
		<path style="fill:#241726;" d="M351.234,204c-0.986,0-1.294-0.411-1.492-0.675c-0.89-1.191-0.335-2.851,5.148-8.203    c5.107-4.987,8.314-6.656,10.385-5.415c2.669,1.594,1.321,7.146,0.843,8.809c-0.175,0.609-0.807,0.959-1.422,0.789    c-0.611-0.174-0.964-0.811-0.789-1.422c0.728-2.546,0.962-5.739,0.189-6.2c-0.063-0.039-1.555-0.817-7.597,5.087    c-2.651,2.586-3.831,4.029-4.357,4.805c1.683-0.467,5.011-2.035,7.763-3.583c0.553-0.311,1.256-0.115,1.566,0.439    c0.312,0.554,0.115,1.256-0.438,1.567C355.359,203.185,352.625,204,351.234,204z"/>
		<path style="fill:#F4B29B;" d="M306.55,191.465l-2.924,25.044l-29.882-7.011c0,0-14.627,44.315,10.773,46.582    c25.401,2.266,63.023-28.037,63.023-28.037l-26.847-11.49l8.549-34.838L306.55,191.465z"/>
		<polygon style="fill:#737288;" points="302.415,331.968 160.694,249.937 37.934,377.016 78.54,424.946 173.365,285.833     247.929,355.311   "/>
		<path style="fill:#737288;" d="M321.597,326.047c0,0,17.754,58.08-36.107,56.435c-53.861-1.645-89.011-4.494-89.011-4.494    l38.279,105.002l-69.823,2.88l-3.289-136.554L321.597,326.047z"/>
		<path style="fill:#C57C9C;" d="M295.984,214.248c0,0-8.878,21.834-4.75,22.24s41.654-17.253,41.654-17.253    s34.476,15.352,35.767,28.304c1.291,12.951,10.796,42.761-46.211,114.638l-64.058-51.264c0,0,21.102-24.222,1.815-36.884    C223.391,249.863,272.919,204.284,295.984,214.248z"/>
		<polygon style="fill:#42928F;" points="142.2,104.747 208.267,74.309 208.24,161.036   "/>
		<g>
			<path style="fill:#F9DD96;" d="M389.511,59.058c0,0-0.201-44.383-48.22-37.901c-36.147,4.88-56.744,43.557-27.037,61.391     c16.305,9.788,26.627-11.362,17.903-10.547c-8.723,0.815-20.708,21.126-0.592,31.84c20.117,10.713,32.491-7.055,22.107-8.588     c-10.384-1.533-25.812,20.086-6.279,26.985s39.59-6.58,26.84-8.272c-12.75-1.692-15.374,27.076,1.209,30.002     c16.583,2.927,24.4-15.706,16.419-13.443c-7.981,2.263-22.12,25.506-3.895,28.962c18.225,3.456,25.088-19.714,25.088-19.714"/>
			<path style="fill:#241726;" d="M391.586,160.987c-1.222,0.001-2.499-0.117-3.833-0.371c-6.1-1.157-9.588-4.703-9.821-9.986     c-0.074-1.647,0.186-3.413,0.697-5.198c-1.085-0.019-2.215-0.126-3.386-0.333c-9.498-1.676-13.407-11.373-12.41-19.974     c-4.925,0.502-10.444,0.095-15.823-1.803c-11.237-3.97-10.543-12.088-9.722-15.394c0.038-0.157,0.079-0.315,0.124-0.472     c-2.033-0.571-4.168-1.42-6.386-2.601c-8.314-4.429-12.434-11.259-11.468-18.895c-1.815-0.398-3.786-1.161-5.896-2.427     c-11.462-6.88-16.634-17.625-14.191-29.478c3.489-16.935,21.013-31.25,41.667-34.038c15.232-2.051,27.34,0.716,35.987,8.238     c13.299,11.57,13.533,30.018,13.538,30.797c0.002,0.636-0.51,1.153-1.144,1.156c-0.002,0-0.005,0-0.007,0     c-0.631,0-1.146-0.511-1.15-1.145c0-0.181-0.249-18.212-12.76-29.085c-8.123-7.058-19.6-9.647-34.155-7.681     c-22.339,3.015-36.892,18.492-39.721,32.222c-2.265,10.999,2.395,20.602,13.124,27.042c1.847,1.11,3.568,1.776,5.145,2.121     c1.701-6.592,7.046-12.359,12.057-12.828c1.957-0.188,3.453,0.572,4.096,2.072c1.119,2.604-0.616,6.818-4.033,9.802     c-1.642,1.434-5.217,3.886-10.275,3.556c-0.528,4.353,0.497,11.337,10.271,16.541c2.121,1.13,4.155,1.932,6.076,2.459     c2.903-6.725,10.008-12.002,15.656-11.171c3.319,0.49,4.298,2.365,4.588,3.439c0.627,2.328-0.701,5.14-3.465,7.338     c-3.296,2.622-8.66,4.351-15.31,3.094c-0.047,0.165-0.092,0.331-0.135,0.498c-1.434,5.782,1.499,10.282,8.26,12.669     c5.354,1.892,10.767,2.177,15.459,1.607c1.523-6.687,5.878-10.642,11.147-9.934c2.743,0.364,4.381,1.287,4.867,2.747     c0.29,0.864,0.274,2.247-1.44,3.932c-2.29,2.25-6.929,4.368-12.616,5.308c-1.119,7.679,2.144,16.556,10.448,18.022     c1.319,0.231,2.566,0.315,3.779,0.292c2.552-6.405,7.878-12.505,12.124-13.71c2.377-0.668,3.512,0.261,3.979,0.875     c1.099,1.447,0.766,3.929-0.888,6.639c-2.312,3.789-7.028,7.706-13.592,8.398c-0.577,1.771-0.89,3.542-0.816,5.199     c0.186,4.23,2.863,6.863,7.95,7.828c17.027,3.234,23.707-18.689,23.772-18.911c0.18-0.609,0.825-0.955,1.429-0.776     c0.611,0.181,0.957,0.821,0.777,1.43C414.091,140.323,407.766,160.984,391.586,160.987z M393.085,131.481     c-0.249,0-0.559,0.049-0.91,0.148c-3.078,0.873-7.653,5.788-10.156,11.232c5.114-0.923,8.79-4.073,10.655-7.131     c1.258-2.06,1.353-3.607,1.018-4.049C393.59,131.549,393.377,131.481,393.085,131.481z M373.193,115.045     c-3.775,0-6.314,3.333-7.473,7.32c4.901-0.954,8.743-2.797,10.477-4.504c0.775-0.761,0.955-1.317,0.872-1.562     c-0.128-0.385-0.989-0.93-2.986-1.195C373.779,115.064,373.483,115.045,373.193,115.045z M340.473,105.796     c5.705,0.98,10.262-0.483,13.057-2.705c1.973-1.571,3.049-3.556,2.676-4.941c-0.315-1.172-1.642-1.604-2.703-1.76     C348.965,95.71,343.066,100.195,340.473,105.796z M322.294,83.976c4.074,0.158,6.968-1.812,8.305-2.982     c2.791-2.436,4.049-5.729,3.436-7.161c-0.088-0.202-0.348-0.823-1.768-0.688C328.704,73.478,323.938,77.935,322.294,83.976z"/>
		</g>
		<polygon style="fill:#42928F;" points="373.128,59.863 404.709,116.154 458.658,52.114   "/>
		<path style="fill:#241726;" d="M464.539,76.42c-0.359,0-0.732-0.112-1.09-0.338c-3.748-2.362-4.734-18.025-4.894-21.141    c-0.034-0.634,0.454-1.175,1.09-1.208c0.71-0.06,1.173,0.458,1.207,1.091c0.404,7.864,1.82,16.932,3.48,18.991    c0.6-2.2,0.076-10.041-0.888-16.788c-0.063-0.445,0.139-0.886,0.517-1.13c0.377-0.245,0.865-0.243,1.243-0.002    c7.37,4.707,16.398,8.785,18.103,7.159c-0.043-1.564-8.415-6.424-17.906-10.366c-0.503-0.209-0.791-0.741-0.69-1.276    c0.101-0.536,0.564-0.926,1.108-0.937c5.505-0.107,14.964-1.262,16.917-3.905c0.308-0.418,0.38-0.828,0.236-1.331    c-0.173-0.603-0.49-0.963-1.025-1.164c-2.786-1.044-9.868,2.45-13.681,4.903c-0.456,0.294-1.056,0.229-1.44-0.157    c-0.382-0.386-0.443-0.988-0.144-1.441c1.883-2.869,6.599-11.06,5.819-14.457c-0.133-0.577-0.4-0.797-0.591-0.91    c-0.16-0.098-0.38-0.18-0.782-0.047c-2.905,0.949-7.464,9.518-9.653,14.696c-0.213,0.501-0.737,0.788-1.287,0.68    c-0.537-0.109-0.923-0.58-0.923-1.127c-0.011-8.642-1.577-18.19-4.092-18.546c-1.389,0.966,0.254,10.915,3.456,21.279    c0.189,0.607-0.153,1.25-0.759,1.438c-0.6,0.19-1.249-0.152-1.438-0.759c-1.44-4.66-5.918-20.123-3.09-23.442    c0.542-0.631,1.308-0.911,2.155-0.794c4.26,0.603,5.548,9.593,5.921,15.936c2.2-4.386,5.766-10.492,8.997-11.548    c0.955-0.31,1.878-0.219,2.678,0.26c0.84,0.503,1.413,1.323,1.654,2.372c0.741,3.238-1.786,8.687-3.838,12.393    c3.595-1.876,8.772-4.041,11.848-2.881c1.216,0.457,2.054,1.385,2.427,2.683c0.342,1.187,0.135,2.34-0.598,3.332    c-2.173,2.943-9.064,4.099-13.886,4.552c5.878,2.683,14.299,7.035,14.879,10.164c0.144,0.779-0.101,1.513-0.685,2.071    c-3.271,3.098-13.549-2.405-18.84-5.594c0.964,7.495,1.481,15.674-0.586,17.015C465.182,76.327,464.865,76.42,464.539,76.42z"/>
		<polygon style="fill:#906A8C;" points="437.049,77.765 446.114,67.004 444.18,53.426 434.577,54.296   "/>
		<path style="fill:#906A8C;" d="M421.834,95.825l7.26-8.618c-1.208-5.202-7.053-30.2-8.205-31.672l-10.836,0.982L421.834,95.825z"/>
		<polygon style="fill:#906A8C;" points="407.233,113.158 414.678,104.32 395.483,57.837 383.07,58.962   "/>
		<path style="fill:#C57C9C;" d="M235.843,207.283l-6.461,38.134l54.638,7.7l11.964-38.869    C295.984,214.248,266.526,203.143,235.843,207.283z"/>
		<path style="fill:#C57C9C;" d="M308.133,243.402l-8.708,41.49c0,0,19.642,16.821,53.459-4.92S369.42,214.194,308.133,243.402z"/>
		<path style="fill:#241726;" d="M338.123,293.753c-9.812,0-22.39-1.982-36.034-9.062c-0.564-0.293-0.784-0.987-0.49-1.551    c0.294-0.565,0.984-0.781,1.55-0.491c29.85,15.492,54.333,5.868,54.575,5.768c0.591-0.246,1.258,0.045,1.499,0.631    c0.24,0.588-0.043,1.258-0.631,1.499C358.453,290.604,350.486,293.753,338.123,293.753z"/>
		<path style="fill:#241726;" d="M253.958,269.542c-0.292,0-0.586-0.111-0.811-0.334c-4.687-4.652-6.754-9.902-6.141-15.605    c1.649-15.376,22.132-28.602,23.004-29.157c0.537-0.343,1.247-0.183,1.589,0.351c0.342,0.536,0.184,1.247-0.353,1.589    c-0.202,0.13-20.424,13.192-21.952,27.467c-0.533,4.971,1.31,9.589,5.476,13.722c0.449,0.448,0.454,1.176,0.005,1.627    C254.549,269.428,254.255,269.542,253.958,269.542z"/>
		<polygon style="fill:#F4B29B;" points="307.942,245.902 244.568,238.773 211.106,142.576 201.395,153.829 226.081,269.882     299.886,277.149   "/>
		<path style="fill:#241726;" d="M308.727,277.119c-0.182,0-0.366-0.043-0.537-0.133c-0.562-0.297-0.777-0.992-0.481-1.554    c10.507-19.937,5.62-35.202,5.57-35.354c-0.202-0.602,0.124-1.254,0.726-1.455c0.607-0.201,1.252,0.121,1.454,0.722    c0.22,0.656,5.28,16.299-5.714,37.158C309.538,276.896,309.138,277.119,308.727,277.119z"/>
		<path style="fill:#241726;" d="M322.354,343.128c-0.018,0-0.036,0-0.054-0.001c-18.95-0.897-53.214-31.075-54.663-32.36    c-0.474-0.421-0.519-1.148-0.097-1.623c0.42-0.477,1.146-0.52,1.625-0.098c0.348,0.309,35.101,30.924,53.243,31.783    c0.636,0.03,1.126,0.568,1.094,1.203C323.473,342.648,322.966,343.128,322.354,343.128z"/>
		<path style="fill:#241726;" d="M231.638,337.703c-0.463,0-0.888-0.28-1.065-0.717c-0.198-0.483-0.045-1.039,0.373-1.353    c1.696-1.278,16.778-12.488,23.226-12.04c0.634,0.043,1.114,0.591,1.072,1.225c-0.043,0.636-0.64,1.091-1.225,1.072    c-3.788-0.272-12.38,5.061-18.005,8.939l23.631-3.043c0.613-0.076,1.207,0.364,1.287,0.994c0.081,0.63-0.364,1.207-0.995,1.289    l-28.154,3.625C231.734,337.699,231.685,337.703,231.638,337.703z"/>
		<path style="fill:#241726;" d="M179.559,69.096c-0.422,0-0.829-0.235-1.031-0.639c-0.395-0.801-9.637-19.74-3.206-31.752    c2.712-5.07,7.792-8.118,15.099-9.06c0.62-0.069,1.207,0.364,1.287,0.994c0.081,0.63-0.364,1.207-0.995,1.289    c-6.523,0.84-11.019,3.484-13.362,7.859c-5.871,10.965,3.148,29.464,3.24,29.649c0.281,0.568,0.047,1.259-0.521,1.541    C179.905,69.058,179.732,69.096,179.559,69.096z"/>
		<path style="fill:#241726;" d="M168.632,67.993c-0.425,0-0.834-0.237-1.034-0.645c-1.07-2.187-25.956-53.724-3.364-67.185    c0.539-0.325,1.249-0.149,1.577,0.4c0.326,0.546,0.146,1.252-0.4,1.577c-20.791,12.387,3.999,63.68,4.253,64.197    c0.279,0.571,0.043,1.259-0.528,1.539C168.976,67.955,168.803,67.993,168.632,67.993z"/>
		<path style="fill:#241726;" d="M157.919,63.733c-0.51,0-0.975-0.34-1.112-0.856c-8.727-33.036-43.871-30.738-44.228-30.71    c-0.593,0.028-1.186-0.424-1.236-1.059c-0.047-0.634,0.427-1.186,1.061-1.235c0.375-0.028,37.416-2.46,46.628,32.415    c0.162,0.615-0.204,1.245-0.818,1.407C158.114,63.721,158.015,63.733,157.919,63.733z"/>
		<path style="fill:#241726;" d="M162.257,85.277c-0.422,0-0.827-0.234-1.029-0.637c-7.458-14.943-16.402-23.525-26.583-25.507    c-12.841-2.491-23.372,6.634-23.478,6.726c-0.474,0.418-1.202,0.377-1.622-0.1c-0.422-0.475-0.377-1.201,0.097-1.622    c0.461-0.409,11.45-9.974,25.419-7.266c10.929,2.117,20.427,11.114,28.226,26.743c0.283,0.568,0.054,1.259-0.515,1.543    C162.606,85.238,162.43,85.277,162.257,85.277z"/>
		<path style="fill:#241726;" d="M383.877,248.962c-0.333,0-0.665-0.145-0.892-0.425c-22.546-27.704,6.574-64.927,6.871-65.3    c0.402-0.499,1.126-0.577,1.618-0.183c0.497,0.395,0.58,1.119,0.184,1.617c-0.072,0.09-7.237,9.176-11.612,21.416    c-5.799,16.227-4.211,30.021,4.723,40.998c0.402,0.492,0.326,1.217-0.166,1.618C384.389,248.878,384.133,248.962,383.877,248.962z    "/>
		<path style="fill:#241726;" d="M225.544,482.759c-0.485,0-0.935-0.308-1.094-0.793c-10.657-32.62-35.245-108.847-33.376-112.162    c0.157-0.282,0.51-0.554,0.825-0.627c0.577-0.142,1.887,0.027,8.314,0.909c71.157,9.755,110.177,6.006,115.981-11.136    c0.204-0.601,0.858-0.929,1.458-0.721c0.602,0.203,0.926,0.857,0.721,1.458c-9.356,27.635-91.483,16.377-118.473,12.678    c-2.84-0.39-5.39-0.739-6.709-0.874c1.007,8.489,20.229,69.306,33.448,109.76c0.195,0.604-0.133,1.254-0.737,1.45    C225.782,482.741,225.663,482.759,225.544,482.759z"/>
		<path style="fill:#241726;" d="M289.242,382.213c-0.353,0-0.703-0.163-0.928-0.471c-3.818-5.215-5.265-10.783-4.305-16.547    c2.101-12.632,14.931-21.711,15.477-22.092c0.519-0.362,1.238-0.234,1.602,0.285c0.364,0.52,0.236,1.238-0.285,1.602    c-0.126,0.088-12.589,8.92-14.526,20.592c-0.852,5.127,0.458,10.107,3.894,14.8c0.375,0.513,0.265,1.232-0.249,1.608    C289.716,382.141,289.478,382.213,289.242,382.213z"/>
		<path style="fill:#241726;" d="M70.581,412.81c-0.238,0-0.476-0.073-0.681-0.224c-0.512-0.376-0.622-1.096-0.245-1.609    c0.247-0.338,25.161-34.186,50.115-67.546c50.897-68.047,52.211-67.832,53.402-67.661c2.995,0.442,37.326,34.9,51.946,49.695    c0.447,0.452,0.443,1.181-0.009,1.627c-0.452,0.448-1.18,0.442-1.627-0.009c-17.526-17.734-45.976-45.935-50.407-48.858    c-6.26,5.649-63.671,82.618-101.569,134.116C71.282,412.649,70.934,412.81,70.581,412.81z"/>
		<path style="fill:#241726;" d="M88.628,410.931c-0.29,0-0.58-0.108-0.802-0.326l-42.57-41.422    c-0.456-0.443-0.465-1.172-0.022-1.627c0.445-0.455,1.177-0.463,1.627-0.022l42.57,41.422c0.456,0.443,0.465,1.172,0.022,1.627    C89.228,410.814,88.927,410.931,88.628,410.931z"/>
		<path style="fill:#241726;" d="M165.201,471.008c-0.589,0-1.09-0.449-1.144-1.047c-0.056-0.633,0.409-1.192,1.043-1.249    l63.41-5.728c0.616-0.063,1.193,0.408,1.249,1.043c0.056,0.633-0.409,1.192-1.043,1.249l-63.41,5.728    C165.271,471.006,165.237,471.008,165.201,471.008z"/>
		<g>
			<path style="fill:#241726;" d="M177.242,438.152c-0.508,0-0.973-0.337-1.11-0.85c-0.44-1.623,0.44-5.693,0.622-6.491     c0.139-0.619,0.746-1.007,1.375-0.868c0.62,0.14,1.009,0.756,0.867,1.376c-0.458,2.035-0.836,4.671-0.645,5.384     c0.166,0.613-0.195,1.245-0.809,1.411C177.442,438.14,177.341,438.152,177.242,438.152z"/>
			<path style="fill:#241726;" d="M173.189,431.414c-0.508,0-0.971-0.337-1.11-0.848c-0.443-1.625,0.438-5.694,0.62-6.492     c0.139-0.619,0.746-1.008,1.375-0.868c0.62,0.14,1.009,0.756,0.867,1.376c-0.458,2.033-0.836,4.669-0.643,5.38     c0.166,0.613-0.195,1.246-0.809,1.412C173.389,431.401,173.288,431.414,173.189,431.414z"/>
			<path style="fill:#241726;" d="M179.606,422.126c-0.508,0-0.971-0.336-1.11-0.848c-0.443-1.623,0.438-5.694,0.62-6.492     c0.139-0.62,0.746-1.01,1.375-0.868c0.62,0.14,1.009,0.756,0.867,1.376c-0.458,2.035-0.836,4.67-0.643,5.38     c0.166,0.613-0.195,1.246-0.809,1.412C179.806,422.114,179.705,422.126,179.606,422.126z"/>
			<path style="fill:#241726;" d="M175.276,416.357c-0.508,0-0.973-0.337-1.11-0.85c-0.44-1.623,0.44-5.691,0.622-6.49     c0.139-0.62,0.746-1.01,1.375-0.868c0.62,0.14,1.009,0.756,0.867,1.376c-0.458,2.035-0.836,4.67-0.645,5.382     c0.166,0.613-0.195,1.245-0.809,1.411C175.476,416.345,175.375,416.357,175.276,416.357z"/>
			<path style="fill:#241726;" d="M183.199,430.651c-0.508,0-0.973-0.337-1.11-0.85c-0.44-1.622,0.438-5.69,0.62-6.49     c0.137-0.618,0.75-1.01,1.375-0.868c0.62,0.14,1.009,0.756,0.867,1.375c-0.458,2.036-0.834,4.672-0.643,5.384     c0.166,0.613-0.195,1.245-0.809,1.41C183.399,430.638,183.297,430.651,183.199,430.651z"/>
			<path style="fill:#241726;" d="M181.302,449.326c-0.508,0-0.973-0.337-1.11-0.85c-0.44-1.622,0.438-5.69,0.62-6.49     c0.137-0.618,0.746-1.007,1.375-0.868c0.62,0.14,1.009,0.756,0.867,1.375c-0.458,2.036-0.834,4.672-0.643,5.384     c0.166,0.613-0.195,1.245-0.809,1.41C181.502,449.314,181.401,449.326,181.302,449.326z"/>
			<path style="fill:#241726;" d="M171.829,447.021c-0.508,0-0.973-0.337-1.11-0.85c-0.438-1.623,0.438-5.691,0.62-6.491     c0.137-0.618,0.748-1.004,1.375-0.868c0.62,0.14,1.009,0.756,0.867,1.375c-0.458,2.036-0.834,4.672-0.643,5.385     c0.166,0.613-0.195,1.245-0.809,1.411C172.029,447.008,171.928,447.021,171.829,447.021z"/>
			<path style="fill:#241726;" d="M174.932,457.782c-0.508,0-0.973-0.337-1.11-0.85c-0.44-1.623,0.44-5.693,0.622-6.491     c0.137-0.618,0.753-1.011,1.375-0.868c0.62,0.14,1.009,0.756,0.867,1.376c-0.458,2.035-0.836,4.671-0.645,5.384     c0.166,0.613-0.195,1.245-0.809,1.411C175.132,457.77,175.031,457.782,174.932,457.782z"/>
		</g>
		<g>
			<path style="fill:#241726;" d="M100.521,331.42c-0.16,0-0.321-0.033-0.476-0.103c-0.577-0.263-0.834-0.945-0.571-1.523     c0.697-1.531,3.97-4.105,4.617-4.605c0.497-0.388,1.227-0.298,1.613,0.209c0.389,0.502,0.297,1.225-0.207,1.613     c-1.654,1.274-3.624,3.065-3.93,3.735C101.375,331.17,100.957,331.42,100.521,331.42z"/>
			<path style="fill:#241726;" d="M101.694,323.645c-0.16,0-0.321-0.033-0.476-0.103c-0.577-0.263-0.834-0.945-0.571-1.523     c0.697-1.531,3.97-4.105,4.617-4.605c0.499-0.389,1.227-0.299,1.613,0.209c0.389,0.502,0.297,1.225-0.207,1.613     c-1.654,1.274-3.624,3.065-3.93,3.736C102.548,323.394,102.13,323.645,101.694,323.645z"/>
			<path style="fill:#241726;" d="M112.56,320.582c-0.16,0-0.321-0.033-0.476-0.103c-0.577-0.263-0.834-0.945-0.571-1.523     c0.697-1.531,3.968-4.105,4.615-4.605c0.497-0.388,1.225-0.298,1.613,0.209c0.389,0.502,0.297,1.225-0.207,1.613     c-1.651,1.274-3.622,3.064-3.928,3.735C113.414,320.332,112.996,320.582,112.56,320.582z"/>
			<path style="fill:#241726;" d="M112.904,313.379c-0.16,0-0.321-0.033-0.476-0.103c-0.577-0.263-0.834-0.945-0.571-1.523     c0.697-1.531,3.97-4.106,4.617-4.606c0.497-0.388,1.227-0.298,1.613,0.209c0.389,0.502,0.297,1.225-0.207,1.613     c-1.651,1.274-3.624,3.065-3.93,3.737C113.758,313.128,113.34,313.379,112.904,313.379z"/>
			<path style="fill:#241726;" d="M109.893,329.441c-0.16,0-0.321-0.033-0.476-0.103c-0.577-0.263-0.834-0.945-0.571-1.523     c0.697-1.53,3.968-4.104,4.615-4.605c0.499-0.385,1.222-0.298,1.613,0.208c0.389,0.503,0.297,1.226-0.207,1.614     c-1.651,1.274-3.622,3.065-3.928,3.736C110.747,329.19,110.329,329.441,109.893,329.441z"/>
			<path style="fill:#241726;" d="M96.524,342.618c-0.16,0-0.321-0.033-0.476-0.103c-0.577-0.263-0.834-0.945-0.571-1.523     c0.697-1.531,3.968-4.105,4.615-4.606c0.497-0.385,1.22-0.298,1.613,0.208c0.389,0.503,0.297,1.226-0.207,1.614     c-1.651,1.274-3.622,3.065-3.928,3.737C97.378,342.367,96.96,342.618,96.524,342.618z"/>
			<path style="fill:#241726;" d="M90.696,334.801c-0.16,0-0.321-0.033-0.476-0.103c-0.577-0.263-0.834-0.945-0.571-1.523     c0.697-1.531,3.97-4.105,4.617-4.605c0.497-0.389,1.227-0.297,1.613,0.209c0.389,0.502,0.297,1.225-0.207,1.613     c-1.654,1.274-3.624,3.065-3.93,3.736C91.549,334.55,91.131,334.801,90.696,334.801z"/>
			<path style="fill:#241726;" d="M86.226,345.07c-0.16,0-0.321-0.033-0.476-0.103c-0.577-0.263-0.834-0.945-0.571-1.523     c0.697-1.53,3.968-4.104,4.615-4.605c0.499-0.384,1.222-0.297,1.613,0.208c0.389,0.503,0.297,1.226-0.207,1.614     c-1.651,1.274-3.622,3.065-3.928,3.736C87.08,344.82,86.662,345.07,86.226,345.07z"/>
		</g>
		<path style="fill:#241726;" d="M412.808,133.369c-2.258,0.001-4.678-0.591-7.174-1.78c-10.277-4.894-13.729-12.377-13.58-18.33    c-2.624-0.534-5.939-1.972-10.032-5.02c-9.994-7.438-11.774-13.684-11.565-17.536c-2.526-0.41-5.343-1.261-8.43-2.691    c-11.918-5.518-11.623-12.465-10.88-15.323c-0.227-0.213-0.449-0.439-0.661-0.675c-3.716-4.124-4.613-10.786-2.463-18.276    c1.112-3.878,3.139-6.379,6.02-7.433c5.685-2.085,12.475,2.403,12.762,2.596c0.528,0.354,0.667,1.067,0.315,1.595    c-0.351,0.525-1.063,0.671-1.593,0.317c-0.061-0.038-6.103-4.028-10.7-2.346c-2.148,0.789-3.694,2.775-4.593,5.904    c-1.874,6.53-1.184,12.48,1.842,15.97c2.26-4.214,7.237-7.219,11.718-6.745c5.163,0.539,5.811,3.173,5.851,4.28    c0.115,3.249-3.964,6.532-9.284,7.473c-2.566,0.453-5.056,0.035-7.172-1.159c-0.593,4.377,2.842,8.51,9.803,11.734    c2.908,1.346,5.53,2.144,7.844,2.527c1.141-3.897,4.719-6.829,9.226-7.518c3.2-0.5,4.372,1.016,4.723,1.689    c0.759,1.46,0.263,3.384-1.296,5.018c-1.966,2.059-5.626,3.644-10.745,3.323c-0.18,4.66,3.604,10.184,10.653,15.431    c3.26,2.427,6.312,3.968,8.902,4.56c0.744-3.888,3.011-6.729,5.763-7.151c1.602-0.258,2.921,0.438,3.525,1.828    c0.861,1.972-0.022,4.676-2.054,6.289c-0.854,0.68-2.483,1.598-5.031,1.598c-0.049,0-0.101,0-0.153-0.001    c-0.045,5.156,3.114,11.633,12.273,15.994c4.727,2.251,8.882,2.081,12.023-0.495c3.858-3.166,5.136-9.137,4.139-13.082    c-0.377-1.499-1.44-4.095-4.305-4.653c-0.622-0.121-1.031-0.726-0.91-1.349c0.121-0.625,0.735-1.036,1.35-0.909    c3.004,0.585,5.226,2.899,6.096,6.348c1.359,5.382-0.753,12.013-4.912,15.424C418.014,132.508,415.529,133.369,412.808,133.369z     M398.689,106.055c-0.085,0-0.177,0.007-0.279,0.022c-1.696,0.26-3.242,2.382-3.82,5.152c1.391-0.004,2.579-0.37,3.512-1.11    c1.346-1.07,1.764-2.684,1.377-3.568C399.376,106.314,399.19,106.055,398.689,106.055z M373.171,88.708    c4.157,0.216,7.093-1.02,8.653-2.656c0.957-1.003,1.148-1.93,0.919-2.367c-0.249-0.477-1.144-0.658-2.335-0.477    C376.948,83.738,374.184,85.863,373.171,88.708z M353.865,71.918c1.75,1.15,3.844,1.563,6.096,1.167    c4.842-0.857,7.44-3.576,7.383-5.126c-0.036-1.055-1.454-1.83-3.788-2.075C359.864,65.52,355.552,68.319,353.865,71.918z"/>
		<path style="fill:#241726;" d="M152.526,111.726c-0.445,0-0.867-0.26-1.056-0.693c-0.252-0.583,0.016-1.261,0.6-1.513    l54.438-23.551c0.582-0.253,1.258,0.016,1.512,0.599c0.252,0.583-0.016,1.261-0.6,1.513l-54.438,23.551    C152.834,111.696,152.679,111.726,152.526,111.726z"/>
		<path style="fill:#241726;" d="M165.138,123.599c-0.409,0-0.807-0.22-1.016-0.608c-0.299-0.561-0.088-1.258,0.474-1.557    l42.694-22.815c0.555-0.297,1.254-0.09,1.557,0.472c0.299,0.561,0.088,1.258-0.474,1.557l-42.694,22.815    C165.506,123.555,165.322,123.599,165.138,123.599z"/>
		<path style="fill:#241726;" d="M171.647,131.451c-0.458,0-0.892-0.275-1.07-0.728c-0.234-0.591,0.056-1.259,0.647-1.492    l34.376-13.579c0.591-0.233,1.261,0.054,1.492,0.647c0.234,0.591-0.056,1.259-0.647,1.492L172.07,131.37    C171.93,131.425,171.789,131.451,171.647,131.451z"/>
		<path style="fill:#F4B29B;" d="M211.58,143.776c0,0-1.461-29.087-3.369-27.479c-1.907,1.608-2.244,18.169-2.244,18.169    s-19.983-16.442-21.371-12.999s13.358,14.585,13.358,14.585s-19.877-14.185-21.508-9.988c-1.631,4.198,19.049,15.03,19.049,15.03    s-22.207-12.991-19.981-7.829s29.55,28.138,30.467,27.878c0.917-0.26,6.161-2.738,6.161-2.738L211.58,143.776z"/>
		<path style="fill:#241726;" d="M202.131,139.659c-0.238,0-0.476-0.073-0.681-0.224c-0.921-0.677-6.92-4.481-9.963-6.399    c-0.537-0.338-0.699-1.048-0.36-1.586c0.339-0.538,1.052-0.694,1.586-0.36c0.362,0.228,8.882,5.596,10.098,6.491    c0.512,0.376,0.622,1.096,0.245,1.609C202.832,139.497,202.484,139.659,202.131,139.659z"/>
		<path style="fill:#241726;" d="M198.545,145.421c-0.319,0-0.638-0.133-0.865-0.392c-0.712-0.719-8.064-5.269-13.052-8.266    c-0.544-0.328-0.721-1.035-0.393-1.578c0.328-0.547,1.036-0.717,1.58-0.394c2.95,1.773,12.648,7.641,13.596,8.723    c0.418,0.479,0.371,1.205-0.108,1.623C199.084,145.327,198.815,145.421,198.545,145.421z"/>
	</g>
</g>















</svg>
