<?xml version="1.0" encoding="UTF-8"?>
<!-- Generator: Adobe Illustrator 25.2.0, SVG Export Plug-In . SVG Version: 6.00 Build 0)  -->
<svg xmlns="http://www.w3.org/2000/svg" xmlns:xlink="http://www.w3.org/1999/xlink" version="1.1" id="Capa_1" x="0px" y="0px" viewBox="0 0 512 512" style="enable-background:new 0 0 512 512;" xml:space="preserve" width="512" height="512">
<g>
	<path style="fill:#F4B29B;" d="M372.341,217.679c0,0,23.166,29.65,18.779,32.778c-4.387,3.128-32.736,11.742-32.736,11.742   S344.158,231.002,372.341,217.679z"/>
	<polygon style="fill:#F4B29B;" points="63.166,236.608 109.897,331.156 140.326,323.549 74.033,223.566  "/>
	<polygon style="fill:#F8DC94;" points="208.978,344.776 248.733,338.364 242.294,319.144 198.292,330.243  "/>
	<path style="fill:#241726;" d="M115.577,437.505l-24.203,0.145l0.079,6.085l11.476-0.559c0,0-16.918,6.903-7.555,26.674   c9.363,19.771-6.49-23.869,21.87-17.624L115.577,437.505z"/>
	<path style="fill:#241726;" d="M306.605,490.043L316.789,512l5.503-2.599l-5.274-10.207c0,0,13.306,12.523,27.403-4.205   c14.097-16.728-19.018,15.817-25.115-12.575L306.605,490.043z"/>
	<polygon style="fill:#F4B29B;" points="185.925,167.591 197.517,219.152 217.079,220.788 215.63,154.496  "/>
	<g>
		<path style="fill:#E76055;" d="M124.154,79.097c0,0,42.036-31.975,55.713-25.633c13.677,6.342,14.71,86.877-4.733,95.133    C114.302,174.427,93.782,110.416,124.154,79.097z"/>
		<path style="fill:#F4B29B;" d="M143.887,90.906c0,0,56.034-88.974,103.836-24.786c15.953,21.422,26.836,96.115,10.543,101.087    C179.746,191.169,132.771,153.238,143.887,90.906z"/>
		<path style="fill:#241726;" d="M226.551,131.814c-6.187,0-12.356-0.195-12.773-0.209c-0.6-0.019-1.071-0.521-1.051-1.121    c0.018-0.601,0.611-1.078,1.121-1.051c0.164,0.006,16.314,0.514,22.655-0.098c-0.953-2.969-13.823-14.685-25.772-24.307    c-0.468-0.377-0.541-1.061-0.166-1.528c0.378-0.466,1.062-0.539,1.528-0.166c10.407,8.381,27.698,23.013,26.562,26.853    c-0.101,0.344-0.474,1.159-1.736,1.291C234.45,131.734,230.496,131.814,226.551,131.814z"/>
		<path style="fill:#241726;" d="M196.047,121.106c-3.356,0-10.406-6.665-13.418-9.674c-0.425-0.423-0.425-1.112,0-1.537    c0.425-0.425,1.112-0.425,1.537,0c5.088,5.083,10.607,9.291,11.832,9.051c0.451-3.265-2.256-10.808-3.348-13.437    c-0.23-0.555,0.033-1.191,0.588-1.421c0.551-0.228,1.189,0.033,1.42,0.587c0.17,0.411,4.156,10.091,3.364,14.66    c-0.2,1.15-0.947,1.549-1.373,1.685C196.466,121.079,196.264,121.106,196.047,121.106z"/>
		<path style="fill:#241726;" d="M235.461,100.583c-3.929,0-12.467-9.412-15.046-12.362c-0.395-0.452-0.349-1.139,0.103-1.534    c0.45-0.396,1.139-0.35,1.534,0.103c5.805,6.642,12.082,12.076,13.432,11.616c1.191-2.588-1.682-11.278-3.774-16.154    c-0.237-0.552,0.018-1.191,0.57-1.427c0.55-0.238,1.189,0.018,1.427,0.57c0.593,1.383,5.738,13.628,3.738,17.909    c-0.329,0.705-0.924,1.152-1.676,1.258C235.669,100.577,235.566,100.583,235.461,100.583z"/>
		<circle style="fill:#F1948E;" cx="188.367" cy="134.912" r="10.531"/>
		<circle style="fill:#F1948E;" cx="243.163" cy="112.08" r="10.531"/>
		<path style="fill:#F4B29B;" d="M154.186,138.07c0,0-19.262-14.614-23.247,1.689s18.64,31.497,27.144,14.003L154.186,138.07z"/>
		<path style="fill:#241726;" d="M147.557,155.569c-0.947,0-2.823-1.09-6.937-8.327c-0.297-0.522-0.115-1.185,0.408-1.482    c0.525-0.295,1.188-0.114,1.482,0.408c1.475,2.594,3.404,5.484,4.538,6.682c-0.047-0.885-0.299-2.628-1.184-6.012    c-2.018-7.722-3.603-7.817-3.67-7.817h-0.001c-0.852,0-2.216,2.697-2.867,5.11c-0.155,0.581-0.749,0.923-1.332,0.767    c-0.579-0.156-0.923-0.752-0.767-1.332c0.423-1.577,2.033-6.719,4.966-6.719c0.003,0,0.005,0,0.008,0    c2.284,0.008,4.062,2.92,5.766,9.441c1.83,7.003,1.471,8.618,0.169,9.147C147.991,155.493,147.806,155.569,147.557,155.569z"/>
		<path style="fill:#E76055;" d="M141.91,79.539c0,0,36.776,90.945,51.183,87.966c14.407-2.979,13.767-33.035,27.846-34.327    c14.079-1.292,32.599,13.259,37.11,7.206c8.508-11.418-3.578-61.502-3.578-61.502l0,0c0,0,72.514,98.711-20.958,121.153    c-102.699,24.657-71.657-76.984-104.286-93.141L141.91,79.539z"/>
		<path style="fill:#241726;" d="M228.238,156.881c-5.597,0-13.437-8.914-14.404-10.037c-0.391-0.455-0.339-1.142,0.116-1.533    c0.457-0.393,1.142-0.34,1.533,0.115c3.653,4.247,10.592,10.479,13.663,9.107c0.532-0.238,0.887-0.638,1.121-1.262    c1.114-2.982-1.271-9.284-2.285-11.462c-0.254-0.543-0.018-1.19,0.526-1.443c0.548-0.253,1.19-0.017,1.443,0.525    c0.413,0.885,3.983,8.769,2.352,13.14c-0.438,1.173-1.202,2.009-2.272,2.487C229.47,156.769,228.868,156.881,228.238,156.881z"/>
		<path style="fill:#241726;" d="M196.99,200.925c-7.358,0.001-9.98-3.979-10.913-6.681c-0.077-0.225-0.148-0.451-0.21-0.679    c-1.118,0.151-2.3,0.179-3.536,0.076c-8.062-0.674-12.146-7.75-12.619-14.463c-0.022-0.31-0.036-0.616-0.044-0.919    c-1.566-0.381-3.075-1.322-4.437-2.809c-10.381-11.33,0.732-25.876,0.846-26.022c0.368-0.474,1.05-0.558,1.524-0.19    c0.474,0.368,0.559,1.051,0.191,1.525c-0.416,0.536-10.092,13.248-0.958,23.218c1,1.091,1.982,1.725,2.915,2.039    c0.461-4.637,2.724-8.109,6.007-8.856c2.888-0.659,3.857,0.826,4.137,1.494c0.979,2.336-1.111,6.371-4.383,8.464    c-1.206,0.771-2.439,1.205-3.661,1.308c0.007,0.197,0.018,0.396,0.032,0.596c0.378,5.365,3.389,11.845,10.631,12.451    c1.096,0.089,2.085,0.07,2.972-0.039c-0.458-4.979,1.944-10.193,4.963-11.714c1.44-0.722,2.822-0.599,3.805,0.341    c1.492,1.43,1.657,4.503,0.392,7.308c-1.272,2.822-3.619,4.798-6.647,5.728c0.042,0.146,0.088,0.292,0.137,0.435    c1.549,4.485,6.419,6.151,13.716,4.685c5.613-1.126,9.87-3.567,12.888-6.326c-0.975-1.124-1.739-2.349-2.237-3.618    c-1.521-3.871-0.213-7.428,3.499-9.517c2.75-1.547,4.384-1.084,5.27-0.426c1.289,0.959,1.717,2.902,1.173,5.329    c-0.524,2.332-2.039,5.34-4.638,8.196c3.28,2.775,8.26,4.444,13.26,3.24c4.733-1.138,7.557-5.859,8.804-10.466    c-0.072-0.032-0.143-0.064-0.215-0.097c-3.944-1.813-6.62-4.949-6.819-7.989c-0.133-2.033,0.855-3.821,2.782-5.031    c2.221-1.398,3.802-0.763,4.547-0.257c2.722,1.84,3.103,7.284,2.274,11.861c-0.01,0.048-0.018,0.096-0.027,0.143    c4.971,1.518,10.611,0.351,15.442-3.275c3.645-2.737,5.752-6.062,6.784-9.354c-0.591,0.047-1.12,0.038-1.58,0.004    c-3.473-0.265-6.576-2.414-7.906-5.473c-1.252-2.884-0.763-6.048,1.344-8.684c2.083-2.605,4.19-2.566,5.267-2.307    c2.54,0.608,4.636,3.488,5.472,7.518c0.374,1.801,0.491,3.839,0.246,5.967c1.972-0.903,4.231-2.707,6.412-6.164    c5.59-8.864,1.629-15.815,0.282-17.735c-0.284-0.404-0.578-0.777-0.879-1.118c-0.127,0.124-0.257,0.245-0.388,0.363    c-2.166,1.947-4.403,2.657-5.834,1.857c-0.808-0.451-1.674-1.512-1.218-4.006c0.388-2.129,1.746-2.732,2.521-2.902    c1.422-0.308,3.132,0.284,4.771,1.556c2.01-2.755,3.054-6.559,1.477-10.264c-4.062-9.536-9.559-8.55-9.793-8.5    c-0.581,0.115-1.159-0.257-1.283-0.839c-0.124-0.583,0.239-1.155,0.82-1.284c0.304-0.064,7.444-1.525,12.255,9.772    c1.959,4.601,0.626,9.29-1.878,12.604c0.42,0.461,0.826,0.967,1.209,1.512c1.542,2.197,6.083,10.143-0.223,20.142    c-2.93,4.645-6.085,6.684-8.704,7.51c-1.005,4.044-3.401,8.208-7.868,11.563c-5.353,4.023-11.639,5.319-17.243,3.658    c-1.453,5.183-4.758,10.485-10.343,11.828c-5.842,1.403-11.551-0.522-15.312-3.798c-3.294,3.043-7.914,5.719-13.984,6.937    C200.286,200.75,198.533,200.925,196.99,200.925z M192.231,181.431c-0.196,0-0.458,0.058-0.808,0.235    c-2.192,1.103-4.004,5.366-3.78,9.285c3.105-1.057,4.485-3.294,5.017-4.472c0.959-2.126,0.791-4.17,0.086-4.846    C192.68,181.571,192.535,181.431,192.231,181.431z M219.304,179.894c-0.572,0-1.355,0.26-2.24,0.758    c-3.723,2.095-3.19,5.178-2.542,6.829c0.391,0.993,0.989,1.962,1.756,2.862c2.266-2.509,3.585-5.122,4.041-7.158    c0.333-1.483,0.196-2.703-0.348-3.107C219.806,179.955,219.58,179.894,219.304,179.894z M238.226,172.836    c-0.344,0-0.817,0.12-1.455,0.52c-1.254,0.789-1.85,1.814-1.769,3.049c0.141,2.17,2.278,4.582,5.341,6.054    c0.804-4.755-0.066-8.497-1.401-9.4C238.836,172.986,238.614,172.836,238.226,172.836z M177.111,169.17    c-0.323,0-0.666,0.065-0.872,0.111c-2.317,0.527-3.956,3.287-4.324,6.947c0.916-0.125,1.737-0.5,2.423-0.938    c2.557-1.635,3.999-4.722,3.55-5.794C177.782,169.244,177.458,169.17,177.111,169.17z M260.781,156.232    c-1.064,0-1.98,0.844-2.591,1.608c-1.611,2.013-1.983,4.307-1.048,6.458c1.012,2.331,3.398,3.968,6.078,4.173    c0.54,0.047,1.206,0.035,1.959-0.094c0.385-2.232,0.31-4.381-0.076-6.243c-0.643-3.099-2.191-5.448-3.85-5.846    C261.093,156.25,260.935,156.232,260.781,156.232z M269.151,140.046c-0.111,0-0.215,0.011-0.312,0.032    c-0.181,0.039-0.662,0.144-0.849,1.168c-0.214,1.177-0.001,1.639,0.141,1.718c0.342,0.19,1.658-0.081,3.322-1.577    c0.085-0.075,0.169-0.154,0.253-0.233C270.737,140.425,269.82,140.046,269.151,140.046z"/>
	</g>
	<path style="fill:#E76055;" d="M180.777,32.357c0,0-5.744-32.039,34.908-32.356s35.637,61.142,61.558,59.841   S202.93,97.45,180.777,32.357z"/>
	<path style="fill:#E76055;" d="M184.509,60.017c0,0,22.69-49.182-40.026-46.275s-12.335,94.809-58.845,76.603   c0,0-4.148,17.612,25.66,21.665C141.106,116.062,177.711,90.066,184.509,60.017z"/>
	<polygon style="fill:#F4B29B;" points="262.044,230.087 310.948,281.165 359.853,231.174 365.286,245.302 310.948,310.508    250.888,262.638  "/>
	<polygon style="fill:#E23962;" points="216.211,327.838 237.947,431.08 116.229,456.076 114.055,403.911 210.777,409.345    191.025,334.09  "/>
	<polygon style="fill:#E23962;" points="242.294,319.144 348.797,472.378 297.719,497.373 221.645,328.925  "/>
	<path style="fill:#C27B9A;" d="M162.977,217.512c0,0,63.742-9.216,79.87-1.536s4.604,111.702,4.604,111.702l-56.058,7.335   C191.392,335.012,139.17,227.496,162.977,217.512z"/>
	<path style="fill:#C27B9A;" d="M256.61,220.306l44.557,34.776l-30.429,39.124l-38.643-51.351   C232.095,242.855,217.486,200.744,256.61,220.306z"/>
	<path style="fill:#C27B9A;" d="M159.373,220.477l-37.099,46.954l21.503,40.703c0,0,46.079-41.471,48.383-52.99   C194.464,243.623,159.373,220.477,159.373,220.477z"/>
	<g>
		<path style="fill:#43918F;" d="M57.712,180.266l32.729-10.544l-4.666,17.501l19.118,58.619c0,0,20.015-12.146,36.225,28.703    c1.959,4.938-1.137,10.649,0.669,17.25c1.414,5.168,7.768,10.881,9.042,17.194c2.156,10.683,4.083,23.085,5.683,37.474    l-45.986,17.012c0,0-9.26-12.045-18.397-28.568c-2.421-4.377,2.167-9.068-0.062-13.933c-2.892-6.311-12.476-12.914-14.371-19.502    c-5.895-20.492-5.128-40.839,13.76-51.797l-18.28-58.898L57.712,180.266z"/>
		<path style="fill:#F6DBBE;" d="M92.129,334.908c10.828-4.732,54.421-24.026,58.692-25.917    c-2.902-14.375-6.218-25.642-9.712-34.443c-10.068,3.627-54.006,22.809-63.407,26.922    C81.059,313.139,86.568,324.852,92.129,334.908z"/>
		<path style="fill:#241726;" d="M92.538,319.486c-2.315,0-4.133-0.722-5.422-2.158c-3.455-3.846-1.517-11.365-1.433-11.684    c0.152-0.581,0.741-0.931,1.328-0.773c0.579,0.153,0.927,0.747,0.774,1.328c-0.017,0.067-1.722,6.708,0.951,9.679    c1.119,1.245,2.962,1.683,5.475,1.298c1.77-0.271,2.977-1.078,3.792-2.14c-3.43-4.025-5.499-10.071-3.502-13.868    c1.095-2.09,2.534-1.945,3.107-1.785c2.698,0.752,4.409,6.369,4.136,10.888c-0.102,1.695-0.461,3.191-1.05,4.457    c0.573,0.547,1.179,1.024,1.81,1.407c3.089,1.88,5.842,1.136,8.18-2.218c2.038-2.918,3.393-5.709,4.204-8.16    c-2.644-2.477-4.729-5.637-4.532-8.032c0.098-1.18,0.741-2.099,1.812-2.589c1.787-0.815,3.45-0.518,4.559,0.815    c1.398,1.676,1.761,4.967,0.655,9.109c0.423,0.343,0.868,0.673,1.333,0.986c3.173,2.135,6.239,2.733,8.416,1.632    c2.391-1.208,3.968-3.671,4.818-6.268c-0.1-0.07-0.2-0.142-0.297-0.217c-2.524-1.91-4.073-4.882-3.77-7.227    c0.178-1.373,0.976-2.418,2.249-2.941c1.661-0.687,3.206,0.013,4.032,1.817c0.777,1.698,0.939,4.564,0.312,7.508    c1.22,0.533,2.853,0.82,4.688,0.033c3.322-1.419,3.77-6.904,2.28-11.17c-1.135-3.252-3.601-6.371-7.148-5.41    c-0.575,0.157-1.178-0.181-1.335-0.76c-0.159-0.578,0.18-1.177,0.76-1.335c4.109-1.13,7.943,1.539,9.776,6.788    c1.852,5.304,1.057,11.949-3.479,13.887c-1.991,0.848-4.131,0.86-6.128,0.077c-1.022,2.942-2.888,5.699-5.777,7.158    c-2.942,1.489-6.711,0.859-10.611-1.769c-0.274-0.185-0.548-0.38-0.82-0.585c-0.902,2.454-2.282,5.129-4.213,7.896    c-2.984,4.275-7.03,5.304-11.094,2.832c-0.636-0.387-1.258-0.858-1.854-1.393c-1.222,1.468-2.907,2.408-4.98,2.724    C93.836,319.432,93.169,319.486,92.538,319.486z M97.014,301.476c-0.083,0-0.322,0.193-0.59,0.704    c-1.326,2.524,0.065,7.254,2.663,10.725c0.293-0.915,0.434-1.872,0.488-2.764c0.267-4.44-1.542-8.383-2.55-8.663    C97.021,301.477,97.018,301.476,97.014,301.476z M114.07,296.86c-0.267,0-0.594,0.072-1,0.257    c-0.356,0.162-0.515,0.391-0.548,0.789c-0.101,1.222,1.048,3.384,3.015,5.455c0.594-2.876,0.331-5.042-0.48-6.015    C114.866,297.114,114.574,296.86,114.07,296.86z M131.347,292.938c-0.145,0-0.277,0.054-0.387,0.1    c-0.551,0.226-0.844,0.611-0.921,1.21c-0.16,1.242,0.722,3.317,2.478,4.851c0.354-2.135,0.228-4.132-0.33-5.35    C131.89,293.101,131.598,292.938,131.347,292.938z"/>
		<path style="fill:#241726;" d="M132.982,271.363c-0.469,0-0.901-0.305-1.041-0.777c-4.543-15.251-22.221-18.529-22.399-18.56    c-0.591-0.105-0.987-0.669-0.882-1.259c0.103-0.591,0.663-0.987,1.258-0.883c0.781,0.138,19.183,3.556,24.105,20.082    c0.172,0.575-0.156,1.18-0.731,1.351C133.189,271.348,133.084,271.363,132.982,271.363z"/>
	</g>
	<path style="fill:#F4B29B;" d="M70.774,209.438c0,0,33.69-17.388,33.69-10.868c0,6.521-24.996,18.475-24.996,18.475   s20.649-6.521,26.082-4.347c5.434,2.174-22.822,13.041-22.822,13.041s27.169-8.694,26.082-3.26   c-1.087,5.434-29.343,21.735-40.21,18.475C57.732,237.694,62.079,219.219,70.774,209.438z"/>
	<path style="fill:#F4B29B;" d="M224.347,212.999c0,0,1.604,37.536-5.307,39.072c-6.912,1.536-29.951-37.631-29.951-37.631   S202.486,210.002,224.347,212.999z"/>
	<path style="fill:#241726;" d="M213.262,272.823c-1.103,0-2.193-0.154-3.241-0.489c-4.256-1.362-5.711-3.963-6.182-5.906   c-0.344-1.419-0.282-2.946,0.067-4.479c-1.487,0.174-3.167,0.146-5.052-0.15c-7.304-1.153-8.593-5.808-8.711-8.481   c-0.05-1.12,0.076-2.27,0.341-3.411c-0.894,0.129-1.823,0.201-2.787,0.201c-4.594,0-7.322-2.783-7.682-7.837   c-0.129-1.829,0.102-4.02,0.578-6.105c-0.852-0.102-1.711-0.421-2.547-0.958c-1.141-0.733-1.848-1.81-2.101-3.199   c-0.933-5.107,4.964-13.127,5.215-13.466c0.358-0.481,1.037-0.582,1.52-0.225c0.482,0.357,0.583,1.038,0.226,1.52   c-1.557,2.1-5.457,8.311-4.824,11.781c0.144,0.784,0.517,1.36,1.14,1.761c0.668,0.429,1.322,0.644,1.959,0.645   c0.929-2.86,2.292-5.135,3.718-5.338c0.853-0.118,1.588,0.254,1.919,0.98c0.674,1.478-0.542,3.809-2.057,5.12   c-0.593,0.514-1.227,0.888-1.884,1.123c-0.67,2.488-1.04,5.47-0.429,7.96c0.672,2.735,2.389,4.065,5.248,4.065   c1.227,0,2.408-0.136,3.526-0.377c1.684-4.255,5.028-7.931,7.916-8.653c1.859-0.465,2.773,0.072,3.21,0.605   c0.344,0.419,0.807,1.363,0.045,2.973c-1.135,2.397-4.591,5.536-9.522,6.919c-0.4,1.281-0.612,2.586-0.557,3.821   c0.158,3.571,2.472,5.735,6.879,6.431c2.168,0.342,3.968,0.277,5.448-0.018c1.049-2.599,2.771-5.058,4.565-6.852   c1.755-1.755,2.937-1.419,3.482-1.066c0.983,0.639,1.181,2.111,0.517,3.844c-0.761,1.985-2.928,4.717-6.922,5.905   c-0.495,1.559-0.659,3.1-0.332,4.449c0.495,2.039,2.087,3.501,4.732,4.348c2.968,0.947,6.485,0.035,9.422-1.668   c-0.125-0.122-0.246-0.248-0.363-0.379c-1.651-1.849-2.133-4.28-1.226-6.196c0.885-1.866,2.878-2.859,5.476-2.757   c2.424,0.105,3.352,1.142,3.703,1.992c0.634,1.536-0.118,3.574-2.115,5.742c-0.466,0.505-0.979,0.998-1.53,1.468   c2.028,0.65,4.634,0.515,7.473-0.46c4.11-1.409,6.959-5.132,7.813-10.215c0.302-1.798,0.327-3.624,0.116-5.301   c-1.212,0.506-2.596,0.683-4.081,0.499c-3.192-0.406-5.842-2.409-6.164-4.659c-0.15-1.053,0.087-3.032,3.367-4.458   c1.914-0.83,3.831-0.612,5.406,0.62c1.191,0.932,2.142,2.415,2.791,4.219c0.248-0.354,0.475-0.764,0.673-1.239   c1.369-3.288,1.377-7.102,0.679-10.149c-0.493,0.222-1.019,0.388-1.573,0.496c-2.351,0.453-4.671-0.335-5.641-1.924   c-0.812-1.33-0.578-2.983,0.641-4.535c1.351-1.722,3.149-2.17,4.804-1.198c1.124,0.659,2.11,1.92,2.863,3.548   c0.523-0.716,0.959-1.683,1.177-2.99c0.876-5.256-0.169-9.958-2.661-11.98c-1.709-1.384-4.001-1.526-6.822-0.422   c-0.556,0.218-1.189-0.058-1.408-0.617c-0.219-0.559,0.057-1.19,0.617-1.408c4.484-1.755,7.359-0.557,8.983,0.76   c3.137,2.544,4.453,7.918,3.435,14.024c-0.342,2.051-1.212,3.751-2.477,4.948c1.026,3.661,1.044,8.308-0.612,12.284   c-0.489,1.176-1.173,2.154-2.007,2.911c0.4,2.157,0.436,4.558,0.036,6.933c-0.991,5.893-4.364,10.234-9.252,11.911   c-3.916,1.343-7.533,1.282-10.201-0.09C219.408,271.673,216.285,272.823,213.262,272.823z M223.592,261.429   c-1.544,0-2.644,0.535-3.112,1.523c-0.524,1.106-0.17,2.639,0.882,3.816c0.187,0.209,0.389,0.403,0.605,0.582   c0.748-0.572,1.427-1.189,2.014-1.825c1.483-1.609,1.923-2.91,1.704-3.439c-0.153-0.37-0.804-0.608-1.788-0.651   C223.794,261.432,223.692,261.429,223.592,261.429z M211.421,253.752c-0.16,0.102-0.385,0.275-0.679,0.569   c-1.204,1.205-2.342,2.709-3.224,4.311c1.431-0.756,2.305-1.686,2.765-2.287C211.119,255.253,211.396,254.27,211.421,253.752z    M234.846,245.543c-0.447,0-0.914,0.107-1.406,0.322c-0.841,0.365-2.228,1.131-2.081,2.159c0.155,1.091,1.954,2.513,4.287,2.809   c0.734,0.093,2.08,0.131,3.366-0.549c-0.504-1.795-1.317-3.257-2.371-4.081C236.078,245.763,235.483,245.543,234.846,245.543z    M200.634,240.868c-0.061,0.029-0.357-0.007-0.97,0.145c-1.902,0.477-4.16,2.816-5.668,5.692c2.522-1.019,4.53-2.541,5.728-4.055   C200.497,241.672,200.634,241.059,200.634,240.868z M238.609,231.827c-0.352,0-0.809,0.188-1.349,0.876   c-0.45,0.572-0.9,1.393-0.495,2.059c0.418,0.683,1.741,1.235,3.373,0.922c0.335-0.065,0.819-0.2,1.345-0.473   c-0.598-1.534-1.386-2.682-2.227-3.174C239.119,231.955,238.899,231.827,238.609,231.827z"/>
	<path style="fill:#241726;" d="M224.626,344.276c-0.813,0-1.564-1.211-5.959-11.468c-0.237-0.551,0.019-1.19,0.571-1.426   c0.547-0.242,1.19,0.018,1.426,0.571c1.355,3.163,2.877,6.569,3.863,8.618c1.069-2.573,2.668-6.645,0.401-8.66   c-0.449-0.398-0.489-1.086-0.09-1.534c0.397-0.45,1.084-0.492,1.534-0.09c3.498,3.109,1.263,8.478,0.062,11.361   c-0.233,0.562-0.524,1.261-0.554,1.467c0,0.516-0.394,1.009-0.899,1.112C224.854,344.253,224.74,344.276,224.626,344.276z"/>
	<path style="fill:#241726;" d="M197.01,357.832c-0.414,0-0.81-0.238-0.991-0.639c-0.247-0.547-0.004-1.191,0.542-1.438   c4.995-2.259,7.812-5.102,8.371-8.446c0.942-5.633-4.763-11.092-4.821-11.146c-0.436-0.412-0.457-1.1-0.046-1.537   c0.41-0.437,1.097-0.461,1.535-0.047c0.271,0.254,6.604,6.295,5.477,13.078c-0.682,4.107-3.919,7.498-9.621,10.077   C197.311,357.801,197.16,357.832,197.01,357.832z"/>
	<path style="fill:#241726;" d="M256.09,343.595c-8.408,0-13.288-13.226-13.509-13.838c-0.204-0.565,0.088-1.188,0.653-1.391   c0.562-0.198,1.188,0.088,1.391,0.653c0.053,0.144,5.309,14.41,13.214,12.149c0.575-0.159,1.178,0.169,1.344,0.747   c0.164,0.577-0.17,1.178-0.747,1.344C257.626,343.489,256.844,343.595,256.09,343.595z"/>
	<path style="fill:#241726;" d="M203.035,414.914c-24.323,0-76.831-0.948-84.272-1.084c-0.6-0.012-1.077-0.506-1.067-1.107   c0.011-0.6,0.422-1.133,1.107-1.067c35.696,0.654,89.078,1.416,95.372,0.951c0.236-5.754-11.677-49.456-19.493-76.507   c-0.167-0.576,0.166-1.179,0.743-1.346c0.583-0.161,1.179,0.166,1.346,0.743c5.046,17.47,21.353,74.762,19.287,78.496   c-0.14,0.253-0.519,0.57-0.797,0.65C214.584,414.837,209.948,414.914,203.035,414.914z"/>
	<path style="fill:#241726;" d="M303.876,490.773c-0.433,0-0.844-0.261-1.011-0.69c-18.571-47.27-70.387-145.522-70.908-146.509   c-0.281-0.531-0.077-1.188,0.453-1.468c0.531-0.281,1.189-0.079,1.468,0.453c0.522,0.988,52.395,99.347,71.01,146.73   c0.22,0.558-0.055,1.189-0.615,1.409C304.143,490.75,304.009,490.773,303.876,490.773z"/>
	<g>
		<path style="fill:#241726;" d="M301.867,426.742c-0.48,0-0.918-0.319-1.049-0.806c-0.51-1.903-1.355-4.273-1.829-4.783    c-0.409-0.44-0.383-1.128,0.056-1.536c0.438-0.409,1.126-0.385,1.536,0.056c1.081,1.164,2.135,4.952,2.336,5.7    c0.156,0.579-0.189,1.176-0.768,1.331C302.055,426.73,301.96,426.742,301.867,426.742z"/>
		<path style="fill:#241726;" d="M308.22,430.592c-0.48,0-0.918-0.319-1.049-0.806c-0.51-1.903-1.355-4.273-1.829-4.783    c-0.409-0.44-0.383-1.128,0.056-1.536c0.437-0.408,1.127-0.386,1.536,0.056c1.081,1.164,2.135,4.952,2.336,5.7    c0.156,0.579-0.189,1.176-0.768,1.331C308.408,430.581,308.313,430.592,308.22,430.592z"/>
		<path style="fill:#241726;" d="M306.939,441.18c-0.48,0-0.918-0.319-1.049-0.806c-0.51-1.903-1.355-4.273-1.829-4.783    c-0.409-0.44-0.383-1.128,0.056-1.536c0.438-0.409,1.128-0.385,1.536,0.056c1.081,1.164,2.135,4.952,2.336,5.7    c0.156,0.579-0.189,1.176-0.768,1.331C307.127,441.168,307.032,441.18,306.939,441.18z"/>
		<path style="fill:#241726;" d="M313.093,444.099c-0.48,0-0.918-0.321-1.049-0.806c-0.51-1.903-1.354-4.273-1.829-4.783    c-0.409-0.439-0.383-1.127,0.056-1.536c0.437-0.406,1.127-0.384,1.536,0.056c1.083,1.164,2.135,4.953,2.336,5.7    c0.155,0.579-0.189,1.176-0.768,1.331C313.281,444.088,313.187,444.099,313.093,444.099z"/>
		<path style="fill:#241726;" d="M300.185,435.632c-0.48,0-0.918-0.321-1.049-0.806c-0.51-1.903-1.354-4.273-1.829-4.783    c-0.409-0.439-0.383-1.127,0.056-1.536c0.437-0.408,1.125-0.383,1.536,0.056c1.083,1.164,2.135,4.953,2.336,5.7    c0.155,0.579-0.189,1.176-0.768,1.331C300.373,435.621,300.278,435.632,300.185,435.632z"/>
		<path style="fill:#241726;" d="M293.559,419.184c-0.48,0-0.918-0.319-1.049-0.806c-0.51-1.903-1.355-4.273-1.829-4.783    c-0.409-0.44-0.383-1.128,0.056-1.536c0.437-0.409,1.127-0.385,1.536,0.056c1.081,1.164,2.135,4.952,2.336,5.7    c0.156,0.579-0.189,1.176-0.768,1.331C293.747,419.173,293.653,419.184,293.559,419.184z"/>
		<path style="fill:#241726;" d="M302.493,416.947c-0.48,0-0.918-0.32-1.049-0.806c-0.51-1.903-1.354-4.273-1.829-4.783    c-0.409-0.439-0.383-1.127,0.056-1.536c0.438-0.406,1.125-0.384,1.536,0.056c1.083,1.164,2.135,4.953,2.336,5.7    c0.155,0.579-0.189,1.176-0.768,1.331C302.681,416.935,302.586,416.947,302.493,416.947z"/>
		<path style="fill:#241726;" d="M295.166,409.313c-0.48,0-0.918-0.319-1.049-0.806c-0.51-1.903-1.355-4.273-1.829-4.783    c-0.409-0.44-0.383-1.128,0.056-1.536c0.437-0.409,1.127-0.385,1.536,0.056c1.081,1.164,2.135,4.952,2.336,5.7    c0.156,0.579-0.189,1.176-0.768,1.331C295.354,409.302,295.259,409.313,295.166,409.313z"/>
	</g>
	<g>
		<path style="fill:#241726;" d="M178.477,431.33c-0.589,0-1.073-0.47-1.087-1.062c-0.014-0.6,0.462-1.097,1.062-1.111    c1.97-0.045,4.472-0.304,5.081-0.643c0.524-0.293,1.188-0.106,1.478,0.419c0.293,0.524,0.105,1.187-0.419,1.478    c-1.388,0.775-5.318,0.901-6.092,0.919C178.493,431.33,178.484,431.33,178.477,431.33z"/>
		<path style="fill:#241726;" d="M173.231,436.59c-0.589,0-1.073-0.47-1.087-1.062c-0.014-0.6,0.462-1.097,1.062-1.111    c1.97-0.045,4.472-0.304,5.081-0.643c0.524-0.291,1.185-0.105,1.478,0.419c0.293,0.524,0.105,1.187-0.419,1.478    c-1.388,0.775-5.318,0.901-6.092,0.919C173.247,436.59,173.238,436.59,173.231,436.59z"/>
		<path style="fill:#241726;" d="M163.249,432.838c-0.589,0-1.073-0.47-1.087-1.062c-0.014-0.6,0.462-1.097,1.062-1.111    c1.97-0.045,4.472-0.304,5.08-0.643c0.523-0.292,1.184-0.106,1.478,0.419c0.293,0.523,0.105,1.185-0.419,1.478    c-1.386,0.775-5.317,0.901-6.091,0.919C163.265,432.838,163.257,432.838,163.249,432.838z"/>
		<path style="fill:#241726;" d="M158.954,438.125c-0.589,0-1.073-0.47-1.087-1.062c-0.013-0.6,0.463-1.097,1.062-1.111    c1.97-0.045,4.471-0.302,5.079-0.643c0.522-0.291,1.185-0.105,1.479,0.418c0.293,0.524,0.106,1.185-0.418,1.479    c-1.387,0.776-5.318,0.901-6.092,0.919C158.97,438.125,158.962,438.125,158.954,438.125z"/>
		<path style="fill:#241726;" d="M170.238,427.59c-0.589,0-1.073-0.47-1.087-1.062c-0.014-0.6,0.462-1.097,1.062-1.111    c1.97-0.045,4.473-0.304,5.081-0.643c0.523-0.293,1.184-0.105,1.478,0.419c0.293,0.523,0.105,1.185-0.419,1.478    c-1.386,0.775-5.318,0.901-6.092,0.919C170.254,427.59,170.245,427.59,170.238,427.59z"/>
		<path style="fill:#241726;" d="M187.787,425.049c-0.589,0-1.073-0.47-1.087-1.062c-0.014-0.6,0.462-1.097,1.062-1.111    c1.97-0.045,4.472-0.304,5.081-0.643c0.524-0.292,1.187-0.106,1.478,0.419c0.293,0.524,0.105,1.187-0.419,1.478    c-1.388,0.775-5.318,0.901-6.092,0.919C187.803,425.049,187.795,425.049,187.787,425.049z"/>
		<path style="fill:#241726;" d="M187.845,434.259c-0.589,0-1.073-0.47-1.087-1.062c-0.014-0.6,0.462-1.097,1.062-1.111    c1.97-0.045,4.472-0.304,5.081-0.643c0.523-0.291,1.187-0.105,1.478,0.419c0.293,0.524,0.105,1.187-0.419,1.478    c-1.388,0.775-5.318,0.901-6.092,0.919C187.861,434.259,187.852,434.259,187.845,434.259z"/>
		<path style="fill:#241726;" d="M196.996,428.948c-0.589,0-1.073-0.47-1.087-1.062c-0.014-0.6,0.462-1.097,1.062-1.111    c1.97-0.045,4.472-0.304,5.081-0.643c0.523-0.292,1.187-0.106,1.478,0.419c0.293,0.524,0.105,1.187-0.419,1.478    c-1.388,0.775-5.318,0.901-6.092,0.919C197.012,428.948,197.004,428.948,196.996,428.948z"/>
	</g>
	<path style="fill:#241726;" d="M290.301,482.217c-0.413,0-0.808-0.236-0.99-0.636c-0.248-0.546-0.008-1.191,0.538-1.44   l49.991-22.822c0.544-0.249,1.19-0.01,1.44,0.538c0.248,0.546,0.008,1.191-0.538,1.44l-49.991,22.822   C290.604,482.185,290.452,482.217,290.301,482.217z"/>
	<path style="fill:#241726;" d="M130.544,452.874c-0.565,0-1.041-0.436-1.083-1.007l-3.26-44.557   c-0.045-0.599,0.405-1.12,1.004-1.163c0.627-0.039,1.12,0.406,1.163,1.004l3.26,44.557c0.045,0.599-0.405,1.12-1.004,1.163   C130.597,452.873,130.571,452.874,130.544,452.874z"/>
	<path style="fill:#241726;" d="M169.038,278.274c-0.437,0-0.849-0.265-1.015-0.698c-11.759-30.724-2.876-43.101-2.492-43.613   c0.361-0.482,1.041-0.577,1.521-0.218c0.479,0.359,0.577,1.037,0.221,1.517l0,0c-0.086,0.118-8.491,12.086,2.78,41.537   c0.215,0.56-0.066,1.189-0.626,1.403C169.299,278.251,169.167,278.274,169.038,278.274z"/>
	<path style="fill:#241726;" d="M222.526,326.198c-14.87,0-30.509-3.99-31.533-4.257c-0.582-0.151-0.93-0.744-0.779-1.324   c0.151-0.582,0.75-0.936,1.324-0.779c0.388,0.102,38.8,9.902,51.775-0.914c0.462-0.384,1.147-0.322,1.531,0.139   c0.384,0.462,0.322,1.147-0.139,1.531C239.61,324.841,231.198,326.198,222.526,326.198z"/>
	<path style="fill:#241726;" d="M264.732,282.418c-0.406,0-0.797-0.229-0.983-0.621c-0.257-0.542-0.027-1.19,0.516-1.448   c0.218-0.104,21.845-10.543,26.547-26.822c0.168-0.577,0.766-0.906,1.346-0.743c0.577,0.167,0.91,0.769,0.743,1.346   c-4.976,17.227-26.779,27.743-27.704,28.183C265.046,282.384,264.888,282.418,264.732,282.418z"/>
	<path style="fill:#F4B29B;" d="M347.068,231.262c0,0,30.076-21.368,32.674-17.615c2.598,3.753-17.487,18.386-17.487,18.386   s13.886,15.324,1.358,24.179C351.086,265.067,343.315,233.86,347.068,231.262z"/>
	<path style="fill:#241726;" d="M362.185,259.223c-0.731,0-1.467-0.202-1.777-0.955c-0.308-0.748-0.97-2.364,12.21-11.27   c-5.778,1.817-12.34,3.418-14.206,2.058c-0.484-0.352-0.742-0.896-0.707-1.489c0.144-2.477,7.539-7.389,13.342-10.873   c-6.059,0.602-12.938,0.929-14.368-0.446c-0.348-0.335-0.517-0.774-0.475-1.235c0.176-1.961,7.253-6.186,21.034-12.559   c0.549-0.256,1.191-0.013,1.442,0.53c0.253,0.544,0.015,1.191-0.53,1.442c-8.1,3.746-17.172,8.5-19.37,10.438   c2.458,0.479,10.35-0.051,17.154-0.912c0.529-0.055,1.006,0.244,1.168,0.737c0.163,0.493-0.046,1.034-0.498,1.288   c-7.348,4.14-15.451,9.499-16.605,11.446c2.234,0.541,11.944-2.233,20.248-5.373c0.52-0.195,1.107,0.032,1.356,0.531   c0.249,0.499,0.081,1.105-0.389,1.404c-7.55,4.79-15.581,10.43-18.032,12.922c0.015-0.003,0.03-0.006,0.045-0.01   c9.36-2.031,26.905-9.736,27.081-9.814c0.552-0.241,1.191,0.008,1.433,0.556c0.242,0.55-0.007,1.191-0.556,1.433   c-0.728,0.321-17.924,7.872-27.497,9.95C363.329,259.099,362.758,259.223,362.185,259.223z"/>
	<g>
		
			<ellipse transform="matrix(0.0891 -0.996 0.996 0.0891 285.1494 428.193)" style="fill:#E23962;" cx="376.673" cy="58.202" rx="52.317" ry="46.579"/>
		<path style="fill:#241726;" d="M366.77,228.328c-0.135,0-0.273-0.017-0.411-0.052c-4.659-1.193-16.061-40.808-20.746-57.785    c-0.16-0.578,0.179-1.177,0.759-1.336c0.575-0.154,1.177,0.179,1.336,0.759c7.061,25.579,15.877,52.832,18.94,56.027    c3.138-4.885,15.46-43.826,23.227-69.656c0.173-0.574,0.776-0.902,1.354-0.728c0.574,0.173,0.9,0.779,0.728,1.354    c-2.059,6.845-20.222,66.99-24.029,70.912C367.608,228.154,367.2,228.328,366.77,228.328z"/>
		<path style="fill:#241726;" d="M367.179,229.273c-0.08,0-0.161-0.008-0.242-0.027c-0.585-0.134-0.952-0.716-0.819-1.301    c0.895-3.931,0.59-61.575,0.397-83.455c-0.005-0.601,0.477-1.091,1.077-1.096c0.003,0,0.006,0,0.01,0    c0.596,0,1.081,0.48,1.087,1.077c0.029,3.222,0.682,78.973-0.45,83.956C368.124,228.932,367.675,229.273,367.179,229.273z"/>
		
			<ellipse transform="matrix(0.2691 -0.9631 0.9631 0.2691 184.1573 478.3929)" style="fill:#F8DC94;" cx="407.258" cy="117.868" rx="52.317" ry="46.579"/>
		
			<ellipse transform="matrix(0.9571 -0.2896 0.2896 0.9571 -20.259 102.2271)" style="fill:#C27B9A;" cx="335.265" cy="119.563" rx="46.579" ry="52.317"/>
		<path style="fill:#C27B9A;" d="M346.219,166.652c0,0-3.115,13.104-2.082,13.628c1.032,0.524,11.847-4.553,12.176-5.818    S346.219,166.652,346.219,166.652z"/>
		<path style="fill:#F8DC94;" d="M388.488,163.842c0,0-12.359,5.354-12.161,6.494c0.199,1.141,10.741,6.761,11.952,6.266    S388.488,163.842,388.488,163.842z"/>
		<path style="fill:#241726;" d="M371.489,119.275c-0.569,0-1.046-0.441-1.084-1.017c-0.939-14.579-5.884-25.503-14.3-31.59    c-6.3-4.557-12.33-4.84-12.39-4.842c-0.6-0.022-1.068-0.527-1.044-1.127c0.023-0.601,0.582-1.095,1.127-1.044    c0.264,0.01,26.39,1.44,28.776,38.463c0.038,0.6-0.416,1.116-1.015,1.155C371.536,119.274,371.512,119.275,371.489,119.275z"/>
		<path style="fill:#241726;" d="M447.049,119.126c-0.582,0-1.063-0.461-1.085-1.046c-0.862-23.015-25.777-40.627-26.028-40.802    c-0.492-0.343-0.613-1.02-0.271-1.512c0.342-0.493,1.02-0.616,1.512-0.271c1.063,0.741,26.057,18.417,26.958,42.505    c0.022,0.6-0.446,1.104-1.045,1.126C447.076,119.126,447.063,119.126,447.049,119.126z"/>
		<path style="fill:#241726;" d="M412.735,53.892c-0.525,0-0.987-0.381-1.072-0.915c-2.441-15.27-8.526-26.49-17.6-32.447    c-6.786-4.455-12.815-4.383-12.901-4.43c-0.635-0.08-1.092-0.473-1.1-1.074c-0.007-0.6,0.473-1.092,1.074-1.1    c0.001,0,0.004,0,0.007,0c0.589,0,26.539,0.37,32.666,38.706c0.094,0.593-0.309,1.15-0.901,1.245    C412.85,53.888,412.791,53.892,412.735,53.892z"/>
		<path style="fill:#241726;" d="M387.754,164.428c-0.085,0-0.172-0.01-0.258-0.031c-0.471-0.115-0.809-0.529-0.828-1.014    l-0.53-13.527c-0.023-0.6,0.444-1.105,1.043-1.128c0.595-0.018,1.105,0.443,1.128,1.043l0.381,9.726l4.249-7.466    c0.296-0.522,0.962-0.706,1.482-0.408c0.522,0.297,0.705,0.96,0.408,1.482l-6.131,10.773    C388.502,164.224,388.138,164.428,387.754,164.428z"/>
		<path style="fill:#241726;" d="M347.16,168.804c-0.09,0-0.178-0.011-0.261-0.032c-0.746-0.194-3.741-2.507-8.9-6.872    c-0.457-0.388-0.515-1.074-0.127-1.533c0.388-0.456,1.071-0.513,1.533-0.127c2.48,2.099,5.231,4.347,6.841,5.566    c-0.188-1.961-0.739-5.409-1.314-8.413c-0.113-0.589,0.274-1.158,0.864-1.271c0.587-0.108,1.158,0.274,1.271,0.864    c2.009,10.503,1.392,11.081,0.941,11.503C347.798,168.686,347.466,168.804,347.16,168.804z"/>
		<path style="fill:#241726;" d="M347.745,169.161c-0.446,0-0.865-0.277-1.023-0.721c-0.203-0.566,0.092-1.188,0.657-1.389    c2.7-0.965,3.089-6.655,3.014-8.572c-0.024-0.601,0.443-1.106,1.042-1.129c0.62-0.049,1.106,0.443,1.129,1.042    c0.037,0.92,0.222,9.035-4.453,10.705C347.99,169.14,347.866,169.161,347.745,169.161z"/>
		<path style="fill:#241726;" d="M389.813,164.738c-0.108,0-0.215-0.004-0.321-0.013c-0.914-0.072-1.686-0.456-2.233-1.109    c-0.384-0.461-0.324-1.146,0.137-1.531c0.464-0.385,1.146-0.322,1.531,0.137c0.116,0.139,0.305,0.302,0.735,0.336    c2.002,0.196,5.998-2.596,8.039-4.37c0.453-0.395,1.14-0.348,1.533,0.106c0.394,0.452,0.347,1.139-0.105,1.533    C398.538,160.342,393.385,164.738,389.813,164.738z"/>
	</g>
	<path style="fill:#241726;" d="M243.92,65.826c-12.469,0-19.93-10.383-26.73-19.847c-2.053-2.856-3.99-5.553-6.032-7.949   c-3.687-4.33-7.255-6.417-10.635-6.199c-4.183,0.266-6.69,4.041-6.715,4.079c-0.327,0.503-1.002,0.643-1.504,0.317   c-0.503-0.328-0.645-1.002-0.317-1.504c0.126-0.193,3.14-4.726,8.398-5.061c4.07-0.284,8.272,2.078,12.428,6.959   c2.099,2.464,4.064,5.197,6.143,8.09c9.244,12.865,18.803,26.164,40.225,14.269c0.524-0.292,1.188-0.102,1.477,0.422   c0.292,0.524,0.103,1.185-0.422,1.477C253.945,64.374,248.583,65.826,243.92,65.826z"/>
	<path style="fill:#241726;" d="M251.623,55.475c-7.084,0-10.779-6.154-14.887-12.997c-4.885-8.136-10.422-17.357-23.056-21.193   c-9.572-2.907-16.708-2.642-21.212,0.783c-5.117,3.89-5.017,10.642-5.015,10.71c0.014,0.6-0.461,1.097-1.061,1.112   c-0.636-0.055-1.098-0.463-1.112-1.061c-0.007-0.322-0.119-7.937,5.872-12.49c5.093-3.872,12.887-4.25,23.158-1.133   c13.436,4.08,19.454,14.101,24.289,22.155c5.63,9.378,9.348,15.571,21.115,9.564c0.533-0.275,1.19-0.06,1.462,0.473   c0.273,0.535,0.061,1.19-0.473,1.462C257.128,54.686,254.159,55.474,251.623,55.475z"/>
	<path style="fill:#241726;" d="M243.634,34.895c-0.337,0-0.671-0.157-0.883-0.452c-0.202-0.279-20.386-27.905-38.451-27.092   c-6.485,0.307-12.033,4.323-16.493,11.936c-0.305,0.518-0.97,0.69-1.488,0.388c-0.518-0.304-0.691-0.97-0.388-1.488   C190.788,9.9,196.934,5.523,204.199,5.18c19.249-0.869,39.465,26.811,40.315,27.994c0.35,0.487,0.24,1.165-0.247,1.517   C244.075,34.828,243.853,34.895,243.634,34.895z"/>
	<path style="fill:#241726;" d="M125.971,105.714c-5.641,0-9.593-1.002-9.707-1.032c-0.579-0.154-0.924-0.749-0.772-1.329   c0.154-0.581,0.76-0.92,1.329-0.773c1.278,0.34,31.355,7.898,42.911-22.444c3.726-9.781,5.759-16.984,7.243-22.244   c3.275-11.612,4.051-14.371,15.089-12.089c0.588,0.122,0.966,0.697,0.845,1.284c-0.122,0.588-0.703,0.96-1.284,0.845   c-9.057-1.874-9.251-1.17-12.558,10.55c-1.495,5.299-3.543,12.556-7.304,22.428C153.712,102.048,136.758,105.714,125.971,105.714z"/>
	<path style="fill:#241726;" d="M114.612,92.506c-1.364,0-2.786-0.117-4.273-0.36c-0.592-0.098-0.993-0.657-0.897-1.249   s0.647-0.995,1.249-0.897c19.525,3.205,27.155-17.602,33.284-34.318c3.257-8.883,5.83-15.9,9.671-18.278   c10.905-6.75,27.425,0.129,28.122,0.426c0.552,0.235,0.81,0.872,0.576,1.424c-0.235,0.554-0.867,0.81-1.425,0.577   c-0.16-0.067-16.189-6.733-26.129-0.578c-3.202,1.981-5.784,9.024-8.774,17.177C140.373,71.823,132.789,92.506,114.612,92.506z"/>
	<path style="fill:#241726;" d="M118.05,77.593c-0.544,0-1.015-0.409-1.078-0.963c-0.069-0.595,0.359-1.135,0.955-1.204   c5.347-0.618,6.973-9.276,8.854-19.303c2.264-12.063,4.83-25.734,14.854-31.303c18.525-10.288,34.72,2.997,34.882,3.131   c0.46,0.386,0.52,1.071,0.135,1.53c-0.384,0.461-1.07,0.522-1.53,0.136c-0.613-0.512-15.232-12.45-32.431-2.897   c-9.13,5.073-11.597,18.212-13.772,29.804c-2.041,10.871-3.803,20.26-10.742,21.06C118.134,77.591,118.091,77.593,118.05,77.593z"/>
	<path style="fill:#241726;" d="M127.684,124.572c-6.168,0-11.369-2.75-11.655-2.904c-0.529-0.284-0.726-0.943-0.443-1.471   c0.284-0.531,0.945-0.727,1.472-0.444c0.086,0.047,8.601,4.536,16.149,1.691c4.208-1.583,7.387-5.171,9.444-10.66   c0.21-0.564,0.836-0.844,1.4-0.636c0.561,0.211,0.846,0.837,0.636,1.4c-2.29,6.108-5.901,10.124-10.729,11.935   C131.856,124.274,129.717,124.572,127.684,124.572z"/>
	<path style="fill:#241726;" d="M360.145,311.221c-0.155,0-0.313-0.033-0.463-0.104c-3.427-1.618-5.561-3.915-6.344-6.826   c-1.824-6.784,4.161-15.455,8.532-21.786c0.002-0.002,0.004-0.005,0.005-0.008c-1.368-0.448-2.163-1.164-2.564-1.631   c-1.072-1.248-1.305-2.876-0.626-4.353c0.974-2.12,3.525-3.386,6.823-3.386c1.209,0,2.028,0.396,2.438,1.176   c0.715,1.364-0.128,3.205-2.203,6.367c0.8-0.079,1.694-0.247,2.684-0.531c1.83-0.522,3.122-1.599,3.953-3.291   c3.255-6.633-1.932-19.79-1.985-19.923c-0.223-0.557,0.049-1.19,0.606-1.413c0.557-0.225,1.19,0.048,1.413,0.606   c0.23,0.575,5.597,14.184,1.918,21.684c-1.101,2.246-2.887,3.735-5.309,4.427c-1.916,0.547-3.5,0.722-4.785,0.67   c-0.187,0.273-0.38,0.553-0.579,0.842c-4.128,5.981-9.784,14.175-8.221,19.986c0.619,2.299,2.31,4.073,5.173,5.425   c0.543,0.257,0.775,0.904,0.519,1.447C360.943,310.991,360.552,311.221,360.145,311.221z M365.507,275.299   c-2.857,0-4.378,1.095-4.848,2.119c-0.319,0.695-0.21,1.435,0.3,2.03c0.427,0.498,1.165,0.925,2.226,1.135   c1.5-2.22,2.945-4.519,2.834-5.254C365.986,275.345,365.824,275.299,365.507,275.299z"/>
	<path style="fill:#241726;" d="M390.17,315.51c-0.04,0-0.081-0.002-0.121-0.006c-0.633-0.07-15.52-1.811-18.457-9.566   c-1.382-3.649,0.088-7.894,4.368-12.617c14.747-16.272-2.007-36.972-2.178-37.179c-0.382-0.464-0.316-1.148,0.146-1.53   c0.464-0.381,1.149-0.315,1.53,0.146c0.183,0.222,18.106,22.374,2.112,40.024c-3.688,4.069-5.016,7.563-3.947,10.387   c2.472,6.526,16.523,8.159,16.664,8.175c0.596,0.067,1.026,0.604,0.96,1.2C391.188,315.099,390.716,315.51,390.17,315.51z"/>
	<path style="fill:#241726;" d="M416.44,299.426c-0.038,0-0.076-0.002-0.115-0.006c-10.897-1.147-17.204-4.895-18.742-11.139   c-0.756-3.068-0.208-6.313,0.888-9.251c-10.672-1.347-18.646-24.389-18.981-25.374c-0.194-0.568,0.109-1.185,0.677-1.379   c0.566-0.195,1.187,0.11,1.38,0.677c2.177,6.379,9.53,23.113,17.314,23.933c0.172,0.018,0.341,0.032,0.505,0.042   c1.925-4.027,4.622-7.158,5.748-7.909c0.904-0.605,1.878-0.605,2.603-0.008c1.132,0.935,1.31,3.147,0.422,5.261   c-0.482,1.147-2.334,4.549-7.365,4.835c-1.131,2.758-1.777,5.831-1.08,8.653c1.296,5.262,6.968,8.457,16.859,9.499   c0.598,0.063,1.031,0.598,0.967,1.194C417.461,299.011,416.99,299.426,416.44,299.426z M406.329,270.684   c-0.772,0.582-2.798,2.974-4.461,6.102c2.499-0.507,3.65-2.054,4.155-3.107C406.728,272.211,406.557,270.914,406.329,270.684z"/>
</g>















</svg>
