<?xml version="1.0" encoding="UTF-8"?>
<!-- Generator: Adobe Illustrator 25.2.0, SVG Export Plug-In . SVG Version: 6.00 Build 0)  -->
<svg xmlns="http://www.w3.org/2000/svg" xmlns:xlink="http://www.w3.org/1999/xlink" version="1.1" id="Capa_1" x="0px" y="0px" viewBox="0 0 512 512" style="enable-background:new 0 0 512 512;" xml:space="preserve" width="512" height="512">
<g>
	<g>
		<path style="fill:#E23962;" d="M151.498,188.29c0,0-5.434-88.035-2.174-88.035c3.261,0,14.129,1.087,14.129,1.087    S153.128,190.463,151.498,188.29z"/>
		<path style="fill:#E23962;" d="M152.63,216.587c0,0,5.434,88.035,2.174,88.035c-3.261,0-14.129-1.087-14.129-1.087    S151,214.413,152.63,216.587z"/>
		<path style="fill:#E23962;" d="M171.983,196.621c0,0,87.343-12.281,87.598-9.03s0.018,14.171,0.018,14.171    S169.943,198.416,171.983,196.621z"/>
		<path style="fill:#E23962;" d="M135.198,199.744c0,0-88.035,5.434-88.035,2.174c0-3.261,1.087-14.129,1.087-14.129    S137.372,198.113,135.198,199.744z"/>
		<path style="fill:#E23962;" d="M166.083,186.767c0,0,52.516-70.864,55.011-68.765c2.495,2.099,10.112,9.928,10.112,9.928    S165.931,189.48,166.083,186.767z"/>
		<path style="fill:#F8DC94;" d="M185.347,183.798c0,0,48.325-28.942,49.723-25.996c1.398,2.946,5.431,13.062,5.431,13.062    S184.795,185.864,185.347,183.798z"/>
		<path style="fill:#C27B9A;" d="M169.526,165.674c0,0,9.659-55.494,12.802-54.628c3.143,0.866,13.437,4.422,13.437,4.422    S170.73,167.442,169.526,165.674z"/>
		<path style="fill:#E23962;" d="M164.816,207.247c0,0,61.795,62.937,59.332,65.074c-2.463,2.137-11.385,8.438-11.385,8.438    S162.16,206.673,164.816,207.247z"/>
		<path style="fill:#F8DC94;" d="M162.836,224.799c0,0,21.041,52.251,17.913,53.172c-3.128,0.92-13.75,3.325-13.75,3.325    S160.881,223.932,162.836,224.799z"/>
		<path style="fill:#C27B9A;" d="M183.208,212.002c0,0,53.305,18.206,51.959,21.175c-1.347,2.969-6.466,12.582-6.466,12.582    S181.274,212.915,183.208,212.002z"/>
		<path style="fill:#E23962;" d="M138.203,190.031c0,0-63.501-61.215-61.098-63.419c2.403-2.204,11.149-8.748,11.149-8.748    S140.874,190.531,138.203,190.031z"/>
		<path style="fill:#F8DC94;" d="M138.383,174.179c0,0-20.079-52.628-16.935-53.491c3.144-0.863,13.808-3.072,13.808-3.072    S140.322,175.082,138.383,174.179z"/>
		<path style="fill:#C27B9A;" d="M117.78,186.601c0,0-52.963-19.18-51.562-22.124c1.401-2.944,6.695-12.461,6.695-12.461    S119.73,185.723,117.78,186.601z"/>
		<path style="fill:#E23962;" d="M145.327,211.19c0,0-64.584,60.072-66.653,57.552c-2.069-2.52-8.127-11.609-8.127-11.609    S145.972,208.551,145.327,211.19z"/>
		<path style="fill:#F8DC94;" d="M123.943,211.893c0,0-52.801,19.621-53.636,16.47s-2.952-13.835-2.952-13.835    S124.864,209.963,123.943,211.893z"/>
		<path style="fill:#C27B9A;" d="M136.185,232.604c0,0-19.64,52.794-22.572,51.368s-12.403-6.803-12.403-6.803    S135.325,230.646,136.185,232.604z"/>
	</g>
	<g>
		<path style="fill:#C27B9A;" d="M338.463,88.035c0,0-5.434-88.035-2.174-88.035c3.261,0,14.129,1.087,14.129,1.087    S340.093,90.209,338.463,88.035z"/>
		<path style="fill:#C27B9A;" d="M339.595,116.332c0,0,5.434,88.035,2.174,88.035s-14.129-1.087-14.129-1.087    S337.964,114.158,339.595,116.332z"/>
		<path style="fill:#C27B9A;" d="M358.948,96.366c0,0,87.343-12.281,87.598-9.03c0.254,3.251,0.018,14.171,0.018,14.171    S356.908,98.161,358.948,96.366z"/>
		<path style="fill:#C27B9A;" d="M322.163,99.489c0,0-88.035,5.434-88.035,2.174s1.087-14.129,1.087-14.129    S324.337,97.859,322.163,99.489z"/>
		<path style="fill:#43918F;" d="M353.047,86.512c0,0,52.516-70.864,55.011-68.765s10.112,9.928,10.112,9.928    S352.895,89.225,353.047,86.512z"/>
		<path style="fill:#F8DC94;" d="M372.312,83.543c0,0,48.325-28.942,49.723-25.996c1.398,2.946,5.431,13.062,5.431,13.062    S371.76,85.609,372.312,83.543z"/>
		<path style="fill:#EE919B;" d="M356.491,65.419c0,0,9.659-55.494,12.802-54.628c3.143,0.866,13.437,4.422,13.437,4.422    S357.694,67.187,356.491,65.419z"/>
		<path style="fill:#43918F;" d="M351.781,106.992c0,0,61.795,62.937,59.332,65.074s-11.385,8.438-11.385,8.438    S349.125,106.418,351.781,106.992z"/>
		<path style="fill:#F8DC94;" d="M349.801,124.545c0,0,21.041,52.251,17.913,53.172c-3.128,0.92-13.75,3.325-13.75,3.325    S347.846,123.677,349.801,124.545z"/>
		<path style="fill:#EE919B;" d="M370.173,111.747c0,0,53.305,18.206,51.959,21.175c-1.347,2.969-6.466,12.582-6.466,12.582    S368.239,112.66,370.173,111.747z"/>
		<path style="fill:#C27B9A;" d="M325.168,89.776c0,0-63.501-61.215-61.098-63.419s11.149-8.748,11.149-8.748    S327.838,90.276,325.168,89.776z"/>
		<path style="fill:#43918F;" d="M325.348,73.924c0,0-20.079-52.628-16.935-53.491s13.808-3.072,13.808-3.072    S327.286,74.828,325.348,73.924z"/>
		<path style="fill:#EE919B;" d="M304.744,86.346c0,0-52.963-19.18-51.562-22.124c1.401-2.944,6.695-12.461,6.695-12.461    S306.695,85.468,304.744,86.346z"/>
		<path style="fill:#43918F;" d="M332.291,110.936c0,0-64.584,60.072-66.653,57.552s-8.127-11.609-8.127-11.609    S332.937,108.296,332.291,110.936z"/>
		<path style="fill:#F8DC94;" d="M310.908,111.638c0,0-52.801,19.621-53.636,16.47c-0.836-3.152-2.952-13.835-2.952-13.835    S311.828,109.708,310.908,111.638z"/>
		<path style="fill:#43918F;" d="M323.15,132.349c0,0-19.64,52.794-22.572,51.368c-2.932-1.426-12.403-6.803-12.403-6.803    S322.29,130.391,323.15,132.349z"/>
	</g>
	<g>
		<path style="fill:#EE919B;" d="M410.382,285.051c0,0-3.493-56.592-1.397-56.592c2.096,0,9.083,0.699,9.083,0.699    S411.43,286.448,410.382,285.051z"/>
		<path style="fill:#EE919B;" d="M411.11,303.241c0,0,3.493,56.592,1.397,56.592c-2.096,0-9.083-0.699-9.083-0.699    S410.062,301.844,411.11,303.241z"/>
		<path style="fill:#EE919B;" d="M423.551,290.406c0,0,56.147-7.894,56.311-5.805c0.163,2.09,0.012,9.109,0.012,9.109    S422.239,291.56,423.551,290.406z"/>
		<path style="fill:#EE919B;" d="M399.904,292.414c0,0-56.592,3.493-56.592,1.397c0-2.096,0.699-9.083,0.699-9.083    S401.301,291.366,399.904,292.414z"/>
		<path style="fill:#EE919B;" d="M419.758,284.072c0,0,33.759-45.554,35.363-44.204s6.5,6.382,6.5,6.382    S419.66,285.816,419.758,284.072z"/>
		<path style="fill:#43918F;" d="M432.142,282.163c0,0,31.065-18.605,31.963-16.711s3.491,8.397,3.491,8.397    S431.787,283.491,432.142,282.163z"/>
		<path style="fill:#F8DC94;" d="M421.971,270.512c0,0,6.209-35.674,8.23-35.117c2.021,0.557,8.638,2.842,8.638,2.842    S422.745,271.649,421.971,270.512z"/>
		<path style="fill:#EE919B;" d="M418.943,297.237c0,0,39.724,40.458,38.141,41.831c-1.583,1.374-7.318,5.424-7.318,5.424    S417.236,296.868,418.943,297.237z"/>
		<path style="fill:#F8DC94;" d="M417.671,308.52c0,0,13.526,33.589,11.515,34.181c-2.011,0.592-8.839,2.137-8.839,2.137    S416.414,307.962,417.671,308.52z"/>
		<path style="fill:#43918F;" d="M430.766,300.294c0,0,34.266,11.703,33.401,13.612c-0.866,1.909-4.156,8.088-4.156,8.088    S429.523,300.881,430.766,300.294z"/>
		<path style="fill:#EE919B;" d="M401.836,286.17c0,0-40.821-39.351-39.276-40.768s7.167-5.623,7.167-5.623    S403.552,286.492,401.836,286.17z"/>
		<path style="fill:#43918F;" d="M401.951,275.98c0,0-12.908-33.831-10.886-34.386c2.021-0.555,8.876-1.975,8.876-1.975    S403.198,276.561,401.951,275.98z"/>
		<path style="fill:#43918F;" d="M388.707,283.965c0,0-34.046-12.33-33.146-14.222c0.901-1.893,4.304-8.01,4.304-8.01    S389.961,283.401,388.707,283.965z"/>
		<path style="fill:#EE919B;" d="M406.415,299.772c0,0-41.517,38.616-42.847,36.996c-1.33-1.62-5.224-7.462-5.224-7.462    S406.83,298.075,406.415,299.772z"/>
		<path style="fill:#F8DC94;" d="M392.669,300.224c0,0-33.942,12.613-34.479,10.587c-0.537-2.026-1.898-8.893-1.898-8.893    S393.261,298.983,392.669,300.224z"/>
		<path style="fill:#43918F;" d="M400.539,313.537c0,0-12.625,33.938-14.51,33.021s-7.973-4.373-7.973-4.373    S399.986,312.278,400.539,313.537z"/>
	</g>
	<path style="fill:#241726;" d="M208.949,77.19c-0.805,0-1.661,0.074-2.542,0.221c-2.813,0.468-4.939,0.714-6.567,0.745   c0.713-3.366,2.177-12.91-2.7-18.192c-2.928-3.168-7.516-4.193-13.674-3.048c-0.457,0.086-0.829,0.421-0.963,0.867l-2.702,9.02   c-0.151,0.503,0.029,1.046,0.45,1.358c0.428,0.314,0.997,0.327,1.432,0.035c0.027-0.019,2.926-1.915,5.808-1.064   c1.696,0.501,3.088,1.905,4.152,4.153c-0.724,2.033-2.883,9.342,1.469,14.257c2.094,2.365,4.894,2.747,7.601,3.117   c3.789,0.518,7.061,0.964,8.518,6.759c0.107,0.418,0.421,0.753,0.832,0.883c0.124,0.039,0.251,0.058,0.377,0.058   c0.294,0,0.581-0.103,0.812-0.3l7.827-6.724c0.287-0.247,0.445-0.61,0.433-0.989C219.376,84.487,216.997,77.19,208.949,77.19z    M188.2,64.744c-1.922-0.567-3.794-0.291-5.229,0.159l1.698-5.667c4.855-0.775,8.442,0.035,10.638,2.414   c4.205,4.547,2.608,13.649,2.025,16.309c-0.8-0.182-1.378-0.488-1.806-0.918c-0.915-0.918-1.299-2.654-1.284-5.806   c0-0.003-0.001-0.005-0.001-0.008c0-0.028-0.012-0.055-0.014-0.083c-0.009-0.13-0.032-0.256-0.079-0.372   c-0.005-0.012-0.003-0.024-0.008-0.036C192.743,67.513,190.746,65.497,188.2,64.744z M211.062,92.937   c-2.16-5.673-6.479-6.263-10.011-6.746c-2.466-0.336-4.592-0.626-6.076-2.301c-1.557-1.758-2.019-4.013-2.007-6.104   c0.226,0.376,0.491,0.71,0.79,1.012c1.248,1.251,3.101,1.834,5.835,1.834c1.788,0,4.084-0.243,7.221-0.765   c0.747-0.124,1.464-0.187,2.133-0.187c6.572,0,7.8,6.213,8.026,8.178L211.062,92.937z"/>
	<path style="fill:#241726;" d="M444.442,186.41l-8.102-4.802c-0.45-0.263-1.017-0.22-1.423,0.111   c-0.406,0.331-0.559,0.883-0.387,1.377c0.012,0.033,1.146,3.344-0.375,5.914c-0.9,1.516-2.593,2.524-5.025,3.013   c-1.306-0.866-5.16-3.153-9.41-3.153c-1.729,0-3.335,0.382-4.777,1.132c-2.802,1.461-3.848,4.086-4.862,6.625   c-1.416,3.552-2.641,6.62-8.615,6.635c-0.433,0.001-0.832,0.225-1.058,0.593c-0.226,0.367-0.246,0.826-0.051,1.211l4.638,9.219   c0.168,0.338,0.484,0.58,0.854,0.659c0.046,0.01,1.155,0.241,2.709,0.241c3.082,0,10.327-1.006,11.064-10.317   c0.226-2.844,0.514-4.961,0.885-6.541c2.176,1.056,7.178,3.186,12.149,3.186c2.128,0,4.249-0.392,6.134-1.427   c3.784-2.075,5.888-6.292,6.258-12.532C445.077,187.09,444.843,186.648,444.442,186.41z M408.56,212.695   c-0.669,0-1.236-0.051-1.627-0.1l-3.5-6.957c6.027-0.727,7.642-4.776,8.963-8.088c0.922-2.311,1.72-4.306,3.702-5.34   c1.861-0.974,4.3-1.022,6.431-0.471c-4.103,1.257-4.872,6.432-5.385,12.932C416.615,211.302,412.183,212.695,408.56,212.695z    M437.6,197.901c-5.401,2.963-13.801-0.735-16.285-1.958c0.808-1.601,1.886-2.007,3.341-2.007c0.997,0,2.235,0.196,3.896,0.618   c0.005,0.001,0.011,0.001,0.016,0.002c0.013,0.003,0.026,0.002,0.039,0.005c0.084,0.017,0.167,0.031,0.251,0.031   c0.017,0,0.036-0.001,0.049,0c0.033,0,0.061-0.016,0.094-0.019c0.021-0.003,0.041,0.006,0.062,0.002   c3.463-0.575,5.903-2.028,7.248-4.318c1.017-1.729,1.199-3.611,1.109-5.114l5.088,3.017   C442.087,193.067,440.436,196.342,437.6,197.901z"/>
	<path style="fill:#241726;" d="M435.837,424.572c-0.482-0.187-1.043-0.05-1.389,0.349c-0.022,0.026-2.264,2.582-5.227,2.582   c-0.029,0-0.058,0-0.085,0c-1.767-0.03-3.484-1.009-5.112-2.889c0.154-2.153,0.278-9.773-5.228-13.343   c-1.35-0.874-2.846-1.282-4.709-1.282c-1.16,0-2.325,0.158-3.454,0.312c-1.116,0.152-2.172,0.296-3.21,0.296   c-2.092,0-4.536-0.538-6.805-4.526c-0.214-0.376-0.606-0.613-1.036-0.629c-0.474-0.039-0.839,0.193-1.08,0.551l-5.74,8.575   c-0.212,0.315-0.268,0.708-0.153,1.068c0.107,0.342,2.722,8.356,10.128,8.356c1.707,0,3.531-0.446,5.424-1.328   c2.591-1.206,4.564-1.997,6.13-2.455c0.218,3.451,1.37,13.009,7.473,16.785c1.656,1.025,3.527,1.538,5.594,1.538   c2.51,0,5.317-0.755,8.391-2.264c0.418-0.204,0.688-0.626,0.698-1.092l0.19-9.415C436.646,425.235,436.328,424.759,435.837,424.572   z M407.11,420.407c-1.561,0.726-3.033,1.095-4.373,1.095c-4.68,0-6.91-4.484-7.552-6.074l4.334-6.474   c2.067,2.813,4.619,4.136,7.905,4.136c1.209,0,2.398-0.162,3.548-0.319c2.593-0.35,4.872-0.446,6.467,0.591   c1.97,1.277,3.018,3.322,3.568,5.339c-0.992-0.942-2.257-1.469-3.938-1.469C414.839,417.231,411.955,418.151,407.11,420.407z    M433.971,434.354c-4.478,2.048-8.143,2.223-10.894,0.523c-5.246-3.241-6.16-12.376-6.316-15.138   c0.102-0.005,0.212-0.018,0.308-0.018c1.897,0,3.172,0.899,4.465,5.635c0.001,0.003,0.003,0.005,0.004,0.008   c0.005,0.018,0.017,0.033,0.023,0.051c0.044,0.133,0.107,0.253,0.188,0.36c0.008,0.011,0.01,0.024,0.018,0.035   c2.206,2.731,4.67,4.138,7.326,4.182c1.951,0.049,3.734-0.736,4.996-1.553L433.971,434.354z"/>
	<path style="fill:#241726;" d="M85.323,288.105l-4.731-8.143c-0.265-0.454-0.773-0.705-1.301-0.6   c-0.516,0.094-0.917,0.501-1.004,1.019c-0.005,0.034-0.606,3.446-3.198,4.967c-1.528,0.891-3.502,0.947-5.87,0.186   c-0.982-1.907-4.856-8.493-11.624-8.685c-3.04,0-5.181,1.737-7.25,3.415c-1.909,1.549-3.712,3.012-6.132,3.012   c-1.389,0-2.902-0.465-4.624-1.422c-0.379-0.209-0.834-0.21-1.214,0.001c-0.377,0.212-0.618,0.602-0.637,1.032l-0.45,10.309   c-0.015,0.378,0.141,0.743,0.426,0.992c0.151,0.131,3.741,3.226,8.199,3.226h0.002c3.449,0,6.389-1.784,8.739-5.303   c1.557-2.333,2.844-4.059,3.958-5.282c1.98,2.835,7.932,10.404,15.108,10.458c0.027,0.001,0.054,0.001,0.08,0.001   c4.283,0,8.15-2.654,11.495-7.889C85.546,289.007,85.556,288.508,85.323,288.105z M52.58,290.729   c-1.858,2.784-4.101,4.196-6.667,4.196h-0.002c-2.712,0-5.135-1.546-6.107-2.26l0.34-7.776c1.425,0.589,2.768,0.877,4.067,0.877   c3.303,0,5.64-1.896,7.7-3.568c1.89-1.534,3.522-2.857,5.832-2.857c0,0,0,0,0.002,0c2.35,0.067,4.31,1.273,5.828,2.712   C59.804,281.268,56.713,284.537,52.58,290.729z M73.797,294.799c-0.017,0-0.036,0-0.054,0c-6.175-0.044-11.706-7.39-13.269-9.66   c0.712-0.485,1.356-0.711,1.972-0.711c1.262,0,2.814,0.936,5.032,3.035c0.002,0.002,0.006,0.003,0.008,0.005   c0.034,0.032,0.082,0.048,0.12,0.076c0.094,0.069,0.186,0.138,0.292,0.177c0.006,0.002,0.01,0.007,0.016,0.009   c3.305,1.188,6.141,1.11,8.432-0.233c1.732-1.014,2.809-2.567,3.463-3.924l2.972,5.117   C80.033,292.745,77.014,294.799,73.797,294.799z"/>
	<g>
		<path style="fill:#241726;" d="M132.734,512c-0.17,0-0.341-0.035-0.501-0.105l-14.851-6.51c-0.613-0.27-0.905-0.979-0.654-1.603    l64.334-161.071c0.248-0.628,0.946-0.944,1.588-0.705l16.305,6.051c0.316,0.117,0.572,0.358,0.708,0.666    c0.134,0.308,0.139,0.659,0.012,0.97l-65.789,161.53c-0.126,0.311-0.372,0.558-0.683,0.685    C133.052,511.97,132.892,512,132.734,512z M119.485,503.588l12.577,5.513l64.823-159.156l-13.963-5.181L119.485,503.588z"/>
		<polygon style="fill:#F8DC94;" points="238.884,194.361 161.318,365.028 277.964,405.216 344.833,234.223 312.429,142.978   "/>
		<path style="fill:#E23962;" d="M233.205,367.092c0,0-66.889-20.581-72.579-0.364c-5.69,20.217,87.741,55.933,112.504,46.394    C289.179,406.939,274.448,381.808,233.205,367.092z"/>
		<path style="fill:#E23962;" d="M228.599,217.236l-2.454,5.155l-7.492,16.484c5.466-0.504,71.6-5.657,110.485,35.483l9.224-23.588    C334.373,246.976,288.569,204.975,228.599,217.236z"/>
		<path style="fill:#E23962;" d="M208.942,260.243l-10.187,22.414c5.934-0.433,77.215-4.682,112.373,37.755l10.507-26.867    C316.619,288.847,271.865,248.986,208.942,260.243z"/>
		<path style="fill:#E23962;" d="M186.237,310.199l-11.268,24.794c9.362-0.361,76.933-1.536,115.899,37.226l11.415-29.189    C295.047,337.452,241.009,297.7,186.237,310.199z"/>
		<path style="fill:#C27B9A;" d="M238.884,194.361c0,0,90.411-109.702,106.477-105.523c14.72,3.829-0.528,145.385-0.528,145.385    S308.701,191.811,238.884,194.361z"/>
		<path style="fill:#241726;" d="M185.558,475.583c-0.659,0-1.209-0.517-1.243-1.182c-0.036-0.687,0.494-1.272,1.18-1.307    c15.505-0.786,26.124-6.473,29.899-16.016c2.189-5.526,1.873-12.086-0.584-18.296c-8.902,2.767-13.54-2.795-14.866-4.794    c-2.846-4.287-3.079-9.651-0.508-11.713c1.35-1.081,4.451-2.039,10.013,3.737c2.802,2.909,5.049,6.181,6.689,9.61    c0.567-0.249,1.153-0.536,1.756-0.863c4.091-2.212,6.657-5.513,7.625-9.809c3.349-14.84-12.703-37.029-12.866-37.252    c-0.406-0.555-0.285-1.334,0.27-1.74c0.552-0.405,1.333-0.288,1.739,0.27c0.691,0.945,16.882,23.322,13.287,39.267    c-1.133,5.031-4.118,8.885-8.868,11.456c-0.669,0.361-1.318,0.679-1.948,0.957c2.666,6.785,2.992,13.99,0.579,20.088    c-4.157,10.505-15.554,16.751-32.09,17.588C185.6,475.583,185.578,475.583,185.558,475.583z M201.842,423.959    c-0.362,0-0.645,0.095-0.846,0.258c-1.345,1.077-1.187,5.061,1.024,8.392c1.333,2.009,4.901,5.87,11.777,3.872    c-1.518-3.111-3.583-6.087-6.141-8.744C204.948,424.926,202.995,423.959,201.842,423.959z"/>
		<path style="fill:#241726;" d="M296.766,358.152c-0.129,0-0.258-0.019-0.387-0.062c-0.654-0.214-1.012-0.917-0.798-1.57    c0.102-0.317,2.388-7.922-7.241-11.834c-3.033-1.236-5.616-1.007-7.579-0.332c0.195,2.27-0.248,4.244-1.077,5.794    c-1.274,2.377-3.507,3.664-5.548,3.192c-1.034-0.237-1.771-0.947-2.019-1.948c-0.479-1.914,0.88-4.658,3.381-6.827    c0.55-0.477,1.384-1.115,2.469-1.701c-0.717-2.933-2.683-6.42-6.579-10.103c-4.254-4.023-8.931-5.222-13.518-3.468    c-0.89,0.34-1.734,0.776-2.525,1.281c1.022,2.859,0.44,5.19-0.09,6.467c-1.506,3.631-5.049,5.753-7.229,5.229    c-1-0.242-2.016-1.137-1.865-2.921c0.238-2.858,2.585-6.746,6.054-9.576c-1.292-2.115-3.59-4.222-6.822-6.194    c-8.999-5.482-14.705-3.749-17.784-1.564c1.411,2.672,1.705,5.365,1.352,7.456c-0.404,2.398-1.661,4.232-3.281,4.787    c-1.228,0.42-2.5,0.097-3.585-0.905c-2.218-2.045-1.727-6.753,1.094-10.495c0.35-0.465,0.737-0.913,1.155-1.338    c-0.669-0.873-1.506-1.729-2.534-2.533c-4.818-3.763-13.029-1.51-18.176,2.842c-0.068,0.057-0.131,0.113-0.197,0.169    c3.417,4.084,2.843,7.332,2.525,8.363c-0.513,1.672-1.78,2.804-3.305,2.955c-1.758,0.185-3.483-0.967-4.655-3.135    c-1.287-2.38-0.552-5.34,1.946-8.221c-0.236-0.219-0.486-0.438-0.752-0.659c-2.564-2.137-5.207-3.066-7.861-2.776    c-4.796,0.536-8.187,4.905-8.221,4.948c-0.418,0.547-1.194,0.651-1.744,0.236c-0.547-0.416-0.654-1.195-0.238-1.743    c0.163-0.214,4.042-5.247,9.904-5.914c3.359-0.387,6.642,0.739,9.756,3.337c0.326,0.271,0.632,0.541,0.922,0.807    c0.102-0.09,0.207-0.18,0.314-0.27c5.835-4.928,15.284-7.614,21.316-2.903c1.167,0.912,2.128,1.886,2.904,2.887    c4.492-3.129,11.504-3.907,20.44,1.542c3.879,2.363,6.209,4.714,7.559,6.872c0.866-0.535,1.783-0.996,2.734-1.36    c3.865-1.48,9.802-1.987,16.121,3.985c4.108,3.885,6.309,7.627,7.211,10.921c2.374-0.743,5.421-0.933,8.968,0.507    c11.823,4.805,8.702,14.816,8.671,14.915C297.778,357.819,297.291,358.152,296.766,358.152z M278.296,345.568    c-0.482,0.316-0.873,0.625-1.165,0.878c-1.975,1.713-2.778,3.623-2.598,4.344c1.077,0.336,2.23-0.465,2.955-1.818    C277.977,348.061,278.279,346.908,278.296,345.568z M253.244,332.166c-2.714,2.419-4.441,5.485-4.602,7.391    c-0.022,0.258,0.022,0.35,0.022,0.351c0.418,0.154,2.809-0.879,4.067-3.336C253.453,335.158,253.616,333.674,253.244,332.166z     M225.687,323.738c-0.204,0.229-0.372,0.439-0.508,0.619c-2.152,2.853-2.512,6.135-1.396,7.164    c0.596,0.551,0.973,0.424,1.09,0.381c0.591-0.202,1.352-1.178,1.632-2.844C226.755,327.566,226.575,325.677,225.687,323.738z     M201.672,323.79c-1.62,1.96-2.199,3.874-1.481,5.206c0.654,1.209,1.496,1.934,2.223,1.841c0.513-0.051,0.951-0.503,1.17-1.209    C203.978,328.342,203.608,326.213,201.672,323.79z"/>
		<path style="fill:#241726;" d="M313.662,309.709c-0.078,0-0.156-0.007-0.233-0.022c-0.674-0.126-1.119-0.778-0.992-1.453    c0.097-0.518,2.23-12.759-9.748-18.898c-3.198-1.637-6.416-2.148-9.167-1.536c0.829,2.857,0.771,5.342-0.131,7.056    c-0.983,1.863-2.889,2.63-5.112,2.061c-1.637-0.422-2.746-1.514-3.043-2.998c-0.426-2.127,0.854-4.676,3.257-6.495    c0.579-0.437,1.194-0.815,1.836-1.131c-1.394-3.153-3.962-6.811-7.965-10.309c-3.223-2.815-6.44-3.497-9.559-2.036    c-0.905,0.423-1.732,0.995-2.474,1.656c1.506,3.316,1.44,6.69,0.445,8.927c-1.039,2.335-3.023,3.3-5.069,2.463    c-0.727-0.3-1.955-1.142-2.009-3.418c-0.058-2.448,1.289-5.738,3.556-8.374c-1.221-1.926-3.174-3.788-6.117-5.194    c-5.39-2.576-9.52-0.602-11.962,1.396c0.878,1.936,0.807,3.707,0.564,4.905c-0.652,3.236-3.172,5.679-5.115,5.932    c-1.08,0.13-2.002-0.339-2.461-1.279c-1.056-2.15,0.688-6.646,3.828-9.984c-0.744-0.932-1.844-1.886-3.429-2.809    c-4.636-2.696-9.235-1.182-12.28,0.561c-1.734,0.992-3.213,2.184-4.402,3.353c0.178,0.663,0.221,1.253,0.212,1.721    c-0.058,2.424-1.513,4.208-2.838,4.84c-0.944,0.451-1.904,0.39-2.634-0.174c-0.769-0.593-1.277-1.913,0.681-4.819    c0.438-0.652,0.992-1.363,1.649-2.095c-0.659-1.046-1.805-2.032-3.383-2.877c-7.518-4.034-13.389,3.065-13.637,3.369    c-0.433,0.536-1.219,0.618-1.749,0.19c-0.535-0.429-0.623-1.211-0.195-1.748c0.075-0.09,7.384-9.03,16.758-4.007    c1.938,1.04,3.193,2.178,3.996,3.273c4.57-4.168,11.93-7.892,19.076-3.737c1.802,1.049,3.099,2.162,4.016,3.269    c4.23-3.343,9.374-3.913,14.382-1.524c3.162,1.51,5.39,3.506,6.869,5.641c0.82-0.677,1.712-1.261,2.666-1.709    c2.819-1.321,7.233-1.971,12.256,2.415c4.232,3.698,7.095,7.705,8.663,11.332c3.39-0.843,7.309-0.293,11.156,1.679    c13.669,7.002,11.088,21.434,11.062,21.578C314.769,309.294,314.249,309.709,313.662,309.709z M291.186,288.652    c-0.416,0.22-0.815,0.473-1.192,0.759c-1.78,1.346-2.512,3.04-2.318,4.018c0.041,0.198,0.161,0.803,1.223,1.075    c1.462,0.378,2.009-0.281,2.286-0.81C291.758,292.611,291.797,290.83,291.186,288.652z M268.448,277.704    c-1.479,2.042-2.296,4.322-2.26,5.814c0.007,0.37,0.08,1.014,0.467,1.174c0.912,0.382,1.513-0.426,1.844-1.171    C269.085,282.2,269.224,280.028,268.448,277.704z M247.222,273.339c-2.386,2.838-3.162,5.836-2.824,6.524    c0.285-0.043,1.987-1.133,2.722-3.373C247.378,275.707,247.558,274.598,247.222,273.339z"/>
		<path style="fill:#241726;" d="M332.758,263.873c-0.058,0-0.119-0.005-0.178-0.013c-0.681-0.096-1.155-0.727-1.058-1.408    c0.45-3.158,0.693-11.869-3.519-14.211c-1.486-0.825-3.145-0.715-4.935,0.327c-1.15,0.671-2.194,1.638-3.057,2.667    c-0.19,2.215-0.837,4.07-1.63,5.297c-0.871,1.352-1.729,1.434-2.281,1.266c-0.336-0.1-1.112-0.472-1.102-1.768    c0.01-1.468,1.014-3.69,2.573-5.731c0.102-2.728-0.591-6.625-4.091-10.66c-2.498-2.883-5.485-3.939-8.873-3.142    c-2.111,0.497-4.052,1.611-5.618,2.819c-0.377,1.66-1.09,2.843-1.496,3.415c-0.934,1.316-2.379,2.574-3.677,2.201    c-0.657-0.195-1.082-0.762-1.114-1.482c-0.049-1.249,1.627-3.479,3.999-5.466c0.207-1.82-0.19-4.265-2.281-7.165    c-1.454-2.014-3.429-2.683-6.046-2.048c-2.432,0.592-4.838,2.185-6.635,3.767c0.202,0.989,0.182,1.886-0.036,2.647    c-0.46,1.614-1.758,2.618-3.471,2.688c-1.119,0.038-1.739-0.673-1.892-1.306c-0.289-1.208,0.832-3.026,2.573-4.795    c-0.822-1.941-2.782-4.461-6.523-7.005c-4.307-2.936-8.199-0.35-10.133,1.453c-0.555,0.518-1.048,1.062-1.486,1.611    c0.659,1.694,0.786,3.388,0.559,4.841c-0.328,2.099-1.389,3.617-2.705,3.866c-0.939,0.171-1.839-0.302-2.41-1.276    c-1.082-1.851-0.148-4.928,1.666-7.676c-0.742-1.254-1.985-2.59-4.062-3.718c-4.152-2.256-7.357-0.314-9.123,1.378    c0.26,0.643,0.445,1.332,0.55,2.059c0.377,2.618-0.404,5.194-1.895,6.263c-0.851,0.609-1.875,0.682-2.799,0.213    c-0.508-0.258-1.367-0.93-1.437-2.532c-0.078-1.74,0.873-4.205,2.549-6.343c-0.596-0.787-1.486-1.52-2.824-1.987    c-6.443-2.256-13.732,5.238-13.805,5.314c-0.477,0.497-1.262,0.517-1.761,0.039c-0.496-0.475-0.513-1.265-0.039-1.761    c0.343-0.358,8.479-8.717,16.427-5.944c1.515,0.53,2.775,1.39,3.721,2.506c0.491-0.433,1.017-0.831,1.574-1.177    c3.128-1.962,6.701-2.036,10.05-0.216c2.011,1.092,3.471,2.413,4.485,3.814c0.343-0.384,0.7-0.752,1.065-1.093    c4.208-3.935,9.033-4.551,13.234-1.694c3.58,2.437,5.847,5.015,7.041,7.337c1.394-1.121,2.95-2.122,4.424-2.798    c4.677-2.151,8.651-1.397,11.183,2.116c1.831,2.538,2.585,4.84,2.758,6.804c0.922-0.576,1.883-1.079,2.846-1.461    c3.551-1.407,8.741-1.976,13.321,3.303c2.833,3.268,4.161,6.692,4.565,9.771c0.598-0.517,1.231-0.979,1.885-1.361    c2.564-1.498,5.125-1.619,7.401-0.353c6.569,3.653,4.85,16.208,4.774,16.741C333.898,263.426,333.366,263.873,332.758,263.873z     M258.923,230.83c-0.61,1.364-0.807,2.509-0.615,3.051c0.282-0.409,0.642-1.313,0.632-2.611    C258.94,231.141,258.935,230.993,258.923,230.83z M242.778,227.643c-1.209,2.005-1.326,3.645-1.082,3.928    c0.749-0.421,1.36-1.988,1.085-3.913C242.778,227.653,242.778,227.648,242.778,227.643z"/>
		<path style="fill:#241726;" d="M311.255,120.277c-0.243,0-0.489-0.071-0.703-0.218c-0.569-0.389-0.713-1.164-0.326-1.731    c0.778-1.137,4.818-6.848,7.931-7.603c0.674-0.167,1.343,0.247,1.506,0.917c0.161,0.668-0.248,1.341-0.917,1.503    c-1.613,0.392-4.75,4.089-6.465,6.59C312.04,120.088,311.651,120.277,311.255,120.277z"/>
		<path style="fill:#241726;" d="M312.261,136.68c-0.243,0-0.489-0.071-0.703-0.218c-0.569-0.389-0.713-1.164-0.326-1.73    c0.778-1.137,4.818-6.848,7.931-7.604c0.681-0.164,1.343,0.248,1.506,0.916c0.161,0.669-0.248,1.341-0.917,1.504    c-1.613,0.392-4.75,4.09-6.465,6.59C313.047,136.49,312.658,136.68,312.261,136.68z"/>
		<path style="fill:#241726;" d="M298.651,139.388c-0.243,0-0.489-0.071-0.703-0.218c-0.567-0.388-0.713-1.163-0.326-1.73    c0.778-1.137,4.816-6.849,7.931-7.604c0.681-0.162,1.343,0.248,1.506,0.917c0.161,0.668-0.251,1.341-0.917,1.503    c-1.615,0.392-4.753,4.09-6.462,6.59C299.436,139.199,299.047,139.388,298.651,139.388z"/>
		<path style="fill:#241726;" d="M301.937,150.482c-0.243,0-0.489-0.071-0.703-0.218c-0.567-0.388-0.713-1.163-0.326-1.73    c0.778-1.137,4.816-6.849,7.931-7.604c0.681-0.165,1.343,0.248,1.506,0.917c0.161,0.668-0.251,1.341-0.917,1.503    c-1.615,0.392-4.753,4.09-6.462,6.59C302.722,150.292,302.333,150.482,301.937,150.482z"/>
		<path style="fill:#241726;" d="M283.834,154.278c-0.243,0-0.489-0.071-0.703-0.218c-0.567-0.388-0.713-1.163-0.326-1.731    c0.778-1.137,4.816-6.848,7.931-7.603c0.674-0.164,1.343,0.248,1.506,0.917c0.161,0.668-0.251,1.341-0.917,1.503    c-1.615,0.392-4.753,4.089-6.462,6.589C284.62,154.089,284.23,154.278,283.834,154.278z"/>
		<path style="fill:#241726;" d="M291.612,164.282c-0.243,0-0.489-0.071-0.703-0.218c-0.567-0.388-0.713-1.163-0.326-1.731    c0.778-1.137,4.816-6.848,7.929-7.603c0.676-0.165,1.345,0.247,1.506,0.917c0.161,0.668-0.248,1.341-0.917,1.503    c-1.617,0.392-4.75,4.089-6.46,6.589C292.398,164.092,292.009,164.282,291.612,164.282z"/>
		<path style="fill:#241726;" d="M275.175,170.053c-0.243,0-0.489-0.071-0.703-0.218c-0.567-0.388-0.713-1.164-0.326-1.731    c0.778-1.137,4.818-6.849,7.931-7.604c0.674-0.161,1.343,0.248,1.506,0.917c0.161,0.668-0.248,1.341-0.917,1.503    c-1.617,0.392-4.753,4.09-6.462,6.59C275.961,169.864,275.572,170.053,275.175,170.053z"/>
	</g>
	<g>
		<g>
			<path style="fill:#43918F;" d="M109.546,423.599c0,0-80.299-54.919-77.406-94.536c0,0,45.183,14.695,42.832,7.465     c-2.351-7.23-10.703-37.573-1.308-33.93s39.01,40.902,73.748,53.376S118.327,439.975,109.546,423.599z"/>
			<path style="fill:#43918F;" d="M341.401,438.975c0,0,91.379-33.376,98.364-72.479c0,0-47.413,3.076-43.348-3.349     c4.064-6.425,19.655-33.764,9.651-32.554s-47.907,29.995-84.649,33.499C284.676,367.596,328.846,452.673,341.401,438.975z"/>
			<path style="fill:#EE919B;" d="M108.127,356.303c0,0,59.982,68.619,146.511,53.973c86.529-14.646,99.374-33.159,106.756-26.771     c7.382,6.388,40.238,23.075,11.969,69.879c-13.493,22.34-88.779,46.692-154.836,43.625     c-99.784-4.633-143.614-55.704-146.194-64.158C55.895,378.991,108.127,356.303,108.127,356.303z"/>
			<path style="fill:#241726;" d="M140.378,364.317c-7.781,0-18.482-1.602-32.681-6.845c-0.647-0.238-0.975-0.955-0.737-1.6     c0.238-0.643,0.963-0.972,1.598-0.737c34.472,12.735,47.404,3.353,47.528,3.255c0.547-0.416,1.328-0.31,1.746,0.237     c0.416,0.548,0.309,1.329-0.238,1.745C157.255,360.63,152.177,364.317,140.378,364.317z"/>
			<path style="fill:#241726;" d="M361.394,384.75c-0.019,0-0.039,0-0.058-0.001c-27.37-1.307-49.055-13.14-49.271-13.259     c-0.601-0.333-0.82-1.09-0.486-1.692c0.331-0.598,1.08-0.823,1.693-0.488c0.209,0.117,21.416,11.672,48.182,12.95     c0.688,0.033,1.219,0.617,1.185,1.304C362.606,384.23,362.056,384.75,361.394,384.75z"/>
		</g>
		<g>
			<path style="fill:#FFFFFF;" d="M128.484,413.479l-7.703,12.774c0.524,0.53,1.419,1.162,2.68,1.896l1.866,1.086     c0.172-0.103,0.537-0.633,1.096-1.592c0.557-0.958,1.67-3.131,3.337-6.517c1.666-3.386,2.979-5.903,3.938-7.552     c0.226-0.387,0.564-0.623,1.02-0.708c0.454-0.084,0.815-0.048,1.086,0.108c0.269,0.156,0.473,0.309,0.611,0.458     s0.285,0.323,0.438,0.524c0.151,0.202,0.277,0.354,0.376,0.456c-2.603,4.473-6.242,11.107-10.921,19.899     c-4.679,8.793-7.1,13.333-7.266,13.619c-0.167,0.286-0.512,0.462-1.035,0.529c-0.522,0.067-1.007-0.029-1.453-0.289     c-0.445-0.259-0.612-0.795-0.499-1.608c0.112-0.812,0.497-1.889,1.152-3.229c0.657-1.341,1.242-2.492,1.757-3.453     c0.219-0.414,0.485-0.875,0.807-1.387c0.411-0.706,0.889-1.508,1.435-2.407c0.964-1.578,1.519-2.493,1.665-2.746l0.118-0.202     l0.941-1.444l-0.023-0.655l0.029-0.05c-0.325-0.1-0.655-0.247-0.992-0.442l-3.052-2.417l-3.449,5.928l-4.644,8.677     c-0.285,0.488-0.662,0.847-1.135,1.079c-0.473,0.231-0.944,0.21-1.415-0.064c-0.69-0.401-0.801-1.304-0.332-2.709     c0.468-1.404,1.334-3.191,2.597-5.361l4.73-7.783c0.95-1.63,1.448-2.545,1.496-2.743l0.146-0.252     c1.182-1.721,1.836-2.691,1.963-2.91l6.429-11.86c0.235-0.403,0.585-0.677,1.053-0.822c0.467-0.145,0.902-0.1,1.306,0.135     C129.729,410.083,129.68,411.428,128.484,413.479z"/>
			<path style="fill:#FFFFFF;" d="M141.879,446.359l-0.817,3.643c-0.187,0.449-0.467,1.618-0.84,3.506     c-0.373,1.889-0.672,3.103-0.895,3.642l-0.022,0.054c-0.337,0.809-0.858,1.203-1.566,1.183c-0.772-0.32-1.322-0.696-1.648-1.127     c-0.327-0.431-0.341-1.005-0.043-1.724c0.647-1.563,1.322-3.948,2.021-7.156l-5.11-3.068c-0.848,1.081-1.665,2.311-2.448,3.692     c-0.783,1.381-1.395,2.371-1.833,2.969c-0.89,1.231-1.775,1.664-2.656,1.299c-0.432-0.18-0.773-0.485-1.026-0.916     c-0.252-0.431-0.289-0.863-0.109-1.294l0.336-0.43c6.455-8.549,12.168-17.111,17.141-25.688c0.139-0.237,0.498-0.95,1.078-2.143     c1.298-2.622,2.352-4.195,3.161-4.723l1.859,0.771c0.504,0.208,0.896,0.508,1.176,0.898c0.28,0.391,0.323,0.819,0.129,1.287     c-1.163,2.804-2.517,7.119-4.061,12.945S142.884,443.933,141.879,446.359z M138.534,446.267c0.116-0.584,0.452-1.545,1.008-2.884     s1.169-3.032,1.842-5.082c0.671-2.049,1.408-4.45,2.214-7.202c0.806-2.752,1.4-4.744,1.784-5.975     c-5.512,8.562-9.298,14.638-11.357,18.229C134.481,444.026,135.985,444.998,138.534,446.267z"/>
			<path style="fill:#FFFFFF;" d="M152.425,435.515l1.74-5.42c0.707-2.327,1.097-4.141,1.167-5.441     c0.668-1.261,1.384-1.775,2.147-1.543l2.513,0.765c2.196,0.668,3.465,2.05,3.804,4.146c0.289,1.857,0.114,3.838-0.525,5.941     c-0.811,2.662-1.373,4.276-1.688,4.84c-0.314,0.566-0.628,1.096-0.94,1.591c-0.314,0.495-0.628,0.876-0.944,1.147     c-0.316,0.269-0.701,0.553-1.158,0.852c-0.457,0.299-0.942,0.522-1.455,0.671c-1.137,0.326-2.44,0.499-3.91,0.52l-1.86,6.115     l-2.85,10.97c-0.142,0.466-0.457,0.802-0.947,1.008c-0.488,0.207-0.985,0.234-1.487,0.081l-0.989-1.063     c0.174-2.246,0.794-5.118,1.858-8.617l3.323-10.125c-0.07-0.57-0.04-1.069,0.09-1.498l0.059-0.195     C150.971,439.628,151.655,438.046,152.425,435.515z M157.228,429.958l-3.278,11.175l-0.025,0.084     c2.362,0.393,4.478-2.483,6.346-8.625c0.549-1.806,0.699-3.102,0.451-3.89c-0.275-0.836-0.915-1.406-1.92-1.712     c0.018-0.056-0.18-0.146-0.589-0.271L157.228,429.958z"/>
			<path style="fill:#FFFFFF;" d="M166.066,439.459l1.34-5.532c0.536-2.372,0.791-4.209,0.767-5.512     c0.574-1.306,1.251-1.872,2.029-1.696l2.562,0.579c2.24,0.505,3.605,1.792,4.096,3.857c0.424,1.832,0.394,3.82-0.092,5.964     c-0.611,2.714-1.055,4.365-1.326,4.951c-0.272,0.587-0.547,1.139-0.823,1.655s-0.562,0.92-0.857,1.212     c-0.296,0.292-0.66,0.604-1.094,0.935c-0.435,0.332-0.902,0.589-1.402,0.776c-1.109,0.408-2.396,0.675-3.861,0.802l-1.409,6.235     l-2.039,11.149c-0.107,0.475-0.397,0.833-0.871,1.075c-0.475,0.242-0.967,0.306-1.479,0.189l-1.064-0.988     c0.011-2.251,0.418-5.162,1.225-8.73l2.576-10.34c-0.112-0.564-0.119-1.063-0.021-1.501l0.046-0.198     C164.916,443.668,165.483,442.041,166.066,439.459z M170.45,433.567l-2.452,11.385l-0.02,0.086     c2.384,0.219,4.283-2.803,5.698-9.065c0.416-1.841,0.471-3.145,0.165-3.913c-0.334-0.813-1.014-1.336-2.039-1.568     c0.013-0.057-0.19-0.133-0.607-0.227L170.45,433.567z"/>
			<path style="fill:#FFFFFF;" d="M183.681,465.954c-0.421,2.633-1.275,3.846-2.562,3.64c-0.711-0.113-1.188-0.634-1.436-1.56     c0.581-0.793,1.335-4.092,2.262-9.895c0.169-1.057,0.303-2.572,0.402-4.547c0.099-1.974,0.195-3.377,0.289-4.21l0.244-1.527     c-0.05-0.185-0.416-1.84-1.097-4.964c-1.561-7.007-2.239-11.146-2.036-12.414l0.051-0.317l1.482-0.768     c1.207,0.213,2.161,3.489,2.862,9.827c0.306,2.769,0.457,4.163,0.454,4.182c0.225-0.417,0.768-1.837,1.628-4.262     c2.191-6.191,3.931-9.185,5.219-8.979c0.365,0.059,0.678,0.227,0.939,0.505c0.26,0.278,0.361,0.6,0.304,0.965     c-0.313,1.96-1.331,4.719-3.053,8.276c-1.722,3.558-2.758,6.312-3.109,8.266L183.681,465.954z"/>
			<path style="fill:#FFFFFF;" d="M200.467,446.989l0.995-11.11c0.107-1.846,0.921-3.27,2.441-4.273l-0.021,0.379     c0.16-0.088,0.309-0.128,0.444-0.12c0.932,0.054,2.005,1.729,3.217,5.025s2.27,6.9,3.173,10.812     c0.903,3.911,1.801,7.856,2.691,11.835c0.89,3.979,1.451,6.316,1.684,7.011c1.279-8.287,2.263-18.354,2.95-30.204l0.005-1.608     c0.069-1.184,0.6-1.748,1.59-1.691c0.563,0.033,0.973,0.29,1.228,0.772c0.254,0.482,0.363,1.035,0.327,1.656l-0.262,4.516     c-0.311,4.68-0.882,10.917-1.715,18.714c-0.832,7.797-1.597,12.182-2.297,13.154c-1.108,0.267-1.869,0.389-2.287,0.365     c-0.418-0.024-0.73-0.184-0.937-0.479c-0.208-0.294-0.362-0.737-0.464-1.328c-0.103-0.591-0.196-0.986-0.282-1.186l0.044-0.261     c0.086-1.476-1.069-6.25-3.467-14.322c-2.396-8.071-4.151-13.63-5.26-16.677l-1.742,30.041c0.034,0.08,0.104,0.221,0.21,0.421     c0.228,0.442,0.33,0.848,0.31,1.217c-0.021,0.369-0.224,0.728-0.604,1.076c-0.381,0.348-0.814,0.507-1.299,0.479     c-1.302-0.076-1.883-1.327-1.742-3.755L200.467,446.989z"/>
			<path style="fill:#FFFFFF;" d="M225.515,442.098l-0.303-5.05c0.01-2.821,0.852-4.229,2.524-4.223     c1.07,0.003,2.529,0.257,4.376,0.76c1.846,0.503,2.768,1.144,2.766,1.921c-0.003,0.817-0.589,1.438-1.758,1.862     c-1.847-0.629-3.353-1.014-4.52-1.155c0.055,0.857,0.08,1.712,0.077,2.569l-0.293,8.58c-0.001,0.039,0.057,0.35,0.171,0.935     l2.132-0.08c1.927,0.007,2.887,0.555,2.883,1.644c-0.002,0.429-0.178,0.802-0.529,1.122c-0.351,0.32-0.794,0.479-1.329,0.477     s-1.114-0.042-1.736-0.123l-1.518-0.006c0.111,1.519,0.163,3.026,0.158,4.524l-0.302,10.828     c-0.008,2.237,0.026,3.356,0.104,3.356l4.407-0.13c1.519,0.005,2.275,0.495,2.271,1.468c-0.002,0.603-0.266,1.04-0.793,1.31     c-0.525,0.271-1.12,0.405-1.781,0.402l-5.05-0.018c-0.525-0.002-1-0.184-1.428-0.545c-0.427-0.362-0.649-0.795-0.666-1.302     l0.006-1.576l-0.344-10.1L225.515,442.098z"/>
			<path style="fill:#FFFFFF;" d="M254.187,432.958c-0.036-0.973,0.505-1.479,1.622-1.521c1.117-0.041,1.694,0.405,1.729,1.338     c0.047,1.264,0.029,2.083-0.055,2.455l0.013,0.321c-0.483,1.674-0.688,3.511-0.614,5.514l0.162,4.375     c0.092,2.489-0.075,6.248-0.503,11.278c-0.427,5.029-0.6,8.652-0.518,10.869c0.15,4.044-0.544,6.095-2.079,6.152     c-1.147,0.042-1.753-0.787-1.815-2.488c-0.062-1.702-0.185-3.415-0.366-5.142c-0.18-1.726-0.44-3.624-0.78-5.696     c-0.34-2.07-0.631-3.777-0.876-5.123c-0.244-1.344-0.606-3.268-1.089-5.771c-0.482-2.503-0.809-4.2-0.977-5.09     c-0.089,1.328-0.106,2.662-0.057,4.004c0.049,1.341-0.008,3.88-0.171,7.615c-0.164,3.735-0.549,7.541-1.154,11.418     c-0.606,3.878-1.387,5.834-2.34,5.869c-1.536,0.038-2.848-4.09-3.934-12.384c-0.481-3.565-0.926-7.15-1.333-10.757     c-1.041-9.229-1.848-14.428-2.417-15.595c0.305-0.712,0.866-1.083,1.683-1.114c1.282-0.047,1.979,1.373,2.085,4.26     c0.106,2.888,0.688,7.277,1.744,13.167c1.055,5.89,1.682,10.194,1.879,12.912c1.266-11.593,1.786-20.403,1.562-26.431l1.578-0.76     c0.486-0.018,0.909,0.093,1.27,0.333c0.358,0.24,0.547,0.593,0.564,1.06l0.019,0.496c1.269,3.79,2.368,9.308,3.299,16.555     c0.435,3.313,0.822,5.88,1.161,7.697c0.535-5.549,0.661-12.146,0.378-19.787c-0.038-1.011,0.058-2.514,0.286-4.509     c0.228-1.994,0.322-3.497,0.286-4.508C254.278,433.626,254.198,433.289,254.187,432.958z"/>
			<path style="fill:#FFFFFF;" d="M278.879,466.677c0.256,2.654-0.267,4.043-1.563,4.167c-0.717,0.069-1.311-0.314-1.781-1.149     c0.361-0.914,0.262-4.295-0.3-10.145c-0.103-1.065-0.354-2.565-0.755-4.501c-0.4-1.936-0.66-3.318-0.778-4.148l-0.148-1.539     c-0.095-0.167-0.864-1.677-2.311-4.529c-3.272-6.391-4.968-10.225-5.091-11.504l-0.031-0.319l1.241-1.116     c1.223-0.097,2.97,2.833,5.242,8.792c0.991,2.602,1.49,3.913,1.491,3.932c0.112-0.46,0.28-1.972,0.504-4.534     c0.563-6.544,1.495-9.878,2.794-10.003c0.366-0.035,0.712,0.049,1.035,0.252c0.321,0.204,0.501,0.49,0.536,0.857     c0.189,1.976-0.102,4.902-0.872,8.777c-0.772,3.876-1.083,6.803-0.932,8.783L278.879,466.677z"/>
			<path style="fill:#FFFFFF;" d="M283.393,439.013l-1-4.959c-0.382-2.795,0.257-4.307,1.915-4.533     c1.06-0.145,2.539-0.096,4.438,0.146s2.9,0.749,3.006,1.52c0.11,0.81-0.384,1.506-1.483,2.087     c-1.915-0.367-3.461-0.539-4.635-0.516c0.173,0.84,0.317,1.685,0.434,2.533l0.898,8.538c0.006,0.039,0.105,0.339,0.3,0.901     l2.101-0.375c1.907-0.26,2.936,0.149,3.082,1.229c0.059,0.424-0.064,0.819-0.368,1.185c-0.304,0.364-0.722,0.583-1.251,0.656     c-0.531,0.072-1.109,0.112-1.735,0.119l-1.504,0.205c0.32,1.488,0.582,2.975,0.784,4.459l1.202,10.764     c0.303,2.217,0.492,3.321,0.57,3.31l4.347-0.74c1.504-0.205,2.321,0.175,2.452,1.138c0.082,0.598-0.119,1.067-0.604,1.408     c-0.483,0.34-1.054,0.556-1.707,0.646l-5.004,0.683c-0.521,0.071-1.018-0.043-1.489-0.342c-0.474-0.298-0.754-0.697-0.842-1.196     l-0.213-1.562l-1.74-9.955L283.393,439.013z"/>
			<path style="fill:#FFFFFF;" d="M312.158,452.54l1.32,3.491c0.092,0.479,0.502,1.609,1.229,3.391     c0.728,1.783,1.146,2.961,1.256,3.534l0.011,0.058c0.164,0.86-0.055,1.476-0.657,1.849c-0.822,0.157-1.487,0.146-1.998-0.034     c-0.509-0.18-0.838-0.651-0.983-1.416c-0.318-1.664-1.066-4.026-2.246-7.089l-5.955,0.247c-0.115,1.37-0.12,2.846-0.015,4.431     c0.104,1.584,0.139,2.747,0.103,3.486c-0.066,1.519-0.569,2.367-1.505,2.546c-0.459,0.088-0.913,0.021-1.361-0.2     c-0.448-0.221-0.717-0.562-0.804-1.02l0.044-0.543c0.69-10.69,0.752-20.984,0.188-30.88c-0.014-0.275-0.105-1.069-0.277-2.384     c-0.357-2.903-0.344-4.798,0.042-5.684l1.978-0.378c0.535-0.102,1.027-0.067,1.477,0.104c0.448,0.172,0.721,0.507,0.815,1.003     c0.57,2.981,1.812,7.33,3.728,13.045C310.46,445.812,311.665,449.96,312.158,452.54z M309.315,454.302     c-0.225-0.552-0.473-1.539-0.744-2.963c-0.272-1.423-0.692-3.175-1.259-5.256c-0.565-2.08-1.27-4.492-2.11-7.234     c-0.841-2.74-1.439-4.731-1.795-5.97c0.104,10.182,0.283,17.338,0.539,21.47C304.699,454.66,306.488,454.645,309.315,454.302z"/>
			<path style="fill:#FFFFFF;" d="M318.804,442.839l1.621,6.273c1.365,5.093,2.808,9.008,4.326,11.743l-0.233,1.724l-1.606,0.431     l-0.987-0.642c-0.426-1.739-0.927-3.685-1.505-5.837c-0.576-2.151-1.975-6.708-4.191-13.667     c-2.219-6.959-3.793-12.178-4.725-15.655c-0.488-1.823-0.095-2.906,1.184-3.249c2.011-0.539,3.843-0.466,5.498,0.218     c1.653,0.686,2.743,2.005,3.267,3.959l1.088,4.06c0.298,1.109,0.361,2.175,0.193,3.197c-0.17,1.022-0.393,2.11-0.668,3.261     c-0.276,1.151-0.427,1.791-0.452,1.919c0.458,0.885,1.318,2.628,2.579,5.231c2.735,5.693,5.142,9.672,7.218,11.935     c0.597,0.646,0.951,1.181,1.065,1.604c0.113,0.422,0.092,0.811-0.065,1.166s-0.433,0.584-0.827,0.69     c-0.809,0.217-1.832-0.501-3.07-2.154c-1.239-1.651-2.386-3.545-3.441-5.68c-3.221-6.529-5.075-10.101-5.562-10.716     L318.804,442.839z M314.473,425.779l0.022,0.871c0.423,1.579,1.071,3.847,1.945,6.806c0.873,2.959,1.492,5.115,1.854,6.468     c0.776-0.711,1.176-2.133,1.198-4.264c0.023-2.132-0.105-3.724-0.388-4.776c-0.282-1.052-0.519-1.82-0.708-2.303     c-0.188-0.482-0.459-1-0.808-1.55C316.88,425.89,315.842,425.473,314.473,425.779z"/>
		</g>
	</g>
</g>















</svg>
