<?xml version="1.0" encoding="UTF-8"?>
<!-- Generator: Adobe Illustrator 25.2.3, SVG Export Plug-In . SVG Version: 6.00 Build 0)  -->
<svg xmlns="http://www.w3.org/2000/svg" xmlns:xlink="http://www.w3.org/1999/xlink" version="1.1" id="Capa_1" x="0px" y="0px" viewBox="0 0 512 512" style="enable-background:new 0 0 512 512;" xml:space="preserve" width="512" height="512">
<g>
	<g>
		<g>
			<g>
				<g>
					<path style="fill:#6280FF;" d="M78.816,359.098c1.024,1.14,0.307,2.954-1.207,3.103c-9.578,0.947-18.201-8.859-14.169-10.453       c0.344-0.136,0.705-0.154,1.039-0.073C68.794,352.718,75.749,355.684,78.816,359.098z"/>
					<path style="fill:#6280FF;" d="M87.655,316.208c-2.372-0.667-4.698-1.836-6.664-3.391c-8.393-6.856,1.919-7.842,9.354-1.802       c1.923,1.617,4.276,4.059,2.149,5.423C91.456,317.103,88.806,316.511,87.655,316.208z"/>
					<path style="fill:#6280FF;" d="M83.689,325.655c-6.921,0.631-16.041-6.498-12.486-8.866c1.623-1.082,6.203,0.376,8.104,1.318       c4.19,2.074,5.866,4.888,5.728,4.746C85.786,323.991,85.057,325.525,83.689,325.655z"/>
					<path style="fill:#6280FF;" d="M62.688,342.376c-0.849-1.209-0.021-2.866,1.435-2.942c0.211,0.012,1.476-0.189,4.136,0.487       c6.927,1.869,10.039,6.718,9.743,6.378c0.56,0.791,0.372,1.886-0.418,2.445C75.576,350.161,66.246,347.444,62.688,342.376z"/>
					<path style="fill:#6280FF;" d="M79.234,337.043c-9.781,1.474-19.705-12.123-7.685-8.744c6.41,1.919,9.552,6.642,8.87,5.883       c0.593,0.803,0.422,1.934-0.381,2.527C79.795,336.889,79.514,337,79.234,337.043z"/>
				</g>
				<path style="fill:#FC09B2;" d="M94.191,315.209c-9.964,8.605-17.662,29.764-14.909,45.521c0.159,0.908,0.553,1.529,1.363,1.986      c11.089,6.302,18.398,7.732,25.783,8.291c14.063,1.06,31.653-2.529,46.407-10.532c14.129-7.663,25.965-18.65,40.869-25.307      c10.984-4.907,28.639-9.06,41.915-6.523c0.577,0.112,0.636,0.082,0.855-0.423c0.217-0.487,0.407-0.977,0.579-1.478      c4.528-13.145-5.77-30.079-18.67-34.214c-8.052-2.585-17.429-0.643-25.373,1.427c-31.27,8.123-37.233,19.431-54.034,23.742      c-8.704,2.227-17.863,1.977-26.691,0.654c-14.584-2.184-15.826-4.581-17.608-3.512      C94.521,314.938,94.364,315.063,94.191,315.209z"/>
				<g>
					<path style="fill:#FF8EDE;" d="M153.653,324.248c-1.724,0.108-3.486-1.261-3.505-3.087c0.023-1.835,1.824-3.2,3.541-3.064       c1.688,0.164,6.408,1.766,6.393,3.184C160.102,322.718,155.34,324.126,153.653,324.248z"/>
					<path style="fill:#FF8EDE;" d="M157.381,335.083c-1.562,0.693-3.681,0.044-4.354-1.614c-0.608-1.689,0.558-3.587,2.186-4.101       c1.64-0.498,6.629-0.739,7.129,0.642C162.903,331.38,158.938,334.378,157.381,335.083z"/>
					<path style="fill:#FF8EDE;" d="M163.929,346.14c-1.06,1.342-3.229,1.773-4.589,0.64c-1.331-1.172-1.184-3.412-0.007-4.639       c1.202-1.23,5.449-3.796,6.577-2.813C167.069,340.286,164.979,344.792,163.929,346.14z"/>
					<path style="fill:#FF8EDE;" d="M120.683,330.515c-1.711,0.232-3.526-0.693-3.807-2.085c-0.245-1.4,1.149-2.905,2.815-3.305       c1.657-0.416,6.67-0.105,6.968,1.579C126.985,328.38,122.363,330.303,120.683,330.515z"/>
					<path style="fill:#FF8EDE;" d="M121.358,340.907c-1.709-0.038-3.431-1.226-3.437-2.645c-0.057-1.42,1.569-2.704,3.279-2.836       c1.695-0.148,6.593,0.929,6.652,2.634C127.864,339.767,123.067,340.957,121.358,340.907z"/>
					<path style="fill:#FF8EDE;" d="M120.341,351.245c-1.696-0.328-3.12-1.763-2.941-3.16c0.156-1.401,1.997-2.397,3.7-2.257       c1.705,0.122,6.33,1.969,6.134,3.68C127,351.214,122,351.583,120.341,351.245z"/>
					<path style="fill:#FF8EDE;" d="M117.582,361.236c-1.591-0.625-2.825-2.325-2.371-3.645c0.495-1.307,2.376-1.99,4.041-1.551       c1.65,0.413,5.978,3.075,5.377,4.709C124.068,362.391,119.167,361.877,117.582,361.236z"/>
				</g>
				<g>
					<g>
						<path style="fill:#FFFFFF;" d="M101.438,353.528c-0.044,0.199-2.342,10.612-2.288,10.423c-0.435,1.541-2.582,1.66-3.186,0.162        c-2.992-7.566-0.02-29.733,10.68-41.88c0.636-0.722,1.736-0.792,2.458-0.156C110.992,323.743,108.355,324.008,101.438,353.528        z"/>
						<path style="fill:#FFFFFF;" d="M140.553,324.167c5.297,14.472,7.549,30.619,7.285,32.327c-0.079,0.18,0.009,2.8-2.057,2.479        c-3.091-0.481-10.98-21.705-8.632-34.574c0.32-1.754,2.765-1.97,3.383-0.292L140.553,324.167z"/>
						<path style="fill:#FFFFFF;" d="M171.448,305.5c6.844,6.122,9.978,15.17,10.862,24.384c0.169,1.76,1.24,7.013-0.393,8.188        c-0.798,0.573-1.786,0.437-2.399-0.335c-3.075-4.777-11.481-32.343-10.942-30.442        C168.096,305.604,170.125,304.333,171.448,305.5z"/>
					</g>
				</g>
				<path style="opacity:0.25;fill:#000E3F;" d="M94.191,315.209c-9.964,8.605-17.662,29.764-14.909,45.521      c0.159,0.908,0.553,1.529,1.363,1.986c11.089,6.302,18.398,7.732,25.783,8.291c14.063,1.06,31.653-2.529,46.407-10.532      c14.129-7.663,25.965-18.65,40.869-25.307c10.984-4.907,28.639-9.06,41.915-6.523c0.577,0.112,0.636,0.082,0.855-0.423      c0.217-0.487,0.407-0.977,0.579-1.478c-8.134-10.048-24.548-10.547-36.681-7.191c-16.735,4.613-27.156,12.697-38.909,19.134      c-36.147,19.776-34.046,4.547-44.142-7.98c-8.793-10.898-17.097-14.069-22.645-15.866      C94.521,314.938,94.364,315.063,94.191,315.209z"/>
			</g>
			<path style="fill:#000E3F;" d="M111.495,373.351c-1.77,0-3.515-0.063-5.229-0.192c-8.04-0.607-15.653-2.295-26.688-8.566     c-1.333-0.752-2.15-1.927-2.424-3.49l0,0c-3.274-18.744,7.562-42.507,16.367-48.085c1.686-1.009,3.063-0.572,5.145,0.091     c2.274,0.721,6.08,1.932,13.939,3.11c22.351,3.34,31.254-1.791,43.568-8.904c8.44-4.876,18.943-10.941,36.292-15.447     c8.866-2.309,18.227-4.075,26.578-1.393c7.283,2.335,13.986,8.424,17.925,16.285c3.536,7.056,4.29,14.402,2.126,20.686     c-0.623,1.803-1.307,3.838-3.815,3.332c-12.744-2.433-30.015,1.592-40.694,6.358c-8.278,3.7-15.789,8.901-23.053,13.932     c-5.632,3.901-11.456,7.937-17.667,11.304C140.934,369.386,125.462,373.351,111.495,373.351z M81.407,360.359     c0.061,0.344,0.115,0.377,0.297,0.48c10.377,5.895,17.215,7.438,24.885,8.016c14.245,1.077,31.552-2.864,45.219-10.276     c6.002-3.255,11.728-7.222,17.266-11.058c7.426-5.143,15.103-10.461,23.749-14.323c11.339-5.063,28.582-9.07,42.09-6.869     c0.03-0.089,0.066-0.185,0.101-0.288c1.782-5.175,1.105-11.337-1.906-17.346c-3.379-6.745-9.274-12.152-15.384-14.11     c-7.309-2.347-15.932-0.686-24.173,1.462c-16.782,4.358-26.578,10.016-35.219,15.006c-12.585,7.267-22.519,13.002-46.369,9.433     c-8.197-1.227-12.365-2.553-14.604-3.264c-0.663-0.211-1.347-0.426-1.656-0.475C89.07,321.139,78.341,342.811,81.407,360.359     L81.407,360.359z"/>
		</g>
		<g>
			<g>
				<path style="fill:#00D5FE;" d="M307.842,362.199c-19.431,34.294-63.13,46.383-97.44,26.943c-0.627-0.356-1.254-0.711-1.846-1.09      c-24.876-15.054-38.28-44.549-33.345-73.372c0.313-1.783,0.695-3.572,1.125-5.333c1.291-5.086,3.153-10.024,5.536-14.732      c11.999-23.6,35.87-38.577,62.313-39.132l96.25-169.87c9.926-17.519,32.243-23.679,49.746-13.762      c1.237,0.701,2.387,1.44,3.451,2.216c15.083,10.878,19.403,31.522,10.075,47.984l-95.997,169.425      C320.16,313.305,320.226,340.342,307.842,362.199z"/>
				<path style="fill:#6280FF;" d="M299.215,357.311c-8.103,14.301-21.306,24.603-37.163,28.976      c-15.842,4.382-32.461,2.331-46.762-5.772c-0.528-0.299-1.056-0.598-1.566-0.931c-22.119-13.382-32.956-38.983-28.694-63.349      c0.322-1.8,0.703-3.589,1.196-5.38c1.065-3.995,2.55-7.925,4.489-11.73c10.364-20.408,30.995-33.321,53.872-33.738      c3.408-0.052,6.383-1.766,7.972-4.57l31.248-55.15l30.926,1.842l15.328,24.365l-31.155,54.985      c-1.626,2.87-1.664,6.358-0.08,9.063C309.808,314.806,309.972,338.324,299.215,357.311z"/>
				<g>
					<path style="fill:#FF8EDE;" d="M267.107,319.602c-1.016-4.141,3.086-6.45,7.177-5.739c6.341,1.102,10.719,5.513,11.562,9.057       C288.108,332.429,269.572,329.648,267.107,319.602z"/>
					<path style="fill:#FF8EDE;" d="M240.915,304.762c4.074-1.257,3.947-5.962,1.234-9.106c-4.204-4.873-10.238-6.362-13.712-5.263       C219.119,293.339,231.031,307.81,240.915,304.762z"/>
				</g>
				<path style="fill:#FFFFFF;" d="M395.061,117.163l-64.997,114.713l-46.25-26.205l65.254-115.166      c7.227-12.755,23.472-17.249,36.228-10.022c0.862,0.488,1.719,1.035,2.54,1.623C398.781,90.029,401.899,105.095,395.061,117.163      z"/>
				<path style="opacity:0.25;fill:#322BBF;" d="M307.842,362.199c-19.431,34.294-63.13,46.383-97.44,26.943      c-0.627-0.356-1.254-0.711-1.846-1.09c-24.876-15.054-38.28-44.549-33.345-73.372c0.313-1.783,0.695-3.572,1.125-5.333      c0.23-0.022,0.461-0.044,0.673-0.033c3.314,0.112,6.376,0.671,9.217,1.54c-0.493,1.791-0.874,3.58-1.196,5.38      c-4.262,24.367,6.576,49.967,28.694,63.349c0.51,0.332,1.037,0.631,1.566,0.931c14.301,8.103,30.921,10.154,46.762,5.772      c15.858-4.373,29.06-14.674,37.163-28.976c10.758-18.986,10.594-42.505-0.389-61.388c-1.584-2.706-1.546-6.193,0.08-9.063      l58.424-103.113c0.932-0.3,1.863-0.557,2.807-0.763c3.143-0.703,6.381-0.917,9.649-1.07l-62.079,109.563      C320.16,313.305,320.226,340.342,307.842,362.199z"/>
				<path style="opacity:0.25;fill:#000E3F;" d="M262.051,386.286c-15.842,4.382-32.461,2.331-46.762-5.772      c-0.528-0.299-1.056-0.598-1.566-0.931c-22.119-13.382-32.956-38.983-28.694-63.349c0.322-1.8,0.703-3.589,1.196-5.38      c22.768,7.083,32.106,35.907,56.766,39.726c23.655,3.664,41.467-13.503,40.014-36.393c-1.39-21.888,4.124-41.273,13.692-61.005      c11.066-22.8,22.682-46.878,44.54-61.188c4.851-3.178,10.413-6.455,16.093-8.249l-58.424,103.113      c-1.626,2.87-1.664,6.358-0.08,9.063C318.888,330.417,301.413,375.433,262.051,386.286z"/>
			</g>
			<g>
				<g>
					<path style="fill:#000E3F;" d="M375.864,137.843c-0.361,0-0.726-0.091-1.061-0.281l-29.102-16.489       c-1.038-0.588-1.403-1.904-0.815-2.941c0.588-1.04,1.911-1.401,2.941-0.815l29.102,16.489c1.037,0.588,1.403,1.904,0.815,2.941       C377.347,137.449,376.616,137.843,375.864,137.843z"/>
					<path style="fill:#000E3F;" d="M368.136,152.383c-0.361,0-0.726-0.091-1.061-0.281l-18.791-10.648       c-1.037-0.588-1.403-1.906-0.815-2.941c0.59-1.04,1.906-1.4,2.941-0.815l18.791,10.648c1.037,0.588,1.403,1.907,0.815,2.941       C369.619,151.99,368.888,152.383,368.136,152.383z"/>
					<path style="fill:#000E3F;" d="M359.635,166.484c-0.361,0-0.726-0.091-1.061-0.281l-29.102-16.489       c-1.037-0.588-1.403-1.904-0.815-2.941c0.588-1.04,1.909-1.4,2.941-0.815l29.102,16.489c1.037,0.588,1.403,1.904,0.815,2.941       C361.118,166.09,360.387,166.484,359.635,166.484z"/>
					<path style="fill:#000E3F;" d="M351.91,181.024c-0.361,0-0.726-0.091-1.061-0.281l-18.793-10.648       c-1.038-0.588-1.403-1.904-0.815-2.941c0.588-1.04,1.911-1.4,2.941-0.815l18.794,10.648c1.037,0.588,1.403,1.904,0.815,2.941       C353.392,180.631,352.661,181.024,351.91,181.024z"/>
					<path style="fill:#000E3F;" d="M343.406,195.125c-0.361,0-0.726-0.091-1.061-0.281l-29.1-16.489       c-1.037-0.588-1.403-1.907-0.815-2.941c0.588-1.04,1.911-1.4,2.941-0.815l29.1,16.489c1.037,0.588,1.403,1.906,0.815,2.941       C344.889,194.731,344.158,195.125,343.406,195.125z"/>
					<path style="fill:#000E3F;" d="M335.681,209.665c-0.361,0-0.726-0.091-1.061-0.281l-18.791-10.648       c-1.038-0.588-1.403-1.906-0.815-2.941c0.59-1.04,1.906-1.398,2.941-0.815l18.791,10.648c1.038,0.588,1.403,1.906,0.815,2.941       C337.163,209.272,336.432,209.665,335.681,209.665z"/>
					<path style="fill:#000E3F;" d="M327.18,223.765c-0.361,0-0.726-0.091-1.061-0.281l-29.102-16.489       c-1.037-0.588-1.403-1.904-0.815-2.941c0.59-1.04,1.911-1.403,2.941-0.815l29.102,16.489c1.037,0.588,1.403,1.904,0.815,2.941       C328.662,223.372,327.931,223.765,327.18,223.765z"/>
					<path style="fill:#000E3F;" d="M319.454,238.306c-0.361,0-0.726-0.091-1.061-0.281L299.6,227.376       c-1.037-0.588-1.403-1.904-0.815-2.941c0.59-1.04,1.906-1.398,2.941-0.815l18.793,10.648c1.037,0.588,1.403,1.904,0.815,2.941       C320.936,237.913,320.206,238.306,319.454,238.306z"/>
					<path style="fill:#000E3F;" d="M310.951,252.406c-0.361,0-0.726-0.091-1.061-0.281l-29.102-16.489       c-1.038-0.588-1.403-1.904-0.815-2.941c0.588-1.04,1.909-1.398,2.941-0.815l29.102,16.489c1.037,0.588,1.403,1.904,0.815,2.941       C312.433,252.013,311.702,252.406,310.951,252.406z"/>
					<path style="fill:#000E3F;" d="M303.225,266.947c-0.361,0-0.726-0.091-1.061-0.281l-18.794-10.646       c-1.037-0.588-1.403-1.904-0.815-2.941c0.59-1.04,1.911-1.398,2.941-0.815l18.794,10.646c1.037,0.588,1.403,1.904,0.815,2.941       C304.707,266.553,303.977,266.947,303.225,266.947z"/>
					<path style="fill:#000E3F;" d="M294.724,281.049c-0.361,0-0.726-0.091-1.061-0.281l-29.102-16.489       c-1.038-0.588-1.403-1.904-0.815-2.941c0.59-1.04,1.911-1.398,2.941-0.815l29.102,16.489c1.037,0.588,1.403,1.904,0.815,2.941       C296.206,280.656,295.476,281.049,294.724,281.049z"/>
				</g>
				<path style="fill:#000E3F;" d="M245.484,400.603c-12.552,0.002-24.943-3.234-36.142-9.58c-0.656-0.372-1.309-0.742-1.934-1.133      c-25.617-15.508-39.418-45.887-34.317-75.579c1.227-7.178,3.534-14.133,6.855-20.667c12.173-23.939,36.219-39.287,62.963-40.287      l95.648-168.808c10.51-18.547,34.158-25.079,52.694-14.578c1.309,0.742,2.541,1.534,3.663,2.353      c15.948,11.522,20.536,33.362,10.658,50.793L310.178,291.48c12.22,22.28,12.077,49.668-0.452,71.78      c-9.681,17.089-25.468,29.39-44.448,34.638C258.737,399.709,252.088,400.603,245.484,400.603z M372.251,69.271      c-11.976,0-23.625,6.262-29.938,17.404l-96.248,169.866c-0.375,0.663-1.073,1.08-1.834,1.093      c-25.643,0.534-48.802,15.082-60.438,37.964c-3.122,6.147-5.293,12.688-6.449,19.44c-4.801,27.962,8.189,56.563,32.322,71.174      c0.602,0.372,1.204,0.714,1.805,1.054c16.086,9.119,34.786,11.407,52.657,6.473c17.868-4.941,32.73-16.522,41.842-32.606      c11.986-21.154,11.93-47.434-0.143-68.59c-0.377-0.66-0.379-1.473-0.005-2.134l95.992-169.419      c8.791-15.515,4.733-34.936-9.44-45.174c-0.995-0.728-2.087-1.428-3.251-2.089C383.792,70.706,377.981,69.271,372.251,69.271z"/>
				<path style="fill:#000E3F;" d="M250.958,285.689c-1.799,3.197-5.47,4.149-8.523,2.494c-3.085-1.672-4.159-5.737-2.52-8.546      c1.772-3.036,5.439-4.085,8.528-2.381C251.598,278.995,252.688,282.653,250.958,285.689z"/>
				<path style="fill:#000E3F;" d="M280.384,309.72c-2.783-1.482-3.909-5.802-2.264-8.449c1.484-2.387,4.882-4.333,8.6-2.333      C293.803,302.748,288.136,313.848,280.384,309.72z"/>
				<path style="fill:#000E3F;" d="M259.716,310.217c-2.93,0-5.52-1.424-7.011-3.883c-2.525-4.166-1.616-10.417,2.492-17.145      c0.623-1.016,1.953-1.335,2.967-0.719c1.019,0.623,1.339,1.951,0.719,2.967c-3.194,5.227-4.122,9.96-2.487,12.658      c0.766,1.264,2.098,1.895,3.651,1.794c2.642-0.18,6.393-2.508,9.004-8.51c0.478-1.091,1.757-1.588,2.841-1.117      c1.091,0.476,1.593,1.747,1.117,2.841c-2.873,6.604-7.609,10.751-12.672,11.093C260.128,310.21,259.922,310.217,259.716,310.217      z"/>
			</g>
		</g>
		<g>
			<g>
				<path style="fill:#FC09B2;" d="M300.597,387.557c-19.346,4.582-41.232-1.856-59.091-9.094      c-22.358-9.073-42.764-22.302-59.048-40.216c-7.609-8.368-16.164-18.561-18.203-29.677c-0.418-2.284-0.312-4.651,0.229-6.972      c3.036-13.228,19.826-24.953,30.389-11.643c2.314,2.919,6.051,8.975,17.053,19.094c17.883,16.445,39.445,28.58,62.431,36.23      c7.254,2.412,13.484,3.635,18.753,4.491c11.882,1.916,18.884,1.922,21.7,9.302C318.863,369.693,311.832,384.9,300.597,387.557z"/>
				<g>
					<path style="fill:#FF8EDE;" d="M186.775,298.412c-0.881-1.486-0.463-3.678,1.154-4.526c1.645-0.814,3.679,0.168,4.339,1.759       c0.622,1.577,1.344,6.51,0.074,7.142C191.072,303.459,187.652,299.859,186.775,298.412z"/>
					<path style="fill:#FF8EDE;" d="M177.306,305.137c-1.121-1.29-1.125-3.505,0.262-4.636c1.436-1.078,3.593-0.522,4.563,0.882       c0.958,1.421,2.656,6.118,1.483,7.003C182.47,309.326,178.438,306.418,177.306,305.137z"/>
					<path style="fill:#FF8EDE;" d="M169.135,313.337c-1.307-1.103-1.667-3.285-0.491-4.607c1.214-1.293,3.449-1.072,4.637,0.144       c1.191,1.241,3.617,5.57,2.598,6.665C174.884,316.666,170.448,314.43,169.135,313.337z"/>
					<path style="fill:#FF8EDE;" d="M212.423,325.951c-1.036-1.383-0.857-3.606,0.66-4.624c1.547-0.987,3.676-0.229,4.504,1.281       c0.788,1.501,2.037,6.327,0.843,7.092C217.239,330.505,213.451,327.295,212.423,325.951z"/>
					<path style="fill:#FF8EDE;" d="M203.734,333.658c-1.254-1.161-1.496-3.363-0.24-4.637c1.312-1.226,3.516-0.906,4.631,0.385       c1.106,1.309,3.3,5.796,2.229,6.802C209.319,337.265,204.997,334.808,203.734,333.658z"/>
					<path style="fill:#FF8EDE;" d="M196.494,342.69c-1.418-0.956-2.011-3.086-0.985-4.527c1.068-1.416,3.314-1.438,4.626-0.357       c1.318,1.105,4.196,5.148,3.301,6.346C202.569,345.38,197.918,343.635,196.494,342.69z"/>
					<path style="fill:#FF8EDE;" d="M244.838,346.491c-1.399-1.014-1.887-3.19-0.74-4.612c1.186-1.401,3.443-1.309,4.681-0.111       c1.198,1.2,3.821,5.439,2.907,6.524C250.787,349.414,246.217,347.471,244.838,346.491z"/>
					<path style="fill:#FF8EDE;" d="M238.822,356.427c-1.542-0.737-2.426-2.769-1.603-4.358c0.889-1.56,3.089-1.907,4.537-1.004       c1.444,0.923,4.87,4.558,4.145,5.836C245.226,358.217,240.37,357.152,238.822,356.427z"/>
					<path style="fill:#FF8EDE;" d="M234.585,367.2c-1.637-0.493-2.835-2.351-2.282-4.032c0.6-1.669,2.738-2.355,4.312-1.712       c1.586,0.665,5.533,3.673,5.034,5.083C241.184,367.969,236.225,367.681,234.585,367.2z"/>
					<path style="fill:#FF8EDE;" d="M279.905,359.122c-1.601-0.648-2.598-2.644-1.826-4.299c0.814-1.645,3.028-2.097,4.517-1.232       c1.451,0.877,5.015,4.362,4.388,5.635C286.382,360.53,281.479,359.742,279.905,359.122z"/>
					<path style="fill:#FF8EDE;" d="M276.452,370.212c-1.674-0.345-3.02-2.105-2.603-3.846c0.488-1.728,2.54-2.593,4.163-2.065       c1.624,0.549,5.822,3.255,5.425,4.67C283.098,370.412,278.128,370.544,276.452,370.212z"/>
					<path style="fill:#FF8EDE;" d="M274.926,381.687c-1.708-0.085-3.317-1.601-3.184-3.366c0.182-1.764,2.093-2.944,3.775-2.697       c1.699,0.265,6.253,2.236,6.107,3.725C281.516,380.849,276.633,381.76,274.926,381.687z"/>
				</g>
				<g>
					<path style="fill:#FFFFFF;" d="M256.098,377.318c-1.145,1.535-3.613,0.668-3.506-1.289c0.416-6.699,3.378-16.419,5.689-22.805       c1.884-5.195,3.172-7.484,3.086-7.318c0.463-0.9,1.567-1.254,2.468-0.792C267.163,346.826,263.813,366.963,256.098,377.318z"/>
					<path style="fill:#FFFFFF;" d="M216.624,358.15c-1.35,1.323-3.628,0.126-3.266-1.766c1.683-8.472,10.489-20.103,17.822-24.881       c1.492-0.973,3.369,0.547,2.719,2.212C231.001,341.132,215.961,358.935,216.624,358.15z"/>
					<path style="fill:#FFFFFF;" d="M182.24,331.775c-1.658,0.959-3.584-0.816-2.708-2.574c5.05-9.953,15.685-18.296,24.881-20.384       c1.752-0.397,2.972,1.72,1.738,3.036C202.826,315.4,187.445,328.766,182.24,331.775z"/>
					<path style="fill:#FFFFFF;" d="M294.754,385.981c-1.288,1.36-3.593,0.292-3.364-1.582c0.276-2.258,3.73-20.551,3.694-20.355       c1.003-5.501,1.516-7.163,1.467-6.976c0.261-0.984,1.272-1.57,2.256-1.309C302.379,356.709,304.084,376.12,294.754,385.981z"/>
				</g>
				<path style="opacity:0.25;fill:#000E3F;" d="M300.597,387.557c-19.346,4.582-41.232-1.856-59.091-9.094      c-22.358-9.073-42.764-22.302-59.048-40.216c-7.609-8.368-16.164-18.561-18.203-29.677c-0.418-2.284-0.312-4.651,0.229-6.972      c16.022,2.244,28.963,21.591,46.096,36.496c14.206,12.359,46.929,34.079,65.439,27.334c7.831-2.851,6.438-15.512,12.107-18.278      c11.882,1.916,23.867,4.543,26.683,11.923C318.863,369.693,311.832,384.9,300.597,387.557z"/>
			</g>
			<path style="fill:#000E3F;" d="M183.796,284.093c3.893,0,7.785,1.717,11.076,5.862c2.314,2.918,6.051,8.975,17.053,19.094     c17.882,16.445,39.444,28.581,62.43,36.23c7.254,2.413,13.484,3.635,18.754,4.492c11.881,1.916,18.883,1.923,21.699,9.302     c4.054,10.62-2.977,25.828-14.211,28.485c-4.508,1.068-9.158,1.538-13.859,1.538c-15.471,0-31.534-5.08-45.232-10.632     c-22.359-9.072-42.764-22.301-59.048-40.216c-7.609-8.368-16.163-18.56-18.203-29.676c-0.418-2.284-0.313-4.651,0.229-6.972     C166.573,292.49,175.186,284.094,183.796,284.093 M183.798,279.777L183.798,279.777c-10.331,0.002-20.882,9.357-23.522,20.856     c-0.691,2.965-0.782,5.902-0.267,8.715c2.146,11.7,10.523,22.2,19.256,31.803c15.973,17.572,36.368,31.472,60.619,41.312     c18.176,7.367,33.502,10.948,46.855,10.948c5.223,0,10.221-0.556,14.854-1.653c6.219-1.471,11.782-6.082,15.26-12.65     c3.72-7.026,4.464-15.091,1.989-21.574c-3.353-8.787-11.025-9.925-20.74-11.367c-1.355-0.201-2.79-0.414-4.304-0.658     c-4.616-0.75-10.847-1.921-18.079-4.326c-23.038-7.667-44.087-19.877-60.87-35.311c-8.786-8.081-12.762-13.459-15.138-16.672     c-0.553-0.747-1.027-1.387-1.454-1.926C193.337,281.077,187.679,279.777,183.798,279.777L183.798,279.777z"/>
		</g>
		<g>
			<g>
				<g>
					<path style="fill:#6280FF;" d="M239.578,497.309c-0.954-2.455-1.972-6.065,0.657-6.241c1.319-0.089,3.444,2.208,4.337,3.195       c4.191,4.768,6.541,10.543,6.358,10.114c0.364,0.858-0.037,1.85-0.896,2.215C247.972,507.467,242.181,503.746,239.578,497.309z       "/>
					<path style="fill:#6280FF;" d="M286.581,471.518c8.129,5.345,10.127,15.207,1.218,9.382c-3.691-2.497-9.621-9.979-5.755-11.068       C282.363,469.743,285.59,470.89,286.581,471.518z"/>
					<path style="fill:#6280FF;" d="M282.333,483.053c2.672,3.771,2.83,7.083,2.758,6.832c0.119,1.435-1.356,2.474-2.677,1.86       c-4.006-1.885-7.826-7.515-8.144-11.898c-0.099-1.353,1.296-2.294,2.504-1.737C276.775,478.11,279.633,479.235,282.333,483.053       z"/>
					<path style="fill:#6280FF;" d="M258.408,492.36c7.45,7.158,7.251,16.952-0.381,9.594       C251.18,495.151,250.219,484.742,258.408,492.36z"/>
					<path style="fill:#6280FF;" d="M268.571,496.062c-4.303-3.842-7.096-11.552-3.361-11.605c0.306-0.004,0.595,0.07,0.848,0.203       C276.27,491.4,276.876,503.238,268.571,496.062z"/>
				</g>
				<path style="fill:#FC09B2;" d="M282.567,469.922c-6.952,11.18-26.658,22.072-42.651,21.802      c-0.922-0.016-1.597-0.309-2.174-1.038c-7.949-9.975-10.497-16.973-12.197-24.182c-3.232-13.727-2.42-31.662,3.192-47.48      c5.375-15.148,14.389-28.547,18.649-44.305c3.14-11.613,4.5-29.699-0.07-42.42c-0.2-0.553-0.18-0.615,0.285-0.911      c0.447-0.29,0.902-0.553,1.37-0.802c12.282-6.515,30.61,1.026,36.7,13.126c3.805,7.553,3.343,17.118,2.533,25.287      c-3.165,32.152-13.409,39.8-15.057,57.068c-0.847,8.944,0.823,17.953,3.502,26.468c4.424,14.067,6.984,14.922,6.206,16.849      C282.783,469.553,282.684,469.728,282.567,469.922z"/>
				<g>
					<path style="fill:#FFFFFF;" d="M272.444,458.792c-13.674,13.297-42.52,15.791-40.705,10.259       c0.162-0.495,0.545-0.853,1.005-1.005c4.665-1.542,5.485-0.488,37.924-11.957l0.034-0.012c0.851-0.311,1.802,0.125,2.125,0.974       C273.064,457.678,272.892,458.356,272.444,458.792z"/>
					<path style="fill:#FFFFFF;" d="M231.621,423.82c0.933-1.826,7.374-1.431,9.86-1.387c13.847,0.136,25.016,2.524,24.483,2.422       c0.915,0.176,1.514,1.06,1.338,1.975C266.257,432.282,228.707,429.539,231.621,423.82z"/>
					<path style="fill:#FFFFFF;" d="M247.875,390.775c-7.162-3.117,17.563-8.886,31.177,2.301c1.251,1.029,0.336,3.156-1.286,2.984       C277.586,396.041,252.188,392.652,247.875,390.775z"/>
					<path style="fill:#FFFFFF;" d="M261.267,353.607c-6.282-1.281-7.577-1.701-7.404-1.654c-1.753-0.475-1.777-2.952-0.045-3.476       c9.415-2.812,23.097,0.107,30.591,7.197c0.682,0.646,0.712,1.722,0.066,2.405C283.243,359.383,283.872,358.475,261.267,353.607       z"/>
				</g>
				<g>
					<path style="fill:#FF8EDE;" d="M259.543,369.985c0.017,1.707-1.2,3.428-2.722,3.56c-1.521,0.122-3.002-1.407-3.256-3.096       c-0.279-1.686,0.632-6.663,2.553-6.813C258.035,363.476,259.546,368.276,259.543,369.985z"/>
					<path style="fill:#FF8EDE;" d="M270.814,371.087c-0.192,0.833-0.701,1.588-1.322,2.093c-0.634,0.543-1.386,0.856-2.131,0.729       c-1.463-0.283-2.571-2.009-2.435-3.745c0.101-1.671,2.118-6.419,4.058-6.055c0.94,0.159,1.551,1.474,1.816,2.962       C271.066,368.592,271.006,370.255,270.814,371.087z"/>
					<path style="fill:#FF8EDE;" d="M246.54,408.809c0.017,1.707-1.199,3.428-2.722,3.559c-1.521,0.122-3.003-1.406-3.256-3.096       c-0.278-1.685,0.632-6.663,2.553-6.813C245.032,402.301,246.542,407.101,246.54,408.809z"/>
					<path style="fill:#FF8EDE;" d="M257.811,409.912c-0.193,0.832-0.702,1.587-1.323,2.092c-0.635,0.543-1.385,0.856-2.131,0.729       c-1.463-0.283-2.57-2.008-2.435-3.746c0.101-1.67,2.118-6.419,4.057-6.055c0.941,0.16,1.552,1.475,1.816,2.963       C258.062,407.417,258.002,409.079,257.811,409.912z"/>
					<path style="fill:#FF8EDE;" d="M268.255,414.014c-0.908,1.498-2.746,2.267-4.079,1.697c-1.323-0.591-1.808-2.699-1.245-4.269       c0.565-1.661,3.757-5.494,5.602-4.662c0.901,0.37,1.08,1.896,0.89,3.411C269.237,411.716,268.686,413.277,268.255,414.014z"/>
					<path style="fill:#FF8EDE;" d="M236.712,449.694c0.466,1.663-0.2,3.588-1.539,4.058c-1.352,0.436-3.036-0.737-3.662-2.331       c-0.641-1.583-1.026-6.591,0.601-7.12C233.727,443.747,236.27,448.06,236.712,449.694z"/>
					<path style="fill:#FF8EDE;" d="M246.91,447.59c0.199,1.698-0.74,3.568-2.145,3.769c-1.398,0.252-2.895-1.18-3.262-2.856       c-0.381-1.658,0.009-6.659,1.69-6.952C244.883,441.304,246.724,445.891,246.91,447.59z"/>
					<path style="fill:#FF8EDE;" d="M257.291,447.169c-0.09,1.725-1.315,3.333-2.723,3.35c-1.41,0.039-2.65-1.646-2.746-3.352       c-0.115-1.705,1.076-6.541,2.797-6.583C256.339,440.578,257.396,445.479,257.291,447.169z"/>
					<path style="fill:#FF8EDE;" d="M267.567,448.52c-0.399,1.662-1.912,3.119-3.283,2.853c-1.363-0.31-2.299-2.079-2.095-3.788       c0.181-1.691,2.219-6.345,3.92-5.975C267.814,441.937,267.982,446.863,267.567,448.52z"/>
					<path style="fill:#FF8EDE;" d="M281.258,375.19c-0.908,1.497-2.746,2.266-4.079,1.698c-1.323-0.591-1.808-2.7-1.245-4.269       c0.565-1.661,3.757-5.494,5.602-4.661c0.9,0.37,1.08,1.896,0.889,3.41C282.241,372.891,281.69,374.452,281.258,375.19z"/>
				</g>
				<path style="opacity:0.25;fill:#000E3F;" d="M282.567,469.922c-6.952,11.18-26.658,22.072-42.651,21.802      c-0.922-0.016-1.597-0.309-2.174-1.038c-7.949-9.975-10.497-16.973-12.197-24.182c-3.232-13.727-2.42-31.662,3.192-47.48      c5.375-15.148,14.389-28.547,18.649-44.305c3.14-11.613,4.5-29.699-0.07-42.42c-0.2-0.553-0.18-0.615,0.285-0.911      c0.447-0.29,0.902-0.553,1.37-0.802c11.19,6.474,14.233,22.611,12.804,35.118c-1.957,17.249-8.322,28.799-12.855,41.41      c-13.919,38.781,0.799,34.339,14.743,42.366c12.132,6.993,16.555,14.703,19.192,19.904      C282.783,469.553,282.684,469.728,282.567,469.922z"/>
			</g>
			<path style="fill:#000E3F;" d="M240.475,493.889c-0.199,0-0.398-0.003-0.597-0.007c-1.614-0.028-2.867-0.637-3.831-1.859     c-7.901-9.918-10.754-17.178-12.602-25.023c-3.503-14.868-2.285-33.074,3.258-48.696c2.363-6.656,5.442-13.035,8.419-19.203     c3.841-7.958,7.815-16.189,10.18-24.943c3.054-11.288,4.351-28.971-0.014-41.125c-0.543-1.487-0.166-2.623,1.154-3.464     c0.485-0.314,0.993-0.609,1.517-0.885c5.871-3.117,13.241-3.513,20.768-1.112c8.379,2.67,15.433,8.342,18.87,15.175     c3.951,7.838,3.658,17.353,2.754,26.47c-1.852,18.819-6.182,29.606-9.66,38.275c-2.536,6.316-4.726,11.77-5.396,18.782     c-0.724,7.639,0.393,16.018,3.412,25.618c2.384,7.578,4.171,11.15,5.236,13.283c0.981,1.96,1.628,3.255,0.911,5.023     c-0.124,0.293-0.267,0.553-0.44,0.841c-0.005,0.007-0.009,0.016-0.014,0.026C276.769,483.334,256.381,493.889,240.475,493.889z      M249.714,332.64c4.265,13.114,2.988,30.692-0.244,42.643c-2.473,9.143-6.534,17.557-10.461,25.693     c-2.927,6.065-5.955,12.337-8.236,18.77c-5.199,14.65-6.398,32.378-3.126,46.266c1.763,7.487,4.349,13.999,11.784,23.329     c0.136,0.171,0.173,0.22,0.522,0.227c0.187,0.002,0.375,0.005,0.562,0.005c15.653,0,34.041-10.868,40.212-20.779     c0.059-0.094,0.11-0.178,0.148-0.26c-0.003,0-0.003,0-0.003,0c-0.072,0-0.435-0.726-0.787-1.428     c-1.051-2.101-3.007-6.014-5.494-13.918c-3.197-10.161-4.37-19.098-3.59-27.322c0.726-7.634,3.023-13.358,5.684-19.983     c3.553-8.85,7.581-18.882,9.372-37.09c0.838-8.47,1.141-17.25-2.314-24.104c-2.885-5.733-9.14-10.714-16.327-13.004     c-6.405-2.042-12.599-1.752-17.433,0.812C249.892,332.544,249.803,332.591,249.714,332.64z M282.567,469.922h0.023H282.567z"/>
		</g>
	</g>
	<g>
		<path style="fill:#6280FF;" d="M82.775,243.042c0.212-0.988,0.492-2.368,0.808-3.74c0.514-2.23,1.024-4.462,1.594-6.678    c0.262-1.018,0.548-2.063,1.035-2.983c0.588-1.111,0.639-2.065,0.091-3.221c-1.47-3.101-2.822-6.259-4.229-9.391    c-0.721-1.605-1.445-3.21-2.195-4.802c-0.254-0.54-0.697-0.535-0.956,0.017c-0.786,1.674-1.546,3.36-2.301,5.047    c-1.403,3.134-2.774,6.283-4.209,9.402c-0.403,0.875-0.482,1.657,0.003,2.504c0.709,1.241,0.979,2.618,1.283,4.003    c0.641,2.923,1.416,5.817,2.122,8.727c0.145,0.597,0.307,1.207,0.319,1.814c0.029,1.44-1.06,2.761-2.439,3.072    c-1.115,0.251-2.406-0.387-3.075-1.586c-0.519-0.931-0.735-1.972-0.967-3.006c-0.384-1.718-0.802-3.428-1.229-5.135    c-0.033-0.131-0.241-0.287-0.381-0.301c-0.127-0.013-0.337,0.121-0.398,0.245c-1.115,2.295-2.217,4.598-3.314,6.902    c-0.459,0.964-1.027,1.848-1.812,2.579c-0.763,0.711-1.599,1.081-2.636,0.577c-1.101-0.535-1.8-1.613-1.529-2.789    c0.294-1.28,0.773-2.522,1.233-3.757c0.615-1.649,1.295-3.274,1.933-4.915c0.098-0.252,0.049-0.541-0.223-0.659    c-0.132-0.057-0.356,0-0.496,0.08c-1.831,1.055-3.644,2.141-5.486,3.177c-0.687,0.386-1.417,0.727-2.165,0.971    c-1.117,0.364-2.313-0.051-2.776-0.939c-0.493-0.946-0.405-1.922,0.29-2.718c0.632-0.724,1.353-1.391,2.116-1.976    c3.776-2.9,7.793-5.456,11.788-8.037c1.469-0.949,2.467-2.086,3.143-3.712c1.521-3.657,3.219-7.239,4.844-10.853    c0.109-0.242,0.212-0.516-0.071-0.69c-0.123-0.075-0.343-0.063-0.491-0.011c-0.58,0.205-1.157,0.421-1.72,0.67    c-3.06,1.351-6.103,2.745-9.179,4.057c-1.596,0.681-2.835,1.664-3.732,3.181c-2.333,3.945-5.007,7.667-7.739,11.343    c-0.679,0.914-1.461,1.77-2.298,2.542c-0.957,0.884-1.888,1.007-2.638,0.545c-1.083-0.666-1.48-1.653-1.06-2.938    c0.271-0.83,0.664-1.625,1.05-2.413c0.27-0.552,0.65-1.049,0.925-1.599c0.759-1.521,2.082-2.753,2.33-4.536    c-1.786,0.189-3.215,1.32-4.875,1.849c-1.173,0.374-2.314,0.847-3.478,1.251c-0.414,0.143-0.849,0.274-1.282,0.304    c-1.182,0.081-2.02-0.504-2.577-1.505c-0.5-0.899-0.153-1.71,0.356-2.468c0.505-0.753,1.249-1.235,2.043-1.633    c1.655-0.827,3.321-1.632,4.977-2.456c0.867-0.431,1.729-0.872,2.58-1.333c0.115-0.062,0.237-0.296,0.204-0.405    c-0.042-0.14-0.22-0.299-0.369-0.338c-1.789-0.463-3.585-0.896-5.375-1.356c-0.767-0.197-1.554-0.364-2.276-0.676    c-1.483-0.642-2.171-2.046-1.772-3.415c0.45-1.548,1.805-2.517,3.436-2.202c2.505,0.483,4.984,1.104,7.463,1.712    c2.304,0.566,4.667,0.946,6.815,2.044c0.76,0.388,1.535,0.314,2.296-0.029c0.963-0.434,1.924-0.872,2.889-1.303    c3.777-1.689,7.557-3.371,11.329-5.07c0.302-0.136,0.716-0.307,0.601-0.74c-0.055-0.21-0.347-0.361-0.538-0.53    c-0.065-0.057-0.15-0.094-0.23-0.13c-3.696-1.655-7.373-3.357-11.1-4.938c-1.291-0.548-2.47-1.42-3.895-1.596    c-1.395-0.172-2.445,0.896-3.735,1.189c-3.863,0.878-7.709,1.834-11.562,2.754c-0.255,0.061-0.52,0.107-0.781,0.109    c-1.401,0.01-2.543-0.84-2.967-2.191c-0.407-1.295,0.129-2.643,1.454-3.328c0.694-0.359,1.481-0.557,2.245-0.755    c1.959-0.509,3.931-0.97,5.892-1.47c0.23-0.059,0.426-0.246,0.638-0.374c-0.22-0.139-0.43-0.298-0.661-0.412    c-2.371-1.167-4.751-2.317-7.116-3.496c-0.786-0.392-1.576-0.794-2.182-1.465c-0.874-0.966-1.127-2.031-0.639-2.885    c0.629-1.103,1.599-1.637,2.859-1.483c0.602,0.074,1.2,0.282,1.768,0.51c2.043,0.819,4.071,1.676,6.108,2.509    c0.403,0.165,0.82,0.294,1.235,0.424c0.067,0.021,0.205-0.016,0.231-0.067c0.07-0.139,0.177-0.337,0.127-0.446    c-0.18-0.398-0.413-0.773-0.636-1.15c-0.986-1.668-2.001-3.318-2.95-5.007c-0.384-0.683-0.646-1.439-0.926-2.177    c-0.365-0.962,0.045-1.716,0.73-2.359c0.843-0.793,1.71-0.874,2.611-0.161c1.18,0.933,2.214,2.038,3.066,3.268    c2.554,3.694,5.075,7.413,7.548,11.162c0.747,1.132,1.547,2.096,2.83,2.655c3.39,1.478,6.752,3.018,10.131,4.519    c0.56,0.249,1.144,0.454,1.733,0.621c0.295,0.084,0.563-0.116,0.44-0.437c-0.41-1.067-0.854-2.122-1.315-3.169    c-1.313-2.981-2.652-5.95-3.955-8.935c-0.365-0.837-0.895-1.466-1.672-1.969c-2.588-1.677-5.161-3.378-7.697-5.13    c-2.027-1.4-3.998-2.883-5.984-4.342c-0.641-0.471-1.243-1.003-1.617-1.72c-0.436-0.837-0.477-1.702,0.089-2.497    c0.57-0.799,1.409-1.079,2.333-0.852c0.675,0.166,1.34,0.448,1.951,0.786c1.925,1.067,3.822,2.184,5.731,3.281    c0.294,0.169,0.611,0.451,0.925,0.126c0.287-0.298,0.074-0.662-0.051-0.978c-0.584-1.473-1.203-2.933-1.765-4.414    c-0.437-1.151-0.843-2.317-1.199-3.495c-0.342-1.135,0.061-2.082,0.948-2.82c0.847-0.706,1.776-0.75,2.674-0.112    c0.955,0.677,1.628,1.593,2.128,2.648c1.093,2.306,2.401,4.51,3.295,6.913c0.085,0.228,0.314,0.551,0.496,0.565    c0.428,0.033,0.516-0.381,0.594-0.722c0.414-1.802,0.799-3.611,1.242-5.405c0.21-0.85,0.39-1.722,0.895-2.473    c0.779-1.159,2.048-1.723,3.162-1.395c1.393,0.411,2.381,1.741,2.282,3.177c-0.042,0.609-0.212,1.212-0.353,1.81    c-0.785,3.343-1.56,6.688-2.382,10.022c-0.188,0.762-0.457,1.533-0.844,2.212c-0.636,1.116-0.523,2.102,0.012,3.236    c1.539,3.264,2.973,6.578,4.452,9.871c0.649,1.446,1.297,2.891,1.967,4.327c0.172,0.368,0.62,0.349,0.825-0.017    c0.214-0.383,0.413-0.777,0.592-1.178c1.976-4.42,3.92-8.856,5.938-13.257c0.442-0.963,0.597-1.791,0.015-2.727    c-0.564-0.908-0.772-1.953-1.015-2.986c-0.687-2.914-1.429-5.814-2.134-8.724c-0.186-0.769-0.352-1.547-0.46-2.329    c-0.235-1.702,0.56-2.917,2.173-3.402c1.29-0.388,2.805,0.36,3.449,1.778c0.252,0.553,0.367,1.171,0.514,1.767    c0.528,2.137,1.041,4.277,1.571,6.413c0.035,0.141,0.158,0.259,0.239,0.387c0.12-0.12,0.298-0.219,0.353-0.364    c1.003-2.644,2.438-5.079,3.642-7.626c0.418-0.884,0.92-1.705,1.691-2.333c0.74-0.603,1.524-0.818,2.449-0.412    c0.971,0.427,1.569,1.097,1.664,2.181c0.072,0.821-0.187,1.577-0.476,2.31c-0.777,1.965-1.612,3.906-2.394,5.869    c-0.256,0.643-0.421,1.322-0.627,1.984c0.908,0.252,1.361-0.552,1.997-0.897c1.702-0.923,3.356-1.934,5.042-2.889    c0.69-0.391,1.404-0.739,2.221-0.791c0.952-0.062,1.752,0.223,2.265,1.059c0.527,0.858,0.36,1.707-0.215,2.464    c-0.806,1.059-1.814,1.927-2.882,2.706c-1.708,1.246-3.439,2.458-5.187,3.648c-2.185,1.487-4.38,2.961-6.602,4.39    c-1.074,0.691-1.82,1.54-2.332,2.75c-1.579,3.729-3.286,7.404-4.941,11.1c-0.107,0.241-0.2,0.488-0.285,0.738    c-0.025,0.075-0.027,0.178,0.003,0.249c0.085,0.193,0.247,0.251,0.445,0.165c1.049-0.458,2.099-0.914,3.144-1.382    c2.893-1.296,5.775-2.616,8.679-3.887c1.175-0.515,2.03-1.311,2.73-2.383c2.024-3.097,4.09-6.168,6.185-9.218    c0.946-1.377,1.964-2.71,3.022-4.003c0.494-0.603,1.117-1.126,1.759-1.576c0.713-0.499,1.503-0.426,2.235,0.049    c0.727,0.473,1.107,1.158,1.002,2.015c-0.128,1.055-0.494,2.042-1.051,2.961c-1.003,1.657-1.985,3.328-2.97,4.996    c-0.215,0.363-0.697,0.775-0.406,1.153c0.442,0.573,0.956-0.006,1.404-0.181c1.805-0.704,3.59-1.458,5.394-2.165    c0.736-0.288,1.485-0.58,2.255-0.74c1.354-0.282,2.684,0.344,3.146,1.378c0.454,1.014,0.174,2.155-0.901,3.063    c-1.422,1.201-3.076,2.039-4.771,2.796c-1.366,0.61-2.727,1.233-4.076,1.879c-0.271,0.13-0.734,0.237-0.578,0.675    c0.066,0.187,0.406,0.335,0.647,0.392c1.798,0.428,3.604,0.822,5.404,1.241c0.6,0.14,1.202,0.287,1.782,0.492    c1.779,0.628,2.543,2.013,2.078,3.706c-0.408,1.482-1.853,2.428-3.485,2.042c-4.705-1.113-9.516-1.838-14.02-3.706    c-1.071-0.444-2.048-0.237-3.048,0.236c-1.671,0.79-3.369,1.525-5.05,2.294c-2.802,1.283-5.608,2.557-8.395,3.872    c-0.787,0.371-0.787,0.948,0,1.318c2.788,1.312,5.593,2.59,8.401,3.86c1.764,0.798,3.549,1.55,5.317,2.341    c1.107,0.495,2.167,0.591,3.285-0.028c1.324-0.733,2.824-0.969,4.276-1.327c2.992-0.738,5.969-1.547,8.981-2.194    c2.235-0.48,3.926,1,3.83,3.148c-0.058,1.303-0.739,2.184-1.931,2.561c-1.424,0.45-2.893,0.763-4.348,1.115    c-0.94,0.228-1.895,0.398-2.832,0.639c-0.324,0.083-0.832,0.262-0.872,0.472c-0.103,0.528,0.477,0.616,0.834,0.787    c2.066,0.985,4.141,1.951,6.215,2.918c0.969,0.452,1.833,1.048,2.576,1.818c0.801,0.831,1.138,1.783,0.664,2.892    c-0.414,0.97-1.67,1.592-2.892,1.389c-0.689-0.114-1.37-0.34-2.023-0.597c-1.474-0.58-2.925-1.221-4.394-1.817    c-0.813-0.329-1.639-0.629-2.471-0.908c-0.114-0.038-0.307,0.109-0.441,0.204c-0.047,0.033-0.058,0.181-0.026,0.248    c0.151,0.315,0.31,0.626,0.487,0.926c0.985,1.668,2.001,3.319,2.954,5.006c0.386,0.684,0.708,1.423,0.933,2.175    c0.374,1.248,0.027,2.19-0.897,2.782c-0.89,0.57-1.865,0.467-2.89-0.435c-0.589-0.518-1.093-1.143-1.58-1.764    c-3.051-3.885-5.765-8.006-8.424-12.161c-0.884-1.383-1.9-2.391-3.473-3.037c-3.745-1.538-7.407-3.277-11.103-4.932    c-0.239-0.107-0.519-0.229-0.688,0.071c-0.066,0.118-0.014,0.342,0.05,0.488c1.457,3.303,3.039,6.556,4.349,9.916    c0.978,2.51,2.587,4.228,4.856,5.631c3.367,2.083,6.561,4.445,9.834,6.681c1.026,0.7,1.942,1.526,2.761,2.451    c0.927,1.047,1.108,2.08,0.569,2.866c-0.578,0.844-1.96,1.312-3.087,0.9c-0.903-0.331-1.766-0.796-2.602-1.279    c-1.753-1.014-3.475-2.081-5.215-3.118c-0.142-0.085-0.372-0.197-0.475-0.14c-0.306,0.168-0.165,0.453-0.065,0.693    c0.775,1.871,1.584,3.728,2.321,5.614c0.416,1.063,0.817,2.151,1.039,3.265c0.281,1.407-0.383,2.382-1.68,2.913    c-0.82,0.336-1.555,0.229-2.233-0.295c-0.634-0.49-1.156-1.087-1.511-1.813c-1.2-2.452-2.397-4.906-3.59-7.362    c-0.224-0.46-0.232-1.05-0.8-1.297c-0.161,0.5-0.35,0.992-0.478,1.5c-0.519,2.048-1,4.106-1.533,6.15    c-0.198,0.76-0.389,1.56-1.079,2.068c-0.981,0.724-2.008,1.054-3.192,0.417C83.156,245.851,82.671,244.979,82.775,243.042z"/>
		<path style="fill:#6280FF;" d="M444.646,431.601c0.212-0.988,0.492-2.368,0.809-3.74c0.514-2.23,1.023-4.462,1.594-6.678    c0.262-1.018,0.548-2.063,1.035-2.983c0.588-1.111,0.639-2.065,0.091-3.221c-1.47-3.101-2.822-6.259-4.229-9.391    c-0.721-1.606-1.445-3.21-2.195-4.802c-0.255-0.54-0.697-0.534-0.956,0.017c-0.786,1.673-1.546,3.359-2.301,5.047    c-1.403,3.134-2.774,6.283-4.209,9.402c-0.403,0.875-0.481,1.657,0.003,2.504c0.709,1.241,0.979,2.618,1.283,4.003    c0.642,2.923,1.416,5.817,2.122,8.727c0.145,0.597,0.307,1.207,0.319,1.814c0.029,1.44-1.06,2.761-2.439,3.072    c-1.115,0.251-2.407-0.387-3.075-1.585c-0.519-0.931-0.735-1.972-0.967-3.006c-0.384-1.718-0.802-3.428-1.229-5.135    c-0.033-0.131-0.241-0.287-0.381-0.301c-0.127-0.013-0.337,0.121-0.398,0.245c-1.115,2.295-2.217,4.597-3.315,6.901    c-0.459,0.964-1.027,1.848-1.812,2.579c-0.763,0.71-1.599,1.081-2.636,0.577c-1.101-0.536-1.799-1.613-1.529-2.789    c0.294-1.28,0.773-2.522,1.233-3.757c0.615-1.649,1.295-3.274,1.933-4.915c0.098-0.252,0.049-0.541-0.223-0.659    c-0.131-0.057-0.356,0-0.496,0.081c-1.831,1.054-3.644,2.141-5.486,3.177c-0.688,0.387-1.417,0.728-2.165,0.971    c-1.117,0.364-2.313-0.051-2.776-0.939c-0.493-0.946-0.405-1.922,0.29-2.718c0.632-0.724,1.352-1.391,2.115-1.977    c3.776-2.9,7.794-5.456,11.788-8.037c1.469-0.949,2.467-2.086,3.143-3.712c1.521-3.657,3.219-7.239,4.844-10.853    c0.108-0.242,0.212-0.516-0.072-0.69c-0.123-0.075-0.343-0.063-0.492-0.011c-0.58,0.205-1.157,0.421-1.72,0.67    c-3.061,1.351-6.103,2.745-9.179,4.057c-1.596,0.681-2.835,1.664-3.732,3.181c-2.333,3.945-5.007,7.667-7.738,11.343    c-0.679,0.914-1.461,1.769-2.298,2.542c-0.957,0.884-1.887,1.007-2.638,0.545c-1.083-0.666-1.48-1.653-1.06-2.938    c0.272-0.831,0.665-1.625,1.05-2.413c0.27-0.552,0.651-1.049,0.925-1.599c0.759-1.521,2.082-2.753,2.329-4.536    c-1.786,0.189-3.215,1.319-4.875,1.849c-1.173,0.374-2.314,0.847-3.478,1.251c-0.414,0.143-0.849,0.274-1.281,0.304    c-1.182,0.081-2.021-0.504-2.578-1.506c-0.5-0.899-0.153-1.71,0.356-2.468c0.505-0.753,1.249-1.235,2.043-1.633    c1.655-0.827,3.32-1.632,4.977-2.456c0.867-0.431,1.729-0.871,2.579-1.333c0.116-0.062,0.237-0.296,0.204-0.405    c-0.042-0.14-0.22-0.299-0.369-0.338c-1.789-0.463-3.585-0.896-5.375-1.356c-0.767-0.197-1.554-0.364-2.276-0.676    c-1.483-0.642-2.171-2.046-1.772-3.415c0.45-1.548,1.805-2.517,3.436-2.202c2.505,0.483,4.984,1.104,7.463,1.712    c2.304,0.565,4.667,0.946,6.814,2.044c0.76,0.388,1.535,0.314,2.296-0.029c0.964-0.434,1.925-0.872,2.889-1.303    c3.777-1.688,7.557-3.371,11.329-5.07c0.302-0.136,0.716-0.307,0.601-0.74c-0.055-0.21-0.347-0.361-0.538-0.53    c-0.065-0.057-0.15-0.094-0.23-0.13c-3.696-1.655-7.373-3.357-11.1-4.938c-1.291-0.547-2.47-1.42-3.895-1.596    c-1.395-0.172-2.446,0.896-3.735,1.189c-3.863,0.878-7.709,1.833-11.562,2.754c-0.255,0.061-0.52,0.107-0.781,0.109    c-1.401,0.01-2.543-0.841-2.967-2.191c-0.406-1.295,0.129-2.642,1.454-3.328c0.694-0.359,1.481-0.557,2.245-0.755    c1.959-0.509,3.931-0.97,5.892-1.47c0.23-0.059,0.426-0.246,0.638-0.374c-0.22-0.138-0.43-0.297-0.661-0.412    c-2.371-1.167-4.751-2.317-7.117-3.496c-0.786-0.392-1.576-0.794-2.182-1.464c-0.874-0.966-1.127-2.031-0.639-2.886    c0.629-1.103,1.599-1.638,2.859-1.483c0.602,0.074,1.2,0.282,1.768,0.51c2.043,0.819,4.071,1.676,6.108,2.509    c0.403,0.165,0.82,0.294,1.235,0.424c0.067,0.021,0.205-0.016,0.231-0.067c0.07-0.139,0.177-0.336,0.127-0.446    c-0.18-0.398-0.413-0.773-0.636-1.15c-0.986-1.668-2.001-3.318-2.95-5.007c-0.384-0.683-0.646-1.439-0.926-2.177    c-0.366-0.962,0.045-1.716,0.73-2.36c0.844-0.792,1.71-0.874,2.611-0.161c1.18,0.933,2.214,2.038,3.066,3.268    c2.554,3.694,5.075,7.413,7.548,11.162c0.747,1.132,1.547,2.096,2.83,2.655c3.39,1.478,6.752,3.018,10.131,4.519    c0.56,0.249,1.144,0.454,1.733,0.621c0.295,0.084,0.563-0.116,0.44-0.437c-0.41-1.067-0.855-2.122-1.315-3.169    c-1.313-2.981-2.652-5.95-3.955-8.935c-0.366-0.837-0.895-1.466-1.672-1.969c-2.587-1.677-5.161-3.378-7.697-5.13    c-2.027-1.4-3.998-2.883-5.984-4.342c-0.641-0.471-1.243-1.003-1.617-1.72c-0.437-0.837-0.477-1.702,0.089-2.497    c0.57-0.799,1.409-1.078,2.333-0.852c0.675,0.166,1.341,0.448,1.951,0.786c1.925,1.066,3.822,2.184,5.731,3.281    c0.294,0.169,0.611,0.451,0.925,0.126c0.288-0.298,0.074-0.662-0.051-0.978c-0.584-1.473-1.203-2.933-1.765-4.414    c-0.437-1.151-0.843-2.317-1.199-3.495c-0.342-1.135,0.061-2.082,0.948-2.819c0.847-0.706,1.776-0.75,2.674-0.113    c0.955,0.677,1.628,1.593,2.128,2.649c1.094,2.306,2.401,4.51,3.295,6.913c0.085,0.228,0.314,0.551,0.496,0.565    c0.428,0.033,0.516-0.381,0.595-0.722c0.414-1.802,0.798-3.611,1.242-5.405c0.21-0.85,0.39-1.722,0.895-2.473    c0.779-1.159,2.048-1.723,3.162-1.395c1.393,0.411,2.381,1.741,2.282,3.178c-0.042,0.609-0.212,1.212-0.353,1.81    c-0.785,3.343-1.56,6.688-2.382,10.022c-0.188,0.762-0.457,1.533-0.844,2.212c-0.636,1.116-0.523,2.102,0.012,3.236    c1.539,3.264,2.974,6.578,4.453,9.871c0.649,1.445,1.297,2.892,1.967,4.327c0.172,0.368,0.62,0.349,0.825-0.017    c0.214-0.383,0.413-0.777,0.592-1.178c1.976-4.421,3.92-8.856,5.939-13.257c0.442-0.963,0.597-1.791,0.015-2.727    c-0.564-0.908-0.772-1.953-1.015-2.986c-0.687-2.914-1.43-5.815-2.134-8.724c-0.186-0.769-0.352-1.547-0.46-2.329    c-0.235-1.702,0.56-2.917,2.172-3.402c1.29-0.388,2.805,0.36,3.449,1.778c0.251,0.553,0.366,1.171,0.514,1.767    c0.528,2.137,1.042,4.277,1.571,6.413c0.035,0.14,0.158,0.259,0.24,0.387c0.12-0.12,0.298-0.219,0.353-0.364    c1.003-2.644,2.439-5.079,3.642-7.626c0.418-0.884,0.92-1.705,1.691-2.333c0.74-0.603,1.524-0.818,2.449-0.412    c0.971,0.428,1.569,1.097,1.664,2.181c0.072,0.82-0.186,1.577-0.476,2.31c-0.777,1.964-1.612,3.906-2.394,5.869    c-0.256,0.643-0.421,1.322-0.627,1.984c0.908,0.251,1.361-0.552,1.997-0.897c1.702-0.923,3.356-1.934,5.042-2.888    c0.69-0.391,1.404-0.739,2.222-0.791c0.952-0.061,1.752,0.223,2.265,1.059c0.527,0.858,0.36,1.707-0.215,2.464    c-0.806,1.059-1.814,1.927-2.882,2.706c-1.708,1.246-3.44,2.459-5.187,3.648c-2.185,1.487-4.38,2.961-6.602,4.39    c-1.075,0.691-1.82,1.54-2.332,2.75c-1.579,3.729-3.286,7.403-4.941,11.1c-0.108,0.241-0.2,0.488-0.285,0.738    c-0.026,0.075-0.028,0.178,0.003,0.249c0.085,0.193,0.247,0.251,0.445,0.165c1.049-0.458,2.099-0.914,3.144-1.382    c2.893-1.296,5.775-2.616,8.679-3.887c1.176-0.515,2.03-1.31,2.731-2.383c2.024-3.098,4.09-6.168,6.185-9.218    c0.946-1.377,1.964-2.709,3.022-4.003c0.494-0.603,1.117-1.126,1.759-1.576c0.712-0.5,1.503-0.426,2.234,0.049    c0.727,0.473,1.107,1.158,1.003,2.015c-0.128,1.055-0.495,2.042-1.051,2.961c-1.004,1.657-1.985,3.328-2.97,4.996    c-0.215,0.363-0.697,0.775-0.406,1.153c0.442,0.573,0.956-0.006,1.403-0.181c1.805-0.704,3.59-1.458,5.394-2.165    c0.736-0.289,1.485-0.58,2.254-0.74c1.355-0.282,2.684,0.344,3.146,1.378c0.454,1.014,0.174,2.156-0.901,3.063    c-1.422,1.202-3.077,2.039-4.771,2.796c-1.366,0.61-2.727,1.233-4.076,1.879c-0.271,0.13-0.734,0.237-0.578,0.675    c0.066,0.187,0.405,0.335,0.647,0.392c1.798,0.428,3.604,0.822,5.404,1.241c0.6,0.14,1.202,0.287,1.783,0.492    c1.779,0.628,2.543,2.013,2.077,3.706c-0.408,1.482-1.852,2.428-3.485,2.042c-4.704-1.113-9.516-1.838-14.02-3.706    c-1.071-0.444-2.048-0.237-3.048,0.236c-1.671,0.79-3.369,1.525-5.05,2.294c-2.802,1.282-5.608,2.557-8.395,3.872    c-0.787,0.371-0.787,0.948,0,1.318c2.789,1.312,5.593,2.59,8.401,3.859c1.764,0.798,3.549,1.55,5.317,2.341    c1.106,0.495,2.167,0.591,3.285-0.028c1.324-0.733,2.824-0.969,4.276-1.327c2.992-0.738,5.969-1.547,8.981-2.194    c2.234-0.48,3.926,1,3.83,3.148c-0.058,1.303-0.739,2.184-1.931,2.561c-1.425,0.45-2.893,0.763-4.348,1.115    c-0.941,0.228-1.895,0.398-2.832,0.639c-0.324,0.083-0.832,0.262-0.873,0.472c-0.103,0.529,0.477,0.616,0.833,0.787    c2.066,0.985,4.141,1.951,6.215,2.918c0.969,0.452,1.833,1.048,2.576,1.818c0.801,0.831,1.138,1.783,0.664,2.892    c-0.414,0.97-1.67,1.593-2.892,1.389c-0.689-0.114-1.37-0.34-2.023-0.597c-1.474-0.58-2.925-1.221-4.394-1.816    c-0.813-0.329-1.639-0.629-2.471-0.908c-0.114-0.038-0.307,0.109-0.44,0.204c-0.047,0.033-0.058,0.181-0.027,0.248    c0.15,0.315,0.31,0.626,0.487,0.926c0.985,1.668,2.001,3.319,2.954,5.006c0.386,0.684,0.708,1.423,0.933,2.175    c0.374,1.247,0.027,2.19-0.897,2.782c-0.89,0.57-1.865,0.467-2.89-0.435c-0.589-0.517-1.093-1.143-1.58-1.763    c-3.051-3.885-5.765-8.006-8.423-12.161c-0.884-1.383-1.9-2.391-3.473-3.036c-3.745-1.538-7.406-3.277-11.103-4.932    c-0.239-0.107-0.519-0.229-0.688,0.071c-0.066,0.118-0.014,0.342,0.05,0.487c1.457,3.303,3.039,6.556,4.349,9.916    c0.978,2.51,2.588,4.228,4.856,5.631c3.367,2.083,6.561,4.445,9.834,6.681c1.026,0.7,1.942,1.526,2.76,2.451    c0.927,1.047,1.108,2.08,0.569,2.866c-0.578,0.844-1.96,1.312-3.087,0.9c-0.903-0.331-1.766-0.796-2.602-1.28    c-1.753-1.014-3.475-2.081-5.215-3.118c-0.142-0.085-0.372-0.197-0.475-0.141c-0.306,0.169-0.165,0.453-0.065,0.694    c0.775,1.871,1.584,3.728,2.321,5.614c0.415,1.063,0.817,2.151,1.039,3.265c0.28,1.407-0.383,2.382-1.68,2.913    c-0.82,0.336-1.556,0.229-2.233-0.295c-0.634-0.49-1.156-1.087-1.511-1.813c-1.2-2.453-2.397-4.906-3.59-7.362    c-0.224-0.46-0.232-1.05-0.8-1.297c-0.161,0.5-0.349,0.992-0.478,1.5c-0.519,2.048-1.001,4.105-1.533,6.15    c-0.198,0.76-0.389,1.56-1.079,2.068c-0.981,0.724-2.008,1.054-3.192,0.417C445.027,434.411,444.542,433.539,444.646,431.601z"/>
		<path style="fill:#6280FF;" d="M128.888,480.319c0.166-0.77,0.384-1.845,0.63-2.914c0.401-1.738,0.798-3.477,1.243-5.204    c0.204-0.793,0.427-1.607,0.806-2.325c0.458-0.866,0.498-1.609,0.071-2.51c-1.146-2.417-2.199-4.878-3.296-7.318    c-0.562-1.251-1.126-2.502-1.71-3.742c-0.198-0.421-0.543-0.417-0.745,0.013c-0.613,1.304-1.204,2.618-1.793,3.933    c-1.094,2.442-2.162,4.896-3.28,7.327c-0.314,0.682-0.375,1.291,0.002,1.951c0.553,0.967,0.763,2.04,1,3.12    c0.5,2.278,1.103,4.533,1.653,6.8c0.113,0.465,0.239,0.941,0.249,1.414c0.023,1.122-0.826,2.151-1.901,2.393    c-0.869,0.196-1.875-0.301-2.396-1.235c-0.404-0.726-0.573-1.536-0.754-2.342c-0.299-1.339-0.625-2.671-0.957-4.002    c-0.025-0.102-0.188-0.224-0.297-0.235c-0.099-0.01-0.263,0.094-0.31,0.191c-0.869,1.789-1.728,3.582-2.583,5.378    c-0.358,0.751-0.8,1.44-1.413,2.01c-0.594,0.554-1.246,0.842-2.054,0.45c-0.858-0.418-1.402-1.257-1.192-2.174    c0.229-0.997,0.602-1.965,0.961-2.928c0.479-1.285,1.009-2.551,1.506-3.83c0.076-0.196,0.038-0.421-0.174-0.513    c-0.102-0.044-0.278,0-0.386,0.062c-1.427,0.822-2.84,1.669-4.275,2.476c-0.536,0.301-1.104,0.567-1.687,0.757    c-0.871,0.283-1.802-0.04-2.163-0.732c-0.384-0.737-0.315-1.498,0.226-2.118c0.492-0.564,1.054-1.084,1.649-1.54    c2.943-2.26,6.073-4.252,9.186-6.263c1.145-0.74,1.922-1.626,2.449-2.893c1.185-2.849,2.508-5.641,3.775-8.457    c0.085-0.189,0.165-0.402-0.056-0.538c-0.096-0.058-0.268-0.049-0.383-0.008c-0.452,0.16-0.902,0.328-1.34,0.522    c-2.385,1.053-4.755,2.139-7.153,3.161c-1.244,0.531-2.209,1.297-2.909,2.479c-1.818,3.075-3.902,5.975-6.03,8.84    c-0.529,0.712-1.139,1.379-1.79,1.981c-0.746,0.689-1.471,0.784-2.056,0.425c-0.844-0.519-1.154-1.288-0.826-2.29    c0.212-0.647,0.518-1.266,0.818-1.88c0.21-0.43,0.507-0.818,0.721-1.246c0.591-1.186,1.622-2.145,1.815-3.535    c-1.392,0.147-2.506,1.028-3.799,1.441c-0.914,0.291-1.803,0.66-2.71,0.974c-0.322,0.112-0.662,0.214-0.999,0.237    c-0.921,0.063-1.574-0.393-2.008-1.173c-0.39-0.701-0.119-1.332,0.277-1.923c0.394-0.587,0.973-0.963,1.592-1.272    c1.29-0.645,2.587-1.272,3.879-1.914c0.675-0.336,1.347-0.679,2.01-1.039c0.09-0.049,0.185-0.231,0.159-0.315    c-0.033-0.109-0.171-0.233-0.287-0.263c-1.394-0.36-2.794-0.698-4.188-1.056c-0.597-0.154-1.212-0.284-1.774-0.527    c-1.156-0.5-1.692-1.594-1.381-2.661c0.351-1.207,1.407-1.962,2.677-1.716c1.952,0.376,3.884,0.86,5.816,1.334    c1.795,0.441,3.636,0.737,5.31,1.593c0.592,0.303,1.196,0.244,1.789-0.022c0.751-0.338,1.5-0.68,2.252-1.016    c2.943-1.316,5.889-2.627,8.829-3.951c0.236-0.106,0.558-0.239,0.469-0.577c-0.043-0.164-0.27-0.281-0.419-0.413    c-0.05-0.045-0.117-0.073-0.179-0.101c-2.88-1.29-5.745-2.616-8.65-3.848c-1.006-0.427-1.925-1.107-3.035-1.244    c-1.087-0.134-1.906,0.698-2.91,0.926c-3.01,0.684-6.007,1.429-9.01,2.146c-0.199,0.048-0.406,0.083-0.609,0.085    c-1.092,0.008-1.982-0.655-2.312-1.707c-0.317-1.009,0.101-2.059,1.133-2.593c0.541-0.28,1.154-0.434,1.75-0.589    c1.527-0.396,3.063-0.756,4.592-1.146c0.179-0.046,0.332-0.192,0.497-0.291c-0.171-0.108-0.335-0.232-0.515-0.321    c-1.848-0.91-3.702-1.806-5.546-2.724c-0.612-0.305-1.228-0.619-1.701-1.141c-0.681-0.753-0.878-1.583-0.498-2.249    c0.49-0.86,1.246-1.276,2.228-1.156c0.469,0.058,0.936,0.22,1.378,0.397c1.592,0.638,3.172,1.306,4.76,1.955    c0.314,0.129,0.639,0.23,0.963,0.331c0.052,0.016,0.16-0.013,0.18-0.052c0.054-0.109,0.138-0.262,0.099-0.348    c-0.14-0.31-0.322-0.602-0.496-0.896c-0.768-1.299-1.559-2.586-2.299-3.901c-0.299-0.533-0.503-1.121-0.721-1.696    c-0.285-0.75,0.035-1.337,0.568-1.839c0.657-0.617,1.333-0.68,2.035-0.125c0.919,0.727,1.726,1.588,2.389,2.547    c1.991,2.879,3.955,5.776,5.882,8.698c0.582,0.882,1.205,1.633,2.205,2.069c2.641,1.151,5.261,2.352,7.895,3.522    c0.437,0.194,0.892,0.354,1.351,0.484c0.23,0.066,0.438-0.091,0.343-0.34c-0.319-0.832-0.666-1.654-1.025-2.469    c-1.023-2.323-2.067-4.637-3.082-6.963c-0.285-0.652-0.697-1.142-1.303-1.534c-2.017-1.307-4.022-2.632-5.998-3.998    c-1.58-1.091-3.116-2.247-4.663-3.384c-0.5-0.367-0.969-0.781-1.26-1.34c-0.34-0.652-0.372-1.326,0.07-1.946    c0.444-0.623,1.098-0.841,1.818-0.664c0.526,0.129,1.045,0.349,1.52,0.612c1.5,0.831,2.979,1.702,4.466,2.557    c0.229,0.131,0.477,0.351,0.721,0.098c0.224-0.232,0.057-0.516-0.04-0.762c-0.455-1.148-0.937-2.285-1.375-3.44    c-0.34-0.897-0.657-1.805-0.934-2.724c-0.267-0.885,0.048-1.622,0.739-2.197c0.66-0.55,1.384-0.584,2.084-0.087    c0.744,0.528,1.268,1.241,1.659,2.064c0.852,1.797,1.871,3.515,2.568,5.387c0.066,0.178,0.244,0.429,0.386,0.44    c0.334,0.025,0.402-0.297,0.463-0.563c0.322-1.404,0.622-2.814,0.968-4.212c0.164-0.662,0.304-1.342,0.697-1.927    c0.607-0.903,1.596-1.343,2.464-1.087c1.086,0.32,1.855,1.357,1.779,2.476c-0.033,0.475-0.166,0.945-0.275,1.411    c-0.611,2.605-1.216,5.212-1.856,7.81c-0.146,0.594-0.356,1.195-0.657,1.724c-0.496,0.87-0.407,1.637,0.009,2.521    c1.2,2.544,2.317,5.126,3.47,7.692c0.506,1.126,1.01,2.253,1.533,3.372c0.134,0.286,0.483,0.272,0.643-0.013    c0.167-0.299,0.322-0.606,0.461-0.918c1.54-3.445,3.055-6.901,4.628-10.331c0.344-0.75,0.465-1.395,0.012-2.125    c-0.439-0.708-0.601-1.522-0.791-2.327c-0.535-2.271-1.114-4.531-1.663-6.799c-0.145-0.599-0.274-1.205-0.358-1.815    c-0.183-1.326,0.436-2.273,1.693-2.651c1.006-0.303,2.186,0.28,2.688,1.386c0.196,0.431,0.286,0.913,0.4,1.377    c0.412,1.665,0.811,3.333,1.224,4.997c0.027,0.109,0.123,0.202,0.187,0.302c0.094-0.094,0.232-0.171,0.275-0.284    c0.781-2.06,1.9-3.958,2.838-5.943c0.326-0.689,0.717-1.329,1.318-1.819c0.577-0.47,1.188-0.637,1.908-0.321    c0.756,0.333,1.222,0.855,1.297,1.7c0.056,0.64-0.145,1.229-0.371,1.8c-0.605,1.531-1.256,3.044-1.865,4.573    c-0.2,0.501-0.328,1.03-0.489,1.546c0.708,0.196,1.061-0.43,1.557-0.699c1.326-0.719,2.616-1.507,3.929-2.251    c0.537-0.305,1.094-0.576,1.731-0.617c0.742-0.048,1.366,0.173,1.766,0.825c0.41,0.669,0.281,1.33-0.168,1.92    c-0.628,0.825-1.413,1.501-2.246,2.108c-1.331,0.971-2.68,1.916-4.042,2.842c-1.703,1.159-3.413,2.308-5.145,3.421    c-0.837,0.538-1.418,1.2-1.818,2.143c-1.23,2.906-2.561,5.769-3.85,8.65c-0.084,0.188-0.156,0.381-0.222,0.575    c-0.02,0.059-0.021,0.139,0.003,0.194c0.066,0.151,0.193,0.195,0.347,0.128c0.817-0.357,1.636-0.713,2.45-1.077    c2.254-1.01,4.5-2.038,6.763-3.029c0.916-0.401,1.582-1.021,2.128-1.857c1.577-2.414,3.187-4.807,4.82-7.184    c0.737-1.073,1.531-2.112,2.355-3.12c0.385-0.47,0.871-0.877,1.371-1.228c0.555-0.389,1.171-0.332,1.741,0.038    c0.566,0.368,0.863,0.902,0.781,1.57c-0.1,0.823-0.385,1.592-0.819,2.308c-0.782,1.291-1.547,2.593-2.315,3.894    c-0.167,0.283-0.543,0.604-0.316,0.898c0.345,0.446,0.745-0.005,1.094-0.141c1.407-0.548,2.798-1.136,4.203-1.687    c0.574-0.225,1.157-0.452,1.757-0.577c1.055-0.219,2.091,0.268,2.452,1.074c0.354,0.79,0.136,1.68-0.702,2.387    c-1.108,0.936-2.397,1.59-3.718,2.179c-1.065,0.475-2.125,0.961-3.177,1.464c-0.211,0.101-0.572,0.185-0.451,0.526    c0.051,0.146,0.316,0.261,0.504,0.306c1.401,0.333,2.809,0.641,4.211,0.967c0.467,0.109,0.937,0.224,1.389,0.383    c1.386,0.489,1.981,1.569,1.619,2.888c-0.318,1.155-1.444,1.892-2.716,1.591c-3.666-0.867-7.416-1.432-10.926-2.888    c-0.834-0.346-1.596-0.185-2.375,0.184c-1.302,0.616-2.625,1.188-3.936,1.788c-2.184,0.999-4.37,1.993-6.541,3.017    c-0.614,0.289-0.614,0.738,0,1.027c2.173,1.022,4.359,2.018,6.547,3.007c1.375,0.622,2.766,1.208,4.143,1.825    c0.862,0.386,1.689,0.461,2.56-0.022c1.032-0.572,2.201-0.755,3.332-1.034c2.332-0.575,4.652-1.206,6.999-1.71    c1.741-0.374,3.059,0.78,2.985,2.453c-0.045,1.016-0.576,1.702-1.505,1.996c-1.11,0.35-2.255,0.594-3.388,0.869    c-0.733,0.177-1.477,0.31-2.207,0.498c-0.252,0.065-0.648,0.205-0.68,0.368c-0.08,0.412,0.371,0.48,0.65,0.613    c1.61,0.768,3.227,1.52,4.843,2.274c0.755,0.352,1.428,0.817,2.007,1.417c0.624,0.648,0.887,1.39,0.518,2.254    c-0.323,0.756-1.301,1.241-2.254,1.083c-0.537-0.089-1.068-0.265-1.576-0.465c-1.149-0.452-2.279-0.952-3.424-1.416    c-0.634-0.257-1.278-0.49-1.926-0.707c-0.089-0.03-0.24,0.085-0.343,0.158c-0.036,0.026-0.045,0.141-0.021,0.193    c0.117,0.245,0.242,0.488,0.38,0.722c0.768,1.3,1.559,2.587,2.301,3.901c0.301,0.533,0.552,1.109,0.727,1.695    c0.292,0.972,0.021,1.707-0.699,2.168c-0.693,0.444-1.453,0.364-2.252-0.339c-0.459-0.403-0.852-0.891-1.231-1.374    c-2.377-3.027-4.493-6.239-6.564-9.477c-0.689-1.077-1.481-1.863-2.706-2.366c-2.918-1.198-5.772-2.554-8.653-3.843    c-0.186-0.083-0.404-0.179-0.536,0.055c-0.052,0.092-0.011,0.266,0.039,0.38c1.135,2.574,2.368,5.109,3.389,7.727    c0.763,1.956,2.017,3.295,3.784,4.388c2.624,1.624,5.113,3.464,7.663,5.207c0.8,0.546,1.513,1.189,2.151,1.91    c0.722,0.816,0.863,1.621,0.443,2.233c-0.45,0.658-1.527,1.022-2.406,0.701c-0.704-0.258-1.376-0.62-2.028-0.997    c-1.366-0.79-2.708-1.622-4.064-2.43c-0.11-0.066-0.289-0.153-0.37-0.109c-0.238,0.131-0.128,0.353-0.051,0.54    c0.604,1.458,1.235,2.905,1.809,4.375c0.324,0.828,0.637,1.676,0.81,2.544c0.219,1.097-0.298,1.856-1.309,2.27    c-0.639,0.262-1.212,0.178-1.74-0.23c-0.494-0.382-0.901-0.847-1.178-1.412c-0.935-1.911-1.868-3.823-2.798-5.737    c-0.174-0.359-0.181-0.818-0.624-1.011c-0.125,0.389-0.272,0.773-0.373,1.169c-0.404,1.596-0.78,3.199-1.195,4.793    c-0.154,0.592-0.303,1.215-0.841,1.612c-0.765,0.564-1.565,0.821-2.487,0.325C129.185,482.508,128.806,481.829,128.888,480.319z"/>
		<path style="fill:#6280FF;" d="M480.447,260.489c0.165-0.77,0.383-1.845,0.63-2.914c0.401-1.738,0.798-3.477,1.242-5.204    c0.204-0.794,0.427-1.607,0.807-2.325c0.458-0.866,0.498-1.609,0.071-2.51c-1.146-2.417-2.199-4.878-3.296-7.318    c-0.562-1.251-1.126-2.502-1.711-3.742c-0.198-0.421-0.543-0.416-0.745,0.013c-0.613,1.304-1.205,2.618-1.793,3.933    c-1.094,2.442-2.161,4.896-3.28,7.327c-0.314,0.682-0.375,1.291,0.002,1.951c0.553,0.967,0.763,2.04,1,3.12    c0.5,2.278,1.104,4.533,1.653,6.8c0.113,0.465,0.239,0.941,0.249,1.414c0.023,1.122-0.826,2.152-1.901,2.394    c-0.869,0.196-1.875-0.302-2.396-1.235c-0.405-0.726-0.573-1.537-0.754-2.342c-0.299-1.339-0.625-2.671-0.957-4.002    c-0.026-0.102-0.188-0.224-0.297-0.235c-0.099-0.01-0.263,0.094-0.31,0.191c-0.869,1.789-1.728,3.583-2.583,5.378    c-0.358,0.751-0.8,1.44-1.412,2.01c-0.595,0.554-1.246,0.842-2.054,0.45c-0.858-0.417-1.402-1.257-1.192-2.174    c0.23-0.997,0.602-1.965,0.961-2.928c0.479-1.285,1.009-2.551,1.506-3.83c0.076-0.196,0.038-0.421-0.174-0.513    c-0.102-0.044-0.278,0-0.386,0.062c-1.427,0.822-2.84,1.669-4.275,2.476c-0.536,0.301-1.104,0.567-1.687,0.757    c-0.871,0.283-1.802-0.04-2.163-0.732c-0.384-0.737-0.316-1.498,0.226-2.118c0.492-0.564,1.054-1.084,1.648-1.54    c2.943-2.26,6.073-4.252,9.186-6.263c1.145-0.74,1.922-1.626,2.449-2.893c1.185-2.849,2.509-5.641,3.775-8.457    c0.085-0.188,0.165-0.402-0.056-0.537c-0.096-0.058-0.267-0.049-0.383-0.008c-0.452,0.16-0.902,0.328-1.341,0.522    c-2.385,1.053-4.755,2.139-7.153,3.161c-1.243,0.531-2.209,1.297-2.908,2.479c-1.818,3.075-3.902,5.975-6.03,8.84    c-0.529,0.712-1.139,1.379-1.79,1.981c-0.746,0.689-1.471,0.785-2.056,0.425c-0.844-0.519-1.153-1.288-0.826-2.29    c0.212-0.647,0.518-1.266,0.818-1.88c0.21-0.43,0.507-0.818,0.721-1.246c0.591-1.186,1.622-2.146,1.815-3.535    c-1.392,0.147-2.506,1.028-3.799,1.441c-0.914,0.291-1.804,0.66-2.711,0.974c-0.322,0.111-0.662,0.214-0.999,0.237    c-0.921,0.063-1.574-0.393-2.008-1.173c-0.39-0.701-0.119-1.333,0.277-1.923c0.394-0.587,0.973-0.963,1.592-1.272    c1.289-0.645,2.587-1.272,3.879-1.914c0.675-0.336,1.347-0.679,2.01-1.038c0.09-0.049,0.185-0.231,0.159-0.315    c-0.033-0.109-0.171-0.233-0.288-0.263c-1.394-0.36-2.794-0.698-4.188-1.056c-0.597-0.154-1.211-0.283-1.774-0.527    c-1.156-0.5-1.692-1.594-1.381-2.661c0.351-1.207,1.407-1.962,2.678-1.716c1.952,0.377,3.884,0.86,5.816,1.334    c1.796,0.441,3.636,0.737,5.31,1.593c0.592,0.303,1.196,0.244,1.789-0.023c0.751-0.338,1.5-0.68,2.252-1.016    c2.943-1.316,5.889-2.627,8.829-3.951c0.236-0.106,0.558-0.239,0.469-0.577c-0.043-0.164-0.27-0.281-0.419-0.413    c-0.05-0.045-0.116-0.073-0.179-0.101c-2.88-1.29-5.745-2.616-8.65-3.848c-1.006-0.427-1.925-1.107-3.035-1.244    c-1.087-0.134-1.906,0.698-2.91,0.926c-3.01,0.684-6.007,1.429-9.01,2.146c-0.199,0.048-0.406,0.083-0.609,0.085    c-1.092,0.008-1.982-0.655-2.312-1.707c-0.317-1.009,0.101-2.059,1.133-2.593c0.541-0.28,1.154-0.434,1.75-0.589    c1.526-0.396,3.063-0.756,4.592-1.146c0.179-0.046,0.332-0.192,0.497-0.291c-0.171-0.108-0.335-0.232-0.515-0.321    c-1.848-0.91-3.702-1.806-5.546-2.724c-0.613-0.305-1.228-0.619-1.701-1.141c-0.681-0.753-0.878-1.583-0.498-2.249    c0.49-0.86,1.246-1.276,2.228-1.156c0.469,0.058,0.935,0.22,1.378,0.398c1.592,0.638,3.172,1.306,4.76,1.955    c0.314,0.129,0.639,0.23,0.962,0.331c0.052,0.016,0.16-0.013,0.18-0.052c0.054-0.109,0.138-0.262,0.099-0.348    c-0.14-0.31-0.322-0.602-0.495-0.896c-0.768-1.299-1.56-2.586-2.299-3.901c-0.299-0.533-0.504-1.122-0.722-1.696    c-0.285-0.75,0.035-1.337,0.569-1.839c0.657-0.617,1.332-0.681,2.035-0.125c0.92,0.727,1.726,1.588,2.389,2.547    c1.99,2.879,3.955,5.777,5.882,8.698c0.582,0.883,1.205,1.633,2.205,2.069c2.642,1.151,5.261,2.352,7.895,3.522    c0.436,0.194,0.892,0.354,1.351,0.484c0.23,0.066,0.438-0.09,0.343-0.34c-0.319-0.832-0.666-1.654-1.025-2.469    c-1.023-2.323-2.066-4.637-3.082-6.963c-0.285-0.653-0.697-1.142-1.303-1.535c-2.017-1.307-4.021-2.632-5.998-3.998    c-1.58-1.091-3.115-2.246-4.663-3.383c-0.5-0.367-0.969-0.781-1.26-1.34c-0.34-0.652-0.372-1.326,0.07-1.946    c0.444-0.623,1.098-0.84,1.818-0.664c0.526,0.129,1.045,0.349,1.52,0.612c1.5,0.831,2.979,1.702,4.466,2.557    c0.229,0.132,0.476,0.351,0.721,0.098c0.224-0.232,0.057-0.516-0.04-0.762c-0.455-1.148-0.937-2.285-1.376-3.44    c-0.34-0.897-0.657-1.805-0.934-2.724c-0.267-0.885,0.048-1.622,0.739-2.197c0.66-0.55,1.384-0.584,2.084-0.088    c0.744,0.528,1.268,1.241,1.658,2.064c0.852,1.798,1.871,3.515,2.568,5.387c0.066,0.178,0.245,0.43,0.386,0.44    c0.334,0.025,0.402-0.297,0.463-0.562c0.322-1.404,0.622-2.814,0.968-4.212c0.164-0.662,0.304-1.342,0.697-1.927    c0.607-0.903,1.596-1.343,2.464-1.087c1.086,0.32,1.855,1.357,1.778,2.476c-0.033,0.475-0.165,0.944-0.275,1.411    c-0.612,2.605-1.216,5.212-1.856,7.81c-0.146,0.594-0.356,1.195-0.658,1.724c-0.496,0.87-0.407,1.637,0.01,2.521    c1.2,2.544,2.317,5.126,3.47,7.692c0.506,1.126,1.011,2.253,1.533,3.372c0.134,0.286,0.483,0.272,0.643-0.013    c0.167-0.299,0.322-0.606,0.461-0.918c1.54-3.445,3.055-6.901,4.628-10.331c0.345-0.75,0.465-1.395,0.012-2.125    c-0.439-0.708-0.601-1.522-0.791-2.327c-0.535-2.271-1.114-4.531-1.663-6.799c-0.145-0.599-0.274-1.205-0.358-1.815    c-0.183-1.326,0.436-2.273,1.693-2.651c1.006-0.303,2.186,0.28,2.688,1.386c0.196,0.431,0.286,0.913,0.401,1.377    c0.412,1.665,0.811,3.333,1.224,4.997c0.027,0.109,0.123,0.202,0.187,0.302c0.094-0.094,0.232-0.171,0.275-0.284    c0.781-2.06,1.9-3.958,2.838-5.943c0.326-0.689,0.717-1.329,1.318-1.818c0.577-0.47,1.188-0.637,1.908-0.321    c0.757,0.333,1.223,0.855,1.297,1.7c0.056,0.64-0.145,1.229-0.371,1.8c-0.605,1.531-1.256,3.044-1.866,4.573    c-0.2,0.501-0.328,1.03-0.489,1.546c0.708,0.196,1.061-0.431,1.557-0.699c1.326-0.719,2.616-1.507,3.929-2.251    c0.538-0.305,1.094-0.576,1.731-0.617c0.742-0.048,1.366,0.173,1.766,0.825c0.41,0.669,0.281,1.33-0.168,1.92    c-0.628,0.825-1.413,1.502-2.246,2.108c-1.331,0.971-2.68,1.916-4.042,2.842c-1.703,1.159-3.413,2.308-5.145,3.421    c-0.837,0.538-1.418,1.2-1.817,2.143c-1.23,2.906-2.561,5.769-3.85,8.65c-0.084,0.188-0.156,0.381-0.222,0.575    c-0.02,0.059-0.022,0.139,0.002,0.194c0.066,0.151,0.193,0.196,0.347,0.128c0.817-0.357,1.636-0.713,2.45-1.077    c2.254-1.01,4.5-2.038,6.763-3.029c0.916-0.401,1.582-1.021,2.128-1.857c1.577-2.414,3.187-4.807,4.82-7.183    c0.737-1.073,1.531-2.112,2.355-3.12c0.385-0.47,0.871-0.877,1.371-1.228c0.555-0.389,1.171-0.332,1.741,0.038    c0.566,0.368,0.862,0.903,0.781,1.57c-0.1,0.823-0.385,1.592-0.819,2.308c-0.782,1.291-1.547,2.593-2.315,3.894    c-0.167,0.283-0.543,0.604-0.316,0.898c0.345,0.446,0.745-0.005,1.094-0.141c1.407-0.548,2.798-1.136,4.203-1.687    c0.574-0.225,1.157-0.452,1.757-0.577c1.055-0.219,2.091,0.268,2.452,1.074c0.354,0.79,0.136,1.68-0.702,2.387    c-1.108,0.936-2.397,1.589-3.718,2.179c-1.065,0.475-2.125,0.961-3.176,1.464c-0.212,0.101-0.572,0.185-0.451,0.526    c0.052,0.146,0.316,0.261,0.504,0.306c1.401,0.333,2.809,0.641,4.211,0.967c0.467,0.109,0.937,0.224,1.389,0.383    c1.386,0.489,1.982,1.569,1.619,2.888c-0.318,1.155-1.444,1.892-2.716,1.591c-3.666-0.867-7.415-1.432-10.926-2.888    c-0.834-0.346-1.596-0.185-2.375,0.184c-1.302,0.616-2.625,1.188-3.936,1.788c-2.184,0.999-4.37,1.992-6.541,3.017    c-0.613,0.289-0.613,0.738-0.001,1.027c2.173,1.022,4.359,2.018,6.547,3.008c1.375,0.622,2.766,1.208,4.144,1.824    c0.862,0.386,1.689,0.46,2.56-0.022c1.032-0.572,2.201-0.755,3.332-1.034c2.332-0.575,4.651-1.206,6.998-1.71    c1.741-0.374,3.059,0.78,2.985,2.453c-0.045,1.015-0.576,1.702-1.505,1.995c-1.11,0.35-2.255,0.594-3.388,0.869    c-0.733,0.178-1.477,0.31-2.207,0.498c-0.252,0.065-0.648,0.205-0.68,0.368c-0.08,0.412,0.371,0.48,0.649,0.613    c1.61,0.768,3.227,1.52,4.844,2.274c0.755,0.352,1.428,0.817,2.007,1.417c0.624,0.648,0.887,1.39,0.518,2.254    c-0.323,0.755-1.301,1.241-2.253,1.083c-0.537-0.089-1.068-0.265-1.577-0.465c-1.149-0.452-2.279-0.952-3.424-1.415    c-0.634-0.257-1.277-0.49-1.926-0.707c-0.089-0.03-0.239,0.085-0.343,0.159c-0.036,0.026-0.045,0.141-0.02,0.193    c0.117,0.245,0.242,0.488,0.38,0.722c0.768,1.3,1.559,2.587,2.301,3.901c0.301,0.533,0.552,1.109,0.727,1.695    c0.292,0.972,0.021,1.707-0.699,2.168c-0.693,0.444-1.453,0.364-2.252-0.339c-0.459-0.403-0.852-0.891-1.231-1.374    c-2.377-3.027-4.493-6.239-6.564-9.477c-0.689-1.077-1.481-1.863-2.706-2.366c-2.918-1.198-5.772-2.554-8.653-3.843    c-0.186-0.083-0.404-0.179-0.536,0.055c-0.052,0.092-0.011,0.266,0.039,0.38c1.135,2.574,2.368,5.109,3.389,7.727    c0.762,1.956,2.016,3.295,3.784,4.388c2.624,1.624,5.113,3.464,7.664,5.206c0.799,0.546,1.513,1.189,2.151,1.91    c0.722,0.816,0.863,1.621,0.443,2.233c-0.45,0.658-1.528,1.022-2.406,0.701c-0.704-0.258-1.376-0.62-2.028-0.997    c-1.366-0.79-2.708-1.622-4.064-2.43c-0.111-0.066-0.29-0.153-0.37-0.109c-0.238,0.132-0.128,0.353-0.051,0.54    c0.604,1.458,1.234,2.905,1.809,4.375c0.324,0.828,0.637,1.676,0.81,2.544c0.219,1.097-0.298,1.856-1.309,2.27    c-0.639,0.262-1.212,0.178-1.74-0.23c-0.494-0.382-0.901-0.847-1.178-1.412c-0.935-1.911-1.868-3.823-2.798-5.737    c-0.174-0.359-0.181-0.818-0.623-1.011c-0.125,0.389-0.272,0.773-0.373,1.169c-0.404,1.596-0.78,3.199-1.195,4.793    c-0.154,0.593-0.303,1.215-0.841,1.612c-0.765,0.564-1.565,0.821-2.487,0.325C480.744,262.679,480.365,261.999,480.447,260.489z"/>
		<path style="fill:#6280FF;" d="M244.832,78.994c0.166-0.77,0.384-1.845,0.63-2.914c0.401-1.738,0.798-3.477,1.242-5.204    c0.204-0.793,0.427-1.607,0.806-2.325c0.459-0.866,0.498-1.609,0.071-2.51c-1.146-2.417-2.199-4.878-3.296-7.318    c-0.562-1.251-1.126-2.502-1.71-3.742c-0.198-0.421-0.543-0.417-0.745,0.013c-0.613,1.304-1.204,2.618-1.793,3.933    c-1.094,2.442-2.162,4.896-3.28,7.327c-0.314,0.682-0.375,1.291,0.002,1.951c0.553,0.967,0.763,2.04,1,3.12    c0.5,2.278,1.104,4.533,1.653,6.8c0.113,0.465,0.24,0.941,0.249,1.414c0.023,1.122-0.826,2.152-1.901,2.394    c-0.869,0.196-1.876-0.302-2.396-1.235c-0.404-0.726-0.573-1.536-0.754-2.342c-0.299-1.339-0.625-2.671-0.957-4.002    c-0.025-0.102-0.188-0.224-0.296-0.235c-0.099-0.01-0.263,0.094-0.31,0.191c-0.869,1.789-1.728,3.583-2.583,5.378    c-0.358,0.751-0.8,1.44-1.412,2.01c-0.595,0.554-1.246,0.842-2.054,0.45c-0.858-0.417-1.402-1.257-1.192-2.174    c0.229-0.997,0.602-1.965,0.961-2.928c0.479-1.285,1.009-2.551,1.506-3.83c0.076-0.196,0.038-0.421-0.174-0.513    c-0.102-0.044-0.277,0-0.386,0.062c-1.427,0.822-2.84,1.669-4.275,2.476c-0.536,0.301-1.104,0.567-1.687,0.757    c-0.871,0.283-1.802-0.04-2.163-0.732c-0.384-0.737-0.315-1.498,0.226-2.118c0.492-0.564,1.054-1.084,1.648-1.54    c2.943-2.26,6.074-4.252,9.186-6.263c1.145-0.74,1.922-1.626,2.449-2.893c1.185-2.85,2.508-5.641,3.775-8.457    c0.085-0.189,0.165-0.402-0.056-0.538c-0.096-0.058-0.268-0.049-0.383-0.008c-0.452,0.16-0.902,0.328-1.34,0.522    c-2.385,1.053-4.755,2.139-7.153,3.161c-1.244,0.531-2.209,1.297-2.909,2.479c-1.818,3.075-3.902,5.975-6.03,8.84    c-0.529,0.712-1.139,1.379-1.79,1.981c-0.746,0.689-1.471,0.785-2.056,0.424c-0.844-0.519-1.154-1.288-0.826-2.29    c0.211-0.647,0.518-1.266,0.818-1.88c0.21-0.43,0.507-0.818,0.721-1.246c0.592-1.186,1.623-2.146,1.815-3.535    c-1.392,0.147-2.506,1.028-3.799,1.441c-0.914,0.291-1.803,0.66-2.71,0.974c-0.322,0.111-0.662,0.214-0.999,0.237    c-0.921,0.063-1.574-0.393-2.009-1.173c-0.39-0.701-0.119-1.332,0.277-1.923c0.394-0.587,0.973-0.963,1.592-1.272    c1.289-0.645,2.587-1.272,3.878-1.914c0.675-0.336,1.347-0.679,2.01-1.039c0.09-0.049,0.185-0.231,0.159-0.315    c-0.033-0.109-0.171-0.233-0.287-0.263c-1.394-0.361-2.794-0.698-4.189-1.056c-0.597-0.154-1.211-0.283-1.773-0.527    c-1.156-0.5-1.692-1.594-1.381-2.661c0.351-1.207,1.407-1.962,2.678-1.716c1.952,0.376,3.884,0.86,5.816,1.334    c1.796,0.441,3.637,0.737,5.31,1.593c0.592,0.303,1.196,0.244,1.789-0.022c0.751-0.338,1.5-0.68,2.252-1.016    c2.944-1.316,5.889-2.627,8.829-3.951c0.236-0.106,0.558-0.239,0.469-0.577c-0.043-0.164-0.27-0.281-0.419-0.413    c-0.051-0.045-0.117-0.073-0.179-0.101c-2.88-1.29-5.745-2.616-8.65-3.848c-1.006-0.427-1.925-1.107-3.035-1.244    c-1.087-0.134-1.906,0.698-2.91,0.926c-3.01,0.684-6.007,1.429-9.01,2.146c-0.199,0.048-0.406,0.083-0.609,0.085    c-1.092,0.008-1.982-0.655-2.312-1.707c-0.317-1.009,0.101-2.059,1.133-2.593c0.541-0.28,1.154-0.434,1.749-0.589    c1.527-0.396,3.063-0.756,4.592-1.146c0.179-0.046,0.332-0.192,0.497-0.291c-0.171-0.108-0.335-0.232-0.515-0.321    c-1.848-0.91-3.702-1.806-5.546-2.724c-0.612-0.305-1.228-0.619-1.7-1.141c-0.681-0.753-0.878-1.583-0.498-2.249    c0.49-0.86,1.246-1.276,2.228-1.156c0.469,0.058,0.935,0.22,1.378,0.397c1.592,0.638,3.172,1.306,4.76,1.955    c0.314,0.129,0.639,0.229,0.962,0.331c0.052,0.016,0.16-0.013,0.18-0.052c0.054-0.109,0.138-0.262,0.099-0.347    c-0.14-0.31-0.322-0.602-0.495-0.896c-0.768-1.299-1.56-2.586-2.299-3.901c-0.299-0.533-0.503-1.122-0.721-1.696    c-0.285-0.75,0.035-1.337,0.568-1.839c0.657-0.618,1.333-0.68,2.035-0.125c0.92,0.727,1.726,1.588,2.389,2.547    c1.991,2.879,3.955,5.777,5.882,8.698c0.582,0.882,1.205,1.633,2.205,2.069c2.642,1.152,5.262,2.352,7.895,3.522    c0.437,0.194,0.892,0.354,1.351,0.484c0.23,0.066,0.438-0.09,0.343-0.34c-0.319-0.832-0.666-1.654-1.025-2.469    c-1.023-2.323-2.066-4.637-3.082-6.963c-0.285-0.653-0.697-1.142-1.303-1.535c-2.016-1.307-4.022-2.632-5.998-3.997    c-1.58-1.091-3.116-2.247-4.663-3.384c-0.5-0.367-0.969-0.781-1.26-1.34c-0.34-0.652-0.372-1.326,0.07-1.946    c0.444-0.623,1.098-0.841,1.818-0.664c0.526,0.129,1.045,0.349,1.52,0.612c1.5,0.831,2.979,1.702,4.466,2.557    c0.229,0.132,0.477,0.351,0.721,0.098c0.224-0.232,0.058-0.516-0.04-0.762c-0.455-1.148-0.937-2.285-1.375-3.44    c-0.34-0.897-0.657-1.806-0.934-2.724c-0.267-0.885,0.048-1.622,0.739-2.197c0.66-0.55,1.384-0.584,2.084-0.088    c0.744,0.528,1.268,1.241,1.658,2.064c0.852,1.798,1.871,3.515,2.568,5.387c0.066,0.178,0.244,0.43,0.386,0.44    c0.334,0.025,0.402-0.297,0.463-0.563c0.322-1.404,0.622-2.814,0.968-4.212c0.164-0.662,0.304-1.342,0.697-1.927    c0.607-0.903,1.596-1.343,2.464-1.087c1.086,0.32,1.856,1.357,1.779,2.476c-0.033,0.475-0.166,0.944-0.275,1.411    c-0.611,2.605-1.216,5.212-1.856,7.81c-0.146,0.594-0.356,1.195-0.657,1.724c-0.496,0.87-0.407,1.638,0.009,2.521    c1.2,2.544,2.317,5.126,3.47,7.692c0.506,1.126,1.011,2.253,1.533,3.372c0.134,0.287,0.483,0.272,0.643-0.013    c0.167-0.299,0.322-0.606,0.461-0.918c1.54-3.445,3.055-6.901,4.628-10.331c0.344-0.75,0.465-1.395,0.012-2.125    c-0.439-0.708-0.601-1.522-0.791-2.327c-0.535-2.271-1.114-4.531-1.663-6.799c-0.145-0.599-0.274-1.205-0.359-1.815    c-0.183-1.326,0.436-2.273,1.693-2.652c1.005-0.303,2.186,0.281,2.688,1.386c0.196,0.431,0.286,0.913,0.4,1.377    c0.412,1.665,0.812,3.333,1.224,4.997c0.027,0.109,0.123,0.202,0.187,0.302c0.094-0.094,0.232-0.171,0.275-0.284    c0.781-2.06,1.9-3.958,2.838-5.943c0.326-0.689,0.717-1.329,1.318-1.818c0.577-0.47,1.188-0.637,1.908-0.321    c0.757,0.333,1.223,0.855,1.297,1.7c0.056,0.64-0.145,1.229-0.371,1.8c-0.606,1.531-1.256,3.044-1.866,4.573    c-0.2,0.501-0.328,1.03-0.489,1.546c0.708,0.196,1.061-0.43,1.557-0.699c1.326-0.719,2.615-1.507,3.929-2.251    c0.537-0.305,1.094-0.576,1.731-0.617c0.742-0.048,1.366,0.173,1.765,0.826c0.411,0.669,0.281,1.33-0.168,1.92    c-0.628,0.825-1.413,1.501-2.246,2.108c-1.331,0.971-2.68,1.916-4.042,2.842c-1.703,1.159-3.413,2.308-5.145,3.421    c-0.837,0.538-1.418,1.2-1.818,2.143c-1.23,2.906-2.56,5.769-3.85,8.65c-0.084,0.188-0.156,0.381-0.222,0.575    c-0.02,0.058-0.021,0.139,0.003,0.194c0.066,0.151,0.193,0.196,0.347,0.128c0.817-0.357,1.635-0.713,2.45-1.077    c2.254-1.01,4.5-2.038,6.763-3.029c0.916-0.401,1.582-1.021,2.128-1.857c1.577-2.414,3.187-4.807,4.82-7.184    c0.737-1.073,1.531-2.111,2.355-3.12c0.384-0.47,0.871-0.877,1.371-1.228c0.555-0.389,1.171-0.332,1.741,0.039    c0.566,0.368,0.863,0.902,0.781,1.57c-0.1,0.823-0.385,1.592-0.819,2.308c-0.782,1.291-1.547,2.593-2.315,3.894    c-0.167,0.283-0.543,0.604-0.316,0.898c0.345,0.446,0.745-0.005,1.094-0.141c1.407-0.548,2.798-1.136,4.203-1.687    c0.574-0.225,1.157-0.452,1.757-0.577c1.055-0.219,2.091,0.269,2.452,1.074c0.354,0.79,0.136,1.68-0.702,2.387    c-1.108,0.936-2.397,1.589-3.718,2.179c-1.065,0.476-2.125,0.961-3.177,1.464c-0.211,0.101-0.572,0.185-0.451,0.526    c0.051,0.146,0.316,0.261,0.504,0.306c1.401,0.333,2.809,0.641,4.211,0.967c0.467,0.109,0.937,0.224,1.389,0.383    c1.386,0.489,1.981,1.569,1.619,2.888c-0.318,1.155-1.444,1.892-2.716,1.591c-3.666-0.867-7.415-1.432-10.925-2.888    c-0.834-0.346-1.596-0.185-2.375,0.184c-1.302,0.616-2.625,1.188-3.936,1.788c-2.184,0.999-4.37,1.993-6.541,3.017    c-0.614,0.289-0.614,0.738-0.001,1.027c2.173,1.022,4.359,2.018,6.547,3.007c1.375,0.622,2.766,1.208,4.143,1.825    c0.862,0.386,1.689,0.461,2.56-0.022c1.032-0.572,2.201-0.755,3.332-1.034c2.332-0.575,4.652-1.206,6.999-1.71    c1.741-0.374,3.059,0.78,2.985,2.453c-0.045,1.015-0.576,1.702-1.505,1.995c-1.11,0.35-2.255,0.594-3.388,0.869    c-0.733,0.178-1.477,0.31-2.207,0.498c-0.252,0.065-0.648,0.205-0.68,0.368c-0.08,0.412,0.371,0.48,0.65,0.613    c1.61,0.768,3.227,1.52,4.844,2.274c0.755,0.352,1.428,0.817,2.007,1.417c0.624,0.648,0.887,1.39,0.518,2.254    c-0.323,0.756-1.301,1.241-2.253,1.083c-0.537-0.089-1.068-0.265-1.577-0.466c-1.149-0.452-2.279-0.952-3.424-1.415    c-0.634-0.257-1.278-0.49-1.926-0.707c-0.089-0.03-0.24,0.085-0.343,0.159c-0.037,0.026-0.045,0.141-0.02,0.193    c0.117,0.245,0.242,0.488,0.38,0.722c0.768,1.3,1.559,2.587,2.302,3.901c0.301,0.533,0.552,1.109,0.727,1.695    c0.292,0.972,0.021,1.707-0.699,2.168c-0.693,0.444-1.453,0.364-2.252-0.339c-0.459-0.403-0.852-0.891-1.231-1.374    c-2.377-3.027-4.493-6.239-6.564-9.477c-0.689-1.077-1.481-1.863-2.706-2.366c-2.918-1.198-5.772-2.554-8.652-3.843    c-0.186-0.083-0.405-0.179-0.536,0.055c-0.052,0.092-0.011,0.266,0.039,0.38c1.135,2.574,2.368,5.109,3.389,7.727    c0.763,1.956,2.017,3.295,3.784,4.388c2.624,1.623,5.113,3.464,7.663,5.206c0.8,0.546,1.513,1.189,2.151,1.91    c0.722,0.816,0.863,1.621,0.443,2.233c-0.45,0.658-1.527,1.022-2.406,0.701c-0.703-0.258-1.376-0.62-2.027-0.997    c-1.366-0.79-2.708-1.622-4.064-2.43c-0.111-0.066-0.289-0.153-0.37-0.109c-0.238,0.132-0.128,0.353-0.051,0.54    c0.604,1.458,1.235,2.905,1.809,4.375c0.324,0.828,0.637,1.676,0.81,2.544c0.219,1.097-0.298,1.856-1.309,2.27    c-0.639,0.262-1.212,0.178-1.74-0.23c-0.494-0.382-0.901-0.847-1.178-1.412c-0.935-1.911-1.868-3.823-2.798-5.737    c-0.174-0.359-0.181-0.818-0.624-1.011c-0.125,0.389-0.272,0.773-0.373,1.169c-0.404,1.596-0.78,3.199-1.195,4.793    c-0.155,0.593-0.303,1.215-0.841,1.612c-0.765,0.564-1.565,0.821-2.487,0.325C245.129,81.183,244.751,80.503,244.832,78.994z"/>
	</g>
	<g>
		
			<ellipse transform="matrix(0.9763 -0.2165 0.2165 0.9763 -72.2946 10.9242)" style="fill:#00D5FE;" cx="13.711" cy="335.412" rx="13.711" ry="13.711"/>
		
			<ellipse transform="matrix(0.9729 -0.2311 0.2311 0.9729 6.072 89.8196)" style="fill:#00D5FE;" cx="386.421" cy="18.992" rx="13.711" ry="13.711"/>
		<path style="fill:#00D5FE;" d="M477.796,110.601c0,6.204,5.029,11.233,11.233,11.233c6.204,0,11.233-5.029,11.233-11.233    c0-6.204-5.029-11.233-11.233-11.233C482.825,99.368,477.796,104.397,477.796,110.601z"/>
		<path style="fill:#00D5FE;" d="M199.408,186.107c0,6.204,5.029,11.233,11.233,11.233c6.204,0,11.233-5.029,11.233-11.233    c0-6.204-5.029-11.233-11.233-11.233C204.438,174.874,199.408,179.903,199.408,186.107z"/>
		<path style="fill:#00D5FE;" d="M355.734,483.732c0,6.204,5.029,11.233,11.233,11.233c6.204,0,11.233-5.029,11.233-11.233    s-5.029-11.233-11.233-11.233C360.763,472.499,355.734,477.528,355.734,483.732z"/>
		
			<ellipse transform="matrix(0.8827 -0.47 0.47 0.8827 -93.2454 212.1201)" style="fill:#00D5FE;" cx="378.199" cy="292.807" rx="13.711" ry="13.711"/>
		
			<ellipse transform="matrix(0.987 -0.1609 0.1609 0.987 -12.2587 20.6063)" style="fill:#00D5FE;" cx="121.13" cy="86.01" rx="13.711" ry="13.711"/>
	</g>
</g>















</svg>
