<?xml version="1.0" encoding="UTF-8"?>
<!-- Generator: Adobe Illustrator 25.2.3, SVG Export Plug-In . SVG Version: 6.00 Build 0)  -->
<svg xmlns="http://www.w3.org/2000/svg" xmlns:xlink="http://www.w3.org/1999/xlink" version="1.1" id="Capa_1" x="0px" y="0px" viewBox="0 0 512 512" style="enable-background:new 0 0 512 512;" xml:space="preserve" width="512" height="512">
<g>
	<g>
		<g>
			<g>
				<path style="fill:#6280FF;" d="M482.411,275.945c-25.773,20.954-58.436,20.81-82.933,5.951c-1.795-1.095-3.441-1.523-3.59,0.64      c-2.581,39.177-36.097,64.568-71.782,32.979c-9.036-8.005-9.751-12.556-11.63-8.627c-2.951,6.201-6.221,15.873-15.944,26.285      c-32.142,34.368-76.981,19.333-97.516-22.548c-3.443-7.028-6.585-14.157-8.421-21.865c-1.174-4.941-0.928-2.212-13.293,4.831      c-47.347,26.944-96.71,13.353-120.253-20.577c-8.987-12.966-14.198-28.906-14.064-46.686      c0.153-18.574,6.833-40.407,20.739-58.554c11.266-14.721,20.086-20.607,28.731-26.629c4.435-3.109,4.473-2.057,2.799-7.792      c-16.244-55.666,27.063-98.068,81.081-66.276c7.065,4.158,6.005,5.639,8.958-1.533C206.43,14.13,263.409-5.646,302.192,27.117      c25.219,21.293,27.472,44.252,30.645,49.206c2.966-1.035,5.912-2.05,8.877-3.104c49.648-17.6,103.628,12.638,94.897,68.191      c-0.895,5.734,5-0.033,25.879,8.017c10.43,4.031,19.289,10.099,26.415,17.535C517.043,196.285,518.232,246.83,482.411,275.945z"/>
				<path style="opacity:0.25;fill:#000E3F;" d="M482.411,275.945c-25.773,20.954-58.436,20.81-82.933,5.951      c-1.795-1.095-3.441-1.523-3.59,0.64c-2.581,39.177-36.097,64.568-71.782,32.979c-9.036-8.005-9.751-12.556-11.63-8.627      c-2.951,6.201-6.221,15.873-15.944,26.285c-32.142,34.368-76.981,19.333-97.516-22.548c-3.443-7.028-6.585-14.157-8.421-21.865      c-1.174-4.941-0.928-2.212-13.293,4.831c-47.347,26.944-96.71,13.353-120.252-20.577c10.31-1.063,21.913-2.968,31.013-8.311      c12.604-7.4,21.863-15.852,37.645-15.115c30.897,1.444,36.14,39.608,88.75,18.311c15.474-6.264,18.313-5.898,27.027,8.754      c5.356,9.006,11.931,15.934,21.453,6.809c70.456-66.876,48.21-24.491,94.709-26.97c28.688-1.53,59.041-1.589,85.702-13.702      c12.76-5.797,27.039-15.399,34.228-27.818c8.021-13.857,8.94-32.545,11.329-48.008      C517.043,196.285,518.232,246.83,482.411,275.945z"/>
				<g style="opacity:0.5;">
					<path style="fill:#FFFFFF;" d="M274.254,46.745c-15.557-4.499-33.904-0.578-49.221,12.957       c-11.191,9.946-17.347,22.894-17.143,22.509c-1.584,2.993-5.959,1.168-5.094-2.124c13.132-50,76.176-62.584,98.049-21.93       c1.49,2.766-2.06,5.529-4.147,3.234C296.698,61.39,287.63,50.593,274.254,46.745z"/>
					<path style="fill:#FFFFFF;" d="M68.022,249.11v0.042c0.011,3.352-4.568,4.066-5.486,0.847       c-10.495-36.97,12.011-74.747,45.663-86.717c2.855-1.015,4.83,3.007,2.374,4.826C105.76,174.104,67.823,191.856,68.022,249.11z       "/>
					<path style="fill:#FFFFFF;" d="M124.848,115.958c-2.157,9.795-0.765,21.529-0.786,21.29c0.289,3.277-4.083,4.445-5.341,1.411       c-6.386-15.452-3.986-32.016,1.131-39.922c4.473-6.411,5.342-9.424,16.343-15.585c2.162-0.774,7.137-2.965,12.256-3.099       c8.337-0.603,16.448,1.724,23.143,5.854c2.549,1.572,1.022,5.678-1.87,5.032C144.28,85.26,129.199,96.476,124.848,115.958z"/>
					<path style="fill:#FFFFFF;" d="M380.279,102.544c-9.644-2.752-21.442-2.081-21.202-2.087c-3.288,0.088-4.187-4.347-1.081-5.418       c15.814-5.429,32.201-2.02,39.778,3.572c6.125,4.857,9.08,5.908,14.556,17.265c0.64,2.205,2.523,7.306,2.343,12.423       c0.091,8.358-2.727,16.311-7.26,22.741c-1.725,2.448-5.73,0.673-4.909-2.175C409.73,123.818,399.459,108.079,380.279,102.544z"/>
				</g>
				<path style="fill:#FFFFFF;" d="M345.882,123.238c-0.003-7.15-2.792-13.872-7.849-18.926c-5.057-5.054-11.781-7.835-18.931-7.832      c-7.152-0.002-13.866,2.788-18.926,7.845c-2.588,2.591-4.57,5.622-5.899,8.92c-5.013-3.311-12.643-6.914-22.462-7.291      c-11.514-0.44-20.48,3.814-25.862,7.34c-3.969-9.829-13.594-16.789-24.825-16.785c-7.154,0.001-13.876,2.79-18.925,7.845      c-5.056,5.058-7.84,11.782-7.837,18.932c0.007,14.758,12.018,26.762,26.776,26.757c3.169,0,6.254-0.547,9.145-1.598      c3.636-1.32,6.968-3.431,9.78-6.247c5.056-5.058,7.84-11.781,7.837-18.931c0-0.938-0.052-1.864-0.146-2.778      c4.078-3.079,12.47-8.043,23.791-7.608c9.734,0.374,16.909,4.52,20.939,7.592c-0.093,0.919-0.147,1.846-0.146,2.781      c0.007,14.76,12.019,26.763,26.776,26.759c3.194,0,6.259-0.563,9.1-1.594C338.511,144.683,345.882,134.805,345.882,123.238z       M235.167,137.299c-3.746,3.747-8.731,5.815-14.027,5.815c-10.938,0.004-19.838-8.892-19.84-19.83      c-0.004-5.299,2.059-10.28,5.804-14.028c2.087-2.088,4.555-3.651,7.249-4.63c2.145-0.778,4.431-1.185,6.778-1.186      c10.937-0.004,19.838,8.893,19.84,19.832C240.975,128.569,238.913,133.552,235.167,137.299z M338.948,123.24      c0.003,10.939-8.901,19.839-19.831,19.844c-10.938,0.004-19.838-8.892-19.841-19.832c-0.003-5.297,2.058-10.28,5.804-14.026      c3.751-3.751,8.735-5.814,14.024-5.814c5.3-0.001,10.282,2.059,14.029,5.805C336.88,112.961,338.947,117.941,338.948,123.24z"/>
				<g>
					<g>
						<path style="fill:#FC09B2;" d="M199.157,160.43c7.994-8.892,24.735-9.306,34.645-3.587c9.81,5.662,9.219,18.258-5.729,22.601        C207.598,185.392,188.788,171.964,199.157,160.43z"/>
					</g>
					<g>
						<path style="fill:#FC09B2;" d="M341.113,160.385c-7.999-8.886-24.741-9.291-34.647-3.565        c-9.807,5.668-9.207,18.264,5.743,22.597C332.688,185.353,351.489,171.913,341.113,160.385z"/>
					</g>
				</g>
			</g>
			<g>
				<path style="fill:#000E3F;" d="M256.259,354.507c-2.519,0-5.052-0.187-7.591-0.565c-20.937-3.119-40.277-18.927-51.739-42.292      c-3.141-6.401-6.618-14.059-8.59-22.336c-0.313,0.212-0.653,0.446-0.988,0.676c-1.851,1.273-4.649,3.2-8.89,5.612      c-32.416,18.441-68.851,19.424-97.467,2.63c-25.49-14.959-40.567-41.848-40.333-71.929c0.161-20.71,7.891-42.556,21.211-59.943      c11.083-14.467,19.835-20.561,28.299-26.456l0.963-0.671c0.618-0.431,1.15-0.782,1.608-1.084      c0.444-0.292,0.933-0.615,1.198-0.824c-0.078-0.502-0.381-1.531-0.676-2.532l-0.232-0.789      c-8.34-28.569-1.838-55.412,16.971-70.056c17.682-13.771,42.92-13.35,67.507,1.117c1.414,0.832,2.514,1.558,3.389,2.138      c0.307,0.204,0.635,0.421,0.925,0.608c0.262-0.577,0.585-1.371,0.903-2.148l0.413-1.009      c11.265-27.399,33.42-47.523,59.26-53.834c22.059-5.383,43.835-0.234,61.295,14.52c20.034,16.928,25.914,34.799,29.073,44.4      c0.464,1.407,0.89,2.7,1.273,3.706l0.557-0.196c2.113-0.736,4.226-1.473,6.331-2.221c27.537-9.762,57.076-5.494,77.083,11.124      c17.263,14.338,24.686,35.515,20.893,59.625c-0.012,0.081-0.022,0.154-0.03,0.217c0.565,0.088,1.47,0.151,2.292,0.209      c4.135,0.287,11.058,0.771,22.164,5.055c25.515,9.843,43.345,32.111,47.7,59.565c4.296,27.091-5.852,53.605-27.152,70.923      c-24.837,20.2-58.441,22.603-85.607,6.129c0,0,0,0-0.003,0c-0.045-0.03-0.091-0.055-0.134-0.083      c-1.808,21.771-12.614,39.135-28.41,45.63c-14.712,6.046-31.455,1.725-47.155-12.173c-3.558-3.149-5.897-5.814-7.445-7.576      c-0.3-0.343-0.615-0.703-0.908-1.026c-0.371,0.807-0.751,1.664-1.155,2.569c-2.731,6.154-6.472,14.586-14.838,23.531      C286.161,347.657,271.487,354.507,256.259,354.507z M189.286,283.907c0.355,0,0.711,0.068,1.081,0.212      c1.664,0.641,2.062,2.317,2.486,4.095c1.866,7.841,5.214,15.213,8.245,21.39c10.791,21.993,28.828,36.848,48.252,39.74      c16.358,2.448,32.497-3.875,45.481-17.767c7.829-8.376,11.386-16.391,13.986-22.245c0.55-1.238,1.062-2.393,1.566-3.449      c0.353-0.739,1.18-2.473,3.015-2.728c1.962-0.255,3.184,1.132,5.219,3.454c1.561,1.775,3.694,4.208,7.034,7.163      c14.301,12.659,29.325,16.698,42.307,11.353c14.447-5.94,24.262-22.318,25.614-42.743c0.141-2.098,1.266-2.988,1.926-3.328      c1.836-0.961,3.835,0.03,5.186,0.85c25.46,15.445,56.968,13.181,80.265-5.761c19.996-16.262,29.527-41.155,25.493-66.589      c-4.092-25.8-20.833-46.719-44.785-55.957c-10.453-4.034-16.938-4.486-20.813-4.755c-2.773-0.194-4.606-0.323-5.806-1.828      c-0.993-1.248-0.908-2.768-0.721-3.956c3.525-22.429-3.32-42.077-19.272-55.329c-18.758-15.574-46.56-19.537-72.56-10.32      c-2.116,0.751-4.233,1.49-6.354,2.231l-2.526,0.882c-1.019,0.353-2.143-0.033-2.726-0.94c-0.872-1.364-1.566-3.472-2.526-6.389      c-3.015-9.165-8.628-26.224-27.658-42.302c-16.295-13.774-36.601-18.589-57.192-13.554c-24.401,5.96-45.36,25.056-56.065,51.089      l-0.406,0.993c-1.296,3.174-1.947,4.768-3.727,5.317c-1.692,0.509-3.071-0.393-4.975-1.659      c-0.819-0.542-1.851-1.226-3.174-2.007c-23.228-13.663-45.93-14.187-62.298-1.455c-17.271,13.448-23.158,38.389-15.362,65.089      l0.227,0.779c1.432,4.866,1.382,6.038-2.42,8.545c-0.429,0.285-0.931,0.615-1.51,1.019l-0.963,0.673      c-8.174,5.69-16.625,11.575-27.265,25.465c-12.72,16.602-20.102,37.436-20.253,57.154      c-0.222,28.402,13.996,53.779,38.036,67.885c27.169,15.945,61.864,14.949,92.816-2.66c4.069-2.315,6.77-4.173,8.555-5.401      C186.705,284.794,187.993,283.907,189.286,283.907z M438.852,142.474L438.852,142.474L438.852,142.474z"/>
				<path style="fill:#000E3F;" d="M219.567,114.213c-9.723,2.243-11.634,15.3-3.938,20.963c9.567,7.038,23.324-1.723,18.83-13.029      C231.904,115.723,225.252,112.902,219.567,114.213z"/>
				<path style="fill:#000E3F;" d="M320.637,114.181c-5.688-1.307-12.337,1.518-14.887,7.944      c-4.489,11.308,9.276,20.061,18.838,13.017C332.279,129.475,330.361,116.418,320.637,114.181z"/>
				<path style="fill:#000E3F;" d="M286.606,133.639c-14.162-3.359-30.486-1.242-34.839,0.637      c-6.909,2.948-4.795,11.606-1.428,17.159c0.626,1.069,20.921,7.304,20.921,7.304l18.82-7.134      c1.956-2.869,3.076-6.311,2.97-10.327C292.969,137.601,290.961,134.681,286.606,133.639z"/>
			</g>
			<path style="fill:#FF8EDE;" d="M290.079,151.606c-7.715,11.294-28.29,13.335-37.76,2.62c-0.678-0.782-1.356-1.721-1.982-2.789     c4.587-5.869,11.757-9.627,19.789-9.629C278.264,141.804,285.487,145.635,290.079,151.606z"/>
		</g>
		<g>
			<g>
				<g>
					<path style="fill:#FFFFFF;" d="M238.524,222.659c-2.225-1.756-4.177-4.14-5.321-7.128c-1.125-2.978-1.221-6.524-0.195-9.646       c2.07-6.348,7.27-10.548,12.664-12.901c5.13-1.952,8.687-3.637,9.34-6.272c0.384-1.26,0.138-3.004-0.862-4.445       c-0.998-1.521-2.645-2.739-4.354-3.051l-0.316-0.057c-1.12-0.205-1.863-1.279-1.658-2.399c0.155-0.852,0.814-1.484,1.613-1.65       c3.501-0.722,6.863,0.78,9.291,3.031c2.47,2.349,4.058,5.986,3.529,9.834c-0.412,3.855-3.187,7.045-5.772,8.806       c-2.663,1.84-5.435,2.786-7.583,3.756c-3.997,1.619-7.497,4.46-9.128,7.864c-0.78,1.708-1.118,3.555-0.819,5.529       c0.249,1.989,1.181,4.033,2.409,6.088l0.059,0.098c0.556,0.928,0.253,2.132-0.676,2.687       C240.027,223.231,239.144,223.145,238.524,222.659z"/>
					<path style="fill:#FFFFFF;" d="M269.108,217.632c-2.225-1.756-4.178-4.14-5.321-7.128c-1.125-2.978-1.221-6.524-0.195-9.645       c2.071-6.348,7.27-10.548,12.664-12.901c5.13-1.952,8.687-3.637,9.34-6.272c0.384-1.26,0.138-3.004-0.862-4.445       c-0.998-1.521-2.645-2.739-4.354-3.051l-0.316-0.057c-1.12-0.205-1.863-1.279-1.659-2.399c0.155-0.851,0.814-1.484,1.613-1.65       c3.501-0.722,6.863,0.78,9.291,3.031c2.47,2.349,4.058,5.986,3.529,9.834c-0.412,3.855-3.187,7.045-5.772,8.807       c-2.663,1.84-5.435,2.785-7.583,3.755c-3.997,1.619-7.497,4.46-9.129,7.864c-0.78,1.708-1.118,3.556-0.819,5.529       c0.249,1.989,1.181,4.033,2.409,6.087l0.059,0.098c0.556,0.928,0.253,2.132-0.676,2.687       C270.611,218.204,269.728,218.118,269.108,217.632z"/>
				</g>
				<g>
					<path style="fill:#FF8EDE;" d="M283.644,265.559c6.582-12.489,13.541-26.929,26.473-32.784       c28.26-12.336,43.736,11.992,37.283,39.158c-5.78,23.599-28.989,45.748-53.754,54.673       c17.459-16.824,40.743-42.62,40.598-66.828c0.064-7.81-2.152-16.06-9.785-17.572c-13.733-2.369-25.275,9.725-32.544,16.261       C289.255,260.886,286.571,263.366,283.644,265.559z"/>
					<path style="fill:#000E3F;" d="M324.348,229.479c18.98,0,28.319,20.28,23.051,42.454       c-5.779,23.599-28.988,45.748-53.753,54.673c17.46-16.824,40.742-42.62,40.597-66.828c0.064-7.81-2.152-16.06-9.785-17.573       c-1.196-0.206-2.378-0.303-3.539-0.303c-12.175,0-22.368,10.598-29.004,16.564c-2.66,2.42-5.344,4.899-8.27,7.092       c6.582-12.489,13.541-26.929,26.472-32.784C315.311,230.508,320.075,229.479,324.348,229.479 M324.348,224.832       c-5.077,0-10.49,1.239-16.091,3.684c-13.696,6.2-21.07,20.275-27.577,32.693l-1.146,2.183       c-1.013,1.922-0.558,4.291,1.094,5.702c0.866,0.739,1.941,1.112,3.017,1.112c0.978,0,1.959-0.308,2.787-0.929       c2.9-2.173,5.52-4.56,8.054-6.868l0.556-0.506c0.647-0.582,1.349-1.227,2.084-1.904c6.174-5.677,14.631-13.451,23.793-13.451       c0.918,0,1.843,0.08,2.748,0.236c5.228,1.037,5.964,8.563,5.929,12.954c0.102,17.264-12.712,38.02-39.176,63.52       c-1.578,1.521-1.88,3.939-0.721,5.801c0.868,1.395,2.377,2.193,3.947,2.193c0.526,0,1.058-0.09,1.575-0.276       c27.448-9.892,50.761-33.717,56.692-57.939c3.454-14.541,1.17-28.699-6.105-37.905       C340.482,228.394,333.062,224.832,324.348,224.832L324.348,224.832z"/>
				</g>
				<g>
					<g>
						<path style="fill:#FF8EDE;" d="M299.393,224.736c7.749,58.199,11.755,88.306,15.08,113.215        c0.556,4.064-2.127,7.834-6.172,8.693l-50.91,10.805c-4.046,0.859-8.029-1.497-9.195-5.432        c-0.025-0.086-34.203-116.469-32.182-109.585c-1.163-3.959,1.555-8.163,5.861-9.077l68.453-14.528        C294.634,217.912,298.848,220.646,299.393,224.736z"/>
						<g>
							<path style="fill:#FC09B2;" d="M242.989,238.599c4.162-4.554,11.912-1.049,16.328,4.262c0.141,0.17,0.282,0.475,0.501,0.385         c0.363-0.147,0.685-3.27,3.25-6.874c6.995-9.833,17.768-3.113,15.526,8.639c-0.775,4.063-2.3,7.85-4.629,11.264         c-2.2,3.225-4.601,6.305-7.417,9.034c-1.527,1.48-1.807,1.549-3.824,0.806c-2.973-1.095-5.817-2.463-8.546-4.072         c-0.559-0.33-1.159-0.594-1.708-0.939C244.217,255.925,236.57,245.622,242.989,238.599z"/>
							<path style="fill:#FC09B2;" d="M259.669,315.893c4.162-4.553,11.912-1.049,16.328,4.263c0.141,0.17,0.282,0.475,0.5,0.386         c0.363-0.148,0.686-3.27,3.25-6.875c6.995-9.833,17.768-3.113,15.526,8.639c-0.775,4.063-2.3,7.85-4.629,11.264         c-2.2,3.225-4.601,6.305-7.417,9.034c-1.527,1.48-1.807,1.549-3.824,0.806c-2.973-1.095-5.817-2.463-8.546-4.072         c-0.559-0.33-1.159-0.594-1.708-0.939C260.897,333.218,253.251,322.916,259.669,315.893z"/>
						</g>
						<path style="fill:#FFFFFF;" d="M251.15,276.415c4.162-4.553,11.912-1.049,16.328,4.263c0.142,0.17,0.282,0.474,0.501,0.386        c0.363-0.147,0.685-3.27,3.25-6.875c6.995-9.833,17.768-3.113,15.526,8.64c-0.775,4.063-2.3,7.85-4.629,11.264        c-2.2,3.225-4.601,6.305-7.417,9.034c-1.527,1.48-1.807,1.549-3.824,0.806c-2.973-1.096-5.817-2.463-8.546-4.072        c-0.559-0.33-1.159-0.594-1.708-0.939C252.378,293.741,244.731,283.438,251.15,276.415z"/>
						<path style="opacity:0.5;fill:#FC09B2;" d="M299.393,224.736c0.03,0.222,15.116,113.476,15.08,113.215        c0.556,4.064-2.127,7.834-6.172,8.693l-50.91,10.805c-4.046,0.859-8.029-1.497-9.195-5.432c0,0-2.489-8.483-2.488-8.483        c11.456-4.908,24.205-7.797,33.978-15.798c11.498-9.414,11.587-20.827,10.903-34.194c-1.224-24.59-5.307-49.467-10.041-72.64        l9.78-2.076C294.634,217.912,298.848,220.646,299.393,224.736z"/>
					</g>
					<path style="fill:#000E3F;" d="M255.686,359.951c-4.437,0-8.408-2.857-9.719-7.274l-1.639-5.59       c-6.329-21.544-28.886-98.365-30.533-103.967c-0.005-0.01-0.007-0.023-0.01-0.033c-0.008-0.023-0.013-0.046-0.02-0.066       c-0.038-0.131-0.06-0.207-0.066-0.222h0.005c-0.61-2.365-0.24-4.843,1.054-7.014c1.432-2.4,3.85-4.112,6.636-4.704       l68.453-14.53c2.786-0.58,5.711-0.005,7.997,1.614c2.148,1.515,3.515,3.742,3.853,6.263l0,0l3.457,25.977       c5.559,41.765,8.829,66.335,11.621,87.239c0.729,5.302-2.708,10.151-7.99,11.273l-50.912,10.806       C257.139,359.875,256.405,359.951,255.686,359.951z M218.324,242.17c0.257,0.751,0.535,1.699,0.88,2.877l31.221,106.314       c0.827,2.781,3.648,4.412,6.482,3.815l50.912-10.806c2.874-0.61,4.745-3.235,4.352-6.104       c-2.794-20.914-6.064-45.481-11.623-87.249l-3.459-25.974c-0.161-1.225-0.845-2.32-1.924-3.081       c-1.233-0.875-2.826-1.2-4.354-0.862l-68.452,14.53c-1.523,0.323-2.836,1.248-3.608,2.536       c-0.673,1.132-0.855,2.408-0.509,3.598l0.003,0.015C218.281,241.907,218.309,242.039,218.324,242.17z"/>
				</g>
			</g>
			<g>
				<path style="fill:#6280FF;" d="M358.06,198.967c-4.281,1.148-8.584,2.799-12.794,4.973      c-23.796,12.288-35.63,36.613-26.432,54.331s35.944,22.12,59.74,9.832c7.105-3.669,13.144-8.411,17.875-13.731"/>
				<path style="fill:#000E3F;" d="M351.168,277.355c-15.11,0-28.316-6.303-34.395-18.012c-3.905-7.526-4.45-16.285-1.576-25.331      c4.145-13.045,14.717-24.759,29.002-32.136c4.271-2.204,8.731-3.938,13.259-5.153c1.225-0.335,2.516,0.398,2.847,1.641      c0.333,1.241-0.401,2.514-1.642,2.847c-4.208,1.13-8.358,2.743-12.331,4.796c-13.005,6.714-22.989,17.712-26.708,29.413      c-2.491,7.846-2.052,15.377,1.273,21.782c8.592,16.555,33.987,20.523,56.61,8.839c6.601-3.409,12.548-7.975,17.203-13.209      c0.852-0.958,2.325-1.044,3.28-0.194c0.961,0.852,1.046,2.322,0.194,3.28c-5.1,5.738-11.34,10.534-18.544,14.253      C370.231,275.026,360.348,277.355,351.168,277.355z"/>
			</g>
			<g>
				<path style="fill:#6280FF;" d="M182.188,198.967c4.281,1.148,8.584,2.799,12.794,4.973      c23.796,12.288,35.63,36.613,26.432,54.331c-9.198,17.718-35.944,22.12-59.74,9.832c-7.105-3.669-13.144-8.411-17.875-13.731"/>
				<path style="fill:#000E3F;" d="M189.081,277.355c-9.182,0-19.063-2.327-28.473-7.186c-7.201-3.719-13.441-8.514-18.546-14.25      c-0.852-0.961-0.766-2.428,0.192-3.283c0.96-0.85,2.425-0.764,3.283,0.192c4.657,5.237,10.605,9.805,17.205,13.211      c22.626,11.678,48.018,7.713,56.61-8.839c3.325-6.404,3.764-13.935,1.27-21.779c-3.716-11.704-13.703-22.699-26.708-29.415      c-3.971-2.053-8.118-3.666-12.329-4.796c-1.24-0.333-1.974-1.606-1.641-2.847c0.333-1.245,1.624-1.982,2.846-1.641      c4.531,1.215,8.991,2.95,13.257,5.153c14.288,7.38,24.86,19.094,29.005,32.139c2.874,9.046,2.33,17.803-1.576,25.329      C217.397,271.049,204.188,277.355,189.081,277.355z"/>
			</g>
		</g>
	</g>
	<g>
		
			<ellipse transform="matrix(0.9239 -0.3827 0.3827 0.9239 -96.33 208.0841)" style="fill:#6280FF;" cx="474.888" cy="346.183" rx="22.186" ry="22.186"/>
		<path style="fill:#6280FF;" d="M338.071,479.845c0,12.253,9.933,22.186,22.186,22.186c12.253,0,22.186-9.933,22.186-22.186    c0-12.253-9.933-22.186-22.186-22.186C348.004,457.659,338.071,467.592,338.071,479.845z"/>
		
			<ellipse transform="matrix(0.7071 -0.7071 0.7071 0.7071 -224.039 151.4881)" style="fill:#6280FF;" cx="70.843" cy="346.183" rx="22.186" ry="22.186"/>
		<circle style="fill:#6280FF;" cx="104.864" cy="466.459" r="22.186"/>
		
			<ellipse transform="matrix(0.2898 -0.9571 0.9571 0.2898 -204.2858 568.8759)" style="fill:#6280FF;" cx="281.169" cy="422.087" rx="22.186" ry="22.186"/>
	</g>
	<g>
		
			<ellipse transform="matrix(0.994 -0.1091 0.1091 0.994 -40.3004 44.0756)" style="fill:#00D5FE;" cx="382.578" cy="390.271" rx="16.759" ry="16.76"/>
		
			<ellipse transform="matrix(0.3827 -0.9239 0.9239 0.3827 -122.2162 723.0511)" style="fill:#00D5FE;" cx="479.953" cy="452.98" rx="16.759" ry="16.759"/>
		
			<ellipse transform="matrix(0.1602 -0.9871 0.9871 0.1602 -252.3016 502.1457)" style="fill:#00D5FE;" cx="168.95" cy="399.345" rx="16.759" ry="16.759"/>
		<circle style="fill:#00D5FE;" cx="16.759" cy="416.105" r="16.759"/>
		
			<ellipse transform="matrix(0.1891 -0.982 0.982 0.1891 -315.1154 591.4073)" style="fill:#00D5FE;" cx="200.526" cy="486.499" rx="16.759" ry="16.759"/>
	</g>
</g>















</svg>
