<?xml version="1.0" encoding="UTF-8"?>
<!-- Generator: Adobe Illustrator 25.2.3, SVG Export Plug-In . SVG Version: 6.00 Build 0)  -->
<svg xmlns="http://www.w3.org/2000/svg" xmlns:xlink="http://www.w3.org/1999/xlink" version="1.1" id="Capa_1" x="0px" y="0px" viewBox="0 0 512 512" style="enable-background:new 0 0 512 512;" xml:space="preserve" width="512" height="512">
<g>
	<g>
		<g>
			<path style="fill:#FF8EDE;" d="M466.584,424.05c-10.182,7.693-27.199,5.806-38.988,5.108     c-27.474-1.637-54.667-6.19-81.698-11.262c-12.561-2.358-25.972-3.894-38.006-8c-8.559-2.918-18.421-5.106-25.717-10.865     c-1.093-0.853-2.134-1.795-3.102-2.823c-0.815-0.887-1.547-1.801-2.174-2.775c-10.714-16.381,3.718-45.355,11.917-59.65     c12.213-21.279,31.107-39.078,53.619-49.026c34.745-15.315,72.849-7.573,99.79,18.965c0.692,0.673,1.383,1.366,2.07,2.077     c5.378,5.575,10.205,11.803,14.411,18.518c11.954,19.029,18.807,42.03,18.156,65.705     C476.549,401.464,475.752,417.113,466.584,424.05z"/>
			<path style="fill:#FC09B2;" d="M452.239,371.974c-2.835-5.604-4.618-20.524-7.748-20.963c0.213,0.164-0.436-0.325-3.702,1.726     c-9.694,6.086-21.347,19.192-29.366,2.355c-1.851-3.955-3.587-9.631-5.468-13.187c-1.341-2.542-2.16-2.617-1.733-2.46     c0.252,0.021,0.274,0.033,0.186,0.046c-5.178,2.423-11.078,11.002-17.869,14.079c-13.52,5.882-18.205-15.049-23.77-20.338     c-0.214-0.186-0.417-0.348-0.437-0.344c-0.084-0.053,0.185,0.056,0.311,0.038c0.363-0.043-0.789-0.761-7.152,7.102     c-3.854,4.746-8.433,11.055-14.322,10.816c-7.848-0.44-12.772-10.502-17.989-16.579c-2.361-2.755-3.146-2.575-2.881-2.633     c-3.32-0.247-9.337,13.061-13.853,17.602c-3.922,3.803-6.921,2.828-7.279,0.573c-0.355-2.216,2.23-2.96,2.018-2.798     c4.785-1.864,10.96-30.167,24.325-20.783c5.272,3.72,10.669,12.917,14.816,15.561c0.647,0.423,1.116,0.484,1.123,0.457     c-0.305,0.001,0.016-0.006,0.625-0.493c2.964-2.31,7.194-9.065,11.277-13.3c14.148-14.431,20.76,5.937,26.3,13.891     c1.83,2.634,2.696,2.777,2.461,2.685c-0.315-0.005,0.978,0.416,7.797-5.951c4.458-4.14,10.122-9.934,15.95-8.79     c6.333,1.189,8.972,8.626,11.13,14.706c0.873,2.489,2.375,7.012,3.689,9.06c0.431,0.713,0.846,0.954,0.562,0.828     c-0.201,0.042,0.822,0.334,3.593-1.054c7.405-3.718,15.659-11.931,22.163-9.332c9.293,3.87,7.188,24.5,10.736,27.182l0.325,0.246     c0.992,0.75,1.187,2.162,0.438,3.153C456.679,377.471,453.594,374.741,452.239,371.974z"/>
			<g>
				<path style="fill:#FFFFFF;" d="M421.068,380.621c-46.945-11.915-84.653-15.323-132.309-14.141      c-2.992,0.085-3.422-4.319-0.453-4.805c58.613-9.461,125.547,1.52,177.207,27.906c1.119,0.571,1.562,1.941,0.992,3.06      C464.625,396.317,461.489,391.14,421.068,380.621z"/>
				<path style="fill:#FFFFFF;" d="M386.065,317.269c-29.764-4.782-61.82-3.372-60.552-3.396c-2.915,0.056-3.409-4.17-0.566-4.792      c40.968-8.991,88.438-0.323,121.789,19.009c2.368,1.372,0.718,5.008-1.87,4.134      C435.282,328.989,405.925,320.053,386.065,317.269z"/>
			</g>
			<path style="opacity:0.5;fill:#FC09B2;" d="M466.584,424.05c-10.182,7.693-27.199,5.806-38.988,5.108     c-27.474-1.637-54.667-6.19-81.698-11.262c-12.561-2.358-25.972-3.894-38.006-8c-8.559-2.918-18.421-5.106-25.717-10.865     c7.276-11.265,15.095-19.036,29.241-23.558c34.196-10.942,102.858,26.106,132.099,2.548     c16.602-13.367,17.818-33.312,15.191-53.704c11.954,19.029,18.807,42.03,18.156,65.705     C476.549,401.464,475.752,417.113,466.584,424.05z"/>
			<g>
				<path style="fill:#000E3F;" d="M378.785,276.965c23.22-0.001,45.738,9.321,63.44,26.758c0.693,0.673,1.382,1.365,2.07,2.077      c5.377,5.575,10.206,11.803,14.411,18.518c11.954,19.029,18.808,42.03,18.156,65.706c-0.313,11.44-1.109,27.089-10.278,34.026      c-6.232,4.709-15.024,5.829-23.612,5.829c-5.442,0-10.801-0.45-15.375-0.72c-27.474-1.637-54.667-6.19-81.699-11.262      c-12.561-2.358-25.972-3.894-38.005-8c-8.56-2.918-18.422-5.106-25.717-10.865c-1.093-0.853-2.133-1.795-3.102-2.823      c-0.815-0.887-1.547-1.8-2.175-2.775c-10.714-16.381,3.719-45.355,11.917-59.65c12.213-21.279,31.108-39.077,53.62-49.026      C354.351,279.506,366.665,276.965,378.785,276.965 M378.787,273.145h-0.002c-12.923,0-25.671,2.731-37.891,8.117      c-22.758,10.058-42.428,28.035-55.392,50.62c-11.387,19.855-22.678,47.013-11.801,63.642c0.694,1.079,1.536,2.156,2.559,3.268      c1.116,1.185,2.305,2.267,3.564,3.25c6.325,4.992,14.033,7.408,21.488,9.745c1.814,0.569,3.607,1.131,5.346,1.723      c9.246,3.154,19.199,4.827,28.825,6.444c3.209,0.539,6.527,1.097,9.709,1.694c26.056,4.889,54.046,9.645,82.175,11.321      c0.995,0.059,2.027,0.126,3.088,0.196c3.814,0.249,8.139,0.532,12.514,0.532c11.72,0,19.955-2.097,25.915-6.601      c10.159-7.686,11.414-23.113,11.794-36.97c0.647-23.482-6.008-47.576-18.74-67.842c-4.377-6.99-9.39-13.431-14.896-19.138      c-0.718-0.743-1.436-1.464-2.157-2.165C426.669,283.038,403.188,273.145,378.787,273.145L378.787,273.145z"/>
			</g>
		</g>
		<g>
			<g>
				<path style="fill:#6280FF;" d="M423.682,274.684c2.361,6.992-3.872,12.867-9.818,10.788c-0.838-0.293-0.755,0.206-0.989,1.701      c-0.962,6.573-8.264,8.628-13.162,4.945c-0.543-0.409-0.616-0.373-0.952,0.215c-2.025,3.49-5.827,4.832-7.709,4.611      c-2.852-0.325-3.827-0.518-5.267-1.629c-2.327-1.782-3.031-3.492-3.56-5.674c-0.257-1.032-0.84,0.017-3.355,0.089      c-6.438,0.2-9.773-5.48-8.451-9.695c0.434-1.39,0.169-1.384-0.749-1.42c-3.838-0.149-6.483-2.784-7.312-5.938      c-0.587-2.239-0.263-4.74,1.195-6.806c1.052-1.503,0.839-1.003-0.834-2.216c-5.851-4.238-4.741-13.859,3.618-15.81      c1.226-0.287,0.115-0.259-0.066-3.716c-0.111-2.009,0.582-3.757,1.768-5.34c1.76-2.357,4.194-3.157,7.02-3.058      c1.142,0.037,2.322,1.376,2.395-0.509c0.129-3.322,1.97-6.158,5.721-7.218c4.492-1.267,7.472,1.468,7.827,1.658      c0.467,0.249,0.67-0.226,0.918-0.646c3.844-6.398,13.154-5.628,15.836,1.3c0.264,0.683,0.25,1.463,0.751,2.055      c0.674-0.124,1.352-0.268,2.03-0.377c2.677-0.411,5.034,0.181,6.965,1.82c0.375,0.322,0.731,0.675,1.074,1.073      c3.668,4.294-0.091,8.464,2.063,8.161c0.945-0.129,1.777,0.163,2.633,0.473c3.16,1.157,4.651,3.578,5.076,6.763      c0.309,2.296-0.471,4.3-1.811,6.129c-0.851,1.163,0.976,0.49,3.239,3.585c3.656,5.015,1.082,12.354-5.62,13.809      C423.486,273.951,423.457,274.007,423.682,274.684z"/>
				<path style="opacity:0.25;fill:#000E3F;" d="M423.682,274.684c2.361,6.992-3.872,12.867-9.818,10.788      c-0.838-0.293-0.755,0.206-0.989,1.701c-0.962,6.573-8.264,8.628-13.162,4.945c-0.543-0.409-0.616-0.373-0.952,0.215      c-2.025,3.49-5.827,4.832-7.709,4.611c-2.852-0.325-3.827-0.518-5.267-1.629c-2.327-1.782-3.031-3.492-3.56-5.674      c-0.257-1.032-0.84,0.017-3.355,0.089c-6.438,0.2-9.773-5.48-8.451-9.695c0.434-1.39,0.169-1.384-0.749-1.42      c-3.838-0.149-6.483-2.784-7.312-5.938c3.1-3.673,6.461-6.204,12.107-6.528c6.361-0.36,8.517,1.908,13.823,2.639      c2.041,0.286,4.041,0.188,5.978-0.542c4.295-1.602,7.361-4.071,8.429-8.474c0.564-2.348,1.246-4.678,1.424-7.108      c1.06-9.865,6.684-16.592,13.383-18.85c0.375,0.322,0.731,0.675,1.074,1.073c3.668,4.294-0.091,8.464,2.063,8.161      c0.945-0.129,1.777,0.163,2.633,0.473c3.16,1.157,4.651,3.578,5.076,6.763c0.309,2.296-0.471,4.3-1.811,6.129      c-0.851,1.163,0.976,0.49,3.239,3.585c3.656,5.015,1.082,12.354-5.62,13.809C423.486,273.951,423.457,274.007,423.682,274.684z"/>
				<path style="opacity:0.5;fill:#FFFFFF;" d="M398.152,233.929c0.154,1.9-0.047,3.919-0.834,5.935      c-0.79,1.994-2.326,3.941-4.329,5.135c-1.571,1.008-3.384,1.488-5.205,1.797c-2.514,0.425-5.547,0.602-7.02,2.977      c-0.559,0.877-0.85,2.374-1.414,4.214c-0.277,0.902-0.604,1.959-1.198,2.984c-0.559,1.034-1.428,2.045-2.403,2.774      c-2.066,1.534-4.241,1.65-6.168,1.705c-0.93,0.027-1.706-0.706-1.733-1.637c-0.019-0.678,0.364-1.275,0.934-1.559l0.295-0.145      c1.406-0.697,2.818-1.266,3.345-2.164c0.604-0.788,0.815-1.755,1.058-3.317c0.214-1.528,0.409-3.525,1.391-5.77      c2.221-5.035,7.763-6.178,12.706-6.499c0.285-0.019,0.577-0.023,0.855-0.088c0.604-0.138,1.212-0.251,1.745-0.474      c1.065-0.439,2.015-1.122,2.814-2.208c0.836-1.06,1.435-2.482,2.006-4.014l0.03-0.08c0.312-0.837,1.243-1.263,2.08-0.951      C397.712,232.77,398.102,233.323,398.152,233.929z"/>
			</g>
			<g>
				<path style="fill:#000E3F;" d="M399.542,224.638c3.401,0,6.769,1.945,8.214,5.677c0.264,0.683,0.25,1.463,0.752,2.055      c0.674-0.124,1.351-0.268,2.03-0.377c0.546-0.084,1.079-0.126,1.597-0.126c2.023,0,3.83,0.641,5.367,1.946      c0.375,0.322,0.731,0.675,1.074,1.073c3.542,4.145,0.161,8.176,1.861,8.176c0.061,0,0.128-0.005,0.202-0.016      c0.157-0.021,0.311-0.031,0.462-0.031c0.76,0,1.457,0.246,2.171,0.504c3.161,1.157,4.65,3.577,5.077,6.763      c0.309,2.296-0.472,4.3-1.811,6.129c-0.851,1.163,0.975,0.49,3.239,3.585c3.656,5.014,1.082,12.354-5.621,13.809      c-0.67,0.145-0.7,0.201-0.475,0.877c2.033,6.02-2.306,11.212-7.345,11.212c-0.814,0-1.646-0.135-2.472-0.424      c-0.151-0.053-0.272-0.08-0.372-0.08c-0.447,0-0.425,0.557-0.617,1.782c-0.642,4.386-4.107,6.76-7.797,6.76      c-1.84,0-3.735-0.59-5.365-1.816c-0.237-0.178-0.386-0.272-0.504-0.272c-0.153,0-0.259,0.156-0.448,0.488      c-1.883,3.247-5.304,4.634-7.288,4.634c-0.149,0-0.291-0.007-0.422-0.023c-2.851-0.325-3.826-0.519-5.266-1.629      c-2.328-1.782-3.031-3.492-3.56-5.674c-0.084-0.337-0.202-0.452-0.411-0.452c-0.432,0-1.249,0.492-2.944,0.54      c-0.111,0.003-0.22,0.005-0.329,0.005c-6.222,0-9.422-5.558-8.123-9.7c0.434-1.39,0.17-1.384-0.749-1.42      c-3.838-0.149-6.483-2.785-7.312-5.938c-0.588-2.239-0.263-4.74,1.195-6.806c1.053-1.503,0.839-1.003-0.834-2.216      c-5.85-4.238-4.741-13.859,3.618-15.81c1.225-0.287,0.114-0.259-0.067-3.716c-0.111-2.009,0.582-3.757,1.769-5.34      c1.664-2.23,3.934-3.066,6.568-3.066c0.15,0,0.301,0.002,0.452,0.008c0.673,0.022,1.359,0.496,1.825,0.496      c0.323,0,0.54-0.23,0.571-1.005c0.129-3.322,1.97-6.158,5.721-7.218c0.839-0.237,1.626-0.334,2.352-0.334      c3.162,0,5.187,1.837,5.475,1.992c0.089,0.048,0.17,0.069,0.242,0.069c0.304,0,0.475-0.375,0.676-0.715      C393.694,226.064,396.63,224.638,399.542,224.638 M399.542,220.818c-3.554,0-6.853,1.467-9.234,4.021      c-1.259-0.542-2.868-0.99-4.78-0.99c-1.127,0-2.266,0.161-3.39,0.477c-4.038,1.141-6.867,3.882-7.983,7.581      c-3.897,0.111-6.983,1.655-9.177,4.595c-1.824,2.433-2.674,5.071-2.522,7.835c0.015,0.286,0.035,0.557,0.06,0.811      c-3.697,1.742-6.238,4.896-7.037,8.859c-0.869,4.316,0.601,8.764,3.78,11.736c-1.073,2.45-1.299,5.229-0.596,7.903      c1.06,4.036,3.921,7.031,7.647,8.225c-0.018,2.364,0.756,4.766,2.247,6.796c2.281,3.106,5.92,4.887,9.984,4.887      c0.148,0,0.297-0.002,0.448-0.007c0.175-0.005,0.345-0.013,0.509-0.025c0.775,1.712,1.952,3.285,3.966,4.826      c2.285,1.762,4.116,2.044,7.154,2.391c0.258,0.03,0.547,0.048,0.855,0.048c2.589,0,6.076-1.279,8.71-4.033      c1.56,0.656,3.226,1,4.895,1c5.258,0,9.586-3.218,11.119-8.039c0.046,0,0.093,0.001,0.139,0.001c3.682,0,7.2-1.838,9.41-4.916      c1.733-2.414,2.49-5.324,2.21-8.289c2.999-1.434,5.316-3.894,6.484-6.965c1.509-3.965,0.919-8.375-1.576-11.798      c-0.556-0.759-1.108-1.367-1.623-1.856c0.873-1.99,1.174-4.038,0.894-6.117c-0.823-6.151-4.56-8.747-7.55-9.841      c-0.157-0.057-0.324-0.118-0.502-0.179c0.058-2.018-0.358-4.723-2.602-7.349c-0.47-0.548-0.955-1.032-1.491-1.491      c-2.215-1.88-4.924-2.867-7.854-2.867c-0.385,0-0.779,0.017-1.175,0.05C408.873,223.647,404.484,220.818,399.542,220.818      L399.542,220.818z"/>
			</g>
		</g>
		<g>
			<g>
				<path style="fill:#6280FF;" d="M476.462,462.792c-0.933,6.825-2.004,14.155-7.255,18.59      c-15.015,12.681-170.005-11.798-204.808-27.436c-3.056-1.375-6.709-3.291-8.392-5.969c-1.947-3.109-2.504-6.643-2.419-10.291      c0.071-3.183,0.644-6.462,1.216-9.624c0.438-3.787,2.952-19.089,6.603-28.838c3.32-8.886,5.887-18.181,17.401-16.727      c29.293,1.96,118.282,16.157,163.093,24.346c13.501,2.447,22.977,4.36,25.627,5.223c11.407,2.138,11.008,11.773,11.47,21.251      C479.484,443.753,477.179,459.088,476.462,462.792z"/>
				<g>
					<path style="fill:#322BBF;" d="M431.154,469.642l-0.017,0.045c-0.729,2.002-3.702,1.56-3.808-0.578       c-0.641-13.455,2.977-35.886,7.417-47.942c0.694-1.881,3.484-1.459,3.587,0.545       C438.263,422.639,439.336,447.167,431.154,469.642z"/>
					<path style="fill:#322BBF;" d="M306.792,402.564c0.158-0.058,0.296-0.195,0.357-0.34c0.411-0.345-0.292,28.168-7.641,46.865       c-0.779,1.984-3.743,1.477-3.801-0.677c-0.197-7.666,0.944-16.721,2.038-23.972c2.978-17.499,5.855-23.476,5.78-23.291       C304.833,397.642,308.703,400.5,306.792,402.564z"/>
					<path style="fill:#322BBF;" d="M282.531,397.363c0.716,6.626-2.181,31.445-7.402,45.327c-0.748,1.995-3.709,1.539-3.814-0.598       c-1.007-21.218,6.945-44.837,6.998-45.043c0.152-0.269,0.371-3.393,2.691-2.742c0.736,0.207,1.243,0.831,1.336,1.544       C282.364,396.052,282.557,397.564,282.531,397.363z"/>
					<path style="fill:#322BBF;" d="M458.377,465.465l-0.417,1.413c-1.017,3.177-1.137,2.56-1.471,3.489       c-0.13,0.176-0.538,2.742-2.662,1.976c-0.525-0.189-0.913-0.601-1.096-1.085c-0.863-2.325,0.659-30.235,7.266-47.724       c0.671-1.773,3.309-1.364,3.403,0.534C463.326,425.136,464.604,442.44,458.377,465.465z"/>
					<g>
						<path style="fill:#322BBF;" d="M418.229,432.457c0.728-4.659-0.403-9.323-3.182-13.132c-2.779-3.809-6.876-6.307-11.534-7.035        c-4.659-0.732-9.319,0.401-13.131,3.179c-1.951,1.423-3.552,3.196-4.754,5.21c-2.928-2.669-7.532-5.795-13.891-7.043        c-7.457-1.462-13.733,0.395-17.599,2.142c-1.582-6.809-7.143-12.326-14.461-13.47c-4.661-0.73-9.325,0.401-13.131,3.179        c-3.81,2.779-6.311,6.876-7.039,11.535c-1.502,9.616,5.098,18.663,14.714,20.167c2.064,0.324,4.13,0.282,6.121-0.108        c2.504-0.489,4.89-1.524,7.01-3.072c3.81-2.779,6.311-6.875,7.039-11.534c0.095-0.611,0.156-1.22,0.188-1.825        c2.971-1.59,8.945-3.967,16.277-2.529c6.303,1.238,10.555,4.671,12.867,7.084c-0.155,0.589-0.285,1.188-0.379,1.797        c-1.502,9.617,5.099,18.664,14.714,20.168c2.081,0.326,4.135,0.272,6.092-0.11        C411.238,445.677,417.048,439.993,418.229,432.457z M344.66,430.316c-2.823,2.059-6.282,2.898-9.733,2.357        c-7.126-1.114-12.017-7.819-10.902-14.946c0.538-3.453,2.39-6.487,5.213-8.547c1.573-1.147,3.34-1.914,5.196-2.277        c1.477-0.288,3.008-0.32,4.537-0.08c7.126,1.114,12.017,7.819,10.902,14.947C349.335,425.221,347.483,428.257,344.66,430.316z         M413.711,431.751c-1.115,7.128-7.824,12.017-14.946,10.904c-7.126-1.114-12.017-7.819-10.902-14.947        c0.538-3.452,2.39-6.487,5.213-8.546c2.827-2.061,6.285-2.896,9.731-2.356c3.453,0.54,6.489,2.391,8.548,5.214        C413.413,424.843,414.252,428.299,413.711,431.751z"/>
					</g>
				</g>
				<path style="opacity:0.25;fill:#000E3F;" d="M476.462,462.792c-0.933,6.825-2.004,14.155-7.255,18.59      c-15.015,12.681-170.005-11.798-204.808-27.436c-3.056-1.375-6.709-3.291-8.392-5.969c-1.947-3.109-2.504-6.643-2.419-10.291      c16.767-9.447,31.133-5.93,50.319-0.119c31.382,9.512,28.21,8.373,52.253,12.023c6.074-0.236,42.169,7.522,66.246-10.048      c14.78-10.81,15.531-16.475,19.495-32.699c13.501,2.447,22.977,4.36,25.627,5.223c11.407,2.138,11.008,11.773,11.47,21.251      C479.484,443.753,477.179,459.088,476.462,462.792z"/>
				<g>
					<g>
						<path style="fill:#FC09B2;" d="M318.837,441.711c6.116-4.977,17.065-3.538,22.938,1.199c5.814,4.69,4.142,12.837-6.04,14.141        C321.788,458.836,310.904,448.167,318.837,441.711z"/>
					</g>
					<g>
						<path style="fill:#FC09B2;" d="M411.33,456.173c-4.305-6.606-15.171-8.579-22.209-5.86        c-6.968,2.692-7.863,10.959,1.435,15.309C403.292,471.58,416.913,464.743,411.33,456.173z"/>
					</g>
				</g>
			</g>
			<g>
				<path style="fill:#000E3F;" d="M336.853,413.683c-6.564,0.469-9.142,8.781-4.706,13.256c5.515,5.562,15.372,1.258,13.598-6.566      C344.736,415.926,340.691,413.409,336.853,413.683z"/>
				<path style="fill:#000E3F;" d="M402.706,423.979c-3.573-1.432-8.193-0.271-10.511,3.656      c-4.079,6.909,3.996,14.017,10.945,10.404C408.73,435.132,408.813,426.429,402.706,423.979z"/>
				<path style="fill:#000E3F;" d="M378.547,433.183c-8.884-3.634-19.735-3.921-22.763-3.142c-4.802,1.216-4.309,7.072-2.682,11.034      c0.298,0.76,11.829,6.367,11.829,6.367l14.046-2.199c1.568-1.67,2.648-3.798,2.99-6.425      C382.289,436.414,381.278,434.306,378.547,433.183z"/>
				<g>
					<path style="fill:#000E3F;" d="M276.513,382.346c0.723,0,1.486,0.049,2.295,0.151c29.293,1.961,118.281,16.157,163.093,24.346       c13.501,2.447,22.977,4.359,25.627,5.223c11.407,2.138,11.008,11.773,11.471,21.251c0.486,10.436-1.819,25.771-2.536,29.475       c-0.934,6.825-2.004,14.155-7.255,18.59c-2.911,2.458-11.091,3.521-22.625,3.521c-47.971,0-154.126-18.35-182.183-30.956       c-3.057-1.375-6.709-3.291-8.392-5.969c-1.948-3.109-2.504-6.643-2.419-10.291c0.07-3.183,0.643-6.462,1.216-9.624       c0.437-3.787,2.952-19.089,6.602-28.838C264.493,390.963,266.929,382.346,276.513,382.346 M276.513,378.526h-0.001       c-11.575,0-15.164,9.779-18.047,17.636l-0.636,1.726c-3.699,9.878-6.257,25.005-6.804,29.611       c-0.646,3.568-1.183,6.797-1.255,10.104c-0.115,4.937,0.866,8.996,3,12.403c2.252,3.582,6.56,5.85,10.063,7.425       c29.289,13.161,135.76,31.292,183.749,31.292c17.796,0,22.842-2.524,25.09-4.422c6.418-5.42,7.617-13.982,8.562-20.889       c0.673-3.539,3.097-19.167,2.581-30.272l-0.085-1.884c-0.386-9.032-0.864-20.26-14.265-22.899       c-3.824-1.172-16.122-3.503-25.882-5.271c-47.304-8.645-134.398-22.431-163.412-24.392       C278.258,378.582,277.364,378.526,276.513,378.526L276.513,378.526z"/>
				</g>
			</g>
			<path style="fill:#FF8EDE;" d="M378.976,445.243c-6.18,6.571-19.793,5.8-24.869-2.148c-0.362-0.578-0.708-1.259-1.007-2.02     c3.588-3.355,8.643-5.072,13.876-4.253C372.279,437.651,376.594,440.885,378.976,445.243z"/>
		</g>
	</g>
	<g>
		<g>
			<path style="fill:#FF8EDE;" d="M176.361,374.348c-3.31,4.723-7.246,9.376-11.691,13.821     c-23.082,23.105-59.961,41.371-95.614,43.2c-1.877,0.092-2.014-0.023-2.732-1.667c-9.261-21.531-14.631-61.837-15.882-96.078     c-0.464-13.081-0.348-25.281,0.393-35.19c1.366-0.764,3.263-3.079,11.876-13.497c2.871-3.473,5.673-7.038,8.566-10.511     c15.024,39.728,54.706,65.009,76.444,75.195c4.168,3.496,8.173,6.737,11.924,9.677     C178.237,373.861,178.098,371.871,176.361,374.348z"/>
			<path style="fill:#FF8EDE;" d="M222.248,254.471c-0.718,12.525-8.798,38.107-27.273,64.661     c-16.275,23.313-31.486,34.495-32.551,35.514c-0.625,0.579-6.32-1.088-14.701-5.024c-21.738-10.186-61.42-35.467-76.444-75.195     c0.301-0.37,0.601-0.718,0.926-1.088c0.184-0.231,0.37-0.44,0.555-0.671c13.544-16.067,28.824-30.143,42.275-43.756     c3.125,1.597,5.949,2.778,10.695,4.838c24.657,10.789,74.131,21.207,93.901,19.146     C221.113,252.758,222.317,252.989,222.248,254.471z"/>
			<path style="fill:#FF8EDE;" d="M155.41,146.517c-0.046-0.81-0.115-1.644-0.208-2.5c-0.579-6.505-1.968-12.687-4.075-18.452     c-0.278-0.787-0.579-1.574-0.857-2.361c-2.777-6.992-6.574-13.381-11.181-19.007c-0.534-0.671-1.089-1.32-1.667-1.968     c-11.166-12.777-26.764-21.512-43.455-24.494c-1.042-0.185-2.107-0.371-3.148-0.509c-25.49-3.496-51.859,6.922-69.454,25.397     C-0.629,125.704-0.004,155.638,4.487,185.04c1.157,7.617,5.348,17.989,9.237,27.296c0.371,0.88,0.232,1.528-0.44,2.292     c-9.585,10.719-9.492,18.035-6.945,28.522c2.801,11.506,10.719,24.262,19.47,35.306c1.25,1.574,2.523,3.126,3.797,4.607     c3.31,3.936,6.667,7.57,9.839,10.743c1.573,1.574,3.356,2.894,5.162,4.19c1.181,0.856,2.455,1.181,3.797,1.065     c0.44-0.023,0.881-0.092,1.32-0.208c0.416-0.116,0.74-0.208,1.111-0.417c0.809-0.463,1.805-1.459,4.282-4.376     c0.278-0.301,0.579-0.625,0.857-0.972c1.458-1.76,3.38-4.098,5.951-7.2c0.254-0.301,0.509-0.625,0.787-0.949     c0.579-0.718,1.18-1.435,1.736-2.153c2.2-2.686,4.376-5.394,6.574-8.057c0.07-0.069,0.116-0.139,0.186-0.208     c0-0.023,0.022-0.023,0.022-0.046c0.325-0.37,0.649-0.764,0.973-1.134c0.184-0.231,0.37-0.44,0.555-0.671     c13.544-16.067,28.824-30.143,42.275-43.756c1.319-1.343,2.616-2.662,3.912-4.005c0.579-0.602,1.111-1.181,1.666-1.783     c9.724-10.21,18.105-20.257,23.592-30.838c0.347-0.625,0.671-1.273,0.995-1.921c6.274-12.941,10.743-26.207,10.303-41.695     C155.479,147.952,155.456,147.234,155.41,146.517z M71.186,134.432c11.737-5.649,28.383-3.311,30.93,11.876     c1.111,6.505-3.126,11.089-8.589,14.308c-10.858,6.413-22.966,12.015-34.426,17.224c-1.528,0.695-2.13,0.486-2.801-0.903     C49.122,161.75,57.457,141.053,71.186,134.432z"/>
		</g>
		<g>
			<g>
				<path style="fill:#6280FF;" d="M72.761,414.426c-2.549,0.251-2.885-0.701-2.807-1.873c0.116-1.915,0.414-3.637,0.768-5.051      c0.353-1.425,0.761-2.575,1.133-3.28c1.268-2.456,3.263-3.206,5.418-1.655c2.331,1.734,3.827,4.786,5.179,7.579      c0.524,1.078,0.209,1.818-0.911,2.291c-0.729,0.282-2.497,0.823-4.321,1.203C75.392,414.008,73.551,414.33,72.761,414.426z"/>
			</g>
			<g>
				<path style="fill:#6280FF;" d="M89.269,410.507c-2.475,0.537-2.911-0.31-3.002-1.498c-0.286-3.834,0.242-7.01,0.812-8.48      c0.961-2.588,2.864-3.703,5.221-2.319c2.532,1.46,4.349,4.285,6.002,6.909c0.638,1.009,0.413,1.787-0.63,2.398      c-0.34,0.187-0.925,0.482-1.658,0.766c-0.734,0.282-1.6,0.594-2.47,0.896C91.799,409.774,90.052,410.367,89.269,410.507z"/>
			</g>
			<g>
				<path style="fill:#6280FF;" d="M105.091,404.743c-2.374,0.836-2.899,0.044-3.12-1.131c-0.709-3.791-0.532-7.031-0.124-8.572      c0.348-1.322,0.976-2.3,1.828-2.801c0.839-0.528,1.896-0.598,3.135-0.049c2.673,1.191,4.788,3.854,6.703,6.297      c0.741,0.943,0.593,1.73-0.392,2.424c-0.638,0.44-2.264,1.29-3.914,2.102C107.541,403.791,105.828,404.474,105.091,404.743z"/>
			</g>
			<g>
				<path style="fill:#6280FF;" d="M120.226,397.411c-2.299,1.033-2.905,0.296-3.242-0.846c-1.087-3.686-1.23-6.901-0.974-8.459      c0.402-2.737,2.035-4.22,4.628-3.357c2.788,0.923,5.139,3.292,7.306,5.518c0.834,0.854,0.776,1.663-0.119,2.481      c-0.567,0.547-2.121,1.525-3.699,2.475C122.543,396.165,120.957,397.114,120.226,397.411z"/>
			</g>
			<g>
				<path style="fill:#6280FF;" d="M134.522,388.465c-2.143,1.349-2.839,0.657-3.297-0.438c-1.477-3.547-2.004-6.767-1.938-8.356      c0.113-2.732,1.592-4.325,4.202-3.832c2.851,0.574,5.514,2.692,7.934,4.637c0.936,0.75,0.967,1.552,0.155,2.457      c-0.53,0.575-1.933,1.788-3.379,2.951C136.711,386.981,135.192,388.046,134.522,388.465z"/>
			</g>
			<g>
				<path style="fill:#6280FF;" d="M147.755,377.826c-2.014,1.573-2.775,0.998-3.37-0.036c-1.914-3.336-2.823-6.42-2.956-7.982      c-0.269-2.727,0.869-4.547,3.593-4.347c2.921,0.204,5.797,1.84,8.492,3.4c1.036,0.594,1.193,1.395,0.534,2.445      c-0.403,0.703-1.689,2.055-2.997,3.396C149.744,376.045,148.405,377.363,147.755,377.826z"/>
			</g>
			<g>
				<path style="fill:#6280FF;" d="M64.536,361.374c-2.538,0.656-2.996-0.205-3.092-1.391c-0.308-3.842,0.157-7.06,0.683-8.547      c0.457-1.261,1.131-2.233,2-2.682c0.868-0.454,1.93-0.409,3.127,0.189c2.589,1.329,4.594,4.113,6.39,6.611      c0.694,0.963,0.516,1.783-0.543,2.429C71.756,358.849,66.162,361.054,64.536,361.374z"/>
			</g>
			<g>
				<path style="fill:#6280FF;" d="M80.54,354.681c-2.383,1.002-2.961,0.245-3.252-0.914c-0.932-3.741-0.958-6.977-0.653-8.532      c0.505-2.719,2.194-4.12,4.752-3.25c2.785,0.984,5.106,3.4,7.239,5.662c0.823,0.868,0.741,1.677-0.194,2.485      c-0.603,0.518-2.202,1.501-3.827,2.453C82.955,353.49,81.294,354.387,80.54,354.681z"/>
			</g>
			<g>
				<path style="fill:#6280FF;" d="M95.334,345.878c-2.211,1.336-2.912,0.613-3.344-0.48c-1.404-3.561-1.869-6.787-1.776-8.375      c0.162-2.735,1.606-4.364,4.252-3.826c2.851,0.579,5.53,2.658,7.989,4.547c0.951,0.724,0.987,1.562,0.148,2.498      c-0.54,0.617-1.998,1.848-3.503,3.009c-0.758,0.567-1.524,1.126-2.186,1.597C96.246,345.306,95.679,345.67,95.334,345.878z"/>
			</g>
			<path style="fill:#6280FF;" d="M126.386,319.427c-1.888,1.504-2.677,0.882-3.263-0.133c-0.964-1.655-1.671-3.242-2.167-4.61     c-0.506-1.38-0.793-2.536-0.877-3.318c-0.29-2.669,0.887-4.374,3.5-4.129c2.842,0.293,5.724,2.122,8.315,3.779     c1,0.638,1.167,1.434,0.502,2.374c-0.43,0.605-1.62,1.895-2.847,3.155C128.277,317.764,126.97,318.953,126.386,319.427z"/>
			<path style="fill:#6280FF;" d="M137.638,307.95c-1.684,1.705-2.547,1.17-3.243,0.231c-2.278-3.057-3.58-6.006-3.919-7.539     c-0.291-1.313-0.185-2.432,0.329-3.217c0.502-0.796,1.394-1.279,2.724-1.284c2.868-0.008,5.916,1.512,8.657,2.896     c1.055,0.53,1.313,1.311,0.752,2.31c-0.363,0.643-1.408,2.039-2.491,3.412C139.336,306.111,138.161,307.416,137.638,307.95z"/>
			<path style="fill:#6280FF;" d="M147.585,295.441c-1.506,1.848-2.407,1.407-3.197,0.539c-2.569-2.816-4.157-5.634-4.631-7.125     c-0.412-1.28-0.409-2.409,0.032-3.243c0.421-0.85,1.277-1.411,2.602-1.54c2.865-0.271,6.024,0.967,8.88,2.107     c1.1,0.438,1.417,1.186,0.96,2.231c-0.302,0.67-1.213,2.148-2.163,3.606C149.1,293.463,148.052,294.863,147.585,295.441z"/>
			<path style="fill:#6280FF;" d="M156.33,282.149c-1.346,1.957-2.267,1.602-3.134,0.803c-2.806-2.585-4.625-5.261-5.219-6.709     c-0.517-1.243-0.601-2.369-0.234-3.244c0.351-0.885,1.164-1.515,2.475-1.752c2.841-0.502,6.079,0.479,9.017,1.394     c1.134,0.351,1.499,1.068,1.137,2.147c-0.247,0.69-1.035,2.231-1.863,3.754C157.674,280.062,156.744,281.536,156.33,282.149z"/>
			<path style="fill:#6280FF;" d="M163.965,268.249c-1.197,2.045-2.129,1.768-3.06,1.035c-3.007-2.366-5.011-4.892-5.713-6.294     c-1.196-2.397-0.706-4.489,1.871-5.157c2.803-0.708,6.088,0.031,9.091,0.736c1.159,0.271,1.565,0.954,1.294,2.06     c-0.195,0.704-0.87,2.294-1.585,3.869C165.152,266.076,164.33,267.607,163.965,268.249z"/>
			<g>
				<g>
					<path style="fill:#6280FF;" d="M77.087,246.708c1.541,1.769,1.038,2.555,0.059,3.239c-3.152,2.201-6.199,3.258-7.813,3.432       c-2.761,0.32-4.726-1.068-4.532-3.803c0.239-2.974,2.169-5.761,3.965-8.27c0.695-0.968,1.482-1.078,2.39-0.413       C72.298,241.783,76.107,245.616,77.087,246.708z"/>
				</g>
				<g>
					<path style="fill:#6280FF;" d="M66.249,235.369c1.443,1.846,0.895,2.604-0.123,3.231c-3.269,2.016-6.387,2.91-8,2.982       c-2.77,0.154-4.667-1.334-4.302-4.064c0.398-2.943,2.502-5.626,4.438-8.024c0.751-0.926,1.542-0.99,2.407-0.27       C61.764,230.174,65.337,234.223,66.249,235.369z"/>
				</g>
				<g>
					<path style="fill:#6280FF;" d="M56.09,223.424c1.345,1.919,0.741,2.653-0.307,3.216c-3.372,1.815-6.551,2.538-8.161,2.514       c-2.765-0.013-4.584-1.594-4.056-4.304c0.565-2.914,2.81-5.469,4.882-7.759c0.802-0.883,1.594-0.901,2.417-0.131       c0.529,0.499,1.625,1.815,2.685,3.163C54.627,221.459,55.677,222.817,56.09,223.424z"/>
				</g>
				<g>
					<path style="fill:#6280FF;" d="M46.612,210.901c1.238,1.996,0.593,2.697-0.483,3.201c-3.469,1.627-6.669,2.167-8.288,2.068       c-2.746-0.167-4.489-1.826-3.814-4.505c0.727-2.885,3.077-5.311,5.267-7.499c0.848-0.845,1.631-0.815,2.428-0.01       C42.722,205.218,45.829,209.66,46.612,210.901z"/>
				</g>
			</g>
			<g>
				<g>
					<path style="fill:#6280FF;" d="M121.759,197.99c2.048,1.288,1.789,2.209,1.038,3.131c-2.411,2.972-5.156,4.82-6.73,5.371       c-1.337,0.477-2.628,0.495-3.662,0.043c-1.022-0.473-1.79-1.407-2.093-2.793c-0.624-3.032,0.573-6.214,1.715-9.079       c0.445-1.105,1.203-1.387,2.276-0.936C115.649,194.383,120.476,197.186,121.759,197.99z"/>
				</g>
				<g>
					<path style="fill:#6280FF;" d="M108.089,189.277c1.866,1.543,1.49,2.424,0.627,3.242c-2.773,2.638-5.728,4.112-7.364,4.464       c-1.387,0.302-2.666,0.151-3.635-0.427c-0.955-0.597-1.594-1.624-1.717-3.039c-0.234-3.082,1.363-6.091,2.861-8.786       c0.582-1.04,1.37-1.222,2.376-0.636c0.636,0.396,2.049,1.461,3.453,2.543C106.102,187.706,107.504,188.796,108.089,189.277z"/>
				</g>
				<g>
					<path style="fill:#6280FF;" d="M95.641,178.887c1.651,1.77,1.166,2.596,0.206,3.297c-3.088,2.264-6.201,3.343-7.873,3.487       c-1.414,0.122-2.662-0.192-3.549-0.891c-0.875-0.709-1.373-1.816-1.315-3.234c0.157-3.083,2.132-5.867,3.964-8.346       c0.711-0.956,1.515-1.036,2.436-0.325c0.578,0.475,1.847,1.708,3.096,2.963C93.876,177.073,95.116,178.342,95.641,178.887z"/>
				</g>
			</g>
			<g>
				<g>
					<path style="fill:#6280FF;" d="M106.898,143.17c-2.402-0.064-2.608-0.995-2.421-2.169c0.61-3.8,1.77-6.729,2.589-8.063       c1.411-2.241,3.319-2.875,5.165-1.007c1.989,1.992,3.1,5.202,4.099,8.12c0.388,1.126,0.028,1.839-1.062,2.172       C113.875,142.707,108.395,143.208,106.898,143.17z"/>
				</g>
				<g>
					<path style="fill:#6280FF;" d="M122.677,141.194c-2.367,0.264-2.7-0.626-2.68-1.817c0.07-3.844,0.826-6.921,1.463-8.337       c0.545-1.219,1.276-2.04,2.128-2.348c0.845-0.33,1.81-0.156,2.851,0.65c2.236,1.725,3.771,4.714,5.176,7.477       c0.544,1.064,0.281,1.808-0.758,2.304c-0.669,0.33-2.343,0.812-4.035,1.24C125.127,140.769,123.414,141.106,122.677,141.194z"/>
				</g>
				<g>
					<path style="fill:#6280FF;" d="M138.134,136.991c-2.339,0.665-2.802-0.19-2.955-1.366c-0.484-3.804-0.231-6.994,0.166-8.465       c0.678-2.567,2.221-3.673,4.494-2.479c2.477,1.322,4.569,3.903,6.541,6.317c0.761,0.923,0.645,1.713-0.318,2.434       c-0.618,0.488-2.234,1.276-3.874,2.034C140.539,136.16,138.867,136.81,138.134,136.991z"/>
				</g>
			</g>
			<g>
				<g>
					<path style="fill:#6280FF;" d="M48.234,142.604c1.788,1.44,1.38,2.295,0.527,3.124c-2.761,2.675-5.38,4.368-6.763,4.979       c-1.191,0.524-2.21,0.638-2.967,0.318c-0.769-0.301-1.269-1.057-1.408-2.328c-0.323-2.698,0.638-5.936,1.519-8.9       c0.337-1.146,1.014-1.52,2.063-1.19c0.336,0.109,0.881,0.345,1.526,0.65c0.635,0.326,1.367,0.728,2.095,1.139       C46.275,141.232,47.667,142.171,48.234,142.604z"/>
				</g>
				<g>
					<path style="fill:#6280FF;" d="M34.762,135.4c2.037,1.059,1.805,1.978,1.132,2.958c-2.181,3.166-4.417,5.342-5.652,6.212       c-1.065,0.748-2.042,1.064-2.846,0.895c-0.813-0.142-1.451-0.784-1.838-2.002c-0.846-2.584-0.544-5.943-0.267-9.024       c0.104-1.189,0.694-1.69,1.789-1.575c0.351,0.041,0.933,0.162,1.626,0.336c0.686,0.196,1.484,0.444,2.28,0.704       C32.57,134.441,34.122,135.083,34.762,135.4z"/>
				</g>
				<g>
					<path style="fill:#6280FF;" d="M20.121,130.995c2.211,0.63,2.165,1.577,1.7,2.672c-1.511,3.535-3.271,6.121-4.305,7.21       c-0.894,0.945-1.789,1.457-2.607,1.446c-0.824,0.02-1.576-0.473-2.198-1.589c-1.343-2.373-1.725-5.71-2.074-8.786       c-0.138-1.185,0.34-1.795,1.438-1.906c0.708-0.084,2.377,0.036,4.042,0.235C17.777,130.499,19.432,130.798,20.121,130.995z"/>
				</g>
			</g>
		</g>
		<g>
			<path style="fill:#FFFFFF;" d="M124.844,349.788c1.967-1.224,4.1,1.356,2.508,3.062c-15.959,17.083-42.824,32.275-66.303,32.91     c-2.171,0.058-2.681-3.025-0.61-3.67C87.815,373.569,101.531,364.044,124.844,349.788z"/>
			<path style="fill:#FFFFFF;" d="M76.41,315.228c5.806-3.396,7.918-4.302,7.687-4.192c1.856-0.886,3.729,1.226,2.606,2.97     c-6.179,9.518-20.094,17.462-31.009,18.211c-1.926,0.132-2.836-2.348-1.271-3.49C54.423,328.727,76.653,315.083,76.41,315.228z"/>
			<path style="fill:#FFFFFF;" d="M141.783,333.041c7.991-10.145,22.476-26.435,36.458-50.352     c17.43-29.814,12.38-26.237,14.652-26.847c4.683-1.257,1.206,8.398,0.573,10.443c-6.815,22-24.086,48.987-49.032,69.367     C142.715,337.058,140.399,334.797,141.783,333.041z"/>
			<path style="fill:#FFFFFF;" d="M124.497,259.713c9.618-13.939,10.056-15.557,12.227-14c0.73,0.524,0.998,1.462,0.726,2.272     c-7.251,21.228-25.69,44.567-39.869,53.825c-1.8,1.176-3.838-1.12-2.481-2.769C98.674,294.696,112.979,276.281,124.497,259.713z"/>
			<path style="fill:#FFFFFF;" d="M53.42,284.94c-16.502-14.767-34.831-37.874-41.281-59.506c-0.659-2.208,2.359-3.594,3.605-1.633     c31.75,50.051,44.302,58.582,39.929,61.33C54.947,285.587,54.029,285.484,53.42,284.94z"/>
			<path style="fill:#FFFFFF;" d="M101.549,232.061c-17.86-8.566-37.369-27.426-47.747-44.33c-1.193-1.943,1.293-4.051,3.02-2.558     c8.199,7.109,14.655,14.109,35.004,32.946c12.121,11.116,13.658,11.674,11.908,13.534     C103.16,232.264,102.267,232.401,101.549,232.061z"/>
			<path style="fill:#FFFFFF;" d="M29.169,171.328c-8.99,2.117-14.72,3.828-20.833,4.353c-2.125,0.182-3.065-2.649-1.215-3.767     c12.749-7.667,28.732-12.273,42.826-7.157c1.88,0.683,1.564,3.454-0.431,3.689C43.011,169.21,38.45,169.227,29.169,171.328z"/>
			<path style="fill:#FFFFFF;" d="M103.216,158.139c-1.556-1.486-0.004-4.075,2.047-3.383c3.371,1.138,7.21,2.641,10.435,3.834     c26.396,9.775,33.701,7.453,32.772,11.364C147.441,174.298,119.418,173.604,103.216,158.139z"/>
			<path style="fill:#FFFFFF;" d="M112.84,91.143l0.018-0.028c1.132-1.789,3.926-0.855,3.742,1.265     c-1.172,13.339-12.638,28.297-25.973,32.646c-1.89,0.617-3.35-1.721-1.967-3.15C103.298,106.744,104.018,105.084,112.84,91.143z"/>
		</g>
		<g style="opacity:0.5;">
			<path style="fill:#FC09B2;" d="M92.97,342.237c-15.141-13.358-29.309-6.969-42.528-8.612     c-0.441-12.108-0.139-24.355,0.509-35.537c4.422-3.519,15.79-18.22,20.257-23.568c-0.601-1.551-1.135-3.103-1.644-4.677     c0.046,0.046,0.07,0.07,0.092,0.116c0.486,1.528,0.995,3.033,1.574,4.514c0.903,2.501,1.922,4.931,3.057,7.339     c0.972,2.084,2.037,4.121,3.148,6.135c0.532,0.949,1.065,1.875,1.621,2.801c0.555,0.926,1.134,1.852,1.713,2.778     c15.467,24.273,45.23,46.5,65.403,54.799c3.987,3.361,30.743,19.369,28.824,25.686     C171.776,384.614,130.064,374.963,92.97,342.237z"/>
			<path style="fill:#FC09B2;" d="M222.248,254.471c-0.093,1.621-0.186,3.264-0.534,4.839c-2.345,9.487-36.757,23.403-75.909,7.065     c-10.783-4.5-22.932-10.542-34.568-5.143c-9.331,4.329-15.26,18.291-25.003,29.101c-1.415,1.569-3.543,2.292-5.465,3.195     c-4.791-7.665-8.282-14.64-11.205-23.684c0.235,0.235,0.34,1.235,1.666,4.63c20.212-23.716,23.609-24.834,43.872-45.538     c29.596,15.24,84.611,26.037,104.527,23.961C221.113,252.758,222.317,252.989,222.248,254.471z"/>
			<path style="fill:#FC09B2;" d="M155.41,146.517c-0.046-0.81-0.115-1.644-0.208-2.5c-0.556-5.811-1.922-12.224-4.075-18.452     c-0.278-0.787-0.579-1.574-0.857-2.361c-1.805-4.7-4.074-9.237-6.806-13.243c-1.366-1.991-2.801-3.912-4.375-5.765     c-10.582-13.01-25.675-22.182-42.02-25.837c-1.019-0.232-2.06-0.44-3.102-0.625c-1.042-0.185-2.107-0.371-3.148-0.509     c-0.024,0.162-0.046,0.324-0.07,0.509c-1.458,9.538,2.732,18.729,8.752,26.277c0.208,0.255,0.416,0.51,0.625,0.787     c10.556,12.803,27.179,23.962,30.374,41.349c8.558,46.575-41.22,74.149-68.993,101.907     c-14.395,14.387-33.165,41.109-15.049,50.453c6.891,3.554,12-8.608,16.256-13.569c1.347-1.682,7.944-9.861,8.496-10.418     c-0.24-0.617-0.433-1.241-0.653-1.859c0.183,0.514,0.397,1.095,0.676,1.812c39.206-44.739,85.94-74.427,84.271-125.804     C155.479,147.952,155.456,147.234,155.41,146.517z M69.565,269.843c0.165,0.165,0.244,0.655,0.771,2.195     C70.083,271.307,69.803,270.582,69.565,269.843z"/>
		</g>
		<g>
			<path style="fill:#FC09B2;" d="M76.509,113.579c-3.227-1.618-2.463-5.53,0.241-7.777c4.191-3.482,9.438-3.882,12.185-2.48     C96.305,107.085,84.337,117.506,76.509,113.579z"/>
			<path style="fill:#FC09B2;" d="M52.565,122.314c1.427-3.316-1.676-5.817-5.192-5.795c-5.449,0.035-9.721,3.107-10.92,5.948     C33.237,130.092,49.103,130.359,52.565,122.314z"/>
		</g>
		<g>
			<path style="fill:#322BBF;" d="M84.49,485.819c-9.502-14.209-18.447-36.684-18.558-53.818c-0.013-2.277,3.166-2.895,3.993-0.756     c0.09,0.233,15.412,41.395,18.077,53.06C88.478,486.4,85.691,487.602,84.49,485.819z"/>
			<path style="fill:#322BBF;" d="M196.857,435.923c-15.562-8.84-32.342-25.921-38.794-42.708c-0.414-1.061,0.111-2.257,1.172-2.67     c2.374-0.924,2.775,1.782,11.51,11.261c25.06,28.493,31.436,31.314,28.316,33.92C198.424,436.257,197.54,436.307,196.857,435.923     z"/>
			<path style="fill:#322BBF;" d="M169.137,452.751c-13.844-9.423-27.352-28.283-31.593-44.226c-0.294-1.103,0.363-2.236,1.466-2.53     c1.769-0.471,1.846,0.053,9.837,11.699c23.043,33.143,25.171,33.238,22.475,35.06     C170.645,453.212,169.775,453.181,169.137,452.751z"/>
			<path style="fill:#322BBF;" d="M142.905,465.228c-12.806-9.694-25.073-28.763-27.268-45.003     c-0.309-2.243,2.722-3.285,3.854-1.296c25.127,44.182,28.82,44.515,25.581,46.424     C144.373,465.764,143.515,465.684,142.905,465.228z"/>
			<path style="fill:#322BBF;" d="M217.267,413.033c-16.533-5.993-29.647-20.86-39.93-34.548c-0.162-0.232-1.393-1.872-1.414-2.104     c0.275,0.141,0.286,0.095-0.396-0.367c-2.207-1.533,0.107-4.875,2.318-3.34c-0.09-0.06-0.466-0.834,5.988,4.501     c9.901,8.632,14.406,14.26,35.363,32.558l0.011,0.01c0.808,0.706,0.891,1.933,0.185,2.742     C218.852,413.105,217.998,413.296,217.267,413.033z"/>
			<path style="fill:#322BBF;" d="M108.646,476.095c-10.591-11.367-19.508-31.602-20.801-46.839     c-0.096-1.141,0.75-2.144,1.891-2.241c1.977-0.168,1.891,0.148,12.452,23.929c9.899,22.891,11.207,24.687,8.552,25.654     C109.985,476.873,109.164,476.645,108.646,476.095z"/>
			<path style="fill:#322BBF;" d="M242.418,343.657c-5.131,2.032-10.525,3.331-15.989,4.13c-16.014,2.422-34.77,0.164-48.615-6.597     c-2.096-1.024-1.127-4.204,1.196-3.885c55.475,7.677,64.319-0.753,64.627,4.436C243.688,342.593,243.167,343.354,242.418,343.657     z"/>
			<path style="fill:#322BBF;" d="M249.225,289.673c0.236-0.061,13.657-3.533,13.42-3.476c2.209-0.53,3.539,2.418,1.643,3.715     c-14.596,9.92-41.153,16.788-55.956,7.249c-1.788-1.152-0.662-3.948,1.431-3.528C215.62,293.304,217.333,297.677,249.225,289.673     z"/>
			<path style="fill:#322BBF;" d="M226.306,365.983c-5.289,1.463-10.762,2.176-16.252,2.385     c-16.046,0.686-34.417-3.546-47.287-12.153c-0.945-0.632-1.198-1.91-0.566-2.854c0.866-1.294,2.505-0.845,2.273-0.835     c52.205,14.505,63.524,6.064,63.25,11.686C227.683,365.063,227.084,365.762,226.306,365.983z"/>
			<path style="fill:#322BBF;" d="M252.972,320.673c-4.551,1.874-9.335,3.087-14.182,3.877c-13.764,2.318-30.747,0.951-43.424-4.724     c-1.041-0.462-1.511-1.681-1.049-2.722c1.031-2.323,3.222-0.698,16.06-0.167c37.162,2.291,43.638-2.447,43.802,1.866     C254.209,319.637,253.701,320.371,252.972,320.673z"/>
			<path style="fill:#322BBF;" d="M257.462,241.495c10.686-3.594,11.988-3.931,11.754-3.861c2.149-0.644,3.649,2.136,1.923,3.579     c-12.185,10.159-33.004,16.337-48.421,14.754c-2.091-0.215-2.402-3.157-0.395-3.8     C226.136,250.946,235.622,248.683,257.462,241.495z"/>
			<path style="fill:#322BBF;" d="M264.599,263.945l0.021-0.006c2.144-0.657,3.661,2.116,1.942,3.566     c-12.407,10.458-33.961,14.923-49.7,10.039c-2.011-0.624-1.73-3.569,0.364-3.802C238.574,271.372,240.73,271.254,264.599,263.945     z"/>
		</g>
		<g>
			<path style="fill:#000E3F;" d="M64.055,97.598c-0.95,0.463-1.343,1.62-0.88,2.569c2.431,4.931,1.874,8.612,0.555,10.395     c-0.787,1.042-1.876,1.528-3.079,1.32c-2.616-0.416-5.116-3.589-6.736-8.496c-0.325-0.995-1.413-1.528-2.408-1.204     c-0.996,0.324-1.551,1.412-1.228,2.407c2.107,6.367,5.649,10.395,9.747,11.066c0.393,0.069,0.764,0.092,1.135,0.092     c2.199,0,4.237-1.042,5.625-2.917c2.593-3.473,2.524-8.844-0.185-14.354C66.138,97.529,65.005,97.158,64.055,97.598z"/>
			<path style="fill:#000E3F;" d="M223.196,251.924c-1.111-1.042-2.662-1.042-3.75-0.926c-31.231,2.917-67.625-5.417-101.194-22.688     c22.803-23.707,41.046-48.178,39.055-81.91c-3.986-67.377-87.369-97.49-137.332-45.098c-28.06,29.425-22.526,77.024-7.941,111.82     c0,0-0.023,0.07-0.162,0.232c-0.44,0.486-0.857,0.972-1.25,1.458c-0.163,0.185-0.324,0.371-0.486,0.556h0.023     C2.056,225.3,1.87,232.848,4.487,243.59c4.759,19.562,34.723,59.536,44.264,57.484c-2.106,34.912,2.663,98.832,15.836,129.392     c0.926,2.176,1.759,2.825,3.89,2.825c0.208,0,0.439,0,0.67-0.023c41.047-2.107,86.795-26.416,108.764-57.832     c3.515-4.773-0.571-4.012-21.206-20.929c3.457,1.355,5.673,2.691,7.755,0.933c4.752-4.013,17.784-14.73,32.088-35.22     c17.942-25.79,26.809-51.558,27.596-65.634v-0.023C224.214,253.221,223.66,252.387,223.196,251.924z M45.72,296.467     c-13.081-9.515-33.361-36.741-37.505-53.78c-2.477-10.163-2.293-16.461,5.463-25.582c0.324-0.393,0.671-0.787,1.042-1.204     c10.812-12.038,30.189-28.453,46.048-36.74c32.573-14.982,45.363-20.656,43.246-33.176     c-2.659-15.665-19.752-19.954-33.662-13.266c-15.234,7.339-23.059,29.634-15.765,45.029c0.069,0.139,0.115,0.255,0.208,0.371     c-13.891,8.126-29.564,21.23-39.913,31.995C1.269,176.636-3.64,131.631,22.754,103.942     c47.523-49.88,126.938-21.663,130.734,42.691c2.349,39.792-25.462,66.951-53.433,94.596     c-35.881,35.527-34.504,38.613-46.881,52.229c-1.759,1.899-3.033,3.01-4.12,3.496C47.803,297.509,46.831,297.254,45.72,296.467z      M58.082,176.197c-0.023-0.023-0.046-0.046-0.046-0.092c-7.811-16.49,3.616-42.575,25.374-42.575     c8.665,0,15.359,4.413,16.831,13.081c-0.237,1.219,1.997,6.62-7.686,12.363C82.02,165.2,70.283,170.664,59.1,175.734     C59.014,175.819,58.169,176.153,58.082,176.197z M174.833,373.19l-0.045,0.07c-21.37,30.513-65.866,54.151-105.824,56.188     c-0.139,0.023-0.417,0.023-0.649,0.023c-0.093-0.185-0.185-0.417-0.232-0.533C54.841,398.24,50.28,333.023,52.71,299.106     c4.221-3.305,8.964-10.098,17.92-20.905c8.623,20.875,24.211,38.158,41.96,51.79c21.306,16.364,24.632,13.767,41.314,27.195     C160.119,362.189,172.692,371.354,174.833,373.19z M193.401,318.044c-6.552,9.376-17.294,22.966-31.347,34.426     c-20.27-7.64-20.948-8.219-29.518-13.404c-21.092-12.895-43.802-31.717-56.142-57.323c0-0.023,0-0.046-0.024-0.07     c-1.065-2.222-2.061-4.514-2.94-6.829c15.16-17.861,27.161-28.366,42.043-43.663c34.668,18.032,72.47,26.734,104.828,23.568     c0.01,0.01,0.014,0.013,0.024,0.022C219.399,268.013,210.673,293.248,193.401,318.044z"/>
			<path style="fill:#000E3F;" d="M38.96,102.367c-2.779,1.042-4.122,3.982-3.126,6.807c0.902,2.592,4.098,4.121,6.875,3.056     c2.755-1.065,4.144-3.936,3.079-6.853C44.77,102.599,41.83,101.279,38.96,102.367z"/>
			<path style="fill:#000E3F;" d="M73.963,89.588c-3.334,1.297-3.959,4.561-3.218,6.83c0.788,2.523,4.19,4.167,6.691,3.171     C84.335,96.857,80.307,87.111,73.963,89.588z"/>
		</g>
	</g>
	<g>
		<g>
			<path style="fill:#6280FF;" d="M232.561,173.995c-0.903,0-1.805-0.024-2.708-0.07c-14.872-0.768-29.881-8.917-40.15-21.803     c-9.295-11.664-13.176-25.168-10.922-38.023c3.293-18.793,19.019-34.176,39.132-38.276c11.877-2.416,23.519-0.726,32.81,4.767     c10.772,6.372,17.742,17.893,17.762,29.35c0.022,12.847-9.474,24.211-21.166,25.329c-6.016,0.585-12.534-1.931-17.367-6.714     c-4.682-4.63-7.083-10.644-6.59-16.494c0.154-1.842,1.775-3.171,3.61-3.049c1.84,0.156,3.204,1.772,3.049,3.61     c-0.328,3.873,1.359,7.949,4.63,11.183c3.441,3.406,7.964,5.209,12.031,4.813c8.21-0.785,15.135-9.334,15.12-18.669     c-0.015-9.004-5.835-18.491-14.483-23.608c-7.864-4.65-17.834-6.059-28.073-3.971c-17.173,3.502-31.107,17.023-33.887,32.882     c-1.918,10.944,1.479,22.56,9.565,32.708c9.095,11.412,22.282,18.624,35.27,19.293c23.706,1.244,47.541-15.837,58.132-41.475     c3.506-8.482,5.737-17.799,7.897-26.812c2.56-10.694,5.209-21.753,10.03-31.871c16.02-33.615,56.688-51.475,92.582-40.673     c1.766,0.533,2.766,2.394,2.236,4.163c-0.53,1.766-2.392,2.76-4.163,2.236c-32.808-9.878-69.985,6.438-84.622,37.149     c-4.52,9.482-7.086,20.194-9.567,30.553c-2.218,9.263-4.513,18.841-8.216,27.808     C283.249,155.574,258.063,173.995,232.561,173.995z"/>
		</g>
		<g>
			<path style="fill:#6280FF;" d="M316.576,233.381c-2.077,0-4.165-0.187-6.25-0.565c-12.419-2.255-23.052-11.096-27.09-22.523     c-5.002-14.146,0.104-29.663,12.419-37.737c11.444-7.503,24.937-6.222,35.205,3.35c4.874,4.541,6.888,10.535,5.524,16.444     c-1.19,5.165-4.865,9.271-9.591,10.72c-3.273,0.996-6.873,0.396-9.657-1.601c-2.475-1.779-3.939-4.454-4.017-7.344     c-0.052-1.844,1.403-3.38,3.247-3.43c1.749-0.094,3.377,1.401,3.43,3.247c0.028,1.022,0.689,1.707,1.24,2.101     c1.083,0.781,2.538,1.031,3.802,0.637c2.451-0.75,4.38-2.984,5.037-5.831c0.811-3.521-0.49-7.186-3.569-10.055     c-9.445-8.802-20.135-7.142-26.988-2.649c-8.23,5.394-14.443,16.736-9.783,29.92c3.256,9.206,11.886,16.342,21.986,18.175     c11.127,2.031,21.994-2.51,30.605-12.751c15.27-18.16,16.801-43.793,18.282-68.58c1.714-28.708,3.489-58.393,26.838-76.314     c1.462-1.127,3.558-0.85,4.682,0.616c1.124,1.464,0.848,3.56-0.615,4.683c-20.929,16.066-22.536,42.952-24.237,71.414     c-1.546,25.875-3.145,52.628-19.835,72.48C338.736,227.902,327.823,233.381,316.576,233.381z"/>
		</g>
		<g>
			<path style="fill:#6280FF;" d="M479.884,232.237c-8.215,0-17.023-2.927-23.611-8.123c-6.949-5.485-10.724-12.849-10.629-20.742     c0.076-6.227,3.078-13.03,7.649-17.332c3.623-3.412,7.921-5.091,12.425-4.883c6.442,0.311,12.736,4.907,14.641,10.687     c1.529,4.645,0.045,9.237-4.074,12.599c-1.429,1.168-3.532,0.952-4.7-0.476c-1.166-1.429-0.955-3.532,0.476-4.7     c1.966-1.605,2.603-3.349,1.951-5.331c-1.033-3.134-4.978-5.931-8.617-6.107c-3.338-0.126-5.94,1.585-7.525,3.073     c-3.262,3.073-5.491,8.117-5.546,12.551c-0.089,7.395,4.348,12.464,8.086,15.413c7.118,5.613,17.297,8.016,25.333,6     c8.143-2.053,17.69-10.718,19.343-22.73c2.077-15.083-9.182-30.498-31.703-43.408c-20.831-11.942-38.598-23.717-45.011-46.934     c-4.75-17.201-1.733-35.922,8.067-50.079c1.053-1.518,3.138-1.896,4.648-0.846c1.518,1.05,1.896,3.132,0.846,4.648     c-8.558,12.362-11.286,29.413-7.118,44.498c5.735,20.766,22.364,31.721,41.892,42.914c33.789,19.372,36.432,39.715,34.998,50.118     c-2.053,14.913-14.067,25.709-24.33,28.295C484.997,231.945,482.47,232.237,479.884,232.237z"/>
		</g>
	</g>
</g>















</svg>
