<?xml version="1.0" encoding="UTF-8"?>
<!-- Generator: Adobe Illustrator 25.2.3, SVG Export Plug-In . SVG Version: 6.00 Build 0)  -->
<svg xmlns="http://www.w3.org/2000/svg" xmlns:xlink="http://www.w3.org/1999/xlink" version="1.1" id="Capa_1" x="0px" y="0px" viewBox="0 0 512 512" style="enable-background:new 0 0 512 512;" xml:space="preserve" width="512" height="512">
<g>
	<g>
		<g>
			<g>
				<path style="fill:#FC09B2;" d="M428.249,292.425c-8.847,16.627-19.206,32.384-30.276,47.605      c-8.38,11.522-16.749,24.366-29.022,32.336c-29.378,19.077-67.523-2.161-80.083-31.416      c-14.024-32.663-11.066-121.962,12.318-129.089c7.178-2.188,14.307,2.572,18.197,8.331c2.816,4.17,4.819,8.874,6.471,13.608      c0.355,1.018,1.357,6.911,2.365,7.379c0.899,0.308,11.436-19.426,26.935-32.263c9.979-8.279,19.009-13.083,33.185-14.167      c10.057-0.767,24.159,3.131,34.949,11.502C455.171,230.974,441.823,266.904,428.249,292.425z"/>
				<g>
					<path style="fill:#FFFFFF;" d="M299.183,263.596c-3.037-0.662-3.118-1.955-2.599-3.506c1.658-4.993,4.057-8.682,5.618-10.204       c2.65-2.615,5.781-2.782,7.717,0.384c2.079,3.418,2.244,8.06,2.322,12.297c0.027,1.636-0.71,2.405-2.189,2.442       C308.145,265.031,301.1,263.985,299.183,263.596z"/>
					<path style="fill:#FFFFFF;" d="M326.401,268.346c-2.901-0.867-2.877-2.175-2.259-3.68c1.983-4.854,4.689-8.356,6.4-9.737       c2.9-2.363,6.163-2.2,7.792,1.174c1.744,3.641,1.331,8.296,0.88,12.487c-0.179,1.621-1,2.307-2.432,2.176       C334.956,270.526,328.227,268.868,326.401,268.346z"/>
					<path style="fill:#FFFFFF;" d="M352.055,276.301c-2.659-1.348-2.42-2.578-1.569-3.984c2.742-4.498,6.022-7.477,7.942-8.518       c3.29-1.857,6.476-1.073,7.496,2.507c1.069,3.906-0.147,8.401-1.32,12.455c-0.458,1.565-1.387,2.097-2.781,1.716       C360.057,279.899,353.736,277.125,352.055,276.301z"/>
					<path style="fill:#FFFFFF;" d="M376.129,288.558c-2.455-1.736-2.016-2.969-0.956-4.201c3.414-3.979,7.095-6.427,9.169-7.195       c3.495-1.287,6.56-0.122,6.998,3.611c0.484,3.999-1.366,8.254-3.129,12.116c-0.685,1.49-1.671,1.859-3.002,1.279       C383.508,293.384,377.69,289.604,376.129,288.558z"/>
					<path style="fill:#FFFFFF;" d="M398.293,304.253c-2.195-2.081-1.617-3.208-0.386-4.294c3.95-3.486,7.929-5.409,10.063-5.868       c3.668-0.847,6.475,0.76,6.446,4.476c-0.059,4.028-2.453,8.027-4.679,11.615c-0.864,1.385-1.905,1.64-3.152,0.883       C405.019,310.029,399.681,305.538,398.293,304.253z"/>
					<path style="fill:#FFFFFF;" d="M363.246,232.735c-2.984-0.73-3.042-2.022-2.492-3.563c1.753-4.958,4.273-8.588,5.912-10.055       c2.775-2.522,6.072-2.54,7.914,0.759c1.971,3.549,1.795,8.221,1.539,12.427c-0.105,1.629-0.888,2.348-2.321,2.296       C371.977,234.466,365.143,233.155,363.246,232.735z"/>
					<path style="fill:#FFFFFF;" d="M388.873,239.614c-2.514-1.314-2.332-2.536-1.483-3.953c2.686-4.531,5.999-7.467,8.023-8.48       c3.364-1.736,6.724-0.826,7.622,2.875c0.968,3.972-0.533,8.41-1.967,12.375c-0.561,1.531-1.515,2.006-2.847,1.553       c-0.868-0.283-2.77-1.251-4.702-2.152C391.605,240.92,389.691,240.006,388.873,239.614z"/>
					<path style="fill:#FFFFFF;" d="M411.457,253.1c-2.18-1.987-1.645-3.123-0.451-4.253c3.823-3.62,7.782-5.608,9.952-6.085       c3.698-0.861,6.646,0.839,6.625,4.607c-0.059,4.09-2.522,8.015-4.854,11.559c-0.906,1.368-1.931,1.581-3.15,0.828       C418.057,258.707,412.868,254.283,411.457,253.1z"/>
					<path style="fill:#FFFFFF;" d="M296.053,305.493c-2.916-1.109-2.794-2.404-2.051-3.857c2.389-4.684,5.322-7.977,7.096-9.243       c3.018-2.187,6.146-1.874,7.589,1.544c1.548,3.693,1.012,8.318,0.459,12.508c-0.215,1.619-1.066,2.276-2.539,2.088       C304.722,308.257,297.889,306.171,296.053,305.493z"/>
					<path style="fill:#FFFFFF;" d="M322.335,314.293c-2.752-1.295-2.541-2.575-1.703-3.976c2.689-4.508,5.887-7.578,7.778-8.676       c3.221-1.922,6.418-1.286,7.536,2.292c1.203,3.84,0.133,8.399-0.903,12.486c-0.404,1.581-1.317,2.141-2.727,1.8       C330.516,317.739,324.073,315.077,322.335,314.293z"/>
					<path style="fill:#FFFFFF;" d="M347.119,325.8c-2.565-1.649-2.206-2.866-1.196-4.16c3.239-4.153,6.782-6.775,8.797-7.642       c3.434-1.511,6.496-0.5,7.168,3.17c0.721,3.953-0.844,8.336-2.332,12.301c-0.577,1.529-1.549,1.977-2.925,1.465       C354.86,330.259,348.75,326.783,347.119,325.8z"/>
					<path style="fill:#FFFFFF;" d="M370.599,340.112c-2.401-1.892-1.897-3.092-0.762-4.263c3.65-3.77,7.467-6.035,9.55-6.678       c3.569-1.147,6.492,0.171,6.793,3.876c0.299,4.02-1.679,8.202-3.556,12.003c-0.728,1.466-1.735,1.806-3.068,1.172       C377.874,345.345,372.104,341.293,370.599,340.112z"/>
				</g>
				<g>
					<path style="fill:#6280FF;" d="M292.396,272.908c40.262,6.149,77.262,19.912,108.873,51.905       c2.086,2.112-0.667,5.43-3.133,3.791c-57.363-38.116-73.492-38.648-106.911-51.223       C288.626,276.403,289.653,272.487,292.396,272.908z"/>
					<path style="fill:#6280FF;" d="M424.927,284.095c-72.731-44.974-90.926-40.565-88.391-46.983       c0.426-1.075,1.529-1.686,2.625-1.546c30.68,4.013,67.031,22.314,88.68,44.939       C429.722,282.471,427.251,285.531,424.927,284.095z"/>
					<path style="fill:#6280FF;" d="M418.687,226.152c-21.61-11.414-42.806-20.891-42.659-20.819       c-2.462-1.193-1.477-4.938,1.272-4.747c19.963,1.449,45.328,14.276,58.336,29.512c1.668,1.954-0.585,4.804-2.872,3.619       C428.254,231.382,423.184,228.564,418.687,226.152z"/>
					<path style="fill:#6280FF;" d="M321.559,231.452c1.136,0.687,1.501,2.166,0.813,3.302c-0.62,1.024-1.861,1.21-1.655,1.127       c-6.761,1.264-22.782,0.388-29.16-1.6c-1.198-0.373-1.867-1.647-1.493-2.845C291.132,228.004,309.582,224.209,321.559,231.452z       "/>
				</g>
				<path style="opacity:0.25;fill:#000E3F;" d="M428.249,292.424c-11.622,21.843-25.652,41.898-40.716,61.616      c-8.598-18.858,8.179-47.209,16.977-63.186c6.27-11.392,13.618-24.081,7.282-38.59c-2.618-5.992-7.937-10.603-18.707-12.567      c-14.252-2.601-33.8-4.491-45.16-17.735c-1.172-1.363-2.01-2.475-2.627-3.41c2.977-3.357,6.284-6.68,9.854-9.637      c9.979-8.279,19.009-13.083,33.185-14.167c10.057-0.767,24.159,3.131,34.949,11.502      C455.171,230.974,441.823,266.904,428.249,292.424z"/>
			</g>
			<g>
				<path style="fill:#000E3F;" d="M390.9,194.653c9.794,0,22.484,3.915,32.386,11.596c31.885,24.725,18.538,60.655,4.963,86.175      c-8.847,16.627-19.207,32.384-30.277,47.605c-8.379,11.521-16.749,24.366-29.022,32.335c-7.775,5.049-16.165,7.274-24.531,7.274      c-23.245,0-46.316-17.177-55.552-38.69c-14.024-32.663-11.066-121.962,12.318-129.089c1.219-0.371,2.436-0.543,3.636-0.543      c5.869,0,11.332,4.092,14.56,8.874c2.816,4.169,4.819,8.874,6.471,13.608c0.356,1.018,1.357,6.911,2.364,7.379      c0.007,0.002,0.015,0.004,0.023,0.004c1.038,0,11.533-19.529,26.911-32.266c9.979-8.28,19.01-13.083,33.185-14.167      C389.164,194.684,390.021,194.653,390.9,194.653 M390.9,190.75c-0.975,0-1.938,0.036-2.861,0.106      c-15.758,1.205-25.54,6.89-35.381,15.055c-10.229,8.473-18.396,19.862-23.076,26.732c-0.015-0.045-0.03-0.089-0.045-0.132      c-2.097-6.009-4.296-10.619-6.921-14.506c-3.457-5.12-9.949-10.592-17.794-10.592c-1.617,0-3.224,0.24-4.774,0.712      c-5.408,1.649-10.011,6.491-13.68,14.393c-12.77,27.502-13.349,91.412-1.087,119.971c10.213,23.788,35.085,41.053,59.139,41.053      c9.612,0,18.581-2.659,26.656-7.904c11.483-7.456,19.462-18.574,27.179-29.326c0.961-1.34,1.918-2.672,2.874-3.987      c12.511-17.201,22.508-32.924,30.566-48.067c5.879-11.053,13.832-27.738,15.014-44.952c1.29-18.795-5.785-34.319-21.031-46.142      C415.806,195.507,402.48,190.75,390.9,190.75L390.9,190.75z"/>
			</g>
		</g>
		<g>
			<g>
				<path style="fill:#6280FF;" d="M376.291,393.231c-2.416,4.91-5.33,11.286-9.874,15.266c-0.261,0.236-0.536,0.466-0.827,0.688      c-1.298,1.02-2.729,1.83-4.303,2.37c-8.295,2.803-18.21-2.058-26.592-5.407c-14.783-5.911-42.937-19.661-56.659-27.671      c-7.794-4.552-17.724-9.383-20.614-17.648c-2.651-7.676,2.037-16.53,5.227-23.099c2.731-5.592,5.586-9.725,8.532-12.667      c13.224-13.23,28.417-2.684,44.281,4.737c4.366,2.042,8.689,4.134,13.026,6.198l0.043-0.088l8.69,4.244l-0.043,0.088      c4.294,2.152,8.602,4.274,12.897,6.462C367.172,355.399,391.797,361.481,376.291,393.231z"/>
				<path style="opacity:0.25;fill:#000E3F;" d="M365.591,409.184c-1.298,1.02-2.729,1.83-4.303,2.37      c-8.295,2.803-18.21-2.058-26.592-5.407c-14.783-5.911-42.937-19.661-56.659-27.671c-7.794-4.552-17.724-9.383-20.614-17.648      c-2.651-7.676,2.037-16.53,5.227-23.099c2.731-5.592,5.586-9.725,8.532-12.667c-1.814,19.421,8.426,33.111,26.141,42.363      c14.228,7.422,29.776,13.742,43.75,22.167C345.429,392.211,360.316,401.263,365.591,409.184z"/>
				<g>
					<path style="fill:#FF8EDE;" d="M282.48,352.044c6.113-2.469,14.506,1.379,18.03,6.611c3.489,5.18,0.146,11.276-8.31,9.809       C280.617,366.454,274.551,355.248,282.48,352.044z"/>
					<path style="fill:#FF8EDE;" d="M352.81,386.393c-1.811-6.339-10.006-10.593-16.299-10.155       c-6.23,0.433-8.983,6.818-2.626,12.584C342.591,396.721,355.159,394.616,352.81,386.393z"/>
				</g>
				<path style="opacity:0.5;fill:#FFFFFF;" d="M365.298,394.154c-1.028,1.124-2.89,0.083-2.454-1.387      c0.498-1.679,0.961-2.623,1.465-4.053c1.53-4.69,0.886-3.169,1.582-5.661c2.909-14.444-6.278-20.476-3.34-22.142      C365.903,359.012,380.605,377.394,365.298,394.154z"/>
			</g>
			<g>
				<g>
					<path style="fill:#000E3F;" d="M285.557,318.755c9.444,0,19.536,6.192,29.906,11.044c4.366,2.042,8.689,4.134,13.026,6.198       l0.043-0.088l8.69,4.244l-0.044,0.088c4.295,2.152,8.603,4.274,12.897,6.462c17.098,8.696,41.723,14.777,26.217,46.527       c-2.417,4.91-5.331,11.287-9.874,15.266c-1.508,1.336-3.208,2.397-5.13,3.058c-1.734,0.586-3.538,0.837-5.385,0.837       c-6.988,0-14.577-3.595-21.208-6.243c-14.783-5.911-42.936-19.661-56.659-27.672c-7.793-4.552-17.724-9.383-20.614-17.648       c-2.65-7.676,2.038-16.53,5.228-23.099C269.633,323.432,277.35,318.755,285.557,318.755 M285.557,314.852       c-10.819,0-19.459,6.923-26.414,21.165l-0.521,1.067c-3.345,6.845-7.927,16.22-4.89,25.019       c3.053,8.733,11.888,13.773,19.683,18.22c0.902,0.515,1.79,1.022,2.652,1.525c13.891,8.109,42.213,21.942,57.177,27.925       c0.929,0.371,1.875,0.76,2.836,1.155c6.118,2.516,13.052,5.367,19.822,5.367c2.356,0,4.588-0.351,6.635-1.042       c2.331-0.802,4.501-2.09,6.47-3.836c4.787-4.193,7.82-10.398,10.257-15.383l0.529-1.08c5.359-10.971,6.653-19.988,3.964-27.577       c-3.911-11.037-15.419-16.391-25.573-21.115c-2.227-1.036-4.331-2.015-6.342-3.037c-13.512-6.887-27.284-13.211-40.862-19.948       C302.642,319.135,294.02,314.852,285.557,314.852z"/>
				</g>
				<path style="fill:#000E3F;" d="M332.232,363.11c-0.004-0.002-0.007-0.004-0.011-0.006c-0.773-0.369-1.7-0.042-2.07,0.73      c-2.115,4.425-7.115,8.106-12.216,6.215c-2.651-0.977-3.873-2.973-4.449-4.474c-1.097-2.858-0.82-6.588,0.705-9.5      c0.4-0.76,0.106-1.697-0.653-2.094c-0.742-0.444-1.696-0.108-2.094,0.653c-1.952,3.725-2.28,8.344-0.855,12.053      c1.017,2.652,2.819,4.65,5.246,5.836c0.33,0.161,0.671,0.306,1.021,0.436c6.827,2.532,13.388-2.122,16.096-7.785      C333.319,364.404,332.997,363.484,332.232,363.11z"/>
				<path style="fill:#000E3F;" d="M358.898,371.794c0.167-0.84-0.376-1.662-1.219-1.826l-4.782-0.954      c0.003-0.09,0.004-0.179,0.004-0.27l4.393-1.656c0.801-0.303,1.206-1.197,0.904-2c-0.302-0.799-1.193-1.206-2-0.904      l-4.107,1.548c-0.354-0.606-0.815-1.174-1.423-1.667c-2.479-2.007-6.424-2.216-9.219,0.328      c-4.919,4.477-0.26,12.079,6.127,10.915c2.022-0.368,3.577-1.662,4.474-3.297l5.021,1.002      C357.912,373.18,358.73,372.636,358.898,371.794z"/>
				<path style="fill:#000E3F;" d="M301.405,340.007c-0.762-0.177-1.494-0.191-2.19-0.097l-1.304-4.191      c-0.256-0.821-1.126-1.274-1.942-1.021c-0.819,0.255-1.275,1.124-1.021,1.942l1.395,4.483c-0.071,0.055-0.141,0.111-0.21,0.169      l-3.693-3.185c-0.648-0.567-1.63-0.487-2.19,0.161c-0.56,0.65-0.487,1.63,0.161,2.189l3.877,3.345      c-0.738,1.713-0.802,3.734,0.15,5.555c3.009,5.753,11.87,4.753,12.376-1.879C307.102,343.71,304.512,340.728,301.405,340.007z"/>
			</g>
		</g>
	</g>
	<g>
		<g>
			<g>
				<path style="fill:#FC09B2;" d="M81.292,176.609c7.853,17.119,17.267,33.458,27.423,49.304      c7.688,11.995,15.287,25.309,27.069,33.987c28.205,20.772,67.533,1.816,81.793-26.649c15.922-31.781,18.223-121.1-4.701-129.59      c-7.036-2.606-14.434,1.725-18.655,7.245c-3.057,3.997-5.333,8.575-7.261,13.204c-0.415,0.996-1.762,6.82-2.795,7.227      c-0.915,0.255-10.273-20.066-24.99-33.791c-9.474-8.852-18.206-14.179-32.294-16.095c-9.994-1.357-24.301,1.704-35.565,9.425      C58.032,113.682,69.243,150.335,81.292,176.609z"/>
				<g>
					<path style="fill:#FFFFFF;" d="M211.83,155.425c3.071-0.482,3.228-1.768,2.801-3.347c-1.361-5.082-3.54-8.906-5.008-10.517       c-2.492-2.766-5.607-3.117-7.726-0.071c-2.277,3.29-2.714,7.914-3.042,12.139c-0.124,1.632,0.567,2.443,2.042,2.566       C202.799,156.33,209.893,155.7,211.83,155.425z"/>
					<path style="fill:#FFFFFF;" d="M184.38,158.566c2.947-0.695,3-2.001,2.472-3.541c-1.694-4.962-4.189-8.617-5.816-10.097       c-2.756-2.529-6.023-2.559-7.847,0.714c-1.955,3.532-1.817,8.203-1.613,12.413c0.083,1.628,0.862,2.362,2.3,2.315       C175.712,160.238,182.526,158.979,184.38,158.566z"/>
					<path style="fill:#FFFFFF;" d="M158.302,164.997c2.734-1.19,2.568-2.431,1.801-3.885c-2.473-4.651-5.572-7.819-7.427-8.971       c-3.175-2.047-6.401-1.452-7.63,2.061c-1.297,3.837-0.348,8.395,0.585,12.512c0.365,1.589,1.261,2.175,2.675,1.877       C150.103,168.118,156.576,165.721,158.302,164.997z"/>
					<path style="fill:#FFFFFF;" d="M133.549,175.816c2.553-1.588,2.188-2.845,1.201-4.138c-3.174-4.173-6.705-6.833-8.73-7.722       c-3.413-1.491-6.541-0.507-7.198,3.193c-0.718,3.963,0.878,8.32,2.411,12.279c0.596,1.528,1.558,1.954,2.921,1.453       C125.898,180.199,131.929,176.769,133.549,175.816z"/>
					<path style="fill:#FFFFFF;" d="M110.5,190.18c2.314-1.949,1.803-3.107,0.637-4.264c-3.738-3.712-7.597-5.866-9.7-6.45       c-3.612-1.061-6.508,0.378-6.698,4.089c-0.178,4.025,1.977,8.158,3.988,11.871c0.781,1.433,1.805,1.75,3.095,1.067       C103.446,195.55,109.039,191.381,110.5,190.18z"/>
					<path style="fill:#FFFFFF;" d="M149.694,120.848c3.022-0.554,3.156-1.84,2.698-3.41c-1.459-5.053-3.76-8.825-5.31-10.385       c-2.622-2.681-5.912-2.893-7.945,0.291c-2.176,3.427-2.275,8.101-2.268,12.315c0.009,1.632,0.749,2.396,2.182,2.429       C140.877,122.062,147.776,121.156,149.694,120.848z"/>
					<path style="fill:#FFFFFF;" d="M123.707,126.207c2.587-1.164,2.477-2.394,1.713-3.859c-2.414-4.681-5.549-7.807-7.51-8.937       c-3.256-1.931-6.664-1.221-7.777,2.422c-1.201,3.908,0.037,8.426,1.235,12.47c0.47,1.561,1.395,2.092,2.751,1.718       c0.883-0.231,2.839-1.086,4.821-1.871C120.902,127.35,122.867,126.55,123.707,126.207z"/>
					<path style="fill:#FFFFFF;" d="M100.368,138.341c2.293-1.856,1.826-3.021,0.701-4.219c-3.603-3.838-7.438-6.056-9.576-6.66       c-3.641-1.077-6.684,0.447-6.884,4.209c-0.182,4.087,2.045,8.149,4.166,11.825c0.825,1.419,1.835,1.691,3.096,1.012       C93.45,143.55,98.891,139.439,100.368,138.341z"/>
					<path style="fill:#FFFFFF;" d="M212.49,197.434c2.976-0.935,2.931-2.235,2.274-3.73c-2.109-4.816-4.844-8.276-6.54-9.644       c-2.885-2.362-6.025-2.233-7.667,1.095c-1.762,3.595-1.499,8.244-1.195,12.459c0.12,1.628,0.93,2.335,2.411,2.234       C203.673,199.683,210.617,198.003,212.49,197.434z"/>
					<path style="fill:#FFFFFF;" d="M185.736,204.672c2.824-1.13,2.688-2.421,1.934-3.868c-2.419-4.659-5.43-7.912-7.254-9.119       c-3.103-2.108-6.331-1.661-7.658,1.845c-1.427,3.762-0.627,8.376,0.166,12.518c0.311,1.602,1.189,2.215,2.616,1.957       C177.366,207.63,183.954,205.353,185.736,204.672z"/>
					<path style="fill:#FFFFFF;" d="M160.317,214.701c2.658-1.496,2.371-2.731,1.438-4.083c-2.989-4.336-6.371-7.162-8.332-8.146       c-3.339-1.71-6.456-0.882-7.342,2.742c-0.952,3.903,0.352,8.371,1.604,12.417c0.486,1.56,1.431,2.064,2.834,1.635       C152.327,218.696,158.632,215.586,160.317,214.701z"/>
					<path style="fill:#FFFFFF;" d="M136.035,227.606c2.508-1.748,2.076-2.975,1.012-4.211c-3.422-3.978-7.099-6.465-9.14-7.229       c-3.495-1.355-6.491-0.211-7.009,3.469c-0.535,3.995,1.193,8.287,2.844,12.192c0.641,1.506,1.626,1.905,2.993,1.351       C128.466,232.402,134.464,228.696,136.035,227.606z"/>
				</g>
				<g>
					<path style="fill:#6280FF;" d="M218.057,165.12c-40.554,3.769-78.3,15.331-111.739,45.409c-2.207,1.985,0.346,5.46,2.904,3.969       c59.507-34.675,75.639-34.257,109.74-44.844C221.615,168.831,220.821,164.861,218.057,165.12z"/>
					<path style="fill:#6280FF;" d="M85.098,168.49c75.251-40.616,93.155-35.145,91.003-41.7c-0.362-1.099-1.427-1.773-2.53-1.698       c-30.863,2.201-68.228,18.331-91.171,39.643C80.407,166.586,82.694,169.786,85.098,168.49z"/>
					<path style="fill:#6280FF;" d="M94.737,111.014c22.244-10.123,43.961-18.336,43.81-18.273c2.528-1.046,1.765-4.843-0.99-4.813       c-20.014,0.272-46.089,11.584-59.972,26.028c-1.78,1.852,0.301,4.83,2.655,3.782C84.878,115.672,90.105,113.157,94.737,111.014       z"/>
					<path style="fill:#6280FF;" d="M191.384,122.021c-1.175,0.619-1.626,2.074-1.006,3.248c0.559,1.059,1.787,1.317,1.586,1.222       c6.675,1.66,22.72,1.728,29.204,0.118c1.218-0.302,1.96-1.534,1.658-2.753C221.961,120.368,203.767,115.495,191.384,122.021z"/>
				</g>
				<path style="opacity:0.25;fill:#000E3F;" d="M81.292,176.609c10.316,22.489,23.142,43.335,37.02,63.905      c9.693-18.32-5.387-47.609-13.229-64.076c-5.589-11.742-12.178-24.84-4.999-38.951c2.966-5.827,8.546-10.118,19.415-11.445      c14.38-1.757,34.006-2.494,46.126-15.047c1.25-1.291,2.152-2.352,2.823-3.25c-2.775-3.526-5.88-7.038-9.27-10.2      c-9.474-8.852-18.206-14.179-32.294-16.095c-9.994-1.357-24.301,1.704-35.565,9.425      C58.032,113.682,69.243,150.335,81.292,176.609z"/>
			</g>
			<g>
				<path style="fill:#000E3F;" d="M122.021,81.138c1.704,0,3.334,0.104,4.862,0.312c14.088,1.916,22.82,7.243,32.294,16.095      c14.625,13.64,23.958,33.794,24.971,33.794c0.007,0,0.013-0.001,0.019-0.002c1.033-0.407,2.381-6.23,2.794-7.226      c1.928-4.629,4.204-9.208,7.261-13.204c3.356-4.387,8.715-8.023,14.307-8.023c1.444,0,2.904,0.243,4.348,0.778      c22.924,8.491,20.623,97.809,4.701,129.591c-10.062,20.086-32.605,35.437-54.916,35.437c-9.307,0-18.575-2.672-26.878-8.787      c-11.782-8.678-19.382-21.992-27.069-33.987c-10.156-15.846-19.571-32.185-27.423-49.304      c-12.049-26.274-23.26-62.927,10.025-85.734C100.859,84.335,112.584,81.138,122.021,81.138 M122.021,77.235      c-11.088,0-23.391,3.896-32.911,10.421c-40.255,27.583-18.512,74.999-11.366,90.581c7.151,15.59,16.207,31.874,27.686,49.783      c0.877,1.369,1.753,2.755,2.635,4.15c7.072,11.187,14.382,22.755,25.405,30.874c8.602,6.335,18.424,9.548,29.193,9.548      c23.301,0,47.318-15.458,58.405-37.592c13.921-27.787,17.103-91.62,5.974-119.827c-3.197-8.104-7.507-13.209-12.809-15.173      c-1.828-0.677-3.747-1.021-5.704-1.021c-7.446,0-13.874,4.936-17.407,9.555c-2.85,3.726-5.317,8.198-7.763,14.076      c-0.017,0.042-0.035,0.084-0.052,0.128c-4.268-7.133-11.751-18.985-21.466-28.046c-9.341-8.728-18.773-14.979-34.431-17.109      C125.711,77.352,123.899,77.235,122.021,77.235L122.021,77.235z"/>
			</g>
		</g>
		<g>
			<g>
				<path style="fill:#6280FF;" d="M127.228,280.298c2.123,5.044,4.657,11.58,8.958,15.821c0.247,0.251,0.508,0.496,0.785,0.735      c1.236,1.095,2.617,1.988,4.156,2.62c8.115,3.286,18.3-0.983,26.864-3.832c15.106-5.031,44.02-17.101,58.189-24.29      c8.049-4.085,18.245-8.324,21.617-16.405c3.098-7.506-1.061-16.621-3.859-23.366c-2.398-5.744-5.004-10.037-7.772-13.147      c-12.423-13.986-28.21-4.351-44.483,2.123c-4.479,1.781-8.917,3.616-13.368,5.421l-0.038-0.091l-8.924,3.725l0.038,0.091      c-4.413,1.895-8.839,3.76-13.255,5.692C138.558,243.069,113.617,247.691,127.228,280.298z"/>
				<path style="opacity:0.25;fill:#000E3F;" d="M136.971,296.854c1.236,1.095,2.617,1.988,4.156,2.62      c8.115,3.286,18.3-0.983,26.864-3.832c15.106-5.031,44.02-17.101,58.189-24.29c8.049-4.085,18.245-8.324,21.617-16.405      c3.098-7.506-1.061-16.621-3.859-23.366c-2.398-5.744-5.004-10.037-7.772-13.147c0.667,19.494-10.359,32.558-28.588,40.751      c-14.641,6.572-30.533,11.966-44.978,19.554C158.096,281.096,142.703,289.256,136.971,296.854z"/>
				<g>
					<path style="fill:#FF8EDE;" d="M223.3,244.703c-5.957-2.825-14.562,0.523-18.388,5.539c-3.787,4.966-0.809,11.248,7.718,10.281       C224.312,259.197,231.027,248.367,223.3,244.703z"/>
					<path style="fill:#FF8EDE;" d="M151.071,274.854c2.181-6.221,10.612-9.985,16.869-9.178c6.194,0.799,8.566,7.335,1.881,12.717       C160.664,285.765,148.242,282.924,151.071,274.854z"/>
				</g>
				<path style="fill:#FFFFFF;" d="M173.394,252.388c-2.163,1.575-2.606,3.646-1.808,5.704c4.279,11.036,22.075,7.929,25.52-2.252      c1.233-3.644,1.068-11.11-4.303-11.162C189.97,244.651,180.445,247.256,173.394,252.388z"/>
				<path style="opacity:0.5;fill:#FFFFFF;" d="M138.148,281.867c0.96,1.183,2.88,0.253,2.531-1.24      c-0.398-1.705-0.804-2.675-1.225-4.133c-1.251-4.772-0.698-3.216-1.247-5.744c-2.053-14.59,7.472-20.07,4.637-21.907      C139.612,246.75,123.853,264.235,138.148,281.867z"/>
			</g>
			<g>
				<g>
					<path style="fill:#000E3F;" d="M205.495,231.283c-3.171,0.541-5.956,3.39-5.89,7.202c0.116,6.707,8.978,8.24,12.349,2.626       C214.666,236.594,210.918,230.357,205.495,231.283z"/>
				</g>
				<g>
					<path style="fill:#000E3F;" d="M154.07,252.75c2.615-1.874,6.599-1.85,9.262,0.877c4.687,4.799-0.455,12.177-6.817,10.626       C151.397,263.005,149.598,255.954,154.07,252.75z"/>
				</g>
				<g>
					<path style="fill:#000E3F;" d="M220.864,211.252c8.716,0.001,16.617,4.858,23.074,20.328c2.798,6.745,6.956,15.86,3.859,23.367       c-3.372,8.08-13.568,12.319-21.616,16.405c-14.17,7.189-43.084,19.258-58.189,24.29c-6.367,2.118-13.629,5.021-20.272,5.021       c-2.292,0-4.511-0.346-6.592-1.189c-1.881-0.773-3.515-1.932-4.94-3.354c-4.302-4.24-6.836-10.777-8.959-15.821       c-13.61-32.607,11.331-37.229,28.909-44.904c4.416-1.932,8.841-3.797,13.255-5.692l-0.038-0.091l8.924-3.725l0.038,0.09       c4.451-1.804,8.888-3.639,13.368-5.42C201.824,216.519,211.786,211.251,220.864,211.252 M220.864,207.349       c-7.96-0.001-16.279,3.538-24.325,6.96c-2.066,0.878-4.203,1.787-6.299,2.621c-14.149,5.625-28.031,11.955-42.175,17.546       c-10.413,4.118-22.216,8.785-26.769,19.574c-3.13,7.417-2.368,16.495,2.331,27.751l0.468,1.119       c2.14,5.121,4.803,11.495,9.353,15.979c1.845,1.841,3.936,3.255,6.196,4.184c2.435,0.986,5.146,1.483,8.077,1.483       c6.296,0,12.84-2.251,18.613-4.237c0.981-0.337,1.947-0.669,2.891-0.984c15.291-5.093,44.378-17.234,58.723-24.512       c0.89-0.452,1.805-0.905,2.735-1.365c8.044-3.981,17.161-8.493,20.718-17.017c3.555-8.619-0.465-18.246-3.402-25.275       l-0.455-1.09C241.157,214.784,232.431,207.349,220.864,207.349z"/>
				</g>
			</g>
		</g>
	</g>
	<g>
		<g>
			<path style="fill:#6280FF;" d="M289.675,164.568c1.767,1.277,2.841,3.5,1.257,5.273c-2.31,2.586-8.485-1.778-6.665-4.868     C285.453,162.962,287.909,163.292,289.675,164.568z"/>
			<path style="fill:#6280FF;" d="M274.375,117.102c-0.673,2.057-2.255,3.867-4.611,2.829c-3.189-1.405-0.917-8.618,2.571-7.843     c1.628,0.362,2.502,1.504,2.394,3.201C274.691,115.871,274.572,116.497,274.375,117.102z"/>
			<path style="fill:#6280FF;" d="M314.807,87.958c-2.179-0.025-4.355-1.239-4.118-3.584c0.354-3.494,7.915-3.515,8.254,0.022     C319.174,86.816,316.989,87.983,314.807,87.958z"/>
			<path style="fill:#6280FF;" d="M355.019,117.33c-0.659-2.077-0.187-4.518,2.132-5.021c3.472-0.753,5.749,6.459,2.53,7.857     C357.473,121.125,355.679,119.41,355.019,117.33z"/>
			<path style="fill:#6280FF;" d="M339.523,164.673c1.754-1.297,4.199-1.635,5.419,0.458c1.79,3.072-4.373,7.454-6.69,4.834     C336.71,168.221,337.771,165.969,339.523,164.673z"/>
			<path style="fill:#6280FF;" d="M315.826,131.864c1.784-1.342,0.5-3.957-1.647-3.441     C310.955,129.196,313.371,133.71,315.826,131.864z M314.437,137.612c-3.208-0.253-6.459-2.919-7.068-6.006     c-0.662-3.351,1.359-7.049,4.531-8.329c2.977-1.202,6.541-0.18,8.554,2.286C324.176,130.123,320.722,138.108,314.437,137.612z      M322.996,141.805c0.738-1.833,1.522-3.648,2.29-5.47c0.338-0.803,1.304-3.751,1.507-4.598c0.46-1.922,0.903-3.849,1.393-5.764     c-1.515-1.269-2.999-2.575-4.494-3.868c-0.659-0.569-3.165-2.4-3.907-2.854c-1.686-1.031-3.382-2.048-5.051-3.106     c-1.675,1.049-3.376,2.057-5.067,3.079c-0.745,0.451-3.26,2.269-3.922,2.834c-1.502,1.285-2.993,2.584-4.515,3.844     c0.48,1.917,0.913,3.846,1.363,5.771c0.199,0.848,1.15,3.802,1.483,4.606c0.758,1.826,1.533,3.645,2.261,5.482     c1.971,0.136,3.94,0.32,5.909,0.487c0.868,0.073,3.971,0.081,4.839,0.013C319.054,142.105,321.023,141.93,322.996,141.805z      M330.046,138.002c-0.583,2.1-1.221,4.185-1.837,6.276c-0.095,0.322-0.293,0.693,0.092,0.92c0.353,0.208,0.655-0.082,0.93-0.275     c2.155-1.514,4.228-3.101,6.934-4.679c1.015-0.591,2.018-0.421,2.934,0.263c0.875,0.654,1.132,1.538,0.725,2.55     c-0.432,1.076-1.158,1.935-2.06,2.66c-1.969,1.585-3.79,3.353-5.898,4.768c-0.2,0.134-0.458,0.429-0.43,0.608     c0.067,0.42,0.486,0.409,0.832,0.406c1.831-0.017,3.662-0.064,5.492-0.05c0.867,0.006,1.748-0.022,2.588,0.291     c1.296,0.483,2.132,1.575,2.073,2.723c-0.074,1.436-1.128,2.695-2.534,2.931c-0.596,0.1-1.216,0.075-1.825,0.078     c-1.245,0.006-2.489,0.013-3.734,0.018c-0.396,1.18-0.793,2.359-1.19,3.539c-0.194,0.577-0.365,1.174-0.647,1.708     c-0.666,1.261-2.191,1.866-3.578,1.485c-1.108-0.304-1.883-1.441-1.934-2.823c-0.034-0.895,0.27-1.723,0.536-2.548     c0.562-1.742,1.181-3.466,1.772-5.198c0.112-0.328,0.254-0.722-0.124-0.917c-0.16-0.083-0.521,0.069-0.712,0.217     c-2.005,1.557-4.255,2.731-6.379,4.102c-0.972,0.628-2.016,1.048-3.172,1.12c-1.089,0.068-1.847-0.453-2.193-1.489     c-0.362-1.084-0.208-2.091,0.672-2.868c0.914-0.807,1.864-1.577,2.832-2.318c4.031-3.087,4.462-3.03,4.34-3.592     c-0.094-0.437-0.509-0.366-0.844-0.376c-2.179-0.071-4.359-0.12-6.536-0.226c-0.729-0.036-4.311-0.045-5.04-0.013     c-2.177,0.095-4.358,0.132-6.537,0.192c-0.335,0.009-0.749-0.065-0.846,0.372c-0.089,0.4,0.28,0.598,0.548,0.799     c1.255,0.942,2.532,1.855,3.773,2.816c0.964,0.747,1.91,1.521,2.82,2.333c0.876,0.782,1.024,1.79,0.657,2.871     c-0.351,1.034-1.112,1.551-2.2,1.477c-1.157-0.078-2.198-0.504-3.167-1.137c-2.116-1.383-4.36-2.568-6.357-4.135     c-0.19-0.148-0.55-0.303-0.711-0.221c-0.379,0.194-0.239,0.589-0.129,0.917c0.582,1.735,1.192,3.462,1.745,5.207     c0.261,0.826,0.561,1.656,0.523,2.551c-0.059,1.382-0.839,2.514-1.949,2.813c-1.389,0.374-2.912-0.24-3.57-1.504     c-0.28-0.536-0.448-1.133-0.638-1.711c-0.39-1.182-0.781-2.364-1.171-3.545c-1.244-0.012-2.489-0.026-3.734-0.038     c-0.609-0.006-1.229,0.016-1.824-0.087c-1.405-0.243-2.452-1.507-2.518-2.944c-0.053-1.148,0.789-2.236,2.087-2.712     c0.841-0.309,1.723-0.276,2.589-0.278c1.83-0.004,3.661,0.052,5.491,0.079c0.346,0.005,0.765,0.018,0.834-0.401     c0.03-0.179-0.227-0.474-0.426-0.61c-2.101-1.426-3.912-3.203-5.872-4.798c-0.898-0.73-1.62-1.594-2.046-2.671     c-0.401-1.014-0.14-1.897,0.738-2.546c0.919-0.679,1.924-0.844,2.935-0.247c1.05,0.62,2.075,1.285,3.079,1.977     c4.182,2.88,4.261,3.308,4.758,3.018c0.387-0.225,0.19-0.597,0.097-0.919c-1.546-5.348-4.822-15.187-5.552-17.241     c-0.112-0.316-0.17-0.733-0.615-0.69c-0.408,0.039-0.482,0.451-0.591,0.769c-0.853,2.492-1.598,4.994-2.859,7.861     c-0.473,1.075-1.385,1.527-2.528,1.512c-1.092-0.014-1.819-0.579-2.085-1.636c-0.283-1.124-0.2-2.246,0.103-3.363     c0.661-2.44,1.095-4.94,1.969-7.324c0.083-0.226,0.118-0.617-0.01-0.744c-0.301-0.3-0.634-0.045-0.912,0.161     c-1.471,1.09-2.925,2.204-4.413,3.269c-0.705,0.504-1.401,1.045-2.265,1.285c-1.332,0.371-2.651-0.021-3.278-0.984     c-0.784-1.206-0.671-2.843,0.327-3.861c0.423-0.431,0.939-0.776,1.43-1.136c1.004-0.736,2.006-1.473,3.01-2.209     c-0.373-1.188-0.745-2.375-1.118-3.563c-0.182-0.581-0.395-1.164-0.48-1.762c-0.203-1.411,0.676-2.798,2.022-3.305     c1.076-0.405,2.37,0.06,3.224,1.147c0.553,0.704,0.794,1.553,1.064,2.377c0.569,1.739,1.082,3.498,1.622,5.247     c0.102,0.331,0.219,0.733,0.64,0.67c0.179-0.027,0.381-0.363,0.448-0.594c0.707-2.439,1.838-4.711,2.749-7.068     c0.417-1.079,1.015-2.032,1.909-2.771c0.84-0.695,1.76-0.719,2.649-0.084c0.93,0.664,1.397,1.569,1.142,2.715     c-0.682,3.063-1.576,5.559-2.35,8.028c-0.101,0.32-0.285,0.696,0.021,0.969c0.333,0.298,0.627-0.003,0.904-0.192     c4.608-3.123,12.954-9.279,14.681-10.608c0.266-0.204,0.645-0.388,0.466-0.798c-0.163-0.376-0.578-0.319-0.914-0.324     c-2.634-0.041-5.242,0.024-8.36-0.29c-1.168-0.118-1.881-0.846-2.219-1.937c-0.324-1.043-0.012-1.909,0.912-2.489     c0.982-0.616,2.074-0.884,3.23-0.942c2.525-0.125,5.037-0.485,7.574-0.391c0.241,0.009,0.623-0.078,0.705-0.239     c0.192-0.38-0.152-0.617-0.434-0.818c-1.491-1.062-3-2.101-4.473-3.187c-0.698-0.515-1.427-1.01-1.922-1.757     c-0.764-1.153-0.799-2.528-0.077-3.421c0.905-1.119,2.497-1.517,3.773-0.882c0.541,0.27,1.028,0.654,1.522,1.01     c1.01,0.727,2.021,1.453,3.031,2.18c1.014-0.722,2.029-1.443,3.043-2.164c0.496-0.353,0.985-0.735,1.528-1.002     c1.279-0.628,2.869-0.222,3.768,0.902c0.718,0.898,0.676,2.273-0.094,3.421c-0.499,0.744-1.231,1.236-1.931,1.747     c-1.478,1.079-2.993,2.11-4.489,3.164c-0.283,0.199-0.629,0.435-0.439,0.815c0.081,0.162,0.463,0.25,0.704,0.243     c2.537-0.081,5.048,0.292,7.572,0.431c1.155,0.063,2.247,0.337,3.225,0.959c0.921,0.585,1.228,1.452,0.899,2.493     c-0.344,1.089-1.06,1.813-2.229,1.925c-3.124,0.298-5.773,0.219-8.361,0.246c-0.336,0.003-0.75-0.056-0.915,0.32     c-0.181,0.409,0.197,0.594,0.462,0.801c4.394,3.417,8.616,6.594,9.225,6.997c1.817,1.203,3.603,2.455,5.401,3.687     c0.277,0.19,0.568,0.493,0.903,0.197c0.43-0.38,0.056-0.568-1.371-5.465c-0.341-1.171-0.652-2.353-0.91-3.544     c-0.249-1.147,0.223-2.05,1.156-2.709c0.892-0.63,1.812-0.601,2.649,0.098c0.889,0.743,1.482,1.699,1.894,2.781     c0.899,2.363,2.018,4.64,2.712,7.083c0.066,0.232,0.267,0.568,0.445,0.597c0.42,0.066,0.539-0.336,0.643-0.666     c0.549-1.746,1.071-3.502,1.649-5.239c0.274-0.822,0.52-1.67,1.077-2.371c0.86-1.083,2.157-1.541,3.23-1.13     c1.343,0.515,2.214,1.906,2.005,3.315c-0.089,0.598-0.304,1.18-0.49,1.76c-0.379,1.186-0.757,2.371-1.137,3.557     c1,0.741,1.999,1.483,2.999,2.225c0.489,0.363,1.003,0.709,1.424,1.143c0.993,1.022,1.098,2.66,0.307,3.862     c-0.632,0.96-1.953,1.345-3.283,0.967c-0.862-0.245-1.556-0.789-2.258-1.297c-1.483-1.073-2.931-2.194-4.396-3.292     c-0.277-0.208-0.608-0.464-0.911-0.165c-0.129,0.127-0.095,0.517-0.014,0.744c0.861,2.388,1.282,4.891,1.93,7.334     c0.297,1.118,0.374,2.241,0.085,3.363c-0.271,1.056-1.001,1.617-2.094,1.625c-1.142,0.009-2.052-0.448-2.52-1.525     c-1.249-2.879-1.993-5.423-2.818-7.876c-0.107-0.318-0.179-0.73-0.587-0.772c-0.445-0.045-0.505,0.371-0.619,0.687     C331.699,133.018,330.241,137.298,330.046,138.002z"/>
		</g>
		<g>
			<path style="fill:#6280FF;" d="M141.051,446.676c1.924,1.39,3.094,3.812,1.37,5.742c-2.516,2.816-9.24-1.936-7.258-5.301     C136.453,444.927,139.128,445.287,141.051,446.676z"/>
			<path style="fill:#6280FF;" d="M124.389,394.986c-0.732,2.24-2.455,4.212-5.022,3.081c-3.472-1.53-0.999-9.384,2.799-8.541     c1.773,0.394,2.725,1.638,2.607,3.486C124.734,393.646,124.604,394.328,124.389,394.986z"/>
			<path style="fill:#6280FF;" d="M168.419,363.25c-2.373-0.027-4.743-1.349-4.484-3.903c0.385-3.805,8.618-3.828,8.988,0.024     C173.175,362.005,170.795,363.277,168.419,363.25z"/>
			<path style="fill:#6280FF;" d="M212.209,395.235c-0.718-2.262-0.204-4.92,2.322-5.467c3.781-0.82,6.26,7.033,2.755,8.556     C214.881,399.368,212.928,397.5,212.209,395.235z"/>
			<path style="fill:#6280FF;" d="M195.334,446.791c1.91-1.413,4.573-1.781,5.901,0.498c1.949,3.345-4.763,8.118-7.285,5.264     C192.272,450.654,193.427,448.202,195.334,446.791z"/>
			<path style="fill:#6280FF;" d="M169.529,411.062c1.942-1.462,0.545-4.309-1.794-3.747     C164.224,408.157,166.855,413.073,169.529,411.062z M168.016,417.322c-3.493-0.276-7.033-3.179-7.697-6.54     c-0.721-3.649,1.48-7.676,4.934-9.07c3.242-1.309,7.123-0.196,9.316,2.49C178.622,409.166,174.861,417.862,168.016,417.322z      M177.337,421.887c0.804-1.996,1.658-3.973,2.493-5.956c0.368-0.874,1.421-4.085,1.642-5.007     c0.501-2.093,0.983-4.192,1.517-6.277c-1.65-1.382-3.266-2.804-4.894-4.212c-0.718-0.62-3.446-2.613-4.255-3.108     c-1.836-1.123-3.683-2.23-5.501-3.382c-1.824,1.143-3.677,2.24-5.518,3.354c-0.812,0.491-3.551,2.47-4.271,3.086     c-1.636,1.399-3.259,2.813-4.916,4.186c0.523,2.088,0.994,4.189,1.484,6.284c0.216,0.924,1.252,4.14,1.615,5.016     c0.825,1.988,1.669,3.969,2.462,5.969c2.147,0.148,4.291,0.349,6.435,0.531c0.945,0.08,4.324,0.089,5.27,0.014     C173.044,422.214,175.189,422.024,177.337,421.887z M185.014,417.746c-0.635,2.287-1.33,4.558-2.001,6.835     c-0.103,0.35-0.319,0.754,0.101,1.001c0.385,0.227,0.713-0.089,1.012-0.299c2.347-1.65,4.604-3.377,7.551-5.096     c1.105-0.644,2.198-0.459,3.195,0.286c0.953,0.712,1.233,1.674,0.79,2.776c-0.47,1.171-1.261,2.107-2.243,2.897     c-2.144,1.726-4.127,3.651-6.422,5.192c-0.218,0.147-0.499,0.467-0.468,0.662c0.073,0.457,0.529,0.446,0.906,0.442     c1.993-0.019,3.987-0.069,5.98-0.055c0.944,0.007,1.904-0.024,2.818,0.317c1.411,0.526,2.322,1.715,2.257,2.965     c-0.081,1.564-1.228,2.934-2.759,3.192c-0.649,0.109-1.324,0.082-1.987,0.085c-1.355,0.006-2.711,0.014-4.066,0.02     c-0.431,1.285-0.864,2.569-1.295,3.854c-0.211,0.629-0.397,1.278-0.705,1.86c-0.725,1.373-2.386,2.032-3.897,1.617     c-1.207-0.332-2.05-1.569-2.107-3.074c-0.037-0.975,0.294-1.876,0.584-2.775c0.612-1.897,1.286-3.774,1.93-5.661     c0.122-0.357,0.276-0.786-0.135-0.999c-0.175-0.091-0.568,0.076-0.775,0.236c-2.184,1.696-4.634,2.974-6.946,4.467     c-1.058,0.684-2.195,1.142-3.455,1.22c-1.185,0.074-2.012-0.493-2.388-1.621c-0.394-1.18-0.227-2.276,0.731-3.123     c0.995-0.879,2.03-1.717,3.084-2.524c4.389-3.362,4.859-3.299,4.727-3.912c-0.103-0.476-0.554-0.398-0.919-0.41     c-2.372-0.078-4.747-0.131-7.117-0.246c-0.794-0.039-4.695-0.049-5.489-0.014c-2.371,0.103-4.745,0.144-7.118,0.209     c-0.365,0.01-0.816-0.071-0.921,0.405c-0.097,0.436,0.305,0.651,0.597,0.87c1.367,1.026,2.758,2.02,4.109,3.066     c1.05,0.813,2.08,1.656,3.071,2.54c0.954,0.852,1.116,1.949,0.716,3.127c-0.382,1.126-1.211,1.69-2.396,1.609     c-1.26-0.085-2.394-0.548-3.449-1.238c-2.304-1.506-4.748-2.797-6.923-4.504c-0.207-0.162-0.599-0.33-0.774-0.241     c-0.412,0.211-0.26,0.641-0.14,0.999c0.634,1.89,1.298,3.771,1.9,5.671c0.285,0.9,0.611,1.803,0.569,2.778     c-0.064,1.504-0.914,2.738-2.122,3.063c-1.513,0.407-3.171-0.261-3.888-1.638c-0.304-0.584-0.487-1.234-0.695-1.863     c-0.424-1.287-0.85-2.574-1.275-3.861c-1.355-0.013-2.71-0.028-4.066-0.041c-0.663-0.007-1.338,0.017-1.987-0.095     c-1.529-0.265-2.67-1.641-2.742-3.206c-0.058-1.25,0.859-2.434,2.273-2.953c0.916-0.336,1.876-0.3,2.82-0.302     c1.993-0.005,3.987,0.057,5.98,0.086c0.377,0.006,0.833,0.019,0.909-0.438c0.032-0.194-0.247-0.516-0.464-0.664     c-2.288-1.553-4.26-3.488-6.395-5.225c-0.977-0.796-1.763-1.735-2.228-2.909c-0.437-1.104-0.153-2.065,0.804-2.772     c1.001-0.74,2.095-0.919,3.196-0.269c1.143,0.675,2.26,1.4,3.354,2.153c4.554,3.136,4.64,3.602,5.181,3.286     c0.422-0.245,0.207-0.65,0.106-1.001c-1.684-5.823-5.251-16.538-6.046-18.775c-0.122-0.344-0.185-0.798-0.67-0.751     c-0.444,0.043-0.525,0.491-0.643,0.837c-0.929,2.714-1.74,5.438-3.113,8.561c-0.515,1.17-1.509,1.663-2.753,1.647     c-1.19-0.015-1.981-0.63-2.271-1.782c-0.308-1.224-0.218-2.446,0.112-3.662c0.72-2.657,1.193-5.38,2.144-7.975     c0.09-0.247,0.129-0.671-0.01-0.811c-0.328-0.327-0.69-0.049-0.993,0.175c-1.602,1.187-3.185,2.4-4.806,3.56     c-0.768,0.549-1.526,1.138-2.466,1.4c-1.451,0.404-2.886-0.023-3.569-1.072c-0.854-1.313-0.731-3.096,0.356-4.204     c0.461-0.47,1.023-0.844,1.558-1.237c1.093-0.802,2.185-1.604,3.278-2.406c-0.407-1.293-0.811-2.587-1.217-3.88     c-0.199-0.633-0.43-1.267-0.523-1.919c-0.221-1.537,0.736-3.047,2.202-3.599c1.171-0.441,2.581,0.065,3.511,1.249     c0.603,0.767,0.865,1.691,1.159,2.588c0.62,1.894,1.178,3.809,1.766,5.714c0.111,0.361,0.239,0.798,0.697,0.729     c0.195-0.03,0.415-0.395,0.488-0.647c0.77-2.655,2.001-5.13,2.994-7.697c0.454-1.176,1.105-2.213,2.078-3.018     c0.915-0.757,1.917-0.783,2.885-0.092c1.013,0.723,1.522,1.708,1.244,2.957c-0.743,3.336-1.716,6.053-2.558,8.743     c-0.11,0.349-0.31,0.758,0.023,1.055c0.363,0.325,0.682-0.004,0.985-0.209c5.018-3.401,14.106-10.104,15.988-11.552     c0.29-0.223,0.702-0.422,0.507-0.869c-0.178-0.409-0.629-0.347-0.995-0.353c-2.868-0.045-5.709,0.026-9.104-0.316     c-1.272-0.128-2.048-0.921-2.417-2.109c-0.353-1.136-0.013-2.079,0.993-2.71c1.069-0.671,2.259-0.963,3.518-1.026     c2.749-0.136,5.485-0.528,8.248-0.426c0.263,0.01,0.678-0.085,0.768-0.26c0.21-0.413-0.166-0.671-0.473-0.89     c-1.624-1.157-3.267-2.288-4.871-3.471c-0.759-0.56-1.554-1.1-2.093-1.913c-0.833-1.255-0.87-2.753-0.083-3.726     c0.985-1.218,2.719-1.652,4.108-0.961c0.589,0.293,1.119,0.712,1.658,1.1c1.1,0.792,2.201,1.582,3.301,2.374     c1.104-0.786,2.209-1.571,3.313-2.357c0.54-0.384,1.072-0.8,1.663-1.091c1.393-0.684,3.125-0.242,4.103,0.982     c0.782,0.977,0.736,2.474-0.103,3.725c-0.543,0.81-1.341,1.345-2.103,1.902c-1.61,1.175-3.259,2.297-4.889,3.445     c-0.308,0.217-0.685,0.474-0.478,0.888c0.089,0.176,0.504,0.272,0.766,0.264c2.763-0.088,5.497,0.318,8.245,0.469     c1.258,0.068,2.447,0.367,3.512,1.044c1.003,0.637,1.337,1.582,0.979,2.716c-0.375,1.186-1.155,1.975-2.427,2.096     c-3.402,0.324-6.287,0.239-9.105,0.268c-0.366,0.004-0.817-0.061-0.997,0.348c-0.197,0.446,0.214,0.647,0.503,0.872     c4.785,3.721,9.383,7.181,10.046,7.62c1.979,1.311,3.923,2.673,5.881,4.015c0.301,0.207,0.619,0.537,0.983,0.214     c0.468-0.414,0.061-0.618-1.493-5.951c-0.372-1.275-0.71-2.563-0.991-3.86c-0.271-1.249,0.243-2.232,1.259-2.95     c0.971-0.686,1.973-0.655,2.885,0.107c0.969,0.809,1.614,1.851,2.062,3.028c0.979,2.573,2.197,5.053,2.953,7.713     c0.072,0.253,0.29,0.619,0.485,0.65c0.457,0.071,0.587-0.366,0.701-0.725c0.598-1.902,1.166-3.814,1.796-5.704     c0.298-0.896,0.566-1.818,1.172-2.582c0.937-1.179,2.349-1.678,3.518-1.231c1.463,0.56,2.411,2.075,2.183,3.61     c-0.097,0.651-0.332,1.285-0.533,1.916c-0.413,1.291-0.825,2.582-1.238,3.873c1.089,0.807,2.177,1.616,3.265,2.423     c0.533,0.395,1.093,0.772,1.551,1.245c1.082,1.114,1.195,2.897,0.334,4.206c-0.688,1.046-2.126,1.465-3.575,1.054     c-0.939-0.266-1.694-0.859-2.459-1.413c-1.615-1.168-3.192-2.39-4.788-3.585c-0.302-0.226-0.662-0.505-0.992-0.18     c-0.14,0.138-0.104,0.563-0.015,0.81c0.938,2.601,1.396,5.326,2.102,7.987c0.323,1.218,0.407,2.441,0.093,3.663     c-0.296,1.15-1.09,1.761-2.28,1.77c-1.244,0.01-2.235-0.488-2.744-1.661c-1.36-3.135-2.17-5.906-3.069-8.577     c-0.117-0.346-0.195-0.795-0.639-0.84c-0.485-0.049-0.55,0.404-0.674,0.747C186.814,412.319,185.226,416.98,185.014,417.746z"/>
		</g>
		<g>
			<path style="fill:#6280FF;" d="M18.031,267.982c1.486,1.074,2.389,2.944,1.058,4.435c-1.943,2.175-7.137-1.496-5.606-4.094     C14.479,266.631,16.546,266.909,18.031,267.982z"/>
			<path style="fill:#6280FF;" d="M5.162,228.058c-0.566,1.73-1.897,3.253-3.879,2.38c-2.682-1.181-0.771-7.248,2.162-6.597     c1.369,0.304,2.104,1.265,2.014,2.693C5.428,227.023,5.328,227.55,5.162,228.058z"/>
			<path style="fill:#6280FF;" d="M39.169,203.546c-1.833-0.021-3.663-1.042-3.464-3.014c0.298-2.939,6.657-2.957,6.942,0.018     C42.843,202.585,41.005,203.567,39.169,203.546z"/>
			<path style="fill:#6280FF;" d="M72.991,228.251c-0.554-1.747-0.157-3.8,1.794-4.223c2.92-0.633,4.835,5.432,2.128,6.608     C75.055,231.443,73.547,230,72.991,228.251z"/>
			<path style="fill:#6280FF;" d="M59.958,268.071c1.475-1.091,3.532-1.375,4.558,0.385c1.505,2.584-3.679,6.27-5.627,4.066     C57.592,271.055,58.485,269.161,59.958,268.071z"/>
			<path style="fill:#6280FF;" d="M40.027,240.475c1.5-1.129,0.421-3.328-1.386-2.894C35.929,238.231,37.961,242.028,40.027,240.475     z M38.858,245.31c-2.698-0.213-5.432-2.456-5.945-5.052c-0.557-2.819,1.143-5.929,3.811-7.006     c2.504-1.011,5.501-0.151,7.195,1.923C47.05,239.011,44.145,245.727,38.858,245.31z M46.057,248.836     c0.621-1.542,1.28-3.069,1.926-4.6c0.284-0.675,1.097-3.155,1.268-3.867c0.387-1.617,0.759-3.238,1.171-4.848     c-1.274-1.067-2.523-2.166-3.78-3.253c-0.554-0.479-2.662-2.019-3.286-2.401c-1.418-0.867-2.845-1.723-4.249-2.612     c-1.409,0.882-2.84,1.73-4.262,2.59c-0.627,0.379-2.743,1.908-3.299,2.384c-1.263,1.081-2.517,2.173-3.797,3.233     c0.404,1.612,0.768,3.235,1.146,4.854c0.167,0.713,0.967,3.198,1.247,3.874c0.637,1.535,1.289,3.066,1.902,4.611     c1.658,0.114,3.314,0.27,4.971,0.41c0.73,0.062,3.34,0.068,4.07,0.011C42.741,249.088,44.398,248.942,46.057,248.836z      M51.987,245.638c-0.49,1.766-1.027,3.52-1.546,5.279c-0.08,0.271-0.247,0.583,0.077,0.773c0.297,0.175,0.551-0.068,0.782-0.231     c1.813-1.274,3.556-2.608,5.832-3.936c0.853-0.498,1.698-0.354,2.468,0.221c0.736,0.55,0.952,1.293,0.61,2.144     c-0.363,0.904-0.974,1.627-1.732,2.238c-1.656,1.333-3.188,2.82-4.961,4.01c-0.168,0.113-0.385,0.361-0.361,0.511     c0.056,0.353,0.409,0.344,0.7,0.341c1.54-0.015,3.08-0.054,4.619-0.043c0.729,0.006,1.47-0.018,2.176,0.245     c1.09,0.407,1.793,1.325,1.744,2.29c-0.062,1.208-0.949,2.267-2.131,2.465c-0.501,0.084-1.023,0.063-1.535,0.066     c-1.047,0.005-2.094,0.011-3.141,0.015c-0.333,0.992-0.667,1.984-1.001,2.977c-0.163,0.485-0.307,0.987-0.544,1.436     c-0.56,1.06-1.843,1.57-3.01,1.249c-0.932-0.256-1.583-1.212-1.627-2.374c-0.028-0.753,0.227-1.449,0.451-2.143     c0.472-1.465,0.993-2.915,1.49-4.372c0.094-0.276,0.213-0.607-0.105-0.772c-0.135-0.07-0.438,0.058-0.599,0.182     c-1.687,1.31-3.579,2.297-5.365,3.451c-0.817,0.528-1.696,0.881-2.668,0.942c-0.916,0.058-1.554-0.381-1.844-1.252     c-0.304-0.912-0.175-1.758,0.565-2.412c0.769-0.679,1.568-1.326,2.382-1.949c3.39-2.597,3.753-2.548,3.651-3.022     c-0.079-0.368-0.428-0.307-0.71-0.316c-1.832-0.06-3.666-0.101-5.497-0.19c-0.614-0.03-3.626-0.038-4.24-0.011     c-1.831,0.08-3.665,0.111-5.498,0.161c-0.282,0.008-0.63-0.055-0.712,0.313c-0.075,0.337,0.236,0.503,0.461,0.672     c1.056,0.793,2.13,1.561,3.174,2.368c0.811,0.628,1.607,1.279,2.372,1.962c0.737,0.658,0.862,1.505,0.553,2.415     c-0.295,0.87-0.936,1.305-1.851,1.242c-0.973-0.066-1.849-0.423-2.664-0.956c-1.78-1.163-3.667-2.16-5.347-3.479     c-0.16-0.125-0.463-0.255-0.598-0.186c-0.318,0.163-0.201,0.495-0.108,0.771c0.49,1.46,1.003,2.912,1.468,4.38     c0.22,0.695,0.472,1.393,0.439,2.146c-0.049,1.162-0.706,2.115-1.639,2.366c-1.169,0.314-2.449-0.202-3.003-1.265     c-0.235-0.451-0.376-0.953-0.537-1.44c-0.328-0.994-0.657-1.988-0.985-2.982c-1.047-0.01-2.093-0.022-3.14-0.031     c-0.512-0.005-1.033,0.013-1.535-0.073c-1.181-0.205-2.062-1.268-2.118-2.476c-0.044-0.966,0.664-1.88,1.756-2.281     c0.708-0.26,1.449-0.232,2.178-0.233c1.539-0.004,3.079,0.044,4.619,0.066c0.291,0.004,0.643,0.015,0.702-0.338     c0.025-0.15-0.191-0.399-0.359-0.513c-1.767-1.199-3.29-2.694-4.939-4.036c-0.755-0.614-1.362-1.34-1.721-2.247     c-0.338-0.853-0.118-1.595,0.621-2.141c0.773-0.571,1.618-0.71,2.469-0.208c0.883,0.521,1.746,1.081,2.59,1.663     c3.517,2.422,3.583,2.782,4.002,2.538c0.325-0.189,0.16-0.502,0.082-0.773c-1.301-4.498-4.056-12.774-4.67-14.501     c-0.095-0.266-0.143-0.617-0.517-0.58c-0.343,0.033-0.406,0.379-0.497,0.646c-0.718,2.096-1.344,4.2-2.405,6.612     c-0.398,0.904-1.165,1.285-2.126,1.272c-0.919-0.012-1.53-0.486-1.754-1.376c-0.238-0.945-0.168-1.889,0.086-2.829     c0.556-2.052,0.921-4.155,1.656-6.16c0.069-0.191,0.099-0.519-0.008-0.626c-0.253-0.252-0.533-0.038-0.767,0.135     c-1.237,0.917-2.46,1.854-3.712,2.749c-0.593,0.424-1.179,0.879-1.905,1.081c-1.121,0.312-2.229-0.018-2.757-0.828     c-0.66-1.014-0.565-2.391,0.275-3.247c0.356-0.363,0.79-0.652,1.203-0.955c0.844-0.619,1.688-1.239,2.532-1.858     c-0.314-0.999-0.627-1.998-0.941-2.997c-0.153-0.489-0.332-0.979-0.404-1.482c-0.17-1.187,0.568-2.353,1.7-2.78     c0.905-0.341,1.994,0.05,2.712,0.965c0.465,0.592,0.668,1.306,0.895,1.999c0.479,1.463,0.91,2.942,1.364,4.413     c0.086,0.279,0.184,0.616,0.538,0.563c0.151-0.023,0.321-0.305,0.377-0.5c0.595-2.051,1.546-3.962,2.312-5.945     c0.351-0.908,0.854-1.71,1.605-2.331c0.707-0.584,1.481-0.605,2.228-0.071c0.782,0.559,1.175,1.319,0.961,2.284     c-0.574,2.576-1.325,4.675-1.976,6.753c-0.085,0.27-0.24,0.585,0.018,0.815c0.28,0.251,0.527-0.003,0.76-0.161     c3.876-2.627,10.895-7.804,12.348-8.922c0.224-0.172,0.542-0.326,0.392-0.671c-0.137-0.316-0.486-0.268-0.768-0.273     c-2.216-0.035-4.41,0.02-7.032-0.244c-0.983-0.099-1.582-0.711-1.867-1.629c-0.272-0.877-0.01-1.606,0.767-2.093     c0.826-0.518,1.745-0.744,2.717-0.792c2.123-0.105,4.236-0.408,6.37-0.329c0.203,0.007,0.524-0.066,0.593-0.201     c0.162-0.319-0.128-0.519-0.366-0.688c-1.254-0.893-2.523-1.767-3.762-2.681c-0.586-0.433-1.2-0.85-1.617-1.478     c-0.643-0.969-0.672-2.126-0.065-2.878c0.761-0.941,2.1-1.276,3.173-0.742c0.455,0.227,0.864,0.55,1.28,0.849     c0.85,0.611,1.7,1.222,2.55,1.833c0.853-0.607,1.706-1.213,2.559-1.82c0.417-0.297,0.828-0.618,1.285-0.842     c1.076-0.529,2.413-0.187,3.169,0.758c0.604,0.755,0.569,1.911-0.079,2.877c-0.42,0.626-1.036,1.039-1.625,1.469     c-1.243,0.908-2.517,1.774-3.776,2.661c-0.238,0.168-0.529,0.366-0.369,0.686c0.068,0.136,0.389,0.21,0.592,0.204     c2.134-0.068,4.246,0.246,6.368,0.362c0.972,0.053,1.89,0.284,2.713,0.806c0.774,0.492,1.033,1.221,0.756,2.097     c-0.289,0.916-0.892,1.525-1.875,1.619c-2.627,0.251-4.856,0.185-7.033,0.208c-0.283,0.003-0.631-0.047-0.77,0.269     c-0.152,0.344,0.166,0.5,0.389,0.673c3.696,2.874,7.247,5.547,7.759,5.886c1.528,1.012,3.03,2.064,4.543,3.101     c0.233,0.16,0.478,0.415,0.759,0.165c0.361-0.32,0.047-0.477-1.153-4.596c-0.287-0.985-0.548-1.979-0.765-2.981     c-0.21-0.965,0.188-1.724,0.972-2.279c0.75-0.53,1.524-0.505,2.228,0.083c0.748,0.625,1.247,1.429,1.593,2.339     c0.756,1.987,1.697,3.903,2.281,5.957c0.056,0.195,0.224,0.478,0.374,0.502c0.353,0.055,0.454-0.283,0.541-0.56     c0.462-1.469,0.9-2.945,1.387-4.406c0.23-0.692,0.437-1.404,0.905-1.994c0.723-0.911,1.814-1.296,2.717-0.951     c1.13,0.433,1.863,1.603,1.686,2.788c-0.075,0.503-0.256,0.992-0.412,1.48c-0.319,0.997-0.637,1.994-0.956,2.992     c0.841,0.624,1.681,1.248,2.522,1.872c0.411,0.305,0.844,0.597,1.198,0.961c0.835,0.86,0.923,2.238,0.258,3.248     c-0.532,0.807-1.642,1.131-2.761,0.814c-0.725-0.206-1.308-0.664-1.899-1.091c-1.247-0.902-2.465-1.846-3.698-2.769     c-0.233-0.175-0.511-0.39-0.766-0.139c-0.108,0.107-0.08,0.435-0.011,0.626c0.724,2.009,1.078,4.114,1.624,6.169     c0.25,0.941,0.315,1.885,0.071,2.829c-0.228,0.888-0.842,1.36-1.761,1.367c-0.961,0.008-1.726-0.377-2.12-1.283     c-1.05-2.422-1.676-4.561-2.37-6.624c-0.09-0.268-0.15-0.615-0.493-0.649c-0.374-0.038-0.425,0.312-0.52,0.577     C53.377,241.446,52.151,245.046,51.987,245.638z"/>
		</g>
		<g>
			<path style="fill:#6280FF;" d="M436.805,436.902c1.486,1.074,2.39,2.944,1.058,4.435c-1.943,2.175-7.137-1.496-5.606-4.094     C433.254,435.551,435.32,435.828,436.805,436.902z"/>
			<path style="fill:#6280FF;" d="M423.936,396.978c-0.565,1.73-1.896,3.253-3.879,2.38c-2.682-1.182-0.771-7.248,2.162-6.597     c1.369,0.304,2.104,1.265,2.014,2.693C424.203,395.943,424.103,396.469,423.936,396.978z"/>
			<path style="fill:#6280FF;" d="M457.944,372.466c-1.833-0.021-3.663-1.042-3.464-3.014c0.297-2.939,6.657-2.957,6.942,0.018     C461.617,371.505,459.779,372.487,457.944,372.466z"/>
			<path style="fill:#6280FF;" d="M491.766,397.171c-0.555-1.747-0.158-3.8,1.794-4.223c2.92-0.633,4.835,5.432,2.128,6.608     C493.83,400.362,492.321,398.92,491.766,397.171z"/>
			<path style="fill:#6280FF;" d="M478.732,436.99c1.475-1.091,3.532-1.375,4.558,0.385c1.505,2.583-3.678,6.27-5.627,4.066     C476.367,439.974,477.259,438.08,478.732,436.99z"/>
			<path style="fill:#6280FF;" d="M458.801,409.394c1.5-1.129,0.421-3.328-1.385-2.894     C454.704,407.151,456.736,410.947,458.801,409.394z M457.633,414.23c-2.698-0.213-5.432-2.455-5.945-5.052     c-0.557-2.819,1.144-5.928,3.811-7.006c2.504-1.011,5.501-0.151,7.195,1.923C465.825,407.93,462.919,414.646,457.633,414.23z      M464.831,417.756c0.621-1.542,1.28-3.069,1.926-4.6c0.284-0.675,1.097-3.155,1.268-3.867c0.387-1.617,0.759-3.238,1.172-4.848     c-1.275-1.067-2.523-2.166-3.78-3.253c-0.554-0.479-2.662-2.018-3.287-2.401c-1.418-0.867-2.844-1.723-4.248-2.612     c-1.409,0.883-2.84,1.73-4.262,2.59c-0.627,0.379-2.742,1.908-3.299,2.384c-1.263,1.081-2.517,2.173-3.797,3.233     c0.404,1.612,0.768,3.235,1.146,4.854c0.167,0.714,0.967,3.198,1.248,3.874c0.637,1.535,1.289,3.065,1.902,4.61     c1.658,0.114,3.314,0.27,4.97,0.41c0.73,0.061,3.34,0.068,4.07,0.01C461.516,418.008,463.173,417.861,464.831,417.756z      M470.761,414.557c-0.49,1.767-1.027,3.52-1.545,5.279c-0.08,0.271-0.246,0.583,0.078,0.773c0.297,0.175,0.551-0.069,0.782-0.231     c1.813-1.274,3.556-2.608,5.832-3.936c0.853-0.497,1.698-0.354,2.468,0.221c0.736,0.549,0.952,1.293,0.61,2.144     c-0.363,0.905-0.974,1.627-1.732,2.238c-1.656,1.333-3.188,2.82-4.96,4.01c-0.168,0.113-0.385,0.361-0.361,0.511     c0.057,0.353,0.409,0.344,0.7,0.342c1.54-0.014,3.08-0.054,4.619-0.042c0.729,0.005,1.471-0.018,2.177,0.245     c1.09,0.406,1.793,1.325,1.743,2.29c-0.062,1.208-0.949,2.267-2.131,2.465c-0.502,0.084-1.023,0.063-1.535,0.066     c-1.047,0.005-2.094,0.011-3.141,0.015c-0.333,0.993-0.667,1.984-1,2.977c-0.163,0.486-0.307,0.987-0.544,1.437     c-0.56,1.06-1.843,1.57-3.01,1.249c-0.932-0.256-1.583-1.212-1.627-2.375c-0.028-0.753,0.227-1.449,0.451-2.143     c0.473-1.465,0.993-2.915,1.49-4.372c0.094-0.276,0.213-0.607-0.104-0.772c-0.135-0.07-0.439,0.058-0.599,0.183     c-1.686,1.309-3.579,2.297-5.365,3.45c-0.818,0.528-1.695,0.882-2.669,0.942c-0.915,0.057-1.554-0.381-1.844-1.253     c-0.304-0.911-0.175-1.758,0.565-2.412c0.769-0.679,1.568-1.326,2.382-1.949c3.39-2.596,3.753-2.548,3.651-3.022     c-0.079-0.368-0.428-0.307-0.71-0.316c-1.832-0.06-3.666-0.101-5.497-0.19c-0.614-0.03-3.626-0.038-4.24-0.011     c-1.832,0.079-3.665,0.111-5.498,0.161c-0.282,0.008-0.63-0.055-0.711,0.313c-0.075,0.337,0.235,0.503,0.461,0.672     c1.055,0.792,2.13,1.56,3.173,2.368c0.811,0.628,1.607,1.279,2.372,1.962c0.737,0.658,0.862,1.505,0.552,2.415     c-0.295,0.87-0.935,1.305-1.851,1.242c-0.973-0.066-1.849-0.424-2.664-0.956c-1.78-1.163-3.667-2.16-5.347-3.478     c-0.16-0.125-0.463-0.255-0.598-0.186c-0.318,0.163-0.201,0.495-0.108,0.771c0.49,1.46,1.003,2.913,1.468,4.38     c0.22,0.695,0.472,1.393,0.44,2.146c-0.05,1.162-0.706,2.115-1.639,2.366c-1.168,0.314-2.449-0.202-3.003-1.265     c-0.235-0.451-0.376-0.953-0.537-1.44c-0.328-0.994-0.657-1.988-0.985-2.982c-1.047-0.01-2.093-0.022-3.141-0.032     c-0.512-0.005-1.033,0.013-1.534-0.073c-1.181-0.205-2.062-1.268-2.118-2.477c-0.045-0.966,0.664-1.88,1.755-2.281     c0.708-0.26,1.449-0.232,2.178-0.233c1.539-0.004,3.08,0.044,4.619,0.066c0.291,0.004,0.643,0.015,0.702-0.338     c0.025-0.15-0.191-0.399-0.359-0.513c-1.767-1.199-3.29-2.694-4.939-4.036c-0.755-0.614-1.362-1.34-1.721-2.247     c-0.337-0.853-0.118-1.595,0.621-2.141c0.773-0.571,1.618-0.71,2.469-0.208c0.883,0.521,1.746,1.081,2.59,1.663     c3.517,2.422,3.583,2.782,4.002,2.538c0.326-0.189,0.16-0.502,0.082-0.773c-1.301-4.498-4.056-12.774-4.67-14.501     c-0.095-0.266-0.143-0.616-0.517-0.58c-0.343,0.033-0.405,0.379-0.497,0.646c-0.718,2.096-1.344,4.2-2.405,6.612     c-0.398,0.904-1.165,1.285-2.126,1.272c-0.919-0.012-1.53-0.487-1.754-1.376c-0.238-0.946-0.169-1.889,0.086-2.828     c0.556-2.052,0.921-4.155,1.656-6.16c0.069-0.191,0.099-0.519-0.008-0.626c-0.253-0.252-0.533-0.038-0.767,0.135     c-1.237,0.917-2.46,1.854-3.712,2.749c-0.593,0.424-1.179,0.879-1.905,1.081c-1.121,0.312-2.229-0.018-2.757-0.828     c-0.66-1.014-0.565-2.391,0.275-3.247c0.356-0.363,0.79-0.652,1.203-0.955c0.844-0.619,1.688-1.239,2.532-1.858     c-0.314-0.999-0.627-1.998-0.94-2.997c-0.154-0.488-0.332-0.979-0.405-1.482c-0.17-1.187,0.569-2.353,1.701-2.78     c0.905-0.341,1.993,0.05,2.712,0.965c0.466,0.592,0.668,1.306,0.895,1.999c0.479,1.463,0.91,2.942,1.364,4.413     c0.086,0.278,0.185,0.616,0.538,0.563c0.15-0.023,0.32-0.305,0.377-0.5c0.595-2.051,1.546-3.962,2.312-5.945     c0.351-0.908,0.854-1.709,1.605-2.331c0.707-0.585,1.481-0.605,2.228-0.071c0.782,0.558,1.175,1.32,0.961,2.284     c-0.573,2.576-1.325,4.675-1.976,6.753c-0.085,0.269-0.24,0.585,0.017,0.815c0.28,0.251,0.527-0.003,0.76-0.161     c3.876-2.627,10.896-7.805,12.349-8.923c0.223-0.172,0.542-0.326,0.392-0.671c-0.137-0.316-0.486-0.268-0.768-0.273     c-2.215-0.035-4.409,0.02-7.031-0.244c-0.983-0.099-1.582-0.711-1.867-1.629c-0.272-0.877-0.01-1.606,0.767-2.093     c0.826-0.518,1.745-0.744,2.717-0.792c2.123-0.105,4.237-0.408,6.37-0.329c0.203,0.007,0.524-0.065,0.593-0.201     c0.162-0.319-0.128-0.519-0.366-0.688c-1.254-0.893-2.523-1.767-3.762-2.681c-0.587-0.433-1.201-0.849-1.617-1.478     c-0.643-0.969-0.672-2.126-0.064-2.877c0.761-0.941,2.1-1.276,3.173-0.742c0.455,0.227,0.865,0.55,1.28,0.849     c0.85,0.612,1.7,1.222,2.55,1.834c0.853-0.607,1.707-1.214,2.559-1.82c0.417-0.297,0.828-0.618,1.285-0.842     c1.076-0.529,2.414-0.186,3.169,0.758c0.604,0.755,0.568,1.911-0.079,2.877c-0.42,0.626-1.036,1.039-1.624,1.469     c-1.243,0.908-2.517,1.774-3.776,2.661c-0.238,0.168-0.529,0.366-0.369,0.686c0.068,0.136,0.389,0.211,0.592,0.204     c2.134-0.068,4.246,0.246,6.368,0.362c0.972,0.053,1.89,0.283,2.712,0.806c0.774,0.492,1.033,1.222,0.756,2.098     c-0.289,0.916-0.892,1.525-1.875,1.619c-2.628,0.251-4.856,0.185-7.033,0.207c-0.283,0.003-0.631-0.047-0.77,0.269     c-0.152,0.344,0.165,0.5,0.388,0.674c3.696,2.874,7.247,5.547,7.759,5.885c1.529,1.012,3.03,2.065,4.543,3.101     c0.233,0.16,0.478,0.415,0.76,0.165c0.362-0.32,0.047-0.477-1.154-4.596c-0.287-0.985-0.548-1.979-0.766-2.981     c-0.209-0.965,0.188-1.724,0.973-2.279c0.75-0.53,1.524-0.505,2.228,0.082c0.748,0.625,1.246,1.43,1.593,2.339     c0.756,1.987,1.697,3.903,2.281,5.957c0.056,0.195,0.224,0.478,0.375,0.502c0.353,0.055,0.453-0.282,0.541-0.56     c0.462-1.469,0.901-2.946,1.387-4.406c0.23-0.691,0.437-1.404,0.906-1.994c0.724-0.911,1.814-1.296,2.717-0.951     c1.13,0.433,1.862,1.603,1.686,2.788c-0.075,0.503-0.256,0.993-0.412,1.48c-0.319,0.997-0.637,1.995-0.956,2.992     c0.841,0.623,1.681,1.248,2.522,1.871c0.411,0.305,0.844,0.597,1.198,0.961c0.835,0.86,0.923,2.238,0.258,3.249     c-0.531,0.808-1.642,1.132-2.761,0.814c-0.725-0.206-1.309-0.664-1.899-1.091c-1.248-0.902-2.465-1.845-3.698-2.768     c-0.233-0.175-0.512-0.39-0.766-0.139c-0.109,0.107-0.08,0.435-0.011,0.626c0.724,2.009,1.078,4.114,1.624,6.169     c0.25,0.941,0.314,1.885,0.071,2.829c-0.228,0.888-0.842,1.36-1.761,1.367c-0.961,0.008-1.726-0.377-2.119-1.283     c-1.05-2.421-1.676-4.561-2.37-6.625c-0.09-0.268-0.15-0.614-0.493-0.649c-0.374-0.038-0.424,0.312-0.52,0.577     C472.152,410.365,470.925,413.965,470.761,414.557z"/>
		</g>
	</g>
	<g>
		<circle style="fill:#00D5FE;" cx="62.063" cy="340.605" r="15.012"/>
		<circle style="fill:#00D5FE;" cx="496.988" cy="270.097" r="15.012"/>
		<path style="fill:#00D5FE;" d="M431.511,156.755c0,6.793,5.507,12.299,12.299,12.299c6.793,0,12.299-5.507,12.299-12.299    c0-6.792-5.507-12.299-12.299-12.299C437.018,144.456,431.511,149.962,431.511,156.755z"/>
		<path style="fill:#00D5FE;" d="M17.998,84.854c0,6.793,5.507,12.299,12.299,12.299c6.792,0,12.299-5.507,12.299-12.299    c0-6.793-5.507-12.299-12.299-12.299C23.504,72.555,17.998,78.061,17.998,84.854z"/>
		<path style="fill:#00D5FE;" d="M204.245,329.599c0,6.793,5.506,12.299,12.299,12.299c6.793,0,12.299-5.507,12.299-12.299    c0-6.792-5.507-12.299-12.299-12.299C209.752,317.3,204.245,322.807,204.245,329.599z"/>
		<circle style="fill:#00D5FE;" cx="321.988" cy="454.457" r="15.012"/>
		<circle style="fill:#00D5FE;" cx="204.245" cy="57.543" r="15.012"/>
	</g>
</g>















</svg>
