<?xml version="1.0" encoding="UTF-8"?>
<!-- Generator: Adobe Illustrator 25.2.3, SVG Export Plug-In . SVG Version: 6.00 Build 0)  -->
<svg xmlns="http://www.w3.org/2000/svg" xmlns:xlink="http://www.w3.org/1999/xlink" version="1.1" id="Capa_1" x="0px" y="0px" viewBox="0 0 512 512" style="enable-background:new 0 0 512 512;" xml:space="preserve" width="512" height="512">
<g>
	<g>
		<g>
			<g>
				<path style="fill:#FD8A02;" d="M463.922,233.589c0.046,0.456,0.064,0.896,0.06,1.339c-0.004,0.21-0.031,0.426-0.053,0.663      c-0.164,1.501-0.741,2.921-1.639,4.126c-0.77,1.04-1.786,1.896-2.99,2.511c-28.206,14.286-23.91,45.058,1.483,56.891      c3.904,1.801,4.677,6.002,3.179,9.099c-0.196,0.412-0.425,0.784-0.679,1.138c-1.177,1.564-3.053,2.663-5.485,2.616      c-10.284-0.17-19.297,3.551-25.401,9.577c-0.68,0.672-1.312,1.358-1.911,2.085c-0.3,0.363-0.599,0.726-0.873,1.107      c-0.3,0.363-0.568,0.766-0.818,1.143c-5.86,8.632-6.683,20.305,0.656,32.015c0.982,1.527,2.085,3.076,3.35,4.615      c0.309,0.381,0.623,0.784,0.982,1.177c0.354,0.371,0.686,0.747,1.04,1.119c1.699,1.849,2.301,4.034,2.034,6.068      c-0.266,2.499-1.76,4.803-3.98,6.041c-1.63,0.933-3.663,1.248-5.858,0.642c-1.653-0.46-3.262-0.812-4.852-1.075      c-0.017,0.027-0.017,0.027-0.022,0.004c-2.388-0.405-4.73-0.587-6.961-0.558c-9.688,0.13-17.912,3.949-23.16,10.408      c-0.577,0.722-1.105,1.457-1.607,2.21c-0.747,1.152-1.408,2.379-1.99,3.661c-1.166,2.54-1.93,5.35-2.299,8.382      c-0.124,1.003-0.199,2.02-0.221,3.073c-0.108,4.448,0.653,9.28,2.45,14.393c1.059,2.956,0.484,5.773-1.023,7.893      c-1.96,2.77-5.515,4.323-9.054,3.403c-0.762-0.196-1.501-0.513-2.24-0.947c-1.559-0.921-3.119-1.726-4.696-2.387      c-1.049-0.465-2.106-0.858-3.154-1.207c-2.079-0.724-4.18-1.21-6.24-1.495c-2.061-0.284-4.108-0.386-6.092-0.29      c-0.995,0.037-1.953,0.136-2.903,0.28c-4.639,0.676-8.914,2.467-12.55,5.247c-0.649,0.48-1.284,1.026-1.892,1.592      c-0.927,0.838-1.768,1.752-2.574,2.73c-0.519,0.663-1.033,1.349-1.521,2.053c-0.25,0.376-0.482,0.726-0.711,1.098      c-0.455,0.744-0.88,1.528-1.279,2.331c-0.616,1.219-1.153,2.491-1.605,3.84c-0.45,1.348-0.843,2.755-1.156,4.216      c0,0,0,0-0.018,0.027c-0.201,0.972-0.374,1.962-0.494,2.988c-0.067,0.363-0.089,0.717-0.133,1.075      c-0.054,0.314-0.081,0.645-0.108,0.977c-0.106,1.442-0.154,2.943-0.143,4.502c0.013,0.184,0.005,0.372-0.031,0.542      c0.001,0.116,0,0.233-0.022,0.354c0.01,0.161-0.026,0.332-0.044,0.475c-0.307,2.182-1.429,4.131-3.117,5.472      c-0.685,0.533-1.455,0.991-2.3,1.301c-1.908,0.71-3.91,0.716-5.761,0.086c-0.698-0.233-1.398-0.581-2.02-1.015      c-0.618-0.411-1.215-0.944-1.73-1.539c-2.86-3.339-5.913-6.01-9.099-8.072c-1.26-0.818-2.545-1.539-3.859-2.16      c-1.931-0.916-3.889-1.618-5.874-2.104c-1.963-0.491-3.925-0.749-5.868-0.801c-1.308-0.017-2.602,0.034-3.874,0.196      c-10.865,1.345-20.582,9.563-25.156,23.667c-0.258,0.797-0.625,1.524-1.054,2.169c-0.408,0.641-0.922,1.21-1.459,1.668      c-0.556,0.484-1.173,0.888-1.814,1.18c-1.509,0.723-3.228,0.975-4.899,0.775c-0.954-0.111-1.895-0.388-2.755-0.844      c-1.761-0.881-3.254-2.398-4.103-4.534c-10.5-26.403-37.327-29.376-54.05-7.566c-2.993,3.886-7.938,4.204-11.401,2.034      c-0.458-0.304-0.892-0.613-1.296-0.998c-0.201-0.192-0.404-0.385-0.583-0.582c-0.362-0.417-0.69-0.887-0.977-1.388      c-0.642-1.106-1.023-2.426-1.087-3.905c-0.047-1.155-0.133-2.279-0.285-3.39c-1.039-8.596-4.92-17.08-11.992-22.334      c-5.564-4.133-12.604-6.041-19.485-5.282c-5.548,0.556-11.41,2.689-17.26,6.613c-1.849,1.233-3.837,1.656-5.697,1.447      c-0.282-0.013-0.573-0.071-0.819-0.138c-1.07-0.227-2.092-0.674-3.007-1.283c-0.237-0.138-0.461-0.326-0.658-0.496      c-0.556-0.447-1.063-0.998-1.507-1.584c-0.22-0.283-0.422-0.591-0.579-0.909c-0.721-1.276-1.117-2.781-1.043-4.38      c0.049-0.685,0.137-1.402,0.365-2.123c0.482-1.658,0.848-3.315,1.134-4.91c1.22-7.14,0.521-13.639-1.76-19.074      c-0.219-0.515-0.439-1.03-0.7-1.513c-0.162-0.34-0.323-0.681-0.507-1.016c-1.997-3.675-4.785-6.773-8.241-9.13      c-0.358-0.277-0.758-0.523-1.178-0.765c-1.17-0.72-2.438-1.35-3.765-1.922c-0.892-0.38-1.792-0.688-2.732-0.965      c-1.411-0.415-2.876-0.75-4.391-0.981c-4.923-0.735-10.378-0.407-16.208,1.183c-1.146,0.324-2.275,0.387-3.324,0.272      c-0.574-0.071-1.111-0.196-1.657-0.366c-0.251-0.089-0.507-0.201-0.762-0.312c-0.51-0.224-0.986-0.501-1.421-0.809      c-1.093-0.805-1.999-1.835-2.637-3.034c-0.116-0.233-0.238-0.488-0.331-0.726c-0.916-2.238-0.909-4.872,0.446-7.288      c-0.027-0.018-0.027-0.018-0.004-0.022c0.179-0.269,0.335-0.533,0.519-0.78c1.212-1.735,2.285-3.464,3.175-5.181      c-0.027-0.018-0.027-0.018-0.004-0.022c1.239-2.299,2.154-4.579,2.82-6.833c-0.027-0.018-0.005-0.022-0.005-0.022      c0.523-1.689,0.884-3.369,1.093-4.995c0.152-1.102,0.231-2.213,0.27-3.292c0.022-1.053-0.006-2.119-0.096-3.149      c-0.706-8.384-5.174-15.663-12.349-20.418c-0.328-0.237-0.7-0.465-1.072-0.693c-0.716-0.439-1.452-0.85-2.226-1.23      c-0.78-0.403-1.574-0.756-2.384-1.082c-3.683-1.519-7.836-2.479-12.364-2.757c-8-0.512-10.988-10.744-4.497-15.426      c4.471-3.251,7.948-6.932,10.417-10.875c0.43-0.645,0.81-1.304,1.164-1.981c1.422-2.662,2.41-5.399,2.971-8.168      c2.064-10.594-2.276-21.416-12.805-28.829c-2.361-1.669-5.059-3.153-8.039-4.418c-5.35-2.28-6.475-8.576-3.694-12.699      c0.143-0.215,0.287-0.43,0.456-0.627c0.989-1.224,2.381-2.179,4.137-2.718c26.675-7.992,32.227-34.965,11.741-53.445      c-0.542-0.497-1.022-1.029-1.39-1.584c-0.26-0.367-0.48-0.765-0.651-1.15c-1.266-2.704-0.906-5.782,0.593-8.179      c0.162-0.242,0.301-0.48,0.466-0.699c1.552-2.013,3.983-3.363,6.988-3.244c6.051,0.205,11.574-0.718,16.338-2.63      c1.469-0.575,2.848-1.248,4.136-2.019c0.877-0.503,1.702-1.041,2.493-1.619c1.196-0.893,2.306-1.861,3.353-2.91      c0.675-0.695,1.315-1.452,1.927-2.228c0.296-0.386,0.587-0.794,0.878-1.201c0.29-0.408,0.558-0.811,0.8-1.233      c5.64-9.263,5.115-21.271-1.427-32.955c-1.776-3.161-1.376-6.968,1.004-9.729c2.385-2.739,6.084-3.692,9.467-2.391      c26.05,10.001,47.198-7.061,42.184-34.916c-0.23-1.258-0.168-2.459,0.077-3.557c0.184-0.829,0.496-1.591,0.939-2.285      c0.277-0.475,0.591-0.888,0.948-1.309c2.855-3.183,8.036-4.177,11.936-0.884c9.677,8.166,22.029,11.088,32.291,7.559      c9.278-3.332,17.136-14.415,19.034-26.886c1.082-7.136,9.684-9.54,14.351-4.864c0.493,0.484,0.932,1.047,1.318,1.692      c0.525,0.873,1.063,1.696,1.597,2.498c0.556,0.797,1.129,1.567,1.695,2.292c0.592,0.743,1.175,1.441,1.776,2.113      c0.601,0.671,1.22,1.315,1.851,1.911c0.633,0.595,1.287,1.186,1.928,1.709c0.645,0.546,1.308,1.065,1.985,1.534      c0.328,0.237,0.677,0.47,1.027,0.702c14.65,9.612,33.135,4.454,42.873-14.205c3.077-5.906,10.991-5.935,14.457-1.204      c0.328,0.47,0.637,0.967,0.861,1.504c0.18,0.431,0.339,0.9,0.465,1.389c0.034,0.124,0.089,0.23,0.12,0.357      c0.851,3.882,2.215,7.545,4.023,10.863c3.248,5.963,7.862,10.72,13.055,13.38c1.143,0.586,2.338,1.091,3.553,1.453      c1.577,0.428,3.216,0.705,4.874,0.838c3.359,0.257,6.812-0.064,10.247-0.941c0.331-0.09,0.662-0.18,0.989-0.292      c0.883-0.247,1.756-0.539,2.642-0.88c1.492-0.579,2.942-1.243,4.37-2.02c0.211-0.112,0.443-0.229,0.649-0.363      c0.134-0.077,0.277-0.155,0.418-0.234c0.648-0.374,1.286-0.757,1.927-1.193c0.515-0.337,1.03-0.673,1.535-1.054      c0.287-0.198,0.551-0.391,0.829-0.632c0.407-0.292,0.787-0.601,1.168-0.91c0.321-0.251,0.639-0.525,0.949-0.843      c0.362-0.282,0.698-0.583,1.029-0.906c0.312-0.296,0.654-0.574,0.975-0.825c3.012-2.166,6.766-1.918,9.527-0.12      c0.457,0.304,0.896,0.635,1.299,1.02c1.789,1.714,2.88,4.244,2.538,7.178c-1.938,16.673,2.627,26.984,10.528,31.989      c0.56,0.353,1.138,0.68,1.712,0.984c0.308,0.148,0.596,0.299,0.901,0.425c0.895,0.402,1.827,0.751,2.795,1.046      c2.558,0.791,5.335,1.164,8.247,1.161c17.845,0.002,25.663-12.331,33.357-7.541c0.61,0.366,1.224,0.872,1.833,1.472      c0.116,0.116,0.233,0.233,0.35,0.349c1.915,2.108,3.888,6.254-1.149,12.251c-0.323,0.368-0.613,0.775-0.904,1.184      c-0.313,0.412-0.6,0.843-0.859,1.291c-0.671,1.067-1.279,2.214-1.797,3.459c-0.349,0.816-0.694,1.653-0.983,2.527      c-0.554,1.649-0.978,3.365-1.294,5.152c-0.112,0.605-0.2,1.205-0.267,1.801c-0.609,4.735-0.287,9.701,1.186,14.134      c0.238,0.721,0.517,1.411,0.817,2.095c0.3,0.685,0.619,1.344,1.005,1.988c0.184,0.336,0.387,0.644,0.589,0.953      c1.161,1.607,2.524,3.057,4.022,4.363c1.017,0.89,2.111,1.696,3.257,2.421c6.36,4.056,14.635,5.935,23.363,5.09      c5.621-0.547,9.557,4.09,9.4,8.873c-0.031,0.659-0.133,1.308-0.302,1.971c-0.22,0.65-0.488,1.286-0.828,1.914      c-0.367,0.609-0.827,1.214-1.391,1.77c-3.427,3.461-6.017,7.149-7.802,10.909c-0.612,1.241-1.125,2.509-1.55,3.759      c-4.378,12.877,0.256,25.969,12.361,33.344c1.331,0.827,2.764,1.587,4.27,2.24c0.767,0.335,1.551,0.644,2.357,0.947      c1.609,0.585,3.297,1.108,5.081,1.518c0.417,0.103,0.81,0.21,1.19,0.367C461.49,227.741,463.535,230.382,463.922,233.589z"/>
				<path style="opacity:0.5;fill:#ED5110;" d="M463.922,233.589c0.068,0.452,0.064,0.896,0.06,1.339      c-0.004,0.21-0.031,0.426-0.053,0.663c-0.159,1.523-0.736,2.943-1.639,4.126c-0.77,1.04-1.786,1.896-2.99,2.511      c-28.206,14.286-23.91,45.058,1.483,56.891c3.904,1.801,4.677,6.002,3.179,9.099c-0.196,0.412-0.425,0.784-0.679,1.138      c-1.177,1.564-3.053,2.663-5.485,2.616c-10.284-0.17-19.297,3.551-25.401,9.577c-0.68,0.672-1.312,1.358-1.911,2.085      c-0.3,0.363-0.599,0.726-0.873,1.107c-0.273,0.381-0.545,0.762-0.818,1.143c-5.86,8.632-6.683,20.305,0.656,32.015      c0.982,1.527,2.085,3.076,3.35,4.615c0.309,0.381,0.623,0.784,0.982,1.177c0.354,0.371,0.686,0.747,1.04,1.119      c1.699,1.849,2.301,4.034,2.034,6.068c-0.266,2.499-1.76,4.803-3.98,6.041c-1.625,0.956-3.681,1.276-5.876,0.668      c-1.631-0.464-3.24-0.817-4.835-1.102c-0.017,0.027-0.017,0.027-0.022,0.004c-2.384-0.383-4.726-0.565-6.961-0.558      c-9.688,0.13-17.912,3.949-23.16,10.408c-0.577,0.722-1.105,1.457-1.607,2.21c-0.747,1.152-1.408,2.379-1.99,3.661      c-1.166,2.54-1.93,5.35-2.299,8.382c-0.124,1.003-0.199,2.02-0.221,3.073c-0.108,4.448,0.653,9.28,2.45,14.393      c1.059,2.956,0.484,5.773-1.023,7.893c-1.937,2.765-5.51,4.345-9.054,3.403c-0.762-0.196-1.497-0.491-2.236-0.925      c-6.81-3.999-15.122-6.333-23.09-5.122c-6.794,1.033-12.724,4.36-16.97,9.751c-4.015,5.097-6.52,11.382-7.078,17.849      c-0.17,1.971,0.168,4.044-0.188,5.97c0.01,0.161-0.026,0.332-0.044,0.475c-0.307,2.182-1.429,4.131-3.117,5.472      c-0.685,0.533-1.455,0.991-2.3,1.301c-1.908,0.71-3.91,0.716-5.761,0.086c-3.03-1.031-5.198-4.158-7.444-6.324      c-3.738-3.605-8.241-6.458-13.193-8.024c-12.53-3.962-24.991,1.58-32.011,12.276c-2.079,3.167-3.666,6.643-4.833,10.243      c-0.258,0.797-0.625,1.524-1.054,2.169c-0.408,0.641-0.922,1.21-1.459,1.668c-0.556,0.484-1.173,0.888-1.814,1.18      c-1.509,0.723-3.228,0.975-4.899,0.775c-0.954-0.111-1.895-0.388-2.755-0.844c-1.761-0.881-3.254-2.398-4.103-4.534      c-10.5-26.403-37.327-29.376-54.05-7.566c-2.993,3.886-7.938,4.204-11.401,2.034c-0.458-0.304-0.892-0.613-1.296-0.998      c-0.201-0.192-0.404-0.385-0.583-0.582c-0.362-0.417-0.69-0.887-0.977-1.388c-0.642-1.106-1.023-2.426-1.087-3.905      c-0.047-1.155-0.133-2.279-0.285-3.39c-0.421-3.48-1.279-6.708-2.472-9.637c-2.094-5.497-5.92-10.391-10.841-13.629      c-5.331-3.509-11.827-5.05-18.165-4.35c-5.544,0.578-11.405,2.711-17.255,6.635c-1.85,1.234-3.837,1.656-5.701,1.425      c-0.282-0.013-0.573-0.071-0.819-0.138c-1.07-0.227-2.092-0.674-3.007-1.283c-0.237-0.138-0.461-0.326-0.658-0.496      c-0.583-0.465-1.085-0.993-1.507-1.584c-0.22-0.283-0.422-0.591-0.579-0.909c-0.721-1.276-1.117-2.781-1.043-4.38      c0.026-0.681,0.137-1.402,0.343-2.119c0.481-1.657,0.87-3.32,1.155-4.914c1.22-7.14,0.521-13.639-1.76-19.074      c-0.219-0.515-0.439-1.03-0.677-1.518c19.855,0.623,38.296,0.459,55.441-0.47c11.803,6.574,24.403,11.659,37.561,15.119      c23.217,6.097,48.143,7.146,73.265,2.098c88.042-17.69,145.087-103.393,127.397-191.434      c-6.78-33.743-23.54-62.896-46.586-85.077c-0.171-0.152-0.318-0.309-0.493-0.483c-10.383-30.923-23.019-56.827-31-71.856      c0.126-0.072,0.273-0.148,0.421-0.225c0.644-0.385,1.288-0.771,1.924-1.202c0.515-0.337,1.03-0.673,1.535-1.054      c0.287-0.198,0.569-0.417,0.829-0.632c0.407-0.292,0.787-0.601,1.168-0.91c0.317-0.274,0.635-0.547,0.949-0.843      c0.357-0.305,0.694-0.605,1.025-0.928c0.312-0.296,0.631-0.569,0.979-0.803c3.012-2.166,6.766-1.918,9.527-0.12      c0.457,0.304,0.896,0.635,1.299,1.02c1.789,1.714,2.88,4.244,2.538,7.178c-1.938,16.673,2.627,26.984,10.528,31.989      c0.56,0.353,1.138,0.68,1.712,0.984c0.308,0.148,0.596,0.299,0.901,0.425c0.895,0.402,1.827,0.751,2.795,1.046      c2.558,0.791,5.335,1.164,8.247,1.161c17.845,0.002,25.663-12.331,33.357-7.541c0.61,0.366,1.241,0.845,1.856,1.467      c0.116,0.116,0.232,0.233,0.327,0.354c1.915,2.108,3.888,6.254-1.149,12.251c-0.323,0.368-0.613,0.775-0.904,1.184      c-0.313,0.412-0.6,0.843-0.859,1.291c-0.671,1.067-1.279,2.214-1.797,3.459c-0.349,0.816-0.694,1.653-0.983,2.527      c-0.554,1.649-0.978,3.365-1.294,5.152c-0.112,0.605-0.205,1.183-0.267,1.801c-0.609,4.735-0.287,9.701,1.186,14.134      c0.238,0.721,0.517,1.411,0.817,2.095c0.3,0.685,0.619,1.344,1.005,1.988c0.184,0.336,0.387,0.644,0.589,0.953      c1.161,1.607,2.524,3.057,4.022,4.363c1.017,0.89,2.111,1.696,3.257,2.421c6.36,4.056,14.635,5.935,23.363,5.09      c5.621-0.547,9.557,4.09,9.4,8.873c-0.009,0.654-0.111,1.304-0.302,1.971c-0.197,0.645-0.466,1.282-0.828,1.914      c-0.343,0.605-0.804,1.21-1.364,1.788c-3.428,3.461-6.023,7.127-7.83,10.891c-0.612,1.241-1.125,2.509-1.55,3.759      c-4.378,12.877,0.256,25.969,12.361,33.344c1.331,0.827,2.76,1.565,4.27,2.24c0.767,0.335,1.551,0.644,2.357,0.947      c1.609,0.585,3.293,1.085,5.077,1.496c0.417,0.103,0.815,0.232,1.195,0.389C461.49,227.741,463.535,230.382,463.922,233.589z"/>
			</g>
			<path style="fill:#000E3F;" d="M251.909,480.446c-0.459,0-0.921-0.028-1.385-0.084c-1.274-0.175-2.436-0.53-3.489-1.063     c-2.362-1.185-4.148-3.154-5.158-5.689c-4.631-11.644-12.915-19.103-22.732-20.463c-9.896-1.375-19.92,3.519-27.512,13.425     c-3.423,4.43-9.581,5.534-14.326,2.563c-0.533-0.353-1.104-0.754-1.649-1.276c-0.236-0.221-0.477-0.454-0.693-0.69     c-0.482-0.553-0.896-1.139-1.261-1.781c-0.83-1.426-1.297-3.083-1.375-4.905c-0.043-1.086-0.124-2.141-0.267-3.184     c-0.398-3.288-1.18-6.333-2.324-9.089c-0.198-0.579-0.406-0.997-0.604-1.403c-0.228-0.53-0.424-0.934-0.658-1.33     c-2.17-4.343-5.614-8.086-9.795-10.56c-4.697-2.78-10.252-3.924-15.671-3.339c-5.432,0.569-10.9,2.677-16.262,6.275     c-2.218,1.477-4.702,2.091-7.203,1.784c-0.246-0.005-0.688-0.079-1.139-0.203c-1.193-0.249-2.464-0.789-3.641-1.573     c-0.244-0.137-0.581-0.408-0.873-0.66c-0.678-0.538-1.325-1.218-1.862-1.972c-0.259-0.33-0.543-0.766-0.764-1.213     c-0.903-1.594-1.36-3.519-1.266-5.468c0.03-0.86,0.175-1.748,0.424-2.624c0.459-1.573,0.83-3.149,1.104-4.691     c1.109-6.485,0.548-12.659-1.621-17.832c-0.231-0.54-0.419-0.982-0.624-1.401c-0.147-0.309-0.304-0.596-0.459-0.88     c-3.789-6.97-10.892-11.589-18.7-12.681c-4.808-0.716-9.956-0.337-15.32,1.129c-1.335,0.375-2.733,0.497-4.143,0.335     c-0.705-0.086-1.375-0.234-2.075-0.452c-0.391-0.14-0.69-0.269-0.99-0.398c-0.629-0.277-1.241-0.624-1.819-1.035     c-1.388-1.023-2.522-2.327-3.304-3.791c-0.173-0.353-0.319-0.665-0.434-0.949c-1.208-2.862-1.063-6.092,0.403-8.881     c0.063-0.173,0.147-0.338,0.251-0.485c0.145-0.257,0.315-0.518,0.487-0.779c1.073-1.51,2.027-3.037,2.946-4.709     c0.061-0.162,0.137-0.315,0.228-0.454c1.035-2.012,1.875-4.045,2.502-6.044c0.002-0.013,0.005-0.025,0.007-0.038     c0.023-0.122,0.059-0.241,0.102-0.355c0.434-1.489,0.764-3.012,0.977-4.526c0.142-1.02,0.213-2.058,0.251-3.065     c0.018-0.934-0.007-1.921-0.089-2.875c-0.649-7.678-4.686-14.341-11.369-18.766c-0.363-0.264-0.685-0.457-1.005-0.655     c-0.657-0.398-1.334-0.779-2.047-1.129c-0.759-0.391-1.49-0.716-2.236-1.017c-3.572-1.472-7.495-2.344-11.674-2.598     c-4.608-0.297-8.403-3.347-9.677-7.772c-1.269-4.4,0.312-8.975,4.024-11.651c4.156-3.022,7.467-6.473,9.834-10.256     c0.386-0.604,0.754-1.213,1.081-1.835c1.312-2.456,2.238-5.004,2.763-7.584c1.979-10.01-2.471-19.951-11.91-26.581     c-2.238-1.583-4.803-2.992-7.632-4.192c-3.004-1.281-5.158-3.674-6.064-6.744c-0.918-3.111-0.396-6.559,1.401-9.223     c0.211-0.312,0.401-0.586,0.622-0.84c1.243-1.543,3.042-2.733,5.153-3.382c11.788-3.532,19.801-11.154,21.998-20.918     c2.233-9.918-1.809-20.408-11.085-28.776c-0.718-0.657-1.304-1.329-1.753-2.004c-0.304-0.429-0.596-0.957-0.824-1.464     c-1.515-3.24-1.243-7.087,0.736-10.256l0.18-0.279c0.129-0.201,0.259-0.396,0.398-0.581c0.249-0.327,0.513-0.634,0.794-0.926     c2.093-2.172,4.958-3.281,8.02-3.217c5.691,0.216,10.903-0.621,15.45-2.451c4.301-1.696,8.135-4.456,10.999-8.094     c0.284-0.375,0.548-0.718,0.774-1.058c0.282-0.401,0.513-0.743,0.721-1.104c5.24-8.609,4.704-19.809-1.436-30.78     c-2.23-3.968-1.738-8.776,1.256-12.247c3.012-3.461,7.691-4.641,11.93-3.014c11.738,4.511,22.899,3.423,30.62-2.964     c7.693-6.366,10.829-17.117,8.599-29.499c-0.266-1.451-0.233-2.943,0.094-4.425c0.269-1.094,0.672-2.068,1.208-2.951     c0.294-0.507,0.657-1.01,1.155-1.593c3.489-3.895,10.048-5.361,15.044-1.142c9.104,7.68,20.661,10.423,30.148,7.158     c8.551-3.07,15.785-13.41,17.566-25.132c0.624-4.103,3.331-7.318,7.244-8.599c3.887-1.281,8.041-0.315,10.854,2.507     c1.993,2.073,3.231,4.818,5.059,7.048c2.165,2.643,4.76,5.293,7.701,7.077c6.288,4.123,13.455,5.402,20.248,3.631     c7.957-2.07,14.891-8.097,19.522-16.972c1.756-3.372,4.922-5.47,8.685-5.76c3.763-0.279,7.373,1.352,9.512,4.273     c0.434,0.624,0.786,1.241,1.084,1.883c0.365,0.865,0.583,1.553,0.723,2.238c0.749,3.514,2.035,6.967,3.819,10.24     c3.052,5.603,7.356,10.032,12.123,12.471c1.028,0.528,2.096,0.959,3.174,1.282c1.403,0.37,2.88,0.632,4.451,0.776     c3.068,0.233,6.282-0.061,9.497-0.881c0.254-0.071,0.54-0.147,0.822-0.243c0.936-0.264,1.743-0.538,2.563-0.852     c1.439-0.556,2.783-1.178,4.105-1.898c0.309-0.14,0.411-0.188,0.5-0.246c2.725-1.528,5.228-3.409,7.505-5.544     c0.447-0.419,0.858-0.766,1.307-1.066c3.486-2.507,8.206-2.575,11.956-0.132c0.662,0.442,1.172,0.843,1.624,1.279     c2.431,2.327,3.598,5.618,3.202,9.025c-1.688,14.523,1.603,24.853,9.517,29.867c0.505,0.338,1.005,0.617,1.52,0.875l0.264,0.129     c0.16,0.079,0.317,0.157,0.479,0.223c0.87,0.391,1.721,0.708,2.606,0.977c2.288,0.71,4.833,1.068,7.574,1.068     c0.013,0,0.025,0,0.03,0c8.447,0,14.617-2.979,19.573-5.371c5.415-2.614,10.081-4.867,14.95-1.837     c0.787,0.472,1.555,1.078,2.258,1.786c0.206,0.211,0.368,0.383,0.505,0.563c1.705,1.862,5.242,7.343-1.203,15.018     c-0.292,0.33-0.52,0.652-0.749,0.972c-0.345,0.462-0.581,0.815-0.794,1.185c-0.683,1.086-1.228,2.141-1.67,3.202     c-0.371,0.817-0.665,1.576-0.929,2.375c-0.51,1.522-0.906,3.103-1.215,4.844c-0.104,0.558-0.188,1.076-0.243,1.631     c-0.609,4.72-0.231,9.269,1.083,13.219c0.218,0.662,0.472,1.287,0.746,1.908c0.261,0.599,0.538,1.177,0.875,1.74     c0.195,0.35,0.345,0.617,0.518,0.881c0.969,1.337,2.212,2.674,3.633,3.892c0.916,0.802,1.918,1.545,3.002,2.23     c6.044,3.857,13.846,5.526,21.971,4.76c3.136-0.322,6.105,0.688,8.35,2.791c2.309,2.164,3.573,5.206,3.469,8.353     c-0.008,0.754-0.124,1.55-0.345,2.334c-0.015,0.071-0.031,0.137-0.051,0.206c-0.251,0.822-0.596,1.621-1.025,2.37     c-0.441,0.771-1.012,1.522-1.695,2.228c-3.124,3.154-5.585,6.544-7.336,10.096c-0.028,0.078-0.061,0.157-0.096,0.233     c-0.546,1.104-1.03,2.278-1.441,3.491c-4.07,11.976,0.411,24.044,11.418,30.75c1.213,0.751,2.522,1.439,4.021,2.108     c0.716,0.315,1.464,0.609,2.236,0.901c1.535,0.556,3.156,1.033,4.79,1.408c0.566,0.139,1.068,0.304,1.545,0.502     c3.644,1.39,6.242,4.74,6.734,8.723c0.079,0.561,0.084,1.109,0.076,1.657c-0.005,0.251-0.025,0.477-0.051,0.72     c-0.213,2.055-0.934,3.864-2.093,5.384c-0.964,1.299-2.228,2.362-3.737,3.139c-11.75,5.95-18.385,15.44-18.213,26.035     c0.18,11.03,7.698,21.331,19.621,26.888c2.243,1.033,3.854,2.758,4.651,4.981c0.815,2.271,0.662,4.851-0.419,7.079     c-0.244,0.518-0.538,1-0.868,1.462c-1.746,2.324-4.392,3.667-7.325,3.539c-9.187-0.104-17.893,3.108-23.808,8.941     c-0.624,0.617-1.205,1.251-1.758,1.918c-0.267,0.325-0.538,0.65-0.784,0.992l-0.807,1.129c-5.874,8.652-5.62,19.441,0.726,29.565     c0.883,1.413,1.954,2.888,3.184,4.387l0.206,0.254c0.22,0.274,0.449,0.558,0.703,0.837l1.028,1.152     c2.015,2.169,2.948,4.943,2.606,7.784c-0.342,3.228-2.251,6.117-5.097,7.706c-2.187,1.289-4.877,1.609-7.541,0.87     c-1.363-0.388-2.781-0.715-4.339-1.005c-0.101-0.003-0.203-0.013-0.305-0.031c-0.073-0.012-0.144-0.03-0.216-0.051     c-2.136-0.33-4.288-0.365-6.363-0.492c-8.896,0.119-16.523,3.527-21.45,9.593c-0.53,0.657-1.018,1.34-1.482,2.038     c-0.68,1.025-1.289,2.141-1.809,3.329c-1.073,2.339-1.784,4.94-2.129,7.762c-0.117,0.934-0.183,1.875-0.205,2.852     c-0.107,4.339,0.678,8.916,2.327,13.613c1.218,3.405,0.744,7.018-1.307,9.906c-2.573,3.674-7.165,5.389-11.42,4.258     c-0.974-0.249-1.89-0.629-2.789-1.157c-5.711-3.355-12.303-5.378-18.964-5.1c-0.929,0.035-1.807,0.127-2.674,0.259     c-4.301,0.627-8.18,2.248-11.54,4.818c-0.616,0.456-1.187,0.951-1.736,1.459c-3.47,3.212-5.906,7.435-7.374,11.903     c-1.453,4.423-1.555,8.769-1.712,13.351c-0.008,0.228-0.036,0.418-0.053,0.548c-0.398,2.832-1.796,5.28-3.946,6.985     c-0.918,0.682-1.865,1.208-2.867,1.604c-2.38,0.888-4.953,0.934-7.277,0.145c-0.946-0.345-1.761-0.754-2.535-1.271     c-0.771-0.513-1.525-1.18-2.172-1.928c-2.657-3.1-5.557-5.676-8.632-7.665c-1.185-0.769-2.398-1.446-3.603-2.017     c-1.799-0.873-3.621-1.525-5.435-1.951c-1.779-0.447-3.593-0.693-5.425-0.743c-1.264-0.01-2.471,0.043-3.532,0.177     c-10.537,1.304-19.258,9.588-23.335,22.161c-0.31,0.952-0.751,1.865-1.314,2.71c-0.444,0.695-1.048,1.39-1.822,2.086     c-0.774,0.642-1.527,1.132-2.312,1.517C255.184,480.086,253.566,480.446,251.909,480.446z M215.831,448.499     c1.304,0,2.611,0.091,3.92,0.272c11.436,1.586,20.996,10.045,26.231,23.206c0.601,1.515,1.652,2.682,3.04,3.377     c0.624,0.315,1.317,0.525,2.068,0.629c1.233,0.145,2.55-0.056,3.644-0.578c0.449-0.223,0.931-0.535,1.365-0.893     c0.401-0.363,0.751-0.761,1.002-1.152c0.36-0.546,0.627-1.094,0.812-1.662c4.62-14.244,14.709-23.658,26.987-25.178     c1.254-0.16,2.626-0.246,4.169-0.211c2.187,0.059,4.324,0.35,6.381,0.868c2.096,0.49,4.227,1.253,6.3,2.258     c1.362,0.644,2.748,1.418,4.095,2.294c3.43,2.22,6.653,5.077,9.576,8.49c0.383,0.442,0.827,0.837,1.274,1.134     c0.482,0.319,0.99,0.576,1.556,0.781c1.334,0.456,2.814,0.426,4.227-0.102c0.606-0.241,1.21-0.576,1.761-0.985     c1.203-0.954,2.022-2.393,2.248-4.006c-0.01-0.185,0.025-0.401,0.061-0.583v-0.32c-0.015-1.89,0.041-3.443,0.168-4.859     c0.822-9.181,4.764-18.894,12.379-24.503c3.936-3.012,8.503-4.923,13.544-5.656c1.073-0.165,2.103-0.264,3.136-0.305     c7.552-0.296,14.92,1.882,21.392,5.706c0.533,0.315,1.078,0.54,1.662,0.69c2.499,0.66,5.174-0.36,6.696-2.53     c1.23-1.73,1.494-3.816,0.756-5.884c-1.835-5.214-2.7-10.322-2.58-15.191c0.023-1.124,0.104-2.213,0.236-3.291     c0.401-3.268,1.236-6.308,2.484-9.03c0.606-1.385,1.34-2.73,2.162-3.963c0.533-0.807,1.101-1.596,1.72-2.37     c5.778-7.11,14.6-11.096,24.853-11.233c0.036,0,0.069,0,0.102,0c2.337,0,4.704,0.188,7.064,0.558     c0.081,0.005,0.16,0.015,0.238,0.028c1.822,0.327,3.471,0.705,5.046,1.155c1.502,0.416,2.944,0.259,4.154-0.449     c1.616-0.903,2.712-2.568,2.903-4.372c0.188-1.56-0.338-3.078-1.474-4.303l-1.058-1.185c-0.294-0.325-0.579-0.675-0.855-1.018     l-0.185-0.231c-1.342-1.637-2.525-3.266-3.509-4.836c-7.315-11.674-7.538-24.224-0.609-34.426l0.845-1.185     c0.309-0.429,0.637-0.83,0.969-1.23c0.645-0.784,1.327-1.525,2.06-2.251c6.752-6.663,16.637-10.494,26.989-10.213     c1.86-0.038,3.075-0.923,3.684-1.735c0.147-0.206,0.309-0.465,0.446-0.756c0.566-1.17,0.655-2.54,0.244-3.684     c-0.386-1.081-1.2-1.934-2.35-2.461c-13.475-6.282-21.973-18.091-22.181-30.826c-0.201-12.352,7.315-23.303,20.626-30.042     c0.89-0.459,1.639-1.086,2.212-1.857c0.688-0.901,1.101-1.943,1.215-3.042c0.025-0.254,0.041-0.371,0.043-0.487     c0.003-0.299,0.013-0.629-0.036-0.964c-0.002-0.018-0.005-0.036-0.008-0.053c-0.292-2.403-1.779-4.339-3.984-5.181     c-0.337-0.14-0.632-0.234-0.941-0.312c-1.769-0.403-3.565-0.931-5.295-1.56c-0.868-0.327-1.687-0.652-2.489-1     c-1.7-0.761-3.182-1.54-4.549-2.39c-12.826-7.812-18.048-21.92-13.285-35.928c0.447-1.317,0.969-2.598,1.556-3.813     c0.028-0.076,0.058-0.15,0.094-0.221c1.966-4.065,4.742-7.919,8.251-11.461c0.408-0.421,0.756-0.875,1.015-1.329     c0.246-0.426,0.437-0.855,0.586-1.314c0.013-0.056,0.028-0.112,0.043-0.167c0.135-0.441,0.206-0.89,0.211-1.332     c0.061-1.893-0.716-3.758-2.073-5.032c-0.924-0.865-2.504-1.84-4.905-1.619c-9.089,0.888-17.898-1.045-24.764-5.425     c-1.269-0.804-2.456-1.687-3.525-2.621c-1.67-1.428-3.149-3.024-4.379-4.727c-0.292-0.439-0.497-0.797-0.711-1.182     c-0.396-0.66-0.759-1.401-1.096-2.172c-0.325-0.749-0.629-1.5-0.891-2.289c-1.52-4.575-1.961-9.799-1.276-15.107     c0.058-0.617,0.162-1.256,0.284-1.921c0.345-1.941,0.794-3.732,1.373-5.455c0.312-0.939,0.662-1.845,1.065-2.738     c0.508-1.223,1.17-2.497,1.939-3.72c0.261-0.457,0.599-0.962,0.964-1.446c0.342-0.477,0.66-0.916,1.013-1.314     c3.057-3.639,3.461-6.782,1.17-9.302l-0.239-0.266c-0.464-0.467-0.944-0.847-1.446-1.149c-2.707-1.685-5.541-0.459-10.725,2.048     c-5.361,2.588-12.037,5.808-21.491,5.808c-0.01-0.005-0.023,0-0.036,0c-3.182,0-6.165-0.424-8.868-1.261     c-1.053-0.32-2.083-0.705-3.05-1.139c-0.188-0.076-0.434-0.195-0.687-0.32l-0.257-0.125c-0.721-0.36-1.378-0.736-1.989-1.142     c-6.541-4.146-13.892-13.45-11.497-34.078c0.241-2.053-0.424-3.946-1.87-5.328c-0.31-0.299-0.649-0.546-0.997-0.779     c-2.187-1.428-4.95-1.411-7.01,0.076c-0.315,0.21-0.538,0.411-0.761,0.621c-2.495,2.353-5.278,4.485-8.289,6.138     c-0.178,0.124-0.543,0.31-0.881,0.449c-1.276,0.708-2.789,1.408-4.41,2.037c-0.959,0.368-1.898,0.683-2.847,0.946     c-0.254,0.091-0.632,0.198-1.01,0.297c-3.707,0.949-7.401,1.279-10.989,1.012c-1.852-0.173-3.568-0.474-5.275-0.929     c-1.403-0.416-2.725-0.949-3.994-1.601c-5.544-2.839-10.512-7.914-13.983-14.288c-1.989-3.649-3.425-7.503-4.265-11.456     c-0.084-0.414-0.223-0.837-0.441-1.355c-0.16-0.345-0.383-0.733-0.637-1.101c-1.215-1.649-3.403-2.598-5.58-2.431     c-2.207,0.17-4.07,1.408-5.105,3.398c-5.217,9.994-13.146,16.815-22.328,19.205c-8.013,2.083-16.436,0.604-23.713-4.171     c-0.353-0.213-0.774-0.495-1.175-0.807c-4.544-3.54-8.409-7.718-11.39-12.656c-0.284-0.477-0.619-0.916-0.995-1.304     c-1.604-1.606-4.034-2.154-6.325-1.403c-2.294,0.751-3.885,2.646-4.25,5.067c-2.015,13.255-10.433,25.028-20.471,28.633     c-10.986,3.783-24.18,0.728-34.462-7.949c-3.057-2.581-6.851-1.578-8.868,0.67c-0.234,0.276-0.475,0.586-0.685,0.946     c-0.322,0.535-0.553,1.096-0.703,1.702c-0.188,0.853-0.208,1.753-0.048,2.629c2.52,14.003-1.172,26.279-10.131,33.69     c-8.99,7.435-21.757,8.771-35.017,3.687c-2.484-0.954-5.235-0.259-7.008,1.779c-1.758,2.04-2.052,4.867-0.743,7.198     c6.944,12.405,7.45,25.226,1.386,35.185c-3.393,5.572-8.638,9.7-14.661,12.116c-5.11,2.05-10.89,2.979-17.231,2.761     c-2.375-0.099-3.831,0.974-4.694,1.87c-0.162,0.167-0.315,0.342-0.454,0.528c-0.069,0.092-0.132,0.195-0.2,0.299l-0.193,0.294     c-1.142,1.832-1.317,4.103-0.424,6.014c0.129,0.287,0.274,0.555,0.452,0.804c0.289,0.436,0.639,0.832,1.081,1.236     c10.484,9.457,15.016,21.494,12.423,33.013c-2.558,11.364-11.679,20.176-25.023,24.175c-1.269,0.391-2.301,1.063-3.052,1.992     c-0.152,0.175-0.231,0.305-0.315,0.431c-1.096,1.626-1.406,3.682-0.855,5.544c0.525,1.781,1.789,3.177,3.555,3.93     c3.116,1.322,5.96,2.885,8.449,4.646c10.903,7.66,16.026,19.271,13.696,31.061c-0.614,3.012-1.685,5.96-3.189,8.779     c-0.376,0.718-0.81,1.434-1.251,2.126c-2.659,4.25-6.356,8.117-10.979,11.476c-2.654,1.913-2.964,4.793-2.37,6.851     c0.596,2.078,2.411,4.374,5.709,4.585c4.659,0.287,9.058,1.266,13.064,2.918c0.86,0.348,1.713,0.728,2.555,1.164     c0.797,0.391,1.591,0.833,2.362,1.304c0.429,0.261,0.853,0.525,1.226,0.797c7.751,5.131,12.483,12.968,13.247,22.016     c0.091,1.061,0.127,2.197,0.104,3.377c-0.051,1.342-0.145,2.489-0.292,3.55c-0.243,1.728-0.617,3.456-1.109,5.146     c-0.015,0.073-0.033,0.145-0.053,0.216c-0.708,2.324-1.672,4.676-2.865,6.998c-0.033,0.089-0.074,0.178-0.122,0.264     c-1.056,1.946-2.149,3.709-3.347,5.389c-0.066,0.106-0.162,0.246-0.249,0.391c-0.033,0.084-0.074,0.162-0.119,0.243     c-0.941,1.655-1.061,3.601-0.327,5.339c0.091,0.228,0.188,0.429,0.279,0.614c0.444,0.827,1.116,1.598,1.964,2.223     c0.302,0.216,0.647,0.414,0.995,0.566c0.211,0.092,0.424,0.185,0.632,0.261c0.323,0.096,0.736,0.195,1.175,0.249     c0.802,0.089,1.649,0.02,2.456-0.206c5.975-1.631,11.732-2.042,17.127-1.243c1.492,0.208,3.019,0.543,4.524,0.997     c0.071,0.013,0.145,0.03,0.213,0.053c7.262,2.221,13.553,7.152,17.188,13.846c0.216,0.396,0.411,0.753,0.581,1.114     c0.228,0.464,0.449,0.974,0.667,1.487c2.55,6.079,3.207,13.097,1.954,20.43c-0.304,1.71-0.713,3.441-1.21,5.156     c-0.147,0.515-0.239,1.066-0.256,1.583c-0.056,1.139,0.208,2.243,0.756,3.215c0.15,0.292,0.271,0.474,0.401,0.642     c0.353,0.49,0.72,0.875,1.139,1.21c0.165,0.139,0.274,0.243,0.399,0.317c0.807,0.533,1.581,0.865,2.347,1.025     c0.282,0.074,0.401,0.091,0.462,0.094c1.614,0.193,3.06-0.18,4.377-1.055c5.963-3.999,12.103-6.353,18.251-6.995     c1.05-0.114,2.164-0.18,3.308-0.16c6.043,0.108,11.854,1.776,16.86,5.239c4.922,3.405,9.245,8.674,11.16,14.398     c1.246,2.979,2.129,6.417,2.57,10.071c0.157,1.147,0.249,2.339,0.302,3.565c0.046,1.096,0.312,2.068,0.786,2.885     c0.223,0.391,0.464,0.738,0.733,1.048c0.114,0.124,0.279,0.276,0.439,0.431c0.312,0.299,0.647,0.528,0.997,0.761     c2.403,1.502,6.099,1.477,8.431-1.543C195.741,453.954,205.659,448.499,215.831,448.499z"/>
		</g>
		<g>
			<g>
				<path style="fill:#FFCF00;" d="M404.928,226.34c17.69,88.042-39.354,173.745-127.397,191.434      c-25.122,5.048-50.048,3.999-73.265-2.098c-13.157-3.46-25.757-8.546-37.561-15.119c-0.57-0.282-1.174-0.626-1.752-0.952      c-39.391-22.485-69.215-61.242-78.852-109.204C68.407,202.337,125.43,116.639,213.471,98.949      c34.214-6.875,68.083-2.475,97.719,10.649c17.233,7.626,33.026,18.173,46.659,31.182l0.004,0.022      c0.171,0.152,0.318,0.309,0.488,0.461C381.388,163.445,398.148,192.597,404.928,226.34z"/>
				<path style="opacity:0.5;fill:#FD8A02;" d="M404.928,226.34c17.69,88.042-39.354,173.745-127.397,191.434      c-25.122,5.048-50.048,3.999-73.265-2.098c-13.157-3.46-25.757-8.546-37.561-15.119      c234.254-12.405,224.102-161.48,191.147-259.756c0.171,0.152,0.318,0.309,0.488,0.461      C381.388,163.445,398.148,192.597,404.928,226.34z"/>
				<g>
					<g>
						<path style="fill:#FC09B2;" d="M174.924,248.8c-9.428-2.119-12.691-8.93-9.824-14.833        c8.428-17.347,45.786-17.814,42.688,0.069C206.282,242.731,189.956,252.179,174.924,248.8z"/>
					</g>
					<g>
						<path style="fill:#FC09B2;" d="M306.936,222.276c7.878-5.597,8.257-13.139,3.332-17.476        c-14.474-12.745-49.113,1.254-39.348,16.553C275.667,228.789,294.376,231.198,306.936,222.276z"/>
					</g>
				</g>
				<path style="opacity:0.75;fill:#FFFFFF;" d="M116.718,269.74c0.127,6.749,2.943,28.135,2.921,27.904      c0.357,3.883-5.021,5.281-6.605,1.715c-19.066-43.108-8.524-89.708,11.125-113.373c2.353-2.834,6.877-0.132,5.503,3.282      C128.531,193.241,113.475,224.758,116.718,269.74z"/>
			</g>
			<g>
				<path style="fill:#000E3F;" d="M245.457,423.195c-76.865,0-145.819-54.174-161.527-132.363l0,0      c-17.903-89.095,40.019-176.145,129.116-194.045c43.149-8.685,87.111-0.023,123.764,24.366      c36.649,24.388,61.611,61.588,70.281,104.75c8.673,43.16,0.018,87.113-24.368,123.762      c-24.386,36.651-61.585,61.613-104.747,70.283C267.067,422.139,256.182,423.195,245.457,423.195z M88.258,289.963      c17.424,86.707,102.104,143.069,188.849,125.655c42.003-8.439,78.205-32.731,101.939-68.4      c23.731-35.67,32.155-78.443,23.716-120.448c-8.442-42.003-32.731-78.207-68.401-101.939      c-35.667-23.734-78.436-32.15-120.448-23.716C127.205,118.538,70.837,203.254,88.258,289.963z"/>
				<path style="fill:#000E3F;" d="M233.978,222.852c-3.75,0-7.437-1.073-10.887-3.197c-6.59-4.057-11.545-11.598-12.933-19.684      c-0.206-1.203,0.602-2.344,1.804-2.55c1.197-0.193,2.344,0.601,2.55,1.804c1.177,6.871,5.354,13.257,10.895,16.67      c2.913,1.791,7.589,3.557,13.323,1.809c10.982-3.367,14.668-15.863,12.56-25.913c-0.251-1.195,0.515-2.365,1.707-2.616      c1.21-0.228,2.365,0.515,2.616,1.708c2.509,11.966-2.101,26.911-15.589,31.044C238.01,222.545,235.985,222.852,233.978,222.852z      "/>
				<path style="fill:#000E3F;" d="M278.906,189.263c-2.52,0-5.024-0.726-7.396-2.159c-5.196-3.141-9.33-9.599-10.527-16.452      c-0.211-1.2,0.591-2.347,1.794-2.555c1.213-0.195,2.344,0.594,2.555,1.794c0.989,5.65,4.311,10.923,8.462,13.432      c2.588,1.563,5.247,1.923,7.914,1.073c7.247-2.319,9.452-11.733,7.848-19.41c-0.249-1.195,0.518-2.365,1.71-2.614      c1.19-0.249,2.362,0.518,2.613,1.71c1.997,9.568-1.116,21.412-10.824,24.521C281.679,189.045,280.291,189.263,278.906,189.263z"/>
				<path style="fill:#000E3F;" d="M182.44,208.645c-2.52,0-5.024-0.726-7.396-2.159c-5.194-3.141-9.327-9.599-10.525-16.452      c-0.211-1.2,0.591-2.347,1.794-2.555c1.213-0.206,2.345,0.591,2.555,1.794c0.99,5.65,4.311,10.923,8.462,13.435      c2.585,1.563,5.25,1.921,7.911,1.071c7.247-2.319,9.454-11.732,7.85-19.41c-0.249-1.195,0.518-2.365,1.71-2.613      c1.193-0.261,2.365,0.517,2.613,1.71c1.997,9.568-1.119,21.412-10.827,24.52C185.213,208.427,183.825,208.645,182.44,208.645z"/>
			</g>
		</g>
		<g>
			<g>
				<path style="fill:#FC09B2;" d="M242.743,71.751c-14.19,7.552-18.774,14.414-19.503,14.982c-0.86,0.069-11.41-3.684-22.759,3.743      c-1.989,1.295-1.751-0.527-9.249-3.039c-32.64-10.999-87.092,1.016-82.563,20.017c0.812,3.403,3.537,6.614,7.682,9.047      c0.576,0.328,0.884,0.701,1.028,1.242c6.464,24.86,27.596,47.737,60.23,42.805c13.704-2.054,22.939-10.292,27.389-24.408      c3.126-9.918,2.653-23.348,1.62-29.482c-0.452-2.654,7.352-7.268,14.139-4.339c2.761,1.192,6.17,38.681,36.614,42.209      c16.175,1.868,33.574-7.847,42.283-20.342c6.161-8.836,10.24-21.459,9.663-35.03c-0.386-9.186,0.062-7.093,2.342-10.719      l0.001-0.005C325.448,56.22,280.663,51.612,242.743,71.751z"/>
				<g>
					<path style="fill:#00D5FE;" d="M183.242,150.444c-16.5,5.958-30.087,2.067-39.978-5.655       c-15.971-12.482-22.3-34.96-15.678-41.93C138.382,91.508,162,87.212,178.999,92.041c7.237,2.074,13.283,5.785,16.623,11.306       C206.719,121.683,198.397,144.964,183.242,150.444z"/>
					<path style="fill:#00D5FE;" d="M294.766,116.902c-4.308,7.125-10.733,13.278-19.724,16.79       c-6.359,2.481-13.525,3.243-18.573,2.692c-21.497-2.371-34.622-34.946-19.438-51.093c1.562-1.661,3.292-3.192,5.135-4.586       c18.68-14.198,49.554-14.571,55.811-5.606C303.509,83.041,303.752,102.063,294.766,116.902z"/>
				</g>
				<g style="opacity:0.65;">
					<path style="fill:#6280FF;" d="M183.242,150.444c-16.5,5.958-30.087,2.067-39.978-5.655c4.471-9.47,15.527-8.818,24.201-11.376       c17.363-5.118,23.271-23.646,11.534-41.373c7.237,2.074,13.283,5.785,16.623,11.306       C206.719,121.683,198.397,144.964,183.242,150.444z"/>
					<path style="fill:#6280FF;" d="M294.766,116.902c-4.308,7.125-10.733,13.278-19.724,16.79       c-6.359,2.481-13.525,3.243-18.573,2.692c-21.497-2.371-34.622-34.946-19.438-51.093c1.562-1.661,3.292-3.192,5.135-4.586       c-0.763,2.15-1.84,6.224-0.627,12.931c1.98,10.965,10.196,19.182,21.155,21.124       C273.703,116.737,285.542,108.479,294.766,116.902z"/>
				</g>
				<g style="opacity:0.75;">
					<path style="fill:#FFFFFF;" d="M252.211,83.068c19.144-13.584,45.708-8.38,42.359,14.476c-0.182,1.243-1.337,2.103-2.579,1.921       c-4.031-0.59-1.004-12.968-14.91-14.802c-8.315-0.95-23.496,2.294-23.274,2.256c-1.164,0.198-2.269-0.585-2.466-1.75       C251.198,84.335,251.564,83.529,252.211,83.068z"/>
					<path style="fill:#FFFFFF;" d="M171.65,99.255c-22.905-5.135-45.397,9.925-33.48,29.715c0.648,1.076,2.046,1.423,3.121,0.776       c3.49-2.102-4.083-12.349,8.035-19.412c7.303-4.088,22.558-6.96,22.339-6.909c1.15-0.267,1.867-1.416,1.599-2.567       C173.073,100.032,172.424,99.43,171.65,99.255z"/>
				</g>
			</g>
			<path style="fill:#000E3F;" d="M290.655,58.93c17.851,0,28.809,6.933,21.006,19.503l-0.001,0.005     c-2.28,3.626-2.728,1.533-2.34,10.72c0.577,13.57-3.503,26.193-9.663,35.029c-7.985,11.456-23.27,20.573-38.223,20.573     c-1.357,0-2.714-0.075-4.06-0.231c-30.444-3.527-33.854-41.017-36.615-42.209c-1.538-0.663-3.126-0.939-4.66-0.939     c-5.238,0-9.828,3.225-9.48,5.279c1.033,6.134,1.506,19.563-1.62,29.481c-4.45,14.117-13.686,22.354-27.39,24.408     c-3.026,0.457-5.949,0.676-8.774,0.676c-27.649,0-45.59-20.925-51.455-43.48c-0.143-0.541-0.452-0.914-1.028-1.242     c-4.146-2.433-6.871-5.645-7.683-9.047c-3.337-14.003,25.357-24.212,53.746-24.212c10.135,0,20.231,1.301,28.817,4.194     c5.789,1.939,6.966,3.467,8.118,3.467c0.339,0,0.677-0.133,1.13-0.428c5.671-3.711,11.141-4.631,15.304-4.631     c4.092,0,6.919,0.889,7.428,0.889c0.01,0,0.019,0,0.027-0.001c0.728-0.567,5.313-7.43,19.503-14.982     C259.206,63.008,276.958,58.93,290.655,58.93 M290.655,54.513c-15.805,0-34.024,4.861-49.984,13.337     c-10.852,5.776-16.491,11.268-19.065,14.089c-1.449-0.251-3.455-0.51-5.821-0.51c-5.888,0-11.456,1.556-16.57,4.629     c-1.274-0.688-3.272-1.7-6.579-2.808c-8.585-2.893-19.037-4.423-30.221-4.423c-19.975,0-45.694,5.345-54.962,17.08     c-3.055,3.867-4.119,8.215-3.081,12.572c1.042,4.363,4.225,8.379,9.001,11.382c3.365,12.214,9.932,23.312,18.56,31.32     c10.194,9.461,22.954,14.461,36.901,14.461c3.077,0,6.251-0.244,9.434-0.725c15.304-2.295,26.006-11.786,30.944-27.448     c3.173-10.07,2.951-23.024,1.966-30.202c0.882-0.621,2.728-1.469,4.92-1.469c0.58,0,1.139,0.06,1.676,0.18     c0.294,0.834,0.67,2.028,0.992,3.055c3.46,11.015,11.564,36.81,38.098,39.884c1.496,0.173,3.032,0.26,4.568,0.26     c15.664,0,32.481-9.028,41.847-22.465c7.222-10.358,11.032-24.115,10.452-37.743c-0.061-1.47-0.203-4.82-0.056-5.797     c0.067-0.089,0.143-0.18,0.224-0.283c0.373-0.473,0.883-1.121,1.498-2.101c0.027-0.041,0.052-0.083,0.077-0.126     c4.544-7.387,3.358-12.792,1.557-16.03C313.403,58.107,304.035,54.513,290.655,54.513L290.655,54.513z"/>
		</g>
		<g>
			<g>
				<g>
					<path style="fill:#00D5FE;" d="M277.121,248.649l12.42,21.737l2.169,3.795l30.781,53.918c1.962,3.438,0.91,7.822-2.39,9.994       l-23.561,15.506c-3.32,2.185-7.742,1.405-10.124-1.758l-7.674-10.206l-32.298-42.886l-15.07-19.993       c-2.602-3.455-1.731-8.403,1.875-10.776l33.233-21.871C270.106,243.723,274.977,244.893,277.121,248.649z"/>
					<g style="opacity:0.65;">
						<path style="fill:#6280FF;" d="M263.665,304.512c2.254,3.424,6.856,4.374,10.281,2.12c3.424-2.254,4.373-6.856,2.12-10.281        c-2.253-3.424-6.856-4.373-10.281-2.12C262.361,296.485,261.412,301.088,263.665,304.512z"/>
						<path style="fill:#6280FF;" d="M294.368,325.773c2.253,3.424,6.856,4.374,10.281,2.12c3.424-2.254,4.373-6.856,2.12-10.281        c-2.253-3.424-6.856-4.373-10.281-2.12C293.063,317.746,292.114,322.349,294.368,325.773z"/>
						<path style="fill:#6280FF;" d="M275.49,324.168c1.721,2.615,5.235,3.339,7.85,1.619c2.615-1.721,3.34-5.235,1.619-7.85        c-1.721-2.615-5.235-3.34-7.85-1.619C274.494,318.039,273.769,321.553,275.49,324.168z"/>
						<path style="fill:#6280FF;" d="M288.494,303.345c1.274,1.936,3.877,2.473,5.813,1.199c1.936-1.274,2.473-3.877,1.199-5.814        c-1.274-1.936-3.877-2.473-5.813-1.199C287.756,298.806,287.219,301.409,288.494,303.345z"/>
						<path style="fill:#6280FF;" d="M289.09,343.145c1.721,2.615,5.235,3.339,7.85,1.619c2.615-1.721,3.339-5.235,1.619-7.85        c-1.721-2.615-5.235-3.339-7.85-1.619C288.094,337.015,287.369,340.53,289.09,343.145z"/>
					</g>
					<path style="fill:#FFCF00;" d="M277.114,248.654l12.419,21.737c-1.877,3.632-5.144,8.223-10.578,11.04       c-4.516,2.341-9.152,2.743-11.299,2.911c-6.552,0.511-8.178-1.282-12.61,0.296c-1.402,0.499-5.291,1.951-7.449,6.001       c-1.843,3.459-1.388,6.874-1.16,8.114c-5.024-6.664-10.048-13.328-15.071-19.992c-2.601-3.456-1.73-8.404,1.876-10.777       l33.233-21.871C270.1,243.728,274.971,244.897,277.114,248.654z"/>
					<g style="opacity:0.65;">
						<path style="fill:#6280FF;" d="M291.71,274.181l30.781,53.918c1.962,3.438,0.91,7.822-2.39,9.994l-23.561,15.506        c-3.32,2.185-7.742,1.405-10.124-1.758l-7.674-10.206c8.087-5.159,17.348-10.406,17.344-23.581        c-0.017-12.073-8.439-22.252-8.019-34.285C288.202,280.152,289.434,276.581,291.71,274.181z"/>
					</g>
				</g>
				<path style="fill:#000E3F;" d="M324.399,327.003l-45.357-79.443c-1.325-2.322-3.575-4.009-6.173-4.633      c-2.608-0.627-5.376-0.137-7.604,1.335l-33.231,21.869c-2.235,1.469-3.778,3.821-4.235,6.455      c-0.456,2.634,0.203,5.369,1.812,7.508l55.027,73.082c1.898,2.519,4.816,3.864,7.777,3.864c1.837,0,3.692-0.518,5.326-1.594      c0,0,0,0,0.003,0l23.559-15.508C325.574,337.127,326.934,331.446,324.399,327.003z M232.151,273.341      c0.254-1.456,1.073-2.707,2.309-3.522l33.234-21.869c0.878-0.579,1.875-0.875,2.898-0.875c0.414,0,0.832,0.048,1.248,0.147      c1.439,0.345,2.634,1.241,3.367,2.527l12.042,21.092c-0.087,0.116-0.195,0.212-0.259,0.348      c-3.573,7.67-12.491,11.456-24.518,10.393c-10.21-0.869-15.766,5.466-18.096,10.776l-11.236-14.922      C232.25,276.254,231.9,274.798,232.151,273.341z M318.873,336.249l-23.559,15.508c-2.327,1.53-5.47,0.992-7.15-1.241      l-40.571-53.884c0.202-0.886,2.931-11.682,14.487-10.65c12.848,1.129,22.719-2.803,27.66-10.775l30.822,53.985      C321.946,331.616,321.205,334.716,318.873,336.249z"/>
				<g>
					<path style="fill:#FC09B2;" d="M274.844,300.118c-1.423,0.937-3.354,0.688-4.487-0.644l-41.203-48.364       c-2.525-2.952-3.374-6.948-2.27-10.684l5.981-20.167c0.533-1.814,2.442-2.846,4.257-2.31c1.813,0.536,2.849,2.442,2.311,4.257       l-5.979,20.166c-0.442,1.498-0.101,3.105,0.912,4.291l41.207,48.37c1.228,1.44,1.054,3.602-0.387,4.828       C275.076,299.955,274.961,300.041,274.844,300.118z"/>
					<path style="fill:#000E3F;" d="M236.147,217.808c0.322,0,0.65,0.045,0.974,0.141c1.813,0.537,2.849,2.443,2.31,4.257       l-5.979,20.166c-0.443,1.498-0.1,3.105,0.912,4.291l41.207,48.37c1.228,1.44,1.054,3.602-0.387,4.828       c-0.109,0.094-0.223,0.18-0.341,0.257c-0.572,0.377-1.227,0.561-1.879,0.561c-0.968,0-1.931-0.409-2.608-1.205l-41.203-48.364       c-2.525-2.952-3.374-6.948-2.27-10.684l5.981-20.167C233.303,218.77,234.668,217.808,236.147,217.808 M236.147,213.391       L236.147,213.391c-3.453,0-6.546,2.312-7.521,5.621l-5.978,20.159c-1.531,5.181-0.354,10.715,3.148,14.81l41.198,48.357       c1.49,1.752,3.667,2.758,5.97,2.758c1.536,0,3.026-0.446,4.307-1.289c0.264-0.173,0.533-0.374,0.789-0.594       c1.583-1.347,2.554-3.246,2.721-5.335c0.167-2.089-0.49-4.118-1.85-5.712l-41.206-48.368c-0.046-0.054-0.057-0.11-0.038-0.175       l5.978-20.162c0.596-2.008,0.374-4.129-0.627-5.971c-1-1.841-2.657-3.182-4.665-3.777       C237.647,213.499,236.898,213.391,236.147,213.391L236.147,213.391z"/>
				</g>
			</g>
			<g>
				<g>
					<path style="fill:#FFCF00;" d="M320.348,244.026c-23.857,11.827-36.699,40.277-23.198,57.07       c14.855,18.479,50.428,8.841,65.263-16.558"/>
					<path style="fill:#000E3F;" d="M319.031,312.911c-9.847,0-18.149-3.646-23.602-10.431c-5.397-6.711-7.211-15.663-5.108-25.206       c3.126-14.201,14.526-28.029,29.045-35.228c1.106-0.535,2.423-0.094,2.961,0.997c0.54,1.094,0.094,2.418-0.997,2.961       c-13.366,6.628-23.845,19.273-26.695,32.219c-1.279,5.808-1.583,14.252,4.235,21.491c5.077,6.315,13.219,9.383,22.919,8.675       c15.092-1.124,30.651-11.156,38.716-24.965c0.614-1.053,1.972-1.403,3.022-0.794c1.053,0.617,1.408,1.969,0.794,3.022       c-8.904,15.242-25.472,25.896-42.205,27.142C321.073,312.87,320.043,312.908,319.031,312.911z"/>
				</g>
				<g>
					<path style="fill:#FFCF00;" d="M170.955,274.044c26.574,1.694,49.408,22.975,43.442,43.68       c-6.564,22.783-43.099,27.633-66.594,9.935"/>
					<path style="fill:#000E3F;" d="M180.205,340.626c-11.847,0-24.038-3.9-33.731-11.202c-0.974-0.733-1.167-2.119-0.434-3.093       c0.733-0.974,2.116-1.167,3.093-0.434c12.77,9.619,30.996,12.864,45.354,8.071c9.228-3.083,15.543-9.069,17.789-16.856       c2.57-8.923-0.972-16.596-4.397-21.46c-7.63-10.84-22.179-18.456-37.065-19.403c-1.218-0.079-2.142-1.129-2.066-2.344       c0.076-1.218,1.104-2.162,2.345-2.066c16.173,1.03,32.028,9.381,40.399,21.27c5.625,7.992,7.411,16.952,5.026,25.226       c-2.657,9.225-9.984,16.264-20.633,19.821C190.909,339.819,185.594,340.626,180.205,340.626z"/>
				</g>
			</g>
		</g>
	</g>
	<g>
		<g>
			<path style="fill:#6280FF;" d="M61.347,95.086c-11.956-3.338-36.032-13.23-46.462-22.328c-5.012-4.373-5.531-11.981-1.159-16.994     c4.004-4.59,10.722-5.41,15.675-2.158c11.639,7.623,27.739,28.303,34.053,38.698C64.338,93.759,62.981,95.535,61.347,95.086z"/>
			<path style="fill:#6280FF;" d="M78.416,78.249c-6.859-7.114-19.393-23.617-22.881-34.069c-1.676-5.023,1.037-10.455,6.061-12.131     c4.6-1.535,9.542,0.613,11.629,4.843c4.913,9.927,7.62,30.617,7.761,40.299C81.004,78.545,79.356,79.217,78.416,78.249z"/>
			<path style="fill:#6280FF;" d="M49.066,115.536c-8.745-4.602-28.089-12.035-39.099-12.469c-5.292-0.208-9.751,3.912-9.959,9.204     c-0.191,4.846,3.25,8.992,7.894,9.817c10.904,1.949,31.528-1.224,40.864-3.79C50.072,117.939,50.258,116.169,49.066,115.536z"/>
		</g>
		<g>
			<path style="fill:#6280FF;" d="M450.736,389.276c11.971,3.282,36.093,13.061,46.565,22.111     c5.033,4.349,5.587,11.955,1.238,16.988c-3.982,4.608-10.697,5.459-15.665,2.231c-11.675-7.568-27.871-28.174-34.234-38.539     C447.75,390.617,449.099,388.834,450.736,389.276z"/>
			<path style="fill:#6280FF;" d="M433.746,406.192c6.892,7.082,19.503,23.526,23.04,33.962c1.7,5.015-0.988,10.459-6.004,12.159     c-4.593,1.557-9.544-0.568-11.652-4.788c-4.96-9.905-7.763-30.581-7.949-40.263C431.156,405.908,432.8,405.228,433.746,406.192z"/>
			<path style="fill:#6280FF;" d="M462.921,368.769c8.766,4.561,28.145,11.903,39.157,12.286c5.293,0.183,9.732-3.958,9.915-9.251     c0.168-4.846-3.292-8.977-7.94-9.779c-10.913-1.898-31.522,1.371-40.846,3.98C461.903,366.37,461.726,368.141,462.921,368.769z"/>
		</g>
	</g>
</g>















</svg>
