<?xml version="1.0" encoding="UTF-8"?>
<!-- Generator: Adobe Illustrator 25.2.3, SVG Export Plug-In . SVG Version: 6.00 Build 0)  -->
<svg xmlns="http://www.w3.org/2000/svg" xmlns:xlink="http://www.w3.org/1999/xlink" version="1.1" id="Capa_1" x="0px" y="0px" viewBox="0 0 512 512" style="enable-background:new 0 0 512 512;" xml:space="preserve" width="512" height="512">
<g>
	<g>
		<g>
			<g>
				<path style="fill:#6280FF;" d="M236.872,250.806c-3.819-2.258-3.238-1.838-4.292,1.846      c-13.301,46.486-72.182,50.006-92.122,4.599c-0.19-0.432-0.318-0.997-0.897-0.895c-0.27,0.048-0.521,0.472-0.693,0.775      c-16.215,28.582-51.704,24.039-56.074-8.137c-0.874-6.432-2.363,1.811-23.12,4.664c-16.82,2.312-37.231-4.402-47.134-19.726      c-17.71-27.403,3.809-59.618,38.156-63.637c3.973-0.465,1.828-1.146,1.694-10.206c-0.822-55.237,58.358-77.249,94.667-33.62      c1.43,1.718,1.38-0.756,2.214-3.428c7.135-22.867,30.515-28.527,49.529-14.09c0.958,0.727,1.985,1.386,2.845,2.216      c1.487,1.435,1.975,1.189,3.574-0.206c35.841-31.257,91.861,0.81,73.277,48.636c-1.572,4.046-0.78,1.354,10.957,6.234      c17.191,7.148,30.525,23.04,32.577,39.787c3.434,28.04-17.279,48.689-44.183,53.014c-1.303,0.209-2.608,0.472-3.921,0.54      C260.689,259.857,248.452,257.652,236.872,250.806z"/>
				<path style="opacity:0.25;fill:#000E3F;" d="M236.791,250.756c-3.641-2.16-3.194-1.736-4.143,1.639      c-12.881,45.825-70.745,50.998-91.968,5.466c-1.238-2.657-0.877-2.016-3.585,2.074c-9.818,14.831-28.275,22.092-42.978,10.477      c-1.724-1.362-3.056-3.033-4.494-4.638c-0.978-1.091-1.191-2.214-0.769-3.648c5.59-18.992,26.839-38.468,52.457-37.021      c27.283,1.54,45.068,15.981,57.307-0.325c6.148-8.19,5.243-15.897,6.279-29.453c0.591-7.733,4.333-22.659,9.913-32.571      c5.32-9.45,12.437-24.921,31.951-35.149c10.109-5.298,19.945-7.657,27.139-7.835c1.785-0.044,2.867,0.68,3.672,2.286      c3.241,6.472,4.846,13.301,4.725,20.529c-0.234,14.021-6.645,18.994-3.687,19.721c55.554,13.651,59.221,80.601,5.482,95.023      C278.95,258.712,250.058,258.627,236.791,250.756z"/>
				<g style="opacity:0.5;">
					<path style="fill:#FFFFFF;" d="M101.363,125.165c-11.278,3.418-20.921,12.629-25.119,25.915       c-3.074,10.129-1.052,19.245-1.061,19.094c0.383,2.209-2.736,3.133-3.617,1.071c-12.888-30.136,20.438-64.64,49.977-49.735       c1.881,0.949,0.834,3.813-1.21,3.335C117.907,124.567,111.048,122.237,101.363,125.165z"/>
					<path style="fill:#FFFFFF;" d="M42.437,193.174c-9.107,6.496-13.869,16.48-13.662,26.545       c0.183,8.509,4.264,15.499,4.203,15.348c1.024,1.95-1.552,3.79-3.066,2.196c-19.314-20.364-1.828-55.861,27.163-53.877       c2.058,0.14,2.274,3.104,0.253,3.536C57.327,186.923,46.858,190.039,42.437,193.174z"/>
					<path style="fill:#FFFFFF;" d="M166.482,133.194c-5.297,8.53-5.617,19.438-5.589,19.287c-0.123,2.15-3.177,2.472-3.747,0.395       c-6.398-23.393,17.353-48.334,38.082-32.815c1.617,1.21,0.296,3.761-1.623,3.148       C191.775,123.557,176.83,115.617,166.482,133.194z"/>
				</g>
				<g>
					<g>
						<path style="fill:#FC09B2;" d="M93.674,210.78c-5.729-2.554-6.935-7.306-4.355-10.695c7.582-9.962,31.415-5.482,27.157,5.502        C114.405,210.927,102.807,214.852,93.674,210.78z"/>
					</g>
					<g>
						<path style="fill:#FC09B2;" d="M181.075,210.78c5.729-2.554,6.935-7.306,4.355-10.695c-7.582-9.962-31.415-5.482-27.157,5.502        C160.343,210.927,171.941,214.852,181.075,210.78z"/>
					</g>
				</g>
			</g>
			<g>
				<path style="fill:#000E3F;" d="M169.164,186.549c-2.294,0-4.445-0.866-6.268-2.539c-2.945-2.7-4.772-7.396-4.658-11.962      c0.022-0.884,0.746-1.586,1.627-1.586c0.013,0,0.026,0,0.041,0c0.897,0.023,1.608,0.769,1.586,1.668      c-0.092,3.667,1.322,7.388,3.603,9.48c1.403,1.287,3,1.842,4.748,1.646c4.794-0.539,7.341-6.148,7.304-11.154      c-0.007-0.899,0.716-1.634,1.614-1.64c0.006,0,0.009,0,0.013,0c0.894,0,1.621,0.72,1.627,1.614      c0.051,6.429-3.508,13.665-10.195,14.415C169.856,186.53,169.508,186.549,169.164,186.549z"/>
				<path style="fill:#000E3F;" d="M105.297,186.549c-2.295,0-4.445-0.866-6.268-2.539c-2.945-2.7-4.772-7.396-4.658-11.962      c0.022-0.884,0.746-1.586,1.627-1.586c0.013,0,0.026,0,0.041,0c0.897,0.023,1.608,0.769,1.586,1.668      c-0.091,3.667,1.322,7.388,3.603,9.48c1.404,1.287,2.994,1.842,4.748,1.646c4.795-0.539,7.341-6.148,7.304-11.154      c-0.007-0.899,0.716-1.634,1.614-1.64c0.006,0,0.009,0,0.013,0c0.894,0,1.621,0.72,1.627,1.614      c0.051,6.429-3.508,13.665-10.195,14.415C105.989,186.53,105.641,186.549,105.297,186.549z"/>
				<ellipse style="fill:#000E3F;" cx="137.384" cy="193.074" rx="15.595" ry="14.328"/>
				<path style="fill:#000E3F;" d="M186.365,291.112c-19.916,0.002-37.544-11.958-46.819-31.923      c-8.209,13.503-21.738,20.563-34.812,18.033c-12.51-2.412-21.534-13.145-23.551-28.009c-0.045-0.32-0.086-0.567-0.123-0.757      c-0.365,0.174-0.829,0.417-1.259,0.643c-3.087,1.625-8.834,4.648-19.905,6.171c-15.7,2.175-37.649-3.319-48.724-20.455      c-7.73-11.96-8.738-25.442-2.84-37.961c7.149-15.17,23.308-25.967,42.174-28.176c0.481-0.056,0.774-0.107,0.954-0.148      c-0.013-0.38-0.097-1.023-0.174-1.606c-0.191-1.457-0.477-3.658-0.523-6.81c-0.391-26.18,12.689-47.376,34.135-55.314      c21.371-7.91,45.143-0.473,62.376,19.411c0.124-0.52,0.266-1.083,0.443-1.655c3.418-10.956,10.589-18.682,20.191-21.753      c10.215-3.261,21.835-0.77,31.874,6.852c0.269,0.204,0.54,0.4,0.813,0.598c0.729,0.527,1.483,1.073,2.176,1.743      c0.243,0.234,0.406,0.368,0.507,0.443c0.264-0.178,0.688-0.548,0.87-0.705c17.569-15.324,42.693-17.01,61.088-4.095      c13.663,9.593,24.718,28.959,14.774,54.547l-0.084,0.219c-0.067,0.172-0.137,0.35-0.2,0.516      c0.249,0.069,0.538,0.142,0.824,0.215c1.792,0.458,4.789,1.223,9.525,3.192c17.985,7.48,31.474,23.993,33.569,41.093      c3.304,26.99-15.848,50.046-45.542,54.818l-0.815,0.136c-1.056,0.178-2.15,0.363-3.278,0.423      c-14.505,0.751-26.921-2.063-37.967-8.592l0,0c-0.451-0.265-0.999-0.589-1.44-0.83c-0.032,0.12-0.064,0.243-0.094,0.363      c-0.101,0.393-0.217,0.847-0.365,1.361c-6.279,21.949-23.286,36.469-44.382,37.897      C188.624,291.075,187.489,291.112,186.365,291.112z M139.719,254.714c0.752,0,1.616,0.361,2.173,1.748      c9.097,20.724,27.332,32.647,47.651,31.287c19.69-1.333,35.581-14.952,41.473-35.543c0.138-0.484,0.247-0.909,0.342-1.277      c0.359-1.395,0.641-2.496,1.784-2.969c1.236-0.514,2.348,0.138,4.559,1.445l0,0c10.625,6.279,22.132,8.873,36.14,8.143      c0.941-0.051,1.894-0.211,2.906-0.383l0.842-0.139c23.927-3.846,46.321-22.672,42.826-51.209      c-1.956-15.975-14.651-31.441-31.586-38.483c-4.52-1.879-7.375-2.608-9.082-3.044c-1.685-0.43-2.704-0.69-3.235-1.728      c-0.522-1.014-0.142-1.99,0.383-3.338l0.084-0.217c9.262-23.836-0.957-41.82-13.611-50.704      c-14.512-10.191-37.791-12.938-57.079,3.884c-1.765,1.541-3.308,2.53-5.776,0.15c-0.527-0.509-1.157-0.965-1.823-1.447      c-0.294-0.213-0.587-0.424-0.875-0.643c-9.18-6.971-19.728-9.28-28.913-6.343c-8.564,2.739-14.984,9.707-18.076,19.621      c-0.2,0.64-0.344,1.266-0.473,1.819c-0.367,1.578-0.683,2.942-2.063,3.269c-0.871,0.213-1.705-0.165-2.483-1.101      c-16.399-19.703-39.311-27.235-59.777-19.658c-20.115,7.444-32.381,27.45-32.013,52.212c0.045,2.966,0.307,4.972,0.497,6.438      c0.243,1.853,0.402,3.078-0.391,4.097c-0.74,0.948-1.954,1.161-3.239,1.311c-17.758,2.079-32.935,12.167-39.606,26.33      c-5.402,11.464-4.467,23.826,2.629,34.808c10.301,15.939,30.846,21.012,45.545,18.996c10.507-1.445,15.924-4.295,18.834-5.827      c1.885-0.991,3.128-1.649,4.417-0.987c1.215,0.626,1.502,2.033,1.705,3.544c1.853,13.639,9.682,23.078,20.943,25.251      c12.089,2.33,24.681-4.617,32.103-17.697c0.256-0.453,0.789-1.391,1.821-1.576C139.416,254.729,139.565,254.714,139.719,254.714      z"/>
			</g>
		</g>
		<g>
			<g>
				<g>
					<path style="fill:#00D5FE;" d="M113.523,373.543c-0.545-0.121-0.543-0.895,0.011-1.009c4.217-0.797,8.278-1.875,11.956-3.44       c10.664-4.591,16.231-12.833,18.252-22.667c1.561-7.581,1.026-16.115-0.877-24.643c-7.038-30.41-42.046-57.762-19.419-98.671       c4.391-7.956,10.265-14.95,17.354-20.124c0.227-0.154,0.553-0.114,0.725,0.113c0.116,0.175,0.125,0.391,0.024,0.557       c-21.268,40.274-7.647,59.281,4.835,81.112c3.59,6.293,7.1,12.823,9.654,20.171       C168.864,341.277,151.814,381.979,113.523,373.543z"/>
					<path style="opacity:0.75;fill:#FFFFFF;" d="M126.386,251.848c0.403,9.793,7.316,24.767,7.249,24.583       c0.612,1.672-1.607,2.929-2.724,1.525c-2.806-3.544-5.669-7.452-7.269-11.836c-5.589-12.325-4.991-29.543,2.248-40.768       c0.918-1.424,3.138-0.436,2.688,1.201C128.548,226.737,124.762,238.955,126.386,251.848z"/>
					<path style="opacity:0.25;fill:#322BBF;" d="M113.523,373.543c-0.545-0.121-0.543-0.895,0.011-1.009       c4.217-0.797,8.278-1.875,11.956-3.44c10.664-4.591,16.231-12.833,18.252-22.667c4.455-6.5,7.209-14.385,7.859-22.628       c0.982-12.6-1.78-26.333-5.216-39.028c3.59,6.293,7.1,12.823,9.654,20.171C168.864,341.277,151.814,381.979,113.523,373.543z"/>
				</g>
				<path style="fill:#000E3F;" d="M141.079,202.896c0.165-0.007,0.331,0.066,0.437,0.21c0.118,0.164,0.124,0.379,0.037,0.547      c-27.417,51.893,3.111,68.487,14.481,101.297c11.46,32.441-0.908,68.367-30.958,69.678c-3.604,0.157-7.458-0.183-11.559-1.086      c-0.539-0.119-0.53-0.895,0.021-1c4.219-0.801,8.27-1.888,11.954-3.452c18.886-8.094,21.762-27.719,17.372-47.305      c-7.032-30.403-42.048-57.76-19.411-98.671c4.386-7.957,10.265-14.946,17.348-20.119      C140.884,202.933,140.982,202.9,141.079,202.896 M140.937,199.644c-0.745,0.032-1.457,0.283-2.059,0.723      c-7.232,5.283-13.552,12.605-18.277,21.175c-16.402,29.641-3.874,52.992,7.178,73.593c5.044,9.401,9.808,18.28,11.913,27.382      c2.818,12.575,4.562,34.99-15.483,43.58c-3.164,1.343-6.856,2.406-11.278,3.246c-1.78,0.339-3.041,1.838-3.068,3.646      c-0.026,1.806,1.186,3.34,2.95,3.731c4.279,0.942,8.451,1.333,12.405,1.16c12.23-0.534,22.384-6.282,29.366-16.625      c10.039-14.871,11.771-36.861,4.52-57.39c-3.131-9.036-7.634-16.814-11.988-24.337c-11.773-20.341-21.941-37.908-2.684-74.355      c0.673-1.295,0.564-2.812-0.278-3.976C143.398,200.165,142.199,199.589,140.937,199.644L140.937,199.644z"/>
			</g>
			<g>
				<g>
					<path style="fill:#00D5FE;" d="M67.71,381c-3.007,14.076,11.986,20.357,21.766,13.265c3.318-2.397,6.767-8.42,4.815-12.695       c-2.07-4.503-8.68-3.639-10.391,0.508c-1.258,2.973-0.2,6.152-0.207,5.99c0.085,0.302-0.099,0.617-0.402,0.702       c-2.259,0.657-2.705-4.62-2.854-5.965c-0.703-7.049,5.495-11.553,12-11.116c5.403,0.377,9.289,3.558,11.32,7.991       c3.919,8.476,1.117,21.48-10.754,28.123c-5.241,2.931-11.192,4.037-17.106,3.502c-11.124-1.028-18.918-7.876-22.186-16.706       c-4.45-11.984-0.556-27.611,14.666-37.139c21.499-13.495,45.648-10.819,49.635-35.08c0.654-4.01,0.541-8.239-0.379-12.397       c-2.247-9.811-6.372-11.847-5.114-12.73c0.21-0.135,0.482-0.129,0.668,0.025c7.3,5.861,11.881,15.461,12.068,25.542       C126.072,361.808,72.481,358.633,67.71,381z"/>
					<path style="opacity:0.75;fill:#FFFFFF;" d="M60.146,382.582l-0.017,0.061c-0.452,1.723-2.976,1.514-3.138-0.266       c-1.435-16.205,19.197-28.001,35.57-28.972c1.672-0.099,2.219,2.22,0.679,2.879C79.116,362.326,63.785,368.752,60.146,382.582z       "/>
					<path style="opacity:0.25;fill:#322BBF;" d="M93.003,407.803c-5.241,2.931-11.192,4.037-17.106,3.502       c-11.124-1.028-18.918-7.876-22.186-16.706c31.045,19.49,48.398-0.238,50.045-14.92       C107.675,388.156,104.873,401.16,93.003,407.803z"/>
				</g>
				<path style="fill:#000E3F;" d="M112.817,297.159c0.134-0.006,0.27,0.036,0.377,0.122c7.296,5.858,11.875,15.466,12.059,25.537      c0.825,38.989-52.772,35.822-57.543,58.187c-2.216,10.386,5.378,16.534,13.44,16.183c2.854-0.124,5.765-1.063,8.322-2.916      c3.326-2.411,6.765-8.432,4.811-12.703c-0.993-2.17-3.044-3.094-5.094-3.005c-2.205,0.096-4.41,1.365-5.298,3.519      c-1.221,2.885-0.238,5.992-0.207,5.991c0.001,0,0.001-0.002,0.001-0.006c0.087,0.3-0.086,0.613-0.386,0.7      c-0.113,0.033-0.222,0.051-0.326,0.055c-1.989,0.087-2.399-4.733-2.53-6.014c-0.662-6.53,4.608-10.871,10.545-11.13      c0.479-0.021,0.961-0.015,1.447,0.018c15.695,1.074,18.653,25.981,0.562,36.101c-3.989,2.231-8.385,3.409-12.867,3.605      c-1.408,0.061-2.824,0.026-4.239-0.105c-26.248-2.394-33.943-37.307-7.514-53.84c21.501-13.493,45.652-10.808,49.642-35.078      c0.65-4.003,0.527-8.237-0.386-12.401c-2.24-9.805-6.365-11.845-5.111-12.72C112.612,297.196,112.715,297.164,112.817,297.159       M112.675,293.907c-0.726,0.032-1.423,0.268-2.017,0.683c-2.054,1.433-2.142,3.609-0.259,6.466      c1.062,1.612,2.84,4.309,4.059,9.647c0.809,3.689,0.931,7.556,0.346,11.155c-2.349,14.286-12.264,17.873-25.986,22.837      c-6.894,2.493-14.707,5.32-22.173,10.005c-13.749,8.601-20.453,23.317-17.075,37.488c3.002,12.597,12.974,21.161,26.023,22.352      c1.558,0.143,3.133,0.182,4.677,0.115c5.134-0.224,9.95-1.576,14.313-4.016c12.188-6.818,15.581-19.056,13.536-28.162      c-1.824-8.125-7.75-13.5-15.465-14.028c-0.601-0.041-1.209-0.048-1.809-0.022c-4.204,0.183-8.08,1.984-10.637,4.939      c-2.307,2.669-3.375,6.139-3.007,9.772l0.014,0.14c0.246,2.466,0.901,9.015,5.896,8.797c0.363-0.016,0.73-0.077,1.09-0.181      c2.025-0.588,3.194-2.712,2.607-4.734c-0.025-0.088-0.054-0.175-0.087-0.259c-0.157-0.591-0.397-2.219,0.165-3.55      c0.416-1.008,1.555-1.496,2.442-1.535c0.664-0.029,1.549,0.139,1.992,1.106c1.088,2.38-1.196,6.855-3.761,8.713      c-1.934,1.402-4.201,2.197-6.555,2.299c-3.323,0.145-6.451-1.121-8.367-3.386c-1.901-2.247-2.505-5.313-1.747-8.866      c1.651-7.74,11.147-12.168,22.144-17.296c16.038-7.479,35.997-16.786,35.471-41.639c-0.202-11.021-5.164-21.493-13.276-28.006      C114.506,294.162,113.599,293.867,112.675,293.907L112.675,293.907z"/>
			</g>
			<g>
				<g>
					<path style="fill:#00D5FE;" d="M134.204,197.205c0.095,0.933-7.813,3.421-18.243,12.128       c-9.158,7.696-14.206,15.05-16.703,22.221c-5.024,14.506,0.367,28.25,3.149,42.452c8.318,46.135-28.026,78.996-66.058,69.071       C15.99,337.695,4.242,320.3,3.307,303.01c-0.362-6.254,0.698-12.497,3.28-18.141c3.348-8.757,13.425-18.512,25.264-20.109       c14.561-1.968,32.293,8.464,29.164,25.102c-2.681,14.133-17.133,21.069-25.108,9.22c-0.327-0.49,0.316-1.022,0.748-0.627       c0.164,0.047,10.956,6.26,15.076-2.964c2.108-4.542,2.451-10.718-0.621-14.638c-0.166-0.1-5.864-8.049-17.004-4.897       c-18.98,5.152-21.766,35.431-1.194,46.55c25.774,13.883,57.431-9.982,50.423-47.563c-3.839-21.92-5.99-40.652,9.466-58.027       c5.463-6.111,12.05-10.794,19.041-14.09c6.989-3.331,14.396-5.348,21.823-6.069       C133.932,196.73,134.175,196.936,134.204,197.205z"/>
					<path style="opacity:0.75;fill:#FFFFFF;" d="M28.533,275.33c-8.16,3.997-12.505,10.889-13.755,19.889       c-0.675,5.032-0.404,13.969-0.406,13.789c0.012,1.839-2.608,2.227-3.124,0.457c-9.026-30.996,14.376-44.52,30.396-40.05       c1.66,0.463,1.34,2.916-0.38,2.942C39.947,272.515,34.67,272.287,28.533,275.33z"/>
					<path style="opacity:0.25;fill:#322BBF;" d="M36.348,343.076C15.99,337.695,4.242,320.3,3.307,303.01       c6.854,17.536,20.159,33.44,45.971,31.684c50.528-3.429,44.164-51.019,41.639-77.932c-1.247-13.296,3.357-20.919,8.341-25.208       c-5.024,14.506,0.367,28.25,3.149,42.452C110.725,320.141,74.38,353.001,36.348,343.076z"/>
				</g>
				<path style="fill:#000E3F;" d="M133.689,196.756c0.263-0.012,0.493,0.185,0.518,0.451c0.094,0.928-7.822,3.426-18.254,12.125      c-27.717,23.257-17.703,43.46-13.547,64.679c7.148,39.601-18.634,69.419-50.128,70.793c-5.195,0.227-10.545-0.321-15.929-1.726      c-27.711-7.334-39.477-36.913-29.756-58.215c3.35-8.746,13.411-18.499,25.256-20.104c0.788-0.107,1.587-0.177,2.39-0.212      c14.032-0.612,29.743,9.572,26.771,25.31c-1.684,8.914-8.057,14.967-14.536,15.25c-3.793,0.165-7.621-1.645-10.567-6.017      c-0.244-0.361,0.053-0.757,0.396-0.772c0.119-0.005,0.243,0.035,0.352,0.139c0.099,0.03,3.986,2.259,7.98,2.085      c2.694-0.118,5.437-1.329,7.099-5.048c2.107-4.547,2.454-10.708-0.621-14.638c-0.145-0.08-4.378-5.974-12.648-5.614      c-1.347,0.059-2.799,0.283-4.36,0.726c-18.975,5.138-21.769,35.429-1.186,46.544c5.505,2.967,11.279,4.211,16.886,3.966      c20.642-0.901,39.035-21.971,33.533-51.53c-3.836-21.914-5.991-40.65,9.471-58.03c5.449-6.107,12.04-10.789,19.032-14.095      c6.991-3.326,14.404-5.336,21.821-6.063C133.671,196.757,133.679,196.756,133.689,196.756 M133.547,193.504      c-0.056,0.002-0.139,0.008-0.195,0.014c-7.97,0.781-15.676,2.922-22.91,6.364c-7.8,3.688-14.552,8.692-20.062,14.867      c-16.165,18.17-14.329,37.446-10.248,60.758c2.538,13.636-0.127,26.233-7.498,35.507c-5.865,7.378-14.237,11.828-22.971,12.209      c-5.253,0.229-10.367-0.975-15.2-3.579c-10.551-5.697-13.277-16.505-12.406-24.028c0.96-8.289,5.902-14.614,12.898-16.509      c1.276-0.362,2.492-0.565,3.651-0.615c5.195-0.226,8.436,2.619,9.904,4.335c0.036,0.041,0.074,0.086,0.116,0.134      c2.16,2.888,1.722,7.78,0.154,11.162c-0.945,2.113-2.261,3.077-4.288,3.165c-1.734,0.076-3.961-0.513-6.127-1.615      c-0.651-0.43-1.415-0.644-2.205-0.609c-1.359,0.059-2.585,0.854-3.2,2.074c-0.605,1.202-0.511,2.648,0.248,3.772      c3.391,5.032,8.153,7.678,13.407,7.449c8.303-0.362,15.702-7.89,17.593-17.898c1.323-7.005-0.441-13.551-5.101-18.93      c-5.742-6.63-15.561-10.648-25.011-10.235c-0.903,0.039-1.807,0.119-2.685,0.239c-13.369,1.811-24.096,12.455-27.823,22.069      c-5.088,11.228-4.75,25.053,0.906,37.006c6.071,12.831,17.088,21.928,31.019,25.615c5.599,1.461,11.283,2.076,16.905,1.831      c15.918-0.695,30.866-8.372,41.011-21.064c11.493-14.378,15.818-33.399,12.179-53.559c-0.59-3.012-1.285-5.971-1.958-8.832      c-4.289-18.238-7.993-33.988,14.395-52.775c6.42-5.354,11.761-8.215,14.951-9.925c2.73-1.463,4.702-2.52,4.449-5.021      C137.259,194.908,135.546,193.417,133.547,193.504L133.547,193.504z"/>
			</g>
		</g>
	</g>
	<g>
		<g>
			<path style="fill:#00D5FE;" d="M440.406,324.24c-2.215-0.487-3.97-1.425-3.966,1.418c0.004,2.653-0.387,5.266-0.569,7.898     c-0.467,6.748-2.465,13-5.922,18.745c-7.979,13.259-22.104,16.111-34.475,11.065c-9.177-3.743-14.071-9.182-20.48-15.539     c-1.663,0.936-2.231,2.745-3.268,4.168c-13.284,18.241-34.747,24.797-53.382,13.406c-15.765-9.637-19.254-23.269-21.059-24.454     c-0.837,0.858-1.682,1.708-2.508,2.576c-20.701,21.775-54.391,9.532-58.464-25.771c-0.279-2.417,0.057-3.278-1.463-2.821     c-17.436,5.238-32.531,3.913-46.482-7.792c-18.18-15.253-19.467-40.058-6.596-57.839c12.644-17.467,33.974-24.134,53.338-18.565     c1.146,0.329,2.242,0.83,2.484-0.233c1.722-7.555,3.244-14.041,8.991-20.549c7.445-8.43,18.428-12.203,31.507-8.3     c1.713,0.511,3.33,1.364,5.154,1.493c1.752-1.94,2.507-19.491,20.914-31.121c16.303-10.301,41.744-8.928,59.474,12.967     c5.497,6.789,7.342,12.895,9.294,18.212c0.756,2.057,0.788,1.594,4.617-1.096c29.916-21.025,62.196-3.057,62.612,28.699     c0.061,4.63-0.315,5.848,1.381,5.5c2.605-0.535,5.271-0.463,7.893-0.68c2.952-0.244,5.999,0.129,8.954,0.572     c50.97,7.64,60.987,67.696,16.022,85.84C468.005,324.622,452.43,326.886,440.406,324.24z"/>
			<g>
				<g>
					<path style="fill:#FC09B2;" d="M290.117,280.441c-5.729-2.554-6.935-7.306-4.355-10.696c7.581-9.962,31.415-5.482,27.157,5.503       C310.849,280.588,299.251,284.514,290.117,280.441z"/>
				</g>
				<g>
					<path style="fill:#FC09B2;" d="M377.519,280.441c5.729-2.554,6.935-7.306,4.355-10.696c-7.581-9.962-31.415-5.482-27.157,5.503       C356.787,280.588,368.385,284.514,377.519,280.441z"/>
				</g>
			</g>
			<path style="opacity:0.25;fill:#322BBF;" d="M440.094,324.166c-1.754-0.393-3.255-1.091-3.606,0.734     c-0.326,1.693,0.55-1.075-0.754,10.051c-1.659,14.15-10.253,28.275-23.579,30.298c-21.893,3.324-34.443-16.129-37.461-17.37     c-2.005,1.897-9.885,18.126-29.68,22.375c-19.048,4.088-36.894-8.374-45.537-25.673c-1.385-2.772-1.45-3.173-2.153-3.656     c-0.678,0.676-1.393,1.319-2.026,2.034c-20.761,23.431-56.234,9.34-59.108-26.6c-0.14-1.756-0.187-1.792-1.97-1.19     c-14.382,4.859-29.141,2.615-37.45-2.393c-0.768-0.463-0.726-1.24,0.058-1.677c2.483-1.381,9.599-2.727,23.898-16.459     c13.288-12.761,18.678-16.245,29.13-18.204c39.14-7.335,42.646,38.216,72.394,46.966c39.108,11.504,48.435-43.811,88.623-38.02     c22.709,3.273,38.601,2.856,52.038-22.894c8.628-16.534,1.435-24.837,5.218-23.859c11.119,2.874,23.737,11.772,30.346,24.985     C515.552,297.763,482.85,333.746,440.094,324.166z"/>
			<g style="opacity:0.75;">
				<path style="fill:#FFFFFF;" d="M341.668,192.041c-9.079-5.742-20.609-5.144-29.652,0.415      c-9.772,5.924-14.641,16.341-14.539,16.191c-1.059,2.016-4.129,0.772-3.501-1.406c11.077-38.503,66.406-35.864,67.976,11.665      c0.071,2.126-2.983,2.548-3.507,0.503C355.64,208.452,351.333,197.93,341.668,192.041z"/>
				<path style="fill:#FFFFFF;" d="M208.562,251.916c-3.133,1.288-5.404,2.946-8.043,5.074c-2.522,2.074-3.691,4.254-4.638,5.375      l-1.168,2.076c-6.162,11.442-4.345,25.04,3.77,33.848c0.135,0.151,1.405,1.571,1.27,1.42l0.106,0.12l0.054,0.06l0.026,0.03      c-0.82-0.515-1.142-0.301-1.18-0.333c0,0.01,0.083-0.009,0.372-0.008c2.1,0,2.908,3.243,0.035,3.797      c-0.151-0.021-0.77,0.208-1.618-0.43c-0.281-0.202-0.959-0.689-0.808-0.58c-3.467-2.509-5.394-4.308-8.16-8.436      c-1.714-3.069-3.242-6.243-3.849-9.709c-3.295-11.963,2.881-29.729,16.087-36.112c7.583-4.487,19.087-5.536,28.493-0.903      c1.896,0.933,0.859,3.824-1.197,3.337C228.113,250.543,218.721,247.776,208.562,251.916z"/>
				<path style="fill:#FFFFFF;" d="M273.516,219.023c-5.96-0.034-11.837,3.121-15.556,7.695c-6.615,7.723-4.042,17.624-4.037,17.473      c0.4,2.092-2.439,3.174-3.526,1.324c-5.185-8.865-3.065-21.471,7.722-29.051c17.662-11.764,33.099,4.677,28.698,7.253      C284.28,225.203,282.225,219.097,273.516,219.023z"/>
			</g>
		</g>
		<g>
			<path style="fill:#000E3F;" d="M333.598,271.929c-3.427,0-6.595-1.275-9.232-3.734c-3.715-3.461-5.929-8.951-5.776-14.329     c0.024-0.883,0.748-1.58,1.627-1.58c0.015,0,0.03,0,0.047,0c0.897,0.026,1.606,0.774,1.58,1.673     c-0.127,4.469,1.69,9.013,4.74,11.855c1.597,1.487,4.303,3.164,8.097,2.805c7.304-0.727,11.186-8.114,11.131-14.694     c-0.008-0.897,0.714-1.632,1.614-1.64c0.004,0,0.009,0,0.013,0c0.892,0,1.619,0.718,1.627,1.614     c0.069,8.02-4.837,17.04-14.064,17.958C334.529,271.904,334.062,271.929,333.598,271.929z"/>
			<path style="fill:#000E3F;" d="M291.122,251.479c-0.539-4.443,4.203-9.22,9.008-9.069c4.886,0.153,9.074,3.76,9.112,9.191     c0.031,4.425-3.862,9.144-9.44,8.972C295.253,260.431,290.762,256.384,291.122,251.479z"/>
			<path style="fill:#000E3F;" d="M368.1,260.541c-0.326-0.004-0.673-0.005-0.999-0.003c-4.771,0.025-8.695-4.423-8.719-8.739     c-0.029-5.292,4.08-9.344,9.082-9.359c4.859-0.014,9.016,4.004,9.132,8.91C376.712,256.227,372.225,260.591,368.1,260.541z"/>
			<path style="fill:#000E3F;" d="M337.882,372.72c-6.9,0-13.854-1.937-20.388-5.93c-12.22-7.47-17.356-17.377-19.825-22.14     c-0.2-0.383-0.41-0.787-0.606-1.154c-0.37,0.381-0.74,0.763-1.107,1.148c-9.682,10.189-22.82,13.813-35.152,9.69     c-14.269-4.77-24.03-18.376-26.109-36.396c-0.052-0.465-0.086-0.875-0.112-1.232c-18.916,5.503-33.948,2.846-47.26-8.321     c-17.852-14.98-20.804-40.792-6.87-60.041c12.745-17.611,34.365-25.143,55.108-19.174l0.453,0.135     c0.052,0.017,0.11,0.035,0.172,0.052c1.625-7.105,3.313-13.841,9.179-20.483c8.424-9.537,20.214-12.658,33.191-8.783     c0.582,0.174,1.152,0.383,1.722,0.593c0.696,0.258,1.367,0.505,2.031,0.666c0.172-0.535,0.383-1.277,0.58-1.963     c1.789-6.276,5.513-19.333,20.401-28.739c16.71-10.556,43.234-9.372,61.608,13.319c5.103,6.303,7.151,11.995,8.957,17.016     l0.507,1.398c0.249-0.174,0.526-0.374,0.799-0.572c0.413-0.297,0.89-0.641,1.447-1.034c14.484-10.178,31.13-12.165,44.524-5.322     c12.727,6.505,20.447,19.712,20.651,35.332c0.011,0.842,0.009,1.571,0.006,2.201c-0.002,0.576-0.004,1.165,0.011,1.612     c1.754-0.296,3.405-0.374,5.006-0.449c0.832-0.039,1.664-0.079,2.491-0.146c3.233-0.271,6.511,0.161,9.331,0.583     c25.152,3.77,43.103,20.606,45.73,42.892c2.377,20.154-8.865,37.806-29.341,46.067c-6.711,2.706-22.592,4.998-34.958,2.281l0,0     c-0.342-0.075-0.677-0.161-0.995-0.243c-0.296-0.075-0.688-0.176-0.985-0.23c-0.006,0.082-0.009,0.181-0.009,0.299     c0.004,1.821-0.17,3.611-0.339,5.344c-0.086,0.888-0.172,1.778-0.235,2.668c-0.479,6.935-2.547,13.486-6.15,19.473     c-7.812,12.981-22.134,17.583-36.486,11.732c-8.648-3.527-13.589-8.469-19.307-14.191l-0.649-0.649     c-0.325,0.404-0.608,0.892-0.916,1.419c-0.297,0.514-0.598,1.026-0.944,1.502C363.638,365.867,350.857,372.72,337.882,372.72z      M297.284,339.32c0.308,0,0.621,0.086,0.894,0.267c0.806,0.529,1.365,1.608,2.38,3.566c2.513,4.845,7.188,13.864,18.634,20.859     c17.287,10.567,37.871,5.352,51.217-12.973c0.282-0.387,0.522-0.804,0.763-1.221c0.692-1.191,1.475-2.539,3.024-3.409     c0.634-0.361,1.429-0.25,1.945,0.262l1.713,1.709c5.47,5.473,10.195,10.201,18.235,13.478     c12.786,5.213,25.526,1.133,32.465-10.397c3.336-5.541,5.251-11.603,5.694-18.018c0.064-0.922,0.153-1.84,0.241-2.76     c0.168-1.73,0.327-3.362,0.325-5.022c-0.002-0.524-0.006-2.12,1.159-3.026c1.159-0.907,2.612-0.533,3.901-0.202     c0.282,0.073,0.578,0.15,0.883,0.217l0,0c11.577,2.547,26.885,0.363,33.039-2.12c19.052-7.689,29.524-24.038,27.327-42.667     c-1.861-15.784-14.234-35.745-42.98-40.053c-2.637-0.396-5.683-0.795-8.581-0.561c-0.864,0.073-1.733,0.114-2.605,0.155     c-1.777,0.082-3.454,0.163-5.094,0.499c-0.357,0.069-1.44,0.297-2.324-0.43c-1.023-0.838-1.017-2.06-1.006-4.497     c0.002-0.613,0.006-1.326-0.006-2.145c-0.189-14.391-7.246-26.53-18.878-32.475c-12.48-6.384-27.491-4.531-41.172,5.084     c-0.544,0.383-1.01,0.72-1.412,1.01c-1.782,1.288-2.681,1.937-3.856,1.571c-1.109-0.339-1.498-1.401-1.812-2.255l-0.608-1.677     c-1.719-4.78-3.667-10.197-8.422-16.07c-17.181-21.216-41.85-22.407-57.341-12.616c-13.837,8.742-17.33,20.992-19.009,26.88     c-0.598,2.094-0.928,3.248-1.565,3.955c-0.335,0.374-0.83,0.583-1.324,0.533c-1.472-0.105-2.745-0.574-3.977-1.028     c-0.507-0.187-1.012-0.376-1.528-0.529c-11.698-3.493-22.287-0.714-29.821,7.818c-5.529,6.262-6.964,12.551-8.622,19.832     c-0.206,0.899-0.726,1.361-1.124,1.591c-1.002,0.578-2.111,0.239-3.001-0.035l-0.396-0.12c-19.387-5.58-39.636,1.47-51.57,17.955     c-13.132,18.144-10.473,41.544,6.324,55.639c12.57,10.54,26.86,12.919,44.97,7.48c0.393-0.118,1.445-0.438,2.358,0.191     c0.924,0.638,1.001,1.679,1.081,2.782c0.024,0.348,0.054,0.754,0.108,1.221c1.93,16.732,10.868,29.324,23.907,33.683     c11.105,3.717,22.97,0.4,31.76-8.847c0.567-0.595,1.141-1.18,1.715-1.765l0.806-0.825     C296.433,339.487,296.858,339.32,297.284,339.32z"/>
		</g>
	</g>
	<g>
		<path style="fill:#FD8A02;" d="M418.192,135l6.868-5.255c0.439-0.335,0.684-0.865,0.656-1.417l-0.435-8.637    c-0.07-1.388,1.482-2.254,2.627-1.465l7.12,4.909c0.454,0.313,1.034,0.383,1.55,0.186l8.08-3.083    c1.299-0.496,2.602,0.713,2.205,2.045l-2.468,8.289c-0.158,0.529-0.044,1.102,0.302,1.531l5.429,6.732    c0.873,1.082,0.126,2.695-1.264,2.729l-8.645,0.214c-0.552,0.014-1.062,0.298-1.363,0.76l-4.725,7.243    c-0.759,1.164-2.524,0.952-2.986-0.359l-2.875-8.156c-0.183-0.521-0.612-0.917-1.144-1.062l-8.349-2.255    C417.432,137.589,417.088,135.845,418.192,135z"/>
		<path style="fill:#FD8A02;" d="M336.782,110.966l7.178,2.436c0.458,0.156,0.964,0.076,1.352-0.214l6.076-4.532    c0.977-0.729,2.365-0.021,2.349,1.197l-0.099,7.579c-0.006,0.484,0.226,0.94,0.621,1.219l6.188,4.378    c0.995,0.704,0.751,2.243-0.413,2.604l-7.239,2.248c-0.462,0.144-0.824,0.505-0.968,0.967l-2.252,7.238    c-0.362,1.163-1.901,1.407-2.604,0.412l-4.375-6.19c-0.279-0.395-0.735-0.628-1.219-0.622l-7.579,0.095    c-1.218,0.015-1.925-1.373-1.197-2.35l4.535-6.074c0.289-0.387,0.37-0.893,0.214-1.351l-2.433-7.179    C334.526,111.676,335.628,110.574,336.782,110.966z"/>
		<path style="fill:#FD8A02;" d="M488.001,197.304l2.954-5.929c0.188-0.378,0.179-0.825-0.026-1.195l-3.21-5.794    c-0.516-0.932,0.26-2.05,1.313-1.893l6.551,0.977c0.418,0.062,0.84-0.085,1.129-0.394l4.519-4.843    c0.727-0.778,2.03-0.386,2.206,0.664l1.095,6.532c0.07,0.417,0.341,0.773,0.724,0.952l6.002,2.801    c0.965,0.45,0.994,1.811,0.05,2.303l-5.874,3.06c-0.375,0.195-0.63,0.563-0.681,0.982l-0.809,6.574    c-0.13,1.057-1.415,1.506-2.175,0.76l-4.726-4.641c-0.302-0.296-0.73-0.425-1.145-0.344l-6.502,1.262    C488.351,199.341,487.527,198.257,488.001,197.304z"/>
		<path style="fill:#FD8A02;" d="M272.322,412.203l7.157-4.855c0.457-0.31,1.037-0.375,1.551-0.174l8.057,3.143    c1.295,0.505,2.607-0.694,2.221-2.029l-2.406-8.307c-0.154-0.53-0.037-1.102,0.313-1.529l5.479-6.691    c0.881-1.076,0.146-2.694-1.244-2.739l-8.643-0.279c-0.552-0.018-1.059-0.306-1.358-0.771l-4.671-7.279    c-0.751-1.17-2.517-0.971-2.989,0.336l-2.936,8.134c-0.187,0.519-0.618,0.913-1.152,1.053l-8.366,2.193    c-1.345,0.352-1.702,2.094-0.604,2.947l6.829,5.306c0.436,0.339,0.677,0.87,0.645,1.421l-0.5,8.634    C269.625,412.106,271.171,412.984,272.322,412.203z"/>
		<path style="fill:#FD8A02;" d="M213.681,369.452l-0.042-7.58c-0.003-0.484,0.233-0.938,0.63-1.215l6.22-4.332    c1-0.696,0.768-2.237-0.393-2.607l-7.222-2.302c-0.461-0.147-0.82-0.511-0.96-0.974l-2.198-7.254    c-0.353-1.166-1.89-1.421-2.601-0.431l-4.421,6.157c-0.282,0.393-0.74,0.622-1.224,0.612l-7.578-0.152    c-1.218-0.025-1.935,1.358-1.214,2.34l4.489,6.108c0.286,0.39,0.363,0.896,0.204,1.353l-2.486,7.16    c-0.4,1.151,0.694,2.261,1.851,1.878l7.196-2.382c0.459-0.152,0.964-0.068,1.35,0.224l6.042,4.577    C212.294,371.368,213.687,370.67,213.681,369.452z"/>
		<path style="fill:#FD8A02;" d="M353.573,410.246l6.558-0.928c0.419-0.059,0.84,0.091,1.126,0.402l4.483,4.877    c0.72,0.784,2.027,0.401,2.211-0.647l1.144-6.524c0.073-0.416,0.346-0.77,0.731-0.946l6.023-2.756    c0.968-0.443,1.008-1.804,0.067-2.303l-5.851-3.104c-0.374-0.198-0.626-0.567-0.674-0.987l-0.76-6.58    c-0.122-1.058-1.404-1.516-2.169-0.776l-4.76,4.606c-0.304,0.294-0.733,0.42-1.147,0.336l-6.493-1.31    c-1.044-0.211-1.876,0.867-1.408,1.824l2.909,5.951c0.186,0.38,0.173,0.827-0.035,1.195l-3.253,5.77    C351.752,409.27,352.519,410.395,353.573,410.246z"/>
	</g>
</g>















</svg>
