<?xml version="1.0" encoding="UTF-8"?>
<!-- Generator: Adobe Illustrator 25.2.1, SVG Export Plug-In . SVG Version: 6.00 Build 0)  -->
<svg xmlns="http://www.w3.org/2000/svg" xmlns:xlink="http://www.w3.org/1999/xlink" version="1.1" id="Capa_1" x="0px" y="0px" viewBox="0 0 512 512" style="enable-background:new 0 0 512 512;" xml:space="preserve" width="512" height="512">
<g>
	<path style="fill:#FFFFFF;" d="M3.161,292.596c-2.464,17.048-8.959,39.878,9.267,50.435c2.093,1.265,52.2,31.143,130.957,47.202   c114.237,33.295,376.771-18.756,368.42-74.647c-4.382-51.823-25.84-106.422-54.157-148.888   c-19.821-29.007-90.401-33.286-126.451-37.874c-14.277-23.049-47.128-22.573-65.856-3.069c-6.333-0.006-12.341,0.103-18.526,0.098   c-15.836-12.524-38.888-11.021-53.897,2.655c-7.581,1.641-13.881-0.236-21.04-2.368c-13.361-2.477-27.335,1.139-39.143,9.838   c-22.678,4.074-42.53,9.381-59.123,15.809C38.441,165.826,9.261,256.313,3.161,292.596z"/>
	<g>
		<g>
			<path style="fill:#8249DD;" d="M485.846,317.835c-5.736-66.225-38.766-120.183-49.819-136.601     c-2.24-3.326-5.416-5.925-9.173-7.327c-44.345-16.55-107.139-21.478-162.248-21.973l-0.001-0.136     c-3.217,0.011-6.496,0.045-9.787,0.086c-3.292,0.001-6.571,0.008-9.787,0.037l0.001,0.136     c-55.098,1.187-117.825,6.903-161.96,24.008c-3.739,1.449-6.883,4.087-9.08,7.442c-10.847,16.555-43.196,70.924-48.1,137.216     c0,0,95.418,57.602,230.321,53.188C391.159,376.631,485.846,317.835,485.846,317.835z"/>
		</g>
		<g>
			<path style="fill:#482393;" d="M431.518,176.513c-1.423-1.072-2.973-1.975-4.663-2.606     c-44.346-16.55-107.139-21.478-162.248-21.973l-0.001-0.136c-3.217,0.011-6.496,0.045-9.787,0.086     c-3.292,0.001-6.571,0.008-9.787,0.037l0.001,0.136c-55.098,1.187-117.825,6.903-161.96,24.008     c-1.682,0.652-3.221,1.575-4.63,2.665c25.519,26.428,95.078,45.088,176.825,44.575     C337.013,222.792,406.332,203.26,431.518,176.513z"/>
		</g>
		<g>
			<g>
				<path style="fill:#7040CC;" d="M465.633,237.284c-63.831,10.994-125.141,41.262-189.373,54.47      c-80.134,16.478-164.008,5.545-240.78-23.655c-4.646,16.208-8.208,33.942-9.59,52.623c0,0,95.418,57.602,230.321,53.188      c134.948,2.719,229.635-56.076,229.635-56.076C483.23,287.627,474.931,259.989,465.633,237.284z"/>
			</g>
		</g>
		<g>
			<g>
				<path style="fill:#DF9437;" d="M367.242,235.679c32.128-8.585,60.032-19.938,82.76-31.268c-0.756-1.387-1.505-2.744-2.234-4.041      c-22.7,10.683-50.351,21.429-82.035,29.572c-32.779,8.579-69.892,14.081-108.996,14.414      c-39.105,0.374-76.309-4.368-109.31-12.046c-16.498-3.89-31.956-8.475-46.234-13.333c-14.24-4.973-27.278-10.245-38.99-15.498      c-0.023-0.01-0.044-0.021-0.067-0.031c-0.703,1.293-1.42,2.635-2.146,4.016c0.102,0.047,0.194,0.097,0.296,0.144      c11.709,5.573,24.794,11.149,39.126,16.401c14.369,5.135,29.966,9.971,46.641,14.071c33.355,8.097,71.077,13.094,110.746,12.713      C296.468,250.457,334.121,244.687,367.242,235.679z"/>
			</g>
			<g>
				<path style="fill:#C16E1B;" d="M482.898,295.824c-8.917,4.091-18.376,8.15-28.416,12.202      c-15.571,5.93-32.33,11.985-50.381,17.005c-35.994,10.326-76.756,17.635-119.91,19.855c-43.167,1.912-84.44-1.471-121.255-8.312      c-18.447-3.273-35.709-7.7-51.774-12.116c-15.976-4.731-30.738-9.59-43.963-14.714c-14.347-5.509-26.945-10.951-37.773-15.975      c-0.223,1.198-0.445,2.396-0.652,3.606c10.54,5.27,22.804,10.918,36.762,16.607c13.232,5.44,28.046,10.598,44.118,15.598      c16.161,4.686,33.561,9.353,52.184,12.825c37.165,7.24,78.945,10.852,122.661,8.913c43.702-2.244,84.947-9.83,121.252-20.587      c18.207-5.235,35.082-11.542,50.722-17.75c9.627-4.04,18.697-8.097,27.269-12.187      C483.477,299.125,483.193,297.471,482.898,295.824z"/>
			</g>
		</g>
		<g>
			<path style="fill:#3C247A;" d="M98.919,193.638c0.229,0.125,0.459,0.249,0.691,0.373c33.614,18.04,91.522,25.737,156.39,25.33     c60.219-0.378,112.859-7.03,146.815-23.33c2.874-1.38,5.799-2.889,8.396-4.346c-37.715-14.19-93.74-23-156.285-22.607     S136.452,178.975,98.919,193.638z"/>
		</g>
		<g>
			<path style="fill:#B77139;" d="M224.85,216.712c21.156,0.35,42.27-0.358,63.388-1.335c5.156-2.494,10.177-5.271,14.914-8.52     c1.981-1.358,4.006-2.886,4.96-5.09c0.869-2.008,0.722-4.314,0.254-6.452c-1.683-7.694-7.562-14.332-14.997-16.932     c-7.434-2.6-16.17-1.073-22.281,3.895c-0.963-6.387-6.099-11.939-12.392-13.396c-6.293-1.457-13.347,1.273-17.018,6.588     c-0.424-6.759-0.899-13.68-3.643-19.871c-2.742-6.192-8.26-11.605-14.999-12.271c-7.579-0.751-14.675,4.72-18.219,11.461     c-3.543,6.741-4.283,14.555-4.959,22.141c-8.981-4.824-20.701-4.006-28.925,2.02l-24.78,23.127     c4.908,3.052,9.994,5.828,15.173,8.415C182.461,212.974,203.376,216.357,224.85,216.712z"/>
		</g>
		<g>
			<path style="fill:#915B33;" d="M393.097,185.702c-6.077-4.306-13.357-6.736-19.465-5.005c-0.173,0.049-0.354,0.068-0.524,0.124     c-5.746,1.874-9.88,6.792-13.692,11.483c-3.166-7.235-10.314-12.574-18.151-13.555c-7.837-0.981-16.081,2.43-20.933,8.662     c-0.177-5.17-0.719-10.324-1.595-15.422c-1.379-8.024-3.603-15.903-6.654-23.451c-1.335-3.304-2.925-6.676-5.73-8.874     c-6.732-5.274-16.907-1.285-22.894,4.822c-6.678,6.811-10.476,15.407-12.612,24.696c-2.348,10.212-2.684,21.264-2.531,31.748     c-10.561-11.297-32.458-7.477-38.571,6.727c-7.665-14.08-27.409-19.959-41.527-12.366c0.036-7.358,0.024-14.858-1.705-21.964     c-0.338-1.389-0.718-2.769-1.202-4.124c-2.96-8.284-9.536-15.841-18.186-17.444c-8.188-1.518-16.548,2.55-22.588,8.283     c-6.523,6.191-10.951,14.467-12.768,23.267c-1.095,5.302-1.244,10.793-0.329,16.133c-1.252-7.305-23.921-10.146-31.789-5.452     c33.603,18.041,90.744,29.722,155.613,29.314c60.146-0.378,113.49-11.072,147.549-27.341     C400.569,192.169,397.102,188.539,393.097,185.702z"/>
		</g>
		<g>
			<g>
				<path style="fill:#E879E9;" d="M292.803,293.999c-2.689-17.933-17.211-36.746-35.992-38.166      c-26.97-2.039-44.149,14.406-44.668,40.706C211.085,350.186,301.41,351.409,292.803,293.999z"/>
			</g>
			<g>
				<path style="fill:#FFF3FF;" d="M209.125,279.089c-0.218-7.365-10.807-16.496-17.229-18.563      c-8.072-2.599-18.117,1.11-21.334,8.956c-3.217,7.845,2.598,18.363,11.073,18.633c-5.801,3.754-10.713,9.429-11.953,16.226      c-1.241,6.797,2.017,14.604,8.421,17.196c5.268,2.132,11.524,0.401,15.931-3.186c4.408-3.587,7.236-8.756,9.375-14.021      c-0.605,1.489,85.461,9.459,89.459,9.171c1.45,8.383,3.796,18,11.488,21.633c8.17,3.859,20.177,2.328,23.571-6.555      c1.809-4.734,2.127-10.522,0.664-15.36c-0.655-2.163-4.981-11.623-8.234-10.904c4.105-0.906,8.289-1.842,11.906-3.984      s6.639-5.731,6.993-9.92c0.285-3.368-1.186-6.702-3.349-9.298c-5.243-6.293-14.841-8.485-22.296-5.091      c-7.455,3.393-12.106,12.07-10.804,20.156c-18.951-4.662-74.249-13.168-93.679-15.001      C209.127,279.147,209.126,279.118,209.125,279.089z"/>
			</g>
		</g>
		<g>
			<g>
				<path style="fill:#874F29;" d="M131.378,198.82c0.031,0.207,0.029,0.416,0.064,0.622c-0.039-0.226-0.121-0.442-0.2-0.659      c-6.767-1.743-13.522-3.683-20.26-5.847c-0.962-0.309-1.836-0.694-2.66-1.118c-3.471,0.244-6.639,0.954-8.714,2.192      c33.603,18.041,90.789,29.702,155.658,29.295c60.146-0.378,113.52-11.027,147.579-27.296c-1.292-2.183-3.052-4.329-5.029-6.274      C309.833,209.497,219.48,221.477,131.378,198.82z"/>
			</g>
		</g>
	</g>
</g>















</svg>
