<?xml version="1.0" encoding="UTF-8"?>
<!-- Generator: Adobe Illustrator 25.2.1, SVG Export Plug-In . SVG Version: 6.00 Build 0)  -->
<svg xmlns="http://www.w3.org/2000/svg" xmlns:xlink="http://www.w3.org/1999/xlink" version="1.1" id="Capa_1" x="0px" y="0px" viewBox="0 0 512 512" style="enable-background:new 0 0 512 512;" xml:space="preserve" width="512" height="512">
<g>
	<path style="fill:#FFFFFF;" d="M508.036,133.602c-4.453-10.907-13.474-18.207-24.87-20.477   c-3.228-17.682-18.553-29.044-36.458-28.257c-0.488-14.904-11.762-30.665-27.726-28.335c-2.507-10.636-22.56-22.36-32.544-21.235   c-4.175-9.546-16.042-14.656-25.817-11.037c-5.005-9.602-18.688-13.678-28.181-7.812c-10.222-13.288-31.269-15.176-42.887-1.998   c-4.37-16.429-28.139-19.591-36.846-5.651c-7.422-5.29-19.155-2.836-23.876,4.749c-11.324-15.251-38.859-12.877-47.385,4.183   c-16.29-9.926-38.461-1.908-42.753,15.822c-14.647-4.94-37.604-3.155-39.889,15.572l0.025-0.205   c-0.041,0.227-0.093,0.524-0.144,0.845C83.166,46.9,67.569,54.495,61.043,68.946c-27.509-2.822-46.221,31.582-32.181,53.867   c8.967,15.071,23.764,24.814,39.352,30.525c-6.232,6.636-10.485,14.882-12.328,23.68c-19.14,4.725-33.513,23.028-32.724,42.54   C4.231,231.137-4.633,256.221,5.218,275.808c-9.254,21.229,1.001,53.655,25.022,58.978c16.374,33.517,36.54,72.395,69.811,89.31   c14.101,19.419,29.641,25.982,49.57,34.288c-21.796,63.456,80.314,75.635,73.862,9.064c28.752-2.587,59.098-11.678,87.131-26.247   c5.644,1.78,12.504,2.611,18.192,1.799c12.411,19.1,40.695,24.746,59.577,11.905c22.373,14.767,54.792,4.519,63.419-21.38   c29.313-5.524,45.493-38.495,29.825-64.679c9.788-17.246,9.635-38.403-1.861-53.974c10.811-17.593,9.962-40.493-4.461-55.478   c6.844-20.179-1.842-44.006-20.869-53.47c0.13-4.119-0.236-8.717-1.368-12.872C485.866,191.14,521.156,168.704,508.036,133.602z"/>
	<g>
		<g>
			<g>
				<g>
					<path style="fill:#FEE121;" d="M186.544,465.022c0.777,0.003,1.432-6.156,1.461-13.758c0.03-7.601-0.576-13.766-1.353-13.768       c-0.777-0.003-1.432,6.156-1.461,13.758S185.767,465.019,186.544,465.022z"/>
				</g>
			</g>
			<g>
				<g>
					<path style="fill:#E29727;" d="M185.226,493.294c26.011,0.102,26.163-38.884,0.153-38.986       C159.369,454.205,159.216,493.192,185.226,493.294L185.226,493.294z"/>
				</g>
			</g>
			<g>
				<g>
					<path style="fill:#FEE121;" d="M185.252,486.919c17.504,0.069,17.607-26.169,0.103-26.237       C167.85,460.613,167.747,486.851,185.252,486.919L185.252,486.919z"/>
				</g>
			</g>
			<g>
				<path style="fill:#D3C0D0;" d="M218.179,127.593c-5.466-8.188-17.258-10.686-26.371-6.962      c-9.113,3.724-15.472,12.557-18.06,22.055c-8.655-8.148-21.888-11.065-33.168-7.312c-11.279,3.753-20.126,14.018-22.173,25.727      c-10.17-5.813-23.813-4.828-33.042,2.386c-9.229,7.214-13.479,20.216-10.294,31.488c-9.599-1.86-20.286,0.889-26.867,8.121      c-6.582,7.231-8.12,19.009-2.566,27.057c-9.913,2.848-19.377,9.117-23.48,18.58c-4.103,9.463-1.234,22.177,7.867,27.031      c-7.709,3.143-9.852,13.214-8.703,21.459c0.791,5.682,2.764,11.455,6.947,15.38c4.183,3.926,10.957,5.453,15.809,2.393      c-0.433,9.899,7.998,18.103,17.006,22.231c22.655,10.381,52.365,1.447,65.537-19.707c8.198-18.852,18.794-36.659,31.454-52.856"/>
			</g>
			<g>
				<path style="fill:#E879E9;" d="M114.379,410.658c4.013,7.873,11.164,13.683,18.642,18.392      c20.695,13.032,45.247,19.306,69.695,19.946c34.111,0.893,69.864-9.453,99.986-25.277c23.391-12.288,41.202-31.64,45.953-58.358      "/>
			</g>
			<g>
				<path style="fill:#EADFF7;" d="M353.169,363.105c20.701-26.932,33.898-59.543,37.939-93.258      c1.773-14.796-0.029-30.88-0.671-45.87c-0.705-16.453-2.866-33.287-9.783-48.399c-9.011-19.687-26.408-34.794-45.617-44.171      c-31.198-15.229-67.884-17.047-101.732-9.328c-18.557,4.232-37.239,11.742-49.643,26.179      c-8.096,9.423-12.951,21.118-19.093,31.917c-10.954,19.259-26.675,36.253-46.52,46.106c-13.091,6.5-27.665,9.789-40.359,17.035      c-28.949,16.523-32.845,53.847-26.249,84.057c7.068,32.371,33.273,68.78,63.88,83.086c18.189,8.502,37.86,13.548,57.789,15.722      c18.103,1.975,33.235-1.821,50.858-2.783C269.359,420.92,324.961,399.803,353.169,363.105z"/>
			</g>
			<g>
				<g>
					<g>
						<path style="fill:#4F223E;" d="M89.86,357.738c1.152-0.244,0.631-7.261-0.567-15.773c-1.214-8.509-2.664-15.395-3.839-15.309        c-1.151,0.081-1.577,7.233-0.341,15.902C86.335,351.228,88.732,357.98,89.86,357.738z"/>
					</g>
				</g>
				<g>
					<g>
						<path style="fill:#4F223E;" d="M114.45,342.472c-0.515-0.383-2.434,1.901-5.579,4.997c-3.107,2.985-8.323,6.367-14.763,7.118        c-6.41,0.822-12.155-1.529-15.682-3.954c-3.592-2.433-5.266-4.785-5.824-4.446c-0.452,0.206,0.34,3.301,3.946,6.766        c1.784,1.702,4.279,3.412,7.392,4.565c3.091,1.167,6.85,1.736,10.669,1.262c7.729-0.905,13.615-5.428,16.492-9.326        C113.952,345.512,114.867,342.777,114.45,342.472z"/>
					</g>
				</g>
			</g>
			<g>
				<g>
					<g>
						<path style="fill:#4F223E;" d="M179.286,241.438c1.554,0.006,2.84-6.419,2.871-14.351c0.031-7.932-1.204-14.366-2.758-14.372        s-2.84,6.419-2.871,14.351C176.497,234.997,177.731,241.432,179.286,241.438z"/>
					</g>
				</g>
				<g>
					<g>
						<path style="fill:#4F223E;" d="M252.854,250.703c1.554,0.006,2.84-6.553,2.872-14.65c0.032-8.097-1.202-14.666-2.757-14.672        c-1.554-0.006-2.84,6.553-2.872,14.65C250.066,244.128,251.3,250.697,252.854,250.703z"/>
					</g>
				</g>
			</g>
			<g>
				<g>
					<path style="fill:#9E6736;" d="M199.468,167.717c0.918,6.9-8.042,13.785-20.015,15.379       c-11.972,1.593-22.421-2.709-23.339-9.609c-0.918-6.9,8.042-13.785,20.014-15.378       C188.1,156.515,198.55,160.817,199.468,167.717z"/>
				</g>
				<g>
					<path style="fill:#9E6736;" d="M285.22,193.902c-3.586,5.966-14.884,5.76-25.236-0.462       c-10.352-6.221-15.837-16.101-12.251-22.068c3.586-5.966,14.884-5.76,25.236,0.462       C283.321,178.055,288.806,187.936,285.22,193.902z"/>
				</g>
			</g>
			<g>
				<path style="fill:#4F223E;" d="M128.614,325.011c17.688-8.708,31.023-24.774,20.684-44.337      c-7.878-14.905-25.068-23.47-40.004-29.56c-10.43-4.252-21.796-6.256-33.2-6.827c-16.936,10.461-24.785,28.326-26.823,47.437      c-0.03,0.281,0.727,0.779,0.699,1.06c-0.047,0.486-0.904,0.743-0.944,1.231c-0.539,6.573-0.414,13.276,0.257,19.836      c3.899,4.911,8.258,9.221,13.623,12.547c0.238,0.148,0.898-0.219,1.14-0.076c0.335,0.198,0.256,0.957,0.599,1.147      c3.804,2.111,8.092,3.718,13.085,4.667c7.177,1.365,14.747,1.622,22.262,0.887c0.263-0.026,0.433-0.248,0.695-0.276      c0.237-0.025,0.576,0.136,0.813,0.109C110.995,331.758,120.34,329.085,128.614,325.011z"/>
			</g>
			<g>
				<g>
					<path style="fill:#E29727;" d="M135.785,316.214c-1.946-2.39-4.824-4.96-8.748-6.533c-3.868-1.539-8.765-2.1-13.476-0.465       c-4.72,1.654-8.169,5.181-10.251,8.746c-2.117,3.614-2.959,7.323-3.249,10.366c-0.146,1.799-0.142,3.354-0.069,4.695       c0.503-0.049,1.005-0.109,1.508-0.167c0.105-1.247,0.263-2.664,0.532-4.255c0.516-2.831,1.495-6.151,3.491-9.287       c1.974-3.117,5.03-6.069,8.963-7.441c3.939-1.375,8.183-0.999,11.631,0.232c3.472,1.245,6.195,3.378,8.175,5.425       c0.92,0.98,1.683,1.92,2.336,2.792c0.441-0.305,0.877-0.614,1.306-0.93C137.364,318.406,136.669,317.342,135.785,316.214z"/>
				</g>
				<g>
					<path style="fill:#E29727;" d="M62.907,326.398c0.578,0.359,1.136,0.738,1.739,1.072c0.09-0.344,0.185-0.67,0.269-1.038       c1.267-5.484,1.422-13.786-2.181-21.886c-1.773-4.017-4.358-7.542-7.481-9.914c-1.896-1.475-3.975-2.381-5.982-2.907       c-0.081,0.764-0.181,1.524-0.245,2.291c1.561,0.572,3.139,1.41,4.617,2.649c2.631,2.164,4.889,5.334,6.518,9.024       c3.313,7.444,3.505,15.105,2.793,20.398C62.941,326.196,62.923,326.29,62.907,326.398z"/>
				</g>
			</g>
			<g>
				<path style="fill:#E879E9;" d="M267.032,346.143c-0.081,20.62-16.862,37.27-37.483,37.189      c-20.62-0.081-37.27-16.862-37.189-37.483c0.081-20.62,16.862-37.27,37.482-37.19      C250.463,308.742,267.113,325.523,267.032,346.143z"/>
			</g>
			<g>
				<path style="fill:#8249DD;" d="M146.491,112.908c-3.996-5.247-5.013-12.874-8.388-18.676      c-5.926-10.968-10.936-22.523-16.932-33.501c-1.252-2.753-5.687-7.682-2.237-10.078c18.1-3.151,21.062,8.079,27.59,21.935      c2.09,9.392,13.531,21.906,11.195,30.558C155.953,108.26,151.881,113.033,146.491,112.908z M147.738,109.766      c3.746-0.703,6.062-4.273,7.604-7.851c1.085-6.014-4.815-11.632-6.511-17.3c-6.286-12.013-9.956-35.561-28.018-30.606      C129.998,72.679,139.085,90.832,147.738,109.766z"/>
				<path style="fill:#8249DD;" d="M169.525,85.284c-3.436-14.319-19.728-36.191-10.172-50.246c0.353-0.297,0.892-0.291,0.95-0.668      c1.732-3.14,6.12-1.505,8.995-1.314c9.484,3.61,8.999,17.009,12.911,25.044c2.109,10.493,16.68,35.251,2.765,40.993      C174.351,101.493,171.749,93.763,169.525,85.284z M174.323,43.26c-0.809-7.947-11.279-11.258-14.626-3.312      c-2.84,15.68,8.483,29.828,12.367,44.601c1.765,4.381,2.206,11.587,8.069,11.812c5.691,1.226,9.111-3.636,7.94-8.952      C185.031,72.309,179.434,57.844,174.323,43.26z"/>
				<path style="fill:#8249DD;" d="M216.137,49.329c-2.413-0.286-4.751,0.178-7.002,1.06c-6.793-3.346,6.694-4.07,8.765-4.315      c3.623,8.873,3.29,19.742,5.684,29.309c0.659,5.116,3.248,13.214-3.169,15.453c-20.379,5.303-16.136-30.132-21.492-42.372      c-1.012-6.034-2.859-14.177-1.306-20.209c2.061-7.193,14.538-8.092,17.391-1.069c1.298,2.114,1.296,7.666-2.106,4.266      c0.133-6.038-6.74-7.486-10.936-4.568c-6.507,7.935,4.075,36.296,4.933,47.193c1.171,5.244,1.517,13.032,8.041,14.171      c2.424,0.091,6.559,0.808,6.829-3.022C221.096,72.677,218.677,60.6,216.137,49.329z"/>
				<path style="fill:#8249DD;" d="M268.529,19.132c5.208-1.689,1.35,13.004,1.692,15.951c-1.773,18.32-2.51,35.284-3.601,49.414      c3.009,1.398,6.361-0.714,9.646,0.26c1.824,0.012,5.967,1.426,3.258,3.479c-3.168,0.57-6.264-1.774-9.614-0.685      c-1.694-0.028-7.235,2.133-6.558-1.577C266.155,64.011,267.004,40.458,268.529,19.132z"/>
				<path style="fill:#8249DD;" d="M291.136,73.44c4.061-13.176,1.52-44.392,17.692-48.626c3.075-1.839,6.049,1.79,8.429,3.396      c6.376,7.9-0.799,19.221-1.468,28.135c-3.473,10.128-3.351,38.865-18.273,36.802C287.141,89.873,288.781,81.881,291.136,73.44z       M316.457,39.559c4.376-11.421-10.269-16.777-14.453-5.397c-6.482,14.812-5.431,31.809-9.909,47.34      c-1.256,8.889,11.071,12.699,13.99,3.116C311.068,70.042,313.521,54.731,316.457,39.559z"/>
				<path style="fill:#8249DD;" d="M333.361,96.413c9.154-12.273,15.626-27.832,23.889-40.609      c2.524-2.629,7.35-15.462,11.149-13.098c2.597,1.27-8.988,12.723-9.777,16.12c-4.659,6.947-9.738,17.937-14.282,25.156      c-1.766,2.694-15.938,30.79-15.07,16.038c4.499-21.934,11.354-43.783,11.87-66.281      C350.661,26.061,333.037,91.764,333.361,96.413z"/>
				<path style="fill:#8249DD;" d="M358.627,111.972c3.658,1.461,6.782,3.669,10.574,4.882c2.03,1.307-0.557,4.362-2.414,3.528      c-0.569-0.685-1.289-1.261-2.212-1.463l-0.115,0.032c-0.302-0.144-1.021-0.059-1.123-0.444      c-14.325-7.273-9.726-4.986-3.286-17.42c8.962-13.301,16.543-27.478,24.177-41.49c1.27-1.641,1.503-5.537,4.046-5.349      c4.138,1.685,7.958,4.451,11.683,6.893c1.445,1.296-0.553,3.895-2.002,2.984c-2.527-2.093-6.321-4.907-9.571-5.778      c-3.943,6.996-8.45,14.342-12.299,21.458c2.836,2.074,7.331,1.984,8.828,5.354c-2.865,5.034-5.938-2-10.694-2.1      c-4.605,9.558-11.7,18.839-16.55,28.362L358.627,111.972z"/>
				<path style="fill:#8249DD;" d="M401.405,108.167c-3.889-0.637-19.588,30.113-21.084,21.222      c13.369-17.309,28.189-33.955,39.602-52.61c0.636-1.864,1.935-1.755,3.202-1.032c11.053,11.434-2.146,33.39-17.276,31.142      c-3.939,5.211-3.823,12.022-5.819,18.076c-1.462,4.332-3.319,8.68-3.861,13.267c-0.383,1.6,0.113,2.312-2.163,3.07      c-2.478-4.495,1.8-10.607,2.821-15.309C399.081,120.093,399.947,114.292,401.405,108.167z M421.987,78.725      c-5.761,8.921-11.737,17.006-18.275,25.312c4.001,0.373,9.237,0.721,12.492-2.119C421.755,96.252,428.926,85.866,421.987,78.725      z"/>
			</g>
			<g>
				<path style="fill:#E879E9;" d="M77.011,95.799c-26.548-20.716-38.789,5.278-31.686,17.215      c11.527,19.371,38.303,27.421,58.459,27.778c9.301-17.886,14.999-45.258,3.471-64.63      C100.153,64.225,71.467,62.585,77.011,95.799z"/>
			</g>
			<g>
				<path style="fill:#E879E9;" d="M460.819,134.998c30.962-13.239,36.15,15.021,26.231,24.746      c-16.097,15.78-44.041,16.715-63.619,11.906c-4.419-19.67-2.928-47.589,13.17-63.369      C446.52,98.556,474.671,104.306,460.819,134.998z"/>
			</g>
			<g>
				<path style="fill:#D3C0D0;" d="M459.092,368c7.125-8.728,11.98-18.933,9.997-30.56c-1.505-8.822-7.772-17.048-16.39-19.459      c8.021-7.433,14.867-17.124,15.329-28.05c0.462-10.926-7.575-22.6-18.505-22.956c7.158-8.12,10.938-19.739,7.786-30.095      c-3.152-10.355-14.257-18.288-24.843-16.027c1.829-6.968,3.671-14.199,2.447-21.298c-2.286-13.261-18.892-20.711-30.702-14.171      c-1.321-6.327-7.749-10.621-14.178-11.292c-11.222-1.171-30.714,5.724-29.12,19.875c-8.24-1.179-16.997,3.004-21.257,10.155      c-4.26,7.151-3.77,16.844,1.19,23.529c-19.198,4.686-31.489,26.794-20.831,44.91c-10.583,2.188-19.561,10.808-22.18,21.292      c-2.619,10.485,1.252,22.313,9.563,29.221c-7.93,4.923-16.116,10.092-21.218,17.908c-8.882,13.61-0.3,38.477,17.918,38.681      c-8.705,10.161-8.197,26.955,1.106,36.571c4.472,4.622,10.728,7.298,17.095,7.846c7.558,0.65,11.39-3.086,17.67-6.665      c-0.26,11.486,8.511,22.529,19.758,24.876c11.247,2.347,23.702-4.267,28.058-14.898c5.472,10.711,18.433,17.481,30.093,14.53      c11.66-2.951,19.992-16.302,16.334-27.76c11.451,3.803,26.937-1.582,32.045-13.036c2.318-5.197,2.818-12.373,1.209-17.844      c-0.415-1.41-8.296-15.28-10.332-12.981C457.802,369.545,458.456,368.779,459.092,368z"/>
			</g>
		</g>
		<g>
			<g>
				<path style="fill:#EADFF7;" d="M392.73,244.802c-0.449-0.169-1.197,1.233-3.052,2.558c-1.769,1.33-4.961,2.522-8.003,1.566      c-3.028-0.997-4.926-3.828-5.588-5.94c-0.734-2.158-0.524-3.733-0.987-3.858c-0.337-0.15-1.457,1.403-1.184,4.303      c0.215,2.759,2.262,6.937,6.798,8.479c4.584,1.393,8.684-0.807,10.467-2.922C393.095,246.792,393.092,244.877,392.73,244.802z"/>
			</g>
			<g>
				<path style="fill:#EADFF7;" d="M407.848,284.284c-0.416-0.263-1.39,1.019-3.507,1.401c-2.019,0.413-5.419-0.167-7.484-2.521      c-2.176-2.496-2.873-5.797-3.286-8.167c-0.403-2.402-0.604-3.994-1.055-4.024c-0.408-0.031-1.002,1.499-1.158,4.147      c-0.124,2.559,0.194,6.659,3.141,10.109c3.207,3.542,7.885,3.747,10.533,2.561c1.356-0.608,2.238-1.501,2.601-2.225      C408.014,284.85,408.021,284.382,407.848,284.284z"/>
			</g>
			<g>
				<path style="fill:#EADFF7;" d="M356.414,314.477c-0.356-0.269-1.617,0.871-3.469,2.705c-1.855,1.795-4.375,4.342-7.723,5.553      c-3.189,1.131-6.659,0.09-8.396-1.254c-1.832-1.362-2.153-3.031-2.645-2.969c-0.197,0.015-0.392,0.46-0.348,1.303      c0.023,0.844,0.454,2.077,1.452,3.259c1.969,2.32,6.371,4.195,10.991,2.613c4.36-1.62,6.892-4.893,8.382-7.097      C356.148,316.299,356.748,314.729,356.414,314.477z"/>
			</g>
			<g>
				<path style="fill:#EADFF7;" d="M348.82,268.672c-0.379-0.262-1.235,0.446-2.685,0.985c-1.412,0.56-3.583,0.897-5.517,0.101      c-1.929-0.809-3.222-2.585-3.821-3.981c-0.641-1.408-0.744-2.514-1.197-2.598c-0.376-0.102-1.153,1.032-0.957,3.125      c0.162,2.008,1.592,4.986,4.772,6.348c3.209,1.292,6.329,0.204,7.865-1.099C348.902,270.218,349.157,268.867,348.82,268.672z"/>
			</g>
			<g>
				<path style="fill:#EADFF7;" d="M397.979,194.077c-0.296-0.327-1.443,0.24-3.071,1.263c-1.631,1.005-3.761,2.456-6.24,3.159      c-2.388,0.663-4.798,0.221-6.251-0.495c-1.497-0.699-2.207-1.679-2.639-1.494c-0.364,0.091-0.376,1.687,1.359,3.303      c1.676,1.572,4.957,2.651,8.376,1.705c3.297-0.961,5.497-3.013,6.829-4.487C397.678,195.51,398.264,194.391,397.979,194.077z"/>
			</g>
			<g>
				<path style="fill:#EADFF7;" d="M434.146,327.6c-0.316-0.336-1.139-0.032-2.295,0.155c-1.156,0.205-2.72,0.24-4.401-0.189      c-1.674-0.454-3.018-1.254-3.924-2.001c-0.914-0.732-1.481-1.401-1.922-1.265c-0.379,0.099-0.573,1.148,0.162,2.612      c0.708,1.453,2.501,3.061,4.887,3.686c2.384,0.629,4.737,0.112,6.068-0.804C434.08,328.881,434.428,327.873,434.146,327.6z"/>
			</g>
			<g>
				<path style="fill:#EADFF7;" d="M384.816,344.582c-0.389-0.242-1.198,0.468-2.56,1.11c-1.333,0.656-3.361,1.209-5.371,0.76      c-2.007-0.461-3.599-1.832-4.52-2.999c-0.954-1.166-1.378-2.156-1.833-2.104c-0.394,0.019-0.794,1.264-0.117,3.157      c0.631,1.835,2.589,4.257,5.779,5.003c3.2,0.7,6.011-0.642,7.37-2.027C384.989,346.064,385.164,344.769,384.816,344.582z"/>
			</g>
			<g>
				<path style="fill:#EADFF7;" d="M343.968,378.172c-0.327-0.334-1.477,0.421-3.402,0.924c-1.885,0.524-4.717,0.691-7.237-0.555      c-2.511-1.266-4.08-3.629-4.793-5.451c-0.756-1.84-0.843-3.213-1.307-3.274c-0.376-0.083-1.151,1.333-0.843,3.816      c0.269,2.402,1.94,5.882,5.543,7.714c3.63,1.779,7.415,1.022,9.497-0.206C343.595,379.894,344.26,378.423,343.968,378.172z"/>
			</g>
			<g>
				<path style="fill:#EADFF7;" d="M379.258,391.71c-0.442-0.126-1.02,0.794-2.2,1.725c-1.137,0.939-3.05,1.892-5.055,1.707      c-2.004-0.199-3.702-1.496-4.64-2.634c-0.982-1.137-1.375-2.15-1.833-2.11c-0.39,0.001-0.839,1.282-0.091,3.21      c0.691,1.854,2.867,4.288,6.266,4.654c3.407,0.285,6.005-1.693,7.034-3.382C379.839,393.128,379.64,391.785,379.258,391.71z"/>
			</g>
			<g>
				<path style="fill:#EADFF7;" d="M424.969,371.836c-0.409-0.207-1.132,0.531-2.395,1.176c-1.228,0.661-3.153,1.204-4.976,0.714      c-1.82-0.5-3.206-1.943-3.931-3.134c-0.764-1.195-1.014-2.197-1.471-2.226c-0.388-0.055-1.008,1.084-0.6,3.016      c0.366,1.855,2.04,4.478,5.18,5.369c3.159,0.821,5.93-0.596,7.185-2.01C425.291,373.28,425.331,371.985,424.969,371.836z"/>
			</g>
			<g>
				<path style="fill:#EADFF7;" d="M121.645,182.701c-0.003-0.454-0.918-0.774-2.026-1.511c-1.108-0.709-2.453-1.948-3.097-3.617      c-0.635-1.673-0.461-3.493-0.109-4.761c0.333-1.288,0.8-2.137,0.5-2.477c-0.247-0.312-1.392,0.008-2.476,1.474      c-1.063,1.402-1.886,4.099-0.842,6.884c1.082,2.771,3.495,4.229,5.223,4.564C120.602,183.625,121.669,183.099,121.645,182.701z"/>
			</g>
			<g>
				<path style="fill:#EADFF7;" d="M106.017,221.225c0.234-0.407-0.527-1.214-1.329-2.56c-0.82-1.338-1.61-3.328-1.799-5.67      c-0.163-2.344,0.321-4.429,0.932-5.875c0.592-1.452,1.224-2.362,0.931-2.731c-0.224-0.313-1.476,0.024-2.804,1.544      c-1.328,1.488-2.415,4.24-2.186,7.297c0.23,3.056,1.716,5.616,3.251,6.888C104.554,221.422,105.843,221.568,106.017,221.225z"/>
			</g>
			<g>
				<path style="fill:#EADFF7;" d="M61.977,230.423c0.246-0.388-0.554-1.255-1.374-2.737c-0.83-1.458-1.642-3.663-1.453-6.042      c0.201-2.379,1.361-4.423,2.416-5.725c1.05-1.33,1.981-2.055,1.801-2.477c-0.135-0.372-1.511-0.364-3.287,0.833      c-1.739,1.146-3.761,3.693-4.055,7.115c-0.266,3.424,1.315,6.265,2.844,7.679C60.427,230.536,61.783,230.768,61.977,230.423z"/>
			</g>
			<g>
				<path style="fill:#EADFF7;" d="M51.29,258.108c0.052-0.446-0.631-0.875-1.394-1.606c-0.77-0.711-1.651-1.808-2.006-3.122      c-0.35-1.315-0.136-2.705,0.175-3.707c0.294-1.015,0.671-1.728,0.403-2.088c-0.227-0.334-1.232-0.202-2.284,0.915      c-1.027,1.066-1.958,3.255-1.321,5.691c0.668,2.428,2.569,3.857,3.992,4.266C50.324,258.9,51.26,258.511,51.29,258.108z"/>
			</g>
		</g>
	</g>
</g>















</svg>
