<?xml version="1.0" encoding="UTF-8"?>
<!-- Generator: Adobe Illustrator 25.2.1, SVG Export Plug-In . SVG Version: 6.00 Build 0)  -->
<svg xmlns="http://www.w3.org/2000/svg" xmlns:xlink="http://www.w3.org/1999/xlink" version="1.1" id="Capa_1" x="0px" y="0px" viewBox="0 0 512 512" style="enable-background:new 0 0 512 512;" xml:space="preserve" width="512" height="512">
<g>
	<path style="fill:#FFFFFF;" d="M475.062,147.512c13.265-18.202,6.581-51.55-8.195-66.079c-4.904-4.822-11.193-7.895-18.69-9.137   c-4.28-0.709-9.007-0.819-14.349-0.33c-18.613-7.753-43.026-14.254-70.977-18.884c-32.337-5.357-69.251-8.197-106.749-8.216   c-71.079-0.033-136.956,9.989-177.688,26.913c-8.294-0.806-22.656-0.727-33.041,9.464c-14.787,14.514-21.5,47.851-8.253,66.067   c1.85,2.544,4.036,4.914,6.581,7.118c-5.853,8.016-11.192,16.449-15.96,25.213c-1.135,2.081-2.232,4.182-3.309,6.307   c-3.187,6.317-6.12,12.866-8.716,19.469C7.824,225.481,2.84,246.337,0.905,267.408c-1.315,14.319-1.196,28.663,0.354,42.64   c0.263,2.36,0.569,4.719,0.913,7.082c1.05,7.123,2.487,14.219,4.271,21.078c8.37,32.19,25.311,62.405,48.992,87.377   c14.079,14.851,30.088,27.386,47.584,37.257c0.031,0.018,0.062,0.037,0.093,0.055c2.478,1.392,5.174,2.451,8.039,3.154   c0.808,0.197,1.626,0.363,2.448,0.5c1.839,0.305,3.73,0.458,5.632,0.462l273.365,0.123c5.747,0.002,11.313-1.413,16.104-4.09   c0.04-0.022,0.078-0.045,0.118-0.067c2.501-1.413,5.086-2.955,7.895-4.715c7.183-4.572,14.094-9.456,20.67-14.89   c7.963-6.512,15.519-13.704,22.463-21.38c21.924-24.243,37.708-53.136,45.65-83.556c16.068-61.576,1.864-130.391-37.058-183.784   C471,152.443,473.202,150.067,475.062,147.512z"/>
	<g>
		<g>
			<path style="fill:#ACBEBF;" d="M434.964,139.796l-120.529-24.387c-19.461,0.481-39.046,1.183-58.366,3.446     c-19.318-2.28-38.903-3-58.363-3.499L77.154,139.633C27.191,189.484,4.037,265.91,21.797,334.218     c12.519,48.148,45.777,90.405,89.016,114.809c0.013,0.008,0.027,0.016,0.041,0.023c2.548,1.435,5.46,2.095,8.385,2.097     l125.556,0.057l22.243,0.01l125.557,0.057c2.924,0.002,5.837-0.656,8.387-2.089c0.014-0.008,0.027-0.015,0.041-0.023     c43.261-24.364,76.558-66.59,89.121-114.727C507.966,266.14,484.882,189.693,434.964,139.796z"/>
		</g>
		<g>
			<path style="fill:#ACBEBF;" d="M59.498,138.548l393.123,0.18c7.131-5.951,11.057-12.324,11.06-18.963     c0.015-32.551-92.925-58.981-207.587-59.033C141.433,60.679,48.47,87.024,48.455,119.575     C48.452,126.214,52.372,132.591,59.498,138.548z"/>
		</g>
		<g>
			<path style="fill:#769393;" d="M256.083,87.436c-98.456-0.045-180.853,19.38-202.204,45.477c1.567,1.913,3.421,3.796,5.619,5.634     l393.123,0.18c2.2-1.836,4.056-3.717,5.625-5.629C436.918,106.981,354.539,87.481,256.083,87.436z"/>
		</g>
		<g>
			<g>
				<path style="fill:#C1D1D3;" d="M466.646,229.533c-3.957-17.155-10.475-45.36-30.411-49.963      c-18.483-4.268-39.724,3.616-43.393,23.969c-2.03,11.258,0.835,22.748,3.434,33.888c5.686,24.375,10.202,49.428,7.767,74.339      c-1.236,12.639-4.251,25.365-2.186,37.896c2.065,12.53,11.18,25.185,23.855,25.962c12.021,0.737,22.024-9.113,28.496-19.27      C477.656,319.554,476.454,272.052,466.646,229.533z"/>
			</g>
		</g>
		<g>
			<g>
				<path style="fill:#95AFAF;" d="M421.807,408.682c-51.459-3.703-103.467-0.452-154.456-8.314      c-50.989-7.863-102.792-28.85-133.319-70.441c-23.358-31.825-31.79-72.209-34.819-111.57      c-2.109-27.418-1.904-55.026-3.533-82.455l-18.526,3.731C27.191,189.484,4.037,265.91,21.797,334.218      c12.519,48.148,45.777,90.405,89.016,114.809c0.013,0.008,0.027,0.016,0.041,0.023c2.548,1.435,5.46,2.095,8.384,2.097      l125.557,0.057l22.243,0.01l125.557,0.057c2.924,0.002,5.837-0.656,8.386-2.089c0.014-0.008,0.027-0.015,0.041-0.023      c17.588-9.905,33.486-22.801,47.057-37.807C439.32,410.195,430.539,409.31,421.807,408.682z"/>
			</g>
		</g>
		<g>
			<path style="fill:#57A2D1;" d="M432.854,214.254c-24.096,4.561-44.288-1.972-67.393-8.296c-26.145-7.156-50.368-4.411-76.3,2.431     c-47.231,12.46-95.424,26.146-144.802,19.026c-15.992-2.306-30.959-9.227-46.232-14.172c-6.822-2.209-14.531-4.849-22.277-6.197     c-18.673,36.318-24.86,79.057-14.594,118.541c2.547,9.795,6.126,19.298,10.606,28.361L258.5,402.121l184.079-53.294     c3.338-7.444,6.073-15.157,8.136-23.061c9.775-37.454,4.746-77.855-11.715-112.929     C436.962,213.373,434.917,213.863,432.854,214.254z"/>
			<path style="fill:#6FC0DD;" d="M438.999,212.836c-4.826-2.305-32.881-3.817-46.818,0.076c0.203,8.208,2.214,16.453,4.094,24.515     c5.686,24.375,10.202,49.428,7.767,74.339c-1.236,12.639-4.251,25.365-2.186,37.896c0.258,1.566,0.626,3.134,1.098,4.681     c0.022,0.073,0.045,0.146,0.067,0.219l17.642,6.811l21.91-12.548c3.34-7.443,6.077-15.155,8.14-23.059     C460.489,288.311,455.46,247.911,438.999,212.836z"/>
		</g>
		<g>
			<g>
				<path style="fill:#4787A5;" d="M144.359,227.414c49.378,7.119,97.57-6.566,144.802-19.026c25.933-6.842,50.156-9.586,76.3-2.431      c23.105,6.324,43.298,12.857,67.393,8.296c2.008-0.38,3.999-0.86,5.982-1.38c-0.188-0.678-0.462-1.329-0.848-1.933      c-1.946-3.04-5.925-4.022-9.531-4.179c-12.227-0.53-23.14-0.593-35.144-3.918c-12.553-3.477-24.745-8.27-37.559-10.775      c-45.465-8.888-91.535,11.858-137.857,11.283c-24.425-0.303-48.364-6.537-72.66-9.059c-13.379-1.389-57.647-3.575-68.808,12.876      c7.55,1.376,15.047,3.921,21.699,6.074C113.4,218.187,128.368,225.109,144.359,227.414z"/>
			</g>
		</g>
		<g>
			<path style="fill:#DE802A;" d="M442.574,348.774c-1.892,0.252-3.773,0.522-5.637,0.795c-26.511,3.895-53.022,7.789-79.533,11.684     c-17.128,2.516-34.749,5.016-51.597,1.037c-16.059-3.792-30.743-13.342-47.216-14.278c-27.16-1.542-50.208,20.353-77.074,24.623     c-36.803,5.849-74.172-21.955-109.652-18.721c13.832,27.994,36.247,51.81,63.414,67.143c0.011,0.006,0.023,0.013,0.034,0.019     c2.119,1.193,4.541,1.742,6.972,1.743l227.312,0.104c2.432,0.001,4.854-0.546,6.974-1.737c0.012-0.006,0.023-0.013,0.034-0.019     C405.49,404.901,429.009,379.048,442.574,348.774z"/>
		</g>
		<g>
			<path style="fill:#3E7B93;" d="M97.926,195.844c-9.422,2.014-18.119,5.373-22.075,11.203c4.644,13.9,14.054,15.537,21.731,7.87     c0.189-0.188,1.306-1.422,1.306-1.422C98.491,207.617,98.173,201.733,97.926,195.844z"/>
			<path style="fill:#3795C4;" d="M258.5,402.121l7.059-2.044c-50.408-8.075-101.358-29.046-131.526-70.15     c-23.358-31.825-31.79-72.209-34.819-111.57c-0.125-1.619-0.217-3.241-0.326-4.862c-0.253-0.083-0.506-0.17-0.76-0.252     c-6.822-2.208-14.531-4.849-22.277-6.196c-18.673,36.318-24.86,79.057-14.594,118.541c2.547,9.795,6.126,19.298,10.606,28.361     L258.5,402.121z"/>
			<g>
				<path style="fill:#95D8DB;" d="M95.879,294.176c-0.002,5.696-4.622,10.312-10.319,10.31c-5.696-0.003-10.312-4.623-10.31-10.319      c0.003-5.696,4.622-10.312,10.319-10.31C91.266,283.859,95.882,288.479,95.879,294.176z"/>
			</g>
			<g>
				<path style="fill:#9FE6ED;" d="M416.432,316.209c-0.002,5.696-4.622,10.312-10.319,10.31      c-5.697-0.002-10.312-4.622-10.31-10.319c0.002-5.696,4.622-10.312,10.319-10.31      C411.819,305.893,416.435,310.513,416.432,316.209z"/>
			</g>
			<g>
				<path style="fill:#9FE6ED;" d="M140.367,267.652c-0.002,4.486-3.64,8.121-8.127,8.119c-4.486-0.002-8.121-3.64-8.119-8.126      c0.002-4.486,3.64-8.121,8.127-8.119C136.734,259.527,140.369,263.166,140.367,267.652z"/>
			</g>
			<g>
				<path style="fill:#B0F1F4;" d="M432.702,264.352c-0.002,4.486-3.64,8.121-8.126,8.119c-4.486-0.002-8.121-3.64-8.119-8.127      c0.002-4.486,3.64-8.121,8.126-8.119C429.069,256.228,432.704,259.866,432.702,264.352z"/>
			</g>
			<g>
				<path style="fill:#9FE6ED;" d="M146.918,324.209c-0.002,4.486-3.64,8.121-8.126,8.119c-4.486-0.002-8.121-3.64-8.119-8.126      c0.002-4.486,3.64-8.121,8.126-8.119C143.285,316.085,146.92,319.723,146.918,324.209z"/>
			</g>
			<g>
				<path style="fill:#9FE6ED;" d="M110.15,242.339c-0.002,3.912-3.174,7.081-7.086,7.08c-3.912-0.002-7.081-3.174-7.08-7.086      c0.002-3.912,3.174-7.081,7.086-7.08C106.983,235.255,110.152,238.427,110.15,242.339z"/>
			</g>
			<path style="fill:#C9722B;" d="M267.351,400.368c-29.292-4.517-58.844-13.377-84.485-27.974c-0.45,0.082-0.898,0.171-1.349,0.243     c-36.803,5.849-74.172-21.955-109.652-18.721c13.832,27.994,36.247,51.81,63.414,67.143c0.011,0.007,0.023,0.013,0.034,0.019     c2.119,1.193,4.541,1.742,6.973,1.743l227.312,0.104c2.432,0.001,4.854-0.546,6.974-1.737c0.012-0.006,0.023-0.013,0.034-0.019     c7.168-4.037,14.004-8.665,20.44-13.803C353.715,405.737,310.173,406.971,267.351,400.368z"/>
			<path style="fill:#95D8DB;" d="M100.914,235.589c-2.857,0.911-4.928,3.585-4.929,6.744c-0.002,3.855,3.078,6.986,6.912,7.078     C102.133,244.818,101.477,240.206,100.914,235.589z"/>
			<path style="fill:#95D8DB;" d="M135.225,331.493c-0.396-0.524-0.804-1.036-1.193-1.567c-1.135-1.546-2.224-3.118-3.289-4.704     C131.089,327.987,132.822,330.313,135.225,331.493z"/>
			<g>
				
					<ellipse transform="matrix(0.7071 -0.7071 0.7071 0.7071 -90.2177 350.7204)" style="fill:#9FE6ED;" cx="378.248" cy="284.263" rx="7.083" ry="7.083"/>
			</g>
			<g>
				
					<ellipse transform="matrix(0.3931 -0.9195 0.9195 0.3931 20.7953 511.6301)" style="fill:#9FE6ED;" cx="397.984" cy="240.062" rx="7.083" ry="7.083"/>
			</g>
			<path style="fill:#62A7BC;" d="M428.457,206.762c-12.227-0.53-23.14-0.593-35.144-3.918c-0.103-0.028-0.204-0.06-0.307-0.089     c-0.054,0.262-0.117,0.518-0.165,0.784c-0.561,3.11-0.738,6.239-0.66,9.372c13.134,2.816,26.2,4.082,40.673,1.342     c2.008-0.38,3.999-0.86,5.982-1.38c-0.188-0.678-0.462-1.33-0.848-1.933C436.042,207.901,432.063,206.918,428.457,206.762z"/>
			<path style="fill:#B0F1F4;" d="M398.209,232.983c-1.008-0.032-1.971,0.151-2.852,0.503c0.304,1.318,0.613,2.632,0.918,3.941     c0.752,3.222,1.48,6.457,2.178,9.701c3.595-0.235,6.493-3.165,6.61-6.841C405.188,236.377,402.119,233.107,398.209,232.983z"/>
			<path style="fill:#B0F1F4;" d="M416.432,316.209c0.003-5.696-4.613-10.316-10.31-10.319c-0.564,0-1.114,0.057-1.653,0.144     c-0.108,1.911-0.24,3.822-0.427,5.732c-0.456,4.663-1.154,9.339-1.75,14.012c1.183,0.473,2.469,0.741,3.821,0.741     C411.81,326.522,416.43,321.906,416.432,316.209z"/>
			<path style="fill:#E0965A;" d="M403.022,354.551c3.345,10.743,11.671,20.396,22.69,21.072c0.47,0.029,0.937,0.036,1.401,0.033     c6.029-8.427,11.229-17.439,15.461-26.883c-1.892,0.252-3.773,0.522-5.637,0.795C425.632,351.23,414.327,352.891,403.022,354.551     z"/>
		</g>
		<g>
			<g>
				<path style="fill:#8541A0;" d="M363.385,307.831c-8.293-4.604-17.596-7.317-27.05-8.061c5.061-2.43,9.846-5.347,14.073-9.047      c9.012-7.89,15.198-19.864,13.471-31.717c-1.114-7.65-6.176-15.207-13.693-17.012c-9.196-2.208-18.164,4.601-23.822,12.179      c-10.084,13.505-14.695,30.96-12.663,47.688c-0.087,0.024-0.176,0.042-0.262,0.066l-2.941,5.045      c4.941,10.912,10.865,21.714,19.893,29.587c9.028,7.873,21.723,12.397,33.237,9.095c7.431-2.13,14.241-8.16,15.021-15.851      C379.604,320.395,371.654,312.422,363.385,307.831z"/>
			</g>
			<g>
				<g>
					<path style="fill:#9E51CE;" d="M313.702,301.862c-0.018-0.148-0.015-0.299-0.032-0.447c-4.092-0.088-6.658-0.375-6.7-0.043       c-0.093,0.224,2.188,0.972,5.945,1.457l0.525-0.901C313.526,301.903,313.614,301.886,313.702,301.862z"/>
				</g>
				<g>
					<path style="fill:#9E51CE;" d="M329.931,302.348c3.253-0.566,6.241-1.393,8.888-2.317c-0.827-0.095-1.653-0.195-2.483-0.26       c1.647-0.791,3.251-1.657,4.83-2.561c-3.289,1.14-7.228,2.288-11.609,3.045c-6.158,1.137-11.788,1.249-15.887,1.161       c0.017,0.149,0.014,0.299,0.032,0.447c-0.087,0.024-0.176,0.042-0.262,0.066l-0.525,0.901       C317.12,303.372,323.181,303.585,329.931,302.348z"/>
				</g>
				<g>
					<path style="fill:#9E51CE;" d="M309.698,299.354c0.041,0.141,1.182-0.079,3.222-0.602c0.166-0.04,0.371-0.102,0.547-0.148       c-0.022-0.311-0.05-0.62-0.067-0.932C311.028,298.63,309.639,299.158,309.698,299.354z"/>
				</g>
				<g>
					<path style="fill:#9E51CE;" d="M333.195,289.924c4.259-2.609,8.759-5.789,13.124-9.566c4.328-3.82,8.083-7.854,11.239-11.724       c2.532-3.205,4.663-6.266,6.378-9.078c-0.023-0.183-0.031-0.366-0.057-0.549c-0.084-0.578-0.234-1.15-0.363-1.725       c-1.957,3.047-4.474,6.476-7.473,10.108c-3.176,3.725-6.889,7.628-11.124,11.366c-4.271,3.696-8.637,6.853-12.754,9.5       c-4.157,2.582-8.042,4.694-11.414,6.242c-2.977,1.39-5.467,2.415-7.351,3.175c0.017,0.311,0.045,0.621,0.067,0.932       c2.008-0.522,4.681-1.427,7.891-2.73C324.863,294.478,328.896,292.467,333.195,289.924z"/>
				</g>
				<g>
					<path style="fill:#9E51CE;" d="M313.27,294.692c-3.86,3.346-6.362,5.158-6.193,5.405c0.081,0.122,1.101-0.431,2.885-1.543       c0.94-0.566,2.069-1.336,3.338-2.274C313.282,295.75,313.276,295.222,313.27,294.692z"/>
				</g>
				<g>
					<path style="fill:#9E51CE;" d="M326.607,284.055c3.272-3.76,6.604-8.137,9.631-13.04c2.98-4.932,5.352-9.895,7.204-14.523       c1.782-4.658,3.085-8.963,3.873-12.645c0.171-0.772,0.318-1.497,0.458-2.208c-0.474-0.036-0.946-0.056-1.417-0.048       c-0.159,0.615-0.318,1.229-0.5,1.889c-0.96,3.577-2.388,7.753-4.232,12.278c-1.915,4.496-4.287,9.322-7.202,14.149       c-2.963,4.797-6.174,9.112-9.299,12.867c-3.183,3.706-6.247,6.883-8.991,9.371c-1.026,0.942-1.969,1.773-2.863,2.548       c0.005,0.53,0.012,1.058,0.03,1.588c1.162-0.859,2.441-1.858,3.826-3.006C320.042,290.892,323.277,287.767,326.607,284.055z"/>
				</g>
				<g>
					<path style="fill:#9E51CE;" d="M343.871,334.285c-4.757-3.362-8.956-7.005-12.553-10.546c-3.532-3.604-6.5-7.069-8.752-10.163       c-4.552-6.157-6.729-10.428-7.069-10.252c-0.132,0.066,0.312,1.179,1.235,3.149c0.447,0.993,1.037,2.186,1.841,3.507       c0.788,1.328,1.621,2.888,2.765,4.466c2.135,3.262,5.043,6.903,8.578,10.665c3.599,3.698,7.864,7.478,12.737,10.92       c4.91,3.389,9.928,6.091,14.639,8.196c1.603,0.683,3.15,1.279,4.666,1.836c0.558-0.123,1.117-0.248,1.67-0.406       c0.41-0.117,0.807-0.29,1.212-0.431c-2.141-0.799-4.399-1.728-6.745-2.786C353.533,340.281,348.666,337.594,343.871,334.285z"/>
				</g>
				<g>
					<path style="fill:#9E51CE;" d="M369.039,332.278c-4.383-1.418-9.113-3.246-13.881-5.597c-4.743-2.4-9.046-5.083-12.812-7.736       c-3.722-2.713-6.934-5.36-9.469-7.763c-5.103-4.774-7.84-8.18-8.128-7.953c-0.116,0.09,0.466,1.017,1.626,2.629       c1.135,1.63,2.989,3.834,5.449,6.398c2.444,2.584,5.62,5.408,9.362,8.269c3.785,2.801,8.163,5.603,13.02,8.059       c4.882,2.408,9.752,4.226,14.264,5.57c2.86,0.803,5.547,1.414,8.047,1.872c0.298-0.508,0.566-1.025,0.808-1.559       C374.768,333.903,371.995,333.181,369.039,332.278z"/>
				</g>
				<g>
					<path style="fill:#9E51CE;" d="M330.751,302.455c-0.095,0.253,2.767,1.653,7.626,3.334c4.854,1.684,11.737,3.557,19.501,4.773       c4.032,0.625,7.883,1.005,11.382,1.212c-1-0.806-2.041-1.558-3.105-2.259c-2.526-0.274-5.192-0.616-7.949-1.054       C342.882,306.122,330.97,301.837,330.751,302.455z"/>
				</g>
			</g>
			<g>
				<g>
					<path style="fill:#8541A0;" d="M233.414,248.561c3.346-10.174,12.269-18.316,22.706-20.718       c10.437-2.402,22.021,1.02,29.478,8.708c7.457,7.688,10.523,19.372,7.804,29.731"/>
				</g>
				<g>
					<g>
						<path style="fill:#9E51CE;" d="M259.73,232.848c-6.74,6.879-12.623,13.319-16.749,18.094c-4.128,4.775-6.52,7.868-6.306,8.059        c0.224,0.2,3.01-2.536,7.412-7.041c7.365-7.563,12.396-12.73,17.162-17.623c2.128-2.157,4.322-4.381,6.738-6.829        c-0.879-0.143-1.768-0.201-2.656-0.271C263.514,229.027,261.643,230.898,259.73,232.848z"/>
					</g>
					<g>
						<path style="fill:#9E51CE;" d="M275.098,235.751c-7.081,6.351-13.236,12.379-17.547,16.88        c-4.312,4.501-6.806,7.448-6.602,7.648c0.216,0.212,3.086-2.36,7.655-6.573c4.568-4.215,10.861-10.044,17.914-16.37        c1.655-1.483,3.275-2.924,4.851-4.319c-0.588-0.415-1.165-0.844-1.78-1.218C278.118,233.073,276.621,234.387,275.098,235.751z        "/>
					</g>
					<g>
						<path style="fill:#9E51CE;" d="M291.195,245.047c-7.903,6.223-15.149,11.74-20.393,15.745        c-5.243,4.006-8.462,6.53-8.289,6.778c0.162,0.234,3.686-1.854,9.168-5.558c5.405-3.65,12.695-8.904,20.501-15.038        c-0.263-0.683-0.585-1.338-0.895-2.001C291.257,244.998,291.227,245.022,291.195,245.047z"/>
					</g>
				</g>
			</g>
			<g>
				<g>
					<path style="fill:#FFC043;" d="M318.939,292.222c-10.972-31.152-45.848-49.268-77.629-48.415       c-6.503,0.175-13.07,0.971-19.484,2.433c-14.001,3.192-15.309,20.142-17.627,31.702c0,0,3.11,84.602,22.354,86.456       c9.822,0.946,19.564,0.471,27.972-1.34C285.067,356.481,332.187,329.833,318.939,292.222z"/>
				</g>
			</g>
			<g>
				<path style="fill:#8541A0;" d="M243.081,306.519c-0.461-21.663-8.156-43.037-21.248-60.277      c-14.003,3.192-27.279,9.554-37.563,19.545c-8.374,8.135-13.914,19.063-16.232,30.624l21.15,0.01l-21.036,24.616      c1.548,7.121,4.437,13.91,8.869,19.819c10.702,14.269,30.293,21.689,49.534,23.544      C237.529,347.256,243.514,326.886,243.081,306.519z"/>
			</g>
			<g>
				<path style="fill:#8541A0;" d="M289.318,330.029c5.803-1.108,11.136-5.599,12.107-11.427c1.065-6.392-3.039-12.508-7.708-17.003      c-7.795-7.504-15.768-11.031-26.163-13.464c-3.898-0.913-19.745-4.921-18.411,3.575      C251.944,309.526,268.151,334.068,289.318,330.029z"/>
			</g>
			<g>
				<g>
					<path style="fill:#FFC043;" d="M204.196,296.53c0.904,0.001,1.638-3.331,1.64-7.441c0.002-4.109-0.729-7.441-1.633-7.442       c-0.904-0.001-1.638,3.331-1.64,7.44C202.561,293.198,203.292,296.53,204.196,296.53z"/>
				</g>
			</g>
			<g>
				<g>
					<g>
						<path style="fill:#CC8C13;" d="M254.073,270.49c0.114,0.236,1.256,0.028,2.578-1.212c1.298-1.192,2.659-3.589,2.427-6.477        c-0.26-2.886-2.006-5.018-3.487-5.973c-1.513-0.999-2.673-1.01-2.746-0.759c-0.111,0.298,0.765,0.812,1.779,1.911        c1.013,1.071,2.146,2.861,2.335,5.002c0.176,2.142-0.638,4.098-1.455,5.325C254.69,269.56,253.913,270.215,254.073,270.49z"/>
					</g>
				</g>
				<g>
					<g>
						<path style="fill:#CC8C13;" d="M277.888,288.35c0.146,0.215,1.307-0.198,2.51-1.707c1.186-1.458,2.268-4.173,1.648-7.184        c-0.646-3.006-2.73-5.055-4.403-5.911c-1.709-0.897-2.938-0.807-2.985-0.552c-0.082,0.309,0.918,0.747,2.146,1.8        c1.224,1.024,2.671,2.808,3.16,5.1c0.476,2.295-0.13,4.511-0.837,5.941C278.427,287.297,277.688,288.1,277.888,288.35z"/>
					</g>
				</g>
				<g>
					<g>
						<path style="fill:#CC8C13;" d="M273.364,258.549c-0.084,0.308,0.872,0.746,2.032,1.778c1.156,1.003,2.512,2.739,2.929,4.94        c0.404,2.203-0.233,4.311-0.95,5.664c-0.71,1.381-1.443,2.134-1.254,2.391c0.138,0.221,1.281-0.127,2.497-1.544        c1.198-1.367,2.331-3.967,1.798-6.9c-0.561-2.929-2.556-4.945-4.166-5.787C274.604,258.205,273.412,258.293,273.364,258.549z"/>
					</g>
				</g>
				<g>
					<g>
						<path style="fill:#CC8C13;" d="M251.71,338.174c0.032,0.25,1.371,0.368,3.155-0.704c1.732-1.01,3.82-3.472,3.899-6.826        c0.017-3.355-2-5.876-3.702-6.935c-1.752-1.122-3.094-1.043-3.133-0.794c-0.089,0.313,0.985,0.764,2.197,1.971        c1.206,1.161,2.534,3.272,2.511,5.727c-0.048,2.455-1.435,4.527-2.674,5.653C252.717,337.439,251.63,337.859,251.71,338.174z"/>
					</g>
				</g>
				<g>
					<g>
						<path style="fill:#CC8C13;" d="M252.105,351.872c0.12,0.243,1.208,0.1,2.759-0.809c1.474-0.863,3.665-2.933,3.636-6.132        c-0.184-3.274-2.618-5.056-4.059-5.855c-1.552-0.825-2.583-1.047-2.729-0.81c-0.162,0.262,0.655,0.981,1.862,2.04        c1.163,1.03,2.739,2.67,2.799,4.685c0.047,2.067-1.313,3.826-2.422,4.877C252.816,350.953,251.961,351.596,252.105,351.872z"/>
					</g>
				</g>
				<g>
					<g>
						<path style="fill:#CC8C13;" d="M274.746,344.156c0.12,0.237,1.043,0.12,2.061-0.889c0.993-0.961,1.966-2.959,1.469-5.24        c-0.532-2.273-2.27-3.658-3.58-4.098c-1.353-0.473-2.237-0.182-2.243,0.084c-0.029,0.311,0.69,0.584,1.547,1.25        c0.855,0.641,1.868,1.78,2.202,3.234c0.324,1.456-0.101,2.92-0.597,3.866C275.118,343.332,274.585,343.889,274.746,344.156z"/>
					</g>
				</g>
				<g>
					<g>
						<path style="fill:#CC8C13;" d="M304.5,298.795c0.171,0.2,1.128-0.208,1.979-1.58c0.839-1.32,1.418-3.73,0.414-6.132        c-1.034-2.389-3.172-3.644-4.705-3.955c-1.579-0.339-2.536,0.066-2.511,0.329c0.008,0.315,0.879,0.485,2.008,1.089        c1.122,0.579,2.536,1.709,3.25,3.37c0.702,1.666,0.535,3.469,0.174,4.678C304.76,297.827,304.278,298.572,304.5,298.795z"/>
					</g>
				</g>
			</g>
		</g>
		<g>
			<path style="fill:#BCCACE;" d="M455.743,92.745c-8.854-8.706-25.682-4.408-36.79-2.155     c-53.595,10.868-108.171,16.832-162.844,17.942c-54.673-1.16-109.243-7.173-162.828-18.09     c-11.106-2.263-27.93-6.577-36.792,2.121c-9.402,9.229-14.814,34.039-6.54,45.416c9.279,12.76,33.233,17.853,47.508,20.907     c51.637,11.046,104.617,16.567,157.548,16.333l0,0.013c0.358,0.003,0.715-0.008,1.073-0.006c0.358-0.002,0.716,0.009,1.073,0.007     l0-0.013c52.931,0.283,105.915-5.19,157.563-16.189c14.278-3.041,38.236-8.112,47.527-20.864     C470.526,126.797,465.137,101.983,455.743,92.745z"/>
		</g>
		<g>
			<g>
				<g>
					<path style="fill:#D4DCDD;" d="M440.487,103.431c-1.072-3.303-26.592,2.251-58.109,7.418       c-31.493,5.305-57.438,8.306-57.383,11.778c-0.007,3.273,26.847,5.741,59.386,0.273       C416.94,117.549,441.552,106.527,440.487,103.431z"/>
				</g>
			</g>
			<g>
				<g>
					<path style="fill:#D4DCDD;" d="M317.945,122.699c-0.83-3.301-6.939-4.598-13.816-4.41c-6.875,0.251-12.889,1.935-13.507,5.282       c-0.261,1.655,1.054,3.433,3.572,4.797c2.503,1.364,6.214,2.26,10.325,2.131c4.111-0.133,7.757-1.264,10.168-2.785       C317.113,126.192,318.312,124.334,317.945,122.699z"/>
				</g>
			</g>
		</g>
	</g>
</g>















</svg>
