<?xml version="1.0" encoding="UTF-8"?>
<!-- Generator: Adobe Illustrator 25.2.1, SVG Export Plug-In . SVG Version: 6.00 Build 0)  -->
<svg xmlns="http://www.w3.org/2000/svg" xmlns:xlink="http://www.w3.org/1999/xlink" version="1.1" id="Capa_1" x="0px" y="0px" viewBox="0 0 512 512" style="enable-background:new 0 0 512 512;" xml:space="preserve" width="512" height="512">
<g>
	<g>
		<path style="fill:#FFFFFF;" d="M506.546,329.655c0.006-0.094,0.019-0.185,0.025-0.278l-0.038,0.003    c-0.375-5.884-4.407-10.126-8.411-14.848c-7.998-9.434-44.792-44.055-53.379-48.568l0,0c0.958-0.674,1.729-1.277,2.073-1.62    c9.982-6.372,18.517-14.108,25.301-23.026c7.815-10.27,12.142-20.791,12.86-31.273c1.008-14.697-5.74-28.847-17.196-36.051    c-5.329-3.351-11.672-5.291-18.862-5.81c9.587-2.429,18.085-6.761,24.946-12.818c6.062-5.351,10.048-11.423,11.851-18.046    c2.734-10.054,0.018-20.487-7.1-27.233c-3.573-3.381-8.112-5.725-13.502-6.964c-2.283-0.525-4.593-0.814-6.908-0.866    c-1.146-2.005-2.509-3.935-4.075-5.752c-3.613-4.193-7.814-7.118-12.471-8.691c-6.185-2.097-13.18-1.565-19.354,1.154    c-0.498-18.396-5.196-35.971-13.705-50.608c-9.726-16.733-23.465-26.942-38.684-28.747c-16.538-1.959-33.66,4.115-47.689,16.706    c-0.793-0.042-1.59-0.052-2.388-0.03c-5.961,0.176-11.842,2.093-17.573,5.693c-3.751,2.352-7.039,5.202-9.774,8.396    c-4.323-1.61-8.735-2.497-12.758-2.787c-6.742-0.491-12.925,0.596-18.195,3.205c-7.114,3.525-12.621,9.998-15.49,17.747    c-3.394-14.037-10.927-27.92-20.877-38.387C212.57,6.894,196.746-0.261,180.615,0.007c-15.394,0.252-30.117,9.144-41.395,24.684    c-12.59,17.345-19.61,39.981-19.768,63.739c-0.026,3.919,0.085,7.714,0.317,11.417c-2.606-0.521-5.358-0.709-8.251-0.515    c-2.366,0.158-4.678,0.555-6.877,1.153c-1.676-1.586-3.533-3.039-5.556-4.327c-4.663-2.965-9.52-4.555-14.451-4.724    c-1.085-0.037-2.187-0.002-3.275,0.104C72.746,92.382,64.861,97.6,60.266,105.5c-3.449,5.93-4.973,13.032-4.529,21.108    c0.895,16.218,9.176,32.171,23.318,44.923c3.245,2.927,7.549,4.318,11.833,3.899c0.694-0.068,1.388-0.183,2.075-0.346    c2.244-0.535,4.433-1.155,6.566-1.852c-4.643,3.277-8.66,7.155-11.837,11.49c-6.355-2.886-13.094-4.407-19.123-4.846    c-8.094-0.588-15.446,0.694-21.663,3.768c-12.125,6.005-20.272,19.4-20.756,34.122c-0.348,10.499,2.89,21.407,9.626,32.416    c9.862,16.122,25.089,29.428,44.044,38.783c-1.94,0.008-3.911,0.084-5.932,0.282c-4.121,0.403-8.361,1.192-12.597,2.349    c-13.713,3.736-26.42,12.148-36.352,23.666c-5.699,5.949-10.627,12.862-14.481,20.502c-5.748,11.391-6.642,26.172-2.334,38.576    c3.558,10.242,9.01,15.138,18.025,24.374c0.003,0.003,0.006,0.005,0.009,0.008c16.684,23.309,47.809,56.492,94.653,78.664    c77.164,36.523,187.817,59.118,303.471-10.936c8.044-4.872,15.407-10.794,21.974-17.527c18.665-19.136,54.2-61.754,59.791-113.604    c0.101-0.47,0.235-0.926,0.303-1.407C506.584,332.476,506.615,331.057,506.546,329.655z"/>
	</g>
	<g>
		<g>
			<g>
				<path style="fill:#EA3D89;" d="M143.759,192.844c-4.2-7.322-12.077-12.905-20.515-12.668c-4.679,0.131-9.17,1.984-13.134,4.471      c-8.973,5.63-15.93,15.436-15.647,26.025l-0.618-0.365l0.618,0.365c-4.713-9.487-16.447-14.64-27.012-15.408      c-4.668-0.339-9.503,0.129-13.698,2.206c-7.565,3.747-11.907,12.37-12.185,20.807c-0.278,8.437,2.963,16.651,7.368,23.853      c13.594,22.224,37.989,36.054,63.345,42.257c19.491-17.364,34.558-41.016,36.15-67.019      C148.947,208.942,147.96,200.167,143.759,192.844z"/>
			</g>
			<g>
				<path style="fill:#8F44B9;" d="M370.493,173.344c4.919-6.86,13.322-11.616,21.692-10.527c4.641,0.604,8.921,2.902,12.614,5.778      c8.357,6.509,14.285,16.969,12.932,27.475l0.652-0.3l-0.652,0.3c5.649-8.96,17.845-12.9,28.434-12.594      c4.678,0.135,9.441,1.09,13.404,3.581c7.146,4.493,10.594,13.512,10.016,21.933c-0.577,8.422-4.633,16.266-9.744,22.984      c-15.773,20.734-41.444,32.023-67.297,35.628c-17.633-19.248-30.229-44.303-29.18-70.334      C363.703,188.834,365.573,180.204,370.493,173.344z"/>
			</g>
			<g>
				<path style="fill:#8F44B9;" d="M335.585,51.169c-3.136-5.467-9.017-9.634-15.317-9.458c-3.493,0.098-6.846,1.481-9.806,3.338      c-6.699,4.203-11.893,11.524-11.682,19.43l-0.461-0.272l0.461,0.272c-3.519-7.082-12.28-10.93-20.167-11.503      c-3.485-0.253-7.095,0.096-10.226,1.647c-5.648,2.797-8.89,9.235-9.097,15.534c-0.207,6.299,2.212,12.432,5.501,17.808      c10.149,16.592,28.362,26.918,47.293,31.549c14.552-12.964,25.801-30.622,26.989-50.036      C339.457,63.188,338.72,56.636,335.585,51.169z"/>
			</g>
			<g>
				<path style="fill:#8F44B9;" d="M125.68,126.552c-0.116-4.307-2.305-8.721-6.155-10.657c-2.134-1.073-4.601-1.327-6.984-1.168      c-5.394,0.359-10.893,3.083-13.328,7.91l-0.189-0.314l0.189,0.314c0.177-5.404-3.849-10.559-8.411-13.459      c-2.016-1.282-4.302-2.241-6.689-2.323c-4.306-0.146-8.343,2.678-10.51,6.403c-2.166,3.724-2.697,8.2-2.46,12.501      c0.732,13.276,8.349,25.393,18.243,34.316c12.96-3.088,25.453-10.071,32.459-21.372      C124.116,135.041,125.796,130.859,125.68,126.552z"/>
			</g>
			<g>
				<path style="fill:#EA3D89;" d="M470.828,133.271c1.131-4.157,0.307-9.016-2.82-11.979c-1.734-1.643-4.022-2.597-6.35-3.133      c-5.269-1.212-11.319-0.19-15.042,3.73l-0.091-0.355l0.091,0.355c1.728-5.123-0.641-11.22-4.173-15.313      c-1.56-1.808-3.473-3.387-5.735-4.153c-4.081-1.382-8.761,0.158-11.909,3.099c-3.148,2.941-4.947,7.074-5.96,11.261      c-3.128,12.923,0.672,26.722,7.572,38.119c13.3,0.78,27.276-2.303,37.244-11.103      C466.882,140.949,469.696,137.428,470.828,133.271z"/>
			</g>
		</g>
		<g>
			<path style="fill:#FAD4D3;" d="M411.729,268.101c-4.228-27.541-16.754-61.019-37.032-80.613c-0.808-0.782-1.671-1.702-1.66-2.835     c0.008-0.814,0.474-1.542,0.923-2.218c17.256-25.936,29.477-48.326,32.497-80.12c1.838-19.348-1.467-39.466-11.195-56.202     c-6.012-10.343-15.391-19.783-27.162-21.18c-25.633-3.04-47.97,20.471-55.207,43.059c-9.964,31.099-13.203,64.52-2.068,95.836     c-7.155-1.234-14.359-2.173-21.588-2.823c-5.934-7.255-7.103-17.7-11.746-26.056c-1.573-2.831-4.192-5.727-7.411-5.36     c-2.666,0.304-4.559,2.786-5.539,5.284c-2.114,5.391-1.458,11.418-0.77,17.168c-2.784-6.288-9.761-10.451-16.617-9.916     c-2.545,0.199-5.284,1.182-6.475,3.44c-0.569,1.078-0.717,2.33-0.724,3.549c-0.017,3.44,1.065,6.867,3.023,9.696     c-6.399-0.014-12.799,0.159-19.184,0.602c14.247-30.028,14.409-63.606,7.644-95.553c-4.914-23.205-24.756-48.856-50.565-48.426     c-11.852,0.197-22.139,8.64-29.167,18.321c-11.372,15.666-16.697,35.345-16.827,54.78c-0.214,31.937,9.678,55.449,24.22,82.998     c0.379,0.718,0.769,1.489,0.695,2.3c-0.104,1.128-1.055,1.957-1.939,2.653c-22.157,17.44-38.008,49.478-45.002,76.45     c-8.237,31.766-5.933,67.298,14.78,93.926c9.953,12.795,26.929,22.146,41.17,29.052c37.075,17.978,75.28,24.043,116.071,20.611     c19.621-1.65,40.146-4.949,58.744-11.741c14.866-5.428,32.701-13.013,43.898-24.735     C410.819,335.654,416.708,300.537,411.729,268.101z"/>
		</g>
		<g>
			<g>
				<path style="fill:#F270A3;" d="M325.667,165.192c7.134,1.774,14.247,3.647,21.344,5.59      c13.389-30.62,22.757-62.692,21.232-96.277c-0.301-6.627-1.136-13.326-3.667-19.457c-0.746-1.807-1.7-3.63-3.31-4.737      c-2.303-1.583-5.508-1.314-7.968,0.011c-2.46,1.326-4.311,3.537-5.964,5.791c-9.245,12.605-14.109,27.91-17.124,43.249      c-2.358,11.998-3.393,24.209-3.971,36.408c-0.289,6.099-0.574,12.226-0.606,18.333      C325.629,155.103,325.63,161.166,325.667,165.192z"/>
			</g>
			<g>
				<path style="fill:#F270A3;" d="M207.862,159.214c-7.277,1.042-14.542,2.186-21.801,3.401      c-10.221-31.818-16.294-64.673-11.377-97.931c0.97-6.562,2.479-13.142,5.618-18.986c0.925-1.722,2.058-3.439,3.773-4.378      c2.451-1.342,5.612-0.75,7.926,0.818c2.313,1.568,3.931,3.956,5.347,6.365c7.922,13.476,11.212,29.195,12.658,44.76      c1.131,12.175,0.925,24.428,0.265,36.623c-0.33,6.097-0.666,12.222-1.253,18.3C208.922,149.181,208.308,155.213,207.862,159.214      z"/>
			</g>
		</g>
		<g style="opacity:0.35;">
			<g>
				<path style="fill:#EA3D89;" d="M332.023,341.897c-0.809,15.948,4.953,30.706,14.908,41.655      c14.133-5.333,30.208-12.64,40.586-23.503c17.558-18.381,25.221-42.848,25.807-67.67c-6.398-2.905-13.431-4.695-20.874-5.073      C360.688,285.694,333.634,310.135,332.023,341.897z"/>
			</g>
			<g>
				<path style="fill:#EA3D89;" d="M129.927,273.984c-7.381-0.374-14.501,0.673-21.113,2.878      c-1.944,24.774,3.198,49.918,18.818,69.999c9.2,11.827,24.396,20.706,37.89,27.437c10.984-9.883,18.187-23.964,18.995-39.886      C186.13,302.65,161.689,275.596,129.927,273.984z"/>
			</g>
		</g>
		<g>
			<path style="fill:#EA3D89;" d="M285.294,258.454c-1.153-3.596-4.807-5.518-8.215-6.768c-6.431-2.36-13.217-3.616-20.035-3.801     c-6.802-0.506-13.68,0.056-20.317,1.754c-3.517,0.899-7.347,2.441-8.858,5.902c-1.005,2.303-0.743,4.986-0.179,7.442     c2.05,8.919,7.995,16.741,15.811,20.804c2.934,1.525,6.116,2.451,9.364,2.879l-0.004,0.069c0.219,0.026,0.439,0.017,0.658,0.038     c0.514,0.056,1.03,0.06,1.546,0.09c0.516,0.023,1.03,0.07,1.547,0.067c0.22,0.001,0.439,0.032,0.659,0.029l0.004-0.069     c3.275-0.097,6.535-0.696,9.608-1.916c8.187-3.251,14.893-10.431,17.835-19.096C285.529,263.49,286.061,260.847,285.294,258.454z     "/>
		</g>
		<g>
			<g>
				<path style="fill:#B22E6C;" d="M279.628,275.241c-1.141-1.006-2.616-1.991-4.505-2.547c-2.343-0.767-5.596-0.365-7.849,1.569      c-2.274,1.866-3.498,4.478-3.822,6.931c-0.214,1.767-0.02,3.379,0.33,4.765c0.623-0.161,1.239-0.35,1.851-0.557      c-0.153-1.197-0.189-2.507,0.055-3.868c0.358-1.912,1.416-3.967,3.13-5.363c1.711-1.422,3.827-1.748,5.734-1.289      c1.491,0.347,2.782,1.037,3.873,1.792C278.836,276.204,279.244,275.734,279.628,275.241z"/>
			</g>
			<g>
				<path style="fill:#B22E6C;" d="M246.488,285.08c0.488-1.343,0.844-2.927,0.81-4.707c-0.074-2.473-1.027-5.195-3.101-7.282      c-2.046-2.152-5.241-2.882-7.65-2.355c-1.936,0.362-3.503,1.193-4.74,2.078c0.332,0.529,0.691,1.039,1.052,1.546      c1.162-0.64,2.516-1.197,4.035-1.391c1.944-0.264,4.016,0.275,5.575,1.863c1.564,1.562,2.409,3.714,2.571,5.652      c0.105,1.379-0.063,2.679-0.337,3.854C245.291,284.607,245.884,284.857,246.488,285.08z"/>
			</g>
		</g>
		<g>
			<g>
				<g>
					<g>
						<path style="fill:#A0654E;" d="M210.855,260.806c1.015,0.051,2.189-6.827,2.622-15.363c0.433-8.536-0.039-15.498-1.054-15.549        c-1.015-0.051-2.189,6.827-2.622,15.363C209.369,253.793,209.84,260.754,210.855,260.806z"/>
					</g>
				</g>
				<g>
					<g>
						<path style="fill:#A0654E;" d="M313.331,264.826c1.015,0.052,2.189-6.827,2.622-15.363c0.433-8.536-0.039-15.498-1.054-15.549        c-1.015-0.052-2.189,6.827-2.622,15.363C311.845,257.813,312.317,264.775,313.331,264.826z"/>
					</g>
				</g>
			</g>
			<g>
				<g>
					<path style="fill:#A0654E;" d="M275.269,289.391c-0.491-0.272-2.097,2.274-5.265,5.618c-1.59,1.65-3.631,3.464-6.174,4.896       c-2.536,1.427-5.639,2.476-8.889,2.493c-3.234-0.004-6.242-1.075-8.628-2.709c-2.426-1.582-4.24-3.613-5.635-5.398       c-2.737-3.66-3.737-6.487-4.293-6.317c-0.415,0.083-0.325,3.279,2.111,7.736c1.254,2.172,3.08,4.681,5.854,6.745       c2.702,2.107,6.51,3.636,10.606,3.624c4.087-0.027,7.769-1.435,10.625-3.27c2.882-1.859,4.953-4.116,6.42-6.132       C274.906,292.586,275.668,289.588,275.269,289.391z"/>
				</g>
			</g>
		</g>
		<g>
			<g>
				<path style="fill:#8F44B9;" d="M86.702,356.067c-5.248-7.595-11.323-14.138-18.35-20.107c-4.184-3.554-8.955,3.488-4.823,6.997      c5.291,4.494,9.861,9.464,13.996,14.929c-9.036,6.486-18.505,12.056-28.622,16.777c-19.072,8.9-21.907-17.148-17.053-29.282      c4.467-11.163,15.306-19.859,25.666-25.18c10.451-5.368,30.698-8.982,37.556,3.714c2.594,4.803,10.248,1.107,7.636-3.73      c-7.666-14.194-25.055-14.76-39.096-11.292c-17.519,4.328-31.819,17.878-39.764,33.624c-6.407,12.7-4.241,33.935,10.138,40.615      c7.937,3.687,14.564,1.071,22.112-2.451c10.728-5.007,20.715-11.523,30.156-18.624      C88.246,360.561,87.947,357.869,86.702,356.067z"/>
			</g>
			<g>
				<path style="fill:#8F44B9;" d="M125.989,390.178c0.065-0.194,0.104-0.411,0.145-0.626c4.313-0.779,8.532-2.416,12.531-4.746      c4.701-2.739,1.019-10.403-3.73-7.636c-2.855,1.664-5.681,2.905-8.653,3.664c-1.315-11.901-8.802-22.475-22.793-21.375      c-20.723,1.63-36.297,21.75-43.136,39.775c-6.248,16.466,2.6,36.511,22.616,33.939c20.402-2.622,38.68-23.395,42.995-42.785      C125.98,390.317,125.976,390.25,125.989,390.178z M117.683,381.574c-6.691-0.739-14.466-6.046-13.394-13.441      c0.02-0.14,0.009-0.263,0.018-0.397C111.74,367.739,116.554,373.796,117.683,381.574z M96.92,418.229      c-6.271,5.122-13.993,7.79-21.961,5.621c-11.631-3.166-8.504-16.744-5.463-24.758c4.636-12.217,14.616-23.081,26.178-29.003      c0.152,7.787,5.993,14.64,13.182,17.632c2.819,1.173,5.667,1.87,8.511,2.168C114.075,401.612,106.344,410.532,96.92,418.229z"/>
			</g>
			<g>
				<path style="fill:#8F44B9;" d="M173.404,415.864c0.025-0.391-0.007-0.75-0.066-1.092c-0.076-1.454-0.214-2.891-0.436-4.298      c5.696-1.922,11.033-5.099,16.19-8.553c4.55-3.047-1.047-9.451-5.544-6.439c-3.322,2.225-8.06,4.826-13.046,6.548      c-3.945-9.04-11.88-14.987-23.749-12.75c-18.882,3.56-29.742,29.46-32.861,45.772c-3.848,20.125,12.385,31.752,30.829,26.041      c17.041-5.277,27.191-27.56,28.584-44.175C173.373,416.594,173.414,416.248,173.404,415.864z M157.943,398.618      c2.021,1.142,3.492,3.024,4.55,5.219c-5.557,0.477-10.637-1.026-13.554-6.341C151.907,396.774,155.011,396.962,157.943,398.618z       M153.426,444.211c-9.386,12.69-32.066,15.225-31.411-5.542c0.399-12.644,8.147-25.924,16.64-34.844      c0.89-0.935,1.882-1.833,2.948-2.654c3.515,5.931,9.379,10.09,16.649,10.968c2.215,0.267,4.367,0.284,6.467,0.098      c0.116,1.046,0.185,2.058,0.21,2.992C164.256,426.02,159.793,435.604,153.426,444.211z"/>
			</g>
			<g>
				<path style="fill:#8F44B9;" d="M197.09,405.974c-3.258-1.614-5.614,1.181-5.613,4.079c-0.055,0.112-0.122,0.206-0.171,0.326      c-8.375,20.681-16.75,41.362-25.125,62.043c-0.382,0.943-0.42,1.806-0.234,2.568c-1.47,2.26-1.207,5.469,2.096,6.174      c20.778,4.438,42.239-3.855,51.158-23.863C228.177,437.164,215.201,414.946,197.09,405.974z M210.842,454.311      c-4.818,14.113-21.493,20.37-35.497,19.113c7.643-18.875,15.287-37.749,22.931-56.624      C210.494,425.069,215.781,439.844,210.842,454.311z"/>
			</g>
			<g>
				<g>
					<path style="fill:#FFBC5E;" d="M281.572,421.523c-0.591-3.139-4.871-4.653-7.288-2.572c-0.886,0.621-1.495,1.56-1.571,2.77       c-4.02,11.407-7.711,22.924-11.363,34.453c-4.591-11.125-9.604-22.077-13.842-33.347c-0.008-1.23-0.549-2.153-1.361-2.758       c-1.597-1.78-4.322-1.324-5.998,0.315c-0.76,0.636-1.349,1.523-1.572,2.707c-3.781,20.046-7.563,40.092-11.344,60.138       c-1.06,5.619,7.802,6.22,8.85,0.662c2.811-14.903,5.622-29.806,8.434-44.709c4.452,10.612,9.202,21.101,13.192,31.902       c0.847,2.292,2.785,2.877,4.574,2.39c1.611-0.006,3.163-0.862,3.805-2.883c3.48-10.944,6.908-21.905,10.524-32.804       c4.272,16.537,8.423,33.105,12.343,49.73c1.309,5.549,10.027,3.871,8.71-1.715C292.595,464.302,287.23,442.877,281.572,421.523       z"/>
				</g>
				<g>
					<path style="fill:#FFBC5E;" d="M336.905,427.584c2.43-2.94,4.062-6.501,4.466-10.626c0.559-5.701-8.292-6.349-8.85-0.661       c-0.131,1.329-0.509,2.54-1.056,3.654c-0.539-0.591-1.067-1.19-1.648-1.75c-12.151-11.7-26.168-4.421-31.925,9.135       c-7.458,17.561-6,42.368,5.995,57.36c12.687,15.858,30.565,1.518,36.099-12.372c0.133-0.335,0.225-0.66,0.28-0.974       C344.413,457.531,344.054,440.62,336.905,427.584z M324.664,426.136c-5.154,2.395-11.771,2.71-16.655,0.771       C312.316,420.382,319.186,420.718,324.664,426.136z M317.105,482.597c-7.366,0.273-11.501-11.408-13.059-16.659       c-2.817-9.492-1.642-21.041,0.731-30.711c7.745,3.097,17.421,2.257,24.895-1.793c5.486,11.218,5.71,24.12,1.955,35.899       C328.992,475.946,325.402,482.29,317.105,482.597z"/>
				</g>
				<g>
					<path style="fill:#FFBC5E;" d="M396.576,462.041c-6.75-5.661-11.883-12.977-18.342-18.963c5.109-5.328,8.107-12.202,7.097-20.9       c-2.082-17.925-25.641-18.317-38.71-17.333c-3.913,0.295-4.372,4.405-2.509,6.945c0.01,0.062,0.005,0.118,0.017,0.181       c4.115,20.871,8.487,41.692,13.023,62.476c1.246,5.709,10.167,3.983,8.915-1.755c-1.403-6.429-2.757-12.869-4.126-19.305       c3.218-1.263,6.317-2.795,9.168-4.592c7.413,6.24,12.865,14.485,20.309,20.729       C395.918,473.294,401.021,465.769,396.576,462.041z M353.709,413.482c10.278-0.27,23.21,1.344,22.838,13.977       c-0.258,8.74-8.845,13.836-16.519,16.972C357.866,434.126,355.759,423.809,353.709,413.482z"/>
				</g>
				<g>
					<path style="fill:#FFBC5E;" d="M411.261,368.441c-3.586-4.647-10.452,1.304-6.884,5.927       c8.821,11.43,17.142,23.191,24.952,35.308c-13.665-6.155-27.293-12.4-40.399-19.686c-1.781-0.99-3.566-0.703-4.925,0.192       c-2.455,0.736-4.365,3.265-2.816,6.184c9.823,18.508,20.444,36.533,31.865,54.1c3.148,4.842,11.359,0.926,8.164-3.988       c-9.081-13.967-17.634-28.236-25.704-42.795c14.432,7.332,29.275,13.831,44.014,20.527c2.127,0.967,3.871,0.178,4.881-1.26       c1.344-1.159,1.952-2.991,0.731-5.012C434.783,400.799,423.497,384.295,411.261,368.441z"/>
				</g>
				<g>
					<path style="fill:#FFBC5E;" d="M459.371,388.522c-15.292-11.22-30.157-22.97-44.606-35.257       c-4.368-3.714-9.351,3.641-5.038,7.308c14.449,12.287,29.314,24.036,44.606,35.257       C458.961,399.227,463.972,391.899,459.371,388.522z"/>
				</g>
				<g>
					<path style="fill:#FFBC5E;" d="M454.447,292.03c-3.897-2.844-8.187-6.109-13.819-11.274c-4.226-3.876-9.031,3.295-5.038,7.308       c5.012,5.037,10.151,9.006,13.819,11.274C454.291,302.358,459.057,295.395,454.447,292.03z"/>
				</g>
				<g>
					<path style="fill:#FFBC5E;" d="M488.64,344.158c0.344-1.539-0.062-3.235-1.697-4.435       c-16.331-11.99-32.365-24.383-48.201-37.017c-4.487-3.58-9.482,3.762-5.038,7.308c11.455,9.138,23.017,18.144,34.716,26.969       c-15.815-1.968-31.626-3.994-47.533-5.035c-0.873-0.057-1.612,0.12-2.245,0.431c-3.33,0.614-5.494,5.527-1.887,8.059       c17.763,12.468,35.654,24.748,53.673,36.843c4.759,3.194,9.788-4.12,5.038-7.308c-13.72-9.209-27.342-18.561-40.913-27.986       c16.265,1.579,32.462,3.851,48.697,5.717c0.753,0.238,1.488,0.244,2.166,0.049C487.312,347.425,488.411,345.881,488.64,344.158       z"/>
				</g>
			</g>
		</g>
		<g>
			<path style="fill:#FFFFFF;" d="M269.985,259.461c-0.155,3.055-6.322,5.226-13.774,4.848c-7.452-0.378-13.368-3.162-13.213-6.217     c0.155-3.055,6.322-5.226,13.775-4.848C264.225,253.622,270.14,256.406,269.985,259.461z"/>
		</g>
		<g style="opacity:0.21;">
			<g>
				<path style="fill:#E8BDB1;" d="M377.81,339.396c-31.982,1.084-62.597,6.091-95.375,6.984      c-41.891,1.142-89.614-7.861-122.738-35.282c-25.06-20.746-38.203-47.101-41.026-76.247c-2.333,6.133-4.301,12.228-5.819,18.085      c-8.237,31.766-5.933,67.298,14.78,93.926c9.953,12.795,26.929,22.146,41.17,29.052c37.075,17.978,75.28,24.043,116.071,20.611      c19.621-1.65,40.146-4.949,58.744-11.741c14.866-5.428,32.701-13.013,43.898-24.735c5.98-6.26,10.799-13.23,14.591-20.676      C394.012,339.085,385.902,339.121,377.81,339.396z"/>
			</g>
		</g>
		<g style="opacity:0.24;">
			<g>
				<path style="fill:#FFFFFF;" d="M397.895,264.291c-1.512-19.744-7.837-43.014-24.101-55.021      c-5.452-4.025-40.947-27.999-37.561-6.902c1.612,10.043,12.748,18.608,17.713,26.581c9.327,14.977,14.199,32.691,13.842,50.331      c-0.095,4.687-0.542,9.452,0.569,14.007c1.111,4.555,4.191,8.988,8.738,10.13c6.551,1.646,12.756-4.053,15.737-10.115      C397.289,284.235,398.66,274.274,397.895,264.291z"/>
			</g>
		</g>
	</g>
</g>















</svg>
