<?xml version="1.0" encoding="UTF-8"?>
<!-- Generator: Adobe Illustrator 25.2.1, SVG Export Plug-In . SVG Version: 6.00 Build 0)  -->
<svg xmlns="http://www.w3.org/2000/svg" xmlns:xlink="http://www.w3.org/1999/xlink" version="1.1" id="Capa_1" x="0px" y="0px" viewBox="0 0 512 512" style="enable-background:new 0 0 512 512;" xml:space="preserve" width="512" height="512">
<g>
	<path style="fill:#FFFFFF;" d="M47.07,337.712c6.465,2.45,13.461,3.829,20.427,4.12c8.915,19.465,22.58,36.241,40.72,50.012   c-0.814,28.612-2.175,60.642,18.451,83.791c58.936,38.468,165.9,11.725,212.711-13.454c30.268,60.332,122.882,71.028,85.325-16.983   c58.587-12.438,60.087-59.16,3.049-73.336c5.11-6.377,9.562-13.195,13.34-20.435c32.093,0.328,58.641-23.033,67.61-55.22   c13.45-50.241-16.106-111.747-55.23-145.713c16.383-50.248,7.131-75.165-35.477-106.246c-2.098-25.643-32.404-40.903-54.345-27.649   C322.578,2.978,289.41,5.851,257.309,37.06C227.208,7.662,201.392-2.814,159.45,5.322c-83.515,12.5-65.973,64.986-41.271,105.4   C32.238,132.118-57.233,285.988,47.07,337.712z"/>
	<g>
		<g>
			<path style="fill:#598984;" d="M344.87,409.949c-1.087,25.018,9.736,50.296,28.593,66.774     c7.746,6.769,16.876,12.145,26.881,14.535c4.31,1.03,9.408,1.298,12.605-1.771c3.278-3.146,3.122-8.374,2.422-12.864     c-5.871-37.691-32.526-68.373-71.889-70.568"/>
		</g>
		<g>
			<path style="fill:#598984;" d="M356.597,409.298c16.505,15.27,40.29,22.314,62.832,18.607c9.26-1.523,18.39-4.826,25.995-10.476     c3.276-2.434,6.5-5.863,6.302-9.89c-0.203-4.13-3.88-7.051-7.376-9.162c-29.343-17.723-66.273-16.769-91.249,9.638"/>
		</g>
		<g>
			<g>
				<path style="fill:#47726C;" d="M392.896,463.582c1.084-0.712-5.872-13.149-16.661-26.947      c-10.763-13.818-21.138-23.587-22.092-22.708c-1,0.909,7.676,12.004,18.311,25.659      C383.116,453.219,391.77,464.331,392.896,463.582z"/>
			</g>
		</g>
		<g>
			<g>
				<path style="fill:#47726C;" d="M423.395,406.355c0.187-1.26-14.211-4.28-32.263-4.097c-18.052,0.121-32.397,3.382-32.189,4.639      c0.196,1.361,14.559,0.271,32.23,0.157C408.843,406.871,423.223,407.719,423.395,406.355z"/>
			</g>
		</g>
		<g>
			<path style="fill:#6FA5A2;" d="M127.507,381.869c-3.329,20.389-2.586,41.435,2.173,61.539c1.654,6.989,3.994,14.207,9.244,19.109     c3.571,3.335,8.207,5.308,12.901,6.664c16.909,4.887,34.549,8.333,52.222,7.454c56.204-2.799,125.998-14.639,163.322-60.566     c11.817-14.541,20.165-32.302,21.498-50.992"/>
		</g>
		<g>
			<g>
				<path style="fill:#598984;" d="M364.759,40.008c4.486-9.073,17.023-13.054,25.921-8.23c8.898,4.824,12.405,17.502,7.25,26.213"/>
			</g>
			<g>
				<path style="fill:#EA9530;" d="M248.928,80.702c7.051-23.199,37.614-49.697,61.587-53.5c7.202-1.142,14.57-0.556,21.784,0.504      c37.337,5.487,72.627,24.022,98.336,51.647c3.645,3.917,7.151,8.084,9.311,12.979c2.908,6.59,3.175,14.027,2.835,21.222      c-0.008,0.173-0.017,0.346-0.026,0.518l-9.699,12.964l0.666,25.052c-3.864,9.657-8.515,19.154-13.077,29.423"/>
			</g>
			<g>
				<g>
					<path style="fill:#FFBC5E;" d="M314.591,54.481c2.622-2.156,4.663-4.948,6.302-7.92c3.307-5.994,4.838-12.82,4.757-19.648       c-5.054-0.454-10.135-0.504-15.136,0.289c-15.344,2.434-29.422,11.376-40.596,22.611c3.056,2.663,8.565,5.433,12.396,6.768       C292.966,60.292,305.878,61.646,314.591,54.481z"/>
				</g>
				<g>
					<path style="fill:#FFBC5E;" d="M431.6,111.887c-5.891,0.456-11.674,3.936-14.055,9.343c-2.767,6.282-0.575,13.79,3.404,19.384       c3.361,4.725,7.828,8.413,12.772,11.476c4.739-11.842,8.295-23.932,9.033-38.017C439.254,112.462,435.426,111.59,431.6,111.887       z"/>
				</g>
			</g>
		</g>
		<g>
			<path style="fill:#FFBC5E;" d="M156.028,123.252c-21.687-14.713-37.404-40.141-39.756-66.414     c-2.111-23.599,24.213-30.845,42.695-33.337c15.876-2.14,34.286-5.175,49.742,0.702c13.994,5.322,26.749,17.785,37.998,27.414     c24.401,20.886,47.864,44.398,78.111,56.718"/>
		</g>
		<g>
			<path style="fill:#EA653B;" d="M404.333,157.378c-34.445-42.309-88.94-66.395-143.458-66.684     c-54.461-2.515-110.122,18.738-146.697,59.22c-43.764,48.441-57.28,122.829-31.161,182.659     c23.71,54.311,85.467,75.423,140.032,82.581c7.99,1.048,16.027,1.704,24.078,2.043l0,0c0.004,0,0.008,0,0.012,0.001     c1.777,0.074,3.554,0.125,5.333,0.167c1.778,0.05,3.555,0.091,5.334,0.107c0.004,0,0.008,0,0.012,0l0,0     c8.058,0.075,16.118-0.167,24.152-0.803c54.86-4.343,117.622-22.252,144.092-75.272     C455.222,282.99,445.549,208.005,404.333,157.378z"/>
		</g>
		<g>
			<g>
				<path style="fill:#E85A34;" d="M247.14,417.198c1.777,0.074,3.554,0.125,5.333,0.167c1.778,0.05,3.555,0.091,5.334,0.107      c0.004,0,0.008,0,0.012,0l0,0c8.058,0.075,16.118-0.167,24.152-0.803c54.86-4.343,117.622-22.252,144.092-75.272      c2.95-5.909,5.482-11.994,7.645-18.2c-19.303,4.29-38.375,10.022-56.835,16.42c-22.69,7.863-45.431,16.776-69.38,18.547      c-26.335,1.948-52.678-4.927-76.939-15.356c-43.628-18.755-82.786-50.146-105.297-91.961      c-15.047-27.95-21.858-60.716-18.489-92.099C68.968,207.08,58.437,276.27,83.017,332.574      c23.71,54.311,85.467,75.423,140.032,82.581c7.99,1.048,16.027,1.704,24.078,2.043l0,0      C247.132,417.198,247.136,417.198,247.14,417.198z"/>
			</g>
		</g>
		<g>
			<path style="fill:#FAAFA8;" d="M340.338,327.353c-0.927-24.555-9.16-49.281-25.7-68.076     c-10.671-12.125-24.959-22.156-40.771-26.147c-12.746-3.217-33.146-1.74-45.277,3.109c-11.152,4.458-21.241,11.447-29.656,19.987     c-17.576,17.836-27.195,42.06-29.509,66.524c-1.716,18.141,1.334,38.446,15.644,50.454c17.386,14.588,43.973,19.177,66.29,18.719     c1.044-0.021,2.131-0.069,3.261-0.108c22.255,1.71,49.06-1.378,67.243-14.967C336.832,365.663,341.025,345.561,340.338,327.353z"/>
		</g>
		<path style="fill:#F49E9A;" d="M321.865,376.849c8.085-6.043,13.022-14.689,15.748-24.231c-9.881,2.725-19.89,4.791-30.122,5.547    c-26.335,1.948-52.678-4.927-76.939-15.356c-21.03-9.04-41.014-21.025-58.604-35.69c-1.174,5.161-2.027,10.389-2.523,15.633    c-1.716,18.141,1.333,38.446,15.645,50.454c17.386,14.588,43.973,19.177,66.29,18.719c1.044-0.021,2.132-0.069,3.261-0.108    C276.877,393.526,303.681,390.438,321.865,376.849z"/>
		<g>
			<g>
				<path style="fill:#842E20;" d="M254.121,315.324c1.059,0.027,2.085-6.474,2.292-14.52s-0.484-14.59-1.543-14.617      c-1.059-0.027-2.085,6.473-2.292,14.519C252.371,308.752,253.061,315.296,254.121,315.324z"/>
			</g>
		</g>
		<g>
			<g>
				<path style="fill:#842E20;" d="M276.776,303.007c-0.54-0.293-2.142,2.467-5.931,5.481c-3.681,3.003-10.007,6.101-17.169,5.585      c-7.157-0.574-12.942-4.592-16.127-8.117c-3.289-3.552-4.456-6.523-5.034-6.314c-0.423,0.087-0.181,3.55,2.922,8.017      c2.97,4.378,9.386,9.543,17.948,10.241c8.569,0.606,15.693-3.53,19.291-7.409C276.418,306.544,277.181,303.156,276.776,303.007z      "/>
			</g>
		</g>
		<g>
			<path style="fill:#842E20;" d="M287.591,248.682c-9.739-5.916-20.09-8.356-30.629-8.32c-10.524-0.578-20.987,1.327-31.017,6.734     c-8.899,4.798-14.521,11.161-9.831,21.564c1.814,4.024,4.671,8.337,7.907,11.874c0.174,0.19,0.582,0.227,0.758,0.412     c0.186,0.196,0.319,0.74,0.319,0.74c1.284,1.297,2.612,2.46,3.956,3.42c5.239,3.742,10.962,6.61,16.764,8.164     c0.333,0.089,0.673-0.116,1.006-0.035c0.303,0.073,0.605,0.417,0.909,0.483c2.618,0.566,5.24,0.883,7.835,0.844     c2.588,0.173,5.225-0.01,7.867-0.44c0.317-0.052,0.647-0.361,0.964-0.42c0.33-0.062,0.642,0.143,0.972,0.072     c5.872-1.254,11.738-3.825,17.161-7.292c1.392-0.889,2.779-1.984,4.127-3.212c0.212-0.194,0.1-0.597,0.311-0.798     c0.17-0.162,0.655-0.132,0.824-0.298c3.415-3.366,6.487-7.525,8.507-11.452C301.519,260.574,296.232,253.931,287.591,248.682z"/>
		</g>
		<g>
			<g>
				<path style="fill:#EA653B;" d="M279.37,277.751c-3.139-0.506-6.9-0.021-10.033,2.19c-3.21,2.264-4.588,5.804-5.311,8.739      c-0.469,1.929-0.613,3.76-0.591,5.442c0.645-0.105,1.29-0.21,1.936-0.348c0.109-1.432,0.339-2.954,0.792-4.532      c0.779-2.691,2.066-5.619,4.565-7.347c2.496-1.774,5.648-2.281,8.328-1.958c2.702,0.335,5.023,1.501,6.772,2.707      c0.298,0.21,0.562,0.418,0.832,0.626c0.384-0.35,0.758-0.725,1.134-1.095c-0.296-0.29-0.594-0.58-0.936-0.877      C285.072,279.798,282.562,278.286,279.37,277.751z"/>
			</g>
			<g>
				<path style="fill:#EA653B;" d="M242.568,279.253c-3.015-2.37-6.746-3.048-9.906-2.704c-3.216,0.37-5.801,1.752-7.66,3.157      c-0.358,0.279-0.67,0.554-0.981,0.828c0.357,0.39,0.711,0.783,1.077,1.152c0.28-0.194,0.554-0.387,0.863-0.582      c1.809-1.115,4.186-2.16,6.903-2.355c2.693-0.186,5.814,0.482,8.216,2.383c2.407,1.854,3.541,4.844,4.181,7.572      c0.372,1.599,0.522,3.131,0.558,4.567c0.637,0.171,1.276,0.309,1.915,0.447c0.109-1.679,0.059-3.514-0.31-5.465      C246.852,285.285,245.658,281.678,242.568,279.253z"/>
			</g>
		</g>
		<g>
			<g>
				<g>
					<g>
						<path style="fill:#842E20;" d="M187.763,235.634c1.324,0.034,2.597-7.687,2.842-17.246c0.246-9.559-0.628-17.335-1.952-17.369        c-1.324-0.034-2.596,7.688-2.842,17.246C185.565,227.824,186.439,235.601,187.763,235.634z"/>
					</g>
				</g>
				<g>
					<g>
						<path style="fill:#842E20;" d="M317.629,238.975c1.324,0.034,2.596-7.687,2.842-17.246c0.246-9.559-0.628-17.335-1.952-17.369        c-1.324-0.034-2.596,7.688-2.842,17.246C315.432,231.164,316.306,238.941,317.629,238.975z"/>
					</g>
				</g>
			</g>
			<g>
				<g>
					<g>
						<path style="fill:#842E20;" d="M348.627,172c1.006-1.958-0.565-5.042-4.072-8.425c-3.508-3.364-9.032-7.086-16.081-9.734        c-7.043-2.65-14.253-3.401-19.406-2.523c-5.189,0.845-8.138,3.016-8.08,5.172c0.05,2.248,2.796,4.12,6.71,6.049        c3.953,1.91,9.149,4.025,15.205,6.286c6.047,2.267,11.905,4.133,16.59,4.857C344.17,174.415,347.615,173.968,348.627,172z"/>
					</g>
				</g>
				<g>
					<g>
						<path style="fill:#842E20;" d="M171.438,167.443c0.909,2.017,4.327,2.641,9.036,2.149c4.716-0.483,10.662-2.045,16.818-3.998        c6.164-1.947,11.462-3.792,15.507-5.496c4.009-1.725,6.847-3.454,7.013-5.696c0.168-2.15-2.665-4.469-7.804-5.58        c-5.101-1.142-12.34-0.762-19.51,1.522c-7.175,2.282-12.884,5.715-16.56,8.894        C172.262,162.436,170.534,165.435,171.438,167.443z"/>
					</g>
				</g>
			</g>
		</g>
		<g>
			<g>
				<g>
					<path style="fill:#B5482C;" d="M149.017,211.124c0.625-16.765-0.641-33.745-2.725-50.602       c-1.395-11.28-4.943-26.542-17.005-31.435c-12.917-5.24-36.996,13.8-47.005,20.969c-25.797,18.478-45.829,44.889-56.668,74.713       c-6.329,17.417-9.563,36.467-5.586,54.566c3.977,18.1,16.055,35.032,33.388,41.587c13.996,5.293,30.144,3.36,43.452-3.481       c13.309-6.84,23.919-18.228,31.563-31.092C142.522,262.638,148.047,237.141,149.017,211.124z"/>
				</g>
				<g>
					<path style="fill:#B5482C;" d="M367.065,216.747c0.03-14.003,1.17-27.854,2.846-40.791       c1.606-12.394,6.394-35.412,20.094-40.163c13.169-4.567,36.237,15.684,45.864,23.358c24.813,19.78,43.461,47.186,52.752,77.528       c5.425,17.719,7.675,36.91,2.773,54.781c-4.902,17.872-17.835,34.161-35.482,39.816c-14.25,4.567-30.277,1.806-43.216-5.71       c-12.939-7.516-22.95-19.434-29.923-32.673C370.941,270.425,367.007,243.312,367.065,216.747z"/>
				</g>
			</g>
			<g>
				<g>
					<g>
						<path style="fill:#EA653B;" d="M74.941,173.268c0.529,0.399,2.705-1.596,4.862-4.455c2.157-2.859,3.476-5.501,2.948-5.899        c-0.529-0.399-2.706,1.596-4.862,4.456C75.732,170.228,74.412,172.869,74.941,173.268z"/>
					</g>
				</g>
				<g>
					<g>
						<path style="fill:#EA653B;" d="M102.656,155.134c0.623,0.256,2.004-1.704,3.591-4.094c1.571-2.399,2.83-4.44,2.349-4.912        c-0.458-0.462-2.632,0.975-4.351,3.592C102.517,152.331,102.051,154.895,102.656,155.134z"/>
					</g>
				</g>
				<g>
					<g>
						<path style="fill:#EA653B;" d="M124.748,175.123c0.567,0.342,1.9-0.832,2.977-2.621c1.077-1.789,1.49-3.516,0.922-3.858        c-0.567-0.341-1.9,0.832-2.977,2.621C124.594,173.055,124.18,174.782,124.748,175.123z"/>
					</g>
				</g>
				<g>
					<g>
						<path style="fill:#EA653B;" d="M101.836,183.627c0.563,0.348,2.081-1.085,3.389-3.202c1.309-2.116,1.913-4.114,1.349-4.463        c-0.563-0.348-2.08,1.085-3.389,3.201C101.877,181.281,101.272,183.279,101.836,183.627z"/>
					</g>
				</g>
				<g>
					<g>
						<path style="fill:#EA653B;" d="M126.713,151.832c0.663,0.099,1.433-1.412,2.132-3.257c0.684-1.85,1.096-3.495,0.531-3.856        c-0.547-0.358-1.99,0.902-2.777,3.015C125.804,149.845,126.065,151.742,126.713,151.832z"/>
					</g>
				</g>
				<g>
					<g>
						<path style="fill:#EA653B;" d="M51.685,190.771c0.644,0.199,1.896-2.055,3.362-4.782c1.448-2.736,2.624-5.031,2.099-5.456        c-0.499-0.416-2.641,1.364-4.215,4.327C51.347,187.818,51.062,190.588,51.685,190.771z"/>
					</g>
				</g>
				<g>
					<g>
						<path style="fill:#EA653B;" d="M67.693,198.968c0.635,0.225,2.203-2.609,4.026-6.089c1.808-3.488,3.233-6.397,2.685-6.788        c-0.526-0.383-2.914,2.024-4.812,5.68C67.683,195.421,67.078,198.757,67.693,198.968z"/>
					</g>
				</g>
				<g>
					<g>
						<path style="fill:#EA653B;" d="M123.291,206.234c0.638,0.176,1.634-1.412,2.224-3.547c0.59-2.135,0.552-4.01-0.087-4.186        c-0.638-0.177-1.634,1.411-2.224,3.547C122.614,204.183,122.652,206.058,123.291,206.234z"/>
					</g>
				</g>
				<g>
					<g>
						<path style="fill:#EA653B;" d="M97.767,215.311c0.536,0.372,1.853-0.645,2.32-2.497c0.472-1.851-0.202-3.372-0.85-3.301        c-0.669,0.059-1.104,1.299-1.475,2.711C97.415,213.644,97.207,214.941,97.767,215.311z"/>
					</g>
				</g>
				<g>
					<g>
						<path style="fill:#EA653B;" d="M44.878,221.701c0.64,0.17,1.538-1.123,2.007-2.887c0.468-1.764,0.329-3.332-0.311-3.502        c-0.64-0.17-1.539,1.123-2.007,2.887C44.099,219.963,44.238,221.531,44.878,221.701z"/>
					</g>
				</g>
				<g>
					<g>
						<path style="fill:#EA653B;" d="M82.064,220.753c0.662,0.099,1.363-0.941,1.89-2.224c0.514-1.289,0.733-2.524,0.189-2.913        c-0.529-0.386-1.775,0.434-2.412,2.013C81.09,219.207,81.415,220.662,82.064,220.753z"/>
					</g>
				</g>
				<g>
					<g>
						<path style="fill:#EA653B;" d="M57.844,229.215c0.643,0.156,1.515-1.156,1.946-2.931c0.431-1.775,0.259-3.34-0.385-3.497        c-0.643-0.156-1.514,1.156-1.946,2.931C57.029,227.493,57.201,229.059,57.844,229.215z"/>
					</g>
				</g>
				<g>
					<g>
						<path style="fill:#EA653B;" d="M36.202,263.685c0.534-0.42-0.12-2.131-0.335-4.224c-0.275-2.086-0.034-3.902-0.65-4.186        c-0.565-0.322-2.067,1.643-1.731,4.466C33.811,262.565,35.727,264.129,36.202,263.685z"/>
					</g>
				</g>
				<g>
					<g>
						<path style="fill:#EA653B;" d="M60.845,263.681c0.651,0.12,1.685-2.529,2.31-5.918c0.624-3.388,0.603-6.232-0.048-6.352        c-0.651-0.12-1.685,2.529-2.31,5.918C60.172,260.717,60.194,263.561,60.845,263.681z"/>
					</g>
				</g>
				<g>
					<g>
						<path style="fill:#EA653B;" d="M96.269,254.229c0.654,0.104,1.507-1.84,1.905-4.341c0.398-2.502,0.19-4.614-0.464-4.718        c-0.654-0.104-1.507,1.84-1.905,4.341C95.408,252.013,95.616,254.125,96.269,254.229z"/>
					</g>
				</g>
				<g>
					<g>
						<path style="fill:#EA653B;" d="M125.557,242.63c0.659,0.068,1.401-1.905,1.658-4.406c0.257-2.501-0.069-4.583-0.727-4.651        c-0.659-0.067-1.401,1.905-1.658,4.406C124.573,240.48,124.899,242.562,125.557,242.63z"/>
					</g>
				</g>
				<g>
					<g>
						<path style="fill:#EA653B;" d="M113.845,270.217c0.566,0.314,2.384-1.951,3.252-5.338c0.883-3.383,0.392-6.246-0.256-6.245        c-0.676-0.014-1.258,2.571-2.066,5.645C113.992,267.359,113.247,269.902,113.845,270.217z"/>
					</g>
				</g>
				<g>
					<g>
						<path style="fill:#EA653B;" d="M45.063,297.016c0.662,0.017,1.255-2.147,1.324-4.832c0.069-2.686-0.412-4.877-1.074-4.894        c-0.662-0.017-1.254,2.147-1.323,4.832C43.921,294.808,44.401,296.999,45.063,297.016z"/>
					</g>
				</g>
				<g>
					<g>
						<path style="fill:#EA653B;" d="M82.391,283.701c0.635,0.156,1.69-1.929,1.944-4.717c0.262-2.787-0.392-5.031-1.045-4.993        c-0.669,0.034-1.096,2.178-1.342,4.772C81.713,281.359,81.74,283.545,82.391,283.701z"/>
					</g>
				</g>
				<g>
					<g>
						<path style="fill:#EA653B;" d="M98.809,299.675c0.583,0.314,2.378-1.893,4.008-4.927c1.63-3.035,2.479-5.748,1.896-6.062        c-0.583-0.313-2.378,1.893-4.008,4.927C99.074,296.647,98.225,299.361,98.809,299.675z"/>
					</g>
				</g>
				<g>
					<g>
						<path style="fill:#EA653B;" d="M73.328,308.125c0.648,0.135,1.505-1.345,1.914-3.305c0.409-1.96,0.215-3.659-0.434-3.794        c-0.648-0.135-1.505,1.345-1.914,3.305C72.485,306.29,72.68,307.989,73.328,308.125z"/>
					</g>
				</g>
				<g>
					<g>
						<path style="fill:#EA653B;" d="M46.249,246.425c0.658,0.072,1.414-1.895,1.689-4.394c0.274-2.499-0.036-4.583-0.695-4.655        c-0.658-0.072-1.414,1.895-1.689,4.394C45.279,244.268,45.59,246.353,46.249,246.425z"/>
					</g>
				</g>
			</g>
			<g>
				<g>
					<g>
						<path style="fill:#EA653B;" d="M438.936,182.63c0.549-0.371-0.634-3.077-2.64-6.043c-2.006-2.966-4.078-5.071-4.626-4.699        c-0.549,0.371,0.634,3.077,2.64,6.043C436.316,180.897,438.388,183.001,438.936,182.63z"/>
					</g>
				</g>
				<g>
					<g>
						<path style="fill:#EA653B;" d="M412.19,163.096c0.617-0.208,0.283-2.793-1.309-5.488c-1.582-2.701-3.68-4.249-4.161-3.811        c-0.504,0.447,0.648,2.55,2.094,5.026C410.276,161.291,411.555,163.32,412.19,163.096z"/>
					</g>
				</g>
				<g>
					<g>
						<path style="fill:#EA653B;" d="M389.1,181.923c0.584-0.312,0.26-2.058-0.723-3.9c-0.983-1.842-2.254-3.083-2.838-2.771        c-0.584,0.312-0.26,2.058,0.723,3.9C387.245,180.994,388.515,182.234,389.1,181.923z"/>
					</g>
				</g>
				<g>
					<g>
						<path style="fill:#EA653B;" d="M411.544,191.593c0.58-0.319,0.08-2.345-1.118-4.526c-1.198-2.181-2.64-3.691-3.221-3.372        c-0.58,0.319-0.079,2.345,1.119,4.526C409.522,190.403,410.964,191.912,411.544,191.593z"/>
					</g>
				</g>
				<g>
					<g>
						<path style="fill:#EA653B;" d="M388.335,158.561c0.651-0.056,1.01-1.938,0.325-4.086c-0.677-2.151-2.054-3.483-2.618-3.154        c-0.583,0.331-0.256,1.995,0.332,3.878C386.977,157.077,387.667,158.626,388.335,158.561z"/>
					</g>
				</g>
				<g>
					<g>
						<path style="fill:#EA653B;" d="M461.261,201.306c0.632-0.151,0.49-2.932-0.941-5.967c-1.419-3.04-3.467-4.927-3.987-4.537        c-0.545,0.396,0.51,2.749,1.816,5.556C459.473,199.156,460.608,201.472,461.261,201.306z"/>
					</g>
				</g>
				<g>
					<g>
						<path style="fill:#EA653B;" d="M444.853,208.669c0.625-0.18,0.193-3.543-1.527-7.286c-1.708-3.749-3.969-6.275-4.514-5.919        c-0.567,0.363,0.706,3.341,2.333,6.917C442.787,205.95,444.207,208.861,444.853,208.669z"/>
					</g>
				</g>
				<g>
					<g>
						<path style="fill:#EA653B;" d="M388.956,213.068c0.646-0.143,0.782-2.013,0.302-4.176c-0.48-2.163-1.393-3.801-2.04-3.657        c-0.646,0.143-0.781,2.013-0.302,4.176C387.396,211.574,388.309,213.211,388.956,213.068z"/>
					</g>
				</g>
				<g>
					<g>
						<path style="fill:#EA653B;" d="M413.979,223.445c0.578-0.341,0.437-1.648,0.163-3.082c-0.298-1.429-0.668-2.69-1.333-2.783        c-0.644-0.105-1.394,1.38-1.019,3.252C412.162,222.706,413.425,223.789,413.979,223.445z"/>
					</g>
				</g>
				<g>
					<g>
						<path style="fill:#EA653B;" d="M466.469,232.545c0.648-0.137,0.868-1.696,0.491-3.482c-0.377-1.786-1.208-3.124-1.855-2.987        c-0.648,0.137-0.868,1.696-0.491,3.482C464.99,231.345,465.821,232.682,466.469,232.545z"/>
					</g>
				</g>
				<g>
					<g>
						<path style="fill:#EA653B;" d="M429.382,229.686c0.653-0.057,1.052-1.494,0.493-3.103c-0.555-1.61-1.756-2.493-2.305-2.135        c-0.564,0.36-0.408,1.605,0.039,2.919C428.069,228.677,428.716,229.751,429.382,229.686z"/>
					</g>
				</g>
				<g>
					<g>
						<path style="fill:#EA653B;" d="M453.134,239.383c0.651-0.123,0.903-1.678,0.564-3.472c-0.339-1.795-1.141-3.15-1.792-3.027        c-0.65,0.123-0.903,1.678-0.564,3.472C451.681,238.15,452.483,239.506,453.134,239.383z"/>
					</g>
				</g>
				<g>
					<g>
						<path style="fill:#EA653B;" d="M472.975,274.92c0.452,0.467,2.446-0.996,2.916-3.799c0.481-2.801-0.918-4.841-1.499-4.549        c-0.63,0.253-0.483,2.079-0.865,4.148C473.205,272.798,472.464,274.473,472.975,274.92z"/>
					</g>
				</g>
				<g>
					<g>
						<path style="fill:#EA653B;" d="M448.365,273.649c0.657-0.087,0.824-2.926,0.375-6.342c-0.45-3.416-1.346-6.115-2.003-6.028        c-0.656,0.086-0.824,2.925-0.374,6.342C446.812,271.036,447.709,273.735,448.365,273.649z"/>
					</g>
				</g>
				<g>
					<g>
						<path style="fill:#EA653B;" d="M413.474,262.388c0.658-0.07,0.974-2.169,0.706-4.688c-0.269-2.519-1.02-4.503-1.679-4.433        c-0.658,0.07-0.975,2.169-0.706,4.688C412.064,260.473,412.816,262.458,413.474,262.388z"/>
					</g>
				</g>
				<g>
					<g>
						<path style="fill:#EA653B;" d="M384.821,249.299c0.661-0.034,1.094-2.096,0.966-4.607c-0.128-2.511-0.768-4.519-1.429-4.485        c-0.661,0.034-1.094,2.097-0.966,4.607C383.519,247.324,384.159,249.333,384.821,249.299z"/>
					</g>
				</g>
				<g>
					<g>
						<path style="fill:#EA653B;" d="M395.099,277.452c0.614-0.284,0-2.862-0.624-5.979c-0.649-3.111-1.097-5.723-1.773-5.743        c-0.646-0.034-1.284,2.8-0.576,6.224C392.819,275.38,394.518,277.736,395.099,277.452z"/>
					</g>
				</g>
				<g>
					<g>
						<path style="fill:#EA653B;" d="M462.412,307.751c0.662,0.017,1.254-2.147,1.324-4.833c0.069-2.686-0.412-4.877-1.074-4.894        c-0.662-0.017-1.255,2.147-1.324,4.832C461.27,305.542,461.75,307.734,462.412,307.751z"/>
					</g>
				</g>
				<g>
					<g>
						<path style="fill:#EA653B;" d="M425.818,292.534c0.659-0.123,0.798-2.304,0.697-4.908c-0.112-2.603-0.429-4.766-1.095-4.835        c-0.651-0.071-1.419,2.136-1.301,4.933C424.23,290.521,425.176,292.658,425.818,292.534z"/>
					</g>
				</g>
				<g>
					<g>
						<path style="fill:#EA653B;" d="M408.601,307.643c0.599-0.283-0.11-3.037-1.582-6.151c-1.472-3.114-3.151-5.409-3.75-5.126        c-0.598,0.283,0.11,3.037,1.582,6.151C406.324,305.631,408.002,307.926,408.601,307.643z"/>
					</g>
				</g>
				<g>
					<g>
						<path style="fill:#EA653B;" d="M433.614,317.392c0.654-0.102,0.936-1.789,0.628-3.767c-0.307-1.979-1.087-3.5-1.741-3.399        c-0.654,0.102-0.935,1.788-0.628,3.767C432.18,315.971,432.96,317.493,433.614,317.392z"/>
					</g>
				</g>
				<g>
					<g>
						<path style="fill:#EA653B;" d="M463.83,257.166c0.661-0.038,1.079-2.104,0.933-4.614c-0.146-2.51-0.8-4.513-1.461-4.475        c-0.661,0.038-1.079,2.104-0.933,4.613C462.514,255.201,463.169,257.204,463.83,257.166z"/>
					</g>
				</g>
			</g>
		</g>
		<g>
			<path style="fill:#FFFFFF;" d="M270.953,252.206c-0.104,4.044-6.584,7.158-14.475,6.955c-7.89-0.203-14.202-3.646-14.098-7.69     c0.104-4.044,6.585-7.158,14.475-6.955C264.745,244.719,271.057,248.162,270.953,252.206z"/>
		</g>
	</g>
</g>















</svg>
