<?xml version="1.0" encoding="UTF-8"?>
<!-- Generator: Adobe Illustrator 25.2.1, SVG Export Plug-In . SVG Version: 6.00 Build 0)  -->
<svg xmlns="http://www.w3.org/2000/svg" xmlns:xlink="http://www.w3.org/1999/xlink" version="1.1" id="Capa_1" x="0px" y="0px" viewBox="0 0 512 512" style="enable-background:new 0 0 512 512;" xml:space="preserve" width="512" height="512">
<g>
	<path style="fill:#FFFFFF;" d="M498.25,186.96c4.121-19.074-16.97-37.31-35.01-28.836c-2.403-4.117-6.132-7.292-10.286-9.328   c6.133-11.581,2.728-27.838-7.707-36.133c10.052-17.23-5.702-39.91-25.473-34.595c-9.978-12.018-31.936-10.236-38.66,4.407   c-14.209-1.933-27.154,11.881-25.454,25.927c-2.531,1.823-4.69,4.188-6.315,6.987c-22.619-13.39-52.852-2.536-68.656,17.821   c-0.055-21.984-32.98-29.869-42.789-10.02c-24.824-6.397-50.788,5.589-63.746,28.655c-12.668-20.997-64.412-53.57-91.101-33.418   c-15.823,17.583-1.166,128.289-1.286,159.191c-21.527,1.652-111.577,25.103-71.703,52.776c11.064,4.179,21.212,8.586,30.983,13.478   c-13.509,13.638-60.228,57.919-19.058,63.366c26.58-3.55,49.372-4.513,76.024-0.312c53.124,8.26,104.441,25.545,156.963,31.195   c96.044,15.409,199.457-16.061,231.854-108.593c4.56-12.946,6.815-27.082,7.038-40.863c0.185-10.021,1.227-24.456-11.052-27.739   c5.797-7.418,7.02-16.732,6.373-25.707C513.621,231.592,521.138,198.246,498.25,186.96z M433.032,101.52   c0.032-0.275,0.08-0.549,0.093-0.825C433.124,100.914,433.096,101.193,433.032,101.52z"/>
	<g>
		<g>
			<path style="fill:#17B18F;" d="M466.327,339.623c-7.11,14.789-18.248,28.117-29.779,39.752     c-55.949,56.455-142.211,51.374-214.328,38.486c-31.381-5.613-61.908-14.367-93.201-20.7     c-19.095-3.864-38.402-7.363-57.926-7.883c-16.622-1.473-34.136,1.219-50.651,2.917c6.596-10.816,14.007-20.068,22.905-29.153     c7.537-7.695,15.118-15.438,23.311-22.44c-16.58-9.752-33.117-17.504-51.251-24.353c35.307-22.466,75.58-27.558,116.891-24.358     c36.62,2.836,72.444,11.797,108.596,18.283c43.43,7.791,91.86,12.106,133.554-5.516c26.043-11.007,41.963-29.529,56.249-53.101     c4.639,9.432,4.829,19.567,5.331,29.821c0.511,10.447-0.134,19.865-1.421,30.279c0.022-0.18,9.883-6.542,11.054-7.76     c3.733-3.883,8.172-6.707,12.544-9.929c7.797-5.748,13.71-11.709,20.23-18.604c1.089,16.725-0.275,33.302-5.868,49.142     C470.751,329.649,468.687,334.714,466.327,339.623z"/>
		</g>
		<g>
			<g>
				<path style="fill:#16A583;" d="M348.186,379.049c-85.315,20.43-173.259-11.083-260.198-22.823      c-11.714-1.582-24.091-2.569-36.067-1.843c-2.881,2.869-5.737,5.762-8.575,8.659c-8.898,9.085-16.309,18.338-22.905,29.153      c16.515-1.698,34.029-4.391,50.651-2.917c19.524,0.52,38.83,4.019,57.925,7.883c31.294,6.333,61.821,15.087,93.202,20.7      c72.117,12.888,158.379,17.969,214.328-38.486c11.53-11.635,22.669-24.962,29.779-39.752c2.36-4.908,4.424-9.973,6.241-15.118      c4.202-11.899,6.015-24.214,6.197-36.696C447.964,332.518,401.079,366.383,348.186,379.049z"/>
			</g>
		</g>
		<g>
			<g>
				<path style="fill:#7CB7E8;" d="M99.626,127.101c-5.635-0.489-8.488,4.28-8.08,8.631c-0.058,0.401-0.122,0.798-0.12,1.245      c0.126,46.337,1.912,92.643,5.327,138.854c0.119,1.616,0.651,2.859,1.409,3.82c1.665,3.454,5.632,6.11,10.265,4.544      c36.622-12.382,65.466-44.471,65.344-84.332C173.642,157.192,139.83,130.588,99.626,127.101z M111.439,266.457      c-2.878-40.899-4.421-81.859-4.645-122.859c30.784,5.715,52.882,27.42,51.531,61.2      C157.188,233.25,136.145,255.126,111.439,266.457z"/>
			</g>
			<g>
				<path style="fill:#7CB7E8;" d="M259.822,155.471c3.368-5.829,5.466-12.752,5.775-20.72c0.377-9.735-14.724-11.121-15.103-1.339      c-0.154,3.963-0.94,7.551-2.224,10.754c-18.736-12.778-44.788-9.737-59.439,12.661c-9.949,15.211-12.317,35.628-13.337,53.326      c-1.259,21.841,1.439,46.397,12.316,65.714c8.622,15.314,24.979,24.61,42.515,22.298c16.408-2.163,26.829-18.591,32.481-32.474      c12.291-30.194,14.117-72.404,1.594-102.571C263.061,160.361,261.517,157.818,259.822,155.471z M219.078,151.643      c7.448-1.96,14.494,0.136,20.281,4.305c-8.938,6.888-21.851,8.452-33.489,3.648C209.363,155.904,213.693,153.06,219.078,151.643      z M253.477,242.839c-2.097,11.163-5.685,22.03-12.402,31.284c-11.016,15.175-28.835,9.396-38.716-3.496      c-9.233-12.046-10.708-30.591-11.743-45.132c-1.049-14.738,0.68-30.325,4.423-44.607c0.746-2.848,1.681-5.685,2.813-8.425      c17.54,7.838,37.853,5.6,51.637-5.132c0.426,0.743,0.828,1.495,1.198,2.256C260.126,192.33,257.921,219.178,253.477,242.839z"/>
			</g>
			<g>
				<path style="fill:#7CB7E8;" d="M366.301,199.781c-1.249-4.21-4.355-6.552-8.822-6.098c-11.025,1.123-22.05,2.245-33.075,3.367      c-9.721,0.99-6.953,15.905,2.724,14.92c8.728-0.889,17.457-1.777,26.186-2.666c4.057,14.964,6.775,30.451,4.902,45.936      c-2.751,22.729-25.949,35.48-46.194,22.987c-12.499-7.713-15.582-24.688-17.518-38.019c-2.201-15.155-3.442-30.419-2.59-45.726      c0.735-13.196,2.908-27.253,9.641-38.81c7.046-12.092,24.215-21.69,36.301-11.466c7.485,6.331,16.181-6.104,8.779-12.366      c-12.438-10.522-28.063-8.626-41.314-0.598c-14.453,8.757-21.695,23.463-25.311,39.453c-4.198,18.564-4.033,37.531-2.309,56.383      c1.799,19.673,4.448,40.158,17.144,56.068c19.001,23.813,58.605,18.372,72.552-7.472      C379.708,252.86,373.26,223.238,366.301,199.781z"/>
			</g>
		</g>
		<g>
			<g>
				<path style="fill:#D44A8B;" d="M471.427,250.821c1.51-2.362,2.471-5.032,2.633-7.775c0.854-14.423-3.068-29.203-12.141-40.705      c-8.581-10.878-18.459-11.141-30.857-7.911c-10.321,2.689-21.918,7.307-26.994,17.422c-6.007,11.972-0.368,25.467,12.923,29.15      c7.349,2.036,13.259-1.254,19.957-4.046c0.874,8.936,6.102,17.698,14.301,21.359      C458.673,261.632,467.202,257.427,471.427,250.821z"/>
			</g>
			<g>
				<path style="fill:#D44A8B;" d="M450.212,165.744c-5.219-7.803-17.644-4.349-19.279,4.171c-0.618,3.219-0.086,6.587,1.107,9.636      c1.609,4.113,5.071,8.073,9.475,8.047c4.612-0.027,8.088-4.385,9.581-8.766C452.559,174.541,452.728,169.505,450.212,165.744z"/>
			</g>
			<g>
				<path style="fill:#D44A8B;" d="M420.227,174.187c-5.643-6.131-16.099-1.435-16.384,6.247c-0.108,2.902,0.816,5.78,2.277,8.29      c1.971,3.386,5.549,6.388,9.418,5.772c4.051-0.644,6.517-4.928,7.237-8.966C423.48,181.575,422.947,177.143,420.227,174.187z"/>
			</g>
			<g>
				<path style="fill:#D44A8B;" d="M470.417,171.604c9.05-2.491,16.193,8.246,11.859,15.763c-1.637,2.84-4.242,5.04-7.138,6.567      c-3.906,2.06-9.115,2.792-12.431-0.107c-3.472-3.036-3.253-8.606-1.517-12.897C462.888,176.726,466.053,172.805,470.417,171.604      z"/>
			</g>
			<g>
				<path style="fill:#D44A8B;" d="M486.867,199.704c8.279-0.949,13.119,9.441,8.312,15.44c-1.816,2.266-4.397,3.84-7.144,4.784      c-3.705,1.273-8.375,1.204-10.9-1.791c-2.644-3.136-1.708-7.99,0.387-11.516C479.574,203.167,482.876,200.161,486.867,199.704z"/>
			</g>
		</g>
		<g>
			<g>
				<path style="fill:#CCD432;" d="M440.462,131.999c-0.525-2.156-1.526-4.166-3.006-5.759c-7.78-8.377-18.377-14.219-29.917-15.322      c-10.913-1.043-16.468,4.462-21.401,13.318c-4.107,7.373-7.81,16.529-4.802,24.965c3.56,9.984,14.362,14.14,23.737,8.555      c5.184-3.088,6.535-8.268,8.602-13.624c5.587,4.388,13.458,6.191,20.036,3.505C439.668,145.204,441.93,138.028,440.462,131.999z      "/>
			</g>
			<g>
				<path style="fill:#CCD432;" d="M380.21,97.595c-7.316-1.284-12.138,7.71-8.16,13.306c1.503,2.114,3.72,3.652,6.116,4.638      c3.232,1.329,7.39,1.516,9.784-1.017c2.507-2.652,1.917-7.023,0.228-10.273C386.524,101.065,383.737,98.214,380.21,97.595z"/>
			</g>
			<g>
				<path style="fill:#CCD432;" d="M368.637,119.359c-6.592-0.127-9.626,8.421-5.39,12.786c1.601,1.649,3.752,2.695,5.986,3.233      c3.014,0.725,6.688,0.32,8.452-2.228c1.847-2.669,0.747-6.422-1.168-9.043C374.641,121.541,371.815,119.42,368.637,119.359z"/>
			</g>
			<g>
				<path style="fill:#CCD432;" d="M394.612,89.247c3.525-6.538,13.572-4.749,15.5,1.84c0.728,2.489,0.562,5.182-0.149,7.674      c-0.959,3.361-3.389,6.739-6.861,7.05c-3.636,0.325-6.7-2.847-8.205-6.187C393.423,96.353,392.912,92.399,394.612,89.247z"/>
			</g>
			<g>
				<path style="fill:#CCD432;" d="M419.678,95.21c3.985-5.253,12.574-2.338,13.375,3.692c0.302,2.278-0.209,4.615-1.172,6.701      c-1.298,2.815-3.892,5.448-6.986,5.253c-3.239-0.204-5.503-3.393-6.373-6.52C417.669,101.275,417.756,97.743,419.678,95.21z"/>
			</g>
		</g>
		<g>
			<g>
				<path style="fill:#D44A8B;" d="M423.75,320.097c-3.633-3.977-10.286-4.639-14.323-1.325c-2.848,2.338-4.405,6.085-4.692,9.893      l-0.047,0.206l-0.189-0.094c-3.13-2.187-7.017-3.352-10.63-2.627c-5.12,1.029-8.817,6.599-8.037,11.929      c1.351,9.233,10.497,15.616,18.92,18.25l13.527-3.273l9.227-11.774C429.261,333.974,428.83,325.657,423.75,320.097z"/>
			</g>
			<g>
				<path style="fill:#D44A8B;" d="M123.95,335.168c-1.544-5.161-7.248-8.648-12.324-7.418c-3.581,0.868-6.612,3.566-8.525,6.871      l-0.131,0.165l-0.129-0.167c-1.868-3.33-4.863-6.069-8.432-6.985c-5.058-1.299-10.809,2.112-12.423,7.251      c-2.327,7.412,1.07,15.393,5.99,21.34c0,0,10.675,4.677,11.93,5.337c1.263-0.643,14.002-1.324,14.002-1.324      C120.681,354.349,126.706,344.381,123.95,335.168z"/>
			</g>
		</g>
		<path style="fill:#C1347E;" d="M404.754,356.326c1.385,0.433,2.751,0.768,4.059,0.994c2.017,0.349,4.006,0.898,6.029,1.206    c0.9,0.137,2.812,0.619,4.228,0.668c0.858-1.128,1.695-2.913,2.158-3.697c1.041-1.761,1.875-3.649,2.88-5.431    c1.425-2.524,2.63-5.579,3.406-8.831C420.233,346.717,412.635,351.77,404.754,356.326z"/>
		<path style="fill:#C1347E;" d="M87.989,356.226c-0.004,0-0.007-0.001-0.011-0.001c1.961,2.37,4.163,4.418,6.342,5.976    c1.665,1.191,3.218,2.55,4.906,3.706c0.751,0.515,2.263,1.78,3.518,2.439c1.263-0.643,2.792-1.887,3.55-2.392    c1.703-1.133,3.274-2.471,4.955-3.639c0.886-0.616,1.776-1.314,2.654-2.077C105.257,358.753,96.618,357.391,87.989,356.226z"/>
		<g>
			<g>
				<g>
					<path style="fill:#CCD432;" d="M145.317,315.995c-4.48,21.254-8.647,42.568-12.5,63.944c-0.307,1.703,1.07,4.036,2.799,4.442       c7.775,1.827,15.55,3.654,23.325,5.48c5.372,1.262,8.454-6.845,3.032-8.119c-7.775-1.827-15.55-3.653-23.325-5.48       c0.933,1.481,1.866,2.961,2.799,4.442c3.854-21.376,8.02-42.69,12.5-63.944C155.098,311.3,146.455,310.598,145.317,315.995       L145.317,315.995z"/>
				</g>
			</g>
			<path style="fill:#CCD432;" d="M228.564,323.119c-0.87,2.124-2.506,4.317-4.596,6.341c-2.178-3.465-5.062-6.338-8.835-8.19     c-19.564-9.598-34.961,6.61-41.262,23.653c-7.189,19.443-5.084,45.768,17.6,53.108c22.326,7.224,35.308-18.826,38-36.193     c0.75-6.924,0.577-15.747-1.683-23.586c3.85-3.286,6.97-7.406,8.894-12.102C238.806,320.967,230.675,317.966,228.564,323.119z      M215.268,332.517c0.587,0.665,1.104,1.391,1.59,2.143c-8.398,4.571-18.361,5.188-20.7-5.439     C202.288,325.906,209.395,325.858,215.268,332.517z M220.842,361.074c-2.201,14.195-11.066,33.781-29.007,27.975     c-18.568-6.008-13.275-31.815-8.469-44.813c1.208-3.266,3.2-6.504,5.68-9.279c3.425,7.214,11.104,11.947,19.47,11.349     c4.057-0.29,8.032-1.399,11.708-3.148C221.547,349.154,221.415,355.776,220.842,361.074z"/>
			<path style="fill:#CCD432;" d="M281.758,338.302c-9.216,19.024-19.177,37.637-29.868,55.861     c-3.639-19.382-6.902-38.826-9.74-58.344c-0.804-5.528-9.329-3.969-8.526,1.557c3.241,22.291,7.005,44.49,11.292,66.604     c0.518,2.672,2.814,3.665,4.906,3.352c1.703,0.909,3.842,0.756,5.137-1.403c12.602-21.01,24.237-42.546,34.918-64.594     C292.317,336.297,284.169,333.325,281.758,338.302z"/>
			<path style="fill:#CCD432;" d="M317.455,331.694c-7.201,0.654-14.376,1.506-21.53,2.556c-0.006,0.001-0.01,0.003-0.015,0.004     c-2.469-0.883-5.585,0.158-5.657,3.505c-0.489,22.685-0.531,45.368-0.127,68.054c0.098,5.526,8.73,6.349,8.63,0.765     c-0.227-12.776-0.298-25.55-0.242-38.324c4.949,0.089,9.893-0.051,14.839-0.396c5.562-0.388,3.963-8.91-1.557-8.525     c-4.408,0.307-8.813,0.383-13.223,0.279c0.053-5.674,0.134-11.349,0.243-17.023c6.713-0.962,13.443-1.756,20.197-2.37     C324.57,339.715,322.983,331.192,317.455,331.694z"/>
			<path style="fill:#CCD432;" d="M376.849,392.59c-5.485-6.93-10.97-13.859-16.455-20.789c8.292-6.045,14.124-15.03,13.347-25.862     c-1.356-18.914-24.66-23.061-38.97-18.553c-1.762,0.555-2.762,1.887-3.118,3.349c-0.672,0.828-1.062,1.921-0.917,3.249     c2.556,23.522,4.44,47.096,5.652,70.726c0.285,5.561,8.808,3.952,8.525-1.557c-0.409-7.97-0.901-15.933-1.462-23.89     c0.216-0.019,0.428-0.03,0.658-0.082c2.952-0.671,5.899-1.672,8.73-2.969c5.789,7.313,11.578,14.627,17.366,21.941     C373.678,402.541,380.313,396.967,376.849,392.59z M342.808,370.592c-0.92-11.859-2.01-23.705-3.271-35.537     c10.771-2.376,22.969-0.065,25.678,12.441C367.729,359.103,351.878,368.426,342.808,370.592z"/>
			<path style="fill:#A5D333;" d="M320.23,402.926c-7.18,0.603-14.341,0.709-21.522,0.375c-0.092-5.906-0.157-11.812-0.186-17.718     c-2.873,0.102-5.748,0.161-8.625,0.181c0.042,6.683,0.109,13.366,0.228,20.05c0.015,0.823,0.235,1.528,0.571,2.137     c0.136,1.882,1.36,3.629,3.805,3.79c9.108,0.6,18.192,0.476,27.286-0.288C327.347,410.985,325.755,402.462,320.23,402.926z"/>
			<g>
				<path style="fill:#A5D333;" d="M370.205,398.152c3.474,4.389,10.108-1.185,6.644-5.562c-4.657-5.883-9.313-11.766-13.969-17.649      c-2.963,0.949-5.952,1.823-8.959,2.637C359.348,384.436,364.777,391.294,370.205,398.152z"/>
				<path style="fill:#A5D333;" d="M336.387,404.709c0.285,5.561,8.808,3.952,8.525-1.557c-0.394-7.686-0.869-15.366-1.406-23.041      c-2.835,0.616-5.673,1.174-8.514,1.681C335.525,389.426,335.995,397.064,336.387,404.709z"/>
			</g>
			<path style="fill:#A5D333;" d="M135.714,364.203c-0.984,5.241-1.95,10.486-2.896,15.735c-0.307,1.703,1.07,4.036,2.799,4.442     c7.775,1.827,15.55,3.654,23.325,5.48c5.372,1.262,8.454-6.845,3.032-8.119c-6.619-1.555-13.239-3.11-19.858-4.666     c0.682-3.75,1.368-7.499,2.07-11.245C141.361,365.283,138.537,364.74,135.714,364.203z"/>
			<path style="fill:#A5D333;" d="M214.65,379.058c-4.76,7.969-12.197,13.427-22.815,9.991c-8.067-2.61-11.627-8.96-12.683-16.37     c-2.864-0.552-5.727-1.109-8.591-1.67c1.483,12.039,7.705,22.75,20.911,27.023c14.932,4.832,25.677-5.225,31.967-17.609     C220.51,379.987,217.58,379.532,214.65,379.058z"/>
			<path style="fill:#A5D333;" d="M244.915,403.98c0.518,2.672,2.814,3.665,4.906,3.352c1.703,0.909,3.842,0.756,5.137-1.403     c4.122-6.872,8.13-13.806,12.045-20.789c-3.171-0.189-6.345-0.419-9.52-0.683c-1.844,3.246-3.704,6.485-5.594,9.707     c-0.65-3.462-1.273-6.928-1.899-10.394c-2.998-0.3-5.998-0.63-8.999-0.986C242.252,389.856,243.547,396.924,244.915,403.98z"/>
		</g>
	</g>
</g>















</svg>
