<?xml version="1.0" encoding="UTF-8"?>
<!-- Generator: Adobe Illustrator 25.2.1, SVG Export Plug-In . SVG Version: 6.00 Build 0)  -->
<svg xmlns="http://www.w3.org/2000/svg" xmlns:xlink="http://www.w3.org/1999/xlink" version="1.1" id="Capa_1" x="0px" y="0px" viewBox="0 0 512 512" style="enable-background:new 0 0 512 512;" xml:space="preserve" width="512" height="512">
<g>
	<path style="fill:#FFFFFF;" d="M365.401,422.67c90.229-6.82,92.476-143.841,2.853-153.889c-0.272-3.283-0.567-5.291-1.989-7.946   c15.388-6.799,16.773-29.87,2.684-38.828c-5.226-3.552-11.087-6.395-17.289-8.445c8.38-16.531,9.071-46.238-14.419-49.442   c0.41-14.531-1.335-27.964-1.774-42.112c-0.834-15.068-0.358-26.409-9.872-42.014c15.671-68.327-60.436-124.026-79.767-30.599   c-6.85,0.364-14.173,0.752-21.108,1.041c-5.75-18.197-27.938-43.504-47.518-41.188c-38.898,6.75-38.284,63.014-25.463,93.03   c-11.554,24.106-20.172,26.202-42.163,39.704c-35.384,22.33-31.673,94.598,10.613,110.892c-10.541-0.925-22.797,0.851-24.26,13.593   c-3.562,44.241-2.562,106.804,27.938,152.132c-30.688-15.529-62.443,22.783-36.699,47.792   c12.822,13.929,51.333,41.792,132.811,45.52c93.8,2.014,142.97-30.742,164.343-54.209c2.807-5.225,2.342-11.662-1.371-16.743   c-4.955-6.56-8.554-16.015-17.842-16.917c-0.208-0.463-0.495-0.892-0.749-1.335C364.704,422.688,365.055,422.695,365.401,422.67z"/>
	<g>
		<g>
			<path style="fill:#E5973D;" d="M155.775,238.834c-5.822,12.186-9.049,25.628-9.397,39.153     c57.07,7.301,114.894,8.572,172.225,3.787c2.329-0.194-4.261-48.716-5.047-52.974c-3.396-18.407-8.674-36.468-15.743-53.8"/>
		</g>
		<g>
			<path style="fill:#7836AA;" d="M306.089,231.01c0.506-11.317,3.136-22.645,8.581-32.579c3.772-6.881,8.947-13.064,15.197-17.774     c4.503-3.393,10.935-0.61,11.563,4.994c0.892,7.955-0.635,16.193-4.495,23.213c-5.579,10.146-15.92,17.538-27.326,19.534"/>
		</g>
		<g>
			<path style="fill:#7836AA;" d="M305.021,228.38c10.875-3.172,22.446-4.337,33.605-2.387c7.734,1.351,15.258,4.256,21.734,8.657     c4.57,3.105,4.213,10.052-0.77,12.439c-7.297,3.495-15.682,4.749-23.657,3.345c-11.404-2.008-21.736-9.412-27.304-19.564"/>
		</g>
		<g>
			<path style="fill:#9141C6;" d="M142.413,234.918c3.604,21.078,33.811,24.14,51.269,26.849c22.627,3.511,45.661,3.598,68.5,2.706     c14.339-0.56,29.01-0.615,42.925-4.479c7.425-2.062,11.767-3.804,14.472-11.112c2.434-6.577,0.832-13.309-2.732-18.9     c-2.81-4.408-0.304-7.735-1.25-12.228c-0.838-3.979-2.263-4.341-4.48-6.528c-1.623-1.601-2.263-6.182-3.39-8.617     c-2.603-5.619-7.101-7.527-12.252-11.279c-1.765-1.285-4.338-2.301-6.035-0.931c-1.015,0.82-1.293,2.195-1.666,3.429     c-2.094,6.929-8.675,11.562-15.144,15.07c-26.47,14.357-58.453,18.737-87.947,12.045"/>
		</g>
		<g>
			<g>
				<path style="fill:#ED46A6;" d="M360.057,283.607l-7.398,0.002c-1.465,6.733-3.034,13.438-4.695,20.117l12.098-0.003      c21.578-0.006,39.138,17.545,39.143,39.125l0.001,5.465c0.006,21.58-17.545,39.139-39.123,39.145l-37.619,0.009      c-2.376,6.724-4.811,13.429-7.296,20.117l44.92-0.011c32.67-0.008,59.242-26.595,59.234-59.266l-0.001-5.465      C419.312,310.173,392.727,283.599,360.057,283.607z"/>
			</g>
		</g>
		<g>
			<path style="fill:#5793E5;" d="M352.824,268.101l-101.872,0.025l-37.965,0.009l-74.734,0.019c0,0-26.043,119.513,40.211,154.13     c2.095,1.095,106.509,0,106.509,0c3.223-0.001,48.297-17.506,56.211-38.633c11.735-31.324,13.391-68.238,12.956-91.76     c0,0-2.531-2.979-2.585-4.599c-0.044-1.335,2.306-4.334,2.306-4.334C353.454,273.729,352.824,268.101,352.824,268.101z"/>
		</g>
		<g>
			<g>
				<path style="fill:#468ADB;" d="M337.738,383.204c-22.29-2.561-44.905-2.281-67.126,0.832      c-27.058,3.79-56.355,11.396-80.38-1.615c-23.368-12.655-33.377-40.603-39.252-66.521c-3.616-15.952-6.708-32.672-12.727-47.745      l-27.138,0.007c0,0-0.625,5.603-1.028,14.798c0,0,2.22,2.961,2.174,4.429c-0.05,1.571-2.453,4.702-2.453,4.702      c-0.545,30.986,2.56,85.04,27.432,119.056c0,0,6.54,2.529,7.884,4.113c1.189,1.402-0.317,4.872-0.317,4.872      c5.207,5.347,11.165,9.924,17.978,13.484c2.095,1.095,4.205,2.117,6.325,3.071c2.939,1.322,6.116,2.025,9.338,2.024      l34.581-0.008l37.965-0.01l34.581-0.008c3.223-0.001,6.399-0.705,9.337-2.029c2.12-0.955,4.229-1.979,6.324-3.075      c6.814-3.565,12.772-8.147,17.977-13.501c0,0-0.124-3.634,1.103-5.09c1.284-1.523,6.42-3.851,6.42-3.851      c5.996-8.201,10.726-17.568,14.445-27.496C340.03,383.484,338.879,383.335,337.738,383.204z"/>
			</g>
		</g>
		<g>
			<g>
				<path style="fill:#257093;" d="M109.812,291.96c81.409,1.628,162.78,5.11,244.329-0.061c-0.06-3.255-0.16-6.248-0.279-8.94      c-81.258,0.02-162.517,0.041-243.775,0.061C109.969,285.712,109.87,288.705,109.812,291.96z"/>
			</g>
			<g>
				<path style="fill:#206884;" d="M144.833,420.131c58.117-0.015,116.234-0.029,174.35-0.044c2.713-2.787,5.234-5.771,7.553-8.942      c-63.154,0.016-126.307,0.032-189.461,0.047C139.596,414.362,142.119,417.345,144.833,420.131z"/>
			</g>
		</g>
		<g>
			
				<ellipse transform="matrix(0.4334 -0.9012 0.9012 0.4334 -188.755 403.401)" style="fill:#FFCA14;" cx="226.455" cy="351.821" rx="44.118" ry="44.118"/>
		</g>
		<g>
			<g>
				<g>
					<path style="fill:#400E4E;" d="M215.025,341.06c0.001,3.941-1.9,7.135-4.247,7.136c-2.346,0-4.249-3.193-4.25-7.134       c-0.001-3.941,1.9-7.135,4.247-7.136C213.121,333.926,215.024,337.12,215.025,341.06z"/>
				</g>
				<g>
					<path style="fill:#400E4E;" d="M246.377,341.053c0.001,3.941-1.9,7.135-4.247,7.136c-2.346,0.001-4.249-3.193-4.25-7.134       c-0.001-3.941,1.9-7.136,4.247-7.136C244.473,333.918,246.376,337.112,246.377,341.053z"/>
				</g>
			</g>
			<g>
				<g>
					<path style="fill:#400E4E;" d="M216.811,345.78c0.924,4.958,5.163,8.367,10.181,8.336c5.147-0.032,8.892-5.05,9.124-9.792       c0.071-1.441-2.165-1.434-2.235,0c-0.454,9.254-13.241,9.844-14.915,0.861C218.702,343.769,216.549,344.371,216.811,345.78       L216.811,345.78z"/>
				</g>
			</g>
		</g>
		<g>
			<path style="fill:#257093;" d="M103.63,458.295c0.454,0.09,1.008,0.355,1.547,0.335c1.192-1.767,2.569-3.484,3.311-5.464     l-2.784-1.811c0.368-0.538,0.588-1.549,1.056-1.995c1.492,0.955,3.235,2.053,4.683,3.108c0.886,0.908,2.612,1.044,3.072,2.302     c-2.568,3.625-4.884,7.842-7.495,11.337c-1.408-0.296-3.316-2.087-4.607-2.754c0.195-0.326,0.818-1.118,0.947-1.457     c-27.541-9.494-4.763-41.01,16.374-24.148c-0.166,0.759-1.255,1.66-1.587,2.442C105.773,431.704,88.017,450.237,103.63,458.295z"/>
			<path style="fill:#257093;" d="M143.564,457.884c-1.998,15.524-21.671,28.172-26.588,7.233     c0.178-7.889,4.767-17.119,12.542-19.805C137.048,443.208,145.117,450.098,143.564,457.884z M128.871,463.386     c0.654,0.128,1.222,0.006,1.828-0.345c1.016-1.483,3.954-5.382,0.664-5.781c-0.193-0.085-0.453-0.03-0.661-0.045     c-1.643,1.075-3.443,4.063-2.288,5.941L128.871,463.386z"/>
			<path style="fill:#257093;" d="M168.593,467.478c-0.521,5.619-2.352,11.339-6.288,15.489c-3.969,5.067-11.542,5.916-16.034,1.138     c-7.124-8.27-2.164-22.988,6.989-27.595C160.518,453.598,169.282,459.569,168.593,467.478z M154.582,474.546     c0.663,0.06,1.213-0.132,1.781-0.538c0.845-1.585,3.344-5.782,0.033-5.819c-0.201-0.064-0.455,0.016-0.664,0.026     c-1.514,1.243-2.984,4.415-1.629,6.151L154.582,474.546z"/>
			<path style="fill:#257093;" d="M168.841,487.654c1.392-5.428,2.85-11.07,4.447-16.476c0.915-2.936,0.842-6.818,2.422-9.243     c9.097,1.25,16.247,7.113,13.782,16.887c-2.114,9.522-11.671,16.019-21.139,12.241     C167.784,490.669,168.821,488.146,168.841,487.654z M174.234,481.897c-0.45,1.506-1.078,4.013-1.391,5.552     c5.548,1.402,8.853-4.229,9.956-8.829c2.126-4.736,1.522-11.043-4.541-12.357C176.6,471.285,175.573,476.721,174.234,481.897z"/>
			<path style="fill:#257093;" d="M221.444,488.268c-2.329-3.634-4.82-7.2-7.202-10.69c-0.296,7.204-1.288,14.585-1.556,21.779     c-1.313,0.499-2.805,0.224-4.154,0.439c-0.663-0.062-1.615,0.369-2.139-0.267c0.829-9.684,0.22-19.471,1.11-29.204     c-0.426-1.201,5.387-0.145,5.839-0.39c3.78,6.068,7.366,12.107,11.85,17.722c4.338-5.081,8.118-10.898,11.427-16.735     c1.924-0.044,5.711,0.308,7.5,0.475c-0.859,9.856-0.36,19.931-1.433,29.759c-1.565,0.644-4.952-0.026-6.697,0.109     c-0.23-7.603,0.39-15.255,0.413-22.835l-0.203-0.109c-0.035,0.033-0.052,0.066-0.052,0.102c-3.625,3.888-5.97,9.007-9.382,13.115     c-1.036,0.134-2.174-0.049-3.221,0.009C222.788,490.658,222.13,489.195,221.444,488.268z"/>
			<path style="fill:#257093;" d="M270.204,473.427c2.286,5.159,3.471,11.048,2.057,16.589c-1.346,8.524-10.887,12.084-17.444,6.529     c-6.825-5.534-8.284-18.078-3.347-25.229C256.392,465.24,266.961,466.18,270.204,473.427z M261.415,486.422     c0.608-0.266,0.994-0.706,1.292-1.337c-0.035-1.797,0.106-6.673-2.808-5.098c-0.204,0.045-0.389,0.238-0.567,0.347     c-0.714,1.827-0.457,5.312,1.58,6.168L261.415,486.422z"/>
			<path style="fill:#257093;" d="M286.635,472.515c3.365,3.047,6.961,6.368,10.437,9.398c-1.303-5.307-3.548-11.378-5.101-16.714     c-1.117-4.622-2.927-5.022,2.878-5.75c2.975,8.995,5.776,17.985,8.376,26.982c0.001,0.673,1.052,1.57,0.038,1.861     c-0.829,0.185-2.272,0.836-3.028,0.935c-5.363-5.82-11.927-10.295-18.011-15.406c1.359,6.076,4.271,13.157,5.608,19.229     c-8.245,2.946-4.889,1.542-8.258-7.184c-2.231-5.599-3.825-12.165-5.783-17.892l0.158-0.531c1.82-0.594,3.88-1.322,5.759-1.773     C281.984,468.11,284.179,470.371,286.635,472.515z"/>
			<path style="fill:#257093;" d="M313.305,477.824c1.341,4.541,4.262,4.841-1.311,6.688c-4.391-8.859-7.809-18.151-11.958-27.116     c-0.471-0.824,3.426-1.978,4.045-1.852C307.089,462.756,310.265,470.751,313.305,477.824z"/>
			<path style="fill:#257093;" d="M322.08,457.886c3.875,2.374,8.011,4.983,11.989,7.323c-2.255-4.978-5.58-10.529-8.083-15.491     c-1.951-4.346-3.804-4.394,1.771-6.185c4.578,8.296,8.982,16.62,13.191,24.986c0.121,0.66,1.323,1.349,0.378,1.82     c-0.78,0.332-2.078,1.242-2.803,1.471c-5.927-4.191-14.924-9.209-20.367-11.458c2.477,5.671,6.493,11.88,8.879,17.499     c-7.556,4.407-4.527,2.421-9.437-5.545c-3.221-5.093-5.997-11.254-8.973-16.525l0.057-0.548c1.677-0.922,3.575-2.014,5.337-2.808     C316.698,454.413,319.271,456.228,322.08,457.886z"/>
			<path style="fill:#257093;" d="M360.503,452.606c0.258-0.383,0.713-0.798,0.902-1.303c-1.182-1.776-2.247-3.697-3.797-5.141     l-2.735,1.889c-0.358-0.544-1.209-1.136-1.445-1.736c1.454-1.015,3.129-2.215,4.657-3.15c1.177-0.475,1.96-2.016,3.299-1.967     c2.374,3.756,5.392,7.498,7.635,11.243c-0.807,1.192-3.194,2.274-4.3,3.216c-0.225-0.305-0.72-1.183-0.987-1.429     c-19.257,21.856-39.739-11.192-16.105-24.33c0.64,0.442,1.057,1.792,1.653,2.397C336.73,440.513,347.11,463.98,360.503,452.606z"/>
		</g>
		<g>
			<g>
				<g>
					<path style="fill:#FFCA14;" d="M226.956,304.134c1.09,0,1.972-4.403,1.971-9.834c-0.001-5.431-0.886-9.833-1.975-9.832       c-1.09,0-1.972,4.403-1.971,9.833C224.982,299.732,225.867,304.134,226.956,304.134z"/>
				</g>
			</g>
			<g>
				<g>
					<path style="fill:#FFCA14;" d="M260.243,319.146c0.771,0.77,4.508-1.719,8.347-5.56c3.839-3.841,6.326-7.579,5.556-8.349       c-0.77-0.77-4.507,1.719-8.347,5.56C261.96,314.638,259.473,318.376,260.243,319.146z"/>
				</g>
			</g>
			<g>
				<g>
					<path style="fill:#FFCA14;" d="M273.737,352.727c0,1.09,4.403,1.972,9.834,1.971c5.431-0.001,9.833-0.886,9.832-1.975       c0-1.09-4.403-1.972-9.833-1.971C278.139,350.753,273.737,351.638,273.737,352.727z"/>
				</g>
			</g>
			<g>
				<g>
					<path style="fill:#E5B52E;" d="M259.534,386.014c-0.77,0.771,1.719,4.508,5.56,8.347c3.841,3.839,7.579,6.326,8.349,5.556       c0.77-0.771-1.719-4.508-5.56-8.347C264.042,387.73,260.304,385.243,259.534,386.014z"/>
				</g>
			</g>
			<g>
				<g>
					<path style="fill:#E5B52E;" d="M225.953,399.508c-1.09,0-1.972,4.403-1.971,9.834c0.001,5.431,0.886,9.833,1.975,9.832       c1.09,0,1.972-4.403,1.971-9.833C227.927,403.909,227.043,399.507,225.953,399.508z"/>
				</g>
			</g>
			<g>
				<g>
					<path style="fill:#E5B52E;" d="M192.667,385.304c-0.771-0.77-4.508,1.719-8.347,5.56c-3.839,3.841-6.326,7.579-5.556,8.349       c0.77,0.77,4.507-1.719,8.347-5.56C190.95,389.813,193.437,386.074,192.667,385.304z"/>
				</g>
			</g>
			<g>
				<g>
					<path style="fill:#FFCA14;" d="M179.173,351.724c0-1.09-4.403-1.972-9.834-1.97c-5.431,0.001-9.833,0.886-9.832,1.976       c0,1.089,4.403,1.972,9.833,1.97C174.771,353.698,179.173,352.813,179.173,351.724z"/>
				</g>
			</g>
			<g>
				<path style="fill:#206884;" d="M143.232,283.012c-11.049,0.003-22.097,0.006-33.146,0.008c-0.029,0.67-0.057,1.359-0.084,2.066      c0,0.012-0.001,0.025-0.001,0.038c-0.026,0.7-0.051,1.417-0.074,2.152c0,0.005,0,0.011,0,0.016      c-0.046,1.488-0.086,3.045-0.115,4.668c11.989,0.24,23.976,0.52,35.964,0.807C144.984,289.493,144.146,286.234,143.232,283.012z      "/>
			</g>
			<path style="fill:#E5B52E;" d="M253.482,386.679c-18.727,2.924-37.76,5.254-54.775-0.567c7.583,6.144,17.239,9.829,27.759,9.827     C236.649,395.936,246.017,392.475,253.482,386.679z"/>
			<path style="fill:#E5B52E;" d="M162.191,350.376c-1.66,0.354-2.685,0.829-2.685,1.353c0,0.663,1.636,1.247,4.135,1.605     C163.144,352.358,162.66,351.372,162.191,350.376z"/>
			<g>
				<g>
					<path style="fill:#FFCA14;" d="M193.376,317.628c0.77-0.771-1.719-4.508-5.56-8.347c-3.841-3.839-7.579-6.326-8.349-5.556       c-0.77,0.77,1.719,4.507,5.56,8.346C188.867,315.911,192.606,318.399,193.376,317.628z"/>
				</g>
			</g>
		</g>
		<g>
			<g>
				<path style="fill:#FFF0FF;" d="M315.806,321.722c-2.711,0.001-5.24,0.855-7.411,2.316c-1.592-11.674-8.891-20.5-17.665-20.497      c-9.867,0.002-17.868,11.167-17.974,24.991c-2.26-2.353-5.228-3.794-8.492-3.794c-7.012,0.002-12.699,6.602-12.793,14.782      l22.987-0.006l2.606-0.001l24.294-0.006l5.662-0.001l23.242-0.006c0.035-0.465,0.063-0.932,0.063-1.407      C330.322,329.05,323.822,321.72,315.806,321.722z"/>
			</g>
			<g>
				<path style="fill:#FFF0FF;" d="M192.38,321.55c-0.636-6.473-5.405-11.505-11.199-11.503c-1.567,0-3.059,0.37-4.415,1.035      c-1.425-7.214-7.021-12.603-13.72-12.601c-7.702,0.002-13.948,7.125-14.061,15.956c-1.071-0.507-2.241-0.795-3.471-0.795      c-4.262,0.001-7.811,3.377-8.817,7.921L192.38,321.55z"/>
			</g>
			<g>
				<path style="fill:#FFF0FF;" d="M297.284,405.585c-0.485-4.938-4.123-8.776-8.543-8.775c-1.195,0-2.333,0.282-3.368,0.79      c-1.087-5.503-5.356-9.614-10.466-9.613c-5.875,0.001-10.64,5.435-10.727,12.172c-0.817-0.387-1.709-0.607-2.648-0.606      c-3.251,0.001-5.959,2.576-6.726,6.043L297.284,405.585z"/>
			</g>
			<g>
				<path style="fill:#FFF0FF;" d="M226.492,394.065c-0.865-8.81-7.356-15.659-15.243-15.656c-2.133,0-4.163,0.504-6.009,1.409      c-1.939-9.818-9.556-17.153-18.673-17.151c-10.482,0.003-18.983,9.697-19.138,21.717c-1.458-0.69-3.05-1.083-4.724-1.082      c-5.801,0.001-10.631,4.597-12.001,10.782L226.492,394.065z"/>
			</g>
		</g>
		<g>
			<g>
				<path style="fill:#FFAF44;" d="M319.253,107.873c0.911,7.405,0.832,15.105,1.274,22.411c1.3,21.451,4.405,46.158-5.659,65.659      c-8.803,17.058-24.188,29.726-41.525,37.497c-18.451,8.27-38.778,11.271-58.866,13.582c-28.993,3.335-63.295,5.511-89.815-9.008      c-16.292-8.919-23.62-23.724-23.973-41.761c-0.293-14.974,3.986-32.765,17.277-41.496c9.922-6.618,21.111-11.462,29.837-19.766      c4.983-4.667,8.984-8.702,11.413-15.021c0.902-2.346,10.328-17,9.759-17.889c-8.161-12.738-10.856-31.599-9.296-46.481      c0.985-9.399,4.139-23.285,12.546-28.959c8.87-5.986,18.715,1.595,24.804,7.993c8.708,9.15,14.018,18.511,15.574,31.075      c0.136,1.099,42.515-1.658,46.732-1.656c0.886-7.74,1.781-15.52,3.894-23.018c2.637-9.358,10.407-25.417,22.15-25.489      c12.378-0.076,18.202,13.365,22.183,23.023c5.109,12.397,6.662,28.107,2.2,41.077c-0.323,0.939-0.651,1.918-0.537,2.905      c0.153,1.317,1.056,2.404,1.88,3.443C316.177,92.393,318.28,99.965,319.253,107.873z"/>
			</g>
			<g>
				<path style="fill:#ED46A6;" d="M169.249,178.797c-3.358-5.191-11.402-6.487-17.041-7.376c-4.543-0.716-9.153-0.906-13.745-0.683      c-4.592-0.22-9.203-0.028-13.745,0.69c-5.639,0.891-13.682,2.192-17.038,7.384c-1.336,2.068-1.755,4.602-1.815,7.065      c-0.25,10.281,7.308,19.686,15.084,25.594c5.439,4.133,11.445,5.851,17.525,5.345c6.081,0.502,12.085-1.218,17.522-5.354      c7.772-5.912,15.326-15.321,15.071-25.601C171.006,183.398,170.587,180.865,169.249,178.797z"/>
			</g>
			<g>
				<g>
					<path style="fill:#BC318C;" d="M164.509,203.132c-1.754-1.847-4.217-3.012-6.965-3.012c-5.314,0.001-9.62,4.31-9.618,9.623       c0,1.999,0.612,3.854,1.656,5.392c2.202-0.885,4.35-2.103,6.415-3.674C159.017,209.164,161.999,206.333,164.509,203.132z"/>
				</g>
				<g>
					<path style="fill:#BC318C;" d="M120.949,211.471c2.066,1.57,4.215,2.787,6.417,3.671c1.043-1.539,1.653-3.394,1.653-5.393       c-0.001-5.313-4.31-9.62-9.623-9.618c-2.748,0.001-5.211,1.167-6.964,3.015C114.943,206.345,117.926,209.174,120.949,211.471z"/>
				</g>
			</g>
			<g>
				<path style="fill:#F4C4F0;" d="M152.829,183.763c0.001,4.146-7.236,7.508-16.165,7.51c-8.929,0.002-16.168-3.357-16.169-7.502      c-0.001-4.146,7.236-7.508,16.165-7.51C145.589,176.258,152.828,179.617,152.829,183.763z"/>
			</g>
			<g>
				<path style="fill:#751C48;" d="M310.746,173.243c4.005-2.092,7.709-4.656,11.131-7.567c0.505-11.877-0.664-24.085-1.35-35.392      c-0.443-7.306-0.364-15.006-1.274-22.411c-0.973-7.908-3.075-15.481-8.148-21.879c-0.824-1.039-1.728-2.126-1.88-3.443      c-0.114-0.987,0.214-1.965,0.537-2.905c4.462-12.97,2.909-28.68-2.2-41.077c-3.98-9.658-9.805-23.098-22.183-23.023      c-11.743,0.072-19.513,16.13-22.15,25.488c-2.113,7.499-3.007,15.278-3.894,23.018c-3.137-0.001-27.38,1.523-39.655,1.852      c-14.349,26.74-15.923,60.414-2.832,87.922c2.086,4.383,4.524,8.636,7.692,12.314c6.595,7.655,16.096,12.433,25.962,14.613      c9.866,2.181,20.124,1.925,30.161,0.759C291.051,180.308,301.475,178.086,310.746,173.243z"/>
			</g>
			<g>
				<g>
					<g>
						<path style="fill:#351137;" d="M182.887,145.368c1.069,0,1.935-5.327,1.933-11.897c-0.002-6.57-0.87-11.896-1.939-11.896        c-1.069,0-1.935,5.327-1.933,11.897C180.949,140.042,181.818,145.368,182.887,145.368z"/>
					</g>
				</g>
				<g>
					<g>
						<path style="fill:#351137;" d="M233.614,145.355c1.07,0,1.935-5.327,1.933-11.897c-0.002-6.57-0.87-11.897-1.939-11.896        c-1.069,0-1.935,5.327-1.933,11.897C231.677,140.03,232.545,145.356,233.614,145.355z"/>
					</g>
				</g>
				<g>
					<g>
						<path style="fill:#351137;" d="M219.991,190.746c-0.594-0.01-0.759,2.595-2.002,6.164c-0.653,1.77-1.664,3.689-3.371,5.257        c-1.697,1.571-4.066,2.831-6.704,3.244c-2.646,0.431-5.161-0.07-7.205-1.176c-2.069-1.083-3.61-2.682-4.69-4.16        c-2.143-3.031-2.398-5.587-2.997-5.557c-0.44-0.075-1.289,2.798,0.632,6.937c0.978,1.994,2.649,4.231,5.25,5.859        c2.552,1.663,6.134,2.517,9.626,1.922c3.503-0.554,6.541-2.32,8.62-4.551c2.117-2.258,3.107-4.934,3.486-7.067        C221.327,193.259,220.445,190.723,219.991,190.746z"/>
					</g>
				</g>
			</g>
			<g>
				<g>
					<path style="fill:#ED46A6;" d="M196.788,71.829c0.142-0.898-0.038-1.856-0.256-2.757c-2.31-9.561-7.688-19.456-15.364-25.789       c-7.361-6.073-8.835,6.015-9.248,10.751c-0.722,8.287-1.193,16.907,1.048,24.816C181.155,77.973,189.35,75.56,196.788,71.829z"/>
				</g>
				<g>
					<path style="fill:#ED46A6;" d="M287.831,67.064c2.188-0.247,4.364-0.59,6.512-1.042c0.366-0.832,0.436-1.805,0.455-2.731       c0.144-6.982-1.204-13.98-3.863-20.434c-1.05-2.548-6.007-15.093-9.998-11.385c-4.003,3.719-6.199,9.217-7.717,14.355       c-0.525,1.776-4.666,16.857-3.575,17.264C275.488,65.272,281.622,66.584,287.831,67.064z"/>
				</g>
			</g>
		</g>
	</g>
</g>















</svg>
