<?xml version="1.0" encoding="UTF-8"?>
<!-- Generator: Adobe Illustrator 25.2.1, SVG Export Plug-In . SVG Version: 6.00 Build 0)  -->
<svg xmlns="http://www.w3.org/2000/svg" xmlns:xlink="http://www.w3.org/1999/xlink" version="1.1" id="Capa_1" x="0px" y="0px" viewBox="0 0 512 512" style="enable-background:new 0 0 512 512;" xml:space="preserve" width="512" height="512">
<g>
	<path style="fill:#FFFFFF;" d="M403.671,210.017c-0.665-0.655-3.814-3.914-4.713-4.819c-2.957-10.616-8.476-20.14-16.24-27.918   l-1.879-13.459c-0.001-0.008-0.001-0.017-0.002-0.025l-1.038-7.429c0-0.002-0.001-0.004-0.001-0.006l-2.758-19.757   c-0.001-0.006-0.001-0.011-0.002-0.016l-1.064-7.62c-0.001-0.006-0.003-0.011-0.003-0.017l-3.171-22.717l-0.649-4.655   c-0.001-0.004-0.002-0.008-0.002-0.012l-2.729-19.544l0-0.007l-0.388-2.778c0.369,0.107,0.726,0.195,1.098,0.308   c5.24,1.513,10.091,3.477,13.991,5.055c6.175,2.503,10.257,4.155,15.078,3.847c4.612-0.295,8.694-2.404,11.492-5.936   c0.052-0.064,0.102-0.13,0.151-0.194c2.356-3.075,8.776-14.135-7.457-27.305c-0.915-0.747-1.887-1.467-2.885-2.174   c6.133-3.164,11.626-7.921,10.781-16.852c-0.007-0.082-0.017-0.163-0.025-0.243c-0.417-3.755-3.336-15.906-23.343-14.626   l-0.835,0.06c-0.382,0.03-0.775,0.086-1.161,0.125c1.831-6.267,1.482-12.279-4.44-17.458c-0.071-0.063-0.145-0.125-0.221-0.188   c-3.089-2.599-7.044-3.885-11.139-3.623c-5.278,0.338-10.334,3.168-15.9,8.896c-1.198,1.231-2.379,2.571-3.531,3.993   c-1.161-1.311-2.349-2.545-3.558-3.67c-6.166-5.76-11.701-8.272-17.421-7.907c-3.659,0.234-7.127,1.73-9.765,4.213   c-0.068,0.065-0.138,0.13-0.205,0.195c-4.355,4.258-5.254,8.953-4.498,13.648c-0.719-0.003-1.467-0.038-2.142,0.005   c-10.476,0.67-15.437,7.233-16.586,13.152c-0.019,0.095-0.037,0.188-0.054,0.286c-1.55,8.902,3.679,14.142,9.642,17.84   c-14.104,9.371-10.616,19.948-9.117,23.103c0.044,0.091,0.088,0.183,0.134,0.272c1.149,2.3,4.282,6.975,11.06,8.418l-20.593,23.535   c-0.002,0.002-0.003,0.003-0.004,0.005l-7.932,9.063c-0.004,0.004-0.006,0.009-0.01,0.013l-22.296,25.48   c-0.002,0.002-0.004,0.004-0.004,0.004l-7.064,8.072c-0.003,0.004-0.005,0.007-0.008,0.011l-7.32,8.366   c-6.555,3.845-11.967,8.906-15.861,14.744c-14.654-0.26-29.929,6.153-43.879,18.63c-5.753,5.15-10.739,10.688-15.562,16.045   c-4.992,5.545-9.708,10.783-14.851,15.136c-4.389,3.715-9.393,7.044-14.694,10.568c-5.469,3.638-11.122,7.397-16.563,11.897   c-15.303,12.661-23.826,28.225-23.999,43.819c-0.112,9.889,3.192,20.155,9.7,28.786c-5.431,14.045-6.835,30.169-5.826,43.634   c0.114,1.513,0.291,2.993,0.498,4.458c-8.123,2.727-16.25,5.657-24.21,8.824c-0.204,0.076-0.469,0.174-0.795,0.291l-3.644,1.316   c-6.009,2.172-9.963,7.944-9.833,14.33l0.009,0.181c-0.03,1.534,0.163,3.058,0.555,4.515c-0.05,0.019-0.1,0.039,0.001,0.003   c5.765,19.594,35.43,95.323,132.374,113.876c92.527,17.708,165.986-28.962,189.215-52.475c0.611-0.458,1.219-0.944,1.826-1.484   c1.313-1.17,2.396-2.376,3.278-3.664c1.009-1.273,1.785-2.666,2.35-4.121c0.096-0.215,0.174-0.415,0.225-0.594l-0.031-0.005   c1.344-3.934,1.102-8.278-0.951-12.077c-0.544-1.004-1.198-1.942-1.955-2.795c-3.585-3.763-6.99-7.301-10.517-11.19   c-0.009-0.249-0.023-0.499-0.039-0.751c0.009-0.174,0.001-0.367,0.008-0.543c1.485,0.033,2.979,0.028,4.488-0.068l0.002,0   c14.695-0.94,29.238-7.952,39.899-19.234c11.825-12.511,19.49-29.921,22.781-51.748   C454.262,298.845,436.467,242.381,403.671,210.017z"/>
	<g>
		<g>
			<polygon style="fill:#27A2C8;" points="350.798,56.391 328.645,81.709 329.892,85.271 320.519,90.996 298.632,116.009      300.481,118.883 290.859,124.892 268.663,150.259 270.144,153.553 261.581,158.352 252.45,168.787 370.637,198.483      366.082,165.857 361.665,161.17 365.046,158.439 362.36,139.201 358.07,135.422 361.219,131.027 358.477,111.386      354.202,107.719 357.395,103.636 354.664,84.076 350.318,79.904 353.609,76.521    "/>
		</g>
		<g>
			<g>
				<path style="fill:#BC318C;" d="M354.664,84.076l-1.092-7.82c-2.648,0.547-5.311,1.098-8.001,1.655      c-5.642,1.168-11.183,2.318-16.622,3.451l-8.43,9.634c8.596-1.675,17.507-3.461,26.652-5.354      C349.69,85.12,352.184,84.598,354.664,84.076z"/>
			</g>
			<g>
				<path style="fill:#BC318C;" d="M298.791,115.827l-7.933,9.065c15.22-2.795,32.003-6.056,49.626-9.704      c6.119-1.268,12.123-2.538,17.993-3.802l-1.082-7.751c-6.039,1.242-12.22,2.518-18.511,3.821      C324.834,110.365,311.355,113.176,298.791,115.827z"/>
			</g>
			<g>
				<path style="fill:#BC318C;" d="M268.548,150.39l-7.062,8.071c20.393-3.473,45.38-8.152,72.312-13.726      c9.824-2.035,19.352-4.076,28.485-6.088l-1.064-7.62c-9.312,1.905-19.023,3.906-29.022,5.977      C308.879,141.829,287.09,146.396,268.548,150.39z"/>
			</g>
			<g>
				<path style="fill:#BC318C;" d="M280.768,175.902l16.964,4.262c9.429-1.825,19.263-3.79,29.379-5.883      c13.654-2.828,26.746-5.669,38.971-8.424l-1.037-7.429c-12.417,2.523-25.703,5.255-39.535,8.121      C309.711,169.82,294.629,172.968,280.768,175.902z"/>
			</g>
		</g>
		<g>
			<path style="fill:#FFCA14;" d="M235.758,188.428c2.058-8.624,8.798-15.605,16.692-19.641c7.895-4.036,16.868-5.455,25.718-5.999     c26.753-1.645,60.628,3.227,83.98,17.179c17.778,10.622,26.249,29.39,24.124,50.038"/>
		</g>
		<g>
			<path style="fill:#751C48;" d="M233.066,187.367c-14.332-3.11-28.997,4.357-39.926,14.136     c-10.929,9.779-19.529,21.975-30.722,31.45c-9.841,8.33-21.45,14.352-31.385,22.571c-9.934,8.218-18.456,19.618-18.601,32.51     c-0.241,21.414,19.549,34.051,38.702,34.72c15.08,0.527,30.268-2.299,44.148-8.215"/>
		</g>
		<g>
			<path style="fill:#E28B7D;" d="M360.773,200.615c-23.266-21.996-65.507-25.092-95.526-20.618     c-15.302,2.281-30.256,6.909-44.091,13.847c-14.182,7.112-21.427,22.963-27.84,37.053c-7.604,16.705-7.466,38.848-20.677,51.826     c-11.943,11.733-28.164,11.968-40.375,22.48c-13.825,11.901-17.292,36.704-15.996,53.962     c2.481,33.004,34.527,52.137,61.995,62.932c42.724,16.79,92.648,10.309,134.582-5.53c38.802-14.655,57.577-51.513,59.756-91.468     c1.378-25.261,2.434-49.26,6.846-74.204C382.748,232.229,374.45,213.545,360.773,200.615z"/>
		</g>
		<g>
			<g>
				<path style="fill:#FFF0FF;" d="M235.35,297.839c-5.067,5.945-12.662,9.652-21.08,9.485      c-14.898-0.296-26.736-12.613-26.441-27.512c0.296-14.898,12.613-26.736,27.511-26.441c0.602,0.012,1.183,0.074,1.774,0.125      C231.16,254.698,239.25,293.264,235.35,297.839z"/>
			</g>
			<g>
				<path style="fill:#FFF0FF;" d="M311.262,308.262c-5.067,5.943-12.661,9.649-21.078,9.482      c-14.898-0.296-26.736-12.613-26.441-27.511c0.296-14.899,12.613-26.736,27.512-26.441c0.606,0.012,1.178,0.074,1.774,0.125      C307.068,265.124,315.163,303.686,311.262,308.262z"/>
			</g>
		</g>
		<g>
			<path style="fill:#27A2C8;" d="M96.619,395.035c0.716,1.848,2.288,7.038,3.495,8.672c5.46-1.55,10.72-3.92,16.071-5.804     l2.071,5.733c-10.058,4.094-21.302,7.184-31.558,11.396c-0.906-1.854-1.305-3.707-2.561-5.251l0.222-0.383     c3.224-1.106,6.557-2.341,9.791-3.417c2.435-1.007,2.789-0.659,1.469-3.314c-0.715-1.805-1.768-4.005-2.417-5.851     c-0.152-0.349-0.206-1.3-0.722-0.83c-3.62,1.61-7.48,2.709-11.256,3.884c-0.952-0.67-0.793-2.386-1.79-3.11     c-0.312-0.848-0.776-1.891-0.664-2.847c10.618-4.101,21.237-7.658,31.748-11.708l2.358,6.538     C108.079,391.481,101.883,392.943,96.619,395.035z"/>
			<path style="fill:#27A2C8;" d="M97.709,419.756c6.21-1.263,12.492-1.861,18.711-3.1c2.953-0.806,5.911-1.213,8.896-1.872     c1.296-0.451,2.029,2.227,2.668,2.911c-7.916,9.273-15.431,18.931-22.548,28.825c-0.463-1.08-1.2-2.206-1.841-3.143     c1.002-1.907,2.054-4.229,3.121-6.164c0.213-0.779,0.455-1.039,0.624-1.712c-2.079-3.984-4.735-7.792-7.223-11.674     c-1.731,0.05-3.715-0.101-5.42,0.294c-0.592-0.058-3.311,0.459-3.626-0.264l-1.508-2.482c0.131-0.459,0.047-0.362,0.537-0.325     c0.214-0.166,1.08-0.225,1.297-0.39C92.822,420.659,96.263,419.971,97.709,419.756z M115.996,422.645     c-3.712-0.182-7.717,0.937-11.554,0.951c1.8,2.893,3.471,5.836,5.323,8.765C111.46,429.305,114.061,425.589,115.996,422.645z"/>
			<path style="fill:#27A2C8;" d="M134.785,450.079c-4.659,1.286-9.429-1.087-12.259-4.742c-3.66,2.912-7.268,5.728-10.875,8.722     c-1.145-0.387-2.086-1.587-2.99-2.353c8.503-7.61,16.781-15.741,25.087-23.542C142.276,433.743,146.94,445.44,134.785,450.079z      M132.108,444.314c4.127-2.637,5.77-6.699,1.939-10.256c-3.14,2.841-6.289,5.67-9.261,8.609     C126.013,445,129.713,446.079,132.108,444.314z"/>
			<path style="fill:#27A2C8;" d="M150.528,462.117c-4.355,2.102-9.471,0.611-12.91-2.479c-3.084,3.519-6.127,6.937-9.147,10.523     c-1.193-0.177-2.336-1.193-3.359-1.78c7.008-9.006,13.705-18.483,20.486-27.642C154.983,444.711,161.658,455.382,150.528,462.117     z M146.863,456.92c3.6-3.327,4.48-7.619,0.08-10.437c-2.581,3.36-5.179,6.698-7.577,10.127     C140.995,458.681,144.82,459.09,146.863,456.92z"/>
			<path style="fill:#27A2C8;" d="M164.074,459.544c0.876,1.876,0.996,4.071,1.791,6c2.193-0.905,4.834-2.534,7.125-3.597     c0.175-0.197,1.043-0.647,1.242-0.813c1.505-0.835,3.167-1.836,4.523-2.955c0.461-0.148,0.345-0.21,0.711-0.055     c0.774,1.598,1.51,3.172,1.701,4.956c-4.546,3.082-9.873,5.34-14.738,7.716c-2.696,6.046-5.224,11.967-7.6,18.069     c0,0-0.398,0.881-0.398,0.881c-1.286,0.143-3.082-0.693-4.237-1.413c-0.328-1.596,0.993-2.686,1.437-4.287     c2.005-4.744,4.625-9.195,6.566-13.848c-0.374-3.873-2.432-8.046-3.251-12.032c-0.184-0.466-0.279-1.327-0.301-1.824     c-0.344-1.044-0.632-3.069-0.8-4.176l0.115-0.259c1.234-0.269,2.458-0.75,3.65-1.163l0.675,0.305     c0.088,0.93,0.361,2.016,0.498,2.911C163.473,455.682,163.524,457.773,164.074,459.544z"/>
			<path style="fill:#27A2C8;" d="M218.144,488.248c1.099,3.99-1.459,7.765-4.744,9.856c-5.298,1.933-11.067,0.82-16.385-0.37     c1.196-10.845,1.65-21.957,3.316-32.757c4.025,0.618,9.951,0.147,13.245,2.767c4.986,2.862,2.471,12.299-2.924,13.059     c0.593,0.486,0.823,0.276,1.419,0.763C214.996,482.485,218.037,484.926,218.144,488.248z M203.731,494.408     c4.042,0.696,7.835-1.35,7.467-5.889c0.885-3.588-2.626-4.637-5.287-5.293l-3.631-0.335c-0.452,3.614-0.851,7.384-1.077,11.001     C202.072,494.122,202.87,494.246,203.731,494.408z M204.615,476.811c3.209-0.608,2.983-6.618-0.689-6.125     c-0.149,1.961-0.715,4.028-0.559,6.011L204.615,476.811z"/>
			<path style="fill:#27A2C8;" d="M227.378,494.83c-0.248,2.075,0.252,4.396-0.305,6.118c-0.16,0.354-3.767,0.046-4.077,0.09     c-0.424-11.018,0.327-22.03,0.197-33.046c-0.19-1.031,4.457-0.451,4.959-0.039C227.925,476.664,227.508,486.249,227.378,494.83z"/>
			<path style="fill:#27A2C8;" d="M231.678,485.731c-0.108-5.896-0.659-12.444-1.001-18.313c2.384-0.342,5.166-0.768,7.617-0.485     c0.039,0.037,0.08,0.055,0.116,0.053c3.976-0.252,9.168,1.187,11.244,4.874c2.732,4.874,1.59,12.08-3.432,15.107     c-1.658,0.394-3.124,0.655-4.807,0.861c2.883,3.832,7.128,6.864,9.66,11.052c-0.424,0.843-1.111,1.592-2.005,2.149     c-3.506-2.957-7.041-6.521-10.662-9.404c-0.64,2.864-0.071,6.034-0.079,9.011c-1.999,0.21-4.486,0.861-6.276-0.037     C232.002,496.091,231.479,490.23,231.678,485.731z M241.255,478.596c0.015-0.949,0.259-2.391-0.322-3.123     c-4.523-4.253-2.173,2.848-2.503,4.858l0.968-0.048C240.086,479.746,241.001,479.531,241.255,478.596z"/>
			<path style="fill:#27A2C8;" d="M272.746,496.966c-0.393,0.128-1.179,0.372-1.532,0.492c-1.646,0.203-4.25,0.881-5.73,0.634     c-1.275-7.972-3.4-19.805-4.778-27.903c0.156-1.334-7.239,0.883-8.452,0.234l-0.599-3.481c7.616-1.651,15.504-2.673,23.217-3.8     c0.049,0.663,0.567,2.764,0.578,3.367c-2.087,1.323-4.974,0.986-7.278,1.708C269.185,476.972,271.208,488.156,272.746,496.966z"/>
			<path style="fill:#27A2C8;" d="M288.631,476.9c1.875-0.641,7.129-1.987,8.811-3.124c-1.314-5.521-3.458-10.878-5.116-16.304     l5.82-1.825c3.655,10.233,6.272,21.586,10.039,32.016c-1.893,0.827-3.762,1.146-5.358,2.335l-0.373-0.239     c-0.968-3.27-2.057-6.649-2.996-9.926c-0.894-2.48-0.547-2.815-3.249-1.609c-1.834,0.637-4.075,1.596-5.948,2.165     c-0.357,0.135-1.305,0.156-0.858,0.689c1.453,3.683,2.385,7.586,3.398,11.407c-0.708,0.923-2.412,0.691-3.181,1.654     c-0.861,0.278-1.92,0.698-2.873,0.546c-3.644-10.782-6.746-21.542-10.342-32.215l6.627-2.08     C285.567,465.29,286.765,471.553,288.631,476.9z"/>
			<path style="fill:#27A2C8;" d="M312.61,480.931c-2.585-5.69-5.273-11.606-7.671-17.416c-1.536-2.946-2.883-5.783-4.369-8.773     c-0.222-0.459-0.288-0.695,0.004-0.944c8.764-5.281,19.087-5.196,23.778,5.014c4.83,9.739,1.082,22.074-9.779,25.413     C313.801,484.286,312.937,481.37,312.61,480.931z M313.264,472.155c0.66,1.619,1.876,4.239,2.675,5.793     c5.794-2.666,4.732-9.867,2.462-14.63c-1.46-5.6-6.409-10.651-12.586-7.548C307.889,461.29,310.8,466.73,313.264,472.155z"/>
			<path style="fill:#27A2C8;" d="M335.388,466.192c-1.413-6.178-2.16-12.445-3.549-18.632c-0.875-2.931-1.357-5.879-2.083-8.845     c-0.492-1.285,2.18-2.082,2.846-2.737c9.46,7.693,19.295,14.975,29.359,21.85c-1.077,0.482-2.176,1.259-3.104,1.917     c-1.929-0.954-4.271-1.956-6.233-2.971c-0.785-0.199-1.051-0.43-1.728-0.586c-3.935,2.174-7.674,4.926-11.499,7.5     c0.096,1.73-0.008,3.717,0.425,5.414c-0.043,0.592,0.541,3.298-0.176,3.63l-2.448,1.568c-0.457-0.121-0.364-0.039-0.336-0.527     c-0.17-0.213-0.251-1.077-0.421-1.288C336.409,471.059,335.636,467.632,335.388,466.192z M337.838,447.843     c-0.095,3.717,1.12,7.692,1.228,11.527c2.847-1.873,5.752-3.605,8.632-5.534C344.603,452.219,340.826,449.703,337.838,447.843z"/>
			<path style="fill:#27A2C8;" d="M353.432,428.785c2.07-0.027,4.119,0.772,6.205,0.842c0.076-2.37-0.312-5.448-0.337-7.972     c-0.113-0.243-0.157-1.221-0.23-1.468c-0.137-1.715-0.368-3.643-0.826-5.339c0.058-0.483-0.053-0.402,0.243-0.671     c1.776-0.048,3.51-0.068,5.214,0.495c0.936,5.412,0.79,11.199,0.952,16.609c4.398,4.947,8.745,9.701,13.327,14.377     c0,0,0.639,0.727,0.639,0.727c-0.405,1.23-1.903,2.519-3.035,3.278c-1.593-0.362-2.038-2.017-3.318-3.079     c-3.486-3.788-6.468-8.005-9.904-11.694c-3.676-1.262-8.336-1.099-12.298-2.002c-0.501-0.02-1.327-0.295-1.788-0.478     c-1.093-0.119-3.058-0.689-4.136-0.99l-0.184-0.214c0.255-1.233,0.335-2.551,0.444-3.806l0.557-0.488     c0.888,0.303,1.982,0.497,2.859,0.747C349.667,427.741,351.59,428.549,353.432,428.785z"/>
		</g>
		<g>
			<g>
				<path style="fill:#ED46A6;" d="M217.115,253.497c-3.903,4.576-6.311,10.476-6.44,16.958      c-0.284,14.299,10.618,26.189,24.667,27.387c3.903-4.576,6.311-10.476,6.44-16.959      C242.065,266.584,231.164,254.695,217.115,253.497z"/>
			</g>
			<g>
				<path style="fill:#ED46A6;" d="M293.029,263.917c-3.903,4.576-6.311,10.476-6.439,16.959      c-0.284,14.299,10.618,26.189,24.666,27.387c3.903-4.576,6.311-10.476,6.44-16.959      C317.979,277.004,307.077,265.114,293.029,263.917z"/>
			</g>
		</g>
		<g>
			<g>
				<g>
					<path style="fill:#FFCA14;" d="M371.667,15.057c-0.815-0.684-3.456,0.847-6.777,4.267c-3.317,3.405-7.216,8.773-10.336,15.335       c-3.108,6.567-4.799,12.983-5.338,17.705c-0.548,4.736-0.063,7.75,0.982,7.948c2.22,0.376,5.688-10.189,11.49-22.269       C367.373,25.907,373.362,16.539,371.667,15.057z"/>
				</g>
			</g>
			<g>
				<g>
					<path style="fill:#FFCA14;" d="M396.448,37.389c-0.117-1.044-3.221-1.762-8.206-1.36c-4.964,0.39-11.771,2.085-18.59,5.557       c-6.81,3.488-12.174,8.008-15.4,11.802c-3.249,3.803-4.486,6.738-3.709,7.445c1.707,1.5,10.397-6.042,22.7-12.216       C385.458,42.269,396.663,39.651,396.448,37.389z"/>
				</g>
			</g>
			<g>
				<g>
					<path style="fill:#FFCA14;" d="M399.013,73.26c0.638-0.833-1.125-3.521-5.046-6.704c-3.896-3.178-10.052-6.687-17.458-8.894       c-7.411-2.19-14.484-2.607-19.483-2.069c-5.023,0.529-7.966,1.82-7.886,2.867c0.212,2.264,11.825,2.721,25.123,6.772       C387.618,69.09,397.601,75.042,399.013,73.26z"/>
				</g>
			</g>
			<g>
				<g>
					<path style="fill:#FFCA14;" d="M351.528,59.449c1.045-0.177,1.611-3.084,1.138-7.678c-0.463-4.578-2.1-10.81-5.227-17.121       c-3.139-6.305-7.115-11.375-10.483-14.51c-3.374-3.153-6.032-4.459-6.805-3.733c-1.612,1.578,4.586,10.256,10.216,21.755       C346.128,49.596,349.296,59.779,351.528,59.449z"/>
				</g>
			</g>
			<g>
				<g>
					<path style="fill:#FFCA14;" d="M352.715,60.298c0.816-0.666-0.15-3.518-2.96-7.294c-2.789-3.766-7.542-8.337-13.709-12.038       c-6.175-3.688-12.449-5.72-17.085-6.4c-4.655-0.693-7.625-0.199-7.827,0.836c-0.39,2.231,9.84,5.638,20.856,12.338       C343.098,54.286,350.931,61.695,352.715,60.298z"/>
				</g>
			</g>
			<g>
				<g>
					<path style="fill:#FFCA14;" d="M357.957,58.989c0.099-1.058-2.565-2.35-7.114-3.114c-4.533-0.769-10.957-0.885-17.88,0.333       c-6.921,1.23-12.915,3.543-16.909,5.82c-4.011,2.278-6.07,4.406-5.614,5.366c1.008,2.014,11.207-1.234,23.899-3.412       C347.007,61.674,357.702,61.226,357.957,58.989z"/>
				</g>
			</g>
		</g>
		<g>
			<g>
				<g>
					<g>
						<path style="fill:#751C48;" d="M229.622,229.339c0.153-0.682-1.405-1.758-4.262-2.48c-2.839-0.727-6.988-0.963-11.403-0.033        c-4.413,0.94-8.11,2.84-10.41,4.655c-2.319,1.819-3.306,3.434-2.89,3.996c0.924,1.194,6.727-1.952,14.391-3.502        C222.681,230.283,229.262,230.806,229.622,229.339z"/>
					</g>
				</g>
				<g>
					<g>
						<path style="fill:#751C48;" d="M317.065,253.445c0.612-0.318,0.293-2.497-1.346-5.554c-1.62-3.044-4.704-6.858-9.038-9.946        c-4.341-3.077-8.957-4.737-12.364-5.267c-3.425-0.544-5.588-0.129-5.687,0.554c-0.206,1.507,7.43,3.508,15.002,9.003        C311.31,247.58,315.709,254.135,317.065,253.445z"/>
					</g>
				</g>
			</g>
			<g>
				<g>
					<path style="fill:#751C48;" d="M197.848,355.209c-0.73-0.222-1.74,1.248-3.552,3.016c-1.778,1.776-4.539,3.856-7.967,4.753       c-3.431,0.884-6.856,0.41-9.273-0.277c-2.443-0.664-4.04-1.456-4.57-0.907c-0.488,0.465,0.288,2.398,2.938,4.252       c2.565,1.832,7.217,3.312,12.229,2.026c5.004-1.315,8.348-4.872,9.698-7.72C198.763,357.445,198.501,355.378,197.848,355.209z"/>
				</g>
			</g>
		</g>
		<g>
			<path style="fill:#ED46A6;" d="M187.261,342.99c4.616-5.322,11.256-15.902,6.605-22.706c-4.525-6.619-15.974-10.939-23.4-13.048     c-9.249-2.627-19.338-2.613-28.495-0.624c-5.392,1.171-10.935,3.319-14.201,7.767c-3.31,4.508-3.656,10.676-2.155,16.064     c0.604,2.167,1.419,4.27,2.418,6.286l9.639,2.02c0,0,6.302,15.001,7.669,15.765c6.227,3.482,12.151,4.58,19.208,2.39     c0.756-0.235,8.201-11.055,8.201-11.055l13.153-1.385C186.368,343.988,186.822,343.496,187.261,342.99z"/>
		</g>
		<g>
			<g>
				<path style="fill:#BC318C;" d="M185.9,344.421c-2.162-3.341-5.891-5.584-10.169-5.669c-6.845-0.136-12.504,5.303-12.639,12.148      c-0.043,2.167,0.476,4.213,1.417,6.004c0.771-0.238,1.549-0.5,2.349-0.818C173.828,353.318,180.681,349.76,185.9,344.421z"/>
			</g>
			<g>
				<path style="fill:#BC318C;" d="M145.357,354.514c1.879-2.125,3.047-4.897,3.108-7.956c0.136-6.845-5.303-12.504-12.148-12.639      c-3.13-0.062-6.005,1.051-8.224,2.922c2.998,6.002,7.615,11.229,13.087,15.046C142.598,352.876,143.984,353.747,145.357,354.514      z"/>
			</g>
		</g>
		<g>
			<path style="fill:#F4C4F0;" d="M173.353,318.137c-0.08,4.039-7.02,7.177-15.5,7.009c-8.481-0.168-15.29-3.579-15.21-7.619     c0.08-4.039,7.02-7.177,15.501-7.009C166.623,310.687,173.433,314.098,173.353,318.137z"/>
		</g>
		<g>
			<g>
				<g>
					<path style="fill:#751C48;" d="M241.2,284.436c0.327,0.052,0.907-1.013,1.279-3.118c0.373-2.094,0.46-5.249-0.395-9.039       c-0.885-3.756-2.779-8.162-6.27-12.103c-3.457-3.97-8.588-7.161-14.464-8.623c-5.882-1.436-11.907-0.996-16.814,0.912       c-4.923,1.867-8.647,4.888-11.177,7.802c-2.519,2.959-3.908,5.792-4.551,7.82c-0.649,2.036-0.63,3.248-0.317,3.355       c0.781,0.313,2.445-3.985,7.531-8.575c2.539-2.244,5.946-4.507,10.113-5.824c4.128-1.346,9.061-1.565,13.954-0.38       c4.883,1.226,9.15,3.712,12.179,6.822c3.078,3.102,5.043,6.69,6.248,9.857C240.888,279.772,240.363,284.35,241.2,284.436z"/>
				</g>
			</g>
			<g>
				<g>
					<path style="fill:#751C48;" d="M263.689,286.612c0.823,0.176,1.731-4.343,5.964-9.731c2.12-2.643,5.094-5.453,8.976-7.458       c3.839-2.028,8.663-3.082,13.687-2.746c5.021,0.378,9.647,2.103,13.161,4.653c3.56,2.534,6.107,5.735,7.832,8.651       c3.429,5.932,3.69,10.533,4.529,10.476c0.331-0.005,0.722-1.153,0.73-3.29c0.012-2.127-0.439-5.251-1.925-8.841       c-1.511-3.551-4.125-7.571-8.236-10.861c-4.082-3.324-9.68-5.597-15.718-6.039c-6.041-0.416-11.904,1.043-16.414,3.757       c-4.534,2.676-7.691,6.287-9.688,9.589c-1.979,3.344-2.867,6.372-3.156,8.48C263.138,285.369,263.362,286.56,263.689,286.612z"/>
				</g>
			</g>
		</g>
		<g>
			<g>
				<path style="fill:#DB7B6E;" d="M365.073,281.219c-10.962,31.036-18.594,67.227-44.754,89.714      c-30.27,26.019-76.196,35.149-115.22,32.078c-21.294-1.676-42.371-6.218-61.589-15.795c-10.275-5.12-18.11-12.948-26.113-20.567      c6.358,28.453,35.548,45.499,60.867,55.449c42.724,16.79,92.648,10.309,134.582-5.529      c38.802-14.655,57.577-51.513,59.756-91.468c1.367-25.066,2.426-48.893,6.753-73.63c-0.167,0.108-0.323,0.233-0.488,0.343      C372.963,260.833,368.692,270.973,365.073,281.219z"/>
			</g>
		</g>
		<g>
			<path style="fill:#751C48;" d="M432.214,345.11c6.365-42.183-8.154-94.044-39.008-124.489     c-5.046-4.979-13.174-14.803-20.859-14.548c-13.353,0.443-17.205,20.878-18.501,31.05c-3.582,28.111-7.163,56.223-10.745,84.334     c-1.929,15.141-3.846,30.631-0.636,45.553c3.21,14.922,12.583,29.429,26.958,34.563c15.189,5.425,32.837-1.007,43.916-12.728     C424.417,377.124,429.807,361.058,432.214,345.11z"/>
		</g>
		<g>
			<g>
				<g>
					<path style="fill:#FFF0FF;" d="M410.194,359.694c1.304,0.45,4.421-4.152,7.208-12.548c1.412-4.185,2.605-9.324,3.446-15.118       c0.768-5.798,1.142-12.255,0.842-19.016c-0.352-6.759-1.345-13.149-2.668-18.847c-1.396-5.686-3.077-10.686-4.885-14.716       c-3.583-8.089-7.128-12.369-8.382-11.796c-2.797,1.283,4.389,20.856,5.42,45.866       C412.557,338.512,407.287,358.686,410.194,359.694z"/>
				</g>
			</g>
			<g>
				<g>
					<path style="fill:#FFF0FF;" d="M399.337,384.61c0.935,1.087,2.756,1.314,4.907,0.363c2.135-0.927,4.512-3.102,6.032-6.159       c1.517-3.058,1.814-6.266,1.262-8.528c-0.543-2.289-1.823-3.603-3.254-3.691c-1.465-0.094-2.825,0.911-4.057,2.291       c-1.232,1.403-2.368,3.192-3.379,5.245c-1.025,2.047-1.764,4.033-2.137,5.862C398.355,381.809,398.378,383.5,399.337,384.61z"/>
				</g>
			</g>
			<g>
				<g>
					<path style="fill:#FFF0FF;" d="M351.066,137.561c2.87-0.593,3.102-11.125,1.731-23.697c-1.406-12.569-3.93-22.796-6.861-22.748       c-2.882,0.038-5.065,10.785-3.603,23.904C343.769,128.141,348.245,138.152,351.066,137.561z"/>
				</g>
			</g>
			<g>
				<g>
					<path style="fill:#FFF0FF;" d="M353.673,161.155c2.895-0.262,4.935-3.877,4.556-8.075c-0.379-4.198-3.034-7.39-5.929-7.128       c-2.895,0.261-4.935,3.877-4.555,8.075C348.124,158.225,350.778,161.416,353.673,161.155z"/>
				</g>
			</g>
		</g>
	</g>
</g>















</svg>
