<?xml version="1.0" encoding="UTF-8"?>
<!-- Generator: Adobe Illustrator 25.2.1, SVG Export Plug-In . SVG Version: 6.00 Build 0)  -->
<svg xmlns="http://www.w3.org/2000/svg" xmlns:xlink="http://www.w3.org/1999/xlink" version="1.1" id="Capa_1" x="0px" y="0px" viewBox="0 0 512 512" style="enable-background:new 0 0 512 512;" xml:space="preserve" width="512" height="512">
<g>
	<g>
		<path style="fill:#FFFFFF;" d="M421.509,238.839c-12.863-31.965-34.299-62.527-71.801-59.228c-2.468-1.81-5.054-3.491-7.692-5.112    c5.584-0.442,11.487-1.511,16.1-4.899c11.711,1.686,27.327-4.846,25.488-18.897c-0.201-1.554-0.576-6.822-0.54-8.344    c7.21-3.291,10.511-10.686,9.576-18.102c10.879-10.643,3.305-35.181-13.701-32.84c-9.502,1.73-20.67,1.026-30.139,4.331    c-10.309-3.419-22.737-1.082-31.075,5.95c-10.044-5.321-22.817-4.384-32.45,1.589c-2.192-0.167-3.034-0.006-4.246,0.118    c0.817-1.001,1.532-2.055,2.173-3.143c12.708-1.17,29.225-13.284,22.126-27.559c-2.396-4.464-4.131-10.19-6.369-14.739    c9.921-5.935,9.88-17.257,4.735-25.891c9.638-13.483-6.329-38.904-23.223-30.352c-7.765,3.974-13.918,6.658-22.204,10.699    c-4.123,2.158-11.708,4.783-14.285,8.919c-15.245-0.823-30.111,8.704-36.79,22.254c-14.736-4.105-31.602,2.923-40.217,15.293    c-19.079,6.055-31.011,10.595-25.709,33.241c-6.921-1.049-17.787,4.051-22.332,9.29c-4.863-7.115-13.545-12.067-22.234-8.743    l-0.003-0.003c-13.073,3.765-28.146,11.741-20.822,27.835c3.563,6.071,9.949,10.143,14.808,15.091    c3.335,2.925,6.432,6.764,9.648,9.698c6.392,6.075,12.461,13.092,18.851,19.268c4.986,7.415,14.995,11.164,23.299,6.924    c5.685-2.898,14.609-5.793,16.829-12.553c6.587,1.776,12.763-1.384,18.455-4.451c8.678-2.953,14.774-11.198,12.459-20.535    c5.383,1.873,11.496,3.808,17.179,4.077c3.437,7.27,7.231,14.247,10.439,21.612c-10.178,2.468-19.379,6.083-28.76,11.582    c-57.844-8.965-73.658,59.399-99.355,96.491c-15.974,23.352-32.518,55.851-31.825,80.414    c-2.334,47.512,42.128,82.826,86.182,68.206c7.938,11.121,18.11,20.838,29.91,28.592c-25.68,74.616,100.09,96.792,97.122,15.606    c24.493-6.07,49.478-19.933,66.116-38.893c26.575,16.643,69.332,13.826,90.405-10.148    C474.325,365.619,451.103,294.301,421.509,238.839z"/>
	</g>
	<g>
		<g>
			<path style="fill:#E879E9;" d="M150.993,396.681c14.011,26.728,41.677,45.338,71.46,50.202s61.116-3.507,85.745-20.946     c14.042-9.943,26.499-23.547,30.37-40.311"/>
		</g>
		<g>
			<path style="fill:#492257;" d="M197.703,192.165c-9.21-5.724-18.282-7.504-28.614-3.972c-9.586,3.276-18.087,9.689-24.562,17.408     c-11.345,13.523-17.714,30.4-26.078,45.944c-8.52,15.833-19.197,30.41-28.039,46.064c-8.842,15.655-15.93,32.86-16.286,50.836     c-0.356,17.975,7.035,36.848,22.06,46.723c15.373,10.105,40.43,11.909,54.619-1.074"/>
		</g>
		<g>
			<path style="fill:#915B33;" d="M347.063,198.243c-14.431-12.921-33.039-20.986-52.328-24.452     c-24.848-4.465-55.129-4.146-79.353,3.356c-21.295,6.594-40.845,22.778-53.066,40.883     c-15.909,23.569-15.883,54.038-29.427,78.993c-6.626,12.21-11.041,26.645-11.152,40.903c-0.128,16.328,6.278,27.477,14.158,41.06     c14.364,24.761,45.278,36.851,72.403,41.713c31.882,5.716,73.52,8.05,103.159-6.222c6.574-3.165,12.79-7.046,18.472-11.574     c15.693-12.505,27.249-29.892,32.539-48.957"/>
		</g>
		<g>
			
				<ellipse transform="matrix(0.9435 -0.3314 0.3314 0.9435 -141.514 100.4151)" style="fill:#C58B61;" cx="223.69" cy="465.169" rx="31.417" ry="31.417"/>
		</g>
		<g>
			<path style="fill:#BA7845;" d="M321.738,276.156c-2.378-8.626-9.388-15.208-16.87-20.114c-6.097-3.998-12.88-7.257-20.135-7.981     c-12.268-1.223-24.485,5.183-32.35,14.678c-7.864,9.494-11.828,21.699-13.548,33.907c-2.315,16.43-0.782,33.542,5.561,48.874     c3.623,8.757,8.992,17.092,16.846,22.396c11.416,7.709,26.894,7.861,39.545,2.411c12.651-5.45,22.666-15.872,29.856-27.621"/>
		</g>
		<g>
			<g>
				<g>
					<path style="fill:#492257;" d="M179.598,298.151c1.511,0.174,3.813-6.598,5.142-15.127c1.328-8.528,1.193-15.681-0.299-15.974       c-1.492-0.293-3.795,6.479-5.141,15.127C177.953,290.825,178.088,297.976,179.598,298.151z"/>
				</g>
			</g>
			<g>
				<g>
					<path style="fill:#492257;" d="M279.893,312.076c1.512,0.162,3.505-6.876,4.451-15.72c0.946-8.843,0.488-16.144-1.024-16.306       c-1.512-0.162-3.504,6.877-4.45,15.72C277.923,304.614,278.381,311.914,279.893,312.076z"/>
				</g>
			</g>
		</g>
		<g>
			<path style="fill:#492257;" d="M397.103,225.74c-3.277-6.23-6.957-12.142-11.439-16.705     c-14.151-14.406-40.996-19.968-55.458-2.565c-3.499,4.21-5.245,9.594-6.444,14.935c-5.475,24.38-1.051,49.775-1.832,74.749     c-0.595,19.001-4.218,37.895-3.445,56.89c0.773,18.994,6.791,38.993,21.621,50.886c20.793,16.675,57.128,16.737,75.565-3.398     c8.787-9.597,16.033-19.768,19.478-32.388c11.035-40.428-10.195-86.638-28.111-121.967     C403.858,239.905,400.726,232.628,397.103,225.74z"/>
		</g>
		<g>
			<g>
				<g>
					<path style="fill:#492257;" d="M230.401,334.503c-0.503-0.141-1.281,2.545-3.958,5.765c-1.344,1.581-3.182,3.268-5.554,4.494       c-2.345,1.241-5.27,1.918-8.328,1.755c-3.051-0.187-5.871-1.209-7.984-2.761c-2.14-1.544-3.639-3.524-4.611-5.326       c-1.939-3.67-1.829-6.493-2.358-6.503c-0.353-0.103-1.416,2.889,0.224,7.454c0.833,2.22,2.377,4.742,4.889,6.787       c2.497,2.066,5.953,3.428,9.65,3.647c3.698,0.206,7.259-0.736,10-2.394c2.756-1.634,4.697-3.802,5.961-5.778       C230.841,337.589,230.775,334.543,230.401,334.503z"/>
				</g>
			</g>
			<g>
				<g>
					<path style="fill:#492257;" d="M215.586,324.861c-0.88-0.241-2.856,4.787-4.413,11.23c-1.557,6.442-2.094,11.818-1.202,12.006       c0.892,0.188,2.869-4.84,4.412-11.23C215.928,330.476,216.466,325.101,215.586,324.861z"/>
				</g>
			</g>
		</g>
		<g>
			<path style="fill:#E879E9;" d="M230.111,329.373c2.486-1.192,4.829-2.716,6.91-4.499c0.238-0.204,0.169-0.617,0.401-0.828     c0.163-0.149,0.601-0.107,0.761-0.259c2.876-2.742,5.191-6.01,6.598-9.696c1.915-5.019,0.238-9.764-3.903-13.059     c-10.721-8.533-47.892-17.212-50.3,4.791c-0.315,2.877,0.341,5.948,1.634,8.925c0.084,0.194,0.401,0.28,0.491,0.473     c0.117,0.251,0.015,0.601,0.14,0.85c2.516,5.018,6.727,9.65,10.972,12.469c0.159,0.105,0.373-0.012,0.528,0.089     c0.162,0.106,0.264,0.431,0.429,0.53c0.503,0.301,1.013,0.58,1.511,0.825c4.415,2.167,9.329,2.782,14.165,2.2     c0.192-0.023,0.346-0.208,0.539-0.235c0.192-0.027,0.427,0.117,0.619,0.086C224.532,331.566,227.411,330.668,230.111,329.373z"/>
		</g>
		<g>
			<g>
				<path style="fill:#C958CE;" d="M203.242,315.988c-1.735-1.586-3.975-2.42-6.007-2.461c-2.008-0.062-3.738,0.521-5.023,1.222      c0.193,0.445,0.411,0.884,0.631,1.324c2.335-0.975,6.2-1.191,9.015,1.447c1.405,1.253,2.246,2.897,2.482,4.486      c0.242,1.617,0.007,3.197-0.202,4.534c-0.136,0.745-0.242,1.413-0.323,2.002c0.319,0.212,0.638,0.429,0.957,0.619      c0.232-0.628,0.494-1.39,0.788-2.292c0.394-1.344,0.844-3.056,0.668-5.092C206.053,319.735,205.001,317.545,203.242,315.988z"/>
			</g>
			<g>
				<path style="fill:#C958CE;" d="M234.901,319.957c-1.863-1.33-4.808-2.167-7.501-1.012c-2.621,1.115-4.268,3.22-5.335,5.204      c-1.068,2.023-1.477,4.043-1.619,5.709c-0.057,0.876-0.046,1.651,0.003,2.327c0.387-0.047,0.772-0.086,1.157-0.148      c0.063-0.595,0.152-1.258,0.286-1.984c0.308-1.507,0.823-3.278,1.836-4.981c0.996-1.676,2.498-3.404,4.454-4.215      c1.923-0.831,4.064-0.314,5.672,0.69c1.444,0.885,2.432,2.134,3.167,3.328c0.403-0.346,0.778-0.72,1.162-1.086      C237.502,322.468,236.486,321.046,234.901,319.957z"/>
			</g>
		</g>
		<g>
			<g>
				<g>
					<path style="fill:#773377;" d="M341.684,228.177c0.542-0.203,0.202-2.418-0.338-5.059c-0.552-2.638-1.118-4.807-1.696-4.779       c-0.561,0.022-0.913,2.381-0.326,5.196C339.902,226.354,341.16,228.379,341.684,228.177z"/>
				</g>
			</g>
			<g>
				<g>
					<path style="fill:#773377;" d="M373.605,225.034c0.567-0.064,0.818-1.973,0.56-4.265c-0.257-2.292-0.925-4.098-1.492-4.034       c-0.567,0.064-0.817,1.973-0.56,4.265C372.371,223.291,373.039,225.097,373.605,225.034z"/>
				</g>
			</g>
			<g>
				<g>
					<path style="fill:#773377;" d="M359.103,241.786c0.525-0.24,0.348-1.737-0.061-3.45c-0.421-1.71-0.95-3.121-1.527-3.094       c-0.563,0.021-0.95,1.655-0.48,3.581C357.5,240.751,358.593,242.025,359.103,241.786z"/>
				</g>
			</g>
			<g>
				<g>
					<path style="fill:#773377;" d="M384.376,247.367c0.56-0.108,0.586-2.406,0.058-5.133c-0.528-2.726-1.41-4.849-1.97-4.74       c-0.56,0.109-0.586,2.406-0.058,5.133C382.934,245.353,383.816,247.475,384.376,247.367z"/>
				</g>
			</g>
			<g>
				<g>
					<path style="fill:#773377;" d="M339.61,266.235c0.535-0.225,0.227-2.14-0.131-4.417c-0.377-2.275-0.686-4.189-1.266-4.234       c-0.556-0.054-1.189,2.013-0.772,4.563C337.847,264.699,339.099,266.462,339.61,266.235z"/>
				</g>
			</g>
			<g>
				<g>
					<path style="fill:#773377;" d="M379.14,277.351c0.561-0.102,0.73-1.751,0.378-3.683c-0.352-1.932-1.092-3.415-1.653-3.313       c-0.561,0.102-0.73,1.751-0.379,3.683C377.839,275.97,378.579,277.453,379.14,277.351z"/>
				</g>
			</g>
			<g>
				<g>
					<path style="fill:#773377;" d="M334.426,298.352c0.57,0.018,1.098-2.042,1.179-4.6c0.081-2.559-0.315-4.648-0.885-4.666       s-1.098,2.042-1.179,4.601C333.459,296.245,333.856,298.334,334.426,298.352z"/>
				</g>
			</g>
			<g>
				<g>
					<path style="fill:#773377;" d="M357.156,299.582c0.505-0.285,0.002-2.108-0.664-4.256c-0.682-2.143-1.313-3.925-1.89-3.871       c-0.559,0.045-0.832,2.112-0.08,4.49C355.265,298.326,356.672,299.865,357.156,299.582z"/>
				</g>
			</g>
			<g>
				<g>
					<path style="fill:#773377;" d="M398.088,289.079c0.533-0.202-0.127-3.249-1.474-6.806c-1.347-3.557-2.871-6.276-3.405-6.074       c-0.533,0.202,0.127,3.249,1.474,6.806C396.03,286.562,397.554,289.281,398.088,289.079z"/>
				</g>
			</g>
			<g>
				<g>
					<path style="fill:#773377;" d="M384.339,309.132c0.57-0.007,1.012-1.798,0.987-4c-0.025-2.203-0.508-3.983-1.078-3.977       c-0.57,0.007-1.012,1.797-0.987,4C383.286,307.358,383.769,309.138,384.339,309.132z"/>
				</g>
			</g>
			<g>
				<g>
					<path style="fill:#773377;" d="M347.119,333.473c0.546-0.19,0.256-2.419-0.264-5.074c-0.531-2.652-1.112-4.823-1.689-4.791       c-0.562,0.027-0.898,2.379-0.337,5.192C345.382,331.615,346.589,333.663,347.119,333.473z"/>
				</g>
			</g>
			<g>
				<g>
					<path style="fill:#773377;" d="M377.428,341.415c0.515-0.261,0.09-2.118-0.604-4.281c-0.704-2.159-1.447-3.914-2.017-3.824       c-0.556,0.083-0.706,2.126,0.053,4.46C375.611,340.105,376.929,341.674,377.428,341.415z"/>
				</g>
			</g>
			<g>
				<g>
					<path style="fill:#773377;" d="M411.965,331.242c0.558-0.115,0.383-3.242-0.391-6.984c-0.775-3.741-1.855-6.681-2.413-6.565       c-0.558,0.116-0.383,3.242,0.391,6.984C410.327,328.418,411.407,331.358,411.965,331.242z"/>
				</g>
			</g>
			<g>
				<g>
					<path style="fill:#773377;" d="M418.753,293.916c0.536-0.194,0.02-2.974-1.153-6.208c-1.172-3.234-2.557-5.698-3.093-5.504       c-0.536,0.194-0.02,2.974,1.152,6.207C416.832,291.646,418.217,294.11,418.753,293.916z"/>
				</g>
			</g>
			<g>
				<g>
					<path style="fill:#773377;" d="M340.678,357.733c0.57-0.024,0.92-2.665,0.783-5.899c-0.137-3.234-0.711-5.836-1.28-5.812       c-0.57,0.024-0.92,2.666-0.783,5.899C339.535,355.155,340.108,357.757,340.678,357.733z"/>
				</g>
			</g>
			<g>
				<g>
					<path style="fill:#773377;" d="M377.212,376.724c0.497-0.324-0.891-3.202-1.856-6.925c-1.008-3.711-1.23-6.898-1.822-6.933       c-0.543-0.066-1.272,3.373-0.173,7.463C374.434,374.425,376.773,377.05,377.212,376.724z"/>
				</g>
			</g>
			<g>
				<g>
					<path style="fill:#773377;" d="M411.064,364.115c0.568-0.094,0.68-2.253,0.516-4.848c-0.172-2.595-0.561-4.722-1.136-4.742       c-0.564-0.022-1.103,2.165-0.925,4.875C409.691,362.11,410.507,364.209,411.064,364.115z"/>
				</g>
			</g>
			<g>
				<g>
					<path style="fill:#773377;" d="M359.248,400.613c0.511-0.274-0.04-2.273-0.735-4.653c-0.712-2.375-1.337-4.352-1.915-4.303       c-0.558,0.038-0.841,2.284-0.064,4.889C357.299,399.154,358.759,400.884,359.248,400.613z"/>
				</g>
			</g>
			<g>
				<g>
					<path style="fill:#773377;" d="M392.697,391.82c0.533-0.231,0.158-2.243-0.305-4.642c-0.48-2.395-0.895-4.399-1.476-4.411       c-0.559-0.021-1.076,2.166-0.55,4.81C390.882,390.223,392.188,392.051,392.697,391.82z"/>
				</g>
			</g>
			<g>
				<g>
					<path style="fill:#773377;" d="M429.977,360.31c0.554-0.135,0.603-1.889,0.109-3.917c-0.494-2.029-1.343-3.564-1.897-3.429       c-0.554,0.135-0.603,1.889-0.109,3.918C428.574,358.91,429.423,360.445,429.977,360.31z"/>
				</g>
			</g>
			<g>
				<g>
					<path style="fill:#773377;" d="M155.67,212.035c0.508,0.275,1.797-1.14,3.199-2.943c1.392-1.81,2.438-3.414,2.044-3.837       c-0.38-0.415-2.167,0.615-3.677,2.573C155.72,209.782,155.173,211.772,155.67,212.035z"/>
				</g>
			</g>
			<g>
				<g>
					<path style="fill:#773377;" d="M122.526,256.187c0.529,0.235,1.954-1.84,3.573-4.417c1.608-2.583,2.85-4.773,2.407-5.145       c-0.427-0.365-2.461,1.328-4.158,4.051C122.644,253.392,122.012,255.963,122.526,256.187z"/>
				</g>
			</g>
			<g>
				<g>
					<path style="fill:#773377;" d="M132.98,267.579c0.555,0.158,1.686-2.129,2.859-4.987c1.163-2.863,1.956-5.288,1.449-5.563       c-0.494-0.271-2.148,1.802-3.36,4.783C132.707,264.789,132.437,267.427,132.98,267.579z"/>
				</g>
			</g>
			<g>
				<g>
					<path style="fill:#773377;" d="M97.792,305.597c-0.454-0.334-1.99,0.995-3.1,3.16c-1.116,2.162-1.304,4.184-0.769,4.359       c0.547,0.183,1.568-1.411,2.605-3.415C97.555,307.693,98.259,305.936,97.792,305.597z"/>
				</g>
			</g>
			<g>
				<g>
					<path style="fill:#773377;" d="M121.935,292.372c-0.509-0.258-1.776,1.222-2.831,3.305c-1.055,2.083-1.498,3.98-0.99,4.238       c0.508,0.258,1.776-1.222,2.831-3.304C122,294.527,122.443,292.63,121.935,292.372z"/>
				</g>
			</g>
			<g>
				<g>
					<path style="fill:#773377;" d="M115.523,272.907c-0.426-0.37-1.916,0.652-3.053,2.477c-1.142,1.822-1.408,3.61-0.888,3.83       c0.529,0.228,1.589-1.064,2.639-2.736C115.263,274.802,115.959,273.283,115.523,272.907z"/>
				</g>
			</g>
			<g>
				<g>
					<path style="fill:#773377;" d="M84.275,346.997c0.57-0.018,0.957-2.468,0.866-5.473c-0.091-3.006-0.627-5.428-1.198-5.411       c-0.57,0.017-0.957,2.468-0.866,5.473C83.169,344.592,83.705,347.014,84.275,346.997z"/>
				</g>
			</g>
			<g>
				<g>
					<path style="fill:#773377;" d="M104.902,338.819c0.574,0.076,1.431-2.905,2.359-6.565c0.915-3.663,1.572-6.694,1.03-6.899       c-0.523-0.202-2.083,2.602-3.032,6.395C104.299,335.541,104.345,338.749,104.902,338.819z"/>
				</g>
			</g>
			<g>
				<g>
					<path style="fill:#773377;" d="M96.274,374.208c0.53-0.253-0.253-2.919-0.841-6.216c-0.618-3.292-0.828-6.063-1.414-6.111       c-0.549-0.065-1.286,2.88-0.617,6.483C94.052,371.97,95.784,374.463,96.274,374.208z"/>
				</g>
			</g>
			<g>
				<g>
					<path style="fill:#773377;" d="M118.586,374.656c0.548-0.156,0.394-2.382-0.345-4.97c-0.738-2.589-1.781-4.56-2.33-4.404       c-0.548,0.156-0.394,2.382,0.345,4.97C116.995,372.841,118.038,374.813,118.586,374.656z"/>
				</g>
			</g>
			<g>
				<g>
					<path style="fill:#773377;" d="M113.471,389.995c0.391-0.432-0.598-1.944-1.631-3.803c-1.057-1.846-1.839-3.474-2.411-3.363       c-0.55,0.088-0.622,2.199,0.613,4.377C111.267,389.39,113.111,390.42,113.471,389.995z"/>
				</g>
			</g>
			<g>
				<g>
					<path style="fill:#773377;" d="M105.513,355.962c0.507-0.278,0.175-1.847-0.353-3.655c-0.542-1.804-1.118-3.301-1.694-3.257       c-0.561,0.035-0.894,1.802-0.285,3.844C103.782,354.937,105.024,356.237,105.513,355.962z"/>
				</g>
			</g>
			<g>
				<g>
					<path style="fill:#773377;" d="M134.231,387.188c0.301-0.492-0.52-1.537-1.612-2.602c-1.101-1.056-2.171-1.842-2.654-1.526       c-0.474,0.304-0.064,1.773,1.218,3.01C132.462,387.311,133.943,387.672,134.231,387.188z"/>
				</g>
			</g>
		</g>
		<g>
			<g>
				<path style="fill:#8249DD;" d="M156.565,80.393c4.221-1.599,7.968-3.288,12.076-5.245c1.317-0.777,1.625,2.267,1.572,3.267      c2.403,19.64,1.812,40.082,4.362,59.63c-2.301,0.825-4.824,2.653-7.181,3.462c-0.907,0.302-3.551,2.174-4.563,1.511      c-7.093-7.707-14.506-15.823-21.989-23.201c-0.09-0.034-0.151-0.081-0.183-0.144c-0.293,0.167,0.124,0.804-0.06,1.065      c0.501,10.485,3.63,21.301,3.937,31.785c-1.286,0.137-9.928,6.071-10.802,3.827c-6.065-6.843-13.043-13.39-19.115-20.102      c-5.207-4.463-8.848-9.42-13.928-13.637c-3.34-2.711-6.42-6.898-10.057-9.178c-0.509-1.772,9.774-4.658,11.705-5.528      c2.863,0.809,4.436,4.628,6.639,6.859c8.35,9.919,17.342,19.163,27.043,27.494c0.869-7.064-2.306-15.12-2.701-22.553      c0.324-2.542-3.57-7.703-0.289-8.944c1.672-0.027,5.811-3.76,6.817-2.078c7.54,7.678,14.628,16.345,22.165,23.807      c0.488-0.253,0.739-0.52,0.569-0.965c-0.883-3.22-1.112-8.785-1.303-12.246C160.017,106.326,157.237,93.332,156.565,80.393z"/>
				<path style="fill:#8249DD;" d="M215.186,65.826c7.473,8.657,13.247,19.375,13.768,30.954      c0.962,10.13-3.366,20.542-13.708,23.561c-5.192,2.871-11.012,0.755-16.272-0.606c-15.656-5.374-27.196-31.652-21.361-46.954      C183.869,57.975,204.302,53.671,215.186,65.826z M205.804,96.212c2.461-1.751,1.471-5.089,0.338-7.288      c-1.205-3.866-4.617-8.519-7.965-3.288C197.463,88.942,201.56,98.541,205.804,96.212z"/>
				<path style="fill:#8249DD;" d="M259.035,44.694c11.298,12.804,19.889,34.057,8.75,49.41c-5.361,4.13-12.604,8.26-19.47,5.876      c-3.152-0.92-8.052-1.582-10.623-3.676c-12.44-10.048-21.554-28.859-16.231-44.653      C227.719,36.845,248.145,32.542,259.035,44.694z M249.652,75.082c2.463-1.753,1.468-5.092,0.337-7.291      c-1.206-3.864-4.611-8.515-7.965-3.288C241.311,67.811,245.408,77.409,249.652,75.082z"/>
				<path style="fill:#8249DD;" d="M282.187,48.369c-1.222,0.788-2.798,1.604-4.019,2.393c4.512,9.173,8.22,19.666,12.686,28.953      c-2.513,1.447-5.117,2.735-7.473,4.29c-9.038-17.142-17.9-34.732-26.383-52.122l0.058-0.836      c10.354-5.09,20.781-9.762,30.601-14.746c1.163,0.642,0.926,2.095,1.482,3.078c0,0,1.529,3.174,1.529,3.174      c-6.223,3.653-13.693,7.498-20.123,10.964c1.76,3.029,3.091,6.733,5.281,9.525c3.854-1.744,8.057-3.301,11.684-5.457      c1.106-1.171,3.1,4.91,3.598,5.681c-0.355,0.757,0.292,0.41-0.428,0.782C288.449,45.199,284.488,47.035,282.187,48.369z"/>
			</g>
			<g>
				<path style="fill:#FCA921;" d="M273.728,120.166c15.189-0.574,10.375-4.252,6.453,16.361c-3.13,9.158-5.955,18.76-7.992,28.217      c-1.807,0.013-4.01,0.665-5.854,0.657c-0.705-0.012-3.005,0.647-3.546-0.064c-3.061-7.104-6.244-14.57-9.653-21.544      c-0.056-0.043-0.087-0.093-0.092-0.144c-0.247,0.043-0.11,0.592-0.304,0.729c-2.209,7.417-2.675,15.735-5.025,23.113      c-0.981-0.292-8.305,1.874-8.462,0.027c-2.552-6.253-5.817-12.52-8.407-18.683c-2.211-3.699-3.336-7.408-5.308-10.95      c-2.111-3.368-3.501-7.641-5.83-10.813c-0.036-0.531-0.123-0.42,0.405-0.507c2.844-0.485,6.143-0.54,9.103-0.481      c1.8,1.26,1.959,4.311,2.95,6.401c3.331,8.778,7.22,17.213,11.84,25.263c-0.008,0.229,0.224,0.331,0.287,0.505      c2.635-2.388,2.764-22.992,5.613-22.679c1.288,0.431,4.681-1.254,5.258,0.218c3.378,7.192,6.199,14.966,9.627,22.009      c0.401-0.057,0.642-0.181,0.632-0.532c0.173-2.462,1.373-6.394,2.084-8.854C269.796,139.084,271.031,129.344,273.728,120.166z"/>
				<path style="fill:#FCA921;" d="M318.141,124.34c3.094,7.86,4.495,16.742,2.03,24.938c-3.013,12.97-16.491,17.339-26.502,8.67      c-9.793-8.434-11.241-27.84-3.415-37.945C297.998,111.226,313.741,113.299,318.141,124.34z M304.176,143.223      c0.928-0.368,1.534-0.989,2.016-1.92c0.064-2.685,0.575-9.98-3.877-7.8c-0.314,0.05-0.595,0.33-0.869,0.483      c-1.188,2.684-1.014,7.911,1.969,9.322L304.176,143.223z"/>
				<path style="fill:#FCA921;" d="M353.862,120.331c3.094,7.86,4.495,16.742,2.03,24.938c-3.013,12.97-16.491,17.339-26.502,8.67      c-9.793-8.434-11.241-27.84-3.415-37.945C333.719,107.217,349.462,109.291,353.862,120.331z M339.897,139.215      c0.928-0.368,1.534-0.989,2.016-1.92c0.064-2.685,0.575-9.98-3.877-7.8c-0.314,0.05-0.595,0.33-0.869,0.483      c-1.188,2.684-1.014,7.911,1.969,9.322L339.897,139.215z"/>
				<path style="fill:#FCA921;" d="M369.098,128.55c-1.045,0.254-2.341,0.433-3.386,0.687c0.903,7.494,0.922,15.713,1.765,23.276      c-2.104,0.392-4.234,0.656-6.256,1.163c-2.109-14.155-3.989-28.58-5.647-42.773l0.243-0.565      c8.46-1.018,16.868-1.727,24.93-2.798c0.663,1.313,0.136,3.624,0.571,5.093c-5.231,1.016-11.374,1.882-16.704,2.719      c0.484,2.542,0.512,5.448,1.351,7.931c3.11-0.273,6.423-0.331,9.476-0.948c1.148-0.337,0.911,4.043,1.12,4.837      c-0.431,0.441,0.102,0.358-0.488,0.44C374.238,127.874,371.028,128.182,369.098,128.55z"/>
			</g>
		</g>
		<g>
			<path style="fill:#FFAC36;" d="M249.449,465.052c-1.135,17.314-16.091,30.429-33.405,29.294     c-17.314-1.135-30.429-16.091-29.294-33.405c1.135-17.314,16.091-30.429,33.405-29.294     C237.469,432.782,250.584,447.738,249.449,465.052z"/>
		</g>
		<g>
			<path style="fill:#8249DD;" d="M218.685,454.618c7.033-15.518,18.623-6.743,18.243,0.275     c-0.617,11.388-10.727,21.283-19.676,26.176c-8.368-5.831-17.349-16.761-16.732-28.15     C200.899,445.901,213.37,438.431,218.685,454.618z"/>
		</g>
		<g>
			<g>
				<path style="fill:#EDB2EA;" d="M227.492,307.294c1.891-2.196,2.022-5.221-1.082-7.809c-3.223-2.689-8.747-4.261-12.917-3.916      c-4.197,0.347-9.928,5.117-6.399,9.481C210.939,309.806,223.147,312.342,227.492,307.294z"/>
			</g>
		</g>
		<g>
			<g>
				<path style="fill:#BA7845;" d="M235.788,187.121c-0.205-1.266-4.138-1.94-10.36-1.133c-6.198,0.79-14.63,3.282-23.02,7.944      c-8.379,4.68-14.935,10.539-18.869,15.393c-3.961,4.866-5.457,8.565-4.489,9.406c2.126,1.783,12.807-8.026,28.047-16.382      C222.224,193.787,236.186,189.867,235.788,187.121z"/>
			</g>
		</g>
		<g>
			<g>
				<path style="fill:#BA7845;" d="M261.836,185.609c0.045-2.66-3.518-4.878-7.959-4.953c-4.44-0.075-8.076,2.02-8.121,4.681      c-0.045,2.66,3.518,4.878,7.958,4.953C258.155,190.364,261.791,188.269,261.836,185.609z"/>
			</g>
		</g>
	</g>
</g>















</svg>
