<?xml version="1.0" encoding="UTF-8"?>
<!-- Generator: Adobe Illustrator 25.2.1, SVG Export Plug-In . SVG Version: 6.00 Build 0)  -->
<svg xmlns="http://www.w3.org/2000/svg" xmlns:xlink="http://www.w3.org/1999/xlink" version="1.1" id="Capa_1" x="0px" y="0px" viewBox="0 0 512 512" style="enable-background:new 0 0 512 512;" xml:space="preserve" width="512" height="512">
<g>
	<path style="fill:#FFFFFF;" d="M172.063,510.765c13.71,3.912,27.787-1.667,35.087-13.892l110.663-179.79   c8.353-0.732,16.635-3.762,24.072-8.905c1.488-1.03,2.924-2.133,4.296-3.305c-0.499,0.426,11.64,7.879,12.735,8.43   c4.661,2.346,9.375,3.413,14.621,3.717c10.837,0.628,21.899-2.222,30.956-8.24c27.924-18.552,30.578-61.578,4.663-83.032   c19.083-48.064,16.321-95.631-8.119-132.244c-0.955-1.43-1.951-2.855-2.987-4.27c2.866-4.369,5.07-9.172,6.53-14.287   c5.144-18.026,0.14-36.869-12.086-49.903c5.5-8.303,3.269-14.754,0.072-18.918l-3.063-4.074l-5.024-1.434   c-7.714-2.201-14.049,1.901-18.685,5.704c-1.067,0.871-2.136,1.838-3.19,2.883c-20.975-3.32-41.725,6.576-52.56,24.3   c-1.334-0.416-2.674-0.816-4.019-1.2c-43.614-12.445-91.364-6.723-127.239,22.312c-28.051,22.702-43.578,56.218-49.885,91.171   c0.013-0.074-14.126,4.198-15.484,4.883c-4.489,2.265-8.654,5.174-12.309,8.628c-21.583,20.397-22.114,58.305,1.4,77.604   c4.436,3.638,9.519,6.355,15.108,8.073l0.151,0.047l0.398,0.112l0.358,0.106c7.117,2.031,14.719,2.323,22.052,0.953   c1.868,5.851,4.749,11.379,8.544,16.262c0,0,0.003,0.346,0.003,0.346c0.498,62.745,0.401,125.498,0.463,188.245   c0.01,9.99,0.025,19.981,0.025,29.971C149.616,494.979,158.64,506.934,172.063,510.765z"/>
	<g>
		<path style="fill:#F3C425;" d="M163.72,204.234c0.978-0.534,1.227,181.342,1.29,276.774c0.011,15.837,20.914,21.529,28.964,7.891    l149.285-242.543"/>
		<g>
			<path style="fill:#FFDB2A;" d="M206.173,455.126c1.133,2.873,2.249,5.699,3.355,8.501l1.446-2.351     c-0.966-2.487-1.942-4.999-2.93-7.541c4.548-3.38,9.224-6.858,13.962-10.383l3.341-5.428     c-6.188,4.641-12.279,9.211-18.154,13.622c-3.511-9.033-7.159-18.405-10.917-28.048c7.759-5.77,15.79-11.748,24.023-17.88     c3.324,8.454,6.563,16.682,9.725,24.707l1.526-2.479c-3.006-7.722-6.081-15.617-9.242-23.724     c7.815-5.822,15.825-11.794,23.99-17.885c1.428,3.634,2.832,7.203,4.234,10.769l1.583-2.572     c-1.256-3.222-2.509-6.435-3.787-9.711c5.94-4.432,11.977-8.939,18.064-13.485l3.565-5.791     c-7.638,5.707-15.164,11.333-22.567,16.871c-3.546-9.086-7.172-18.369-10.87-27.824c5.35-3.993,10.745-8.022,16.207-12.103     c2.587-1.933,5.151-3.85,7.714-5.765c3.598,9.181,7.132,18.189,10.609,27.044l1.622-2.635     c-3.325-8.514-6.704-17.157-10.15-25.965c8.119-6.069,16.086-12.029,23.909-17.884c1.728,4.413,3.442,8.787,5.146,13.133     l1.642-2.667c-1.559-3.985-3.124-7.984-4.706-12.025c7.663-5.736,15.151-11.346,22.465-16.829l3.388-5.504     c-0.26,0.194-0.51,0.379-0.771,0.574c-3.713-9.476-7.367-18.793-10.954-27.93c8.261-6.197,16.256-12.2,23.923-17.962     c2.003,5.132,4.04,10.345,6.094,15.601l1.63-2.648c-1.915-4.88-3.813-9.714-5.687-14.485c1.205-0.906,2.388-1.796,3.577-2.689     l-2.747-0.645c-0.554,0.412-1.099,0.816-1.657,1.23c-0.236-0.601-0.465-1.183-0.701-1.783l-2.887-0.678     c0.52,1.332,1.027,2.633,1.55,3.973c-7.69,5.711-15.703,11.667-23.981,17.826c-3.743-9.533-7.415-18.878-10.987-27.955     c0.581-0.436,1.132-0.85,1.71-1.284l-5.259-1.234c0.233,0.599,0.458,1.176,0.692,1.777c-7.759,5.77-15.79,11.748-24.023,17.88     c-3.732-9.491-7.375-18.745-10.899-27.687l-3.275-0.768c-7.704,5.736-15.622,11.637-23.698,17.659     c-3.475-8.822-6.836-17.343-10.09-25.586l-2.605-0.611c3.444,8.87,7.035,18.106,10.749,27.647     c-7.869,5.869-15.89,11.854-24.044,17.943c-3.762-9.557-7.416-18.83-10.939-27.762c8.124-6.075,16.116-12.055,23.925-17.901     l-3.125-0.733c-7.126,5.313-14.374,10.719-21.751,16.226c-3.213-8.142-6.309-15.977-9.288-23.508l-2.453-0.575     c3.15,8.129,6.448,16.628,9.883,25.47c-4.675,3.49-9.38,7.003-14.14,10.559c-2.583,1.93-5.143,3.843-7.701,5.755     c0.007,1.02,0.013,2.066,0.02,3.112c3.046-2.274,6.101-4.556,9.182-6.858c4.571-3.415,9.088-6.791,13.579-10.149     c3.482,8.96,7.102,18.262,10.833,27.839c-2.044,1.527-4.081,3.048-6.14,4.587c-6.029,4.504-11.981,8.953-17.868,13.356     c-3.271-8.317-6.45-16.39-9.559-24.278c0.012,2.109,0.025,4.266,0.036,6.465c2.461,6.321,4.956,12.728,7.521,19.309     c-2.495,1.866-4.943,3.698-7.406,5.541c0.004,1.027,0.008,2.049,0.012,3.087c2.767-2.064,5.527-4.123,8.334-6.217     c3.536,9.068,7.159,18.351,10.865,27.835c-6.484,4.852-12.824,9.599-19.08,14.286c0.003,1.007,0.006,2.015,0.008,3.027     c6.555-4.883,13.205-9.84,20.008-14.915c3.565,9.123,7.196,18.406,10.888,27.837c-8.159,6.108-16.139,12.086-23.9,17.905     c-0.846-2.161-1.687-4.311-2.539-6.487c-1.492-3.809-2.95-7.528-4.423-11.288c0.005,2.296,0.011,4.598,0.016,6.907     c0.695,1.775,1.373,3.509,2.072,5.296c0.937,2.392,1.864,4.758,2.794,7.132c-1.635,1.226-3.215,2.412-4.831,3.624     c0.002,0.977,0.004,1.953,0.006,2.93c1.91-1.422,3.787-2.817,5.724-4.259c3.713,9.476,7.367,18.793,10.954,27.93     c-5.69,4.268-11.199,8.405-16.617,12.474c0.001,0.932,0.003,1.864,0.004,2.794c5.698-4.234,11.5-8.547,17.499-13.01     c3.743,9.533,7.415,18.878,10.987,27.955c-8.317,6.243-16.336,12.267-23.992,18.025c-1.466-3.766-2.963-7.606-4.466-11.462     c0.003,2.208,0.005,4.404,0.007,6.578c0.833,2.117,1.679,4.269,2.501,6.356c-0.84,0.632-1.661,1.25-2.492,1.875     c0.001,0.871,0.002,1.748,0.002,2.612c1.095-0.812,2.185-1.62,3.294-2.444c3.828,9.721,7.538,19.129,11.103,28.16     c-4.905,3.692-9.635,7.256-14.19,10.69c0.092,0.718,0.238,1.402,0.416,2.07c4.67-3.457,9.52-7.05,14.555-10.783     c2.759,6.987,5.423,13.725,7.996,20.228c0.605-0.338,1.18-0.748,1.747-1.181c-2.542-6.561-5.179-13.359-7.914-20.404     C189.674,467.381,197.752,461.385,206.173,455.126z M245.358,383.839c-8.157,6.103-16.16,12.095-23.962,17.94     c-3.542-9.081-7.178-18.396-10.886-27.884c7.818-5.827,15.801-11.781,23.937-17.853     C238.154,365.493,241.793,374.764,245.358,383.839z M226.123,334.798c2.486,6.349,4.943,12.618,7.38,18.833     c-8.131,6.081-16.11,12.052-23.917,17.898c-3.52-9.006-7.098-18.153-10.739-27.451c-0.052-0.134-0.104-0.265-0.156-0.398     c7.83-5.838,15.802-11.787,23.922-17.85C223.778,328.809,224.945,331.79,226.123,334.798z M212.847,294.071     c0.113-0.085,0.225-0.168,0.339-0.253c8.001-5.977,15.869-11.86,23.612-17.653c3.546,9.086,7.172,18.369,10.87,27.824     c-5.351,3.994-10.747,8.024-16.211,12.106c-2.586,1.932-5.149,3.848-7.71,5.762C220.049,312.422,216.416,303.162,212.847,294.071     z M251.229,340.381c-5.275,3.941-10.483,7.834-15.651,11.698c-2.35-6.009-4.719-12.064-7.12-18.196     c-1.262-3.223-2.514-6.418-3.764-9.608c2.743-2.049,5.492-4.102,8.263-6.172c5.277-3.942,10.486-7.836,15.654-11.701     c2.351,6.01,4.72,12.067,7.122,18.2c1.261,3.221,2.513,6.416,3.762,9.604C256.751,336.256,254.001,338.31,251.229,340.381z      M261.577,332.652c-1.165-2.978-2.331-5.957-3.508-8.963c-2.487-6.351-4.944-12.621-7.381-18.838     c8.131-6.081,16.11-12.052,23.917-17.898c3.52,9.007,7.099,18.156,10.741,27.456c0.052,0.132,0.102,0.262,0.154,0.393     C277.669,320.641,269.697,326.589,261.577,332.652z M311.513,295.419c-7.776,5.789-15.763,11.739-23.93,17.829     c-3.695-9.435-7.332-18.714-10.913-27.842c8.18-6.127,16.174-12.118,23.919-17.927     C304.16,276.621,307.806,285.945,311.513,295.419z M288.782,237.217c3.544,9.093,7.195,18.45,10.921,27.991     c-7.762,5.776-15.765,11.736-23.957,17.84c-3.721-9.483-7.374-18.783-10.939-27.852     C273.024,249.038,281.043,243.025,288.782,237.217z M273.68,284.588c-7.818,5.827-15.801,11.781-23.937,17.853     c-3.706-9.452-7.345-18.722-10.911-27.797c8.157-6.103,16.161-12.095,23.962-17.94     C266.336,265.786,269.972,275.099,273.68,284.588z M251.003,226.437c3.508,9.018,7.146,18.356,10.877,27.924     c-7.815,5.822-15.826,11.794-23.991,17.885c-3.736-9.509-7.389-18.794-10.934-27.797     C235.155,238.311,243.194,232.29,251.003,226.437z M225.003,245.91c3.513,9.022,7.141,18.329,10.856,27.85     c-7.86,5.864-15.845,11.826-23.963,17.891c-3.724-9.483-7.368-18.752-10.917-27.773     C209.128,257.787,217.145,251.791,225.003,245.91z M174.993,283.287c6.068-4.529,12.206-9.112,18.421-13.755     c1.873-1.399,3.724-2.782,5.584-4.172c3.522,9.039,7.145,18.327,10.852,27.821c-8.113,6.062-16.096,12.031-23.939,17.898     C182.192,301.604,178.552,292.338,174.993,283.287z M186.852,313.477c7.846-5.853,15.834-11.816,23.944-17.875     c3.555,9.102,7.177,18.369,10.87,27.809c-8.119,6.069-16.086,12.029-23.909,17.884     C194.065,331.87,190.427,322.59,186.852,313.477z M172.676,363.063c7.776-5.789,15.762-11.739,23.93-17.829     c3.695,9.435,7.332,18.714,10.913,27.843c-8.18,6.127-16.174,12.118-23.919,17.927     C180.029,381.861,176.384,372.537,172.676,363.063z M184.487,393.275c7.762-5.776,15.765-11.736,23.957-17.841     c3.721,9.483,7.374,18.783,10.939,27.852c-8.218,6.158-16.237,12.171-23.975,17.979     C191.864,412.173,188.214,402.815,184.487,393.275z M170.233,442.847c7.683-5.702,15.722-11.674,24.06-17.874     c3.786,9.622,7.473,18.979,11.024,27.983c-8.397,6.307-16.45,12.361-24.105,18.123     C177.692,462.016,174.028,452.592,170.233,442.847z"/>
		</g>
		<path style="fill:#F75AA8;" d="M411.799,269.271c1.873-16.203-7.948-32.54-22.282-37.065    c20.48-42.688,24.708-91.202-1.291-130.149c-18.683-27.987-48.32-45.318-80.184-53.021c-31.131-10.272-65.451-11.192-96.09,2.721    c-42.638,19.362-64.648,62.801-69.781,109.869c-14.564-3.721-31.526,4.972-38.487,19.724c-6.96,14.752-3.175,33.986,8.589,43.641    c11.764,9.654,30.25,8.698,41.942-2.17c-3.552,17.073,6.111,35.541,21.297,40.708c15.186,5.166,33.896-3.649,41.24-19.431    c-1.736,17.047,9.628,33.798,24.992,37.275c14.886,5.155,33.379-3.077,40.9-18.473c-2.091,17.281,9.149,34.644,24.775,38.269    c15.626,3.625,33.58-6.963,39.573-23.339c4.196,15.402,19.393,25.97,34.481,23.977    C396.56,299.815,409.926,285.475,411.799,269.271z"/>
		<g>
			<g>
				<g>
					<path style="fill:#0D2554;" d="M227.908,165.996c1.1,0.314,4.217-7.227,6.961-16.843c2.744-9.616,4.076-17.666,2.976-17.98       c-1.1-0.314-4.217,7.227-6.961,16.843C228.14,157.632,226.807,165.682,227.908,165.996z"/>
				</g>
				<g>
					<path style="fill:#0D2554;" d="M314.793,190.789c1.1,0.314,4.217-7.227,6.961-16.843c2.744-9.616,4.076-17.666,2.976-17.98       c-1.1-0.314-4.217,7.227-6.961,16.843C315.025,182.425,313.693,190.475,314.793,190.789z"/>
				</g>
			</g>
			<g>
				<path style="fill:#0D2554;" d="M300.301,163.42c-0.668-0.172-1.472,4.197-5.748,9.215c-2.136,2.451-5.157,5.001-9.047,6.611      c-3.848,1.64-8.617,2.125-13.37,1.134c-4.745-1.031-8.903-3.416-11.75-6.48c-2.898-3.055-4.619-6.614-5.572-9.722      c-1.862-6.325-0.817-10.642-1.498-10.757c-0.245-0.062-0.836,0.911-1.296,2.881c-0.46,1.959-0.707,4.943-0.055,8.562      c0.684,3.584,2.333,7.827,5.587,11.595c3.218,3.798,8.131,6.771,13.72,7.973c5.595,1.178,11.293,0.463,15.778-1.696      c4.507-2.117,7.74-5.321,9.824-8.316c2.069-3.04,3.059-5.866,3.436-7.843C300.694,164.593,300.551,163.463,300.301,163.42z"/>
			</g>
		</g>
		<g>
			<path style="fill:#9AC54D;" d="M268.34,59.019c0.758,3.285-8.281,8.176-20.188,10.923c-11.908,2.747-22.175,2.31-22.933-0.976     c-0.758-3.285,8.281-8.176,20.188-10.923C257.315,55.296,267.582,55.733,268.34,59.019z"/>
			
				<ellipse transform="matrix(0.6089 -0.7932 0.7932 0.6089 15.6857 208.6376)" style="fill:#FFDB2A;" cx="219.434" cy="88.411" rx="6.105" ry="22.127"/>
			<path style="fill:#FFDB2A;" d="M294.205,125.828c-2.928,1.673-10.215-5.574-16.277-16.185     c-6.062-10.611-8.602-20.569-5.675-22.241c2.928-1.673,10.215,5.574,16.277,16.185     C294.592,114.198,297.132,124.156,294.205,125.828z"/>
			
				<ellipse transform="matrix(0.9433 -0.332 0.332 0.9433 -7.9384 111.5626)" style="fill:#FFDB2A;" cx="322.541" cy="79.015" rx="22.127" ry="6.105"/>
			<path style="fill:#9AC54D;" d="M372.969,127.621c-0.956,3.233-11.231,3.047-22.95-0.417     c-11.719-3.464-20.444-8.894-19.489-12.127c0.956-3.233,11.231-3.047,22.95,0.417C365.2,118.958,373.925,124.388,372.969,127.621     z"/>
		</g>
		<g>
			<path style="fill:#EE3279;" d="M389.767,70.72c5.559-19.48-5.727-39.777-25.206-45.336c-19.48-5.558-39.777,5.727-45.336,25.206     c-5.558,19.479,5.727,39.777,25.206,45.335C363.911,101.485,384.209,90.2,389.767,70.72z"/>
			<g>
				<g>
					<path style="fill:#0D2554;" d="M379.219,44.042c-0.189-0.407-2.17,0.278-5.381,0.693c-3.188,0.431-7.713,0.43-12.278-1.163       c-4.563-1.598-8.104-4.415-10.329-6.739c-2.253-2.325-3.376-4.094-3.778-3.894c-0.334,0.146,0.133,2.32,2.16,5.229       c1.983,2.882,5.762,6.381,10.968,8.203c5.208,1.818,10.344,1.434,13.69,0.415C377.67,45.775,379.39,44.364,379.219,44.042z"/>
				</g>
				<g>
					<path style="fill:#0D2554;" d="M380.326,15.476c-0.227-0.305-2.148,0.609-4.785,2.772c-2.633,2.151-5.892,5.652-8.578,10.14       c-2.674,4.495-4.209,9.025-4.852,12.363c-0.653,3.348-0.545,5.472-0.169,5.528c0.874,0.149,2.444-7.918,7.567-16.371       C374.517,21.387,380.872,16.174,380.326,15.476z"/>
				</g>
			</g>
		</g>
		<g style="opacity:0.1;">
			<path style="fill:#0D2554;" d="M307.419,301.169c15.626,3.626,33.58-6.963,39.573-23.339     c4.196,15.402,19.393,25.97,34.481,23.977c15.088-1.993,28.454-16.333,30.326-32.536c0.009-0.077,0.008-0.154,0.016-0.232     c-1.313-0.238-2.627-0.473-3.937-0.702c-48.253-8.442-99.44-15.932-137.521-46.746c-31.544-25.525-50.384-66.041-49.575-106.611     c0.513-25.733,8.946-51.114,23.333-72.435c-10.965,1.521-21.778,4.496-32.164,9.212c-42.638,19.362-64.648,62.801-69.781,109.868     c-14.564-3.721-31.526,4.973-38.487,19.724c-6.96,14.752-3.175,33.986,8.589,43.641c11.764,9.654,30.25,8.698,41.942-2.17     c-3.552,17.073,6.111,35.541,21.297,40.708c15.186,5.167,33.896-3.649,41.24-19.431c-1.736,17.047,9.628,33.798,24.992,37.276     c14.886,5.155,33.379-3.077,40.9-18.473C280.553,280.181,291.793,297.544,307.419,301.169z"/>
		</g>
	</g>
</g>















</svg>
