<?xml version="1.0" encoding="UTF-8"?>
<!-- Generator: Adobe Illustrator 25.2.1, SVG Export Plug-In . SVG Version: 6.00 Build 0)  -->
<svg xmlns="http://www.w3.org/2000/svg" xmlns:xlink="http://www.w3.org/1999/xlink" version="1.1" id="Capa_1" x="0px" y="0px" viewBox="0 0 511.978 511.978" style="enable-background:new 0 0 511.978 511.978;" xml:space="preserve" width="512" height="512">
<g>
	<path style="fill:#FFFFFF;" d="M212.616,46.861c1.711-0.653,3.553-1.032,5.468-1.079c0.555-0.014,1.113,0.004,1.668,0.057   c2.141,0.198,4.316,0.815,6.463,1.832c0.355,0.169,0.705,0.351,1.045,0.549c0.226,0.131,0.43,0.26,0.635,0.389   c0.186-0.129,0.35-0.277,0.543-0.399c0.086-0.054,0.172-0.106,0.26-0.159c2.379-1.43,5.098-2.187,7.864-2.187   c5.442,0,10.581,2.979,13.213,7.755c3.28,5.952,1.685,13.652,0.798,20.053c-1.111,8.015-2.077,15.939-2.669,23.991   c-0.025,0.459-0.081,0.914-0.133,1.37c14.626-8.006,31.727-12.225,49.847-12.225c11.099,0,22.268,1.6,33.204,4.756   c33.692,9.728,60.631,33.185,71.641,61.957l1.004,0.611c23.251,14.229,45.263,31.299,63.828,51.321   c21.181,22.843,38.555,50.683,43.635,81.799c0.009,0.053,0.015,0.105,0.021,0.158c0.215,1.473,0.391,2.942,0.535,4.407   c0.628,6.242,0.667,12.546,0.045,18.791c-2.16,21.699-12.876,41.658-28.659,56.545c-8.164,7.7-17.636,14.155-27.569,19.341   c-4.972,2.596-10.093,4.901-15.314,6.947c-1.265,0.496-15.237,5.156-15.232,5.188c3,18.51-0.314,36.484-3.907,50.915   c-1.251,5.017-5.111,8.971-10.097,10.339c-49.434,13.559-104.692,6.798-154.71,1.177c-19.919-2.238-40.142-5.827-60.1-10.662   c0,0-3.187-3.456-4.732-4.642c-1.919,0.297-6.487,1.772-6.487,1.772c-21.061-5.624-41.767-12.622-61.544-20.801   c-10.877-4.496-22.189-9.588-34.577-15.564c-0.845-0.406-1.633-0.888-2.362-1.434c-0.894-0.237-1.78-0.566-2.641-0.989   c-7.406-3.632-15.034-7.496-23.319-11.811c-13.272-6.913-24.828-15.309-35.34-23.352c-6.08-4.653-7.419-13.271-3.037-19.55   c8.614-12.341,20.981-20.87,34.822-24.018c0.819-0.185,1.64-0.354,2.465-0.52c0.851-0.173,2.027-0.412,2.788-0.622   c0.228-0.611,0.527-1.758,0.636-3.505c0.832-13.055,2.936-26.457,11.146-38.182c-1.014-1.244-2.003-2.489-2.966-3.729   c-0.041-0.054-0.086-0.114-0.133-0.174c-4.797-6.091-9.212-12.581-13.115-19.279C42.3,237.834,34.44,206.437,44.145,176.904   c0.327-0.994,0.697-1.972,1.06-2.953c-6.737-0.746-11.648-6.606-16.712-10.675c-5.518-4.434-11.082-8.81-16.691-13.128   c-1.435-1.105-2.952-2.095-4.401-3.144c-2.31-1.673-4.447-3.497-5.809-6.181c-1.946-3.837-2.087-8.308-0.535-12.301   c1.176-3.025,3.252-5.508,5.863-7.185c0.344-1.09,0.819-2.157,1.431-3.179c1.952-3.275,5.105-5.643,8.699-6.704   c0,0,0.094-5.316,5.584-10.188s10.238-4.691,10.238-4.691c0.584-1.344,1.364-2.624,2.377-3.772   c4.027-4.565,8.536-5.567,11.657-5.594c0.754-2.033,1.951-3.925,3.622-5.485c3.202-2.99,6.852-4.505,10.845-4.505   c0.782,0,1.957,0.077,3.328,0.395c0.447,0.069,1.48-2.443,1.678-2.798c0.794-1.42,1.932-2.7,3.131-3.79   c5.514-5.013,13.96-6.055,20.835-3.496c0.912,0.339,1.799,0.746,2.647,1.223c0.791,0.444,1.551,0.944,2.275,1.491   c0.317,0.24,2,1.33,1.992,1.721c0.016-0.804,0.067-1.455,0.102-1.888c0.464-6.137,4.232-11.523,10.076-14.317   c2.448-1.15,4.838-1.844,7.191-2.103c1.811-0.213,3.629-0.106,5.405,0.233c0.028-0.022,0.051-0.049,0.08-0.07   c3.821-2.921,8.676-4.075,13.368-2.849c0.427,0.111,1.133-0.499,1.506-0.664c0.922-0.409,1.931-0.63,2.924-0.781   c0.606-0.092,1.217-0.144,1.829-0.16c0.314-0.008,1.481,0.204,1.703,0.041c4.024-2.956,9.58-3.847,14.339-2.361   c0.011-0.006,0.021-0.012,0.032-0.018c1.842-1.105,3.974-1.663,6.105-1.819c1.236-0.09,2.48-0.048,3.708,0.12   c0.54,0.074,2.016,0.743,2.499,0.522c3.983-1.821,8.806-1.961,12.869-0.317c0.024-0.011,0.047-0.02,0.071-0.031   c1.315-0.56,3.385-1.304,6.175-1.304c1.709,0,3.035,0.283,4.004,0.49c0.907,0.193,1.776,0.471,2.602,0.821   c0,0,2.737-1.578,9.104-1.311C209.32,44.467,212.616,46.861,212.616,46.861z"/>
	<g>
		<g>
			
				<ellipse transform="matrix(0.2774 -0.9608 0.9608 0.2774 55.11 420.5535)" style="fill:#FFDB2A;" cx="307.126" cy="173.641" rx="71.121" ry="87.489"/>
			<path style="fill:#FBA71E;" d="M493.896,325.088c-21.994,66.952-137.492,89.143-257.973,49.565S35.603,248.716,57.597,181.763     s137.696-91.364,258.176-51.786S515.89,258.136,493.896,325.088z"/>
			<g style="opacity:0.13;">
				<path style="fill:#FFFFFF;" d="M87.435,170.308c1.054,0.155,3.465-10.313,5.386-23.38c0.52-3.539,0.947-6.894,1.278-9.925      c-1.376,0.887-2.725,1.793-4.039,2.722c-0.36,2.105-0.716,4.33-1.056,6.643C87.083,159.434,86.381,170.153,87.435,170.308z"/>
				<path style="fill:#FFFFFF;" d="M95.714,169.969c1.049,0.187,3.887-10.838,6.339-24.623c0.935-5.258,1.678-10.152,2.182-14.213      c-1.254,0.652-2.49,1.317-3.704,1.999c-0.754,3.437-1.533,7.357-2.277,11.538C95.803,158.455,94.665,169.782,95.714,169.969z"/>
				<path style="fill:#FFFFFF;" d="M103.248,173.483c1.048,0.192,4.278-12.667,7.214-28.721c1.235-6.755,2.218-12.982,2.868-17.964      c-1.172,0.509-2.331,1.028-3.475,1.56c-1.023,4.509-2.125,9.894-3.188,15.71C103.73,160.122,102.2,173.292,103.248,173.483z"/>
				<path style="fill:#FFFFFF;" d="M114.152,170.631c0.543,0.08,1.557-3.424,2.745-9.087c2.717,0.777,10.595,1.343,19.903,1.35      c11.556,0.009,20.925-0.848,20.925-1.914c0.001-1.065-9.367-1.936-20.923-1.944c-9.043-0.007-16.723,0.518-19.647,1.256      c1.054-5.194,2.223-11.947,3.314-19.368c0.072-0.487,0.138-0.961,0.207-1.442c4.409,0.803,13.829,1.58,24.788,1.96      c10.825,0.376,20.18,0.262,24.701-0.219c-2.185,12.884-3.202,22.66-2.292,22.828c1.048,0.193,4.251-12.417,7.155-28.167      c0.971-5.267,1.781-10.201,2.396-14.465c0.161-0.07,0.276-0.147,0.285-0.235c0.008-0.085-0.08-0.177-0.212-0.273      c0.541-3.804,0.917-7.027,1.098-9.412c-0.723,0.06-1.443,0.121-2.162,0.186c-0.616,2.139-1.321,4.94-2.066,8.195      c-4.306-1-12.35-2.18-21.625-3.093c-2.132-0.21-4.192-0.39-6.172-0.547c-3.353,0.738-6.643,1.543-9.859,2.42      c4.278,0.687,9.712,1.381,15.653,1.966c9.107,0.897,17.096,1.309,21.566,1.191c-0.879,3.972-1.801,8.518-2.695,13.367      c-0.275,1.49-0.532,2.943-0.781,4.374c-4.381-0.807-13.841-1.59-24.854-1.972c-10.809-0.375-20.153-0.262-24.681,0.216      c0.557-3.966,1.03-7.709,1.408-11.077c1.99,0.93,11.633,1.755,23.264,1.926c13.083,0.193,23.702-0.515,23.717-1.58      c0.016-1.065-10.577-2.085-23.66-2.278c-11.475-0.169-21.05,0.354-23.242,1.205c0.111-1.011,0.212-1.978,0.304-2.912      c-1.145,0.414-2.278,0.838-3.399,1.271c-0.871,4.616-1.789,10.095-2.658,16.006      C114.217,156.924,113.098,170.476,114.152,170.631z"/>
				<path style="fill:#FFFFFF;" d="M85.882,147.472c0.08-0.472-1.217-1.135-3.418-1.85c-0.907,0.775-1.796,1.561-2.664,2.36      C83.401,148.235,85.779,148.082,85.882,147.472z"/>
				<path style="fill:#FFFFFF;" d="M86.126,156.704c0.073-0.946-5.179-2.14-12.161-2.84c-1.065,1.178-2.091,2.378-3.078,3.6      c0.044,0.003,0.087,0.008,0.132,0.011C79.281,158.112,86.044,157.767,86.126,156.704z"/>
				<path style="fill:#FFFFFF;" d="M81.746,167.68c-0.025-0.995-7.474-1.623-17.012-1.481c-0.775,1.28-1.503,2.583-2.198,3.903      c0.083-0.002,0.163-0.003,0.247-0.005C73.283,169.827,81.773,168.745,81.746,167.68z"/>
				<path style="fill:#FFFFFF;" d="M165.526,149.11c-0.001-1.066-9.741-1.921-21.755-1.911c-12.014,0.01-21.752,0.882-21.752,1.947      c0.001,1.065,9.741,1.921,21.755,1.911C155.788,151.047,165.527,150.175,165.526,149.11z"/>
				<path style="fill:#FFFFFF;" d="M180.098,157.403c1.052,0.17,3.692-10.767,5.897-24.428c1.542-9.555,2.46-17.896,2.515-22.114      c-0.623,0.029-1.248,0.055-1.868,0.088c-1.265,4.143-2.959,12.144-4.455,21.411      C179.981,146.021,179.046,157.233,180.098,157.403z"/>
				<path style="fill:#FFFFFF;" d="M187.109,161.96c1.053,0.164,3.884-12.381,6.324-28.02c1.5-9.614,2.5-18.145,2.806-23.341      c-0.763,0.015-1.52,0.038-2.279,0.059c-1.276,5.08-2.876,13.316-4.339,22.687C187.181,148.985,186.056,161.796,187.109,161.96z"/>
				<path style="fill:#FFFFFF;" d="M197.38,162.397c1.051,0.177,4.059-12.462,6.719-28.23c1.64-9.723,2.763-18.353,3.138-23.592      c-0.756-0.012-1.504-0.012-2.257-0.019c-1.352,5.108-3.081,13.457-4.685,22.969C197.635,149.293,196.33,162.219,197.38,162.397z      "/>
				<path style="fill:#FFFFFF;" d="M241.313,119.407c13.04,0.613,23.652,0.246,23.702-0.818c0.05-1.064-10.481-2.424-23.521-3.036      c-13.04-0.613-23.652-0.246-23.702,0.818C217.743,117.435,228.274,118.794,241.313,119.407z"/>
				<path style="fill:#FFFFFF;" d="M236.379,140.615c-12.078-1.009-21.942-0.967-22.031,0.095c-0.089,1.062,9.631,2.74,21.709,3.75      c12.079,1.009,21.942,0.967,22.031-0.095C258.178,143.303,248.458,141.624,236.379,140.615z"/>
				<path style="fill:#FFFFFF;" d="M226.367,160.192c-7.665-0.418-13.926,0.106-13.984,1.17c-0.058,1.064,6.109,2.265,13.774,2.683      c7.665,0.418,13.926-0.106,13.984-1.17C240.199,161.811,234.032,160.61,226.367,160.192z"/>
				<path style="fill:#FFFFFF;" d="M266.684,129.805c-3.737-1.048-13.505-2.387-25.045-3.347      c-12.835-1.069-23.605-1.315-26.332-0.675c0.962-6.159,1.614-11.395,1.868-14.894c-0.715-0.034-1.424-0.056-2.137-0.085      c-1.407,4.933-3.268,13.399-5.001,23.074c-2.768,15.45-4.162,28.127-3.114,28.315c0.658,0.118,2.12-4.707,3.802-12.13      c2.396,1.031,12.317,2.355,24.253,3.166c13.779,0.936,25.007,0.833,25.08-0.23c0.072-1.063-11.039-2.684-24.818-3.62      c-11.752-0.798-21.622-0.838-24.324-0.174c0.946-4.243,1.951-9.248,2.919-14.647c0.495-2.764,0.944-5.434,1.346-7.965      c2.494,1.084,13.221,2.635,26.139,3.71c11.354,0.945,21.082,1.246,25.069,0.861c-0.63,2.93-1.27,6.052-1.902,9.299      c-3.33,17.096-5.182,31.121-4.136,31.325c1.046,0.204,4.593-13.491,7.923-30.587c1.798-9.23,3.159-17.54,3.871-23.288      c-0.835-0.172-1.669-0.338-2.502-0.504C268.754,120.726,267.739,124.969,266.684,129.805z"/>
				<path style="fill:#FFFFFF;" d="M273.376,140.81c-2.846,15.902-4.302,28.946-3.253,29.134c1.049,0.188,4.206-12.552,7.051-28.454      c1.548-8.649,2.679-16.432,3.226-21.781c-0.823-0.188-1.646-0.375-2.468-0.558C276.585,124.358,274.935,132.1,273.376,140.81z"/>
				<path style="fill:#FFFFFF;" d="M283.602,141.874c-3.233,14.174-5.012,25.856-3.973,26.093      c1.039,0.237,4.502-11.061,7.735-25.235c1.875-8.218,3.255-15.581,3.886-20.379c-0.764-0.198-1.529-0.396-2.292-0.589      C287.443,126.357,285.485,133.618,283.602,141.874z"/>
				<path style="fill:#FFFFFF;" d="M294.963,144.414c-3.332,14.62-5.191,26.663-4.152,26.9c1.039,0.237,4.582-11.423,7.914-26.042      c1.781-7.815,3.135-14.872,3.857-19.805c-0.823-0.239-1.646-0.479-2.469-0.712C298.618,129.515,296.762,136.523,294.963,144.414      z"/>
				<path style="fill:#FFFFFF;" d="M303.628,150.534c-3.344,14.169-5.215,25.853-4.178,26.098      c1.037,0.245,4.589-11.043,7.933-25.212c2.37-10.042,3.994-18.812,4.373-23.17c-0.543-0.172-1.086-0.35-1.629-0.52      C308.519,131.745,306.023,140.387,303.628,150.534z"/>
				<path style="fill:#FFFFFF;" d="M310.635,168.751c1.038,0.242,3.845-7.989,6.271-18.385c2.426-10.396,3.551-19.02,2.513-19.262      c-1.038-0.242-3.845,7.989-6.271,18.385C310.723,159.885,309.597,168.508,310.635,168.751z"/>
				<path style="fill:#FFFFFF;" d="M342.793,143.602c5.967,1.217,11.436,2.146,15.647,2.7c-4.837-2.234-9.766-4.391-14.786-6.461      c-0.03-0.006-0.059-0.013-0.09-0.019c-13.013-2.655-23.736-3.96-23.949-2.916C319.403,137.949,329.78,140.947,342.793,143.602z"/>
				<path style="fill:#FFFFFF;" d="M319.005,149.374c-0.153,1.054,12.168,3.719,27.52,5.952c11.313,1.645,21.097,2.593,25.533,2.558      c-1.173,3.75-2.488,8.284-3.837,13.273c-4.24-1.434-13.008-3.52-23.24-5.445c-14.537-2.735-26.481-4.104-26.678-3.057      c-0.197,1.047,11.428,4.113,25.965,6.848c10.123,1.905,18.976,3.144,23.493,3.369c-0.325,1.22-0.651,2.455-0.978,3.719      c-4.27,16.533-6.896,30.152-5.864,30.418c1.032,0.267,5.33-12.92,9.6-29.454c2.329-9.018,4.163-17.149,5.187-22.739      c-0.753-0.396-1.506-0.793-2.264-1.185c-0.289,0.847-0.596,1.786-0.911,2.768c-4.117-1.299-13.929-3.217-25.449-4.893      C331.728,149.275,319.158,148.32,319.005,149.374z"/>
				<path style="fill:#FFFFFF;" d="M316.202,172.728c-0.166,1.052,10.038,3.533,22.79,5.541c12.753,2.008,23.225,2.782,23.391,1.73      c0.166-1.052-10.038-3.533-22.79-5.541C326.84,172.45,316.368,171.676,316.202,172.728z"/>
				<path style="fill:#FFFFFF;" d="M354.228,189.035c0.201-1.046-9.942-3.873-22.655-6.314c-12.713-2.441-23.181-3.571-23.382-2.525      c-0.201,1.046,9.942,3.873,22.655,6.314C343.558,188.951,354.027,190.081,354.228,189.035z"/>
				<path style="fill:#FFFFFF;" d="M375.448,206.179c1.039,0.235,4.513-11.188,7.759-25.515c1.765-7.791,3.094-14.817,3.777-19.662      c-0.746-0.427-1.494-0.853-2.246-1.276c-1.507,4.656-3.437,11.89-5.294,20.085C376.198,194.138,374.409,205.943,375.448,206.179      z"/>
				<path style="fill:#FFFFFF;" d="M382.542,211.354c1.03,0.273,5.129-11.796,9.157-26.958c1.823-6.863,3.314-13.168,4.309-18.056      c-0.848-0.519-1.694-1.04-2.551-1.554c-1.617,4.827-3.558,11.359-5.487,18.62C383.942,198.568,381.512,211.081,382.542,211.354z      "/>
				<path style="fill:#FFFFFF;" d="M394.147,216.926c1.041,0.228,4.487-11.445,7.698-26.073c1.577-7.184,2.801-13.734,3.517-18.578      c-0.799-0.526-1.6-1.05-2.407-1.571c-1.436,4.758-3.189,11.619-4.879,19.322C394.866,204.654,393.107,216.697,394.147,216.926z"/>
				<path style="fill:#FFFFFF;" d="M404.325,221.228c1.03,0.272,4.629-9.986,8.038-22.912c1.942-7.363,3.4-13.994,4.108-18.396      c-0.672-0.484-1.344-0.968-2.023-1.449c-1.594,4.116-3.738,10.986-5.815,18.861      C405.223,210.258,403.295,220.957,404.325,221.228z"/>
				<path style="fill:#FFFFFF;" d="M417.05,223.026c1.038,0.241,4.257-9.829,7.19-22.491c0.782-3.375,1.46-6.583,2.021-9.493      c2.284,1.064,5.447,2.334,9.104,3.644c-2.245-1.91-4.546-3.801-6.894-5.675c-0.533-0.425-1.061-0.852-1.6-1.276      c-0.897-0.705-1.806-1.406-2.717-2.106c-0.245,0.814-0.495,1.675-0.75,2.577c-0.595-0.004-0.945,0.084-1.007,0.273      c-0.064,0.195,0.186,0.484,0.694,0.846c-0.853,3.09-1.744,6.595-2.611,10.338C417.548,212.326,416.012,222.786,417.05,223.026z"/>
				<path style="fill:#FFFFFF;" d="M426.775,207.408c-0.198,1.047,7.496,3.382,17.185,5.216c4.665,0.883,8.931,1.485,12.135,1.759      c-1.219-1.301-2.455-2.599-3.721-3.89c-2.312-0.566-4.916-1.134-7.696-1.66C434.989,206.999,426.973,206.361,426.775,207.408z"/>
				<path style="fill:#FFFFFF;" d="M421.602,214.12c-0.412,0.934,9.776,6.159,23.433,9.406c9.017,2.181,17.053,2.899,21.498,2.845      c-0.671-0.833-1.349-1.665-2.04-2.494c-4.473-1.001-11.163-2.311-18.558-4.102C432.62,216.614,422.023,213.093,421.602,214.12z"/>
				<path style="fill:#FFFFFF;" d="M421.35,228.103c-0.188,1.049,10.721,3.879,24.365,6.321c13.644,2.442,24.858,3.572,25.046,2.523      c0.188-1.049-10.721-3.879-24.366-6.321C432.751,228.184,421.537,227.055,421.35,228.103z"/>
				<path style="fill:#FFFFFF;" d="M58.681,221.14c1.058,0.124,3.06-9.534,4.47-21.572c1.411-12.038,1.696-21.897,0.638-22.021      c-1.058-0.124-3.06,9.534-4.47,21.572C57.909,211.157,57.623,221.016,58.681,221.14z"/>
				<path style="fill:#FFFFFF;" d="M74.042,176.85c-1.062-0.09-2.794,10.123-3.87,22.812c-1.076,12.689-1.088,23.048-0.026,23.138      s2.794-10.123,3.87-22.812C75.092,187.299,75.104,176.94,74.042,176.85z"/>
				<path style="fill:#FFFFFF;" d="M80.96,180.935c0.027,1.065,9.44,1.69,21.025,1.396c11.585-0.294,20.954-1.396,20.927-2.461      c-0.027-1.065-9.44-1.69-21.025-1.396C90.302,178.768,80.933,179.869,80.96,180.935z"/>
				<path style="fill:#FFFFFF;" d="M99.254,196.95c12.975-0.241,23.478-1.301,23.458-2.366c-0.02-1.065-10.555-1.733-23.53-1.492      c-12.975,0.241-23.478,1.301-23.458,2.366C75.745,196.523,86.279,197.191,99.254,196.95z"/>
				<path style="fill:#FFFFFF;" d="M100.644,205.175c10.701,0.195,19.714-0.234,22.51-0.992c-0.224,9.563,0.149,16.483,0.997,16.526      c1.064,0.054,2.471-10.721,3.143-24.065c0.672-13.344,0.354-24.205-0.711-24.258c-1.064-0.054-2.471,10.721-3.143,24.064      c-0.117,2.32-0.202,4.557-0.26,6.683c-2.757-0.861-11.754-1.62-22.466-1.815c-12.917-0.236-23.404,0.437-23.424,1.502      C77.272,203.885,87.727,204.939,100.644,205.175z"/>
				<path style="fill:#FFFFFF;" d="M120.148,215.454c-0.035-1.065-9.082-1.633-20.208-1.268      c-11.125,0.364-20.116,1.523-20.081,2.588s9.082,1.633,20.208,1.268C111.192,217.678,120.183,216.519,120.148,215.454z"/>
				<path style="fill:#FFFFFF;" d="M134.11,217.761c1.062,0.092,2.777-9.747,3.832-21.976c1.055-12.228,1.05-22.216-0.012-22.307      c-1.061-0.092-2.777,9.747-3.832,21.976C133.043,207.682,133.049,217.67,134.11,217.761z"/>
				<path style="fill:#FFFFFF;" d="M146.177,196.616c1.231-10.978,1.37-19.974,0.311-20.092c-1.059-0.119-2.915,8.685-4.145,19.662      c-1.231,10.978-1.37,19.974-0.311,20.093S144.946,207.594,146.177,196.616z"/>
				<path style="fill:#FFFFFF;" d="M154.241,173.365c-1.063-0.075-2.59,9.296-3.41,20.93c-0.821,11.635-0.625,21.127,0.438,21.202      c1.063,0.075,2.59-9.296,3.41-20.931C155.5,182.932,155.304,173.44,154.241,173.365z"/>
				<path style="fill:#FFFFFF;" d="M163.749,173.74c-0.037,1.065,8.276,2.215,18.567,2.569c10.291,0.354,18.663-0.223,18.7-1.287      c0.037-1.065-8.276-2.215-18.567-2.569C172.158,172.099,163.785,172.675,163.749,173.74z"/>
				<path style="fill:#FFFFFF;" d="M179.439,192.299c11.389,0.143,20.633-0.605,20.646-1.67c0.013-1.065-9.208-2.045-20.597-2.188      c-6.398-0.08-12.118,0.12-15.905,0.501c-0.391-6.965-1.303-12.15-2.22-12.124c-0.938,0.026-1.567,5.499-1.537,12.72      c-0.632,0.177-0.981,0.369-0.983,0.574c-0.003,0.207,0.352,0.41,0.994,0.605c0.008,0.6,0.02,1.207,0.037,1.826      c0.243,8.655,1.302,15.647,2.367,15.617c1.065-0.03,1.732-7.07,1.489-15.725c-0.01-0.344-0.023-0.68-0.035-1.018      C167.472,191.882,173.118,192.22,179.439,192.299z"/>
				<path style="fill:#FFFFFF;" d="M183.899,197.388c-8.5,0.308-15.359,1.42-15.321,2.485c0.039,1.065,6.961,1.678,15.46,1.371      c8.5-0.308,15.36-1.42,15.321-2.485C199.321,197.694,192.399,197.08,183.899,197.388z"/>
				<path style="fill:#FFFFFF;" d="M77.307,231.424c0.053-1.064-7.738-2.319-17.402-2.802c-0.78-0.039-1.543-0.07-2.296-0.096      c0.369,1.298,0.768,2.598,1.193,3.899c0.304,0.017,0.603,0.035,0.911,0.051C69.376,232.959,77.254,232.488,77.307,231.424z"/>
				<path style="fill:#FFFFFF;" d="M73.542,241.554c0.037-0.959-5.287-1.96-12.288-2.381c0.509,1.273,1.043,2.545,1.604,3.818      C68.996,242.996,73.508,242.431,73.542,241.554z"/>
				<path style="fill:#FFFFFF;" d="M81.42,227.799c-1.065,0.019-1.738,10.554-1.502,23.529c0.011,0.589,0.025,1.167,0.039,1.745      c-1.116-0.534-5.846-0.088-12.02,0.188c0.638,1.163,1.296,2.324,1.976,3.485c5.244-0.749,9.069-2.119,10.06-2.989      c0.29,10.901,1.152,19.565,2.066,20.849c0.02,0.026,0.038,0.051,0.058,0.077c0.059,0.062,0.118,0.105,0.177,0.104      c1.065-0.019,1.738-10.554,1.502-23.529C83.54,238.283,82.485,227.779,81.42,227.799z"/>
				<path style="fill:#FFFFFF;" d="M91.122,224.818c-1.065-0.034-2.334,12.522-2.835,28.045c-0.501,15.524-0.044,28.136,1.021,28.17      c1.065,0.034,2.334-12.522,2.835-28.046C92.644,237.465,92.187,224.853,91.122,224.818z"/>
				<path style="fill:#FFFFFF;" d="M103.1,223.17c-1.065-0.019-2.15,12.191-2.423,27.273c-0.273,15.082,0.369,27.324,1.434,27.343      c1.065,0.019,2.15-12.191,2.424-27.274C104.808,235.431,104.165,223.189,103.1,223.17z"/>
				<path style="fill:#FFFFFF;" d="M106.047,228.358c-1.06,0.107-0.927,10.046,0.297,22.199c1.224,12.154,3.076,21.92,4.136,21.813      s0.927-10.046-0.297-22.2C108.959,238.017,107.107,228.251,106.047,228.358z"/>
				<path style="fill:#FFFFFF;" d="M120.109,243.896c2.831,0.642,9.36,1.018,16.96,0.896c10.181-0.164,18.42-1.16,18.403-2.225      c-0.017-1.065-8.284-1.796-18.465-1.633c-7.749,0.125-14.362,0.732-17.076,1.485c-0.341-2.7-0.715-5.031-1.093-6.818      c2.647,0.862,9.796,1.708,18.248,2.073c10.738,0.464,19.481-0.023,19.527-1.087c0.046-1.065-8.622-2.304-19.36-2.767      c-8.812-0.381-16.27-0.12-18.691,0.573c-0.416-1.664-0.825-2.624-1.182-2.597c-1.062,0.081-1.268,8.71-0.458,19.272      c0.809,10.562,2.326,19.059,3.388,18.978c1.062-0.081,1.268-8.71,0.459-19.272C120.581,248.342,120.356,246.029,120.109,243.896      z"/>
				<path style="fill:#FFFFFF;" d="M125.163,227.068c-0.048,1.064,4.888,2.154,11.025,2.434c6.138,0.28,11.153-0.356,11.201-1.42      c0.048-1.064-4.888-2.154-11.026-2.434C130.226,225.368,125.211,226.004,125.163,227.068z"/>
				<path style="fill:#FFFFFF;" d="M139.2,257.306c7.709-0.035,13.954-0.926,13.95-1.992c-0.005-1.065-6.258-1.901-13.967-1.866      c-7.709,0.035-13.954,0.926-13.949,1.992C125.238,256.505,131.491,257.34,139.2,257.306z"/>
				<path style="fill:#FFFFFF;" d="M140.542,259.228c-8.466,1.501-15.178,3.569-14.992,4.618c0.186,1.049,7.2,0.682,15.666-0.819      c8.466-1.501,15.178-3.569,14.992-4.618C156.022,257.36,149.008,257.726,140.542,259.228z"/>
				<path style="fill:#FFFFFF;" d="M414.44,231.516c0.34-1.01-13.423-6.553-30.741-12.38c-17.317-5.827-31.631-9.733-31.971-8.723      c-0.34,1.01,13.423,6.553,30.74,12.38C399.786,228.621,414.1,232.526,414.44,231.516z"/>
				<path style="fill:#FFFFFF;" d="M411.198,242.205c0.281-1.028-11.681-5.191-26.718-9.299      c-15.036-4.108-27.453-6.604-27.734-5.576c-0.281,1.028,11.681,5.191,26.717,9.298      C398.5,240.736,410.917,243.233,411.198,242.205z"/>
				<path style="fill:#FFFFFF;" d="M410.537,253.53c0.28-1.028-10.088-4.744-23.157-8.3c-13.068-3.556-23.89-5.605-24.169-4.577      c-0.28,1.028,10.088,4.744,23.156,8.3C399.436,252.508,410.257,254.558,410.537,253.53z"/>
				<path style="fill:#FFFFFF;" d="M406.25,263.947c0.249-1.036-9.572-4.282-21.934-7.249c-12.362-2.967-22.586-4.533-22.834-3.497      c-0.249,1.036,9.572,4.281,21.934,7.249C395.778,263.417,406.001,264.983,406.25,263.947z"/>
				<path style="fill:#FFFFFF;" d="M374.089,267.576c-0.255,1.034,6.983,3.71,16.167,5.976c9.184,2.266,16.836,3.265,17.092,2.23      c0.255-1.034-6.983-3.71-16.167-5.976C381.996,267.54,374.344,266.541,374.089,267.576z"/>
				<path style="fill:#FFFFFF;" d="M418.09,236.54c-1.043-0.218-3.805,8.788-6.168,20.115c-2.364,11.327-3.435,20.686-2.392,20.904      c1.043,0.218,3.805-8.788,6.169-20.116C418.062,246.116,419.133,236.757,418.09,236.54z"/>
				<path style="fill:#FFFFFF;" d="M427.398,260.04c2.432-11.78,3.557-21.505,2.514-21.72c-1.043-0.215-3.861,9.16-6.293,20.94      c-2.432,11.78-3.558,21.505-2.514,21.721C422.148,281.196,424.966,271.821,427.398,260.04z"/>
				<path style="fill:#FFFFFF;" d="M437.173,262.228c1.978-11.36,2.731-20.717,1.681-20.9c-1.05-0.183-3.504,8.878-5.482,20.238      c-1.978,11.36-2.731,20.717-1.681,20.9C432.74,282.649,435.195,273.588,437.173,262.228z"/>
				<path style="fill:#FFFFFF;" d="M448.716,263.691c2.233-11.493,3.196-20.976,2.15-21.179c-1.046-0.203-3.704,8.949-5.938,20.443      c-2.234,11.494-3.196,20.976-2.151,21.179C443.824,284.337,446.482,275.185,448.716,263.691z"/>
				<path style="fill:#FFFFFF;" d="M459.676,266.889c1.612-10.325,2.066-18.828,1.013-18.993c-1.053-0.164-3.213,8.072-4.825,18.397      c-1.612,10.325-2.066,18.828-1.013,18.993S458.064,277.214,459.676,266.889z"/>
				<path style="fill:#FFFFFF;" d="M466.214,286.944c0.81,0.091,2.102-5.192,3.232-12.728c0.139,1.084,7.017,3.471,15.695,5.422      c3.806,0.856,7.332,1.486,10.149,1.85c-0.266-1.137-0.554-2.276-0.863-3.417c-2.431-0.735-5.314-1.494-8.439-2.197      c-8.747-1.967-16.034-2.753-16.521-1.798c0.34-2.277,0.665-4.748,0.956-7.347c0.549-4.894,0.89-9.401,1.016-12.949      c1.753,1.245,8.054,3.322,15.717,5.098c0.042,0.01,0.082,0.018,0.124,0.028c-0.697-1.478-1.418-2.956-2.181-4.433      c-6.619-1.395-11.992-2.042-13.632-1.652c0.102-4.076-0.112-6.674-0.669-6.737c-1.059-0.119-2.943,8.932-4.208,20.214      C465.322,277.583,465.155,286.826,466.214,286.944z"/>
				<path style="fill:#FFFFFF;" d="M471.468,264.934c-0.148,1.055,5.278,2.691,12.121,3.654c3.032,0.427,5.83,0.649,8.023,0.673      c-0.408-1.117-0.836-2.235-1.283-3.354c-1.811-0.424-3.925-0.819-6.202-1.14C477.284,263.805,471.616,263.879,471.468,264.934z"/>
				<path style="fill:#FFFFFF;" d="M496.775,289.322c-1.449-0.34-2.954-0.679-4.51-1.01c-11.186-2.378-20.433-3.461-20.655-2.419      c-0.222,1.042,8.667,3.815,19.853,6.193c2.008,0.427,3.949,0.81,5.791,1.149C497.122,291.933,496.966,290.629,496.775,289.322z"/>
				<path style="fill:#FFFFFF;" d="M372.548,301.983c-2.722,12.221-4.086,22.317-3.046,22.548c1.04,0.232,4.09-9.488,6.812-21.709      c2.722-12.221,4.086-22.316,3.046-22.548C378.32,280.042,375.27,289.762,372.548,301.983z"/>
				<path style="fill:#FFFFFF;" d="M384.014,305.434c-3.581,11.679-5.658,21.4-4.639,21.712c1.019,0.312,4.747-8.902,8.328-20.581      c3.581-11.679,5.658-21.399,4.639-21.712C391.323,284.541,387.595,293.755,384.014,305.434z"/>
				<path style="fill:#FFFFFF;" d="M393.184,306.212c-2.695,11.29-4.04,20.644-3.004,20.891s4.061-8.705,6.757-19.995      c2.695-11.29,4.04-20.643,3.004-20.891C398.904,285.97,395.879,294.922,393.184,306.212z"/>
				<path style="fill:#FFFFFF;" d="M409.371,287.628c-1.053-0.161-3.222,8.329-4.843,18.963      c-1.622,10.634-2.082,19.384-1.029,19.545c1.053,0.161,3.222-8.329,4.843-18.963      C409.964,296.539,410.425,287.788,409.371,287.628z"/>
				<path style="fill:#FFFFFF;" d="M413.824,289.795c-0.183,1.05,10.87,3.852,24.687,6.259c13.817,2.407,25.167,3.508,25.35,2.458      c0.183-1.05-10.87-3.852-24.688-6.259C425.356,289.846,414.007,288.745,413.824,289.795z"/>
				<path style="fill:#FFFFFF;" d="M438.281,307.509c15.41,3.139,28.188,3.692,28.297,2.661c0.124-1.087-12.31-3.34-27.531-6.442      c-15.228-3.066-27.559-5.829-27.867-4.78C410.879,299.94,422.865,304.404,438.281,307.509z"/>
				<path style="fill:#FFFFFF;" d="M441.374,312.415c-13.936-2.625-25.393-3.905-25.59-2.858c-0.197,1.047,10.94,4.024,24.876,6.649      c13.936,2.625,25.393,3.905,25.591,2.858C466.447,318.017,455.31,315.04,441.374,312.415z"/>
				<path style="fill:#FFFFFF;" d="M414.958,318.243c-0.217,1.043,11.734,4.415,26.694,7.531c14.96,3.116,27.264,4.797,27.482,3.754      c0.217-1.043-11.734-4.415-26.695-7.531C427.479,318.881,415.175,317.2,414.958,318.243z"/>
				<path style="fill:#FFFFFF;" d="M471.035,339.305c1.056,0.139,3.16-9.246,4.699-20.962c1.539-11.715,1.93-21.325,0.874-21.464      c-1.056-0.139-3.16,9.246-4.699,20.962c-0.882,6.711-1.384,12.721-1.456,16.666c-2.462-1.001-15.428-2.068-30.889-4.56      c-17.217-2.705-30.991-6.143-31.316-5.074c-0.322,0.961,13.177,6.126,30.709,8.884c15.759,2.537,28.984,2.21,31.488,1.381      C470.429,337.698,470.617,339.251,471.035,339.305z"/>
				<path style="fill:#FFFFFF;" d="M486.704,297.831c-1.053-0.16-3.424,9.681-5.294,21.981c-1.871,12.3-2.533,22.401-1.48,22.561      c1.053,0.16,3.424-9.681,5.295-21.981C487.095,308.092,487.757,297.991,486.704,297.831z"/>
				<path style="fill:#FFFFFF;" d="M495.649,304.242c-1.054-0.158-3.278,8.827-4.968,20.07c-0.641,4.263-1.112,8.234-1.393,11.536      c1.88-3.568,3.477-7.283,4.749-11.154c0.329-1.002,0.632-2.009,0.916-3.02C496.269,311.937,496.6,304.385,495.649,304.242z"/>
				<path style="fill:#FFFFFF;" d="M364.005,326.307c-0.259,1.034,9.291,4.314,21.33,7.327c12.039,3.013,22.009,4.618,22.267,3.584      c0.259-1.034-9.291-4.314-21.33-7.327C374.233,326.878,364.264,325.273,364.005,326.307z"/>
				<path style="fill:#FFFFFF;" d="M381.966,340.717c-12.926-1.824-23.526-2.448-23.675-1.393      c-0.149,1.055,10.209,3.389,23.135,5.214c12.927,1.825,23.526,2.449,23.675,1.394      C405.25,344.875,394.892,342.541,381.966,340.717z"/>
				<path style="fill:#FFFFFF;" d="M377.363,349.372c-9.198-2.113-16.849-2.985-17.087-1.946c-0.239,1.038,7.025,3.593,16.224,5.707      c9.199,2.113,16.849,2.985,17.088,1.946C393.825,354.04,386.561,351.485,377.363,349.372z"/>
				<path style="fill:#FFFFFF;" d="M411.242,334.735c-1.052-0.166-3.746,11.387-6.016,25.803      c-2.27,14.416-3.257,26.238-2.205,26.403c1.053,0.166,3.746-11.387,6.016-25.803C411.307,346.722,412.294,334.9,411.242,334.735      z"/>
				<path style="fill:#FFFFFF;" d="M422.828,335.246c-1.053-0.165-3.854,12.133-6.258,27.467      c-1.602,10.217-2.617,19.182-2.809,24.091c0.724-0.183,1.443-0.37,2.16-0.56c1.291-4.904,2.953-13.321,4.46-22.934      C422.785,347.977,423.88,335.412,422.828,335.246z"/>
				<path style="fill:#FFFFFF;" d="M434.379,336.907c-1.043-0.215-4.309,11.354-7.294,25.841c-1.793,8.7-3.07,16.452-3.584,21.32      c0.88-0.274,1.752-0.554,2.619-0.838c1.392-4.727,3.109-11.77,4.743-19.703C433.849,349.04,435.423,337.122,434.379,336.907z"/>
				<path style="fill:#FFFFFF;" d="M441.698,343.759c-1.052-0.167-3.49,9.656-5.446,21.942c-0.883,5.545-1.513,10.633-1.846,14.574      c1.111-0.431,2.206-0.876,3.293-1.327c0.788-3.567,1.611-7.918,2.363-12.641C442.017,354.022,442.75,343.927,441.698,343.759z"/>
				<path style="fill:#FFFFFF;" d="M454.288,341.617c-1.056-0.141-3.294,10.107-4.998,22.888c-0.456,3.418-0.824,6.66-1.104,9.594      c1.321-0.679,2.626-1.371,3.903-2.084c0.353-2.205,0.699-4.555,1.025-7.001C454.818,352.234,455.344,341.758,454.288,341.617z"/>
				<path style="fill:#FFFFFF;" d="M467.009,346.37c-0.124,1.058,4.594,2.481,10.538,3.178c0.787,0.092,1.552,0.165,2.295,0.223      c0.927-1.092,1.815-2.207,2.675-3.338c-1.371-0.278-2.891-0.526-4.521-0.717C472.052,345.019,467.133,345.312,467.009,346.37z"/>
				<path style="fill:#FFFFFF;" d="M464.607,357.96c0.703-8.829,0.668-15.284-0.188-15.376c-1.059-0.114-2.973,9.562-4.274,21.612      c-0.113,1.051-0.215,2.077-0.312,3.089c1.423-0.944,2.819-1.907,4.171-2.899c1.571-1.152,3.086-2.342,4.56-3.559      c1.483-1.224,2.921-2.477,4.303-3.765c-0.114,0.001-0.221-0.003-0.336,0C469.288,357.12,466.439,357.47,464.607,357.96z"/>
			</g>
			<path style="fill:#0D2554;" d="M66.888,384.242c7.59,3.954,15.266,7.858,23.009,11.654c2.159-4.351,4.317-8.702,6.476-13.054     c-0.519,5.145-1.038,10.29-1.556,15.436c11.168,5.386,22.46,10.528,33.83,15.23c19.321,7.99,39.363,14.75,59.767,20.198     c3.861-5.492,7.721-10.984,11.581-16.476c-0.227,6.421-0.454,12.842-0.681,19.263c19.273,4.67,38.811,8.157,58.327,10.35     c20.643,2.321,42.015,4.666,63.369,5.748c3.713-7.72,7.427-15.44,11.14-23.16c-0.112,7.868-0.224,15.736-0.336,23.605     c15.047,0.434,30.023,0.123,44.667-1.396c10.542-1.093,20.725-2.876,30.485-5.554c4.927-19.781,7.575-40.218-0.317-59.593     c-2.831-6.95-5.611-14.81-9.033-21.438c-4.307-8.343-12.192-14.206-15.808-23.1c-4.769-11.729-1.627-25.041,1.991-37.174     c7.245-24.291,6.432-52.863-8.377-73.921c-14.66-20.848-35.977-42.782-63.282-43.206c-1.25-0.019-12.392,1.531-12.52,1.344     c-20.829-30.339-73.319-26.983-103.054-14.313c-30.886,13.161-53.98,43.122-58.844,76.341     c-1.199,8.187-5.43,20.045-13.385,24.133c-9.174,4.715-19.5,3.734-28.552,10.077c-14.596,10.227-17.818,24.118-18.896,41.032     c-0.348,5.464-2.031,11.364-6.578,14.415c-3.042,2.042-6.843,2.461-10.415,3.273c-10.686,2.429-20.004,9.288-26.264,18.256     C44.194,370.298,54.961,378.029,66.888,384.242z"/>
			<g>
				<path style="fill:#F75AA8;" d="M370.952,340.556c11.508,14.557,10.952,35.711-3.781,49.428      c-11.902,11.081-28.667,13.27-41.34,6.547c-4.249,4.736-9.018,8.867-14.443,12.059c-17.017,10.014-36.877,14.822-56.542,15.067      c-35.395,0.44-69.186-13.712-90.908-41.978c-22.772-29.632-19.236-76.553-11.452-110.454      c4.16-18.116,9.356-37.634,19.972-53.318c5.604-1.194,11.416-1.699,17.106-1.723c14.28-0.06,28.506,2.407,42.778,1.915      c12.271-0.423,24.434-3.131,35.786-7.805c-0.819,3.516-1.203,7.13-1.064,10.746c0.559,14.551,9.299,28.515,22.142,35.378      c6.265,3.348,13.376,5.105,19.178,9.204c8.496,6.002,12.976,16.121,16.36,25.957c3.384,9.837,6.218,20.185,12.713,28.311      c3.376,4.223,6.522,8.435,11.51,10.58C348.967,330.467,364,331.762,370.952,340.556z"/>
			</g>
			<g>
				<g>
					<g>
						<path style="fill:#0D2554;" d="M367.346,353.844c0.125-0.124-0.362-0.964-1.725-2.034c-1.349-1.058-3.672-2.258-6.787-2.652        c-3.076-0.418-6.995,0.064-10.685,1.967c-3.708,1.862-7.13,4.962-9.877,8.722c-5.571,7.559-7.522,16.106-7.685,22.087        c-0.179,6.059,1.061,9.649,1.383,9.573c0.476-0.065,0.005-3.701,0.702-9.408c0.68-5.658,2.827-13.505,7.983-20.5        c2.542-3.477,5.574-6.304,8.767-8.064c3.188-1.795,6.472-2.399,9.238-2.293C364.287,351.469,367.063,354.256,367.346,353.844z        "/>
					</g>
					<g>
						<path style="fill:#0D2554;" d="M349.961,388.113c0.252,0.244,2.019-0.986,3.448-4.054c1.424-2.977,2.215-8.012,0.075-12.917        c-2.18-4.888-6.431-7.698-9.589-8.655c-3.229-1.013-5.329-0.538-5.319-0.187c-0.032,0.455,1.901,0.761,4.522,2.121        c2.597,1.311,5.913,3.942,7.679,7.914c1.742,3.983,1.45,8.206,0.667,11.008C350.681,386.196,349.603,387.829,349.961,388.113z        "/>
					</g>
				</g>
				<g>
					<path style="fill:#0D2554;" d="M202.338,293.113c0.803,0.151,2.805-6.913,4.473-15.777c1.668-8.864,2.369-16.173,1.566-16.324       c-0.803-0.151-2.805,6.913-4.473,15.777C202.237,285.654,201.535,292.962,202.338,293.113z"/>
				</g>
				<g>
					<path style="fill:#0D2554;" d="M295.028,313.592c0.803,0.151,2.806-6.913,4.473-15.777c1.668-8.864,2.369-16.172,1.566-16.324       c-0.803-0.151-2.805,6.913-4.473,15.777C294.927,306.133,294.225,313.441,295.028,313.592z"/>
				</g>
				<g>
					<path style="fill:#0D2554;" d="M242.409,320.142c0.251-0.424-2.597-1.852-5.209-5.797c-1.267-1.959-2.429-4.548-2.775-7.551       c-0.375-2.98,0.221-6.368,1.829-9.461c1.634-3.079,4.086-5.493,6.752-6.875c2.669-1.419,5.46-1.931,7.792-2       c4.731-0.087,7.522,1.447,7.729,1c0.212-0.23-2.346-2.59-7.664-3.09c-2.608-0.206-5.852,0.127-9.078,1.654       c-3.239,1.496-6.236,4.313-8.15,7.936c-1.898,3.632-2.516,7.699-1.91,11.215c0.574,3.522,2.141,6.383,3.79,8.413       C238.946,319.68,242.34,320.447,242.409,320.142z"/>
				</g>
				<g>
					<path style="fill:#0D2554;" d="M260.038,313.011c-0.429-0.695-2.963,0.092-5.66,1.758c-2.696,1.666-4.534,3.58-4.105,4.275       c0.429,0.695,2.963-0.092,5.66-1.758C258.63,315.62,260.468,313.706,260.038,313.011z"/>
				</g>
			</g>
			<path style="fill:#FFFFFF;" d="M228.119,331.549c3.117,8.012,10.38,13.908,19.248,14.576c8.868,0.667,16.932-4.075,21.212-11.531     L228.119,331.549z"/>
			<g style="opacity:0.33;">
				<circle style="fill:#D9245F;" cx="185.045" cy="334.146" r="31.578"/>
				<circle style="fill:#D9245F;" cx="296.111" cy="351.757" r="31.578"/>
			</g>
			<g style="opacity:0.51;">
				<g>
					<path style="fill:#03CDC5;" d="M298.421,191.191c-0.569-0.501-5.083,4.101-11.81,8.053c-6.683,4.024-12.882,5.795-12.713,6.534       c0.078,0.659,6.907-0.052,14.028-4.324C295.079,197.236,298.963,191.575,298.421,191.191z"/>
				</g>
				<g>
					<g>
						<path style="fill:#03CDC5;" d="M345.219,316.895c0.136,0.045,0.949-1.712,1.625-5.133c0.638-3.405,1.026-8.542-0.171-14.707        c-1.153-6.145-4.029-13.256-9.015-19.886c-4.904-6.681-11.914-12.762-19.956-17.715c-7.996-5.012-15.904-9.103-22.235-13.985        c-6.413-4.73-10.903-10.501-13.522-15.872c-1.312-2.688-2.14-5.277-2.62-7.602c-0.408-2.335-0.539-4.389-0.436-6.066        c0.198-3.356,0.846-5.172,0.609-5.245c-0.084-0.029-0.298,0.398-0.634,1.253c-0.364,0.845-0.712,2.165-0.972,3.899        c-0.264,1.738-0.282,3.906,0.014,6.395c0.367,2.475,1.116,5.251,2.388,8.13c2.524,5.741,7.131,11.956,13.722,16.982        c6.472,5.15,14.456,9.355,22.312,14.285c7.892,4.866,14.612,10.625,19.439,16.97c4.885,6.288,7.793,12.979,9.126,18.834        c1.373,5.87,1.28,10.825,0.959,14.186C345.497,314.992,345.017,316.837,345.219,316.895z"/>
					</g>
					<g>
						<path style="fill:#03CDC5;" d="M360.154,319.302c0.116,0.03,0.829-1.86,1.386-5.441c0.573-3.568,0.974-8.86,0.206-15.338        c-0.818-6.446-2.849-14.094-7.063-21.676c-2.086-3.788-4.712-7.541-7.891-11.029c-3.182-3.478-6.857-6.689-10.81-9.662        c-7.915-5.95-15.969-10.678-22.766-15.636c-6.808-4.902-12.285-10.175-16.083-15.21c-3.829-5.028-5.847-9.793-6.883-13.164        c-0.993-3.396-1.187-5.385-1.421-5.362c-0.118,0.002-0.269,2.031,0.452,5.612c0.76,3.548,2.603,8.634,6.38,13.983        c3.741,5.356,9.267,10.933,16.15,16.05c6.841,5.148,14.877,9.953,22.618,15.778c3.87,2.911,7.43,6.004,10.508,9.318        c3.066,3.315,5.619,6.876,7.68,10.485c4.16,7.22,6.306,14.546,7.327,20.77c0.971,6.254,0.861,11.424,0.6,14.966        C360.302,317.298,359.924,319.255,360.154,319.302z"/>
					</g>
					<g>
						<path style="fill:#03CDC5;" d="M369.679,313.122c0.133,0.048,1.039-1.826,2.108-5.426c1.053-3.595,2.175-8.967,2.386-15.713        c0.216-6.726-0.605-14.862-3.459-23.368c-2.849-8.484-7.806-17.257-14.905-24.798c-7.043-7.582-15.574-13.04-23.739-16.496        c-8.113-3.526-15.467-6.359-20.827-10.112c-5.417-3.668-8.826-7.852-10.563-11.044c-1.787-3.194-2.137-5.267-2.376-5.205        c-0.087,0.018-0.048,0.535,0.111,1.521c0.208,0.969,0.566,2.41,1.372,4.135c1.528,3.472,4.9,8.067,10.404,12.076        c5.465,4.112,12.959,7.19,20.901,10.787c7.966,3.519,16.022,8.776,22.842,16.097c6.841,7.267,11.671,15.671,14.541,23.81        c2.874,8.163,3.863,16.022,3.881,22.577C372.358,305.168,369.156,313.005,369.679,313.122z"/>
					</g>
					<g>
						<path style="fill:#03CDC5;" d="M370.384,245.039c0.247,0.065,0.755-4.597-2.491-11.038c-1.608-3.171-4.128-6.651-7.562-9.859        c-3.428-3.224-7.736-6.083-12.436-8.607c-4.708-2.517-9.333-4.532-13.473-6.419c-4.147-1.877-7.816-3.647-10.807-5.297        c-5.999-3.277-9.226-6.079-9.495-5.782c-0.227,0.211,2.642,3.568,8.564,7.345c2.942,1.892,6.606,3.87,10.726,5.878        c4.116,2.019,8.676,4.086,13.268,6.542c4.58,2.46,8.738,5.144,12.058,8.094c3.331,2.94,5.847,6.1,7.563,8.981        C369.754,240.693,369.932,245.114,370.384,245.039z"/>
					</g>
					<g>
						<path style="fill:#03CDC5;" d="M283.245,187.944c0.213-0.237-1.814-2.554-5.703-5.637c-3.876-3.082-9.714-6.804-16.722-9.738        c-7.016-2.916-13.768-4.446-18.685-5.032c-4.927-0.595-7.999-0.406-8.018-0.087c-0.088,0.799,12.088,1.726,25.713,7.494        C273.514,180.568,282.739,188.569,283.245,187.944z"/>
					</g>
					<g>
						<path style="fill:#03CDC5;" d="M172.121,191.658c0.146,0.417,5.921-1.56,15.495-3.595c2.396-0.499,5.019-1.038,7.867-1.439        c2.829-0.513,5.887-0.807,9.093-1.184c6.43-0.584,13.529-0.885,20.976-0.623c7.444,0.327,14.496,1.189,20.861,2.28        c3.166,0.629,6.191,1.165,8.971,1.899c2.808,0.625,5.379,1.37,7.728,2.056c9.383,2.786,14.983,5.213,15.162,4.809        c0.073-0.162-1.26-0.909-3.748-2.127c-1.238-0.624-2.773-1.341-4.608-2.05c-1.828-0.724-3.889-1.621-6.254-2.364        c-2.344-0.807-4.924-1.664-7.751-2.389c-2.799-0.835-5.855-1.459-9.062-2.163c-6.446-1.239-13.621-2.188-21.198-2.521        c-7.58-0.268-14.808,0.111-21.332,0.837c-3.253,0.448-6.349,0.828-9.205,1.439c-2.875,0.5-5.514,1.15-7.915,1.769        c-2.416,0.554-4.541,1.286-6.421,1.863c-1.885,0.562-3.473,1.155-4.756,1.679C173.449,190.851,172.06,191.491,172.121,191.658        z"/>
					</g>
					<g>
						<path style="fill:#03CDC5;" d="M265.108,206.786c0.007-0.189-1.776-0.403-4.99-0.771c-3.215-0.363-7.857-0.92-13.592-1.686        c-5.736-0.755-12.566-1.742-20.218-2.529c-7.646-0.781-16.153-1.295-25.087-0.683c-8.921,0.638-17.4,2.465-24.589,5.554        c-7.196,3.061-13.012,7.224-17.199,11.373c-4.18,4.181-6.773,8.263-8.181,11.222c-1.42,2.967-1.804,4.756-1.685,4.797        c0.212,0.085,0.913-1.572,2.564-4.318c1.641-2.743,4.373-6.522,8.556-10.384c4.192-3.832,9.887-7.676,16.854-10.501        c6.953-2.849,15.161-4.554,23.861-5.176c8.718-0.598,17.09-0.169,24.686,0.477c7.601,0.652,14.455,1.451,20.233,1.977        c5.779,0.537,10.477,0.821,13.728,0.878C263.302,207.076,265.102,206.952,265.108,206.786z"/>
					</g>
					<g>
						<path style="fill:#03CDC5;" d="M57.773,371.53c0.022,0.086,0.627-0.007,1.77-0.267c1.158-0.214,2.794-0.768,4.885-1.56        c2.038-0.898,4.534-2.063,7.152-3.881c2.657-1.751,5.471-4.095,8.149-7.095c5.346-5.914,10.336-14.729,11.247-25.517        c0.427-5.319-0.082-10.822,0.805-16.197c0.482-2.653,1.343-5.264,2.985-7.387c1.574-2.171,3.909-3.751,6.513-4.937        c5.25-2.355,11.233-3.227,16.57-5.711c5.32-2.377,9.998-5.608,13.873-9.276c7.808-7.357,12.135-16.415,13.849-24.223        c1.753-7.869,1.237-14.464,0.464-18.827c-0.425-2.189-0.88-3.857-1.26-4.964c-0.389-1.105-0.634-1.668-0.719-1.642        c-0.21,0.06,0.463,2.416,0.989,6.752c0.457,4.318,0.671,10.729-1.241,18.255c-1.879,7.474-6.173,15.997-13.701,22.92        c-3.736,3.448-8.214,6.478-13.269,8.7c-4.991,2.318-10.851,3.125-16.618,5.675c-2.846,1.289-5.614,3.14-7.495,5.742        c-1.951,2.548-2.917,5.596-3.423,8.5c-0.913,5.865-0.324,11.379-0.685,16.451c-0.727,10.151-5.281,18.656-10.252,24.489        c-2.486,2.959-5.116,5.315-7.609,7.118c-2.455,1.87-4.809,3.128-6.736,4.144C60.082,370.673,57.706,371.29,57.773,371.53z"/>
					</g>
					<g>
						<path style="fill:#03CDC5;" d="M106.409,390.648c0.113,0.097,1.265-0.939,3.013-3.111c1.753-2.161,4.095-5.492,6.282-10.003        c2.205-4.493,4.242-10.174,5.355-16.739c0.53-3.282,0.837-6.774,0.817-10.399c0.01-3.63-0.447-7.386-0.972-11.099        c-0.506-3.725-0.987-7.321-0.917-10.741c0.042-3.414,0.711-6.634,2.159-9.312c1.409-2.696,3.598-4.802,5.739-6.645        c2.166-1.837,4.354-3.421,6.31-4.956c3.955-3.014,6.816-6.163,7.98-8.806c1.168-2.636,1.041-4.275,0.948-4.27        c-0.253-0.054-0.482,1.497-1.832,3.8c-1.353,2.317-4.16,5.031-8.184,7.819c-1.996,1.421-4.255,2.922-6.578,4.767        c-2.29,1.852-4.754,4.066-6.459,7.15c-1.731,3.048-2.524,6.721-2.601,10.393c-0.109,3.69,0.383,7.417,0.887,11.147        c0.528,3.741,0.976,7.303,1.001,10.782c0.053,3.476-0.192,6.833-0.638,10.003c-0.945,6.34-2.732,11.885-4.665,16.346        C110.157,385.727,106.006,390.35,106.409,390.648z"/>
					</g>
					<g>
						<path style="fill:#03CDC5;" d="M127.817,402.274c0.227,0.192,2.861-2.322,5.993-7.266c3.132-4.912,6.596-12.384,8.28-21.202        c0.861-4.395,1.162-8.674,1.11-12.549c-0.044-3.897-0.536-7.306-0.722-10.133c-0.514-5.666,0.407-9.077,0.048-9.196        c-0.303-0.158-1.925,3.341-1.866,9.255c-0.041,2.929,0.259,6.348,0.17,10.07c-0.078,3.735-0.437,7.839-1.266,12.069        c-1.622,8.48-4.679,15.763-7.33,20.777C129.591,399.134,127.492,402.022,127.817,402.274z"/>
					</g>
					<g>
						<path style="fill:#03CDC5;" d="M148.254,413.182c0.61,0.29,4.145-6.227,6.09-15.088c1.986-8.851,1.54-16.252,0.865-16.247        c-0.744-0.024-1.449,7.122-3.376,15.69C149.955,406.116,147.57,412.889,148.254,413.182z"/>
					</g>
					<g>
						<path style="fill:#03CDC5;" d="M165.289,419.526c0.698,0.134,2.066-3.943,3.057-9.106c0.991-5.163,1.229-9.457,0.531-9.591        c-0.698-0.134-2.066,3.943-3.057,9.106C164.829,415.098,164.591,419.393,165.289,419.526z"/>
					</g>
					<g>
						<path style="fill:#03CDC5;" d="M395.75,441.991c0.137,0.059,1.069-1.571,2.252-4.747c1.138-3.179,2.508-7.94,3.133-13.99        c0.655-6.037,0.588-13.337-0.692-21.273c-1.282-7.931-3.758-16.443-7.176-25.007c-3.364-8.587-7.458-16.385-10.845-23.485        c-3.379-7.105-5.753-13.778-6.491-19.619c-0.794-5.832-0.219-10.641,0.639-13.815c0.829-3.197,1.717-4.848,1.516-4.95        c-0.107-0.069-1.31,1.431-2.473,4.657c-1.19,3.197-2.083,8.206-1.489,14.318c0.533,6.129,2.837,13.144,6.145,20.4        c3.325,7.269,7.289,14.971,10.608,23.443c3.367,8.437,5.852,16.74,7.23,24.456c1.373,7.713,1.626,14.809,1.216,20.716        C398.487,434.966,395.287,441.843,395.75,441.991z"/>
					</g>
					<g>
						<path style="fill:#03CDC5;" d="M377.262,442.577c0.293,0.113,1.788-2.721,3.288-7.665c1.506-4.929,2.84-12.021,2.863-19.933        c0.002-7.912-1.309-15.007-2.799-19.942c-1.484-4.948-2.97-7.788-3.263-7.675c-0.777,0.239,3.602,12.211,3.49,27.613        C380.905,430.378,376.486,442.336,377.262,442.577z"/>
					</g>
					<g>
						<path style="fill:#03CDC5;" d="M358.943,445.487c0.559,0.32,5.173-8.396,6.212-20.315c1.129-11.911-1.836-21.316-2.444-21.102        c-0.764,0.15,0.979,9.444-0.117,20.869C361.61,436.374,358.218,445.201,358.943,445.487z"/>
					</g>
					<g>
						<path style="fill:#03CDC5;" d="M305.203,450.819c0.212,0.221,2.826-1.773,6.268-5.798c3.441-4.006,7.541-10.188,10.542-17.729        c2.978-7.55,4.224-14.863,4.46-20.138c0.249-5.29-0.291-8.533-0.597-8.517c-0.822-0.041-0.348,13.083-6.254,27.708        C313.909,441.048,304.576,450.286,305.203,450.819z"/>
					</g>
					<g>
						<path style="fill:#03CDC5;" d="M286.51,444.556c0.237,0.231,1.688-0.742,3.561-2.824c1.871-2.07,4.078-5.318,5.695-9.295        c1.606-3.981,2.282-7.849,2.379-10.638c0.104-2.798-0.261-4.507-0.592-4.506c-0.765-0.011-1.085,6.704-4.171,14.178        C290.396,438.986,285.952,444.032,286.51,444.556z"/>
					</g>
					<g>
						<path style="fill:#03CDC5;" d="M263.422,443.279c0.618,0.351,3.244-3.111,5.866-7.732c2.622-4.621,4.246-8.651,3.629-9.001        c-0.618-0.351-3.244,3.111-5.866,7.732C264.429,438.898,262.804,442.928,263.422,443.279z"/>
					</g>
					<g>
						<path style="fill:#03CDC5;" d="M234.909,437.388c0.599,0.382,2.529-1.569,4.311-4.359c1.782-2.79,2.742-5.362,2.143-5.744        c-0.599-0.382-2.529,1.569-4.311,4.359C235.271,434.434,234.311,437.005,234.909,437.388z"/>
					</g>
					<g>
						<path style="fill:#03CDC5;" d="M218.466,431.049c0.677,0.214,2.059-2.243,3.087-5.49c1.028-3.246,1.312-6.051,0.634-6.266        c-0.677-0.214-2.059,2.243-3.087,5.49C218.073,428.029,217.789,430.835,218.466,431.049z"/>
					</g>
					<g>
						<path style="fill:#03CDC5;" d="M345.602,445.585c0.639,0.151,2.702-8.346,1.433-18.917c-1.2-10.578-5.165-18.372-5.752-18.077        c-0.713,0.276,2.053,8.209,3.198,18.376C345.709,437.123,344.845,445.48,345.602,445.585z"/>
					</g>
				</g>
			</g>
			<g>
				<g>
					<g>
						<path style="fill:#FFDB2A;" d="M241.351,278.031c0.049,2.379-0.043,4.783-0.359,7.214c6.144-2.674,12.886-1,17.047,4.031        c0.758-2.351,1.682-4.611,2.77-6.773C255.515,277.941,248.205,276.221,241.351,278.031z"/>
					</g>
					<g>
						<path style="fill:#FFDB2A;" d="M382.201,330.636c-5.362-3.252-12.321-4.608-18.229-6.564        c-4.986-1.651-9.972-3.303-14.958-4.954c-0.707,2.135-1.551,4.195-2.532,6.173c6.244,2.068,12.488,4.136,18.732,6.204        c3.583,1.186,7.167,2.363,10.731,3.602c8.376,2.911,8.95,10.419,8.158,17.996c-0.447,4.275,6.168,5.217,6.616,0.927        C391.728,344.375,391.135,336.054,382.201,330.636z"/>
					</g>
				</g>
				<g style="opacity:0.39;">
					<circle style="fill:#FFDB2A;" cx="193.505" cy="279.062" r="47.909"/>
					<circle style="fill:#FFDB2A;" cx="303.579" cy="304.021" r="47.909"/>
				</g>
			</g>
		</g>
		<g>
			<path style="fill:#0D2554;" d="M47.278,147.476c-1.295,0.743-2.953,2.697-5.185,6.219c0.488,0.707,1.048,1.404,1.774,1.972     c0.978,0.829,1.946,1.586,2.883,2.384c0.251,0.261,0.574,0.514,0.69,0.864c0.098,0.206-0.01,0.512-0.168,0.714     c-0.095,0.121-0.454,0.165-0.607,0.11c-0.426-0.203-0.893-0.438-1.265-0.793c-1.107-0.996-2.215-1.991-3.259-3.067     c-1.425-1.504-3.008-2.806-4.749-3.905c-1.337-0.785-2.507-1.7-3.551-2.776c-0.695-0.607-1.39-1.216-2.117-1.783     c-1.664-1.365-3.318-2.658-5.013-3.983c-1.323-0.969-2.637-1.865-3.929-2.875l-1.897-1.482c-1.049-0.82-2.004-1.761-3.044-2.509     c-0.96-0.686-2.046-1.209-3.038-1.854c-0.466-0.235-0.614-0.545-0.411-0.972c0.131-0.417,0.513-0.573,0.931-0.442     c0.346,0.14,0.691,0.28,0.974,0.501c1,0.717,1.96,1.401,2.888,2.127l6.781,5.299c2.753,2.217,5.592,4.24,8.179,6.587     c2.004,1.761,4.274,3.015,6.157,4.682c0.831-0.065,1.097-0.572,1.373-1.008c1.032-1.403,1.974-2.942,3.32-4.166     c0.387-0.412,0.469-0.934,0.341-1.684l-2.327-2.014c-3.892-3.172-7.982-6.173-11.757-9.578c-1.148-1.026-2.462-1.924-3.745-2.861     c-1.727-1.284-3.494-2.6-5.252-3.844c-0.363-0.284-0.781-0.415-1.104-0.668c-0.516-0.338-0.722-0.823-0.509-1.178     c0.212-0.354,0.594-0.511,1.061-0.276c0.467,0.235,0.974,0.501,1.418,0.848c1.444,1.064,2.897,2.199,4.31,3.304     c1.986,1.617,4.067,3.113,5.959,4.852c3.112,2.757,6.466,5.118,9.641,7.794c0.775,0.672,1.56,1.414,2.408,2.077     c2.511,2.027,5.054,4.014,7.605,6.073c0.283,0.221,0.605,0.473,0.856,0.734c0.332,0.324,0.331,0.908-0.034,1.208     c-0.301,0.22-0.67,0.191-0.961-0.102c-0.848-0.662-1.624-1.333-2.439-2.036C49.44,149.035,48.422,148.175,47.278,147.476z"/>
			<path style="fill:#0D2554;" d="M58.763,142.928c0.446-0.497,0.819-0.923,1.23-1.456c0.111-0.106,0.222-0.213,0.298-0.355     l0.593-0.565c0.074-0.071,0.148-0.142,0.222-0.213l0.482-0.459c0.408-0.389,0.815-0.778,1.156-1.386     c0.15-0.214,0.335-0.391,0.45-0.642l0.111-0.106c0.037-0.035,0.037-0.035,0.074-0.07c0.371-0.354,0.841-0.307,1.125-0.082     c0.285,0.224,0.601,0.63,0.665,0.994c0.103,0.256,0.163,0.765-0.17,1.082c-0.074,0.071-0.184,0.104-0.33,0.174     c-0.182,0.032-0.293,0.138-0.404,0.244c-0.186,0.177-0.335,0.391-0.485,0.604l-0.002,0.072c-0.037,0.035-0.074,0.07-0.076,0.144     c-0.076,0.143-0.151,0.286-0.263,0.392c-0.037,0.035-0.074,0.071-0.109,0.034c-0.258,0.175-0.518,0.422-0.777,0.67     c-0.408,0.389-0.743,0.779-1.115,1.205c-0.373,0.426-0.708,0.816-1.078,1.17l-0.186,0.177c-0.371,0.354-0.851,0.741-1.44,1.162     c-0.332,0.246-1.088,0.047-1.441-0.324l-0.177-0.185c-0.035-0.037-0.034-0.11-0.069-0.147c-1.229-1.659-2.679-3.179-4.307-4.811     c-0.354-0.371-0.635-0.74-0.951-1.146l-0.633-0.812c-0.318-0.334-0.601-0.63-0.884-0.927c-1.271-1.406-2.505-2.849-3.667-4.289     c-0.704-0.886-1.483-1.629-2.264-2.3c-2.552-2.379-4.99-5.009-7.322-7.527l-0.813-0.853c-1.025-1.074-2.158-2.188-3.222-3.155     c-0.461-0.409-0.886-0.854-1.347-1.264c-0.071-0.074-0.177-0.186-0.32-0.261c-0.212-0.223-0.461-0.409-0.638-0.595     c-0.175-0.258-0.305-0.913-0.083-1.125l0.037-0.035c0.26-0.248,0.447-0.497,0.672-0.854c0.296-0.282,0.558-0.603,0.854-0.885     l0.371-0.354c0.738-0.562,1.515-1.232,2.182-1.869c0.332-0.246,0.703-0.6,0.999-0.882l0.186-0.177     c0.258-0.176,0.443-0.353,0.664-0.492c0.258-0.175,0.51-0.133,0.798-0.054c0.253,0.043,0.502,0.229,0.606,0.413     c0.313,0.551,0.266,1.021-0.031,1.304l-0.186,0.177c-0.733,0.345-1.396,0.837-2.138,1.544l-0.89,0.849     c-0.298,0.354-0.669,0.708-1.075,1.024c-0.111,0.106-0.221,0.141-0.258,0.176c-0.259,0.247-0.374,0.498-0.416,0.751l0.707,0.741     c0.565,0.593,1.167,1.223,1.803,1.89l1.485,1.557c0.389,0.408,0.742,0.778,1.129,1.259l0.071,0.074l2.545,2.669     c0.566,0.593,1.202,1.26,1.84,1.854l0.671,0.704c0.26-0.247,0.519-0.495,0.706-0.744c0.67-0.781,1.341-1.562,2.01-2.271     c0.074-0.07,0.148-0.141,0.224-0.284c0.148-0.142,0.261-0.32,0.372-0.426c0.223-0.212,0.554-0.458,1.134-0.444l0.145,0.003     l0.071,0.074c0.596,0.848,1.015,1.51,0.385,2.11c-0.111,0.106-0.295,0.211-0.553,0.386c-0.367,0.209-0.81,0.561-1.218,0.949     c-0.63,0.602-1.154,1.313-1.721,2.278c0.036,0.037,0.071,0.074,0.106,0.111c1.886,1.457,3.33,3.194,4.772,5.004     c0.845,1.034,1.763,2.07,2.788,3.145l4.137,4.337c0.601,0.63,1.167,1.223,1.697,1.779L58.763,142.928z"/>
			<path style="fill:#0D2554;" d="M45.981,102.257c0.865-0.979,1.233-1.002,1.956-0.136c1.786,2.18,3.572,4.36,5.124,6.656     c0.848,1.286,1.665,2.53,2.717,3.661c1.207,1.336,2.119,2.96,3,4.542c1.057,1.899,2.491,3.447,3.833,5.13     c1.001,1.233,2.044,2.436,3.045,3.669c1.404,1.764,2.809,3.527,4.254,5.26l1.116,1.469c0.84,0.005,1.225-0.674,1.622-1.168     c0.793-0.989,1.781-1.805,2.832-2.538c0.439-0.27,0.878-0.538,1.348-0.767c0.163-0.124,0.46-0.157,0.685-0.199     c0.656,0.017,1.08,0.659,0.817,1.245c-0.152,0.308-0.325,0.504-0.569,0.689c-0.132,0.165-0.48,0.301-0.705,0.343     c-1.411,0.429-2.388,1.429-3.334,2.47l-1.912,2.225c-0.428,0.453-1.392,0.285-1.672-0.338c-0.977-2.217-2.688-3.876-4.073-5.783     l-0.124-0.163c-1.871-2.632-4.068-5.016-6.061-7.554c-1.24-1.632-2.275-3.418-3.464-5.152c-0.486-0.725-0.972-1.449-1.468-2.102     l-5.949-7.575c-0.909-1.11-1.745-2.212-2.623-3.282C46.22,102.654,46.105,102.42,45.981,102.257z"/>
			<path style="fill:#0D2554;" d="M60.253,92.204c0.955-0.891,1.324-0.878,1.96,0.054c1.567,2.348,3.135,4.69,4.458,7.124     c0.721,1.361,1.414,2.679,2.352,3.905c1.073,1.44,1.824,3.144,2.548,4.804c0.869,1.992,2.147,3.671,3.321,5.475     c0.878,1.324,1.8,2.621,2.678,3.945c1.228,1.891,2.456,3.781,3.727,5.645l0.969,1.568c0.835,0.086,1.284-0.552,1.727-1.006     c0.884-0.907,1.947-1.624,3.063-2.253c0.463-0.226,0.926-0.451,1.415-0.634c0.175-0.107,0.473-0.111,0.701-0.132     c0.651,0.08,1.012,0.761,0.693,1.317c-0.181,0.293-0.372,0.471-0.633,0.633c-0.147,0.15-0.506,0.252-0.734,0.272     c-1.446,0.291-2.515,1.192-3.557,2.137l-2.117,2.03c-0.469,0.41-1.413,0.15-1.632-0.497c-0.759-2.301-2.302-4.117-3.497-6.148     l-0.107-0.175c-1.609-2.799-3.566-5.383-5.305-8.102c-1.077-1.743-1.936-3.621-2.952-5.462c-0.414-0.768-0.828-1.535-1.258-2.232     l-5.191-8.112c-0.797-1.193-1.524-2.37-2.294-3.52C60.452,92.623,60.361,92.378,60.253,92.204z"/>
			<path style="fill:#0D2554;" d="M88.379,111.636c-1.448-2.657-3.117-5.89-4.855-9.032c-0.801-1.547-1.694-3.05-2.542-4.574     c-0.156-0.323-0.379-0.671-0.581-0.972c-0.357-0.624-0.806-1.203-1.049-1.825c-0.659-1.843-1.295-3.64-1.862-5.527     c-0.456-1.656-0.385-3.281-0.224-4.837c0.106-0.961,0.553-1.687,1.043-2.32c0.187-0.204,0.508-0.245,0.511-0.474     c0.292-1.164,1.187-1.196,2.083-1.343c1.056-0.167,2.088-0.266,3.164-0.157c2.126,0.284,3.596,1.566,4.574,3.483     c1.78,3.463,3.445,6.925,5.11,10.387c1.845,3.717,3.689,7.434,5.373,11.171c1.018,2.352,1.853,4.679,2.364,7.16     c0.49,2.437-0.696,5.053-2.816,5.845c-1.658,0.57-3.311,0.797-5.066,0.22c-1.345-0.433-2.319-1.157-2.963-2.496L88.379,111.636z      M87.874,86.245c-0.22-0.576-0.555-1.154-0.821-1.708c-0.6-1.246-1.529-1.879-2.739-2.149c-0.89-0.197-1.784-0.165-2.654-0.201     c-0.229-0.004-0.438,0.153-0.6,0.288c-0.395,0.361-0.746,0.813-1.094,1.152c-0.58,0.449-0.91,1.062-1.059,1.816     c-0.271,1.21-0.198,2.425,0.128,3.575c0.667,2.806,1.449,5.612,3.222,7.999c0.202,0.301,0.333,0.692,0.535,0.993     c1.158,2.171,2.362,4.32,3.566,6.469c1.158,2.172,2.386,4.252,3.474,6.514c0.712,1.363,1.31,2.724,1.976,4.108     c0.821,1.708,2.187,2.302,3.768,2.28c0.848-0.011,1.653-0.228,2.436-0.49c0.645-0.196,1.222-0.531,1.416-1.192     c0.457-1.413,0.685-2.83,0.158-4.281c-0.814-2.166-1.284-4.441-2.49-6.476c-0.113-0.116-0.202-0.301-0.291-0.485     c-0.977-2.031-1.677-4.195-2.931-6.093l-0.333-0.692c-0.377-0.785-0.777-1.616-1.176-2.446l-0.755-1.569     c-0.665-1.5-1.351-3.045-2.13-4.546C89.036,88.187,88.409,87.238,87.874,86.245z"/>
			<path style="fill:#0D2554;" d="M118.892,101.644c0.142-0.253,0.248-0.442,0.432-0.547c0.487-0.35,1-0.228,1.237,0.237     c0.188,0.479,0.277,0.986,0.401,1.431c0.22,1.162,0.503,2.359,1.153,3.348c0.874,1.403,3.314,1.569,4.333,0.271     c0.516-0.623,0.956-1.332,1.332-2.076c0.177-0.316,0.228-0.703,0.23-1.076c-0.015-1.379-0.291-2.738-0.75-3.992     c-1.044-2.58-2.222-5.069-3.718-7.363c-1.859-2.829-3.486-5.778-5.599-8.377c-1.211-1.469-2.373-2.951-3.436-4.462     c-0.839-1.095-1.58-2.217-2.236-3.415c-0.81-1.369-0.817-2.91-0.698-4.38c0.09-1.196,0.91-2.065,1.988-2.581     c0.846-0.397,1.77-0.71,2.649-0.798c1.437-0.19,2.749,0.505,3.673,1.522c0.911,0.968,1.454,2.146,1.631,3.532     c0.048,0.359-0.003,0.746-0.433,0.92c-0.43,0.174-0.943,0.053-1.167-0.364c-0.223-0.416-0.362-0.909-0.487-1.353     c-0.374-1.332-1.144-2.18-2.508-2.488c-1.813-0.395-3.579,0.899-3.601,2.715c-0.041,1.182,0.265,2.267,0.9,3.205     c0.804,1.157,1.707,2.287,2.561,3.431c0.636,0.939,1.308,1.814,1.993,2.739c0.699,0.975,1.434,1.885,2.133,2.859     c0.713,1.023,1.328,2.074,1.992,3.112c0.3,0.5,0.502,1.029,0.838,1.467c1.147,1.434,1.964,3.014,2.893,4.614     c1.39,2.483,2.412,5.176,3.04,7.979c0.372,1.704,0.056,3.229-0.999,4.59c-0.347,0.47-0.771,0.855-1.131,1.275     c-0.991,1.396-2.428,1.587-3.953,1.271c-0.324-0.016-0.625-0.144-0.9-0.173c-1.097-0.117-1.749-0.732-2.16-1.628     c-0.39-1.008-0.765-1.967-1.105-2.988C119.201,103.313,119.078,102.496,118.892,101.644z"/>
			<path style="fill:#0D2554;" d="M128.824,65.178c0.272-0.209,0.454-0.349,0.555-0.368c0.664-0.075,0.914,0.138,1.09,0.781     c0.097,0.503,0.264,1.097,0.311,1.609c0.677,5.399,2.139,10.542,3.217,15.863c0.631,3.271,1.513,6.491,1.993,9.789     c0.22,1.679,0.56,3.439,0.879,5.099c0.204,1.056,0.568,2.133,1.155,3.011c0.825,1.302,1.905,2.032,3.189,2.201     c1.565,0.272,2.905-0.352,3.928-1.54c0.597-0.689,0.705-1.753,0.48-2.648c-0.528-2.194-0.523-4.334-0.739-6.535     c-0.169-1.688-0.409-3.468-0.619-5.097c-0.087-0.453-0.225-0.896-0.362-1.339c-0.107-0.554-0.273-1.147-0.38-1.7     c-0.406-2.373-0.771-4.807-1.268-7.11c-0.798-3.863-1.646-7.717-2.484-11.52c-0.138-0.442-0.215-0.845-0.202-1.317     c-0.018-0.361,0.386-0.7,0.748-0.718s0.662,0.186,0.79,0.578c0.108,0.292,0.167,0.594,0.225,0.896     c0.806,4.177,1.681,8.441,2.496,12.666c0.437,2.263,0.772,4.545,1.25,6.748c0.671,3.208,1.072,6.365,1.381,9.592     c0.152,1.327,0.323,2.754,0.645,4.152c0.691,3.311-1.085,6-3.368,6.336c-0.412,0.027-0.865,0.115-1.257,0.243     c-1.59,0.411-3.022-0.252-4.33-1.355c-0.31-0.253-0.589-0.616-0.848-0.88c-0.778-0.789-1.264-1.686-1.488-2.843     c-0.289-1.77-0.669-3.47-0.968-5.29c-0.843-4.637-1.855-9.345-2.899-13.943c-0.956-4.145-1.721-8.379-2.596-12.645     L128.824,65.178z"/>
			<path style="fill:#0D2554;" d="M162.919,64.173c-1.033,1.446-1.586,3.049-2.191,4.657c-0.368,0.913-0.832,1.889-1.302,2.813     c-0.556,1.088-1.331,1.065-1.906-0.007c-1.258-2.186-2.71-4.248-4.161-6.311c-0.297-0.381-0.697-0.751-0.943-1.137     c-0.437,0.251-0.258,0.49-0.236,0.693c0.726,3.992,1.503,7.979,1.828,12.064c0.276,3.627,0.507,7.31,0.885,10.926     c0.155,1.478,0.457,2.888,0.662,4.359c0.322,2.593,0.594,5.19,0.911,7.731c0.032,0.306,0.013,0.616-0.006,0.928     c-0.06,0.418-0.542,0.726-0.915,0.61c-0.418-0.06-0.7-0.287-0.742-0.695c-0.12-1.635-0.126-3.179-0.297-4.809     c-0.181-1.733-0.525-3.551-0.712-5.334c-0.484-4.636-1.117-9.204-1.296-13.872c-0.004-1.025-0.111-2.044-0.325-3.104     c-0.456-2.887-0.856-5.729-1.415-8.605c-0.214-1.064-0.636-2.153-0.952-3.201c-0.217-0.596-0.05-0.974,0.5-1.134l0.458-0.042     c0.651-0.171,1.188,0.03,1.557,0.609c1.888,2.789,3.771,5.527,5.709,8.312c0.062,0.096,0.225,0.182,0.444,0.313     c0.263-0.439,0.572-0.935,0.778-1.42l2.401-6.585c0.115-0.372,0.226-0.796,0.279-1.265c0.054-0.469,0.282-0.75,0.618-0.991     c0.488-0.257,0.488-0.257,1.584-0.114c-0.138,2.126,0.182,4.203,0.344,6.246c0.316,3.52,0.735,7.028,1.051,10.549     c0.196,2.862,0.754,5.739,0.696,8.629c-0.022,0.774,0.109,1.533,0.285,2.235c0.454,2.373,0.653,4.772,0.751,7.182     c0.068,1.641,0.295,3.316,0.415,4.951c0.032,0.306,0.12,0.657,0.102,0.968c-0.014,0.362-0.379,0.812-0.781,0.906     c-0.357,0.037-0.801-0.277-0.9-0.73c-0.032-0.306-0.013-0.616-0.045-0.922c-0.161-3.999-0.377-8.045-1.048-11.991l-0.138-1.324     c-0.167-2.093-0.38-4.131-0.553-6.275c-0.138-2.303-0.337-4.701-0.526-6.999c-0.098-1.432-0.349-2.847-0.493-4.222l-0.272-2.598     C162.95,65.456,162.932,64.789,162.919,64.173z"/>
			<path style="fill:#0D2554;" d="M186.686,63.183c-1.147,1.357-1.83,2.91-2.563,4.464c-0.441,0.881-0.984,1.815-1.527,2.699     c-0.643,1.039-1.413,0.954-1.899-0.162c-1.076-2.281-2.355-4.455-3.634-6.63c-0.266-0.403-0.633-0.805-0.847-1.21     c-0.457,0.215-0.297,0.468-0.292,0.673c0.399,4.038,0.849,8.075,0.839,12.175c-0.02,3.638-0.09,7.328-0.008,10.964     c0.034,1.485,0.22,2.916,0.305,4.399c0.11,2.61,0.169,5.222,0.279,7.781c0.007,0.308-0.038,0.616-0.082,0.924     c-0.093,0.412-0.6,0.68-0.961,0.534c-0.412-0.093-0.674-0.343-0.683-0.753c0.014-1.64,0.133-3.18,0.096-4.818     c-0.04-1.74-0.235-3.58-0.275-5.372c-0.105-4.659-0.364-9.265-0.162-13.931c0.079-1.029,0.056-2.053-0.071-3.126     c-0.22-2.916-0.387-5.781-0.709-8.694c-0.126-1.069-0.459-2.189-0.688-3.26c-0.167-0.611,0.029-0.974,0.59-1.089l0.461-0.015     c0.664-0.117,1.181,0.127,1.502,0.735c1.655,2.934,3.309,5.816,5.014,8.75c0.054,0.101,0.209,0.2,0.418,0.349     c0.298-0.417,0.646-0.886,0.892-1.353l2.93-6.368c0.146-0.361,0.29-0.774,0.382-1.238c0.092-0.463,0.342-0.725,0.696-0.938     c0.507-0.217,0.507-0.217,1.588,0.015c-0.311,2.108-0.161,4.205-0.166,6.255c0.029,3.534,0.16,7.066,0.189,10.602     c-0.038,2.87,0.285,5.783-0.009,8.658c-0.085,0.771-0.017,1.538,0.102,2.252c0.259,2.402,0.263,4.811,0.164,7.221     c-0.065,1.642,0.024,3.33,0.01,4.97c0.007,0.308,0.066,0.664,0.022,0.973c-0.043,0.359-0.444,0.778-0.853,0.839     c-0.358,0.009-0.776-0.341-0.838-0.801c-0.007-0.307,0.038-0.615,0.031-0.923c0.166-4,0.279-8.05-0.068-12.038l-0.03-1.332     c0.004-2.101-0.042-4.148-0.04-6.301c0.05-2.307,0.047-4.715,0.046-7.02c0.019-1.436-0.116-2.867-0.147-4.25l-0.059-2.611     C186.612,64.465,186.648,63.798,186.686,63.183z"/>
			<path style="fill:#0D2554;" d="M198.163,98.147c0.667-0.023,1.232-0.052,1.902-0.127c0.153,0.006,0.307,0.013,0.462-0.032     l0.819,0.033c0.103,0.004,0.205,0.008,0.307,0.013l0.666,0.026c0.563,0.023,1.126,0.047,1.799-0.131     c0.258-0.041,0.514-0.03,0.774-0.122l0.154,0.006c0.051,0.002,0.051,0.002,0.102,0.004c0.512,0.021,0.804,0.392,0.841,0.752     s-0.035,0.87-0.252,1.169c-0.113,0.252-0.437,0.648-0.897,0.63c-0.103-0.004-0.203-0.06-0.354-0.117     c-0.149-0.108-0.303-0.114-0.457-0.121c-0.256-0.01-0.514,0.03-0.771,0.071l-0.054,0.049c-0.051-0.002-0.102-0.004-0.155,0.045     c-0.156,0.045-0.312,0.09-0.465,0.084c-0.051-0.002-0.103-0.005-0.101-0.056c-0.305-0.063-0.663-0.078-1.021-0.093     c-0.562-0.023-1.077,0.007-1.642,0.035s-1.079,0.059-1.591,0.038l-0.256-0.011c-0.512-0.021-1.124-0.098-1.836-0.229     c-0.407-0.068-0.79-0.75-0.769-1.262l0.011-0.256c0.002-0.052,0.055-0.101,0.058-0.151c0.339-2.037,0.425-4.136,0.468-6.44     c0.021-0.512,0.091-0.971,0.163-1.48l0.144-1.019c0.019-0.461,0.036-0.87,0.052-1.28c0.128-1.891,0.309-3.78,0.537-5.616     c0.148-1.122,0.141-2.199,0.081-3.227c-0.062-3.488,0.135-7.069,0.326-10.496l0.048-1.177c0.061-1.484,0.075-3.073,0.031-4.51     c-0.026-0.616-0.001-1.23-0.027-1.847c0.004-0.103,0.011-0.256-0.034-0.412c0.012-0.307-0.026-0.616-0.016-0.872     c0.063-0.305,0.445-0.853,0.752-0.841l0.051,0.003c0.358,0.015,0.667-0.024,1.081-0.11c0.409,0.017,0.821-0.018,1.23-0.001     l0.512,0.021c0.917,0.14,1.938,0.232,2.859,0.271c0.407,0.067,0.919,0.089,1.329,0.105l0.256,0.011     c0.305,0.063,0.561,0.074,0.815,0.136c0.305,0.063,0.45,0.274,0.593,0.536c0.146,0.211,0.184,0.521,0.125,0.723     c-0.179,0.608-0.549,0.9-0.959,0.884l-0.256-0.01c-0.757-0.288-1.572-0.424-2.595-0.465l-1.229-0.051     c-0.462,0.032-0.975,0.012-1.484-0.061c-0.154-0.006-0.254-0.062-0.305-0.063c-0.358-0.015-0.618,0.077-0.829,0.223l-0.042,1.023     c-0.033,0.818-0.069,1.688-0.106,2.609l-0.088,2.15c-0.023,0.562-0.044,1.074-0.12,1.687l-0.004,0.103l-0.15,3.685     c-0.034,0.818-0.071,1.74-0.056,2.612l-0.04,0.972c0.358,0.015,0.716,0.029,1.026-0.009c1.027-0.061,2.055-0.121,3.03-0.133     c0.103,0.004,0.205,0.009,0.36-0.036c0.205,0.008,0.412-0.035,0.565-0.028c0.307,0.013,0.714,0.08,1.107,0.507l0.099,0.106     l-0.004,0.102c-0.195,1.018-0.38,1.779-1.25,1.743c-0.153-0.006-0.356-0.065-0.661-0.129c-0.405-0.119-0.966-0.193-1.529-0.217     c-0.87-0.035-1.747,0.083-2.833,0.346c-0.002,0.052-0.004,0.103-0.006,0.154c0.262,2.368,0.017,4.614-0.282,6.908     c-0.157,1.327-0.264,2.706-0.325,4.19l-0.245,5.988c-0.035,0.87-0.069,1.688-0.1,2.456L198.163,98.147z"/>
			<path style="fill:#0D2554;" d="M217.337,83.503c-0.65,0.352-0.748,0.856-0.745,1.371c-0.026,1.952-0.359,3.876-0.738,5.744     c-0.098,0.505-0.197,1.01-0.137,1.479c0.218,2.644-0.533,5.196-0.724,7.802c-0.024,0.255-0.052,0.562-0.173,0.756     c-0.08,0.301-0.316,0.64-0.544,0.875c-0.167,0.139-0.413,0.014-1.181-0.572c0.136-0.913,0.328-1.872,0.469-2.837     c0.277-1.877,0.549-3.703,0.571-5.604c0.059-1.743,0.424-3.458,0.636-5.188c0.451-3.198,0.897-6.346,1.242-9.503     c0.325-2.953,0.553-5.966,0.828-8.924c0.066-0.714,0.077-1.382,0.143-2.096c0.211-1.729,0.423-3.458,0.121-5.184     c-0.253-1.155,0.448-1.501,1.324-1.523c0.51,0.048,1.108,0.258,1.65,0.514c0.634,0.367,1.157,0.827,1.736,1.241     c2.255,1.752,3.154,4.253,3.409,7.054c0.218,2.644,0.079,5.254-0.876,7.788c-0.475,1.242-1.172,2.103-2.263,2.773     c-0.984,0.629-1.978,1.359-2.86,1.998c-0.332,1.357-0.023,2.466,0.332,3.631c0.747,2.486,1.493,4.974,2.291,7.465     c0.157,0.528,0.262,1.053,0.363,1.628c0.312,2.189,0.933,4.355,1.773,6.388c0.176,0.325,0.245,0.691,0.364,1.062     c0.125,0.32,0.008,0.464-0.521,1.187c-0.705-0.169-1.176-0.624-1.416-1.366c-0.751-2.436-1.452-4.866-1.888-7.376     c-0.514-2.773-1.399-5.427-2.341-8.035C217.895,85.252,217.66,84.459,217.337,83.503z M218.768,61.983     c-0.141,3.176-0.276,6.301-0.509,9.365c-0.289,3.11-0.674,6.161-1.019,9.317c0.264-0.078,0.468-0.06,0.631-0.146     c1.207-0.814,2.312-1.638,3.519-2.451c0.877-0.588,1.31-1.37,1.608-2.371c0.565-2.211,0.769-4.403,0.62-6.681     c-0.076-1.396-0.473-2.667-1.027-3.901C221.872,63.453,220.631,62.412,218.768,61.983z"/>
			<path style="fill:#0D2554;" d="M233.431,105.388c-0.064,0.095-0.034,0.254-0.112,0.45c-0.234,0.589-0.758,1.035-1.208,0.924     c-0.71-0.095-1.259-0.633-1.323-1.313c-0.037-0.108-0.017-0.261-0.003-0.362c0.078-0.971,0.552-1.425,1.415-1.31     C233.069,103.841,233.465,104.36,233.431,105.388z M231.793,99.072c-0.017-0.261-0.054-0.369-0.041-0.471     c0.637-3.997,0.817-8.055,1.098-12.099c0.051-0.769,0.051-1.544,0.248-2.241c0.762-3,0.857-6.036,1.314-9.075     c0.478-3.191,0.81-6.455,1.186-9.66c0.19-1.418,0.329-2.847,0.055-4.278c-0.098-0.427,0.095-0.711,0.434-0.924     c0.562-0.339,1.246-0.04,1.266,0.582c0.047,1.195,0.094,2.39-0.062,3.558c-0.312,3.11-0.725,6.207-1.189,9.297     c-0.488,3.655-1.02,7.253-1.558,10.9c-0.075,0.559-0.149,1.117-0.173,1.683c-0.257,3.479-0.464,6.965-0.722,10.444     c-0.023,0.565-0.098,1.123-0.224,1.675C233.215,99.262,232.992,99.387,231.793,99.072z"/>
		</g>
	</g>
</g>















</svg>
