<?xml version="1.0" encoding="UTF-8"?>
<!-- Generator: Adobe Illustrator 25.2.1, SVG Export Plug-In . SVG Version: 6.00 Build 0)  -->
<svg xmlns="http://www.w3.org/2000/svg" xmlns:xlink="http://www.w3.org/1999/xlink" version="1.1" id="Capa_1" x="0px" y="0px" viewBox="0 0 509.041 509.041" style="enable-background:new 0 0 509.041 509.041;" xml:space="preserve" width="512" height="512">
<g>
	<path style="fill:#FFFFFF;" d="M508.806,298.771l-0.116-1.044c-2.088-16.735-13.729-28.112-31.138-30.437   c-19.137-2.555-42.726,6.125-53.911,12.581c-3.621,2.09-7.049,4.269-10.291,6.543c-2.019-12.196-5.375-24.231-10.022-35.795   c-4.835-12.029-10.945-22.923-18.538-33.012c0.258-0.473,0.512-0.947,0.758-1.422c11.384-21.976,13.047-51.302-3.422-71.271   c-10.233-12.406-26.384-19.035-42.023-21.1c-11.086-1.464-22.341-0.836-33.379,0.738c-5.283,0.753-10.527,1.668-15.741,2.815   c-1.509,0.332-16.024,4.159-16.024,4.159s3.39-33.561,3.39-33.561c0.517-5.126-1.387-10.198-5.15-13.715   c-3.765-3.519-8.955-5.08-14.03-4.215l-33.5,5.685l-43.56-36.713c-3.633-3.064-8.409-4.41-13.096-3.7   c-4.695,0.709-8.857,3.405-11.424,7.4l-32.133,50.022l-34.823,5.911c-5.301,0.901-9.83,4.323-12.141,9.177   c-2.309,4.855-2.111,10.529,0.533,15.21l5.544,9.811c-10.862,1.678-20.165,9.603-23.166,20.647   c-0.751,2.759-1.08,5.566-0.998,8.346c-1.191-0.546-2.427-1.026-3.732-1.38c-1.035-0.283-2.1-0.498-3.161-0.64   c-11.981-1.6-23.41,5.994-26.582,17.665c-1.699,6.244-0.863,12.779,2.351,18.396c2.19,3.828,5.323,6.895,9.063,9.013   c-17.042,0.23-32.384,11.744-36.965,28.607c-2.725,10.012-1.384,20.482,3.77,29.487c5.154,9.003,13.504,15.461,23.512,18.18   c1.668,0.455,3.375,0.798,5.083,1.026c7.143,0.954,14.483,0.5,20.746-2.205c0.117,0.21-0.122-0.208,0,0   c-2.852,3.561-4.867,7.637-5.814,11.921c-1.568,7.08-0.198,14.394,3.859,20.596c4.348,6.649,11.159,10.898,19.179,11.968   c0.344,0.046,0.686,0.087,1.027,0.12c1.123,10.433,3.328,20.79,6.812,32.384c9.874,32.851,33.772,61.13,65.407,75.1   c19.654,8.679,40.639,14.044,61.802,17.479c20.582,3.341,41.612,5.449,62.458,3.789c14.353-1.143,28.608-4.122,41.936-9.647   c25.277-10.478,48.721-26.391,67.99-45.918c1.488,3.095,3.114,6.186,4.917,9.244c10.582,17.943,29.669,38.303,51.452,41.211   c11.438,1.527,22.788-2.323,31.139-10.561c9.533-9.406,14.21-23.492,12.509-37.674c-1.987-16.592-8.896-32.91-20.24-48.085   C483.585,350.962,511.917,333.193,508.806,298.771z"/>
	<g>
		<polyline style="fill:#03CDC5;" points="132.672,122.033 171.475,61.625 223.829,105.755   "/>
		<path style="fill:#F75AA8;" d="M244.927,161.235c20.088-10.264,41.878-17.189,64.205-20.406c17.3-2.493,36.026-2.487,50.942,6.627    c30.324,18.531,18.453,61.812-5.206,81.252"/>
		<g>
			<path style="fill:#403C73;" d="M365.255,161.037c-9.314-1.75-19.634-3.282-30.533-4.264c-10.904-0.921-21.334-1.2-30.809-1.091     c-9.476,0.193-17.998,0.724-25.118,1.513c-3.567,0.311-6.771,0.812-9.588,1.193c-2.819,0.367-5.232,0.789-7.197,1.176     c-3.934,0.745-6.089,1.25-6.057,1.449c0.075,0.477,8.823-0.769,23.02-1.763c7.097-0.522,15.564-0.836,24.962-0.88     c9.398,0.039,19.728,0.397,30.534,1.309c10.801,0.974,21.037,2.412,30.3,4.002c3.79,0.685,7.37,1.39,10.807,2.101     c-0.362-0.95-0.759-1.888-1.201-2.808C371.446,162.314,368.434,161.663,365.255,161.037z"/>
			<path style="fill:#403C73;" d="M376.658,187.608c-6.209-2.598-13.746-5.347-22.229-8.058c-8.504-2.639-17.967-5.196-28.027-7.325     c-10.071-2.075-19.766-3.52-28.615-4.506c-8.859-0.912-16.866-1.408-23.596-1.513c-3.362-0.127-6.408-0.044-9.079-0.021     c-2.672,0.01-4.971,0.116-6.848,0.243c-3.755,0.227-5.824,0.448-5.818,0.649c0.012,0.474,8.313,0.413,21.662,1.19     c6.675,0.367,14.604,1.073,23.37,2.122c8.758,1.124,18.349,2.635,28.328,4.691c9.968,2.11,19.362,4.564,27.838,7.04     c8.454,2.547,16.002,5.074,22.267,7.41c0.487,0.18,0.953,0.354,1.425,0.53c0.121-0.676,0.236-1.352,0.332-2.028     C377.32,187.891,377.015,187.748,376.658,187.608z"/>
			<path style="fill:#403C73;" d="M367.278,204.08c-8.229-3.52-17.436-7.032-27.296-10.134c-9.877-3.044-19.451-5.379-28.224-7.152     c-8.79-1.693-16.768-2.872-23.501-3.526c-3.357-0.408-6.416-0.562-9.094-0.754c-2.677-0.206-4.989-0.278-6.88-0.295     c-3.781-0.063-5.87-0.002-5.879,0.2c-0.024,0.48,8.3,1.029,21.601,2.896c6.654,0.91,14.53,2.29,23.21,4.111     c8.663,1.901,18.119,4.291,27.899,7.305c9.763,3.071,18.904,6.471,27.116,9.824c1.608,0.674,3.15,1.34,4.684,2.005     c0.4-0.767,0.782-1.541,1.153-2.322C370.502,205.52,368.925,204.802,367.278,204.08z"/>
			<path style="fill:#403C73;" d="M372.068,206.238c-0.371,0.781-0.753,1.555-1.153,2.322"/>
		</g>
		<path style="fill:#FBA71E;" d="M462.778,411.958c-2.654-22.14-15.825-41.526-31.768-56.478    c23.214-9.427,64.304-22.639,61.384-54.981c-0.027-0.243-0.054-0.485-0.081-0.727c-3.45-27.649-46.061-13.896-60.423-5.607    c-13.603,7.851-24.913,17.559-33.175,30.336c1.704-22.991-2.107-46.343-10.7-67.726c-10.757-26.767-26.903-43.739-48.905-61.259    c-21.893-17.434-49.504-30.29-76.153-38.402c-29.382-8.944-61.927-8.027-90.357,3.868c-42.396,17.739-57.669,70.978-58.667,117.98    c-3.881-2.281-27.49-4.685-31.946-5.324c-4.456-0.64,0.822-3.844-1.521,0c-2.648,4.345-7.348,4.716-3.803,8.367    c3.545,3.651,12.734,11.895,17.494,13.691c-4.282,1.174-11.441-0.061-15.213,2.282c-5.963,3.704-7.194,5.822-3.043,12.17    c4.917,7.517,36.057-6.532,43.356-8.367c-0.113,16.498-18.658,42.613-13.902,58.447c4.818,16.041,13.367,30.977,24.899,43.136    c9.657,10.181,11.943,19.612,25.181,25.185c13.937,5.868,28.929,9.677,43.017,12.468c34.398,6.817,73.303,11.143,106.383-2.568    c31.074-12.879,59.098-34.559,79.172-61.604l0.33-1.013c3.899,11.282,7.835,22.459,13.938,32.801    c4.634,7.853,10.522,14.974,17.411,20.951c3.656,3.172,7.585,5.913,11.702,8.445C447.282,450.257,465.261,432.673,462.778,411.958    z"/>
		<path style="fill:#FFDB2A;" d="M157.104,429.227c31.844-38.16,58.913-80.746,71.306-128.629    c12.919-49.914,7.584-106.461-21.172-148.561c-11.882,1.37-23.572,4.315-34.637,8.944    c-42.396,17.739-79.163,63.104-80.161,110.106c-3.881-2.281-7.89-4.607-12.346-5.247c-4.456-0.64-9.523,0.815-11.866,4.659    c-2.648,4.345-0.907,10.279,2.637,13.929c3.545,3.651,8.47,5.553,13.23,7.349c-4.282,1.174-8.631,2.378-12.402,4.721    c-5.963,3.704-9.5,10.621-5.348,16.968c4.917,7.517,14.695,4.376,21.993,2.541c-0.113,16.498,2.262,30.385,7.018,46.219    c4.818,16.041,13.367,30.977,24.899,43.136C130.317,415.969,143.235,423.581,157.104,429.227z"/>
		<path style="fill:#F75AA8;" d="M291.243,358.374c-6.768-4.124-11.468-9.49-17.412-14.428    c-6.384-5.303-12.158-11.301-17.152-17.934c-5.384-7.15-12.131-16.004-12.349-25.316c-0.192-8.182,13.681-12.715,19.718-14.819    c22.35-7.79,47.273-6.379,69.579,0.677c10.17,3.217,20.18,8.116,27.056,16.271c9.27,10.995,11.483,27.309,5.954,40.584    c-5.529,13.275-18.369,23.091-32.552,25.47C319.267,371.366,304.072,366.192,291.243,358.374z"/>
		<g>
			<path style="fill:#403C73;" d="M121.536,272.365c0.778,0.209,3.071-5.798,5.123-13.418c2.052-7.62,3.085-13.967,2.307-14.176     c-0.778-0.209-3.071,5.798-5.123,13.418C121.791,265.808,120.758,272.155,121.536,272.365z"/>
		</g>
		<g>
			<path style="fill:#403C73;" d="M177.959,284.619c0.793,0.14,2.589-6.258,4.011-14.29c1.422-8.032,1.932-14.658,1.139-14.798     c-0.793-0.14-2.589,6.257-4.011,14.29C177.676,277.853,177.166,284.479,177.959,284.619z"/>
		</g>
		<g>
			<path style="fill:#403C73;" d="M367.183,316.728c-7.033-2.795-15.568-5.719-25.169-8.562c-9.625-2.757-20.331-5.382-31.701-7.48     c-11.381-2.033-22.326-3.34-32.306-4.143c-9.988-0.714-19.006-0.977-26.572-0.833c-1.891-0.009-3.691,0.042-5.393,0.111     c-0.445,0.598-0.833,1.216-1.111,1.869c2.028,0.014,4.186,0.038,6.496,0.083c7.519,0.12,16.461,0.594,26.357,1.449     c9.888,0.944,20.725,2.319,32.009,4.334c11.272,2.08,21.901,4.603,31.49,7.196c9.565,2.679,18.103,5.379,25.184,7.91     c0.765,0.27,1.505,0.535,2.236,0.798c-0.171-0.796-0.364-1.586-0.582-2.369C367.805,316.969,367.505,316.847,367.183,316.728z"/>
			<path style="fill:#403C73;" d="M348.077,335.982c-3.495-2.112-7.378-4.101-11.441-6.24c-8.209-4.109-17.453-8.21-27.423-11.822     c-9.994-3.543-19.739-6.245-28.689-8.286c-4.497-0.928-8.759-1.858-12.8-2.446c-4.019-0.712-7.793-1.168-11.241-1.555     c-3.438-0.46-6.576-0.615-9.321-0.823c-0.822-0.068-1.598-0.118-2.351-0.16c0.11,0.525,0.235,1.049,0.379,1.57     c3.128,0.37,6.834,0.84,11.026,1.458c3.402,0.514,7.124,1.083,11.086,1.892c3.984,0.685,8.185,1.695,12.617,2.683     c8.823,2.162,18.43,4.911,28.31,8.413c9.856,3.571,19.023,7.549,27.211,11.483c4.052,2.052,7.938,3.939,11.45,5.941     c3.574,1.892,6.811,3.816,9.765,5.58c2.79,1.679,5.295,3.239,7.514,4.647c0.284-0.479,0.541-0.973,0.805-1.464     c-2.129-1.506-4.489-3.234-7.227-4.932C354.839,340.029,351.634,337.985,348.077,335.982z"/>
			<path style="fill:#403C73;" d="M307.682,340.486c-9.505-5.709-18.859-10.633-27.516-14.784     c-8.695-4.078-16.672-7.426-23.489-9.918c-3.251-1.274-6.266-2.238-8.92-3.133c0.392,0.763,0.812,1.516,1.245,2.263     c2.123,0.839,4.438,1.768,6.921,2.789c6.679,2.721,14.511,6.241,23.072,10.418c8.524,4.251,17.756,9.203,27.178,14.862     c9.392,5.711,18.068,11.582,25.795,17.153c3.237,2.376,6.268,4.674,9.153,6.907c0.894-0.315,1.778-0.657,2.651-1.03     c-3.164-2.591-6.565-5.277-10.206-8.038C325.864,352.238,317.156,346.247,307.682,340.486z"/>
		</g>
		<g style="opacity:0.62;">
			<circle style="fill:#03CDC5;" cx="38.854" cy="253.686" r="22.335"/>
			<circle style="fill:#03CDC5;" cx="78.526" cy="222.455" r="11.244"/>
			<circle style="fill:#03CDC5;" cx="50.315" cy="193.837" r="7.733"/>
			<circle style="fill:#03CDC5;" cx="88.858" cy="170.955" r="11.95"/>
		</g>
		<polygon style="fill:#9AC54D;" points="93.394,124.912 104.343,144.289 112.786,147.315 109.571,153.541 131.394,192.163     254.613,168.744 259.068,124.637 254.762,120.25 260.125,114.17 261.929,96.305   "/>
		<path style="fill:#F75AA8;" d="M109.571,153.541c49.832-9.635,99.665-19.27,149.497-28.904l1.057-10.467    c-51.927,10.04-103.854,20.08-155.782,30.119L109.571,153.541z"/>
		<g style="opacity:0.31;">
			<g>
				<path style="fill:#403C73;" d="M262.954,222.241c-0.091,0.314,2.389,1.27,6.269,0.018c1.886-0.642,4.057-1.874,5.829-3.962      c1.793-2.073,2.972-5.012,3.105-8.15c0.121-3.139-0.818-6.163-2.438-8.373c-1.598-2.224-3.663-3.627-5.491-4.419      c-3.766-1.561-6.315-0.808-6.249-0.487c-0.018,0.463,2.344,0.538,5.313,2.325c1.456,0.896,3.036,2.234,4.202,4.087      c1.176,1.826,1.84,4.225,1.75,6.75c-0.113,2.525-0.969,4.862-2.288,6.588c-1.311,1.754-2.994,2.959-4.517,3.735      C265.334,221.893,262.974,221.778,262.954,222.241z"/>
			</g>
			<g>
				<path style="fill:#403C73;" d="M298.812,250.653c-0.082,0.31,2.274,1.161,5.87-0.124c1.764-0.627,3.728-1.837,5.411-3.718      c1.679-1.861,3.03-4.482,3.303-7.486c0.219-3.009-0.688-5.814-2.042-7.923c-1.355-2.129-3.095-3.643-4.734-4.549      c-3.339-1.852-5.802-1.396-5.771-1.077c-0.066,0.467,2.1,0.806,4.632,2.796c2.491,1.867,5.347,5.852,5.008,10.515      c-0.424,4.656-3.891,8.123-6.652,9.56C301.015,250.199,298.823,250.182,298.812,250.653z"/>
			</g>
			<g>
				<path style="fill:#403C73;" d="M288.257,275.594c-0.177,0.259,1.981,1.911,6.112,1.749c2.026-0.076,4.446-0.693,6.788-2.096      c2.331-1.383,4.564-3.664,5.784-6.687c1.164-3.045,1.081-6.236,0.315-8.836c-0.76-2.622-2.113-4.721-3.545-6.156      c-2.916-2.932-5.621-3.191-5.668-2.88c-0.195,0.438,2.007,1.386,4.103,4.224c2.084,2.69,3.914,7.774,2.08,12.582      c-1.93,4.771-6.732,7.248-10.09,7.8C290.671,275.946,288.413,275.141,288.257,275.594z"/>
			</g>
			<g>
				<path style="fill:#403C73;" d="M249.527,273.408c-0.024,0.34,1.862,0.841,4.634-0.319c2.673-1.075,6.169-4.23,6.736-9.062      c0.456-4.843-2.302-8.66-4.691-10.27c-2.467-1.715-4.416-1.618-4.464-1.281c-0.128,0.432,1.432,1.065,3.128,2.852      c1.687,1.71,3.477,4.879,3.127,8.393c-0.393,3.509-2.807,6.234-4.814,7.553C251.15,272.666,249.492,272.958,249.527,273.408z"/>
			</g>
			<g>
				<path style="fill:#403C73;" d="M346.593,262.388c0.002,0.341,2.156,0.726,5.35-0.518c3.119-1.176,7.219-4.372,8.891-9.544      c1.618-5.19,0.111-10.165-1.758-12.925c-1.891-2.859-3.873-3.787-4.071-3.509c-0.304,0.337,1.064,1.769,2.261,4.497      c1.21,2.666,2.098,6.875,0.788,11.054c-1.341,4.169-4.493,7.095-7.02,8.576C348.482,261.556,346.539,261.938,346.593,262.388z"/>
			</g>
			<g>
				<path style="fill:#403C73;" d="M216.669,375.059c-0.147,0.273,2.339,1.772,6.758,1.274c2.172-0.241,4.728-1.065,7.171-2.699      c2.434-1.614,4.722-4.141,5.985-7.391c1.205-3.273,1.161-6.681,0.406-9.502c-0.75-2.841-2.12-5.151-3.589-6.769      c-2.983-3.298-5.838-3.82-5.908-3.518c-0.228,0.427,2.098,1.601,4.288,4.794c2.181,3.047,4.044,8.617,2.075,13.963      c-2.063,5.311-7.146,8.253-10.798,9.093C219.302,375.248,216.781,374.588,216.669,375.059z"/>
			</g>
			<g>
				<path style="fill:#403C73;" d="M207.574,402.151c-0.157,0.27,2.157,1.788,6.358,1.374c2.062-0.199,4.495-0.964,6.812-2.514      c2.308-1.531,4.472-3.955,5.605-7.078c1.075-3.143,0.908-6.388,0.07-9.028c-0.833-2.661-2.249-4.781-3.731-6.229      c-3.014-2.956-5.768-3.224-5.815-2.915c-0.194,0.44,2.067,1.398,4.269,4.28c2.187,2.737,4.172,7.901,2.456,12.922      c-1.811,4.988-6.595,7.768-10.014,8.529C210.062,402.357,207.699,401.686,207.574,402.151z"/>
			</g>
			<g>
				<path style="fill:#403C73;" d="M266.18,401.034c-0.033,0.326,2.27,0.859,5.583-0.635c1.63-0.732,3.414-2.012,4.918-3.892      c1.501-1.864,2.674-4.396,2.902-7.251c0.179-2.859-0.623-5.532-1.845-7.589c-1.222-2.074-2.807-3.594-4.316-4.55      c-3.068-1.949-5.423-1.748-5.436-1.421c-0.107,0.452,1.901,1.007,4.192,3.065c2.265,1.956,4.782,5.817,4.496,10.288      c-0.351,4.466-3.391,7.931-5.91,9.546C268.205,400.306,266.138,400.571,266.18,401.034z"/>
			</g>
			<g>
				<path style="fill:#403C73;" d="M296.771,425.434c0.238,0.266,1.722-0.495,3.052-2.739c1.317-2.17,2.254-6.013,0.835-9.922      c-1.455-3.896-4.66-6.214-7.069-7.012c-2.468-0.846-4.09-0.463-4.099-0.106c-0.045,0.436,1.376,0.816,3.221,1.972      c1.834,1.117,4.114,3.203,5.21,6.154c1.078,2.957,0.695,6.024,0.023,8.064C297.289,423.921,296.454,425.132,296.771,425.434z"/>
			</g>
			<g>
				<path style="fill:#403C73;" d="M333.196,396.158c0.236,0.277,1.665-0.373,3.115-2.372c1.436-1.943,2.716-5.403,2.056-9.255      c-0.679-3.849-3.051-6.674-5.059-8.018c-2.04-1.392-3.604-1.522-3.733-1.181c-0.176,0.396,0.985,1.188,2.383,2.741      c1.4,1.525,3.009,3.966,3.535,6.958c0.515,2.994-0.176,5.835-0.979,7.743C333.723,394.708,332.898,395.845,333.196,396.158z"/>
			</g>
			<g>
				<path style="fill:#403C73;" d="M380.545,313.027c0.169,0.318,1.784-0.051,3.687-1.829c1.875-1.72,3.884-5.072,3.868-9.2      c-0.04-4.128-2.094-7.452-3.992-9.147c-1.927-1.753-3.547-2.1-3.711-1.78c-0.224,0.374,0.908,1.33,2.165,3.145      c1.261,1.782,2.592,4.59,2.621,7.801c0.014,3.211-1.278,6.037-2.516,7.836C381.436,311.685,380.317,312.655,380.545,313.027z"/>
			</g>
		</g>
	</g>
</g>















</svg>
