<?xml version="1.0" encoding="UTF-8"?>
<!-- Generator: Adobe Illustrator 25.2.1, SVG Export Plug-In . SVG Version: 6.00 Build 0)  -->
<svg xmlns="http://www.w3.org/2000/svg" xmlns:xlink="http://www.w3.org/1999/xlink" version="1.1" id="Capa_1" x="0px" y="0px" viewBox="0 0 512 512" style="enable-background:new 0 0 512 512;" xml:space="preserve" width="512" height="512">
<g>
	<path style="fill:#FFFFFF;" d="M508.121,448.946c-6.166-6.288-15.555-9.476-27.911-9.476c-3.204,0-6.334,0.21-9.202,0.516   L448,346.397c17.233-22.363,29.753-48.802,36.35-76.884c0.07-0.3,0.132-0.597,0.178-0.853c0.826-3.501,0.224-7.187-1.671-10.246   c-1.895-3.058-4.926-5.238-8.427-6.061l-35.391-8.311c1.303-7.531-2.877-15.06-10.112-17.867   c-9.43-3.65-42.807-15.803-76.301-18.972c-15.199-1.437-23.712-2.265-28.722-3.194c-4.815-1.677-12.618-5.176-26.534-11.46   c-30.658-13.842-65.671-19.825-75.677-21.33c-0.794-0.119-1.604-0.179-2.408-0.179c-7.24,0-13.656,4.879-15.601,11.867   l-1.529,5.494l-30.673-7.205c-0.19-4.083-1.035-8.061-2.571-11.664c-0.176-0.418-0.366-0.836-0.568-1.255   c-0.002-0.021-0.005-0.042-0.007-0.063l-12.084-92.701c-0.46-3.521-2.28-6.72-5.07-8.911l8.93-1.068   c4.579-0.546,8.672-2.843,11.523-6.468c2.85-3.625,4.117-8.142,3.57-12.706c-1.11-9.347-9.597-16.252-19.186-15.097l-40.007,4.786   c-8.219,0.981-14.6,7.685-15.17,15.938l-1.199,17.23l-3.9,0.509c-8.166-17.182-25.631-28.696-45.363-28.696   c-2.177,0-4.377,0.143-6.546,0.425c-13.331,1.738-25.186,8.563-33.384,19.219C2.251,71.331-1.307,84.541,0.431,97.871   c2.945,22.585,20.744,40.151,42.727,43.317l5.554,42.623c3.332,25.538,23.548,45.374,48.469,48.809l6.419,49.237   c-22.884,4.979-32.914,12.952-31.38,24.696c2.073,15.891,23.197,15.891,31.149,15.891c6.532,0,13.974-0.521,21.524-1.506   c10.627-1.384,20.635-3.575,28.181-6.169c0.951-0.326,2.261-0.776,3.753-1.381c3.388,7.898,7.297,15.502,11.708,22.773   c-6.122,2.147-12.433,5.39-18.413,10.212c-16.275,13.113-25.725,34.186-28.089,62.633c-0.01,0.112-0.017,0.222-0.022,0.334   l-1.346,23.073c-25.792,0.108-32.425,16.624-34.081,23.739c-0.949,4.076,0.036,8.362,2.672,11.612   c2.631,3.249,6.565,5.045,10.805,5.02l48.178-0.97c3.732-0.076,7.266-1.686,9.772-4.45c2.506-2.764,3.763-6.44,3.474-10.16   c-0.58-7.472-0.886-16.943-0.705-26.784c0.205,0.054-0.203-0.057,0,0c-0.071,2.81,1.343,5.764,2.949,8.126l24.117,35.494   c4.105,6.043,12.257,7.748,18.442,3.853l96.361-60.695c2.239,0.092,4.483,0.139,6.71,0.139c39.581,0,78.636-14.834,110.265-41.341   l20.062,94.13c1.356,6.362,6.975,10.735,13.247,10.735c0.86,0,1.731-0.082,2.607-0.253l45.494-8.86   c4.897-0.953,8.874-4.519,10.355-9.283C512.869,457.7,511.615,452.508,508.121,448.946z"/>
	<g>
		<path style="fill:#DF255E;" d="M284.375,362.495c67.5,15.854,136.258-31.048,153.623-104.769l-244.537-57.438    C176.188,274.031,216.875,346.64,284.375,362.495z"/>
		<path style="fill:#0D2554;" d="M303.585,392.203l-97.479,57.426c0,0-17.358-26.709-31.163-18.704l24.117,35.494l113.372-71.409"/>
		<path style="fill:#0D2554;" d="M431.986,338.059l28.87,117.421c0,0,27.68-7.141,37.584,2.959l-45.494,8.86l-27.544-129.241"/>
		<path style="fill:#0D2554;" d="M203.093,346.827c0,0-61.113-14.159-67.546,63.302l-2.177,37.365c0,0-29.047-7.75-33.581,11.733    l48.177-0.97c0,0-4.977-63.588,10.793-86.657c12.356-16.22,24.963-19.529,50.391-15.325"/>
		<path style="fill:#0D2554;" d="M166.345,289.592c0,0-33.386-25.118-18.378-95.071l-14.596,2.171c0,0-2.101,85.243,33.825,99.668"/>
		<path style="fill:#9AC54D;" d="M471.328,265.554l-23.035-5.41c-18.792,79.979-93.369,130.873-166.579,113.678    c-73.21-17.196-117.33-95.97-98.55-175.952l-23.035-5.411c-0.069,0.286-0.153,0.563-0.22,0.849    c-22.055,93.896,29.74,186.379,115.686,206.566c85.946,20.187,173.498-39.565,195.552-133.461    C471.215,266.126,471.262,265.841,471.328,265.554z"/>
		<path style="fill:#FBA71E;" d="M437.997,257.725c-17.364,73.721-86.123,120.624-153.623,104.769    c-67.5-15.854-108.187-88.464-90.914-162.207l-10.296-2.418c-18.78,79.981,25.34,158.756,98.55,175.952    c73.21,17.196,147.787-33.699,166.579-113.678L437.997,257.725z"/>
		<g>
			<g>
				<path style="fill:#FFDB2A;" d="M112.308,153.826c-0.087,0-0.173-0.003-0.263-0.008c-2.037-0.142-3.573-1.909-3.431-3.946      l6.753-96.941c0.123-1.771,1.486-3.205,3.25-3.415l40.012-4.787c2.005-0.24,3.869,1.204,4.11,3.232      c0.243,2.028-1.204,3.869-3.233,4.111l-36.973,4.424l-6.541,93.889C115.857,152.335,114.232,153.826,112.308,153.826z"/>
			</g>
			<path style="fill:#03CDC5;" d="M145.233,214.877l-60.26,7.854c-8.966,1.169-17.182-5.153-18.351-14.119L51.075,89.355     l92.73-12.088l15.547,119.26C160.521,205.493,154.199,213.709,145.233,214.877z"/>
			<path style="fill:#F75AA8;" d="M133.919,119.401c-8.528,3.304-18.087,7.314-27.449,6.504     c-12.357-1.068-28.125-12.778-40.824-10.696l8.392,64.377c2.349,18.019,18.861,30.723,36.88,28.374l5.45-0.71     c18.02-2.349,30.723-18.861,28.374-36.88l-6.822-52.331C136.602,118.447,135.278,118.874,133.919,119.401z"/>
			<path style="fill:#03CDC5;" d="M124.683,292.29l-10.663-81.798c-1.139,0.529-2.391,0.844-3.712,0.844     c-0.424,0-0.832-0.069-1.242-0.128l10.654,81.73c-18.963,2.738-33.568,7.917-33.053,11.862     c0.536,4.116,17.314,5.322,37.474,2.694c20.16-2.628,36.068-8.095,35.531-12.211C159.158,291.337,143.714,290.075,124.683,292.29     z"/>
			
				<ellipse transform="matrix(0.6015 -0.7989 0.7989 0.6015 -52.5313 77.4221)" style="fill:#FBA71E;" cx="51.338" cy="91.365" rx="36.77" ry="36.77"/>
			
				<ellipse transform="matrix(0.5754 -0.8179 0.8179 0.5754 -52.9276 80.7853)" style="fill:#FFDB2A;" cx="51.338" cy="91.365" rx="27.792" ry="27.792"/>
			<path style="fill:#FFFFFF;" d="M78.896,87.773c-0.031-0.237-0.09-0.462-0.127-0.697c-7.521,0.911-16.213,2.003-25.51,3.209     c5.869-7.313,11.318-14.161,16.011-20.111c-0.36-0.304-0.71-0.619-1.084-0.905c-4.824,5.894-10.37,12.729-16.283,20.08     c-1.254-9.569-2.46-18.371-3.497-25.596c-0.221,0.024-0.44,0.024-0.661,0.053c-0.222,0.029-0.433,0.085-0.653,0.119     c0.847,7.219,1.932,15.995,3.167,25.52c-7.49-6.009-14.417-11.501-20.14-15.979c-0.285,0.338-0.584,0.664-0.852,1.015     c5.633,4.646,12.528,10.261,20.055,16.318c-9.34,1.222-18.063,2.401-25.598,3.453c0.025,0.236,0.025,0.469,0.056,0.706     c0.031,0.237,0.09,0.462,0.127,0.697c7.521-0.911,16.213-2.003,25.51-3.209c-5.869,7.313-11.318,14.161-16.011,20.111     c0.36,0.304,0.71,0.619,1.084,0.905c4.824-5.894,10.37-12.73,16.283-20.08c1.254,9.569,2.461,18.371,3.497,25.596     c0.221-0.024,0.439-0.024,0.661-0.053c0.222-0.029,0.433-0.085,0.653-0.119c-0.847-7.219-1.933-15.995-3.167-25.52     c7.49,6.009,14.418,11.5,20.141,15.979c0.285-0.338,0.583-0.664,0.852-1.015c-5.633-4.646-12.528-10.261-20.055-16.318     c9.34-1.222,18.063-2.401,25.598-3.453C78.928,88.243,78.927,88.01,78.896,87.773z"/>
		</g>
		<path style="fill:#0D2554;" d="M139.824,191.509c0.217,10.152,7.713,15.414,14.189,6.892c4.726-6.22,6.506-16.32,3.425-23.554    c-2.221-5.215-6.231-8.809-11.048-11.574c-7.83-4.497-13.542-0.062-7.941,7.967c2.108,3.022,5.116,5.278,8.071,7.48    C142.332,181.493,139.716,186.489,139.824,191.509z"/>
		<g>
			<path style="fill:#0D2554;" d="M224.659,280.573c-3.163,1.831-7.348,6.625-8.469,9.874c-1.121,3.249-0.26,7.203,2.393,7.744     c2.422,1.208,5.537-1.374,6.657-4.623C226.362,290.319,226.021,283.965,224.659,280.573z"/>
			<path style="fill:#0D2554;" d="M266.946,322.548c-3.163,1.831-7.348,6.625-8.468,9.874c-1.12,3.249-0.26,7.203,2.392,7.744     c2.423,1.208,5.537-1.374,6.658-4.623C268.648,332.294,268.307,325.939,266.946,322.548z"/>
			<path style="fill:#0D2554;" d="M211.659,227.858c-3.163,1.831-7.348,6.625-8.469,9.874c-1.12,3.249-0.259,7.203,2.393,7.744     c2.422,1.208,5.537-1.374,6.657-4.623C213.362,237.604,213.021,231.249,211.659,227.858z"/>
			<path style="fill:#0D2554;" d="M308.48,304.711c-3.163,1.831-7.348,6.625-8.468,9.874c-1.121,3.249-0.26,7.203,2.392,7.744     c2.423,1.208,5.537-1.374,6.658-4.623C310.183,314.457,309.843,308.103,308.48,304.711z"/>
			<path style="fill:#0D2554;" d="M324.658,339.697c-3.163,1.831-7.348,6.625-8.469,9.874c-1.12,3.249-0.259,7.203,2.393,7.744     c2.422,1.208,5.537-1.374,6.657-4.623C326.36,349.443,326.02,343.088,324.658,339.697z"/>
			<path style="fill:#0D2554;" d="M358.639,297.451c-3.163,1.831-7.348,6.625-8.468,9.874c-1.121,3.249-0.26,7.203,2.392,7.744     c2.422,1.208,5.537-1.374,6.658-4.623C360.342,307.198,360.001,300.843,358.639,297.451z"/>
			<path style="fill:#0D2554;" d="M381.079,319.071c-3.163,1.831-7.348,6.625-8.469,9.874c-1.12,3.249-0.26,7.202,2.393,7.744     c2.423,1.208,5.537-1.374,6.658-4.623C382.782,328.817,382.442,322.463,381.079,319.071z"/>
			<path style="fill:#0D2554;" d="M424.172,266.343c-3.163,1.831-7.348,6.625-8.469,9.874c-1.121,3.249-0.26,7.203,2.392,7.744     c2.422,1.208,5.537-1.374,6.658-4.623C425.875,276.089,425.534,269.735,424.172,266.343z"/>
			<path style="fill:#0D2554;" d="M261.845,276.831c-3.163,1.831-7.348,6.625-8.469,9.874c-1.121,3.249-0.26,7.203,2.393,7.744     c2.422,1.208,5.537-1.374,6.657-4.623C263.547,286.578,263.207,280.223,261.845,276.831z"/>
		</g>
		<g>
			<path style="fill:#03CDC5;" d="M425.633,241.936c0.327-1.297-0.351-2.631-1.599-3.114c-8.509-3.293-40.728-15.096-72.684-18.118     c-17.09-1.616-25.386-2.432-30.932-3.556c-5.374-1.772-12.984-5.174-28.63-12.239c-29.255-13.209-63.088-18.922-72.11-20.279     c-1.323-0.199-2.573,0.624-2.932,1.913l-2.913,10.469c-0.326,1.171,0.187,2.413,1.243,3.014l4.708,2.678     c-8.991,53.128,0.667,63.067,38.478,74.143c31.479,9.221,46.531-27.375,50.561-39.404c0.906-2.705,3.505-4.528,6.219-4.36     l-0.003,0.01c0.173,0.016,0.347,0.035,0.521,0.054c0.194,0.031,0.388,0.073,0.582,0.125c0.194,0.051,0.383,0.11,0.567,0.18     c0.16,0.07,0.321,0.139,0.479,0.212l0.003-0.01c2.441,1.199,3.795,4.07,3.241,6.868c-2.461,12.445-7.521,51.691,24.391,59.28     c38.331,9.116,51.645,5.269,70.161-45.333l5.416,0.007c1.215,0.002,2.276-0.824,2.573-2.002L425.633,241.936z"/>
			<path style="fill:#0D2554;" d="M285.409,260.027c4.253-4.437,7.614-9.737,9.912-15.462c1.824-4.544,4.539-11.936,3.378-16.806     c-2.121-8.891-15.046-13.582-22.268-16.625c-9.461-3.987-19.594-6.322-29.83-7.065c-2.826-0.205-5.815-0.27-8.55,0.643     c-3.493,1.166-4.534,3.228-5.945,6.526c-4.474,10.455-7.281,24.249-2.077,34.877c2.318,4.733,6.279,8.46,10.683,11.265     c7.509,4.781,15.865,8.341,24.675,9.731C272.75,268.272,280.127,265.537,285.409,260.027z"/>
			<path style="opacity:0.14;fill:#FFFFFF;" d="M276.431,211.134c-2.425-1.022-4.896-1.932-7.4-2.738l-40.006,35.335     c0.297,0.809,0.623,1.608,1.003,2.385c1.622,3.313,4.058,6.122,6.878,8.477l46.063-40.685     C280.598,212.841,278.318,211.929,276.431,211.134z"/>
			<path style="opacity:0.14;fill:#FFFFFF;" d="M257.122,265.13l41.655-36.792c-0.033-0.189-0.035-0.397-0.079-0.579     c-0.64-2.685-2.275-4.981-4.432-6.97l-46.125,40.74C251.047,262.946,254.046,264.159,257.122,265.13z"/>
			<path style="fill:#0D2554;" d="M331.458,272.238c-1.496-5.962-1.789-12.231-0.948-18.342c0.667-4.85,1.972-12.617,5.394-16.271     c6.248-6.672,19.799-4.342,27.58-3.406c10.194,1.225,20.152,4.218,29.411,8.645c2.557,1.222,5.185,2.646,7.108,4.795     c2.456,2.743,2.338,5.05,1.93,8.615c-1.295,11.298-5.692,24.671-15.479,31.324c-4.359,2.963-9.646,4.237-14.861,4.491     c-8.892,0.432-17.913-0.616-26.255-3.775C338.368,285.673,333.315,279.642,331.458,272.238z"/>
			<path style="opacity:0.14;fill:#FFFFFF;" d="M369.79,235.224l-38.865,34.327c0.169,0.897,0.311,1.801,0.533,2.686     c0.955,3.805,2.765,7.236,5.235,10.042l48.385-42.735C380.112,237.68,374.995,236.229,369.79,235.224z"/>
			<path style="opacity:0.14;fill:#FFFFFF;" d="M400.004,247.659c-0.75-0.838-1.626-1.541-2.544-2.19l-49.52,43.738     c3.389,1.093,6.87,1.87,10.398,2.348l43.812-38.696C402.091,251.007,401.582,249.421,400.004,247.659z"/>
		</g>
		<g>
			<path style="fill:#0D2554;" d="M320.81,280.833c-0.413-0.216-1.585,2.026-4.6,4.356c-2.906,2.319-8.074,4.585-13.626,3.581     c-5.539-1.069-9.54-5.048-11.412-8.26c-1.969-3.262-2.254-5.776-2.716-5.723c-0.309-0.026-0.789,2.704,0.929,6.65     c0.845,1.948,2.291,4.106,4.417,6.006c2.11,1.897,4.964,3.484,8.26,4.127c3.306,0.591,6.54,0.142,9.194-0.865     c2.668-1.003,4.796-2.493,6.287-4.005C320.57,283.639,321.108,280.92,320.81,280.833z"/>
		</g>
	</g>
</g>















</svg>
