<?xml version="1.0" encoding="UTF-8"?>
<!-- Generator: Adobe Illustrator 25.2.1, SVG Export Plug-In . SVG Version: 6.00 Build 0)  -->
<svg xmlns="http://www.w3.org/2000/svg" xmlns:xlink="http://www.w3.org/1999/xlink" version="1.1" id="Capa_1" x="0px" y="0px" viewBox="0 0 512.25 512.25" style="enable-background:new 0 0 512.25 512.25;" xml:space="preserve" width="512" height="512">
<g>
	<path style="fill:#FFFFFF;" d="M424.873,417.922c-3.149,0-6.226,0.206-9.041,0.506l-22.34-90.865   c-0.125-9.204-0.622-18.605-1.488-28.105c2.16,1.155,4.483,2.531,5.235,3.527c0.239,1.284-0.042,4.478-0.213,6.425   c-0.111,1.247-0.215,2.455-0.279,3.591c-0.284,4.996,1.386,9.68,4.703,13.192c7.496,7.94,22.498,7.027,28.484-2.381   c2.053-3.227,2.86-7.09,3.244-10.895c1.526-15.122-2.46-30.591-15.238-39.759c-6.818-4.892-14.515-9.209-23.36-13.098   c-1.554-10.108-6.787-19.026-14.834-25.06c-4.341-10.648-10.151-19.894-17.619-28.039c7.492-3.354,14.664-7.433,21.306-12.14   c8.703-6.167,24.904-17.645,24.975-33.671c0.024-5.595-1.944-13.708-11.471-20.585c-7.368-5.318-16.983-6.876-24.524-7.146   c1.638,0.059,6.595-10.321,7.311-11.791c2.434-4.997,4.183-10.418,4.141-16.029c-0.089-11.99-7.938-21.461-19.28-24.963   c-5.62-1.735-11.42-1.605-17.08-0.179c-2.056,0.518-13.347,3.607-13.49,5.555c1.315-17.973,0.608-36.097-2.157-53.84   c-1.99-12.769-9.528-28.239-23.224-31.522c-16.316-3.911-29.22,10.578-34.548,24.253c-4.137,10.624-6.742,21.534-8.313,32.5   c-6.077-4.991-13.365-7.899-20.566-7.899c-8.05,0-15.447,3.624-20.831,10.2c-6.588,8.05-9.424,19.229-8.36,32.67   c-6.018-3.863-11.78-5.767-17.361-5.767c-7.877,0-14.924,3.797-19.844,10.69c-14.314,20.053-2.692,49.272,5.507,64.906   c4.227,8.059,9.45,15.639,15.452,22.482c-6.683,4.263-12.897,9.318-18.778,15.274c-5.551-0.544-10.664,0.571-16.016,1.585   c2.432-0.461-0.371-14.06-1.11-15.614c-2.497-5.255-7.857-9.047-13.298-10.774c0.348-4.982-0.473-10.254-3.34-14.73   c-3.378-5.275-9.07-8.502-15.617-8.854c-4.769-0.239-9.342,1.374-13.318,4.608c-4.759-3.581-10.721-4.816-16.152-3.241   c-7.575,2.188-12.715,8.939-13.753,18.056c-1.509,13.233,3.274,26.026,12.767,35.225c-5.63,25.604-3.752,48.394,5.613,67.846   c7.014,14.572,17.141,24.803,26.217,31.667c1.492,1.129-4.173,23.645-4.562,26.373c-1.426,10.027-1.877,20.191-1.371,30.306   c1.009,20.197,5.221,42.766,15.688,60.314l-41.411,8.644c-4.847-11.162-14.072-25.343-29.636-25.344   c-9.269-0.001-17.786,7.141-15.028,17.1l11.255,40.633c1.928,6.955,9.039,11.106,16.043,9.377l30.373-7.52   c0.173,0.482,0.374,0.956,0.603,1.422l18.69,37.794c2.316,4.684,7.03,7.418,11.948,7.418c1.838,0,3.702-0.381,5.481-1.185   c0,0,79.156-35.779,79.156-35.779c29.689,5.17,61.705,6.196,90.401-4.297c25.948-9.488,46.608-28.716,57.83-53.929l6.605,30.982   c1.514,7.106,8.428,11.693,15.577,10.299l44.699-8.705c4.811-0.937,8.719-4.44,10.174-9.121c1.455-4.682,0.222-9.782-3.208-13.283   C446.239,421.054,437.013,417.922,424.873,417.922z"/>
	<g>
		<path style="fill:#9AC54D;" d="M233.587,195.713c-15.897-9.362-28.912-23.387-37.468-39.699    c-6.843-13.046-16.301-37.192-6.463-50.978c15.49-21.703,49.936,32.082,55.441,43.479c-7.37-15.26-11.582-33.073-14.755-49.633    c-1.858-9.695-2.399-22.497,4.345-30.738c8.963-10.951,23.033-3.165,28.887,6.955c8.474,14.649,11.522,32.79,14.607,49.193    c-1.713-31.85-3.255-64.835,8.322-94.556c3.162-8.119,9.446-17.121,18.096-16.08c8.89,1.07,12.717,11.714,14.096,20.562    c5.091,32.661,2.825,66.448-6.582,98.136c8.047-15.292,18.077-31.116,34.125-37.523c7.002-2.796,19.341-3.56,23.151,5.354    c4.417,10.334-5.132,21.383-10.559,29.404c-6.624,9.79-14.057,19.034-22.201,27.601c9.937-10.453,40.663-14.374,52.51-5.822    c16.054,11.589-4.522,26.284-13.408,32.581c-16.746,11.867-36.793,19.126-57.302,20.371"/>
		<g>
			<g>
				<path style="fill:#0D2554;" d="M285.318,193.102c0.593,0.049,1.784-8.337,3.493-21.896c2.087-16.389,4.305-33.812,6.741-52.947      c2.658-19.105,5.079-36.501,7.355-52.864c1.901-13.534,2.946-21.939,2.362-22.046c-0.555-0.103-2.634,8.119-5.288,21.554      c-2.657,13.433-5.825,32.089-8.589,52.802c-2.755,20.715-4.581,39.551-5.534,53.211      C284.902,184.577,284.755,193.056,285.318,193.102z"/>
			</g>
			<g>
				<path style="fill:#0D2554;" d="M263.675,193.932c1.145-0.182-1.242-21.194-5.331-46.932      c-4.088-25.738-8.331-46.455-9.475-46.273c-1.145,0.182,1.242,21.194,5.33,46.932      C258.288,173.396,262.53,194.114,263.675,193.932z"/>
			</g>
			<g>
				<path style="fill:#0D2554;" d="M243.82,194.686c0.977-0.67-7.554-14.721-17.945-32.082      c-10.42-17.343-18.796-31.487-19.847-30.941c-1.008,0.517,5.753,15.629,16.248,33.1      C232.742,182.249,242.889,195.332,243.82,194.686z"/>
			</g>
			<g>
				<path style="fill:#0D2554;" d="M344.392,121.57c-0.886-0.692-14.006,14.748-27.848,35.509      c-13.878,20.736-23.118,38.768-22.14,39.321c1.034,0.596,11.841-16.389,25.63-36.99      C333.786,138.784,345.339,122.297,344.392,121.57z"/>
			</g>
			<g>
				<path style="fill:#0D2554;" d="M375.262,164.147c-0.67-0.986-15.426,7.969-33.839,18.564      c-18.391,10.632-33.531,18.921-33.013,19.995c0.48,1.018,16.563-5.638,35.11-16.359      C362.088,175.66,375.902,165.072,375.262,164.147z"/>
			</g>
		</g>
		<path style="fill:#0D2554;" d="M201.43,424.083L92.615,446.799c0,0-7.735-30.327-23.105-27.228l11.256,40.633l127.769-31.636"/>
		<path style="fill:#0D2554;" d="M257.306,440.778l-102.61,42.755c0,0-13.295-28.334-27.809-22.402l18.689,37.794l119.962-54.224"/>
		<path style="fill:#0D2554;" d="M377.49,318.28l28.366,115.371c0,0,27.197-7.017,36.928,2.908l-44.7,8.705L371.021,318.28"/>
		<g>
			<path style="fill:#0D2554;" d="M101.629,172.507c-2.789,24.454,25.803,42.078,46.509,28.534     c3.392-2.219,6.536-6.375,3.201-10.098c-4.649-5.189-12.394-4.033-18.288-2.078c-0.804,0.267-1.588,0.603-2.381,0.909     c2.061-3.019,3.912-6.178,5.246-9.545c2.031-5.125,2.946-14.924-5.016-15.353c-2.479-0.133-4.629,1.754-6.096,3.559     c-3.568,4.389-6.006,9.65-7.202,15.176c-0.619-5.141-2.107-10.216-5.049-14.388c-1.539-2.182-4.04-4.258-6.713-3.485     C103.125,166.523,101.944,169.743,101.629,172.507z M117.88,196.404l0.078,0.11c-0.028,0.019-0.057,0.038-0.086,0.057     C117.875,196.515,117.878,196.459,117.88,196.404z"/>
		</g>
		<path style="fill:#0D2554;" d="M126.008,195.853c0,0-24.358,74.18,40.064,105.513l-4.517,4.969c0,0-71.864-22.449-43.7-110.939"/>
		<path style="fill:#FBA71E;" d="M276.922,181.793c-36.312-2.802-66.268,4.086-91.148,32.594    c-26.001,29.793-36.026,70.024-42.219,108.131c-4.794,29.501-5.679,64.167,9.594,91.586    c13.897,24.951,44.354,41.132,71.554,46.591c42.103,8.451,93.827,10.372,125.741-24.332    c31.584-34.346,32.381-99.065,27.608-142.534c-3.362-30.622-5.975-59.271-29.586-81.78    C329.319,193.796,302.669,183.78,276.922,181.793z"/>
		<path style="fill:#FFDB2A;" d="M285.571,189.478c8.838,9.386,18.083,19.112,27.654,29.08c-0.011,0.008-0.022,0.015-0.033,0.023    c-13.581,9.382-27.896,19.183-42.79,29.263c-8.581-8.89-16.903-17.571-24.903-25.969c-3.67-3.871-7.25-7.659-10.787-11.408    c14.527-9.813,28.524-19.409,41.899-28.69c-1.933-0.146-3.845-0.26-5.742-0.349c-12.435,8.524-25.357,17.311-38.734,26.305    c-5.504-5.84-10.817-11.504-15.963-17.009c-0.97,0.466-1.919,0.997-2.876,1.502c5.163,5.626,10.505,11.416,16.046,17.382    c-9.58,6.432-19.348,12.947-29.316,19.533c-4.786,3.151-9.53,6.259-14.254,9.344c-3.447-3.664-6.811-7.251-10.112-10.779    c-0.604,0.905-1.197,1.817-1.779,2.735c2.978,3.237,6.002,6.516,9.102,9.863c-7.227,4.714-14.365,9.341-21.411,13.884    c-0.822,1.954-1.62,3.92-2.38,5.904c8.654-5.537,17.44-11.199,26.366-17.01c4.82,5.195,9.763,10.498,14.853,15.929    c6.662,7.075,13.572,14.356,20.658,21.772c-14.925,9.802-29.551,19.288-43.733,28.387c-5.804-6.038-11.476-11.966-16.997-17.762    c-2.848-3.003-5.633-5.949-8.395-8.874c-0.347,1.278-0.705,2.552-1.034,3.834c2.289,2.454,4.57,4.902,6.921,7.41    c5.338,5.668,10.827,11.464,16.439,17.356c-10.965,7.024-21.648,13.811-31.997,20.341c-0.189,1.47-0.363,2.948-0.527,4.435    c11.318-7.044,23.043-14.418,35.092-22.086c11.568,12.122,23.672,24.659,36.229,37.479c-15.17,9.784-29.874,19.153-43.956,28.041    c-9.776-9.978-19.273-19.758-28.462-29.287c-0.073,1.684-0.116,3.372-0.144,5.062c8.223,8.578,16.684,17.336,25.389,26.253    c-1.149,0.724-2.32,1.465-3.461,2.183c-5.911,3.7-11.664,7.284-17.317,10.797c0.313,1.102,0.617,2.207,0.967,3.297    c5.928-3.622,11.972-7.332,18.177-11.166c1.357-0.843,2.748-1.713,4.117-2.566c6.668,6.819,13.457,13.713,20.366,20.671    c5.604,5.627,11.16,11.161,16.676,16.631c-5.876,3.728-11.679,7.397-17.348,10.964c-3.99,2.498-7.89,4.929-11.761,7.34    c0.974,0.72,1.94,1.449,2.942,2.138c3.513-2.156,7.035-4.319,10.645-6.549c5.918-3.676,11.974-7.463,18.113-11.319    c12.882,12.75,25.478,25.038,37.643,36.767c-1.571,1.004-3.09,1.965-4.649,2.958c1.853,0.266,3.72,0.507,5.592,0.735    c0.585-0.37,1.161-0.733,1.747-1.105c0.52,0.5,1.03,0.987,1.548,1.486c1.88,0.203,3.767,0.379,5.659,0.536    c-1.371-1.329-2.733-2.647-4.115-3.988c14.28-9.075,29.013-18.561,44.062-28.408c3.866,3.709,7.701,7.379,11.465,10.963    c4.77,4.52,9.446,8.931,14.031,13.237c1.102-0.469,2.197-0.956,3.281-1.468c-4.868-4.637-9.84-9.385-14.928-14.264    c-3.554-3.423-7.173-6.921-10.821-10.455c2.037-1.336,4.065-2.66,6.112-4.008c12.786-8.448,25.252-16.802,37.366-25.01    c2.531,2.422,5.053,4.833,7.54,7.2c4.166,3.948,8.241,7.789,12.264,11.572c0.566-1.001,1.123-2.009,1.658-3.037    c-3.788-3.613-7.619-7.273-11.538-11.03c-2.294-2.21-4.625-4.462-6.959-6.718c10.777-7.316,21.234-14.494,31.351-21.501    c0.302-1.622,0.585-3.251,0.847-4.887c-11.229,7.711-22.872,15.647-34.906,23.771c-11.962-11.578-24.412-23.733-37.205-36.363    c14.852-9.989,29.196-19.782,42.905-29.26c10.523,10.324,20.797,20.285,30.777,29.873c0.159-1.504,0.304-3.009,0.435-4.516    c-9.129-8.862-18.522-18.041-28.12-27.499c5.217-3.614,10.37-7.196,15.39-10.707c4.416-3.105,8.742-6.159,12.991-9.169    c-0.087-1.309-0.179-2.607-0.278-3.892c-4.797,3.351-9.678,6.753-14.686,10.23c-5.216,3.604-10.57,7.285-15.993,11.004    c-9.605-9.478-19.404-19.224-29.333-29.193c-2.484-2.501-4.94-4.986-7.395-7.47c10.002-6.869,19.715-13.602,29.057-20.137    c4.559-3.205,9-6.344,13.385-9.451c1.626,1.644,3.239,3.28,4.878,4.931c5.994,6.018,11.926,11.923,17.815,17.755    c-0.232-2.004-0.472-3.998-0.725-5.979c-4.779-4.755-9.582-9.546-14.434-14.417c-1.491-1.502-2.959-2.989-4.439-4.484    c4.526-3.213,8.941-6.362,13.266-9.459c-0.322-1.068-0.66-2.13-1.015-3.186c-4.754,3.344-9.629,6.763-14.621,10.252    c-12.495-12.636-24.605-25.026-36.251-37.055c7.09-4.994,13.947-9.858,20.598-14.602c-0.919-0.682-1.839-1.363-2.781-2.015    c-6.542,4.586-13.279,9.292-20.231,14.124c-9.74-10.073-19.159-19.89-28.168-29.347c-1.463-1.544-2.89-3.053-4.33-4.575    c-1.74-0.229-3.477-0.424-5.212-0.58C280.857,184.44,283.193,186.941,285.571,189.478z M306.016,289.702    c-13.841,9.414-28.221,19.101-43.048,28.962c-12.502-12.695-24.6-25.12-36.197-37.142c0.319-0.21,0.634-0.415,0.953-0.625    c14.501-9.58,28.594-19.043,42.217-28.302C281.498,264.638,293.552,277.05,306.016,289.702z M273.904,335.056    c8.542,8.577,16.982,16.959,25.305,25.161c-7.316,4.893-14.741,9.833-22.273,14.809c-7.135,4.699-14.196,9.316-21.187,13.866    c-7.172-7.107-14.43-14.34-21.77-21.709c-5.088-5.123-10.096-10.198-15.06-15.244c11.271-7.251,22.775-14.731,34.443-22.414    c3.058-2.021,6.084-4.031,9.106-6.041C266.246,327.323,270.051,331.177,273.904,335.056z M202.917,256.644    c-4.977-5.249-9.815-10.371-14.544-15.392c4.546-2.965,9.112-5.953,13.712-8.983c10.146-6.703,20.08-13.345,29.813-19.906    c3.632,3.904,7.312,7.85,11.091,11.883c7.822,8.307,15.967,16.884,24.368,25.653c-13.475,9.105-27.392,18.421-41.696,27.872    c-0.515,0.339-1.022,0.669-1.535,1.007C216.855,271.23,209.76,263.826,202.917,256.644z M179.924,311.863    c14.21-9.061,28.851-18.527,43.773-28.325c11.547,12.064,23.611,24.517,36.1,37.228c-2.823,1.874-5.645,3.748-8.498,5.633    c-11.881,7.823-23.581,15.448-35.033,22.846C203.69,336.443,191.548,323.94,179.924,311.863z M191.397,401.951    c-6.702-6.749-13.3-13.437-19.785-20.047c14.143-8.825,28.895-18.149,44.096-27.907c5.141,5.239,10.335,10.509,15.615,15.826    c7.151,7.179,14.231,14.225,21.233,21.146c-15.075,9.794-29.767,19.221-43.908,28.205    C202.948,413.511,197.2,407.777,191.397,401.951z M248.747,458.579c-12.098-11.759-24.647-24.067-37.498-36.817    c14.195-8.936,28.925-18.332,44.023-28.114c12.841,12.666,25.371,24.854,37.455,36.469    C277.69,439.964,262.985,449.468,248.747,458.579z M339.272,399.157c-11.913,8.03-24.158,16.212-36.699,24.498    c-2.279,1.501-4.537,2.978-6.803,4.465c-12.018-11.654-24.499-23.867-37.31-36.543c6.783-4.404,13.625-8.871,20.537-13.423    c7.757-5.124,15.401-10.217,22.921-15.264C314.743,375.503,327.242,387.625,339.272,399.157z M316.484,300.288    c9.764,9.803,19.409,19.376,28.879,28.685c-13.758,9.421-28.138,19.172-43.008,29.135c-8.474-8.379-17.078-16.94-25.797-25.693    c-3.674-3.7-7.31-7.377-10.921-11.038c14.814-9.87,29.174-19.589,42.973-29.048C311.222,294.975,313.839,297.624,316.484,300.288z     M315.645,221.074c11.598,12.058,23.674,24.464,36.155,37.103c-4.254,2.969-8.559,5.969-12.971,9.033    c-9.543,6.593-19.459,13.398-29.671,20.354c-12.48-12.645-24.559-25.03-36.167-37.039c14.69-10.005,28.795-19.753,42.174-29.112    C315.327,221.298,315.483,221.188,315.645,221.074z"/>
		<g>
			<path style="fill:#F75AA8;" d="M249.368,261.891c9.014-5.454,19.956-3.702,26.114,5.074c3.559,5.073,11.965,0.238,8.366-4.89     c-9.147-13.036-25.588-16.889-39.37-8.55C239.141,256.754,244.008,265.135,249.368,261.891L249.368,261.891z"/>
		</g>
		<g>
			<path style="fill:#F75AA8;" d="M358.751,271.906c12.184,3.361,23.81,7.816,35.09,13.528c5.718,2.896,13.601,6.471,15.925,12.956     c1.634,4.561,0.55,10.634,0.282,15.366c-0.354,6.245,9.337,6.211,9.689,0c0.665-11.726,0.847-22.307-9.564-29.774     c-14.353-10.295-31.938-16.755-48.847-21.419C355.293,260.898,352.736,270.247,358.751,271.906L358.751,271.906z"/>
		</g>
		<path style="fill:#F75AA8;" d="M206.62,239.977c-11.047-38.177-50.838-32.326-54.528-3.546c-3.69,28.78,16.41,53.914,45.696,72.43    c33.01-10.529,58.8-29.779,62.49-58.559C263.969,221.522,226.941,205.822,206.62,239.977z"/>
		<path style="fill:#F75AA8;" d="M327.857,260.055c-11.046-38.176-50.838-32.326-54.527-3.546    c-3.69,28.78,16.41,53.914,45.696,72.43c33.01-10.529,58.8-29.779,62.49-58.559C385.206,241.6,348.178,225.901,327.857,260.055z"/>
		<path style="fill:#0D2554;" d="M238.628,296.645c-0.64,5.718,1.172,11.181,4.587,15.32l13.346-1.81l13.905,5.663    c4.442-3.029,7.682-7.766,8.654-13.449L238.628,296.645z"/>
		<path style="fill:#F75AA8;" d="M270.465,315.818c-2.483-4.63-7.045-8.065-12.646-8.857c-5.6-0.792-10.937,1.244-14.605,5.004    c3.133,3.791,7.619,6.483,12.876,7.226C261.348,319.935,266.404,318.593,270.465,315.818z"/>
		<path style="fill:#0D2554;" d="M203.786,255.296c-8.407-30.928-36.843-38.686-39.839-15.316    c-2.996,23.37,12.501,43.674,35.164,58.567c25.687-8.693,45.805-24.431,48.801-47.801    C250.909,227.376,219.724,227.489,203.786,255.296z"/>
		<path style="fill:#0D2554;" d="M325.023,275.375c-8.407-30.928-36.843-38.686-39.839-15.316    c-2.996,23.37,12.501,43.674,35.164,58.567c25.687-8.693,45.805-24.431,48.802-47.801    C372.146,247.454,340.961,247.568,325.023,275.375z"/>
		<g style="opacity:0.12;">
			<path style="fill:#FFFFFF;" d="M178.789,281.371l24.322-28.335c-2.123-6.739-5.206-12.288-8.738-16.539l-25.768,30.02     C171.161,271.742,174.613,276.705,178.789,281.371z"/>
			<path style="fill:#FFFFFF;" d="M196.942,297.06l49.167-57.279c-1.777-2.942-4.62-4.827-8.097-5.593l-48.916,56.987     C191.583,293.215,194.203,295.178,196.942,297.06z"/>
			<path style="fill:#FFFFFF;" d="M297.606,298.619l25.318-29.495c-2.562-6.404-6.023-11.527-9.826-15.272l-24.905,29.015     C290.389,288.401,293.587,293.666,297.606,298.619z"/>
			<path style="fill:#FFFFFF;" d="M315.161,315.004l49.774-57.987c-2.604-2.214-6.176-3.267-10.22-3.12l-47.191,54.978     C309.931,310.997,312.482,313.041,315.161,315.004z"/>
		</g>
	</g>
</g>















</svg>
