<?xml version="1.0" encoding="UTF-8"?>
<!-- Generator: Adobe Illustrator 25.4.1, SVG Export Plug-In . SVG Version: 6.00 Build 0)  -->
<svg xmlns="http://www.w3.org/2000/svg" xmlns:xlink="http://www.w3.org/1999/xlink" version="1.1" id="Capa_1" x="0px" y="0px" viewBox="0 0 512 512" style="enable-background:new 0 0 512 512;" xml:space="preserve" width="512" height="512">
<g>
	<path style="fill:#FFFFFF;" d="M467.773,208.972c-4.228,0-8.216,0.368-11.926,1.048c-0.997-17.896-7.437-35.059-18.185-49.155   c-0.54-0.752,2.177-4.82,2.546-5.623c1.508-3.276,2.654-6.776,3.683-10.228c4.141-13.897,5.191-28.716,2.991-43.052   c8.53-17.273,0.434-27.57-2.53-30.537c-2.846-2.846-6.457-4.793-10.474-5.699c0.166,0.228-1.108-1.825-1.999-3.231   c-8.049-12.689-19.976-23.034-32.538-31.101c-7.738-4.97-16.037-9.069-24.692-12.178c-22.024-7.911-45.813-8.839-67.992-0.909   C302.222,6.965,294.043,0,283.854,0c-12.966,0-22.673,11.277-25.561,28.496c-9.853-4.84-19.778-7.294-29.55-7.294   c-14.16,0-23.142,5.24-24.798,6.291c-4.909,3.112-7.807,8.589-7.622,14.397c0.188,5.81,3.428,11.09,8.525,13.884l24.324,13.328   c-9.29,2.816-18.334,6.435-27.002,10.826c-9.554-0.6-18.489,0.313-27.252,2.537c-3.021-4.551-6.309-8.133-8.385-10.209   c-4.68-4.677-17.058-15.557-30.907-15.557c-6.116,0-11.717,2.231-15.772,6.287c-11.006,11.013-7.19,30.206,9.276,46.674   c0.205,0.202,0.41,0.405,0.615,0.607c-13.958,15.997-21.878,36.641-21.878,58.425c0,10.381,1.77,20.506,5.262,30.172   c-0.2,1.091-0.392,2.179-0.573,3.273c-6.101-3.026-13.787-4.835-22.545-5.075c-0.797-9.525-0.694-20.012,0.318-31.346   c0.39-1.424,0.738-2.977,0.953-4.603c7.538-14.523,9.784-31.514,6.146-47.34c-0.916-3.989-2.718-9.836-7.79-14.562   c-3.994-3.717-9.406-5.85-14.846-5.85c-4.223,0-8.239,1.254-11.598,3.586c-0.499-0.457-1.004-0.903-1.52-1.343   c-7.778-6.625-18.543-9.878-28.107-4.942C26.157,94.486,21.478,102.345,22,110.7c-1.476,0.336-2.898,0.8-4.253,1.392   c-8.535,3.722-13.763,12.22-13.012,21.131c0.709,8.457,6.214,14.125,12.951,18.523c9.812,6.404,14.066,14.797,20.997,23.639   c-0.827,27.78,2.878,71.739,29.986,100.57c14.873,15.819,34.446,24.63,58.265,26.254c2.295,4.756,4.818,9.401,7.553,13.921   c-15.207,16.231-38.015,43.976-54.348,78.998c0.598-1.281-18.852-4.266-20.924-4.216c-11.771,0.29-28.911,5.823-29.193,20.017   c-0.111,5.583,2.624,10.84,7.257,13.958l48.658,32.731c4.174,2.806,9.401,3.544,14.182,2.014c4.786-1.533,8.607-5.173,10.371-9.88   c0.109-0.289,10.369-27.493,26.869-57.83c9.478-3.295,17.248-10.233,20.733-13.718c6.01-6.008,10.557-12.655,13.153-19.218   c0.03-0.077,0.059-0.151,0.089-0.227c19.089,15.74,41.456,27.099,65.492,33.163c0.528,19.716,4.899,48.816,23.749,68.898   c15.935,16.971,38.319,24.285,66.832,21.399c4.82,14.17,15.441,28.673,35.974,29.759c0.289,0.015,0.58,0.022,0.869,0.022   c0.015,0,0.032,0,0.047,0c9.073,0,16.428-7.355,16.428-16.428c0-1.634-0.237-3.214-0.681-4.702c0,0-10.944-51.514-10.944-51.515   c-2.654-12.487-14.762-14.45-24.98-10.615c-14.155,5.312-32.868,9.698-46.49,0.599c0.484-3.211,0.731-6.568,0.731-10.001   c0-8.883-1.582-16.744-4.401-23.07c30.062-2.848,58.023-13.627,81.549-30.457c0.186,0.536,0.353,1.063,0.572,1.616   c2.597,6.563,7.146,13.207,13.153,19.218c2.667,2.666,7.84,7.342,14.355,10.875c-1.034,2.878-1.755,6.268-1.486,10.11   c0.713,10.164,8.291,18.324,17.784,19.706c0.052,0.674,0.118,1.345,0.195,2.019c0.474,4.085,1.622,10.139,6.131,15.535   c4.243,5.075,10.648,8.106,17.129,8.106c3.589,0,7.116-0.926,10.206-2.68c2.451-1.392,4.351-3.12,5.83-4.919   c1.227,0.713,2.582,1.36,4.075,1.888c2.382,0.839,4.875,1.266,7.41,1.266c6.57,0,12.59-2.858,16.51-7.835   c9.627-12.215-0.077-26.929,1.757-40.567c1.576-11.719,4.412-22.758-1.905-33.686c0.366-25.395-3.038-71.842-28.9-105.258   c2.997,0.421,6.142,0.663,9.448,0.663c23.295,0,39.563-10.875,39.563-26.447S491.068,208.972,467.773,208.972z"/>
	<g>
		<g>
			<path style="fill:#0D2554;" d="M163.681,308.979c0,0-51.114,43.564-74.654,107.478c0,0-21.79-19.954-41.485-7.811L96.2,441.378     c0,0,33.42-89.227,78.428-128.703"/>
			<path style="fill:#0D2554;" d="M255.123,369.84c0,0-15.498,113.307,86.417,91.049c0,0,0.832,30.858,23.801,32.075l-11.218-52.805     c0,0-90.697,43.351-90.292-70.319"/>
			<path style="fill:#0D2554;" d="M474.242,414.164c-0.823-5.721-1.423-11.629-0.706-17.397c0.62-4.989,2.278-9.828,2.581-14.846     c0.281-4.647-0.922-9.73-4.376-12.737c1.039-25.885-1.052-94.554-49.452-121.53l-6.002,6.599c0,0,48.452,29.24,36.993,118.766     c-13.142,3.631-24.791,12.482-31.629,24.288c-1.167,2.015-2.229,4.239-2.066,6.562c0.163,2.323,1.985,4.677,4.313,4.633     c1.449-0.028,2.719-0.925,3.885-1.786c6.928-5.114,13.855-10.229,20.783-15.343c-8.3,8.851-12.459,21.432-11.071,33.486     c0.282,2.452,0.834,4.992,2.417,6.886c1.583,1.894,4.463,2.899,6.609,1.68c1.82-1.033,2.57-3.227,3.175-5.23     c3.098-10.266,6.195-20.532,9.293-30.797c-3.209,9.503-0.193,20.431,6.292,28.083c1.31,1.546,2.82,3.024,4.73,3.7     c1.91,0.676,4.3,0.346,5.553-1.245C478.294,424.471,474.787,417.95,474.242,414.164z"/>
			<path style="fill:#0D2554;" d="M75.213,160.009l0.752-5.835c7.128-11.623,9.602-26.042,6.543-39.338     c-0.522-2.27-1.264-4.62-2.968-6.206c-1.705-1.587-4.643-2.064-6.314-0.442c-1.041,1.009-1.356,2.532-1.621,3.957     c-1.573,8.466-3.147,16.932-4.72,25.398c0.026-12.134-5.52-24.168-14.761-32.031c-1.88-1.6-4.017-3.08-6.466-3.384     c-2.45-0.304-5.24,0.927-5.977,3.283c-0.625,1.997,0.323,4.113,1.249,5.99c4.742,9.617,9.484,19.235,14.225,28.852     c-4.14-9.136-13.802-15.065-23.764-16.233c-2.012-0.236-4.125-0.286-5.982,0.523c-1.857,0.81-3.379,2.681-3.21,4.7     c0.369,4.395,7.383,6.769,10.365,9.164c4.507,3.62,8.976,7.529,12.389,12.234c2.951,4.069,5.043,8.738,8.245,12.613     c0.966,1.169,2.091,2.249,3.311,3.188c-1.858,30.109-0.451,121.643,86.046,116.896v-9.142     C142.555,274.193,64.139,275.499,75.213,160.009z"/>
			<g>
				<ellipse style="fill:#FBA71E;" cx="468.865" cy="232.81" rx="23.135" ry="10.019"/>
				
					<ellipse transform="matrix(0.7071 -0.7071 0.7071 0.7071 -138.528 396.2296)" style="fill:#FBA71E;" cx="409.027" cy="365.333" rx="10.019" ry="23.135"/>
				<ellipse style="fill:#FBA71E;" cx="273.008" cy="416.729" rx="10.019" ry="23.135"/>
				
					<ellipse transform="matrix(0.7071 -0.7071 0.7071 0.7071 -211.2132 203.8698)" style="fill:#FBA71E;" cx="140.486" cy="356.892" rx="23.135" ry="10.019"/>
				<ellipse style="fill:#FBA71E;" cx="89.09" cy="220.873" rx="23.135" ry="10.019"/>
				
					<ellipse transform="matrix(0.7071 -0.7071 0.7071 0.7071 -18.8534 131.1845)" style="fill:#FBA71E;" cx="148.927" cy="88.35" rx="10.019" ry="23.135"/>
				<ellipse style="fill:#FBA71E;" cx="284.946" cy="36.954" rx="10.019" ry="23.135"/>
				
					<ellipse transform="matrix(0.7071 -0.7071 0.7071 0.7071 53.8318 323.5444)" style="fill:#FBA71E;" cx="417.469" cy="96.791" rx="23.135" ry="10.019"/>
			</g>
			<circle style="fill:#FBA71E;" cx="278.981" cy="226.852" r="151.146"/>
			<path style="fill:#0D2554;" d="M235.064,201.569c-0.693,3.004-1.097,6.119-1.097,9.335c0,11.54,4.741,21.966,12.346,29.447     l24.003-0.877l26.921,6.014c10.815-7.065,18.101-19.118,18.65-32.923C287.254,219.249,254.687,218.173,235.064,201.569z"/>
			<path style="fill:#F75AA8;" d="M297.237,245.489c-5.358-9.536-15.554-15.99-27.271-15.99c-9.459,0-17.918,4.217-23.653,10.852     c7.393,7.268,17.497,11.763,28.656,11.763C283.188,252.114,290.83,249.675,297.237,245.489z"/>
			<g>
				<path style="fill:#03CDC5;" d="M268.668,68.807l-54.831-30.048c0,0,16.146-10.237,40.829,3.181s34.71,20.447,34.71,20.447      l-3.686,10.522L268.668,68.807z"/>
				<path style="fill:#0D2554;" d="M422.159,154.526L268.668,68.807l0,0c3.827-6.853,8.484-12.915,13.774-18.202l43.116-1.244      l30.935-21.505c8.497,1.622,16.859,4.586,24.826,9.035l8.925,4.984c25.04,13.984,39.989,39.037,42.157,65.625l-7.95,13.643      l4.099,18.792C426.917,144.905,424.804,149.79,422.159,154.526L422.159,154.526z"/>
				<path style="fill:#03CDC5;" d="M282.442,50.605c5.15,5.385,11.842,9.93,19.742,12.915c22.929,8.661,47.033,1.077,53.838-16.939      c2.284-6.045,2.284-12.492,0.47-18.724c-3.764-0.72-7.55-1.171-11.331-1.361c-10.012-0.503-16.748,7.437-26.195,10.458      c-9.474,3.03-21.655,1.15-29.565,7.441C286.98,46.32,284.656,48.392,282.442,50.605z"/>
				<path style="fill:#F75AA8;" d="M305.301,55.27c17.13,6.47,35.138,0.804,40.222-12.655c1.969-5.212,1.689-10.825-0.361-16.126      c-20.054-1.006-39.965,5.336-55.766,17.9C293.366,48.958,298.799,52.814,305.301,55.27z"/>
				<path style="fill:#F75AA8;" d="M413.703,117.133c-3.007,8.396,3.621,18.466,14.847,22.804      c3.499-10.642,4.73-21.662,3.851-32.435C423.695,106.917,416.067,110.531,413.703,117.133z"/>
			</g>
			<circle style="opacity:0.45;fill:#F75AA8;" cx="179.772" cy="239.003" r="37.217"/>
			<circle style="opacity:0.45;fill:#F75AA8;" cx="353.814" cy="279.565" r="37.217"/>
			<g>
				<path style="fill:#03CDC5;" d="M368.157,139.774c-26.18,0-49.114,13.878-61.86,34.676c-7.905-11.485-22.77-16.809-36.017-12.485      c-2.137-38.126-33.722-68.387-72.383-68.387c-40.045,0-72.507,32.463-72.507,72.507c0,40.045,32.463,72.507,72.507,72.507      c37.609,0,68.525-28.634,72.148-65.29c11.775-6.261,26.615-0.905,30.709,12.261c-3.281,8.271-5.105,17.279-5.105,26.718      c0,40.045,32.463,72.507,72.507,72.507s72.507-32.463,72.507-72.507S408.201,139.774,368.157,139.774z"/>
				<circle style="fill:#0D2554;" cx="197.897" cy="166.085" r="56.762"/>
				<circle style="fill:#0D2554;" cx="368.157" cy="212.281" r="56.762"/>
				<g style="opacity:0.07;">
					<path style="fill:#FFFFFF;" d="M149.825,196.255l86.503-71.933c-6.248-5.752-13.79-10.116-22.139-12.614l-72.723,60.474       C142.404,180.962,145.349,189.138,149.825,196.255z"/>
					<path style="fill:#FFFFFF;" d="M170.353,215.715l81.365-67.66c-1.45-4.33-3.406-8.427-5.801-12.221l-86.521,71.948       C162.708,210.841,166.384,213.508,170.353,215.715z"/>
					<path style="fill:#FFFFFF;" d="M321.238,244.226l86.882-72.248c-5.956-5.906-13.216-10.491-21.306-13.306l-74.774,62.179       C313.338,229.423,316.556,237.363,321.238,244.226z"/>
					<path style="fill:#FFFFFF;" d="M342.625,262.972l80.032-66.552c-1.29-4.44-3.106-8.653-5.379-12.571l-86.027,71.537       C334.707,258.349,338.522,260.902,342.625,262.972z"/>
				</g>
			</g>
		</g>
	</g>
</g>















</svg>
