<?xml version="1.0" encoding="UTF-8"?>
<!-- Generator: Adobe Illustrator 25.2.1, SVG Export Plug-In . SVG Version: 6.00 Build 0)  -->
<svg xmlns="http://www.w3.org/2000/svg" xmlns:xlink="http://www.w3.org/1999/xlink" version="1.1" id="Capa_1" x="0px" y="0px" viewBox="0 0 512 512" style="enable-background:new 0 0 512 512;" xml:space="preserve" width="512" height="512">
<g>
	<path style="fill:#FFFFFF;" d="M493.576,129.964c-14.091,7.487-29.597,12.828-45.436,15.695   c7.115-19.738,11.837-40.244,14.076-61.199c0.525-4.925-1.898-9.7-6.186-12.183c-4.287-2.485-9.639-2.207-13.643,0.7   c-19.893,14.421-41.629,26.049-64.723,34.632c-18.657-21.813-47.196-33.015-77.063-30.068   c-14.177,1.399-28.255,5.973-40.714,13.229c-14.002,8.153-26.157,19.428-35.479,32.718c-9.956-12.822-22.644-23.493-37.026-30.958   c-17.344-9.002-36.559-12.771-55.567-10.895c-26.038,2.569-48.525,15.433-63.321,36.222c-13.944,19.597-20.35,44.236-18.693,71.627   c-21.51,19.443-8.887,52.287-1.954,70.325l0.078,0.204c0.607,1.579,1.249,3.158,1.923,4.728   c-9.035,9.095-16.992,19.115-23.722,29.883C9.226,321.667-0.053,354.12,0,386.003c0.006,4.993,2.978,9.507,7.563,11.489   c4.582,1.98,9.907,1.053,13.551-2.36c11.706-10.972,25.211-20.135,39.752-27.035c-1.706,20.91-0.899,41.934,2.42,62.75   c0.78,4.892,4.367,8.868,9.155,10.142c1.478,0.393,2.987,0.507,4.457,0.362c3.286-0.324,6.381-1.942,8.53-4.605   c27.894-34.575,65.454-59.855,99.473-82.034c13.548,5.283,27.739,9.681,42.28,13.098c2.089,0.491,4.264,0.443,6.328-0.155   c30.697-8.81,74.68-26.345,110.592-59.949c0.128-0.017,0.255-0.033,0.383-0.048c10.563-1.34,19.73-3.977,28.025-8.062   c4.664-2.298,9.077-5.09,13.127-8.313c1.186-0.946,2.376-1.988,3.647-3.192c0.304-0.288,0.6-0.588,0.893-0.888l0.216-0.22   c0.767-0.769,1.524-1.553,2.265-2.381c0.349-0.389,0.689-0.79,1.027-1.19l-9.582-8.088l9.723,7.921   c0.659-0.781,1.306-1.579,1.915-2.375c0.365-0.475,0.728-0.956,1.104-1.473c0.606-0.837,1.194-1.697,1.792-2.603l0.206-0.307   c0.236-0.355,0.471-0.711,0.689-1.061c0.652-1.039,1.279-2.107,1.965-3.319c0.164-0.276,0.323-0.553,0.464-0.811   c0.77-1.409,1.505-2.853,2.192-4.301c0.122-0.258,0.242-0.52,0.386-0.852c0.555-1.197,1.092-2.405,1.585-3.602   c0.159-0.387,0.313-0.777,0.467-1.17l0.11-0.28c0.133-0.339,0.266-0.676,0.396-1.015c20.441-7.87,39.478-19.691,55.358-34.415   c23.386-21.677,40.827-50.572,49.116-81.364c1.298-4.822-0.389-9.955-4.296-13.068   C503.366,128.114,497.988,127.621,493.576,129.964z"/>
	<g>
		<g>
			<path style="fill:#A046C6;" d="M206.238,325.8c-46.597,30.826-95.014,59.005-130.571,103.072     c-4.228-26.511-4.157-53.702,0.209-80.19c-23.514,7.568-45.315,20.407-63.337,37.3c-0.049-29.756,8.449-59.478,24.22-84.711     c15.771-25.233,38.763-45.896,65.531-58.892"/>
		</g>
		<g>
			<g>
				<g>
					<path style="fill:#5F297C;" d="M97.014,267.725c-0.109-0.169-1.602,0.612-4.217,2.177c-1.318,0.768-2.896,1.76-4.664,3.01       c-1.777,1.234-3.835,2.601-5.97,4.297c-2.175,1.645-4.531,3.485-6.949,5.596c-2.487,2.033-4.965,4.405-7.612,6.861       c-5.173,5.035-10.595,10.856-15.797,17.376c-5.155,6.557-9.583,13.169-13.281,19.373c-1.766,3.152-3.502,6.112-4.884,9.014       c-0.71,1.44-1.429,2.813-2.052,4.166c-0.577,1.314-1.152,2.62-1.724,3.923c-1.137,2.48-1.954,4.814-2.716,6.841       c-0.781,2.019-1.35,3.796-1.761,5.266c-0.86,2.926-1.243,4.566-1.051,4.629c0.466,0.157,2.701-6.176,7.403-15.876       c0.621-1.259,1.244-2.521,1.87-3.792c0.667-1.309,1.427-2.638,2.173-4.034c1.453-2.813,3.244-5.685,5.045-8.752       c3.768-6.034,8.19-12.491,13.264-18.946c5.122-6.418,10.398-12.201,15.394-17.27c2.559-2.472,4.941-4.879,7.327-6.963       c2.317-2.162,4.568-4.07,6.637-5.8C91.732,271.913,97.278,268.128,97.014,267.725z"/>
				</g>
			</g>
			<g>
				<g>
					<path style="fill:#5F297C;" d="M92.011,330.138c-0.08-0.365-4.259,0.131-10.857,1.737c-6.594,1.598-15.58,4.422-25.084,8.597       c-9.498,4.189-17.645,8.939-23.234,12.798c-5.6,3.853-8.719,6.687-8.499,6.983c0.508,0.711,14.13-8.963,32.909-17.111       C75.953,334.852,92.218,331.011,92.011,330.138z"/>
				</g>
			</g>
			<g>
				<g>
					<path style="fill:#5F297C;" d="M84.264,395.611c0.858-0.07-0.09-14.878,2.171-32.933c2.104-18.069,6.405-32.275,5.576-32.54       c-0.686-0.284-6.322,13.776-8.473,32.192C81.239,380.737,83.522,395.74,84.264,395.611z"/>
				</g>
			</g>
			<g>
				<g>
					<path style="fill:#5F297C;" d="M184.371,316.903c-0.087-0.182-1.781,0.439-4.778,1.723c-1.503,0.632-3.324,1.446-5.396,2.477       c-2.077,1.022-4.465,2.147-7.019,3.552c-5.167,2.703-11.174,6.2-17.684,10.342c-6.476,4.193-13.435,9.062-20.453,14.551       c-6.99,5.524-13.362,11.138-18.965,16.441c-5.561,5.349-10.377,10.361-14.223,14.745c-1.968,2.15-3.625,4.205-5.108,5.982       c-1.491,1.77-2.712,3.348-3.68,4.659c-1.954,2.61-2.958,4.109-2.801,4.236c0.357,0.291,5.053-5.152,13.102-13.474       c4.011-4.173,8.937-8.992,14.547-14.185c5.652-5.147,12.012-10.642,18.932-16.111c6.948-5.434,13.788-10.318,20.124-14.596       c6.369-4.227,12.215-7.876,17.217-10.79C178.172,320.598,184.57,317.319,184.371,316.903z"/>
				</g>
			</g>
		</g>
		<g>
			<path style="fill:#A046C6;" d="M359.572,126.682c32.317-9.036,63.007-23.858,90.175-43.554     c-2.853,26.694-10.033,52.92-21.175,77.345c24.675-1.155,49.075-7.845,70.888-19.436c-7.736,28.733-23.711,55.198-45.533,75.428     c-21.821,20.23-49.417,34.16-78.653,39.703"/>
		</g>
		<g>
			<g>
				<g>
					<path style="fill:#5F297C;" d="M425.983,111.457c-0.508-0.732-14.636,9.001-33.747,17.776       c-19.061,8.881-35.626,13.345-35.397,14.206c0.091,0.363,4.361-0.289,11.086-2.127c6.721-1.831,15.864-4.966,25.536-9.431       c9.665-4.479,17.975-9.417,23.723-13.353C422.938,114.594,426.2,111.762,425.983,111.457z"/>
				</g>
			</g>
			<g>
				<g>
					<path style="fill:#5F297C;" d="M406.473,173.032c0.673,0.336,7.59-12.572,13.111-29.722       c5.626-17.131,7.179-31.767,6.399-31.853c-0.819-0.126-3.622,14.051-9.176,30.957       C411.358,159.347,405.693,172.672,406.473,173.032z"/>
				</g>
			</g>
			<g>
				<g>
					<path style="fill:#5F297C;" d="M477.355,159.929c-0.373-0.841-15.347,6.373-35.277,9.901       c-19.899,3.699-36.453,2.207-36.506,3.125c-0.037,0.36,4.055,1.201,10.787,1.546c6.722,0.353,16.093,0.03,26.24-1.8       c10.144-1.852,19.031-4.843,25.2-7.535C473.98,162.478,477.516,160.253,477.355,159.929z"/>
				</g>
			</g>
			<g>
				<g>
					<path style="fill:#5F297C;" d="M394.187,232.751c0.064,0.191,1.618-0.169,4.388-0.99c1.39-0.397,3.077-0.928,4.985-1.683       c1.912-0.743,4.13-1.505,6.467-2.614c2.365-1.048,4.951-2.212,7.626-3.668c2.733-1.349,5.515-3.039,8.461-4.789       c5.802-3.641,11.947-8.039,17.932-13.224c5.941-5.235,11.125-10.734,15.508-15.999c2.125-2.689,4.172-5.22,5.869-7.752       c1.797-2.46,3.291-4.871,4.639-7.079c1.407-2.171,2.45-4.273,3.434-6.072c0.997-1.793,1.741-3.398,2.313-4.726       c1.17-2.642,1.727-4.137,1.545-4.225c-0.445-0.22-3.332,5.451-9.029,13.909c-1.439,2.105-3.006,4.411-4.857,6.768       c-1.752,2.429-3.834,4.858-5.974,7.45c-4.413,5.072-9.548,10.401-15.368,15.531c-5.865,5.079-11.835,9.451-17.452,13.15       c-2.853,1.778-5.539,3.517-8.178,4.934c-2.581,1.523-5.073,2.774-7.349,3.926C400.018,230.139,394.026,232.283,394.187,232.751       z"/>
				</g>
			</g>
		</g>
		<g>
			<path style="fill:#FF0B85;" d="M370.016,118.052c-25.197-31.996-69.756-36.284-103.817-16.446     c-18.142,10.566-32.766,27.029-41.197,46.252c-9.355-18.791-24.761-34.524-43.395-44.196     c-34.984-18.16-79.282-11.713-102.895,21.469C47.46,169.045,64.61,234.193,94.112,274.21     c31.717,43.021,84.207,69.233,135.937,81.394c51.078-14.659,102.234-43.389,131.824-87.9     C389.398,226.302,403.363,160.398,370.016,118.052z"/>
		</g>
		<g>
			<g>
				<g>
					<path style="fill:#8E195B;" d="M150.113,140.338c0.199,8.182-3.364,14.905-7.957,15.017c-4.593,0.112-8.478-6.431-8.677-14.613       c-0.199-8.182,3.364-14.905,7.957-15.017C146.029,125.613,149.914,132.155,150.113,140.338z"/>
				</g>
				<g>
					<path style="fill:#8E195B;" d="M316.367,136.298c0.199,8.182-3.364,14.905-7.957,15.017c-4.593,0.112-8.478-6.431-8.677-14.613       c-0.199-8.182,3.364-14.905,7.957-15.017C312.284,121.574,316.168,128.116,316.367,136.298z"/>
				</g>
			</g>
			<g>
				<g>
					<path style="fill:#8E195B;" d="M272.384,133.87c-0.369-0.071-0.972,1.705-2.187,4.755c-1.195,3.057-3.298,7.335-6.728,11.995       c-1.699,2.342-3.84,4.686-6.271,7.039c-2.531,2.246-5.322,4.564-8.597,6.484c-6.45,3.952-14.531,6.731-23.178,6.952       c-8.649,0.058-16.815-2.458-23.389-6.199c-3.336-1.814-6.199-4.04-8.802-6.203c-2.506-2.273-4.721-4.547-6.495-6.833       c-3.579-4.546-5.819-8.754-7.112-11.771c-1.313-3.009-1.973-4.765-2.339-4.682c-0.283,0.056-0.248,1.963,0.565,5.299       c0.794,3.336,2.667,8.039,6.139,13.178c1.72,2.581,3.944,5.168,6.532,7.753c2.684,2.474,5.701,5.007,9.27,7.099       c7.03,4.293,16.023,7.258,25.71,7.184c9.685-0.239,18.577-3.493,25.465-8.011c3.5-2.206,6.434-4.836,9.036-7.396       c2.503-2.667,4.642-5.325,6.278-7.96c3.304-5.249,5.025-10.01,5.71-13.37C272.695,135.824,272.669,133.917,272.384,133.87z"/>
				</g>
			</g>
		</g>
		<g>
			<g>
				<path style="fill:#E81D7E;" d="M102.453,312.388c71.452-18.834,148.767,8.757,220.529-8.857      c7.335-1.8,15.515-4.934,18.055-12.046c3.127-8.755-4.184-17.642-11.556-23.307c-25.075-19.268-57.273-27.42-88.876-28.549      c-31.603-1.13-63.034,4.263-94.198,9.637"/>
			</g>
		</g>
		<g>
			<path style="fill:#FFB032;" d="M95.734,308.016c1.428,1.487,2.88,2.98,4.354,4.486c-1.326-1.355,31.565-11.868,34.08-12.617     c11.927-3.55,23.836-5.224,36.379-6.12c35.989-2.572,72.609-1.804,108.652-0.402c31.922,1.242,71.034,10.077,98.618-11.883     c28.457-22.655,29.537-84.034,21.654-115.204c-23.861,23.283-60.676,27.768-92.49,29.647     c-47.123,2.783-93.787-6.922-140.596-10.471c-23.191-1.758-46.641-2.133-69.691,1.403c-12.009,1.841-25.889,2.638-36.095,10.006     c-18.474,13.338-7.656,41.25-0.969,58.654C67.885,277,80.472,292.132,95.734,308.016z"/>
		</g>
		<g>
			<g>
				<path style="fill:#EFA726;" d="M326.229,244.556c-43.086,7.988-87.322,5.778-131.102,3.892      c-26.572-1.145-53.454-2.136-79.517,3.16c-17.178,3.49-34.117,10.032-48.347,20.089c7.643,13.54,17.34,24.735,28.47,36.32      c1.428,1.487,2.88,2.98,4.354,4.486c-1.326-1.355,31.565-11.868,34.08-12.617c11.927-3.55,23.836-5.224,36.379-6.12      c35.989-2.571,72.609-1.804,108.652-0.402c31.922,1.242,71.034,10.077,98.618-11.883c16.799-13.374,24.052-40.242,25.558-66.424      C380.304,229.974,353.381,239.522,326.229,244.556z"/>
			</g>
		</g>
		<g>
			<path style="fill:#8E195B;" d="M96.028,216.54c5.84-2.459,11.785-0.905,15.861,3.408c3.996,3.941,5.806,9.796,4.87,15.605     c-0.499,2.454-1.125,4.938-2.055,7.226c-0.667,1.711-0.185,2.125,1.584,1.864c3.062-0.283,6.716,0.344,10.564,3.016     c2.603,1.77,4.671,4.051,6.444,6.787c8.38,12.615,5.354,29.044-14.559,37.989c-2.556,0.823-3.575,0.92-3.575,0.92     c-0.994,0.218-1.904-0.364-2.124-1.358c-3.583-16.275-6.281-27.928-8.593-37.839c-1.329-5.441-2.7-10.478-3.836-15.049     c-0.428-1.338-0.987-3.3-1.991-6.076c-1.825-5.33-2.455-7.015-3.246-12.963c-0.055-0.25-0.218-0.994-0.246-1.118     C94.784,217.986,95.062,216.883,96.028,216.54z M98.959,219.801c0.709,5.577,1.23,6.765,3.028,11.971     c0.949,2.526,1.564,4.735,2.045,6.324l1.961,7.124c1.123,3.922,2.271,2.625,3.377,0.558c1.76-3.255,3.038-6.922,3.829-11.005     c0.739-4.331-0.727-9.219-3.881-12.303c-2.368-2.474-4.961-3.597-7.928-3.465c-1.671,0.109-2.486,0.548-2.486,0.548     L98.959,219.801z M116.88,289.33c18.009-8.137,20.41-22.084,13.335-32.902c-2.983-4.683-7.46-7.866-11.56-8.135     c-4.001-0.423-7.08,1.56-9.34,6.096c-0.526,1.158-0.583,2.082-0.308,3.324c1.572,6.557,3.707,16.247,6.498,28.922     c0.412,1.864,0.811,3.079,1.031,2.9L116.88,289.33z"/>
			<path style="fill:#8E195B;" d="M143.686,209.444c-0.111,0.142-0.111,0.142-0.096,0.267c0.017,0.127-0.179,0.664-0.171,1.814     c0.031,0.252-0.065,0.52-0.023,0.898c-0.041,3.976,0.946,9.112,2.241,15.748c1.067,5.765,1.274,5.356,1.631,10.565     c0.171,2.54,1.086,2.689,2.854,2.482c1.515-0.18,2.906-0.343,3.901-0.589s1.969,0.409,2.217,1.405     c0.117,1.011-0.539,1.984-1.547,2.102c-1.248,0.276-2.639,0.439-4.409,0.648c-1.641,0.194-2.524,0.298-2.354,2.841     c0.829,12.452,1.865,22.319,3.187,29.208c0.382,2.131,0.827,3.745,1.213,4.851c0.034,0.254,0.188,0.49,0.203,0.618     c0.14,0.111,0.163-0.787,0.117-1.167c0.148,1.263,0.758,2.088,2.18,2.177c2.837,0.175,6.442-0.76,10.076-1.445     c1.879-0.349,3.269-0.514,4.152-0.618c1.012-0.119,1.86,0.549,1.979,1.561c0.119,1.01-0.549,1.856-1.559,1.977     c-1.645,0.195-6.889,1.324-8.517,1.643c-4.154,0.618-7.231,0.595-9.356-0.05c-1.447-0.343-2.133-1.797-2.706-3.396     c-0.543-1.342-1.004-3.083-1.411-5.467c-1.416-7.646-2.458-18.666-3.062-27.047c-0.366-4.183-0.516-7.626-0.731-10.544     c-0.403-5.588-0.453-4.941-1.689-11.072c-1.292-6.634-2.33-12.149-2.314-16.376c0.081-2.572,0.332-4.778,1.728-5.966     c0.824-0.612,2.323-0.914,3.968-1.109c0.885-0.105,2.906-0.345,6.076-0.591c6.208-0.602,9.505-0.863,10.012-0.921     c0.994-0.246,1.968,0.407,2.213,1.403c0.063,0.505-0.006,1.027-0.355,1.323c-0.656,0.973-1.57,0.825-2.705,0.958     c-1.643,0.194-4.672,0.551-8.859,0.917c-3.171,0.244-5.066,0.47-5.822,0.557c-0.885,0.107-1.518,0.18-1.883,0.351     L143.686,209.444z"/>
			<path style="fill:#8E195B;" d="M205.074,206.565c0.001-0.382-0.001-0.638,0.129-0.764c0-0.127-0.002-0.255-0.001-0.382     c0.126-0.508,0.507-0.89,1.017-1.144c1.146-0.637,2.289-0.256,3.309,0.889c0.383,0.508,0.89,1.271,1.018,1.398     c2.673,3.178,5.093,7.502,8.274,13.736c2.038,4.07,2.8,5.85,3.821,7.886c1.655,3.562,2.038,3.943,3.307-0.129l1.016-3.435     c2.923-9.288,5.208-15.394,6.734-18.448l0.129-0.255c0.126-0.508,0.253-0.764,0.254-0.89c0.124-0.637,0.38-1.019,0.637-1.272     c1.395-1.527,3.178-0.893,3.814,0.506c0.128,0.256,0.128,0.509,0.255,0.892c0.127,0.636,0.254,1.399,0.381,2.29     c0.385,3.052,0.643,10.177,0.645,16.919l0.006,19.082c0.003,3.689,0.009,13.864,0.391,18.954l0.385,8.905     c0.129,3.436,0.384,6.614,0.64,9.668c0.128,1.018-0.634,1.909-1.652,1.909c-1.02,0.126-1.912-0.636-1.913-1.654     c-0.635-5.98-1.021-13.483-1.152-18.572c-0.127-2.545-0.128-5.98-0.128-10.178c-0.131-4.198-0.132-7.124-0.131-8.905     c-0.129-1.782-0.131-5.089-0.004-10.051c-0.002-4.96-0.005-8.013-0.006-9.157c0-3.309-0.128-6.869-0.258-10.56     c0-0.636-0.126-1.145-0.127-1.654c0.002-0.507-1.908,2.928-2.67,5.346c-0.762,2.416-1.652,5.089-2.667,8.27l-2.795,8.906     c-0.381,1.27-0.764,2.162-0.89,2.798c-0.128,0.382-0.255,0.764-0.253,0.892l-0.128,0.38c-0.127,0.126-0.127,0.126-0.254,0.255     c-0.511,0.637-1.781,1.273-2.672,0.382c-0.128-0.125-0.253-0.254-0.381-0.381c-0.126-0.127-0.126-0.127-0.252-0.252l-0.13-0.382     c-0.128-0.127-0.13-0.509-0.255-0.892l-1.145-2.925c-1.147-3.179-2.165-5.341-2.929-6.614l-2.929-5.721l-3.564-6.87     c-0.509-0.89-1.017-1.907-1.528-2.671c-1.399-2.162-1.526,0.765-1.526,0.765c0.128,2.671,0.513,9.795,0.515,11.448     c0.129,4.707,0.131,13.867,0.011,27.733c-0.126,12.086-0.12,21.117,0.137,27.351c0.126,1.018-0.636,1.909-1.652,1.909     c-1.02,0.129-1.909-0.634-1.911-1.652c-0.383-6.234-0.387-15.521-0.138-27.733c0.251-12.339,0.245-21.499-0.01-27.351     c-0.127-0.892-0.128-2.798-0.256-5.472c-0.256-5.47-0.513-8.903-0.513-11.448L205.074,206.565z"/>
			<path style="fill:#8E195B;" d="M267.856,205.47c-0.011,9.423-0.735,23.654-2.29,42.561c-0.306,4.192-0.538,9.782-0.45,16.789     c0.013,8.79,0.028,14.519-0.08,17.061c-0.041,1.018-0.837,1.747-1.855,1.703c-1.015-0.042-1.747-0.837-1.703-1.853     c0.122-2.924,0.101-8.526,0.073-16.932c-0.056-7.77,0.055-13.497,0.464-17.17c1.488-17.256,2.201-31.232,2.273-42.053     c-0.086-1.022,0.714-1.881,1.739-1.964C267.044,203.654,267.902,204.454,267.856,205.47z"/>
			<path style="fill:#8E195B;" d="M291.74,214.563c0.86,2.301,1.344,4.087,1.708,5.492c0.364,1.532,6.827,31.894,10.248,42.625     l0.124,0.256c0.605,2.298,2.701,7.288,2.73,5.251l0.071-5.594c0.045-3.309-0.007-9.035-0.149-17.305     c-0.293-16.286-0.019-27.479,1.656-38.651c0.143-1.015,1.039-1.64,2.055-1.498c1.019,0.14,1.64,1.039,1.499,2.053     c-1.668,10.794-1.816,21.858-1.523,38.017c0.022,8.142,0.071,13.995,0.025,17.429l-0.136,10.048     c-0.03,2.29-0.178,4.069-0.321,5.34c-0.142,0.888-0.277,1.522-0.412,2.029c-0.13,0.38-0.262,0.633-0.394,0.885     c-0.515,0.631-1.155,1.003-1.918,0.866c-0.381-0.005-0.761-0.138-1.139-0.397c-0.129-0.129-0.124-0.256-0.253-0.385     c-0.124-0.127-0.124-0.127-0.124-0.256l-0.241-0.64c-0.124-0.383-0.372-0.766-0.62-1.408l-1.336-4.723l-3.173-10.092     c-1.71-5.494-3.523-12.641-5.442-21.442c-2.763-12.377-4.321-19.524-4.803-21.437c-0.119-0.637-0.607-2.298-0.85-2.937     c-0.121-0.51-0.587,5.716-0.587,5.716c-0.312,4.321-0.477,7.118-0.495,8.518c-0.041,3.302-0.243,8.77-0.598,16.397     c-0.713,15.258-1.023,19.581-0.053,32.824c0.114,1.022-0.534,1.901-1.553,2.017c-1.019,0.113-1.904-0.534-2.015-1.555     c-0.58-4.332-0.764-9.424-0.687-15.274c0.073-5.723,0.286-12.207,0.762-19.199c0.349-6.992,0.543-12.076,0.584-15.256     c0.026-1.909,0.193-4.833,0.369-8.647c0.305-3.811,0.469-6.608,0.493-8.515c-0.398-8.148-0.258-9.292,0.77-9.915     c0.513-0.246,1.149-0.238,1.783-0.103c1.009,0.394,1.635,1.295,1.999,2.571L291.74,214.563z"/>
			<path style="fill:#8E195B;" d="M331.402,206.518c-0.11,0.144-0.11,0.144-0.094,0.271c0.019,0.125-0.162,0.664-0.126,1.816     c0.036,0.252-0.056,0.521-0.002,0.898c0.049,3.976,1.159,9.087,2.609,15.692c1.198,5.74,1.399,5.325,1.876,10.525     c0.233,2.537,1.152,2.663,2.913,2.412c1.512-0.214,2.897-0.408,3.888-0.678c0.987-0.269,1.977,0.361,2.246,1.35     c0.145,1.008-0.488,1.998-1.496,2.14c-1.241,0.305-2.626,0.502-4.39,0.751c-1.637,0.232-2.52,0.356-2.287,2.893     c1.117,12.434,2.385,22.276,3.87,29.13c0.431,2.122,0.913,3.726,1.328,4.823c0.036,0.252,0.198,0.487,0.217,0.612     c0.142,0.108,0.141-0.791,0.089-1.168c0.178,1.258,0.81,2.069,2.23,2.125c2.839,0.111,6.421-0.91,10.038-1.68     c1.87-0.395,3.257-0.592,4.138-0.715c1.008-0.142,1.871,0.505,2.013,1.513c0.142,1.008-0.505,1.871-1.513,2.013     c-1.637,0.232-6.856,1.486-8.476,1.843c-4.138,0.717-7.214,0.768-9.354,0.171c-1.456-0.309-2.174-1.748-2.785-3.333     c-0.576-1.33-1.075-3.059-1.541-5.433c-1.593-7.612-2.894-18.604-3.696-26.97c-0.464-4.176-0.693-7.612-0.978-10.526     c-0.533-5.577-0.57-4.93-1.947-11.029c-1.45-6.604-2.615-12.093-2.699-16.319c0.021-2.574,0.219-4.786,1.589-6.008     c0.81-0.627,2.303-0.968,3.942-1.203c0.881-0.123,2.895-0.408,6.063-0.729c6.19-0.75,9.482-1.088,9.986-1.159     c0.989-0.267,1.977,0.363,2.246,1.352c0.069,0.504,0.015,1.027-0.326,1.331c-0.63,0.988-1.549,0.861-2.682,1.023     c-1.637,0.23-4.659,0.659-8.833,1.123c-3.168,0.321-5.057,0.589-5.813,0.696c-0.881,0.126-1.512,0.214-1.872,0.395     L331.402,206.518z"/>
		</g>
		<g>
			<g>
				<g>
					<path style="fill:#FFFFFF;" d="M372.217,166.394c1.607-0.112,2.962-3.879,2.847-10.061c-0.042-3.084-0.544-6.726-1.526-10.683       c-1.031-3.937-2.571-8.177-4.706-12.377c-2.169-4.183-4.717-7.905-7.317-11.036c-2.644-3.103-5.312-5.634-7.794-7.464       c-4.958-3.694-8.808-4.789-9.836-3.548c-1.101,1.315,0.673,4.642,3.583,9.356c1.845,2.996,3.506,5.694,5.021,8.153       c1.803,3.072,3.728,6.438,5.606,10.053c1.843,3.633,3.458,7.158,4.904,10.414c1.116,2.664,2.341,5.586,3.701,8.831       C368.836,163.143,370.506,166.523,372.217,166.394z"/>
				</g>
			</g>
			<g>
				<g>
					<path style="fill:#FFFFFF;" d="M335.439,107.593c0.933-3.2-1.494-6.722-5.422-7.867c-3.927-1.145-7.868,0.52-8.801,3.72       c-0.933,3.199,1.494,6.722,5.422,7.867C330.566,112.458,334.506,110.792,335.439,107.593z"/>
				</g>
			</g>
		</g>
		<g>
			<g>
				<path style="fill:#FFFFFF;" d="M110.429,199.214c-0.027-1.637-3.246-3.151-8.601-3.758c-5.334-0.614-12.793-0.184-20.672,1.93      c-7.875,2.127-14.542,5.501-18.846,8.709c-4.326,3.213-6.35,6.139-5.552,7.568c0.823,1.479,4.24,1.244,9.126,0.182      c4.898-1.073,11.317-2.885,18.409-4.804c7.097-1.902,13.559-3.557,18.333-5.088C107.387,202.418,110.46,200.907,110.429,199.214      z"/>
			</g>
		</g>
		<g>
			<g>
				<path style="fill:#FFFFFF;" d="M134.133,197.23c-0.346-3.315-4.21-5.628-8.63-5.167s-7.723,3.523-7.377,6.838      c0.346,3.315,4.21,5.628,8.63,5.167S134.479,200.545,134.133,197.23z"/>
			</g>
		</g>
	</g>
</g>















</svg>
