<?xml version="1.0" encoding="UTF-8"?>
<!-- Generator: Adobe Illustrator 25.2.1, SVG Export Plug-In . SVG Version: 6.00 Build 0)  -->
<svg xmlns="http://www.w3.org/2000/svg" xmlns:xlink="http://www.w3.org/1999/xlink" version="1.1" id="Capa_1" x="0px" y="0px" viewBox="0 0 512 512" style="enable-background:new 0 0 512 512;" xml:space="preserve" width="512" height="512">
<g>
	<path style="fill:#FFFFFF;" d="M13.098,329.128l49.751-3.647c3.628-0.266,6.948-2.138,9.057-5.103   c2.107-2.966,2.781-6.718,1.839-10.232l-0.065-0.24c-0.072-0.265-0.151-0.527-0.24-0.787c0.423,0.189,0.854,0.366,1.29,0.531   c0.945,4.856,3.385,9.277,7.067,12.716c3.247,3.071,7.358,5.182,11.714,6.028c0.371,0.072,0.742,0.136,1.115,0.19   c1.868,4.313,4.982,7.971,9.055,10.551l0.381,0.239c2.421,1.488,5.114,2.534,7.845,3.063c1.726,0.336,3.466,0.471,5.184,0.417   c2.532,3.85,6.141,6.87,10.48,8.709c1.589,0.693,3.282,1.217,4.934,1.536c2.966,0.578,5.92,0.583,8.74,0.08   c2.95,3.277,6.85,5.775,11.432,7.023l0.406,0.107c0.456,0.117,0.914,0.219,1.347,0.303c4.092,0.797,8.155,0.487,11.87-0.727   c2.6,2.203,5.703,3.867,9.163,4.779c0.496,0.131,0.997,0.246,1.483,0.34c0.545,0.107,1.098,0.195,1.656,0.265   c4.72,0.622,9.413-0.171,13.584-2.248c2.361,1.451,5.015,2.512,7.885,3.072c1.792,0.349,3.629,0.488,5.463,0.415   c10.077-0.299,18.527-6.901,21.653-15.925c4.402-0.998,8.504-3.264,11.804-6.652l0.296-0.309c3.152-3.342,5.221-7.434,6.047-11.848   c1.435-0.559,2.815-1.256,4.119-2.084c0.458,0.497,0.94,0.977,1.447,1.441l0.306,0.276c0.35,0.311,0.707,0.609,1.066,0.891   c3.177,2.506,6.957,4.141,10.888,4.782c1.492,3.605,3.888,6.876,7.129,9.43c0.435,0.343,0.888,0.677,1.353,0.994   c3.872,2.683,8.532,4.14,13.097,4.201c1.438,2.384,3.317,4.543,5.611,6.351c1.434,1.131,3.005,2.096,4.673,2.871   c1.339,0.639,2.74,1.154,4.168,1.53c8.117,2.139,16.553-0.242,22.363-5.79c4.433,1.149,9.075,0.986,13.532-0.506l0.417-0.143   c4.418-1.562,8.086-4.308,10.771-7.76c4.537,0.482,9.133-0.362,13.249-2.472c4.306-2.155,7.669-5.456,9.904-9.353   c4.533-0.142,8.975-1.589,12.786-4.246l0.117-0.083c3.881-2.704,6.797-6.42,8.483-10.726c4.427-0.796,8.587-2.862,11.971-6.06   c0.231-0.216,0.457-0.434,0.676-0.654c3.387-3.404,5.523-7.589,6.406-11.98c4.43-1.637,8.37-4.586,11.181-8.609l0.109-0.156   c2.881-4.133,4.344-8.956,4.262-13.889c2.749-1.771,5.146-4.119,6.995-6.945l7.33,12.436c1.774,3.009,4.763,5.106,8.18,5.781   l41.041,7.997c4.251,0.828,8.625-0.659,11.489-3.91c2.864-3.25,3.792-7.775,2.436-11.89l-1.159-3.516   c1.411-0.432,2.76-1.084,4.009-1.945c3.189-2.204,5.328-5.517,6.017-9.315c0.955-5.22-0.927-10.255-4.632-13.501l1.448-1.63   c2.911-3.276,3.843-7.862,2.439-12.014c-1.405-4.152-4.898-7.214-9.229-8.072l-41.039-7.996c-3.428-0.668-6.977,0.166-9.75,2.288   l-9.594,7.341c-0.403-4.151-1.89-8.043-4.222-11.337c2.23-5.369,2.409-11.29,0.499-16.768l-0.069-0.201   c-2.019-5.792-6.161-10.494-11.494-13.24c-0.524-5.897-3.193-11.307-7.588-15.328c-0.047-0.043-0.095-0.086-0.142-0.128   c-0.02-0.019-0.044-0.035-0.064-0.053c-0.253-0.221-0.513-0.433-0.783-0.632c0.02,0.015,0.113,0.083,0.239,0.18   c-4.128-3.512-9.515-5.541-14.77-5.673c-2.893-4.86-7.526-8.706-13.34-10.498c-6.091-1.911-12.372-1.25-17.645,1.375   c-1.916-1.167-4.009-2.069-6.236-2.656c-3.357-0.885-6.797-1.019-10.284-0.39l-0.383,0.072c-5.702,1.105-10.535,4.2-13.915,8.426   c-4.616-0.539-9.316,0.3-13.529,2.444c-3.32-2.987-7.507-4.99-11.908-5.721c-1.554-3.762-4.073-7.179-7.483-9.868   c-2.648-2.087-5.635-3.579-8.883-4.435c-4.385-1.156-8.893-1.048-13.064,0.17c-4.255-3.491-9.891-5.485-15.604-5.315   c-5.999,0.125-11.613,2.464-15.912,6.613c-4.46-1.106-9.134-0.881-13.447,0.617c-2.71-2.438-5.973-4.226-9.594-5.211   c-0.011-0.004-0.095-0.026-0.142-0.038c-0.04-0.011-0.175-0.048-0.216-0.058c-5.655-1.49-11.394-0.778-16.298,1.603   c-1.992-1.252-4.184-2.217-6.522-2.833c-3.338-0.88-6.759-1.018-10.167-0.41c-6.074,1.041-11.399,4.329-15.045,9.282   c-5.722-0.417-11.398,1.26-16.076,4.846l-0.333,0.258c-4.564,3.59-7.443,8.552-8.515,13.856c-4.313,1.616-8.148,4.484-10.928,8.362   c-4.468-1.17-9.021-0.966-13.176,0.374c-3.096-2.629-6.889-4.518-11.184-5.361c-8.016-1.562-15.898,1.013-21.431,6.234   c-5.568-1.194-11.324-0.346-16.336,2.425c-5.427,2.937-9.249,7.708-11.106,13.138c-5.282,1.239-10.081,4.297-13.499,8.856   c-0.179,0.239-0.355,0.481-0.54,0.746c-3.385,4.832-4.821,10.627-4.101,16.439c-4.511,3.677-7.692,9.012-8.527,15.225   c-0.813,6.014,0.725,11.867,3.951,16.564c-1.821,4.212-2.434,8.971-1.542,13.724c-0.241-0.052-0.484-0.098-0.73-0.135   c-3.782-0.586-7.622,0.638-10.368,3.305L3.703,308.199c-3.682,3.575-4.735,9.072-2.633,13.754c1.539,3.428,4.528,5.883,8.026,6.805   C10.377,329.096,11.727,329.228,13.098,329.128z"/>
	<g>
		<polygon style="fill:#FF865D;" points="484.39,262.434 499.446,245.489 458.408,237.492 435.796,254.798 450.256,279.326     491.295,287.323 483.023,262.219   "/>
		<g>
			<path style="fill:#D36045;" d="M451.016,252.384c-2.608,2.526-4.137,4.176-4.015,4.307c0.126,0.136,1.879-1.271,4.642-3.615     c4.496-3.865,7.662-6.587,10.731-9.225c1.662-1.435,3.361-2.903,5.277-4.557l-1.563-0.305c-1.458,1.204-2.996,2.499-4.577,3.861     C457.317,246.465,453.623,249.858,451.016,252.384z"/>
			<path style="fill:#D36045;" d="M463.539,254.824c-2.608,2.526-4.137,4.176-4.015,4.307c0.126,0.136,1.879-1.271,4.642-3.615     c4.496-3.865,7.662-6.587,10.731-9.225c1.662-1.435,3.361-2.903,5.277-4.557l-1.563-0.305c-1.458,1.204-2.996,2.499-4.576,3.861     C469.84,248.906,466.147,252.298,463.539,254.824z"/>
			<path style="fill:#D36045;" d="M476.063,257.264c-2.608,2.526-4.137,4.176-4.015,4.307c0.126,0.136,1.879-1.271,4.642-3.615     c4.496-3.865,7.662-6.587,10.731-9.225c1.662-1.435,3.361-2.903,5.277-4.557l-1.563-0.305c-1.458,1.204-2.996,2.499-4.576,3.861     C482.364,251.346,478.67,254.739,476.063,257.264z"/>
			<path style="fill:#D36045;" d="M481.66,281.194c-2.532-4.926-4.965-9.312-6.809-12.438c-1.844-3.127-3.09-5-3.247-4.912     c-0.162,0.091,0.795,2.124,2.426,5.36c2.704,5.276,4.608,8.993,6.454,12.595c0.635,1.232,1.28,2.483,1.958,3.8l1.583,0.308     C483.284,284.396,482.495,282.82,481.66,281.194z"/>
			<path style="fill:#D36045;" d="M462.327,266.315c-1.844-3.127-3.09-5-3.247-4.912c-0.162,0.091,0.795,2.124,2.426,5.36     c2.704,5.276,4.608,8.993,6.454,12.595c0.635,1.232,1.28,2.483,1.958,3.8l1.583,0.308c-0.742-1.511-1.53-3.087-2.365-4.713     C466.604,273.828,464.171,269.442,462.327,266.315z"/>
			<path style="fill:#D36045;" d="M449.803,263.875c-1.844-3.127-3.09-5-3.246-4.913c-0.162,0.091,0.795,2.124,2.426,5.36     c2.704,5.276,4.608,8.993,6.454,12.595c0.635,1.232,1.28,2.483,1.958,3.8l1.583,0.308c-0.741-1.511-1.53-3.087-2.365-4.713     C454.08,271.387,451.648,267.001,449.803,263.875z"/>
		</g>
		<g>
			<path style="fill:#FF865D;" d="M320.071,197.541c-6.161,1.402-10.011,7.57-8.61,13.731c0.593,2.609,2.062,4.861,4.074,6.448     c1.493,1.177,3.284,1.988,5.241,2.306c4.598,0.75,9.191-1.362,11.614-5.341c0.119-0.194,0.265-0.451,0.37-0.653l-10.036-5.323     l10.037,5.322l-10.034-5.323l11.031-2.584C332.356,199.962,326.234,196.139,320.071,197.541z"/>
			<path style="fill:#FF865D;" d="M233.695,233.813c-0.013-0.169-0.029-0.339-0.048-0.509c-0.676-6.279-6.312-10.806-12.593-10.134     c-6.256,0.67-10.79,6.281-10.164,12.532c0.29,3.259,1.925,6.084,4.314,7.968c2.174,1.714,4.973,2.649,7.952,2.422     C229.457,245.611,234.176,240.114,233.695,233.813z"/>
			<path style="fill:#FF865D;" d="M234.418,213.7l0.028-0.151c0.991-5.304-1.85-10.438-6.565-12.543     c4.718,1.644,10.139,0.041,13.141-4.257l0.093-0.133c2.914-4.179,2.625-9.588-0.314-13.421c3.414,3.495,8.813,4.524,13.372,2.206     c4.864-2.388,7.281-7.776,6.107-12.844c1.452,4.751,5.908,8.171,11.126,8.09l0.366-0.009c3.903-0.135,7.289-2.213,9.258-5.27     c0.283,3.234,1.836,6.351,4.587,8.52c4.931,3.888,11.927,3.36,16.232-1.013c-2.205,4.051-1.839,9.201,1.342,12.912l0.141,0.165     c0.483,0.557,1.008,1.056,1.566,1.496c4.221,3.328,10.327,3.276,14.545-0.379c4.774-4.14,5.261-11.4,1.121-16.174     c-4.11-4.798-11.335-5.353-16.133-1.241c-0.216,0.185-0.415,0.381-0.613,0.578c2.865-5.141,1.673-11.74-3.097-15.5     c-5.29-4.171-12.96-3.264-17.131,2.026c-0.304,0.385-0.573,0.786-0.823,1.195c-0.642-5.899-5.702-10.393-11.728-10.185     c-6.318,0.102-11.359,5.306-11.258,11.624c0.014,0.83,0.114,1.636,0.295,2.413c-0.173-0.565-0.392-1.124-0.659-1.672     c-2.763-5.69-9.61-8.051-15.293-5.288c-0.157,0.076-0.314,0.155-0.469,0.236c-5.591,2.945-7.735,9.866-4.789,15.456     c0.308,0.584,0.658,1.13,1.046,1.637c-0.505-0.519-1.068-0.998-1.681-1.426c-5.184-3.614-12.357-2.284-15.972,2.9     c-3.619,5.182-2.351,12.333,2.827,15.932c0.607,0.424,1.24,0.781,1.891,1.072c-0.54-0.188-1.101-0.338-1.682-0.447     c-6.212-1.159-12.187,2.937-13.347,9.148l-0.028,0.151c-0.809,4.329,0.935,8.543,4.169,11.092c1.407,1.11,3.096,1.903,4.98,2.256     C227.283,224.007,233.258,219.911,234.418,213.7z M249.77,176.447l-0.041-0.078l-0.6-1.239L249.77,176.447z"/>
			<path style="fill:#FF865D;" d="M416.807,249.333c-5.894-2.28-12.52,0.649-14.799,6.543l-0.039,0.097     c-1.884,4.807-0.291,10.119,3.564,13.159c0.863,0.681,1.84,1.247,2.915,1.669c5.885,2.306,12.523-0.595,14.828-6.479l0.073-0.189     C425.629,258.239,422.705,251.618,416.807,249.333z"/>
			<path style="fill:#FF865D;" d="M408.302,271.011c-5.183-3.614-12.316-2.343-15.93,2.84l-0.082,0.119     c-3.489,4.995-2.437,11.806,2.287,15.531c0.174,0.137,0.355,0.272,0.54,0.401c5.181,3.619,12.314,2.354,15.933-2.827l0.094-0.134     C414.758,281.758,413.515,274.631,408.302,271.011z"/>
			<path style="fill:#FF865D;" d="M348.401,185.199c1.171,6.188,7.156,10.263,13.353,9.119l-1.994-11.267l2.035,11.259     c5.043-0.911,8.712-4.997,9.319-9.827c0.191,4.668,3.248,8.928,7.958,10.433l0.295,0.091c5.024,1.529,10.286-0.567,12.978-4.787     c-2.411,4.509-1.562,10.245,2.39,13.846c0.01,0.009,0.083,0.075,0.109,0.098c3.681,3.358,8.984,3.866,13.146,1.62     c-3.588,2.96-5.143,7.947-3.522,12.596l0.051,0.145c1.73,4.967,6.548,7.988,11.559,7.655c-5.074,0.795-9.147,4.958-9.617,10.303     l-0.02,0.244c-0.316,3.954,1.418,7.586,4.311,9.867c1.716,1.353,3.842,2.231,6.186,2.419c6.299,0.503,11.816-4.227,12.319-10.527     c0.554-6.295-4.101-11.847-10.397-12.4c-0.601-0.053-1.195-0.058-1.778-0.019c0.671-0.105,1.341-0.272,2.005-0.503     c5.967-2.08,9.119-8.603,7.039-14.57l-0.051-0.145c-2.078-5.967-8.6-9.117-14.569-7.04c-0.589,0.205-1.151,0.454-1.683,0.741     c0.411-0.339,0.803-0.71,1.173-1.115c4.266-4.662,3.945-11.9-0.717-16.166c-0.006-0.005-0.125-0.113-0.132-0.119     c-4.648-4.255-11.908-3.921-16.164,0.752c-0.452,0.494-0.851,1.019-1.199,1.564c0.347-0.65,0.637-1.344,0.859-2.076     c1.842-6.046-1.574-12.436-7.616-14.276c-6.02-1.921-12.457,1.402-14.379,7.422c-0.219,0.684-0.369,1.375-0.456,2.063     c-0.022-0.524-0.079-1.053-0.174-1.583c-1.126-6.219-7.078-10.348-13.296-9.224l-0.291,0.053     C351.25,173.044,347.23,179.009,348.401,185.199z"/>
			<path style="fill:#FF865D;" d="M328.839,198.401c0.674,0.976,1.47,1.815,2.353,2.511c3.826,3.016,9.285,3.354,13.508,0.436     l-6.264-9.575l6.284,9.562c5.28-3.47,6.749-10.564,3.279-15.846c-3.473-5.283-10.565-6.749-15.847-3.279l-0.348,0.235     C326.605,186.037,325.247,193.202,328.839,198.401z"/>
			<path style="fill:#FF865D;" d="M259.749,289.82l-0.247-0.298c-4.083-4.853-11.317-5.482-16.148-1.41     c-4.834,4.071-5.475,11.259-1.404,16.091c0.55,0.681,1.162,1.281,1.822,1.802c4.102,3.234,10.035,3.328,14.269-0.094     C262.956,301.94,263.721,294.735,259.749,289.82z"/>
			<path style="fill:#FF865D;" d="M238.3,253.449l-0.099-0.277c-2.152-5.941-8.711-9.006-14.653-6.854     c-5.941,2.152-9.01,8.72-6.857,14.661c0.744,2.137,2.056,3.91,3.711,5.215c2.966,2.338,7.027,3.16,10.859,1.826     C237.228,265.939,240.379,259.416,238.3,253.449z"/>
			<path style="fill:#FF865D;" d="M378.19,306.165c-3.612-5.181-10.746-6.456-15.93-2.841l-0.126,0.088     c-5.184,3.615-6.457,10.747-2.841,15.931c0.661,0.948,1.439,1.765,2.303,2.446c3.855,3.039,9.392,3.349,13.627,0.396l0.126-0.088     C380.532,318.481,381.805,311.349,378.19,306.165z"/>
			<path style="fill:#FF865D;" d="M359.196,319.575c-2.798-5.669-9.66-7.992-15.326-5.193l-0.343,0.175     c-5.609,2.912-7.83,9.837-4.917,15.445c0.776,1.496,1.836,2.751,3.078,3.729c3.411,2.69,8.203,3.305,12.315,1.17     C359.669,332.103,361.993,325.241,359.196,319.575z"/>
			<path style="fill:#FF865D;" d="M394.771,289.875c-4.447-4.421-11.605-4.443-16.073-0.071c-4.565,4.343-4.759,11.563-0.427,16.147     c0.391,0.414,0.807,0.793,1.242,1.136c4.384,3.456,10.754,3.27,14.932-0.679c0.123-0.115,0.243-0.231,0.362-0.351     C399.265,301.577,399.249,294.333,394.771,289.875z"/>
			<path style="fill:#FF865D;" d="M338.441,329.9c-2.107-5.959-8.612-9.091-14.569-6.986l3.602,10.86l-3.633-10.85     c-5.993,2.006-9.224,8.491-7.217,14.483c0.734,2.192,2.067,4.015,3.757,5.347c2.928,2.309,6.927,3.143,10.727,1.871l0.326-0.112     C337.392,342.406,340.548,335.858,338.441,329.9z"/>
			<path style="fill:#FF865D;" d="M247.242,272.232l-9.888,5.759l9.868-5.792c-3.201-5.45-10.21-7.273-15.659-4.077     c-5.45,3.199-7.275,10.21-4.076,15.66l0.157,0.265c0.731,1.207,1.647,2.228,2.692,3.052c3.616,2.851,8.759,3.317,12.952,0.809     C248.69,284.675,250.447,277.652,247.242,272.232z"/>
			<path style="fill:#FF865D;" d="M274.539,305.201l-7.747,8.421l7.724-8.442c-4.675-4.275-11.899-3.944-16.165,0.718     c-4.266,4.662-3.945,11.9,0.717,16.166l0.253,0.228c0.167,0.148,0.336,0.289,0.509,0.425c4.729,3.729,11.624,3.179,15.666-1.384     C279.685,316.6,279.269,309.389,274.539,305.201z"/>
			<path style="fill:#FF865D;" d="M310.19,329.288l-0.353-0.166c-5.746-2.634-12.575-0.13-15.208,5.615     c-2.246,4.899-0.771,10.545,3.275,13.735c0.698,0.551,1.474,1.028,2.32,1.415c5.689,2.752,12.531,0.371,15.284-5.317     C318.259,338.882,315.877,332.039,310.19,329.288z"/>
			<path style="fill:#FF865D;" d="M291.668,318.692l-0.281-0.193c-5.236-3.538-12.362-2.171-15.901,3.065     c-3.378,4.999-2.29,11.698,2.373,15.375c0.221,0.174,0.451,0.342,0.687,0.502c5.178,3.623,12.311,2.363,15.934-2.814     C298.106,329.45,296.827,322.322,291.668,318.692z"/>
		</g>
		<path style="fill:#E51F7C;" d="M416.879,244.992c4.678-26.209-4.18-46.708-28.393-58.635    c-22.393-11.031-54.138,0.607-65.868,22.378c-5.63-24.08-33.228-43.613-57.726-38.82c-26.489,5.182-40.398,22.653-42.735,49.173    c-4.456,50.569,40.114,100.398,83.053,120.502C351.91,331.411,407.959,294.968,416.879,244.992z"/>
		<g>
			<path style="fill:#FFA25F;" d="M153.057,209.766c-4.837,4.066-5.439,11.312-1.374,16.149c1.721,2.048,4.058,3.379,6.573,3.87     c1.866,0.364,3.83,0.265,5.716-0.347c4.431-1.437,7.549-5.416,7.883-10.063c0.017-0.227,0.029-0.523,0.031-0.75l-11.36-0.142     l11.36,0.139l-11.358-0.142l8.626-7.345C165.088,206.297,157.896,205.699,153.057,209.766z"/>
			<path style="fill:#FFA25F;" d="M92.849,281.539c-0.089-0.144-0.181-0.288-0.276-0.431c-3.474-5.274-10.557-6.721-15.834-3.249     c-5.256,3.458-6.721,10.521-3.304,15.794c1.749,2.765,4.495,4.529,7.482,5.111c2.717,0.53,5.634,0.08,8.179-1.484     C94.478,293.969,96.159,286.922,92.849,281.539z"/>
			<path style="fill:#FFA25F;" d="M84.289,263.323l-0.044-0.148c-1.546-5.17-6.421-8.434-11.577-8.149     c4.947-0.696,9.034-4.603,9.737-9.798l0.022-0.161c0.679-5.05-2.053-9.727-6.42-11.79c4.635,1.546,9.906-0.01,12.9-4.157     c3.232-4.349,2.916-10.246-0.446-14.215c3.465,3.56,8.992,4.563,13.594,2.103l0.321-0.176c3.409-1.906,5.469-5.303,5.821-8.922     c1.732,2.747,4.539,4.807,7.977,5.477c6.163,1.201,12.142-2.47,13.97-8.328c-0.107,4.611,2.575,9.023,7.101,10.867l0.201,0.082     c0.684,0.274,1.379,0.477,2.077,0.613c5.276,1.028,10.682-1.812,12.76-6.992c2.351-5.865-0.538-12.544-6.404-14.895     c-5.849-2.386-12.528,0.427-14.913,6.279c-0.107,0.263-0.195,0.529-0.281,0.794c0.196-5.882-3.884-11.204-9.846-12.366     c-6.612-1.289-13.018,3.027-14.306,9.64c-0.094,0.482-0.149,0.961-0.185,1.439c-3.27-4.951-9.825-6.632-15.089-3.69     c-5.572,2.982-7.673,9.915-4.692,15.486c0.392,0.731,0.85,1.403,1.366,2.01c-0.412-0.423-0.863-0.82-1.351-1.185     c-5.06-3.795-12.229-2.762-16.018,2.295c-0.105,0.14-0.208,0.281-0.309,0.425c-3.624,5.177-2.364,12.312,2.813,15.935     c0.541,0.379,1.102,0.703,1.68,0.977c-0.687-0.231-1.407-0.399-2.148-0.499c-6.263-0.842-12.033,3.623-12.875,9.886     c-0.847,6.263,3.552,12.042,9.803,12.873c0.734,0.1,1.46,0.127,2.172,0.088c-0.567,0.08-1.134,0.203-1.7,0.372     c-6.054,1.811-9.493,8.187-7.682,14.241l0.044,0.147c1.262,4.22,4.74,7.168,8.782,7.956c1.759,0.343,3.624,0.276,5.46-0.273     C82.66,275.753,86.099,269.377,84.289,263.323z M80.895,223.175l-0.072-0.051l-1.1-0.827L80.895,223.175z"/>
			<path style="fill:#FFA25F;" d="M262.771,211.558c-6.284,0.669-10.835,6.305-10.165,12.589l0.01,0.104     c0.525,5.136,4.371,9.131,9.19,10.07c1.079,0.21,2.206,0.267,3.356,0.15c6.288-0.642,10.863-6.259,10.221-12.545l-0.022-0.202     C274.69,215.44,269.06,210.891,262.771,211.558z"/>
			<path style="fill:#FFA25F;" d="M265.126,234.725c-6.263-0.842-12.023,3.552-12.865,9.814l-0.019,0.143     c-0.817,6.038,3.235,11.613,9.14,12.764c0.218,0.043,0.44,0.08,0.663,0.11c6.263,0.848,12.027-3.541,12.874-9.804l0.022-0.162     C275.784,241.327,271.418,235.558,265.126,234.725z"/>
			<path style="fill:#FFA25F;" d="M172.601,185.829c3.873,4.967,11.059,5.851,16.046,1.999l-6.927-9.106l6.962,9.08     c4.067-3.118,5.46-8.43,3.79-13.002c2.306,4.063,6.973,6.453,11.849,5.635l0.303-0.054c5.166-0.939,8.887-5.21,9.35-10.194     c-0.081,5.112,3.298,9.824,8.46,11.218c0.013,0.003,0.108,0.029,0.142,0.037c4.81,1.301,9.758-0.673,12.43-4.575     c-1.836,4.273-0.937,9.419,2.631,12.811l0.111,0.106c3.811,3.625,9.477,4.107,13.781,1.518     c-4.148,3.028-5.866,8.593-3.837,13.562l0.094,0.226c1.529,3.661,4.732,6.096,8.348,6.801c2.145,0.418,4.437,0.226,6.608-0.68     c5.831-2.435,8.572-9.165,6.137-14.997c-2.387-5.851-9.067-8.658-14.918-6.269c-0.559,0.228-1.089,0.495-1.59,0.797     c0.549-0.4,1.068-0.855,1.553-1.365c4.355-4.58,4.172-11.822-0.407-16.177l-0.111-0.106c-4.578-4.355-11.819-4.172-16.176,0.406     c-0.43,0.452-0.816,0.93-1.157,1.429c0.211-0.49,0.389-0.999,0.533-1.528c1.66-6.097-1.937-12.386-8.034-14.046     c-0.007-0.001-0.163-0.043-0.172-0.046c-6.08-1.657-12.383,1.962-14.029,8.064c-0.176,0.646-0.29,1.295-0.351,1.94     c0.012-0.737-0.049-1.486-0.186-2.24c-1.129-6.219-7.09-10.338-13.304-9.209c-6.232,1.047-10.435,6.946-9.389,13.179     c0.119,0.708,0.301,1.391,0.539,2.042c-0.259-0.456-0.552-0.9-0.88-1.328c-3.847-5.015-11.028-5.963-16.043-2.118l-0.234,0.181     C169.572,173.717,168.727,180.86,172.601,185.829z"/>
			<path style="fill:#FFA25F;" d="M161.247,206.518c1.046,0.559,2.137,0.941,3.242,1.156c4.782,0.932,9.791-1.266,12.211-5.793     l-9.951-5.648l9.963,5.628c3.107-5.502,1.168-12.482-4.334-15.59c-5.505-3.109-12.482-1.167-15.591,4.335l-0.202,0.368     C153.603,196.547,155.674,203.539,161.247,206.518z"/>
			<path style="fill:#FFA25F;" d="M141.641,319.419l-0.356-0.152c-5.851-2.447-12.571,0.303-15.004,6.134     c-2.436,5.831,0.283,12.516,6.114,14.951c0.801,0.354,1.62,0.608,2.444,0.768c5.127,0.999,10.445-1.633,12.645-6.612     C150.038,328.728,147.422,321.972,141.641,319.419z"/>
			<path style="fill:#FFA25F;" d="M105.927,296.892l-0.214-0.201c-4.632-4.298-11.866-4.022-16.166,0.61     c-4.298,4.632-4.022,11.876,0.611,16.174c1.639,1.559,3.618,2.536,5.686,2.939c3.707,0.722,7.694-0.406,10.491-3.345     C110.689,308.489,110.506,301.246,105.927,296.892z"/>
			<path style="fill:#FFA25F;" d="M254.435,279.76c-5.582-2.955-12.509-0.824-15.465,4.762l-0.072,0.136     c-2.956,5.586-0.824,12.51,4.763,15.465c1.021,0.54,2.087,0.911,3.166,1.121c4.818,0.939,9.883-1.319,12.298-5.883l0.072-0.136     C262.153,289.64,260.022,282.716,254.435,279.76z"/>
			<path style="fill:#FFA25F;" d="M243.682,300.376c-5.082-3.76-12.246-2.687-16.004,2.395l-0.225,0.312     c-3.655,5.155-2.462,12.329,2.695,15.983c1.375,0.975,2.891,1.605,4.443,1.908c4.264,0.831,8.806-0.814,11.485-4.594     C249.835,311.299,248.762,304.133,243.682,300.376z"/>
			<path style="fill:#FFA25F;" d="M261.726,257.69c-5.977-1.896-12.352,1.36-14.324,7.29c-2.072,5.95,1.059,12.459,7.008,14.553     c0.537,0.189,1.08,0.336,1.625,0.442c5.479,1.068,11.058-2.013,12.967-7.436c0.057-0.158,0.11-0.316,0.161-0.478     C271.077,266.038,267.748,259.604,261.726,257.69z"/>
			<path style="fill:#FFA25F;" d="M229.952,319.052c-4.6-4.334-11.817-4.143-16.151,0.454l8.172,8.008l-8.195-7.986     c-4.411,4.526-4.317,11.77,0.209,16.18c1.656,1.614,3.675,2.624,5.787,3.036c3.66,0.713,7.597-0.374,10.394-3.245l0.238-0.249     C234.74,330.653,234.55,323.386,229.952,319.052z"/>
			<path style="fill:#FFA25F;" d="M122.472,309.502l-6.157,9.645l6.124-9.665c-5.34-3.382-12.406-1.796-15.79,3.54     c-3.382,5.338-1.797,12.408,3.541,15.79l0.261,0.164c1.202,0.739,2.484,1.228,3.79,1.482c4.52,0.881,9.306-1.059,11.887-5.207     C129.454,319.904,127.802,312.855,122.472,309.502z"/>
			<path style="fill:#FFA25F;" d="M161.829,326.328l-3.036,11.032l3.006-11.04c-6.113-1.663-12.385,1.938-14.046,8.035     c-1.66,6.097,1.937,12.386,8.034,14.046l0.329,0.087c0.216,0.055,0.431,0.103,0.647,0.145c5.911,1.152,11.791-2.492,13.297-8.399     C171.621,334.11,167.952,327.888,161.829,326.328z"/>
			<path style="fill:#FFA25F;" d="M204.551,331.435l-0.39,0.014c-6.314,0.287-11.241,5.638-10.953,11.951     c0.244,5.384,4.139,9.73,9.196,10.715c0.873,0.17,1.781,0.24,2.711,0.197c6.317-0.156,11.312-5.403,11.157-11.72     C216.115,336.274,210.867,331.279,204.551,331.435z"/>
			<path style="fill:#FFA25F;" d="M183.233,330.487l-0.338-0.043c-6.274-0.751-11.986,3.725-12.736,10.001     c-0.717,5.99,3.317,11.45,9.144,12.585c0.276,0.054,0.558,0.098,0.841,0.132c6.262,0.853,12.028-3.532,12.881-9.793     C193.88,337.107,189.482,331.355,183.233,330.487z"/>
		</g>
		<path style="fill:#FF237D;" d="M260.848,207.665c-7.832-25.445-25.087-39.62-52.075-39.147    c-24.959,0.437-47.861,25.31-48.33,50.035c-16.024-18.835-49.501-23.577-69.091-8.107c-21.183,16.728-25.557,38.626-15.501,63.277    c19.175,47.005,81.606,70.919,128.984,69.149C242.62,314.233,275.783,256.184,260.848,207.665z"/>
		<g>
			<path style="fill:#FFEBFF;" d="M124.939,293.789c-0.599-0.847-0.917-1.68-0.956-2.5c-0.025-1.431-0.135-2.649-0.33-3.653     c-0.247-1.431-0.403-3.053-0.467-4.863c-0.038-1.484-0.154-2.618-0.35-3.398c-0.026-0.104-0.338-2.24-0.935-6.407     c-0.584-3.893-1.74-9.747-3.468-17.561l-2.669-12.032l1.388-0.761c0.767-0.468,1.765-0.578,2.988-0.331l1.659,0.333l1.559,7.911     c1.52,7.202,2.572,12.085,3.157,14.65c2.156,9.089,3.624,16.304,4.403,21.642c0.064,0.482,0.198,0.795,0.4,0.938     c0.201,0.145,0.478,0.146,0.83,0c1.524-0.546,5.464-2.053,11.819-4.524c0.703-0.286,1.331-0.428,1.885-0.429     c0.553,0,0.931,0.128,1.133,0.38c0.201,0.255,0.25,0.616,0.146,1.085c-0.262,0.729-2.231,2.037-5.911,3.923     c-3.679,1.886-6.718,3.128-9.113,3.726c-1.146,0.286-1.66,0.663-1.543,1.133c0.129,0.519-0.639,0.988-2.306,1.404     c-1.094,0.273-1.816,0.37-2.168,0.292C125.74,294.667,125.355,294.35,124.939,293.789z"/>
			<path style="fill:#FFEBFF;" d="M149.854,277.032c-1.328-0.001-2.585-0.268-3.769-0.803c-1.185-0.534-2.753-1.499-4.705-2.893     c-4.23-2.982-6.135-8.732-5.715-17.249c0.119-2.629,0.843-4.94,2.172-6.933c1.589-2.498,3.026-4.17,4.31-5.017     c1.282-0.845,3.538-1.671,6.768-2.477c2.813-0.702,4.56-1.067,5.245-1.101c0.684-0.032,1.78,0.207,3.291,0.715     c1.327,0.443,2.369,0.958,3.124,1.545c0.755,0.587,1.867,1.72,3.338,3.398l3.455,3.871l1.013,6.386     c0.271,2.201,0.382,3.751,0.33,4.649c-0.053,0.899-0.341,2.076-0.861,3.534c-1.344,3.488-2.405,5.331-3.187,5.526     c-0.261,0.065-0.848,0.708-1.759,1.932c-0.834,1.093-1.453,1.607-1.856,1.542c-0.117-0.025-0.541,0.274-1.27,0.898     c-0.729,0.625-2.179,1.194-4.347,1.707C153.263,276.777,151.403,277.033,149.854,277.032z M159.291,270.611     c1.472-0.976,2.65-2.571,3.538-4.784c0.886-2.213,1.402-4.803,1.547-7.773c0.157-2.916-0.427-5.481-1.754-7.695     c-0.989-1.746-1.718-2.56-2.186-2.443c-0.418,0.104-0.899-0.163-1.446-0.802c-1.236-1.627-3.117-2.513-5.643-2.659     c-1.602-0.208-3.477,0.37-5.625,1.736c-1.785,1.054-2.854,2.095-3.205,3.123c-0.327,0.911-0.685,1.693-1.076,2.343     c-1.369,2.72-0.81,7.285,1.674,13.692c0.885,2.214,1.971,3.797,3.26,4.747c1.21,0.86,2.485,1.373,3.826,1.535     c1.34,0.163,3.111,0.109,5.313-0.163C158.189,271.301,158.782,271.016,159.291,270.611z"/>
			<path style="fill:#FFEBFF;" d="M189.956,278.233c-0.118-0.249-0.356-0.646-0.712-1.192c-0.358-0.547-0.59-0.918-0.693-1.114     c-0.091-0.143-0.335-0.566-0.732-1.27c-0.397-0.703-0.667-1.23-0.81-1.582c-0.508-1.146-1.106-2.326-1.795-3.537     c-0.195-0.337-0.995-1.661-2.4-3.966c-2.563-4.284-4.262-6.988-5.094-8.108c-1.094-1.497-1.686-2.318-1.776-2.461     c-0.092-0.144-0.723-1.01-1.894-2.599c-0.925-1.264-1.568-2.292-1.932-3.087c-2.173-4.492-4.268-7.899-6.284-10.217     c-1.197-1.25-1.972-2.58-2.322-3.985c-0.234-0.938-0.29-1.547-0.165-1.826c0.124-0.281,0.53-0.59,1.221-0.928     c1.641-0.741,2.584-1.169,2.833-1.288c0.95-0.403,1.687-0.448,2.207-0.136c1.172,0.705,2.694,3.146,4.567,7.327     c0.468,1.212,1.151,2.286,2.049,3.223c0.924,1.043,1.665,2.241,2.225,3.595c1.092,2.605,2.698,5.718,4.82,9.338     c0.182,0.288,0.949,1.701,2.303,4.24c1.052,2.006,1.755,3.159,2.106,3.458c0.222,0.222,0.381,0.361,0.479,0.421     c0.097,0.058,0.185,0.022,0.264-0.107c0.078-0.131,0.163-0.345,0.254-0.646c0.038-0.063,0.052-0.123,0.039-0.176     c0.144-0.754,0.13-1.248-0.039-1.484c-0.144-0.13-0.292-1.837-0.447-5.118c-0.168-3.112-0.414-5.318-0.739-6.621     c-0.272-1.094-0.305-3.438-0.094-7.031c0.196-3.424,0.185-5.58-0.036-6.465c-0.234-0.938-0.093-2.535,0.422-4.794     c0.515-2.258,1.041-3.649,1.575-4.17c1.432-1.353,2.343-1.136,2.734,0.646c0.181,0.951,0.174,2.253-0.022,3.907     c-0.353,2.135-0.457,3.822-0.314,5.059c0.09,1.028,0.128,3.508,0.113,7.441c0.024,4.089,0.183,10.828,0.478,20.214     c-0.013,0.169-0.069,0.391-0.166,0.665c-0.098,0.273-0.134,0.461-0.107,0.566c0.012,1.602-0.054,3.445-0.199,5.527     c-0.065,0.626-0.049,1.299,0.048,2.021c0.097,0.724,0.208,1.388,0.331,1.993c0.123,0.606,0.178,0.993,0.166,1.162     c0.051,2.421-0.295,3.808-1.037,4.159C190.925,279.456,190.449,279.104,189.956,278.233z"/>
			<path style="fill:#FFEBFF;" d="M204.537,263.97c-0.677-0.494-1.161-1.163-1.454-2.002c-0.292-0.84-0.809-3.076-1.549-6.709     l-1.5-7.676l-1.445-0.138c-0.99-0.195-1.595-0.736-1.815-1.622c-0.13-0.521,0.039-0.841,0.508-0.958     c0.677-0.169,1.073-0.239,1.191-0.213c0.326-0.026,0.427-0.618,0.304-1.778c-0.123-1.158-0.413-2.76-0.867-4.805     c-0.468-2.096-0.6-4.069-0.397-5.918c0.203-1.847,0.668-2.864,1.398-3.046c0.676-0.169,1.035-0.396,1.074-0.684     c0.287-0.624,2.897-1.247,7.833-1.87c0.26-0.065,1.074-0.24,2.442-0.526c1.367-0.285,2.421-0.493,3.164-0.623     c2.188-0.324,3.741-0.311,4.659,0.041s1.285,1.05,1.102,2.09c-0.156,0.704-0.374,1.16-0.654,1.368     c-0.28,0.208-1.118,0.402-2.51,0.584c-1.224,0.195-2.487,0.234-3.789,0.115c-1.524-0.118-3.223,0.057-5.098,0.524l-3.907,0.643     l0.916,3.009c0.091,0.364,0.211,1.234,0.361,2.607c0.148,1.374,0.274,2.381,0.379,3.018l0.604,3.418l2.793-1.111     c5.065-1.873,7.794-2.36,8.184-1.461c0.195,0.562,0.006,0.912-0.566,1.054c-0.678,0.169-1.114,0.416-1.309,0.741     c-0.235,0.391-1.335,1.026-3.302,1.902c-1.967,0.88-3.282,1.318-3.946,1.317c-0.561-0.026-0.827,0.345-0.802,1.113     c-0.014,0.833,0.408,3.745,1.266,8.731c0.181,1.173,0.399,2.156,0.652,2.949c0.253,0.796,0.497,1.384,0.731,1.769     c0.233,0.385,0.43,0.557,0.586,0.518c1.354-0.338,3.464-1.362,6.33-3.074c2.865-1.709,4.781-2.962,5.745-3.757     c0.872-0.714,1.471-1.141,1.797-1.278c0.326-0.135,0.885-0.165,1.68-0.086c2.005,0.275,2.142,1.264,0.409,2.969     c-0.313,0.299-0.651,0.605-1.016,0.917c-3.595,3.112-7.392,5.193-11.39,6.245c-2.174,0.598-4.083,1.268-5.724,2.009     c-0.742,0.351-1.286,0.501-1.631,0.448C205.628,264.681,205.149,264.427,204.537,263.97z"/>
		</g>
		<g>
			<path style="fill:#FFA25F;" d="M279.52,270.288c-0.463-0.254-0.648-0.621-0.553-1.098c0.093-0.477,0.424-0.879,0.991-1.208     c2.954-1.797,5.626-4.722,8.019-8.775c2.074-3.487,2.842-5.55,2.304-6.189c-0.54-0.637-0.795-1.118-0.768-1.438     c0.032-0.374-0.454-1.304-1.46-2.791c-0.913-1.316-1.979-3.347-3.201-6.091c-0.65-1.24-1.719-2.92-3.208-5.041     c-1.344-1.945-2.168-3.362-2.468-4.25c-0.391-1.111-0.683-1.809-0.873-2.095c-0.329-0.566-0.4-1.327-0.21-2.281     c0.12-0.798,0.416-1.258,0.885-1.38c0.468-0.122,1.496-0.007,3.083,0.343c0.262,0.076,0.54,0.14,0.832,0.191     c0.291,0.053,0.544,0.087,0.759,0.105c0.213,0.018,0.413,0.049,0.598,0.09c0.185,0.044,0.343,0.083,0.475,0.122     c0.13,0.039,0.263,0.076,0.395,0.114c0.13,0.039,0.222,0.073,0.274,0.104c0.05,0.032,0.101,0.077,0.15,0.134     c0.048,0.058,0.083,0.115,0.106,0.17c0.021,0.056,0.029,0.138,0.02,0.244c-0.041,0.481,0.169,1.174,0.632,2.074     c0.048,0.059,1.032,2.431,2.952,7.121c0.404,0.951,0.811,1.713,1.22,2.286c0.409,0.574,0.705,1.058,0.887,1.449     c0.995,2.24,1.557,3.554,1.687,3.941c0.544,1.824,0.871,2.741,0.978,2.75c0.428,0.036,0.951-0.579,1.572-1.847     c0.619-1.267,1.059-2.482,1.319-3.646c0.198-1.061,0.384-1.665,0.558-1.812c0.473-0.498,1.296-2.583,2.47-6.256     c1.173-3.671,1.804-6.016,1.891-7.033c0.027-0.321,0.471-0.471,1.332-0.453c0.859,0.02,1.551,0.132,2.073,0.338     c1.938,0.649,2.472,1.341,1.602,2.076c-0.407,0.343-0.637,0.834-0.691,1.476c-0.068,0.803-0.986,2.719-2.75,5.748     c-0.131,0.259-0.255,0.45-0.373,0.574c-0.119,0.125-0.208,0.212-0.265,0.26c-0.059,0.05-0.12,0.139-0.185,0.267     c-0.065,0.13-0.177,0.336-0.335,0.619c-0.159,0.283-0.341,0.685-0.547,1.206c-1.615,3.796-2.549,5.899-2.798,6.309     c-0.131,0.259-0.277,0.718-0.441,1.376c-0.164,0.661-0.33,1.036-0.5,1.13c-0.287,0.191-0.828,1.021-1.625,2.488     c-0.8,1.468-1.254,2.225-1.365,2.269c-0.228,0.143-0.437,0.395-0.629,0.754c-0.192,0.361-0.632,1.254-1.318,2.677     c-0.687,1.424-1.479,2.986-2.377,4.688c-0.64,1.186-1.236,2.32-1.785,3.405c-0.55,1.085-0.92,1.794-1.11,2.128     c-0.189,0.334-0.411,0.706-0.66,1.115c-0.251,0.411-0.452,0.704-0.6,0.879c-0.15,0.177-0.431,0.462-0.84,0.858     C284.296,271.772,282.255,271.707,279.52,270.288z"/>
			<path style="fill:#FFA25F;" d="M312.585,267.842c-1.256-0.43-2.359-1.089-3.307-1.978c-0.948-0.888-2.122-2.308-3.518-4.258     c-3.04-4.19-2.983-10.247,0.168-18.17c0.962-2.451,2.395-4.404,4.296-5.859c2.312-1.851,4.212-2.968,5.7-3.355     c1.488-0.385,3.889-0.437,7.206-0.156c2.888,0.245,4.661,0.464,5.319,0.654c0.657,0.191,1.618,0.771,2.883,1.74     c1.113,0.85,1.932,1.673,2.458,2.471c0.524,0.8,1.211,2.232,2.06,4.297l2.019,4.778l-1.106,6.372     c-0.455,2.171-0.852,3.673-1.191,4.505c-0.341,0.834-0.993,1.856-1.958,3.067c-2.399,2.868-3.999,4.268-4.802,4.199     c-0.268-0.023-1.031,0.398-2.289,1.261c-1.143,0.765-1.895,1.052-2.255,0.859c-0.103-0.062-0.601,0.084-1.492,0.439     c-0.893,0.356-2.448,0.426-4.665,0.21C315.893,268.702,314.051,268.344,312.585,267.842z M323.591,264.816     c1.708-0.447,3.339-1.575,4.894-3.383c1.554-1.808,2.879-4.092,3.977-6.855c1.091-2.708,1.367-5.325,0.828-7.85     c-0.372-1.972-0.798-2.978-1.28-3.019c-0.429-0.036-0.798-0.444-1.108-1.226c-0.643-1.939-2.137-3.386-4.48-4.34     c-1.449-0.714-3.41-0.774-5.885-0.176c-2.029,0.421-3.377,1.06-4.042,1.919c-0.603,0.757-1.196,1.381-1.775,1.87     c-2.175,2.133-3.123,6.632-2.843,13.498c0.121,2.382,0.638,4.23,1.55,5.547c0.867,1.205,1.909,2.101,3.125,2.69     c1.215,0.587,2.909,1.109,5.08,1.563C322.326,265.113,322.979,265.034,323.591,264.816z"/>
			<path style="fill:#FFA25F;" d="M347.292,272.728c-0.445-0.468-1.405-1.223-2.879-2.265c-1.118-0.794-1.881-1.641-2.29-2.538     c-0.409-0.896-0.882-2.633-1.416-5.212c-0.337-1.752-0.502-3.302-0.495-4.649c0.006-1.345,0.19-3.835,0.553-7.469     c0.565-5.393,1.255-9.079,2.07-11.059c0.815-1.978,2.134-3.24,3.958-3.786c1.66-0.505,3.036-0.227,4.131,0.836     c0.845,0.827,0.807,1.604-0.117,2.333c-0.572,0.384-0.972,1.292-1.201,2.727c-0.213,1.222-0.609,2.724-1.19,4.505     c-0.632,1.725-0.97,5.064-1.012,10.017c-0.037,3.606,0.066,6.027,0.312,7.26c0.245,1.233,0.872,2.593,1.877,4.079     c0.524,0.8,1.651,1.325,3.381,1.58c1.729,0.255,3.181,0.136,4.354-0.358c2.463-1.084,4.393-3.991,5.791-8.722     c1.398-4.73,2.029-10.416,1.893-17.054l-0.131-6.073l1.339-0.533c1.279-0.484,2.053-0.553,2.32-0.207     c0.267,0.346,0.342,1.512,0.229,3.495c-0.776,9.147-1.622,15.299-2.536,18.454c-2.276,7.781-4.852,12.412-7.726,13.892     c-2.195,1.106-4.363,1.731-6.503,1.873C349.864,273.997,348.293,273.621,347.292,272.728z"/>
		</g>
		<g>
			<g>
				<line style="fill:#77115C;" x1="104.836" y1="275.269" x2="42.803" y2="301.22"/>
				<path style="fill:#77115C;" d="M42.367,303.466c-0.725-0.141-1.368-0.63-1.674-1.363c-0.488-1.166,0.062-2.507,1.227-2.995      l62.032-25.951c1.165-0.489,2.505,0.06,2.994,1.228c0.488,1.166-0.062,2.507-1.227,2.995l-62.032,25.951      C43.254,303.513,42.796,303.55,42.367,303.466z"/>
			</g>
			<g>
				<line style="fill:#77115C;" x1="384.213" y1="245.422" x2="497.498" y2="266.117"/>
				<path style="fill:#77115C;" d="M383.775,247.668c-1.228-0.239-2.039-1.423-1.814-2.657c0.227-1.243,1.42-2.067,2.663-1.84      l113.285,20.695c1.294,0.222,2.067,1.419,1.84,2.663c-0.227,1.243-1.42,2.067-2.663,1.84l-113.285-20.695      C383.793,247.672,383.784,247.67,383.775,247.668z"/>
			</g>
		</g>
		<g>
			<g>
				<path style="fill:#77115C;" d="M104.752,288.789c0.309,0.189,1.462-0.886,2.4-3.203c0.938-2.277,1.49-5.888,0.419-9.648      c-1.074-3.759-3.447-6.535-5.445-7.975c-2.019-1.474-3.566-1.779-3.728-1.455c-0.203,0.369,0.924,1.285,2.367,2.946      c1.447,1.643,3.17,4.15,4.061,7.267c0.887,3.118,0.746,6.158,0.383,8.316C104.858,287.21,104.385,288.583,104.752,288.789z"/>
			</g>
			<g>
				<path style="fill:#77115C;" d="M384.711,257.641c0.305-0.301-0.579-1.519-1.369-3.624c-0.803-2.073-1.413-5.185-0.627-8.368      c0.801-3.18,2.8-5.641,4.482-7.094c1.686-1.488,3.038-2.148,2.91-2.557c-0.082-0.342-1.758-0.372-4.067,0.902      c-2.267,1.224-5.073,4.01-6.096,8.058c-0.998,4.055,0.172,7.831,1.599,9.977C382.984,257.145,384.479,257.905,384.711,257.641z"/>
			</g>
		</g>
		<path style="fill:#54084E;" d="M59.941,308.931c-4.103-8.732-7.922-17.68-12.497-26.191l-35.239,34.216l49.751-3.647l-0.064-0.24    C61.243,311.688,60.589,310.31,59.941,308.931z"/>
		<g>
			<g>
				<path style="fill:#FFEBFF;" d="M410.073,236.509c0.666-0.031,1.27-3.184,0.575-8.265c-0.181-1.265-0.417-2.65-0.823-4.1      c-0.332-1.475-0.88-2.988-1.444-4.592c-1.233-3.16-2.917-6.522-5.121-9.775c-2.239-3.228-4.767-6.013-7.27-8.302      c-1.293-1.104-2.506-2.161-3.762-3.003c-1.206-0.901-2.412-1.621-3.527-2.246c-4.488-2.481-7.647-3.054-7.916-2.444      c-0.333,0.714,2.173,2.467,5.793,5.521c0.903,0.77,1.892,1.598,2.883,2.569c1.039,0.91,2.041,1.999,3.131,3.093      c2.101,2.273,4.276,4.877,6.307,7.8c1.994,2.949,3.639,5.917,5.001,8.696c0.627,1.412,1.281,2.738,1.755,4.036      c0.548,1.275,0.964,2.495,1.356,3.615C408.556,233.593,409.286,236.563,410.073,236.509z"/>
			</g>
			<g>
				<path style="fill:#FFEBFF;" d="M370.236,192.625c0.211-1.444-1.336-2.867-3.455-3.177c-2.12-0.31-4.009,0.609-4.221,2.054      c-0.211,1.444,1.336,2.867,3.455,3.177C368.135,194.989,370.025,194.07,370.236,192.625z"/>
			</g>
			<g>
				<path style="fill:#FFEBFF;" d="M253.104,239.018c0.702,0.073,1.764-2.981,2.394-8.13c0.617-5.123,0.726-12.445-1.16-20.315      c-1.879-7.88-5.587-14.454-9.096-18.418c-3.501-4.018-6.473-5.573-6.912-5.063c-0.528,0.574,1.43,3.035,3.878,7.245      c2.476,4.187,5.271,10.291,6.992,17.477c1.727,7.193,2.219,14.001,2.561,18.976C252.096,235.77,252.356,238.943,253.104,239.018      z"/>
			</g>
			<g>
				<path style="fill:#FFEBFF;" d="M235.033,186.157c0.479-1.385-0.913-3.122-2.99-4.151c-2.081-1.019-4.306-1.066-5.113,0.158      c-0.803,1.211,0.367,3.399,2.776,4.584C232.113,187.937,234.561,187.532,235.033,186.157z"/>
			</g>
		</g>
	</g>
</g>















</svg>
