<?xml version="1.0" encoding="UTF-8"?>
<!-- Generator: Adobe Illustrator 25.2.1, SVG Export Plug-In . SVG Version: 6.00 Build 0)  -->
<svg xmlns="http://www.w3.org/2000/svg" xmlns:xlink="http://www.w3.org/1999/xlink" version="1.1" id="Capa_1" x="0px" y="0px" viewBox="0 0 512 512" style="enable-background:new 0 0 512 512;" xml:space="preserve" width="512" height="512">
<g>
	<g>
		<path style="fill:#FFFFFF;" d="M489.452,325.591c-5.103-1.703-10.685-1.975-16.15-0.785c-2.17,0.473-4.27,1.156-6.272,2.027    c-7.013-2.955-15.162-3.488-22.482-0.932c-8.631,3.014-15.104,8.84-18.752,16.375l-1.106-159.323    c-0.044-4.985-2.03-9.758-5.54-13.3L282.595,31.838c-9.524-9.612-23.109-13.63-36.34-10.748c-7.65,1.666-14.566,5.541-20,11.207    L92.316,171.956c-3.447,3.595-5.358,8.393-5.323,13.373l1.143,164.751c-2.967-10.142-10.45-17.997-21.128-21.56    c-7.131-2.378-15.376-1.818-22.419,1.246c-5.949-2.506-12.605-3.303-19.064-1.896c-1.155,0.251-2.305,0.576-3.411,0.962    C7.71,333.86-0.745,346.68,0.052,362.283c1.135,22.37,20.6,39.954,39.243,45.763c1.177,0.366,2.382,0.577,3.594,0.711    c-1.101,1.703-1.969,3.609-2.563,5.677c-0.269,0.938-0.538,2.017-0.744,3.078c-0.203,1.01-0.369,1.992-0.509,2.997    c-0.043,0.32-0.086,0.657-0.124,1.012c-0.646,4.134,0.038,8.394,2.041,12.235c0.751,1.448,1.595,2.738,2.581,3.938    c0.481,0.585,0.997,1.141,1.543,1.664c1.507,1.445,3.028,2.47,4.388,3.327l1.365,0.855c0.174,0.11,0.348,0.217,0.526,0.321    c0.345,0.221,0.701,0.442,1.087,0.668c1.069,0.792,2.268,1.547,3.658,2.3c0.846,0.452,1.737,0.91,2.71,1.394    c0.933,0.462,1.818,0.887,2.597,1.247l1.196,0.552c1.176,0.603,2.381,1.132,3.632,1.588c1.536,0.797,2.987,1.413,4.381,1.865    c1.066,0.449,2.167,0.799,3.288,1.048c0.344,0.088,0.691,0.165,1.038,0.234c1.929,0.452,3.978,0.664,6.137,0.633    c0.907-0.016,1.846-0.077,2.798-0.161c2.269,2.828,5.302,4.988,8.792,6.167c0.162,0.054,0.717,0.232,1.738,0.531l1.538,0.457    c0.396,0.118,0.758,0.234,1.093,0.346l0.906,0.308c0.096,0.033,0.194,0.065,0.291,0.097c2.926,0.935,5.031,1.572,6.269,1.909    c0.155,0.043,0.297,0.082,0.425,0.119c0.29,0.114,0.584,0.223,0.85,0.314c0.256,0.09,0.612,0.229,1.106,0.427l0.158,0.065    c0.871,0.455,1.776,0.845,2.705,1.162l1.017,0.347c0.615,0.209,1.181,0.372,1.81,0.52c0.228,0.06,0.48,0.155,0.841,0.295    c1.271,0.481,2.438,0.889,3.541,1.236c0.733,0.328,1.471,0.622,2.201,0.878c0.6,0.21,1.138,0.372,1.753,0.522    c1.183,0.402,2.389,0.666,3.601,0.865c1.351,0.962,2.798,1.746,4.293,2.318l-0.003,0.008c1.46,0.546,2.982,0.961,4.523,1.234    l5.505,1.329c3.125,0.754,6.355,0.691,9.41-0.108c1.942,1.751,4.253,3.11,6.814,3.953c0.056,0.021,0.115,0.033,0.171,0.053    c0.448,0.144,0.906,0.272,1.371,0.383c-0.292-0.07-0.752-0.175-1.34-0.373c1.405,0.51,2.865,0.886,4.422,1.117l1.191,0.286    c2.866,0.693,5.72,0.76,8.502,0.253c0.963,0.312,1.948,0.562,2.956,0.719l0.722,0.112c0.631,0.1,1.462,0.215,2.498,0.344    c0.923,0.113,1.879,0.221,2.86,0.314l2.445,0.232c0.927,0.086,1.7,0.146,2.315,0.184c1.888,0.13,3.806-0.014,5.723-0.432    c0.623-0.136,1.427-0.339,2.325-0.628c0.718-0.227,1.472-0.484,2.297-0.779c0.291-0.104,0.567-0.205,0.838-0.305    c3.084,3.719,7.564,6.285,12.748,6.822l4.565,0.473c1.179,0.123,2.366,0.098,3.546,0.001c1.117,0.416,2.258,0.737,3.405,0.937    l-0.001,0.006c1.541,0.26,3.127,0.377,4.73,0.351l5.659,0.242c3.204,0.137,6.37-0.535,9.204-1.919    c2.237,1.339,4.756,2.228,7.427,2.563c0.037,0.006,0.075,0.006,0.112,0.012c0.411,0.05,0.825,0.087,1.243,0.109    c-0.151-0.008-0.349-0.018-0.579-0.036c1.3,0.168,2.622,0.248,4.005,0.183l1.163,0.05c1.857,0.087,3.686-0.063,5.438-0.445    c2.589-0.564,4.966-1.637,7.044-3.09c0.05,0.02,0.083,0.03,0.136,0.051c1.473,0.598,2.723,1.047,3.881,1.393    c1.81,0.574,3.752,0.921,6.059,1.088c1.126,0.077,2.171,0.126,3.129,0.145c0.444,0.01,0.887,0.003,1.332-0.019    c0.255-0.013,0.523-0.022,0.893-0.024c0.818-0.009,1.664-0.033,2.486-0.073c0.544-0.025,1.085-0.068,1.619-0.127    c1.996,0.581,4.121,0.846,6.312,0.736l4.074-0.202c0.331-0.016,0.714-0.027,1.236-0.034c1.554-0.028,3.084-0.204,4.544-0.522    c2.368-0.516,4.585-1.4,6.6-2.635c0.709-0.427,1.372-0.911,2.011-1.42c2.949,1.036,6.155,1.393,9.384,0.87l2.809-0.455    c0.702-0.112,1.46-0.256,2.267-0.432l0.002-0.001c0.657-0.143,1.355-0.309,2.135-0.512c0.235-0.062,0.448-0.116,0.627-0.158    c0.342-0.054,0.682-0.119,1.02-0.191c0.484-0.06,0.962-0.128,1.442-0.205l1.468-0.239c1.103,0.016,2.208-0.066,3.301-0.242    l3.685-0.595c1.041-0.168,2.075-0.35,3.056-0.539c0.822-0.156,1.782-0.344,2.886-0.566l3.022-0.487    c0.346-0.055,0.691-0.121,1.03-0.195c3.118-0.679,5.89-2.091,8.192-4.019c0.561,0.145,1.124,0.284,1.698,0.39    c1.092,0.199,2.265,0.38,3.515,0.545c0.399,0.052,0.799,0.093,1.2,0.12c2.028,0.138,3.749-0.059,4.853-0.222    c0.831-0.114,1.736-0.272,2.791-0.484l0.747-0.158c0.543-0.118,1.077-0.243,1.684-0.391l1.25-0.309    c0.569-0.141,1.135-0.309,1.688-0.502c0.751-0.26,1.5-0.54,2.277-0.846c0.598-0.238,1.25-0.505,1.955-0.801    c0.225-0.095,0.45-0.195,0.671-0.298c1.241-0.579,2.361-1.221,3.421-1.959c0.542-0.375,1.049-0.756,1.539-1.154    c1.786-1.402,3.357-3.02,4.712-4.853c0.67-0.914,1.31-1.88,1.881-2.828c1.031,0.595,2.105,1.123,3.24,1.54    c3.429,1.259,7.139,1.504,10.68,0.733c0.625-0.136,1.244-0.303,1.855-0.503c0.481-0.127,1.023-0.286,1.639-0.486    c0.693-0.131,1.434-0.309,2.183-0.533c1.072-0.236,1.918-0.487,2.653-0.735c1.151-0.397,2.258-0.868,3.296-1.403    c1.199-0.474,2.151-0.988,2.859-1.402c2.879-1.675,5.219-4.096,6.883-6.964c3.163,0.976,6.498,1.158,9.701,0.46    c1.369-0.298,2.71-0.748,4.001-1.348c0.124-0.058,0.54-0.255,1.213-0.587l1.547-0.752c0.352-0.171,0.678-0.322,0.924-0.43    c0.749-0.327,1.184-0.522,1.225-0.542c2.779-1.276,4.743-2.22,5.997-2.861c0.101-0.053,0.195-0.101,0.282-0.144    c0.305-0.115,0.605-0.239,0.912-0.375c0.243-0.103,0.58-0.232,1.044-0.407l0.233-0.084c0.939-0.25,1.857-0.572,2.747-0.962    l0.988-0.433c0.591-0.259,1.099-0.508,1.661-0.826c0.215-0.111,0.47-0.212,0.84-0.357c1.26-0.503,2.39-0.987,3.427-1.469    c0.8-0.265,1.566-0.556,2.319-0.884c0.57-0.247,1.056-0.476,1.599-0.777c3.774-1.667,6.965-4.297,9.227-7.604    c3.722-5.439,4.383-12.41,1.748-18.45c-0.406-0.932-0.83-1.858-1.29-2.826c-1.001-2.093-2.27-4.091-3.77-5.94    c-0.56-0.691-1.189-1.297-1.825-1.892c0.279-0.048,0.561-0.066,0.838-0.126c0.63-0.137,1.255-0.307,1.871-0.508    c18.56-6.066,37.78-23.918,38.607-46.3C512.552,343.117,503.92,330.416,489.452,325.591z"/>
	</g>
	<g>
		<g>
			<path style="fill:#FF237D;" d="M60.958,346.667c-6.187-2.065-13.97,2.141-16.213,8.263c-2.328-6.09-10.168-10.187-16.326-8.037     c-6.658,2.325-9.62,7.402-9.263,14.422c0.68,13.386,14.005,24.783,25.831,28.468c11.774-3.848,24.939-15.429,25.434-28.824     C70.68,353.935,67.648,348.899,60.958,346.667z"/>
		</g>
		<g>
			<path style="fill:#FF237D;" d="M483.394,343.736c-6.187-2.065-13.97,2.141-16.213,8.263c-2.328-6.091-10.168-10.187-16.326-8.037     c-6.659,2.325-9.62,7.402-9.264,14.422c0.68,13.386,14.005,24.783,25.832,28.468c11.774-3.848,24.939-15.429,25.434-28.824     C493.116,351.003,490.084,345.968,483.394,343.736z"/>
		</g>
		<g>
			<path style="fill:#FF64C4;" d="M89.287,392.352c0.512,0.025,1.184,0.283,2.01,0.773c0.83,0.486,1.504,0.85,2.028,1.092     c0.299,0.139,0.699,0.335,1.188,0.587c0.49,0.253,0.998,0.543,1.539,0.867c0.531,0.325,1.044,0.614,1.534,0.869     c0.484,0.253,0.861,0.437,1.12,0.558c0.391,0.181,0.929,0.443,1.615,0.786c0.685,0.342,1.162,0.678,1.426,1.014     c0.135,0.167,0.484,0.417,1.038,0.753c0.555,0.338,0.887,0.558,0.997,0.66c0.219,0.101,0.343,0.172,0.372,0.214     c0.035,0.043,0.098,0.189,0.195,0.443c-0.2,0.434-0.439,0.811-0.721,1.132c-0.278,0.317-0.499,0.652-0.657,0.997     c-0.305-0.141-0.638-0.267-1.01-0.384c-0.367-0.117-0.688-0.214-0.969-0.292c-0.474-0.111-0.827-0.236-1.058-0.368     c-0.231-0.132-0.625-0.328-1.189-0.588c-0.518-0.243-1.086-0.475-1.689-0.703c-0.608-0.227-1.159-0.428-1.653-0.607     c-0.504-0.175-0.923-0.318-1.267-0.425c-0.349-0.108-0.544-0.171-0.585-0.191c-0.52-0.132-1.207-0.293-2.071-0.481     c-0.863-0.186-1.758-0.352-2.694-0.493c-0.936-0.143-1.822-0.221-2.654-0.239c-0.837-0.018-1.455,0.066-1.855,0.249     c-0.651,0.385-1.239,0.654-1.758,0.81c-0.52,0.155-1.004,0.496-1.463,1.025c-0.162,0.134-0.346,0.406-0.531,0.817     c-0.194,0.415-0.383,0.854-0.571,1.319s-0.339,0.936-0.453,1.41c-0.114,0.475-0.156,0.851-0.127,1.128     c0.172,0.551,0.269,1.07,0.305,1.564c0.039,0.488,0.104,0.808,0.193,0.955c0.224,0.315,0.501,0.707,0.841,1.176     c0.331,0.474,0.688,0.927,1.068,1.365c0.065,0.084,0.311,0.265,0.738,0.538c0.428,0.278,0.901,0.643,1.429,1.097     c0.307,0.247,0.493,0.412,0.563,0.495c0.065,0.084,0.233,0.239,0.495,0.466c0.175,0.188,0.298,0.323,0.367,0.404     c0.065,0.085,0.188,0.222,0.363,0.408c0.221,0.207,0.479,0.417,0.774,0.634c0.295,0.215,0.466,0.333,0.511,0.352     c0.346,0.161,0.678,0.382,0.997,0.66c0.32,0.28,0.652,0.499,1.002,0.659c0.523,0.455,1.028,0.847,1.513,1.173     c0.48,0.329,0.908,0.819,1.298,1.468c0.262,0.228,0.535,0.486,0.826,0.777c0.286,0.29,0.508,0.551,0.662,0.782     c0.094,0.148,0.274,0.403,0.555,0.769c0.276,0.367,0.556,0.77,0.827,1.209c0.267,0.442,0.506,0.896,0.715,1.36     c0.204,0.464,0.304,0.824,0.288,1.083c0.112,0.894,0.094,1.738-0.063,2.537c-0.158,0.796-0.41,1.563-0.75,2.302     c-0.098,0.217-0.262,0.483-0.488,0.801c-0.226,0.318-0.413,0.574-0.551,0.771l-1.167,1.674c-0.189,0.177-0.568,0.478-1.133,0.902     c-0.565,0.423-0.907,0.658-1.036,0.707c-0.084,0.066-0.261,0.158-0.52,0.272c-0.265,0.113-0.541,0.225-0.823,0.331     c-0.288,0.104-0.553,0.193-0.796,0.264c-0.243,0.072-0.398,0.12-0.46,0.144c-0.424,0.118-1.052,0.252-1.885,0.395     c-0.828,0.143-1.703,0.278-2.628,0.402c-0.93,0.125-1.804,0.196-2.629,0.21c-0.825,0.014-1.455-0.079-1.887-0.28     c-0.129,0.048-0.252,0.029-0.373-0.051c-0.116-0.083-0.267-0.111-0.432-0.084c-0.478-0.222-0.951-0.398-1.414-0.533     c-0.464-0.137-1.054-0.398-1.774-0.78c-0.629-0.345-1.257-0.618-1.871-0.825c-0.614-0.206-1.266-0.491-1.935-0.855     c-0.351-0.162-0.874-0.401-1.564-0.722c-0.695-0.319-1.429-0.672-2.201-1.054c-0.771-0.383-1.506-0.762-2.202-1.134     c-0.697-0.376-1.229-0.728-1.606-1.057c-0.041-0.022-0.174-0.108-0.393-0.261c-0.22-0.155-0.46-0.308-0.736-0.459     c-0.271-0.153-0.528-0.31-0.77-0.474c-0.238-0.164-0.422-0.277-0.554-0.336c-0.324-0.206-0.803-0.505-1.438-0.902     c-0.635-0.4-1.058-0.701-1.279-0.909c-0.135-0.167-0.262-0.372-0.387-0.613c-0.13-0.242-0.139-0.472-0.041-0.688     c-0.006-0.216,0.029-0.605,0.106-1.174c0.082-0.571,0.183-1.156,0.305-1.76c0.117-0.602,0.244-1.136,0.381-1.601     c0.137-0.463,0.246-0.674,0.332-0.636c0.655,0.515,1.33,1.024,2.019,1.528c0.694,0.501,1.478,1.062,2.351,1.675     c0.736,0.34,1.438,0.758,2.109,1.252c0.666,0.492,1.476,0.959,2.431,1.4c0.351,0.162,0.737,0.297,1.156,0.413     c0.418,0.116,0.954,0.272,1.601,0.463c0.154,0.018,0.292,0.057,0.424,0.116c0.127,0.06,0.247,0.09,0.355,0.086     c0.65,0.302,1.504,0.446,2.562,0.434c1.058-0.011,1.879-0.016,2.46-0.012c0.041,0.021,0.189,0.012,0.444-0.029     c0.26-0.041,0.54-0.109,0.846-0.202c0.31-0.097,0.601-0.186,0.878-0.269c0.272-0.081,0.452-0.158,0.535-0.225l2.113-1.318     c0.184-0.177,0.416-0.37,0.701-0.583c0.28-0.211,0.517-0.406,0.706-0.584c0.562-0.531,0.942-1.353,1.142-2.473     c-0.161-0.337-0.255-0.674-0.29-1.001c-0.031-0.333-0.108-0.708-0.226-1.134c-0.056-0.447-0.193-0.84-0.406-1.175     c-0.213-0.335-0.451-0.671-0.721-1.006c-0.507-0.497-0.976-0.964-1.407-1.401c-0.431-0.434-0.817-0.734-1.167-0.894     c-0.528-0.454-0.968-0.787-1.315-1.002c-0.352-0.214-0.66-0.487-0.924-0.82c-0.488-0.434-0.923-0.769-1.315-1.004     c-0.392-0.234-0.712-0.538-0.96-0.916c-0.564-0.263-1.017-0.562-1.361-0.905c-0.339-0.344-0.777-0.741-1.305-1.194     c-0.154-0.234-0.331-0.474-0.535-0.723c-0.2-0.253-0.346-0.45-0.435-0.597c-0.388-0.759-0.727-1.388-1.023-1.894     c-0.291-0.504-0.539-1.169-0.73-1.999c-0.177-0.765-0.306-1.286-0.392-1.561c-0.081-0.275-0.134-0.734-0.155-1.375     c0.016-0.257,0.063-0.59,0.149-1c0.082-0.408,0.186-0.809,0.313-1.197s0.255-0.753,0.384-1.087s0.223-0.568,0.282-0.699     c0.26-0.564,0.494-1.01,0.697-1.336c0.208-0.33,0.421-0.678,0.641-1.047c0.203-0.327,0.485-0.646,0.841-0.959     c0.352-0.309,0.699-0.545,1.036-0.705c0.878-0.648,1.703-1.016,2.486-1.103c0.777-0.089,1.687-0.234,2.729-0.438     c0.232-0.049,0.576-0.088,1.041-0.113c0.46-0.026,0.935-0.03,1.425-0.012c0.495,0.015,0.968,0.049,1.413,0.101     c0.456,0.049,0.827,0.093,1.129,0.125c0.35,0.16,0.679,0.245,0.987,0.258c0.313,0.012,0.66,0.108,1.056,0.287     c0.345,0.16,0.627,0.264,0.839,0.311c0.217,0.048,0.498,0.15,0.844,0.312c0.218,0.099,0.445,0.215,0.67,0.347     C88.4,392.245,88.769,392.325,89.287,392.352z"/>
			<path style="fill:#FF64C4;" d="M137.365,413.421c-0.382,0.528-0.64,1.146-0.781,1.855s-0.32,1.382-0.538,2.017     c-0.179-0.063-0.527-0.118-1.04-0.167c-0.512-0.048-0.978-0.121-1.407-0.212c-0.179-0.061-0.383-0.143-0.601-0.24     c-0.214-0.102-0.401-0.153-0.551-0.154l-1.381-0.167l-3.805-1.293c-0.966-0.277-1.823-0.555-2.561-0.831     c-0.738-0.278-1.585-0.578-2.534-0.9c-0.179-0.063-0.447-0.128-0.804-0.2c-0.351-0.068-0.591-0.149-0.714-0.24     c-0.075,0.226-0.161,0.4-0.249,0.52c-0.093,0.119-0.174,0.294-0.254,0.52c-0.004,0.15-0.082,0.502-0.246,1.053     c-0.159,0.551-0.348,1.159-0.544,1.823c-0.202,0.665-0.38,1.271-0.544,1.823c-0.165,0.551-0.266,0.893-0.309,1.029l-1.041,3.056     c-0.123,0.363-0.213,0.661-0.266,0.893c-0.057,0.235-0.108,0.572-0.158,1.009l3.939,1.34c0.726,0.245,1.397,0.5,2.018,0.761     c0.621,0.261,1.314,0.521,2.08,0.786c0.413,0.136,0.888,0.326,1.436,0.563c0.554,0.238,1.001,0.368,1.351,0.382     c-0.094,0.424-0.193,0.87-0.308,1.34c-0.105,0.466-0.222,0.882-0.345,1.244l-0.369,1.085c-0.184-0.061-0.53-0.152-1.043-0.278     c-0.513-0.124-0.977-0.232-1.405-0.325l-2.849-0.97c-0.953-0.173-1.813-0.391-2.584-0.653s-1.631-0.554-2.581-0.878     c-0.179-0.062-0.413-0.114-0.703-0.162c-0.284-0.047-0.491-0.116-0.609-0.209l-0.854,2.514c-0.214,0.634-0.432,1.294-0.639,1.981     c-0.207,0.688-0.327,1.302-0.358,1.847c-0.278,0.813-0.526,1.576-0.744,2.285c-0.213,0.71-0.423,1.359-0.626,1.948l-0.39,1.154     c0.106-0.014,0.379,0.104,0.828,0.356c0.443,0.253,0.987,0.54,1.636,0.861c0.649,0.322,1.204,0.587,1.663,0.794     c0.464,0.207,0.868,0.447,1.233,0.722c0.197,0.167,0.664,0.389,1.402,0.667c0.738,0.276,1.221,0.452,1.45,0.529     c1.081,0.521,2.166,0.99,3.234,1.405c1.073,0.415,2.158,0.861,3.255,1.337l2.452,0.83c0.179,0.061,0.393,0.097,0.644,0.107     c0.245,0.009,0.42,0.028,0.509,0.057c-0.054,0.894-0.197,1.729-0.437,2.507s-0.49,1.551-0.751,2.321     c-0.438,0.102-0.928,0.061-1.47-0.123c-0.547-0.185-1.073-0.341-1.586-0.464c-0.318-0.107-0.649-0.247-1-0.413     c-0.347-0.17-0.7-0.316-1.063-0.437c-0.917-0.266-1.994-0.63-3.224-1.098c-1.23-0.47-2.313-0.813-3.25-1.029l-1.017-0.347     c-0.466-0.262-1.132-0.566-2.004-0.91c-0.867-0.345-1.526-0.595-1.979-0.75c-0.482-0.216-1.282-0.471-2.388-0.773     c-1.111-0.301-2.94-0.862-5.492-1.677c-0.09-0.032-0.397-0.136-0.917-0.314c-0.52-0.178-1.092-0.358-1.707-0.544     c-0.62-0.184-1.195-0.355-1.725-0.509c-0.525-0.156-0.835-0.247-0.93-0.279c0.326-0.95,0.585-1.898,0.778-2.842     c0.198-0.943,0.425-1.8,0.687-2.571c0.155-0.45,0.309-0.98,0.462-1.584c0.158-0.605,0.346-1.093,0.574-1.471     c0.586-1.418,1.106-2.832,1.559-4.244c0.458-1.411,0.933-2.843,1.424-4.292c0.107-0.314,0.277-0.889,0.51-1.719     c0.233-0.831,0.494-1.601,0.785-2.309l0.581-2.153c0.062-0.332,0.291-0.897,0.691-1.696c0.395-0.8,0.677-1.522,0.851-2.173     c0.308-1.056,0.575-1.989,0.803-2.796c0.222-0.808,0.495-1.763,0.824-2.866c0.271-0.966,0.605-1.9,0.987-2.807     c0.383-0.902,0.723-1.786,1.016-2.649c0.08-0.226,0.153-0.414,0.229-0.565c0.081-0.152,0.26-0.279,0.548-0.383l3.421,1.314     c0.661,0.278,1.443,0.543,2.341,0.799c0.894,0.255,1.676,0.522,2.341,0.796c0.184,0.061,0.355,0.109,0.522,0.14     c0.167,0.031,0.338,0.078,0.522,0.14c0.134,0.046,0.43,0.146,0.882,0.299s0.927,0.315,1.425,0.485     c0.502,0.169,0.955,0.323,1.358,0.463c0.408,0.139,0.649,0.247,0.727,0.321c0.073,0.076,0.326,0.215,0.768,0.413     c0.436,0.197,0.767,0.337,0.995,0.414c0.134,0.047,0.344,0.105,0.622,0.174c0.279,0.07,0.566,0.155,0.863,0.256     c0.291,0.1,0.576,0.198,0.844,0.289c0.273,0.091,0.48,0.161,0.614,0.205c0.466,0.263,0.921,0.454,1.357,0.576     c0.436,0.125,0.897,0.293,1.383,0.508c0.045,0.015,0.277,0.108,0.702,0.277c0.42,0.17,0.898,0.37,1.424,0.6     c0.531,0.228,1.004,0.428,1.423,0.598C137.088,413.314,137.32,413.405,137.365,413.421z"/>
			<path style="fill:#FF64C4;" d="M156.528,432.334c0.553,1.804,1.136,3.718,1.756,5.734c0.621,2.019,1.297,4.151,2.035,6.397     c0.071,0.707,0.221,1.369,0.443,1.988c0.218,0.619,0.47,1.159,0.751,1.62c0.096,0.417,0.218,0.928,0.369,1.528     c0.152,0.602,0.322,1.122,0.511,1.562l0.206-0.244l0.86-3.557c0.021-0.093,0.045-0.149,0.077-0.167     c0.027-0.018,0.052-0.071,0.073-0.165c0.073-1.114,0.269-2.088,0.595-2.92c0.321-0.832,0.556-1.747,0.7-2.745     c0.123-0.314,0.224-0.61,0.287-0.89c0.069-0.279,0.137-0.558,0.206-0.838l0.734-3.659l2.089-8.648     c0.043-0.184,0.138-0.529,0.281-1.036c0.148-0.506,0.299-1.073,0.452-1.7c0.148-0.627,0.298-1.244,0.446-1.849     c0.143-0.602,0.253-1.069,0.333-1.393c0.047-0.186,0.125-0.353,0.232-0.501c0.109-0.143,0.35-0.173,0.722-0.082l2.304,0.555     c0.415,0.101,0.89,0.288,1.411,0.563c0.525,0.275,0.881,0.434,1.066,0.478l0.35,0.085c-0.385,1.581-0.762,3.2-1.136,4.854     c-0.379,1.656-0.731,3.22-1.058,4.69c-0.332,1.47-0.62,2.828-0.872,4.071c-0.252,1.243-0.443,2.242-0.574,2.995     c-0.138,0.364-0.237,0.719-0.294,1.074c-0.063,0.354-0.166,0.712-0.299,1.074c-0.171,0.499-0.308,1.007-0.407,1.526     c-0.099,0.517-0.21,1.031-0.332,1.541l-0.807,3.347c-0.262,1.268-0.511,2.263-0.761,2.99c-0.25,0.729-0.389,1.159-0.425,1.301     c-0.202,0.639-0.382,1.285-0.536,1.934c-0.163,0.652-0.316,1.304-0.474,1.954c-0.167,0.895-0.381,1.767-0.63,2.615     c-0.255,0.85-0.468,1.722-0.63,2.615c-0.09,0.371-0.179,0.721-0.253,1.046c-0.079,0.325-0.142,0.679-0.182,1.064     c-0.058,0.232-0.341,0.286-0.854,0.163l-2.299-0.555c-0.583-0.041-1.031-0.127-1.343-0.251c-0.317-0.125-0.541-0.205-0.678-0.239     c-0.092-0.659-0.176-1.211-0.266-1.65c-0.096-0.44-0.2-0.87-0.318-1.294c-0.118-0.422-0.249-0.859-0.384-1.311     c-0.14-0.451-0.3-0.995-0.49-1.631c-0.089-0.265-0.198-0.624-0.333-1.076c-0.14-0.451-0.27-0.814-0.399-1.094     c-0.204-0.39-0.341-0.83-0.422-1.318c-0.08-0.486-0.283-0.966-0.613-1.439c-0.379-1.075-0.728-2.18-1.043-3.315     c-0.314-1.134-0.68-2.291-1.082-3.471c-0.417-1.132-0.915-2.325-1.502-3.571c-0.582-1.249-1.136-2.625-1.66-4.129     c-0.155-0.975-0.484-2.01-0.984-3.115c-0.494-1.104-0.895-2.138-1.202-3.095c0.021-0.095-0.038,0.088-0.176,0.548     c-0.132,0.461-0.273,0.98-0.41,1.561c-0.142,0.582-0.352,1.354-0.633,2.32l-0.137,0.558c-0.041,0.384-0.133,0.744-0.261,1.082     c-0.129,0.336-0.238,0.691-0.332,1.063l-2.221,8.613l-0.739,3.66c-0.069,0.279-0.126,0.56-0.168,0.844     c-0.041,0.286-0.131,0.585-0.254,0.9c-0.06,0.674-0.204,1.365-0.423,2.073c-0.223,0.709-0.394,1.419-0.514,2.127     c-0.114,0.662-0.236,1.124-0.376,1.387c-0.134,0.262-0.259,0.426-0.378,0.499l-5.509-1.328c-0.367-0.092-0.757-0.173-1.16-0.244     c-0.399-0.072-0.778-0.176-1.139-0.313c-0.049-0.011-0.037-0.216,0.041-0.618c0.068-0.401,0.168-0.868,0.3-1.402     c0.127-0.535,0.261-1.081,0.393-1.638c0.137-0.56,0.237-0.976,0.306-1.256c0.153-0.649,0.325-1.311,0.51-1.979     c0.186-0.668,0.335-1.334,0.445-1.995c0.158-0.65,0.335-1.286,0.538-1.902c0.192-0.616,0.347-1.255,0.461-1.919     c0.111-0.464,0.188-0.848,0.239-1.157c0.047-0.308,0.102-0.578,0.159-0.812l0.112-1.078c0.026-0.094,0.051-0.148,0.082-0.168     c0.023-0.015,0.052-0.071,0.073-0.163c0.073-1.115,0.266-2.174,0.585-3.182c0.314-1.003,0.546-2.007,0.69-3.006     c0.123-0.314,0.219-0.611,0.282-0.889c0.073-0.281,0.137-0.56,0.206-0.838l0.734-3.659l2.297-8.597     c0.09-0.371,0.165-0.737,0.228-1.091c0.057-0.354,0.112-0.723,0.157-1.106l0.568-0.526c0.235,0.056,0.631,0.141,1.193,0.251     c0.562,0.112,1.21,0.282,1.947,0.507c0.601,0.146,1.062,0.221,1.383,0.224c0.316,0.004,0.668,0.049,1.039,0.138     c0.229,0.056,0.418,0.139,0.566,0.248s0.358,0.196,0.637,0.263l1.464,0.355c0.052,0.406,0.154,0.847,0.305,1.329     c0.156,0.479,0.291,0.981,0.415,1.5c0.265,1.145,0.434,2.112,0.522,2.894c0.077,0.782,0.194,1.365,0.349,1.745     c0.128,0.277,0.288,0.659,0.466,1.144c0.178,0.485,0.346,0.997,0.514,1.529c0.168,0.532,0.316,1.072,0.457,1.622     C156.245,431.417,156.388,431.904,156.528,432.334z"/>
			<path style="fill:#FF64C4;" d="M175.423,459.139c0.095-0.278,0.136-0.561,0.13-0.851c-0.001-0.291,0.072-0.595,0.22-0.912     c0.059-0.085,0.122-0.246,0.185-0.479c0.053-0.231,0.074-0.422,0.051-0.574l0.13-2.229c0.009-0.385,0.074-0.777,0.185-1.168     c0.106-0.393,0.197-0.803,0.26-1.23c-0.017-0.197,0.001-0.375,0.054-0.538c0.043-0.159,0.087-0.335,0.118-0.526     c0.03-0.525,0.151-1.064,0.357-1.613c0.207-0.548,0.306-1.088,0.293-1.625c0.005-0.046,0.026-0.165,0.057-0.355     c0.027-0.187,0.06-0.389,0.091-0.602c0.032-0.211,0.076-0.41,0.129-0.597c0.053-0.185,0.084-0.302,0.09-0.348     c0.189-0.891,0.34-1.835,0.443-2.836c0.172-1.085,0.326-2.066,0.466-2.942c0.135-0.875,0.296-1.611,0.491-2.21     c0.079-0.229,0.15-0.522,0.207-0.877c0.052-0.354,0.112-0.719,0.17-1.096c0.035-0.528,0.086-1.1,0.159-1.718     c0.073-0.616,0.155-1.234,0.254-1.85c0.167-1.084,0.305-2.043,0.414-2.873c0.103-0.832,0.22-1.794,0.343-2.889     c0.058-0.377,0.091-0.748,0.1-1.109c0.009-0.362,0.064-0.727,0.17-1.096c0.015-0.096,0.052-0.332,0.114-0.71     c0.057-0.378,0.12-0.611,0.184-0.698c0.005-0.046,0.032-0.09,0.091-0.13c0.16-0.119,0.289-0.171,0.389-0.16l5.099,0.801     c0.663,0.101,1.334,0.209,2.019,0.315c0.685,0.107,1.312,0.229,1.869,0.364c0.514,0.129,1.046,0.336,1.609,0.617     s1.019,0.522,1.378,0.721c1.159,0.619,1.969,1.084,2.43,1.397c0.461,0.313,0.896,0.696,1.306,1.15     c0.376,0.395,0.779,0.773,1.203,1.131c0.429,0.357,0.851,0.75,1.271,1.179c0.414,0.427,0.812,0.925,1.183,1.491     c0.372,0.566,0.683,1.258,0.943,2.072c0.196,0.613,0.449,1.256,0.752,1.933c0.308,0.678,0.385,1.341,0.233,1.998     c0.126,0.746,0.156,1.381,0.104,1.903c-0.062,0.524-0.006,1.017,0.167,1.478c0.074,1.077,0.02,2.181-0.157,3.316     c-0.177,1.133-0.457,2.154-0.843,3.062c-0.056,0.669-0.219,1.322-0.484,1.957c-0.27,0.636-0.482,1.28-0.634,1.936     c-0.132,0.559-0.263,1-0.386,1.316c-0.121,0.321-0.26,0.589-0.414,0.808c-0.159,0.218-0.314,0.436-0.468,0.653     c-0.154,0.219-0.33,0.504-0.532,0.859c-0.069,0.135-0.226,0.341-0.46,0.619c-0.239,0.278-0.487,0.565-0.754,0.862     c-0.261,0.297-0.525,0.582-0.786,0.857c-0.261,0.274-0.429,0.479-0.493,0.612c-0.414,0.76-0.869,1.282-1.371,1.566     c-0.507,0.284-1.171,0.749-1.999,1.392c-0.165,0.121-0.424,0.311-0.781,0.57c-0.357,0.26-0.734,0.526-1.139,0.802     c-0.405,0.276-0.798,0.518-1.167,0.724c-0.373,0.211-0.659,0.369-0.873,0.482c-0.208,0.066-0.553,0.193-1.044,0.383     c-0.487,0.189-1.013,0.384-1.574,0.586c-0.566,0.203-1.106,0.386-1.614,0.548c-0.508,0.161-0.834,0.232-0.973,0.209     c-0.482-0.027-1.108-0.074-1.868-0.147c-0.765-0.07-1.548-0.147-2.361-0.224c-0.809-0.079-1.598-0.165-2.353-0.259     c-0.76-0.093-1.379-0.178-1.85-0.253l-0.777-0.122c-0.129-0.117-0.21-0.226-0.242-0.327c-0.033-0.103-0.065-0.204-0.098-0.306     c-0.033-0.103-0.044-0.177-0.038-0.223L175.423,459.139z M182.237,450.403c-0.226,1.125-0.455,2.445-0.695,3.957     c-0.235,1.511-0.416,2.839-0.545,3.979c1.387,0.12,2.556,0.072,3.507-0.142c0.952-0.214,1.986-0.62,3.096-1.221     c0.732-0.369,1.273-0.805,1.619-1.307c0.34-0.504,0.678-1.019,1.007-1.551c0.299-0.386,0.58-0.852,0.83-1.391     c0.254-0.542,0.52-1.057,0.79-1.548c0.138-0.269,0.329-0.649,0.578-1.145c0.244-0.493,0.398-0.927,0.455-1.307     c0.037-0.236,0.166-0.687,0.393-1.354c0.228-0.665,0.335-1.122,0.328-1.366l0.193-1.276c0.136-0.849,0.314-1.765,0.54-2.745     c0.226-0.983,0.386-2.217,0.471-3.703l0.068-0.425c0.096-1.244-0.074-2.31-0.517-3.205c-0.443-0.892-0.987-1.872-1.645-2.945     c-0.307-0.529-0.683-0.952-1.145-1.266c-0.456-0.314-1.272-0.781-2.435-1.396c-0.354-0.202-0.855-0.388-1.504-0.563     c-0.653-0.173-1.235-0.326-1.744-0.454c-0.127,0.175-0.191,0.285-0.197,0.332l-0.026,0.143l-0.089,0.565     c-0.175,0.505-0.313,1.151-0.412,1.933c-0.098,0.784-0.199,1.507-0.298,2.169c-0.125,0.802-0.25,1.728-0.363,2.774     c-0.118,1.047-0.307,2.106-0.57,3.179c-0.037,0.236-0.089,0.493-0.158,0.773c-0.068,0.28-0.121,0.538-0.157,0.774     c-0.051,0.623-0.145,1.236-0.286,1.843c-0.147,0.609-0.198,1.254-0.158,1.935c-0.252,0.978-0.419,1.969-0.501,2.972     C182.581,448.423,182.436,449.418,182.237,450.403z"/>
			<path style="fill:#FF64C4;" d="M215.083,462.338c-0.015,0.096-0.033,0.276-0.059,0.535c-0.025,0.263-0.057,0.548-0.087,0.857     c-0.031,0.309-0.064,0.606-0.09,0.891c-0.036,0.287-0.052,0.499-0.067,0.643c-0.134,1.284-0.216,2.165-0.241,2.644     c-0.026,0.476-0.072,1.048-0.144,1.715c-0.015,0.143-0.108,0.264-0.287,0.367c-0.18,0.1-0.367,0.167-0.558,0.193l-4.572-0.472     l0.082-0.786l0.171-5.103c0.093-0.902,0.17-1.785,0.236-2.643c0.066-0.859,0.117-1.717,0.162-2.58l0.196-1.926     c0.072-0.666,0.11-1.322,0.135-1.969c0.019-0.648,0.11-1.299,0.272-1.955l0.252-2.427c0.093-0.856,0.167-1.702,0.229-2.535     c0.061-0.836,0.109-1.658,0.149-2.474c0.026-0.237,0.055-0.437,0.096-0.603c0.042-0.163,0.076-0.363,0.097-0.6     c0.108-1,0.185-1.905,0.252-2.716c0.056-0.811,0.13-1.611,0.208-2.394c0.083-0.785,0.167-1.606,0.255-2.462     c0.088-0.856,0.165-1.809,0.225-2.861l0.206-1.999c0.009-0.527,0.026-1.066,0.062-1.617c0.031-0.549,0.074-1.084,0.131-1.609     l0.026-0.215c0.016-0.188,0.058-0.353,0.12-0.492c0.048-0.041,0.318-0.085,0.809-0.132c0.244-0.022,0.55,0.009,0.926,0.097     c0.323,0.13,0.723,0.206,1.199,0.234c0.481,0.025,1.002,0.066,1.574,0.125c0.471,0.05,0.863,0.138,1.16,0.267     c0.302,0.126,0.45,0.236,0.439,0.331l-1.16,11.133c-0.084,0.376-0.133,0.742-0.148,1.101c-0.015,0.359-0.064,0.727-0.147,1.104     c-0.104,0.518-0.172,1.04-0.202,1.565c-0.03,0.526-0.071,1.05-0.123,1.573l-0.129,1.214c-0.016,0.142-0.028,0.297-0.049,0.465     c-0.016,0.166-0.06,0.342-0.123,0.526c-0.063,0.091-0.107,0.267-0.128,0.527c-0.025,0.264-0.048,0.538-0.053,0.825     c-0.005,0.287-0.009,0.575-0.014,0.863c-0.009,0.289-0.015,0.479-0.025,0.574c-0.086,1.29-0.174,2.05-0.274,2.281     c-0.095,0.23-0.153,0.416-0.163,0.558c-0.12,0.662-0.176,1.329-0.174,2.001c0.002,0.675-0.033,1.346-0.1,2.01     c-0.045,0.909-0.125,1.803-0.244,2.68C215.277,460.545,215.171,461.437,215.083,462.338z"/>
			<path style="fill:#FF64C4;" d="M237.745,443.911c0.885,1.664,1.828,3.43,2.824,5.292c0.995,1.863,2.074,3.821,3.231,5.881     c0.205,0.682,0.48,1.302,0.816,1.868c0.335,0.566,0.678,1.047,1.049,1.445c0.173,0.392,0.396,0.868,0.658,1.429     c0.262,0.562,0.527,1.041,0.799,1.435l0.156-0.281l0.156-3.655c0.005-0.095,0.018-0.155,0.044-0.178     c0.026-0.024,0.039-0.082,0.044-0.176c-0.148-1.107-0.142-2.1,0.018-2.981c0.16-0.878,0.214-1.821,0.16-2.828     c0.062-0.332,0.103-0.643,0.113-0.93c0.01-0.287,0.025-0.573,0.035-0.859l0.019-3.734l0.382-8.886     c0.01-0.191,0.035-0.55,0.086-1.075c0.041-0.522,0.079-1.108,0.11-1.753c0.025-0.646,0.058-1.279,0.078-1.899     c0.03-0.621,0.05-1.1,0.065-1.434c0.01-0.191,0.049-0.368,0.132-0.533c0.079-0.162,0.31-0.237,0.691-0.222l2.366,0.103     c0.428,0.019,0.929,0.111,1.494,0.281c0.569,0.168,0.945,0.254,1.139,0.264l0.355,0.016c-0.065,1.624-0.132,3.287-0.177,4.981     c-0.049,1.697-0.094,3.299-0.138,4.805c-0.039,1.507-0.063,2.895-0.071,4.164c-0.009,1.267-0.004,2.285,0.012,3.049     c-0.067,0.382-0.095,0.75-0.084,1.111c0.011,0.358-0.022,0.73-0.084,1.109c-0.067,0.524-0.103,1.049-0.102,1.574     c0.001,0.527-0.013,1.054-0.033,1.58l-0.146,3.439c-0.008,1.291-0.069,2.321-0.172,3.081c-0.103,0.761-0.16,1.214-0.165,1.356     c-0.077,0.667-0.128,1.335-0.158,2.004c-0.03,0.671-0.06,1.339-0.085,2.008c0.002,0.91-0.031,1.804-0.118,2.687     c-0.087,0.883-0.125,1.778-0.118,2.687c-0.015,0.381-0.03,0.741-0.045,1.075c-0.015,0.334-0.009,0.694,0.028,1.078     c-0.015,0.24-0.281,0.347-0.803,0.325l-2.366-0.103c-0.579,0.072-1.039,0.076-1.368,0.013s-0.569-0.096-0.716-0.103     c-0.21-0.632-0.402-1.155-0.575-1.569c-0.173-0.415-0.359-0.817-0.558-1.208c-0.199-0.392-0.411-0.796-0.631-1.213     c-0.22-0.416-0.485-0.92-0.794-1.507c-0.136-0.245-0.311-0.575-0.532-0.992c-0.225-0.415-0.427-0.748-0.605-0.996     c-0.272-0.344-0.494-0.748-0.663-1.214c-0.178-0.459-0.468-0.891-0.882-1.293c-0.581-0.983-1.134-1.999-1.663-3.052     c-0.529-1.051-1.108-2.118-1.726-3.198c-0.628-1.032-1.348-2.104-2.16-3.218c-0.811-1.111-1.625-2.354-2.426-3.729     c-0.341-0.924-0.865-1.881-1.561-2.87c-0.701-0.985-1.298-1.921-1.78-2.804c0-0.096-0.021,0.095-0.062,0.572     c-0.046,0.477-0.079,1.013-0.105,1.608c-0.03,0.6-0.088,1.399-0.181,2.401l-0.02,0.572c0.027,0.386,0.014,0.753-0.048,1.111     c-0.067,0.356-0.106,0.727-0.121,1.107l-0.528,8.882l-0.015,3.732c-0.015,0.288-0.014,0.575-0.004,0.862     c0.011,0.289-0.015,0.598-0.077,0.931c0.069,0.672,0.057,1.379-0.02,2.116c-0.082,0.739-0.109,1.468-0.092,2.188     c0.016,0.669-0.014,1.146-0.102,1.431c-0.083,0.284-0.172,0.469-0.276,0.563l-5.656-0.245c-0.386-0.017-0.781-0.023-1.188-0.015     c-0.407,0.006-0.801-0.022-1.183-0.086c-0.047-0.001-0.071-0.208-0.077-0.614c-0.006-0.407,0.003-0.887,0.024-1.433     c0.025-0.55,0.047-1.112,0.072-1.687c0.025-0.572,0.04-1.002,0.055-1.29c0.03-0.669,0.069-1.347,0.125-2.039     c0.051-0.691,0.068-1.373,0.051-2.045c0.03-0.667,0.084-1.324,0.156-1.967c0.077-0.643,0.105-1.299,0.088-1.972     c0.02-0.476,0.027-0.872,0.016-1.184c-0.011-0.311-0.014-0.585,0.001-0.827l-0.095-1.078c-0.001-0.098,0.013-0.155,0.039-0.179     c0.026-0.021,0.039-0.081,0.044-0.178c-0.143-1.107-0.155-2.185-0.042-3.232c0.118-1.049,0.153-2.077,0.099-3.084     c0.062-0.332,0.098-0.642,0.114-0.927c0.015-0.288,0.025-0.574,0.035-0.861l0.019-3.734l0.596-8.876     c0.015-0.382,0.022-0.754,0.011-1.113c-0.006-0.358-0.025-0.732-0.057-1.117l0.458-0.626c0.241,0.012,0.645,0.017,1.219,0.018     c0.574,0,1.241,0.044,2.008,0.121c0.617,0.03,1.084,0.013,1.402-0.048c0.314-0.057,0.66-0.079,1.042-0.059     c0.24,0.009,0.436,0.053,0.608,0.131c0.157,0.08,0.384,0.126,0.672,0.138l1.504,0.066c0.126,0.388,0.314,0.802,0.556,1.245     c0.246,0.44,0.476,0.905,0.697,1.394c0.477,1.074,0.836,1.987,1.067,2.738c0.231,0.751,0.459,1.301,0.684,1.646     c0.178,0.247,0.403,0.59,0.67,1.033c0.267,0.442,0.539,0.909,0.801,1.399c0.267,0.489,0.521,0.992,0.762,1.504     C237.292,443.065,237.526,443.519,237.745,443.911z"/>
			<path style="fill:#FF64C4;" d="M285.997,465.514c0.231-0.105,0.538-0.215,0.916-0.331c0.374-0.112,0.747-0.3,1.12-0.559     c-0.026-0.62-0.032-1.17-0.008-1.651c0.02-0.478,0.024-0.98-0.002-1.507c-0.011-0.238-0.034-0.465-0.071-0.68     c-0.036-0.212-0.054-0.438-0.07-0.677c-0.011-0.286-0.042-0.548-0.073-0.787c-0.036-0.238-0.062-0.499-0.073-0.786     c-0.026-0.475-0.053-0.979-0.079-1.505c-0.022-0.527-0.14-0.974-0.35-1.348l-4.657,0.231l-0.212-1.353l-0.274-1.209     c-0.005-0.096-0.01-0.19-0.016-0.286c-0.005-0.096,0.015-0.193,0.061-0.291c0.333,0.031,0.74,0.025,1.216-0.024     c0.476-0.047,0.929-0.104,1.359-0.174c0.097-0.006,0.368-0.018,0.824-0.04c0.455-0.024,0.929-0.034,1.43-0.035     c0.507-0.002,0.973,0,1.402,0.002c0.435,0.002,0.699,0.002,0.791-0.004l0.86-0.041c0.532,0.069,0.995,0.057,1.4-0.033     c0.399-0.093,0.913-0.154,1.538-0.184c0.235-0.059,0.507-0.072,0.824-0.042c0.307,0.034,0.584,0.02,0.824-0.04     c0.184-0.009,0.31-0.003,0.356,0.019c0.046,0.022,0.197,0.146,0.448,0.372c-0.03,0.387-0.032,0.754-0.016,1.113     c0.016,0.36,0.04,0.73,0.056,1.113c0.073,0.523,0.137,1.033,0.184,1.533c0.047,0.502,0.061,1.016,0.041,1.543     c-0.019,0.673-0.008,1.341,0.029,2.01c0.032,0.669,0.064,1.338,0.095,2.006c0.038,0.719,0.069,1.387,0.101,2.008     c0.026,0.62,0.089,1.287,0.172,2.001l0.165,3.368c-0.019,0.624,0.009,1.159,0.077,1.613c0.073,0.452,0.034,0.704-0.104,0.76     c-0.373,0.257-0.903,0.391-1.594,0.401c-0.696,0.009-1.308,0.029-1.835,0.056l-4.079,0.201c-0.021-0.333-0.032-0.764-0.033-1.291     c-0.001-0.527-0.032-0.909-0.089-1.145l-0.358,0.017c-1.044,0.243-2.059,0.496-3.051,0.763c-0.993,0.264-2.009,0.54-3.047,0.832     c-0.241,0.059-0.448,0.104-0.642,0.141c-0.19,0.031-0.402,0.054-0.643,0.066c-0.619,0.03-1.216,0.046-1.789,0.052     c-0.573,0.003-1.128,0.021-1.651,0.045c-0.676-0.014-1.403-0.051-2.196-0.107c-0.794-0.057-1.362-0.148-1.705-0.274     c-0.579-0.164-1.375-0.448-2.374-0.852c-0.999-0.406-1.841-0.711-2.527-0.916c-0.4-0.363-0.797-0.667-1.192-0.912     c-0.394-0.243-0.797-0.571-1.197-0.982c-0.251-0.226-0.487-0.429-0.713-0.612c-0.225-0.179-0.44-0.359-0.636-0.543     c-0.856-0.771-1.579-1.646-2.179-2.62c-0.601-0.976-1.206-1.905-1.822-2.784c-0.129-0.615-0.36-1.154-0.694-1.617     c-0.333-0.462-0.514-1.004-0.545-1.625c-0.037-0.668-0.138-1.297-0.308-1.89c-0.175-0.588-0.27-1.146-0.302-1.672     c-0.011-0.334-0.012-0.79,0.008-1.366c0.02-0.575,0.05-1.173,0.089-1.8c0.04-0.623,0.095-1.2,0.166-1.73     c0.071-0.53,0.146-0.942,0.228-1.233c-0.021-0.431,0.024-0.935,0.141-1.515c0.117-0.58,0.259-1.065,0.427-1.457     c0.214-0.587,0.489-1.268,0.836-2.052c0.342-0.783,0.688-1.47,1.046-2.063c0.22-0.393,0.421-0.703,0.6-0.929     c0.184-0.224,0.36-0.459,0.539-0.707c0.352-0.69,0.809-1.321,1.381-1.902c0.568-0.576,1.132-1.072,1.684-1.482     c0.925-0.67,1.825-1.358,2.699-2.073c0.874-0.713,1.713-1.21,2.516-1.489c0.598-0.412,1.242-0.757,1.923-1.029     c0.68-0.272,1.35-0.545,2.005-0.817c0.936-0.429,1.857-0.712,2.762-0.855c0.901-0.141,1.822-0.352,2.768-0.639l1.72-0.085     c0.189-0.01,0.463-0.034,0.822-0.076c0.358-0.042,0.724-0.168,1.097-0.379l0.932-0.045c0.379-0.019,0.652-0.021,0.821-0.006     c0.169,0.017,0.546,0.106,1.129,0.266c0.201,0.233,0.265,0.527,0.188,0.889c-0.081,0.364-0.108,0.761-0.087,1.191l0.101,2.006     c-0.384-0.029-0.85,0.018-1.397,0.143c-0.543,0.121-1.088,0.255-1.63,0.403c-0.543,0.145-1.089,0.319-1.627,0.51     c-0.542,0.197-1,0.351-1.373,0.463c-0.614,0.271-1.281,0.602-1.997,0.996c-0.726,0.394-1.506,0.805-2.35,1.23     c-0.046,0.001-0.268,0.194-0.651,0.571c-0.389,0.377-0.825,0.794-1.305,1.25c-0.48,0.454-0.915,0.883-1.303,1.285     c-0.383,0.402-0.603,0.654-0.643,0.751c-0.858,1.095-1.481,2.203-1.883,3.325c-0.402,1.121-0.856,2.244-1.376,3.37     c-0.203,0.779-0.304,1.595-0.313,2.458c-0.003,0.863-0.074,1.775-0.22,2.741l0.106,2.148c0.227,0.756,0.453,1.462,0.679,2.122     c0.221,0.66,0.453,1.391,0.685,2.194c0.324,0.845,0.76,1.565,1.288,2.162c0.533,0.596,1.149,1.212,1.851,1.848     c0.251,0.227,0.735,0.598,1.458,1.113c0.717,0.515,1.391,0.878,2.026,1.086c0.532,0.165,1.07,0.28,1.597,0.35     c0.532,0.069,1.091,0.211,1.674,0.42c0.241,0.086,0.461,0.145,0.655,0.183s0.384,0.053,0.579,0.045     c0.665-0.034,1.3-0.112,1.888-0.238C284.631,465.775,285.281,465.647,285.997,465.514z"/>
			<path style="fill:#FF64C4;" d="M307.385,427.13c0.57-0.043,1.364-0.172,2.374-0.381c1.004-0.21,1.959-0.363,2.868-0.463     c0.895-0.143,1.539-0.271,1.934-0.384c0.395-0.111,0.73-0.189,1.019-0.236c0.325-0.053,0.695-0.04,1.09,0.042l0.744,4.602     c0.211,1.325,0.363,2.427,0.457,3.307c0.099,0.88,0.167,1.622,0.214,2.219s0.077,1.089,0.093,1.472     c0.012,0.388,0.043,0.746,0.095,1.076l0.723,4.461c0.067,0.425,0.164,0.894,0.301,1.405c0.128,0.514,0.189,0.915,0.19,1.205     c-0.078,0.4-0.036,0.83,0.135,1.286c0.086,0.23,0.16,0.543,0.226,0.943c0.062,0.404,0.131,0.816,0.198,1.241     c0.067,0.426,0.133,0.826,0.195,1.204c0.062,0.378,0.128,0.659,0.208,0.838c0.077,0.472,0.18,1.207,0.319,2.201     c0.134,0.995,0.276,2.027,0.425,3.091c0.145,1.068,0.286,2.099,0.421,3.095c0.139,0.994,0.267,1.724,0.389,2.189l3.119-0.501     c0.501,0.113,0.938,0.103,1.302-0.029c0.365-0.131,0.777-0.137,1.233-0.018l4.318-0.694c1.081,0.069,2.201,0.034,3.365-0.106     c1.165-0.139,2.209-0.331,3.138-0.579l2.834-0.456c0.06,0.088,0.146,0.171,0.261,0.248c0.06,0.086,0.126,0.173,0.186,0.261     c0.06,0.088,0.101,0.177,0.111,0.273c0.001,0.289,0.04,0.659,0.107,1.107c0.077,0.45,0.146,0.885,0.213,1.311     c0.067,0.425,0.106,0.794,0.107,1.107c0.001,0.315-0.02,0.478-0.07,0.485l-3.398,0.548c-1.174,0.238-2.181,0.435-3.026,0.594     c-0.849,0.162-1.696,0.311-2.541,0.447l-3.688,0.594c-0.786-0.068-1.485-0.051-2.096,0.045c-0.62,0.1-1.254,0.203-1.914,0.308     l-0.78,0.126c-0.38,0.062-0.772,0.111-1.172,0.153c-0.41,0.041-0.817,0.12-1.236,0.237c-0.66,0.105-1.48,0.284-2.459,0.539     c-0.974,0.252-1.839,0.441-2.598,0.563l-2.829,0.455c-0.342-0.622-0.572-1.202-0.685-1.742c-0.107-0.539-0.197-1.023-0.269-1.447     l-0.565-3.542c0.169-0.413,0.169-0.814-0.012-1.196c-0.187-0.382-0.316-0.808-0.388-1.282l-0.568-4.413     c-0.244-0.93-0.42-1.882-0.53-2.859c-0.109-0.975-0.24-1.934-0.394-2.878c-0.076-0.181-0.147-0.459-0.203-0.838     c-0.061-0.377-0.129-0.78-0.195-1.204c-0.067-0.426-0.141-0.838-0.203-1.239c-0.062-0.403-0.136-0.718-0.222-0.946     c-0.172-0.455-0.214-0.886-0.135-1.286c-0.001-0.291-0.063-0.691-0.195-1.204c-0.132-0.512-0.229-0.982-0.301-1.405     L307.385,427.13z"/>
			<path style="fill:#FF64C4;" d="M372.424,423.282c0.504,1.057,1.056,2.142,1.65,3.251c0.593,1.11,1.042,2.266,1.341,3.474     c0.319,0.513,0.586,1.147,0.798,1.908c0.212,0.761,0.387,1.395,0.508,1.907c0.152,0.603,0.267,1.129,0.353,1.574     c0.087,0.448,0.119,1.019,0.089,1.715c0.137,0.557,0.279,1.212,0.413,1.966c0.139,0.756,0.134,1.445-0.004,2.071     c-0.056,0.359-0.023,0.795,0.098,1.304c0.127,0.513,0.136,1.052,0.032,1.62l-0.358,2.157c-0.126,0.868-0.295,1.735-0.5,2.597     c-0.21,0.864-0.433,1.6-0.674,2.201c-0.048,0.207-0.169,0.484-0.348,0.825c-0.189,0.341-0.383,0.711-0.582,1.103     c-0.198,0.395-0.412,0.767-0.646,1.121c-0.234,0.352-0.418,0.645-0.559,0.876c-0.316,0.52-0.639,1.007-0.97,1.459     c-0.331,0.451-0.749,0.861-1.247,1.233c-0.162,0.136-0.33,0.265-0.496,0.381c-0.167,0.114-0.365,0.224-0.585,0.329     c-0.584,0.241-1.116,0.458-1.611,0.656c-0.495,0.196-0.988,0.378-1.489,0.552c-0.329,0.079-0.756,0.188-1.291,0.317     c-0.535,0.133-1.082,0.256-1.647,0.369c-0.56,0.114-1.078,0.206-1.554,0.276c-0.477,0.068-0.792,0.095-0.939,0.083     c-0.916-0.119-1.777-0.252-2.575-0.399c-0.803-0.148-1.582-0.473-2.348-0.973l-3.524-1.715c-1.229-0.583-2.279-1.345-3.152-2.288     s-1.645-1.97-2.317-3.085c-0.368-0.502-0.632-0.977-0.793-1.431c-0.16-0.451-0.404-0.834-0.727-1.15     c-0.565-1.289-1.066-2.471-1.507-3.545c-0.435-1.073-0.778-2.219-1.034-3.439c-0.088-0.568-0.22-1.201-0.393-1.898     c-0.172-0.695-0.29-1.38-0.359-2.053c0.009-0.149-0.004-0.516-0.047-1.097s-0.1-1.194-0.159-1.846     c-0.064-0.648-0.122-1.274-0.171-1.878c-0.049-0.604-0.069-0.98-0.06-1.131c0.088-1.449,0.213-2.775,0.386-3.974     c0.173-1.199,0.526-2.311,1.065-3.329l1.47-2.728c0.175-0.288,0.411-0.582,0.704-0.875c0.298-0.295,0.564-0.569,0.798-0.824     l1.303-1.285c0.386-0.438,0.99-0.893,1.807-1.369c0.818-0.473,1.521-0.831,2.1-1.072c0.584-0.242,1.226-0.475,1.937-0.7     c0.707-0.224,1.428-0.427,2.174-0.611c0.648-0.162,1.213-0.225,1.69-0.197c0.472,0.032,1.014,0.071,1.614,0.119     c0.197,0.002,0.499,0.013,0.898,0.037c0.399,0.026,0.847,0.087,1.339,0.187c0.492,0.1,1.005,0.245,1.547,0.431     c0.537,0.187,1.009,0.406,1.414,0.648c0.361,0.256,0.847,0.492,1.468,0.708c0.621,0.216,1.098,0.507,1.435,0.866     c0.139,0.165,0.313,0.319,0.52,0.462c0.208,0.146,0.406,0.294,0.589,0.446c0.51,0.466,1.124,1.053,1.843,1.763     C371.855,422.095,372.283,422.726,372.424,423.282z M361.738,442.546c0.182-0.045,0.289-0.12,0.313-0.225     c0.024-0.104,0.141-0.207,0.366-0.313c0.309-0.123,0.507-0.334,0.583-0.624c0.077-0.29,0.2-0.578,0.38-0.869     c-0.072-1.066-0.197-2.022-0.376-2.865c-0.188-0.837-0.402-1.772-0.655-2.793c-0.091-0.371-0.273-0.709-0.546-1.009     c-0.273-0.303-0.64-0.494-1.103-0.577c-0.473-0.131-0.828-0.166-1.058-0.108c-0.236,0.057-0.51,0.249-0.822,0.572     c-0.093,0.023-0.181,0.069-0.26,0.138c-0.083,0.07-0.166,0.14-0.245,0.207l-0.244,0.208c-0.129,0.476-0.244,0.922-0.335,1.338     c-0.095,0.419-0.097,0.814-0.006,1.185l0.862,3.481c0.276,0.721,0.605,1.256,0.986,1.605c0.386,0.349,0.87,0.624,1.462,0.822     L361.738,442.546z"/>
			<path style="fill:#FF64C4;" d="M409.684,435.411c-0.016,0.26-0.034,0.579-0.053,0.966c-0.02,0.384-0.046,0.785-0.08,1.201     c-0.033,0.417-0.057,0.829-0.072,1.237c-0.014,0.41-0.01,0.712,0.007,0.909c0.085,1.436,0.129,2.42,0.135,2.948     c0.001,0.529-0.048,1.013-0.149,1.452c-0.013,0.105-0.054,0.348-0.131,0.728c-0.073,0.378-0.138,0.627-0.199,0.749     c-0.211,0.122-0.31,0.168-0.291,0.138c0.014-0.031-0.162,0.015-0.523,0.14c-0.226,0.076-0.495,0.219-0.802,0.424     c-0.306,0.208-0.686,0.389-1.139,0.54c-0.183,0.062-0.448,0.129-0.805,0.2c-0.357,0.071-0.713,0.168-1.075,0.291     c-0.183,0.063-0.304,0.077-0.362,0.048c-0.063-0.028-0.184-0.012-0.367,0.049c-0.241,0.032-0.53,0.106-0.868,0.22     c-0.342,0.117-0.621,0.213-0.847,0.291c-0.366,0.124-0.677,0.217-0.932,0.279c-0.256,0.061-0.566,0.156-0.927,0.278     c-0.286-0.103-0.498-0.246-0.636-0.427c-0.137-0.18-0.335-0.352-0.594-0.519c-0.458-0.751-0.928-1.412-1.4-1.984     c-0.476-0.569-0.984-1.144-1.532-1.713c-0.352-0.284-0.652-0.573-0.903-0.866c-0.25-0.295-0.41-0.53-0.471-0.712     c0.015,0.045-0.107-0.063-0.376-0.325c-0.269-0.262-0.485-0.492-0.652-0.688c-0.412-0.465-1.001-1.224-1.763-2.277     c-0.762-1.053-1.527-1.954-2.286-2.707c-0.578-0.66-1.202-1.409-1.865-2.244c-0.663-0.835-1.31-1.573-1.932-2.221l-3.507-4.489     c-0.24-0.27-0.477-0.481-0.706-0.63c-0.229-0.149-0.442-0.367-0.639-0.654c-0.182-0.241-0.38-0.487-0.596-0.743     c-0.216-0.256-0.356-0.497-0.437-0.725c-0.243-0.118-0.446-0.34-0.605-0.662c-0.159-0.325-0.362-0.547-0.606-0.667     c-0.444-0.708-0.86-1.336-1.249-1.885c-0.388-0.548-0.794-1.056-1.201-1.523c-0.383-0.524-0.73-0.951-1.043-1.273     c-0.313-0.322-0.645-0.703-0.993-1.139c-0.035-0.089-0.07-0.203-0.12-0.338c-0.045-0.136,0.03-0.289,0.227-0.455     c0.301-0.306,0.553-0.594,0.768-0.868c0.209-0.273,0.452-0.585,0.737-0.937c0.302-0.301,0.674-0.656,1.114-1.062     c0.445-0.402,0.778-0.87,0.998-1.402c0.151-0.302,0.347-0.546,0.586-0.73c0.245-0.183,0.46-0.358,0.656-0.526     c0.181-0.213,0.265-0.329,0.259-0.354c-0.01-0.021,0.098-0.073,0.33-0.149l0.292,0.203l1.76,1.598     c0.21,0.181,0.526,0.54,0.939,1.081c0.413,0.541,0.794,1.032,1.147,1.465l2.514,3.159c0.079,0.076,0.309,0.352,0.697,0.823     c0.393,0.473,0.87,1.096,1.435,1.861l1.444,2.237l1.44,1.554c0.304,0.301,0.579,0.663,0.821,1.083     c0.247,0.422,0.503,0.79,0.759,1.107c0.397,0.421,0.682,0.803,0.845,1.15c0.174,0.346,0.307,0.604,0.416,0.768     c1.116,1.49,2.258,2.956,3.436,4.399c1.178,1.443,2.561,2.802,4.157,4.076c-0.06-0.181-0.033-0.317,0.092-0.411     c0.12-0.091,0.147-0.226,0.087-0.407c-0.098-0.876-0.033-1.72,0.194-2.53c0.227-0.81,0.291-1.754,0.171-2.825     c0.003-0.152-0.029-0.395-0.091-0.726c-0.062-0.332-0.075-0.581-0.028-0.748c0.104-0.592,0.087-1.218-0.038-1.883     c-0.124-0.665-0.056-1.422,0.209-2.27l0.054-2.293c0.039-0.771,0.07-1.413,0.097-1.927c0.028-0.513,0.026-1.044-0.01-1.589     c0.101-0.44,0.124-0.925,0.069-1.463c-0.055-0.536-0.105-1.076-0.136-1.623c-0.049-0.437-0.061-0.874-0.033-1.315     c0.029-0.438,0.026-0.854-0.008-1.248c-0.019-0.346-0.006-0.643,0.035-0.883c0.045-0.244,0.058-0.539,0.04-0.887     c0.001-0.303,0.024-0.625,0.088-0.975c0.053-0.349,0.067-0.644,0.035-0.886l0.026-2.587c0.06-0.272,0.034-0.605-0.073-0.998     c-0.111-0.391-0.113-0.731-0.01-1.019c0.106-0.44,0.138-0.792,0.096-1.056c-0.037-0.266-0.044-0.653-0.017-1.169     c-0.03-0.09,0.003-0.201,0.112-0.341c0.023-0.059,0.086-0.105,0.177-0.136l0.813-0.279c0.713,0.163,1.255,0.228,1.622,0.205     c0.372-0.024,0.938,0.034,1.694,0.179c0.454-0.003,1.006,0.036,1.669,0.112c0.659,0.079,1.206,0.171,1.647,0.272l1.002,0.493     c0.06,0.181,0.063,0.382,0.012,0.6c-0.05,0.22-0.038,0.443,0.042,0.668c-0.086,0.484-0.145,0.947-0.174,1.385     c-0.028,0.439-0.053,0.992-0.079,1.657l-0.03,1.905c0.126,0.817,0.081,1.653-0.131,2.509c-0.212,0.856-0.314,1.457-0.295,1.805     c0.053,0.741,0.001,1.479-0.154,2.214s-0.274,1.57-0.354,2.508c-0.071,0.53-0.076,1.149-0.009,1.859     c0.062,0.711,0.066,1.279,0.009,1.705c-0.101,0.438-0.128,0.837-0.08,1.199c0.048,0.363,0.007,0.72-0.129,1.068     c-0.046,0.168-0.04,0.482,0.019,0.941c0.054,0.463,0.076,0.822,0.064,1.079c-0.013,0.105-0.042,0.354-0.085,0.748     c-0.044,0.394-0.055,0.841-0.035,1.337c0.003,0.607-0.001,1.112-0.01,1.52c-0.014,0.412-0.03,0.667-0.044,0.773L409.684,435.411z     "/>
			<path style="fill:#FF64C4;" d="M439.6,388.99c0.073,0.646,0.294,1.28,0.672,1.897c0.378,0.619,0.698,1.236,0.966,1.848     c-0.175,0.077-0.469,0.27-0.882,0.583c-0.408,0.31-0.806,0.574-1.178,0.789c-0.175,0.077-0.381,0.153-0.608,0.226     c-0.232,0.076-0.399,0.163-0.512,0.264l-1.138,0.809l-3.674,1.61c-0.906,0.448-1.72,0.818-2.453,1.112     c-0.732,0.295-1.557,0.642-2.478,1.043c-0.174,0.078-0.419,0.213-0.725,0.399c-0.311,0.187-0.542,0.289-0.69,0.3     c0.095,0.221,0.145,0.405,0.162,0.554c0.012,0.151,0.068,0.337,0.163,0.557c0.102,0.111,0.279,0.426,0.531,0.942     c0.252,0.517,0.527,1.088,0.828,1.713c0.302,0.625,0.576,1.196,0.828,1.712c0.252,0.517,0.406,0.841,0.465,0.972l1.291,2.958     c0.154,0.349,0.292,0.629,0.41,0.839c0.118,0.21,0.304,0.492,0.562,0.847l3.811-1.667c0.704-0.307,1.371-0.571,2.004-0.797     c0.629-0.224,1.319-0.499,2.065-0.827c0.392-0.171,0.875-0.354,1.438-0.549c0.573-0.197,0.987-0.406,1.26-0.629     c0.211,0.376,0.442,0.773,0.674,1.193c0.236,0.419,0.433,0.802,0.582,1.153l0.462,1.05c-0.175,0.077-0.495,0.245-0.957,0.498     s-0.881,0.492-1.258,0.706l-2.758,1.209c-0.819,0.515-1.602,0.934-2.343,1.26c-0.751,0.327-1.583,0.689-2.499,1.091     c-0.174,0.078-0.387,0.195-0.632,0.354c-0.244,0.161-0.438,0.245-0.59,0.26l1.068,2.432c0.263,0.613,0.555,1.243,0.862,1.892     c0.311,0.646,0.635,1.183,0.981,1.606c0.343,0.79,0.673,1.52,0.994,2.189c0.321,0.668,0.602,1.29,0.855,1.857l0.487,1.119     c0.07-0.082,0.354-0.181,0.852-0.294c0.498-0.112,1.095-0.271,1.791-0.47c0.696-0.201,1.283-0.378,1.761-0.535     c0.478-0.157,0.942-0.257,1.394-0.298c0.262-0.008,0.756-0.161,1.489-0.455c0.733-0.294,1.207-0.489,1.425-0.584     c1.155-0.349,2.267-0.73,3.335-1.147c1.073-0.416,2.175-0.819,3.311-1.211l2.366-1.038c0.17-0.073,0.357-0.191,0.548-0.357     c0.188-0.16,0.327-0.257,0.416-0.298c0.565,0.693,1.02,1.407,1.367,2.141c0.347,0.737,0.684,1.475,1.012,2.221     c-0.255,0.372-0.645,0.673-1.169,0.903c-0.529,0.23-1.025,0.473-1.486,0.729c-0.307,0.134-0.643,0.254-1.012,0.365     c-0.369,0.109-0.734,0.241-1.083,0.394c-0.859,0.428-1.898,0.882-3.122,1.365c-1.224,0.484-2.253,0.96-3.092,1.431l-0.987,0.432     c-0.517,0.122-1.212,0.348-2.092,0.681c-0.87,0.328-1.527,0.59-1.966,0.783c-0.502,0.166-1.264,0.513-2.288,1.039     c-1.018,0.527-2.748,1.346-5.185,2.464c-0.09,0.038-0.382,0.169-0.888,0.389c-0.506,0.22-1.046,0.471-1.626,0.751     c-0.581,0.279-1.118,0.541-1.614,0.784c-0.496,0.242-0.785,0.384-0.875,0.423c-0.397-0.922-0.851-1.795-1.342-2.623     c-0.491-0.829-0.901-1.617-1.228-2.36c-0.194-0.439-0.436-0.932-0.727-1.484c-0.295-0.549-0.48-1.041-0.565-1.475     c-0.53-1.438-1.098-2.833-1.718-4.183c-0.614-1.347-1.229-2.722-1.84-4.124c-0.134-0.306-0.396-0.846-0.786-1.615     c-0.39-0.77-0.713-1.514-0.979-2.236l-1.021-1.979c-0.181-0.286-0.389-0.859-0.638-1.718c-0.244-0.857-0.526-1.583-0.832-2.18     c-0.489-0.987-0.921-1.855-1.297-2.604c-0.38-0.745-0.822-1.637-1.327-2.67c-0.45-0.9-0.835-1.815-1.161-2.741     c-0.326-0.926-0.673-1.807-1.036-2.64c-0.099-0.216-0.171-0.406-0.212-0.571c-0.046-0.163,0-0.38,0.147-0.653l3.408-1.336     c0.677-0.242,1.432-0.572,2.267-0.99c0.835-0.417,1.591-0.749,2.267-0.993c0.175-0.076,0.333-0.157,0.479-0.249     c0.146-0.087,0.299-0.17,0.479-0.248c0.132-0.059,0.416-0.181,0.855-0.374c0.439-0.191,0.897-0.393,1.379-0.603     c0.482-0.211,0.921-0.404,1.318-0.577c0.392-0.172,0.643-0.253,0.748-0.248c0.109,0.003,0.389-0.065,0.848-0.216     c0.454-0.147,0.795-0.269,1.012-0.365c0.133-0.056,0.328-0.154,0.578-0.29c0.254-0.138,0.521-0.267,0.809-0.394     c0.283-0.124,0.557-0.244,0.822-0.36c0.26-0.113,0.458-0.201,0.59-0.258c0.521-0.124,0.983-0.284,1.393-0.491     c0.401-0.202,0.857-0.387,1.358-0.556c0.042-0.02,0.276-0.109,0.702-0.269c0.426-0.159,0.915-0.334,1.459-0.52     s1.029-0.359,1.454-0.52C439.319,389.099,439.557,389.008,439.6,388.99z"/>
		</g>
		<g>
			<g>
				<path style="fill:#809EC9;" d="M106.123,185.197L240.061,45.538c7.866-8.202,20.947-8.309,28.946-0.236l136.557,137.816      l-155.046,41.047L106.123,185.197z"/>
			</g>
			<g>
				<path style="fill:#DCBFE1;" d="M379.409,387.614l-244.297,1.695c-15.227,0.106-27.657-12.153-27.763-27.38l-1.226-176.733      l299.44-2.078l1.226,176.733C406.895,375.079,394.636,387.508,379.409,387.614z"/>
			</g>
			<g>
				<path style="fill:#B3C9F7;" d="M379.409,387.614l-244.297,1.695c-15.227,0.106-27.657-12.153-27.763-27.38l-1.226-176.733      l299.44-2.078l1.226,176.733C406.895,375.079,394.636,387.508,379.409,387.614z"/>
			</g>
			<g>
				<path style="fill:#9BB5E2;" d="M106.123,185.197l0.001,0.103l78.323,60.45l26.902,16.745l23.521,22.172l11.913,9.195      c5.904-4.71,14.177-5.103,20.88-1.119l16.094-12.781l22.317-42.277l46.618-12.471l52.872-41.991l-0.001-0.103L106.123,185.197z"/>
			</g>
			<g>
				<path style="fill:#FF237D;" d="M273.315,93.723c-5.296-3.624-13.795-1.746-17.57,3.441c-0.558-6.391-6.87-12.384-13.277-12.012      c-6.928,0.402-11.1,4.406-12.658,11.144c-2.97,12.849,6.56,27.229,16.754,33.908c12.178-0.462,27.761-7.865,31.845-20.404      C280.551,103.224,279.042,97.641,273.315,93.723z"/>
			</g>
			<g>
				<g>
					<path style="fill:#FFEBFF;" d="M397.619,381.705l-131.648-88.429c-5.221-3.506-11.96-3.502-17.176,0.005l-132.012,88.797       l-1.435-2.135l132.012-88.797c6.082-4.093,13.955-4.097,20.045-0.007l131.648,88.429L397.619,381.705z"/>
				</g>
			</g>
			<g>
				<path style="fill:#FF237D;" d="M335.707,208.059c-11.837-3.998-26.776,4.003-31.115,15.715      c-4.416-11.683-19.407-19.586-31.218-15.51c-12.771,4.407-18.481,14.112-17.846,27.562      c0.835,17.694,13.206,33.615,28.229,44.134l68.935-54.748C350.51,217.103,344.951,211.181,335.707,208.059z"/>
			</g>
			<g>
				<path style="fill:#C4126A;" d="M224.528,234.777c-9.291-0.4-18.307,8.42-18.978,17.692c-4.592-6.116-13.764-8.905-21.103-6.719      l50.435,38.926c6.977-10.149,11.06-22.559,8.228-34.025C240.707,240.921,234.574,235.21,224.528,234.777z"/>
			</g>
			<g>
				<path style="fill:#FF237D;" d="M225.576,135.969c-12.484,0.508-23.564,13.33-23.421,25.819      c-8.308-9.325-25.135-11.334-34.702-3.297c-10.345,8.69-12.198,19.796-6.788,32.126c10.317,23.512,41.928,34.867,65.613,33.427      c18.471-14.895,34.178-44.585,25.96-68.91C247.928,142.378,239.075,135.42,225.576,135.969z"/>
			</g>
			<g>
				<path style="fill:#C4126A;" d="M331.255,150.48c-7.167-5.392-19.149-3.304-24.745,3.699c-0.378-8.957-8.812-17.72-17.78-17.604      c-9.696,0.126-15.774,5.454-18.372,14.762c-4.954,17.75,7.446,38.426,21.258,48.391c17.031,0.12,39.25-9.235,45.74-26.483      C340.759,164.199,339.004,156.31,331.255,150.48z"/>
			</g>
		</g>
	</g>
</g>















</svg>
