<?xml version="1.0" encoding="UTF-8"?>
<!-- Generator: Adobe Illustrator 25.2.1, SVG Export Plug-In . SVG Version: 6.00 Build 0)  -->
<svg xmlns="http://www.w3.org/2000/svg" xmlns:xlink="http://www.w3.org/1999/xlink" version="1.1" id="Capa_1" x="0px" y="0px" viewBox="0 0 512 512" style="enable-background:new 0 0 512 512;" xml:space="preserve" width="512" height="512">
<g>
	<path style="fill:#FFFFFF;" d="M393.281,262.84c-22.493-0.759-45.087,11.662-59.421,30.305c-0.868-1.764-1.75-3.594-2.656-5.471   c-0.644-1.339-1.298-2.691-1.963-4.059c-5.911-12.775-10.856-24.68-15.082-36.311c-4.188-11.749-8.082-24.417-11.574-37.654   c-0.409-1.703-0.822-3.381-1.23-5.036c-1.015-4.112-1.974-7.997-2.717-11.746c-0.249-1.191-0.511-2.363-0.767-3.517   c-0.317-1.417-0.63-2.805-0.886-4.142l-1.385-7.299c-0.793-4.253-1.485-8.145-2.105-11.617c-0.071-0.396-0.139-0.786-0.207-1.17   c1.032-0.788,2.07-1.569,3.11-2.343c2.502-1.855,5.11-3.757,7.904-5.755c8.356-1.332,17.315-5.627,23.961-9.417   c27.504-15.791,28.545-29.505,24.586-38.204c-2.708-5.98-8.424-9.963-15.681-10.924c-6.411-0.849-14.564,0.635-22.922,4.042   c0.759-5.952,1.071-11.975,0.923-17.993c-0.031-1.173-0.07-2.347-0.135-3.51c-0.649-11.99-3.05-23.603-7.136-34.516   c-1.27-3.398-2.751-6.81-4.409-10.156c-0.342-0.687-0.693-1.369-1.07-2.091c-4.486-8.53-9.943-15.81-16.217-21.637   c-7.592-7.049-15.718-11.189-24.156-12.307c-1.077-0.143-2.169-0.236-3.193-0.273c-0.156-0.007-0.31-0.011-0.465-0.013   c-0.134-0.007-0.262-0.012-0.377-0.014c-9.443-0.239-19.17,3.509-28.133,10.838c-5.923,4.845-11.293,10.923-15.95,18.057   c-2.919,4.468-5.553,9.311-7.831,14.397c-2.767,6.18-5.011,12.779-6.675,19.601c-8.109-3.34-16.452-5.821-24.928-7.407   c-3.939-0.74-8.029-1.291-12.101-1.629l-1.337-0.097c-11.068-0.786-21.441,0.176-30.833,2.867   c-12.054,3.457-21.366,9.767-26.93,18.245c-0.092,0.141-0.181,0.282-0.269,0.424c-0.072,0.108-0.14,0.211-0.199,0.302   c-5.469,8.552-7.419,19.635-5.639,32.046c1.948,13.606,7.689,27.353,17.059,40.858c4.973,7.169,10.876,13.978,17.549,20.242   l0.066,0.065c0.548,0.528,1.097,1.055,1.656,1.558c14.783,13.386,32.659,23.369,51.699,28.87   c5.677,1.641,11.458,2.888,17.205,3.715c-3.137,4.702-6.105,9.486-8.896,14.343c-10.985,19.271-19.665,40.168-25.078,60.338   c-2.303,8.363-4.144,16.635-5.49,24.644c-10.431-7.089-22.589-11.913-35.174-13.58c-10.331-1.368-20.265-0.535-29.527,2.474   c-36.06,11.724-55.086,39.58-53.575,78.437c1.029,26.497,12.176,53.373,32.214,77.691l0.27,0.327   c2.701,3.265,5.583,6.505,8.671,9.745l0.241,0.254c23.27,24.279,54.366,43.835,85.313,53.651c0.85,0.269,1.718,0.463,2.594,0.579   c2.135,0.283,4.317,0.109,6.397-0.523c29.339-8.905,59.388-26.795,82.455-49.092l0.351-0.338c0.988-0.96,1.964-1.929,2.899-2.879   l0.525-0.537c0.842-0.86,1.674-1.728,2.498-2.601c0.515,0.352,1.033,0.701,1.553,1.048c0.033,0.021,0.206,0.137,0.237,0.158   c24.147,16.064,54.012,27.105,84.09,31.089c7.112,0.942,14.165,1.469,20.964,1.565c3.066,0.044,6.075-0.843,8.627-2.544   c22.542-15.021,43.254-36.749,58.333-61.189c0.023-0.036,0.045-0.074,0.069-0.112c1.418-2.302,2.824-4.698,4.217-7.192l0.203-0.362   c0.645-1.164,1.276-2.33,1.85-3.419l0.363-0.697c1.901-3.633,3.678-7.334,5.268-10.965l0.257-0.59   c1.672-3.853,3.202-7.775,4.599-11.808c3.373-9.773,5.661-19.588,6.803-29.171c1.664-13.962,0.927-27.456-2.192-40.105   C455.38,285.231,429.911,264.076,393.281,262.84z M288.525,294.511l-0.378-0.013c-0.476-0.016-0.948-0.03-1.409-0.037   c-0.466-0.004-0.932-0.002-1.397,0.003l-0.572,0.006c-0.449,0.004-0.898,0.01-1.365,0.025c-0.581,0.018-1.158,0.046-1.699,0.078   c-0.523,0.028-1.048,0.057-1.642,0.1c-0.556,0.042-1.112,0.094-1.604,0.142c-0.565,0.052-1.13,0.112-1.695,0.179   c-0.543,0.065-1.084,0.137-1.676,0.221c-0.543,0.079-1.086,0.161-1.599,0.246c-0.537,0.09-1.07,0.183-1.645,0.292   c-0.557,0.105-1.112,0.219-1.641,0.332c-0.552,0.117-1.102,0.241-1.573,0.354c-0.407,0.096-0.814,0.197-1.226,0.305   c-3.553-1.731-7.285-3.262-11.154-4.574c-3.838-1.3-7.869-2.236-11.982-2.78c-12.844-1.701-26.378,0.451-38.806,5.638   c0.575-2.044,1.182-4.103,1.82-6.18c5.118-17.023,12.755-34.68,22.059-51.007c8.285-14.415,18.216-28.195,29.54-41.01   c0.018,0.133,0.038,0.266,0.056,0.398l0.321,2.299c0.684,5.553,1.745,11.059,2.869,16.888l0.429,2.229   c0.021,0.109,0.042,0.217,0.067,0.326c3.117,14.524,7.167,28.812,12.068,42.545c4.003,11.022,8.728,22.092,14.084,33.004   C288.69,294.515,288.607,294.513,288.525,294.511z"/>
	<g>
		<g>
			<path style="fill:#D6116E;" d="M392.769,277.999c-28.581-0.965-56.505,25.776-58.758,53.66     c-17.023-22.199-54.989-29.508-78.473-13.188c-25.392,17.646-31.915,42.111-22.123,70.526     c18.673,54.183,88.429,84.827,142.749,85.597c45.21-30.123,87.174-93.715,73.457-149.359     C442.428,296.052,423.673,279.042,392.769,277.999z"/>
		</g>
		<g>
			<path style="fill:#CC1545;" d="M432.656,359.473c-16.407,4.839-25.786,22.062-20.947,38.47c2.806,9.515,9.788,16.64,18.35,20.025     c11.158-18.109,19.035-38.047,21.419-58.054C445.603,357.888,439.072,357.581,432.656,359.473z"/>
		</g>
		<g>
			<g>
				<path style="fill:#CC1545;" d="M279.772,444.792c1.146-1.126,2.286-2.259,3.397-3.42c5.506-5.753,10.6-11.949,14.628-18.818      c9.038-15.413,12.349-33.733,11.596-51.584c-0.753-17.852-5.385-35.34-11.354-52.181c-1.012-2.857-2.138-5.776-3.465-8.575      c-13.759-1.863-27.997,0.586-39.035,8.257c-25.392,17.646-31.915,42.111-22.123,70.526      C241.346,412.009,258.508,430.757,279.772,444.792z"/>
			</g>
		</g>
		<g>
			<g>
				<path style="fill:#CC1545;" d="M304.265,429.63c-4.839-16.407-22.062-25.786-38.47-20.947      c-6.263,1.847-11.491,5.507-15.305,10.228c12.819,15.545,30.231,28.049,49.42,37.238      C305.125,448.695,307.038,439.035,304.265,429.63z"/>
			</g>
		</g>
		<path style="fill:#C1164B;" d="M265.795,408.683c-6.263,1.847-11.49,5.506-15.305,10.228c0.01,0.012,0.019,0.024,0.029,0.035    c0.753,0.913,1.524,1.814,2.309,2.706c0.098,0.111,0.197,0.222,0.295,0.333c0.773,0.872,1.558,1.736,2.36,2.588    c0.041,0.043,0.083,0.086,0.124,0.129c2.333,2.47,4.791,4.848,7.348,7.145c0.355,0.319,0.706,0.641,1.066,0.957    c0.607,0.533,1.225,1.057,1.843,1.581c0.507,0.429,1.015,0.856,1.529,1.278c0.554,0.456,1.112,0.908,1.675,1.357    c0.634,0.505,1.275,1.003,1.92,1.498c0.478,0.368,0.954,0.738,1.438,1.101c0.968,0.725,1.948,1.439,2.938,2.143    c0.179,0.128,0.354,0.26,0.534,0.387c1.214,0.855,2.444,1.693,3.687,2.516c0.064,0.042,0.129,0.083,0.193,0.125    c1.144-1.125,2.283-2.256,3.393-3.416c5.506-5.753,10.6-11.949,14.628-18.818c0.533-0.909,1.042-1.829,1.536-2.757    C291.792,409.754,278.549,404.922,265.795,408.683z"/>
		<g>
			<g>
				<g>
					<path style="fill:#770F5A;" d="M315.985,377.457c1.566,6.754,0.08,12.868-3.318,13.655c-3.398,0.788-7.422-4.049-8.988-10.803       c-1.566-6.754-0.08-12.868,3.318-13.655C310.395,365.866,314.419,370.703,315.985,377.457z"/>
				</g>
				<g>
					<path style="fill:#770F5A;" d="M402.133,357.486c1.566,6.754,0.08,12.868-3.318,13.655c-3.398,0.788-7.422-4.049-8.988-10.803       c-1.566-6.754-0.08-12.868,3.318-13.655C396.543,345.896,400.567,350.732,402.133,357.486z"/>
				</g>
			</g>
			<g>
				<g>
					<path style="fill:#54084E;" d="M326.46,372.72c0.014,0.06,0.018,0.121,0.032,0.181c1.865,8.046,7.195,14.388,14.047,17.815       l33.047-7.634c4.663-6.096,6.67-14.15,4.801-22.211c-0.014-0.06-0.036-0.117-0.05-0.177L326.46,372.72z"/>
				</g>
				<g>
					<path style="fill:#FFA25F;" d="M340.539,390.714c5.352,2.676,11.631,3.577,17.915,2.12c6.284-1.457,11.527-5.028,15.156-9.786       c-4.215-5.815-11.642-8.86-19.078-7.137C347.096,377.634,341.766,383.637,340.539,390.714z"/>
				</g>
			</g>
		</g>
		<g>
			<path style="fill:#FF237D;" d="M251.381,306.534c-28.1-9.524-63.85,8.67-74.444,35.691     c-10.256-27.152-45.777-45.789-73.994-36.616c-30.51,9.918-44.321,32.264-43.109,63.423     c2.31,59.415,62.415,110.758,116.14,127.801c53.933-16.372,114.673-66.962,117.723-126.344     C295.297,339.348,281.765,316.832,251.381,306.534z"/>
		</g>
		<g>
			<g>
				<path style="fill:#8D8C59;" d="M293.692,51.817c-3.922-10.476-9.615-20.472-17.812-28.084      c-4.893-4.543-10.974-8.291-17.646-8.541c-0.102-0.004-0.202,0.008-0.304,0.006c-0.102-0.005-0.201-0.023-0.303-0.025      c-6.674-0.169-12.979,3.19-18.147,7.417c-8.659,7.082-14.968,16.702-19.54,26.911c-12.911,28.835-11.661,63.648,3.947,91.235      c5.72,10.111,15.44,19.035,25.665,24.548l3.89-7.166l4.96,7.444c10.551-4.86,19.284-13.205,25.627-22.937      C301.337,116.071,304.768,81.406,293.692,51.817z"/>
			</g>
			<g>
				<path style="fill:#706E49;" d="M289.068,133.833c0.73-1.433,1.416-2.884,2.074-4.35c-17.777,10.276-32.678,18.143-33.966,19.576      c0.33-3.25,0.645-6.653,0.942-10.191c0.754-9.542,1.346-20.053,1.6-31.099c0.008-0.422,0.013-0.838,0.02-1.258      c1.781-0.723,5.378-2.504,10.24-5.054c6.927-3.634,16.407-8.821,26.794-14.7c1.093-0.618,2.166-1.229,3.233-1.837      c-0.025-1.027-0.059-2.054-0.115-3.08c-1.471,0.825-2.96,1.663-4.475,2.52c-10.38,5.874-19.702,11.327-26.384,15.394      c-4.381,2.667-7.616,4.733-9.281,5.937c0.164-10.287,0.024-20.099-0.299-29.061c-0.198-4.841-0.441-9.433-0.72-13.724      c3.146-1.48,13.684-8.343,26.246-16.573c1.686-1.107,3.329-2.187,4.927-3.238c-0.402-0.812-0.808-1.623-1.236-2.421      c-1.692,1.073-3.429,2.193-5.201,3.356c-12.084,7.916-21.843,15.257-24.794,18.023c-0.259-3.861-0.546-7.481-0.859-10.793      c-0.294-3.606-0.687-6.857-1.005-9.712c-0.31-2.857-0.642-5.31-0.944-7.311c-0.588-4.004-1.003-6.205-1.192-6.184      c-0.189,0.022-0.134,2.263,0.125,6.294c0.149,2.29,0.307,4.729,0.477,7.34c0.171,2.862,0.427,6.114,0.596,9.717      c0.177,2.963,0.342,6.171,0.493,9.571c-3.729-3.506-14.284-12.018-26.996-21.691c-0.925-0.704-1.839-1.396-2.744-2.081      c-0.502,0.768-0.991,1.544-1.467,2.33c0.839,0.643,1.683,1.288,2.543,1.943c13.337,10.15,24.828,18.366,28.712,20.6      c0.196,4.555,0.366,9.447,0.502,14.633c0.181,8.493,0.25,17.742,0.109,27.437c-1.481-1.469-3.672-3.509-6.435-5.97      c-5.562-4.955-13.443-11.576-22.403-18.569c-5.156-4.022-10.09-7.71-14.537-10.93c-0.198,0.888-0.407,1.774-0.581,2.667      c4.339,3.373,8.764,6.812,13.424,10.434c8.07,6.32,15.464,12.11,22.852,17.895c3.346,2.6,5.957,4.58,7.658,5.771      c-0.012,0.755-0.023,1.506-0.038,2.265c-0.253,10.995-0.765,21.46-1.377,30.971c-0.218,3.144-0.444,6.173-0.675,9.094      c-1.592-1.497-4.274-3.804-7.817-6.66c-6.119-4.936-14.827-11.448-24.802-18.124c-2.602-1.739-5.157-3.398-7.64-4.974      c0.36,1.343,0.768,2.672,1.184,3.999c1.618,1.065,3.254,2.147,4.925,3.264c9.923,6.642,18.763,12.868,25.161,17.39      c4.045,2.857,7.124,5.011,8.908,6.134c-0.286,3.562-0.581,6.917-0.879,10.083l1.784,2.678c0.492-3.775,0.968-7.875,1.416-12.28      c0.578,0.103,4.601-1.508,10.713-4.402C273.526,142.203,280.961,138.395,289.068,133.833z"/>
			</g>
		</g>
		<g>
			<g>
				<path style="fill:#A3A667;" d="M171.699,70.404c-12.333-2.31-25.232-2.641-37.294,0.816      c-7.199,2.063-14.324,5.728-18.433,11.989c-0.063,0.096-0.11,0.199-0.17,0.296c-0.064,0.095-0.138,0.18-0.2,0.276      c-4.033,6.31-4.464,14.311-3.402,21.724c1.779,12.421,7.356,24.057,14.508,34.366c20.199,29.118,54.348,48.105,89.886,49.118      c13.025,0.371,27.23-3.786,38.452-10.406l-4.625-7.89l10.023-0.445c1.452-12.949-1.496-26.173-7.162-37.907      C237.824,100.325,206.531,76.928,171.699,70.404z"/>
			</g>
			<g>
				<path style="fill:#848156;" d="M247.762,122.404c-0.952-1.532-1.948-3.033-2.974-4.514c-0.443,23.027-1.53,41.896-0.901,43.964      c-2.929-2.201-6.014-4.477-9.239-6.814c-8.724-6.257-18.474-12.921-28.932-19.57c-0.4-0.253-0.797-0.498-1.197-0.749      c0.339-2.129,0.715-6.616,1.086-12.762c0.528-8.759,1.045-20.868,1.424-34.25c0.04-1.407,0.076-2.792,0.112-4.169      c-1.001-0.572-2.007-1.134-3.025-1.676c-0.061,1.891-0.12,3.806-0.175,5.758c-0.379,13.373-0.55,25.485-0.519,34.259      c0.02,5.753,0.127,10.057,0.319,12.354c-9.781-6.122-19.284-11.678-28.075-16.565c-4.763-2.617-9.312-5.047-13.595-7.267      c0.404-3.879-0.076-17.976-0.692-34.81c-0.085-2.261-0.169-4.464-0.252-6.609c-1.013-0.085-2.026-0.166-3.041-0.217      c0.049,2.247,0.117,4.564,0.206,6.94c0.593,16.193,1.982,29.819,2.927,34.257c-3.857-1.99-7.499-3.814-10.861-5.434      c-3.633-1.808-6.982-3.316-9.908-4.667c-2.923-1.359-5.471-2.463-7.567-3.333c-4.186-1.757-6.539-2.636-6.628-2.442      c-0.089,0.194,2.095,1.442,6.116,3.53c2.285,1.185,4.719,2.447,7.324,3.799c2.847,1.495,6.118,3.135,9.676,5.062      c2.947,1.548,6.123,3.25,9.475,5.076c-5.529,1.547-19.822,6.746-36.481,13.341c-1.213,0.48-2.407,0.956-3.589,1.429      c0.447,0.927,0.907,1.847,1.386,2.759c1.103-0.433,2.213-0.869,3.34-1.315c17.479-6.92,32.031-13.187,36.429-15.621      c4.486,2.453,9.283,5.127,14.341,8.003c8.259,4.751,17.18,10.048,26.406,15.806c-2.269,0.57-5.499,1.491-9.463,2.717      c-7.983,2.466-18.91,6.194-30.82,10.741c-6.852,2.619-13.254,5.216-18.924,7.62c0.738,0.705,1.468,1.419,2.224,2.104      c5.754-2.21,11.622-4.464,17.802-6.838c10.747-4.083,20.594-7.825,30.434-11.563c4.437-1.705,7.851-3.064,9.982-4.006      c0.717,0.45,1.432,0.895,2.153,1.35c10.41,6.618,20.161,13.179,28.938,19.282c2.893,2.033,5.67,4.006,8.34,5.921      c-2.361,0.661-6.131,1.897-10.928,3.643c-8.288,3.013-19.59,7.598-31.784,13.304c-3.178,1.49-6.253,2.98-9.206,4.451      c1.499,0.433,3.011,0.812,4.526,1.182c1.961-0.935,3.949-1.879,5.99-2.835c12.131-5.676,23.236-10.553,31.288-14.074      c5.088-2.227,8.943-3.935,11.055-4.996c3.254,2.34,6.305,4.569,9.171,6.69l3.606-0.16c-3.339-2.661-7-5.496-10.969-8.481      c0.434-0.495,1.22-5.292,1.986-12.839C246.787,142.18,247.441,132.834,247.762,122.404z"/>
			</g>
		</g>
		<g>
			<g>
				<g>
					<path style="fill:#770F5A;" d="M142.59,403.313c0.683,0.077,2.11-3.27,2.864-9.311c0.301-3.009,0.355-6.848-1.061-10.981       c-1.425-4.146-4.462-8.161-8.679-10.897c-4.208-2.733-9.203-3.857-13.553-3.354c-4.354,0.465-7.913,2.255-10.423,4.189       c-2.534,1.951-4.038,4.084-4.802,5.647c-0.774,1.572-0.833,2.588-0.531,2.75c0.734,0.439,2.738-2.653,7.454-5.158       c2.328-1.226,5.329-2.292,8.678-2.397c3.316-0.13,6.949,0.829,10.201,2.919c3.234,2.103,5.642,5.067,6.943,8.102       c1.331,3.085,1.714,6.322,1.904,9.089C141.848,399.493,141.777,403.228,142.59,403.313z"/>
				</g>
			</g>
			<g>
				<g>
					<path style="fill:#770F5A;" d="M206.738,407.511c0.817,0.025,1.25-3.686,2.266-9.181c0.561-2.716,1.378-5.871,3.113-8.749       c1.699-2.832,4.484-5.443,7.973-7.091c3.504-1.632,7.233-2.092,10.502-1.516c3.304,0.556,6.133,2.017,8.275,3.546       c4.334,3.119,5.902,6.453,6.689,6.117c0.321-0.12,0.4-1.134-0.155-2.797c-0.546-1.651-1.748-3.968-3.996-6.243       c-2.227-2.255-5.511-4.509-9.763-5.557c-4.243-1.085-9.343-0.646-13.881,1.495c-4.548,2.142-8.099,5.711-10.07,9.626       c-1.962,3.904-2.425,7.715-2.534,10.737C205.088,403.986,206.051,407.494,206.738,407.511z"/>
				</g>
			</g>
			<g>
				<g>
					<path style="fill:#770F5A;" d="M190.551,397.82c-0.807-0.181-1.775,2.24-4.395,4.946c-2.51,2.695-7.12,5.671-12.427,5.612       c-5.307-0.113-9.817-3.238-12.238-6.013c-2.531-2.789-3.42-5.24-4.232-5.086c-0.356,0.064-0.61,0.783-0.56,2.079       c0.043,1.293,0.499,3.145,1.608,5.209c1.1,2.062,2.935,4.276,5.536,6.076c2.581,1.798,6.007,3.119,9.797,3.209       c3.791,0.032,7.259-1.177,9.896-2.89c2.659-1.714,4.565-3.868,5.731-5.893c1.176-2.026,1.691-3.862,1.776-5.154       C191.135,398.622,190.905,397.895,190.551,397.82z"/>
				</g>
			</g>
		</g>
		<g>
			<g>
				<path style="fill:#FF2453;" d="M266.585,399.415c-17.747-0.111-32.224,14.187-32.335,31.934      c-0.064,10.292,4.736,19.462,12.226,25.39c16.51-14.644,30.309-32.087,38.673-51.246      C279.919,401.72,273.525,399.458,266.585,399.415z"/>
			</g>
			<g>
				<path style="fill:#FF2453;" d="M118.031,430.626c0.111-17.747-14.187-32.224-31.934-32.335      c-6.774-0.042-13.064,2.026-18.268,5.573c8.074,19.283,21.623,36.921,37.929,51.798      C113.171,449.82,117.967,440.798,118.031,430.626z"/>
			</g>
		</g>
		<g>
			<g>
				<g>
					<path style="fill:#770F5A;" d="M312.174,127.759c-7.095,3.481-17.219,8.82-29.212,16.47       c-5.988,3.834-12.432,8.266-19.074,13.465c-6.655,5.17-13.406,11.323-20.008,18.064c-13.226,13.546-26.251,30.049-37.18,49.062       c-10.857,19.046-18.721,38.555-23.634,56.852c-2.512,9.134-4.392,17.946-5.655,26.261c-1.377,8.298-2.032,16.111-2.519,23.226       c-0.545,10.46-0.342,19.439,0.214,26.603c1.744-0.403,3.541-0.616,5.313-0.707c0.358-6.918,0.979-15.413,2.183-25.199       c0.961-6.859,2.029-14.359,3.741-22.301c1.599-7.959,3.735-16.369,6.412-25.074c5.244-17.444,13.054-35.981,23.433-54.199       c10.457-18.191,22.68-34.173,35.011-47.582c6.206-6.719,12.304-12.723,18.461-17.999c6.131-5.289,12.125-9.951,17.699-14.1       c11.166-8.286,20.602-14.594,26.993-19.179c6.409-4.564,9.82-7.354,9.435-8.012       C323.411,122.763,319.284,124.302,312.174,127.759z"/>
				</g>
			</g>
			<g>
				<g>
					<path style="fill:#770F5A;" d="M344.992,347.818c1.382-1.049-4.923-11.226-14.18-27.93c-1.166-2.125-2.368-4.313-3.604-6.565       c-1.263-2.274-2.433-4.722-3.738-7.198c-2.654-4.931-5.177-10.356-7.93-16.005c-5.283-11.408-10.717-24.103-15.665-37.722       c-4.866-13.648-8.794-26.884-11.998-39.04c-1.464-6.109-2.997-11.893-4.085-17.385c-0.574-2.739-1.216-5.374-1.707-7.928       c-0.479-2.524-0.945-4.976-1.396-7.357c-3.496-18.77-5.087-30.634-6.823-30.567c-0.801,0.032-1.386,3.045-1.752,8.514       c-0.092,1.367-0.17,2.887-0.234,4.553c-0.034,1.663,0.009,3.465,0.039,5.406c0.097,3.877,0.142,8.312,0.627,13.174       c0.22,2.475,0.447,5.025,0.681,7.649c0.267,2.658,0.701,5.401,1.083,8.254c0.705,5.72,1.92,11.751,3.142,18.116       c2.718,12.665,6.464,26.45,11.494,40.551c5.112,14.072,11.034,27.071,17.015,38.559c3.102,5.69,6.026,11.102,9.119,15.962       c1.524,2.441,2.925,4.839,4.425,7.05c1.489,2.173,2.936,4.283,4.341,6.333c2.718,4.059,5.514,7.503,7.9,10.559       c1.212,1.515,2.321,2.936,3.41,4.193c1.108,1.244,2.134,2.369,3.074,3.366C341.986,346.348,344.352,348.303,344.992,347.818z"/>
				</g>
			</g>
			<g>
				<g>
					<path style="fill:#770F5A;" d="M339.032,115.661c-1.86-4.107-14.001-2.615-26.476,4.538       c-12.489,7.13-19.927,16.84-17.329,20.525c2.621,3.732,13.728,0.434,25.485-6.27       C332.449,127.717,340.921,119.812,339.032,115.661z"/>
				</g>
			</g>
		</g>
		<g>
			<g>
				<g>
					<path style="fill:#770F5A;" d="M199.544,348.709c-0.403-0.372-2.451,1.561-6.263,3.645c-3.76,2.092-9.538,4.163-16.021,3.865       c-6.482-0.314-12.039-2.92-15.585-5.357c-3.598-2.434-5.455-4.552-5.892-4.219c-0.354,0.23,0.822,2.986,4.343,6.192       c3.44,3.18,9.546,6.568,16.966,6.928c7.421,0.342,13.82-2.456,17.544-5.298C198.444,351.604,199.875,348.972,199.544,348.709z"/>
				</g>
			</g>
			<g>
				<g>
					<path style="fill:#770F5A;" d="M357.697,334.749c-0.467-0.232-1.723,1.786-4.348,4.314c-2.582,2.524-6.78,5.481-12.063,6.687       c-5.286,1.192-10.348,0.336-13.767-0.826c-3.459-1.147-5.463-2.426-5.784-2.014c-0.276,0.308,1.253,2.352,4.838,4.239       c3.51,1.882,9.289,3.329,15.469,1.936c6.177-1.41,10.765-5.21,13.12-8.423C357.582,337.412,358.079,334.908,357.697,334.749z"/>
				</g>
			</g>
		</g>
		<g>
			<g>
				<g>
					<path style="fill:#FFEBFF;" d="M90.14,325.717c-0.517-0.672-3.448,0.429-7.214,3.661c-1.889,1.6-3.89,3.785-5.834,6.435       c-1.896,2.678-3.703,5.837-5.136,9.357c-1.396,3.535-2.271,7.068-2.75,10.314c-0.424,3.258-0.487,6.221-0.226,8.683       c0.49,4.938,1.849,7.758,2.687,7.63c0.951-0.131,1.261-3.065,1.956-7.507c0.328-2.226,0.846-4.83,1.528-7.667       c0.738-2.828,1.673-5.885,2.902-9.008c1.268-3.107,2.704-5.963,4.124-8.518c1.467-2.523,2.891-4.764,4.192-6.599       C88.934,328.804,90.737,326.469,90.14,325.717z"/>
				</g>
			</g>
			<g>
				<g>
					<path style="fill:#FFEBFF;" d="M101.387,317.737c-0.274-1.783-2.992-2.839-5.886-1.757c-2.895,1.079-4.257,3.657-3.296,5.183       c0.965,1.548,3.377,1.786,5.593,0.972C100.006,321.298,101.673,319.538,101.387,317.737z"/>
				</g>
			</g>
			<g>
				<g>
					<path style="fill:#FFEBFF;" d="M440.484,342.146c0.873-0.012,1.723-2.493,1.785-6.608c0.072-4.096-0.805-9.807-3.173-15.642       c-2.381-5.829-5.743-10.529-8.656-13.409c-2.919-2.901-5.261-4.082-5.894-3.481c-1.348,1.326,4.291,8.894,8.466,19.367       C437.342,332.784,438.593,342.139,440.484,342.146z"/>
				</g>
			</g>
			<g>
				<g>
					<path style="fill:#FFEBFF;" d="M419.985,299.457c0.575-0.694,0.602-1.755,0.029-2.893c-0.564-1.132-1.748-2.311-3.348-3.077       c-1.601-0.765-3.262-0.946-4.497-0.675c-1.245,0.267-2.055,0.954-2.234,1.837c-0.303,1.804,1.551,3.619,3.896,4.764       C416.193,300.52,418.771,300.825,419.985,299.457z"/>
				</g>
			</g>
		</g>
	</g>
</g>















</svg>
