<?xml version="1.0" encoding="UTF-8"?>
<!-- Generator: Adobe Illustrator 25.2.1, SVG Export Plug-In . SVG Version: 6.00 Build 0)  -->
<svg xmlns="http://www.w3.org/2000/svg" xmlns:xlink="http://www.w3.org/1999/xlink" version="1.1" id="Capa_1" x="0px" y="0px" viewBox="0 0 512 512" style="enable-background:new 0 0 512 512;" xml:space="preserve" width="512" height="512">
<g>
	<path style="fill:#FFFFFF;" d="M434.634,175.319c-1.944-5.459-6.561-9.535-12.217-10.792l-41.118-9.136   c2.788-4.704,4.652-9.289,5.698-14.016c0.892-4.073,1.092-7.899,0.629-11.559c-0.611-5.21-2.558-10.147-5.681-14.339   c-5.572-7.408-14.379-11.83-24.228-12.138c-1.894-0.051-3.824,0.05-5.734,0.303c-5.198,0.687-9.454,2.372-12.206,3.578   c-0.118,0.054-0.234,0.105-0.352,0.161c-2.182,1.016-4.313,2.109-6.388,3.275c-5.557-4.777-12.42-7.997-19.837-9.092l9.781-79.181   c1.018-8.245-4.123-16-12.112-18.273c-0.995-0.285-24.725-6.886-56.005-2.755c-24.6,3.249-47.146,12.082-67.019,26.256   c-4.614,3.291-7.263,8.681-7.054,14.346c0.004,0.048,0.013,0.315,0.015,0.366l2.709,58.705l-4.579-0.006   c-1.731-0.001-3.476,0.112-5.185,0.337c-19.334,2.554-33.928,19.2-33.948,38.715l-0.004,3.854   c-0.011,12.543,5.832,23.765,15.08,30.943c-0.742,4.554,0.103,8.513,2.518,11.856c-12.953,5.743-25.192,12.781-36.514,21.005   l-1.141,0.833c-1.214,0.898-2.42,1.801-3.623,2.731l-0.625,0.494c-3.794,2.96-7.514,6.1-11.044,9.309l-1.155,1.054   c-1.056,0.977-2.103,1.96-3.111,2.939l-1.001,0.983c-3.238,3.175-6.389,6.503-9.326,9.84c-0.453,0.514-0.906,1.031-1.357,1.556   c-0.846,0.983-1.683,1.969-2.524,2.992l-1.306,1.613c-1.712,2.12-3.362,4.264-5.045,6.547l-0.486,0.654   c-0.605,0.833-1.193,1.677-1.781,2.521l-0.412,0.591c-0.446,0.644-0.893,1.285-1.324,1.927c-0.63,0.934-1.252,1.874-1.861,2.812   c-0.531,0.816-1.05,1.643-1.547,2.441l-0.329,0.524c-0.457,0.732-0.917,1.464-1.359,2.202c-0.94,1.567-1.851,3.14-2.736,4.728   c-0.378,0.676-0.744,1.362-1.111,2.049l-0.254,0.475c-0.531,0.989-1.059,1.981-1.568,2.978c-0.443,0.865-0.874,1.732-1.303,2.603   c-0.521,1.062-1.029,2.131-1.55,3.249l-0.306,0.658c-0.257,0.549-0.513,1.102-0.77,1.672c-0.788,1.764-1.55,3.54-2.293,5.362   c-0.179,0.44-0.35,0.886-0.522,1.33l-0.255,0.659c-0.502,1.285-0.994,2.57-1.479,3.901c-0.277,0.764-0.548,1.533-0.834,2.352   c-0.443,1.284-0.871,2.571-1.288,3.878l-0.181,0.56c-0.169,0.52-0.336,1.037-0.485,1.53c-0.592,1.937-1.155,3.884-1.691,5.895   l-0.336,1.344c-0.41,1.594-0.798,3.198-1.169,4.835c-0.159,0.711-0.313,1.423-0.456,2.116c-0.313,1.464-0.601,2.934-0.87,4.4   l-0.361,1.983c-0.358,2.085-0.684,4.176-0.954,6.232l-0.093,0.766c-0.24,1.898-0.448,3.805-0.622,5.695l-0.167,2.009   c-0.128,1.582-0.235,3.172-0.315,4.768l-0.097,1.936c-0.088,2.175-0.145,4.358-0.148,6.554c-0.003,2.046,0.033,4.081,0.107,6.11   c0.354,9.994,1.615,20.004,3.754,29.76c1.265,5.75,2.848,11.494,4.708,17.067c1.228,3.689,2.61,7.391,4.094,10.987   c0.743,1.801,1.521,3.591,2.333,5.384c12.235,26.978,31.424,50.749,55.911,69.415c0,0.115-0.003,0.23-0.003,0.348   c-0.007,6.385,2.474,12.391,6.985,16.91c4.509,4.52,10.51,7.011,16.895,7.018L338.485,512c1.055,0.001,2.118-0.068,3.162-0.206   c10.326-1.363,18.44-9.297,20.341-19.229c0.941-0.653,1.873-1.312,2.793-1.978c0.237-0.164,0.47-0.33,0.549-0.391   c1.92-1.395,3.804-2.831,5.643-4.274l1.515-1.212c1.39-1.116,2.765-2.245,4.141-3.412l1.554-1.326   c1.54-1.335,3.054-2.689,4.664-4.173l0.588-0.537c1.735-1.618,3.434-3.273,5.141-4.987l1.038-1.072   c1.319-1.346,2.614-2.712,3.843-4.047l1.325-1.45c1.345-1.495,2.67-3.011,4.129-4.738l0.493-0.581   c1.541-1.843,3.039-3.714,4.528-5.644l0.634-0.847c1.221-1.604,2.413-3.233,3.536-4.821l1.017-1.444   c1.148-1.653,2.265-3.325,3.329-4.975l0.616-0.944c1.307-2.052,2.573-4.127,3.694-6.065c0.146-0.246,0.289-0.498,0.364-0.643   c1.089-1.888,2.132-3.793,3.112-5.654l0.768-1.476c0.919-1.784,1.805-3.581,2.655-5.384l0.51-1.071   c0.99-2.135,1.941-4.291,2.844-6.466c0.084-0.195,0.163-0.389,0.241-0.589c8.269-20.186,12.473-41.433,12.496-63.167   c0.019-18.79-3.069-37.161-9.197-54.807l26.299-14.221c7.312-3.954,10.648-12.65,7.857-20.481L434.634,175.319z"/>
	<g>
		<g>
			<path style="fill:#FFB92B;" d="M197.631,41.33l6.639,143.978c0.272,5.882,3.657,11.149,8.882,13.865     c12.013,6.243,35.676,13.978,63.836-0.673c4.833-2.515,8.154-7.236,8.821-12.643l20.448-165.54     C306.258,20.316,249.669,4.209,197.631,41.33z"/>
		</g>
		<g>
			<path style="fill:#6150D8;" d="M303.968,195.26c2.154-19.765,4.996-44.009,6.187-46.078l-55.115-10.665l0.061-5.03l-13.098,2.508     l-13.094-2.534l0.051,5.031l-55.136,10.557c1.204,2.099,4.058,26.982,6.183,46.891     c-68.189,23.171-116.773,82.848-116.842,152.889c-0.058,58.85,34.154,110.449,85.503,139.265l188.45,0.185     c51.407-28.715,85.719-80.247,85.777-139.097C422.965,278.324,373.365,217.973,303.968,195.26z"/>
		</g>
		<g>
			<g>
				<path style="fill:#483FBA;" d="M346.377,399.217c-40.236,1.967-80.114,11.621-120.344,9.542s-83.264-19.255-100.882-55.482      c-14.189-29.176-8.949-63.825-0.917-95.259c3.307-12.943,7.038-25.986,9.989-39.096      c-43.128,29.801-71.006,76.875-71.058,129.906c-0.058,58.85,34.154,110.449,85.504,139.265l188.45,0.185      c33.86-18.914,60.298-47.73,74.422-82.013C390.837,399.882,368.081,398.155,346.377,399.217z"/>
			</g>
		</g>
		<g>
			<path style="fill:#FC9124;" d="M197.631,41.33l0.01,0.216c34.781,12.378,75.746,6.382,105.24-15.938     c1.024-0.775,2.023-1.595,3.021-2.415l0.355-2.878C306.258,20.316,249.668,4.209,197.631,41.33z"/>
		</g>
		<g>
			<g>
				<path style="fill:#FC9124;" d="M295.232,68.847c-0.004,4.706-3.823,8.517-8.529,8.512s-8.517-3.823-8.512-8.529      c0.004-4.706,3.823-8.517,8.529-8.512C291.426,60.323,295.237,64.142,295.232,68.847z"/>
			</g>
			<g>
				<path style="fill:#FC9124;" d="M278.319,173.801c-0.004,4.706-3.823,8.517-8.529,8.512c-4.706-0.005-8.517-3.823-8.512-8.529      c0.004-4.706,3.823-8.517,8.529-8.512C274.513,165.277,278.324,169.096,278.319,173.801z"/>
			</g>
			<g>
				<path style="fill:#FC9124;" d="M231.994,124.044c-0.005,4.706-3.823,8.517-8.529,8.512c-4.706-0.005-8.517-3.823-8.512-8.529      c0.005-4.706,3.823-8.517,8.529-8.512C228.188,115.52,231.999,119.338,231.994,124.044z"/>
			</g>
			<g>
				<path style="fill:#FC9124;" d="M219.335,62.815c-0.003,3.334-2.709,6.034-6.042,6.031c-3.334-0.003-6.034-2.709-6.031-6.042      c0.003-3.334,2.709-6.034,6.042-6.031C216.639,56.775,219.339,59.481,219.335,62.815z"/>
			</g>
			<g>
				<path style="fill:#FC9124;" d="M287.124,103.384c-0.004,4.13-3.356,7.475-7.486,7.472c-4.13-0.004-7.475-3.356-7.472-7.486      c0.004-4.13,3.356-7.475,7.486-7.472C283.783,95.901,287.128,99.253,287.124,103.384z"/>
			</g>
			<g>
				<path style="fill:#FC9124;" d="M244.864,90.908c-0.003,3.334-2.709,6.034-6.043,6.031c-3.334-0.003-6.034-2.709-6.031-6.042      c0.003-3.334,2.709-6.034,6.043-6.031C242.167,84.869,244.867,87.574,244.864,90.908z"/>
			</g>
			<g>
				<path style="fill:#FC9124;" d="M225.794,167.712c-0.003,3.334-2.709,6.034-6.043,6.031c-3.334-0.003-6.034-2.709-6.031-6.042      s2.709-6.034,6.043-6.031C223.097,161.673,225.797,164.379,225.794,167.712z"/>
			</g>
			<g>
				<path style="fill:#FC9124;" d="M261.047,61.786c-0.002,2.535-2.059,4.587-4.594,4.585c-2.535-0.002-4.588-2.059-4.585-4.594      c0.002-2.535,2.059-4.587,4.594-4.585C258.997,57.195,261.05,59.251,261.047,61.786z"/>
			</g>
			<g>
				<path style="fill:#FC9124;" d="M246.42,190.401c-0.003,2.535-2.059,4.588-4.594,4.585c-2.535-0.003-4.587-2.059-4.585-4.594      c0.003-2.535,2.059-4.587,4.594-4.585C244.369,185.809,246.422,187.866,246.42,190.401z"/>
			</g>
		</g>
		<g>
			<g>
				<path style="fill:#E81D7E;" d="M378.631,294.362c0.087-1.074,0.224-2.146,0.451-3.177c-19.659-8.507-42.036-8.143-63.353-5.892      c-22.569,2.384-45.279,6.65-67.789,3.731c-15.313-1.986-30.019-7.242-44.796-11.849c-14.777-4.607-30.004-8.622-45.426-8.007      c-12.807,0.511-31.08,5.137-39.421,16.165c25.823-1.896,55.271,12.662,78.229,20.449c30.519,10.352,61.609,17.629,93.886,14.726      c28.977-2.607,58.628-15.611,88.341-25.092C378.666,295.093,378.599,294.756,378.631,294.362z"/>
			</g>
		</g>
		<g>
			<path style="fill:#FF2285;" d="M284.869,317.649c-31.232,2.715-61.316-4.094-90.847-13.778     c-22.41-7.349-50.367-20.927-75.524-18.868c-10.703,18.374-16.8,39.305-16.822,61.541     c-0.047,47.564,27.604,89.267,69.106,112.558l152.31,0.149c41.548-23.208,69.28-64.858,69.327-112.422     c0.02-19.731-4.76-38.44-13.283-55.261C347.451,300.448,315.764,314.964,284.869,317.649z"/>
		</g>
		<g>
			<g>
				<g>
					<path style="fill:#FFF0FF;" d="M400.148,387.78c1.312,0.309,3.703-4.076,5.908-11.677c2.208-7.584,4.072-18.416,4.344-30.487       c0.253-12.072-1.137-22.974-3.013-30.647c-1.872-7.69-4.07-12.174-5.394-11.923c-2.814,0.577-1.035,19.386-1.617,42.351       C399.957,368.368,397.361,387.081,400.148,387.78z"/>
				</g>
			</g>
			<g>
				<g>
					<path style="fill:#FFF0FF;" d="M395.746,403.044c-2.501-1.188-6.224,1.42-8.316,5.825c-2.092,4.405-1.76,8.938,0.741,10.126       c2.501,1.187,6.224-1.421,8.316-5.825C398.579,408.766,398.247,404.232,395.746,403.044z"/>
				</g>
			</g>
		</g>
		<g>
			<g>
				<path style="fill:#9B2329;" d="M211.144,290.765c-8.548-8.125-20.953-7.248-29.237,0.162c-4.238,3.791-7.288,9.019-8.683,14.748      c-3.505-4.742-8.341-8.381-13.716-10.235c-10.507-3.624-22.283,0.371-27.019,11.172c-6.266,14.296,1.801,32.47,11.943,42.728      c10.822,10.947,27.181,20.018,42.545,24.595c12.393-10.169,23.963-24.868,29.702-39.151      C222.057,321.399,222.457,301.519,211.144,290.765z"/>
			</g>
		</g>
		<g>
			<g>
				<path style="fill:#E81D7E;" d="M378.631,294.362c0.087-1.074,0.224-2.146,0.451-3.177c-19.659-8.507-42.036-8.143-63.353-5.892      c-22.569,2.384-45.279,6.65-67.789,3.731c-15.313-1.986-30.019-7.242-44.796-11.849c-14.777-4.607-30.004-8.622-45.426-8.007      c-12.807,0.511-31.08,5.137-39.421,16.165c25.823-1.896,55.271,12.662,78.229,20.449c30.519,10.352,61.609,17.629,93.886,14.726      c28.977-2.607,58.628-15.611,88.341-25.092C378.666,295.093,378.599,294.756,378.631,294.362z"/>
			</g>
		</g>
		<g>
			<g>
				<path style="fill:#9B2329;" d="M211.144,290.765c-8.548-8.125-20.953-7.248-29.237,0.162c-4.238,3.791-7.288,9.019-8.683,14.748      c-3.505-4.742-8.341-8.381-13.716-10.235c-10.507-3.624-22.283,0.371-27.019,11.172c-6.266,14.296,1.801,32.47,11.943,42.728      c10.822,10.947,27.181,20.018,42.545,24.595c12.393-10.169,23.963-24.868,29.702-39.151      C222.057,321.399,222.457,301.519,211.144,290.765z"/>
			</g>
		</g>
		<path style="fill:#84232C;" d="M196.526,305.782c7.867,2.668,15.772,5.13,23.726,7.268c-0.447-8.438-3.154-16.625-9.108-22.284    c-8.548-8.125-20.953-7.248-29.237,0.162c-2.302,2.059-4.238,4.552-5.764,7.309C183.292,300.942,190.159,303.622,196.526,305.782z    "/>
		<path style="fill:#C6207B;" d="M380.061,400.03c-11.227-1.163-22.593-1.355-33.685-0.813    c-40.236,1.967-80.114,11.621-120.344,9.542c-40.23-2.079-83.264-19.255-100.882-55.481    c-10.214-21.003-10.359-44.841-6.644-68.274c-0.003,0-0.007,0-0.01,0.001c-10.703,18.374-16.8,39.305-16.822,61.541    c-0.047,47.564,27.604,89.268,69.106,112.558l152.31,0.149C348.099,445.283,368.088,424.628,380.061,400.03z"/>
		<g>
			<g>
				<path style="fill:#FF335F;" d="M210.252,397.582c-1.393-9.214-9.557-14.681-18.317-14.075c-4.482,0.31-8.919,2.092-12.567,4.99      c0.113-4.657-1.14-9.273-3.594-13.035c-4.797-7.355-14.081-10.574-22.272-6.131c-10.841,5.879-14.621,21.129-13.268,32.446      c1.444,12.076,7.25,25.668,14.615,35.972c12.662-0.335,27.007-3.894,37.512-10.022      C202.206,421.984,212.095,409.776,210.252,397.582z"/>
			</g>
		</g>
		<path style="fill:#D12F61;" d="M209.492,407.045c-23.983-3.716-47.589-12.923-64.966-28.444    c-3.894,6.994-5.164,15.893-4.294,23.175c1.444,12.076,7.25,25.668,14.615,35.972c12.662-0.335,27.007-3.894,37.512-10.022    C199.628,423.488,206.914,415.724,209.492,407.045z"/>
		<g>
			<g>
				<path style="fill:#9B2329;" d="M366.344,308.091c-3.746-6.659-11.595-8.478-18.136-5.467c-3.346,1.54-6.23,4.197-8.185,7.48      c-1.267-3.604-3.57-6.778-6.545-8.95c-5.816-4.245-13.87-4.013-18.859,1.774c-6.603,7.659-5.068,20.451-0.741,28.734      c4.617,8.839,13.021,17.572,21.664,23.332c9.61-3.938,19.575-10.837,25.848-18.589      C367.268,329.14,371.302,316.904,366.344,308.091z"/>
			</g>
		</g>
		<g>
			<path style="fill:#84232C;" d="M333.477,301.153c-5.816-4.245-13.87-4.014-18.859,1.774c-3.353,3.889-4.601,9.102-4.457,14.376     c9.734-2.195,19.528-5.19,29.358-8.479C338.19,305.751,336.095,303.064,333.477,301.153z"/>
			<path style="fill:#84232C;" d="M359.201,302.022c-3.469-1.235-7.424-1.042-10.994,0.602c-2.677,1.232-5.049,3.187-6.895,5.597     C347.264,306.211,353.229,304.108,359.201,302.022z"/>
		</g>
		<g>
			<g>
				<path style="fill:#9B2329;" d="M247.425,388.05c-6.875-5.548-16.083-4.141-21.819,1.893c-2.934,3.087-4.894,7.175-5.588,11.537      c-2.904-3.328-6.736-5.752-10.861-6.81c-8.064-2.069-16.615,1.628-19.495,9.979c-3.812,11.053,3.313,24.134,11.507,31.178      c8.744,7.516,21.508,13.298,33.256,15.783c8.636-8.344,16.384-20.02,19.802-31.031      C257.43,410.261,256.524,395.393,247.425,388.05z"/>
			</g>
		</g>
		<g>
			<g>
				<path style="fill:#FF335F;" d="M290.757,314.408c-7.15-8.107-18.546-8.305-26.705-2.207c-4.174,3.12-7.38,7.647-9.115,12.765      c-2.818-4.611-6.94-8.323-11.698-10.449c-9.3-4.155-20.373-1.456-25.566,8.024c-6.872,12.546-0.971,29.789,7.462,39.971      c8.998,10.865,23.203,20.465,36.861,25.881c12.133-8.286,23.88-20.774,30.27-33.351      C298.253,343.254,300.22,325.136,290.757,314.408z"/>
			</g>
		</g>
		<g>
			<path style="fill:#FF396D;" d="M290.757,314.408c-7.15-8.106-18.546-8.305-26.705-2.207c-2.799,2.092-5.148,4.826-6.925,7.937     c10.969,1.155,22.055,1.38,33.285,0.37c1.344-0.121,2.691-0.271,4.038-0.436C293.49,318.033,292.272,316.125,290.757,314.408z"/>
			<path style="fill:#FF396D;" d="M250.324,319.299c-2.105-1.986-4.496-3.625-7.085-4.782c-5.657-2.527-11.963-2.503-17.21,0.024     C234.072,316.531,242.167,318.157,250.324,319.299z"/>
		</g>
		<path style="fill:#84232C;" d="M226.033,408.759c-11.873-0.614-23.985-2.554-35.621-5.899c-0.277,0.573-0.534,1.165-0.75,1.791    c-3.812,11.053,3.313,24.134,11.507,31.178c8.744,7.516,21.508,13.298,33.256,15.783c8.636-8.344,16.384-20.02,19.802-31.031    c1.135-3.656,1.74-7.883,1.661-12.143C245.951,409.067,236.003,409.274,226.033,408.759z"/>
		<g>
			<path style="fill:#381C75;" d="M307.545,166.34l-128.671-0.126c-12.286-0.012-22.235-9.981-22.223-22.266l0.004-3.849     c0.012-12.285,9.981-22.235,22.266-22.223l128.671,0.126c12.285,0.012,22.234,9.981,22.222,22.266l-0.004,3.849     C329.799,156.402,319.83,166.352,307.545,166.34z"/>
		</g>
		<g>
			<path style="fill:#381C75;" d="M338.502,495.149l-197.388-0.194c-3.894-0.004-7.048-3.164-7.044-7.058l0,0     c0.004-3.894,3.164-7.048,7.058-7.044l197.388,0.194c3.894,0.004,7.048,3.164,7.044,7.058l0,0     C345.556,492,342.396,495.153,338.502,495.149z"/>
		</g>
		<g>
			<g>
				<g>
					<path style="fill:#FFB92B;" d="M375.362,174.846c-2.213-2.82-4.996-4.46-7.705-5.675c-1.367-0.603-2.751-1.069-4.144-1.439       c-1.366-0.339-2.669-0.588-3.986-0.875c-1.318-0.227-2.63-0.386-3.922-0.573l-3.848-0.297       c-10.173-0.412-19.044,1.558-26.163,3.63c-7.137,2.127-12.634,4.467-16.37,6.2c-3.73,1.753-5.677,2.984-5.52,3.406       c0.165,0.443,2.428,0.033,6.393-0.955c3.967-0.968,9.629-2.596,16.653-4.068c7.007-1.431,15.46-2.768,24.625-2.066l3.451,0.381       l3.483,0.609c2.354,0.56,4.656,1.04,6.683,2.03c2.048,0.939,3.95,2.221,5.078,3.721c1.124,1.489,1.432,3.099,0.923,4.813       c-1.08,3.694-5.286,6.018-10.007,7.207c-4.732,1.298-9.53,1.796-14.126,1.806c-9.228,0.022-17.567-1.851-24.477-3.734       c-6.923-1.919-12.495-3.859-16.415-5.028c-0.979-0.298-1.853-0.551-2.618-0.758c-0.123,0.679-0.274,1.348-0.481,1.997       c0.623,0.358,1.314,0.743,2.104,1.165c3.638,1.916,8.985,4.55,15.966,7.125c6.965,2.527,15.691,5.051,25.826,5.391       c5.048,0.165,10.447-0.24,15.885-1.632c2.709-0.688,5.613-1.646,8.374-3.438c2.754-1.786,5.265-4.563,6.365-8.163       C378.601,181.996,377.632,177.607,375.362,174.846z"/>
				</g>
			</g>
			<g>
				<g>
					<path style="fill:#FFB92B;" d="M307.851,177.923c-0.38-1.974-30.607,3.311-68.162,3.03       c-37.555-0.047-67.734-5.593-68.131-3.623c-0.178,0.849,7.174,3.342,19.459,5.736c12.27,2.403,29.514,4.472,48.643,4.571       c19.129,0.068,36.392-1.851,48.682-4.148C300.647,181.202,308.022,178.773,307.851,177.923z"/>
				</g>
			</g>
			<g>
				<g>
					<path style="fill:#FFB92B;" d="M304.857,181.869c-2.492,0.965-8.169,4.186-16.696,7.502       c-11.106,4.436-27.304,8.356-45.602,9.224c-18.311,0.875-35.057-0.694-47.218-1.593c-12.169-0.967-19.788-1.301-19.918-0.366       c-0.124,0.892,7.219,2.876,19.323,5.054c12.085,2.103,29.103,4.483,48.151,3.58c19.06-0.892,36.07-5.799,47.191-11.584       c7.89-4.013,12.863-7.984,14.986-10.222C304.976,182.941,304.903,182.409,304.857,181.869z"/>
				</g>
			</g>
			<g>
				<g>
					<path style="fill:#FFB92B;" d="M299.607,185.318c0.095,0.438,2.844,0.339,7.73-0.482c4.863-0.87,11.938-2.425,20.247-5.834       c8.243-3.407,17.885-8.525,26.747-16.769c4.398-4.118,8.574-8.998,12.018-14.678c1.733-2.804,3.369-6.087,4.188-9.779       c0.405-1.857,0.622-3.866,0.356-5.994c-0.25-2.112-1.045-4.339-2.413-6.173c-2.856-3.797-7.274-5.301-11.217-5.426       c-4.062-0.109-7.624,1.112-10.712,2.468c-6.04,2.818-11.393,6.223-16.065,10.056c-9.393,7.619-15.752,16.635-19.871,24.638       c-4.054,8.09-5.865,15.224-6.604,20.155c-0.401,2.469-0.492,4.41-0.461,5.732c0.013,1.319,0.132,2.016,0.361,2.044       c0.229,0.028,0.558-0.613,0.971-1.843c0.395-1.233,0.892-3.051,1.663-5.344c1.478-4.583,3.883-11.137,8.21-18.466       c4.393-7.249,10.702-15.335,19.562-22.096c4.38-3.394,9.432-6.432,14.848-8.874c2.661-1.142,5.38-1.928,7.864-1.826       c2.488,0.079,4.904,1.112,6.083,2.764c1.251,1.663,1.518,4.107,0.924,6.78c-0.582,2.681-1.768,5.262-3.312,7.827       c-3.023,5.15-6.719,9.678-10.658,13.589c-7.922,7.826-16.759,13.1-24.42,16.902c-7.685,3.794-14.361,6-18.955,7.624       C302.074,183.894,299.506,184.854,299.607,185.318z"/>
				</g>
			</g>
			<g>
				<g>
					<path style="fill:#FF2285;" d="M363.641,168.727l-1.184-0.134l-0.536,1.064l-19.928,52.834l54.135,71.355l26.353-14.25       l26.353-14.25l-30.072-84.368L363.641,168.727z M375.465,192.648c-3.68,1.99-8.277,0.62-10.267-3.06       c-1.99-3.68-0.62-8.276,3.06-10.266c3.68-1.99,8.277-0.62,10.266,3.06C380.515,186.062,379.145,190.658,375.465,192.648z"/>
				</g>
			</g>
			<g>
				<g>
					<path style="fill:#E50E7A;" d="M422.482,279.596l26.353-14.25l-7.064-19.819c-7.4-4.671-15.983-7.563-24.707-8.519       c-12.675-1.389-26.283,0.858-37.609-5.001c-11.555-5.977-17.793-19.325-18.755-32.299c-0.769-10.367,1.288-20.652,3.884-30.771       l-0.944-0.21l-1.184-0.133l-0.536,1.064l-19.928,52.834l54.135,71.356L422.482,279.596z"/>
				</g>
			</g>
			<g>
				<g>
					<path style="fill:#FFB92B;" d="M310.097,178.267c3.967-0.968,9.629-2.596,16.653-4.068c5.191-1.06,11.178-2.064,17.658-2.23       c-0.552-1.61-0.864-3.367-0.862-5.269c0-0.179,0.023-0.359,0.03-0.538c-6.789,0.533-12.847,1.96-17.982,3.455       c-7.137,2.127-12.634,4.467-16.37,6.2c-3.73,1.753-5.677,2.984-5.52,3.406C303.868,179.665,306.131,179.255,310.097,178.267z"/>
				</g>
				<g>
					<path style="fill:#FFB92B;" d="M370.725,184.335c-1.365,3.31-5.307,5.443-9.739,6.558c-4.732,1.298-9.53,1.796-14.126,1.806       c-9.228,0.022-17.567-1.851-24.477-3.734c-6.923-1.919-12.495-3.859-16.415-5.028c-0.979-0.298-1.853-0.551-2.618-0.758       c-0.123,0.679-0.274,1.348-0.481,1.997c0.623,0.358,1.314,0.743,2.104,1.165c3.638,1.916,8.985,4.55,15.966,7.125       c6.965,2.527,15.691,5.051,25.826,5.391c5.048,0.165,10.447-0.24,15.885-1.632c2.709-0.688,5.613-1.646,8.374-3.438       c2.754-1.786,5.265-4.563,6.365-8.163c0.08-0.239,0.126-0.489,0.187-0.735C375.292,184.8,373.014,184.626,370.725,184.335z"/>
				</g>
			</g>
			<path style="fill:#ED9D11;" d="M360.679,190.972c-2.433,0.649-4.881,1.088-7.31,1.361l-2.46,6.523     c3.152-0.104,6.4-0.453,9.679-1.147C360.497,195.458,360.539,193.213,360.679,190.972z"/>
		</g>
		<g>
			<path style="fill:#FFB92B;" d="M409.935,200.121c-5.985-2.751-12.382-0.047-15.422,5.365c-1.555,2.769-2.223,6.083-1.926,9.362     c-2.708-1.873-5.921-2.923-9.097-2.932c-6.207-0.018-11.71,4.22-12.262,10.783c-0.73,8.687,6.815,16.835,14.027,20.425     c7.696,3.831,17.98,5.671,26.927,5.315c4.713-7.612,8.174-17.47,8.628-26.055C421.234,214.34,417.856,203.76,409.935,200.121z"/>
		</g>
		<g>
			<g>
				<path style="fill:#9B2329;" d="M345.87,363.982c-8.548-8.125-20.953-7.248-29.236,0.162c-4.238,3.791-7.288,9.019-8.683,14.748      c-3.505-4.742-8.341-8.381-13.716-10.235c-10.507-3.624-22.283,0.371-27.018,11.172c-6.267,14.295,1.801,32.469,11.942,42.728      c10.822,10.946,27.182,20.018,42.545,24.594c12.393-10.169,23.963-24.868,29.702-39.151      C356.783,394.616,357.183,374.735,345.87,363.982z"/>
			</g>
		</g>
		<path style="fill:#84232C;" d="M354.046,398.965c-2.567,0.045-5.126,0.127-7.669,0.251c-25.924,1.267-51.699,5.722-77.516,8.178    c2.604,5.805,6.287,11.104,10.298,15.163c10.822,10.946,27.182,20.018,42.545,24.594c12.393-10.169,23.963-24.868,29.702-39.151    C352.522,405.223,353.419,402.163,354.046,398.965z"/>
	</g>
</g>















</svg>
