<?xml version="1.0" encoding="UTF-8"?>
<!-- Generator: Adobe Illustrator 25.2.1, SVG Export Plug-In . SVG Version: 6.00 Build 0)  -->
<svg xmlns="http://www.w3.org/2000/svg" xmlns:xlink="http://www.w3.org/1999/xlink" version="1.1" id="Capa_1" x="0px" y="0px" viewBox="0 0 512 512" style="enable-background:new 0 0 512 512;" xml:space="preserve" width="512" height="512">
<g>
	<path style="fill:#FFFFFF;" d="M449.267,143.177c-5.569-3.66-11.142-7.314-16.715-10.959l-1.694-1.105   c-4.999-3.268-10.007-6.529-15.027-9.79l-1.618-1.048c-6.126-3.974-12.261-7.932-18.403-11.874l-1.648-1.058   c-5.488-3.518-10.983-7.022-16.489-10.507c-0.041-0.026-0.078-0.049-0.113-0.072l-1.531-0.969   c-6.308-3.986-12.633-7.939-18.946-11.859l-0.825-0.512c-13.003-8.071-25.069-15.413-36.893-22.446l-1.658-0.993   c-5.546-3.293-11.11-6.554-16.757-9.828l-1.052-0.606c-6.664-3.858-13.359-7.667-20.072-11.434l-0.994-0.558   c-5.359-3.003-10.734-5.975-16.092-8.897l-1.215-0.664c-2.331-1.267-4.664-2.537-7.008-3.795c-3.274-1.76-6.558-3.505-9.869-5.25   l-1.674-0.888c-2.088-1.099-4.184-2.18-6.279-3.262l-7.585-3.909c-1.467-0.754-2.934-1.508-4.408-2.254   c-0.039-0.019-0.174-0.086-0.213-0.105c-4.646-2.351-9.299-4.682-13.974-6.975c-4.28-2.144-9.374-2.059-13.638,0.148   c-4.265,2.209-7.231,6.311-7.992,11.053l-2.853,17.785c-7.137,9.012-28.002,35.89-49.996,69.259   c-0.796,1.208-1.594,2.423-2.378,3.627c-1.59,2.438-3.184,4.909-4.77,7.398c-3.249,5.094-6.436,10.225-9.477,15.249   c-0.854,1.416-1.705,2.835-2.553,4.261c-1.408,2.367-2.802,4.743-4.182,7.132c-0.881,1.528-1.758,3.059-2.631,4.599   c-3.799,6.712-7.363,13.318-10.587,19.633c-0.683,1.338-1.356,2.675-2.018,4.004c-8.531,17.14-14.857,32.801-18.841,46.631   l-13.237,12.118c-3.261,2.985-5.055,7.245-4.912,11.664c0.144,4.417,2.209,8.553,5.655,11.322l2.757,2.2   c0.382,0.303,0.951,0.696,1.36,0.961c2.404,1.555,7.555,5.105,14.076,9.598l0.934,0.643l0.198,0.136   c4.181,2.88,8.994,6.195,14.353,9.862l2.46,1.686c0.053,0.037,0.112,0.077,0.172,0.116l1.478,1.008   c0.032,0.022,0.062,0.043,0.093,0.065l2.035,1.388c3.875,2.64,7.99,5.429,12.287,8.329c0.034,0.023,0.068,0.044,0.098,0.065   c0.007,0.006,0.014,0.008,0.021,0.014l1.481,0.997c0.045,0.033,0.089,0.063,0.134,0.091c4.258,2.865,8.704,5.842,13.243,8.858   l1.533,1.02c2.626,1.739,5.299,3.505,8.019,5.295l7.645,5.001c4.495,2.931,9.093,5.902,13.735,8.873L59.609,476.498   c-6.798,10.572-3.986,24.407,6.401,31.492c1.074,0.733,2.215,1.378,3.394,1.919c10.571,4.844,23.134,1.02,29.223-8.895L200,335.948   c2.913,1.761,5.836,3.513,8.76,5.251c0.013,0.009,0.029,0.018,0.043,0.025c1.702,1.013,3.401,2.019,5.092,3.012   c3.093,1.818,6.186,3.618,9.287,5.402c3.093,1.778,6.185,3.538,9.263,5.267c11.446,6.427,22.34,12.233,32.38,17.26   c0.027,0.012,0.051,0.026,0.077,0.038c5.604,2.806,11.064,5.429,16.225,7.794l0.778,0.356c8.912,4.062,17.275,7.513,24.854,10.253   c4.473,1.619,9.445,1.041,13.431-1.559c3.983-2.599,6.515-6.917,6.835-11.664l1.06-15.633c0.601-0.628,1.2-1.258,1.77-1.875   l1.082-1.179c0.626-0.685,1.253-1.374,1.901-2.1l1.045-1.183c0.631-0.72,1.265-1.448,1.898-2.185l0.975-1.143   c0.686-0.81,1.369-1.628,2.068-2.475l0.786-0.951c0.8-0.975,1.596-1.965,2.451-3.038l0.374-0.465   c1.959-2.467,3.913-5.009,5.858-7.615c41.464-55.564,78.132-138.507,86.025-156.867l16.151-13.056   c3.76-3.041,5.842-7.695,5.605-12.526C455.838,150.26,453.307,145.833,449.267,143.177z M141.942,281.022L141.942,281.022   L141.942,281.022L141.942,281.022z"/>
	<g>
		<g>
			<path style="fill:#66BBFF;" d="M78.281,237.773c0.057,0.037,0.117,0.073,0.174,0.11C96.607,249.642,232.32,347.573,311.91,376.36     l1.439-21.22c53.531-52.587,108.508-183.873,108.508-183.873l19.087-15.431c-76.96-50.603-154.506-100.159-237.099-140.676     l-3.484,21.723c0,0-89.295,110.172-108.303,183.676L75.594,235.63C75.594,235.63,76.55,236.4,78.281,237.773z"/>
		</g>
		<g>
			<path style="fill:#3BB0FF;" d="M216.193,242.686c-15.644-12.267-31.092-27.425-34.304-47.044     c-1.7-10.382,0.256-21.034,3.258-31.116c12.106-40.656,40.553-74.376,57.236-113.378c1.889-4.416,3.62-8.966,4.973-13.598     c-14.363-7.714-28.853-15.201-43.509-22.391l-3.484,21.723c0,0-89.296,110.172-108.303,183.676L75.594,235.63     c0,0,0.956,0.769,2.687,2.143c0.057,0.037,0.117,0.073,0.174,0.11C96.607,249.642,232.32,347.572,311.91,376.36l1.439-21.22     c7.626-7.492,15.281-16.584,22.803-26.663C300.467,295.569,254.837,272.987,216.193,242.686z"/>
			<path style="fill:#4B29DE;" d="M207.71,273.975L72.352,484.689c-2.311,3.597-1.338,8.379,2.194,10.788l0,0     c3.724,2.54,8.815,1.45,11.174-2.39l130.746-212.899"/>
		</g>
		<path style="fill:#3C26DB;" d="M185.199,309.019c3.244,2.039,6.516,4.079,9.806,6.114l21.461-34.946l-8.756-6.212L185.199,309.019    z"/>
		<g>
			<path style="fill:#FF1A9A;" d="M378.857,201.69c4.276-12.883,4.521-25.223-0.568-37.593     c-9.176-22.304-36.874-35.605-60.588-33.384c-11.608,1.087-23.106,4.502-33.627,10.012c-1.431-11.79-5.142-23.197-10.833-33.372     c-8.623-15.419-25.522-27.799-43.296-31.085c-6.188-1.144-42.278,23.865-48.499,35.93c-8.268,16.036-11.138,41.068-13.161,56.18     c-3.428,25.614,49.229,100.426,49.229,100.426c0.557,0.889,32.215,14.089,51.152,10.192c5.752-1.184,11.471-2.568,17.145-4.19     c24.355-6.961,47.957-18.473,67.105-35.828C364.214,228.739,374.031,216.229,378.857,201.69z"/>
		</g>
		<g>
			<g>
				<path style="fill:#95DFFF;" d="M356.602,127.145c-46.356-27.006-88.284-51.434-120.187-70.02      c-14.285-8.328-26.313-15.34-35.939-20.951l-0.114,0.708c0,0-0.154,0.19-0.42,0.523c8.385,5.316,20.401,12.728,35.259,21.759      c30.423,18.505,72.77,43.536,119.711,70.88c24.346,14.184,47.45,27.644,68.543,39.932l2.57-2.078      C404.876,155.368,381.392,141.586,356.602,127.145z"/>
			</g>
			<g>
				<path style="fill:#95DFFF;" d="M356.602,127.145c-46.356-27.006-88.284-51.434-120.187-70.02      c-14.285-8.328-26.313-15.34-35.939-20.951l-0.114,0.708c0,0-0.154,0.19-0.42,0.523c8.385,5.316,20.401,12.728,35.259,21.759      c30.423,18.505,72.77,43.536,119.711,70.88c24.346,14.184,47.45,27.644,68.543,39.932l2.57-2.078      C404.876,155.368,381.392,141.586,356.602,127.145z"/>
			</g>
			<path style="fill:#8DDCF7;" d="M199.941,37.405c8.385,5.316,20.401,12.728,35.259,21.759c0.907,0.552,1.827,1.11,2.755,1.674     c0.354-0.732,0.708-1.464,1.055-2.2c-0.871-0.508-1.739-1.013-2.596-1.512c-14.285-8.328-26.313-15.34-35.939-20.951     l-0.114,0.708c0,0-0.021,0.026-0.031,0.039C200.274,36.991,200.139,37.158,199.941,37.405z"/>
			<g>
				<path style="fill:#8DDCF7;" d="M303.384,346.078c-19.66-10.69-41.145-22.683-63.524-35.584      c-44.717-25.87-84.669-50.222-113.644-67.763c-13.633-8.206-25.133-15.128-34.371-20.689c-0.302-0.179-0.564-0.333-0.856-0.505      l-0.96,0.878c0.38,0.249,0.728,0.477,1.126,0.736c7.938,5.172,19.483,12.564,33.813,21.598      c28.662,18.06,68.443,42.749,113.214,68.651c22.406,12.916,43.969,24.845,63.739,35.401c3.964,2.1,7.834,4.13,11.646,6.12      c0.732-0.722,1.464-1.456,2.196-2.206C311.721,350.56,307.605,348.354,303.384,346.078z"/>
			</g>
			<g>
				<g>
					<path style="fill:#95DFFF;" d="M299.1,94.666c1.617-2.56,3.289-5.245,4.992-8.03c2.716-4.443,5.249-8.706,7.532-12.639       c-0.55-0.327-1.097-0.661-1.648-0.987c-2.667,4.366-5.148,8.428-7.659,12.54c-1.654,2.702-3.295,5.382-4.982,8.138       C297.923,94.014,298.512,94.34,299.1,94.666z"/>
				</g>
				<g>
					<path style="fill:#95DFFF;" d="M281.207,84.722c1.55-2.434,3.132-4.951,4.752-7.593c2.926-4.776,5.623-9.347,8.009-13.514       c-0.552-0.321-1.108-0.635-1.66-0.955c-2.867,4.723-5.479,9.025-8.123,13.38c-1.574,2.543-3.145,5.083-4.757,7.687       C280.02,84.06,280.614,84.39,281.207,84.722z"/>
				</g>
				<g>
					<path style="fill:#95DFFF;" d="M260.867,73.089c1.179-2.167,2.383-4.392,3.626-6.713c2.91-5.432,5.604-10.561,7.917-15.051       c-0.531-0.298-1.062-0.597-1.594-0.894c-2.461,4.422-5.243,9.517-8.159,14.962c-1.23,2.296-2.402,4.508-3.541,6.668       C259.7,72.405,260.283,72.747,260.867,73.089z"/>
				</g>
				<g>
					<path style="fill:#95DFFF;" d="M243.513,62.611c0.568,0.357,1.146,0.697,1.715,1.051c1.172-2.461,2.305-4.84,3.417-7.175       c2.13-4.548,4.279-9.137,6.811-14.543c-0.529-0.288-1.056-0.579-1.586-0.867c-2.181,4.294-4.609,9.232-7.108,14.521       C245.622,58.013,244.547,60.343,243.513,62.611z"/>
				</g>
				<g>
					<path style="fill:#8DDCF7;" d="M225.709,52.052c0.543,0.368,1.078,0.749,1.614,1.127c1.533-2.997,3.17-6.247,4.864-9.669       c1.961-3.96,3.788-7.726,5.416-11.146c-0.56-0.295-1.116-0.597-1.677-0.892c-1.739,3.381-3.634,7.134-5.605,11.114       C228.676,45.909,227.128,49.09,225.709,52.052z"/>
				</g>
				<g>
					<path style="fill:#8DDCF7;" d="M209.438,42.163c0.582,0.341,1.163,0.685,1.747,1.025c1.03-2.478,2.102-5.088,3.2-7.802       c1.809-4.472,3.479-8.703,4.942-12.498c-0.557-0.283-1.12-0.556-1.677-0.838c-1.602,3.779-3.364,8.029-5.195,12.555       C211.397,37.221,210.39,39.747,209.438,42.163z"/>
				</g>
				<g>
					<path style="fill:#95DFFF;" d="M317.74,105.084c2.246-3.262,4.662-6.812,7.174-10.552c2.088-3.108,4.085-6.11,5.949-8.941       c-0.566-0.344-1.131-0.69-1.697-1.035c-1.901,2.774-3.91,5.734-5.98,8.815c-2.545,3.787-4.946,7.408-7.14,10.755       C316.611,104.445,317.175,104.765,317.74,105.084z"/>
				</g>
				<g>
					<path style="fill:#95DFFF;" d="M336.504,115.923c1.766-2.4,3.617-4.937,5.524-7.578c2.826-3.913,5.482-7.645,7.867-11.044       c-0.541-0.336-1.084-0.671-1.625-1.007c-2.454,3.304-5.134,6.962-7.929,10.832c-1.945,2.693-3.807,5.297-5.559,7.77       C335.357,115.236,335.928,115.583,336.504,115.923z"/>
				</g>
				<g>
					<path style="fill:#95DFFF;" d="M356.949,128.234c1.503-2.174,3.065-4.449,4.67-6.811c2.862-4.211,5.534-8.206,7.91-11.813       c-0.531-0.336-1.061-0.673-1.591-1.008c-2.471,3.523-5.191,7.46-8.04,11.651c-1.627,2.393-3.187,4.711-4.673,6.934       C355.798,127.537,356.375,127.883,356.949,128.234z"/>
				</g>
				<g>
					<path style="fill:#95DFFF;" d="M374.013,138.769c1.969-2.492,4.049-5.152,6.194-7.921c2.64-3.409,5.135-6.674,7.42-9.699       c-0.547-0.35-1.092-0.702-1.639-1.053c-2.327,2.933-4.826,6.118-7.427,9.477c-2.192,2.831-4.287,5.565-6.243,8.143       C372.883,138.068,373.448,138.418,374.013,138.769z"/>
				</g>
				<g>
					<path style="fill:#95DFFF;" d="M394.103,151.249c1.628-2.04,3.309-4.159,5.034-6.35c3.016-3.83,5.867-7.495,8.454-10.862       c-0.541-0.352-1.083-0.702-1.625-1.053c-2.636,3.269-5.491,6.85-8.465,10.628c-1.777,2.256-3.489,4.448-5.133,6.564       C392.947,150.533,393.525,150.89,394.103,151.249z"/>
				</g>
				<g>
					<path style="fill:#95DFFF;" d="M410.169,161.151c2.453-2.71,5.056-5.643,7.739-8.75c2.233-2.588,4.358-5.106,6.349-7.508       c-0.562-0.367-1.124-0.733-1.686-1.101c-2.167,2.517-4.209,4.889-6.24,7.248c-2.527,2.92-5.066,5.854-7.853,9.073       C409.043,160.46,409.605,160.807,410.169,161.151z"/>
				</g>
				<g>
					<path style="fill:#8DDCF7;" d="M201.984,290.874c-1.551,2.452-3.069,4.852-4.596,7.267c-2.731,4.337-5.424,8.616-8.359,13.277       c0.533,0.333,1.067,0.666,1.601,0.999c2.656-4.002,5.54-8.446,8.518-13.165c1.59-2.52,3.114-4.974,4.573-7.351       C203.143,291.558,202.562,291.219,201.984,290.874z"/>
				</g>
				<g>
					<path style="fill:#8DDCF7;" d="M187.704,282.121c-2.146,2.89-4.416,5.974-6.76,9.188c-2.63,3.607-5.123,7.066-7.433,10.299       c0.551,0.352,1.102,0.704,1.655,1.056c2.352-3.16,4.857-6.558,7.46-10.129c2.373-3.254,4.639-6.393,6.756-9.352       C188.821,282.834,188.264,282.474,187.704,282.121z"/>
				</g>
				<g>
					<path style="fill:#8DDCF7;" d="M171.739,271.919c-3.054,3.876-6.455,8.253-10.032,12.927c-1.605,2.097-3.161,4.144-4.659,6.125       c0.57,0.372,1.137,0.743,1.71,1.116c1.492-1.925,3.03-3.923,4.602-5.976c3.614-4.721,6.983-9.19,9.948-13.181       C172.786,272.593,172.262,272.257,171.739,271.919z"/>
				</g>
				<g>
					<path style="fill:#8DDCF7;" d="M156.096,262.224c-3.014,3.829-6.367,8.151-9.894,12.764c-1.54,2.014-3.036,3.984-4.476,5.891       c0.567,0.377,1.131,0.751,1.703,1.131c1.437-1.857,2.917-3.781,4.427-5.758c3.578-4.681,6.914-9.113,9.849-13.069       C157.17,262.862,156.633,262.543,156.096,262.224z"/>
				</g>
				<g>
					<path style="fill:#8DDCF7;" d="M139.905,252.745c-3.627,5.031-6.749,9.361-9.869,13.69c-1.077,1.472-2.154,2.945-3.25,4.442       c0.57,0.385,1.137,0.767,1.714,1.156c1.06-1.425,2.132-2.877,3.22-4.375c3.638-5.012,6.946-9.774,9.775-13.986       C140.965,253.363,140.434,253.054,139.905,252.745z"/>
				</g>
				<g>
					<path style="fill:#8DDCF7;" d="M124.102,243.263c-2.54,3.265-5.338,6.836-8.321,10.583c-1.705,2.139-3.365,4.202-4.97,6.186       c0.553,0.378,1.116,0.762,1.68,1.147c1.603-1.926,3.247-3.938,4.919-6.035c3.037-3.814,5.83-7.484,8.32-10.865       C125.185,243.942,124.644,243.601,124.102,243.263z"/>
				</g>
				<g>
					<path style="fill:#8DDCF7;" d="M106.957,231.739c-2.877,3.573-6.045,7.558-9.378,11.816c-1.285,1.642-2.532,3.244-3.748,4.814       c0.554,0.381,1.115,0.768,1.691,1.165c1.208-1.527,2.438-3.089,3.696-4.696c3.349-4.278,6.469-8.325,9.256-11.988       C107.965,232.484,107.462,232.109,106.957,231.739z"/>
				</g>
				<g>
					<path style="fill:#8DDCF7;" d="M215.932,298.904c-2.45,3.854-5.23,8.319-8.152,13.11c-1.694,2.778-3.315,5.466-4.827,8.004       c0.566,0.345,1.133,0.689,1.699,1.034c1.563-2.505,3.211-5.176,4.905-7.953c2.937-4.816,5.645-9.351,7.957-13.307       C216.984,299.5,216.461,299.197,215.932,298.904z"/>
				</g>
				<g>
					<path style="fill:#8DDCF7;" d="M229.498,306.094c-2.154,3.528-4.571,7.569-7.099,11.889c-2.115,3.614-4.098,7.064-5.874,10.208       c0.547,0.325,1.095,0.649,1.642,0.973c1.873-3.091,3.911-6.512,6.029-10.13c2.557-4.37,4.924-8.503,6.961-12.139       C230.607,306.624,230.046,306.37,229.498,306.094z"/>
				</g>
				<g>
					<path style="fill:#8DDCF7;" d="M246.401,315.828c-2.157,3.852-4.541,8.186-7.049,12.842c-1.849,3.431-3.594,6.719-5.203,9.788       c0.567,0.324,1.133,0.647,1.7,0.969c1.685-3.043,3.479-6.322,5.336-9.769c2.505-4.648,4.809-9.014,6.837-12.929       C247.482,316.427,246.94,316.129,246.401,315.828z"/>
				</g>
				<g>
					<path style="fill:#8DDCF7;" d="M265.301,326.339c-1.953,3.508-4.09,7.413-6.318,11.559c-2.111,3.929-4.091,7.679-5.864,11.095       c0.563,0.304,1.123,0.602,1.685,0.903c1.87-3.365,3.903-7.084,6.014-11.013c2.226-4.145,4.302-8.081,6.148-11.646       C266.409,326.941,265.855,326.639,265.301,326.339z"/>
				</g>
				<g>
					<path style="fill:#8DDCF7;" d="M283.04,335.326c-0.557-0.285-1.124-0.553-1.685-0.833c-1.805,3.533-3.787,7.491-5.851,11.698       c-2.025,4.129-3.906,8.045-5.573,11.583c0.562,0.284,1.125,0.568,1.684,0.849c1.781-3.488,3.729-7.379,5.758-11.515       C279.436,342.902,281.351,338.914,283.04,335.326z"/>
				</g>
				<g>
					<path style="fill:#8DDCF7;" d="M301.155,345.023c-0.564-0.298-1.13-0.593-1.693-0.894c-1.696,3.753-3.536,7.897-5.448,12.287       c-1.638,3.761-3.179,7.357-4.593,10.707c0.595,0.269,1.189,0.536,1.78,0.8c1.493-3.322,3.08-6.906,4.722-10.675       C297.811,352.912,299.577,348.783,301.155,345.023z"/>
				</g>
			</g>
		</g>
		<g>
			<g>
				<path style="fill:#A01374;" d="M297.734,179.442c-16.377,22.305-33.832,43.722-52.354,64.257      c-0.597-6.103-1.155-12.209-1.643-18.32c0.133-0.128,0.271-0.251,0.403-0.38c11.93-11.714,20.058-30.695,19.5-48.313      c13.249-2.799,25.288-11.094,33.159-21.913c3.604-4.954-3.382-11.572-7.018-6.574c-5.999,8.245-13.426,13.929-22.989,17.523      c-1.204,0.452-2.706,0.893-4.393,1.283c-0.492-2.074-1.178-4.084-1.973-6.051c-0.094-0.653-0.343-1.328-0.81-2.005      c-0.298-0.636-0.674-1.116-1.089-1.49c-18.505-24.361-47.58-1.763-60.541,25.34c-4.503-2.014-8.971-4.114-13.406-6.29      c11.426-23.634,23.514-46.924,36.285-69.861c3.334,1.489,6.687,2.939,10.078,4.309c5.692,2.299,10.219-6.189,4.471-8.511      c-8.971-3.624-17.736-7.665-26.319-12.132c-5.498-2.862-9.971,5.647-4.471,8.51c2.484,1.293,4.989,2.54,7.505,3.762      c-13.565,24.385-26.392,49.151-38.439,74.323c-1.706,3.565,1.15,6.671,4.133,6.999c5.465,2.723,10.983,5.316,16.551,7.791      c-3.758,11.317-4.317,22.617,0.173,30.966c9.054,16.836,26.091,17.51,40.133,9.506c0.658,7.648,1.374,15.291,2.202,22.927      c0.435,4.013,5.344,6.276,8.312,3.07c21.218-22.922,41.071-46.973,59.557-72.151      C308.38,181.074,301.393,174.458,297.734,179.442z M251.461,164.039c0.655,1.397,1.155,2.827,1.571,4.272      c-9.186,0.479-19.019-1.466-20.804-9.591C239.32,155.634,246.279,156.518,251.461,164.039z M204.339,220.612      c-4.475-6.045-4.205-15.403-1.083-25.097c4.363,1.819,8.746,3.592,13.176,5.265c5.722,2.16,10.262-6.324,4.472-8.51      c-4.722-1.783-9.391-3.68-14.037-5.63c4.3-8.825,10.503-17.166,17.181-22.734c4.854,11.115,18.099,14.056,30.236,13.821      c-0.087,10.08-4.159,20.432-8.669,28.992c-0.805,1.528-1.784,3.111-2.892,4.694c-0.383-5.778-0.732-11.559-1.018-17.345      c-0.306-6.185-9.913-5.772-9.605,0.435c0.441,8.906,1.017,17.799,1.687,26.685C224.648,228.805,212.975,232.277,204.339,220.612      z"/>
			</g>
			<g>
				<path style="fill:#A01374;" d="M299.408,214.971c10.578,6.444,21.514,12.141,32.893,17.063c0.971,0.42,1.902,0.499,2.76,0.36      c1.851-0.153,3.603-1.263,4.173-3.59c3.454-14.113,1.122-26.66-13.28-32.608c-14.56-6.014-29.474,5.269-37.115,16.892      c-7.893,12.007-16.026,30.737-3.164,42.143c11.582,10.272,31.161-1.505,40.326-9.13c4.765-3.964-2.323-10.479-7.018-6.574      c-2.659,2.329-5.552,4.304-8.677,5.926c-5.85,3.377-23.171,8.812-21.632-7.78c0.745-8.027,5.577-15.991,10.352-22.228      C299.149,215.285,299.281,215.131,299.408,214.971z M324.711,206.04c6.491,2.681,7.104,8.968,6.297,14.865      c-8.338-3.843-16.446-8.103-24.346-12.786C311.872,204.637,318.039,203.284,324.711,206.04z"/>
			</g>
		</g>
		<g>
			<g>
				<g>
					<path style="fill:#FFE8FF;" d="M352.645,225.131c1.599,0.999,4.837-0.793,8.431-4.97c3.587-4.152,7.402-10.76,9.881-18.694       c2.467-7.938,3.082-15.543,2.488-20.998c-0.585-5.48-2.231-8.794-4.115-8.88c-1.942-0.092-3.769,2.946-5.622,7.644       c-1.849,4.716-3.827,11.089-6.004,18.105c-2.195,7.01-4.188,13.379-5.345,18.31       C351.217,220.566,350.994,224.104,352.645,225.131z"/>
				</g>
			</g>
			<g>
				<g>
					<path style="fill:#FFE8FF;" d="M367.51,162.919c2.848-2.549,2.38-7.718-1.452-11.115c-3.827-3.402-9.015-3.254-11.209-0.125       c-2.21,3.144-1.177,7.676,1.994,10.504C360.028,164.997,364.651,165.486,367.51,162.919z"/>
				</g>
			</g>
		</g>
		<path style="fill:#C6207B;" d="M216.193,242.686c-15.644-12.267-31.092-27.425-34.304-47.043    c-1.7-10.382,0.256-21.034,3.258-31.115c9.44-31.703,28.815-59.188,44.801-88.249c-6.189-1.144-12.483-1.195-18.572,0.122    c-13.074,2.827-23.096,10.03-31.279,20.86c-9.235,12.222-13.967,27.404-15.99,42.517c-3.428,25.615,0.482,51.582,8.567,75.587    c8.085,24.006,20.241,46.213,33.546,67.45c0.557,0.888,1.137,1.779,1.896,2.484c1.011,0.224,2.074,0.198,3.122,0.152    c19.204-0.838,38.494-2.565,57.431-6.461C250.781,267.358,232.839,255.738,216.193,242.686z"/>
		<g>
			<path style="fill:#8C0D6B;" d="M177.824,183.906c1.153,0.574,2.317,1.12,3.475,1.683c0.257-7.108,1.809-14.217,3.847-21.062     c7.368-24.744,20.788-46.918,33.925-69.278c-3.35-1.59-6.68-3.222-9.974-4.937c-5.498-2.862-9.971,5.647-4.471,8.51     c2.484,1.293,4.989,2.541,7.505,3.762c-13.565,24.385-26.392,49.151-38.439,74.323     C171.986,180.472,174.841,183.579,177.824,183.906z"/>
			<path style="fill:#8C0D6B;" d="M193.858,221.254c0.217,0.477,0.443,0.949,0.69,1.409c3.231,6.007,7.48,9.947,12.245,12.179     C202.103,230.64,197.673,226.126,193.858,221.254z"/>
		</g>
		<g>
			<g>
				<g>
					<path style="fill:#FFE8FF;" d="M313.975,333.988c1.433,1.236,5.731-1.016,11.283-6.032c5.547-5.003,12.265-12.838,18.329-22.41       c6.054-9.578,10.259-19.003,12.406-26.157c2.157-7.165,2.352-12.013,0.622-12.779c-3.597-1.52-13.225,13.395-24.756,31.514       C320.419,316.302,311.062,331.389,313.975,333.988z"/>
				</g>
			</g>
			<path style="fill:#A4C2F7;" d="M321.095,315.596c-5.704,9.699-9.018,16.698-7.12,18.392c1.433,1.236,5.731-1.016,11.283-6.032     c1.549-1.398,3.192-3.024,4.885-4.839C327.182,320.552,324.163,318.049,321.095,315.596z"/>
			<g>
				<g>
					<path style="fill:#FFE8FF;" d="M361.627,259.376c3.29,1.966,8.408-0.541,11.429-5.599c3.022-5.058,2.804-10.752-0.487-12.718       c-3.29-1.966-8.407,0.541-11.429,5.599C358.119,251.717,358.337,257.41,361.627,259.376z"/>
				</g>
			</g>
		</g>
	</g>
</g>















</svg>
