<?xml version="1.0" encoding="UTF-8"?>
<!-- Generator: Adobe Illustrator 25.2.1, SVG Export Plug-In . SVG Version: 6.00 Build 0)  -->
<svg xmlns="http://www.w3.org/2000/svg" xmlns:xlink="http://www.w3.org/1999/xlink" version="1.1" id="Capa_1" x="0px" y="0px" viewBox="0 0 512 512" style="enable-background:new 0 0 512 512;" xml:space="preserve" width="512" height="512">
<g>
	<path style="fill:#FFFFFF;" d="M494.936,361.589c-0.986-0.988-2.001-1.942-3.054-2.857c-9.013-7.86-20.054-12.715-31.931-14.041   c-1.227-0.137-2.444-0.2-3.662-0.259c0.64-1.843,1.203-3.695,1.634-5.546c1.239,0.275,2.483,0.482,3.735,0.622c0,0,0,0,0.002,0   c1.02,0.114,2.048,0.182,3.083,0.203c13.683,0.282,26.819-9.985,29.907-23.371c2.452-10.618-1.303-20.585-11.13-29.701   c9.445-2.614,16.249-8.61,18.712-16.797c1.602-5.328,1.225-11.094-1.124-17.149c-3.782-9.729-11.705-17.51-21.479-21.631   c1.066-2.881,1.895-6.086,2.076-9.619c0.45-8.547-3.316-16.676-9.831-21.222c-6.597-4.591-15.889-5.22-23.726-1.692   c-5.383,2.422-9.32,6.217-12.462,9.61c-5.089,5.493-9.9,11.572-14.402,18.193l0.616-6.748c0.694-7.604-4.697-14.417-12.257-15.492   l-31.663-4.501l2.332-9.724l17.663,0.271c2.985,0.045,5.908-0.842,8.365-2.537l9.069-6.263c3.403-2.35,5.624-6.056,6.095-10.166   l3.345-29.257c0.415-3.632-0.574-7.261-2.726-10.163c2.947,0.033,5.856-0.841,8.313-2.538l9.069-6.263   c2.711-1.873,4.697-4.625,5.616-7.79l8.297-28.516c1.23-4.226,0.45-8.782-2.117-12.36c-2.567-3.577-6.638-5.755-11.03-5.964   l-64.137-2.75c-2.138-3.448-5.629-5.848-9.638-6.569l-40.393-7.241c-3.731-0.663-7.56,0.168-10.675,2.317l-9.07,6.266   c-2.719,1.877-4.703,4.639-5.621,7.813l-8.46,29.268l-1.533-10.633c-0.542-3.762-2.558-7.154-5.603-9.43   c-3.043-2.279-6.866-3.253-10.631-2.708l-17.308,2.5c0.456-4.944,0.57-9.76,0.658-14.297c0.135-6.907-4.678-12.927-11.444-14.317   l-19.667-4.039c-3.843-0.793-7.812,0.029-11.027,2.25l-9.07,6.266c-0.583,0.404-1.134,0.848-1.646,1.328   c-5.939-2.557-12.185-4.114-18.67-4.681c-15.83-1.312-31.645,3.81-44.69,14.442c-4.158,2.397-8.05,5.265-11.654,8.51l0.021-1.547   c0.054-3.93-1.51-7.708-4.323-10.453c-2.813-2.746-6.635-4.205-10.554-4.063L72.403,58.18c-2.723,0.104-5.358,0.981-7.598,2.529   l-9.07,6.263c-4.011,2.77-6.339,7.39-6.179,12.264l5.79,176.473c0.115,3.544,1.521,6.756,3.755,9.197   c-0.646,0.672-1.28,1.367-1.874,2.122c-2.178,2.768-3.938,5.773-5.23,8.938c-1.512,3.699-2.407,7.578-2.695,11.735   c-6.904-2.592-13.276-3.994-19.72-4.254c-13.924-0.588-24.805,5.654-28.396,16.287c-3.85,11.398,1.795,23.212,15.096,31.6   c7.151,4.512,14.554,8.517,22.178,12.007c-11.387,2.821-20.185,7.855-26.118,15.01c-5.046,6.088-6.613,13.314-4.291,19.85   c1.046,2.926,2.796,5.506,5.34,7.882c5.025,4.692,11.867,7.716,19.788,8.747l0.876,0.105c1.203,0.134,2.414,0.223,3.63,0.264   c-0.001,3.605,0.373,7.334,1.32,11.106c2.268,9.029,8.039,15.218,15.839,16.981c0.689,0.157,1.383,0.272,2.076,0.349   c4.973,0.555,10.145-0.869,14.567-4.018c7.212-5.137,10.197-12.77,11.702-18.088c2.291,6.524,5.264,13.406,9.656,19.713   c7.424,10.656,18.349,19.216,33.4,26.164c9.944,4.591,19.611,7.436,28.734,8.455l0.002,0c6.832,0.763,13.476,0.514,19.745-0.738   c19.849-3.963,44.264-21.803,50.765-44.79c2.207-7.8,3.822-15.826,5.071-23.642c5.921,7.002,13.171,12.469,21.375,15.831   c-3.491,0.543-6.917,1.198-10.296,1.996c-7.655,1.812-12.865,8.849-12.386,16.73c0.474,7.803,6.376,14.089,14.036,14.944   c1.831,0.204,3.679,0.092,5.492-0.337c8.052-1.901,16.503-2.882,26.095-2.998c7.301,13.882,19.654,24.941,34.443,30.468   c1.456,0.545,2.93,0.902,4.376,1.064c5.216,0.582,10.319-1.392,13.726-5.375c1.172-1.393,2.072-2.956,2.694-4.678   c5.775,5.055,12.433,9.099,19.648,11.794c6.711,2.512,13.795,0.747,18.053-4.251c2.024-2.384,3.25-5.272,3.647-8.613   c0.045-0.385,0.084-0.77,0.115-1.156c8.091,7.372,18.021,12.704,28.776,15.196c0.709,0.164,1.466,0.3,2.227,0.385   c6.129,0.684,11.931-1.98,15.135-6.936c1.705-2.636,2.546-5.668,2.499-9.013c-0.002-0.233-0.009-0.468-0.016-0.699   c7.821,5.401,16.972,8.911,26.758,10.004c32.08,3.583,61.093-19.602,64.676-51.682   C513.609,391.674,507.528,374.266,494.936,361.589z"/>
	<g>
		<g>
			<g>
				<path style="fill:#FFBC39;" d="M422.294,117.419l9.069-6.264l-4.76-8.548l3.987-13.704l-56.762-2.435l-2.294-6.752l-9.069,6.264      c0,0-49.658,165.278-48.724,164.798c0.934-0.48,81.925,5.47,81.925,5.47l9.069-6.264l-7.654-9.249l1.478-16.193l-47.254-6.715      l10.209-42.584l36.683,0.562l9.069-6.264c0,0-3.74-9.782-6.652-14.878l0.928-8.114l-33.394,1.988l13.304-38.505L422.294,117.419      z"/>
			</g>
			<g>
				<polygon style="fill:#FFBC39;" points="354.9,79.372 327.543,74.469 323.576,65.868 314.507,72.133 280.935,188.297       267.493,95.101 249.442,97.708 246.186,93.224 237.117,99.488 261.805,253.934 289.478,255.648 298.548,249.384       295.988,238.107     "/>
			</g>
			<g>
				<path style="fill:#FFBC39;" d="M234.463,68.839c-2.383-0.489-4.765-0.978-7.148-1.467l-3.444-8.832l-9.069,6.264      c-2.968,15.671-11.911,30.134-24.603,39.793c-12.693,9.659-29.016,14.422-44.912,13.105l-6.256-0.481      c-1.013,7.138-2.596,14.482-2.934,21.655c18.579,1.798,34.988,3.126,53.325-3.15c10.001-3.423,19.268-9.421,26.57-17.019      c6.098-6.345,11.661-13.435,14.734-21.682C234.052,88.099,234.277,78.363,234.463,68.839z"/>
			</g>
			<g>
				<polygon style="fill:#FFBC39;" points="226.632,247.254 226.574,211.436 104.737,215.361 106.614,77.135 79.564,78.167       72.948,72.501 63.879,78.766 69.669,255.239 226.654,260.981 235.723,254.717     "/>
			</g>
			<g>
				<path style="fill:#FFBC39;" d="M176.085,70.21c-29.302-2.433-55.412,23.96-58.318,58.951      c-2.906,34.991,18.492,65.33,47.794,67.764c29.302,2.434,55.411-23.96,58.318-58.951      C226.785,102.983,205.387,72.644,176.085,70.21z M167.75,170.562c-14.773-1.227-25.446-17.909-23.839-37.259      s14.886-34.043,29.659-32.816c14.773,1.227,25.446,17.908,23.839,37.259C195.802,157.097,182.523,171.789,167.75,170.562z"/>
			</g>
			<g>
				<g>
					<polygon style="fill:#FF2995;" points="72.948,72.501 115.684,70.871 113.807,209.096 235.643,205.172 235.723,254.717        78.739,248.975      "/>
				</g>
				<g>
					<path style="fill:#FF2995;" d="M185.154,63.946c-29.302-2.434-55.412,23.96-58.318,58.951s18.492,65.33,47.794,67.764       c29.302,2.434,55.412-23.96,58.318-58.951C235.854,96.719,214.456,66.38,185.154,63.946z M176.82,164.298       c-14.773-1.227-25.446-17.908-23.839-37.259c1.607-19.351,14.886-34.043,29.659-32.816       c14.773,1.227,25.446,17.909,23.839,37.259C204.871,150.833,191.593,165.525,176.82,164.298z"/>
				</g>
				<g>
					<path style="fill:#FF2995;" d="M154.357,111.438c15.895,1.317,32.219-3.446,44.912-13.105       c12.693-9.658,21.635-24.122,24.603-39.793c6.554,1.345,13.108,2.689,19.661,4.034c-0.186,9.524-0.411,19.26-3.737,28.186       c-3.073,8.247-8.636,15.337-14.734,21.682c-7.302,7.597-16.569,13.596-26.57,17.018c-18.337,6.276-34.746,4.948-53.325,3.15       c0.338-7.174,1.921-14.516,2.934-21.655"/>
				</g>
				<g>
					<polygon style="fill:#FF2995;" points="246.186,93.224 276.562,88.837 290.005,182.033 323.576,65.868 363.97,73.108        298.548,249.384 270.874,247.67      "/>
				</g>
				<g>
					<path style="fill:#FF2995;" d="M439.661,82.639l-68.126-2.922c0,0-49.658,165.278-48.724,164.798       c0.934-0.48,81.926,5.47,81.926,5.47l2.894-31.707l-47.254-6.715l10.209-42.584l36.683,0.563l3.345-29.257l-33.394,1.989       l13.304-38.505l40.841,7.387L439.661,82.639z"/>
				</g>
			</g>
			<g>
				<g>
					<path style="fill:#C87CBE;" d="M220.97,337.971c0.67-10.239,1.497-20.369,1.452-30.7c-0.011-2.629,1.252-26.923,0.645-37.428       c-10.65-0.526-21.291-1.197-31.919-2.069c-0.91,14.562-1.334,36.896-3.749,49.579c-1.079,5.667-2.494,11.399-5.592,16.266       c-3.098,4.867-8.164,8.793-13.918,9.194c-7.808,0.545-14.849-5.554-17.949-12.741c-3.1-7.187-3.119-15.273-3.088-23.1       c0.038-9.772,1.87-29.854,1.944-41.922c-9.052,0.175-18.103,0.423-27.154,0.735c-0.264,9.578-0.788,24.846-0.776,31.31       c0.026,13.439,0.082,27.093,3.881,39.983c3.799,12.89,11.924,25.145,24.138,30.753c12.894,5.919,25.986,6.127,37.388-2.552       c-0.188,11.934,0.743,33.643-11.541,40.638c-12.188,6.939-27.963,2.772-38.327-5.612       c-12.523-10.131-15.665-24.334-19.174-39.35c-2.798,0.311-27.455,4.585-27.466,4.879c-0.269,6.985,1.705,14.068,3.74,20.854       c2.751,9.173,5.626,18.504,11.101,26.362c6.734,9.668,16.95,16.406,27.648,21.344c12.38,5.715,26.296,9.347,39.667,6.676       c16.325-3.261,35.114-18.136,39.782-34.639c4.417-15.614,6.535-32.861,7.922-49.663       C220.148,350.401,220.569,344.098,220.97,337.971z"/>
				</g>
				<path style="fill:#C87CBE;" d="M325.806,279.444c-7.542-1.294-15.107-2.425-22.707-3.348c-0.663,4.179-1.909,8.222-3.619,12.065      c-5.727-4.738-12.491-7.823-19.944-8.655c-24.695-2.758-47.52,20.132-50.981,51.125c-3.461,30.994,13.752,58.354,38.447,61.112      c24.695,2.757,47.52-20.132,50.981-51.126c1.214-10.873-0.124-21.293-3.429-30.367      C320.722,301.236,324.311,290.459,325.806,279.444z M277.057,301.71c3.334,0.372,6.403,1.689,9.103,3.745      c-1.106,0.882-2.234,1.745-3.44,2.538c-9.104,5.984-18.82,9.342-28.595,8.621C259.501,306.778,268.09,300.709,277.057,301.71z       M297.519,339.188c-2.144,19.198-14.781,33.543-28.226,32.041c-13.445-1.501-22.606-18.281-20.462-37.479      c0.19-1.697,0.488-3.341,0.835-4.954c15.061,6.564,33.22,5.362,47.555-2.612C297.882,330.276,298.025,334.66,297.519,339.188z"/>
				<g>
					<path style="fill:#C87CBE;" d="M414.235,294.704c-0.032-2.589,0.602-7.659,0.065-11.329       c-8.939-0.624-17.846-1.547-26.688-3.076c-1.029,16.049-2.188,32.107-4.78,47.975c-1.217,7.452-2.86,15.113-7.313,21.21       c-1.953,2.675-4.734,5.121-8.045,5.217c-3.492,0.102-6.604-2.534-8.11-5.687c-1.506-3.152-1.724-6.746-1.852-10.238       c-0.683-18.495,0.419-37.052,3.258-55.34c-8.124-0.362-16.213-1.205-24.321-2.126c-1.365,7.1-2.457,14.252-3.271,21.436       c-0.837,7.384,0.353,14.246,0.056,21.641c-0.488,12.154,0.829,27.704,5.064,39.163c3.123,8.449,9.027,16.197,17.26,19.849       c9.895,4.389,21.932,2.146,30.777-4.094c9.283-6.549,15.43-15.602,19.527-25.704c5.068-12.495,7.001-26.595,7.855-39.542       C414.144,307.62,414.317,301.161,414.235,294.704z"/>
				</g>
			</g>
			<g>
				<path style="fill:#FFBC39;" d="M65.264,281.386c-1.525,3.731-1.962,7.739-1.631,12.049c0.432,5.625,0.865,11.25,1.297,16.875      c-5.322-3.007-11.274-5.199-16.855-7.64c-6.05-2.647-12.462-4.625-19.098-4.904c-5.606-0.236-12.42,1.24-14.215,6.555      c-2.019,5.978,3.83,11.526,9.166,14.893c17.582,11.092,37.165,19.001,57.518,23.229c8.509-16.334,11.383-35.538,8.027-53.647      c-0.973-5.253-2.634-10.712-6.619-14.27c-4.816-4.3-10.438-3.629-14.367,1.363C67.104,277.652,66.042,279.483,65.264,281.386z"/>
			</g>
			<g>
				<path style="fill:#FF2995;" d="M70.117,394.839c3.414-12.636,5.699-26.379,4.266-39.369c-10.44-0.6-21.429-0.83-31.724,1.578      c-7.247,1.695-14.53,4.721-19.28,10.451c-1.372,1.655-2.553,3.852-1.832,5.878c0.312,0.877,0.948,1.599,1.629,2.235      c3.187,2.976,7.532,4.446,11.857,5.009c6.78,0.883,13.816-0.313,19.924-3.386c-2.112,8.385-4.159,17.196-2.05,25.582      c0.707,2.812,2.265,5.853,5.093,6.492c1.792,0.405,3.677-0.295,5.174-1.362C67.29,405.011,68.927,399.753,70.117,394.839z"/>
			</g>
			<g>
				<path style="fill:#FF2995;" d="M456.779,271.915c-2.919-0.842-36.282-15.633-35.235-17.713      c6.542-12.995,14.76-25.64,24.658-36.326c2.289-2.471,4.756-4.896,7.827-6.278c3.071-1.382,6.889-1.545,9.652,0.381      c2.704,1.886,3.888,5.419,3.715,8.711c-0.172,3.293-1.5,6.408-2.954,9.367c-2.28,4.638-4.923,9.096-7.897,13.322      c11.988-4.102,26.614,2.697,31.205,14.507c0.968,2.489,1.527,5.27,0.757,7.827c-1.556,5.174-7.679,7.357-13.055,7.896      C469.196,274.236,462.821,273.658,456.779,271.915z"/>
			</g>
			<g>
				<path style="fill:#FFBC39;" d="M469.673,293.73c-3.001-2.246-6.084-4.191-8.536-5.842      c-10.238-6.896-21.631-12.789-33.903-14.905c-2.601,14.66-2.736,31.004-2.334,45.886c0.245,9.088,1.068,18.444,5.237,26.523      c1.027,1.991,2.616,4.103,4.856,4.154c2.144,0.048,3.804-1.83,4.921-3.659c5.406-8.85,5.636-19.802,5.707-30.172      c5.325,5.146,12.014,9.517,19.418,9.668c6.982,0.143,14.064-5.403,15.649-12.267      C482.533,305.123,476.302,298.691,469.673,293.73z"/>
			</g>
			<g>
				<path style="fill:#BFC255;" d="M454.993,392.647c-21.736,18.238-48.145,27.568-75.767,29.679c4.559-1.62,8.879-3.803,12.6-6.875      c6.386-5.272,10.774-13.486,9.801-21.709c-0.041-0.351-0.101-0.722-0.331-0.99c-0.49-0.574-1.409-0.373-2.115-0.108      c-13.589,5.099-24.67,16.443-29.511,30.122c-3.768,0.064-7.549,0.024-11.338-0.167c-9.869-0.495-19.709-1.62-29.535-2.852      c6.778-0.809,13.471-2.538,19.224-6.145c7.016-4.399,12.433-11.974,12.534-20.254c0.005-0.354-0.007-0.729-0.2-1.025      c-0.411-0.633-1.348-0.553-2.083-0.382c-14.393,3.353-27.062,13.454-33.536,26.739l-0.146,0.534      c-10.878-1.388-21.741-2.797-32.607-3.572c5.475-2.029,10.656-4.779,14.894-8.752c6.041-5.664,9.904-14.138,8.414-22.283      c-0.064-0.348-0.147-0.714-0.392-0.968c-0.525-0.542-1.429-0.284-2.118,0.025c-13.138,5.898-23.42,17.777-27.458,31.594      c-13.438-0.59-26.886,0.021-40.379,3.207c-2.17,0.513-1.644,3.959,0.548,3.441c13.01-3.073,25.992-3.741,38.968-3.244      l0.057,0.412c4.714,14.006,15.98,25.651,29.823,30.825c0.707,0.264,1.626,0.464,2.115-0.111c0.229-0.269,0.289-0.64,0.33-0.991      c0.963-8.225-3.436-16.433-9.829-21.697c-4.818-3.968-10.627-6.476-16.675-8.154c11.66,0.741,23.32,2.288,34.992,3.781      c4.878,13.625,15.949,24.909,29.51,29.978c0.707,0.264,1.626,0.464,2.115-0.111c0.229-0.269,0.289-0.64,0.329-0.991      c0.963-8.224-3.436-16.433-9.829-21.696c-2.863-2.357-6.085-4.178-9.489-5.637c9.297,1.064,18.607,1.903,27.938,2.055      c1.366,0.022,2.729-0.001,4.093-0.015l0.094,0.342c6.491,13.276,19.173,23.361,33.57,26.695      c0.735,0.171,1.672,0.249,2.083-0.384c0.192-0.297,0.203-0.672,0.198-1.025c-0.112-8.28-5.539-15.848-12.56-20.238      c-4.8-3.001-10.254-4.688-15.862-5.636c29.083-1.725,57.148-11.769,79.703-30.694      C458.887,393.925,456.716,391.201,454.993,392.647z"/>
			</g>
			<g>
				
					<ellipse transform="matrix(0.5476 -0.8368 0.8368 0.5476 -131.9453 561.7072)" style="fill:#FF2995;" cx="453.455" cy="402.867" rx="44.207" ry="44.208"/>
			</g>
			<g>
				<path style="fill:#9B2560;" d="M495.037,417.769c-4.889-3.019-11.879-6.549-20.46-7.296c-0.409-0.865-0.869-1.963-1.239-3.316      c-0.994-3.527-1.51-8.839-0.965-14.533c0.55-5.706,2.205-10.748,3.704-14.179c0.986-2.264,2.065-3.731,2.607-4.593      c2.253-0.581,4.293-1.313,6.096-2.147c-0.746-0.751-1.517-1.475-2.316-2.172c-3.478,1.06-7.793,1.881-12.426,2.261      c-6.517,0.477-12.621-0.013-16.644-1.056c-4.076-1.048-5.942-3.072-6.346-2.741c-0.174,0.136,0.052,0.862,0.918,1.885      c0.854,1.021,2.43,2.247,4.611,3.173c4.396,1.817,10.728,2.698,17.728,2.203c2.094-0.175,4.102-0.475,6.014-0.862      c-0.759,0.688-1.591,1.618-2.392,2.861c-2.227,3.45-4.402,8.777-5.012,15.025c-0.127,1.345-0.169,2.658-0.16,3.939      c-0.779-0.123-2.11-0.148-3.817-0.306c-2.68-0.233-6.331-0.925-9.892-2.736c-3.559-1.813-6.267-4.359-8.031-6.39      c-0.923-1.05-1.626-1.947-2.157-2.547c1.391-3.42,2.068-6.717,2.308-9.339c0.416-4.535-0.159-7.304-0.596-7.298      c-0.519-0.007-0.828,2.719-1.827,6.892c-0.991,4.145-2.853,9.829-6.757,14.834c-3.898,4.972-9.103,7.902-13.069,9.101      c-1.791,0.565-3.311,0.843-4.47,1.033c-3.949-1.373-7.711-2.02-10.856-1.951c-0.018,0.151-0.056,0.295-0.073,0.447      c-0.076,0.682-0.079,1.353-0.124,2.031c4.808,0.45,11.259,2.558,17.601,6.351c6.464,3.826,11.276,8.74,14.021,12.799      c2.786,4.051,3.811,7.045,4.333,6.895c0.103-0.02,0.165-0.263,0.162-0.682c0.986-0.721,3.181-3.098,6.994-5.645      c4.738-3.192,12.38-6.496,21.102-5.856c8.234,0.527,15.331,3.764,20.503,6.348C494.451,419.407,494.744,418.588,495.037,417.769      z M439.902,410.176c-0.197,0.936-0.281,1.744-0.298,2.422c-2.685-3.282-6.344-6.591-10.824-9.236      c-1.513-0.907-3.046-1.689-4.574-2.385c0.414-0.04,0.83-0.082,1.279-0.154c4.579-0.686,10.784-3.659,15.238-9.349      c1.369-1.759,2.441-3.587,3.32-5.409c0.223,0.628,0.528,1.337,0.956,2.124c1.375,2.566,4.139,5.769,8.161,7.908      c-2.456,0.728-5.306,2.151-7.795,4.525C442.16,403.675,440.466,407.425,439.902,410.176z M460.517,412.318      c-3.903,1.428-7.083,3.452-9.478,5.423c-3.131,2.616-4.881,5.05-5.643,6.493c-0.236-1.45-0.879-3.667-2.273-6.36      c-0.615-1.213-1.409-2.491-2.359-3.79c0.974-1.779,2.598-6.805,6.997-10.949c3.112-3.003,6.608-4.563,9.016-5.535      c3.082,0.943,6.032,1.07,8.217,0.768c1.763-0.233,3.041-0.664,3.783-1.067c0.15,4.213,0.987,7.958,2.262,10.72      c0.425,0.924,0.891,1.696,1.356,2.346C468.116,410.267,464.004,411.028,460.517,412.318z"/>
			</g>
		</g>
		<g>
			<g>
				<path style="fill:#FFBC39;" d="M94.975,92.825c7.175,0.801,8.418-10.326,1.242-11.127C89.042,80.897,87.8,92.024,94.975,92.825      L94.975,92.825z"/>
			</g>
			<g>
				<path style="fill:#FFBC39;" d="M94.351,123.165c7.176,0.801,8.418-10.326,1.243-11.127      C88.419,111.236,87.176,122.363,94.351,123.165L94.351,123.165z"/>
			</g>
			<g>
				<path style="fill:#FFBC39;" d="M95.112,158.792c7.176,0.801,8.418-10.326,1.243-11.127      C89.179,146.864,87.936,157.991,95.112,158.792L95.112,158.792z"/>
			</g>
			<g>
				<path style="fill:#FFBC39;" d="M95.48,197.931c7.175,0.801,8.418-10.326,1.243-11.127      C89.547,186.002,88.305,197.129,95.48,197.931L95.48,197.931z"/>
			</g>
			<g>
				<path style="fill:#FFBC39;" d="M98.017,235.336c7.176,0.801,8.418-10.326,1.242-11.127      C92.084,223.408,90.841,234.535,98.017,235.336L98.017,235.336z"/>
			</g>
			<g>
				<path style="fill:#FFBC39;" d="M135.81,236.398c0.13,0.015,0.26,0.029,0.39,0.044c3.033,0.339,5.846-1.909,6.185-4.942      c0.339-3.033-1.91-5.846-4.942-6.185c-0.13-0.014-0.26-0.029-0.39-0.044c-3.033-0.339-5.846,1.909-6.185,4.942      C130.53,233.246,132.778,236.059,135.81,236.398L135.81,236.398z"/>
			</g>
			<g>
				<path style="fill:#FFBC39;" d="M175.816,235.336c7.175,0.801,8.418-10.326,1.242-11.127      C169.883,223.408,168.64,234.535,175.816,235.336L175.816,235.336z"/>
			</g>
			<g>
				<path style="fill:#FFBC39;" d="M206.848,236.827c7.176,0.801,8.418-10.326,1.243-11.127      C200.915,224.899,199.673,236.026,206.848,236.827L206.848,236.827z"/>
			</g>
			<g>
				<path style="fill:#FFBC39;" d="M255.676,106.323c-0.014,0.13-0.029,0.26-0.044,0.39c-0.339,3.033,1.909,5.846,4.942,6.185      c3.033,0.339,5.846-1.909,6.185-4.942c0.014-0.13,0.029-0.26,0.044-0.39c0.339-3.033-1.909-5.846-4.942-6.185      C258.828,101.042,256.015,103.291,255.676,106.323L255.676,106.323z"/>
			</g>
			<g>
				<path style="fill:#FFBC39;" d="M266.541,140.814c7.175,0.801,8.418-10.326,1.242-11.127      C260.608,128.886,259.365,140.012,266.541,140.814L266.541,140.814z"/>
			</g>
			<g>
				<path style="fill:#FFBC39;" d="M271.112,181.212c7.175,0.801,8.418-10.326,1.242-11.127      C265.18,169.283,263.937,180.41,271.112,181.212L271.112,181.212z"/>
			</g>
			<g>
				<path style="fill:#FFBC39;" d="M279.201,211.339c7.176,0.801,8.418-10.326,1.243-11.127      C273.268,199.411,272.025,210.538,279.201,211.339L279.201,211.339z"/>
			</g>
			<g>
				<path style="fill:#FFBC39;" d="M294.517,230.717c0.014-0.13,0.029-0.26,0.044-0.39c0.339-3.033-1.909-5.846-4.942-6.185      c-3.033-0.339-5.846,1.91-6.185,4.942c-0.014,0.13-0.029,0.26-0.044,0.39c-0.339,3.033,1.909,5.846,4.942,6.185      C291.365,235.998,294.178,233.749,294.517,230.717L294.517,230.717z"/>
			</g>
			<g>
				<path style="fill:#FFBC39;" d="M304.004,190.808c7.176,0.801,8.418-10.326,1.243-11.127      C298.071,178.88,296.828,190.007,304.004,190.808L304.004,190.808z"/>
			</g>
			<g>
				<path style="fill:#FFBC39;" d="M313.209,161.427c7.176,0.801,8.418-10.326,1.243-11.127      C307.276,149.499,306.033,160.626,313.209,161.427L313.209,161.427z"/>
			</g>
			<g>
				<path style="fill:#FFBC39;" d="M325.754,126.891c7.175,0.801,8.418-10.326,1.242-11.127      C319.821,114.962,318.578,126.089,325.754,126.891L325.754,126.891z"/>
			</g>
			<g>
				<path style="fill:#FFBC39;" d="M334.699,96.296c7.175,0.801,8.418-10.326,1.242-11.127      C328.766,84.368,327.524,95.495,334.699,96.296L334.699,96.296z"/>
			</g>
			<g>
				<path style="fill:#FFBC39;" d="M158.214,88.83c7.175,0.801,8.418-10.326,1.243-11.127      C152.281,76.902,151.038,88.028,158.214,88.83L158.214,88.83z"/>
			</g>
			<g>
				<path style="fill:#FFBC39;" d="M142.376,121.024c7.175,0.801,8.418-10.326,1.242-11.127      C136.443,109.096,135.2,120.223,142.376,121.024L142.376,121.024z"/>
			</g>
			<g>
				<path style="fill:#FFBC39;" d="M142.01,156.131c7.176,0.801,8.418-10.326,1.243-11.127      C136.077,144.203,134.834,155.33,142.01,156.131L142.01,156.131z"/>
			</g>
			<g>
				<path style="fill:#FFBC39;" d="M160.895,177.986c7.175,0.801,8.418-10.326,1.242-11.127      C154.962,166.058,153.719,177.185,160.895,177.986L160.895,177.986z"/>
			</g>
			<g>
				<path style="fill:#FFBC39;" d="M198.516,177.054c7.176,0.801,8.418-10.326,1.243-11.127      C192.583,165.125,191.341,176.252,198.516,177.054L198.516,177.054z"/>
			</g>
			<g>
				<path style="fill:#FFBC39;" d="M216.346,148.241c7.176,0.801,8.418-10.326,1.243-11.127      C210.413,136.313,209.171,147.44,216.346,148.241L216.346,148.241z"/>
			</g>
			<g>
				<path style="fill:#FFBC39;" d="M214.461,108.538c7.175,0.801,8.418-10.326,1.242-11.127      C208.528,96.61,207.286,107.737,214.461,108.538L214.461,108.538z"/>
			</g>
			<g>
				<path style="fill:#FFBC39;" d="M192.024,83.127c7.175,0.801,8.418-10.326,1.242-11.127      C186.091,71.199,184.848,82.326,192.024,83.127L192.024,83.127z"/>
			</g>
			<g>
				<path style="fill:#FFBC39;" d="M184.577,125.758c0.419-0.216,0.838-0.433,1.257-0.65c2.705-1.397,4.142-4.477,2.846-7.389      c-1.185-2.663-4.674-4.248-7.389-2.846c-0.419,0.216-0.838,0.433-1.257,0.65c-2.705,1.398-4.142,4.477-2.846,7.389      C178.373,125.575,181.862,127.16,184.577,125.758L184.577,125.758z"/>
			</g>
			<g>
				<path style="fill:#FFBC39;" d="M229.863,80.244c7.176,0.801,8.418-10.326,1.242-11.127      C223.93,68.316,222.688,79.443,229.863,80.244L229.863,80.244z"/>
			</g>
			<g>
				<path style="fill:#FFBC39;" d="M379.037,98.878c7.176,0.801,8.418-10.326,1.243-11.127      C373.104,86.949,371.862,98.076,379.037,98.878L379.037,98.878z"/>
			</g>
			<g>
				<path style="fill:#FFBC39;" d="M409.376,99.501c7.175,0.801,8.418-10.326,1.242-11.127      C403.443,87.573,402.201,98.7,409.376,99.501L409.376,99.501z"/>
			</g>
			<g>
				<path style="fill:#FFBC39;" d="M366.668,128.3c0.13,0.015,0.26,0.029,0.39,0.044c3.033,0.339,5.846-1.909,6.185-4.942      c0.339-3.033-1.91-5.846-4.942-6.185c-0.13-0.014-0.26-0.029-0.39-0.044c-3.033-0.339-5.846,1.91-6.185,4.942      C361.387,125.148,363.635,127.961,366.668,128.3L366.668,128.3z"/>
			</g>
			<g>
				<path style="fill:#FFBC39;" d="M359.671,162.667c7.176,0.801,8.418-10.326,1.243-11.127      C353.738,150.739,352.496,161.865,359.671,162.667L359.671,162.667z"/>
			</g>
			<g>
				<path style="fill:#FFBC39;" d="M349.034,194.257c7.176,0.801,8.418-10.326,1.243-11.127      C343.102,182.329,341.859,193.456,349.034,194.257L349.034,194.257z"/>
			</g>
			<g>
				<path style="fill:#FFBC39;" d="M340.216,230.79c7.175,0.801,8.418-10.326,1.242-11.127      C334.283,218.862,333.04,229.989,340.216,230.79L340.216,230.79z"/>
			</g>
			<g>
				<path style="fill:#FFBC39;" d="M367.086,234.186c7.175,0.801,8.418-10.326,1.242-11.127      C361.153,222.258,359.911,233.384,367.086,234.186L367.086,234.186z"/>
			</g>
			<g>
				<path style="fill:#FFBC39;" d="M391.66,236.93c7.175,0.801,8.418-10.326,1.242-11.127      C385.727,225.002,384.484,236.129,391.66,236.93L391.66,236.93z"/>
			</g>
			<g>
				<path style="fill:#FFBC39;" d="M389.751,162.077c7.176,0.801,8.418-10.326,1.243-11.127      C383.818,150.149,382.575,161.275,389.751,162.077L389.751,162.077z"/>
			</g>
		</g>
	</g>
</g>















</svg>
