<svg width="20" height="20" viewBox="0 0 20 20" fill="none" xmlns="http://www.w3.org/2000/svg">
<g clip-path="url(#clip0_4063_250)">
<path d="M19.987 11.2404C19.9999 11.1823 19.9968 11.1218 19.978 11.0654C19.7494 7.76277 17.0166 5.19291 13.7061 5.16753C12.6013 1.46387 8.70313 -0.642916 4.99947 0.461975C1.29576 1.56687 -0.810981 5.46498 0.293869 9.16865C0.875605 11.1186 2.27728 12.7189 4.1337 13.5523C3.47713 13.9036 2.86718 14.3357 2.31807 14.8386L1.36709 15.7103C0.959937 16.0835 0.932354 16.716 1.30551 17.1231C1.34722 17.1686 1.39305 17.2102 1.44243 17.2473L2.5144 18.0512C4.05745 19.2036 5.93078 19.828 7.85661 19.8319H8.81059C10.7362 19.8279 12.6093 19.2035 14.1521 18.0512L14.5295 17.7682C17.6658 17.3435 20.0041 14.6637 20 11.4987C20 11.4114 19.9903 11.3267 19.987 11.2404ZM18.239 8.16546C18.8424 8.98728 19.2111 9.95763 19.3057 10.9727L19.023 11.1141L17.3864 10.0231L17.918 8.16546H18.239V8.16546ZM15.9838 6.33384C16.614 6.61613 17.1876 7.01091 17.6764 7.49881H17.6667C17.5179 7.49894 17.3872 7.59769 17.3464 7.74081L16.7217 9.92676L15.6508 10.4207L14.0001 9.32044V8.0058L15.8581 6.70583C15.9763 6.62229 16.0271 6.472 15.9838 6.33384ZM8.4546 7.9098C8.41885 7.93901 8.38956 7.97534 8.3686 8.01647C8.36473 8.02838 8.36148 8.04051 8.35893 8.0528L7.47162 7.16549L8.5306 6.10651C8.81226 6.36259 9.11425 6.59533 9.43358 6.8025H9.43291C9.06492 7.13241 8.73663 7.50398 8.4546 7.9098ZM8.01594 8.65212C7.63795 9.40006 7.41341 10.216 7.35562 11.0521C7.04726 10.1793 6.56739 9.37702 5.94432 8.69245L6.99963 7.63581L8.01594 8.65212ZM8.80292 8.60612L9.06958 8.73945L9.60757 10.0841L8.26694 11.4264L8.00961 11.2977C8.04232 10.3479 8.31527 9.42185 8.80292 8.60612ZM8.18427 12.1287C8.3126 12.1927 8.46756 12.1675 8.56893 12.066L10.0802 10.5551L11.3912 11.0794L12.0128 13.255C12.0189 13.2719 12.0265 13.2882 12.0355 13.3037C10.8738 12.7724 9.61107 12.4979 8.3336 12.4987C8.25494 12.4987 8.1766 12.502 8.09794 12.504L8.09727 12.5024C8.07061 12.353 8.04527 12.2024 8.03061 12.0517L8.18427 12.1287ZM11.6279 10.4574L10.2566 9.90876L9.64324 8.37546C9.6129 8.2995 9.55574 8.23734 9.48257 8.2008L9.18258 8.05013C9.75278 7.30803 10.4972 6.71796 11.3499 6.33217C11.3065 6.4703 11.3573 6.62063 11.4755 6.70417L13.3335 8.0058V9.32044L11.6279 10.4574ZM13.6668 9.89876L15.2448 10.9531C15.2474 10.9601 15.2468 10.9674 15.2501 10.9744C15.2562 10.9859 15.2631 10.9971 15.2708 11.0077L14.7488 12.832H12.5848L12.0542 10.9744L13.6668 9.89876ZM15.1844 6.04485V6.04651L15.2711 6.30351L13.6668 7.42515L12.0625 6.30184L12.1492 6.04485C13.1411 5.76131 14.1925 5.76131 15.1844 6.04485ZM13.0208 5.19887C11.9242 5.31228 10.8767 5.71194 9.98323 6.35784C9.6339 6.14884 9.30554 5.90673 9.00259 5.63486L11.7062 2.93225C12.2978 3.58778 12.7456 4.35984 13.0208 5.19887ZM11.2309 2.46326L8.53093 5.1632C7.58712 4.11677 7.02051 2.78467 6.9213 1.37895L6.88263 0.840966C8.48551 0.809592 10.0403 1.38966 11.2309 2.46326ZM6.21798 0.889632L6.25632 1.42629C6.36635 2.99229 7.00134 4.47538 8.05861 5.63586L7.0003 6.69417L2.76973 2.46326C3.73008 1.59682 4.93414 1.04734 6.21798 0.889632ZM2.29841 2.93458L6.52898 7.16549L5.47333 8.22113C4.31178 7.16428 2.82773 6.53009 1.2611 6.42117L0.724109 6.38284C0.882022 5.09895 1.43172 3.8949 2.29841 2.93458ZM0.675777 7.04782L1.21376 7.08616C2.61986 7.1844 3.95274 7.75006 5.00034 8.69312L2.29741 11.3964C1.2241 10.2055 0.644277 8.65074 0.675777 7.04782ZM2.76506 11.8724L5.47333 9.16544C6.33227 10.1225 6.87797 11.3193 7.0373 12.5954C6.32611 12.6996 5.63025 12.8898 4.96501 13.162C4.15203 12.8853 3.40363 12.4466 2.76506 11.8724ZM14.8711 16.6726C14.8572 16.6878 14.8419 16.7016 14.8255 16.714L13.7518 17.5183C12.3246 18.5841 10.5918 19.1616 8.81059 19.1653H7.85661C6.07536 19.1616 4.34265 18.5841 2.91539 17.5183L1.84308 16.714C1.69579 16.6035 1.66592 16.3946 1.77638 16.2473C1.78871 16.2309 1.80258 16.2156 1.81775 16.2017L2.76706 15.33C3.44567 14.7115 4.22307 14.2111 5.06701 13.8494C5.11763 13.8399 5.16534 13.8188 5.20634 13.7877C8.15777 12.5687 11.5482 13.1701 13.9001 15.33L14.8508 16.2017C14.9864 16.3261 14.9956 16.5369 14.8711 16.6726ZM14.3491 14.8386C13.7715 14.3097 13.1266 13.8591 12.4312 13.4987H14.8621L15.5954 14.232L14.9948 15.432L14.3491 14.8386ZM15.5358 16.8456C15.6705 16.5558 15.6506 16.2176 15.4828 15.9456L16.2061 14.4987H18.1274L18.2757 14.7953C17.5966 15.7458 16.6392 16.4622 15.5358 16.8456ZM18.6857 14.1263L18.6334 14.0163C18.5766 13.9028 18.4603 13.8313 18.3334 13.832H16.1381L15.3744 13.0684L15.9621 11.0114L16.9704 10.5464L18.815 11.776C18.9144 11.8422 19.0415 11.8502 19.1484 11.797L19.3227 11.7097C19.2935 12.5527 19.0758 13.3785 18.6857 14.1263Z" fill="#6F6F6F"/>
<path d="M11.3335 15.8319H11.0002V15.4986C11.0002 15.3145 10.8509 15.1653 10.6669 15.1653C10.4828 15.1653 10.3335 15.3145 10.3335 15.4986V15.8319H9.66689V15.4986C9.66689 15.3145 9.51764 15.1653 9.33356 15.1653C9.14949 15.1653 9.00024 15.3145 9.00024 15.4986V15.8319H8.33359V15.4986C8.33359 15.3145 8.18434 15.1653 8.00026 15.1653C7.81618 15.1653 7.66694 15.3145 7.66694 15.4986V15.8319H7.00028V15.4986C7.00028 15.3145 6.85104 15.1653 6.66696 15.1653C6.48288 15.1653 6.33363 15.3145 6.33363 15.4986V15.8319H5.66698V15.4986C5.66698 15.3145 5.51774 15.1653 5.33366 15.1653C5.14958 15.1653 5.00033 15.3145 5.00033 15.4986V15.8319H4.667C4.48293 15.8319 4.33368 15.9812 4.33368 16.1653C4.33368 16.3493 4.48293 16.4986 4.667 16.4986H5.00033V16.8319C5.00033 17.016 5.14958 17.1652 5.33366 17.1652C5.51774 17.1652 5.66698 17.016 5.66698 16.8319V16.4986H6.33363V16.8319C6.33363 17.016 6.48288 17.1652 6.66696 17.1652C6.85104 17.1652 7.00028 17.016 7.00028 16.8319V16.4986H7.66694V16.8319C7.66694 17.016 7.81618 17.1652 8.00026 17.1652C8.18434 17.1652 8.33359 17.016 8.33359 16.8319V16.4986H9.00024V16.8319C9.00024 17.016 9.14949 17.1652 9.33356 17.1652C9.51764 17.1652 9.66689 17.016 9.66689 16.8319V16.4986H10.3335V16.8319C10.3335 17.016 10.4828 17.1652 10.6669 17.1652C10.8509 17.1652 11.0002 17.016 11.0002 16.8319V16.4986H11.3335C11.5176 16.4986 11.6668 16.3493 11.6668 16.1653C11.6668 15.9812 11.5176 15.8319 11.3335 15.8319Z" fill="#6F6F6F"/>
</g>
<defs>
<clipPath id="clip0_4063_250">
<rect width="20" height="20" fill="white"/>
</clipPath>
</defs>
</svg>
