<svg width="22" height="22" viewBox="0 0 22 22" fill="none" xmlns="http://www.w3.org/2000/svg">
<mask id="path-1-inside-1_4071_473" fill="white">
<path d="M13.7844 11.5191C13.0323 10.8069 12.0358 10.4099 11 10.4099C9.96417 10.4099 8.96773 10.8069 8.21563 11.5191L4.85719 14.6954C2.93219 16.445 4.32094 19.7897 6.91969 19.6591C8.32907 19.6213 9.47375 18.8994 10.9966 18.9269C12.5744 18.8994 13.7466 19.5354 15.1628 19.6591C17.7169 19.7175 19.0369 16.4107 17.1394 14.6954L13.7844 11.5191ZM17.1875 17.5932C17.0238 18.0115 16.734 18.3687 16.3583 18.615C15.9826 18.8614 15.5396 18.9848 15.0906 18.9682C13.7672 18.7757 12.6019 18.2188 11 18.2394C9.39813 18.26 8.25 18.9269 6.83375 18.9716C6.39395 18.9748 5.96345 18.845 5.59865 18.5993C5.23386 18.3536 4.95179 18.0035 4.78941 17.5948C4.62703 17.186 4.59191 16.7377 4.68865 16.3087C4.78539 15.8797 5.00949 15.4899 5.33157 15.1904L8.68657 12.0313C9.31195 11.4405 10.1397 11.1113 11 11.1113C11.8603 11.1113 12.6881 11.4405 13.3134 12.0313L16.6684 15.2075C16.9856 15.5063 17.205 15.8941 17.2976 16.3199C17.3903 16.7457 17.3519 17.1896 17.1875 17.5932V17.5932Z"/>
</mask>
<path d="M13.7844 11.5191C13.0323 10.8069 12.0358 10.4099 11 10.4099C9.96417 10.4099 8.96773 10.8069 8.21563 11.5191L4.85719 14.6954C2.93219 16.445 4.32094 19.7897 6.91969 19.6591C8.32907 19.6213 9.47375 18.8994 10.9966 18.9269C12.5744 18.8994 13.7466 19.5354 15.1628 19.6591C17.7169 19.7175 19.0369 16.4107 17.1394 14.6954L13.7844 11.5191ZM17.1875 17.5932C17.0238 18.0115 16.734 18.3687 16.3583 18.615C15.9826 18.8614 15.5396 18.9848 15.0906 18.9682C13.7672 18.7757 12.6019 18.2188 11 18.2394C9.39813 18.26 8.25 18.9269 6.83375 18.9716C6.39395 18.9748 5.96345 18.845 5.59865 18.5993C5.23386 18.3536 4.95179 18.0035 4.78941 17.5948C4.62703 17.186 4.59191 16.7377 4.68865 16.3087C4.78539 15.8797 5.00949 15.4899 5.33157 15.1904L8.68657 12.0313C9.31195 11.4405 10.1397 11.1113 11 11.1113C11.8603 11.1113 12.6881 11.4405 13.3134 12.0313L16.6684 15.2075C16.9856 15.5063 17.205 15.8941 17.2976 16.3199C17.3903 16.7457 17.3519 17.1896 17.1875 17.5932V17.5932Z" fill="#0068FF"/>
<path d="M13.7844 11.5191L11.034 14.4234L11.0344 14.4238L13.7844 11.5191ZM8.21563 11.5191L10.9641 14.4253L10.9661 14.4234L8.21563 11.5191ZM4.85719 14.6954L7.54762 17.6554L7.57692 17.6287L7.60569 17.6015L4.85719 14.6954ZM6.91969 19.6591L6.81241 15.6605L6.76563 15.6618L6.71889 15.6641L6.91969 19.6591ZM10.9966 18.9269L10.9243 22.9263L10.9953 22.9275L11.0663 22.9263L10.9966 18.9269ZM15.1628 19.6591L14.8146 23.6439L14.9427 23.6551L15.0713 23.6581L15.1628 19.6591ZM17.1394 14.6954L14.3894 17.6001L14.4228 17.6318L14.457 17.6626L17.1394 14.6954ZM15.0906 18.9682L14.5149 22.9265L14.7277 22.9575L14.9426 22.9654L15.0906 18.9682ZM6.83375 18.9716L6.86262 22.9715L6.91127 22.9711L6.9599 22.9696L6.83375 18.9716ZM5.33157 15.1904L8.05545 18.1196L8.06459 18.1111L8.07368 18.1025L5.33157 15.1904ZM8.68657 12.0313L11.4287 14.9435L11.4335 14.9389L8.68657 12.0313ZM11 11.1113L11 15.1113L11 11.1113ZM13.3134 12.0313L16.0634 9.12654L16.0604 9.12366L13.3134 12.0313ZM16.6684 15.2075L13.9184 18.1123L13.9257 18.1191L16.6684 15.2075ZM16.5348 8.61477C15.0398 7.19896 13.059 6.40991 11 6.40991L11 14.4099C11.0126 14.4099 11.0248 14.4148 11.034 14.4234L16.5348 8.61477ZM11 6.40991C8.94098 6.40991 6.96023 7.19896 5.4652 8.61477L10.9661 14.4234C10.9752 14.4148 10.9874 14.4099 11 14.4099L11 6.40991ZM5.46713 8.61295L2.10869 11.7892L7.60569 17.6015L10.9641 14.4253L5.46713 8.61295ZM2.16676 11.7354C-2.53421 16.0082 0.766606 23.9734 7.1205 23.6541L6.71889 15.6641C6.98147 15.6509 7.27389 15.7343 7.50826 15.8966C7.71683 16.0411 7.82866 16.2098 7.88601 16.3479C7.94337 16.486 7.98383 16.6838 7.9392 16.9329C7.88905 17.2128 7.7422 17.4785 7.54762 17.6554L2.16676 11.7354ZM7.02697 23.6577C8.3216 23.6229 9.46762 23.267 9.98865 23.1219C10.6336 22.9423 10.8018 22.924 10.9243 22.9263L11.0688 14.9276C9.66848 14.9023 8.50293 15.2312 7.84253 15.4151C7.05817 15.6336 6.92716 15.6575 6.81241 15.6605L7.02697 23.6577ZM11.0663 22.9263C11.2958 22.9223 11.5544 22.9591 12.1473 23.1111C12.6318 23.2352 13.6914 23.5458 14.8146 23.6439L15.511 15.6743C15.218 15.6487 14.9834 15.5794 14.1333 15.3615C13.3915 15.1714 12.2752 14.904 10.9269 14.9275L11.0663 22.9263ZM15.0713 23.6581C21.3258 23.8012 24.4729 15.9326 19.8218 11.7281L14.457 17.6626C14.2573 17.4821 14.1105 17.2159 14.0587 16.9399C14.0125 16.6936 14.0503 16.4979 14.1047 16.3613C14.1591 16.2248 14.2661 16.0574 14.4682 15.9109C14.6946 15.7467 14.984 15.654 15.2543 15.6601L15.0713 23.6581ZM19.8894 11.7906L16.5344 8.61435L11.0344 14.4238L14.3894 17.6001L19.8894 11.7906ZM13.4625 16.1356C13.6012 15.7812 13.8466 15.4787 14.1649 15.27L18.5517 21.96C19.6214 21.2586 20.4464 20.2419 20.9125 19.0507L13.4625 16.1356ZM14.1649 15.27C14.4831 15.0614 14.8584 14.9568 15.2387 14.9709L14.9426 22.9654C16.2208 23.0128 17.4821 22.6614 18.5517 21.96L14.1649 15.27ZM15.6664 15.0098C15.2566 14.9502 15.0226 14.8641 14.1001 14.6384C13.3082 14.4447 12.2401 14.2231 10.9485 14.2397L11.0515 22.2391C11.3618 22.2351 11.6773 22.2816 12.1993 22.4093C12.5908 22.5051 13.6012 22.7936 14.5149 22.9265L15.6664 15.0098ZM10.9485 14.2397C9.61051 14.257 8.50383 14.5506 7.82893 14.7283C7.05542 14.9319 6.87556 14.9683 6.7076 14.9736L6.9599 22.9696C8.2082 22.9302 9.31053 22.6108 9.86561 22.4647C10.5193 22.2926 10.7876 22.2425 11.0515 22.2391L10.9485 14.2397ZM6.80489 14.9717C7.17102 14.9691 7.52942 15.0771 7.83311 15.2816L3.3642 21.917C4.39748 22.6129 5.61688 22.9805 6.86262 22.9715L6.80489 14.9717ZM7.83311 15.2816C8.13679 15.4861 8.37162 15.7777 8.5068 16.1179L1.07202 19.0716C1.53196 20.2293 2.33092 21.2211 3.3642 21.917L7.83311 15.2816ZM8.5068 16.1179C8.64198 16.4582 8.67122 16.8314 8.59068 17.1886L0.786616 15.4289C0.512591 16.6441 0.61207 17.9138 1.07202 19.0716L8.5068 16.1179ZM8.59068 17.1886C8.51014 17.5457 8.32359 17.8703 8.05545 18.1196L2.60768 12.2611C1.69539 13.1095 1.06064 14.2136 0.786616 15.4289L8.59068 17.1886ZM8.07368 18.1025L11.4287 14.9435L5.94446 9.1191L2.58946 12.2782L8.07368 18.1025ZM11.4335 14.9389C11.3163 15.0496 11.1612 15.1113 11 15.1113L11 7.11131C9.11813 7.11131 7.30757 7.83131 5.93963 9.12366L11.4335 14.9389ZM11 15.1113C10.8388 15.1113 10.6837 15.0496 10.5665 14.9389L16.0604 9.12366C14.6924 7.83131 12.8819 7.11131 11 7.11131L11 15.1113ZM10.5635 14.936L13.9185 18.1123L19.4184 12.3028L16.0634 9.12654L10.5635 14.936ZM13.9257 18.1191C13.6552 17.8643 13.4681 17.5335 13.3891 17.1703L21.2062 15.4695C20.9419 14.2547 20.3161 13.1484 19.4112 12.296L13.9257 18.1191ZM13.3891 17.1703C13.31 16.8072 13.3428 16.4286 13.483 16.0844L20.892 19.102C21.361 17.9506 21.4705 16.6843 21.2062 15.4695L13.3891 17.1703Z" fill="#0068FF" mask="url(#path-1-inside-1_4071_473)"/>
<mask id="path-3-inside-2_4071_473" fill="white">
<path d="M19.5663 6.85092C18.2531 6.5931 17.2494 8.05404 16.9881 9.31217C16.2044 13.2069 19.9788 13.9494 20.8622 10.1715C21.2231 8.55248 20.6525 7.09154 19.5663 6.85092V6.85092ZM20.1919 10.0237C19.4563 12.9456 17.0981 12.43 17.6584 9.46342C18.2566 6.80623 20.7316 6.77185 20.1919 10.0237Z"/>
</mask>
<path d="M19.5663 6.85092C18.2531 6.5931 17.2494 8.05404 16.9881 9.31217C16.2044 13.2069 19.9788 13.9494 20.8622 10.1715C21.2231 8.55248 20.6525 7.09154 19.5663 6.85092V6.85092ZM20.1919 10.0237C19.4563 12.9456 17.0981 12.43 17.6584 9.46342C18.2566 6.80623 20.7316 6.77185 20.1919 10.0237Z" fill="#0068FF"/>
<path d="M16.9881 9.31217L13.0717 8.49891L13.0692 8.51097L13.0667 8.52304L16.9881 9.31217ZM20.8622 10.1715L24.7571 11.0824L24.7618 11.0622L24.7664 11.0419L20.8622 10.1715ZM20.1919 10.0237L24.0708 11.0003L24.111 10.8408L24.1379 10.6786L20.1919 10.0237ZM17.6584 9.46342L13.7561 8.58501L13.7408 8.65278L13.7279 8.72104L17.6584 9.46342ZM20.3369 2.92585C17.844 2.43641 15.947 3.70099 14.9291 4.81568C13.9321 5.90738 13.3274 7.26758 13.0717 8.49891L20.9046 10.1254C20.9001 10.1471 20.9011 10.1358 20.9106 10.1162C20.9214 10.0943 20.908 10.132 20.8364 10.2104C20.7684 10.2849 20.5728 10.477 20.2125 10.6304C19.8141 10.7999 19.3106 10.8771 18.7956 10.776L20.3369 2.92585ZM13.0667 8.52304C12.4811 11.4333 13.3531 15.6698 17.48 16.5341C21.5277 17.3818 24.0807 13.9751 24.7571 11.0824L16.9673 9.26072C16.8911 9.58667 16.8439 9.4229 17.1652 9.14653C17.5049 8.85426 18.2124 8.51391 19.1199 8.70398C20.0392 8.89652 20.5698 9.50945 20.771 9.94575C20.9554 10.3456 20.8347 10.4729 20.9095 10.1013L13.0667 8.52304ZM24.7664 11.0419C25.0908 9.58655 25.0501 7.99229 24.4831 6.53975C23.9178 5.09166 22.641 3.43506 20.4314 2.94559L18.7012 10.7562C17.5778 10.5074 17.1294 9.70158 17.0308 9.44888C16.9304 9.19173 16.9945 9.13747 16.958 9.30119L24.7664 11.0419ZM16.3129 9.04714C16.2473 9.30799 16.2372 9.09937 16.5765 8.75951C16.9197 8.41589 17.8965 7.73675 19.2985 8.04512C20.7013 8.35368 21.3032 9.38109 21.4705 9.83772C21.6356 10.2886 21.5385 10.4728 21.589 10.2058L13.7279 8.72104C13.4982 9.93729 13.4858 11.2984 13.9585 12.589C14.4333 13.8854 15.5656 15.4153 17.5799 15.8583C19.5933 16.3012 21.2626 15.3885 22.2372 14.4125C23.2082 13.4403 23.7687 12.2004 24.0708 11.0003L16.3129 9.04714ZM21.5608 10.3418C21.5873 10.224 21.5744 10.4184 21.2917 10.718C21.0507 10.9733 20.2479 11.6438 18.9341 11.5058C17.427 11.3475 16.6393 10.2881 16.3954 9.67977C16.1906 9.1693 16.3126 8.96676 16.2459 9.36884L24.1379 10.6786C24.341 9.45475 24.356 8.03706 23.8203 6.70148C23.2453 5.26809 21.9027 3.77355 19.7696 3.54955C17.8297 3.34584 16.3298 4.31983 15.4733 5.22737C14.5752 6.17911 14.0286 7.37421 13.7561 8.58501L21.5608 10.3418Z" fill="#0068FF" mask="url(#path-3-inside-2_4071_473)"/>
<mask id="path-5-inside-3_4071_473" fill="white">
<path d="M14.0009 8.95472C15.3072 8.95472 16.3694 7.46972 16.3694 5.64784C16.2387 1.26159 11.7631 1.26159 11.6359 5.64784C11.6359 7.46972 12.6981 8.95472 14.0009 8.95472V8.95472ZM14.0009 3.02847C16.2181 3.17972 16.2181 8.11597 14.0009 8.26722C11.7837 8.11597 11.7872 3.17972 14.0009 3.02847V3.02847Z"/>
</mask>
<path d="M14.0009 8.95472C15.3072 8.95472 16.3694 7.46972 16.3694 5.64784C16.2387 1.26159 11.7631 1.26159 11.6359 5.64784C11.6359 7.46972 12.6981 8.95472 14.0009 8.95472V8.95472ZM14.0009 3.02847C16.2181 3.17972 16.2181 8.11597 14.0009 8.26722C11.7837 8.11597 11.7872 3.17972 14.0009 3.02847V3.02847Z" fill="#0068FF"/>
<path d="M16.3694 5.64784H20.3694V5.58829L20.3676 5.52877L16.3694 5.64784ZM11.6359 5.64784L7.63761 5.5319L7.63593 5.58986V5.64784H11.6359ZM14.0009 8.26722L13.7287 12.2579L14.0009 12.2765L14.2732 12.2579L14.0009 8.26722ZM14.0009 12.9547C16.2816 12.9547 17.9681 11.653 18.9274 10.313C19.8934 8.96364 20.3694 7.30182 20.3694 5.64784H12.3694C12.3694 5.81574 12.3142 5.80736 12.4226 5.656C12.5243 5.51397 13.0265 4.95472 14.0009 4.95472V12.9547ZM20.3676 5.52877C20.267 2.15211 18.1762 -1.64185 14.0014 -1.64185C9.82433 -1.64185 7.73552 2.15503 7.63761 5.5319L15.6342 5.76378C15.6469 5.32621 15.7549 5.40419 15.5318 5.68245C15.292 5.98161 14.7617 6.35815 14.0014 6.35815C13.2413 6.35815 12.7118 5.98188 12.4727 5.68394C12.2502 5.40663 12.3581 5.32939 12.3711 5.76691L20.3676 5.52877ZM7.63593 5.64784C7.63593 7.30184 8.11186 8.96286 9.07636 10.3114C10.0333 11.6494 11.7185 12.9547 14.0009 12.9547V4.95472C14.9805 4.95472 15.4832 5.51753 15.5834 5.65754C15.6911 5.80814 15.6359 5.81572 15.6359 5.64784H7.63593ZM13.7287 7.01919C13.2308 6.98523 12.7629 6.80472 12.3903 6.53629C12.0431 6.28617 11.8578 6.01922 11.7727 5.86982C11.6252 5.61108 11.6638 5.52256 11.6638 5.64784C11.6638 5.77313 11.6252 5.6846 11.7727 5.42587C11.8578 5.27646 12.0431 5.00951 12.3903 4.75939C12.7629 4.49097 13.2308 4.31045 13.7287 4.27649L14.2732 12.2579C16.5266 12.1042 17.9853 10.6821 18.7235 9.38638C19.4252 8.15483 19.6638 6.79443 19.6638 5.64784C19.6638 4.50125 19.4252 3.14085 18.7235 1.9093C17.9853 0.613625 16.5266 -0.808533 14.2732 -0.962258L13.7287 7.01919ZM14.2732 4.27649C14.7711 4.31046 15.2393 4.49104 15.6123 4.75986C15.9598 5.01033 16.1453 5.27768 16.2305 5.42732C16.378 5.68642 16.3393 5.77501 16.3393 5.64919C16.3394 5.5235 16.378 5.61109 16.2311 5.86895C16.1463 6.01785 15.9613 6.28473 15.6142 6.53504C15.2417 6.80373 14.7731 6.98504 14.2736 7.01916L13.7283 -0.96223C11.4735 -0.80818 10.0161 0.616319 9.27929 1.91017C8.57847 3.14085 8.33971 4.50031 8.33932 5.64649C8.33894 6.79254 8.57674 8.15301 9.27799 9.38493C10.016 10.6813 11.4746 12.1042 13.7287 12.2579L14.2732 4.27649Z" fill="#0068FF" mask="url(#path-5-inside-3_4071_473)"/>
<mask id="path-7-inside-4_4071_473" fill="white">
<path d="M5.01187 9.31217C4.75406 8.05404 3.74687 6.5931 2.43374 6.85092C-5.79655e-06 7.46623 1.03124 12.6534 3.40999 12.6672C4.75749 12.6225 5.37968 11.0584 5.01187 9.31217V9.31217ZM3.56812 11.9625C1.87343 12.2169 0.938432 8.00592 2.58156 7.52466C3.57156 7.42841 4.12843 8.59373 4.34156 9.46342C4.60968 10.6562 4.25562 11.8112 3.56812 11.9625Z"/>
</mask>
<path d="M5.01187 9.31217C4.75406 8.05404 3.74687 6.5931 2.43374 6.85092C-5.79655e-06 7.46623 1.03124 12.6534 3.40999 12.6672C4.75749 12.6225 5.37968 11.0584 5.01187 9.31217V9.31217ZM3.56812 11.9625C1.87343 12.2169 0.938432 8.00592 2.58156 7.52466C3.57156 7.42841 4.12843 8.59373 4.34156 9.46342C4.60968 10.6562 4.25562 11.8112 3.56812 11.9625Z" fill="#0068FF"/>
<path d="M2.43374 6.85092L1.66312 2.92585L1.55757 2.94657L1.45329 2.97294L2.43374 6.85092ZM3.40999 12.6672L3.38687 16.6671L3.46474 16.6675L3.54257 16.665L3.40999 12.6672ZM3.56812 11.9625L4.16187 15.9182L4.29555 15.8981L4.42757 15.8691L3.56812 11.9625ZM2.58156 7.52466L2.19449 3.54344L1.81915 3.57993L1.45724 3.68593L2.58156 7.52466ZM4.34156 9.46342L8.24418 8.58617L8.23575 8.54868L8.2266 8.51135L4.34156 9.46342ZM8.93044 8.50918C8.67644 7.26967 8.06922 5.90637 7.07092 4.81427C6.05216 3.69979 4.15475 2.43666 1.66312 2.92585L3.20437 10.776C2.68925 10.8771 2.18644 10.7998 1.78925 10.6309C1.4298 10.4781 1.23447 10.2866 1.16618 10.2119C1.09423 10.1332 1.08028 10.0946 1.09007 10.1147C1.09881 10.1326 1.09859 10.141 1.0933 10.1152L8.93044 8.50918ZM1.45329 2.97294C-0.730828 3.52514 -1.98579 5.14257 -2.5341 6.65027C-3.04618 8.05836 -3.03429 9.51631 -2.81786 10.7025C-2.59907 11.9018 -2.10149 13.2114 -1.22747 14.3182C-0.346302 15.434 1.20425 16.6545 3.38687 16.6671L3.43312 8.66723C4.42636 8.67297 4.95598 9.23994 5.05081 9.36003C5.13851 9.47108 5.08437 9.44291 5.05223 9.2667C5.01771 9.07751 5.07945 9.12243 4.98417 9.38444C4.92789 9.53917 4.79618 9.81601 4.51258 10.1006C4.20997 10.4042 3.82268 10.6256 3.41419 10.7289L1.45329 2.97294ZM3.54257 16.665C6.04159 16.5821 7.72848 14.9797 8.49895 13.2757C9.21035 11.7022 9.23831 9.97054 8.92599 8.48774L1.09775 10.1366C1.15324 10.4 1.05402 10.3235 1.2094 9.97983C1.29779 9.78434 1.49639 9.45555 1.89201 9.16105C2.31379 8.84708 2.81187 8.6848 3.27741 8.66936L3.54257 16.665ZM2.97436 8.00679C4.4648 7.78308 5.36262 8.66558 5.56207 8.90901C5.7617 9.15267 5.75236 9.26176 5.72794 9.15187C5.70346 9.04167 5.75854 9.13793 5.68013 9.44538C5.60152 9.75359 5.15762 10.9382 3.70587 11.3634L1.45724 3.68593C-0.816064 4.35175 -1.75927 6.2432 -2.07173 7.46836C-2.384 8.69277 -2.29734 9.9161 -2.08163 10.887C-1.86585 11.8582 -1.42638 13.0024 -0.626153 13.9791C0.173891 14.9556 1.8241 16.2691 4.16187 15.9182L2.97436 8.00679ZM2.96862 11.5059C2.3485 11.5662 1.75582 11.4162 1.28658 11.1529C0.864247 10.9159 0.635692 10.6428 0.547355 10.5244C0.400553 10.3277 0.42172 10.2735 0.456512 10.4155L8.2266 8.51135C8.04827 7.78364 7.68444 6.7119 6.95841 5.7392C6.20865 4.7347 4.61213 3.30839 2.19449 3.54344L2.96862 11.5059ZM0.438937 10.3407C0.435302 10.3245 0.430398 10.2957 0.431503 10.2463C0.432491 10.2022 0.439354 10.0916 0.491015 9.92416C0.538171 9.77133 0.660818 9.44865 0.966148 9.08864C1.28764 8.70959 1.86153 8.24227 2.70867 8.0559L4.42757 15.8691C6.84094 15.3381 7.81749 13.3131 8.13538 12.2829C8.50841 11.074 8.51041 9.77057 8.24418 8.58617L0.438937 10.3407Z" fill="#0068FF" mask="url(#path-7-inside-4_4071_473)"/>
<mask id="path-9-inside-5_4071_473" fill="white">
<path d="M7.99905 8.95472C9.30187 8.95472 10.3641 7.46972 10.3641 5.64784C10.2369 1.26159 5.76124 1.26159 5.63062 5.64784C5.63062 7.46972 6.6928 8.95472 7.99905 8.95472V8.95472ZM7.99905 3.02847C10.2162 3.17972 10.2128 8.11597 7.99905 8.26722C5.78187 8.11597 5.78187 3.17972 7.99905 3.02847V3.02847Z"/>
</mask>
<path d="M7.99905 8.95472C9.30187 8.95472 10.3641 7.46972 10.3641 5.64784C10.2369 1.26159 5.76124 1.26159 5.63062 5.64784C5.63062 7.46972 6.6928 8.95472 7.99905 8.95472V8.95472ZM7.99905 3.02847C10.2162 3.17972 10.2128 8.11597 7.99905 8.26722C5.78187 8.11597 5.78187 3.17972 7.99905 3.02847V3.02847Z" fill="#0068FF"/>
<path d="M10.3641 5.64784H14.3641V5.58986L14.3624 5.5319L10.3641 5.64784ZM5.63062 5.64784L1.63239 5.52877L1.63062 5.58829V5.64784H5.63062ZM7.99905 8.26722L7.72682 12.2579L7.99926 12.2765L8.27171 12.2579L7.99905 8.26722ZM7.99905 12.9547C10.2814 12.9547 11.9667 11.6494 12.9236 10.3114C13.8881 8.96286 14.3641 7.30184 14.3641 5.64784H6.36405C6.36405 5.81572 6.30889 5.80814 6.41659 5.65754C6.51673 5.51753 7.01947 4.95472 7.99905 4.95472V12.9547ZM14.3624 5.5319C14.2645 2.15503 12.1756 -1.64185 7.99862 -1.64185C3.82374 -1.64185 1.73295 2.15211 1.63239 5.52877L9.62884 5.76691C9.64187 5.32939 9.74975 5.40663 9.52724 5.68394C9.28817 5.98188 8.7587 6.35815 7.99862 6.35815C7.2383 6.35815 6.70798 5.98161 6.46817 5.68245C6.2451 5.40419 6.35305 5.32621 6.36573 5.76378L14.3624 5.5319ZM1.63062 5.64784C1.63062 7.30182 2.10656 8.96364 3.07258 10.313C4.03192 11.653 5.71837 12.9547 7.99905 12.9547V4.95472C8.97349 4.95472 9.47572 5.51397 9.5774 5.656C9.68576 5.80736 9.63062 5.81574 9.63062 5.64784H1.63062ZM7.72682 7.01919C7.22889 6.98523 6.76066 6.80464 6.38768 6.53583C6.04015 6.28535 5.85467 6.01801 5.76949 5.86837C5.62199 5.60926 5.6607 5.52067 5.66066 5.64649C5.66061 5.77218 5.62201 5.6846 5.76885 5.42674C5.85364 5.27783 6.03868 5.01096 6.38574 4.76065C6.75829 4.49195 7.22691 4.31065 7.7264 4.27652L8.27171 12.2579C10.5264 12.1039 11.9839 10.6794 12.7207 9.38551C13.4215 8.15484 13.6603 6.79538 13.6607 5.64919C13.661 4.50314 13.4232 3.14267 12.722 1.91075C11.984 0.614343 10.5254 -0.808493 8.27129 -0.962258L7.72682 7.01919ZM8.27129 4.27649C8.76913 4.31045 9.23704 4.49097 9.60964 4.75939C9.95683 5.00951 10.1422 5.27646 10.2273 5.42587C10.3747 5.6846 10.3362 5.77313 10.3362 5.64784C10.3362 5.52256 10.3747 5.61108 10.2273 5.86982C10.1422 6.01922 9.95683 6.28617 9.60964 6.53629C9.23704 6.80472 8.76913 6.98523 8.27129 7.01919L7.72682 -0.962258C5.47335 -0.808533 4.01472 0.613625 3.27646 1.9093C2.57474 3.14085 2.33616 4.50125 2.33616 5.64784C2.33616 6.79443 2.57474 8.15483 3.27646 9.38638C4.01472 10.6821 5.47335 12.1042 7.72682 12.2579L8.27129 4.27649Z" fill="#0068FF" mask="url(#path-9-inside-5_4071_473)"/>
</svg>
