<svg xmlns="http://www.w3.org/2000/svg" xmlns:xlink="http://www.w3.org/1999/xlink" width="100" height="100" viewBox="0 0 100 100"><circle stroke="none" fill="#f1f2f2" r="48%" cx="50%" cy="50%"></circle><g transform="translate(50 50) scale(0.69 0.69) rotate(0) translate(-50 -50)" style="fill:#05224c"><svg fill="#05224c" xmlns="http://www.w3.org/2000/svg" xmlns:xlink="http://www.w3.org/1999/xlink" version="1.1" x="0px" y="0px" viewBox="0 0 100 100" style="enable-background:new 0 0 100 100;" xml:space="preserve"><g><g><defs><rect id="a" x="-562.3" y="-42.5" width="1548" height="206"></rect></defs><clipPath><use xlink:href="#a" style="" overflow="visible"></use></clipPath></g></g><g><path d="M68.5,78.8v-4.4H53h-4.4V70V58.9v-1.8c-1.7-0.3-3.4-0.4-5.2-0.4C27.1,56.7,14,67.6,14,81h54.8   C68.6,80.4,68.5,79.6,68.5,78.8z"></path></g><circle cx="44.2" cy="34.6" r="17.7"></circle><path d="M74.3,81.1c0.5,0,1.1-0.3,1.8-0.9l13.5-12.7c1.8-1.7,1.8-4.4,0-6.1L76.2,48.6c-0.7-0.6-1.3-1-1.8-1c-0.8,0-1.4,0.8-1.4,2.3  v8.9H53V70h19.9v8.9C72.9,80.3,73.5,81.1,74.3,81.1z"></path></svg></g></svg>