<?xml version="1.0" encoding="UTF-8"?>
<!-- Generator: Adobe Illustrator 25.2.3, SVG Export Plug-In . SVG Version: 6.00 Build 0)  -->
<svg xmlns="http://www.w3.org/2000/svg" xmlns:xlink="http://www.w3.org/1999/xlink" version="1.1" id="Capa_1" x="0px" y="0px" viewBox="0 0 512 512" style="enable-background:new 0 0 512 512;" xml:space="preserve" width="512" height="512">
<g>
	<g>
		<path style="fill:#FFFFFF;" d="M220.869,512c-2.308,0-4.569-0.442-6.721-1.314c-3.028-1.224-5.953-2.759-8.755-4.591    c-1.561,0.49-3.117,0.904-4.68,1.247c-3.493,0.766-7.021,1.154-10.49,1.154c-9.038,0-17.376-2.572-24.111-7.44    c-14.065-10.167-17.919-27.952-16.837-41.208c0.157-1.912,0.398-3.785,0.702-5.614H57.945c-3.662,0-7.164-1.504-9.685-4.161    c-2.521-2.656-3.843-6.232-3.651-9.89c0.726-13.878,1.139-28.016,1.48-41.923c-1.502,0.103-2.978,0.155-4.432,0.155    c-4.13,0-8.171-0.421-12.011-1.25c-8.331-1.8-14.785-5.503-19.186-11.008c-2.721-3.401-4.673-7.547-5.962-12.672    c-3.013-11.952-1.589-24.896,3.747-36.04c-2.13-5.972-1.602-12.649,1.63-18.309c14.6-25.793,31.563-41.317,44.706-50.338    c2.88-17.742,6.614-33.921,11.32-49.04c-1.587-2.205-2.502-4.892-2.512-7.741c-0.024-5.74,3.623-10.854,9.059-12.7l0.789-0.268    c1.83-4.616,3.697-8.961,5.651-13.16c5.832-12.52,12.922-24.859,21.151-36.816c-16.241-13.883-25.042-27.288-26.805-40.75    c-0.428-3.388-0.502-6.785-0.224-10.154c3.843-43.11,63.621-69.686,89.143-79.115C184.281,10.872,217.189,0,247.363,0    c15.18,0,28.674,2.743,40.111,8.153c4.425,2.102,8.581,4.61,12.366,7.462c10.201,7.643,20.619,21.872,16.817,47.343    c4.871,2.126,9.579,4.491,14.08,7.076c5.521,3.168,10.909,6.757,16.128,10.737c2.469-3.364,6.436-5.451,10.766-5.451    c5.721,0,10.805,3.643,12.646,9.059l3.591,10.571l10.57,3.591c5.454,1.853,9.105,6.994,9.059,12.755    c-0.043,5.122-3.002,9.708-7.514,11.9c8.916,13.715,16.017,28.765,20.951,44.458c7.481,4.157,12.531,12.145,12.531,21.149    c0,2.541-0.398,5.021-1.152,7.367c0.326,0.041,0.672,0.087,1.037,0.137c0.961-1.551,1.991-2.995,3.115-4.277    c2.432-3.931,6.762-6.445,11.59-6.445c1.015,0,2.091,0.124,3.082,0.353c0.004,0.001,1.08,0.251,2.908,0.726    c2.776-3.065,6.753-4.886,11.083-4.886c1.887,0,3.732,0.351,5.486,1.043l20.797,8.213c6.243,2.463,9.909,8.693,9.425,15.067    c2.004,1.236,3.243,2.086,3.613,2.342c1.871,1.345,3.308,3.051,4.286,4.944c1.33,2.015,2.143,4.179,2.428,6.464    c0.202,1.644,0.556,4.503-1.48,10.587c1.461,1.164,2.617,2.216,3.554,3.237c0.331,0.325,0.77,0.777,0.854,0.868    c2.445,2.646,3.76,6.229,3.606,9.829c-0.083,1.968-0.626,3.932-1.541,5.699c-0.774,2.094-2.124,5.245-4.549,10.316    c11.753,13.256,12.516,25.546,10.716,34.061c-0.948,4.512-1.832,8.976-2.691,13.302c-4.038,20.39-7.505,37.879-15.387,47.869    c3.565,8.258,6.479,16.969,8.701,26.024c4.354,17.772,6.397,37.176,6.245,59.326c-0.05,7.34-6.015,13.263-13.355,13.263h-39.42    c-19.703,54.721-38.053,54.717-44.265,54.717c-1.224,0-2.456-0.103-3.663-0.307c-13.983-2.362-54.035-18.586-64.868-23.038    c-1.563-0.386-2.891-0.961-4.012-1.631c-19.71-8.694-44.015-19.883-54.379-26.536c-21.282,31.019-43.837,47.19-50.725,51.687    C227.768,510.969,224.381,512,220.869,512z"/>
	</g>
	<g>
		<g>
			<path style="fill:#FFCBEE;" d="M494.107,440.879H60.22c2.135-40.88,1.547-81.907,4.466-122.714     c3.115-43.685,10.478-87.761,28.582-126.641c12.679-27.221,30.39-51.295,50.671-71.955     c19.171-19.562,40.977-36.368,65.376-46.173c37.84-15.196,81.257-12.318,117.05,8.22c35.771,20.538,63.285,58.515,73.436,102.079     c6.84,29.416,5.991,60.418,10.805,90.346c1.416,8.732,3.507,17.855,9.041,24.245c4.902,5.659,11.807,8.391,18.103,11.903     c25.706,14.342,42.894,43.637,50.497,74.638C492.712,403.048,494.237,421.927,494.107,440.879z"/>
		</g>
		<g>
			<g>
				<g>
					<g>
						<path style="fill:#8662FF;" d="M134.554,100.553L112.233,87.65L88.592,99.262c-0.2,2.426-0.156,4.852,0.156,7.323        c3.205,24.461,43.313,48.699,61.72,58.604c5.542,2.982,9.125,4.674,9.125,4.674l17.049-24.238c0,0-3.717-1.669-8.97-4.652        C154.92,133.716,133.241,118.604,134.554,100.553z"/>
						<path style="fill:#8662FF;" d="M294.074,26.28c-3.161-2.382-6.522-4.385-10.038-6.054l-21.16,10.705l0.905,19.209        c0.022,0.022,0.022,0.022,0.022,0.045c7.189,9.081,1.87,29.513-3.606,44.448c-3.673,10.061-7.412,17.65-7.412,17.65        l32.963-3.806c0,0,1.068-1.558,2.738-4.296C296.989,90.27,320.694,46.222,294.074,26.28z"/>
					</g>
					<g>
						<g style="opacity:0.36;">
							<path style="fill:#2C2441;" d="M288.487,104.181c-1.669,2.738-2.738,4.296-2.738,4.296l-32.963,3.806         c0,0,3.739-7.59,7.412-17.65c0.044,0,0.111,0.022,0.178,0.022c5.987,0.868,12.042,3.094,17.784,4.986         C279.673,100.13,284.28,102.4,288.487,104.181z"/>
						</g>
						<g style="opacity:0.38;">
							<path style="fill:#2C2441;" d="M176.643,145.624l-17.049,24.238c0,0-3.583-1.692-9.125-4.674         c0.223-0.467,0.49-0.957,0.801-1.469c4.741-7.991,10.328-15.603,16.404-22.747         C172.926,143.955,176.643,145.624,176.643,145.624z"/>
						</g>
					</g>
				</g>
				<g>
					<path style="fill:#8662FF;" d="M363.851,220.588c-1.135,4.652-2.894,8.948-5.141,12.932       c-8.213,14.467-22.858,24.862-36.836,33.564c-21.412,13.31-44.893,22.992-68.664,31.205       c-14.512,5.008-29.758,9.971-44.916,10.083c-8.569,0.089-17.116-1.38-25.529-5.253c-25.24-11.641-37.726-37.392-40.041-64.057       c-2.337-27.132,3.294-59.761,19.475-82.175c15.936-22.124,38.817-35.122,63.879-43.58c3.005-1.024,6.032-1.959,9.104-2.849       c32.184-9.37,66.995-7.122,92.48,16.493C351.52,149.03,371.93,187.402,363.851,220.588z"/>
				</g>
				<g style="opacity:0.3;">
					<path style="fill:#2C2441;" d="M358.71,233.519c-8.213,14.467-22.858,24.862-36.836,33.564       c-21.412,13.31-44.893,22.992-68.664,31.205c-14.512,5.008-29.758,9.971-44.916,10.083       c20.677-22.836,47.008-39.485,74.652-51.348C307.361,246.518,332.935,239.506,358.71,233.519z"/>
				</g>
				<g>
					<ellipse style="fill:#FFFFFF;" cx="241.61" cy="188.614" rx="65.352" ry="61.185"/>
				</g>
				<g>
					<g>
						<path style="fill:#FFE4E8;" d="M313.823,144.181c0.986,0.246,2.044,0.448,3.003,0.113c0.924-0.322,1.619-1.101,2.131-1.935        c7.348-11.986-11.634-29.104-23.617-25.76C277.676,121.528,306.601,142.379,313.823,144.181z"/>
					</g>
					<g>
						<path style="fill:#FFE4E8;" d="M330.451,150.161c0,2.929-2.375,5.304-5.304,5.304c-2.929,0-5.304-2.375-5.304-5.304        s2.375-5.304,5.304-5.304C328.076,144.857,330.451,147.231,330.451,150.161z"/>
					</g>
				</g>
				<g>
					<path style="fill:#AF95FF;" d="M284.035,20.225c-7.434,9.504-14.178,19.52-20.232,29.959c0-0.022,0-0.022-0.022-0.044       c-12.13-15.158-101.917,6.076-124.264,37.504c-3.138,4.429-4.674,8.747-4.963,12.909c-15.246-1.781-30.649-2.203-45.962-1.291       c2.56-28.712,41.666-53.351,80.461-67.685C206.936,17.577,252.185,5.157,284.035,20.225z"/>
				</g>
			</g>
			<g>
				<path style="fill:#2C2441;" d="M217.317,184.827c1.482-1.243,3.014-2.153,4.597-2.726c1.584-0.573,3.205-0.878,4.866-0.912      c1.659-0.035,3.294,0.247,4.901,0.844c1.605,0.596,3.111,1.664,4.517,3.205c1.407,1.54,2.54,3.499,3.4,5.874      c1.449,3.999,1.503,7.795,0.165,11.389c-1.338,3.595-3.537,5.949-6.598,7.057c-3.063,1.109-6.004,1.382-8.822,0.825      c-2.818-0.558-4.527-1.671-5.13-3.337c-0.288-0.792-0.408-1.42-0.365-1.884c0.042-0.463,0.271-0.913,0.681-1.342      c0.41-0.43,0.811-0.72,1.206-0.864c0.396-0.143,1.025-0.097,1.887,0.133c0.86,0.23,2.074,0.557,3.641,0.979      c1.567,0.419,3.162,0.339,4.788-0.25c1.624-0.588,2.764-1.931,3.417-4.031c0.658-2.097,0.629-4.126-0.08-6.084      c-2.038-5.625-5.577-7.525-10.62-5.7c-1.084,0.392-2.305,0.954-3.667,1.682c-1.362,0.728-2.255,1.192-2.677,1.393      c-0.422,0.201-1.068,0.27-1.939,0.21c-1.176-0.517-2.576-3.015-4.197-7.494c-1.624-4.48-2.568-7.413-2.835-8.801      c-0.266-1.388-0.186-2.275,0.238-2.665c0.737-0.694,3.285-1.827,7.639-3.404c4.352-1.577,7.993-2.424,10.919-2.539      c1.016,0.198,1.692,0.766,2.031,1.704c0.339,0.936,0.353,1.793,0.045,2.564c-0.311,0.771-0.78,1.199-1.407,1.288      c-3.73,0.501-7.345,1.386-10.844,2.652c-1.084,0.393-2.151,0.827-3.205,1.304C214.461,177.521,215.609,180.499,217.317,184.827z      "/>
				<path style="fill:#2C2441;" d="M247.927,196.153c-1.162-3.209-3.325-8.562-6.49-16.065c-3.165-7.5-5.259-12.221-6.292-14.16      c-0.33-0.914-0.311-1.831,0.066-2.745c0.377-0.912,0.961-1.513,1.753-1.799c0.999-0.362,1.89,0.021,2.677,1.151      c2.175,3.923,4.765,9.774,7.767,17.546c2.498-4.814,4.336-8.827,5.507-12.031c1.171-3.205,2.208-7.139,3.113-11.802      c0.259-1.368,1.034-2.283,2.326-2.751c0.667-0.242,1.284-0.265,1.85-0.07c0.565,0.198,0.938,0.542,1.119,1.044      c0.483,1.334,0.139,4.062-1.03,8.184c-1.169,4.125-2.509,8.203-4.015,12.234c4.765,2.233,9.228,5.19,13.387,8.868      c0.544,0.463,1.247,1.031,2.107,1.712c0.855,0.678,1.522,1.212,1.996,1.609c1.289,1.089,2.107,2.109,2.455,3.07      c0.346,0.959,0.389,1.826,0.13,2.603c-0.261,0.776-0.745,1.296-1.454,1.552c-0.707,0.257-1.961-0.339-3.756-1.786      c-1.796-1.445-4.362-3.485-7.696-6.122c-3.332-2.631-6.636-4.818-9.904-6.558c-1.517,3.096-2.703,5.291-3.551,6.591      c1.091,2.621,1.956,4.816,2.597,6.586c0.641,1.772,1.117,3.215,1.426,4.326c0.73,2.8,0.118,4.552-1.84,5.262      c-1.209,0.438-2.036-0.087-2.479-1.575L247.927,196.153z"/>
			</g>
		</g>
		<g>
			<g>
				<g>
					<path style="fill:#AF95FF;" d="M402.011,230.42c0,0,11.201-20.627,14.101-21.009c2.9-0.382,12.7,2.266,12.7,2.266       s5.51-12.793,7.993-12.118c2.483,0.675,17.644,4.83,17.644,4.83l1.881-4.762c0.457-1.158,1.776-1.716,2.926-1.237l9.896,4.121       c1.182,0.492,1.706,1.877,1.145,3.029l-2.21,4.541c0,0,17.736,8.579,18.095,11.423c0.447,3.532-4.794,13.687-4.794,13.687       s10.793,6.706,10.96,8.605c0.167,1.899-9.407,20.725-9.407,20.725L402.011,230.42z"/>
				</g>
			</g>
			<g>
				<g>
					<path style="fill:#FF8E97;" d="M444.701,442.241c-7.718,23.299-21.852,55.575-35.717,53.234       c-13.864-2.341-63.266-22.736-63.266-22.736s-1.178-0.106-1.051-0.367c-13.802-6.073-46.37-20.682-55.305-27.082       c-11.439-8.179,1.503-40.95,12.591-62.846c10.978-21.677,22.488-14.404,32.528-15.105c0.099-0.009,0.219-0.009,0.318-0.018       c0.446-0.039,0.896-0.149,1.358-0.349c9.824-3.97,20.832-40.327,24.814-50.409c1.611-4.078,0.591-6.707-1.688-8.875       c-0.021-0.008-0.021-0.008-0.041-0.016c-0.631-0.584-1.34-1.152-2.128-1.702l-0.021-0.008       c-3.698-2.633-8.843-5.12-12.472-9.927c-7.205-9.57,9.997-31.493,26.875-57.205c6.294-9.575,18.528-11.468,31.422-10.061       c21.701,2.372,45.208,14.049,45.208,14.049c-0.008,0.021-0.054,0.074-0.078,0.137c8.944,3.652,24.255,10.751,35.559,20.241       c9.525,7.997,16.201,17.693,13.921,28.495c-6.332,30.092-9.741,57.75-21.629,59.372c-7.799,1.084-14.63-2.523-19.704-2.158       l-0.021-0.008c-0.553,0.069-1.115,0.158-1.61,0.321l-0.021-0.008c-1.891,0.546-3.488,1.925-4.712,4.72       c-3.936,8.999-19.056,37.224-18.885,49.759c0.006,0.409,0.02,0.798,0.071,1.153c0.155,1.425,0.549,2.61,1.251,3.438       C438.758,416.083,452.398,418.933,444.701,442.241z"/>
				</g>
			</g>
			<g>
				<g>
					<path style="fill:#AF95FF;" d="M473.594,206.451l-20.79-8.21c-0.824-0.325-1.231-1.265-0.906-2.089l0,0       c0.325-0.824,1.265-1.232,2.089-0.906l20.79,8.21c0.824,0.325,1.232,1.265,0.906,2.089l0,0       C475.358,206.368,474.418,206.776,473.594,206.451z"/>
				</g>
			</g>
			<g>
				<g>
					<path style="fill:#FFCBEE;" d="M492.247,244.054c-0.038-0.015-0.072-0.038-0.101-0.069c-0.097-0.104-9.907-10.479-33.992-21.95       c-23.528-11.203-41.874-12.336-42.057-12.347c-0.151-0.007-0.271-0.141-0.261-0.292c0.007-0.154,0.139-0.271,0.293-0.263       c0.183,0.009,18.616,1.137,42.265,12.401c24.195,11.521,34.063,21.968,34.159,22.072c0.105,0.113,0.099,0.289-0.015,0.393       C492.458,244.075,492.344,244.092,492.247,244.054z"/>
				</g>
			</g>
			<g>
				<g>
					<path style="fill:#FFCBEE;" d="M484.833,219.895c-0.02-0.008-0.039-0.018-0.06-0.032c-0.085-0.062-8.861-6.245-23.875-12.477       c-11.77-4.891-24.506-7.869-24.632-7.898c-0.176-0.046-0.242-0.186-0.209-0.334c0.036-0.149,0.185-0.243,0.334-0.208       c0.127,0.028,12.864,3.008,24.72,7.926c15.079,6.259,23.9,12.475,23.987,12.537c0.124,0.089,0.153,0.263,0.064,0.388       C485.086,219.904,484.95,219.941,484.833,219.895z"/>
				</g>
			</g>
			<g>
				<g>
					<g>
						<path style="fill:#FFCBEE;" d="M473.843,298.697c0.442,1.79,1.209,3.684,2.832,4.558c1.318,0.71,2.975,0.578,4.328-0.063        c1.353-0.641,2.441-1.734,3.368-2.909c3.833-4.856,9.237-23.281-0.637-25.586c-4.292-1.002-7.259,5.156-8.586,8.306        C473.076,287.918,472.564,293.508,473.843,298.697z"/>
					</g>
				</g>
				<g>
					<g>
						<path style="fill:#FFCBEE;" d="M479.834,324.65c-1.401,3.546-5.411,5.286-8.957,3.885c-3.547-1.401-5.286-5.411-3.885-8.957        c1.401-3.546,5.411-5.286,8.957-3.885C479.495,317.093,481.234,321.103,479.834,324.65z"/>
					</g>
				</g>
			</g>
			<g>
				<g>
					<path style="fill:#FFCBEE;" d="M359.241,307.672c0.021,0.008,0.021,0.008,0.041,0.016c33.63,9.189,65.641,23.147,95.261,41.522       l0.021,0.008c0.495-0.163,1.057-0.253,1.61-0.321c-30.731-19.196-64.025-33.661-99.061-42.927l-0.021-0.008L359.241,307.672z"/>
				</g>
			</g>
			<g>
				<g>
					<path style="fill:#FFCBEE;" d="M431.017,404.842c-9.842-1.135-14.837-1.696-50.513-15.522c-0.725-0.286-1.437-0.543-2.12-0.813       c-15.195-6.001-24.657-11.006-36.497-17.261c-2.399-1.258-4.831-2.554-7.407-3.907c0.099-0.009,0.219-0.009,0.318-0.018       c0.446-0.039,0.896-0.149,1.358-0.349c2.158,1.139,4.221,2.217,6.235,3.3c12.362,6.509,22.118,11.678,38.521,18.013       c35.283,13.671,40.407,14.33,50.033,15.404C430.952,404.098,430.966,404.487,431.017,404.842z"/>
				</g>
			</g>
		</g>
		<g>
			<g>
				<g>
					<path style="fill:#AF95FF;" d="M154.068,387.076c-10.723-7.686-22.876-16.398-36.854-18.131       c-13.436-1.669-26.76,3.305-39.646,8.115l-0.945,0.353c-13.542,5.047-27.929,9.718-41.889,6.706       c-5.249-1.134-9.145-3.253-11.58-6.297c-1.523-1.906-2.618-4.32-3.444-7.596c-2.951-11.714-0.12-24.866,7.388-34.327       l1.701,1.35c-7.097,8.941-9.773,21.375-6.983,32.446c0.747,2.963,1.711,5.115,3.034,6.77c2.115,2.644,5.595,4.505,10.343,5.53       c13.387,2.896,27.432-1.682,40.671-6.619l0.944-0.352c13.131-4.899,26.711-9.961,40.672-8.237       c10.624,1.318,20.105,6.422,28.709,12.134c-5.746-7.941-9.176-18.43-9.684-30.151c-0.57-13.167,2.295-26.272,5.066-38.947       l0.73-3.351c1.567-7.238,2.815-13.764,2.212-20.348c-0.682-7.446-3.894-13.716-8.812-17.204       c-5.157-3.655-12.439-4.439-19.486-2.095c-5.684,1.891-11.255,5.7-17.035,11.648l-1.558-1.513       c6.029-6.203,11.886-10.193,17.907-12.194c7.699-2.561,15.711-1.671,21.428,2.382c5.436,3.855,8.979,10.699,9.719,18.778       c0.632,6.891-0.647,13.59-2.251,21.006l-0.732,3.355c-2.742,12.538-5.576,25.504-5.018,38.389       c0.68,15.703,6.762,29.062,16.684,36.653L154.068,387.076z"/>
				</g>
				<g>
					<path style="fill:#AF95FF;" d="M105.63,291.298c-22.923,34.224-48.614,51.679-58.495,57.557       c-2.704,1.602-6.077,1.662-8.779,0.074c-3.208-1.872-5.891-4.109-8.138-6.355c-1.382-1.395-2.587-2.811-3.629-4.14       c-1.024-1.305-1.901-2.57-2.622-3.705c-1.73-2.721-1.825-6.163-0.222-8.972c22.628-39.972,50.778-53.134,62.201-57.01       c3.065-1.034,6.436-0.248,8.748,2.006l5.412,5.284l3.138,3.078l1.251,1.226C107.459,283.244,107.946,287.844,105.63,291.298z"/>
				</g>
				<g>
					<path style="fill:#AF95FF;" d="M192.495,495.151c-6.127,0-11.825-1.682-16.293-4.913c-9.57-6.916-12.139-19.671-11.352-29.304       c0.754-9.197,4.038-17.974,7.213-26.462c0.529-1.413,1.057-2.824,1.572-4.234c2.077-5.681,4.035-11.727,3.206-17.699l0,0       c-0.574-4.132-2.706-7.295-4.965-10.644l-0.34-0.505c-0.263-0.391-0.244-0.908,0.049-1.28c0.293-0.371,0.792-0.511,1.235-0.342       c0.963,0.363,1.88,0.742,2.774,1.113c3.637,1.506,6.782,2.812,11.15,2.096c5.659-0.923,10.743-3.905,15.659-6.788       l22.975-13.468c6.677-3.915,13.581-7.963,21.361-9.774c8.731-2.028,17.351-0.507,23.059,4.075       c5.396,4.332,8.696,11.802,8.827,19.982c0.126,7.911-2.493,15.573-4.788,21.365c-10.346,26.103-28.731,49.317-51.772,65.366       c-5.621,3.914-13.195,8.653-21.94,10.571C197.547,494.873,194.986,495.151,192.495,495.151z M178.992,412.24       c0.898,6.467-1.146,12.806-3.317,18.743c-0.518,1.417-1.048,2.832-1.579,4.251c-3.123,8.349-6.353,16.982-7.081,25.88       c-0.74,9.039,1.62,20.977,10.459,27.367c5.785,4.18,13.872,5.533,22.185,3.707c8.371-1.836,15.708-6.433,21.163-10.231       c22.695-15.809,40.805-38.674,50.994-64.385c2.222-5.603,4.756-13.003,4.637-20.529c-0.121-7.541-3.117-14.391-8.016-18.323       c-5.195-4.17-13.12-5.532-21.207-3.654c-7.459,1.734-14.218,5.699-20.755,9.532l-22.975,13.468       c-4.851,2.845-10.349,6.07-16.409,7.059c-4.742,0.771-8.22-0.536-11.812-2.019C177.029,405.842,178.496,408.664,178.992,412.24       L178.992,412.24z"/>
				</g>
				<g>
					<path style="fill:#AF95FF;" d="M148.899,383.514l5.495-5.196c4.507-4.262,11.675-3.841,15.653,0.919l6.956,8.325       c3.796,4.543,3.21,11.299-1.31,15.12l-5.197,4.393c-4.33,3.661-10.759,3.334-14.696-0.748l-7.255-7.522       C144.392,394.497,144.55,387.627,148.899,383.514z"/>
				</g>
				<g>
					<g>
						<path style="fill:#AF95FF;" d="M283.71,431.692c-22.586,41.149-50.835,61.418-58.236,66.252        c-1.189,0.801-2.701,0.908-4.041,0.365c-7.114-2.879-12.338-7.617-15.77-11.602c-1.715-2.003-2.977-3.817-3.806-5.118        c-0.794-1.232-0.896-2.787-0.292-4.097c21.644-47.263,52.977-61.531,61.796-64.747c1.434-0.508,3.045-0.212,4.217,0.787        l4.751,4.026l10.382,8.796C284.256,427.661,284.68,429.908,283.71,431.692z"/>
					</g>
					<g>
						<g>
							<g>
								<path style="fill:#FFE4E8;" d="M270.649,437.477c-0.022,1.094,0.37,2.296,1.326,2.827c0.811,0.451,1.848,0.308,2.662-0.137          c0.814-0.445,1.448-1.152,2.053-1.855c1.563-1.819,6.044-8.482,1.076-9.093C274.279,428.79,270.708,434.532,270.649,437.477          z"/>
							</g>
							<g>
								<path style="fill:#FFE4E8;" d="M270.167,446.905c-0.215,1.656-1.732,2.823-3.387,2.608          c-1.656-0.215-2.823-1.732-2.608-3.387c0.215-1.656,1.732-2.823,3.387-2.608          C269.214,443.733,270.382,445.249,270.167,446.905z"/>
							</g>
						</g>
					</g>
				</g>
			</g>
			<g>
				<g>
					<path style="fill:#FFE4E8;" d="M79.075,274.133c-1.243,0.756-2.467,1.588-3.408,2.698c-0.94,1.111-1.58,2.54-1.481,3.992       c0.052,0.757,0.333,1.54,0.938,1.996c0.394,0.297,0.888,0.43,1.378,0.487c1.779,0.205,3.533-0.521,5.097-1.393       c1.867-1.042,3.604-2.316,5.159-3.783c1.705-1.609,4.216-5.925,0.72-7.205C85.059,270.04,80.98,272.974,79.075,274.133z"/>
				</g>
				<g>
					<path style="fill:#FFE4E8;" d="M64.799,286.194c0.071,1.674,1.405,3.3,3.077,3.401c0.493,0.03,0.988-0.065,1.454-0.229       c1.344-0.473,2.477-1.572,2.89-2.936c0.413-1.364,0.05-2.959-0.986-3.938C68.502,279.91,64.664,282.997,64.799,286.194z"/>
				</g>
			</g>
		</g>
		<g>
			<g>
				<polygon style="fill:#FFE4E8;" points="107.235,206.252 124.039,211.96 107.686,217.217 101.528,234.471 94.919,217.217       79.017,211.96 95.82,206.252 101.528,189.448     "/>
			</g>
			<g>
				<polygon style="fill:#FFE4E8;" points="365.612,105.478 382.415,111.185 366.062,116.443 359.904,133.696 353.296,116.443       337.393,111.185 354.196,105.478 359.904,88.674     "/>
			</g>
			<g>
				<polygon style="fill:#FFE4E8;" points="296.661,326.705 313.465,332.413 297.112,337.671 290.953,354.924 284.345,337.671       268.442,332.413 285.246,326.705 290.953,309.902     "/>
			</g>
			<g>
				<polygon style="fill:#FFE4E8;" points="472.827,388.479 489.631,394.187 473.277,399.445 467.119,416.698 460.511,399.445       444.608,394.187 461.411,388.479 467.119,371.676     "/>
			</g>
			<g>
				<polygon style="fill:#FFE4E8;" points="102.003,410.053 118.807,415.76 102.454,421.018 96.295,438.272 89.687,421.018       73.784,415.76 90.588,410.053 96.295,393.249     "/>
			</g>
		</g>
		<g>
			<g>
				<path style="fill:#FFE4E8;" d="M203.426,87.65c0,6.007-4.87,10.877-10.877,10.877c-6.007,0-10.877-4.87-10.877-10.877      c0-6.007,4.87-10.877,10.877-10.877C198.556,76.773,203.426,81.643,203.426,87.65z"/>
			</g>
			<g>
				<path style="fill:#FFE4E8;" d="M408.384,188.803c0,6.007-4.87,10.877-10.877,10.877c-6.007,0-10.877-4.87-10.877-10.877      c0-6.007,4.87-10.877,10.877-10.877C403.514,177.927,408.384,182.796,408.384,188.803z"/>
			</g>
			<g>
				<path style="fill:#FFE4E8;" d="M164.404,283.516c0,6.007-4.87,10.877-10.877,10.877s-10.877-4.87-10.877-10.877      s4.87-10.877,10.877-10.877S164.404,277.509,164.404,283.516z"/>
			</g>
		</g>
	</g>
</g>















</svg>
