<?xml version="1.0" encoding="UTF-8"?>
<!-- Generator: Adobe Illustrator 25.2.3, SVG Export Plug-In . SVG Version: 6.00 Build 0)  -->
<svg xmlns="http://www.w3.org/2000/svg" xmlns:xlink="http://www.w3.org/1999/xlink" version="1.1" id="Capa_1" x="0px" y="0px" viewBox="0 0 512 512" style="enable-background:new 0 0 512 512;" xml:space="preserve" width="512" height="512">
<g>
	<g>
		<path style="fill:#FFFFFF;" d="M58.335,512c-7.156,0-13.065-5.586-13.469-12.73c-5.263-93.129-11.227-198.682-0.094-300.694    c1.342-12.248,2.868-23.405,4.633-33.841c-4.712-2.954-7.13-8.502-6.082-13.97c0.874-4.567,4.016-8.291,8.216-9.979l-7.534-10.032    c-2.815-3.747-3.483-8.688-1.763-13.047c1.717-4.36,5.575-7.516,10.191-8.336l11.37-2.021    c9.844-27.815,23.067-50.494,40.279-69.143c12.211-13.2,25.324-22.861,38.984-28.725c12.786-5.512,27.618-8.463,46.667-9.279    C192.906,0.068,196.114,0,199.274,0c43.373,0,81,12.066,108.142,34.333c2.415-2.145,5.579-3.408,8.963-3.408l0,0    c5.779,0,10.915,3.68,12.775,9.152l4.637,13.653l13.653,4.638c5.509,1.871,9.198,7.065,9.152,12.884    c-0.048,5.82-3.821,10.952-9.361,12.733l-2.624,0.844c10.812,24.75,15.924,52.407,20.509,80.87    c1.184,7.237,2.415,14.756,5.751,19.734c4.181,6.216,12.294,9.916,21.688,14.2c6.203,2.829,12.617,5.755,18.703,9.809    c25.649,17.1,34.946,46.963,39.184,71.205l11.949,2.124c4.616,0.82,8.474,3.977,10.191,8.336c1.719,4.36,1.052,9.299-1.763,13.046    l-7.534,10.033c4.201,1.687,7.343,5.412,8.217,9.978c1.052,5.493-1.392,11.063-6.146,14.008l-8.59,5.322    c3.329,56.253,0.777,109.146-7.602,157.325c-1.124,6.462-6.732,11.18-13.291,11.18H58.335z"/>
	</g>
	<g>
		<g>
			<g>
				<path style="fill:#AF95FF;" d="M438.174,498.509H270.259l-21.13-5.216l-22.173,5.216h-63.422l-20.216-3.562l-20.227,3.562      H60.633C55.016,399.113,49.68,299.002,60.48,200.04c6-54.817,18.409-112.162,55.813-152.681      c9.753-10.545,21.192-19.813,34.392-25.481c13.149-5.668,27.626-7.583,41.923-8.196c44.4-1.889,91.992,10.06,121.353,43.43      c26.298,29.898,33.805,71.413,40.136,110.732c1.43,8.732,2.936,17.745,7.864,25.098c9.804,14.579,29.515,18,44.119,27.728      c25.353,16.902,32.681,50.426,35.923,80.681C449.051,366.841,449.46,433.607,438.174,498.509z"/>
			</g>
			<g>
				<g>
					<path style="fill:#FFAAAA;" d="M365.416,362.216c0,0,2.912,42.145,6.51,42.145c3.598,0,7.024-24.327,7.024-24.327       s21.586,30.838,24.67,29.125c3.084-1.713-10.108-22.443-10.108-22.443s13.192,18.845,16.275,17.132       c3.084-1.713-9.251-20.216-9.251-20.216s11.307,17.817,14.048,16.447c2.741-1.371-8.395-19.702-8.395-19.702       s7.538,11.307,10.108,9.765c2.57-1.542-22.786-38.204-22.786-38.204L365.416,362.216z"/>
				</g>
				<g>
					<g>
						<g>
							<path style="fill:#FFAAAA;" d="M227.342,175.027l-15.084,46.138c0,0-9.152-1.745-21.714-4.536         c-23.109-5.153-57.76-13.796-67.825-21.499c-15.54-11.89,4.106-98.691,4.106-98.691l28.773,3.194         c0,0-5.019,61.679,0.456,70.831c4.831,7.998,56.096,5.475,68.55,4.751C226.349,175.107,227.342,175.027,227.342,175.027z"/>
						</g>
						<g>
							<path style="fill:#2C2441;" d="M227.342,175.027l-15.084,46.138c0,0-9.152-1.745-21.714-4.536         c4.16-5.395,13.286-17.768,14.467-19.191c5.368-6.495,10.951-12.829,16.775-18.949c0.51-0.537,1.584-1.879,2.818-3.274         C226.349,175.107,227.342,175.027,227.342,175.027z"/>
						</g>
						<g>
							<path style="fill:#FFAAAA;" d="M126.826,96.439c0,0,10.906-59.559,14.504-58.873c3.598,0.685,1.37,17.646,1.37,17.646         s7.367-24.327,11.479-24.327c4.111,0-3.255,26.383-3.255,26.383s10.45-25.355,14.391-24.67         c3.94,0.685-7.024,27.24-7.024,27.24s12.678-20.901,15.933-19.702c3.255,1.199-12.678,37.69-12.678,37.69         s17.817-10.279,19.359-7.367c1.542,2.912-24.399,24.598-25.306,29.174L126.826,96.439z"/>
						</g>
					</g>
					<g>
						<g>
							<path style="fill:#FFAAAA;" d="M288.579,261.282l1.811-44.68c-1.342-8.132-3.838-15.165-6.898-21.204         c-6.119-12.185-14.493-20.479-20.184-26.276l-6.925-2.466l-0.214-7.411c-3.248-9.072-8.267-28.665-8.267-28.665         l-23.324,22.465l-4.778,4.616l5.556,12.346l0.617,1.369c0,0-8.535,19.862-16.426,39.616l-0.604,22.848L215.028,256         L288.579,261.282z"/>
						</g>
						<g>
							<path style="fill:#2C2441;" d="M226.161,169.444c-0.242,0.161-0.537,0.349-0.805,0.564l-5.556-12.346l4.778-4.617         c4.456-2.416,8.965-4.616,13.205-7.703C238.722,154.682,234.052,164.371,226.161,169.444z"/>
						</g>
					</g>
					<g>
						<path style="fill:#FFE4E8;" d="M280.573,249.646c0.655-0.081,1.384-0.156,1.914,0.236c0.415,0.308,0.602,0.83,0.757,1.323        c3.022,9.617,2.481,20.311-1.498,29.574c-1.145,2.665-2.604,5.266-4.773,7.192c-2.682,2.382-6.277,3.556-9.853,3.838        c-12.725,1.004-24.297-8.839-29.454-20.515c-2.495-5.647-17.613-38.818-2.796-34.826c6.237,1.68,14.733,7.881,24.296,11.077        C266.017,249.835,273.395,250.532,280.573,249.646z"/>
					</g>
					<g>
						<g>
							<g>
								<path style="fill:#FFAAAA;" d="M260.682,106.265c0-23.339-18.92-42.259-42.259-42.259s-42.259,18.92-42.259,42.259          c0,1.27,0.08,2.52,0.19,3.762l-0.076,0.007c0,0,0.038,0.205,0.106,0.568c0.293,2.876,0.879,5.664,1.72,8.34          c3.415,15.534,13.834,46.268,23.015,47.799c12.335,2.056,43.344-16.961,46.428-29.296c0.058-0.229,0.07-0.48,0.116-0.716          C255.674,129.039,260.682,118.246,260.682,106.265z"/>
							</g>
							<g>
								<path style="fill:#2C2441;" d="M172.431,99.107c3.805,7.021,11.11,11.613,18.771,13.869          c7.661,2.256,15.754,2.456,23.738,2.62c0.975-2.298,1.783-4.975,3.633-6.651c2.876-2.607,7.421-2.953,10.887-1.206          c3.466,1.747,5.82,5.327,6.539,9.141c0.648,3.433,0.03,7.134-1.906,10.042c-1.936,2.908-5.22,4.939-8.708,5.135          c5.426,9.073,16.23,14.62,26.754,13.614c9.297-11.539,14.125-27.231,11.774-41.861          c-2.351-14.631-11.539-28.114-24.532-35.239c-12.993-7.124-29.545-7.557-42.683-0.702          C184.274,74.351,176.846,85.807,172.431,99.107z"/>
							</g>
							<g>
								<path style="fill:#2C2441;" d="M224.712,130.227c-0.474,0-0.904-0.325-1.017-0.805c-1.009-4.235-1.341-7.948-1.014-11.355          c0.402-4.178,1.827-7.909,4.119-10.787c0.361-0.45,1.022-0.527,1.472-0.166c0.452,0.359,0.527,1.019,0.167,1.471          c-2.039,2.56-3.31,5.908-3.674,9.682c-0.303,3.174,0.012,6.663,0.966,10.669c0.134,0.564-0.213,1.128-0.775,1.262          C224.874,130.218,224.793,130.227,224.712,130.227z"/>
							</g>
						</g>
						<g>
							
								<ellipse transform="matrix(0.2121 -0.9773 0.9773 0.2121 134.4355 294.2908)" style="fill:#2C2441;" cx="249.718" cy="63.777" rx="32.551" ry="32.551"/>
						</g>
						<g>
							<path style="fill:#FFAAAA;" d="M180.179,123.06c0,0-5.921,23.486-4.737,24.472c1.184,0.987,12.829-3.158,12.829-3.158         L180.179,123.06z"/>
						</g>
						<g>
							<g>
								<path style="fill:#2C2441;" d="M188.068,150.092c-0.098,0-0.194-0.002-0.291-0.009c-0.576-0.043-1.009-0.548-0.966-1.123          c0.043-0.575,0.548-0.946,1.123-0.968c0.404,0.039,0.904-0.089,1.532-0.377c1.539-0.709,2.929-1.962,3.915-3.531          c0.307-0.489,0.952-0.639,1.443-0.33c0.49,0.307,0.638,0.955,0.33,1.444c-1.198,1.91-2.908,3.444-4.812,4.322          C189.496,149.907,188.765,150.092,188.068,150.092z"/>
							</g>
							<g>
								<path style="fill:#2C2441;" d="M189.994,126.846c0.602,1.491,0.166,3.074-0.975,3.534c-1.141,0.46-2.553-0.375-3.156-1.867          c-0.602-1.492-0.165-3.074,0.975-3.534C187.979,124.518,189.392,125.354,189.994,126.846z"/>
							</g>
							<g>
								<path style="fill:#2C2441;" d="M182.778,122.555c-0.201,0-0.405-0.059-0.583-0.18c-0.481-0.323-0.608-0.973-0.285-1.453          c1.145-1.703,3.057-2.662,5.186-2.689c0.579,0.014,1.037,0.493,1.024,1.071c-0.012,0.577-0.466,1-1.07,1.025          c-1.332-0.089-2.662,0.661-3.401,1.762C183.446,122.391,183.116,122.555,182.778,122.555z"/>
							</g>
						</g>
					</g>
					<g>
						<path style="fill:#8662FF;" d="M305.098,372.838c0,0-22.948-9.931-53.439-13.366c-30.49-3.435-38.032-3.435-38.032-3.435        s1.718-31.161-3.086-45.897c-4.805-14.735-18.493-50.379-10.951-72.656c2.469-7.301,6.146-16.883,9.958-26.491        c1.503,1.02,3.301,1.556,5.126,1.288c2.148-0.322,4.08-1.503,5.798-2.872c8.803-6.979,12.91-18.144,18.439-27.941        c4.59-8.213,10.441-15.702,17.258-22.224c0.349,0.993,0.671,1.825,0.966,2.523c0.805,1.879,3.114,4.268,6.173,7.354        c-9.018,5.771-14.95,15.541-18.627,25.874c-4.268,12.024-4.939,25.042-4.831,37.817c0.107,13.877,1.423,28.719,9.958,39.643        c3.704,4.724,9.448,8.696,15.326,7.542c4.643-0.912,8.213-4.885,9.985-9.286c1.745-4.402,2.013-9.233,2.281-13.957        c1.235-20.533,3.248-41.012,6.093-61.357c3.06,6.039,5.556,13.071,6.898,21.204c5.475,33.228,10.951,84.278,13.017,120.271        L305.098,372.838z"/>
					</g>
					<g>
						<g>
							<path style="fill:#FFAAAA;" d="M252.002,184.044c0,0,8.223-8.223,29.467,6.167c21.244,14.391,63.046,64.074,68.87,72.64         c5.825,8.566,43.515,89.772,43.515,89.772l-28.439,9.594c0,0-31.523-72.64-43.173-82.576         c-11.65-9.936-75.723-53.794-75.723-53.794L252.002,184.044z"/>
						</g>
						<g>
							<g>
								<path style="fill:#2C2441;" d="M350.341,263.899c-0.35,0-0.693-0.175-0.891-0.496c-6.403-10.314-48.97-57.042-65.541-69.969          c-16.454-12.835-27.125-10.792-27.232-10.764c-0.563,0.107-1.121-0.241-1.241-0.807c-0.12-0.564,0.234-1.118,0.798-1.241          c0.468-0.107,11.641-2.351,28.964,11.162c16.685,13.013,59.574,60.109,66.032,70.514c0.305,0.491,0.153,1.137-0.338,1.444          C350.72,263.847,350.529,263.899,350.341,263.899z"/>
							</g>
							<g>
								<path style="fill:#2C2441;" d="M325.157,284.116c-0.331,0-0.656-0.157-0.859-0.448          c-2.402-3.433-24.564-19.344-35.215-26.991c-13.167-9.452-37.356-23.272-37.6-23.411c-0.502-0.286-0.677-0.925-0.391-1.428          c0.287-0.505,0.926-0.68,1.43-0.391c0.243,0.139,24.527,14.013,37.782,23.529c16.017,11.499,33.305,24.054,35.711,27.491          c0.332,0.473,0.216,1.128-0.258,1.46C325.573,284.054,325.364,284.116,325.157,284.116z"/>
							</g>
						</g>
					</g>
					<g>
						<path style="fill:#2C2441;" d="M303.271,423.215c-5.745,20.936-27.396,57.804-33.013,75.294h-43.302l9.626-63.881        l-94.111-25.583c0,0,15.523,21.932,18.281,50.247c1.302,13.532,2.196,27.932,2.783,39.217h-40.443        c-16.826-41.515-49.966-131.107-29.055-146.12c27.421-19.634,119.592,3.651,119.592,3.651s28.902-10.034,57.217-3.651        c28.315,6.409,32.86,13.022,34.264,20.451C306.488,380.271,309.68,399.905,303.271,423.215z"/>
					</g>
					<g>
						<path style="fill:#FFE4E8;" d="M245.644,435.651c-3.376,0-6.747-0.275-10.082-0.848c-0.365-0.064-0.61-0.409-0.548-0.775        c0.062-0.364,0.41-0.614,0.775-0.548c25.352,4.349,53.011-8.702,65.777-31.031c0.181-0.325,0.592-0.439,0.915-0.25        c0.322,0.184,0.433,0.593,0.249,0.914C291.374,422.978,268.47,435.651,245.644,435.651z"/>
					</g>
				</g>
			</g>
			<g>
				<g>
					<path style="fill:#2C2441;" d="M279.187,126.285c1.987-0.872,2.976-1.303,4.945-2.155c10.561-4.476,15.703-6.536,25.815-10.612       c0.482-0.205,0.87-0.101,1.169,0.311c0.3,0.411,0.473,1.026,0.526,1.845c0.128,1.961-0.433,3.233-1.801,3.819       c-0.444,0.191-3.839,1.392-10.291,3.702c-6.454,2.31-10.385,3.813-11.669,4.384c-2.637,1.175-3.961,1.771-6.622,2.979       c-3.138,1.426-4.93,2.48-5.076,2.985c-0.178,0.614-0.108,1.484,0.042,2.306c0.901,3.438,1.475,5.152,2.796,8.556       c0.587,1.916,0.244,3.192-1.127,3.853c-1.091,0.527-2.075,0.397-2.933-0.393c-0.858-0.79-1.477-1.678-1.844-2.667       c-0.367-0.99-0.754-2.22-1.12-3.695c-1.597-6.429-1.492-10.045-1.103-10.78c0.237-0.41,1.205-1.032,2.896-1.852       c1.688-0.82,2.866-1.387,3.547-1.717C278.018,126.825,278.635,126.536,279.187,126.285z"/>
					<path style="fill:#2C2441;" d="M297.026,145.076c0.156-0.727,0.573-1.245,1.246-1.556c0.673-0.312,1.361-0.374,2.071-0.188       c3.894-1.986,8.038-3.96,12.427-5.936c1.027-0.189,1.836-0.132,2.436,0.169c0.6,0.299,1.118,0.898,1.57,1.791       c1.608,5.317,3.893,10.932,6.891,16.754c0.434,1.582,0.201,2.594-0.741,3.049c-1.586,0.769-3.374-0.313-5.21-3.315       c-0.46-0.822-0.932-1.729-1.409-2.73c-0.715-1.501-1.061-2.256-1.728-3.772c-0.325-0.738-1.091-2.851-2.055-6.39       c-4.897,2.249-8.227,3.896-10,4.912c0.803,2.122,2.439,6.182,5.441,11.973c0.451,1.508,0.213,2.491-0.749,2.962       c-0.96,0.47-2.007,0.287-3.127-0.563c-0.138-0.078-0.325-0.251-0.564-0.523c-2.031-4.018-2.981-6.063-4.665-10.202       c-0.27-0.632-0.526-1.132-0.768-1.488c-3.991,2.002-5.984,3.014-9.971,5.066c-2.262,1.099-3.91,1.835-4.94,2.199       c2.59,5.488,4.085,8.189,7.24,13.44c0.522,1.311,0.385,2.166-0.437,2.584c-0.559,0.284-1.274,0.315-2.139,0.091       c-0.867-0.226-1.584-0.639-2.139-1.245c-3.539-5.786-5.218-8.772-8.056-14.843c-0.412-0.918-0.516-1.639-0.333-2.165       c0.183-0.526,0.706-1.064,1.469-1.373c1.068-0.433,2.996-1.176,5.451-2.358c1.664-0.802,2.496-1.2,4.159-1.992       C291.85,147.665,293.575,146.796,297.026,145.076z"/>
					<path style="fill:#2C2441;" d="M326.271,161.723c5.228,8.953,8.017,13.323,14.601,21.44c0.448,1.139,0.333,1.876-0.379,2.233       c-1.779,0.895-3.248,0.668-4.345-0.708c-2.007-2.516-4.032-5.241-6.202-8.132c-3.254,1.397-5.672,2.495-7.251,3.29       c-1.581,0.796-2.591,1.305-3.027,1.525c-7.593,3.939-11.407,5.918-18.934,9.809c-1.116,0.561-1.977,0.61-2.572,0.162       c-0.448-0.337-0.912-0.814-1.359-1.434c-0.723-1.003-0.519-1.871,0.609-2.584c2.652-1.631,7.812-4.394,15.491-8.27       c7.682-3.877,12.406-6.09,14.125-6.662c-0.526-0.736-1.262-1.845-2.187-3.338c-0.924-1.494-2.037-3.373-3.293-5.663       c-0.341-0.596-0.412-1.153-0.225-1.674c0.189-0.521,0.554-0.912,1.101-1.178c0.547-0.265,1.209-0.29,1.995-0.081       C325.202,160.668,325.818,161.09,326.271,161.723z"/>
					<path style="fill:#2C2441;" d="M350.503,185.977c0.619,0.18,1.125,0.489,1.522,0.925c0.394,0.434,0.597,0.918,0.609,1.453       c0.012,0.533-0.259,0.937-0.818,1.218c-1.922,0.963-4.077,1.573-6.463,1.832c-2.389,0.259-4.086-0.133-5.061-1.191       c-0.974-1.058-0.843-1.898,0.358-2.501c0.495-0.246,1.626-0.406,3.401-0.474c1.772-0.068,3.366-0.455,4.778-1.164       C349.325,185.826,349.88,185.795,350.503,185.977z"/>
					<path style="fill:#2C2441;" d="M365.087,206.49c2.22,1.923,3.739,3.743,4.535,5.469c0.796,1.726,0.6,2.885-0.56,3.467       c-0.514,0.257-1.084,0.367-1.713,0.332c-0.629-0.035-1.187-0.271-1.675-0.702c-0.49-0.433-1.161-1.558-2.03-3.362       c-0.87-1.806-1.986-3.291-3.335-4.461c-1.351-1.171-3.164-2.169-5.434-2.992c-2.272-0.824-4.018-0.931-5.248-0.317       c-1.67,0.836-2.042,2.216-1.09,4.117c0.71,1.418,2.058,3.289,4.019,5.625c1.958,2.332,2.98,4.532,3.054,6.597       c0.076,2.066-1.357,3.833-4.257,5.285c-4.421,2.212-8.919,2.663-13.54,1.374c-2.574-0.719-5.165-2.262-7.811-4.605       c-2.647-2.343-4.569-5.068-5.771-8.075c-0.784-1.962-0.746-3.196,0.173-3.658c0.341-0.17,0.862-0.23,1.555-0.181       c0.692,0.049,1.435,0.229,2.214,0.538c0.779,0.309,1.287,0.699,1.524,1.164c0.238,0.465,0.593,1.232,1.069,2.301       c0.475,1.069,0.852,1.84,1.126,2.309c0.883,1.519,1.952,2.827,3.204,3.931c1.248,1.101,3.072,1.862,5.474,2.271       c2.399,0.41,4.51,0.162,6.324-0.746c2.399-1.201,2.894-3.1,1.493-5.652c-0.68-1.238-1.652-2.571-2.862-3.962       c-2.494-2.868-3.852-5.356-4.081-7.342c-0.229-1.988,0.976-3.642,3.586-4.947c2.605-1.304,5.712-1.339,9.36-0.128       C358.04,201.35,361.601,203.47,365.087,206.49z"/>
					<path style="fill:#2C2441;" d="M399.093,242.395c1.109,1.678,1.733,3.575,1.852,5.696c0.118,2.122-0.423,3.472-1.555,4.029       c-1.729,0.854-2.972,0.602-3.76-0.745c-0.291-0.496-0.463-1.532-0.553-3.099c-0.09-1.567-0.419-2.767-0.966-3.607       c-1.961-3.013-5.126-4.791-9.351-5.368c-4.229-0.579-8.521,0.224-12.865,2.405c-3.251,1.632-5.619,3.734-7.163,6.325       c-1.545,2.589-1.732,4.826-0.562,6.712c1.167,1.881,2.703,3.043,4.66,3.467c1.957,0.424,3.78,0.223,5.473-0.614       c0.941-0.463,1.687-0.912,2.234-1.343c0.546-0.428,0.93-1.02,1.14-1.764c0.212-0.747,0.069-1.525-0.432-2.336       c-0.501-0.81-0.794-1.667-0.886-2.569c-0.09-0.905,0.171-1.511,0.799-1.825c0.626-0.313,1.333-0.432,2.12-0.36       c0.783,0.074,1.422,0.38,1.92,0.92c1.536,2.384,2.238,4.134,2.206,5.223c-0.032,1.092-0.103,1.939-0.202,2.534       c-0.097,0.592-0.464,1.23-1.1,1.906c-0.637,0.674-1.179,1.225-1.624,1.648c-0.444,0.421-1.242,0.979-2.376,1.608       c-1.899,1.053-4.232,2.211-6.885,3.511c-2.652,1.297-4.4,1.935-5.167,1.857c-0.647-0.065-1.186-0.5-1.592-1.243       c-0.407-0.744-0.521-1.347-0.332-1.801c0.189-0.453,0.849-1.006,1.983-1.652c-1.263-0.467-2.531-1.217-3.824-2.245       c-1.292-1.029-2.249-2.035-2.853-3.022c-1.902-3.103-1.894-6.547,0.073-10.344c1.965-3.794,5.266-6.872,10.017-9.255       c2.517-1.263,5.294-2.117,8.342-2.566c3.044-0.448,5.93-0.439,8.613,0.048C392.058,235.575,396.323,238.203,399.093,242.395z"/>
					<path style="fill:#2C2441;" d="M411.978,266.874c0.963,2.592,0.772,5.249-0.533,7.965c-2.466,5.275-7.79,9.77-15.47,13.373       c-7.682,3.603-13.942,4.357-18.976,2.309c-2.531-1.105-4.313-3.06-5.078-5.624c-1.022-3.427-0.58-6.981,1.218-10.17       c1.797-3.186,4-5.934,6.722-8.262c2.719-2.327,5.489-4.187,8.351-5.59c4.886-2.393,9.49-3.242,13.741-2.617       C406.478,258.921,410.066,261.725,411.978,266.874z M406.94,268.842c-1.796-4.973-5.814-6.695-11.197-5.609       c-1.449,0.292-3.234,0.911-5.279,1.906c-2.047,0.996-4.259,2.515-6.677,4.57c-3.248,2.764-5.268,5.489-6.121,8.193       c-0.569,1.615-0.619,3.252-0.175,4.919c0.444,1.664,1.584,2.795,3.478,3.374c1.889,0.58,4.118,0.536,6.706-0.14       c2.586-0.676,5.153-1.616,7.679-2.81c4.481-2.12,7.8-4.359,9.889-6.699C407.332,274.203,407.945,271.627,406.94,268.842z"/>
					<path style="fill:#2C2441;" d="M418.339,290.013c-8.672,3.802-13.039,5.709-21.836,9.539c-2.366,1.088-3.923,1.825-4.659,2.2       c-0.551,0.096-1.034,0.009-1.449-0.257c-0.415-0.268-0.616-0.684-0.608-1.248c0.008-0.563,0.481-1.241,1.416-2.035       c10.742-5.565,19.579-9.996,26.736-13.345c1.079-0.135,1.715,0.519,1.833,1.977       C419.89,288.301,419.389,289.362,418.339,290.013z M377.332,304.777c0.78-0.953,1.547-1.605,2.319-1.961       c0.775-0.355,1.482-0.399,2.108-0.131c0.627,0.268,0.933,0.874,0.881,1.829c-0.052,0.955-0.302,1.739-0.734,2.348       c-0.43,0.609-1.306,1.213-2.621,1.812c-2.324,1.058-3.364,0.679-3.224-1.119C376.132,306.659,376.552,305.733,377.332,304.777z       "/>
				</g>
			</g>
			<g>
				<polygon style="fill:#FFE4E8;" points="362.391,432.461 382.341,439.237 362.926,445.48 355.614,465.964 347.768,445.48       328.887,439.237 348.837,432.461 355.614,412.511     "/>
			</g>
			<g>
				<polygon style="fill:#FFE4E8;" points="117.384,261.215 137.334,267.991 117.919,274.234 110.607,294.718 102.762,274.234       83.88,267.991 103.831,261.215 110.607,241.265     "/>
			</g>
			<g>
				<polygon style="fill:#FFE4E8;" points="325.451,64.366 345.401,71.142 325.986,77.385 318.674,97.869 310.828,77.385       291.947,71.142 311.897,64.366 318.674,44.416     "/>
			</g>
			<g>
				<g>
					<polygon style="fill:#FFCB76;" points="83.297,117.995 57.091,122.654 77.605,149.975 58.87,153.305 117.704,189.749        88.052,153.001 106.788,149.67      "/>
				</g>
				<g>
					<polygon style="fill:#FFCB76;" points="436.125,291.395 462.332,296.054 441.817,323.375 460.553,326.705 401.718,363.149        431.37,326.401 412.634,323.07      "/>
				</g>
				<g>
					<polygon style="fill:#FFCB76;" points="100.45,417.426 74.243,422.084 94.758,449.405 76.022,452.735 134.857,489.179        105.204,452.431 123.94,449.1      "/>
				</g>
			</g>
		</g>
		<g>
			<g>
				<path style="fill:#FFE4E8;" d="M184.478,309.341c0,3.593-2.913,6.506-6.506,6.506c-3.593,0-6.506-2.913-6.506-6.506      c0-3.593,2.913-6.506,6.506-6.506C181.565,302.835,184.478,305.748,184.478,309.341z"/>
			</g>
			<g>
				<path style="fill:#FFE4E8;" d="M199.404,37.993c0,3.593-2.913,6.506-6.506,6.506c-3.593,0-6.506-2.913-6.506-6.506      c0-3.593,2.913-6.506,6.506-6.506C196.491,31.487,199.404,34.4,199.404,37.993z"/>
			</g>
			<g>
				<path style="fill:#FFE4E8;" d="M340.627,355.65c0,3.593-2.913,6.506-6.506,6.506c-3.593,0-6.506-2.913-6.506-6.506      c0-3.593,2.913-6.506,6.506-6.506C337.714,349.144,340.627,352.057,340.627,355.65z"/>
			</g>
			<g>
				<path style="fill:#FFE4E8;" d="M413.726,469.318c0,3.593-2.913,6.506-6.506,6.506c-3.593,0-6.506-2.913-6.506-6.506      c0-3.593,2.913-6.506,6.506-6.506C410.813,462.811,413.726,465.724,413.726,469.318z"/>
			</g>
			<g>
				<path style="fill:#FFE4E8;" d="M200.169,469.318c0,3.593-2.913,6.506-6.506,6.506c-3.593,0-6.506-2.913-6.506-6.506      c0-3.593,2.913-6.506,6.506-6.506C197.256,462.811,200.169,465.724,200.169,469.318z"/>
			</g>
			<g>
				<path style="fill:#FFE4E8;" d="M81.526,350.675c0,3.593-2.913,6.506-6.506,6.506s-6.506-2.913-6.506-6.506      c0-3.593,2.913-6.506,6.506-6.506S81.526,347.082,81.526,350.675z"/>
			</g>
		</g>
	</g>
</g>















</svg>
