<?xml version="1.0" encoding="UTF-8"?>
<!-- Generator: Adobe Illustrator 25.2.3, SVG Export Plug-In . SVG Version: 6.00 Build 0)  -->
<svg xmlns="http://www.w3.org/2000/svg" xmlns:xlink="http://www.w3.org/1999/xlink" version="1.1" id="Capa_1" x="0px" y="0px" viewBox="0 0 512 512" style="enable-background:new 0 0 512 512;" xml:space="preserve" width="512" height="512">
<g>
	<g>
		<path style="fill:#FFFFFF;" d="M250.194,512C114.118,512,3.41,401.293,3.41,265.217c0-33.842,6.679-66.48,19.874-97.181    l-6.593-5.219c-3.749-2.968-5.668-7.687-5.056-12.431s3.665-8.819,8.046-10.739l24.861-10.893    c15.83-23.82,35.478-44.53,58.485-61.639c11.959-23.164,33.062-39.88,58.057-46.242c2.374-7.099,6.269-12.641,11.509-16.29    c4.315-3,9.392-4.583,14.694-4.583c2.62,0,5.322,0.383,8.031,1.139c10.264,2.866,16.618,10.805,19.617,19.802    c11.649-1.666,23.47-2.508,35.258-2.508c70.096,0,136.995,29.912,183.801,82.126c22.363,16.335,36.823,36.305,42.99,59.376    c1.082,4.048,1.666,8.065,1.741,11.984c5.304,12.985,9.501,26.487,12.518,40.262l9.184,4.022c4.381,1.92,7.436,5.995,8.048,10.739    c0.615,4.744-1.306,9.463-5.056,12.432l-7.267,5.753c0.324,4.024,0.55,8.07,0.679,12.113c1.056,2.1,1.573,4.48,1.424,6.935    c-0.109,1.792-0.566,3.504-1.309,5.06c-1.02,64.492-26.562,124.79-72.243,170.454c-1.983,4.33-3.889,7.933-5.681,10.732    c-7.423,11.6-19.122,18.965-33.218,21.003C345.509,497.983,298.699,512,250.194,512z"/>
	</g>
	<g>
		<g>
			<circle style="fill:#FFCB76;" cx="251.403" cy="265.217" r="233.154"/>
		</g>
		<g>
			<g>
				<g>
					<g>
						<path style="fill:#8662FF;" d="M408.752,443.074c-9.609,15.02-25.986,15.508-31.304,15.261        c-0.436-0.039-0.762-0.062-1.035-0.09c-0.462-0.036-0.708-0.067-0.708-0.067c-7.5,10.253-22.389,13.3-35.757,11.636        c-1.04-0.143-2.054-0.29-3.043-0.465c-5.28-0.98-10.167-2.646-14.138-4.913c-16.111-9.154-22.57-27.525-23.826-45.151        c-1.868-25.996,5.055-52.428,14.314-76.463c0.584-1.515,1.168-3.029,1.782-4.52c7.958-19.859,19.415-40.972,40.692-48.952        c9.829-3.697,20.859-3.321,30.588,0.393c0.785,0.303,1.544,0.609,2.308,0.968c3.979,1.78,7.715,4.123,10.989,6.997        c3.508,3.068,6.491,6.861,8.413,11.134c0.199,0.386,1.284,4.388,1.657,4.893c0.003,0.026,0.005,0.053,0.032,0.051        c0,0,0.5,0.141,1.312,0.442c4.237,1.647,17.657,8.087,22.762,25.291C439.891,360.083,420.36,424.945,408.752,443.074z"/>
					</g>
				</g>
				<g>
					<g>
						<path style="fill:#FFE4E8;" d="M377.035,458.542c-0.146,0.014-0.3-0.02-0.432-0.106c-0.31-0.204-0.397-0.62-0.195-0.931        c30.611-46.737,41.169-92.319,33.223-143.448c-0.056-0.367,0.196-0.711,0.562-0.767c0.361-0.062,0.713,0.194,0.769,0.561        c7.997,51.477-2.624,97.359-33.428,144.391C377.416,458.418,377.231,458.523,377.035,458.542z"/>
					</g>
				</g>
				<g>
					<g>
						<path style="fill:#FFE4E8;" d="M399.281,358.84c-2.71,20.221-7.826,40.133-15.16,59.176        c-4.325,11.246-10.679,25.577-21.402,36.868c-6.724,7.073-14.582,12.174-22.773,14.93c-1.04-0.143-2.054-0.29-3.043-0.465        c8.898-2.419,17.549-7.704,24.838-15.371c10.548-11.139,16.834-25.328,21.119-36.435c7.314-18.96,12.388-38.76,15.107-58.874        c2.146-15.953,2.199-28.654,0.222-39.999c-1.432-8.182-4.701-19.187-11.873-28.927c0.785,0.303,1.544,0.609,2.308,0.968        c6.499,9.48,9.492,19.863,10.867,27.727C401.535,329.91,401.468,342.747,399.281,358.84z"/>
					</g>
				</g>
			</g>
			<g>
				<path style="fill:#2C2441;" d="M340.316,368.794c-0.248,0-0.501-0.03-0.752-0.096L167.661,324.47      c-1.608-0.414-2.577-2.053-2.163-3.662c0.415-1.609,2.058-2.581,3.663-2.162l171.902,44.229      c1.608,0.414,2.577,2.053,2.164,3.662C342.877,367.894,341.655,368.794,340.316,368.794z"/>
			</g>
			<g>
				<g>
					<g>
						<path style="fill:#8662FF;" d="M188.844,365.517c-4.821,11.252-10.623,22.06-17.399,32.19        c-11.371,16.999-34.281,45.171-58.245,36.462c-11.056-4.018-17.702-15.267-21.919-25.59c-0.196-0.465-0.361-0.932-0.622-1.451        c-0.937-0.635-12.512-8.864-19.604-28.339c-0.287-0.789-0.58-1.637-0.843-2.488c-5.712-17.371-7.712-42.984,3.304-79.09        c11.156-36.542,25.762-55.98,38.343-66.279c0.475-0.408,0.952-0.786,1.4-1.161c14.26-11.065,25.55-10.545,25.55-10.545        s0.057-0.036,0.252-0.205c0.144-0.074,0.341-0.214,0.566-0.386c14.646-11.233,33.911-11.269,48.039,0.882        c22.137,19.041,20.412,53.981,17.851,80.385C203.343,322.311,197.775,344.676,188.844,365.517z"/>
					</g>
					<g>
						<g>
							<g>
								<path style="fill:#FFE4E8;" d="M134.578,282.33c-1.064,37.479-13.66,69.083-35.443,88.996          c-3.308,3.006-7.789,6.699-13.324,8.528c-1.525,0.479-3.065,0.807-4.562,0.951c-3.713,0.355-7.313-0.327-10.194-2.015          c-0.287-0.789-0.58-1.637-0.843-2.488c0.268,0.276,0.531,0.493,0.82,0.677c3.784,2.599,9.124,3.145,14.339,1.437          c5.242-1.741,9.555-5.296,12.751-8.201c28.978-26.495,34.336-66.47,34.968-87.954c0.306-11.632-0.263-28.62-9.163-41.727          c-2.888-4.286-7.359-8.058-12.069-9.601c0.475-0.408,0.952-0.786,1.4-1.161c4.646,1.821,8.934,5.581,11.888,9.921          C134.294,253.168,134.924,270.482,134.578,282.33z"/>
							</g>
						</g>
					</g>
					<g>
						<path style="fill:#E4A7F6;" d="M105.938,308.407c-2.403,9.309-8.123,15.881-12.778,14.68c-4.654-1.201-6.48-9.721-4.077-19.03        c2.403-9.309,8.123-15.881,12.778-14.68C106.515,290.578,108.34,299.098,105.938,308.407z"/>
					</g>
				</g>
				<g>
					<path style="fill:#FFE4E8;" d="M91.28,409.332c-0.349,0-0.662-0.245-0.735-0.601c-0.083-0.407,0.178-0.805,0.585-0.887       c0.428-0.089,43.081-9.662,60.401-80.547c19.071-78.044-12.895-107.221-13.219-107.507c-0.312-0.274-0.343-0.75-0.069-1.061       c0.274-0.311,0.749-0.343,1.061-0.069c0.333,0.29,32.974,30.073,13.688,108.992c-17.562,71.877-61.123,81.573-61.56,81.662       C91.381,409.327,91.331,409.332,91.28,409.332z"/>
				</g>
			</g>
		</g>
		<g>
			<g>
				<g>
					<path style="fill:#AF95FF;" d="M465.026,163.455c-11.319-42.347-51.493-61.788-76.607-73.867       c-25.11-12.105-70.891-18.88-81.53-3.015c-10.198,15.247-6.316,46.383-5.999,48.895c-15.232,7.09-27.984,19.073-35.921,34.255       c-3.823,7.256-6.553,15.295-7.911,23.868c-6.688,42.221,22.129,81.887,64.35,88.576c25.178,3.989,49.442-4.636,66.356-21.174       c11.468-11.234,19.545-26.128,22.245-43.171c0.307-1.937,0.51-3.89,0.684-5.821       C414.674,211.598,475.98,204.421,465.026,163.455z M406.206,178.993c-9.364-25.44-31.854-45.229-60.569-49.778       c-8.057-1.276-16.03-1.242-23.706-0.076c-0.447-9.547,1.209-26.518,18.155-27.381c23.619-1.209,88.855,42.003,91.85,57.355       C434.411,171.893,413.325,177.501,406.206,178.993z"/>
				</g>
				<g>
					
						<ellipse transform="matrix(0.9932 -0.1165 0.1165 0.9932 -17.6632 41.5015)" style="fill:#FFE4E8;" cx="346.319" cy="171.904" rx="28.259" ry="28.259"/>
				</g>
				<g style="opacity:0.35;">
					<path style="fill:#8662FF;" d="M387.764,260.992c-16.915,16.539-41.178,25.163-66.356,21.174       c-42.221-6.688-71.038-46.354-64.35-88.576c1.358-8.573,4.087-16.612,7.911-23.868l-0.098,0.62       c-0.886,6.927-0.554,14.021,0.963,20.826c3.181,14.507,11.261,27.673,21.649,38.292c16.361,16.701,38.368,27.335,61.281,31.917       C361.567,263.936,375.352,264.479,387.764,260.992z"/>
				</g>
			</g>
			<g>
				<g>
					<path style="fill:#FFE4E8;" d="M442.798,142.799c-0.51,6.155,1.479,12.481,5.419,17.237c0.794,0.958,1.695,1.877,2.835,2.376       c1.14,0.498,2.569,0.498,3.54-0.281c1.013-0.813,1.294-2.22,1.419-3.512c0.553-5.707-0.701-11.555-3.44-16.584       c-1.05-1.928-2.882-5.657-5.475-5.66C444.025,136.371,442.995,140.422,442.798,142.799z"/>
				</g>
				<g>
					<path style="fill:#FFE4E8;" d="M451.177,170.645c-0.342,1.062-0.413,2.241-0.016,3.284c0.566,1.486,2.031,2.507,3.585,2.848       c1.966,0.432,4.169-0.17,5.52-1.662c1.352-1.492,1.714-3.852,0.729-5.608C458.5,165.058,452.719,165.853,451.177,170.645z"/>
				</g>
			</g>
		</g>
		<g>
			<g>
				<g>
					
						<ellipse transform="matrix(0.2336 -0.9723 0.9723 0.2336 35.9221 263.0101)" style="fill:#E4A7F6;" cx="184.802" cy="108.718" rx="77.041" ry="77.041"/>
				</g>
				<g>
					<path style="fill:#E4A7F6;" d="M204.295,37.668l-5.116-0.809c0.945-5.966-0.85-15.687-7.71-17.605       c-2.793-0.779-5.058-0.53-6.918,0.763c-3.155,2.197-5.385,7.73-5.966,14.802l-5.163-0.425       c0.422-5.125,2.042-14.363,8.169-18.629c3.162-2.199,6.959-2.706,11.272-1.5C202.865,17.062,205.569,29.634,204.295,37.668z"/>
				</g>
				<g>
					<circle style="fill:#FFE4E8;" cx="184.802" cy="108.718" r="67.122"/>
				</g>
				<g>
					<path style="fill:#E4A7F6;" d="M184.802,172.739c-35.302,0-64.023-28.72-64.023-64.021c0-35.301,28.721-64.021,64.023-64.021       c35.302,0,64.022,28.72,64.022,64.021C248.824,144.018,220.104,172.739,184.802,172.739z M184.802,45.991       c-34.588,0-62.727,28.14-62.727,62.727c0,34.588,28.139,62.727,62.727,62.727s62.726-28.14,62.726-62.727       C247.528,74.13,219.389,45.991,184.802,45.991z"/>
				</g>
			</g>
			<g>
				<g>
					<path style="fill:#2C2441;" d="M192.076,106.073c0,3.652-2.961,6.613-6.613,6.613c-3.652,0-6.613-2.961-6.613-6.613       c0-3.652,2.961-6.613,6.613-6.613C189.115,99.46,192.076,102.42,192.076,106.073z"/>
				</g>
				<g>
					<path style="fill:#2C2441;" d="M224.149,105.707h-39.017c-0.711,0-1.287-0.576-1.287-1.287V73.668       c0-0.711,0.576-1.287,1.287-1.287c0.711,0,1.287,0.576,1.287,1.287v29.465h37.73c0.711,0,1.287,0.576,1.287,1.287       C225.436,105.131,224.86,105.707,224.149,105.707z"/>
				</g>
			</g>
		</g>
		<g>
			<g>
				<polygon style="fill:#FFE4E8;" points="466.025,215.482 496.169,228.689 464.308,253.911 485.859,263.353 405.67,287.562       450.989,254.254 429.439,244.813     "/>
			</g>
			<g>
				<polygon style="fill:#FFE4E8;" points="249.673,392.84 276.171,412.356 239.541,429.949 258.485,443.902 174.934,449.869       226.473,427.352 207.528,413.399     "/>
			</g>
			<g>
				<polygon style="fill:#FFE4E8;" points="56.504,138.924 26.36,152.131 58.22,177.354 36.669,186.795 116.859,211.004       71.539,177.696 93.09,168.255     "/>
			</g>
			<g>
				<path style="fill:#FFE4E8;" d="M298.575,59.322c0,4.912-3.982,8.893-8.893,8.893c-4.912,0-8.893-3.982-8.893-8.893      s3.982-8.893,8.893-8.893C294.594,50.43,298.575,54.411,298.575,59.322z"/>
			</g>
			<g>
				
					<ellipse transform="matrix(0.2289 -0.9735 0.9735 0.2289 -92.3096 469.5819)" style="fill:#FFE4E8;" cx="250.243" cy="293.056" rx="8.893" ry="8.893"/>
			</g>
			<g>
				<path style="fill:#FFE4E8;" d="M444.731,370.774c0,4.912-3.981,8.893-8.893,8.893s-8.893-3.982-8.893-8.893      c0-4.911,3.982-8.893,8.893-8.893S444.731,365.863,444.731,370.774z"/>
			</g>
			<g>
				<path style="fill:#FFE4E8;" d="M57.302,298.083c0,4.911-3.982,8.893-8.893,8.893c-4.911,0-8.893-3.982-8.893-8.893      c0-4.912,3.982-8.893,8.893-8.893C53.32,289.19,57.302,293.171,57.302,298.083z"/>
			</g>
		</g>
	</g>
</g>















</svg>
