<?xml version="1.0" encoding="UTF-8"?>
<!-- Generator: Adobe Illustrator 25.2.3, SVG Export Plug-In . SVG Version: 6.00 Build 0)  -->
<svg xmlns="http://www.w3.org/2000/svg" xmlns:xlink="http://www.w3.org/1999/xlink" version="1.1" id="Capa_1" x="0px" y="0px" viewBox="0 0 512 512" style="enable-background:new 0 0 512 512;" xml:space="preserve" width="512" height="512">
<g>
	<g>
		<path style="fill:#FFFFFF;" d="M242.862,479.367c-10.459,0-21.006-0.739-31.343-2.197c-49.793-6.991-96.188-31.02-130.941-67.764    c-10.614-4.667-20.638-10.91-29.826-18.584C11.661,358.174-7.256,303.516,2.559,251.576c4.123-21.83,13.507-43.426,27.178-62.59    c2.492-7.943,5.456-15.791,8.844-23.435c-0.742-2.114-0.907-4.441-0.388-6.74c0.963-4.256,4.088-7.586,8.08-8.908    c6.6-12.207,14.334-23.799,23.048-34.534c16.739-20.637,36.839-37.987,59.75-51.565c9.265-5.871,17.92-10.01,23.564-12.453    c13.061-5.654,26.559-10.038,40.121-13.031c16.353-3.766,33.247-5.687,50.105-5.687c12.671,0,25.27,1.06,37.448,3.15    c2.065,0.334,4.225,0.73,6.381,1.171c12.351,2.453,24.55,5.991,36.39,10.552c2.244-3.299,6.009-5.346,10.099-5.346    c0.302,0,0.607,0.011,0.913,0.034c5.568,0.414,10.147,4.548,11.125,10.045l1.022,5.742c31.273,16.363,58.463,40.096,78.912,68.941    c2.341,3.296,4.603,6.68,6.779,10.14c1.319-0.484,2.737-0.744,4.201-0.744c5.236,0,9.888,3.334,11.571,8.29l2.415,7.107    l7.107,2.414c4.991,1.696,8.333,6.4,8.291,11.671c-0.044,5.271-3.461,9.922-8.48,11.535l-4.531,1.457    c7.024,19.055,11.396,38.973,13.013,59.314c0.471,5.877,0.71,11.901,0.71,17.895c0,0.659-0.01,1.316-0.022,1.972l44.466,108.536    c1.792,4.377,1.768,9.183-0.062,13.538c-1.83,4.355-5.247,7.737-9.625,9.52l-144.817,59.045c-0.197,0.081-0.398,0.158-0.603,0.233    c-5.353,3.139-10.69,5.993-15.883,8.495C309.355,471.956,276.779,479.367,242.862,479.367z"/>
	</g>
	<g>
		<g>
			<path style="fill:#FFCB76;" d="M455.566,256c0,83.819-48.845,156.23-119.627,190.328c-27.681,13.342-58.744,20.817-91.518,20.817     c-10.062,0-19.962-0.713-29.637-2.078C112.206,450.667,33.276,362.55,33.276,256c0-11.936,0.998-23.648,2.913-35.035     c0-0.02,0-0.02,0-0.02c6.111-36.705,21.713-70.192,44.18-97.873c22.039-27.172,50.739-48.784,83.595-62.309     c3.137-1.324,6.334-2.546,9.553-3.687c22.161-7.924,46.034-12.222,70.905-12.222c12.038,0,23.872,0.998,35.381,2.974     c2.017,0.326,4.013,0.693,6.009,1.1c53.835,10.694,100.317,41.879,130.932,85.061c21.388,30.126,35.055,66.118,38.151,105.084     C455.342,244.654,455.566,250.297,455.566,256z"/>
		</g>
		<g>
			<g>
				<path style="fill:#FFAAAA;" d="M84.383,159.999c0.126-0.994,9.195-27.919,9.195-27.919l5.131,28.827l29.806,3.072      l-24.728,13.427l5.68,27.684L88.42,182.325l-19.532,19.438l8.795-26.354l-26.009-13.902L84.383,159.999z"/>
			</g>
			<g>
				<path style="fill:#FFAAAA;" d="M325.551,82.3c0.126-0.994,9.195-27.919,9.195-27.919l5.131,28.827l29.806,3.072l-24.728,13.427      l5.68,27.684l-21.048-22.766l-19.532,19.438l8.795-26.354l-26.009-13.902L325.551,82.3z"/>
			</g>
			<g>
				<path style="fill:#FFAAAA;" d="M213.358,275.452c0.126-0.994,9.196-27.919,9.196-27.919l5.131,28.827l29.806,3.072      l-24.728,13.426l5.68,27.684l-21.048-22.766l-19.532,19.438l8.795-26.354l-26.009-13.902L213.358,275.452z"/>
			</g>
			<g>
				<polygon style="fill:#FFE4E8;" points="240.261,393.296 253.071,397.647 240.604,401.656 235.909,414.809 230.871,401.656       218.747,397.647 231.558,393.296 235.909,380.485     "/>
			</g>
			<g>
				<polygon style="fill:#FFE4E8;" points="442.044,161.349 454.855,165.701 442.387,169.709 437.693,182.863 432.655,169.709       420.531,165.701 433.341,161.349 437.693,148.538     "/>
			</g>
			<g>
				<polygon style="fill:#FFE4E8;" points="232.629,63.222 245.439,67.574 232.972,71.582 228.277,84.736 223.24,71.582       211.116,67.574 223.926,63.222 228.277,50.412     "/>
			</g>
			<g>
				<polygon style="fill:#FFE4E8;" points="95.684,340.211 108.495,344.562 96.027,348.571 91.333,361.724 86.295,348.571       74.171,344.562 86.981,340.211 91.333,327.4     "/>
			</g>
		</g>
		<g>
			<g>
				<g>
					<g>
						<path style="fill:#AF95FF;" d="M295.667,139.764c0.612,21.445-17.232,38.706-23.441,36.396        c-5.429-2.041-17.174-6.417-21.505-5.684c-0.612,0.095-1.069,0.323-1.346,0.651c-1.257,1.557-20.229,28.035-36.341,50.547        l0.256,0.203c0,0-6.151,8.376-14.527,19.769c-5.115,7.136-8.458,11.833-8.458,11.833l-0.167-0.116        c-16.397,22.314-35.669,48.583-36.748,50.24c-0.204,0.329-0.241,0.775-0.105,1.292c0.992,4.065,11.324,13.29,11.975,18.88        c0.653,5.765-5.021,22.513-20.225,30.668c-0.132,0.082-0.292,0.17-0.44,0.24c-0.16,0.087-0.308,0.158-0.485,0.233        c-1.906,0.957-3.968,1.78-6.163,2.437c-20.57,6.059-92.832-54.352-96.26-65.721c-0.387-1.262-0.518-2.643-0.449-4.134        c-0.002-0.175,0.024-0.356,0.034-0.547c0.015-0.164,0.024-0.355,0.067-0.524c1.284-11.936,14.481-29.082,20.369-33.372        c6.829-5,24.412,6.392,32.561,8.34c4.482,1.084,23.971-23.321,40.62-45.534l-0.017-0.012c0,0,60.414-80.647,56.031-87.792        c-4.412-7.14-20.688-20.303-18.063-28.353c2.624-8.05,18.571-30.752,30.465-31.012        C215.17,68.436,295.044,118.336,295.667,139.764z"/>
					</g>
				</g>
				<g>
					<g>
						<path style="fill:#FFE4E8;" d="M138.865,341.984c2.197,3.44,4.689,7.705,6.17,12.458c-0.132,0.082-0.292,0.17-0.44,0.24        c-0.16,0.087-0.308,0.158-0.485,0.233c-1.431-4.718-3.918-8.955-6.11-12.366c-16.062-25.025-43.084-44.499-74.131-53.374        c-4.646-1.347-10.14-2.689-15.758-2.603c-2.396,0.02-4.708,0.347-6.872,0.925c-0.002-0.175,0.024-0.356,0.034-0.547        c0.015-0.164,0.024-0.355,0.067-0.524c2.124-0.557,4.401-0.833,6.764-0.876c5.737-0.078,11.337,1.289,16.057,2.637        C95.443,297.151,122.665,316.764,138.865,341.984z"/>
					</g>
				</g>
				<g>
					<g>
						<path style="fill:#FFE4E8;" d="M274.808,171.483c-0.032,0.046-0.071,0.086-0.118,0.121c-0.228,0.166-0.546,0.114-0.712-0.112        c-24.313-33.481-59.539-58.43-99.188-70.252c-0.269-0.081-0.423-0.364-0.342-0.633c0.078-0.275,0.366-0.424,0.633-0.342        c39.862,11.886,75.277,36.969,99.721,70.628C274.933,171.073,274.928,171.309,274.808,171.483z"/>
					</g>
				</g>
			</g>
			<g>
				<g>
					<path style="fill:#FFE4E8;" d="M67.453,268.802c2.761,1.498,5.929,2.234,9.067,2.109c1.048-0.042,2.155-0.204,2.965-0.871       c1.153-0.95,1.361-2.72,0.818-4.111c-0.543-1.392-1.687-2.46-2.897-3.337c-2.861-2.073-8.229-4.457-11.805-2.876       C60.963,261.765,64.415,267.155,67.453,268.802z"/>
				</g>
				<g>
					<path style="fill:#FFE4E8;" d="M106.566,288.991c1.866,0.986,4.011,1.926,6.021,1.283c0.635-0.203,1.249-0.593,1.532-1.197       c0.411-0.879,0.021-1.912-0.422-2.776c-2.269-4.426-5.919-8.026-9.981-10.896c-2.199-1.553-16.337-10.243-16.711-2.57       c-0.166,3.412,5.422,6.879,7.702,8.604C98.447,284.27,102.418,286.799,106.566,288.991z"/>
				</g>
			</g>
			<g style="opacity:0.55;">
				<path style="fill:#8662FF;" d="M250.72,170.476c-0.612,0.095-1.069,0.323-1.346,0.651c-1.257,1.557-20.229,28.035-36.341,50.547      l0.256,0.203c0,0-6.151,8.376-14.527,19.769c-5.115,7.136-8.458,11.833-8.458,11.833l-0.167-0.116      c-16.397,22.314-35.669,48.583-36.748,50.24c-0.204,0.329-0.241,0.775-0.105,1.292c-3.873-5.524-1.405-14.527,0.832-21.308      c12.325-37.431,33.757-71.404,59.536-101.209c6.669-7.693,14.972-15.737,25.153-15.427      C242.973,167.095,246.959,168.677,250.72,170.476z"/>
			</g>
		</g>
		<g>
			<g>
				<path style="fill:#2C2441;" d="M497.933,378.249l-144.82,59.046c-2.793,1.139-5.982-0.197-7.124-2.983l-95.056-232.02      c-0.761-1.857,0.132-3.979,1.993-4.738l148.191-60.421c1.862-0.759,3.988,0.131,4.749,1.989l95.057,232.019      C502.065,373.928,500.726,377.11,497.933,378.249z"/>
			</g>
			<g>
				<g>
					<polygon style="fill:#FFE4E8;" points="488.072,359.388 346.91,416.943 260.82,206.807 401.981,149.252      "/>
				</g>
				<g>
					<path style="fill:#FFE4E8;" d="M415.835,403.939c-2.104,0-4.103-1.25-4.946-3.31c-0.537-1.311-0.529-2.755,0.023-4.069       c0.553-1.317,1.583-2.338,2.899-2.875l18.076-7.37c2.726-1.109,5.845,0.198,6.958,2.914c0.537,1.311,0.528,2.756-0.023,4.07       c-0.553,1.317-1.583,2.338-2.899,2.875l-18.076,7.369C417.188,403.811,416.506,403.939,415.835,403.939z M433.898,386.828       c-0.557,0-1.123,0.106-1.669,0.328l-18.076,7.37c-1.091,0.445-1.944,1.292-2.403,2.385c-0.458,1.089-0.464,2.287-0.019,3.372       c0.923,2.255,3.513,3.341,5.773,2.417l18.076-7.369c1.091-0.445,1.944-1.292,2.403-2.385c0.458-1.09,0.464-2.288,0.019-3.373       C437.302,387.865,435.644,386.828,433.898,386.828z"/>
				</g>
			</g>
			<g>
				<g>
					<g>
						<polygon style="fill:#AF95FF;" points="430.744,275.036 330.899,315.745 292.905,223.009 392.751,182.299       "/>
					</g>
					<g>
						<g>
							<polygon style="fill:#FFE4E8;" points="380.846,221.893 335.004,240.584 329.258,226.559 375.1,207.868        "/>
						</g>
						<g>
							<g>
								<path style="fill:#FFE4E8;" d="M351.651,280.173c-0.242,0-0.471-0.144-0.568-0.381l-21.372-52.164          c-0.13-0.314,0.022-0.673,0.335-0.801c0.315-0.128,0.673,0.02,0.801,0.335l21.372,52.164          c0.13,0.314-0.022,0.672-0.335,0.801C351.807,280.158,351.728,280.173,351.651,280.173z"/>
							</g>
							<g>
								<path style="fill:#FFE4E8;" d="M341.328,275.847c-1.829,0.464-3.602,1.527-4.332,3.473          c-0.937,2.497,0.336,6.104,2.663,7.549c2.012,1.25,4.313,0.882,6.223,0.043c1.736-0.762,3.318-1.882,4.661-3.298          c0.683-0.72,1.322-1.555,1.544-2.633C353.205,275.542,343.78,275.225,341.328,275.847z"/>
							</g>
						</g>
						<g>
							<g>
								<path style="fill:#FFE4E8;" d="M396.33,261.957c-0.242,0-0.471-0.144-0.568-0.381l-21.372-52.165          c-0.13-0.314,0.022-0.673,0.335-0.801c0.312-0.131,0.673,0.021,0.801,0.335l21.372,52.165          c0.13,0.314-0.022,0.673-0.335,0.801C396.486,261.942,396.407,261.957,396.33,261.957z"/>
							</g>
							<g>
								<path style="fill:#FFE4E8;" d="M386.007,257.631c-1.829,0.464-3.602,1.526-4.332,3.473          c-0.937,2.497,0.336,6.105,2.663,7.549c2.012,1.25,4.313,0.882,6.223,0.043c1.736-0.762,3.318-1.882,4.661-3.298          c0.683-0.72,1.322-1.555,1.544-2.633C397.884,257.326,388.458,257.009,386.007,257.631z"/>
							</g>
						</g>
					</g>
				</g>
				<g>
					<g>
						<polygon style="fill:#AF95FF;" points="384.02,322.813 394.925,349.432 410.242,327.154       "/>
					</g>
					<g>
						<g>
							<polygon style="fill:#AF95FF;" points="433.037,311.179 438.079,323.486 445.161,313.186        "/>
						</g>
						<g>
							<polygon style="fill:#AF95FF;" points="420.699,316.209 425.742,328.517 432.823,318.216        "/>
						</g>
					</g>
					<g>
						<g>
							<polygon style="fill:#AF95FF;" points="355.499,342.793 360.541,355.1 348.255,352.696        "/>
						</g>
						<g>
							<polygon style="fill:#AF95FF;" points="367.836,337.763 372.879,350.07 360.592,347.666        "/>
						</g>
					</g>
				</g>
				<g>
					<path style="fill:#E4A7F6;" d="M453.855,340.436l-94.681,38.604c-0.631,0.257-1.359-0.047-1.617-0.677l0,0       c-0.258-0.63,0.047-1.355,0.678-1.613l94.682-38.604c0.631-0.257,1.359,0.047,1.617,0.677l0,0       C454.792,339.453,454.486,340.179,453.855,340.436z"/>
				</g>
			</g>
		</g>
		<g>
			<g>
				<g>
					<path style="fill:#2C2441;" d="M290.622,413.062c-0.482,0-0.91-0.343-1.001-0.835c-3.984-21.575-12.314-42.76-24.09-61.268       c-4.274-6.718-9.695-14.048-17.489-17.469c-14.083-6.183-30.683,2.546-40.889,13.938c-4.785,5.339-8.899,11.43-12.878,17.319       c-4.766,7.056-9.695,14.353-15.848,20.486c-14.739,14.693-36.993,22.572-59.523,21.047       c-20.351-1.368-41.218-10.189-58.757-24.838c-35.745-29.855-53.024-79.94-44.019-127.598       c8.183-43.303,38.076-83.18,78.59-105.301c-1.644-6.356-1.249-12.705-0.661-16.793c5.68-39.506,47.344-61.542,64.994-69.184       c37.911-16.413,77.426-20.889,111.263-12.606c39.324,9.624,71.285,36.919,83.413,71.233c1.023,2.894,1.939,5.908,2.825,8.821       c2.685,8.837,5.463,17.973,11.561,24.784c0.375,0.419,0.339,1.062-0.08,1.438c-0.419,0.375-1.062,0.339-1.438-0.08       c-6.399-7.146-9.242-16.503-11.993-25.551c-0.879-2.892-1.788-5.883-2.795-8.735c-11.901-33.672-43.313-60.469-81.977-69.933       c-33.409-8.176-72.462-3.739-109.969,12.498c-17.335,7.504-58.254,29.116-63.787,67.603c-0.546,3.799-0.925,9.647,0.493,15.509       c1.027-0.542,2.058-1.072,3.097-1.592c5.826-2.913,12.117-5.505,18.62-4.718c6.594,0.792,13.329,6.345,12.843,13.347       c-0.207,3-1.77,6.021-4.288,8.287c-3.096,2.786-7.352,4.143-11.986,3.84c-5.617-0.378-11.095-3.108-14.653-7.305       c-2.311-2.724-3.87-5.767-4.894-8.865c-39.792,21.876-69.132,61.102-77.177,103.679c-8.87,46.945,8.136,96.268,43.324,125.657       c17.211,14.375,37.661,23.03,57.586,24.37c21.954,1.47,43.62-6.173,57.949-20.457c6.013-5.995,10.887-13.208,15.599-20.184       c4.017-5.946,8.17-12.096,13.048-17.539c10.698-11.938,28.214-21.033,43.225-14.443c8.295,3.642,13.951,11.264,18.39,18.242       c11.914,18.725,20.344,40.162,24.375,61.991c0.102,0.553-0.263,1.084-0.817,1.186       C290.745,413.056,290.684,413.062,290.622,413.062z M97.126,149.558c0.949,2.993,2.417,5.928,4.626,8.533       c3.21,3.784,8.158,6.248,13.237,6.589c4.086,0.291,7.804-0.906,10.487-3.321c2.128-1.916,3.447-4.436,3.619-6.914       c0.406-5.847-5.388-10.503-11.055-11.183c-5.963-0.718-11.922,1.747-17.465,4.517C99.417,148.357,98.268,148.95,97.126,149.558       z"/>
				</g>
				<g>
					<path style="fill:#2C2441;" d="M257.106,460.973c-6.959,0-13.926-0.95-20.67-2.888c-20.185-5.802-38.955-20.245-55.789-42.928       c-1.158-1.562-2.254-3.13-3.334-4.677c-3.921-5.615-7.625-10.918-13.52-14.586c-0.478-0.297-0.624-0.925-0.327-1.402       c0.297-0.48,0.923-0.624,1.402-0.327c6.25,3.889,10.07,9.359,14.115,15.15c1.069,1.531,2.153,3.083,3.3,4.629       c16.56,22.316,34.969,36.509,54.716,42.183c21.057,6.052,44.361,2.199,62.347-10.304c0.461-0.32,1.095-0.205,1.418,0.256       c0.321,0.461,0.206,1.096-0.256,1.418C287.787,456.34,272.471,460.973,257.106,460.973z"/>
				</g>
			</g>
			<g>
				<path style="fill:#2C2441;" d="M287.706,396.293c-3.903-3.081-9.953-2.937-13.803,0.209c-3.85,3.147-5.216,8.924-3.325,13.523      c1.891,4.599,6.811,7.723,11.782,7.637c1.853-0.032,3.732-0.485,5.267-1.524c1.484-1.005,2.652-2.545,4.36-3.089      C290.419,406.833,289.273,402.51,287.706,396.293z"/>
			</g>
			<g>
				<path style="fill:#2C2441;" d="M300.724,447.039c2.301-4.408,1.034-10.325-2.774-13.523c-3.808-3.197-9.739-3.464-13.905-0.751      c-4.167,2.714-6.321,8.129-5.311,12.998c0.376,1.815,1.171,3.576,2.477,4.891c1.263,1.271,2.994,2.133,3.846,3.709      C290.873,451.666,294.907,449.736,300.724,447.039z"/>
			</g>
		</g>
	</g>
</g>















</svg>
