<?xml version="1.0" encoding="UTF-8"?>
<!-- Generator: Adobe Illustrator 25.2.3, SVG Export Plug-In . SVG Version: 6.00 Build 0)  -->
<svg xmlns="http://www.w3.org/2000/svg" xmlns:xlink="http://www.w3.org/1999/xlink" version="1.1" id="Capa_1" x="0px" y="0px" viewBox="0 0 512 512" style="enable-background:new 0 0 512 512;" xml:space="preserve" width="512" height="512">
<g>
	<g>
		<path style="fill:#FFFFFF;" d="M255.988,512c-35.973,0-70.776-7.328-103.439-21.78C59.887,449.238,0.012,357.301,0.012,256    c0-52.499,15.776-102.955,45.619-145.913c29.158-41.971,69.624-73.965,117.025-92.525C192.335,5.911,223.742,0,255.988,0    c32.914,0,64.941,6.161,95.191,18.315c5.366,2.139,10.734,4.511,16.062,7.092l1.036-3.749c1.94-7.052,8.412-11.982,15.731-11.982    c1.487,0,2.968,0.203,4.401,0.605c8.615,2.372,13.733,11.375,11.346,20.054l-3.229,11.694c0.4,0.263,0.797,0.527,1.195,0.793    l3.01-3.89c3.119-4.028,7.827-6.335,12.915-6.335c3.608,0,7.163,1.219,10.013,3.434c3.419,2.642,5.625,6.494,6.176,10.823    c0.554,4.327-0.614,8.613-3.285,12.062l-2.858,3.693c0.947,0.822,1.889,1.652,2.825,2.49l5.004-2.622    c2.318-1.219,4.944-1.867,7.576-1.867c6.107,0,11.656,3.363,14.476,8.778c2.007,3.821,2.409,8.244,1.11,12.411    c-0.882,2.831-2.481,5.314-4.629,7.25c40.066,46.428,61.933,105.054,61.933,166.95c0,114.196-76.7,215.548-186.519,246.47    C302.962,508.793,279.588,512,255.988,512z"/>
	</g>
	<g>
		<g>
			<path style="fill:#E4A7F6;" d="M497.198,256c0,110.99-74.662,204.584-176.517,233.264c-20.914,5.877-42.961,9.017-65.763,9.017     c-34.841,0-67.958-7.365-97.889-20.607C72.004,440.071,12.661,354.952,12.661,256c0-102.634,63.804-190.374,153.927-225.663     l87.955-6.942l90.45,7.651c11.189,4.461,21.953,9.749,32.221,15.768c8.474,4.957,16.594,10.41,24.36,16.334     c8.332,6.326,16.216,13.172,23.628,20.513C469.651,127.566,497.198,188.561,497.198,256z"/>
		</g>
		<g>
			<g>
				<g>
					<g>
						<g>
							<path style="fill:#8662FF;" d="M366.538,338.679c1.152,22.165-3.703,43.238-13.143,61.67         c-19.139,37.401-57.145,63.885-102.115,66.221c-65.451,3.4-121.484-45.514-127.53-110.138         c-0.16-1.705-0.296-3.411-0.385-5.12c-1.751-33.698,10.359-64.881,31.356-88.054c9.924-10.962,21.822-20.122,35.199-26.909         c14.698-7.474,31.188-12.043,48.726-12.954c24.182-1.257,47.118,4.643,66.689,15.857         c15.621,8.921,29.11,21.236,39.419,36.001C357.423,293.322,365.31,315.042,366.538,338.679z"/>
						</g>
						<g>
							<path style="fill:#8662FF;" d="M194.442,249.034c0,0-29.422-74.571-6.273-89.363c23.148-14.792,130.704-5.703,139.448,16.129         c8.744,21.832-35.349,83.372-35.349,83.372l44.059,31.956c0,0,47.761-85.104,45.649-125.762         c-2.113-40.658-68.433-61.673-132.824-66.481c-64.391-4.808-118.811,33.902-129.57,58.915         c-17.46,40.588,42.405,115.208,42.405,115.208L194.442,249.034z"/>
						</g>
					</g>
					<g>
						<g>
							<g>
								<path style="fill:#FFE4E8;" d="M357.666,158.906c0.498,2.318,1.178,4.596,2.029,6.809c0.891,2.313,2.036,4.637,3.983,6.17          c1.947,1.533,4.882,2.052,6.906,0.621c1.316-0.931,2.036-2.499,2.426-4.062c1.601-6.403-1.55-15.409-7.239-19.038          C358.468,144.745,356.427,153.144,357.666,158.906z"/>
							</g>
							<g>
								<path style="fill:#FFE4E8;" d="M355.762,189.828c-7.42,10.205-12.072,22.401-13.335,34.954          c-0.154,1.531-0.239,3.168,0.503,4.517c1.291,2.349,4.605,2.822,7.129,1.92c4.767-1.704,7.368-6.711,9.519-11.293          c1.553-3.308,3.106-6.617,4.659-9.925c1.905-4.059,3.836-8.201,4.401-12.649          C369.874,187.628,362.805,180.141,355.762,189.828z"/>
							</g>
						</g>
						<g>
							
								<ellipse transform="matrix(0.9258 -0.3779 0.3779 0.9258 -111.2615 117.9675)" style="fill:#FFCBEE;" cx="244.928" cy="342.457" rx="59.155" ry="59.155"/>
						</g>
						<g style="opacity:0.21;">
							<path style="fill:#2C2441;" d="M353.394,400.349c-19.139,37.401-57.145,63.885-102.115,66.221         c-65.451,3.4-121.484-45.514-127.53-110.138c1.862,2.402,3.363,5.655,4.769,7.509c3.141,4.12,6.603,8.009,10.29,11.649         c7.295,7.14,15.563,13.302,24.417,18.386c21.191,12.153,45.357,18.369,69.599,21.488         C273.452,420.683,316.304,416.957,353.394,400.349z"/>
						</g>
					</g>
				</g>
				<g>
					<g>
						<path style="fill:#FFAAAA;" d="M408.043,136.583c-0.897,1.558-2.124,3.116-3.753,4.509c-0.236,0.236-0.496,0.472-0.779,0.661        c-0.472,0.401-0.991,0.755-1.534,1.109c-5.854,3.824-15.036,5.736-27.358,1.936c-0.189-0.071-0.401-0.118-0.59-0.189        c-1.086-0.354-2.195-0.779-3.352-1.322c-0.047-0.023-0.094-0.023-0.142-0.047c-10.008-4.65-22.165-15.438-31.206-24.36        c-7.129-7.034-12.298-12.888-12.959-13.62c-0.047-0.071-0.071-0.094-0.071-0.094s-0.449,3.116-1.157,8.191        c-0.685,4.721-1.605,11.118-2.596,18.223v0.024c-1.605,11.212-3.446,24.171-5.004,35.218        c-1.18,8.569-2.219,15.957-2.809,20.465c0,0,0,0.024,0,0.047c-0.118,0.897-0.236,1.676-0.307,2.313        c-0.684,5.311-2.62,9.584-6.444,13.03l-0.024,0.023c-5.736,5.169-15.697,8.474-32.032,10.599        c-1.109,0.142-2.242,0.283-3.423,0.425c-17.255,1.982-24.903-0.307-28.279-2.573c-0.047-0.024-0.071-0.047-0.118-0.071        c-2.384-1.652-2.573-3.257-2.573-3.257c-0.023,0.024-0.071,0.024-0.094,0.047c-0.968,0.378-8.285,3.163-17.373,3.611        c-1.581,0.071-3.21,0.094-4.886,0c-3.352-0.189-6.043-1.936-8.167-4.343c-0.024,0-0.024-0.047-0.024-0.047        c-5.453-6.184-7.294-16.712-7.294-16.712s-0.165,0.047-0.449,0.118c-2.691,0.637-16.759,3.729-23.699-0.637        c-0.33-0.189-0.661-0.425-0.944-0.661c-7.176-5.901-7.766-29.01-11.59-54.48c-0.236-1.629-0.449-3.517-0.637-5.594        c0-0.118-0.024-0.26-0.024-0.378c-0.33-3.564-0.566-7.719-0.732-12.298c-0.023-0.684-0.047-1.369-0.071-2.054v-0.071        c-0.85-27.476,0.449-67.911,1.039-83.986c27.358-10.74,57.171-16.618,88.329-16.618c31.819,0,62.222,6.137,90.076,17.326        c1.039,5.783,2.077,10.622,3.092,13.785c0.023,0.024,0.023,0.071,0.047,0.118c0.283,0.826,0.543,1.534,0.802,2.101        c0.472,1.039,1.322,2.502,2.502,4.296c0.118,0.189,0.236,0.378,0.331,0.567c3.871,5.925,10.717,15.202,18.317,25.517        c0.897,1.204,1.747,2.36,2.597,3.517c3.187,4.32,6.468,8.757,9.702,13.172c0.897,1.251,1.794,2.478,2.667,3.682        c0.047,0.047,0.095,0.118,0.142,0.189c7.79,10.764,14.918,21.032,19.12,28.326c1.109,1.936,2.03,3.682,2.667,5.146        C408.113,133.962,408.539,135.733,408.043,136.583z"/>
					</g>
					<g>
						<path style="fill:#2C2441;" d="M261.903,216.03c-12.288,0-19.087-2.558-21.35-7.788c-3.827-8.853-5.714-59.87-5.792-62.038        c-0.021-0.587,0.436-1.077,1.021-1.097c0.56-0.076,1.077,0.437,1.097,1.019c0.02,0.527,1.949,52.784,5.62,61.274        c2.946,6.817,17.263,8.234,43.77,4.339c21.019-3.09,25.007-13.655,27.758-26.116c2.659-12.047,12.125-92.751,12.221-93.565        c0.068-0.58,0.604-1.001,1.176-0.929c0.582,0.069,0.999,0.596,0.93,1.178c-0.389,3.327-9.574,81.622-12.255,93.772        c-2.816,12.755-7.192,24.476-29.52,27.759C276.675,215.294,268.499,216.03,261.903,216.03z"/>
					</g>
					<g>
						<path style="fill:#2C2441;" d="M225.179,212.533c-6.945,0-13.916-2.048-17.903-8.023        c-7.525-11.281-12.095-57.05-12.286-58.992c-0.058-0.582,0.368-1.102,0.951-1.16c0.587-0.06,1.101,0.37,1.158,0.953        c0.046,0.469,4.707,47.179,11.941,58.021c6.936,10.397,24.271,7.438,32.01,3.541c0.521-0.26,1.16-0.051,1.423,0.472        c0.263,0.522,0.053,1.16-0.471,1.424C238.004,210.782,231.602,212.533,225.179,212.533z"/>
					</g>
					<g>
						<path style="fill:#2C2441;" d="M187.538,194.021c-0.808,0-1.647-0.014-2.516-0.041c-10.917-0.368-12.307-9.256-15.665-30.727        l-0.989-6.274c-4.136-25.849-4.244-57.204-4.245-57.517c-0.001-0.587,0.473-1.061,1.058-1.063c0.001,0,0.001,0,0.002,0        c0.584,0,1.059,0.474,1.061,1.058c0,0.313,0.108,31.504,4.217,57.186l0.99,6.281c3.258,20.833,4.477,28.628,13.641,28.934        c10.605,0.393,16.663-1.746,16.723-1.765c0.553-0.2,1.156,0.092,1.354,0.644c0.196,0.55-0.091,1.155-0.642,1.353        C202.291,192.176,197.007,194.021,187.538,194.021z"/>
					</g>
					<g>
						<path style="fill:#2C2441;" d="M275.929,214.604c-0.58,0-1.053-0.465-1.061-1.047l-0.969-72.854        c-0.007-0.584,0.461-1.065,1.047-1.074c0.005,0,0.009,0,0.014,0c0.58,0,1.053,0.465,1.061,1.047l0.969,72.854        c0.007,0.584-0.461,1.065-1.047,1.074C275.938,214.604,275.933,214.604,275.929,214.604z"/>
					</g>
					<g>
						<g>
							<path style="fill:#2C2441;" d="M387.728,147.355c-5.407,0-11.42-1.028-17.546-3.117         c-22.361-7.625-43.833-37.194-44.736-38.45c-0.342-0.474-0.234-1.137,0.242-1.479c0.476-0.345,1.138-0.232,1.479,0.242         c0.217,0.301,21.984,30.276,43.698,37.682c15.32,5.223,27.358,2.897,32.498-1.721c2.501-2.248,3.466-5.023,2.79-8.023         c-1.674-7.422-12.191-21.231-21.47-33.414c-3.958-5.195-7.697-10.105-10.59-14.29c-2.673-3.868-5.753-7.926-9.014-12.224         c-8.665-11.416-17.623-23.222-19.743-32.657c-0.129-0.571,0.23-1.139,0.802-1.268c0.567-0.117,1.138,0.232,1.267,0.803         c2.019,8.985,10.837,20.603,19.363,31.84c3.276,4.316,6.37,8.393,9.07,12.3c2.866,4.146,6.589,9.035,10.533,14.212         c9.41,12.355,20.076,26.358,21.852,34.233c0.843,3.739-0.38,7.314-3.441,10.064         C400.897,145.576,394.837,147.355,387.728,147.355z"/>
						</g>
						<g>
							<path style="fill:#2C2441;" d="M400.396,128.583c-1.253,0-2.562-0.26-3.837-0.792c-2.543-1.056-4.564-2.908-6.579-4.873         c-3.24-3.154-6.901-6.9-9.365-11.439c-1.735-3.198-2.603-6.325-2.584-9.293c0.025-3.601,1.41-6.895,3.801-9.04         c0.434-0.391,1.104-0.357,1.497,0.081c0.391,0.437,0.354,1.107-0.082,1.498c-1.918,1.721-3.075,4.514-3.095,7.475         c-0.018,2.607,0.765,5.388,2.326,8.267c2.323,4.279,5.853,7.887,8.981,10.933c1.863,1.815,3.717,3.52,5.914,4.436         c2.316,0.962,4.822,0.789,6.389-0.435c0.462-0.368,1.127-0.281,1.489,0.177c0.361,0.463,0.281,1.127-0.18,1.489         C403.794,128.072,402.151,128.583,400.396,128.583z"/>
						</g>
					</g>
				</g>
			</g>
			<g>
				<g>
					<path style="fill:#FFE4E8;" d="M372.909,64.953c-0.229,0-0.462-0.03-0.695-0.094c-1.388-0.382-2.203-1.818-1.82-3.207       l10.034-36.345c0.384-1.385,1.815-2.199,3.207-1.818c1.389,0.382,2.203,1.818,1.82,3.207l-10.034,36.345       C375.102,64.196,374.053,64.953,372.909,64.953z"/>
				</g>
				<g>
					<path style="fill:#FFE4E8;" d="M389.813,80.941c-0.557,0-1.118-0.177-1.593-0.545c-1.139-0.881-1.347-2.517-0.467-3.656       l22.755-29.413c0.88-1.139,2.517-1.351,3.658-0.467c1.139,0.881,1.347,2.517,0.467,3.656l-22.754,29.413       C391.364,80.594,390.593,80.941,389.813,80.941z"/>
				</g>
				<g>
					<path style="fill:#FFE4E8;" d="M405.563,96.556c-0.939,0-1.846-0.508-2.312-1.397c-0.667-1.275-0.176-2.851,1.1-3.52       l32.465-17.01c1.277-0.672,2.852-0.173,3.52,1.1c0.667,1.275,0.176,2.851-1.1,3.52l-32.465,17.01       C406.384,96.462,405.97,96.556,405.563,96.556z"/>
				</g>
			</g>
			<g>
				<g>
					<path style="fill:#FFE4E8;" d="M116.297,127.69c-0.167,0-0.336-0.016-0.505-0.048l-36.994-7.275       c-1.413-0.278-2.333-1.65-2.056-3.062c0.278-1.413,1.655-2.326,3.061-2.055l36.994,7.275c1.413,0.278,2.333,1.65,2.056,3.062       C118.608,126.83,117.519,127.69,116.297,127.69z"/>
				</g>
				<g>
					<path style="fill:#FFE4E8;" d="M130.968,109.632c-0.493,0-0.992-0.138-1.433-0.43l-31.04-20.484       c-1.202-0.794-1.533-2.411-0.741-3.612c0.795-1.201,2.415-1.535,3.612-0.741l31.04,20.484c1.202,0.794,1.533,2.411,0.741,3.612       C132.645,109.22,131.815,109.632,130.968,109.632z"/>
				</g>
				<g>
					<path style="fill:#FFE4E8;" d="M145.362,92.758c-0.87,0-1.72-0.435-2.214-1.226l-19.4-31.097       c-0.762-1.222-0.39-2.83,0.832-3.591c1.224-0.764,2.83-0.389,3.593,0.831l19.4,31.097c0.762,1.222,0.39,2.83-0.832,3.591       C146.31,92.631,145.833,92.758,145.362,92.758z"/>
				</g>
			</g>
		</g>
		<g>
			<polygon style="fill:#FFCB76;" points="448.735,228.786 476.27,249.066 438.206,267.347 457.892,281.846 371.072,288.047      424.627,264.649 404.941,250.15    "/>
		</g>
		<g>
			<polygon style="fill:#FFCB76;" points="50.259,217.938 22.724,238.218 60.787,256.499 41.102,270.998 127.922,277.199      74.367,253.801 94.052,239.301    "/>
		</g>
		<g>
			<path style="fill:#FFE4E8;" d="M432.912,174.042c0,5.104-4.137,9.241-9.241,9.241c-5.104,0-9.241-4.137-9.241-9.241     c0-5.104,4.137-9.241,9.241-9.241C428.775,164.801,432.912,168.938,432.912,174.042z"/>
		</g>
		<g>
			<circle style="fill:#FFE4E8;" cx="432.912" cy="354.242" r="9.241"/>
		</g>
		<g>
			<path style="fill:#FFE4E8;" d="M84.564,175.85c0,5.104-4.137,9.241-9.241,9.241c-5.104,0-9.241-4.137-9.241-9.241     c0-5.104,4.137-9.241,9.241-9.241C80.427,166.609,84.564,170.746,84.564,175.85z"/>
		</g>
		<g>
			<path style="fill:#FFE4E8;" d="M78.939,333.751c0,5.103-4.137,9.241-9.241,9.241c-5.104,0-9.241-4.137-9.241-9.241     c0-5.104,4.137-9.241,9.241-9.241C74.802,324.51,78.939,328.648,78.939,333.751z"/>
		</g>
		<g>
			<path style="fill:#2C2441;" d="M83.52,385.166l-5.273-8.198c1.443-1.645,9.141-7.25,23.095-16.819l4.44-3.005     c3.546-2.4,6.472-3.895,8.78-4.482c2.305-0.591,4.742-0.202,7.31,1.162c1.275,0.718,2.57,2.048,3.881,3.985     c1.314,1.94,2.197,3.516,2.653,4.728c1.307,3.189,1.514,5.83,0.619,7.924c-0.893,2.094-2.671,4.045-5.34,5.853     c-3.711,2.512-7.107,3.38-10.186,2.604c0.552,1.086,0.729,2.427,0.529,4.02c-0.196,1.594-0.543,3.016-1.035,4.261     c-0.936,2.213-2.841,4.293-5.717,6.242c-4.505,3.048-8.63,3.847-12.378,2.4C91.153,394.397,87.357,390.838,83.52,385.166z      M107.613,383.77c0.143-0.734,0.106-1.666-0.113-2.795c-0.219-1.13-0.881-2.519-1.997-4.164c-1.116-1.65-3.288-4.27-6.509-7.864     c-6.507,4.404-10.837,7.484-12.988,9.247c3.302,4.88,5.938,8.078,7.912,9.601c1.974,1.523,3.66,2.312,5.064,2.365     c1.408,0.053,2.641-0.281,3.704-1.001c1.063-0.72,1.808-1.24,2.232-1.555c0.421-0.32,0.941-0.854,1.558-1.604     C107.093,385.247,107.47,384.506,107.613,383.77z M111.359,360.668l-7.045,4.951c0.055,0.083,0.628,0.729,1.721,1.937     c1.088,1.206,2.048,2.197,2.881,2.975c3.852,3.534,7.675,4.019,11.469,1.447c1.875-1.268,2.878-2.754,3.005-4.45     c0.129-1.698-0.414-3.447-1.627-5.239c-1.525-2.25-2.952-3.504-4.282-3.762c-0.559-0.108-1.024-0.189-1.392-0.239     c-0.373-0.055-0.835,0.046-1.392,0.301c-0.559,0.253-0.946,0.444-1.171,0.564c-0.223,0.12-0.619,0.389-1.187,0.803     C111.768,360.373,111.441,360.61,111.359,360.668z"/>
			<path style="fill:#2C2441;" d="M122.273,393.946c-0.2-0.815-0.007-1.53,0.584-2.154c0.587-0.621,1.323-0.996,2.213-1.127     c3.315-3.796,6.893-7.724,10.735-11.784c1.051-0.67,1.995-0.989,2.832-0.957c0.84,0.03,1.749,0.405,2.729,1.127     c4.618,4.788,9.746,9.847,15.378,15.18c1.111,1.608,1.238,2.871,0.37,3.783c-1.454,1.537-3.801,1.012-7.043-1.572     c-0.84-0.722-1.735-1.537-2.685-2.436l-3.566-3.375c-0.695-0.658-2.478-2.621-5.345-5.89c-4.328,4.572-7.231,7.786-8.713,9.643     c1.905,1.87,5.618,5.421,11.14,10.648c1.074,1.502,1.171,2.72,0.285,3.654c-0.881,0.932-2.096,1.15-3.637,0.658     c-0.182-0.03-0.451-0.147-0.814-0.35l-9.334-9.148c-0.584-0.555-1.093-0.969-1.53-1.242l-8.711,9.642     c-2.008,2.124-3.499,3.589-4.477,4.399l12.887,11.884c0.994,1.291,1.114,2.337,0.352,3.143c-0.52,0.548-1.286,0.863-2.301,0.943     c-1.01,0.083-1.917-0.115-2.71-0.594l-14.256-13.073c-0.84-0.798-1.277-1.507-1.314-2.13c-0.035-0.621,0.295-1.298,0.987-2.029     c1.116-0.886,2.745-2.462,4.894-4.73l3.633-3.838L122.273,393.946z"/>
			<path style="fill:#2C2441;" d="M173.647,404.861c1.077,0.651,1.696,1.673,1.854,3.062c0.163,1.392-0.074,3.925-0.706,7.604     c-1.525,8.667-5.52,21.28-11.989,37.845c-0.062,0.198-0.191,0.46-0.387,0.785c-0.193,0.322-0.607,0.543-1.235,0.663     c-0.635,0.12-1.325-0.051-2.08-0.504c-0.755-0.456-1.279-1.024-1.576-1.703c-0.297-0.676-0.276-1.489,0.06-2.434     c0.334-0.946,1.005-2.789,2.013-5.533c2.271-6.099,3.299-9.359,3.083-9.785c-0.334-0.612-1.852-1.97-4.553-4.072     c-2.701-2.103-4.528-3.44-5.476-4.01c-0.95-0.573-1.56-0.824-1.838-0.757c-1.189,0.223-5.411,4.82-12.652,13.802     c-0.669,0.716-1.735,0.628-3.2-0.255c-1.468-0.886-1.822-1.951-1.065-3.203c1.87-3.104,6.592-8.343,14.161-15.714     c7.567-7.374,12.962-12.026,16.19-13.961C168.358,404.171,171.491,403.561,173.647,404.861z M169.055,411.883     c-0.646-0.389-2.92,0.842-6.817,3.695c-3.895,2.851-6.12,4.73-6.668,5.635c-0.129,0.219-0.177,0.393-0.145,0.531     c0.138,0.555,1.314,1.675,3.529,3.366c2.216,1.689,3.711,2.768,4.489,3.237c0.773,0.469,1.238,0.674,1.39,0.619     c0.15-0.055,0.403-0.375,0.752-0.957c0.354-0.582,1.199-3.302,2.549-8.168C169.481,414.98,169.789,412.327,169.055,411.883z"/>
			<path style="fill:#2C2441;" d="M204.378,418.343c3.104,1.035,5.563,2.446,7.388,4.222c1.82,1.779,2.46,3.479,1.917,5.103     c-0.239,0.715-0.628,1.277-1.162,1.682c-0.534,0.407-1.148,0.492-1.838,0.26c-0.695-0.23-2.006-1.268-3.939-3.108     c-1.93-1.841-3.842-3.078-5.727-3.709c-1.889-0.633-4.033-0.686-6.44-0.163c-2.402,0.525-3.893,1.645-4.468,3.364     c-0.785,2.34-0.143,4.466,1.926,6.38c1.544,1.419,3.904,3.019,7.077,4.797c3.175,1.778,5.508,4.019,6.992,6.718     c1.486,2.703,1.558,6.058,0.216,10.07c-2.045,6.113-5.395,10.008-10.045,11.693c-2.6,0.936-5.77,0.778-9.521-0.476     c-3.748-1.254-7.142-3.532-10.179-6.831c-2.006-2.105-2.791-3.801-2.358-5.092c0.156-0.476,0.536-0.934,1.134-1.371     c0.598-0.437,1.318-0.727,2.163-0.87c0.844-0.143,1.518,0.018,2.032,0.479c0.506,0.463,1.318,1.252,2.432,2.368     c1.114,1.118,1.942,1.898,2.482,2.344c1.749,1.436,3.509,2.448,5.276,3.039s3.764,0.292,5.996-0.9     c2.229-1.192,3.771-3.053,4.618-5.584c1.118-3.343,0.228-6.244-2.667-8.699c-1.399-1.212-3.074-2.328-5.011-3.348     c-3.994-2.186-6.769-4.535-8.317-7.045c-1.551-2.51-1.716-5.579-0.504-9.21c1.217-3.628,3.72-5.964,7.521-7.001     C195.171,416.415,199.508,416.712,204.378,418.343z"/>
			<path style="fill:#2C2441;" d="M217.939,423.573l30.453,2.966c1.399,0.614,2.041,1.422,1.93,2.42     c-0.281,2.503-1.447,3.64-3.499,3.41c-3.753-0.423-7.742-0.768-11.968-1.042c-0.734,4.277-1.224,7.503-1.466,9.679     c-0.246,2.177-0.405,3.566-0.472,4.164l-2.66,26.383c-0.175,1.551-0.676,2.407-1.505,2.568c-0.621,0.131-1.383,0.147-2.285,0.046     c-1.452-0.161-2.16-1.079-2.124-2.747c0.131-3.886,0.791-11.097,1.974-21.629c1.183-10.535,2.048-16.86,2.588-18.979     c-1.056-0.069-2.611-0.216-4.661-0.449c-2.055-0.23-4.604-0.541-7.65-0.934c-0.798-0.092-1.399-0.412-1.79-0.962     c-0.396-0.552-0.552-1.19-0.469-1.914c0.08-0.727,0.472-1.403,1.18-2.036C216.218,423.886,217.028,423.573,217.939,423.573z"/>
			<path style="fill:#2C2441;" d="M299.106,416.744c1.176-0.285,2.144,0.382,2.904,2.011c2.207,7.912,4.466,16.572,6.78,25.985     c2.315,9.415,3.603,14.868,3.868,16.358c0.26,1.489,0.193,2.595-0.198,3.315c-0.393,0.718-1.3,1.252-2.72,1.599     c-1.27,0.313-2.098-0.313-2.48-1.877l-4.079-16.577c-0.66-2.687-1.387-5.439-2.183-8.253c-0.796-2.812-1.281-4.586-1.461-5.319     c-0.966,3.246-2.595,6.122-4.882,8.628c-2.289,2.508-5.117,4.178-8.492,5.006c-3.373,0.831-6.555,0.133-9.534-2.089     c0.633,3.007,1.454,6.553,2.457,10.634c1.003,4.084,2.082,8.37,3.24,12.857c0.299,1.222,0.115,2.216-0.552,2.975     c-0.669,0.762-1.518,1.265-2.542,1.518c-1.323,0.324-2.179-0.318-2.577-1.933c-1.033-4.413-2.724-11.387-5.069-20.923     l-5.121-20.831c-0.205-0.831-0.12-1.707,0.251-2.628c0.368-0.92,0.93-1.475,1.691-1.661c0.759-0.186,1.505-0.15,2.243,0.108     c0.736,0.262,1.233,0.801,1.489,1.617c1.528,5.382,3.401,9.198,5.614,11.456c2.213,2.255,4.394,3.12,6.548,2.588     c2.153-0.527,3.914-1.337,5.278-2.423c1.367-1.088,2.436-2.22,3.212-3.396c0.773-1.176,1.413-2.733,1.921-4.673     c0.72-2.77,1.252-6.09,1.597-9.962C296.508,418.525,297.444,417.156,299.106,416.744z"/>
			<path style="fill:#2C2441;" d="M321.161,405.551c3.081-1.707,6.254-2.172,9.509-1.385c6.329,1.443,11.757,6.249,16.285,14.417     c4.533,8.17,5.759,15.884,3.677,23.141c-1.125,3.677-3.214,6.504-6.263,8.483c-4.185,2.319-8.239,2.697-12.16,1.127     c-3.923-1.567-7.362-3.852-10.317-6.845c-2.957-2.996-5.349-6.145-7.183-9.449c-3.124-5.637-4.358-11.027-3.7-16.172     C311.654,413.383,315.038,408.947,321.161,405.551z M323.74,411.292c-5.904,3.272-8.03,8.108-6.38,14.506     c0.387,1.742,1.231,3.78,2.526,6.113c1.295,2.335,3.235,4.799,5.826,7.392c3.483,3.481,6.856,5.411,10.121,5.789     c1.951,0.301,3.893-0.085,5.835-1.162c1.937-1.072,3.196-2.906,3.771-5.501c0.575-2.593,0.405-5.395-0.511-8.398     c-0.918-3.005-2.133-5.872-3.649-8.603c-2.685-4.843-5.453-8.202-8.308-10.075C330.12,409.481,327.041,409.46,323.74,411.292z"/>
			<path style="fill:#2C2441;" d="M369.861,430.634c-0.932,0.103-1.624-0.097-2.087-0.598c-0.458-0.499-0.64-1.104-0.534-1.813     c-5.575-4.659-11.511-10.42-17.808-17.288c-1.907-2.078-5.526-6.205-10.855-12.387c-0.327-0.727-0.384-1.558-0.186-2.494     c0.2-0.936,0.561-1.643,1.081-2.119c0.518-0.476,0.851-0.748,0.994-0.812c6.67-3.384,13.922-4.756,21.754-4.116     c7.829,0.64,14.559,3.845,20.196,9.61c5.991,6.532,7.043,13.117,3.157,19.757c-1.116,1.912-2.538,3.66-4.261,5.243     c-1.725,1.583-3.357,2.841-4.894,3.771c0.419,0.161,0.861,0.492,1.318,0.992c0.463,0.502,0.596,1.266,0.41,2.292     c-0.186,1.024-0.699,1.921-1.532,2.687c-0.835,0.766-1.822,0.75-2.966-0.048L369.861,430.634z M353.643,406.253     c5.959,6.493,11.982,12.314,18.068,17.458c1.127-0.559,2.75-1.806,4.866-3.748c2.117-1.94,3.822-4.155,5.126-6.649     c1.298-2.492,1.376-4.475,0.228-5.95c-0.842-1.141-1.518-1.992-2.027-2.547c-4.429-4.825-9.633-7.908-15.615-9.251     c-5.982-1.346-12.178-0.856-18.59,1.47C349.531,401.585,352.177,404.658,353.643,406.253z"/>
			<path style="fill:#2C2441;" d="M380.428,387.382c-0.778,0.313-1.516,0.221-2.213-0.274c-0.699-0.495-1.176-1.171-1.431-2.034     c-4.224-2.747-8.616-5.738-13.174-8.973c-0.815-0.946-1.261-1.834-1.348-2.669c-0.087-0.833,0.156-1.788,0.732-2.862     c4.093-5.246,8.379-11.032,12.866-17.357c1.44-1.327,2.669-1.629,3.695-0.9c1.726,1.224,1.539,3.624-0.564,7.195     c-0.598,0.932-1.279,1.933-2.036,3l-2.839,4.006c-0.557,0.78-2.248,2.821-5.082,6.118c5.135,3.642,8.727,6.067,10.772,7.27     c1.585-2.147,4.576-6.322,8.978-12.525c1.337-1.275,2.526-1.542,3.575-0.798c1.047,0.743,1.433,1.914,1.167,3.516     c-0.007,0.18-0.085,0.462-0.235,0.851l-7.744,10.528c-0.467,0.656-0.805,1.219-1.015,1.689l10.772,7.268     c2.384,1.691,4.047,2.961,4.983,3.812l9.953-14.426c1.139-1.166,2.16-1.431,3.062-0.791c0.617,0.437,1.035,1.153,1.259,2.144     c0.223,0.992,0.156,1.917-0.207,2.77l-10.938,15.947c-0.672,0.946-1.312,1.479-1.924,1.601c-0.61,0.122-1.325-0.106-2.149-0.693     c-1.035-0.978-2.823-2.372-5.37-4.178l-4.314-3.06L380.428,387.382z"/>
		</g>
	</g>
</g>















</svg>
