<?xml version="1.0" encoding="UTF-8"?>
<!-- Generator: Adobe Illustrator 25.2.3, SVG Export Plug-In . SVG Version: 6.00 Build 0)  -->
<svg xmlns="http://www.w3.org/2000/svg" xmlns:xlink="http://www.w3.org/1999/xlink" version="1.1" id="Capa_1" x="0px" y="0px" viewBox="0 0 512 512" style="enable-background:new 0 0 512 512;" xml:space="preserve" width="512" height="512">
<g>
	<g>
		<path style="fill:#FFFFFF;" d="M209.052,495.238c-30.622-0.002-56.873-10.275-76.346-29.789H18.549    c-7.678,0-13.924-6.184-14.003-13.861c-0.096-9.307-0.039-18.893,0.17-28.61c-2.545-2.256-4.252-5.425-4.635-8.985    c-0.529-4.926,1.58-9.653,5.353-12.573c1.396-31.263,4.402-61.72,8.953-90.65c2.378-15.265,5.295-30.655,8.668-45.726    c2.61-11.684,5.461-23.033,8.474-33.725c13.452-47.878,31.25-86.31,54.407-117.482c24.891-33.522,57.499-59.199,92.674-73.169    c-0.036-5.318-0.057-9.838-0.057-9.838c-0.028-6.396,4.282-12.001,10.472-13.612c1.175-0.308,2.361-0.456,3.533-0.456    c5.002,0,9.743,2.692,12.253,7.226l4.25,7.681c6.516-1.281,13.037-2.156,19.488-2.617c3.686-0.26,7.427-0.392,11.133-0.392    c24.659,0,50.102,5.842,74.135,16.963c2.604-1.723,5.367-3.225,8.108-4.62c6.44-3.278,13.296-5.496,20.372-6.585    c2.654-0.412,5.066-0.611,7.361-0.611c3.173,0,6.202,0.394,9.003,1.174c5.738,1.598,10.672,4.928,14.002,9.307    c9.384,1.169,18.242,6.321,23.785,14.027c6.389,8.887,8.193,20.557,4.825,31.223c-1.722,5.447-4.635,9.917-8.507,13.097    c0.088,1.29,0.132,2.582,0.132,3.873c0,0.962-0.025,1.931-0.075,2.906c4.434,5.733,8.681,11.764,12.721,18.062    c2.215-1.388,4.795-2.145,7.443-2.145c1.245,0,2.504,0.166,3.749,0.513c6.164,1.712,10.385,7.383,10.254,13.779l-0.323,15.857    l15.746,4.857c5.867,1.81,9.871,7.23,9.876,13.371c0.006,6.138-3.99,11.568-9.854,13.386l-7.023,2.179    c5.109,14.433,9.416,29.64,12.867,45.448c35.17,8.103,60.554,39.289,60.554,76.404c0,16.977-5.557,33.438-15.573,46.891    c4.576,6.626,7.212,14.294,9.092,21.05c6.479,23.609,9.719,47.96,9.645,72.424c-0.024,7.718-6.286,13.961-14.004,13.961H288.486    c-4.104,5.739-7.585,9.872-10.71,12.735c-0.785,0.834-1.249,1.283-1.249,1.283c-1.173,1.137-2.589,2.115-4.08,2.781    c-1.184,0.531-29.4,12.99-63.385,12.99C209.058,495.238,209.055,495.238,209.052,495.238z"/>
	</g>
	<g>
		<g>
			<path style="fill:#FFCB76;" d="M499.781,451.445H20.336c-0.47-46.158,2.489-92.832,9.673-138.497l15.583-42.742l1.204-35.088     c11.34-40.359,27.282-79.426,52.168-112.93c31.625-42.589,79.45-75.388,132.369-79.168c29.982-2.113,59.752,5.306,86.423,19.275     c0.517,0.282,1.033,0.54,1.55,0.822c0.47,0.258,0.939,0.493,1.385,0.751l0.024,0.023c0.54,0.282,1.08,0.587,1.596,0.892h0.024     c12.819,7.161,24.863,15.848,35.804,25.709c5.564,5.001,10.823,10.307,15.754,15.871c2.113,2.395,4.179,4.813,6.198,7.278     c30.85,37.894,48.881,85.178,58.202,133.332c0.329,1.643,0.634,3.31,0.939,4.977c4.813,26.53,7.208,53.506,12.819,79.872     c0.329,1.573,0.681,3.122,1.033,4.672c1.268,5.47,2.958,11.34,6.879,15.143c0.634,0.611,1.315,1.151,2.043,1.644     c3.757,2.489,8.546,2.935,12.631,4.86c0.352,0.164,0.681,0.329,1.01,0.54c8.476,4.578,12.396,14.768,15.002,24.135     C496.776,405.146,499.852,428.295,499.781,451.445z"/>
		</g>
		<g>
			<g>
				<path style="fill:#FFAAAA;" d="M153.362,273.692L83.82,337.928l-8.875-13.758l-8.851-13.711l-36.086,2.489      c2.348-15.073,5.189-30.052,8.499-44.843c2.465-11.035,5.212-22.069,8.288-32.987c23.595-4.085,47.942-8.147,52.521-8.382      c9.109-0.423,41.157,32.705,42.472,34.067c0.023,0.023,0.047,0.047,0.047,0.047L153.362,273.692z"/>
			</g>
			<g>
				<polygon style="fill:#FFAAAA;" points="298.186,135.956 298.134,136.138 297.301,135.956     "/>
			</g>
			<g>
				<path style="fill:#8662FF;" d="M448.781,320.646c0,0,0-7.087-17.717-39.42c-17.717-32.333-40.306-55.808-40.306-55.808      l-0.108,0.191c-13.638-16.128-42.855-40.94-42.855-40.94s-9.744,5.758-30.562,3.1c-20.817-2.658-26.132-16.831-26.132-16.831      s-23.872-0.56-37.622,0.778c-5.766-0.663-39.694-3.498-56.278,19.153c-23.299,31.823-26.132,52.708-26.132,52.708l42.704,7.269      c-9.977,28.672-18.344,54.298-18.344,54.298l72.196,162.996c0,0-11.959,3.1,0,0c11.959-3.101,50.493-77.069,64.224-104.53      c5.799-11.598,18.865-34.099,31.827-57.092l13.794,25.201L448.781,320.646z"/>
			</g>
			<g>
				<path style="fill:#2C2441;" d="M209.444,246.601c6.818-14.041,13.141-28.323,18.952-42.81c-2.495,3.292-5.225,6.487-7.72,9.779      c-6.773,8.937-14.01,16.227-19.807,25.826c-0.375,0.621-0.76,1.339-0.562,2.037c0.149,0.523,0.593,0.9,1.014,1.244      C203.245,244.248,207.52,245.03,209.444,246.601z"/>
			</g>
			<g>
				<path style="fill:#2C2441;" d="M201.187,303.815c0,0,62.895,55.808,80.833,89.692c16.789,31.713,0.033,59.313-8.806,70.569      c-2.784,3.546-6.501,6.231-10.742,7.76c-19.875,7.168-84.233,25.33-123.738-22.521      c-47.171-57.137-71.754-117.596-71.754-117.596l76.404-72.418L201.187,303.815z"/>
			</g>
			<g>
				<path style="fill:#FFAAAA;" d="M403.789,356.945c2.687,14.957,5.58,30.428,14.234,42.92      c5.083,7.338,12.943,13.703,21.867,13.464c8.764-0.235,16.355-6.994,19.877-15.022c3.522-8.029,3.665-17.113,3.047-25.859      c-1.014-14.341-3.928-28.546-8.642-42.128C440.506,340.272,419.462,350.608,403.789,356.945z"/>
			</g>
			<g>
				
					<ellipse transform="matrix(0.9732 -0.2298 0.2298 0.9732 -59.9206 107.6158)" style="fill:#E4A7F6;" cx="432.171" cy="311.123" rx="64.445" ry="64.445"/>
			</g>
			<g>
				<g>
					<path style="fill:#FFAAAA;" d="M335.503,306.805c0,0,52.376,32.887,55.255,30.008c2.879-2.879-21.703-21.039-21.703-21.039       l1.329-2.436c0,0,36.541,15.502,39.199,11.516c2.658-3.986-33.219-22.146-33.219-22.146s33.441,17.495,37.87,13.288       c4.429-4.208-33.441-25.468-33.441-25.468l1.329-3.765c0,0,37.206,5.315,38.756-0.221c1.55-5.536-50.715-15.502-50.715-15.502       s29.676-5.315,29.455-9.966c-0.222-4.651-65.553,5.979-65.553,5.979L335.503,306.805z"/>
				</g>
				<g>
					<path style="fill:#FFAAAA;" d="M171.068,243.578c0,0,12.291-14.506,38.534-8.526c26.243,5.98,43.185,12.291,65.442,17.939       c22.257,5.647,69.096,16.61,69.096,16.61l-8.637,37.205c0,0-145.824-21.058-160.117-32.555       C160.105,261.959,171.068,243.578,171.068,243.578z"/>
				</g>
			</g>
			<g>
				<g>
					<path style="fill:#FFAAAA;" d="M350.464,148.134l-4.033,32.371l-0.625,5.048c0,0-4.216,7.312-22.821,6.635       c-18.606-0.65-32.553-19.048-32.553-19.048l7.703-37.003l15.769,3.617L350.464,148.134z"/>
				</g>
				<g>
					<path style="fill:#2C2441;" d="M350.464,148.134l-4.033,32.371c-9.212,0.495-18.658-0.963-26.62-5.569       c-7.234-4.215-14.312-12.178-15.275-20.844c-0.598-5.542,4.346-11.007,9.368-14.338L350.464,148.134z"/>
				</g>
				<g>
					<g>
						<g>
							<path style="fill:#FFAAAA;" d="M380.681,106.506c0-24.347-19.737-44.084-44.085-44.084         c-24.347,0-44.084,19.737-44.084,44.084c0,7.973,2.148,15.431,5.85,21.884c0.115,11.919,0.976,23.489,3.597,28.148         c6.298,11.196,50.436,20.013,60.451,10.745c11.129-10.298,14.052-30.84,16.269-47.615         C379.979,115.512,380.681,111.092,380.681,106.506z"/>
						</g>
						<g>
							<path style="fill:#FFAAAA;" d="M302.018,139.023c-3.06,1.886-6.884,1.953-10.466,1.652c-4.998-0.42-10.327-1.658-13.62-5.441         c-1.262-1.45-2.147-3.2-2.751-5.025c-1.089-3.296-1.266-6.949-0.129-10.229c1.137-3.28,3.664-6.131,6.927-7.315         c3.121-1.133,6.648-0.692,9.719,0.571c3.071,1.262,5.762,3.286,8.348,5.37c0.716,0.577,0.532,2.441-0.388,2.446         c-0.92,0.005-1.623-1.145-1.201-1.962c0.422-0.817,1.767-0.907,2.295-0.154C301.647,125.344,301.566,132.569,302.018,139.023         z"/>
						</g>
					</g>
					<g>
						<path style="fill:#2C2441;" d="M291.737,113.303c3.889,2.412,6.351,4.331,9.406,7.738        c9.457-4.877,16.311-13.829,20.573-23.579c2.441-5.584,4.242-11.552,4.267-17.647c0.025-6.094-1.868-12.349-6.032-16.799        c-11.168,1.575-21.678,7.532-28.262,16.689c-6.583,9.157-9.236,21.045-7.172,32.132        C286.349,111.52,290.157,112.324,291.737,113.303z"/>
					</g>
					<g>
						<path style="fill:#2C2441;" d="M346.215,48.257c3.478-0.537,7.094-0.727,10.476,0.215c3.382,0.942,6.514,3.167,7.773,6.32        c0.417,1.044,0.691,2.257,1.655,2.887c0.902,0.59,2.095,0.458,3.185,0.393c6.831-0.406,13.677,3.02,17.56,8.42        c3.884,5.4,4.823,12.549,2.841,18.828c-0.894,2.831-2.456,5.615-5.053,7.215c-2.019,1.244-4.475,1.658-6.872,1.778        c-9.277,0.462-18.212-3.06-26.715-6.644c-9.595-4.044-19.248-8.326-27.584-14.505c-3.498-2.593-9.079-6.336-5.657-10.959        c2.75-3.714,8.127-6.627,12.238-8.721C335.104,50.918,340.579,49.127,346.215,48.257z"/>
					</g>
					<g>
						<path style="fill:#2C2441;" d="M297.488,136.769c-0.47,0-0.897-0.318-1.018-0.794c-1.395-5.53-4.775-11.059-9.774-15.991        c-1.781-1.757-4.195-3.877-7.083-4.676c-0.559-0.154-0.887-0.733-0.732-1.292c0.154-0.557,0.734-0.891,1.292-0.732        c3.353,0.928,6.036,3.269,7.997,5.205c5.273,5.201,8.847,11.071,10.337,16.973c0.141,0.562-0.199,1.133-0.762,1.275        C297.66,136.759,297.573,136.769,297.488,136.769z"/>
					</g>
					<g>
						<g>
							<g>
								<g>
									<path style="fill:#2C2441;" d="M341.828,121.475c-0.215,2.383-2.045,4.166-4.088,3.982           c-2.043-0.184-3.525-2.265-3.31-4.648c0.215-2.383,2.045-4.166,4.088-3.982           C340.561,117.011,342.042,119.092,341.828,121.475z"/>
								</g>
								<g>
									<path style="fill:#2C2441;" d="M373.012,124.856c-0.215,2.383-2.045,4.166-4.088,3.982           c-2.043-0.184-3.525-2.266-3.31-4.649c0.215-2.383,2.045-4.166,4.088-3.982           C371.745,120.392,373.227,122.473,373.012,124.856z"/>
								</g>
							</g>
							<g>
								<path style="fill:#2C2441;" d="M356.551,142.496c-0.12,0-0.239-0.021-0.355-0.063l-5.829-2.096          c-0.546-0.196-0.828-0.798-0.633-1.344c0.197-0.547,0.8-0.83,1.344-0.633l4.46,1.604l0.568-22.8          c0.014-0.579,0.395-1.09,1.076-1.023c0.58,0.014,1.038,0.496,1.023,1.076l-0.603,24.254c-0.008,0.337-0.178,0.65-0.456,0.84          C356.967,142.433,356.76,142.496,356.551,142.496z"/>
							</g>
							<g>
								<path style="fill:#2C2441;" d="M334.574,105.844c-2.2,0.671-4.626,3.627-2.344,5.663c0.777,0.693,1.835,0.973,2.863,1.141          c1.399,0.229,2.85,0.289,4.22-0.072c1.397-0.368,3.388-1.465,3.499-3.095c0.064-0.944-0.602-1.786-1.344-2.373          C339.573,105.613,336.881,105.14,334.574,105.844z"/>
							</g>
							<g>
								<path style="fill:#2C2441;" d="M372.979,115.864c1.986-0.418,4.35-2.826,2.503-4.794c-0.629-0.67-1.537-0.998-2.427-1.226          c-1.212-0.31-2.482-0.477-3.715-0.267c-1.257,0.214-3.092,1.023-3.317,2.446c-0.13,0.825,0.389,1.617,0.996,2.19          C368.567,115.677,370.895,116.302,372.979,115.864z"/>
							</g>
						</g>
						<g>
							<path style="fill:#2C2441;" d="M353.428,147.636c-0.382,0-0.762-0.022-1.141-0.067c-2.445-0.291-4.762-1.535-6.356-3.414         c-0.375-0.442-0.32-1.104,0.122-1.48c0.439-0.377,1.102-0.32,1.48,0.122c1.255,1.479,3.078,2.458,5.002,2.687         c1.92,0.228,3.93-0.294,5.494-1.436c0.471-0.343,1.128-0.239,1.467,0.229c0.342,0.468,0.239,1.125-0.229,1.467         C357.587,146.971,355.508,147.636,353.428,147.636z"/>
						</g>
					</g>
				</g>
			</g>
		</g>
		<g>
			<path style="fill:#FFE4E8;" d="M361.444,396.465c-0.163-0.889,0.27-26.52,0.27-26.52l12.296,23.382l26.468-5.511l-17.589,18.308     l12.456,22.25l-24.324-13.817l-11.477,22.055l0.354-25.065l-26.166-4.839L361.444,396.465z"/>
		</g>
		<g>
			<path style="fill:#FFE4E8;" d="M401.72,162.421c0.287-0.857,13.056-23.086,13.056-23.086l-0.538,26.413l25.834,7.97     l-24.247,7.525l0.149,25.499l-14.615-23.854l-20.708,13.76l12.425-21.771l-20.567-16.884L401.72,162.421z"/>
		</g>
		<g>
			<path style="fill:#FFE4E8;" d="M194.638,57.289c-0.182-0.886-0.294-26.52-0.294-26.52l12.791,23.115l26.345-6.072L216.284,66.49     l12.926,21.98l-24.613-13.297l-11.005,22.295l-0.179-25.067l-26.263-4.281L194.638,57.289z"/>
		</g>
		<g>
			<path style="fill:#FFE4E8;" d="M43.28,401.668c-0.182-0.885-0.294-26.52-0.294-26.52l12.791,23.116l26.345-6.073l-17.196,18.678     l12.926,21.98l-24.613-13.297l-11.006,22.295l-0.18-25.067l-26.263-4.281L43.28,401.668z"/>
		</g>
		<g>
			<g>
				<path style="fill:#2C2441;" d="M116.628,158.981c-0.723-0.328-1.153-0.784-1.292-1.368c-0.139-0.581-0.032-1.119,0.324-1.611      c-2.238-5.976-4.308-12.949-6.207-20.922c-0.574-2.412-1.593-7.132-3.05-14.159c0.048-0.695,0.333-1.352,0.85-1.976      c0.517-0.627,1.06-1.007,1.63-1.142c0.57-0.137,0.921-0.196,1.055-0.182c6.227,0.34,12.083,2.459,17.569,6.366      c5.486,3.905,9.154,9.284,10.998,16.124c1.805,7.583-0.03,13.051-5.507,16.404c-1.575,0.966-3.307,1.678-5.199,2.127      c-1.892,0.451-3.585,0.695-5.081,0.732c0.244,0.308,0.438,0.75,0.574,1.331c0.139,0.581-0.064,1.222-0.606,1.924      c-0.545,0.695-1.272,1.153-2.188,1.372c-0.914,0.219-1.632-0.226-2.154-1.331L116.628,158.981z M114.395,133.357      c1.796,7.54,3.907,14.597,6.33,21.166c1.049,0.068,2.733-0.171,5.051-0.725c2.318-0.552,4.447-1.491,6.389-2.82      c1.94-1.327,2.781-2.804,2.523-4.426c-0.164-1.233-0.324-2.177-0.479-2.822c-1.333-5.6-3.927-10.216-7.779-13.852      c-3.854-3.636-8.591-5.967-14.207-6.998C113.23,128.016,113.955,131.506,114.395,133.357z"/>
				<path style="fill:#2C2441;" d="M150.939,107.584c2.847-0.679,5.5-0.287,7.955,1.176c4.787,2.776,8.13,8.16,10.036,16.151      c1.903,7.994,1.242,14.786-1.983,20.38c-1.691,2.813-3.977,4.677-6.854,5.591c-3.866,0.921-7.21,0.239-10.031-2.049      c-2.824-2.288-5.108-5.056-6.847-8.308c-1.742-3.248-2.997-6.487-3.765-9.719c-1.315-5.516-1.156-10.355,0.474-14.522      C141.612,111.831,145.284,108.929,150.939,107.584z M151.79,113.048c-5.452,1.299-8.194,4.844-8.235,10.633      c-0.057,1.561,0.185,3.485,0.729,5.769c0.545,2.284,1.582,4.837,3.114,7.659c2.063,3.786,4.367,6.245,6.913,7.367      c1.507,0.734,3.155,0.887,4.946,0.46c1.789-0.426,3.193-1.659,4.212-3.702c1.017-2.038,1.477-4.436,1.381-7.191      c-0.098-2.754-0.463-5.466-1.101-8.14c-1.128-4.736-2.639-8.247-4.538-10.526C157.315,113.098,154.842,112.321,151.79,113.048z"/>
				<path style="fill:#2C2441;" d="M193.636,97.617c0.65-0.155,1.311-0.002,1.978,0.454c0.666,0.453,1.092,1.069,1.276,1.846      c4.012,16.844,6.508,27.006,7.488,30.484c0.978,3.476,1.477,5.258,1.497,5.345c0.226,0.948,0.194,1.899-0.093,2.856      c-0.287,0.955-0.727,1.502-1.318,1.643c-0.59,0.141-1.044,0.214-1.363,0.223c-0.324,0.007-0.615-0.002-0.88-0.032      c-0.264-0.025-0.549-0.141-0.855-0.34l-0.764-0.499c-0.205-0.134-0.497-0.417-0.88-0.85c-0.383-0.433-0.693-0.78-0.925-1.042      c-0.235-0.264-0.615-0.732-1.14-1.404c-0.527-0.672-1.646-2.033-3.358-4.082c-1.714-2.051-3.259-3.889-4.636-5.518      c-4.702-5.484-8.864-9.703-12.493-12.664c3.335,14.002,5.284,23.803,5.842,29.408c0.125,1.06-0.506,1.755-1.887,2.083      c-0.652,0.155-1.231,0.116-1.741-0.13c-0.508-0.242-0.855-0.752-1.039-1.527c-0.185-0.775-1.048-5.078-2.592-12.903      c-1.541-7.825-2.539-12.698-2.997-14.617c-0.456-1.915-0.745-3.132-0.868-3.651c-0.738-3.102-0.932-4.898-0.577-5.391      c0.356-0.497,0.777-0.802,1.265-0.919c2.236-0.533,6.578,2.53,13.022,9.19c1.254,1.295,3.713,4.046,7.381,8.247      c3.665,4.205,5.876,6.804,6.631,7.811l-7.118-26.646c-0.882-3.704-1.001-5.908-0.349-6.608      C192.487,98.029,192.984,97.772,193.636,97.617z"/>
				<path style="fill:#2C2441;" d="M202.792,89.361c0.335-0.488,0.777-0.802,1.327-0.932c0.549-0.13,1.105-0.046,1.673,0.251      c0.563,0.299,0.928,0.793,1.092,1.479c0.565,2.371,0.7,4.753,0.413,7.144c-0.292,2.391-1.108,3.747-2.45,4.066      c-1.343,0.319-2.188-0.253-2.537-1.719c-0.144-0.604-0.046-1.767,0.299-3.485c0.342-1.723,0.31-3.444-0.1-5.165      C202.361,90.396,202.457,89.849,202.792,89.361z"/>
				<path style="fill:#2C2441;" d="M215.009,93.416l24.619-6.275c1.27,0.107,2.01,0.593,2.215,1.457      c0.513,2.152-0.066,3.428-1.732,3.825c-3.052,0.727-6.266,1.584-9.642,2.569c0.679,3.754,1.242,6.567,1.689,8.443      c0.447,1.874,0.732,3.07,0.855,3.585l5.646,22.625c0.319,1.333,0.178,2.188-0.422,2.557c-0.447,0.287-1.037,0.522-1.769,0.695      c-1.181,0.283-1.999-0.273-2.459-1.669c-1.035-3.257-2.633-9.421-4.791-18.49c-2.161-9.067-3.339-14.558-3.538-16.47      c-0.843,0.248-2.099,0.57-3.768,0.969c-1.668,0.397-3.747,0.868-6.239,1.416c-0.652,0.155-1.21,0.062-1.68-0.283      c-0.467-0.342-0.777-0.827-0.925-1.452c-0.148-0.624-0.041-1.299,0.324-2.024C213.758,94.17,214.296,93.676,215.009,93.416z"/>
			</g>
			<g>
				<path style="fill:#2C2441;" d="M127.321,170.74c3.068-0.729,5.81-0.8,8.219-0.214c2.409,0.59,3.818,1.735,4.221,3.433      c0.18,0.752,0.155,1.445-0.066,2.079c-0.223,0.634-0.679,1.033-1.361,1.194c-0.686,0.164-2.295-0.048-4.828-0.634      c-2.535-0.586-4.734-0.656-6.599-0.212c-1.865,0.445-3.64,1.527-5.325,3.248c-1.685,1.723-2.314,3.485-1.885,5.284      c0.584,2.45,2.216,3.964,4.898,4.543c1.994,0.419,4.75,0.57,8.26,0.447c3.512-0.125,6.58,0.599,9.197,2.168      c2.619,1.571,4.429,4.454,5.429,8.655c1.525,6.398,0.832,11.556-2.079,15.472c-1.623,2.184-4.29,3.715-7.994,4.597      c-3.706,0.882-7.656,0.688-11.85-0.586c-2.728-0.777-4.253-1.839-4.575-3.189c-0.118-0.499-0.05-1.099,0.207-1.794      c0.26-0.695,0.695-1.327,1.308-1.896c0.611-0.568,1.245-0.784,1.901-0.65c0.657,0.132,1.728,0.392,3.216,0.779      c1.488,0.385,2.569,0.629,3.243,0.732c2.172,0.328,4.132,0.285,5.881-0.132c1.744-0.415,3.216-1.73,4.411-3.943      c1.192-2.213,1.475-4.643,0.843-7.294c-0.832-3.499-3.07-5.555-6.708-6.166c-1.771-0.321-3.715-0.413-5.826-0.28      c-4.392,0.205-7.873-0.383-10.444-1.751c-2.571-1.37-4.308-3.952-5.213-7.752c-0.905-3.8-0.084-7.153,2.466-10.059      C118.823,173.915,122.507,171.887,127.321,170.74z"/>
				<path style="fill:#2C2441;" d="M144.336,167.72l28.569-7.283c1.477,0.125,2.334,0.688,2.573,1.687      c0.595,2.503-0.075,3.98-2.01,4.44c-3.542,0.843-7.271,1.837-11.187,2.981c0.786,4.358,1.44,7.62,1.958,9.799      c0.517,2.174,0.848,3.56,0.992,4.158l6.553,26.256c0.369,1.552,0.205,2.541-0.49,2.97c-0.52,0.335-1.204,0.606-2.054,0.807      c-1.37,0.326-2.32-0.319-2.854-1.935c-1.201-3.781-3.054-10.936-5.562-21.458c-2.505-10.526-3.873-16.895-4.103-19.112      c-0.978,0.287-2.437,0.661-4.372,1.122c-1.935,0.46-4.349,1.01-7.242,1.646c-0.755,0.178-1.404,0.068-1.947-0.331      c-0.545-0.397-0.903-0.96-1.076-1.684c-0.173-0.725-0.048-1.509,0.376-2.348C142.886,168.593,143.511,168.021,144.336,167.72z"/>
				<path style="fill:#2C2441;" d="M195.74,154.208c3.303-0.789,6.38-0.331,9.231,1.368c5.555,3.221,9.437,9.468,11.645,18.741      c2.211,9.275,1.441,17.159-2.298,23.648c-1.967,3.271-4.618,5.432-7.957,6.492c-4.486,1.069-8.365,0.276-11.641-2.38      c-3.278-2.651-5.924-5.865-7.946-9.639c-2.02-3.77-3.478-7.531-4.372-11.28c-1.525-6.398-1.338-12.014,0.552-16.851      C184.915,159.136,189.178,155.769,195.74,154.208z M196.727,160.549c-6.325,1.509-9.509,5.621-9.557,12.34      c-0.066,1.812,0.214,4.044,0.846,6.694c0.631,2.649,1.835,5.614,3.615,8.887c2.393,4.395,5.067,7.248,8.021,8.548      c1.748,0.852,3.661,1.03,5.739,0.536c2.077-0.495,3.706-1.926,4.889-4.292c1.181-2.368,1.716-5.151,1.602-8.347      s-0.538-6.346-1.274-9.446c-1.311-5.498-3.068-9.571-5.268-12.217C203.139,160.609,200.267,159.708,196.727,160.549z"/>
				<path style="fill:#2C2441;" d="M227.534,191.25c-1.557-5.069-3.38-11.992-5.47-20.767c-2.09-8.773-3.328-14.488-3.709-17.143      c-0.146-1.657,0.638-2.965,2.355-3.932c1.719-0.964,4.085-1.803,7.107-2.523c4.436-1.055,8.42-0.934,11.948,0.365      c3.526,1.301,5.758,3.927,6.699,7.875c0.775,3.246,0.996,6.061,0.666,8.441c-0.333,2.377-1.012,4.24-2.035,5.596      c-1.673,2.193-4.538,3.775-8.598,4.741c-1.746,0.417-4.096,0.711-7.048,0.884c2.619,9.942,4.212,16.222,4.784,18.832      c0.572,2.612,0.055,4.107-1.55,4.49c-1.039,0.246-1.746,0.205-2.124-0.128c-0.378-0.333-0.636-0.574-0.773-0.729      c-0.137-0.15-0.294-0.39-0.47-0.72c-0.18-0.326-0.319-0.595-0.419-0.809c-0.1-0.214-0.216-0.545-0.346-0.987      c-0.132-0.447-0.251-0.786-0.358-1.026C227.967,192.971,227.749,192.15,227.534,191.25z M240.634,156.711      c-0.483-2.024-1.903-3.376-4.26-4.057c-2.357-0.682-4.716-0.738-7.075-0.175c-2.361,0.561-3.959,1.178-4.798,1.853      c0.515,2.995,1.067,5.73,1.657,8.203c0.588,2.475,1.217,4.691,1.88,6.647c1.311-0.157,2.213-0.237,2.71-0.251      c1.263-0.141,2.329-0.317,3.205-0.526c0.873-0.207,1.459-0.358,1.76-0.458c0.303-0.098,0.873-0.315,1.719-0.645      c0.843-0.335,1.418-0.695,1.725-1.085c0.303-0.392,0.682-0.903,1.128-1.536c0.449-0.636,0.711-1.304,0.793-2.013      C241.263,160.722,241.115,158.735,240.634,156.711z"/>
			</g>
		</g>
		<g>
			<g>
				<circle style="fill:#8662FF;" cx="265.6" cy="72.587" r="7.193"/>
			</g>
			<g>
				<circle style="fill:#8662FF;" cx="81.772" cy="202.865" r="7.193"/>
			</g>
			<g>
				<circle style="fill:#8662FF;" cx="467.811" cy="421.861" r="7.193"/>
			</g>
			<g>
				<circle style="fill:#8662FF;" cx="48.203" cy="345.932" r="7.193"/>
			</g>
		</g>
	</g>
</g>















</svg>
