<?xml version="1.0"?>
<svg xmlns="http://www.w3.org/2000/svg" xmlns:xlink="http://www.w3.org/1999/xlink" xmlns:svgjs="http://svgjs.com/svgjs" version="1.1" width="512" height="512" x="0" y="0" viewBox="0 0 511.88 511.88" style="enable-background:new 0 0 512 512" xml:space="preserve" class=""><g><g xmlns="http://www.w3.org/2000/svg"><path d="m481.065 74.152c-19.902-19.903-46.364-30.864-74.511-30.864-28.138 0-54.592 10.954-74.492 30.845-.006.006-.014.012-.02.018l-149.554 149.555-74.555 74.556c-23.467 23.467-23.467 61.651 0 85.118 11.368 11.368 26.482 17.629 42.559 17.629s31.191-6.261 42.559-17.629l209.465-209.466c5.858-5.858 5.858-15.355 0-21.213-5.857-5.858-15.355-5.858-21.213 0l-209.465 209.465c-5.702 5.702-13.283 8.842-21.346 8.842s-15.644-3.14-21.346-8.842-8.842-13.283-8.842-21.346 3.14-15.645 8.842-21.346l74.555-74.556 149.54-149.54c.005-.005.01-.009.015-.014 14.236-14.236 33.164-22.077 53.298-22.077s39.063 7.84 53.299 22.077c29.385 29.385 29.387 77.197.009 106.587-.003.003-.007.006-.01.009l-224.11 224.11c-47.007 47.007-123.494 47.006-170.501 0-47.007-47.007-47.007-123.494 0-170.501l209.466-209.465c5.858-5.858 5.858-15.355 0-21.213-5.857-5.858-15.355-5.858-21.213 0l-209.466 209.466c-58.704 58.704-58.704 154.223 0 212.927 28.438 28.438 66.247 44.099 106.463 44.099 40.217 0 78.026-15.661 106.464-44.099l224.095-224.096c.005-.005.01-.009.015-.014 41.086-41.086 41.086-107.937 0-149.022z" fill="#7b8aa1" data-original="#000000" class=""/></g></g></svg>
