<svg xmlns="http://www.w3.org/2000/svg" xmlns:xlink="http://www.w3.org/1999/xlink" width="100" height="100" viewBox="0 0 100 100"><circle stroke="none" fill="#f1f2f2" r="48%" cx="50%" cy="50%"></circle><g transform="translate(50 50) scale(0.69 0.69) rotate(0) translate(-50 -50)" style="fill:#05224c"><svg fill="#05224c" xmlns="http://www.w3.org/2000/svg" viewBox="0 0 64 64" x="0px" y="0px"><title>phone, call, telephone</title><g><path d="M52.616,47.82c-6.688,10.174-20.695,6.665-31.9-4.538s-14.712-25.21-4.538-31.9c5.211-3.426,7.3.852,8.979,6.086a8,8,0,0,1-1.962,8.1l-.977.977s-.948,3.143,5.569,9.661S37.45,41.78,37.45,41.78l.977-.977a8,8,0,0,1,8.1-1.962C51.764,40.517,56.042,42.609,52.616,47.82Z"></path></g></svg></g></svg>