<svg height="100px" width="100px" fill="#e63a2e" xmlns="http://www.w3.org/2000/svg" data-name="Layer 1" viewBox="0 0 48 48" x="0px" y="0px"><title>7-danger</title><path d="M32.88,10.55A12.48,12.48,0,0,1,24,6.61a12.33,12.33,0,0,1-8.87,3.94A11.35,11.35,0,0,1,8.3,8.44C8,9.7,7.67,11,7.45,12.18c-.73,4.14-1.13,10.3,1.09,16.17C11,34.79,16.19,39.66,24,42.84c7.82-3.17,13-8.06,15.47-14.52C42.26,21,41,13.08,39.7,8.44A11.35,11.35,0,0,1,32.88,10.55Zm-5.35,1c-.36,5.81-.71,11.62-1.07,17.35H21.6c-.35-5.73-.71-11.54-1.06-17.35ZM24,37.82a3.58,3.58,0,1,1,3.58-3.58A3.58,3.58,0,0,1,24,37.82Z"/><path d="M45,11.1a42.15,42.15,0,0,0-2.55-8.91A1.89,1.89,0,0,0,40.78,1h0a1.84,1.84,0,0,0-1.7,1.21,6.68,6.68,0,0,1-6.17,3.4c-4.64,0-7.11-4.28-7.25-4.52a1.79,1.79,0,0,0-3.26,0c-.16.26-2.61,4.52-7.25,4.52A6.68,6.68,0,0,1,9,2.16,1.85,1.85,0,0,0,7.25,1,1.87,1.87,0,0,0,5.52,2.18,42.59,42.59,0,0,0,3,11.11,36.23,36.23,0,0,0,4.29,30.22c3.05,8.08,9.48,14,19.09,17.66a1.66,1.66,0,0,0,1.24,0c9.61-3.64,16-9.58,19.09-17.66A36.27,36.27,0,0,0,45,11.1ZM40.9,28.86c-2.64,7-8.24,12.18-16.63,15.51a.67.67,0,0,1-.28.06.71.71,0,0,1-.28-.06C15.33,41,9.74,35.83,7.1,28.89,4.76,22.7,5.18,16.24,6,11.92a41.6,41.6,0,0,1,1.2-5,.77.77,0,0,1,1.24-.35A9.76,9.76,0,0,0,15.12,9a11.12,11.12,0,0,0,8.3-4A.77.77,0,0,1,24,4.72h0a.73.73,0,0,1,.57.26,11.22,11.22,0,0,0,8.32,4,9.76,9.76,0,0,0,6.73-2.47.75.75,0,0,1,.72-.16.74.74,0,0,1,.52.51C42.24,11.5,44.08,20.47,40.9,28.86Z"/></svg>