<svg width="100" height="100" viewBox="0 0 100 100" fill="none" xmlns="http://www.w3.org/2000/svg">
<g clip-path="url(#clip0)">
<path d="M50.02 100.02C77.6343 100.02 100.02 77.6343 100.02 50.02C100.02 22.4058 77.6343 0.0200195 50.02 0.0200195C22.4058 0.0200195 0.0200195 22.4058 0.0200195 50.02C0.0200195 77.6343 22.4058 100.02 50.02 100.02Z" fill="#DEE4E7"/>
<path d="M47.24 29.8941V42.3044H52.76V29.8941L58.162 35.2954L62.0646 31.3927L50 19.3274L37.9353 31.3927L41.838 35.2954L47.24 29.8941ZM52.76 70.1059V57.6948H47.24V70.1052L41.838 64.7039L37.9353 68.6065L50 80.6725L62.0646 68.6072L58.162 64.7046L52.76 70.1059ZM42.3051 52.76V47.24H29.8941L35.2954 41.838L31.3927 37.9353L19.3274 50L31.3927 62.0646L35.2954 58.162L29.8941 52.76H42.3051ZM68.6072 37.9353L64.7046 41.838L70.1059 47.24H57.6948V52.76H70.1052L64.7039 58.162L68.6065 62.0646L80.6725 50L68.6072 37.9353Z" fill="#05224C"/>
</g>
<defs>
<clipPath id="clip0">
<rect width="100" height="100" fill="white"/>
</clipPath>
</defs>
</svg>
