<svg xmlns="http://www.w3.org/2000/svg" xmlns:xlink="http://www.w3.org/1999/xlink" width="100" height="100" viewBox="0 0 100 100"><circle stroke="none" fill="#faf3d6" r="48%" cx="50%" cy="50%"/><g transform="translate(50 50) scale(0.69 0.69) rotate(0) translate(-50 -50)" style="fill:#f8b116"><svg fill="#f8b116" xmlns="http://www.w3.org/2000/svg" xmlns:xlink="http://www.w3.org/1999/xlink" version="1.1" x="0px" y="0px" viewBox="0 0 401.08 401.08" style="enable-background:new 0 0 401.08 401.08;" xml:space="preserve"><g><path style="" d="M65.126,0h-3.43c-8.494,0-15.404,6.909-15.404,15.404v370.24c0,8.535,6.909,15.436,15.404,15.436   h3.43c8.511,0,15.42-6.909,15.42-15.436v-166.27h249.856c13.469,0,24.386-10.917,24.386-24.386V48.357   c0-13.469-10.917-24.386-24.386-24.386H80.538v-8.576C80.538,6.901,73.637,0,65.126,0z" fill="#f8b116"/></g></svg></g></svg>