<svg width="18" height="18" viewBox="0 0 18 18" fill="none" xmlns="http://www.w3.org/2000/svg">
<path d="M9 0C4.02943 0 0 4.02943 0 9C0 13.9706 4.02943 18 9 18C13.9706 18 18 13.9706 18 9C18 4.02943 13.9706 0 9 0ZM9 16.875C4.65075 16.875 1.125 13.3492 1.125 9C1.125 4.65075 4.65075 1.125 9 1.125C13.3492 1.125 16.875 4.65075 16.875 9C16.875 13.3492 13.3492 16.875 9 16.875Z" fill="#7B8AA1"/>
<path d="M6.1875 7.3125C6.80882 7.3125 7.3125 6.80882 7.3125 6.1875C7.3125 5.56618 6.80882 5.0625 6.1875 5.0625C5.56618 5.0625 5.0625 5.56618 5.0625 6.1875C5.0625 6.80882 5.56618 7.3125 6.1875 7.3125Z" fill="#7B8AA1"/>
<path d="M11.8125 7.3125C12.4338 7.3125 12.9375 6.80882 12.9375 6.1875C12.9375 5.56618 12.4338 5.0625 11.8125 5.0625C11.1912 5.0625 10.6875 5.56618 10.6875 6.1875C10.6875 6.80882 11.1912 7.3125 11.8125 7.3125Z" fill="#7B8AA1"/>
<path d="M12.9375 9C12.9375 11.1746 11.1746 12.9375 9 12.9375C6.82538 12.9375 5.0625 11.1746 5.0625 9H3.9375C3.9375 11.7959 6.20406 14.0625 9 14.0625C11.7959 14.0625 14.0625 11.7959 14.0625 9H12.9375Z" fill="#7B8AA1"/>
</svg>
