<svg xmlns="http://www.w3.org/2000/svg" xmlns:xlink="http://www.w3.org/1999/xlink" width="100" height="100" viewBox="0 0 100 100"><circle stroke="none" fill="#f1f2f2" r="48%" cx="50%" cy="50%"></circle><g transform="translate(50 50) scale(0.69 0.69) rotate(0) translate(-50 -50)" style="fill:#05224c"><svg fill="#05224c" xmlns="http://www.w3.org/2000/svg" xmlns:xlink="http://www.w3.org/1999/xlink" version="1.1" x="0px" y="0px" viewBox="0 0 100 100" enable-background="new 0 0 100 100" xml:space="preserve"><path d="M59.621,75.138H14.793c-3.809,0-6.896-3.087-6.896-6.896V33.759c0-3.809,3.088-6.896,6.896-6.896h44.828  c3.809,0,6.896,3.087,6.896,6.896v34.482C66.518,72.051,63.43,75.138,59.621,75.138z"></path><path d="M73.414,40.655v20.689l15.327,10.221c1.585,1.058,3.726,0.63,4.782-0.954c0.379-0.568,0.58-1.236,0.58-1.918V33.307  c0-1.904-1.543-3.448-3.447-3.449c-0.682,0-1.348,0.202-1.915,0.58L73.414,40.655z"></path></svg></g></svg>