<svg xmlns="http://www.w3.org/2000/svg" xmlns:xlink="http://www.w3.org/1999/xlink" width="100" height="100" viewBox="0 0 100 100"><circle stroke="none" fill="#f1f2f2" r="48%" cx="50%" cy="50%"></circle><g transform="translate(50 50) scale(0.69 0.69) rotate(0) translate(-50 -50)" style="fill:#05224c"><svg fill="#05224c" xmlns="http://www.w3.org/2000/svg" xmlns:xlink="http://www.w3.org/1999/xlink" version="1.1" x="0px" y="0px" viewBox="0 0 100 100" style="enable-background:new 0 0 100 100;" xml:space="preserve"><path d="M58.1,40.8c1.5-1.4,1.6-3.8,0.2-5.3c-1.4-1.5-3.8-1.6-5.3-0.2c-0.1,0.1-0.1,0.1-0.2,0.2L34.2,54.1c-4.4,4.4-4.4,11.5,0,15.9  s11.5,4.4,15.9,0l13.3-13.3l17.2-17.2c6.6-6.6,6.6-17.3,0-23.9s-17.3-6.6-23.9,0L39.6,32.9L21,51.4c-8.8,8.8-8.8,23,0,31.8  s23,8.8,31.8,0l23.9-23.9c1.5-1.4,1.6-3.8,0.2-5.3c-1.4-1.5-3.8-1.6-5.3-0.2c-0.1,0.1-0.1,0.1-0.2,0.2L47.5,77.9  c-6,5.8-15.5,5.6-21.2-0.4c-5.6-5.8-5.6-15,0-20.8l18.6-18.6l17.2-17.2c3.7-3.7,9.6-3.7,13.3,0c3.7,3.7,3.7,9.6,0,13.3l0,0  L58.1,51.4L44.9,64.7c-1.5,1.4-3.9,1.3-5.3-0.2c-1.3-1.4-1.3-3.7,0-5.1L58.1,40.8z"></path></svg></g></svg>