<svg width="25" height="25" viewBox="0 0 25 25" fill="none" xmlns="http://www.w3.org/2000/svg">
<path d="M9.7222 11.1112H1.38886C0.623201 11.1112 0 10.4879 0 9.7222V1.38886C0 0.623201 0.623201 0 1.38886 0H9.7222C10.4879 0 11.1111 0.623201 11.1111 1.38886V9.7222C11.1112 10.4879 10.4879 11.1112 9.7222 11.1112ZM1.38886 1.38886V9.7222H9.7222V1.38886H1.38886ZM1.38886 0.694432L1.38755 1.38886H1.38886V0.694432Z" fill="#050505"/>
<path d="M23.6111 11.1112H15.2778C14.5114 11.1112 13.8889 10.488 13.8889 9.72235V1.38886C13.8889 0.623201 14.5116 0 15.2778 0H23.6111C24.3775 0 25 0.623201 25 1.38886V9.7222C25 10.4879 24.3775 11.1112 23.6111 11.1112ZM15.2778 1.38886V9.7222H23.6111V1.38886H15.2778ZM15.2778 0.694432L15.2765 1.38886H15.2778V0.694432Z" fill="#050505"/>
<path d="M23.6111 25H15.2778C14.5114 25 13.8889 24.3774 13.8889 23.6111V15.2778C13.8889 14.5114 14.5116 13.8889 15.2778 13.8889H23.6111C24.3775 13.8889 25 14.5115 25 15.2778V23.6111C25 24.3775 24.3775 25 23.6111 25ZM15.2778 15.2778V23.6111H23.6111V15.2778H15.2778ZM15.2778 14.5833L15.2765 15.2778H15.2778V14.5833Z" fill="#050505"/>
<path d="M9.7222 25H1.38886C0.623201 25 0 24.3774 0 23.6111V15.2778C0 14.5114 0.623201 13.8889 1.38886 13.8889H9.7222C10.4879 13.8889 11.1111 14.5115 11.1111 15.2778V23.6111C11.1112 24.3775 10.4879 25 9.7222 25ZM1.38886 15.2778V23.6111H9.7222V15.2778H1.38886ZM1.38886 14.5833L1.38755 15.2778H1.38886V14.5833Z" fill="#050505"/>
</svg>
