<svg height='100px' width='100px'  fill="#05224c" xmlns="http://www.w3.org/2000/svg" data-name="Layer 1" viewBox="0 0 80 80" x="0px" y="0px"><title>Artboard 41@5x</title><path d="M66,18.55l-11-11v11H66S66,18.57,66,18.55Z"></path><path d="M17.44,66.31V11.65H14.75a1,1,0,0,0-1,1V72a1,1,0,0,0,1,1H60.6a1,1,0,0,0,1-1V69.31H20.44A3,3,0,0,1,17.44,66.31Z"></path><path d="M54,20.6a1,1,0,0,1-1-1V7H20.44a1,1,0,0,0-1,1V66.31a1,1,0,0,0,1,1H65.25a1,1,0,0,0,1-1V20.6Zm-27-.81H45.71a1,1,0,0,1,0,2H27a1,1,0,0,1,0-2ZM27,31.1H55.22a1,1,0,0,1,0,2H27a1,1,0,0,1,0-2Zm26.2,24.63H27a1,1,0,0,1,0-2h26.2a1,1,0,0,1,0,2ZM58.7,44.42H27a1,1,0,1,1,0-2H58.7a1,1,0,0,1,0,2Z"></path></svg>