<svg width="37" height="44" viewBox="0 0 37 44" fill="none" xmlns="http://www.w3.org/2000/svg">
<path d="M36.2294 24.2783L36.3494 24.6983C36.8063 26.2114 36.6477 27.8436 35.9081 29.2404C35.1685 30.6372 33.9076 31.6858 32.3994 32.1583L7.80937 39.7083C6.29104 40.1601 4.65565 39.9931 3.25998 39.2437C1.86431 38.4944 0.821619 37.2235 0.359366 35.7083L0.229367 35.2983C-0.0540239 34.2822 -0.0751656 33.2108 0.167918 32.1842C0.411002 31.1577 0.910374 30.2095 1.61937 29.4283C2.23857 28.6954 2.66451 27.8192 2.85839 26.8795C3.05226 25.9398 3.00791 24.9665 2.72937 24.0483L2.12937 22.0483C1.0623 18.7188 1.3368 15.1042 2.89445 11.974C4.45209 8.84377 7.16988 6.44504 10.4694 5.28833C12.1281 4.74654 13.878 4.54054 15.6172 4.68236C17.3564 4.82417 19.0499 5.31096 20.5989 6.11432C22.1479 6.91768 23.5214 8.02152 24.6392 9.36141C25.757 10.7013 26.5967 12.2504 27.1094 13.9183L27.8394 16.3183C28.1287 17.2413 28.6474 18.0759 29.347 18.744C30.0465 19.412 30.904 19.8918 31.8394 20.1383C32.8607 20.4026 33.7986 20.9207 34.5661 21.6445C35.3336 22.3683 35.9057 23.2743 36.2294 24.2783Z" fill="#0068FF"/>
<path d="M12.2994 10.3283C11.3011 10.6342 10.2346 10.6373 9.23458 10.3371C8.23458 10.0369 7.34602 9.44705 6.68122 8.64199C6.01642 7.83693 5.60522 6.85285 5.4996 5.81413C5.39398 4.77542 5.59869 3.72871 6.08783 2.80631C6.57698 1.88391 7.32862 1.12724 8.24773 0.631944C9.16684 0.136646 10.2122 -0.0750412 11.2516 0.0236405C12.291 0.122322 13.2778 0.526942 14.0872 1.18635C14.8967 1.84577 15.4925 2.73037 15.7994 3.72833C16.0033 4.3915 16.0745 5.08835 16.0089 5.77905C15.9433 6.46975 15.7422 7.14075 15.4172 7.7537C15.0921 8.36665 14.6495 8.90952 14.1145 9.3513C13.5795 9.79307 12.9627 10.1251 12.2994 10.3283V10.3283ZM9.85937 2.56833C9.32033 2.73413 8.84261 3.05611 8.48665 3.49354C8.1307 3.93096 7.91252 4.46416 7.85974 5.02563C7.80695 5.58711 7.92193 6.15163 8.19012 6.64773C8.45831 7.14383 8.86766 7.54921 9.36635 7.81256C9.86503 8.07592 10.4306 8.1854 10.9916 8.12715C11.5525 8.0689 12.0836 7.84555 12.5175 7.48536C12.9514 7.12516 13.2688 6.64432 13.4293 6.1037C13.5898 5.56308 13.5864 4.98699 13.4194 4.44833C13.3098 4.09064 13.1307 3.7581 12.8923 3.46984C12.6539 3.18157 12.3608 2.94324 12.03 2.76855C11.6992 2.59386 11.3372 2.48624 10.9647 2.45188C10.5922 2.41752 10.2165 2.4571 9.85937 2.56833V2.56833Z" fill="#0068FF"/>
<path d="M22.6594 37.3283C22.2794 40.1383 20.0894 41.7583 17.2594 42.6283C14.4294 43.4983 11.6894 43.3783 9.79936 41.2683L22.6594 37.3283Z" fill="#0068FF"/>
</svg>
