<svg width="60" height="60" viewBox="0 0 60 60" fill="none" xmlns="http://www.w3.org/2000/svg">
<path d="M60 0H0V60H60V0Z" fill="#F0F2F5"/>
<path d="M18.2973 29.0383C14.825 29.0383 12 31.8633 12 35.3357C12 37.0911 12.9599 39.2114 14.853 41.6376C16.2051 43.3704 17.5414 44.6235 17.5976 44.676L18.2973 45.3293L18.997 44.676C19.0533 44.6235 20.3896 43.3704 21.7417 41.6376C23.6347 39.2114 24.5946 37.0911 24.5946 35.3357C24.5946 31.8633 21.7696 29.0383 18.2973 29.0383V29.0383ZM18.2973 37.3729C17.1739 37.3729 16.26 36.459 16.26 35.3357C16.26 34.2123 17.1739 33.2984 18.2973 33.2984C19.4206 33.2984 20.3345 34.2123 20.3345 35.3357C20.3345 36.459 19.4206 37.3729 18.2973 37.3729Z" fill="#050505"/>
<path d="M40.7029 14C37.2306 14 34.4056 16.825 34.4056 20.2973C34.4056 22.0527 35.3655 24.173 37.2585 26.5992C38.6106 28.332 39.9469 29.5851 40.0031 29.6376L40.7028 30.2909L41.4025 29.6376C41.4587 29.5851 42.795 28.332 44.1471 26.5992C46.0402 24.173 47.0001 22.0527 47.0001 20.2973C47.0002 16.825 44.1753 14 40.7029 14ZM40.7029 22.3346C39.5795 22.3346 38.6656 21.4207 38.6656 20.2973C38.6656 19.174 39.5795 18.2601 40.7029 18.2601C41.8263 18.2601 42.7402 19.174 42.7402 20.2973C42.7402 21.4207 41.8263 22.3346 40.7029 22.3346Z" fill="#050505"/>
<path d="M36.9433 44.9516H22.3986V42.9011H36.9433C38.451 42.9011 39.6775 41.6745 39.6775 40.1668C39.6775 38.6592 38.451 37.4326 36.9433 37.4326H31.2089C28.5705 37.4326 26.424 35.2862 26.424 32.6478C26.424 30.0095 28.5705 27.863 31.2089 27.863H36.6014V29.9136H31.2089C29.7011 29.9136 28.4746 31.1401 28.4746 32.6478C28.4746 34.1555 29.7011 35.3821 31.2089 35.3821H36.9433C39.5816 35.3821 41.728 37.5285 41.728 40.1668C41.728 42.8052 39.5816 44.9516 36.9433 44.9516Z" fill="#050505"/>
</svg>
