<svg width="100" height="100" viewBox="0 0 100 100" fill="none" xmlns="http://www.w3.org/2000/svg">
<path d="M0.50002 0.98002C0.765116 0.98002 0.98002 0.765116 0.98002 0.50002C0.98002 0.234923 0.765116 0.0200195 0.50002 0.0200195C0.234923 0.0200195 0.0200195 0.234923 0.0200195 0.50002C0.0200195 0.765116 0.234923 0.98002 0.50002 0.98002Z" fill="white"/>
<path d="M37.7181 49.9309H38.8911C45.5841 49.9309 50.9661 44.4799 50.9661 37.8559V34.4749C50.9661 27.7819 45.5151 22.3999 38.8911 22.3999H37.7181C31.0251 22.3999 25.6431 27.8509 25.6431 34.4749V37.8559C25.6431 44.5489 31.0251 49.9309 37.7181 49.9309Z" fill="#05224C"/>
<path d="M65.87 48.0679H66.698C71.735 48.0679 75.875 43.9969 75.875 38.8909V37.0279C75.875 32.0599 71.735 27.9199 66.698 27.9199H65.87C60.833 27.9199 56.693 31.9909 56.693 37.0969V38.9599C56.762 43.9279 60.833 48.0679 65.87 48.0679Z" fill="#05224C"/>
<path d="M42.824 53.864H34.061C25.781 53.864 19.019 60.626 19.019 68.906V69.872C19.019 74.15 22.469 77.669 26.816 77.669H50.138C54.416 77.669 57.935 74.219 57.935 69.872V68.906C57.866 60.626 51.104 53.864 42.824 53.864Z" fill="#05224C"/>
<path d="M67.25 51.2419H64.904C62.144 51.2419 59.591 52.0699 57.383 53.5189C56.624 54.0019 56.486 55.1059 57.107 55.7959C60.281 59.2459 62.213 63.7999 62.213 68.8369C62.213 68.8369 62.213 68.9059 62.213 68.9749C62.213 69.5959 62.696 70.1479 63.386 70.1479H76.358C78.911 70.1479 80.981 68.0779 80.981 65.5249V64.9729C80.981 57.3829 74.84 51.2419 67.25 51.2419Z" fill="#05224C"/>
</svg>
