<svg width="100" height="100" viewBox="0 0 100 100" fill="none" xmlns="http://www.w3.org/2000/svg">
<path d="M50 100C77.6142 100 100 77.6142 100 50C100 22.3858 77.6142 0 50 0C22.3858 0 0 22.3858 0 50C0 77.6142 22.3858 100 50 100Z" fill="#F0F2F5"/>
<path d="M24.8425 41.25V70.7813C24.8425 72.5217 25.5339 74.1909 26.7646 75.4217C27.9953 76.6524 29.6645 77.3438 31.405 77.3438H68.5925C70.333 77.3438 72.0022 76.6524 73.2329 75.4217C74.4636 74.1909 75.155 72.5217 75.155 70.7813V41.25H24.8425Z" fill="#25D7F2"/>
<path d="M75.155 41.25V70.7813C75.155 72.5217 74.4636 74.1909 73.2329 75.4217C72.0022 76.6524 70.333 77.3438 68.5925 77.3438H49.9988V41.25H75.155Z" fill="url(#paint0_linear_8523_232)"/>
<path d="M60.9363 51.0938H39.0613C38.4811 51.0938 37.9247 51.3242 37.5145 51.7345C37.1042 52.1447 36.8738 52.7011 36.8738 53.2813V63.125C36.8738 63.7052 37.1042 64.2616 37.5145 64.6718C37.9247 65.082 38.4811 65.3125 39.0613 65.3125H60.9363C61.5164 65.3125 62.0728 65.082 62.4831 64.6718C62.8933 64.2616 63.1238 63.7052 63.1238 63.125V53.2813C63.1238 52.7011 62.8933 52.1447 62.4831 51.7345C62.0728 51.3242 61.5164 51.0938 60.9363 51.0938Z" fill="#0064F4"/>
<path d="M80.3285 41.25C80.1367 41.5822 79.8609 41.8582 79.5288 42.0501C79.1967 42.2421 78.8199 42.3434 78.4363 42.3438H21.5613C21.1766 42.3453 20.7983 42.2453 20.4645 42.054C20.1308 41.8626 19.8534 41.5866 19.6604 41.2538C19.4673 40.921 19.3655 40.5432 19.3651 40.1584C19.3647 39.7737 19.4658 39.3957 19.6582 39.0625L28.4082 23.75C28.6009 23.4162 28.8784 23.1392 29.2126 22.9472C29.5468 22.7551 29.9259 22.6547 30.3113 22.6563H69.6863C70.0718 22.6547 70.4508 22.7551 70.785 22.9472C71.1192 23.1392 71.3967 23.4162 71.5894 23.75L80.3394 39.0625C80.5298 39.396 80.629 39.7737 80.627 40.1577C80.6251 40.5417 80.5222 40.9184 80.3285 41.25V41.25Z" fill="#0064F4"/>
<path d="M80.3285 41.25C80.1367 41.5822 79.8609 41.8582 79.5288 42.0501C79.1966 42.2421 78.8199 42.3434 78.4363 42.3438H49.9988V22.6563H69.6863C70.0717 22.6547 70.4508 22.7551 70.785 22.9472C71.1192 23.1392 71.3967 23.4162 71.5894 23.75L80.3394 39.0625C80.5297 39.396 80.6289 39.7737 80.627 40.1577C80.6251 40.5417 80.5221 40.9184 80.3285 41.25V41.25Z" fill="url(#paint1_linear_8523_232)"/>
<path d="M63.1238 53.2813V63.125C63.1238 63.7052 62.8933 64.2616 62.4831 64.6718C62.0728 65.082 61.5164 65.3125 60.9363 65.3125H49.9988V51.0938H60.9363C61.5164 51.0938 62.0728 51.3242 62.4831 51.7345C62.8933 52.1447 63.1238 52.7011 63.1238 53.2813Z" fill="url(#paint2_linear_8523_232)"/>
<defs>
<linearGradient id="paint0_linear_8523_232" x1="75.5597" y1="59.2969" x2="49.9878" y2="59.2969" gradientUnits="userSpaceOnUse">
<stop stop-color="#25D7F2"/>
<stop offset="1" stop-color="#25B8F2"/>
</linearGradient>
<linearGradient id="paint1_linear_8523_232" x1="80.8972" y1="32.5" x2="50.1628" y2="32.5" gradientUnits="userSpaceOnUse">
<stop stop-color="#0064F4"/>
<stop offset="0.81" stop-color="#2B39C5"/>
</linearGradient>
<linearGradient id="paint2_linear_8523_232" x1="630.123" y1="612.735" x2="469.998" y2="612.735" gradientUnits="userSpaceOnUse">
<stop stop-color="#0064F4"/>
<stop offset="0.81" stop-color="#2B39C5"/>
</linearGradient>
</defs>
</svg>
