<?xml version="1.0"?>
<svg xmlns="http://www.w3.org/2000/svg" xmlns:xlink="http://www.w3.org/1999/xlink" xmlns:svgjs="http://svgjs.com/svgjs" version="1.1" width="512" height="512" x="0" y="0" viewBox="0 0 512 512" style="enable-background:new 0 0 512 512" xml:space="preserve" class=""><circle r="256" cx="256" cy="256" fill="#f0f2f5" shape="circle"/><g transform="matrix(0.5499999999999999,0,0,0.5499999999999999,115.20000000000002,115.20000000000002)">
<g xmlns="http://www.w3.org/2000/svg">
	<g>
		<path d="M149.993,171.204L64.671,85.882C24.584,130.944,0,191.084,0,256s24.584,125.056,64.671,170.118l85.322-85.322    C131.517,317.699,120,287.813,120,256S131.517,194.301,149.993,171.204z" fill="#050505" data-original="#000000" class=""/>
	</g>
</g>
<g xmlns="http://www.w3.org/2000/svg">
	<g>
		<path d="M447.329,85.882l-85.322,85.322C380.483,194.301,392,224.187,392,256s-11.517,61.699-29.993,84.796l85.322,85.322    C487.416,381.056,512,320.916,512,256S487.416,130.944,447.329,85.882z" fill="#050505" data-original="#000000" class=""/>
	</g>
</g>
<g xmlns="http://www.w3.org/2000/svg">
	<g>
		<path d="M340.796,362.007C317.699,380.483,287.813,392,256,392s-61.699-11.517-84.796-29.993l-85.322,85.322    C130.944,487.416,191.084,512,256,512s125.056-24.584,170.118-64.671L340.796,362.007z" fill="#050505" data-original="#000000" class=""/>
	</g>
</g>
<g xmlns="http://www.w3.org/2000/svg">
	<g>
		<path d="M256,0C191.084,0,130.944,24.584,85.882,64.671l85.322,85.322C194.301,131.517,224.187,120,256,120    s61.699,11.517,84.796,29.993l85.322-85.322C381.056,24.584,320.916,0,256,0z" fill="#050505" data-original="#000000" class=""/>
	</g>
</g>
<g xmlns="http://www.w3.org/2000/svg">
	<g>
		<path d="M422,0c-9.76,0-19.167,2.062-28.231,5.078c13.757,7.559,26.702,16.366,38.965,26.008    c24.474,4.451,43.729,23.707,48.181,48.181c9.642,12.263,18.45,25.208,26.008,38.965C509.938,109.167,512,99.76,512,90    C512,40.371,471.629,0,422,0z" fill="#050505" data-original="#000000" class=""/>
	</g>
</g>
<g xmlns="http://www.w3.org/2000/svg">
	<g>
		<path d="M506.922,393.769c-7.558,13.757-16.365,26.702-26.008,38.965c-4.451,24.474-23.707,43.729-48.181,48.181    c-12.263,9.642-25.208,18.45-38.965,26.008C402.833,509.938,412.24,512,422,512c49.629,0,90-40.371,90-90    C512,412.24,509.938,402.833,506.922,393.769z" fill="#050505" data-original="#000000" class=""/>
	</g>
</g>
<g xmlns="http://www.w3.org/2000/svg">
	<g>
		<path d="M90,0C40.371,0,0,40.371,0,90c0,9.76,2.062,19.167,5.078,28.231c7.558-13.757,16.365-26.702,26.008-38.965    c4.451-24.474,23.707-43.729,48.181-48.181c12.263-9.642,25.208-18.45,38.965-26.008C109.167,2.062,99.76,0,90,0z" fill="#050505" data-original="#000000" class=""/>
	</g>
</g>
<g xmlns="http://www.w3.org/2000/svg">
	<g>
		<path d="M79.266,480.914c-24.474-4.451-43.729-23.707-48.181-48.181c-9.642-12.263-18.45-25.208-26.008-38.965    C2.062,402.833,0,412.24,0,422c0,49.629,40.371,90,90,90c9.76,0,19.167-2.062,28.231-5.078    C104.474,499.363,91.529,490.556,79.266,480.914z" fill="#050505" data-original="#000000" class=""/>
	</g>
</g>
<g xmlns="http://www.w3.org/2000/svg">
</g>
<g xmlns="http://www.w3.org/2000/svg">
</g>
<g xmlns="http://www.w3.org/2000/svg">
</g>
<g xmlns="http://www.w3.org/2000/svg">
</g>
<g xmlns="http://www.w3.org/2000/svg">
</g>
<g xmlns="http://www.w3.org/2000/svg">
</g>
<g xmlns="http://www.w3.org/2000/svg">
</g>
<g xmlns="http://www.w3.org/2000/svg">
</g>
<g xmlns="http://www.w3.org/2000/svg">
</g>
<g xmlns="http://www.w3.org/2000/svg">
</g>
<g xmlns="http://www.w3.org/2000/svg">
</g>
<g xmlns="http://www.w3.org/2000/svg">
</g>
<g xmlns="http://www.w3.org/2000/svg">
</g>
<g xmlns="http://www.w3.org/2000/svg">
</g>
<g xmlns="http://www.w3.org/2000/svg">
</g>
</g></svg>
