<svg xmlns="http://www.w3.org/2000/svg" xmlns:xlink="http://www.w3.org/1999/xlink" width="100" height="100" viewBox="0 0 100 100"><circle stroke="none" fill="#f1f2f2" r="48%" cx="50%" cy="50%"></circle><g transform="translate(50 50) scale(0.69 0.69) rotate(0) translate(-50 -50)" style="fill:#05224c"><svg fill="#05224c" xmlns="http://www.w3.org/2000/svg" xmlns:xlink="http://www.w3.org/1999/xlink" xml:space="preserve" version="1.1" style="shape-rendering:geometricPrecision;text-rendering:geometricPrecision;image-rendering:optimizeQuality;" viewBox="0 0 365 325" x="0px" y="0px" fill-rule="evenodd" clip-rule="evenodd"><defs><style type="text/css">
   
    .fil0 {fill:#05224c}
   
  </style></defs><g><path class="fil0" d="M13 194l29 0 0 118c0,7 6,13 13,13l87 0c1,0 3,0 4,-1l0 -109 72 0 0 110c1,0 2,0 2,0l83 0c7,0 13,-6 13,-13l0 -118 36 0c11,0 17,-14 9,-22l-166 -168c-5,-5 -13,-5 -18,0l-173 168c-8,7 -3,22 9,22z"></path></g></svg></g></svg>