<svg width="27" height="27" viewBox="0 0 27 27" fill="none" xmlns="http://www.w3.org/2000/svg">
<path d="M25.1889 9.33973L15.0639 1.38511C14.6135 1.04505 14.0644 0.861084 13.5 0.861084C12.9356 0.861084 12.3866 1.04505 11.9361 1.38511L1.81113 9.33973H1.81029C1.50848 9.57628 1.26458 9.87852 1.0971 10.2235C0.929624 10.5684 0.842986 10.947 0.843771 11.3305V23.625C0.844508 24.2961 1.11143 24.9395 1.58597 25.4141C2.06051 25.8886 2.70392 26.1555 3.37502 26.1563H8.43752C9.10862 26.1555 9.75203 25.8886 10.2266 25.4141C10.7011 24.9395 10.968 24.2961 10.9688 23.625V19.4063C10.9689 19.1825 11.0578 18.968 11.216 18.8098C11.3743 18.6516 11.5888 18.5626 11.8125 18.5625H15.1875C15.4113 18.5626 15.6258 18.6516 15.784 18.8098C15.9422 18.968 16.0311 19.1825 16.0313 19.4063V23.625C16.032 24.2961 16.2989 24.9395 16.7735 25.4141C17.248 25.8886 17.8914 26.1555 18.5625 26.1563H23.625C24.2961 26.1555 24.9395 25.8886 25.4141 25.4141C25.8886 24.9395 26.1555 24.2961 26.1563 23.625V11.3305C26.1571 10.9469 26.0704 10.5682 25.9028 10.2232C25.7351 9.87826 25.491 9.57609 25.1889 9.33973V9.33973Z" fill="url(#paint0_linear_6180_203)"/>
<defs>
<linearGradient id="paint0_linear_6180_203" x1="14.0274" y1="0.843755" x2="14.0801" y2="-0.210933" gradientUnits="userSpaceOnUse">
<stop offset="0.0260417" stop-color="#0068FF"/>
<stop offset="1" stop-color="#0068FF" stop-opacity="0"/>
</linearGradient>
</defs>
</svg>
