<svg width="23" height="23" viewBox="0 0 23 23" fill="none" xmlns="http://www.w3.org/2000/svg">
<path d="M21.6375 7.53942L12.6375 0.466922C12.2384 0.163987 11.7511 0 11.25 0C10.7489 0 10.2616 0.163987 9.86251 0.466922L0.862514 7.53942C0.592943 7.74883 0.375007 8.01729 0.22548 8.32415C0.0759522 8.631 -0.00118181 8.96808 1.36872e-05 9.30942V20.2369C0.0017549 20.8331 0.239367 21.4044 0.660947 21.826C1.08253 22.2476 1.65381 22.4852 2.25001 22.4869H6.75001C7.34622 22.4852 7.9175 22.2476 8.33908 21.826C8.76066 21.4044 8.99827 20.8331 9.00001 20.2369V16.4869C9.00059 16.2882 9.07979 16.0978 9.22032 15.9572C9.36085 15.8167 9.55128 15.7375 9.75001 15.7369H12.75C12.9488 15.7375 13.1392 15.8167 13.2797 15.9572C13.4202 16.0978 13.4994 16.2882 13.5 16.4869V20.2369C13.5018 20.8331 13.7394 21.4044 14.1609 21.826C14.5825 22.2476 15.1538 22.4852 15.75 22.4869H20.25C20.8462 22.4852 21.4175 22.2476 21.8391 21.826C22.2607 21.4044 22.4983 20.8331 22.5 20.2369V9.30942C22.5012 8.96808 22.4241 8.631 22.2745 8.32415C22.125 8.01729 21.9071 7.74883 21.6375 7.53942V7.53942ZM21 20.2369C20.9994 20.4357 20.9202 20.6261 20.7797 20.7666C20.6392 20.9071 20.4488 20.9864 20.25 20.9869H15.75C15.5513 20.9864 15.3608 20.9071 15.2203 20.7666C15.0798 20.6261 15.0006 20.4357 15 20.2369V16.4869C14.9983 15.8907 14.7607 15.3194 14.3391 14.8979C13.9175 14.4763 13.3462 14.2387 12.75 14.2369H9.75001C9.15381 14.2387 8.58253 14.4763 8.16095 14.8979C7.73937 15.3194 7.50175 15.8907 7.50001 16.4869V20.2369C7.49944 20.4357 7.42024 20.6261 7.27971 20.7666C7.13918 20.9071 6.94875 20.9864 6.75001 20.9869H2.25001C2.05128 20.9864 1.86085 20.9071 1.72032 20.7666C1.57979 20.6261 1.50059 20.4357 1.50001 20.2369V9.30942C1.49968 9.19555 1.52515 9.08308 1.57451 8.98046C1.62387 8.87785 1.69584 8.78774 1.78501 8.71692L10.785 1.64442C10.9185 1.54224 11.0819 1.48688 11.25 1.48688C11.4181 1.48688 11.5815 1.54224 11.715 1.64442L20.715 8.71692C20.8042 8.78774 20.8762 8.87785 20.9255 8.98046C20.9749 9.08308 21.0003 9.19555 21 9.30942V20.2369Z" fill="#050505"/>
</svg>
