<svg width="60" height="60" viewBox="0 0 60 60" fill="none" xmlns="http://www.w3.org/2000/svg">
<path d="M57.6562 0H2.34375C1.04933 0 0 1.04933 0 2.34375V57.6562C0 58.9507 1.04933 60 2.34375 60H57.6562C58.9507 60 60 58.9507 60 57.6562V2.34375C60 1.04933 58.9507 0 57.6562 0Z" fill="#EFF6FF"/>
<path d="M15 38.4727V40.3555C15 40.8409 15.3935 41.2344 15.8789 41.2344C16.3643 41.2344 16.7578 40.8409 16.7578 40.3555V39.3516H43.2422V40.3555C43.2422 40.8409 43.6357 41.2344 44.1211 41.2344C44.6065 41.2344 45 40.8409 45 40.3555V38.4727V35.5859H15V38.4727Z" fill="#050505"/>
<path d="M41.7676 28.1797H18.2324C16.4501 28.1797 15 29.6298 15 31.4121V33.8281H45V31.4121C45 29.6298 43.5499 28.1797 41.7676 28.1797V28.1797Z" fill="#050505"/>
<path d="M26.7052 24.2891C25.892 24.2891 25.2305 24.9505 25.2305 25.7636V26.4218H34.7695V25.7636C34.7695 24.9505 34.1081 24.2891 33.2949 24.2891H26.7052Z" fill="#050505"/>
<path d="M23.4727 25.7637C23.4727 23.9813 24.9228 22.5313 26.7052 22.5313H33.2951C35.0774 22.5313 36.5274 23.9813 36.5274 25.7637V26.4218H41.2345V21.998C41.2345 20.2156 39.7844 18.7656 38.002 18.7656H21.9981C20.2158 18.7656 18.7657 20.2156 18.7657 21.998V26.4218H23.4727V25.7637Z" fill="#050505"/>
</svg>
