<svg width="60" height="60" viewBox="0 0 60 60" fill="none" xmlns="http://www.w3.org/2000/svg">
<path d="M60 0H0V60H60V0Z" fill="#F0F2F5"/>
<path d="M16.6409 22.5155H23.2039C23.3886 22.5155 23.5714 22.5519 23.7421 22.6226C23.9127 22.6932 24.0677 22.7968 24.1983 22.9274C24.3289 23.058 24.4325 23.213 24.5032 23.3837C24.5738 23.5543 24.6102 23.7371 24.6102 23.9218V29.0783C24.6102 29.4513 24.462 29.809 24.1983 30.0728C23.9345 30.3365 23.5768 30.4847 23.2038 30.4847H16.6408C16.2678 30.4847 15.9101 30.3365 15.6464 30.0728C15.3827 29.809 15.2345 29.4513 15.2345 29.0784V23.9219C15.2345 23.7372 15.2709 23.5543 15.3415 23.3837C15.4122 23.213 15.5158 23.058 15.6464 22.9274C15.777 22.7968 15.932 22.6932 16.1027 22.6226C16.2733 22.5519 16.4562 22.5155 16.6409 22.5155V22.5155Z" fill="#050505"/>
<path d="M30.2355 20.6401C31.5299 20.6401 32.5792 19.5908 32.5792 18.2964C32.5792 17.002 31.5299 15.9526 30.2355 15.9526C28.9411 15.9526 27.8917 17.002 27.8917 18.2964C27.8917 19.5908 28.9411 20.6401 30.2355 20.6401Z" fill="#050505"/>
<path d="M20.3921 31.8209C20.3922 32.5487 20.6784 33.2474 21.189 33.7661H28.8094V31.8184C28.8094 31.6946 28.7602 31.5759 28.6727 31.4884C28.5852 31.4009 28.4664 31.3517 28.3427 31.3517H20.8588C20.7348 31.3523 20.616 31.402 20.5285 31.4899C20.4411 31.5779 20.392 31.6969 20.3921 31.8209V31.8209Z" fill="#050505"/>
<path d="M43.7047 39.0895C43.4761 38.2444 42.9635 37.5038 42.2531 36.9921C41.5427 36.4805 40.6778 36.229 39.8038 36.28C39.8773 36.0061 39.9151 35.724 39.9164 35.4405C39.9076 34.991 39.7898 34.5504 39.5732 34.1565C39.3565 33.7626 39.0475 33.4272 38.6726 33.179C37.6659 32.5114 36.9133 30.8132 36.7995 29.0269H37.6973C38.0684 29.027 38.4245 28.88 38.6874 28.6179C38.9503 28.3558 39.0985 28.0002 39.0995 27.629V26.6981C39.0985 26.327 38.9503 25.9714 38.6874 25.7094C38.4245 25.4473 38.0684 25.3003 37.6973 25.3005H34.4913C31.7808 24.5199 30.9653 23.6209 30.478 23.0823C30.4679 23.0713 30.4581 23.0603 30.4485 23.0496C30.4971 22.6902 30.4321 22.3246 30.2625 22.004C30.0929 21.6835 29.8272 21.4241 29.5027 21.2621C29.271 21.1515 29.0174 21.0947 28.7607 21.0957C28.5039 21.0968 28.2508 21.1557 28.02 21.2682C27.7893 21.3807 27.5869 21.5438 27.4279 21.7454C27.269 21.947 27.1576 22.1818 27.102 22.4325L25.757 28.8591C25.7173 29.05 25.7181 29.2471 25.7591 29.4377C25.8002 29.6283 25.8806 29.8082 25.9953 29.9658C26.11 30.1235 26.2564 30.2554 26.4251 30.3531C26.5938 30.4509 26.7811 30.5122 26.9749 30.5332L29.2795 30.7882C29.3983 30.8008 29.5077 30.8586 29.5851 30.9495C29.6626 31.0405 29.7021 31.1577 29.6956 31.2769L29.3324 37.4203C28.9555 37.0909 28.6875 36.6547 28.5639 36.1696C28.4403 35.6846 28.4668 35.1734 28.6401 34.7037H21.4751C20.7193 35.9556 19.5095 38.3031 19.999 39.83C20.0903 40.1174 20.2488 40.3788 20.4615 40.5925C20.6742 40.8062 20.9349 40.9661 21.2218 41.0587C21.4325 41.1232 21.6535 41.1472 21.8732 41.1294C21.9264 41.8876 22.2651 42.5974 22.821 43.1157C23.377 43.634 24.1087 43.9222 24.8688 43.9222C25.6288 43.9222 26.3606 43.634 26.9165 43.1157C27.4724 42.5974 27.8111 41.8875 27.8643 41.1294L35.8986 41.1292C35.9767 41.1249 36.0531 41.1052 36.1235 41.0712C36.1939 41.0371 36.2569 40.9895 36.3088 40.931C36.3657 41.2078 36.4582 41.4762 36.5839 41.7294C36.6191 41.8031 36.673 41.8663 36.7403 41.9127C36.8076 41.959 36.8859 41.9869 36.9673 41.9935C37.0488 42.0001 37.1305 41.9852 37.2044 41.9503C37.2782 41.9154 37.3417 41.8617 37.3883 41.7946C37.4427 41.7163 37.502 41.6398 37.5643 41.5645C37.6266 41.9692 37.7712 42.357 37.989 42.7037C38.2069 43.0505 38.4934 43.349 38.831 43.5809C39.1686 43.8128 39.55 43.973 39.9519 44.0519C40.3538 44.1308 40.7675 44.1265 41.1677 44.0394C41.5679 43.9523 41.9459 43.7842 42.2787 43.5454C42.6114 43.3067 42.8918 43.0023 43.1024 42.6511C43.3131 42.2999 43.4496 41.9093 43.5036 41.5034C43.5576 41.0974 43.5279 40.6847 43.4164 40.2906C43.5372 40.2775 43.6481 40.2172 43.7248 40.1229C43.8015 40.0285 43.838 39.9078 43.8263 39.7867C43.8085 39.5509 43.7678 39.3174 43.7047 39.0895V39.0895ZM24.8686 42.9888C24.3565 42.9888 23.8627 42.7985 23.4829 42.4549C23.1031 42.1114 22.8645 41.639 22.8134 41.1294L26.924 41.1294C26.8729 41.639 26.6342 42.1114 26.2544 42.4549C25.8746 42.7985 25.3808 42.9888 24.8686 42.9888V42.9888ZM33.9563 37.8684H32.1353L32.9405 30.2561C32.9727 29.9477 32.9015 29.6375 32.7381 29.3741C32.5746 29.1107 32.3283 28.9091 32.0378 28.801L29.7407 27.9438C29.6352 27.9046 29.5474 27.8284 29.4938 27.7294C29.4401 27.6304 29.4243 27.5153 29.4491 27.4054L29.7986 25.8984C30.9936 26.8512 32.4363 27.442 33.9563 27.601V37.8684ZM40.7936 43.1272C40.4826 43.1681 40.1664 43.1378 39.8688 43.0385C39.5713 42.9391 39.3003 42.7734 39.0762 42.5539C38.8522 42.3344 38.681 42.0668 38.5756 41.7713C38.4702 41.4759 38.4334 41.1604 38.468 40.8486L38.6108 40.6709C39.6842 40.0054 40.9632 39.7538 42.2087 39.9631L42.3194 40.0486C42.4896 40.3431 42.5844 40.675 42.5953 41.015C42.6062 41.3549 42.5328 41.6922 42.3818 41.997C42.2308 42.3017 42.0067 42.5643 41.7296 42.7615C41.4525 42.9587 41.131 43.0844 40.7936 43.1272V43.1272Z" fill="#050505"/>
</svg>
