<?xml version="1.0"?>
<svg xmlns="http://www.w3.org/2000/svg" xmlns:xlink="http://www.w3.org/1999/xlink" xmlns:svgjs="http://svgjs.com/svgjs" version="1.1" width="512" height="512" x="0" y="0" viewBox="0 0 512 512" style="enable-background:new 0 0 512 512" xml:space="preserve" class=""><circle r="256" cx="256" cy="256" fill="#f0f2f5" shape="circle"/><g transform="matrix(0.6499999999999999,0,0,0.6499999999999999,89.26505374908447,86.79999999999998)"><path xmlns="http://www.w3.org/2000/svg" d="m447.755 421.946-14.995-149.946h-16.121l13.56 176.28z" fill="#050505" data-original="#000000" class=""/><path xmlns="http://www.w3.org/2000/svg" d="m477.676 442.091-13.084-170.091h-15.752l14.922 149.221z" fill="#050505" data-original="#000000" class=""/><path xmlns="http://www.w3.org/2000/svg" d="m438.948 464h34.104l-17.052-25.578z" fill="#050505" data-original="#000000" class=""/><path xmlns="http://www.w3.org/2000/svg" d="m310.105 256-5.648-96h-16.047l4.8 96z" fill="#050505" data-original="#000000" class=""/><path xmlns="http://www.w3.org/2000/svg" d="m224.639 464h190.722l-14.769-192h-161.184zm47.361-152a8 8 0 0 1 16 0v64a24.027 24.027 0 0 0 24 24h16a24.027 24.027 0 0 0 24-24v-64a8 8 0 0 1 16 0v64a40.045 40.045 0 0 1 -40 40h-16a40.045 40.045 0 0 1 -40-40z" fill="#050505" data-original="#000000" class=""/><path xmlns="http://www.w3.org/2000/svg" d="m341.19 256-4.8-96h-15.905l5.648 96z" fill="#050505" data-original="#000000" class=""/><path xmlns="http://www.w3.org/2000/svg" d="m88 288h32v-51.719l-16-10.666-16 10.666z" fill="#050505" data-original="#000000" class=""/><path xmlns="http://www.w3.org/2000/svg" d="m208.592 464 15.431-200.614a8 8 0 0 1 7.977-7.386h45.19l-4.8-96h-32.39v24a8 8 0 0 1 -16 0v-24h-112v51.719l20.438 13.625a8 8 0 0 1 3.562 6.656v64a8 8 0 0 1 -8 8h-48a8 8 0 0 1 -8-8v-64a8 8 0 0 1 3.562-6.656l20.438-13.625v-51.719h-48.39l-15.2 304z" fill="#050505" data-original="#000000" class=""/><path xmlns="http://www.w3.org/2000/svg" d="m288 104v40h-16v-40a56.062 56.062 0 0 0 -56-56c-.91 0-1.82.02-2.72.06a56.039 56.039 0 0 0 -53.28 55.94v40h-16v-40a72 72 0 0 1 144 0z" fill="#050505" data-original="#000000" class=""/><path xmlns="http://www.w3.org/2000/svg" d="m240 104v40h-16v-40a56.039 56.039 0 0 0 -53.28-55.94c-.9-.04-1.81-.06-2.72-.06a56.062 56.062 0 0 0 -56 56v40h-16v-40a72 72 0 0 1 144 0z" fill="#050505" data-original="#000000" class=""/></g></svg>
