<svg width="28" height="28" viewBox="0 0 28 28" fill="none" xmlns="http://www.w3.org/2000/svg">
<path d="M14 28C21.7196 28 28 21.7196 28 14C28 6.28035 21.7196 0 14 0C6.28035 0 0 6.28035 0 14C0 21.7196 6.28035 28 14 28ZM14 1.24841C21.0313 1.24841 26.7516 6.96865 26.7516 14C26.7516 21.0313 21.0313 26.7516 14 26.7516C6.96865 26.7516 1.24841 21.0313 1.24841 14C1.24841 6.96865 6.96865 1.24841 14 1.24841Z" fill="#0068FF"/>
<path d="M10.5491 12.742C11.9769 12.742 13.1341 11.5845 13.1341 10.1571C13.1344 8.72927 11.9769 7.57178 10.5491 7.57178C9.12133 7.57178 7.96418 8.72927 7.96418 10.1567C7.96558 11.5838 9.12203 12.7403 10.5491 12.742ZM10.5491 8.82018C11.2872 8.82018 11.8857 9.41861 11.8857 10.1567C11.886 10.8952 11.2876 11.4936 10.5491 11.4936C9.81102 11.4936 9.21259 10.8952 9.21259 10.1567C9.21329 9.41896 9.81137 8.82123 10.5491 8.82018Z" fill="#0068FF"/>
<path d="M14.7092 18.0003C14.7092 19.4281 15.8667 20.5853 17.2941 20.5853C18.7219 20.5853 19.8794 19.4281 19.8794 18.0003C19.8794 16.5725 18.7219 15.415 17.2941 15.415C15.867 15.4168 14.7109 16.5732 14.7092 18.0003ZM18.631 18.0003C18.631 18.7384 18.0326 19.3369 17.2941 19.3369C16.556 19.3369 15.9576 18.7384 15.9576 18.0003C15.9576 17.2622 16.556 16.6638 17.2941 16.6634C18.0322 16.6645 18.63 17.2622 18.631 18.0003Z" fill="#0068FF"/>
<path d="M9.24708 21.2877C9.53584 21.4761 9.92283 21.3946 10.1109 21.1058L18.9348 7.57607C19.0571 7.38901 19.0703 7.15111 18.9696 6.95186C18.8686 6.75262 18.669 6.62235 18.4461 6.6105C18.2232 6.59866 18.0107 6.70664 17.8891 6.89404L9.06525 20.4238C8.8768 20.7129 8.95831 21.0996 9.24708 21.2877Z" fill="#0068FF"/>
</svg>
