<svg width="100" height="100" viewBox="0 0 100 100" fill="none" xmlns="http://www.w3.org/2000/svg">
<g clip-path="url(#clip0)">
<path d="M50.02 100.02C77.6343 100.02 100.02 77.6342 100.02 50.02C100.02 22.4057 77.6343 0.019989 50.02 0.019989C22.4058 0.019989 0.0200195 22.4057 0.0200195 50.02C0.0200195 77.6342 22.4058 100.02 50.02 100.02Z" fill="#DEE4E7"/>
<path d="M45.4424 43.3803C45.6476 43.1814 45.9221 43.0702 46.2079 43.0702C46.4936 43.0702 46.7682 43.1814 46.9734 43.3803L53.8087 50.2372L67.4577 36.5881C67.6629 36.3892 67.9374 36.278 68.2232 36.278C68.509 36.278 68.7835 36.3892 68.9887 36.5881L79.7699 47.3694V21.4944C79.7785 20.901 79.6687 20.3118 79.4469 19.7614C79.2251 19.211 78.8958 18.7103 78.4781 18.2886C78.0605 17.867 77.563 17.5329 77.0147 17.3058C76.4664 17.0788 75.8784 16.9633 75.2849 16.9662H38.9305C38.2649 16.968 37.6081 17.118 37.0076 17.4052C36.4072 17.6923 35.8782 18.1095 35.459 18.6266C34.8065 19.4138 34.455 20.4073 34.4671 21.4297V54.3125L42.0571 46.7225L45.4424 43.3803ZM45.9168 32.1678C46.5565 32.1678 47.1818 32.3575 47.7137 32.7129C48.2456 33.0683 48.6602 33.5734 48.905 34.1644C49.1498 34.7554 49.2138 35.4058 49.089 36.0332C48.9642 36.6606 48.6562 37.2369 48.2038 37.6892C47.7515 38.1416 47.1752 38.4496 46.5478 38.5744C45.9204 38.6992 45.2701 38.6352 44.679 38.3904C44.088 38.1456 43.5829 37.731 43.2275 37.1991C42.8721 36.6672 42.6824 36.0419 42.6824 35.4022C42.6824 34.5444 43.0232 33.7217 43.6297 33.1151C44.2363 32.5086 45.059 32.1678 45.9168 32.1678V32.1678Z" fill="#05224C"/>
<path d="M78.7133 49.3746L68.2339 38.8953L54.5849 52.5228C54.4846 52.6238 54.3654 52.704 54.234 52.7588C54.1026 52.8135 53.9617 52.8417 53.8194 52.8417C53.6771 52.8417 53.5361 52.8135 53.4048 52.7588C53.2734 52.704 53.1541 52.6238 53.0539 52.5228L46.197 45.6875L42.5314 49.2237L35.2217 56.6412C35.1255 56.7448 35.0086 56.8271 34.8786 56.8828C34.7486 56.9385 34.6084 56.9664 34.467 56.9646V75.2281C34.467 76.4119 34.9373 77.5472 35.7744 78.3842C36.6114 79.2213 37.7467 79.6915 38.9305 79.6915H75.2848C76.4686 79.6915 77.6039 79.2213 78.441 78.3842C79.278 77.5472 79.7483 76.4119 79.7483 75.2281V49.6118C79.571 49.6744 79.3796 49.6854 79.1964 49.6434C79.0131 49.6014 78.8456 49.5082 78.7133 49.3746V49.3746Z" fill="#05224C"/>
<path d="M32.3108 75.2281V21.3219C32.3137 20.5879 32.4376 19.8594 32.6773 19.1656L21.7236 21.71C20.5725 21.9724 19.5723 22.6802 18.9419 23.6784C18.3114 24.6765 18.1021 25.8838 18.3598 27.036L30.1114 79.5406C30.3739 80.6974 31.084 81.703 32.0862 82.3374C33.0883 82.9719 34.301 83.1835 35.4589 82.926L40.2673 81.8478H38.9304C37.1765 81.8421 35.4961 81.1429 34.2559 79.9027C33.0157 78.6625 32.3164 76.982 32.3108 75.2281V75.2281Z" fill="#05224C"/>
<path d="M79.7483 48.8141V48.8787L80.1795 49.2884L79.7483 48.8141Z" fill="#05224C"/>
</g>
<defs>
<clipPath id="clip0">
<rect width="100" height="100" fill="white"/>
</clipPath>
</defs>
</svg>
