<svg width="23" height="23" viewBox="0 0 23 23" fill="none" xmlns="http://www.w3.org/2000/svg">
<path d="M11.5 23C17.8513 23 23 17.8513 23 11.5C23 5.14873 17.8513 0 11.5 0C5.14873 0 0 5.14873 0 11.5C0 17.8513 5.14873 23 11.5 23Z" fill="#EEEEEE" fill-opacity="0.933333"/>
<path d="M16.7916 11H7.20834C7.09328 11 7 11.1791 7 11.4C7 11.6209 7.09328 11.8 7.20834 11.8H16.7917C16.9067 11.8 17 11.6209 17 11.4C17 11.1791 16.9067 11 16.7916 11Z" fill="#8B8B8B"/>
<path d="M11.65 6.55833L11.65 16.1416C11.65 16.2567 11.8291 16.35 12.05 16.35C12.2709 16.35 12.45 16.2567 12.45 16.1416L12.45 6.55831C12.45 6.44326 12.2709 6.34998 12.05 6.34998C11.8291 6.35 11.65 6.44328 11.65 6.55833Z" fill="#8B8B8B"/>
</svg>
