<svg width="100" height="100" viewBox="0 0 100 100" fill="none" xmlns="http://www.w3.org/2000/svg">
<g clip-path="url(#clip0)">
<path d="M50.02 100.02C77.6343 100.02 100.02 77.6342 100.02 50.02C100.02 22.4057 77.6343 0.019989 50.02 0.019989C22.4058 0.019989 0.0200195 22.4057 0.0200195 50.02C0.0200195 77.6342 22.4058 100.02 50.02 100.02Z" fill="#DEE4E7"/>
<path d="M75.53 71.597L63.179 59.246C69.389 51.173 68.768 39.512 61.316 32.129C57.245 28.058 52.001 26.057 46.688 26.057C41.375 26.057 36.131 28.058 32.06 32.129C23.987 40.202 23.987 53.312 32.06 61.385C36.131 65.456 41.375 67.457 46.688 67.457C51.104 67.457 55.52 66.077 59.177 63.248L71.597 75.53C72.149 76.082 72.839 76.358 73.598 76.358C74.288 76.358 75.047 76.082 75.599 75.53C76.634 74.495 76.634 72.701 75.53 71.597ZM46.757 61.868C42.686 61.868 38.96 60.281 36.062 57.452C30.197 51.587 30.197 41.996 36.062 36.062C38.891 33.233 42.686 31.646 46.757 31.646C50.828 31.646 54.554 33.233 57.452 36.062C60.35 38.891 61.868 42.686 61.868 46.757C61.868 50.828 60.281 54.554 57.452 57.452C54.623 60.35 50.759 61.868 46.757 61.868Z" fill="#05224C"/>
</g>
<defs>
<clipPath id="clip0">
<rect width="100" height="100" fill="white"/>
</clipPath>
</defs>
</svg>
