<svg width="40" height="40" viewBox="0 0 40 40" fill="none" xmlns="http://www.w3.org/2000/svg">
<g clip-path="url(#clip0_5735_36)">
<path d="M20.0003 40C31.046 40 40.0003 31.0457 40.0003 20C40.0003 8.95431 31.046 0 20.0003 0C8.95461 0 0.000305176 8.95431 0.000305176 20C0.000305176 31.0457 8.95461 40 20.0003 40Z" fill="#F0F2F5"/>
<path d="M20.0006 15.8748C19.2426 15.8748 18.6256 16.4917 18.6256 17.2498V18.6248H21.3756V17.2498C21.3756 16.4917 20.7586 15.8748 20.0006 15.8748Z" fill="#050505"/>
<path d="M28.8448 9.13512C28.3674 8.90618 27.8021 8.97196 27.3885 9.30364C25.6705 10.6847 22.578 10.684 20.8626 9.30433C20.3591 8.89879 19.6421 8.89948 19.1385 9.30364C17.4212 10.6847 14.3274 10.684 12.6127 9.30429C12.1997 8.97196 11.6325 8.90614 11.157 9.13507C10.6798 9.36337 10.3757 9.84608 10.3757 10.3752L10.375 21.3753C10.375 25.6849 13.83 29.2624 19.6165 30.9456C19.7421 30.9819 19.871 31 20.0006 31C20.1301 31 20.2591 30.9819 20.3847 30.9456C26.1713 29.2624 29.6257 25.6856 29.6257 21.3753V10.3752C29.6257 9.84608 29.3222 9.36337 28.8448 9.13512ZM24.1256 22.7499C24.1256 23.5096 23.51 24.1249 22.7506 24.1249H17.2506C16.4911 24.1249 15.8756 23.5096 15.8756 22.7499V19.9999C15.8756 19.2405 16.4911 18.6249 17.2506 18.6249V17.2499C17.2506 15.7339 18.4839 14.4999 20.0006 14.4999C21.5173 14.4999 22.7506 15.7339 22.7506 17.2499V18.6249C23.51 18.6249 24.1256 19.2405 24.1256 19.9999V22.7499Z" fill="#050505"/>
<path d="M20.0005 20.6875C19.6209 20.6875 19.313 20.9953 19.313 21.375C19.313 21.755 19.6209 22.0625 20.0005 22.0625C20.3802 22.0625 20.688 21.755 20.688 21.375C20.688 20.9953 20.3802 20.6875 20.0005 20.6875Z" fill="#050505"/>
</g>
<defs>
<clipPath id="clip0_5735_36">
<rect width="40" height="40" fill="white" transform="translate(0.000305176)"/>
</clipPath>
</defs>
</svg>
