<svg width="100" height="100" viewBox="0 0 100 100" fill="none" xmlns="http://www.w3.org/2000/svg">
<path d="M0.50002 0.98002C0.765116 0.98002 0.98002 0.765116 0.98002 0.50002C0.98002 0.234923 0.765116 0.0200195 0.50002 0.0200195C0.234923 0.0200195 0.0200195 0.234923 0.0200195 0.50002C0.0200195 0.765116 0.234923 0.98002 0.50002 0.98002Z" fill="white"/>
<path d="M75.3922 21.9169C75.1852 21.2269 74.4952 20.7439 73.7362 20.7439H26.2642C25.5052 20.7439 24.8842 21.2269 24.6082 21.9169L20.9512 32.4049H78.9802L75.3922 21.9169Z" fill="#05224C"/>
<path d="M80.5671 36.752H19.4331C19.2951 37.373 19.2261 37.994 19.2261 38.684C19.2261 43.928 23.5041 48.206 28.7481 48.206C31.5081 48.206 34.0611 47.033 35.8551 45.032C37.6491 47.033 40.2021 48.206 42.9621 48.206C45.7221 48.206 48.2751 47.033 50.0691 45.032C51.8631 47.033 54.4161 48.206 57.1761 48.206C59.9361 48.206 62.4891 47.033 64.2831 45.032C66.0771 47.033 68.6301 48.206 71.3901 48.206C76.6341 48.206 80.9121 43.928 80.9121 38.684C80.7741 37.994 80.7051 37.373 80.5671 36.752Z" fill="#05224C"/>
<path d="M64.1451 50.552C62.0061 51.794 59.5911 52.484 57.0381 52.484C54.5541 52.484 52.0701 51.794 49.9311 50.552C47.7921 51.794 45.3771 52.484 42.8241 52.484C40.3401 52.484 37.8561 51.794 35.7171 50.552C33.5781 51.794 31.1631 52.484 28.6101 52.484C27.1611 52.484 25.7121 52.277 24.4011 51.794V74.702C24.4011 77.186 26.4021 79.187 28.8861 79.187H43.1001V60.281C43.1001 59.246 43.9281 58.487 44.8941 58.487H54.8301C55.8651 58.487 56.6241 59.315 56.6241 60.281V79.256H70.8381C73.3221 79.256 75.3231 77.255 75.3231 74.771V51.863C74.0121 52.277 72.5631 52.553 71.1141 52.553C68.7681 52.553 66.2841 51.863 64.1451 50.552Z" fill="#05224C"/>
</svg>
