<svg width="45" height="39" viewBox="0 0 45 39" fill="none" xmlns="http://www.w3.org/2000/svg">
<path d="M23.4217 1.60003L38.0717 36.6C38.147 36.7831 38.1663 36.9844 38.1272 37.1784C38.088 37.3725 37.9921 37.5505 37.8517 37.69V37.74C37.6941 37.8773 37.4974 37.9617 37.2894 37.9814C37.0813 38.0012 36.8723 37.9552 36.6917 37.85L22.3017 29.56L7.79169 37.56C7.61309 37.6716 7.40382 37.7239 7.19373 37.7095C6.98364 37.6952 6.78345 37.6149 6.62169 37.48C6.46997 37.3327 6.36887 37.141 6.33293 36.9326C6.29699 36.7241 6.32807 36.5097 6.42169 36.32L21.6017 1.59003C21.6813 1.41302 21.8106 1.26299 21.974 1.15823C22.1373 1.05346 22.3276 0.998498 22.5217 1.00003C22.7134 1.00321 22.9002 1.06146 23.0598 1.16784C23.2194 1.27423 23.345 1.42425 23.4217 1.60003V1.60003Z" stroke="#050505" stroke-width="2" stroke-linecap="round" stroke-linejoin="round"/>
<path d="M32.4217 24.81V25C34.5417 24.68 36.5217 24.33 37.9717 24C36.5417 24.26 34.5617 24.55 32.4217 24.81Z" fill="#050505"/>
<path d="M11.4217 24.32L10.9817 24.24C9.08124 23.8544 7.22012 23.2954 5.4217 22.57C4.55239 22.2288 3.72663 21.7857 2.9617 21.25C2.27212 20.8669 1.75647 20.2331 1.5217 19.48C1.53729 19.1217 1.64483 18.7734 1.83398 18.4687C2.02312 18.1639 2.28751 17.913 2.6017 17.74C3.34034 17.2123 4.14786 16.7884 5.0017 16.48C6.79179 15.8281 8.64024 15.3493 10.5217 15.05V15.05C10.7677 14.9811 10.978 14.8206 11.1095 14.6015C11.2409 14.3824 11.2834 14.1213 11.2284 13.8718C11.1734 13.6223 11.025 13.4033 10.8136 13.2598C10.6022 13.1163 10.3439 13.0591 10.0917 13.1C8.10109 13.4958 6.15483 14.0887 4.2817 14.87C3.31337 15.2828 2.40518 15.8243 1.5817 16.48C1.12406 16.8287 0.731398 17.2552 0.421698 17.74C0.069792 18.3179 -0.0682238 19.0009 0.0316976 19.67C0.153451 20.2893 0.448166 20.8614 0.881698 21.32C1.25595 21.7283 1.68306 22.0848 2.1517 22.38C3.0264 22.9327 3.95853 23.3887 4.9317 23.74C6.82324 24.4074 8.77114 24.9027 10.7517 25.22L11.3817 25.31L11.4217 24.32Z" fill="#050505"/>
<path d="M17.0417 13.19C15.0417 13.35 13.1517 13.54 11.8317 13.71C13.1617 13.62 15.0617 13.5 17.0417 13.41V13.19Z" fill="#050505"/>
<path d="M44.8217 19.35C44.7642 18.831 44.5749 18.3352 44.2717 17.91C43.7334 17.1998 43.052 16.6104 42.2717 16.18C39.4521 14.7621 36.4062 13.8483 33.2717 13.48C31.5517 13.22 29.8117 13.06 28.0817 12.95V13.68C29.7717 13.87 31.4417 14.13 33.0817 14.47C36.0279 14.9762 38.8636 15.9914 41.4617 17.47C42.0156 17.8151 42.4949 18.2672 42.8717 18.8C43.0091 18.9941 43.0879 19.2236 43.0985 19.4612C43.1092 19.6988 43.0512 19.9344 42.9317 20.14C42.5913 20.649 42.1357 21.0704 41.6017 21.37C40.9941 21.731 40.3548 22.0356 39.6917 22.28V22.28C39.4665 22.3987 39.295 22.5988 39.2123 22.8395C39.1295 23.0802 39.1416 23.3434 39.2462 23.5755C39.3507 23.8076 39.5399 23.991 39.775 24.0885C40.0101 24.186 40.2736 24.1901 40.5117 24.1C41.2719 23.7707 41.9986 23.3688 42.6817 22.9C43.4631 22.4041 44.1037 21.7153 44.5417 20.9C44.7714 20.4175 44.8681 19.8824 44.8217 19.35Z" fill="#050505"/>
<path d="M11.0817 12.39C11.3257 12.6314 11.5179 12.9199 11.6469 13.2379C11.7758 13.556 11.8387 13.8969 11.8317 14.24C11.8324 14.5802 11.7656 14.9171 11.6352 15.2312C11.5047 15.5454 11.3132 15.8305 11.0717 16.07C10.7666 16.376 10.3906 16.6017 9.97709 16.7271C9.56362 16.8525 9.12555 16.8737 8.70189 16.7889C8.27824 16.704 7.88215 16.5156 7.54891 16.2406C7.21567 15.9656 6.95562 15.6124 6.79192 15.2126C6.62821 14.8127 6.56594 14.3786 6.61065 13.9488C6.65536 13.5191 6.80566 13.107 7.04816 12.7494C7.29067 12.3918 7.61785 12.0997 8.00056 11.8992C8.38328 11.6987 8.80965 11.5959 9.2417 11.6C9.58584 11.6007 9.92627 11.6711 10.2425 11.8069C10.5587 11.9426 10.8442 12.141 11.0817 12.39V12.39Z" fill="#050505"/>
<path d="M43.3217 23.11C43.3214 23.467 43.2505 23.8203 43.1132 24.1498C42.9759 24.4793 42.7749 24.7785 42.5217 25.03C42.0735 25.4794 41.4831 25.7592 40.8515 25.8217C40.2199 25.8842 39.5862 25.7255 39.0586 25.3727C38.531 25.0198 38.1422 24.4948 37.9587 23.8872C37.7752 23.2795 37.8084 22.6271 38.0525 22.0412C38.2966 21.4553 38.7366 20.9724 39.2972 20.6748C39.8578 20.3772 40.5044 20.2836 41.1264 20.4097C41.7485 20.5359 42.3074 20.8741 42.7078 21.3666C43.1082 21.8591 43.3252 22.4753 43.3217 23.11V23.11Z" fill="#050505"/>
</svg>
