<svg width="35" height="40" viewBox="0 0 35 40" fill="none" xmlns="http://www.w3.org/2000/svg">
<path d="M7.70001 9.48C7.69803 7.60659 8.25175 5.77468 9.29113 4.21603C10.3305 2.65738 11.8088 1.44203 13.5391 0.723739C15.2693 0.00544322 17.1737 -0.183522 19.0114 0.18075C20.849 0.545022 22.5374 1.44616 23.8628 2.77017C25.1882 4.09417 26.0911 5.78154 26.4573 7.61882C26.8235 9.45609 26.6366 11.3607 25.9201 13.0917C25.2036 14.8227 23.9898 16.3023 22.4323 17.3433C20.8747 18.3843 19.0434 18.94 17.17 18.94C14.661 18.9374 12.2553 17.9402 10.4802 16.1669C8.70505 14.3937 7.7053 11.9891 7.70001 9.48V9.48Z" fill="#0068FF"/>
<path d="M34.34 29.5V34.75C34.34 35.9417 33.8673 37.0848 33.0255 37.9285C32.1838 38.7721 31.0418 39.2474 29.85 39.25H4.47001C3.28092 39.2447 2.14249 38.7679 1.30449 37.9243C0.466488 37.0807 -0.00264886 35.9391 1.12511e-05 34.75V29.5C-0.00264432 26.7223 1.09758 24.0571 3.05892 22.0901C5.02027 20.1232 7.68228 19.0153 10.46 19.01H10.76C10.981 19.0107 11.1955 19.0845 11.37 19.22C13.0275 20.5028 15.0641 21.1989 17.16 21.1989C19.2559 21.1989 21.2925 20.5028 22.95 19.22C23.1273 19.0824 23.3456 19.0085 23.57 19.01H23.87C26.6487 19.0153 29.3117 20.1228 31.2746 22.0895C33.2376 24.0562 34.34 26.7213 34.34 29.5V29.5Z" fill="#0068FF"/>
</svg>
