<svg height='100px' width='100px'  fill="#ffffff" xmlns:x="http://ns.adobe.com/Extensibility/1.0/" xmlns:i="http://ns.adobe.com/AdobeIllustrator/10.0/" xmlns:graph="http://ns.adobe.com/Graphs/1.0/" xmlns="http://www.w3.org/2000/svg" xmlns:xlink="http://www.w3.org/1999/xlink" version="1.1" x="0px" y="0px" viewBox="-949 951 100 100" style="enable-background:new -949 951 100 100;" xml:space="preserve"><g><g i:extraneous="self"><path d="M-899,953.5c-26.2,0-47.5,21.3-47.5,47.5c0,26.2,21.3,47.5,47.5,47.5c0,0,0,0,0,0c0,0,0,0,0,0c0,0,0,0,0,0    c26.2,0,47.5-21.3,47.5-47.5S-872.8,953.5-899,953.5z M-939.2,1004.6h14.8c0.2,5.3,0.8,10.3,1.9,14.9h-12.3    C-937.3,1014.9-938.8,1009.9-939.2,1004.6z M-895.4,975.5v-14c3.2,1.5,6.3,5,8.8,10c0.6,1.3,1.2,2.6,1.7,4H-895.4z M-882.7,982.6    c1.1,4.6,1.8,9.6,2,14.9h-14.8v-14.9H-882.7z M-902.6,961.5v14h-10.5c0.5-1.4,1.1-2.7,1.7-4C-908.8,966.5-905.7,963-902.6,961.5z     M-902.6,982.6v14.9h-14.8c0.2-5.2,0.9-10.3,2-14.9H-902.6z M-924.5,997.4h-14.8c0.5-5.3,2-10.3,4.3-14.9h12.3    C-923.6,987.2-924.3,992.2-924.5,997.4z M-917.3,1004.6h14.8v14.9h-12.8C-916.4,1014.8-917.1,1009.8-917.3,1004.6z M-902.6,1026.5    v14c-3.2-1.5-6.3-5-8.8-10c-0.6-1.3-1.2-2.6-1.7-4H-902.6z M-895.4,1040.5v-14h10.5c-0.5,1.4-1.1,2.7-1.7,4    C-889.2,1035.5-892.3,1039-895.4,1040.5z M-895.4,1019.4v-14.9h14.8c-0.2,5.2-0.9,10.3-2,14.9H-895.4z M-873.5,1004.6h14.8    c-0.5,5.3-2,10.3-4.3,14.9h-12.3C-874.4,1014.8-873.7,1009.8-873.5,1004.6z M-873.5,997.4c-0.2-5.3-0.8-10.3-1.9-14.9h12.3    c2.3,4.5,3.8,9.5,4.3,14.9H-873.5z M-867.7,975.5h-9.6c-1.5-4.4-3.3-8.2-5.5-11.5C-876.9,966.6-871.8,970.5-867.7,975.5z     M-915.2,964c-2.1,3.2-4,7.1-5.5,11.5h-9.6C-926.2,970.5-921.1,966.6-915.2,964z M-930.3,1026.5h9.6c1.5,4.4,3.3,8.2,5.5,11.5    C-921.1,1035.4-926.2,1031.5-930.3,1026.5z M-882.8,1038c2.1-3.2,4-7.1,5.5-11.5h9.6C-871.8,1031.5-876.9,1035.4-882.8,1038z"></path></g></g></svg>