<?xml version="1.0" encoding="UTF-8"?>
<!-- Generator: Adobe Illustrator 25.2.1, SVG Export Plug-In . SVG Version: 6.00 Build 0)  -->
<svg xmlns="http://www.w3.org/2000/svg" xmlns:xlink="http://www.w3.org/1999/xlink" version="1.1" id="Capa_1" x="0px" y="0px" viewBox="0 0 512 512" style="enable-background:new 0 0 512 512;" xml:space="preserve" width="512" height="512">
<g>
	<path style="fill:#FFFFFF;" d="M97.014,255.74v41.606c-4.827,5.062-8.15,10.846-9.773,17.076   c-4.548,17.508-0.264,41.169,9.773,57.177v62.541c-0.712,0.118-1.425,0.242-2.134,0.374l-0.261,0.049   c-9.79,1.818-28.013,5.2-34.273,24.808c-1.781,5.585-0.792,11.685,2.667,16.419c3.459,4.734,8.968,7.532,14.831,7.532h60.882   c-0.705,1.46-1.335,3.032-1.876,4.726c-1.781,5.585-0.792,11.685,2.667,16.419c3.459,4.734,8.968,7.532,14.83,7.532h63.419   c0.018,0,0.038,0.001,0.051,0c10.144,0,18.366-8.222,18.366-18.366c0-1.288-0.131-2.544-0.384-3.756   c-0.436-3.368-0.874-6.823-0.418-8.522c0.069-0.101,0.19-0.266,0.4-0.502l19.921,3.276c1.133,0.216,2.283,0.325,3.441,0.325h2.178   c11.118,0,20.759-7.031,23.998-17.512c0.038-0.12,0.074-0.241,0.11-0.363c1.873-0.079,3.769-0.151,5.696-0.225   c9.642-0.368,19.614-0.747,29.794-2.241c20.849-3.058,35.598-11.347,43.833-24.636c6.629-10.692,7.574-22.527,7.94-32.786   c0.899-25.413-2.808-52.25-11.015-79.763c-0.041-0.135-4.202-14.017-8.812-28.01c-0.459-1.389-0.902-2.725-1.335-4.009   c2.032-0.567,29.395-12.008,31.808-13.252c10.684-5.511,21.211-11.383,31.081-18.265c15.211-10.608,28.696-23.526,40.693-37.631   c6.031-7.09,11.698-14.487,17.071-22.087c5.215-7.377,10.896-14.919,14.464-23.202c6.413-14.886,9.555-30.75,6.505-46.876   c-6.137-32.45-34.463-56.982-67.357-58.332c-1.117-0.044-2.245-0.056-3.372-0.032c-1.064-16.656-7.561-31.084-19.463-43.113   c-14.011-14.163-33.627-22.285-53.82-22.285c-3.882,0-7.784,0.302-11.597,0.901c-13.413,2.104-26.302,7.743-37.437,16.077   c-1.594-2.421-3.346-4.749-5.255-6.967C283.84,7.047,267.8,0,249.687,0c-26.071,0-53.072,14.825-65.661,36.054   c-8.64,14.569-13.572,31.952-14.699,50.884c-16.093-16.03-38.272-25.956-62.728-25.956c-49.037,0-88.929,39.893-88.929,88.93   c0,47.157,36.9,85.839,83.341,88.735C97.181,244.554,96.53,251.013,97.014,255.74z"/>
	<g>
		<path style="fill:#403C73;" d="M200.068,154.228c-14.494-32.248-18.961-77.248-0.245-108.807    c15.168-25.576,59.531-38.667,81.108-13.598c7.105,8.255,11.442,18.943,11.79,29.852c10.405-16.967,28.008-29.714,47.671-32.798    c17.947-2.814,36.718,3.223,49.514,16.157c16.536,16.716,16.856,37.806,10.365,59.322c5.305-7.76,15.384-11.128,24.777-10.743    c24.222,0.993,45.561,19.602,50.06,43.394c2.954,15.624-1.744,31.374-9.901,44.694c-6.38,10.419-17.884,26.599-29.109,31.931"/>
		<path style="fill:#403C73;" d="M164.513,408.058c-3.62,0.831-7.226,1.975-10.82,3.577c-15.454,6.892-25.981,23.367-26.231,40.221    c-9.697-1.315-19.611-1.069-29.228,0.717c-8.85,1.643-17.444,3.151-20.39,12.382h63.417c-0.774-6.095-1.767-12.17,0.229-18.21    c1.863-5.637,6.744-9.761,11.334-12.972c3.654-2.556,7.59-4.702,11.688-6.49V408.058z"/>
		<path style="fill:#F43B95;" d="M266.056,258.556c-16.662-3.105-30.944-14.287-41.235-27.754    c-16.784-21.965-28.766-49.84-32.284-77.116c-3.938-30.532-5.336-82.873,26.387-100.139c14.928-8.125,33.583-5.536,46.602,5.066    c15.152,12.338,20.401,32.442,20.405,51.549c4.303-17.635,19.491-32.121,37.31-35.585c15.05-2.926,37.724,2.491,45.504,16.782    c9.346,17.166,8.447,40.855,0.799,58.35c8.128-12.704,19.471-23.791,33.536-29.233c18.676-7.226,39.303,0.134,50.881,16.066    c25.745,35.426-9.061,76.941-34.822,99.969c-27.35,24.448-71.107,44.518-108.368,41.675"/>
		<g>
			<g>
				<path style="fill:#403C73;" d="M282.747,167.087c-1.648,8.134-6.07,14.102-9.877,13.331c-3.807-0.771-5.557-7.99-3.91-16.124      c1.648-8.133,6.07-14.102,9.877-13.33C282.644,151.735,284.394,158.953,282.747,167.087z"/>
				<path style="fill:#403C73;" d="M362.752,183.296c-1.648,8.133-6.07,14.102-9.877,13.33c-3.807-0.771-5.557-7.99-3.91-16.123      c1.648-8.133,6.07-14.102,9.877-13.33C362.65,167.943,364.4,175.162,362.752,183.296z"/>
			</g>
			<g>
				<path style="fill:#403C73;" d="M291.863,171.544c-1.29,6.831,0.456,13.549,4.304,18.74c3.401,4.587,10.388,2.468,16.427,3.692      c5.997,1.215,9.978,5.589,14.876,2.731c5.616-3.276,9.882-8.811,11.361-15.647L291.863,171.544z"/>
				<path style="fill:#FDA753;" d="M327.656,196.567c-2.23-5.914-7.342-10.593-13.994-11.941s-13.182,0.972-17.538,5.552      c3.401,4.632,8.449,8.078,14.527,9.31C316.729,200.72,322.719,199.51,327.656,196.567z"/>
			</g>
		</g>
		<g>
			<path style="fill:#F43B95;" d="M160.973,194.885c13.073-15.787,19.406-37.359,14.574-60.308     c-5.798-27.538-28.095-49.038-55.789-54.039c-49.123-8.87-91.26,33.158-82.58,82.255c4.912,27.785,26.454,50.199,54.057,56.05     c18.575,3.938,36.215,0.518,50.646-7.832l23.603,11.433L160.973,194.885z"/>
			<path style="fill:#403C73;" d="M106.601,140.562c-12.214-18.699-31.588-12.324-31.588,3.896c0,16.22,15.794,34.282,31.588,37.788     c15.794-3.506,31.588-21.568,31.588-37.788C138.188,128.238,118.815,121.863,106.601,140.562z"/>
		</g>
		<g>
			<path style="fill:#F43B95;" d="M264.716,268.659l-140.092-23.033c-11.214-0.794-9.244,8.911-9.244,8.911l5.62,3.418V434.13     c0,2.001,1.622,3.624,3.624,3.624l132.736,23.033l1.736,5.287c0,0,0.033,0.009,0.049,0.013h2.177     c2.896,0,5.593-1.785,6.447-4.553c0.359-1.165,0.571-2.602,0.571-4.372v-184.88C268.34,270.282,266.717,268.659,264.716,268.659z     "/>
			<path style="fill:#00C1D5;" d="M259.096,466.074l-140.092-23.033c-2.001,0-3.624-1.623-3.624-3.624v-184.88     c0-2.001,1.623-3.624,3.624-3.624l140.092,23.033c2.001,0,3.624,1.622,3.624,3.624v184.88     C262.72,464.451,261.098,466.074,259.096,466.074z"/>
			<path style="fill:#FFFFFF;" d="M203.615,308.441c0,8.044-6.521,14.565-14.565,14.565c-8.044,0-14.565-6.521-14.565-14.565     c0-8.044,6.521-14.565,14.565-14.565C197.094,293.876,203.615,300.397,203.615,308.441z"/>
		</g>
		<g>
			<path style="fill:#9DA02B;" d="M348.571,359.67c-8.79,1.633-17.027-0.268-26.913-2.693c-12.827-3.147-25.444-7.087-38.287-10.172     c-31.881-7.658-68.708-6.997-98.089,8.848c-2.573,1.388-29.09,17.496-27.945,19.291c14.244,22.318,43.082,32.597,68.042,37.593     c25.799,5.163,57.248,5.776,81.806-4.348c16.875-6.957,32.19-17.697,44.411-31.264     C350.367,371.21,349.253,365.479,348.571,359.67z"/>
			<path style="fill:#777D1E;" d="M349.836,368.074c-3.789,2.309-8.924,5.069-15.47,7.622c-2.199,0.875-4.572,1.696-7.069,2.467     c-1.783-2.654-9.086-11.545-18.071-21.945c-0.972-1.125-1.922-2.218-2.86-3.293c-1.002-0.277-2.006-0.549-3.008-0.827     c1.447,1.701,2.957,3.463,4.526,5.279c8.8,10.187,16.405,18.569,18.938,20.93c-6.112,1.858-13.03,3.386-20.571,4.418     c-0.972,0.132-2.005,0.207-2.996,0.32c-0.975-1.443-2.717-3.814-5.091-6.848c-3.919-5.012-9.562-11.761-16.148-18.9     c-4.634-5.016-9.1-9.534-12.979-13.282c-0.816-0.125-1.631-0.248-2.45-0.361c4.029,4.128,8.928,9.219,14.127,14.846     c6.56,7.109,12.329,13.7,16.484,18.495c2.355,2.716,4.18,4.816,5.377,6.123c-9.521,1.05-19.856,1.318-30.65,0.791     c-2.837-3.826-10.39-13.017-19.466-23.624c-6.156-7.195-11.77-13.588-15.797-18.03c-0.498,0.024-0.996,0.044-1.493,0.073     c3.771,4.698,9.469,11.542,15.943,19.109c8.697,10.165,16.33,18.754,19.892,22.441c-0.105-0.006-0.206-0.005-0.312-0.011     c-11.043-0.644-21.552-1.845-31.328-3.025c-0.921-1.165-2.387-2.886-4.329-5.032c-3.553-3.927-8.661-9.175-14.598-14.663     c-5.94-5.484-11.576-10.162-15.772-13.393c-0.032-0.025-0.061-0.046-0.093-0.071c-0.469,0.144-0.945,0.27-1.412,0.42     c0.237,0.207,0.461,0.403,0.71,0.62c3.978,3.468,9.454,8.27,15.365,13.726c5.906,5.46,11.127,10.539,14.898,14.231     c1.714,1.676,3.115,3.04,4.173,4.035c-1.056-0.128-2.147-0.257-3.184-0.383c-9.855-1.213-18.779-2.265-26.551-2.952     c-1.848-1.732-9.763-7.468-19.437-14.043c-2.788-1.895-5.458-3.681-7.902-5.289c-0.481,0.292-0.985,0.598-1.522,0.927     c2.553,1.798,5.4,3.769,8.428,5.827c8.756,5.952,16.335,10.812,19.396,12.484c-0.495-0.042-1.035-0.099-1.519-0.137     c-8.317-0.678-15.072-0.935-19.74-0.902c-2.333-0.027-4.146,0.085-5.372,0.128c-1.227,0.061-1.871,0.128-1.87,0.199     c0.001,0.16,2.578,0.253,7.222,0.477c4.645,0.215,11.356,0.692,19.624,1.553c0.37,0.038,0.784,0.089,1.16,0.129     c-3.331,2.097-10.925,7.511-19.636,14.045c-2.013,1.51-3.946,2.976-5.774,4.376c0.537,0.31,1.066,0.628,1.609,0.928     c1.68-1.237,3.426-2.534,5.229-3.886c9.249-6.939,16.929-13.018,19.467-15.364c7.838,0.848,16.896,2.054,26.948,3.389     c1.42,0.187,2.91,0.374,4.367,0.562c-2.862,2.866-9.147,9.89-16.275,18.244c-2.812,3.295-5.431,6.42-7.728,9.208     c0.578,0.147,1.152,0.286,1.728,0.427c2.256-2.562,4.742-5.428,7.349-8.484c7.409-8.685,13.524-16.224,15.701-19.294     c9.528,1.222,19.768,2.418,30.554,3.048c0.381,0.021,0.75,0.018,1.13,0.037c-2.041,2.629-6.714,9.561-12.352,17.587     c-3.3,4.715-6.356,8.984-8.683,12.285c0.549,0.034,1.102,0.052,1.653,0.081c2.447-3.056,5.413-6.966,8.481-11.349     c5.871-8.358,10.269-15.807,11.59-18.583c10.621,0.488,20.815,0.176,30.229-0.931c-0.98,1.209-2.655,3.479-4.851,6.526     c-5.644,7.898-9.55,13.364-13.287,18.594c-1.097,1.531-2.215,3.092-3.38,4.719c0.804-0.108,1.606-0.22,2.406-0.342     c0.797-1.095,1.601-2.206,2.416-3.345c5.201-7.272,9.723-13.987,12.882-18.921c2.222-3.47,3.758-6.026,4.416-7.301     c1.09-0.133,2.22-0.225,3.287-0.379c7.43-1.088,14.26-2.677,20.308-4.601c-1.867,2.951-6.302,11.238-11.271,21.139     c-0.725,1.445-1.427,2.857-2.106,4.231c0.886-0.424,1.752-0.885,2.628-1.33c0.351-0.694,0.705-1.395,1.062-2.106     c5.242-10.446,9.399-19.345,10.392-22.161c2.615-0.852,5.094-1.761,7.381-2.73c6.351-2.662,11.411-5.502,15.104-7.981     C349.954,368.74,349.896,368.407,349.836,368.074z"/>
		</g>
		<path style="fill:#9DA02B;" d="M127.48,299.722c-8.918,3.018-19.911,9.503-22.461,19.318c-3.927,15.117,1.66,40.073,13.815,50.229    c0.395,0.33,18.712-16.884,20.534-18.588c7.538-7.05,15.589-15.681,21.074-24.37c6.602-10.459,14.452-21.318,19.362-32.679    c-13.52,0.569-27.751-0.221-40.98,2.93C135.338,297.393,131.402,298.394,127.48,299.722z"/>
		<path style="fill:#777D1E;" d="M136.324,319.227c3.612-2.284,7.026-4.214,9.934-5.842c6.868-3.771,11.17-6.058,11.033-6.334    c-0.116-0.235-4.63,1.578-11.711,5.039c-2.663,1.329-5.729,2.908-8.99,4.809c1.851-2.916,4.737-7.683,8.211-12.941    c2.312-3.523,4.523-6.712,6.321-9.299c-0.651,0.059-1.305,0.103-1.953,0.173c-1.798,2.297-3.822,5.065-5.848,8.151    c-4.109,6.221-7.053,11.945-8.288,14.857c-4.903,2.964-10.155,6.642-15.129,11.352c-3.491,3.318-6.386,6.926-8.732,10.56    c0.326-1.152,0.833-3.648,1.567-7.097c1.027-4.839,2.565-11.491,4.671-18.726c1.226-4.192,2.506-8.102,3.705-11.562    c-0.708,0.35-1.414,0.715-2.113,1.105c-1.12,3.035-2.25,6.391-3.294,9.961c-2.127,7.307-3.486,14.072-4.203,19    c-0.647,4.429-0.832,7.345-0.699,7.918c-1.72,2.737-3.119,5.478-4.205,8.115c0.262,0.875,0.545,1.736,0.842,2.592    c1.215-3.073,2.841-6.325,4.971-9.602c1.366,0.337,3.556,0.78,6.412,1.27c4.975,0.855,11.89,1.809,19.562,2.52    c2.083,0.192,4.108,0.353,6.063,0.492c0.524-0.528,1.043-1.064,1.564-1.604c-2.379-0.199-4.875-0.415-7.464-0.653    c-7.641-0.707-14.548-1.461-19.554-1.996c-2.692-0.287-4.81-0.498-6.222-0.597c2.328-3.491,5.163-6.972,8.557-10.2    c4.648-4.407,9.553-7.969,14.164-10.934c2.497,0.496,10.918,1.16,20.974,1.096c2.681-0.013,5.235-0.078,7.603-0.174    c0.363-0.556,0.724-1.111,1.089-1.67c-2.666,0.027-5.606,0.057-8.702,0.071C147.348,319.134,139.554,319.049,136.324,319.227z"/>
		<path style="fill:#403C73;" d="M369.809,239.081c-4.123-1.896-8.881-2.389-13.456-2.138c-14.105,0.771-27.673,8.419-35.636,20.086    c1.887-13.026-1.81-27.616-11.646-36.744c-8.994-8.346-20.475-7.079-27.879,2.63c-6.556,8.598-7.088,20.775-3.276,30.894    c-9.33-10.725-22.182-18.335-36.072-21.358c-15.704-3.418-11.397,11.539-6.617,20.327c7.08,13.014,17.908,18.196,31.3,23.726    c11.873,4.902,25.399,8.06,38.919,8.546c11.848,10.018,17.799,25.463,22.133,40.884c5.327,18.952,11.388,38.84,13.331,58.484    c1.19,12.027,1.284,33.309-8.148,42.792c-10.967,11.026-36.859,9.42-50.884,8.664c-17.672-0.953-34.81-3.085-51.684,4.44    c-15.454,6.892-25.981,23.367-26.231,40.221c-9.697-1.315-19.611-1.069-29.228,0.717c-8.85,1.643-17.444,3.151-20.39,12.382    h63.417c-0.774-6.095-1.767-12.17,0.229-18.21c1.863-5.637,6.744-9.761,11.334-12.972c8.023-5.613,17.367-9.344,26.934-11.317    c20.329-4.192,41.457-2.18,61.994-5.192c11.876-1.742,24.565-5.938,30.889-16.141c4.321-6.973,4.902-15.56,5.193-23.759    c0.885-24.964-3.132-49.978-10.258-73.862c-1.463-4.903-15.709-51.735-18.13-51.364c13.165-2.022,27.619-3.91,39.699-10.436    c11.086-5.988,21.397-19.897,6.894-29.761C371.672,240.027,370.757,239.517,369.809,239.081z"/>
	</g>
</g>















</svg>
