<?xml version="1.0" encoding="UTF-8"?>
<!-- Generator: Adobe Illustrator 25.2.1, SVG Export Plug-In . SVG Version: 6.00 Build 0)  -->
<svg xmlns="http://www.w3.org/2000/svg" xmlns:xlink="http://www.w3.org/1999/xlink" version="1.1" id="Capa_1" x="0px" y="0px" viewBox="0 0 511.794 511.794" style="enable-background:new 0 0 511.794 511.794;" xml:space="preserve" width="512" height="512">
<g>
	<path style="fill:#FFFFFF;" d="M108.683,123.601c-2.18-1.138-4.517-2.043-6.441-2.793c-1.99-0.714-3.848-1.528-5.666-2.486   c-6.022-3.076-8.828-8.222-9.76-9.929c-3.276-5.918-3.061-13.129,0.624-19.205c1.532-2.494,3.292-4.545,5.277-6.185   c4.889-4.101,11.668-5.581,18.073-3.969c0.157,0.039,0.3,0.109,0.456,0.151c-0.885-2.19-1.321-4.554-1.213-6.947   c0.221-4.855,2.937-9.465,6.64-12.562c5.926-4.957,15.385-6.086,22.637-3.732c0.884,0.279,1.734,0.605,2.562,0.962   c-0.821-2.125-1.213-4.403-1.119-6.715c0.705-17.218,22.321-20.59,34.169-12.452c-0.663-3.245-0.338-6.663,1.003-9.852   c1.632-3.887,4.691-7.064,8.459-8.823c1.878-0.886,3.859-1.424,5.896-1.599c5.67-0.488,11.14,1.962,14.56,6.353   c0.183-8.23,6.353-14.746,14.279-16.288c0.978-0.19,4.125,0.203,4.744-0.21c0.023-0.015,0.048-0.029,0.07-0.044   c1.475-0.916,3.088-1.582,4.778-1.973c5.724-1.323,12.02,0.689,15.984,4.985c1.324,1.427,2.214,2.891,2.84,4.204   c0.262-0.782,0.564-1.589,0.971-2.428c3.032-6.429,8.762-10.649,15.833-11.685c0.68-0.141,1.382-0.254,2.034-0.302   c8.388-0.66,15.899,3.057,20.087,9.549c5.91-4.451,13.391-6.806,20.732-5.694c5.839,0.885,11.105,3.9,15.2,8.111   c-0.441-0.453,4.587-3.961,5.086-4.226c1.987-1.054,4.198-1.691,6.44-1.868c3.709-0.293,7.739,0.633,11.305,1.589   c7.311,1.96,14.86,6.058,16.826,13.952c0.081,0.324,0.12,0.653,0.18,0.979c2.619-2.19,5.878-3.602,9.449-3.91   c2.44-0.21,4.913,0.117,7.199,0.946c7.326,2.621,11.818,9.754,11.188,17.182c4.876-4.807,12.232-6.039,18.48-3.281   c1.422,0.628,2.783,1.457,4.005,2.419c0.724,0.57,2.64,3.337,3.337,3.47c4.701,0.896,7.403,3.095,9.623,5.343   c3.996,4.045,5.317,9.717,4.041,14.902c4.44-2.049,9.507-2.269,13.968-0.171c2.694,1.267,5.053,3.146,7.264,5.141   c5.457,4.923,9.699,10.921,8.354,18.609c-0.754,4.493-3.366,8.594-7.147,11.144c-0.325,0.219-0.663,0.413-1,0.609   c0.565,3.672,0.526,7.426-0.311,11.102c-1.237,5.438-3.815,10.452-5.989,15.599c3.823-1.845,7.806-3.347,11.895-4.457   c5.245-1.432,10.84-0.062,14.841,3.606c4.003,3.668,5.846,9.13,4.883,14.474c-2.113,11.749-7.272,23.029-14.726,32.395   c2.295,1.258,4.27,3.082,5.718,5.339c2.616,4.083,3.219,9.141,1.63,13.723c-3.24,9.356-9.939,17.408-19.362,23.487   c4.142,14.941,5.137,29.301,6.677,44.585c0.478,4.739,1.082,9.464,1.713,14.185c8.497,63.536,5.19,131.179-38.598,182.325   c-20.063,23.435-46.514,41.329-75.777,51.119c-45.768,15.31-101.415,12.216-144.25-10.816c0,0-0.326-0.175-0.326-0.175   c-22.653-12.184-41.698-29.82-56.21-51.017c-13.581-19.837-23.139-42.261-29.535-65.435c-4.32-15.653-7.73-31.658-8.679-47.868   c-0.451-7.7-0.49-16.444-1.091-24.329c-0.333-4.372-0.982-18.955-0.982-18.955c-3.909,1.813-8.545,1.892-11.983-0.152   c-4.224,3.674-9.426,5.955-14.854,6.422c-6.582,0.566-13.087-1.604-17.841-5.957c-3.34-3.056-5.684-7.003-6.879-11.478   c-3.895-1.274-7.362-3.512-10.086-6.591c-6.412-7.244-7.31-17.874-2.959-26.693c-2.062-4.045-2.94-8.669-2.384-13.414   c1.101-9.36,7.507-16.943,16.524-19.77c-4.324-7.858-4.006-17.865,0.748-26.114c-2.832-4.697-4.102-10.244-3.431-15.955   c1.261-10.699,8.994-19.236,19.705-21.753c3.579-0.84,7.372-1.117,11.029-0.837c4.656-8.965,12.693-17.323,24.215-17.863H108.683z"/>
	<g>
		<g>
			<path style="fill:#00C1D5;" d="M176.043,345.682c-14.189-20.354-23.525-45.027-25.858-72.14     c-6.634-77.076,46.526-134.319,117.653-140.441c71.127-6.122,133.287,41.194,139.921,118.271     c2.334,27.113-2.648,53.018-13.15,75.498l36.442-3.137c8.048-23.619,11.471-49.565,9.157-76.453     c-8.312-96.562-86.186-155.841-175.295-148.17c-89.109,7.67-155.708,79.384-147.397,175.946     c2.315,26.888,10.121,51.868,22.087,73.764L176.043,345.682z"/>
		</g>
		<g>
			<path style="fill:#FFFFFF;" d="M124.916,268.804c-3.41-2.99-6.319-6.216-8.801-9.446c0.01,1.517,0.024,3.035,0.07,4.566     c2.011,2.437,4.26,4.833,6.825,7.081c8.951,7.853,19.141,12.017,26.613,13.664c0.704,0.159,1.358,0.282,2.013,0.407     c-0.112-0.691-0.229-1.38-0.333-2.075c-0.388-0.11-0.754-0.207-1.157-0.328C143.03,280.568,133.452,276.29,124.916,268.804z"/>
			<path style="fill:#FFFFFF;" d="M132.346,186.03c-0.659,1.361-1.315,2.724-1.938,4.108c0.879,6.963,2.555,15.146,5.409,23.663     c4.005,11.848,9.45,21.878,14.052,28.643c0.614,0.906,1.205,1.748,1.776,2.541c0.122-1.019,0.268-2.027,0.412-3.037     c-4.091-7.005-9.387-17.051-13.367-29.09C135.283,202.914,133.434,193.53,132.346,186.03z"/>
			<path style="fill:#FFFFFF;" d="M169.527,175.655c0.02-6.031,0.414-12.66,1.451-19.554c1.108-6.884,2.751-13.342,4.57-19.126     c0.764-2.299,1.55-4.459,2.343-6.53c-1.386,1.032-2.724,2.117-4.074,3.189c-0.32,0.835-0.644,1.653-0.957,2.521     c-2.011,5.871-3.781,12.476-4.915,19.531c-1.063,7.064-1.381,13.867-1.243,20.034c0.237,6.165,0.87,11.694,1.805,16.26     c0.014,0.071,0.029,0.132,0.044,0.202c0.593-0.918,1.215-1.814,1.832-2.715C169.9,185.403,169.594,180.762,169.527,175.655z"/>
			<path style="fill:#FFFFFF;" d="M229.445,121.066c2.214-5.611,4.757-10.758,7.303-15.303c0.81-1.396,1.613-2.714,2.411-3.993     c-1.213,0.293-2.412,0.617-3.614,0.936c-0.351,0.548-0.701,1.074-1.052,1.642c-2.738,4.585-5.428,9.842-7.703,15.611     c-2.222,5.791-3.803,11.51-4.899,16.78c-0.624,3.24-1.062,6.277-1.359,9.102c0.833-0.408,1.666-0.818,2.51-1.209     c0.384-2.3,0.858-4.742,1.422-7.295C225.673,132.234,227.285,126.699,229.445,121.066z"/>
			<path style="fill:#FFFFFF;" d="M293.521,117.588c4.68-3.823,9.456-7.052,13.955-9.737c3.633-2.087,7.056-3.837,10.168-5.238     c-1.253-0.281-2.499-0.583-3.763-0.836c-2.449,1.059-5.032,2.298-7.728,3.75c-4.697,2.628-9.667,5.888-14.485,9.826     c-4.778,3.986-8.917,8.248-12.383,12.361c-1.564,1.917-2.977,3.789-4.26,5.603c1.05-0.031,2.095-0.045,3.14-0.053     c0.999-1.249,2.038-2.516,3.159-3.817C284.81,125.539,288.882,121.461,293.521,117.588z"/>
			<path style="fill:#FFFFFF;" d="M352.674,137.055c6.317-1.474,12.453-2.232,18.059-2.547c2.806-0.053,5.477-0.185,7.977-0.016     c2.505,0.031,4.827,0.264,6.951,0.486c0.047,0.005,0.087,0.011,0.135,0.017c-1.008-0.907-2.023-1.805-3.052-2.684     c-1.256-0.17-2.561-0.314-3.931-0.393c-2.56-0.284-5.304-0.251-8.193-0.273c-5.77,0.163-12.109,0.857-18.616,2.376     c-6.49,1.596-12.483,3.857-17.741,6.337c-1.238,0.638-2.445,1.25-3.612,1.869c1.069,0.474,2.116,0.993,3.17,1.496     c0.517-0.246,1.015-0.484,1.541-0.738C340.537,140.717,346.374,138.605,352.674,137.055z"/>
			<path style="fill:#FFFFFF;" d="M409.75,187.178c5.821,1.014,11.285,2.42,16.298,3.969c-0.493-1.111-0.999-2.211-1.514-3.305     c-4.452-1.378-9.254-2.586-14.311-3.466c-6.861-1.126-13.488-1.539-19.502-1.508c-2.705,0.056-5.264,0.2-7.692,0.405     c0.556,0.759,1.078,1.55,1.618,2.324c1.952-0.071,3.96-0.118,6.075-0.111C396.601,185.6,403.054,186.081,409.75,187.178z"/>
			<path style="fill:#FFFFFF;" d="M417.475,236.665c-4.352-1.95-8.647-3.575-12.747-4.912c0.237,1.07,0.451,2.154,0.667,3.238     c3.524,1.264,7.173,2.706,10.897,4.403c10.299,4.566,18.981,9.981,25.496,14.499c-0.057-0.993-0.107-1.986-0.18-2.982     C435.386,246.226,427.123,241.018,417.475,236.665z"/>
		</g>
		<path style="fill:#C3E2E2;" d="M443.298,276.485c-59.836-14.241-116.471-15.751-164.174-10.522    c-47.893,3.034-103.429,14.24-159.934,38.538c0,0-4.763,195.12,174.028,191.628c0,0,3.884,0.066,5.786-0.182    c1.916-0.082,5.731-0.813,5.731-0.813C481.473,467.893,443.298,276.485,443.298,276.485z"/>
		<path style="fill:#7E9B2D;" d="M402.912,202.918c5.324-9.186,11.352-17.977,18.057-26.265c9.305-2.746,17.897-7.897,24.66-14.857    c7.794-8.022,13.127-18.402,15.11-29.409c-12.78,3.47-24.184,11.776-31.408,22.875c-3.767,5.788-6.479,12.32-10.055,18.189    c-6.66,8.108-12.694,16.694-18.038,25.678c6.263-17.502,4.022-38.058-6.553-53.428c-7.602,8.457-8.361,21.128-6.279,32.306    c1.917,10.288,5.835,20.153,7.601,30.449c-4.487,8.494-8.394,17.288-11.69,26.305c1.716-17.045-4.006-34.902-15.971-47.24    c-6.087,9.605-4.725,22.225-0.809,32.901c3.514,9.579,8.846,18.441,12.314,28.014c-2.887,9.931-5.062,20.071-6.469,30.334    c-1.707-17.655-11.487-34.579-26.447-44.223c-3.756,10.733,0.425,22.718,6.654,32.231c5.632,8.602,12.895,16.079,18.456,24.702    c-0.799,10.608-0.803,21.296,0.059,31.965c0.173,2.143,3.494,1.856,3.321-0.286c-0.807-9.996-0.841-20.004-0.166-29.941    c7.813-7.046,17.084-12.372,25.033-19.294c8.575-7.468,15.849-17.871,15.143-29.22c-19.394,5.958-34.873,22.841-39.676,42.488    c1.191-12.201,3.456-24.267,6.766-36.034c9.24-5.144,19.533-8.241,28.889-13.211c10.042-5.335,19.48-13.823,21.36-25.037    c-20.722,1.45-40.055,14.976-48.91,33.704c3.802-12.43,8.759-24.5,14.801-36.018c9.795-3.376,20.235-4.723,30.085-7.998    c10.79-3.587,21.511-10.384,25.232-21.129C434.829,179.594,415.134,188.145,402.912,202.918z"/>
		<path style="fill:#A76BB0;" d="M281.883,298.012c-36.88,2.336-78.291,8.873-121.184,22.836    c33.695,8.756,77.047,12.087,123.865,8.04c46.813-4.047,88.947-14.766,120.638-29.172    C360.543,293.319,318.62,293.985,281.883,298.012z"/>
		<path style="fill:#403C73;" d="M195.072,212.823c-9.302,12.419-12.806,28.416-12.684,43.931c0.1,12.72,2.462,25.273,5.213,37.719    c-16.925-44.848-45.656-84.858-83.58-115.22c-2.58-2.066-5.888,1.854-3.302,3.924c29.066,23.27,52.64,52.289,69.495,84.835    c-26.652-17.789-57.074-27.705-89.346-29.079c-3.298-0.141-2.817,4.971,0.44,5.11c33.97,1.447,66.109,12.992,93.338,33.32    c0.08,0.06,0.163,0.067,0.244,0.116c4.771,10.187,8.89,20.689,12.336,31.437l-0.747-0.884    c-10.689-11.246-21.49-22.587-34.35-31.269c-12.859-8.682-28.125-14.608-43.617-13.726c8.867,13.824,21.564,25.164,36.298,32.419    c14.008,6.897,29.632,10.166,43.562,17.126c4.467,14.668,7.683,29.778,9.534,45.178c0.394,3.276,5.505,2.847,5.11-0.44    c-2.048-17.037-5.729-33.733-10.904-49.887c1.811-15.698,7.868-30.73,9.897-46.439    C204.114,244.705,201.687,227.855,195.072,212.823z"/>
		<path style="fill:#7E9B2D;" d="M274.544,248.818c-10.003,10.497-16.055,24.258-19.399,38.367    c-2.151,9.077-3.241,18.346-3.939,27.658c-1.446-13.776-3.656-27.423-6.597-40.91c15.43-21.601,21.381-49.813,15.689-75.766    c-9.188,11.218-14.192,25.393-16.468,39.714c-1.305,8.207-1.763,16.503-1.847,24.819c-6.156-24.65-14.718-48.731-25.526-72.017    c-1.381-2.975-6.206-1.224-4.81,1.782c12.05,25.961,21.293,52.889,27.477,80.502c-6.492-9.201-13.301-18.181-21.265-26.119    c-10.27-10.236-22.659-18.75-36.69-22.41c10.892,24.824,32.971,44.397,58.823,52.491c3.184,14.964,5.462,30.126,6.782,45.445    c-5.909-9.908-12.145-19.628-19.672-28.35c-9.474-10.978-21.19-20.396-34.906-25.098c9.015,25.611,29.614,46.812,54.841,56.801    c0.641,8.33,1.034,16.699,1.101,25.112c0.027,3.31,5.136,2.845,5.11-0.44c-0.069-8.675-0.481-17.307-1.156-25.898    C269.862,304.004,278.356,275.695,274.544,248.818z"/>
		<path style="fill:#403C73;" d="M182.909,211.634c-10.459-1.875-36.347-12.214-31.922-26.856    c1.945-6.433,13.324-7.139,18.785-6.696c-5.565-3.586-7.522-11.514-4.906-17.595c2.616-6.081,9.151-10.03,15.765-10.296    c6.615-0.267,13.118,2.835,17.714,7.6c-2.894-5.109-2.758-11.793,0.339-16.781c9.432-15.188,25.633-4.605,29.958,8.395    c0.833-7.254,7.353-13.431,14.642-13.871c10.221-0.618,15.601,10.26,17.018,18.924c1.967,12.03-0.477,26.365-5.412,37.338"/>
		<path style="fill:#403C73;" d="M375.917,189.18c-29.669,17.931-51.745,45.238-63.23,77.509    c-0.502-14.062-0.276-28.132,0.671-42.162c22.895-8.955,40.456-30.513,44.357-54.809c-13.05,2.462-23.984,11.799-31.328,22.864    c-5.609,8.452-9.411,17.903-12.757,27.514c2.589-33.018,9.185-65.75,19.759-97.427c1.036-3.103-3.589-5.329-4.634-2.199    c-10.13,30.344-16.619,61.545-19.563,93.024c-2.305-8.168-5.092-16.171-9.195-23.576c-6.437-11.616-16.589-21.798-29.401-25.294    c1.89,23.8,16.8,46.065,37.876,57.194c-1.441,19.67-1.462,39.427-0.087,59.139c-0.02,0.081-0.046,0.161-0.066,0.242    c-0.166,0.672-0.037,1.216,0.215,1.671c0.251,3.379,0.508,6.757,0.842,10.132c-2.291-8.071-5.058-15.976-9.115-23.297    c-6.437-11.616-16.589-21.798-29.401-25.294c1.941,24.435,17.611,47.243,39.583,58.05c1.89,15.463,4.609,30.869,8.25,46.142    c0.765,3.208,5.568,1.398,4.81-1.782c-2.313-9.701-4.243-19.468-5.834-29.274c20.045-14.353,31.754-39.68,29.475-64.251    c-12.026,5.634-20.29,17.401-24.647,29.946c-3.322,9.565-4.651,19.646-5.499,29.769c-1.571-10.425-2.739-20.891-3.498-31.379    c9.307-37.098,32.648-68.479,65.377-88.26C381.707,191.659,378.737,187.476,375.917,189.18z"/>
		<g>
			<path style="fill:#403C73;" d="M124.676,123.411c-0.021-0.303-0.037-0.531,0.064-0.729c0.227-0.588,0.749-0.776,1.225-0.504     c0.441,0.313,0.812,0.709,1.177,1.026c0.863,0.896,1.802,1.785,2.943,2.28c1.577,0.731,3.819-0.528,3.968-2.257     c0.095-0.847,0.072-1.724-0.025-2.595c-0.026-0.38-0.204-0.749-0.418-1.078c-0.808-1.204-1.833-2.241-2.959-3.081     c-2.405-1.666-4.875-3.177-7.512-4.333c-3.266-1.417-6.395-3.073-9.751-4.141c-1.912-0.594-3.788-1.229-5.592-1.946     c-1.369-0.478-2.667-1.038-3.935-1.714c-1.501-0.737-2.396-2.089-3.138-3.45c-0.61-1.104-0.39-2.34,0.262-3.416     c0.515-0.837,1.146-1.644,1.87-2.228c1.153-0.994,2.708-1.139,4.108-0.777c1.358,0.327,2.515,1.049,3.47,2.168     c0.249,0.287,0.427,0.656,0.149,1.058c-0.278,0.4-0.8,0.59-1.236,0.352c-0.437-0.236-0.842-0.591-1.208-0.91     c-1.097-0.955-2.262-1.256-3.639-0.743c-1.823,0.698-2.63,2.853-1.603,4.462c0.645,1.062,1.539,1.842,2.639,2.301     c1.374,0.555,2.819,1.029,4.229,1.542c1.1,0.459,2.195,0.843,3.331,1.262c1.177,0.454,2.348,0.831,3.524,1.284     c1.217,0.489,2.363,1.061,3.544,1.59c0.553,0.268,1.035,0.616,1.583,0.808c1.834,0.6,3.463,1.519,5.202,2.392     c2.653,1.384,5.104,3.163,7.271,5.266c1.31,1.285,1.911,2.809,1.767,4.612c-0.034,0.614-0.185,1.197-0.26,1.775     c-0.067,1.798-1.221,2.793-2.745,3.394c-0.293,0.173-0.632,0.234-0.891,0.367c-1.033,0.528-1.96,0.363-2.838-0.188     c-0.923-0.662-1.806-1.289-2.694-1.99C125.909,124.701,125.331,124.054,124.676,123.411z"/>
			<path style="fill:#403C73;" d="M150.576,99.992c1.202,1.451,2.405,2.901,3.602,4.429c0.24,0.29,0.315,0.718,0.355,1.104     c-0.062,0.263-0.284,0.586-0.533,0.792c-0.249,0.205-0.655,0.054-0.861-0.195c-0.317-0.298-0.584-0.704-0.894-1.078     c-1.471-1.857-3.059-3.689-4.446-5.616c-1.801-2.425-3.684-4.781-5.884-7.014c-1.08-1.133-1.745-2.609-2.742-3.812     c-1.635-2.142-3.326-4.097-5.044-6.17l-4.193-5.058c-0.894-1.077-1.821-2.198-3.005-3.034c-0.29-0.181-0.571-0.437-0.777-0.685     c-0.385-0.381-0.377-0.877-0.004-1.187c0.988-0.748,1.996-1.306,3.203-1.536c1.696-0.147,3.407-0.446,5.15,0.138     c1.413,0.438,2.652,1.09,3.67,2.064c3.074,3.116,5.865,6.399,8.641,9.833c1.031,1.243,1.227,2.83,1.389,4.374     c0.122,0.738-0.025,1.49-0.088,2.172c-0.191,1.626-0.339,3.219-0.564,4.804l-0.342,1.612L150.576,99.992z M128.644,73.198     c0.233,0.365,0.398,0.649,0.646,0.863c1.217,1.3,2.461,2.716,3.547,4.194c1.216,1.72,2.639,3.268,4.021,4.851     c1.417,1.623,2.95,3.221,4.035,5.119c1.049,1.857,2.549,3.413,3.986,4.809c0.248,0.215,0.475,0.656,0.924,0.354     c0.391-2.144,0.707-4.294,0.609-6.521c-0.032-0.883-0.292-1.787-0.835-2.525c-1.051-1.438-2.012-3.019-3.471-4.188     c-0.496-0.429-0.977-1.01-1.389-1.507c-0.832-0.919-1.684-2.031-2.516-2.95c-1.312-1.5-2.82-2.559-4.681-3.115     C131.804,72.117,130.279,72.472,128.644,73.198z"/>
			<path style="fill:#403C73;" d="M170.823,70.381c-0.338,0.698-0.112,1.189,0.208,1.626c1.177,1.683,2.075,3.527,2.899,5.354     c0.227,0.491,0.454,0.983,0.792,1.347c1.81,2.121,2.738,4.761,4.177,7.101c0.137,0.232,0.3,0.511,0.316,0.751     c0.118,0.306,0.124,0.74,0.074,1.082c-0.058,0.22-0.344,0.265-1.359,0.237c-0.445-0.863-0.872-1.799-1.344-2.709     c-0.917-1.772-1.808-3.497-2.957-5.134c-1.021-1.523-1.764-3.209-2.646-4.815c-1.581-3.006-3.135-5.965-4.781-8.87     c-1.537-2.72-3.195-5.43-4.778-8.123c-0.383-0.648-0.784-1.225-1.167-1.874c-0.881-1.606-1.764-3.212-3.083-4.497     c-0.926-0.83-0.541-1.557,0.194-2.114c0.464-0.273,1.103-0.461,1.723-0.575c0.767-0.077,1.496-0.006,2.244-0.01     c3,0.11,5.306,1.69,7.244,3.924c1.81,2.122,3.295,4.435,4.039,7.184c0.357,1.352,0.292,2.514-0.227,3.757     c-0.454,1.142-0.852,2.376-1.213,3.462c0.552,1.362,1.496,2.118,2.515,2.895c2.166,1.662,4.331,3.325,6.542,4.96     c0.458,0.355,0.871,0.737,1.311,1.166c1.611,1.676,3.473,3.143,5.439,4.36c0.35,0.169,0.633,0.439,0.964,0.683     c0.303,0.196,0.292,0.391,0.284,1.332c-0.704,0.289-1.386,0.191-2.047-0.295c-2.138-1.615-4.229-3.261-6.144-5.133     c-2.143-2.051-4.529-3.77-6.935-5.416C172.374,71.529,171.686,70.998,170.823,70.381z M158.817,51.141     c1.832,2.797,3.637,5.546,5.321,8.303c1.666,2.831,3.211,5.671,4.858,8.575c0.178-0.229,0.363-0.339,0.447-0.514     c0.53-1.436,0.967-2.816,1.496-4.254c0.388-1.039,0.276-1.973-0.084-3.011c-0.876-2.233-2.05-4.229-3.577-6.08     c-0.923-1.144-2.042-1.984-3.273-2.698C162.369,50.487,160.671,50.362,158.817,51.141z"/>
			<path style="fill:#403C73;" d="M191.178,33.43c0.628-0.312,1.1-0.155,1.311,0.223c0.313,0.629,0.107,1.409-0.492,1.653     c-0.449,0.182-1.27-0.124-1.452-0.574C190.383,34.333,190.679,33.631,191.178,33.43z M206.638,73.124     c-0.809-1.997-1.771-4.223-2.569-6.048c-1.102-2.574-1.509-4.153-2.129-6.109c-0.945-3.045-1.868-5.751-3.301-8.714     c-1.081-2.235-2.064-5.091-3.146-7.325c-0.767-1.606-1.629-4.162-2.919-6.195c-0.11-0.129-0.142-0.349-0.152-0.52     c0.038-0.48,0.596-0.823,1.047-0.715c0.33,0.098,0.691,0.417,0.863,0.696c0.322,0.509,0.544,1.057,0.767,1.606l2.822,6.525     c1.415,3.204,3.145,7.325,4.167,9.989c0.861,2.267,1.502,4.563,2.171,6.5c0.354,1.019,0.809,1.995,1.517,3.742     c0.567,1.397,1.465,3.183,2.082,4.561c0.122,0.299,0.263,0.647,0.334,0.969c0.173,0.569-0.125,0.979-0.735,1.053     C207.189,73.191,206.929,73.123,206.638,73.124z"/>
			<path style="fill:#403C73;" d="M224.172,30.009c0.383,1.403,0.637,2.726,1.114,4.054c0.802,2.245,1.277,4.513,1.711,6.844     c0.536,2.53,1.137,5.1,1.463,7.679c0.632,4.829,1.985,9.437,3.194,14.131c0.074,0.314,0.252,0.604,0.326,0.92     c0.11,0.472,0.063,0.98-0.202,1.264c-0.318,0.295-0.71,0.276-1.052,0.467c-0.216-0.447-0.382-0.685-0.455-0.999     c-0.825-3.292-1.623-6.7-2.395-10.005c-0.221-0.943-0.414-2.004-0.464-2.934c-0.278-2.368-0.753-4.636-1.24-6.954     c-0.365-1.796-0.664-3.552-1.029-5.347c-0.794-3.631-2.152-7.073-3.249-10.578c-0.436-1.393-0.779-2.859-1.163-4.264     c-0.073-0.313,0.075-0.626,0.418-0.816l1.064-0.414c0.232,0.277,0.478,0.386,0.54,0.647c1.895,3.374,3.907,6.773,5.407,10.35     c1.211,2.814,2.527,5.604,3.988,8.305c1.182,2.213,2.177,4.579,3.266,6.869c0.012,0.053,0.025,0.104,0.09,0.146     c1.181,2.212,2.321,4.49,3.305,6.804c0.175,0.513,0.483,0.882,0.763,1.371c0.306-0.349,0.115-0.692,0.054-0.954     c-0.275-1.65-0.55-3.3-0.878-4.938c-0.324-1.859-0.754-3.694-1.118-5.49c-0.196-0.839-0.275-1.649-0.447-2.384     c-0.512-2.426-1.023-4.849-1.587-7.262c-0.515-2.202-1.228-4.304-1.678-6.466c-0.548-2.582-1.137-5.1-1.896-7.632     c-0.073-0.314-0.211-0.67-0.168-0.957c0.056-0.233,0.402-0.646,0.547-0.735c0.262-0.062,0.639,0.127,0.792,0.312     c0.218,0.226,0.305,0.593,0.378,0.907c0.417,1.783,0.874,3.502,1.239,5.296c0.613,2.622,1.069,5.281,1.774,7.826     c1.035,3.242,1.585,6.543,2.188,9.83l1.141,4.878c0.147,0.629,0.229,1.218,0.312,1.809l0.477,2.984     c0.267,1.376,0.638,2.728,0.694,4.152c0.051,0.928,0.377,1.847,0.69,2.714c0.212,0.67,0.307,1.312,0.18,1.95     c-1.247,0.347-1.469,0.343-2-0.75c-1.394-2.883-2.734-5.775-4.114-8.605c-0.479-1.105-1.157-2.108-1.688-3.201     c-2.494-5.224-4.883-10.473-7.376-15.696c-0.683-1.499-1.353-2.946-2.063-4.329C224.843,30.516,224.668,30.003,224.172,30.009z"/>
			<path style="fill:#403C73;" d="M272.945,33.491c-1.202-0.251-2.337-0.291-3.564-0.057c-0.32,0.073-0.582,0.197-0.904,0.217     c-0.483,0.028-0.949-0.536-1.029-0.964c-0.025-0.431,0.277-0.771,0.806-0.965c0.265-0.07,0.534-0.087,0.75-0.1     c1.776-0.052,3.557-0.051,5.284-0.046c0.45,0.298,0.586,0.774,0.565,1.315c0.006,3.722,0.494,7.36,0.552,11.025     c0.018,2.103,0.149,4.307,0.332,6.454c0.12,1.988,0.218,2.738,0.068,4.743c-0.065,0.705,0.017,1.186-0.27,1.796     c-0.653,1.712-0.927,2.538-2.9,2.926c-1.3-0.084-2.094,0.18-3.403-0.066c-2.29-0.401-3.73-1.935-4.454-4.104     c-0.571-1.422-0.774-3.028-0.972-4.526c-0.285-2.95-0.465-5.961-0.695-8.914c-0.078-1.29-0.11-2.744-0.188-4.034     c-0.09-1.507-0.126-3.015-0.485-4.503c-0.2-0.636-0.184-1.283-0.226-1.983l-0.329-5.482c-0.039-0.646,0.034-1.243,0.103-1.895     l0.24-3.197c0.12-0.707,0.287-1.527,0.624-2.195c0.81-1.775,2.052-2.658,4.088-2.889c0.269-0.016,0.481-0.082,0.746-0.152     c2.792-0.221,5.292,0.979,6.151,3.624c0.254,0.633,0.255,1.55,0.3,2.302c0.032,0.538-0.322,0.937-0.752,0.963     c-0.427,0.08-1.098-0.312-1.177-0.739s-0.108-0.91-0.083-1.396c-0.064-1.076-0.704-1.848-1.54-2.282     c-1.617-0.875-3.384-0.661-4.908,0.023c-1.097,0.604-1.621,1.77-1.661,2.905c-0.162,1.79-0.271,3.576-0.33,5.307     c0.049,1.724,0.152,3.443,0.198,5.113c-0.041,0.218-0.027,0.433,0.039,0.644c0.442,1.972,0.409,4.131,0.589,6.225     c0.131,2.203,0.425,4.397,0.665,6.595l0.19,3.173c0.147,1.555,0.24,3.113,0.44,4.666c0.217,1.821,1.013,3.392,2.583,4.377     c0.338,0.25,0.725,0.389,0.996,0.426c1.252,0.195,1.692,0.331,3.305,0.234c0.493,0.132,1.058-1.251,1.197-1.636     c0.186-0.498,0.214-0.931,0.182-1.469c0.162-1.789-0.035-2.371-0.09-4.202c-0.02-6.634-0.372-10.714-0.877-16.455     C273.138,34.021,273.018,33.812,272.945,33.491z"/>
			<path style="fill:#403C73;" d="M339.618,24.648c-1.33-0.892-2.872-0.727-4.451-1.069c-0.065-0.183-0.235-0.393-0.338-0.641     c-0.246-1.007-0.01-1.28,1.061-1.12c2.755,0.306,5.3,1.45,7.989,2.24c0.73,0.186,1.5,0.435,2.218,0.672     c0.809,0.315,0.938,0.904,0.388,1.542l-0.746,0.534c-1.266-0.709-2.569-1.482-4.163-1.552c-0.316,1.253-0.673,2.44-0.976,3.641     c-0.778,2.859-1.503,5.73-2.164,8.563c-0.318,1.476-0.478,2.99-0.743,4.478c-0.265,1.268-0.594,2.572-0.963,3.812     c-0.724,2.206-1.278,4.398-1.584,6.71c-0.147,1.24-0.606,2.401-0.91,3.604c-0.607,2.401-1.149,4.764-1.743,7.113     c-0.224,0.888-0.605,1.735-0.986,2.584c-0.184,0.509-0.667,0.664-1.111,0.441c-0.444-0.224-0.626-0.604-0.48-1.178     c0.29-0.926,0.632-1.84,0.935-2.818l1.265-4.347c0.316-1.03,0.593-2.128,0.87-3.224c0.238-0.939,0.488-1.933,0.673-2.885     c0.45-2.22,0.809-4.517,1.689-6.684c0.434-1.057,0.686-2.271,0.806-3.406c0.282-3.096,1.204-6.084,1.904-9.073     c0.555-2.415,1.071-4.896,1.573-7.324C339.683,25.054,339.618,24.871,339.618,24.648z"/>
			<path style="fill:#403C73;" d="M356.646,73.549c0.83-1.988,1.714-4.245,2.432-6.104c1.029-2.605,1.851-4.013,2.788-5.839     c1.473-2.828,2.721-5.399,3.788-8.513c0.805-2.35,2.116-5.069,2.921-7.418c0.586-1.681,1.772-4.104,2.288-6.456     c0.012-0.169,0.145-0.348,0.257-0.476c0.365-0.314,1.003-0.165,1.247,0.229c0.166,0.303,0.198,0.783,0.124,1.102     c-0.129,0.589-0.357,1.135-0.585,1.682l-2.59,6.622c-1.249,3.271-2.921,7.416-4.071,10.03c-0.983,2.215-2.145,4.297-3.032,6.145     c-0.465,0.973-0.83,1.987-1.556,3.726c-0.581,1.393-1.2,3.293-1.731,4.705c-0.124,0.298-0.27,0.646-0.444,0.924     c-0.278,0.525-0.779,0.608-1.263,0.23C356.988,73.983,356.853,73.751,356.646,73.549z M373.604,34.471     c0.667,0.22,0.89,0.663,0.774,1.081c-0.22,0.666-0.917,1.076-1.513,0.827c-0.447-0.187-0.815-0.981-0.628-1.43     C372.403,34.552,373.107,34.263,373.604,34.471z"/>
			<path style="fill:#403C73;" d="M410.409,58.888c-1.792,0.531-3.287,1.503-4.828,2.445c-0.896,0.52-1.912,1.027-2.899,1.49     c-1.165,0.543-1.792,0.023-1.576-1.237c0.371-2.626,0.5-5.274,0.63-7.923c0-0.508-0.092-1.073-0.046-1.553     c-0.525-0.073-0.531,0.239-0.645,0.423c-1.979,3.779-3.913,7.587-6.286,11.184c-2.116,3.187-4.307,6.39-6.332,9.633     c-0.827,1.324-1.488,2.688-2.27,4.042c-1.409,2.357-2.864,4.687-4.244,7c-0.172,0.273-0.388,0.52-0.605,0.764     c-0.319,0.31-0.919,0.252-1.153-0.084c-0.309-0.32-0.394-0.691-0.167-1.057c0.958-1.434,1.952-2.718,2.864-4.179     c0.97-1.554,1.859-3.283,2.857-4.883c2.596-4.155,5.025-8.352,7.895-12.337c0.662-0.856,1.232-1.77,1.739-2.786     c1.489-2.689,2.995-5.304,4.393-8.05c0.508-1.019,0.861-2.193,1.277-3.268c0.205-0.633,0.587-0.84,1.147-0.617l0.411,0.259     c0.651,0.279,0.966,0.794,0.897,1.512c-0.238,3.534-0.448,7.021-0.641,10.584c-0.011,0.119,0.069,0.296,0.166,0.547     c0.502-0.194,1.079-0.405,1.563-0.673l6.249-3.908c0.336-0.233,0.702-0.514,1.05-0.867c0.348-0.354,0.719-0.439,1.152-0.424     c0.571,0.104,0.571,0.104,1.388,0.931c-1.489,1.673-2.567,3.603-3.754,5.401c-2.013,3.122-3.936,6.303-5.949,9.426     c-1.688,2.501-3.085,5.247-5.003,7.604c-0.519,0.629-0.901,1.342-1.209,2.039c-1.158,2.262-2.544,4.379-4.021,6.44     c-1.004,1.404-1.9,2.939-2.858,4.373c-0.171,0.273-0.325,0.622-0.542,0.868c-0.246,0.29-0.839,0.428-1.233,0.245     c-0.32-0.199-0.485-0.747-0.274-1.188c0.171-0.274,0.388-0.519,0.559-0.793c2.453-3.42,4.889-6.914,6.885-10.619l0.741-1.188     c1.215-1.844,2.356-3.67,3.6-5.56c1.375-1.999,2.761-4.117,4.09-6.145c0.844-1.25,1.552-2.586,2.322-3.818l1.455-2.33     C409.605,59.973,410.022,59.407,410.409,58.888z"/>
			<path style="fill:#403C73;" d="M411.214,105.553c0.555,0.43,1.03,0.788,1.622,1.177c0.12,0.108,0.239,0.217,0.396,0.286     l0.639,0.577c0.08,0.072,0.16,0.146,0.24,0.217l0.519,0.469c0.439,0.398,0.878,0.795,1.542,1.106     c0.236,0.14,0.436,0.32,0.708,0.422l0.12,0.108c0.04,0.035,0.04,0.035,0.079,0.071c0.4,0.362,0.387,0.858,0.173,1.174     c-0.212,0.316-0.614,0.678-0.99,0.773c-0.261,0.128-0.789,0.23-1.148-0.095c-0.08-0.073-0.124-0.185-0.207-0.332     c-0.048-0.188-0.168-0.297-0.287-0.405c-0.2-0.179-0.436-0.321-0.672-0.462l-0.076,0.003c-0.041-0.035-0.081-0.072-0.156-0.068     c-0.156-0.068-0.312-0.137-0.432-0.246c-0.04-0.035-0.079-0.07-0.044-0.111c-0.203-0.257-0.482-0.509-0.762-0.763     c-0.439-0.397-0.875-0.719-1.35-1.076c-0.476-0.356-0.911-0.679-1.31-1.039l-0.2-0.182c-0.399-0.361-0.843-0.833-1.329-1.42     c-0.283-0.329-0.133-1.137,0.228-1.536l0.181-0.2c0.036-0.038,0.112-0.042,0.148-0.083c1.644-1.416,3.125-3.054,4.711-4.886     c0.361-0.399,0.726-0.724,1.127-1.086l0.802-0.726c0.324-0.36,0.614-0.68,0.903-1c1.376-1.44,2.792-2.845,4.213-4.175     c0.875-0.806,1.593-1.681,2.236-2.551c2.297-2.86,4.866-5.619,7.326-8.258l0.831-0.918c1.047-1.158,2.127-2.432,3.059-3.622     c0.394-0.515,0.827-0.994,1.221-1.51c0.072-0.08,0.181-0.199,0.249-0.355c0.217-0.239,0.394-0.516,0.574-0.714     c0.257-0.204,0.934-0.391,1.173-0.174l0.04,0.035c0.28,0.254,0.555,0.431,0.947,0.639c0.319,0.29,0.675,0.539,0.994,0.828     l0.399,0.361c0.646,0.729,1.409,1.491,2.127,2.143c0.283,0.328,0.683,0.69,1.002,0.979l0.2,0.18     c0.203,0.257,0.403,0.438,0.566,0.657c0.204,0.258,0.179,0.525,0.118,0.833c-0.025,0.27-0.201,0.544-0.386,0.668     c-0.553,0.37-1.05,0.358-1.37,0.069l-0.199-0.181c-0.419-0.742-0.985-1.4-1.784-2.122l-0.958-0.867     c-0.395-0.285-0.794-0.646-1.158-1.048c-0.12-0.108-0.163-0.221-0.203-0.257c-0.279-0.252-0.551-0.353-0.819-0.378l-0.722,0.798     c-0.579,0.64-1.192,1.318-1.843,2.037l-1.517,1.677c-0.397,0.439-0.758,0.839-1.232,1.282l-0.072,0.079l-2.602,2.875     c-0.578,0.639-1.228,1.357-1.802,2.072l-0.686,0.759c0.28,0.253,0.559,0.506,0.834,0.683c0.871,0.643,1.742,1.284,2.537,1.932     c0.08,0.071,0.159,0.145,0.315,0.213c0.16,0.145,0.355,0.249,0.476,0.357c0.239,0.216,0.522,0.545,0.553,1.154l0.007,0.15     l-0.072,0.081c-0.842,0.69-1.504,1.181-2.183,0.567c-0.119-0.109-0.243-0.293-0.446-0.55c-0.248-0.37-0.65-0.807-1.09-1.203     c-0.679-0.614-1.466-1.109-2.521-1.628c-0.037,0.04-0.072,0.079-0.108,0.12c-1.382,2.089-3.091,3.737-4.876,5.39     c-1.019,0.966-2.034,2.008-3.082,3.166l-4.226,4.671c-0.614,0.679-1.192,1.317-1.734,1.917L411.214,105.553z"/>
		</g>
		<g>
			<path style="fill:#403C73;" d="M443.298,276.485c-29.967,25.678-89.209,46.394-158.735,52.404     c-69.527,6.01-131.444-4.233-165.373-24.388c-0.05,15.9,3.17,194.965,174.028,191.628c0,0,3.884,0.066,5.786-0.182     c1.916-0.082,5.731-0.813,5.731-0.813C473.631,469.101,446.076,292.138,443.298,276.485z"/>
		</g>
		<path style="fill:#00C3C5;" d="M406.832,411.519c0.287-2.75,0.042-9.318-1.186-16.908c-1.346-8.449-3.45-15.308-4.518-17.123    c0.673-0.211,1.369-0.417,2.038-0.63c14.147-4.603,27.404-9.528,39.685-14.568c0.165-0.924,0.326-1.846,0.478-2.765    c-5.15,2.082-10.453,4.148-15.939,6.181c0.435-1.761,0.02-9.083-1.055-17.787c-0.964-7.797-2.17-14.369-3.023-16.81    c8.133-3.042,15.886-6.162,23.27-9.311c0.011-0.843,0.016-1.675,0.018-2.503c-14.415,6.049-30.287,12.006-47.468,17.507    c-0.271,0.084-0.552,0.166-0.823,0.25c0.521-4.077,0.823-13.199-0.056-23.799c-0.287-3.577-0.68-6.966-1.119-10.041    c-0.839,0.346-1.683,0.69-2.534,1.031c0.275,2.872,0.559,5.979,0.821,9.241c0.895,10.775,1.279,20.035,1.768,23.909    c-13.961,4.317-28.667,8.507-44.128,11.943c-5.303,1.189-10.71,2.296-16.161,3.363c0.118-4.252-0.351-13.499-1.291-24.222    c-0.207-2.357-0.424-4.63-0.645-6.803c-0.899,0.182-1.807,0.357-2.712,0.534c0.155,2.091,0.329,4.266,0.526,6.518    c0.948,10.821,2.107,20.084,2.965,24.195c-10.796,2.091-21.837,3.955-33.13,5.475c-8.569,1.108-17.058,2.004-25.445,2.71    c0.015-4.708-0.542-14.005-1.537-24.691c-0.219-2.355-0.447-4.627-0.679-6.808c-0.916,0.06-1.834,0.125-2.747,0.18    c0.177,2.209,0.374,4.51,0.596,6.892c0.994,10.672,2.161,19.902,3.044,24.533c-21.153,1.732-41.627,2.237-60.968,1.734    c0.718-1.474,1.349-12.248,1.449-25.343c0.022-2.807,0.016-5.501-0.011-8.028c-0.903-0.064-1.794-0.142-2.691-0.213    c-0.068,2.582-0.117,5.339-0.139,8.218c-0.1,13.074,0.365,23.841,1.058,25.353c-3.62-0.096-7.21-0.22-10.747-0.385    c-14.391-0.595-28.031-1.898-40.853-3.339c0.492-3.924,0.772-13.71,0.658-25.188c-0.045-4.514-0.146-8.76-0.286-12.499    c-0.846-0.21-1.671-0.431-2.506-0.648c-0.076,3.9-0.098,8.389-0.05,13.175c0.112,11.351,0.577,21.047,1.138,25.046    c-0.386-0.044-0.788-0.084-1.172-0.128c-6.709-0.898-13.197-1.738-19.404-2.727c-5.866-1.029-11.521-1.848-16.895-2.944    c0.143,0.711,0.295,1.431,0.445,2.15c4.326,0.906,8.832,1.673,13.476,2.496c-0.243,3.192-0.054,10.073,0.556,18.045    c0.567,7.411,1.352,13.84,2.042,17.215c-1.804-0.299-3.571-0.591-5.338-0.885c0.059,0.153,0.117,0.307,0.176,0.46    c0.238,0.612,0.48,1.224,0.723,1.836c1.696,0.297,3.381,0.592,5.112,0.898c0.077,0.129,0.151,0.217,0.22,0.211    c0.054-0.004,0.103-0.06,0.149-0.146c0.746,0.133,1.462,0.251,2.215,0.39c5.944,1.002,12.161,1.868,18.572,2.774    c-0.485,3.148-0.792,9.956-0.503,17.871c0.259,7.323,0.958,13.667,1.624,17.037c-2.425-0.323-4.814-0.646-7.182-0.973    c0.601,0.86,1.225,1.71,1.846,2.562c2.011,0.29,4.015,0.58,6.066,0.869c0.059,0.077,0.115,0.124,0.168,0.119    c0.036-0.003,0.067-0.044,0.099-0.081c0.675,0.095,1.324,0.19,2.004,0.286c8.991,1.097,18.449,2.109,28.255,2.886    c-0.06,3.37,0.46,10.281,1.433,18.244c0.768,6.278,1.651,11.848,2.418,15.526c0.331,0.205,0.665,0.408,0.996,0.613    c0.276,0.168,0.557,0.332,0.835,0.498c-0.059-3.668-0.562-9.896-1.428-16.982c-0.947-7.745-2.072-14.433-2.934-17.79    c4.486,0.343,9.024,0.649,13.665,0.863c14.519,0.746,29.781,0.892,45.542,0.376c-0.491,2.144-0.541,9.407-0.067,18.037    c0.41,7.45,1.096,13.841,1.742,16.791c-15.159,0.494-29.856,0.396-43.859-0.258c-4.09-0.169-8.096-0.412-12.065-0.683    c0.044,0.026,0.087,0.052,0.13,0.078c1.546,0.912,3.123,1.799,4.727,2.663c0.084,0.046,0.168,0.092,0.252,0.137    c2.272,0.145,4.515,0.314,6.83,0.421c7.327,0.377,14.848,0.597,22.517,0.665c-0.159,1.743,0.043,4.911,0.612,8.531    c0.137,0.871,0.289,1.696,0.446,2.494c0.673,0.188,1.35,0.372,2.028,0.555c0.268,0.071,0.538,0.139,0.807,0.209    c-0.112-1.148-0.268-2.394-0.474-3.699c-0.541-3.438-1.272-6.404-1.932-8.074c18.287,0.113,37.471-0.72,57.166-2.619    c-0.473,2.147-0.584,8.259,0.242,15.425c0.19,1.676,0.416,3.284,0.664,4.791c0.393-0.005,0.81-0.015,1.225-0.028    c0.085-0.003,0.168-0.006,0.253-0.009c0.427-0.016,0.852-0.036,1.24-0.064c-0.171-1.579-0.36-3.261-0.558-5.012    c-0.819-7.105-1.529-13.14-2.194-15.185c5.722-0.56,11.472-1.179,17.273-1.93c12.72-1.713,25.147-3.843,37.226-6.287    c-0.18,2.174,0.133,6.775,0.891,12.092c0.135,0.948,0.278,1.867,0.425,2.755c0.891-0.369,1.782-0.738,2.657-1.118    c-0.084-0.67-0.169-1.341-0.268-2.038c-0.764-5.36-1.759-9.903-2.543-11.915c4.146-0.847,8.25-1.733,12.308-2.652    c10.077-2.264,19.802-4.869,29.243-7.61c0.154-0.134,0.313-0.266,0.467-0.4c1.206-1.063,2.382-2.141,3.536-3.232    c0.175-0.166,0.356-0.328,0.53-0.494c-5.33,1.563-10.736,3.097-16.264,4.56c0.351-2.86,0.358-9.346-0.043-16.88    c-0.495-9.308-1.438-16.951-2.196-18.12c9.55-2.566,18.828-5.317,27.747-8.142c8.046-2.618,15.78-5.346,23.24-8.134    c0.457-1.029,0.909-2.058,1.344-3.091c0.011-0.027,0.023-0.054,0.034-0.081C423.265,405.992,415.222,408.813,406.832,411.519z     M399.934,339.296c7.741-2.519,15.2-5.137,22.399-7.814c-0.183,2.748,0.251,9.244,1.183,16.786    c1.109,8.978,2.541,16.337,3.383,17.622c-7.861,2.904-16.02,5.749-24.532,8.474c-10.369,3.231-21.186,6.39-32.398,9.249    c0.01-3.51-0.402-9.621-1.172-16.563c-0.901-8.126-2.032-15.05-2.869-17.94C377.726,346.106,389.069,342.738,399.934,339.296z     M353.681,352.052c3.765-0.846,7.476-1.746,11.153-2.673c-0.162,3.078,0.251,9.984,1.139,17.985    c0.787,7.095,1.748,13.257,2.536,16.635c-4.02,1.011-8.089,1.984-12.214,2.9c-13.733,3.079-28.01,5.742-42.664,7.921    c0.504-1.502,0.139-9.071-0.92-18.146c-0.859-7.356-1.933-13.641-2.755-16.481C324.984,357.977,339.62,355.238,353.681,352.052z     M283.741,401.196c7.425-0.658,14.913-1.44,22.476-2.419c13.094-1.763,25.889-3.959,38.302-6.494    c-0.012,2.748,0.817,9.31,1.789,16.976c1.068,8.284,1.973,15.28,2.707,17.447c-12.93,2.659-26.262,4.975-39.936,6.817    c-7.848,1.015-15.619,1.832-23.316,2.508c0.287-3.186,0.212-9.93-0.259-17.74C285.059,410.919,284.378,404.522,283.741,401.196z     M276.535,363.996c0.1,0.244,0.193,0.398,0.273,0.391c0.079-0.008,0.141-0.173,0.193-0.425c8.561-0.705,17.232-1.616,25.983-2.748    c1.945-0.262,3.857-0.568,5.788-0.848c-0.141,2.968,0.261,9.309,1.116,16.637c1.063,9.106,2.457,16.574,3.292,17.883    c-2.442,0.361-4.87,0.741-7.333,1.073c-17.981,2.326-35.612,3.72-52.655,4.344c0.197-3.193-0.045-9.782-0.7-17.389    c-0.665-7.727-1.57-14.348-2.317-17.398C258.821,365.218,267.613,364.724,276.535,363.996z M188.608,364.187    c4.937,0.392,9.934,0.742,15.06,0.978c14.446,0.743,29.628,0.889,45.305,0.383c-0.223,3.102,0.015,9.824,0.686,17.61    c0.65,7.547,1.529,14.04,2.265,17.181c-15.529,0.534-30.574,0.441-44.897-0.228c-6.478-0.268-12.775-0.699-18.949-1.2    c0.558-2.823,1.027-9.481,1.155-17.253C189.364,373.691,189.097,366.898,188.608,364.187z M144.552,393.805    c-0.759-0.133-1.481-0.245-2.234-0.372c0.201-3.343,0.003-10-0.583-17.66c-0.59-7.711-1.415-14.356-2.126-17.605    c0.459,0.083,0.897,0.154,1.359,0.24c6.222,1.049,12.729,1.948,19.46,2.9c8.66,1.056,17.758,2.03,27.175,2.797    c-0.583,2.645-1.081,9.473-1.213,17.509c-0.126,7.714,0.119,14.339,0.578,17.214c-7.934-0.66-15.63-1.451-23.013-2.295    C157.247,395.633,150.76,394.792,144.552,393.805z M221.64,438.082c-3.839-0.098-7.634-0.233-11.38-0.408    c-15.213-0.629-29.619-2.043-43.071-3.581c-0.644-0.086-1.258-0.17-1.898-0.255c0.208-3.343,0.083-9.853-0.181-17.327    c-0.282-7.725-0.639-14.396-1.108-17.603c13.4,1.631,27.745,3.12,42.9,3.819c4.629,0.238,9.354,0.396,14.123,0.513    c-0.497,2.642-0.777,9.355-0.657,17.237C220.494,428.774,221.024,435.78,221.64,438.082z M222.466,438.097    c0.551-2.286,0.871-9.328,0.744-17.664c-0.119-7.847-0.6-14.525-1.173-17.175c19.187,0.434,39.428-0.133,60.323-1.933    c-0.229,3.39-0.135,9.796,0.308,17.136c0.473,7.844,1.214,14.573,1.884,17.684C263.013,437.993,242.159,438.569,222.466,438.097z     M312.312,471.084c-18.372,2.376-36.371,3.773-53.758,4.375c0.322-2.989,0.305-9.437-0.107-16.913    c-0.473-8.601-1.315-15.795-2.036-17.9c17.165-0.585,34.925-1.964,53.039-4.307c3.34-0.45,6.641-0.953,9.941-1.457    c-0.242,2.808,0.081,9.623,0.894,17.564c0.785,7.668,1.804,14.216,2.599,17.091C319.377,470.076,315.864,470.606,312.312,471.084z     M378.011,440.834c0.412,7.748,1.134,14.342,1.802,17.014c-5.592,1.467-11.252,2.887-17.052,4.177    c-12.505,2.804-25.451,5.278-38.729,7.345c0.189-2.999-0.14-9.585-0.92-17.212c-0.817-7.987-1.889-14.755-2.696-17.425    c13.63-2.109,26.915-4.652,39.731-7.556c6.159-1.384,12.162-2.915,18.085-4.501C377.638,424.167,377.527,431.731,378.011,440.834z     M405.6,411.927c-14.529,4.527-29.9,8.94-46.072,12.535c-3.199,0.717-6.447,1.396-9.701,2.07c0.422-2.393,0.359-9.412-0.7-17.634    c-0.987-7.779-2.565-14.282-3.588-16.833c3.826-0.788,7.624-1.601,11.374-2.451c4.208-0.945,8.356-1.951,12.454-2.996    c0.065,0.084,0.127,0.137,0.184,0.131c0.066-0.007,0.121-0.098,0.171-0.226c10.623-2.719,20.854-5.731,30.719-8.822    c-0.108,2.148,1.083,9.093,2.399,17.361c1.25,7.726,2.243,14.318,3,16.786C405.759,411.874,405.681,411.901,405.6,411.927z"/>
		<path style="fill:#F43B95;" d="M260.966,189.202c1.983-12.97,2.652-24.89-1.452-38.436c-3.524-11.63-16.101,5.828-18.767,10.566    c-3.646,6.48-8.499,19.434-5.216,26.903c-4.45-10.122-27.532-31.37-37.236-16.848c-2.696,4.035-2.974,9.306-1.845,14.025    c1.129,4.719,3.523,9.023,5.889,13.259c-1.857-3.325-10.48-6.358-13.886-7.758c-5.157-2.119-10.623-3.514-16.207-3.8    c-4.342-0.223-14.375-1.076-17.431,2.955c-6.025,7.948,13.294,21.459,18.314,25.092c5.626,4.071,11.622,8.271,17.971,11.159    c7.838,3.565,16.172,6.069,24.711,7.23c6.894,0.937,14.142,0.727,19.691-3.651c10.339-8.156,21.748-19.149,24.135-32.728    C260.116,194.457,260.567,191.808,260.966,189.202z"/>
		<path style="fill:#F43B95;" d="M343.627,154.67c10.258,8.198,20.28-1.949,17.053-13.147c-1.459-5.062-4.869-9.31-8.394-13.222    c2.993,3.318,11.16-0.162,14.288-1.696c7.155-3.507,7.402-14.87,0.988-19.121c-6.713-4.449-16.502-2.562-23.095,1.149    c3.132-6.328,4.002-20.478-3.011-25.091c-6.078-3.999-15.076,2.093-17.393,7.88c-2.255,5.632-1.112,12.167,1.633,17.578    c-4.26-7.751-14.179-11.56-22.655-9.567c-9.093,2.137-10.569,13.791-1.88,18.151c3.567,1.789,7.686,2.024,11.671,2.224    c-5.081,1.646-10.384,3.428-14.07,7.292c-3.687,3.864-5.061,10.499-1.522,14.498c2.665,3.011,7.283,3.616,11.156,2.532    c3.872-1.084,7.183-3.555,10.394-5.975c-2.704,4.897-5.483,10.069-5.468,15.664c0.032,12.085,12.718,14.105,19.47,5.4    c3.697-4.766,4.549-11.202,4.001-17.209c0.79,3.905,2.277,7.749,4.871,10.773C342.251,153.465,342.911,154.098,343.627,154.67z"/>
		<path style="fill:#FDA753;" d="M345.53,127.091c-1.37,6.886-8.871,11.911-15.761,10.557c-6.889-1.355-11.93-8.846-10.591-15.738    C322.406,105.308,349.009,109.591,345.53,127.091z"/>
		<path style="fill:#F43B95;" d="M388.975,218.131c9.619,7.688,19.017-1.828,15.991-12.329c-1.368-4.747-4.566-8.731-7.872-12.399    c2.807,3.111,10.466-0.152,13.399-1.59c6.71-3.289,6.941-13.945,0.927-17.931c-6.296-4.172-15.475-2.403-21.658,1.077    c2.938-5.935,3.753-19.204-2.823-23.53c-5.7-3.75-14.138,1.963-16.311,7.389c-2.114,5.282-1.043,11.41,1.531,16.484    c-3.996-7.269-13.297-10.84-21.246-8.972c-8.527,2.005-9.911,12.933-1.762,17.021c3.345,1.678,7.207,1.898,10.945,2.086    c-4.764,1.543-9.737,3.215-13.195,6.838c-3.458,3.623-4.746,9.846-1.427,13.596c2.499,2.824,6.83,3.391,10.462,2.375    c3.632-1.016,6.736-3.334,9.747-5.604c-2.536,4.592-5.142,9.443-5.128,14.689c0.03,11.333,11.927,13.228,18.259,5.064    c3.467-4.47,4.266-10.506,3.752-16.139c0.741,3.662,2.135,7.266,4.568,10.102C387.685,217.001,388.304,217.595,388.975,218.131z"/>
		<path style="fill:#FDA753;" d="M390.76,192.268c-1.284,6.458-8.319,11.17-14.78,9.9c-6.46-1.27-11.188-8.295-9.931-14.759    C369.074,171.84,394.023,175.857,390.76,192.268z"/>
		<path style="fill:#A76BB0;" d="M90.649,266.199c8.387,6.702,16.58-1.594,13.942-10.749c-1.193-4.138-3.98-7.611-6.863-10.81    c2.447,2.712,9.124-0.133,11.682-1.386c5.85-2.867,6.052-12.157,0.808-15.632c-5.489-3.637-13.491-2.095-18.881,0.939    c2.561-5.174,3.271-16.742-2.462-20.514c-4.969-3.269-12.326,1.711-14.22,6.442c-1.843,4.605-0.909,9.948,1.335,14.371    c-3.483-6.337-11.593-9.45-18.522-7.822c-7.434,1.747-8.641,11.275-1.537,14.839c2.917,1.463,6.283,1.655,9.542,1.819    c-4.154,1.346-8.489,2.803-11.504,5.961c-3.014,3.159-4.138,8.583-1.244,11.853c2.179,2.462,5.955,2.956,9.121,2.07    c3.166-0.886,5.873-2.907,8.498-4.886c-2.211,4.003-4.482,8.233-4.471,12.806c0.026,9.88,10.398,11.532,15.918,4.415    c3.022-3.897,3.719-9.159,3.271-14.07c0.646,3.192,1.862,6.335,3.983,8.807C89.525,265.213,90.064,265.731,90.649,266.199z"/>
		<path style="fill:#FDA753;" d="M92.205,243.65c-1.12,5.63-7.253,9.739-12.885,8.631c-5.632-1.107-9.754-7.232-8.658-12.866    C73.3,225.841,95.05,229.343,92.205,243.65z"/>
		<path style="fill:#F43B95;" d="M113.282,212.946c10.258,8.198,20.279-1.949,17.052-13.148c-1.459-5.062-4.869-9.31-8.394-13.222    c2.993,3.318,11.161-0.163,14.289-1.696c7.155-3.507,7.402-14.87,0.988-19.121c-6.713-4.449-16.502-2.562-23.095,1.149    c3.132-6.328,4.002-20.478-3.011-25.091c-6.078-3.999-15.076,2.093-17.393,7.879c-2.255,5.632-1.112,12.167,1.633,17.578    c-4.261-7.751-14.18-11.56-22.656-9.567c-9.093,2.138-10.569,13.791-1.88,18.151c3.567,1.79,7.685,2.024,11.671,2.224    c-5.081,1.646-10.383,3.428-14.07,7.292s-5.061,10.499-1.522,14.498c2.665,3.011,7.283,3.616,11.156,2.532    c3.873-1.084,7.183-3.555,10.394-5.975c-2.704,4.897-5.483,10.069-5.468,15.664c0.032,12.085,12.718,14.105,19.47,5.4    c3.697-4.766,4.549-11.203,4.001-17.209c0.79,3.905,2.277,7.748,4.871,10.773C111.906,211.74,112.566,212.374,113.282,212.946z"/>
		<path style="fill:#FDA753;" d="M115.185,185.366c-1.369,6.886-8.871,11.912-15.761,10.557c-6.889-1.355-11.93-8.846-10.591-15.738    C92.061,163.583,118.664,167.866,115.185,185.366z"/>
	</g>
</g>















</svg>
