<?xml version="1.0" encoding="UTF-8"?>
<!-- Generator: Adobe Illustrator 25.2.1, SVG Export Plug-In . SVG Version: 6.00 Build 0)  -->
<svg xmlns="http://www.w3.org/2000/svg" xmlns:xlink="http://www.w3.org/1999/xlink" version="1.1" id="Capa_1" x="0px" y="0px" viewBox="0 0 512 512" style="enable-background:new 0 0 512 512;" xml:space="preserve" width="512" height="512">
<g>
	<path style="fill:#FFFFFF;" d="M371.376,56.985c2.172-11.686-1.44-25.892-8.507-34.773c-6.962-8.753-18.025-14.42-30.348-15.547   c-7.052-0.645-13.995,0.312-20.076,2.767c-5.54,2.235-10.43,5.726-14.545,10.037c-4.063-6.383-10.908-10.903-19.008-11.643   c-10.177-0.93-19.498,4.352-24.257,12.701c-1.392-10.692-10.033-19.406-21.209-20.428c-12.942-1.183-24.434,8.382-25.617,21.324   c-0.254,2.779,0.014,5.481,0.678,8.038c-11.741,1.197-24.819,3.801-34.775,10.477c-0.075,0.05-0.184,0.125-0.285,0.195   c0.662-12.564-8.724-23.548-21.36-24.703c-12.942-1.183-24.433,8.382-25.617,21.324c-0.663,7.256,2.055,14.054,6.85,18.837   c-2.159,2.763-3.821,5.943-4.826,9.429c-2.528-0.856-5.109-1.457-7.727-1.696c-1.038-0.095-2.083-0.143-3.155-0.139   c-4.462,0.02-8.838,0.923-13.014,2.693c-7.83,3.32-14.738,9.767-19.765,18.219c-3.69-2.401-7.991-3.976-12.671-4.404   c-15.379-1.406-29.035,9.962-30.44,25.339c-1.405,15.369,9.952,29.018,25.319,30.435c-1.879,1.67-3.61,3.503-5.046,5.574   c-2.136,3.083-3.734,6.466-4.815,10.023c-1.219-0.316-2.468-0.564-3.762-0.682c-12.942-1.183-24.431,8.384-25.614,21.326   c-1.183,12.942,8.381,24.431,21.323,25.614c1.083,0.099,2.149,0.096,3.206,0.049c-1.727,3.635-2.438,7.07-2.648,9.915   c-1.106,14.976,10.282,25.996,14.029,29.619c0.147,0.143,0.297,0.287,0.447,0.43c-0.821,1.123-1.569,2.306-2.239,3.534   c-0.312,0.546-0.595,1.105-0.849,1.676c-1.605,3.388-2.587,6.971-2.924,10.665l-17.74,194.068   c-1.305,14.27,7.198,27.708,20.69,32.686c2.77,1.021,5.415,1.635,8.084,1.88l328.531,30.032c2.268,0.207,4.628,0.155,7.011-0.154   c0.193-0.026,0.389-0.053,0.582-0.085c2.761-0.416,5.519-1.233,8.185-2.422c10.543-4.686,17.743-14.692,18.787-26.114L450,289.032   c0.428-4.683-0.176-9.338-1.748-13.687c2.012-2.591,3.719-5.641,4.805-9.212c1.7-5.577,2.375-14.228-3.472-24.543   c12.281-9.322,18.817-23.84,17.091-37.728c9.334-2.441,16.611-10.486,17.539-20.635c1.087-11.899-6.921-22.549-18.275-25.111   c0.435-3.213,0.679-6.454,0.706-9.702c0.09-10.36-2.531-19.959-7.314-27.433c8.135-4.271,14.029-12.431,14.926-22.241   c1.406-15.376-9.963-29.032-25.339-30.438c-10.69-0.977-20.537,4.228-26.025,12.653c-0.906-1.063-1.851-2.093-2.854-3.068   c6.806-3.985,11.673-11.064,12.445-19.499c1.269-13.88-8.992-26.204-22.871-27.473c-13.878-1.269-25.908,9.021-27.47,22.871   c-0.537,4.757-0.045,5.96,0.315,9.884C382.458,63.67,379.543,56.087,371.376,56.985z"/>
	<g>
		<path style="fill:#C5EEF3;" d="M77.777,249.979L254.15,69.834c9.59-9.795,25.741-8.374,33.473,2.945l143.092,209.462"/>
		<g>
			<path style="fill:#403C73;" d="M441.448,127.72c5.005,4.954,6.96,13.17,6.897,20.537c-0.15,17.52-8.209,34.821-21.523,46.209     c7.624-5.28,19.327,0.916,21.411,9.952c2.085,9.036-3.455,18.498-11.176,23.634c-7.721,5.136-17.195,6.796-26.406,7.867     c8.446-0.982,18.054,6.896,22.25,13.439c7.35,11.46,0.545,17.745-10.868,22.431c-14.163,5.816-30.041,7.377-45.066,4.432     c-13.21-2.59-28.282-8.176-39.004-0.036c2.672-8.911,0.893-18.506-1.411-27.519c-2.304-9.013-5.144-18.123-4.539-27.406     s5.595-19.003,14.385-22.048c8.791-3.045,20.375,4.036,19.217,13.265c-1.245-21.52-2.794-67.84,29.642-40.383     c-1.5-16.616,6.443-33.764,20.087-43.365c6.111-4.3,14.107-7.154,21.038-4.362C438.337,125.154,440.017,126.304,441.448,127.72z"/>
			<g>
				<g>
					<path style="fill:#7E9B2D;" d="M421.454,163.956c-0.77-0.288-4.505,9.275-12.278,23.774c-1.023,1.868-2.055,3.753-3.099,5.659       c-1.082,1.963-2.358,3.923-3.588,5.999c-2.409,4.188-5.352,8.429-8.345,12.952c-6.231,8.881-13.552,18.309-21.982,27.564       c-8.511,9.178-17.288,17.268-25.613,24.224c-4.254,3.364-8.233,6.654-12.202,9.407c-1.965,1.401-3.81,2.837-5.675,4.08       c-1.812,1.201-3.603,2.388-5.378,3.564c-13.792,8.966-23.006,13.493-22.655,14.237c0.141,0.306,2.573-0.542,6.873-2.348       c2.163-0.878,4.771-2.038,7.695-3.591c2.936-1.529,6.351-3.163,9.899-5.363c1.859-1.107,3.735-2.224,5.633-3.353       c1.951-1.181,3.881-2.561,5.931-3.915c4.14-2.658,8.286-5.884,12.699-9.217c8.642-6.894,17.7-15.056,26.386-24.425       c8.604-9.445,15.974-19.159,22.116-28.35c2.95-4.678,5.815-9.081,8.115-13.43c1.176-2.157,2.389-4.196,3.401-6.24       c0.966-1.986,1.92-3.949,2.867-5.895c1.893-3.721,3.233-7.261,4.509-10.316c1.301-3.045,2.237-5.741,2.93-7.971       C421.13,166.565,421.77,164.071,421.454,163.956z"/>
				</g>
				<g>
					<path style="fill:#7E9B2D;" d="M348.868,209.19c-0.89,0.124-0.082,11.215,1.804,24.773c1.886,13.557,4.136,24.448,5.026,24.324       s0.082-11.215-1.804-24.772C352.008,219.957,349.758,209.066,348.868,209.19z"/>
				</g>
				<g>
					<path style="fill:#7E9B2D;" d="M407.717,259.466c0.007-0.898-12.22-1.719-27.309-1.833       c-15.089-0.114-27.327,0.521-27.333,1.419c-0.007,0.898,12.22,1.719,27.309,1.833       C395.472,260.999,407.71,260.364,407.717,259.466z"/>
				</g>
				<g>
					<path style="fill:#7E9B2D;" d="M388.611,226.789c0.874-0.037,1.075-11.071-0.742-24.52       c-1.788-13.453-4.886-24.045-5.739-23.851c-0.9,0.197,0.749,10.983,2.516,24.282       C386.443,215.996,387.691,226.836,388.611,226.789z"/>
				</g>
				<g>
					<path style="fill:#7E9B2D;" d="M435.399,216.154c-0.158-0.884-10.749,0.261-23.658,2.558       c-12.908,2.297-23.245,4.875-23.087,5.76c0.158,0.884,10.749-0.261,23.657-2.558       C425.22,219.617,435.557,217.039,435.399,216.154z"/>
				</g>
			</g>
		</g>
		<g>
			<path style="fill:#7E9B2D;" d="M111.724,82.729c-6.484,2.749-11.342,9.657-14.011,16.524     c-6.347,16.331-5.267,35.386,2.885,50.894c-5.127-7.727-18.292-6.305-23.574,1.318c-5.282,7.622-3.64,18.462,1.631,26.093     c5.271,7.63,13.457,12.679,21.617,17.085c-7.482-4.039-19.324-0.279-25.645,4.246c-11.07,7.924-7.076,16.282,1.79,24.86     c11.003,10.646,25.175,17.976,40.223,20.802c13.23,2.485,29.299,2.877,36.245,14.408c0.817-9.267,6.022-17.521,11.5-25.041     c5.478-7.52,11.488-14.931,14.363-23.778c2.875-8.848,1.839-19.723-5.2-25.807c-7.038-6.084-20.421-3.795-22.762,5.208     c9.124-19.529,27.713-61.984-12.584-48.488c7.545-14.879,6.515-33.751-2.604-47.72c-4.085-6.257-10.456-11.868-17.928-11.841     C115.564,81.497,113.577,81.943,111.724,82.729z"/>
			<path style="fill:#403C73;" d="M164.665,269.028c-1.213-1.75-2.438-3.516-3.676-5.302c-1.272-1.846-2.454-3.863-3.761-5.892     c-2.668-4.027-5.146-8.556-7.852-13.256c-1.703-3.151-3.397-6.482-5.077-9.888c2.268-2.73,7.138-10.39,12.414-19.66     c6.772-11.896,11.629-21.9,10.848-22.344c-0.78-0.444-6.903,8.839-13.675,20.735c-4.887,8.585-8.762,16.162-10.256,19.895     c-3.171-6.517-6.258-13.416-9.08-20.724c-2.885-7.678-5.261-15.22-7.288-22.498c2.3-3.835,5.64-9.901,9.466-16.683     c6.565-11.7,12.091-21.109,11.328-21.625c-0.72-0.496-7.52,8.195-14.162,20.03c-3.23,5.728-5.803,11.092-7.514,15.154     c-0.735-2.757-1.415-5.468-2.043-8.121c-1.106-5.309-2.27-10.339-2.957-15.121c-0.374-2.385-0.833-4.677-1.112-6.902     c-0.264-2.157-0.525-4.29-0.783-6.404c-1.852-16.346-1.781-26.612-2.603-26.63c-0.337-0.01-0.666,2.544-0.974,7.198     c-0.182,2.327-0.311,5.178-0.229,8.489c0.054,3.31-0.012,7.095,0.37,11.252c0.158,2.158,0.319,4.336,0.48,6.538     c0.184,2.273,0.556,4.617,0.85,7.056c0.526,4.891,1.558,10.042,2.566,15.48c0.666,3.129,1.438,6.353,2.27,9.622     c-3.348-2.608-9.447-6.745-16.584-11.174c-11.141-6.913-20.556-11.898-21.029-11.135c-0.473,0.763,8.174,6.986,19.314,13.899     c8.184,5.078,15.421,9.106,18.882,10.589c1.946,7.366,4.285,14.986,7.194,22.723c2.621,6.791,5.513,13.218,8.517,19.306     c-4.521-2.094-10.958-4.81-18.182-7.626c-14.059-5.48-25.721-9.245-26.047-8.408c-0.326,0.837,10.807,5.958,24.866,11.439     c8.435,3.288,15.985,5.949,20.763,7.378c1.827,3.586,3.676,7.082,5.551,10.37c2.865,4.73,5.522,9.262,8.384,13.264     c1.404,2.017,2.685,4.013,4.06,5.833c1.344,1.752,2.674,3.484,3.991,5.2c2.481,3.357,5.048,6.139,7.21,8.646     c2.142,2.526,4.135,4.569,5.819,6.185c3.326,3.27,5.271,4.957,5.516,4.726C181.041,290.08,174.157,282.463,164.665,269.028z"/>
		</g>
		<g>
			<path style="fill:#F43B95;" d="M353.984,57.854c-2.044,10.583-8.9,21.872-18.495,27.157c-2.386,1.314-6.558,4.477-9.33,4.165     c-2.726-0.306-5.712-4.069-7.656-5.831c-4.814-4.363-9.963-9.19-12.446-15.34c-2.297-5.688-3.19-12.028-2.725-18.135     c0.747-9.831,6.579-19.677,15.961-23.464c9.453-3.815,22.925-0.754,29.255,7.201C353.867,40.292,355.575,49.459,353.984,57.854z"/>
			<path style="fill:#F43B95;" d="M406.252,124.999c-4.837,4.818-11.961,8.735-18.8,9.633c-2.321,0.305-18.915-0.529-18.937-0.756     c-0.558-7.548-1.458-15.171-1.892-22.691c-0.351-6.086,3.08-12.365,6.873-17.094c5.418-6.755,14.528-11.001,23.207-9.092     c8.744,1.923,16.992,10.823,17.634,19.728C414.878,112.212,411.569,119.704,406.252,124.999z"/>
			<path style="fill:#7E9B2D;" d="M369.923,135.434c-0.016-0.019-0.027-0.042-0.044-0.062c12.481,2.109,25.038,3.761,37.642,4.919     c-4.204-6.555-11.347-11.144-19.057-12.243c-5.914-0.843-12.073,0.395-17.274,3.322c2.938-5.203,4.186-11.369,3.347-17.291     c-1.093-7.71-5.678-14.857-12.23-19.065c1.081,11.856,2.611,23.67,4.534,35.419c-15.286,16.793-34.014,29.85-55.368,38.62     c7.586-25.918,13.381-52.36,17.325-79.161c12.281-5.738,24.369-11.886,36.21-18.485c-8.165-3.457-17.827-3.177-25.778,0.747     c-6.1,3.011-11.091,8.134-14.097,14.228c-0.584-6.779-3.375-13.375-7.973-18.4c-5.985-6.543-14.887-10.311-23.75-10.053     c9.407,11.376,19.264,22.379,29.524,32.991c-5.375,35.783-14.085,70.928-25.973,105.01c0.899-9.333,1.148-18.691-0.116-27.963     c-2.089-15.32-8.729-30.587-20.904-40.117c-8.946,26.91-2.013,58.316,16.985,79.29c-4.864,13.068-10.213,25.964-16.025,38.672     c0.881-9.255,1.114-18.534-0.14-27.728c-2.089-15.32-8.729-30.587-20.904-40.117c-8.811,26.504-2.235,57.383,16.115,78.348     c-5.048,10.473-10.39,20.821-16.084,31.003c-1.756,3.141,2.814,6.438,4.584,3.273c5.564-9.95,10.798-20.053,15.755-30.274     c29.065-0.648,57.23-18.293,70.191-44.357c-15.353-1.824-30.825,4.322-43.107,13.715c-9.688,7.409-17.676,16.716-25.092,26.446     c7.161-15.068,13.67-30.406,19.505-45.982c28.56-1.179,56.027-18.655,68.778-44.296c-15.353-1.824-30.825,4.322-43.107,13.715     c-8.897,6.804-16.35,15.216-23.254,24.079c3.306-9.152,6.405-18.374,9.252-27.674     C332.731,167.191,353.269,153.371,369.923,135.434z"/>
		</g>
		<g>
			<path style="fill:#F43B95;" d="M165.031,73.665c-0.488,5.336-5.209,9.266-10.545,8.779c-5.336-0.488-9.266-5.209-8.778-10.545     c0.488-5.336,5.209-9.266,10.545-8.779C161.589,63.608,165.519,68.329,165.031,73.665z"/>
			<path style="fill:#FDA753;" d="M456.031,97.076c-0.488,5.336-5.209,9.266-10.545,8.779c-5.336-0.488-9.266-5.209-8.779-10.545     s5.209-9.266,10.545-8.779C452.589,87.018,456.519,91.74,456.031,97.076z"/>
			<path style="fill:#F43B95;" d="M414.257,56.722c-0.351,3.835-3.743,6.66-7.578,6.309c-3.835-0.351-6.659-3.744-6.309-7.578     c0.351-3.835,3.743-6.66,7.578-6.309C411.783,49.494,414.607,52.887,414.257,56.722z"/>
			<path style="fill:#FDA753;" d="M283.536,33.632c-0.35,3.835-3.743,6.66-7.578,6.309c-3.835-0.351-6.659-3.744-6.309-7.578     c0.351-3.835,3.743-6.66,7.578-6.309C281.062,26.404,283.886,29.797,283.536,33.632z"/>
			<path style="fill:#FDA753;" d="M79.254,108.466c-0.488,5.336-5.209,9.266-10.545,8.778c-5.336-0.488-9.267-5.209-8.778-10.545     c0.488-5.336,5.209-9.266,10.545-8.778C75.812,98.408,79.742,103.129,79.254,108.466z"/>
			<path style="fill:#FDA753;" d="M155.165,39.38c-0.265,2.895-2.826,5.028-5.722,4.763c-2.895-0.264-5.028-2.826-4.763-5.722     c0.264-2.895,2.826-5.028,5.722-4.763C153.297,33.922,155.43,36.484,155.165,39.38z"/>
			<path style="fill:#F43B95;" d="M236.523,24.048c-0.265,2.895-2.826,5.028-5.722,4.763c-2.896-0.265-5.028-2.826-4.763-5.722     c0.265-2.896,2.826-5.028,5.722-4.763C234.655,18.59,236.787,21.152,236.523,24.048z"/>
			<path style="fill:#F43B95;" d="M465.987,181.562c-0.265,2.895-2.826,5.028-5.722,4.763c-2.895-0.265-5.028-2.826-4.763-5.722     s2.826-5.028,5.722-4.763C464.119,176.105,466.252,178.666,465.987,181.562z"/>
			<path style="fill:#F43B95;" d="M355.682,110.495c-0.265,2.895-2.826,5.028-5.722,4.763c-2.895-0.264-5.028-2.826-4.763-5.722     c0.265-2.895,2.826-5.028,5.722-4.763C353.814,105.038,355.947,107.599,355.682,110.495z"/>
			<path style="fill:#F43B95;" d="M56.497,174.332c-0.264,2.896-2.826,5.028-5.722,4.763c-2.895-0.265-5.028-2.826-4.763-5.722     c0.265-2.895,2.826-5.028,5.722-4.763C54.629,168.875,56.762,171.436,56.497,174.332z"/>
			<path style="fill:#F43B95;" d="M406.678,63.031c3.835,0.351,7.228-2.474,7.579-6.309c0.351-3.835-2.474-7.228-6.309-7.578     c-3.835-0.351-7.228,2.474-7.578,6.309C400.019,59.287,402.844,62.68,406.678,63.031z"/>
		</g>
		<g>
			<path style="fill:#403C73;" d="M252.219,172.309c-22.589,14.054-37.603,38.946-41.071,65.223     c-4.364-42.746,0.978-86.074,16.062-127.016c1.257-3.412-4.017-5.39-5.272-1.985c-10.88,29.532-16.805,60.357-17.765,91.328     c-5.132-28.534-24.388-54.609-50.915-66.628c-2.882,18.403,8.146,36.083,20.631,49.907c10.389,11.502,22.309,22.13,30.339,35.195     c0.85,25.68,5.073,51.304,12.822,76.22c1.062,3.416,6.623,2.471,5.544-0.997c-3.441-11.064-6.184-22.264-8.252-33.541     c6.339-12.62,15.852-23.784,23.947-35.53C248.861,209.148,257.482,190.178,252.219,172.309z"/>
			<g>
				<path style="fill:#F43B95;" d="M200.581,144.731c2.779,3.677,5.912,6.621,9.377,7.853c12.528,4.454,31.253,0.518,43.663-2.656      c14.151-3.618,27.696-9.635,39.951-17.571c7.588-4.914,15.082-11.1,17.802-19.721c4.129-13.085-4.11-26.9-13.914-36.499      c-17.367-17.006-41.093-26.901-65.237-28.597c-10.249-0.72-20.806-0.709-30.884,1.512c-7.053,1.555-16.277,3.538-21.246,9.339      c-4.631,5.407-2.905,15.161-2.359,21.9c1.199,14.792,5.104,29.412,11.281,42.898      C191.605,128.844,195.503,138.013,200.581,144.731z"/>
				<g>
					<path style="fill:#FFBB58;" d="M220.377,114.392c5.705-15.264,11.154-28.975,15.149-38.883c1.501-3.75,3.067-7.66,4.704-11.749       c1.091-2.784,1.636-4.35,1.513-4.404s-0.903,1.408-2.209,4.1c-1.311,2.69-3.118,6.624-5.279,11.517       c-4.326,9.784-9.989,23.443-15.706,38.737c-5.185,13.893-9.504,26.705-12.613,36.605c0.412,0.316,0.83,0.611,1.253,0.882       C210.593,141.35,215.128,128.46,220.377,114.392z"/>
					<path style="fill:#FFBB58;" d="M196.809,121.225c-0.269-7.007-0.21-14.723,0.445-22.788c0.719-8.06,1.967-15.676,3.416-22.536       c1.538-6.841,3.227-12.938,4.931-17.967c1.379-4.143,2.651-7.547,3.666-10.184c-0.355,0.041-0.708,0.092-1.062,0.137       c-0.405,0.874-0.823,1.823-1.248,2.879c-0.808,1.965-1.803,4.178-2.66,6.715c-1.885,5.014-3.731,11.132-5.382,18.026       c-1.563,6.912-2.879,14.611-3.606,22.765c-0.662,8.16-0.667,15.97-0.296,23.047c0.452,6.937,1.218,13.157,2.2,18.356       c0.603,1.006,1.23,1.986,1.876,2.941c-0.153-0.923-0.307-1.848-0.46-2.848C197.801,134.521,197.167,128.227,196.809,121.225z"/>
					<path style="fill:#FFBB58;" d="M214.755,152.941c1.71-1.025,3.7-2.132,5.765-3.562c4.228-2.718,9.042-6.294,14.14-10.567       c5.041-4.336,10.333-9.407,15.43-15.155c5.051-5.789,9.405-11.685,13.062-17.239c3.587-5.601,6.52-10.833,8.675-15.373       c1.155-2.231,1.999-4.346,2.798-6.173c0.813-1.821,1.415-3.43,1.873-4.758c0.944-2.644,1.404-4.124,1.278-4.172       c-0.328-0.128-2.547,5.661-7.179,14.479c-2.293,4.42-5.318,9.523-8.945,15.006c-3.698,5.436-8.04,11.223-13.028,16.941       c-5.034,5.677-10.22,10.721-15.139,15.082c-4.975,4.297-9.65,7.949-13.741,10.787c-2.9,2.034-5.437,3.701-7.524,5.038       c0.457,0.121,0.931,0.217,1.4,0.319C214.001,153.376,214.354,153.185,214.755,152.941z"/>
					<path style="fill:#FFBB58;" d="M261.512,141.97c7.254-4.372,13.714-9.235,19.256-14.03c2.694-2.485,5.301-4.797,7.499-7.208       c2.307-2.303,4.27-4.618,6.038-6.75c1.838-2.072,3.251-4.148,4.567-5.906c1.335-1.746,2.362-3.335,3.161-4.661       c1.635-2.624,2.482-4.104,2.368-4.176c-0.324-0.215-3.926,5.601-11.145,13.847c-1.815,2.052-3.813,4.286-6.142,6.511       c-2.219,2.333-4.834,4.57-7.524,6.985c-5.532,4.655-11.928,9.402-19.076,13.711c-7.194,4.233-14.413,7.596-21.141,10.243       c-3.405,1.214-6.617,2.448-9.725,3.288c-0.756,0.244-1.471,0.424-2.208,0.636c2.852-0.156,5.734-0.466,8.584-0.881       c1.308-0.442,2.62-0.894,3.982-1.36C246.86,149.63,254.213,146.265,261.512,141.97z"/>
				</g>
				<path style="fill:#FDA753;" d="M293.426,109.586c5.985,1.072,12.239,1.994,18.284,1.737c3.205-12.69-4.774-25.907-14.251-35.187      c-17.367-17.006-41.093-26.902-65.237-28.597c-10.249-0.72-20.806-0.709-30.883,1.512c-6.369,1.404-14.479,3.187-19.656,7.785      c11.632,14.23,27.177,25.289,43.882,33.182C246.915,100.104,270.184,105.424,293.426,109.586z"/>
				<g>
					<g>
						<path style="fill:#F43B95;" d="M228.613,62.393c0.493-1.254-2.827-3.733-7.416-5.537c-4.588-1.804-8.708-2.251-9.201-0.997        c-0.493,1.254,2.827,3.733,7.416,5.537C224.001,63.2,228.12,63.647,228.613,62.393z"/>
					</g>
					<g>
						<path style="fill:#F43B95;" d="M260.291,76.156c0.354-1.3-2.561-3.227-6.511-4.303c-3.95-1.077-7.44-0.896-7.794,0.404        c-0.355,1.3,2.56,3.226,6.51,4.303C256.447,77.636,259.937,77.456,260.291,76.156z"/>
					</g>
					<g>
						<path style="fill:#F43B95;" d="M233.457,81.126c0.472-1.262-2.222-3.435-6.016-4.854c-3.794-1.419-7.253-1.546-7.725-0.284        c-0.472,1.262,2.222,3.435,6.016,4.854C229.527,82.261,232.986,82.388,233.457,81.126z"/>
					</g>
					<g>
						<path style="fill:#F43B95;" d="M259.828,64.191c0.506-1.248-2.687-3.722-7.132-5.526c-4.445-1.803-8.46-2.253-8.966-1.005        c-0.506,1.248,2.686,3.722,7.132,5.526C255.308,64.99,259.322,65.44,259.828,64.191z"/>
					</g>
					<g>
						<path style="fill:#F43B95;" d="M289.859,84.17c0.687-1.159-0.796-3.307-3.311-4.799c-2.516-1.492-5.112-1.761-5.8-0.603        c-0.687,1.159,0.796,3.307,3.311,4.799C286.576,85.059,289.172,85.329,289.859,84.17z"/>
					</g>
					<g>
						<path style="fill:#F43B95;" d="M277.919,98.731c0.305-1.312-2.664-3.123-6.631-4.045c-3.967-0.921-7.43-0.604-7.735,0.708        c-0.305,1.312,2.665,3.123,6.632,4.044C274.151,100.36,277.614,100.043,277.919,98.731z"/>
					</g>
					<g>
						<path style="fill:#F43B95;" d="M301.565,100.336c0.494-1.253-2.925-3.775-7.637-5.631c-4.711-1.857-8.931-2.346-9.425-1.092        c-0.494,1.253,2.925,3.774,7.637,5.631C296.851,101.1,301.071,101.589,301.565,100.336z"/>
					</g>
				</g>
			</g>
			<path style="fill:#403C73;" d="M245.256,141.108c4.472,1.429,8.574,4.136,5.635,9.022c-1.93,3.21-7.737,4.264-11.014,5.293     c-9.323,2.93-24.908,6.089-33.127,0.04c-9.097-6.695-16.462-16.073-20.866-26.47c-0.783-1.849-1.473-3.828-1.252-5.825     c0.221-1.996,1.603-3.995,3.588-4.306c1.836-0.288,3.562,0.872,5,2.048c5.767,4.718,10.496,10.697,13.759,17.396     c-2.911-5.978,0.887-16.999,5.177-21.445c4.739-4.911,10.593-1.747,11.455,4.287c1.034,7.24-0.103,15.934-3.123,22.61     c1.964-4.341,15-4.386,18.705-3.937C240.777,140.013,243.061,140.406,245.256,141.108z"/>
		</g>
		<g>
			<path style="fill:#A76BB0;" d="M408.492,494.484L61.697,462.782c-2.381-0.218-4.134-2.324-3.917-4.705l19.41-212.335     c0.218-2.381,2.324-4.134,4.705-3.917l346.795,31.702c2.381,0.218,4.134,2.324,3.917,4.705l-19.41,212.334     C412.979,492.948,410.873,494.701,408.492,494.484z"/>
			<g>
				<path style="fill:#FFFFFF;" d="M309.864,354.077l124.477-77.387c-0.617-1.124-1.428-2.114-2.321-3.027l-124.396,77.336      C308.38,351.994,309.143,353.018,309.864,354.077z"/>
				<path style="fill:#FFFFFF;" d="M183.869,339.109c0.189-0.326,0.376-0.654,0.607-0.958L78.58,241.703      c-1.027,0.708-1.981,1.514-2.782,2.476l106.212,96.737C182.618,340.301,183.244,339.706,183.869,339.109z"/>
				<path style="fill:#FFFFFF;" d="M406.17,495.31L269.21,292.044c-3.995-5.927-10.333-9.68-17.403-10.304      c-7.065-0.621-13.964,1.97-18.931,7.109L63.794,463.766c1.015,0.763,2.141,1.373,3.356,1.826l168.342-174.151      c4.195-4.338,10.023-6.528,15.991-6.002c0.022,0.002,0.044,0.004,0.069,0.006c5.941,0.543,11.268,3.711,14.63,8.698      L402.468,496.41C403.771,496.236,405.001,495.838,406.17,495.31z"/>
			</g>
		</g>
	</g>
</g>















</svg>
