<?xml version="1.0" encoding="UTF-8"?>
<!-- Generator: Adobe Illustrator 25.2.1, SVG Export Plug-In . SVG Version: 6.00 Build 0)  -->
<svg xmlns="http://www.w3.org/2000/svg" xmlns:xlink="http://www.w3.org/1999/xlink" version="1.1" id="Capa_1" x="0px" y="0px" viewBox="0 0 512 512" style="enable-background:new 0 0 512 512;" xml:space="preserve" width="512" height="512">
<g>
	<path style="fill:#FFFFFF;" d="M8.759,232.215c0.014,0.034,0.091,0.203,0.106,0.236l0.237,0.53   c4.797,10.433,11.429,20.318,19.172,28.585c1.813,1.936,3.818,3.796,6.244,5.786c0.331,0.306,0.674,0.601,1.029,0.884   c0.835,0.663,1.679,1.312,2.542,1.941c0.372,0.27,0.751,0.525,1.137,0.764c0.295,0.21,0.595,0.417,0.895,0.624   c-8.831,6.175-16.574,14.406-22.642,24.135c-0.199,0.311-0.398,0.622-0.611,0.977c-0.223,0.367-0.437,0.741-0.65,1.117   l-0.161,0.283c-6.497,11.14-10.554,22.519-12.055,33.826l-0.125,0.92c-0.763,5.512-2.353,16.979,5.613,26.158   c5.915,6.815,14.375,10.038,19.973,12.17l0.729,0.278c12.067,4.622,24.821,6.967,37.907,6.967c10.239,0,20.405-1.455,30.229-4.328   c1.053-0.309,2.089-0.655,3.14-1.015c0.945-0.326,1.881-0.679,2.813-1.044c0.048-0.019,0.096-0.037,0.144-0.057   c1.35-0.533,2.696-1.113,4.027-1.734c8.776,12.699,23.376,21.053,38.447,21.053c1.365,0,2.742-0.067,4.094-0.199   c1.144-0.113,2.293-0.272,3.442-0.478c0.36,1.112,0.755,2.199,1.194,3.263c2.638,6.403,6.905,12.087,12.314,16.639   c-1.288,3.838-2.339,7.694-3.14,11.55c-5.512,26.506-1.482,54.159,11.067,75.89c0.842,1.456,3.411,5.886,8.719,8.75   c3.097,1.673,6.503,2.522,10.122,2.522c2.171,0,3.945-0.309,5.107-0.546c11.945-2.436,21.222-9.249,28.725-15.593   c5.898-4.989,12.647-11.203,17.982-19.449c0.331-0.511,0.641-1.03,1.012-1.674c0.521-0.84,1.024-1.685,1.519-2.533   c2.175-3.736,4.123-7.603,5.836-11.585c3.768,3.916,7.709,7.505,11.739,10.674l0.206,0.164c0.359,0.286,0.719,0.57,1.046,0.819   c9.174,6.998,18.824,11.949,28.687,14.715c4.48,1.256,9.812,2.54,15.375,2.54c2.209,0,4.348-0.204,6.363-0.607   c10.64-2.127,16.802-9.911,20.481-14.56l0.662-0.832c7.169-8.95,12.597-19.496,15.687-30.475c0.298-1.048,0.557-2.102,0.804-3.123   c0.117-0.444,0.23-0.888,0.328-1.322c2.322-10.38,2.528-20.451,2.449-28.073c-0.091-8.257-0.571-19.161-3.531-30.287   c-0.014-0.056-0.029-0.114-0.046-0.172c3.975-4.544,7.085-9.787,9.124-15.473c3.08-8.576,3.751-17.998,2.185-27.257   c8.903-3.092,16.792-8.25,22.853-15.125c14.578-16.538,16.217-41.803,3.811-58.767c-0.679-0.929-1.401-1.837-2.163-2.724   c0.774-0.874,1.509-1.769,2.199-2.686c2.272-3.009,4.126-6.336,5.529-9.881c3.696-0.603,7.155-1.633,10.342-3.086   c0.262-0.12,0.52-0.245,0.775-0.374c4.96,10.556,15.579,17.502,27.655,17.502c2.334,0,4.675-0.269,6.958-0.801   c16.425-3.832,26.674-20.312,22.846-36.745c-0.343-1.471-0.786-2.896-1.321-4.267c4.555,2.66,9.846,4.155,15.451,4.155   c2.334,0,4.672-0.27,6.958-0.802c7.958-1.856,14.717-6.7,19.032-13.639c4.315-6.94,5.668-15.146,3.814-23.101   c-3.207-13.758-15.2-23.417-29.27-23.647c2.497-5.909,3.068-12.434,1.583-18.799c-3.245-13.926-15.492-23.651-29.785-23.651   c-2.334,0-4.675,0.27-6.958,0.801c-8.812,2.055-15.924,7.747-19.961,15.234c-7.378,2.209-14.279,5.05-20.606,8.489   c-3.624,1.966-7.126,4.215-10.415,6.67c0.082-6.107-1.139-12.143-5.308-17.115c-1.681-2.004-3.703-3.636-5.946-4.839   c-0.496-1.636-1.228-3.217-2.19-4.695c-1.472-2.261-3.387-4.123-5.584-5.512c10.645-8.918,18.358-18.753,23.362-29.729   c2.945-6.463,1.914-14.043-2.651-19.482c-4.567-5.442-11.853-7.768-18.728-5.992c-8.155,2.112-18.829,5.465-30.133,10.608   c0.271-1.212,0.525-2.435,0.763-3.666c2.831-14.773,3.84-36.599-7.433-56.696c-2.953-5.263-8.294-8.745-14.3-9.323   c-5.996-0.582-11.914,1.821-15.816,6.422c-3.732,4.403-6.807,9.403-9.22,14.98c-3.655-3.278-8.546-5.02-13.609-4.66   c-7.083,0.505-13.245,5.037-15.84,11.647c-3.598,9.176-5.392,19.121-5.38,30.006c-6.529,0.935-12.1,5.307-14.535,11.508   c-2.746,7-4.44,14.601-5.068,22.717c-4.759,2.135-9.246,4.985-13.322,8.432c-7.184-6.076-15.648-10.299-24.614-12.015   c-2.91-0.556-5.91-0.838-8.92-0.838c-19.035,0-36.564,11.032-43.618,27.449c-0.055,0.131-0.11,0.261-0.166,0.392   c-0.139-0.022-0.281-0.042-0.42-0.062c-1.969-0.283-3.979-0.425-5.98-0.425c-19.035,0-37.18,12.904-44.124,31.38   c-0.868,2.307-1.559,4.682-2.08,7.099c-8.788-3.753-18.536-6.102-29.051-6.999c-0.345-0.046-0.695-0.083-1.05-0.109l-2.154-0.141   c-0.098-0.006-0.362-0.023-0.461-0.029c-0.269-0.014-0.535-0.023-0.803-0.025c-6.591-0.29-13.235-0.021-19.759,0.797   c-14.55,1.826-26.365,5.833-36.115,12.252l-0.638,0.419c-4.246,2.77-13.079,8.533-14.476,21.309   c-1.346,12.272,0.859,24.534,2.943,32.662C4.614,221.942,6.433,227.046,8.759,232.215z"/>
	<g>
		<path style="fill:#403C73;" d="M226.451,364.02c-21.137,13.472-38.474,37.061-43.613,61.776    c-4.409,21.204-1.86,44.151,8.971,62.906c0.397,0.687,0.837,1.4,1.535,1.777c0.837,0.452,1.859,0.324,2.792,0.134    c7.781-1.586,14.446-6.479,20.509-11.607c5.388-4.557,10.583-9.47,14.415-15.395c17.654-27.293,18.011-61.514,8.227-91.77"/>
		<path style="fill:#403C73;" d="M128.051,282.269c-19.406-8.38-38.442-8.334-58.551-3.965    c-15.708,3.413-28.64,14.263-36.856,27.881c-5.175,8.578-9.057,18.165-10.379,28.138c-0.54,4.074-1.569,9.466,1.137,12.585    c3.062,3.528,9.143,5.697,13.378,7.32c17.962,6.882,37.914,7.56,56.358,2.165c15.803-4.622,29.302-16.838,37.156-31.298    c5.29-9.738,8.436-20.483,11.105-31.239"/>
		<path style="fill:#777D1E;" d="M135.965,269.825c-17.231,4.157-37.067,4.987-54.266,0.065    c-14.012-4.011-29.759-10.002-39.977-20.913c-9.379-10.014-17.093-23.157-20.523-36.515c-2.086-8.121-3.4-17.65-2.476-26.072    c0.484-4.412,3.363-5.999,6.933-8.349c8.339-5.489,18.467-8.13,28.279-9.36c15.732-1.973,32.844-0.419,47.173,6.753    c19.563,9.792,36.282,26.316,43.486,46.972"/>
		<g>
			<path style="fill:#403C73;" d="M471.046,189.602c-1.367-0.304-2.759-0.614-4.187-0.932c-1.538-0.3-3.223-0.542-5.029-0.84     c-3.618-0.546-7.727-1.314-12.326-1.68c-2.35-0.231-4.751-0.467-7.207-0.707c-2.508-0.229-5.13-0.273-7.839-0.419     c-5.421-0.36-11.222-0.235-17.329-0.195c-8.5,0.276-17.607,0.982-27.031,2.2c1.126-1.618,2.904-4.341,5.611-7.585     c4.444-5.424,11.759-11.974,21.185-17.097c9.435-5.131,18.842-8.137,25.665-10.231c6.844-2.072,11.149-3.309,11.036-3.877     c-0.099-0.514-4.589-0.262-11.726,1.136c-7.1,1.421-16.973,4.076-26.893,9.465c-9.931,5.388-17.446,12.743-21.525,18.903     c-2.846,4.216-4.225,7.632-4.687,9.444c-3.669,0.493-7.378,1.055-11.131,1.724c-10.611,1.987-20.682,4.573-30.01,7.444     c7.49-4.837,13.9-11.708,19.547-18.723c5.415-6.727,7.844-12.295,9.275-20.662c0.335-1.958,2.782-14.536-1.978-13.516     c-9.065,1.949-17.182,10.741-22.264,18.024c-6.378,9.139-10.327,19.742-13.546,30.412c-0.881,2.921-1.845,5.952-3.302,8.609     c-4.311,1.59-8.438,3.14-12.248,4.877c-2.483,1.095-4.919,2.064-7.184,3.165c-2.211,1.094-4.374,2.164-6.491,3.211     c-4.171,1.969-7.743,4.141-10.934,5.931c-1.584,0.917-3.074,1.74-4.406,2.565c-1.223,0.803-2.416,1.585-3.586,2.353     c-4.292,2.851-6.586,4.532-6.438,4.765c0.375,0.607,10.024-5.411,26.592-13.068c2.128-0.959,4.302-1.94,6.526-2.942     c2.272-1.015,4.709-1.9,7.188-2.916c3.981-1.69,8.301-3.187,12.799-4.751c2.297,1.222,4.476,2.804,6.561,4.351     c8.95,6.64,18.446,12.792,29.018,16.319c8.424,2.811,20.185,5.022,28.622,1.176c4.428-2.022-5.041-10.654-6.479-12.026     c-6.141-5.86-11.413-8.879-19.773-11.045c-7.39-1.915-15.157-3.421-22.771-3.48c8.205-2.31,16.887-4.433,26.001-6.14     c3.687-0.657,7.329-1.219,10.932-1.719c0.532,1.558,1.511,3.783,3.041,6.46c1.442,2.558,3.457,5.434,5.952,8.424     c2.539,2.949,5.586,5.987,9.103,8.798c3.545,2.777,7.202,5.044,10.655,6.838c3.484,1.741,6.746,3.041,9.567,3.856     c5.639,1.667,9.296,1.787,9.389,1.306c0.13-0.597-3.257-1.695-8.411-3.958c-2.585-1.114-5.573-2.616-8.787-4.44     c-3.185-1.879-6.578-4.11-9.933-6.736c-3.327-2.661-6.278-5.451-8.839-8.118c-2.514-2.708-4.663-5.271-6.341-7.531     c-1.569-2.083-2.794-3.832-3.727-5.107c9.164-1.22,18.021-1.997,26.301-2.406c6.02-0.138,11.744-0.387,17.102-0.173     c2.678,0.073,5.271,0.039,7.755,0.185c2.434,0.151,4.815,0.299,7.145,0.444c18.206,1.301,29.359,3.517,29.496,2.817     C478.809,191.512,476.07,190.751,471.046,189.602z"/>
			
				<ellipse transform="matrix(0.5281 -0.8492 0.8492 0.5281 87.8243 455.4738)" style="fill:#F43D83;" cx="453.707" cy="148.72" rx="12.173" ry="12.173"/>
			<path style="fill:#F43D83;" d="M449.316,226.06c1.527,6.547-2.544,13.093-9.091,14.619c-6.547,1.526-13.093-2.544-14.619-9.091     c-1.527-6.547,2.543-13.093,9.091-14.619C441.244,215.442,447.79,219.512,449.316,226.06z"/>
			
				<ellipse transform="matrix(0.5281 -0.8492 0.8492 0.5281 64.8458 499.0175)" style="fill:#F43D83;" cx="481.395" cy="191.166" rx="12.173" ry="12.173"/>
		</g>
		<path style="fill:#00C1D5;" d="M237.952,424.722c-7.787-10.195-15.288-17.91-17.806-19.844    c3.748-11.47,7.313-21.688,10.091-29.492c1-2.812,1.887-5.305,2.643-7.449l-1.228-0.748c-0.935,2.135-2.003,4.655-3.176,7.525    c-3.141,7.676-6.963,17.827-10.809,29.293c-2.741-0.504-13.14-0.618-25.535,0.386c-0.607,0.049-1.201,0.101-1.798,0.153    c-0.458,0.921-0.918,1.84-1.344,2.772c1.101-0.088,2.216-0.178,3.356-0.268c11.984-0.971,22.071-1.718,25.099-2.376    c-0.905,2.71-1.81,5.469-2.708,8.31c-1.38,4.378-2.653,8.633-3.838,12.745c-2.351-0.296-10.749,0.318-20.581,2.433    c-2.974,0.632-5.769,1.336-8.285,2.044c-0.138,0.86-0.257,1.722-0.372,2.586c2.778-0.622,5.897-1.319,9.215-2.024    c9.293-2,17.225-3.425,19.811-4.294c-2.815,9.82-5.068,18.697-6.664,25.735c-2.305,10.15-3.353,16.506-3.013,16.582    c0.378,0.085,2.074-6.118,4.839-16.121c1.79-6.482,4.068-14.567,6.74-23.552c1.875,3.768,6.118,11.096,11.094,19.513    c3.068,5.178,5.908,9.915,8.201,13.603c0.429-0.692,0.843-1.39,1.251-2.09c-1.907-3.689-4.353-8.136-7.158-12.871    c-5.413-9.157-10.548-16.66-12.967-19.559c1.335-4.465,2.754-9.119,4.27-13.929c0.871-2.758,1.738-5.44,2.598-8.08    c2.013,3.028,8.582,10.974,15.96,20.636c2.557,3.33,4.933,6.503,7.06,9.36c0.258-1.075,0.475-2.159,0.696-3.242    C241.892,430.005,240.007,427.399,237.952,424.722z"/>
		<path style="fill:#777D1E;" d="M246.797,342.347c-13.584,29.869-7.98,63.242,10.502,89.513    c10.606,15.076,26.123,29.524,44.239,34.603c3.884,1.089,9.105,2.417,13.155,1.608c4.385-0.876,7.595-5.369,10.38-8.846    c6.398-7.988,10.981-17.435,13.218-27.425c1.747-7.803,2.088-15.855,2.004-23.851c-0.092-8.662-0.685-17.383-2.91-25.755    c-4.668-17.561-16.754-33.022-32.669-41.79"/>
		<path style="fill:#FFBB58;" d="M321.401,390.303c-13.383-3.692-24.876-6.864-29.959-7.945    c-6.975-21.49-12.512-37.225-13.102-37.037c-0.581,0.184,3.812,15.729,10.326,36.786c-3.189,2.905-11.002,11.358-20.107,21.402    c-7.131,7.879-13.374,14.876-16.984,19.204c0.251,0.45,0.521,0.892,0.779,1.339c4.094-3.801,10.84-10.644,18.18-18.753    c8.715-9.613,15.75-18.231,18.466-22.112c1.259,4.06,2.592,8.314,3.983,12.697c1.613,5.086,3.189,9.986,4.693,14.601    c-2.431,4.085-7.768,14.84-13.654,27.646c-2.55,5.548-4.868,10.755-6.811,15.261c0.609,0.491,1.222,0.977,1.844,1.451    c2.212-4.514,4.741-9.842,7.388-15.599c5.464-11.887,9.889-22.252,11.713-27.287c6.453,19.751,11.452,33.862,12.011,33.684    c0.535-0.17-3.15-13.371-8.824-31.905c3.14,2.248,12.961,7.859,24.456,14.65c4.188,2.465,8.12,4.805,11.612,6.873    c0.227-0.805,0.424-1.618,0.619-2.431c-3.255-2.12-6.924-4.411-10.877-6.738c-12.364-7.304-23.199-12.445-26.093-13.278    c-1.695-5.524-3.558-11.499-5.536-17.734c-1.248-3.933-2.472-7.751-3.659-11.417c5.155,2.054,16.026,5.681,28.827,9.212    c7.132,1.975,13.754,3.613,19.185,4.835c-0.059-0.768-0.125-1.535-0.199-2.301C334.475,393.923,328.181,392.18,321.401,390.303z"/>
		<path style="fill:#00C1D5;" d="M136.142,289.293l-1.355-1.177c-0.648,0.219-1.311,0.445-1.99,0.678    c-9.256,3.168-21.389,7.771-34.638,13.534c-1.335-0.881-3.82-2.309-7.18-4.079c-5.283-2.784-12.722-6.363-21.121-9.903    c-4.747-1.998-9.272-3.758-13.35-5.251c-0.797,0.421-1.582,0.864-2.358,1.324c4.394,1.775,9.442,3.83,14.795,6.092    c13.062,5.485,23.999,10.536,28.321,12.202c-2.106,0.921-4.235,1.866-6.389,2.845c-6.976,3.177-13.554,6.379-19.621,9.468    c-1.529-0.557-3.979-1.326-7.176-2.239c-5.601-1.6-13.396-3.602-22.065-5.556c-3.062-0.689-6.02-1.324-8.83-1.902    c-0.179,0.287-0.368,0.568-0.543,0.857c-0.233,0.386-0.448,0.785-0.676,1.175c3.007,0.686,6.206,1.411,9.532,2.162    c12.657,2.846,23.547,5.266,28.561,6.113c-7.408,3.797-13.994,7.399-19.366,10.502c-5.004,2.887-9.003,5.309-11.713,7.071    c-2.716,1.752-4.177,2.785-4.094,2.925c0.083,0.139,1.701-0.628,4.555-2.135c3.932-2.09,7.92-4.209,12.055-6.406    c5.96-3.157,13.319-6.949,21.581-11.004c-1.193,4.11-3.592,15.529-6.651,28.936c-1.171,5.17-2.302,10.027-3.293,14.296    c0.707,0.039,1.414,0.08,2.122,0.103c1.128-4.146,2.317-8.851,3.461-13.878c1.928-8.49,3.357-16.245,4.207-21.887    c0.557-3.697,0.872-6.458,0.939-7.957c5.627-2.754,11.656-5.622,17.987-8.505c2.181-0.991,4.332-1.952,6.46-2.892    c-0.667,4.21-1.591,17.583-2.264,33.474c-0.268,6.323-0.461,12.238-0.579,17.358c0.702-0.242,1.397-0.505,2.089-0.777    c0.297-4.908,0.584-10.517,0.837-16.482c0.691-16.314,0.893-29.991,0.547-33.849c13.231-5.831,25.282-10.662,34.426-14.173    C134.307,289.995,135.215,289.647,136.142,289.293z"/>
		<path style="fill:#FFBB58;" d="M130.162,241.476c-2.201-1.772-5.484-4.208-9.621-7.107c-2.972-2.087-6.417-4.398-10.227-6.829    c0.078-1.724,0.031-4.914-0.17-9.196c-0.306-6.555-0.996-15.597-2.133-25.545c-0.602-5.245-1.268-10.201-1.937-14.675    c-0.769-0.442-1.541-0.875-2.321-1.296c0.67,5.652,1.288,10.874,1.924,16.238c0.9,8.132,1.761,15.915,2.812,25.41    c0.432,3.854,0.796,6.806,1.09,8.594c-6.623-4.202-14.341-8.757-22.764-13.206c-2.816-1.483-5.584-2.876-8.309-4.213    c0.103-1.446,0.093-4.147-0.099-7.785c-0.29-5.526-1.055-13.148-2.483-21.477c-0.755-4.384-1.619-8.51-2.496-12.22    c-0.738-0.056-1.475-0.106-2.213-0.143c0.782,3.864,1.614,8.174,2.394,12.761c2.294,13.213,3.454,24.529,4.181,28.511    c-10.214-4.984-19.606-8.934-26.944-11.682c-4.729-1.776-8.593-3.109-11.299-3.924c-2.701-0.829-4.218-1.213-4.272-1.06    c-0.119,0.337,5.693,2.599,14.952,6.526c7.14,3.023,16.309,7.124,26.347,12.113c-1.718,0.336-4.069,0.853-6.955,1.521    c-9.08,2.176-16.381,3.925-23.957,5.74c-6.62,1.616-13.03,3.18-20.602,5.027c0.25,0.578,0.517,1.151,0.78,1.725    c5.717-1.113,12.761-2.63,20.374-4.469c9.37-2.267,17.787-4.582,23.833-6.419c3.424-1.04,6.053-1.911,7.705-2.535    c2.612,1.307,5.264,2.657,7.967,4.081c8.373,4.422,16.095,8.863,22.777,12.894c-2.272,0.696-5.945,1.961-10.649,3.694    c-8.05,2.963-19.075,7.313-31.103,12.477c-7.156,3.075-13.84,6.085-19.716,8.824c0.626,0.499,1.262,0.987,1.911,1.461    c6.168-2.676,12.306-5.339,18.732-8.126c10.57-4.494,20.351-8.653,30.789-13.092c4.986-2.123,8.752-3.763,10.821-4.762    c3.824,2.317,7.306,4.495,10.336,6.437c8.471,5.423,13.62,8.941,13.831,8.653C133.545,244.272,132.371,243.237,130.162,241.476z"/>
		<path style="fill:#777D1E;" d="M296.282,157.884c3.531-6.556,7.067-13.776,10.383-21.491    c13.408-7.914,27.902-13.903,41.384-21.714c14.551-8.429,28.329-19.589,35.302-34.891c-27.328,7.076-56.856,21.752-72.553,46.247    c2.904-7.836,5.308-15.478,7.276-22.713c5.474-12.268,10.674-24.726,13.199-37.894c2.854-14.888,2.01-30.995-5.407-44.215    c-8.433,9.946-11.113,23.589-11.353,36.627c-0.24,13.038,1.646,26.069,0.983,39.091c-0.042,0.817-0.108,1.637-0.181,2.456    c-2.323,8.227-5.17,17.091-8.606,26.205c8.313-29.156-1.939-62.087-16.412-87.599c-6.141,15.655-4.572,33.316-0.503,49.632    c3.897,15.628,9.947,30.678,13.557,46.366c-3.338,7.931-6.853,15.384-10.321,22.163c-2.245,4.173-4.313,8.18-6.483,11.798    c8.759-29.363-1.553-62.686-16.167-88.446c-6.141,15.655-4.572,33.316-0.503,49.632c3.765,15.099,9.523,29.662,13.166,44.778    c-0.873,1.43-1.734,2.814-2.557,4.132c-7.663,12.174-13.055,19.318-12.546,19.722c0.216,0.172,1.783-1.438,4.442-4.51    c1.344-1.525,2.936-3.435,4.66-5.747c1.585-2.098,3.428-4.446,5.267-7.133c14.74-6.646,30.461-10.922,45.336-17.282    c15.462-6.611,30.486-16.026,39.255-30.375c-28.089,3.74-59.296,14.821-77.809,37.416c0.096-0.158,0.194-0.307,0.29-0.467    C291.705,166.077,293.913,162.074,296.282,157.884z"/>
		<g>
			<g>
				<path style="fill:#F43D83;" d="M356.861,257.69c8.703-2.893,16.81-7.196,21.586-13.527c7.772-10.303,6.165-25.947-2.224-35.754      c-8.306-9.712-21.975-13.846-34.675-12.368l0.027-0.016c-0.05,0.011-0.101,0.019-0.152,0.028      c-0.075,0.009-0.151,0.013-0.225,0.022c0.046-0.06,0.087-0.123,0.133-0.183c0.033-0.04,0.066-0.079,0.101-0.117l-0.028,0.016      c7.732-10.183,11.125-24.054,6.988-36.145c-4.178-12.21-16.83-21.551-29.653-20.1c-7.88,0.892-15.709,5.684-22.626,11.706      c1.802-8.992,2.083-18.167-1.048-25.453c-5.096-11.857-19.479-18.215-32.155-15.791c-12.552,2.4-22.918,12.222-27.929,23.985      v-0.032c-0.016,0.049-0.033,0.097-0.051,0.146c-0.029,0.07-0.064,0.137-0.093,0.206c-0.029-0.07-0.063-0.137-0.093-0.206      c-0.018-0.048-0.035-0.096-0.051-0.146v0.032c-5.011-11.763-15.377-21.585-27.929-23.985      c-12.676-2.424-27.059,3.934-32.155,15.791c-2.521,5.864-2.819,12.956-1.908,20.189c-5.696-4.549-11.903-7.992-18.222-8.899      c-12.774-1.835-25.7,7.123-30.241,19.203c-4.497,11.962-1.521,25.928,5.903,36.338l-0.027-0.017      c0.034,0.039,0.066,0.079,0.098,0.119c0.044,0.061,0.084,0.126,0.128,0.187c-0.074-0.011-0.15-0.017-0.224-0.029      c-0.05-0.01-0.101-0.02-0.151-0.032l0.027,0.017c-12.65-1.858-26.436,1.866-35.029,11.324      c-8.678,9.552-10.753,25.141-3.292,35.672c4.584,6.471,12.559,11.015,21.172,14.167c-8.745,2.762-16.916,6.944-21.786,13.203      c-7.925,10.185-6.552,25.852,1.689,35.783c8.16,9.835,21.765,14.173,34.486,12.885l-0.028,0.016      c0.05-0.01,0.101-0.018,0.152-0.026c0.075-0.008,0.151-0.01,0.226-0.019c-0.047,0.059-0.089,0.122-0.136,0.181      c-0.034,0.039-0.067,0.078-0.103,0.115l0.028-0.015c-7.884,10.066-11.483,23.885-7.528,36.036      c3.994,12.271,16.505,21.8,29.349,20.541c7.893-0.774,15.792-5.448,22.798-11.366c-1.936,8.964-2.354,18.134,0.668,25.466      c4.918,11.932,19.204,18.505,31.915,16.271c12.586-2.212,23.098-11.878,28.284-23.565l0,0.032      c0.016-0.049,0.035-0.097,0.053-0.145c0.03-0.069,0.066-0.136,0.096-0.205c0.028,0.07,0.061,0.138,0.089,0.208      c0.017,0.048,0.034,0.097,0.049,0.146l0.001-0.032c4.835,11.836,15.052,21.812,27.567,24.4      c12.638,2.613,27.115-3.529,32.388-15.308c3.24-7.239,3.096-16.416,1.429-25.435c6.826,6.125,14.582,11.033,22.448,12.043      c12.801,1.643,25.591-7.507,29.95-19.654c4.318-12.028,1.133-25.948-6.446-36.246l0.028,0.016      c-0.034-0.038-0.067-0.078-0.1-0.118c-0.045-0.061-0.086-0.124-0.13-0.185c0.074,0.01,0.15,0.015,0.225,0.025      c0.05,0.009,0.101,0.019,0.152,0.03l-0.028-0.016c12.676,1.668,26.405-2.261,34.856-11.847      c8.534-9.681,10.375-25.299,2.759-35.717C373.562,265.137,365.52,260.713,356.861,257.69z M259.926,303.383      c-6.664-5.78-16.06-6.759-25.685-6.678c-9.617-0.368-19.039,0.328-25.872,5.907c-0.753,0.614-1.469,1.258-2.203,1.886      c0.21-0.944,0.442-1.878,0.631-2.831c1.717-8.652-2.091-17.299-6.931-25.617c-4.447-8.535-9.722-16.373-17.954-19.543      c-0.907-0.349-1.82-0.652-2.73-0.979c0.924-0.285,1.85-0.547,2.771-0.855c8.366-2.797,13.988-10.39,18.814-18.717      c5.208-8.093,9.4-16.56,8.073-25.281c-0.019-0.125-0.046-0.248-0.066-0.373c0.097,0.082,0.187,0.169,0.284,0.251      c6.749,5.68,16.16,6.518,25.781,6.293c9.622,0.224,19.032-0.614,25.781-6.293c0.743-0.625,1.449-1.279,2.175-1.919      c-0.196,0.947-0.414,1.884-0.588,2.84c-1.588,8.677,2.349,17.265,7.313,25.511c4.574,8.468,9.966,16.225,18.245,19.272      c0.912,0.336,1.83,0.625,2.744,0.938c-0.919,0.299-1.841,0.575-2.758,0.896c-8.323,2.922-13.831,10.598-18.531,18.997      c-5.087,8.17-9.152,16.699-7.694,25.398c0.16,0.958,0.364,1.899,0.546,2.849C261.356,304.684,260.66,304.019,259.926,303.383z"/>
			</g>
			<g>
				<g>
					<g>
						<path style="fill:#3F3E5F;" d="M223.979,208.361c0.74-0.33-4.485-13.358-9.95-29.744c-5.51-16.37-9.188-29.917-9.978-29.734        c-0.723,0.153,1.757,14.101,7.317,30.625C216.886,196.047,223.31,208.674,223.979,208.361z"/>
					</g>
					<g>
						<path style="fill:#3F3E5F;" d="M245.7,208.361c0.669,0.313,7.093-12.314,12.611-28.852c5.56-16.524,8.039-30.472,7.316-30.625        c-0.79-0.183-4.468,13.364-9.977,29.734C250.184,195.003,244.959,208.03,245.7,208.361z"/>
					</g>
					<g>
						<path style="fill:#3F3E5F;" d="M234.246,207.565c0.775,0,1.403-12.297,1.403-27.466c0-15.169-0.628-27.465-1.403-27.465        c-0.775,0-1.403,12.297-1.403,27.465C232.843,195.268,233.471,207.565,234.246,207.565z"/>
					</g>
				</g>
				<g>
					<g>
						<path style="fill:#3F3E5F;" d="M271.507,223.346c0.654,0.48,9.378-10.516,20.901-23.385        c11.487-12.899,21.429-22.808,20.879-23.404c-0.491-0.552-11.376,8.515-22.972,21.535        C278.685,211.082,270.903,222.92,271.507,223.346z"/>
					</g>
					<g>
						<path style="fill:#3F3E5F;" d="M282.273,242.211c0.06,0.736,14.21,0.057,31.309-3.349c17.107-3.362,30.45-8.122,30.225-8.826        c-0.233-0.777-13.821,2.744-30.77,6.073C296.097,239.485,282.193,241.404,282.273,242.211z"/>
					</g>
					<g>
						<path style="fill:#3F3E5F;" d="M277.287,231.869c0.384,0.673,11.376-4.877,24.55-12.396        c13.174-7.519,23.543-14.16,23.159-14.833c-0.384-0.673-11.375,4.877-24.549,12.396        C287.272,224.555,276.903,231.196,277.287,231.869z"/>
					</g>
				</g>
				<g>
					<g>
						<path style="fill:#3F3E5F;" d="M282.05,272.052c-0.093,0.806,13.782,2.933,30.67,6.561        c16.897,3.582,30.431,7.306,30.676,6.532c0.236-0.7-13.035-5.659-30.09-9.277C296.259,272.208,282.121,271.317,282.05,272.052        z"/>
					</g>
					<g>
						<path style="fill:#3F3E5F;" d="M271.002,290.754c-0.61,0.417,6.994,12.37,18.428,25.532        c11.4,13.191,22.147,22.42,22.647,21.876c0.559-0.587-9.234-10.644-20.526-23.714        C280.222,301.409,271.663,290.284,271.002,290.754z"/>
					</g>
					<g>
						<path style="fill:#3F3E5F;" d="M277.513,281.297c-0.394,0.667,9.874,7.462,22.934,15.178        c13.06,7.715,23.967,13.428,24.362,12.761c0.394-0.667-9.874-7.462-22.934-15.177        C288.814,286.343,277.907,280.63,277.513,281.297z"/>
					</g>
				</g>
				<g>
					<g>
						<path style="fill:#3F3E5F;" d="M244.974,305.351c-0.746,0.319,4.285,13.423,9.504,29.889        c5.264,16.451,8.739,30.051,9.532,29.88c0.725-0.142-1.546-14.126-6.858-30.731        C251.882,317.769,245.648,305.048,244.974,305.351z"/>
					</g>
					<g>
						<path style="fill:#3F3E5F;" d="M223.256,305.026c-0.664-0.323-7.276,12.206-13.041,28.66        c-5.806,16.439-8.495,30.348-7.774,30.512c0.787,0.195,4.667-13.295,10.421-29.581        C218.572,318.316,223.991,305.367,223.256,305.026z"/>
					</g>
					<g>
						<path style="fill:#3F3E5F;" d="M234.696,305.993c-0.775-0.012-1.587,12.275-1.814,27.442        c-0.227,15.167,0.217,27.472,0.992,27.484c0.775,0.012,1.587-12.275,1.814-27.442        C235.915,318.31,235.471,306.005,234.696,305.993z"/>
					</g>
				</g>
				<g>
					<g>
						<path style="fill:#3F3E5F;" d="M197.676,289.656c-0.647-0.489-9.535,10.375-21.248,23.069        c-11.679,12.726-21.768,22.485-21.227,23.089c0.483,0.559,11.502-8.344,23.291-21.189        C190.315,301.811,198.273,290.091,197.676,289.656z"/>
					</g>
					<g>
						<path style="fill:#3F3E5F;" d="M187.193,270.633c-0.048-0.737-14.207-0.27-31.356,2.88        c-17.156,3.105-30.568,7.665-30.354,8.372c0.221,0.78,13.86-2.537,30.857-5.612        C173.329,273.152,187.262,271.441,187.193,270.633z"/>
					</g>
					<g>
						<path style="fill:#3F3E5F;" d="M192.024,281.048c-0.374-0.678-11.447,4.706-24.733,12.027        c-13.285,7.321-23.752,13.806-23.378,14.484c0.374,0.679,11.447-4.706,24.732-12.027        C181.931,288.212,192.398,281.727,192.024,281.048z"/>
					</g>
				</g>
				<g>
					<g>
						<path style="fill:#3F3E5F;" d="M187.863,240.798c0.105-0.804-13.737-3.138-30.568-7.019        c-16.842-3.835-30.318-7.76-30.574-6.991c-0.246,0.697,12.949,5.854,29.948,9.726        C173.657,240.429,187.781,241.532,187.863,240.798z"/>
					</g>
					<g>
						<path style="fill:#3F3E5F;" d="M199.189,222.264c0.616-0.408-6.808-12.473-18.044-25.805        c-11.201-13.361-21.809-22.749-22.317-22.213c-0.568,0.579,9.073,10.781,20.169,24.018        C190.129,211.472,198.521,222.724,199.189,222.264z"/>
					</g>
					<g>
						<path style="fill:#3F3E5F;" d="M192.538,231.622c0.404-0.661-9.761-7.61-22.705-15.519        c-12.943-7.91-23.764-13.786-24.168-13.124c-0.404,0.661,9.761,7.609,22.704,15.519        C181.313,226.407,192.134,232.283,192.538,231.622z"/>
					</g>
				</g>
			</g>
		</g>
		<g>
			
				<ellipse transform="matrix(0.2898 -0.9571 0.9571 0.2898 -78.9135 407.1354)" style="fill:#FFBB58;" cx="234.873" cy="256.74" rx="74.914" ry="74.914"/>
			<g>
				<g>
					<path style="fill:#403C73;" d="M206.156,233.429c0,6.877-2.498,12.452-5.58,12.452c-3.082,0-5.58-5.575-5.58-12.452       c0-6.877,2.498-12.452,5.58-12.452C203.658,220.978,206.156,226.552,206.156,233.429z"/>
					<path style="fill:#403C73;" d="M274.75,233.429c0,6.877-2.498,12.452-5.58,12.452c-3.082,0-5.58-5.575-5.58-12.452       c0-6.877,2.498-12.452,5.58-12.452C272.251,220.978,274.75,226.552,274.75,233.429z"/>
				</g>
				<path style="fill:#403C73;" d="M215.118,237.909c0.146,10.792,8.928,19.499,19.755,19.499c10.827,0,19.609-8.707,19.755-19.499      H215.118z"/>
				<path style="fill:#F43D83;" d="M234.873,243.805c-5.972,0-11.373,2.436-15.27,6.366c3.622,4.415,9.113,7.237,15.27,7.237      c6.158,0,11.648-2.822,15.27-7.237C246.246,246.241,240.845,243.805,234.873,243.805z"/>
			</g>
		</g>
	</g>
</g>















</svg>
