<?xml version="1.0" encoding="UTF-8"?>
<!-- Generator: Adobe Illustrator 25.2.1, SVG Export Plug-In . SVG Version: 6.00 Build 0)  -->
<svg xmlns="http://www.w3.org/2000/svg" xmlns:xlink="http://www.w3.org/1999/xlink" version="1.1" id="Capa_1" x="0px" y="0px" viewBox="0 0 512 512" style="enable-background:new 0 0 512 512;" xml:space="preserve" width="512" height="512">
<g>
	<g>
		<path style="fill:#FFFFFF;" d="M505.687,226.021c-1.206-1.474-2.567-2.812-4.046-3.997c0.077-0.162,0.152-0.326,0.228-0.489    c3.724-8.139,3.563-17.19-0.444-24.827c-4.195-7.999-11.999-13.541-21.413-15.21c-5.217-0.924-10.763-0.397-15.762,1.38    c-0.045-0.083-0.09-0.166-0.137-0.247c-4.57-8.143-12.365-13.351-20.849-13.931c-9.329-0.629-18.765,4.62-24.336,13.439    c-3.676,5.818-5.274,12.18-6.434,17.61c-3.058-0.612-6.306-0.429-9.241,0.601c-0.611-3.26-1.743-6.473-3.606-9.471    c-7.084-11.397-22.576-15.865-33.582-18.229l-0.932-0.2c-0.429-0.088-0.858-0.164-1.287-0.233l-0.326-0.055    c-14.67-2.678-30.548-0.096-44.903,7.27c-6.265-3.084-13.16-4.095-20.274-2.962c1.143-0.182-4.805-12.548-5.503-13.551    c-2.766-3.975-6.43-7.491-10.707-9.79c-12.488-6.712-27.406-3.953-38.122,4.754c0.186-0.151-8.533-5.267-9.548-5.685    c-4.055-1.669-8.408-2.638-12.796-2.747c-8.823-0.219-17.013,3.034-23.118,9.395c-5.678-15.626-15.509-28.766-28.785-37.949    c-4.923-3.406-12.476-7.934-21.174-7.934c-5.631,0-11.025,1.923-15.6,5.559c-8.35,6.634-11.205,16.855-12.758,25.017    c-0.013,0.064-0.024,0.13-0.038,0.194c-0.489-0.745-1.009-1.479-1.562-2.204c-0.644-0.841-1.389-1.577-2.211-2.2    c0.024-5.531-0.826-11.305-3.269-16.949c-1.624-3.751-5.108-6.367-9.161-6.881c-4.061-0.502-8.081,1.155-10.586,4.383    c-1.609,2.074-3.073,4.255-4.389,6.521c-0.088-0.252-0.177-0.502-0.267-0.753c-3.297-9.216-7.327-17.644-11.979-25.049    c-2.221-3.534-6.192-5.623-10.338-5.399c-4.168,0.197-7.906,2.623-9.783,6.352c-5.635,11.194-5.544,25.352,0.25,38.846    c0.982,2.288,2.082,4.477,3.256,6.568c-3.937-0.342-7.944-0.299-11.838,0.141c-4.061,0.459-7.579,3.028-9.252,6.758    c-1.673,3.73-1.252,8.064,1.107,11.403c5.699,8.068,13.819,12.803,21.504,15.941c-3.817,1.432-6.598,4.771-7.319,8.785    c-0.282,1.575-0.229,3.164,0.122,4.673c-1.306,0.645-2.499,1.541-3.503,2.665c-1.298,1.455-2.185,3.184-2.623,5.019    c-4.556-1.987-9.879-3.427-15.575-3.122c-4.082,0.201-7.754,2.544-9.658,6.162c-1.903,3.617-1.756,7.968,0.386,11.45    c0.651,1.054,1.346,2.083,2.08,3.081c-0.057,0.015-0.111,0.03-0.168,0.045c-11.187,2.962-20.051,9.862-24.317,18.929    c-1.777,3.775-1.381,8.215,1.033,11.616c2.415,3.405,6.476,5.24,10.626,4.809c4.835-0.503,9.839-1.466,14.937-2.874    c-0.903,3.901,0.279,8,3.132,10.825c2.906,2.876,7.114,4.005,11.066,2.966c4.229-1.108,7.91-3.081,11.081-5.403    c0.497,0.058,0.977,0.079,1.506,0.081c4.172-0.051,8.051-0.985,11.559-2.363c-0.336,0.132-0.485,3.229-0.56,3.775    c-0.235,1.703-0.431,3.412-0.599,5.123c-1.277,13.062-0.703,26.351,1.937,39.215c2.381,11.601,6.629,22.195,12.513,32.428    c0.111,0.19,0.224,0.378,0.341,0.561c1.876,2.936,4.976,4.869,8.439,5.262c0.937,0.107,20.143,2.174,43.013-3.715    c-1.11,3.568-1.995,7.302-2.644,11.192c-0.12,0.755-0.233,1.513-0.337,2.266c-1.248,9.03-1.067,17.907,0.536,26.384    c1.769,9.367,5.17,17.578,10.101,24.402c5.294,7.33,13.116,11.365,22.025,11.365c16.87,0,33.311-14.011,40.367-22.292    c8.977-10.533,15.261-23.99,18.238-39.017c1.246,0.12,2.486,0.16,3.751,0.109c3.581-0.141,6.975-0.781,10.153-1.895    c-1.353,2.785-2.093,5.894-2.093,9.137c0,11.52,9.372,20.892,20.892,20.892c3.841,0,7.443-1.043,10.539-2.859    c0.267,1.097,0.565,2.187,0.89,3.265c-1.039,2.505-1.585,5.213-1.585,8.008c0,11.52,9.372,20.892,20.894,20.892    c11.52,0,20.892-9.372,20.892-20.892c0-1.681-0.2-3.316-0.576-4.882c2.718,1.73,5.337,3.201,7.788,4.539    c0.25,0.145,0.499,0.286,0.745,0.423c0.043,11.482,9.399,20.811,20.892,20.811c11.522,0,20.894-9.372,20.894-20.892    c0-5.059-1.807-9.704-4.81-13.321c6.547-1.521,11.751-7.054,14.29-15.436c4.94-16.292,4.709-34.109-0.461-50.336    c5.731-0.687,10.172-5.565,10.172-11.48c0-2.012-0.512-3.903-1.415-5.55c-0.06-0.132-0.122-0.263-0.183-0.395    c9.6,5.531,20.66,8.552,31.979,8.552c3.13,0,6.263-0.239,9.316-0.711c3.986-0.617,7.364-3.269,8.909-6.994    c1.547-3.726,1.041-7.989-1.336-11.249c-2.797-3.834-6.115-7.268-9.826-10.234l0.836-0.38c1.916-0.826,3.658-1.709,5.19-2.524    c7.882,2.328,16.422,2.881,24.722,1.586c5.772,1.108,11.661,1.671,17.551,1.671c11.396,0,22.708-2.163,32.713-6.25    c4.161-1.699,10.052-4.56,14.121-10.001C514.072,249.391,514.275,236.496,505.687,226.021z"/>
	</g>
	<g>
		<g>
			<path style="fill:#00ABA9;" d="M423.567,205.196c1.137-5.472,2.152-12.157,5.136-16.882s8.194-8.46,13.77-8.079     c4.882,0.333,9.161,3.784,11.555,8.053c2.394,4.268,3.157,9.259,3.389,14.147c4.045-6.962,12.65-10.956,20.579-9.551     c11.616,2.058,18.296,13.047,13.358,23.841c-1.772,3.873-4.406,7.278-7.017,10.643c4.739,0.069,9.404,2.318,12.408,5.984     c9.664,11.79-1.185,22.028-12.651,25.546"/>
			<path style="fill:#00C1D5;" d="M485.485,235.466c-4.74-1.035-9.255-0.911-13.743-0.369c7.249-7.636,14.834-19.889,8.736-28.635     c-5.265-7.551-18.325-1.988-24.293,1.71c-3.906,2.421-7.318,5.519-10.283,9.031c1.01-5.166,1.09-10.504,0.106-15.836     c-1.231-6.668-5.106-20.495-14.111-12.973c-6.801,5.681-8.88,17.632-9.887,25.943c-1.503,12.401,0.678,24.948,3.546,37.105     c0,0,5.641-4.651,4.937-2.354l-4.914,7.717c18.8,8.555,41.937,9.466,61.183,1.601c4.065-1.661,8.257-3.9,10.244-7.816     C501.57,241.593,493.101,237.129,485.485,235.466z"/>
			<path style="fill:#403C73;" d="M416.171,259.76c7.611,2.874,16.247,3.775,24.24,2.277c-4.087-10.992-8.801-20.901-18.206-28.542     c-5.121,6.632-8.623,15.453-7.143,23.717c-2.76,1.279-6.069,2.76-9.877,4.323c-1.579,0.627-3.172,1.259-4.783,1.899     c-1.659,0.667-3.451,1.19-5.266,1.831c-3.617,1.33-7.598,2.379-11.757,3.565c-3.117,0.792-6.405,1.515-9.769,2.191     c10.369-8.869,17.175-21.909,18.169-35.541c-14.688,6.273-25.174,21.174-26.556,37.032c-3.109,0.479-6.264,0.913-9.511,1.232     c-9.943,0.877-19.465,0.828-28.097,0.282c-0.032-0.003-0.062-0.006-0.093-0.008c13.036-6.155,23.389-17.93,27.565-31.753     c-15.983,2.96-29.694,15.584-34.282,31.128c-1.855-0.192-3.664-0.409-5.401-0.702c-1.902-0.296-3.759-0.478-5.512-0.83     c-1.702-0.332-3.384-0.661-5.051-0.987c-12.849-2.667-20.567-5.459-20.8-4.826c-0.095,0.25,1.748,1.16,5.187,2.598     c1.712,0.74,3.833,1.583,6.365,2.352c2.525,0.788,5.372,1.826,8.629,2.552c1.68,0.413,3.375,0.83,5.09,1.252     c1.771,0.436,3.651,0.698,5.581,1.069c1.633,0.335,3.336,0.598,5.078,0.836c-0.003,0.015-0.008,0.028-0.011,0.043l0.114-0.029     c0.123,0.017,0.242,0.036,0.365,0.052l0.084,0.166c8.529,14.058,24.15,23.553,40.556,24.652     c-4.678-10.775-14.014-19.246-24.934-23.495c6.349,0.22,13.027,0.127,19.928-0.483c3.061-0.301,6.044-0.712,8.983-1.171     c0.001,0.125-0.01,0.249-0.008,0.374l0.381-0.192l0.21,0.253c11.397,11.851,28.718,17.699,44.967,15.182     c-7.748-10.622-20.555-17.167-33.635-17.917c2.521-0.584,4.987-1.2,7.355-1.859c4.226-1.306,8.255-2.497,11.898-3.985     c1.828-0.72,3.627-1.325,5.289-2.078c1.608-0.73,3.197-1.451,4.773-2.166c3.068-1.314,5.663-2.48,8.105-3.509L416.171,259.76z"/>
		</g>
		<path style="fill:#FDA753;" d="M160.463,231.171c-1.67-0.929-3.366-1.872-5.089-2.83c-1.764-0.991-3.51-2.177-5.369-3.313    c-2.019-1.193-4.043-2.547-6.105-3.973c-2.737-8.073-2.909-16.813-3.763-25.328c-0.908-9.061-2.916-18.549-9.081-25.25    c-5.365,15.938-1.962,34.484,8.555,47.582c-0.381-0.267-0.754-0.53-1.139-0.798c-6.839-5.081-13.98-11.028-20.975-17.75    c-1.825-8.114-1.23-16.627-1.304-24.984c-0.081-9.106-1.217-18.737-6.747-25.972c-6.331,14.341-5.28,31.633,2.409,45.254    c-5.072-5.401-9.697-10.876-13.815-16.249c0.336-8.034,2.882-15.887,4.767-23.752c2.123-8.855,3.349-18.475-0.267-26.833    c-9.813,12.646-12.904,30.137-8.333,45.443c-0.078-0.108-0.165-0.218-0.243-0.325c-2.736-4.059-5.435-7.858-7.598-11.645    c-0.534-0.903-1.078-1.777-1.608-2.642c-1.351-9.62-3.627-19.11-6.898-28.257c-2.841-7.943-6.395-15.65-10.883-22.794    c-4.501,8.945-3.405,19.885,0.546,29.086c2.99,6.962,7.447,13.137,12.221,19.058c0.252,0.522,0.497,1.029,0.752,1.556    c0.911,1.846,2.024,3.677,3.092,5.622c1.713,3.229,3.813,6.477,6.011,9.86c-10.635-9.808-25.571-14.964-39.983-13.332    c5.255,7.437,14.108,11.396,22.775,14.19c8.329,2.685,17.041,4.717,24.466,9.303c3.432,4.483,7.214,8.996,11.327,13.453    c-12.763-7.151-28.702-8.634-42.445-3.51c6.897,5.946,16.445,7.647,25.53,8.263c8.077,0.548,16.34,0.461,24.115,2.545    c5.142,4.875,10.369,9.316,15.529,13.262c-12.673-4.64-27.236-4.211-39.428,1.648c7.409,5.294,17.072,6.12,26.176,5.907    c8.211-0.192,16.552-1.042,24.591,0.412c2.052,1.34,4.07,2.601,6.085,3.708c1.928,1.097,3.743,2.236,5.575,3.174    c1.791,0.898,3.554,1.783,5.29,2.654c3.332,1.763,6.53,2.973,9.278,4.146c1.384,0.564,2.658,1.12,3.86,1.561    c1.123,0.373,2.23,0.74,3.326,1.104c4.004,1.299,6.247,1.892,6.336,1.639C182.24,241.41,173.518,238.246,160.463,231.171z"/>
		<path style="fill:#403C73;" d="M124.192,241.533c-1.275-0.537-2.569-1.082-3.885-1.636c-1.352-0.563-2.808-1.028-4.285-1.58    c-1.581-0.618-3.257-1.166-4.989-1.704c-5.822,2.045-10.878,5.85-16.111,9.165c-5.568,3.528-11.87,6.62-18.441,6.1    c6.686-10.173,18.771-16.515,30.93-16.371c-0.322-0.098-0.639-0.193-0.963-0.292c-5.949-1.628-12.525-3.041-19.478-4.025    c-5.438,2.583-10.022,6.723-14.817,10.412c-5.224,4.02-11.219,7.673-17.81,7.752c5.344-10.01,15.665-17.132,26.859-18.833    c-5.342-0.479-10.527-0.669-15.427-0.616c-4.428,3.778-7.765,8.735-11.404,13.322c-4.097,5.164-9.031,10.157-15.407,11.828    c2.823-11.237,11.409-20.808,22.17-25.038c-0.096,0.004-0.198,0.003-0.294,0.007c-3.534,0.254-6.904,0.412-10.027,0.871    c-0.752,0.099-1.494,0.179-2.223,0.263c-6.084,3.526-12.508,6.466-19.18,8.687c-5.794,1.928-11.772,3.344-17.846,3.977    c3.087-6.558,9.809-10.819,16.815-12.675c5.302-1.405,10.81-1.622,16.315-1.546c0.41-0.089,0.808-0.176,1.222-0.266    c1.459-0.305,2.999-0.489,4.583-0.748c2.605-0.466,5.393-0.72,8.301-0.978c-10.337-1.68-19.943-7.888-25.448-16.828    c6.584-0.327,12.792,2.95,18.254,6.64c5.249,3.546,10.296,7.603,16.225,9.786c4.087-0.046,8.346,0.094,12.723,0.447    c-9.773-4.079-17.734-12.498-20.951-22.616c6.467,1.275,11.699,5.955,16.107,10.856c3.918,4.358,7.559,9.104,12.217,12.604    c5.074,0.753,9.938,1.748,14.489,2.926c-8.302-5.148-14.56-13.638-16.666-23.2c6.324,1.857,11.109,6.994,15.053,12.276    c3.557,4.764,6.797,9.896,11.215,13.827c1.679,0.571,3.299,1.158,4.829,1.811c1.485,0.609,2.945,1.134,4.298,1.759    c1.312,0.619,2.602,1.229,3.874,1.829c2.492,1.111,4.61,2.393,6.505,3.436c0.94,0.537,1.825,1.014,2.613,1.502    c0.714,0.474,1.417,0.94,2.114,1.402c2.528,1.701,3.867,2.715,3.763,2.878C139.749,249.369,134.052,245.812,124.192,241.533z"/>
		<path style="fill:#A76BB0;" d="M118.162,198.279C73.42,218.559,64.587,294.786,89.415,333.43c0,0,75.615,8.607,100.502-57.603    C189.917,275.826,186.023,213.707,118.162,198.279z"/>
		<g>
			<path style="fill:#FFBB58;" d="M188.901,278.282c-0.672,1.652-1.365,3.27-2.1,4.825c1.867-1.869,3.472-3.581,4.824-5.084     c-0.328-0.223-0.655-0.447-1.008-0.681C190.073,277.64,189.486,277.961,188.901,278.282z"/>
			<path style="fill:#FFBB58;" d="M189.58,276.641c-0.011,0.029-0.024,0.056-0.035,0.085c0.03-0.015,0.062-0.031,0.093-0.046     C189.619,276.668,189.598,276.654,189.58,276.641z"/>
			<path style="fill:#FDA753;" d="M187.879,275.493c-10.949,0.545-23.832,0.827-37.672,0.442     c-19.797-0.579-37.655-2.403-50.52-4.145c-5.081-0.683-9.379-1.304-12.735-1.819c-0.087,0.268-0.177,0.534-0.262,0.803     c3.351,0.683,7.674,1.462,12.812,2.285c12.854,2.072,30.772,4.107,50.654,4.688c14.362,0.4,27.712-0.021,38.918-0.786     c0.156-0.078,0.318-0.157,0.471-0.233c0.011-0.029,0.024-0.056,0.035-0.085C189.034,276.275,188.468,275.892,187.879,275.493z"/>
			<path style="fill:#FFBB58;" d="M189.898,275.584c-0.004-0.048-0.011-0.126-0.017-0.188c-0.072,0.004-0.15,0.007-0.223,0.011     C189.737,275.465,189.82,275.527,189.898,275.584z"/>
			<path style="fill:#FDA753;" d="M184.996,272.092c-4.265-2.96-9.534-6.207-15.548-9.526c-6.046-3.256-12.855-6.548-20.209-9.521     c-7.372-2.924-14.571-5.241-21.194-7.058c-6.642-1.749-12.697-3.036-17.826-3.837c-2.552-0.471-4.89-0.714-6.933-0.979     c-0.839-0.114-1.601-0.195-2.345-0.272c-0.147,0.276-0.296,0.552-0.445,0.827c0.824,0.129,1.699,0.273,2.647,0.448     c2.018,0.359,4.328,0.689,6.85,1.237c5.067,0.957,11.045,2.364,17.607,4.185c6.543,1.89,13.659,4.233,20.965,7.131     c7.287,2.946,14.054,6.162,20.093,9.31c6.006,3.211,11.303,6.319,15.63,9.124c1.304,0.795,2.476,1.578,3.591,2.333     c0.59-0.029,1.201-0.056,1.779-0.086C188.254,274.364,186.746,273.237,184.996,272.092z"/>
			<path style="fill:#FFBB58;" d="M189.58,276.641c0.018,0.012,0.039,0.026,0.058,0.039c0.277-0.137,0.587-0.294,0.856-0.424     c0.068-0.032,0.121-0.061,0.188-0.093c-0.245-0.18-0.529-0.39-0.783-0.579c0.012,0.148,0.019,0.242,0.019,0.242     C189.811,276.108,189.687,276.363,189.58,276.641z"/>
			<path style="fill:#FFBB58;" d="M189.917,275.826c0,0-0.007-0.094-0.019-0.242c-0.078-0.058-0.161-0.119-0.24-0.177     c-0.578,0.031-1.189,0.057-1.779,0.086c0.589,0.399,1.155,0.782,1.7,1.148C189.687,276.363,189.811,276.108,189.917,275.826z"/>
			<path style="fill:#FFBB58;" d="M191.536,274.851c0.106-0.066-0.716-1.532-2.299-4.133c-0.001-0.002-0.002-0.004-0.004-0.006     c0.098,0.565,0.184,1.088,0.256,1.568C190.726,273.988,191.449,274.905,191.536,274.851z"/>
			<path style="fill:#FDA753;" d="M189.234,270.712c-0.776-1.31-1.767-2.885-3.034-4.636c-1.254-1.762-2.612-3.826-4.343-5.932     c-1.673-2.153-3.527-4.495-5.688-6.866c-2.067-2.456-4.5-4.873-7.018-7.457c-5.17-5.031-11.177-10.241-17.924-15.134     c-6.789-4.834-13.643-8.866-20.059-12.162c-3.252-1.563-6.318-3.097-9.305-4.273c-2.937-1.292-5.748-2.303-8.322-3.202     c-1.43-0.544-2.801-0.975-4.102-1.364c0.047,0.413,0.083,0.827,0.114,1.24c1.134,0.391,2.321,0.818,3.549,1.328     c2.524,0.968,5.282,2.038,8.164,3.377c2.933,1.224,5.943,2.794,9.14,4.38c6.306,3.342,13.053,7.369,19.764,12.147     c6.669,4.837,12.638,9.948,17.817,14.859c2.523,2.524,4.971,4.877,7.066,7.266c2.189,2.304,4.083,4.577,5.805,6.661     c1.781,2.038,3.198,4.032,4.522,5.726c1.339,1.684,2.41,3.195,3.272,4.44c0.305,0.429,0.579,0.811,0.839,1.17     C189.418,271.8,189.332,271.277,189.234,270.712z"/>
			<path style="fill:#FFBB58;" d="M190.099,276.993c-0.042-0.028-0.091-0.062-0.133-0.09c-0.165,0.011-0.342,0.021-0.508,0.032     c-0.179,0.459-0.373,0.895-0.557,1.347c0.585-0.321,1.172-0.642,1.716-0.939C190.436,277.222,190.287,277.116,190.099,276.993z"/>
			<path style="fill:#FFBB58;" d="M191.636,276.777c-0.043,0.003-0.084,0.007-0.128,0.01c0.016,0.012,0.031,0.023,0.047,0.035     C191.583,276.807,191.607,276.792,191.636,276.777z"/>
			<path style="fill:#FDA753;" d="M189.074,276.96c-1.571,0.784-3.242,1.627-5.153,2.449c-4.891,2.288-10.851,4.708-17.573,7.087     c-6.75,2.299-14.279,4.51-22.315,6.287c-8.049,1.717-15.817,2.828-22.912,3.537c-7.103,0.624-13.53,0.895-18.929,0.842     c-2.702,0.059-5.141-0.092-7.287-0.142c-2.148-0.035-3.994-0.148-5.503-0.252c-3.02-0.178-4.702-0.218-4.716-0.094     c-0.015,0.124,1.64,0.401,4.653,0.796c1.505,0.213,3.352,0.43,5.507,0.561c2.153,0.146,4.605,0.388,7.324,0.412     c5.435,0.218,11.921,0.079,19.097-0.46c7.168-0.623,15.023-1.695,23.151-3.429c8.115-1.794,15.707-4.077,22.488-6.484     c6.754-2.487,12.713-5.052,17.568-7.505c1.626-0.758,3.064-1.534,4.428-2.283c0.184-0.452,0.378-0.888,0.557-1.347     C189.333,276.944,189.2,276.951,189.074,276.96z"/>
			<path style="fill:#FFBB58;" d="M189.545,276.726c-0.028,0.071-0.059,0.138-0.086,0.209c0.165-0.011,0.343-0.021,0.508-0.032     c-0.104-0.069-0.224-0.152-0.329-0.222C189.607,276.695,189.575,276.712,189.545,276.726z"/>
			<path style="fill:#FFBB58;" d="M189.545,276.726c-0.153,0.076-0.315,0.155-0.471,0.233c0.126-0.008,0.259-0.016,0.384-0.025     C189.486,276.864,189.517,276.798,189.545,276.726z"/>
			<path style="fill:#FFBB58;" d="M190.099,276.993c0.188,0.123,0.337,0.23,0.518,0.35c0.111-0.06,0.24-0.132,0.349-0.191     c0.214-0.114,0.383-0.218,0.589-0.33c-0.016-0.012-0.031-0.023-0.047-0.035c-0.516,0.039-1.016,0.079-1.542,0.116     C190.008,276.93,190.058,276.965,190.099,276.993z"/>
			<path style="fill:#FFBB58;" d="M189.637,276.68c0.105,0.071,0.225,0.153,0.329,0.222c0.526-0.037,1.026-0.077,1.542-0.116     c-0.28-0.209-0.521-0.402-0.82-0.619c-0.002-0.002-0.005-0.004-0.007-0.005c-0.067,0.032-0.12,0.061-0.188,0.093     C190.224,276.386,189.915,276.543,189.637,276.68z"/>
			<path style="fill:#FDA753;" d="M183.607,286.206c-8.873,8.314-22.684,18.554-40.129,25.107     c-8.723,3.178-17.462,4.943-25.458,5.999c-8.004,1.068-15.294,1.394-21.409,1.511c-3.459,0.054-6.531,0.034-9.18-0.015     c0.052,0.327,0.117,0.653,0.134,0.984c2.616,0.155,5.643,0.274,9.051,0.312c6.155,0.046,13.509-0.148,21.614-1.136     c8.096-0.977,16.973-2.712,25.874-5.954c17.764-6.673,31.648-17.24,40.391-25.883c0.231-0.229,0.422-0.438,0.646-0.664     c0.571-1.092,1.121-2.217,1.661-3.359C185.808,284.101,184.746,285.135,183.607,286.206z"/>
		</g>
		<path style="fill:#F43B95;" d="M89.204,333.076c9.432-11.46,16.803-24.661,22.165-38.537c8.532-22.078,13.911-45.877,11.91-69.65    c-0.788-9.361-2.125-18.458-5.109-26.609c-0.003-0.001-0.005-0.001-0.008-0.002C73.553,218.499,64.648,294.326,89.204,333.076z"/>
		<g>
			<g>
				<path style="fill:#FDA753;" d="M109.794,230.391c1.4,0.289,3.308-3.215,4.261-7.828c0.953-4.613,0.591-8.586-0.809-8.876      c-1.4-0.289-3.308,3.215-4.261,7.828C108.031,226.127,108.394,230.101,109.794,230.391z"/>
			</g>
			<g>
				<path style="fill:#FDA753;" d="M90.634,251.314c1.399,0.295,3.265-2.932,4.168-7.209c0.903-4.277,0.501-7.983-0.898-8.278      c-1.399-0.295-3.265,2.932-4.168,7.209C88.833,247.312,89.235,251.018,90.634,251.314z"/>
			</g>
			<g>
				<path style="fill:#FDA753;" d="M111.972,255.492c1.416,0.195,3.04-3.11,3.627-7.381c0.587-4.271-0.086-7.891-1.502-8.086      c-1.416-0.194-3.04,3.11-3.627,7.381C109.883,251.677,110.556,255.297,111.972,255.492z"/>
			</g>
			<g>
				<path style="fill:#FDA753;" d="M96.184,273.355c1.402,0.28,3.194-2.768,4.002-6.81c0.808-4.041,0.327-7.545-1.075-7.825      c-1.402-0.28-3.193,2.769-4.002,6.81C94.3,269.571,94.782,273.075,96.184,273.355z"/>
			</g>
			<g>
				<path style="fill:#FDA753;" d="M91.439,306.502c1.398,0.298,3.19-2.549,4.003-6.358c0.812-3.809,0.337-7.139-1.061-7.438      c-1.398-0.298-3.19,2.549-4.002,6.358C89.566,302.874,90.041,306.204,91.439,306.502z"/>
			</g>
			<g>
				<path style="fill:#FDA753;" d="M81.557,283.016c1.425,0.119,2.861-3.154,3.209-7.311c0.347-4.157-0.526-7.623-1.95-7.742      c-1.425-0.119-2.861,3.154-3.209,7.311C79.259,279.431,80.132,282.897,81.557,283.016z"/>
			</g>
			<g>
				<path style="fill:#FDA753;" d="M106.344,285.972c1.37,0.409,3.599-3.005,4.98-7.625c1.38-4.62,1.389-8.697,0.019-9.107      c-1.37-0.409-3.599,3.005-4.979,7.625C104.982,281.486,104.974,285.563,106.344,285.972z"/>
			</g>
		</g>
		<g>
			<g>
				<g>
					<path style="fill:#3C3C7F;" d="M333.764,389.244c0.184-0.424-6.375-3.247-16.227-9.092c-2.457-1.472-5.139-3.092-7.902-5.016       c-2.837-1.81-5.691-3.998-8.738-6.233c-5.97-4.635-12.276-10.061-18.409-16.264c-6.076-6.258-11.372-12.674-15.883-18.738       c-2.172-3.092-4.301-5.99-6.053-8.863c-1.867-2.802-3.431-5.517-4.853-8.003c-5.642-9.97-8.33-16.585-8.758-16.41       c-0.166,0.066,0.376,1.767,1.506,4.8c0.547,1.525,1.27,3.368,2.254,5.446c0.966,2.085,1.984,4.506,3.389,7.039       c1.335,2.572,2.827,5.375,4.639,8.263c1.697,2.961,3.787,5.946,5.939,9.122c4.47,6.231,9.797,12.798,15.97,19.155       c6.229,6.302,12.686,11.763,18.825,16.359c3.131,2.216,6.073,4.368,8.999,6.125c2.851,1.871,5.623,3.42,8.167,4.808       c2.504,1.457,4.904,2.525,6.968,3.533c2.057,1.026,3.885,1.787,5.398,2.365C332.005,388.831,333.695,389.409,333.764,389.244z"/>
				</g>
				<g>
					<path style="fill:#3C3C7F;" d="M251.186,365.848c0.782-0.145-1.335-10.888,0-24.109c1.205-13.233,5.327-23.376,4.587-23.668       c-0.3-0.13-1.73,2.246-3.311,6.426c-1.584,4.168-3.191,10.187-3.853,16.995c-0.646,6.81-0.213,13.024,0.549,17.418       C249.915,363.314,250.867,365.919,251.186,365.848z"/>
				</g>
				<g>
					<path style="fill:#3C3C7F;" d="M311.332,329.398c0.158-0.265-2.247-2.127-6.696-4.174c-4.428-2.051-10.99-4.087-18.473-4.694       c-7.484-0.584-14.285,0.387-18.982,1.711c-4.716,1.317-7.385,2.774-7.272,3.061c0.138,0.38,3.001-0.451,7.672-1.275       c4.665-0.835,11.196-1.475,18.377-0.917c7.179,0.585,13.526,2.252,18,3.815C308.439,328.478,311.135,329.752,311.332,329.398z"/>
				</g>
				<g>
					<path style="fill:#3C3C7F;" d="M282.851,395.85c0.337-0.228-1.087-2.681-2.855-6.819c-1.779-4.13-3.727-10.049-4.587-16.828       c-0.832-6.781-0.4-12.998,0.309-17.438c0.697-4.446,1.473-7.174,1.091-7.312c-0.285-0.113-1.691,2.427-2.884,6.942       c-1.201,4.494-1.96,11.019-1.085,18.129c0.899,7.107,3.24,13.245,5.509,17.306C280.615,393.913,282.603,396.029,282.851,395.85       z"/>
				</g>
				<g>
					<path style="fill:#3C3C7F;" d="M337.409,361.073c0.119-0.29-2.269-1.67-6.521-2.948c-4.234-1.284-10.385-2.275-17.18-1.862       c-6.793,0.434-12.773,2.182-16.815,3.982c-4.06,1.796-6.258,3.462-6.104,3.736c0.335,0.737,9.992-4.412,23.08-5.134       C326.947,357.937,337.169,361.846,337.409,361.073z"/>
				</g>
			</g>
			<g>
				<path style="fill:#F43B95;" d="M341.923,392.162c0,5.152-4.177,9.329-9.329,9.329c-5.152,0-9.329-4.177-9.329-9.329      c0-5.153,4.177-9.329,9.329-9.329C337.746,382.832,341.923,387.009,341.923,392.162z"/>
				<path style="fill:#F43B95;" d="M346.738,360.712c0,5.152-4.177,9.329-9.329,9.329c-5.153,0-9.329-4.177-9.329-9.329      c0-5.153,4.177-9.329,9.329-9.329C342.562,351.383,346.738,355.559,346.738,360.712z"/>
				<path style="fill:#F43B95;" d="M292.18,392.162c0,5.152-4.177,9.329-9.329,9.329c-5.152,0-9.329-4.177-9.329-9.329      c0-5.153,4.177-9.329,9.329-9.329C288.003,382.832,292.18,387.009,292.18,392.162z"/>
				<path style="fill:#F43B95;" d="M261.443,362.855c0,5.153-4.177,9.329-9.329,9.329c-5.153,0-9.329-4.177-9.329-9.329      c0-5.152,4.177-9.329,9.329-9.329C257.266,353.526,261.443,357.703,261.443,362.855z"/>
				<path style="fill:#F43B95;" d="M320.661,327.593c0,5.152-4.177,9.329-9.329,9.329c-5.152,0-9.329-4.177-9.329-9.329      c0-5.153,4.177-9.329,9.329-9.329C316.484,318.263,320.661,322.44,320.661,327.593z"/>
			</g>
		</g>
		<path style="fill:#7E9B2D;" d="M286.101,241.007c4.574-34.636,41.476-64.591,76.673-57.238    c8.527,1.782,22.164,5.346,27.052,13.211c4.903,7.89,1.473,20.806-2.225,28.675c-15.465,32.911-53.119,41.991-86.182,31.827"/>
		<path style="fill:#7E9B2D;" d="M191.581,294.91c-20.792,6.852-38.146,23.071-46.931,43.06c-5.49,12.491-7.168,27.387-4.609,40.928    c1.33,7.041,3.897,13.944,8.113,19.781c11.571,16.019,35.094-0.95,44.218-11.658c19.935-23.396,21.475-59.489,11.481-87.469"/>
		<path style="fill:#7E9B2D;" d="M171.898,224.342c-17.956-8.284-32.169-24.327-38.226-43.152    c-3.667-11.397-4.322-23.732-2.082-35.486c1.195-6.267,3.226-13.863,8.594-18.13c7.609-6.046,15.972-2.03,23.003,2.833    c26.513,18.339,33.656,52.217,27.19,82.504"/>
		<path style="fill:#FDA753;" d="M350.583,221.738c4.555,1.81,14.696,5.132,26.594,8.652c2.324,0.687,4.579,1.341,6.755,1.961    c0.456-0.727,0.896-1.471,1.327-2.226c-2.349-0.723-4.802-1.464-7.347-2.217c-10.992-3.252-20.638-5.83-25.836-6.961    c6.968-3.705,13.067-7.3,17.788-10.317c6.986-4.459,11.064-7.574,10.881-7.852c-0.208-0.32-4.632,2.247-11.82,6.281    c-5.763,3.239-13.358,7.37-21.973,11.683c2.037-3.491,6.213-12.241,10.738-22.631c2.277-5.229,4.309-10.107,5.918-14.163    c-0.278-0.06-0.565-0.123-0.833-0.179c-0.442-0.092-0.885-0.153-1.327-0.233c-1.827,3.857-3.937,8.505-6.131,13.541    c-4.964,11.399-8.766,21.136-9.522,24.243c-1.761,0.875-3.547,1.754-5.384,2.637c-8.391,4.019-16.313,7.477-22.969,10.252    c0.959-4.21,2.61-15.408,5.036-28.499c1.147-6.273,2.308-12.084,3.272-16.907c-0.853,0.406-1.698,0.828-2.534,1.269    c-1.111,4.428-2.263,9.592-3.283,15.169c-2.529,13.649-3.463,25.359-3.362,29.33c-1.999,0.83-3.893,1.603-5.624,2.3    c-7.645,3.081-12.415,4.925-12.296,5.288c0.103,0.317,5.084-0.914,12.934-3.572c1.799-0.608,3.762-1.306,5.834-2.071    c1.716,1.308,14.212,6.435,29.595,12.102c4.989,1.838,9.701,3.518,13.881,4.961c0.882-0.46,1.752-0.941,2.611-1.443    c-4.533-1.797-9.857-3.832-15.597-5.947c-14.374-5.296-26.539-9.319-29.825-9.917c6.828-2.545,14.933-5.903,23.447-9.981    C344.674,224.78,347.692,223.254,350.583,221.738z"/>
		<path style="fill:#7E9B2D;" d="M303.71,285.281c-0.897,16.131,2.55,32.068,7.774,47.203c2.79,8.083,8.05,15.173,13.811,21.389    c2.737,2.954,5.708,6.376,9.129,8.545c2.67,1.692,7.224,5.187,10.348,5.282c3.759,0.115,6.039-4.053,7.13-7.652    c5.212-17.192,3.759-36.313-3.992-52.519c-7.751-16.206-21.724-29.34-38.379-36.073"/>
		<g>
			<path style="fill:#FDA753;" d="M342.613,354.469c0.323-0.104-0.77-4.663-3.108-11.863c-2.334-7.199-5.988-17.014-10.712-27.562     c-4.733-10.544-9.63-19.801-13.452-26.333c-3.82-6.536-6.497-10.384-6.789-10.212c-0.324,0.19,1.79,4.359,5.18,11.085     c3.394,6.725,7.998,16.047,12.699,26.519c4.692,10.477,8.588,20.116,11.352,27.124     C340.549,350.233,342.256,354.585,342.613,354.469z"/>
		</g>
		<path style="fill:#FDA753;" d="M204.168,342.828c-7.741-9.127-14.247-17.088-17.305-20.371c3.367-6.358,6.642-11.968,9.475-16.517    c1.814-2.919,3.407-5.399,4.725-7.442l-1.26-0.477c-1.45,1.892-3.121,4.192-4.998,6.92c-2.84,4.094-5.99,9.13-9.252,14.861    c-0.194,0.347-0.389,0.72-0.584,1.072c-2.468-0.512-14.979-0.483-30.091,0.11c-0.689,0.877-1.367,1.762-2.019,2.666    c0.647-0.024,1.289-0.047,1.946-0.073c14.633-0.578,26.836-1.492,29.885-2.191c-2.938,5.357-5.922,11.258-8.722,17.603    c-1.113,2.558-2.133,5.078-3.109,7.571c-2.462-0.022-14.026,2.336-27.841,5.721c-1.717,0.421-3.388,0.839-5.017,1.252    c-0.159,0.899-0.28,1.805-0.405,2.71c1.949-0.457,3.966-0.94,6.038-1.448c13.205-3.236,24.148-6.351,26.988-7.631    c-1.591,4.098-3.024,8.094-4.264,11.877c-2.002,6.282-3.569,12.012-4.654,16.875c-1.103,4.858-1.845,8.821-2.208,11.583    c-0.384,2.759-0.513,4.295-0.337,4.327c0.403,0.074,1.682-5.933,4.319-15.46c1.993-7.23,4.899-16.468,8.818-26.534    c1.729,3.817,6.349,12.131,12.489,21.356c3.016,4.547,5.967,8.663,8.532,12.045c0.459-0.627,0.896-1.266,1.332-1.909    c-2.249-3.384-4.893-7.325-7.707-11.569c-6.499-9.764-11.905-18.129-14.203-21.031c1.124-2.85,2.312-5.749,3.6-8.697    c2.596-5.907,5.308-11.438,7.975-16.525c2.496,4.014,8.358,12.128,15.879,20.997c2.126,2.516,4.209,4.881,6.193,7.066    c0.189-1.061,0.338-2.129,0.49-3.198C207.364,346.597,205.791,344.749,204.168,342.828z"/>
		<path style="fill:#FDA753;" d="M188.407,164.963c-0.345-1.054-0.667-2.117-1.057-3.153c-1.82,3.403-3.765,7.298-5.662,11.526    c-5.261,11.633-8.454,21.952-9.129,25.549c-2.951-6.243-6.199-13.487-9.379-21.331c-1.365-3.379-2.636-6.678-3.828-9.874    c1.725-2.956,5.389-11.039,9.619-20.577c1.343-3.037,2.615-5.933,3.76-8.578c-0.579-0.597-1.194-1.168-1.8-1.746    c-1.374,2.793-2.846,5.925-4.328,9.276c-3.837,8.654-6.672,16.329-7.781,20.193c-2.893-7.846-5.259-14.965-7.036-20.629    c-2.606-8.288-4.102-13.468-4.478-13.378c-0.319,0.075,0.548,5.416,2.718,13.883c1.546,6.047,3.832,13.688,6.828,22.065    c-4.064-1.634-11.684-4.218-20.513-6.899c-2.084-0.633-4.099-1.229-6.035-1.788c0.001,0.883,0.036,1.766,0.069,2.649    c1.677,0.531,3.417,1.071,5.213,1.616c9.482,2.88,17.744,5.079,21.775,5.854c1.055,2.898,2.191,5.875,3.414,8.904    c2.886,7.12,5.915,13.692,8.796,19.459c-4.692-1.614-16.562-4.793-30.58-8.133c-0.703-0.167-1.391-0.329-2.083-0.492    c0.476,1.016,0.972,2.021,1.496,3.013c14.732,3.509,27.289,6.112,31.669,6.619c1.946,3.854,3.816,7.327,5.51,10.295    c2.337,4.1,4.292,7.24,5.66,9.273l0.795-0.492c-1.071-2.196-2.748-5.466-4.84-9.643c-1.29-2.571-2.726-5.506-4.239-8.69    c1.429-2.381,5.493-12.974,11.084-25.336C185.551,171.047,187.029,167.874,188.407,164.963z"/>
		<g>
			<path style="fill:#F43B95;" d="M335.877,238.315c-4.102-4.306-9.514-7.081-15.208-8.926c3.439-4.898,6.094-10.37,6.782-16.278     c0.848-7.283-1.753-15.264-7.781-19.439c-10.196-7.062-21.187-4.077-30.697,2.137c2.804-10.912,2.084-22.168-7.771-29.544     c-5.871-4.393-14.264-4.33-20.903-1.216c-5.385,2.525-9.732,6.779-13.287,11.593c-3.555-4.815-7.903-9.068-13.287-11.593     c-6.639-3.114-15.032-3.177-20.903,1.216c-11.2,8.381-10.606,21.774-6.445,33.978c-10.534-7.284-23.142-11.449-34.22-3.062     c-5.846,4.426-8.108,12.51-6.952,19.751c0.937,5.873,3.821,11.228,7.465,15.976c-5.61,2.084-10.9,5.086-14.817,9.561     c-4.829,5.518-7.212,13.566-4.614,20.424c4.396,11.604,15.153,15.359,26.515,15.631c-8.508,7.4-14.31,17.085-10.371,28.758     c2.345,6.948,9.294,11.656,16.527,12.855c5.867,0.973,11.86-0.065,17.518-2.014c0.198,5.982,1.367,11.95,4.37,17.084     c3.702,6.329,10.58,11.141,17.907,10.851c12.394-0.49,19.38-9.484,23.241-20.168c4.322,10.404,11.666,18.965,23.976,18.93     c7.332-0.021,14.001-5.119,17.432-11.599c2.783-5.256,3.699-11.269,3.644-17.253c5.736,1.709,11.767,2.492,17.588,1.272     c7.177-1.505,13.921-6.502,15.969-13.543c3.468-11.92-2.862-21.404-11.784-28.455c11.245-0.797,21.708-5.025,25.58-16.718     C343.656,251.564,340.935,243.624,335.877,238.315z M253.681,262.407c-2.338,1.65-4.439,3.471-6.113,5.543     c-1.722-1.899-3.815-3.557-6.125-5.045c-2.306-1.694-4.699-3.11-7.195-4.04c1.255-2.235,2.164-4.746,2.843-7.408     c0.925-2.878,1.543-5.751,1.577-8.556c2.618,0.676,5.437,0.87,8.344,0.781c2.86,0.088,5.634-0.103,8.217-0.752     c0.234,2.553,0.909,5.136,1.859,7.714c0.824,2.74,1.884,5.31,3.319,7.554C258.06,259.229,255.824,260.688,253.681,262.407z"/>
		</g>
		<g>
			<g>
				<g>
					<path style="fill:#403C73;" d="M246.234,235.368c0.738-0.432-4.652-10.718-10.201-23.858       c-5.598-13.119-9.253-24.141-10.077-23.91c-0.753,0.19,1.671,11.734,7.357,25.065       C238.954,226.015,245.575,235.777,246.234,235.368z"/>
				</g>
				<g>
					<path style="fill:#403C73;" d="M247.789,235.368c0.66,0.41,7.28-9.353,12.921-22.704c5.686-13.331,8.11-24.875,7.357-25.065       c-0.824-0.23-4.479,10.791-10.077,23.91C252.441,224.65,247.051,234.935,247.789,235.368z"/>
				</g>
			</g>
			<g>
				<g>
					<path style="fill:#403C73;" d="M264.727,247.27c0.644,0.563,8.69-7.81,19.393-17.239c10.668-9.469,19.962-16.43,19.482-17.138       c-0.419-0.654-10.599,5.305-21.439,14.924C271.289,237.4,264.129,246.775,264.727,247.27z"/>
				</g>
				<g>
					<path style="fill:#403C73;" d="M265.22,248.744c-0.179,0.755,11.179,3.94,25.629,5.057c14.446,1.166,26.163-0.195,26.104-0.97       c-0.042-0.854-11.654-0.826-25.872-1.976C276.859,249.758,265.396,247.907,265.22,248.744z"/>
				</g>
			</g>
			<g>
				<g>
					<path style="fill:#403C73;" d="M259.301,268.582c-0.33,0.789,10.162,5.765,22.498,12.927       c12.363,7.115,21.911,13.723,22.431,13.043c0.487-0.604-8.392-8.37-20.952-15.602       C270.743,271.677,259.582,267.858,259.301,268.582z"/>
				</g>
				<g>
					<path style="fill:#403C73;" d="M258.059,269.517c-0.773,0.069-0.192,11.851,3.33,25.91c3.474,14.07,8.48,24.752,9.196,24.45       c0.797-0.311-2.911-11.315-6.328-25.164C260.788,280.877,258.909,269.418,258.059,269.517z"/>
				</g>
			</g>
			<g>
				<g>
					<path style="fill:#403C73;" d="M237.369,270.193c-0.853-0.062-2.246,11.466-5.127,25.436       c-2.828,13.98-6.068,25.131-5.259,25.408c0.728,0.271,5.277-10.613,8.154-24.817       C238.062,282.026,238.144,270.23,237.369,270.193z"/>
				</g>
				<g>
					<path style="fill:#403C73;" d="M236.088,269.312c-0.311-0.711-11.301,3.575-23.517,11.373       c-12.243,7.756-20.786,15.89-20.273,16.474c0.548,0.657,9.808-6.348,21.859-13.98       C226.179,275.502,236.451,270.087,236.088,269.312z"/>
				</g>
			</g>
			<g>
				<g>
					<path style="fill:#403C73;" d="M228.887,249.903c-0.211-0.829-11.586,1.505-25.749,3.202       c-14.156,1.75-25.759,2.213-25.765,3.068c-0.026,0.776,11.739,1.64,26.122-0.135       C217.885,254.312,229.098,250.65,228.887,249.903z"/>
				</g>
				<g>
					<path style="fill:#403C73;" d="M229.317,248.409c0.576-0.52-6.974-9.584-18.242-18.698       c-11.237-9.152-21.66-14.676-22.051-14.004c-0.45,0.728,9.131,7.289,20.189,16.299       C220.304,240.974,228.697,248.999,229.317,248.409z"/>
				</g>
			</g>
		</g>
		
			<ellipse transform="matrix(0.7071 -0.7071 0.7071 0.7071 -108.4279 249.5435)" style="fill:#403C73;" cx="247.012" cy="255.656" rx="35.791" ry="35.791"/>
		
			<ellipse transform="matrix(0.9895 -0.1448 0.1448 0.9895 -34.4195 38.4666)" style="fill:#FDA753;" cx="247.012" cy="255.656" rx="20.161" ry="20.161"/>
	</g>
</g>















</svg>
