<?xml version="1.0" encoding="UTF-8"?>
<!-- Generator: Adobe Illustrator 25.2.1, SVG Export Plug-In . SVG Version: 6.00 Build 0)  -->
<svg xmlns="http://www.w3.org/2000/svg" xmlns:xlink="http://www.w3.org/1999/xlink" version="1.1" id="Capa_1" x="0px" y="0px" viewBox="0 0 512 512" style="enable-background:new 0 0 512 512;" xml:space="preserve" width="512" height="512">
<g>
	<g>
		<g>
			<g>
				<g>
					<path style="fill:#FFCF00;" d="M300.437,98.949c5.085-8.379,11.095-16.824,20.742-24.334       c42.478-33.067,106.237-16.272,132.225,20.391c7.698,10.86,12.042,22.95,14.2,35.974c1.36,8.208,1.097,16.422,0.647,24.666       c-0.133,2.43-0.705,4.642-1.76,6.831c-12.769,26.497-36.675,41.817-57.846,43.521c-1.329,0.107-2.642,0.072-3.58-0.965       c-2.937-3.248-11.384-6.57-15.797-7.205c-10.828-1.558-21.941-1.982-38.24,1.247c-8.955,1.774-8.124,2.124-9.202,0.378       c-4.153-6.732-12.605-10.78-19.672-10.687c-2.6,0.034-2.761-0.187-3.116-2.066c-3.062-16.195-7.817-35.266-18.432-48.623       c-6.568-8.265-12.987-6.259-12.408-8.957C288.467,127.865,294.6,108.568,300.437,98.949z"/>
					<path style="fill:#FFCF00;" d="M469.81,144.315c-0.044-3.191-0.134-3.812,0.56-4.198c0.598-0.332,1.066,0.075,1.473,0.417       c78.242,65.766,28.898,150.635-99.047,136.793c-2.394-0.259-1.904-0.884-3.103-6.841c-1.633-8.121-5.489-11.064-0.799-9.905       c6.891,1.703,11.069,3.549,19.433,1.185c13.01-3.677,21.327-13.057,24.561-23.16c0.836-2.61,2.067-1.615,8.795-4.156       C454.336,222.12,470.295,179.357,469.81,144.315z"/>
					<path style="fill:#FFCF00;" d="M275.962,103.806c7.637-3.113,19.476-6.338,22.103-6.54c0.687-0.053,1.188,0.643,0.97,1.32       c-0.166,0.517-0.408,1.016-0.665,1.497c-13.089,24.43-9.711,30.1-13.56,30.167c-25.544,0.444-47.895,31.556-32.488,51.975       c4.851,6.429,9.134,9.386,10.275,10.663c0.394,0.441,0.176,1.163-0.414,1.308c-5.618,1.378-2.876-0.841-23.342,6.111       c-1.86,0.632-1.993,0.588-3.074-1.171c-4.975-8.092-9.602-21.268-9.547-34.292       C226.315,142.097,240.092,118.425,275.962,103.806z"/>
					<path style="fill:#FFCF00;" d="M309.066,259.779c-9.233-4.279-21.271-10.118-29.562-16.058       c-2.499-1.79,0.713-2.206,4.967-4.251c12.219-5.874,17.331-12.127,19.689-14.235c1.887-1.686,1.91,1.364,8.492,4.434       c2.805,1.308,4.666,1.394,3.901,3.23c-0.743,1.784-2.9,3.883-4.615,11.096c-1.991,8.374-0.884,12.368-1.034,14.714       C310.84,259.677,310.09,260.111,309.066,259.779z"/>
				</g>
				<g style="opacity:0.5;">
					<path style="fill:#FD8A02;" d="M467.832,159.429c-13.469,29.875-37.863,44.63-58.866,46.562       c-1.875,0.173-3.447-0.178-4.684-1.666c-1.198-1.44-8.637-5.544-15.238-6.529c-12.087-1.805-26.334-1.823-44.956,2.729       c-2.774,0.678-0.951-1.687-7.615-6.834c-3.793-2.93-8.919-4.901-15.084-4.93c-3.545-0.016-0.907-0.257-5.828-18.109       c-0.981-3.558,11.955-9.584,28.992-7.647c20.786,2.364,51.359,18.749,73.907,8.062c30.046-14.242,35.899-48.727,34.442-68.287       c-0.46-6.17-3.643-11.536-2.298-11.118c0.556,0.173,0.894,0.631,1.201,1.082c15.398,22.586,18.012,39.376,16.286,65.062       C468.06,158.26,467.949,158.709,467.832,159.429z"/>
					<path style="fill:#FD8A02;" d="M493.233,203.053c6.129-25.761-1.161-41.826,1.951-37.289       c18.567,27.072,17.048,53.167,5.993,70.71c-20.454,32.456-65.708,43.228-104.147,42.541       c-6.598-0.118-13.164-0.581-19.732-1.114c-1.641-0.133-3.235-0.602-4.9-0.631c-2-0.034-1.693-1.976-2.425-5.565       c-1.473-7.215-2.602-7.795-3.328-10.448c-0.118-0.43,0.323-0.975,0.752-0.93c4.979,0.529,10.114,4.21,20.517,1.553       c13.976-3.57,13.616-10.145,19.874-9.426C454.562,257.833,485.731,234.264,493.233,203.053z"/>
					<path style="fill:#FD8A02;" d="M298.899,99.097c-3.455,6.501-6.561,12.29-9.615,21.602c-3.207,9.779-2.349,9.509-4.513,9.55       c-24.807,0.464-48.195,31.139-32.423,52.006c2.723,3.603,5.84,6.809,9.276,9.725c0.522,0.443,1.388,0.792,1.097,1.706       c-0.206,0.646-0.374,0.627-4.91,1.247c-8.079,1.105-17.899,5.033-19.531,5.554c-1.162,0.371-1.465,0.289-2.084-0.693       c-6.743-10.702-11.354-26.679-9.59-41.015c2.268-18.43,12.334-32.45,27.64-43.363c13.632-9.719,26.587-13.714,41.694-17.796       c0.617-0.167,1.253-0.291,1.889-0.349C298.822,97.182,299.314,97.913,298.899,99.097z"/>
					<path style="fill:#FD8A02;" d="M315.516,234.849c-2.775,4.162-5.382,13.583-4.672,21.685c0.17,1.94,0.264,3.938-1.715,3.259       c-1.425-0.488-12.714-5.688-22.438-11.552c-11.211-6.761-9.532-5.279-2.455-8.658c6.911-3.3,13.205-7.488,18.554-13.019       c2.264-2.341,2.308-2.174,3.721-0.983c2.756,2.323,5.747,4.213,9.179,5.386C317.442,231.566,316.616,233.198,315.516,234.849z"/>
				</g>
				<g>
					<path style="fill:#FF8EDE;" d="M435.673,225.154c-6.805,5.528-15.505,9.214-19.967,9.998c-2.901,0.51-0.695-2.223-1.214-9.482       c-0.366-5.122-1.881-9.873-4.363-14.335c-0.825-1.484-3.806-3.969-0.237-4.305c18.849-1.774,36.907-14.045,48.619-29.214       c1.954-2.53,3.603-5.296,5.387-7.957c0.935-1.396,1.332-2.455,1.895-2.063c0.757,0.527,0.483,2.473,0.26,3.361       C460.626,192.763,453.041,211.045,435.673,225.154z"/>
					<path style="fill:#FF8EDE;" d="M399.556,202.609c10.143,5.292,15.004,17.848,13.562,29.372       c-2.287,18.275-18.924,31.415-35.881,29.456c-15.982-1.846-34.77-17.941-43.518-31.277c-0.573-0.874-0.53-1.698,0.206-2.496       c3.995-4.341,7.591-10.813,8.812-17.447c1.507-8.188-1.123-8.034,2.802-8.897c9.702-2.133,19.831-3.676,29.963-3.518       C383.376,197.924,392.905,199.139,399.556,202.609z"/>
					<path style="fill:#FF8EDE;" d="M248.786,163.344c6.339-30.045,38.565-38.96,49.699-25.961       c10.567,12.336,16.677,32.623,19.344,48.724c0.308,1.86,0.442,2.941-0.719,3.445c-5.817,2.522-11.625,11.339-13.607,17.323       c-0.143,0.431-0.358,0.842-0.572,1.245c-0.713,1.342-0.902,1.461-2.381,1.147C278.018,204.491,244.09,185.598,248.786,163.344z       "/>
					<path style="fill:#FF8EDE;" d="M317.345,233.89c0.845-1.443,1.969-2.053,3.654-1.718c8.232,1.637,9.74-4.634,12.444-0.494       c5.398,8.262,15.715,18.571,28.481,25.764c4.228,2.383,6.683,12.15,7.402,16.943c1.44,9.592-1.233,11.831,0.98,25.736       c2.202,13.837,7.554,14.605-1.425,14.714C332.569,315.273,298.42,266.238,317.345,233.89z"/>
					<path style="fill:#FF8EDE;" d="M206.811,211.415c-1.067-3.294-1.649-4.747,1.652-4.278c9.517,1.351,19.485-0.628,26.537-3.921       c7.837-3.659,20.369-7.671,29.007-7.772c4.813-0.056,5.699,4.736,24.038,11.623c13.981,5.25,13.817,2.187,13.675,6.471       c-0.038,1.148-0.867,4.208,1.381,7.935c1.171,1.941,1.088,2.035-0.538,3.742C273.601,255.642,219.166,249.559,206.811,211.415z       "/>
					<path style="fill:#FF8EDE;" d="M329.101,229.879c-4.619,2.831-16.885,1.52-24.527-8.174c-1.881-2.385-2.031-5.307-1.585-8.139       c1.172-7.444,4.539-13.847,9.626-19.385c3.48-3.788,7.74-4.969,12.704-4.023c5.871,1.118,10.892,3.698,14.579,8.522       c1.477,1.932,2.29,4.064,2.138,6.615C341.323,217.289,335.384,226.027,329.101,229.879z"/>
				</g>
				<g style="opacity:0.5;">
					<path style="fill:#FC09B2;" d="M333.728,230.146c-0.667-1.022-0.538-1.551,0.204-2.484c0.714-0.897,1.658-1.431,2.698-1.826       c15.382-5.833,25.159,3.369,38.769,5.693c4.684,0.8,9.39,1.69,14.178,0.807c13.754-2.537,19.218-14.871,16.52-22.384       c-0.153-0.426-0.264-0.874-0.336-1.32c-0.019-0.12,0.153-0.345,0.285-0.394c0.373-0.139,0.807,0.384,1.046,0.701       c4.591,6.105,6.862,13.023,6.279,20.599c-1.11,14.404-8.606,24.437-21.861,30.017       C371.288,268.069,345.19,247.691,333.728,230.146z"/>
					<path style="fill:#FC09B2;" d="M276.022,200.297c-13.991-7.455-30.647-21.447-27.203-37.096       c0.158-0.716,0.363-1.422,0.508-2.141c2.979-14.722,17.086-27.361,31.176-29.282c0.268-0.036,0.607,0.026,0.666,0.338       c0.137,0.72-0.119,0.627-4.011,5.755c-7.044,9.28-8.014,19.943-5.503,26.655c3.618,9.669,16.145,9.284,26.567,23.11       c1.579,2.095,4.715,9.875,5.389,16.893c0.195,2.029-0.668,5.295-2.638,4.827C299.279,208.953,287.096,206.198,276.022,200.297z       "/>
					<path style="fill:#FC09B2;" d="M317.159,234.194c0.927-1.644,2.095-2.388,4.036-1.999c3.543,0.71,6.072-0.296,9.022-1.62       c3.187-1.431,1.138,0.178,11.742,11.432c1.239,1.315,1.583,2.839,1.311,4.57c-0.366,2.33-0.66,2.983-7.125,14.801       c-5.808,10.616-8.423,25.2-1.909,37.156c0.359,0.659,0.906,1.404,0.601,1.682c-0.093,0.085-0.371,0.095-0.478,0.016       c-0.516-0.379-1.026-0.772-1.493-1.209C314.975,282.292,305.372,255.104,317.159,234.194z"/>
					<path style="fill:#FC09B2;" d="M247.979,243.993c-2.914-0.339-5.709-1.236-8.564-1.855c-2.166-0.469-4.152-1.412-6.183-2.24       c-0.261-0.106-0.47-0.321-0.369-0.623c0.267-0.796,1.696,0.109,5.004,0.323c12.524,0.81,26.305-5.28,33.435-18.438       c3.61-6.663,1.655-9.763,6.874-15.027c4.072-4.106,3.704,0.306,20.99,4.271c2.366,0.543,2.568,0.674,2.573,2.133       c0.011,3.236-0.898,5.164,1.43,9.008c1.001,1.653,0.912,2.112-0.083,3.162c-10.82,11.413-25.729,18.798-43.641,19.957       c-3.302,0.214-6.582-0.125-9.869-0.301C249.038,244.334,248.511,244.12,247.979,243.993z"/>
					<path style="fill:#FC09B2;" d="M340.964,211.557c-0.588,3.475-2.066,6.403-3.415,9.416c-1.191,2.662-4.216,5.654-6.434,7.541       c-2.755,2.343-6.03,3.053-9.506,2.618c-15.059-1.886-21.637-14.749-16.96-13.707c0.799,0.178,1.598,0.421,2.348,0.745       c6.774,2.927,13.57,0.052,16.869-4.608c4.701-6.638,6.475-12.828,13.773-15.405c1.003-0.354,1.835-0.132,2.414,0.718       c1.142,1.676,2.071,3.446,2.011,5.569C341.994,206.925,341.724,209.374,340.964,211.557z"/>
					<path style="fill:#FC09B2;" d="M461.117,187.714c-6.886,20.695-22.618,40.78-43.774,47.038       c-5.63,1.665-1.901-1.534-2.879-9.035c-0.172-1.318,0.392-2.023,1.569-2.511c19.394-8.037,35.722-28.034,44.327-47.182       c1.244-2.767,2.98-5.249,4.574-7.811c0.666-1.07,1.972-0.487,1.051,3.229C462.773,184.402,465.328,175.058,461.117,187.714z"/>
				</g>
				<g style="opacity:0.5;">
					<path style="fill:#FFFFFF;" d="M306.118,109.937c11.279-21.792,30.156-36.805,55.587-42.265       c9.235-1.983,12.176-2.058,19.077-1.589c3.232,0.219,3.791,2.299,2.342,3.51c-3.67,3.067-14.705,1.98-32.872,17.078       c-18.119,15.058-23.791,29.809-33.149,40.436c-6.453,7.328-14.538,4.56-15.101-3.39       C301.654,118.812,304.068,113.897,306.118,109.937z"/>
					<path style="fill:#FFFFFF;" d="M356.062,302.056c-6.003-6.525-7.171-14.331-7.516-23.233       c-0.383-9.852-3.911-16.888-4.231-19.799c-0.352-3.208,4.311-4.128,9.145,6.333c3.324,7.193,3.188,13.367,4.679,22.211       c0.877,5.205,4.589,10.129,4.525,13.458C362.612,303.739,359.12,305.379,356.062,302.056z"/>
					<path style="fill:#FFFFFF;" d="M296.65,170.353c-2.765-7.06-5.578-14.129-9.358-20.722c-3.046-5.313-0.145-8.015,3.436-5.135       c11.161,8.977,21.068,34.788,16.708,38.067C302.123,186.559,298.494,175.06,296.65,170.353z"/>
					<path style="fill:#FFFFFF;" d="M226.45,218.23c-1.953-1.777-1.549-5.243,1.302-5.814c4.363-0.874,4.816-0.016,9.709-1.668       c12.587-4.248,16.619-8.824,26.027-9.131c4.488-0.147,6.153,3.13,2.168,4.423c-13.196,4.283-15.212,10.539-29.908,13.487       C233.499,219.978,228.179,219.803,226.45,218.23z"/>
					<path style="fill:#FFFFFF;" d="M388.715,212.403c-1.551-0.056-3.111-0.051-4.652-0.216c-17.65-1.892-31.313,5.056-32.254-0.737       c-0.383-2.356,1.204-3.483,3.66-4.394c11.762-4.362,24.863-3.346,32.907,0.393       C391.336,208.825,393.575,212.578,388.715,212.403z"/>
					<path style="fill:#FFFFFF;" d="M310.531,207.8c5.878-17.797,18.224-11.798,14.861-9.319c-5.541,4.085-5.87,8.389-9.115,13.837       C314.529,215.253,308.739,214.557,310.531,207.8z"/>
				</g>
				<g>
					<path style="fill:#FC09B2;" d="M394.296,156.66c-2.927-5.109,1.638-9.737,7.339-10.353c8.837-0.954,16.329,3.232,18.799,7.615       C427.06,165.682,401.396,169.056,394.296,156.66z"/>
					<path style="fill:#FC09B2;" d="M353.873,146.944c4.929-3.221,2.966-9.418-1.833-12.558c-7.438-4.866-16.015-4.542-20.207-1.76       C320.587,140.089,341.914,154.758,353.873,146.944z"/>
				</g>
			</g>
			<g>
				<g>
					<path style="fill:#000E3F;" d="M466.689,117.484c5.027,16.698,1.779,17.555,5.526,20.566       c41.675,33.485,56.089,85.041,13.83,118.132c-42.857,33.559-111.101,23.233-112.92,23.328c-0.639,0.033-1.061,0.42-1.094,1.021       c-0.275,5.024-0.787,10.039-0.221,15.082c1.149,10.24,3.615,14.865,4.605,17.759c0.645,1.887-0.408,2.919-2.269,3.146       c-15.882,1.939-31.838-5.388-43.44-16.68c-11.42-11.115-18.02-24.994-19.595-34.65c-0.305-1.871-1.269-2.899-2.923-3.566       c-8.307-3.352-22.389-10.949-30.161-16.336c-1.41-0.977-2.049-1.442-3.506-1.034c-32.825,9.195-61.757-7.294-69.694-32.194       c-4.8-15.059,3.658-0.736,27.665-10.049c0.921-0.357,1.764-0.735,1.353-1.65c-0.374-0.835-0.723-1.685-1.151-2.492       c-25.94-48.957,8.695-91.516,65.544-102.785c1.633-0.324,2.771-1.038,3.714-2.462       C344.134,28.887,446.672,50.996,466.689,117.484z M297.036,107.303c-5.303,10.778-6.126,16.511-7.29,18.94       c-0.387,0.808-0.497,1.758-0.673,2.655c-0.518,2.638,4.48-0.962,12.525,8.933c9.635,11.851,15.944,33.214,18.35,48.371       c0.222,1.398,0.355,1.519,1.758,1.52c8.369,0.006,16.33,4.473,20.131,10.086c1.457,2.152,1.759,1.854,3.852,1.383       c17.182-3.873,47.532-7.009,59.943,5.088c0.74,0.721,1.51,0.884,2.485,0.798c9.019-0.794,17.916-3.449,28.286-9.844       c19.086-11.769,30.625-32.202,30.953-39.734c0.766-17.6,0.059-19.65-1.202-27.094c-4.347-25.667-20.59-47.396-45.139-59.357       C374.802,46.532,322.141,56.275,297.036,107.303z M492.34,163.386c-6.579-8.941-15.714-17.992-21.233-22.104       c-0.704,0.881-0.342,1.901-0.335,2.857c0.121,16.566-2.208,22.94-2.469,25.907c-0.62,7.021-4.277,15.426-4.989,17.929       c-4.228,14.859-18.214,36.371-36.503,45.278c-10.301,5.016-12.444,3.103-13.385,6.493c-0.79,2.846-2.288,5.382-3.868,7.858       c-7.012,10.992-22.184,19.043-36.421,15.238c-1.59-0.425-3.227-0.686-4.702-1.48c-0.121-0.065-0.414-0.02-0.481,0.076       c-0.167,0.238,0.026,0.654,0.971,3.09c5.262,13.558-2.513,11.376,15.859,12.962c39.114,3.376,90.133-5.952,112.928-37.628       C515.107,215.691,509.85,187.184,492.34,163.386z M376.246,260.174c8.373,2.154,22.507-1.892,30.479-13.92       c11.238-16.957,4.405-35.858-6.573-42.164c-13.754-7.901-38.206-5.646-53.56-1.967c-2.102,0.503-2.321,0.502-2.419,2.818       c-0.441,10.424-4.007,16.641-9.434,23.165c-0.81,0.974-0.386,1.519,0.954,3.318c5.736,7.698,12.394,14.457,20.326,19.911       C365.691,257.985,370.208,258.621,376.246,260.174z M300.502,208.427c1.559,0.313,1.4-0.521,2.014-1.995       c2.744-6.581,7.25-14.063,13.55-17.462c1.307-0.705,0.922-1.679,0.739-2.889c-2.323-15.359-7.043-27.809-12.295-38.27       c-5.953-11.858-14.321-18.094-27.247-14.477c-14.467,4.048-25.193,16.773-27.566,29.644c-1.2,6.508-0.196,12.743,5.724,19.86       c6.53,7.85,16.152,14.331,25.416,18.817C287.357,204.812,295.666,207.455,300.502,208.427z M369.15,313.826       c5.184,0.017,3.658-0.215,1.838-6.519c-6.249-21.642,2.457-29.122-7.229-46.684c-0.588-1.066-1.361-1.85-2.477-2.453       c-9.388-5.069-17.332-11.901-24.129-20.086c-5.485-6.604-4.793-7.61-6.743-6.535c-7.316,4.03-10.534-0.518-12.59,3.493       c-2.047,3.995-3.761,8.046-4.371,12.597C309.028,280.622,339.341,313.73,369.15,313.826z M294.891,230.745       c2.542-1.96,5.008-4.007,7.147-6.414c0.927-1.043,0.986-1.174,0.241-2.409c-2.009-3.329-1.778-5.613-1.434-9.279       c0.109-1.157-0.688-1.17-3.54-1.872c-23.601-5.802-28.883-14.881-33.765-14.382c-26.552,2.711-31.11,13.851-53.654,11.95       c-0.948-0.08-2.147-0.986-2.781-0.108c-0.566,0.784,0.337,1.892,0.63,2.833C218.089,244.351,264.21,254.405,294.891,230.745z        M227.391,169.69c0.865,11.697,5.859,24.051,9.266,29.064c0.847,1.246,1.281,0.914,3.928-0.074       c27.621-10.31,23.845,1.362,10.849-16.082c-15.748-21.139,7.392-52.522,32.577-53.279c2.914-0.087,0.892,0.376,5.52-12.24       c6.866-18.716,11.121-19.474,6.3-18.375C258.247,107.266,224.561,131.417,227.391,169.69z M340.449,210.775       c0.45-1.229,0.428-3.359,0.595-5.45c0.174-2.168-0.446-4.153-1.801-5.904c-4.32-5.584-10.124-8.197-17.053-8.541       c-2.978-0.148-5.546,0.783-7.716,2.924c-7.469,7.364-10.849,16.703-10.676,22.197c0.116,3.673,1.105,5.003,4.195,7.968       c4.848,4.652,15.38,8.535,20.923,4.904c1.454-0.953,2.822-1.999,3.997-3.321C336.521,221.495,338.829,216.783,340.449,210.775z        M464.865,171.14c0.025-0.108-0.109-0.253-0.169-0.381c-1.505,0.771-9.636,18.846-32.979,30.6       c-16.766,8.442-23.976,5.124-21.901,7.879c1.501,1.993,2.535,4.241,3.435,6.535c5.513,14.053-0.86,19.43,3.346,18.229       c12.755-3.642,25.332-12.359,36.19-30.3C458.825,193.723,462.23,182.535,464.865,171.14z M309.928,257.686       c-0.082-8.977-0.065-14.756,5.412-24.555c1.059-1.894-2.142-0.738-9.283-6.745c-0.847-0.712-1.013-0.663-1.848,0.126       c-5.439,5.138-9.813,9.382-20.588,14.43c-4.587,2.15-5.785,0.844,3.93,6.689c5.263,3.166,10.682,6.039,16.246,8.641       C308.598,258.518,309.945,259.535,309.928,257.686z"/>
					<path style="fill:#000E3F;" d="M369.133,317.34c-13.378,0-27.546-6.184-38.79-17.128       c-12.323-11.993-18.339-26.317-19.746-34.939c-0.262-1.609-1.017-2.527-2.604-3.167c-8.433-3.403-22.574-11.062-30.262-16.39       c-1.411-0.979-1.865-1.297-3.069-0.961c-34.45,9.649-62.817-8.963-70.33-32.538c-1.451-4.552-1.657-6.327-0.848-7.305       c0.816-0.986,2.402-0.794,5.031-0.477c4.644,0.561,12.418,1.503,23.79-2.91c0.353-0.137,1.008-0.391,1.113-0.646       c0.028-0.07,0.013-0.173-0.047-0.307l-0.27-0.612c-0.275-0.624-0.547-1.249-0.865-1.848       c-10.534-19.883-11.654-39.745-3.236-57.443c10.81-22.728,36.01-39.53,69.138-46.096c1.532-0.305,2.544-0.974,3.38-2.24       c18.916-28.582,51.934-42.448,88.322-37.093c37.282,5.486,67.643,29.859,77.347,62.093l0,0       c2.495,8.287,2.968,12.743,3.25,15.405c0.287,2.7,0.374,3.516,2.103,4.906c24.859,19.973,39.609,46.285,39.458,70.383       c-0.117,18.732-8.981,35.525-25.632,48.564c-35.756,27.996-89.994,25.822-111.647,23.584c-0.777-0.079-1.451-0.171-1.569-0.144       c-0.26,0.012-0.576,0.116-0.6,0.529c-0.05,0.911-0.107,1.82-0.165,2.729c-0.254,4.022-0.517,8.181-0.058,12.266       c0.929,8.284,2.712,12.823,3.891,15.826c0.268,0.683,0.504,1.283,0.688,1.824c0.334,0.974,0.288,1.81-0.134,2.483       c-0.461,0.734-1.348,1.202-2.564,1.348C372.535,317.241,370.84,317.34,369.133,317.34z M275.469,243.587       c1.018,0,1.749,0.506,2.792,1.23c7.7,5.337,21.746,12.944,30.122,16.323c1.921,0.777,2.92,1.999,3.24,3.966       c1.382,8.465,7.304,22.544,19.446,34.362c12.456,12.121,28.539,18.301,43.014,16.534c0.624-0.075,1.444-0.289,1.809-0.868       c0.247-0.395,0.257-0.929,0.031-1.592c-0.18-0.529-0.41-1.114-0.672-1.781c-1.2-3.054-3.013-7.67-3.957-16.088       c-0.469-4.177-0.203-8.382,0.054-12.449c0.058-0.907,0.115-1.814,0.165-2.721c0.048-0.858,0.685-1.466,1.587-1.513       c0.171,0,0.579,0.03,1.727,0.15c21.534,2.22,75.444,4.396,110.898-23.368c16.393-12.836,25.119-29.348,25.234-47.751       c0.15-23.783-14.456-49.788-39.069-69.565c-2.067-1.661-2.189-2.816-2.486-5.607c-0.279-2.626-0.745-7.021-3.212-15.214       c-9.59-31.85-39.618-55.936-76.502-61.364c-35.981-5.296-68.615,8.402-87.302,36.638c-0.991,1.499-2.24,2.326-4.046,2.685       c-32.803,6.502-57.735,23.095-68.402,45.522c-8.27,17.388-7.158,36.928,3.216,56.508c0.33,0.623,0.615,1.27,0.899,1.917       l0.267,0.606c0.181,0.404,0.201,0.783,0.06,1.128c-0.275,0.668-1.098,0.987-1.7,1.22c-11.616,4.509-19.55,3.548-24.291,2.973       c-2.12-0.256-3.651-0.44-4.103,0.107c-0.621,0.752,0.132,3.484,1.038,6.326c7.364,23.104,35.211,41.34,69.057,31.852       C274.787,243.639,275.143,243.587,275.469,243.587z M369.574,314.347c-0.137,0-0.279,0-0.426,0l0,0       c-14.328-0.047-29.629-7.812-40.93-20.769c-11.816-13.551-17.387-30.32-15.284-46.007c0.661-4.93,2.607-9.219,4.423-12.764       c1.163-2.268,2.802-2.158,4.694-2.032c2.004,0.134,4.504,0.304,8.108-1.682c1.687-0.927,2.093-0.366,3.603,1.734       c0.766,1.067,1.927,2.679,3.791,4.924c7.007,8.44,15.074,15.155,23.975,19.96c1.184,0.64,2.038,1.484,2.686,2.66       c5.38,9.755,5.161,16.385,4.907,24.061c-0.203,6.111-0.432,13.034,2.367,22.73c0.392,1.36,0.77,2.43,1.074,3.288       c0.596,1.692,0.896,2.54,0.434,3.19C372.541,314.282,371.544,314.347,369.574,314.347z M369.152,313.306       c1.172,0.004,2.799,0.008,2.996-0.268c0.148-0.21-0.2-1.196-0.568-2.239c-0.308-0.872-0.69-1.958-1.092-3.347       c-2.845-9.854-2.613-16.865-2.408-23.053c0.25-7.524,0.466-14.021-4.776-23.525c-0.555-1.005-1.256-1.698-2.269-2.245       c-9.019-4.869-17.188-11.67-24.282-20.212c-1.888-2.273-3.06-3.903-3.836-4.981c-1.377-1.914-1.375-1.913-2.255-1.43       c-3.872,2.131-6.652,1.943-8.68,1.809c-1.897-0.126-2.848-0.19-3.698,1.467c-1.776,3.466-3.678,7.654-4.319,12.427       c-2.062,15.39,3.419,31.859,15.038,45.184C340.109,305.63,355.118,313.259,369.152,313.306L369.152,313.306z M399.944,278.652       c-5.177,0-10.266-0.218-15.205-0.645c-1.982-0.171-3.659-0.297-5.081-0.405c-8.024-0.608-8.337-0.632-9.002-4.681       c-0.282-1.719-0.708-4.317-2.216-8.206l-0.275-0.705c-0.839-2.153-0.947-2.431-0.638-2.872       c0.236-0.335,0.835-0.407,1.154-0.236c1.07,0.574,2.228,0.854,3.453,1.15c0.38,0.092,0.761,0.184,1.138,0.285       c14.582,3.899,29.349-4.828,35.848-15.014c1.423-2.232,3.008-4.853,3.805-7.718c0.597-2.152,1.721-2.476,4.186-3.184       c1.951-0.561,4.898-1.41,9.472-3.637c17.675-8.609,31.858-29.585,36.231-44.953c0.177-0.621,0.521-1.571,0.956-2.772       c1.328-3.665,3.55-9.799,4.015-15.06c0.064-0.731,0.248-1.655,0.481-2.827c0.726-3.649,2.077-10.442,1.986-23.031       c-0.001-0.224-0.024-0.45-0.047-0.678c-0.077-0.788-0.165-1.681,0.496-2.507l0.314-0.392l0.404,0.3       c5.496,4.094,14.592,13.039,21.341,22.213c19.551,26.572,21.511,54.67,5.376,77.088       C478.569,267.354,437.097,278.652,399.944,278.652z M368.483,261.971c0.125,0.308,0.354,0.895,0.653,1.663l0.275,0.706       c1.548,3.99,1.986,6.652,2.274,8.414c0.532,3.24,0.532,3.24,8.052,3.81c1.425,0.108,3.106,0.236,5.092,0.407       c40.079,3.463,90.407-6.767,112.461-37.413c15.854-22.028,13.896-49.68-5.368-75.864c-6.424-8.731-15.285-17.514-20.648-21.634       c-0.122,0.388-0.079,0.822-0.033,1.302c0.025,0.26,0.05,0.518,0.052,0.773c0.092,12.696-1.272,19.556-2.005,23.242       c-0.227,1.14-0.407,2.041-0.466,2.715c-0.477,5.396-2.728,11.61-4.073,15.323c-0.429,1.182-0.767,2.117-0.934,2.702       c-4.433,15.584-18.829,36.864-36.775,45.604c-4.653,2.267-7.654,3.131-9.639,3.702c-2.387,0.686-3.029,0.871-3.471,2.463       c-0.835,3.003-2.467,5.704-3.93,7.998c-6.698,10.499-21.943,19.482-36.995,15.461c-0.37-0.1-0.742-0.189-1.114-0.279       C370.755,262.792,369.586,262.51,368.483,261.971z M368.189,261.82c0.005,0.004,0.012,0.007,0.018,0.01       C368.201,261.828,368.195,261.824,368.189,261.82z M381.047,261.267c-1.749,0-3.409-0.196-4.931-0.588       c-0.616-0.159-1.216-0.308-1.808-0.454c-5.272-1.308-9.824-2.438-18.584-8.461c-7.624-5.242-14.313-11.794-20.449-20.029       c-1.346-1.808-1.999-2.683-0.936-3.961c5.43-6.527,8.882-12.628,9.313-22.855c0.106-2.475,0.468-2.74,2.677-3.267l0.142-0.035       c16.416-3.933,40.392-5.761,53.94,2.021c5.617,3.227,10.013,9.562,11.757,16.946c2.067,8.747,0.289,17.965-5.008,25.959       C400.629,256.395,389.758,261.267,381.047,261.267z M374.308,199.265c-9.575,0-19.508,1.426-27.595,3.364l-0.143,0.035       c-1.798,0.429-1.798,0.429-1.877,2.299c-0.444,10.519-3.986,16.782-9.553,23.475c-0.504,0.606-0.443,0.777,0.924,2.612       c6.112,8.205,12.721,14.679,20.25,19.855c8.604,5.916,13.072,7.025,18.245,8.309c0.595,0.147,1.198,0.297,1.818,0.456l0,0       c8.745,2.248,22.329-2.259,29.915-13.703c5.136-7.75,6.864-16.68,4.864-25.143c-1.681-7.11-5.891-13.197-11.263-16.283       C393.227,200.712,383.948,199.265,374.308,199.265z M309.328,259.168c-0.709,0-1.76-0.508-3.646-1.419       c-0.614-0.296-1.313-0.633-2.106-1.004c-5.631-2.633-11.113-5.549-16.294-8.667c-1.055-0.635-1.982-1.185-2.789-1.665       c-3.964-2.356-4.906-2.915-4.839-3.762c0.052-0.662,0.753-0.94,1.912-1.401c0.512-0.203,1.133-0.449,1.834-0.779       c10.475-4.908,14.941-9.129,20.113-14.017l0.338-0.319c0.975-0.919,1.453-1.061,2.54-0.146c3.671,3.089,6.252,4.24,7.793,4.927       c1.051,0.47,1.631,0.728,1.821,1.301c0.148,0.445-0.05,0.882-0.212,1.171c-5.479,9.801-5.426,15.567-5.346,24.295l0,0       c0.004,0.423-0.046,1.021-0.522,1.322C309.752,259.114,309.558,259.168,309.328,259.168z M280.746,242.754       c0.356,0.431,2.028,1.425,4.28,2.763c0.808,0.48,1.737,1.032,2.794,1.667c5.15,3.099,10.6,5.997,16.198,8.615       c0.797,0.373,1.501,0.713,2.117,1.011c1.498,0.723,2.893,1.398,3.239,1.31c-0.009-0.007,0.036-0.112,0.034-0.429l0,0       c-0.081-8.895-0.135-14.772,5.478-24.814c0.142-0.253,0.132-0.337,0.132-0.338c-0.064-0.142-0.697-0.425-1.257-0.674       c-1.591-0.711-4.256-1.899-8.039-5.082c-0.385-0.324-0.509-0.377-0.549-0.379c-0.107,0.013-0.469,0.356-0.605,0.485       l-0.339,0.319c-5.237,4.949-9.759,9.225-20.387,14.204c-0.723,0.339-1.362,0.593-1.891,0.803       C281.482,242.403,280.958,242.612,280.746,242.754z M256.712,244.2c-6.089,0-12.16-0.895-17.967-2.731       c-15.574-4.923-27.058-15.949-31.506-30.249c-0.077-0.249-0.203-0.509-0.327-0.773c-0.361-0.763-0.81-1.711-0.228-2.518       c0.657-0.909,1.671-0.572,2.416-0.324c0.305,0.102,0.593,0.197,0.832,0.218c12.055,1.017,18.909-1.734,26.847-4.915       c6.761-2.71,14.425-5.781,26.71-7.035c2.054-0.222,4.093,1.078,7.174,3.03c4.914,3.113,12.339,7.817,26.767,11.365l1.001,0.24       c2.045,0.484,3.072,0.728,2.933,2.186c-0.344,3.646-0.546,5.8,1.361,8.96c0.884,1.463,0.743,1.852-0.297,3.024       c-2.278,2.563-4.928,4.714-7.219,6.481v-0.001C284.154,239.682,270.389,244.2,256.712,244.2z M207.872,208.373       c-0.161,0-0.263,0.053-0.345,0.165c-0.207,0.287-0.006,0.766,0.324,1.463c0.146,0.31,0.29,0.618,0.381,0.91       c4.345,13.971,15.58,24.747,30.826,29.565c18.531,5.86,39.805,1.971,55.514-10.143v-0.001c2.253-1.736,4.856-3.848,7.076-6.346       c0.755-0.85,0.755-0.85,0.185-1.794c-2.085-3.455-1.859-5.868-1.515-9.521c0.053-0.558,0.06-0.631-2.129-1.15l-1.01-0.243       c-14.594-3.588-22.105-8.347-27.076-11.496c-2.897-1.835-4.801-3.05-6.511-2.874c-12.14,1.239-19.73,4.282-26.428,6.966       c-8.062,3.231-15.028,6.028-27.322,4.985c-0.363-0.031-0.724-0.15-1.074-0.267C208.345,208.45,208.066,208.373,207.872,208.373       z M415.704,234.686c-0.301,0-0.574-0.07-0.792-0.262c-0.526-0.464-0.402-1.277-0.195-2.625       c0.417-2.732,1.195-7.817-1.951-15.835c-0.786-2.004-1.802-4.333-3.366-6.411c-0.287-0.381-0.59-0.88-0.385-1.373       c0.27-0.651,1.106-0.766,2.937-1.02c3.172-0.438,9.775-1.351,19.531-6.264c18.509-9.321,27.255-22.437,30.989-28.038       c1.16-1.742,1.583-2.354,1.987-2.561l0.478-0.245l0.23,0.486c0.128,0.206,0.271,0.434,0.206,0.718v0.002       c-2.205,9.535-5.578,21.868-12.142,32.715c-9.9,16.36-21.837,26.347-36.492,30.531       C416.385,234.604,416.029,234.686,415.704,234.686z M409.992,208.593c0.035,0.026,0.093,0.139,0.239,0.332       c1.641,2.179,2.692,4.587,3.505,6.658c3.247,8.279,2.442,13.545,2.01,16.373c-0.11,0.715-0.233,1.525-0.132,1.701       c-0.008-0.016,0.161,0.039,0.839-0.154c14.392-4.109,26.13-13.944,35.888-30.069c6.179-10.21,9.505-21.79,11.697-31.04       c-0.218,0.318-0.457,0.677-0.699,1.042c-3.78,5.669-12.633,18.945-31.388,28.39c-9.911,4.991-16.628,5.92-19.856,6.367       C411.189,208.316,410.254,208.445,409.992,208.593z M323.398,230.84c-5.649,0-12.274-3.145-15.766-6.496       c-3.062-2.939-4.231-4.419-4.353-8.327c-0.176-5.56,3.139-15,10.831-22.584c2.227-2.195,4.94-3.243,8.108-3.072       c7.365,0.365,13.232,3.306,17.438,8.742c1.45,1.874,2.091,3.981,1.908,6.265c-0.045,0.558-0.075,1.118-0.106,1.663       c-0.083,1.507-0.163,2.929-0.511,3.901c-1.686,6.24-4.115,10.996-7.644,14.966c-1.066,1.2-2.332,2.251-4.103,3.41       C327.56,230.384,325.549,230.84,323.398,230.84z M321.579,191.386c-2.63,0-4.84,0.916-6.739,2.79       c-7.137,7.037-10.696,16.298-10.521,21.81c0.111,3.553,1.077,4.769,4.034,7.609c4.469,4.29,14.839,8.404,20.276,4.844       c1.691-1.107,2.892-2.104,3.894-3.231c3.422-3.849,5.781-8.478,7.423-14.566l0.013-0.044c0.303-0.827,0.378-2.185,0.459-3.623       c0.03-0.554,0.062-1.123,0.108-1.69c0.162-2.017-0.409-3.883-1.695-5.545c-4.067-5.256-9.518-7.984-16.666-8.339       C321.967,191.391,321.772,191.386,321.579,191.386z M301.06,209.01c-0.192,0-0.411-0.023-0.66-0.073l0,0       c-4.856-0.976-13.212-3.63-19.789-6.814c-10.608-5.138-19.696-11.869-25.59-18.954c-5.421-6.517-7.222-12.774-5.836-20.287       c2.546-13.803,14.034-26.16,27.937-30.05c12.069-3.378,21.178,1.447,27.854,14.744c6.289,12.531,10.328,25.1,12.343,38.426       l0.075,0.443c0.183,1.027,0.389,2.189-1.081,2.983c-6.898,3.721-11.304,12.376-13.316,17.204       c-0.124,0.297-0.215,0.566-0.296,0.804C302.43,208.243,302.171,209.01,301.06,209.01z M284.281,132.813       c-2.161,0-4.45,0.343-6.878,1.022c-13.536,3.787-24.718,15.81-27.193,29.237c-1.325,7.181,0.406,13.174,5.612,19.433       c5.8,6.973,14.765,13.607,25.242,18.681c6.499,3.147,14.75,5.768,19.541,6.731l0,0c0.786,0.158,0.801,0.103,1.11-0.812       c0.087-0.258,0.187-0.551,0.32-0.872c2.066-4.954,6.603-13.846,13.784-17.72c0.769-0.414,0.741-0.807,0.55-1.883l-0.079-0.47       c-1.999-13.216-6.005-25.684-12.245-38.115C298.893,137.781,292.51,132.813,284.281,132.813z M407.673,205.619       c-0.984,0-1.722-0.301-2.404-0.966c-11.293-11.005-39.09-9.547-59.465-4.953l-0.484,0.112c-1.843,0.432-2.441,0.463-3.913-1.71       c-3.927-5.799-12.029-9.853-19.7-9.858c-1.65-0.001-2.011-0.312-2.273-1.958c-2.336-14.727-8.516-36.166-18.239-48.125       c-4.967-6.109-8.687-6.943-10.685-7.391c-1.15-0.257-2.236-0.501-1.947-1.97l0.101-0.543c0.134-0.751,0.274-1.529,0.613-2.237       c0.349-0.727,0.671-1.784,1.116-3.246c1.004-3.292,2.52-8.267,6.176-15.698l0,0c11.961-24.314,30.774-40.559,54.404-46.979       c21.878-5.948,46.835-2.933,70.269,8.486c24.457,11.916,41.013,33.69,45.425,59.739l0.306,1.775       c1.069,6.16,1.607,9.253,0.903,25.428c-0.317,7.295-11.618,28.08-31.199,40.155c-9.693,5.976-18.488,9.035-28.515,9.918       C407.993,205.612,407.83,205.619,407.673,205.619z M375.018,195.229c12.711,0,24.465,2.33,30.977,8.678       c0.566,0.552,1.15,0.733,2.076,0.653c9.857-0.868,18.511-3.88,28.059-9.768c19.277-11.887,30.397-32.206,30.706-39.313       c0.7-16.063,0.169-19.118-0.889-25.205l-0.307-1.779c-4.355-25.714-20.702-47.21-44.853-58.977       c-41.993-20.46-96.395-16.641-123.284,38.017c-3.619,7.355-5.12,12.282-6.114,15.542c-0.46,1.507-0.791,2.595-1.173,3.393       c-0.279,0.581-0.4,1.257-0.529,1.972l-0.104,0.56c-0.087,0.447-0.093,0.474,1.154,0.753c2.122,0.476,6.07,1.361,11.264,7.75       c9.854,12.119,16.103,33.764,18.46,48.618c0.172,1.08,0.172,1.08,1.245,1.081c8.124,0.005,16.386,4.15,20.562,10.316       c1.135,1.674,1.228,1.652,2.813,1.281l0.493-0.115C354.613,196.646,365.107,195.229,375.018,195.229z M237.779,200.084       c-0.594,0-1.044-0.29-1.552-1.037c-3.349-4.927-8.465-17.28-9.355-29.318l0,0c-2.994-40.495,33.599-63.504,68.844-71.534       l0.174-0.04c1.427-0.325,2.019-0.463,2.378,0.016c0.379,0.504,0.072,1.058-0.944,2.893c-1.413,2.555-4.046,7.311-7.303,16.192       c-1.826,4.978-2.609,7.897-3.077,9.64c-0.67,2.502-0.774,2.886-2.656,2.934l-0.262,0.007       c-13.468,0.405-27.381,10.01-33.833,23.358c-5.005,10.354-4.4,20.956,1.658,29.089c3.959,5.315,7.007,7.862,8.645,9.231       c1.07,0.894,1.513,1.264,1.355,1.812c-0.161,0.562-0.721,0.641-2.385,0.873c-2.801,0.391-8.63,1.206-18.7,4.966l-0.701,0.264       C239.053,199.817,238.35,200.084,237.779,200.084z M297.276,98.927c-0.292,0.046-0.729,0.145-1.155,0.243l-0.174,0.04       c-34.822,7.934-70.983,30.606-68.036,70.442l0,0c0.874,11.847,5.893,23.979,9.176,28.81c0.516,0.757,0.537,0.785,2.609-0.002       l0.707-0.267c10.177-3.799,16.082-4.624,18.92-5.021c0.488-0.068,0.958-0.133,1.275-0.195       c-0.201-0.185-0.488-0.425-0.769-0.659c-1.67-1.396-4.78-3.995-8.813-9.408c-6.298-8.455-6.94-19.45-1.76-30.164       c6.614-13.684,20.9-23.531,34.74-23.947l0.266-0.007c1.104-0.028,1.104-0.028,1.677-2.163c0.472-1.761,1.263-4.707,3.104-9.729       c3.286-8.957,5.943-13.759,7.37-16.339C296.784,99.892,297.118,99.289,297.276,98.927z"/>
				</g>
				<path style="fill:#000E3F;" d="M359.935,117.799c-1.17,4.93-5.68,7.592-10.362,6.559c-4.732-1.043-7.707-6.03-6.602-10.384      c1.195-4.706,5.662-7.495,10.413-6.411C358.231,108.67,361.073,113.11,359.935,117.799z"/>
				<path style="fill:#000E3F;" d="M408.153,138.482c-4.258-0.906-7.4-6.211-6.225-10.352c1.059-3.733,4.829-7.612,10.525-6.375      C423.307,124.113,420.015,141.007,408.153,138.482z"/>
				<g>
					<path style="fill:#000E3F;" d="M378.932,143.001c-2.866,0-5.647-1.04-7.8-3.021c-4.379-4.03-5.563-11.051-3.248-19.263       c0.305-1.088,1.441-1.717,2.523-1.412c1.086,0.306,1.718,1.436,1.413,2.522c-1.884,6.676-1.126,12.196,2.08,15.145       c2.114,1.944,5.054,2.475,7.858,1.423c4.12-1.542,6.98-6.088,7.653-12.158c0.124-1.12,1.112-1.927,2.258-1.806       c1.122,0.124,1.93,1.135,1.806,2.257c-0.846,7.634-4.691,13.442-10.283,15.536       C381.794,142.745,380.353,143.001,378.932,143.001z"/>
				</g>
			</g>
		</g>
		<g>
			<g>
				<path style="fill:#FC09B2;" d="M492.966,342.765c-2.019,3.02-3.328,3.655-3.606,5.354c-1.089,6.66,0.083,13.98-0.791,20.788      c-1.784,13.896-6.29,27.684-14.69,39.027c-21.936,29.622-80.379,47.589-102.438-12.918c-7.013-19.243-4.509-20.599-8.053-22.248      c-10.385-4.841-23.527,1.752-22.754,7.324c1.368,9.846,1.022,28.604-3.467,41.543c-6.513,18.754-19.181,30.446-39.044,32.877      c-27.441,3.346-48.678-5.993-64.143-24.371c-9.72-11.543-16.308-27.229-18.87-38.382c-0.297-1.258-1.012-2.141-2.153-2.836      c-8.356-5.234-13.388-13.607-7.845-21.7c14.791-21.578,78.475-27.678,115.24-14.103c11.118,4.085,10.485,7.101,14.551,4.614      c9.303-5.713,18.42-6.845,28.929-4.838c4.053,0.785,3.018,1.461,6.273-1.998c6.934-7.396,17.031-13.727,26.164-18.255      C449.535,306.273,512.475,313.241,492.966,342.765z"/>
				<g>
					<path style="fill:#00B0C4;" d="M306.829,441.816c-23.951,7.88-43.312,1.729-57.204-9.773       c-22.431-18.592-30.598-51.147-20.796-60.889c15.979-15.863,50.087-21.061,74.311-13.423       c10.312,3.279,18.846,8.858,23.417,16.929C341.745,401.461,328.828,434.566,306.829,441.816z"/>
					<path style="fill:#00B0C4;" d="M468.44,398.221c-6.483,10.059-15.967,18.634-29.029,23.309       c-9.238,3.303-19.566,4.102-26.796,3.102c-30.787-4.292-48.302-51.635-25.822-74.207c2.313-2.321,4.861-4.451,7.566-6.377       c27.422-19.629,71.796-18.892,80.415-5.753C482.397,349.934,481.962,377.273,468.44,398.221z"/>
				</g>
				<g style="opacity:0.25;">
					<path style="fill:#000E3F;" d="M306.829,441.816c-23.951,7.88-43.312,1.729-57.204-9.773       c6.815-13.422,22.672-12.029,35.239-15.346c25.156-6.637,34.409-33.013,18.276-58.966c10.312,3.279,18.846,8.858,23.417,16.929       C341.745,401.461,328.828,434.566,306.829,441.816z"/>
					<path style="fill:#000E3F;" d="M468.44,398.221c-6.483,10.059-15.967,18.634-29.029,23.309       c-9.238,3.303-19.566,4.102-26.796,3.102c-30.787-4.292-48.302-51.635-25.822-74.207c2.313-2.321,4.861-4.451,7.566-6.377       c-1.185,3.058-2.901,8.867-1.434,18.553c2.392,15.835,13.858,27.979,29.523,31.221       C438.185,397.116,455.535,385.74,468.44,398.221z"/>
				</g>
				<g style="opacity:0.5;">
					<path style="fill:#FFFFFF;" d="M239.871,374.485c5.696-7.924,19.193-12.704,28.813-11.976c3.534,0.268,5.336,3.485,0.941,6.897       c-2.092,1.624-4.183,3.252-6.319,4.818c-7.678,5.629-10.377,14.482-9.363,22.72c0.31,2.519,0.407,5.078,0.66,7.616       c0.712,7.134-5.726,8.519-9.827,3.54C236.74,398.344,232.273,385.055,239.871,374.485z"/>
					<path style="fill:#FFFFFF;" d="M452.404,336.883c7.57,1.958,12.762,6.597,15.412,14.087c2.576,7.28,0.376,21.188-4.176,26.229       c-2.199,2.435-5.418,2.122-7.106-0.716c-2.097-3.525-1.953-7.54-2.895-11.182c-5.052-19.518-20.443-17.72-25.867-22.109       C422.169,338.659,436.974,332.893,452.404,336.883z"/>
					<path style="fill:#FFFFFF;" d="M470.424,320.349c33.653,2.804,20.179,27.397,11.143,16.833       c-7.451-8.711-17.132-11-21.803-13.223c-1.621-0.771-1.115-2.568,0.253-2.966C460.92,320.73,466.904,320.055,470.424,320.349z"/>
					<path style="fill:#FFFFFF;" d="M235.732,358.229c-0.466,1.472-10.514,6.355-16.281,17.818c-1.394,2.77-3.193,7.513-8.014,5.295       c-7.208-3.316-7.331-18.286,19.039-25.335C233.317,355.248,236.635,355.379,235.732,358.229z"/>
				</g>
			</g>
			<g>
				<path style="fill:#000E3F;" d="M330.992,355.853c0.936,0.586,1.67,0.588,2.6,0.066c9.447-5.295,18.917-8.165,31.634-4.926      c3.303,0.841,2.448-3.465,17.53-13.176c29.861-19.226,89.939-34.134,111.111-15.307c4.383,3.897,5.983,9.515,3.561,16.103      c-2.968,8.073-5.918,7.903-5.851,11.417c0.896,47.438-21.414,74.863-51.776,83.988c-19.913,5.985-37.479,5.386-53.543-10.698      c-14.186-14.204-18.294-30.94-22.884-47.399c-0.754-2.703-9.542-3.709-16.521-0.554c-0.766,0.346-1.443,0.892-2.16,1.346      c-1.525,0.964-1.898,2.224-1.706,4.081c3.646,35.276-8.26,71.23-43.001,75.762c-32.901,4.29-58.544-8.817-74.723-34.894      c-5.887-9.488-10.678-21.871-12.233-28.893c-0.792-3.572-6.621-3.665-10.972-12.242c-2.389-4.71-1.847-9.33,0.889-13.765      C219.803,339.433,301.122,337.164,330.992,355.853z M249.67,348.721c-13.879,1.743-27.841,5.283-38.614,13.745      c-5.83,4.58-9.777,11.333-5.2,18.288c5.171,7.859,9.002,6.351,9.97,10.102c10.249,39.738,38.652,67.098,78.674,62.969      c14.927-1.54,26.569-6.107,35.064-18.956c9.871-14.928,11.08-30.685,10.649-48.201c-0.053-2.171-0.05-4.375-0.44-6.496      c-0.444-2.414,0.482-4.076,2.243-5.419c6.754-5.151,14.089-6.021,21.932-2.841c1.617,0.655,2.59,1.838,2.883,3.581      c1.705,10.151,8.073,29.803,17.77,41.293c7.201,8.533,14.141,13.855,25.121,16.537c4.069,0.994,8.205,1.389,12.386,0.871      c39.249-4.855,60.273-29.191,65.234-63.234c2.815-19.316-0.948-21.735,2.481-25.623c1.883-2.135,3.392-4.556,4.412-7.241      c12.879-33.9-89.874-24.468-124.946,15.146c-1.9,2.146-3.176,1.201-4.796,0.819c-10.729-2.536-21.159-0.554-30.459,5.309      C328.108,363.105,319.145,339.995,249.67,348.721z"/>
				<path style="fill:#000E3F;" d="M287.814,457.891c-26.687,0.002-48.3-12.272-62.992-35.955      c-5.924-9.549-10.759-22.095-12.3-29.056c-0.294-1.324-1.445-2.143-3.039-3.28c-2.25-1.602-5.332-3.796-7.889-8.837      c-2.364-4.661-2.058-9.464,0.91-14.273c5.342-8.66,17.318-15.377,34.632-19.423c32.44-7.577,74.665-3.835,94.133,8.345l0,0      c0.762,0.476,1.283,0.49,2.069,0.055c7.966-4.465,18.001-8.551,32.016-4.978c1.165,0.303,1.607-0.118,3.306-1.918      c2.069-2.192,5.532-5.858,13.815-11.192c30.105-19.385,90.286-34.337,111.738-15.257c4.779,4.248,6.093,10.169,3.704,16.67      c-1.578,4.29-3.143,6.285-4.285,7.743c-1.008,1.283-1.563,1.991-1.534,3.485c0.822,43.493-18.184,74.289-52.146,84.495      c-23,6.918-39.675,3.575-54.061-10.828c-13.582-13.599-18.034-29.658-22.34-45.187l-0.677-2.44      c-0.122-0.439-0.587-0.856-1.342-1.21c-2.902-1.358-9.255-1.362-14.464,0.99c-0.484,0.22-0.936,0.529-1.414,0.856      c-0.226,0.154-0.451,0.309-0.682,0.456c-1.257,0.795-1.654,1.767-1.466,3.587c3.325,32.163-6.061,71.455-43.451,76.333      C295.867,457.618,291.782,457.891,287.814,457.891z M273.492,344.177c-12.302,0-24.806,1.261-36.12,3.904      c-17.039,3.982-28.79,10.535-33.983,18.953c-2.764,4.482-3.056,8.941-0.867,13.256c2.441,4.813,5.402,6.922,7.563,8.461      c1.716,1.222,3.071,2.188,3.452,3.904c1.523,6.875,6.305,19.281,12.168,28.73c16.645,26.831,42.311,38.816,74.214,34.654      c36.648-4.781,45.826-43.495,42.55-75.194c-0.228-2.198,0.354-3.567,1.944-4.571c0.22-0.14,0.435-0.287,0.651-0.435      c0.495-0.34,1.007-0.689,1.574-0.946c5.548-2.511,12.153-2.469,15.333-0.986c1.054,0.492,1.695,1.122,1.904,1.873l0.678,2.442      c4.269,15.399,8.685,31.325,22.073,44.729c14.083,14.102,30.436,17.359,53.026,10.568c33.48-10.061,52.216-40.487,51.404-83.478      c-0.035-1.865,0.717-2.822,1.756-4.148c1.1-1.403,2.607-3.323,4.127-7.459c2.233-6.074,1.019-11.591-3.417-15.535      c-21.107-18.768-80.644-3.857-110.483,15.354c-8.177,5.264-11.586,8.876-13.622,11.031c-1.68,1.779-2.527,2.664-4.319,2.212      c-13.632-3.473-23.073,0.293-31.252,4.876c-1.108,0.622-2.046,0.596-3.13-0.079l0,0      C318.22,348.476,296.206,344.177,273.492,344.177z M286.732,454.751c-34.124,0.002-61.101-23.793-71.411-63.764      c-0.383-1.486-1.249-2.017-2.681-2.894c-1.821-1.114-4.315-2.639-7.22-7.052c-5.797-8.813,1.785-16.212,5.314-18.984      c9.271-7.286,21.622-11.686,38.87-13.852l0.065,0.516l-0.065-0.516c50.305-6.326,68.865,3.929,77.786,8.852      c3.451,1.905,5.033,2.721,6.366,1.871c9.562-6.025,20.229-7.886,30.856-5.374c0.285,0.067,0.56,0.15,0.829,0.234      c1.222,0.37,2.103,0.641,3.458-0.893c12.69-14.334,35.445-26.075,62.428-32.214c24.573-5.59,47.293-5.067,57.883,1.338      c6.218,3.76,8.124,9.384,5.511,16.261c-1.014,2.668-2.531,5.157-4.509,7.4c-1.564,1.775-1.5,3.184-1.344,6.592      c0.164,3.581,0.412,8.994-1.012,18.762c-5.316,36.48-28.643,59.093-65.685,63.677c-4.002,0.498-8.115,0.207-12.575-0.883      c-11.807-2.885-18.691-8.766-25.394-16.709c-9.923-11.757-16.236-31.719-17.885-41.543c-0.26-1.549-1.099-2.59-2.564-3.184      c-7.711-3.125-14.915-2.19-21.421,2.776c-1.79,1.362-2.421,2.877-2.047,4.911c0.348,1.895,0.389,3.859,0.429,5.759l0.018,0.818      c0.46,18.671-1.19,34.066-10.735,48.501c-7.724,11.68-18.324,17.418-35.445,19.187      C291.91,454.617,289.298,454.751,286.732,454.751z M249.735,349.238c-17.052,2.141-29.241,6.474-38.357,13.636      c-3.302,2.595-10.41,9.502-5.087,17.593c2.777,4.219,5.156,5.675,6.892,6.739c1.485,0.907,2.658,1.625,3.147,3.52      c10.946,42.442,40.876,66.424,78.116,62.581c16.778-1.732,27.15-7.332,34.684-18.724c9.396-14.21,11.017-29.428,10.563-47.903      l-0.018-0.819c-0.039-1.859-0.079-3.78-0.413-5.594c-0.441-2.399,0.357-4.339,2.44-5.928c6.82-5.205,14.372-6.184,22.443-2.91      c1.803,0.73,2.879,2.068,3.201,3.977c1.631,9.712,7.865,29.444,17.653,41.043c6.573,7.786,13.313,13.551,24.847,16.367      c4.332,1.061,8.323,1.34,12.199,0.862c36.533-4.52,59.541-26.821,64.782-62.794c1.41-9.669,1.165-15.023,1.002-18.565      c-0.159-3.487-0.239-5.238,1.604-7.326c1.895-2.149,3.347-4.533,4.316-7.082c2.446-6.438,0.738-11.485-5.075-15.001      c-20.795-12.575-91.162-0.758-118.994,30.676c-1.798,2.031-3.258,1.586-4.541,1.196c-0.249-0.075-0.502-0.153-0.766-0.216      c-10.344-2.444-20.741-0.632-30.061,5.244c-1.908,1.2-3.985,0.055-7.424-1.84C318.063,353.098,299.702,342.963,249.735,349.238      L249.735,349.238z"/>
			</g>
		</g>
		<g>
			<g>
				<g>
					<path style="fill:#91D728;" d="M60.693,342.978c-11.873-11.592-12.808-30.512-20.091-77.856       c-2.365-15.373-11.184-49.736-23.014-79.219C5.249,155.15,1.091,155.969,3.355,150.853       c7.332-16.567,33.267-28.272,50.448-34.152c30.882-10.569,83.813-9.439,99.95,9.909c0.748,0.897,1.078,1.899,0.78,3.066       c-1.447,5.67-4.281,31.222-3.891,56.114c1.334,85.29,22.959,113.957,12.197,138.51c-1.391,3.172-3.568,5.046-7.154,5.625       C60.976,345.2,65.073,347.254,60.693,342.978z"/>
					<path style="fill:#91D728;" d="M155.842,332.168c0.731,2.898,4.417,38.867,4.48,39.505c0.608,6.13-2.256,11.917-8.924,13.064       c-61.269,10.547-42.67,7.362-60.705,10.292c-6.619,1.076-12.359-2.103-14.132-13.106c-0.769-4.772-7.894-33.688-7.926-33.907       c-0.343-2.399,0.582-2.382,3.851-2.936C161.217,330.034,155.424,330.51,155.842,332.168z"/>
				</g>
				<g>
					<path style="fill:#00B0C4;" d="M154.229,131.663c-2.135,13.239-1.981,16.166-2.299,17.726       c-0.458,2.122-54.122-34.596-123.549,10.296c-1.592,1.033-3.013,2.017-4.277,2.975l-0.02,0.003       c-11.174,8.383-10.718,13.328-12.734,8.787c-7.585-17.015-9.875-16.306-7.962-20.668       c12.791-29.328,91.058-54.063,135.96-34.377c5.004,2.145,9.254,4.82,12.467,8.011       C154.734,127.298,154.875,127.656,154.229,131.663z"/>
					<path style="fill:#00B0C4;" d="M143.957,383.47c0.468,3.235,2.117,2.292-23.231,6.589l-0.02-0.116       c-25.034,4.244-23.479,4.883-24.138,1.117c-3.333-19.201-4.961-23.038-0.814-29.452c11.089-17.188,42.303-14.725,44.981,2.62       C141.424,368.803,143.835,382.61,143.957,383.47z"/>
				</g>
				<g style="opacity:0.25;">
					<path style="fill:#000E3F;" d="M79.911,110.872c1.42,8.377,3.311,19.648,4.598,27.365c-3.912,0.502-7.952,1.208-12.1,2.212       c-1.539-6.71-2.728-15.027-2.728-15.027c-0.88-5.194-1.608-9.249-2.164-12.409C71.607,112.14,75.744,111.418,79.911,110.872z"/>
					<path style="fill:#000E3F;" d="M109.735,109.875c0.397,8.269,0.973,19.844,1.396,28.029c-3.925-0.4-8.102-0.635-12.479-0.618       c-0.558-6.253-0.713-12.857-0.713-12.857c-0.337-6.612-0.647-11.401-0.833-14.865       C101.411,109.478,105.628,109.587,109.735,109.875z"/>
					<path style="fill:#000E3F;" d="M139.348,116.406c-1.316,8.118-3.061,18.92-4.293,26.582c-3.53-1.15-7.597-2.268-12.096-3.213       c0.78-6.299,2.025-12.939,2.025-12.939c1.018-6.319,1.715-10.978,2.243-14.382C131.623,113.497,135.68,114.798,139.348,116.406       z"/>
					<path style="fill:#000E3F;" d="M56.37,145.378c-3.761,1.401-7.579,3.052-11.455,4.955c-2.225-7.558-5.503-18.715-7.944-26.959       c4.022-1.867,8.007-3.487,11.695-4.835c0.938,3.276,2.188,7.685,3.91,13.58C52.576,132.119,54.793,139.036,56.37,145.378z"/>
					<path style="fill:#000E3F;" d="M34.511,155.914c-2.032,1.167-4.067,2.436-6.131,3.771c-1.592,1.033-3.013,2.017-4.277,2.975       l-0.02,0.003c-3.482-6.441-8.512-15.734-12.485-23.055c2.955-2.832,6.386-5.461,10.075-7.875       c1.519,2.917,3.522,6.675,6.16,11.571C27.833,143.304,31.626,149.914,34.511,155.914z"/>
					<path style="fill:#000E3F;" d="M120.726,390.06l-0.02-0.116c-25.034,4.244-23.479,4.883-24.138,1.117       c-0.84-4.839-1.577-8.712-2.116-11.895c3.629-0.757,10.597-1.837,23.817-4.077l0.017,0.097       c7.851-1.331,15.72-2.664,23.593-3.979c0.957,5.763,1.97,11.498,2.079,12.263C144.425,386.705,146.074,385.763,120.726,390.06z       "/>
				</g>
				<path style="opacity:0.5;fill:#FFFFFF;" d="M61.453,279.547c0.033,6.816-7.271,7.403-8.185,0.941      c-3.966-28.058-4.989-28.888-6.282-36.495c-3.383-19.905-17.778-57.06-17.445-58.796c0.25-1.301,1.394-1.791,2.465-1.014      C40.803,190.568,61.347,257.531,61.453,279.547z"/>
				<g style="opacity:0.25;">
					<path style="fill:#000E3F;" d="M66.196,343.708c17.062-28.636,89.799-13.053,79.299-75.444       c-7.368-43.776-21.437-90.659,0.595-132.666c1.085-2.069,3.794-7.254,5.971-9.526c1.108-1.157,2.86,1.628,2.48,3.699       c-5.14,28.054-4.65,69.768-1.718,95.308c5.857,51.041,10.171,53.824,11.994,71.472c1.221,11.824,2.451,31.52-9.282,33.403       C70.603,343.581,64.411,346.704,66.196,343.708z"/>
					<g>
						<path style="fill:#000E3F;" d="M85.03,393.948c0.907-6.751,4.756-13.717,11.574-18.985        c6.223-4.808,13.344-6.335,21.914-11.964c9.16-6.016,15.309-14.586,17.648-21.179c2.04-5.749,0.679-7.665,3.333-8.1        c16.245-2.662,16.065-3.382,16.494-0.953c0.102,0.579,3.854,31.756,3.838,35.173c-0.009,2.039,1.655,5.485-0.718,11.048        c-1.436,3.366-4.216,5.157-7.795,5.764C90.997,394.979,84.638,396.866,85.03,393.948z"/>
					</g>
				</g>
				<path style="fill:#FD8A02;" d="M130.364,209.777c-3.19-2.901-6.385-4.11-9.581-4.837c2.762-1.763,5.364-3.978,7.39-7.785      c0.011-0.022,0.022-0.044,0.031-0.067c0.154-0.376-0.026-0.804-0.402-0.958c-3.991-1.633-7.406-1.675-10.659-1.264      c1.994-2.602,3.679-5.574,4.279-9.845c0.003-0.024,0.005-0.049,0.006-0.074c0.016-0.405-0.3-0.747-0.705-0.762      c-4.309-0.169-7.533,0.961-10.449,2.461c0.982-3.128,1.548-6.497,0.651-10.715c-0.005-0.024-0.011-0.048-0.019-0.072      c-0.123-0.386-0.537-0.599-0.923-0.475c-4.107,1.316-6.75,3.481-8.975,5.887c-0.148-3.274-0.769-6.634-3.056-10.289      c-0.013-0.02-0.028-0.04-0.043-0.06c-0.248-0.32-0.71-0.378-1.03-0.13c-3.334,2.585-5.072,5.454-6.333,8.409      c-1.237-2.965-2.951-5.848-6.265-8.461c-0.018-0.015-0.039-0.029-0.059-0.043c-0.342-0.218-0.797-0.117-1.014,0.225      c-2.317,3.637-2.966,6.991-3.14,10.265c-2.206-2.425-4.832-4.611-8.926-5.961c-0.023-0.007-0.048-0.014-0.071-0.019      c-0.396-0.088-0.788,0.162-0.876,0.558c-0.932,4.21-0.394,7.584,0.563,10.719c-2.903-1.523-6.118-2.679-10.428-2.544      c-0.024,0-0.05,0.003-0.073,0.006c-0.402,0.053-0.685,0.422-0.632,0.824c0.566,4.276,2.226,7.261,4.199,9.879      c-3.249-0.437-6.665-0.423-10.67,1.178c-0.022,0.01-0.045,0.019-0.067,0.031c-0.36,0.188-0.498,0.631-0.311,0.991      c1.994,3.824,4.577,6.06,7.326,7.845c-3.203,0.701-6.408,1.885-9.621,4.759c-0.018,0.016-0.036,0.034-0.052,0.052      c-0.274,0.299-0.253,0.764,0.046,1.038c3.183,2.909,6.375,4.127,9.569,4.863c-2.768,1.755-5.375,3.964-7.411,7.765      c-0.012,0.021-0.023,0.044-0.032,0.066c-0.154,0.375,0.024,0.804,0.399,0.959c3.987,1.645,7.402,1.696,10.656,1.293      c-2.001,2.597-3.694,5.564-4.306,9.833c-0.003,0.024-0.005,0.049-0.006,0.074c-0.018,0.405,0.298,0.748,0.702,0.765      c4.309,0.18,7.537-0.94,10.455-2.432c-0.992,3.125-1.567,6.492-0.679,10.713c0.005,0.024,0.011,0.048,0.019,0.071      c0.122,0.386,0.535,0.601,0.921,0.477c4.111-1.305,6.758-3.462,8.991-5.863c0.139,3.275,0.751,6.635,3.029,10.297      c0.013,0.02,0.028,0.041,0.043,0.06c0.248,0.321,0.709,0.381,1.03,0.134c3.416-2.634,5.165-5.568,6.441-8.588      c1.251,3.03,2.977,5.978,6.37,8.64c0.019,0.014,0.04,0.029,0.06,0.043c0.343,0.217,0.796,0.115,1.014-0.228      c2.308-3.643,2.947-6.999,3.112-10.273c2.213,2.419,4.843,4.598,8.943,5.936c0.023,0.008,0.047,0.014,0.071,0.019      c0.396,0.087,0.788-0.164,0.874-0.56c0.921-4.213,0.374-7.585-0.592-10.718c2.907,1.516,6.125,2.663,10.435,2.517      c0.024,0,0.049-0.002,0.074-0.006c0.402-0.054,0.684-0.424,0.629-0.826c-0.576-4.274-2.246-7.255-4.225-9.868      c3.25,0.428,6.666,0.404,10.665-1.208c0.022-0.008,0.046-0.02,0.067-0.031c0.359-0.188,0.497-0.632,0.309-0.991      c-2.005-3.818-4.593-6.047-7.348-7.825c3.201-0.71,6.403-1.901,9.609-4.786c0.018-0.015,0.035-0.033,0.052-0.052      C130.686,210.514,130.665,210.05,130.364,209.777z"/>
				
					<ellipse transform="matrix(0.8863 -0.4631 0.4631 0.8863 -87.0538 65.7684)" style="fill:#FFCF00;" cx="90.413" cy="210.172" rx="26.871" ry="26.871"/>
				<path style="fill:#FFFFFF;" d="M70.667,211.03c-2.11-7.834,3.893-17.683,11.294-19.713c1.31-0.359,7.364-1.153,5.234,1.765      c-3.353,4.593-10.595,14.21-13.824,18.488C72.603,212.588,70.999,212.263,70.667,211.03z"/>
			</g>
			<g>
				<g>
					<path style="fill:#000E3F;" d="M86.651,295.908c1.451,10.161-13.155,12.293-14.937,2.506c-0.699-3.839,2.108-7.417,5.767-8.431       C81.617,288.838,86.035,291.592,86.651,295.908z"/>
					<path style="fill:#000E3F;" d="M122.127,289.895c1.979,10.072,16.471,7.271,14.928-2.557c-0.605-3.855-4.435-6.308-8.223-6.059       C124.55,281.56,121.286,285.617,122.127,289.895z"/>
				</g>
				<path style="fill:#000E3F;" d="M164.704,326.376c7.062-14.609,2.18-36.379-1.743-53.871c-1.124-5.007-2.184-9.737-2.859-13.831      c-10.114-61.332-6.675-101.809-4.725-116.364c0.462-3.461,0.861-6.087,1.168-8.115c0.921-6.074,1.062-7.008-0.443-8.883      c-14.357-17.866-58.968-20.468-77.879-16.795c-2.035,0.395-3.89,0.709-5.671,0.96c-12.243,1.725-27.992,6.973-41.096,13.694      C20.148,128.97,5.626,138.464,0.644,150.77c-1.222,3.014-0.528,4.269,0.621,6.346l0.149,0.269      c7.841,14.23,16.108,33.86,22.112,52.51c13.406,41.644,16.833,67.792,19.338,86.885c2.021,15.423,3.484,26.566,8.969,38.242      c1.95,4.15,7.392,12.036,11.739,12.366c1.89,0.143,2.539,1.2,2.977,2.86c0.578,2.185,2.017,8.51,3.54,15.204      c2.114,9.29,4.51,19.82,5.265,22.21c1.715,5.424,6.671,10.308,13.224,10.308c0.82,0,1.665-0.077,2.532-0.238      c6.992-1.302,14.13-2.486,21.031-3.629c3.019-0.5,6.038-1,9.056-1.512c5.665-0.958,10.441-1.732,14.478-2.386      c20.036-3.247,22.131-3.586,25.081-8.862c2.385-4.26,2.479-8.591,1.863-14.196c-0.105-0.955-0.333-2.66-0.623-4.828      c-0.986-7.353-3.985-29.729-2.164-30.859C161.928,330.484,163.524,328.82,164.704,326.376z M70.989,347.02l0.122-0.033      c0.392-0.118,1.284-0.269,48.001-8.181l32.851-5.564c0.168-0.029,0.346-0.064,0.528-0.1c0.553-0.11,0.99-0.178,1.333-0.178      c0.551,0,0.862,0.176,1.033,0.635c0.043,0.116,0.075,0.189,0.099,0.246c0.035,0.077,0.035,0.077,0.062,0.497      c0.249,3.708,1.056,11.441,2.398,22.984c0.169,1.445,0.341,2.824,0.505,4.141c0.952,7.598,1.64,13.089-0.331,17.288      c-1.847,3.935-3.596,4.202-20.325,6.755c-9.986,1.524-25.077,3.827-48.5,8.194c-2.393,0.449-4.528-0.312-6.509-2.322      l-0.168-0.171c-2.532-2.567-2.532-2.567-8.052-26.653c-0.975-4.255-2.12-9.258-3.484-15.154      C70.097,347.435,70.21,347.223,70.989,347.02z M152.131,126.827c1.18,1.189,1.155,1.538,0.462,5.767      c-0.751,4.587-2.149,13.127-3.058,31.27c-2.47,49.363,5.281,88.491,10.408,114.383c1.845,9.313,3.304,16.669,3.799,22.089      c0.563,6.153,1.679,26.343-7.6,27.867c-30.984,5.087-51.589,8.707-65.224,11.104c-27.373,4.809-27.373,4.81-29.466,2.49      c-0.145-0.163-0.302-0.336-0.474-0.517c-9.307-9.841-11.623-26.489-14.83-49.531c-1.714-12.306-3.654-26.251-7.058-41.675      c-6.077-27.539-20.12-70.069-34.174-94.643c-0.816-1.43-0.855-2.598-0.139-4.165c5.75-12.604,25.429-25.655,50.137-33.248      c14.561-4.474,29.562-6.719,43.92-6.719c13.036,0,25.541,1.851,36.703,5.565C144.34,119.79,148.716,123.382,152.131,126.827z"/>
				<path style="fill:#000E3F;" d="M95.998,296.434c-0.346-0.616-1.004-1.002-1.717-1.008c-0.004,0-0.01,0-0.014,0      c-0.679,0-1.284,0.345-1.619,0.925c-1.002,1.727,1.042,8.592,5.679,12.164c2.039,1.57,4.466,2.384,6.971,2.384      c1.16,0,2.338-0.175,3.501-0.529c3.748-1.144,6.716-4.015,7.938-7.681c0.756-2.267,1.334-6.952,0.398-9.491      c-0.412-1.123-1.625-1.536-2.561-1.285c-0.909,0.242-1.412,1.031-1.254,1.964c1.164,6.87-1.623,10.961-4.621,12.5      c-2.913,1.494-6.218,0.906-8.632-1.533c-2.261-2.285-3.236-5.686-3.704-7.321C96.19,296.918,96.103,296.62,95.998,296.434z"/>
			</g>
		</g>
	</g>
</g>















</svg>
