<?xml version="1.0" encoding="UTF-8"?>
<!-- Generator: Adobe Illustrator 25.2.1, SVG Export Plug-In . SVG Version: 6.00 Build 0)  -->
<svg xmlns="http://www.w3.org/2000/svg" xmlns:xlink="http://www.w3.org/1999/xlink" version="1.1" id="Capa_1" x="0px" y="0px" viewBox="0 0 512 512" style="enable-background:new 0 0 512 512;" xml:space="preserve" width="512" height="512">
<g>
	<g>
		<g>
			<g>
				<path style="fill:#00B0C4;" d="M300.82,177.654c-2.676,0.349-1.6-14.783-33.756-44.84      c-16.457-15.345-33.94-24.582-41.855-29.453c-45.597-28.112-28.2-93.418,32.827-82.894c1.583,0.279,1.703,1.305,1.183,2.593      c7.707-9.465,15.617-8.302,9.794-11.952c-28.582-17.814-66.177-7.603-83.886,34.096c-12.664,29.784-5.549,43.996-12.612,61.915      c-2.279,5.776-5.358,11.099-9.499,15.692c-49.824,55.146-57.112,116.382-32.479,175.165c1.896,4.54-4.437,4.871-18.79,38.794      c-4.366,10.334-8.245,20.841-11.307,31.628c-3.374,11.933-6.262,23.989-7.688,36.358c-0.696,5.984-1.374,11.951-1.131,17.989      c0,2.765-0.088,5.548,0.016,8.315c1.409,36.224,29.917,32.415,44.779,1.217c5.903-12.316,6.358-19.814,7.133-21.919      c0.105-0.296,0.434-0.627,0.747-0.731c2.22-0.673,3.031,12.09,11.012,18.493c8.649,6.973,16.588-3.118,20.894-13.326v-0.017      c0.017-0.018,0.034-0.035,0.034-0.053c0.174-0.417,0.348-0.852,0.523-1.27v-0.017c9.818-24.423,10.802-69.581,0.208-92.863      c-1.119-2.483,1.645-1.546,3.496-1.862c13.087-1.004,31.573-9.204,42.344-16.77c1.473-1.033,3.445-2.725,4.749-1.635      c0.762,0.434,2.366,2.429,5.167,5.149c0.83,0.791,2.189,1.973,3.062,2.575c1.353,0.98,3.02,1.858,4.157,2.315      c0.461,0.197,1.307,0.505,2.419,0.818c1.039,0.29,2.259,0.552,3.34,0.609c3.962,0.43,7.163-0.556,10.316-2.576      c0.385-0.231,0.92-0.641,1.27-0.922c0.208-0.157,0.417-0.331,0.626-0.505c0.993-0.852,1.914-1.791,2.784-2.8      c0.383-0.469,0.783-0.957,1.147-1.461c2.942-3.978,5-9.292,5.863-13.814c0.042-0.082,0.335-1.787,0.348-1.879      c0.018-0.017,0.035-0.034,0.018-0.052c0.213-0.745,0.577-4.413,0.662-5.968c0.258-1.061,0.496-8.032-0.923-14.683      c-0.018-0.138-0.053-0.295-0.087-0.434c-1.576-7.251-1.037-5.801,4.019-11.012c18.298-18.924,27.42-50.345,29.5-77.307      C301.1,178.127,300.953,177.896,300.82,177.654z M261.376,205.931c-3.775,8.403-11.134,15.152-19.484,11.621      c-5.601-2.366-4.697-2.261-4.992,8.785c-0.348,13.83-3.966,33.07-14.144,42.551c-5.601,5.203-12.891,6.977-20.685,3.237      c-2.765-1.323-4.331-2.576-4.94-0.697c-1.184,3.672-3.236,14.491-11.534,24.686c-10.821,13.288-24.226,13.083-30.479,3.984      c-13.669-19.991-21.414-69.215-1.949-115.722c26.408-63.219,77.24-69.777,73.709-66.107c-0.539,0.558-1.323,0.505-2.018,0.627      c-61.774,11.377-102.9,108.189-70.856,176.383c8.864,18.767,28.96,8.362,37.576-11.847c7.219-16.927,1.131-17.432,11.099-12.665      c6.437,3.078,14.509,2.453,20.632-4.506c8.142-9.256,11.272-24.964,11.76-37.229c0.035-0.818,1.096-10.751,0.227-14.04      c-0.366-1.339,0.695-2.4,1.218-2.104c2.261,1.253,4.558,3.949,10.246,3.862c11.656-0.174,17.275-18.266,16.44-29.992      c0.648-8.476-2.165-14.153-0.8-14.544C264.529,171.64,267.62,192.063,261.376,205.931z"/>
				<path style="fill:#FFFFFF;" d="M301.336,176.983c-0.07,1.009-1.061,0.836-1.409,0.104c-2.644-5.532-3.479-9.95-14.125-24.25      c-5.498-7.394-12.056-13.778-18.737-20.023c-16.457-15.344-33.94-24.581-41.855-29.452      c-45.596-28.112-28.2-93.419,32.827-82.894c1.582,0.278,1.704,1.305,1.182,2.592c-1.479,1.809-2.784,3.775-3.914,5.897      c-0.052,0.087-0.104,0.174-0.139,0.244c-10.984,20.585-4.355,47.824,22.946,57.86c0.018,0,0.018,0,0.035,0.018      c10.174,3.369,9.709,2.047,11.308,5.323c5.533,14.681,9.52,32.817,9.899,37.245c2.467,15.149,2.117,22.989,2.47,26.46v0.087      C301.997,162.944,301.857,169.868,301.336,176.983z"/>
				<path style="fill:#FFFFFF;" d="M274.945,85.774c-26.339-11.569-29.313-38.707-19.78-56.574      C243.823,51.12,253.2,76.013,274.945,85.774z"/>
				<path style="fill:#FFFFFF;" d="M259.219,23.06c-0.783,2-3.114,4.61-3.914,5.897C256.435,26.834,257.74,24.868,259.219,23.06z"/>
				<path style="fill:#FFFFFF;" d="M288.949,91.323c-0.522-0.87-1.165-1.287-2.208-1.653      C287.837,90.018,288.462,90.418,288.949,91.323z"/>
				<path style="fill:#91D728;" d="M335.449,216.089c0.391-9.998,1.221-19.934,4.702-29.455      c8.458-23.131,20.23-10.419,20.062,16.221c-0.006,0.982,0.184,1.904,0.636,2.788c0.519,1.016,0.995,1.26,2.011,0.765      c2.922-1.424,11.98-6.709,16.896-5.562c9.217,2.15-5.074,21.828-25.331,35.306c-2.046,1.361-8.247,4.8-10.594,5.393      c-0.555,0.14-1.228-0.442-1.185-1.046c0.295-4.104,3.373-14.319,10.866-26.568c0.574-0.938-0.451-1.676-1.198-0.638      c-10.833,15.062-9.908,28.92-12.788,26.416c-1.639-1.425-3.043-9.659-3.293-12.457      C335.902,223.545,335.028,219.861,335.449,216.089z"/>
				<g>
					<path style="fill:#FC09B2;" d="M370.563,58.248c-0.244,0.401-0.359,0.791-0.619,0.976c-0.584,0.415-1.227,0.757-1.871,1.078       c-5.728,2.864-10.317,7.015-13.925,12.279c-0.408,0.596-0.805,1.2-1.226,1.787c-0.57,0.794-1.291,1.003-2.195,0.557       c-1.943-0.958-3.86-1.983-5.851-2.829c-6.784-2.884-13.788-5.01-21.134-5.894c-0.474-0.057-0.95-0.162-1.405-0.308       c-0.65-0.209-0.999-0.704-0.866-1.375c0.163-0.822,0.388-1.64,0.67-2.43c3.754-10.512,10.436-18.586,20.157-24.106       c1.359-0.772,2.804-1.392,4.183-2.131c1.441-0.772,2.595-0.605,3.926,0.474c4.409,3.575,8.401,7.57,12.304,11.669       c2.58,2.709,4.76,5.74,7.026,8.7C370.09,57.158,370.294,57.733,370.563,58.248z"/>
					<path style="fill:#FC09B2;" d="M322.212,67.61c3.881,0.458,7.312,1.012,10.685,1.913c5.828,1.555,11.433,3.677,16.746,6.541       c1.393,0.751,1.565,1.142,0.963,2.601c-1.476,3.573-2.459,7.27-3.108,11.076c-0.448,2.627-0.367,5.262-0.379,7.902       c-0.004,0.938-0.543,1.336-1.409,1.06c-1.601-0.512-3.188-1.071-4.778-1.618c-5.799-1.995-11.683-3.674-17.714-4.824       c-2.556-0.487-2.718-0.698-3.103-3.184c-0.962-6.212-1.146-12.426-0.026-18.642c0.064-0.354,0.089-0.718,0.184-1.064       C320.618,68.116,321.352,67.584,322.212,67.61z"/>
				</g>
				<g>
					<path style="fill:#FF8EDE;" d="M386.801,113.426c-0.019,0.702-1.077,0.827-1.37,0.38c-3.271-5-8.846-21.916-31.463-36.759       c-2.574-1.689-2.627-1.736-0.996-4.124c4.006-5.864,9.007-10.626,15.496-13.687c2.215-1.045,2.33-1.047,3.717,1.13       c8.133,12.76,12.785,27.119,14.146,39.762C386.615,102.759,387.027,104.952,386.801,113.426z"/>
					<path style="fill:#FF8EDE;" d="M346.21,94.534c0.224-6.922,2.572-14.069,3.696-16.13c0.578-1.061,1.356-1.349,2.383-0.682       c17.048,11.074,23.651,20.948,31.676,36.9c0.263,0.523,0.385,1.132,0.486,1.716c0.092,0.534-0.664,1.148-1.193,1.056       c-2.809-0.487-8.551-7.355-33.302-17.018c-2.958-1.155-3.857-1.357-3.766-5.556C346.195,94.581,346.224,94.341,346.21,94.534z"/>
				</g>
				<path style="fill:#FFCF00;" d="M69.755,479.401c-0.802-14.152,8.907-33.135,17.322-45.153c0.568-0.812,0.949-2.214,2.327-1.786      c1.122,0.348,0.832,1.597,1.005,2.509c1.991,10.517,3.923,20.24,14.163,23.167c3.803,1.087,7.419,0.278,10.913-1.145      c13.639-5.558,23.487-23.406,27.407-37.677c0.708-2.577,0.892-3.974,1.943-3.99c1.925-0.028,2.583,8.91,10.869,14.848      c9.734,6.977,18.91-6.311,23.171-18.04c4.328-11.915,6.807-28.335,6.816-36.433c0.002-1.999,0.745-3.371,2.845-4.054      c2.858-0.93,5.633-2.125,8.423-3.258c22.025-8.944,31.938-15.324,42.696-21.921c3.025-1.855,1.982-0.135,5.475,4.29      c3.32,4.205,8.347,4.124,11.454,1.365c3.996-3.548,4.962-7.871,5.8-11.745c1.868-8.634,6.536-16.935,15.326-13.733      c6.106,2.224,9.371,8.139,21.364,11.007c4.092,0.978,8.013-1.429,8.149-6.208c0.073-2.583-0.238-5.02-1.576-7.307      c-1.099-1.879-2.242-3.712-3.697-5.336c-6.492-7.245,4.766-0.672,21.623-23.089c8.622-11.465,19.361-28.224,40.057-46.887      c12.771-11.516,39.599-32.935,56.085-27.722c4.018,1.27,6.138,3.926,6.284,8.686c0.232,7.587-6.507,15.912-11.675,21.392      c-12.116,12.848-18.859,14.536-18.221,16.072c0.44,1.06,1.463,0.55,2.203,0.267c5.68-2.169,11.654-2.954,17.62-3.773      c2.662-0.365,8.408-0.135,13.948,1.355c6.888,1.853,10.716,6.523,12.076,13.407c2.559,12.947-5.298,24.868-15.6,33.308      c-21.746,17.814-36.438,14.337-61.133,31.368c-13.145,9.065-25.099,20.363-33.825,33.731      c-18.541,28.402-53.095,53.606-90.801,59.838c-8.544,1.412-50.552,0.837-81.947,27.816      c-19.503,16.76-21.196,34.082-41.743,41.951c-12.273,4.7-25.562,2.882-36.757-3.911c-5.177-3.141-7.977-7.852-9.64-13.456      C69.592,486.089,69.777,482.95,69.755,479.401z"/>
				<g>
					<path style="fill:#FD8A02;" d="M254.541,34.563c11.921-35.556,60.883-22.608,91.569-1.448c1.235,0.852,2.81,2.146,1.529,2.929       c-4.24,2.592-18.062,7.197-24.886,26.675c-0.619,1.766-0.939,3.578-2.753,3.126c-5.12-1.277-7.961,1.792-21.519-3.779       c-15.105-6.207-19.805-16.512-21.479-15.145c-1.353,1.103,9.759,12.509,22.989,17.354c16.409,6.01,21.958,0.335,20.964,5.886       c-0.858,4.789-0.772,9.597-0.523,14.412c0.489,9.441,4.253,7.029-18.257,4.824c-10.447-1.023-13.047,0.264-24.782-4.151       c-13.126-4.939-25.401-17.617-25.309-32.539C252.113,48.027,251.649,43.191,254.541,34.563z"/>
					<path style="fill:#FD8A02;" d="M308.229,299.58c1.315,1.074,2.461,2.313,3.322,3.781c0.786,1.34,0.704,2.18-0.511,3.171       c-5.691,4.638-6.737,4.383-11.379,6.898c-2.721,1.474-3.404-0.451-9.38-4.061c-1.645-0.994-3.331-1.973-5.112-2.669       c-1.212-0.474-2.446-1.655-3.944-0.624c0.636,1.423,2.146,1.338,3.284,1.875c24.198,11.422,24.969,28.806,16.505,28.171       c-0.599-0.045-1.205,0.003-1.806-0.022c-0.889-0.038-1.551,0.193-2.152,0.979c-5.859,7.667-19.457,11.27-29.316,9.149       c-6.092-1.311-6.879-3.626-7.851-1.62c-1,2.062-2.399,4.785-4.128,6.307c-9.85,8.673-20.516-15.005-8.006-35.17       c0.861-1.388,2.075-2.369,3.628-2.825c7.847-2.305,12.349-7.972,15.348-15.169c0.899-2.158,1.147-4.476,5.294-5.118       C289.266,289.964,301.729,294.266,308.229,299.58z M275.729,342.463c6.269-0.009,11.715-2.316,16.665-5.99       c1.877-1.393,1.484-2.035-0.073-2.766c-8.546-4.012-7.651-6.217-14.53-8.579c-8.411-2.888-13.67,3.698-16.161,12.184       c-0.653,2.223-0.596,2.089,1.445,3.075C268.479,343.001,271.803,342.469,275.729,342.463z"/>
					<path style="fill:#FD8A02;" d="M229.118,352.245c1.41,1.314,2.711,2.766,4.232,3.934c25.774,19.819,67.831,9.051,85.784-18.375       c22.635-34.578,63.33-40.098,77.725-11.478c0.267,0.532,0.474,1.11,0.607,1.69c0.401,1.754-2.077,2.967-3.13,1.663       c-0.597-0.739-1.027-1.615-1.51-2.444c-15.807-27.141-51.746-14.955-69.759,11.899c-20.546,30.629-60.582,38.974-86.07,24.314       c-2.918-1.678-9.731-6.348-11.358-9.309C224.813,352.636,226.883,350.163,229.118,352.245z"/>
					<path style="fill:#FD8A02;" d="M325.153,378.213c2.214,1.323,3.535,1.931,4.683,3.308c1.192,1.43-0.571,3.48-2.073,2.877       c-3.209-1.288-9.383-7.24-22.251-8.968c-30.618-4.114-54.315,19.246-59.535,52.089c-0.525,3.305-0.72,8.042-0.967,8.961       c-0.575,2.142-4.042,2.079-3.705-2.02c0.256-3.115,0.444-6.245,0.924-9.328C248.722,383.371,289.591,356.971,325.153,378.213z"/>
					<path style="fill:#FD8A02;" d="M204.941,420.88c-30.795,20.696-27.418,31.643-29.54,34.791       c-1.252,1.856-4.346,0.527-3.126-4.024c4.8-17.898,23.33-28.489,33.841-36.592c14.133-10.896,21.228-28.514,17.518-47.915       c-0.209-1.094-0.404-2.118,0.193-3.143c0.761-1.306,3.237-2.003,3.91,2.959c0.21,1.549,0.563,3.087,0.657,4.642       C229.758,394.25,220.6,410.356,204.941,420.88z"/>
					<path style="fill:#FD8A02;" d="M377.431,252.865c2.081,26.401-23.559,54.028-49.671,40.914c-3.781-1.9-1.793-4.497-0.098-4.159       c2.324,0.463,6.782,3.399,13.159,3.464c13.312,0.135,27.885-10.082,32.034-31.355c2.371-12.153-0.759-20.4-0.921-22.507       c-0.146-1.901,2.307-2.937,3.466-1.204c1.026,1.534,1.912,6.32,1.998,7.994C377.517,248.29,377.431,250.58,377.431,252.865z"/>
					<path style="fill:#FD8A02;" d="M376.92,333.638c0.541,0.466,1.015,1.031,1.431,1.614c1.173,1.646-0.861,3.624-2.492,2.756       c-0.726-0.386-1.37-0.969-1.963-1.554c-13.307-13.107-40.663,0.808-34.748,25.509c0.371,1.547,1.726,3.736,1.793,5.056       c0.07,1.375-1.863,2.708-3.083,1.392c-0.482-0.52-0.862-1.153-1.202-1.781C324.679,344.516,354.104,314.006,376.92,333.638z"/>
					<path style="fill:#FD8A02;" d="M400.441,302.967c-2.21-17.474,8.055-33.604,16.677-39.825c1.487-1.073,2.904-2.077,4.078-0.558       c0.523,0.676,0.529,1.681-0.044,2.333c-0.314,0.358-0.701,0.657-1.077,0.954c-16.785,13.246-19.168,35.618-12.148,45.98       c3.236,4.776,7.239,5.136,8.455,5.719c1.159,0.555,1.737,1.729,1.36,2.618C416.052,324.177,402.364,318.174,400.441,302.967z"/>
					<path style="fill:#FD8A02;" d="M208.34,361.577c0.431-1.029,1.94-1.199,2.744-0.395c1.374,1.373,1.586,6.466,1.324,9.103       c-3.496,35.209-33.892,50.182-36.06,45.164c-0.376-0.871,0.031-1.934,0.97-2.448c0.521-0.286,1.098-0.483,1.668-0.665       c15.025-4.794,25.66-21.464,28.661-37.14C208.298,371.802,207.573,363.408,208.34,361.577z"/>
					<path style="fill:#FD8A02;" d="M95.344,509.806c-1.608,1.164-3.456-0.494-2.87-1.979c1.016-2.574,6.197-9.463,4.316-21.823       c-1.824-11.982-8.964-25.072-20.487-28.291c-0.812-0.227-1.663-0.34-2.329-0.91c-1.896-1.62-0.258-4.043,2.421-3.293       c10.549,2.956,17.848,11.52,21.742,21.569C105.097,493.04,98.511,507.513,95.344,509.806z"/>
					<path style="fill:#FD8A02;" d="M277.165,401.199c10.331-11.355,24.251-10.148,32.891-1.509       c0.879,0.879,1.638,1.732,0.978,2.788c-0.574,0.919-1.81,1.166-2.876,0.516c-1.697-1.035-11.407-10.599-23.101-3.171       c-9.394,5.967-13.697,18.622-13.281,26.64c0.257,4.955-3.917,5.238-4.247,2.299       C266.735,421.672,269.611,409.502,277.165,401.199z"/>
					<path style="fill:#FD8A02;" d="M114.129,509.091c-1.328-1.079-0.634-2.251,0.213-3.882c8.105-15.603,3.767-36.676-5.751-44.448       c-0.899-0.734-2.414-1.66-1.331-3.216c1.129-1.62,2.816-0.651,4.32,0.617c3.183,2.683,5.559,6.029,7.234,9.78       C128.196,488.955,118.324,512.498,114.129,509.091z"/>
					<path style="fill:#FD8A02;" d="M398.559,264.355c-0.988,2.802-2.43,5.177-5.092,6.722c-1.55,0.9-2.962,2.034-4.475,3.001       c-0.475,0.304-1.763-0.255-1.086-1.451c0.738-1.305,4.614-2.93,6.991-10.27c3.807-11.755,1.031-24.057-5.578-32.731       c-1.421-1.865-1.109-2.979,0.889-4.005c1.605-0.824,2.828-0.342,3.177,1.521c0.254,1.357,0.823,2.478,1.534,3.6       C400.425,239.422,402.831,252.242,398.559,264.355z"/>
					<path style="fill:#FD8A02;" d="M438.356,268.967c1.533-0.591,3.503,1.707,1.769,3.14c-2.253,1.861-11.286,5.179-14.792,19.462       c-1.729,7.047-0.111,11.529,2.684,16.578c1.003,1.813,2.26,2.719,0.826,4.097c-1.469,1.411-3.116-0.243-4.24-1.934       C417.293,299.315,424.362,274.358,438.356,268.967z"/>
					<path style="fill:#FD8A02;" d="M132.885,437.934c0.2-0.824,0.42-2.37,1.89-2.401c0.63-0.013,1.242,0.231,1.533,0.792       c0.383,0.738,0.702,1.53,0.908,2.335c2.931,11.396,14.242,20.072,23.627,22.335c3.829,0.924,2.289,4.121,0.43,4.064       C153.285,464.815,136.406,453.803,132.885,437.934z"/>
				</g>
				<path style="opacity:0.5;fill:#FD8A02;" d="M87.056,434.277c0.571-0.815,0.948-2.214,2.316-1.83      c1.142,0.32,0.856,1.576,1.034,2.488c2.459,12.631,4.908,22.834,17.697,23.734c3.846,0.271,12.075-2.379,19.722-10.795      c15.447-17.002,15.065-37.105,17.859-32.024c1.756,3.193,3.757,10.003,9.977,14.325c9.342,6.491,17.777-4.695,22.129-15.325      c1.85-4.518,1.482-3.716,5.447-3.624c10.244,0.24,20.408,3.389,30.63,4.242c43.043,3.594,70.044-40.023,94.533-67.971      c14.946-17.057,30.096-29.113,43.082-36.517c21.24-12.112,47.951-16.276,59.56-14.456c6.717,1.053,13.854,0.292,22.548,4.406      c1.78,0.842,1.984,1.388,0.695,2.939c-5.733,6.902-13.043,12.403-21.084,16.778c-20.487,11.147-32.552,8.931-58.894,30.805      c-16.297,13.532-24.432,27.988-28.402,33.042c-21.403,27.246-52.79,47.462-88.124,52.741c-3.041,0.454-15.166-0.05-35.299,5.185      c-32.593,8.476-49.084,23.8-63.984,46.082c-15.012,22.45-39.452,25.641-58.308,14.101c-6.755-4.134-9.663-10.473-10.397-18.046      C68.111,467.194,77.126,448.458,87.056,434.277z"/>
				<g style="opacity:0.25;">
					<path style="fill:#000E3F;" d="M299.656,191.949c-3.289,22.918-13.769,51.207-31.083,66.783       c-1.519,1.367-1.992,2.838-1.505,4.826c3.602,14.704,2.314,34.323-9.154,44.212c-7.722,6.659-18.062,4.538-24.805-1.939       c-5.504-5.286-5.496-6.799-8.016-5.412c-2.521,1.387-13.067,10.457-34.416,16.36c-11.063,3.059-12.024,1.366-14.202,2.356       c-0.839,0.381-1.016-0.235-1.061-0.892c-0.085-1.25,0.389-2.369,0.88-3.469c4.129-9.253,16.202-18.279,25.073-23.269       c36.249-20.39,43.936-22.452,52.512-36.417c9.26-15.077,10.427-25.032,18.911-39.369c7.959-13.451,18.444-22.146,25.19-25.256       c1.159-0.534,1.834,0.028,1.704,1.337C299.66,192.04,299.588,192.274,299.656,191.949z"/>
					<path style="fill:#000E3F;" d="M366.411,89.275c3.218,3.579,6.057,7.495,9.192,11.152c3.662,4.272,5.94,9.327,8.416,14.279       c1.122,2.243-0.226,3.176-1.545,2.439c-2.697-1.508-19.935-14.248-50.517-22.835c-9.394-2.638-20.21-4.037-29.889-4.921       c-10.815-0.988-13.203,0.183-24.78-4.182c-13.098-4.938-25.331-17.666-25.217-32.619c0.064-8.407,0.302-14.53,4.635-23.127       c0.705-1.399,1.237-1.575,2.574-0.817c4.227,2.397,10.32,7.141,14.139,11.171c13.389,14.129,14.255,14.454,13.668,15.014       c-0.88,0.839-6.262-5.24-9.078-7.78c-0.401-0.362-1.686-0.404-0.97,0.751c2.576,4.155,12.01,12.358,22.567,16.325       C305.507,66.342,343.062,63.304,366.411,89.275z"/>
					<path style="fill:#000E3F;" d="M242.062,335.724c0.448-6.018,1.052-11.999,4.065-17.427c6.333-11.409,4.388,3.292,16.854-3.296       c17.691-9.35,33.712,5.452,38.268,7.371c3.566,1.502,4.327,4.694,4.612,7.986c0.502,5.806-5.359,7.002-10.596,4.691       c-13.291-5.866-9.699-7.401-17.865-10.049c-4.34-1.408-8.135-0.344-11.053,3.141c-3.148,3.76-5.226,9.424-5.962,14.165       c-1.057,6.812-7.94,14.315-13.772,7.929c-1.734-1.899-2.985-4.113-3.504-6.641C242.581,341.006,241.995,338.41,242.062,335.724       z"/>
					<path style="fill:#000E3F;" d="M381.714,208.128c-5.464,12.734-23.362,26.582-35.931,32.706       c-1.174,0.572-2.977,1.25-3.054-0.055c-0.439-7.418,3.269-14.666,6.657-21.018c12.009-22.514,10.443-13.683,12.355-13.18       c1.441,0.379,12.298-7.313,18.22-5.678C381.73,201.392,383.045,205.025,381.714,208.128z"/>
				</g>
				<path style="opacity:0.75;fill:#FFFFFF;" d="M409.826,231.049c1.194,0.064,2.212,0.042,2.723,1.087      c1.073,2.191-4.831,3.696-10.508,7.303c-10.007,6.358-18.366,13.723-22.585,18.453c-24.009,26.915-46.248,66.491-53.991,57.563      c-1.333-1.538-1.096-3.529,0.658-5.488c26.967-30.113,44.494-64.807,75.518-77C404.363,231.898,407.181,231.397,409.826,231.049      z"/>
				<g style="opacity:0.5;">
					<path style="fill:#FFFFFF;" d="M211.057,146.814c-1.779,2.277-3.536,4.577-5.42,6.766       c-25.191,29.275-40.152,74.849-31.863,110.837c1.25,5.428,2.763,12.198-2.318,13.432c-6.936,1.684-9.581-14.922-10.567-22.229       c-5.143-38.107,13.473-87.654,46.949-112.939C211.29,140.074,214.472,142.441,211.057,146.814z"/>
					<path style="fill:#FFFFFF;" d="M141.021,319.729c1.191-0.85,3.521,0.534,3.074,2.218c-0.617,2.328-0.934,3.018-6.072,13.885       c-23.707,50.133-18.322,89.459-20.137,93.815c-1.824,4.378-8.123,4.603-9.651-3.072       C101.839,394.429,124.093,331.808,141.021,319.729z"/>
					<path style="fill:#FFFFFF;" d="M212.7,256.861c-1.792,0.932-4.195,0.365-5.959-1.262c-7.732-7.129-8.545-31.368-7.181-42.384       c1.873-15.128,4.699-24.391,10.096-37.483c2.055-4.985,8.466-18.427,12.957-21.432c1.809-1.211,3.67,0.505,3.26,2.143       c-3.602,14.381-22.248,54.656-11.096,91.136C215.949,251.412,216.226,255.028,212.7,256.861z"/>
					<path style="fill:#FFFFFF;" d="M348.89,54.058c-10.667-2.012-33.18-7.636-40.711-9.584c-4.879-1.262-9.622-3.062-14.401-4.692       c-2.074-0.707-3.867-1.925-5.392-3.523c-4.598-4.817-2.087-10.521,2.715-12.115c3.086-1.024,6.215-1.557,9.532-1.186       c6.18,0.691,12.001,2.503,17.543,5.218c12.555,6.152,28.077,17.605,33.298,23.243c1.08,1.167,0.325,2.364-1.118,2.462       c-0.478,0.032-0.961,0.006-1.442,0.006C348.907,53.944,348.898,54.001,348.89,54.058z"/>
					<path style="fill:#FFFFFF;" d="M161.648,409.356c-2.351,3.563-9.344,2.833-7.686-6.111c4.063-21.924,7.77-45.277,6.965-67.636       c-0.196-5.442,3.62-7.477,6.159-1.058C173.251,350.142,167.673,400.225,161.648,409.356z"/>
					<path style="fill:#FFFFFF;" d="M244.22,158.055c1.804,0.35,2.217,2.91,2.226,4.129c0.211,32.173,7.433,36.306,2.037,39.336       c-3.924,2.204-6.743-2.62-7.957-6.959C237.729,184.57,237.26,156.704,244.22,158.055z"/>
					<path style="fill:#FFFFFF;" d="M349.968,200.386c0.096,2.677-0.445,5.273-0.647,7.909c-0.222,2.91-4.111,5.63-6.81,2.096       c-3.807-4.984,0.942-22.828,4.649-26.711c1.173-1.228,3.011-0.775,3.373,0.884       C351.493,188.972,349.791,195.483,349.968,200.386z"/>
				</g>
			</g>
			<g>
				<path style="fill:#000E3F;" d="M389.854,118.286c-0.039,3.539-1.288,6.924-4.097,4.963c-0.67-0.468-5.42-5.03-17.522-11.438      c-22.011-11.655-47.369-19.707-71.781-19.699c-1.876,0.001-4.498-1.138-3.937,0.548c2.163,6.503,7.05,18.314,10.254,40.567      c4.616,32.065,2.227,66.66-11.117,96.51c-1.696,3.794-3.57,7.508-5.625,11.12c-11.068,19.459-17.09,18.107-15.919,23.343      c2.339,10.455,1.932,17.022,0.534,24.703c-0.484,2.659,3.171-0.904,14.693,0.036c26.484,2.162,26.789,15.012,29.972,12.243      c3.927-3.417,12.254-16.067,21.673-27.975c2.552-3.226-1.186-7.573,1.069-23.826c0.603-4.347,0.413-5.226-0.528-6.977      c-7.669-14.267-6.729-49.935,5.366-66.73c1.157-1.608,2.809-2.639,4.568-3.448c5.741-2.641,10.759,3.93,12.728,10.299      c3.37,10.903,2.805,16.646,2.973,18.837c0.209,2.734,3.234-0.603,8.077-1.96c5.397-1.512,6.483-2.089,9.505-1.216      c6.159,1.778,5.522,7.597,2.445,13.191c-5.259,9.561-18.723,23.186-34.411,31.15c-1.181,0.599-2.358,1.276-3.618,1.633      c-1.79,0.507-2.527,1.683-2.75,3.373c-1.005,7.587-1.009,3.396-0.932,18.363c0.003,0.546,0.55,1.148,1.199,0.375      c3.026-3.599,6.619-6.668,9.561-10.353c1.269-1.589,2.799-3.01,4.38-4.298c2.219-1.808,41.258-40.415,63.73-33.282      c7.818,2.482,11.319,10.875,5.854,21.335c-7.505,14.363-22.226,22.973-17.489,22.309c5.63-0.788,15.664-3.287,26.773,2.482      c5.549,2.881,8.206,7.838,9.327,13.868c4.368,23.495-21.621,42.871-45.916,51.843c-14.141,5.222-14.452,4.598-25.469,10.996      c-37.942,22.033-34.388,40.706-69.892,69.674c-21.033,17.16-48.602,29.042-76.724,30.126      c-7.421,0.286-27.796,3.574-45.846,12.218c-18.507,8.862-29.302,20.652-40.647,37.449      c-15.488,22.932-42.234,27.172-62.294,13.817c-21.801-14.515-8.053-50.996,7.443-72.621c5.828-8.133,0.776-2.544,5.076-31.868      c3.35-22.847,11.019-47.182,20.609-68.673c13.785-30.891,18.196-29.481,16.304-33.618      c-18.726-40.949-19.396-91.612,5.584-137.937c11.326-21.003,22.462-32.223,29.152-40.319      c7.136-8.636,10.846-19.83,11.063-29.213c0.688-29.734,9.636-51.841,21.197-66.294c14.325-17.908,34.276-27.448,56.893-22.701      c18.103,3.8,19.717,10.802,25.678,9.439c19.968-4.565,45.39,5.107,61.962,14.681c26.965,15.578,46.064,42.066,50.223,74.555      C389.933,105.583,389.937,110.639,389.854,118.286z M93.106,431.857c0.197,5.094,1.26,10.032,3.087,14.793      c0.875,2.279,2.269,4.226,3.966,5.984c6.028,6.241,16.329,2.257,22.89-3.82c9.536-8.833,15.934-23.099,18.512-35.732      c0.457-2.238,0.726-4.819,2.891-4.812c1.884,0.006,2.244,1.901,2.881,3.694c2.045,5.753,4.7,12.393,9.932,15.999      c2.542,1.752,6.493,1.447,8.767-0.513c19.992-17.229,21.987-82.024,9.488-106.637c-0.678-1.334-0.124-2.789,1.418-3.013      c0.951-0.138,1.93-0.075,2.883-0.2c15.593-2.06,32.071-9.039,43.768-17.771c3.685-2.751,3.408-1.986,10.086,4.857      c5.571,5.708,15.122,8.328,22.04,3.223c8.069-5.954,11.474-17.281,11.713-26.908c0.46-18.585-4.289-18.545-0.36-22.474      c2.5-2.501,5.15-5.077,6.987-7.301c29.446-35.634,32.258-99.284,19.185-143.232c-4.707-15.827-5.117-16.693-7.523-17.304      c-28.655-7.289-42.82-28.576-34.386-55.395c7.025-22.34,22.868-20.132,15.678-23.881c-41.296-21.534-77.126,7.914-86.811,53.683      c-3.949,18.663-1.5,20.319-3.359,31.182c-3.246,18.981-13.811,28.17-18.223,33.363c-39.84,46.906-49.83,101.731-32.877,152.389      c7.804,23.319,9.054,14.038,2.541,24.932c-19.944,33.358-32.075,74.338-34.491,99.727      C91.149,434.403,92.758,422.871,93.106,431.857z M81.386,501.86c21.382,11.935,42.756,5.191,55.459-13.168      c6.549-9.465,12.539-18.84,25.206-28.571c15.706-12.064,35.63-19.022,55.113-22.08c14.702-2.308,34.615-0.319,65.55-17.82      c17.362-9.823,33.797-24.364,45.801-41.317c4.557-6.436,11.833-17.808,26.631-29.763c13.209-10.671,23.909-16.512,38.622-21.449      c17.231-5.781,37.823-16.991,44.911-33.362c2.891-6.678,3.511-13.427,0.442-20.301c-5.483-12.282-28.216-10.127-40.693-5.073      c-11.192,4.535-10.624,14.193-11.234,15.904c-0.812,2.277-4.612,1.311-3.903-2.107c2.908-14.037,11.966-16.032,21.616-24.342      c47.688-41.068,2.457-61.005-61.076,12.641c-15.75,18.257-21.474,34.599-41.584,44.303c-2.34,1.129,0.559,1.309,4.107,7.296      c5.728,9.664,1.283,21.592-14.719,13.875c-10.472-5.05-10.533-8.768-17.324-9.228c-2.491-0.168-4.472,0.696-5.952,2.719      c-2.235,3.056-3.934,6.361-4.514,10.137c-1.982,12.903-12.959,21.113-20.507,10.37c-5.263-7.49,3.932-1.536-44.01,18.241      c-10.993,4.535-12.154,4.12-12.148,6.585c0.004,1.816-0.451,3.592-0.533,5.379c-0.662,14.252-6.77,41.538-18.299,50.077      c-4.165,3.085-10.804,3.29-14.968-0.757c-7.955-7.731-7.194-12.52-8.622-12.1c-0.382,0.113-2.277,9.459-7.916,19.332      c-5.618,9.835-14.472,20.408-25.633,22.254c-6.649,1.1-12.12-0.845-16.043-6.557c-1.654-2.407-2.986-4.951-3.754-7.771      c-2.979-10.945-1.728-10.668-2.522-10.709c-1.205-0.062-11.141,15.525-15.395,29.491      C69.283,477.828,68.749,494.805,81.386,501.86z M286.073,13.369c-3.077-0.109-8.013,0.843-12.774,2.716      c-9.706,3.818-15.165,10.745-18.201,20.983c-4.828,16.279-1.356,30.978,12.467,41.255c22.279,16.564,37.928,1.91,86.859,22.503      c21.799,9.174,26.442,14.892,27.501,13.868c0.138-0.134,0.226-0.449,0.169-0.632c-0.213-0.688-0.423-1.395-0.764-2.024      c-5.548-10.218-11.026-18.878-21.131-27.177c-34.763-28.55-52.955-3.15-82.93-34.617c-0.655-0.688-1.177-1.524-1.662-2.349      c-0.399-0.68-0.262-1.393,0.259-2.005c4.166-4.887,8.795,17.484,42.041,18.613c20.759,0.704,40.424,10.704,54.004,26.23      c9.742,11.138,12.196,18.695,13.445,20.475c0.449,0.639,0.612-0.316,0.572-1.098c-2.527-49.62-32.837-80.333-80.336-94.238      C299.918,14.211,294.061,13.45,286.073,13.369z M244.541,315.212c-0.154-1.637-4.948-0.288-12.585-6.609      c-6.117-5.064-4.872-6.382-6.998-4.861c-19.197,13.73-37.179,16.357-43.04,17.828c-1.344,0.338-0.93,1.257-0.352,3.04      c9.381,28.955,3.387,45.218,6.984,43.927c20.937-7.512,36.643-15.807,49.506-24.33c1.447-0.959,1.989-2.087,1.647-3.625      c-1.131-5.089,0.217-17.273,4.41-24.451C244.291,315.825,244.415,315.487,244.541,315.212z M243.67,335.542      c0,17.782,9.986,18.168,13.183,12.048c4.033-7.72,1.464-8.657,6.731-17.807c2.581-4.484,7.609-8.059,13.236-6.334      c9.741,2.986,11.349,9.227,22.691,11.439c2.361,0.461,3.667-0.22,4.69-2.332c0.429-0.885,0.536-1.759,0.371-2.782      c-0.771-4.791-3.587-8.345-6.909-11.565c-7.827-7.588-16.134-9.566-17.328-10.842c-1.299-1.389-0.212-3.119,1.179-3.227      c1.062-0.083,2.45,0.592,3.733,1.199c11.723,5.553,10.975,7.919,13.542,6.986c4.12-1.497,7.817-3.715,11.184-6.496      c0.617-0.509,0.728-1.204,0.314-1.949c-2-3.595-6.839-6.106-10.639-7.672c-6.503-2.68-17.707-3.76-19.423-3.332      c-2.065,0.515-1.558-0.113-8.908,1.306c-2.85,0.55-2.165,2.392-5.379,8.077c-8.909,15.754-16.307,6.7-20.5,20.842      C244.236,327.15,243.39,331.275,243.67,335.542z M346.879,177.375c-1.802,1.666-3.018,3.742-4.005,5.954      c-9.789,21.92-5.305,53.406-2.881,53.957c0.527,0.12,0.164-0.166,3.186-8.954c2.286-6.65,7.308-15.696,9.147-16.624      c1.533-0.773,2.97,0.781,2.611,1.833c-0.268,0.785-0.607,1.58-1.077,2.259c-4.385,6.326-6.936,13.455-9.148,20.735      c-0.559,1.838-0.94,3.877,0.816,3.081c11.959-5.42,32.755-22.023,35.753-34.604c1.019-4.278-5.961-4.133-16.824,1.99      c-3.005,1.694-4.691,0.839-5.225-2.609c-0.023-0.151,0.099-20.706-6.504-27.247      C351.283,175.713,348.818,175.582,346.879,177.375z"/>
				<path style="fill:#000E3F;" d="M193.621,129.525c12.378-8.834,25.776-13.106,32.712-13.586c1.954-0.135,3.36,2.707,1.22,3.605      c-3.784,1.588-11.712,0.953-26.553,9.956c-22.215,13.476-37.857,36.491-47.201,60.842c-5.131,13.371-9.842,35.105-9.365,46.885      c0.197,4.867-0.706,4.943-0.422,6.098c0.862,3.491-0.941,24.326,9.846,48.511c1.434,3.215,2.865,6.375,5.556,8.77      c12.378,11.014,30.149-7.452,34.816-29.763c1.76-8.409,3.646-2.166,13.214,0.079c12.533,2.941,20.336-10.887,23.637-23.437      c4.331-16.465,2.512-31.717,3.213-34.391c0.386-1.472,1.823-2.041,3.136-1.276c0.828,0.483,1.54,1.159,2.352,1.671      c14.01,8.83,23-11.065,22.465-27.452c-0.177-5.436-1.451-11.826-1.57-13.251c-0.229-2.741,3.25-3.232,3.803-0.779      c2.463,10.944,2.093,20.774,0.284,27.924c-2.977,11.768-11.367,22.928-22.887,18.964c-1.816-0.625-3.141-1.522-3.31-0.048      c-0.251,2.187,0.531-2.563-0.825,13.683c-2.01,24.084-13.511,49.839-35.691,41.084c-1.19-0.47-2.181-1.545-3.63-1.289      c-0.374,1.137-0.784,2.264-1.116,3.413c-7.806,27.007-30.196,41.589-42.872,25.486c-5.449-6.922-11.063-25.007-12.986-38.39      C134.511,214.588,154.152,157.692,193.621,129.525z"/>
				<path style="fill:#000E3F;" d="M234.507,57.281c-3.981,0.008-8.248-4.072-8.25-8.065c-0.001-4.206,3.471-8.334,8.206-8.373      c4.813-0.039,8.022,3.853,8.19,8.343C242.808,53.282,238.583,57.273,234.507,57.281z"/>
			</g>
		</g>
		<g>
			<path style="fill:#FD8A02;" d="M377.766,417.806c-2.449,2.865-7.509,6.421-11.926,18.156c-0.396,1.052-0.811,2.113-1.366,3.084     c-0.772,1.353-2.416,1.439-3.328,0.138c-2.061-2.939-2.178-7.612-9.048-15.688c-4.032-4.739-7.958-6.231-4.584-9.098     c8.412-7.147,11.302-17.863,12.834-20.698c0.661-1.224,2.231-1.32,3.09-0.242c0.921,1.156,1.397,2.556,1.951,3.91     c4.097,10.019,9.747,14.598,12.053,16.825C378.021,414.751,378.61,416.82,377.766,417.806z"/>
			<path style="fill:#FD8A02;" d="M429.667,461.013c-2.821,3.298-8.642,7.378-13.736,20.911c-0.456,1.211-0.935,2.434-1.573,3.552     c-0.889,1.558-2.784,1.656-3.834,0.159c-2.376-3.389-2.508-8.767-10.421-18.068c-4.644-5.459-9.166-7.176-5.28-10.479     c9.689-8.232,13.018-20.575,14.782-23.84c0.762-1.41,2.57-1.52,3.559-0.279c1.061,1.331,1.609,2.944,2.247,4.503     c4.728,11.561,11.257,16.845,13.882,19.379C429.961,457.495,430.64,459.877,429.667,461.013z"/>
			<path style="fill:#FD8A02;" d="M441.734,378.945c-0.589,0.688-1.185,1.376-1.841,1.997c-9.252,8.753-11.428,18.892-13.468,22.466     c-0.889,1.558-2.783,1.657-3.833,0.159c-0.732-1.044-1.286-2.251-1.727-3.457c-6.879-18.809-19.786-20.152-13.974-25.091     c9.689-8.232,13.018-20.574,14.782-23.84c0.762-1.41,2.57-1.52,3.56-0.279c1.061,1.331,1.609,2.944,2.247,4.503     c4.728,11.561,11.258,16.844,13.882,19.378C442.029,375.426,442.709,377.807,441.734,378.945z"/>
		</g>
	</g>
</g>















</svg>
