<?xml version="1.0" encoding="UTF-8"?>
<!-- Generator: Adobe Illustrator 25.2.1, SVG Export Plug-In . SVG Version: 6.00 Build 0)  -->
<svg xmlns="http://www.w3.org/2000/svg" xmlns:xlink="http://www.w3.org/1999/xlink" version="1.1" id="Capa_1" x="0px" y="0px" viewBox="0 0 512 512" style="enable-background:new 0 0 512 512;" xml:space="preserve" width="512" height="512">
<g>
	<g>
		<g>
			<g>
				<path style="fill:#91D728;" d="M424.56,294.797c-3.287,13.545-8.464,13.737-5.007,18.933      c14.476,21.82,14.3,59.626-12.265,79.943c-2.115,1.619-4.311,2.193-4.085,6.215c2.005,36.384-24.548,77.014-61.496,74.257      c-1.908-0.148-3.546-0.751-4.859,1.181c-2.011,2.943-6.081,12.153-19.048,21.643c-6.304,4.624-13.245,8.022-20.983,9.617      c-2.05,0.421-4.012,1.3-6.055,1.511c-12.824,1.396-24.422-0.354-36.376-6.615c-2.149-1.13-4.616-3.74-10.817-0.565      c-27.313,13.942-72.871,2.819-86.385-31.82c-0.118-0.284-0.199-0.573-0.262-0.866c-1.943-9.309-13.298,1.127-35.583-18.183      c-12.116-10.479-17.207-22.919-20.189-35.505c-0.839-3.458-0.644-9.825-0.457-13.361c0.368-6.846-5.299-3.638-15.249-16.405      c-18.521-23.759-16.759-61.312-2.982-81.372c2.089-3.049,3.64-6.167,1.427-9.852c-9.502-39.334,16.236-84.274,51.04-106.997      c4.585-3.007,13.401-7.857,17.124-8.567c0.547-0.12,2.006,0.68,1.251,1.68c-2.67,3.701-11.509,12.552-15.506,26.392      c-9.296,32.081,10.803,59.829,39.793,62.856c9.715,1.013,18.544,4.292,26.677,9.598c2.528,1.639,19.305,17.417,40.729,17.279      c3.522-0.038,1.208,3.025,0.281,6.899c-3.572,15.039,3.693,34.811,21.387,40.361c10.747,3.368,21.422,0.974,32.16-12.689      c4.767-6.071,1.079,16.248,28.154,19.071c5.728,0.593,11.413-0.618,16.439-3.202c4.134-2.11,7.827-5.154,10.721-8.87      c6.152-7.901,8.74-18.814,4.456-30.28c-2.96-7.912,5.128,0.739,17.16-5.932c5.711-3.176,9.162-7.956,10.373-14.343      c2.281-12.206-2.162-21.083-2.68-23.156c-0.91-3.674,1.911-2.474,8.043-7.864c8.949-7.868,13.142-23.039,4.956-40.899      c-7.055-15.352,18.788,7.933,26.945,40.565C426.685,268.601,427.708,281.839,424.56,294.797z"/>
				<path style="fill:#91D728;" d="M377.971,176.925c-0.792,2.752-26.898,40.749-27.042,40.96c-3.195,4.678-3.635,6.646-5.231,6.204      c-2.741-0.761-1.455-19.268-24.97-25.182c-4.83,0.092-7.508-3.037-9.826-6.635c-5.958-9.245-5.852-12.814-7.628-19.385      c-0.194-0.717-0.545-1.422-0.588-2.146c-0.736-12.542-1.081-21.953,5.033-33.003c2.776-5.017,15.349-0.914,20.316,1.919      c0.217,0.124,0.733,0.13,0.815,0.002c0.213-0.332,0.472-0.865,0.343-1.15c-2.797-6.182-4.286-12.354-4.358-13.097      c-1.512-15.716,1.923-30.188,11.093-43.152c2.476-3.501,2.681-3.505,6.529-1.506c18.797,9.769,30.432,28.405,35.761,48.549      C382.642,146.021,382.23,162.12,377.971,176.925z"/>
			</g>
			<g style="opacity:0.45;">
				<path style="fill:#000E3F;" d="M261.607,423.97c-2.536,4.096-7.228,3.635-9.105-0.575c-1.798-4.035-0.659-7.625-0.683-21.32      c-0.014-7.901-0.541-21.612-0.38-26.79c0.311-9.975,8.853-12.229,11.189,2.317C262.96,379.663,266.332,416.339,261.607,423.97z"/>
				<path style="fill:#000E3F;" d="M205.408,485.015c-2.245-0.808-3.996-3.507-3.623-6.037c0.455-3.088,1.113-6.149,1.757-9.206      c5.063-24.02,1.498-42.308,8.68-42.193c3.644,0.058,3.78,3.979,4.322,6.843C217.538,439.666,218.62,489.77,205.408,485.015z"/>
				<path style="fill:#000E3F;" d="M164.354,311.884c-2.956,12.181-3.546,26.039-6.215,31c-3.05,5.667-9.947,4.135-11.154-1.595      c-1.589-7.539,4.457-27.457,7.232-34.669c1.73-4.494,5.113-11.666,9.595-9.955C166.807,297.808,166.525,302.94,164.354,311.884z      "/>
				<path style="fill:#000E3F;" d="M100.157,374.647c0.103-3.563-0.013-7.148,0.351-10.684c0.993-9.65,2.542-19.193,6.846-28.044      c0.518-1.066,1.047-2.152,1.746-3.1c2.178-2.955,6.496-2.175,7.332,1.911c0.456,2.229-0.256,3.523-2.515,19.887      c-1.139,8.254-0.386,15.883-1.4,22.244c-0.798,5.008-6.477,7.483-9.952,3.531C101.125,378.756,100.546,376.778,100.157,374.647z      "/>
				<path style="fill:#000E3F;" d="M141.339,387.114c2.223-4.03,4.961-3.913,6.508-1.67c1.288,1.868,1.598,3.899,0.64,13.149      c-2.413,23.276,1.675,37.186-6.279,38.285c-1.944,0.269-4.433-1.322-5.416-3.324      C132.706,425.232,137.698,393.717,141.339,387.114z"/>
				<path style="fill:#000E3F;" d="M220.257,310.275c1.85-3.247,5.503-2.429,6.486,1.226c0.628,2.336-1.489,37.225-1.918,39.598      c-1.544,8.533-8.693,10.06-11.243,3.546C209.934,345.323,217.225,315.593,220.257,310.275z"/>
				<path style="fill:#000E3F;" d="M189.148,364.027c1.851-3.247,5.504-2.429,6.487,1.226c0.628,2.336-1.489,37.226-1.918,39.598      c-1.544,8.533-8.693,10.06-11.243,3.546C178.825,399.076,186.116,369.345,189.148,364.027z"/>
				<path style="fill:#000E3F;" d="M106.043,296.335c1.222-11.115,3.698-21.236,14.562-38.278c1.783-2.796,3.674-5.147,6.597-3.74      c1.41,0.679,2.174,1.858,2.006,3.393c-0.433,3.972-1.85,7.466-4.243,13.354c-5.078,12.493-6.512,21.227-8.262,26.881      c-1.267,4.092-5.634,6.133-8.679,2.946C107.128,299.953,106.405,298.489,106.043,296.335z"/>
				<path style="fill:#000E3F;" d="M297.08,490.86c2.248-0.799,4.01-3.491,3.648-6.022c-0.443-3.09-1.088-6.153-1.72-9.213      c-4.964-24.041-1.323-42.313-8.506-42.228c-3.644,0.043-3.796,3.963-4.351,6.825C285.136,445.462,283.848,495.561,297.08,490.86      z"/>
				<path style="fill:#000E3F;" d="M358.408,363.548c-1.234,5.73-8.138,7.237-11.161,1.541c-1.783-3.335-2.601-10.681-3.827-18.853      c4.134-2.11,7.827-5.154,10.721-8.87C356.818,346.282,359.576,358.129,358.408,363.548z"/>
				<path style="fill:#000E3F;" d="M406.827,371.517c-0.088-3.563,0.042-7.148-0.307-10.686c-0.953-9.653-2.463-19.203-6.73-28.072      c-0.514-1.068-1.038-2.157-1.733-3.107c-2.166-2.964-6.487-2.201-7.34,1.881c-0.465,2.227,0.242,3.525,2.434,19.897      c1.105,8.259,0.32,15.884,1.309,22.25c0.778,5.012,6.446,7.509,9.938,3.572C405.842,375.621,406.429,373.646,406.827,371.517z"/>
				<path style="fill:#000E3F;" d="M364.741,398.402c-2.206-4.039-4.945-3.934-6.502-1.697c-1.296,1.862-1.614,3.892-0.694,13.146      c2.317,23.286-1.827,37.179,6.122,38.311c1.943,0.277,4.438-1.304,5.43-3.302C373.218,436.556,368.356,405.02,364.741,398.402z"/>
				<path style="fill:#000E3F;" d="M314.789,371.098c-1.837-3.254-5.494-2.451-6.491,1.199c-0.638,2.333,1.336,37.231,1.755,39.606      c1.509,8.54,8.652,10.096,11.228,3.592C324.968,406.188,317.798,376.428,314.789,371.098z"/>
				<path style="fill:#000E3F;" d="M395.306,265.856c-4.046,1.996-1.407,7.848,1.153,14.482c6.649,17.21,4.547,24.089,10.135,25.424      c2.774,0.66,4.934-1.772,5.769-4.208c2.284-6.666-5.3-23.198-8.883-29.24C401.509,268.987,399.231,263.913,395.306,265.856z"/>
			</g>
			<g>
				<path style="fill:#FF8EDE;" d="M274.767,281.306c4.213-0.598,7.444-1.181,10.754-0.864c1.962,0.188,2.894-0.55,2.845-0.765      c-0.06-0.265-0.136-0.669-0.314-0.738c-0.678-0.262-1.404-0.595-2.103-0.576c-17.584,0.475-11.992,1.663-19.746,2.995      c-41.37,7.105-46.068-37.967-15.173-50.643c18.203-7.469,35.409,8.202,45.275,25.427c0.645,1.127,0.576,3.086,2.697,2.9      c0.623-1.513-0.548-2.533-1.116-3.65c-1.687-3.311-3.462-6.582-5.317-9.802c-10.183-17.67-6.173-41.689,12.454-44.911      c35.575-6.155,50.033,28.82,26.394,56.879c-0.238,0.282-0.763,0.911-0.468,1.13c2.892,2.144,5.24-6.122,23.058-10.414      c15.718-3.786,34.943,14.463,30.135,38.89c-2.734,13.892-20.639,20.317-33.302,9.239c-9.328-8.161-21.68-11.868-20.199-9.252      c0.484,0.856,1.418,1.058,2.263,1.288c7.164,1.951,16.684,7.413,21.633,14.996c8.637,13.236,3.353,28.985-5.258,36.563      c-16.718,14.711-45.309,6.878-46.235-15.029c-0.084-1.995,0.938-3.735,1.7-5.504c5.315-12.348,2.736-21.822,1.612-21.834      c-1.459-0.016-0.289,2.016-0.267,7.097c0.047,10.827-6.207,25.035-19.093,34.227c-0.841,0.6-1.784,1.122-2.756,1.463      c-7.826,2.743-15.514,2.878-22.815-1.6c-7.369-4.521-11.955-11.014-13.691-19.543c-0.591-2.902-1.265-5.731-1.344-8.748      c-0.281-10.706,4.21-18.697,13.321-24.094C264.633,283.512,269.982,281.674,274.767,281.306z"/>
				<path style="fill:#FF8EDE;" d="M209.053,257.711c-4.564-3.767-9.9-6.022-15.289-8.25c-5.343-2.179-8.057-1.904-9.642-2.665      c-2.499-1.191-2.269-4.941-5.229-24.678l0.166-0.025c-0.974-6.494-2.356-12.944-2.826-19.475      c-0.662-8.935-7.435-54.223-6.594-58.046c0.238-1.054,1.493-1.865,2.43-1.402c4.677,2.26,9.282,1.023,13.949-0.055      c0.933-0.196,1.562-0.649,2.3-1.137c1.972-1.314,3.467-0.653,3.791,1.638c0.167,1.238,0.331,2.459,0.517,3.695      c0.442,3.197,0.883,6.393,1.304,9.575C200.533,205.933,214.349,262.085,209.053,257.711z"/>
				<path style="fill:#FF8EDE;" d="M163.055,30.468c-6.956,1.043-8.545,1.835-10.592-0.438c-5.873-6.518-5.994-15.633-1.888-21.381      c3.759-5.263,11.628-6.616,17.069-3.169c6.532,4.138,8.642,13.235,5.802,20.618c-0.803,2.088-2.291,3.361-4.663,3.555      c-1.918,0.157-3.818,0.546-5.725,0.832C163.056,30.479,163.055,30.474,163.055,30.468z"/>
			</g>
			<g>
				<path style="fill:#FFCF00;" d="M309.419,197.636c-3.45,0.894-22.052,1.496-24.171,25.334c-0.339,3.785,0.36,7.434,0.818,11.118      c0.146,1.223,1.052,2.86-0.613,3.581c-2.462,1.067-3.207-5.159-16.875-9.389c-18.141-5.635-36.789,8.61-39.166,27.225      c-1.99,15.652,9.447,26.385,23.964,28.356c1.135,0.15,2.79-0.136,3.228,1.025c0.624,1.642-1.291,2.08-2.201,2.933      c-5.345,5.102-4.993,6.445-6.72,6.251c-4.871-0.533-9.82-0.206-14.607-1.694c-28.084-8.67-24.849-21.565-56.812-25.542      c-43.226-5.38-55.99-65.576-8.942-95.7c4.286-2.737,4.92-1.908,5.502,2.098c1.284,8.559,2.94,17.081,3.569,25.682      c0.938,12.665,3.444,25.096,4.859,37.672c0.271,2.562,1.116,4.925,1.963,7.306c0.3,0.86,0.719,1.401,1.342,1.779      c0.313,0.199,0.675,0.352,1.109,0.476c1.105,0.324,13.22,2.883,22.442,9.666c2.439,1.804,1.168-8.436-0.565-19.738      c-0.019-0.129-0.054-0.237-0.071-0.348c-0.821-5.346-1.749-10.904-2.438-15.497l-0.185,0.028      c-8.779-58.53-11.828-60.751-7.421-62.186c28.939-9.641,62.961-7.909,92.323-1.267c9.176,2.075,10.573,2.337,10.6,6.03      C300.549,189.178,315.064,196.167,309.419,197.636z"/>
				<path style="fill:#FFCF00;" d="M398.259,227.762c3.096,13.551-4.169,26.819-14.482,30.995c-3.918,1.587-3.655-1.416-8.087-5.457      c-13.482-12.296-19.538,1.156-0.956-26.83c16.41-24.714,10.128-15.798,11.993-18.283c1.55-2.066,2.729-2.135,4.064,0.098      C394.395,214.316,397.656,220.51,398.259,227.762z"/>
			</g>
			<path style="fill:#00B0C4;" d="M76.536,117.732c-10.606-1.983-18.372-9.122-21.108-20.025c-0.81-3.229-0.764-5.586,1.772-7.742     c4.068-3.458,10.56-10.946,31.915-24.416c39.257-24.761,53.531-26.672,67.828-32.892c6.603-2.873,13.4-3.915,20.509-3.416     c28.174,1.976,48.983,8.441,73.011,15.008c10.852,2.966,21.074,7.411,31.277,12.002c2.487,1.119,3.639,2.745,3.852,5.397     c1.249,15.55-8.506,29.523-29.244,30.484c-1.449,0.067-3.714-0.854-4.221,1.951c-0.605,3.343,1.205,13.472-9.023,24.486     c-8.632,9.296-21.19,11.345-35.311,0.631c-2.839-2.154-2.322,0.841-5.609,7.164c-9.567,18.4-29.913,21.777-44.267,11.053     c-12.142-9.07-5.469-13.101-17.732-2.076c-13.734,12.346-33.914,6.288-41.782-14.998c-1.445-3.91-1.447-3.908-5.425-3.298     C87.44,117.895,82.239,118.798,76.536,117.732z"/>
			<path style="fill:#00B0C4;" d="M386.729,204.629c-27.159,41.117-25.311,41.132-31.391,41.514     c-7.35,0.461-10.893,4.52-15.507,7.347c-0.771,0.473-2.221-0.004-1.839-1.487c0.924-3.586,5.212-7.48,6.833-20.176     c0.372-2.917-1.023-0.256,19.412-30.325c82.684-121.66,76.755-116.541,80.316-116.38c4.556,0.207,10.871,5.018,12.222,9.34     C458.138,98.819,463.047,89.087,386.729,204.629z"/>
			<g>
				<path style="fill:#FC09B2;" d="M308.533,291.11c-1.048-1.728-2.896-6.596-0.484-7.98c0.989-0.568,2.208-0.495,3.342-0.372      c12.282,1.328,19.617,3.66,28.636,18.159c12.918,20.768,7.174,28.73,4.71,26.122c-3.745-3.965-4.413-10.503-14.509-24.535      c-1.927-2.679-4.39-4.849-6.768-7.096c-0.152-0.144-0.51-0.071-0.773-0.099c-0.016,0.285-0.147,0.633-0.031,0.848      c7.434,13.716,7.196,40.52,2.099,40.814c-2.26,0.131-2.93-2.365-3.292-4.6C317.443,307.586,318.887,308.189,308.533,291.11z"/>
				<path style="fill:#FC09B2;" d="M314.044,252.707c0.271,1.885,1.714,1.244,1.987,0.318c0.185-0.629,0.01-1.3-0.032-1.956      c-0.092-1.449,1.12-3.661,1.441-5.13c3.646-16.716-0.164-20.949,1.799-25.692c3.658-8.839,16.388,20.225-2.28,50.63      c-1.167,1.901-2.431,3.781-4.525,4.85c-7.058,3.602-8.278-9.327-7.649-13.638c0.753-5.165,0.654-10.422-0.029-15.589      c-2.183-16.516-3.156-15.052-5.733-23.357c-0.803-2.587,1.071-4.458,3.789-2.69      C312.364,226.667,312.577,242.492,314.044,252.707z"/>
				<path style="fill:#FC09B2;" d="M320.862,268.185c4.613-3.688,9.883-5.925,15.734-7.06c9.296-1.802,28.332-2.181,34.125,5.158      c0.672,0.851,0.165,2.308-0.888,2.517c-4.584,0.913-14.065-2.658-33.248,2.039c-0.22,0.054-0.455,0.382-0.513,0.624      c-0.282,1.18,25.746,1.565,33.048,14.02c0.967,1.65-0.164,3.379-2.054,3.371c-1.565-0.006-2.871-0.747-4.23-1.334      c-13.367-5.772-27.384-7.42-36.602-6.257c-2.11,0.266-4.167,0.18-6.206-0.332C314.225,279.475,317.628,270.771,320.862,268.185z      "/>
				<path style="fill:#FC09B2;" d="M274.94,260.841c3.375,0.552,4.383,0.933,4.782,0.537c0.439-0.436,0.021-0.796-0.284-1.049      c-3.672-3.043-7.407-6.002-11.71-8.13c-12.077-5.974-12.452-4.607-14.554-6.688c-1.487-1.472,0.627-3.949,3.712-3.708      c7.781,0.607,15.117,2.979,23.177,8.509c8.991,6.17,15.894,11.499,21.335,20.012c1.235,1.933,3.027,6.656,0.972,8.728      c-2.375,2.394-6.531-1.663-8.647-2.637c-3.086-1.421-6.471-2.362-9.64-3.588c-19.149-7.411-34.596-4.326-36.832-4.358      c-1.94-0.027-4.263-2.904,1.727-5.877C255.352,259.429,267.912,259.691,274.94,260.841z"/>
				<path style="fill:#FC09B2;" d="M298.676,311.516c-5.48,8.654-15.946,19.954-24.594,21.857c-3.677,0.808-4.458-1.482-3.613-2.473      c3.381-3.958,15.188-11.147,23.106-29.161c2.2-5.005,3.055-8.251,2.211-8.237c-2.876,0.048-5.405,1.391-7.924,2.605      c-17.344,8.362-21.413,15.37-26.367,19.629c-2.194,1.886-3.864-0.625-3.516-2.803c0.874-5.468,14.452-24.329,36.727-28.366      C301.95,283.254,309.979,293.666,298.676,311.516z"/>
			</g>
			<g>
				<path style="fill:#FFFFFF;" d="M316.054,200.376c0,0,0.003,0.018-0.016,0.021c-0.084,0.07-0.189,0.122-0.294,0.177      c-0.386,0.19-0.898,0.304-1.501,0.301c-0.396,0.002-0.792,0.005-1.182,0.044c-2.87,0.11-5.72,0.594-8.561,1.02      c-0.369,0.055-0.717,0.127-1.065,0.197c-2.745,0.563-5.116,1.73-7.133,3.371c-0.255,0.189-0.507,0.396-0.738,0.62      c-0.233,0.204-0.464,0.428-0.692,0.669c-0.461,0.447-0.898,0.927-1.311,1.442c-0.21,0.239-0.397,0.493-0.586,0.748      c-0.44,0.594-0.852,1.24-1.225,1.9c-0.305,0.48-0.554,0.951-0.783,1.438c-0.292,0.572-0.546,1.138-0.759,1.736      c-0.069,0.162-0.143,0.304-0.176,0.46c-0.208,0.503-0.376,1.019-0.526,1.531c-0.41,1.287-0.717,2.636-0.908,4.003      c-0.125,0.678-0.209,1.37-0.236,2.073c-0.115,1.243-0.154,2.493-0.098,3.748c0.339,7.664,2.118,12.735,3.759,16.261      c0.147,0.354,0.311,0.689,0.471,1.004c0.062,0.16,0.145,0.336,0.244,0.492c0.668,1.314,1.261,2.376,1.658,3.259      c0.062,0.16,0.14,0.3,0.198,0.442c0.247,0.642,0.386,1.186,0.325,1.667c-0.022,0.098-0.03,0.175-0.056,0.254      c-0.069,0.293-0.215,0.579-0.461,0.823c-0.063,0.085-0.128,0.151-0.212,0.22c-0.082,0.088-0.183,0.159-0.286,0.232      c-0.121,0.074-0.221,0.165-0.36,0.242c-0.087,0.051-0.158,0.081-0.229,0.11c-0.281,0.137-0.539,0.176-0.777,0.098      c-0.018,0.003-0.04-0.014-0.058-0.011c-0.058-0.01-0.101-0.041-0.159-0.051c-0.164-0.089-0.352-0.211-0.511-0.395      c-0.895-0.809-1.909-2.543-3.794-4.919c-0.232-0.286-0.463-0.573-0.713-0.856c-0.28-0.354-0.596-0.702-0.936-1.085      c-0.431-0.483-0.904-0.996-1.395-1.507c-2.03-2.091-4.682-4.428-8.263-6.928c-0.104-0.06-0.189-0.122-0.313-0.198      c-2.608-1.797-5.268-3.058-7.898-3.87c-0.28-0.109-0.577-0.197-0.85-0.268c-0.041-0.013-0.08-0.027-0.119-0.039      c-6.565-1.769-13.008-0.84-18.579,1.881c-0.019,0.003-0.056,0.009-0.071,0.03c-1.601,0.768-3.122,1.694-4.55,2.738      c-0.461,0.314-0.903,0.645-1.32,1.008c-0.558,0.433-1.047,0.916-1.566,1.377c-2.673,2.498-4.908,5.451-6.527,8.656      c-0.284,0.603-0.603,1.182-0.844,1.814c-0.027,0.06-0.054,0.14-0.082,0.201c-2.018,4.905-2.624,10.296-1.28,15.488      c0.101,0.419,0.217,0.817,0.331,1.196c0.134,0.394,0.248,0.773,0.398,1.147c0.161,0.447,0.357,1.003,0.493,1.53      c0.244,1.001,0.251,1.924-0.611,1.959c-6.007,0.184-16.428-5.91-21.281-9.597c-0.042-0.031-0.063-0.047-0.085-0.063      c-0.678-0.501-1.181-1.086-1.578-1.725c-0.225-0.362-0.395-0.751-0.552-1.161c-0.036-0.108-0.088-0.213-0.105-0.324      c-0.097-0.268-0.176-0.539-0.26-0.848c-0.048-0.2-0.079-0.403-0.128-0.602c-0.21-1.025-0.392-2.243-0.638-3.752      c-0.745-4.717-8.742-49.992-10.925-67.941c-0.61-4.944-1.899-5.242,3.285-7.151c35.259-13.021,79.606-11.109,101.315-1.804      c0.423,0.182,0.792,0.372,1.128,0.604c0.732,0.475,1.292,1.07,1.688,1.822c0.233,0.417,0.415,0.881,0.566,1.386      c0.282,0.996,0.573,1.933,0.878,2.83c0.861,2.474,1.796,4.559,2.743,6.34c0.131,0.245,0.243,0.492,0.371,0.718      c0.641,1.13,1.263,2.13,1.865,3.002c0.006,0.037,0.027,0.052,0.048,0.068c1.935,2.84,3.656,4.506,4.392,5.641      C316.889,198.647,316.867,199.763,316.054,200.376z"/>
				<path style="fill:#FFFFFF;" d="M210.757,121.365c-1.839-1.221-3.38-2.894-5.722-3.364c-1.954-0.392-37.19-73.169-39.954-77.764      c-0.298-0.495-1.099-0.426-1.257,0.264c-0.591,2.578-11.685,68.478-13.912,82.434c-0.464,2.911-1.228,5.359-3.846,7.165      c-4.791,3.305-14.444,16.547-30.531,9.742c-13.155-5.565-16.604-18.806-19.124-24.116c-0.611-1.287-4.613,3.475,56.03-73.172      c14.261-18.025,7.388-14.014,27.213-1.842c0.211,0.13,65.229,46.059,69.907,48.98c1.985,1.239,2.497,2.83,2.499,5.221      c0.015,15.909-8.793,27.055-20.086,30.719C226.655,127.357,218.474,126.487,210.757,121.365z"/>
				<path style="fill:#FFFFFF;" d="M180.555,224.773c0.256,1.829,0.52,3.714,0.819,5.706c2.214,15.266,2.792,15.971-0.319,15.608      c-9.893-1.194-17.427-5.402-21.501-11.563c-4.903-7.412-4.78-17.654,2.344-28.757c1.145-1.794,12.778-16.666,14.245-13.302      C176.48,193.206,177.454,202.962,180.555,224.773z"/>
				<path style="fill:#FFFFFF;" d="M373.431,252.068c-0.696,0.52-1.288,0.722-1.895,0.7c0,0-0.019,0.003-0.037,0.006      c-1.456-0.093-2.931-1.52-6.09-2.673c-0.508-0.175-1.013-0.354-1.554-0.5c-0.333-0.082-0.666-0.164-1.038-0.26      c-0.293-0.068-0.605-0.136-0.914-0.183c-0.563-0.104-1.161-0.203-1.814-0.275c-0.808-0.105-1.356-0.362-1.659-0.75      c-0.048-0.068-0.096-0.137-0.128-0.227c-0.056-0.123-0.097-0.268-0.122-0.434l-0.014-0.092c-0.05-0.464,0.106-1.054,0.46-1.71      c0.313-0.556,6.324-9.398,12.689-18.898c0.141-0.191,0.094-0.504,0.113-0.752c-3.459,0.33,3.154,0.149-19.279,6.644      c-1.553,0.46-3.206,0.632-4.843,0.784c-1.919,0.155-2.762-0.812-2.312-2.709c0.03-0.061,0.039-0.119,0.052-0.159      c0.986-3.864,3.053-4.551,7.19-5.511c3.442-0.818,8.294-1.791,15.177-4.954c8.769-4.031,11.96-7.528,11.967-4.342      c-0.006,0.341,0.026,0.675,0.091,0.987c0.182,1.085,0.645,2.034,1.076,3.026c0.048,0.068,0.08,0.157,0.091,0.231      C385.788,232.09,383.88,244.277,373.431,252.068z"/>
				<path style="fill:#FFFFFF;" d="M360.825,206.854c8.925-13.993,3.969-2.942,32.465-19.909c1.276-0.76,2.544-1.54,3.863-2.217      c0.852-0.438,1.772-1.838,2.63-0.861c0.636,0.724-0.031,1.648-7.093,11.542C388.324,201.525,357.828,211.552,360.825,206.854z"/>
				<path style="fill:#FFFFFF;" d="M386.596,172.58c-0.931-0.11-2.123-0.037-1.867-1.178c0.366-1.631,1.145-2.129,4.01-6.352      c2.298-3.386,7.815-2.412,26.924-13.557c7.208-4.204,8.001-5.522,8.784-4.571c0.172,0.209-0.009,0.877-0.225,1.208      c-2.107,3.234-4.212,6.471-6.423,9.634C414.577,162.373,392.168,171.289,386.596,172.58z"/>
				<path style="fill:#FFFFFF;" d="M410.863,138.996c-1.155,0.059-2.707,1.134-3.559-0.213c-0.654-1.035,0.589-2.185,1.138-3.19      c0.638-1.168,1.513-2.206,2.289-3.298c0.718-1.01,1.664-1.674,2.885-1.96c15.121-3.542,27.628-11.597,28.238-10.641      c0.857,1.345-1.598,3.309-2.255,4.893c-1.746,4.207-5.364,6.13-9.197,7.9C424.982,134.989,415.925,137.946,410.863,138.996z"/>
				<path style="fill:#FFFFFF;" d="M432.078,109.731c-5.491,1.162-7.029,0.205-4.074-4.487c2.166-3.439,5.106-3.151,11.879-5.5      c14.035-4.867,14.56-6.665,16.215-5.644c2.224,1.372,1.186,6.477-3.401,8.521C445.981,105.614,439.283,108.206,432.078,109.731z      "/>
			</g>
			<g style="opacity:0.5;">
				<path style="fill:#FFFFFF;" d="M342.699,123.284c-4.066-13.758-4.521-15.269-4.451-17.249c0.156-4.416,5.617-4.015,9.593,3.108      c16.05,28.758,16.479,80.173,6.629,78.897c-1.781-0.23-3.092-1.272-3.568-2.979c-0.722-2.592-0.968-5.277-0.987-7.973      C349.774,157.4,348.575,143.168,342.699,123.284z"/>
				<path style="fill:#FFFFFF;" d="M82.365,96.695c-8.015,1.236-11.165-6.596-4.74-12.609c12.371-11.578,26.03-21.295,41.24-28.798      c2.433-1.2,5.375-2.854,6.879-0.578c1.345,2.035-0.168,3.556-1.576,5.559c-9.685,13.781-27.006,27.714-36.535,33.81      C85.74,95.289,83.792,96.349,82.365,96.695z"/>
				<path style="fill:#FFFFFF;" d="M335.054,191.255c-0.943,5.022-6.759,5.399-8.898,1.369c-3.642-6.861-2.241-13.131-12.143-35.389      c-2.166-4.869-4.404-8.719-1.627-10.622C322.554,139.645,336.097,185.694,335.054,191.255z"/>
			</g>
			<g style="opacity:0.5;">
				<path style="fill:#FC09B2;" d="M208.109,255.816c-9.222-6.783-21.337-9.342-22.442-9.666c-0.434-0.124-0.796-0.277-1.109-0.476      c10.502-27.697,1.341-81.096,8.069-98.364c0.442,3.197,0.883,6.393,1.304,9.575c3.798,28.212,9.986,58.783,13.542,78.846      c0.017,0.111,0.051,0.219,0.071,0.348C209.276,247.38,210.548,257.62,208.109,255.816z"/>
				<path style="fill:#FC09B2;" d="M163.365,30.35c-6.949,1.042-7.498,1.351-7.631,0.396c-0.305-2.192,6.123-1.514,5.917-19.764      c-0.045-3.962-2.115-7.916,1.49-7.269c9.039,1.623,13.448,11.727,10.737,21.208c-0.814,2.846-2.477,4.645-5.641,4.814      c-1.628,0.087-3.24,0.459-4.859,0.701C163.373,30.408,163.369,30.378,163.365,30.35z"/>
			</g>
			<g style="opacity:0.25;">
				<path style="fill:#000E3F;" d="M336.005,476.575c-7.408,13.622-22.203,26.207-38.91,29.952      c-1.572,0.352-4.961,1.488-6.483,1.632c-13.077,1.236-25.604-0.576-37.111-7.24c-3.177-1.84-5.983-1.95-9.245-0.291      c-29.179,14.836-74.02,2.13-87.124-31.666c-0.928-2.394-0.977-4.961-4.997-5.272c-19.843-1.533-36.957-15.628-45.211-32.428      c-1.294-2.633-1.126-3.527,1.274-4.704c11.25-5.519,22.171-7.127,42.209,1.092c21.251,8.716,23.823,16.478,40.795,17.153      c8.891,0.354,19.052-6.696,24.993-13.225c10.192-11.202,16.056-21.239,35.487-25.346c35.049-7.408,69.404,8.168,90.558,4.233      c26.927-5.008,40.827-26.269,48.163-52.552c7.028-25.174,6.566-70.938,33.163-90.208c0.843-0.61,1.835-0.272,2.155,0.685      c1.239,3.709,1.386,19.244-2.292,30.453c-3.133,9.548-6.837,10.152-4.207,14.259c15.915,24.853,13.419,61.309-12.078,80.676      c-2.253,1.711-4.14,2.157-3.936,5.84c1.68,30.327-15.662,63.912-44.856,72.772C352.272,474.235,339.159,470.775,336.005,476.575      z"/>
				<path style="fill:#000E3F;" d="M183.17,104.283c21.186-0.969,41.804-8.515,46.732-29.139      c3.056-12.789,0.739-23.68-10.493-33.341c-12.164-10.463-12.786-9.413,30.734,2.35c10.856,2.934,21.107,7.308,31.264,11.992      c2.134,0.984,3.635,1.526,3.998,4.271c1.917,14.482-6.447,27.956-22.483,30.94c-9.129,1.699-10.217-0.664-10.811,2.804      c-0.62,3.624,1.2,13.057-8.735,24.144c-3.292,3.673-7.307,6.092-11.956,7.515c-3.52,1.078-7.107,0.724-10.617-0.026      c-7.099-1.518-11.375-5.577-13.801-7.107c-2.473-1.559-2.103,6.211-9.332,14.373c-11.097,12.529-29.241,14.779-43.803,0.804      c-6.654-6.385-3.189-7.933-13.697,1.491c-11.202,10.047-27.311,7.99-36.804-5.542c-1.249-1.781-1.316-2.856-0.002-4.443      C125.801,98.29,149.811,105.807,183.17,104.283z"/>
				<path style="fill:#000E3F;" d="M377.885,177.144c-0.557,1.819-30.374,45.975-30.531,46.187      c-0.901,1.286-2.106,1.052-2.609-0.419c-0.554-1.558-1.016-3.13-1.568-4.669c-4.113-11.322-12.577-17.333-24.069-19.628      c-2.216-0.44-1.984,0.977-3.055,1.76c0,0,0.003,0.018-0.016,0.021c-0.084,0.07-0.189,0.122-0.294,0.177      c-0.418,0.232-1.018,0.378-1.91,0.343c-0.264,0.002-0.512-0.018-0.772,0.002c-2.887-0.001-5.723,0.576-8.561,1.02      c-0.369,0.055-0.717,0.127-1.065,0.197c-2.757,0.602-5.129,1.769-7.133,3.371c-0.253,0.207-0.485,0.413-0.738,0.62      c-0.23,0.223-0.464,0.428-0.692,0.669c-0.461,0.447-0.898,0.927-1.311,1.442c-0.191,0.236-0.397,0.493-0.586,0.748      c-0.44,0.594-0.852,1.24-1.225,1.9c-0.289,0.459-0.554,0.951-0.783,1.438c-0.292,0.572-0.543,1.156-0.759,1.736      c-0.069,0.162-0.143,0.304-0.176,0.46c-0.208,0.503-0.376,1.019-0.526,1.531c-0.388,1.303-0.698,2.633-0.908,4.003      c-0.085,0.691-0.17,1.383-0.236,2.073c-0.112,1.393-0.128,2.791-0.049,4.194c0.376,7.035,2.114,12.207,3.711,15.815      c0.166,0.352,0.311,0.689,0.471,1.004c0.062,0.16,0.145,0.336,0.244,0.492c0.636,1.356,1.233,2.436,1.658,3.259      c0.062,0.16,0.14,0.3,0.198,0.442c0.086,0.194,0.17,0.371,0.231,0.531c0.154,0.392,0.175,0.785,0.095,1.136      c-0.022,0.098-0.03,0.175-0.056,0.254c-0.106,0.299-0.251,0.585-0.461,0.823c-0.063,0.085-0.128,0.151-0.212,0.22      c-0.082,0.088-0.183,0.159-0.286,0.232c-0.121,0.074-0.221,0.165-0.36,0.242c-0.087,0.051-0.158,0.081-0.229,0.11      c-0.268,0.097-0.527,0.136-0.777,0.098c-0.018,0.003-0.04-0.014-0.058-0.011c-0.058-0.01-0.101-0.041-0.159-0.051      c-0.159-0.051-0.304-0.143-0.44-0.293c-0.024-0.034-0.048-0.068-0.072-0.102c-0.822-0.951-2.053-2.747-3.794-4.919      c-0.232-0.286-0.463-0.573-0.713-0.856c-0.28-0.354-0.596-0.702-0.936-1.085c-0.431-0.483-0.904-0.996-1.395-1.507      c-2.196-2.311-4.919-4.75-8.263-6.928c-0.104-0.06-0.189-0.122-0.313-0.198c-1.272-0.809-2.632-1.585-4.099-2.308      c-1.263-0.622-2.53-1.148-3.799-1.561c-0.28-0.109-0.558-0.2-0.85-0.268c-0.041-0.013-0.08-0.027-0.119-0.039      c-6.019-1.775-12.136-1.311-18.091,1.619c-0.157,0.081-0.334,0.163-0.488,0.262c-0.019,0.003-0.056,0.009-0.071,0.03      c-1.63,0.828-3.154,1.736-4.55,2.738c-0.461,0.314-0.903,0.645-1.32,1.008c-4.072,3.157-7.123,7.086-8.937,11.847      c-0.027,0.06-0.054,0.14-0.082,0.201c-1.04,2.759-1.674,5.815-1.895,9.13c-0.074,1.202-0.035,2.309,0.072,3.335      c0.014,0.114,0.026,0.227,0.041,0.341c0.044,0.362,0.097,0.712,0.157,1.052c0.098,0.544,0.205,1.089,0.345,1.63      c0.101,0.419,0.217,0.817,0.331,1.196c0.329,1.063,0.649,1.94,0.891,2.676c0.244,1.001,0.251,1.924-0.611,1.959      c-6.007,0.184-16.428-5.91-21.281-9.597c-0.042-0.031-0.063-0.047-0.085-0.063c-0.678-0.501-1.181-1.086-1.578-1.725      c-0.225-0.362-0.395-0.751-0.552-1.161c-0.036-0.108-0.088-0.213-0.105-0.324c-0.097-0.268-0.176-0.539-0.26-0.848      c-0.048-0.2-0.079-0.403-0.128-0.602l-2.371-15.809l-0.074,0.011c-2.736-18.244-3.567-18.251,0.172-18.849      c25.243-4.107,57.42,0.422,83.631-27.029c10.693-11.205,9.517-18.29,12.08-18.429c0.261-0.021,0.509-0.001,0.726,0.06      c0.861,0.211,1.347,0.93,1.688,1.822c0.397,0.884,0.609,1.926,0.93,2.803c0.137,0.413,0.32,0.876,0.514,1.413      c0.706,1.818,1.689,4.216,2.743,6.34c0.131,0.245,0.243,0.492,0.371,0.718c0.615,1.209,1.264,2.262,1.865,3.002      c0.006,0.037,0.027,0.052,0.048,0.068c0.95,1.177,1.807,1.482,2.325,0.16c2.978-7.556,9.048-12.108,15.868-15.677      c4.74-2.484,9.68-4.753,14.743-6.455c7.725-2.573,12.049-7.824,13.833-15.541c5.934-25.58,3.693-33.354,0.03-57.023      c-0.13-0.867-0.189-1.763-0.132-2.639C358.67,88.644,392.27,129.814,377.885,177.144z"/>
				<path style="fill:#000E3F;" d="M439.803,123.421c-0.141,0.945-0.737,2.129-1.958,4.047c-1.921,3.042-5.393,7.938-11.125,16.626      c-0.736,1.129-1.506,2.282-2.273,3.453c-2.274,3.453-4.622,7.03-7.001,10.669l-0.015,0.021      c-6.176,9.376-12.485,18.999-17.887,27.24c-0.83,1.256-1.63,2.47-2.397,3.642c-0.062,0.085-0.109,0.148-0.153,0.23      c-6.966,10.645-11.897,18.137-11.911,18.177c-3.594,5.462-5.615,7.199-5.612,9.235c0.012,0.583,0.199,1.196,0.554,1.935      c0.184,0.35,0.353,0.721,0.522,1.091c0.048,0.068,0.08,0.157,0.091,0.231c5.15,12.072,3.243,24.26-7.207,32.051      c-0.696,0.52-1.288,0.722-1.895,0.7c0,0-0.019,0.003-0.037,0.006c-2.152-1.016-4.636-2.36-7.644-3.173      c-0.336-0.101-0.686-0.18-1.038-0.26c-0.293-0.068-0.605-0.136-0.914-0.183c-0.407-0.071-0.831-0.139-1.272-0.187      c-0.842-0.081-1.758-0.151-2.201-0.838c-0.048-0.068-0.096-0.137-0.128-0.227c-0.056-0.123-0.097-0.268-0.122-0.434      l-0.014-0.092c-0.257-1.338-1.033-1.486-2.185-1.369c-7.674,0.773-10.287,3.598-16.369,7.566      c-0.963,0.616-1.77-0.735-1.619-1.361c0.874-3.734,5.479-8.366,6.676-19.749c0.069-0.671,0.17-1.252,0.325-1.728      c0.03-0.061,0.039-0.119,0.052-0.159c0.873-2.602,2.985-2.861,7.19-5.511c1.705-1.085,3.765-2.564,6.243-4.784      c6.202-5.551,11.17-10.408,15.424-14.988c4.535-4.849,8.252-9.367,11.723-14.018c5.433-7.285,10.292-14.879,16.869-24.598      c2.572-3.856,5.433-8.039,8.699-12.678c2.941-4.157,6.187-8.68,9.877-13.628c1.317-1.782,3.106-3.937,5.08-6.119      c4.259-4.675,9.438-9.507,12.883-11.061C439.21,123.114,439.544,123.327,439.803,123.421z"/>
				<path style="fill:#000E3F;" d="M180.555,224.773c0.256,1.829,0.52,3.714,0.819,5.706c2.214,15.266,2.792,15.971-0.319,15.608      c-9.893-1.194-17.427-5.402-21.501-11.563c3.28-4.038,16.741-8.603,19.082-9.464      C179.405,224.776,180.033,224.681,180.555,224.773z"/>
			</g>
		</g>
		<path style="fill:#000E3F;" d="M384.42,162.095c-0.123,1.928-0.341,1.782,0.361,2.347c0.238,0.191,1.333-1.301,1.502-1.554    c56.368-84.01,53.46-82.547,59.559-81.028c8.921,2.222,18.454,11.265,13.455,18.969c-5.687,8.764,6.967-10.558-39.578,60.101    c-15.18,23.044-6.009,9.418-24.843,37.684c-1.573,2.361-2.619,3.486-1.237,4.608c5.417,4.397,12.134,8.082,22.44,25.195    c8.19,13.599,12.816,31.141,13.399,39.531c1.409,20.271-1.026,29.127-6.609,40.422c-2.375,4.804,3.043,4.235,7.612,22.199    c5.905,23.217-0.497,48.725-18.764,63.855c-4.885,4.046-5.036,4.016-4.933,9.971c0.567,32.748-23.948,70.583-57.503,73.254    c-7.651,0.609-8.926-1.384-10.834,1.615c-9.061,14.243-21.213,24.798-36.789,29.766c-17.929,5.719-36.795,2.707-49.674-5.029    c-5.887-3.536-7.806,3.275-24.573,5.475c-31.09,4.079-58.895-11.648-69.744-31.427c-4.851-8.845-3.613-10.705-7.656-11.081    c-29.829-2.772-54.963-35.536-52.868-63.584c0.584-7.827-6.708-4.359-17.525-20.831c-13.879-21.134-16.368-54.731,0.505-81.968    c1.021-1.648,1.355-2.979,0.765-4.951c-13.534-45.219,24.911-104.662,72.643-122.129c2.668-0.976,5.469-1.305,8.028-2.577    c2.735-1.36,5.025-3.483,7.643-5.038c1.94-1.152,0.312-3.091-1.017-16.547c-0.675-6.838-4.411-0.901-18.51-14.899    c-4.335-4.304-1.344,1.07-12.861,7.419c-16.842,9.285-34.274-1.979-41.696-20.086c-0.868-2.117-0.918-2.141-2.874-1.538    c-15.637,4.822-32.847-2.248-38.735-17.174c-1.941-4.92-3.749-10.507-0.002-14.207c15.703-15.508,34.509-27.125,54.216-38.42    c19.355-11.093,36.63-16.448,39.963-17.839c2.087-0.871,1.004-0.86-1.785-6.766c-2.689-5.695-2.068-11.404,0.472-16.877    c4.85-10.449,19.748-12.109,26.948-3.099c9.656,12.084,1.301,21.588,4.247,22.054c5.38,0.851,21.561-0.308,52.168,7.267    c20.792,5.146,35.765,9.193,54.845,18.865c2.369,1.201,3.774,2.852,4.081,5.425c2.73,22.923-14.605,36.143-31.905,36.037    c-1.711-0.01-1.941,0.187-2.149,2.081c-0.441,4.008-0.91,7.992-2.377,11.802c-7.927,20.588-27.596,26.081-42.704,15.064    c-3.166-2.309-1.149,0.113-8.947,10.294c-4.584,5.984-7.856,5.617-6.44,8.827c1.034,2.345,1.01,6.323,1.964,9.616    c1.368,4.718,28.303-13.473,91.103-0.483c19.716,4.077,5.564,6.295,18.263-17.621c2.07-3.9,7.878-3.527,12.23-2.68    c3.557,0.693,5.555,1.636,5.157-0.425c-0.373-1.933-1.659-5.89-1.717-7.371c-0.236-5.955-0.31-11.899,0.917-17.801    c2.124-10.212,5.739-19.74,12.26-28.012c2.323-2.946,2.655-3.854,5.713-2.767c16.355,5.818,34.874,25.415,41.786,53.3    C382.605,132.515,385.521,144.903,384.42,162.095z M413.2,233.477c-3.704-6.854-8.201-13.155-13.633-18.762    c-0.282-0.291-0.745-0.408-1.123-0.606c-0.012,0.414-0.169,0.894-0.014,1.231c5.863,12.747,6.246,29.711-5.042,40.804    c-2.044,2.009-4.359,3.602-6.795,5.065c-2.022,1.215-2.098,1.29-1.159,3.52c4.619,10.975,2.715,23.829,0.949,27.087    c-4.672,8.621-11.405,14.023-21.762,13.572c-1.042-0.045-2.085-0.107-3.127-0.107c-2.039,0-0.795,2.362-0.391,3.633    c7.036,22.121-12.597,46.004-37.646,41.635c-9.861-1.72-17.37-6.814-21.84-15.981c-0.327-0.67-0.644-1.347-1.008-1.996    c-0.369-0.658-0.927-0.784-1.393-0.168c-1.906,2.521-4.288,4.562-6.627,6.64c-12.725,11.306-35.684,9.316-46.338-12.543    c-2.073-4.254-2.241-8.934-3.053-13.474c-0.97-5.418,0.144-8.688,1.482-14.089c1.059-4.276-4.767,2.08-24.637-8.091    c-16.293-8.341-15.393-12.828-29.479-17.44c-13.79-4.515-36.104-1.414-50.893-28.161c-5.608-10.143-8.167-26.772-1.989-43.801    c3.424-9.438,7.853-13.933,11.633-19.51c0.102-0.151-0.039-0.5-0.132-0.731c-0.032-0.079-0.286-0.144-0.399-0.103    c-23.234,8.3-54.45,40.263-62.503,74.666c-3.241,13.845-4.354,27.876,0.275,41.437c0.976,2.859-1.15,3.43-5.09,10.991    c-15.34,29.442-8.235,71.821,17.76,86.569c2.521,1.43,3.382,3.397,3.059,6.306c-2.95,26.582,18.816,57.655,49.273,61.038    c5.603,0.622,5.19,1.185,6.625,5.174c11.724,32.599,54.224,46.673,85.915,31.597c5.645-2.686,7.97-0.431,10.376,0.852    c31.326,16.695,65.504,2.756,80.735-24.77c3.384-6.116,7.471,1.172,24.431-4.638c12.208-4.182,21.501-12.255,28.596-22.68    c8.03-11.8,12.449-25.047,13.307-39.373c0.938-15.653-2.032-9.948,7.941-18.435c7.488-6.373,12.492-14.464,15.293-23.757    c3.18-10.55,3.705-21.262,1.118-32.164c-4.993-21.045-12.154-21.079-8.357-26.293c2.882-3.958,5.132-11.264,6.159-16.689    C425.298,282.48,421.996,249.753,413.2,233.477z M156.884,35.146c-11.441,3.411-22.664,7.44-33.393,12.709    c-19.955,9.8-49.58,27.553-65.007,43.116c-1.419,1.432-1.817,2.862-1.581,4.802c1.675,13.738,14.716,24.954,36.105,18.975    c4.439-1.241,4.908-1.016,6.305,3.438c7.842,25.006,33.409,28.707,44.898,10.268c2.488-3.993,4.271-4.135,7.125,0.086    c8.091,11.968,26.051,18.886,40.334,8.029c9.751-7.412,10.804-15.622,12.495-18.655c1.752-3.141,3.897-0.202,8.488,2.814    c10.606,6.969,25.547,5.37,32.865-8.349c8.094-15.175-0.129-21.78,8.281-21.87c22.163-0.236,32.002-13.723,29.691-29.255    c-0.241-1.62-1.01-2.703-2.505-3.412c-12.953-6.136-19.981-9.511-42.402-15.347c-19.65-5.114-36.435-8.544-56.379-9.195    C174.981,33.063,165.228,32.658,156.884,35.146z M184.242,232.206c0.309,2.014,2.565,13.659,1.001,14.399    c-1.276,0.604-3.572-0.217-4.233-1.556c-1.28-2.597-0.803-7.465-8.639-61.522c-1.236-8.528-0.586-13.447-2.872-11.816    c-2.913,2.079-5.977,3.962-8.768,6.193c-28.156,22.506-27.834,61.172-5.408,78.554c13.206,10.236,20.93,7.563,33.897,11.323    c21.736,6.302,28.376,23.861,55.644,24.504c1.948,0.046,3.556-0.674,4.985-1.956c0.658-0.59,3.951-3.436,3.81-4.327    c-0.116-0.734-1.176-0.725-1.902-0.804c-10.628-1.157-24.27-10.814-24.213-25.727c0.09-23.501,26.775-47.155,55.406-25.211    c0.547,0.419,1.01,1.455,1.769,0.954c0.362-0.24-0.071-1.534-0.741-6.543c-1.906-14.253,6.077-29.493,21.456-31.624    c2.336-0.324,3.956-0.559,2.699-2.499c-7.219-11.137-7.546-18.122-8.709-23.699c-1.386-6.643,0.73-9.892-3.662-10.891    c-8.874-2.018-19.266-5.14-38.765-6.438c-17.915-1.193-38.674,0.364-54.978,4.87c-5.149,1.423-5.241,0.745-4.358,6.485    c11.152,72.452,17.262,96.545,12.492,93.703c-5.166-3.077-3.112-5.114-6.872-25.57c-3.208-17.45-4.904-35.135-8.615-52.518    c-4.937-23.125-3.759-36.901-6.959-35.658c-3.669,1.425-7.569,1.624-11.391,2.243c-2.454,0.398-3.864-0.592-3.655,2.128    c0.617,8.042,3.111,20.441,4.421,29.334C179.714,196.395,181.503,214.365,184.242,232.206z M286.738,276.891    c3.729,0.15,4.631,2.431,3.313,3.987c-3.046,3.596-14.639-2.815-31.361,8.119c-17.317,11.323-11.776,38.577,2.133,47.562    c8.487,5.483,19.227,6.23,27.898-0.791c4.598-3.723,8.34-8.094,10.946-13.358c8.106-16.377,3.375-21.261,4.207-25.034    c0.497-2.255,3.159-2.307,4.075-0.729c3.66,6.302,0.802,17.973-2.305,24.591c-5.348,11.391,10.429,29.195,30.441,24.01    c25.361-6.569,32.338-42.742-2.488-55.028c-2.553-0.901-4.993-1.34-4.461-3.963c0.586-2.891,5.264-1.099,7.989-0.028    c16.947,6.665,16.617,16.767,32.185,13.659c7.369-1.47,12.555-6.835,13.497-14.244c0.677-5.322,0.779-10.589-0.985-15.872    c-5.378-16.106-17.18-22.081-27.746-19.861c-8.151,1.713-16.492,6.479-21.879,11.54c-2.127,1.999-4.882,2.792-7.459,3.905    c-1.445,0.624-3.627-1.094-2.062-3.355c1.32-1.909,10.759-5.055,16.234-20.12c8.629-23.743-5.878-43.468-33.08-39.949    c-2.707,0.35-5.147,1.479-7.426,2.922c-12.887,8.166-11.629,27.412-3.964,40.881c0.257,0.451,6.376,11.221,6.764,12.562    c0.741,2.566-2.246,4.434-4.107,2.237c-1.699-2.005-5.681-11.339-14.139-19.459c-12.031-11.551-24.168-12.669-33.319-8.098    c-10.758,5.373-18.759,17.241-16.649,29.57c2.38,13.907,16.78,19.142,29.452,17.747    C268.67,279.608,274.536,276.401,286.738,276.891z M342.142,82.306c-3.33-1.719-3.404-1.945-7.61,4.796    c-6.127,9.822-10.794,26.855-7.204,41.772c2.234,9.285,5.328,9.17,3.343,11.573c-1.448,1.753-3.427,0.522-4.866-0.222    c-4.047-2.092-8.395-2.97-12.897-3.345c-2.039-0.17-3.348,0.448-4.282,2.367c-8.122,16.676-5.614,38.57,3.766,52.598    c1.959,2.93,4.325,4.824,8.135,5.555c23.051,4.422,24.372,24.253,25.709,24.289c0.604,0.017-1.35,2.35,28.344-41.616    c0.826-1.223,1.663-2.427,2.046-3.935C386.847,135.853,369.156,96.25,342.142,82.306z M455.273,95.912    c-0.285-1.419-0.511-2.444-1.187-3.286c-2.107-2.621-4.628-4.641-7.977-5.45c-2.273-0.549-3.247-0.203-4.541,1.777    c-6.65,10.166-33.359,50.369-40.95,61.334c-3.003,4.338-27.807,41.31-31.408,46.754c-20.071,30.347-22.882,31.311-23.514,39.021    c-0.505,6.164-4.625,11.289-3.185,12.182c1.598,0.99,3.425-2.647,13.626-3.572c3.304-0.299,3.332-1.476,10.952-12.882    c23.127-34.618,9.146-13.822,25.828-39.189c63.643-96.774,61.207-92.655,61.352-92.868    C455.172,98.411,455.56,97.075,455.273,95.912z M390.803,211.368c-1.666-2.956-1.989-3.809-5.666,1.814    c-21.154,32.352-20.152,30.163-20.206,30.949c-0.189,2.789,6.282,1.267,13.952,10.263c2.994,3.511,2.877,3.583,4.796,2.622    c5.851-2.93,9.916-7.449,12.166-13.619C399.663,232.927,396.21,220.957,390.803,211.368z M157.233,5.853    c-9.194,2.209-10.039,16.626-3.584,23.242c2.52,2.582,3.899-0.146,10.207-0.7c3.112-0.273,6.612,1.1,8.077-2.876    C172.989,22.654,173.719,2.205,157.233,5.853z"/>
		<g>
			<g>
				<path style="fill:#FFFFFF;" d="M289.509,284.685c0.699-2.191-1.257-1.819-3.688-4.328c-6.383-6.589-0.442-15.385,6.185-16.113      c5.404-0.594,4.312-1.49,5.195-4.649c2.161-7.733,10.057-10.532,16.595-5.876c0.847,0.603,1.783,1.191,2.387,2.003      c1.283,1.723,2.659,2.534,4.809,1.528c0.778-0.365,1.746-0.343,2.633-0.453c6.626-0.827,11.552,4.333,10.464,10.994      c-1.049,6.423-4.827,7.202-2.314,10.638c5.837,7.983-1.689,18.001-11.078,17.593c-5.504-0.24-7.167-3.337-9.169-0.625      c-1.458,1.975-3.546,3.121-5.628,4.309C297.328,304.6,285.862,296.109,289.509,284.685z"/>
			</g>
			<g>
				<path style="fill:#000E3F;" d="M310.406,284.304c-3.519,0.438-7.677-1.877-8.757-4.876c-2.682-7.444,6.638-14.924,13.863-9.487      c3.248,2.444,3.949,6.931,1.604,10.313C315.749,282.225,312.798,284.006,310.406,284.304z"/>
			</g>
		</g>
	</g>
</g>















</svg>
