<?xml version="1.0" encoding="UTF-8"?>
<!-- Generator: Adobe Illustrator 25.2.1, SVG Export Plug-In . SVG Version: 6.00 Build 0)  -->
<svg xmlns="http://www.w3.org/2000/svg" xmlns:xlink="http://www.w3.org/1999/xlink" version="1.1" id="Capa_1" x="0px" y="0px" viewBox="0 0 512 512" style="enable-background:new 0 0 512 512;" xml:space="preserve" width="512" height="512">
<g>
	<g>
		<g>
			<g>
				<path style="fill:#FF8EDE;" d="M432.877,361.441c6.048-2.588,6.9-1.518,11.591-2.786c13.442-3.633,35.307-10.528,48.181-18.841      c9.942-6.42,17.387-14.955,15.581-26.695c-0.773-5.023-65.027-199.66-65.086-199.813c-6.631-17.311-12.375-57.624-52.335-66.658      c-31.717-7.17-74.01,6.931-90.183,36.253c-15.264,27.674-0.378,65.375,6.379,94.081c3.321,14.108,37.333,158.322,40.488,173.132      c2.857,13.412,10.5,21.711,28.814,22.204c16.317,0.439,28.193-3.539,34.306-4.642      C414.554,366.967,428.677,363.238,432.877,361.441z"/>
				<path style="fill:#FFCF00;" d="M436.684,362.394c-13.393,3.769-15.232,3.602-14.989,6.398c1.735,20.027,8.88,70.45,19.891,87.24      c12.456,18.991,38.61,10.277,39.665-9.732c0.981-18.589-16.109-59.687-23.738-76.126c-5.457-11.758-4.837-12.192-8.222-11.296      c-4.217,1.117-8.404,2.345-12.604,3.527C436.686,362.401,436.685,362.397,436.684,362.394z"/>
				<g>
					<path style="fill:#FD8A02;" d="M424.535,373.215c-1.272-0.203-1.863,0.145-2.059,1.015c-0.913,4.066,3.038,2.074,11.535,6.033       c20.636,9.616,37.639,43.373,28.103,83.448c-0.199,0.835-0.667,1.779,0.506,2.215       C474.787,470.453,475.075,381.294,424.535,373.215z"/>
					<path style="fill:#FD8A02;" d="M426.01,392.285c12.866,8.465,23.272,27.311,20.585,46.044       c-1.215,8.47-4.029,11.742-5.261,14.248c-1.347,2.74,1.256,5.171,2.095,3.918c18.701-27.932-1.581-61.554-17.462-68.69       c-1.049-0.471-1.803-0.01-1.728,1.057C424.411,391.332,424.691,391.417,426.01,392.285z"/>
					<path style="fill:#FD8A02;" d="M460.819,380.815c-13.308-5.127-20.342-16.414-21.891-18.018       c-1.385-1.434-4.67-0.212-3.375,1.783c9.863,15.199,26.565,22.173,27.885,20.606       C463.938,384.592,463.217,381.739,460.819,380.815z"/>
				</g>
				<path style="fill:#91D728;" d="M358.799,368.177c10.742,6.328,25.027,4.157,36.758,2.691      c11.975-1.497,24.027-5.896,35.727-9.089c21.679-5.917,81.871-17.962,76.99-48.397c-0.514-3.209-1.128-6.309-2.54-9.314      c-0.291-0.631-7.479-23.638-8.454-25.892c2.786,6.457-89.97,32.831-96.745,34.5c-19.072,4.699-39.209,4.205-58.567,7.686      c-0.956,0.172-1.005,1.206-0.833,2.163C343.75,337.117,345.387,360.276,358.799,368.177z"/>
				<g>
					<g>
						<path style="fill:#FC09B2;" d="M369.228,313.801c11.709-1.627,25.197-4.305,39.546-7.954        c-8.835-30.873-51.736-177.899-57.868-197.041c-1.521-4.773-3.984-9.782-8.488-11.966c-5.95-2.894-14.768-1.757-18.469,5.069        c-4.28,7.879-0.048,20.039,2.273,29.09C326.269,131.163,361.646,281.911,369.228,313.801z"/>
					</g>
					<g>
						<path style="fill:#FC09B2;" d="M430.671,299.716c14.123-4.332,27.011-9.027,37.908-13.714        c-10.041-30.842-58.645-178.385-58.691-178.551c-2.741-8.933-5.472-21.515-13.232-26.005        c-6.718-3.894-14.835-0.265-18.402,5.308c-2.703,4.212-2.192,9.77-1.015,14.641        C381.993,120.94,422.112,268.847,430.671,299.716z"/>
					</g>
				</g>
				<path style="opacity:0.5;fill:#FFFFFF;" d="M459.603,227.306c1.284,3.468,3.746,9.966,8.804,7.369      c4.855-2.493,1.191-11.027,0.14-14.762c-5.906-20.985-30.991-92.983-39.788-113.626c-3.232-7.585-7.439-4.98-6.395,0.101      C427.867,133.194,450.79,203.51,459.603,227.306z"/>
				<path style="opacity:0.5;fill:#FD8A02;" d="M435.634,442.842c3.422,10.337,8.094,19.757,18.358,22.883      c9.943,3.029,22.741-2.669,26.129-13.191c1.198-3.72,0.997-4.074-2.817-4.919c-10.046-2.226-15.759-10.354-19.564-19.881      c-3.222-8.067-5.489-23.655-18.082-36.358c-5.133-5.178-11.591-8.74-14.138-9.556c-1.49-0.477-2.198,0.031-2.072,1.53      C424.398,394.592,430.057,425.994,435.634,442.842z"/>
				<path style="fill:#FFFFFF;" d="M346.655,342.511c48.636-1.099,113.508-20.782,149.235-39.715      c10.859-5.746,9.377-2.201,1.688-24.34c-0.712-2.069-2.04-4.254-2.602-6.251c-0.038-0.022-0.077-0.043-0.115-0.065      c-31.548,22.168-119.156,45.975-154.873,43.344c0,0,0,0-0.015,0.004C338.79,317.139,345.736,342.532,346.655,342.511z"/>
				<path style="opacity:0.25;fill:#000E3F;" d="M432.874,361.444c2.713-1.16,5.633-1.999,8.671-2.179      c2.946-0.175,29.208-8.003,43.337-14.975c6.779-3.345,13.635-7.891,18.416-13.789c1.169-1.442,1.119-1.952-0.306-3.082      c-45.609-36.156-100.83,16.291-124.271-45.561c-46.306-122.175-39.427-167.512-78.734-189.307      c-2.819-1.563-3.27-1.392-4.109,1.686c-6.284,23.034,3.026,44.269,8.106,69.706c0.032,0.157,41.79,178.226,43.169,183.57      c0.052,0.201,0.675,10.133,7.158,16.885c5.369,5.591,14.424,7.716,21.988,7.92c16.384,0.443,28.404-3.572,34.309-4.64      C414.546,366.967,428.691,363.233,432.874,361.444z"/>
			</g>
			<path style="fill:#000E3F;" d="M501.978,281.01v-0.001c-1.464-4.416-3.119-9.415-4.984-15.091l-1.284-3.908     c-1.789-5.444-3.58-10.889-5.365-16.337c-48.673-148.356-45.224-137.228-46.699-142.035     c-6.401-20.773-18.314-59.441-64.455-61.926c-37.557-2.004-83.144,20.062-88.138,59.606c-1.941,15.371,0.603,25.937,3.831,39.336     c0.412,1.705,0.832,3.457,1.258,5.28c8.379,35.679,16.494,70.328,24.121,102.987c4.089,17.502,7.508,32.204,10.386,44.581     c15.045,64.707,15.333,65.944,19.366,71.131c12.856,16.536,40.869,10.747,59.415,6.922l0.148-0.031     c1.137-0.235,2.236-0.462,3.284-0.673l0.834-0.168c2.388-0.487,3.965-0.805,4.453-0.456c0.177,0.127,0.288,0.422,0.352,0.931     c8.323,67.965,14.151,91.641,32.253,97.908c2.583,0.894,5.346,1.347,8.212,1.347c7.07,0,14.036-2.742,19.115-7.522     c14.226-13.383,5.011-37.798-3.123-59.349c-1.283-3.395-2.606-6.905-3.804-10.291c-2.989-8.443-6.822-16.7-10.547-24.725     l-0.074-0.16c-0.974-2.096-1.945-4.191-2.905-6.292c-0.08-0.178-0.175-0.37-0.294-0.604c-0.356-0.701-0.842-1.663-0.645-2.184     c0.07-0.189,0.245-0.337,0.533-0.451c3.104-1.234,6.466-2.423,10.036-3.686c17.63-6.239,39.574-14.003,44.122-33.786     C513.002,314.306,511.958,311.154,501.978,281.01z M451.913,362.311c11.088,23.708,18.977,43.56,23.446,59.004l0.578,1.991     c2.859,9.782,6.419,21.956,2.223,30.757c-1.915,4.021-6.075,7.519-11.417,9.598c-7.29,2.836-15.829,1.418-21.268-3.523     c-9.849-8.957-14.775-40.101-16.879-53.401l-0.031-0.187c-1.474-9.314-2.695-18.776-3.722-26.915     c-0.051-0.387-0.13-0.915-0.222-1.535l-0.014-0.108c-0.902-6.033-1.066-9.3-0.488-9.709c1.742-1.23,16.434-4.993,21.995-6.417     c1.787-0.459,2.969-0.762,3.245-0.849c0.473-0.152,0.827-0.241,1.114-0.241C451.089,360.774,451.39,361.194,451.913,362.311z      M350.44,353.718c-4.091-17.235-53.233-223.22-54.574-236.029c-6.264-60.107,77.213-85.98,113.114-61.658     c15.177,10.282,22.531,28.213,28.236,44.917c1.543,4.519,2.981,9.073,4.4,13.632c0.099,0.319,62.995,191.583,64.395,196.522     c4.146,16.274-10.151,29.434-43.708,40.231c-5.247,1.689-49.377,14.319-60.898,16.626     C371.46,373.952,354.307,369.163,350.44,353.718z"/>
		</g>
		<g>
			<path style="fill:#FD8A02;" d="M272.189,338.918c2.609,3.052,7.998,6.839,12.703,19.339c0.422,1.12,0.864,2.25,1.455,3.285     c0.822,1.441,2.574,1.532,3.545,0.147c2.195-3.131,2.32-8.108,9.638-16.71c4.295-5.048,8.477-6.637,4.883-9.691     c-8.96-7.613-12.039-19.028-13.671-22.048c-0.704-1.303-2.376-1.406-3.292-0.258c-0.981,1.231-1.488,2.723-2.078,4.164     c-4.364,10.672-10.382,15.55-12.838,17.922C271.917,335.664,271.289,337.868,272.189,338.918z"/>
			<path style="fill:#FD8A02;" d="M216.905,384.941c3.005,3.513,9.205,7.859,14.631,22.274c0.486,1.29,0.995,2.592,1.675,3.784     c0.947,1.659,2.965,1.764,4.083,0.169c2.531-3.61,2.671-9.338,11.101-19.246c4.947-5.814,9.764-7.644,5.624-11.162     c-10.32-8.768-13.866-21.916-15.746-25.394c-0.811-1.502-2.737-1.619-3.791-0.297c-1.13,1.418-1.714,3.136-2.393,4.797     c-5.036,12.315-11.991,17.942-14.787,20.642C216.592,381.193,215.869,383.731,216.905,384.941z"/>
			<path style="fill:#FD8A02;" d="M204.051,297.524c0.627,0.733,1.263,1.466,1.962,2.127c9.854,9.323,12.173,20.124,14.345,23.93     c0.947,1.659,2.965,1.765,4.083,0.169c0.779-1.112,1.37-2.398,1.84-3.682c7.328-20.035,21.076-21.465,14.884-26.726     c-10.32-8.768-13.866-21.915-15.745-25.394c-0.812-1.501-2.737-1.619-3.792-0.297c-1.13,1.418-1.714,3.136-2.393,4.797     c-5.037,12.315-11.991,17.942-14.787,20.641C203.738,293.776,203.013,296.312,204.051,297.524z"/>
		</g>
		<g>
			<g>
				<g>
					<path style="fill:#FD8A02;" d="M4.413,299.82c2.052,4.664,2.844,3.97,49.218,29.199c2.419,1.315,3.558,2.246,3.765,3.329       c0.236,1.253-0.78,2.709-2.498,5.168c-8.634,12.41-39.88,52.43-21.032,67.629c6.669,5.374,12.991,5.591,18.835,2.675       c16.62-8.311,29.198-42.017,33.832-54.49c1.109-2.963,1.764-5.186,4.29-4.038c1.228,0.546,33.608,18.046,45.832,24.952       c5.928,3.362,11.272,2.544,16.389-1.01c7.076-4.895,9.955-12.037,9.572-20.503c-0.274-6.087-4.008-7.564-7.762-9.605       L27.231,273.74c-4.369-2.376-7.435-4.475-12.906-1.13C3.814,279.014,0.253,290.373,4.413,299.82z"/>
					<path style="fill:#FFCF00;" d="M24.587,272.303c-6.674-4.031-13.917,1.741-18.252,7.787c-1.002,1.398-0.92,2.56,0.279,3.971       c2.892,3.402,6.409,5.956,10.641,7.427c7.214,2.507,11.182,1.187,17.316,1.145c7.26-0.05,9.306,5.708,11.87,11.135       c9.019,19.092,14.769,16.816,28.107,15.321c24.448-2.737,10.479,29.514,41.576,24.482c8.498-1.375,14.544-2.741,18.912,3.896       c3.092,4.697,6.928,16.276,22.212,18.471c1.968,0.283,2.883-0.351,3.6-2.281c2.886-7.767,3.128-15.665-4.168-19.59       C136.499,333.21,24.721,272.385,24.587,272.303z"/>
					<path style="fill:#00B0C4;" d="M32.999,275.232l16.569,9.008c8.892,4.851,19.889,10.831,31.368,17.071l21.166,11.507       c11.518,6.262,22.556,12.263,31.475,17.095l17.064,9.277c5.612,3.051,3.725,4.293,13.482-17.444       c0.177-0.389,61.591-133.888,62.558-137.066c2.648-8.533-2.319-16.687-9.342-20.487c-9.047-4.885-16.199-7.682-18.757-18.837       c-1.527-6.681,1.793-14.762,5.323-19.854c5.141-7.418,4.01-18.266-3.409-22.61c-11.656-6.805-26.856-15.467-39.575-19.266       c-2.264-0.676-4.563-0.905-6.751-0.606c-3.767,0.497-7.178,2.503-9.398,6.299c-4.072,6.979-36.442,57.348-103.754,163.039       C27.134,274.173,26.652,271.781,32.999,275.232z"/>
					<path style="fill:#91D728;" d="M187.939,96.028c-3.53-1.919-14.107-8.461-27.089-12.426c-2.377-0.726-4.764-0.886-7.203-0.483       c-7.96,1.315-8.003,5.832-17.864,20.831c-3.799,5.778-7.56,11.574-11.165,17.477c-10.321,16.901-14.142,19.111-8.274,18.678       c5.372-0.397,11.34,2.874,11.916,8.796c0.799,8.209-5.707,17.65,1.874,25.871c2.149,2.33,4.83,3.22,7.939,2.486       c3.453-0.815,6.722-2.031,9.609-4.217c6.285-4.76,11.497-7.656,19.068-5.796c1.726,0.424,5.465,4.448,6.382,8.862       c2.249,10.827-1.528,11.936,2.466,21.916c1.561,3.9,6.055,5.798,10.702,4.848c7.901-1.614,10.933-7.683,17.141-11.889       c4.76-3.225,9.525-1.256,12.637,1.592c2.754,2.52,3.43,7.074,5.062,4.228c1.212-2.114,4.408-8.839,5.351-11.549       c3.173-9.122-2.273-17.565-9.562-21.296c-9.34-4.78-15.729-7.94-18.416-18.693c-0.967-3.87,0.425-12.961,4.851-18.93       c5.658-7.629,4.936-19.087-3.261-23.666c-4.032-2.253-8.109-4.424-12.167-6.63C187.936,96.034,187.937,96.031,187.939,96.028z"/>
					<path style="opacity:0.75;fill:#FFFFFF;" d="M173.584,283.991c27.236-58.945,41.711-84.264,34.992-85.792       c-3.303-0.751-7.584,8.538-8.782,10.577c-11.066,18.836-21.82,41.291-38.946,75.899c-2.065,4.173-9.479,15.175-2.908,18.884       C164.969,307.526,170.749,290.128,173.584,283.991z"/>
					<g style="opacity:0.35;">
						<path style="fill:#000E3F;" d="M49.568,284.24c8.892,4.851,19.889,10.831,31.368,17.071        c1.85-3.339,13.032-23.938,36.112-66.39c0.041,0.022,35.873-65.568,36.38-66.851c6.405-16.08-14.193-28.248-25.291-10.097        C75.789,243.495,55.095,273.914,49.568,284.24z"/>
						<path style="fill:#000E3F;" d="M137.885,246.682l0.134,0.073c-23.792,43.762-32.151,59.264-34.747,64.103        c0.081-0.181-0.134,0.152-1.083,1.801l-0.087,0.16c11.518,6.262,22.556,12.263,31.475,17.095        c6.641-14.221,58.047-124.025,63.336-134.964c3.423-7.124,2.715-15.819-4.044-19.978c-7.185-4.425-15.645-0.456-18.959,5.481        C172.765,182.496,175.08,178.267,137.885,246.682z"/>
					</g>
					<path style="opacity:0.25;fill:#000E3F;" d="M33.866,405.146c6.669,5.374,12.991,5.591,18.835,2.675       c-3.413-2.86-10.041-8.628-5.425-28.295c2.192-9.351,11.072-24.345,11.557-38.675c0.068-2.768,0.123-5.543-1.123-8.125       c-0.069-0.159-0.187-0.292-0.314-0.377c0.236,1.253-0.78,2.709-2.498,5.168C46.264,349.926,15.018,389.947,33.866,405.146z"/>
					<path style="opacity:0.25;fill:#000E3F;" d="M32.999,275.232c19.261,10.489,99.743,54.245,117.642,63.959       c3.127,1.7,3.932,2.83,5.697-0.226c6.606-57.59-105.224-45.436-42.928-141.01c44.572-68.386,43.606-102.687,40.76-114.933       c-3.767,0.497-7.178,2.503-9.398,6.299c-4.072,6.979-36.442,57.348-103.754,163.039       C27.134,274.173,26.652,271.781,32.999,275.232z"/>
				</g>
				<path style="fill:#000E3F;" d="M226.371,168.131c-2.859-3.976-6.96-6.183-10.926-8.318c-2.964-1.595-6.026-3.244-8.524-5.614      c-5.026-4.769-6.909-11.794-4.798-17.896c0.865-2.503,2.124-4.887,3.339-7.193c2.215-4.206,4.507-8.554,4.509-13.769      c0-6.548-3.076-12.404-8.028-15.282c-14.526-8.441-27.59-15.731-40.367-19.441c-5.866-1.701-11.279-0.677-16.081,3.045      c-2.038,1.576-41.232,63.153-77.811,120.746c-6.354,10.005-11.414,17.975-14.23,22.383l-4.423,6.925      c-4.816,7.537-9.795,15.331-14.659,23.019c-1.508,2.393-2.726,4.344-3.718,5.933c-4.22,6.766-4.222,6.767-5.165,6.401      c-0.121-0.046-0.254-0.096-0.406-0.146c-5.052-1.618-9.746-0.765-14.341,2.618c-7.223,5.317-10.836,12.42-10.738,21.113      c0.082,7.358,3.261,12.738,9.449,15.99h0.002c2.54,1.333,42.577,23.094,43.271,23.518c0.674,0.413,1.051,0.696,1.111,1.012      c0.101,0.525-0.596,1.442-1.98,3.27c-3.325,4.384-10.24,13.507-21.461,36.305c-2.175,4.418-4.482,9.727-5.114,15.593      c-1.156,10.743,5.023,22.684,17.36,24.071c0.865,0.097,1.707,0.144,2.531,0.144c14.355,0,22.417-14.32,28.963-25.951      c0.42-0.747,0.834-1.482,1.24-2.196c7.026-12.356,10.197-20.643,12.093-25.594c1.306-3.411,2.023-5.288,2.925-5.664      c0.289-0.123,0.634-0.091,1.068,0.101c1.664,0.782,34.415,18.604,43.269,23.517c6.637,3.683,13.011,3.345,19.492-1.03      c7.711-5.206,11.503-12.706,11.273-22.292c-0.107-4.368-1.898-8.078-5.327-11.028c-1.312-1.13-1.312-1.13-0.578-2.743      c1.365-2.99,6.669-14.643,13.695-30.077c18.209-39.991,48.68-106.924,50.738-111.361c0.588-1.267,1.172-2.48,1.738-3.653      C230.332,185.096,233.638,178.239,226.371,168.131z M48.28,349.745c2.95-4.477,5.393-7.806,7.176-10.237      c3.013-4.106,4.388-5.981,4.038-7.547c-0.287-1.29-1.697-2.181-4.62-3.77c-5.509-2.997-11.023-5.988-16.536-8.98      c-6.532-3.545-13.064-7.089-19.592-10.641c-0.812-0.442-1.628-0.867-2.433-1.287c-5.683-2.964-11.051-5.763-11.935-13.062      c-0.941-7.764,3.318-15.777,10.851-20.412c1.605-0.988,2.968-1.37,4.206-1.37c1.919,0,3.542,0.919,5.308,1.923      c0.353,0.199,0.709,0.401,1.074,0.599c34.606,18.815,58.746,31.942,75.993,41.322c41.482,22.559,43.101,23.439,54.546,29.588      c3.14,1.687,4.704,4.064,4.784,7.266c0.246,9.999-5.173,18.488-13.484,21.125c-4.931,1.566-8.955-0.579-13.216-2.845      l-0.875-0.464c-13.611-7.171-22.958-12.417-29.781-16.247c-10.455-5.867-13.976-7.844-15.87-7.12      c-1.017,0.387-1.465,1.507-2.035,3.169c-6.93,20.225-14.704,32.148-17.629,36.637c-0.488,0.747-0.81,1.241-0.968,1.532      c-2.121,3.898-4.78,7.68-8.129,11.561c-6.518,7.548-13.269,9.478-20.631,5.9c-5.296-2.574-8.33-6.946-8.768-12.642      c-0.572-7.405,4.464-17.83,7.473-24.059c0.598-1.24,1.115-2.31,1.521-3.21C41.578,360.191,45.155,354.492,48.28,349.745z       M217.475,201.396c-9.533,21.339-18.61,41.162-26.251,57.323c-0.035,0.074-0.299,0.674-0.713,1.617      c-1.296,2.943-3.993,9.069-5.792,13.008c-1.086,2.371-2.22,4.77-3.318,7.09c-1.097,2.32-2.232,4.719-3.318,7.094      c-1.353,2.954-22.714,49.953-22.966,50.746c-0.084,0.267-0.242,0.453-0.465,0.551c-0.272,0.122-0.639,0.095-0.992-0.069      c-1.037-0.481-2.042-1.01-3.23-1.656l-34.788-18.903c-82.986-45.093-82.986-45.093-84.212-45.907l-0.166-0.11      c-0.309-0.203-0.432-0.334-0.467-0.502c-0.154-0.737,1.197-2.799,4.808-8.308c1.467-2.239,3.326-5.075,5.651-8.681      L146.575,89.635c2.287-3.766,5.995-5.266,9.613-5.266c1.545,0,3.074,0.274,4.47,0.763c8.459,2.965,15.669,6.041,22.041,9.406      c18.028,9.519,20.925,11.657,22.13,16.351c1.715,6.674-0.267,10.14-2.775,14.53c-1.504,2.631-3.208,5.612-4.47,9.812      c-2.931,9.762,1.4,20.412,10.297,25.323c0.707,0.39,1.422,0.777,2.14,1.163c4.571,2.467,9.297,5.018,12.587,9.123      c6.069,7.572,3.195,13.423-2.021,24.043c-0.816,1.662-1.66,3.382-2.552,5.266C218.012,200.197,217.819,200.629,217.475,201.396z      "/>
			</g>
			<g>
				<g>
					<path style="fill:#91D728;" d="M246.357,120.403c-8.232-0.176-16.471,1.605-23.627,5.753c-3.109,1.802-5.975,4.004-8.568,6.489       c-0.604,0.578-1.136,1.263-1.57,1.978c-0.485,0.799,0.16,1.83,1.104,1.788c3.321-0.148,13.354-2.287,26.077,0.198       c3.103,0.606,9.087,2.827,14.752-0.935C261.985,130.718,258.541,120.663,246.357,120.403z"/>
					<path style="opacity:0.75;fill:#FFFFFF;" d="M247.256,130.769c2.076,0.579,4.668,0.892,5.55-1.036       c1.755-3.835-3.596-5.318-6.305-5.787c-9.131-1.58-21.122,2.122-17.796,5.946C230.339,131.77,237.756,128.118,247.256,130.769z       "/>
				</g>
				<path style="fill:#000E3F;" d="M257.074,137.277c-11.888,8.525-18.058-2.987-44.228,2.264c-0.823,0.165-1.7,0.314-2.517,0.205      c-1.773-0.237-2.704-1.867-2.006-3.521c4.719-11.196,23.935-18.666,35.526-18.729      C262.203,117.397,263.019,133.014,257.074,137.277z M244.033,121.563c-10.251-0.352-19.404,4.59-27.429,10.313      c-0.615,0.438-1.285,0.965-1.37,1.716c-0.331,2.902,9.395-0.701,25.559,1.931c4.836,0.787,10.093,1.932,14.064-1.737      C260.205,128.842,256.028,121.134,244.033,121.563z"/>
			</g>
			<g>
				<g>
					<path style="fill:#91D728;" d="M232.04,151.364c-0.481-0.043-0.97-0.022-1.454,0.005c-2.645,0.146-3.007,0.772-1.819,3.1       c4.702,9.219,10.159,22.786,21.14,18.832c7.333-2.64,7.387-12.255,0.923-15.806C249.767,156.912,242.76,152.324,232.04,151.364       z"/>
					<path style="opacity:0.75;fill:#FFFFFF;" d="M237.621,159.001c1.773,1.542,3.582,3.027,5.182,4.756       c1.54,1.666,3.306,5.331,6.109,4.422c4.001-1.297,1.653-8.229-5.172-10.57C239.735,156.236,235.594,157.238,237.621,159.001z"/>
				</g>
				<path style="fill:#000E3F;" d="M255.703,158.013c4.591,5.583,2.754,14.464-3.783,17.246      c-16.958,7.216-22.735-17.469-27.298-21.962c-5.716-5.628,10.808-4.465,12.857-4.157      C244.294,150.165,251.359,152.729,255.703,158.013z M231.079,152.698c-1.391-0.014-1.617,0.325-1.044,1.435      c4.915,9.521,6.168,13.004,10.797,16.678c3.152,2.501,8.468,2.388,11.111-0.136c2.884-2.755,3.209-7.2,0.519-10.133      C247.74,155.395,238.094,152.772,231.079,152.698z"/>
			</g>
		</g>
	</g>
</g>















</svg>
