<?xml version="1.0" encoding="UTF-8"?>
<!-- Generator: Adobe Illustrator 25.2.1, SVG Export Plug-In . SVG Version: 6.00 Build 0)  -->
<svg xmlns="http://www.w3.org/2000/svg" xmlns:xlink="http://www.w3.org/1999/xlink" version="1.1" id="Capa_1" x="0px" y="0px" viewBox="0 0 512 512" style="enable-background:new 0 0 512 512;" xml:space="preserve" width="512" height="512">
<g>
	<g>
		<g>
			<g>
				<path style="fill:#FD8A02;" d="M318.013,33.257c1.315,1.679,1.283,2.182-0.094,3.984c-7.02,9.188-9.591,14.93-10.397,16.172      c-2.563,3.95-3.275-0.96-8.709-6.17c-8.973-8.6-15.052-6.822-19.424-0.777c-4.86,6.719-5.095,19.62-4.45,27.855      c0.185,2.366,2.202,4.15,0.057,5.486c-0.92,0.573-1.988,0.514-2.769-0.264c-3.186-3.178,0.22-2.761-7.354-8.368      c-14.802-10.956-36.033-14.302-51.261-3.951c-2.39,1.625-4.39,3.726-5.331,0.703c-0.56-1.799-1.193-3.64-1.312-5.493      c-0.27-4.209-7.321-32.012-3.549-47.436c1.152-4.71,3.944-7.764,8.736-8.871C246.783-1.867,297.091,6.543,318.013,33.257z"/>
				<path style="fill:#FD8A02;" d="M338.875,440.782c-11.537,25.707-41.015,40.234-68.607,34.47      c-7.629-1.581-21.361-6.486-25.663-11.883c-1.032-1.282-0.464-2.856,1.174-3.141c8.395-1.494,37.909,4.749,72.498-13.302      c9.423-4.913,15.01-8.54,18.686-9.805C338.381,436.633,339.977,438.311,338.875,440.782z"/>
			</g>
			<path style="fill:#FF8EDE;" d="M324.148,143.461c-10.432,9.894-26.279,12.506-38.278,7.827c-3.659-1.426-1.953-1.055-3.965,6.919     c-8.045,31.889-51.578,43.732-67.338,14.935c-2.168-3.961-3.99-12.208-3.919-13.704c0.476-10.105,3.606-19.219,10.124-27.065     c3.249-3.911,1.654-2.351-4.598-7.689c-11.313-9.66-18.654-25.447-14.031-39.71c10.001-30.863,55.978-29,73.908,0.937     c3.096,5.17,2.826,8.072,5.118,6.819C318.492,72.323,353.798,115.34,324.148,143.461z"/>
			<g>
				<path style="fill:#FFCF00;" d="M321.059,365.358c7.969-6.033,15.369-12.849,21.77-20.529      c22.567-26.994,28.29-62.084,23.857-96.105c-4.791-36.832-14.626-75.601-37.391-105.688c-1.229-1.622-2.722,0.336-5.167,2.424      c-10.408,8.954-22.294,11.555-35.558,8.204c-4.032-1.024-3.923-0.959-4.697,2.881c-8.125,39.99-63.193,47.335-73.1,10.703      c-2.497-9.274-9.811-4.913-18.194-3.886c-25.712,3.127-50.254,3.896-76.791-0.498c-2.41-0.413-2.33,1.147-2.52,3.555      c-1.275,16.25-1.763,38.472-0.465,60.334c3.434,57.972,19.408,118.196,69.52,148.458c21.757,13.114,38.788,12.704,56.238,17.393      c20.891,5.583,36.747,32.457,15.146,48.149c-8.62,6.253-19.616,8.553-29.309,12.55c-14.372,5.925-30.504,14.805-39.157,27.757      c-3.32,4.948-5.912,11.811-1.464,15.871c34.989,31.899,198.086-5.421,223.899-54.461c6.178-11.712-12.061-19.156-25.164-21.21      c-22.877-3.593-46.29,2.298-50.96,2.645c-4.286,0.323-8.542,0.323-12.791-0.237c-10.036-1.325-17.582-9.692-19.392-17.355      C295.186,388.691,306.362,376.457,321.059,365.358z M318.277,446.927c9.423-4.913,15.01-8.54,18.686-9.805      c1.419-0.489,3.014,1.189,1.912,3.66c-11.537,25.707-41.015,40.234-68.607,34.47c-7.629-1.581-21.361-6.486-25.663-11.883      c-1.032-1.282-0.464-2.856,1.174-3.141C254.173,458.735,283.687,464.978,318.277,446.927z"/>
				<path style="fill:#FFCF00;" d="M233.488,3.253c28.927-1.309,66.332,7.418,84.314,29.716c3.281,4.068-0.451,1.749-9.902,19.799      c-3.448,6.587-3.401-3.509-15.813-10.31c-3.657-2.004-5.361,0.517-8.275-3.677c-3.779-5.439-3.775-7.659-4.572-10.25      c-0.901-2.927-1.264,1.166-10.851,5.889c-10.711,5.277-23.607,2.012-30.03-8.515c-0.524-0.859-0.968-1.777-1.577-2.569      c-0.733-0.953-0.329-2.855-1.869-2.945c-1.101-0.064-1.675,1.377-2.511,2.116c-5.497,4.859-9.337,9.376-20.9,11.072      c-2.138,0.314-4.267-0.018-6.371-0.442c-2.311-0.465-2.516-0.61-2.705-2.874c-0.409-4.907-0.362-9.8,0.868-14.614      c1.135-4.442,2.869-7.76,7.852-9.241C211.989,6.157,225.178,3.629,233.488,3.253z"/>
				<path style="fill:#FFCF00;" d="M219.508,131.358c-2.4,3.73-8.67,9.872-9.938,24.02c-0.4,4.113-0.276,3.816-8.096,4.801      c-2.388,0.288-0.926,1.633-22.095-41.316c-1.303-2.418-1.746-3.975,0.912-4.84c6.199-2.015,12.279-4.503,18.729-5.746      c1.201-0.248,2.528-0.733,3.319,0.777c2.975,5.585,5.77,9.504,8.235,12.338C217.125,128.913,221.245,128.67,219.508,131.358z"/>
				<path style="fill:#FFCF00;" d="M162.612,165.019c-9.088,0.22-18.169,0.178-27.221-0.783      c-23.258-2.582-21.546-3.396-20.374-6.624c3.889-10.767,19.117-22.377,30.682-28.491c3.407-1.804,2.092-2.407,17.919,31.426      C164.707,162.872,165.438,164.953,162.612,165.019z"/>
			</g>
			<path style="fill:#00B0C4;" d="M319.327,344.72c-25.427,24.801-65.459,36.182-99.764,26.432     c-8.874-2.53-17.105-6.337-24.596-11.187c-20.083-12.887-35.11-33.039-44.375-55.244c-7.733-18.504-14.688-52.576-18.222-81.288     l-0.013-0.053c0.013,0.053,13.303-22.574,20.976-22.955c6.82-0.317,29.041-7.974,56.05-7.757     c22.828,0.183,51.592,8.225,51.63,8.207c2.728-0.895,21.253-30.968,28.892-30.128c14.369,1.579,34.07,5.414,34.222,5.824     c1.59,4.002,3.158,8.066,4.673,12.217C348.056,241.062,361.162,303.908,319.327,344.72z"/>
			<g>
				<path style="fill:#91D728;" d="M171.573,164.561c-0.751,0.06-1.507,0.053-2.261,0.083c-2.68,0.107,1.017,6.417-47.151-95.356      c-6.025-12.73-11.924-25.521-18.136-38.159c-1.934-3.934-1.405-7.245,0.832-10.594c5.375-8.046,20.065-8.729,24.555,0.418      c78.065,159.031,66.356,134.376,67.279,136.75C198.101,161.327,198.987,162.389,171.573,164.561z"/>
				<path style="fill:#91D728;" d="M362.047,35.138c-3.049,16.398-17.35,40.771-37.92,54.949c-5.725,3.947-8.733-5.674-27.467-4.035      c-12.16,1.064-14.828,6.748-16.889,3.242c-0.955-1.625-1.905-3.267-2.103-5.203c-0.712-6.963-3.485-22.25,1.507-34.235      c2.245-5.39,7.445-8.416,12.693-5.825c6.414,3.167,9.844,9.103,12.7,13.087c2.561,3.574,2.516-0.899,8.458-10.161      c19.876-30.974,44.535-39.908,48.481-26.693C363.023,25.339,363.397,27.875,362.047,35.138z"/>
				<path style="fill:#91D728;" d="M195.181,223.081c-4.22-8.248-8.609-17.389-20.487-41.579c-1.755-3.573-1.593-3.814,2.481-4.146      c27.401-2.232,27.271-6.132,29.376-1.946c7.569,15.053,8.938,19.248,12.819,27.691c0.616,1.341,0.638,2.347-0.507,3.343      c-9.197,7.999-11.882,14.552-18.95,17.601C199.452,224.244,196.344,225.356,195.181,223.081z"/>
			</g>
			<g>
				<g>
					<path style="fill:#FC09B2;" d="M306.857,285.972c7.592,2.466,10.16,10.771,5.188,17.022       c-12.104,15.215-38.767,6.832-31.275-8.151C284.115,288.152,294.815,282.061,306.857,285.972z"/>
				</g>
				<g>
					<path style="fill:#FC09B2;" d="M199.734,313.096c-5.504,5.782-3.81,14.308,3.538,17.44       c17.886,7.621,37.347-12.44,23.628-22.052C220.772,304.19,208.463,303.925,199.734,313.096z"/>
				</g>
			</g>
			<g>
				<path style="fill:#FFFFFF;" d="M324.126,176.571c-1.813,0.255-3.224,0.407-3.813,0.427c-10.911,0.217-22.409,2.664-29.533,10.86      c-22.118,25.395-25.694,21.913-48.243,14.112c-6.493-2.246-13.889-1.422-17.815,0.634c-1.331,0.697-2.893,2.554-4.501,2.247      c-5.527-1.054-9.319-24.254-11.511-20.429c-14.388,25.016-20.297,23.111-18.464,26.829c6.296,12.68,7.667,13.689,3.958,14.164      c-8.583,1.114-18.319-3.354-27.65-6.585c-10.289-3.565-21.739,0.17-31.407,5.369c-0.968,0.506-2.176,1.313-2.581,0.152      c-0.066-0.187-0.142-0.484-0.195-0.916l-0.013-0.053c-1.231-10.003-2.051-19.33-2.336-27.138      c-0.499-13.199,10.212-20.372,19.676-19.033c5.836,0.808,13.155,0.943,20.828,0.562c3.942,3.164,7.652,8.786,12.668,18.983      c1.803,3.669,1.831,4.443,4.231,1.883c5.832-6.253,11.371-12.786,16.287-19.792c0.983-1.4,2.251-2.707,1.585-4.75      c-0.217-0.633,0.604-1.137,1.215-1.218c0.9-0.116,1.678-0.202,2.381-0.287c0.052-0.013,0.091-0.005,0.126-0.014      c1.769-0.206,2.948-0.319,3.801-0.33c0.297-0.001,0.537-0.006,0.752,0.032c0.856,0.081,1.207,0.364,1.672,0.878      c0.057,0.078,0.135,0.17,0.215,0.261c0.009,0.035,0.035,0.066,0.079,0.092c0.084,0.109,0.167,0.218,0.25,0.327      c0.488,0.676,1.085,1.566,1.839,2.564c0.145,0.204,0.29,0.41,0.452,0.61c0.311,0.423,0.658,0.837,1.031,1.282      c0.057,0.078,0.136,0.17,0.215,0.261c0.184,0.214,0.368,0.427,0.575,0.654c0.285,0.318,0.588,0.632,0.889,0.945      c0.176,0.179,0.351,0.358,0.548,0.549c0.193,0.174,0.386,0.348,0.582,0.54c1.166,1.08,2.528,2.129,4.078,3.111      c2.902,1.738,6.367,3.029,8.623,3.523c3.692,1.238,6.864,2.203,10.962,0.718c3.864-1.384,3.068,1.077,14.987-4.668      c1.662-0.804,2.067-1.137,2.247-1.182c2.608-1.516,4.954-3.336,7.058-5.449c0.318-0.285,0.627-0.605,0.919-0.921      c0.506-0.499,1.002-1.034,1.473-1.599c0.422-0.461,0.823-0.933,1.219-1.424c0.422-0.534,0.84-1.087,1.24-1.633      c0.179-0.25,0.362-0.482,0.523-0.727c7.258-10.314,6.316-18.29,7.471-20.626c0.034-0.083,0.074-0.149,0.113-0.214      c0.022-0.062,0.048-0.105,0.095-0.136c0.3-0.355,0.703-0.457,1.323-0.28c0.604,0.182,2.293,0.981,4.851,1.69      c0.241,0.069,0.499,0.134,0.739,0.203c0.258,0.064,0.499,0.134,0.752,0.181c0.04,0.009,0.057,0.005,0.079,0.017      c2.383,0.531,5.326,0.919,8.733,0.726c0.275-0.014,0.551-0.028,0.826-0.042c1.258-0.096,2.573-0.261,3.952-0.536      c1.328-0.262,2.682-0.419,3.996-0.733l0.105-0.027c0.698-0.177,1.384-0.407,2.065-0.727l0.301-0.132l0.105-0.027      c0.157-0.04,0.301-0.058,0.423-0.089c0.114,0.009,0.223,0,0.332-0.01c0.201-0.014,0.389-0.005,0.586,0.038      c0.118,0.026,0.219,0.056,0.341,0.1c0.039,0.008,0.083,0.035,0.109,0.065c0.543,0.383,0.648,1.825,1.417,1.63      c0.071,0.131,0.145,0.279,0.203,0.432c2.996,6.991,6.148,14.446,9.23,22.214C323.645,175.336,323.892,175.942,324.126,176.571z"/>
				<path style="fill:#FFFFFF;" d="M219.508,131.358c-2.4,3.73-8.67,9.872-9.938,24.02c-0.145,1.486,0.207,3.46-2.514,4.019      c-0.354,0.071-1.35,0.249-5.583,0.782c-2.11,0.255-0.999,1.777-17.396-31.707c0.157-0.485,0.597-0.876,1.474-1.154      c15.236-4.787,21.439-6.785,25.021-5.926C217.125,128.913,221.245,128.67,219.508,131.358z"/>
				<path style="fill:#FFFFFF;" d="M274.246,124.82c-4.304,9.252-15.222,16.341-24.899,11.427      c-6.884-3.495-7.901-15.826,3.425-24.137c3.865-2.836,8.132-4.337,13.037-3.735C273.168,109.277,277.95,116.857,274.246,124.82z      "/>
				<path style="fill:#FFFFFF;" d="M141.32,296.72c10.543,29.933,20.819,39.284,22.424,42.004c0.985,1.67,0.357,4.883-1.584,5.673      c-2.26,0.92-5.066-2.039-6.6-3.365c-16.467-14.244-28.639-53.535-32.275-75.667c-0.801-4.874-8.556-57.005-0.237-57.052      c0.895-0.005,1.257,0.732,1.606,1.391C126.087,212.402,125.701,252.374,141.32,296.72z"/>
				<path style="fill:#FFFFFF;" d="M162.612,165.019c-9.088,0.22-18.169,0.178-27.221-0.783c-0.19-0.602,0.231-1.433,0.789-2.095      c5.516-6.545,11.827-12.231,18.786-17.19c0.41-0.289,0.745-0.505,1.068-0.624c3.312,6.986,5.274,11.284,7.583,16.22      C164.707,162.872,165.438,164.953,162.612,165.019z"/>
				<path style="fill:#FFFFFF;" d="M175.58,118.942c-3.356,8.942-9.436,15.692-16.041,22.59c-0.951,0.993-2.117,1.747-2.738,0.519      c-6.657-13.172-2.192-0.977,13.818-29.398c0.37-0.657,0.704-1.336,1.107-1.971c0.38-0.598,1.139-0.607,1.548-0.014      c0.425,0.617,0.822,1.261,1.154,1.931C176.426,116.629,176.435,116.664,175.58,118.942z"/>
				<path style="fill:#FFFFFF;" d="M160.499,87.976c-2.825,8.04-7.245,15.391-15.311,23.505c-0.265,0.267-0.537,0.531-0.833,0.761      c-0.686,0.532-1.557,0.427-1.928-0.327c-5.859-11.914-1.46-1.254,12.631-29.037c0.612-1.206,0.84-3.157,2.263-3.192      c1.691-0.041,1.847,2.062,2.562,3.305C161.319,85.489,161.158,86.101,160.499,87.976z"/>
				<path style="fill:#FFFFFF;" d="M110.882,45.25c-0.841-2.862,2.023-2.903,8.763-14.191c2.517-4.215,3.504-8.84,5.647-13.143      c0.954-1.917,3.332,1.408,4.273,3.346c0.877,1.807,0.949,3.475,0.235,5.39c-3.799,10.194-7.906,16.195-14.346,23.646      c-0.754,0.872-1.625,0.775-2.138-0.184C112.369,48.349,111.518,46.533,110.882,45.25z"/>
				<path style="fill:#FFFFFF;" d="M143.976,54.205c-0.768,1.991-1.419,4.042-2.363,5.947c-3.249,6.559-7.315,12.588-12.145,18.092      c-0.743,0.846-1.855,1.642-2.474,0.696c-1.103-1.685-1.968-3.497-2.624-5.405c-0.656-1.907,1.121-2.299,9.228-13.874      c4.407-6.292,6.439-15.999,8.013-13.444C143.604,49.451,144.919,51.763,143.976,54.205z"/>
				<path style="fill:#FFFFFF;" d="M190.681,149.183c-2.125,3.87-3.773,6.75-6.57,10.06c-4.554,5.392-2.685,4.218-10.059,5.176      c-1.852,0.241-3.75,0.147-5.627,0.142c-0.644-0.002-1.654-0.882-0.668-1.865c3.135-3.127,11.47-9.005,18.794-20.379      c0.85-1.321,1.753-1.175,2.059-0.63C189.529,143.325,191.924,146.919,190.681,149.183z"/>
			</g>
			<g style="opacity:0.5;">
				<path style="fill:#FFFFFF;" d="M211.518,38.367c-1.752-28.251,8.843-31.801,9.865-26.25c0.469,2.548-0.25-0.573,2.214,18.317      c1.18,9.044,3.797,13.888,3.535,19.994c-0.184,4.279-2.792,9.24-7.758,7.021C212.844,54.531,211.954,45.39,211.518,38.367z"/>
				<path style="fill:#FFFFFF;" d="M266.267,89.695c1.178,1.713,1.674,3.66,1.955,5.644c0.361,2.543-1.919,4.582-4.474,4.204      c-2.512-0.372-3.147-1.995-8.343-7.321c-11.775-12.07-22.323-11.556-27.682-14.267c-2.452-1.241-2.605-3.37-0.459-5.032      C233.487,68.104,253.665,71.381,266.267,89.695z"/>
				<path style="fill:#FFFFFF;" d="M246.148,224.599c1.522,6.384-2.593,13.226-8.764,14.572c-6.397,1.395-12.805-2.66-14.332-9.071      c-1.469-6.167,2.498-12.771,8.593-14.305C237.932,214.213,244.644,218.287,246.148,224.599z"/>
				<path style="fill:#FFFFFF;" d="M184.389,272.313c1.522,6.384-2.593,13.226-8.764,14.572c-6.398,1.395-12.805-2.66-14.332-9.071      c-1.469-6.167,2.498-12.771,8.593-14.305C176.173,261.927,182.885,266.001,184.389,272.313z"/>
				<path style="fill:#FFFFFF;" d="M321.398,231.961c1.522,6.385-2.593,13.226-8.764,14.572c-6.398,1.395-12.805-2.66-14.332-9.071      c-1.469-6.167,2.498-12.771,8.593-14.305C313.182,221.575,319.894,225.649,321.398,231.961z"/>
				<path style="fill:#FFFFFF;" d="M318.287,198.21c1.193,5.005-2.033,10.368-6.871,11.423c-5.015,1.094-10.038-2.085-11.235-7.111      c-1.152-4.835,1.958-10.012,6.736-11.214C311.847,190.068,317.108,193.262,318.287,198.21z"/>
				<path style="fill:#FFFFFF;" d="M282.53,232.577c1.193,5.005-2.033,10.368-6.871,11.423c-5.015,1.094-10.038-2.085-11.235-7.111      c-1.151-4.835,1.959-10.012,6.736-11.214C276.089,224.435,281.35,227.629,282.53,232.577z"/>
				<path style="fill:#FFFFFF;" d="M217.472,252.359c1.193,5.005-2.033,10.368-6.87,11.423c-5.016,1.094-10.038-2.085-11.236-7.111      c-1.151-4.834,1.959-10.012,6.736-11.213C211.031,244.217,216.292,247.411,217.472,252.359z"/>
				<path style="fill:#FFFFFF;" d="M167.901,236.417c1.193,5.005-2.033,10.368-6.87,11.423c-5.016,1.094-10.038-2.085-11.236-7.111      c-1.151-4.835,1.959-10.012,6.736-11.214C161.461,228.276,166.722,231.469,167.901,236.417z"/>
				<path style="fill:#FFFFFF;" d="M349.965,26.491c-5.011,4.937-13.567,11.689-20.605,24.773c-1.285,2.388-2.312,5.35-4.095,7.607      c-2.324,2.941-6.222,0.638-5.855-2.423c1.858-15.485,21.234-34.246,29.954-34.282C351.024,22.158,352.086,24.402,349.965,26.491      z"/>
				<path style="fill:#FFFFFF;" d="M282.721,57.736c3.321-10.428,8.237-8.585,8.578-5.511c0.123,1.108,0.001,2.268-0.172,3.379      c-0.857,5.51-0.404,8.238-0.829,10.138c-0.553,2.474-2.879,4.078-5.333,3.029C281.267,67.188,281.728,60.854,282.721,57.736z"/>
			</g>
			<path style="opacity:0.5;fill:#FC09B2;" d="M236.482,113.788c1.865,10.314,0.202,35.038,13.494,38.538     c5.636,1.484,10.741,0.318,15.215-3.344c11.153-9.127,12.499-34.232,39.172-35.021c13.044-0.386,21.167,7.85,27.89,13.207     c4.866,3.878-12.349,30.719-41.417,25.596c-5.29-0.933-7.189-3.348-7.567-1.497c-0.378,1.848-0.61,3.729-1.047,5.561     c-8.962,37.543-59.296,45.367-70.116,9.912c-2.708-8.873-1.152-21.672,8.486-34.141c2.361-3.055,2.39-2.938-0.879-5.238     c-17.014-11.975-22.153-31.431-16.837-44.614c0.967-2.398,1.813-2.838,4.398-2.229C222.85,84.183,233.632,98.029,236.482,113.788     z"/>
			<path style="opacity:0.5;fill:#FD8A02;" d="M212.434,507.235c-2.178-0.312-12.165-2.22-13.659-2.838     c-0.827-0.342-1.077-0.985-0.655-1.841c1.416-2.873,3.434-5.278,5.965-7.21c33.711-25.732,76.188-15.29,93.335-29.397     c10.463-8.607,7.181-20.732,0.314-32.415c-9.756-16.598-15.358-51.733,10.533-58.161c0.639,0.294,0.41,0.712,0.018,1.275     c-1.256,1.803-12.423,11.713-9.188,28.613c1.609,8.407,9.581,17.11,19.72,18.417c10.926,1.409,18.703-0.787,22.064-1.303     c18.834-2.897,42.757-4.518,59.536,4.695c8.649,4.75,9.832,10.862,7.083,15.783c-10.943,19.587-44.648,36.68-65.883,44.312     C303.041,501.028,253.158,513.068,212.434,507.235z"/>
			<g style="opacity:0.25;">
				<path style="fill:#000E3F;" d="M319.327,344.72c-25.427,24.801-65.459,36.182-99.764,26.432      c-8.874-2.53-17.105-6.337-24.596-11.187c0.684-0.601,1.398-1.154,2.162-1.663c11.034-7.366,23.785-7.138,36.409-7.119      c22.74,0.041,48.027-2.049,67.91-14.76c23.817-15.23,30.806-42.164,29.349-69.134c-1.185-22.077-6.211-55.354-1.997-78.501      C348.056,241.062,361.162,303.908,319.327,344.72z"/>
				<path style="fill:#000E3F;" d="M185.64,163.176c-0.986,0.149-1.689-0.263-2.103-1.198      c-18.582-41.977-51.643-99.767-54.057-136.81c-0.038-0.581-0.247-1.385,0.613-1.532c0.524-0.089,0.803,0.476,1.028,0.93      c0.073,0.147,65.433,132.492,65.96,134.401c0.401,1.452,0.018,2.08-1.411,2.531C194.577,161.842,186.794,163.002,185.64,163.176      z"/>
				<path style="fill:#000E3F;" d="M274.981,79.815c-1.226,0.754-2.382,0.393-3.527-1.111c-1.809-2.38,0.057-2.616-6.9-7.746      c-15.715-11.591-28.038-8.355-25.329-10.96c2.923-2.813,14.388-5.813,23.551-9.895c12.014-5.351,20.572-16.81,21.045-33.518      c0.098-3.455-0.681-6.298,2.266-5.106c12.863,5.2,23.617,11.123,31.961,21.826c2.831,3.632-0.826,1.804-10.362,19.824      c-1.992,3.764-3.335,0.749-5.649-2.26c-14.617-19.006-29.853-8.433-27.07,23.468C275.188,76.874,276.76,78.722,274.981,79.815z"/>
				<path style="fill:#000E3F;" d="M328.209,63.18c9.511-4.335,17.906-10.153,24.762-18.108c3.496-4.055,5.798-8.768,7.839-13.66      c0.373-0.894,0.084-2.365,1.62-2.58c2.212,2.714-6.238,38.615-38.256,61.228c-3.706,2.618-5.104-0.076-11.846-2.359      c-8.225-2.786-18.7-2.669-28.267,1.763c-1.433,0.664-3.174,1.713-4.071,0.177c-2.925-5.011-3.984-9.606,0.749-12.984      C293.932,67.238,309.872,71.536,328.209,63.18z"/>
				<path style="fill:#000E3F;" d="M195.346,223.4c-6.9-13.462-7.168-13.755-6.401-15.742c2.273-5.889,2.359-12.012,1.976-18.197      c-0.18-2.91-0.948-5.688-1.64-8.49c-1.133-4.588-1.106-4.779,3.706-5.51c12.201-1.854,12.03-3.121,13.611,0.034      c5.985,11.941,8.701,18.82,12.794,27.662c0.628,1.355,0.558,2.341-0.572,3.325c-8.677,7.562-11.987,14.564-18.931,17.576      C199.432,224.258,196.357,225.372,195.346,223.4z"/>
			</g>
		</g>
		<g>
			<path style="fill:#000E3F;" d="M196.541,223.073c0.325,1.202-0.252,2.083-1.197,2.256c-2.525,0.463-3-1.037-5.974-7.266     c-17.026-35.672-13.656-28.761-18.012-38.18c-1.384-2.994,3.207-2.496,4.042-1.083c0.645,1.092-0.419-1.069,18.685,39.111     C194.947,219.725,195.811,221.539,196.541,223.073z"/>
			<path style="fill:#000E3F;" d="M221.77,201.982c0.436,1.467-0.877,3.399-2.241,3.476c-0.898,0.051-1.666-1.643-2.389-3.112     c-1.051-2.138-11.637-23.693-13.338-27.356c-0.392-0.845-0.011-1.46,0.859-1.696c3.339-0.907,2.096-1.582,16.178,26.857     C221.173,200.823,221.519,201.489,221.77,201.982z"/>
			<g>
				<path style="fill:#000E3F;" d="M396.613,421.8c-18.569-7.217-40.568-5.291-60.096-2.082c-6.417,1.058-12.478,2.056-19.378,0.262      c-15.538-4.039-21.839-25.631-6.436-41.081c4.888-4.904,9.098-8.613,13.246-11.671c72.098-53.142,52.021-147.842,8.358-225.634      c-1.201-2.14-0.043-2.537,0.923-4.378c14.558-27.553-7.422-42.295-7.104-44.281c0.094-0.572,1.306-1.219,2.499-2.055      c26.999-18.931,49.639-68.332,30.25-78.36c-15.661-8.094-36.719,18.216-38.18,18.216c-0.002,0-0.006,0-0.007,0      c-0.868-0.013-2.517-2.953-7.66-7.419c-17.523-15.215-51.43-27.049-91.277-22.224c-20.439,2.465-30.354,5.796-16.525,68.689      c0.346,1.577,0.087,2.748-0.864,3.914c-5.935,7.267-8.059,17.811-5.827,28.929c0.446,2.224,0.446,2.224-1.731,2.701      c-8.783,1.918-18.385,6.561-19.047,5.797c-2.21-2.509-9.367-18.32-45.019-90.645c-3.74-7.587-11.78-10.725-20.972-8.192      C102.82,14.75,97.011,24.2,101.24,32.639c0.42,0.863,42.525,89.528,43.464,92.625c-0.753,2.886-34.382,16.045-34.807,40.732      c-0.055,3.145-0.231,6.345-0.401,9.438c-0.144,2.589-0.291,5.265-0.367,7.901c-2.146,74.449,10.021,163.67,76.517,197.38      c37.027,18.771,69.831,7.264,74.992,37.387c2.355,13.74-8.439,21.039-17.908,24.741c-13.604,5.321-20.673,6.759-36.048,15.414      c-20.066,11.297-36.373,31.547-24.489,41.55C194.147,509.879,218.426,512,234.122,512c44.285,0,100.551-15.983,130.455-31.061      c13.549-6.833,37.571-20.831,46.209-37.808C415.692,433.483,406.74,425.738,396.613,421.8z M184.911,495.755      c-2.459-2.19-1.848-7.201-0.486-9.828c10.172-19.612,38.165-30.745,49.729-34.621c10.995-3.686,21.349-7.653,27.196-15.604      c8.532-11.597,5.412-28.115-7.104-37.602c-6.638-5.03-16.888-8.474-31.334-10.528c-39.224-5.574-68.513-28.29-87.052-67.519      c-19.018-40.238-22.531-89.418-22.132-123.589c0.095-8.153,0.479-23.831,1.315-30.879c0.076-0.632,0.265-0.835,1.02-0.835      c0.93,0,2.528,0.346,5.367,0.86c27.804,5.003,63.257,2.754,81.475-2.313c1.405-0.39,2.813-0.414,4.302-0.439      c0.194,0.056,1.119-0.181,1.216,1.053c2.264,28.149,44.009,42.124,68.199,11.924c6.224-7.772,7.524-13.746,9.279-20.154      c0.278-1.029,1.279-0.512,3.613,0.021c23.741,5.447,37.68-11.368,38.564-11.268c0.089,0.013,0.246,0.126,0.499,0.588      c36.216,66.318,60.274,149.651,8.252,204.365c-17.727,18.648-40.616,25.884-39.973,52.321      c0.257,10.635,9.788,21.529,20.392,23.311c10.662,1.794,12.575,0.353,33.369-2.24c10.868-1.357,31.369-2.578,46.598,4.492      c4.788,2.223,12.357,6.979,9.243,13.85C386.33,485.536,222.359,529.191,184.911,495.755z M194.875,159.649      c-4.809,1.58-19.217,2.991-24.139,3.286c-1.721,0.11-2.607-0.425-3.386-2.111c-0.426-0.922-55.376-117.563-61.572-129.815      c-2.416-4.778-0.681-10.107,4.215-12.961c4.438-2.587,12.672-3.184,16.067,0.889c2.739,3.281,21.248,41.72,40.719,81.545      C196.356,160.979,196.081,159.253,194.875,159.649z M300.459,84.175c-6.022,0-12.107,1.338-17.618,4.016      c-1.226,0.595-1.491,0.487-2.232-0.854c-2.776-5.06-6.069-37.228,4.839-42.186c5.994-2.724,13.258,5.966,16.818,11.506      c0.996,1.548,2.199,3.525,4.022,3.251c3.564-0.536,2.184-4.596,12.866-18.988c18.511-24.942,46.464-37.169,41.53-7.68      c-2.705,16.186-16.371,40.869-36.371,54.732C318.304,92.128,317.143,84.175,300.459,84.175z M306.946,51.076      c-0.314,0.555-0.842,1.486-1.129,1.508c-0.004,0.001-0.008,0.001-0.011,0.001c-0.432,0-1.481-1.584-3.237-3.709      c-9.701-11.745-21.806-12.764-26.977,1.411c-4.583,12.552-1.345,25.009-2.386,25.766c-1.643,0.326-12.829-16.69-38.583-16.69      c-18.631,0-23.859,10.487-24.863,6.958c-1.932-6.777-3.967-20.308-4.864-27.75c-0.829-6.861-3.352-27.743,5.74-30.083      c43.31-11.149,87.792,4.104,105.769,25.292C318.257,35.963,315.232,36.435,306.946,51.076z M277.06,91.985      c0.635,1.622,1.288,2.48,2.117,2.782c2.399,0.87,5.65-3.334,13.502-4.832c39.729-7.596,55.378,40.307,23.108,57.548      c-16.402,8.762-30.321,1.715-31.462,1.493c-1.22-0.235-2.442,0.516-2.764,1.667c-0.142,0.513-0.199,1.043-0.253,1.558      c-4.289,38.6-58.509,50.51-67.678,12.644c-1.543-6.353-1.383-5.085-0.655-10.397c2.408-17.538,11.687-21.576,11.245-24.921      c-0.369-2.781-6.686-3.367-14.665-14.545c-13.141-18.41-7.445-41.871,13.589-48.818      C243.808,59.342,269.004,71.404,277.06,91.985z M216.169,128.728c2.129,1.629,2.11,1.609,0.174,4.189      c-4.786,6.372-7.938,14.771-8.432,22.468c-0.125,1.918-1.177,2.312-3.379,2.7c-3.682,0.671-3.551,0.879-5.121-2.335      c-5.6-11.484-9.677-19.544-12.65-25.428c-7.355-14.544-7.066-14.088-4.813-14.919c1.991-0.742,1.979-0.983,8.59-3.077      c12.27-3.89,9.576-3.665,12.372,1.27C206.182,119.383,214.616,127.275,216.169,128.728z M149.648,134.795      c10.583,23.243,13.986,28.499,11.979,28.55c-24.965,0.641-38.937-2.559-41.689-2.872c-5.081-0.868-4.264-0.487-2.185-4.748      c4.934-10.138,22.667-22.786,28.373-24.792C147.725,130.368,148.049,131.267,149.648,134.795z"/>
				<path style="fill:#000E3F;" d="M265.141,282.882c-0.293,0.601-0.333,1.279-0.113,1.91c4.493,13.02-7.921,26.805-21.186,18.859      c-4.177-2.509-7.056-6.706-7.9-11.518c-0.564-3.224-5.5-2.404-4.928,0.86c1.87,10.694,11.173,17.942,20.826,17.942      c13.487,0,22.482-14.533,17.913-27.773C269.303,281.848,266.101,280.901,265.141,282.882z"/>
			</g>
			<g>
				<path style="fill:#000E3F;" d="M287.077,283.462c-4.809,1.136-9.836-1.956-11.093-6.725c-1.323-5.022,2.504-10.422,6.941-11.298      c4.789-0.945,9.917,2.004,11.127,6.733C295.299,277.048,292.064,282.284,287.077,283.462z"/>
				<path style="fill:#000E3F;" d="M215.936,301.476c4.77-1.289,7.72-6.401,6.556-11.193c-1.226-5.046-7.162-7.974-11.481-6.633      c-4.662,1.448-7.769,6.482-6.582,11.218C205.651,299.747,210.988,302.812,215.936,301.476z"/>
			</g>
		</g>
	</g>
</g>















</svg>
