<?xml version="1.0" encoding="UTF-8"?>
<!-- Generator: Adobe Illustrator 25.2.1, SVG Export Plug-In . SVG Version: 6.00 Build 0)  -->
<svg xmlns="http://www.w3.org/2000/svg" xmlns:xlink="http://www.w3.org/1999/xlink" version="1.1" id="Capa_1" x="0px" y="0px" viewBox="0 0 512 512" style="enable-background:new 0 0 512 512;" xml:space="preserve" width="512" height="512">
<g>
	<g>
		<g>
			<g>
				<path style="fill:#00B0C4;" d="M311.515,427.714c-3.417-0.504-5.381-0.307-7.147-3.849      c-19.504-39.104-35.202-85.304-46.299-127.394c-0.377-1.429-1.605-1.606-1.893-0.941c-1.257,2.908,10.693,57.311,8.871,126.938      c-0.088,3.365-0.483,6.722-0.535,10.086c-0.033,2.083-0.882,3.498-2.592,4.516c-14.475,8.61-30.015,17.634-57.214,22.767      c-43.258,8.163-91.375,2.435-125.134-25.29c-1.73-1.421-2.895-3.15-3.146-5.41c-0.424-3.812-7.276-43.061-8.876-96.29      c-2.639-87.846,2.58-124.926,7.651-183.31c0.705-8.109,1.827-0.134,35.498,5.565c28.241,4.78,60.087,4.632,88.297,1.522      c65.079-7.174,131.566-39.891,157.797-65.73c4.065-4.004,5.653-5.893,7.731-2.351c41.799,71.238,87.021,168.469,110.107,253.557      c1.281,4.72,1.79,6.548-0.227,10.617c-16.994,34.274-53.651,57.253-90.776,68.949      C361.759,428.552,335.611,431.266,311.515,427.714z"/>
				<g>
					<path style="fill:#FFFFFF;" d="M168.945,401.621c-33.071-1.162-62.205-4.871-94.088-14.393       c-3.023-0.903-4.248-2.508-4.429-5.486c-0.692-11.388-1.891-15.649-3.382-61.8c-0.059-1.832,0.785-2.458,2.63-2.038       c4.795,1.091,9.604,4.111,36.212,8.169c33.242,5.07,74.761,5.37,106.192,2.464c45.53-4.21,46.743-7.585,47.491-4.091       c2.382,11.12,4.98,50.666,5.423,66.203c0.076,2.652-0.216,3.026-2.993,3.676C244.411,398.442,205.091,402.89,168.945,401.621z"/>
					<path style="fill:#FFFFFF;" d="M287.265,385.771c-9.659-24.132-18.333-50.644-20.597-58.858       c-1.282-4.653-2.4-5.532,3.663-6.923c20.83-4.779,57.558-16.795,90.673-32.138c75.292-34.884,75.99-54.221,79.649-45.199       c13.777,33.971,20.147,53.88,21.482,57.598c0.968,2.693,0.35,4.662-1.883,6.415c-8.428,6.615-22.958,20.073-55.982,38.363       c-30.385,16.829-65.351,30.897-92.757,38.143C289.018,389.121,288.852,389.734,287.265,385.771z"/>
				</g>
				<g>
					<path style="fill:#91D728;" d="M346.302,59.005c2.642,2.958,2.844,3.688,12.849,20.63c1.269,2.149,2.568,3.771,0.572,5.694       c-2.311,2.227-4.517,4.568-6.887,6.735c-62.955,57.567-176.755,78.755-258.293,57.78c-6.082-1.565-14.16-4.651-16.812-6.079       c-1.035-0.557-1.58-1.424-1.485-2.625c0.226-2.851,1.872-17.133,2.943-22.755c1.87-9.812,7.049-17.063,17.04-20.321       c24.31-7.927,35.78-10.324,43.742-12.023C339.778,43.408,334.185,45.439,346.302,59.005z"/>
					<path style="fill:#91D728;" d="M79.729,434.677c-3.573-2.923-3.751-3.576-8.187-42.578c-1.93-16.98-4.393-6.501,41.83,1.823       c37.268,6.711,77.219,7.346,112.453,4.068c39.027-3.631,39.186-7.838,39.333-1.28c0.328,14.648-0.119,29.003-0.623,35.769       c-0.169,2.278-1.139,3.66-2.919,4.815C211.173,470.006,128.65,474.702,79.729,434.677z"/>
					<path style="fill:#91D728;" d="M308.511,427.268c-1.798-0.248-3.012-1.136-3.859-2.828       c-4.216-8.431-14.78-31.163-15.543-34.246c-1.214-4.9,3.695-0.946,46.26-16.304c41.958-15.14,92.105-39.985,123.857-70.765       c3.434-3.327,3.127-3.021,8.606,15.124c9.059,30.001,8.846,29.697,6.786,33.982       C452.958,397.276,384.793,437.798,308.511,427.268z"/>
				</g>
				<path style="fill:#FC09B2;" d="M279.142,324.062c-11.804,2.467-12.18,3.197-13.234-0.198      c-8.068-25.981-7.26-29.266-9.319-28.617c-1.478,0.466-0.452-0.553,3.222,30.128c0.231,1.927-0.385,2.768-2.447,3.203      c-53.958,11.38-128.355,12.239-181.613-2.551c-2.062-0.573-4.065-1.361-6.126-1.94c-2.358-0.663-2.572-2.338-2.607-4.742      c-0.286-19.477-0.137-55.07,0.34-60.578c0.679-7.842,9.15,5.443,85.35,6.59c99.759,1.502,199.226-35.668,255.321-77.651      c5.025-3.761,6.151-4.507,7.45-1.926c7.925,15.744,24.864,56.016,24.944,56.201c0.911,2.105,0.626,3.859-1.181,5.312      c-4.056,3.261-8.011,6.659-12.195,9.747c-43.257,31.93-106.741,58.167-147.955,66.779      C279.108,323.901,279.125,323.982,279.142,324.062z"/>
				<g style="opacity:0.25;">
					<path style="fill:#000E3F;" d="M305.861,425.762c-0.115-0.969,0.721-1.251,6.062-4.479       c35.589-21.51,65.914-60.516,73.209-104.979c12.384-75.484-24.623-112.719-8.049-197.606c0.25-1.28,0.544-3.416,1.491-3.631       c3.012-0.682,71.635,132.723,93.069,216.302c3.478,13.564,5.577,15.804,2.634,21.639       c-17.368,34.429-53.919,57.155-90.525,68.628C364.714,427.602,306.52,431.307,305.861,425.762z"/>
					<path style="fill:#000E3F;" d="M93.176,444.226c-0.522-0.294-1.097-0.711-0.999-1.405c0.35-2.47,11.757,1.313,41.819-6.06       c96.743-23.727,74.279-121.832,118.876-141.901c2.177-0.98,2.678-0.344,2.953,1.729c0.602,4.544,1.933,8.982,1.941,13.62       c0,0.226,10.672,68.911,6.791,121.668c-0.192,2.608-1.069,4.245-3.205,5.598C212.635,468.352,143.846,472.71,93.176,444.226z"/>
					<path style="fill:#000E3F;" d="M338.242,52.69c1.128,0.68,1.137,1.004,0.129,2.062       c-34.575,36.286-188.698,76.125-252.596,52.814c-2.84-1.036,1.129-4.635,3.675-6.271c7.223-4.641,33.336-11.672,48.072-14.768       C301.236,52.134,326.831,45.815,338.242,52.69z"/>
				</g>
				<g style="opacity:0.5;">
					<path style="fill:#FFFFFF;" d="M91.989,183.819c0.502-4.293,0.869-8.996,3.903-8.931c4.494,0.097,4.869,8.18,5.599,11.491       c1.484,6.729,7.81,54.651,8.193,57.908c1.685,14.306,6.384,48.669-3.09,62.496c-2.84,4.134-9.198,7.34-13.26,3.121       c-1.835-1.906-3.217-4.091-3.772-6.726C82.785,270.944,88.17,216.496,91.989,183.819z"/>
					<path style="fill:#FFFFFF;" d="M89.778,132.618c-2.969-1.535-3.699-5.193-1.055-5.976c4.335-1.285,30.538,8.04,80.799,4.085       c3.346-0.263,6.717-0.249,10.078-0.284c7.161-0.075,9.771,7.03,3.886,9.823C171.818,145.806,112.781,144.509,89.778,132.618z"/>
					<path style="fill:#FFFFFF;" d="M263.543,124.219c-7.438,0.384-8.862-6.263-4.605-9.232c2.131-1.486,4.44-2.682,6.903-3.581       c53.406-19.513,66.312-32.429,76.317-37.478c2.36-1.191,4.837,1.031,3.475,3.67       C338.083,92.238,279.616,123.389,263.543,124.219z"/>
				</g>
			</g>
			<path style="fill:#000E3F;" d="M476.792,335.55c-27.665-89.839-55.272-156.652-122.745-271.454     C340.1,40.363,323.4,47.511,311.467,48.063c-14.764,0.683-54.601,9.955-72.152,13.607     C98.488,90.965,79.228,90.992,75.499,119.329C57.438,256.566,62.716,378.183,71.26,418.099c0.574,2.682-1.02,14.251,11.853,23.64     c40.495,29.536,112.607,35.824,171.009,4.214c6.693-3.621,10.893-6.301,12.758-12.443c3.926-12.929,0.981-64.904-0.368-79.136     c-2.643-27.88-2.494-21.084-2.309-23.17c1.59,3.119,14.363,49.046,34.196,88.476c3.768,7.492,9.653,11.771,18.395,12.454     c41.995,3.281,79.499-6.596,112.574-27.338c27.732-17.391,37.776-34.248,43.444-42.196     C478.808,354.191,479.767,345.209,476.792,335.55z M78.019,139.685c2.385-19.418,1.977-31.652,14.381-38.177     c11.825-6.22,65.645-18.263,72.586-19.353c61.919-9.724,119.562-28.715,161.804-30.337c16.418-0.63,22.205,13.695,31.361,29.053     c1.078,1.809,1.103,2.634-0.291,4.113c-25.648,27.217-69.721,44.514-103.804,56.493c-2.637-10.665-7.251-20.605-14.932-27.952     c-2.295-2.197-5.035-3.434-8.015-4.263c-2.106-0.586-3.528,0.933-3.445,2.53c0.152,2.983,4.385,1.663,9.02,6.493     c7.064,7.363,10.408,15.859,12.339,24.915c-12.703,4.172-28.742,7.411-46.168,9.469c-1.461-8.149-1.268-14.756-0.489-20.331     c1.634-11.7,6.213-12.681,7.408-15.35c0.869-1.942-1.628-4.093-3.565-2.768c-2.041,1.398-3.816,3.094-4.984,5.299     c-1.799,3.399-3.144,6.965-3.776,10.787c-1.437,8.694-1.095,16.134,0.112,22.946c-41.212,4.239-88.756,1.937-117.491-10.068     C78.009,142.324,77.747,141.899,78.019,139.685z M469.469,358.533c-25.744,42.527-88.212,74.57-154.309,68.013     c-5.425-0.539-8.979-3.442-11.468-8.062c-22.14-41.106-42.986-118.995-44.652-123.642c-1.124-3.135-5.015-1.983-4.643,1.022     c4.135,33.412,9.521,68.17,9.194,116.499c-0.016,2.455-0.294,13.626-0.668,16.053c-0.744,4.833-3.1,8.496-7.481,10.913     c-51.956,28.671-121.257,31.333-168.312-0.913c-10.468-7.173-10.41-13.771-14.225-48.988     c-8.389-77.46-4.132-159.295,3.523-236.463c1.29-13.007,0.037,4.423,69.883,7.204c19.321,0.77,36.447,0.178,52.378-1.598     c3.455,14.003,9.831,25.847,10.223,41.635c0.394,15.849-3.505,33.007-17.571,40.231c-1.144,0.588-3.955,1.69-3.034,3.865     c0.469,1.108,1.83,1.839,3.432,1.514c0.706-0.336,1.832-0.818,2.905-1.396c7.072-3.804,11.524-9.921,14.782-17.017     c8.363-18.212,4.537-40.586-2.364-59.493c-1.299-3.557-2.301-6.872-3.077-9.991c16.12-2.103,31.096-5.456,45.937-9.911     c2.285,13.998,2.245,29.062,7.893,43.22c6.257,15.682,18.182,30.716,34.841,32.532c1.532,0.167,3.057,0.343,4.563,0.01     c2.406-0.53,2.382-3.819,0.359-4.465c-2.492-0.798-10.276-0.128-18.353-6.406c-15.193-11.808-21.224-32.428-22.306-51.483     c-0.282-4.975-0.856-10.033-1.798-15.003c7.039-2.235,14.079-4.702,21.236-7.406c29.957-11.324,60.823-25.941,83.669-48.933     c2.065-2.079,2.318-2.243,3.873,0.536c13.172,23.531,29.582,52.12,50.484,96.405c30.783,65.222,50.577,123.365,58.097,154.393     C473.974,347.559,472.727,353.151,469.469,358.533z"/>
			<g>
				<path style="fill:#FC09B2;" d="M271.503,196.585c7.23-1.9,15.115,3.139,16.907,11.055c1.78,7.861-3.71,15.655-11.401,17.212      c-7.65,1.548-15.756-3.877-17.245-11.419C258.394,206.494,263.382,197.468,271.503,196.585z"/>
				<path style="fill:#FC09B2;" d="M193.026,227.585c-2.262-6.484,2.774-15.683,11.223-17.02c7.6-1.203,15.174,3.348,16.781,10.683      c1.787,8.158-3.235,16.006-11.347,17.65C202.723,240.31,194.024,235.811,193.026,227.585z"/>
			</g>
		</g>
		<g>
			<g>
				<path style="fill:#FD8A02;" d="M443.745,135.644c-2.436-0.365-4.157-0.537-5.84-0.892c-5.59-1.181-8.901-4.814-9.807-10.552      c-0.728-4.608,0.307-8.983,1.608-13.338c0.552-1.849,1.255-3.678,1.562-5.57c0.868-5.345-2.453-9.216-7.889-9.311      c-2.613-0.046-5.108,0.673-7.59,1.407c-3.209,0.949-3.724,0.322-4.508-1.018c-0.937-1.602-0.168-3.557,2.088-4.765      c5.064-2.711,10.472-4.3,16.056-2.014c8.275,3.387,11.858,11.567,8.978,20.25c-1.161,3.503-2.164,7.001-2.414,10.666      c-0.3,4.402,0.831,5.802,5.193,6.587c2.115,0.381,4.279,0.479,6.407,0.797c3.697,0.554,7.133,1.837,9.802,4.52      c4.033,4.054,5.074,8.953,3.1,14.283c-1.359,3.669-2.324,7.391-2.732,11.26c-0.476,4.508,0.561,5.827,5.202,6.09      c2.995,0.169,6.02-0.015,9.021-0.209c1.847-0.119,3.381,0.361,4.755,1.537c1.47,1.26,1.476,3.279,0.002,4.445      c-1.204,0.952-2.548,1.704-4.063,1.868c-4.274,0.463-8.574,1.033-12.857,0.246c-7.176-1.319-10.723-5.946-10.402-13.202      c0.173-3.905,1.075-7.651,2.165-11.37c0.181-0.616,0.52-1.184,0.726-1.795c2.108-6.271,0.631-8.619-6.086-9.653      C445.157,135.749,444.079,135.68,443.745,135.644z"/>
				<path style="fill:#FD8A02;" d="M40.18,436.297c-2.387-0.608-4.082-0.952-5.721-1.474c-5.443-1.736-8.373-5.683-8.699-11.483      c-0.262-4.658,1.207-8.906,2.938-13.109c0.735-1.784,1.618-3.534,2.114-5.385c1.401-5.231-1.515-9.415-6.914-10.056      c-2.595-0.308-5.15,0.157-7.693,0.638c-3.288,0.622-3.738-0.053-4.384-1.465c-0.771-1.688,0.19-3.556,2.556-4.531      c5.31-2.189,10.851-3.228,16.177-0.392c7.893,4.201,10.637,12.699,6.901,21.049c-1.507,3.369-2.856,6.749-3.472,10.37      c-0.74,4.349,0.244,5.856,4.505,7.075c2.066,0.591,4.209,0.906,6.294,1.436c3.623,0.923,6.913,2.544,9.299,5.481      c3.606,4.439,4.15,9.417,1.651,14.522c-1.721,3.514-3.054,7.121-3.849,10.929c-0.926,4.437-0.027,5.853,4.565,6.581      c2.963,0.469,5.991,0.589,8.996,0.698c1.85,0.067,3.328,0.698,4.577,2.007c1.336,1.401,1.139,3.41-0.445,4.423      c-1.293,0.827-2.707,1.44-4.231,1.451c-4.299,0.031-8.635,0.167-12.816-1.046c-7.008-2.032-10.072-6.992-9.025-14.179      c0.564-3.868,1.838-7.505,3.295-11.095c0.241-0.595,0.636-1.126,0.902-1.713c2.727-6.028,1.493-8.512-5.086-10.215      C41.574,436.543,40.509,436.366,40.18,436.297z"/>
				<path style="fill:#FD8A02;" d="M33.144,142.091c-1.692-1.79-2.942-2.987-4.047-4.304c-3.672-4.376-4.038-9.279-1.213-14.354      c2.268-4.076,5.781-6.882,9.491-9.508c1.575-1.115,3.256-2.122,4.665-3.421c3.98-3.672,3.752-8.768-0.468-12.195      c-2.028-1.647-4.437-2.62-6.842-3.573c-3.111-1.232-3.13-2.043-2.921-3.581c0.25-1.839,2.061-2.904,4.582-2.464      c5.658,0.989,10.895,3.072,13.882,8.316c4.425,7.769,2.201,16.418-5.421,21.478c-3.074,2.042-6.021,4.177-8.478,6.908      c-2.95,3.28-2.924,5.08,0.025,8.387c1.43,1.604,3.073,3.016,4.552,4.579c2.569,2.716,4.483,5.845,4.929,9.602      c0.675,5.679-1.526,10.177-6.367,13.155c-3.333,2.05-6.387,4.385-9.095,7.179c-3.155,3.255-3.152,4.933,0.34,8.002      c2.253,1.98,4.748,3.701,7.23,5.399c1.528,1.045,2.439,2.369,2.795,4.142c0.381,1.898-0.86,3.491-2.74,3.501      c-1.535,0.007-3.057-0.23-4.351-1.036c-3.65-2.271-7.387-4.474-10.273-7.735c-4.836-5.464-4.774-11.293-0.047-16.808      c2.544-2.968,5.565-5.36,8.716-7.616c0.522-0.374,1.14-0.611,1.678-0.965c5.527-3.636,5.812-6.396,1.162-11.352      C34.191,143.044,33.385,142.325,33.144,142.091z"/>
				<path style="fill:#FD8A02;" d="M395.58,459.29c0.608-2.387,0.952-4.083,1.474-5.721c1.735-5.443,5.683-8.373,11.482-8.7      c4.657-0.262,8.906,1.206,13.109,2.937c1.784,0.735,3.534,1.617,5.385,2.113c5.231,1.4,9.415-1.516,10.055-6.915      c0.308-2.595-0.158-5.15-0.638-7.693c-0.622-3.288,0.053-3.738,1.465-4.384c1.687-0.771,3.556,0.189,4.531,2.555      c2.189,5.31,3.229,10.85,0.394,16.177c-4.2,7.893-12.698,10.638-21.049,6.902c-3.369-1.507-6.749-2.855-10.37-3.471      c-4.35-0.74-5.856,0.245-7.075,4.506c-0.591,2.065-0.906,4.209-1.436,6.295c-0.922,3.623-2.543,6.913-5.48,9.299      c-4.439,3.606-9.417,4.151-14.521,1.652c-3.514-1.72-7.121-3.053-10.93-3.848c-4.437-0.926-5.854-0.026-6.581,4.565      c-0.469,2.963-0.589,5.991-0.697,8.996c-0.067,1.85-0.698,3.328-2.006,4.577c-1.401,1.337-3.41,1.139-4.423-0.444      c-0.827-1.293-1.44-2.706-1.451-4.23c-0.032-4.299-0.168-8.635,1.045-12.816c2.032-7.008,6.991-10.073,14.178-9.026      c3.868,0.563,7.505,1.837,11.095,3.294c0.595,0.241,1.126,0.636,1.713,0.902c6.028,2.727,8.512,1.492,10.215-5.087      C395.335,460.684,395.512,459.619,395.58,459.29z"/>
			</g>
			<g>
				<path style="fill:#00B0C4;" d="M512,240.975c0,7.773-6.302,14.075-14.075,14.075c-7.773,0-14.075-6.302-14.075-14.075      c0-7.773,6.302-14.075,14.075-14.075C505.698,226.901,512,233.202,512,240.975z"/>
				<path style="fill:#FC09B2;" d="M197.213,36.056c0,7.773-6.301,14.075-14.075,14.075s-14.075-6.302-14.075-14.075      c0-7.773,6.302-14.075,14.075-14.075S197.213,28.282,197.213,36.056z"/>
				<path style="fill:#91D728;" d="M28.15,291.615c0,7.773-6.302,14.075-14.075,14.075S0,299.388,0,291.615      c0-7.773,6.302-14.075,14.075-14.075S28.15,283.841,28.15,291.615z"/>
			</g>
		</g>
	</g>
</g>















</svg>
