<?xml version="1.0" encoding="UTF-8"?>
<!-- Generator: Adobe Illustrator 25.2.1, SVG Export Plug-In . SVG Version: 6.00 Build 0)  -->
<svg xmlns="http://www.w3.org/2000/svg" xmlns:xlink="http://www.w3.org/1999/xlink" version="1.1" id="Capa_1" x="0px" y="0px" viewBox="0 0 512 512" style="enable-background:new 0 0 512 512;" xml:space="preserve" width="512" height="512">
<g>
	<g>
		<g>
			<g>
				<g>
					<path style="fill:#91D728;" d="M388.752,401.487c0.146,0.367,0.316,0.724,0.505,1.087       c12.997,24.153,84.789,18.096,86.599,5.077c0.022-0.188,0.031-0.371,0.028-0.548c0.157-5.655-9.759-9.848-13.779-11.939       c-20.444-10.6-47.399-13.97-69.052-2.393C388.345,395.291,387.555,398.444,388.752,401.487z"/>
					<path style="fill:#91D728;" d="M418.473,359.425c17.11,7.655,37.411,7.002,55.366,2.997c9.02-2.029,23.703-6.805,21.043-12.466       c-0.311-0.687-0.903-1.402-1.809-2.12c-27.907-21.818-77.131-7.918-80.196,4.169       C412.189,354.712,413.806,357.319,418.473,359.425z"/>
					<path style="fill:#91D728;" d="M434.229,311.02c13.647,16.374,58.497,9.724,73.814-0.661c1.373-0.908,1.805-2.737,1.215-4.279       c-0.191-0.526-0.516-1.024-0.955-1.429c-14.67-13.737-55.198-15.146-73.621-0.24c-1.153,0.926-1.645,2.331-1.573,3.72       C433.164,309.184,433.542,310.221,434.229,311.02z"/>
					<path style="fill:#91D728;" d="M449.343,262.941c0.141,0.27,0.31,0.546,0.507,0.813c7.283,9.791,40.904,6.179,54.252-7.858       c1.807-1.897,1.439-5.032-0.488-6.518c-0.131-0.102-0.263-0.204-0.406-0.302C488.712,238.492,443.25,251.373,449.343,262.941z"/>
					<path style="fill:#91D728;" d="M464.096,220.756c17.225,0.738,47.493-21.258,39.231-26.33       c-0.637-0.402-1.509-0.688-2.633-0.868c-10.838-1.555-22.12,2.697-30.667,9.211c-2.698,2.058-10.491,9.493-10.991,14.15       C458.807,219.041,460.095,220.581,464.096,220.756z"/>
					<path style="fill:#91D728;" d="M421.994,214.043c3.959,11.116,12.604,20.059,22.594,26.066c3.782,2.28,7.167,2.447,8.523-0.224       c1.179-2.273,0.914-6.594-1.776-13.414c-2.397-6.47-6.122-12.629-10.139-17.843c-9.261-12.044-18.082-14.82-20.618-9.051       C419.322,202.386,419.567,207.24,421.994,214.043z"/>
					<path style="fill:#91D728;" d="M420.07,276.31c4.898,7.236,12.259,13.355,15.874,15.004c0.908,0.403,2.565-0.322,2.822-1.014       c2.372-6.532,1.286-14.018-0.381-20.57c-4.9-19.332-20.514-45.173-30.753-41.556c-0.36,0.125-0.695,0.286-0.98,0.474       c-2.311,1.468-2.531,4.585-2.464,7.201C404.643,252.505,411.826,264.094,420.07,276.31z"/>
					<path style="fill:#91D728;" d="M385.081,297.341c6.806,12.218,19.74,28.128,32.003,33.561c2.226,0.98,3.793,0.425,4.825-0.848       c1.063-1.311,1.582-3.366,1.728-5.293c0.927-13.565-6.59-28.869-13.438-40.02c-4.686-7.657-10.362-14.781-17.181-20.67       c-7.117-6.165-17.173-13.078-20.262-8.177c-0.536,0.849-0.847,2.057-0.913,3.687       C371.455,271.571,379.397,287.142,385.081,297.341z"/>
					<path style="fill:#91D728;" d="M399.347,376.358c0.148-0.259,0.288-0.545,0.428-0.83c2.74-6.032,0.508-16.399-0.546-22.215       c-2.885-15.807-9.729-29.851-19.326-42.618c-7.252-9.645-21.265-26.191-26.907-16.869c-0.187,0.271-0.349,0.577-0.503,0.91       c-2.856,5.84-0.093,16.727,1.393,23.25C361.359,351.055,395.078,383.76,399.347,376.358z"/>
					<path style="fill:#91D728;" d="M338.302,402.036c5.277,10.31,15.688,25.02,23.636,30.873c2.491,1.838,4.27,0.078,5.509-2.969       c2.044-4.962,2.697-13.37,2.828-15.206c1.235-16.723-3.582-34.727-10.626-50.02c-3.897-8.471-12.255-27.562-22.031-31.212       c-2.34-0.887-4.394-0.71-6.136,0.341C322.211,339.483,322.285,370.506,338.302,402.036z"/>
				</g>
				<g style="opacity:0.25;">
					<path style="fill:#000E3F;" d="M388.752,401.487c0.146,0.367,0.316,0.724,0.505,1.087       c12.997,24.153,84.789,18.096,86.599,5.077c0.022-0.188,0.031-0.371,0.028-0.548       C447.827,395.775,406.909,399.179,388.752,401.487z"/>
					<path style="fill:#000E3F;" d="M418.473,359.425c17.11,7.655,37.411,7.002,55.366,2.997c9.02-2.029,23.703-6.805,21.043-12.466       c-24.686-0.999-63.466,0.9-82.004,2.049C412.189,354.712,413.806,357.319,418.473,359.425z"/>
					<path style="fill:#000E3F;" d="M434.229,311.02c13.647,16.374,58.497,9.724,73.814-0.661c1.373-0.908,1.805-2.737,1.215-4.279       c-29.636,1.198-60.555,1.796-76.148,2.051C433.164,309.184,433.542,310.221,434.229,311.02z"/>
					<path style="fill:#000E3F;" d="M449.343,262.941c0.141,0.27,0.31,0.546,0.507,0.813c7.283,9.791,40.904,6.179,54.252-7.858       c1.807-1.897,1.439-5.032-0.488-6.518c-0.131-0.102-0.263-0.204-0.406-0.302C482.823,251.395,460.31,258.915,449.343,262.941z"/>
					<path style="fill:#000E3F;" d="M464.096,220.756c17.225,0.738,47.493-21.258,39.231-26.33       c-25.384,9.247-38.571,17.991-44.291,22.493C458.807,219.041,460.095,220.581,464.096,220.756z"/>
					<path style="fill:#000E3F;" d="M421.994,214.043c3.959,11.116,12.604,20.059,22.594,26.066c3.782,2.28,7.167,2.447,8.523-0.224       c-9.378-14.915-24.112-31.353-32.533-40.308C419.322,202.386,419.567,207.24,421.994,214.043z"/>
					<path style="fill:#000E3F;" d="M420.07,276.31c4.898,7.236,12.259,13.355,15.874,15.004c0.908,0.403,2.565-0.322,2.822-1.014       c-6.366-17.112-23.633-47.245-32.113-61.653c-2.311,1.468-2.531,4.585-2.464,7.201       C404.643,252.505,411.826,264.094,420.07,276.31z"/>
					<path style="fill:#000E3F;" d="M385.081,297.341c6.806,12.218,19.74,28.128,32.003,33.561c2.226,0.98,3.793,0.425,4.825-0.848       c-11.035-22.268-39.277-60.909-49.153-74.159c-0.536,0.849-0.847,2.057-0.913,3.687       C371.455,271.571,379.397,287.142,385.081,297.341z"/>
					<path style="fill:#000E3F;" d="M399.347,376.358c0.148-0.259,0.288-0.545,0.428-0.83       c-8.311-24.476-33.209-62.155-46.779-81.702c-0.187,0.271-0.349,0.577-0.503,0.91c-2.856,5.84-0.093,16.727,1.393,23.25       C361.359,351.055,395.078,383.76,399.347,376.358z"/>
					<path style="fill:#000E3F;" d="M338.302,402.036c5.277,10.31,15.688,25.02,23.636,30.873c2.491,1.838,4.27,0.078,5.509-2.969       c-6.583-25.893-25.433-71.494-35.965-96.097C322.211,339.483,322.285,370.506,338.302,402.036z"/>
				</g>
			</g>
			<path style="fill:#000E3F;" d="M509.995,302.827c-13.871-12.987-50.325-16.043-71.665-3.864     c3.998-10.606,7.67-21.43,10.928-32.208c10.371,9.419,43.237,4.959,56.646-9.144c2.811-2.947,2.496-8.002-1.268-10.571     c-11.483-8.383-38.721-3.309-50.905,4.02c2.507-9.393,4.76-18.953,6.702-28.442c15.083,5.417,58.047-21.813,44.207-30.306     c-4.646-2.928-21.599-2.59-36.122,8.479c-1.416,1.077-9.081,7.759-11.279,13.385c-0.195,0.287-0.323,0.596-0.383,0.915     c-0.774,4.053-1.601,8.096-2.522,12.306c-7.905-22.67-29.88-42.806-36.033-28.826c-3.424,7.66,2.297,30.018,25.001,43.669     c2.549,1.535,4.971,2.252,7.035,2.079c-2.521,9.893-5.378,19.804-8.499,29.509c-2.994-16.345-15.366-51.195-33.072-48.435     c-2.572,0.396-4.552,1.723-5.881,3.945c-9.232,15.46,17.538,58.446,32.122,64.28c-3.191,8.658-6.072,15.832-9.221,23.27     c-4.979-37.109-46.743-75.617-55.135-62.32c-7.547,11.974,18.152,66.529,45.431,78.612c0.784,0.345,1.559,0.564,2.311,0.654     c-4.88,10.814-9.781,20.975-14.94,30.985c-1.474-20.717-9.47-39.531-21.559-55.618c-10.645-14.155-18.765-20.884-24.843-20.607     c-1.775,0.088-4.282,0.833-6.134,3.861c-4.25,6.241-1.152,18.742,0.542,26.082c6.551,28.983,33.291,58.345,44.089,61.133     c-8.621,15.678-16.861,29.013-23.15,39.108c2.158-18.732-2.66-38.106-10.487-55.103c-4.638-10.126-12.885-28.569-23.414-32.501     c-4.038-1.532-7.801-0.664-10.593,2.443c-8.373,9.327-7.083,39.499,8.182,69.547c5.049,9.862,18.868,29.718,25.822,32.57     c-4.427,7.284-9.504,15.933-13.973,25.255c-1.394,2.915,3.036,5.141,4.489,2.149c8.826-18.415,20.661-35.432,34.804-59.03     c13.124,24.855,91.437,20.561,91.145,2.995c0.18-6.462-8.133-10.667-13.841-13.501c-26.773-13.273-50.481-12.862-68.165-5.183     c5.626-9.958,10.866-19.852,15.981-30.171c6.359,6.886,36.108,14.943,69.383,4.655c8.541-2.635,13.704-5.676,15.347-9.036     c1.208-2.468,0.765-5.431-2.469-7.991c-20.362-15.915-55.082-14.408-74.321-4.215c4.734-10.245,9.486-21.247,12.466-28.543     c14.736,16.498,59.973,10.644,76.676-0.692C512.648,310.297,512.853,305.459,509.995,302.827z M437.014,207.568     c7.414,8.352,16.049,24.927,13.885,31.175c-0.732,1.433-3.644,0.068-5.029-0.766     C419.653,222.213,413.854,181.496,437.014,207.568z M501.763,251.103c1.25,0.855,1.281,2.299,0.534,3.078     c-17.532,18.44-61.22,13.866-48.706,3.049C456.299,254.891,491.343,243.493,501.763,251.103z M436.115,309.397     c-0.383-0.444-0.576-1.1-0.516-1.752c0.067-0.697,0.296-0.855,0.642-1.296c17.894-14.466,56.775-12.608,70.366,0.122     c0.144,0.132,0.251,0.291,0.319,0.475c0.199,0.524,0.084,1.111-0.267,1.344c-7.215,4.892-21.994,8.966-35.943,9.907     C454.303,319.303,441.7,316.098,436.115,309.397z M436.621,288.888c-13.362-6.512-36.647-44.989-29.462-56.997     c0.552-0.925,1.284-1.412,2.369-1.582c12.94-2.022,23.175,27.169,26.445,40.034C437.239,275.311,438.669,282.606,436.621,288.888     z M502.143,197.351c-2.075,6.793-24.33,21.465-37.939,20.921c-2.156-0.096-2.64-0.623-2.656-0.639     c-0.052-0.063-0.058-0.244-0.044-0.404l0.048-0.235c0.584-3.319,6.796-9.816,9.983-12.248     C486.249,193.536,502.92,194.804,502.143,197.351z M377.911,312.189c16.672,22.174,18.829,41.998,19.128,42.973     c0.996,5.389,2.785,14.936,0.255,19.766c-6.836-0.221-34.21-27.531-40.982-57.495c-1.242-5.376-4.359-17.709-1.264-22.203     l0.074-0.115c0.538-0.89,1.164-1.501,2.18-1.551C357.509,293.685,362.794,292.081,377.911,312.189z M391.064,400.571     c-0.379-0.967-1.27-3.233,3.165-5.605c16.98-9.087,40.763-10.52,68.191,3.143c3.145,1.561,11.076,5.439,10.976,8.964     c0.083,4.759-16.767,7.889-22.722,8.607C425.541,418.713,396.361,413.891,391.064,400.571z M418.095,328.628     c-28.15-12.468-50.142-69.527-42.711-71.829c3.506-1.12,13.084,6.621,16.009,9.155     C420.193,290.826,425.808,332.006,418.095,328.628z M491.534,349.792c0.608,0.482,1.411,1.191,1.073,1.885     c-2.978,6.088-44.688,18.194-73.116,5.478c-1.274-0.576-4.238-2.11-4.276-3.938C415.041,344.184,463.476,327.862,491.534,349.792     z M365.146,428.996c-0.732,1.801-1.27,2.14-1.27,2.17c-2.994-0.748-16.02-15.927-23.36-30.26     c-17.467-34.387-15.465-69.511-3.769-65.074c8.658,3.233,16.82,21.58,20.642,29.923     C370.217,393.596,369.508,418.406,365.146,428.996z"/>
		</g>
		<g>
			<g>
				<path style="fill:#FD8A02;" d="M341.398,197.747c-3.397,7.766-9.94,18.335-18.852,28.295      c-8.452,9.463-17.362,17.572-28.409,23.85c-3.836,2.175-18.603,9.731-18.946,5.38c-0.076-0.934-0.019-1.869-0.019-3.11      c1.832-23.143,12.039-37.395,13.775-40.983c0.058-0.153-0.077-0.458-0.21-0.61c-0.744-0.725-2.023,0.592-2.671,1.087      c-13.108,10.017-27.971,16.657-43.788,21.064c-12.325,3.435-31.348,6.774-42.28,6.43c-2.348-0.076-4.618,0.61-7.003,0.592      c-29.439-0.306-45.542-4.656-55.636-7.002c-3.302-0.764-3.759-3.549-2.099-5.514c5.189-6.125,10.208-10.647,19.766-26.845      c4.808-8.148,10.551-20.95,11.848-29.937c0.649-4.521,4.102-5.724,4.637-13.145c0.457-6.316,0.572-12.65-1.203-18.851      c-1.144-3.969-2.442-7.861-4.941-11.2c-2.824-3.835-1.144-9.082-9.329-24.193c-13.49-24.899-30.967-38.159-33.695-41.116      c-0.992-1.069-0.897-2.099,0.382-2.938c44.608-28.963,115.012-32.608,175.457-2.099c2.06,1.049,0.095,2.29-3.378,6.62      C274.828,88.459,275,125.493,305.7,143.713c7.23,4.274,13.604,9.559,19.271,15.741c9.1,9.959,14.958,21.483,16.961,34.897      C342.123,195.591,341.875,196.659,341.398,197.747z"/>
				<path style="fill:#00B0C4;" d="M167.482,168.507c-1.138,1.08-2.287,1.679-3.748,0.741c-2.226-1.429-4.242,3.551-19.221,12.13      c-5.194,2.975-10.483,5.766-16.238,7.532c-15.546,4.772-21.655-1.363-19.8-11.57c0.649-3.572,1.522-7.092,3.103-10.412      c8.022-16.838,10.686-16.402,8.672-18.158c-9.703-8.457-23.423-20.187-25.654-32.965c-1.568-8.98,7.834-11.505,16.874-10.398      c8.436,1.033,16.497,3.441,24.306,6.739c24.402,10.305,26.392,15.906,27.277,12.18c0.188-0.792,0.153-2.62,0.473-2.689      c0.417-0.09,0.556,0.289,0.615,0.598c1.008,5.251,7.598,9.699,8.437,25.38C172.939,154.351,172.714,163.545,167.482,168.507z"/>
				<g>
					<path style="fill:#FFFFFF;" d="M280.072,102.315c0.621-16.315,5.748-30.734,17.517-43.18c1.616-1.708,1.838-1.772,3.903-0.657       c24.44,13.184,35.119,23.72,45.448,33.38c10.609,9.921,26.57,23.902,41.317,25.264c14.401,1.329,12.557,14.127,2.458,21.434       c-10.408,7.53-19.595,17.68-27.744,27.301c-20.538,24.25-20.66,36.533-22.265,26.61c-3.251-20.09-17.037-36.842-34.38-47.48       c-13.356-8.193-22.999-18.452-25.512-36.294C280.474,106.274,279.783,103.855,280.072,102.315z"/>
					<path style="fill:#FFFFFF;" d="M236.952,188.901c-5.427,10.021-16.619,22.809-24.237,25.729       c-2.015,0.772-4.007-1.256-2.511-3.178c4.458-5.729,6.403-6.787,10.91-15.042c21.889-40.092,18.365-100.115-4.037-129.897       c-0.997-1.325-1.868-2.693-2.307-4.302c-0.14-0.513,0.475-1.198,1.005-1.181c2.301,0.073,7.621,4.189,9.755,6.048       C250.256,88.62,261.417,143.728,236.952,188.901z"/>
				</g>
				<g style="opacity:0.5;">
					<path style="fill:#FFFFFF;" d="M213,48.873c13.338-0.057,52.36,2.752,61.305,12.777c6.104,6.841-1.356,14.749-9.427,13.15       c-24.71-4.894-81.018-10.03-81.178-10.047c-26.959-2.943-33.133-0.391-33.643-3.489c-0.93-5.649,35.922-11.7,41.171-11.694       C197.737,49.578,196.119,48.945,213,48.873z"/>
					<path style="fill:#FFFFFF;" d="M150.653,142.567c-2.4-0.533-4.966-0.923-7.421-1.678c-8.929-2.747-28.809-11.896-30.648-20.589       c-0.268-1.266,0.817-2.3,2.092-2.038c6.525,1.339,17.294,9.535,34.786,14.137c3.497,0.92,8.03,2.414,7.526,6.049       c-0.243,1.752-1.925,3.373-4.107,3.877C152.205,142.48,151.492,142.48,150.653,142.567z"/>
					<path style="fill:#FFFFFF;" d="M123.955,171.881c10.316-14.543,28.945-23.432,33.383-23.087       c2.942,0.229,4.387,3.297,2.66,5.677c-1.991,2.743-7.429,3.723-20.863,14.831c-10.13,8.376-10.913,9.039-12.991,9.472       C122.922,179.446,120.869,176.23,123.955,171.881z"/>
				</g>
				<g>
					<path style="fill:#91D728;" d="M192.377,201.966c-8.542,10.139-7.333,7.811-13.513,13.259       c-2.505,2.208-4.633-0.188-3.937-1.581c5.038-10.089,11.458-18.753,15.201-29.65c11.616-33.814,6.867-74.66-5.741-107.349       c-1.584-4.107-4.441-8.702-4.993-13.125c-0.69-5.534,11.993,3.933,21.342,23.671       C218.335,124.349,218.671,170.756,192.377,201.966z"/>
					<path style="fill:#91D728;" d="M253.975,207.987c-1.886,0.657-5.075,1.279-4.242,0.124c3.154-4.374,9.885-16.112,11.355-18.518       c11.411-18.675,11.287-44.668,12.25-51.264c0.199-1.36,1.991-1.989,2.909-0.611       C291.219,160.176,279.944,198.939,253.975,207.987z"/>
				</g>
				<g style="opacity:0.25;">
					<path style="fill:#000E3F;" d="M136.75,232.589c-2.383-0.524-3.127-3.769-1.568-5.342       c11.325-11.422,22.963-30.013,28.151-44.221c4.954-13.57,2.789-18.06,7.517-15.809c12.284,5.848,12.941,14.865,32.807,35.706       c3.99,4.186,8.91,6.298,14.531,7.156c27.443,4.192,45.045-24.631,75.185-27.683c8.086-0.819,19.691,2.092,22.221,3.725       c0.433,0.279,0.399,1.163,0.054,1.579c-1.14,1.372-2.824,0.794-6.279,3.046c-15.828,10.316-16.908,18.704-21.568,19.717       C285.872,210.882,240.55,255.406,136.75,232.589z"/>
					<path style="fill:#000E3F;" d="M275.099,253.286c0.26-4.286,0.914-7.738,1.442-11.209c0.218-1.433,0.992-2.27,2.252-2.887       c20.117-9.852,27.5-32.894,50.786-42.428c3.151-1.29,6.328-2.501,9.726-2.966c2.497-0.341,3.293,0.587,2.472,2.966       c-2.728,7.903-11.785,20.747-19.419,29.536c-17.144,19.737-36.968,29.37-45.072,30.335c-1.704,0.203-2.171-0.689-2.186-2.362       C275.096,253.687,275.099,253.101,275.099,253.286z"/>
				</g>
			</g>
			<g>
				<path style="fill:#000E3F;" d="M397.952,117.08c-3.576-2.8-5.867-3.059-8.766-3.387c-2.961-0.334-6.647-0.751-13.417-4.217      c-10.754-5.507-17.965-12.419-26.315-20.424c-9.849-9.44-21.012-20.139-41.03-31.481      c-35.237-19.965-71.593-28.199-111.079-25.193c-33.524,2.054-59.915,12.639-73.437,21.862c-2.269,1.546-3.494,3.68-3.545,6.168      c-0.064,3.173,1.844,6.593,4.983,8.926c5.073,3.773,21.431,22.034,30.092,40.299c1.559,3.286,2.666,6.822,3.735,10.242      l0.052,0.168c-36.701-21.559-59.709-21.867-66.228-12.595c-6.206,8.825,2.339,24.977,21.768,41.148      c2.138,1.778,2.138,1.778,1.151,3.226c-0.183,0.27-0.389,0.574-0.614,0.923c-10.886,17.038-13.419,31.616-6.609,38.046      c8.037,7.59,26.748,2.061,50.05-14.784c1.506-1.089,2.529-1.899,3.247-2.467c0.307-0.243,0.59-0.468,0.816-0.636      c-5.133,21.27-19.762,39.812-25.298,46.829c-1.222,1.547-2.026,2.568-2.347,3.113c-1.683,2.861-2.106,5.67-1.226,8.124      c0.897,2.494,3.105,4.491,6.216,5.622c12.946,4.712,36.254,5.947,46.207,6.474c1.603,0.085,2.846,0.152,3.625,0.21      c1.797,0.134,3.576-0.046,5.302-0.223c1.159-0.118,2.359-0.242,3.522-0.259c7.657-0.116,15.323-1.056,22.466-2.055      c29.922-4.181,48.085-14.531,55.839-18.952c1.169-0.665,2.293-1.306,3.015-1.655c-0.195,0.509-0.502,1.203-0.802,1.883      c-1.867,4.23-5.755,13.032-7.636,28.331c-0.173,1.408,0.01,2.88,0.56,4.498c1.041,3.058,3.235,4.721,6.136,4.721      c0.5,0,1.021-0.05,1.561-0.151c14.916-2.766,34.976-18.835,47.084-33.279c9.303-11.098,13.255-18.55,17.437-26.441      c5.663-10.683,11.52-21.731,31.348-43.339c4.758-5.187,9.387-8.986,13.469-12.34c6.349-5.213,11.363-9.33,12.633-15.529      C402.89,123.742,401.554,119.904,397.952,117.08z M347.492,130.947c-0.678,0.455-1.075,1.044-1.18,1.751      c-0.148,1.02,0.345,2.2,1.508,3.61c5.709,6.914,12.158,11.181,19.714,13.043c2.359,0.582,4.22,0.782,5.452,0.915      c0.407,0.043,0.849,0.091,1.164,0.143c-0.377,0.483-1.176,1.314-2.068,2.238c-3.107,3.225-9.572,9.937-19.491,23.315      c-6.507,8.774-9.917,15.318-13.213,21.647c-4.134,7.937-8.039,15.434-17.674,26.417c-7.414,8.452-14.254,15.114-25.418,22.205      c-4.445,2.822-12.904,7.152-17.227,7.94c-0.461,0.083-0.808,0.041-1.041-0.128c-0.313-0.229-0.437-0.708-0.483-1.071      c-0.257-1.937-0.205-3.984,0.156-6.084c3.37-19.704,9.211-29.863,18.813-41.718c7.883-9.732,14.18-12.898,17.561-14.599      c2.401-1.207,3.988-2.004,3.326-4.072c-0.353-1.097-1.406-1.854-2.572-1.854c-0.016,0-0.034,0-0.052,0      c-0.979,0.02-1.815,0.405-2.551,0.744l-0.399,0.181c-8.992,3.971-14.743,10.77-19.816,16.768      c-2.892,3.42-5.624,6.65-8.541,8.782c-50.692,37.067-134.748,26.4-143.614,19.081c-2.058-1.699-0.995-3.237,3.39-8.852      c3.765-4.82,9.456-12.104,15.814-24.123c0.126-0.237,12.278-24.127,9.847-31.001c-0.307-0.868-0.832-1.468-1.561-1.779      c-1.569-0.674-2.862,0.153-3.695,0.835c-10.962,8.96-27.426,21.131-43.76,23.363c-1.92,0.262-3.902-0.088-6.066-1.068      c-5.428-2.459-3.376-12.242-1.308-17.635c2.928-7.645,7.151-14.003,8.952-16.718c0.415-0.623,0.72-1.084,0.883-1.363      c1.643-2.797,0.74-3.544-4.271-7.692l-2.096-1.74c-7.56-6.327-16.731-16.881-19.002-25.107      c-0.915-3.315-0.522-5.832,1.167-7.482c4.383-4.276,16.791-2.52,26.086,0.286c15.56,4.695,27.9,12.067,33.829,15.611      c1.595,0.951,2.648,1.58,3.219,1.829c2.078,0.904,3.101-0.041,3.53-0.684c3.775-5.659-8.398-35.243-34.976-60.84l-0.297-0.285      c-1.667-1.601-3.743-3.592-3.562-5.286c0.09-0.841,0.762-1.655,1.998-2.417c62.374-38.515,152.39-18.849,203.373,22.418      c3.334,2.698,7.051,6.169,10.984,9.845c12.976,12.123,29.123,27.211,46.767,29.038c3.996,0.414,6.714,2.16,7.462,4.79      c1.087,3.834-1.864,8.898-7.895,13.544c-1.631,1.257-2.874,2.289-3.896,3.137c-3.025,2.509-3.938,3.268-7.249,3.625      c-11.237,1.217-21.055-5.131-25.807-11.955C349.903,129.902,348.29,130.409,347.492,130.947z"/>
				<path style="fill:#000E3F;" d="M333.77,105.772c-2.096-0.097-4.17,0.734-5.875,2.336c-1.916,1.799-3.037,4.264-3.079,6.76l0,0      c-0.056,3.372,1.404,6.114,4.11,7.721c1.49,0.885,3.243,1.329,4.991,1.329c1.659,0,3.312-0.4,4.73-1.202      c2.79-1.579,4.335-4.428,4.353-8.026C343.021,110.086,338.795,106.002,333.77,105.772z"/>
			</g>
		</g>
		<g>
			<g>
				<path style="fill:#00B0C4;" d="M4.419,382.067c2.497-10.185,11.162-12.637,21.708-12.033      c10.441,0.598,33.624,9.105,42.147,5.881c0.742-0.28,0.879-0.81,0.274-1.302c-9.439-7.664-16.822-19.065-18.112-31.546      c-5.042-48.766,59.824-81.775,110.199-60.564c17.555,7.392,35.829,17.768,48.32,26.539      c23.328,16.38,50.758,28.256,79.172,23.349c10.645-1.838,12.163,9.964,6.196,17.033c-4.651,5.51-15.16,9.97-21.919,12.087      c-12.724,3.984-19.502,13.266-24.416,25.434c-2.68,6.635-7.828,12.584-13.223,17.038c-7.888,6.511-12.217,6.208-15.007,7.27      c-4.009,1.527,5.949,7.102-0.294,29.618c-7.672,27.67-29.806,44.503-38.82,29.274c-6.709-11.334-1.28-32.907,6.444-45.224      c4.226-6.738,6.446-8.212,5.714-8.964c-0.119-0.123-0.496-0.196-0.592-0.108c-3.389,3.104-6.914,8.699-8.766,12.637      c-2.632,5.595-4.585,1.609-18.905,13.334c-10.761,8.81-11.982,16.628-31.538,28.777c-24.342,15.122-50.857,0.348-56.218-24.901      c-2.745-12.928,0.937-21.095,3.441-28.853c0.225-0.698-0.29-1.652-1.424-1.121c-9.351,4.38-12.182,18.947-33.466,33.169      c-4.771,3.188-10.194,0.512-14.826-2.84C11.973,432.636,0.099,399.684,4.419,382.067z"/>
				<g>
					<path style="fill:#FFFFFF;" d="M211.262,314.439c4.329-2.138,2.95-1.654,14.664,5.001c18.73,10.64,40.217,16.581,62.023,12.969       c6.014-0.995,9.388,1.95,9.741,6.755c0.626,8.547-5.611,13.244-12.452,17.014c-3.911,2.155-8.006,3.902-12.302,5.149       c-8.94,2.597-16.244,8.833-20.585,16.537c-5.147,9.134-4.561,12.505-11.61,20.354c-11.852,13.197-19.673,11.959-21.403,13.132       c-1.648,1.117-3.347,0.842-5.052,0.363C159.483,396.296,160.962,339.281,211.262,314.439z"/>
					<path style="fill:#FFFFFF;" d="M131.24,327.476c-0.146,8.998-3.271,9.888-2.533,37.718c0.27,10.186,4.544,25.619,4.166,29.495       c-0.83,8.49-8.454,3.866-10.912-0.804c-12.749-24.223-4.686-57.827,3.634-68.585       C128.362,321.724,131.314,322.938,131.24,327.476z"/>
				</g>
				<path style="fill:#91D728;" d="M166.182,423.213c13.934,1.652,20.354-0.791,19.27,1.359c-7.059,14.005-1.247,0.866-22.081,18.29      c-8.037,6.722-12.479,16.68-28.732,26.666c-36.432,22.384-67.535-13.872-56.598-46.145c2.306-6.802,2.681-7.11,1.903-7.976      c-0.907-1.008-0.258-1.695,0.502-2.342c3.27-2.785,7.017-4.754,11.134-5.831C121.684,399.355,133.128,419.295,166.182,423.213z"/>
				<path style="fill:#91D728;" d="M160.653,282.511c16.024,6.753,29.871,14.439,44.829,24.147c1.309,0.85,1.222,0.896,1.149,1.447      c-0.051,0.388-1.75,0.012-1.977-0.054c-37.058-10.691-86.318-9.025-113.44,17.919c-22.909,22.758-18.459,47.58-20.412,49.71      c-0.319,0.348-0.818,0.674-1.212,0.217c-2.989-3.464-16.426-12.829-19.14-32.543      C44.192,297.899,107.558,260.136,160.653,282.511z"/>
				<path style="fill:#FF8EDE;" d="M230.654,382.235c-5.586,3.726-14.497,4.328-19.597-0.703c-4.84-4.776-2.193-12.429,3.179-15.503      C230.986,356.448,244.76,372.827,230.654,382.235z"/>
				<g style="opacity:0.5;">
					<path style="fill:#FFFFFF;" d="M128.159,290.696c-14.281,1.867-30.023,8.527-42.007,19.243       c-0.322,0.288-0.642,0.579-0.959,0.874c-7.295,6.772-9.912,13.581-11.759,15.674c-2.71,3.072-7.008-0.019-6.566-2.944       c0.754-4.993,4.646-10.851,7.88-14.701c21.678-25.805,62.247-29.241,72.329-21.798c3.032,2.24-1.38,2.955-2.877,3.106       C138.827,290.693,133.538,289.993,128.159,290.696z"/>
					<path style="fill:#FFFFFF;" d="M26.957,396.177c-3.506-0.24-16.052,0.827-15.37-5.438c0.29-2.661,3.664-3.465,5.43-3.26       c20.21,2.343,40.5-3.043,45.789-1.566c2.827,0.789,2.26,4.268-2.093,5.574C47.829,395.352,35.485,396.76,26.957,396.177z"/>
					<path style="fill:#FFFFFF;" d="M25.862,417.858c-3.41-0.741-5.793-3.894-2.985-6.948c1.559-1.696,2.852-1.933,13.303-3.956       c10.076-1.951,13.278-3.704,23.1-6.13c4.604-1.137,6.258,1.106,4.864,3.335c-1.538,2.46-9.437,7.002-13.191,8.536       C44.801,415.21,31.327,419.046,25.862,417.858z"/>
					<path style="fill:#FFFFFF;" d="M97.327,422.72c1.019-1.599,3.074-4.075,4.876-3.215c4.423,2.112-6.288,12.306-1.248,32.416       c1.051,4.192,2.499,9.82-1.725,10.868C92.271,464.516,85.776,440.861,97.327,422.72z"/>
					<path style="fill:#FFFFFF;" d="M36.596,437.627c-3.896-2.177-4.421-5.859-0.656-8.22c2.2-1.38,7.649-2.799,18.195-9.805       c2.05-1.362,6.587-4.62,8.461-3.093c1.806,1.471-0.887,4.805-2.291,6.739c-3.692,5.085-8.242,9.244-13.72,12.322       C43.732,437.172,38.979,438.958,36.596,437.627z"/>
					<path style="fill:#FFFFFF;" d="M121.625,426.787c2.7-1.679,3.803,1.529,3.442,3.749c-2.694,16.591-0.261,17.481,0.821,29.172       c0.358,3.869-4.545,6.806-7.815-0.574c-3.487-7.869-2.605-17.421,0.146-25.653C118.923,431.38,119.639,428.022,121.625,426.787       z"/>
					<path style="fill:#FFFFFF;" d="M148.217,446.346c-0.493,6.131-9.239,7.107-7.67-7.796c0.252-2.394,0.622-7.09,2.563-9.711       c1.505-2.033,4.619-0.233,4.543,3.169C147.546,436.781,148.598,441.613,148.217,446.346z"/>
				</g>
				<g>
					<path style="fill:#FC09B2;" d="M160.669,338.73c-3.271,17.668-3.195,34.275,0.323,51.845       c0.769,3.841,1.004,10.954-4.975,10.608c-19.427-1.124-7.421-85.145,6.771-81.663       C168.067,320.817,161.283,335.415,160.669,338.73z"/>
					<path style="fill:#FC09B2;" d="M105.222,330.035c2.485,2.944-3.154,14.563-4.353,31.055       c-0.689,9.469,1.334,18.694,3.531,27.851c1.613,6.738-8.12,9.696-10.567,3.481c-5.466-13.885-3.427-38.21,0.562-49.827       C95.946,338.081,101.944,326.152,105.222,330.035z"/>
				</g>
				<g style="opacity:0.25;">
					<path style="fill:#000E3F;" d="M76.552,429.009c0.09-0.449,0.328-0.87,0.518-1.295c0.165-0.366,0.729-0.088,0.787,0.059       c1.108,2.793,1.795,9.272,8.632,16.682c14.845,16.089,38.03,12.871,55.819,4.211c3.637-1.771,7.223-3.644,10.842-5.452       c4.313-2.155,10.028-3.195,10.746-3.052c0.814,0.162,1.408,0.723,0.786,1.401c-0.633,0.69-1.232,1.453-1.989,1.981       c-6.334,4.421-10.536,14.878-27.948,25.918c-2.969,1.882-5.96,3.673-9.294,4.91C96.928,484.952,70.799,457.754,76.552,429.009z       "/>
					<path style="fill:#000E3F;" d="M191.778,475.697c-6.606,1.327-11.68-4.03-13.115-10.441c-0.967-4.32,5.239,1.337,14.528-13.995       c3.338-5.51,6.349-11.217,9.534-16.821c3.802-6.69,11.028-12.502,15.915-14.413c1.428-0.558,1.923-0.299,2.299,1.104       C225.229,437.117,210.143,472.008,191.778,475.697z"/>
				</g>
			</g>
			<g>
				<path style="fill:#000E3F;" d="M300.455,335.615c-2-5.235-6.974-7.837-13.016-6.79c-9.568,1.661-13.56,1.28-20.173,0.647      l-0.233-0.022c-23.613-2.262-39.283-12.369-57.426-24.072c-13.305-8.582-28.383-18.309-49.184-26.685      c-35.219-14.184-71.796-2.463-92.422,15.445c-17.564,15.251-24.897,35.095-20.119,54.446c3.195,12.938,9.678,19.9,12.795,23.246      c0.349,0.375,0.706,0.759,0.979,1.071c-6.391-0.07-12.641-1.725-18.691-3.327c-6.601-1.749-12.864-3.4-18.805-2.915      c-4.088-0.365-8.116,0.171-11.959,1.597c-7.259,2.694-11.447,9.454-12.115,19.549c-1.344,20.323,13.082,53.373,33.011,63.935      c5.63,2.983,10.739,2.703,15.624-0.858c11.205-8.163,16.402-14.878,21.906-21.985c1.085-1.402,2.185-2.822,3.352-4.282      c-0.024,0.108-0.05,0.225-0.078,0.35c-0.652,2.914-2.179,9.736-1.27,16.836c1.934,15.092,10.551,27.91,23.055,34.284      c5.416,2.762,11.247,4.138,17.132,4.137c6.519,0,13.106-1.69,19.262-5.056c12.406-6.784,18.863-13.978,25.107-20.936      c4.064-4.528,7.903-8.806,13.133-12.582c1.729-1.249,3.587-2.402,5.384-3.517l1.663-1.037c0.06-0.037,0.183-0.067,0.195-0.115      c0.018,0.111-0.016,0.375-0.235,0.989c-2.062,5.804-4.401,17.718-2.395,26.751c1.767,7.941,6.236,13.172,12.262,14.353      c8.254,1.608,17.77-4.353,26.094-16.379c8.404-12.145,15.064-32.361,9.823-48.045c-0.038-0.118-0.1-0.304-0.138-0.445      c0.174-0.068,0.445-0.154,0.66-0.223c7.57-2.414,14.278-7.121,20.508-14.389c3.225-3.763,5.418-8.295,7.538-12.678      c4.413-9.117,8.976-18.547,23.192-22.595c5.239-1.492,10.417-3.857,15.83-7.233      C300.664,350.874,302.742,341.602,300.455,335.615z M241.789,350.268c-0.67,0.928-0.654,2.09,0.042,2.961      c1.954,2.446,9.915,8.168,19.461,10.308c0.568,0.127,1.005,0.237,1.304,0.329c-0.253,0.21-0.596,0.471-0.917,0.714      c-2.297,1.747-6.573,4.997-11.044,12.233c-1.771,2.869-2.872,5.475-3.936,7.994c-0.965,2.285-1.876,4.443-3.189,6.493      c-5.165,8.054-14.775,16.684-23.15,17.597c-1.326,0.144-2.656,0.404-3.392,1.326c-0.417,0.524-0.584,1.185-0.493,1.967      c0.14,1.234,0.564,2.315,1.053,3.567c1.192,3.047,2.822,7.22,1.454,17.266c-3.015,22.114-16.729,38.863-27.649,40.632      c-4.076,0.668-7.217-0.979-9.068-4.745l-0.175-0.352c-0.609-1.234-1.185-2.399-1.408-3.685l-0.153-0.875      c-0.656-3.741-1.276-7.273-0.676-11.045c0.122-0.762,0.237-1.525,0.351-2.287c0.361-2.416,0.736-4.914,1.34-7.318      c3.229-12.849,9.135-20.451,11.971-24.104c0.54-0.695,0.981-1.263,1.29-1.712c0.981-1.428,0.564-2.805-0.283-3.536      c-0.885-0.762-2.415-0.942-3.627,0.187c-2.275,2.121-6.896,8.306-9.253,13.561c-0.708,1.574-1.683,2.458-3.262,2.957      c-4,1.263-7.335,3.722-10.561,6.099l-0.825,0.608c-7.989,5.86-11.074,9.726-14.059,13.466c-3.496,4.382-6.8,8.521-17.541,15.783      c-15.18,10.264-31.544,10.395-43.772,0.359c-13.128-10.776-17.369-30.019-10.31-46.794c1.779-4.227,0.515-5.881-0.108-6.397      c-0.451-0.371-1.001-0.556-1.591-0.556c-0.658,0-1.368,0.23-2.05,0.686c-5.396,3.619-6.904,5.696-10.206,10.249l-1.099,1.511      c-2.674,3.656-12.19,16.025-22.349,21.638c-4.417,2.444-9.869-0.737-13.656-3.838C9.629,426.632,2.534,394.549,6.893,380.737      c3.324-10.531,18.877-10.186,31.181-6.689c16.344,4.642,21.513,4.457,28.076,4.224l1.25-0.042      c1.52-0.05,3.436-0.724,3.821-2.459c0.345-1.551-0.686-2.343-2.249-3.54c-2.197-1.684-6.284-4.818-11.225-13.325      c-8.918-15.357-7.329-34.22,4.251-50.457c17.981-25.218,60.822-40.566,101.382-22.6c15.485,6.86,30.208,15.064,43.758,24.384      c30.026,20.655,55.885,28.328,81.36,24.145c3.376-0.555,5.881,0.619,6.916,3.211c1.48,3.713-0.283,9.927-6.473,14.131      c-10.336,7.018-18.605,8.737-28.542,5.937c-6.926-1.953-10.563-4.776-12.97-6.646c-1.087-0.843-1.872-1.453-2.644-1.739      C243.723,348.88,242.495,349.291,241.789,350.268z"/>
				<path style="fill:#000E3F;" d="M211.641,349.414c0.076-4.681,4.136-8.658,8.826-8.645c4.781,0.013,9.129,4.319,8.853,9.015      c-0.306,5.212-4.297,8.591-8.863,8.688C215.7,358.574,211.562,354.223,211.641,349.414z"/>
			</g>
		</g>
	</g>
</g>















</svg>
