<svg width="35" height="35" viewBox="0 0 35 35" fill="none" xmlns="http://www.w3.org/2000/svg">
<path d="M29.5532 26.301C29.0865 26.5344 28.6198 26.775 28.1604 27.0302C26.95 27.6865 25.7615 28.3865 24.5948 29.1302C24.3177 29.2955 24.0407 29.4705 23.7636 29.6552C23.6555 29.7302 23.5531 29.813 23.4573 29.9031H5.10419V29.1667C5.10429 26.307 6.09312 23.5353 7.9031 21.3214C9.71308 19.1074 12.2329 17.5873 15.0354 17.0188C13.6243 16.4469 12.4559 15.4022 11.7304 14.0636C11.0049 12.7249 10.7674 11.1756 11.0587 9.68115C11.35 8.18666 12.1519 6.83997 13.3271 5.87178C14.5022 4.90358 15.9774 4.37413 17.5 4.37413C19.0226 4.37413 20.4979 4.90358 21.673 5.87178C22.8481 6.83997 23.65 8.18666 23.9413 9.68115C24.2326 11.1756 23.9952 12.7249 23.2697 14.0636C22.5442 15.4022 21.3758 16.4469 19.9646 17.0188C22.2818 17.4903 24.4157 18.6147 26.1147 20.2594C27.8136 21.9041 29.0067 24.0004 29.5532 26.301V26.301Z" fill="#5A90FF"/>
<path d="M25.5208 19.7531C24.3672 19.9064 23.258 20.2978 22.2636 20.9024C21.2692 21.5069 20.4113 22.3115 19.7442 23.2652C19.0772 24.2188 18.6156 25.3006 18.3886 26.442C18.1617 27.5835 18.1745 28.7596 18.426 29.8959H23.4573C23.5521 29.8084 28.1604 27.0229 28.1604 27.0229C28.6198 26.775 29.0865 26.5344 29.5531 26.2938C28.9329 23.7427 27.5215 21.4532 25.5208 19.7531V19.7531Z" fill="#5A90FF"/>
<path d="M25.5209 30.625C28.3398 30.625 30.625 28.3398 30.625 25.5208C30.625 22.7019 28.3398 20.4167 25.5209 20.4167C22.7019 20.4167 20.4167 22.7019 20.4167 25.5208C20.4167 28.3398 22.7019 30.625 25.5209 30.625Z" fill="#5A90FF"/>
<path d="M25.5208 19.6875C24.3671 19.6875 23.2393 20.0296 22.28 20.6706C21.3207 21.3116 20.573 22.2226 20.1315 23.2885C19.69 24.3544 19.5745 25.5273 19.7996 26.6589C20.0247 27.7904 20.5802 28.8298 21.396 29.6456C22.2119 30.4614 23.2513 31.017 24.3828 31.2421C25.5144 31.4672 26.6873 31.3516 27.7532 30.9101C28.8191 30.4686 29.7301 29.7209 30.3711 28.7617C31.0121 27.8024 31.3542 26.6746 31.3542 25.5208C31.3542 23.9737 30.7396 22.49 29.6456 21.396C28.5517 20.3021 27.0679 19.6875 25.5208 19.6875V19.6875ZM22.9615 29.0646L22.699 28.8604C22.5122 28.7026 22.3391 28.5294 22.1813 28.3427L21.9771 28.0802L28.0729 21.9844L28.3354 22.1885C28.5222 22.3463 28.6953 22.5195 28.8531 22.7062L29.0573 22.9688L22.9615 29.0646Z" fill="#A1D2FA"/>
</svg>
