<svg width="20" height="20" viewBox="0 0 20 20" fill="none" xmlns="http://www.w3.org/2000/svg">
<g clip-path="url(#clip0_7383_214)">
<path d="M3.02222 20H16.9778C18.4407 20 19.6296 18.8111 19.6296 17.3481V4.13331C19.6296 2.67035 18.4407 1.48145 16.9778 1.48145H15.9259V0.740727C15.9259 0.333315 15.5926 0 15.1852 0C14.7777 0 14.4444 0.333315 14.4444 0.740727V1.48145H5.55558V0.740727C5.55558 0.333315 5.2222 0 4.81479 0C4.40737 0 4.07406 0.333315 4.07406 0.740727V1.48145H3.02222C1.55926 1.48145 0.370361 2.67035 0.370361 4.13331V17.3481C0.370361 18.8111 1.55926 20 3.02222 20V20ZM1.85188 4.13331C1.85188 3.48889 2.3778 2.96297 3.02222 2.96297H4.07406V3.7037C4.07406 4.11111 4.40737 4.44442 4.81479 4.44442C5.2222 4.44442 5.55551 4.11111 5.55551 3.7037V2.96297H14.4444V3.7037C14.4444 4.11111 14.7777 4.44442 15.1852 4.44442C15.5926 4.44442 15.9259 4.11111 15.9259 3.7037V2.96297H16.9777C17.6221 2.96297 18.1481 3.48889 18.1481 4.13331V6.2963H1.85188V4.13331ZM1.85188 7.77776H18.1482V17.3481C18.1482 17.9926 17.6223 18.5185 16.9778 18.5185H3.02222C2.3778 18.5185 1.85188 17.9926 1.85188 17.3481V7.77776Z" fill="#050505"/>
</g>
<defs>
<clipPath id="clip0_7383_214">
<rect width="20" height="20" fill="white"/>
</clipPath>
</defs>
</svg>
