<svg width="33" height="33" viewBox="0 0 33 33" fill="none" xmlns="http://www.w3.org/2000/svg">
<path d="M19.8852 7.34859C19.8852 9.36808 19.161 11.1161 17.7324 12.545C16.3037 13.9737 14.5554 14.6979 12.536 14.6979H12.5325C10.5155 14.6972 8.76842 13.973 7.33976 12.545C5.91088 11.1161 5.18689 9.36808 5.18689 7.34859C5.18689 5.32981 5.91088 3.58153 7.33976 2.15288C8.76772 0.724686 10.5148 0.000698384 12.5325 0H12.536C14.5547 0 16.303 0.724221 17.7324 2.15288C19.161 3.58153 19.8852 5.32981 19.8852 7.34859Z" fill="#5A90FF"/>
<path d="M25.4571 25.2651C25.4571 26.8584 24.9504 28.1483 23.9521 29.0983C22.9656 30.0372 21.6607 30.5128 20.0743 30.5128H5.38219C3.7957 30.5128 2.49089 30.0372 1.50501 29.0983C0.506093 28.1476 0 26.8579 0 25.2651C0 24.6524 0.0202531 24.0462 0.0607591 23.4633C0.101964 22.8674 0.185304 22.2188 0.308219 21.5346C0.432065 20.8448 0.591296 20.1928 0.781954 19.5968C0.979828 18.9799 1.24754 18.3714 1.57881 17.7885C1.92288 17.1835 2.327 16.6564 2.78002 16.2225C3.25492 15.7683 3.83551 15.4035 4.50665 15.1377C5.17547 14.8732 5.91691 14.7391 6.71028 14.7391C7.02152 14.7391 7.32299 14.8665 7.90404 15.245C8.26766 15.4822 8.68669 15.7523 9.14925 16.0479C9.54873 16.3026 10.0897 16.5414 10.7586 16.7572C11.3464 16.9474 11.943 17.0536 12.5324 17.072C12.5974 17.0743 12.6623 17.0755 12.7273 17.0755C13.3819 17.0755 14.044 16.9681 14.6967 16.7572C15.3655 16.5414 15.9073 16.3026 16.3065 16.0479C16.7739 15.7492 17.193 15.4794 17.5512 15.2457C18.1328 14.8665 18.4338 14.7391 18.7457 14.7391C19.5384 14.7391 20.2798 14.8732 20.9491 15.1377C21.6202 15.4035 22.2008 15.769 22.6753 16.2225C23.129 16.6564 23.5331 17.1835 23.8769 17.7885C24.2084 18.3719 24.4766 18.9799 24.6738 19.5961C24.8647 20.1928 25.0244 20.8448 25.1482 21.5351C25.2704 22.22 25.354 22.8685 25.395 23.4628C25.4362 24.0439 25.4564 24.6501 25.4571 25.2651V25.2651Z" fill="#88C6F8"/>
<path d="M12.5359 14.6979H12.5324V0H12.5359C14.5547 0 16.303 0.724221 17.7323 2.15288C19.161 3.58153 19.8852 5.32981 19.8852 7.34859C19.8852 9.36808 19.161 11.1161 17.7323 12.545C16.3037 13.9737 14.5554 14.6979 12.5359 14.6979Z" fill="#5A90FF"/>
<path d="M25.4571 25.2651C25.4571 26.8584 24.9503 28.1483 23.9521 29.0983C22.9655 30.0372 21.6607 30.5128 20.0742 30.5128H12.5324V17.072C12.5974 17.0743 12.6623 17.0755 12.7273 17.0755C13.3819 17.0755 14.0439 16.9681 14.6967 16.7572C15.3655 16.5414 15.9072 16.3026 16.3065 16.0479C16.7739 15.7492 17.1929 15.4794 17.5512 15.2457C18.1327 14.8665 18.4337 14.7391 18.7457 14.7391C19.5383 14.7391 20.2798 14.8732 20.9491 15.1377C21.6202 15.4035 22.2008 15.769 22.6752 16.2225C23.1289 16.6564 23.5331 17.1835 23.8769 17.7885C24.2084 18.3719 24.4766 18.9799 24.6738 19.5961C24.8647 20.1928 25.0243 20.8448 25.1482 21.5351C25.2704 22.22 25.354 22.8685 25.395 23.4628C25.4362 24.0439 25.4564 24.6501 25.4571 25.2651V25.2651Z" fill="#5A90FF"/>
</svg>
