<svg width="100" height="100" viewBox="0 0 100 100" fill="none" xmlns="http://www.w3.org/2000/svg">
<g clip-path="url(#clip0_7866_176)">
<path d="M31.25 0C13.991 0 0 13.991 0 31.25C0 48.509 13.991 62.5 31.25 62.5C31.8029 62.501 32.3336 62.2822 32.725 61.8916L61.8916 32.725C62.282 32.3336 62.501 31.8029 62.5 31.25C62.4816 13.9986 48.5014 0.0183594 31.25 0Z" fill="#FFA000"/>
<path d="M64.5834 29.1666C45.0233 29.1666 29.1668 45.0233 29.1668 64.5832C29.1668 84.1432 45.0233 100 64.5834 100C84.1436 100 100 84.1434 100 64.5834C99.977 45.0328 84.134 29.1897 64.5834 29.1666Z" fill="#FFC107"/>
<path d="M31.25 91.6666C22.6436 91.2154 15.3703 85.1326 13.4041 76.7416L17.8125 78.9459C18.8422 79.4602 20.094 79.0424 20.6084 78.0125C21.1227 76.9828 20.7049 75.7311 19.675 75.2166L11.3416 71.05C11.2832 71.0209 11.2166 71.025 11.1541 71C10.8885 70.8986 10.6049 70.852 10.3207 70.8625C10.2541 70.859 10.1873 70.859 10.1207 70.8625C10.0557 70.8814 9.99181 70.9037 9.92911 70.9291C9.39552 71.0547 8.93283 71.3855 8.64161 71.85C8.60822 71.9041 8.55411 71.9416 8.52501 72L4.35841 80.3334C3.84396 81.3625 4.26115 82.6139 5.29025 83.1285C5.29083 83.1287 5.29122 83.1291 5.29181 83.1293C5.59025 83.2734 5.91896 83.3436 6.25021 83.3334C7.04005 83.335 7.7629 82.8896 8.11681 82.1834L9.73341 78.95C12.4906 88.6449 21.1776 95.4613 31.25 95.8334C32.4006 95.8334 33.3334 94.9006 33.3334 93.75C33.3334 92.5994 32.4006 91.6666 31.25 91.6666Z" fill="#455A64"/>
<path d="M94.6834 16.8791C93.6543 16.3647 92.403 16.7819 91.8883 17.811C91.8881 17.8115 91.8877 17.8119 91.8875 17.8125L90.2709 21.0459C87.5117 11.3512 78.8229 4.53635 68.75 4.16663C67.5994 4.16663 66.6666 5.09944 66.6666 6.25002C66.6666 7.40061 67.5994 8.33342 68.75 8.33342C77.3524 8.78537 84.6227 14.8639 86.5916 23.25L82.1832 21.0459C81.1535 20.5317 79.9018 20.9494 79.3873 21.9793C78.8731 23.009 79.2908 24.2608 80.3207 24.7752L88.6541 28.9418C88.6832 28.9418 88.7125 28.9418 88.7416 28.9418C89.0028 29.0766 89.2899 29.1533 89.5832 29.1668C89.9627 29.1703 90.3354 29.0664 90.6582 28.8668L90.6957 28.8334C90.9709 28.6512 91.1983 28.4055 91.3582 28.1168C91.3832 28.0752 91.4291 28.0584 91.4498 28.0168L95.6164 19.6834C96.1346 18.6561 95.7219 17.4033 94.6948 16.885C94.691 16.883 94.6871 16.8811 94.6834 16.8791Z" fill="#455A64"/>
<path d="M66.6666 62.6459V50.1459C71.3541 50.7418 75 53.3 75 56.2625C75 57.4131 75.9328 58.3459 77.0834 58.3459C78.234 58.3459 79.1668 57.4131 79.1668 56.2625C79.1668 50.9291 73.8127 46.6791 66.6668 45.9916V43.75C66.6668 42.5994 65.734 41.6666 64.5834 41.6666C63.4328 41.6666 62.5 42.5994 62.5 43.75V45.9791C55.3541 46.6875 50 50.9166 50 56.25C50 61.5834 55.3541 65.8334 62.5 66.5209V79.0209C57.8125 78.425 54.1666 75.8668 54.1666 72.9043C54.1666 71.7537 53.2338 70.8209 52.0832 70.8209C50.9326 70.8209 49.9998 71.7537 49.9998 72.9043C49.9998 78.2377 55.3539 82.4877 62.4998 83.1752V85.4168C62.4998 86.5674 63.4326 87.5002 64.5832 87.5002C65.7338 87.5002 66.6666 86.5674 66.6666 85.4168V83.1875C73.8125 82.4791 79.1666 78.25 79.1666 72.9166C79.1666 67.5832 73.8125 63.3334 66.6666 62.6459ZM54.1666 56.25C54.1666 53.2875 57.8125 50.7291 62.5 50.1334V62.3709C57.8125 61.7709 54.1666 59.2125 54.1666 56.25ZM66.6666 79.0334V66.8C71.3541 67.3959 75 69.9541 75 72.9166C75 75.8791 71.3541 78.4375 66.6666 79.0334Z" fill="#FAFAFA"/>
<path d="M31.25 50C23.075 50 16.6666 45.4166 16.6666 39.5834V22.9168C16.6666 17.0834 23.075 12.5 31.25 12.5C39.425 12.5 45.8334 17.0834 45.8334 22.9166C45.8334 24.0672 44.9006 25 43.75 25C42.5994 25 41.6666 24.0672 41.6666 22.9166C41.6666 19.5291 36.8957 16.6666 31.25 16.6666C25.6043 16.6666 20.8334 19.5291 20.8334 22.9166V39.5832C20.8334 42.9707 25.6043 45.8332 31.25 45.8332C32.4006 45.8332 33.3334 46.766 33.3334 47.9166C33.3334 49.0672 32.4006 50 31.25 50Z" fill="#ECEFF1"/>
<path d="M35.4166 29.1666H14.5834C13.4328 29.1666 12.5 28.2338 12.5 27.0832C12.5 25.9326 13.4328 25 14.5834 25H35.4168C36.5674 25 37.5002 25.9328 37.5002 27.0834C37.5002 28.234 36.5672 29.1666 35.4166 29.1666Z" fill="#ECEFF1"/>
<path d="M35.4166 37.5H14.5834C13.4328 37.5 12.5 36.5672 12.5 35.4166C12.5 34.2661 13.4328 33.3333 14.5834 33.3333H35.4168C36.5674 33.3333 37.5002 34.2661 37.5002 35.4166C37.5 36.5672 36.5672 37.5 35.4166 37.5Z" fill="#ECEFF1"/>
</g>
<defs>
<clipPath id="clip0_7866_176">
<rect width="100" height="100" fill="white"/>
</clipPath>
</defs>
</svg>
