<svg height="512pt" viewBox="0 0 512 512" width="512pt" xmlns="http://www.w3.org/2000/svg"><path d="m512 256c0 50.3125-14.511719 97.238281-39.589844 136.808594-45.371094 71.636718-125.335937 119.191406-216.410156 119.191406-38.359375 0-74.730469-8.433594-107.394531-23.542969-9.089844-4.210937-17.898438-8.941406-26.375-14.148437-10.238281-6.277344-19.996094-13.269532-29.214844-20.894532-8.097656-6.679687-15.765625-13.855468-22.964844-21.472656-1.851562-1.945312-3.667969-3.929687-5.457031-5.9375-17.980469-20.226562-32.808594-43.332031-43.695312-68.535156-13.449219-31.105469-20.898438-65.417969-20.898438-101.46875 0-29.9375 5.140625-58.671875 14.578125-85.378906 35.160156-99.402344 129.972656-170.621094 241.421875-170.621094 141.386719 0 256 114.613281 256 256zm0 0" fill="#f4de6e"/><path d="m472.410156 177.695312v215.113282c-45.371094 71.636718-125.335937 119.191406-216.410156 119.191406-37.050781 0-72.246094-7.867188-104.039062-22.015625-1.121094-.5-2.238282-1.015625-3.355469-1.527344v-310.761719zm0 0" fill="#e8f1f5"/><g fill="#394852"><path d="m144.511719 7.019531c-1.578125-1.355469-3.667969-1.953125-5.726563-1.636719l-78.082031 12.015626c-3.480469.53125-6.046875 3.527343-6.046875 7.046874v64.683594c-3.296875-1.589844-6.988281-2.480468-10.886719-2.480468-13.871093 0-25.152343 11.28125-25.152343 25.152343 0 13.867188 11.28125 25.152344 25.152343 25.152344 13.867188 0 25.152344-11.285156 25.152344-25.152344v-58.75l63.816406-9.816406v33.878906c-3.296875-1.589843-6.992187-2.480469-10.886719-2.480469-13.871093 0-25.152343 11.285157-25.152343 25.152344 0 13.871094 11.28125 25.152344 25.152343 25.152344 13.867188 0 25.152344-11.28125 25.152344-25.152344v-87.351562c-.003906-2.082032-.910156-4.058594-2.492187-5.414063zm0 0"/><path d="m290.609375 59.570312v-22.484374c0-2.082032-.910156-4.058594-2.488281-5.414063s-3.667969-1.953125-5.730469-1.636719l-78.082031 12.011719c-3.476563.535156-6.046875 3.53125-6.046875 7.050781v64.683594c-3.296875-1.589844-6.988281-2.480469-10.886719-2.480469-13.867188 0-25.152344 11.28125-25.152344 25.152344 0 13.867187 11.285156 25.152344 25.152344 25.152344 13.871094 0 25.152344-11.285157 25.152344-25.152344v-58.75l63.816406-9.816406"/><path d="m435.835938 234.113281h-193.789063c-6.347656 0-11.496094 5.144531-11.496094 11.492188 0 6.347656 5.148438 11.496093 11.496094 11.496093h193.789063c6.347656 0 11.492187-5.148437 11.492187-11.496093 0-6.347657-5.144531-11.492188-11.492187-11.492188zm0 0"/><path d="m435.835938 281.828125h-193.789063c-6.347656 0-11.496094 5.148437-11.496094 11.496094 0 6.347656 5.148438 11.492187 11.496094 11.492187h193.789063c6.347656 0 11.492187-5.144531 11.492187-11.492187 0-6.347657-5.144531-11.496094-11.492187-11.496094zm0 0"/><path d="m435.835938 329.546875h-193.789063c-6.347656 0-11.496094 5.144531-11.496094 11.492187 0 6.347657 5.148438 11.496094 11.496094 11.496094h193.789063c6.347656 0 11.492187-5.148437 11.492187-11.496094 0-6.347656-5.144531-11.492187-11.492187-11.492187zm0 0"/><path d="m435.835938 377.261719h-193.789063c-6.347656 0-11.496094 5.148437-11.496094 11.496093 0 6.347657 5.148438 11.492188 11.496094 11.492188h193.789063c6.347656 0 11.492187-5.144531 11.492187-11.492188 0-6.347656-5.144531-11.496093-11.492187-11.496093zm0 0"/></g><path d="m472.410156 177.695312v48.753907h-198.15625c-16.394531 0-29.683594-13.289063-29.683594-29.683594v-19.070313zm0 0" fill="#c5d1d4"/><path d="m478.195312 210.773438h-203.941406c-16.394531 0-29.6875-13.292969-29.6875-29.6875v-134.980469c0-16.394531 13.292969-29.683594 29.6875-29.683594h203.941406c16.398438 0 29.6875 13.289063 29.6875 29.683594v134.980469c0 16.394531-13.292968 29.6875-29.6875 29.6875zm0 0" fill="#ea505f"/><path d="m274.253906 189.875c-4.847656 0-8.789062-3.945312-8.789062-8.789062v-134.980469c0-4.84375 3.941406-8.785157 8.789062-8.785157h203.941406c4.847657 0 8.789063 3.941407 8.789063 8.785157v134.980469c0 4.84375-3.941406 8.789062-8.789063 8.789062zm0 0" fill="#ff806d"/><path d="m419.117188 99.335938-58.871094-33.988282c-10.980469-6.339844-24.699219 1.582032-24.699219 14.257813v67.980469c0 12.675781 13.71875 20.597656 24.699219 14.261718l58.871094-33.992187c10.976562-6.335938 10.976562-22.183594 0-28.519531zm0 0" fill="#fff"/><path d="m346.90625 210.996094v250.777344c0 15.578124-12.632812 28.210937-28.210938 28.210937h-166.734374c-1.121094-.5-2.238282-1.015625-3.355469-1.527344v-305.671875h170.089843c15.578126 0 28.210938 12.632813 28.210938 28.210938zm0 0" fill="#c5d1d4"/><path d="m346.90625 195.324219v250.773437c0 15.578125-12.632812 28.210938-28.210938 28.210938h-196.464843c-10.238281-6.277344-19.996094-13.269532-29.214844-20.894532-8.097656-6.679687-15.765625-13.855468-22.964844-21.472656-1.851562-1.945312-3.667969-3.929687-5.457031-5.9375-17.980469-20.226562-32.808594-43.332031-43.695312-68.535156-13.449219-31.105469-20.898438-65.417969-20.898438-101.46875v-60.675781c0-10.636719 5.882812-19.894531 14.578125-24.703125 4.042969-2.234375 8.679687-3.511719 13.632813-3.511719h290.484374c15.578126 0 28.210938 12.632813 28.210938 28.214844zm0 0" fill="#1e7fca"/><path d="m326.007812 195.324219v250.773437c0 4.035156-3.28125 7.316406-7.3125 7.316406h-225.679687c-8.097656-6.679687-15.765625-13.855468-22.964844-21.472656-1.851562-1.945312-3.667969-3.929687-5.457031-5.9375-17.980469-20.226562-32.808594-43.332031-43.695312-68.535156v-162.144531c0-4.035157 3.28125-7.316407 7.3125-7.316407h290.484374c4.03125 0 7.3125 3.28125 7.3125 7.316407zm0 0" fill="#bfecf5"/><path d="m94.210938 421.878906h31.535156v31.535156h-31.535156zm0 0" fill="#f4de6e"/><path d="m156.640625 429.128906 3.53125 4.34375h-90.121094c-1.851562-1.941406-3.667969-3.925781-5.457031-5.933594l24.976562-30.75h-29.792968l29.792968-36.6875h-17.921874l38.328124-53.226562 20.25 28.128906 3.457032 4.792969 7.011718 9.742187 7.605469 10.5625h-17.917969l.867188 1.066407 28.921875 35.621093h-29.789063l4.105469 5.054688 19.757813 24.335938zm0 0" fill="#2c9e78"/><path d="m221.15625 421.878906h31.535156v31.535156h-31.535156zm0 0" fill="#f4de6e"/><path d="m257.332031 360.105469h17.917969l-38.328125-53.234375-38.328125 53.234375h17.921875l-29.792969 36.683593h29.792969l-29.792969 36.683594h100.398438l-29.789063-36.683594h29.789063zm0 0" fill="#2c9e78"/><path d="m154.25 415.015625h38.398438v38.398437h-38.398438zm0 0" fill="#f4de6e"/><path d="m198.296875 339.796875h21.824219l-46.671875-64.816406-46.667969 64.816406h21.820312l-36.273437 44.667969h36.273437l-36.273437 44.667968h122.246094l-36.277344-44.667968h36.277344zm0 0" fill="#60bf81"/><path d="m326.003906 195.320312v31.441407c-9.769531 18.757812-29.402344 31.554687-52.015625 31.554687-32.378906 0-58.628906-26.246094-58.628906-58.628906 0-4 .398437-7.910156 1.171875-11.679688h102.160156c4.03125 0 7.3125 3.28125 7.3125 7.3125zm0 0" fill="#f4de6e"/><path d="m147.183594 234.8125h-75.230469c-8.222656 0-14.886719-6.667969-14.886719-14.890625s6.664063-14.886719 14.886719-14.886719h75.230469c8.222656 0 14.886718 6.664063 14.886718 14.886719s-6.664062 14.890625-14.886718 14.890625zm0 0" fill="#fff"/><path d="m281.707031 280.003906h-75.226562c-8.222657 0-14.890625-6.667968-14.890625-14.890625 0-8.222656 6.667968-14.886719 14.890625-14.886719h75.226562c8.226563 0 14.890625 6.664063 14.890625 14.886719 0 8.222657-6.664062 14.890625-14.890625 14.890625zm0 0" fill="#fff"/></svg>