<svg width="100" height="100" viewBox="0 0 100 100" fill="none" xmlns="http://www.w3.org/2000/svg">
<path d="M0.499989 0.98002C0.765086 0.98002 0.979989 0.765116 0.979989 0.50002C0.979989 0.234923 0.765086 0.0200195 0.499989 0.0200195C0.234892 0.0200195 0.019989 0.234923 0.019989 0.50002C0.019989 0.765116 0.234892 0.98002 0.499989 0.98002Z" fill="white"/>
<path d="M50 21.25C44.3138 21.25 38.7553 22.9362 34.0274 26.0952C29.2995 29.2543 25.6145 33.7445 23.4385 38.9979C21.2625 44.2512 20.6931 50.0319 21.8024 55.6088C22.9118 61.1858 25.6499 66.3086 29.6707 70.3293C33.6915 74.3501 38.8142 77.0883 44.3912 78.1976C49.9681 79.3069 55.7488 78.7376 61.0022 76.5615C66.2555 74.3855 70.7457 70.7006 73.9048 65.9726C77.0639 61.2447 78.75 55.6862 78.75 50C78.7413 42.3777 75.7095 35.0701 70.3197 29.6803C64.9299 24.2905 57.6223 21.2587 50 21.25V21.25ZM64.0887 45.1119L51.1512 62.3619C51.0171 62.5406 50.8433 62.6857 50.6435 62.7856C50.4437 62.8855 50.2234 62.9375 50 62.9375C49.7766 62.9375 49.5563 62.8855 49.3565 62.7856C49.1567 62.6857 48.9829 62.5406 48.8489 62.3619L35.9114 45.1119C35.7514 44.8982 35.6541 44.6443 35.6304 44.3784C35.6066 44.1126 35.6573 43.8454 35.7768 43.6067C35.8963 43.368 36.0798 43.1673 36.3069 43.0271C36.534 42.8868 36.7956 42.8125 37.0625 42.8125H62.9375C63.2044 42.8125 63.4661 42.8868 63.6931 43.0271C63.9202 43.1673 64.1038 43.368 64.2233 43.6067C64.3427 43.8454 64.3934 44.1126 64.3697 44.3784C64.3459 44.6443 64.2486 44.8982 64.0887 45.1119Z" fill="#05224C"/>
</svg>
