<svg width="35" height="35" viewBox="0 0 35 35" fill="none" xmlns="http://www.w3.org/2000/svg">
<path d="M17.5 35C27.165 35 35 27.165 35 17.5C35 7.83502 27.165 0 17.5 0C7.83502 0 0 7.83502 0 17.5C0 27.165 7.83502 35 17.5 35Z" fill="#FFEDED"/>
<path d="M11.375 5.48924H23.625V9.37957H11.375V5.48924Z" fill="#DB3328"/>
<path d="M11.375 5.48924H20.7204V9.37957H11.375V5.48924Z" fill="#E67368"/>
<path d="M23.6251 7.5947H11.3751L8.83893 23.735H21.0889L23.6251 7.5947Z" fill="#DB3328"/>
<path d="M19.352 16.2797L20.7206 7.5947H11.3751L9.33667 20.5625H14.3467C16.8446 20.5625 18.9644 18.7489 19.352 16.2797V16.2797Z" fill="#E67368"/>
<path d="M26.1611 23.735H21.0889L23.625 7.5947L26.1611 23.735Z" fill="#B5100B"/>
<path d="M26.1611 23.7351H21.0889L23.625 19.4141L26.1611 23.7351Z" fill="#DB3328"/>
<path d="M19.2707 8.83885C18.4764 8.83885 17.8351 9.48006 17.8351 10.2744V11.7099C17.8351 12.2124 18.2419 12.6191 18.7443 12.6191L18.5338 17.9785C18.5194 18.3948 18.8496 18.7441 19.2707 18.7441C19.687 18.7441 20.022 18.3948 20.0076 17.9785L19.7971 12.6191C20.2995 12.6191 20.7062 12.2124 20.7062 11.7099V10.2744C20.7062 9.48006 20.065 8.83885 19.2707 8.83885Z" fill="#EBEADF"/>
<path d="M15.4904 8.85799V11.1836H15.0118V8.83885H14.5333V11.1836H14.0548V8.85799C13.6241 8.94413 13.337 9.3078 13.337 9.74803V11.7099C13.337 12.2124 13.7438 12.6191 14.2462 12.6191L14.0357 17.9785C14.0213 18.3948 14.3515 18.7441 14.7726 18.7441C15.1937 18.7441 15.5239 18.3948 15.5095 17.9785L15.299 12.6191C15.8014 12.6191 16.2081 12.2124 16.2081 11.7099V9.74803C16.2081 9.31258 15.921 8.94891 15.4904 8.85799Z" fill="#EBEADF"/>
<path d="M17.1029 23.7206L21.309 22.3234L21.5866 20.5529L14.7007 23.7206H17.1029Z" fill="#B5100B"/>
<path d="M28.2427 23.4097L24.9362 26.3477L18.8399 28.0608H14.7055H8.83893L5.48932 29.5107V23.9121L8.83893 22.4766L11.0927 21.2133C12.1981 20.596 13.4422 20.2706 14.7055 20.2706L20.5673 19.5624C21.2133 19.4858 21.7828 19.9883 21.7828 20.6391C21.7828 21.108 21.4813 21.5243 21.0363 21.6679L14.7055 23.7351H21.7732L25.7066 21.9023L25.8214 21.6727C26.5297 20.285 27.9556 19.4141 29.5108 19.4141L28.2427 23.4097Z" fill="#F9DBBF"/>
<path d="M14.7007 23.735L21.0315 21.6678C21.4765 21.5243 21.778 21.108 21.778 20.639L17.1699 21.5003C16.3755 21.6487 15.6817 22.1272 15.2558 22.821L14.7007 23.735Z" fill="#F7C8A9"/>
<path d="M8.83893 28.0751C11.3655 26.9602 14.093 26.3812 16.8541 26.3764L24.9362 26.3621L18.8399 28.0751H8.83893Z" fill="#F7C8A9"/>
</svg>
