<svg width="25" height="22" viewBox="0 0 25 22" fill="none" xmlns="http://www.w3.org/2000/svg">
<path d="M18.4805 10.4972L18.4805 2.13419C16.1748 2.13419 14.2989 4.01 14.2989 6.31571C14.2989 8.62142 16.1748 10.4972 18.4805 10.4972Z" fill="#9BC9FF"/>
<path d="M22.6619 6.31571C22.6619 4.01 20.7861 2.13419 18.4804 2.13419L18.4804 10.4972C20.7861 10.4972 22.6619 8.62136 22.6619 6.31571Z" fill="#57A4FF"/>
<path d="M25 17.9955C25 14.4006 22.0754 11.4759 18.4804 11.4759C16.6146 11.4759 14.8812 12.2629 13.6638 13.6014C15.3653 14.9777 16.5203 17.004 16.7468 19.2994L25 19.2994L25 17.9955Z" fill="#9BC9FF"/>
<path d="M13.6638 13.6011C12.2221 12.4349 10.3883 11.7353 8.39392 11.7353L8.39392 21.4338L16.7879 21.4338L16.7879 20.1299C16.7879 19.8496 16.7738 19.5725 16.7468 19.2992C16.5203 17.0038 15.3653 14.9774 13.6638 13.6011Z" fill="#003F8A"/>
<path d="M13.6096 5.21565C13.6096 2.33987 11.2697 7.27011e-09 8.39392 0L8.39392 10.4313C11.2697 10.4313 13.6096 8.09208 13.6096 5.21565Z" fill="#003F8A"/>
<path d="M3.12411 13.6012C1.42264 14.9775 0.267628 17.0038 0.0410731 19.2992C0.0140821 19.5725 -8.89339e-09 19.8496 -9.20058e-09 20.1299L-1.06297e-08 21.4338L8.39395 21.4338L8.39395 11.7353C6.39968 11.7354 4.56585 12.435 3.12411 13.6012Z" fill="#005ECE"/>
<path d="M8.39394 10.4313L8.39394 -7.68629e-10C5.51816 -3.44826e-10 3.17828 2.33987 3.17828 5.21565C3.17828 8.09208 5.51816 10.4313 8.39394 10.4313Z" fill="#005ECE"/>
</svg>
