<svg width="33" height="33" viewBox="0 0 33 33" fill="none" xmlns="http://www.w3.org/2000/svg">
<path d="M2.0625 5.15625H30.9375C32.0765 5.15625 33 6.07974 33 7.21875V25.7812C33 26.9203 32.0765 27.8438 30.9375 27.8438H2.0625C0.923492 27.8438 0 26.9203 0 25.7812V7.21875C0 6.07974 0.923492 5.15625 2.0625 5.15625Z" fill="#6CB9F6"/>
<path d="M11.8594 11.3438C11.8594 13.3373 10.2435 14.9531 8.25 14.9531C6.25648 14.9531 4.64062 13.3373 4.64062 11.3438C4.64062 9.35023 6.25648 7.73438 8.25 7.73438C10.2435 7.73438 11.8594 9.35023 11.8594 11.3438Z" fill="#E4EDFB"/>
<path d="M14.4375 23.7188H2.0625V20.625C2.0625 18.9165 3.44774 17.5312 5.15625 17.5312H11.3438C13.0523 17.5312 14.4375 18.9165 14.4375 20.625V23.7188Z" fill="#E4EDFB"/>
<path d="M17.5312 9.28125H29.9062C30.4758 9.28125 30.9375 9.743 30.9375 10.3125C30.9375 10.882 30.4758 11.3438 29.9062 11.3438H17.5312C16.9617 11.3438 16.5 10.882 16.5 10.3125C16.5 9.743 16.9617 9.28125 17.5312 9.28125Z" fill="#5A90FF"/>
<path d="M17.5312 13.4062H19.5938C20.1633 13.4062 20.625 13.868 20.625 14.4375C20.625 15.007 20.1633 15.4688 19.5938 15.4688H17.5312C16.9617 15.4688 16.5 15.007 16.5 14.4375C16.5 13.868 16.9617 13.4062 17.5312 13.4062Z" fill="#5A90FF"/>
<path d="M23.7188 13.4062H29.9062C30.4758 13.4062 30.9375 13.868 30.9375 14.4375C30.9375 15.007 30.4758 15.4688 29.9062 15.4688H23.7188C23.1492 15.4688 22.6875 15.007 22.6875 14.4375C22.6875 13.868 23.1492 13.4062 23.7188 13.4062Z" fill="#5A90FF"/>
<path d="M17.5312 17.5312H19.5938C20.1633 17.5312 20.625 17.993 20.625 18.5625C20.625 19.132 20.1633 19.5938 19.5938 19.5938H17.5312C16.9617 19.5938 16.5 19.132 16.5 18.5625C16.5 17.993 16.9617 17.5312 17.5312 17.5312Z" fill="#5A90FF"/>
<path d="M23.7188 17.5312H29.9062C30.4758 17.5312 30.9375 17.993 30.9375 18.5625C30.9375 19.132 30.4758 19.5938 29.9062 19.5938H23.7188C23.1492 19.5938 22.6875 19.132 22.6875 18.5625C22.6875 17.993 23.1492 17.5312 23.7188 17.5312Z" fill="#5A90FF"/>
<path d="M24.75 21.6562H26.8125V23.7188H24.75V21.6562Z" fill="white"/>
<path d="M20.625 21.6562H22.6875V23.7188H20.625V21.6562Z" fill="white"/>
<path d="M16.5 21.6562H18.5625V23.7188H16.5V21.6562Z" fill="white"/>
</svg>
