<svg width="35" height="35" viewBox="0 0 35 35" fill="none" xmlns="http://www.w3.org/2000/svg">
<path d="M3.75977 9.08058L3.69141 8.77379C1.83777 11.4691 0.751953 14.7335 0.751953 18.2519C0.751953 21.7704 1.83777 25.0348 3.69141 27.7301L3.75977 27.4051V9.08058Z" fill="#B3DAFE"/>
<path d="M31.3086 8.77379L31.2402 9.22038V27.2289L31.3086 27.7302C33.1622 25.0348 34.248 21.7705 34.248 18.252C34.248 14.7336 33.1622 11.4691 31.3086 8.77379Z" fill="#B3DAFE"/>
<path d="M8.35154 32.0605L8.12048 32.1289C10.7965 33.9412 14.0246 35 17.5 35C20.9754 35 24.2034 33.9412 26.8795 32.1289L26.6416 32.0605H8.35154Z" fill="#B3DAFE"/>
<path d="M24.7835 30.4585C24.743 30.418 24.7319 30.3623 24.7537 30.3094C24.7756 30.2565 24.8229 30.225 24.8801 30.225H26.3901C26.5409 30.225 26.6635 30.1023 26.6635 29.9515V23.8226C26.6635 23.6718 26.7861 23.5491 26.9369 23.5491H29.5963C29.7471 23.5491 29.8697 23.6718 29.8697 23.8226V29.9515C29.8697 30.1023 29.9923 30.225 30.1431 30.225H31.3086V4.0332L30.8665 3.96484H4.16992L3.69141 4.0332V27.7301C4.87983 29.4582 6.38347 30.9526 8.12048 32.1289H26.4571L24.7835 30.4585Z" fill="#F3F0FF"/>
<path d="M31.6532 30.1567H30.1432C30.0299 30.1567 29.9381 30.0649 29.9381 29.9516V23.8226C29.9381 23.6338 29.785 23.4808 29.5963 23.4808H26.937C26.7483 23.4808 26.5952 23.6338 26.5952 23.8226V29.9516C26.5952 30.0649 26.5034 30.1567 26.3902 30.1567H24.8801C24.6973 30.1567 24.6058 30.3777 24.7353 30.5069L28.0252 33.7907C28.1586 33.9239 28.3747 33.9239 28.5081 33.7907L31.7981 30.5069C31.9274 30.3777 31.836 30.1567 31.6532 30.1567Z" fill="#4FC123"/>
<path d="M25.507 31.2772H27.5106C27.6239 31.2772 27.7157 31.1854 27.7157 31.0721V24.9431C27.7157 24.7544 27.8688 24.6013 28.0575 24.6013H29.938V23.8226C29.938 23.6338 29.7849 23.4808 29.5962 23.4808H26.937C26.7482 23.4808 26.5952 23.6338 26.5952 23.8226V29.9516C26.5952 30.0649 26.5034 30.1567 26.3901 30.1567H24.8801C24.6973 30.1567 24.6058 30.3777 24.7353 30.5069L25.507 31.2772Z" fill="#47A920"/>
<path d="M3.69141 4.0332V27.7301C4.64263 29.1133 5.79626 30.3462 7.10938 31.3867V4.0332H3.69141Z" fill="#E2DEFF"/>
<path d="M30.2832 0H4.7168C4.15051 0 3.69141 0.459102 3.69141 1.02539V4.0332H31.3086V1.02539C31.3086 0.459102 30.8495 0 30.2832 0Z" fill="#0182FC"/>
<path d="M8.13477 0H4.7168C4.15051 0 3.69141 0.459102 3.69141 1.02539V4.0332H7.10938V1.02539C7.10938 0.459102 7.56848 0 8.13477 0Z" fill="#0172FB"/>
<path d="M29.2236 2.25586C29.5068 2.25586 29.7363 2.02632 29.7363 1.74316C29.7363 1.46001 29.5068 1.23047 29.2236 1.23047C28.9405 1.23047 28.7109 1.46001 28.7109 1.74316C28.7109 2.02632 28.9405 2.25586 29.2236 2.25586Z" fill="white"/>
<path d="M5.77637 2.25586C6.05952 2.25586 6.28906 2.02632 6.28906 1.74316C6.28906 1.46001 6.05952 1.23047 5.77637 1.23047C5.49321 1.23047 5.26367 1.46001 5.26367 1.74316C5.26367 2.02632 5.49321 2.25586 5.77637 2.25586Z" fill="#FD4755"/>
<path d="M7.28027 2.25586C7.56343 2.25586 7.79297 2.02632 7.79297 1.74316C7.79297 1.46001 7.56343 1.23047 7.28027 1.23047C6.99712 1.23047 6.76758 1.46001 6.76758 1.74316C6.76758 2.02632 6.99712 2.25586 7.28027 2.25586Z" fill="#FEE45A"/>
<path d="M8.78418 2.25586C9.06733 2.25586 9.29688 2.02632 9.29688 1.74316C9.29688 1.46001 9.06733 1.23047 8.78418 1.23047C8.50103 1.23047 8.27148 1.46001 8.27148 1.74316C8.27148 2.02632 8.50103 2.25586 8.78418 2.25586Z" fill="#4FC123"/>
<path d="M24.7461 26.6943H19.5886C19.3054 26.6943 19.0759 26.4649 19.0759 26.1816C19.0759 25.8984 19.3054 25.6689 19.5886 25.6689H24.7461C25.0293 25.6689 25.2588 25.8984 25.2588 26.1816C25.2588 26.4649 25.0293 26.6943 24.7461 26.6943Z" fill="#CFCAE4"/>
<path d="M24.7461 17.4622H19.5886C19.3054 17.4622 19.0759 17.2327 19.0759 16.9495C19.0759 16.6663 19.3054 16.4368 19.5886 16.4368H24.7461C25.0293 16.4368 25.2588 16.6663 25.2588 16.9495C25.2588 17.2327 25.0293 17.4622 24.7461 17.4622Z" fill="#CFCAE4"/>
<path d="M24.7461 19.5975H19.5886C19.3054 19.5975 19.0759 19.3681 19.0759 19.0849C19.0759 18.8016 19.3054 18.5722 19.5886 18.5722H24.7461C25.0293 18.5722 25.2588 18.8016 25.2588 19.0849C25.2588 19.3681 25.0293 19.5975 24.7461 19.5975Z" fill="#CFCAE4"/>
<path d="M24.7461 21.7329H19.5886C19.3054 21.7329 19.0759 21.5034 19.0759 21.2202C19.0759 20.937 19.3054 20.7075 19.5886 20.7075H24.7461C25.0293 20.7075 25.2588 20.937 25.2588 21.2202C25.2588 21.5034 25.0293 21.7329 24.7461 21.7329Z" fill="#CFCAE4"/>
<path d="M24.7461 23.8682H19.5886C19.3054 23.8682 19.0759 23.6387 19.0759 23.3555C19.0759 23.0723 19.3054 22.8428 19.5886 22.8428H24.7461C25.0293 22.8428 25.2588 23.0723 25.2588 23.3555C25.2588 23.6387 25.0293 23.8682 24.7461 23.8682Z" fill="#CFCAE4"/>
<path d="M17.0898 17.4622H10.2539C9.97069 17.4622 9.74121 17.2327 9.74121 16.9495C9.74121 16.6663 9.97069 16.4368 10.2539 16.4368H17.0898C17.3731 16.4368 17.6025 16.6663 17.6025 16.9495C17.6025 17.2327 17.3731 17.4622 17.0898 17.4622Z" fill="#B5ADD5"/>
<path d="M17.0898 19.5975H10.2539C9.97069 19.5975 9.74121 19.3681 9.74121 19.0849C9.74121 18.8016 9.97069 18.5722 10.2539 18.5722H17.0898C17.3731 18.5722 17.6025 18.8016 17.6025 19.0849C17.6025 19.3681 17.3731 19.5975 17.0898 19.5975Z" fill="#B5ADD5"/>
<path d="M17.0898 21.7329H10.2539C9.97069 21.7329 9.74121 21.5034 9.74121 21.2202C9.74121 20.937 9.97069 20.7075 10.2539 20.7075H17.0898C17.3731 20.7075 17.6025 20.937 17.6025 21.2202C17.6025 21.5034 17.3731 21.7329 17.0898 21.7329Z" fill="#B5ADD5"/>
<path d="M17.0898 23.8682H10.2539C9.97069 23.8682 9.74121 23.6387 9.74121 23.3555C9.74121 23.0723 9.97069 22.8428 10.2539 22.8428H17.0898C17.3731 22.8428 17.6025 23.0723 17.6025 23.3555C17.6025 23.6387 17.3731 23.8682 17.0898 23.8682Z" fill="#B5ADD5"/>
<path d="M17.5 12.8104C19.4141 12.8104 20.9657 11.2587 20.9657 9.34466C20.9657 7.43058 19.4141 5.87891 17.5 5.87891C15.5859 5.87891 14.0342 7.43058 14.0342 9.34466C14.0342 11.2587 15.5859 12.8104 17.5 12.8104Z" fill="#FED402"/>
<path d="M15.5587 9.34466C15.5587 7.69255 16.7151 6.31142 18.2623 5.96401C18.0169 5.90892 17.762 5.87891 17.5 5.87891C15.5859 5.87891 14.0342 7.43053 14.0342 9.34466C14.0342 11.2588 15.5859 12.8104 17.5 12.8104C17.762 12.8104 18.0169 12.7804 18.2622 12.7253C16.715 12.3779 15.5587 10.9968 15.5587 9.34466Z" fill="#FAC600"/>
<path d="M19.0426 9.98553C19.0426 9.40085 18.6307 8.80907 17.8432 8.80907H17.1566C17.0917 8.80907 16.9827 8.78945 16.9827 8.65806C16.9827 8.53447 16.9984 8.48415 17.1566 8.48415H18.3168C18.6 8.48415 18.8295 8.25467 18.8295 7.97146C18.8295 7.68824 18.6 7.45876 18.3168 7.45876H18.0127V7.44502C18.0127 7.16181 17.7832 6.93233 17.5 6.93233C17.2168 6.93233 16.9873 7.16181 16.9873 7.44502V7.46984C16.3732 7.54264 15.9574 8.01008 15.9574 8.65806C15.9574 9.22838 16.3777 9.83446 17.1567 9.83446H17.8433C18.0173 9.83446 18.0173 9.93645 18.0173 9.98553C18.0173 10.153 17.9976 10.1594 17.8433 10.1594H16.6477C16.3645 10.1594 16.135 10.3889 16.135 10.6721C16.135 10.9553 16.3645 11.1848 16.6477 11.1848H16.9874V11.2443C16.9874 11.5275 17.2169 11.757 17.5001 11.757C17.7833 11.757 18.0128 11.5275 18.0128 11.2443V11.1748C18.6436 11.1066 19.0426 10.6557 19.0426 9.98553Z" fill="#D7AA02"/>
<path d="M26.8652 14.9579H8.13477C7.85155 14.9579 7.62207 14.7284 7.62207 14.4452C7.62207 14.162 7.85155 13.9325 8.13477 13.9325H26.8652C27.1484 13.9325 27.3779 14.162 27.3779 14.4452C27.3779 14.7284 27.1484 14.9579 26.8652 14.9579Z" fill="#B5ADD5"/>
<path d="M11.4496 10.637C12.0984 10.637 12.6244 10.111 12.6244 9.46216C12.6244 8.81332 12.0984 8.28734 11.4496 8.28734C10.8008 8.28734 10.2748 8.81332 10.2748 9.46216C10.2748 10.111 10.8008 10.637 11.4496 10.637Z" fill="#D7AA02"/>
<path d="M23.5504 10.637C24.1993 10.637 24.7253 10.111 24.7253 9.46216C24.7253 8.81332 24.1993 8.28734 23.5504 8.28734C22.9016 8.28734 22.3756 8.81332 22.3756 9.46216C22.3756 10.111 22.9016 10.637 23.5504 10.637Z" fill="#D7AA02"/>
<path d="M11.3477 31.1719C13.0466 31.1719 14.4238 29.7946 14.4238 28.0957C14.4238 26.3968 13.0466 25.0195 11.3477 25.0195C9.64873 25.0195 8.27148 26.3968 8.27148 28.0957C8.27148 29.7946 9.64873 31.1719 11.3477 31.1719Z" fill="#FED402"/>
<path d="M10.3906 28.0957C10.3906 26.7691 11.2304 25.6387 12.4072 25.2069C12.0769 25.0857 11.72 25.0195 11.3477 25.0195C9.64872 25.0195 8.27148 26.3968 8.27148 28.0957C8.27148 29.7946 9.64872 31.1719 11.3477 31.1719C11.72 31.1719 12.0769 31.1057 12.4072 30.9845C11.2304 30.5527 10.3906 29.4223 10.3906 28.0957Z" fill="#FAC600"/>
<path d="M11.1771 29.7031C11.0459 29.7031 10.9147 29.6531 10.8145 29.553L9.51803 28.2565C9.3178 28.0562 9.3178 27.7316 9.51803 27.5314C9.71832 27.3312 10.0429 27.3312 10.2431 27.5314L11.177 28.4654L12.6315 27.0108C12.8318 26.8107 13.1564 26.8107 13.3566 27.0108C13.5568 27.2111 13.5568 27.5357 13.3566 27.7359L11.5396 29.553C11.4395 29.653 11.3083 29.7031 11.1771 29.7031Z" fill="#47A920"/>
</svg>
