<svg width="28" height="28" viewBox="0 0 28 28" fill="none" xmlns="http://www.w3.org/2000/svg">
<path d="M2.50346 9.25287V23.9485C2.50346 24.8146 2.81947 25.6452 3.38197 26.2577C3.94447 26.8701 4.70738 27.2142 5.50288 27.2142H22.4996C23.2951 27.2142 24.058 26.8701 24.6205 26.2577C25.183 25.6452 25.499 24.8146 25.499 23.9485V9.25287H2.50346Z" fill="#9BC9FF"/>
<path d="M25.499 9.25287V23.9485C25.499 24.8146 25.183 25.6452 24.6205 26.2577C24.058 26.8701 23.2951 27.2142 22.4996 27.2142H14.0013V9.25287H25.499Z" fill="url(#paint0_linear_6860_1143)"/>
<path d="M19.0002 14.1513H9.00219C8.73702 14.1513 8.48272 14.266 8.29522 14.4701C8.10772 14.6743 8.00238 14.9512 8.00238 15.2399V20.1384C8.00238 20.4271 8.10772 20.704 8.29522 20.9081C8.48272 21.1122 8.73702 21.2269 9.00219 21.2269H19.0002C19.2654 21.2269 19.5197 21.1122 19.7072 20.9081C19.8947 20.704 20 20.4271 20 20.1384V15.2399C20 14.9512 19.8947 14.6743 19.7072 14.4701C19.5197 14.266 19.2654 14.1513 19.0002 14.1513Z" fill="#0064F4"/>
<path d="M27.8635 9.25288C27.7759 9.4182 27.6498 9.55552 27.498 9.65105C27.3462 9.74658 27.174 9.79697 26.9987 9.79717H1.00378C0.827944 9.79793 0.65503 9.74819 0.502487 9.65296C0.349943 9.55773 0.223165 9.42038 0.134942 9.25476C0.0467201 9.08915 0.000174207 8.90113 4.88055e-07 8.70968C-0.000173231 8.51823 0.0460315 8.33011 0.133953 8.16431L4.13317 0.544295C4.22126 0.378174 4.3481 0.240345 4.50084 0.144765C4.65359 0.0491848 4.82683 -0.00075295 5.003 8.5811e-06H22.9995C23.1757 -0.00075295 23.3489 0.0491848 23.5016 0.144765C23.6544 0.240345 23.7812 0.378174 23.8693 0.544295L27.8685 8.16431C27.9555 8.33027 28.0009 8.51824 28 8.70933C27.9991 8.90041 27.952 9.08788 27.8635 9.25288V9.25288Z" fill="#0064F4"/>
<path d="M27.8635 9.25284C27.7759 9.41815 27.6498 9.55547 27.498 9.651C27.3462 9.74653 27.174 9.79692 26.9987 9.79712H14.0013V8.58105e-06H22.9995C23.1757 -0.000752946 23.3489 0.0491845 23.5017 0.144764C23.6544 0.240344 23.7812 0.378172 23.8693 0.544292L27.8685 8.16427C27.9555 8.33023 28.0009 8.5182 28 8.70928C27.9991 8.90036 27.9521 9.08783 27.8635 9.25284V9.25284Z" fill="url(#paint1_linear_6860_1143)"/>
<path d="M20.0001 15.2399V20.1384C20.0001 20.4271 19.8947 20.704 19.7072 20.9081C19.5197 21.1122 19.2654 21.2269 19.0003 21.2269H14.0013V14.1513H19.0003C19.2654 14.1513 19.5197 14.266 19.7072 14.4701C19.8947 14.6743 20.0001 14.9512 20.0001 15.2399Z" fill="url(#paint2_linear_6860_1143)"/>
<defs>
<linearGradient id="paint0_linear_6860_1143" x1="25.684" y1="18.2335" x2="13.9963" y2="18.2335" gradientUnits="userSpaceOnUse">
<stop stop-color="#57A4FF"/>
<stop offset="1" stop-color="#25B8F2"/>
</linearGradient>
<linearGradient id="paint1_linear_6860_1143" x1="28.1235" y1="4.89856" x2="14.0762" y2="4.89856" gradientUnits="userSpaceOnUse">
<stop stop-color="#005ECE"/>
<stop offset="0.81" stop-color="#2B39C5"/>
</linearGradient>
<linearGradient id="paint2_linear_6860_1143" x1="279.149" y1="293.638" x2="205.964" y2="293.638" gradientUnits="userSpaceOnUse">
<stop stop-color="#003F8A"/>
<stop offset="0.81" stop-color="#2B39C5"/>
</linearGradient>
</defs>
</svg>
