<svg width="29" height="29" viewBox="0 0 29 29" fill="none" xmlns="http://www.w3.org/2000/svg">
<path d="M14.5 0L1.75085 3.63774V10.0293C1.75085 18.2397 6.62954 25.6342 14.16 28.8639L14.5 29L14.8399 28.8639C22.3704 25.6342 27.2491 18.2397 27.2491 10.0293V3.63774L14.5 0Z" fill="#8DB3FF"/>
<path d="M27.2491 3.63774V10.0293C27.2491 18.2397 22.3704 25.6342 14.84 28.8639L14.5 29V0L27.2491 3.63774Z" fill="#BFD7EA"/>
<path d="M14.5 3.53577L5.15063 6.20462V10.0293C5.15063 16.3188 8.58447 22.0645 14.092 25.0563L14.5 25.2773L14.908 25.0563C20.4156 22.0645 23.8494 16.3189 23.8494 10.0293V6.20462L14.5 3.53577Z" fill="#248DE8"/>
<path d="M23.8493 6.20462V10.0293C23.8493 16.3188 20.4155 22.0645 14.9079 25.0563L14.5 25.2772V3.53577L23.8493 6.20462Z" fill="#8DB3FF"/>
</svg>
