<svg width="35" height="35" viewBox="0 0 35 35" fill="none" xmlns="http://www.w3.org/2000/svg">
<path d="M0 7.64531V31.8955C0 33.2702 1.11431 34.3845 2.48898 34.3845H25.1074C26.4823 34.3845 27.5964 33.2702 27.5964 31.8955V7.64531H0Z" fill="#C9B77D"/>
<path d="M10.7685 7.64531V12.497H10.9931C11.0369 12.2999 11.2123 12.1522 11.4224 12.1522C11.6329 12.1522 11.808 12.2999 11.8518 12.497H12.1805C12.2243 12.2999 12.3998 12.1522 12.6102 12.1522C12.8203 12.1522 12.9958 12.2999 13.0396 12.497H13.3683C13.4121 12.2999 13.5872 12.1522 13.7977 12.1522C14.0078 12.1522 14.1833 12.2999 14.2271 12.497H14.5558C14.5996 12.2999 14.775 12.1522 14.9851 12.1522C15.1956 12.1522 15.3707 12.2999 15.4145 12.497H15.7432C15.787 12.2999 15.9625 12.1522 16.1729 12.1522C16.383 12.1522 16.5585 12.2999 16.6023 12.497H16.8268V7.64531H10.7685Z" fill="#99734A"/>
<path d="M25.6228 2.28497C25.2532 1.28174 24.298 0.615234 23.2288 0.615234H4.41692C3.34801 0.615234 2.39258 1.28174 2.02301 2.28497L0 7.6453H27.5964L25.6228 2.28497Z" fill="#FFEEAD"/>
<path d="M16.2551 0.615509H11.3485L10.773 7.64531H16.8156L16.2551 0.615509Z" fill="#C9B77D"/>
<path d="M16.6033 29.5326C16.5595 29.7297 16.3843 29.8773 16.1739 29.8773C15.9638 29.8773 15.7883 29.7297 15.7445 29.5326H15.4158C15.372 29.7297 15.1966 29.8773 14.9865 29.8773C14.776 29.8773 14.6009 29.7297 14.5571 29.5326H14.2284C14.1843 29.7297 14.0091 29.8773 13.7987 29.8773C13.5886 29.8773 13.4131 29.7297 13.3693 29.5326H13.0406C12.9968 29.7297 12.8216 29.8773 12.6112 29.8773C12.4011 29.8773 12.2256 29.7297 12.1818 29.5326H11.8531C11.8093 29.7297 11.6339 29.8773 11.4238 29.8773C11.2133 29.8773 11.0382 29.7297 10.9944 29.5326H10.7695V34.3842H16.8295V29.5326H16.6033Z" fill="#99734A"/>
<path d="M6.55981 14.4027L5.3718 12.2742C5.2535 12.0628 4.93414 12.0628 4.81611 12.2742L3.62783 14.4027C3.51675 14.6017 3.66869 14.8412 3.90554 14.8412H4.45562V15.5734C4.45562 15.7384 4.59661 15.8719 4.76992 15.8719H5.41746C5.59103 15.8719 5.73175 15.7384 5.73175 15.5734V14.8412H6.2821C6.51922 14.8412 6.67089 14.6017 6.55981 14.4027Z" fill="#99734A"/>
<path d="M7.22738 25.6115L6.67837 24.8006L6.83725 24.7029C6.98812 24.6097 6.97477 24.3862 6.81375 24.3117L6.05833 23.9637C6.02762 23.9496 5.99611 23.9429 5.96513 23.9429C5.85111 23.9429 5.74751 24.0326 5.74297 24.1578L5.71413 24.9888C5.70959 25.1226 5.81827 25.2193 5.93656 25.2193C5.97555 25.2193 6.01534 25.2089 6.05245 25.1859L6.26447 25.0553L6.82283 25.8807H5.86019C5.89037 25.9405 5.91013 26.006 5.91226 26.0756C5.9152 26.1827 5.87995 26.2837 5.818 26.3667H6.8231C7.00201 26.3667 7.16676 26.2682 7.25141 26.1104C7.33579 25.9525 7.32645 25.7608 7.22738 25.6115Z" fill="#99734A"/>
<path d="M5.49842 23.0126C5.40817 22.8772 5.2565 22.7957 5.09387 22.7957C4.93125 22.7957 4.77958 22.8772 4.68933 23.0126L4.12643 23.8489L3.94992 23.7319C3.9112 23.7063 3.86901 23.6945 3.82789 23.6945C3.71227 23.6945 3.60465 23.7867 3.60492 23.9175L3.60652 24.7493C3.60679 24.8772 3.71146 24.9712 3.82869 24.9712C3.85726 24.9712 3.88664 24.9659 3.91521 24.9536L4.68185 24.6305C4.84527 24.5616 4.86637 24.3384 4.71816 24.2406L4.53151 24.117L5.09387 23.2812L5.54729 23.9632C5.62126 23.8096 5.7756 23.7047 5.95665 23.7012L5.49842 23.0126Z" fill="#99734A"/>
<path d="M5.56435 25.901L4.85833 25.4612C4.82095 25.438 4.78062 25.4273 4.74137 25.4273C4.62334 25.4273 4.51466 25.5234 4.51867 25.6564L4.52534 25.8804H3.3651L3.81077 25.2105C3.63106 25.2033 3.47806 25.0954 3.40729 24.9402L2.96082 25.6115C2.86149 25.7608 2.85241 25.9523 2.93705 26.1101C3.0217 26.2682 3.18619 26.3664 3.3651 26.3664H4.54003L4.54644 26.5774C4.55018 26.7056 4.65619 26.7931 4.76914 26.7931C4.8124 26.7931 4.85673 26.7803 4.89705 26.7518L5.5753 26.2706C5.70508 26.1792 5.6992 25.9851 5.56435 25.901Z" fill="#99734A"/>
<path d="M4.71413 17.8108H4.71253C3.83027 17.8108 3.10822 18.5016 3.0687 19.3842C3.06549 19.4509 3.09006 19.518 3.13626 19.5674C3.18245 19.6165 3.24761 19.6453 3.31517 19.6461L4.46152 19.6632L4.44123 21.122C4.4244 21.1813 4.3726 21.2101 4.28395 21.2101C4.18141 21.2085 4.14456 21.177 4.14402 21.1049C4.14589 20.969 4.03534 20.8547 3.89729 20.8528C3.76778 20.868 3.64468 20.9594 3.64281 21.1001C3.64254 21.1143 3.64148 21.2526 3.71464 21.3946C3.81771 21.5949 4.01104 21.7076 4.25911 21.7113C4.73175 21.7113 4.90719 21.3778 4.9387 21.181L4.96247 19.671L6.10535 19.688C6.17611 19.688 6.23887 19.6619 6.2864 19.6149C6.33366 19.5674 6.36063 19.5011 6.35956 19.4336C6.34568 18.5369 5.62283 17.8242 4.71413 17.8108ZM4.79557 19.1668C4.77101 19.1585 4.74564 19.154 4.71947 19.1537C4.6925 19.1537 4.66767 19.1575 4.64417 19.1644L3.6105 19.1489C3.74749 18.6576 4.2009 18.312 4.73175 18.312C5.26101 18.3201 5.70401 18.6792 5.8255 19.182L4.79557 19.1668Z" fill="#99734A"/>
<path d="M16.6196 7.64531C14.5515 9.50757 13.2433 12.1971 13.2433 15.199C13.2433 20.817 17.7977 25.3712 23.4155 25.3712C24.9076 25.3712 26.32 25.0422 27.5964 24.4652V7.64531H16.6196Z" fill="#AA9865"/>
<path d="M16.6196 7.64531C15.2796 8.85175 14.2617 10.4067 13.709 12.168C13.7386 12.1616 13.7669 12.1525 13.7982 12.1525C14.0086 12.1525 14.184 12.3002 14.2276 12.4972H14.5563C14.6001 12.3002 14.7755 12.1525 14.9856 12.1525C15.1961 12.1525 15.3715 12.3002 15.4153 12.4972H15.744C15.7878 12.3002 15.963 12.1525 16.1734 12.1525C16.3835 12.1525 16.559 12.3002 16.6028 12.4972H16.8273V7.64531H16.6196Z" fill="#825E3B"/>
<path d="M35 13.2783C35 18.8963 30.4459 23.4505 24.8278 23.4505C19.2098 23.4505 14.6556 18.8963 14.6556 13.2783C14.6556 7.66026 19.2098 3.10608 24.8278 3.10608C30.4459 3.10608 35 7.66026 35 13.2783Z" fill="#E05858"/>
<path d="M33.2678 13.2785C33.2678 17.9398 29.489 21.7185 24.8278 21.7185C20.1665 21.7185 16.3878 17.9398 16.3878 13.2785C16.3878 8.61729 20.1665 4.83856 24.8278 4.83856C29.489 4.83856 33.2678 8.61729 33.2678 13.2785Z" fill="#FF6F69"/>
<path d="M29.7422 11.4929C29.0476 9.95616 27.6399 8.86882 25.976 8.58364C25.6398 8.52596 25.3202 8.75186 25.2628 9.08859C25.2051 9.42478 25.431 9.74414 25.7672 9.80155C27.0257 10.017 28.0906 10.8398 28.6159 12.0019C29.4861 13.9274 28.6276 16.2017 26.7023 17.0722C24.7765 17.9425 22.5022 17.0837 21.632 15.1579C21.4915 14.8468 21.1257 14.7087 20.8146 14.8492C20.5035 14.9899 20.3655 15.356 20.5059 15.6668C21.6568 18.2132 24.6649 19.3492 27.2113 18.198C29.7574 17.0476 30.8925 14.0393 29.7422 11.4929Z" fill="#FFEEAD"/>
<path d="M26.5814 6.40496C26.3691 6.23513 26.0826 6.19241 25.8297 6.29201L21.9447 7.82742C21.6991 7.92996 21.5153 8.15133 21.4742 8.41702C21.4334 8.68325 21.5362 8.95108 21.7453 9.12118L24.9875 11.7554C25.1985 11.9266 25.4847 11.9717 25.7381 11.8742C25.7515 11.8692 25.7646 11.8636 25.7779 11.8574C26.0105 11.7525 26.1758 11.5365 26.2151 11.2822L26.8575 7.11285C26.8992 6.84422 26.7937 6.57399 26.5814 6.40496Z" fill="#FFEEAD"/>
<path d="M7.46774 28.4295H3.45162C3.31837 28.4295 3.20996 28.5376 3.20996 28.6712C3.20996 28.8047 3.31811 28.9128 3.45162 28.9128H7.46801C7.60152 28.9128 7.70967 28.8049 7.70967 28.6712C7.7094 28.5376 7.60152 28.4295 7.46774 28.4295Z" fill="#99734A"/>
<path d="M7.46774 29.7094H3.45162C3.31837 29.7094 3.20996 29.8175 3.20996 29.951C3.20996 30.0843 3.31811 30.1927 3.45162 30.1927H7.46801C7.60152 30.1927 7.70967 30.0845 7.70967 29.951C7.7094 29.8178 7.60152 29.7094 7.46774 29.7094Z" fill="#99734A"/>
<path d="M7.46774 30.9895H3.45162C3.31837 30.9895 3.20996 31.0974 3.20996 31.2312C3.20996 31.3647 3.31811 31.4728 3.45162 31.4728H7.46801C7.60152 31.4728 7.70967 31.3647 7.70967 31.2312C7.70967 31.0974 7.60152 30.9895 7.46774 30.9895Z" fill="#99734A"/>
<path d="M7.46774 32.2696H3.45162C3.31837 32.2696 3.20996 32.3775 3.20996 32.5113C3.20996 32.6448 3.31811 32.7529 3.45162 32.7529H7.46801C7.60152 32.7529 7.70967 32.6445 7.70967 32.5113C7.70967 32.3778 7.60152 32.2696 7.46774 32.2696Z" fill="#99734A"/>
</svg>
