<svg width="50" height="42" viewBox="0 0 50 42" fill="none" xmlns="http://www.w3.org/2000/svg">
<path d="M45.2242 11.7903C45.2242 7.0798 41.3914 3.24829 36.6823 3.24829V20.3309C41.3914 20.3309 45.2242 16.4994 45.2242 11.7903Z" fill="#57A4FF"/>
<path d="M49.9999 35.6461C49.9999 28.3027 44.0256 22.3284 36.6822 22.3284C32.8298 22.3284 29.2071 24.018 26.7131 26.8244C29.9175 29.6568 31.9869 33.7443 32.1446 38.3096H49.9999V35.6461Z" fill="#9BC9FF"/>
<path d="M36.6822 20.3309V3.24829C31.9718 3.24829 28.1403 7.0798 28.1403 11.7903C28.1403 16.4994 31.9718 20.3309 36.6822 20.3309Z" fill="#9BC9FF"/>
<path d="M26.7132 26.8245C23.8769 24.3174 20.1528 22.7932 16.0785 22.7932V41.5352H32.1556V38.8717C32.1556 38.6835 32.1512 38.4964 32.1447 38.3097C31.987 33.7444 29.9176 29.6569 26.7132 26.8245Z" fill="#003F8A"/>
<path d="M26.1427 10.0655C26.1427 4.51603 21.628 0 16.0785 0V20.1297C21.628 20.1297 26.1427 15.615 26.1427 10.0655Z" fill="#003F8A"/>
<path d="M0 38.8717V41.5352H16.0785V22.7932C7.21287 22.7932 0 30.0061 0 38.8717Z" fill="#0064F4"/>
<path d="M16.0785 20.1297V0C10.529 0 6.01428 4.51603 6.01428 10.0655C6.01428 15.615 10.529 20.1297 16.0785 20.1297Z" fill="#0064F4"/>
</svg>
