<svg width="35" height="35" viewBox="0 0 35 35" fill="none" xmlns="http://www.w3.org/2000/svg">
<path d="M0 17.5C0 7.83501 7.83501 0 17.5 0C27.165 0 35 7.83501 35 17.5C35 22.3001 33.0673 26.6489 29.9378 29.8106C29.8474 29.902 24.5803 28.1793 21.7206 28.1793C16.9944 28.1793 12.7058 30.0528 9.55698 33.0977C3.88438 30.2032 0 24.3052 0 17.5H0Z" fill="#00C1FB"/>
<path d="M31.4438 17.5C31.4438 25.201 25.201 31.4438 17.5 31.4438C9.79906 31.4438 3.55621 25.201 3.55621 17.5C3.55621 9.79906 9.79906 3.55621 17.5 3.55621C25.201 3.55621 31.4438 9.79906 31.4438 17.5Z" fill="#00D1FC"/>
<path d="M17.518 14.0875L10.1917 24.5329L2.86541 14.0875C0.370157 10.5299 0.791319 5.69393 3.864 2.62125C7.35867 -0.873423 13.0247 -0.873423 16.5194 2.62125C19.5921 5.69393 20.0132 10.5299 17.518 14.0875Z" fill="#FF5757"/>
<path d="M5.41373 14.0875L11.4659 22.7163L10.1918 24.5328L2.75243 14.0875C0.25718 10.5298 0.678343 5.69389 3.75103 2.62121C5.82334 0.548892 8.77209 -0.294526 11.4659 0.0908156C9.61688 0.355298 7.83475 1.19878 6.41233 2.62121C3.33964 5.69389 2.91848 10.5298 5.41373 14.0875V14.0875Z" fill="#FF4343"/>
<path d="M16.9509 8.76172C16.9509 12.4946 13.9247 15.5208 10.1918 15.5208C6.45893 15.5208 3.4328 12.4946 3.4328 8.76172C3.4328 5.02882 6.45893 2.00269 10.1918 2.00269C13.9247 2.00269 16.9509 5.02882 16.9509 8.76172Z" fill="#FF7A7A"/>
<path d="M13.0703 12.7893C13.1086 13.0127 12.8742 13.1829 12.6736 13.0775L10.3191 11.8397C10.2394 11.7978 10.1443 11.7978 10.0646 11.8397L7.71006 13.0775C7.5095 13.183 7.27502 13.0127 7.3133 12.7893L7.76297 10.1675C7.77822 10.0788 7.74875 9.9883 7.68436 9.92548L5.77953 8.06877C5.61724 7.91059 5.70679 7.63496 5.93108 7.60236L8.11106 7.28558C8.26398 7.26336 8.41512 7.33446 8.49585 7.46618C9.37755 8.90446 10.7823 9.98748 12.4452 10.4506C12.5889 10.4906 12.6964 10.61 12.7216 10.7571L13.0703 12.7893Z" fill="#FFC143"/>
<path d="M12.6992 9.92545C12.6347 9.98828 12.6053 10.0788 12.6206 10.1675L12.7243 10.7719C10.7027 10.3677 9.00671 9.0616 8.07367 7.29102L8.56353 7.21986C8.6526 7.20694 8.72958 7.15095 8.76943 7.07029L9.94665 4.68496C10.0469 4.48172 10.3368 4.48172 10.4371 4.68496L11.6143 7.07029C11.6541 7.15102 11.7311 7.20694 11.8202 7.21986L14.4526 7.6024C14.6768 7.63501 14.7664 7.91063 14.6041 8.06881L12.6992 9.92545Z" fill="#FFCD6B"/>
<path d="M29.425 9.91211V29.6633C29.425 30.0828 29.2428 30.4821 28.9251 30.7562C25.8594 33.4008 21.8664 35 17.4999 35C15.6546 35 13.8758 34.7143 12.2057 34.1849V9.91211C12.2057 9.34582 12.6648 8.88672 13.2311 8.88672H28.3996C28.9659 8.88672 29.425 9.34582 29.425 9.91211Z" fill="#DEECF1"/>
<path d="M16.3974 8.88672C15.8311 8.88672 15.372 9.34582 15.372 9.91211V34.8719C14.2826 34.7398 13.224 34.5077 12.2057 34.1848V9.91211C12.2057 9.34582 12.6648 8.88672 13.2311 8.88672H16.3974Z" fill="#A8D3D8"/>
<path d="M26.5704 11.416H25.4657C25.1825 11.416 24.953 11.1865 24.953 10.9033C24.953 10.6202 25.1825 10.3906 25.4657 10.3906H26.5704C26.8535 10.3906 27.083 10.6202 27.083 10.9033C27.083 11.1865 26.8535 11.416 26.5704 11.416ZM15.6994 10.9033C15.6994 10.6202 15.4699 10.3906 15.1867 10.3906H15.0605C14.7774 10.3906 14.5479 10.6202 14.5479 10.9033C14.5479 11.1865 14.7774 11.416 15.0605 11.416H15.1867C15.4699 11.416 15.6994 11.1865 15.6994 10.9033ZM17.5146 10.9033C17.5146 10.6202 17.285 10.3906 17.0019 10.3906H16.8757C16.5925 10.3906 16.363 10.6202 16.363 10.9033C16.363 11.1865 16.5925 11.416 16.8757 11.416H17.0019C17.285 11.416 17.5146 11.1865 17.5146 10.9033Z" fill="#8EBAC5"/>
<path d="M13.8042 30.6933V24.9395C13.8042 24.562 14.1102 24.2559 14.4878 24.2559H26.6601C27.0377 24.2559 27.3437 24.562 27.3437 24.9395V30.6933C27.3437 31.0709 27.0377 31.3769 26.6601 31.3769H14.4878C14.1102 31.3769 13.8042 31.0709 13.8042 30.6933ZM14.4878 33.8943H20.5078C20.8853 33.8943 21.1914 33.5883 21.1914 33.2107C21.1914 32.8332 20.8853 32.5271 20.5078 32.5271H14.4878C14.1102 32.5271 13.8042 32.8332 13.8042 33.2107C13.8042 33.5883 14.1102 33.8943 14.4878 33.8943Z" fill="#A8D3D8"/>
<path d="M15.2354 25.794C15.2354 25.5109 15.4649 25.2813 15.748 25.2813H25.3998C25.6829 25.2813 25.9125 25.5109 25.9125 25.794C25.9125 26.0772 25.6829 26.3067 25.3998 26.3067H15.748C15.4649 26.3067 15.2354 26.0772 15.2354 25.794V25.794ZM24.0093 28.3291H25.3998C25.6829 28.3291 25.9125 28.0996 25.9125 27.8164C25.9125 27.5333 25.6829 27.3037 25.3998 27.3037H24.0093C23.7262 27.3037 23.4966 27.5333 23.4966 27.8164C23.4966 28.0996 23.7262 28.3291 24.0093 28.3291ZM20.4961 28.3291H21.8866C22.1697 28.3291 22.3993 28.0996 22.3993 27.8164C22.3993 27.5333 22.1697 27.3037 21.8866 27.3037H20.4961C20.213 27.3037 19.9835 27.5333 19.9835 27.8164C19.9835 28.0996 20.213 28.3291 20.4961 28.3291ZM23.4276 30.3515H25.3998C25.683 30.3515 25.9125 30.122 25.9125 29.8388C25.9125 29.5557 25.683 29.3261 25.3998 29.3261H23.4276C23.1445 29.3261 22.9149 29.5557 22.9149 29.8388C22.9149 30.122 23.1445 30.3515 23.4276 30.3515Z" fill="#8EBAC5"/>
<path d="M29.9378 13.4473V14.58C29.9824 14.5673 30.0295 14.5605 30.0781 14.5605C30.3613 14.5605 30.5908 14.79 30.5908 15.0732V17.124C30.5908 17.4071 30.3613 17.6366 30.0781 17.6366C30.0295 17.6366 29.9824 17.6299 29.9378 17.6172V29.8105C29.6089 30.1427 29.2668 30.4619 28.9124 30.7671V9.91211C28.9124 9.62937 28.6824 9.39941 28.3997 9.39941H13.2312C12.9485 9.39941 12.7185 9.62937 12.7185 9.91211V34.3388C12.3722 34.2406 12.0303 34.1321 11.6931 34.0135V13.4473C11.6485 13.46 11.6014 13.4668 11.5527 13.4668C11.2696 13.4668 11.04 13.2372 11.04 12.9541V10.9033C11.04 10.6202 11.2696 10.3906 11.5527 10.3906C11.6014 10.3906 11.6485 10.3974 11.6931 10.4101V9.91211C11.6931 9.06397 12.383 8.37402 13.2312 8.37402H28.3997C29.2478 8.37402 29.9378 9.06397 29.9378 9.91211V10.4101C29.9824 10.3975 30.0295 10.3906 30.0781 10.3906C30.3613 10.3906 30.5908 10.6202 30.5908 10.9033V12.9541C30.5908 13.2372 30.3613 13.4668 30.0781 13.4668C30.0295 13.4668 29.9824 13.46 29.9378 13.4473V13.4473ZM21.8408 10.3906H19.79C19.5069 10.3906 19.2773 10.6202 19.2773 10.9033C19.2773 11.1865 19.5069 11.416 19.79 11.416H21.8408C22.124 11.416 22.3535 11.1865 22.3535 10.9033C22.3535 10.6202 22.124 10.3906 21.8408 10.3906Z" fill="#384949"/>
<path d="M26.1155 18.1761V20.5793C26.1155 20.8743 25.8764 21.1134 25.5814 21.1134H15.4343C15.1394 21.1134 14.9002 20.8743 14.9002 20.5793V13.3695C14.9002 13.0746 15.1394 12.8354 15.4343 12.8354H17.8001C17.9383 15.6618 20.5825 17.911 23.4432 17.911H25.5883C25.7808 17.911 25.9732 17.9834 26.0959 18.1317C26.1082 18.1465 26.1155 18.1613 26.1155 18.1761Z" fill="#FFC143"/>
<path d="M26.2223 20.8463C26.2223 21.1413 25.9832 21.3804 25.6882 21.3804H15.0071C14.7121 21.3804 14.473 21.1413 14.473 20.8463V18.9771C14.473 18.6821 14.7121 18.443 15.0071 18.443H15.8082C16.9519 18.443 17.909 19.242 18.1518 20.3122H25.6882C25.9832 20.3123 26.2223 20.5514 26.2223 20.8463ZM15.1048 17.7H15.8849C16.168 17.7 16.3976 17.4705 16.3976 17.1873C16.3976 16.9042 16.168 16.6746 15.8849 16.6746H15.1048C14.8217 16.6746 14.5921 16.9042 14.5921 17.1873C14.5921 17.4705 14.8217 17.7 15.1048 17.7Z" fill="#FF8835"/>
<path d="M26.1154 18.1761V18.2136H23.1406C20.1911 18.2136 17.8 15.8225 17.8 12.873V12.8355H20.7748C23.7244 12.8355 26.1154 15.2266 26.1154 18.1761Z" fill="#00C1FB"/>
<path d="M24.5997 16.7423C24.5282 16.7766 24.4527 16.7928 24.3784 16.7928C24.1873 16.7928 24.0039 16.6856 23.9157 16.5018C23.3636 15.3509 22.1826 14.6071 20.9068 14.6071C20.6236 14.6071 20.3941 14.3776 20.3941 14.0944C20.3941 13.8113 20.6236 13.5817 20.9068 13.5817C22.5745 13.5817 24.1186 14.5538 24.8402 16.0583C24.9627 16.3135 24.8551 16.6198 24.5997 16.7423V16.7423Z" fill="#00D1FC"/>
<path d="M17.4102 21.2673C17.4102 22.2997 16.5734 23.1365 15.541 23.1365C14.5087 23.1365 13.6719 22.2997 13.6719 21.2673C13.6719 20.2349 14.5087 19.3981 15.5411 19.3981C16.5735 19.3981 17.4102 20.2349 17.4102 21.2673ZM25.4745 19.3981C24.4422 19.3981 23.6053 20.2349 23.6053 21.2673C23.6053 22.2997 24.4422 23.1365 25.4745 23.1365C26.5069 23.1365 27.3438 22.2997 27.3438 21.2673C27.3438 20.2349 26.5069 19.3981 25.4745 19.3981Z" fill="#384949"/>
<path d="M26.2756 21.2673C26.2756 21.7097 25.917 22.0684 25.4745 22.0684C25.0321 22.0684 24.6734 21.7097 24.6734 21.2673C24.6734 20.8249 25.0321 20.4662 25.4745 20.4662C25.917 20.4662 26.2756 20.8249 26.2756 21.2673Z" fill="#537983"/>
<path d="M26.4789 18.2136C26.4789 18.4967 26.2493 18.7263 25.9662 18.7263H25.1861C24.903 18.7263 24.6734 18.4967 24.6734 18.2136C24.6734 17.9304 24.903 17.7009 25.1861 17.7009H25.9662C26.2494 17.7009 26.4789 17.9304 26.4789 18.2136Z" fill="white"/>
<path d="M19.8995 31.7432C19.838 31.8333 19.76 31.9113 19.6698 31.9729C18.4656 32.7945 17.008 33.2722 15.4384 33.2647C11.3692 33.2449 8.04408 29.9198 8.02432 25.8506C8.01673 24.2871 8.49074 22.8347 9.30654 21.6332C9.37428 21.5335 9.46007 21.4476 9.55988 21.3799C10.7614 20.5641 12.2138 20.0901 13.7772 20.0977C17.8464 20.1174 21.1715 23.4426 21.1913 27.5118C21.1989 29.0814 20.7212 30.539 19.8995 31.7432V31.7432Z" fill="#4BCD5C"/>
<path d="M19.9304 31.6976C18.5929 33.6893 16.3196 35 13.7402 35C9.62507 35 6.28906 31.664 6.28906 27.5488C6.28906 24.9694 7.59979 22.6961 9.59144 21.3586C8.79512 22.5444 8.33048 23.9716 8.33048 25.5074C8.33048 29.6226 11.6665 32.9586 15.7817 32.9586C17.3174 32.9586 18.7446 32.4939 19.9304 31.6976V31.6976Z" fill="#00C53B"/>
<path d="M19.3355 23.1461L13.5086 30.6656C13.4114 30.7909 13.2619 30.8643 13.1033 30.8643C12.9447 30.8643 12.7951 30.7909 12.698 30.6656L9.84856 26.9886C9.67513 26.7648 9.71601 26.4428 9.93982 26.2693C10.1635 26.096 10.4856 26.1367 10.6591 26.3605L13.1032 29.5146L18.5249 22.518C18.6985 22.2942 19.0206 22.2534 19.2442 22.4268C19.4681 22.6002 19.509 22.9223 19.3355 23.1461V23.1461Z" fill="white"/>
</svg>
