<svg width="100" height="100" viewBox="0 0 100 100" fill="none" xmlns="http://www.w3.org/2000/svg">
<path d="M0.50002 0.98002C0.765116 0.98002 0.98002 0.765116 0.98002 0.50002C0.98002 0.234923 0.765116 0.0200195 0.50002 0.0200195C0.234923 0.0200195 0.0200195 0.234923 0.0200195 0.50002C0.0200195 0.765116 0.234923 0.98002 0.50002 0.98002Z" fill="white"/>
<path d="M70.5621 74.771L67.1121 38.822C66.9741 37.442 65.5941 36.407 63.9381 36.407H62.2131V41.03C62.2131 42.272 61.2471 43.238 60.0051 43.238C58.7631 43.238 57.7971 42.272 57.7971 41.03V36.407H42.0651V41.03C42.0651 42.272 41.0991 43.238 39.8571 43.238C38.6151 43.238 37.6491 42.272 37.6491 41.03V36.407H36.0621C34.4061 36.407 33.0261 37.442 32.8881 38.822L29.4381 74.771C29.3001 76.289 30.7491 77.6 32.5431 77.6H67.4571C69.2511 77.6 70.7001 76.289 70.5621 74.771Z" fill="#05224C"/>
<path d="M39.857 41.9959C40.409 41.9959 40.823 41.5819 40.823 41.0299V33.6469C40.823 28.3339 44.756 24.0559 49.379 24.0559H50.69C55.313 24.0559 59.039 28.3339 59.039 33.6469V41.0299C59.039 41.5819 59.453 41.9959 60.005 41.9959C60.557 41.9959 60.971 41.5819 60.971 41.0299V33.6469C60.971 30.6799 60.005 27.9199 58.073 25.7809C56.141 23.5729 53.588 22.3999 50.69 22.3999H49.379C46.55 22.3999 43.859 23.5729 41.858 25.7809C39.926 27.9199 38.822 30.6799 38.822 33.6469V41.0299C38.891 41.5819 39.305 41.9959 39.857 41.9959Z" fill="#05224C"/>
</svg>
