<svg width="32" height="32" viewBox="0 0 32 32" fill="none" xmlns="http://www.w3.org/2000/svg">
<path d="M27.4375 7V30.125C27.4375 31.1588 26.5963 32 25.5625 32H6.4375C5.40375 32 4.5625 31.1588 4.5625 30.125V1.875C4.5625 0.84125 5.40375 0 6.4375 0H20.5C20.7488 0 20.9869 0.09875 21.1631 0.274375L27.1631 6.33687C27.3387 6.51312 27.4375 6.75125 27.4375 7Z" fill="#F1F2F2"/>
<path d="M27.4375 7V30.125C27.4375 31.1588 26.5963 32 25.5625 32H16V0H20.5C20.7488 0 20.9869 0.09875 21.1631 0.274375L27.1631 6.33687C27.3387 6.51312 27.4375 6.75125 27.4375 7Z" fill="#8DB3FF"/>
<path d="M8 5.9375H12.5C13.0177 5.9375 13.4375 5.51775 13.4375 5C13.4375 4.48225 13.0177 4.0625 12.5 4.0625H8C7.48225 4.0625 7.0625 4.48225 7.0625 5C7.0625 5.51775 7.48225 5.9375 8 5.9375Z" fill="#8DB3FF"/>
<path d="M12.5 8.0625H8C7.48225 8.0625 7.0625 8.48225 7.0625 9C7.0625 9.51775 7.48225 9.9375 8 9.9375H12.5C13.0177 9.9375 13.4375 9.51775 13.4375 9C13.4375 8.48225 13.0177 8.0625 12.5 8.0625Z" fill="#8DB3FF"/>
<path d="M27.4375 7H21.4375C20.9197 7 20.5 6.58025 20.5 6.0625V0C20.7438 0 20.9837 0.095 21.1631 0.274375L27.1631 6.33687C27.3425 6.51625 27.4375 6.75625 27.4375 7Z" fill="#8BC8F8"/>
<path d="M32 13V27C32 27.5175 31.58 27.9375 31.0625 27.9375H0.9375C0.42 27.9375 0 27.5175 0 27V13C0 12.4825 0.42 12.0625 0.9375 12.0625H31.0625C31.58 12.0625 32 12.4825 32 13Z" fill="#8DB3FF"/>
<path d="M32 13V27C32 27.5175 31.58 27.9375 31.0625 27.9375H16V12.0625H31.0625C31.58 12.0625 32 12.4825 32 13Z" fill="#5A90FF"/>
<path d="M10.5 15.5625H5.5C4.98225 15.5625 4.5625 15.9822 4.5625 16.5C4.5625 17.0178 4.98225 17.4375 5.5 17.4375H7.0625V23.5C7.0625 24.0177 7.48225 24.4375 8 24.4375C8.51775 24.4375 8.9375 24.0177 8.9375 23.5V17.4375H10.5C11.0177 17.4375 11.4375 17.0178 11.4375 16.5C11.4375 15.9822 11.0177 15.5625 10.5 15.5625Z" fill="#5A90FF"/>
<path d="M25.1521 20L27.2629 17.0449C27.5638 16.6236 27.4662 16.0381 27.0449 15.7371C26.6237 15.4362 26.0381 15.5338 25.7371 15.9551L24 18.3871L22.2629 15.9551C21.9619 15.5337 21.3764 15.4362 20.9551 15.7371C20.5338 16.0381 20.4361 16.6236 20.7371 17.0449L22.8479 20L20.7371 22.9551C20.4362 23.3764 20.5338 23.9619 20.9551 24.2629C21.3745 24.5625 21.9606 24.4681 22.2629 24.0449L24 21.6129L25.7371 24.0449C26.0389 24.4674 26.6247 24.5629 27.0449 24.2629C27.4662 23.9619 27.5639 23.3764 27.2629 22.9551L25.1521 20Z" fill="#8DB3FF"/>
<path d="M19.6275 23.1706C16.9147 15.9469 17.0334 16.2626 17.0256 16.2431C16.6524 15.3346 15.3627 15.3383 14.9925 16.245C14.9884 16.2539 15.1033 15.951 12.3731 23.1681C12.1419 23.7799 12.5929 24.4375 13.25 24.4375C13.6281 24.4375 13.985 24.2069 14.1269 23.8319L14.465 22.9375H17.5375L17.8725 23.8294C18.0544 24.3144 18.595 24.5594 19.0794 24.3775C19.5644 24.1956 19.81 23.655 19.6275 23.1706ZM15.1744 21.0625C15.1854 21.0334 15.9953 18.8924 16.0069 18.8619L16.8331 21.0625H15.1744Z" fill="#5A90FF"/>
<path d="M19.0794 24.3775C18.595 24.5594 18.0544 24.3144 17.8725 23.8294L17.5375 22.9375H16V21.0625H16.8331L16.0069 18.8619C15.9961 18.8903 16 19.2049 16 15.5625C16.4959 15.5625 16.9072 15.8838 17.0363 16.2706L19.6275 23.1706C19.81 23.655 19.5644 24.1956 19.0794 24.3775Z" fill="#8DB3FF"/>
</svg>
