<svg width="35" height="35" viewBox="0 0 35 35" fill="none" xmlns="http://www.w3.org/2000/svg">
<path d="M17.5 35C27.165 35 35 27.165 35 17.5C35 7.83502 27.165 0 17.5 0C7.83502 0 0 7.83502 0 17.5C0 27.165 7.83502 35 17.5 35Z" fill="#C2E4FF"/>
<path d="M9.043 29.75C8.6466 29.75 8.32523 29.4286 8.32523 29.0322V5.96777C8.32523 5.57137 8.6466 5.25 9.043 5.25C9.4394 5.25 9.76077 5.57137 9.76077 5.96777V29.0322C9.76077 29.4287 9.4394 29.75 9.043 29.75Z" fill="#CA6D36"/>
<path d="M28.2634 17.4191H14.4247C14.0283 17.4191 13.7069 17.7405 13.7069 18.1369V29.0322C13.7069 29.4286 14.0283 29.75 14.4247 29.75H28.2634C28.6598 29.75 28.9812 29.4286 28.9812 29.0322V18.1369C28.9812 17.7405 28.6598 17.4191 28.2634 17.4191Z" fill="#D9EFFF"/>
<path d="M28.2634 17.4191H21.344V29.75H28.2634C28.6598 29.75 28.9811 29.4286 28.9811 29.0322V18.1369C28.9811 17.7405 28.6598 17.4191 28.2634 17.4191Z" fill="#A2D8F4"/>
<path d="M29.5073 17.5988L21.8192 10.8114C21.5477 10.5718 21.1404 10.5718 20.8691 10.8114L13.1808 17.5988C12.9571 17.7963 12.879 18.1117 12.9845 18.3908C13.0901 18.67 13.3574 18.8547 13.6559 18.8547H29.0322C29.3307 18.8547 29.598 18.67 29.7036 18.3908C29.8091 18.1117 29.731 17.7963 29.5073 17.5988Z" fill="#FF637B"/>
<path d="M23.6505 23.7016H19.0376C18.6412 23.7016 18.3198 24.023 18.3198 24.4194V29.0323C18.3198 29.4287 18.6412 29.75 19.0376 29.75H23.6505C24.0469 29.75 24.3683 29.4287 24.3683 29.0323V24.4194C24.3683 24.023 24.0469 23.7016 23.6505 23.7016Z" fill="#CA6D36"/>
<path d="M23.6505 29.75C24.0469 29.75 24.3682 29.4287 24.3682 29.0323V24.4194C24.3682 24.023 24.0469 23.7016 23.6505 23.7016H21.344V29.75H23.6505Z" fill="#803602"/>
<path d="M12.1182 8.32528H10.7758L11.725 7.37609C12.0053 7.09583 12.0053 6.64133 11.725 6.36102C11.4448 6.08075 10.9902 6.08075 10.7099 6.36102L9.76076 7.31025V5.96777C9.76076 5.57137 9.43939 5.25 9.04299 5.25C8.64659 5.25 8.32522 5.57137 8.32522 5.96777V7.31025L7.37594 6.36102C7.09567 6.08075 6.64118 6.08075 6.36086 6.36102C6.08055 6.64128 6.08055 7.09578 6.36086 7.37609L7.31004 8.32528H5.96771C5.57131 8.32528 5.24994 8.64665 5.24994 9.04305C5.24994 9.43945 5.57131 9.76082 5.96771 9.76082H7.31024L6.361 10.7101C6.08069 10.9903 6.08069 11.4449 6.361 11.7251C6.50116 11.8653 6.68482 11.9354 6.86852 11.9354C7.05222 11.9354 7.23592 11.8653 7.37603 11.7251L8.32517 10.776V12.1183C8.32517 12.5147 8.64654 12.8361 9.04294 12.8361C9.43934 12.8361 9.76072 12.5147 9.76072 12.1183V10.7759L10.7099 11.7251C10.8501 11.8653 11.0338 11.9354 11.2175 11.9354C11.4012 11.9354 11.5849 11.8653 11.725 11.7251C12.0053 11.4449 12.0053 10.9904 11.725 10.7101L10.7757 9.76082H12.1182C12.5146 9.76082 12.8359 9.43945 12.8359 9.04305C12.8359 8.64665 12.5146 8.32528 12.1182 8.32528Z" fill="#54E360"/>
<path d="M29.0322 29.7501H5.96771C5.57131 29.7501 5.24994 29.4287 5.24994 29.0323C5.24994 28.6359 5.57131 28.3145 5.96771 28.3145H29.0322C29.4286 28.3145 29.7499 28.6359 29.7499 29.0323C29.7499 29.4287 29.4286 29.7501 29.0322 29.7501Z" fill="#FFD400"/>
<path d="M12.1182 8.32528H10.7758L11.725 7.37609C12.0053 7.09583 12.0053 6.64133 11.725 6.36102C11.4447 6.08075 10.9902 6.08075 10.7099 6.36102L9.76073 7.31025V5.96777C9.76073 5.57137 9.43936 5.25 9.04296 5.25H9.04291V12.8361H9.04296C9.43936 12.8361 9.76073 12.5147 9.76073 12.1183V10.7759L10.71 11.7251C10.8501 11.8652 11.0338 11.9353 11.2175 11.9353C11.4012 11.9353 11.5849 11.8652 11.725 11.7251C12.0053 11.4448 12.0053 10.9903 11.725 10.71L10.7758 9.76077H12.1182C12.5146 9.76077 12.836 9.4394 12.836 9.043C12.836 8.6466 12.5146 8.32528 12.1182 8.32528Z" fill="#1FBF66"/>
<path d="M29.5072 17.5988L21.8191 10.8114C21.6834 10.6916 21.5137 10.6317 21.344 10.6317V18.8547H29.0322C29.3306 18.8547 29.5979 18.67 29.7035 18.3908C29.8091 18.1117 29.7309 17.7963 29.5072 17.5988Z" fill="#FF193D"/>
<path d="M29.0321 28.3145H17.4999V29.7501H29.0321C29.4285 29.7501 29.7499 29.4287 29.7499 29.0323C29.7499 28.6359 29.4285 28.3145 29.0321 28.3145Z" fill="#FF9F00"/>
</svg>
