<svg xmlns="http://www.w3.org/2000/svg" xmlns:xlink="http://www.w3.org/1999/xlink" width="100" height="100" viewBox="0 0 100 100"><circle stroke="none" fill="#00bb43" r="48%" cx="50%" cy="50%"></circle><g transform="translate(50 50) scale(0.69 0.69) rotate(0) translate(-50 -50)" style="fill:#ffffff"><svg fill="#ffffff" xmlns="http://www.w3.org/2000/svg" xmlns:xlink="http://www.w3.org/1999/xlink" version="1.1" x="0px" y="0px" viewBox="0 0 90 90" enable-background="new 0 0 90 90" xml:space="preserve"><path d="M23.78,43.565h18.989c1.37-0.016,2.49,1.088,2.49,2.459c0,1.363-1.12,2.467-2.49,2.453H23.78  C20.54,48.444,20.54,43.597,23.78,43.565z M23.78,29.421h42.427c1.369-0.016,2.49,1.088,2.49,2.457c0,1.371-1.121,2.475-2.49,2.459  H23.78c-1.371,0.016-2.491-1.088-2.491-2.459C21.289,30.509,22.409,29.405,23.78,29.421z M19.529,14.054  c-4.37,0-7.954,3.58-7.954,7.949v52.078c0,1.756,2.193,2.563,3.328,1.225l9.959-11.709h45.599c4.371,0,7.948-3.572,7.948-7.943  v-33.65c0-4.369-3.577-7.949-7.948-7.949H19.529z"></path></svg></g></svg>